<svg width="304" height="96" viewBox="0 0 304 96" fill="none" xmlns="http://www.w3.org/2000/svg">
<circle cx="63.0518" cy="74.3687" r="20.5" fill="#EDADBF" stroke="black"/>
<circle cx="236.052" cy="74.3687" r="20.5" fill="#EDADBF" stroke="black"/>
<path d="M133.05 12.8685L131.55 9.36851C171.55 1.36862 193.05 1.86865 232.05 13.3686L228.55 17.8686C208.55 9.86856 190.55 8.86856 174.55 8.36863C172.05 7.86863 168.05 7.86859 165.55 8.36851C155.55 8.36863 143.55 9.86863 133.05 12.8685Z" fill="#EDADBF" stroke="black" stroke-width="0.5"/>
<path d="M131.55 9.3687L131.05 7.8687C167.05 -3.13135 199.55 0.868526 235.05 9.8687L232.05 13.3687C192.05 0.868652 166.05 2.36865 131.55 9.3687Z" fill="#EDADBF" stroke="black" stroke-width="0.5"/>
<path d="M131.55 9.36876C183.05 -2.13126 211.55 7.86877 232.05 13.3688" stroke="black" stroke-width="0.5"/>
<path d="M171.052 30.3687L174.552 8.36865C208.052 9.36865 219.552 14.8687 224.052 16.3687L226.535 28.3687C199.544 28.3693 182.049 29.8688 171.052 30.3687Z" fill="#EDADBF"/>
<path d="M227.052 30.8687L224.052 16.3687C219.552 14.8687 208.052 9.36865 174.552 8.36865L171.052 30.3687C182.052 29.8687 199.552 28.3687 226.552 28.3687" stroke="black" stroke-width="0.5"/>
<path d="M165.552 8.36865C132.552 9.36865 112.552 18.3687 93.5518 35.8687L96.0518 33.8687L160.052 30.8687L165.552 8.36865Z" fill="#EDADBF" stroke="black" stroke-width="0.5"/>
<path d="M240.05 22.8687C236.383 20.202 230.55 17.8687 224.05 16.3687L226.55 28.3687H233.05C236.05 26.8687 239.05 24.6374 240.05 22.8687Z" fill="#EDADBF" stroke="black" stroke-width="0.5"/>
<path d="M97.0518 78.8687H164.052L198.552 77.3687H213.052L213.552 82.8687H199.552H98.5518H87.0518V78.8687H97.0518Z" fill="#EDADBF"/>
<path d="M97.0518 78.8687H164.052L198.552 77.3687M97.0518 78.8687C97.0518 80.3687 97.5518 81.3687 98.5518 82.8687M97.0518 78.8687H87.0518V82.8687H98.5518M198.552 77.3687L199.552 82.8687M198.552 77.3687H213.052L213.552 82.8687H199.552M199.552 82.8687H98.5518" stroke="black" stroke-width="0.5"/>
<path d="M97.0509 78.8687C92.5518 74.3687 89.5518 52.3687 93.5509 35.8687L165.552 31.8687C161.552 36.8687 160.552 70.8687 164.052 78.8687H97.0509Z" fill="#EDADBF" stroke="black" stroke-width="0.5"/>
<path d="M229.052 30.8687L165.552 31.8687C161.552 36.8687 160.552 70.8687 164.052 78.8687L198.552 77.3687C203.052 75.8687 209.552 70.3687 229.052 30.8687Z" fill="#EDADBF" stroke="black" stroke-width="0.5"/>
<path d="M171.052 30.3687C166.552 30.8687 163.052 30.8687 160.052 30.8687L165.552 8.36873C168.552 7.86865 171.552 7.86865 174.552 8.36873L171.052 30.3687Z" fill="#EDADBF" stroke="black" stroke-width="0.5"/>
<path d="M99.5518 32.3689C104.052 37.8689 111.052 34.3689 115.052 32.8689C116.052 17.3688 103.052 25.3688 99.5518 32.3689Z" fill="#EDADBF" stroke="black" stroke-width="0.5"/>
<path d="M235.05 9.86865L232.05 13.3687C249.05 18.8687 259.55 21.8687 272.05 28.3687H273.55L281.55 26.8687C266.55 20.3687 259.05 17.8687 235.05 9.86865Z" fill="#E0426F" stroke="black" stroke-width="0.5"/>
<path d="M272.05 28.3687C261.55 22.8687 242.55 16.3687 232.05 13.3687L230.05 15.8687L245.05 23.3687C243.55 25.8687 239.55 27.8687 233.55 30.5687C245.55 29.8687 262.55 28.8687 272.05 28.3687Z" fill="#E0426F" stroke="black" stroke-width="0.5"/>
<path d="M277.552 34.6687L283.55 32.3687L273.051 28.3687L229.051 30.8687C221.551 45.8687 206.551 76.3687 198.551 77.3687H213.051C211.551 66.3687 221.051 42.8687 246.052 51.8687C256.552 46.3687 266.552 40.8687 277.552 34.6687Z" fill="#E0426F" stroke="black" stroke-width="0.5"/>
<path d="M278.55 34.3687C266.55 40.8687 256.55 46.3687 246.05 51.8687C250.55 54.8687 261.05 60.8687 260.05 79.8687L285.05 79.3687V77.8687C293.55 76.8687 302.05 80.3687 300.55 66.3687L302.55 56.3687C302.55 54.8687 300.05 50.8687 297.55 50.3687C299.05 47.8687 296.05 38.8687 296.05 38.8687V37.3687L292.05 34.3687L287.05 32.8687L283.55 32.3687L278.55 34.3687Z" fill="#E0426F" stroke="black" stroke-width="0.5"/>
<path d="M281.55 26.8687L273.05 28.3687L283.55 32.3687C293.05 33.3687 292.049 34.8687 296.044 37.2888L295.55 28.8687L281.55 26.8687Z" fill="#E0426F"/>
<path d="M296.05 37.3687L296.044 37.2888M296.044 37.2888L295.55 28.8687L281.55 26.8687L273.05 28.3687L283.55 32.3687C293.05 33.3687 292.049 34.8687 296.044 37.2888Z" stroke="black" stroke-width="0.5"/>
<path d="M294.552 36.8689C294.052 34.3687 283.052 34.1687 277.552 34.6687" stroke="black" stroke-width="0.5"/>
<path d="M300.552 66.8687L261.052 68.8687C260.552 63.8687 258.385 59.702 256.552 57.8687L302.552 55.3687M301.052 52.8687C290.052 51.3687 279.052 46.5687 267.052 40.5687M229.052 30.8687L273.052 28.3687L281.552 26.8687" stroke="black" stroke-width="0.5"/>
<path d="M291.052 40.8687C291.052 38.8687 290.052 34.8687 286.552 32.8687C288.773 32.8687 292.149 33.909 294.661 36.2786C295.124 37.8086 294.052 41.3687 291.01 42.8687C290.996 42.2784 291.052 41.5929 291.052 40.8687Z" fill="#E0426F"/>
<path d="M273.052 43.3687C280.047 43.7184 286.064 43.8235 291.445 44.3687M298.052 45.3687C295.949 44.918 293.756 44.6028 291.445 44.3687M296.052 37.8687C295.634 37.2835 295.165 36.7543 294.661 36.2786M291.445 44.3687C291.119 44.0239 291.025 43.5008 291.01 42.8687M291.01 42.8687C290.996 42.2784 291.052 41.5929 291.052 40.8687C291.052 38.8687 290.052 34.8687 286.552 32.8687C288.773 32.8687 292.149 33.909 294.661 36.2786M291.01 42.8687C294.052 41.3687 295.124 37.8086 294.661 36.2786" stroke="black" stroke-width="0.5"/>
<path d="M291.052 40.8687C286.552 40.8687 284.552 36.8687 283.552 34.3687" stroke="black" stroke-width="0.5"/>
<path d="M133.05 12.9686C119.55 16.9686 107.55 22.8687 93.5498 35.8687C100.55 23.8687 116.05 14.3687 131.55 9.36865L133.05 12.9686Z" fill="#E56E90" stroke="black" stroke-width="0.5"/>
<path d="M131.55 9.36865C111.55 15.0427 93.5498 32.3687 85.5498 30.3687C98.5498 20.8687 114.55 12.3687 131.05 7.86865L131.55 9.36865Z" fill="#E56E90" stroke="black" stroke-width="0.5"/>
<path d="M10.5505 48.3685H4.55047C2.0498 52.3685 2.0498 62.3685 2.55047 65.8685C1.0498 66.8685 1.0504 71.3685 2.05047 72.8685L6.05047 73.3685V74.8685L2.05047 76.8685V78.8685C6.05047 79.8685 14.5505 81.8685 22.5505 81.3685V79.8685H40.0505C39.3838 71.3685 41.0505 60.8685 50.0505 53.8685C47.5505 49.8685 40.5505 45.3685 37.5505 44.8685C27.5505 43.8685 12.5505 46.3685 10.5505 48.3685Z" fill="#E56E90" stroke="black" stroke-width="0.5"/>
<path d="M93.5518 35.8687C75.7184 36.702 44.0518 41.5687 33.5518 44.5687L37.5518 44.8687C42.5518 46.3687 48.0518 50.702 50.0518 53.8687C63.0508 44.3687 88.5508 51.3687 87.0508 78.8687H97.0508C90.0508 67.8687 91.0508 45.8687 93.5518 35.8687Z" fill="#E56E90" stroke="black" stroke-width="0.5"/>
<path d="M10.5498 48.3687H4.5498C37.05 28.8686 59.05 34.8687 85.0498 30.3687L94.05 35.8687C77.05 36.8687 48.0498 40.3686 34.0498 44.5687C26.0498 44.3686 12.0498 46.3686 10.5498 48.3687Z" fill="#E56E90" stroke="black" stroke-width="0.5"/>
<path d="M37.5513 44.8687C30.0513 43.8687 13.0513 45.8687 10.5513 48.3687C9.75126 50.7687 12.8846 53.702 14.5513 54.8687C24.0513 56.3687 37.5513 50.3687 37.5513 44.8687Z" fill="#E56E90" stroke="black" stroke-width="0.5"/>
<path d="M4.5505 48.3687C11.5505 49.3687 5.5505 59.8687 2.5505 64.8687C2.05043 57.8687 2.55029 52.3687 4.5505 48.3687Z" fill="#E56E90" stroke="black" stroke-width="0.5"/>
<path d="M22.5498 84.3687V79.8687H40.0498L40.5498 84.3687H22.5498Z" fill="#E56E90" stroke="black" stroke-width="0.5"/>
<path d="M3.05176 65.8687C4.55176 68.3687 6.55176 71.5353 6.05176 73.3687M22.5518 79.8687C12.0518 80.3687 7.55176 76.3687 8.55176 72.8687C9.05176 72.3687 10.5518 70.8687 11.5518 70.8687" stroke="black" stroke-width="0.5"/>
<path d="M32.5518 74.8688C30.0518 70.8688 24.5518 65.8689 21.5518 64.3689C19.8017 63.8688 17.1766 63.9938 14.4265 64.3689C12.8016 65.7022 11.5518 68.8688 12.0518 71.8688C12.0518 73.0354 13.3592 75.3688 16.0518 75.3688C20.5518 75.3688 27.5518 75.8688 32.5518 74.8688Z" fill="#E56E90"/>
<path d="M6.55176 65.8689C8.8017 65.3688 11.6766 64.7438 14.4265 64.3689M14.4265 64.3689C17.1766 63.9938 19.8017 63.8688 21.5518 64.3689C24.5518 65.8689 30.0518 70.8688 32.5518 74.8688C27.5518 75.8688 20.5518 75.3688 16.0518 75.3688C13.3592 75.3688 12.0518 73.0354 12.0518 71.8688C11.5518 68.8688 12.8016 65.7022 14.4265 64.3689Z" stroke="black" stroke-width="0.5"/>
<path d="M12.0518 71.3688C20.0518 69.8689 23.5518 72.4974 26.5518 73.9974M13.5518 74.3689L31.0518 73.8689" stroke="black" stroke-width="0.5"/>
<path d="M22.5498 82.8687H32.0498C34.0498 82.8687 35.5498 80.8687 35.0498 79.8687M38.5498 79.8687V84.3687" stroke="black" stroke-width="0.5"/>
<path d="M22.5517 81.3689C18.0517 81.3689 13.5517 81.8689 2.0517 78.8689V76.8689L6.0517 74.8689V73.3689L2.0517 72.8689C1.55078 71.3687 0.550977 68.3687 2.55097 65.8687C2.05122 57.8687 2.55122 51.3687 4.5517 48.3684C37.0517 28.8688 59.0517 34.8688 85.0517 30.3688C163.052 -24.6313 245.052 12.3686 282.052 26.8688L295.552 28.8687L296.052 35.8687V38.8687C297.55 43.8687 298.885 48.3687 297.552 50.3687C300.052 51.3687 302.552 54.5353 302.552 56.3687L300.552 66.3687C301.004 77.2166 298.596 77.4408 289.264 77.7533C288.273 77.7865 286.204 77.8206 285.052 77.8687V79.3687L260.052 79.7997M22.5517 81.3689V84.3689H40.55L40.0517 79.8689M22.5517 81.3689V79.8689H40.0517M40.0517 79.8689C37.0517 38.3689 90.5517 41.3689 87.0517 80.3689V82.8687H213.552C207.552 39.3687 262.052 39.3687 260.052 79.7997M259.55 79.7997H260.052" stroke="black"/>
</svg>
