<svg width="303" height="95" viewBox="0 0 303 95" fill="none" xmlns="http://www.w3.org/2000/svg">
<circle cx="62.8652" cy="73.7222" r="20.5" fill="#EFC7D3" stroke="black"/>
<circle cx="235.865" cy="73.7222" r="20.5" fill="#EFC7D3" stroke="black"/>
<path d="M132.863 12.222L131.363 8.72202C171.363 0.722136 192.863 1.22217 231.863 12.7221L228.363 17.2221C208.363 9.22208 190.363 8.22208 174.363 7.72215C171.863 7.22215 167.863 7.22211 165.363 7.72202C155.363 7.72215 143.363 9.22215 132.863 12.222Z" fill="#E0426F" stroke="black" stroke-width="0.5"/>
<path d="M131.363 8.72221L130.863 7.22221C166.863 -3.77783 199.363 0.222042 234.863 9.22221L231.863 12.7222C191.863 0.222168 165.863 1.72217 131.363 8.72221Z" fill="#E0426F" stroke="black" stroke-width="0.5"/>
<path d="M131.363 8.72228C182.863 -2.77775 211.363 7.22229 231.863 12.7223" stroke="black" stroke-width="0.5"/>
<path d="M170.865 29.7222L174.365 7.72217C207.865 8.72217 219.365 14.2222 223.865 15.7222L226.348 27.7222C199.358 27.7228 181.863 29.2223 170.865 29.7222Z" fill="#E0426F"/>
<path d="M226.865 30.2222L223.865 15.7222C219.365 14.2222 207.865 8.72217 174.365 7.72217L170.865 29.7222C181.865 29.2222 199.365 27.7222 226.365 27.7222" stroke="black" stroke-width="0.5"/>
<path d="M165.365 7.72217C132.365 8.72217 112.365 17.7222 93.3652 35.2222L95.8652 33.2222L159.865 30.2222L165.365 7.72217Z" fill="#E0426F" stroke="black" stroke-width="0.5"/>
<path d="M239.863 22.2222C236.197 19.5555 230.363 17.2222 223.863 15.7222L226.363 27.7222H232.863C235.863 26.2222 238.863 23.9909 239.863 22.2222Z" fill="#E0426F" stroke="black" stroke-width="0.5"/>
<path d="M96.8652 78.2222H163.865L198.365 76.7222H212.865L213.365 82.2222H199.365H98.3652H86.8652V78.2222H96.8652Z" fill="#E0426F"/>
<path d="M96.8652 78.2222H163.865L198.365 76.7222M96.8652 78.2222C96.8652 79.7222 97.3652 80.7222 98.3652 82.2222M96.8652 78.2222H86.8652V82.2222H98.3652M198.365 76.7222L199.365 82.2222M198.365 76.7222H212.865L213.365 82.2222H199.365M199.365 82.2222H98.3652" stroke="black" stroke-width="0.5"/>
<path d="M96.8644 78.2222C92.3652 73.7222 89.3653 51.7222 93.3644 35.2222L165.365 31.2222C161.365 36.2222 160.365 70.2222 163.865 78.2222H96.8644Z" fill="#E0426F" stroke="black" stroke-width="0.5"/>
<path d="M228.865 30.2222L165.365 31.2222C161.365 36.2222 160.365 70.2222 163.865 78.2222L198.365 76.7222C202.865 75.2222 209.365 69.7222 228.865 30.2222Z" fill="#E0426F" stroke="black" stroke-width="0.5"/>
<path d="M170.865 29.7222C166.365 30.2222 162.865 30.2222 159.865 30.2222L165.365 7.72224C168.365 7.22217 171.365 7.22217 174.365 7.72224L170.865 29.7222Z" fill="#E0426F" stroke="black" stroke-width="0.5"/>
<path d="M99.3652 31.7224C103.865 37.2224 110.865 33.7224 114.865 32.2224C115.865 16.7223 102.865 24.7223 99.3652 31.7224Z" fill="#E0426F" stroke="black" stroke-width="0.5"/>
<path d="M234.863 9.22217L231.863 12.7222C248.863 18.2222 259.363 21.2222 271.863 27.7222H273.363L281.363 26.2222C266.363 19.7222 258.863 17.2222 234.863 9.22217Z" fill="#E56E90" stroke="black" stroke-width="0.5"/>
<path d="M271.863 27.7222C261.363 22.2222 242.363 15.7222 231.863 12.7222L229.863 15.2222L244.863 22.7222C243.363 25.2222 239.363 27.2222 233.363 29.9222C245.363 29.2222 262.363 28.2222 271.863 27.7222Z" fill="#E56E90" stroke="black" stroke-width="0.5"/>
<path d="M277.365 34.0222L283.364 31.7222L272.864 27.7222L228.864 30.2222C221.364 45.2222 206.364 75.7222 198.364 76.7222H212.864C211.364 65.7222 220.864 42.2222 245.865 51.2222C256.365 45.7222 266.365 40.2222 277.365 34.0222Z" fill="#E56E90" stroke="black" stroke-width="0.5"/>
<path d="M278.363 33.7222C266.363 40.2222 256.363 45.7222 245.863 51.2222C250.363 54.2222 260.863 60.2222 259.863 79.2222L284.863 78.7222V77.2222C293.363 76.2222 301.863 79.7222 300.363 65.7222L302.363 55.7222C302.363 54.2222 299.863 50.2222 297.363 49.7222C298.863 47.2222 295.863 38.2222 295.863 38.2222V36.7222L291.863 33.7222L286.863 32.2222L283.363 31.7222L278.363 33.7222Z" fill="#E56E90" stroke="black" stroke-width="0.5"/>
<path d="M281.363 26.2222L272.863 27.7222L283.363 31.7222C292.863 32.7222 291.862 34.2222 295.857 36.6423L295.363 28.2222L281.363 26.2222Z" fill="#E56E90"/>
<path d="M295.863 36.7222L295.857 36.6423M295.857 36.6423L295.363 28.2222L281.363 26.2222L272.863 27.7222L283.363 31.7222C292.863 32.7222 291.862 34.2222 295.857 36.6423Z" stroke="black" stroke-width="0.5"/>
<path d="M294.365 36.2224C293.865 33.7223 282.865 33.5222 277.365 34.0222" stroke="black" stroke-width="0.5"/>
<path d="M300.365 66.2222L260.865 68.2222C260.365 63.2222 258.199 59.0555 256.365 57.2222L302.365 54.7222M300.865 52.2222C289.865 50.7222 278.865 45.9222 266.865 39.9222M228.865 30.2222L272.865 27.7222L281.365 26.2222" stroke="black" stroke-width="0.5"/>
<path d="M290.865 40.2222C290.865 38.2222 289.865 34.2222 286.365 32.2222C288.586 32.2222 291.963 33.2626 294.474 35.6322C294.938 37.1622 293.865 40.7222 290.823 42.2222C290.81 41.6319 290.865 40.9465 290.865 40.2222Z" fill="#E56E90"/>
<path d="M272.865 42.7222C279.861 43.072 285.878 43.177 291.258 43.7222M297.865 44.7222C295.762 44.2715 293.569 43.9563 291.258 43.7222M295.865 37.2222C295.447 36.637 294.978 36.1078 294.474 35.6322M291.258 43.7222C290.932 43.3774 290.838 42.8544 290.823 42.2222M290.823 42.2222C290.81 41.6319 290.865 40.9465 290.865 40.2222C290.865 38.2222 289.865 34.2222 286.365 32.2222C288.586 32.2222 291.963 33.2626 294.474 35.6322M290.823 42.2222C293.865 40.7222 294.938 37.1622 294.474 35.6322" stroke="black" stroke-width="0.5"/>
<path d="M290.865 40.2222C286.365 40.2222 284.365 36.2222 283.365 33.7222" stroke="black" stroke-width="0.5"/>
<path d="M132.863 12.3221C119.363 16.3221 107.363 22.2222 93.3633 35.2222C100.363 23.2222 115.863 13.7222 131.363 8.72217L132.863 12.3221Z" fill="#EFC7D3" stroke="black" stroke-width="0.5"/>
<path d="M131.363 8.72217C111.363 14.3962 93.3633 31.7222 85.3633 29.7222C98.3633 20.2222 114.363 11.7222 130.863 7.22217L131.363 8.72217Z" fill="#EFC7D3" stroke="black" stroke-width="0.5"/>
<path d="M10.3639 47.7221H4.36395C1.86328 51.722 1.86328 61.722 2.36395 65.222C0.863281 66.222 0.863879 70.722 1.86395 72.222L5.86395 72.722V74.222L1.86395 76.222V78.222C5.86395 79.222 14.3639 81.222 22.3639 80.722V79.222H39.8639C39.1973 70.722 40.8639 60.222 49.8639 53.222C47.3639 49.222 40.3639 44.722 37.3639 44.2221C27.3639 43.222 12.3639 45.7221 10.3639 47.7221Z" fill="#EFC7D3" stroke="black" stroke-width="0.5"/>
<path d="M93.3652 35.2222C75.5319 36.0555 43.8652 40.9222 33.3652 43.9222L37.3652 44.2222C42.3652 45.7222 47.8652 50.0555 49.8652 53.2222C62.8643 43.7222 88.3643 50.7222 86.8643 78.2222H96.8643C89.8643 67.2222 90.8643 45.2222 93.3652 35.2222Z" fill="#EFC7D3" stroke="black" stroke-width="0.5"/>
<path d="M10.3633 47.7222H4.36328C36.8635 28.2221 58.8635 34.2222 84.8633 29.7222L93.8635 35.2222C76.8635 36.2222 47.8633 39.7222 33.8633 43.9222C25.8633 43.7222 11.8633 45.7222 10.3633 47.7222Z" fill="#EFC7D3" stroke="black" stroke-width="0.5"/>
<path d="M37.3647 44.2222C29.8647 43.2222 12.8647 45.2222 10.3647 47.7222C9.56474 50.1222 12.6981 53.0555 14.3647 54.2222C23.8647 55.7222 37.3647 49.7222 37.3647 44.2222Z" fill="#EFC7D3" stroke="black" stroke-width="0.5"/>
<path d="M4.36398 47.7222C11.364 48.7222 5.36398 59.2222 2.36398 64.2222C1.86391 57.2222 2.36377 51.7222 4.36398 47.7222Z" fill="#EFC7D3" stroke="black" stroke-width="0.5"/>
<path d="M22.3633 83.7222V79.2222H39.8633L40.3633 83.7222H22.3633Z" fill="#EFC7D3" stroke="black" stroke-width="0.5"/>
<path d="M2.86523 65.2222C4.36523 67.7222 6.36523 70.8888 5.86523 72.7222M22.3652 79.2222C11.8652 79.7222 7.36523 75.7222 8.36523 72.2222C8.86523 71.7222 10.3652 70.2222 11.3652 70.2222" stroke="black" stroke-width="0.5"/>
<path d="M32.3652 74.2223C29.8652 70.2223 24.3652 65.2224 21.3652 63.7224C19.6152 63.2224 16.9901 63.3474 14.24 63.7224C12.6151 65.0557 11.3652 68.2223 11.8652 71.2223C11.8652 72.389 13.1727 74.7223 15.8652 74.7223C20.3652 74.7223 27.3652 75.2223 32.3652 74.2223Z" fill="#EFC7D3"/>
<path d="M6.36523 65.2224C8.61518 64.7223 11.4901 64.0974 14.24 63.7224M14.24 63.7224C16.9901 63.3474 19.6152 63.2224 21.3652 63.7224C24.3652 65.2224 29.8652 70.2223 32.3652 74.2223C27.3652 75.2223 20.3652 74.7223 15.8652 74.7223C13.1727 74.7223 11.8652 72.389 11.8652 71.2223C11.3652 68.2223 12.6151 65.0557 14.24 63.7224Z" stroke="black" stroke-width="0.5"/>
<path d="M11.8652 70.7224C19.8652 69.2224 23.3652 71.8509 26.3652 73.3509M13.3652 73.7224L30.8652 73.2224" stroke="black" stroke-width="0.5"/>
<path d="M22.3633 82.2222H31.8633C33.8633 82.2222 35.3633 80.2222 34.8633 79.2222M38.3633 79.2222V83.7222" stroke="black" stroke-width="0.5"/>
<path d="M22.3652 80.7224C17.8652 80.7224 13.3652 81.2224 1.86518 78.2224V76.2224L5.86518 74.2224V72.7224L1.86518 72.2224C1.36426 70.7222 0.364454 67.7222 2.36445 65.2222C1.86469 57.2222 2.36469 50.7222 4.36518 47.7219C36.8652 28.2223 58.8652 34.2224 84.8652 29.7224C162.865 -25.2778 244.865 11.7222 281.865 26.2223L295.365 28.2222L295.865 35.2222V38.2222C297.364 43.2222 298.699 47.7222 297.365 49.7222C299.865 50.7222 302.365 53.8888 302.365 55.7222L300.365 65.7222C300.817 76.5701 298.409 76.7944 289.077 77.1068C288.086 77.14 286.017 77.1742 284.865 77.2222V78.7222L259.865 79.1532M22.3652 80.7224V83.7224H40.3635L39.8652 79.2224M22.3652 80.7224V79.2224H39.8652M39.8652 79.2224C36.8652 37.7224 90.3652 40.7224 86.8652 79.7224V82.2222H213.365C207.365 38.7222 261.865 38.7222 259.865 79.1532M259.364 79.1532H259.865" stroke="black"/>
</svg>
