<svg width="303" height="95" viewBox="0 0 303 95" fill="none" xmlns="http://www.w3.org/2000/svg">
<circle cx="62.8545" cy="73.707" r="20.5" fill="#EFC7D3" stroke="black"/>
<circle cx="235.854" cy="73.707" r="20.5" fill="#EFC7D3" stroke="black"/>
<path d="M132.853 12.2069L131.353 8.70689C171.353 0.706999 192.853 1.20703 231.853 12.707L228.353 17.207C208.353 9.20694 190.353 8.20694 174.353 7.70701C171.853 7.20701 167.853 7.20697 165.353 7.70689C155.353 7.70701 143.353 9.20701 132.853 12.2069Z" fill="#E56E90" stroke="black" stroke-width="0.5"/>
<path d="M131.353 8.70708L130.853 7.20708C166.853 -3.79297 199.353 0.206905 234.853 9.20708L231.853 12.7071C191.853 0.207031 165.853 1.70703 131.353 8.70708Z" fill="#E56E90" stroke="black" stroke-width="0.5"/>
<path d="M131.353 8.70714C182.853 -2.79288 211.353 7.20715 231.853 12.7071" stroke="black" stroke-width="0.5"/>
<path d="M170.854 29.707L174.354 7.70703C207.854 8.70703 219.354 14.207 223.854 15.707L226.337 27.707C199.347 27.7077 181.852 29.2071 170.854 29.707Z" fill="#E56E90"/>
<path d="M226.854 30.207L223.854 15.707C219.354 14.207 207.854 8.70703 174.354 7.70703L170.854 29.707C181.854 29.207 199.354 27.707 226.354 27.707" stroke="black" stroke-width="0.5"/>
<path d="M165.354 7.70703C132.354 8.70703 112.354 17.707 93.3545 35.207L95.8545 33.207L159.854 30.207L165.354 7.70703Z" fill="#E56E90" stroke="black" stroke-width="0.5"/>
<path d="M239.853 22.207C236.186 19.5404 230.353 17.207 223.853 15.707L226.353 27.707H232.853C235.853 26.207 238.853 23.9758 239.853 22.207Z" fill="#E56E90" stroke="black" stroke-width="0.5"/>
<path d="M96.8545 78.207H163.854L198.354 76.707H212.854L213.354 82.207H199.354H98.3545H86.8545V78.207H96.8545Z" fill="#E56E90"/>
<path d="M96.8545 78.207H163.854L198.354 76.707M96.8545 78.207C96.8545 79.707 97.3545 80.707 98.3545 82.207M96.8545 78.207H86.8545V82.207H98.3545M198.354 76.707L199.354 82.207M198.354 76.707H212.854L213.354 82.207H199.354M199.354 82.207H98.3545" stroke="black" stroke-width="0.5"/>
<path d="M96.8536 78.207C92.3545 73.707 89.3545 51.707 93.3536 35.207L165.354 31.207C161.354 36.207 160.354 70.207 163.854 78.207H96.8536Z" fill="#E56E90" stroke="black" stroke-width="0.5"/>
<path d="M228.854 30.207L165.354 31.207C161.355 36.207 160.355 70.207 163.854 78.207L198.354 76.707C202.854 75.207 209.354 69.707 228.854 30.207Z" fill="#E56E90" stroke="black" stroke-width="0.5"/>
<path d="M170.854 29.7071C166.354 30.2071 162.854 30.2071 159.854 30.2071L165.354 7.70711C168.354 7.20703 171.354 7.20703 174.354 7.70711L170.854 29.7071Z" fill="#E56E90" stroke="black" stroke-width="0.5"/>
<path d="M99.3545 31.7073C103.854 37.2073 110.854 33.7073 114.854 32.2073C115.854 16.7072 102.854 24.7072 99.3545 31.7073Z" fill="#E56E90" stroke="black" stroke-width="0.5"/>
<path d="M234.853 9.20703L231.853 12.707C248.853 18.207 259.353 21.207 271.853 27.707H273.353L281.353 26.207C266.353 19.707 258.853 17.207 234.853 9.20703Z" fill="#E0426F" stroke="black" stroke-width="0.5"/>
<path d="M271.853 27.707C261.353 22.207 242.353 15.707 231.853 12.707L229.853 15.207L244.853 22.707C243.353 25.207 239.353 27.207 233.353 29.907C245.353 29.207 262.353 28.207 271.853 27.707Z" fill="#E0426F" stroke="black" stroke-width="0.5"/>
<path d="M277.354 34.007L283.353 31.707L272.854 27.707L228.854 30.207C221.354 45.207 206.354 75.707 198.354 76.707H212.854C211.354 65.707 220.854 42.207 245.854 51.207C256.354 45.707 266.354 40.207 277.354 34.007Z" fill="#E0426F" stroke="black" stroke-width="0.5"/>
<path d="M278.353 33.7071C266.353 40.2071 256.353 45.7071 245.853 51.2071C250.353 54.207 260.853 60.207 259.853 79.207L284.853 78.707V77.207C293.353 76.207 301.853 79.707 300.353 65.707L302.353 55.707C302.353 54.207 299.853 50.207 297.353 49.707C298.853 47.207 295.853 38.207 295.853 38.207V36.707L291.853 33.707L286.853 32.207L283.353 31.707L278.353 33.7071Z" fill="#E0426F" stroke="black" stroke-width="0.5"/>
<path d="M281.353 26.207L272.853 27.707L283.353 31.707C292.853 32.707 291.851 34.207 295.847 36.6272L295.353 28.207L281.353 26.207Z" fill="#E0426F"/>
<path d="M295.853 36.707L295.847 36.6272M295.847 36.6272L295.353 28.207L281.353 26.207L272.853 27.707L283.353 31.707C292.853 32.707 291.851 34.207 295.847 36.6272Z" stroke="black" stroke-width="0.5"/>
<path d="M294.354 36.2072C293.854 33.7071 282.854 33.507 277.354 34.007" stroke="black" stroke-width="0.5"/>
<path d="M300.354 66.207L260.854 68.207C260.354 63.207 258.188 59.0404 256.354 57.207L302.354 54.707M300.854 52.207C289.854 50.707 278.854 45.907 266.854 39.907M228.854 30.207L272.854 27.707L281.354 26.207" stroke="black" stroke-width="0.5"/>
<path d="M290.854 40.207C290.854 38.207 289.854 34.207 286.354 32.207C288.575 32.207 291.952 33.2474 294.463 35.617C294.927 37.147 293.854 40.707 290.813 42.207C290.799 41.6167 290.854 40.9313 290.854 40.207Z" fill="#E0426F"/>
<path d="M272.854 42.707C279.85 43.0568 285.867 43.1619 291.248 43.707M297.854 44.707C295.751 44.2564 293.558 43.9411 291.248 43.707M295.854 37.207C295.437 36.6219 294.967 36.0927 294.463 35.617M291.248 43.707C290.921 43.3623 290.827 42.8392 290.813 42.207M290.813 42.207C290.799 41.6168 290.854 40.9313 290.854 40.207C290.854 38.207 289.854 34.207 286.354 32.207C288.575 32.207 291.952 33.2474 294.463 35.617M290.813 42.207C293.854 40.707 294.927 37.147 294.463 35.617" stroke="black" stroke-width="0.5"/>
<path d="M290.854 40.207C286.354 40.207 284.354 36.207 283.354 33.707" stroke="black" stroke-width="0.5"/>
<path d="M132.853 12.307C119.353 16.307 107.353 22.207 93.3525 35.207C100.353 23.207 115.853 13.707 131.353 8.70703L132.853 12.307Z" stroke="black" stroke-width="0.5"/>
<path d="M131.353 8.70703C111.353 14.3811 93.3525 31.707 85.3525 29.707C98.3525 20.207 114.353 11.707 130.853 7.20703L131.353 8.70703Z" stroke="black" stroke-width="0.5"/>
<path d="M10.3532 47.7069H4.35321C1.85254 51.7069 1.85254 61.7069 2.35321 65.2069C0.852539 66.2069 0.853137 70.7069 1.85321 72.2069L5.85321 72.7069V74.2069L1.85321 76.2069V78.2069C5.85321 79.2069 14.3532 81.2069 22.3532 80.7069V79.2069H39.8532C39.1865 70.7069 40.8532 60.2069 49.8532 53.2069C47.3532 49.2069 40.3532 44.7069 37.3532 44.2069C27.3532 43.2069 12.3532 45.7069 10.3532 47.7069Z" stroke="black" stroke-width="0.5"/>
<path d="M93.3545 35.207C75.5212 36.0404 43.8545 40.907 33.3545 43.907L37.3545 44.207C42.3545 45.707 47.8545 50.0404 49.8545 53.207C62.8535 43.707 88.3535 50.707 86.8535 78.207H96.8535C89.8535 67.207 90.8535 45.207 93.3545 35.207Z" stroke="black" stroke-width="0.5"/>
<path d="M10.3525 47.7071H4.35254C36.8527 28.207 58.8528 34.207 84.8525 29.707L93.8528 35.207C76.8528 36.207 47.8525 39.707 33.8525 43.907C25.8525 43.707 11.8525 45.707 10.3525 47.7071Z" stroke="black" stroke-width="0.5"/>
<path d="M37.354 44.2071C29.854 43.207 12.854 45.207 10.354 47.7071C9.55399 50.107 12.6873 53.0404 14.354 54.207C23.854 55.707 37.354 49.707 37.354 44.2071Z" stroke="black" stroke-width="0.5"/>
<path d="M4.35323 47.707C11.3532 48.707 5.35323 59.207 2.35323 64.207C1.85316 57.207 2.35303 51.707 4.35323 47.707Z" stroke="black" stroke-width="0.5"/>
<path d="M22.3525 83.707V79.207H39.8525L40.3525 83.707H22.3525Z" stroke="black" stroke-width="0.5"/>
<path d="M2.85449 65.207C4.35449 67.707 6.35449 70.8737 5.85449 72.707M22.3545 79.207C11.8545 79.707 7.35449 75.707 8.35449 72.207C8.85449 71.707 10.3545 70.207 11.3545 70.207" stroke="black" stroke-width="0.5"/>
<path d="M6.35449 65.2072C8.60443 64.7072 11.4793 64.0822 14.2293 63.7072M14.2293 63.7072C16.9794 63.3322 19.6044 63.2072 21.3545 63.7072C24.3545 65.2072 29.8545 70.2072 32.3545 74.2072C27.3545 75.2072 20.3545 74.7072 15.8545 74.7072C13.1619 74.7072 11.8545 72.3738 11.8545 71.2072C11.3545 68.2072 12.6043 65.0405 14.2293 63.7072Z" stroke="black" stroke-width="0.5"/>
<path d="M11.8545 70.7072C19.8545 69.2073 23.3545 71.8358 26.3545 73.3358M13.3545 73.7073L30.8545 73.2073" stroke="black" stroke-width="0.5"/>
<path d="M22.3525 82.207H31.8525C33.8525 82.207 35.3525 80.207 34.8525 79.207M38.3525 79.207V83.707" stroke="black" stroke-width="0.5"/>
<path d="M22.3544 80.7073C17.8544 80.7073 13.3544 81.2073 1.85444 78.2073V76.2073L5.85444 74.2073V72.7073L1.85444 72.2073C1.35352 70.707 0.353711 67.707 2.35371 65.207C1.85395 57.207 2.35395 50.707 4.35444 47.7068C36.8544 28.2072 58.8544 34.2072 84.8544 29.7072C162.854 -25.2929 244.854 11.707 281.854 26.2072L295.354 28.207L295.854 35.207V38.207C297.353 43.207 298.688 47.707 297.354 49.707C299.854 50.707 302.354 53.8737 302.354 55.707L300.354 65.707C300.806 76.5549 298.398 76.7792 289.067 77.0917C288.076 77.1249 286.007 77.159 284.854 77.207V78.707L259.854 79.1381M22.3544 80.7073V83.7073H40.3528L39.8544 79.2073M22.3544 80.7073V79.2073H39.8544M39.8544 79.2073C36.8544 37.7073 90.3544 40.7073 86.8544 79.7073V82.207H213.354C207.354 38.707 261.854 38.707 259.854 79.1381M259.353 79.1381H259.854" stroke="black"/>
</svg>
