<svg width="303" height="96" viewBox="0 0 303 96" fill="none" xmlns="http://www.w3.org/2000/svg">
<circle cx="62.876" cy="74.2146" r="20.5" fill="#EFC7D3" stroke="black"/>
<circle cx="235.876" cy="74.2146" r="20.5" fill="#EFC7D3" stroke="black"/>
<path d="M132.874 12.7145L131.374 9.21445C171.374 1.21457 192.874 1.7146 231.874 13.2145L228.374 17.7145C208.374 9.71451 190.374 8.71451 174.374 8.21458C171.874 7.71458 167.874 7.71454 165.374 8.21445C155.374 8.21458 143.374 9.71458 132.874 12.7145Z" fill="#E56E90" stroke="black" stroke-width="0.5"/>
<path d="M131.374 9.21464L130.874 7.71464C166.874 -3.2854 199.374 0.714474 234.874 9.71465L231.874 13.2146C191.874 0.7146 165.874 2.2146 131.374 9.21464Z" fill="#E56E90" stroke="black" stroke-width="0.5"/>
<path d="M131.374 9.21447C182.874 -2.28556 211.374 7.71448 231.874 13.2145" stroke="black" stroke-width="0.5"/>
<path d="M170.876 30.2146L174.376 8.2146C207.876 9.2146 219.376 14.7146 223.876 16.2146L226.359 28.2146C199.369 28.2152 181.874 29.7147 170.876 30.2146Z" fill="#E56E90"/>
<path d="M226.876 30.7146L223.876 16.2146C219.376 14.7146 207.876 9.2146 174.376 8.2146L170.876 30.2146C181.876 29.7146 199.376 28.2146 226.376 28.2146" stroke="black" stroke-width="0.5"/>
<path d="M165.376 8.2146C132.376 9.2146 112.376 18.2146 93.376 35.7146L95.876 33.7146L159.876 30.7146L165.376 8.2146Z" fill="#E56E90" stroke="black" stroke-width="0.5"/>
<path d="M239.874 22.7146C236.207 20.0479 230.374 17.7146 223.874 16.2146L226.374 28.2146H232.874C235.874 26.7146 238.874 24.4833 239.874 22.7146Z" fill="#E56E90" stroke="black" stroke-width="0.5"/>
<path d="M96.876 78.7146H163.876L198.376 77.2146H212.876L213.376 82.7146H199.376H98.376H86.876V78.7146H96.876Z" fill="#E56E90"/>
<path d="M96.876 78.7146H163.876L198.376 77.2146M96.876 78.7146C96.876 80.2146 97.376 81.2146 98.376 82.7146M96.876 78.7146H86.876V82.7146H98.376M198.376 77.2146L199.376 82.7146M198.376 77.2146H212.876L213.376 82.7146H199.376M199.376 82.7146H98.376" stroke="black" stroke-width="0.5"/>
<path d="M96.8751 78.7146C92.376 74.2146 89.376 52.2146 93.3751 35.7146L165.376 31.7146C161.376 36.7146 160.376 70.7146 163.876 78.7146H96.8751Z" fill="#E56E90" stroke="black" stroke-width="0.5"/>
<path d="M228.876 30.7146L165.376 31.7146C161.376 36.7146 160.376 70.7146 163.876 78.7146L198.376 77.2146C202.876 75.7146 209.376 70.2146 228.876 30.7146Z" fill="#E56E90" stroke="black" stroke-width="0.5"/>
<path d="M170.876 30.2147C166.376 30.7147 162.876 30.7147 159.876 30.7147L165.376 8.21467C168.376 7.7146 171.376 7.7146 174.376 8.21467L170.876 30.2147Z" fill="#E56E90" stroke="black" stroke-width="0.5"/>
<path d="M99.376 32.2146C103.876 37.7146 110.876 34.2146 114.876 32.7146C115.876 17.2145 102.876 25.2145 99.376 32.2146Z" fill="#E56E90" stroke="black" stroke-width="0.5"/>
<path d="M234.874 9.7146L231.874 13.2146C248.874 18.7146 259.374 21.7146 271.874 28.2146H273.374L281.374 26.7146C266.374 20.2146 258.874 17.7146 234.874 9.7146Z" fill="#EDADBF" stroke="black" stroke-width="0.5"/>
<path d="M271.874 28.2146C261.374 22.7146 242.374 16.2146 231.874 13.2146L229.874 15.7146L244.874 23.2146C243.374 25.7146 239.374 27.7146 233.374 30.4146C245.374 29.7146 262.374 28.7146 271.874 28.2146Z" fill="#EDADBF" stroke="black" stroke-width="0.5"/>
<path d="M277.376 34.5146L283.374 32.2146L272.875 28.2146L228.875 30.7146C221.375 45.7146 206.375 76.2146 198.375 77.2146H212.875C211.375 66.2146 220.875 42.7146 245.876 51.7146C256.376 46.2146 266.376 40.7146 277.376 34.5146Z" fill="#EDADBF" stroke="black" stroke-width="0.5"/>
<path d="M278.374 34.2146C266.374 40.7146 256.374 46.2146 245.874 51.7146C250.374 54.7146 260.874 60.7146 259.874 79.7146L284.874 79.2146V77.7146C293.374 76.7146 301.874 80.2146 300.374 66.2146L302.374 56.2146C302.374 54.7146 299.874 50.7146 297.374 50.2146C298.874 47.7146 295.874 38.7146 295.874 38.7146V37.2146L291.874 34.2146L286.874 32.7146L283.374 32.2146L278.374 34.2146Z" fill="#EDADBF" stroke="black" stroke-width="0.5"/>
<path d="M281.374 26.7146L272.874 28.2146L283.374 32.2146C292.874 33.2146 291.873 34.7146 295.868 37.1348L295.374 28.7146L281.374 26.7146Z" fill="#EDADBF"/>
<path d="M295.874 37.2146L295.868 37.1348M295.868 37.1348L295.374 28.7146L281.374 26.7146L272.874 28.2146L283.374 32.2146C292.874 33.2146 291.873 34.7146 295.868 37.1348Z" stroke="black" stroke-width="0.5"/>
<path d="M294.376 36.7148C293.876 34.2147 282.876 34.0146 277.376 34.5146" stroke="black" stroke-width="0.5"/>
<path d="M300.376 66.7146L260.876 68.7146C260.376 63.7146 258.209 59.5479 256.376 57.7146L302.376 55.2146M300.876 52.7146C289.876 51.2146 278.876 46.4146 266.876 40.4146M228.876 30.7146L272.876 28.2146L281.376 26.7146" stroke="black" stroke-width="0.5"/>
<path d="M290.876 40.7146C290.876 38.7146 289.876 34.7146 286.376 32.7146C288.597 32.7146 291.974 33.755 294.485 36.1246C294.949 37.6546 293.876 41.2146 290.834 42.7146C290.821 42.1243 290.876 41.4389 290.876 40.7146Z" fill="#EDADBF"/>
<path d="M272.876 43.2146C279.872 43.5644 285.889 43.6695 291.269 44.2146M297.876 45.2146C295.773 44.764 293.58 44.4487 291.269 44.2146M295.876 37.7146C295.458 37.1295 294.989 36.6002 294.485 36.1246M291.269 44.2146C290.943 43.8698 290.849 43.3468 290.834 42.7146M290.834 42.7146C290.821 42.1243 290.876 41.4389 290.876 40.7146C290.876 38.7146 289.876 34.7146 286.376 32.7146C288.597 32.7146 291.974 33.755 294.485 36.1246M290.834 42.7146C293.876 41.2146 294.949 37.6546 294.485 36.1246" stroke="black" stroke-width="0.5"/>
<path d="M290.876 40.7146C286.376 40.7146 284.376 36.7146 283.376 34.2146" stroke="black" stroke-width="0.5"/>
<path d="M132.874 12.8146C119.374 16.8146 107.374 22.7146 93.374 35.7146C100.374 23.7146 115.874 14.2146 131.374 9.2146L132.874 12.8146Z" fill="#E56E90" stroke="black" stroke-width="0.5"/>
<path d="M131.374 9.2146C111.374 14.8886 93.374 32.2146 85.374 30.2146C98.374 20.7146 114.374 12.2146 130.874 7.7146L131.374 9.2146Z" fill="#E56E90" stroke="black" stroke-width="0.5"/>
<path d="M10.3747 48.2145H4.37469C1.87402 52.2145 1.87402 62.2145 2.37469 65.7145C0.874023 66.7145 0.874621 71.2145 1.87469 72.7145L5.87469 73.2145V74.7145L1.87469 76.7145V78.7145C5.87469 79.7145 14.3747 81.7145 22.3747 81.2145V79.7145H39.8747C39.208 71.2145 40.8747 60.7145 49.8747 53.7145C47.3747 49.7145 40.3747 45.2145 37.3747 44.7145C27.3747 43.7145 12.3747 46.2145 10.3747 48.2145Z" fill="#E56E90" stroke="black" stroke-width="0.5"/>
<path d="M93.376 35.7146C75.5426 36.5479 43.876 41.4146 33.376 44.4146L37.376 44.7146C42.376 46.2146 47.876 50.5479 49.876 53.7146C62.875 44.2146 88.375 51.2146 86.875 78.7146H96.875C89.875 67.7146 90.875 45.7146 93.376 35.7146Z" fill="#E56E90" stroke="black" stroke-width="0.5"/>
<path d="M10.374 48.2147H4.37402C36.8742 28.7146 58.8743 34.7146 84.874 30.2146L93.8743 35.7146C76.8743 36.7146 47.874 40.2146 33.874 44.4146C25.874 44.2146 11.874 46.2146 10.374 48.2147Z" fill="#E56E90" stroke="black" stroke-width="0.5"/>
<path d="M37.3755 44.7147C29.8755 43.7146 12.8755 45.7146 10.3755 48.2147C9.57548 50.6146 12.7088 53.5479 14.3755 54.7146C23.8755 56.2146 37.3755 50.2146 37.3755 44.7147Z" fill="#E56E90" stroke="black" stroke-width="0.5"/>
<path d="M4.37472 48.2146C11.3747 49.2146 5.37472 59.7146 2.37472 64.7146C1.87465 57.7146 2.37451 52.2146 4.37472 48.2146Z" fill="#E56E90" stroke="black" stroke-width="0.5"/>
<path d="M22.374 84.2146V79.7146H39.874L40.374 84.2146H22.374Z" fill="#E56E90" stroke="black" stroke-width="0.5"/>
<path d="M2.87598 65.7144C4.37598 68.2144 6.37598 71.381 5.87598 73.2144M22.376 79.7144C11.876 80.2144 7.37598 76.2144 8.37598 72.7144C8.87598 72.2144 10.376 70.7144 11.376 70.7144" stroke="black" stroke-width="0.5"/>
<path d="M32.376 74.7145C29.876 70.7145 24.376 65.7146 21.376 64.2146C19.6259 63.7145 17.0008 63.8395 14.2508 64.2146C12.6258 65.5479 11.376 68.7145 11.876 71.7145C11.876 72.8811 13.1834 75.2145 15.876 75.2145C20.376 75.2145 27.376 75.7145 32.376 74.7145Z" fill="#E56E90"/>
<path d="M6.37598 65.7146C8.62592 65.2145 11.5008 64.5896 14.2508 64.2146M14.2508 64.2146C17.0008 63.8395 19.6259 63.7145 21.376 64.2146C24.376 65.7146 29.876 70.7145 32.376 74.7145C27.376 75.7145 20.376 75.2145 15.876 75.2145C13.1834 75.2145 11.876 72.8811 11.876 71.7145C11.376 68.7145 12.6258 65.5479 14.2508 64.2146Z" stroke="black" stroke-width="0.5"/>
<path d="M11.876 71.2146C19.876 69.7146 23.376 72.3431 26.376 73.8431M13.376 74.2146L30.876 73.7146" stroke="black" stroke-width="0.5"/>
<path d="M22.374 82.7144H31.874C33.874 82.7144 35.374 80.7144 34.874 79.7144M38.374 79.7144V84.2144" stroke="black" stroke-width="0.5"/>
<path d="M22.3759 81.2148C17.8759 81.2148 13.3759 81.7148 1.87592 78.7148V76.7148L5.87592 74.7148V73.2148L1.87592 72.7149C1.375 71.2146 0.375196 68.2146 2.37519 65.7146C1.87543 57.7146 2.37543 51.2146 4.37592 48.2143C36.8759 28.7147 58.8759 34.7148 84.8759 30.2148C162.876 -24.7853 244.876 12.2146 281.876 26.7148L295.376 28.7146L295.876 35.7146V38.7146C297.374 43.7146 298.709 48.2146 297.376 50.2146C299.876 51.2146 302.376 54.3813 302.376 56.2146L300.376 66.2146C300.828 77.0625 298.42 77.2868 289.088 77.5992C288.097 77.6324 286.028 77.6666 284.876 77.7146V79.2146L259.876 79.6456M22.3759 81.2148V84.2148H40.3743L39.8759 79.7148M22.3759 81.2148V79.7148H39.8759M39.8759 79.7148C36.8759 38.2148 90.3759 41.2148 86.8759 80.2148V82.7146H213.376C207.376 39.2146 261.876 39.2146 259.876 79.6456M259.374 79.6456H259.876" stroke="black"/>
</svg>
