<svg width="303" height="96" viewBox="0 0 303 96" fill="none" xmlns="http://www.w3.org/2000/svg">
<circle cx="62.8545" cy="74.1843" r="20.5" fill="#EFC7D3" stroke="black"/>
<circle cx="235.854" cy="74.1843" r="20.5" fill="#EFC7D3" stroke="black"/>
<path d="M132.853 12.6842L131.353 9.18418C171.353 1.18429 192.853 1.68433 231.853 13.1843L228.353 17.6843C208.353 9.68424 190.353 8.68423 174.353 8.1843C171.853 7.6843 167.853 7.68427 165.353 8.18418C155.353 8.1843 143.353 9.6843 132.853 12.6842Z" fill="#EFC7D3" stroke="black" stroke-width="0.5"/>
<path d="M131.353 9.18437L130.853 7.68437C166.853 -3.31567 199.353 0.6842 234.853 9.68437L231.853 13.1844C191.853 0.684326 165.853 2.18433 131.353 9.18437Z" fill="#EFC7D3" stroke="black" stroke-width="0.5"/>
<path d="M131.353 9.18431C182.853 -2.31571 211.353 7.68433 231.853 13.1843" stroke="black" stroke-width="0.5"/>
<path d="M170.854 30.1843L174.354 8.18433C207.854 9.18433 219.354 14.6843 223.854 16.1843L226.337 28.1843C199.347 28.185 181.852 29.6844 170.854 30.1843Z" fill="#EFC7D3"/>
<path d="M226.854 30.6843L223.854 16.1843C219.354 14.6843 207.854 9.18433 174.354 8.18433L170.854 30.1843C181.854 29.6843 199.354 28.1843 226.354 28.1843" stroke="black" stroke-width="0.5"/>
<path d="M165.354 8.18433C132.354 9.18433 112.354 18.1843 93.3545 35.6843L95.8545 33.6843L159.854 30.6843L165.354 8.18433Z" fill="#EFC7D3" stroke="black" stroke-width="0.5"/>
<path d="M239.853 22.6843C236.186 20.0177 230.353 17.6843 223.853 16.1843L226.353 28.1843H232.853C235.853 26.6843 238.853 24.4531 239.853 22.6843Z" fill="#EFC7D3" stroke="black" stroke-width="0.5"/>
<path d="M96.8545 78.6843H163.854L198.354 77.1843H212.854L213.354 82.6843H199.354H98.3545H86.8545V78.6843H96.8545Z" fill="#EFC7D3"/>
<path d="M96.8545 78.6843H163.854L198.354 77.1843M96.8545 78.6843C96.8545 80.1843 97.3545 81.1843 98.3545 82.6843M96.8545 78.6843H86.8545V82.6843H98.3545M198.354 77.1843L199.354 82.6843M198.354 77.1843H212.854L213.354 82.6843H199.354M199.354 82.6843H98.3545" stroke="black" stroke-width="0.5"/>
<path d="M96.8536 78.6843C92.3545 74.1843 89.3545 52.1843 93.3536 35.6843L165.354 31.6843C161.354 36.6843 160.354 70.6843 163.854 78.6843H96.8536Z" fill="#EFC7D3" stroke="black" stroke-width="0.5"/>
<path d="M228.854 30.6843L165.354 31.6843C161.355 36.6843 160.355 70.6843 163.854 78.6843L198.354 77.1843C202.854 75.6843 209.354 70.1843 228.854 30.6843Z" fill="#EFC7D3" stroke="black" stroke-width="0.5"/>
<path d="M170.854 30.1844C166.354 30.6844 162.854 30.6844 159.854 30.6844L165.354 8.1844C168.354 7.68433 171.354 7.68433 174.354 8.1844L170.854 30.1844Z" fill="#EFC7D3" stroke="black" stroke-width="0.5"/>
<path d="M99.3545 32.1845C103.854 37.6845 110.854 34.1845 114.854 32.6845C115.854 17.1843 102.854 25.1843 99.3545 32.1845Z" fill="#EFC7D3" stroke="black" stroke-width="0.5"/>
<path d="M234.853 9.68433L231.853 13.1843C248.853 18.6843 259.353 21.6843 271.853 28.1843H273.353L281.353 26.6843C266.353 20.1843 258.853 17.6843 234.853 9.68433Z" fill="#E0426F" stroke="black" stroke-width="0.5"/>
<path d="M271.853 28.1843C261.353 22.6843 242.353 16.1843 231.853 13.1843L229.853 15.6843L244.853 23.1843C243.353 25.6843 239.353 27.6843 233.353 30.3843C245.353 29.6843 262.353 28.6843 271.853 28.1843Z" fill="#E0426F" stroke="black" stroke-width="0.5"/>
<path d="M277.354 34.4843L283.353 32.1843L272.854 28.1843L228.854 30.6843C221.354 45.6843 206.354 76.1843 198.354 77.1843H212.854C211.354 66.1843 220.854 42.6843 245.854 51.6843C256.354 46.1843 266.354 40.6843 277.354 34.4843Z" fill="#E0426F" stroke="black" stroke-width="0.5"/>
<path d="M278.353 34.1844C266.353 40.6844 256.353 46.1844 245.853 51.6844C250.353 54.6843 260.853 60.6843 259.853 79.6843L284.853 79.1843V77.6843C293.353 76.6843 301.853 80.1843 300.353 66.1843L302.353 56.1843C302.353 54.6843 299.853 50.6843 297.353 50.1843C298.853 47.6843 295.853 38.6843 295.853 38.6843V37.1843L291.853 34.1843L286.853 32.6843L283.353 32.1843L278.353 34.1844Z" fill="#E0426F" stroke="black" stroke-width="0.5"/>
<path d="M281.353 26.6843L272.853 28.1843L283.353 32.1843C292.853 33.1843 291.851 34.6843 295.847 37.1045L295.353 28.6843L281.353 26.6843Z" fill="#E0426F"/>
<path d="M295.853 37.1843L295.847 37.1045M295.847 37.1045L295.353 28.6843L281.353 26.6843L272.853 28.1843L283.353 32.1843C292.853 33.1843 291.851 34.6843 295.847 37.1045Z" stroke="black" stroke-width="0.5"/>
<path d="M294.354 36.6845C293.854 34.1844 282.854 33.9843 277.354 34.4843" stroke="black" stroke-width="0.5"/>
<path d="M300.354 66.6843L260.854 68.6843C260.354 63.6843 258.188 59.5177 256.354 57.6843L302.354 55.1843M300.854 52.6843C289.854 51.1843 278.854 46.3843 266.854 40.3843M228.854 30.6843L272.854 28.1843L281.354 26.6843" stroke="black" stroke-width="0.5"/>
<path d="M290.854 40.6843C290.854 38.6843 289.854 34.6843 286.354 32.6843C288.575 32.6843 291.952 33.7247 294.463 36.0943C294.927 37.6243 293.854 41.1843 290.813 42.6843C290.799 42.094 290.854 41.4086 290.854 40.6843Z" fill="#E0426F"/>
<path d="M272.854 43.1843C279.85 43.5341 285.867 43.6392 291.248 44.1843M297.854 45.1843C295.751 44.7337 293.558 44.4184 291.248 44.1843M295.854 37.6843C295.437 37.0992 294.967 36.57 294.463 36.0943M291.248 44.1843C290.921 43.8396 290.827 43.3165 290.813 42.6843M290.813 42.6843C290.799 42.094 290.854 41.4086 290.854 40.6843C290.854 38.6843 289.854 34.6843 286.354 32.6843C288.575 32.6843 291.952 33.7247 294.463 36.0943M290.813 42.6843C293.854 41.1843 294.927 37.6243 294.463 36.0943" stroke="black" stroke-width="0.5"/>
<path d="M290.854 40.6843C286.354 40.6843 284.354 36.6843 283.354 34.1843" stroke="black" stroke-width="0.5"/>
<path d="M132.853 12.7843C119.353 16.7843 107.353 22.6843 93.3525 35.6843C100.353 23.6843 115.853 14.1843 131.353 9.18433L132.853 12.7843Z" fill="#EFC7D3" stroke="black" stroke-width="0.5"/>
<path d="M131.353 9.18433C111.353 14.8584 93.3525 32.1843 85.3525 30.1843C98.3525 20.6843 114.353 12.1843 130.853 7.68433L131.353 9.18433Z" fill="#EFC7D3" stroke="black" stroke-width="0.5"/>
<path d="M10.3532 48.1843H4.35321C1.85254 52.1843 1.85254 62.1843 2.35321 65.6843C0.852539 66.6843 0.853137 71.1843 1.85321 72.6843L5.85321 73.1843V74.6843L1.85321 76.6843V78.6843C5.85321 79.6843 14.3532 81.6843 22.3532 81.1843V79.6843H39.8532C39.1865 71.1843 40.8532 60.6843 49.8532 53.6843C47.3532 49.6843 40.3532 45.1843 37.3532 44.6843C27.3532 43.6843 12.3532 46.1843 10.3532 48.1843Z" fill="#EFC7D3" stroke="black" stroke-width="0.5"/>
<path d="M93.3545 35.6843C75.5212 36.5177 43.8545 41.3843 33.3545 44.3843L37.3545 44.6843C42.3545 46.1843 47.8545 50.5177 49.8545 53.6843C62.8535 44.1843 88.3535 51.1843 86.8535 78.6843H96.8535C89.8535 67.6843 90.8535 45.6843 93.3545 35.6843Z" fill="#EFC7D3" stroke="black" stroke-width="0.5"/>
<path d="M10.3525 48.1844H4.35254C36.8527 28.6843 58.8528 34.6843 84.8525 30.1843L93.8528 35.6843C76.8528 36.6843 47.8525 40.1843 33.8525 44.3843C25.8525 44.1843 11.8525 46.1843 10.3525 48.1844Z" fill="#EFC7D3" stroke="black" stroke-width="0.5"/>
<path d="M37.354 44.6844C29.854 43.6843 12.854 45.6843 10.354 48.1844C9.55399 50.5843 12.6873 53.5177 14.354 54.6843C23.854 56.1843 37.354 50.1843 37.354 44.6844Z" fill="#EFC7D3" stroke="black" stroke-width="0.5"/>
<path d="M4.35323 48.1843C11.3532 49.1843 5.35323 59.6843 2.35323 64.6843C1.85316 57.6843 2.35303 52.1843 4.35323 48.1843Z" fill="#EFC7D3" stroke="black" stroke-width="0.5"/>
<path d="M22.3525 84.1843V79.6843H39.8525L40.3525 84.1843H22.3525Z" fill="#EFC7D3" stroke="black" stroke-width="0.5"/>
<path d="M2.85449 65.6843C4.35449 68.1843 6.35449 71.351 5.85449 73.1843M22.3545 79.6843C11.8545 80.1843 7.35449 76.1843 8.35449 72.6843C8.85449 72.1843 10.3545 70.6843 11.3545 70.6843" stroke="black" stroke-width="0.5"/>
<path d="M32.3545 74.6843C29.8545 70.6843 24.3545 65.6844 21.3545 64.1844C19.6044 63.6844 16.9794 63.8094 14.2293 64.1844C12.6044 65.5177 11.3545 68.6843 11.8545 71.6843C11.8545 72.851 13.1619 75.1843 15.8545 75.1843C20.3545 75.1843 27.3545 75.6843 32.3545 74.6843Z" fill="#EFC7D3"/>
<path d="M6.35449 65.6844C8.60443 65.1844 11.4793 64.5594 14.2293 64.1844M14.2293 64.1844C16.9794 63.8094 19.6044 63.6844 21.3545 64.1844C24.3545 65.6844 29.8545 70.6843 32.3545 74.6843C27.3545 75.6843 20.3545 75.1843 15.8545 75.1843C13.1619 75.1843 11.8545 72.851 11.8545 71.6843C11.3545 68.6843 12.6043 65.5177 14.2293 64.1844Z" stroke="black" stroke-width="0.5"/>
<path d="M11.8545 71.1844C19.8545 69.6844 23.3545 72.3129 26.3545 73.8129M13.3545 74.1844L30.8545 73.6844" stroke="black" stroke-width="0.5"/>
<path d="M22.3525 82.6843H31.8525C33.8525 82.6843 35.3525 80.6843 34.8525 79.6843M38.3525 79.6843V84.1843" stroke="black" stroke-width="0.5"/>
<path d="M22.3544 81.1846C17.8544 81.1846 13.3544 81.6846 1.85444 78.6846V76.6846L5.85444 74.6846V73.1846L1.85444 72.6846C1.35352 71.1843 0.353711 68.1843 2.35371 65.6843C1.85395 57.6843 2.35395 51.1843 4.35444 48.1841C36.8544 28.6845 58.8544 34.6845 84.8544 30.1845C162.854 -24.8156 244.854 12.1843 281.854 26.6845L295.354 28.6843L295.854 35.6843V38.6843C297.353 43.6843 298.688 48.1843 297.354 50.1843C299.854 51.1843 302.354 54.351 302.354 56.1843L300.354 66.1843C300.806 77.0322 298.398 77.2565 289.067 77.569C288.076 77.6021 286.007 77.6363 284.854 77.6843V79.1843L259.854 79.6154M22.3544 81.1846V84.1846H40.3528L39.8544 79.6846M22.3544 81.1846V79.6846H39.8544M39.8544 79.6846C36.8544 38.1846 90.3544 41.1846 86.8544 80.1846V82.6843H213.354C207.354 39.1843 261.854 39.1843 259.854 79.6154M259.353 79.6154H259.854" stroke="black"/>
</svg>
