<svg width="304" height="96" viewBox="0 0 304 96" fill="none" xmlns="http://www.w3.org/2000/svg">
<circle cx="63.0938" cy="74.1692" r="20.5" fill="#EDADBF" stroke="black"/>
<circle cx="236.094" cy="74.1692" r="20.5" fill="#EDADBF" stroke="black"/>
<path d="M133.092 12.669L131.592 9.16904C171.592 1.16916 193.092 1.66919 232.092 13.1691L228.592 17.6691C208.592 9.6691 190.592 8.6691 174.592 8.16917C172.092 7.66917 168.092 7.66913 165.592 8.16904C155.592 8.16917 143.592 9.66917 133.092 12.669Z" stroke="black" stroke-width="0.5"/>
<path d="M131.592 9.16923L131.092 7.66923C167.092 -3.33081 199.592 0.669064 235.092 9.66924L232.092 13.1692C192.092 0.669189 166.092 2.16919 131.592 9.16923Z" stroke="black" stroke-width="0.5"/>
<path d="M131.592 9.16918C183.092 -2.33085 211.592 7.66919 232.092 13.1692" stroke="black" stroke-width="0.5"/>
<path d="M227.094 30.6692L224.094 16.1692C219.594 14.6692 208.094 9.16919 174.594 8.16919L171.094 30.1692C182.094 29.6692 199.594 28.1692 226.594 28.1692" stroke="black" stroke-width="0.5"/>
<path d="M165.594 8.16919C132.594 9.16919 112.594 18.1692 93.5938 35.6692L96.0938 33.6692L160.094 30.6692L165.594 8.16919Z" stroke="black" stroke-width="0.5"/>
<path d="M240.092 22.6692C236.425 20.0025 230.592 17.6692 224.092 16.1692L226.592 28.1692H233.092C236.092 26.6692 239.092 24.4379 240.092 22.6692Z" stroke="black" stroke-width="0.5"/>
<path d="M97.0938 78.6692H164.094L198.594 77.1692M97.0938 78.6692C97.0938 80.1692 97.5938 81.1692 98.5938 82.6692M97.0938 78.6692H87.0938V82.6692H98.5938M198.594 77.1692L199.594 82.6692M198.594 77.1692H213.094L213.594 82.6692H199.594M199.594 82.6692H98.5938" stroke="black" stroke-width="0.5"/>
<path d="M97.0929 78.6692C92.5937 74.1692 89.5938 52.1692 93.5929 35.6692L165.594 31.6692C161.594 36.6692 160.594 70.6692 164.094 78.6692H97.0929Z" stroke="black" stroke-width="0.5"/>
<path d="M229.094 30.6692L165.594 31.6692C161.594 36.6692 160.594 70.6692 164.094 78.6692L198.594 77.1692C203.094 75.6692 209.594 70.1692 229.094 30.6692Z" stroke="black" stroke-width="0.5"/>
<path d="M171.094 30.1693C166.594 30.6693 163.094 30.6693 160.094 30.6693L165.594 8.16926C168.594 7.66919 171.594 7.66919 174.594 8.16926L171.094 30.1693Z" stroke="black" stroke-width="0.5"/>
<path d="M99.5938 32.1693C104.094 37.6693 111.094 34.1693 115.094 32.6693C116.094 17.1692 103.094 25.1692 99.5938 32.1693Z" stroke="black" stroke-width="0.5"/>
<path d="M235.092 9.66919L232.092 13.1692C249.092 18.6692 259.592 21.6692 272.092 28.1692H273.592L281.592 26.6692C266.592 20.1692 259.092 17.6692 235.092 9.66919Z" stroke="black" stroke-width="0.5"/>
<path d="M272.092 28.1692C261.592 22.6692 242.592 16.1692 232.092 13.1692L230.092 15.6692L245.092 23.1692C243.592 25.6692 239.592 27.6692 233.592 30.3692C245.592 29.6692 262.592 28.6692 272.092 28.1692Z" stroke="black" stroke-width="0.5"/>
<path d="M277.594 34.4692L283.592 32.1692L273.093 28.1692L229.093 30.6692C221.593 45.6692 206.593 76.1692 198.593 77.1692H213.093C211.593 66.1692 221.093 42.6692 246.094 51.6692C256.594 46.1692 266.594 40.6692 277.594 34.4692Z" stroke="black" stroke-width="0.5"/>
<path d="M278.592 34.1692C266.592 40.6692 256.592 46.1692 246.092 51.6692C250.592 54.6692 261.092 60.6692 260.092 79.6692L285.092 79.1692V77.6692C293.592 76.6692 302.092 80.1692 300.592 66.1692L302.592 56.1692C302.592 54.6692 300.092 50.6692 297.592 50.1692C299.092 47.6692 296.092 38.6692 296.092 38.6692V37.1692L292.092 34.1692L287.092 32.6692L283.592 32.1692L278.592 34.1692Z" stroke="black" stroke-width="0.5"/>
<path d="M296.092 37.1692L296.086 37.0894M296.086 37.0894L295.592 28.6692L281.592 26.6692L273.092 28.1692L283.592 32.1692C293.092 33.1692 292.091 34.6692 296.086 37.0894Z" stroke="black" stroke-width="0.5"/>
<path d="M294.594 36.6694C294.094 34.1693 283.094 33.9692 277.594 34.4692" stroke="black" stroke-width="0.5"/>
<path d="M300.594 66.6692L261.094 68.6692C260.594 63.6692 258.427 59.5025 256.594 57.6692L302.594 55.1692M301.094 52.6692C290.094 51.1692 279.094 46.3692 267.094 40.3692M229.094 30.6692L273.094 28.1692L281.594 26.6692" stroke="black" stroke-width="0.5"/>
<path d="M273.094 43.1692C280.089 43.519 286.106 43.6241 291.487 44.1692M298.094 45.1692C295.991 44.7185 293.798 44.4033 291.487 44.1692M296.094 37.6692C295.676 37.0841 295.207 36.5548 294.703 36.0792M291.487 44.1692C291.161 43.8244 291.067 43.3014 291.052 42.6692M291.052 42.6692C291.038 42.0789 291.094 41.3935 291.094 40.6692C291.094 38.6692 290.094 34.6692 286.594 32.6692C288.815 32.6692 292.191 33.7096 294.703 36.0792M291.052 42.6692C294.094 41.1692 295.166 37.6092 294.703 36.0792" stroke="black" stroke-width="0.5"/>
<path d="M291.094 40.6692C286.594 40.6692 284.594 36.6692 283.594 34.1692" stroke="black" stroke-width="0.5"/>
<path d="M133.092 12.7692C119.592 16.7692 107.592 22.6692 93.5923 35.6692C100.592 23.6692 116.092 14.1692 131.592 9.16919L133.092 12.7692Z" stroke="black" stroke-width="0.5"/>
<path d="M131.592 9.16919C111.592 14.8432 93.5923 32.1692 85.5923 30.1692C98.5923 20.6692 114.592 12.1692 131.092 7.66919L131.592 9.16919Z" stroke="black" stroke-width="0.5"/>
<path d="M10.593 48.1692H4.59295C2.09229 52.1692 2.09229 62.1692 2.59295 65.6692C1.09229 66.6692 1.09288 71.1692 2.09295 72.6692L6.09295 73.1692V74.6692L2.09295 76.6692V78.6692C6.09295 79.6692 14.593 81.6692 22.593 81.1692V79.6692H40.0929C39.4263 71.1692 41.0929 60.6692 50.0929 53.6692C47.5929 49.6692 40.5929 45.1692 37.5929 44.6692C27.5929 43.6692 12.593 46.1692 10.593 48.1692Z" stroke="black" stroke-width="0.5"/>
<path d="M93.5938 35.6692C75.7604 36.5025 44.0938 41.3692 33.5938 44.3692L37.5938 44.6692C42.5938 46.1692 48.0938 50.5025 50.0938 53.6692C63.0928 44.1692 88.5928 51.1692 87.0928 78.6692H97.0928C90.0928 67.6692 91.0928 45.6692 93.5938 35.6692Z" stroke="black" stroke-width="0.5"/>
<path d="M10.5918 48.1692H4.5918C37.092 28.6691 59.092 34.6692 85.0918 30.1692L94.092 35.6692C77.092 36.6692 48.0918 40.1692 34.0918 44.3692C26.0918 44.1692 12.0918 46.1692 10.5918 48.1692Z" stroke="black" stroke-width="0.5"/>
<path d="M37.5937 44.6693C30.0937 43.6692 13.0937 45.6692 10.5937 48.1693C9.79374 50.5692 12.9271 53.5025 14.5937 54.6692C24.0938 56.1692 37.5937 50.1692 37.5937 44.6693Z" stroke="black" stroke-width="0.5"/>
<path d="M4.59298 48.1692C11.593 49.1692 5.59298 59.6692 2.59298 64.6692C2.09291 57.6692 2.59277 52.1692 4.59298 48.1692Z" stroke="black" stroke-width="0.5"/>
<path d="M22.5923 84.1692V79.6692H40.0923L40.5923 84.1692H22.5923Z" stroke="black" stroke-width="0.5"/>
<path d="M3.09375 65.6692C4.59375 68.1692 6.59375 71.3359 6.09375 73.1692M22.5938 79.6692C12.0938 80.1692 7.59375 76.1692 8.59375 72.6692C9.09375 72.1692 10.5938 70.6692 11.5938 70.6692" stroke="black" stroke-width="0.5"/>
<path d="M6.59375 65.6693C8.84369 65.1692 11.7186 64.5443 14.4685 64.1693M14.4685 64.1693C17.2186 63.7943 19.8437 63.6693 21.5938 64.1693C24.5938 65.6693 30.0938 70.6692 32.5938 74.6692C27.5938 75.6692 20.5938 75.1692 16.0938 75.1692C13.4012 75.1692 12.0938 72.8359 12.0938 71.6692C11.5938 68.6692 12.8436 65.5026 14.4685 64.1693Z" stroke="black" stroke-width="0.5"/>
<path d="M12.0938 71.1693C20.0938 69.6693 23.5938 72.2978 26.5938 73.7978M13.5938 74.1693L31.0938 73.6693" stroke="black" stroke-width="0.5"/>
<path d="M22.5918 82.6692H32.0918C34.0918 82.6692 35.5918 80.6692 35.0918 79.6692M38.5918 79.6692V84.1692" stroke="black" stroke-width="0.5"/>
<path d="M22.5937 81.1694C18.0937 81.1694 13.5937 81.6694 2.0937 78.6694V76.6694L6.0937 74.6694V73.1694L2.0937 72.6694C1.59277 71.1692 0.592969 68.1692 2.59296 65.6692C2.09321 57.6692 2.59321 51.1692 4.5937 48.1689C37.0937 28.6693 59.0937 34.6694 85.0937 30.1694C163.094 -24.8307 245.094 12.1692 282.094 26.6694L295.594 28.6692L296.094 35.6692V38.6692C297.592 43.6692 298.927 48.1692 297.594 50.1692C300.094 51.1692 302.594 54.3359 302.594 56.1692L300.594 66.1692C301.046 77.0171 298.638 77.2414 289.306 77.5538C288.315 77.587 286.246 77.6212 285.094 77.6692V79.1692L260.094 79.6002M22.5937 81.1694V84.1694H40.592L40.0937 79.6694M22.5937 81.1694V79.6694H40.0937M40.0937 79.6694C37.0937 38.1694 90.5937 41.1694 87.0937 80.1694V82.6692H213.594C207.594 39.1692 262.094 39.1692 260.094 79.6002M259.592 79.6002H260.094" stroke="black"/>
</svg>
