<svg width="303" height="96" viewBox="0 0 303 96" fill="none" xmlns="http://www.w3.org/2000/svg">
<circle cx="62.2817" cy="74.3838" r="20.5" fill="#E56E90" stroke="black"/>
<circle cx="235.282" cy="74.3838" r="20.5" fill="#E56E90" stroke="black"/>
<path d="M132.28 12.8836L130.78 9.38364C170.78 1.38376 192.28 1.88379 231.28 13.3837L227.78 17.8837C207.78 9.8837 189.78 8.8837 173.78 8.38377C171.28 7.88377 167.28 7.88373 164.78 8.38364C154.78 8.38377 142.78 9.88377 132.28 12.8836Z" fill="#E56E90" stroke="black" stroke-width="0.5"/>
<path d="M130.78 9.38383L130.28 7.88383C166.28 -3.11621 198.78 0.883663 234.28 9.88383L231.28 13.3838C191.28 0.883789 165.28 2.38379 130.78 9.38383Z" fill="#E56E90" stroke="black" stroke-width="0.5"/>
<path d="M130.78 9.3839C182.28 -2.11613 210.78 7.88391 231.28 13.3839" stroke="black" stroke-width="0.5"/>
<path d="M170.282 30.3838L173.782 8.38379C207.282 9.38379 218.782 14.8838 223.282 16.3838L225.764 28.3838C198.774 28.3844 181.279 29.8839 170.282 30.3838Z" fill="#E56E90"/>
<path d="M226.282 30.8838L223.282 16.3838C218.782 14.8838 207.282 9.38379 173.782 8.38379L170.282 30.3838C181.282 29.8838 198.782 28.3838 225.782 28.3838" stroke="black" stroke-width="0.5"/>
<path d="M164.782 8.38379C131.782 9.38379 111.782 18.3838 92.7817 35.8838L95.2817 33.8838L159.282 30.8838L164.782 8.38379Z" fill="#E56E90" stroke="black" stroke-width="0.5"/>
<path d="M239.28 22.8838C235.614 20.2171 229.78 17.8838 223.28 16.3838L225.78 28.3838H232.28C235.28 26.8838 238.28 24.6525 239.28 22.8838Z" fill="#E56E90" stroke="black" stroke-width="0.5"/>
<path d="M96.2817 78.8838H163.282L197.782 77.3838H212.282L212.782 82.8838H198.782H97.7817H86.2817V78.8838H96.2817Z" fill="#E56E90"/>
<path d="M96.2817 78.8838H163.282L197.782 77.3838M96.2817 78.8838C96.2817 80.3838 96.7817 81.3838 97.7817 82.8838M96.2817 78.8838H86.2817V82.8838H97.7817M197.782 77.3838L198.782 82.8838M197.782 77.3838H212.282L212.782 82.8838H198.782M198.782 82.8838H97.7817" stroke="black" stroke-width="0.5"/>
<path d="M96.2809 78.8838C91.7817 74.3838 88.7818 52.3838 92.7809 35.8838L164.782 31.8838C160.782 36.8838 159.782 70.8838 163.282 78.8838H96.2809Z" fill="#E56E90" stroke="black" stroke-width="0.5"/>
<path d="M228.281 30.8838L164.781 31.8838C160.781 36.8838 159.781 70.8838 163.281 78.8838L197.781 77.3838C202.281 75.8838 208.781 70.3838 228.281 30.8838Z" fill="#E56E90" stroke="black" stroke-width="0.5"/>
<path d="M170.282 30.3839C165.782 30.8839 162.282 30.8839 159.282 30.8839L164.782 8.38386C167.782 7.88379 170.782 7.88379 173.782 8.38386L170.282 30.3839Z" fill="#E56E90" stroke="black" stroke-width="0.5"/>
<path d="M98.7817 32.384C103.282 37.884 110.282 34.384 114.282 32.884C115.282 17.3839 102.282 25.3839 98.7817 32.384Z" fill="#E56E90" stroke="black" stroke-width="0.5"/>
<path d="M234.28 9.88379L231.28 13.3838C248.28 18.8838 258.78 21.8838 271.28 28.3838H272.78L280.78 26.8838C265.78 20.3838 258.28 17.8838 234.28 9.88379Z" fill="#EFC7D3" stroke="black" stroke-width="0.5"/>
<path d="M271.28 28.3838C260.78 22.8838 241.78 16.3838 231.28 13.3838L229.28 15.8838L244.28 23.3838C242.78 25.8838 238.78 27.8838 232.78 30.5838C244.78 29.8838 261.78 28.8838 271.28 28.3838Z" fill="#EFC7D3" stroke="black" stroke-width="0.5"/>
<path d="M276.782 34.6838L282.78 32.3838L272.281 28.3838L228.281 30.8838C220.781 45.8838 205.781 76.3838 197.781 77.3838H212.281C210.781 66.3838 220.281 42.8838 245.282 51.8838C255.782 46.3838 265.782 40.8838 276.782 34.6838Z" fill="#EFC7D3" stroke="black" stroke-width="0.5"/>
<path d="M277.78 34.3838C265.78 40.8838 255.78 46.3838 245.28 51.8838C249.78 54.8838 260.28 60.8838 259.28 79.8838L284.28 79.3838V77.8838C292.78 76.8838 301.28 80.3838 299.78 66.3838L301.78 56.3838C301.78 54.8838 299.28 50.8838 296.78 50.3838C298.28 47.8838 295.28 38.8838 295.28 38.8838V37.3838L291.28 34.3838L286.28 32.8838L282.78 32.3838L277.78 34.3838Z" fill="#EFC7D3" stroke="black" stroke-width="0.5"/>
<path d="M280.78 26.8838L272.28 28.3838L282.78 32.3838C292.28 33.3838 291.279 34.8838 295.274 37.304L294.78 28.8838L280.78 26.8838Z" fill="#EFC7D3"/>
<path d="M295.28 37.3838L295.274 37.304M295.274 37.304L294.78 28.8838L280.78 26.8838L272.28 28.3838L282.78 32.3838C292.28 33.3838 291.279 34.8838 295.274 37.304Z" stroke="black" stroke-width="0.5"/>
<path d="M293.782 36.884C293.282 34.3839 282.282 34.1838 276.782 34.6838" stroke="black" stroke-width="0.5"/>
<path d="M299.782 66.8838L260.282 68.8838C259.782 63.8838 257.615 59.7171 255.782 57.8838L301.782 55.3838M300.282 52.8838C289.282 51.3838 278.282 46.5838 266.282 40.5838M228.282 30.8838L272.282 28.3838L280.782 26.8838" stroke="black" stroke-width="0.5"/>
<path d="M290.282 40.8838C290.282 38.8838 289.282 34.8838 285.782 32.8838C288.003 32.8838 291.379 33.9242 293.891 36.2938C294.354 37.8238 293.282 41.3838 290.24 42.8838C290.226 42.2935 290.282 41.6081 290.282 40.8838Z" fill="#EFC7D3"/>
<path d="M272.282 43.3838C279.277 43.7336 285.294 43.8387 290.675 44.3838M297.282 45.3838C295.179 44.9331 292.985 44.6179 290.675 44.3838M295.282 37.8838C294.864 37.2987 294.395 36.7694 293.891 36.2938M290.675 44.3838C290.349 44.039 290.255 43.516 290.24 42.8838M290.24 42.8838C290.226 42.2935 290.282 41.6081 290.282 40.8838C290.282 38.8838 289.282 34.8838 285.782 32.8838C288.003 32.8838 291.379 33.9242 293.891 36.2938M290.24 42.8838C293.282 41.3838 294.354 37.8238 293.891 36.2938" stroke="black" stroke-width="0.5"/>
<path d="M290.282 40.8838C285.782 40.8838 283.782 36.8838 282.782 34.3838" stroke="black" stroke-width="0.5"/>
<path d="M132.28 12.9838C118.78 16.9838 106.78 22.8838 92.7803 35.8838C99.7803 23.8838 115.28 14.3838 130.78 9.38379L132.28 12.9838Z" fill="#E0426F" stroke="black" stroke-width="0.5"/>
<path d="M130.78 9.38379C110.78 15.0578 92.7803 32.3838 84.7803 30.3838C97.7803 20.8838 113.78 12.3838 130.28 7.88379L130.78 9.38379Z" fill="#E0426F" stroke="black" stroke-width="0.5"/>
<path d="M9.78094 48.3837H3.78094C1.28027 52.3837 1.28027 62.3837 1.78094 65.8837C0.280273 66.8837 0.280871 71.3837 1.28094 72.8837L5.28094 73.3837V74.8837L1.28094 76.8837V78.8837C5.28094 79.8837 13.7809 81.8837 21.7809 81.3837V79.8837H39.2809C38.6143 71.3837 40.2809 60.8837 49.2809 53.8837C46.7809 49.8837 39.7809 45.3837 36.7809 44.8837C26.7809 43.8837 11.7809 46.3837 9.78094 48.3837Z" fill="#E0426F" stroke="black" stroke-width="0.5"/>
<path d="M92.7817 35.8838C74.9484 36.7171 43.2817 41.5838 32.7817 44.5838L36.7817 44.8838C41.7817 46.3838 47.2817 50.7171 49.2817 53.8838C62.2808 44.3838 87.7808 51.3838 86.2808 78.8838H96.2808C89.2808 67.8838 90.2808 45.8838 92.7817 35.8838Z" fill="#E0426F" stroke="black" stroke-width="0.5"/>
<path d="M9.78027 48.3838H3.78027C36.2805 28.8837 58.2805 34.8838 84.2803 30.3838L93.2805 35.8838C76.2805 36.8838 47.2803 40.3838 33.2803 44.5838C25.2803 44.3838 11.2803 46.3838 9.78027 48.3838Z" fill="#E0426F" stroke="black" stroke-width="0.5"/>
<path d="M36.7817 44.8839C29.2817 43.8838 12.2817 45.8838 9.78173 48.3839C8.98173 50.7838 12.1151 53.7171 13.7817 54.8838C23.2817 56.3838 36.7817 50.3838 36.7817 44.8839Z" fill="#E0426F" stroke="black" stroke-width="0.5"/>
<path d="M3.78097 48.3838C10.781 49.3838 4.78097 59.8838 1.78097 64.8838C1.2809 57.8838 1.78076 52.3838 3.78097 48.3838Z" fill="#E0426F" stroke="black" stroke-width="0.5"/>
<path d="M21.7803 84.3838V79.8838H39.2803L39.7803 84.3838H21.7803Z" fill="#E0426F" stroke="black" stroke-width="0.5"/>
<path d="M2.28223 65.8838C3.78223 68.3838 5.78223 71.5505 5.28223 73.3838M21.7822 79.8838C11.2822 80.3838 6.78223 76.3838 7.78223 72.8838C8.28223 72.3838 9.78223 70.8838 10.7822 70.8838" stroke="black" stroke-width="0.5"/>
<path d="M31.7822 74.8839C29.2822 70.8839 23.7822 65.884 20.7822 64.384C19.0322 63.884 16.4071 64.009 13.657 64.384C12.0321 65.7173 10.7822 68.8839 11.2822 71.8839C11.2822 73.0506 12.5896 75.3839 15.2822 75.3839C19.7822 75.3839 26.7822 75.8839 31.7822 74.8839Z" fill="#E0426F"/>
<path d="M5.78223 65.884C8.03217 65.384 10.9071 64.759 13.657 64.384M13.657 64.384C16.4071 64.009 19.0322 63.884 20.7822 64.384C23.7822 65.884 29.2822 70.8839 31.7822 74.8839C26.7822 75.8839 19.7822 75.3839 15.2822 75.3839C12.5896 75.3839 11.2822 73.0506 11.2822 71.8839C10.7822 68.8839 12.0321 65.7173 13.657 64.384Z" stroke="black" stroke-width="0.5"/>
<path d="M11.2822 71.384C19.2822 69.884 22.7822 72.5125 25.7822 74.0125M12.7822 74.384L30.2822 73.884" stroke="black" stroke-width="0.5"/>
<path d="M21.7803 82.8838H31.2803C33.2803 82.8838 34.7803 80.8838 34.2803 79.8838M37.7803 79.8838V84.3838" stroke="black" stroke-width="0.5"/>
<path d="M21.7817 81.384C17.2817 81.384 12.7817 81.884 1.28168 78.884V76.884L5.28168 74.884V73.384L1.28168 72.884C0.780762 71.3838 -0.219042 68.3838 1.78095 65.8838C1.2812 57.8838 1.7812 51.3838 3.78168 48.3835C36.2817 28.8839 58.2817 34.884 84.2817 30.384C162.282 -24.6161 244.282 12.3838 281.282 26.884L294.782 28.8838L295.282 35.8838V38.8838C296.78 43.8838 298.115 48.3838 296.782 50.3838C299.282 51.3838 301.782 54.5505 301.782 56.3838L299.782 66.3838C300.234 77.2317 297.826 77.456 288.494 77.7684C287.503 77.8016 285.434 77.8358 284.282 77.8838V79.3838L259.282 79.8148M21.7817 81.384V84.384H39.78L39.2817 79.884M21.7817 81.384V79.884H39.2817M39.2817 79.884C36.2817 38.384 89.7817 41.384 86.2817 80.384V82.8838H212.782C206.782 39.3838 261.282 39.3838 259.282 79.8148M258.78 79.8148H259.282" stroke="black"/>
</svg>
