<svg width="303" height="96" viewBox="0 0 303 96" fill="none" xmlns="http://www.w3.org/2000/svg">
<circle cx="62.8955" cy="74.1843" r="20.5" fill="#EFC7D3" stroke="black"/>
<circle cx="235.896" cy="74.1843" r="20.5" fill="#EFC7D3" stroke="black"/>
<path d="M132.894 12.6842L131.394 9.18418C171.394 1.18429 192.894 1.68433 231.894 13.1843L228.394 17.6843C208.394 9.68424 190.394 8.68423 174.394 8.1843C171.894 7.6843 167.894 7.68427 165.394 8.18418C155.394 8.1843 143.394 9.6843 132.894 12.6842Z" fill="#EFC7D3" stroke="black" stroke-width="0.5"/>
<path d="M131.394 9.18437L130.894 7.68437C166.894 -3.31567 199.394 0.6842 234.894 9.68437L231.894 13.1844C191.894 0.684326 165.894 2.18433 131.394 9.18437Z" fill="#EFC7D3" stroke="black" stroke-width="0.5"/>
<path d="M131.394 9.18431C182.894 -2.31571 211.394 7.68433 231.894 13.1843" stroke="black" stroke-width="0.5"/>
<path d="M170.896 30.1843L174.396 8.18433C207.896 9.18433 219.396 14.6843 223.896 16.1843L226.378 28.1843C199.388 28.185 181.893 29.6844 170.896 30.1843Z" fill="#EFC7D3"/>
<path d="M226.896 30.6843L223.896 16.1843C219.396 14.6843 207.896 9.18433 174.396 8.18433L170.896 30.1843C181.896 29.6843 199.396 28.1843 226.396 28.1843" stroke="black" stroke-width="0.5"/>
<path d="M165.396 8.18433C132.396 9.18433 112.396 18.1843 93.3955 35.6843L95.8955 33.6843L159.896 30.6843L165.396 8.18433Z" fill="#EFC7D3" stroke="black" stroke-width="0.5"/>
<path d="M239.894 22.6843C236.227 20.0177 230.394 17.6843 223.894 16.1843L226.394 28.1843H232.894C235.894 26.6843 238.894 24.4531 239.894 22.6843Z" fill="#EFC7D3" stroke="black" stroke-width="0.5"/>
<path d="M96.8955 78.6843H163.896L198.396 77.1843H212.896L213.396 82.6843H199.396H98.3955H86.8955V78.6843H96.8955Z" fill="#EFC7D3"/>
<path d="M96.8955 78.6843H163.896L198.396 77.1843M96.8955 78.6843C96.8955 80.1843 97.3955 81.1843 98.3955 82.6843M96.8955 78.6843H86.8955V82.6843H98.3955M198.396 77.1843L199.396 82.6843M198.396 77.1843H212.896L213.396 82.6843H199.396M199.396 82.6843H98.3955" stroke="black" stroke-width="0.5"/>
<path d="M96.8946 78.6843C92.3955 74.1843 89.3956 52.1843 93.3946 35.6843L165.396 31.6843C161.396 36.6843 160.396 70.6843 163.896 78.6843H96.8946Z" fill="#EFC7D3" stroke="black" stroke-width="0.5"/>
<path d="M228.895 30.6843L165.395 31.6843C161.396 36.6843 160.396 70.6843 163.895 78.6843L198.395 77.1843C202.895 75.6843 209.395 70.1843 228.895 30.6843Z" fill="#EFC7D3" stroke="black" stroke-width="0.5"/>
<path d="M170.896 30.1844C166.396 30.6844 162.896 30.6844 159.896 30.6844L165.396 8.1844C168.396 7.68433 171.396 7.68433 174.396 8.1844L170.896 30.1844Z" fill="#EFC7D3" stroke="black" stroke-width="0.5"/>
<path d="M99.3955 32.1845C103.896 37.6845 110.896 34.1845 114.896 32.6845C115.896 17.1843 102.896 25.1843 99.3955 32.1845Z" fill="#EFC7D3" stroke="black" stroke-width="0.5"/>
<path d="M234.894 9.68433L231.894 13.1843C248.894 18.6843 259.394 21.6843 271.894 28.1843H273.394L281.394 26.6843C266.394 20.1843 258.894 17.6843 234.894 9.68433Z" stroke="black" stroke-width="0.5"/>
<path d="M271.894 28.1843C261.394 22.6843 242.394 16.1843 231.894 13.1843L229.894 15.6843L244.894 23.1843C243.394 25.6843 239.394 27.6843 233.394 30.3843C245.394 29.6843 262.394 28.6843 271.894 28.1843Z" stroke="black" stroke-width="0.5"/>
<path d="M277.396 34.4843L283.394 32.1843L272.895 28.1843L228.895 30.6843C221.395 45.6843 206.395 76.1843 198.395 77.1843H212.895C211.395 66.1843 220.895 42.6843 245.896 51.6843C256.396 46.1843 266.396 40.6843 277.396 34.4843Z" stroke="black" stroke-width="0.5"/>
<path d="M278.394 34.1844C266.394 40.6844 256.394 46.1844 245.894 51.6844C250.394 54.6843 260.894 60.6843 259.894 79.6843L284.894 79.1843V77.6843C293.394 76.6843 301.894 80.1843 300.394 66.1843L302.394 56.1843C302.394 54.6843 299.894 50.6843 297.394 50.1843C298.894 47.6843 295.894 38.6843 295.894 38.6843V37.1843L291.894 34.1843L286.894 32.6843L283.394 32.1843L278.394 34.1844Z" stroke="black" stroke-width="0.5"/>
<path d="M295.894 37.1843L295.888 37.1045M295.888 37.1045L295.394 28.6843L281.394 26.6843L272.894 28.1843L283.394 32.1843C292.894 33.1843 291.892 34.6843 295.888 37.1045Z" stroke="black" stroke-width="0.5"/>
<path d="M294.396 36.6845C293.896 34.1844 282.896 33.9843 277.396 34.4843" stroke="black" stroke-width="0.5"/>
<path d="M300.396 66.6843L260.896 68.6843C260.396 63.6843 258.229 59.5177 256.396 57.6843L302.396 55.1843M300.896 52.6843C289.896 51.1843 278.896 46.3843 266.896 40.3843M228.896 30.6843L272.896 28.1843L281.396 26.6843" stroke="black" stroke-width="0.5"/>
<path d="M272.896 43.1843C279.891 43.5341 285.908 43.6392 291.289 44.1843M297.896 45.1843C295.793 44.7337 293.599 44.4184 291.289 44.1843M295.896 37.6843C295.478 37.0992 295.008 36.57 294.504 36.0943M291.289 44.1843C290.962 43.8396 290.868 43.3165 290.854 42.6843M290.854 42.6843C290.84 42.094 290.896 41.4086 290.896 40.6843C290.896 38.6843 289.896 34.6843 286.396 32.6843C288.616 32.6843 291.993 33.7247 294.504 36.0943M290.854 42.6843C293.896 41.1843 294.968 37.6243 294.504 36.0943" stroke="black" stroke-width="0.5"/>
<path d="M290.896 40.6843C286.396 40.6843 284.396 36.6843 283.396 34.1843" stroke="black" stroke-width="0.5"/>
<path d="M132.894 12.7843C119.394 16.7843 107.394 22.6843 93.394 35.6843C100.394 23.6843 115.894 14.1843 131.394 9.18433L132.894 12.7843Z" fill="#EFC7D3" stroke="black" stroke-width="0.5"/>
<path d="M131.394 9.18433C111.394 14.8584 93.394 32.1843 85.394 30.1843C98.394 20.6843 114.394 12.1843 130.894 7.68433L131.394 9.18433Z" fill="#EFC7D3" stroke="black" stroke-width="0.5"/>
<path d="M10.3947 48.1843H4.39471C1.89404 52.1843 1.89404 62.1843 2.39471 65.6843C0.894043 66.6843 0.89464 71.1843 1.89471 72.6843L5.89471 73.1843V74.6843L1.89471 76.6843V78.6843C5.89471 79.6843 14.3947 81.6843 22.3947 81.1843V79.6843H39.8947C39.228 71.1843 40.8947 60.6843 49.8947 53.6843C47.3947 49.6843 40.3947 45.1843 37.3947 44.6843C27.3947 43.6843 12.3947 46.1843 10.3947 48.1843Z" fill="#EFC7D3" stroke="black" stroke-width="0.5"/>
<path d="M93.3955 35.6843C75.5622 36.5177 43.8955 41.3843 33.3955 44.3843L37.3955 44.6843C42.3955 46.1843 47.8955 50.5177 49.8955 53.6843C62.8945 44.1843 88.3945 51.1843 86.8945 78.6843H96.8945C89.8945 67.6843 90.8945 45.6843 93.3955 35.6843Z" fill="#EFC7D3" stroke="black" stroke-width="0.5"/>
<path d="M10.3936 48.1844H4.39355C36.8937 28.6843 58.8938 34.6843 84.8936 30.1843L93.8938 35.6843C76.8938 36.6843 47.8936 40.1843 33.8936 44.3843C25.8936 44.1843 11.8936 46.1843 10.3936 48.1844Z" fill="#EFC7D3" stroke="black" stroke-width="0.5"/>
<path d="M37.3955 44.6844C29.8955 43.6843 12.8955 45.6843 10.3955 48.1844C9.5955 50.5843 12.7288 53.5177 14.3955 54.6843C23.8955 56.1843 37.3955 50.1843 37.3955 44.6844Z" fill="#EFC7D3" stroke="black" stroke-width="0.5"/>
<path d="M4.39474 48.1843C11.3947 49.1843 5.39474 59.6843 2.39474 64.6843C1.89467 57.6843 2.39453 52.1843 4.39474 48.1843Z" fill="#EFC7D3" stroke="black" stroke-width="0.5"/>
<path d="M22.394 84.1843V79.6843H39.894L40.394 84.1843H22.394Z" fill="#EFC7D3" stroke="black" stroke-width="0.5"/>
<path d="M2.89551 65.6843C4.39551 68.1843 6.39551 71.351 5.89551 73.1843M22.3955 79.6843C11.8955 80.1843 7.39551 76.1843 8.39551 72.6843C8.89551 72.1843 10.3955 70.6843 11.3955 70.6843" stroke="black" stroke-width="0.5"/>
<path d="M32.3955 74.6843C29.8955 70.6843 24.3955 65.6844 21.3955 64.1844C19.6455 63.6844 17.0204 63.8094 14.2703 64.1844C12.6454 65.5177 11.3955 68.6843 11.8955 71.6843C11.8955 72.851 13.2029 75.1843 15.8955 75.1843C20.3955 75.1843 27.3955 75.6843 32.3955 74.6843Z" fill="#EFC7D3"/>
<path d="M6.39551 65.6844C8.64545 65.1844 11.5204 64.5594 14.2703 64.1844M14.2703 64.1844C17.0204 63.8094 19.6455 63.6844 21.3955 64.1844C24.3955 65.6844 29.8955 70.6843 32.3955 74.6843C27.3955 75.6843 20.3955 75.1843 15.8955 75.1843C13.2029 75.1843 11.8955 72.851 11.8955 71.6843C11.3955 68.6843 12.6454 65.5177 14.2703 64.1844Z" stroke="black" stroke-width="0.5"/>
<path d="M11.8955 71.1844C19.8955 69.6844 23.3955 72.3129 26.3955 73.8129M13.3955 74.1844L30.8955 73.6844" stroke="black" stroke-width="0.5"/>
<path d="M22.3936 82.6843H31.8936C33.8936 82.6843 35.3936 80.6843 34.8936 79.6843M38.3936 79.6843V84.1843" stroke="black" stroke-width="0.5"/>
<path d="M22.3955 81.1846C17.8955 81.1846 13.3955 81.6846 1.89545 78.6846V76.6846L5.89545 74.6846V73.1846L1.89545 72.6846C1.39453 71.1843 0.394727 68.1843 2.39472 65.6843C1.89497 57.6843 2.39497 51.1843 4.39545 48.1841C36.8955 28.6845 58.8954 34.6845 84.8954 30.1845C162.895 -24.8156 244.895 12.1843 281.895 26.6845L295.395 28.6843L295.895 35.6843V38.6843C297.394 43.6843 298.729 48.1843 297.395 50.1843C299.895 51.1843 302.395 54.351 302.395 56.1843L300.395 66.1843C300.847 77.0322 298.439 77.2565 289.108 77.569C288.117 77.6021 286.048 77.6363 284.895 77.6843V79.1843L259.895 79.6154M22.3955 81.1846V84.1846H40.3938L39.8955 79.6846M22.3955 81.1846V79.6846H39.8955M39.8955 79.6846C36.8955 38.1846 90.3954 41.1846 86.8954 80.1846V82.6843H213.395C207.395 39.1843 261.895 39.1843 259.895 79.6154M259.394 79.6154H259.895" stroke="black"/>
</svg>
