<svg width="303" height="96" viewBox="0 0 303 96" fill="none" xmlns="http://www.w3.org/2000/svg">
<circle cx="62.6875" cy="74.1843" r="20.5" stroke="black"/>
<circle cx="235.688" cy="74.1843" r="20.5" stroke="black"/>
<path d="M132.686 12.6842L131.186 9.18418C171.186 1.18429 192.686 1.68433 231.686 13.1843L228.186 17.6843C208.186 9.68424 190.186 8.68423 174.186 8.1843C171.686 7.6843 167.686 7.68427 165.186 8.18418C155.186 8.1843 143.186 9.6843 132.686 12.6842Z" fill="#EFC7D3" stroke="black" stroke-width="0.5"/>
<path d="M131.186 9.18437L130.686 7.68437C166.686 -3.31567 199.186 0.6842 234.686 9.68437L231.686 13.1844C191.686 0.684326 165.686 2.18433 131.186 9.18437Z" fill="#EFC7D3" stroke="black" stroke-width="0.5"/>
<path d="M131.186 9.18431C182.686 -2.31571 211.186 7.68433 231.686 13.1843" stroke="black" stroke-width="0.5"/>
<path d="M170.688 30.1843L174.188 8.18433C207.688 9.18433 219.188 14.6843 223.688 16.1843L226.17 28.1843C199.18 28.185 181.685 29.6844 170.688 30.1843Z" fill="#EFC7D3"/>
<path d="M226.688 30.6843L223.688 16.1843C219.188 14.6843 207.688 9.18433 174.188 8.18433L170.688 30.1843C181.688 29.6843 199.188 28.1843 226.188 28.1843" stroke="black" stroke-width="0.5"/>
<path d="M165.188 8.18433C132.188 9.18433 112.188 18.1843 93.1875 35.6843L95.6875 33.6843L159.688 30.6843L165.188 8.18433Z" fill="#EFC7D3" stroke="black" stroke-width="0.5"/>
<path d="M239.686 22.6843C236.019 20.0177 230.186 17.6843 223.686 16.1843L226.186 28.1843H232.686C235.686 26.6843 238.686 24.4531 239.686 22.6843Z" fill="#EFC7D3" stroke="black" stroke-width="0.5"/>
<path d="M96.6875 78.6843H163.688L198.188 77.1843H212.688L213.188 82.6843H199.188H98.1875H86.6875V78.6843H96.6875Z" fill="#EFC7D3"/>
<path d="M96.6875 78.6843H163.688L198.188 77.1843M96.6875 78.6843C96.6875 80.1843 97.1875 81.1843 98.1875 82.6843M96.6875 78.6843H86.6875V82.6843H98.1875M198.188 77.1843L199.188 82.6843M198.188 77.1843H212.688L213.188 82.6843H199.188M199.188 82.6843H98.1875" stroke="black" stroke-width="0.5"/>
<path d="M96.6866 78.6843C92.1875 74.1843 89.1875 52.1843 93.1866 35.6843L165.188 31.6843C161.188 36.6843 160.188 70.6843 163.687 78.6843H96.6866Z" fill="#EFC7D3" stroke="black" stroke-width="0.5"/>
<path d="M228.687 30.6843L165.187 31.6843C161.188 36.6843 160.188 70.6843 163.687 78.6843L198.187 77.1843C202.687 75.6843 209.187 70.1843 228.687 30.6843Z" fill="#EFC7D3" stroke="black" stroke-width="0.5"/>
<path d="M170.688 30.1844C166.188 30.6844 162.688 30.6844 159.688 30.6844L165.188 8.1844C168.188 7.68433 171.188 7.68433 174.188 8.1844L170.688 30.1844Z" fill="#EFC7D3" stroke="black" stroke-width="0.5"/>
<path d="M99.1875 32.1845C103.688 37.6845 110.688 34.1845 114.688 32.6845C115.688 17.1843 102.688 25.1843 99.1875 32.1845Z" fill="#EFC7D3" stroke="black" stroke-width="0.5"/>
<path d="M234.686 9.68433L231.686 13.1843C248.686 18.6843 259.186 21.6843 271.686 28.1843H273.186L281.186 26.6843C266.186 20.1843 258.686 17.6843 234.686 9.68433Z" fill="#EFC7D3" stroke="black" stroke-width="0.5"/>
<path d="M271.686 28.1843C261.186 22.6843 242.186 16.1843 231.686 13.1843L229.686 15.6843L244.686 23.1843C243.186 25.6843 239.186 27.6843 233.186 30.3843C245.186 29.6843 262.186 28.6843 271.686 28.1843Z" fill="#EFC7D3" stroke="black" stroke-width="0.5"/>
<path d="M277.188 34.4843L283.186 32.1843L272.687 28.1843L228.687 30.6843C221.187 45.6843 206.187 76.1843 198.187 77.1843H212.687C211.187 66.1843 220.687 42.6843 245.688 51.6843C256.188 46.1843 266.188 40.6843 277.188 34.4843Z" fill="#EFC7D3" stroke="black" stroke-width="0.5"/>
<path d="M278.186 34.1844C266.186 40.6844 256.186 46.1844 245.686 51.6844C250.186 54.6843 260.686 60.6843 259.686 79.6843L284.686 79.1843V77.6843C293.186 76.6843 301.686 80.1843 300.186 66.1843L302.186 56.1843C302.186 54.6843 299.686 50.6843 297.186 50.1843C298.686 47.6843 295.686 38.6843 295.686 38.6843V37.1843L291.686 34.1843L286.686 32.6843L283.186 32.1843L278.186 34.1844Z" fill="#EFC7D3" stroke="black" stroke-width="0.5"/>
<path d="M281.186 26.6843L272.686 28.1843L283.186 32.1843C292.686 33.1843 291.684 34.6843 295.68 37.1045L295.186 28.6843L281.186 26.6843Z" fill="#EFC7D3"/>
<path d="M295.686 37.1843L295.68 37.1045M295.68 37.1045L295.186 28.6843L281.186 26.6843L272.686 28.1843L283.186 32.1843C292.686 33.1843 291.684 34.6843 295.68 37.1045Z" stroke="black" stroke-width="0.5"/>
<path d="M294.188 36.6845C293.688 34.1844 282.688 33.9843 277.188 34.4843" stroke="black" stroke-width="0.5"/>
<path d="M300.188 66.6843L260.688 68.6843C260.188 63.6843 258.021 59.5177 256.188 57.6843L302.188 55.1843M300.688 52.6843C289.688 51.1843 278.688 46.3843 266.688 40.3843M228.688 30.6843L272.688 28.1843L281.188 26.6843" stroke="black" stroke-width="0.5"/>
<path d="M290.688 40.6843C290.688 38.6843 289.688 34.6843 286.188 32.6843C288.408 32.6843 291.785 33.7247 294.296 36.0943C294.76 37.6243 293.688 41.1843 290.646 42.6843C290.632 42.094 290.688 41.4086 290.688 40.6843Z" fill="#EFC7D3"/>
<path d="M272.688 43.1843C279.683 43.5341 285.7 43.6392 291.081 44.1843M297.688 45.1843C295.585 44.7337 293.391 44.4184 291.081 44.1843M295.688 37.6843C295.27 37.0992 294.8 36.57 294.296 36.0943M291.081 44.1843C290.754 43.8396 290.66 43.3165 290.646 42.6843M290.646 42.6843C290.632 42.094 290.688 41.4086 290.688 40.6843C290.688 38.6843 289.688 34.6843 286.188 32.6843C288.408 32.6843 291.785 33.7247 294.296 36.0943M290.646 42.6843C293.688 41.1843 294.76 37.6243 294.296 36.0943" stroke="black" stroke-width="0.5"/>
<path d="M290.688 40.6843C286.188 40.6843 284.188 36.6843 283.188 34.1843" stroke="black" stroke-width="0.5"/>
<path d="M132.686 12.7843C119.186 16.7843 107.186 22.6843 93.186 35.6843C100.186 23.6843 115.686 14.1843 131.186 9.18433L132.686 12.7843Z" fill="#EFC7D3" stroke="black" stroke-width="0.5"/>
<path d="M131.186 9.18433C111.186 14.8584 93.186 32.1843 85.186 30.1843C98.186 20.6843 114.186 12.1843 130.686 7.68433L131.186 9.18433Z" fill="#EFC7D3" stroke="black" stroke-width="0.5"/>
<path d="M10.1867 48.1843H4.1867C1.68604 52.1843 1.68604 62.1843 2.1867 65.6843C0.686035 66.6843 0.686633 71.1843 1.6867 72.6843L5.6867 73.1843V74.6843L1.6867 76.6843V78.6843C5.6867 79.6843 14.1867 81.6843 22.1867 81.1843V79.6843H39.6867C39.02 71.1843 40.6867 60.6843 49.6867 53.6843C47.1867 49.6843 40.1867 45.1843 37.1867 44.6843C27.1867 43.6843 12.1867 46.1843 10.1867 48.1843Z" fill="#EFC7D3" stroke="black" stroke-width="0.5"/>
<path d="M93.1875 35.6843C75.3542 36.5177 43.6875 41.3843 33.1875 44.3843L37.1875 44.6843C42.1875 46.1843 47.6875 50.5177 49.6875 53.6843C62.6865 44.1843 88.1865 51.1843 86.6865 78.6843H96.6865C89.6865 67.6843 90.6865 45.6843 93.1875 35.6843Z" fill="#EFC7D3" stroke="black" stroke-width="0.5"/>
<path d="M10.1855 48.1844H4.18555C36.6857 28.6843 58.6858 34.6843 84.6855 30.1843L93.6858 35.6843C76.6858 36.6843 47.6855 40.1843 33.6855 44.3843C25.6855 44.1843 11.6855 46.1843 10.1855 48.1844Z" fill="#EFC7D3" stroke="black" stroke-width="0.5"/>
<path d="M37.1875 44.6844C29.6875 43.6843 12.6875 45.6843 10.1875 48.1844C9.38749 50.5843 12.5208 53.5177 14.1875 54.6843C23.6875 56.1843 37.1875 50.1843 37.1875 44.6844Z" fill="#EFC7D3" stroke="black" stroke-width="0.5"/>
<path d="M4.18673 48.1843C11.1867 49.1843 5.18673 59.6843 2.18673 64.6843C1.68666 57.6843 2.18652 52.1843 4.18673 48.1843Z" fill="#EFC7D3" stroke="black" stroke-width="0.5"/>
<path d="M22.186 84.1843V79.6843H39.686L40.186 84.1843H22.186Z" fill="#EFC7D3" stroke="black" stroke-width="0.5"/>
<path d="M2.6875 65.6843C4.1875 68.1843 6.1875 71.351 5.6875 73.1843M22.1875 79.6843C11.6875 80.1843 7.1875 76.1843 8.1875 72.6843C8.6875 72.1843 10.1875 70.6843 11.1875 70.6843" stroke="black" stroke-width="0.5"/>
<path d="M32.1875 74.6843C29.6875 70.6843 24.1875 65.6844 21.1875 64.1844C19.4375 63.6844 16.8124 63.8094 14.0623 64.1844C12.4374 65.5177 11.1875 68.6843 11.6875 71.6843C11.6875 72.851 12.9949 75.1843 15.6875 75.1843C20.1875 75.1843 27.1875 75.6843 32.1875 74.6843Z" fill="#EFC7D3"/>
<path d="M6.1875 65.6844C8.43744 65.1844 11.3124 64.5594 14.0623 64.1844M14.0623 64.1844C16.8124 63.8094 19.4375 63.6844 21.1875 64.1844C24.1875 65.6844 29.6875 70.6843 32.1875 74.6843C27.1875 75.6843 20.1875 75.1843 15.6875 75.1843C12.9949 75.1843 11.6875 72.851 11.6875 71.6843C11.1875 68.6843 12.4374 65.5177 14.0623 64.1844Z" stroke="black" stroke-width="0.5"/>
<path d="M11.6875 71.1844C19.6875 69.6844 23.1875 72.3129 26.1875 73.8129M13.1875 74.1844L30.6875 73.6844" stroke="black" stroke-width="0.5"/>
<path d="M22.1855 82.6843H31.6855C33.6855 82.6843 35.1855 80.6843 34.6855 79.6843M38.1855 79.6843V84.1843" stroke="black" stroke-width="0.5"/>
<path d="M22.1874 81.1846C17.6874 81.1846 13.1874 81.6846 1.68745 78.6846V76.6846L5.68745 74.6846V73.1846L1.68745 72.6846C1.18652 71.1843 0.186719 68.1843 2.18671 65.6843C1.68696 57.6843 2.18696 51.1843 4.18745 48.1841C36.6874 28.6845 58.6874 34.6845 84.6874 30.1845C162.687 -24.8156 244.687 12.1843 281.687 26.6845L295.187 28.6843L295.687 35.6843V38.6843C297.186 43.6843 298.521 48.1843 297.187 50.1843C299.687 51.1843 302.187 54.351 302.187 56.1843L300.187 66.1843C300.639 77.0322 298.231 77.2565 288.9 77.569C287.909 77.6021 285.84 77.6363 284.687 77.6843V79.1843L259.687 79.6154M22.1874 81.1846V84.1846H40.1858L39.6875 79.6846M22.1874 81.1846V79.6846H39.6875M39.6875 79.6846C36.6875 38.1846 90.1874 41.1846 86.6874 80.1846V82.6843H213.187C207.187 39.1843 261.687 39.1843 259.687 79.6154M259.186 79.6154H259.687" stroke="black"/>
</svg>
