<svg width="303" height="96" viewBox="0 0 303 96" fill="none" xmlns="http://www.w3.org/2000/svg">
<circle cx="62.4473" cy="74.5378" r="20.5" fill="#E0426F" stroke="black"/>
<circle cx="235.447" cy="74.5378" r="20.5" fill="#E0426F" stroke="black"/>
<path d="M132.445 13.0377L130.945 9.5377C170.945 1.53781 192.445 2.03784 231.445 13.5378L227.945 18.0378C207.945 10.0378 189.945 9.03775 173.945 8.53782C171.445 8.03782 167.445 8.03778 164.945 8.5377C154.945 8.53782 142.945 10.0378 132.445 13.0377Z" fill="#EDADBF" stroke="black" stroke-width="0.5"/>
<path d="M130.945 9.53789L130.445 8.03789C166.445 -2.96216 198.945 1.03772 234.445 10.0379L231.445 13.5379C191.445 1.03784 165.445 2.53784 130.945 9.53789Z" fill="#EDADBF" stroke="black" stroke-width="0.5"/>
<path d="M130.945 9.53771C182.445 -1.96232 210.945 8.03772 231.445 13.5377" stroke="black" stroke-width="0.5"/>
<path d="M170.447 30.5378L173.947 8.53784C207.447 9.53784 218.947 15.0378 223.447 16.5378L225.93 28.5378C198.94 28.5385 181.445 30.0379 170.447 30.5378Z" fill="#EDADBF"/>
<path d="M226.447 31.0378L223.447 16.5378C218.947 15.0378 207.447 9.53784 173.947 8.53784L170.447 30.5378C181.447 30.0378 198.947 28.5378 225.947 28.5378" stroke="black" stroke-width="0.5"/>
<path d="M164.947 8.53784C131.947 9.53784 111.947 18.5378 92.9473 36.0378L95.4473 34.0378L159.447 31.0378L164.947 8.53784Z" fill="#EDADBF" stroke="black" stroke-width="0.5"/>
<path d="M239.445 23.0378C235.779 20.3712 229.945 18.0378 223.445 16.5378L225.945 28.5378H232.445C235.445 27.0378 238.445 24.8066 239.445 23.0378Z" fill="#EDADBF" stroke="black" stroke-width="0.5"/>
<path d="M96.4473 79.0378H163.447L197.947 77.5378H212.447L212.947 83.0378H198.947H97.9473H86.4473V79.0378H96.4473Z" fill="#EDADBF"/>
<path d="M96.4473 79.0378H163.447L197.947 77.5378M96.4473 79.0378C96.4473 80.5378 96.9473 81.5378 97.9473 83.0378M96.4473 79.0378H86.4473V83.0378H97.9473M197.947 77.5378L198.947 83.0378M197.947 77.5378H212.447L212.947 83.0378H198.947M198.947 83.0378H97.9473" stroke="black" stroke-width="0.5"/>
<path d="M96.4464 79.0378C91.9473 74.5378 88.9473 52.5378 92.9464 36.0378L164.947 32.0378C160.947 37.0378 159.947 71.0378 163.447 79.0378H96.4464Z" fill="#EDADBF" stroke="black" stroke-width="0.5"/>
<path d="M228.447 31.0378L164.947 32.0378C160.947 37.0378 159.948 71.0378 163.447 79.0378L197.947 77.5378C202.447 76.0378 208.947 70.5378 228.447 31.0378Z" fill="#EDADBF" stroke="black" stroke-width="0.5"/>
<path d="M170.447 30.5379C165.947 31.0379 162.447 31.0379 159.447 31.0379L164.947 8.53792C167.947 8.03784 170.947 8.03784 173.947 8.53792L170.447 30.5379Z" fill="#EDADBF" stroke="black" stroke-width="0.5"/>
<path d="M98.9473 32.5379C103.447 38.0379 110.447 34.5379 114.447 33.0379C115.447 17.5377 102.447 25.5377 98.9473 32.5379Z" fill="#EDADBF" stroke="black" stroke-width="0.5"/>
<path d="M234.445 10.0378L231.445 13.5378C248.445 19.0378 258.945 22.0378 271.445 28.5378H272.945L280.945 27.0378C265.945 20.5378 258.445 18.0378 234.445 10.0378Z" fill="#E0426F" stroke="black" stroke-width="0.5"/>
<path d="M271.445 28.5378C260.945 23.0378 241.945 16.5378 231.445 13.5378L229.445 16.0378L244.445 23.5378C242.945 26.0378 238.945 28.0378 232.945 30.7378C244.945 30.0378 261.945 29.0378 271.445 28.5378Z" fill="#E0426F" stroke="black" stroke-width="0.5"/>
<path d="M276.947 34.8378L282.946 32.5378L272.446 28.5378L228.446 31.0378C220.946 46.0378 205.946 76.5378 197.946 77.5378H212.446C210.946 66.5378 220.446 43.0378 245.447 52.0378C255.947 46.5378 265.947 41.0378 276.947 34.8378Z" fill="#E0426F" stroke="black" stroke-width="0.5"/>
<path d="M277.945 34.5379C265.945 41.0379 255.945 46.5379 245.445 52.0379C249.945 55.0378 260.445 61.0378 259.445 80.0378L284.445 79.5378V78.0378C292.945 77.0378 301.445 80.5378 299.945 66.5378L301.945 56.5378C301.945 55.0378 299.445 51.0378 296.945 50.5378C298.445 48.0378 295.445 39.0378 295.445 39.0378V37.5378L291.445 34.5378L286.445 33.0378L282.945 32.5378L277.945 34.5379Z" fill="#E0426F" stroke="black" stroke-width="0.5"/>
<path d="M280.945 27.0378L272.445 28.5378L282.945 32.5378C292.445 33.5378 291.444 35.0378 295.439 37.458L294.945 29.0378L280.945 27.0378Z" fill="#E0426F"/>
<path d="M295.445 37.5378L295.439 37.458M295.439 37.458L294.945 29.0378L280.945 27.0378L272.445 28.5378L282.945 32.5378C292.445 33.5378 291.444 35.0378 295.439 37.458Z" stroke="black" stroke-width="0.5"/>
<path d="M293.947 37.038C293.447 34.5379 282.447 34.3379 276.947 34.8379" stroke="black" stroke-width="0.5"/>
<path d="M299.947 67.0378L260.447 69.0378C259.947 64.0378 257.781 59.8712 255.947 58.0378L301.947 55.5378M300.447 53.0378C289.447 51.5378 278.447 46.7378 266.447 40.7378M228.447 31.0378L272.447 28.5378L280.947 27.0378" stroke="black" stroke-width="0.5"/>
<path d="M290.447 41.0378C290.447 39.0378 289.447 35.0378 285.947 33.0378C288.168 33.0378 291.545 34.0782 294.056 36.4478C294.52 37.9778 293.447 41.5378 290.405 43.0378C290.392 42.4476 290.447 41.7621 290.447 41.0378Z" fill="#E0426F"/>
<path d="M272.447 43.5378C279.443 43.8876 285.46 43.9927 290.84 44.5378M297.447 45.5378C295.344 45.0872 293.151 44.7719 290.84 44.5378M295.447 38.0378C295.029 37.4527 294.56 36.9235 294.056 36.4478M290.84 44.5378C290.514 44.1931 290.42 43.67 290.405 43.0378M290.405 43.0378C290.392 42.4476 290.447 41.7621 290.447 41.0378C290.447 39.0378 289.447 35.0378 285.947 33.0378C288.168 33.0378 291.545 34.0782 294.056 36.4478M290.405 43.0378C293.447 41.5378 294.52 37.9778 294.056 36.4478" stroke="black" stroke-width="0.5"/>
<path d="M290.447 41.0378C285.947 41.0378 283.947 37.0378 282.947 34.5378" stroke="black" stroke-width="0.5"/>
<path d="M132.445 13.1378C118.945 17.1378 106.945 23.0378 92.9453 36.0378C99.9453 24.0378 115.445 14.5378 130.945 9.53784L132.445 13.1378Z" fill="#E0426F" stroke="black" stroke-width="0.5"/>
<path d="M130.945 9.53784C110.945 15.2119 92.9453 32.5378 84.9453 30.5378C97.9453 21.0378 113.945 12.5378 130.445 8.03784L130.945 9.53784Z" fill="#E0426F" stroke="black" stroke-width="0.5"/>
<path d="M9.94598 48.5377H3.94598C1.44531 52.5377 1.44531 62.5377 1.94598 66.0377C0.445312 67.0377 0.44591 71.5377 1.44598 73.0377L5.44598 73.5377V75.0377L1.44598 77.0377V79.0377C5.44598 80.0377 13.946 82.0377 21.946 81.5377V80.0377H39.446C38.7793 71.5377 40.446 61.0377 49.446 54.0377C46.946 50.0377 39.946 45.5377 36.946 45.0377C26.946 44.0377 11.946 46.5377 9.94598 48.5377Z" fill="#E0426F" stroke="black" stroke-width="0.5"/>
<path d="M92.9473 36.0378C75.1139 36.8712 43.4473 41.7378 32.9473 44.7378L36.9473 45.0378C41.9473 46.5378 47.4473 50.8712 49.4473 54.0378C62.4463 44.5378 87.9463 51.5378 86.4463 79.0378H96.4463C89.4463 68.0378 90.4463 46.0378 92.9473 36.0378Z" fill="#E0426F" stroke="black" stroke-width="0.5"/>
<path d="M9.94531 48.5379H3.94531C36.4455 29.0378 58.4456 35.0378 84.4453 30.5378L93.4456 36.0378C76.4456 37.0378 47.4453 40.5378 33.4453 44.7378C25.4453 44.5378 11.4453 46.5378 9.94531 48.5379Z" fill="#E0426F" stroke="black" stroke-width="0.5"/>
<path d="M36.9468 45.0379C29.4468 44.0378 12.4468 46.0378 9.94677 48.5379C9.14677 50.9379 12.2801 53.8712 13.9468 55.0378C23.4468 56.5378 36.9468 50.5378 36.9468 45.0379Z" fill="#E0426F" stroke="black" stroke-width="0.5"/>
<path d="M3.94601 48.5378C10.946 49.5378 4.94601 60.0378 1.94601 65.0378C1.44594 58.0378 1.9458 52.5378 3.94601 48.5378Z" fill="#E0426F" stroke="black" stroke-width="0.5"/>
<path d="M21.9453 84.5378V80.0378H39.4453L39.9453 84.5378H21.9453Z" fill="#E0426F" stroke="black" stroke-width="0.5"/>
<path d="M2.44727 66.0376C3.94727 68.5376 5.94727 71.7043 5.44727 73.5376M21.9473 80.0376C11.4473 80.5376 6.94727 76.5376 7.94727 73.0376C8.44727 72.5376 9.94727 71.0376 10.9473 71.0376" stroke="black" stroke-width="0.5"/>
<path d="M31.9473 75.0377C29.4473 71.0377 23.9473 66.0378 20.9473 64.5378C19.1972 64.0378 16.5721 64.1628 13.8221 64.5378C12.1971 65.8711 10.9473 69.0377 11.4473 72.0377C11.4473 73.2044 12.7547 75.5377 15.4473 75.5377C19.9473 75.5377 26.9473 76.0377 31.9473 75.0377Z" fill="#E0426F"/>
<path d="M5.94727 66.0378C8.19721 65.5378 11.0721 64.9128 13.8221 64.5378M13.8221 64.5378C16.5721 64.1628 19.1972 64.0378 20.9473 64.5378C23.9473 66.0378 29.4473 71.0377 31.9473 75.0377C26.9473 76.0377 19.9473 75.5377 15.4473 75.5377C12.7547 75.5377 11.4473 73.2044 11.4473 72.0377C10.9473 69.0377 12.1971 65.8711 13.8221 64.5378Z" stroke="black" stroke-width="0.5"/>
<path d="M11.4473 71.5378C19.4473 70.0378 22.9473 72.6663 25.9473 74.1663M12.9473 74.5378L30.4473 74.0378" stroke="black" stroke-width="0.5"/>
<path d="M21.9453 83.0376H31.4453C33.4453 83.0376 34.9453 81.0376 34.4453 80.0376M37.9453 80.0376V84.5376" stroke="black" stroke-width="0.5"/>
<path d="M21.9472 81.5381C17.4472 81.5381 12.9472 82.0381 1.44721 79.0381V77.0381L5.44721 75.0381V73.5381L1.44721 73.0381C0.946289 71.5378 -0.0535151 68.5378 1.94648 66.0378C1.44672 58.0378 1.94672 51.5378 3.94721 48.5376C36.4472 29.038 58.4472 35.038 84.4472 30.538C162.447 -24.4621 244.447 12.5378 281.447 27.038L294.947 29.0378L295.447 36.0378V39.0378C296.946 44.0378 298.281 48.5378 296.947 50.5378C299.447 51.5378 301.947 54.7045 301.947 56.5378L299.947 66.5378C300.399 77.3858 297.991 77.61 288.66 77.9225C287.668 77.9557 285.599 77.9898 284.447 78.0378V79.5378L259.447 79.9689M21.9472 81.5381V84.5381H39.9456L39.4472 80.0381M21.9472 81.5381V80.0381H39.4472M39.4472 80.0381C36.4472 38.5381 89.9472 41.5381 86.4472 80.5381V83.0378H212.947C206.947 39.5378 261.447 39.5378 259.447 79.9689M258.946 79.9689H259.447" stroke="black"/>
</svg>
