<svg width="303" height="95" viewBox="0 0 303 95" fill="none" xmlns="http://www.w3.org/2000/svg">
<circle cx="62.4795" cy="73.8459" r="20.5" fill="#E0426F" stroke="black"/>
<circle cx="235.479" cy="73.8459" r="20.5" fill="#E0426F" stroke="black"/>
<path d="M132.478 12.3458L130.978 8.8458C170.978 0.845915 192.478 1.34595 231.478 12.8459L227.978 17.3459C207.978 9.34586 189.978 8.34586 173.978 7.84592C171.478 7.34592 167.478 7.34589 164.978 7.8458C154.978 7.84592 142.978 9.34592 132.478 12.3458Z" stroke="black" stroke-width="0.5"/>
<path d="M130.978 8.84599L130.478 7.34599C166.478 -3.65405 198.978 0.345821 234.478 9.34599L231.478 12.846C191.478 0.345947 165.478 1.84595 130.978 8.84599Z" stroke="black" stroke-width="0.5"/>
<path d="M130.978 8.84593C182.478 -2.65409 210.978 7.34595 231.478 12.8459" stroke="black" stroke-width="0.5"/>
<path d="M226.479 30.3459L223.479 15.8459C218.979 14.3459 207.479 8.84595 173.979 7.84595L170.479 29.8459C181.479 29.3459 198.979 27.8459 225.979 27.8459" stroke="black" stroke-width="0.5"/>
<path d="M164.979 7.84595C131.979 8.84595 111.979 17.8459 92.9795 35.3459L95.4795 33.3459L159.479 30.3459L164.979 7.84595Z" stroke="black" stroke-width="0.5"/>
<path d="M239.478 22.3459C235.811 19.6793 229.978 17.3459 223.478 15.8459L225.978 27.8459H232.478C235.478 26.3459 238.478 24.1147 239.478 22.3459Z" stroke="black" stroke-width="0.5"/>
<path d="M96.4795 78.3459H163.479L197.979 76.8459M96.4795 78.3459C96.4795 79.8459 96.9795 80.8459 97.9795 82.3459M96.4795 78.3459H86.4795V82.3459H97.9795M197.979 76.8459L198.979 82.3459M197.979 76.8459H212.479L212.979 82.3459H198.979M198.979 82.3459H97.9795" stroke="black" stroke-width="0.5"/>
<path d="M96.4786 78.3459C91.9795 73.8459 88.9795 51.8459 92.9786 35.3459L164.979 31.3459C160.979 36.3459 159.979 70.3459 163.479 78.3459H96.4786Z" stroke="black" stroke-width="0.5"/>
<path d="M228.479 30.3459L164.979 31.3459C160.98 36.3459 159.98 70.3459 163.479 78.3459L197.979 76.8459C202.479 75.3459 208.979 69.8459 228.479 30.3459Z" stroke="black" stroke-width="0.5"/>
<path d="M170.479 29.846C165.979 30.346 162.479 30.346 159.479 30.346L164.979 7.84602C167.979 7.34595 170.979 7.34595 173.979 7.84602L170.479 29.846Z" stroke="black" stroke-width="0.5"/>
<path d="M98.9795 31.8461C103.479 37.3461 110.479 33.8461 114.479 32.3461C115.479 16.846 102.479 24.8459 98.9795 31.8461Z" stroke="black" stroke-width="0.5"/>
<path d="M234.478 9.34595L231.478 12.8459C248.478 18.3459 258.978 21.3459 271.478 27.8459H272.978L280.978 26.3459C265.978 19.8459 258.478 17.3459 234.478 9.34595Z" fill="#EFC7D3" stroke="black" stroke-width="0.5"/>
<path d="M271.478 27.8459C260.978 22.3459 241.978 15.8459 231.478 12.8459L229.478 15.3459L244.478 22.8459C242.978 25.3459 238.978 27.3459 232.978 30.0459C244.978 29.3459 261.978 28.3459 271.478 27.8459Z" fill="#EFC7D3" stroke="black" stroke-width="0.5"/>
<path d="M276.979 34.1459L282.978 31.8459L272.479 27.8459L228.479 30.3459C220.979 45.3459 205.979 75.8459 197.979 76.8459H212.479C210.979 65.8459 220.479 42.3459 245.479 51.3459C255.979 45.8459 265.979 40.3459 276.979 34.1459Z" fill="#EFC7D3" stroke="black" stroke-width="0.5"/>
<path d="M277.978 33.846C265.978 40.346 255.978 45.846 245.478 51.346C249.978 54.3459 260.478 60.3459 259.478 79.3459L284.478 78.8459V77.3459C292.978 76.3459 301.478 79.8459 299.978 65.8459L301.978 55.8459C301.978 54.3459 299.478 50.3459 296.978 49.8459C298.478 47.3459 295.478 38.3459 295.478 38.3459V36.8459L291.478 33.8459L286.478 32.3459L282.978 31.8459L277.978 33.846Z" fill="#EFC7D3" stroke="black" stroke-width="0.5"/>
<path d="M280.978 26.3459L272.478 27.8459L282.978 31.8459C292.478 32.8459 291.476 34.3459 295.472 36.7661L294.978 28.3459L280.978 26.3459Z" fill="#EFC7D3"/>
<path d="M295.478 36.8459L295.472 36.7661M295.472 36.7661L294.978 28.3459L280.978 26.3459L272.478 27.8459L282.978 31.8459C292.478 32.8459 291.476 34.3459 295.472 36.7661Z" stroke="black" stroke-width="0.5"/>
<path d="M293.979 36.3461C293.479 33.846 282.479 33.646 276.979 34.146" stroke="black" stroke-width="0.5"/>
<path d="M299.979 66.3459L260.479 68.3459C259.979 63.3459 257.813 59.1793 255.979 57.3459L301.979 54.8459M300.479 52.3459C289.479 50.8459 278.479 46.0459 266.479 40.0459M228.479 30.3459L272.479 27.8459L280.979 26.3459" stroke="black" stroke-width="0.5"/>
<path d="M290.479 40.3459C290.479 38.3459 289.479 34.3459 285.979 32.3459C288.2 32.3459 291.577 33.3863 294.088 35.7559C294.552 37.2859 293.479 40.8459 290.438 42.3459C290.424 41.7557 290.479 41.0702 290.479 40.3459Z" fill="#EFC7D3"/>
<path d="M272.479 42.8459C279.475 43.1957 285.492 43.3008 290.873 43.8459M297.479 44.8459C295.376 44.3953 293.183 44.08 290.873 43.8459M295.479 37.3459C295.062 36.7608 294.592 36.2316 294.088 35.7559M290.873 43.8459C290.546 43.5012 290.452 42.9781 290.438 42.3459M290.438 42.3459C290.424 41.7557 290.479 41.0702 290.479 40.3459C290.479 38.3459 289.479 34.3459 285.979 32.3459C288.2 32.3459 291.577 33.3863 294.088 35.7559M290.438 42.3459C293.479 40.8459 294.552 37.2859 294.088 35.7559" stroke="black" stroke-width="0.5"/>
<path d="M290.479 40.3459C285.979 40.3459 283.979 36.3459 282.979 33.8459" stroke="black" stroke-width="0.5"/>
<path d="M132.478 12.4459C118.978 16.4459 106.978 22.3459 92.978 35.3459C99.978 23.3459 115.478 13.8459 130.978 8.84595L132.478 12.4459Z" fill="#E0426F" stroke="black" stroke-width="0.5"/>
<path d="M130.978 8.84595C110.978 14.52 92.978 31.8459 84.978 29.8459C97.978 20.3459 113.978 11.8459 130.478 7.34595L130.978 8.84595Z" fill="#E0426F" stroke="black" stroke-width="0.5"/>
<path d="M9.97869 47.846H3.97869C1.47803 51.8459 1.47803 61.8459 1.97869 65.3459C0.478027 66.3459 0.478625 70.8459 1.47869 72.3459L5.47869 72.8459V74.3459L1.47869 76.3459V78.3459C5.47869 79.3459 13.9787 81.3459 21.9787 80.8459V79.3459H39.4787C38.812 70.8459 40.4787 60.3459 49.4787 53.3459C46.9787 49.3459 39.9787 44.8459 36.9787 44.346C26.9787 43.3459 11.9787 45.846 9.97869 47.846Z" fill="#E0426F" stroke="black" stroke-width="0.5"/>
<path d="M92.9795 35.3459C75.1462 36.1793 43.4795 41.0459 32.9795 44.0459L36.9795 44.3459C41.9795 45.8459 47.4795 50.1793 49.4795 53.3459C62.4785 43.8459 87.9785 50.8459 86.4785 78.3459H96.4785C89.4785 67.3459 90.4785 45.3459 92.9795 35.3459Z" fill="#E0426F" stroke="black" stroke-width="0.5"/>
<path d="M9.97754 47.846H3.97754C36.4777 28.3459 58.4778 34.3459 84.4775 29.8459L93.4778 35.3459C76.4778 36.3459 47.4775 39.8459 33.4775 44.046C25.4775 43.8459 11.4775 45.8459 9.97754 47.846Z" fill="#E0426F" stroke="black" stroke-width="0.5"/>
<path d="M36.9795 44.346C29.4795 43.3459 12.4795 45.3459 9.97948 47.846C9.17948 50.246 12.3128 53.1793 13.9795 54.3459C23.4795 55.8459 36.9795 49.8459 36.9795 44.346Z" fill="#E0426F" stroke="black" stroke-width="0.5"/>
<path d="M3.97872 47.8459C10.9787 48.8459 4.97872 59.3459 1.97872 64.3459C1.47865 57.3459 1.97852 51.8459 3.97872 47.8459Z" fill="#E0426F" stroke="black" stroke-width="0.5"/>
<path d="M21.978 83.8459V79.3459H39.478L39.978 83.8459H21.978Z" fill="#E0426F" stroke="black" stroke-width="0.5"/>
<path d="M2.47949 65.3459C3.97949 67.8459 5.97949 71.0126 5.47949 72.8459M21.9795 79.3459C11.4795 79.8459 6.97949 75.8459 7.97949 72.3459C8.47949 71.8459 9.97949 70.3459 10.9795 70.3459" stroke="black" stroke-width="0.5"/>
<path d="M31.9795 74.3459C29.4795 70.3459 23.9795 65.346 20.9795 63.846C19.2294 63.346 16.6044 63.471 13.8543 63.846C12.2294 65.1793 10.9795 68.3459 11.4795 71.3459C11.4795 72.5126 12.7869 74.8459 15.4795 74.8459C19.9795 74.8459 26.9795 75.3459 31.9795 74.3459Z" fill="#E0426F"/>
<path d="M5.97949 65.346C8.22943 64.846 11.1043 64.221 13.8543 63.846M13.8543 63.846C16.6044 63.471 19.2294 63.346 20.9795 63.846C23.9795 65.346 29.4795 70.3459 31.9795 74.3459C26.9795 75.3459 19.9795 74.8459 15.4795 74.8459C12.7869 74.8459 11.4795 72.5126 11.4795 71.3459C10.9795 68.3459 12.2293 65.1793 13.8543 63.846Z" stroke="black" stroke-width="0.5"/>
<path d="M11.4795 70.846C19.4795 69.3461 22.9795 71.9745 25.9795 73.4745M12.9795 73.8461L30.4795 73.3461" stroke="black" stroke-width="0.5"/>
<path d="M21.9775 82.3459H31.4775C33.4775 82.3459 34.9775 80.3459 34.4775 79.3459M37.9775 79.3459V83.8459" stroke="black" stroke-width="0.5"/>
<path d="M21.9794 80.8462C17.4794 80.8462 12.9794 81.3462 1.47944 78.3462V76.3462L5.47944 74.3462V72.8462L1.47944 72.3462C0.978516 70.8459 -0.0212885 67.8459 1.97871 65.3459C1.47895 57.3459 1.97895 50.8459 3.97944 47.8457C36.4794 28.3461 58.4794 34.3461 84.4794 29.8461C162.479 -25.154 244.479 11.8459 281.479 26.3461L294.979 28.3459L295.479 35.3459V38.3459C296.978 43.3459 298.313 47.8459 296.979 49.8459C299.479 50.8459 301.979 54.0126 301.979 55.8459L299.979 65.8459C300.431 76.6939 298.023 76.9181 288.692 77.2306C287.701 77.2638 285.632 77.2979 284.479 77.3459V78.8459L259.479 79.277M21.9794 80.8462V83.8462H39.9778L39.4794 79.3462M21.9794 80.8462V79.3462H39.4794M39.4794 79.3462C36.4794 37.8462 89.9794 40.8462 86.4794 79.8462V82.3459H212.979C206.979 38.8459 261.479 38.8459 259.479 79.277M258.978 79.277H259.479" stroke="black"/>
</svg>
