<svg width="303" height="96" viewBox="0 0 303 96" fill="none" xmlns="http://www.w3.org/2000/svg">
<circle cx="62.6978" cy="74.3384" r="20.5" stroke="black"/>
<circle cx="235.698" cy="74.3384" r="20.5" stroke="black"/>
<path d="M132.696 12.8382L131.196 9.33823C171.196 1.33835 192.696 1.83838 231.696 13.3383L228.196 17.8383C208.196 9.83829 190.196 8.83829 174.196 8.33836C171.696 7.83836 167.696 7.83832 165.196 8.33823C155.196 8.33836 143.196 9.83836 132.696 12.8382Z" stroke="black" stroke-width="0.5"/>
<path d="M131.196 9.33842L130.696 7.83842C166.696 -3.16162 199.196 0.838253 234.696 9.83842L231.696 13.3384C191.696 0.838379 165.696 2.33838 131.196 9.33842Z" stroke="black" stroke-width="0.5"/>
<path d="M131.196 9.33837C182.696 -2.16166 211.196 7.83838 231.696 13.3384" stroke="black" stroke-width="0.5"/>
<path d="M226.698 30.8384L223.698 16.3384C219.198 14.8384 207.698 9.33838 174.198 8.33838L170.698 30.3384C181.698 29.8384 199.198 28.3384 226.198 28.3384" stroke="black" stroke-width="0.5"/>
<path d="M165.198 8.33838C132.198 9.33838 112.198 18.3384 93.1978 35.8384L95.6978 33.8384L159.698 30.8384L165.198 8.33838Z" stroke="black" stroke-width="0.5"/>
<path d="M239.696 22.8384C236.03 20.1717 230.196 17.8384 223.696 16.3384L226.196 28.3384H232.696C235.696 26.8384 238.696 24.6071 239.696 22.8384Z" stroke="black" stroke-width="0.5"/>
<path d="M96.6978 78.8384H163.698L198.198 77.3384M96.6978 78.8384C96.6978 80.3384 97.1978 81.3384 98.1978 82.8384M96.6978 78.8384H86.6978V82.8384H98.1978M198.198 77.3384L199.198 82.8384M198.198 77.3384H212.698L213.198 82.8384H199.198M199.198 82.8384H98.1978" stroke="black" stroke-width="0.5"/>
<path d="M96.6969 78.8384C92.1977 74.3384 89.1978 52.3384 93.1969 35.8384L165.198 31.8384C161.198 36.8384 160.198 70.8384 163.698 78.8384H96.6969Z" stroke="black" stroke-width="0.5"/>
<path d="M228.697 30.8384L165.197 31.8384C161.197 36.8384 160.198 70.8384 163.697 78.8384L198.197 77.3384C202.697 75.8384 209.197 70.3384 228.697 30.8384Z" stroke="black" stroke-width="0.5"/>
<path d="M170.698 30.3385C166.198 30.8385 162.698 30.8385 159.698 30.8385L165.198 8.33845C168.198 7.83838 171.198 7.83838 174.198 8.33845L170.698 30.3385Z" stroke="black" stroke-width="0.5"/>
<path d="M99.1978 32.3385C103.698 37.8385 110.698 34.3385 114.698 32.8385C115.698 17.3384 102.698 25.3384 99.1978 32.3385Z" stroke="black" stroke-width="0.5"/>
<path d="M234.696 9.83838L231.696 13.3384C248.696 18.8384 259.196 21.8384 271.696 28.3384H273.196L281.196 26.8384C266.196 20.3384 258.696 17.8384 234.696 9.83838Z" stroke="black" stroke-width="0.5"/>
<path d="M271.696 28.3384C261.196 22.8384 242.196 16.3384 231.696 13.3384L229.696 15.8384L244.696 23.3384C243.196 25.8384 239.196 27.8384 233.196 30.5384C245.196 29.8384 262.196 28.8384 271.696 28.3384Z" stroke="black" stroke-width="0.5"/>
<path d="M277.198 34.6384L283.196 32.3384L272.697 28.3384L228.697 30.8384C221.197 45.8384 206.197 76.3384 198.197 77.3384H212.697C211.197 66.3384 220.697 42.8384 245.698 51.8384C256.198 46.3384 266.198 40.8384 277.198 34.6384Z" stroke="black" stroke-width="0.5"/>
<path d="M278.196 34.3384C266.196 40.8384 256.196 46.3384 245.696 51.8384C250.196 54.8384 260.696 60.8384 259.696 79.8384L284.696 79.3384V77.8384C293.196 76.8384 301.696 80.3384 300.196 66.3384L302.196 56.3384C302.196 54.8384 299.696 50.8384 297.196 50.3384C298.696 47.8384 295.696 38.8384 295.696 38.8384V37.3384L291.696 34.3384L286.696 32.8384L283.196 32.3384L278.196 34.3384Z" stroke="black" stroke-width="0.5"/>
<path d="M295.696 37.3384L295.69 37.2586M295.69 37.2586L295.196 28.8384L281.196 26.8384L272.696 28.3384L283.196 32.3384C292.696 33.3384 291.695 34.8384 295.69 37.2586Z" stroke="black" stroke-width="0.5"/>
<path d="M294.198 36.8386C293.698 34.3385 282.698 34.1384 277.198 34.6384" stroke="black" stroke-width="0.5"/>
<path d="M300.198 66.8384L260.698 68.8384C260.198 63.8384 258.031 59.6717 256.198 57.8384L302.198 55.3384M300.698 52.8384C289.698 51.3384 278.698 46.5384 266.698 40.5384M228.698 30.8384L272.698 28.3384L281.198 26.8384" stroke="black" stroke-width="0.5"/>
<path d="M272.698 43.3384C279.693 43.6882 285.71 43.7933 291.091 44.3384M297.698 45.3384C295.595 44.8877 293.402 44.5725 291.091 44.3384M295.698 37.8384C295.28 37.2533 294.811 36.724 294.307 36.2484M291.091 44.3384C290.765 43.9936 290.671 43.4706 290.656 42.8384M290.656 42.8384C290.642 42.2481 290.698 41.5627 290.698 40.8384C290.698 38.8384 289.698 34.8384 286.198 32.8384C288.419 32.8384 291.795 33.8788 294.307 36.2484M290.656 42.8384C293.698 41.3384 294.77 37.7784 294.307 36.2484" stroke="black" stroke-width="0.5"/>
<path d="M290.698 40.8384C286.198 40.8384 284.198 36.8384 283.198 34.3384" stroke="black" stroke-width="0.5"/>
<path d="M132.696 12.9384C119.196 16.9384 107.196 22.8384 93.1963 35.8384C100.196 23.8384 115.696 14.3384 131.196 9.33838L132.696 12.9384Z" fill="#EFC7D3" stroke="black" stroke-width="0.5"/>
<path d="M131.196 9.33838C111.196 15.0124 93.1963 32.3384 85.1963 30.3384C98.1963 20.8384 114.196 12.3384 130.696 7.83838L131.196 9.33838Z" fill="#EFC7D3" stroke="black" stroke-width="0.5"/>
<path d="M10.197 48.3384H4.19696C1.69629 52.3384 1.69629 62.3384 2.19696 65.8384C0.696289 66.8384 0.696887 71.3384 1.69696 72.8384L5.69696 73.3384V74.8384L1.69696 76.8384V78.8384C5.69696 79.8384 14.197 81.8384 22.197 81.3384V79.8384H39.697C39.0303 71.3384 40.697 60.8384 49.697 53.8384C47.197 49.8384 40.197 45.3384 37.197 44.8384C27.197 43.8384 12.197 46.3384 10.197 48.3384Z" fill="#EFC7D3" stroke="black" stroke-width="0.5"/>
<path d="M93.1978 35.8384C75.3644 36.6717 43.6978 41.5384 33.1978 44.5384L37.1978 44.8384C42.1978 46.3384 47.6978 50.6717 49.6978 53.8384C62.6968 44.3384 88.1968 51.3384 86.6968 78.8384H96.6968C89.6968 67.8384 90.6968 45.8384 93.1978 35.8384Z" fill="#EFC7D3" stroke="black" stroke-width="0.5"/>
<path d="M10.1963 48.3384H4.19629C36.6965 28.8383 58.6965 34.8384 84.6963 30.3384L93.6965 35.8384C76.6965 36.8384 47.6963 40.3384 33.6963 44.5384C25.6963 44.3384 11.6963 46.3384 10.1963 48.3384Z" fill="#EFC7D3" stroke="black" stroke-width="0.5"/>
<path d="M37.1977 44.8385C29.6977 43.8384 12.6977 45.8384 10.1977 48.3385C9.39774 50.7384 12.5311 53.6717 14.1977 54.8384C23.6978 56.3384 37.1977 50.3384 37.1977 44.8385Z" fill="#EFC7D3" stroke="black" stroke-width="0.5"/>
<path d="M4.19698 48.3384C11.197 49.3384 5.19698 59.8384 2.19698 64.8384C1.69691 57.8384 2.19678 52.3384 4.19698 48.3384Z" fill="#EFC7D3" stroke="black" stroke-width="0.5"/>
<path d="M22.1963 84.3384V79.8384H39.6963L40.1963 84.3384H22.1963Z" fill="#EFC7D3" stroke="black" stroke-width="0.5"/>
<path d="M2.69824 65.8384C4.19824 68.3384 6.19824 71.505 5.69824 73.3384M22.1982 79.8384C11.6982 80.3384 7.19824 76.3384 8.19824 72.8384C8.69824 72.3384 10.1982 70.8384 11.1982 70.8384" stroke="black" stroke-width="0.5"/>
<path d="M32.1982 74.8384C29.6982 70.8384 24.1982 65.8385 21.1982 64.3385C19.4482 63.8384 16.8231 63.9634 14.073 64.3385C12.4481 65.6718 11.1982 68.8384 11.6982 71.8384C11.6982 73.005 13.0057 75.3384 15.6982 75.3384C20.1982 75.3384 27.1982 75.8384 32.1982 74.8384Z" fill="#EFC7D3"/>
<path d="M6.19824 65.8385C8.44818 65.3384 11.3231 64.7135 14.073 64.3385M14.073 64.3385C16.8231 63.9634 19.4482 63.8384 21.1982 64.3385C24.1982 65.8385 29.6982 70.8384 32.1982 74.8384C27.1982 75.8384 20.1982 75.3384 15.6982 75.3384C13.0057 75.3384 11.6982 73.005 11.6982 71.8384C11.1982 68.8384 12.4481 65.6718 14.073 64.3385Z" stroke="black" stroke-width="0.5"/>
<path d="M11.6982 71.3385C19.6982 69.8385 23.1982 72.467 26.1982 73.967M13.1982 74.3385L30.6982 73.8385" stroke="black" stroke-width="0.5"/>
<path d="M22.1963 82.8384H31.6963C33.6963 82.8384 35.1963 80.8384 34.6963 79.8384M38.1963 79.8384V84.3384" stroke="black" stroke-width="0.5"/>
<path d="M22.1977 81.3386C17.6977 81.3386 13.1977 81.8386 1.6977 78.8386V76.8386L5.6977 74.8386V73.3386L1.6977 72.8386C1.19678 71.3384 0.196973 68.3384 2.19697 65.8384C1.69721 57.8384 2.19721 51.3384 4.1977 48.3381C36.6977 28.8385 58.6977 34.8386 84.6977 30.3386C162.698 -24.6615 244.698 12.3384 281.698 26.8386L295.198 28.8384L295.698 35.8384V38.8384C297.196 43.8384 298.531 48.3384 297.198 50.3384C299.698 51.3384 302.198 54.505 302.198 56.3384L300.198 66.3384C300.65 77.1863 298.242 77.4106 288.91 77.723C287.919 77.7562 285.85 77.7904 284.698 77.8384V79.3384L259.698 79.7694M22.1977 81.3386V84.3386H40.196L39.6977 79.8386M22.1977 81.3386V79.8386H39.6977M39.6977 79.8386C36.6977 38.3386 90.1977 41.3386 86.6977 80.3386V82.8384H213.198C207.198 39.3384 261.698 39.3384 259.698 79.7694M259.196 79.7694H259.698" stroke="black"/>
</svg>
