<svg width="303" height="96" viewBox="0 0 303 96" fill="none" xmlns="http://www.w3.org/2000/svg">
<circle cx="62.2915" cy="74.3838" r="20.5" fill="#E56E90" stroke="black"/>
<circle cx="235.292" cy="74.3838" r="20.5" fill="#E56E90" stroke="black"/>
<path d="M132.29 12.8836L130.79 9.38364C170.79 1.38376 192.29 1.88379 231.29 13.3837L227.79 17.8837C207.79 9.8837 189.79 8.8837 173.79 8.38377C171.29 7.88377 167.29 7.88373 164.79 8.38364C154.79 8.38377 142.79 9.88377 132.29 12.8836Z" fill="#E56E90" stroke="black" stroke-width="0.5"/>
<path d="M130.79 9.38383L130.29 7.88383C166.29 -3.11621 198.79 0.883663 234.29 9.88383L231.29 13.3838C191.29 0.883789 165.29 2.38379 130.79 9.38383Z" fill="#E56E90" stroke="black" stroke-width="0.5"/>
<path d="M130.79 9.3839C182.29 -2.11613 210.79 7.88391 231.29 13.3839" stroke="black" stroke-width="0.5"/>
<path d="M170.292 30.3838L173.792 8.38379C207.292 9.38379 218.792 14.8838 223.292 16.3838L225.774 28.3838C198.784 28.3844 181.289 29.8839 170.292 30.3838Z" fill="#E56E90"/>
<path d="M226.292 30.8838L223.292 16.3838C218.792 14.8838 207.292 9.38379 173.792 8.38379L170.292 30.3838C181.292 29.8838 198.792 28.3838 225.792 28.3838" stroke="black" stroke-width="0.5"/>
<path d="M164.792 8.38379C131.792 9.38379 111.792 18.3838 92.7915 35.8838L95.2915 33.8838L159.292 30.8838L164.792 8.38379Z" fill="#E56E90" stroke="black" stroke-width="0.5"/>
<path d="M239.29 22.8838C235.623 20.2171 229.79 17.8838 223.29 16.3838L225.79 28.3838H232.29C235.29 26.8838 238.29 24.6525 239.29 22.8838Z" fill="#E56E90" stroke="black" stroke-width="0.5"/>
<path d="M96.2915 78.8838H163.292L197.792 77.3838H212.292L212.792 82.8838H198.792H97.7915H86.2915V78.8838H96.2915Z" fill="#E56E90"/>
<path d="M96.2915 78.8838H163.292L197.792 77.3838M96.2915 78.8838C96.2915 80.3838 96.7915 81.3838 97.7915 82.8838M96.2915 78.8838H86.2915V82.8838H97.7915M197.792 77.3838L198.792 82.8838M197.792 77.3838H212.292L212.792 82.8838H198.792M198.792 82.8838H97.7915" stroke="black" stroke-width="0.5"/>
<path d="M96.2906 78.8838C91.7915 74.3838 88.7915 52.3838 92.7906 35.8838L164.792 31.8838C160.792 36.8838 159.792 70.8838 163.291 78.8838H96.2906Z" fill="#E56E90" stroke="black" stroke-width="0.5"/>
<path d="M228.291 30.8838L164.791 31.8838C160.791 36.8838 159.791 70.8838 163.291 78.8838L197.791 77.3838C202.291 75.8838 208.791 70.3838 228.291 30.8838Z" fill="#E56E90" stroke="black" stroke-width="0.5"/>
<path d="M170.292 30.3839C165.792 30.8839 162.292 30.8839 159.292 30.8839L164.792 8.38386C167.792 7.88379 170.792 7.88379 173.792 8.38386L170.292 30.3839Z" fill="#E56E90" stroke="black" stroke-width="0.5"/>
<path d="M98.7915 32.384C103.292 37.884 110.292 34.384 114.292 32.884C115.292 17.3839 102.292 25.3839 98.7915 32.384Z" fill="#E56E90" stroke="black" stroke-width="0.5"/>
<path d="M234.29 9.88379L231.29 13.3838C248.29 18.8838 258.79 21.8838 271.29 28.3838H272.79L280.79 26.8838C265.79 20.3838 258.29 17.8838 234.29 9.88379Z" stroke="black" stroke-width="0.5"/>
<path d="M271.29 28.3838C260.79 22.8838 241.79 16.3838 231.29 13.3838L229.29 15.8838L244.29 23.3838C242.79 25.8838 238.79 27.8838 232.79 30.5838C244.79 29.8838 261.79 28.8838 271.29 28.3838Z" stroke="black" stroke-width="0.5"/>
<path d="M276.792 34.6838L282.79 32.3838L272.291 28.3838L228.291 30.8838C220.791 45.8838 205.791 76.3838 197.791 77.3838H212.291C210.791 66.3838 220.291 42.8838 245.292 51.8838C255.792 46.3838 265.792 40.8838 276.792 34.6838Z" stroke="black" stroke-width="0.5"/>
<path d="M277.79 34.3838C265.79 40.8838 255.79 46.3838 245.29 51.8838C249.79 54.8838 260.29 60.8838 259.29 79.8838L284.29 79.3838V77.8838C292.79 76.8838 301.29 80.3838 299.79 66.3838L301.79 56.3838C301.79 54.8838 299.29 50.8838 296.79 50.3838C298.29 47.8838 295.29 38.8838 295.29 38.8838V37.3838L291.29 34.3838L286.29 32.8838L282.79 32.3838L277.79 34.3838Z" stroke="black" stroke-width="0.5"/>
<path d="M295.29 37.3838L295.284 37.304M295.284 37.304L294.79 28.8838L280.79 26.8838L272.29 28.3838L282.79 32.3838C292.29 33.3838 291.289 34.8838 295.284 37.304Z" stroke="black" stroke-width="0.5"/>
<path d="M293.792 36.884C293.292 34.3839 282.292 34.1838 276.792 34.6838" stroke="black" stroke-width="0.5"/>
<path d="M299.792 66.8838L260.292 68.8838C259.792 63.8838 257.625 59.7171 255.792 57.8838L301.792 55.3838M300.292 52.8838C289.292 51.3838 278.292 46.5838 266.292 40.5838M228.292 30.8838L272.292 28.3838L280.792 26.8838" stroke="black" stroke-width="0.5"/>
<path d="M272.292 43.3838C279.287 43.7336 285.304 43.8387 290.685 44.3838M297.292 45.3838C295.189 44.9331 292.995 44.6179 290.685 44.3838M295.292 37.8838C294.874 37.2987 294.404 36.7694 293.9 36.2938M290.685 44.3838C290.358 44.039 290.264 43.516 290.25 42.8838M290.25 42.8838C290.236 42.2935 290.292 41.6081 290.292 40.8838C290.292 38.8838 289.292 34.8838 285.792 32.8838C288.012 32.8838 291.389 33.9242 293.9 36.2938M290.25 42.8838C293.292 41.3838 294.364 37.8238 293.9 36.2938" stroke="black" stroke-width="0.5"/>
<path d="M290.292 40.8838C285.792 40.8838 283.792 36.8838 282.792 34.3838" stroke="black" stroke-width="0.5"/>
<path d="M132.29 12.9838C118.79 16.9838 106.79 22.8838 92.79 35.8838C99.79 23.8838 115.29 14.3838 130.79 9.38379L132.29 12.9838Z" fill="#E0426F" stroke="black" stroke-width="0.5"/>
<path d="M130.79 9.38379C110.79 15.0578 92.79 32.3838 84.79 30.3838C97.79 20.8838 113.79 12.3838 130.29 7.88379L130.79 9.38379Z" fill="#E0426F" stroke="black" stroke-width="0.5"/>
<path d="M9.79071 48.3837H3.79071C1.29004 52.3837 1.29004 62.3837 1.79071 65.8837C0.290039 66.8837 0.290637 71.3837 1.29071 72.8837L5.29071 73.3837V74.8837L1.29071 76.8837V78.8837C5.29071 79.8837 13.7907 81.8837 21.7907 81.3837V79.8837H39.2907C38.624 71.3837 40.2907 60.8837 49.2907 53.8837C46.7907 49.8837 39.7907 45.3837 36.7907 44.8837C26.7907 43.8837 11.7907 46.3837 9.79071 48.3837Z" fill="#E0426F" stroke="black" stroke-width="0.5"/>
<path d="M92.7915 35.8838C74.9582 36.7171 43.2915 41.5838 32.7915 44.5838L36.7915 44.8838C41.7915 46.3838 47.2915 50.7171 49.2915 53.8838C62.2905 44.3838 87.7905 51.3838 86.2905 78.8838H96.2905C89.2905 67.8838 90.2905 45.8838 92.7915 35.8838Z" fill="#E0426F" stroke="black" stroke-width="0.5"/>
<path d="M9.79004 48.3838H3.79004C36.2902 28.8837 58.2903 34.8838 84.29 30.3838L93.2903 35.8838C76.2903 36.8838 47.29 40.3838 33.29 44.5838C25.29 44.3838 11.29 46.3838 9.79004 48.3838Z" fill="#E0426F" stroke="black" stroke-width="0.5"/>
<path d="M36.7915 44.8839C29.2915 43.8838 12.2915 45.8838 9.79149 48.3839C8.99149 50.7838 12.1248 53.7171 13.7915 54.8838C23.2915 56.3838 36.7915 50.3838 36.7915 44.8839Z" fill="#E0426F" stroke="black" stroke-width="0.5"/>
<path d="M3.79073 48.3838C10.7907 49.3838 4.79073 59.8838 1.79073 64.8838C1.29066 57.8838 1.79053 52.3838 3.79073 48.3838Z" fill="#E0426F" stroke="black" stroke-width="0.5"/>
<path d="M21.79 84.3838V79.8838H39.29L39.79 84.3838H21.79Z" fill="#E0426F" stroke="black" stroke-width="0.5"/>
<path d="M2.29199 65.8838C3.79199 68.3838 5.79199 71.5505 5.29199 73.3838M21.792 79.8838C11.292 80.3838 6.79199 76.3838 7.79199 72.8838C8.29199 72.3838 9.79199 70.8838 10.792 70.8838" stroke="black" stroke-width="0.5"/>
<path d="M31.792 74.8839C29.292 70.8839 23.792 65.884 20.792 64.384C19.0419 63.884 16.4169 64.009 13.6668 64.384C12.0419 65.7173 10.792 68.8839 11.292 71.8839C11.292 73.0506 12.5994 75.3839 15.292 75.3839C19.792 75.3839 26.792 75.8839 31.792 74.8839Z" fill="#E0426F"/>
<path d="M5.79199 65.884C8.04193 65.384 10.9168 64.759 13.6668 64.384M13.6668 64.384C16.4169 64.009 19.0419 63.884 20.792 64.384C23.792 65.884 29.292 70.8839 31.792 74.8839C26.792 75.8839 19.792 75.3839 15.292 75.3839C12.5994 75.3839 11.292 73.0506 11.292 71.8839C10.792 68.8839 12.0418 65.7173 13.6668 64.384Z" stroke="black" stroke-width="0.5"/>
<path d="M11.292 71.384C19.292 69.884 22.792 72.5125 25.792 74.0125M12.792 74.384L30.292 73.884" stroke="black" stroke-width="0.5"/>
<path d="M21.79 82.8838H31.29C33.29 82.8838 34.79 80.8838 34.29 79.8838M37.79 79.8838V84.3838" stroke="black" stroke-width="0.5"/>
<path d="M21.7915 81.384C17.2915 81.384 12.7915 81.884 1.29145 78.884V76.884L5.29145 74.884V73.384L1.29145 72.884C0.790527 71.3838 -0.209277 68.3838 1.79072 65.8838C1.29096 57.8838 1.79096 51.3838 3.79145 48.3835C36.2915 28.8839 58.2914 34.884 84.2914 30.384C162.291 -24.6161 244.291 12.3838 281.291 26.884L294.791 28.8838L295.291 35.8838V38.8838C296.79 43.8838 298.125 48.3838 296.791 50.3838C299.291 51.3838 301.791 54.5505 301.791 56.3838L299.791 66.3838C300.243 77.2317 297.835 77.456 288.504 77.7684C287.513 77.8016 285.444 77.8358 284.291 77.8838V79.3838L259.291 79.8148M21.7915 81.384V84.384H39.7898L39.2915 79.884M21.7915 81.384V79.884H39.2915M39.2915 79.884C36.2915 38.384 89.7914 41.384 86.2914 80.384V82.8838H212.791C206.791 39.3838 261.291 39.3838 259.291 79.8148M258.79 79.8148H259.291" stroke="black"/>
</svg>
