<svg width="304" height="95" viewBox="0 0 304 95" fill="none" xmlns="http://www.w3.org/2000/svg">
<circle cx="63.0742" cy="73.7222" r="20.5" fill="#EDADBF" stroke="black"/>
<circle cx="236.074" cy="73.7222" r="20.5" fill="#EDADBF" stroke="black"/>
<path d="M133.072 12.222L131.572 8.72202C171.572 0.722136 193.072 1.22217 232.072 12.7221L228.572 17.2221C208.572 9.22208 190.572 8.22208 174.572 7.72215C172.072 7.22215 168.072 7.22211 165.572 7.72202C155.572 7.72215 143.572 9.22215 133.072 12.222Z" fill="#E0426F" stroke="black" stroke-width="0.5"/>
<path d="M131.572 8.72221L131.072 7.22221C167.072 -3.77783 199.572 0.222042 235.072 9.22221L232.072 12.7222C192.072 0.222168 166.072 1.72217 131.572 8.72221Z" fill="#E0426F" stroke="black" stroke-width="0.5"/>
<path d="M131.572 8.72228C183.072 -2.77775 211.572 7.22229 232.072 12.7223" stroke="black" stroke-width="0.5"/>
<path d="M171.074 29.7222L174.574 7.72217C208.074 8.72217 219.574 14.2222 224.074 15.7222L226.557 27.7222C199.567 27.7228 182.072 29.2223 171.074 29.7222Z" fill="#E0426F"/>
<path d="M227.074 30.2222L224.074 15.7222C219.574 14.2222 208.074 8.72217 174.574 7.72217L171.074 29.7222C182.074 29.2222 199.574 27.7222 226.574 27.7222" stroke="black" stroke-width="0.5"/>
<path d="M165.574 7.72217C132.574 8.72217 112.574 17.7222 93.5742 35.2222L96.0742 33.2222L160.074 30.2222L165.574 7.72217Z" fill="#E0426F" stroke="black" stroke-width="0.5"/>
<path d="M240.072 22.2222C236.406 19.5555 230.572 17.2222 224.072 15.7222L226.572 27.7222H233.072C236.072 26.2222 239.072 23.9909 240.072 22.2222Z" fill="#E0426F" stroke="black" stroke-width="0.5"/>
<path d="M97.0742 78.2222H164.074L198.574 76.7222H213.074L213.574 82.2222H199.574H98.5742H87.0742V78.2222H97.0742Z" fill="#E0426F"/>
<path d="M97.0742 78.2222H164.074L198.574 76.7222M97.0742 78.2222C97.0742 79.7222 97.5742 80.7222 98.5742 82.2222M97.0742 78.2222H87.0742V82.2222H98.5742M198.574 76.7222L199.574 82.2222M198.574 76.7222H213.074L213.574 82.2222H199.574M199.574 82.2222H98.5742" stroke="black" stroke-width="0.5"/>
<path d="M97.0733 78.2222C92.5742 73.7222 89.5743 51.7222 93.5733 35.2222L165.574 31.2222C161.574 36.2222 160.574 70.2222 164.074 78.2222H97.0733Z" fill="#E0426F" stroke="black" stroke-width="0.5"/>
<path d="M229.074 30.2222L165.574 31.2222C161.574 36.2222 160.574 70.2222 164.074 78.2222L198.574 76.7222C203.074 75.2222 209.574 69.7222 229.074 30.2222Z" fill="#E0426F" stroke="black" stroke-width="0.5"/>
<path d="M171.074 29.7222C166.574 30.2222 163.074 30.2222 160.074 30.2222L165.574 7.72224C168.574 7.22217 171.574 7.22217 174.574 7.72224L171.074 29.7222Z" fill="#E0426F" stroke="black" stroke-width="0.5"/>
<path d="M99.5742 31.7224C104.074 37.2224 111.074 33.7224 115.074 32.2224C116.074 16.7223 103.074 24.7223 99.5742 31.7224Z" fill="#E0426F" stroke="black" stroke-width="0.5"/>
<path d="M235.072 9.22217L232.072 12.7222C249.072 18.2222 259.572 21.2222 272.072 27.7222H273.572L281.572 26.2222C266.572 19.7222 259.072 17.2222 235.072 9.22217Z" fill="#EDADBF" stroke="black" stroke-width="0.5"/>
<path d="M272.072 27.7222C261.572 22.2222 242.572 15.7222 232.072 12.7222L230.072 15.2222L245.072 22.7222C243.572 25.2222 239.572 27.2222 233.572 29.9222C245.572 29.2222 262.572 28.2222 272.072 27.7222Z" fill="#EDADBF" stroke="black" stroke-width="0.5"/>
<path d="M277.574 34.0222L283.573 31.7222L273.073 27.7222L229.073 30.2222C221.573 45.2222 206.573 75.7222 198.573 76.7222H213.073C211.573 65.7222 221.073 42.2222 246.074 51.2222C256.574 45.7222 266.574 40.2222 277.574 34.0222Z" fill="#EDADBF" stroke="black" stroke-width="0.5"/>
<path d="M278.572 33.7222C266.572 40.2222 256.572 45.7222 246.072 51.2222C250.572 54.2222 261.072 60.2222 260.072 79.2222L285.072 78.7222V77.2222C293.572 76.2222 302.072 79.7222 300.572 65.7222L302.572 55.7222C302.572 54.2222 300.072 50.2222 297.572 49.7222C299.072 47.2222 296.072 38.2222 296.072 38.2222V36.7222L292.072 33.7222L287.072 32.2222L283.572 31.7222L278.572 33.7222Z" fill="#EDADBF" stroke="black" stroke-width="0.5"/>
<path d="M281.572 26.2222L273.072 27.7222L283.572 31.7222C293.072 32.7222 292.071 34.2222 296.066 36.6423L295.572 28.2222L281.572 26.2222Z" fill="#EDADBF"/>
<path d="M296.072 36.7222L296.066 36.6423M296.066 36.6423L295.572 28.2222L281.572 26.2222L273.072 27.7222L283.572 31.7222C293.072 32.7222 292.071 34.2222 296.066 36.6423Z" stroke="black" stroke-width="0.5"/>
<path d="M294.574 36.2224C294.074 33.7223 283.074 33.5222 277.574 34.0222" stroke="black" stroke-width="0.5"/>
<path d="M300.574 66.2222L261.074 68.2222C260.574 63.2222 258.408 59.0555 256.574 57.2222L302.574 54.7222M301.074 52.2222C290.074 50.7222 279.074 45.9222 267.074 39.9222M229.074 30.2222L273.074 27.7222L281.574 26.2222" stroke="black" stroke-width="0.5"/>
<path d="M291.074 40.2222C291.074 38.2222 290.074 34.2222 286.574 32.2222C288.795 32.2222 292.172 33.2626 294.683 35.6322C295.147 37.1622 294.074 40.7222 291.032 42.2222C291.019 41.6319 291.074 40.9465 291.074 40.2222Z" fill="#EDADBF"/>
<path d="M273.074 42.7222C280.07 43.072 286.087 43.177 291.467 43.7222M298.074 44.7222C295.971 44.2715 293.778 43.9563 291.467 43.7222M296.074 37.2222C295.656 36.637 295.187 36.1078 294.683 35.6322M291.467 43.7222C291.141 43.3774 291.047 42.8544 291.032 42.2222M291.032 42.2222C291.019 41.6319 291.074 40.9465 291.074 40.2222C291.074 38.2222 290.074 34.2222 286.574 32.2222C288.795 32.2222 292.172 33.2626 294.683 35.6322M291.032 42.2222C294.074 40.7222 295.147 37.1622 294.683 35.6322" stroke="black" stroke-width="0.5"/>
<path d="M291.074 40.2222C286.574 40.2222 284.574 36.2222 283.574 33.7222" stroke="black" stroke-width="0.5"/>
<path d="M133.072 12.3221C119.572 16.3221 107.572 22.2222 93.5723 35.2222C100.572 23.2222 116.072 13.7222 131.572 8.72217L133.072 12.3221Z" fill="#EFC7D3" stroke="black" stroke-width="0.5"/>
<path d="M131.572 8.72217C111.572 14.3962 93.5723 31.7222 85.5723 29.7222C98.5723 20.2222 114.572 11.7222 131.072 7.22217L131.572 8.72217Z" fill="#EFC7D3" stroke="black" stroke-width="0.5"/>
<path d="M10.5729 47.7221H4.57293C2.07227 51.722 2.07227 61.722 2.57293 65.222C1.07227 66.222 1.07286 70.722 2.07293 72.222L6.07293 72.722V74.222L2.07293 76.222V78.222C6.07293 79.222 14.5729 81.222 22.5729 80.722V79.222H40.0729C39.4063 70.722 41.0729 60.222 50.0729 53.222C47.5729 49.222 40.5729 44.722 37.5729 44.2221C27.5729 43.222 12.5729 45.7221 10.5729 47.7221Z" fill="#EFC7D3" stroke="black" stroke-width="0.5"/>
<path d="M93.5742 35.2222C75.7409 36.0555 44.0742 40.9222 33.5742 43.9222L37.5742 44.2222C42.5742 45.7222 48.0742 50.0555 50.0742 53.2222C63.0732 43.7222 88.5732 50.7222 87.0732 78.2222H97.0732C90.0732 67.2222 91.0732 45.2222 93.5742 35.2222Z" fill="#EFC7D3" stroke="black" stroke-width="0.5"/>
<path d="M10.5723 47.7222H4.57227C37.0724 28.2221 59.0725 34.2222 85.0723 29.7222L94.0725 35.2222C77.0725 36.2222 48.0723 39.7222 34.0723 43.9222C26.0723 43.7222 12.0723 45.7222 10.5723 47.7222Z" fill="#EFC7D3" stroke="black" stroke-width="0.5"/>
<path d="M37.5737 44.2222C30.0737 43.2222 13.0737 45.2222 10.5737 47.7222C9.77372 50.1222 12.9071 53.0555 14.5737 54.2222C24.0737 55.7222 37.5737 49.7222 37.5737 44.2222Z" fill="#EFC7D3" stroke="black" stroke-width="0.5"/>
<path d="M4.57296 47.7222C11.573 48.7222 5.57296 59.2222 2.57296 64.2222C2.07289 57.2222 2.57275 51.7222 4.57296 47.7222Z" fill="#EFC7D3" stroke="black" stroke-width="0.5"/>
<path d="M22.5723 83.7222V79.2222H40.0723L40.5723 83.7222H22.5723Z" fill="#EFC7D3" stroke="black" stroke-width="0.5"/>
<path d="M3.07422 65.2222C4.57422 67.7222 6.57422 70.8888 6.07422 72.7222M22.5742 79.2222C12.0742 79.7222 7.57422 75.7222 8.57422 72.2222C9.07422 71.7222 10.5742 70.2222 11.5742 70.2222" stroke="black" stroke-width="0.5"/>
<path d="M32.5742 74.2223C30.0742 70.2223 24.5742 65.2224 21.5742 63.7224C19.8242 63.2224 17.1991 63.3474 14.449 63.7224C12.8241 65.0557 11.5742 68.2223 12.0742 71.2223C12.0742 72.389 13.3816 74.7223 16.0742 74.7223C20.5742 74.7223 27.5742 75.2223 32.5742 74.2223Z" fill="#EFC7D3"/>
<path d="M6.57422 65.2224C8.82416 64.7223 11.6991 64.0974 14.449 63.7224M14.449 63.7224C17.1991 63.3474 19.8242 63.2224 21.5742 63.7224C24.5742 65.2224 30.0742 70.2223 32.5742 74.2223C27.5742 75.2223 20.5742 74.7223 16.0742 74.7223C13.3816 74.7223 12.0742 72.389 12.0742 71.2223C11.5742 68.2223 12.8241 65.0557 14.449 63.7224Z" stroke="black" stroke-width="0.5"/>
<path d="M12.0742 70.7224C20.0742 69.2224 23.5742 71.8509 26.5742 73.3509M13.5742 73.7224L31.0742 73.2224" stroke="black" stroke-width="0.5"/>
<path d="M22.5723 82.2222H32.0723C34.0723 82.2222 35.5723 80.2222 35.0723 79.2222M38.5723 79.2222V83.7222" stroke="black" stroke-width="0.5"/>
<path d="M22.5742 80.7224C18.0742 80.7224 13.5742 81.2224 2.07416 78.2224V76.2224L6.07417 74.2224V72.7224L2.07416 72.2224C1.57324 70.7222 0.573438 67.7222 2.57343 65.2222C2.07368 57.2222 2.57368 50.7222 4.57417 47.7219C37.0742 28.2223 59.0742 34.2224 85.0742 29.7224C163.074 -25.2778 245.074 11.7222 282.074 26.2223L295.574 28.2222L296.074 35.2222V38.2222C297.573 43.2222 298.908 47.7222 297.574 49.7222C300.074 50.7222 302.574 53.8888 302.574 55.7222L300.574 65.7222C301.026 76.5701 298.618 76.7944 289.286 77.1068C288.295 77.14 286.226 77.1742 285.074 77.2222V78.7222L260.074 79.1532M22.5742 80.7224V83.7224H40.5725L40.0742 79.2224M22.5742 80.7224V79.2224H40.0742M40.0742 79.2224C37.0742 37.7224 90.5742 40.7224 87.0742 79.7224V82.2222H213.574C207.574 38.7222 262.074 38.7222 260.074 79.1532M259.573 79.1532H260.074" stroke="black"/>
</svg>
