<svg width="303" height="96" viewBox="0 0 303 96" fill="none" xmlns="http://www.w3.org/2000/svg">
<circle cx="62.4897" cy="74.0303" r="20.5" fill="#E0426F" stroke="black"/>
<circle cx="235.49" cy="74.0303" r="20.5" fill="#E0426F" stroke="black"/>
<path d="M132.488 12.5301L130.988 9.03013C170.988 1.03024 192.488 1.53027 231.488 13.0302L227.988 17.5302C207.988 9.53018 189.988 8.53018 173.988 8.03025C171.488 7.53025 167.488 7.53021 164.988 8.03013C154.988 8.03025 142.988 9.53025 132.488 12.5301Z" fill="#EDADBF" stroke="black" stroke-width="0.5"/>
<path d="M130.988 9.03032L130.488 7.53032C166.488 -3.46973 198.988 0.530148 234.488 9.53032L231.488 13.0303C191.488 0.530273 165.488 2.03027 130.988 9.03032Z" fill="#EDADBF" stroke="black" stroke-width="0.5"/>
<path d="M130.988 9.03038C182.488 -2.46964 210.988 7.5304 231.488 13.0304" stroke="black" stroke-width="0.5"/>
<path d="M170.49 30.0303L173.99 8.03027C207.49 9.03027 218.99 14.5303 223.49 16.0303L225.973 28.0303C198.982 28.0309 181.487 29.5304 170.49 30.0303Z" fill="#EDADBF"/>
<path d="M226.49 30.5303L223.49 16.0303C218.99 14.5303 207.49 9.03027 173.99 8.03027L170.49 30.0303C181.49 29.5303 198.99 28.0303 225.99 28.0303" stroke="black" stroke-width="0.5"/>
<path d="M164.99 8.03027C131.99 9.03027 111.99 18.0303 92.9897 35.5303L95.4897 33.5303L159.49 30.5303L164.99 8.03027Z" fill="#EDADBF" stroke="black" stroke-width="0.5"/>
<path d="M239.488 22.5303C235.822 19.8636 229.988 17.5303 223.488 16.0303L225.988 28.0303H232.488C235.488 26.5303 238.488 24.299 239.488 22.5303Z" fill="#EDADBF" stroke="black" stroke-width="0.5"/>
<path d="M96.4897 78.5303H163.49L197.99 77.0303H212.49L212.99 82.5303H198.99H97.9897H86.4897V78.5303H96.4897Z" fill="#EDADBF"/>
<path d="M96.4897 78.5303H163.49L197.99 77.0303M96.4897 78.5303C96.4897 80.0303 96.9897 81.0303 97.9897 82.5303M96.4897 78.5303H86.4897V82.5303H97.9897M197.99 77.0303L198.99 82.5303M197.99 77.0303H212.49L212.99 82.5303H198.99M198.99 82.5303H97.9897" stroke="black" stroke-width="0.5"/>
<path d="M96.4889 78.5303C91.9897 74.0303 88.9898 52.0303 92.9889 35.5303L164.99 31.5303C160.99 36.5303 159.99 70.5303 163.49 78.5303H96.4889Z" fill="#EDADBF" stroke="black" stroke-width="0.5"/>
<path d="M228.489 30.5303L164.989 31.5303C160.989 36.5303 159.99 70.5303 163.489 78.5303L197.989 77.0303C202.489 75.5303 208.989 70.0303 228.489 30.5303Z" fill="#EDADBF" stroke="black" stroke-width="0.5"/>
<path d="M170.49 30.0303C165.99 30.5303 162.49 30.5303 159.49 30.5303L164.99 8.03035C167.99 7.53027 170.99 7.53027 173.99 8.03035L170.49 30.0303Z" fill="#EDADBF" stroke="black" stroke-width="0.5"/>
<path d="M98.9897 32.0305C103.49 37.5305 110.49 34.0305 114.49 32.5305C115.49 17.0304 102.49 25.0304 98.9897 32.0305Z" fill="#EDADBF" stroke="black" stroke-width="0.5"/>
<path d="M234.488 9.53027L231.488 13.0303C248.488 18.5303 258.988 21.5303 271.488 28.0303H272.988L280.988 26.5303C265.988 20.0303 258.488 17.5303 234.488 9.53027Z" stroke="black" stroke-width="0.5"/>
<path d="M271.488 28.0303C260.988 22.5303 241.988 16.0303 231.488 13.0303L229.488 15.5303L244.488 23.0303C242.988 25.5303 238.988 27.5303 232.988 30.2303C244.988 29.5303 261.988 28.5303 271.488 28.0303Z" stroke="black" stroke-width="0.5"/>
<path d="M276.99 34.3303L282.988 32.0303L272.489 28.0303L228.489 30.5303C220.989 45.5303 205.989 76.0303 197.989 77.0303H212.489C210.989 66.0303 220.489 42.5303 245.49 51.5303C255.99 46.0303 265.99 40.5303 276.99 34.3303Z" stroke="black" stroke-width="0.5"/>
<path d="M277.988 34.0303C265.988 40.5303 255.988 46.0303 245.488 51.5303C249.988 54.5303 260.488 60.5303 259.488 79.5303L284.488 79.0303V77.5303C292.988 76.5303 301.488 80.0303 299.988 66.0303L301.988 56.0303C301.988 54.5303 299.488 50.5303 296.988 50.0303C298.488 47.5303 295.488 38.5303 295.488 38.5303V37.0303L291.488 34.0303L286.488 32.5303L282.988 32.0303L277.988 34.0303Z" stroke="black" stroke-width="0.5"/>
<path d="M295.488 37.0303L295.482 36.9505M295.482 36.9505L294.988 28.5303L280.988 26.5303L272.488 28.0303L282.988 32.0303C292.488 33.0303 291.487 34.5303 295.482 36.9505Z" stroke="black" stroke-width="0.5"/>
<path d="M293.99 36.5305C293.49 34.0304 282.49 33.8303 276.99 34.3303" stroke="black" stroke-width="0.5"/>
<path d="M299.99 66.5303L260.49 68.5303C259.99 63.5303 257.823 59.3636 255.99 57.5303L301.99 55.0303M300.49 52.5303C289.49 51.0303 278.49 46.2303 266.49 40.2303M228.49 30.5303L272.49 28.0303L280.99 26.5303" stroke="black" stroke-width="0.5"/>
<path d="M272.49 43.0303C279.485 43.3801 285.502 43.4851 290.883 44.0303M297.49 45.0303C295.387 44.5796 293.194 44.2644 290.883 44.0303M295.49 37.5303C295.072 36.9451 294.603 36.4159 294.099 35.9403M290.883 44.0303C290.557 43.6855 290.463 43.1625 290.448 42.5303M290.448 42.5303C290.434 41.94 290.49 41.2546 290.49 40.5303C290.49 38.5303 289.49 34.5303 285.99 32.5303C288.211 32.5303 291.587 33.5707 294.099 35.9403M290.448 42.5303C293.49 41.0303 294.562 37.4703 294.099 35.9403" stroke="black" stroke-width="0.5"/>
<path d="M290.49 40.5303C285.99 40.5303 283.99 36.5303 282.99 34.0303" stroke="black" stroke-width="0.5"/>
<path d="M132.488 12.6302C118.988 16.6302 106.988 22.5303 92.9883 35.5303C99.9883 23.5303 115.488 14.0303 130.988 9.03027L132.488 12.6302Z" fill="#EFC7D3" stroke="black" stroke-width="0.5"/>
<path d="M130.988 9.03027C110.988 14.7043 92.9883 32.0303 84.9883 30.0303C97.9883 20.5303 113.988 12.0303 130.488 7.53027L130.988 9.03027Z" fill="#EFC7D3" stroke="black" stroke-width="0.5"/>
<path d="M9.98895 48.0302H3.98895C1.48828 52.0302 1.48828 62.0302 1.98895 65.5302C0.488281 66.5302 0.488879 71.0302 1.48895 72.5302L5.48895 73.0302V74.5302L1.48895 76.5302V78.5302C5.48895 79.5302 13.9889 81.5302 21.9889 81.0302V79.5302H39.4889C38.8223 71.0302 40.4889 60.5302 49.4889 53.5302C46.9889 49.5302 39.9889 45.0302 36.9889 44.5302C26.9889 43.5302 11.9889 46.0302 9.98895 48.0302Z" fill="#EFC7D3" stroke="black" stroke-width="0.5"/>
<path d="M92.9897 35.5303C75.1564 36.3636 43.4897 41.2303 32.9897 44.2303L36.9897 44.5303C41.9897 46.0303 47.4897 50.3636 49.4897 53.5303C62.4888 44.0303 87.9888 51.0303 86.4888 78.5303H96.4888C89.4888 67.5303 90.4888 45.5303 92.9897 35.5303Z" fill="#EFC7D3" stroke="black" stroke-width="0.5"/>
<path d="M9.98828 48.0303H3.98828C36.4885 28.5302 58.4885 34.5303 84.4883 30.0303L93.4885 35.5303C76.4885 36.5303 47.4883 40.0303 33.4883 44.2303C25.4883 44.0303 11.4883 46.0303 9.98828 48.0303Z" fill="#EFC7D3" stroke="black" stroke-width="0.5"/>
<path d="M36.9897 44.5303C29.4897 43.5303 12.4897 45.5303 9.98974 48.0303C9.18974 50.4303 12.3231 53.3636 13.9897 54.5303C23.4897 56.0303 36.9897 50.0303 36.9897 44.5303Z" fill="#EFC7D3" stroke="black" stroke-width="0.5"/>
<path d="M3.98898 48.0303C10.989 49.0303 4.98898 59.5303 1.98898 64.5303C1.48891 57.5303 1.98877 52.0303 3.98898 48.0303Z" fill="#EFC7D3" stroke="black" stroke-width="0.5"/>
<path d="M21.9883 84.0303V79.5303H39.4883L39.9883 84.0303H21.9883Z" fill="#EFC7D3" stroke="black" stroke-width="0.5"/>
<path d="M2.49023 65.5303C3.99023 68.0303 5.99023 71.1969 5.49023 73.0303M21.9902 79.5303C11.4902 80.0303 6.99023 76.0303 7.99023 72.5303C8.49023 72.0303 9.99023 70.5303 10.9902 70.5303" stroke="black" stroke-width="0.5"/>
<path d="M31.9902 74.5304C29.4902 70.5304 23.9902 65.5305 20.9902 64.0305C19.2402 63.5305 16.6151 63.6555 13.865 64.0305C12.2401 65.3638 10.9902 68.5304 11.4902 71.5304C11.4902 72.6971 12.7977 75.0304 15.4902 75.0304C19.9902 75.0304 26.9902 75.5304 31.9902 74.5304Z" fill="#EFC7D3"/>
<path d="M5.99023 65.5305C8.24018 65.0304 11.1151 64.4055 13.865 64.0305M13.865 64.0305C16.6151 63.6555 19.2402 63.5305 20.9902 64.0305C23.9902 65.5305 29.4902 70.5304 31.9902 74.5304C26.9902 75.5304 19.9902 75.0304 15.4902 75.0304C12.7977 75.0304 11.4902 72.6971 11.4902 71.5304C10.9902 68.5304 12.2401 65.3638 13.865 64.0305Z" stroke="black" stroke-width="0.5"/>
<path d="M11.4902 71.0305C19.4902 69.5305 22.9902 72.159 25.9902 73.659M12.9902 74.0305L30.4902 73.5305" stroke="black" stroke-width="0.5"/>
<path d="M21.9883 82.5303H31.4883C33.4883 82.5303 34.9883 80.5303 34.4883 79.5303M37.9883 79.5303V84.0303" stroke="black" stroke-width="0.5"/>
<path d="M21.9897 81.0305C17.4897 81.0305 12.9897 81.5305 1.48969 78.5305V76.5305L5.48969 74.5305V73.0305L1.48969 72.5305C0.98877 71.0303 -0.0110346 68.0303 1.98896 65.5303C1.4892 57.5303 1.9892 51.0303 3.98969 48.03C36.4897 28.5304 58.4897 34.5305 84.4897 30.0305C162.49 -24.9697 244.49 12.0303 281.49 26.5305L294.99 28.5303L295.49 35.5303V38.5303C296.988 43.5303 298.323 48.0303 296.99 50.0303C299.49 51.0303 301.99 54.1969 301.99 56.0303L299.99 66.0303C300.442 76.8782 298.034 77.1025 288.702 77.4149C287.711 77.4481 285.642 77.4823 284.49 77.5303V79.0303L259.49 79.4613M21.9897 81.0305V84.0305H39.988L39.4897 79.5305M21.9897 81.0305V79.5305H39.4897M39.4897 79.5305C36.4897 38.0305 89.9897 41.0305 86.4897 80.0305V82.5303H212.99C206.99 39.0303 261.49 39.0303 259.49 79.4613M258.988 79.4613H259.49" stroke="black"/>
</svg>
