<svg width="303" height="96" viewBox="0 0 303 96" fill="none" xmlns="http://www.w3.org/2000/svg">
<circle cx="62.876" cy="74.0454" r="20.5" fill="#EFC7D3" stroke="black"/>
<circle cx="235.876" cy="74.0454" r="20.5" fill="#EFC7D3" stroke="black"/>
<path d="M132.874 12.5453L131.374 9.04527C171.374 1.04538 192.874 1.54541 231.874 13.0454L228.374 17.5454C208.374 9.54532 190.374 8.54532 174.374 8.04539C171.874 7.54539 167.874 7.54535 165.374 8.04527C155.374 8.04539 143.374 9.54539 132.874 12.5453Z" fill="#E56E90" stroke="black" stroke-width="0.5"/>
<path d="M131.374 9.04545L130.874 7.54545C166.874 -3.45459 199.374 0.545284 234.874 9.54546L231.874 13.0455C191.874 0.54541 165.874 2.04541 131.374 9.04545Z" fill="#E56E90" stroke="black" stroke-width="0.5"/>
<path d="M131.374 9.04552C182.874 -2.4545 211.374 7.54553 231.874 13.0455" stroke="black" stroke-width="0.5"/>
<path d="M170.876 30.0454L174.376 8.04541C207.876 9.04541 219.376 14.5454 223.876 16.0454L226.359 28.0454C199.369 28.046 181.874 29.5455 170.876 30.0454Z" fill="#E56E90"/>
<path d="M226.876 30.5454L223.876 16.0454C219.376 14.5454 207.876 9.04541 174.376 8.04541L170.876 30.0454C181.876 29.5454 199.376 28.0454 226.376 28.0454" stroke="black" stroke-width="0.5"/>
<path d="M165.376 8.04541C132.376 9.04541 112.376 18.0454 93.376 35.5454L95.876 33.5454L159.876 30.5454L165.376 8.04541Z" fill="#E56E90" stroke="black" stroke-width="0.5"/>
<path d="M239.874 22.5454C236.207 19.8787 230.374 17.5454 223.874 16.0454L226.374 28.0454H232.874C235.874 26.5454 238.874 24.3141 239.874 22.5454Z" fill="#E56E90" stroke="black" stroke-width="0.5"/>
<path d="M96.876 78.5454H163.876L198.376 77.0454H212.876L213.376 82.5454H199.376H98.376H86.876V78.5454H96.876Z" fill="#E56E90"/>
<path d="M96.876 78.5454H163.876L198.376 77.0454M96.876 78.5454C96.876 80.0454 97.376 81.0454 98.376 82.5454M96.876 78.5454H86.876V82.5454H98.376M198.376 77.0454L199.376 82.5454M198.376 77.0454H212.876L213.376 82.5454H199.376M199.376 82.5454H98.376" stroke="black" stroke-width="0.5"/>
<path d="M96.8751 78.5454C92.376 74.0454 89.376 52.0454 93.3751 35.5454L165.376 31.5454C161.376 36.5454 160.376 70.5454 163.876 78.5454H96.8751Z" fill="#E56E90" stroke="black" stroke-width="0.5"/>
<path d="M228.876 30.5454L165.376 31.5454C161.376 36.5454 160.376 70.5454 163.876 78.5454L198.376 77.0454C202.876 75.5454 209.376 70.0454 228.876 30.5454Z" fill="#E56E90" stroke="black" stroke-width="0.5"/>
<path d="M170.876 30.0455C166.376 30.5455 162.876 30.5455 159.876 30.5455L165.376 8.04548C168.376 7.54541 171.376 7.54541 174.376 8.04548L170.876 30.0455Z" fill="#E56E90" stroke="black" stroke-width="0.5"/>
<path d="M99.376 32.0457C103.876 37.5457 110.876 34.0457 114.876 32.5457C115.876 17.0455 102.876 25.0455 99.376 32.0457Z" fill="#E56E90" stroke="black" stroke-width="0.5"/>
<path d="M234.874 9.54541L231.874 13.0454C248.874 18.5454 259.374 21.5454 271.874 28.0454H273.374L281.374 26.5454C266.374 20.0454 258.874 17.5454 234.874 9.54541Z" fill="#EDADBF" stroke="black" stroke-width="0.5"/>
<path d="M271.874 28.0454C261.374 22.5454 242.374 16.0454 231.874 13.0454L229.874 15.5454L244.874 23.0454C243.374 25.5454 239.374 27.5454 233.374 30.2454C245.374 29.5454 262.374 28.5454 271.874 28.0454Z" fill="#EDADBF" stroke="black" stroke-width="0.5"/>
<path d="M277.376 34.3454L283.374 32.0454L272.875 28.0454L228.875 30.5454C221.375 45.5454 206.375 76.0454 198.375 77.0454H212.875C211.375 66.0454 220.875 42.5454 245.876 51.5454C256.376 46.0454 266.376 40.5454 277.376 34.3454Z" fill="#EDADBF" stroke="black" stroke-width="0.5"/>
<path d="M278.374 34.0454C266.374 40.5454 256.374 46.0454 245.874 51.5454C250.374 54.5454 260.874 60.5454 259.874 79.5454L284.874 79.0454V77.5454C293.374 76.5454 301.874 80.0454 300.374 66.0454L302.374 56.0454C302.374 54.5454 299.874 50.5454 297.374 50.0454C298.874 47.5454 295.874 38.5454 295.874 38.5454V37.0454L291.874 34.0454L286.874 32.5454L283.374 32.0454L278.374 34.0454Z" fill="#EDADBF" stroke="black" stroke-width="0.5"/>
<path d="M281.374 26.5454L272.874 28.0454L283.374 32.0454C292.874 33.0454 291.873 34.5454 295.868 36.9656L295.374 28.5454L281.374 26.5454Z" fill="#EDADBF"/>
<path d="M295.874 37.0454L295.868 36.9656M295.868 36.9656L295.374 28.5454L281.374 26.5454L272.874 28.0454L283.374 32.0454C292.874 33.0454 291.873 34.5454 295.868 36.9656Z" stroke="black" stroke-width="0.5"/>
<path d="M294.376 36.5456C293.876 34.0455 282.876 33.8454 277.376 34.3454" stroke="black" stroke-width="0.5"/>
<path d="M300.376 66.5454L260.876 68.5454C260.376 63.5454 258.209 59.3787 256.376 57.5454L302.376 55.0454M300.876 52.5454C289.876 51.0454 278.876 46.2454 266.876 40.2454M228.876 30.5454L272.876 28.0454L281.376 26.5454" stroke="black" stroke-width="0.5"/>
<path d="M290.876 40.5454C290.876 38.5454 289.876 34.5454 286.376 32.5454C288.597 32.5454 291.974 33.5858 294.485 35.9554C294.949 37.4854 293.876 41.0454 290.834 42.5454C290.821 41.9551 290.876 41.2697 290.876 40.5454Z" fill="#EDADBF"/>
<path d="M272.876 43.0454C279.872 43.3952 285.889 43.5003 291.269 44.0454M297.876 45.0454C295.773 44.5948 293.58 44.2795 291.269 44.0454M295.876 37.5454C295.458 36.9603 294.989 36.4311 294.485 35.9554M291.269 44.0454C290.943 43.7006 290.849 43.1776 290.834 42.5454M290.834 42.5454C290.821 41.9551 290.876 41.2697 290.876 40.5454C290.876 38.5454 289.876 34.5454 286.376 32.5454C288.597 32.5454 291.974 33.5858 294.485 35.9554M290.834 42.5454C293.876 41.0454 294.949 37.4854 294.485 35.9554" stroke="black" stroke-width="0.5"/>
<path d="M290.876 40.5454C286.376 40.5454 284.376 36.5454 283.376 34.0454" stroke="black" stroke-width="0.5"/>
<path d="M132.874 12.6454C119.374 16.6454 107.374 22.5454 93.374 35.5454C100.374 23.5454 115.874 14.0454 131.374 9.04541L132.874 12.6454Z" fill="#EDADBF" stroke="black" stroke-width="0.5"/>
<path d="M131.374 9.04541C111.374 14.7194 93.374 32.0454 85.374 30.0454C98.374 20.5454 114.374 12.0454 130.874 7.54541L131.374 9.04541Z" fill="#EDADBF" stroke="black" stroke-width="0.5"/>
<path d="M10.3747 48.0453H4.37469C1.87402 52.0453 1.87402 62.0453 2.37469 65.5453C0.874023 66.5453 0.874621 71.0453 1.87469 72.5453L5.87469 73.0453V74.5453L1.87469 76.5453V78.5453C5.87469 79.5453 14.3747 81.5453 22.3747 81.0453V79.5453H39.8747C39.208 71.0453 40.8747 60.5453 49.8747 53.5453C47.3747 49.5453 40.3747 45.0453 37.3747 44.5453C27.3747 43.5453 12.3747 46.0453 10.3747 48.0453Z" fill="#EDADBF" stroke="black" stroke-width="0.5"/>
<path d="M93.376 35.5454C75.5426 36.3787 43.876 41.2454 33.376 44.2454L37.376 44.5454C42.376 46.0454 47.876 50.3787 49.876 53.5454C62.875 44.0454 88.375 51.0454 86.875 78.5454H96.875C89.875 67.5454 90.875 45.5454 93.376 35.5454Z" fill="#EDADBF" stroke="black" stroke-width="0.5"/>
<path d="M10.374 48.0455H4.37402C36.8742 28.5454 58.8743 34.5454 84.874 30.0454L93.8743 35.5454C76.8743 36.5454 47.874 40.0454 33.874 44.2454C25.874 44.0454 11.874 46.0454 10.374 48.0455Z" fill="#EDADBF" stroke="black" stroke-width="0.5"/>
<path d="M37.3755 44.5455C29.8755 43.5454 12.8755 45.5454 10.3755 48.0455C9.57548 50.4454 12.7088 53.3787 14.3755 54.5454C23.8755 56.0454 37.3755 50.0454 37.3755 44.5455Z" fill="#EDADBF" stroke="black" stroke-width="0.5"/>
<path d="M4.37472 48.0454C11.3747 49.0454 5.37472 59.5454 2.37472 64.5454C1.87465 57.5454 2.37451 52.0454 4.37472 48.0454Z" fill="#EDADBF" stroke="black" stroke-width="0.5"/>
<path d="M22.374 84.0454V79.5454H39.874L40.374 84.0454H22.374Z" fill="#EDADBF" stroke="black" stroke-width="0.5"/>
<path d="M2.87598 65.5454C4.37598 68.0454 6.37598 71.2121 5.87598 73.0454M22.376 79.5454C11.876 80.0454 7.37598 76.0454 8.37598 72.5454C8.87598 72.0454 10.376 70.5454 11.376 70.5454" stroke="black" stroke-width="0.5"/>
<path d="M32.376 74.5455C29.876 70.5455 24.376 65.5456 21.376 64.0456C19.6259 63.5456 17.0008 63.6706 14.2508 64.0456C12.6258 65.3789 11.376 68.5455 11.876 71.5455C11.876 72.7122 13.1834 75.0455 15.876 75.0455C20.376 75.0455 27.376 75.5455 32.376 74.5455Z" fill="#EDADBF"/>
<path d="M6.37598 65.5456C8.62592 65.0456 11.5008 64.4206 14.2508 64.0456M14.2508 64.0456C17.0008 63.6706 19.6259 63.5456 21.376 64.0456C24.376 65.5456 29.876 70.5455 32.376 74.5455C27.376 75.5455 20.376 75.0455 15.876 75.0455C13.1834 75.0455 11.876 72.7122 11.876 71.5455C11.376 68.5455 12.6258 65.3789 14.2508 64.0456Z" stroke="black" stroke-width="0.5"/>
<path d="M11.876 71.0456C19.876 69.5457 23.376 72.1741 26.376 73.6741M13.376 74.0457L30.876 73.5457" stroke="black" stroke-width="0.5"/>
<path d="M22.374 82.5454H31.874C33.874 82.5454 35.374 80.5454 34.874 79.5454M38.374 79.5454V84.0454" stroke="black" stroke-width="0.5"/>
<path d="M22.3759 81.0457C17.8759 81.0457 13.3759 81.5457 1.87592 78.5457V76.5457L5.87592 74.5456V73.0457L1.87592 72.5457C1.375 71.0454 0.375196 68.0454 2.37519 65.5454C1.87543 57.5454 2.37543 51.0454 4.37592 48.0452C36.8759 28.5455 58.8759 34.5456 84.8759 30.0456C162.876 -24.9545 244.876 12.0454 281.876 26.5456L295.376 28.5454L295.876 35.5454V38.5454C297.374 43.5454 298.709 48.0454 297.376 50.0454C299.876 51.0454 302.376 54.2121 302.376 56.0454L300.376 66.0454C300.828 76.8933 298.42 77.1176 289.088 77.43C288.097 77.4632 286.028 77.4974 284.876 77.5454V79.0454L259.876 79.4764M22.3759 81.0457V84.0457H40.3743L39.8759 79.5457M22.3759 81.0457V79.5457H39.8759M39.8759 79.5457C36.8759 38.0457 90.3759 41.0457 86.8759 80.0457V82.5454H213.376C207.376 39.0454 261.876 39.0454 259.876 79.4764M259.374 79.4764H259.876" stroke="black"/>
</svg>
