<svg width="304" height="96" viewBox="0 0 304 96" fill="none" xmlns="http://www.w3.org/2000/svg">
<circle cx="63.0938" cy="74.0303" r="20.5" fill="#EDADBF" stroke="black"/>
<circle cx="236.094" cy="74.0303" r="20.5" fill="#EDADBF" stroke="black"/>
<path d="M133.092 12.5301L131.592 9.03013C171.592 1.03024 193.092 1.53027 232.092 13.0302L228.592 17.5302C208.592 9.53018 190.592 8.53018 174.592 8.03025C172.092 7.53025 168.092 7.53021 165.592 8.03013C155.592 8.03025 143.592 9.53025 133.092 12.5301Z" fill="#EDADBF" stroke="black" stroke-width="0.5"/>
<path d="M131.592 9.03032L131.092 7.53032C167.092 -3.46973 199.592 0.530148 235.092 9.53032L232.092 13.0303C192.092 0.530273 166.092 2.03027 131.592 9.03032Z" fill="#EDADBF" stroke="black" stroke-width="0.5"/>
<path d="M131.592 9.03038C183.092 -2.46964 211.592 7.5304 232.092 13.0304" stroke="black" stroke-width="0.5"/>
<path d="M171.094 30.0303L174.594 8.03027C208.094 9.03027 219.594 14.5303 224.094 16.0303L226.577 28.0303C199.586 28.0309 182.091 29.5304 171.094 30.0303Z" fill="#EDADBF"/>
<path d="M227.094 30.5303L224.094 16.0303C219.594 14.5303 208.094 9.03027 174.594 8.03027L171.094 30.0303C182.094 29.5303 199.594 28.0303 226.594 28.0303" stroke="black" stroke-width="0.5"/>
<path d="M165.594 8.03027C132.594 9.03027 112.594 18.0303 93.5938 35.5303L96.0938 33.5303L160.094 30.5303L165.594 8.03027Z" fill="#EDADBF" stroke="black" stroke-width="0.5"/>
<path d="M240.092 22.5303C236.425 19.8636 230.592 17.5303 224.092 16.0303L226.592 28.0303H233.092C236.092 26.5303 239.092 24.299 240.092 22.5303Z" fill="#EDADBF" stroke="black" stroke-width="0.5"/>
<path d="M97.0938 78.5303H164.094L198.594 77.0303H213.094L213.594 82.5303H199.594H98.5938H87.0938V78.5303H97.0938Z" fill="#EDADBF"/>
<path d="M97.0938 78.5303H164.094L198.594 77.0303M97.0938 78.5303C97.0938 80.0303 97.5938 81.0303 98.5938 82.5303M97.0938 78.5303H87.0938V82.5303H98.5938M198.594 77.0303L199.594 82.5303M198.594 77.0303H213.094L213.594 82.5303H199.594M199.594 82.5303H98.5938" stroke="black" stroke-width="0.5"/>
<path d="M97.0929 78.5303C92.5937 74.0303 89.5938 52.0303 93.5929 35.5303L165.594 31.5303C161.594 36.5303 160.594 70.5303 164.094 78.5303H97.0929Z" fill="#EDADBF" stroke="black" stroke-width="0.5"/>
<path d="M229.094 30.5303L165.594 31.5303C161.594 36.5303 160.594 70.5303 164.094 78.5303L198.594 77.0303C203.094 75.5303 209.594 70.0303 229.094 30.5303Z" fill="#EDADBF" stroke="black" stroke-width="0.5"/>
<path d="M171.094 30.0303C166.594 30.5303 163.094 30.5303 160.094 30.5303L165.594 8.03035C168.594 7.53027 171.594 7.53027 174.594 8.03035L171.094 30.0303Z" fill="#EDADBF" stroke="black" stroke-width="0.5"/>
<path d="M99.5938 32.0305C104.094 37.5305 111.094 34.0305 115.094 32.5305C116.094 17.0304 103.094 25.0304 99.5938 32.0305Z" fill="#EDADBF" stroke="black" stroke-width="0.5"/>
<path d="M235.092 9.53027L232.092 13.0303C249.092 18.5303 259.592 21.5303 272.092 28.0303H273.592L281.592 26.5303C266.592 20.0303 259.092 17.5303 235.092 9.53027Z" stroke="black" stroke-width="0.5"/>
<path d="M272.092 28.0303C261.592 22.5303 242.592 16.0303 232.092 13.0303L230.092 15.5303L245.092 23.0303C243.592 25.5303 239.592 27.5303 233.592 30.2303C245.592 29.5303 262.592 28.5303 272.092 28.0303Z" stroke="black" stroke-width="0.5"/>
<path d="M277.594 34.3303L283.592 32.0303L273.093 28.0303L229.093 30.5303C221.593 45.5303 206.593 76.0303 198.593 77.0303H213.093C211.593 66.0303 221.093 42.5303 246.094 51.5303C256.594 46.0303 266.594 40.5303 277.594 34.3303Z" stroke="black" stroke-width="0.5"/>
<path d="M278.592 34.0303C266.592 40.5303 256.592 46.0303 246.092 51.5303C250.592 54.5303 261.092 60.5303 260.092 79.5303L285.092 79.0303V77.5303C293.592 76.5303 302.092 80.0303 300.592 66.0303L302.592 56.0303C302.592 54.5303 300.092 50.5303 297.592 50.0303C299.092 47.5303 296.092 38.5303 296.092 38.5303V37.0303L292.092 34.0303L287.092 32.5303L283.592 32.0303L278.592 34.0303Z" stroke="black" stroke-width="0.5"/>
<path d="M296.092 37.0303L296.086 36.9505M296.086 36.9505L295.592 28.5303L281.592 26.5303L273.092 28.0303L283.592 32.0303C293.092 33.0303 292.091 34.5303 296.086 36.9505Z" stroke="black" stroke-width="0.5"/>
<path d="M294.594 36.5305C294.094 34.0304 283.094 33.8303 277.594 34.3303" stroke="black" stroke-width="0.5"/>
<path d="M300.594 66.5303L261.094 68.5303C260.594 63.5303 258.427 59.3636 256.594 57.5303L302.594 55.0303M301.094 52.5303C290.094 51.0303 279.094 46.2303 267.094 40.2303M229.094 30.5303L273.094 28.0303L281.594 26.5303" stroke="black" stroke-width="0.5"/>
<path d="M273.094 43.0303C280.089 43.3801 286.106 43.4851 291.487 44.0303M298.094 45.0303C295.991 44.5796 293.798 44.2644 291.487 44.0303M296.094 37.5303C295.676 36.9451 295.207 36.4159 294.703 35.9403M291.487 44.0303C291.161 43.6855 291.067 43.1625 291.052 42.5303M291.052 42.5303C291.038 41.94 291.094 41.2546 291.094 40.5303C291.094 38.5303 290.094 34.5303 286.594 32.5303C288.815 32.5303 292.191 33.5707 294.703 35.9403M291.052 42.5303C294.094 41.0303 295.166 37.4703 294.703 35.9403" stroke="black" stroke-width="0.5"/>
<path d="M291.094 40.5303C286.594 40.5303 284.594 36.5303 283.594 34.0303" stroke="black" stroke-width="0.5"/>
<path d="M133.092 12.6302C119.592 16.6302 107.592 22.5303 93.5923 35.5303C100.592 23.5303 116.092 14.0303 131.592 9.03027L133.092 12.6302Z" fill="#EFC7D3" stroke="black" stroke-width="0.5"/>
<path d="M131.592 9.03027C111.592 14.7043 93.5923 32.0303 85.5923 30.0303C98.5923 20.5303 114.592 12.0303 131.092 7.53027L131.592 9.03027Z" fill="#EFC7D3" stroke="black" stroke-width="0.5"/>
<path d="M10.593 48.0302H4.59295C2.09229 52.0302 2.09229 62.0302 2.59295 65.5302C1.09229 66.5302 1.09288 71.0302 2.09295 72.5302L6.09295 73.0302V74.5302L2.09295 76.5302V78.5302C6.09295 79.5302 14.593 81.5302 22.593 81.0302V79.5302H40.0929C39.4263 71.0302 41.0929 60.5302 50.0929 53.5302C47.5929 49.5302 40.5929 45.0302 37.5929 44.5302C27.5929 43.5302 12.593 46.0302 10.593 48.0302Z" fill="#EFC7D3" stroke="black" stroke-width="0.5"/>
<path d="M93.5938 35.5303C75.7604 36.3636 44.0938 41.2303 33.5938 44.2303L37.5938 44.5303C42.5938 46.0303 48.0938 50.3636 50.0938 53.5303C63.0928 44.0303 88.5928 51.0303 87.0928 78.5303H97.0928C90.0928 67.5303 91.0928 45.5303 93.5938 35.5303Z" fill="#EFC7D3" stroke="black" stroke-width="0.5"/>
<path d="M10.5918 48.0303H4.5918C37.092 28.5302 59.092 34.5303 85.0918 30.0303L94.092 35.5303C77.092 36.5303 48.0918 40.0303 34.0918 44.2303C26.0918 44.0303 12.0918 46.0303 10.5918 48.0303Z" fill="#EFC7D3" stroke="black" stroke-width="0.5"/>
<path d="M37.5937 44.5303C30.0937 43.5303 13.0937 45.5303 10.5937 48.0303C9.79374 50.4303 12.9271 53.3636 14.5937 54.5303C24.0938 56.0303 37.5937 50.0303 37.5937 44.5303Z" fill="#EFC7D3" stroke="black" stroke-width="0.5"/>
<path d="M4.59298 48.0303C11.593 49.0303 5.59298 59.5303 2.59298 64.5303C2.09291 57.5303 2.59277 52.0303 4.59298 48.0303Z" fill="#EFC7D3" stroke="black" stroke-width="0.5"/>
<path d="M22.5923 84.0303V79.5303H40.0923L40.5923 84.0303H22.5923Z" fill="#EFC7D3" stroke="black" stroke-width="0.5"/>
<path d="M3.09375 65.5303C4.59375 68.0303 6.59375 71.1969 6.09375 73.0303M22.5938 79.5303C12.0938 80.0303 7.59375 76.0303 8.59375 72.5303C9.09375 72.0303 10.5938 70.5303 11.5938 70.5303" stroke="black" stroke-width="0.5"/>
<path d="M32.5938 74.5304C30.0938 70.5304 24.5938 65.5305 21.5938 64.0305C19.8437 63.5305 17.2186 63.6555 14.4685 64.0305C12.8436 65.3638 11.5938 68.5304 12.0938 71.5304C12.0938 72.6971 13.4012 75.0304 16.0938 75.0304C20.5938 75.0304 27.5938 75.5304 32.5938 74.5304Z" fill="#EFC7D3"/>
<path d="M6.59375 65.5305C8.84369 65.0304 11.7186 64.4055 14.4685 64.0305M14.4685 64.0305C17.2186 63.6555 19.8437 63.5305 21.5938 64.0305C24.5938 65.5305 30.0938 70.5304 32.5938 74.5304C27.5938 75.5304 20.5938 75.0304 16.0938 75.0304C13.4012 75.0304 12.0938 72.6971 12.0938 71.5304C11.5938 68.5304 12.8436 65.3638 14.4685 64.0305Z" stroke="black" stroke-width="0.5"/>
<path d="M12.0938 71.0305C20.0938 69.5305 23.5938 72.159 26.5938 73.659M13.5938 74.0305L31.0938 73.5305" stroke="black" stroke-width="0.5"/>
<path d="M22.5918 82.5303H32.0918C34.0918 82.5303 35.5918 80.5303 35.0918 79.5303M38.5918 79.5303V84.0303" stroke="black" stroke-width="0.5"/>
<path d="M22.5937 81.0305C18.0937 81.0305 13.5937 81.5305 2.0937 78.5305V76.5305L6.0937 74.5305V73.0305L2.0937 72.5305C1.59277 71.0303 0.592969 68.0303 2.59296 65.5303C2.09321 57.5303 2.59321 51.0303 4.5937 48.03C37.0937 28.5304 59.0937 34.5305 85.0937 30.0305C163.094 -24.9697 245.094 12.0303 282.094 26.5305L295.594 28.5303L296.094 35.5303V38.5303C297.592 43.5303 298.927 48.0303 297.594 50.0303C300.094 51.0303 302.594 54.1969 302.594 56.0303L300.594 66.0303C301.046 76.8782 298.638 77.1025 289.306 77.4149C288.315 77.4481 286.246 77.4823 285.094 77.5303V79.0303L260.094 79.4613M22.5937 81.0305V84.0305H40.592L40.0937 79.5305M22.5937 81.0305V79.5305H40.0937M40.0937 79.5305C37.0937 38.0305 90.5937 41.0305 87.0937 80.0305V82.5303H213.594C207.594 39.0303 262.094 39.0303 260.094 79.4613M259.592 79.4613H260.094" stroke="black"/>
</svg>
