<svg width="303" height="96" viewBox="0 0 303 96" fill="none" xmlns="http://www.w3.org/2000/svg">
<circle cx="62.2817" cy="74.5076" r="20.5" fill="#E56E90" stroke="black"/>
<circle cx="235.282" cy="74.5076" r="20.5" fill="#E56E90" stroke="black"/>
<path d="M132.28 13.0074L130.78 9.50742C170.78 1.50754 192.28 2.00757 231.28 13.5075L227.78 18.0075C207.78 10.0075 189.78 9.00748 173.78 8.50755C171.28 8.00755 167.28 8.00751 164.78 8.50742C154.78 8.50755 142.78 10.0075 132.28 13.0074Z" stroke="black" stroke-width="0.5"/>
<path d="M130.78 9.50761L130.28 8.00761C166.28 -2.99243 198.78 1.00744 234.28 10.0076L231.28 13.5076C191.28 1.00757 165.28 2.50757 130.78 9.50761Z" stroke="black" stroke-width="0.5"/>
<path d="M130.78 9.50756C182.28 -1.99247 210.78 8.00757 231.28 13.5076" stroke="black" stroke-width="0.5"/>
<path d="M226.282 31.0076L223.282 16.5076C218.782 15.0076 207.282 9.50757 173.782 8.50757L170.282 30.5076C181.282 30.0076 198.782 28.5076 225.782 28.5076" stroke="black" stroke-width="0.5"/>
<path d="M164.782 8.50757C131.782 9.50757 111.782 18.5076 92.7817 36.0076L95.2817 34.0076L159.282 31.0076L164.782 8.50757Z" stroke="black" stroke-width="0.5"/>
<path d="M239.28 23.0076C235.614 20.3409 229.78 18.0076 223.28 16.5076L225.78 28.5076H232.28C235.28 27.0076 238.28 24.7763 239.28 23.0076Z" stroke="black" stroke-width="0.5"/>
<path d="M96.2817 79.0076H163.282L197.782 77.5076M96.2817 79.0076C96.2817 80.5076 96.7817 81.5076 97.7817 83.0076M96.2817 79.0076H86.2817V83.0076H97.7817M197.782 77.5076L198.782 83.0076M197.782 77.5076H212.282L212.782 83.0076H198.782M198.782 83.0076H97.7817" stroke="black" stroke-width="0.5"/>
<path d="M96.2809 79.0076C91.7817 74.5076 88.7818 52.5076 92.7809 36.0076L164.782 32.0076C160.782 37.0076 159.782 71.0076 163.282 79.0076H96.2809Z" stroke="black" stroke-width="0.5"/>
<path d="M228.281 31.0076L164.781 32.0076C160.781 37.0076 159.781 71.0076 163.281 79.0076L197.781 77.5076C202.281 76.0076 208.781 70.5076 228.281 31.0076Z" stroke="black" stroke-width="0.5"/>
<path d="M170.282 30.5076C165.782 31.0076 162.282 31.0076 159.282 31.0076L164.782 8.50764C167.782 8.00757 170.782 8.00757 173.782 8.50764L170.282 30.5076Z" stroke="black" stroke-width="0.5"/>
<path d="M98.7817 32.5077C103.282 38.0077 110.282 34.5077 114.282 33.0077C115.282 17.5076 102.282 25.5076 98.7817 32.5077Z" stroke="black" stroke-width="0.5"/>
<path d="M234.28 10.0076L231.28 13.5076C248.28 19.0076 258.78 22.0076 271.28 28.5076H272.78L280.78 27.0076C265.78 20.5076 258.28 18.0076 234.28 10.0076Z" fill="#EFC7D3" stroke="black" stroke-width="0.5"/>
<path d="M271.28 28.5076C260.78 23.0076 241.78 16.5076 231.28 13.5076L229.28 16.0076L244.28 23.5076C242.78 26.0076 238.78 28.0076 232.78 30.7076C244.78 30.0076 261.78 29.0076 271.28 28.5076Z" fill="#EFC7D3" stroke="black" stroke-width="0.5"/>
<path d="M276.782 34.8076L282.78 32.5076L272.281 28.5076L228.281 31.0076C220.781 46.0076 205.781 76.5076 197.781 77.5076H212.281C210.781 66.5076 220.281 43.0076 245.282 52.0076C255.782 46.5076 265.782 41.0076 276.782 34.8076Z" fill="#EFC7D3" stroke="black" stroke-width="0.5"/>
<path d="M277.78 34.5076C265.78 41.0076 255.78 46.5076 245.28 52.0076C249.78 55.0076 260.28 61.0076 259.28 80.0076L284.28 79.5076V78.0076C292.78 77.0076 301.28 80.5076 299.78 66.5076L301.78 56.5076C301.78 55.0076 299.28 51.0076 296.78 50.5076C298.28 48.0076 295.28 39.0076 295.28 39.0076V37.5076L291.28 34.5076L286.28 33.0076L282.78 32.5076L277.78 34.5076Z" fill="#EFC7D3" stroke="black" stroke-width="0.5"/>
<path d="M280.78 27.0076L272.28 28.5076L282.78 32.5076C292.28 33.5076 291.279 35.0076 295.274 37.4277L294.78 29.0076L280.78 27.0076Z" fill="#EFC7D3"/>
<path d="M295.28 37.5076L295.274 37.4277M295.274 37.4277L294.78 29.0076L280.78 27.0076L272.28 28.5076L282.78 32.5076C292.28 33.5076 291.279 35.0076 295.274 37.4277Z" stroke="black" stroke-width="0.5"/>
<path d="M293.782 37.0078C293.282 34.5077 282.282 34.3076 276.782 34.8076" stroke="black" stroke-width="0.5"/>
<path d="M299.782 67.0076L260.282 69.0076C259.782 64.0076 257.615 59.8409 255.782 58.0076L301.782 55.5076M300.282 53.0076C289.282 51.5076 278.282 46.7076 266.282 40.7076M228.282 31.0076L272.282 28.5076L280.782 27.0076" stroke="black" stroke-width="0.5"/>
<path d="M290.282 41.0076C290.282 39.0076 289.282 35.0076 285.782 33.0076C288.003 33.0076 291.379 34.048 293.891 36.4176C294.354 37.9476 293.282 41.5076 290.24 43.0076C290.226 42.4173 290.282 41.7319 290.282 41.0076Z" fill="#EFC7D3"/>
<path d="M272.282 43.5076C279.277 43.8574 285.294 43.9624 290.675 44.5076M297.282 45.5076C295.179 45.0569 292.985 44.7417 290.675 44.5076M295.282 38.0076C294.864 37.4224 294.395 36.8932 293.891 36.4176M290.675 44.5076C290.349 44.1628 290.255 43.6398 290.24 43.0076M290.24 43.0076C290.226 42.4173 290.282 41.7319 290.282 41.0076C290.282 39.0076 289.282 35.0076 285.782 33.0076C288.003 33.0076 291.379 34.048 293.891 36.4176M290.24 43.0076C293.282 41.5076 294.354 37.9476 293.891 36.4176" stroke="black" stroke-width="0.5"/>
<path d="M290.282 41.0076C285.782 41.0076 283.782 37.0076 282.782 34.5076" stroke="black" stroke-width="0.5"/>
<path d="M132.28 13.1075C118.78 17.1075 106.78 23.0076 92.7803 36.0076C99.7803 24.0076 115.28 14.5076 130.78 9.50757L132.28 13.1075Z" fill="#EDADBF" stroke="black" stroke-width="0.5"/>
<path d="M130.78 9.50757C110.78 15.1816 92.7803 32.5076 84.7803 30.5076C97.7803 21.0076 113.78 12.5076 130.28 8.00757L130.78 9.50757Z" fill="#EDADBF" stroke="black" stroke-width="0.5"/>
<path d="M9.78094 48.5076H3.78094C1.28027 52.5076 1.28027 62.5076 1.78094 66.0076C0.280273 67.0076 0.280871 71.5076 1.28094 73.0076L5.28094 73.5076V75.0076L1.28094 77.0076V79.0076C5.28094 80.0076 13.7809 82.0076 21.7809 81.5076V80.0076H39.2809C38.6143 71.5076 40.2809 61.0076 49.2809 54.0076C46.7809 50.0076 39.7809 45.5076 36.7809 45.0076C26.7809 44.0076 11.7809 46.5076 9.78094 48.5076Z" fill="#EDADBF" stroke="black" stroke-width="0.5"/>
<path d="M92.7817 36.0076C74.9484 36.8409 43.2817 41.7076 32.7817 44.7076L36.7817 45.0076C41.7817 46.5076 47.2817 50.8409 49.2817 54.0076C62.2808 44.5076 87.7808 51.5076 86.2808 79.0076H96.2808C89.2808 68.0076 90.2808 46.0076 92.7817 36.0076Z" fill="#EDADBF" stroke="black" stroke-width="0.5"/>
<path d="M9.78027 48.5076H3.78027C36.2805 29.0075 58.2805 35.0076 84.2803 30.5076L93.2805 36.0076C76.2805 37.0076 47.2803 40.5076 33.2803 44.7076C25.2803 44.5076 11.2803 46.5076 9.78027 48.5076Z" fill="#EDADBF" stroke="black" stroke-width="0.5"/>
<path d="M36.7817 45.0076C29.2817 44.0076 12.2817 46.0076 9.78173 48.5076C8.98173 50.9076 12.1151 53.8409 13.7817 55.0076C23.2817 56.5076 36.7817 50.5076 36.7817 45.0076Z" fill="#EDADBF" stroke="black" stroke-width="0.5"/>
<path d="M3.78097 48.5076C10.781 49.5076 4.78097 60.0076 1.78097 65.0076C1.2809 58.0076 1.78076 52.5076 3.78097 48.5076Z" fill="#EDADBF" stroke="black" stroke-width="0.5"/>
<path d="M21.7803 84.5076V80.0076H39.2803L39.7803 84.5076H21.7803Z" fill="#EDADBF" stroke="black" stroke-width="0.5"/>
<path d="M2.28223 66.0076C3.78223 68.5076 5.78223 71.6742 5.28223 73.5076M21.7822 80.0076C11.2822 80.5076 6.78223 76.5076 7.78223 73.0076C8.28223 72.5076 9.78223 71.0076 10.7822 71.0076" stroke="black" stroke-width="0.5"/>
<path d="M31.7822 75.0076C29.2822 71.0076 23.7822 66.0076 20.7822 64.5076C19.0322 64.0076 16.4071 64.1326 13.657 64.5076C12.0321 65.841 10.7822 69.0076 11.2822 72.0076C11.2822 73.1742 12.5896 75.5076 15.2822 75.5076C19.7822 75.5076 26.7822 76.0076 31.7822 75.0076Z" fill="#EDADBF"/>
<path d="M5.78223 66.0076C8.03217 65.5076 10.9071 64.8826 13.657 64.5076M13.657 64.5076C16.4071 64.1326 19.0322 64.0076 20.7822 64.5076C23.7822 66.0076 29.2822 71.0076 31.7822 75.0076C26.7822 76.0076 19.7822 75.5076 15.2822 75.5076C12.5896 75.5076 11.2822 73.1742 11.2822 72.0076C10.7822 69.0076 12.0321 65.841 13.657 64.5076Z" stroke="black" stroke-width="0.5"/>
<path d="M11.2822 71.5076C19.2822 70.0077 22.7822 72.6362 25.7822 74.1362M12.7822 74.5077L30.2822 74.0077" stroke="black" stroke-width="0.5"/>
<path d="M21.7803 83.0076H31.2803C33.2803 83.0076 34.7803 81.0076 34.2803 80.0076M37.7803 80.0076V84.5076" stroke="black" stroke-width="0.5"/>
<path d="M21.7817 81.5078C17.2817 81.5078 12.7817 82.0078 1.28168 79.0078V77.0078L5.28168 75.0078V73.5078L1.28168 73.0078C0.780762 71.5076 -0.219042 68.5076 1.78095 66.0076C1.2812 58.0076 1.7812 51.5076 3.78168 48.5073C36.2817 29.0077 58.2817 35.0078 84.2817 30.5078C162.282 -24.4924 244.282 12.5076 281.282 27.0077L294.782 29.0076L295.282 36.0076V39.0076C296.78 44.0076 298.115 48.5076 296.782 50.5076C299.282 51.5076 301.782 54.6742 301.782 56.5076L299.782 66.5076C300.234 77.3555 297.826 77.5798 288.494 77.8922C287.503 77.9254 285.434 77.9596 284.282 78.0076V79.5076L259.282 79.9386M21.7817 81.5078V84.5078H39.78L39.2817 80.0078M21.7817 81.5078V80.0078H39.2817M39.2817 80.0078C36.2817 38.5078 89.7817 41.5078 86.2817 80.5078V83.0076H212.782C206.782 39.5076 261.282 39.5076 259.282 79.9386M258.78 79.9386H259.282" stroke="black"/>
</svg>
