<svg width="304" height="96" viewBox="0 0 304 96" fill="none" xmlns="http://www.w3.org/2000/svg">
<circle cx="63.0938" cy="74.5076" r="20.5" fill="#EDADBF" stroke="black"/>
<circle cx="236.094" cy="74.5076" r="20.5" fill="#EDADBF" stroke="black"/>
<path d="M133.092 13.0074L131.592 9.50742C171.592 1.50754 193.092 2.00757 232.092 13.5075L228.592 18.0075C208.592 10.0075 190.592 9.00748 174.592 8.50755C172.092 8.00755 168.092 8.00751 165.592 8.50742C155.592 8.50755 143.592 10.0075 133.092 13.0074Z" stroke="black" stroke-width="0.5"/>
<path d="M131.592 9.50761L131.092 8.00761C167.092 -2.99243 199.592 1.00744 235.092 10.0076L232.092 13.5076C192.092 1.00757 166.092 2.50757 131.592 9.50761Z" stroke="black" stroke-width="0.5"/>
<path d="M131.592 9.50756C183.092 -1.99247 211.592 8.00757 232.092 13.5076" stroke="black" stroke-width="0.5"/>
<path d="M227.094 31.0076L224.094 16.5076C219.594 15.0076 208.094 9.50757 174.594 8.50757L171.094 30.5076C182.094 30.0076 199.594 28.5076 226.594 28.5076" stroke="black" stroke-width="0.5"/>
<path d="M165.594 8.50757C132.594 9.50757 112.594 18.5076 93.5938 36.0076L96.0938 34.0076L160.094 31.0076L165.594 8.50757Z" stroke="black" stroke-width="0.5"/>
<path d="M240.092 23.0076C236.425 20.3409 230.592 18.0076 224.092 16.5076L226.592 28.5076H233.092C236.092 27.0076 239.092 24.7763 240.092 23.0076Z" stroke="black" stroke-width="0.5"/>
<path d="M97.0938 79.0076H164.094L198.594 77.5076M97.0938 79.0076C97.0938 80.5076 97.5938 81.5076 98.5938 83.0076M97.0938 79.0076H87.0938V83.0076H98.5938M198.594 77.5076L199.594 83.0076M198.594 77.5076H213.094L213.594 83.0076H199.594M199.594 83.0076H98.5938" stroke="black" stroke-width="0.5"/>
<path d="M97.0929 79.0076C92.5937 74.5076 89.5938 52.5076 93.5929 36.0076L165.594 32.0076C161.594 37.0076 160.594 71.0076 164.094 79.0076H97.0929Z" stroke="black" stroke-width="0.5"/>
<path d="M229.094 31.0076L165.594 32.0076C161.594 37.0076 160.594 71.0076 164.094 79.0076L198.594 77.5076C203.094 76.0076 209.594 70.5076 229.094 31.0076Z" stroke="black" stroke-width="0.5"/>
<path d="M171.094 30.5076C166.594 31.0076 163.094 31.0076 160.094 31.0076L165.594 8.50764C168.594 8.00757 171.594 8.00757 174.594 8.50764L171.094 30.5076Z" stroke="black" stroke-width="0.5"/>
<path d="M99.5938 32.5077C104.094 38.0077 111.094 34.5077 115.094 33.0077C116.094 17.5076 103.094 25.5076 99.5938 32.5077Z" stroke="black" stroke-width="0.5"/>
<path d="M235.092 10.0076L232.092 13.5076C249.092 19.0076 259.592 22.0076 272.092 28.5076H273.592L281.592 27.0076C266.592 20.5076 259.092 18.0076 235.092 10.0076Z" stroke="black" stroke-width="0.5"/>
<path d="M272.092 28.5076C261.592 23.0076 242.592 16.5076 232.092 13.5076L230.092 16.0076L245.092 23.5076C243.592 26.0076 239.592 28.0076 233.592 30.7076C245.592 30.0076 262.592 29.0076 272.092 28.5076Z" stroke="black" stroke-width="0.5"/>
<path d="M277.594 34.8076L283.592 32.5076L273.093 28.5076L229.093 31.0076C221.593 46.0076 206.593 76.5076 198.593 77.5076H213.093C211.593 66.5076 221.093 43.0076 246.094 52.0076C256.594 46.5076 266.594 41.0076 277.594 34.8076Z" stroke="black" stroke-width="0.5"/>
<path d="M278.592 34.5076C266.592 41.0076 256.592 46.5076 246.092 52.0076C250.592 55.0076 261.092 61.0076 260.092 80.0076L285.092 79.5076V78.0076C293.592 77.0076 302.092 80.5076 300.592 66.5076L302.592 56.5076C302.592 55.0076 300.092 51.0076 297.592 50.5076C299.092 48.0076 296.092 39.0076 296.092 39.0076V37.5076L292.092 34.5076L287.092 33.0076L283.592 32.5076L278.592 34.5076Z" stroke="black" stroke-width="0.5"/>
<path d="M296.092 37.5076L296.086 37.4277M296.086 37.4277L295.592 29.0076L281.592 27.0076L273.092 28.5076L283.592 32.5076C293.092 33.5076 292.091 35.0076 296.086 37.4277Z" stroke="black" stroke-width="0.5"/>
<path d="M294.594 37.0078C294.094 34.5077 283.094 34.3076 277.594 34.8076" stroke="black" stroke-width="0.5"/>
<path d="M300.594 67.0076L261.094 69.0076C260.594 64.0076 258.427 59.8409 256.594 58.0076L302.594 55.5076M301.094 53.0076C290.094 51.5076 279.094 46.7076 267.094 40.7076M229.094 31.0076L273.094 28.5076L281.594 27.0076" stroke="black" stroke-width="0.5"/>
<path d="M273.094 43.5076C280.089 43.8574 286.106 43.9624 291.487 44.5076M298.094 45.5076C295.991 45.0569 293.798 44.7417 291.487 44.5076M296.094 38.0076C295.676 37.4224 295.207 36.8932 294.703 36.4176M291.487 44.5076C291.161 44.1628 291.067 43.6398 291.052 43.0076M291.052 43.0076C291.038 42.4173 291.094 41.7319 291.094 41.0076C291.094 39.0076 290.094 35.0076 286.594 33.0076C288.815 33.0076 292.191 34.048 294.703 36.4176M291.052 43.0076C294.094 41.5076 295.166 37.9476 294.703 36.4176" stroke="black" stroke-width="0.5"/>
<path d="M291.094 41.0076C286.594 41.0076 284.594 37.0076 283.594 34.5076" stroke="black" stroke-width="0.5"/>
<path d="M133.092 13.1075C119.592 17.1075 107.592 23.0076 93.5923 36.0076C100.592 24.0076 116.092 14.5076 131.592 9.50757L133.092 13.1075Z" fill="#EDADBF" stroke="black" stroke-width="0.5"/>
<path d="M131.592 9.50757C111.592 15.1816 93.5923 32.5076 85.5923 30.5076C98.5923 21.0076 114.592 12.5076 131.092 8.00757L131.592 9.50757Z" fill="#EDADBF" stroke="black" stroke-width="0.5"/>
<path d="M10.593 48.5076H4.59295C2.09229 52.5076 2.09229 62.5076 2.59295 66.0076C1.09229 67.0076 1.09288 71.5076 2.09295 73.0076L6.09295 73.5076V75.0076L2.09295 77.0076V79.0076C6.09295 80.0076 14.593 82.0076 22.593 81.5076V80.0076H40.0929C39.4263 71.5076 41.0929 61.0076 50.0929 54.0076C47.5929 50.0076 40.5929 45.5076 37.5929 45.0076C27.5929 44.0076 12.593 46.5076 10.593 48.5076Z" fill="#EDADBF" stroke="black" stroke-width="0.5"/>
<path d="M93.5938 36.0076C75.7604 36.8409 44.0938 41.7076 33.5938 44.7076L37.5938 45.0076C42.5938 46.5076 48.0938 50.8409 50.0938 54.0076C63.0928 44.5076 88.5928 51.5076 87.0928 79.0076H97.0928C90.0928 68.0076 91.0928 46.0076 93.5938 36.0076Z" fill="#EDADBF" stroke="black" stroke-width="0.5"/>
<path d="M10.5918 48.5076H4.5918C37.092 29.0075 59.092 35.0076 85.0918 30.5076L94.092 36.0076C77.092 37.0076 48.0918 40.5076 34.0918 44.7076C26.0918 44.5076 12.0918 46.5076 10.5918 48.5076Z" fill="#EDADBF" stroke="black" stroke-width="0.5"/>
<path d="M37.5937 45.0076C30.0937 44.0076 13.0937 46.0076 10.5937 48.5076C9.79374 50.9076 12.9271 53.8409 14.5937 55.0076C24.0938 56.5076 37.5937 50.5076 37.5937 45.0076Z" fill="#EDADBF" stroke="black" stroke-width="0.5"/>
<path d="M4.59298 48.5076C11.593 49.5076 5.59298 60.0076 2.59298 65.0076C2.09291 58.0076 2.59277 52.5076 4.59298 48.5076Z" fill="#EDADBF" stroke="black" stroke-width="0.5"/>
<path d="M22.5923 84.5076V80.0076H40.0923L40.5923 84.5076H22.5923Z" fill="#EDADBF" stroke="black" stroke-width="0.5"/>
<path d="M3.09375 66.0076C4.59375 68.5076 6.59375 71.6742 6.09375 73.5076M22.5938 80.0076C12.0938 80.5076 7.59375 76.5076 8.59375 73.0076C9.09375 72.5076 10.5938 71.0076 11.5938 71.0076" stroke="black" stroke-width="0.5"/>
<path d="M32.5938 75.0076C30.0938 71.0076 24.5938 66.0076 21.5938 64.5076C19.8437 64.0076 17.2186 64.1326 14.4685 64.5076C12.8436 65.841 11.5938 69.0076 12.0938 72.0076C12.0938 73.1742 13.4012 75.5076 16.0938 75.5076C20.5938 75.5076 27.5938 76.0076 32.5938 75.0076Z" fill="#EDADBF"/>
<path d="M6.59375 66.0076C8.84369 65.5076 11.7186 64.8826 14.4685 64.5076M14.4685 64.5076C17.2186 64.1326 19.8437 64.0076 21.5938 64.5076C24.5938 66.0076 30.0938 71.0076 32.5938 75.0076C27.5938 76.0076 20.5938 75.5076 16.0938 75.5076C13.4012 75.5076 12.0938 73.1742 12.0938 72.0076C11.5938 69.0076 12.8436 65.841 14.4685 64.5076Z" stroke="black" stroke-width="0.5"/>
<path d="M12.0938 71.5076C20.0938 70.0077 23.5938 72.6362 26.5938 74.1362M13.5938 74.5077L31.0938 74.0077" stroke="black" stroke-width="0.5"/>
<path d="M22.5918 83.0076H32.0918C34.0918 83.0076 35.5918 81.0076 35.0918 80.0076M38.5918 80.0076V84.5076" stroke="black" stroke-width="0.5"/>
<path d="M22.5937 81.5078C18.0937 81.5078 13.5937 82.0078 2.0937 79.0078V77.0078L6.0937 75.0078V73.5078L2.0937 73.0078C1.59277 71.5076 0.592969 68.5076 2.59296 66.0076C2.09321 58.0076 2.59321 51.5076 4.5937 48.5073C37.0937 29.0077 59.0937 35.0078 85.0937 30.5078C163.094 -24.4924 245.094 12.5076 282.094 27.0077L295.594 29.0076L296.094 36.0076V39.0076C297.592 44.0076 298.927 48.5076 297.594 50.5076C300.094 51.5076 302.594 54.6742 302.594 56.5076L300.594 66.5076C301.046 77.3555 298.638 77.5798 289.306 77.8922C288.315 77.9254 286.246 77.9596 285.094 78.0076V79.5076L260.094 79.9386M22.5937 81.5078V84.5078H40.592L40.0937 80.0078M22.5937 81.5078V80.0078H40.0937M40.0937 80.0078C37.0937 38.5078 90.5937 41.5078 87.0937 80.5078V83.0076H213.594C207.594 39.5076 262.094 39.5076 260.094 79.9386M259.592 79.9386H260.094" stroke="black"/>
</svg>
