<svg width="303" height="95" viewBox="0 0 303 95" fill="none" xmlns="http://www.w3.org/2000/svg">
<circle cx="62.2817" cy="73.6919" r="20.5" fill="#E56E90" stroke="black"/>
<circle cx="235.282" cy="73.6919" r="20.5" fill="#E56E90" stroke="black"/>
<path d="M132.28 12.1918L130.78 8.69175C170.78 0.691862 192.28 1.19189 231.28 12.6918L227.78 17.1918C207.78 9.1918 189.78 8.1918 173.78 7.69187C171.28 7.19187 167.28 7.19183 164.78 7.69175C154.78 7.69187 142.78 9.19187 132.28 12.1918Z" fill="#EFC7D3" stroke="black" stroke-width="0.5"/>
<path d="M130.78 8.69194L130.28 7.19194C166.28 -3.80811 198.78 0.191769 234.28 9.19194L231.28 12.6919C191.28 0.191895 165.28 1.69189 130.78 8.69194Z" fill="#EFC7D3" stroke="black" stroke-width="0.5"/>
<path d="M130.78 8.692C182.28 -2.80802 210.78 7.19202 231.28 12.692" stroke="black" stroke-width="0.5"/>
<path d="M170.282 29.6919L173.782 7.69189C207.282 8.69189 218.782 14.1919 223.282 15.6919L225.764 27.6919C198.774 27.6925 181.279 29.192 170.282 29.6919Z" fill="#EFC7D3"/>
<path d="M226.282 30.1919L223.282 15.6919C218.782 14.1919 207.282 8.69189 173.782 7.69189L170.282 29.6919C181.282 29.1919 198.782 27.6919 225.782 27.6919" stroke="black" stroke-width="0.5"/>
<path d="M164.782 7.69189C131.782 8.69189 111.782 17.6919 92.7817 35.1919L95.2817 33.1919L159.282 30.1919L164.782 7.69189Z" fill="#EFC7D3" stroke="black" stroke-width="0.5"/>
<path d="M239.28 22.1919C235.614 19.5252 229.78 17.1919 223.28 15.6919L225.78 27.6919H232.28C235.28 26.1919 238.28 23.9606 239.28 22.1919Z" fill="#EFC7D3" stroke="black" stroke-width="0.5"/>
<path d="M96.2817 78.1919H163.282L197.782 76.6919H212.282L212.782 82.1919H198.782H97.7817H86.2817V78.1919H96.2817Z" fill="#EFC7D3"/>
<path d="M96.2817 78.1919H163.282L197.782 76.6919M96.2817 78.1919C96.2817 79.6919 96.7817 80.6919 97.7817 82.1919M96.2817 78.1919H86.2817V82.1919H97.7817M197.782 76.6919L198.782 82.1919M197.782 76.6919H212.282L212.782 82.1919H198.782M198.782 82.1919H97.7817" stroke="black" stroke-width="0.5"/>
<path d="M96.2809 78.1919C91.7817 73.6919 88.7818 51.6919 92.7809 35.1919L164.782 31.1919C160.782 36.1919 159.782 70.1919 163.282 78.1919H96.2809Z" fill="#EFC7D3" stroke="black" stroke-width="0.5"/>
<path d="M228.281 30.1919L164.781 31.1919C160.781 36.1919 159.781 70.1919 163.281 78.1919L197.781 76.6919C202.281 75.1919 208.781 69.6919 228.281 30.1919Z" fill="#EFC7D3" stroke="black" stroke-width="0.5"/>
<path d="M170.282 29.692C165.782 30.192 162.282 30.192 159.282 30.192L164.782 7.69197C167.782 7.19189 170.782 7.19189 173.782 7.69197L170.282 29.692Z" fill="#EFC7D3" stroke="black" stroke-width="0.5"/>
<path d="M98.7817 31.6922C103.282 37.1922 110.282 33.6922 114.282 32.1922C115.282 16.692 102.282 24.692 98.7817 31.6922Z" fill="#EFC7D3" stroke="black" stroke-width="0.5"/>
<path d="M234.28 9.19189L231.28 12.6919C248.28 18.1919 258.78 21.1919 271.28 27.6919H272.78L280.78 26.1919C265.78 19.6919 258.28 17.1919 234.28 9.19189Z" fill="#EFC7D3" stroke="black" stroke-width="0.5"/>
<path d="M271.28 27.6919C260.78 22.1919 241.78 15.6919 231.28 12.6919L229.28 15.1919L244.28 22.6919C242.78 25.1919 238.78 27.1919 232.78 29.8919C244.78 29.1919 261.78 28.1919 271.28 27.6919Z" fill="#EFC7D3" stroke="black" stroke-width="0.5"/>
<path d="M276.782 33.9919L282.78 31.6919L272.281 27.6919L228.281 30.1919C220.781 45.1919 205.781 75.6919 197.781 76.6919H212.281C210.781 65.6919 220.281 42.1919 245.282 51.1919C255.782 45.6919 265.782 40.1919 276.782 33.9919Z" fill="#EFC7D3" stroke="black" stroke-width="0.5"/>
<path d="M277.78 33.6919C265.78 40.1919 255.78 45.6919 245.28 51.1919C249.78 54.1919 260.28 60.1919 259.28 79.1919L284.28 78.6919V77.1919C292.78 76.1919 301.28 79.6919 299.78 65.6919L301.78 55.6919C301.78 54.1919 299.28 50.1919 296.78 49.6919C298.28 47.1919 295.28 38.1919 295.28 38.1919V36.6919L291.28 33.6919L286.28 32.1919L282.78 31.6919L277.78 33.6919Z" fill="#EFC7D3" stroke="black" stroke-width="0.5"/>
<path d="M280.78 26.1919L272.28 27.6919L282.78 31.6919C292.28 32.6919 291.279 34.1919 295.274 36.6121L294.78 28.1919L280.78 26.1919Z" fill="#EFC7D3"/>
<path d="M295.28 36.6919L295.274 36.6121M295.274 36.6121L294.78 28.1919L280.78 26.1919L272.28 27.6919L282.78 31.6919C292.28 32.6919 291.279 34.1919 295.274 36.6121Z" stroke="black" stroke-width="0.5"/>
<path d="M293.782 36.1921C293.282 33.692 282.282 33.4919 276.782 33.9919" stroke="black" stroke-width="0.5"/>
<path d="M299.782 66.1919L260.282 68.1919C259.782 63.1919 257.615 59.0252 255.782 57.1919L301.782 54.6919M300.282 52.1919C289.282 50.6919 278.282 45.8919 266.282 39.8919M228.282 30.1919L272.282 27.6919L280.782 26.1919" stroke="black" stroke-width="0.5"/>
<path d="M290.282 40.1919C290.282 38.1919 289.282 34.1919 285.782 32.1919C288.003 32.1919 291.379 33.2323 293.891 35.6019C294.354 37.1319 293.282 40.6919 290.24 42.1919C290.226 41.6016 290.282 40.9162 290.282 40.1919Z" fill="#EFC7D3"/>
<path d="M272.282 42.6919C279.277 43.0417 285.294 43.1468 290.675 43.6919M297.282 44.6919C295.179 44.2413 292.985 43.926 290.675 43.6919M295.282 37.1919C294.864 36.6068 294.395 36.0775 293.891 35.6019M290.675 43.6919C290.349 43.3471 290.255 42.8241 290.24 42.1919M290.24 42.1919C290.226 41.6016 290.282 40.9162 290.282 40.1919C290.282 38.1919 289.282 34.1919 285.782 32.1919C288.003 32.1919 291.379 33.2323 293.891 35.6019M290.24 42.1919C293.282 40.6919 294.354 37.1319 293.891 35.6019" stroke="black" stroke-width="0.5"/>
<path d="M290.282 40.1919C285.782 40.1919 283.782 36.1919 282.782 33.6919" stroke="black" stroke-width="0.5"/>
<path d="M132.28 12.2919C118.78 16.2919 106.78 22.1919 92.7803 35.1919C99.7803 23.1919 115.28 13.6919 130.78 8.69189L132.28 12.2919Z" fill="#E0426F" stroke="black" stroke-width="0.5"/>
<path d="M130.78 8.69189C110.78 14.3659 92.7803 31.6919 84.7803 29.6919C97.7803 20.1919 113.78 11.6919 130.28 7.19189L130.78 8.69189Z" fill="#E0426F" stroke="black" stroke-width="0.5"/>
<path d="M9.78094 47.6918H3.78094C1.28027 51.6918 1.28027 61.6918 1.78094 65.1918C0.280273 66.1918 0.280871 70.6918 1.28094 72.1918L5.28094 72.6918V74.1918L1.28094 76.1918V78.1918C5.28094 79.1918 13.7809 81.1918 21.7809 80.6918V79.1918H39.2809C38.6143 70.6918 40.2809 60.1918 49.2809 53.1918C46.7809 49.1918 39.7809 44.6918 36.7809 44.1918C26.7809 43.1918 11.7809 45.6918 9.78094 47.6918Z" fill="#E0426F" stroke="black" stroke-width="0.5"/>
<path d="M92.7817 35.1919C74.9484 36.0252 43.2817 40.8919 32.7817 43.8919L36.7817 44.1919C41.7817 45.6919 47.2817 50.0252 49.2817 53.1919C62.2808 43.6919 87.7808 50.6919 86.2808 78.1919H96.2808C89.2808 67.1919 90.2808 45.1919 92.7817 35.1919Z" fill="#E0426F" stroke="black" stroke-width="0.5"/>
<path d="M9.78027 47.6919H3.78027C36.2805 28.1918 58.2805 34.1919 84.2803 29.6919L93.2805 35.1919C76.2805 36.1919 47.2803 39.6919 33.2803 43.8919C25.2803 43.6919 11.2803 45.6919 9.78027 47.6919Z" fill="#E0426F" stroke="black" stroke-width="0.5"/>
<path d="M36.7817 44.192C29.2817 43.1919 12.2817 45.1919 9.78173 47.692C8.98173 50.0919 12.1151 53.0252 13.7817 54.1919C23.2817 55.6919 36.7817 49.6919 36.7817 44.192Z" fill="#E0426F" stroke="black" stroke-width="0.5"/>
<path d="M3.78097 47.6919C10.781 48.6919 4.78097 59.1919 1.78097 64.1919C1.2809 57.1919 1.78076 51.6919 3.78097 47.6919Z" fill="#E0426F" stroke="black" stroke-width="0.5"/>
<path d="M21.7803 83.6919V79.1919H39.2803L39.7803 83.6919H21.7803Z" fill="#E0426F" stroke="black" stroke-width="0.5"/>
<path d="M2.28223 65.1919C3.78223 67.6919 5.78223 70.8586 5.28223 72.6919M21.7822 79.1919C11.2822 79.6919 6.78223 75.6919 7.78223 72.1919C8.28223 71.6919 9.78223 70.1919 10.7822 70.1919" stroke="black" stroke-width="0.5"/>
<path d="M31.7822 74.192C29.2822 70.192 23.7822 65.1921 20.7822 63.6921C19.0322 63.1921 16.4071 63.3171 13.657 63.6921C12.0321 65.0254 10.7822 68.192 11.2822 71.192C11.2822 72.3587 12.5896 74.692 15.2822 74.692C19.7822 74.692 26.7822 75.192 31.7822 74.192Z" fill="#E0426F"/>
<path d="M5.78223 65.1921C8.03217 64.6921 10.9071 64.0671 13.657 63.6921M13.657 63.6921C16.4071 63.3171 19.0322 63.1921 20.7822 63.6921C23.7822 65.1921 29.2822 70.192 31.7822 74.192C26.7822 75.192 19.7822 74.692 15.2822 74.692C12.5896 74.692 11.2822 72.3587 11.2822 71.192C10.7822 68.192 12.0321 65.0254 13.657 63.6921Z" stroke="black" stroke-width="0.5"/>
<path d="M11.2822 70.6921C19.2822 69.1921 22.7822 71.8206 25.7822 73.3206M12.7822 73.6921L30.2822 73.1921" stroke="black" stroke-width="0.5"/>
<path d="M21.7803 82.1919H31.2803C33.2803 82.1919 34.7803 80.1919 34.2803 79.1919M37.7803 79.1919V83.6919" stroke="black" stroke-width="0.5"/>
<path d="M21.7817 80.6921C17.2817 80.6921 12.7817 81.1921 1.28168 78.1921V76.1921L5.28168 74.1921V72.6921L1.28168 72.1921C0.780762 70.6919 -0.219042 67.6919 1.78095 65.1919C1.2812 57.1919 1.7812 50.6919 3.78168 47.6916C36.2817 28.192 58.2817 34.1921 84.2817 29.6921C162.282 -25.308 244.282 11.6919 281.282 26.1921L294.782 28.1919L295.282 35.1919V38.1919C296.78 43.1919 298.115 47.6919 296.782 49.6919C299.282 50.6919 301.782 53.8586 301.782 55.6919L299.782 65.6919C300.234 76.5398 297.826 76.7641 288.494 77.0765C287.503 77.1097 285.434 77.1439 284.282 77.1919V78.6919L259.282 79.1229M21.7817 80.6921V83.6921H39.78L39.2817 79.1921M21.7817 80.6921V79.1921H39.2817M39.2817 79.1921C36.2817 37.6921 89.7817 40.6921 86.2817 79.6921V82.1919H212.782C206.782 38.6919 261.282 38.6919 259.282 79.1229M258.78 79.1229H259.282" stroke="black"/>
</svg>
