<svg width="303" height="96" viewBox="0 0 303 96" fill="none" xmlns="http://www.w3.org/2000/svg">
<circle cx="62.458" cy="74.1843" r="20.5" fill="#E0426F" stroke="black"/>
<circle cx="235.458" cy="74.1843" r="20.5" fill="#E0426F" stroke="black"/>
<path d="M132.456 12.6842L130.956 9.18418C170.956 1.18429 192.456 1.68433 231.456 13.1843L227.956 17.6843C207.956 9.68424 189.956 8.68423 173.956 8.1843C171.456 7.6843 167.456 7.68427 164.956 8.18418C154.956 8.1843 142.956 9.6843 132.456 12.6842Z" fill="#EFC7D3" stroke="black" stroke-width="0.5"/>
<path d="M130.956 9.18437L130.456 7.68437C166.456 -3.31567 198.956 0.6842 234.456 9.68437L231.456 13.1844C191.456 0.684326 165.456 2.18433 130.956 9.18437Z" fill="#EFC7D3" stroke="black" stroke-width="0.5"/>
<path d="M130.956 9.18431C182.456 -2.31571 210.956 7.68433 231.456 13.1843" stroke="black" stroke-width="0.5"/>
<path d="M170.458 30.1843L173.958 8.18433C207.458 9.18433 218.958 14.6843 223.458 16.1843L225.941 28.1843C198.951 28.185 181.456 29.6844 170.458 30.1843Z" fill="#EFC7D3"/>
<path d="M226.458 30.6843L223.458 16.1843C218.958 14.6843 207.458 9.18433 173.958 8.18433L170.458 30.1843C181.458 29.6843 198.958 28.1843 225.958 28.1843" stroke="black" stroke-width="0.5"/>
<path d="M164.958 8.18433C131.958 9.18433 111.958 18.1843 92.958 35.6843L95.458 33.6843L159.458 30.6843L164.958 8.18433Z" fill="#EFC7D3" stroke="black" stroke-width="0.5"/>
<path d="M239.456 22.6843C235.789 20.0177 229.956 17.6843 223.456 16.1843L225.956 28.1843H232.456C235.456 26.6843 238.456 24.4531 239.456 22.6843Z" fill="#EFC7D3" stroke="black" stroke-width="0.5"/>
<path d="M96.458 78.6843H163.458L197.958 77.1843H212.458L212.958 82.6843H198.958H97.958H86.458V78.6843H96.458Z" fill="#EFC7D3"/>
<path d="M96.458 78.6843H163.458L197.958 77.1843M96.458 78.6843C96.458 80.1843 96.958 81.1843 97.958 82.6843M96.458 78.6843H86.458V82.6843H97.958M197.958 77.1843L198.958 82.6843M197.958 77.1843H212.458L212.958 82.6843H198.958M198.958 82.6843H97.958" stroke="black" stroke-width="0.5"/>
<path d="M96.4571 78.6843C91.958 74.1843 88.9581 52.1843 92.9571 35.6843L164.958 31.6843C160.958 36.6843 159.958 70.6843 163.458 78.6843H96.4571Z" fill="#EFC7D3" stroke="black" stroke-width="0.5"/>
<path d="M228.458 30.6843L164.958 31.6843C160.958 36.6843 159.958 70.6843 163.458 78.6843L197.958 77.1843C202.458 75.6843 208.958 70.1843 228.458 30.6843Z" fill="#EFC7D3" stroke="black" stroke-width="0.5"/>
<path d="M170.458 30.1844C165.958 30.6844 162.458 30.6844 159.458 30.6844L164.958 8.1844C167.958 7.68433 170.958 7.68433 173.958 8.1844L170.458 30.1844Z" fill="#EFC7D3" stroke="black" stroke-width="0.5"/>
<path d="M98.958 32.1845C103.458 37.6845 110.458 34.1845 114.458 32.6845C115.458 17.1843 102.458 25.1843 98.958 32.1845Z" fill="#EFC7D3" stroke="black" stroke-width="0.5"/>
<path d="M234.456 9.68433L231.456 13.1843C248.456 18.6843 258.956 21.6843 271.456 28.1843H272.956L280.956 26.6843C265.956 20.1843 258.456 17.6843 234.456 9.68433Z" fill="#E56E90" stroke="black" stroke-width="0.5"/>
<path d="M271.456 28.1843C260.956 22.6843 241.956 16.1843 231.456 13.1843L229.456 15.6843L244.456 23.1843C242.956 25.6843 238.956 27.6843 232.956 30.3843C244.956 29.6843 261.956 28.6843 271.456 28.1843Z" fill="#E56E90" stroke="black" stroke-width="0.5"/>
<path d="M276.958 34.4843L282.956 32.1843L272.457 28.1843L228.457 30.6843C220.957 45.6843 205.957 76.1843 197.957 77.1843H212.457C210.957 66.1843 220.457 42.6843 245.458 51.6843C255.958 46.1843 265.958 40.6843 276.958 34.4843Z" fill="#E56E90" stroke="black" stroke-width="0.5"/>
<path d="M277.956 34.1844C265.956 40.6844 255.956 46.1844 245.456 51.6844C249.956 54.6843 260.456 60.6843 259.456 79.6843L284.456 79.1843V77.6843C292.956 76.6843 301.456 80.1843 299.956 66.1843L301.956 56.1843C301.956 54.6843 299.456 50.6843 296.956 50.1843C298.456 47.6843 295.456 38.6843 295.456 38.6843V37.1843L291.456 34.1843L286.456 32.6843L282.956 32.1843L277.956 34.1844Z" fill="#E56E90" stroke="black" stroke-width="0.5"/>
<path d="M280.956 26.6843L272.456 28.1843L282.956 32.1843C292.456 33.1843 291.455 34.6843 295.45 37.1045L294.956 28.6843L280.956 26.6843Z" fill="#E56E90"/>
<path d="M295.456 37.1843L295.45 37.1045M295.45 37.1045L294.956 28.6843L280.956 26.6843L272.456 28.1843L282.956 32.1843C292.456 33.1843 291.455 34.6843 295.45 37.1045Z" stroke="black" stroke-width="0.5"/>
<path d="M293.958 36.6845C293.458 34.1844 282.458 33.9843 276.958 34.4843" stroke="black" stroke-width="0.5"/>
<path d="M299.958 66.6843L260.458 68.6843C259.958 63.6843 257.791 59.5177 255.958 57.6843L301.958 55.1843M300.458 52.6843C289.458 51.1843 278.458 46.3843 266.458 40.3843M228.458 30.6843L272.458 28.1843L280.958 26.6843" stroke="black" stroke-width="0.5"/>
<path d="M290.458 40.6843C290.458 38.6843 289.458 34.6843 285.958 32.6843C288.179 32.6843 291.556 33.7247 294.067 36.0943C294.531 37.6243 293.458 41.1843 290.416 42.6843C290.403 42.094 290.458 41.4086 290.458 40.6843Z" fill="#E56E90"/>
<path d="M272.458 43.1843C279.454 43.5341 285.471 43.6392 290.851 44.1843M297.458 45.1843C295.355 44.7337 293.162 44.4184 290.851 44.1843M295.458 37.6843C295.04 37.0992 294.571 36.57 294.067 36.0943M290.851 44.1843C290.525 43.8396 290.431 43.3165 290.416 42.6843M290.416 42.6843C290.403 42.094 290.458 41.4086 290.458 40.6843C290.458 38.6843 289.458 34.6843 285.958 32.6843C288.179 32.6843 291.556 33.7247 294.067 36.0943M290.416 42.6843C293.458 41.1843 294.531 37.6243 294.067 36.0943" stroke="black" stroke-width="0.5"/>
<path d="M290.458 40.6843C285.958 40.6843 283.958 36.6843 282.958 34.1843" stroke="black" stroke-width="0.5"/>
<path d="M132.456 12.7843C118.956 16.7843 106.956 22.6843 92.9561 35.6843C99.9561 23.6843 115.456 14.1843 130.956 9.18433L132.456 12.7843Z" fill="#EFC7D3" stroke="black" stroke-width="0.5"/>
<path d="M130.956 9.18433C110.956 14.8584 92.9561 32.1843 84.9561 30.1843C97.9561 20.6843 113.956 12.1843 130.456 7.68433L130.956 9.18433Z" fill="#EFC7D3" stroke="black" stroke-width="0.5"/>
<path d="M9.95672 48.1843H3.95672C1.45605 52.1843 1.45605 62.1843 1.95672 65.6843C0.456055 66.6843 0.456652 71.1843 1.45672 72.6843L5.45672 73.1843V74.6843L1.45672 76.6843V78.6843C5.45672 79.6843 13.9567 81.6843 21.9567 81.1843V79.6843H39.4567C38.7901 71.1843 40.4567 60.6843 49.4567 53.6843C46.9567 49.6843 39.9567 45.1843 36.9567 44.6843C26.9567 43.6843 11.9567 46.1843 9.95672 48.1843Z" fill="#EFC7D3" stroke="black" stroke-width="0.5"/>
<path d="M92.958 35.6843C75.1247 36.5177 43.458 41.3843 32.958 44.3843L36.958 44.6843C41.958 46.1843 47.458 50.5177 49.458 53.6843C62.457 44.1843 87.957 51.1843 86.457 78.6843H96.457C89.457 67.6843 90.457 45.6843 92.958 35.6843Z" fill="#EFC7D3" stroke="black" stroke-width="0.5"/>
<path d="M9.95606 48.1844H3.95605C36.4562 28.6843 58.4563 34.6843 84.4561 30.1843L93.4563 35.6843C76.4563 36.6843 47.4561 40.1843 33.4561 44.3843C25.4561 44.1843 11.4561 46.1843 9.95606 48.1844Z" fill="#EFC7D3" stroke="black" stroke-width="0.5"/>
<path d="M36.9575 44.6844C29.4575 43.6843 12.4575 45.6843 9.95751 48.1844C9.15751 50.5843 12.2908 53.5177 13.9575 54.6843C23.4575 56.1843 36.9575 50.1843 36.9575 44.6844Z" fill="#EFC7D3" stroke="black" stroke-width="0.5"/>
<path d="M3.95675 48.1843C10.9568 49.1843 4.95675 59.6843 1.95675 64.6843C1.45668 57.6843 1.95654 52.1843 3.95675 48.1843Z" fill="#EFC7D3" stroke="black" stroke-width="0.5"/>
<path d="M21.9561 84.1843V79.6843H39.4561L39.9561 84.1843H21.9561Z" fill="#EFC7D3" stroke="black" stroke-width="0.5"/>
<path d="M2.45801 65.6843C3.95801 68.1843 5.95801 71.351 5.45801 73.1843M21.958 79.6843C11.458 80.1843 6.95801 76.1843 7.95801 72.6843C8.45801 72.1843 9.95801 70.6843 10.958 70.6843" stroke="black" stroke-width="0.5"/>
<path d="M31.958 74.6843C29.458 70.6843 23.958 65.6844 20.958 64.1844C19.208 63.6844 16.5829 63.8094 13.8328 64.1844C12.2079 65.5177 10.958 68.6843 11.458 71.6843C11.458 72.851 12.7654 75.1843 15.458 75.1843C19.958 75.1843 26.958 75.6843 31.958 74.6843Z" fill="#EFC7D3"/>
<path d="M5.95801 65.6844C8.20795 65.1844 11.0829 64.5594 13.8328 64.1844M13.8328 64.1844C16.5829 63.8094 19.208 63.6844 20.958 64.1844C23.958 65.6844 29.458 70.6843 31.958 74.6843C26.958 75.6843 19.958 75.1843 15.458 75.1843C12.7654 75.1843 11.458 72.851 11.458 71.6843C10.958 68.6843 12.2079 65.5177 13.8328 64.1844Z" stroke="black" stroke-width="0.5"/>
<path d="M11.458 71.1844C19.458 69.6844 22.958 72.3129 25.958 73.8129M12.958 74.1844L30.458 73.6844" stroke="black" stroke-width="0.5"/>
<path d="M21.9561 82.6843H31.4561C33.4561 82.6843 34.9561 80.6843 34.4561 79.6843M37.9561 79.6843V84.1843" stroke="black" stroke-width="0.5"/>
<path d="M21.958 81.1846C17.458 81.1846 12.958 81.6846 1.45795 78.6846V76.6846L5.45795 74.6846V73.1846L1.45795 72.6846C0.957031 71.1843 -0.0427729 68.1843 1.95722 65.6843C1.45747 57.6843 1.95747 51.1843 3.95795 48.1841C36.458 28.6845 58.4579 34.6845 84.4579 30.1845C162.458 -24.8156 244.458 12.1843 281.458 26.6845L294.958 28.6843L295.458 35.6843V38.6843C296.956 43.6843 298.291 48.1843 296.958 50.1843C299.458 51.1843 301.958 54.351 301.958 56.1843L299.958 66.1843C300.41 77.0322 298.002 77.2565 288.67 77.569C287.679 77.6021 285.61 77.6363 284.458 77.6843V79.1843L259.458 79.6154M21.958 81.1846V84.1846H39.9563L39.458 79.6846M21.958 81.1846V79.6846H39.458M39.458 79.6846C36.458 38.1846 89.9579 41.1846 86.4579 80.1846V82.6843H212.958C206.958 39.1843 261.458 39.1843 259.458 79.6154M258.956 79.6154H259.458" stroke="black"/>
</svg>
