<svg width="303" height="96" viewBox="0 0 303 96" fill="none" xmlns="http://www.w3.org/2000/svg">
<circle cx="62.2725" cy="74.5378" r="20.5" fill="#E56E90" stroke="black"/>
<circle cx="235.272" cy="74.5378" r="20.5" fill="#E56E90" stroke="black"/>
<path d="M132.271 13.0377L130.771 9.5377C170.771 1.53781 192.271 2.03784 231.271 13.5378L227.771 18.0378C207.771 10.0378 189.771 9.03775 173.771 8.53782C171.271 8.03782 167.271 8.03778 164.771 8.5377C154.771 8.53782 142.771 10.0378 132.271 13.0377Z" fill="#EDADBF" stroke="black" stroke-width="0.5"/>
<path d="M130.771 9.53789L130.271 8.03789C166.271 -2.96216 198.771 1.03772 234.271 10.0379L231.271 13.5379C191.271 1.03784 165.271 2.53784 130.771 9.53789Z" fill="#EDADBF" stroke="black" stroke-width="0.5"/>
<path d="M130.771 9.53771C182.271 -1.96232 210.771 8.03772 231.271 13.5377" stroke="black" stroke-width="0.5"/>
<path d="M170.272 30.5378L173.772 8.53784C207.272 9.53784 218.772 15.0378 223.272 16.5378L225.755 28.5378C198.765 28.5385 181.27 30.0379 170.272 30.5378Z" fill="#EDADBF"/>
<path d="M226.272 31.0378L223.272 16.5378C218.772 15.0378 207.272 9.53784 173.772 8.53784L170.272 30.5378C181.272 30.0378 198.772 28.5378 225.772 28.5378" stroke="black" stroke-width="0.5"/>
<path d="M164.772 8.53784C131.772 9.53784 111.772 18.5378 92.7725 36.0378L95.2725 34.0378L159.272 31.0378L164.772 8.53784Z" fill="#EDADBF" stroke="black" stroke-width="0.5"/>
<path d="M239.271 23.0378C235.604 20.3712 229.771 18.0378 223.271 16.5378L225.771 28.5378H232.271C235.271 27.0378 238.271 24.8066 239.271 23.0378Z" fill="#EDADBF" stroke="black" stroke-width="0.5"/>
<path d="M96.2725 79.0378H163.272L197.772 77.5378H212.272L212.772 83.0378H198.772H97.7725H86.2725V79.0378H96.2725Z" fill="#EDADBF"/>
<path d="M96.2725 79.0378H163.272L197.772 77.5378M96.2725 79.0378C96.2725 80.5378 96.7725 81.5378 97.7725 83.0378M96.2725 79.0378H86.2725V83.0378H97.7725M197.772 77.5378L198.772 83.0378M197.772 77.5378H212.272L212.772 83.0378H198.772M198.772 83.0378H97.7725" stroke="black" stroke-width="0.5"/>
<path d="M96.2716 79.0378C91.7725 74.5378 88.7725 52.5378 92.7716 36.0378L164.772 32.0378C160.772 37.0378 159.772 71.0378 163.272 79.0378H96.2716Z" fill="#EDADBF" stroke="black" stroke-width="0.5"/>
<path d="M228.272 31.0378L164.772 32.0378C160.773 37.0378 159.773 71.0378 163.272 79.0378L197.772 77.5378C202.272 76.0378 208.772 70.5378 228.272 31.0378Z" fill="#EDADBF" stroke="black" stroke-width="0.5"/>
<path d="M170.272 30.5379C165.772 31.0379 162.272 31.0379 159.272 31.0379L164.772 8.53792C167.772 8.03784 170.772 8.03784 173.772 8.53792L170.272 30.5379Z" fill="#EDADBF" stroke="black" stroke-width="0.5"/>
<path d="M98.7725 32.5379C103.272 38.0379 110.272 34.5379 114.272 33.0379C115.272 17.5377 102.272 25.5377 98.7725 32.5379Z" fill="#EDADBF" stroke="black" stroke-width="0.5"/>
<path d="M234.271 10.0378L231.271 13.5378C248.271 19.0378 258.771 22.0378 271.271 28.5378H272.771L280.771 27.0378C265.771 20.5378 258.271 18.0378 234.271 10.0378Z" fill="#EDADBF" stroke="black" stroke-width="0.5"/>
<path d="M271.271 28.5378C260.771 23.0378 241.771 16.5378 231.271 13.5378L229.271 16.0378L244.271 23.5378C242.771 26.0378 238.771 28.0378 232.771 30.7378C244.771 30.0378 261.771 29.0378 271.271 28.5378Z" fill="#EDADBF" stroke="black" stroke-width="0.5"/>
<path d="M276.772 34.8378L282.771 32.5378L272.271 28.5378L228.271 31.0378C220.771 46.0378 205.771 76.5378 197.771 77.5378H212.271C210.771 66.5378 220.271 43.0378 245.272 52.0378C255.772 46.5378 265.772 41.0378 276.772 34.8378Z" fill="#EDADBF" stroke="black" stroke-width="0.5"/>
<path d="M277.771 34.5379C265.771 41.0379 255.771 46.5379 245.271 52.0379C249.771 55.0378 260.271 61.0378 259.271 80.0378L284.271 79.5378V78.0378C292.771 77.0378 301.271 80.5378 299.771 66.5378L301.771 56.5378C301.771 55.0378 299.271 51.0378 296.771 50.5378C298.271 48.0378 295.271 39.0378 295.271 39.0378V37.5378L291.271 34.5378L286.271 33.0378L282.771 32.5378L277.771 34.5379Z" fill="#EDADBF" stroke="black" stroke-width="0.5"/>
<path d="M280.771 27.0378L272.271 28.5378L282.771 32.5378C292.271 33.5378 291.269 35.0378 295.265 37.458L294.771 29.0378L280.771 27.0378Z" fill="#EDADBF"/>
<path d="M295.271 37.5378L295.265 37.458M295.265 37.458L294.771 29.0378L280.771 27.0378L272.271 28.5378L282.771 32.5378C292.271 33.5378 291.269 35.0378 295.265 37.458Z" stroke="black" stroke-width="0.5"/>
<path d="M293.772 37.038C293.272 34.5379 282.272 34.3379 276.772 34.8379" stroke="black" stroke-width="0.5"/>
<path d="M299.772 67.0378L260.272 69.0378C259.772 64.0378 257.606 59.8712 255.772 58.0378L301.772 55.5378M300.272 53.0378C289.272 51.5378 278.272 46.7378 266.272 40.7378M228.272 31.0378L272.272 28.5378L280.772 27.0378" stroke="black" stroke-width="0.5"/>
<path d="M290.272 41.0378C290.272 39.0378 289.272 35.0378 285.772 33.0378C287.993 33.0378 291.37 34.0782 293.881 36.4478C294.345 37.9778 293.272 41.5378 290.231 43.0378C290.217 42.4476 290.272 41.7621 290.272 41.0378Z" fill="#EDADBF"/>
<path d="M272.272 43.5378C279.268 43.8876 285.285 43.9927 290.666 44.5378M297.272 45.5378C295.169 45.0872 292.976 44.7719 290.666 44.5378M295.272 38.0378C294.855 37.4527 294.385 36.9235 293.881 36.4478M290.666 44.5378C290.339 44.1931 290.245 43.67 290.231 43.0378M290.231 43.0378C290.217 42.4476 290.272 41.7621 290.272 41.0378C290.272 39.0378 289.272 35.0378 285.772 33.0378C287.993 33.0378 291.37 34.0782 293.881 36.4478M290.231 43.0378C293.272 41.5378 294.345 37.9778 293.881 36.4478" stroke="black" stroke-width="0.5"/>
<path d="M290.272 41.0378C285.772 41.0378 283.772 37.0378 282.772 34.5378" stroke="black" stroke-width="0.5"/>
<path d="M132.271 13.1378C118.771 17.1378 106.771 23.0378 92.7705 36.0378C99.7705 24.0378 115.271 14.5378 130.771 9.53784L132.271 13.1378Z" fill="#E0426F" stroke="black" stroke-width="0.5"/>
<path d="M130.771 9.53784C110.771 15.2119 92.7705 32.5378 84.7705 30.5378C97.7705 21.0378 113.771 12.5378 130.271 8.03784L130.771 9.53784Z" fill="#E0426F" stroke="black" stroke-width="0.5"/>
<path d="M9.77118 48.5377H3.77118C1.27051 52.5377 1.27051 62.5377 1.77118 66.0377C0.270508 67.0377 0.271105 71.5377 1.27118 73.0377L5.27118 73.5377V75.0377L1.27118 77.0377V79.0377C5.27118 80.0377 13.7712 82.0377 21.7712 81.5377V80.0377H39.2712C38.6045 71.5377 40.2712 61.0377 49.2712 54.0377C46.7712 50.0377 39.7712 45.5377 36.7712 45.0377C26.7712 44.0377 11.7712 46.5377 9.77118 48.5377Z" fill="#E0426F" stroke="black" stroke-width="0.5"/>
<path d="M92.7725 36.0378C74.9391 36.8712 43.2725 41.7378 32.7725 44.7378L36.7725 45.0378C41.7725 46.5378 47.2725 50.8712 49.2725 54.0378C62.2715 44.5378 87.7715 51.5378 86.2715 79.0378H96.2715C89.2715 68.0378 90.2715 46.0378 92.7725 36.0378Z" fill="#E0426F" stroke="black" stroke-width="0.5"/>
<path d="M9.77051 48.5379H3.77051C36.2707 29.0378 58.2708 35.0378 84.2705 30.5378L93.2708 36.0378C76.2708 37.0378 47.2705 40.5378 33.2705 44.7378C25.2705 44.5378 11.2705 46.5378 9.77051 48.5379Z" fill="#E0426F" stroke="black" stroke-width="0.5"/>
<path d="M36.772 45.0379C29.272 44.0378 12.272 46.0378 9.77196 48.5379C8.97196 50.9379 12.1053 53.8712 13.772 55.0378C23.272 56.5378 36.772 50.5378 36.772 45.0379Z" fill="#E0426F" stroke="black" stroke-width="0.5"/>
<path d="M3.7712 48.5378C10.7712 49.5378 4.7712 60.0378 1.7712 65.0378C1.27113 58.0378 1.771 52.5378 3.7712 48.5378Z" fill="#E0426F" stroke="black" stroke-width="0.5"/>
<path d="M21.7705 84.5378V80.0378H39.2705L39.7705 84.5378H21.7705Z" fill="#E0426F" stroke="black" stroke-width="0.5"/>
<path d="M2.27246 66.0376C3.77246 68.5376 5.77246 71.7043 5.27246 73.5376M21.7725 80.0376C11.2725 80.5376 6.77246 76.5376 7.77246 73.0376C8.27246 72.5376 9.77246 71.0376 10.7725 71.0376" stroke="black" stroke-width="0.5"/>
<path d="M31.7725 75.0377C29.2725 71.0377 23.7725 66.0378 20.7725 64.5378C19.0224 64.0378 16.3973 64.1628 13.6472 64.5378C12.0223 65.8711 10.7725 69.0377 11.2725 72.0377C11.2725 73.2044 12.5799 75.5377 15.2725 75.5377C19.7725 75.5377 26.7725 76.0377 31.7725 75.0377Z" fill="#E0426F"/>
<path d="M5.77246 66.0378C8.0224 65.5378 10.8973 64.9128 13.6472 64.5378M13.6472 64.5378C16.3973 64.1628 19.0224 64.0378 20.7725 64.5378C23.7725 66.0378 29.2725 71.0377 31.7725 75.0377C26.7725 76.0377 19.7725 75.5377 15.2725 75.5377C12.5799 75.5377 11.2725 73.2044 11.2725 72.0377C10.7725 69.0377 12.0223 65.8711 13.6472 64.5378Z" stroke="black" stroke-width="0.5"/>
<path d="M11.2725 71.5378C19.2725 70.0378 22.7725 72.6663 25.7725 74.1663M12.7725 74.5378L30.2725 74.0378" stroke="black" stroke-width="0.5"/>
<path d="M21.7705 83.0376H31.2705C33.2705 83.0376 34.7705 81.0376 34.2705 80.0376M37.7705 80.0376V84.5376" stroke="black" stroke-width="0.5"/>
<path d="M21.7724 81.5381C17.2724 81.5381 12.7724 82.0381 1.27241 79.0381V77.0381L5.27241 75.0381V73.5381L1.27241 73.0381C0.771484 71.5378 -0.22832 68.5378 1.77168 66.0378C1.27192 58.0378 1.77192 51.5378 3.77241 48.5376C36.2724 29.038 58.2724 35.038 84.2724 30.538C162.272 -24.4621 244.272 12.5378 281.272 27.038L294.772 29.0378L295.272 36.0378V39.0378C296.771 44.0378 298.106 48.5378 296.772 50.5378C299.272 51.5378 301.772 54.7045 301.772 56.5378L299.772 66.5378C300.224 77.3858 297.816 77.61 288.485 77.9225C287.494 77.9557 285.425 77.9898 284.272 78.0378V79.5378L259.272 79.9689M21.7724 81.5381V84.5381H39.7708L39.2724 80.0381M21.7724 81.5381V80.0381H39.2724M39.2724 80.0381C36.2724 38.5381 89.7724 41.5381 86.2724 80.5381V83.0378H212.772C206.772 39.5378 261.272 39.5378 259.272 79.9689M258.771 79.9689H259.272" stroke="black"/>
</svg>
