<svg width="303" height="95" viewBox="0 0 303 95" fill="none" xmlns="http://www.w3.org/2000/svg">
<circle cx="62.6978" cy="73.8611" r="20.5" stroke="black"/>
<circle cx="235.698" cy="73.8611" r="20.5" stroke="black"/>
<path d="M132.696 12.3609L131.196 8.86094C171.196 0.861052 192.696 1.36108 231.696 12.861L228.196 17.361C208.196 9.36099 190.196 8.36099 174.196 7.86106C171.696 7.36106 167.696 7.36102 165.196 7.86094C155.196 7.86106 143.196 9.36106 132.696 12.3609Z" fill="#EDADBF" stroke="black" stroke-width="0.5"/>
<path d="M131.196 8.86113L130.696 7.36113C166.696 -3.63892 199.196 0.360958 234.696 9.36113L231.696 12.8611C191.696 0.361084 165.696 1.86108 131.196 8.86113Z" fill="#EDADBF" stroke="black" stroke-width="0.5"/>
<path d="M131.196 8.86095C182.696 -2.63908 211.196 7.36096 231.696 12.8609" stroke="black" stroke-width="0.5"/>
<path d="M170.698 29.8611L174.198 7.86108C207.698 8.86108 219.198 14.3611 223.698 15.8611L226.181 27.8611C199.19 27.8617 181.695 29.3612 170.698 29.8611Z" fill="#EDADBF"/>
<path d="M226.698 30.3611L223.698 15.8611C219.198 14.3611 207.698 8.86108 174.198 7.86108L170.698 29.8611C181.698 29.3611 199.198 27.8611 226.198 27.8611" stroke="black" stroke-width="0.5"/>
<path d="M165.198 7.86108C132.198 8.86108 112.198 17.8611 93.1978 35.3611L95.6978 33.3611L159.698 30.3611L165.198 7.86108Z" fill="#EDADBF" stroke="black" stroke-width="0.5"/>
<path d="M239.696 22.3611C236.03 19.6944 230.196 17.3611 223.696 15.8611L226.196 27.8611H232.696C235.696 26.3611 238.696 24.1298 239.696 22.3611Z" fill="#EDADBF" stroke="black" stroke-width="0.5"/>
<path d="M96.6978 78.3611H163.698L198.198 76.8611H212.698L213.198 82.3611H199.198H98.1978H86.6978V78.3611H96.6978Z" fill="#EDADBF"/>
<path d="M96.6978 78.3611H163.698L198.198 76.8611M96.6978 78.3611C96.6978 79.8611 97.1978 80.8611 98.1978 82.3611M96.6978 78.3611H86.6978V82.3611H98.1978M198.198 76.8611L199.198 82.3611M198.198 76.8611H212.698L213.198 82.3611H199.198M199.198 82.3611H98.1978" stroke="black" stroke-width="0.5"/>
<path d="M96.6969 78.3611C92.1977 73.8611 89.1978 51.8611 93.1969 35.3611L165.198 31.3611C161.198 36.3611 160.198 70.3611 163.698 78.3611H96.6969Z" fill="#EDADBF" stroke="black" stroke-width="0.5"/>
<path d="M228.697 30.3611L165.197 31.3611C161.197 36.3611 160.198 70.3611 163.697 78.3611L198.197 76.8611C202.697 75.3611 209.197 69.8611 228.697 30.3611Z" fill="#EDADBF" stroke="black" stroke-width="0.5"/>
<path d="M170.698 29.8612C166.198 30.3612 162.698 30.3612 159.698 30.3612L165.198 7.86116C168.198 7.36108 171.198 7.36108 174.198 7.86116L170.698 29.8612Z" fill="#EDADBF" stroke="black" stroke-width="0.5"/>
<path d="M99.1978 31.8611C103.698 37.3611 110.698 33.8611 114.698 32.3611C115.698 16.861 102.698 24.861 99.1978 31.8611Z" fill="#EDADBF" stroke="black" stroke-width="0.5"/>
<path d="M234.696 9.36108L231.696 12.8611C248.696 18.3611 259.196 21.3611 271.696 27.8611H273.196L281.196 26.3611C266.196 19.8611 258.696 17.3611 234.696 9.36108Z" stroke="black" stroke-width="0.5"/>
<path d="M271.696 27.8611C261.196 22.3611 242.196 15.8611 231.696 12.8611L229.696 15.3611L244.696 22.8611C243.196 25.3611 239.196 27.3611 233.196 30.0611C245.196 29.3611 262.196 28.3611 271.696 27.8611Z" stroke="black" stroke-width="0.5"/>
<path d="M277.198 34.1611L283.196 31.8611L272.697 27.8611L228.697 30.3611C221.197 45.3611 206.197 75.8611 198.197 76.8611H212.697C211.197 65.8611 220.697 42.3611 245.698 51.3611C256.198 45.8611 266.198 40.3611 277.198 34.1611Z" stroke="black" stroke-width="0.5"/>
<path d="M278.196 33.8611C266.196 40.3611 256.196 45.8611 245.696 51.3611C250.196 54.3611 260.696 60.3611 259.696 79.3611L284.696 78.8611V77.3611C293.196 76.3611 301.696 79.8611 300.196 65.8611L302.196 55.8611C302.196 54.3611 299.696 50.3611 297.196 49.8611C298.696 47.3611 295.696 38.3611 295.696 38.3611V36.8611L291.696 33.8611L286.696 32.3611L283.196 31.8611L278.196 33.8611Z" stroke="black" stroke-width="0.5"/>
<path d="M295.696 36.8611L295.69 36.7813M295.69 36.7813L295.196 28.3611L281.196 26.3611L272.696 27.8611L283.196 31.8611C292.696 32.8611 291.695 34.3611 295.69 36.7813Z" stroke="black" stroke-width="0.5"/>
<path d="M294.198 36.3613C293.698 33.8612 282.698 33.6611 277.198 34.1611" stroke="black" stroke-width="0.5"/>
<path d="M300.198 66.3611L260.698 68.3611C260.198 63.3611 258.031 59.1944 256.198 57.3611L302.198 54.8611M300.698 52.3611C289.698 50.8611 278.698 46.0611 266.698 40.0611M228.698 30.3611L272.698 27.8611L281.198 26.3611" stroke="black" stroke-width="0.5"/>
<path d="M272.698 42.8611C279.693 43.2109 285.71 43.316 291.091 43.8611M297.698 44.8611C295.595 44.4104 293.402 44.0952 291.091 43.8611M295.698 37.3611C295.28 36.776 294.811 36.2467 294.307 35.7711M291.091 43.8611C290.765 43.5163 290.671 42.9933 290.656 42.3611M290.656 42.3611C290.642 41.7708 290.698 41.0854 290.698 40.3611C290.698 38.3611 289.698 34.3611 286.198 32.3611C288.419 32.3611 291.795 33.4015 294.307 35.7711M290.656 42.3611C293.698 40.8611 294.77 37.3011 294.307 35.7711" stroke="black" stroke-width="0.5"/>
<path d="M290.698 40.3611C286.198 40.3611 284.198 36.3611 283.198 33.8611" stroke="black" stroke-width="0.5"/>
<path d="M132.696 12.4611C119.196 16.4611 107.196 22.3611 93.1963 35.3611C100.196 23.3611 115.696 13.8611 131.196 8.86108L132.696 12.4611Z" stroke="black" stroke-width="0.5"/>
<path d="M131.196 8.86108C111.196 14.5351 93.1963 31.8611 85.1963 29.8611C98.1963 20.3611 114.196 11.8611 130.696 7.36108L131.196 8.86108Z" stroke="black" stroke-width="0.5"/>
<path d="M10.197 47.861H4.19696C1.69629 51.861 1.69629 61.861 2.19696 65.361C0.696289 66.361 0.696887 70.861 1.69696 72.361L5.69696 72.861V74.361L1.69696 76.361V78.361C5.69696 79.361 14.197 81.361 22.197 80.861V79.361H39.697C39.0303 70.861 40.697 60.361 49.697 53.361C47.197 49.361 40.197 44.861 37.197 44.361C27.197 43.361 12.197 45.861 10.197 47.861Z" stroke="black" stroke-width="0.5"/>
<path d="M93.1978 35.3611C75.3644 36.1944 43.6978 41.0611 33.1978 44.0611L37.1978 44.3611C42.1978 45.8611 47.6978 50.1944 49.6978 53.3611C62.6968 43.8611 88.1968 50.8611 86.6968 78.3611H96.6968C89.6968 67.3611 90.6968 45.3611 93.1978 35.3611Z" stroke="black" stroke-width="0.5"/>
<path d="M10.1963 47.8611H4.19629C36.6965 28.361 58.6965 34.3611 84.6963 29.8611L93.6965 35.3611C76.6965 36.3611 47.6963 39.8611 33.6963 44.0611C25.6963 43.8611 11.6963 45.8611 10.1963 47.8611Z" stroke="black" stroke-width="0.5"/>
<path d="M37.1977 44.3612C29.6977 43.3611 12.6977 45.3611 10.1977 47.8612C9.39774 50.2611 12.5311 53.1944 14.1977 54.3611C23.6978 55.8611 37.1977 49.8611 37.1977 44.3612Z" stroke="black" stroke-width="0.5"/>
<path d="M4.19698 47.8611C11.197 48.8611 5.19698 59.3611 2.19698 64.3611C1.69691 57.3611 2.19678 51.8611 4.19698 47.8611Z" stroke="black" stroke-width="0.5"/>
<path d="M22.1963 83.8611V79.3611H39.6963L40.1963 83.8611H22.1963Z" stroke="black" stroke-width="0.5"/>
<path d="M2.69824 65.3608C4.19824 67.8608 6.19824 71.0275 5.69824 72.8608M22.1982 79.3608C11.6982 79.8608 7.19824 75.8608 8.19824 72.3608C8.69824 71.8608 10.1982 70.3608 11.1982 70.3608" stroke="black" stroke-width="0.5"/>
<path d="M6.19824 65.361C8.44818 64.861 11.3231 64.236 14.073 63.861M14.073 63.861C16.8231 63.486 19.4482 63.361 21.1982 63.861C24.1982 65.361 29.6982 70.361 32.1982 74.361C27.1982 75.361 20.1982 74.861 15.6982 74.861C13.0057 74.861 11.6982 72.5276 11.6982 71.361C11.1982 68.361 12.4481 65.1943 14.073 63.861Z" stroke="black" stroke-width="0.5"/>
<path d="M11.6982 70.861C19.6982 69.3611 23.1982 71.9896 26.1982 73.4896M13.1982 73.8611L30.6982 73.3611" stroke="black" stroke-width="0.5"/>
<path d="M22.1963 82.3608H31.6963C33.6963 82.3608 35.1963 80.3608 34.6963 79.3608M38.1963 79.3608V83.8608" stroke="black" stroke-width="0.5"/>
<path d="M22.1977 80.8613C17.6977 80.8613 13.1977 81.3613 1.6977 78.3613V76.3613L5.6977 74.3613V72.8613L1.6977 72.3613C1.19678 70.8611 0.196973 67.8611 2.19697 65.3611C1.69721 57.3611 2.19721 50.8611 4.1977 47.8608C36.6977 28.3612 58.6977 34.3613 84.6977 29.8613C162.698 -25.1388 244.698 11.8611 281.698 26.3613L295.198 28.3611L295.698 35.3611V38.3611C297.196 43.3611 298.531 47.8611 297.198 49.8611C299.698 50.8611 302.198 54.0278 302.198 55.8611L300.198 65.8611C300.65 76.709 298.242 76.9333 288.91 77.2457C287.919 77.2789 285.85 77.3131 284.698 77.3611V78.8611L259.698 79.2921M22.1977 80.8613V83.8613H40.196L39.6977 79.3613M22.1977 80.8613V79.3613H39.6977M39.6977 79.3613C36.6977 37.8613 90.1977 40.8613 86.6977 79.8613V82.3611H213.198C207.198 38.8611 261.698 38.8611 259.698 79.2921M259.196 79.2921H259.698" stroke="black"/>
</svg>
