<svg width="303" height="95" viewBox="0 0 303 95" fill="none" xmlns="http://www.w3.org/2000/svg">
<circle cx="62.8853" cy="73.7222" r="20.5" fill="#EFC7D3" stroke="black"/>
<circle cx="235.885" cy="73.7222" r="20.5" fill="#EFC7D3" stroke="black"/>
<path d="M132.884 12.222L131.384 8.72202C171.384 0.722136 192.884 1.22217 231.884 12.7221L228.384 17.2221C208.384 9.22208 190.384 8.22208 174.384 7.72215C171.884 7.22215 167.884 7.22211 165.384 7.72202C155.384 7.72215 143.384 9.22215 132.884 12.222Z" fill="#E0426F" stroke="black" stroke-width="0.5"/>
<path d="M131.384 8.72221L130.884 7.22221C166.884 -3.77783 199.384 0.222042 234.884 9.22221L231.884 12.7222C191.884 0.222168 165.884 1.72217 131.384 8.72221Z" fill="#E0426F" stroke="black" stroke-width="0.5"/>
<path d="M131.384 8.72228C182.884 -2.77775 211.384 7.22229 231.884 12.7223" stroke="black" stroke-width="0.5"/>
<path d="M170.885 29.7222L174.385 7.72217C207.885 8.72217 219.385 14.2222 223.885 15.7222L226.368 27.7222C199.378 27.7228 181.883 29.2223 170.885 29.7222Z" fill="#E0426F"/>
<path d="M226.885 30.2222L223.885 15.7222C219.385 14.2222 207.885 8.72217 174.385 7.72217L170.885 29.7222C181.885 29.2222 199.385 27.7222 226.385 27.7222" stroke="black" stroke-width="0.5"/>
<path d="M165.385 7.72217C132.385 8.72217 112.385 17.7222 93.3853 35.2222L95.8853 33.2222L159.885 30.2222L165.385 7.72217Z" fill="#E0426F" stroke="black" stroke-width="0.5"/>
<path d="M239.884 22.2222C236.217 19.5555 230.384 17.2222 223.884 15.7222L226.384 27.7222H232.884C235.884 26.2222 238.884 23.9909 239.884 22.2222Z" fill="#E0426F" stroke="black" stroke-width="0.5"/>
<path d="M96.8853 78.2222H163.885L198.385 76.7222H212.885L213.385 82.2222H199.385H98.3853H86.8853V78.2222H96.8853Z" fill="#E0426F"/>
<path d="M96.8853 78.2222H163.885L198.385 76.7222M96.8853 78.2222C96.8853 79.7222 97.3853 80.7222 98.3853 82.2222M96.8853 78.2222H86.8853V82.2222H98.3853M198.385 76.7222L199.385 82.2222M198.385 76.7222H212.885L213.385 82.2222H199.385M199.385 82.2222H98.3853" stroke="black" stroke-width="0.5"/>
<path d="M96.8844 78.2222C92.3852 73.7222 89.3853 51.7222 93.3844 35.2222L165.385 31.2222C161.385 36.2222 160.385 70.2222 163.885 78.2222H96.8844Z" fill="#E0426F" stroke="black" stroke-width="0.5"/>
<path d="M228.885 30.2222L165.385 31.2222C161.385 36.2222 160.385 70.2222 163.885 78.2222L198.385 76.7222C202.885 75.2222 209.385 69.7222 228.885 30.2222Z" fill="#E0426F" stroke="black" stroke-width="0.5"/>
<path d="M170.885 29.7222C166.385 30.2222 162.885 30.2222 159.885 30.2222L165.385 7.72224C168.385 7.22217 171.385 7.22217 174.385 7.72224L170.885 29.7222Z" fill="#E0426F" stroke="black" stroke-width="0.5"/>
<path d="M99.3853 31.7224C103.885 37.2224 110.885 33.7224 114.885 32.2224C115.885 16.7223 102.885 24.7223 99.3853 31.7224Z" fill="#E0426F" stroke="black" stroke-width="0.5"/>
<path d="M234.884 9.22217L231.884 12.7222C248.884 18.2222 259.384 21.2222 271.884 27.7222H273.384L281.384 26.2222C266.384 19.7222 258.884 17.2222 234.884 9.22217Z" fill="#EFC7D3" stroke="black" stroke-width="0.5"/>
<path d="M271.884 27.7222C261.384 22.2222 242.384 15.7222 231.884 12.7222L229.884 15.2222L244.884 22.7222C243.384 25.2222 239.384 27.2222 233.384 29.9222C245.384 29.2222 262.384 28.2222 271.884 27.7222Z" fill="#EFC7D3" stroke="black" stroke-width="0.5"/>
<path d="M277.385 34.0222L283.384 31.7222L272.884 27.7222L228.884 30.2222C221.384 45.2222 206.384 75.7222 198.384 76.7222H212.884C211.384 65.7222 220.884 42.2222 245.885 51.2222C256.385 45.7222 266.385 40.2222 277.385 34.0222Z" fill="#EFC7D3" stroke="black" stroke-width="0.5"/>
<path d="M278.384 33.7222C266.384 40.2222 256.384 45.7222 245.884 51.2222C250.384 54.2222 260.884 60.2222 259.884 79.2222L284.884 78.7222V77.2222C293.384 76.2222 301.884 79.7222 300.384 65.7222L302.384 55.7222C302.384 54.2222 299.884 50.2222 297.384 49.7222C298.884 47.2222 295.884 38.2222 295.884 38.2222V36.7222L291.884 33.7222L286.884 32.2222L283.384 31.7222L278.384 33.7222Z" fill="#EFC7D3" stroke="black" stroke-width="0.5"/>
<path d="M281.384 26.2222L272.884 27.7222L283.384 31.7222C292.884 32.7222 291.883 34.2222 295.878 36.6423L295.384 28.2222L281.384 26.2222Z" fill="#EFC7D3"/>
<path d="M295.884 36.7222L295.878 36.6423M295.878 36.6423L295.384 28.2222L281.384 26.2222L272.884 27.7222L283.384 31.7222C292.884 32.7222 291.883 34.2222 295.878 36.6423Z" stroke="black" stroke-width="0.5"/>
<path d="M294.385 36.2224C293.885 33.7223 282.885 33.5222 277.385 34.0222" stroke="black" stroke-width="0.5"/>
<path d="M300.385 66.2222L260.885 68.2222C260.385 63.2222 258.219 59.0555 256.385 57.2222L302.385 54.7222M300.885 52.2222C289.885 50.7222 278.885 45.9222 266.885 39.9222M228.885 30.2222L272.885 27.7222L281.385 26.2222" stroke="black" stroke-width="0.5"/>
<path d="M290.885 40.2222C290.885 38.2222 289.885 34.2222 286.385 32.2222C288.606 32.2222 291.983 33.2626 294.494 35.6322C294.958 37.1622 293.885 40.7222 290.843 42.2222C290.83 41.6319 290.885 40.9465 290.885 40.2222Z" fill="#EFC7D3"/>
<path d="M272.885 42.7222C279.881 43.072 285.898 43.177 291.278 43.7222M297.885 44.7222C295.782 44.2715 293.589 43.9563 291.278 43.7222M295.885 37.2222C295.467 36.637 294.998 36.1078 294.494 35.6322M291.278 43.7222C290.952 43.3774 290.858 42.8544 290.843 42.2222M290.843 42.2222C290.83 41.6319 290.885 40.9465 290.885 40.2222C290.885 38.2222 289.885 34.2222 286.385 32.2222C288.606 32.2222 291.983 33.2626 294.494 35.6322M290.843 42.2222C293.885 40.7222 294.958 37.1622 294.494 35.6322" stroke="black" stroke-width="0.5"/>
<path d="M290.885 40.2222C286.385 40.2222 284.385 36.2222 283.385 33.7222" stroke="black" stroke-width="0.5"/>
<path d="M132.884 12.3221C119.384 16.3221 107.384 22.2222 93.3838 35.2222C100.384 23.2222 115.884 13.7222 131.384 8.72217L132.884 12.3221Z" fill="#EFC7D3" stroke="black" stroke-width="0.5"/>
<path d="M131.384 8.72217C111.384 14.3962 93.3838 31.7222 85.3838 29.7222C98.3838 20.2222 114.384 11.7222 130.884 7.22217L131.384 8.72217Z" fill="#EFC7D3" stroke="black" stroke-width="0.5"/>
<path d="M10.3845 47.7221H4.38446C1.88379 51.722 1.88379 61.722 2.38446 65.222C0.883789 66.222 0.884387 70.722 1.88446 72.222L5.88446 72.722V74.222L1.88446 76.222V78.222C5.88446 79.222 14.3845 81.222 22.3845 80.722V79.222H39.8845C39.2178 70.722 40.8845 60.222 49.8845 53.222C47.3845 49.222 40.3845 44.722 37.3845 44.2221C27.3845 43.222 12.3845 45.7221 10.3845 47.7221Z" fill="#EFC7D3" stroke="black" stroke-width="0.5"/>
<path d="M93.3853 35.2222C75.5519 36.0555 43.8853 40.9222 33.3853 43.9222L37.3853 44.2222C42.3853 45.7222 47.8853 50.0555 49.8853 53.2222C62.8843 43.7222 88.3843 50.7222 86.8843 78.2222H96.8843C89.8843 67.2222 90.8843 45.2222 93.3853 35.2222Z" fill="#EFC7D3" stroke="black" stroke-width="0.5"/>
<path d="M10.3838 47.7222H4.38379C36.884 28.2221 58.884 34.2222 84.8838 29.7222L93.884 35.2222C76.884 36.2222 47.8838 39.7222 33.8838 43.9222C25.8838 43.7222 11.8838 45.7222 10.3838 47.7222Z" fill="#EFC7D3" stroke="black" stroke-width="0.5"/>
<path d="M37.3852 44.2222C29.8852 43.2222 12.8852 45.2222 10.3852 47.7222C9.58524 50.1222 12.7186 53.0555 14.3852 54.2222C23.8853 55.7222 37.3852 49.7222 37.3852 44.2222Z" fill="#EFC7D3" stroke="black" stroke-width="0.5"/>
<path d="M4.38448 47.7222C11.3845 48.7222 5.38448 59.2222 2.38448 64.2222C1.88441 57.2222 2.38428 51.7222 4.38448 47.7222Z" fill="#EFC7D3" stroke="black" stroke-width="0.5"/>
<path d="M22.3838 83.7222V79.2222H39.8838L40.3838 83.7222H22.3838Z" fill="#EFC7D3" stroke="black" stroke-width="0.5"/>
<path d="M2.88574 65.2222C4.38574 67.7222 6.38574 70.8888 5.88574 72.7222M22.3857 79.2222C11.8857 79.7222 7.38574 75.7222 8.38574 72.2222C8.88574 71.7222 10.3857 70.2222 11.3857 70.2222" stroke="black" stroke-width="0.5"/>
<path d="M32.3857 74.2223C29.8857 70.2223 24.3857 65.2224 21.3857 63.7224C19.6357 63.2224 17.0106 63.3474 14.2605 63.7224C12.6356 65.0557 11.3857 68.2223 11.8857 71.2223C11.8857 72.389 13.1932 74.7223 15.8857 74.7223C20.3857 74.7223 27.3857 75.2223 32.3857 74.2223Z" fill="#EFC7D3"/>
<path d="M6.38574 65.2224C8.63568 64.7223 11.5106 64.0974 14.2605 63.7224M14.2605 63.7224C17.0106 63.3474 19.6357 63.2224 21.3857 63.7224C24.3857 65.2224 29.8857 70.2223 32.3857 74.2223C27.3857 75.2223 20.3857 74.7223 15.8857 74.7223C13.1932 74.7223 11.8857 72.389 11.8857 71.2223C11.3857 68.2223 12.6356 65.0557 14.2605 63.7224Z" stroke="black" stroke-width="0.5"/>
<path d="M11.8857 70.7224C19.8857 69.2224 23.3857 71.8509 26.3857 73.3509M13.3857 73.7224L30.8857 73.2224" stroke="black" stroke-width="0.5"/>
<path d="M22.3838 82.2222H31.8838C33.8838 82.2222 35.3838 80.2222 34.8838 79.2222M38.3838 79.2222V83.7222" stroke="black" stroke-width="0.5"/>
<path d="M22.3852 80.7224C17.8852 80.7224 13.3852 81.2224 1.8852 78.2224V76.2224L5.8852 74.2224V72.7224L1.8852 72.2224C1.38428 70.7222 0.384473 67.7222 2.38447 65.2222C1.88471 57.2222 2.38471 50.7222 4.3852 47.7219C36.8852 28.2223 58.8852 34.2224 84.8852 29.7224C162.885 -25.2778 244.885 11.7222 281.885 26.2223L295.385 28.2222L295.885 35.2222V38.2222C297.384 43.2222 298.719 47.7222 297.385 49.7222C299.885 50.7222 302.385 53.8888 302.385 55.7222L300.385 65.7222C300.837 76.5701 298.429 76.7944 289.098 77.1068C288.106 77.14 286.037 77.1742 284.885 77.2222V78.7222L259.885 79.1532M22.3852 80.7224V83.7224H40.3835L39.8852 79.2224M22.3852 80.7224V79.2224H39.8852M39.8852 79.2224C36.8852 37.7224 90.3852 40.7224 86.8852 79.7224V82.2222H213.385C207.385 38.7222 261.885 38.7222 259.885 79.1532M259.384 79.1532H259.885" stroke="black"/>
</svg>
