<svg width="303" height="95" viewBox="0 0 303 95" fill="none" xmlns="http://www.w3.org/2000/svg">
<circle cx="62.2915" cy="73.8762" r="20.5" fill="#E56E90" stroke="black"/>
<circle cx="235.292" cy="73.8762" r="20.5" fill="#E56E90" stroke="black"/>
<path d="M132.29 12.3761L130.79 8.87608C170.79 0.876188 192.29 1.37622 231.29 12.8762L227.79 17.3762C207.79 9.37613 189.79 8.37613 173.79 7.8762C171.29 7.3762 167.29 7.37616 164.79 7.87608C154.79 7.8762 142.79 9.3762 132.29 12.3761Z" fill="#E56E90" stroke="black" stroke-width="0.5"/>
<path d="M130.79 8.87627L130.29 7.37626C166.29 -3.62378 198.79 0.376095 234.29 9.37627L231.29 12.8763C191.29 0.376221 165.29 1.87622 130.79 8.87627Z" fill="#E56E90" stroke="black" stroke-width="0.5"/>
<path d="M130.79 8.87609C182.29 -2.62394 210.79 7.3761 231.29 12.8761" stroke="black" stroke-width="0.5"/>
<path d="M170.292 29.8762L173.792 7.87622C207.292 8.87622 218.792 14.3762 223.292 15.8762L225.774 27.8762C198.784 27.8769 181.289 29.3763 170.292 29.8762Z" fill="#E56E90"/>
<path d="M226.292 30.3762L223.292 15.8762C218.792 14.3762 207.292 8.87622 173.792 7.87622L170.292 29.8762C181.292 29.3762 198.792 27.8762 225.792 27.8762" stroke="black" stroke-width="0.5"/>
<path d="M164.792 7.87622C131.792 8.87622 111.792 17.8762 92.7915 35.3762L95.2915 33.3762L159.292 30.3762L164.792 7.87622Z" fill="#E56E90" stroke="black" stroke-width="0.5"/>
<path d="M239.29 22.3762C235.623 19.7096 229.79 17.3762 223.29 15.8762L225.79 27.8762H232.29C235.29 26.3762 238.29 24.145 239.29 22.3762Z" fill="#E56E90" stroke="black" stroke-width="0.5"/>
<path d="M96.2915 78.3762H163.292L197.792 76.8762H212.292L212.792 82.3762H198.792H97.7915H86.2915V78.3762H96.2915Z" fill="#E56E90"/>
<path d="M96.2915 78.3762H163.292L197.792 76.8762M96.2915 78.3762C96.2915 79.8762 96.7915 80.8762 97.7915 82.3762M96.2915 78.3762H86.2915V82.3762H97.7915M197.792 76.8762L198.792 82.3762M197.792 76.8762H212.292L212.792 82.3762H198.792M198.792 82.3762H97.7915" stroke="black" stroke-width="0.5"/>
<path d="M96.2906 78.3762C91.7915 73.8762 88.7915 51.8762 92.7906 35.3762L164.792 31.3762C160.792 36.3762 159.792 70.3762 163.291 78.3762H96.2906Z" fill="#E56E90" stroke="black" stroke-width="0.5"/>
<path d="M228.291 30.3762L164.791 31.3762C160.791 36.3762 159.791 70.3762 163.291 78.3762L197.791 76.8762C202.291 75.3762 208.791 69.8762 228.291 30.3762Z" fill="#E56E90" stroke="black" stroke-width="0.5"/>
<path d="M170.292 29.8763C165.792 30.3763 162.292 30.3763 159.292 30.3763L164.792 7.87629C167.792 7.37622 170.792 7.37622 173.792 7.87629L170.292 29.8763Z" fill="#E56E90" stroke="black" stroke-width="0.5"/>
<path d="M98.7915 31.8762C103.292 37.3762 110.292 33.8762 114.292 32.3762C115.292 16.8761 102.292 24.8761 98.7915 31.8762Z" fill="#E56E90" stroke="black" stroke-width="0.5"/>
<path d="M234.29 9.37622L231.29 12.8762C248.29 18.3762 258.79 21.3762 271.29 27.8762H272.79L280.79 26.3762C265.79 19.8762 258.29 17.3762 234.29 9.37622Z" stroke="black" stroke-width="0.5"/>
<path d="M271.29 27.8762C260.79 22.3762 241.79 15.8762 231.29 12.8762L229.29 15.3762L244.29 22.8762C242.79 25.3762 238.79 27.3762 232.79 30.0762C244.79 29.3762 261.79 28.3762 271.29 27.8762Z" stroke="black" stroke-width="0.5"/>
<path d="M276.792 34.1762L282.79 31.8762L272.291 27.8762L228.291 30.3762C220.791 45.3762 205.791 75.8762 197.791 76.8762H212.291C210.791 65.8762 220.291 42.3762 245.292 51.3762C255.792 45.8762 265.792 40.3762 276.792 34.1762Z" stroke="black" stroke-width="0.5"/>
<path d="M277.79 33.8762C265.79 40.3762 255.79 45.8762 245.29 51.3762C249.79 54.3762 260.29 60.3762 259.29 79.3762L284.29 78.8762V77.3762C292.79 76.3762 301.29 79.8762 299.79 65.8762L301.79 55.8762C301.79 54.3762 299.29 50.3762 296.79 49.8762C298.29 47.3762 295.29 38.3762 295.29 38.3762V36.8762L291.29 33.8762L286.29 32.3762L282.79 31.8762L277.79 33.8762Z" stroke="black" stroke-width="0.5"/>
<path d="M295.29 36.8762L295.284 36.7964M295.284 36.7964L294.79 28.3762L280.79 26.3762L272.29 27.8762L282.79 31.8762C292.29 32.8762 291.289 34.3762 295.284 36.7964Z" stroke="black" stroke-width="0.5"/>
<path d="M293.792 36.3764C293.292 33.8763 282.292 33.6762 276.792 34.1762" stroke="black" stroke-width="0.5"/>
<path d="M299.792 66.3762L260.292 68.3762C259.792 63.3762 257.625 59.2096 255.792 57.3762L301.792 54.8762M300.292 52.3762C289.292 50.8762 278.292 46.0762 266.292 40.0762M228.292 30.3762L272.292 27.8762L280.792 26.3762" stroke="black" stroke-width="0.5"/>
<path d="M272.292 42.8762C279.287 43.226 285.304 43.3311 290.685 43.8762M297.292 44.8762C295.189 44.4256 292.995 44.1103 290.685 43.8762M295.292 37.3762C294.874 36.7911 294.404 36.2619 293.9 35.7862M290.685 43.8762C290.358 43.5315 290.264 43.0084 290.25 42.3762M290.25 42.3762C290.236 41.7859 290.292 41.1005 290.292 40.3762C290.292 38.3762 289.292 34.3762 285.792 32.3762C288.012 32.3762 291.389 33.4166 293.9 35.7862M290.25 42.3762C293.292 40.8762 294.364 37.3162 293.9 35.7862" stroke="black" stroke-width="0.5"/>
<path d="M290.292 40.3762C285.792 40.3762 283.792 36.3762 282.792 33.8762" stroke="black" stroke-width="0.5"/>
<path d="M132.29 12.4762C118.79 16.4762 106.79 22.3762 92.79 35.3762C99.79 23.3762 115.29 13.8762 130.79 8.87622L132.29 12.4762Z" fill="#EFC7D3" stroke="black" stroke-width="0.5"/>
<path d="M130.79 8.87622C110.79 14.5503 92.79 31.8762 84.79 29.8762C97.79 20.3762 113.79 11.8762 130.29 7.37622L130.79 8.87622Z" fill="#EFC7D3" stroke="black" stroke-width="0.5"/>
<path d="M9.79071 47.8761H3.79071C1.29004 51.8761 1.29004 61.8761 1.79071 65.3761C0.290039 66.3761 0.290637 70.8761 1.29071 72.3761L5.29071 72.8761V74.3761L1.29071 76.3761V78.3761C5.29071 79.3761 13.7907 81.3761 21.7907 80.8761V79.3761H39.2907C38.624 70.8761 40.2907 60.3761 49.2907 53.3761C46.7907 49.3761 39.7907 44.8761 36.7907 44.3761C26.7907 43.3761 11.7907 45.8761 9.79071 47.8761Z" fill="#EFC7D3" stroke="black" stroke-width="0.5"/>
<path d="M92.7915 35.3762C74.9582 36.2096 43.2915 41.0762 32.7915 44.0762L36.7915 44.3762C41.7915 45.8762 47.2915 50.2096 49.2915 53.3762C62.2905 43.8762 87.7905 50.8762 86.2905 78.3762H96.2905C89.2905 67.3762 90.2905 45.3762 92.7915 35.3762Z" fill="#EFC7D3" stroke="black" stroke-width="0.5"/>
<path d="M9.79004 47.8763H3.79004C36.2902 28.3762 58.2903 34.3762 84.29 29.8762L93.2903 35.3762C76.2903 36.3762 47.29 39.8762 33.29 44.0762C25.29 43.8762 11.29 45.8762 9.79004 47.8763Z" fill="#EFC7D3" stroke="black" stroke-width="0.5"/>
<path d="M36.7915 44.3763C29.2915 43.3762 12.2915 45.3762 9.79149 47.8763C8.99149 50.2762 12.1248 53.2096 13.7915 54.3762C23.2915 55.8762 36.7915 49.8762 36.7915 44.3763Z" fill="#EFC7D3" stroke="black" stroke-width="0.5"/>
<path d="M3.79073 47.8762C10.7907 48.8762 4.79073 59.3762 1.79073 64.3762C1.29066 57.3762 1.79053 51.8762 3.79073 47.8762Z" fill="#EFC7D3" stroke="black" stroke-width="0.5"/>
<path d="M21.79 83.8762V79.3762H39.29L39.79 83.8762H21.79Z" fill="#EFC7D3" stroke="black" stroke-width="0.5"/>
<path d="M2.29199 65.376C3.79199 67.876 5.79199 71.0426 5.29199 72.876M21.792 79.376C11.292 79.876 6.79199 75.876 7.79199 72.376C8.29199 71.876 9.79199 70.376 10.792 70.376" stroke="black" stroke-width="0.5"/>
<path d="M31.792 74.3761C29.292 70.3761 23.792 65.3762 20.792 63.8762C19.0419 63.3762 16.4169 63.5012 13.6668 63.8762C12.0419 65.2095 10.792 68.3761 11.292 71.3761C11.292 72.5428 12.5994 74.8761 15.292 74.8761C19.792 74.8761 26.792 75.3761 31.792 74.3761Z" fill="#EFC7D3"/>
<path d="M5.79199 65.3762C8.04193 64.8762 10.9168 64.2512 13.6668 63.8762M13.6668 63.8762C16.4169 63.5012 19.0419 63.3762 20.792 63.8762C23.792 65.3762 29.292 70.3761 31.792 74.3761C26.792 75.3761 19.792 74.8761 15.292 74.8761C12.5994 74.8761 11.292 72.5428 11.292 71.3761C10.792 68.3761 12.0418 65.2095 13.6668 63.8762Z" stroke="black" stroke-width="0.5"/>
<path d="M11.292 70.8762C19.292 69.3762 22.792 72.0047 25.792 73.5047M12.792 73.8762L30.292 73.3762" stroke="black" stroke-width="0.5"/>
<path d="M21.79 82.376H31.29C33.29 82.376 34.79 80.376 34.29 79.376M37.79 79.376V83.876" stroke="black" stroke-width="0.5"/>
<path d="M21.7915 80.8765C17.2915 80.8765 12.7915 81.3765 1.29145 78.3765V76.3765L5.29145 74.3765V72.8765L1.29145 72.3765C0.790527 70.8762 -0.209277 67.8762 1.79072 65.3762C1.29096 57.3762 1.79096 50.8762 3.79145 47.876C36.2915 28.3764 58.2914 34.3764 84.2914 29.8764C162.291 -25.1237 244.291 11.8762 281.291 26.3764L294.791 28.3762L295.291 35.3762V38.3762C296.79 43.3762 298.125 47.8762 296.791 49.8762C299.291 50.8762 301.791 54.0429 301.791 55.8762L299.791 65.8762C300.243 76.7241 297.835 76.9484 288.504 77.2609C287.513 77.294 285.444 77.3282 284.291 77.3762V78.8762L259.291 79.3073M21.7915 80.8765V83.8765H39.7898L39.2915 79.3765M21.7915 80.8765V79.3765H39.2915M39.2915 79.3765C36.2915 37.8765 89.7914 40.8765 86.2914 79.8765V82.3762H212.791C206.791 38.8762 261.291 38.8762 259.291 79.3073M258.79 79.3073H259.291" stroke="black"/>
</svg>
