<svg width="303" height="96" viewBox="0 0 303 96" fill="none" xmlns="http://www.w3.org/2000/svg">
<circle cx="62.4473" cy="74.3687" r="20.5" fill="#E0426F" stroke="black"/>
<circle cx="235.447" cy="74.3687" r="20.5" fill="#E0426F" stroke="black"/>
<path d="M132.445 12.8685L130.945 9.36851C170.945 1.36862 192.445 1.86865 231.445 13.3686L227.945 17.8686C207.945 9.86856 189.945 8.86856 173.945 8.36863C171.445 7.86863 167.445 7.86859 164.945 8.36851C154.945 8.36863 142.945 9.86863 132.445 12.8685Z" fill="#EDADBF" stroke="black" stroke-width="0.5"/>
<path d="M130.945 9.3687L130.445 7.8687C166.445 -3.13135 198.945 0.868526 234.445 9.8687L231.445 13.3687C191.445 0.868652 165.445 2.36865 130.945 9.3687Z" fill="#EDADBF" stroke="black" stroke-width="0.5"/>
<path d="M130.945 9.36876C182.445 -2.13126 210.945 7.86877 231.445 13.3688" stroke="black" stroke-width="0.5"/>
<path d="M170.447 30.3687L173.947 8.36865C207.447 9.36865 218.947 14.8687 223.447 16.3687L225.93 28.3687C198.94 28.3693 181.445 29.8688 170.447 30.3687Z" fill="#EDADBF"/>
<path d="M226.447 30.8687L223.447 16.3687C218.947 14.8687 207.447 9.36865 173.947 8.36865L170.447 30.3687C181.447 29.8687 198.947 28.3687 225.947 28.3687" stroke="black" stroke-width="0.5"/>
<path d="M164.947 8.36865C131.947 9.36865 111.947 18.3687 92.9473 35.8687L95.4473 33.8687L159.447 30.8687L164.947 8.36865Z" fill="#EDADBF" stroke="black" stroke-width="0.5"/>
<path d="M239.445 22.8687C235.779 20.202 229.945 17.8687 223.445 16.3687L225.945 28.3687H232.445C235.445 26.8687 238.445 24.6374 239.445 22.8687Z" fill="#EDADBF" stroke="black" stroke-width="0.5"/>
<path d="M96.4473 78.8687H163.447L197.947 77.3687H212.447L212.947 82.8687H198.947H97.9473H86.4473V78.8687H96.4473Z" fill="#EDADBF"/>
<path d="M96.4473 78.8687H163.447L197.947 77.3687M96.4473 78.8687C96.4473 80.3687 96.9473 81.3687 97.9473 82.8687M96.4473 78.8687H86.4473V82.8687H97.9473M197.947 77.3687L198.947 82.8687M197.947 77.3687H212.447L212.947 82.8687H198.947M198.947 82.8687H97.9473" stroke="black" stroke-width="0.5"/>
<path d="M96.4464 78.8687C91.9473 74.3687 88.9473 52.3687 92.9464 35.8687L164.947 31.8687C160.947 36.8687 159.947 70.8687 163.447 78.8687H96.4464Z" fill="#EDADBF" stroke="black" stroke-width="0.5"/>
<path d="M228.447 30.8687L164.947 31.8687C160.947 36.8687 159.948 70.8687 163.447 78.8687L197.947 77.3687C202.447 75.8687 208.947 70.3687 228.447 30.8687Z" fill="#EDADBF" stroke="black" stroke-width="0.5"/>
<path d="M170.447 30.3687C165.947 30.8687 162.447 30.8687 159.447 30.8687L164.947 8.36873C167.947 7.86865 170.947 7.86865 173.947 8.36873L170.447 30.3687Z" fill="#EDADBF" stroke="black" stroke-width="0.5"/>
<path d="M98.9473 32.3689C103.447 37.8689 110.447 34.3689 114.447 32.8689C115.447 17.3688 102.447 25.3688 98.9473 32.3689Z" fill="#EDADBF" stroke="black" stroke-width="0.5"/>
<path d="M234.445 9.86865L231.445 13.3687C248.445 18.8687 258.945 21.8687 271.445 28.3687H272.945L280.945 26.8687C265.945 20.3687 258.445 17.8687 234.445 9.86865Z" fill="#E0426F" stroke="black" stroke-width="0.5"/>
<path d="M271.445 28.3687C260.945 22.8687 241.945 16.3687 231.445 13.3687L229.445 15.8687L244.445 23.3687C242.945 25.8687 238.945 27.8687 232.945 30.5687C244.945 29.8687 261.945 28.8687 271.445 28.3687Z" fill="#E0426F" stroke="black" stroke-width="0.5"/>
<path d="M276.947 34.6687L282.946 32.3687L272.446 28.3687L228.446 30.8687C220.946 45.8687 205.946 76.3687 197.946 77.3687H212.446C210.946 66.3687 220.446 42.8687 245.447 51.8687C255.947 46.3687 265.947 40.8687 276.947 34.6687Z" fill="#E0426F" stroke="black" stroke-width="0.5"/>
<path d="M277.945 34.3687C265.945 40.8687 255.945 46.3687 245.445 51.8687C249.945 54.8687 260.445 60.8687 259.445 79.8687L284.445 79.3687V77.8687C292.945 76.8687 301.445 80.3687 299.945 66.3687L301.945 56.3687C301.945 54.8687 299.445 50.8687 296.945 50.3687C298.445 47.8687 295.445 38.8687 295.445 38.8687V37.3687L291.445 34.3687L286.445 32.8687L282.945 32.3687L277.945 34.3687Z" fill="#E0426F" stroke="black" stroke-width="0.5"/>
<path d="M280.945 26.8687L272.445 28.3687L282.945 32.3687C292.445 33.3687 291.444 34.8687 295.439 37.2888L294.945 28.8687L280.945 26.8687Z" fill="#E0426F"/>
<path d="M295.445 37.3687L295.439 37.2888M295.439 37.2888L294.945 28.8687L280.945 26.8687L272.445 28.3687L282.945 32.3687C292.445 33.3687 291.444 34.8687 295.439 37.2888Z" stroke="black" stroke-width="0.5"/>
<path d="M293.947 36.8689C293.447 34.3687 282.447 34.1687 276.947 34.6687" stroke="black" stroke-width="0.5"/>
<path d="M299.947 66.8687L260.447 68.8687C259.947 63.8687 257.781 59.702 255.947 57.8687L301.947 55.3687M300.447 52.8687C289.447 51.3687 278.447 46.5687 266.447 40.5687M228.447 30.8687L272.447 28.3687L280.947 26.8687" stroke="black" stroke-width="0.5"/>
<path d="M290.447 40.8687C290.447 38.8687 289.447 34.8687 285.947 32.8687C288.168 32.8687 291.545 33.909 294.056 36.2786C294.52 37.8086 293.447 41.3687 290.405 42.8687C290.392 42.2784 290.447 41.5929 290.447 40.8687Z" fill="#E0426F"/>
<path d="M272.447 43.3687C279.443 43.7184 285.46 43.8235 290.84 44.3687M297.447 45.3687C295.344 44.918 293.151 44.6028 290.84 44.3687M295.447 37.8687C295.029 37.2835 294.56 36.7543 294.056 36.2786M290.84 44.3687C290.514 44.0239 290.42 43.5008 290.405 42.8687M290.405 42.8687C290.392 42.2784 290.447 41.5929 290.447 40.8687C290.447 38.8687 289.447 34.8687 285.947 32.8687C288.168 32.8687 291.545 33.909 294.056 36.2786M290.405 42.8687C293.447 41.3687 294.52 37.8086 294.056 36.2786" stroke="black" stroke-width="0.5"/>
<path d="M290.447 40.8687C285.947 40.8687 283.947 36.8687 282.947 34.3687" stroke="black" stroke-width="0.5"/>
<path d="M132.445 12.9686C118.945 16.9686 106.945 22.8687 92.9453 35.8687C99.9453 23.8687 115.445 14.3687 130.945 9.36865L132.445 12.9686Z" fill="#E56E90" stroke="black" stroke-width="0.5"/>
<path d="M130.945 9.36865C110.945 15.0427 92.9453 32.3687 84.9453 30.3687C97.9453 20.8687 113.945 12.3687 130.445 7.86865L130.945 9.36865Z" fill="#E56E90" stroke="black" stroke-width="0.5"/>
<path d="M9.94598 48.3685H3.94598C1.44531 52.3685 1.44531 62.3685 1.94598 65.8685C0.445312 66.8685 0.44591 71.3685 1.44598 72.8685L5.44598 73.3685V74.8685L1.44598 76.8685V78.8685C5.44598 79.8685 13.946 81.8685 21.946 81.3685V79.8685H39.446C38.7793 71.3685 40.446 60.8685 49.446 53.8685C46.946 49.8685 39.946 45.3685 36.946 44.8685C26.946 43.8685 11.946 46.3685 9.94598 48.3685Z" fill="#E56E90" stroke="black" stroke-width="0.5"/>
<path d="M92.9473 35.8687C75.1139 36.702 43.4473 41.5687 32.9473 44.5687L36.9473 44.8687C41.9473 46.3687 47.4473 50.702 49.4473 53.8687C62.4463 44.3687 87.9463 51.3687 86.4463 78.8687H96.4463C89.4463 67.8687 90.4463 45.8687 92.9473 35.8687Z" fill="#E56E90" stroke="black" stroke-width="0.5"/>
<path d="M9.94531 48.3687H3.94531C36.4455 28.8686 58.4456 34.8687 84.4453 30.3687L93.4456 35.8687C76.4456 36.8687 47.4453 40.3686 33.4453 44.5687C25.4453 44.3686 11.4453 46.3686 9.94531 48.3687Z" fill="#E56E90" stroke="black" stroke-width="0.5"/>
<path d="M36.9468 44.8687C29.4468 43.8687 12.4468 45.8687 9.94677 48.3687C9.14677 50.7687 12.2801 53.702 13.9468 54.8687C23.4468 56.3687 36.9468 50.3687 36.9468 44.8687Z" fill="#E56E90" stroke="black" stroke-width="0.5"/>
<path d="M3.94601 48.3687C10.946 49.3687 4.94601 59.8687 1.94601 64.8687C1.44594 57.8687 1.9458 52.3687 3.94601 48.3687Z" fill="#E56E90" stroke="black" stroke-width="0.5"/>
<path d="M21.9453 84.3687V79.8687H39.4453L39.9453 84.3687H21.9453Z" fill="#E56E90" stroke="black" stroke-width="0.5"/>
<path d="M2.44727 65.8687C3.94727 68.3687 5.94727 71.5353 5.44727 73.3687M21.9473 79.8687C11.4473 80.3687 6.94727 76.3687 7.94727 72.8687C8.44727 72.3687 9.94727 70.8687 10.9473 70.8687" stroke="black" stroke-width="0.5"/>
<path d="M31.9473 74.8688C29.4473 70.8688 23.9473 65.8689 20.9473 64.3689C19.1972 63.8688 16.5721 63.9938 13.8221 64.3689C12.1971 65.7022 10.9473 68.8688 11.4473 71.8688C11.4473 73.0354 12.7547 75.3688 15.4473 75.3688C19.9473 75.3688 26.9473 75.8688 31.9473 74.8688Z" fill="#E56E90"/>
<path d="M5.94727 65.8689C8.19721 65.3688 11.0721 64.7438 13.8221 64.3689M13.8221 64.3689C16.5721 63.9938 19.1972 63.8688 20.9473 64.3689C23.9473 65.8689 29.4473 70.8688 31.9473 74.8688C26.9473 75.8688 19.9473 75.3688 15.4473 75.3688C12.7547 75.3688 11.4473 73.0354 11.4473 71.8688C10.9473 68.8688 12.1971 65.7022 13.8221 64.3689Z" stroke="black" stroke-width="0.5"/>
<path d="M11.4473 71.3688C19.4473 69.8689 22.9473 72.4974 25.9473 73.9974M12.9473 74.3689L30.4473 73.8689" stroke="black" stroke-width="0.5"/>
<path d="M21.9453 82.8687H31.4453C33.4453 82.8687 34.9453 80.8687 34.4453 79.8687M37.9453 79.8687V84.3687" stroke="black" stroke-width="0.5"/>
<path d="M21.9472 81.3689C17.4472 81.3689 12.9472 81.8689 1.44721 78.8689V76.8689L5.44721 74.8689V73.3689L1.44721 72.8689C0.946289 71.3687 -0.0535151 68.3687 1.94648 65.8687C1.44672 57.8687 1.94672 51.3687 3.94721 48.3684C36.4472 28.8688 58.4472 34.8688 84.4472 30.3688C162.447 -24.6313 244.447 12.3686 281.447 26.8688L294.947 28.8687L295.447 35.8687V38.8687C296.946 43.8687 298.281 48.3687 296.947 50.3687C299.447 51.3687 301.947 54.5353 301.947 56.3687L299.947 66.3687C300.399 77.2166 297.991 77.4408 288.66 77.7533C287.668 77.7865 285.599 77.8206 284.447 77.8687V79.3687L259.447 79.7997M21.9472 81.3689V84.3689H39.9456L39.4472 79.8689M21.9472 81.3689V79.8689H39.4472M39.4472 79.8689C36.4472 38.3689 89.9472 41.3689 86.4472 80.3689V82.8687H212.947C206.947 39.3687 261.447 39.3687 259.447 79.7997M258.946 79.7997H259.447" stroke="black"/>
</svg>
