<svg width="303" height="95" viewBox="0 0 303 95" fill="none" xmlns="http://www.w3.org/2000/svg">
<circle cx="62.2607" cy="73.7222" r="20.5" fill="#E56E90" stroke="black"/>
<circle cx="235.261" cy="73.7222" r="20.5" fill="#E56E90" stroke="black"/>
<path d="M132.259 12.222L130.759 8.72202C170.759 0.722136 192.259 1.22217 231.259 12.7221L227.759 17.2221C207.759 9.22208 189.759 8.22208 173.759 7.72215C171.259 7.22215 167.259 7.22211 164.759 7.72202C154.759 7.72215 142.759 9.22215 132.259 12.222Z" fill="#E0426F" stroke="black" stroke-width="0.5"/>
<path d="M130.759 8.72221L130.259 7.22221C166.259 -3.77783 198.759 0.222042 234.259 9.22221L231.259 12.7222C191.259 0.222168 165.259 1.72217 130.759 8.72221Z" fill="#E0426F" stroke="black" stroke-width="0.5"/>
<path d="M130.759 8.72228C182.259 -2.77775 210.759 7.22229 231.259 12.7223" stroke="black" stroke-width="0.5"/>
<path d="M170.261 29.7222L173.761 7.72217C207.261 8.72217 218.761 14.2222 223.261 15.7222L225.743 27.7222C198.753 27.7228 181.258 29.2223 170.261 29.7222Z" fill="#E0426F"/>
<path d="M226.261 30.2222L223.261 15.7222C218.761 14.2222 207.261 8.72217 173.761 7.72217L170.261 29.7222C181.261 29.2222 198.761 27.7222 225.761 27.7222" stroke="black" stroke-width="0.5"/>
<path d="M164.761 7.72217C131.761 8.72217 111.761 17.7222 92.7607 35.2222L95.2607 33.2222L159.261 30.2222L164.761 7.72217Z" fill="#E0426F" stroke="black" stroke-width="0.5"/>
<path d="M239.259 22.2222C235.592 19.5555 229.759 17.2222 223.259 15.7222L225.759 27.7222H232.259C235.259 26.2222 238.259 23.9909 239.259 22.2222Z" fill="#E0426F" stroke="black" stroke-width="0.5"/>
<path d="M96.2607 78.2222H163.261L197.761 76.7222H212.261L212.761 82.2222H198.761H97.7607H86.2607V78.2222H96.2607Z" fill="#E0426F"/>
<path d="M96.2607 78.2222H163.261L197.761 76.7222M96.2607 78.2222C96.2607 79.7222 96.7607 80.7222 97.7607 82.2222M96.2607 78.2222H86.2607V82.2222H97.7607M197.761 76.7222L198.761 82.2222M197.761 76.7222H212.261L212.761 82.2222H198.761M198.761 82.2222H97.7607" stroke="black" stroke-width="0.5"/>
<path d="M96.2599 78.2222C91.7607 73.7222 88.7608 51.7222 92.7599 35.2222L164.761 31.2222C160.761 36.2222 159.761 70.2222 163.261 78.2222H96.2599Z" fill="#E0426F" stroke="black" stroke-width="0.5"/>
<path d="M228.261 30.2222L164.761 31.2222C160.761 36.2222 159.761 70.2222 163.261 78.2222L197.761 76.7222C202.261 75.2222 208.761 69.7222 228.261 30.2222Z" fill="#E0426F" stroke="black" stroke-width="0.5"/>
<path d="M170.261 29.7222C165.761 30.2222 162.261 30.2222 159.261 30.2222L164.761 7.72224C167.761 7.22217 170.761 7.22217 173.761 7.72224L170.261 29.7222Z" fill="#E0426F" stroke="black" stroke-width="0.5"/>
<path d="M98.7607 31.7224C103.261 37.2224 110.261 33.7224 114.261 32.2224C115.261 16.7223 102.261 24.7223 98.7607 31.7224Z" fill="#E0426F" stroke="black" stroke-width="0.5"/>
<path d="M234.259 9.22217L231.259 12.7222C248.259 18.2222 258.759 21.2222 271.259 27.7222H272.759L280.759 26.2222C265.759 19.7222 258.259 17.2222 234.259 9.22217Z" fill="#E56E90" stroke="black" stroke-width="0.5"/>
<path d="M271.259 27.7222C260.759 22.2222 241.759 15.7222 231.259 12.7222L229.259 15.2222L244.259 22.7222C242.759 25.2222 238.759 27.2222 232.759 29.9222C244.759 29.2222 261.759 28.2222 271.259 27.7222Z" fill="#E56E90" stroke="black" stroke-width="0.5"/>
<path d="M276.761 34.0222L282.759 31.7222L272.26 27.7222L228.26 30.2222C220.76 45.2222 205.76 75.7222 197.76 76.7222H212.26C210.76 65.7222 220.26 42.2222 245.261 51.2222C255.761 45.7222 265.761 40.2222 276.761 34.0222Z" fill="#E56E90" stroke="black" stroke-width="0.5"/>
<path d="M277.759 33.7222C265.759 40.2222 255.759 45.7222 245.259 51.2222C249.759 54.2222 260.259 60.2222 259.259 79.2222L284.259 78.7222V77.2222C292.759 76.2222 301.259 79.7222 299.759 65.7222L301.759 55.7222C301.759 54.2222 299.259 50.2222 296.759 49.7222C298.259 47.2222 295.259 38.2222 295.259 38.2222V36.7222L291.259 33.7222L286.259 32.2222L282.759 31.7222L277.759 33.7222Z" fill="#E56E90" stroke="black" stroke-width="0.5"/>
<path d="M280.759 26.2222L272.259 27.7222L282.759 31.7222C292.259 32.7222 291.258 34.2222 295.253 36.6423L294.759 28.2222L280.759 26.2222Z" fill="#E56E90"/>
<path d="M295.259 36.7222L295.253 36.6423M295.253 36.6423L294.759 28.2222L280.759 26.2222L272.259 27.7222L282.759 31.7222C292.259 32.7222 291.258 34.2222 295.253 36.6423Z" stroke="black" stroke-width="0.5"/>
<path d="M293.761 36.2224C293.261 33.7223 282.261 33.5222 276.761 34.0222" stroke="black" stroke-width="0.5"/>
<path d="M299.761 66.2222L260.261 68.2222C259.761 63.2222 257.594 59.0555 255.761 57.2222L301.761 54.7222M300.261 52.2222C289.261 50.7222 278.261 45.9222 266.261 39.9222M228.261 30.2222L272.261 27.7222L280.761 26.2222" stroke="black" stroke-width="0.5"/>
<path d="M290.261 40.2222C290.261 38.2222 289.261 34.2222 285.761 32.2222C287.982 32.2222 291.358 33.2626 293.87 35.6322C294.333 37.1622 293.261 40.7222 290.219 42.2222C290.205 41.6319 290.261 40.9465 290.261 40.2222Z" fill="#E56E90"/>
<path d="M272.261 42.7222C279.256 43.072 285.273 43.177 290.654 43.7222M297.261 44.7222C295.158 44.2715 292.964 43.9563 290.654 43.7222M295.261 37.2222C294.843 36.637 294.374 36.1078 293.87 35.6322M290.654 43.7222C290.328 43.3774 290.234 42.8544 290.219 42.2222M290.219 42.2222C290.205 41.6319 290.261 40.9465 290.261 40.2222C290.261 38.2222 289.261 34.2222 285.761 32.2222C287.982 32.2222 291.358 33.2626 293.87 35.6322M290.219 42.2222C293.261 40.7222 294.333 37.1622 293.87 35.6322" stroke="black" stroke-width="0.5"/>
<path d="M290.261 40.2222C285.761 40.2222 283.761 36.2222 282.761 33.7222" stroke="black" stroke-width="0.5"/>
<path d="M132.259 12.3221C118.759 16.3221 106.759 22.2222 92.7588 35.2222C99.7588 23.2222 115.259 13.7222 130.759 8.72217L132.259 12.3221Z" fill="#EFC7D3" stroke="black" stroke-width="0.5"/>
<path d="M130.759 8.72217C110.759 14.3962 92.7588 31.7222 84.7588 29.7222C97.7588 20.2222 113.759 11.7222 130.259 7.22217L130.759 8.72217Z" fill="#EFC7D3" stroke="black" stroke-width="0.5"/>
<path d="M9.75946 47.7221H3.75946C1.25879 51.722 1.25879 61.722 1.75946 65.222C0.258789 66.222 0.259387 70.722 1.25946 72.222L5.25946 72.722V74.222L1.25946 76.222V78.222C5.25946 79.222 13.7595 81.222 21.7595 80.722V79.222H39.2595C38.5928 70.722 40.2595 60.222 49.2595 53.222C46.7595 49.222 39.7595 44.722 36.7595 44.2221C26.7595 43.222 11.7595 45.7221 9.75946 47.7221Z" fill="#EFC7D3" stroke="black" stroke-width="0.5"/>
<path d="M92.7607 35.2222C74.9274 36.0555 43.2607 40.9222 32.7607 43.9222L36.7607 44.2222C41.7607 45.7222 47.2607 50.0555 49.2607 53.2222C62.2598 43.7222 87.7598 50.7222 86.2598 78.2222H96.2598C89.2598 67.2222 90.2598 45.2222 92.7607 35.2222Z" fill="#EFC7D3" stroke="black" stroke-width="0.5"/>
<path d="M9.75879 47.7222H3.75879C36.259 28.2221 58.259 34.2222 84.2588 29.7222L93.259 35.2222C76.259 36.2222 47.2588 39.7222 33.2588 43.9222C25.2588 43.7222 11.2588 45.7222 9.75879 47.7222Z" fill="#EFC7D3" stroke="black" stroke-width="0.5"/>
<path d="M36.7602 44.2222C29.2602 43.2222 12.2602 45.2222 9.76024 47.7222C8.96024 50.1222 12.0936 53.0555 13.7602 54.2222C23.2603 55.7222 36.7602 49.7222 36.7602 44.2222Z" fill="#EFC7D3" stroke="black" stroke-width="0.5"/>
<path d="M3.75948 47.7222C10.7595 48.7222 4.75948 59.2222 1.75948 64.2222C1.25941 57.2222 1.75928 51.7222 3.75948 47.7222Z" fill="#EFC7D3" stroke="black" stroke-width="0.5"/>
<path d="M21.7588 83.7222V79.2222H39.2588L39.7588 83.7222H21.7588Z" fill="#EFC7D3" stroke="black" stroke-width="0.5"/>
<path d="M2.26074 65.2222C3.76074 67.7222 5.76074 70.8888 5.26074 72.7222M21.7607 79.2222C11.2607 79.7222 6.76074 75.7222 7.76074 72.2222C8.26074 71.7222 9.76074 70.2222 10.7607 70.2222" stroke="black" stroke-width="0.5"/>
<path d="M31.7607 74.2223C29.2607 70.2223 23.7607 65.2224 20.7607 63.7224C19.0107 63.2224 16.3856 63.3474 13.6355 63.7224C12.0106 65.0557 10.7607 68.2223 11.2607 71.2223C11.2607 72.389 12.5682 74.7223 15.2607 74.7223C19.7607 74.7223 26.7607 75.2223 31.7607 74.2223Z" fill="#EFC7D3"/>
<path d="M5.76074 65.2224C8.01068 64.7223 10.8856 64.0974 13.6355 63.7224M13.6355 63.7224C16.3856 63.3474 19.0107 63.2224 20.7607 63.7224C23.7607 65.2224 29.2607 70.2223 31.7607 74.2223C26.7607 75.2223 19.7607 74.7223 15.2607 74.7223C12.5682 74.7223 11.2607 72.389 11.2607 71.2223C10.7607 68.2223 12.0106 65.0557 13.6355 63.7224Z" stroke="black" stroke-width="0.5"/>
<path d="M11.2607 70.7224C19.2607 69.2224 22.7607 71.8509 25.7607 73.3509M12.7607 73.7224L30.2607 73.2224" stroke="black" stroke-width="0.5"/>
<path d="M21.7588 82.2222H31.2588C33.2588 82.2222 34.7588 80.2222 34.2588 79.2222M37.7588 79.2222V83.7222" stroke="black" stroke-width="0.5"/>
<path d="M21.7607 80.7224C17.2607 80.7224 12.7607 81.2224 1.26069 78.2224V76.2224L5.26069 74.2224V72.7224L1.26069 72.2224C0.759766 70.7222 -0.240039 67.7222 1.75996 65.2222C1.2602 57.2222 1.7602 50.7222 3.76069 47.7219C36.2607 28.2223 58.2607 34.2224 84.2607 29.7224C162.261 -25.2778 244.261 11.7222 281.261 26.2223L294.761 28.2222L295.261 35.2222V38.2222C296.759 43.2222 298.094 47.7222 296.761 49.7222C299.261 50.7222 301.761 53.8888 301.761 55.7222L299.761 65.7222C300.213 76.5701 297.805 76.7944 288.473 77.1068C287.482 77.14 285.413 77.1742 284.261 77.2222V78.7222L259.261 79.1532M21.7607 80.7224V83.7224H39.759L39.2607 79.2224M21.7607 80.7224V79.2224H39.2607M39.2607 79.2224C36.2607 37.7224 89.7607 40.7224 86.2607 79.7224V82.2222H212.761C206.761 38.7222 261.261 38.7222 259.261 79.1532M258.759 79.1532H259.261" stroke="black"/>
</svg>
