<svg width="304" height="96" viewBox="0 0 304 96" fill="none" xmlns="http://www.w3.org/2000/svg">
<circle cx="63.0742" cy="74.1692" r="20.5" fill="#EDADBF" stroke="black"/>
<circle cx="236.074" cy="74.1692" r="20.5" fill="#EDADBF" stroke="black"/>
<path d="M133.072 12.669L131.572 9.16904C171.572 1.16916 193.072 1.66919 232.072 13.1691L228.572 17.6691C208.572 9.6691 190.572 8.6691 174.572 8.16917C172.072 7.66917 168.072 7.66913 165.572 8.16904C155.572 8.16917 143.572 9.66917 133.072 12.669Z" stroke="black" stroke-width="0.5"/>
<path d="M131.572 9.16923L131.072 7.66923C167.072 -3.33081 199.572 0.669064 235.072 9.66924L232.072 13.1692C192.072 0.669189 166.072 2.16919 131.572 9.16923Z" stroke="black" stroke-width="0.5"/>
<path d="M131.572 9.16918C183.072 -2.33085 211.572 7.66919 232.072 13.1692" stroke="black" stroke-width="0.5"/>
<path d="M227.074 30.6692L224.074 16.1692C219.574 14.6692 208.074 9.16919 174.574 8.16919L171.074 30.1692C182.074 29.6692 199.574 28.1692 226.574 28.1692" stroke="black" stroke-width="0.5"/>
<path d="M165.574 8.16919C132.574 9.16919 112.574 18.1692 93.5742 35.6692L96.0742 33.6692L160.074 30.6692L165.574 8.16919Z" stroke="black" stroke-width="0.5"/>
<path d="M240.072 22.6692C236.406 20.0025 230.572 17.6692 224.072 16.1692L226.572 28.1692H233.072C236.072 26.6692 239.072 24.4379 240.072 22.6692Z" stroke="black" stroke-width="0.5"/>
<path d="M97.0742 78.6692H164.074L198.574 77.1692M97.0742 78.6692C97.0742 80.1692 97.5742 81.1692 98.5742 82.6692M97.0742 78.6692H87.0742V82.6692H98.5742M198.574 77.1692L199.574 82.6692M198.574 77.1692H213.074L213.574 82.6692H199.574M199.574 82.6692H98.5742" stroke="black" stroke-width="0.5"/>
<path d="M97.0733 78.6692C92.5742 74.1692 89.5743 52.1692 93.5733 35.6692L165.574 31.6692C161.574 36.6692 160.574 70.6692 164.074 78.6692H97.0733Z" stroke="black" stroke-width="0.5"/>
<path d="M229.074 30.6692L165.574 31.6692C161.574 36.6692 160.574 70.6692 164.074 78.6692L198.574 77.1692C203.074 75.6692 209.574 70.1692 229.074 30.6692Z" stroke="black" stroke-width="0.5"/>
<path d="M171.074 30.1693C166.574 30.6693 163.074 30.6693 160.074 30.6693L165.574 8.16926C168.574 7.66919 171.574 7.66919 174.574 8.16926L171.074 30.1693Z" stroke="black" stroke-width="0.5"/>
<path d="M99.5742 32.1693C104.074 37.6693 111.074 34.1693 115.074 32.6693C116.074 17.1692 103.074 25.1692 99.5742 32.1693Z" stroke="black" stroke-width="0.5"/>
<path d="M235.072 9.66919L232.072 13.1692C249.072 18.6692 259.572 21.6692 272.072 28.1692H273.572L281.572 26.6692C266.572 20.1692 259.072 17.6692 235.072 9.66919Z" fill="#EDADBF" stroke="black" stroke-width="0.5"/>
<path d="M272.072 28.1692C261.572 22.6692 242.572 16.1692 232.072 13.1692L230.072 15.6692L245.072 23.1692C243.572 25.6692 239.572 27.6692 233.572 30.3692C245.572 29.6692 262.572 28.6692 272.072 28.1692Z" fill="#EDADBF" stroke="black" stroke-width="0.5"/>
<path d="M277.574 34.4692L283.573 32.1692L273.073 28.1692L229.073 30.6692C221.573 45.6692 206.573 76.1692 198.573 77.1692H213.073C211.573 66.1692 221.073 42.6692 246.074 51.6692C256.574 46.1692 266.574 40.6692 277.574 34.4692Z" fill="#EDADBF" stroke="black" stroke-width="0.5"/>
<path d="M278.572 34.1692C266.572 40.6692 256.572 46.1692 246.072 51.6692C250.572 54.6692 261.072 60.6692 260.072 79.6692L285.072 79.1692V77.6692C293.572 76.6692 302.072 80.1692 300.572 66.1692L302.572 56.1692C302.572 54.6692 300.072 50.6692 297.572 50.1692C299.072 47.6692 296.072 38.6692 296.072 38.6692V37.1692L292.072 34.1692L287.072 32.6692L283.572 32.1692L278.572 34.1692Z" fill="#EDADBF" stroke="black" stroke-width="0.5"/>
<path d="M281.572 26.6692L273.072 28.1692L283.572 32.1692C293.072 33.1692 292.071 34.6692 296.066 37.0894L295.572 28.6692L281.572 26.6692Z" fill="#EDADBF"/>
<path d="M296.072 37.1692L296.066 37.0894M296.066 37.0894L295.572 28.6692L281.572 26.6692L273.072 28.1692L283.572 32.1692C293.072 33.1692 292.071 34.6692 296.066 37.0894Z" stroke="black" stroke-width="0.5"/>
<path d="M294.574 36.6694C294.074 34.1693 283.074 33.9692 277.574 34.4692" stroke="black" stroke-width="0.5"/>
<path d="M300.574 66.6692L261.074 68.6692C260.574 63.6692 258.408 59.5025 256.574 57.6692L302.574 55.1692M301.074 52.6692C290.074 51.1692 279.074 46.3692 267.074 40.3692M229.074 30.6692L273.074 28.1692L281.574 26.6692" stroke="black" stroke-width="0.5"/>
<path d="M291.074 40.6692C291.074 38.6692 290.074 34.6692 286.574 32.6692C288.795 32.6692 292.172 33.7096 294.683 36.0792C295.147 37.6092 294.074 41.1692 291.032 42.6692C291.019 42.0789 291.074 41.3935 291.074 40.6692Z" fill="#EDADBF"/>
<path d="M273.074 43.1692C280.07 43.519 286.087 43.6241 291.467 44.1692M298.074 45.1692C295.971 44.7185 293.778 44.4033 291.467 44.1692M296.074 37.6692C295.656 37.0841 295.187 36.5548 294.683 36.0792M291.467 44.1692C291.141 43.8244 291.047 43.3014 291.032 42.6692M291.032 42.6692C291.019 42.0789 291.074 41.3935 291.074 40.6692C291.074 38.6692 290.074 34.6692 286.574 32.6692C288.795 32.6692 292.172 33.7096 294.683 36.0792M291.032 42.6692C294.074 41.1692 295.147 37.6092 294.683 36.0792" stroke="black" stroke-width="0.5"/>
<path d="M291.074 40.6692C286.574 40.6692 284.574 36.6692 283.574 34.1692" stroke="black" stroke-width="0.5"/>
<path d="M133.072 12.7692C119.572 16.7692 107.572 22.6692 93.5723 35.6692C100.572 23.6692 116.072 14.1692 131.572 9.16919L133.072 12.7692Z" stroke="black" stroke-width="0.5"/>
<path d="M131.572 9.16919C111.572 14.8432 93.5723 32.1692 85.5723 30.1692C98.5723 20.6692 114.572 12.1692 131.072 7.66919L131.572 9.16919Z" stroke="black" stroke-width="0.5"/>
<path d="M10.5729 48.1692H4.57293C2.07227 52.1692 2.07227 62.1692 2.57293 65.6692C1.07227 66.6692 1.07286 71.1692 2.07293 72.6692L6.07293 73.1692V74.6692L2.07293 76.6692V78.6692C6.07293 79.6692 14.5729 81.6692 22.5729 81.1692V79.6692H40.0729C39.4063 71.1692 41.0729 60.6692 50.0729 53.6692C47.5729 49.6692 40.5729 45.1692 37.5729 44.6692C27.5729 43.6692 12.5729 46.1692 10.5729 48.1692Z" stroke="black" stroke-width="0.5"/>
<path d="M93.5742 35.6692C75.7409 36.5025 44.0742 41.3692 33.5742 44.3692L37.5742 44.6692C42.5742 46.1692 48.0742 50.5025 50.0742 53.6692C63.0732 44.1692 88.5732 51.1692 87.0732 78.6692H97.0732C90.0732 67.6692 91.0732 45.6692 93.5742 35.6692Z" stroke="black" stroke-width="0.5"/>
<path d="M10.5723 48.1692H4.57227C37.0724 28.6691 59.0725 34.6692 85.0723 30.1692L94.0725 35.6692C77.0725 36.6692 48.0723 40.1692 34.0723 44.3692C26.0723 44.1692 12.0723 46.1692 10.5723 48.1692Z" stroke="black" stroke-width="0.5"/>
<path d="M37.5737 44.6693C30.0737 43.6692 13.0737 45.6692 10.5737 48.1693C9.77372 50.5692 12.9071 53.5025 14.5737 54.6692C24.0737 56.1692 37.5737 50.1692 37.5737 44.6693Z" stroke="black" stroke-width="0.5"/>
<path d="M4.57296 48.1692C11.573 49.1692 5.57296 59.6692 2.57296 64.6692C2.07289 57.6692 2.57275 52.1692 4.57296 48.1692Z" stroke="black" stroke-width="0.5"/>
<path d="M22.5723 84.1692V79.6692H40.0723L40.5723 84.1692H22.5723Z" stroke="black" stroke-width="0.5"/>
<path d="M3.07422 65.6692C4.57422 68.1692 6.57422 71.3359 6.07422 73.1692M22.5742 79.6692C12.0742 80.1692 7.57422 76.1692 8.57422 72.6692C9.07422 72.1692 10.5742 70.6692 11.5742 70.6692" stroke="black" stroke-width="0.5"/>
<path d="M6.57422 65.6693C8.82416 65.1692 11.6991 64.5443 14.449 64.1693M14.449 64.1693C17.1991 63.7943 19.8242 63.6693 21.5742 64.1693C24.5742 65.6693 30.0742 70.6692 32.5742 74.6692C27.5742 75.6692 20.5742 75.1692 16.0742 75.1692C13.3816 75.1692 12.0742 72.8359 12.0742 71.6692C11.5742 68.6692 12.8241 65.5026 14.449 64.1693Z" stroke="black" stroke-width="0.5"/>
<path d="M12.0742 71.1693C20.0742 69.6693 23.5742 72.2978 26.5742 73.7978M13.5742 74.1693L31.0742 73.6693" stroke="black" stroke-width="0.5"/>
<path d="M22.5723 82.6692H32.0723C34.0723 82.6692 35.5723 80.6692 35.0723 79.6692M38.5723 79.6692V84.1692" stroke="black" stroke-width="0.5"/>
<path d="M22.5742 81.1694C18.0742 81.1694 13.5742 81.6694 2.07416 78.6694V76.6694L6.07417 74.6694V73.1694L2.07416 72.6694C1.57324 71.1692 0.573438 68.1692 2.57343 65.6692C2.07368 57.6692 2.57368 51.1692 4.57417 48.1689C37.0742 28.6693 59.0742 34.6694 85.0742 30.1694C163.074 -24.8307 245.074 12.1692 282.074 26.6694L295.574 28.6692L296.074 35.6692V38.6692C297.573 43.6692 298.908 48.1692 297.574 50.1692C300.074 51.1692 302.574 54.3359 302.574 56.1692L300.574 66.1692C301.026 77.0171 298.618 77.2414 289.286 77.5538C288.295 77.587 286.226 77.6212 285.074 77.6692V79.1692L260.074 79.6002M22.5742 81.1694V84.1694H40.5725L40.0742 79.6694M22.5742 81.1694V79.6694H40.0742M40.0742 79.6694C37.0742 38.1694 90.5742 41.1694 87.0742 80.1694V82.6692H213.574C207.574 39.1692 262.074 39.1692 260.074 79.6002M259.573 79.6002H260.074" stroke="black"/>
</svg>
