<svg width="303" height="96" viewBox="0 0 303 96" fill="none" xmlns="http://www.w3.org/2000/svg">
<circle cx="62.249" cy="74.5227" r="20.5" fill="#E56E90" stroke="black"/>
<circle cx="235.249" cy="74.5227" r="20.5" fill="#E56E90" stroke="black"/>
<path d="M132.247 13.0226L130.747 9.52256C170.747 1.52267 192.247 2.02271 231.247 13.5227L227.747 18.0226C207.747 10.0226 189.747 9.02261 173.747 8.52268C171.247 8.02268 167.247 8.02264 164.747 8.52256C154.747 8.52268 142.747 10.0227 132.247 13.0226Z" fill="#EFC7D3" stroke="black" stroke-width="0.5"/>
<path d="M130.747 9.52275L130.247 8.02275C166.247 -2.97729 198.747 1.02258 234.247 10.0228L231.247 13.5228C191.247 1.02271 165.247 2.52271 130.747 9.52275Z" fill="#EFC7D3" stroke="black" stroke-width="0.5"/>
<path d="M130.747 9.52269C182.247 -1.97733 210.747 8.02271 231.247 13.5227" stroke="black" stroke-width="0.5"/>
<path d="M170.249 30.5227L173.749 8.52271C207.249 9.52271 218.749 15.0227 223.249 16.5227L225.732 28.5227C198.742 28.5233 181.247 30.0228 170.249 30.5227Z" fill="#EFC7D3"/>
<path d="M226.249 31.0227L223.249 16.5227C218.749 15.0227 207.249 9.52271 173.749 8.52271L170.249 30.5227C181.249 30.0227 198.749 28.5227 225.749 28.5227" stroke="black" stroke-width="0.5"/>
<path d="M164.749 8.52271C131.749 9.52271 111.749 18.5227 92.749 36.0227L95.249 34.0227L159.249 31.0227L164.749 8.52271Z" fill="#EFC7D3" stroke="black" stroke-width="0.5"/>
<path d="M239.247 23.0227C235.58 20.356 229.747 18.0227 223.247 16.5227L225.747 28.5227H232.247C235.247 27.0227 238.247 24.7914 239.247 23.0227Z" fill="#EFC7D3" stroke="black" stroke-width="0.5"/>
<path d="M96.249 79.0227H163.249L197.749 77.5227H212.249L212.749 83.0227H198.749H97.749H86.249V79.0227H96.249Z" fill="#EFC7D3"/>
<path d="M96.249 79.0227H163.249L197.749 77.5227M96.249 79.0227C96.249 80.5227 96.749 81.5227 97.749 83.0227M96.249 79.0227H86.249V83.0227H97.749M197.749 77.5227L198.749 83.0227M197.749 77.5227H212.249L212.749 83.0227H198.749M198.749 83.0227H97.749" stroke="black" stroke-width="0.5"/>
<path d="M96.2482 79.0227C91.749 74.5227 88.7491 52.5227 92.7482 36.0227L164.749 32.0227C160.749 37.0227 159.749 71.0227 163.249 79.0227H96.2482Z" fill="#EFC7D3" stroke="black" stroke-width="0.5"/>
<path d="M228.249 31.0227L164.749 32.0227C160.749 37.0227 159.749 71.0227 163.249 79.0227L197.749 77.5227C202.249 76.0227 208.749 70.5227 228.249 31.0227Z" fill="#EFC7D3" stroke="black" stroke-width="0.5"/>
<path d="M170.249 30.5228C165.749 31.0228 162.249 31.0228 159.249 31.0228L164.749 8.52278C167.749 8.02271 170.749 8.02271 173.749 8.52278L170.249 30.5228Z" fill="#EFC7D3" stroke="black" stroke-width="0.5"/>
<path d="M98.749 32.5228C103.249 38.0228 110.249 34.5228 114.249 33.0228C115.249 17.5227 102.249 25.5227 98.749 32.5228Z" fill="#EFC7D3" stroke="black" stroke-width="0.5"/>
<path d="M234.247 10.0227L231.247 13.5227C248.247 19.0227 258.747 22.0227 271.247 28.5227H272.747L280.747 27.0227C265.747 20.5227 258.247 18.0227 234.247 10.0227Z" fill="#E0426F" stroke="black" stroke-width="0.5"/>
<path d="M271.247 28.5227C260.747 23.0227 241.747 16.5227 231.247 13.5227L229.247 16.0227L244.247 23.5227C242.747 26.0227 238.747 28.0227 232.747 30.7227C244.747 30.0227 261.747 29.0227 271.247 28.5227Z" fill="#E0426F" stroke="black" stroke-width="0.5"/>
<path d="M276.749 34.8227L282.747 32.5227L272.248 28.5227L228.248 31.0227C220.748 46.0227 205.748 76.5227 197.748 77.5227H212.248C210.748 66.5227 220.248 43.0227 245.249 52.0227C255.749 46.5227 265.749 41.0227 276.749 34.8227Z" fill="#E0426F" stroke="black" stroke-width="0.5"/>
<path d="M277.747 34.5227C265.747 41.0227 255.747 46.5227 245.247 52.0227C249.747 55.0227 260.247 61.0227 259.247 80.0227L284.247 79.5227V78.0227C292.747 77.0227 301.247 80.5227 299.747 66.5227L301.747 56.5227C301.747 55.0227 299.247 51.0227 296.747 50.5227C298.247 48.0227 295.247 39.0227 295.247 39.0227V37.5227L291.247 34.5227L286.247 33.0227L282.747 32.5227L277.747 34.5227Z" fill="#E0426F" stroke="black" stroke-width="0.5"/>
<path d="M280.747 27.0227L272.247 28.5227L282.747 32.5227C292.247 33.5227 291.246 35.0227 295.241 37.4429L294.747 29.0227L280.747 27.0227Z" fill="#E0426F"/>
<path d="M295.247 37.5227L295.241 37.4429M295.241 37.4429L294.747 29.0227L280.747 27.0227L272.247 28.5227L282.747 32.5227C292.247 33.5227 291.246 35.0227 295.241 37.4429Z" stroke="black" stroke-width="0.5"/>
<path d="M293.749 37.0229C293.249 34.5228 282.249 34.3227 276.749 34.8227" stroke="black" stroke-width="0.5"/>
<path d="M299.749 67.0227L260.249 69.0227C259.749 64.0227 257.582 59.856 255.749 58.0227L301.749 55.5227M300.249 53.0227C289.249 51.5227 278.249 46.7227 266.249 40.7227M228.249 31.0227L272.249 28.5227L280.749 27.0227" stroke="black" stroke-width="0.5"/>
<path d="M290.249 41.0227C290.249 39.0227 289.249 35.0227 285.749 33.0227C287.97 33.0227 291.347 34.0631 293.858 36.4327C294.322 37.9627 293.249 41.5227 290.207 43.0227C290.194 42.4324 290.249 41.747 290.249 41.0227Z" fill="#E0426F"/>
<path d="M272.249 43.5227C279.245 43.8725 285.262 43.9776 290.642 44.5227M297.249 45.5227C295.146 45.0721 292.953 44.7568 290.642 44.5227M295.249 38.0227C294.831 37.4376 294.362 36.9084 293.858 36.4327M290.642 44.5227C290.316 44.1779 290.222 43.6549 290.207 43.0227M290.207 43.0227C290.194 42.4324 290.249 41.747 290.249 41.0227C290.249 39.0227 289.249 35.0227 285.749 33.0227C287.97 33.0227 291.347 34.0631 293.858 36.4327M290.207 43.0227C293.249 41.5227 294.322 37.9627 293.858 36.4327" stroke="black" stroke-width="0.5"/>
<path d="M290.249 41.0227C285.749 41.0227 283.749 37.0227 282.749 34.5227" stroke="black" stroke-width="0.5"/>
<path d="M132.247 13.1227C118.747 17.1227 106.747 23.0227 92.7471 36.0227C99.7471 24.0227 115.247 14.5227 130.747 9.52271L132.247 13.1227Z" fill="#E56E90" stroke="black" stroke-width="0.5"/>
<path d="M130.747 9.52271C110.747 15.1967 92.7471 32.5227 84.7471 30.5227C97.7471 21.0227 113.747 12.5227 130.247 8.02271L130.747 9.52271Z" fill="#E56E90" stroke="black" stroke-width="0.5"/>
<path d="M9.74774 48.5227H3.74774C1.24707 52.5227 1.24707 62.5227 1.74774 66.0227C0.24707 67.0227 0.247668 71.5227 1.24774 73.0227L5.24774 73.5227V75.0227L1.24774 77.0227V79.0227C5.24774 80.0227 13.7477 82.0227 21.7477 81.5227V80.0227H39.2477C38.5811 71.5227 40.2477 61.0227 49.2477 54.0227C46.7477 50.0227 39.7477 45.5227 36.7477 45.0227C26.7477 44.0227 11.7477 46.5227 9.74774 48.5227Z" fill="#E56E90" stroke="black" stroke-width="0.5"/>
<path d="M92.749 36.0227C74.9157 36.856 43.249 41.7227 32.749 44.7227L36.749 45.0227C41.749 46.5227 47.249 50.856 49.249 54.0227C62.248 44.5227 87.748 51.5227 86.248 79.0227H96.248C89.248 68.0227 90.248 46.0227 92.749 36.0227Z" fill="#E56E90" stroke="black" stroke-width="0.5"/>
<path d="M9.74707 48.5228H3.74707C36.2473 29.0227 58.2473 35.0227 84.2471 30.5227L93.2473 36.0227C76.2473 37.0227 47.2471 40.5227 33.2471 44.7227C25.2471 44.5227 11.2471 46.5227 9.74707 48.5228Z" fill="#E56E90" stroke="black" stroke-width="0.5"/>
<path d="M36.7485 45.0228C29.2485 44.0227 12.2485 46.0227 9.74852 48.5228C8.94852 50.9227 12.0819 53.856 13.7485 55.0227C23.2485 56.5227 36.7485 50.5227 36.7485 45.0228Z" fill="#E56E90" stroke="black" stroke-width="0.5"/>
<path d="M3.74777 48.5227C10.7478 49.5227 4.74777 60.0227 1.74777 65.0227C1.2477 58.0227 1.74756 52.5227 3.74777 48.5227Z" fill="#E56E90" stroke="black" stroke-width="0.5"/>
<path d="M21.7471 84.5227V80.0227H39.2471L39.7471 84.5227H21.7471Z" fill="#E56E90" stroke="black" stroke-width="0.5"/>
<path d="M2.24902 66.0225C3.74902 68.5225 5.74902 71.6891 5.24902 73.5225M21.749 80.0225C11.249 80.5225 6.74902 76.5225 7.74902 73.0225C8.24902 72.5225 9.74902 71.0225 10.749 71.0225" stroke="black" stroke-width="0.5"/>
<path d="M31.749 75.0226C29.249 71.0226 23.749 66.0227 20.749 64.5227C18.999 64.0227 16.3739 64.1477 13.6238 64.5227C11.9989 65.856 10.749 69.0226 11.249 72.0226C11.249 73.1892 12.5564 75.5226 15.249 75.5226C19.749 75.5226 26.749 76.0226 31.749 75.0226Z" fill="#E56E90"/>
<path d="M5.74902 66.0227C7.99897 65.5226 10.8739 64.8977 13.6238 64.5227M13.6238 64.5227C16.3739 64.1477 18.999 64.0227 20.749 64.5227C23.749 66.0227 29.249 71.0226 31.749 75.0226C26.749 76.0226 19.749 75.5226 15.249 75.5226C12.5564 75.5226 11.249 73.1892 11.249 72.0226C10.749 69.0226 11.9989 65.856 13.6238 64.5227Z" stroke="black" stroke-width="0.5"/>
<path d="M11.249 71.5227C19.249 70.0227 22.749 72.6512 25.749 74.1512M12.749 74.5227L30.249 74.0227" stroke="black" stroke-width="0.5"/>
<path d="M21.7471 83.0225H31.2471C33.2471 83.0225 34.7471 81.0225 34.2471 80.0225M37.7471 80.0225V84.5225" stroke="black" stroke-width="0.5"/>
<path d="M21.749 81.5229C17.249 81.5229 12.749 82.0229 1.24897 79.0229V77.0229L5.24897 75.0229V73.5229L1.24897 73.023C0.748047 71.5227 -0.251757 68.5227 1.74824 66.0227C1.24848 58.0227 1.74848 51.5227 3.74897 48.5224C36.249 29.0228 58.249 35.0229 84.249 30.5229C162.249 -24.4772 244.249 12.5227 281.249 27.0229L294.749 29.0227L295.249 36.0227V39.0227C296.747 44.0227 298.082 48.5227 296.749 50.5227C299.249 51.5227 301.749 54.6894 301.749 56.5227L299.749 66.5227C300.201 77.3706 297.793 77.5949 288.461 77.9073C287.47 77.9405 285.401 77.9747 284.249 78.0227V79.5227L259.249 79.9537M21.749 81.5229V84.5229H39.7473L39.249 80.0229M21.749 81.5229V80.0229H39.249M39.249 80.0229C36.249 38.5229 89.749 41.5229 86.249 80.5229V83.0227H212.749C206.749 39.5227 261.249 39.5227 259.249 79.9537M258.747 79.9537H259.249" stroke="black"/>
</svg>
