<svg width="303" height="96" viewBox="0 0 303 96" fill="none" xmlns="http://www.w3.org/2000/svg">
<circle cx="62.2607" cy="74.1692" r="20.5" fill="#E56E90" stroke="black"/>
<circle cx="235.261" cy="74.1692" r="20.5" fill="#E56E90" stroke="black"/>
<path d="M132.259 12.669L130.759 9.16904C170.759 1.16916 192.259 1.66919 231.259 13.1691L227.759 17.6691C207.759 9.6691 189.759 8.6691 173.759 8.16917C171.259 7.66917 167.259 7.66913 164.759 8.16904C154.759 8.16917 142.759 9.66917 132.259 12.669Z" stroke="black" stroke-width="0.5"/>
<path d="M130.759 9.16923L130.259 7.66923C166.259 -3.33081 198.759 0.669064 234.259 9.66924L231.259 13.1692C191.259 0.669189 165.259 2.16919 130.759 9.16923Z" stroke="black" stroke-width="0.5"/>
<path d="M130.759 9.16918C182.259 -2.33085 210.759 7.66919 231.259 13.1692" stroke="black" stroke-width="0.5"/>
<path d="M226.261 30.6692L223.261 16.1692C218.761 14.6692 207.261 9.16919 173.761 8.16919L170.261 30.1692C181.261 29.6692 198.761 28.1692 225.761 28.1692" stroke="black" stroke-width="0.5"/>
<path d="M164.761 8.16919C131.761 9.16919 111.761 18.1692 92.7607 35.6692L95.2607 33.6692L159.261 30.6692L164.761 8.16919Z" stroke="black" stroke-width="0.5"/>
<path d="M239.259 22.6692C235.592 20.0025 229.759 17.6692 223.259 16.1692L225.759 28.1692H232.259C235.259 26.6692 238.259 24.4379 239.259 22.6692Z" stroke="black" stroke-width="0.5"/>
<path d="M96.2607 78.6692H163.261L197.761 77.1692M96.2607 78.6692C96.2607 80.1692 96.7607 81.1692 97.7607 82.6692M96.2607 78.6692H86.2607V82.6692H97.7607M197.761 77.1692L198.761 82.6692M197.761 77.1692H212.261L212.761 82.6692H198.761M198.761 82.6692H97.7607" stroke="black" stroke-width="0.5"/>
<path d="M96.2599 78.6692C91.7607 74.1692 88.7608 52.1692 92.7599 35.6692L164.761 31.6692C160.761 36.6692 159.761 70.6692 163.261 78.6692H96.2599Z" stroke="black" stroke-width="0.5"/>
<path d="M228.261 30.6692L164.761 31.6692C160.761 36.6692 159.761 70.6692 163.261 78.6692L197.761 77.1692C202.261 75.6692 208.761 70.1692 228.261 30.6692Z" stroke="black" stroke-width="0.5"/>
<path d="M170.261 30.1693C165.761 30.6693 162.261 30.6693 159.261 30.6693L164.761 8.16926C167.761 7.66919 170.761 7.66919 173.761 8.16926L170.261 30.1693Z" stroke="black" stroke-width="0.5"/>
<path d="M98.7607 32.1693C103.261 37.6693 110.261 34.1693 114.261 32.6693C115.261 17.1692 102.261 25.1692 98.7607 32.1693Z" stroke="black" stroke-width="0.5"/>
<path d="M234.259 9.66919L231.259 13.1692C248.259 18.6692 258.759 21.6692 271.259 28.1692H272.759L280.759 26.6692C265.759 20.1692 258.259 17.6692 234.259 9.66919Z" fill="#E56E90" stroke="black" stroke-width="0.5"/>
<path d="M271.259 28.1692C260.759 22.6692 241.759 16.1692 231.259 13.1692L229.259 15.6692L244.259 23.1692C242.759 25.6692 238.759 27.6692 232.759 30.3692C244.759 29.6692 261.759 28.6692 271.259 28.1692Z" fill="#E56E90" stroke="black" stroke-width="0.5"/>
<path d="M276.761 34.4692L282.759 32.1692L272.26 28.1692L228.26 30.6692C220.76 45.6692 205.76 76.1692 197.76 77.1692H212.26C210.76 66.1692 220.26 42.6692 245.261 51.6692C255.761 46.1692 265.761 40.6692 276.761 34.4692Z" fill="#E56E90" stroke="black" stroke-width="0.5"/>
<path d="M277.759 34.1692C265.759 40.6692 255.759 46.1692 245.259 51.6692C249.759 54.6692 260.259 60.6692 259.259 79.6692L284.259 79.1692V77.6692C292.759 76.6692 301.259 80.1692 299.759 66.1692L301.759 56.1692C301.759 54.6692 299.259 50.6692 296.759 50.1692C298.259 47.6692 295.259 38.6692 295.259 38.6692V37.1692L291.259 34.1692L286.259 32.6692L282.759 32.1692L277.759 34.1692Z" fill="#E56E90" stroke="black" stroke-width="0.5"/>
<path d="M280.759 26.6692L272.259 28.1692L282.759 32.1692C292.259 33.1692 291.258 34.6692 295.253 37.0894L294.759 28.6692L280.759 26.6692Z" fill="#E56E90"/>
<path d="M295.259 37.1692L295.253 37.0894M295.253 37.0894L294.759 28.6692L280.759 26.6692L272.259 28.1692L282.759 32.1692C292.259 33.1692 291.258 34.6692 295.253 37.0894Z" stroke="black" stroke-width="0.5"/>
<path d="M293.761 36.6694C293.261 34.1693 282.261 33.9692 276.761 34.4692" stroke="black" stroke-width="0.5"/>
<path d="M299.761 66.6692L260.261 68.6692C259.761 63.6692 257.594 59.5025 255.761 57.6692L301.761 55.1692M300.261 52.6692C289.261 51.1692 278.261 46.3692 266.261 40.3692M228.261 30.6692L272.261 28.1692L280.761 26.6692" stroke="black" stroke-width="0.5"/>
<path d="M290.261 40.6692C290.261 38.6692 289.261 34.6692 285.761 32.6692C287.982 32.6692 291.358 33.7096 293.87 36.0792C294.333 37.6092 293.261 41.1692 290.219 42.6692C290.205 42.0789 290.261 41.3935 290.261 40.6692Z" fill="#E56E90"/>
<path d="M272.261 43.1692C279.256 43.519 285.273 43.6241 290.654 44.1692M297.261 45.1692C295.158 44.7185 292.964 44.4033 290.654 44.1692M295.261 37.6692C294.843 37.0841 294.374 36.5548 293.87 36.0792M290.654 44.1692C290.328 43.8244 290.234 43.3014 290.219 42.6692M290.219 42.6692C290.205 42.0789 290.261 41.3935 290.261 40.6692C290.261 38.6692 289.261 34.6692 285.761 32.6692C287.982 32.6692 291.358 33.7096 293.87 36.0792M290.219 42.6692C293.261 41.1692 294.333 37.6092 293.87 36.0792" stroke="black" stroke-width="0.5"/>
<path d="M290.261 40.6692C285.761 40.6692 283.761 36.6692 282.761 34.1692" stroke="black" stroke-width="0.5"/>
<path d="M132.259 12.7692C118.759 16.7692 106.759 22.6692 92.7588 35.6692C99.7588 23.6692 115.259 14.1692 130.759 9.16919L132.259 12.7692Z" stroke="black" stroke-width="0.5"/>
<path d="M130.759 9.16919C110.759 14.8432 92.7588 32.1692 84.7588 30.1692C97.7588 20.6692 113.759 12.1692 130.259 7.66919L130.759 9.16919Z" stroke="black" stroke-width="0.5"/>
<path d="M9.75946 48.1692H3.75946C1.25879 52.1692 1.25879 62.1692 1.75946 65.6692C0.258789 66.6692 0.259387 71.1692 1.25946 72.6692L5.25946 73.1692V74.6692L1.25946 76.6692V78.6692C5.25946 79.6692 13.7595 81.6692 21.7595 81.1692V79.6692H39.2595C38.5928 71.1692 40.2595 60.6692 49.2595 53.6692C46.7595 49.6692 39.7595 45.1692 36.7595 44.6692C26.7595 43.6692 11.7595 46.1692 9.75946 48.1692Z" stroke="black" stroke-width="0.5"/>
<path d="M92.7607 35.6692C74.9274 36.5025 43.2607 41.3692 32.7607 44.3692L36.7607 44.6692C41.7607 46.1692 47.2607 50.5025 49.2607 53.6692C62.2598 44.1692 87.7598 51.1692 86.2598 78.6692H96.2598C89.2598 67.6692 90.2598 45.6692 92.7607 35.6692Z" stroke="black" stroke-width="0.5"/>
<path d="M9.75879 48.1692H3.75879C36.259 28.6691 58.259 34.6692 84.2588 30.1692L93.259 35.6692C76.259 36.6692 47.2588 40.1692 33.2588 44.3692C25.2588 44.1692 11.2588 46.1692 9.75879 48.1692Z" stroke="black" stroke-width="0.5"/>
<path d="M36.7602 44.6693C29.2602 43.6692 12.2602 45.6692 9.76024 48.1693C8.96024 50.5692 12.0936 53.5025 13.7602 54.6692C23.2603 56.1692 36.7602 50.1692 36.7602 44.6693Z" stroke="black" stroke-width="0.5"/>
<path d="M3.75948 48.1692C10.7595 49.1692 4.75948 59.6692 1.75948 64.6692C1.25941 57.6692 1.75928 52.1692 3.75948 48.1692Z" stroke="black" stroke-width="0.5"/>
<path d="M21.7588 84.1692V79.6692H39.2588L39.7588 84.1692H21.7588Z" stroke="black" stroke-width="0.5"/>
<path d="M2.26074 65.6692C3.76074 68.1692 5.76074 71.3359 5.26074 73.1692M21.7607 79.6692C11.2607 80.1692 6.76074 76.1692 7.76074 72.6692C8.26074 72.1692 9.76074 70.6692 10.7607 70.6692" stroke="black" stroke-width="0.5"/>
<path d="M5.76074 65.6693C8.01068 65.1692 10.8856 64.5443 13.6355 64.1693M13.6355 64.1693C16.3856 63.7943 19.0107 63.6693 20.7607 64.1693C23.7607 65.6693 29.2607 70.6692 31.7607 74.6692C26.7607 75.6692 19.7607 75.1692 15.2607 75.1692C12.5682 75.1692 11.2607 72.8359 11.2607 71.6692C10.7607 68.6692 12.0106 65.5026 13.6355 64.1693Z" stroke="black" stroke-width="0.5"/>
<path d="M11.2607 71.1693C19.2607 69.6693 22.7607 72.2978 25.7607 73.7978M12.7607 74.1693L30.2607 73.6693" stroke="black" stroke-width="0.5"/>
<path d="M21.7588 82.6692H31.2588C33.2588 82.6692 34.7588 80.6692 34.2588 79.6692M37.7588 79.6692V84.1692" stroke="black" stroke-width="0.5"/>
<path d="M21.7607 81.1694C17.2607 81.1694 12.7607 81.6694 1.26069 78.6694V76.6694L5.26069 74.6694V73.1694L1.26069 72.6694C0.759766 71.1692 -0.240039 68.1692 1.75996 65.6692C1.2602 57.6692 1.7602 51.1692 3.76069 48.1689C36.2607 28.6693 58.2607 34.6694 84.2607 30.1694C162.261 -24.8307 244.261 12.1692 281.261 26.6694L294.761 28.6692L295.261 35.6692V38.6692C296.759 43.6692 298.094 48.1692 296.761 50.1692C299.261 51.1692 301.761 54.3359 301.761 56.1692L299.761 66.1692C300.213 77.0171 297.805 77.2414 288.473 77.5538C287.482 77.587 285.413 77.6212 284.261 77.6692V79.1692L259.261 79.6002M21.7607 81.1694V84.1694H39.759L39.2607 79.6694M21.7607 81.1694V79.6694H39.2607M39.2607 79.6694C36.2607 38.1694 89.7607 41.1694 86.2607 80.1694V82.6692H212.761C206.761 39.1692 261.261 39.1692 259.261 79.6002M258.759 79.6002H259.261" stroke="black"/>
</svg>
