<svg width="303" height="96" viewBox="0 0 303 96" fill="none" xmlns="http://www.w3.org/2000/svg">
<circle cx="62.4795" cy="74.3535" r="20.5" fill="#E0426F" stroke="black"/>
<circle cx="235.479" cy="74.3535" r="20.5" fill="#E0426F" stroke="black"/>
<path d="M132.478 12.8534L130.978 9.35337C170.978 1.35348 192.478 1.85352 231.478 13.3535L227.978 17.8535C207.978 9.85343 189.978 8.85342 173.978 8.35349C171.478 7.85349 167.478 7.85345 164.978 8.35337C154.978 8.35349 142.978 9.85349 132.478 12.8534Z" fill="#EFC7D3" stroke="black" stroke-width="0.5"/>
<path d="M130.978 9.35356L130.478 7.85356C166.478 -3.14648 198.978 0.85339 234.478 9.85356L231.478 13.3536C191.478 0.853516 165.478 2.35352 130.978 9.35356Z" fill="#EFC7D3" stroke="black" stroke-width="0.5"/>
<path d="M130.978 9.3535C182.478 -2.14652 210.978 7.85352 231.478 13.3535" stroke="black" stroke-width="0.5"/>
<path d="M170.479 30.3535L173.979 8.35352C207.479 9.35352 218.979 14.8535 223.479 16.3535L225.962 28.3535C198.972 28.3542 181.477 29.8536 170.479 30.3535Z" fill="#EFC7D3"/>
<path d="M226.479 30.8535L223.479 16.3535C218.979 14.8535 207.479 9.35352 173.979 8.35352L170.479 30.3535C181.479 29.8535 198.979 28.3535 225.979 28.3535" stroke="black" stroke-width="0.5"/>
<path d="M164.979 8.35352C131.979 9.35352 111.979 18.3535 92.9795 35.8535L95.4795 33.8535L159.479 30.8535L164.979 8.35352Z" fill="#EFC7D3" stroke="black" stroke-width="0.5"/>
<path d="M239.478 22.8535C235.811 20.1868 229.978 17.8535 223.478 16.3535L225.978 28.3535H232.478C235.478 26.8535 238.478 24.6223 239.478 22.8535Z" fill="#EFC7D3" stroke="black" stroke-width="0.5"/>
<path d="M96.4795 78.8535H163.479L197.979 77.3535H212.479L212.979 82.8535H198.979H97.9795H86.4795V78.8535H96.4795Z" fill="#EFC7D3"/>
<path d="M96.4795 78.8535H163.479L197.979 77.3535M96.4795 78.8535C96.4795 80.3535 96.9795 81.3535 97.9795 82.8535M96.4795 78.8535H86.4795V82.8535H97.9795M197.979 77.3535L198.979 82.8535M197.979 77.3535H212.479L212.979 82.8535H198.979M198.979 82.8535H97.9795" stroke="black" stroke-width="0.5"/>
<path d="M96.4786 78.8535C91.9795 74.3535 88.9795 52.3535 92.9786 35.8535L164.979 31.8535C160.979 36.8535 159.979 70.8535 163.479 78.8535H96.4786Z" fill="#EFC7D3" stroke="black" stroke-width="0.5"/>
<path d="M228.479 30.8535L164.979 31.8535C160.98 36.8535 159.98 70.8535 163.479 78.8535L197.979 77.3535C202.479 75.8535 208.979 70.3535 228.479 30.8535Z" fill="#EFC7D3" stroke="black" stroke-width="0.5"/>
<path d="M170.479 30.3536C165.979 30.8536 162.479 30.8536 159.479 30.8536L164.979 8.35359C167.979 7.85352 170.979 7.85352 173.979 8.35359L170.479 30.3536Z" fill="#EFC7D3" stroke="black" stroke-width="0.5"/>
<path d="M98.9795 32.3537C103.479 37.8537 110.479 34.3537 114.479 32.8537C115.479 17.3535 102.479 25.3535 98.9795 32.3537Z" fill="#EFC7D3" stroke="black" stroke-width="0.5"/>
<path d="M234.478 9.85352L231.478 13.3535C248.478 18.8535 258.978 21.8535 271.478 28.3535H272.978L280.978 26.8535C265.978 20.3535 258.478 17.8535 234.478 9.85352Z" fill="#EFC7D3" stroke="black" stroke-width="0.5"/>
<path d="M271.478 28.3535C260.978 22.8535 241.978 16.3535 231.478 13.3535L229.478 15.8535L244.478 23.3535C242.978 25.8535 238.978 27.8535 232.978 30.5535C244.978 29.8535 261.978 28.8535 271.478 28.3535Z" fill="#EFC7D3" stroke="black" stroke-width="0.5"/>
<path d="M276.979 34.6535L282.978 32.3535L272.479 28.3535L228.479 30.8535C220.979 45.8535 205.979 76.3535 197.979 77.3535H212.479C210.979 66.3535 220.479 42.8535 245.479 51.8535C255.979 46.3535 265.979 40.8535 276.979 34.6535Z" fill="#EFC7D3" stroke="black" stroke-width="0.5"/>
<path d="M277.978 34.3535C265.978 40.8535 255.978 46.3535 245.478 51.8535C249.978 54.8535 260.478 60.8535 259.478 79.8535L284.478 79.3535V77.8535C292.978 76.8535 301.478 80.3535 299.978 66.3535L301.978 56.3535C301.978 54.8535 299.478 50.8535 296.978 50.3535C298.478 47.8535 295.478 38.8535 295.478 38.8535V37.3535L291.478 34.3535L286.478 32.8535L282.978 32.3535L277.978 34.3535Z" fill="#EFC7D3" stroke="black" stroke-width="0.5"/>
<path d="M280.978 26.8535L272.478 28.3535L282.978 32.3535C292.478 33.3535 291.476 34.8535 295.472 37.2737L294.978 28.8535L280.978 26.8535Z" fill="#EFC7D3"/>
<path d="M295.478 37.3535L295.472 37.2737M295.472 37.2737L294.978 28.8535L280.978 26.8535L272.478 28.3535L282.978 32.3535C292.478 33.3535 291.476 34.8535 295.472 37.2737Z" stroke="black" stroke-width="0.5"/>
<path d="M293.979 36.8537C293.479 34.3536 282.479 34.1535 276.979 34.6535" stroke="black" stroke-width="0.5"/>
<path d="M299.979 66.8535L260.479 68.8535C259.979 63.8535 257.813 59.6868 255.979 57.8535L301.979 55.3535M300.479 52.8535C289.479 51.3535 278.479 46.5535 266.479 40.5535M228.479 30.8535L272.479 28.3535L280.979 26.8535" stroke="black" stroke-width="0.5"/>
<path d="M290.479 40.8535C290.479 38.8535 289.479 34.8535 285.979 32.8535C288.2 32.8535 291.577 33.8939 294.088 36.2635C294.552 37.7935 293.479 41.3535 290.438 42.8535C290.424 42.2632 290.479 41.5778 290.479 40.8535Z" fill="#EFC7D3"/>
<path d="M272.479 43.3535C279.475 43.7033 285.492 43.8084 290.873 44.3535M297.479 45.3535C295.376 44.9029 293.183 44.5876 290.873 44.3535M295.479 37.8535C295.062 37.2684 294.592 36.7392 294.088 36.2635M290.873 44.3535C290.546 44.0088 290.452 43.4857 290.438 42.8535M290.438 42.8535C290.424 42.2632 290.479 41.5778 290.479 40.8535C290.479 38.8535 289.479 34.8535 285.979 32.8535C288.2 32.8535 291.577 33.8939 294.088 36.2635M290.438 42.8535C293.479 41.3535 294.552 37.7935 294.088 36.2635" stroke="black" stroke-width="0.5"/>
<path d="M290.479 40.8535C285.979 40.8535 283.979 36.8535 282.979 34.3535" stroke="black" stroke-width="0.5"/>
<path d="M132.478 12.9535C118.978 16.9535 106.978 22.8535 92.978 35.8535C99.978 23.8535 115.478 14.3535 130.978 9.35352L132.478 12.9535Z" fill="#EDADBF" stroke="black" stroke-width="0.5"/>
<path d="M130.978 9.35352C110.978 15.0276 92.978 32.3535 84.978 30.3535C97.978 20.8535 113.978 12.3535 130.478 7.85352L130.978 9.35352Z" fill="#EDADBF" stroke="black" stroke-width="0.5"/>
<path d="M9.97869 48.3535H3.97869C1.47803 52.3535 1.47803 62.3535 1.97869 65.8535C0.478027 66.8535 0.478625 71.3535 1.47869 72.8535L5.47869 73.3535V74.8535L1.47869 76.8535V78.8535C5.47869 79.8535 13.9787 81.8535 21.9787 81.3535V79.8535H39.4787C38.812 71.3535 40.4787 60.8535 49.4787 53.8535C46.9787 49.8535 39.9787 45.3535 36.9787 44.8535C26.9787 43.8535 11.9787 46.3535 9.97869 48.3535Z" fill="#EDADBF" stroke="black" stroke-width="0.5"/>
<path d="M92.9795 35.8535C75.1462 36.6868 43.4795 41.5535 32.9795 44.5535L36.9795 44.8535C41.9795 46.3535 47.4795 50.6868 49.4795 53.8535C62.4785 44.3535 87.9785 51.3535 86.4785 78.8535H96.4785C89.4785 67.8535 90.4785 45.8535 92.9795 35.8535Z" fill="#EDADBF" stroke="black" stroke-width="0.5"/>
<path d="M9.97754 48.3536H3.97754C36.4777 28.8535 58.4778 34.8535 84.4775 30.3535L93.4778 35.8535C76.4778 36.8535 47.4775 40.3535 33.4775 44.5535C25.4775 44.3535 11.4775 46.3535 9.97754 48.3536Z" fill="#EDADBF" stroke="black" stroke-width="0.5"/>
<path d="M36.9795 44.8536C29.4795 43.8535 12.4795 45.8535 9.97948 48.3536C9.17948 50.7535 12.3128 53.6868 13.9795 54.8535C23.4795 56.3535 36.9795 50.3535 36.9795 44.8536Z" fill="#EDADBF" stroke="black" stroke-width="0.5"/>
<path d="M3.97872 48.3535C10.9787 49.3535 4.97872 59.8535 1.97872 64.8535C1.47865 57.8535 1.97852 52.3535 3.97872 48.3535Z" fill="#EDADBF" stroke="black" stroke-width="0.5"/>
<path d="M21.978 84.3535V79.8535H39.478L39.978 84.3535H21.978Z" fill="#EDADBF" stroke="black" stroke-width="0.5"/>
<path d="M2.47949 65.8535C3.97949 68.3535 5.97949 71.5202 5.47949 73.3535M21.9795 79.8535C11.4795 80.3535 6.97949 76.3535 7.97949 72.8535C8.47949 72.3535 9.97949 70.8535 10.9795 70.8535" stroke="black" stroke-width="0.5"/>
<path d="M31.9795 74.8535C29.4795 70.8535 23.9795 65.8536 20.9795 64.3536C19.2294 63.8536 16.6044 63.9786 13.8543 64.3536C12.2294 65.6869 10.9795 68.8535 11.4795 71.8535C11.4795 73.0202 12.7869 75.3535 15.4795 75.3535C19.9795 75.3535 26.9795 75.8535 31.9795 74.8535Z" fill="#EDADBF"/>
<path d="M5.97949 65.8536C8.22943 65.3536 11.1043 64.7286 13.8543 64.3536M13.8543 64.3536C16.6044 63.9786 19.2294 63.8536 20.9795 64.3536C23.9795 65.8536 29.4795 70.8535 31.9795 74.8535C26.9795 75.8535 19.9795 75.3535 15.4795 75.3535C12.7869 75.3535 11.4795 73.0202 11.4795 71.8535C10.9795 68.8535 12.2293 65.6869 13.8543 64.3536Z" stroke="black" stroke-width="0.5"/>
<path d="M11.4795 71.3536C19.4795 69.8536 22.9795 72.4821 25.9795 73.9821M12.9795 74.3536L30.4795 73.8536" stroke="black" stroke-width="0.5"/>
<path d="M21.9775 82.8535H31.4775C33.4775 82.8535 34.9775 80.8535 34.4775 79.8535M37.9775 79.8535V84.3535" stroke="black" stroke-width="0.5"/>
<path d="M21.9794 81.3538C17.4794 81.3538 12.9794 81.8538 1.47944 78.8538V76.8538L5.47944 74.8538V73.3538L1.47944 72.8538C0.978516 71.3535 -0.0212885 68.3535 1.97871 65.8535C1.47895 57.8535 1.97895 51.3535 3.97944 48.3533C36.4794 28.8537 58.4794 34.8537 84.4794 30.3537C162.479 -24.6464 244.479 12.3535 281.479 26.8537L294.979 28.8535L295.479 35.8535V38.8535C296.978 43.8535 298.313 48.3535 296.979 50.3535C299.479 51.3535 301.979 54.5202 301.979 56.3535L299.979 66.3535C300.431 77.2014 298.023 77.4257 288.692 77.7382C287.701 77.7713 285.632 77.8055 284.479 77.8535V79.3535L259.479 79.7846M21.9794 81.3538V84.3538H39.9778L39.4794 79.8538M21.9794 81.3538V79.8538H39.4794M39.4794 79.8538C36.4794 38.3538 89.9794 41.3538 86.4794 80.3538V82.8535H212.979C206.979 39.3535 261.479 39.3535 259.479 79.7846M258.978 79.7846H259.479" stroke="black"/>
</svg>
