<svg width="303" height="96" viewBox="0 0 303 96" fill="none" xmlns="http://www.w3.org/2000/svg">
<circle cx="62.876" cy="74.5076" r="20.5" fill="#EFC7D3" stroke="black"/>
<circle cx="235.876" cy="74.5076" r="20.5" fill="#EFC7D3" stroke="black"/>
<path d="M132.874 13.0074L131.374 9.50742C171.374 1.50754 192.874 2.00757 231.874 13.5075L228.374 18.0075C208.374 10.0075 190.374 9.00748 174.374 8.50755C171.874 8.00755 167.874 8.00751 165.374 8.50742C155.374 8.50755 143.374 10.0075 132.874 13.0074Z" stroke="black" stroke-width="0.5"/>
<path d="M131.374 9.50761L130.874 8.00761C166.874 -2.99243 199.374 1.00744 234.874 10.0076L231.874 13.5076C191.874 1.00757 165.874 2.50757 131.374 9.50761Z" stroke="black" stroke-width="0.5"/>
<path d="M131.374 9.50756C182.874 -1.99247 211.374 8.00757 231.874 13.5076" stroke="black" stroke-width="0.5"/>
<path d="M226.876 31.0076L223.876 16.5076C219.376 15.0076 207.876 9.50757 174.376 8.50757L170.876 30.5076C181.876 30.0076 199.376 28.5076 226.376 28.5076" stroke="black" stroke-width="0.5"/>
<path d="M165.376 8.50757C132.376 9.50757 112.376 18.5076 93.376 36.0076L95.876 34.0076L159.876 31.0076L165.376 8.50757Z" stroke="black" stroke-width="0.5"/>
<path d="M239.874 23.0076C236.207 20.3409 230.374 18.0076 223.874 16.5076L226.374 28.5076H232.874C235.874 27.0076 238.874 24.7763 239.874 23.0076Z" stroke="black" stroke-width="0.5"/>
<path d="M96.876 79.0076H163.876L198.376 77.5076M96.876 79.0076C96.876 80.5076 97.376 81.5076 98.376 83.0076M96.876 79.0076H86.876V83.0076H98.376M198.376 77.5076L199.376 83.0076M198.376 77.5076H212.876L213.376 83.0076H199.376M199.376 83.0076H98.376" stroke="black" stroke-width="0.5"/>
<path d="M96.8751 79.0076C92.376 74.5076 89.376 52.5076 93.3751 36.0076L165.376 32.0076C161.376 37.0076 160.376 71.0076 163.876 79.0076H96.8751Z" stroke="black" stroke-width="0.5"/>
<path d="M228.876 31.0076L165.376 32.0076C161.376 37.0076 160.376 71.0076 163.876 79.0076L198.376 77.5076C202.876 76.0076 209.376 70.5076 228.876 31.0076Z" stroke="black" stroke-width="0.5"/>
<path d="M170.876 30.5076C166.376 31.0076 162.876 31.0076 159.876 31.0076L165.376 8.50764C168.376 8.00757 171.376 8.00757 174.376 8.50764L170.876 30.5076Z" stroke="black" stroke-width="0.5"/>
<path d="M99.376 32.5077C103.876 38.0077 110.876 34.5077 114.876 33.0077C115.876 17.5076 102.876 25.5076 99.376 32.5077Z" stroke="black" stroke-width="0.5"/>
<path d="M234.874 10.0076L231.874 13.5076C248.874 19.0076 259.374 22.0076 271.874 28.5076H273.374L281.374 27.0076C266.374 20.5076 258.874 18.0076 234.874 10.0076Z" fill="#EDADBF" stroke="black" stroke-width="0.5"/>
<path d="M271.874 28.5076C261.374 23.0076 242.374 16.5076 231.874 13.5076L229.874 16.0076L244.874 23.5076C243.374 26.0076 239.374 28.0076 233.374 30.7076C245.374 30.0076 262.374 29.0076 271.874 28.5076Z" fill="#EDADBF" stroke="black" stroke-width="0.5"/>
<path d="M277.376 34.8076L283.374 32.5076L272.875 28.5076L228.875 31.0076C221.375 46.0076 206.375 76.5076 198.375 77.5076H212.875C211.375 66.5076 220.875 43.0076 245.876 52.0076C256.376 46.5076 266.376 41.0076 277.376 34.8076Z" fill="#EDADBF" stroke="black" stroke-width="0.5"/>
<path d="M278.374 34.5076C266.374 41.0076 256.374 46.5076 245.874 52.0076C250.374 55.0076 260.874 61.0076 259.874 80.0076L284.874 79.5076V78.0076C293.374 77.0076 301.874 80.5076 300.374 66.5076L302.374 56.5076C302.374 55.0076 299.874 51.0076 297.374 50.5076C298.874 48.0076 295.874 39.0076 295.874 39.0076V37.5076L291.874 34.5076L286.874 33.0076L283.374 32.5076L278.374 34.5076Z" fill="#EDADBF" stroke="black" stroke-width="0.5"/>
<path d="M281.374 27.0076L272.874 28.5076L283.374 32.5076C292.874 33.5076 291.873 35.0076 295.868 37.4277L295.374 29.0076L281.374 27.0076Z" fill="#EDADBF"/>
<path d="M295.874 37.5076L295.868 37.4277M295.868 37.4277L295.374 29.0076L281.374 27.0076L272.874 28.5076L283.374 32.5076C292.874 33.5076 291.873 35.0076 295.868 37.4277Z" stroke="black" stroke-width="0.5"/>
<path d="M294.376 37.0078C293.876 34.5077 282.876 34.3076 277.376 34.8076" stroke="black" stroke-width="0.5"/>
<path d="M300.376 67.0076L260.876 69.0076C260.376 64.0076 258.209 59.8409 256.376 58.0076L302.376 55.5076M300.876 53.0076C289.876 51.5076 278.876 46.7076 266.876 40.7076M228.876 31.0076L272.876 28.5076L281.376 27.0076" stroke="black" stroke-width="0.5"/>
<path d="M290.876 41.0076C290.876 39.0076 289.876 35.0076 286.376 33.0076C288.597 33.0076 291.974 34.048 294.485 36.4176C294.949 37.9476 293.876 41.5076 290.834 43.0076C290.821 42.4173 290.876 41.7319 290.876 41.0076Z" fill="#EDADBF"/>
<path d="M272.876 43.5076C279.872 43.8574 285.889 43.9624 291.269 44.5076M297.876 45.5076C295.773 45.0569 293.58 44.7417 291.269 44.5076M295.876 38.0076C295.458 37.4224 294.989 36.8932 294.485 36.4176M291.269 44.5076C290.943 44.1628 290.849 43.6398 290.834 43.0076M290.834 43.0076C290.821 42.4173 290.876 41.7319 290.876 41.0076C290.876 39.0076 289.876 35.0076 286.376 33.0076C288.597 33.0076 291.974 34.048 294.485 36.4176M290.834 43.0076C293.876 41.5076 294.949 37.9476 294.485 36.4176" stroke="black" stroke-width="0.5"/>
<path d="M290.876 41.0076C286.376 41.0076 284.376 37.0076 283.376 34.5076" stroke="black" stroke-width="0.5"/>
<path d="M132.874 13.1075C119.374 17.1075 107.374 23.0076 93.374 36.0076C100.374 24.0076 115.874 14.5076 131.374 9.50757L132.874 13.1075Z" fill="#EDADBF" stroke="black" stroke-width="0.5"/>
<path d="M131.374 9.50757C111.374 15.1816 93.374 32.5076 85.374 30.5076C98.374 21.0076 114.374 12.5076 130.874 8.00757L131.374 9.50757Z" fill="#EDADBF" stroke="black" stroke-width="0.5"/>
<path d="M10.3747 48.5076H4.37469C1.87402 52.5076 1.87402 62.5076 2.37469 66.0076C0.874023 67.0076 0.874621 71.5076 1.87469 73.0076L5.87469 73.5076V75.0076L1.87469 77.0076V79.0076C5.87469 80.0076 14.3747 82.0076 22.3747 81.5076V80.0076H39.8747C39.208 71.5076 40.8747 61.0076 49.8747 54.0076C47.3747 50.0076 40.3747 45.5076 37.3747 45.0076C27.3747 44.0076 12.3747 46.5076 10.3747 48.5076Z" fill="#EDADBF" stroke="black" stroke-width="0.5"/>
<path d="M93.376 36.0076C75.5426 36.8409 43.876 41.7076 33.376 44.7076L37.376 45.0076C42.376 46.5076 47.876 50.8409 49.876 54.0076C62.875 44.5076 88.375 51.5076 86.875 79.0076H96.875C89.875 68.0076 90.875 46.0076 93.376 36.0076Z" fill="#EDADBF" stroke="black" stroke-width="0.5"/>
<path d="M10.374 48.5076H4.37402C36.8742 29.0075 58.8743 35.0076 84.874 30.5076L93.8743 36.0076C76.8743 37.0076 47.874 40.5076 33.874 44.7076C25.874 44.5076 11.874 46.5076 10.374 48.5076Z" fill="#EDADBF" stroke="black" stroke-width="0.5"/>
<path d="M37.3755 45.0076C29.8755 44.0076 12.8755 46.0076 10.3755 48.5076C9.57548 50.9076 12.7088 53.8409 14.3755 55.0076C23.8755 56.5076 37.3755 50.5076 37.3755 45.0076Z" fill="#EDADBF" stroke="black" stroke-width="0.5"/>
<path d="M4.37472 48.5076C11.3747 49.5076 5.37472 60.0076 2.37472 65.0076C1.87465 58.0076 2.37451 52.5076 4.37472 48.5076Z" fill="#EDADBF" stroke="black" stroke-width="0.5"/>
<path d="M22.374 84.5076V80.0076H39.874L40.374 84.5076H22.374Z" fill="#EDADBF" stroke="black" stroke-width="0.5"/>
<path d="M2.87598 66.0076C4.37598 68.5076 6.37598 71.6742 5.87598 73.5076M22.376 80.0076C11.876 80.5076 7.37598 76.5076 8.37598 73.0076C8.87598 72.5076 10.376 71.0076 11.376 71.0076" stroke="black" stroke-width="0.5"/>
<path d="M32.376 75.0076C29.876 71.0076 24.376 66.0076 21.376 64.5076C19.6259 64.0076 17.0008 64.1326 14.2508 64.5076C12.6258 65.841 11.376 69.0076 11.876 72.0076C11.876 73.1742 13.1834 75.5076 15.876 75.5076C20.376 75.5076 27.376 76.0076 32.376 75.0076Z" fill="#EDADBF"/>
<path d="M6.37598 66.0076C8.62592 65.5076 11.5008 64.8826 14.2508 64.5076M14.2508 64.5076C17.0008 64.1326 19.6259 64.0076 21.376 64.5076C24.376 66.0076 29.876 71.0076 32.376 75.0076C27.376 76.0076 20.376 75.5076 15.876 75.5076C13.1834 75.5076 11.876 73.1742 11.876 72.0076C11.376 69.0076 12.6258 65.841 14.2508 64.5076Z" stroke="black" stroke-width="0.5"/>
<path d="M11.876 71.5076C19.876 70.0077 23.376 72.6362 26.376 74.1362M13.376 74.5077L30.876 74.0077" stroke="black" stroke-width="0.5"/>
<path d="M22.374 83.0076H31.874C33.874 83.0076 35.374 81.0076 34.874 80.0076M38.374 80.0076V84.5076" stroke="black" stroke-width="0.5"/>
<path d="M22.3759 81.5078C17.8759 81.5078 13.3759 82.0078 1.87592 79.0078V77.0078L5.87592 75.0078V73.5078L1.87592 73.0078C1.375 71.5076 0.375196 68.5076 2.37519 66.0076C1.87543 58.0076 2.37543 51.5076 4.37592 48.5073C36.8759 29.0077 58.8759 35.0078 84.8759 30.5078C162.876 -24.4924 244.876 12.5076 281.876 27.0077L295.376 29.0076L295.876 36.0076V39.0076C297.374 44.0076 298.709 48.5076 297.376 50.5076C299.876 51.5076 302.376 54.6742 302.376 56.5076L300.376 66.5076C300.828 77.3555 298.42 77.5798 289.088 77.8922C288.097 77.9254 286.028 77.9596 284.876 78.0076V79.5076L259.876 79.9386M22.3759 81.5078V84.5078H40.3743L39.8759 80.0078M22.3759 81.5078V80.0078H39.8759M39.8759 80.0078C36.8759 38.5078 90.3759 41.5078 86.8759 80.5078V83.0076H213.376C207.376 39.5076 261.876 39.5076 259.876 79.9386M259.374 79.9386H259.876" stroke="black"/>
</svg>
