<svg width="303" height="96" viewBox="0 0 303 96" fill="none" xmlns="http://www.w3.org/2000/svg">
<circle cx="62.4697" cy="74.1843" r="20.5" fill="#E0426F" stroke="black"/>
<circle cx="235.47" cy="74.1843" r="20.5" fill="#E0426F" stroke="black"/>
<path d="M132.468 12.6842L130.968 9.18418C170.968 1.18429 192.468 1.68433 231.468 13.1843L227.968 17.6843C207.968 9.68424 189.968 8.68423 173.968 8.1843C171.468 7.6843 167.468 7.68427 164.968 8.18418C154.968 8.1843 142.968 9.6843 132.468 12.6842Z" fill="#EFC7D3" stroke="black" stroke-width="0.5"/>
<path d="M130.968 9.18437L130.468 7.68437C166.468 -3.31567 198.968 0.6842 234.468 9.68437L231.468 13.1844C191.468 0.684326 165.468 2.18433 130.968 9.18437Z" fill="#EFC7D3" stroke="black" stroke-width="0.5"/>
<path d="M130.968 9.18431C182.468 -2.31571 210.968 7.68433 231.468 13.1843" stroke="black" stroke-width="0.5"/>
<path d="M170.47 30.1843L173.97 8.18433C207.47 9.18433 218.97 14.6843 223.47 16.1843L225.952 28.1843C198.962 28.185 181.467 29.6844 170.47 30.1843Z" fill="#EFC7D3"/>
<path d="M226.47 30.6843L223.47 16.1843C218.97 14.6843 207.47 9.18433 173.97 8.18433L170.47 30.1843C181.47 29.6843 198.97 28.1843 225.97 28.1843" stroke="black" stroke-width="0.5"/>
<path d="M164.97 8.18433C131.97 9.18433 111.97 18.1843 92.9697 35.6843L95.4697 33.6843L159.47 30.6843L164.97 8.18433Z" fill="#EFC7D3" stroke="black" stroke-width="0.5"/>
<path d="M239.468 22.6843C235.801 20.0177 229.968 17.6843 223.468 16.1843L225.968 28.1843H232.468C235.468 26.6843 238.468 24.4531 239.468 22.6843Z" fill="#EFC7D3" stroke="black" stroke-width="0.5"/>
<path d="M96.4697 78.6843H163.47L197.97 77.1843H212.47L212.97 82.6843H198.97H97.9697H86.4697V78.6843H96.4697Z" fill="#EFC7D3"/>
<path d="M96.4697 78.6843H163.47L197.97 77.1843M96.4697 78.6843C96.4697 80.1843 96.9697 81.1843 97.9697 82.6843M96.4697 78.6843H86.4697V82.6843H97.9697M197.97 77.1843L198.97 82.6843M197.97 77.1843H212.47L212.97 82.6843H198.97M198.97 82.6843H97.9697" stroke="black" stroke-width="0.5"/>
<path d="M96.4689 78.6843C91.9697 74.1843 88.9698 52.1843 92.9689 35.6843L164.97 31.6843C160.97 36.6843 159.97 70.6843 163.47 78.6843H96.4689Z" fill="#EFC7D3" stroke="black" stroke-width="0.5"/>
<path d="M228.47 30.6843L164.97 31.6843C160.97 36.6843 159.97 70.6843 163.47 78.6843L197.97 77.1843C202.47 75.6843 208.97 70.1843 228.47 30.6843Z" fill="#EFC7D3" stroke="black" stroke-width="0.5"/>
<path d="M170.47 30.1844C165.97 30.6844 162.47 30.6844 159.47 30.6844L164.97 8.1844C167.97 7.68433 170.97 7.68433 173.97 8.1844L170.47 30.1844Z" fill="#EFC7D3" stroke="black" stroke-width="0.5"/>
<path d="M98.9697 32.1845C103.47 37.6845 110.47 34.1845 114.47 32.6845C115.47 17.1843 102.47 25.1843 98.9697 32.1845Z" fill="#EFC7D3" stroke="black" stroke-width="0.5"/>
<path d="M234.468 9.68433L231.468 13.1843C248.468 18.6843 258.968 21.6843 271.468 28.1843H272.968L280.968 26.6843C265.968 20.1843 258.468 17.6843 234.468 9.68433Z" fill="#EDADBF" stroke="black" stroke-width="0.5"/>
<path d="M271.468 28.1843C260.968 22.6843 241.968 16.1843 231.468 13.1843L229.468 15.6843L244.468 23.1843C242.968 25.6843 238.968 27.6843 232.968 30.3843C244.968 29.6843 261.968 28.6843 271.468 28.1843Z" fill="#EDADBF" stroke="black" stroke-width="0.5"/>
<path d="M276.97 34.4843L282.968 32.1843L272.469 28.1843L228.469 30.6843C220.969 45.6843 205.969 76.1843 197.969 77.1843H212.469C210.969 66.1843 220.469 42.6843 245.47 51.6843C255.97 46.1843 265.97 40.6843 276.97 34.4843Z" fill="#EDADBF" stroke="black" stroke-width="0.5"/>
<path d="M277.968 34.1844C265.968 40.6844 255.968 46.1844 245.468 51.6844C249.968 54.6843 260.468 60.6843 259.468 79.6843L284.468 79.1843V77.6843C292.968 76.6843 301.468 80.1843 299.968 66.1843L301.968 56.1843C301.968 54.6843 299.468 50.6843 296.968 50.1843C298.468 47.6843 295.468 38.6843 295.468 38.6843V37.1843L291.468 34.1843L286.468 32.6843L282.968 32.1843L277.968 34.1844Z" fill="#EDADBF" stroke="black" stroke-width="0.5"/>
<path d="M280.968 26.6843L272.468 28.1843L282.968 32.1843C292.468 33.1843 291.467 34.6843 295.462 37.1045L294.968 28.6843L280.968 26.6843Z" fill="#EDADBF"/>
<path d="M295.468 37.1843L295.462 37.1045M295.462 37.1045L294.968 28.6843L280.968 26.6843L272.468 28.1843L282.968 32.1843C292.468 33.1843 291.467 34.6843 295.462 37.1045Z" stroke="black" stroke-width="0.5"/>
<path d="M293.97 36.6845C293.47 34.1844 282.47 33.9843 276.97 34.4843" stroke="black" stroke-width="0.5"/>
<path d="M299.97 66.6843L260.47 68.6843C259.97 63.6843 257.803 59.5177 255.97 57.6843L301.97 55.1843M300.47 52.6843C289.47 51.1843 278.47 46.3843 266.47 40.3843M228.47 30.6843L272.47 28.1843L280.97 26.6843" stroke="black" stroke-width="0.5"/>
<path d="M290.47 40.6843C290.47 38.6843 289.47 34.6843 285.97 32.6843C288.191 32.6843 291.567 33.7247 294.079 36.0943C294.542 37.6243 293.47 41.1843 290.428 42.6843C290.414 42.094 290.47 41.4086 290.47 40.6843Z" fill="#EDADBF"/>
<path d="M272.47 43.1843C279.465 43.5341 285.482 43.6392 290.863 44.1843M297.47 45.1843C295.367 44.7337 293.173 44.4184 290.863 44.1843M295.47 37.6843C295.052 37.0992 294.583 36.57 294.079 36.0943M290.863 44.1843C290.537 43.8396 290.443 43.3165 290.428 42.6843M290.428 42.6843C290.414 42.094 290.47 41.4086 290.47 40.6843C290.47 38.6843 289.47 34.6843 285.97 32.6843C288.191 32.6843 291.567 33.7247 294.079 36.0943M290.428 42.6843C293.47 41.1843 294.542 37.6243 294.079 36.0943" stroke="black" stroke-width="0.5"/>
<path d="M290.47 40.6843C285.97 40.6843 283.97 36.6843 282.97 34.1843" stroke="black" stroke-width="0.5"/>
<path d="M132.468 12.7843C118.968 16.7843 106.968 22.6843 92.9678 35.6843C99.9678 23.6843 115.468 14.1843 130.968 9.18433L132.468 12.7843Z" fill="#EFC7D3" stroke="black" stroke-width="0.5"/>
<path d="M130.968 9.18433C110.968 14.8584 92.9678 32.1843 84.9678 30.1843C97.9678 20.6843 113.968 12.1843 130.468 7.68433L130.968 9.18433Z" fill="#EFC7D3" stroke="black" stroke-width="0.5"/>
<path d="M9.96844 48.1843H3.96844C1.46777 52.1843 1.46777 62.1843 1.96844 65.6843C0.467773 66.6843 0.468371 71.1843 1.46844 72.6843L5.46844 73.1843V74.6843L1.46844 76.6843V78.6843C5.46844 79.6843 13.9684 81.6843 21.9684 81.1843V79.6843H39.4684C38.8018 71.1843 40.4684 60.6843 49.4684 53.6843C46.9684 49.6843 39.9684 45.1843 36.9684 44.6843C26.9684 43.6843 11.9684 46.1843 9.96844 48.1843Z" fill="#EFC7D3" stroke="black" stroke-width="0.5"/>
<path d="M92.9697 35.6843C75.1364 36.5177 43.4697 41.3843 32.9697 44.3843L36.9697 44.6843C41.9697 46.1843 47.4697 50.5177 49.4697 53.6843C62.4688 44.1843 87.9688 51.1843 86.4688 78.6843H96.4688C89.4688 67.6843 90.4688 45.6843 92.9697 35.6843Z" fill="#EFC7D3" stroke="black" stroke-width="0.5"/>
<path d="M9.96777 48.1844H3.96777C36.468 28.6843 58.468 34.6843 84.4678 30.1843L93.468 35.6843C76.468 36.6843 47.4678 40.1843 33.4678 44.3843C25.4678 44.1843 11.4678 46.1843 9.96777 48.1844Z" fill="#EFC7D3" stroke="black" stroke-width="0.5"/>
<path d="M36.9692 44.6844C29.4692 43.6843 12.4692 45.6843 9.96923 48.1844C9.16923 50.5843 12.3026 53.5177 13.9692 54.6843C23.4692 56.1843 36.9692 50.1843 36.9692 44.6844Z" fill="#EFC7D3" stroke="black" stroke-width="0.5"/>
<path d="M3.96847 48.1843C10.9685 49.1843 4.96847 59.6843 1.96847 64.6843C1.4684 57.6843 1.96826 52.1843 3.96847 48.1843Z" fill="#EFC7D3" stroke="black" stroke-width="0.5"/>
<path d="M21.9678 84.1843V79.6843H39.4678L39.9678 84.1843H21.9678Z" fill="#EFC7D3" stroke="black" stroke-width="0.5"/>
<path d="M2.46973 65.6843C3.96973 68.1843 5.96973 71.351 5.46973 73.1843M21.9697 79.6843C11.4697 80.1843 6.96973 76.1843 7.96973 72.6843C8.46973 72.1843 9.96973 70.6843 10.9697 70.6843" stroke="black" stroke-width="0.5"/>
<path d="M31.9697 74.6843C29.4697 70.6843 23.9697 65.6844 20.9697 64.1844C19.2197 63.6844 16.5946 63.8094 13.8445 64.1844C12.2196 65.5177 10.9697 68.6843 11.4697 71.6843C11.4697 72.851 12.7771 75.1843 15.4697 75.1843C19.9697 75.1843 26.9697 75.6843 31.9697 74.6843Z" fill="#EFC7D3"/>
<path d="M5.96973 65.6844C8.21967 65.1844 11.0946 64.5594 13.8445 64.1844M13.8445 64.1844C16.5946 63.8094 19.2197 63.6844 20.9697 64.1844C23.9697 65.6844 29.4697 70.6843 31.9697 74.6843C26.9697 75.6843 19.9697 75.1843 15.4697 75.1843C12.7771 75.1843 11.4697 72.851 11.4697 71.6843C10.9697 68.6843 12.2196 65.5177 13.8445 64.1844Z" stroke="black" stroke-width="0.5"/>
<path d="M11.4697 71.1844C19.4697 69.6844 22.9697 72.3129 25.9697 73.8129M12.9697 74.1844L30.4697 73.6844" stroke="black" stroke-width="0.5"/>
<path d="M21.9678 82.6843H31.4678C33.4678 82.6843 34.9678 80.6843 34.4678 79.6843M37.9678 79.6843V84.1843" stroke="black" stroke-width="0.5"/>
<path d="M21.9697 81.1846C17.4697 81.1846 12.9697 81.6846 1.46967 78.6846V76.6846L5.46967 74.6846V73.1846L1.46967 72.6846C0.96875 71.1843 -0.0310541 68.1843 1.96894 65.6843C1.46918 57.6843 1.96918 51.1843 3.96967 48.1841C36.4697 28.6845 58.4697 34.6845 84.4697 30.1845C162.47 -24.8156 244.47 12.1843 281.47 26.6845L294.97 28.6843L295.47 35.6843V38.6843C296.968 43.6843 298.303 48.1843 296.97 50.1843C299.47 51.1843 301.97 54.351 301.97 56.1843L299.97 66.1843C300.422 77.0322 298.013 77.2565 288.682 77.569C287.691 77.6021 285.622 77.6363 284.47 77.6843V79.1843L259.47 79.6154M21.9697 81.1846V84.1846H39.968L39.4697 79.6846M21.9697 81.1846V79.6846H39.4697M39.4697 79.6846C36.4697 38.1846 89.9697 41.1846 86.4697 80.1846V82.6843H212.97C206.97 39.1843 261.47 39.1843 259.47 79.6154M258.968 79.6154H259.47" stroke="black"/>
</svg>
