<svg width="303" height="95" viewBox="0 0 303 95" fill="none" xmlns="http://www.w3.org/2000/svg">
<circle cx="62.4697" cy="73.8762" r="20.5" fill="#E0426F" stroke="black"/>
<circle cx="235.47" cy="73.8762" r="20.5" fill="#E0426F" stroke="black"/>
<path d="M132.468 12.3761L130.968 8.87608C170.968 0.876188 192.468 1.37622 231.468 12.8762L227.968 17.3762C207.968 9.37613 189.968 8.37613 173.968 7.8762C171.468 7.3762 167.468 7.37616 164.968 7.87608C154.968 7.8762 142.968 9.3762 132.468 12.3761Z" fill="#E56E90" stroke="black" stroke-width="0.5"/>
<path d="M130.968 8.87627L130.468 7.37626C166.468 -3.62378 198.968 0.376095 234.468 9.37627L231.468 12.8763C191.468 0.376221 165.468 1.87622 130.968 8.87627Z" fill="#E56E90" stroke="black" stroke-width="0.5"/>
<path d="M130.968 8.87609C182.468 -2.62394 210.968 7.3761 231.468 12.8761" stroke="black" stroke-width="0.5"/>
<path d="M170.47 29.8762L173.97 7.87622C207.47 8.87622 218.97 14.3762 223.47 15.8762L225.952 27.8762C198.962 27.8769 181.467 29.3763 170.47 29.8762Z" fill="#E56E90"/>
<path d="M226.47 30.3762L223.47 15.8762C218.97 14.3762 207.47 8.87622 173.97 7.87622L170.47 29.8762C181.47 29.3762 198.97 27.8762 225.97 27.8762" stroke="black" stroke-width="0.5"/>
<path d="M164.97 7.87622C131.97 8.87622 111.97 17.8762 92.9697 35.3762L95.4697 33.3762L159.47 30.3762L164.97 7.87622Z" fill="#E56E90" stroke="black" stroke-width="0.5"/>
<path d="M239.468 22.3762C235.801 19.7096 229.968 17.3762 223.468 15.8762L225.968 27.8762H232.468C235.468 26.3762 238.468 24.145 239.468 22.3762Z" fill="#E56E90" stroke="black" stroke-width="0.5"/>
<path d="M96.4697 78.3762H163.47L197.97 76.8762H212.47L212.97 82.3762H198.97H97.9697H86.4697V78.3762H96.4697Z" fill="#E56E90"/>
<path d="M96.4697 78.3762H163.47L197.97 76.8762M96.4697 78.3762C96.4697 79.8762 96.9697 80.8762 97.9697 82.3762M96.4697 78.3762H86.4697V82.3762H97.9697M197.97 76.8762L198.97 82.3762M197.97 76.8762H212.47L212.97 82.3762H198.97M198.97 82.3762H97.9697" stroke="black" stroke-width="0.5"/>
<path d="M96.4689 78.3762C91.9697 73.8762 88.9698 51.8762 92.9689 35.3762L164.97 31.3762C160.97 36.3762 159.97 70.3762 163.47 78.3762H96.4689Z" fill="#E56E90" stroke="black" stroke-width="0.5"/>
<path d="M228.47 30.3762L164.97 31.3762C160.97 36.3762 159.97 70.3762 163.47 78.3762L197.97 76.8762C202.47 75.3762 208.97 69.8762 228.47 30.3762Z" fill="#E56E90" stroke="black" stroke-width="0.5"/>
<path d="M170.47 29.8763C165.97 30.3763 162.47 30.3763 159.47 30.3763L164.97 7.87629C167.97 7.37622 170.97 7.37622 173.97 7.87629L170.47 29.8763Z" fill="#E56E90" stroke="black" stroke-width="0.5"/>
<path d="M98.9697 31.8762C103.47 37.3762 110.47 33.8762 114.47 32.3762C115.47 16.8761 102.47 24.8761 98.9697 31.8762Z" fill="#E56E90" stroke="black" stroke-width="0.5"/>
<path d="M234.468 9.37622L231.468 12.8762C248.468 18.3762 258.968 21.3762 271.468 27.8762H272.968L280.968 26.3762C265.968 19.8762 258.468 17.3762 234.468 9.37622Z" fill="#EDADBF" stroke="black" stroke-width="0.5"/>
<path d="M271.468 27.8762C260.968 22.3762 241.968 15.8762 231.468 12.8762L229.468 15.3762L244.468 22.8762C242.968 25.3762 238.968 27.3762 232.968 30.0762C244.968 29.3762 261.968 28.3762 271.468 27.8762Z" fill="#EDADBF" stroke="black" stroke-width="0.5"/>
<path d="M276.97 34.1762L282.968 31.8762L272.469 27.8762L228.469 30.3762C220.969 45.3762 205.969 75.8762 197.969 76.8762H212.469C210.969 65.8762 220.469 42.3762 245.47 51.3762C255.97 45.8762 265.97 40.3762 276.97 34.1762Z" fill="#EDADBF" stroke="black" stroke-width="0.5"/>
<path d="M277.968 33.8762C265.968 40.3762 255.968 45.8762 245.468 51.3762C249.968 54.3762 260.468 60.3762 259.468 79.3762L284.468 78.8762V77.3762C292.968 76.3762 301.468 79.8762 299.968 65.8762L301.968 55.8762C301.968 54.3762 299.468 50.3762 296.968 49.8762C298.468 47.3762 295.468 38.3762 295.468 38.3762V36.8762L291.468 33.8762L286.468 32.3762L282.968 31.8762L277.968 33.8762Z" fill="#EDADBF" stroke="black" stroke-width="0.5"/>
<path d="M280.968 26.3762L272.468 27.8762L282.968 31.8762C292.468 32.8762 291.467 34.3762 295.462 36.7964L294.968 28.3762L280.968 26.3762Z" fill="#EDADBF"/>
<path d="M295.468 36.8762L295.462 36.7964M295.462 36.7964L294.968 28.3762L280.968 26.3762L272.468 27.8762L282.968 31.8762C292.468 32.8762 291.467 34.3762 295.462 36.7964Z" stroke="black" stroke-width="0.5"/>
<path d="M293.97 36.3764C293.47 33.8763 282.47 33.6762 276.97 34.1762" stroke="black" stroke-width="0.5"/>
<path d="M299.97 66.3762L260.47 68.3762C259.97 63.3762 257.803 59.2096 255.97 57.3762L301.97 54.8762M300.47 52.3762C289.47 50.8762 278.47 46.0762 266.47 40.0762M228.47 30.3762L272.47 27.8762L280.97 26.3762" stroke="black" stroke-width="0.5"/>
<path d="M290.47 40.3762C290.47 38.3762 289.47 34.3762 285.97 32.3762C288.191 32.3762 291.567 33.4166 294.079 35.7862C294.542 37.3162 293.47 40.8762 290.428 42.3762C290.414 41.7859 290.47 41.1005 290.47 40.3762Z" fill="#EDADBF"/>
<path d="M272.47 42.8762C279.465 43.226 285.482 43.3311 290.863 43.8762M297.47 44.8762C295.367 44.4256 293.173 44.1103 290.863 43.8762M295.47 37.3762C295.052 36.7911 294.583 36.2619 294.079 35.7862M290.863 43.8762C290.537 43.5315 290.443 43.0084 290.428 42.3762M290.428 42.3762C290.414 41.7859 290.47 41.1005 290.47 40.3762C290.47 38.3762 289.47 34.3762 285.97 32.3762C288.191 32.3762 291.567 33.4166 294.079 35.7862M290.428 42.3762C293.47 40.8762 294.542 37.3162 294.079 35.7862" stroke="black" stroke-width="0.5"/>
<path d="M290.47 40.3762C285.97 40.3762 283.97 36.3762 282.97 33.8762" stroke="black" stroke-width="0.5"/>
<path d="M132.468 12.4762C118.968 16.4762 106.968 22.3762 92.9678 35.3762C99.9678 23.3762 115.468 13.8762 130.968 8.87622L132.468 12.4762Z" fill="#EFC7D3" stroke="black" stroke-width="0.5"/>
<path d="M130.968 8.87622C110.968 14.5503 92.9678 31.8762 84.9678 29.8762C97.9678 20.3762 113.968 11.8762 130.468 7.37622L130.968 8.87622Z" fill="#EFC7D3" stroke="black" stroke-width="0.5"/>
<path d="M9.96844 47.8761H3.96844C1.46777 51.8761 1.46777 61.8761 1.96844 65.3761C0.467773 66.3761 0.468371 70.8761 1.46844 72.3761L5.46844 72.8761V74.3761L1.46844 76.3761V78.3761C5.46844 79.3761 13.9684 81.3761 21.9684 80.8761V79.3761H39.4684C38.8018 70.8761 40.4684 60.3761 49.4684 53.3761C46.9684 49.3761 39.9684 44.8761 36.9684 44.3761C26.9684 43.3761 11.9684 45.8761 9.96844 47.8761Z" fill="#EFC7D3" stroke="black" stroke-width="0.5"/>
<path d="M92.9697 35.3762C75.1364 36.2096 43.4697 41.0762 32.9697 44.0762L36.9697 44.3762C41.9697 45.8762 47.4697 50.2096 49.4697 53.3762C62.4688 43.8762 87.9688 50.8762 86.4688 78.3762H96.4688C89.4688 67.3762 90.4688 45.3762 92.9697 35.3762Z" fill="#EFC7D3" stroke="black" stroke-width="0.5"/>
<path d="M9.96777 47.8763H3.96777C36.468 28.3762 58.468 34.3762 84.4678 29.8762L93.468 35.3762C76.468 36.3762 47.4678 39.8762 33.4678 44.0762C25.4678 43.8762 11.4678 45.8762 9.96777 47.8763Z" fill="#EFC7D3" stroke="black" stroke-width="0.5"/>
<path d="M36.9692 44.3763C29.4692 43.3762 12.4692 45.3762 9.96923 47.8763C9.16923 50.2762 12.3026 53.2096 13.9692 54.3762C23.4692 55.8762 36.9692 49.8762 36.9692 44.3763Z" fill="#EFC7D3" stroke="black" stroke-width="0.5"/>
<path d="M3.96847 47.8762C10.9685 48.8762 4.96847 59.3762 1.96847 64.3762C1.4684 57.3762 1.96826 51.8762 3.96847 47.8762Z" fill="#EFC7D3" stroke="black" stroke-width="0.5"/>
<path d="M21.9678 83.8762V79.3762H39.4678L39.9678 83.8762H21.9678Z" fill="#EFC7D3" stroke="black" stroke-width="0.5"/>
<path d="M2.46973 65.376C3.96973 67.876 5.96973 71.0426 5.46973 72.876M21.9697 79.376C11.4697 79.876 6.96973 75.876 7.96973 72.376C8.46973 71.876 9.96973 70.376 10.9697 70.376" stroke="black" stroke-width="0.5"/>
<path d="M31.9697 74.3761C29.4697 70.3761 23.9697 65.3762 20.9697 63.8762C19.2197 63.3762 16.5946 63.5012 13.8445 63.8762C12.2196 65.2095 10.9697 68.3761 11.4697 71.3761C11.4697 72.5428 12.7771 74.8761 15.4697 74.8761C19.9697 74.8761 26.9697 75.3761 31.9697 74.3761Z" fill="#EFC7D3"/>
<path d="M5.96973 65.3762C8.21967 64.8762 11.0946 64.2512 13.8445 63.8762M13.8445 63.8762C16.5946 63.5012 19.2197 63.3762 20.9697 63.8762C23.9697 65.3762 29.4697 70.3761 31.9697 74.3761C26.9697 75.3761 19.9697 74.8761 15.4697 74.8761C12.7771 74.8761 11.4697 72.5428 11.4697 71.3761C10.9697 68.3761 12.2196 65.2095 13.8445 63.8762Z" stroke="black" stroke-width="0.5"/>
<path d="M11.4697 70.8762C19.4697 69.3762 22.9697 72.0047 25.9697 73.5047M12.9697 73.8762L30.4697 73.3762" stroke="black" stroke-width="0.5"/>
<path d="M21.9678 82.376H31.4678C33.4678 82.376 34.9678 80.376 34.4678 79.376M37.9678 79.376V83.876" stroke="black" stroke-width="0.5"/>
<path d="M21.9697 80.8765C17.4697 80.8765 12.9697 81.3765 1.46967 78.3765V76.3765L5.46967 74.3765V72.8765L1.46967 72.3765C0.96875 70.8762 -0.0310541 67.8762 1.96894 65.3762C1.46918 57.3762 1.96918 50.8762 3.96967 47.876C36.4697 28.3764 58.4697 34.3764 84.4697 29.8764C162.47 -25.1237 244.47 11.8762 281.47 26.3764L294.97 28.3762L295.47 35.3762V38.3762C296.968 43.3762 298.303 47.8762 296.97 49.8762C299.47 50.8762 301.97 54.0429 301.97 55.8762L299.97 65.8762C300.422 76.7241 298.013 76.9484 288.682 77.2609C287.691 77.294 285.622 77.3282 284.47 77.3762V78.8762L259.47 79.3073M21.9697 80.8765V83.8765H39.968L39.4697 79.3765M21.9697 80.8765V79.3765H39.4697M39.4697 79.3765C36.4697 37.8765 89.9697 40.8765 86.4697 79.8765V82.3762H212.97C206.97 38.8762 261.47 38.8762 259.47 79.3073M258.968 79.3073H259.47" stroke="black"/>
</svg>
