<svg width="303" height="96" viewBox="0 0 303 96" fill="none" xmlns="http://www.w3.org/2000/svg">
<circle cx="62.4897" cy="74.5227" r="20.5" fill="#E0426F" stroke="black"/>
<circle cx="235.49" cy="74.5227" r="20.5" fill="#E0426F" stroke="black"/>
<path d="M132.488 13.0226L130.988 9.52256C170.988 1.52267 192.488 2.02271 231.488 13.5227L227.988 18.0226C207.988 10.0226 189.988 9.02261 173.988 8.52268C171.488 8.02268 167.488 8.02264 164.988 8.52256C154.988 8.52268 142.988 10.0227 132.488 13.0226Z" fill="#EFC7D3" stroke="black" stroke-width="0.5"/>
<path d="M130.988 9.52275L130.488 8.02275C166.488 -2.97729 198.988 1.02258 234.488 10.0228L231.488 13.5228C191.488 1.02271 165.488 2.52271 130.988 9.52275Z" fill="#EFC7D3" stroke="black" stroke-width="0.5"/>
<path d="M130.988 9.52269C182.488 -1.97733 210.988 8.02271 231.488 13.5227" stroke="black" stroke-width="0.5"/>
<path d="M170.49 30.5227L173.99 8.52271C207.49 9.52271 218.99 15.0227 223.49 16.5227L225.973 28.5227C198.982 28.5233 181.487 30.0228 170.49 30.5227Z" fill="#EFC7D3"/>
<path d="M226.49 31.0227L223.49 16.5227C218.99 15.0227 207.49 9.52271 173.99 8.52271L170.49 30.5227C181.49 30.0227 198.99 28.5227 225.99 28.5227" stroke="black" stroke-width="0.5"/>
<path d="M164.99 8.52271C131.99 9.52271 111.99 18.5227 92.9897 36.0227L95.4897 34.0227L159.49 31.0227L164.99 8.52271Z" fill="#EFC7D3" stroke="black" stroke-width="0.5"/>
<path d="M239.488 23.0227C235.822 20.356 229.988 18.0227 223.488 16.5227L225.988 28.5227H232.488C235.488 27.0227 238.488 24.7914 239.488 23.0227Z" fill="#EFC7D3" stroke="black" stroke-width="0.5"/>
<path d="M96.4897 79.0227H163.49L197.99 77.5227H212.49L212.99 83.0227H198.99H97.9897H86.4897V79.0227H96.4897Z" fill="#EFC7D3"/>
<path d="M96.4897 79.0227H163.49L197.99 77.5227M96.4897 79.0227C96.4897 80.5227 96.9897 81.5227 97.9897 83.0227M96.4897 79.0227H86.4897V83.0227H97.9897M197.99 77.5227L198.99 83.0227M197.99 77.5227H212.49L212.99 83.0227H198.99M198.99 83.0227H97.9897" stroke="black" stroke-width="0.5"/>
<path d="M96.4889 79.0227C91.9897 74.5227 88.9898 52.5227 92.9889 36.0227L164.99 32.0227C160.99 37.0227 159.99 71.0227 163.49 79.0227H96.4889Z" fill="#EFC7D3" stroke="black" stroke-width="0.5"/>
<path d="M228.489 31.0227L164.989 32.0227C160.989 37.0227 159.99 71.0227 163.489 79.0227L197.989 77.5227C202.489 76.0227 208.989 70.5227 228.489 31.0227Z" fill="#EFC7D3" stroke="black" stroke-width="0.5"/>
<path d="M170.49 30.5228C165.99 31.0228 162.49 31.0228 159.49 31.0228L164.99 8.52278C167.99 8.02271 170.99 8.02271 173.99 8.52278L170.49 30.5228Z" fill="#EFC7D3" stroke="black" stroke-width="0.5"/>
<path d="M98.9897 32.5228C103.49 38.0228 110.49 34.5228 114.49 33.0228C115.49 17.5227 102.49 25.5227 98.9897 32.5228Z" fill="#EFC7D3" stroke="black" stroke-width="0.5"/>
<path d="M234.488 10.0227L231.488 13.5227C248.488 19.0227 258.988 22.0227 271.488 28.5227H272.988L280.988 27.0227C265.988 20.5227 258.488 18.0227 234.488 10.0227Z" stroke="black" stroke-width="0.5"/>
<path d="M271.488 28.5227C260.988 23.0227 241.988 16.5227 231.488 13.5227L229.488 16.0227L244.488 23.5227C242.988 26.0227 238.988 28.0227 232.988 30.7227C244.988 30.0227 261.988 29.0227 271.488 28.5227Z" stroke="black" stroke-width="0.5"/>
<path d="M276.99 34.8227L282.988 32.5227L272.489 28.5227L228.489 31.0227C220.989 46.0227 205.989 76.5227 197.989 77.5227H212.489C210.989 66.5227 220.489 43.0227 245.49 52.0227C255.99 46.5227 265.99 41.0227 276.99 34.8227Z" stroke="black" stroke-width="0.5"/>
<path d="M277.988 34.5227C265.988 41.0227 255.988 46.5227 245.488 52.0227C249.988 55.0227 260.488 61.0227 259.488 80.0227L284.488 79.5227V78.0227C292.988 77.0227 301.488 80.5227 299.988 66.5227L301.988 56.5227C301.988 55.0227 299.488 51.0227 296.988 50.5227C298.488 48.0227 295.488 39.0227 295.488 39.0227V37.5227L291.488 34.5227L286.488 33.0227L282.988 32.5227L277.988 34.5227Z" stroke="black" stroke-width="0.5"/>
<path d="M295.488 37.5227L295.482 37.4429M295.482 37.4429L294.988 29.0227L280.988 27.0227L272.488 28.5227L282.988 32.5227C292.488 33.5227 291.487 35.0227 295.482 37.4429Z" stroke="black" stroke-width="0.5"/>
<path d="M293.99 37.0229C293.49 34.5228 282.49 34.3227 276.99 34.8227" stroke="black" stroke-width="0.5"/>
<path d="M299.99 67.0227L260.49 69.0227C259.99 64.0227 257.823 59.856 255.99 58.0227L301.99 55.5227M300.49 53.0227C289.49 51.5227 278.49 46.7227 266.49 40.7227M228.49 31.0227L272.49 28.5227L280.99 27.0227" stroke="black" stroke-width="0.5"/>
<path d="M272.49 43.5227C279.485 43.8725 285.502 43.9776 290.883 44.5227M297.49 45.5227C295.387 45.0721 293.194 44.7568 290.883 44.5227M295.49 38.0227C295.072 37.4376 294.603 36.9084 294.099 36.4327M290.883 44.5227C290.557 44.1779 290.463 43.6549 290.448 43.0227M290.448 43.0227C290.434 42.4324 290.49 41.747 290.49 41.0227C290.49 39.0227 289.49 35.0227 285.99 33.0227C288.211 33.0227 291.587 34.0631 294.099 36.4327M290.448 43.0227C293.49 41.5227 294.562 37.9627 294.099 36.4327" stroke="black" stroke-width="0.5"/>
<path d="M290.49 41.0227C285.99 41.0227 283.99 37.0227 282.99 34.5227" stroke="black" stroke-width="0.5"/>
<path d="M132.488 13.1227C118.988 17.1227 106.988 23.0227 92.9883 36.0227C99.9883 24.0227 115.488 14.5227 130.988 9.52271L132.488 13.1227Z" fill="#E56E90" stroke="black" stroke-width="0.5"/>
<path d="M130.988 9.52271C110.988 15.1967 92.9883 32.5227 84.9883 30.5227C97.9883 21.0227 113.988 12.5227 130.488 8.02271L130.988 9.52271Z" fill="#E56E90" stroke="black" stroke-width="0.5"/>
<path d="M9.98895 48.5227H3.98895C1.48828 52.5227 1.48828 62.5227 1.98895 66.0227C0.488281 67.0227 0.488879 71.5227 1.48895 73.0227L5.48895 73.5227V75.0227L1.48895 77.0227V79.0227C5.48895 80.0227 13.9889 82.0227 21.9889 81.5227V80.0227H39.4889C38.8223 71.5227 40.4889 61.0227 49.4889 54.0227C46.9889 50.0227 39.9889 45.5227 36.9889 45.0227C26.9889 44.0227 11.9889 46.5227 9.98895 48.5227Z" fill="#E56E90" stroke="black" stroke-width="0.5"/>
<path d="M92.9897 36.0227C75.1564 36.856 43.4897 41.7227 32.9897 44.7227L36.9897 45.0227C41.9897 46.5227 47.4897 50.856 49.4897 54.0227C62.4888 44.5227 87.9888 51.5227 86.4888 79.0227H96.4888C89.4888 68.0227 90.4888 46.0227 92.9897 36.0227Z" fill="#E56E90" stroke="black" stroke-width="0.5"/>
<path d="M9.98828 48.5228H3.98828C36.4885 29.0227 58.4885 35.0227 84.4883 30.5227L93.4885 36.0227C76.4885 37.0227 47.4883 40.5227 33.4883 44.7227C25.4883 44.5227 11.4883 46.5227 9.98828 48.5228Z" fill="#E56E90" stroke="black" stroke-width="0.5"/>
<path d="M36.9897 45.0228C29.4897 44.0227 12.4897 46.0227 9.98974 48.5228C9.18974 50.9227 12.3231 53.856 13.9897 55.0227C23.4897 56.5227 36.9897 50.5227 36.9897 45.0228Z" fill="#E56E90" stroke="black" stroke-width="0.5"/>
<path d="M3.98898 48.5227C10.989 49.5227 4.98898 60.0227 1.98898 65.0227C1.48891 58.0227 1.98877 52.5227 3.98898 48.5227Z" fill="#E56E90" stroke="black" stroke-width="0.5"/>
<path d="M21.9883 84.5227V80.0227H39.4883L39.9883 84.5227H21.9883Z" fill="#E56E90" stroke="black" stroke-width="0.5"/>
<path d="M2.49023 66.0225C3.99023 68.5225 5.99023 71.6891 5.49023 73.5225M21.9902 80.0225C11.4902 80.5225 6.99023 76.5225 7.99023 73.0225C8.49023 72.5225 9.99023 71.0225 10.9902 71.0225" stroke="black" stroke-width="0.5"/>
<path d="M31.9902 75.0226C29.4902 71.0226 23.9902 66.0227 20.9902 64.5227C19.2402 64.0227 16.6151 64.1477 13.865 64.5227C12.2401 65.856 10.9902 69.0226 11.4902 72.0226C11.4902 73.1892 12.7977 75.5226 15.4902 75.5226C19.9902 75.5226 26.9902 76.0226 31.9902 75.0226Z" fill="#E56E90"/>
<path d="M5.99023 66.0227C8.24018 65.5226 11.1151 64.8977 13.865 64.5227M13.865 64.5227C16.6151 64.1477 19.2402 64.0227 20.9902 64.5227C23.9902 66.0227 29.4902 71.0226 31.9902 75.0226C26.9902 76.0226 19.9902 75.5226 15.4902 75.5226C12.7977 75.5226 11.4902 73.1892 11.4902 72.0226C10.9902 69.0226 12.2401 65.856 13.865 64.5227Z" stroke="black" stroke-width="0.5"/>
<path d="M11.4902 71.5227C19.4902 70.0227 22.9902 72.6512 25.9902 74.1512M12.9902 74.5227L30.4902 74.0227" stroke="black" stroke-width="0.5"/>
<path d="M21.9883 83.0225H31.4883C33.4883 83.0225 34.9883 81.0225 34.4883 80.0225M37.9883 80.0225V84.5225" stroke="black" stroke-width="0.5"/>
<path d="M21.9897 81.5229C17.4897 81.5229 12.9897 82.0229 1.48969 79.0229V77.0229L5.48969 75.0229V73.5229L1.48969 73.023C0.98877 71.5227 -0.0110346 68.5227 1.98896 66.0227C1.4892 58.0227 1.9892 51.5227 3.98969 48.5224C36.4897 29.0228 58.4897 35.0229 84.4897 30.5229C162.49 -24.4772 244.49 12.5227 281.49 27.0229L294.99 29.0227L295.49 36.0227V39.0227C296.988 44.0227 298.323 48.5227 296.99 50.5227C299.49 51.5227 301.99 54.6894 301.99 56.5227L299.99 66.5227C300.442 77.3706 298.034 77.5949 288.702 77.9073C287.711 77.9405 285.642 77.9747 284.49 78.0227V79.5227L259.49 79.9537M21.9897 81.5229V84.5229H39.988L39.4897 80.0229M21.9897 81.5229V80.0229H39.4897M39.4897 80.0229C36.4897 38.5229 89.9897 41.5229 86.4897 80.5229V83.0227H212.99C206.99 39.5227 261.49 39.5227 259.49 79.9537M258.988 79.9537H259.49" stroke="black"/>
</svg>
