<svg width="303" height="96" viewBox="0 0 303 96" fill="none" xmlns="http://www.w3.org/2000/svg">
<circle cx="62.2915" cy="74.3535" r="20.5" fill="#E56E90" stroke="black"/>
<circle cx="235.292" cy="74.3535" r="20.5" fill="#E56E90" stroke="black"/>
<path d="M132.29 12.8534L130.79 9.35337C170.79 1.35348 192.29 1.85352 231.29 13.3535L227.79 17.8535C207.79 9.85343 189.79 8.85342 173.79 8.35349C171.29 7.85349 167.29 7.85345 164.79 8.35337C154.79 8.35349 142.79 9.85349 132.29 12.8534Z" fill="#EFC7D3" stroke="black" stroke-width="0.5"/>
<path d="M130.79 9.35356L130.29 7.85356C166.29 -3.14648 198.79 0.85339 234.29 9.85356L231.29 13.3536C191.29 0.853516 165.29 2.35352 130.79 9.35356Z" fill="#EFC7D3" stroke="black" stroke-width="0.5"/>
<path d="M130.79 9.3535C182.29 -2.14652 210.79 7.85352 231.29 13.3535" stroke="black" stroke-width="0.5"/>
<path d="M170.292 30.3535L173.792 8.35352C207.292 9.35352 218.792 14.8535 223.292 16.3535L225.774 28.3535C198.784 28.3542 181.289 29.8536 170.292 30.3535Z" fill="#EFC7D3"/>
<path d="M226.292 30.8535L223.292 16.3535C218.792 14.8535 207.292 9.35352 173.792 8.35352L170.292 30.3535C181.292 29.8535 198.792 28.3535 225.792 28.3535" stroke="black" stroke-width="0.5"/>
<path d="M164.792 8.35352C131.792 9.35352 111.792 18.3535 92.7915 35.8535L95.2915 33.8535L159.292 30.8535L164.792 8.35352Z" fill="#EFC7D3" stroke="black" stroke-width="0.5"/>
<path d="M239.29 22.8535C235.623 20.1868 229.79 17.8535 223.29 16.3535L225.79 28.3535H232.29C235.29 26.8535 238.29 24.6223 239.29 22.8535Z" fill="#EFC7D3" stroke="black" stroke-width="0.5"/>
<path d="M96.2915 78.8535H163.292L197.792 77.3535H212.292L212.792 82.8535H198.792H97.7915H86.2915V78.8535H96.2915Z" fill="#EFC7D3"/>
<path d="M96.2915 78.8535H163.292L197.792 77.3535M96.2915 78.8535C96.2915 80.3535 96.7915 81.3535 97.7915 82.8535M96.2915 78.8535H86.2915V82.8535H97.7915M197.792 77.3535L198.792 82.8535M197.792 77.3535H212.292L212.792 82.8535H198.792M198.792 82.8535H97.7915" stroke="black" stroke-width="0.5"/>
<path d="M96.2906 78.8535C91.7915 74.3535 88.7915 52.3535 92.7906 35.8535L164.792 31.8535C160.792 36.8535 159.792 70.8535 163.291 78.8535H96.2906Z" fill="#EFC7D3" stroke="black" stroke-width="0.5"/>
<path d="M228.291 30.8535L164.791 31.8535C160.791 36.8535 159.791 70.8535 163.291 78.8535L197.791 77.3535C202.291 75.8535 208.791 70.3535 228.291 30.8535Z" fill="#EFC7D3" stroke="black" stroke-width="0.5"/>
<path d="M170.292 30.3536C165.792 30.8536 162.292 30.8536 159.292 30.8536L164.792 8.35359C167.792 7.85352 170.792 7.85352 173.792 8.35359L170.292 30.3536Z" fill="#EFC7D3" stroke="black" stroke-width="0.5"/>
<path d="M98.7915 32.3537C103.292 37.8537 110.292 34.3537 114.292 32.8537C115.292 17.3535 102.292 25.3535 98.7915 32.3537Z" fill="#EFC7D3" stroke="black" stroke-width="0.5"/>
<path d="M234.29 9.85352L231.29 13.3535C248.29 18.8535 258.79 21.8535 271.29 28.3535H272.79L280.79 26.8535C265.79 20.3535 258.29 17.8535 234.29 9.85352Z" stroke="black" stroke-width="0.5"/>
<path d="M271.29 28.3535C260.79 22.8535 241.79 16.3535 231.29 13.3535L229.29 15.8535L244.29 23.3535C242.79 25.8535 238.79 27.8535 232.79 30.5535C244.79 29.8535 261.79 28.8535 271.29 28.3535Z" stroke="black" stroke-width="0.5"/>
<path d="M276.792 34.6535L282.79 32.3535L272.291 28.3535L228.291 30.8535C220.791 45.8535 205.791 76.3535 197.791 77.3535H212.291C210.791 66.3535 220.291 42.8535 245.292 51.8535C255.792 46.3535 265.792 40.8535 276.792 34.6535Z" stroke="black" stroke-width="0.5"/>
<path d="M277.79 34.3535C265.79 40.8535 255.79 46.3535 245.29 51.8535C249.79 54.8535 260.29 60.8535 259.29 79.8535L284.29 79.3535V77.8535C292.79 76.8535 301.29 80.3535 299.79 66.3535L301.79 56.3535C301.79 54.8535 299.29 50.8535 296.79 50.3535C298.29 47.8535 295.29 38.8535 295.29 38.8535V37.3535L291.29 34.3535L286.29 32.8535L282.79 32.3535L277.79 34.3535Z" stroke="black" stroke-width="0.5"/>
<path d="M295.29 37.3535L295.284 37.2737M295.284 37.2737L294.79 28.8535L280.79 26.8535L272.29 28.3535L282.79 32.3535C292.29 33.3535 291.289 34.8535 295.284 37.2737Z" stroke="black" stroke-width="0.5"/>
<path d="M293.792 36.8537C293.292 34.3536 282.292 34.1535 276.792 34.6535" stroke="black" stroke-width="0.5"/>
<path d="M299.792 66.8535L260.292 68.8535C259.792 63.8535 257.625 59.6868 255.792 57.8535L301.792 55.3535M300.292 52.8535C289.292 51.3535 278.292 46.5535 266.292 40.5535M228.292 30.8535L272.292 28.3535L280.792 26.8535" stroke="black" stroke-width="0.5"/>
<path d="M272.292 43.3535C279.287 43.7033 285.304 43.8084 290.685 44.3535M297.292 45.3535C295.189 44.9029 292.995 44.5876 290.685 44.3535M295.292 37.8535C294.874 37.2684 294.404 36.7392 293.9 36.2635M290.685 44.3535C290.358 44.0088 290.264 43.4857 290.25 42.8535M290.25 42.8535C290.236 42.2632 290.292 41.5778 290.292 40.8535C290.292 38.8535 289.292 34.8535 285.792 32.8535C288.012 32.8535 291.389 33.8939 293.9 36.2635M290.25 42.8535C293.292 41.3535 294.364 37.7935 293.9 36.2635" stroke="black" stroke-width="0.5"/>
<path d="M290.292 40.8535C285.792 40.8535 283.792 36.8535 282.792 34.3535" stroke="black" stroke-width="0.5"/>
<path d="M132.29 12.9535C118.79 16.9535 106.79 22.8535 92.79 35.8535C99.79 23.8535 115.29 14.3535 130.79 9.35352L132.29 12.9535Z" fill="#EDADBF" stroke="black" stroke-width="0.5"/>
<path d="M130.79 9.35352C110.79 15.0276 92.79 32.3535 84.79 30.3535C97.79 20.8535 113.79 12.3535 130.29 7.85352L130.79 9.35352Z" fill="#EDADBF" stroke="black" stroke-width="0.5"/>
<path d="M9.79071 48.3535H3.79071C1.29004 52.3535 1.29004 62.3535 1.79071 65.8535C0.290039 66.8535 0.290637 71.3535 1.29071 72.8535L5.29071 73.3535V74.8535L1.29071 76.8535V78.8535C5.29071 79.8535 13.7907 81.8535 21.7907 81.3535V79.8535H39.2907C38.624 71.3535 40.2907 60.8535 49.2907 53.8535C46.7907 49.8535 39.7907 45.3535 36.7907 44.8535C26.7907 43.8535 11.7907 46.3535 9.79071 48.3535Z" fill="#EDADBF" stroke="black" stroke-width="0.5"/>
<path d="M92.7915 35.8535C74.9582 36.6868 43.2915 41.5535 32.7915 44.5535L36.7915 44.8535C41.7915 46.3535 47.2915 50.6868 49.2915 53.8535C62.2905 44.3535 87.7905 51.3535 86.2905 78.8535H96.2905C89.2905 67.8535 90.2905 45.8535 92.7915 35.8535Z" fill="#EDADBF" stroke="black" stroke-width="0.5"/>
<path d="M9.79004 48.3536H3.79004C36.2902 28.8535 58.2903 34.8535 84.29 30.3535L93.2903 35.8535C76.2903 36.8535 47.29 40.3535 33.29 44.5535C25.29 44.3535 11.29 46.3535 9.79004 48.3536Z" fill="#EDADBF" stroke="black" stroke-width="0.5"/>
<path d="M36.7915 44.8536C29.2915 43.8535 12.2915 45.8535 9.79149 48.3536C8.99149 50.7535 12.1248 53.6868 13.7915 54.8535C23.2915 56.3535 36.7915 50.3535 36.7915 44.8536Z" fill="#EDADBF" stroke="black" stroke-width="0.5"/>
<path d="M3.79073 48.3535C10.7907 49.3535 4.79073 59.8535 1.79073 64.8535C1.29066 57.8535 1.79053 52.3535 3.79073 48.3535Z" fill="#EDADBF" stroke="black" stroke-width="0.5"/>
<path d="M21.79 84.3535V79.8535H39.29L39.79 84.3535H21.79Z" fill="#EDADBF" stroke="black" stroke-width="0.5"/>
<path d="M2.29199 65.8535C3.79199 68.3535 5.79199 71.5202 5.29199 73.3535M21.792 79.8535C11.292 80.3535 6.79199 76.3535 7.79199 72.8535C8.29199 72.3535 9.79199 70.8535 10.792 70.8535" stroke="black" stroke-width="0.5"/>
<path d="M31.792 74.8535C29.292 70.8535 23.792 65.8536 20.792 64.3536C19.0419 63.8536 16.4169 63.9786 13.6668 64.3536C12.0419 65.6869 10.792 68.8535 11.292 71.8535C11.292 73.0202 12.5994 75.3535 15.292 75.3535C19.792 75.3535 26.792 75.8535 31.792 74.8535Z" fill="#EDADBF"/>
<path d="M5.79199 65.8536C8.04193 65.3536 10.9168 64.7286 13.6668 64.3536M13.6668 64.3536C16.4169 63.9786 19.0419 63.8536 20.792 64.3536C23.792 65.8536 29.292 70.8535 31.792 74.8535C26.792 75.8535 19.792 75.3535 15.292 75.3535C12.5994 75.3535 11.292 73.0202 11.292 71.8535C10.792 68.8535 12.0418 65.6869 13.6668 64.3536Z" stroke="black" stroke-width="0.5"/>
<path d="M11.292 71.3536C19.292 69.8536 22.792 72.4821 25.792 73.9821M12.792 74.3536L30.292 73.8536" stroke="black" stroke-width="0.5"/>
<path d="M21.79 82.8535H31.29C33.29 82.8535 34.79 80.8535 34.29 79.8535M37.79 79.8535V84.3535" stroke="black" stroke-width="0.5"/>
<path d="M21.7915 81.3538C17.2915 81.3538 12.7915 81.8538 1.29145 78.8538V76.8538L5.29145 74.8538V73.3538L1.29145 72.8538C0.790527 71.3535 -0.209277 68.3535 1.79072 65.8535C1.29096 57.8535 1.79096 51.3535 3.79145 48.3533C36.2915 28.8537 58.2914 34.8537 84.2914 30.3537C162.291 -24.6464 244.291 12.3535 281.291 26.8537L294.791 28.8535L295.291 35.8535V38.8535C296.79 43.8535 298.125 48.3535 296.791 50.3535C299.291 51.3535 301.791 54.5202 301.791 56.3535L299.791 66.3535C300.243 77.2014 297.835 77.4257 288.504 77.7382C287.513 77.7713 285.444 77.8055 284.291 77.8535V79.3535L259.291 79.7846M21.7915 81.3538V84.3538H39.7898L39.2915 79.8538M21.7915 81.3538V79.8538H39.2915M39.2915 79.8538C36.2915 38.3538 89.7914 41.3538 86.2914 80.3538V82.8535H212.791C206.791 39.3535 261.291 39.3535 259.291 79.7846M258.79 79.7846H259.291" stroke="black"/>
</svg>
