<svg width="303" height="96" viewBox="0 0 303 96" fill="none" xmlns="http://www.w3.org/2000/svg">
<circle cx="62.6772" cy="74.0605" r="20.5" stroke="black"/>
<circle cx="235.678" cy="74.0605" r="20.5" stroke="black"/>
<path d="M132.676 12.5604L131.176 9.0604C171.176 1.06051 192.676 1.56055 231.676 13.0605L228.176 17.5605C208.176 9.56046 190.176 8.56046 174.176 8.06052C171.676 7.56052 167.676 7.56049 165.176 8.0604C155.176 8.06052 143.176 9.56052 132.676 12.5604Z" fill="#E0426F" stroke="black" stroke-width="0.5"/>
<path d="M131.176 9.06059L130.676 7.56059C166.676 -3.43945 199.176 0.560421 234.676 9.56059L231.676 13.0606C191.676 0.560547 165.676 2.06055 131.176 9.06059Z" fill="#E0426F" stroke="black" stroke-width="0.5"/>
<path d="M131.176 9.06066C182.676 -2.43937 211.176 7.56067 231.676 13.0607" stroke="black" stroke-width="0.5"/>
<path d="M170.677 30.0605L174.177 8.06055C207.677 9.06055 219.177 14.5605 223.677 16.0605L226.16 28.0605C199.17 28.0612 181.675 29.5607 170.677 30.0605Z" fill="#E0426F"/>
<path d="M226.677 30.5605L223.677 16.0605C219.177 14.5605 207.677 9.06055 174.177 8.06055L170.677 30.0605C181.677 29.5605 199.177 28.0605 226.177 28.0605" stroke="black" stroke-width="0.5"/>
<path d="M165.177 8.06055C132.177 9.06055 112.177 18.0605 93.1772 35.5605L95.6772 33.5605L159.677 30.5605L165.177 8.06055Z" fill="#E0426F" stroke="black" stroke-width="0.5"/>
<path d="M239.676 22.5605C236.009 19.8939 230.176 17.5605 223.676 16.0605L226.176 28.0605H232.676C235.676 26.5605 238.676 24.3293 239.676 22.5605Z" fill="#E0426F" stroke="black" stroke-width="0.5"/>
<path d="M96.6772 78.5605H163.677L198.177 77.0605H212.677L213.177 82.5605H199.177H98.1772H86.6772V78.5605H96.6772Z" fill="#E0426F"/>
<path d="M96.6772 78.5605H163.677L198.177 77.0605M96.6772 78.5605C96.6772 80.0605 97.1772 81.0605 98.1772 82.5605M96.6772 78.5605H86.6772V82.5605H98.1772M198.177 77.0605L199.177 82.5605M198.177 77.0605H212.677L213.177 82.5605H199.177M199.177 82.5605H98.1772" stroke="black" stroke-width="0.5"/>
<path d="M96.6764 78.5605C92.1772 74.0605 89.1773 52.0605 93.1764 35.5605L165.177 31.5605C161.177 36.5605 160.177 70.5605 163.677 78.5605H96.6764Z" fill="#E0426F" stroke="black" stroke-width="0.5"/>
<path d="M228.677 30.5605L165.177 31.5605C161.177 36.5605 160.177 70.5605 163.677 78.5605L198.177 77.0605C202.677 75.5605 209.177 70.0605 228.677 30.5605Z" fill="#E0426F" stroke="black" stroke-width="0.5"/>
<path d="M170.677 30.0606C166.177 30.5606 162.677 30.5606 159.677 30.5606L165.177 8.06062C168.177 7.56055 171.177 7.56055 174.177 8.06062L170.677 30.0606Z" fill="#E0426F" stroke="black" stroke-width="0.5"/>
<path d="M99.1772 32.0608C103.677 37.5608 110.677 34.0608 114.677 32.5608C115.677 17.0607 102.677 25.0607 99.1772 32.0608Z" fill="#E0426F" stroke="black" stroke-width="0.5"/>
<path d="M234.676 9.56055L231.676 13.0605C248.676 18.5605 259.176 21.5605 271.676 28.0605H273.176L281.176 26.5605C266.176 20.0605 258.676 17.5605 234.676 9.56055Z" fill="#EDADBF" stroke="black" stroke-width="0.5"/>
<path d="M271.676 28.0605C261.176 22.5605 242.176 16.0605 231.676 13.0605L229.676 15.5605L244.676 23.0605C243.176 25.5605 239.176 27.5605 233.176 30.2605C245.176 29.5605 262.176 28.5605 271.676 28.0605Z" fill="#EDADBF" stroke="black" stroke-width="0.5"/>
<path d="M277.178 34.3605L283.176 32.0605L272.677 28.0605L228.677 30.5605C221.177 45.5605 206.177 76.0605 198.177 77.0605H212.677C211.177 66.0605 220.677 42.5605 245.678 51.5605C256.178 46.0605 266.178 40.5605 277.178 34.3605Z" fill="#EDADBF" stroke="black" stroke-width="0.5"/>
<path d="M278.176 34.0606C266.176 40.5606 256.176 46.0606 245.676 51.5606C250.176 54.5605 260.676 60.5605 259.676 79.5605L284.676 79.0605V77.5605C293.176 76.5605 301.676 80.0605 300.176 66.0605L302.176 56.0605C302.176 54.5605 299.676 50.5605 297.176 50.0605C298.676 47.5605 295.676 38.5605 295.676 38.5605V37.0605L291.676 34.0605L286.676 32.5605L283.176 32.0605L278.176 34.0606Z" fill="#EDADBF" stroke="black" stroke-width="0.5"/>
<path d="M281.176 26.5605L272.676 28.0605L283.176 32.0605C292.676 33.0605 291.675 34.5605 295.67 36.9807L295.176 28.5605L281.176 26.5605Z" fill="#EDADBF"/>
<path d="M295.676 37.0605L295.67 36.9807M295.67 36.9807L295.176 28.5605L281.176 26.5605L272.676 28.0605L283.176 32.0605C292.676 33.0605 291.675 34.5605 295.67 36.9807Z" stroke="black" stroke-width="0.5"/>
<path d="M294.178 36.5607C293.678 34.0606 282.678 33.8606 277.178 34.3606" stroke="black" stroke-width="0.5"/>
<path d="M300.178 66.5605L260.678 68.5605C260.178 63.5605 258.011 59.3939 256.178 57.5605L302.178 55.0605M300.678 52.5605C289.678 51.0605 278.678 46.2605 266.678 40.2605M228.678 30.5605L272.678 28.0605L281.178 26.5605" stroke="black" stroke-width="0.5"/>
<path d="M290.678 40.5605C290.678 38.5605 289.678 34.5605 286.178 32.5605C288.399 32.5605 291.775 33.6009 294.287 35.9705C294.75 37.5005 293.678 41.0605 290.636 42.5605C290.622 41.9703 290.678 41.2848 290.678 40.5605Z" fill="#EDADBF"/>
<path d="M272.678 43.0605C279.673 43.4103 285.69 43.5154 291.071 44.0605M297.678 45.0605C295.575 44.6099 293.381 44.2946 291.071 44.0605M295.678 37.5605C295.26 36.9754 294.791 36.4462 294.287 35.9705M291.071 44.0605C290.745 43.7158 290.651 43.1927 290.636 42.5605M290.636 42.5605C290.622 41.9703 290.678 41.2848 290.678 40.5605C290.678 38.5605 289.678 34.5605 286.178 32.5605C288.399 32.5605 291.775 33.6009 294.287 35.9705M290.636 42.5605C293.678 41.0605 294.75 37.5005 294.287 35.9705" stroke="black" stroke-width="0.5"/>
<path d="M290.678 40.5605C286.178 40.5605 284.178 36.5605 283.178 34.0605" stroke="black" stroke-width="0.5"/>
<path d="M132.676 12.6605C119.176 16.6605 107.176 22.5605 93.1758 35.5605C100.176 23.5605 115.676 14.0605 131.176 9.06055L132.676 12.6605Z" fill="#E56E90" stroke="black" stroke-width="0.5"/>
<path d="M131.176 9.06055C111.176 14.7346 93.1758 32.0605 85.1758 30.0605C98.1758 20.5605 114.176 12.0605 130.676 7.56055L131.176 9.06055Z" fill="#E56E90" stroke="black" stroke-width="0.5"/>
<path d="M10.1764 48.0604H4.17645C1.67578 52.0604 1.67578 62.0604 2.17645 65.5604C0.675781 66.5604 0.676379 71.0604 1.67645 72.5604L5.67645 73.0604V74.5604L1.67645 76.5604V78.5604C5.67645 79.5604 14.1764 81.5604 22.1764 81.0604V79.5604H39.6764C39.0098 71.0604 40.6764 60.5604 49.6764 53.5604C47.1764 49.5604 40.1764 45.0604 37.1764 44.5604C27.1764 43.5604 12.1764 46.0604 10.1764 48.0604Z" fill="#E56E90" stroke="black" stroke-width="0.5"/>
<path d="M93.1772 35.5605C75.3439 36.3939 43.6772 41.2605 33.1772 44.2605L37.1772 44.5605C42.1772 46.0605 47.6772 50.3939 49.6772 53.5605C62.6763 44.0605 88.1763 51.0605 86.6763 78.5605H96.6763C89.6763 67.5605 90.6763 45.5605 93.1772 35.5605Z" fill="#E56E90" stroke="black" stroke-width="0.5"/>
<path d="M10.1758 48.0606H4.17578C36.676 28.5605 58.676 34.5605 84.6758 30.0605L93.676 35.5605C76.676 36.5605 47.6758 40.0605 33.6758 44.2606C25.6758 44.0605 11.6758 46.0605 10.1758 48.0606Z" fill="#E56E90" stroke="black" stroke-width="0.5"/>
<path d="M37.1772 44.5606C29.6772 43.5605 12.6772 45.5605 10.1772 48.0606C9.37724 50.4606 12.5106 53.3939 14.1772 54.5605C23.6772 56.0605 37.1772 50.0605 37.1772 44.5606Z" fill="#E56E90" stroke="black" stroke-width="0.5"/>
<path d="M4.17648 48.0605C11.1765 49.0605 5.17648 59.5605 2.17648 64.5605C1.67641 57.5605 2.17627 52.0605 4.17648 48.0605Z" fill="#E56E90" stroke="black" stroke-width="0.5"/>
<path d="M22.1758 84.0605V79.5605H39.6758L40.1758 84.0605H22.1758Z" fill="#E56E90" stroke="black" stroke-width="0.5"/>
<path d="M2.67773 65.5605C4.17773 68.0605 6.17773 71.2272 5.67773 73.0605M22.1777 79.5605C11.6777 80.0605 7.17773 76.0605 8.17773 72.5605C8.67773 72.0605 10.1777 70.5605 11.1777 70.5605" stroke="black" stroke-width="0.5"/>
<path d="M32.1777 74.5607C29.6777 70.5607 24.1777 65.5607 21.1777 64.0607C19.4277 63.5607 16.8026 63.6857 14.0525 64.0607C12.4276 65.3941 11.1777 68.5607 11.6777 71.5607C11.6777 72.7273 12.9852 75.0607 15.6777 75.0607C20.1777 75.0607 27.1777 75.5607 32.1777 74.5607Z" fill="#E56E90"/>
<path d="M6.17773 65.5607C8.42768 65.0607 11.3026 64.4357 14.0525 64.0607M14.0525 64.0607C16.8026 63.6857 19.4277 63.5607 21.1777 64.0607C24.1777 65.5607 29.6777 70.5607 32.1777 74.5607C27.1777 75.5607 20.1777 75.0607 15.6777 75.0607C12.9852 75.0607 11.6777 72.7273 11.6777 71.5607C11.1777 68.5607 12.4276 65.3941 14.0525 64.0607Z" stroke="black" stroke-width="0.5"/>
<path d="M11.6777 71.0607C19.6777 69.5608 23.1777 72.1893 26.1777 73.6893M13.1777 74.0608L30.6777 73.5608" stroke="black" stroke-width="0.5"/>
<path d="M22.1758 82.5605H31.6758C33.6758 82.5605 35.1758 80.5605 34.6758 79.5605M38.1758 79.5605V84.0605" stroke="black" stroke-width="0.5"/>
<path d="M22.1772 81.0608C17.6772 81.0608 13.1772 81.5608 1.67719 78.5608V76.5608L5.67719 74.5608V73.0608L1.67719 72.5608C1.17627 71.0605 0.176465 68.0605 2.17646 65.5605C1.6767 57.5605 2.1767 51.0605 4.17719 48.0603C36.6772 28.5607 58.6772 34.5607 84.6772 30.0607C162.677 -24.9394 244.677 12.0605 281.677 26.5607L295.177 28.5605L295.677 35.5605V38.5605C297.176 43.5605 298.511 48.0605 297.177 50.0605C299.677 51.0605 302.177 54.2272 302.177 56.0605L300.177 66.0605C300.629 76.9085 298.221 77.1327 288.889 77.4452C287.898 77.4784 285.829 77.5125 284.677 77.5605V79.0605L259.677 79.4916M22.1772 81.0608V84.0608H40.1755L39.6772 79.5608M22.1772 81.0608V79.5608H39.6772M39.6772 79.5608C36.6772 38.0608 90.1772 41.0608 86.6772 80.0608V82.5605H213.177C207.177 39.0605 261.677 39.0605 259.677 79.4916M259.176 79.4916H259.677" stroke="black"/>
</svg>
