<svg width="303" height="95" viewBox="0 0 303 95" fill="none" xmlns="http://www.w3.org/2000/svg">
<circle cx="62.8853" cy="73.8762" r="20.5" fill="#EFC7D3" stroke="black"/>
<circle cx="235.885" cy="73.8762" r="20.5" fill="#EFC7D3" stroke="black"/>
<path d="M132.884 12.3761L131.384 8.87608C171.384 0.876188 192.884 1.37622 231.884 12.8762L228.384 17.3762C208.384 9.37613 190.384 8.37613 174.384 7.8762C171.884 7.3762 167.884 7.37616 165.384 7.87608C155.384 7.8762 143.384 9.3762 132.884 12.3761Z" fill="#E56E90" stroke="black" stroke-width="0.5"/>
<path d="M131.384 8.87627L130.884 7.37626C166.884 -3.62378 199.384 0.376095 234.884 9.37627L231.884 12.8763C191.884 0.376221 165.884 1.87622 131.384 8.87627Z" fill="#E56E90" stroke="black" stroke-width="0.5"/>
<path d="M131.384 8.87609C182.884 -2.62394 211.384 7.3761 231.884 12.8761" stroke="black" stroke-width="0.5"/>
<path d="M170.885 29.8762L174.385 7.87622C207.885 8.87622 219.385 14.3762 223.885 15.8762L226.368 27.8762C199.378 27.8769 181.883 29.3763 170.885 29.8762Z" fill="#E56E90"/>
<path d="M226.885 30.3762L223.885 15.8762C219.385 14.3762 207.885 8.87622 174.385 7.87622L170.885 29.8762C181.885 29.3762 199.385 27.8762 226.385 27.8762" stroke="black" stroke-width="0.5"/>
<path d="M165.385 7.87622C132.385 8.87622 112.385 17.8762 93.3853 35.3762L95.8853 33.3762L159.885 30.3762L165.385 7.87622Z" fill="#E56E90" stroke="black" stroke-width="0.5"/>
<path d="M239.884 22.3762C236.217 19.7096 230.384 17.3762 223.884 15.8762L226.384 27.8762H232.884C235.884 26.3762 238.884 24.145 239.884 22.3762Z" fill="#E56E90" stroke="black" stroke-width="0.5"/>
<path d="M96.8853 78.3762H163.885L198.385 76.8762H212.885L213.385 82.3762H199.385H98.3853H86.8853V78.3762H96.8853Z" fill="#E56E90"/>
<path d="M96.8853 78.3762H163.885L198.385 76.8762M96.8853 78.3762C96.8853 79.8762 97.3853 80.8762 98.3853 82.3762M96.8853 78.3762H86.8853V82.3762H98.3853M198.385 76.8762L199.385 82.3762M198.385 76.8762H212.885L213.385 82.3762H199.385M199.385 82.3762H98.3853" stroke="black" stroke-width="0.5"/>
<path d="M96.8844 78.3762C92.3852 73.8762 89.3853 51.8762 93.3844 35.3762L165.385 31.3762C161.385 36.3762 160.385 70.3762 163.885 78.3762H96.8844Z" fill="#E56E90" stroke="black" stroke-width="0.5"/>
<path d="M228.885 30.3762L165.385 31.3762C161.385 36.3762 160.385 70.3762 163.885 78.3762L198.385 76.8762C202.885 75.3762 209.385 69.8762 228.885 30.3762Z" fill="#E56E90" stroke="black" stroke-width="0.5"/>
<path d="M170.885 29.8763C166.385 30.3763 162.885 30.3763 159.885 30.3763L165.385 7.87629C168.385 7.37622 171.385 7.37622 174.385 7.87629L170.885 29.8763Z" fill="#E56E90" stroke="black" stroke-width="0.5"/>
<path d="M99.3853 31.8762C103.885 37.3762 110.885 33.8762 114.885 32.3762C115.885 16.8761 102.885 24.8761 99.3853 31.8762Z" fill="#E56E90" stroke="black" stroke-width="0.5"/>
<path d="M234.884 9.37622L231.884 12.8762C248.884 18.3762 259.384 21.3762 271.884 27.8762H273.384L281.384 26.3762C266.384 19.8762 258.884 17.3762 234.884 9.37622Z" fill="#EFC7D3" stroke="black" stroke-width="0.5"/>
<path d="M271.884 27.8762C261.384 22.3762 242.384 15.8762 231.884 12.8762L229.884 15.3762L244.884 22.8762C243.384 25.3762 239.384 27.3762 233.384 30.0762C245.384 29.3762 262.384 28.3762 271.884 27.8762Z" fill="#EFC7D3" stroke="black" stroke-width="0.5"/>
<path d="M277.385 34.1762L283.384 31.8762L272.884 27.8762L228.884 30.3762C221.384 45.3762 206.384 75.8762 198.384 76.8762H212.884C211.384 65.8762 220.884 42.3762 245.885 51.3762C256.385 45.8762 266.385 40.3762 277.385 34.1762Z" fill="#EFC7D3" stroke="black" stroke-width="0.5"/>
<path d="M278.384 33.8762C266.384 40.3762 256.384 45.8762 245.884 51.3762C250.384 54.3762 260.884 60.3762 259.884 79.3762L284.884 78.8762V77.3762C293.384 76.3762 301.884 79.8762 300.384 65.8762L302.384 55.8762C302.384 54.3762 299.884 50.3762 297.384 49.8762C298.884 47.3762 295.884 38.3762 295.884 38.3762V36.8762L291.884 33.8762L286.884 32.3762L283.384 31.8762L278.384 33.8762Z" fill="#EFC7D3" stroke="black" stroke-width="0.5"/>
<path d="M281.384 26.3762L272.884 27.8762L283.384 31.8762C292.884 32.8762 291.883 34.3762 295.878 36.7964L295.384 28.3762L281.384 26.3762Z" fill="#EFC7D3"/>
<path d="M295.884 36.8762L295.878 36.7964M295.878 36.7964L295.384 28.3762L281.384 26.3762L272.884 27.8762L283.384 31.8762C292.884 32.8762 291.883 34.3762 295.878 36.7964Z" stroke="black" stroke-width="0.5"/>
<path d="M294.385 36.3764C293.885 33.8763 282.885 33.6762 277.385 34.1762" stroke="black" stroke-width="0.5"/>
<path d="M300.385 66.3762L260.885 68.3762C260.385 63.3762 258.219 59.2096 256.385 57.3762L302.385 54.8762M300.885 52.3762C289.885 50.8762 278.885 46.0762 266.885 40.0762M228.885 30.3762L272.885 27.8762L281.385 26.3762" stroke="black" stroke-width="0.5"/>
<path d="M290.885 40.3762C290.885 38.3762 289.885 34.3762 286.385 32.3762C288.606 32.3762 291.983 33.4166 294.494 35.7862C294.958 37.3162 293.885 40.8762 290.843 42.3762C290.83 41.7859 290.885 41.1005 290.885 40.3762Z" fill="#EFC7D3"/>
<path d="M272.885 42.8762C279.881 43.226 285.898 43.3311 291.278 43.8762M297.885 44.8762C295.782 44.4256 293.589 44.1103 291.278 43.8762M295.885 37.3762C295.467 36.7911 294.998 36.2619 294.494 35.7862M291.278 43.8762C290.952 43.5315 290.858 43.0084 290.843 42.3762M290.843 42.3762C290.83 41.7859 290.885 41.1005 290.885 40.3762C290.885 38.3762 289.885 34.3762 286.385 32.3762C288.606 32.3762 291.983 33.4166 294.494 35.7862M290.843 42.3762C293.885 40.8762 294.958 37.3162 294.494 35.7862" stroke="black" stroke-width="0.5"/>
<path d="M290.885 40.3762C286.385 40.3762 284.385 36.3762 283.385 33.8762" stroke="black" stroke-width="0.5"/>
<path d="M132.884 12.4762C119.384 16.4762 107.384 22.3762 93.3838 35.3762C100.384 23.3762 115.884 13.8762 131.384 8.87622L132.884 12.4762Z" fill="#EFC7D3" stroke="black" stroke-width="0.5"/>
<path d="M131.384 8.87622C111.384 14.5503 93.3838 31.8762 85.3838 29.8762C98.3838 20.3762 114.384 11.8762 130.884 7.37622L131.384 8.87622Z" fill="#EFC7D3" stroke="black" stroke-width="0.5"/>
<path d="M10.3845 47.8761H4.38446C1.88379 51.8761 1.88379 61.8761 2.38446 65.3761C0.883789 66.3761 0.884387 70.8761 1.88446 72.3761L5.88446 72.8761V74.3761L1.88446 76.3761V78.3761C5.88446 79.3761 14.3845 81.3761 22.3845 80.8761V79.3761H39.8845C39.2178 70.8761 40.8845 60.3761 49.8845 53.3761C47.3845 49.3761 40.3845 44.8761 37.3845 44.3761C27.3845 43.3761 12.3845 45.8761 10.3845 47.8761Z" fill="#EFC7D3" stroke="black" stroke-width="0.5"/>
<path d="M93.3853 35.3762C75.5519 36.2096 43.8853 41.0762 33.3853 44.0762L37.3853 44.3762C42.3853 45.8762 47.8853 50.2096 49.8853 53.3762C62.8843 43.8762 88.3843 50.8762 86.8843 78.3762H96.8843C89.8843 67.3762 90.8843 45.3762 93.3853 35.3762Z" fill="#EFC7D3" stroke="black" stroke-width="0.5"/>
<path d="M10.3838 47.8763H4.38379C36.884 28.3762 58.884 34.3762 84.8838 29.8762L93.884 35.3762C76.884 36.3762 47.8838 39.8762 33.8838 44.0762C25.8838 43.8762 11.8838 45.8762 10.3838 47.8763Z" fill="#EFC7D3" stroke="black" stroke-width="0.5"/>
<path d="M37.3852 44.3763C29.8852 43.3762 12.8852 45.3762 10.3852 47.8763C9.58524 50.2762 12.7186 53.2096 14.3852 54.3762C23.8853 55.8762 37.3852 49.8762 37.3852 44.3763Z" fill="#EFC7D3" stroke="black" stroke-width="0.5"/>
<path d="M4.38448 47.8762C11.3845 48.8762 5.38448 59.3762 2.38448 64.3762C1.88441 57.3762 2.38428 51.8762 4.38448 47.8762Z" fill="#EFC7D3" stroke="black" stroke-width="0.5"/>
<path d="M22.3838 83.8762V79.3762H39.8838L40.3838 83.8762H22.3838Z" fill="#EFC7D3" stroke="black" stroke-width="0.5"/>
<path d="M2.88574 65.376C4.38574 67.876 6.38574 71.0426 5.88574 72.876M22.3857 79.376C11.8857 79.876 7.38574 75.876 8.38574 72.376C8.88574 71.876 10.3857 70.376 11.3857 70.376" stroke="black" stroke-width="0.5"/>
<path d="M32.3857 74.3761C29.8857 70.3761 24.3857 65.3762 21.3857 63.8762C19.6357 63.3762 17.0106 63.5012 14.2605 63.8762C12.6356 65.2095 11.3857 68.3761 11.8857 71.3761C11.8857 72.5428 13.1932 74.8761 15.8857 74.8761C20.3857 74.8761 27.3857 75.3761 32.3857 74.3761Z" fill="#EFC7D3"/>
<path d="M6.38574 65.3762C8.63568 64.8762 11.5106 64.2512 14.2605 63.8762M14.2605 63.8762C17.0106 63.5012 19.6357 63.3762 21.3857 63.8762C24.3857 65.3762 29.8857 70.3761 32.3857 74.3761C27.3857 75.3761 20.3857 74.8761 15.8857 74.8761C13.1932 74.8761 11.8857 72.5428 11.8857 71.3761C11.3857 68.3761 12.6356 65.2095 14.2605 63.8762Z" stroke="black" stroke-width="0.5"/>
<path d="M11.8857 70.8762C19.8857 69.3762 23.3857 72.0047 26.3857 73.5047M13.3857 73.8762L30.8857 73.3762" stroke="black" stroke-width="0.5"/>
<path d="M22.3838 82.376H31.8838C33.8838 82.376 35.3838 80.376 34.8838 79.376M38.3838 79.376V83.876" stroke="black" stroke-width="0.5"/>
<path d="M22.3852 80.8765C17.8852 80.8765 13.3852 81.3765 1.8852 78.3765V76.3765L5.8852 74.3765V72.8765L1.8852 72.3765C1.38428 70.8762 0.384473 67.8762 2.38447 65.3762C1.88471 57.3762 2.38471 50.8762 4.3852 47.876C36.8852 28.3764 58.8852 34.3764 84.8852 29.8764C162.885 -25.1237 244.885 11.8762 281.885 26.3764L295.385 28.3762L295.885 35.3762V38.3762C297.384 43.3762 298.719 47.8762 297.385 49.8762C299.885 50.8762 302.385 54.0429 302.385 55.8762L300.385 65.8762C300.837 76.7241 298.429 76.9484 289.098 77.2609C288.106 77.294 286.037 77.3282 284.885 77.3762V78.8762L259.885 79.3073M22.3852 80.8765V83.8765H40.3835L39.8852 79.3765M22.3852 80.8765V79.3765H39.8852M39.8852 79.3765C36.8852 37.8765 90.3852 40.8765 86.8852 79.8765V82.3762H213.385C207.385 38.8762 261.885 38.8762 259.885 79.3073M259.384 79.3073H259.885" stroke="black"/>
</svg>
