<svg width="303" height="95" viewBox="0 0 303 95" fill="none" xmlns="http://www.w3.org/2000/svg">
<circle cx="62.8955" cy="73.7222" r="20.5" fill="#EFC7D3" stroke="black"/>
<circle cx="235.896" cy="73.7222" r="20.5" fill="#EFC7D3" stroke="black"/>
<path d="M132.894 12.222L131.394 8.72202C171.394 0.722136 192.894 1.22217 231.894 12.7221L228.394 17.2221C208.394 9.22208 190.394 8.22208 174.394 7.72215C171.894 7.22215 167.894 7.22211 165.394 7.72202C155.394 7.72215 143.394 9.22215 132.894 12.222Z" fill="#E0426F" stroke="black" stroke-width="0.5"/>
<path d="M131.394 8.72221L130.894 7.22221C166.894 -3.77783 199.394 0.222042 234.894 9.22221L231.894 12.7222C191.894 0.222168 165.894 1.72217 131.394 8.72221Z" fill="#E0426F" stroke="black" stroke-width="0.5"/>
<path d="M131.394 8.72228C182.894 -2.77775 211.394 7.22229 231.894 12.7223" stroke="black" stroke-width="0.5"/>
<path d="M170.896 29.7222L174.396 7.72217C207.896 8.72217 219.396 14.2222 223.896 15.7222L226.378 27.7222C199.388 27.7228 181.893 29.2223 170.896 29.7222Z" fill="#E0426F"/>
<path d="M226.896 30.2222L223.896 15.7222C219.396 14.2222 207.896 8.72217 174.396 7.72217L170.896 29.7222C181.896 29.2222 199.396 27.7222 226.396 27.7222" stroke="black" stroke-width="0.5"/>
<path d="M165.396 7.72217C132.396 8.72217 112.396 17.7222 93.3955 35.2222L95.8955 33.2222L159.896 30.2222L165.396 7.72217Z" fill="#E0426F" stroke="black" stroke-width="0.5"/>
<path d="M239.894 22.2222C236.227 19.5555 230.394 17.2222 223.894 15.7222L226.394 27.7222H232.894C235.894 26.2222 238.894 23.9909 239.894 22.2222Z" fill="#E0426F" stroke="black" stroke-width="0.5"/>
<path d="M96.8955 78.2222H163.896L198.396 76.7222H212.896L213.396 82.2222H199.396H98.3955H86.8955V78.2222H96.8955Z" fill="#E0426F"/>
<path d="M96.8955 78.2222H163.896L198.396 76.7222M96.8955 78.2222C96.8955 79.7222 97.3955 80.7222 98.3955 82.2222M96.8955 78.2222H86.8955V82.2222H98.3955M198.396 76.7222L199.396 82.2222M198.396 76.7222H212.896L213.396 82.2222H199.396M199.396 82.2222H98.3955" stroke="black" stroke-width="0.5"/>
<path d="M96.8946 78.2222C92.3955 73.7222 89.3956 51.7222 93.3946 35.2222L165.396 31.2222C161.396 36.2222 160.396 70.2222 163.896 78.2222H96.8946Z" fill="#E0426F" stroke="black" stroke-width="0.5"/>
<path d="M228.895 30.2222L165.395 31.2222C161.396 36.2222 160.396 70.2222 163.895 78.2222L198.395 76.7222C202.895 75.2222 209.395 69.7222 228.895 30.2222Z" fill="#E0426F" stroke="black" stroke-width="0.5"/>
<path d="M170.896 29.7222C166.396 30.2222 162.896 30.2222 159.896 30.2222L165.396 7.72224C168.396 7.22217 171.396 7.22217 174.396 7.72224L170.896 29.7222Z" fill="#E0426F" stroke="black" stroke-width="0.5"/>
<path d="M99.3955 31.7224C103.896 37.2224 110.896 33.7224 114.896 32.2224C115.896 16.7223 102.896 24.7223 99.3955 31.7224Z" fill="#E0426F" stroke="black" stroke-width="0.5"/>
<path d="M234.894 9.22217L231.894 12.7222C248.894 18.2222 259.394 21.2222 271.894 27.7222H273.394L281.394 26.2222C266.394 19.7222 258.894 17.2222 234.894 9.22217Z" stroke="black" stroke-width="0.5"/>
<path d="M271.894 27.7222C261.394 22.2222 242.394 15.7222 231.894 12.7222L229.894 15.2222L244.894 22.7222C243.394 25.2222 239.394 27.2222 233.394 29.9222C245.394 29.2222 262.394 28.2222 271.894 27.7222Z" stroke="black" stroke-width="0.5"/>
<path d="M277.396 34.0222L283.394 31.7222L272.895 27.7222L228.895 30.2222C221.395 45.2222 206.395 75.7222 198.395 76.7222H212.895C211.395 65.7222 220.895 42.2222 245.896 51.2222C256.396 45.7222 266.396 40.2222 277.396 34.0222Z" stroke="black" stroke-width="0.5"/>
<path d="M278.394 33.7222C266.394 40.2222 256.394 45.7222 245.894 51.2222C250.394 54.2222 260.894 60.2222 259.894 79.2222L284.894 78.7222V77.2222C293.394 76.2222 301.894 79.7222 300.394 65.7222L302.394 55.7222C302.394 54.2222 299.894 50.2222 297.394 49.7222C298.894 47.2222 295.894 38.2222 295.894 38.2222V36.7222L291.894 33.7222L286.894 32.2222L283.394 31.7222L278.394 33.7222Z" stroke="black" stroke-width="0.5"/>
<path d="M295.894 36.7222L295.888 36.6423M295.888 36.6423L295.394 28.2222L281.394 26.2222L272.894 27.7222L283.394 31.7222C292.894 32.7222 291.892 34.2222 295.888 36.6423Z" stroke="black" stroke-width="0.5"/>
<path d="M294.396 36.2224C293.896 33.7223 282.896 33.5222 277.396 34.0222" stroke="black" stroke-width="0.5"/>
<path d="M300.396 66.2222L260.896 68.2222C260.396 63.2222 258.229 59.0555 256.396 57.2222L302.396 54.7222M300.896 52.2222C289.896 50.7222 278.896 45.9222 266.896 39.9222M228.896 30.2222L272.896 27.7222L281.396 26.2222" stroke="black" stroke-width="0.5"/>
<path d="M272.896 42.7222C279.891 43.072 285.908 43.177 291.289 43.7222M297.896 44.7222C295.793 44.2715 293.599 43.9563 291.289 43.7222M295.896 37.2222C295.478 36.637 295.008 36.1078 294.504 35.6322M291.289 43.7222C290.962 43.3774 290.868 42.8544 290.854 42.2222M290.854 42.2222C290.84 41.6319 290.896 40.9465 290.896 40.2222C290.896 38.2222 289.896 34.2222 286.396 32.2222C288.616 32.2222 291.993 33.2626 294.504 35.6322M290.854 42.2222C293.896 40.7222 294.968 37.1622 294.504 35.6322" stroke="black" stroke-width="0.5"/>
<path d="M290.896 40.2222C286.396 40.2222 284.396 36.2222 283.396 33.7222" stroke="black" stroke-width="0.5"/>
<path d="M132.894 12.3221C119.394 16.3221 107.394 22.2222 93.394 35.2222C100.394 23.2222 115.894 13.7222 131.394 8.72217L132.894 12.3221Z" fill="#EFC7D3" stroke="black" stroke-width="0.5"/>
<path d="M131.394 8.72217C111.394 14.3962 93.394 31.7222 85.394 29.7222C98.394 20.2222 114.394 11.7222 130.894 7.22217L131.394 8.72217Z" fill="#EFC7D3" stroke="black" stroke-width="0.5"/>
<path d="M10.3947 47.7221H4.39471C1.89404 51.722 1.89404 61.722 2.39471 65.222C0.894043 66.222 0.89464 70.722 1.89471 72.222L5.89471 72.722V74.222L1.89471 76.222V78.222C5.89471 79.222 14.3947 81.222 22.3947 80.722V79.222H39.8947C39.228 70.722 40.8947 60.222 49.8947 53.222C47.3947 49.222 40.3947 44.722 37.3947 44.2221C27.3947 43.222 12.3947 45.7221 10.3947 47.7221Z" fill="#EFC7D3" stroke="black" stroke-width="0.5"/>
<path d="M93.3955 35.2222C75.5622 36.0555 43.8955 40.9222 33.3955 43.9222L37.3955 44.2222C42.3955 45.7222 47.8955 50.0555 49.8955 53.2222C62.8945 43.7222 88.3945 50.7222 86.8945 78.2222H96.8945C89.8945 67.2222 90.8945 45.2222 93.3955 35.2222Z" fill="#EFC7D3" stroke="black" stroke-width="0.5"/>
<path d="M10.3936 47.7222H4.39355C36.8937 28.2221 58.8938 34.2222 84.8936 29.7222L93.8938 35.2222C76.8938 36.2222 47.8936 39.7222 33.8936 43.9222C25.8936 43.7222 11.8936 45.7222 10.3936 47.7222Z" fill="#EFC7D3" stroke="black" stroke-width="0.5"/>
<path d="M37.3955 44.2222C29.8955 43.2222 12.8955 45.2222 10.3955 47.7222C9.5955 50.1222 12.7288 53.0555 14.3955 54.2222C23.8955 55.7222 37.3955 49.7222 37.3955 44.2222Z" fill="#EFC7D3" stroke="black" stroke-width="0.5"/>
<path d="M4.39474 47.7222C11.3947 48.7222 5.39474 59.2222 2.39474 64.2222C1.89467 57.2222 2.39453 51.7222 4.39474 47.7222Z" fill="#EFC7D3" stroke="black" stroke-width="0.5"/>
<path d="M22.394 83.7222V79.2222H39.894L40.394 83.7222H22.394Z" fill="#EFC7D3" stroke="black" stroke-width="0.5"/>
<path d="M2.89551 65.2222C4.39551 67.7222 6.39551 70.8888 5.89551 72.7222M22.3955 79.2222C11.8955 79.7222 7.39551 75.7222 8.39551 72.2222C8.89551 71.7222 10.3955 70.2222 11.3955 70.2222" stroke="black" stroke-width="0.5"/>
<path d="M32.3955 74.2223C29.8955 70.2223 24.3955 65.2224 21.3955 63.7224C19.6455 63.2224 17.0204 63.3474 14.2703 63.7224C12.6454 65.0557 11.3955 68.2223 11.8955 71.2223C11.8955 72.389 13.2029 74.7223 15.8955 74.7223C20.3955 74.7223 27.3955 75.2223 32.3955 74.2223Z" fill="#EFC7D3"/>
<path d="M6.39551 65.2224C8.64545 64.7223 11.5204 64.0974 14.2703 63.7224M14.2703 63.7224C17.0204 63.3474 19.6455 63.2224 21.3955 63.7224C24.3955 65.2224 29.8955 70.2223 32.3955 74.2223C27.3955 75.2223 20.3955 74.7223 15.8955 74.7223C13.2029 74.7223 11.8955 72.389 11.8955 71.2223C11.3955 68.2223 12.6454 65.0557 14.2703 63.7224Z" stroke="black" stroke-width="0.5"/>
<path d="M11.8955 70.7224C19.8955 69.2224 23.3955 71.8509 26.3955 73.3509M13.3955 73.7224L30.8955 73.2224" stroke="black" stroke-width="0.5"/>
<path d="M22.3936 82.2222H31.8936C33.8936 82.2222 35.3936 80.2222 34.8936 79.2222M38.3936 79.2222V83.7222" stroke="black" stroke-width="0.5"/>
<path d="M22.3955 80.7224C17.8955 80.7224 13.3955 81.2224 1.89545 78.2224V76.2224L5.89545 74.2224V72.7224L1.89545 72.2224C1.39453 70.7222 0.394727 67.7222 2.39472 65.2222C1.89497 57.2222 2.39497 50.7222 4.39545 47.7219C36.8955 28.2223 58.8954 34.2224 84.8954 29.7224C162.895 -25.2778 244.895 11.7222 281.895 26.2223L295.395 28.2222L295.895 35.2222V38.2222C297.394 43.2222 298.729 47.7222 297.395 49.7222C299.895 50.7222 302.395 53.8888 302.395 55.7222L300.395 65.7222C300.847 76.5701 298.439 76.7944 289.108 77.1068C288.117 77.14 286.048 77.1742 284.895 77.2222V78.7222L259.895 79.1532M22.3955 80.7224V83.7224H40.3938L39.8955 79.2224M22.3955 80.7224V79.2224H39.8955M39.8955 79.2224C36.8955 37.7224 90.3954 40.7224 86.8954 79.7224V82.2222H213.395C207.395 38.7222 261.895 38.7222 259.895 79.1532M259.394 79.1532H259.895" stroke="black"/>
</svg>
