<svg width="303" height="95" viewBox="0 0 303 95" fill="none" xmlns="http://www.w3.org/2000/svg">
<circle cx="62.6772" cy="73.8459" r="20.5" stroke="black"/>
<circle cx="235.678" cy="73.8459" r="20.5" stroke="black"/>
<path d="M132.676 12.3458L131.176 8.8458C171.176 0.845915 192.676 1.34595 231.676 12.8459L228.176 17.3459C208.176 9.34586 190.176 8.34586 174.176 7.84592C171.676 7.34592 167.676 7.34589 165.176 7.8458C155.176 7.84592 143.176 9.34592 132.676 12.3458Z" stroke="black" stroke-width="0.5"/>
<path d="M131.176 8.84599L130.676 7.34599C166.676 -3.65405 199.176 0.345821 234.676 9.34599L231.676 12.846C191.676 0.345947 165.676 1.84595 131.176 8.84599Z" stroke="black" stroke-width="0.5"/>
<path d="M131.176 8.84593C182.676 -2.65409 211.176 7.34595 231.676 12.8459" stroke="black" stroke-width="0.5"/>
<path d="M226.677 30.3459L223.677 15.8459C219.177 14.3459 207.677 8.84595 174.177 7.84595L170.677 29.8459C181.677 29.3459 199.177 27.8459 226.177 27.8459" stroke="black" stroke-width="0.5"/>
<path d="M165.177 7.84595C132.177 8.84595 112.177 17.8459 93.1772 35.3459L95.6772 33.3459L159.677 30.3459L165.177 7.84595Z" stroke="black" stroke-width="0.5"/>
<path d="M239.676 22.3459C236.009 19.6793 230.176 17.3459 223.676 15.8459L226.176 27.8459H232.676C235.676 26.3459 238.676 24.1147 239.676 22.3459Z" stroke="black" stroke-width="0.5"/>
<path d="M96.6772 78.3459H163.677L198.177 76.8459M96.6772 78.3459C96.6772 79.8459 97.1772 80.8459 98.1772 82.3459M96.6772 78.3459H86.6772V82.3459H98.1772M198.177 76.8459L199.177 82.3459M198.177 76.8459H212.677L213.177 82.3459H199.177M199.177 82.3459H98.1772" stroke="black" stroke-width="0.5"/>
<path d="M96.6764 78.3459C92.1772 73.8459 89.1773 51.8459 93.1764 35.3459L165.177 31.3459C161.177 36.3459 160.177 70.3459 163.677 78.3459H96.6764Z" stroke="black" stroke-width="0.5"/>
<path d="M228.677 30.3459L165.177 31.3459C161.177 36.3459 160.177 70.3459 163.677 78.3459L198.177 76.8459C202.677 75.3459 209.177 69.8459 228.677 30.3459Z" stroke="black" stroke-width="0.5"/>
<path d="M170.677 29.846C166.177 30.346 162.677 30.346 159.677 30.346L165.177 7.84602C168.177 7.34595 171.177 7.34595 174.177 7.84602L170.677 29.846Z" stroke="black" stroke-width="0.5"/>
<path d="M99.1772 31.8461C103.677 37.3461 110.677 33.8461 114.677 32.3461C115.677 16.846 102.677 24.8459 99.1772 31.8461Z" stroke="black" stroke-width="0.5"/>
<path d="M234.676 9.34595L231.676 12.8459C248.676 18.3459 259.176 21.3459 271.676 27.8459H273.176L281.176 26.3459C266.176 19.8459 258.676 17.3459 234.676 9.34595Z" fill="#EDADBF" stroke="black" stroke-width="0.5"/>
<path d="M271.676 27.8459C261.176 22.3459 242.176 15.8459 231.676 12.8459L229.676 15.3459L244.676 22.8459C243.176 25.3459 239.176 27.3459 233.176 30.0459C245.176 29.3459 262.176 28.3459 271.676 27.8459Z" fill="#EDADBF" stroke="black" stroke-width="0.5"/>
<path d="M277.178 34.1459L283.176 31.8459L272.677 27.8459L228.677 30.3459C221.177 45.3459 206.177 75.8459 198.177 76.8459H212.677C211.177 65.8459 220.677 42.3459 245.678 51.3459C256.178 45.8459 266.178 40.3459 277.178 34.1459Z" fill="#EDADBF" stroke="black" stroke-width="0.5"/>
<path d="M278.176 33.846C266.176 40.346 256.176 45.846 245.676 51.346C250.176 54.3459 260.676 60.3459 259.676 79.3459L284.676 78.8459V77.3459C293.176 76.3459 301.676 79.8459 300.176 65.8459L302.176 55.8459C302.176 54.3459 299.676 50.3459 297.176 49.8459C298.676 47.3459 295.676 38.3459 295.676 38.3459V36.8459L291.676 33.8459L286.676 32.3459L283.176 31.8459L278.176 33.846Z" fill="#EDADBF" stroke="black" stroke-width="0.5"/>
<path d="M281.176 26.3459L272.676 27.8459L283.176 31.8459C292.676 32.8459 291.675 34.3459 295.67 36.7661L295.176 28.3459L281.176 26.3459Z" fill="#EDADBF"/>
<path d="M295.676 36.8459L295.67 36.7661M295.67 36.7661L295.176 28.3459L281.176 26.3459L272.676 27.8459L283.176 31.8459C292.676 32.8459 291.675 34.3459 295.67 36.7661Z" stroke="black" stroke-width="0.5"/>
<path d="M294.178 36.3461C293.678 33.846 282.678 33.646 277.178 34.146" stroke="black" stroke-width="0.5"/>
<path d="M300.178 66.3459L260.678 68.3459C260.178 63.3459 258.011 59.1793 256.178 57.3459L302.178 54.8459M300.678 52.3459C289.678 50.8459 278.678 46.0459 266.678 40.0459M228.678 30.3459L272.678 27.8459L281.178 26.3459" stroke="black" stroke-width="0.5"/>
<path d="M290.678 40.3459C290.678 38.3459 289.678 34.3459 286.178 32.3459C288.399 32.3459 291.775 33.3863 294.287 35.7559C294.75 37.2859 293.678 40.8459 290.636 42.3459C290.622 41.7557 290.678 41.0702 290.678 40.3459Z" fill="#EDADBF"/>
<path d="M272.678 42.8459C279.673 43.1957 285.69 43.3008 291.071 43.8459M297.678 44.8459C295.575 44.3953 293.381 44.08 291.071 43.8459M295.678 37.3459C295.26 36.7608 294.791 36.2316 294.287 35.7559M291.071 43.8459C290.745 43.5012 290.651 42.9781 290.636 42.3459M290.636 42.3459C290.622 41.7557 290.678 41.0702 290.678 40.3459C290.678 38.3459 289.678 34.3459 286.178 32.3459C288.399 32.3459 291.775 33.3863 294.287 35.7559M290.636 42.3459C293.678 40.8459 294.75 37.2859 294.287 35.7559" stroke="black" stroke-width="0.5"/>
<path d="M290.678 40.3459C286.178 40.3459 284.178 36.3459 283.178 33.8459" stroke="black" stroke-width="0.5"/>
<path d="M132.676 12.4459C119.176 16.4459 107.176 22.3459 93.1758 35.3459C100.176 23.3459 115.676 13.8459 131.176 8.84595L132.676 12.4459Z" fill="#E0426F" stroke="black" stroke-width="0.5"/>
<path d="M131.176 8.84595C111.176 14.52 93.1758 31.8459 85.1758 29.8459C98.1758 20.3459 114.176 11.8459 130.676 7.34595L131.176 8.84595Z" fill="#E0426F" stroke="black" stroke-width="0.5"/>
<path d="M10.1764 47.846H4.17645C1.67578 51.8459 1.67578 61.8459 2.17645 65.3459C0.675781 66.3459 0.676379 70.8459 1.67645 72.3459L5.67645 72.8459V74.3459L1.67645 76.3459V78.3459C5.67645 79.3459 14.1764 81.3459 22.1764 80.8459V79.3459H39.6764C39.0098 70.8459 40.6764 60.3459 49.6764 53.3459C47.1764 49.3459 40.1764 44.8459 37.1764 44.346C27.1764 43.3459 12.1764 45.846 10.1764 47.846Z" fill="#E0426F" stroke="black" stroke-width="0.5"/>
<path d="M93.1772 35.3459C75.3439 36.1793 43.6772 41.0459 33.1772 44.0459L37.1772 44.3459C42.1772 45.8459 47.6772 50.1793 49.6772 53.3459C62.6763 43.8459 88.1763 50.8459 86.6763 78.3459H96.6763C89.6763 67.3459 90.6763 45.3459 93.1772 35.3459Z" fill="#E0426F" stroke="black" stroke-width="0.5"/>
<path d="M10.1758 47.846H4.17578C36.676 28.3459 58.676 34.3459 84.6758 29.8459L93.676 35.3459C76.676 36.3459 47.6758 39.8459 33.6758 44.046C25.6758 43.8459 11.6758 45.8459 10.1758 47.846Z" fill="#E0426F" stroke="black" stroke-width="0.5"/>
<path d="M37.1772 44.346C29.6772 43.3459 12.6772 45.3459 10.1772 47.846C9.37724 50.246 12.5106 53.1793 14.1772 54.3459C23.6772 55.8459 37.1772 49.8459 37.1772 44.346Z" fill="#E0426F" stroke="black" stroke-width="0.5"/>
<path d="M4.17648 47.8459C11.1765 48.8459 5.17648 59.3459 2.17648 64.3459C1.67641 57.3459 2.17627 51.8459 4.17648 47.8459Z" fill="#E0426F" stroke="black" stroke-width="0.5"/>
<path d="M22.1758 83.8459V79.3459H39.6758L40.1758 83.8459H22.1758Z" fill="#E0426F" stroke="black" stroke-width="0.5"/>
<path d="M2.67773 65.3459C4.17773 67.8459 6.17773 71.0126 5.67773 72.8459M22.1777 79.3459C11.6777 79.8459 7.17773 75.8459 8.17773 72.3459C8.67773 71.8459 10.1777 70.3459 11.1777 70.3459" stroke="black" stroke-width="0.5"/>
<path d="M32.1777 74.3459C29.6777 70.3459 24.1777 65.346 21.1777 63.846C19.4277 63.346 16.8026 63.471 14.0525 63.846C12.4276 65.1793 11.1777 68.3459 11.6777 71.3459C11.6777 72.5126 12.9852 74.8459 15.6777 74.8459C20.1777 74.8459 27.1777 75.3459 32.1777 74.3459Z" fill="#E0426F"/>
<path d="M6.17773 65.346C8.42768 64.846 11.3026 64.221 14.0525 63.846M14.0525 63.846C16.8026 63.471 19.4277 63.346 21.1777 63.846C24.1777 65.346 29.6777 70.3459 32.1777 74.3459C27.1777 75.3459 20.1777 74.8459 15.6777 74.8459C12.9852 74.8459 11.6777 72.5126 11.6777 71.3459C11.1777 68.3459 12.4276 65.1793 14.0525 63.846Z" stroke="black" stroke-width="0.5"/>
<path d="M11.6777 70.846C19.6777 69.3461 23.1777 71.9745 26.1777 73.4745M13.1777 73.8461L30.6777 73.3461" stroke="black" stroke-width="0.5"/>
<path d="M22.1758 82.3459H31.6758C33.6758 82.3459 35.1758 80.3459 34.6758 79.3459M38.1758 79.3459V83.8459" stroke="black" stroke-width="0.5"/>
<path d="M22.1772 80.8462C17.6772 80.8462 13.1772 81.3462 1.67719 78.3462V76.3462L5.67719 74.3462V72.8462L1.67719 72.3462C1.17627 70.8459 0.176465 67.8459 2.17646 65.3459C1.6767 57.3459 2.1767 50.8459 4.17719 47.8457C36.6772 28.3461 58.6772 34.3461 84.6772 29.8461C162.677 -25.154 244.677 11.8459 281.677 26.3461L295.177 28.3459L295.677 35.3459V38.3459C297.176 43.3459 298.511 47.8459 297.177 49.8459C299.677 50.8459 302.177 54.0126 302.177 55.8459L300.177 65.8459C300.629 76.6939 298.221 76.9181 288.889 77.2306C287.898 77.2638 285.829 77.2979 284.677 77.3459V78.8459L259.677 79.277M22.1772 80.8462V83.8462H40.1755L39.6772 79.3462M22.1772 80.8462V79.3462H39.6772M39.6772 79.3462C36.6772 37.8462 90.1772 40.8462 86.6772 79.8462V82.3459H213.177C207.177 38.8459 261.677 38.8459 259.677 79.277M259.176 79.277H259.677" stroke="black"/>
</svg>
