<svg width="303" height="96" viewBox="0 0 303 96" fill="none" xmlns="http://www.w3.org/2000/svg">
<circle cx="62.2817" cy="74.3535" r="20.5" fill="#E56E90" stroke="black"/>
<circle cx="235.282" cy="74.3535" r="20.5" fill="#E56E90" stroke="black"/>
<path d="M132.28 12.8534L130.78 9.35337C170.78 1.35348 192.28 1.85352 231.28 13.3535L227.78 17.8535C207.78 9.85343 189.78 8.85342 173.78 8.35349C171.28 7.85349 167.28 7.85345 164.78 8.35337C154.78 8.35349 142.78 9.85349 132.28 12.8534Z" fill="#EFC7D3" stroke="black" stroke-width="0.5"/>
<path d="M130.78 9.35356L130.28 7.85356C166.28 -3.14648 198.78 0.85339 234.28 9.85356L231.28 13.3536C191.28 0.853516 165.28 2.35352 130.78 9.35356Z" fill="#EFC7D3" stroke="black" stroke-width="0.5"/>
<path d="M130.78 9.3535C182.28 -2.14652 210.78 7.85352 231.28 13.3535" stroke="black" stroke-width="0.5"/>
<path d="M170.282 30.3535L173.782 8.35352C207.282 9.35352 218.782 14.8535 223.282 16.3535L225.764 28.3535C198.774 28.3542 181.279 29.8536 170.282 30.3535Z" fill="#EFC7D3"/>
<path d="M226.282 30.8535L223.282 16.3535C218.782 14.8535 207.282 9.35352 173.782 8.35352L170.282 30.3535C181.282 29.8535 198.782 28.3535 225.782 28.3535" stroke="black" stroke-width="0.5"/>
<path d="M164.782 8.35352C131.782 9.35352 111.782 18.3535 92.7817 35.8535L95.2817 33.8535L159.282 30.8535L164.782 8.35352Z" fill="#EFC7D3" stroke="black" stroke-width="0.5"/>
<path d="M239.28 22.8535C235.614 20.1868 229.78 17.8535 223.28 16.3535L225.78 28.3535H232.28C235.28 26.8535 238.28 24.6223 239.28 22.8535Z" fill="#EFC7D3" stroke="black" stroke-width="0.5"/>
<path d="M96.2817 78.8535H163.282L197.782 77.3535H212.282L212.782 82.8535H198.782H97.7817H86.2817V78.8535H96.2817Z" fill="#EFC7D3"/>
<path d="M96.2817 78.8535H163.282L197.782 77.3535M96.2817 78.8535C96.2817 80.3535 96.7817 81.3535 97.7817 82.8535M96.2817 78.8535H86.2817V82.8535H97.7817M197.782 77.3535L198.782 82.8535M197.782 77.3535H212.282L212.782 82.8535H198.782M198.782 82.8535H97.7817" stroke="black" stroke-width="0.5"/>
<path d="M96.2809 78.8535C91.7817 74.3535 88.7818 52.3535 92.7809 35.8535L164.782 31.8535C160.782 36.8535 159.782 70.8535 163.282 78.8535H96.2809Z" fill="#EFC7D3" stroke="black" stroke-width="0.5"/>
<path d="M228.281 30.8535L164.781 31.8535C160.781 36.8535 159.781 70.8535 163.281 78.8535L197.781 77.3535C202.281 75.8535 208.781 70.3535 228.281 30.8535Z" fill="#EFC7D3" stroke="black" stroke-width="0.5"/>
<path d="M170.282 30.3536C165.782 30.8536 162.282 30.8536 159.282 30.8536L164.782 8.35359C167.782 7.85352 170.782 7.85352 173.782 8.35359L170.282 30.3536Z" fill="#EFC7D3" stroke="black" stroke-width="0.5"/>
<path d="M98.7817 32.3537C103.282 37.8537 110.282 34.3537 114.282 32.8537C115.282 17.3535 102.282 25.3535 98.7817 32.3537Z" fill="#EFC7D3" stroke="black" stroke-width="0.5"/>
<path d="M234.28 9.85352L231.28 13.3535C248.28 18.8535 258.78 21.8535 271.28 28.3535H272.78L280.78 26.8535C265.78 20.3535 258.28 17.8535 234.28 9.85352Z" fill="#EFC7D3" stroke="black" stroke-width="0.5"/>
<path d="M271.28 28.3535C260.78 22.8535 241.78 16.3535 231.28 13.3535L229.28 15.8535L244.28 23.3535C242.78 25.8535 238.78 27.8535 232.78 30.5535C244.78 29.8535 261.78 28.8535 271.28 28.3535Z" fill="#EFC7D3" stroke="black" stroke-width="0.5"/>
<path d="M276.782 34.6535L282.78 32.3535L272.281 28.3535L228.281 30.8535C220.781 45.8535 205.781 76.3535 197.781 77.3535H212.281C210.781 66.3535 220.281 42.8535 245.282 51.8535C255.782 46.3535 265.782 40.8535 276.782 34.6535Z" fill="#EFC7D3" stroke="black" stroke-width="0.5"/>
<path d="M277.78 34.3535C265.78 40.8535 255.78 46.3535 245.28 51.8535C249.78 54.8535 260.28 60.8535 259.28 79.8535L284.28 79.3535V77.8535C292.78 76.8535 301.28 80.3535 299.78 66.3535L301.78 56.3535C301.78 54.8535 299.28 50.8535 296.78 50.3535C298.28 47.8535 295.28 38.8535 295.28 38.8535V37.3535L291.28 34.3535L286.28 32.8535L282.78 32.3535L277.78 34.3535Z" fill="#EFC7D3" stroke="black" stroke-width="0.5"/>
<path d="M280.78 26.8535L272.28 28.3535L282.78 32.3535C292.28 33.3535 291.279 34.8535 295.274 37.2737L294.78 28.8535L280.78 26.8535Z" fill="#EFC7D3"/>
<path d="M295.28 37.3535L295.274 37.2737M295.274 37.2737L294.78 28.8535L280.78 26.8535L272.28 28.3535L282.78 32.3535C292.28 33.3535 291.279 34.8535 295.274 37.2737Z" stroke="black" stroke-width="0.5"/>
<path d="M293.782 36.8537C293.282 34.3536 282.282 34.1535 276.782 34.6535" stroke="black" stroke-width="0.5"/>
<path d="M299.782 66.8535L260.282 68.8535C259.782 63.8535 257.615 59.6868 255.782 57.8535L301.782 55.3535M300.282 52.8535C289.282 51.3535 278.282 46.5535 266.282 40.5535M228.282 30.8535L272.282 28.3535L280.782 26.8535" stroke="black" stroke-width="0.5"/>
<path d="M290.282 40.8535C290.282 38.8535 289.282 34.8535 285.782 32.8535C288.003 32.8535 291.379 33.8939 293.891 36.2635C294.354 37.7935 293.282 41.3535 290.24 42.8535C290.226 42.2632 290.282 41.5778 290.282 40.8535Z" fill="#EFC7D3"/>
<path d="M272.282 43.3535C279.277 43.7033 285.294 43.8084 290.675 44.3535M297.282 45.3535C295.179 44.9029 292.985 44.5876 290.675 44.3535M295.282 37.8535C294.864 37.2684 294.395 36.7392 293.891 36.2635M290.675 44.3535C290.349 44.0088 290.255 43.4857 290.24 42.8535M290.24 42.8535C290.226 42.2632 290.282 41.5778 290.282 40.8535C290.282 38.8535 289.282 34.8535 285.782 32.8535C288.003 32.8535 291.379 33.8939 293.891 36.2635M290.24 42.8535C293.282 41.3535 294.354 37.7935 293.891 36.2635" stroke="black" stroke-width="0.5"/>
<path d="M290.282 40.8535C285.782 40.8535 283.782 36.8535 282.782 34.3535" stroke="black" stroke-width="0.5"/>
<path d="M132.28 12.9535C118.78 16.9535 106.78 22.8535 92.7803 35.8535C99.7803 23.8535 115.28 14.3535 130.78 9.35352L132.28 12.9535Z" fill="#EDADBF" stroke="black" stroke-width="0.5"/>
<path d="M130.78 9.35352C110.78 15.0276 92.7803 32.3535 84.7803 30.3535C97.7803 20.8535 113.78 12.3535 130.28 7.85352L130.78 9.35352Z" fill="#EDADBF" stroke="black" stroke-width="0.5"/>
<path d="M9.78094 48.3535H3.78094C1.28027 52.3535 1.28027 62.3535 1.78094 65.8535C0.280273 66.8535 0.280871 71.3535 1.28094 72.8535L5.28094 73.3535V74.8535L1.28094 76.8535V78.8535C5.28094 79.8535 13.7809 81.8535 21.7809 81.3535V79.8535H39.2809C38.6143 71.3535 40.2809 60.8535 49.2809 53.8535C46.7809 49.8535 39.7809 45.3535 36.7809 44.8535C26.7809 43.8535 11.7809 46.3535 9.78094 48.3535Z" fill="#EDADBF" stroke="black" stroke-width="0.5"/>
<path d="M92.7817 35.8535C74.9484 36.6868 43.2817 41.5535 32.7817 44.5535L36.7817 44.8535C41.7817 46.3535 47.2817 50.6868 49.2817 53.8535C62.2808 44.3535 87.7808 51.3535 86.2808 78.8535H96.2808C89.2808 67.8535 90.2808 45.8535 92.7817 35.8535Z" fill="#EDADBF" stroke="black" stroke-width="0.5"/>
<path d="M9.78027 48.3536H3.78027C36.2805 28.8535 58.2805 34.8535 84.2803 30.3535L93.2805 35.8535C76.2805 36.8535 47.2803 40.3535 33.2803 44.5535C25.2803 44.3535 11.2803 46.3535 9.78027 48.3536Z" fill="#EDADBF" stroke="black" stroke-width="0.5"/>
<path d="M36.7817 44.8536C29.2817 43.8535 12.2817 45.8535 9.78173 48.3536C8.98173 50.7535 12.1151 53.6868 13.7817 54.8535C23.2817 56.3535 36.7817 50.3535 36.7817 44.8536Z" fill="#EDADBF" stroke="black" stroke-width="0.5"/>
<path d="M3.78097 48.3535C10.781 49.3535 4.78097 59.8535 1.78097 64.8535C1.2809 57.8535 1.78076 52.3535 3.78097 48.3535Z" fill="#EDADBF" stroke="black" stroke-width="0.5"/>
<path d="M21.7803 84.3535V79.8535H39.2803L39.7803 84.3535H21.7803Z" fill="#EDADBF" stroke="black" stroke-width="0.5"/>
<path d="M2.28223 65.8535C3.78223 68.3535 5.78223 71.5202 5.28223 73.3535M21.7822 79.8535C11.2822 80.3535 6.78223 76.3535 7.78223 72.8535C8.28223 72.3535 9.78223 70.8535 10.7822 70.8535" stroke="black" stroke-width="0.5"/>
<path d="M31.7822 74.8535C29.2822 70.8535 23.7822 65.8536 20.7822 64.3536C19.0322 63.8536 16.4071 63.9786 13.657 64.3536C12.0321 65.6869 10.7822 68.8535 11.2822 71.8535C11.2822 73.0202 12.5896 75.3535 15.2822 75.3535C19.7822 75.3535 26.7822 75.8535 31.7822 74.8535Z" fill="#EDADBF"/>
<path d="M5.78223 65.8536C8.03217 65.3536 10.9071 64.7286 13.657 64.3536M13.657 64.3536C16.4071 63.9786 19.0322 63.8536 20.7822 64.3536C23.7822 65.8536 29.2822 70.8535 31.7822 74.8535C26.7822 75.8535 19.7822 75.3535 15.2822 75.3535C12.5896 75.3535 11.2822 73.0202 11.2822 71.8535C10.7822 68.8535 12.0321 65.6869 13.657 64.3536Z" stroke="black" stroke-width="0.5"/>
<path d="M11.2822 71.3536C19.2822 69.8536 22.7822 72.4821 25.7822 73.9821M12.7822 74.3536L30.2822 73.8536" stroke="black" stroke-width="0.5"/>
<path d="M21.7803 82.8535H31.2803C33.2803 82.8535 34.7803 80.8535 34.2803 79.8535M37.7803 79.8535V84.3535" stroke="black" stroke-width="0.5"/>
<path d="M21.7817 81.3538C17.2817 81.3538 12.7817 81.8538 1.28168 78.8538V76.8538L5.28168 74.8538V73.3538L1.28168 72.8538C0.780762 71.3535 -0.219042 68.3535 1.78095 65.8535C1.2812 57.8535 1.7812 51.3535 3.78168 48.3533C36.2817 28.8537 58.2817 34.8537 84.2817 30.3537C162.282 -24.6464 244.282 12.3535 281.282 26.8537L294.782 28.8535L295.282 35.8535V38.8535C296.78 43.8535 298.115 48.3535 296.782 50.3535C299.282 51.3535 301.782 54.5202 301.782 56.3535L299.782 66.3535C300.234 77.2014 297.826 77.4257 288.494 77.7382C287.503 77.7713 285.434 77.8055 284.282 77.8535V79.3535L259.282 79.7846M21.7817 81.3538V84.3538H39.78L39.2817 79.8538M21.7817 81.3538V79.8538H39.2817M39.2817 79.8538C36.2817 38.3538 89.7817 41.3538 86.2817 80.3538V82.8535H212.782C206.782 39.3535 261.282 39.3535 259.282 79.7846M258.78 79.7846H259.282" stroke="black"/>
</svg>
