<svg width="303" height="96" viewBox="0 0 303 96" fill="none" xmlns="http://www.w3.org/2000/svg">
<circle cx="62.4897" cy="74.1692" r="20.5" fill="#E0426F" stroke="black"/>
<circle cx="235.49" cy="74.1692" r="20.5" fill="#E0426F" stroke="black"/>
<path d="M132.488 12.669L130.988 9.16904C170.988 1.16916 192.488 1.66919 231.488 13.1691L227.988 17.6691C207.988 9.6691 189.988 8.6691 173.988 8.16917C171.488 7.66917 167.488 7.66913 164.988 8.16904C154.988 8.16917 142.988 9.66917 132.488 12.669Z" stroke="black" stroke-width="0.5"/>
<path d="M130.988 9.16923L130.488 7.66923C166.488 -3.33081 198.988 0.669064 234.488 9.66924L231.488 13.1692C191.488 0.669189 165.488 2.16919 130.988 9.16923Z" stroke="black" stroke-width="0.5"/>
<path d="M130.988 9.16918C182.488 -2.33085 210.988 7.66919 231.488 13.1692" stroke="black" stroke-width="0.5"/>
<path d="M226.49 30.6692L223.49 16.1692C218.99 14.6692 207.49 9.16919 173.99 8.16919L170.49 30.1692C181.49 29.6692 198.99 28.1692 225.99 28.1692" stroke="black" stroke-width="0.5"/>
<path d="M164.99 8.16919C131.99 9.16919 111.99 18.1692 92.9897 35.6692L95.4897 33.6692L159.49 30.6692L164.99 8.16919Z" stroke="black" stroke-width="0.5"/>
<path d="M239.488 22.6692C235.822 20.0025 229.988 17.6692 223.488 16.1692L225.988 28.1692H232.488C235.488 26.6692 238.488 24.4379 239.488 22.6692Z" stroke="black" stroke-width="0.5"/>
<path d="M96.4897 78.6692H163.49L197.99 77.1692M96.4897 78.6692C96.4897 80.1692 96.9897 81.1692 97.9897 82.6692M96.4897 78.6692H86.4897V82.6692H97.9897M197.99 77.1692L198.99 82.6692M197.99 77.1692H212.49L212.99 82.6692H198.99M198.99 82.6692H97.9897" stroke="black" stroke-width="0.5"/>
<path d="M96.4889 78.6692C91.9897 74.1692 88.9898 52.1692 92.9889 35.6692L164.99 31.6692C160.99 36.6692 159.99 70.6692 163.49 78.6692H96.4889Z" stroke="black" stroke-width="0.5"/>
<path d="M228.489 30.6692L164.989 31.6692C160.989 36.6692 159.99 70.6692 163.489 78.6692L197.989 77.1692C202.489 75.6692 208.989 70.1692 228.489 30.6692Z" stroke="black" stroke-width="0.5"/>
<path d="M170.49 30.1693C165.99 30.6693 162.49 30.6693 159.49 30.6693L164.99 8.16926C167.99 7.66919 170.99 7.66919 173.99 8.16926L170.49 30.1693Z" stroke="black" stroke-width="0.5"/>
<path d="M98.9897 32.1693C103.49 37.6693 110.49 34.1693 114.49 32.6693C115.49 17.1692 102.49 25.1692 98.9897 32.1693Z" stroke="black" stroke-width="0.5"/>
<path d="M234.488 9.66919L231.488 13.1692C248.488 18.6692 258.988 21.6692 271.488 28.1692H272.988L280.988 26.6692C265.988 20.1692 258.488 17.6692 234.488 9.66919Z" stroke="black" stroke-width="0.5"/>
<path d="M271.488 28.1692C260.988 22.6692 241.988 16.1692 231.488 13.1692L229.488 15.6692L244.488 23.1692C242.988 25.6692 238.988 27.6692 232.988 30.3692C244.988 29.6692 261.988 28.6692 271.488 28.1692Z" stroke="black" stroke-width="0.5"/>
<path d="M276.99 34.4692L282.988 32.1692L272.489 28.1692L228.489 30.6692C220.989 45.6692 205.989 76.1692 197.989 77.1692H212.489C210.989 66.1692 220.489 42.6692 245.49 51.6692C255.99 46.1692 265.99 40.6692 276.99 34.4692Z" stroke="black" stroke-width="0.5"/>
<path d="M277.988 34.1692C265.988 40.6692 255.988 46.1692 245.488 51.6692C249.988 54.6692 260.488 60.6692 259.488 79.6692L284.488 79.1692V77.6692C292.988 76.6692 301.488 80.1692 299.988 66.1692L301.988 56.1692C301.988 54.6692 299.488 50.6692 296.988 50.1692C298.488 47.6692 295.488 38.6692 295.488 38.6692V37.1692L291.488 34.1692L286.488 32.6692L282.988 32.1692L277.988 34.1692Z" stroke="black" stroke-width="0.5"/>
<path d="M295.488 37.1692L295.482 37.0894M295.482 37.0894L294.988 28.6692L280.988 26.6692L272.488 28.1692L282.988 32.1692C292.488 33.1692 291.487 34.6692 295.482 37.0894Z" stroke="black" stroke-width="0.5"/>
<path d="M293.99 36.6694C293.49 34.1693 282.49 33.9692 276.99 34.4692" stroke="black" stroke-width="0.5"/>
<path d="M299.99 66.6692L260.49 68.6692C259.99 63.6692 257.823 59.5025 255.99 57.6692L301.99 55.1692M300.49 52.6692C289.49 51.1692 278.49 46.3692 266.49 40.3692M228.49 30.6692L272.49 28.1692L280.99 26.6692" stroke="black" stroke-width="0.5"/>
<path d="M272.49 43.1692C279.485 43.519 285.502 43.6241 290.883 44.1692M297.49 45.1692C295.387 44.7185 293.194 44.4033 290.883 44.1692M295.49 37.6692C295.072 37.0841 294.603 36.5548 294.099 36.0792M290.883 44.1692C290.557 43.8244 290.463 43.3014 290.448 42.6692M290.448 42.6692C290.434 42.0789 290.49 41.3935 290.49 40.6692C290.49 38.6692 289.49 34.6692 285.99 32.6692C288.211 32.6692 291.587 33.7096 294.099 36.0792M290.448 42.6692C293.49 41.1692 294.562 37.6092 294.099 36.0792" stroke="black" stroke-width="0.5"/>
<path d="M290.49 40.6692C285.99 40.6692 283.99 36.6692 282.99 34.1692" stroke="black" stroke-width="0.5"/>
<path d="M132.488 12.7692C118.988 16.7692 106.988 22.6692 92.9883 35.6692C99.9883 23.6692 115.488 14.1692 130.988 9.16919L132.488 12.7692Z" stroke="black" stroke-width="0.5"/>
<path d="M130.988 9.16919C110.988 14.8432 92.9883 32.1692 84.9883 30.1692C97.9883 20.6692 113.988 12.1692 130.488 7.66919L130.988 9.16919Z" stroke="black" stroke-width="0.5"/>
<path d="M9.98895 48.1692H3.98895C1.48828 52.1692 1.48828 62.1692 1.98895 65.6692C0.488281 66.6692 0.488879 71.1692 1.48895 72.6692L5.48895 73.1692V74.6692L1.48895 76.6692V78.6692C5.48895 79.6692 13.9889 81.6692 21.9889 81.1692V79.6692H39.4889C38.8223 71.1692 40.4889 60.6692 49.4889 53.6692C46.9889 49.6692 39.9889 45.1692 36.9889 44.6692C26.9889 43.6692 11.9889 46.1692 9.98895 48.1692Z" stroke="black" stroke-width="0.5"/>
<path d="M92.9897 35.6692C75.1564 36.5025 43.4897 41.3692 32.9897 44.3692L36.9897 44.6692C41.9897 46.1692 47.4897 50.5025 49.4897 53.6692C62.4888 44.1692 87.9888 51.1692 86.4888 78.6692H96.4888C89.4888 67.6692 90.4888 45.6692 92.9897 35.6692Z" stroke="black" stroke-width="0.5"/>
<path d="M9.98828 48.1692H3.98828C36.4885 28.6691 58.4885 34.6692 84.4883 30.1692L93.4885 35.6692C76.4885 36.6692 47.4883 40.1692 33.4883 44.3692C25.4883 44.1692 11.4883 46.1692 9.98828 48.1692Z" stroke="black" stroke-width="0.5"/>
<path d="M36.9897 44.6693C29.4897 43.6692 12.4897 45.6692 9.98974 48.1693C9.18974 50.5692 12.3231 53.5025 13.9897 54.6692C23.4897 56.1692 36.9897 50.1692 36.9897 44.6693Z" stroke="black" stroke-width="0.5"/>
<path d="M3.98898 48.1692C10.989 49.1692 4.98898 59.6692 1.98898 64.6692C1.48891 57.6692 1.98877 52.1692 3.98898 48.1692Z" stroke="black" stroke-width="0.5"/>
<path d="M21.9883 84.1692V79.6692H39.4883L39.9883 84.1692H21.9883Z" stroke="black" stroke-width="0.5"/>
<path d="M2.49023 65.6692C3.99023 68.1692 5.99023 71.3359 5.49023 73.1692M21.9902 79.6692C11.4902 80.1692 6.99023 76.1692 7.99023 72.6692C8.49023 72.1692 9.99023 70.6692 10.9902 70.6692" stroke="black" stroke-width="0.5"/>
<path d="M5.99023 65.6693C8.24018 65.1692 11.1151 64.5443 13.865 64.1693M13.865 64.1693C16.6151 63.7943 19.2402 63.6693 20.9902 64.1693C23.9902 65.6693 29.4902 70.6692 31.9902 74.6692C26.9902 75.6692 19.9902 75.1692 15.4902 75.1692C12.7977 75.1692 11.4902 72.8359 11.4902 71.6692C10.9902 68.6692 12.2401 65.5026 13.865 64.1693Z" stroke="black" stroke-width="0.5"/>
<path d="M11.4902 71.1693C19.4902 69.6693 22.9902 72.2978 25.9902 73.7978M12.9902 74.1693L30.4902 73.6693" stroke="black" stroke-width="0.5"/>
<path d="M21.9883 82.6692H31.4883C33.4883 82.6692 34.9883 80.6692 34.4883 79.6692M37.9883 79.6692V84.1692" stroke="black" stroke-width="0.5"/>
<path d="M21.9897 81.1694C17.4897 81.1694 12.9897 81.6694 1.48969 78.6694V76.6694L5.48969 74.6694V73.1694L1.48969 72.6694C0.98877 71.1692 -0.0110346 68.1692 1.98896 65.6692C1.4892 57.6692 1.9892 51.1692 3.98969 48.1689C36.4897 28.6693 58.4897 34.6694 84.4897 30.1694C162.49 -24.8307 244.49 12.1692 281.49 26.6694L294.99 28.6692L295.49 35.6692V38.6692C296.988 43.6692 298.323 48.1692 296.99 50.1692C299.49 51.1692 301.99 54.3359 301.99 56.1692L299.99 66.1692C300.442 77.0171 298.034 77.2414 288.702 77.5538C287.711 77.587 285.642 77.6212 284.49 77.6692V79.1692L259.49 79.6002M21.9897 81.1694V84.1694H39.988L39.4897 79.6694M21.9897 81.1694V79.6694H39.4897M39.4897 79.6694C36.4897 38.1694 89.9897 41.1694 86.4897 80.1694V82.6692H212.99C206.99 39.1692 261.49 39.1692 259.49 79.6002M258.988 79.6002H259.49" stroke="black"/>
</svg>
