<svg width="304" height="96" viewBox="0 0 304 96" fill="none" xmlns="http://www.w3.org/2000/svg">
<circle cx="63.0635" cy="74.3838" r="20.5" fill="#EDADBF" stroke="black"/>
<circle cx="236.063" cy="74.3838" r="20.5" fill="#EDADBF" stroke="black"/>
<path d="M133.062 12.8836L131.562 9.38364C171.562 1.38376 193.062 1.88379 232.062 13.3837L228.562 17.8837C208.562 9.8837 190.562 8.8837 174.562 8.38377C172.062 7.88377 168.062 7.88373 165.562 8.38364C155.562 8.38377 143.562 9.88377 133.062 12.8836Z" fill="#E56E90" stroke="black" stroke-width="0.5"/>
<path d="M131.562 9.38383L131.062 7.88383C167.062 -3.11621 199.562 0.883663 235.062 9.88383L232.062 13.3838C192.062 0.883789 166.062 2.38379 131.562 9.38383Z" fill="#E56E90" stroke="black" stroke-width="0.5"/>
<path d="M131.562 9.3839C183.062 -2.11613 211.562 7.88391 232.062 13.3839" stroke="black" stroke-width="0.5"/>
<path d="M171.063 30.3838L174.563 8.38379C208.063 9.38379 219.563 14.8838 224.063 16.3838L226.546 28.3838C199.556 28.3844 182.061 29.8839 171.063 30.3838Z" fill="#E56E90"/>
<path d="M227.063 30.8838L224.063 16.3838C219.563 14.8838 208.063 9.38379 174.563 8.38379L171.063 30.3838C182.063 29.8838 199.563 28.3838 226.563 28.3838" stroke="black" stroke-width="0.5"/>
<path d="M165.563 8.38379C132.563 9.38379 112.563 18.3838 93.5635 35.8838L96.0635 33.8838L160.063 30.8838L165.563 8.38379Z" fill="#E56E90" stroke="black" stroke-width="0.5"/>
<path d="M240.062 22.8838C236.395 20.2171 230.562 17.8838 224.062 16.3838L226.562 28.3838H233.062C236.062 26.8838 239.062 24.6525 240.062 22.8838Z" fill="#E56E90" stroke="black" stroke-width="0.5"/>
<path d="M97.0635 78.8838H164.063L198.563 77.3838H213.063L213.563 82.8838H199.563H98.5635H87.0635V78.8838H97.0635Z" fill="#E56E90"/>
<path d="M97.0635 78.8838H164.063L198.563 77.3838M97.0635 78.8838C97.0635 80.3838 97.5635 81.3838 98.5635 82.8838M97.0635 78.8838H87.0635V82.8838H98.5635M198.563 77.3838L199.563 82.8838M198.563 77.3838H213.063L213.563 82.8838H199.563M199.563 82.8838H98.5635" stroke="black" stroke-width="0.5"/>
<path d="M97.0626 78.8838C92.5635 74.3838 89.5635 52.3838 93.5626 35.8838L165.563 31.8838C161.563 36.8838 160.563 70.8838 164.063 78.8838H97.0626Z" fill="#E56E90" stroke="black" stroke-width="0.5"/>
<path d="M229.063 30.8838L165.563 31.8838C161.564 36.8838 160.564 70.8838 164.063 78.8838L198.563 77.3838C203.063 75.8838 209.563 70.3838 229.063 30.8838Z" fill="#E56E90" stroke="black" stroke-width="0.5"/>
<path d="M171.063 30.3839C166.563 30.8839 163.063 30.8839 160.063 30.8839L165.563 8.38386C168.563 7.88379 171.563 7.88379 174.563 8.38386L171.063 30.3839Z" fill="#E56E90" stroke="black" stroke-width="0.5"/>
<path d="M99.5635 32.384C104.063 37.884 111.063 34.384 115.063 32.884C116.063 17.3839 103.063 25.3839 99.5635 32.384Z" fill="#E56E90" stroke="black" stroke-width="0.5"/>
<path d="M235.062 9.88379L232.062 13.3838C249.062 18.8838 259.562 21.8838 272.062 28.3838H273.562L281.562 26.8838C266.562 20.3838 259.062 17.8838 235.062 9.88379Z" fill="#E56E90" stroke="black" stroke-width="0.5"/>
<path d="M272.062 28.3838C261.562 22.8838 242.562 16.3838 232.062 13.3838L230.062 15.8838L245.062 23.3838C243.562 25.8838 239.562 27.8838 233.562 30.5838C245.562 29.8838 262.562 28.8838 272.062 28.3838Z" fill="#E56E90" stroke="black" stroke-width="0.5"/>
<path d="M277.563 34.6838L283.562 32.3838L273.062 28.3838L229.062 30.8838C221.562 45.8838 206.562 76.3838 198.562 77.3838H213.062C211.562 66.3838 221.062 42.8838 246.063 51.8838C256.563 46.3838 266.563 40.8838 277.563 34.6838Z" fill="#E56E90" stroke="black" stroke-width="0.5"/>
<path d="M278.562 34.3838C266.562 40.8838 256.562 46.3838 246.062 51.8838C250.562 54.8838 261.062 60.8838 260.062 79.8838L285.062 79.3838V77.8838C293.562 76.8838 302.062 80.3838 300.562 66.3838L302.562 56.3838C302.562 54.8838 300.062 50.8838 297.562 50.3838C299.062 47.8838 296.062 38.8838 296.062 38.8838V37.3838L292.062 34.3838L287.062 32.8838L283.562 32.3838L278.562 34.3838Z" fill="#E56E90" stroke="black" stroke-width="0.5"/>
<path d="M281.562 26.8838L273.062 28.3838L283.562 32.3838C293.062 33.3838 292.06 34.8838 296.056 37.304L295.562 28.8838L281.562 26.8838Z" fill="#E56E90"/>
<path d="M296.062 37.3838L296.056 37.304M296.056 37.304L295.562 28.8838L281.562 26.8838L273.062 28.3838L283.562 32.3838C293.062 33.3838 292.06 34.8838 296.056 37.304Z" stroke="black" stroke-width="0.5"/>
<path d="M294.563 36.884C294.063 34.3839 283.063 34.1838 277.563 34.6838" stroke="black" stroke-width="0.5"/>
<path d="M300.563 66.8838L261.063 68.8838C260.563 63.8838 258.397 59.7171 256.563 57.8838L302.563 55.3838M301.063 52.8838C290.063 51.3838 279.063 46.5838 267.063 40.5838M229.063 30.8838L273.063 28.3838L281.563 26.8838" stroke="black" stroke-width="0.5"/>
<path d="M291.063 40.8838C291.063 38.8838 290.063 34.8838 286.563 32.8838C288.784 32.8838 292.161 33.9242 294.672 36.2938C295.136 37.8238 294.063 41.3838 291.022 42.8838C291.008 42.2935 291.063 41.6081 291.063 40.8838Z" fill="#E56E90"/>
<path d="M273.063 43.3838C280.059 43.7336 286.076 43.8387 291.457 44.3838M298.063 45.3838C295.96 44.9331 293.767 44.6179 291.457 44.3838M296.063 37.8838C295.646 37.2987 295.176 36.7694 294.672 36.2938M291.457 44.3838C291.13 44.039 291.036 43.516 291.022 42.8838M291.022 42.8838C291.008 42.2935 291.063 41.6081 291.063 40.8838C291.063 38.8838 290.063 34.8838 286.563 32.8838C288.784 32.8838 292.161 33.9242 294.672 36.2938M291.022 42.8838C294.063 41.3838 295.136 37.8238 294.672 36.2938" stroke="black" stroke-width="0.5"/>
<path d="M291.063 40.8838C286.563 40.8838 284.563 36.8838 283.563 34.3838" stroke="black" stroke-width="0.5"/>
<path d="M133.062 12.9838C119.562 16.9838 107.562 22.8838 93.5615 35.8838C100.562 23.8838 116.062 14.3838 131.562 9.38379L133.062 12.9838Z" fill="#E0426F" stroke="black" stroke-width="0.5"/>
<path d="M131.562 9.38379C111.562 15.0578 93.5615 32.3838 85.5615 30.3838C98.5615 20.8838 114.562 12.3838 131.062 7.88379L131.562 9.38379Z" fill="#E0426F" stroke="black" stroke-width="0.5"/>
<path d="M10.5622 48.3837H4.56219C2.06152 52.3837 2.06152 62.3837 2.56219 65.8837C1.06152 66.8837 1.06212 71.3837 2.06219 72.8837L6.06219 73.3837V74.8837L2.06219 76.8837V78.8837C6.06219 79.8837 14.5622 81.8837 22.5622 81.3837V79.8837H40.0622C39.3955 71.3837 41.0622 60.8837 50.0622 53.8837C47.5622 49.8837 40.5622 45.3837 37.5622 44.8837C27.5622 43.8837 12.5622 46.3837 10.5622 48.3837Z" fill="#E0426F" stroke="black" stroke-width="0.5"/>
<path d="M93.5635 35.8838C75.7301 36.7171 44.0635 41.5838 33.5635 44.5838L37.5635 44.8838C42.5635 46.3838 48.0635 50.7171 50.0635 53.8838C63.0625 44.3838 88.5625 51.3838 87.0625 78.8838H97.0625C90.0625 67.8838 91.0625 45.8838 93.5635 35.8838Z" fill="#E0426F" stroke="black" stroke-width="0.5"/>
<path d="M10.5615 48.3838H4.56152C37.0617 28.8837 59.0618 34.8838 85.0615 30.3838L94.0618 35.8838C77.0618 36.8838 48.0615 40.3838 34.0615 44.5838C26.0615 44.3838 12.0615 46.3838 10.5615 48.3838Z" fill="#E0426F" stroke="black" stroke-width="0.5"/>
<path d="M37.563 44.8839C30.063 43.8838 13.063 45.8838 10.563 48.3839C9.76298 50.7838 12.8963 53.7171 14.563 54.8838C24.063 56.3838 37.563 50.3838 37.563 44.8839Z" fill="#E0426F" stroke="black" stroke-width="0.5"/>
<path d="M4.56222 48.3838C11.5622 49.3838 5.56222 59.8838 2.56222 64.8838C2.06215 57.8838 2.56201 52.3838 4.56222 48.3838Z" fill="#E0426F" stroke="black" stroke-width="0.5"/>
<path d="M22.5615 84.3838V79.8838H40.0615L40.5615 84.3838H22.5615Z" fill="#E0426F" stroke="black" stroke-width="0.5"/>
<path d="M3.06348 65.8838C4.56348 68.3838 6.56348 71.5505 6.06348 73.3838M22.5635 79.8838C12.0635 80.3838 7.56348 76.3838 8.56348 72.8838C9.06348 72.3838 10.5635 70.8838 11.5635 70.8838" stroke="black" stroke-width="0.5"/>
<path d="M32.5635 74.8839C30.0635 70.8839 24.5635 65.884 21.5635 64.384C19.8134 63.884 17.1883 64.009 14.4383 64.384C12.8133 65.7173 11.5635 68.8839 12.0635 71.8839C12.0635 73.0506 13.3709 75.3839 16.0635 75.3839C20.5635 75.3839 27.5635 75.8839 32.5635 74.8839Z" fill="#E0426F"/>
<path d="M6.56348 65.884C8.81342 65.384 11.6883 64.759 14.4383 64.384M14.4383 64.384C17.1883 64.009 19.8134 63.884 21.5635 64.384C24.5635 65.884 30.0635 70.8839 32.5635 74.8839C27.5635 75.8839 20.5635 75.3839 16.0635 75.3839C13.3709 75.3839 12.0635 73.0506 12.0635 71.8839C11.5635 68.8839 12.8133 65.7173 14.4383 64.384Z" stroke="black" stroke-width="0.5"/>
<path d="M12.0635 71.384C20.0635 69.884 23.5635 72.5125 26.5635 74.0125M13.5635 74.384L31.0635 73.884" stroke="black" stroke-width="0.5"/>
<path d="M22.5615 82.8838H32.0615C34.0615 82.8838 35.5615 80.8838 35.0615 79.8838M38.5615 79.8838V84.3838" stroke="black" stroke-width="0.5"/>
<path d="M22.5634 81.384C18.0634 81.384 13.5634 81.884 2.06342 78.884V76.884L6.06342 74.884V73.384L2.06342 72.884C1.5625 71.3838 0.562696 68.3838 2.56269 65.8838C2.06293 57.8838 2.56293 51.3838 4.56342 48.3835C37.0634 28.8839 59.0634 34.884 85.0634 30.384C163.063 -24.6161 245.063 12.3838 282.063 26.884L295.563 28.8838L296.063 35.8838V38.8838C297.562 43.8838 298.897 48.3838 297.563 50.3838C300.063 51.3838 302.563 54.5505 302.563 56.3838L300.563 66.3838C301.015 77.2317 298.607 77.456 289.276 77.7684C288.285 77.8016 286.216 77.8358 285.063 77.8838V79.3838L260.063 79.8148M22.5634 81.384V84.384H40.5618L40.0634 79.884M22.5634 81.384V79.884H40.0634M40.0634 79.884C37.0634 38.384 90.5634 41.384 87.0634 80.384V82.8838H213.563C207.563 39.3838 262.063 39.3838 260.063 79.8148M259.562 79.8148H260.063" stroke="black"/>
</svg>
