<svg width="303" height="96" viewBox="0 0 303 96" fill="none" xmlns="http://www.w3.org/2000/svg">
<circle cx="62.6978" cy="74.0151" r="20.5" stroke="black"/>
<circle cx="235.698" cy="74.0151" r="20.5" stroke="black"/>
<path d="M132.696 12.515L131.196 9.01499C171.196 1.0151 192.696 1.51514 231.696 13.0151L228.196 17.5151C208.196 9.51505 190.196 8.51505 174.196 8.01511C171.696 7.51511 167.696 7.51508 165.196 8.01499C155.196 8.01511 143.196 9.51511 132.696 12.515Z" fill="#EFC7D3" stroke="black" stroke-width="0.5"/>
<path d="M131.196 9.01518L130.696 7.51518C166.696 -3.48486 199.196 0.515011 234.696 9.51518L231.696 13.0152C191.696 0.515137 165.696 2.01514 131.196 9.01518Z" fill="#EFC7D3" stroke="black" stroke-width="0.5"/>
<path d="M131.196 9.01512C182.696 -2.4849 211.196 7.51514 231.696 13.0151" stroke="black" stroke-width="0.5"/>
<path d="M170.698 30.0151L174.198 8.01514C207.698 9.01514 219.198 14.5151 223.698 16.0151L226.181 28.0151C199.19 28.0158 181.695 29.5152 170.698 30.0151Z" fill="#EFC7D3"/>
<path d="M226.698 30.5151L223.698 16.0151C219.198 14.5151 207.698 9.01514 174.198 8.01514L170.698 30.0151C181.698 29.5151 199.198 28.0151 226.198 28.0151" stroke="black" stroke-width="0.5"/>
<path d="M165.198 8.01514C132.198 9.01514 112.198 18.0151 93.1978 35.5151L95.6978 33.5151L159.698 30.5151L165.198 8.01514Z" fill="#EFC7D3" stroke="black" stroke-width="0.5"/>
<path d="M239.696 22.5151C236.03 19.8485 230.196 17.5151 223.696 16.0151L226.196 28.0151H232.696C235.696 26.5151 238.696 24.2839 239.696 22.5151Z" fill="#EFC7D3" stroke="black" stroke-width="0.5"/>
<path d="M96.6978 78.5151H163.698L198.198 77.0151H212.698L213.198 82.5151H199.198H98.1978H86.6978V78.5151H96.6978Z" fill="#EFC7D3"/>
<path d="M96.6978 78.5151H163.698L198.198 77.0151M96.6978 78.5151C96.6978 80.0151 97.1978 81.0151 98.1978 82.5151M96.6978 78.5151H86.6978V82.5151H98.1978M198.198 77.0151L199.198 82.5151M198.198 77.0151H212.698L213.198 82.5151H199.198M199.198 82.5151H98.1978" stroke="black" stroke-width="0.5"/>
<path d="M96.6969 78.5151C92.1977 74.0151 89.1978 52.0151 93.1969 35.5151L165.198 31.5151C161.198 36.5151 160.198 70.5151 163.698 78.5151H96.6969Z" fill="#EFC7D3" stroke="black" stroke-width="0.5"/>
<path d="M228.697 30.5151L165.197 31.5151C161.197 36.5151 160.198 70.5151 163.697 78.5151L198.197 77.0151C202.697 75.5151 209.197 70.0151 228.697 30.5151Z" fill="#EFC7D3" stroke="black" stroke-width="0.5"/>
<path d="M170.698 30.0152C166.198 30.5152 162.698 30.5152 159.698 30.5152L165.198 8.01521C168.198 7.51514 171.198 7.51514 174.198 8.01521L170.698 30.0152Z" fill="#EFC7D3" stroke="black" stroke-width="0.5"/>
<path d="M99.1978 32.0153C103.698 37.5153 110.698 34.0153 114.698 32.5153C115.698 17.0152 102.698 25.0151 99.1978 32.0153Z" fill="#EFC7D3" stroke="black" stroke-width="0.5"/>
<path d="M234.696 9.51514L231.696 13.0151C248.696 18.5151 259.196 21.5151 271.696 28.0151H273.196L281.196 26.5151C266.196 20.0151 258.696 17.5151 234.696 9.51514Z" stroke="black" stroke-width="0.5"/>
<path d="M271.696 28.0151C261.196 22.5151 242.196 16.0151 231.696 13.0151L229.696 15.5151L244.696 23.0151C243.196 25.5151 239.196 27.5151 233.196 30.2151C245.196 29.5151 262.196 28.5151 271.696 28.0151Z" stroke="black" stroke-width="0.5"/>
<path d="M277.198 34.3151L283.196 32.0151L272.697 28.0151L228.697 30.5151C221.197 45.5151 206.197 76.0151 198.197 77.0151H212.697C211.197 66.0151 220.697 42.5151 245.698 51.5151C256.198 46.0151 266.198 40.5151 277.198 34.3151Z" stroke="black" stroke-width="0.5"/>
<path d="M278.196 34.0152C266.196 40.5152 256.196 46.0152 245.696 51.5152C250.196 54.5151 260.696 60.5151 259.696 79.5151L284.696 79.0151V77.5151C293.196 76.5151 301.696 80.0151 300.196 66.0151L302.196 56.0151C302.196 54.5151 299.696 50.5151 297.196 50.0151C298.696 47.5151 295.696 38.5151 295.696 38.5151V37.0151L291.696 34.0151L286.696 32.5151L283.196 32.0151L278.196 34.0152Z" stroke="black" stroke-width="0.5"/>
<path d="M295.696 37.0151L295.69 36.9353M295.69 36.9353L295.196 28.5151L281.196 26.5151L272.696 28.0151L283.196 32.0151C292.696 33.0151 291.695 34.5151 295.69 36.9353Z" stroke="black" stroke-width="0.5"/>
<path d="M294.198 36.5153C293.698 34.0152 282.698 33.8151 277.198 34.3151" stroke="black" stroke-width="0.5"/>
<path d="M300.198 66.5151L260.698 68.5151C260.198 63.5151 258.031 59.3485 256.198 57.5151L302.198 55.0151M300.698 52.5151C289.698 51.0151 278.698 46.2151 266.698 40.2151M228.698 30.5151L272.698 28.0151L281.198 26.5151" stroke="black" stroke-width="0.5"/>
<path d="M272.698 43.0151C279.693 43.3649 285.71 43.47 291.091 44.0151M297.698 45.0151C295.595 44.5645 293.402 44.2492 291.091 44.0151M295.698 37.5151C295.28 36.93 294.811 36.4008 294.307 35.9251M291.091 44.0151C290.765 43.6704 290.671 43.1473 290.656 42.5151M290.656 42.5151C290.642 41.9249 290.698 41.2394 290.698 40.5151C290.698 38.5151 289.698 34.5151 286.198 32.5151C288.419 32.5151 291.795 33.5555 294.307 35.9251M290.656 42.5151C293.698 41.0151 294.77 37.4551 294.307 35.9251" stroke="black" stroke-width="0.5"/>
<path d="M290.698 40.5151C286.198 40.5151 284.198 36.5151 283.198 34.0151" stroke="black" stroke-width="0.5"/>
<path d="M132.696 12.6151C119.196 16.6151 107.196 22.5151 93.1963 35.5151C100.196 23.5151 115.696 14.0151 131.196 9.01514L132.696 12.6151Z" stroke="black" stroke-width="0.5"/>
<path d="M131.196 9.01514C111.196 14.6892 93.1963 32.0151 85.1963 30.0151C98.1963 20.5151 114.196 12.0151 130.696 7.51514L131.196 9.01514Z" stroke="black" stroke-width="0.5"/>
<path d="M10.197 48.0151H4.19696C1.69629 52.0151 1.69629 62.0151 2.19696 65.5151C0.696289 66.5151 0.696887 71.0151 1.69696 72.5151L5.69696 73.0151V74.5151L1.69696 76.5151V78.5151C5.69696 79.5151 14.197 81.5151 22.197 81.0151V79.5151H39.697C39.0303 71.0151 40.697 60.5151 49.697 53.5151C47.197 49.5151 40.197 45.0151 37.197 44.5151C27.197 43.5151 12.197 46.0151 10.197 48.0151Z" stroke="black" stroke-width="0.5"/>
<path d="M93.1978 35.5151C75.3644 36.3485 43.6978 41.2151 33.1978 44.2151L37.1978 44.5151C42.1978 46.0151 47.6978 50.3485 49.6978 53.5151C62.6968 44.0151 88.1968 51.0151 86.6968 78.5151H96.6968C89.6968 67.5151 90.6968 45.5151 93.1978 35.5151Z" stroke="black" stroke-width="0.5"/>
<path d="M10.1963 48.0152H4.19629C36.6965 28.5151 58.6965 34.5151 84.6963 30.0151L93.6965 35.5151C76.6965 36.5151 47.6963 40.0151 33.6963 44.2151C25.6963 44.0151 11.6963 46.0151 10.1963 48.0152Z" stroke="black" stroke-width="0.5"/>
<path d="M37.1977 44.5152C29.6977 43.5151 12.6977 45.5151 10.1977 48.0152C9.39774 50.4152 12.5311 53.3485 14.1977 54.5151C23.6978 56.0151 37.1977 50.0151 37.1977 44.5152Z" stroke="black" stroke-width="0.5"/>
<path d="M4.19698 48.0151C11.197 49.0151 5.19698 59.5151 2.19698 64.5151C1.69691 57.5151 2.19678 52.0151 4.19698 48.0151Z" stroke="black" stroke-width="0.5"/>
<path d="M22.1963 84.0151V79.5151H39.6963L40.1963 84.0151H22.1963Z" stroke="black" stroke-width="0.5"/>
<path d="M2.69824 65.5151C4.19824 68.0151 6.19824 71.1818 5.69824 73.0151M22.1982 79.5151C11.6982 80.0151 7.19824 76.0151 8.19824 72.5151C8.69824 72.0151 10.1982 70.5151 11.1982 70.5151" stroke="black" stroke-width="0.5"/>
<path d="M6.19824 65.5152C8.44818 65.0152 11.3231 64.3902 14.073 64.0152M14.073 64.0152C16.8231 63.6402 19.4482 63.5152 21.1982 64.0152C24.1982 65.5152 29.6982 70.5151 32.1982 74.5151C27.1982 75.5151 20.1982 75.0151 15.6982 75.0151C13.0057 75.0151 11.6982 72.6818 11.6982 71.5151C11.1982 68.5151 12.4481 65.3485 14.073 64.0152Z" stroke="black" stroke-width="0.5"/>
<path d="M11.6982 71.0152C19.6982 69.5153 23.1982 72.1437 26.1982 73.6437M13.1982 74.0153L30.6982 73.5153" stroke="black" stroke-width="0.5"/>
<path d="M22.1963 82.5151H31.6963C33.6963 82.5151 35.1963 80.5151 34.6963 79.5151M38.1963 79.5151V84.0151" stroke="black" stroke-width="0.5"/>
<path d="M22.1977 81.0154C17.6977 81.0154 13.1977 81.5154 1.6977 78.5154V76.5154L5.6977 74.5154V73.0154L1.6977 72.5154C1.19678 71.0151 0.196973 68.0151 2.19697 65.5151C1.69721 57.5151 2.19721 51.0151 4.1977 48.0149C36.6977 28.5153 58.6977 34.5153 84.6977 30.0153C162.698 -24.9848 244.698 12.0151 281.698 26.5153L295.198 28.5151L295.698 35.5151V38.5151C297.196 43.5151 298.531 48.0151 297.198 50.0151C299.698 51.0151 302.198 54.1818 302.198 56.0151L300.198 66.0151C300.65 76.863 298.242 77.0873 288.91 77.3998C287.919 77.433 285.85 77.4671 284.698 77.5151V79.0151L259.698 79.4462M22.1977 81.0154V84.0154H40.196L39.6977 79.5154M22.1977 81.0154V79.5154H39.6977M39.6977 79.5154C36.6977 38.0154 90.1977 41.0154 86.6977 80.0154V82.5151H213.198C207.198 39.0151 261.698 39.0151 259.698 79.4462M259.196 79.4462H259.698" stroke="black"/>
</svg>
