<svg width="303" height="95" viewBox="0 0 303 95" fill="none" xmlns="http://www.w3.org/2000/svg">
<circle cx="62.2725" cy="73.8762" r="20.5" fill="#E56E90" stroke="black"/>
<circle cx="235.272" cy="73.8762" r="20.5" fill="#E56E90" stroke="black"/>
<path d="M132.271 12.3761L130.771 8.87608C170.771 0.876188 192.271 1.37622 231.271 12.8762L227.771 17.3762C207.771 9.37613 189.771 8.37613 173.771 7.8762C171.271 7.3762 167.271 7.37616 164.771 7.87608C154.771 7.8762 142.771 9.3762 132.271 12.3761Z" fill="#E56E90" stroke="black" stroke-width="0.5"/>
<path d="M130.771 8.87627L130.271 7.37626C166.271 -3.62378 198.771 0.376095 234.271 9.37627L231.271 12.8763C191.271 0.376221 165.271 1.87622 130.771 8.87627Z" fill="#E56E90" stroke="black" stroke-width="0.5"/>
<path d="M130.771 8.87609C182.271 -2.62394 210.771 7.3761 231.271 12.8761" stroke="black" stroke-width="0.5"/>
<path d="M170.272 29.8762L173.772 7.87622C207.272 8.87622 218.772 14.3762 223.272 15.8762L225.755 27.8762C198.765 27.8769 181.27 29.3763 170.272 29.8762Z" fill="#E56E90"/>
<path d="M226.272 30.3762L223.272 15.8762C218.772 14.3762 207.272 8.87622 173.772 7.87622L170.272 29.8762C181.272 29.3762 198.772 27.8762 225.772 27.8762" stroke="black" stroke-width="0.5"/>
<path d="M164.772 7.87622C131.772 8.87622 111.772 17.8762 92.7725 35.3762L95.2725 33.3762L159.272 30.3762L164.772 7.87622Z" fill="#E56E90" stroke="black" stroke-width="0.5"/>
<path d="M239.271 22.3762C235.604 19.7096 229.771 17.3762 223.271 15.8762L225.771 27.8762H232.271C235.271 26.3762 238.271 24.145 239.271 22.3762Z" fill="#E56E90" stroke="black" stroke-width="0.5"/>
<path d="M96.2725 78.3762H163.272L197.772 76.8762H212.272L212.772 82.3762H198.772H97.7725H86.2725V78.3762H96.2725Z" fill="#E56E90"/>
<path d="M96.2725 78.3762H163.272L197.772 76.8762M96.2725 78.3762C96.2725 79.8762 96.7725 80.8762 97.7725 82.3762M96.2725 78.3762H86.2725V82.3762H97.7725M197.772 76.8762L198.772 82.3762M197.772 76.8762H212.272L212.772 82.3762H198.772M198.772 82.3762H97.7725" stroke="black" stroke-width="0.5"/>
<path d="M96.2716 78.3762C91.7725 73.8762 88.7725 51.8762 92.7716 35.3762L164.772 31.3762C160.772 36.3762 159.772 70.3762 163.272 78.3762H96.2716Z" fill="#E56E90" stroke="black" stroke-width="0.5"/>
<path d="M228.272 30.3762L164.772 31.3762C160.773 36.3762 159.773 70.3762 163.272 78.3762L197.772 76.8762C202.272 75.3762 208.772 69.8762 228.272 30.3762Z" fill="#E56E90" stroke="black" stroke-width="0.5"/>
<path d="M170.272 29.8763C165.772 30.3763 162.272 30.3763 159.272 30.3763L164.772 7.87629C167.772 7.37622 170.772 7.37622 173.772 7.87629L170.272 29.8763Z" fill="#E56E90" stroke="black" stroke-width="0.5"/>
<path d="M98.7725 31.8762C103.272 37.3762 110.272 33.8762 114.272 32.3762C115.272 16.8761 102.272 24.8761 98.7725 31.8762Z" fill="#E56E90" stroke="black" stroke-width="0.5"/>
<path d="M234.271 9.37622L231.271 12.8762C248.271 18.3762 258.771 21.3762 271.271 27.8762H272.771L280.771 26.3762C265.771 19.8762 258.271 17.3762 234.271 9.37622Z" fill="#EDADBF" stroke="black" stroke-width="0.5"/>
<path d="M271.271 27.8762C260.771 22.3762 241.771 15.8762 231.271 12.8762L229.271 15.3762L244.271 22.8762C242.771 25.3762 238.771 27.3762 232.771 30.0762C244.771 29.3762 261.771 28.3762 271.271 27.8762Z" fill="#EDADBF" stroke="black" stroke-width="0.5"/>
<path d="M276.772 34.1762L282.771 31.8762L272.271 27.8762L228.271 30.3762C220.771 45.3762 205.771 75.8762 197.771 76.8762H212.271C210.771 65.8762 220.271 42.3762 245.272 51.3762C255.772 45.8762 265.772 40.3762 276.772 34.1762Z" fill="#EDADBF" stroke="black" stroke-width="0.5"/>
<path d="M277.771 33.8762C265.771 40.3762 255.771 45.8762 245.271 51.3762C249.771 54.3762 260.271 60.3762 259.271 79.3762L284.271 78.8762V77.3762C292.771 76.3762 301.271 79.8762 299.771 65.8762L301.771 55.8762C301.771 54.3762 299.271 50.3762 296.771 49.8762C298.271 47.3762 295.271 38.3762 295.271 38.3762V36.8762L291.271 33.8762L286.271 32.3762L282.771 31.8762L277.771 33.8762Z" fill="#EDADBF" stroke="black" stroke-width="0.5"/>
<path d="M280.771 26.3762L272.271 27.8762L282.771 31.8762C292.271 32.8762 291.269 34.3762 295.265 36.7964L294.771 28.3762L280.771 26.3762Z" fill="#EDADBF"/>
<path d="M295.271 36.8762L295.265 36.7964M295.265 36.7964L294.771 28.3762L280.771 26.3762L272.271 27.8762L282.771 31.8762C292.271 32.8762 291.269 34.3762 295.265 36.7964Z" stroke="black" stroke-width="0.5"/>
<path d="M293.772 36.3764C293.272 33.8763 282.272 33.6762 276.772 34.1762" stroke="black" stroke-width="0.5"/>
<path d="M299.772 66.3762L260.272 68.3762C259.772 63.3762 257.606 59.2096 255.772 57.3762L301.772 54.8762M300.272 52.3762C289.272 50.8762 278.272 46.0762 266.272 40.0762M228.272 30.3762L272.272 27.8762L280.772 26.3762" stroke="black" stroke-width="0.5"/>
<path d="M290.272 40.3762C290.272 38.3762 289.272 34.3762 285.772 32.3762C287.993 32.3762 291.37 33.4166 293.881 35.7862C294.345 37.3162 293.272 40.8762 290.231 42.3762C290.217 41.7859 290.272 41.1005 290.272 40.3762Z" fill="#EDADBF"/>
<path d="M272.272 42.8762C279.268 43.226 285.285 43.3311 290.666 43.8762M297.272 44.8762C295.169 44.4256 292.976 44.1103 290.666 43.8762M295.272 37.3762C294.855 36.7911 294.385 36.2619 293.881 35.7862M290.666 43.8762C290.339 43.5315 290.245 43.0084 290.231 42.3762M290.231 42.3762C290.217 41.7859 290.272 41.1005 290.272 40.3762C290.272 38.3762 289.272 34.3762 285.772 32.3762C287.993 32.3762 291.37 33.4166 293.881 35.7862M290.231 42.3762C293.272 40.8762 294.345 37.3162 293.881 35.7862" stroke="black" stroke-width="0.5"/>
<path d="M290.272 40.3762C285.772 40.3762 283.772 36.3762 282.772 33.8762" stroke="black" stroke-width="0.5"/>
<path d="M132.271 12.4762C118.771 16.4762 106.771 22.3762 92.7705 35.3762C99.7705 23.3762 115.271 13.8762 130.771 8.87622L132.271 12.4762Z" fill="#EFC7D3" stroke="black" stroke-width="0.5"/>
<path d="M130.771 8.87622C110.771 14.5503 92.7705 31.8762 84.7705 29.8762C97.7705 20.3762 113.771 11.8762 130.271 7.37622L130.771 8.87622Z" fill="#EFC7D3" stroke="black" stroke-width="0.5"/>
<path d="M9.77118 47.8761H3.77118C1.27051 51.8761 1.27051 61.8761 1.77118 65.3761C0.270508 66.3761 0.271105 70.8761 1.27118 72.3761L5.27118 72.8761V74.3761L1.27118 76.3761V78.3761C5.27118 79.3761 13.7712 81.3761 21.7712 80.8761V79.3761H39.2712C38.6045 70.8761 40.2712 60.3761 49.2712 53.3761C46.7712 49.3761 39.7712 44.8761 36.7712 44.3761C26.7712 43.3761 11.7712 45.8761 9.77118 47.8761Z" fill="#EFC7D3" stroke="black" stroke-width="0.5"/>
<path d="M92.7725 35.3762C74.9391 36.2096 43.2725 41.0762 32.7725 44.0762L36.7725 44.3762C41.7725 45.8762 47.2725 50.2096 49.2725 53.3762C62.2715 43.8762 87.7715 50.8762 86.2715 78.3762H96.2715C89.2715 67.3762 90.2715 45.3762 92.7725 35.3762Z" fill="#EFC7D3" stroke="black" stroke-width="0.5"/>
<path d="M9.77051 47.8763H3.77051C36.2707 28.3762 58.2708 34.3762 84.2705 29.8762L93.2708 35.3762C76.2708 36.3762 47.2705 39.8762 33.2705 44.0762C25.2705 43.8762 11.2705 45.8762 9.77051 47.8763Z" fill="#EFC7D3" stroke="black" stroke-width="0.5"/>
<path d="M36.772 44.3763C29.272 43.3762 12.272 45.3762 9.77196 47.8763C8.97196 50.2762 12.1053 53.2096 13.772 54.3762C23.272 55.8762 36.772 49.8762 36.772 44.3763Z" fill="#EFC7D3" stroke="black" stroke-width="0.5"/>
<path d="M3.7712 47.8762C10.7712 48.8762 4.7712 59.3762 1.7712 64.3762C1.27113 57.3762 1.771 51.8762 3.7712 47.8762Z" fill="#EFC7D3" stroke="black" stroke-width="0.5"/>
<path d="M21.7705 83.8762V79.3762H39.2705L39.7705 83.8762H21.7705Z" fill="#EFC7D3" stroke="black" stroke-width="0.5"/>
<path d="M2.27246 65.376C3.77246 67.876 5.77246 71.0426 5.27246 72.876M21.7725 79.376C11.2725 79.876 6.77246 75.876 7.77246 72.376C8.27246 71.876 9.77246 70.376 10.7725 70.376" stroke="black" stroke-width="0.5"/>
<path d="M31.7725 74.3761C29.2725 70.3761 23.7725 65.3762 20.7725 63.8762C19.0224 63.3762 16.3973 63.5012 13.6472 63.8762C12.0223 65.2095 10.7725 68.3761 11.2725 71.3761C11.2725 72.5428 12.5799 74.8761 15.2725 74.8761C19.7725 74.8761 26.7725 75.3761 31.7725 74.3761Z" fill="#EFC7D3"/>
<path d="M5.77246 65.3762C8.0224 64.8762 10.8973 64.2512 13.6472 63.8762M13.6472 63.8762C16.3973 63.5012 19.0224 63.3762 20.7725 63.8762C23.7725 65.3762 29.2725 70.3761 31.7725 74.3761C26.7725 75.3761 19.7725 74.8761 15.2725 74.8761C12.5799 74.8761 11.2725 72.5428 11.2725 71.3761C10.7725 68.3761 12.0223 65.2095 13.6472 63.8762Z" stroke="black" stroke-width="0.5"/>
<path d="M11.2725 70.8762C19.2725 69.3762 22.7725 72.0047 25.7725 73.5047M12.7725 73.8762L30.2725 73.3762" stroke="black" stroke-width="0.5"/>
<path d="M21.7705 82.376H31.2705C33.2705 82.376 34.7705 80.376 34.2705 79.376M37.7705 79.376V83.876" stroke="black" stroke-width="0.5"/>
<path d="M21.7724 80.8765C17.2724 80.8765 12.7724 81.3765 1.27241 78.3765V76.3765L5.27241 74.3765V72.8765L1.27241 72.3765C0.771484 70.8762 -0.22832 67.8762 1.77168 65.3762C1.27192 57.3762 1.77192 50.8762 3.77241 47.876C36.2724 28.3764 58.2724 34.3764 84.2724 29.8764C162.272 -25.1237 244.272 11.8762 281.272 26.3764L294.772 28.3762L295.272 35.3762V38.3762C296.771 43.3762 298.106 47.8762 296.772 49.8762C299.272 50.8762 301.772 54.0429 301.772 55.8762L299.772 65.8762C300.224 76.7241 297.816 76.9484 288.485 77.2609C287.494 77.294 285.425 77.3282 284.272 77.3762V78.8762L259.272 79.3073M21.7724 80.8765V83.8765H39.7708L39.2724 79.3765M21.7724 80.8765V79.3765H39.2724M39.2724 79.3765C36.2724 37.8765 89.7724 40.8765 86.2724 79.8765V82.3762H212.772C206.772 38.8762 261.272 38.8762 259.272 79.3073M258.771 79.3073H259.272" stroke="black"/>
</svg>
