<svg width="303" height="95" viewBox="0 0 303 95" fill="none" xmlns="http://www.w3.org/2000/svg">
<circle cx="62.8853" cy="73.8459" r="20.5" fill="#EFC7D3" stroke="black"/>
<circle cx="235.885" cy="73.8459" r="20.5" fill="#EFC7D3" stroke="black"/>
<path d="M132.884 12.3458L131.384 8.8458C171.384 0.845915 192.884 1.34595 231.884 12.8459L228.384 17.3459C208.384 9.34586 190.384 8.34586 174.384 7.84592C171.884 7.34592 167.884 7.34589 165.384 7.8458C155.384 7.84592 143.384 9.34592 132.884 12.3458Z" stroke="black" stroke-width="0.5"/>
<path d="M131.384 8.84599L130.884 7.34599C166.884 -3.65405 199.384 0.345821 234.884 9.34599L231.884 12.846C191.884 0.345947 165.884 1.84595 131.384 8.84599Z" stroke="black" stroke-width="0.5"/>
<path d="M131.384 8.84593C182.884 -2.65409 211.384 7.34595 231.884 12.8459" stroke="black" stroke-width="0.5"/>
<path d="M226.885 30.3459L223.885 15.8459C219.385 14.3459 207.885 8.84595 174.385 7.84595L170.885 29.8459C181.885 29.3459 199.385 27.8459 226.385 27.8459" stroke="black" stroke-width="0.5"/>
<path d="M165.385 7.84595C132.385 8.84595 112.385 17.8459 93.3853 35.3459L95.8853 33.3459L159.885 30.3459L165.385 7.84595Z" stroke="black" stroke-width="0.5"/>
<path d="M239.884 22.3459C236.217 19.6793 230.384 17.3459 223.884 15.8459L226.384 27.8459H232.884C235.884 26.3459 238.884 24.1147 239.884 22.3459Z" stroke="black" stroke-width="0.5"/>
<path d="M96.8853 78.3459H163.885L198.385 76.8459M96.8853 78.3459C96.8853 79.8459 97.3853 80.8459 98.3853 82.3459M96.8853 78.3459H86.8853V82.3459H98.3853M198.385 76.8459L199.385 82.3459M198.385 76.8459H212.885L213.385 82.3459H199.385M199.385 82.3459H98.3853" stroke="black" stroke-width="0.5"/>
<path d="M96.8844 78.3459C92.3852 73.8459 89.3853 51.8459 93.3844 35.3459L165.385 31.3459C161.385 36.3459 160.385 70.3459 163.885 78.3459H96.8844Z" stroke="black" stroke-width="0.5"/>
<path d="M228.885 30.3459L165.385 31.3459C161.385 36.3459 160.385 70.3459 163.885 78.3459L198.385 76.8459C202.885 75.3459 209.385 69.8459 228.885 30.3459Z" stroke="black" stroke-width="0.5"/>
<path d="M170.885 29.846C166.385 30.346 162.885 30.346 159.885 30.346L165.385 7.84602C168.385 7.34595 171.385 7.34595 174.385 7.84602L170.885 29.846Z" stroke="black" stroke-width="0.5"/>
<path d="M99.3853 31.8461C103.885 37.3461 110.885 33.8461 114.885 32.3461C115.885 16.846 102.885 24.8459 99.3853 31.8461Z" stroke="black" stroke-width="0.5"/>
<path d="M234.884 9.34595L231.884 12.8459C248.884 18.3459 259.384 21.3459 271.884 27.8459H273.384L281.384 26.3459C266.384 19.8459 258.884 17.3459 234.884 9.34595Z" fill="#EFC7D3" stroke="black" stroke-width="0.5"/>
<path d="M271.884 27.8459C261.384 22.3459 242.384 15.8459 231.884 12.8459L229.884 15.3459L244.884 22.8459C243.384 25.3459 239.384 27.3459 233.384 30.0459C245.384 29.3459 262.384 28.3459 271.884 27.8459Z" fill="#EFC7D3" stroke="black" stroke-width="0.5"/>
<path d="M277.385 34.1459L283.384 31.8459L272.884 27.8459L228.884 30.3459C221.384 45.3459 206.384 75.8459 198.384 76.8459H212.884C211.384 65.8459 220.884 42.3459 245.885 51.3459C256.385 45.8459 266.385 40.3459 277.385 34.1459Z" fill="#EFC7D3" stroke="black" stroke-width="0.5"/>
<path d="M278.384 33.846C266.384 40.346 256.384 45.846 245.884 51.346C250.384 54.3459 260.884 60.3459 259.884 79.3459L284.884 78.8459V77.3459C293.384 76.3459 301.884 79.8459 300.384 65.8459L302.384 55.8459C302.384 54.3459 299.884 50.3459 297.384 49.8459C298.884 47.3459 295.884 38.3459 295.884 38.3459V36.8459L291.884 33.8459L286.884 32.3459L283.384 31.8459L278.384 33.846Z" fill="#EFC7D3" stroke="black" stroke-width="0.5"/>
<path d="M281.384 26.3459L272.884 27.8459L283.384 31.8459C292.884 32.8459 291.883 34.3459 295.878 36.7661L295.384 28.3459L281.384 26.3459Z" fill="#EFC7D3"/>
<path d="M295.884 36.8459L295.878 36.7661M295.878 36.7661L295.384 28.3459L281.384 26.3459L272.884 27.8459L283.384 31.8459C292.884 32.8459 291.883 34.3459 295.878 36.7661Z" stroke="black" stroke-width="0.5"/>
<path d="M294.385 36.3461C293.885 33.846 282.885 33.646 277.385 34.146" stroke="black" stroke-width="0.5"/>
<path d="M300.385 66.3459L260.885 68.3459C260.385 63.3459 258.219 59.1793 256.385 57.3459L302.385 54.8459M300.885 52.3459C289.885 50.8459 278.885 46.0459 266.885 40.0459M228.885 30.3459L272.885 27.8459L281.385 26.3459" stroke="black" stroke-width="0.5"/>
<path d="M290.885 40.3459C290.885 38.3459 289.885 34.3459 286.385 32.3459C288.606 32.3459 291.983 33.3863 294.494 35.7559C294.958 37.2859 293.885 40.8459 290.843 42.3459C290.83 41.7557 290.885 41.0702 290.885 40.3459Z" fill="#EFC7D3"/>
<path d="M272.885 42.8459C279.881 43.1957 285.898 43.3008 291.278 43.8459M297.885 44.8459C295.782 44.3953 293.589 44.08 291.278 43.8459M295.885 37.3459C295.467 36.7608 294.998 36.2316 294.494 35.7559M291.278 43.8459C290.952 43.5012 290.858 42.9781 290.843 42.3459M290.843 42.3459C290.83 41.7557 290.885 41.0702 290.885 40.3459C290.885 38.3459 289.885 34.3459 286.385 32.3459C288.606 32.3459 291.983 33.3863 294.494 35.7559M290.843 42.3459C293.885 40.8459 294.958 37.2859 294.494 35.7559" stroke="black" stroke-width="0.5"/>
<path d="M290.885 40.3459C286.385 40.3459 284.385 36.3459 283.385 33.8459" stroke="black" stroke-width="0.5"/>
<path d="M132.884 12.4459C119.384 16.4459 107.384 22.3459 93.3838 35.3459C100.384 23.3459 115.884 13.8459 131.384 8.84595L132.884 12.4459Z" fill="#E0426F" stroke="black" stroke-width="0.5"/>
<path d="M131.384 8.84595C111.384 14.52 93.3838 31.8459 85.3838 29.8459C98.3838 20.3459 114.384 11.8459 130.884 7.34595L131.384 8.84595Z" fill="#E0426F" stroke="black" stroke-width="0.5"/>
<path d="M10.3845 47.846H4.38446C1.88379 51.8459 1.88379 61.8459 2.38446 65.3459C0.883789 66.3459 0.884387 70.8459 1.88446 72.3459L5.88446 72.8459V74.3459L1.88446 76.3459V78.3459C5.88446 79.3459 14.3845 81.3459 22.3845 80.8459V79.3459H39.8845C39.2178 70.8459 40.8845 60.3459 49.8845 53.3459C47.3845 49.3459 40.3845 44.8459 37.3845 44.346C27.3845 43.3459 12.3845 45.846 10.3845 47.846Z" fill="#E0426F" stroke="black" stroke-width="0.5"/>
<path d="M93.3853 35.3459C75.5519 36.1793 43.8853 41.0459 33.3853 44.0459L37.3853 44.3459C42.3853 45.8459 47.8853 50.1793 49.8853 53.3459C62.8843 43.8459 88.3843 50.8459 86.8843 78.3459H96.8843C89.8843 67.3459 90.8843 45.3459 93.3853 35.3459Z" fill="#E0426F" stroke="black" stroke-width="0.5"/>
<path d="M10.3838 47.846H4.38379C36.884 28.3459 58.884 34.3459 84.8838 29.8459L93.884 35.3459C76.884 36.3459 47.8838 39.8459 33.8838 44.046C25.8838 43.8459 11.8838 45.8459 10.3838 47.846Z" fill="#E0426F" stroke="black" stroke-width="0.5"/>
<path d="M37.3852 44.346C29.8852 43.3459 12.8852 45.3459 10.3852 47.846C9.58524 50.246 12.7186 53.1793 14.3852 54.3459C23.8853 55.8459 37.3852 49.8459 37.3852 44.346Z" fill="#E0426F" stroke="black" stroke-width="0.5"/>
<path d="M4.38448 47.8459C11.3845 48.8459 5.38448 59.3459 2.38448 64.3459C1.88441 57.3459 2.38428 51.8459 4.38448 47.8459Z" fill="#E0426F" stroke="black" stroke-width="0.5"/>
<path d="M22.3838 83.8459V79.3459H39.8838L40.3838 83.8459H22.3838Z" fill="#E0426F" stroke="black" stroke-width="0.5"/>
<path d="M2.88574 65.3459C4.38574 67.8459 6.38574 71.0126 5.88574 72.8459M22.3857 79.3459C11.8857 79.8459 7.38574 75.8459 8.38574 72.3459C8.88574 71.8459 10.3857 70.3459 11.3857 70.3459" stroke="black" stroke-width="0.5"/>
<path d="M32.3857 74.3459C29.8857 70.3459 24.3857 65.346 21.3857 63.846C19.6357 63.346 17.0106 63.471 14.2605 63.846C12.6356 65.1793 11.3857 68.3459 11.8857 71.3459C11.8857 72.5126 13.1932 74.8459 15.8857 74.8459C20.3857 74.8459 27.3857 75.3459 32.3857 74.3459Z" fill="#E0426F"/>
<path d="M6.38574 65.346C8.63568 64.846 11.5106 64.221 14.2605 63.846M14.2605 63.846C17.0106 63.471 19.6357 63.346 21.3857 63.846C24.3857 65.346 29.8857 70.3459 32.3857 74.3459C27.3857 75.3459 20.3857 74.8459 15.8857 74.8459C13.1932 74.8459 11.8857 72.5126 11.8857 71.3459C11.3857 68.3459 12.6356 65.1793 14.2605 63.846Z" stroke="black" stroke-width="0.5"/>
<path d="M11.8857 70.846C19.8857 69.3461 23.3857 71.9745 26.3857 73.4745M13.3857 73.8461L30.8857 73.3461" stroke="black" stroke-width="0.5"/>
<path d="M22.3838 82.3459H31.8838C33.8838 82.3459 35.3838 80.3459 34.8838 79.3459M38.3838 79.3459V83.8459" stroke="black" stroke-width="0.5"/>
<path d="M22.3852 80.8462C17.8852 80.8462 13.3852 81.3462 1.8852 78.3462V76.3462L5.8852 74.3462V72.8462L1.8852 72.3462C1.38428 70.8459 0.384473 67.8459 2.38447 65.3459C1.88471 57.3459 2.38471 50.8459 4.3852 47.8457C36.8852 28.3461 58.8852 34.3461 84.8852 29.8461C162.885 -25.154 244.885 11.8459 281.885 26.3461L295.385 28.3459L295.885 35.3459V38.3459C297.384 43.3459 298.719 47.8459 297.385 49.8459C299.885 50.8459 302.385 54.0126 302.385 55.8459L300.385 65.8459C300.837 76.6939 298.429 76.9181 289.098 77.2306C288.106 77.2638 286.037 77.2979 284.885 77.3459V78.8459L259.885 79.277M22.3852 80.8462V83.8462H40.3835L39.8852 79.3462M22.3852 80.8462V79.3462H39.8852M39.8852 79.3462C36.8852 37.8462 90.3852 40.8462 86.8852 79.8462V82.3459H213.385C207.385 38.8459 261.885 38.8459 259.885 79.277M259.384 79.277H259.885" stroke="black"/>
</svg>
