<svg width="303" height="96" viewBox="0 0 303 96" fill="none" xmlns="http://www.w3.org/2000/svg">
<circle cx="62.6875" cy="74.2297" r="20.5" stroke="black"/>
<circle cx="235.688" cy="74.2297" r="20.5" stroke="black"/>
<path d="M132.686 12.7296L131.186 9.22959C171.186 1.2297 192.686 1.72974 231.686 13.2297L228.186 17.7297C208.186 9.72965 190.186 8.72964 174.186 8.22971C171.686 7.72971 167.686 7.72968 165.186 8.22959C155.186 8.22971 143.186 9.72971 132.686 12.7296Z" fill="#E0426F" stroke="black" stroke-width="0.5"/>
<path d="M131.186 9.22978L130.686 7.72978C166.686 -3.27026 199.186 0.72961 234.686 9.72978L231.686 13.2298C191.686 0.729736 165.686 2.22974 131.186 9.22978Z" fill="#E0426F" stroke="black" stroke-width="0.5"/>
<path d="M131.186 9.2296C182.686 -2.27042 211.186 7.72961 231.686 13.2296" stroke="black" stroke-width="0.5"/>
<path d="M170.688 30.2297L174.188 8.22974C207.688 9.22974 219.188 14.7297 223.688 16.2297L226.17 28.2297C199.18 28.2304 181.685 29.7298 170.688 30.2297Z" fill="#E0426F"/>
<path d="M226.688 30.7297L223.688 16.2297C219.188 14.7297 207.688 9.22974 174.188 8.22974L170.688 30.2297C181.688 29.7297 199.188 28.2297 226.188 28.2297" stroke="black" stroke-width="0.5"/>
<path d="M165.188 8.22974C132.188 9.22974 112.188 18.2297 93.1875 35.7297L95.6875 33.7297L159.688 30.7297L165.188 8.22974Z" fill="#E0426F" stroke="black" stroke-width="0.5"/>
<path d="M239.686 22.7297C236.019 20.0631 230.186 17.7297 223.686 16.2297L226.186 28.2297H232.686C235.686 26.7297 238.686 24.4985 239.686 22.7297Z" fill="#E0426F" stroke="black" stroke-width="0.5"/>
<path d="M96.6875 78.7297H163.688L198.188 77.2297H212.688L213.188 82.7297H199.188H98.1875H86.6875V78.7297H96.6875Z" fill="#E0426F"/>
<path d="M96.6875 78.7297H163.688L198.188 77.2297M96.6875 78.7297C96.6875 80.2297 97.1875 81.2297 98.1875 82.7297M96.6875 78.7297H86.6875V82.7297H98.1875M198.188 77.2297L199.188 82.7297M198.188 77.2297H212.688L213.188 82.7297H199.188M199.188 82.7297H98.1875" stroke="black" stroke-width="0.5"/>
<path d="M96.6866 78.7297C92.1875 74.2297 89.1875 52.2297 93.1866 35.7297L165.188 31.7297C161.188 36.7297 160.188 70.7297 163.687 78.7297H96.6866Z" fill="#E0426F" stroke="black" stroke-width="0.5"/>
<path d="M228.687 30.7297L165.187 31.7297C161.188 36.7297 160.188 70.7297 163.687 78.7297L198.187 77.2297C202.687 75.7297 209.187 70.2297 228.687 30.7297Z" fill="#E0426F" stroke="black" stroke-width="0.5"/>
<path d="M170.688 30.2298C166.188 30.7298 162.688 30.7298 159.688 30.7298L165.188 8.22981C168.188 7.72974 171.188 7.72974 174.188 8.22981L170.688 30.2298Z" fill="#E0426F" stroke="black" stroke-width="0.5"/>
<path d="M99.1875 32.2297C103.688 37.7297 110.688 34.2297 114.688 32.7297C115.688 17.2296 102.688 25.2296 99.1875 32.2297Z" fill="#E0426F" stroke="black" stroke-width="0.5"/>
<path d="M234.686 9.72974L231.686 13.2297C248.686 18.7297 259.186 21.7297 271.686 28.2297H273.186L281.186 26.7297C266.186 20.2297 258.686 17.7297 234.686 9.72974Z" fill="#EFC7D3" stroke="black" stroke-width="0.5"/>
<path d="M271.686 28.2297C261.186 22.7297 242.186 16.2297 231.686 13.2297L229.686 15.7297L244.686 23.2297C243.186 25.7297 239.186 27.7297 233.186 30.4297C245.186 29.7297 262.186 28.7297 271.686 28.2297Z" fill="#EFC7D3" stroke="black" stroke-width="0.5"/>
<path d="M277.188 34.5297L283.186 32.2297L272.687 28.2297L228.687 30.7297C221.187 45.7297 206.187 76.2297 198.187 77.2297H212.687C211.187 66.2297 220.687 42.7297 245.688 51.7297C256.188 46.2297 266.188 40.7297 277.188 34.5297Z" fill="#EFC7D3" stroke="black" stroke-width="0.5"/>
<path d="M278.186 34.2298C266.186 40.7298 256.186 46.2298 245.686 51.7298C250.186 54.7297 260.686 60.7297 259.686 79.7297L284.686 79.2297V77.7297C293.186 76.7297 301.686 80.2297 300.186 66.2297L302.186 56.2297C302.186 54.7297 299.686 50.7297 297.186 50.2297C298.686 47.7297 295.686 38.7297 295.686 38.7297V37.2297L291.686 34.2297L286.686 32.7297L283.186 32.2297L278.186 34.2298Z" fill="#EFC7D3" stroke="black" stroke-width="0.5"/>
<path d="M281.186 26.7297L272.686 28.2297L283.186 32.2297C292.686 33.2297 291.684 34.7297 295.68 37.1499L295.186 28.7297L281.186 26.7297Z" fill="#EFC7D3"/>
<path d="M295.686 37.2297L295.68 37.1499M295.68 37.1499L295.186 28.7297L281.186 26.7297L272.686 28.2297L283.186 32.2297C292.686 33.2297 291.684 34.7297 295.68 37.1499Z" stroke="black" stroke-width="0.5"/>
<path d="M294.188 36.7299C293.688 34.2298 282.688 34.0297 277.188 34.5297" stroke="black" stroke-width="0.5"/>
<path d="M300.188 66.7297L260.688 68.7297C260.188 63.7297 258.021 59.5631 256.188 57.7297L302.188 55.2297M300.688 52.7297C289.688 51.2297 278.688 46.4297 266.688 40.4297M228.688 30.7297L272.688 28.2297L281.188 26.7297" stroke="black" stroke-width="0.5"/>
<path d="M290.688 40.7297C290.688 38.7297 289.688 34.7297 286.188 32.7297C288.408 32.7297 291.785 33.7701 294.296 36.1397C294.76 37.6697 293.688 41.2297 290.646 42.7297C290.632 42.1395 290.688 41.454 290.688 40.7297Z" fill="#EFC7D3"/>
<path d="M272.688 43.2297C279.683 43.5795 285.7 43.6846 291.081 44.2297M297.688 45.2297C295.585 44.7791 293.391 44.4638 291.081 44.2297M295.688 37.7297C295.27 37.1446 294.8 36.6154 294.296 36.1397M291.081 44.2297C290.754 43.885 290.66 43.3619 290.646 42.7297M290.646 42.7297C290.632 42.1395 290.688 41.454 290.688 40.7297C290.688 38.7297 289.688 34.7297 286.188 32.7297C288.408 32.7297 291.785 33.7701 294.296 36.1397M290.646 42.7297C293.688 41.2297 294.76 37.6697 294.296 36.1397" stroke="black" stroke-width="0.5"/>
<path d="M290.688 40.7297C286.188 40.7297 284.188 36.7297 283.188 34.2297" stroke="black" stroke-width="0.5"/>
<path d="M132.686 12.8297C119.186 16.8297 107.186 22.7297 93.186 35.7297C100.186 23.7297 115.686 14.2297 131.186 9.22974L132.686 12.8297Z" fill="#E0426F" stroke="black" stroke-width="0.5"/>
<path d="M131.186 9.22974C111.186 14.9038 93.186 32.2297 85.186 30.2297C98.186 20.7297 114.186 12.2297 130.686 7.72974L131.186 9.22974Z" fill="#E0426F" stroke="black" stroke-width="0.5"/>
<path d="M10.1867 48.2296H4.1867C1.68604 52.2296 1.68604 62.2296 2.1867 65.7296C0.686035 66.7296 0.686633 71.2296 1.6867 72.7296L5.6867 73.2296V74.7296L1.6867 76.7296V78.7296C5.6867 79.7296 14.1867 81.7296 22.1867 81.2296V79.7296H39.6867C39.02 71.2296 40.6867 60.7296 49.6867 53.7296C47.1867 49.7296 40.1867 45.2296 37.1867 44.7296C27.1867 43.7296 12.1867 46.2296 10.1867 48.2296Z" fill="#E0426F" stroke="black" stroke-width="0.5"/>
<path d="M93.1875 35.7297C75.3542 36.5631 43.6875 41.4297 33.1875 44.4297L37.1875 44.7297C42.1875 46.2297 47.6875 50.5631 49.6875 53.7297C62.6865 44.2297 88.1865 51.2297 86.6865 78.7297H96.6865C89.6865 67.7297 90.6865 45.7297 93.1875 35.7297Z" fill="#E0426F" stroke="black" stroke-width="0.5"/>
<path d="M10.1855 48.2298H4.18555C36.6857 28.7297 58.6858 34.7297 84.6855 30.2297L93.6858 35.7297C76.6858 36.7297 47.6855 40.2297 33.6855 44.4297C25.6855 44.2297 11.6855 46.2297 10.1855 48.2298Z" fill="#E0426F" stroke="black" stroke-width="0.5"/>
<path d="M37.1875 44.7298C29.6875 43.7297 12.6875 45.7297 10.1875 48.2298C9.38749 50.6298 12.5208 53.5631 14.1875 54.7297C23.6875 56.2297 37.1875 50.2297 37.1875 44.7298Z" fill="#E0426F" stroke="black" stroke-width="0.5"/>
<path d="M4.18673 48.2297C11.1867 49.2297 5.18673 59.7297 2.18673 64.7297C1.68666 57.7297 2.18652 52.2297 4.18673 48.2297Z" fill="#E0426F" stroke="black" stroke-width="0.5"/>
<path d="M22.186 84.2297V79.7297H39.686L40.186 84.2297H22.186Z" fill="#E0426F" stroke="black" stroke-width="0.5"/>
<path d="M2.6875 65.7295C4.1875 68.2295 6.1875 71.3962 5.6875 73.2295M22.1875 79.7295C11.6875 80.2295 7.1875 76.2295 8.1875 72.7295C8.6875 72.2295 10.1875 70.7295 11.1875 70.7295" stroke="black" stroke-width="0.5"/>
<path d="M32.1875 74.7296C29.6875 70.7296 24.1875 65.7297 21.1875 64.2297C19.4375 63.7297 16.8124 63.8547 14.0623 64.2297C12.4374 65.563 11.1875 68.7296 11.6875 71.7296C11.6875 72.8963 12.9949 75.2296 15.6875 75.2296C20.1875 75.2296 27.1875 75.7296 32.1875 74.7296Z" fill="#E0426F"/>
<path d="M6.1875 65.7297C8.43744 65.2297 11.3124 64.6047 14.0623 64.2297M14.0623 64.2297C16.8124 63.8547 19.4375 63.7297 21.1875 64.2297C24.1875 65.7297 29.6875 70.7296 32.1875 74.7296C27.1875 75.7296 20.1875 75.2296 15.6875 75.2296C12.9949 75.2296 11.6875 72.8963 11.6875 71.7296C11.1875 68.7296 12.4374 65.563 14.0623 64.2297Z" stroke="black" stroke-width="0.5"/>
<path d="M11.6875 71.2297C19.6875 69.7297 23.1875 72.3582 26.1875 73.8582M13.1875 74.2297L30.6875 73.7297" stroke="black" stroke-width="0.5"/>
<path d="M22.1855 82.7295H31.6855C33.6855 82.7295 35.1855 80.7295 34.6855 79.7295M38.1855 79.7295V84.2295" stroke="black" stroke-width="0.5"/>
<path d="M22.1874 81.23C17.6874 81.23 13.1874 81.73 1.68745 78.73V76.73L5.68745 74.73V73.23L1.68745 72.73C1.18652 71.2297 0.186719 68.2297 2.18671 65.7297C1.68696 57.7297 2.18696 51.2297 4.18745 48.2295C36.6874 28.7299 58.6874 34.7299 84.6874 30.2299C162.687 -24.7702 244.687 12.2297 281.687 26.7299L295.187 28.7297L295.687 35.7297V38.7297C297.186 43.7297 298.521 48.2297 297.187 50.2297C299.687 51.2297 302.187 54.3964 302.187 56.2297L300.187 66.2297C300.639 77.0776 298.231 77.3019 288.9 77.6144C287.909 77.6476 285.84 77.6817 284.687 77.7297V79.2297L259.687 79.6608M22.1874 81.23V84.23H40.1858L39.6875 79.73M22.1874 81.23V79.73H39.6875M39.6875 79.73C36.6875 38.23 90.1874 41.23 86.6874 80.23V82.7297H213.187C207.187 39.2297 261.687 39.2297 259.687 79.6608M259.186 79.6608H259.687" stroke="black"/>
</svg>
