<svg width="303" height="95" viewBox="0 0 303 95" fill="none" xmlns="http://www.w3.org/2000/svg">
<circle cx="62.249" cy="73.6768" r="20.5" fill="#E56E90" stroke="black"/>
<circle cx="235.249" cy="73.6768" r="20.5" fill="#E56E90" stroke="black"/>
<path d="M132.247 12.1766L130.747 8.67661C170.747 0.676725 192.247 1.17676 231.247 12.6767L227.747 17.1767C207.747 9.17667 189.747 8.17667 173.747 7.67673C171.247 7.17673 167.247 7.1767 164.747 7.67661C154.747 7.67673 142.747 9.17674 132.247 12.1766Z" stroke="black" stroke-width="0.5"/>
<path d="M130.747 8.6768L130.247 7.1768C166.247 -3.82324 198.747 0.176632 234.247 9.1768L231.247 12.6768C191.247 0.176758 165.247 1.67676 130.747 8.6768Z" stroke="black" stroke-width="0.5"/>
<path d="M130.747 8.67675C182.247 -2.82328 210.747 7.17676 231.247 12.6767" stroke="black" stroke-width="0.5"/>
<path d="M226.249 30.1768L223.249 15.6768C218.749 14.1768 207.249 8.67676 173.749 7.67676L170.249 29.6768C181.249 29.1768 198.749 27.6768 225.749 27.6768" stroke="black" stroke-width="0.5"/>
<path d="M164.749 7.67676C131.749 8.67676 111.749 17.6768 92.749 35.1768L95.249 33.1768L159.249 30.1768L164.749 7.67676Z" stroke="black" stroke-width="0.5"/>
<path d="M239.247 22.1768C235.58 19.5101 229.747 17.1768 223.247 15.6768L225.747 27.6768H232.247C235.247 26.1768 238.247 23.9455 239.247 22.1768Z" stroke="black" stroke-width="0.5"/>
<path d="M96.249 78.1768H163.249L197.749 76.6768M96.249 78.1768C96.249 79.6768 96.749 80.6768 97.749 82.1768M96.249 78.1768H86.249V82.1768H97.749M197.749 76.6768L198.749 82.1768M197.749 76.6768H212.249L212.749 82.1768H198.749M198.749 82.1768H97.749" stroke="black" stroke-width="0.5"/>
<path d="M96.2482 78.1768C91.749 73.6768 88.7491 51.6768 92.7482 35.1768L164.749 31.1768C160.749 36.1768 159.749 70.1768 163.249 78.1768H96.2482Z" stroke="black" stroke-width="0.5"/>
<path d="M228.249 30.1768L164.749 31.1768C160.749 36.1768 159.749 70.1768 163.249 78.1768L197.749 76.6768C202.249 75.1768 208.749 69.6768 228.249 30.1768Z" stroke="black" stroke-width="0.5"/>
<path d="M170.249 29.6768C165.749 30.1768 162.249 30.1768 159.249 30.1768L164.749 7.67683C167.749 7.17676 170.749 7.17676 173.749 7.67683L170.249 29.6768Z" stroke="black" stroke-width="0.5"/>
<path d="M98.749 31.6769C103.249 37.1769 110.249 33.6769 114.249 32.1769C115.249 16.6768 102.249 24.6768 98.749 31.6769Z" stroke="black" stroke-width="0.5"/>
<path d="M234.247 9.17676L231.247 12.6768C248.247 18.1768 258.747 21.1768 271.247 27.6768H272.747L280.747 26.1768C265.747 19.6768 258.247 17.1768 234.247 9.17676Z" fill="#E0426F" stroke="black" stroke-width="0.5"/>
<path d="M271.247 27.6768C260.747 22.1768 241.747 15.6768 231.247 12.6768L229.247 15.1768L244.247 22.6768C242.747 25.1768 238.747 27.1768 232.747 29.8768C244.747 29.1768 261.747 28.1768 271.247 27.6768Z" fill="#E0426F" stroke="black" stroke-width="0.5"/>
<path d="M276.749 33.9768L282.747 31.6768L272.248 27.6768L228.248 30.1768C220.748 45.1768 205.748 75.6768 197.748 76.6768H212.248C210.748 65.6768 220.248 42.1768 245.249 51.1768C255.749 45.6768 265.749 40.1768 276.749 33.9768Z" fill="#E0426F" stroke="black" stroke-width="0.5"/>
<path d="M277.747 33.6768C265.747 40.1768 255.747 45.6768 245.247 51.1768C249.747 54.1768 260.247 60.1768 259.247 79.1768L284.247 78.6768V77.1768C292.747 76.1768 301.247 79.6768 299.747 65.6768L301.747 55.6768C301.747 54.1768 299.247 50.1768 296.747 49.6768C298.247 47.1768 295.247 38.1768 295.247 38.1768V36.6768L291.247 33.6768L286.247 32.1768L282.747 31.6768L277.747 33.6768Z" fill="#E0426F" stroke="black" stroke-width="0.5"/>
<path d="M280.747 26.1768L272.247 27.6768L282.747 31.6768C292.247 32.6768 291.246 34.1768 295.241 36.5969L294.747 28.1768L280.747 26.1768Z" fill="#E0426F"/>
<path d="M295.247 36.6768L295.241 36.5969M295.241 36.5969L294.747 28.1768L280.747 26.1768L272.247 27.6768L282.747 31.6768C292.247 32.6768 291.246 34.1768 295.241 36.5969Z" stroke="black" stroke-width="0.5"/>
<path d="M293.749 36.177C293.249 33.6768 282.249 33.4768 276.749 33.9768" stroke="black" stroke-width="0.5"/>
<path d="M299.749 66.1768L260.249 68.1768C259.749 63.1768 257.582 59.0101 255.749 57.1768L301.749 54.6768M300.249 52.1768C289.249 50.6768 278.249 45.8768 266.249 39.8768M228.249 30.1768L272.249 27.6768L280.749 26.1768" stroke="black" stroke-width="0.5"/>
<path d="M290.249 40.1768C290.249 38.1768 289.249 34.1768 285.749 32.1768C287.97 32.1768 291.347 33.2171 293.858 35.5867C294.322 37.1167 293.249 40.6768 290.207 42.1768C290.194 41.5865 290.249 40.901 290.249 40.1768Z" fill="#E0426F"/>
<path d="M272.249 42.6768C279.245 43.0265 285.262 43.1316 290.642 43.6768M297.249 44.6768C295.146 44.2261 292.953 43.9109 290.642 43.6768M295.249 37.1768C294.831 36.5916 294.362 36.0624 293.858 35.5867M290.642 43.6768C290.316 43.332 290.222 42.8089 290.207 42.1768M290.207 42.1768C290.194 41.5865 290.249 40.901 290.249 40.1768C290.249 38.1768 289.249 34.1768 285.749 32.1768C287.97 32.1768 291.347 33.2171 293.858 35.5867M290.207 42.1768C293.249 40.6768 294.322 37.1167 293.858 35.5867" stroke="black" stroke-width="0.5"/>
<path d="M290.249 40.1768C285.749 40.1768 283.749 36.1768 282.749 33.6768" stroke="black" stroke-width="0.5"/>
<path d="M132.247 12.2767C118.747 16.2767 106.747 22.1768 92.7471 35.1768C99.7471 23.1768 115.247 13.6768 130.747 8.67676L132.247 12.2767Z" fill="#E56E90" stroke="black" stroke-width="0.5"/>
<path d="M130.747 8.67676C110.747 14.3508 92.7471 31.6768 84.7471 29.6768C97.7471 20.1768 113.747 11.6768 130.247 7.17676L130.747 8.67676Z" fill="#E56E90" stroke="black" stroke-width="0.5"/>
<path d="M9.74774 47.6768H3.74774C1.24707 51.6768 1.24707 61.6768 1.74774 65.1768C0.24707 66.1768 0.247668 70.6768 1.24774 72.1768L5.24774 72.6768V74.1768L1.24774 76.1768V78.1768C5.24774 79.1768 13.7477 81.1768 21.7477 80.6768V79.1768H39.2477C38.5811 70.6768 40.2477 60.1768 49.2477 53.1768C46.7477 49.1768 39.7477 44.6768 36.7477 44.1768C26.7477 43.1768 11.7477 45.6768 9.74774 47.6768Z" fill="#E56E90" stroke="black" stroke-width="0.5"/>
<path d="M92.749 35.1768C74.9157 36.0101 43.249 40.8768 32.749 43.8768L36.749 44.1768C41.749 45.6768 47.249 50.0101 49.249 53.1768C62.248 43.6768 87.748 50.6768 86.248 78.1768H96.248C89.248 67.1768 90.248 45.1768 92.749 35.1768Z" fill="#E56E90" stroke="black" stroke-width="0.5"/>
<path d="M9.74707 47.6768H3.74707C36.2473 28.1767 58.2473 34.1768 84.2471 29.6768L93.2473 35.1768C76.2473 36.1768 47.2471 39.6768 33.2471 43.8768C25.2471 43.6767 11.2471 45.6768 9.74707 47.6768Z" fill="#E56E90" stroke="black" stroke-width="0.5"/>
<path d="M36.7485 44.1768C29.2485 43.1768 12.2485 45.1768 9.74852 47.6768C8.94852 50.0768 12.0819 53.0101 13.7485 54.1768C23.2485 55.6768 36.7485 49.6768 36.7485 44.1768Z" fill="#E56E90" stroke="black" stroke-width="0.5"/>
<path d="M3.74777 47.6768C10.7478 48.6768 4.74777 59.1768 1.74777 64.1768C1.2477 57.1768 1.74756 51.6768 3.74777 47.6768Z" fill="#E56E90" stroke="black" stroke-width="0.5"/>
<path d="M21.7471 83.6768V79.1768H39.2471L39.7471 83.6768H21.7471Z" fill="#E56E90" stroke="black" stroke-width="0.5"/>
<path d="M2.24902 65.1768C3.74902 67.6768 5.74902 70.8434 5.24902 72.6768M21.749 79.1768C11.249 79.6768 6.74902 75.6768 7.74902 72.1768C8.24902 71.6768 9.74902 70.1768 10.749 70.1768" stroke="black" stroke-width="0.5"/>
<path d="M31.749 74.1768C29.249 70.1768 23.749 65.1768 20.749 63.6768C18.999 63.1768 16.3739 63.3018 13.6238 63.6768C11.9989 65.0101 10.749 68.1768 11.249 71.1768C11.249 72.3434 12.5564 74.6768 15.249 74.6768C19.749 74.6768 26.749 75.1768 31.749 74.1768Z" fill="#E56E90"/>
<path d="M5.74902 65.1768C7.99897 64.6768 10.8739 64.0518 13.6238 63.6768M13.6238 63.6768C16.3739 63.3018 18.999 63.1768 20.749 63.6768C23.749 65.1768 29.249 70.1768 31.749 74.1768C26.749 75.1768 19.749 74.6768 15.249 74.6768C12.5564 74.6768 11.249 72.3434 11.249 71.1768C10.749 68.1768 11.9989 65.0101 13.6238 63.6768Z" stroke="black" stroke-width="0.5"/>
<path d="M11.249 70.6768C19.249 69.1769 22.749 71.8054 25.749 73.3054M12.749 73.6769L30.249 73.1769" stroke="black" stroke-width="0.5"/>
<path d="M21.7471 82.1768H31.2471C33.2471 82.1768 34.7471 80.1768 34.2471 79.1768M37.7471 79.1768V83.6768" stroke="black" stroke-width="0.5"/>
<path d="M21.749 80.677C17.249 80.677 12.749 81.177 1.24897 78.177V76.177L5.24897 74.177V72.677L1.24897 72.177C0.748047 70.6768 -0.251757 67.6768 1.74824 65.1768C1.24848 57.1768 1.74848 50.6768 3.74897 47.6765C36.249 28.1769 58.249 34.1769 84.249 29.6769C162.249 -25.3232 244.249 11.6767 281.249 26.1769L294.749 28.1768L295.249 35.1768V38.1768C296.747 43.1768 298.082 47.6768 296.749 49.6768C299.249 50.6768 301.749 53.8434 301.749 55.6768L299.749 65.6768C300.201 76.5247 297.793 76.7489 288.461 77.0614C287.47 77.0946 285.401 77.1288 284.249 77.1768V78.6768L259.249 79.1078M21.749 80.677V83.677H39.7473L39.249 79.177M21.749 80.677V79.177H39.249M39.249 79.177C36.249 37.677 89.749 40.677 86.249 79.677V82.1768H212.749C206.749 38.6768 261.249 38.6768 259.249 79.1078M258.747 79.1078H259.249" stroke="black"/>
</svg>
