<svg width="303" height="96" viewBox="0 0 303 96" fill="none" xmlns="http://www.w3.org/2000/svg">
<circle cx="62.4795" cy="74.2297" r="20.5" fill="#E0426F" stroke="black"/>
<circle cx="235.479" cy="74.2297" r="20.5" fill="#E0426F" stroke="black"/>
<path d="M132.478 12.7296L130.978 9.22959C170.978 1.2297 192.478 1.72974 231.478 13.2297L227.978 17.7297C207.978 9.72965 189.978 8.72964 173.978 8.22971C171.478 7.72971 167.478 7.72968 164.978 8.22959C154.978 8.22971 142.978 9.72971 132.478 12.7296Z" fill="#E0426F" stroke="black" stroke-width="0.5"/>
<path d="M130.978 9.22978L130.478 7.72978C166.478 -3.27026 198.978 0.72961 234.478 9.72978L231.478 13.2298C191.478 0.729736 165.478 2.22974 130.978 9.22978Z" fill="#E0426F" stroke="black" stroke-width="0.5"/>
<path d="M130.978 9.2296C182.478 -2.27042 210.978 7.72961 231.478 13.2296" stroke="black" stroke-width="0.5"/>
<path d="M170.479 30.2297L173.979 8.22974C207.479 9.22974 218.979 14.7297 223.479 16.2297L225.962 28.2297C198.972 28.2304 181.477 29.7298 170.479 30.2297Z" fill="#E0426F"/>
<path d="M226.479 30.7297L223.479 16.2297C218.979 14.7297 207.479 9.22974 173.979 8.22974L170.479 30.2297C181.479 29.7297 198.979 28.2297 225.979 28.2297" stroke="black" stroke-width="0.5"/>
<path d="M164.979 8.22974C131.979 9.22974 111.979 18.2297 92.9795 35.7297L95.4795 33.7297L159.479 30.7297L164.979 8.22974Z" fill="#E0426F" stroke="black" stroke-width="0.5"/>
<path d="M239.478 22.7297C235.811 20.0631 229.978 17.7297 223.478 16.2297L225.978 28.2297H232.478C235.478 26.7297 238.478 24.4985 239.478 22.7297Z" fill="#E0426F" stroke="black" stroke-width="0.5"/>
<path d="M96.4795 78.7297H163.479L197.979 77.2297H212.479L212.979 82.7297H198.979H97.9795H86.4795V78.7297H96.4795Z" fill="#E0426F"/>
<path d="M96.4795 78.7297H163.479L197.979 77.2297M96.4795 78.7297C96.4795 80.2297 96.9795 81.2297 97.9795 82.7297M96.4795 78.7297H86.4795V82.7297H97.9795M197.979 77.2297L198.979 82.7297M197.979 77.2297H212.479L212.979 82.7297H198.979M198.979 82.7297H97.9795" stroke="black" stroke-width="0.5"/>
<path d="M96.4786 78.7297C91.9795 74.2297 88.9795 52.2297 92.9786 35.7297L164.979 31.7297C160.979 36.7297 159.979 70.7297 163.479 78.7297H96.4786Z" fill="#E0426F" stroke="black" stroke-width="0.5"/>
<path d="M228.479 30.7297L164.979 31.7297C160.98 36.7297 159.98 70.7297 163.479 78.7297L197.979 77.2297C202.479 75.7297 208.979 70.2297 228.479 30.7297Z" fill="#E0426F" stroke="black" stroke-width="0.5"/>
<path d="M170.479 30.2298C165.979 30.7298 162.479 30.7298 159.479 30.7298L164.979 8.22981C167.979 7.72974 170.979 7.72974 173.979 8.22981L170.479 30.2298Z" fill="#E0426F" stroke="black" stroke-width="0.5"/>
<path d="M98.9795 32.2297C103.479 37.7297 110.479 34.2297 114.479 32.7297C115.479 17.2296 102.479 25.2296 98.9795 32.2297Z" fill="#E0426F" stroke="black" stroke-width="0.5"/>
<path d="M234.478 9.72974L231.478 13.2297C248.478 18.7297 258.978 21.7297 271.478 28.2297H272.978L280.978 26.7297C265.978 20.2297 258.478 17.7297 234.478 9.72974Z" fill="#EFC7D3" stroke="black" stroke-width="0.5"/>
<path d="M271.478 28.2297C260.978 22.7297 241.978 16.2297 231.478 13.2297L229.478 15.7297L244.478 23.2297C242.978 25.7297 238.978 27.7297 232.978 30.4297C244.978 29.7297 261.978 28.7297 271.478 28.2297Z" fill="#EFC7D3" stroke="black" stroke-width="0.5"/>
<path d="M276.979 34.5297L282.978 32.2297L272.479 28.2297L228.479 30.7297C220.979 45.7297 205.979 76.2297 197.979 77.2297H212.479C210.979 66.2297 220.479 42.7297 245.479 51.7297C255.979 46.2297 265.979 40.7297 276.979 34.5297Z" fill="#EFC7D3" stroke="black" stroke-width="0.5"/>
<path d="M277.978 34.2298C265.978 40.7298 255.978 46.2298 245.478 51.7298C249.978 54.7297 260.478 60.7297 259.478 79.7297L284.478 79.2297V77.7297C292.978 76.7297 301.478 80.2297 299.978 66.2297L301.978 56.2297C301.978 54.7297 299.478 50.7297 296.978 50.2297C298.478 47.7297 295.478 38.7297 295.478 38.7297V37.2297L291.478 34.2297L286.478 32.7297L282.978 32.2297L277.978 34.2298Z" fill="#EFC7D3" stroke="black" stroke-width="0.5"/>
<path d="M280.978 26.7297L272.478 28.2297L282.978 32.2297C292.478 33.2297 291.476 34.7297 295.472 37.1499L294.978 28.7297L280.978 26.7297Z" fill="#EFC7D3"/>
<path d="M295.478 37.2297L295.472 37.1499M295.472 37.1499L294.978 28.7297L280.978 26.7297L272.478 28.2297L282.978 32.2297C292.478 33.2297 291.476 34.7297 295.472 37.1499Z" stroke="black" stroke-width="0.5"/>
<path d="M293.979 36.7299C293.479 34.2298 282.479 34.0297 276.979 34.5297" stroke="black" stroke-width="0.5"/>
<path d="M299.979 66.7297L260.479 68.7297C259.979 63.7297 257.813 59.5631 255.979 57.7297L301.979 55.2297M300.479 52.7297C289.479 51.2297 278.479 46.4297 266.479 40.4297M228.479 30.7297L272.479 28.2297L280.979 26.7297" stroke="black" stroke-width="0.5"/>
<path d="M290.479 40.7297C290.479 38.7297 289.479 34.7297 285.979 32.7297C288.2 32.7297 291.577 33.7701 294.088 36.1397C294.552 37.6697 293.479 41.2297 290.438 42.7297C290.424 42.1395 290.479 41.454 290.479 40.7297Z" fill="#EFC7D3"/>
<path d="M272.479 43.2297C279.475 43.5795 285.492 43.6846 290.873 44.2297M297.479 45.2297C295.376 44.7791 293.183 44.4638 290.873 44.2297M295.479 37.7297C295.062 37.1446 294.592 36.6154 294.088 36.1397M290.873 44.2297C290.546 43.885 290.452 43.3619 290.438 42.7297M290.438 42.7297C290.424 42.1395 290.479 41.454 290.479 40.7297C290.479 38.7297 289.479 34.7297 285.979 32.7297C288.2 32.7297 291.577 33.7701 294.088 36.1397M290.438 42.7297C293.479 41.2297 294.552 37.6697 294.088 36.1397" stroke="black" stroke-width="0.5"/>
<path d="M290.479 40.7297C285.979 40.7297 283.979 36.7297 282.979 34.2297" stroke="black" stroke-width="0.5"/>
<path d="M132.478 12.8297C118.978 16.8297 106.978 22.7297 92.978 35.7297C99.978 23.7297 115.478 14.2297 130.978 9.22974L132.478 12.8297Z" fill="#E0426F" stroke="black" stroke-width="0.5"/>
<path d="M130.978 9.22974C110.978 14.9038 92.978 32.2297 84.978 30.2297C97.978 20.7297 113.978 12.2297 130.478 7.72974L130.978 9.22974Z" fill="#E0426F" stroke="black" stroke-width="0.5"/>
<path d="M9.97869 48.2296H3.97869C1.47803 52.2296 1.47803 62.2296 1.97869 65.7296C0.478027 66.7296 0.478625 71.2296 1.47869 72.7296L5.47869 73.2296V74.7296L1.47869 76.7296V78.7296C5.47869 79.7296 13.9787 81.7296 21.9787 81.2296V79.7296H39.4787C38.812 71.2296 40.4787 60.7296 49.4787 53.7296C46.9787 49.7296 39.9787 45.2296 36.9787 44.7296C26.9787 43.7296 11.9787 46.2296 9.97869 48.2296Z" fill="#E0426F" stroke="black" stroke-width="0.5"/>
<path d="M92.9795 35.7297C75.1462 36.5631 43.4795 41.4297 32.9795 44.4297L36.9795 44.7297C41.9795 46.2297 47.4795 50.5631 49.4795 53.7297C62.4785 44.2297 87.9785 51.2297 86.4785 78.7297H96.4785C89.4785 67.7297 90.4785 45.7297 92.9795 35.7297Z" fill="#E0426F" stroke="black" stroke-width="0.5"/>
<path d="M9.97754 48.2298H3.97754C36.4777 28.7297 58.4778 34.7297 84.4775 30.2297L93.4778 35.7297C76.4778 36.7297 47.4775 40.2297 33.4775 44.4297C25.4775 44.2297 11.4775 46.2297 9.97754 48.2298Z" fill="#E0426F" stroke="black" stroke-width="0.5"/>
<path d="M36.9795 44.7298C29.4795 43.7297 12.4795 45.7297 9.97948 48.2298C9.17948 50.6298 12.3128 53.5631 13.9795 54.7297C23.4795 56.2297 36.9795 50.2297 36.9795 44.7298Z" fill="#E0426F" stroke="black" stroke-width="0.5"/>
<path d="M3.97872 48.2297C10.9787 49.2297 4.97872 59.7297 1.97872 64.7297C1.47865 57.7297 1.97852 52.2297 3.97872 48.2297Z" fill="#E0426F" stroke="black" stroke-width="0.5"/>
<path d="M21.978 84.2297V79.7297H39.478L39.978 84.2297H21.978Z" fill="#E0426F" stroke="black" stroke-width="0.5"/>
<path d="M2.47949 65.7295C3.97949 68.2295 5.97949 71.3962 5.47949 73.2295M21.9795 79.7295C11.4795 80.2295 6.97949 76.2295 7.97949 72.7295C8.47949 72.2295 9.97949 70.7295 10.9795 70.7295" stroke="black" stroke-width="0.5"/>
<path d="M31.9795 74.7296C29.4795 70.7296 23.9795 65.7297 20.9795 64.2297C19.2294 63.7297 16.6044 63.8547 13.8543 64.2297C12.2294 65.563 10.9795 68.7296 11.4795 71.7296C11.4795 72.8963 12.7869 75.2296 15.4795 75.2296C19.9795 75.2296 26.9795 75.7296 31.9795 74.7296Z" fill="#E0426F"/>
<path d="M5.97949 65.7297C8.22943 65.2297 11.1043 64.6047 13.8543 64.2297M13.8543 64.2297C16.6044 63.8547 19.2294 63.7297 20.9795 64.2297C23.9795 65.7297 29.4795 70.7296 31.9795 74.7296C26.9795 75.7296 19.9795 75.2296 15.4795 75.2296C12.7869 75.2296 11.4795 72.8963 11.4795 71.7296C10.9795 68.7296 12.2293 65.563 13.8543 64.2297Z" stroke="black" stroke-width="0.5"/>
<path d="M11.4795 71.2297C19.4795 69.7297 22.9795 72.3582 25.9795 73.8582M12.9795 74.2297L30.4795 73.7297" stroke="black" stroke-width="0.5"/>
<path d="M21.9775 82.7295H31.4775C33.4775 82.7295 34.9775 80.7295 34.4775 79.7295M37.9775 79.7295V84.2295" stroke="black" stroke-width="0.5"/>
<path d="M21.9794 81.23C17.4794 81.23 12.9794 81.73 1.47944 78.73V76.73L5.47944 74.73V73.23L1.47944 72.73C0.978516 71.2297 -0.0212885 68.2297 1.97871 65.7297C1.47895 57.7297 1.97895 51.2297 3.97944 48.2295C36.4794 28.7299 58.4794 34.7299 84.4794 30.2299C162.479 -24.7702 244.479 12.2297 281.479 26.7299L294.979 28.7297L295.479 35.7297V38.7297C296.978 43.7297 298.313 48.2297 296.979 50.2297C299.479 51.2297 301.979 54.3964 301.979 56.2297L299.979 66.2297C300.431 77.0776 298.023 77.3019 288.692 77.6144C287.701 77.6476 285.632 77.6817 284.479 77.7297V79.2297L259.479 79.6608M21.9794 81.23V84.23H39.9778L39.4794 79.73M21.9794 81.23V79.73H39.4794M39.4794 79.73C36.4794 38.23 89.9794 41.23 86.4794 80.23V82.7297H212.979C206.979 39.2297 261.479 39.2297 259.479 79.6608M258.978 79.6608H259.479" stroke="black"/>
</svg>
