<svg width="303" height="96" viewBox="0 0 303 96" fill="none" xmlns="http://www.w3.org/2000/svg">
<circle cx="62.876" cy="74.3838" r="20.5" fill="#EFC7D3" stroke="black"/>
<circle cx="235.876" cy="74.3838" r="20.5" fill="#EFC7D3" stroke="black"/>
<path d="M132.874 12.8836L131.374 9.38364C171.374 1.38376 192.874 1.88379 231.874 13.3837L228.374 17.8837C208.374 9.8837 190.374 8.8837 174.374 8.38377C171.874 7.88377 167.874 7.88373 165.374 8.38364C155.374 8.38377 143.374 9.88377 132.874 12.8836Z" fill="#E56E90" stroke="black" stroke-width="0.5"/>
<path d="M131.374 9.38383L130.874 7.88383C166.874 -3.11621 199.374 0.883663 234.874 9.88383L231.874 13.3838C191.874 0.883789 165.874 2.38379 131.374 9.38383Z" fill="#E56E90" stroke="black" stroke-width="0.5"/>
<path d="M131.374 9.3839C182.874 -2.11613 211.374 7.88391 231.874 13.3839" stroke="black" stroke-width="0.5"/>
<path d="M170.876 30.3838L174.376 8.38379C207.876 9.38379 219.376 14.8838 223.876 16.3838L226.359 28.3838C199.369 28.3844 181.874 29.8839 170.876 30.3838Z" fill="#E56E90"/>
<path d="M226.876 30.8838L223.876 16.3838C219.376 14.8838 207.876 9.38379 174.376 8.38379L170.876 30.3838C181.876 29.8838 199.376 28.3838 226.376 28.3838" stroke="black" stroke-width="0.5"/>
<path d="M165.376 8.38379C132.376 9.38379 112.376 18.3838 93.376 35.8838L95.876 33.8838L159.876 30.8838L165.376 8.38379Z" fill="#E56E90" stroke="black" stroke-width="0.5"/>
<path d="M239.874 22.8838C236.207 20.2171 230.374 17.8838 223.874 16.3838L226.374 28.3838H232.874C235.874 26.8838 238.874 24.6525 239.874 22.8838Z" fill="#E56E90" stroke="black" stroke-width="0.5"/>
<path d="M96.876 78.8838H163.876L198.376 77.3838H212.876L213.376 82.8838H199.376H98.376H86.876V78.8838H96.876Z" fill="#E56E90"/>
<path d="M96.876 78.8838H163.876L198.376 77.3838M96.876 78.8838C96.876 80.3838 97.376 81.3838 98.376 82.8838M96.876 78.8838H86.876V82.8838H98.376M198.376 77.3838L199.376 82.8838M198.376 77.3838H212.876L213.376 82.8838H199.376M199.376 82.8838H98.376" stroke="black" stroke-width="0.5"/>
<path d="M96.8751 78.8838C92.376 74.3838 89.376 52.3838 93.3751 35.8838L165.376 31.8838C161.376 36.8838 160.376 70.8838 163.876 78.8838H96.8751Z" fill="#E56E90" stroke="black" stroke-width="0.5"/>
<path d="M228.876 30.8838L165.376 31.8838C161.376 36.8838 160.376 70.8838 163.876 78.8838L198.376 77.3838C202.876 75.8838 209.376 70.3838 228.876 30.8838Z" fill="#E56E90" stroke="black" stroke-width="0.5"/>
<path d="M170.876 30.3839C166.376 30.8839 162.876 30.8839 159.876 30.8839L165.376 8.38386C168.376 7.88379 171.376 7.88379 174.376 8.38386L170.876 30.3839Z" fill="#E56E90" stroke="black" stroke-width="0.5"/>
<path d="M99.376 32.384C103.876 37.884 110.876 34.384 114.876 32.884C115.876 17.3839 102.876 25.3839 99.376 32.384Z" fill="#E56E90" stroke="black" stroke-width="0.5"/>
<path d="M234.874 9.88379L231.874 13.3838C248.874 18.8838 259.374 21.8838 271.874 28.3838H273.374L281.374 26.8838C266.374 20.3838 258.874 17.8838 234.874 9.88379Z" fill="#EDADBF" stroke="black" stroke-width="0.5"/>
<path d="M271.874 28.3838C261.374 22.8838 242.374 16.3838 231.874 13.3838L229.874 15.8838L244.874 23.3838C243.374 25.8838 239.374 27.8838 233.374 30.5838C245.374 29.8838 262.374 28.8838 271.874 28.3838Z" fill="#EDADBF" stroke="black" stroke-width="0.5"/>
<path d="M277.376 34.6838L283.374 32.3838L272.875 28.3838L228.875 30.8838C221.375 45.8838 206.375 76.3838 198.375 77.3838H212.875C211.375 66.3838 220.875 42.8838 245.876 51.8838C256.376 46.3838 266.376 40.8838 277.376 34.6838Z" fill="#EDADBF" stroke="black" stroke-width="0.5"/>
<path d="M278.374 34.3838C266.374 40.8838 256.374 46.3838 245.874 51.8838C250.374 54.8838 260.874 60.8838 259.874 79.8838L284.874 79.3838V77.8838C293.374 76.8838 301.874 80.3838 300.374 66.3838L302.374 56.3838C302.374 54.8838 299.874 50.8838 297.374 50.3838C298.874 47.8838 295.874 38.8838 295.874 38.8838V37.3838L291.874 34.3838L286.874 32.8838L283.374 32.3838L278.374 34.3838Z" fill="#EDADBF" stroke="black" stroke-width="0.5"/>
<path d="M281.374 26.8838L272.874 28.3838L283.374 32.3838C292.874 33.3838 291.873 34.8838 295.868 37.304L295.374 28.8838L281.374 26.8838Z" fill="#EDADBF"/>
<path d="M295.874 37.3838L295.868 37.304M295.868 37.304L295.374 28.8838L281.374 26.8838L272.874 28.3838L283.374 32.3838C292.874 33.3838 291.873 34.8838 295.868 37.304Z" stroke="black" stroke-width="0.5"/>
<path d="M294.376 36.884C293.876 34.3839 282.876 34.1838 277.376 34.6838" stroke="black" stroke-width="0.5"/>
<path d="M300.376 66.8838L260.876 68.8838C260.376 63.8838 258.209 59.7171 256.376 57.8838L302.376 55.3838M300.876 52.8838C289.876 51.3838 278.876 46.5838 266.876 40.5838M228.876 30.8838L272.876 28.3838L281.376 26.8838" stroke="black" stroke-width="0.5"/>
<path d="M290.876 40.8838C290.876 38.8838 289.876 34.8838 286.376 32.8838C288.597 32.8838 291.974 33.9242 294.485 36.2938C294.949 37.8238 293.876 41.3838 290.834 42.8838C290.821 42.2935 290.876 41.6081 290.876 40.8838Z" fill="#EDADBF"/>
<path d="M272.876 43.3838C279.872 43.7336 285.889 43.8387 291.269 44.3838M297.876 45.3838C295.773 44.9331 293.58 44.6179 291.269 44.3838M295.876 37.8838C295.458 37.2987 294.989 36.7694 294.485 36.2938M291.269 44.3838C290.943 44.039 290.849 43.516 290.834 42.8838M290.834 42.8838C290.821 42.2935 290.876 41.6081 290.876 40.8838C290.876 38.8838 289.876 34.8838 286.376 32.8838C288.597 32.8838 291.974 33.9242 294.485 36.2938M290.834 42.8838C293.876 41.3838 294.949 37.8238 294.485 36.2938" stroke="black" stroke-width="0.5"/>
<path d="M290.876 40.8838C286.376 40.8838 284.376 36.8838 283.376 34.3838" stroke="black" stroke-width="0.5"/>
<path d="M132.874 12.9838C119.374 16.9838 107.374 22.8838 93.374 35.8838C100.374 23.8838 115.874 14.3838 131.374 9.38379L132.874 12.9838Z" fill="#E0426F" stroke="black" stroke-width="0.5"/>
<path d="M131.374 9.38379C111.374 15.0578 93.374 32.3838 85.374 30.3838C98.374 20.8838 114.374 12.3838 130.874 7.88379L131.374 9.38379Z" fill="#E0426F" stroke="black" stroke-width="0.5"/>
<path d="M10.3747 48.3837H4.37469C1.87402 52.3837 1.87402 62.3837 2.37469 65.8837C0.874023 66.8837 0.874621 71.3837 1.87469 72.8837L5.87469 73.3837V74.8837L1.87469 76.8837V78.8837C5.87469 79.8837 14.3747 81.8837 22.3747 81.3837V79.8837H39.8747C39.208 71.3837 40.8747 60.8837 49.8747 53.8837C47.3747 49.8837 40.3747 45.3837 37.3747 44.8837C27.3747 43.8837 12.3747 46.3837 10.3747 48.3837Z" fill="#E0426F" stroke="black" stroke-width="0.5"/>
<path d="M93.376 35.8838C75.5426 36.7171 43.876 41.5838 33.376 44.5838L37.376 44.8838C42.376 46.3838 47.876 50.7171 49.876 53.8838C62.875 44.3838 88.375 51.3838 86.875 78.8838H96.875C89.875 67.8838 90.875 45.8838 93.376 35.8838Z" fill="#E0426F" stroke="black" stroke-width="0.5"/>
<path d="M10.374 48.3838H4.37402C36.8742 28.8837 58.8743 34.8838 84.874 30.3838L93.8743 35.8838C76.8743 36.8838 47.874 40.3838 33.874 44.5838C25.874 44.3838 11.874 46.3838 10.374 48.3838Z" fill="#E0426F" stroke="black" stroke-width="0.5"/>
<path d="M37.3755 44.8839C29.8755 43.8838 12.8755 45.8838 10.3755 48.3839C9.57548 50.7838 12.7088 53.7171 14.3755 54.8838C23.8755 56.3838 37.3755 50.3838 37.3755 44.8839Z" fill="#E0426F" stroke="black" stroke-width="0.5"/>
<path d="M4.37472 48.3838C11.3747 49.3838 5.37472 59.8838 2.37472 64.8838C1.87465 57.8838 2.37451 52.3838 4.37472 48.3838Z" fill="#E0426F" stroke="black" stroke-width="0.5"/>
<path d="M22.374 84.3838V79.8838H39.874L40.374 84.3838H22.374Z" fill="#E0426F" stroke="black" stroke-width="0.5"/>
<path d="M2.87598 65.8838C4.37598 68.3838 6.37598 71.5505 5.87598 73.3838M22.376 79.8838C11.876 80.3838 7.37598 76.3838 8.37598 72.8838C8.87598 72.3838 10.376 70.8838 11.376 70.8838" stroke="black" stroke-width="0.5"/>
<path d="M32.376 74.8839C29.876 70.8839 24.376 65.884 21.376 64.384C19.6259 63.884 17.0008 64.009 14.2508 64.384C12.6258 65.7173 11.376 68.8839 11.876 71.8839C11.876 73.0506 13.1834 75.3839 15.876 75.3839C20.376 75.3839 27.376 75.8839 32.376 74.8839Z" fill="#E0426F"/>
<path d="M6.37598 65.884C8.62592 65.384 11.5008 64.759 14.2508 64.384M14.2508 64.384C17.0008 64.009 19.6259 63.884 21.376 64.384C24.376 65.884 29.876 70.8839 32.376 74.8839C27.376 75.8839 20.376 75.3839 15.876 75.3839C13.1834 75.3839 11.876 73.0506 11.876 71.8839C11.376 68.8839 12.6258 65.7173 14.2508 64.384Z" stroke="black" stroke-width="0.5"/>
<path d="M11.876 71.384C19.876 69.884 23.376 72.5125 26.376 74.0125M13.376 74.384L30.876 73.884" stroke="black" stroke-width="0.5"/>
<path d="M22.374 82.8838H31.874C33.874 82.8838 35.374 80.8838 34.874 79.8838M38.374 79.8838V84.3838" stroke="black" stroke-width="0.5"/>
<path d="M22.3759 81.384C17.8759 81.384 13.3759 81.884 1.87592 78.884V76.884L5.87592 74.884V73.384L1.87592 72.884C1.375 71.3838 0.375196 68.3838 2.37519 65.8838C1.87543 57.8838 2.37543 51.3838 4.37592 48.3835C36.8759 28.8839 58.8759 34.884 84.8759 30.384C162.876 -24.6161 244.876 12.3838 281.876 26.884L295.376 28.8838L295.876 35.8838V38.8838C297.374 43.8838 298.709 48.3838 297.376 50.3838C299.876 51.3838 302.376 54.5505 302.376 56.3838L300.376 66.3838C300.828 77.2317 298.42 77.456 289.088 77.7684C288.097 77.8016 286.028 77.8358 284.876 77.8838V79.3838L259.876 79.8148M22.3759 81.384V84.384H40.3743L39.8759 79.884M22.3759 81.384V79.884H39.8759M39.8759 79.884C36.8759 38.384 90.3759 41.384 86.8759 80.384V82.8838H213.376C207.376 39.3838 261.876 39.3838 259.876 79.8148M259.374 79.8148H259.876" stroke="black"/>
</svg>
