<svg width="303" height="95" viewBox="0 0 303 95" fill="none" xmlns="http://www.w3.org/2000/svg">
<circle cx="62.4697" cy="73.707" r="20.5" fill="#E0426F" stroke="black"/>
<circle cx="235.47" cy="73.707" r="20.5" fill="#E0426F" stroke="black"/>
<path d="M132.468 12.2069L130.968 8.70689C170.968 0.706999 192.468 1.20703 231.468 12.707L227.968 17.207C207.968 9.20694 189.968 8.20694 173.968 7.70701C171.468 7.20701 167.468 7.20697 164.968 7.70689C154.968 7.70701 142.968 9.20701 132.468 12.2069Z" fill="#E56E90" stroke="black" stroke-width="0.5"/>
<path d="M130.968 8.70708L130.468 7.20708C166.468 -3.79297 198.968 0.206905 234.468 9.20708L231.468 12.7071C191.468 0.207031 165.468 1.70703 130.968 8.70708Z" fill="#E56E90" stroke="black" stroke-width="0.5"/>
<path d="M130.968 8.70714C182.468 -2.79288 210.968 7.20715 231.468 12.7071" stroke="black" stroke-width="0.5"/>
<path d="M170.47 29.707L173.97 7.70703C207.47 8.70703 218.97 14.207 223.47 15.707L225.952 27.707C198.962 27.7077 181.467 29.2071 170.47 29.707Z" fill="#E56E90"/>
<path d="M226.47 30.207L223.47 15.707C218.97 14.207 207.47 8.70703 173.97 7.70703L170.47 29.707C181.47 29.207 198.97 27.707 225.97 27.707" stroke="black" stroke-width="0.5"/>
<path d="M164.97 7.70703C131.97 8.70703 111.97 17.707 92.9697 35.207L95.4697 33.207L159.47 30.207L164.97 7.70703Z" fill="#E56E90" stroke="black" stroke-width="0.5"/>
<path d="M239.468 22.207C235.801 19.5404 229.968 17.207 223.468 15.707L225.968 27.707H232.468C235.468 26.207 238.468 23.9758 239.468 22.207Z" fill="#E56E90" stroke="black" stroke-width="0.5"/>
<path d="M96.4697 78.207H163.47L197.97 76.707H212.47L212.97 82.207H198.97H97.9697H86.4697V78.207H96.4697Z" fill="#E56E90"/>
<path d="M96.4697 78.207H163.47L197.97 76.707M96.4697 78.207C96.4697 79.707 96.9697 80.707 97.9697 82.207M96.4697 78.207H86.4697V82.207H97.9697M197.97 76.707L198.97 82.207M197.97 76.707H212.47L212.97 82.207H198.97M198.97 82.207H97.9697" stroke="black" stroke-width="0.5"/>
<path d="M96.4689 78.207C91.9697 73.707 88.9698 51.707 92.9689 35.207L164.97 31.207C160.97 36.207 159.97 70.207 163.47 78.207H96.4689Z" fill="#E56E90" stroke="black" stroke-width="0.5"/>
<path d="M228.47 30.207L164.97 31.207C160.97 36.207 159.97 70.207 163.47 78.207L197.97 76.707C202.47 75.207 208.97 69.707 228.47 30.207Z" fill="#E56E90" stroke="black" stroke-width="0.5"/>
<path d="M170.47 29.7071C165.97 30.2071 162.47 30.2071 159.47 30.2071L164.97 7.70711C167.97 7.20703 170.97 7.20703 173.97 7.70711L170.47 29.7071Z" fill="#E56E90" stroke="black" stroke-width="0.5"/>
<path d="M98.9697 31.7073C103.47 37.2073 110.47 33.7073 114.47 32.2073C115.47 16.7072 102.47 24.7072 98.9697 31.7073Z" fill="#E56E90" stroke="black" stroke-width="0.5"/>
<path d="M234.468 9.20703L231.468 12.707C248.468 18.207 258.968 21.207 271.468 27.707H272.968L280.968 26.207C265.968 19.707 258.468 17.207 234.468 9.20703Z" fill="#EDADBF" stroke="black" stroke-width="0.5"/>
<path d="M271.468 27.707C260.968 22.207 241.968 15.707 231.468 12.707L229.468 15.207L244.468 22.707C242.968 25.207 238.968 27.207 232.968 29.907C244.968 29.207 261.968 28.207 271.468 27.707Z" fill="#EDADBF" stroke="black" stroke-width="0.5"/>
<path d="M276.97 34.007L282.968 31.707L272.469 27.707L228.469 30.207C220.969 45.207 205.969 75.707 197.969 76.707H212.469C210.969 65.707 220.469 42.207 245.47 51.207C255.97 45.707 265.97 40.207 276.97 34.007Z" fill="#EDADBF" stroke="black" stroke-width="0.5"/>
<path d="M277.968 33.7071C265.968 40.2071 255.968 45.7071 245.468 51.2071C249.968 54.207 260.468 60.207 259.468 79.207L284.468 78.707V77.207C292.968 76.207 301.468 79.707 299.968 65.707L301.968 55.707C301.968 54.207 299.468 50.207 296.968 49.707C298.468 47.207 295.468 38.207 295.468 38.207V36.707L291.468 33.707L286.468 32.207L282.968 31.707L277.968 33.7071Z" fill="#EDADBF" stroke="black" stroke-width="0.5"/>
<path d="M280.968 26.207L272.468 27.707L282.968 31.707C292.468 32.707 291.467 34.207 295.462 36.6272L294.968 28.207L280.968 26.207Z" fill="#EDADBF"/>
<path d="M295.468 36.707L295.462 36.6272M295.462 36.6272L294.968 28.207L280.968 26.207L272.468 27.707L282.968 31.707C292.468 32.707 291.467 34.207 295.462 36.6272Z" stroke="black" stroke-width="0.5"/>
<path d="M293.97 36.2072C293.47 33.7071 282.47 33.507 276.97 34.007" stroke="black" stroke-width="0.5"/>
<path d="M299.97 66.207L260.47 68.207C259.97 63.207 257.803 59.0404 255.97 57.207L301.97 54.707M300.47 52.207C289.47 50.707 278.47 45.907 266.47 39.907M228.47 30.207L272.47 27.707L280.97 26.207" stroke="black" stroke-width="0.5"/>
<path d="M290.47 40.207C290.47 38.207 289.47 34.207 285.97 32.207C288.191 32.207 291.567 33.2474 294.079 35.617C294.542 37.147 293.47 40.707 290.428 42.207C290.414 41.6167 290.47 40.9313 290.47 40.207Z" fill="#EDADBF"/>
<path d="M272.47 42.707C279.465 43.0568 285.482 43.1619 290.863 43.707M297.47 44.707C295.367 44.2564 293.173 43.9411 290.863 43.707M295.47 37.207C295.052 36.6219 294.583 36.0927 294.079 35.617M290.863 43.707C290.537 43.3623 290.443 42.8392 290.428 42.207M290.428 42.207C290.414 41.6168 290.47 40.9313 290.47 40.207C290.47 38.207 289.47 34.207 285.97 32.207C288.191 32.207 291.567 33.2474 294.079 35.617M290.428 42.207C293.47 40.707 294.542 37.147 294.079 35.617" stroke="black" stroke-width="0.5"/>
<path d="M290.47 40.207C285.97 40.207 283.97 36.207 282.97 33.707" stroke="black" stroke-width="0.5"/>
<path d="M132.468 12.307C118.968 16.307 106.968 22.207 92.9678 35.207C99.9678 23.207 115.468 13.707 130.968 8.70703L132.468 12.307Z" stroke="black" stroke-width="0.5"/>
<path d="M130.968 8.70703C110.968 14.3811 92.9678 31.707 84.9678 29.707C97.9678 20.207 113.968 11.707 130.468 7.20703L130.968 8.70703Z" stroke="black" stroke-width="0.5"/>
<path d="M9.96844 47.7069H3.96844C1.46777 51.7069 1.46777 61.7069 1.96844 65.2069C0.467773 66.2069 0.468371 70.7069 1.46844 72.2069L5.46844 72.7069V74.2069L1.46844 76.2069V78.2069C5.46844 79.2069 13.9684 81.2069 21.9684 80.7069V79.2069H39.4684C38.8018 70.7069 40.4684 60.2069 49.4684 53.2069C46.9684 49.2069 39.9684 44.7069 36.9684 44.2069C26.9684 43.2069 11.9684 45.7069 9.96844 47.7069Z" stroke="black" stroke-width="0.5"/>
<path d="M92.9697 35.207C75.1364 36.0404 43.4697 40.907 32.9697 43.907L36.9697 44.207C41.9697 45.707 47.4697 50.0404 49.4697 53.207C62.4688 43.707 87.9688 50.707 86.4688 78.207H96.4688C89.4688 67.207 90.4688 45.207 92.9697 35.207Z" stroke="black" stroke-width="0.5"/>
<path d="M9.96777 47.7071H3.96777C36.468 28.207 58.468 34.207 84.4678 29.707L93.468 35.207C76.468 36.207 47.4678 39.707 33.4678 43.907C25.4678 43.707 11.4678 45.707 9.96777 47.7071Z" stroke="black" stroke-width="0.5"/>
<path d="M36.9692 44.2071C29.4692 43.207 12.4692 45.207 9.96923 47.7071C9.16923 50.107 12.3026 53.0404 13.9692 54.207C23.4692 55.707 36.9692 49.707 36.9692 44.2071Z" stroke="black" stroke-width="0.5"/>
<path d="M3.96847 47.707C10.9685 48.707 4.96847 59.207 1.96847 64.207C1.4684 57.207 1.96826 51.707 3.96847 47.707Z" stroke="black" stroke-width="0.5"/>
<path d="M21.9678 83.707V79.207H39.4678L39.9678 83.707H21.9678Z" stroke="black" stroke-width="0.5"/>
<path d="M2.46973 65.207C3.96973 67.707 5.96973 70.8737 5.46973 72.707M21.9697 79.207C11.4697 79.707 6.96973 75.707 7.96973 72.207C8.46973 71.707 9.96973 70.207 10.9697 70.207" stroke="black" stroke-width="0.5"/>
<path d="M5.96973 65.2072C8.21967 64.7072 11.0946 64.0822 13.8445 63.7072M13.8445 63.7072C16.5946 63.3322 19.2197 63.2072 20.9697 63.7072C23.9697 65.2072 29.4697 70.2072 31.9697 74.2072C26.9697 75.2072 19.9697 74.7072 15.4697 74.7072C12.7771 74.7072 11.4697 72.3738 11.4697 71.2072C10.9697 68.2072 12.2196 65.0405 13.8445 63.7072Z" stroke="black" stroke-width="0.5"/>
<path d="M11.4697 70.7072C19.4697 69.2073 22.9697 71.8358 25.9697 73.3358M12.9697 73.7073L30.4697 73.2073" stroke="black" stroke-width="0.5"/>
<path d="M21.9678 82.207H31.4678C33.4678 82.207 34.9678 80.207 34.4678 79.207M37.9678 79.207V83.707" stroke="black" stroke-width="0.5"/>
<path d="M21.9697 80.7073C17.4697 80.7073 12.9697 81.2073 1.46967 78.2073V76.2073L5.46967 74.2073V72.7073L1.46967 72.2073C0.96875 70.707 -0.0310541 67.707 1.96894 65.207C1.46918 57.207 1.96918 50.707 3.96967 47.7068C36.4697 28.2072 58.4697 34.2072 84.4697 29.7072C162.47 -25.2929 244.47 11.707 281.47 26.2072L294.97 28.207L295.47 35.207V38.207C296.968 43.207 298.303 47.707 296.97 49.707C299.47 50.707 301.97 53.8737 301.97 55.707L299.97 65.707C300.422 76.5549 298.013 76.7792 288.682 77.0917C287.691 77.1249 285.622 77.159 284.47 77.207V78.707L259.47 79.1381M21.9697 80.7073V83.7073H39.968L39.4697 79.2073M21.9697 80.7073V79.2073H39.4697M39.4697 79.2073C36.4697 37.7073 89.9697 40.7073 86.4697 79.7073V82.207H212.97C206.97 38.707 261.47 38.707 259.47 79.1381M258.968 79.1381H259.47" stroke="black"/>
</svg>
