<svg width="303" height="96" viewBox="0 0 303 96" fill="none" xmlns="http://www.w3.org/2000/svg">
<circle cx="62.458" cy="74.3838" r="20.5" fill="#E0426F" stroke="black"/>
<circle cx="235.458" cy="74.3838" r="20.5" fill="#E0426F" stroke="black"/>
<path d="M132.456 12.8836L130.956 9.38364C170.956 1.38376 192.456 1.88379 231.456 13.3837L227.956 17.8837C207.956 9.8837 189.956 8.8837 173.956 8.38377C171.456 7.88377 167.456 7.88373 164.956 8.38364C154.956 8.38377 142.956 9.88377 132.456 12.8836Z" fill="#E56E90" stroke="black" stroke-width="0.5"/>
<path d="M130.956 9.38383L130.456 7.88383C166.456 -3.11621 198.956 0.883663 234.456 9.88383L231.456 13.3838C191.456 0.883789 165.456 2.38379 130.956 9.38383Z" fill="#E56E90" stroke="black" stroke-width="0.5"/>
<path d="M130.956 9.3839C182.456 -2.11613 210.956 7.88391 231.456 13.3839" stroke="black" stroke-width="0.5"/>
<path d="M170.458 30.3838L173.958 8.38379C207.458 9.38379 218.958 14.8838 223.458 16.3838L225.941 28.3838C198.951 28.3844 181.456 29.8839 170.458 30.3838Z" fill="#E56E90"/>
<path d="M226.458 30.8838L223.458 16.3838C218.958 14.8838 207.458 9.38379 173.958 8.38379L170.458 30.3838C181.458 29.8838 198.958 28.3838 225.958 28.3838" stroke="black" stroke-width="0.5"/>
<path d="M164.958 8.38379C131.958 9.38379 111.958 18.3838 92.958 35.8838L95.458 33.8838L159.458 30.8838L164.958 8.38379Z" fill="#E56E90" stroke="black" stroke-width="0.5"/>
<path d="M239.456 22.8838C235.789 20.2171 229.956 17.8838 223.456 16.3838L225.956 28.3838H232.456C235.456 26.8838 238.456 24.6525 239.456 22.8838Z" fill="#E56E90" stroke="black" stroke-width="0.5"/>
<path d="M96.458 78.8838H163.458L197.958 77.3838H212.458L212.958 82.8838H198.958H97.958H86.458V78.8838H96.458Z" fill="#E56E90"/>
<path d="M96.458 78.8838H163.458L197.958 77.3838M96.458 78.8838C96.458 80.3838 96.958 81.3838 97.958 82.8838M96.458 78.8838H86.458V82.8838H97.958M197.958 77.3838L198.958 82.8838M197.958 77.3838H212.458L212.958 82.8838H198.958M198.958 82.8838H97.958" stroke="black" stroke-width="0.5"/>
<path d="M96.4571 78.8838C91.958 74.3838 88.9581 52.3838 92.9571 35.8838L164.958 31.8838C160.958 36.8838 159.958 70.8838 163.458 78.8838H96.4571Z" fill="#E56E90" stroke="black" stroke-width="0.5"/>
<path d="M228.458 30.8838L164.958 31.8838C160.958 36.8838 159.958 70.8838 163.458 78.8838L197.958 77.3838C202.458 75.8838 208.958 70.3838 228.458 30.8838Z" fill="#E56E90" stroke="black" stroke-width="0.5"/>
<path d="M170.458 30.3839C165.958 30.8839 162.458 30.8839 159.458 30.8839L164.958 8.38386C167.958 7.88379 170.958 7.88379 173.958 8.38386L170.458 30.3839Z" fill="#E56E90" stroke="black" stroke-width="0.5"/>
<path d="M98.958 32.384C103.458 37.884 110.458 34.384 114.458 32.884C115.458 17.3839 102.458 25.3839 98.958 32.384Z" fill="#E56E90" stroke="black" stroke-width="0.5"/>
<path d="M234.456 9.88379L231.456 13.3838C248.456 18.8838 258.956 21.8838 271.456 28.3838H272.956L280.956 26.8838C265.956 20.3838 258.456 17.8838 234.456 9.88379Z" fill="#E56E90" stroke="black" stroke-width="0.5"/>
<path d="M271.456 28.3838C260.956 22.8838 241.956 16.3838 231.456 13.3838L229.456 15.8838L244.456 23.3838C242.956 25.8838 238.956 27.8838 232.956 30.5838C244.956 29.8838 261.956 28.8838 271.456 28.3838Z" fill="#E56E90" stroke="black" stroke-width="0.5"/>
<path d="M276.958 34.6838L282.956 32.3838L272.457 28.3838L228.457 30.8838C220.957 45.8838 205.957 76.3838 197.957 77.3838H212.457C210.957 66.3838 220.457 42.8838 245.458 51.8838C255.958 46.3838 265.958 40.8838 276.958 34.6838Z" fill="#E56E90" stroke="black" stroke-width="0.5"/>
<path d="M277.956 34.3838C265.956 40.8838 255.956 46.3838 245.456 51.8838C249.956 54.8838 260.456 60.8838 259.456 79.8838L284.456 79.3838V77.8838C292.956 76.8838 301.456 80.3838 299.956 66.3838L301.956 56.3838C301.956 54.8838 299.456 50.8838 296.956 50.3838C298.456 47.8838 295.456 38.8838 295.456 38.8838V37.3838L291.456 34.3838L286.456 32.8838L282.956 32.3838L277.956 34.3838Z" fill="#E56E90" stroke="black" stroke-width="0.5"/>
<path d="M280.956 26.8838L272.456 28.3838L282.956 32.3838C292.456 33.3838 291.455 34.8838 295.45 37.304L294.956 28.8838L280.956 26.8838Z" fill="#E56E90"/>
<path d="M295.456 37.3838L295.45 37.304M295.45 37.304L294.956 28.8838L280.956 26.8838L272.456 28.3838L282.956 32.3838C292.456 33.3838 291.455 34.8838 295.45 37.304Z" stroke="black" stroke-width="0.5"/>
<path d="M293.958 36.884C293.458 34.3839 282.458 34.1838 276.958 34.6838" stroke="black" stroke-width="0.5"/>
<path d="M299.958 66.8838L260.458 68.8838C259.958 63.8838 257.791 59.7171 255.958 57.8838L301.958 55.3838M300.458 52.8838C289.458 51.3838 278.458 46.5838 266.458 40.5838M228.458 30.8838L272.458 28.3838L280.958 26.8838" stroke="black" stroke-width="0.5"/>
<path d="M290.458 40.8838C290.458 38.8838 289.458 34.8838 285.958 32.8838C288.179 32.8838 291.556 33.9242 294.067 36.2938C294.531 37.8238 293.458 41.3838 290.416 42.8838C290.403 42.2935 290.458 41.6081 290.458 40.8838Z" fill="#E56E90"/>
<path d="M272.458 43.3838C279.454 43.7336 285.471 43.8387 290.851 44.3838M297.458 45.3838C295.355 44.9331 293.162 44.6179 290.851 44.3838M295.458 37.8838C295.04 37.2987 294.571 36.7694 294.067 36.2938M290.851 44.3838C290.525 44.039 290.431 43.516 290.416 42.8838M290.416 42.8838C290.403 42.2935 290.458 41.6081 290.458 40.8838C290.458 38.8838 289.458 34.8838 285.958 32.8838C288.179 32.8838 291.556 33.9242 294.067 36.2938M290.416 42.8838C293.458 41.3838 294.531 37.8238 294.067 36.2938" stroke="black" stroke-width="0.5"/>
<path d="M290.458 40.8838C285.958 40.8838 283.958 36.8838 282.958 34.3838" stroke="black" stroke-width="0.5"/>
<path d="M132.456 12.9838C118.956 16.9838 106.956 22.8838 92.9561 35.8838C99.9561 23.8838 115.456 14.3838 130.956 9.38379L132.456 12.9838Z" fill="#E0426F" stroke="black" stroke-width="0.5"/>
<path d="M130.956 9.38379C110.956 15.0578 92.9561 32.3838 84.9561 30.3838C97.9561 20.8838 113.956 12.3838 130.456 7.88379L130.956 9.38379Z" fill="#E0426F" stroke="black" stroke-width="0.5"/>
<path d="M9.95672 48.3837H3.95672C1.45605 52.3837 1.45605 62.3837 1.95672 65.8837C0.456055 66.8837 0.456652 71.3837 1.45672 72.8837L5.45672 73.3837V74.8837L1.45672 76.8837V78.8837C5.45672 79.8837 13.9567 81.8837 21.9567 81.3837V79.8837H39.4567C38.7901 71.3837 40.4567 60.8837 49.4567 53.8837C46.9567 49.8837 39.9567 45.3837 36.9567 44.8837C26.9567 43.8837 11.9567 46.3837 9.95672 48.3837Z" fill="#E0426F" stroke="black" stroke-width="0.5"/>
<path d="M92.958 35.8838C75.1247 36.7171 43.458 41.5838 32.958 44.5838L36.958 44.8838C41.958 46.3838 47.458 50.7171 49.458 53.8838C62.457 44.3838 87.957 51.3838 86.457 78.8838H96.457C89.457 67.8838 90.457 45.8838 92.958 35.8838Z" fill="#E0426F" stroke="black" stroke-width="0.5"/>
<path d="M9.95606 48.3838H3.95605C36.4562 28.8837 58.4563 34.8838 84.4561 30.3838L93.4563 35.8838C76.4563 36.8838 47.4561 40.3838 33.4561 44.5838C25.4561 44.3838 11.4561 46.3838 9.95606 48.3838Z" fill="#E0426F" stroke="black" stroke-width="0.5"/>
<path d="M36.9575 44.8839C29.4575 43.8838 12.4575 45.8838 9.95751 48.3839C9.15751 50.7838 12.2908 53.7171 13.9575 54.8838C23.4575 56.3838 36.9575 50.3838 36.9575 44.8839Z" fill="#E0426F" stroke="black" stroke-width="0.5"/>
<path d="M3.95675 48.3838C10.9568 49.3838 4.95675 59.8838 1.95675 64.8838C1.45668 57.8838 1.95654 52.3838 3.95675 48.3838Z" fill="#E0426F" stroke="black" stroke-width="0.5"/>
<path d="M21.9561 84.3838V79.8838H39.4561L39.9561 84.3838H21.9561Z" fill="#E0426F" stroke="black" stroke-width="0.5"/>
<path d="M2.45801 65.8838C3.95801 68.3838 5.95801 71.5505 5.45801 73.3838M21.958 79.8838C11.458 80.3838 6.95801 76.3838 7.95801 72.8838C8.45801 72.3838 9.95801 70.8838 10.958 70.8838" stroke="black" stroke-width="0.5"/>
<path d="M31.958 74.8839C29.458 70.8839 23.958 65.884 20.958 64.384C19.208 63.884 16.5829 64.009 13.8328 64.384C12.2079 65.7173 10.958 68.8839 11.458 71.8839C11.458 73.0506 12.7654 75.3839 15.458 75.3839C19.958 75.3839 26.958 75.8839 31.958 74.8839Z" fill="#E0426F"/>
<path d="M5.95801 65.884C8.20795 65.384 11.0829 64.759 13.8328 64.384M13.8328 64.384C16.5829 64.009 19.208 63.884 20.958 64.384C23.958 65.884 29.458 70.8839 31.958 74.8839C26.958 75.8839 19.958 75.3839 15.458 75.3839C12.7654 75.3839 11.458 73.0506 11.458 71.8839C10.958 68.8839 12.2079 65.7173 13.8328 64.384Z" stroke="black" stroke-width="0.5"/>
<path d="M11.458 71.384C19.458 69.884 22.958 72.5125 25.958 74.0125M12.958 74.384L30.458 73.884" stroke="black" stroke-width="0.5"/>
<path d="M21.9561 82.8838H31.4561C33.4561 82.8838 34.9561 80.8838 34.4561 79.8838M37.9561 79.8838V84.3838" stroke="black" stroke-width="0.5"/>
<path d="M21.958 81.384C17.458 81.384 12.958 81.884 1.45795 78.884V76.884L5.45795 74.884V73.384L1.45795 72.884C0.957031 71.3838 -0.0427729 68.3838 1.95722 65.8838C1.45747 57.8838 1.95747 51.3838 3.95795 48.3835C36.458 28.8839 58.4579 34.884 84.4579 30.384C162.458 -24.6161 244.458 12.3838 281.458 26.884L294.958 28.8838L295.458 35.8838V38.8838C296.956 43.8838 298.291 48.3838 296.958 50.3838C299.458 51.3838 301.958 54.5505 301.958 56.3838L299.958 66.3838C300.41 77.2317 298.002 77.456 288.67 77.7684C287.679 77.8016 285.61 77.8358 284.458 77.8838V79.3838L259.458 79.8148M21.958 81.384V84.384H39.9563L39.458 79.884M21.958 81.384V79.884H39.458M39.458 79.884C36.458 38.384 89.9579 41.384 86.4579 80.384V82.8838H212.958C206.958 39.3838 261.458 39.3838 259.458 79.8148M258.956 79.8148H259.458" stroke="black"/>
</svg>
