<svg width="304" height="96" viewBox="0 0 304 96" fill="none" xmlns="http://www.w3.org/2000/svg">
<circle cx="63.0635" cy="74.0454" r="20.5" fill="#EDADBF" stroke="black"/>
<circle cx="236.063" cy="74.0454" r="20.5" fill="#EDADBF" stroke="black"/>
<path d="M133.062 12.5453L131.562 9.04527C171.562 1.04538 193.062 1.54541 232.062 13.0454L228.562 17.5454C208.562 9.54532 190.562 8.54532 174.562 8.04539C172.062 7.54539 168.062 7.54535 165.562 8.04527C155.562 8.04539 143.562 9.54539 133.062 12.5453Z" fill="#E56E90" stroke="black" stroke-width="0.5"/>
<path d="M131.562 9.04545L131.062 7.54545C167.062 -3.45459 199.562 0.545284 235.062 9.54546L232.062 13.0455C192.062 0.54541 166.062 2.04541 131.562 9.04545Z" fill="#E56E90" stroke="black" stroke-width="0.5"/>
<path d="M131.562 9.04552C183.062 -2.4545 211.562 7.54553 232.062 13.0455" stroke="black" stroke-width="0.5"/>
<path d="M171.063 30.0454L174.563 8.04541C208.063 9.04541 219.563 14.5454 224.063 16.0454L226.546 28.0454C199.556 28.046 182.061 29.5455 171.063 30.0454Z" fill="#E56E90"/>
<path d="M227.063 30.5454L224.063 16.0454C219.563 14.5454 208.063 9.04541 174.563 8.04541L171.063 30.0454C182.063 29.5454 199.563 28.0454 226.563 28.0454" stroke="black" stroke-width="0.5"/>
<path d="M165.563 8.04541C132.563 9.04541 112.563 18.0454 93.5635 35.5454L96.0635 33.5454L160.063 30.5454L165.563 8.04541Z" fill="#E56E90" stroke="black" stroke-width="0.5"/>
<path d="M240.062 22.5454C236.395 19.8787 230.562 17.5454 224.062 16.0454L226.562 28.0454H233.062C236.062 26.5454 239.062 24.3141 240.062 22.5454Z" fill="#E56E90" stroke="black" stroke-width="0.5"/>
<path d="M97.0635 78.5454H164.063L198.563 77.0454H213.063L213.563 82.5454H199.563H98.5635H87.0635V78.5454H97.0635Z" fill="#E56E90"/>
<path d="M97.0635 78.5454H164.063L198.563 77.0454M97.0635 78.5454C97.0635 80.0454 97.5635 81.0454 98.5635 82.5454M97.0635 78.5454H87.0635V82.5454H98.5635M198.563 77.0454L199.563 82.5454M198.563 77.0454H213.063L213.563 82.5454H199.563M199.563 82.5454H98.5635" stroke="black" stroke-width="0.5"/>
<path d="M97.0626 78.5454C92.5635 74.0454 89.5635 52.0454 93.5626 35.5454L165.563 31.5454C161.563 36.5454 160.563 70.5454 164.063 78.5454H97.0626Z" fill="#E56E90" stroke="black" stroke-width="0.5"/>
<path d="M229.063 30.5454L165.563 31.5454C161.564 36.5454 160.564 70.5454 164.063 78.5454L198.563 77.0454C203.063 75.5454 209.563 70.0454 229.063 30.5454Z" fill="#E56E90" stroke="black" stroke-width="0.5"/>
<path d="M171.063 30.0455C166.563 30.5455 163.063 30.5455 160.063 30.5455L165.563 8.04548C168.563 7.54541 171.563 7.54541 174.563 8.04548L171.063 30.0455Z" fill="#E56E90" stroke="black" stroke-width="0.5"/>
<path d="M99.5635 32.0457C104.063 37.5457 111.063 34.0457 115.063 32.5457C116.063 17.0455 103.063 25.0455 99.5635 32.0457Z" fill="#E56E90" stroke="black" stroke-width="0.5"/>
<path d="M235.062 9.54541L232.062 13.0454C249.062 18.5454 259.562 21.5454 272.062 28.0454H273.562L281.562 26.5454C266.562 20.0454 259.062 17.5454 235.062 9.54541Z" fill="#E56E90" stroke="black" stroke-width="0.5"/>
<path d="M272.062 28.0454C261.562 22.5454 242.562 16.0454 232.062 13.0454L230.062 15.5454L245.062 23.0454C243.562 25.5454 239.562 27.5454 233.562 30.2454C245.562 29.5454 262.562 28.5454 272.062 28.0454Z" fill="#E56E90" stroke="black" stroke-width="0.5"/>
<path d="M277.563 34.3454L283.562 32.0454L273.062 28.0454L229.062 30.5454C221.562 45.5454 206.562 76.0454 198.562 77.0454H213.062C211.562 66.0454 221.062 42.5454 246.063 51.5454C256.563 46.0454 266.563 40.5454 277.563 34.3454Z" fill="#E56E90" stroke="black" stroke-width="0.5"/>
<path d="M278.562 34.0454C266.562 40.5454 256.562 46.0454 246.062 51.5454C250.562 54.5454 261.062 60.5454 260.062 79.5454L285.062 79.0454V77.5454C293.562 76.5454 302.062 80.0454 300.562 66.0454L302.562 56.0454C302.562 54.5454 300.062 50.5454 297.562 50.0454C299.062 47.5454 296.062 38.5454 296.062 38.5454V37.0454L292.062 34.0454L287.062 32.5454L283.562 32.0454L278.562 34.0454Z" fill="#E56E90" stroke="black" stroke-width="0.5"/>
<path d="M281.562 26.5454L273.062 28.0454L283.562 32.0454C293.062 33.0454 292.06 34.5454 296.056 36.9656L295.562 28.5454L281.562 26.5454Z" fill="#E56E90"/>
<path d="M296.062 37.0454L296.056 36.9656M296.056 36.9656L295.562 28.5454L281.562 26.5454L273.062 28.0454L283.562 32.0454C293.062 33.0454 292.06 34.5454 296.056 36.9656Z" stroke="black" stroke-width="0.5"/>
<path d="M294.563 36.5456C294.063 34.0455 283.063 33.8454 277.563 34.3454" stroke="black" stroke-width="0.5"/>
<path d="M300.563 66.5454L261.063 68.5454C260.563 63.5454 258.397 59.3787 256.563 57.5454L302.563 55.0454M301.063 52.5454C290.063 51.0454 279.063 46.2454 267.063 40.2454M229.063 30.5454L273.063 28.0454L281.563 26.5454" stroke="black" stroke-width="0.5"/>
<path d="M291.063 40.5454C291.063 38.5454 290.063 34.5454 286.563 32.5454C288.784 32.5454 292.161 33.5858 294.672 35.9554C295.136 37.4854 294.063 41.0454 291.022 42.5454C291.008 41.9551 291.063 41.2697 291.063 40.5454Z" fill="#E56E90"/>
<path d="M273.063 43.0454C280.059 43.3952 286.076 43.5003 291.457 44.0454M298.063 45.0454C295.96 44.5948 293.767 44.2795 291.457 44.0454M296.063 37.5454C295.646 36.9603 295.176 36.4311 294.672 35.9554M291.457 44.0454C291.13 43.7006 291.036 43.1776 291.022 42.5454M291.022 42.5454C291.008 41.9551 291.063 41.2697 291.063 40.5454C291.063 38.5454 290.063 34.5454 286.563 32.5454C288.784 32.5454 292.161 33.5858 294.672 35.9554M291.022 42.5454C294.063 41.0454 295.136 37.4854 294.672 35.9554" stroke="black" stroke-width="0.5"/>
<path d="M291.063 40.5454C286.563 40.5454 284.563 36.5454 283.563 34.0454" stroke="black" stroke-width="0.5"/>
<path d="M133.062 12.6454C119.562 16.6454 107.562 22.5454 93.5615 35.5454C100.562 23.5454 116.062 14.0454 131.562 9.04541L133.062 12.6454Z" fill="#EDADBF" stroke="black" stroke-width="0.5"/>
<path d="M131.562 9.04541C111.562 14.7194 93.5615 32.0454 85.5615 30.0454C98.5615 20.5454 114.562 12.0454 131.062 7.54541L131.562 9.04541Z" fill="#EDADBF" stroke="black" stroke-width="0.5"/>
<path d="M10.5622 48.0453H4.56219C2.06152 52.0453 2.06152 62.0453 2.56219 65.5453C1.06152 66.5453 1.06212 71.0453 2.06219 72.5453L6.06219 73.0453V74.5453L2.06219 76.5453V78.5453C6.06219 79.5453 14.5622 81.5453 22.5622 81.0453V79.5453H40.0622C39.3955 71.0453 41.0622 60.5453 50.0622 53.5453C47.5622 49.5453 40.5622 45.0453 37.5622 44.5453C27.5622 43.5453 12.5622 46.0453 10.5622 48.0453Z" fill="#EDADBF" stroke="black" stroke-width="0.5"/>
<path d="M93.5635 35.5454C75.7301 36.3787 44.0635 41.2454 33.5635 44.2454L37.5635 44.5454C42.5635 46.0454 48.0635 50.3787 50.0635 53.5454C63.0625 44.0454 88.5625 51.0454 87.0625 78.5454H97.0625C90.0625 67.5454 91.0625 45.5454 93.5635 35.5454Z" fill="#EDADBF" stroke="black" stroke-width="0.5"/>
<path d="M10.5615 48.0455H4.56152C37.0617 28.5454 59.0618 34.5454 85.0615 30.0454L94.0618 35.5454C77.0618 36.5454 48.0615 40.0454 34.0615 44.2454C26.0615 44.0454 12.0615 46.0454 10.5615 48.0455Z" fill="#EDADBF" stroke="black" stroke-width="0.5"/>
<path d="M37.563 44.5455C30.063 43.5454 13.063 45.5454 10.563 48.0455C9.76298 50.4454 12.8963 53.3787 14.563 54.5454C24.063 56.0454 37.563 50.0454 37.563 44.5455Z" fill="#EDADBF" stroke="black" stroke-width="0.5"/>
<path d="M4.56222 48.0454C11.5622 49.0454 5.56222 59.5454 2.56222 64.5454C2.06215 57.5454 2.56201 52.0454 4.56222 48.0454Z" fill="#EDADBF" stroke="black" stroke-width="0.5"/>
<path d="M22.5615 84.0454V79.5454H40.0615L40.5615 84.0454H22.5615Z" fill="#EDADBF" stroke="black" stroke-width="0.5"/>
<path d="M3.06348 65.5454C4.56348 68.0454 6.56348 71.2121 6.06348 73.0454M22.5635 79.5454C12.0635 80.0454 7.56348 76.0454 8.56348 72.5454C9.06348 72.0454 10.5635 70.5454 11.5635 70.5454" stroke="black" stroke-width="0.5"/>
<path d="M32.5635 74.5455C30.0635 70.5455 24.5635 65.5456 21.5635 64.0456C19.8134 63.5456 17.1883 63.6706 14.4383 64.0456C12.8133 65.3789 11.5635 68.5455 12.0635 71.5455C12.0635 72.7122 13.3709 75.0455 16.0635 75.0455C20.5635 75.0455 27.5635 75.5455 32.5635 74.5455Z" fill="#EDADBF"/>
<path d="M6.56348 65.5456C8.81342 65.0456 11.6883 64.4206 14.4383 64.0456M14.4383 64.0456C17.1883 63.6706 19.8134 63.5456 21.5635 64.0456C24.5635 65.5456 30.0635 70.5455 32.5635 74.5455C27.5635 75.5455 20.5635 75.0455 16.0635 75.0455C13.3709 75.0455 12.0635 72.7122 12.0635 71.5455C11.5635 68.5455 12.8133 65.3789 14.4383 64.0456Z" stroke="black" stroke-width="0.5"/>
<path d="M12.0635 71.0456C20.0635 69.5457 23.5635 72.1741 26.5635 73.6741M13.5635 74.0457L31.0635 73.5457" stroke="black" stroke-width="0.5"/>
<path d="M22.5615 82.5454H32.0615C34.0615 82.5454 35.5615 80.5454 35.0615 79.5454M38.5615 79.5454V84.0454" stroke="black" stroke-width="0.5"/>
<path d="M22.5634 81.0457C18.0634 81.0457 13.5634 81.5457 2.06342 78.5457V76.5457L6.06342 74.5456V73.0457L2.06342 72.5457C1.5625 71.0454 0.562696 68.0454 2.56269 65.5454C2.06293 57.5454 2.56293 51.0454 4.56342 48.0452C37.0634 28.5455 59.0634 34.5456 85.0634 30.0456C163.063 -24.9545 245.063 12.0454 282.063 26.5456L295.563 28.5454L296.063 35.5454V38.5454C297.562 43.5454 298.897 48.0454 297.563 50.0454C300.063 51.0454 302.563 54.2121 302.563 56.0454L300.563 66.0454C301.015 76.8933 298.607 77.1176 289.276 77.43C288.285 77.4632 286.216 77.4974 285.063 77.5454V79.0454L260.063 79.4764M22.5634 81.0457V84.0457H40.5618L40.0634 79.5457M22.5634 81.0457V79.5457H40.0634M40.0634 79.5457C37.0634 38.0457 90.5634 41.0457 87.0634 80.0457V82.5454H213.563C207.563 39.0454 262.063 39.0454 260.063 79.4764M259.562 79.4764H260.063" stroke="black"/>
</svg>
