<svg width="303" height="96" viewBox="0 0 303 96" fill="none" xmlns="http://www.w3.org/2000/svg">
<circle cx="62.2607" cy="74.0454" r="20.5" fill="#E56E90" stroke="black"/>
<circle cx="235.261" cy="74.0454" r="20.5" fill="#E56E90" stroke="black"/>
<path d="M132.259 12.5453L130.759 9.04527C170.759 1.04538 192.259 1.54541 231.259 13.0454L227.759 17.5454C207.759 9.54532 189.759 8.54532 173.759 8.04539C171.259 7.54539 167.259 7.54535 164.759 8.04527C154.759 8.04539 142.759 9.54539 132.259 12.5453Z" fill="#E56E90" stroke="black" stroke-width="0.5"/>
<path d="M130.759 9.04545L130.259 7.54545C166.259 -3.45459 198.759 0.545284 234.259 9.54546L231.259 13.0455C191.259 0.54541 165.259 2.04541 130.759 9.04545Z" fill="#E56E90" stroke="black" stroke-width="0.5"/>
<path d="M130.759 9.04552C182.259 -2.4545 210.759 7.54553 231.259 13.0455" stroke="black" stroke-width="0.5"/>
<path d="M170.261 30.0454L173.761 8.04541C207.261 9.04541 218.761 14.5454 223.261 16.0454L225.743 28.0454C198.753 28.046 181.258 29.5455 170.261 30.0454Z" fill="#E56E90"/>
<path d="M226.261 30.5454L223.261 16.0454C218.761 14.5454 207.261 9.04541 173.761 8.04541L170.261 30.0454C181.261 29.5454 198.761 28.0454 225.761 28.0454" stroke="black" stroke-width="0.5"/>
<path d="M164.761 8.04541C131.761 9.04541 111.761 18.0454 92.7607 35.5454L95.2607 33.5454L159.261 30.5454L164.761 8.04541Z" fill="#E56E90" stroke="black" stroke-width="0.5"/>
<path d="M239.259 22.5454C235.592 19.8787 229.759 17.5454 223.259 16.0454L225.759 28.0454H232.259C235.259 26.5454 238.259 24.3141 239.259 22.5454Z" fill="#E56E90" stroke="black" stroke-width="0.5"/>
<path d="M96.2607 78.5454H163.261L197.761 77.0454H212.261L212.761 82.5454H198.761H97.7607H86.2607V78.5454H96.2607Z" fill="#E56E90"/>
<path d="M96.2607 78.5454H163.261L197.761 77.0454M96.2607 78.5454C96.2607 80.0454 96.7607 81.0454 97.7607 82.5454M96.2607 78.5454H86.2607V82.5454H97.7607M197.761 77.0454L198.761 82.5454M197.761 77.0454H212.261L212.761 82.5454H198.761M198.761 82.5454H97.7607" stroke="black" stroke-width="0.5"/>
<path d="M96.2599 78.5454C91.7607 74.0454 88.7608 52.0454 92.7599 35.5454L164.761 31.5454C160.761 36.5454 159.761 70.5454 163.261 78.5454H96.2599Z" fill="#E56E90" stroke="black" stroke-width="0.5"/>
<path d="M228.261 30.5454L164.761 31.5454C160.761 36.5454 159.761 70.5454 163.261 78.5454L197.761 77.0454C202.261 75.5454 208.761 70.0454 228.261 30.5454Z" fill="#E56E90" stroke="black" stroke-width="0.5"/>
<path d="M170.261 30.0455C165.761 30.5455 162.261 30.5455 159.261 30.5455L164.761 8.04548C167.761 7.54541 170.761 7.54541 173.761 8.04548L170.261 30.0455Z" fill="#E56E90" stroke="black" stroke-width="0.5"/>
<path d="M98.7607 32.0457C103.261 37.5457 110.261 34.0457 114.261 32.5457C115.261 17.0455 102.261 25.0455 98.7607 32.0457Z" fill="#E56E90" stroke="black" stroke-width="0.5"/>
<path d="M234.259 9.54541L231.259 13.0454C248.259 18.5454 258.759 21.5454 271.259 28.0454H272.759L280.759 26.5454C265.759 20.0454 258.259 17.5454 234.259 9.54541Z" fill="#E56E90" stroke="black" stroke-width="0.5"/>
<path d="M271.259 28.0454C260.759 22.5454 241.759 16.0454 231.259 13.0454L229.259 15.5454L244.259 23.0454C242.759 25.5454 238.759 27.5454 232.759 30.2454C244.759 29.5454 261.759 28.5454 271.259 28.0454Z" fill="#E56E90" stroke="black" stroke-width="0.5"/>
<path d="M276.761 34.3454L282.759 32.0454L272.26 28.0454L228.26 30.5454C220.76 45.5454 205.76 76.0454 197.76 77.0454H212.26C210.76 66.0454 220.26 42.5454 245.261 51.5454C255.761 46.0454 265.761 40.5454 276.761 34.3454Z" fill="#E56E90" stroke="black" stroke-width="0.5"/>
<path d="M277.759 34.0454C265.759 40.5454 255.759 46.0454 245.259 51.5454C249.759 54.5454 260.259 60.5454 259.259 79.5454L284.259 79.0454V77.5454C292.759 76.5454 301.259 80.0454 299.759 66.0454L301.759 56.0454C301.759 54.5454 299.259 50.5454 296.759 50.0454C298.259 47.5454 295.259 38.5454 295.259 38.5454V37.0454L291.259 34.0454L286.259 32.5454L282.759 32.0454L277.759 34.0454Z" fill="#E56E90" stroke="black" stroke-width="0.5"/>
<path d="M280.759 26.5454L272.259 28.0454L282.759 32.0454C292.259 33.0454 291.258 34.5454 295.253 36.9656L294.759 28.5454L280.759 26.5454Z" fill="#E56E90"/>
<path d="M295.259 37.0454L295.253 36.9656M295.253 36.9656L294.759 28.5454L280.759 26.5454L272.259 28.0454L282.759 32.0454C292.259 33.0454 291.258 34.5454 295.253 36.9656Z" stroke="black" stroke-width="0.5"/>
<path d="M293.761 36.5456C293.261 34.0455 282.261 33.8454 276.761 34.3454" stroke="black" stroke-width="0.5"/>
<path d="M299.761 66.5454L260.261 68.5454C259.761 63.5454 257.594 59.3787 255.761 57.5454L301.761 55.0454M300.261 52.5454C289.261 51.0454 278.261 46.2454 266.261 40.2454M228.261 30.5454L272.261 28.0454L280.761 26.5454" stroke="black" stroke-width="0.5"/>
<path d="M290.261 40.5454C290.261 38.5454 289.261 34.5454 285.761 32.5454C287.982 32.5454 291.358 33.5858 293.87 35.9554C294.333 37.4854 293.261 41.0454 290.219 42.5454C290.205 41.9551 290.261 41.2697 290.261 40.5454Z" fill="#E56E90"/>
<path d="M272.261 43.0454C279.256 43.3952 285.273 43.5003 290.654 44.0454M297.261 45.0454C295.158 44.5948 292.964 44.2795 290.654 44.0454M295.261 37.5454C294.843 36.9603 294.374 36.4311 293.87 35.9554M290.654 44.0454C290.328 43.7006 290.234 43.1776 290.219 42.5454M290.219 42.5454C290.205 41.9551 290.261 41.2697 290.261 40.5454C290.261 38.5454 289.261 34.5454 285.761 32.5454C287.982 32.5454 291.358 33.5858 293.87 35.9554M290.219 42.5454C293.261 41.0454 294.333 37.4854 293.87 35.9554" stroke="black" stroke-width="0.5"/>
<path d="M290.261 40.5454C285.761 40.5454 283.761 36.5454 282.761 34.0454" stroke="black" stroke-width="0.5"/>
<path d="M132.259 12.6454C118.759 16.6454 106.759 22.5454 92.7588 35.5454C99.7588 23.5454 115.259 14.0454 130.759 9.04541L132.259 12.6454Z" fill="#EDADBF" stroke="black" stroke-width="0.5"/>
<path d="M130.759 9.04541C110.759 14.7194 92.7588 32.0454 84.7588 30.0454C97.7588 20.5454 113.759 12.0454 130.259 7.54541L130.759 9.04541Z" fill="#EDADBF" stroke="black" stroke-width="0.5"/>
<path d="M9.75946 48.0453H3.75946C1.25879 52.0453 1.25879 62.0453 1.75946 65.5453C0.258789 66.5453 0.259387 71.0453 1.25946 72.5453L5.25946 73.0453V74.5453L1.25946 76.5453V78.5453C5.25946 79.5453 13.7595 81.5453 21.7595 81.0453V79.5453H39.2595C38.5928 71.0453 40.2595 60.5453 49.2595 53.5453C46.7595 49.5453 39.7595 45.0453 36.7595 44.5453C26.7595 43.5453 11.7595 46.0453 9.75946 48.0453Z" fill="#EDADBF" stroke="black" stroke-width="0.5"/>
<path d="M92.7607 35.5454C74.9274 36.3787 43.2607 41.2454 32.7607 44.2454L36.7607 44.5454C41.7607 46.0454 47.2607 50.3787 49.2607 53.5454C62.2598 44.0454 87.7598 51.0454 86.2598 78.5454H96.2598C89.2598 67.5454 90.2598 45.5454 92.7607 35.5454Z" fill="#EDADBF" stroke="black" stroke-width="0.5"/>
<path d="M9.75879 48.0455H3.75879C36.259 28.5454 58.259 34.5454 84.2588 30.0454L93.259 35.5454C76.259 36.5454 47.2588 40.0454 33.2588 44.2454C25.2588 44.0454 11.2588 46.0454 9.75879 48.0455Z" fill="#EDADBF" stroke="black" stroke-width="0.5"/>
<path d="M36.7602 44.5455C29.2602 43.5454 12.2602 45.5454 9.76024 48.0455C8.96024 50.4454 12.0936 53.3787 13.7602 54.5454C23.2603 56.0454 36.7602 50.0454 36.7602 44.5455Z" fill="#EDADBF" stroke="black" stroke-width="0.5"/>
<path d="M3.75948 48.0454C10.7595 49.0454 4.75948 59.5454 1.75948 64.5454C1.25941 57.5454 1.75928 52.0454 3.75948 48.0454Z" fill="#EDADBF" stroke="black" stroke-width="0.5"/>
<path d="M21.7588 84.0454V79.5454H39.2588L39.7588 84.0454H21.7588Z" fill="#EDADBF" stroke="black" stroke-width="0.5"/>
<path d="M2.26074 65.5454C3.76074 68.0454 5.76074 71.2121 5.26074 73.0454M21.7607 79.5454C11.2607 80.0454 6.76074 76.0454 7.76074 72.5454C8.26074 72.0454 9.76074 70.5454 10.7607 70.5454" stroke="black" stroke-width="0.5"/>
<path d="M31.7607 74.5455C29.2607 70.5455 23.7607 65.5456 20.7607 64.0456C19.0107 63.5456 16.3856 63.6706 13.6355 64.0456C12.0106 65.3789 10.7607 68.5455 11.2607 71.5455C11.2607 72.7122 12.5682 75.0455 15.2607 75.0455C19.7607 75.0455 26.7607 75.5455 31.7607 74.5455Z" fill="#EDADBF"/>
<path d="M5.76074 65.5456C8.01068 65.0456 10.8856 64.4206 13.6355 64.0456M13.6355 64.0456C16.3856 63.6706 19.0107 63.5456 20.7607 64.0456C23.7607 65.5456 29.2607 70.5455 31.7607 74.5455C26.7607 75.5455 19.7607 75.0455 15.2607 75.0455C12.5682 75.0455 11.2607 72.7122 11.2607 71.5455C10.7607 68.5455 12.0106 65.3789 13.6355 64.0456Z" stroke="black" stroke-width="0.5"/>
<path d="M11.2607 71.0456C19.2607 69.5457 22.7607 72.1741 25.7607 73.6741M12.7607 74.0457L30.2607 73.5457" stroke="black" stroke-width="0.5"/>
<path d="M21.7588 82.5454H31.2588C33.2588 82.5454 34.7588 80.5454 34.2588 79.5454M37.7588 79.5454V84.0454" stroke="black" stroke-width="0.5"/>
<path d="M21.7607 81.0457C17.2607 81.0457 12.7607 81.5457 1.26069 78.5457V76.5457L5.26069 74.5456V73.0457L1.26069 72.5457C0.759766 71.0454 -0.240039 68.0454 1.75996 65.5454C1.2602 57.5454 1.7602 51.0454 3.76069 48.0452C36.2607 28.5455 58.2607 34.5456 84.2607 30.0456C162.261 -24.9545 244.261 12.0454 281.261 26.5456L294.761 28.5454L295.261 35.5454V38.5454C296.759 43.5454 298.094 48.0454 296.761 50.0454C299.261 51.0454 301.761 54.2121 301.761 56.0454L299.761 66.0454C300.213 76.8933 297.805 77.1176 288.473 77.43C287.482 77.4632 285.413 77.4974 284.261 77.5454V79.0454L259.261 79.4764M21.7607 81.0457V84.0457H39.759L39.2607 79.5457M21.7607 81.0457V79.5457H39.2607M39.2607 79.5457C36.2607 38.0457 89.7607 41.0457 86.2607 80.0457V82.5454H212.761C206.761 39.0454 261.261 39.0454 259.261 79.4764M258.759 79.4764H259.261" stroke="black"/>
</svg>
