<svg width="303" height="95" viewBox="0 0 303 95" fill="none" xmlns="http://www.w3.org/2000/svg">
<circle cx="62.4897" cy="73.6768" r="20.5" fill="#E0426F" stroke="black"/>
<circle cx="235.49" cy="73.6768" r="20.5" fill="#E0426F" stroke="black"/>
<path d="M132.488 12.1766L130.988 8.67661C170.988 0.676725 192.488 1.17676 231.488 12.6767L227.988 17.1767C207.988 9.17667 189.988 8.17667 173.988 7.67673C171.488 7.17673 167.488 7.1767 164.988 7.67661C154.988 7.67673 142.988 9.17674 132.488 12.1766Z" stroke="black" stroke-width="0.5"/>
<path d="M130.988 8.6768L130.488 7.1768C166.488 -3.82324 198.988 0.176632 234.488 9.1768L231.488 12.6768C191.488 0.176758 165.488 1.67676 130.988 8.6768Z" stroke="black" stroke-width="0.5"/>
<path d="M130.988 8.67675C182.488 -2.82328 210.988 7.17676 231.488 12.6767" stroke="black" stroke-width="0.5"/>
<path d="M226.49 30.1768L223.49 15.6768C218.99 14.1768 207.49 8.67676 173.99 7.67676L170.49 29.6768C181.49 29.1768 198.99 27.6768 225.99 27.6768" stroke="black" stroke-width="0.5"/>
<path d="M164.99 7.67676C131.99 8.67676 111.99 17.6768 92.9897 35.1768L95.4897 33.1768L159.49 30.1768L164.99 7.67676Z" stroke="black" stroke-width="0.5"/>
<path d="M239.488 22.1768C235.822 19.5101 229.988 17.1768 223.488 15.6768L225.988 27.6768H232.488C235.488 26.1768 238.488 23.9455 239.488 22.1768Z" stroke="black" stroke-width="0.5"/>
<path d="M96.4897 78.1768H163.49L197.99 76.6768M96.4897 78.1768C96.4897 79.6768 96.9897 80.6768 97.9897 82.1768M96.4897 78.1768H86.4897V82.1768H97.9897M197.99 76.6768L198.99 82.1768M197.99 76.6768H212.49L212.99 82.1768H198.99M198.99 82.1768H97.9897" stroke="black" stroke-width="0.5"/>
<path d="M96.4889 78.1768C91.9897 73.6768 88.9898 51.6768 92.9889 35.1768L164.99 31.1768C160.99 36.1768 159.99 70.1768 163.49 78.1768H96.4889Z" stroke="black" stroke-width="0.5"/>
<path d="M228.489 30.1768L164.989 31.1768C160.989 36.1768 159.99 70.1768 163.489 78.1768L197.989 76.6768C202.489 75.1768 208.989 69.6768 228.489 30.1768Z" stroke="black" stroke-width="0.5"/>
<path d="M170.49 29.6768C165.99 30.1768 162.49 30.1768 159.49 30.1768L164.99 7.67683C167.99 7.17676 170.99 7.17676 173.99 7.67683L170.49 29.6768Z" stroke="black" stroke-width="0.5"/>
<path d="M98.9897 31.6769C103.49 37.1769 110.49 33.6769 114.49 32.1769C115.49 16.6768 102.49 24.6768 98.9897 31.6769Z" stroke="black" stroke-width="0.5"/>
<path d="M234.488 9.17676L231.488 12.6768C248.488 18.1768 258.988 21.1768 271.488 27.6768H272.988L280.988 26.1768C265.988 19.6768 258.488 17.1768 234.488 9.17676Z" stroke="black" stroke-width="0.5"/>
<path d="M271.488 27.6768C260.988 22.1768 241.988 15.6768 231.488 12.6768L229.488 15.1768L244.488 22.6768C242.988 25.1768 238.988 27.1768 232.988 29.8768C244.988 29.1768 261.988 28.1768 271.488 27.6768Z" stroke="black" stroke-width="0.5"/>
<path d="M276.99 33.9768L282.988 31.6768L272.489 27.6768L228.489 30.1768C220.989 45.1768 205.989 75.6768 197.989 76.6768H212.489C210.989 65.6768 220.489 42.1768 245.49 51.1768C255.99 45.6768 265.99 40.1768 276.99 33.9768Z" stroke="black" stroke-width="0.5"/>
<path d="M277.988 33.6768C265.988 40.1768 255.988 45.6768 245.488 51.1768C249.988 54.1768 260.488 60.1768 259.488 79.1768L284.488 78.6768V77.1768C292.988 76.1768 301.488 79.6768 299.988 65.6768L301.988 55.6768C301.988 54.1768 299.488 50.1768 296.988 49.6768C298.488 47.1768 295.488 38.1768 295.488 38.1768V36.6768L291.488 33.6768L286.488 32.1768L282.988 31.6768L277.988 33.6768Z" stroke="black" stroke-width="0.5"/>
<path d="M295.488 36.6768L295.482 36.5969M295.482 36.5969L294.988 28.1768L280.988 26.1768L272.488 27.6768L282.988 31.6768C292.488 32.6768 291.487 34.1768 295.482 36.5969Z" stroke="black" stroke-width="0.5"/>
<path d="M293.99 36.177C293.49 33.6768 282.49 33.4768 276.99 33.9768" stroke="black" stroke-width="0.5"/>
<path d="M299.99 66.1768L260.49 68.1768C259.99 63.1768 257.823 59.0101 255.99 57.1768L301.99 54.6768M300.49 52.1768C289.49 50.6768 278.49 45.8768 266.49 39.8768M228.49 30.1768L272.49 27.6768L280.99 26.1768" stroke="black" stroke-width="0.5"/>
<path d="M272.49 42.6768C279.485 43.0265 285.502 43.1316 290.883 43.6768M297.49 44.6768C295.387 44.2261 293.194 43.9109 290.883 43.6768M295.49 37.1768C295.072 36.5916 294.603 36.0624 294.099 35.5867M290.883 43.6768C290.557 43.332 290.463 42.8089 290.448 42.1768M290.448 42.1768C290.434 41.5865 290.49 40.901 290.49 40.1768C290.49 38.1768 289.49 34.1768 285.99 32.1768C288.211 32.1768 291.587 33.2171 294.099 35.5867M290.448 42.1768C293.49 40.6768 294.562 37.1167 294.099 35.5867" stroke="black" stroke-width="0.5"/>
<path d="M290.49 40.1768C285.99 40.1768 283.99 36.1768 282.99 33.6768" stroke="black" stroke-width="0.5"/>
<path d="M132.488 12.2767C118.988 16.2767 106.988 22.1768 92.9883 35.1768C99.9883 23.1768 115.488 13.6768 130.988 8.67676L132.488 12.2767Z" fill="#E56E90" stroke="black" stroke-width="0.5"/>
<path d="M130.988 8.67676C110.988 14.3508 92.9883 31.6768 84.9883 29.6768C97.9883 20.1768 113.988 11.6768 130.488 7.17676L130.988 8.67676Z" fill="#E56E90" stroke="black" stroke-width="0.5"/>
<path d="M9.98895 47.6768H3.98895C1.48828 51.6768 1.48828 61.6768 1.98895 65.1768C0.488281 66.1768 0.488879 70.6768 1.48895 72.1768L5.48895 72.6768V74.1768L1.48895 76.1768V78.1768C5.48895 79.1768 13.9889 81.1768 21.9889 80.6768V79.1768H39.4889C38.8223 70.6768 40.4889 60.1768 49.4889 53.1768C46.9889 49.1768 39.9889 44.6768 36.9889 44.1768C26.9889 43.1768 11.9889 45.6768 9.98895 47.6768Z" fill="#E56E90" stroke="black" stroke-width="0.5"/>
<path d="M92.9897 35.1768C75.1564 36.0101 43.4897 40.8768 32.9897 43.8768L36.9897 44.1768C41.9897 45.6768 47.4897 50.0101 49.4897 53.1768C62.4888 43.6768 87.9888 50.6768 86.4888 78.1768H96.4888C89.4888 67.1768 90.4888 45.1768 92.9897 35.1768Z" fill="#E56E90" stroke="black" stroke-width="0.5"/>
<path d="M9.98828 47.6768H3.98828C36.4885 28.1767 58.4885 34.1768 84.4883 29.6768L93.4885 35.1768C76.4885 36.1768 47.4883 39.6768 33.4883 43.8768C25.4883 43.6767 11.4883 45.6768 9.98828 47.6768Z" fill="#E56E90" stroke="black" stroke-width="0.5"/>
<path d="M36.9897 44.1768C29.4897 43.1768 12.4897 45.1768 9.98974 47.6768C9.18974 50.0768 12.3231 53.0101 13.9897 54.1768C23.4897 55.6768 36.9897 49.6768 36.9897 44.1768Z" fill="#E56E90" stroke="black" stroke-width="0.5"/>
<path d="M3.98898 47.6768C10.989 48.6768 4.98898 59.1768 1.98898 64.1768C1.48891 57.1768 1.98877 51.6768 3.98898 47.6768Z" fill="#E56E90" stroke="black" stroke-width="0.5"/>
<path d="M21.9883 83.6768V79.1768H39.4883L39.9883 83.6768H21.9883Z" fill="#E56E90" stroke="black" stroke-width="0.5"/>
<path d="M2.49023 65.1768C3.99023 67.6768 5.99023 70.8434 5.49023 72.6768M21.9902 79.1768C11.4902 79.6768 6.99023 75.6768 7.99023 72.1768C8.49023 71.6768 9.99023 70.1768 10.9902 70.1768" stroke="black" stroke-width="0.5"/>
<path d="M31.9902 74.1768C29.4902 70.1768 23.9902 65.1768 20.9902 63.6768C19.2402 63.1768 16.6151 63.3018 13.865 63.6768C12.2401 65.0101 10.9902 68.1768 11.4902 71.1768C11.4902 72.3434 12.7977 74.6768 15.4902 74.6768C19.9902 74.6768 26.9902 75.1768 31.9902 74.1768Z" fill="#E56E90"/>
<path d="M5.99023 65.1768C8.24018 64.6768 11.1151 64.0518 13.865 63.6768M13.865 63.6768C16.6151 63.3018 19.2402 63.1768 20.9902 63.6768C23.9902 65.1768 29.4902 70.1768 31.9902 74.1768C26.9902 75.1768 19.9902 74.6768 15.4902 74.6768C12.7977 74.6768 11.4902 72.3434 11.4902 71.1768C10.9902 68.1768 12.2401 65.0101 13.865 63.6768Z" stroke="black" stroke-width="0.5"/>
<path d="M11.4902 70.6768C19.4902 69.1769 22.9902 71.8054 25.9902 73.3054M12.9902 73.6769L30.4902 73.1769" stroke="black" stroke-width="0.5"/>
<path d="M21.9883 82.1768H31.4883C33.4883 82.1768 34.9883 80.1768 34.4883 79.1768M37.9883 79.1768V83.6768" stroke="black" stroke-width="0.5"/>
<path d="M21.9897 80.677C17.4897 80.677 12.9897 81.177 1.48969 78.177V76.177L5.48969 74.177V72.677L1.48969 72.177C0.98877 70.6768 -0.0110346 67.6768 1.98896 65.1768C1.4892 57.1768 1.9892 50.6768 3.98969 47.6765C36.4897 28.1769 58.4897 34.1769 84.4897 29.6769C162.49 -25.3232 244.49 11.6767 281.49 26.1769L294.99 28.1768L295.49 35.1768V38.1768C296.988 43.1768 298.323 47.6768 296.99 49.6768C299.49 50.6768 301.99 53.8434 301.99 55.6768L299.99 65.6768C300.442 76.5247 298.034 76.7489 288.702 77.0614C287.711 77.0946 285.642 77.1288 284.49 77.1768V78.6768L259.49 79.1078M21.9897 80.677V83.677H39.988L39.4897 79.177M21.9897 80.677V79.177H39.4897M39.4897 79.177C36.4897 37.677 89.9897 40.677 86.4897 79.677V82.1768H212.99C206.99 38.6768 261.49 38.6768 259.49 79.1078M258.988 79.1078H259.49" stroke="black"/>
</svg>
