<svg width="304" height="95" viewBox="0 0 304 95" fill="none" xmlns="http://www.w3.org/2000/svg">
<circle cx="63.0835" cy="73.7222" r="20.5" fill="#EDADBF" stroke="black"/>
<circle cx="236.083" cy="73.7222" r="20.5" fill="#EDADBF" stroke="black"/>
<path d="M133.082 12.222L131.582 8.72202C171.582 0.722136 193.082 1.22217 232.082 12.7221L228.582 17.2221C208.582 9.22208 190.582 8.22208 174.582 7.72215C172.082 7.22215 168.082 7.22211 165.582 7.72202C155.582 7.72215 143.582 9.22215 133.082 12.222Z" fill="#E0426F" stroke="black" stroke-width="0.5"/>
<path d="M131.582 8.72221L131.082 7.22221C167.082 -3.77783 199.582 0.222042 235.082 9.22221L232.082 12.7222C192.082 0.222168 166.082 1.72217 131.582 8.72221Z" fill="#E0426F" stroke="black" stroke-width="0.5"/>
<path d="M131.582 8.72228C183.082 -2.77775 211.582 7.22229 232.082 12.7223" stroke="black" stroke-width="0.5"/>
<path d="M171.083 29.7222L174.583 7.72217C208.083 8.72217 219.583 14.2222 224.083 15.7222L226.566 27.7222C199.576 27.7228 182.081 29.2223 171.083 29.7222Z" fill="#E0426F"/>
<path d="M227.083 30.2222L224.083 15.7222C219.583 14.2222 208.083 8.72217 174.583 7.72217L171.083 29.7222C182.083 29.2222 199.583 27.7222 226.583 27.7222" stroke="black" stroke-width="0.5"/>
<path d="M165.583 7.72217C132.583 8.72217 112.583 17.7222 93.5835 35.2222L96.0835 33.2222L160.083 30.2222L165.583 7.72217Z" fill="#E0426F" stroke="black" stroke-width="0.5"/>
<path d="M240.082 22.2222C236.415 19.5555 230.582 17.2222 224.082 15.7222L226.582 27.7222H233.082C236.082 26.2222 239.082 23.9909 240.082 22.2222Z" fill="#E0426F" stroke="black" stroke-width="0.5"/>
<path d="M97.0835 78.2222H164.083L198.583 76.7222H213.083L213.583 82.2222H199.583H98.5835H87.0835V78.2222H97.0835Z" fill="#E0426F"/>
<path d="M97.0835 78.2222H164.083L198.583 76.7222M97.0835 78.2222C97.0835 79.7222 97.5835 80.7222 98.5835 82.2222M97.0835 78.2222H87.0835V82.2222H98.5835M198.583 76.7222L199.583 82.2222M198.583 76.7222H213.083L213.583 82.2222H199.583M199.583 82.2222H98.5835" stroke="black" stroke-width="0.5"/>
<path d="M97.0826 78.2222C92.5835 73.7222 89.5835 51.7222 93.5826 35.2222L165.583 31.2222C161.583 36.2222 160.583 70.2222 164.083 78.2222H97.0826Z" fill="#E0426F" stroke="black" stroke-width="0.5"/>
<path d="M229.083 30.2222L165.583 31.2222C161.583 36.2222 160.583 70.2222 164.083 78.2222L198.583 76.7222C203.083 75.2222 209.583 69.7222 229.083 30.2222Z" fill="#E0426F" stroke="black" stroke-width="0.5"/>
<path d="M171.083 29.7222C166.583 30.2222 163.083 30.2222 160.083 30.2222L165.583 7.72224C168.583 7.22217 171.583 7.22217 174.583 7.72224L171.083 29.7222Z" fill="#E0426F" stroke="black" stroke-width="0.5"/>
<path d="M99.5835 31.7224C104.083 37.2224 111.083 33.7224 115.083 32.2224C116.083 16.7223 103.083 24.7223 99.5835 31.7224Z" fill="#E0426F" stroke="black" stroke-width="0.5"/>
<path d="M235.082 9.22217L232.082 12.7222C249.082 18.2222 259.582 21.2222 272.082 27.7222H273.582L281.582 26.2222C266.582 19.7222 259.082 17.2222 235.082 9.22217Z" fill="#EFC7D3" stroke="black" stroke-width="0.5"/>
<path d="M272.082 27.7222C261.582 22.2222 242.582 15.7222 232.082 12.7222L230.082 15.2222L245.082 22.7222C243.582 25.2222 239.582 27.2222 233.582 29.9222C245.582 29.2222 262.582 28.2222 272.082 27.7222Z" fill="#EFC7D3" stroke="black" stroke-width="0.5"/>
<path d="M277.583 34.0222L283.582 31.7222L273.083 27.7222L229.083 30.2222C221.583 45.2222 206.583 75.7222 198.583 76.7222H213.083C211.583 65.7222 221.083 42.2222 246.083 51.2222C256.583 45.7222 266.583 40.2222 277.583 34.0222Z" fill="#EFC7D3" stroke="black" stroke-width="0.5"/>
<path d="M278.582 33.7222C266.582 40.2222 256.582 45.7222 246.082 51.2222C250.582 54.2222 261.082 60.2222 260.082 79.2222L285.082 78.7222V77.2222C293.582 76.2222 302.082 79.7222 300.582 65.7222L302.582 55.7222C302.582 54.2222 300.082 50.2222 297.582 49.7222C299.082 47.2222 296.082 38.2222 296.082 38.2222V36.7222L292.082 33.7222L287.082 32.2222L283.582 31.7222L278.582 33.7222Z" fill="#EFC7D3" stroke="black" stroke-width="0.5"/>
<path d="M281.582 26.2222L273.082 27.7222L283.582 31.7222C293.082 32.7222 292.081 34.2222 296.076 36.6423L295.582 28.2222L281.582 26.2222Z" fill="#EFC7D3"/>
<path d="M296.082 36.7222L296.076 36.6423M296.076 36.6423L295.582 28.2222L281.582 26.2222L273.082 27.7222L283.582 31.7222C293.082 32.7222 292.081 34.2222 296.076 36.6423Z" stroke="black" stroke-width="0.5"/>
<path d="M294.583 36.2224C294.083 33.7223 283.083 33.5222 277.583 34.0222" stroke="black" stroke-width="0.5"/>
<path d="M300.583 66.2222L261.083 68.2222C260.583 63.2222 258.417 59.0555 256.583 57.2222L302.583 54.7222M301.083 52.2222C290.083 50.7222 279.083 45.9222 267.083 39.9222M229.083 30.2222L273.083 27.7222L281.583 26.2222" stroke="black" stroke-width="0.5"/>
<path d="M291.083 40.2222C291.083 38.2222 290.083 34.2222 286.583 32.2222C288.804 32.2222 292.181 33.2626 294.692 35.6322C295.156 37.1622 294.083 40.7222 291.042 42.2222C291.028 41.6319 291.083 40.9465 291.083 40.2222Z" fill="#EFC7D3"/>
<path d="M273.083 42.7222C280.079 43.072 286.096 43.177 291.477 43.7222M298.083 44.7222C295.981 44.2715 293.787 43.9563 291.477 43.7222M296.083 37.2222C295.666 36.637 295.196 36.1078 294.692 35.6322M291.477 43.7222C291.15 43.3774 291.056 42.8544 291.042 42.2222M291.042 42.2222C291.028 41.6319 291.083 40.9465 291.083 40.2222C291.083 38.2222 290.083 34.2222 286.583 32.2222C288.804 32.2222 292.181 33.2626 294.692 35.6322M291.042 42.2222C294.083 40.7222 295.156 37.1622 294.692 35.6322" stroke="black" stroke-width="0.5"/>
<path d="M291.083 40.2222C286.583 40.2222 284.583 36.2222 283.583 33.7222" stroke="black" stroke-width="0.5"/>
<path d="M133.082 12.3221C119.582 16.3221 107.582 22.2222 93.582 35.2222C100.582 23.2222 116.082 13.7222 131.582 8.72217L133.082 12.3221Z" fill="#EFC7D3" stroke="black" stroke-width="0.5"/>
<path d="M131.582 8.72217C111.582 14.3962 93.582 31.7222 85.582 29.7222C98.582 20.2222 114.582 11.7222 131.082 7.22217L131.582 8.72217Z" fill="#EFC7D3" stroke="black" stroke-width="0.5"/>
<path d="M10.5827 47.7221H4.5827C2.08203 51.722 2.08203 61.722 2.5827 65.222C1.08203 66.222 1.08263 70.722 2.0827 72.222L6.0827 72.722V74.222L2.0827 76.222V78.222C6.0827 79.222 14.5827 81.222 22.5827 80.722V79.222H40.0827C39.416 70.722 41.0827 60.222 50.0827 53.222C47.5827 49.222 40.5827 44.722 37.5827 44.2221C27.5827 43.222 12.5827 45.7221 10.5827 47.7221Z" fill="#EFC7D3" stroke="black" stroke-width="0.5"/>
<path d="M93.5835 35.2222C75.7502 36.0555 44.0835 40.9222 33.5835 43.9222L37.5835 44.2222C42.5835 45.7222 48.0835 50.0555 50.0835 53.2222C63.0825 43.7222 88.5825 50.7222 87.0825 78.2222H97.0825C90.0825 67.2222 91.0825 45.2222 93.5835 35.2222Z" fill="#EFC7D3" stroke="black" stroke-width="0.5"/>
<path d="M10.582 47.7222H4.58203C37.0822 28.2221 59.0823 34.2222 85.082 29.7222L94.0823 35.2222C77.0823 36.2222 48.082 39.7222 34.082 43.9222C26.082 43.7222 12.082 45.7222 10.582 47.7222Z" fill="#EFC7D3" stroke="black" stroke-width="0.5"/>
<path d="M37.5835 44.2222C30.0835 43.2222 13.0835 45.2222 10.5835 47.7222C9.78349 50.1222 12.9168 53.0555 14.5835 54.2222C24.0835 55.7222 37.5835 49.7222 37.5835 44.2222Z" fill="#EFC7D3" stroke="black" stroke-width="0.5"/>
<path d="M4.58273 47.7222C11.5827 48.7222 5.58273 59.2222 2.58273 64.2222C2.08266 57.2222 2.58252 51.7222 4.58273 47.7222Z" fill="#EFC7D3" stroke="black" stroke-width="0.5"/>
<path d="M22.582 83.7222V79.2222H40.082L40.582 83.7222H22.582Z" fill="#EFC7D3" stroke="black" stroke-width="0.5"/>
<path d="M3.08398 65.2222C4.58398 67.7222 6.58398 70.8888 6.08398 72.7222M22.584 79.2222C12.084 79.7222 7.58398 75.7222 8.58398 72.2222C9.08398 71.7222 10.584 70.2222 11.584 70.2222" stroke="black" stroke-width="0.5"/>
<path d="M32.584 74.2223C30.084 70.2223 24.584 65.2224 21.584 63.7224C19.8339 63.2224 17.2088 63.3474 14.4588 63.7224C12.8338 65.0557 11.584 68.2223 12.084 71.2223C12.084 72.389 13.3914 74.7223 16.084 74.7223C20.584 74.7223 27.584 75.2223 32.584 74.2223Z" fill="#EFC7D3"/>
<path d="M6.58398 65.2224C8.83393 64.7223 11.7088 64.0974 14.4588 63.7224M14.4588 63.7224C17.2088 63.3474 19.8339 63.2224 21.584 63.7224C24.584 65.2224 30.084 70.2223 32.584 74.2223C27.584 75.2223 20.584 74.7223 16.084 74.7223C13.3914 74.7223 12.084 72.389 12.084 71.2223C11.584 68.2223 12.8338 65.0557 14.4588 63.7224Z" stroke="black" stroke-width="0.5"/>
<path d="M12.084 70.7224C20.084 69.2224 23.584 71.8509 26.584 73.3509M13.584 73.7224L31.084 73.2224" stroke="black" stroke-width="0.5"/>
<path d="M22.582 82.2222H32.082C34.082 82.2222 35.582 80.2222 35.082 79.2222M38.582 79.2222V83.7222" stroke="black" stroke-width="0.5"/>
<path d="M22.5834 80.7224C18.0834 80.7224 13.5834 81.2224 2.08344 78.2224V76.2224L6.08344 74.2224V72.7224L2.08344 72.2224C1.58252 70.7222 0.582715 67.7222 2.58271 65.2222C2.08295 57.2222 2.58295 50.7222 4.58344 47.7219C37.0834 28.2223 59.0834 34.2224 85.0834 29.7224C163.083 -25.2778 245.083 11.7222 282.083 26.2223L295.583 28.2222L296.083 35.2222V38.2222C297.582 43.2222 298.917 47.7222 297.583 49.7222C300.083 50.7222 302.583 53.8888 302.583 55.7222L300.583 65.7222C301.035 76.5701 298.627 76.7944 289.296 77.1068C288.305 77.14 286.236 77.1742 285.083 77.2222V78.7222L260.083 79.1532M22.5834 80.7224V83.7224H40.5818L40.0835 79.2224M22.5834 80.7224V79.2224H40.0835M40.0835 79.2224C37.0835 37.7224 90.5834 40.7224 87.0834 79.7224V82.2222H213.583C207.583 38.7222 262.083 38.7222 260.083 79.1532M259.582 79.1532H260.083" stroke="black"/>
</svg>
