<svg width="303" height="96" viewBox="0 0 303 96" fill="none" xmlns="http://www.w3.org/2000/svg">
<circle cx="62.4795" cy="74.3838" r="20.5" fill="#E0426F" stroke="black"/>
<circle cx="235.479" cy="74.3838" r="20.5" fill="#E0426F" stroke="black"/>
<path d="M132.478 12.8836L130.978 9.38364C170.978 1.38376 192.478 1.88379 231.478 13.3837L227.978 17.8837C207.978 9.8837 189.978 8.8837 173.978 8.38377C171.478 7.88377 167.478 7.88373 164.978 8.38364C154.978 8.38377 142.978 9.88377 132.478 12.8836Z" fill="#E56E90" stroke="black" stroke-width="0.5"/>
<path d="M130.978 9.38383L130.478 7.88383C166.478 -3.11621 198.978 0.883663 234.478 9.88383L231.478 13.3838C191.478 0.883789 165.478 2.38379 130.978 9.38383Z" fill="#E56E90" stroke="black" stroke-width="0.5"/>
<path d="M130.978 9.3839C182.478 -2.11613 210.978 7.88391 231.478 13.3839" stroke="black" stroke-width="0.5"/>
<path d="M170.479 30.3838L173.979 8.38379C207.479 9.38379 218.979 14.8838 223.479 16.3838L225.962 28.3838C198.972 28.3844 181.477 29.8839 170.479 30.3838Z" fill="#E56E90"/>
<path d="M226.479 30.8838L223.479 16.3838C218.979 14.8838 207.479 9.38379 173.979 8.38379L170.479 30.3838C181.479 29.8838 198.979 28.3838 225.979 28.3838" stroke="black" stroke-width="0.5"/>
<path d="M164.979 8.38379C131.979 9.38379 111.979 18.3838 92.9795 35.8838L95.4795 33.8838L159.479 30.8838L164.979 8.38379Z" fill="#E56E90" stroke="black" stroke-width="0.5"/>
<path d="M239.478 22.8838C235.811 20.2171 229.978 17.8838 223.478 16.3838L225.978 28.3838H232.478C235.478 26.8838 238.478 24.6525 239.478 22.8838Z" fill="#E56E90" stroke="black" stroke-width="0.5"/>
<path d="M96.4795 78.8838H163.479L197.979 77.3838H212.479L212.979 82.8838H198.979H97.9795H86.4795V78.8838H96.4795Z" fill="#E56E90"/>
<path d="M96.4795 78.8838H163.479L197.979 77.3838M96.4795 78.8838C96.4795 80.3838 96.9795 81.3838 97.9795 82.8838M96.4795 78.8838H86.4795V82.8838H97.9795M197.979 77.3838L198.979 82.8838M197.979 77.3838H212.479L212.979 82.8838H198.979M198.979 82.8838H97.9795" stroke="black" stroke-width="0.5"/>
<path d="M96.4786 78.8838C91.9795 74.3838 88.9795 52.3838 92.9786 35.8838L164.979 31.8838C160.979 36.8838 159.979 70.8838 163.479 78.8838H96.4786Z" fill="#E56E90" stroke="black" stroke-width="0.5"/>
<path d="M228.479 30.8838L164.979 31.8838C160.98 36.8838 159.98 70.8838 163.479 78.8838L197.979 77.3838C202.479 75.8838 208.979 70.3838 228.479 30.8838Z" fill="#E56E90" stroke="black" stroke-width="0.5"/>
<path d="M170.479 30.3839C165.979 30.8839 162.479 30.8839 159.479 30.8839L164.979 8.38386C167.979 7.88379 170.979 7.88379 173.979 8.38386L170.479 30.3839Z" fill="#E56E90" stroke="black" stroke-width="0.5"/>
<path d="M98.9795 32.384C103.479 37.884 110.479 34.384 114.479 32.884C115.479 17.3839 102.479 25.3839 98.9795 32.384Z" fill="#E56E90" stroke="black" stroke-width="0.5"/>
<path d="M234.478 9.88379L231.478 13.3838C248.478 18.8838 258.978 21.8838 271.478 28.3838H272.978L280.978 26.8838C265.978 20.3838 258.478 17.8838 234.478 9.88379Z" fill="#EFC7D3" stroke="black" stroke-width="0.5"/>
<path d="M271.478 28.3838C260.978 22.8838 241.978 16.3838 231.478 13.3838L229.478 15.8838L244.478 23.3838C242.978 25.8838 238.978 27.8838 232.978 30.5838C244.978 29.8838 261.978 28.8838 271.478 28.3838Z" fill="#EFC7D3" stroke="black" stroke-width="0.5"/>
<path d="M276.979 34.6838L282.978 32.3838L272.479 28.3838L228.479 30.8838C220.979 45.8838 205.979 76.3838 197.979 77.3838H212.479C210.979 66.3838 220.479 42.8838 245.479 51.8838C255.979 46.3838 265.979 40.8838 276.979 34.6838Z" fill="#EFC7D3" stroke="black" stroke-width="0.5"/>
<path d="M277.978 34.3838C265.978 40.8838 255.978 46.3838 245.478 51.8838C249.978 54.8838 260.478 60.8838 259.478 79.8838L284.478 79.3838V77.8838C292.978 76.8838 301.478 80.3838 299.978 66.3838L301.978 56.3838C301.978 54.8838 299.478 50.8838 296.978 50.3838C298.478 47.8838 295.478 38.8838 295.478 38.8838V37.3838L291.478 34.3838L286.478 32.8838L282.978 32.3838L277.978 34.3838Z" fill="#EFC7D3" stroke="black" stroke-width="0.5"/>
<path d="M280.978 26.8838L272.478 28.3838L282.978 32.3838C292.478 33.3838 291.476 34.8838 295.472 37.304L294.978 28.8838L280.978 26.8838Z" fill="#EFC7D3"/>
<path d="M295.478 37.3838L295.472 37.304M295.472 37.304L294.978 28.8838L280.978 26.8838L272.478 28.3838L282.978 32.3838C292.478 33.3838 291.476 34.8838 295.472 37.304Z" stroke="black" stroke-width="0.5"/>
<path d="M293.979 36.884C293.479 34.3839 282.479 34.1838 276.979 34.6838" stroke="black" stroke-width="0.5"/>
<path d="M299.979 66.8838L260.479 68.8838C259.979 63.8838 257.813 59.7171 255.979 57.8838L301.979 55.3838M300.479 52.8838C289.479 51.3838 278.479 46.5838 266.479 40.5838M228.479 30.8838L272.479 28.3838L280.979 26.8838" stroke="black" stroke-width="0.5"/>
<path d="M290.479 40.8838C290.479 38.8838 289.479 34.8838 285.979 32.8838C288.2 32.8838 291.577 33.9242 294.088 36.2938C294.552 37.8238 293.479 41.3838 290.438 42.8838C290.424 42.2935 290.479 41.6081 290.479 40.8838Z" fill="#EFC7D3"/>
<path d="M272.479 43.3838C279.475 43.7336 285.492 43.8387 290.873 44.3838M297.479 45.3838C295.376 44.9331 293.183 44.6179 290.873 44.3838M295.479 37.8838C295.062 37.2987 294.592 36.7694 294.088 36.2938M290.873 44.3838C290.546 44.039 290.452 43.516 290.438 42.8838M290.438 42.8838C290.424 42.2935 290.479 41.6081 290.479 40.8838C290.479 38.8838 289.479 34.8838 285.979 32.8838C288.2 32.8838 291.577 33.9242 294.088 36.2938M290.438 42.8838C293.479 41.3838 294.552 37.8238 294.088 36.2938" stroke="black" stroke-width="0.5"/>
<path d="M290.479 40.8838C285.979 40.8838 283.979 36.8838 282.979 34.3838" stroke="black" stroke-width="0.5"/>
<path d="M132.478 12.9838C118.978 16.9838 106.978 22.8838 92.978 35.8838C99.978 23.8838 115.478 14.3838 130.978 9.38379L132.478 12.9838Z" fill="#E0426F" stroke="black" stroke-width="0.5"/>
<path d="M130.978 9.38379C110.978 15.0578 92.978 32.3838 84.978 30.3838C97.978 20.8838 113.978 12.3838 130.478 7.88379L130.978 9.38379Z" fill="#E0426F" stroke="black" stroke-width="0.5"/>
<path d="M9.97869 48.3837H3.97869C1.47803 52.3837 1.47803 62.3837 1.97869 65.8837C0.478027 66.8837 0.478625 71.3837 1.47869 72.8837L5.47869 73.3837V74.8837L1.47869 76.8837V78.8837C5.47869 79.8837 13.9787 81.8837 21.9787 81.3837V79.8837H39.4787C38.812 71.3837 40.4787 60.8837 49.4787 53.8837C46.9787 49.8837 39.9787 45.3837 36.9787 44.8837C26.9787 43.8837 11.9787 46.3837 9.97869 48.3837Z" fill="#E0426F" stroke="black" stroke-width="0.5"/>
<path d="M92.9795 35.8838C75.1462 36.7171 43.4795 41.5838 32.9795 44.5838L36.9795 44.8838C41.9795 46.3838 47.4795 50.7171 49.4795 53.8838C62.4785 44.3838 87.9785 51.3838 86.4785 78.8838H96.4785C89.4785 67.8838 90.4785 45.8838 92.9795 35.8838Z" fill="#E0426F" stroke="black" stroke-width="0.5"/>
<path d="M9.97754 48.3838H3.97754C36.4777 28.8837 58.4778 34.8838 84.4775 30.3838L93.4778 35.8838C76.4778 36.8838 47.4775 40.3838 33.4775 44.5838C25.4775 44.3838 11.4775 46.3838 9.97754 48.3838Z" fill="#E0426F" stroke="black" stroke-width="0.5"/>
<path d="M36.9795 44.8839C29.4795 43.8838 12.4795 45.8838 9.97948 48.3839C9.17948 50.7838 12.3128 53.7171 13.9795 54.8838C23.4795 56.3838 36.9795 50.3838 36.9795 44.8839Z" fill="#E0426F" stroke="black" stroke-width="0.5"/>
<path d="M3.97872 48.3838C10.9787 49.3838 4.97872 59.8838 1.97872 64.8838C1.47865 57.8838 1.97852 52.3838 3.97872 48.3838Z" fill="#E0426F" stroke="black" stroke-width="0.5"/>
<path d="M21.978 84.3838V79.8838H39.478L39.978 84.3838H21.978Z" fill="#E0426F" stroke="black" stroke-width="0.5"/>
<path d="M2.47949 65.8838C3.97949 68.3838 5.97949 71.5505 5.47949 73.3838M21.9795 79.8838C11.4795 80.3838 6.97949 76.3838 7.97949 72.8838C8.47949 72.3838 9.97949 70.8838 10.9795 70.8838" stroke="black" stroke-width="0.5"/>
<path d="M31.9795 74.8839C29.4795 70.8839 23.9795 65.884 20.9795 64.384C19.2294 63.884 16.6044 64.009 13.8543 64.384C12.2294 65.7173 10.9795 68.8839 11.4795 71.8839C11.4795 73.0506 12.7869 75.3839 15.4795 75.3839C19.9795 75.3839 26.9795 75.8839 31.9795 74.8839Z" fill="#E0426F"/>
<path d="M5.97949 65.884C8.22943 65.384 11.1043 64.759 13.8543 64.384M13.8543 64.384C16.6044 64.009 19.2294 63.884 20.9795 64.384C23.9795 65.884 29.4795 70.8839 31.9795 74.8839C26.9795 75.8839 19.9795 75.3839 15.4795 75.3839C12.7869 75.3839 11.4795 73.0506 11.4795 71.8839C10.9795 68.8839 12.2293 65.7173 13.8543 64.384Z" stroke="black" stroke-width="0.5"/>
<path d="M11.4795 71.384C19.4795 69.884 22.9795 72.5125 25.9795 74.0125M12.9795 74.384L30.4795 73.884" stroke="black" stroke-width="0.5"/>
<path d="M21.9775 82.8838H31.4775C33.4775 82.8838 34.9775 80.8838 34.4775 79.8838M37.9775 79.8838V84.3838" stroke="black" stroke-width="0.5"/>
<path d="M21.9794 81.384C17.4794 81.384 12.9794 81.884 1.47944 78.884V76.884L5.47944 74.884V73.384L1.47944 72.884C0.978516 71.3838 -0.0212885 68.3838 1.97871 65.8838C1.47895 57.8838 1.97895 51.3838 3.97944 48.3835C36.4794 28.8839 58.4794 34.884 84.4794 30.384C162.479 -24.6161 244.479 12.3838 281.479 26.884L294.979 28.8838L295.479 35.8838V38.8838C296.978 43.8838 298.313 48.3838 296.979 50.3838C299.479 51.3838 301.979 54.5505 301.979 56.3838L299.979 66.3838C300.431 77.2317 298.023 77.456 288.692 77.7684C287.701 77.8016 285.632 77.8358 284.479 77.8838V79.3838L259.479 79.8148M21.9794 81.384V84.384H39.9778L39.4794 79.884M21.9794 81.384V79.884H39.4794M39.4794 79.884C36.4794 38.384 89.9794 41.384 86.4794 80.384V82.8838H212.979C206.979 39.3838 261.479 39.3838 259.479 79.8148M258.978 79.8148H259.479" stroke="black"/>
</svg>
