<svg width="303" height="96" viewBox="0 0 303 96" fill="none" xmlns="http://www.w3.org/2000/svg">
<circle cx="62.876" cy="74.0303" r="20.5" fill="#EFC7D3" stroke="black"/>
<circle cx="235.876" cy="74.0303" r="20.5" fill="#EFC7D3" stroke="black"/>
<path d="M132.874 12.5301L131.374 9.03013C171.374 1.03024 192.874 1.53027 231.874 13.0302L228.374 17.5302C208.374 9.53018 190.374 8.53018 174.374 8.03025C171.874 7.53025 167.874 7.53021 165.374 8.03013C155.374 8.03025 143.374 9.53025 132.874 12.5301Z" fill="#EDADBF" stroke="black" stroke-width="0.5"/>
<path d="M131.374 9.03032L130.874 7.53032C166.874 -3.46973 199.374 0.530148 234.874 9.53032L231.874 13.0303C191.874 0.530273 165.874 2.03027 131.374 9.03032Z" fill="#EDADBF" stroke="black" stroke-width="0.5"/>
<path d="M131.374 9.03038C182.874 -2.46964 211.374 7.5304 231.874 13.0304" stroke="black" stroke-width="0.5"/>
<path d="M170.876 30.0303L174.376 8.03027C207.876 9.03027 219.376 14.5303 223.876 16.0303L226.359 28.0303C199.369 28.0309 181.874 29.5304 170.876 30.0303Z" fill="#EDADBF"/>
<path d="M226.876 30.5303L223.876 16.0303C219.376 14.5303 207.876 9.03027 174.376 8.03027L170.876 30.0303C181.876 29.5303 199.376 28.0303 226.376 28.0303" stroke="black" stroke-width="0.5"/>
<path d="M165.376 8.03027C132.376 9.03027 112.376 18.0303 93.376 35.5303L95.876 33.5303L159.876 30.5303L165.376 8.03027Z" fill="#EDADBF" stroke="black" stroke-width="0.5"/>
<path d="M239.874 22.5303C236.207 19.8636 230.374 17.5303 223.874 16.0303L226.374 28.0303H232.874C235.874 26.5303 238.874 24.299 239.874 22.5303Z" fill="#EDADBF" stroke="black" stroke-width="0.5"/>
<path d="M96.876 78.5303H163.876L198.376 77.0303H212.876L213.376 82.5303H199.376H98.376H86.876V78.5303H96.876Z" fill="#EDADBF"/>
<path d="M96.876 78.5303H163.876L198.376 77.0303M96.876 78.5303C96.876 80.0303 97.376 81.0303 98.376 82.5303M96.876 78.5303H86.876V82.5303H98.376M198.376 77.0303L199.376 82.5303M198.376 77.0303H212.876L213.376 82.5303H199.376M199.376 82.5303H98.376" stroke="black" stroke-width="0.5"/>
<path d="M96.8751 78.5303C92.376 74.0303 89.376 52.0303 93.3751 35.5303L165.376 31.5303C161.376 36.5303 160.376 70.5303 163.876 78.5303H96.8751Z" fill="#EDADBF" stroke="black" stroke-width="0.5"/>
<path d="M228.876 30.5303L165.376 31.5303C161.376 36.5303 160.376 70.5303 163.876 78.5303L198.376 77.0303C202.876 75.5303 209.376 70.0303 228.876 30.5303Z" fill="#EDADBF" stroke="black" stroke-width="0.5"/>
<path d="M170.876 30.0303C166.376 30.5303 162.876 30.5303 159.876 30.5303L165.376 8.03035C168.376 7.53027 171.376 7.53027 174.376 8.03035L170.876 30.0303Z" fill="#EDADBF" stroke="black" stroke-width="0.5"/>
<path d="M99.376 32.0305C103.876 37.5305 110.876 34.0305 114.876 32.5305C115.876 17.0304 102.876 25.0304 99.376 32.0305Z" fill="#EDADBF" stroke="black" stroke-width="0.5"/>
<path d="M234.874 9.53027L231.874 13.0303C248.874 18.5303 259.374 21.5303 271.874 28.0303H273.374L281.374 26.5303C266.374 20.0303 258.874 17.5303 234.874 9.53027Z" fill="#EDADBF" stroke="black" stroke-width="0.5"/>
<path d="M271.874 28.0303C261.374 22.5303 242.374 16.0303 231.874 13.0303L229.874 15.5303L244.874 23.0303C243.374 25.5303 239.374 27.5303 233.374 30.2303C245.374 29.5303 262.374 28.5303 271.874 28.0303Z" fill="#EDADBF" stroke="black" stroke-width="0.5"/>
<path d="M277.376 34.3303L283.374 32.0303L272.875 28.0303L228.875 30.5303C221.375 45.5303 206.375 76.0303 198.375 77.0303H212.875C211.375 66.0303 220.875 42.5303 245.876 51.5303C256.376 46.0303 266.376 40.5303 277.376 34.3303Z" fill="#EDADBF" stroke="black" stroke-width="0.5"/>
<path d="M278.374 34.0303C266.374 40.5303 256.374 46.0303 245.874 51.5303C250.374 54.5303 260.874 60.5303 259.874 79.5303L284.874 79.0303V77.5303C293.374 76.5303 301.874 80.0303 300.374 66.0303L302.374 56.0303C302.374 54.5303 299.874 50.5303 297.374 50.0303C298.874 47.5303 295.874 38.5303 295.874 38.5303V37.0303L291.874 34.0303L286.874 32.5303L283.374 32.0303L278.374 34.0303Z" fill="#EDADBF" stroke="black" stroke-width="0.5"/>
<path d="M281.374 26.5303L272.874 28.0303L283.374 32.0303C292.874 33.0303 291.873 34.5303 295.868 36.9505L295.374 28.5303L281.374 26.5303Z" fill="#EDADBF"/>
<path d="M295.874 37.0303L295.868 36.9505M295.868 36.9505L295.374 28.5303L281.374 26.5303L272.874 28.0303L283.374 32.0303C292.874 33.0303 291.873 34.5303 295.868 36.9505Z" stroke="black" stroke-width="0.5"/>
<path d="M294.376 36.5305C293.876 34.0304 282.876 33.8303 277.376 34.3303" stroke="black" stroke-width="0.5"/>
<path d="M300.376 66.5303L260.876 68.5303C260.376 63.5303 258.209 59.3636 256.376 57.5303L302.376 55.0303M300.876 52.5303C289.876 51.0303 278.876 46.2303 266.876 40.2303M228.876 30.5303L272.876 28.0303L281.376 26.5303" stroke="black" stroke-width="0.5"/>
<path d="M290.876 40.5303C290.876 38.5303 289.876 34.5303 286.376 32.5303C288.597 32.5303 291.974 33.5707 294.485 35.9403C294.949 37.4703 293.876 41.0303 290.834 42.5303C290.821 41.94 290.876 41.2546 290.876 40.5303Z" fill="#EDADBF"/>
<path d="M272.876 43.0303C279.872 43.3801 285.889 43.4851 291.269 44.0303M297.876 45.0303C295.773 44.5796 293.58 44.2644 291.269 44.0303M295.876 37.5303C295.458 36.9451 294.989 36.4159 294.485 35.9403M291.269 44.0303C290.943 43.6855 290.849 43.1625 290.834 42.5303M290.834 42.5303C290.821 41.94 290.876 41.2546 290.876 40.5303C290.876 38.5303 289.876 34.5303 286.376 32.5303C288.597 32.5303 291.974 33.5707 294.485 35.9403M290.834 42.5303C293.876 41.0303 294.949 37.4703 294.485 35.9403" stroke="black" stroke-width="0.5"/>
<path d="M290.876 40.5303C286.376 40.5303 284.376 36.5303 283.376 34.0303" stroke="black" stroke-width="0.5"/>
<path d="M132.874 12.6302C119.374 16.6302 107.374 22.5303 93.374 35.5303C100.374 23.5303 115.874 14.0303 131.374 9.03027L132.874 12.6302Z" fill="#EFC7D3" stroke="black" stroke-width="0.5"/>
<path d="M131.374 9.03027C111.374 14.7043 93.374 32.0303 85.374 30.0303C98.374 20.5303 114.374 12.0303 130.874 7.53027L131.374 9.03027Z" fill="#EFC7D3" stroke="black" stroke-width="0.5"/>
<path d="M10.3747 48.0302H4.37469C1.87402 52.0302 1.87402 62.0302 2.37469 65.5302C0.874023 66.5302 0.874621 71.0302 1.87469 72.5302L5.87469 73.0302V74.5302L1.87469 76.5302V78.5302C5.87469 79.5302 14.3747 81.5302 22.3747 81.0302V79.5302H39.8747C39.208 71.0302 40.8747 60.5302 49.8747 53.5302C47.3747 49.5302 40.3747 45.0302 37.3747 44.5302C27.3747 43.5302 12.3747 46.0302 10.3747 48.0302Z" fill="#EFC7D3" stroke="black" stroke-width="0.5"/>
<path d="M93.376 35.5303C75.5426 36.3636 43.876 41.2303 33.376 44.2303L37.376 44.5303C42.376 46.0303 47.876 50.3636 49.876 53.5303C62.875 44.0303 88.375 51.0303 86.875 78.5303H96.875C89.875 67.5303 90.875 45.5303 93.376 35.5303Z" fill="#EFC7D3" stroke="black" stroke-width="0.5"/>
<path d="M10.374 48.0303H4.37402C36.8742 28.5302 58.8743 34.5303 84.874 30.0303L93.8743 35.5303C76.8743 36.5303 47.874 40.0303 33.874 44.2303C25.874 44.0303 11.874 46.0303 10.374 48.0303Z" fill="#EFC7D3" stroke="black" stroke-width="0.5"/>
<path d="M37.3755 44.5303C29.8755 43.5303 12.8755 45.5303 10.3755 48.0303C9.57548 50.4303 12.7088 53.3636 14.3755 54.5303C23.8755 56.0303 37.3755 50.0303 37.3755 44.5303Z" fill="#EFC7D3" stroke="black" stroke-width="0.5"/>
<path d="M4.37472 48.0303C11.3747 49.0303 5.37472 59.5303 2.37472 64.5303C1.87465 57.5303 2.37451 52.0303 4.37472 48.0303Z" fill="#EFC7D3" stroke="black" stroke-width="0.5"/>
<path d="M22.374 84.0303V79.5303H39.874L40.374 84.0303H22.374Z" fill="#EFC7D3" stroke="black" stroke-width="0.5"/>
<path d="M2.87598 65.5303C4.37598 68.0303 6.37598 71.1969 5.87598 73.0303M22.376 79.5303C11.876 80.0303 7.37598 76.0303 8.37598 72.5303C8.87598 72.0303 10.376 70.5303 11.376 70.5303" stroke="black" stroke-width="0.5"/>
<path d="M32.376 74.5304C29.876 70.5304 24.376 65.5305 21.376 64.0305C19.6259 63.5305 17.0008 63.6555 14.2508 64.0305C12.6258 65.3638 11.376 68.5304 11.876 71.5304C11.876 72.6971 13.1834 75.0304 15.876 75.0304C20.376 75.0304 27.376 75.5304 32.376 74.5304Z" fill="#EFC7D3"/>
<path d="M6.37598 65.5305C8.62592 65.0304 11.5008 64.4055 14.2508 64.0305M14.2508 64.0305C17.0008 63.6555 19.6259 63.5305 21.376 64.0305C24.376 65.5305 29.876 70.5304 32.376 74.5304C27.376 75.5304 20.376 75.0304 15.876 75.0304C13.1834 75.0304 11.876 72.6971 11.876 71.5304C11.376 68.5304 12.6258 65.3638 14.2508 64.0305Z" stroke="black" stroke-width="0.5"/>
<path d="M11.876 71.0305C19.876 69.5305 23.376 72.159 26.376 73.659M13.376 74.0305L30.876 73.5305" stroke="black" stroke-width="0.5"/>
<path d="M22.374 82.5303H31.874C33.874 82.5303 35.374 80.5303 34.874 79.5303M38.374 79.5303V84.0303" stroke="black" stroke-width="0.5"/>
<path d="M22.3759 81.0305C17.8759 81.0305 13.3759 81.5305 1.87592 78.5305V76.5305L5.87592 74.5305V73.0305L1.87592 72.5305C1.375 71.0303 0.375196 68.0303 2.37519 65.5303C1.87543 57.5303 2.37543 51.0303 4.37592 48.03C36.8759 28.5304 58.8759 34.5305 84.8759 30.0305C162.876 -24.9697 244.876 12.0303 281.876 26.5305L295.376 28.5303L295.876 35.5303V38.5303C297.374 43.5303 298.709 48.0303 297.376 50.0303C299.876 51.0303 302.376 54.1969 302.376 56.0303L300.376 66.0303C300.828 76.8782 298.42 77.1025 289.088 77.4149C288.097 77.4481 286.028 77.4823 284.876 77.5303V79.0303L259.876 79.4613M22.3759 81.0305V84.0305H40.3743L39.8759 79.5305M22.3759 81.0305V79.5305H39.8759M39.8759 79.5305C36.8759 38.0305 90.3759 41.0305 86.8759 80.0305V82.5303H213.376C207.376 39.0303 261.876 39.0303 259.876 79.4613M259.374 79.4613H259.876" stroke="black"/>
</svg>
