<svg width="304" height="96" viewBox="0 0 304 96" fill="none" xmlns="http://www.w3.org/2000/svg">
<circle cx="63.0518" cy="74.3384" r="20.5" fill="#EDADBF" stroke="black"/>
<circle cx="236.052" cy="74.3384" r="20.5" fill="#EDADBF" stroke="black"/>
<path d="M133.05 12.8382L131.55 9.33823C171.55 1.33835 193.05 1.83838 232.05 13.3383L228.55 17.8383C208.55 9.83829 190.55 8.83829 174.55 8.33836C172.05 7.83836 168.05 7.83832 165.55 8.33823C155.55 8.33836 143.55 9.83836 133.05 12.8382Z" stroke="black" stroke-width="0.5"/>
<path d="M131.55 9.33842L131.05 7.83842C167.05 -3.16162 199.55 0.838253 235.05 9.83842L232.05 13.3384C192.05 0.838379 166.05 2.33838 131.55 9.33842Z" stroke="black" stroke-width="0.5"/>
<path d="M131.55 9.33837C183.05 -2.16166 211.55 7.83838 232.05 13.3384" stroke="black" stroke-width="0.5"/>
<path d="M227.052 30.8384L224.052 16.3384C219.552 14.8384 208.052 9.33838 174.552 8.33838L171.052 30.3384C182.052 29.8384 199.552 28.3384 226.552 28.3384" stroke="black" stroke-width="0.5"/>
<path d="M165.552 8.33838C132.552 9.33838 112.552 18.3384 93.5518 35.8384L96.0518 33.8384L160.052 30.8384L165.552 8.33838Z" stroke="black" stroke-width="0.5"/>
<path d="M240.05 22.8384C236.383 20.1717 230.55 17.8384 224.05 16.3384L226.55 28.3384H233.05C236.05 26.8384 239.05 24.6071 240.05 22.8384Z" stroke="black" stroke-width="0.5"/>
<path d="M97.0518 78.8384H164.052L198.552 77.3384M97.0518 78.8384C97.0518 80.3384 97.5518 81.3384 98.5518 82.8384M97.0518 78.8384H87.0518V82.8384H98.5518M198.552 77.3384L199.552 82.8384M198.552 77.3384H213.052L213.552 82.8384H199.552M199.552 82.8384H98.5518" stroke="black" stroke-width="0.5"/>
<path d="M97.0509 78.8384C92.5518 74.3384 89.5518 52.3384 93.5509 35.8384L165.552 31.8384C161.552 36.8384 160.552 70.8384 164.052 78.8384H97.0509Z" stroke="black" stroke-width="0.5"/>
<path d="M229.052 30.8384L165.552 31.8384C161.552 36.8384 160.552 70.8384 164.052 78.8384L198.552 77.3384C203.052 75.8384 209.552 70.3384 229.052 30.8384Z" stroke="black" stroke-width="0.5"/>
<path d="M171.052 30.3385C166.552 30.8385 163.052 30.8385 160.052 30.8385L165.552 8.33845C168.552 7.83838 171.552 7.83838 174.552 8.33845L171.052 30.3385Z" stroke="black" stroke-width="0.5"/>
<path d="M99.5518 32.3385C104.052 37.8385 111.052 34.3385 115.052 32.8385C116.052 17.3384 103.052 25.3384 99.5518 32.3385Z" stroke="black" stroke-width="0.5"/>
<path d="M235.05 9.83838L232.05 13.3384C249.05 18.8384 259.55 21.8384 272.05 28.3384H273.55L281.55 26.8384C266.55 20.3384 259.05 17.8384 235.05 9.83838Z" fill="#E0426F" stroke="black" stroke-width="0.5"/>
<path d="M272.05 28.3384C261.55 22.8384 242.55 16.3384 232.05 13.3384L230.05 15.8384L245.05 23.3384C243.55 25.8384 239.55 27.8384 233.55 30.5384C245.55 29.8384 262.55 28.8384 272.05 28.3384Z" fill="#E0426F" stroke="black" stroke-width="0.5"/>
<path d="M277.552 34.6384L283.55 32.3384L273.051 28.3384L229.051 30.8384C221.551 45.8384 206.551 76.3384 198.551 77.3384H213.051C211.551 66.3384 221.051 42.8384 246.052 51.8384C256.552 46.3384 266.552 40.8384 277.552 34.6384Z" fill="#E0426F" stroke="black" stroke-width="0.5"/>
<path d="M278.55 34.3384C266.55 40.8384 256.55 46.3384 246.05 51.8384C250.55 54.8384 261.05 60.8384 260.05 79.8384L285.05 79.3384V77.8384C293.55 76.8384 302.05 80.3384 300.55 66.3384L302.55 56.3384C302.55 54.8384 300.05 50.8384 297.55 50.3384C299.05 47.8384 296.05 38.8384 296.05 38.8384V37.3384L292.05 34.3384L287.05 32.8384L283.55 32.3384L278.55 34.3384Z" fill="#E0426F" stroke="black" stroke-width="0.5"/>
<path d="M281.55 26.8384L273.05 28.3384L283.55 32.3384C293.05 33.3384 292.049 34.8384 296.044 37.2586L295.55 28.8384L281.55 26.8384Z" fill="#E0426F"/>
<path d="M296.05 37.3384L296.044 37.2586M296.044 37.2586L295.55 28.8384L281.55 26.8384L273.05 28.3384L283.55 32.3384C293.05 33.3384 292.049 34.8384 296.044 37.2586Z" stroke="black" stroke-width="0.5"/>
<path d="M294.552 36.8386C294.052 34.3385 283.052 34.1384 277.552 34.6384" stroke="black" stroke-width="0.5"/>
<path d="M300.552 66.8384L261.052 68.8384C260.552 63.8384 258.385 59.6717 256.552 57.8384L302.552 55.3384M301.052 52.8384C290.052 51.3384 279.052 46.5384 267.052 40.5384M229.052 30.8384L273.052 28.3384L281.552 26.8384" stroke="black" stroke-width="0.5"/>
<path d="M291.052 40.8384C291.052 38.8384 290.052 34.8384 286.552 32.8384C288.773 32.8384 292.149 33.8788 294.661 36.2484C295.124 37.7784 294.052 41.3384 291.01 42.8384C290.996 42.2481 291.052 41.5627 291.052 40.8384Z" fill="#E0426F"/>
<path d="M273.052 43.3384C280.047 43.6882 286.064 43.7933 291.445 44.3384M298.052 45.3384C295.949 44.8877 293.756 44.5725 291.445 44.3384M296.052 37.8384C295.634 37.2533 295.165 36.724 294.661 36.2484M291.445 44.3384C291.119 43.9936 291.025 43.4706 291.01 42.8384M291.01 42.8384C290.996 42.2481 291.052 41.5627 291.052 40.8384C291.052 38.8384 290.052 34.8384 286.552 32.8384C288.773 32.8384 292.149 33.8788 294.661 36.2484M291.01 42.8384C294.052 41.3384 295.124 37.7784 294.661 36.2484" stroke="black" stroke-width="0.5"/>
<path d="M291.052 40.8384C286.552 40.8384 284.552 36.8384 283.552 34.3384" stroke="black" stroke-width="0.5"/>
<path d="M133.05 12.9384C119.55 16.9384 107.55 22.8384 93.5498 35.8384C100.55 23.8384 116.05 14.3384 131.55 9.33838L133.05 12.9384Z" fill="#EFC7D3" stroke="black" stroke-width="0.5"/>
<path d="M131.55 9.33838C111.55 15.0124 93.5498 32.3384 85.5498 30.3384C98.5498 20.8384 114.55 12.3384 131.05 7.83838L131.55 9.33838Z" fill="#EFC7D3" stroke="black" stroke-width="0.5"/>
<path d="M10.5505 48.3384H4.55047C2.0498 52.3384 2.0498 62.3384 2.55047 65.8384C1.0498 66.8384 1.0504 71.3384 2.05047 72.8384L6.05047 73.3384V74.8384L2.05047 76.8384V78.8384C6.05047 79.8384 14.5505 81.8384 22.5505 81.3384V79.8384H40.0505C39.3838 71.3384 41.0505 60.8384 50.0505 53.8384C47.5505 49.8384 40.5505 45.3384 37.5505 44.8384C27.5505 43.8384 12.5505 46.3384 10.5505 48.3384Z" fill="#EFC7D3" stroke="black" stroke-width="0.5"/>
<path d="M93.5518 35.8384C75.7184 36.6717 44.0518 41.5384 33.5518 44.5384L37.5518 44.8384C42.5518 46.3384 48.0518 50.6717 50.0518 53.8384C63.0508 44.3384 88.5508 51.3384 87.0508 78.8384H97.0508C90.0508 67.8384 91.0508 45.8384 93.5518 35.8384Z" fill="#EFC7D3" stroke="black" stroke-width="0.5"/>
<path d="M10.5498 48.3384H4.5498C37.05 28.8383 59.05 34.8384 85.0498 30.3384L94.05 35.8384C77.05 36.8384 48.0498 40.3384 34.0498 44.5384C26.0498 44.3384 12.0498 46.3384 10.5498 48.3384Z" fill="#EFC7D3" stroke="black" stroke-width="0.5"/>
<path d="M37.5513 44.8385C30.0513 43.8384 13.0513 45.8384 10.5513 48.3385C9.75126 50.7384 12.8846 53.6717 14.5513 54.8384C24.0513 56.3384 37.5513 50.3384 37.5513 44.8385Z" fill="#EFC7D3" stroke="black" stroke-width="0.5"/>
<path d="M4.5505 48.3384C11.5505 49.3384 5.5505 59.8384 2.5505 64.8384C2.05043 57.8384 2.55029 52.3384 4.5505 48.3384Z" fill="#EFC7D3" stroke="black" stroke-width="0.5"/>
<path d="M22.5498 84.3384V79.8384H40.0498L40.5498 84.3384H22.5498Z" fill="#EFC7D3" stroke="black" stroke-width="0.5"/>
<path d="M3.05176 65.8384C4.55176 68.3384 6.55176 71.505 6.05176 73.3384M22.5518 79.8384C12.0518 80.3384 7.55176 76.3384 8.55176 72.8384C9.05176 72.3384 10.5518 70.8384 11.5518 70.8384" stroke="black" stroke-width="0.5"/>
<path d="M32.5518 74.8384C30.0518 70.8384 24.5518 65.8385 21.5518 64.3385C19.8017 63.8384 17.1766 63.9634 14.4265 64.3385C12.8016 65.6718 11.5518 68.8384 12.0518 71.8384C12.0518 73.005 13.3592 75.3384 16.0518 75.3384C20.5518 75.3384 27.5518 75.8384 32.5518 74.8384Z" fill="#EFC7D3"/>
<path d="M6.55176 65.8385C8.8017 65.3384 11.6766 64.7135 14.4265 64.3385M14.4265 64.3385C17.1766 63.9634 19.8017 63.8384 21.5518 64.3385C24.5518 65.8385 30.0518 70.8384 32.5518 74.8384C27.5518 75.8384 20.5518 75.3384 16.0518 75.3384C13.3592 75.3384 12.0518 73.005 12.0518 71.8384C11.5518 68.8384 12.8016 65.6718 14.4265 64.3385Z" stroke="black" stroke-width="0.5"/>
<path d="M12.0518 71.3385C20.0518 69.8385 23.5518 72.467 26.5518 73.967M13.5518 74.3385L31.0518 73.8385" stroke="black" stroke-width="0.5"/>
<path d="M22.5498 82.8384H32.0498C34.0498 82.8384 35.5498 80.8384 35.0498 79.8384M38.5498 79.8384V84.3384" stroke="black" stroke-width="0.5"/>
<path d="M22.5517 81.3386C18.0517 81.3386 13.5517 81.8386 2.0517 78.8386V76.8386L6.0517 74.8386V73.3386L2.0517 72.8386C1.55078 71.3384 0.550977 68.3384 2.55097 65.8384C2.05122 57.8384 2.55122 51.3384 4.5517 48.3381C37.0517 28.8385 59.0517 34.8386 85.0517 30.3386C163.052 -24.6615 245.052 12.3384 282.052 26.8386L295.552 28.8384L296.052 35.8384V38.8384C297.55 43.8384 298.885 48.3384 297.552 50.3384C300.052 51.3384 302.552 54.505 302.552 56.3384L300.552 66.3384C301.004 77.1863 298.596 77.4106 289.264 77.723C288.273 77.7562 286.204 77.7904 285.052 77.8384V79.3384L260.052 79.7694M22.5517 81.3386V84.3386H40.55L40.0517 79.8386M22.5517 81.3386V79.8386H40.0517M40.0517 79.8386C37.0517 38.3386 90.5517 41.3386 87.0517 80.3386V82.8384H213.552C207.552 39.3384 262.052 39.3384 260.052 79.7694M259.55 79.7694H260.052" stroke="black"/>
</svg>
