<svg width="304" height="96" viewBox="0 0 304 96" fill="none" xmlns="http://www.w3.org/2000/svg">
<circle cx="63.0835" cy="74.0303" r="20.5" fill="#EDADBF" stroke="black"/>
<circle cx="236.083" cy="74.0303" r="20.5" fill="#EDADBF" stroke="black"/>
<path d="M133.082 12.5301L131.582 9.03013C171.582 1.03024 193.082 1.53027 232.082 13.0302L228.582 17.5302C208.582 9.53018 190.582 8.53018 174.582 8.03025C172.082 7.53025 168.082 7.53021 165.582 8.03013C155.582 8.03025 143.582 9.53025 133.082 12.5301Z" fill="#EDADBF" stroke="black" stroke-width="0.5"/>
<path d="M131.582 9.03032L131.082 7.53032C167.082 -3.46973 199.582 0.530148 235.082 9.53032L232.082 13.0303C192.082 0.530273 166.082 2.03027 131.582 9.03032Z" fill="#EDADBF" stroke="black" stroke-width="0.5"/>
<path d="M131.582 9.03038C183.082 -2.46964 211.582 7.5304 232.082 13.0304" stroke="black" stroke-width="0.5"/>
<path d="M171.083 30.0303L174.583 8.03027C208.083 9.03027 219.583 14.5303 224.083 16.0303L226.566 28.0303C199.576 28.0309 182.081 29.5304 171.083 30.0303Z" fill="#EDADBF"/>
<path d="M227.083 30.5303L224.083 16.0303C219.583 14.5303 208.083 9.03027 174.583 8.03027L171.083 30.0303C182.083 29.5303 199.583 28.0303 226.583 28.0303" stroke="black" stroke-width="0.5"/>
<path d="M165.583 8.03027C132.583 9.03027 112.583 18.0303 93.5835 35.5303L96.0835 33.5303L160.083 30.5303L165.583 8.03027Z" fill="#EDADBF" stroke="black" stroke-width="0.5"/>
<path d="M240.082 22.5303C236.415 19.8636 230.582 17.5303 224.082 16.0303L226.582 28.0303H233.082C236.082 26.5303 239.082 24.299 240.082 22.5303Z" fill="#EDADBF" stroke="black" stroke-width="0.5"/>
<path d="M97.0835 78.5303H164.083L198.583 77.0303H213.083L213.583 82.5303H199.583H98.5835H87.0835V78.5303H97.0835Z" fill="#EDADBF"/>
<path d="M97.0835 78.5303H164.083L198.583 77.0303M97.0835 78.5303C97.0835 80.0303 97.5835 81.0303 98.5835 82.5303M97.0835 78.5303H87.0835V82.5303H98.5835M198.583 77.0303L199.583 82.5303M198.583 77.0303H213.083L213.583 82.5303H199.583M199.583 82.5303H98.5835" stroke="black" stroke-width="0.5"/>
<path d="M97.0826 78.5303C92.5835 74.0303 89.5835 52.0303 93.5826 35.5303L165.583 31.5303C161.583 36.5303 160.583 70.5303 164.083 78.5303H97.0826Z" fill="#EDADBF" stroke="black" stroke-width="0.5"/>
<path d="M229.083 30.5303L165.583 31.5303C161.583 36.5303 160.583 70.5303 164.083 78.5303L198.583 77.0303C203.083 75.5303 209.583 70.0303 229.083 30.5303Z" fill="#EDADBF" stroke="black" stroke-width="0.5"/>
<path d="M171.083 30.0303C166.583 30.5303 163.083 30.5303 160.083 30.5303L165.583 8.03035C168.583 7.53027 171.583 7.53027 174.583 8.03035L171.083 30.0303Z" fill="#EDADBF" stroke="black" stroke-width="0.5"/>
<path d="M99.5835 32.0305C104.083 37.5305 111.083 34.0305 115.083 32.5305C116.083 17.0304 103.083 25.0304 99.5835 32.0305Z" fill="#EDADBF" stroke="black" stroke-width="0.5"/>
<path d="M235.082 9.53027L232.082 13.0303C249.082 18.5303 259.582 21.5303 272.082 28.0303H273.582L281.582 26.5303C266.582 20.0303 259.082 17.5303 235.082 9.53027Z" fill="#EFC7D3" stroke="black" stroke-width="0.5"/>
<path d="M272.082 28.0303C261.582 22.5303 242.582 16.0303 232.082 13.0303L230.082 15.5303L245.082 23.0303C243.582 25.5303 239.582 27.5303 233.582 30.2303C245.582 29.5303 262.582 28.5303 272.082 28.0303Z" fill="#EFC7D3" stroke="black" stroke-width="0.5"/>
<path d="M277.583 34.3303L283.582 32.0303L273.083 28.0303L229.083 30.5303C221.583 45.5303 206.583 76.0303 198.583 77.0303H213.083C211.583 66.0303 221.083 42.5303 246.083 51.5303C256.583 46.0303 266.583 40.5303 277.583 34.3303Z" fill="#EFC7D3" stroke="black" stroke-width="0.5"/>
<path d="M278.582 34.0303C266.582 40.5303 256.582 46.0303 246.082 51.5303C250.582 54.5303 261.082 60.5303 260.082 79.5303L285.082 79.0303V77.5303C293.582 76.5303 302.082 80.0303 300.582 66.0303L302.582 56.0303C302.582 54.5303 300.082 50.5303 297.582 50.0303C299.082 47.5303 296.082 38.5303 296.082 38.5303V37.0303L292.082 34.0303L287.082 32.5303L283.582 32.0303L278.582 34.0303Z" fill="#EFC7D3" stroke="black" stroke-width="0.5"/>
<path d="M281.582 26.5303L273.082 28.0303L283.582 32.0303C293.082 33.0303 292.081 34.5303 296.076 36.9505L295.582 28.5303L281.582 26.5303Z" fill="#EFC7D3"/>
<path d="M296.082 37.0303L296.076 36.9505M296.076 36.9505L295.582 28.5303L281.582 26.5303L273.082 28.0303L283.582 32.0303C293.082 33.0303 292.081 34.5303 296.076 36.9505Z" stroke="black" stroke-width="0.5"/>
<path d="M294.583 36.5305C294.083 34.0304 283.083 33.8303 277.583 34.3303" stroke="black" stroke-width="0.5"/>
<path d="M300.583 66.5303L261.083 68.5303C260.583 63.5303 258.417 59.3636 256.583 57.5303L302.583 55.0303M301.083 52.5303C290.083 51.0303 279.083 46.2303 267.083 40.2303M229.083 30.5303L273.083 28.0303L281.583 26.5303" stroke="black" stroke-width="0.5"/>
<path d="M291.083 40.5303C291.083 38.5303 290.083 34.5303 286.583 32.5303C288.804 32.5303 292.181 33.5707 294.692 35.9403C295.156 37.4703 294.083 41.0303 291.042 42.5303C291.028 41.94 291.083 41.2546 291.083 40.5303Z" fill="#EFC7D3"/>
<path d="M273.083 43.0303C280.079 43.3801 286.096 43.4851 291.477 44.0303M298.083 45.0303C295.981 44.5796 293.787 44.2644 291.477 44.0303M296.083 37.5303C295.666 36.9451 295.196 36.4159 294.692 35.9403M291.477 44.0303C291.15 43.6855 291.056 43.1625 291.042 42.5303M291.042 42.5303C291.028 41.94 291.083 41.2546 291.083 40.5303C291.083 38.5303 290.083 34.5303 286.583 32.5303C288.804 32.5303 292.181 33.5707 294.692 35.9403M291.042 42.5303C294.083 41.0303 295.156 37.4703 294.692 35.9403" stroke="black" stroke-width="0.5"/>
<path d="M291.083 40.5303C286.583 40.5303 284.583 36.5303 283.583 34.0303" stroke="black" stroke-width="0.5"/>
<path d="M133.082 12.6302C119.582 16.6302 107.582 22.5303 93.582 35.5303C100.582 23.5303 116.082 14.0303 131.582 9.03027L133.082 12.6302Z" fill="#EFC7D3" stroke="black" stroke-width="0.5"/>
<path d="M131.582 9.03027C111.582 14.7043 93.582 32.0303 85.582 30.0303C98.582 20.5303 114.582 12.0303 131.082 7.53027L131.582 9.03027Z" fill="#EFC7D3" stroke="black" stroke-width="0.5"/>
<path d="M10.5827 48.0302H4.5827C2.08203 52.0302 2.08203 62.0302 2.5827 65.5302C1.08203 66.5302 1.08263 71.0302 2.0827 72.5302L6.0827 73.0302V74.5302L2.0827 76.5302V78.5302C6.0827 79.5302 14.5827 81.5302 22.5827 81.0302V79.5302H40.0827C39.416 71.0302 41.0827 60.5302 50.0827 53.5302C47.5827 49.5302 40.5827 45.0302 37.5827 44.5302C27.5827 43.5302 12.5827 46.0302 10.5827 48.0302Z" fill="#EFC7D3" stroke="black" stroke-width="0.5"/>
<path d="M93.5835 35.5303C75.7502 36.3636 44.0835 41.2303 33.5835 44.2303L37.5835 44.5303C42.5835 46.0303 48.0835 50.3636 50.0835 53.5303C63.0825 44.0303 88.5825 51.0303 87.0825 78.5303H97.0825C90.0825 67.5303 91.0825 45.5303 93.5835 35.5303Z" fill="#EFC7D3" stroke="black" stroke-width="0.5"/>
<path d="M10.582 48.0303H4.58203C37.0822 28.5302 59.0823 34.5303 85.082 30.0303L94.0823 35.5303C77.0823 36.5303 48.082 40.0303 34.082 44.2303C26.082 44.0303 12.082 46.0303 10.582 48.0303Z" fill="#EFC7D3" stroke="black" stroke-width="0.5"/>
<path d="M37.5835 44.5303C30.0835 43.5303 13.0835 45.5303 10.5835 48.0303C9.78349 50.4303 12.9168 53.3636 14.5835 54.5303C24.0835 56.0303 37.5835 50.0303 37.5835 44.5303Z" fill="#EFC7D3" stroke="black" stroke-width="0.5"/>
<path d="M4.58273 48.0303C11.5827 49.0303 5.58273 59.5303 2.58273 64.5303C2.08266 57.5303 2.58252 52.0303 4.58273 48.0303Z" fill="#EFC7D3" stroke="black" stroke-width="0.5"/>
<path d="M22.582 84.0303V79.5303H40.082L40.582 84.0303H22.582Z" fill="#EFC7D3" stroke="black" stroke-width="0.5"/>
<path d="M3.08398 65.5303C4.58398 68.0303 6.58398 71.1969 6.08398 73.0303M22.584 79.5303C12.084 80.0303 7.58398 76.0303 8.58398 72.5303C9.08398 72.0303 10.584 70.5303 11.584 70.5303" stroke="black" stroke-width="0.5"/>
<path d="M32.584 74.5304C30.084 70.5304 24.584 65.5305 21.584 64.0305C19.8339 63.5305 17.2088 63.6555 14.4588 64.0305C12.8338 65.3638 11.584 68.5304 12.084 71.5304C12.084 72.6971 13.3914 75.0304 16.084 75.0304C20.584 75.0304 27.584 75.5304 32.584 74.5304Z" fill="#EFC7D3"/>
<path d="M6.58398 65.5305C8.83393 65.0304 11.7088 64.4055 14.4588 64.0305M14.4588 64.0305C17.2088 63.6555 19.8339 63.5305 21.584 64.0305C24.584 65.5305 30.084 70.5304 32.584 74.5304C27.584 75.5304 20.584 75.0304 16.084 75.0304C13.3914 75.0304 12.084 72.6971 12.084 71.5304C11.584 68.5304 12.8338 65.3638 14.4588 64.0305Z" stroke="black" stroke-width="0.5"/>
<path d="M12.084 71.0305C20.084 69.5305 23.584 72.159 26.584 73.659M13.584 74.0305L31.084 73.5305" stroke="black" stroke-width="0.5"/>
<path d="M22.582 82.5303H32.082C34.082 82.5303 35.582 80.5303 35.082 79.5303M38.582 79.5303V84.0303" stroke="black" stroke-width="0.5"/>
<path d="M22.5834 81.0305C18.0834 81.0305 13.5834 81.5305 2.08344 78.5305V76.5305L6.08344 74.5305V73.0305L2.08344 72.5305C1.58252 71.0303 0.582715 68.0303 2.58271 65.5303C2.08295 57.5303 2.58295 51.0303 4.58344 48.03C37.0834 28.5304 59.0834 34.5305 85.0834 30.0305C163.083 -24.9697 245.083 12.0303 282.083 26.5305L295.583 28.5303L296.083 35.5303V38.5303C297.582 43.5303 298.917 48.0303 297.583 50.0303C300.083 51.0303 302.583 54.1969 302.583 56.0303L300.583 66.0303C301.035 76.8782 298.627 77.1025 289.296 77.4149C288.305 77.4481 286.236 77.4823 285.083 77.5303V79.0303L260.083 79.4613M22.5834 81.0305V84.0305H40.5818L40.0835 79.5305M22.5834 81.0305V79.5305H40.0835M40.0835 79.5305C37.0835 38.0305 90.5834 41.0305 87.0834 80.0305V82.5303H213.583C207.583 39.0303 262.083 39.0303 260.083 79.4613M259.582 79.4613H260.083" stroke="black"/>
</svg>
