<svg width="303" height="96" viewBox="0 0 303 96" fill="none" xmlns="http://www.w3.org/2000/svg">
<circle cx="62.6875" cy="74.553" r="20.5" stroke="black"/>
<circle cx="235.688" cy="74.553" r="20.5" stroke="black"/>
<path d="M132.686 13.0528L131.186 9.55283C171.186 1.55295 192.686 2.05298 231.686 13.5529L228.186 18.0529C208.186 10.0529 190.186 9.05289 174.186 8.55296C171.686 8.05296 167.686 8.05292 165.186 8.55283C155.186 8.55296 143.186 10.053 132.686 13.0528Z" fill="#E0426F" stroke="black" stroke-width="0.5"/>
<path d="M131.186 9.55302L130.686 8.05302C166.686 -2.94702 199.186 1.05285 234.686 10.053L231.686 13.553C191.686 1.05298 165.686 2.55298 131.186 9.55302Z" fill="#E0426F" stroke="black" stroke-width="0.5"/>
<path d="M131.186 9.55284C182.686 -1.94718 211.186 8.05286 231.686 13.5528" stroke="black" stroke-width="0.5"/>
<path d="M170.688 30.553L174.188 8.55298C207.688 9.55298 219.188 15.053 223.688 16.553L226.17 28.553C199.18 28.5536 181.685 30.0531 170.688 30.553Z" fill="#E0426F"/>
<path d="M226.688 31.053L223.688 16.553C219.188 15.053 207.688 9.55298 174.188 8.55298L170.688 30.553C181.688 30.053 199.188 28.553 226.188 28.553" stroke="black" stroke-width="0.5"/>
<path d="M165.188 8.55298C132.188 9.55298 112.188 18.553 93.1875 36.053L95.6875 34.053L159.688 31.053L165.188 8.55298Z" fill="#E0426F" stroke="black" stroke-width="0.5"/>
<path d="M239.686 23.053C236.019 20.3863 230.186 18.053 223.686 16.553L226.186 28.553H232.686C235.686 27.053 238.686 24.8217 239.686 23.053Z" fill="#E0426F" stroke="black" stroke-width="0.5"/>
<path d="M96.6875 79.053H163.688L198.188 77.553H212.688L213.188 83.053H199.188H98.1875H86.6875V79.053H96.6875Z" fill="#E0426F"/>
<path d="M96.6875 79.053H163.688L198.188 77.553M96.6875 79.053C96.6875 80.553 97.1875 81.553 98.1875 83.053M96.6875 79.053H86.6875V83.053H98.1875M198.188 77.553L199.188 83.053M198.188 77.553H212.688L213.188 83.053H199.188M199.188 83.053H98.1875" stroke="black" stroke-width="0.5"/>
<path d="M96.6866 79.053C92.1875 74.553 89.1875 52.553 93.1866 36.053L165.188 32.053C161.188 37.053 160.188 71.053 163.687 79.053H96.6866Z" fill="#E0426F" stroke="black" stroke-width="0.5"/>
<path d="M228.687 31.053L165.187 32.053C161.188 37.053 160.188 71.053 163.687 79.053L198.187 77.553C202.687 76.053 209.187 70.553 228.687 31.053Z" fill="#E0426F" stroke="black" stroke-width="0.5"/>
<path d="M170.688 30.5531C166.188 31.0531 162.688 31.0531 159.688 31.0531L165.188 8.55305C168.188 8.05298 171.188 8.05298 174.188 8.55305L170.688 30.5531Z" fill="#E0426F" stroke="black" stroke-width="0.5"/>
<path d="M99.1875 32.553C103.688 38.053 110.688 34.553 114.688 33.053C115.688 17.5529 102.688 25.5529 99.1875 32.553Z" fill="#E0426F" stroke="black" stroke-width="0.5"/>
<path d="M234.686 10.053L231.686 13.553C248.686 19.053 259.186 22.053 271.686 28.553H273.186L281.186 27.053C266.186 20.553 258.686 18.053 234.686 10.053Z" fill="#EFC7D3" stroke="black" stroke-width="0.5"/>
<path d="M271.686 28.553C261.186 23.053 242.186 16.553 231.686 13.553L229.686 16.053L244.686 23.553C243.186 26.053 239.186 28.053 233.186 30.753C245.186 30.053 262.186 29.053 271.686 28.553Z" fill="#EFC7D3" stroke="black" stroke-width="0.5"/>
<path d="M277.188 34.853L283.186 32.553L272.687 28.553L228.687 31.053C221.187 46.053 206.187 76.553 198.187 77.553H212.687C211.187 66.553 220.687 43.053 245.688 52.053C256.188 46.553 266.188 41.053 277.188 34.853Z" fill="#EFC7D3" stroke="black" stroke-width="0.5"/>
<path d="M278.186 34.553C266.186 41.053 256.186 46.553 245.686 52.053C250.186 55.053 260.686 61.053 259.686 80.053L284.686 79.553V78.053C293.186 77.053 301.686 80.553 300.186 66.553L302.186 56.553C302.186 55.053 299.686 51.053 297.186 50.553C298.686 48.053 295.686 39.053 295.686 39.053V37.553L291.686 34.553L286.686 33.053L283.186 32.553L278.186 34.553Z" fill="#EFC7D3" stroke="black" stroke-width="0.5"/>
<path d="M281.186 27.053L272.686 28.553L283.186 32.553C292.686 33.553 291.684 35.053 295.68 37.4732L295.186 29.053L281.186 27.053Z" fill="#EFC7D3"/>
<path d="M295.686 37.553L295.68 37.4732M295.68 37.4732L295.186 29.053L281.186 27.053L272.686 28.553L283.186 32.553C292.686 33.553 291.684 35.053 295.68 37.4732Z" stroke="black" stroke-width="0.5"/>
<path d="M294.188 37.0532C293.688 34.5531 282.688 34.353 277.188 34.853" stroke="black" stroke-width="0.5"/>
<path d="M300.188 67.053L260.688 69.053C260.188 64.053 258.021 59.8863 256.188 58.053L302.188 55.553M300.688 53.053C289.688 51.553 278.688 46.753 266.688 40.753M228.688 31.053L272.688 28.553L281.188 27.053" stroke="black" stroke-width="0.5"/>
<path d="M290.688 41.053C290.688 39.053 289.688 35.053 286.188 33.053C288.408 33.053 291.785 34.0934 294.296 36.463C294.76 37.993 293.688 41.553 290.646 43.053C290.632 42.4627 290.688 41.7773 290.688 41.053Z" fill="#EFC7D3"/>
<path d="M272.688 43.553C279.683 43.9028 285.7 44.0079 291.081 44.553M297.688 45.553C295.585 45.1023 293.391 44.7871 291.081 44.553M295.688 38.053C295.27 37.4679 294.8 36.9386 294.296 36.463M291.081 44.553C290.754 44.2082 290.66 43.6852 290.646 43.053M290.646 43.053C290.632 42.4627 290.688 41.7773 290.688 41.053C290.688 39.053 289.688 35.053 286.188 33.053C288.408 33.053 291.785 34.0934 294.296 36.463M290.646 43.053C293.688 41.553 294.76 37.993 294.296 36.463" stroke="black" stroke-width="0.5"/>
<path d="M290.688 41.053C286.188 41.053 284.188 37.053 283.188 34.553" stroke="black" stroke-width="0.5"/>
<path d="M132.686 13.153C119.186 17.153 107.186 23.053 93.186 36.053C100.186 24.053 115.686 14.553 131.186 9.55298L132.686 13.153Z" stroke="black" stroke-width="0.5"/>
<path d="M131.186 9.55298C111.186 15.227 93.186 32.553 85.186 30.553C98.186 21.053 114.186 12.553 130.686 8.05298L131.186 9.55298Z" stroke="black" stroke-width="0.5"/>
<path d="M10.1867 48.5529H4.1867C1.68604 52.5529 1.68604 62.5529 2.1867 66.0529C0.686035 67.0529 0.686633 71.5529 1.6867 73.0529L5.6867 73.5529V75.0529L1.6867 77.0529V79.0529C5.6867 80.0529 14.1867 82.0529 22.1867 81.5529V80.0529H39.6867C39.02 71.5529 40.6867 61.0529 49.6867 54.0529C47.1867 50.0529 40.1867 45.5529 37.1867 45.0529C27.1867 44.0529 12.1867 46.5529 10.1867 48.5529Z" stroke="black" stroke-width="0.5"/>
<path d="M93.1875 36.053C75.3542 36.8863 43.6875 41.753 33.1875 44.753L37.1875 45.053C42.1875 46.553 47.6875 50.8863 49.6875 54.053C62.6865 44.553 88.1865 51.553 86.6865 79.053H96.6865C89.6865 68.053 90.6865 46.053 93.1875 36.053Z" stroke="black" stroke-width="0.5"/>
<path d="M10.1855 48.553H4.18555C36.6857 29.0529 58.6858 35.053 84.6855 30.553L93.6858 36.053C76.6858 37.053 47.6855 40.553 33.6855 44.753C25.6855 44.553 11.6855 46.553 10.1855 48.553Z" stroke="black" stroke-width="0.5"/>
<path d="M37.1875 45.0531C29.6875 44.053 12.6875 46.053 10.1875 48.5531C9.38749 50.953 12.5208 53.8863 14.1875 55.053C23.6875 56.553 37.1875 50.553 37.1875 45.0531Z" stroke="black" stroke-width="0.5"/>
<path d="M4.18673 48.553C11.1867 49.553 5.18673 60.053 2.18673 65.053C1.68666 58.053 2.18652 52.553 4.18673 48.553Z" stroke="black" stroke-width="0.5"/>
<path d="M22.186 84.553V80.053H39.686L40.186 84.553H22.186Z" stroke="black" stroke-width="0.5"/>
<path d="M2.6875 66.0527C4.1875 68.5527 6.1875 71.7194 5.6875 73.5527M22.1875 80.0527C11.6875 80.5527 7.1875 76.5527 8.1875 73.0527C8.6875 72.5527 10.1875 71.0527 11.1875 71.0527" stroke="black" stroke-width="0.5"/>
<path d="M6.1875 66.0529C8.43744 65.5529 11.3124 64.9279 14.0623 64.5529M14.0623 64.5529C16.8124 64.1779 19.4375 64.0529 21.1875 64.5529C24.1875 66.0529 29.6875 71.0529 32.1875 75.0529C27.1875 76.0529 20.1875 75.5529 15.6875 75.5529C12.9949 75.5529 11.6875 73.2195 11.6875 72.0529C11.1875 69.0529 12.4374 65.8862 14.0623 64.5529Z" stroke="black" stroke-width="0.5"/>
<path d="M11.6875 71.5529C19.6875 70.053 23.1875 72.6815 26.1875 74.1815M13.1875 74.553L30.6875 74.053" stroke="black" stroke-width="0.5"/>
<path d="M22.1855 83.0527H31.6855C33.6855 83.0527 35.1855 81.0527 34.6855 80.0527M38.1855 80.0527V84.5527" stroke="black" stroke-width="0.5"/>
<path d="M22.1874 81.5532C17.6874 81.5532 13.1874 82.0532 1.68745 79.0532V77.0532L5.68745 75.0532V73.5532L1.68745 73.0532C1.18652 71.553 0.186719 68.553 2.18671 66.053C1.68696 58.053 2.18696 51.553 4.18745 48.5527C36.6874 29.0531 58.6874 35.0532 84.6874 30.5532C162.687 -24.4469 244.687 12.553 281.687 27.0532L295.187 29.053L295.687 36.053V39.053C297.186 44.053 298.521 48.553 297.187 50.553C299.687 51.553 302.187 54.7196 302.187 56.553L300.187 66.553C300.639 77.4009 298.231 77.6252 288.9 77.9376C287.909 77.9708 285.84 78.005 284.687 78.053V79.553L259.687 79.984M22.1874 81.5532V84.5532H40.1858L39.6875 80.0532M22.1874 81.5532V80.0532H39.6875M39.6875 80.0532C36.6875 38.5532 90.1874 41.5532 86.6874 80.5532V83.053H213.187C207.187 39.553 261.687 39.553 259.687 79.984M259.186 79.984H259.687" stroke="black"/>
</svg>
