<svg width="303" height="96" viewBox="0 0 303 96" fill="none" xmlns="http://www.w3.org/2000/svg">
<circle cx="62.4795" cy="74.1843" r="20.5" fill="#E0426F" stroke="black"/>
<circle cx="235.479" cy="74.1843" r="20.5" fill="#E0426F" stroke="black"/>
<path d="M132.478 12.6842L130.978 9.18418C170.978 1.18429 192.478 1.68433 231.478 13.1843L227.978 17.6843C207.978 9.68424 189.978 8.68423 173.978 8.1843C171.478 7.6843 167.478 7.68427 164.978 8.18418C154.978 8.1843 142.978 9.6843 132.478 12.6842Z" fill="#EFC7D3" stroke="black" stroke-width="0.5"/>
<path d="M130.978 9.18437L130.478 7.68437C166.478 -3.31567 198.978 0.6842 234.478 9.68437L231.478 13.1844C191.478 0.684326 165.478 2.18433 130.978 9.18437Z" fill="#EFC7D3" stroke="black" stroke-width="0.5"/>
<path d="M130.978 9.18431C182.478 -2.31571 210.978 7.68433 231.478 13.1843" stroke="black" stroke-width="0.5"/>
<path d="M170.479 30.1843L173.979 8.18433C207.479 9.18433 218.979 14.6843 223.479 16.1843L225.962 28.1843C198.972 28.185 181.477 29.6844 170.479 30.1843Z" fill="#EFC7D3"/>
<path d="M226.479 30.6843L223.479 16.1843C218.979 14.6843 207.479 9.18433 173.979 8.18433L170.479 30.1843C181.479 29.6843 198.979 28.1843 225.979 28.1843" stroke="black" stroke-width="0.5"/>
<path d="M164.979 8.18433C131.979 9.18433 111.979 18.1843 92.9795 35.6843L95.4795 33.6843L159.479 30.6843L164.979 8.18433Z" fill="#EFC7D3" stroke="black" stroke-width="0.5"/>
<path d="M239.478 22.6843C235.811 20.0177 229.978 17.6843 223.478 16.1843L225.978 28.1843H232.478C235.478 26.6843 238.478 24.4531 239.478 22.6843Z" fill="#EFC7D3" stroke="black" stroke-width="0.5"/>
<path d="M96.4795 78.6843H163.479L197.979 77.1843H212.479L212.979 82.6843H198.979H97.9795H86.4795V78.6843H96.4795Z" fill="#EFC7D3"/>
<path d="M96.4795 78.6843H163.479L197.979 77.1843M96.4795 78.6843C96.4795 80.1843 96.9795 81.1843 97.9795 82.6843M96.4795 78.6843H86.4795V82.6843H97.9795M197.979 77.1843L198.979 82.6843M197.979 77.1843H212.479L212.979 82.6843H198.979M198.979 82.6843H97.9795" stroke="black" stroke-width="0.5"/>
<path d="M96.4786 78.6843C91.9795 74.1843 88.9795 52.1843 92.9786 35.6843L164.979 31.6843C160.979 36.6843 159.979 70.6843 163.479 78.6843H96.4786Z" fill="#EFC7D3" stroke="black" stroke-width="0.5"/>
<path d="M228.479 30.6843L164.979 31.6843C160.98 36.6843 159.98 70.6843 163.479 78.6843L197.979 77.1843C202.479 75.6843 208.979 70.1843 228.479 30.6843Z" fill="#EFC7D3" stroke="black" stroke-width="0.5"/>
<path d="M170.479 30.1844C165.979 30.6844 162.479 30.6844 159.479 30.6844L164.979 8.1844C167.979 7.68433 170.979 7.68433 173.979 8.1844L170.479 30.1844Z" fill="#EFC7D3" stroke="black" stroke-width="0.5"/>
<path d="M98.9795 32.1845C103.479 37.6845 110.479 34.1845 114.479 32.6845C115.479 17.1843 102.479 25.1843 98.9795 32.1845Z" fill="#EFC7D3" stroke="black" stroke-width="0.5"/>
<path d="M234.478 9.68433L231.478 13.1843C248.478 18.6843 258.978 21.6843 271.478 28.1843H272.978L280.978 26.6843C265.978 20.1843 258.478 17.6843 234.478 9.68433Z" fill="#EFC7D3" stroke="black" stroke-width="0.5"/>
<path d="M271.478 28.1843C260.978 22.6843 241.978 16.1843 231.478 13.1843L229.478 15.6843L244.478 23.1843C242.978 25.6843 238.978 27.6843 232.978 30.3843C244.978 29.6843 261.978 28.6843 271.478 28.1843Z" fill="#EFC7D3" stroke="black" stroke-width="0.5"/>
<path d="M276.979 34.4843L282.978 32.1843L272.479 28.1843L228.479 30.6843C220.979 45.6843 205.979 76.1843 197.979 77.1843H212.479C210.979 66.1843 220.479 42.6843 245.479 51.6843C255.979 46.1843 265.979 40.6843 276.979 34.4843Z" fill="#EFC7D3" stroke="black" stroke-width="0.5"/>
<path d="M277.978 34.1844C265.978 40.6844 255.978 46.1844 245.478 51.6844C249.978 54.6843 260.478 60.6843 259.478 79.6843L284.478 79.1843V77.6843C292.978 76.6843 301.478 80.1843 299.978 66.1843L301.978 56.1843C301.978 54.6843 299.478 50.6843 296.978 50.1843C298.478 47.6843 295.478 38.6843 295.478 38.6843V37.1843L291.478 34.1843L286.478 32.6843L282.978 32.1843L277.978 34.1844Z" fill="#EFC7D3" stroke="black" stroke-width="0.5"/>
<path d="M280.978 26.6843L272.478 28.1843L282.978 32.1843C292.478 33.1843 291.476 34.6843 295.472 37.1045L294.978 28.6843L280.978 26.6843Z" fill="#EFC7D3"/>
<path d="M295.478 37.1843L295.472 37.1045M295.472 37.1045L294.978 28.6843L280.978 26.6843L272.478 28.1843L282.978 32.1843C292.478 33.1843 291.476 34.6843 295.472 37.1045Z" stroke="black" stroke-width="0.5"/>
<path d="M293.979 36.6845C293.479 34.1844 282.479 33.9843 276.979 34.4843" stroke="black" stroke-width="0.5"/>
<path d="M299.979 66.6843L260.479 68.6843C259.979 63.6843 257.813 59.5177 255.979 57.6843L301.979 55.1843M300.479 52.6843C289.479 51.1843 278.479 46.3843 266.479 40.3843M228.479 30.6843L272.479 28.1843L280.979 26.6843" stroke="black" stroke-width="0.5"/>
<path d="M290.479 40.6843C290.479 38.6843 289.479 34.6843 285.979 32.6843C288.2 32.6843 291.577 33.7247 294.088 36.0943C294.552 37.6243 293.479 41.1843 290.438 42.6843C290.424 42.094 290.479 41.4086 290.479 40.6843Z" fill="#EFC7D3"/>
<path d="M272.479 43.1843C279.475 43.5341 285.492 43.6392 290.873 44.1843M297.479 45.1843C295.376 44.7337 293.183 44.4184 290.873 44.1843M295.479 37.6843C295.062 37.0992 294.592 36.57 294.088 36.0943M290.873 44.1843C290.546 43.8396 290.452 43.3165 290.438 42.6843M290.438 42.6843C290.424 42.094 290.479 41.4086 290.479 40.6843C290.479 38.6843 289.479 34.6843 285.979 32.6843C288.2 32.6843 291.577 33.7247 294.088 36.0943M290.438 42.6843C293.479 41.1843 294.552 37.6243 294.088 36.0943" stroke="black" stroke-width="0.5"/>
<path d="M290.479 40.6843C285.979 40.6843 283.979 36.6843 282.979 34.1843" stroke="black" stroke-width="0.5"/>
<path d="M132.478 12.7843C118.978 16.7843 106.978 22.6843 92.978 35.6843C99.978 23.6843 115.478 14.1843 130.978 9.18433L132.478 12.7843Z" fill="#EFC7D3" stroke="black" stroke-width="0.5"/>
<path d="M130.978 9.18433C110.978 14.8584 92.978 32.1843 84.978 30.1843C97.978 20.6843 113.978 12.1843 130.478 7.68433L130.978 9.18433Z" fill="#EFC7D3" stroke="black" stroke-width="0.5"/>
<path d="M9.97869 48.1843H3.97869C1.47803 52.1843 1.47803 62.1843 1.97869 65.6843C0.478027 66.6843 0.478625 71.1843 1.47869 72.6843L5.47869 73.1843V74.6843L1.47869 76.6843V78.6843C5.47869 79.6843 13.9787 81.6843 21.9787 81.1843V79.6843H39.4787C38.812 71.1843 40.4787 60.6843 49.4787 53.6843C46.9787 49.6843 39.9787 45.1843 36.9787 44.6843C26.9787 43.6843 11.9787 46.1843 9.97869 48.1843Z" fill="#EFC7D3" stroke="black" stroke-width="0.5"/>
<path d="M92.9795 35.6843C75.1462 36.5177 43.4795 41.3843 32.9795 44.3843L36.9795 44.6843C41.9795 46.1843 47.4795 50.5177 49.4795 53.6843C62.4785 44.1843 87.9785 51.1843 86.4785 78.6843H96.4785C89.4785 67.6843 90.4785 45.6843 92.9795 35.6843Z" fill="#EFC7D3" stroke="black" stroke-width="0.5"/>
<path d="M9.97754 48.1844H3.97754C36.4777 28.6843 58.4778 34.6843 84.4775 30.1843L93.4778 35.6843C76.4778 36.6843 47.4775 40.1843 33.4775 44.3843C25.4775 44.1843 11.4775 46.1843 9.97754 48.1844Z" fill="#EFC7D3" stroke="black" stroke-width="0.5"/>
<path d="M36.9795 44.6844C29.4795 43.6843 12.4795 45.6843 9.97948 48.1844C9.17948 50.5843 12.3128 53.5177 13.9795 54.6843C23.4795 56.1843 36.9795 50.1843 36.9795 44.6844Z" fill="#EFC7D3" stroke="black" stroke-width="0.5"/>
<path d="M3.97872 48.1843C10.9787 49.1843 4.97872 59.6843 1.97872 64.6843C1.47865 57.6843 1.97852 52.1843 3.97872 48.1843Z" fill="#EFC7D3" stroke="black" stroke-width="0.5"/>
<path d="M21.978 84.1843V79.6843H39.478L39.978 84.1843H21.978Z" fill="#EFC7D3" stroke="black" stroke-width="0.5"/>
<path d="M2.47949 65.6843C3.97949 68.1843 5.97949 71.351 5.47949 73.1843M21.9795 79.6843C11.4795 80.1843 6.97949 76.1843 7.97949 72.6843C8.47949 72.1843 9.97949 70.6843 10.9795 70.6843" stroke="black" stroke-width="0.5"/>
<path d="M31.9795 74.6843C29.4795 70.6843 23.9795 65.6844 20.9795 64.1844C19.2294 63.6844 16.6044 63.8094 13.8543 64.1844C12.2294 65.5177 10.9795 68.6843 11.4795 71.6843C11.4795 72.851 12.7869 75.1843 15.4795 75.1843C19.9795 75.1843 26.9795 75.6843 31.9795 74.6843Z" fill="#EFC7D3"/>
<path d="M5.97949 65.6844C8.22943 65.1844 11.1043 64.5594 13.8543 64.1844M13.8543 64.1844C16.6044 63.8094 19.2294 63.6844 20.9795 64.1844C23.9795 65.6844 29.4795 70.6843 31.9795 74.6843C26.9795 75.6843 19.9795 75.1843 15.4795 75.1843C12.7869 75.1843 11.4795 72.851 11.4795 71.6843C10.9795 68.6843 12.2293 65.5177 13.8543 64.1844Z" stroke="black" stroke-width="0.5"/>
<path d="M11.4795 71.1844C19.4795 69.6844 22.9795 72.3129 25.9795 73.8129M12.9795 74.1844L30.4795 73.6844" stroke="black" stroke-width="0.5"/>
<path d="M21.9775 82.6843H31.4775C33.4775 82.6843 34.9775 80.6843 34.4775 79.6843M37.9775 79.6843V84.1843" stroke="black" stroke-width="0.5"/>
<path d="M21.9794 81.1846C17.4794 81.1846 12.9794 81.6846 1.47944 78.6846V76.6846L5.47944 74.6846V73.1846L1.47944 72.6846C0.978516 71.1843 -0.0212885 68.1843 1.97871 65.6843C1.47895 57.6843 1.97895 51.1843 3.97944 48.1841C36.4794 28.6845 58.4794 34.6845 84.4794 30.1845C162.479 -24.8156 244.479 12.1843 281.479 26.6845L294.979 28.6843L295.479 35.6843V38.6843C296.978 43.6843 298.313 48.1843 296.979 50.1843C299.479 51.1843 301.979 54.351 301.979 56.1843L299.979 66.1843C300.431 77.0322 298.023 77.2565 288.692 77.569C287.701 77.6021 285.632 77.6363 284.479 77.6843V79.1843L259.479 79.6154M21.9794 81.1846V84.1846H39.9778L39.4794 79.6846M21.9794 81.1846V79.6846H39.4794M39.4794 79.6846C36.4794 38.1846 89.9794 41.1846 86.4794 80.1846V82.6843H212.979C206.979 39.1843 261.479 39.1843 259.479 79.6154M258.978 79.6154H259.479" stroke="black"/>
</svg>
