<svg width="304" height="96" viewBox="0 0 304 96" fill="none" xmlns="http://www.w3.org/2000/svg">
<circle cx="63.0742" cy="74.0605" r="20.5" fill="#EDADBF" stroke="black"/>
<circle cx="236.074" cy="74.0605" r="20.5" fill="#EDADBF" stroke="black"/>
<path d="M133.072 12.5604L131.572 9.0604C171.572 1.06051 193.072 1.56055 232.072 13.0605L228.572 17.5605C208.572 9.56046 190.572 8.56046 174.572 8.06052C172.072 7.56052 168.072 7.56049 165.572 8.0604C155.572 8.06052 143.572 9.56052 133.072 12.5604Z" fill="#E0426F" stroke="black" stroke-width="0.5"/>
<path d="M131.572 9.06059L131.072 7.56059C167.072 -3.43945 199.572 0.560421 235.072 9.56059L232.072 13.0606C192.072 0.560547 166.072 2.06055 131.572 9.06059Z" fill="#E0426F" stroke="black" stroke-width="0.5"/>
<path d="M131.572 9.06066C183.072 -2.43937 211.572 7.56067 232.072 13.0607" stroke="black" stroke-width="0.5"/>
<path d="M171.074 30.0605L174.574 8.06055C208.074 9.06055 219.574 14.5605 224.074 16.0605L226.557 28.0605C199.567 28.0612 182.072 29.5607 171.074 30.0605Z" fill="#E0426F"/>
<path d="M227.074 30.5605L224.074 16.0605C219.574 14.5605 208.074 9.06055 174.574 8.06055L171.074 30.0605C182.074 29.5605 199.574 28.0605 226.574 28.0605" stroke="black" stroke-width="0.5"/>
<path d="M165.574 8.06055C132.574 9.06055 112.574 18.0605 93.5742 35.5605L96.0742 33.5605L160.074 30.5605L165.574 8.06055Z" fill="#E0426F" stroke="black" stroke-width="0.5"/>
<path d="M240.072 22.5605C236.406 19.8939 230.572 17.5605 224.072 16.0605L226.572 28.0605H233.072C236.072 26.5605 239.072 24.3293 240.072 22.5605Z" fill="#E0426F" stroke="black" stroke-width="0.5"/>
<path d="M97.0742 78.5605H164.074L198.574 77.0605H213.074L213.574 82.5605H199.574H98.5742H87.0742V78.5605H97.0742Z" fill="#E0426F"/>
<path d="M97.0742 78.5605H164.074L198.574 77.0605M97.0742 78.5605C97.0742 80.0605 97.5742 81.0605 98.5742 82.5605M97.0742 78.5605H87.0742V82.5605H98.5742M198.574 77.0605L199.574 82.5605M198.574 77.0605H213.074L213.574 82.5605H199.574M199.574 82.5605H98.5742" stroke="black" stroke-width="0.5"/>
<path d="M97.0733 78.5605C92.5742 74.0605 89.5743 52.0605 93.5733 35.5605L165.574 31.5605C161.574 36.5605 160.574 70.5605 164.074 78.5605H97.0733Z" fill="#E0426F" stroke="black" stroke-width="0.5"/>
<path d="M229.074 30.5605L165.574 31.5605C161.574 36.5605 160.574 70.5605 164.074 78.5605L198.574 77.0605C203.074 75.5605 209.574 70.0605 229.074 30.5605Z" fill="#E0426F" stroke="black" stroke-width="0.5"/>
<path d="M171.074 30.0606C166.574 30.5606 163.074 30.5606 160.074 30.5606L165.574 8.06062C168.574 7.56055 171.574 7.56055 174.574 8.06062L171.074 30.0606Z" fill="#E0426F" stroke="black" stroke-width="0.5"/>
<path d="M99.5742 32.0608C104.074 37.5608 111.074 34.0608 115.074 32.5608C116.074 17.0607 103.074 25.0607 99.5742 32.0608Z" fill="#E0426F" stroke="black" stroke-width="0.5"/>
<path d="M235.072 9.56055L232.072 13.0605C249.072 18.5605 259.572 21.5605 272.072 28.0605H273.572L281.572 26.5605C266.572 20.0605 259.072 17.5605 235.072 9.56055Z" fill="#EDADBF" stroke="black" stroke-width="0.5"/>
<path d="M272.072 28.0605C261.572 22.5605 242.572 16.0605 232.072 13.0605L230.072 15.5605L245.072 23.0605C243.572 25.5605 239.572 27.5605 233.572 30.2605C245.572 29.5605 262.572 28.5605 272.072 28.0605Z" fill="#EDADBF" stroke="black" stroke-width="0.5"/>
<path d="M277.574 34.3605L283.573 32.0605L273.073 28.0605L229.073 30.5605C221.573 45.5605 206.573 76.0605 198.573 77.0605H213.073C211.573 66.0605 221.073 42.5605 246.074 51.5605C256.574 46.0605 266.574 40.5605 277.574 34.3605Z" fill="#EDADBF" stroke="black" stroke-width="0.5"/>
<path d="M278.572 34.0606C266.572 40.5606 256.572 46.0606 246.072 51.5606C250.572 54.5605 261.072 60.5605 260.072 79.5605L285.072 79.0605V77.5605C293.572 76.5605 302.072 80.0605 300.572 66.0605L302.572 56.0605C302.572 54.5605 300.072 50.5605 297.572 50.0605C299.072 47.5605 296.072 38.5605 296.072 38.5605V37.0605L292.072 34.0605L287.072 32.5605L283.572 32.0605L278.572 34.0606Z" fill="#EDADBF" stroke="black" stroke-width="0.5"/>
<path d="M281.572 26.5605L273.072 28.0605L283.572 32.0605C293.072 33.0605 292.071 34.5605 296.066 36.9807L295.572 28.5605L281.572 26.5605Z" fill="#EDADBF"/>
<path d="M296.072 37.0605L296.066 36.9807M296.066 36.9807L295.572 28.5605L281.572 26.5605L273.072 28.0605L283.572 32.0605C293.072 33.0605 292.071 34.5605 296.066 36.9807Z" stroke="black" stroke-width="0.5"/>
<path d="M294.574 36.5607C294.074 34.0606 283.074 33.8606 277.574 34.3606" stroke="black" stroke-width="0.5"/>
<path d="M300.574 66.5605L261.074 68.5605C260.574 63.5605 258.408 59.3939 256.574 57.5605L302.574 55.0605M301.074 52.5605C290.074 51.0605 279.074 46.2605 267.074 40.2605M229.074 30.5605L273.074 28.0605L281.574 26.5605" stroke="black" stroke-width="0.5"/>
<path d="M291.074 40.5605C291.074 38.5605 290.074 34.5605 286.574 32.5605C288.795 32.5605 292.172 33.6009 294.683 35.9705C295.147 37.5005 294.074 41.0605 291.032 42.5605C291.019 41.9703 291.074 41.2848 291.074 40.5605Z" fill="#EDADBF"/>
<path d="M273.074 43.0605C280.07 43.4103 286.087 43.5154 291.467 44.0605M298.074 45.0605C295.971 44.6099 293.778 44.2946 291.467 44.0605M296.074 37.5605C295.656 36.9754 295.187 36.4462 294.683 35.9705M291.467 44.0605C291.141 43.7158 291.047 43.1927 291.032 42.5605M291.032 42.5605C291.019 41.9703 291.074 41.2848 291.074 40.5605C291.074 38.5605 290.074 34.5605 286.574 32.5605C288.795 32.5605 292.172 33.6009 294.683 35.9705M291.032 42.5605C294.074 41.0605 295.147 37.5005 294.683 35.9705" stroke="black" stroke-width="0.5"/>
<path d="M291.074 40.5605C286.574 40.5605 284.574 36.5605 283.574 34.0605" stroke="black" stroke-width="0.5"/>
<path d="M133.072 12.6605C119.572 16.6605 107.572 22.5605 93.5723 35.5605C100.572 23.5605 116.072 14.0605 131.572 9.06055L133.072 12.6605Z" fill="#E56E90" stroke="black" stroke-width="0.5"/>
<path d="M131.572 9.06055C111.572 14.7346 93.5723 32.0605 85.5723 30.0605C98.5723 20.5605 114.572 12.0605 131.072 7.56055L131.572 9.06055Z" fill="#E56E90" stroke="black" stroke-width="0.5"/>
<path d="M10.5729 48.0604H4.57293C2.07227 52.0604 2.07227 62.0604 2.57293 65.5604C1.07227 66.5604 1.07286 71.0604 2.07293 72.5604L6.07293 73.0604V74.5604L2.07293 76.5604V78.5604C6.07293 79.5604 14.5729 81.5604 22.5729 81.0604V79.5604H40.0729C39.4063 71.0604 41.0729 60.5604 50.0729 53.5604C47.5729 49.5604 40.5729 45.0604 37.5729 44.5604C27.5729 43.5604 12.5729 46.0604 10.5729 48.0604Z" fill="#E56E90" stroke="black" stroke-width="0.5"/>
<path d="M93.5742 35.5605C75.7409 36.3939 44.0742 41.2605 33.5742 44.2605L37.5742 44.5605C42.5742 46.0605 48.0742 50.3939 50.0742 53.5605C63.0732 44.0605 88.5732 51.0605 87.0732 78.5605H97.0732C90.0732 67.5605 91.0732 45.5605 93.5742 35.5605Z" fill="#E56E90" stroke="black" stroke-width="0.5"/>
<path d="M10.5723 48.0606H4.57227C37.0724 28.5605 59.0725 34.5605 85.0723 30.0605L94.0725 35.5605C77.0725 36.5605 48.0723 40.0605 34.0723 44.2606C26.0723 44.0605 12.0723 46.0605 10.5723 48.0606Z" fill="#E56E90" stroke="black" stroke-width="0.5"/>
<path d="M37.5737 44.5606C30.0737 43.5605 13.0737 45.5605 10.5737 48.0606C9.77372 50.4606 12.9071 53.3939 14.5737 54.5605C24.0737 56.0605 37.5737 50.0605 37.5737 44.5606Z" fill="#E56E90" stroke="black" stroke-width="0.5"/>
<path d="M4.57296 48.0605C11.573 49.0605 5.57296 59.5605 2.57296 64.5605C2.07289 57.5605 2.57275 52.0605 4.57296 48.0605Z" fill="#E56E90" stroke="black" stroke-width="0.5"/>
<path d="M22.5723 84.0605V79.5605H40.0723L40.5723 84.0605H22.5723Z" fill="#E56E90" stroke="black" stroke-width="0.5"/>
<path d="M3.07422 65.5605C4.57422 68.0605 6.57422 71.2272 6.07422 73.0605M22.5742 79.5605C12.0742 80.0605 7.57422 76.0605 8.57422 72.5605C9.07422 72.0605 10.5742 70.5605 11.5742 70.5605" stroke="black" stroke-width="0.5"/>
<path d="M32.5742 74.5607C30.0742 70.5607 24.5742 65.5607 21.5742 64.0607C19.8242 63.5607 17.1991 63.6857 14.449 64.0607C12.8241 65.3941 11.5742 68.5607 12.0742 71.5607C12.0742 72.7273 13.3816 75.0607 16.0742 75.0607C20.5742 75.0607 27.5742 75.5607 32.5742 74.5607Z" fill="#E56E90"/>
<path d="M6.57422 65.5607C8.82416 65.0607 11.6991 64.4357 14.449 64.0607M14.449 64.0607C17.1991 63.6857 19.8242 63.5607 21.5742 64.0607C24.5742 65.5607 30.0742 70.5607 32.5742 74.5607C27.5742 75.5607 20.5742 75.0607 16.0742 75.0607C13.3816 75.0607 12.0742 72.7273 12.0742 71.5607C11.5742 68.5607 12.8241 65.3941 14.449 64.0607Z" stroke="black" stroke-width="0.5"/>
<path d="M12.0742 71.0607C20.0742 69.5608 23.5742 72.1893 26.5742 73.6893M13.5742 74.0608L31.0742 73.5608" stroke="black" stroke-width="0.5"/>
<path d="M22.5723 82.5605H32.0723C34.0723 82.5605 35.5723 80.5605 35.0723 79.5605M38.5723 79.5605V84.0605" stroke="black" stroke-width="0.5"/>
<path d="M22.5742 81.0608C18.0742 81.0608 13.5742 81.5608 2.07416 78.5608V76.5608L6.07417 74.5608V73.0608L2.07416 72.5608C1.57324 71.0605 0.573438 68.0605 2.57343 65.5605C2.07368 57.5605 2.57368 51.0605 4.57417 48.0603C37.0742 28.5607 59.0742 34.5607 85.0742 30.0607C163.074 -24.9394 245.074 12.0605 282.074 26.5607L295.574 28.5605L296.074 35.5605V38.5605C297.573 43.5605 298.908 48.0605 297.574 50.0605C300.074 51.0605 302.574 54.2272 302.574 56.0605L300.574 66.0605C301.026 76.9085 298.618 77.1327 289.286 77.4452C288.295 77.4784 286.226 77.5125 285.074 77.5605V79.0605L260.074 79.4916M22.5742 81.0608V84.0608H40.5725L40.0742 79.5608M22.5742 81.0608V79.5608H40.0742M40.0742 79.5608C37.0742 38.0608 90.5742 41.0608 87.0742 80.0608V82.5605H213.574C207.574 39.0605 262.074 39.0605 260.074 79.4916M259.573 79.4916H260.074" stroke="black"/>
</svg>
