<svg width="303" height="96" viewBox="0 0 303 96" fill="none" xmlns="http://www.w3.org/2000/svg">
<circle cx="62.6978" cy="74.0605" r="20.5" stroke="black"/>
<circle cx="235.698" cy="74.0605" r="20.5" stroke="black"/>
<path d="M132.696 12.5604L131.196 9.0604C171.196 1.06051 192.696 1.56055 231.696 13.0605L228.196 17.5605C208.196 9.56046 190.196 8.56046 174.196 8.06052C171.696 7.56052 167.696 7.56049 165.196 8.0604C155.196 8.06052 143.196 9.56052 132.696 12.5604Z" fill="#E0426F" stroke="black" stroke-width="0.5"/>
<path d="M131.196 9.06059L130.696 7.56059C166.696 -3.43945 199.196 0.560421 234.696 9.56059L231.696 13.0606C191.696 0.560547 165.696 2.06055 131.196 9.06059Z" fill="#E0426F" stroke="black" stroke-width="0.5"/>
<path d="M131.196 9.06066C182.696 -2.43937 211.196 7.56067 231.696 13.0607" stroke="black" stroke-width="0.5"/>
<path d="M170.698 30.0605L174.198 8.06055C207.698 9.06055 219.198 14.5605 223.698 16.0605L226.181 28.0605C199.19 28.0612 181.695 29.5607 170.698 30.0605Z" fill="#E0426F"/>
<path d="M226.698 30.5605L223.698 16.0605C219.198 14.5605 207.698 9.06055 174.198 8.06055L170.698 30.0605C181.698 29.5605 199.198 28.0605 226.198 28.0605" stroke="black" stroke-width="0.5"/>
<path d="M165.198 8.06055C132.198 9.06055 112.198 18.0605 93.1978 35.5605L95.6978 33.5605L159.698 30.5605L165.198 8.06055Z" fill="#E0426F" stroke="black" stroke-width="0.5"/>
<path d="M239.696 22.5605C236.03 19.8939 230.196 17.5605 223.696 16.0605L226.196 28.0605H232.696C235.696 26.5605 238.696 24.3293 239.696 22.5605Z" fill="#E0426F" stroke="black" stroke-width="0.5"/>
<path d="M96.6978 78.5605H163.698L198.198 77.0605H212.698L213.198 82.5605H199.198H98.1978H86.6978V78.5605H96.6978Z" fill="#E0426F"/>
<path d="M96.6978 78.5605H163.698L198.198 77.0605M96.6978 78.5605C96.6978 80.0605 97.1978 81.0605 98.1978 82.5605M96.6978 78.5605H86.6978V82.5605H98.1978M198.198 77.0605L199.198 82.5605M198.198 77.0605H212.698L213.198 82.5605H199.198M199.198 82.5605H98.1978" stroke="black" stroke-width="0.5"/>
<path d="M96.6969 78.5605C92.1977 74.0605 89.1978 52.0605 93.1969 35.5605L165.198 31.5605C161.198 36.5605 160.198 70.5605 163.698 78.5605H96.6969Z" fill="#E0426F" stroke="black" stroke-width="0.5"/>
<path d="M228.697 30.5605L165.197 31.5605C161.197 36.5605 160.198 70.5605 163.697 78.5605L198.197 77.0605C202.697 75.5605 209.197 70.0605 228.697 30.5605Z" fill="#E0426F" stroke="black" stroke-width="0.5"/>
<path d="M170.698 30.0606C166.198 30.5606 162.698 30.5606 159.698 30.5606L165.198 8.06062C168.198 7.56055 171.198 7.56055 174.198 8.06062L170.698 30.0606Z" fill="#E0426F" stroke="black" stroke-width="0.5"/>
<path d="M99.1978 32.0608C103.698 37.5608 110.698 34.0608 114.698 32.5608C115.698 17.0607 102.698 25.0607 99.1978 32.0608Z" fill="#E0426F" stroke="black" stroke-width="0.5"/>
<path d="M234.696 9.56055L231.696 13.0605C248.696 18.5605 259.196 21.5605 271.696 28.0605H273.196L281.196 26.5605C266.196 20.0605 258.696 17.5605 234.696 9.56055Z" stroke="black" stroke-width="0.5"/>
<path d="M271.696 28.0605C261.196 22.5605 242.196 16.0605 231.696 13.0605L229.696 15.5605L244.696 23.0605C243.196 25.5605 239.196 27.5605 233.196 30.2605C245.196 29.5605 262.196 28.5605 271.696 28.0605Z" stroke="black" stroke-width="0.5"/>
<path d="M277.198 34.3605L283.196 32.0605L272.697 28.0605L228.697 30.5605C221.197 45.5605 206.197 76.0605 198.197 77.0605H212.697C211.197 66.0605 220.697 42.5605 245.698 51.5605C256.198 46.0605 266.198 40.5605 277.198 34.3605Z" stroke="black" stroke-width="0.5"/>
<path d="M278.196 34.0606C266.196 40.5606 256.196 46.0606 245.696 51.5606C250.196 54.5605 260.696 60.5605 259.696 79.5605L284.696 79.0605V77.5605C293.196 76.5605 301.696 80.0605 300.196 66.0605L302.196 56.0605C302.196 54.5605 299.696 50.5605 297.196 50.0605C298.696 47.5605 295.696 38.5605 295.696 38.5605V37.0605L291.696 34.0605L286.696 32.5605L283.196 32.0605L278.196 34.0606Z" stroke="black" stroke-width="0.5"/>
<path d="M295.696 37.0605L295.69 36.9807M295.69 36.9807L295.196 28.5605L281.196 26.5605L272.696 28.0605L283.196 32.0605C292.696 33.0605 291.695 34.5605 295.69 36.9807Z" stroke="black" stroke-width="0.5"/>
<path d="M294.198 36.5607C293.698 34.0606 282.698 33.8606 277.198 34.3606" stroke="black" stroke-width="0.5"/>
<path d="M300.198 66.5605L260.698 68.5605C260.198 63.5605 258.031 59.3939 256.198 57.5605L302.198 55.0605M300.698 52.5605C289.698 51.0605 278.698 46.2605 266.698 40.2605M228.698 30.5605L272.698 28.0605L281.198 26.5605" stroke="black" stroke-width="0.5"/>
<path d="M272.698 43.0605C279.693 43.4103 285.71 43.5154 291.091 44.0605M297.698 45.0605C295.595 44.6099 293.402 44.2946 291.091 44.0605M295.698 37.5605C295.28 36.9754 294.811 36.4462 294.307 35.9705M291.091 44.0605C290.765 43.7158 290.671 43.1927 290.656 42.5605M290.656 42.5605C290.642 41.9703 290.698 41.2848 290.698 40.5605C290.698 38.5605 289.698 34.5605 286.198 32.5605C288.419 32.5605 291.795 33.6009 294.307 35.9705M290.656 42.5605C293.698 41.0605 294.77 37.5005 294.307 35.9705" stroke="black" stroke-width="0.5"/>
<path d="M290.698 40.5605C286.198 40.5605 284.198 36.5605 283.198 34.0605" stroke="black" stroke-width="0.5"/>
<path d="M132.696 12.6605C119.196 16.6605 107.196 22.5605 93.1963 35.5605C100.196 23.5605 115.696 14.0605 131.196 9.06055L132.696 12.6605Z" fill="#E56E90" stroke="black" stroke-width="0.5"/>
<path d="M131.196 9.06055C111.196 14.7346 93.1963 32.0605 85.1963 30.0605C98.1963 20.5605 114.196 12.0605 130.696 7.56055L131.196 9.06055Z" fill="#E56E90" stroke="black" stroke-width="0.5"/>
<path d="M10.197 48.0604H4.19696C1.69629 52.0604 1.69629 62.0604 2.19696 65.5604C0.696289 66.5604 0.696887 71.0604 1.69696 72.5604L5.69696 73.0604V74.5604L1.69696 76.5604V78.5604C5.69696 79.5604 14.197 81.5604 22.197 81.0604V79.5604H39.697C39.0303 71.0604 40.697 60.5604 49.697 53.5604C47.197 49.5604 40.197 45.0604 37.197 44.5604C27.197 43.5604 12.197 46.0604 10.197 48.0604Z" fill="#E56E90" stroke="black" stroke-width="0.5"/>
<path d="M93.1978 35.5605C75.3644 36.3939 43.6978 41.2605 33.1978 44.2605L37.1978 44.5605C42.1978 46.0605 47.6978 50.3939 49.6978 53.5605C62.6968 44.0605 88.1968 51.0605 86.6968 78.5605H96.6968C89.6968 67.5605 90.6968 45.5605 93.1978 35.5605Z" fill="#E56E90" stroke="black" stroke-width="0.5"/>
<path d="M10.1963 48.0606H4.19629C36.6965 28.5605 58.6965 34.5605 84.6963 30.0605L93.6965 35.5605C76.6965 36.5605 47.6963 40.0605 33.6963 44.2606C25.6963 44.0605 11.6963 46.0605 10.1963 48.0606Z" fill="#E56E90" stroke="black" stroke-width="0.5"/>
<path d="M37.1977 44.5606C29.6977 43.5605 12.6977 45.5605 10.1977 48.0606C9.39774 50.4606 12.5311 53.3939 14.1977 54.5605C23.6978 56.0605 37.1977 50.0605 37.1977 44.5606Z" fill="#E56E90" stroke="black" stroke-width="0.5"/>
<path d="M4.19698 48.0605C11.197 49.0605 5.19698 59.5605 2.19698 64.5605C1.69691 57.5605 2.19678 52.0605 4.19698 48.0605Z" fill="#E56E90" stroke="black" stroke-width="0.5"/>
<path d="M22.1963 84.0605V79.5605H39.6963L40.1963 84.0605H22.1963Z" fill="#E56E90" stroke="black" stroke-width="0.5"/>
<path d="M2.69824 65.5605C4.19824 68.0605 6.19824 71.2272 5.69824 73.0605M22.1982 79.5605C11.6982 80.0605 7.19824 76.0605 8.19824 72.5605C8.69824 72.0605 10.1982 70.5605 11.1982 70.5605" stroke="black" stroke-width="0.5"/>
<path d="M32.1982 74.5607C29.6982 70.5607 24.1982 65.5607 21.1982 64.0607C19.4482 63.5607 16.8231 63.6857 14.073 64.0607C12.4481 65.3941 11.1982 68.5607 11.6982 71.5607C11.6982 72.7273 13.0057 75.0607 15.6982 75.0607C20.1982 75.0607 27.1982 75.5607 32.1982 74.5607Z" fill="#E56E90"/>
<path d="M6.19824 65.5607C8.44818 65.0607 11.3231 64.4357 14.073 64.0607M14.073 64.0607C16.8231 63.6857 19.4482 63.5607 21.1982 64.0607C24.1982 65.5607 29.6982 70.5607 32.1982 74.5607C27.1982 75.5607 20.1982 75.0607 15.6982 75.0607C13.0057 75.0607 11.6982 72.7273 11.6982 71.5607C11.1982 68.5607 12.4481 65.3941 14.073 64.0607Z" stroke="black" stroke-width="0.5"/>
<path d="M11.6982 71.0607C19.6982 69.5608 23.1982 72.1893 26.1982 73.6893M13.1982 74.0608L30.6982 73.5608" stroke="black" stroke-width="0.5"/>
<path d="M22.1963 82.5605H31.6963C33.6963 82.5605 35.1963 80.5605 34.6963 79.5605M38.1963 79.5605V84.0605" stroke="black" stroke-width="0.5"/>
<path d="M22.1977 81.0608C17.6977 81.0608 13.1977 81.5608 1.6977 78.5608V76.5608L5.6977 74.5608V73.0608L1.6977 72.5608C1.19678 71.0605 0.196973 68.0605 2.19697 65.5605C1.69721 57.5605 2.19721 51.0605 4.1977 48.0603C36.6977 28.5607 58.6977 34.5607 84.6977 30.0607C162.698 -24.9394 244.698 12.0605 281.698 26.5607L295.198 28.5605L295.698 35.5605V38.5605C297.196 43.5605 298.531 48.0605 297.198 50.0605C299.698 51.0605 302.198 54.2272 302.198 56.0605L300.198 66.0605C300.65 76.9085 298.242 77.1327 288.91 77.4452C287.919 77.4784 285.85 77.5125 284.698 77.5605V79.0605L259.698 79.4916M22.1977 81.0608V84.0608H40.196L39.6977 79.5608M22.1977 81.0608V79.5608H39.6977M39.6977 79.5608C36.6977 38.0608 90.1977 41.0608 86.6977 80.0608V82.5605H213.198C207.198 39.0605 261.698 39.0605 259.698 79.4916M259.196 79.4916H259.698" stroke="black"/>
</svg>
