<svg width="303" height="96" viewBox="0 0 303 96" fill="none" xmlns="http://www.w3.org/2000/svg">
<circle cx="62.2607" cy="74.3838" r="20.5" fill="#E56E90" stroke="black"/>
<circle cx="235.261" cy="74.3838" r="20.5" fill="#E56E90" stroke="black"/>
<path d="M132.259 12.8836L130.759 9.38364C170.759 1.38376 192.259 1.88379 231.259 13.3837L227.759 17.8837C207.759 9.8837 189.759 8.8837 173.759 8.38377C171.259 7.88377 167.259 7.88373 164.759 8.38364C154.759 8.38377 142.759 9.88377 132.259 12.8836Z" fill="#E56E90" stroke="black" stroke-width="0.5"/>
<path d="M130.759 9.38383L130.259 7.88383C166.259 -3.11621 198.759 0.883663 234.259 9.88383L231.259 13.3838C191.259 0.883789 165.259 2.38379 130.759 9.38383Z" fill="#E56E90" stroke="black" stroke-width="0.5"/>
<path d="M130.759 9.3839C182.259 -2.11613 210.759 7.88391 231.259 13.3839" stroke="black" stroke-width="0.5"/>
<path d="M170.261 30.3838L173.761 8.38379C207.261 9.38379 218.761 14.8838 223.261 16.3838L225.743 28.3838C198.753 28.3844 181.258 29.8839 170.261 30.3838Z" fill="#E56E90"/>
<path d="M226.261 30.8838L223.261 16.3838C218.761 14.8838 207.261 9.38379 173.761 8.38379L170.261 30.3838C181.261 29.8838 198.761 28.3838 225.761 28.3838" stroke="black" stroke-width="0.5"/>
<path d="M164.761 8.38379C131.761 9.38379 111.761 18.3838 92.7607 35.8838L95.2607 33.8838L159.261 30.8838L164.761 8.38379Z" fill="#E56E90" stroke="black" stroke-width="0.5"/>
<path d="M239.259 22.8838C235.592 20.2171 229.759 17.8838 223.259 16.3838L225.759 28.3838H232.259C235.259 26.8838 238.259 24.6525 239.259 22.8838Z" fill="#E56E90" stroke="black" stroke-width="0.5"/>
<path d="M96.2607 78.8838H163.261L197.761 77.3838H212.261L212.761 82.8838H198.761H97.7607H86.2607V78.8838H96.2607Z" fill="#E56E90"/>
<path d="M96.2607 78.8838H163.261L197.761 77.3838M96.2607 78.8838C96.2607 80.3838 96.7607 81.3838 97.7607 82.8838M96.2607 78.8838H86.2607V82.8838H97.7607M197.761 77.3838L198.761 82.8838M197.761 77.3838H212.261L212.761 82.8838H198.761M198.761 82.8838H97.7607" stroke="black" stroke-width="0.5"/>
<path d="M96.2599 78.8838C91.7607 74.3838 88.7608 52.3838 92.7599 35.8838L164.761 31.8838C160.761 36.8838 159.761 70.8838 163.261 78.8838H96.2599Z" fill="#E56E90" stroke="black" stroke-width="0.5"/>
<path d="M228.261 30.8838L164.761 31.8838C160.761 36.8838 159.761 70.8838 163.261 78.8838L197.761 77.3838C202.261 75.8838 208.761 70.3838 228.261 30.8838Z" fill="#E56E90" stroke="black" stroke-width="0.5"/>
<path d="M170.261 30.3839C165.761 30.8839 162.261 30.8839 159.261 30.8839L164.761 8.38386C167.761 7.88379 170.761 7.88379 173.761 8.38386L170.261 30.3839Z" fill="#E56E90" stroke="black" stroke-width="0.5"/>
<path d="M98.7607 32.384C103.261 37.884 110.261 34.384 114.261 32.884C115.261 17.3839 102.261 25.3839 98.7607 32.384Z" fill="#E56E90" stroke="black" stroke-width="0.5"/>
<path d="M234.259 9.88379L231.259 13.3838C248.259 18.8838 258.759 21.8838 271.259 28.3838H272.759L280.759 26.8838C265.759 20.3838 258.259 17.8838 234.259 9.88379Z" fill="#E56E90" stroke="black" stroke-width="0.5"/>
<path d="M271.259 28.3838C260.759 22.8838 241.759 16.3838 231.259 13.3838L229.259 15.8838L244.259 23.3838C242.759 25.8838 238.759 27.8838 232.759 30.5838C244.759 29.8838 261.759 28.8838 271.259 28.3838Z" fill="#E56E90" stroke="black" stroke-width="0.5"/>
<path d="M276.761 34.6838L282.759 32.3838L272.26 28.3838L228.26 30.8838C220.76 45.8838 205.76 76.3838 197.76 77.3838H212.26C210.76 66.3838 220.26 42.8838 245.261 51.8838C255.761 46.3838 265.761 40.8838 276.761 34.6838Z" fill="#E56E90" stroke="black" stroke-width="0.5"/>
<path d="M277.759 34.3838C265.759 40.8838 255.759 46.3838 245.259 51.8838C249.759 54.8838 260.259 60.8838 259.259 79.8838L284.259 79.3838V77.8838C292.759 76.8838 301.259 80.3838 299.759 66.3838L301.759 56.3838C301.759 54.8838 299.259 50.8838 296.759 50.3838C298.259 47.8838 295.259 38.8838 295.259 38.8838V37.3838L291.259 34.3838L286.259 32.8838L282.759 32.3838L277.759 34.3838Z" fill="#E56E90" stroke="black" stroke-width="0.5"/>
<path d="M280.759 26.8838L272.259 28.3838L282.759 32.3838C292.259 33.3838 291.258 34.8838 295.253 37.304L294.759 28.8838L280.759 26.8838Z" fill="#E56E90"/>
<path d="M295.259 37.3838L295.253 37.304M295.253 37.304L294.759 28.8838L280.759 26.8838L272.259 28.3838L282.759 32.3838C292.259 33.3838 291.258 34.8838 295.253 37.304Z" stroke="black" stroke-width="0.5"/>
<path d="M293.761 36.884C293.261 34.3839 282.261 34.1838 276.761 34.6838" stroke="black" stroke-width="0.5"/>
<path d="M299.761 66.8838L260.261 68.8838C259.761 63.8838 257.594 59.7171 255.761 57.8838L301.761 55.3838M300.261 52.8838C289.261 51.3838 278.261 46.5838 266.261 40.5838M228.261 30.8838L272.261 28.3838L280.761 26.8838" stroke="black" stroke-width="0.5"/>
<path d="M290.261 40.8838C290.261 38.8838 289.261 34.8838 285.761 32.8838C287.982 32.8838 291.358 33.9242 293.87 36.2938C294.333 37.8238 293.261 41.3838 290.219 42.8838C290.205 42.2935 290.261 41.6081 290.261 40.8838Z" fill="#E56E90"/>
<path d="M272.261 43.3838C279.256 43.7336 285.273 43.8387 290.654 44.3838M297.261 45.3838C295.158 44.9331 292.964 44.6179 290.654 44.3838M295.261 37.8838C294.843 37.2987 294.374 36.7694 293.87 36.2938M290.654 44.3838C290.328 44.039 290.234 43.516 290.219 42.8838M290.219 42.8838C290.205 42.2935 290.261 41.6081 290.261 40.8838C290.261 38.8838 289.261 34.8838 285.761 32.8838C287.982 32.8838 291.358 33.9242 293.87 36.2938M290.219 42.8838C293.261 41.3838 294.333 37.8238 293.87 36.2938" stroke="black" stroke-width="0.5"/>
<path d="M290.261 40.8838C285.761 40.8838 283.761 36.8838 282.761 34.3838" stroke="black" stroke-width="0.5"/>
<path d="M132.259 12.9838C118.759 16.9838 106.759 22.8838 92.7588 35.8838C99.7588 23.8838 115.259 14.3838 130.759 9.38379L132.259 12.9838Z" fill="#E0426F" stroke="black" stroke-width="0.5"/>
<path d="M130.759 9.38379C110.759 15.0578 92.7588 32.3838 84.7588 30.3838C97.7588 20.8838 113.759 12.3838 130.259 7.88379L130.759 9.38379Z" fill="#E0426F" stroke="black" stroke-width="0.5"/>
<path d="M9.75946 48.3837H3.75946C1.25879 52.3837 1.25879 62.3837 1.75946 65.8837C0.258789 66.8837 0.259387 71.3837 1.25946 72.8837L5.25946 73.3837V74.8837L1.25946 76.8837V78.8837C5.25946 79.8837 13.7595 81.8837 21.7595 81.3837V79.8837H39.2595C38.5928 71.3837 40.2595 60.8837 49.2595 53.8837C46.7595 49.8837 39.7595 45.3837 36.7595 44.8837C26.7595 43.8837 11.7595 46.3837 9.75946 48.3837Z" fill="#E0426F" stroke="black" stroke-width="0.5"/>
<path d="M92.7607 35.8838C74.9274 36.7171 43.2607 41.5838 32.7607 44.5838L36.7607 44.8838C41.7607 46.3838 47.2607 50.7171 49.2607 53.8838C62.2598 44.3838 87.7598 51.3838 86.2598 78.8838H96.2598C89.2598 67.8838 90.2598 45.8838 92.7607 35.8838Z" fill="#E0426F" stroke="black" stroke-width="0.5"/>
<path d="M9.75879 48.3838H3.75879C36.259 28.8837 58.259 34.8838 84.2588 30.3838L93.259 35.8838C76.259 36.8838 47.2588 40.3838 33.2588 44.5838C25.2588 44.3838 11.2588 46.3838 9.75879 48.3838Z" fill="#E0426F" stroke="black" stroke-width="0.5"/>
<path d="M36.7602 44.8839C29.2602 43.8838 12.2602 45.8838 9.76024 48.3839C8.96024 50.7838 12.0936 53.7171 13.7602 54.8838C23.2603 56.3838 36.7602 50.3838 36.7602 44.8839Z" fill="#E0426F" stroke="black" stroke-width="0.5"/>
<path d="M3.75948 48.3838C10.7595 49.3838 4.75948 59.8838 1.75948 64.8838C1.25941 57.8838 1.75928 52.3838 3.75948 48.3838Z" fill="#E0426F" stroke="black" stroke-width="0.5"/>
<path d="M21.7588 84.3838V79.8838H39.2588L39.7588 84.3838H21.7588Z" fill="#E0426F" stroke="black" stroke-width="0.5"/>
<path d="M2.26074 65.8838C3.76074 68.3838 5.76074 71.5505 5.26074 73.3838M21.7607 79.8838C11.2607 80.3838 6.76074 76.3838 7.76074 72.8838C8.26074 72.3838 9.76074 70.8838 10.7607 70.8838" stroke="black" stroke-width="0.5"/>
<path d="M31.7607 74.8839C29.2607 70.8839 23.7607 65.884 20.7607 64.384C19.0107 63.884 16.3856 64.009 13.6355 64.384C12.0106 65.7173 10.7607 68.8839 11.2607 71.8839C11.2607 73.0506 12.5682 75.3839 15.2607 75.3839C19.7607 75.3839 26.7607 75.8839 31.7607 74.8839Z" fill="#E0426F"/>
<path d="M5.76074 65.884C8.01068 65.384 10.8856 64.759 13.6355 64.384M13.6355 64.384C16.3856 64.009 19.0107 63.884 20.7607 64.384C23.7607 65.884 29.2607 70.8839 31.7607 74.8839C26.7607 75.8839 19.7607 75.3839 15.2607 75.3839C12.5682 75.3839 11.2607 73.0506 11.2607 71.8839C10.7607 68.8839 12.0106 65.7173 13.6355 64.384Z" stroke="black" stroke-width="0.5"/>
<path d="M11.2607 71.384C19.2607 69.884 22.7607 72.5125 25.7607 74.0125M12.7607 74.384L30.2607 73.884" stroke="black" stroke-width="0.5"/>
<path d="M21.7588 82.8838H31.2588C33.2588 82.8838 34.7588 80.8838 34.2588 79.8838M37.7588 79.8838V84.3838" stroke="black" stroke-width="0.5"/>
<path d="M21.7607 81.384C17.2607 81.384 12.7607 81.884 1.26069 78.884V76.884L5.26069 74.884V73.384L1.26069 72.884C0.759766 71.3838 -0.240039 68.3838 1.75996 65.8838C1.2602 57.8838 1.7602 51.3838 3.76069 48.3835C36.2607 28.8839 58.2607 34.884 84.2607 30.384C162.261 -24.6161 244.261 12.3838 281.261 26.884L294.761 28.8838L295.261 35.8838V38.8838C296.759 43.8838 298.094 48.3838 296.761 50.3838C299.261 51.3838 301.761 54.5505 301.761 56.3838L299.761 66.3838C300.213 77.2317 297.805 77.456 288.473 77.7684C287.482 77.8016 285.413 77.8358 284.261 77.8838V79.3838L259.261 79.8148M21.7607 81.384V84.384H39.759L39.2607 79.884M21.7607 81.384V79.884H39.2607M39.2607 79.884C36.2607 38.384 89.7607 41.384 86.2607 80.384V82.8838H212.761C206.761 39.3838 261.261 39.3838 259.261 79.8148M258.759 79.8148H259.261" stroke="black"/>
</svg>
