<svg width="303" height="96" viewBox="0 0 303 96" fill="none" xmlns="http://www.w3.org/2000/svg">
<circle cx="62.249" cy="74.3687" r="20.5" fill="#E56E90" stroke="black"/>
<circle cx="235.249" cy="74.3687" r="20.5" fill="#E56E90" stroke="black"/>
<path d="M132.247 12.8685L130.747 9.36851C170.747 1.36862 192.247 1.86865 231.247 13.3686L227.747 17.8686C207.747 9.86856 189.747 8.86856 173.747 8.36863C171.247 7.86863 167.247 7.86859 164.747 8.36851C154.747 8.36863 142.747 9.86863 132.247 12.8685Z" fill="#EDADBF" stroke="black" stroke-width="0.5"/>
<path d="M130.747 9.3687L130.247 7.8687C166.247 -3.13135 198.747 0.868526 234.247 9.8687L231.247 13.3687C191.247 0.868652 165.247 2.36865 130.747 9.3687Z" fill="#EDADBF" stroke="black" stroke-width="0.5"/>
<path d="M130.747 9.36876C182.247 -2.13126 210.747 7.86877 231.247 13.3688" stroke="black" stroke-width="0.5"/>
<path d="M170.249 30.3687L173.749 8.36865C207.249 9.36865 218.749 14.8687 223.249 16.3687L225.732 28.3687C198.742 28.3693 181.247 29.8688 170.249 30.3687Z" fill="#EDADBF"/>
<path d="M226.249 30.8687L223.249 16.3687C218.749 14.8687 207.249 9.36865 173.749 8.36865L170.249 30.3687C181.249 29.8687 198.749 28.3687 225.749 28.3687" stroke="black" stroke-width="0.5"/>
<path d="M164.749 8.36865C131.749 9.36865 111.749 18.3687 92.749 35.8687L95.249 33.8687L159.249 30.8687L164.749 8.36865Z" fill="#EDADBF" stroke="black" stroke-width="0.5"/>
<path d="M239.247 22.8687C235.58 20.202 229.747 17.8687 223.247 16.3687L225.747 28.3687H232.247C235.247 26.8687 238.247 24.6374 239.247 22.8687Z" fill="#EDADBF" stroke="black" stroke-width="0.5"/>
<path d="M96.249 78.8687H163.249L197.749 77.3687H212.249L212.749 82.8687H198.749H97.749H86.249V78.8687H96.249Z" fill="#EDADBF"/>
<path d="M96.249 78.8687H163.249L197.749 77.3687M96.249 78.8687C96.249 80.3687 96.749 81.3687 97.749 82.8687M96.249 78.8687H86.249V82.8687H97.749M197.749 77.3687L198.749 82.8687M197.749 77.3687H212.249L212.749 82.8687H198.749M198.749 82.8687H97.749" stroke="black" stroke-width="0.5"/>
<path d="M96.2482 78.8687C91.749 74.3687 88.7491 52.3687 92.7482 35.8687L164.749 31.8687C160.749 36.8687 159.749 70.8687 163.249 78.8687H96.2482Z" fill="#EDADBF" stroke="black" stroke-width="0.5"/>
<path d="M228.249 30.8687L164.749 31.8687C160.749 36.8687 159.749 70.8687 163.249 78.8687L197.749 77.3687C202.249 75.8687 208.749 70.3687 228.249 30.8687Z" fill="#EDADBF" stroke="black" stroke-width="0.5"/>
<path d="M170.249 30.3687C165.749 30.8687 162.249 30.8687 159.249 30.8687L164.749 8.36873C167.749 7.86865 170.749 7.86865 173.749 8.36873L170.249 30.3687Z" fill="#EDADBF" stroke="black" stroke-width="0.5"/>
<path d="M98.749 32.3689C103.249 37.8689 110.249 34.3689 114.249 32.8689C115.249 17.3688 102.249 25.3688 98.749 32.3689Z" fill="#EDADBF" stroke="black" stroke-width="0.5"/>
<path d="M234.247 9.86865L231.247 13.3687C248.247 18.8687 258.747 21.8687 271.247 28.3687H272.747L280.747 26.8687C265.747 20.3687 258.247 17.8687 234.247 9.86865Z" fill="#E0426F" stroke="black" stroke-width="0.5"/>
<path d="M271.247 28.3687C260.747 22.8687 241.747 16.3687 231.247 13.3687L229.247 15.8687L244.247 23.3687C242.747 25.8687 238.747 27.8687 232.747 30.5687C244.747 29.8687 261.747 28.8687 271.247 28.3687Z" fill="#E0426F" stroke="black" stroke-width="0.5"/>
<path d="M276.749 34.6687L282.747 32.3687L272.248 28.3687L228.248 30.8687C220.748 45.8687 205.748 76.3687 197.748 77.3687H212.248C210.748 66.3687 220.248 42.8687 245.249 51.8687C255.749 46.3687 265.749 40.8687 276.749 34.6687Z" fill="#E0426F" stroke="black" stroke-width="0.5"/>
<path d="M277.747 34.3687C265.747 40.8687 255.747 46.3687 245.247 51.8687C249.747 54.8687 260.247 60.8687 259.247 79.8687L284.247 79.3687V77.8687C292.747 76.8687 301.247 80.3687 299.747 66.3687L301.747 56.3687C301.747 54.8687 299.247 50.8687 296.747 50.3687C298.247 47.8687 295.247 38.8687 295.247 38.8687V37.3687L291.247 34.3687L286.247 32.8687L282.747 32.3687L277.747 34.3687Z" fill="#E0426F" stroke="black" stroke-width="0.5"/>
<path d="M280.747 26.8687L272.247 28.3687L282.747 32.3687C292.247 33.3687 291.246 34.8687 295.241 37.2888L294.747 28.8687L280.747 26.8687Z" fill="#E0426F"/>
<path d="M295.247 37.3687L295.241 37.2888M295.241 37.2888L294.747 28.8687L280.747 26.8687L272.247 28.3687L282.747 32.3687C292.247 33.3687 291.246 34.8687 295.241 37.2888Z" stroke="black" stroke-width="0.5"/>
<path d="M293.749 36.8689C293.249 34.3687 282.249 34.1687 276.749 34.6687" stroke="black" stroke-width="0.5"/>
<path d="M299.749 66.8687L260.249 68.8687C259.749 63.8687 257.582 59.702 255.749 57.8687L301.749 55.3687M300.249 52.8687C289.249 51.3687 278.249 46.5687 266.249 40.5687M228.249 30.8687L272.249 28.3687L280.749 26.8687" stroke="black" stroke-width="0.5"/>
<path d="M290.249 40.8687C290.249 38.8687 289.249 34.8687 285.749 32.8687C287.97 32.8687 291.347 33.909 293.858 36.2786C294.322 37.8086 293.249 41.3687 290.207 42.8687C290.194 42.2784 290.249 41.5929 290.249 40.8687Z" fill="#E0426F"/>
<path d="M272.249 43.3687C279.245 43.7184 285.262 43.8235 290.642 44.3687M297.249 45.3687C295.146 44.918 292.953 44.6028 290.642 44.3687M295.249 37.8687C294.831 37.2835 294.362 36.7543 293.858 36.2786M290.642 44.3687C290.316 44.0239 290.222 43.5008 290.207 42.8687M290.207 42.8687C290.194 42.2784 290.249 41.5929 290.249 40.8687C290.249 38.8687 289.249 34.8687 285.749 32.8687C287.97 32.8687 291.347 33.909 293.858 36.2786M290.207 42.8687C293.249 41.3687 294.322 37.8086 293.858 36.2786" stroke="black" stroke-width="0.5"/>
<path d="M290.249 40.8687C285.749 40.8687 283.749 36.8687 282.749 34.3687" stroke="black" stroke-width="0.5"/>
<path d="M132.247 12.9686C118.747 16.9686 106.747 22.8687 92.7471 35.8687C99.7471 23.8687 115.247 14.3687 130.747 9.36865L132.247 12.9686Z" fill="#E56E90" stroke="black" stroke-width="0.5"/>
<path d="M130.747 9.36865C110.747 15.0427 92.7471 32.3687 84.7471 30.3687C97.7471 20.8687 113.747 12.3687 130.247 7.86865L130.747 9.36865Z" fill="#E56E90" stroke="black" stroke-width="0.5"/>
<path d="M9.74774 48.3685H3.74774C1.24707 52.3685 1.24707 62.3685 1.74774 65.8685C0.24707 66.8685 0.247668 71.3685 1.24774 72.8685L5.24774 73.3685V74.8685L1.24774 76.8685V78.8685C5.24774 79.8685 13.7477 81.8685 21.7477 81.3685V79.8685H39.2477C38.5811 71.3685 40.2477 60.8685 49.2477 53.8685C46.7477 49.8685 39.7477 45.3685 36.7477 44.8685C26.7477 43.8685 11.7477 46.3685 9.74774 48.3685Z" fill="#E56E90" stroke="black" stroke-width="0.5"/>
<path d="M92.749 35.8687C74.9157 36.702 43.249 41.5687 32.749 44.5687L36.749 44.8687C41.749 46.3687 47.249 50.702 49.249 53.8687C62.248 44.3687 87.748 51.3687 86.248 78.8687H96.248C89.248 67.8687 90.248 45.8687 92.749 35.8687Z" fill="#E56E90" stroke="black" stroke-width="0.5"/>
<path d="M9.74707 48.3687H3.74707C36.2473 28.8686 58.2473 34.8687 84.2471 30.3687L93.2473 35.8687C76.2473 36.8687 47.2471 40.3686 33.2471 44.5687C25.2471 44.3686 11.2471 46.3686 9.74707 48.3687Z" fill="#E56E90" stroke="black" stroke-width="0.5"/>
<path d="M36.7485 44.8687C29.2485 43.8687 12.2485 45.8687 9.74852 48.3687C8.94852 50.7687 12.0819 53.702 13.7485 54.8687C23.2485 56.3687 36.7485 50.3687 36.7485 44.8687Z" fill="#E56E90" stroke="black" stroke-width="0.5"/>
<path d="M3.74777 48.3687C10.7478 49.3687 4.74777 59.8687 1.74777 64.8687C1.2477 57.8687 1.74756 52.3687 3.74777 48.3687Z" fill="#E56E90" stroke="black" stroke-width="0.5"/>
<path d="M21.7471 84.3687V79.8687H39.2471L39.7471 84.3687H21.7471Z" fill="#E56E90" stroke="black" stroke-width="0.5"/>
<path d="M2.24902 65.8687C3.74902 68.3687 5.74902 71.5353 5.24902 73.3687M21.749 79.8687C11.249 80.3687 6.74902 76.3687 7.74902 72.8687C8.24902 72.3687 9.74902 70.8687 10.749 70.8687" stroke="black" stroke-width="0.5"/>
<path d="M31.749 74.8688C29.249 70.8688 23.749 65.8689 20.749 64.3689C18.999 63.8688 16.3739 63.9938 13.6238 64.3689C11.9989 65.7022 10.749 68.8688 11.249 71.8688C11.249 73.0354 12.5564 75.3688 15.249 75.3688C19.749 75.3688 26.749 75.8688 31.749 74.8688Z" fill="#E56E90"/>
<path d="M5.74902 65.8689C7.99897 65.3688 10.8739 64.7438 13.6238 64.3689M13.6238 64.3689C16.3739 63.9938 18.999 63.8688 20.749 64.3689C23.749 65.8689 29.249 70.8688 31.749 74.8688C26.749 75.8688 19.749 75.3688 15.249 75.3688C12.5564 75.3688 11.249 73.0354 11.249 71.8688C10.749 68.8688 11.9989 65.7022 13.6238 64.3689Z" stroke="black" stroke-width="0.5"/>
<path d="M11.249 71.3688C19.249 69.8689 22.749 72.4974 25.749 73.9974M12.749 74.3689L30.249 73.8689" stroke="black" stroke-width="0.5"/>
<path d="M21.7471 82.8687H31.2471C33.2471 82.8687 34.7471 80.8687 34.2471 79.8687M37.7471 79.8687V84.3687" stroke="black" stroke-width="0.5"/>
<path d="M3.74897 48.3684C36.249 28.8688 58.249 34.8688 84.249 30.3688C162.249 -24.6313 244.249 12.3686 281.249 26.8688L294.749 28.8687L295.249 35.8687V38.8687C296.747 43.8687 298.082 48.3687 296.749 50.3687C299.249 51.3687 301.749 54.5353 301.749 56.3687L299.749 66.3687C300.201 77.2166 297.793 77.4408 288.461 77.7533C287.47 77.7865 285.401 77.8206 284.249 77.8687V79.3687L259.249 79.7997C261.249 39.3687 206.749 39.3687 212.749 82.8687H86.249V80.3689C89.749 41.3689 36.249 38.3689 39.249 79.8689L39.7473 84.3689H21.749V81.3689C17.249 81.3689 12.749 81.8689 1.24897 78.8689V76.8689L5.24897 74.8689V73.3689L1.24897 72.8689C0.748047 71.3687 -0.251757 68.3687 1.74824 65.8687C1.24848 57.8687 1.74848 51.3687 3.74897 48.3684Z" fill="#E56E90"/>
<path d="M21.749 81.3689C17.249 81.3689 12.749 81.8689 1.24897 78.8689V76.8689L5.24897 74.8689V73.3689L1.24897 72.8689C0.748047 71.3687 -0.251757 68.3687 1.74824 65.8687C1.24848 57.8687 1.74848 51.3687 3.74897 48.3684C36.249 28.8688 58.249 34.8688 84.249 30.3688C162.249 -24.6313 244.249 12.3686 281.249 26.8688L294.749 28.8687L295.249 35.8687V38.8687C296.747 43.8687 298.082 48.3687 296.749 50.3687C299.249 51.3687 301.749 54.5353 301.749 56.3687L299.749 66.3687C300.201 77.2166 297.793 77.4408 288.461 77.7533C287.47 77.7865 285.401 77.8206 284.249 77.8687V79.3687L259.249 79.7997M21.749 81.3689V84.3689H39.7473L39.249 79.8689M21.749 81.3689V79.8689H39.249M39.249 79.8689C36.249 38.3689 89.749 41.3689 86.249 80.3689V82.8687H212.749C206.749 39.3687 261.249 39.3687 259.249 79.7997M258.747 79.7997H259.249" stroke="black"/>
</svg>
