<svg width="304" height="96" viewBox="0 0 304 96" fill="none" xmlns="http://www.w3.org/2000/svg">
<circle cx="63.0635" cy="74.1843" r="20.5" fill="#EDADBF" stroke="black"/>
<circle cx="236.063" cy="74.1843" r="20.5" fill="#EDADBF" stroke="black"/>
<path d="M133.062 12.6842L131.562 9.18418C171.562 1.18429 193.062 1.68433 232.062 13.1843L228.562 17.6843C208.562 9.68424 190.562 8.68423 174.562 8.1843C172.062 7.6843 168.062 7.68427 165.562 8.18418C155.562 8.1843 143.562 9.6843 133.062 12.6842Z" fill="#EFC7D3" stroke="black" stroke-width="0.5"/>
<path d="M131.562 9.18437L131.062 7.68437C167.062 -3.31567 199.562 0.6842 235.062 9.68437L232.062 13.1844C192.062 0.684326 166.062 2.18433 131.562 9.18437Z" fill="#EFC7D3" stroke="black" stroke-width="0.5"/>
<path d="M131.562 9.18431C183.062 -2.31571 211.562 7.68433 232.062 13.1843" stroke="black" stroke-width="0.5"/>
<path d="M171.063 30.1843L174.563 8.18433C208.063 9.18433 219.563 14.6843 224.063 16.1843L226.546 28.1843C199.556 28.185 182.061 29.6844 171.063 30.1843Z" fill="#EFC7D3"/>
<path d="M227.063 30.6843L224.063 16.1843C219.563 14.6843 208.063 9.18433 174.563 8.18433L171.063 30.1843C182.063 29.6843 199.563 28.1843 226.563 28.1843" stroke="black" stroke-width="0.5"/>
<path d="M165.563 8.18433C132.563 9.18433 112.563 18.1843 93.5635 35.6843L96.0635 33.6843L160.063 30.6843L165.563 8.18433Z" fill="#EFC7D3" stroke="black" stroke-width="0.5"/>
<path d="M240.062 22.6843C236.395 20.0177 230.562 17.6843 224.062 16.1843L226.562 28.1843H233.062C236.062 26.6843 239.062 24.4531 240.062 22.6843Z" fill="#EFC7D3" stroke="black" stroke-width="0.5"/>
<path d="M97.0635 78.6843H164.063L198.563 77.1843H213.063L213.563 82.6843H199.563H98.5635H87.0635V78.6843H97.0635Z" fill="#EFC7D3"/>
<path d="M97.0635 78.6843H164.063L198.563 77.1843M97.0635 78.6843C97.0635 80.1843 97.5635 81.1843 98.5635 82.6843M97.0635 78.6843H87.0635V82.6843H98.5635M198.563 77.1843L199.563 82.6843M198.563 77.1843H213.063L213.563 82.6843H199.563M199.563 82.6843H98.5635" stroke="black" stroke-width="0.5"/>
<path d="M97.0626 78.6843C92.5635 74.1843 89.5635 52.1843 93.5626 35.6843L165.563 31.6843C161.563 36.6843 160.563 70.6843 164.063 78.6843H97.0626Z" fill="#EFC7D3" stroke="black" stroke-width="0.5"/>
<path d="M229.063 30.6843L165.563 31.6843C161.564 36.6843 160.564 70.6843 164.063 78.6843L198.563 77.1843C203.063 75.6843 209.563 70.1843 229.063 30.6843Z" fill="#EFC7D3" stroke="black" stroke-width="0.5"/>
<path d="M171.063 30.1844C166.563 30.6844 163.063 30.6844 160.063 30.6844L165.563 8.1844C168.563 7.68433 171.563 7.68433 174.563 8.1844L171.063 30.1844Z" fill="#EFC7D3" stroke="black" stroke-width="0.5"/>
<path d="M99.5635 32.1845C104.063 37.6845 111.063 34.1845 115.063 32.6845C116.063 17.1843 103.063 25.1843 99.5635 32.1845Z" fill="#EFC7D3" stroke="black" stroke-width="0.5"/>
<path d="M235.062 9.68433L232.062 13.1843C249.062 18.6843 259.562 21.6843 272.062 28.1843H273.562L281.562 26.6843C266.562 20.1843 259.062 17.6843 235.062 9.68433Z" fill="#E56E90" stroke="black" stroke-width="0.5"/>
<path d="M272.062 28.1843C261.562 22.6843 242.562 16.1843 232.062 13.1843L230.062 15.6843L245.062 23.1843C243.562 25.6843 239.562 27.6843 233.562 30.3843C245.562 29.6843 262.562 28.6843 272.062 28.1843Z" fill="#E56E90" stroke="black" stroke-width="0.5"/>
<path d="M277.563 34.4843L283.562 32.1843L273.062 28.1843L229.062 30.6843C221.562 45.6843 206.562 76.1843 198.562 77.1843H213.062C211.562 66.1843 221.062 42.6843 246.063 51.6843C256.563 46.1843 266.563 40.6843 277.563 34.4843Z" fill="#E56E90" stroke="black" stroke-width="0.5"/>
<path d="M278.562 34.1844C266.562 40.6844 256.562 46.1844 246.062 51.6844C250.562 54.6843 261.062 60.6843 260.062 79.6843L285.062 79.1843V77.6843C293.562 76.6843 302.062 80.1843 300.562 66.1843L302.562 56.1843C302.562 54.6843 300.062 50.6843 297.562 50.1843C299.062 47.6843 296.062 38.6843 296.062 38.6843V37.1843L292.062 34.1843L287.062 32.6843L283.562 32.1843L278.562 34.1844Z" fill="#E56E90" stroke="black" stroke-width="0.5"/>
<path d="M281.562 26.6843L273.062 28.1843L283.562 32.1843C293.062 33.1843 292.06 34.6843 296.056 37.1045L295.562 28.6843L281.562 26.6843Z" fill="#E56E90"/>
<path d="M296.062 37.1843L296.056 37.1045M296.056 37.1045L295.562 28.6843L281.562 26.6843L273.062 28.1843L283.562 32.1843C293.062 33.1843 292.06 34.6843 296.056 37.1045Z" stroke="black" stroke-width="0.5"/>
<path d="M294.563 36.6845C294.063 34.1844 283.063 33.9843 277.563 34.4843" stroke="black" stroke-width="0.5"/>
<path d="M300.563 66.6843L261.063 68.6843C260.563 63.6843 258.397 59.5177 256.563 57.6843L302.563 55.1843M301.063 52.6843C290.063 51.1843 279.063 46.3843 267.063 40.3843M229.063 30.6843L273.063 28.1843L281.563 26.6843" stroke="black" stroke-width="0.5"/>
<path d="M291.063 40.6843C291.063 38.6843 290.063 34.6843 286.563 32.6843C288.784 32.6843 292.161 33.7247 294.672 36.0943C295.136 37.6243 294.063 41.1843 291.022 42.6843C291.008 42.094 291.063 41.4086 291.063 40.6843Z" fill="#E56E90"/>
<path d="M273.063 43.1843C280.059 43.5341 286.076 43.6392 291.457 44.1843M298.063 45.1843C295.96 44.7337 293.767 44.4184 291.457 44.1843M296.063 37.6843C295.646 37.0992 295.176 36.57 294.672 36.0943M291.457 44.1843C291.13 43.8396 291.036 43.3165 291.022 42.6843M291.022 42.6843C291.008 42.094 291.063 41.4086 291.063 40.6843C291.063 38.6843 290.063 34.6843 286.563 32.6843C288.784 32.6843 292.161 33.7247 294.672 36.0943M291.022 42.6843C294.063 41.1843 295.136 37.6243 294.672 36.0943" stroke="black" stroke-width="0.5"/>
<path d="M291.063 40.6843C286.563 40.6843 284.563 36.6843 283.563 34.1843" stroke="black" stroke-width="0.5"/>
<path d="M133.062 12.7843C119.562 16.7843 107.562 22.6843 93.5615 35.6843C100.562 23.6843 116.062 14.1843 131.562 9.18433L133.062 12.7843Z" fill="#EFC7D3" stroke="black" stroke-width="0.5"/>
<path d="M131.562 9.18433C111.562 14.8584 93.5615 32.1843 85.5615 30.1843C98.5615 20.6843 114.562 12.1843 131.062 7.68433L131.562 9.18433Z" fill="#EFC7D3" stroke="black" stroke-width="0.5"/>
<path d="M10.5622 48.1843H4.56219C2.06152 52.1843 2.06152 62.1843 2.56219 65.6843C1.06152 66.6843 1.06212 71.1843 2.06219 72.6843L6.06219 73.1843V74.6843L2.06219 76.6843V78.6843C6.06219 79.6843 14.5622 81.6843 22.5622 81.1843V79.6843H40.0622C39.3955 71.1843 41.0622 60.6843 50.0622 53.6843C47.5622 49.6843 40.5622 45.1843 37.5622 44.6843C27.5622 43.6843 12.5622 46.1843 10.5622 48.1843Z" fill="#EFC7D3" stroke="black" stroke-width="0.5"/>
<path d="M93.5635 35.6843C75.7301 36.5177 44.0635 41.3843 33.5635 44.3843L37.5635 44.6843C42.5635 46.1843 48.0635 50.5177 50.0635 53.6843C63.0625 44.1843 88.5625 51.1843 87.0625 78.6843H97.0625C90.0625 67.6843 91.0625 45.6843 93.5635 35.6843Z" fill="#EFC7D3" stroke="black" stroke-width="0.5"/>
<path d="M10.5615 48.1844H4.56152C37.0617 28.6843 59.0618 34.6843 85.0615 30.1843L94.0618 35.6843C77.0618 36.6843 48.0615 40.1843 34.0615 44.3843C26.0615 44.1843 12.0615 46.1843 10.5615 48.1844Z" fill="#EFC7D3" stroke="black" stroke-width="0.5"/>
<path d="M37.563 44.6844C30.063 43.6843 13.063 45.6843 10.563 48.1844C9.76298 50.5843 12.8963 53.5177 14.563 54.6843C24.063 56.1843 37.563 50.1843 37.563 44.6844Z" fill="#EFC7D3" stroke="black" stroke-width="0.5"/>
<path d="M4.56222 48.1843C11.5622 49.1843 5.56222 59.6843 2.56222 64.6843C2.06215 57.6843 2.56201 52.1843 4.56222 48.1843Z" fill="#EFC7D3" stroke="black" stroke-width="0.5"/>
<path d="M22.5615 84.1843V79.6843H40.0615L40.5615 84.1843H22.5615Z" fill="#EFC7D3" stroke="black" stroke-width="0.5"/>
<path d="M3.06348 65.6843C4.56348 68.1843 6.56348 71.351 6.06348 73.1843M22.5635 79.6843C12.0635 80.1843 7.56348 76.1843 8.56348 72.6843C9.06348 72.1843 10.5635 70.6843 11.5635 70.6843" stroke="black" stroke-width="0.5"/>
<path d="M32.5635 74.6843C30.0635 70.6843 24.5635 65.6844 21.5635 64.1844C19.8134 63.6844 17.1883 63.8094 14.4383 64.1844C12.8133 65.5177 11.5635 68.6843 12.0635 71.6843C12.0635 72.851 13.3709 75.1843 16.0635 75.1843C20.5635 75.1843 27.5635 75.6843 32.5635 74.6843Z" fill="#EFC7D3"/>
<path d="M6.56348 65.6844C8.81342 65.1844 11.6883 64.5594 14.4383 64.1844M14.4383 64.1844C17.1883 63.8094 19.8134 63.6844 21.5635 64.1844C24.5635 65.6844 30.0635 70.6843 32.5635 74.6843C27.5635 75.6843 20.5635 75.1843 16.0635 75.1843C13.3709 75.1843 12.0635 72.851 12.0635 71.6843C11.5635 68.6843 12.8133 65.5177 14.4383 64.1844Z" stroke="black" stroke-width="0.5"/>
<path d="M12.0635 71.1844C20.0635 69.6844 23.5635 72.3129 26.5635 73.8129M13.5635 74.1844L31.0635 73.6844" stroke="black" stroke-width="0.5"/>
<path d="M22.5615 82.6843H32.0615C34.0615 82.6843 35.5615 80.6843 35.0615 79.6843M38.5615 79.6843V84.1843" stroke="black" stroke-width="0.5"/>
<path d="M22.5634 81.1846C18.0634 81.1846 13.5634 81.6846 2.06342 78.6846V76.6846L6.06342 74.6846V73.1846L2.06342 72.6846C1.5625 71.1843 0.562696 68.1843 2.56269 65.6843C2.06293 57.6843 2.56293 51.1843 4.56342 48.1841C37.0634 28.6845 59.0634 34.6845 85.0634 30.1845C163.063 -24.8156 245.063 12.1843 282.063 26.6845L295.563 28.6843L296.063 35.6843V38.6843C297.562 43.6843 298.897 48.1843 297.563 50.1843C300.063 51.1843 302.563 54.351 302.563 56.1843L300.563 66.1843C301.015 77.0322 298.607 77.2565 289.276 77.569C288.285 77.6021 286.216 77.6363 285.063 77.6843V79.1843L260.063 79.6154M22.5634 81.1846V84.1846H40.5618L40.0634 79.6846M22.5634 81.1846V79.6846H40.0634M40.0634 79.6846C37.0634 38.1846 90.5634 41.1846 87.0634 80.1846V82.6843H213.563C207.563 39.1843 262.063 39.1843 260.063 79.6154M259.562 79.6154H260.063" stroke="black"/>
</svg>
