<svg width="304" height="96" viewBox="0 0 304 96" fill="none" xmlns="http://www.w3.org/2000/svg">
<circle cx="63.0518" cy="74.5227" r="20.5" fill="#EDADBF" stroke="black"/>
<circle cx="236.052" cy="74.5227" r="20.5" fill="#EDADBF" stroke="black"/>
<path d="M133.05 13.0226L131.55 9.52256C171.55 1.52267 193.05 2.02271 232.05 13.5227L228.55 18.0226C208.55 10.0226 190.55 9.02261 174.55 8.52268C172.05 8.02268 168.05 8.02264 165.55 8.52256C155.55 8.52268 143.55 10.0227 133.05 13.0226Z" fill="#EFC7D3" stroke="black" stroke-width="0.5"/>
<path d="M131.55 9.52275L131.05 8.02275C167.05 -2.97729 199.55 1.02258 235.05 10.0228L232.05 13.5228C192.05 1.02271 166.05 2.52271 131.55 9.52275Z" fill="#EFC7D3" stroke="black" stroke-width="0.5"/>
<path d="M131.55 9.52269C183.05 -1.97733 211.55 8.02271 232.05 13.5227" stroke="black" stroke-width="0.5"/>
<path d="M171.052 30.5227L174.552 8.52271C208.052 9.52271 219.552 15.0227 224.052 16.5227L226.535 28.5227C199.544 28.5233 182.049 30.0228 171.052 30.5227Z" fill="#EFC7D3"/>
<path d="M227.052 31.0227L224.052 16.5227C219.552 15.0227 208.052 9.52271 174.552 8.52271L171.052 30.5227C182.052 30.0227 199.552 28.5227 226.552 28.5227" stroke="black" stroke-width="0.5"/>
<path d="M165.552 8.52271C132.552 9.52271 112.552 18.5227 93.5518 36.0227L96.0518 34.0227L160.052 31.0227L165.552 8.52271Z" fill="#EFC7D3" stroke="black" stroke-width="0.5"/>
<path d="M240.05 23.0227C236.383 20.356 230.55 18.0227 224.05 16.5227L226.55 28.5227H233.05C236.05 27.0227 239.05 24.7914 240.05 23.0227Z" fill="#EFC7D3" stroke="black" stroke-width="0.5"/>
<path d="M97.0518 79.0227H164.052L198.552 77.5227H213.052L213.552 83.0227H199.552H98.5518H87.0518V79.0227H97.0518Z" fill="#EFC7D3"/>
<path d="M97.0518 79.0227H164.052L198.552 77.5227M97.0518 79.0227C97.0518 80.5227 97.5518 81.5227 98.5518 83.0227M97.0518 79.0227H87.0518V83.0227H98.5518M198.552 77.5227L199.552 83.0227M198.552 77.5227H213.052L213.552 83.0227H199.552M199.552 83.0227H98.5518" stroke="black" stroke-width="0.5"/>
<path d="M97.0509 79.0227C92.5518 74.5227 89.5518 52.5227 93.5509 36.0227L165.552 32.0227C161.552 37.0227 160.552 71.0227 164.052 79.0227H97.0509Z" fill="#EFC7D3" stroke="black" stroke-width="0.5"/>
<path d="M229.052 31.0227L165.552 32.0227C161.552 37.0227 160.552 71.0227 164.052 79.0227L198.552 77.5227C203.052 76.0227 209.552 70.5227 229.052 31.0227Z" fill="#EFC7D3" stroke="black" stroke-width="0.5"/>
<path d="M171.052 30.5228C166.552 31.0228 163.052 31.0228 160.052 31.0228L165.552 8.52278C168.552 8.02271 171.552 8.02271 174.552 8.52278L171.052 30.5228Z" fill="#EFC7D3" stroke="black" stroke-width="0.5"/>
<path d="M99.5518 32.5228C104.052 38.0228 111.052 34.5228 115.052 33.0228C116.052 17.5227 103.052 25.5227 99.5518 32.5228Z" fill="#EFC7D3" stroke="black" stroke-width="0.5"/>
<path d="M235.05 10.0227L232.05 13.5227C249.05 19.0227 259.55 22.0227 272.05 28.5227H273.55L281.55 27.0227C266.55 20.5227 259.05 18.0227 235.05 10.0227Z" fill="#E0426F" stroke="black" stroke-width="0.5"/>
<path d="M272.05 28.5227C261.55 23.0227 242.55 16.5227 232.05 13.5227L230.05 16.0227L245.05 23.5227C243.55 26.0227 239.55 28.0227 233.55 30.7227C245.55 30.0227 262.55 29.0227 272.05 28.5227Z" fill="#E0426F" stroke="black" stroke-width="0.5"/>
<path d="M277.552 34.8227L283.55 32.5227L273.051 28.5227L229.051 31.0227C221.551 46.0227 206.551 76.5227 198.551 77.5227H213.051C211.551 66.5227 221.051 43.0227 246.052 52.0227C256.552 46.5227 266.552 41.0227 277.552 34.8227Z" fill="#E0426F" stroke="black" stroke-width="0.5"/>
<path d="M278.55 34.5227C266.55 41.0227 256.55 46.5227 246.05 52.0227C250.55 55.0227 261.05 61.0227 260.05 80.0227L285.05 79.5227V78.0227C293.55 77.0227 302.05 80.5227 300.55 66.5227L302.55 56.5227C302.55 55.0227 300.05 51.0227 297.55 50.5227C299.05 48.0227 296.05 39.0227 296.05 39.0227V37.5227L292.05 34.5227L287.05 33.0227L283.55 32.5227L278.55 34.5227Z" fill="#E0426F" stroke="black" stroke-width="0.5"/>
<path d="M281.55 27.0227L273.05 28.5227L283.55 32.5227C293.05 33.5227 292.049 35.0227 296.044 37.4429L295.55 29.0227L281.55 27.0227Z" fill="#E0426F"/>
<path d="M296.05 37.5227L296.044 37.4429M296.044 37.4429L295.55 29.0227L281.55 27.0227L273.05 28.5227L283.55 32.5227C293.05 33.5227 292.049 35.0227 296.044 37.4429Z" stroke="black" stroke-width="0.5"/>
<path d="M294.552 37.0229C294.052 34.5228 283.052 34.3227 277.552 34.8227" stroke="black" stroke-width="0.5"/>
<path d="M300.552 67.0227L261.052 69.0227C260.552 64.0227 258.385 59.856 256.552 58.0227L302.552 55.5227M301.052 53.0227C290.052 51.5227 279.052 46.7227 267.052 40.7227M229.052 31.0227L273.052 28.5227L281.552 27.0227" stroke="black" stroke-width="0.5"/>
<path d="M291.052 41.0227C291.052 39.0227 290.052 35.0227 286.552 33.0227C288.773 33.0227 292.149 34.0631 294.661 36.4327C295.124 37.9627 294.052 41.5227 291.01 43.0227C290.996 42.4324 291.052 41.747 291.052 41.0227Z" fill="#E0426F"/>
<path d="M273.052 43.5227C280.047 43.8725 286.064 43.9776 291.445 44.5227M298.052 45.5227C295.949 45.0721 293.756 44.7568 291.445 44.5227M296.052 38.0227C295.634 37.4376 295.165 36.9084 294.661 36.4327M291.445 44.5227C291.119 44.1779 291.025 43.6549 291.01 43.0227M291.01 43.0227C290.996 42.4324 291.052 41.747 291.052 41.0227C291.052 39.0227 290.052 35.0227 286.552 33.0227C288.773 33.0227 292.149 34.0631 294.661 36.4327M291.01 43.0227C294.052 41.5227 295.124 37.9627 294.661 36.4327" stroke="black" stroke-width="0.5"/>
<path d="M291.052 41.0227C286.552 41.0227 284.552 37.0227 283.552 34.5227" stroke="black" stroke-width="0.5"/>
<path d="M133.05 13.1227C119.55 17.1227 107.55 23.0227 93.5498 36.0227C100.55 24.0227 116.05 14.5227 131.55 9.52271L133.05 13.1227Z" fill="#E56E90" stroke="black" stroke-width="0.5"/>
<path d="M131.55 9.52271C111.55 15.1967 93.5498 32.5227 85.5498 30.5227C98.5498 21.0227 114.55 12.5227 131.05 8.02271L131.55 9.52271Z" fill="#E56E90" stroke="black" stroke-width="0.5"/>
<path d="M10.5505 48.5227H4.55047C2.0498 52.5227 2.0498 62.5227 2.55047 66.0227C1.0498 67.0227 1.0504 71.5227 2.05047 73.0227L6.05047 73.5227V75.0227L2.05047 77.0227V79.0227C6.05047 80.0227 14.5505 82.0227 22.5505 81.5227V80.0227H40.0505C39.3838 71.5227 41.0505 61.0227 50.0505 54.0227C47.5505 50.0227 40.5505 45.5227 37.5505 45.0227C27.5505 44.0227 12.5505 46.5227 10.5505 48.5227Z" fill="#E56E90" stroke="black" stroke-width="0.5"/>
<path d="M93.5518 36.0227C75.7184 36.856 44.0518 41.7227 33.5518 44.7227L37.5518 45.0227C42.5518 46.5227 48.0518 50.856 50.0518 54.0227C63.0508 44.5227 88.5508 51.5227 87.0508 79.0227H97.0508C90.0508 68.0227 91.0508 46.0227 93.5518 36.0227Z" fill="#E56E90" stroke="black" stroke-width="0.5"/>
<path d="M10.5498 48.5228H4.5498C37.05 29.0227 59.05 35.0227 85.0498 30.5227L94.05 36.0227C77.05 37.0227 48.0498 40.5227 34.0498 44.7227C26.0498 44.5227 12.0498 46.5227 10.5498 48.5228Z" fill="#E56E90" stroke="black" stroke-width="0.5"/>
<path d="M37.5513 45.0228C30.0513 44.0227 13.0513 46.0227 10.5513 48.5228C9.75126 50.9227 12.8846 53.856 14.5513 55.0227C24.0513 56.5227 37.5513 50.5227 37.5513 45.0228Z" fill="#E56E90" stroke="black" stroke-width="0.5"/>
<path d="M4.5505 48.5227C11.5505 49.5227 5.5505 60.0227 2.5505 65.0227C2.05043 58.0227 2.55029 52.5227 4.5505 48.5227Z" fill="#E56E90" stroke="black" stroke-width="0.5"/>
<path d="M22.5498 84.5227V80.0227H40.0498L40.5498 84.5227H22.5498Z" fill="#E56E90" stroke="black" stroke-width="0.5"/>
<path d="M3.05176 66.0225C4.55176 68.5225 6.55176 71.6891 6.05176 73.5225M22.5518 80.0225C12.0518 80.5225 7.55176 76.5225 8.55176 73.0225C9.05176 72.5225 10.5518 71.0225 11.5518 71.0225" stroke="black" stroke-width="0.5"/>
<path d="M32.5518 75.0226C30.0518 71.0226 24.5518 66.0227 21.5518 64.5227C19.8017 64.0227 17.1766 64.1477 14.4265 64.5227C12.8016 65.856 11.5518 69.0226 12.0518 72.0226C12.0518 73.1892 13.3592 75.5226 16.0518 75.5226C20.5518 75.5226 27.5518 76.0226 32.5518 75.0226Z" fill="#E56E90"/>
<path d="M6.55176 66.0227C8.8017 65.5226 11.6766 64.8977 14.4265 64.5227M14.4265 64.5227C17.1766 64.1477 19.8017 64.0227 21.5518 64.5227C24.5518 66.0227 30.0518 71.0226 32.5518 75.0226C27.5518 76.0226 20.5518 75.5226 16.0518 75.5226C13.3592 75.5226 12.0518 73.1892 12.0518 72.0226C11.5518 69.0226 12.8016 65.856 14.4265 64.5227Z" stroke="black" stroke-width="0.5"/>
<path d="M12.0518 71.5227C20.0518 70.0227 23.5518 72.6512 26.5518 74.1512M13.5518 74.5227L31.0518 74.0227" stroke="black" stroke-width="0.5"/>
<path d="M22.5498 83.0225H32.0498C34.0498 83.0225 35.5498 81.0225 35.0498 80.0225M38.5498 80.0225V84.5225" stroke="black" stroke-width="0.5"/>
<path d="M22.5517 81.5229C18.0517 81.5229 13.5517 82.0229 2.0517 79.0229V77.0229L6.0517 75.0229V73.5229L2.0517 73.023C1.55078 71.5227 0.550977 68.5227 2.55097 66.0227C2.05122 58.0227 2.55122 51.5227 4.5517 48.5224C37.0517 29.0228 59.0517 35.0229 85.0517 30.5229C163.052 -24.4772 245.052 12.5227 282.052 27.0229L295.552 29.0227L296.052 36.0227V39.0227C297.55 44.0227 298.885 48.5227 297.552 50.5227C300.052 51.5227 302.552 54.6894 302.552 56.5227L300.552 66.5227C301.004 77.3706 298.596 77.5949 289.264 77.9073C288.273 77.9405 286.204 77.9747 285.052 78.0227V79.5227L260.052 79.9537M22.5517 81.5229V84.5229H40.55L40.0517 80.0229M22.5517 81.5229V80.0229H40.0517M40.0517 80.0229C37.0517 38.5229 90.5517 41.5229 87.0517 80.5229V83.0227H213.552C207.552 39.5227 262.052 39.5227 260.052 79.9537M259.55 79.9537H260.052" stroke="black"/>
</svg>
