<svg width="303" height="96" viewBox="0 0 303 96" fill="none" xmlns="http://www.w3.org/2000/svg">
<circle cx="62.4697" cy="74.1692" r="20.5" fill="#E0426F" stroke="black"/>
<circle cx="235.47" cy="74.1692" r="20.5" fill="#E0426F" stroke="black"/>
<path d="M132.468 12.669L130.968 9.16904C170.968 1.16916 192.468 1.66919 231.468 13.1691L227.968 17.6691C207.968 9.6691 189.968 8.6691 173.968 8.16917C171.468 7.66917 167.468 7.66913 164.968 8.16904C154.968 8.16917 142.968 9.66917 132.468 12.669Z" stroke="black" stroke-width="0.5"/>
<path d="M130.968 9.16923L130.468 7.66923C166.468 -3.33081 198.968 0.669064 234.468 9.66924L231.468 13.1692C191.468 0.669189 165.468 2.16919 130.968 9.16923Z" stroke="black" stroke-width="0.5"/>
<path d="M130.968 9.16918C182.468 -2.33085 210.968 7.66919 231.468 13.1692" stroke="black" stroke-width="0.5"/>
<path d="M226.47 30.6692L223.47 16.1692C218.97 14.6692 207.47 9.16919 173.97 8.16919L170.47 30.1692C181.47 29.6692 198.97 28.1692 225.97 28.1692" stroke="black" stroke-width="0.5"/>
<path d="M164.97 8.16919C131.97 9.16919 111.97 18.1692 92.9697 35.6692L95.4697 33.6692L159.47 30.6692L164.97 8.16919Z" stroke="black" stroke-width="0.5"/>
<path d="M239.468 22.6692C235.801 20.0025 229.968 17.6692 223.468 16.1692L225.968 28.1692H232.468C235.468 26.6692 238.468 24.4379 239.468 22.6692Z" stroke="black" stroke-width="0.5"/>
<path d="M96.4697 78.6692H163.47L197.97 77.1692M96.4697 78.6692C96.4697 80.1692 96.9697 81.1692 97.9697 82.6692M96.4697 78.6692H86.4697V82.6692H97.9697M197.97 77.1692L198.97 82.6692M197.97 77.1692H212.47L212.97 82.6692H198.97M198.97 82.6692H97.9697" stroke="black" stroke-width="0.5"/>
<path d="M96.4689 78.6692C91.9697 74.1692 88.9698 52.1692 92.9689 35.6692L164.97 31.6692C160.97 36.6692 159.97 70.6692 163.47 78.6692H96.4689Z" stroke="black" stroke-width="0.5"/>
<path d="M228.47 30.6692L164.97 31.6692C160.97 36.6692 159.97 70.6692 163.47 78.6692L197.97 77.1692C202.47 75.6692 208.97 70.1692 228.47 30.6692Z" stroke="black" stroke-width="0.5"/>
<path d="M170.47 30.1693C165.97 30.6693 162.47 30.6693 159.47 30.6693L164.97 8.16926C167.97 7.66919 170.97 7.66919 173.97 8.16926L170.47 30.1693Z" stroke="black" stroke-width="0.5"/>
<path d="M98.9697 32.1693C103.47 37.6693 110.47 34.1693 114.47 32.6693C115.47 17.1692 102.47 25.1692 98.9697 32.1693Z" stroke="black" stroke-width="0.5"/>
<path d="M234.468 9.66919L231.468 13.1692C248.468 18.6692 258.968 21.6692 271.468 28.1692H272.968L280.968 26.6692C265.968 20.1692 258.468 17.6692 234.468 9.66919Z" fill="#EDADBF" stroke="black" stroke-width="0.5"/>
<path d="M271.468 28.1692C260.968 22.6692 241.968 16.1692 231.468 13.1692L229.468 15.6692L244.468 23.1692C242.968 25.6692 238.968 27.6692 232.968 30.3692C244.968 29.6692 261.968 28.6692 271.468 28.1692Z" fill="#EDADBF" stroke="black" stroke-width="0.5"/>
<path d="M276.97 34.4692L282.968 32.1692L272.469 28.1692L228.469 30.6692C220.969 45.6692 205.969 76.1692 197.969 77.1692H212.469C210.969 66.1692 220.469 42.6692 245.47 51.6692C255.97 46.1692 265.97 40.6692 276.97 34.4692Z" fill="#EDADBF" stroke="black" stroke-width="0.5"/>
<path d="M277.968 34.1692C265.968 40.6692 255.968 46.1692 245.468 51.6692C249.968 54.6692 260.468 60.6692 259.468 79.6692L284.468 79.1692V77.6692C292.968 76.6692 301.468 80.1692 299.968 66.1692L301.968 56.1692C301.968 54.6692 299.468 50.6692 296.968 50.1692C298.468 47.6692 295.468 38.6692 295.468 38.6692V37.1692L291.468 34.1692L286.468 32.6692L282.968 32.1692L277.968 34.1692Z" fill="#EDADBF" stroke="black" stroke-width="0.5"/>
<path d="M280.968 26.6692L272.468 28.1692L282.968 32.1692C292.468 33.1692 291.467 34.6692 295.462 37.0894L294.968 28.6692L280.968 26.6692Z" fill="#EDADBF"/>
<path d="M295.468 37.1692L295.462 37.0894M295.462 37.0894L294.968 28.6692L280.968 26.6692L272.468 28.1692L282.968 32.1692C292.468 33.1692 291.467 34.6692 295.462 37.0894Z" stroke="black" stroke-width="0.5"/>
<path d="M293.97 36.6694C293.47 34.1693 282.47 33.9692 276.97 34.4692" stroke="black" stroke-width="0.5"/>
<path d="M299.97 66.6692L260.47 68.6692C259.97 63.6692 257.803 59.5025 255.97 57.6692L301.97 55.1692M300.47 52.6692C289.47 51.1692 278.47 46.3692 266.47 40.3692M228.47 30.6692L272.47 28.1692L280.97 26.6692" stroke="black" stroke-width="0.5"/>
<path d="M290.47 40.6692C290.47 38.6692 289.47 34.6692 285.97 32.6692C288.191 32.6692 291.567 33.7096 294.079 36.0792C294.542 37.6092 293.47 41.1692 290.428 42.6692C290.414 42.0789 290.47 41.3935 290.47 40.6692Z" fill="#EDADBF"/>
<path d="M272.47 43.1692C279.465 43.519 285.482 43.6241 290.863 44.1692M297.47 45.1692C295.367 44.7185 293.173 44.4033 290.863 44.1692M295.47 37.6692C295.052 37.0841 294.583 36.5548 294.079 36.0792M290.863 44.1692C290.537 43.8244 290.443 43.3014 290.428 42.6692M290.428 42.6692C290.414 42.0789 290.47 41.3935 290.47 40.6692C290.47 38.6692 289.47 34.6692 285.97 32.6692C288.191 32.6692 291.567 33.7096 294.079 36.0792M290.428 42.6692C293.47 41.1692 294.542 37.6092 294.079 36.0792" stroke="black" stroke-width="0.5"/>
<path d="M290.47 40.6692C285.97 40.6692 283.97 36.6692 282.97 34.1692" stroke="black" stroke-width="0.5"/>
<path d="M132.468 12.7692C118.968 16.7692 106.968 22.6692 92.9678 35.6692C99.9678 23.6692 115.468 14.1692 130.968 9.16919L132.468 12.7692Z" stroke="black" stroke-width="0.5"/>
<path d="M130.968 9.16919C110.968 14.8432 92.9678 32.1692 84.9678 30.1692C97.9678 20.6692 113.968 12.1692 130.468 7.66919L130.968 9.16919Z" stroke="black" stroke-width="0.5"/>
<path d="M9.96844 48.1692H3.96844C1.46777 52.1692 1.46777 62.1692 1.96844 65.6692C0.467773 66.6692 0.468371 71.1692 1.46844 72.6692L5.46844 73.1692V74.6692L1.46844 76.6692V78.6692C5.46844 79.6692 13.9684 81.6692 21.9684 81.1692V79.6692H39.4684C38.8018 71.1692 40.4684 60.6692 49.4684 53.6692C46.9684 49.6692 39.9684 45.1692 36.9684 44.6692C26.9684 43.6692 11.9684 46.1692 9.96844 48.1692Z" stroke="black" stroke-width="0.5"/>
<path d="M92.9697 35.6692C75.1364 36.5025 43.4697 41.3692 32.9697 44.3692L36.9697 44.6692C41.9697 46.1692 47.4697 50.5025 49.4697 53.6692C62.4688 44.1692 87.9688 51.1692 86.4688 78.6692H96.4688C89.4688 67.6692 90.4688 45.6692 92.9697 35.6692Z" stroke="black" stroke-width="0.5"/>
<path d="M9.96777 48.1692H3.96777C36.468 28.6691 58.468 34.6692 84.4678 30.1692L93.468 35.6692C76.468 36.6692 47.4678 40.1692 33.4678 44.3692C25.4678 44.1692 11.4678 46.1692 9.96777 48.1692Z" stroke="black" stroke-width="0.5"/>
<path d="M36.9692 44.6693C29.4692 43.6692 12.4692 45.6692 9.96923 48.1693C9.16923 50.5692 12.3026 53.5025 13.9692 54.6692C23.4692 56.1692 36.9692 50.1692 36.9692 44.6693Z" stroke="black" stroke-width="0.5"/>
<path d="M3.96847 48.1692C10.9685 49.1692 4.96847 59.6692 1.96847 64.6692C1.4684 57.6692 1.96826 52.1692 3.96847 48.1692Z" stroke="black" stroke-width="0.5"/>
<path d="M21.9678 84.1692V79.6692H39.4678L39.9678 84.1692H21.9678Z" stroke="black" stroke-width="0.5"/>
<path d="M2.46973 65.6692C3.96973 68.1692 5.96973 71.3359 5.46973 73.1692M21.9697 79.6692C11.4697 80.1692 6.96973 76.1692 7.96973 72.6692C8.46973 72.1692 9.96973 70.6692 10.9697 70.6692" stroke="black" stroke-width="0.5"/>
<path d="M5.96973 65.6693C8.21967 65.1692 11.0946 64.5443 13.8445 64.1693M13.8445 64.1693C16.5946 63.7943 19.2197 63.6693 20.9697 64.1693C23.9697 65.6693 29.4697 70.6692 31.9697 74.6692C26.9697 75.6692 19.9697 75.1692 15.4697 75.1692C12.7771 75.1692 11.4697 72.8359 11.4697 71.6692C10.9697 68.6692 12.2196 65.5026 13.8445 64.1693Z" stroke="black" stroke-width="0.5"/>
<path d="M11.4697 71.1693C19.4697 69.6693 22.9697 72.2978 25.9697 73.7978M12.9697 74.1693L30.4697 73.6693" stroke="black" stroke-width="0.5"/>
<path d="M21.9678 82.6692H31.4678C33.4678 82.6692 34.9678 80.6692 34.4678 79.6692M37.9678 79.6692V84.1692" stroke="black" stroke-width="0.5"/>
<path d="M21.9697 81.1694C17.4697 81.1694 12.9697 81.6694 1.46967 78.6694V76.6694L5.46967 74.6694V73.1694L1.46967 72.6694C0.96875 71.1692 -0.0310541 68.1692 1.96894 65.6692C1.46918 57.6692 1.96918 51.1692 3.96967 48.1689C36.4697 28.6693 58.4697 34.6694 84.4697 30.1694C162.47 -24.8307 244.47 12.1692 281.47 26.6694L294.97 28.6692L295.47 35.6692V38.6692C296.968 43.6692 298.303 48.1692 296.97 50.1692C299.47 51.1692 301.97 54.3359 301.97 56.1692L299.97 66.1692C300.422 77.0171 298.013 77.2414 288.682 77.5538C287.691 77.587 285.622 77.6212 284.47 77.6692V79.1692L259.47 79.6002M21.9697 81.1694V84.1694H39.968L39.4697 79.6694M21.9697 81.1694V79.6694H39.4697M39.4697 79.6694C36.4697 38.1694 89.9697 41.1694 86.4697 80.1694V82.6692H212.97C206.97 39.1692 261.47 39.1692 259.47 79.6002M258.968 79.6002H259.47" stroke="black"/>
</svg>
