<svg width="303" height="96" viewBox="0 0 303 96" fill="none" xmlns="http://www.w3.org/2000/svg">
<circle cx="62.6562" cy="74.2297" r="20.5" stroke="black"/>
<circle cx="235.656" cy="74.2297" r="20.5" stroke="black"/>
<path d="M132.654 12.7296L131.154 9.22959C171.154 1.2297 192.654 1.72974 231.654 13.2297L228.154 17.7297C208.154 9.72965 190.154 8.72964 174.154 8.22971C171.654 7.72971 167.654 7.72968 165.154 8.22959C155.154 8.22971 143.154 9.72971 132.654 12.7296Z" fill="#E0426F" stroke="black" stroke-width="0.5"/>
<path d="M131.154 9.22978L130.654 7.72978C166.654 -3.27026 199.154 0.72961 234.654 9.72978L231.654 13.2298C191.654 0.729736 165.654 2.22974 131.154 9.22978Z" fill="#E0426F" stroke="black" stroke-width="0.5"/>
<path d="M131.154 9.2296C182.654 -2.27042 211.154 7.72961 231.654 13.2296" stroke="black" stroke-width="0.5"/>
<path d="M170.656 30.2297L174.156 8.22974C207.656 9.22974 219.156 14.7297 223.656 16.2297L226.139 28.2297C199.149 28.2304 181.654 29.7298 170.656 30.2297Z" fill="#E0426F"/>
<path d="M226.656 30.7297L223.656 16.2297C219.156 14.7297 207.656 9.22974 174.156 8.22974L170.656 30.2297C181.656 29.7297 199.156 28.2297 226.156 28.2297" stroke="black" stroke-width="0.5"/>
<path d="M165.156 8.22974C132.156 9.22974 112.156 18.2297 93.1562 35.7297L95.6562 33.7297L159.656 30.7297L165.156 8.22974Z" fill="#E0426F" stroke="black" stroke-width="0.5"/>
<path d="M239.654 22.7297C235.988 20.0631 230.154 17.7297 223.654 16.2297L226.154 28.2297H232.654C235.654 26.7297 238.654 24.4985 239.654 22.7297Z" fill="#E0426F" stroke="black" stroke-width="0.5"/>
<path d="M96.6562 78.7297H163.656L198.156 77.2297H212.656L213.156 82.7297H199.156H98.1562H86.6562V78.7297H96.6562Z" fill="#E0426F"/>
<path d="M96.6562 78.7297H163.656L198.156 77.2297M96.6562 78.7297C96.6562 80.2297 97.1562 81.2297 98.1562 82.7297M96.6562 78.7297H86.6562V82.7297H98.1562M198.156 77.2297L199.156 82.7297M198.156 77.2297H212.656L213.156 82.7297H199.156M199.156 82.7297H98.1562" stroke="black" stroke-width="0.5"/>
<path d="M96.6554 78.7297C92.1562 74.2297 89.1563 52.2297 93.1554 35.7297L165.156 31.7297C161.156 36.7297 160.156 70.7297 163.656 78.7297H96.6554Z" fill="#E0426F" stroke="black" stroke-width="0.5"/>
<path d="M228.656 30.7297L165.156 31.7297C161.156 36.7297 160.156 70.7297 163.656 78.7297L198.156 77.2297C202.656 75.7297 209.156 70.2297 228.656 30.7297Z" fill="#E0426F" stroke="black" stroke-width="0.5"/>
<path d="M170.656 30.2298C166.156 30.7298 162.656 30.7298 159.656 30.7298L165.156 8.22981C168.156 7.72974 171.156 7.72974 174.156 8.22981L170.656 30.2298Z" fill="#E0426F" stroke="black" stroke-width="0.5"/>
<path d="M99.1562 32.2297C103.656 37.7297 110.656 34.2297 114.656 32.7297C115.656 17.2296 102.656 25.2296 99.1562 32.2297Z" fill="#E0426F" stroke="black" stroke-width="0.5"/>
<path d="M234.654 9.72974L231.654 13.2297C248.654 18.7297 259.154 21.7297 271.654 28.2297H273.154L281.154 26.7297C266.154 20.2297 258.654 17.7297 234.654 9.72974Z" fill="#E0426F" stroke="black" stroke-width="0.5"/>
<path d="M271.654 28.2297C261.154 22.7297 242.154 16.2297 231.654 13.2297L229.654 15.7297L244.654 23.2297C243.154 25.7297 239.154 27.7297 233.154 30.4297C245.154 29.7297 262.154 28.7297 271.654 28.2297Z" fill="#E0426F" stroke="black" stroke-width="0.5"/>
<path d="M277.156 34.5297L283.155 32.2297L272.655 28.2297L228.655 30.7297C221.155 45.7297 206.155 76.2297 198.155 77.2297H212.655C211.155 66.2297 220.655 42.7297 245.656 51.7297C256.156 46.2297 266.156 40.7297 277.156 34.5297Z" fill="#E0426F" stroke="black" stroke-width="0.5"/>
<path d="M278.154 34.2298C266.154 40.7298 256.154 46.2298 245.654 51.7298C250.154 54.7297 260.654 60.7297 259.654 79.7297L284.654 79.2297V77.7297C293.154 76.7297 301.654 80.2297 300.154 66.2297L302.154 56.2297C302.154 54.7297 299.654 50.7297 297.154 50.2297C298.654 47.7297 295.654 38.7297 295.654 38.7297V37.2297L291.654 34.2297L286.654 32.7297L283.154 32.2297L278.154 34.2298Z" fill="#E0426F" stroke="black" stroke-width="0.5"/>
<path d="M281.154 26.7297L272.654 28.2297L283.154 32.2297C292.654 33.2297 291.653 34.7297 295.648 37.1499L295.154 28.7297L281.154 26.7297Z" fill="#E0426F"/>
<path d="M295.654 37.2297L295.648 37.1499M295.648 37.1499L295.154 28.7297L281.154 26.7297L272.654 28.2297L283.154 32.2297C292.654 33.2297 291.653 34.7297 295.648 37.1499Z" stroke="black" stroke-width="0.5"/>
<path d="M294.156 36.7299C293.656 34.2298 282.656 34.0297 277.156 34.5297" stroke="black" stroke-width="0.5"/>
<path d="M300.156 66.7297L260.656 68.7297C260.156 63.7297 257.99 59.5631 256.156 57.7297L302.156 55.2297M300.656 52.7297C289.656 51.2297 278.656 46.4297 266.656 40.4297M228.656 30.7297L272.656 28.2297L281.156 26.7297" stroke="black" stroke-width="0.5"/>
<path d="M290.656 40.7297C290.656 38.7297 289.656 34.7297 286.156 32.7297C288.377 32.7297 291.754 33.7701 294.265 36.1397C294.729 37.6697 293.656 41.2297 290.614 42.7297C290.601 42.1395 290.656 41.454 290.656 40.7297Z" fill="#E0426F"/>
<path d="M272.656 43.2297C279.652 43.5795 285.669 43.6846 291.049 44.2297M297.656 45.2297C295.553 44.7791 293.36 44.4638 291.049 44.2297M295.656 37.7297C295.238 37.1446 294.769 36.6154 294.265 36.1397M291.049 44.2297C290.723 43.885 290.629 43.3619 290.614 42.7297M290.614 42.7297C290.601 42.1395 290.656 41.454 290.656 40.7297C290.656 38.7297 289.656 34.7297 286.156 32.7297C288.377 32.7297 291.754 33.7701 294.265 36.1397M290.614 42.7297C293.656 41.2297 294.729 37.6697 294.265 36.1397" stroke="black" stroke-width="0.5"/>
<path d="M290.656 40.7297C286.156 40.7297 284.156 36.7297 283.156 34.2297" stroke="black" stroke-width="0.5"/>
<path d="M132.654 12.8297C119.154 16.8297 107.154 22.7297 93.1543 35.7297C100.154 23.7297 115.654 14.2297 131.154 9.22974L132.654 12.8297Z" fill="#E0426F" stroke="black" stroke-width="0.5"/>
<path d="M131.154 9.22974C111.154 14.9038 93.1543 32.2297 85.1543 30.2297C98.1543 20.7297 114.154 12.2297 130.654 7.72974L131.154 9.22974Z" fill="#E0426F" stroke="black" stroke-width="0.5"/>
<path d="M10.155 48.2296H4.15496C1.6543 52.2296 1.6543 62.2296 2.15496 65.7296C0.654297 66.7296 0.654894 71.2296 1.65496 72.7296L5.65496 73.2296V74.7296L1.65496 76.7296V78.7296C5.65496 79.7296 14.155 81.7296 22.155 81.2296V79.7296H39.655C38.9883 71.2296 40.655 60.7296 49.655 53.7296C47.155 49.7296 40.155 45.2296 37.155 44.7296C27.155 43.7296 12.155 46.2296 10.155 48.2296Z" fill="#E0426F" stroke="black" stroke-width="0.5"/>
<path d="M93.1562 35.7297C75.3229 36.5631 43.6562 41.4297 33.1562 44.4297L37.1562 44.7297C42.1562 46.2297 47.6562 50.5631 49.6562 53.7297C62.6553 44.2297 88.1553 51.2297 86.6553 78.7297H96.6553C89.6553 67.7297 90.6553 45.7297 93.1562 35.7297Z" fill="#E0426F" stroke="black" stroke-width="0.5"/>
<path d="M10.1543 48.2298H4.1543C36.6545 28.7297 58.6545 34.7297 84.6543 30.2297L93.6545 35.7297C76.6545 36.7297 47.6543 40.2297 33.6543 44.4297C25.6543 44.2297 11.6543 46.2297 10.1543 48.2298Z" fill="#E0426F" stroke="black" stroke-width="0.5"/>
<path d="M37.1558 44.7298C29.6558 43.7297 12.6558 45.7297 10.1558 48.2298C9.35575 50.6298 12.4891 53.5631 14.1558 54.7297C23.6558 56.2297 37.1558 50.2297 37.1558 44.7298Z" fill="#E0426F" stroke="black" stroke-width="0.5"/>
<path d="M4.15499 48.2297C11.155 49.2297 5.15499 59.7297 2.15499 64.7297C1.65492 57.7297 2.15479 52.2297 4.15499 48.2297Z" fill="#E0426F" stroke="black" stroke-width="0.5"/>
<path d="M22.1543 84.2297V79.7297H39.6543L40.1543 84.2297H22.1543Z" fill="#E0426F" stroke="black" stroke-width="0.5"/>
<path d="M2.65625 65.7295C4.15625 68.2295 6.15625 71.3962 5.65625 73.2295M22.1562 79.7295C11.6562 80.2295 7.15625 76.2295 8.15625 72.7295C8.65625 72.2295 10.1562 70.7295 11.1562 70.7295" stroke="black" stroke-width="0.5"/>
<path d="M32.1562 74.7296C29.6562 70.7296 24.1562 65.7297 21.1562 64.2297C19.4062 63.7297 16.7811 63.8547 14.031 64.2297C12.4061 65.563 11.1562 68.7296 11.6562 71.7296C11.6562 72.8963 12.9637 75.2296 15.6562 75.2296C20.1562 75.2296 27.1562 75.7296 32.1562 74.7296Z" fill="#E0426F"/>
<path d="M6.15625 65.7297C8.40619 65.2297 11.2811 64.6047 14.031 64.2297M14.031 64.2297C16.7811 63.8547 19.4062 63.7297 21.1562 64.2297C24.1562 65.7297 29.6562 70.7296 32.1562 74.7296C27.1562 75.7296 20.1562 75.2296 15.6562 75.2296C12.9637 75.2296 11.6562 72.8963 11.6562 71.7296C11.1562 68.7296 12.4061 65.563 14.031 64.2297Z" stroke="black" stroke-width="0.5"/>
<path d="M11.6562 71.2297C19.6562 69.7297 23.1562 72.3582 26.1562 73.8582M13.1562 74.2297L30.6562 73.7297" stroke="black" stroke-width="0.5"/>
<path d="M22.1543 82.7295H31.6543C33.6543 82.7295 35.1543 80.7295 34.6543 79.7295M38.1543 79.7295V84.2295" stroke="black" stroke-width="0.5"/>
<path d="M22.1562 81.23C17.6562 81.23 13.1562 81.73 1.6562 78.73V76.73L5.6562 74.73V73.23L1.6562 72.73C1.15527 71.2297 0.155469 68.2297 2.15546 65.7297C1.65571 57.7297 2.15571 51.2297 4.1562 48.2295C36.6562 28.7299 58.6562 34.7299 84.6562 30.2299C162.656 -24.7702 244.656 12.2297 281.656 26.7299L295.156 28.7297L295.656 35.7297V38.7297C297.155 43.7297 298.49 48.2297 297.156 50.2297C299.656 51.2297 302.156 54.3964 302.156 56.2297L300.156 66.2297C300.608 77.0776 298.2 77.3019 288.868 77.6144C287.877 77.6476 285.808 77.6817 284.656 77.7297V79.2297L259.656 79.6608M22.1562 81.23V84.23H40.1545L39.6562 79.73M22.1562 81.23V79.73H39.6562M39.6562 79.73C36.6562 38.23 90.1562 41.23 86.6562 80.23V82.7297H213.156C207.156 39.2297 261.656 39.2297 259.656 79.6608M259.155 79.6608H259.656" stroke="black"/>
</svg>
