<svg width="303" height="96" viewBox="0 0 303 96" fill="none" xmlns="http://www.w3.org/2000/svg">
<circle cx="62.2607" cy="74.0303" r="20.5" fill="#E56E90" stroke="black"/>
<circle cx="235.261" cy="74.0303" r="20.5" fill="#E56E90" stroke="black"/>
<path d="M132.259 12.5301L130.759 9.03013C170.759 1.03024 192.259 1.53027 231.259 13.0302L227.759 17.5302C207.759 9.53018 189.759 8.53018 173.759 8.03025C171.259 7.53025 167.259 7.53021 164.759 8.03013C154.759 8.03025 142.759 9.53025 132.259 12.5301Z" fill="#EDADBF" stroke="black" stroke-width="0.5"/>
<path d="M130.759 9.03032L130.259 7.53032C166.259 -3.46973 198.759 0.530148 234.259 9.53032L231.259 13.0303C191.259 0.530273 165.259 2.03027 130.759 9.03032Z" fill="#EDADBF" stroke="black" stroke-width="0.5"/>
<path d="M130.759 9.03038C182.259 -2.46964 210.759 7.5304 231.259 13.0304" stroke="black" stroke-width="0.5"/>
<path d="M170.261 30.0303L173.761 8.03027C207.261 9.03027 218.761 14.5303 223.261 16.0303L225.743 28.0303C198.753 28.0309 181.258 29.5304 170.261 30.0303Z" fill="#EDADBF"/>
<path d="M226.261 30.5303L223.261 16.0303C218.761 14.5303 207.261 9.03027 173.761 8.03027L170.261 30.0303C181.261 29.5303 198.761 28.0303 225.761 28.0303" stroke="black" stroke-width="0.5"/>
<path d="M164.761 8.03027C131.761 9.03027 111.761 18.0303 92.7607 35.5303L95.2607 33.5303L159.261 30.5303L164.761 8.03027Z" fill="#EDADBF" stroke="black" stroke-width="0.5"/>
<path d="M239.259 22.5303C235.592 19.8636 229.759 17.5303 223.259 16.0303L225.759 28.0303H232.259C235.259 26.5303 238.259 24.299 239.259 22.5303Z" fill="#EDADBF" stroke="black" stroke-width="0.5"/>
<path d="M96.2607 78.5303H163.261L197.761 77.0303H212.261L212.761 82.5303H198.761H97.7607H86.2607V78.5303H96.2607Z" fill="#EDADBF"/>
<path d="M96.2607 78.5303H163.261L197.761 77.0303M96.2607 78.5303C96.2607 80.0303 96.7607 81.0303 97.7607 82.5303M96.2607 78.5303H86.2607V82.5303H97.7607M197.761 77.0303L198.761 82.5303M197.761 77.0303H212.261L212.761 82.5303H198.761M198.761 82.5303H97.7607" stroke="black" stroke-width="0.5"/>
<path d="M96.2599 78.5303C91.7607 74.0303 88.7608 52.0303 92.7599 35.5303L164.761 31.5303C160.761 36.5303 159.761 70.5303 163.261 78.5303H96.2599Z" fill="#EDADBF" stroke="black" stroke-width="0.5"/>
<path d="M228.261 30.5303L164.761 31.5303C160.761 36.5303 159.761 70.5303 163.261 78.5303L197.761 77.0303C202.261 75.5303 208.761 70.0303 228.261 30.5303Z" fill="#EDADBF" stroke="black" stroke-width="0.5"/>
<path d="M170.261 30.0303C165.761 30.5303 162.261 30.5303 159.261 30.5303L164.761 8.03035C167.761 7.53027 170.761 7.53027 173.761 8.03035L170.261 30.0303Z" fill="#EDADBF" stroke="black" stroke-width="0.5"/>
<path d="M98.7607 32.0305C103.261 37.5305 110.261 34.0305 114.261 32.5305C115.261 17.0304 102.261 25.0304 98.7607 32.0305Z" fill="#EDADBF" stroke="black" stroke-width="0.5"/>
<path d="M234.259 9.53027L231.259 13.0303C248.259 18.5303 258.759 21.5303 271.259 28.0303H272.759L280.759 26.5303C265.759 20.0303 258.259 17.5303 234.259 9.53027Z" fill="#E56E90" stroke="black" stroke-width="0.5"/>
<path d="M271.259 28.0303C260.759 22.5303 241.759 16.0303 231.259 13.0303L229.259 15.5303L244.259 23.0303C242.759 25.5303 238.759 27.5303 232.759 30.2303C244.759 29.5303 261.759 28.5303 271.259 28.0303Z" fill="#E56E90" stroke="black" stroke-width="0.5"/>
<path d="M276.761 34.3303L282.759 32.0303L272.26 28.0303L228.26 30.5303C220.76 45.5303 205.76 76.0303 197.76 77.0303H212.26C210.76 66.0303 220.26 42.5303 245.261 51.5303C255.761 46.0303 265.761 40.5303 276.761 34.3303Z" fill="#E56E90" stroke="black" stroke-width="0.5"/>
<path d="M277.759 34.0303C265.759 40.5303 255.759 46.0303 245.259 51.5303C249.759 54.5303 260.259 60.5303 259.259 79.5303L284.259 79.0303V77.5303C292.759 76.5303 301.259 80.0303 299.759 66.0303L301.759 56.0303C301.759 54.5303 299.259 50.5303 296.759 50.0303C298.259 47.5303 295.259 38.5303 295.259 38.5303V37.0303L291.259 34.0303L286.259 32.5303L282.759 32.0303L277.759 34.0303Z" fill="#E56E90" stroke="black" stroke-width="0.5"/>
<path d="M280.759 26.5303L272.259 28.0303L282.759 32.0303C292.259 33.0303 291.258 34.5303 295.253 36.9505L294.759 28.5303L280.759 26.5303Z" fill="#E56E90"/>
<path d="M295.259 37.0303L295.253 36.9505M295.253 36.9505L294.759 28.5303L280.759 26.5303L272.259 28.0303L282.759 32.0303C292.259 33.0303 291.258 34.5303 295.253 36.9505Z" stroke="black" stroke-width="0.5"/>
<path d="M293.761 36.5305C293.261 34.0304 282.261 33.8303 276.761 34.3303" stroke="black" stroke-width="0.5"/>
<path d="M299.761 66.5303L260.261 68.5303C259.761 63.5303 257.594 59.3636 255.761 57.5303L301.761 55.0303M300.261 52.5303C289.261 51.0303 278.261 46.2303 266.261 40.2303M228.261 30.5303L272.261 28.0303L280.761 26.5303" stroke="black" stroke-width="0.5"/>
<path d="M290.261 40.5303C290.261 38.5303 289.261 34.5303 285.761 32.5303C287.982 32.5303 291.358 33.5707 293.87 35.9403C294.333 37.4703 293.261 41.0303 290.219 42.5303C290.205 41.94 290.261 41.2546 290.261 40.5303Z" fill="#E56E90"/>
<path d="M272.261 43.0303C279.256 43.3801 285.273 43.4851 290.654 44.0303M297.261 45.0303C295.158 44.5796 292.964 44.2644 290.654 44.0303M295.261 37.5303C294.843 36.9451 294.374 36.4159 293.87 35.9403M290.654 44.0303C290.328 43.6855 290.234 43.1625 290.219 42.5303M290.219 42.5303C290.205 41.94 290.261 41.2546 290.261 40.5303C290.261 38.5303 289.261 34.5303 285.761 32.5303C287.982 32.5303 291.358 33.5707 293.87 35.9403M290.219 42.5303C293.261 41.0303 294.333 37.4703 293.87 35.9403" stroke="black" stroke-width="0.5"/>
<path d="M290.261 40.5303C285.761 40.5303 283.761 36.5303 282.761 34.0303" stroke="black" stroke-width="0.5"/>
<path d="M132.259 12.6302C118.759 16.6302 106.759 22.5303 92.7588 35.5303C99.7588 23.5303 115.259 14.0303 130.759 9.03027L132.259 12.6302Z" fill="#EFC7D3" stroke="black" stroke-width="0.5"/>
<path d="M130.759 9.03027C110.759 14.7043 92.7588 32.0303 84.7588 30.0303C97.7588 20.5303 113.759 12.0303 130.259 7.53027L130.759 9.03027Z" fill="#EFC7D3" stroke="black" stroke-width="0.5"/>
<path d="M9.75946 48.0302H3.75946C1.25879 52.0302 1.25879 62.0302 1.75946 65.5302C0.258789 66.5302 0.259387 71.0302 1.25946 72.5302L5.25946 73.0302V74.5302L1.25946 76.5302V78.5302C5.25946 79.5302 13.7595 81.5302 21.7595 81.0302V79.5302H39.2595C38.5928 71.0302 40.2595 60.5302 49.2595 53.5302C46.7595 49.5302 39.7595 45.0302 36.7595 44.5302C26.7595 43.5302 11.7595 46.0302 9.75946 48.0302Z" fill="#EFC7D3" stroke="black" stroke-width="0.5"/>
<path d="M92.7607 35.5303C74.9274 36.3636 43.2607 41.2303 32.7607 44.2303L36.7607 44.5303C41.7607 46.0303 47.2607 50.3636 49.2607 53.5303C62.2598 44.0303 87.7598 51.0303 86.2598 78.5303H96.2598C89.2598 67.5303 90.2598 45.5303 92.7607 35.5303Z" fill="#EFC7D3" stroke="black" stroke-width="0.5"/>
<path d="M9.75879 48.0303H3.75879C36.259 28.5302 58.259 34.5303 84.2588 30.0303L93.259 35.5303C76.259 36.5303 47.2588 40.0303 33.2588 44.2303C25.2588 44.0303 11.2588 46.0303 9.75879 48.0303Z" fill="#EFC7D3" stroke="black" stroke-width="0.5"/>
<path d="M36.7602 44.5303C29.2602 43.5303 12.2602 45.5303 9.76024 48.0303C8.96024 50.4303 12.0936 53.3636 13.7602 54.5303C23.2603 56.0303 36.7602 50.0303 36.7602 44.5303Z" fill="#EFC7D3" stroke="black" stroke-width="0.5"/>
<path d="M3.75948 48.0303C10.7595 49.0303 4.75948 59.5303 1.75948 64.5303C1.25941 57.5303 1.75928 52.0303 3.75948 48.0303Z" fill="#EFC7D3" stroke="black" stroke-width="0.5"/>
<path d="M21.7588 84.0303V79.5303H39.2588L39.7588 84.0303H21.7588Z" fill="#EFC7D3" stroke="black" stroke-width="0.5"/>
<path d="M2.26074 65.5303C3.76074 68.0303 5.76074 71.1969 5.26074 73.0303M21.7607 79.5303C11.2607 80.0303 6.76074 76.0303 7.76074 72.5303C8.26074 72.0303 9.76074 70.5303 10.7607 70.5303" stroke="black" stroke-width="0.5"/>
<path d="M31.7607 74.5304C29.2607 70.5304 23.7607 65.5305 20.7607 64.0305C19.0107 63.5305 16.3856 63.6555 13.6355 64.0305C12.0106 65.3638 10.7607 68.5304 11.2607 71.5304C11.2607 72.6971 12.5682 75.0304 15.2607 75.0304C19.7607 75.0304 26.7607 75.5304 31.7607 74.5304Z" fill="#EFC7D3"/>
<path d="M5.76074 65.5305C8.01068 65.0304 10.8856 64.4055 13.6355 64.0305M13.6355 64.0305C16.3856 63.6555 19.0107 63.5305 20.7607 64.0305C23.7607 65.5305 29.2607 70.5304 31.7607 74.5304C26.7607 75.5304 19.7607 75.0304 15.2607 75.0304C12.5682 75.0304 11.2607 72.6971 11.2607 71.5304C10.7607 68.5304 12.0106 65.3638 13.6355 64.0305Z" stroke="black" stroke-width="0.5"/>
<path d="M11.2607 71.0305C19.2607 69.5305 22.7607 72.159 25.7607 73.659M12.7607 74.0305L30.2607 73.5305" stroke="black" stroke-width="0.5"/>
<path d="M21.7588 82.5303H31.2588C33.2588 82.5303 34.7588 80.5303 34.2588 79.5303M37.7588 79.5303V84.0303" stroke="black" stroke-width="0.5"/>
<path d="M21.7607 81.0305C17.2607 81.0305 12.7607 81.5305 1.26069 78.5305V76.5305L5.26069 74.5305V73.0305L1.26069 72.5305C0.759766 71.0303 -0.240039 68.0303 1.75996 65.5303C1.2602 57.5303 1.7602 51.0303 3.76069 48.03C36.2607 28.5304 58.2607 34.5305 84.2607 30.0305C162.261 -24.9697 244.261 12.0303 281.261 26.5305L294.761 28.5303L295.261 35.5303V38.5303C296.759 43.5303 298.094 48.0303 296.761 50.0303C299.261 51.0303 301.761 54.1969 301.761 56.0303L299.761 66.0303C300.213 76.8782 297.805 77.1025 288.473 77.4149C287.482 77.4481 285.413 77.4823 284.261 77.5303V79.0303L259.261 79.4613M21.7607 81.0305V84.0305H39.759L39.2607 79.5305M21.7607 81.0305V79.5305H39.2607M39.2607 79.5305C36.2607 38.0305 89.7607 41.0305 86.2607 80.0305V82.5303H212.761C206.761 39.0303 261.261 39.0303 259.261 79.4613M258.759 79.4613H259.261" stroke="black"/>
</svg>
