<svg width="304" height="96" viewBox="0 0 304 96" fill="none" xmlns="http://www.w3.org/2000/svg">
<circle cx="63.0742" cy="74.3384" r="20.5" fill="#EDADBF" stroke="black"/>
<circle cx="236.074" cy="74.3384" r="20.5" fill="#EDADBF" stroke="black"/>
<path d="M133.072 12.8382L131.572 9.33823C171.572 1.33835 193.072 1.83838 232.072 13.3383L228.572 17.8383C208.572 9.83829 190.572 8.83829 174.572 8.33836C172.072 7.83836 168.072 7.83832 165.572 8.33823C155.572 8.33836 143.572 9.83836 133.072 12.8382Z" stroke="black" stroke-width="0.5"/>
<path d="M131.572 9.33842L131.072 7.83842C167.072 -3.16162 199.572 0.838253 235.072 9.83842L232.072 13.3384C192.072 0.838379 166.072 2.33838 131.572 9.33842Z" stroke="black" stroke-width="0.5"/>
<path d="M131.572 9.33837C183.072 -2.16166 211.572 7.83838 232.072 13.3384" stroke="black" stroke-width="0.5"/>
<path d="M227.074 30.8384L224.074 16.3384C219.574 14.8384 208.074 9.33838 174.574 8.33838L171.074 30.3384C182.074 29.8384 199.574 28.3384 226.574 28.3384" stroke="black" stroke-width="0.5"/>
<path d="M165.574 8.33838C132.574 9.33838 112.574 18.3384 93.5742 35.8384L96.0742 33.8384L160.074 30.8384L165.574 8.33838Z" stroke="black" stroke-width="0.5"/>
<path d="M240.072 22.8384C236.406 20.1717 230.572 17.8384 224.072 16.3384L226.572 28.3384H233.072C236.072 26.8384 239.072 24.6071 240.072 22.8384Z" stroke="black" stroke-width="0.5"/>
<path d="M97.0742 78.8384H164.074L198.574 77.3384M97.0742 78.8384C97.0742 80.3384 97.5742 81.3384 98.5742 82.8384M97.0742 78.8384H87.0742V82.8384H98.5742M198.574 77.3384L199.574 82.8384M198.574 77.3384H213.074L213.574 82.8384H199.574M199.574 82.8384H98.5742" stroke="black" stroke-width="0.5"/>
<path d="M97.0733 78.8384C92.5742 74.3384 89.5743 52.3384 93.5733 35.8384L165.574 31.8384C161.574 36.8384 160.574 70.8384 164.074 78.8384H97.0733Z" stroke="black" stroke-width="0.5"/>
<path d="M229.074 30.8384L165.574 31.8384C161.574 36.8384 160.574 70.8384 164.074 78.8384L198.574 77.3384C203.074 75.8384 209.574 70.3384 229.074 30.8384Z" stroke="black" stroke-width="0.5"/>
<path d="M171.074 30.3385C166.574 30.8385 163.074 30.8385 160.074 30.8385L165.574 8.33845C168.574 7.83838 171.574 7.83838 174.574 8.33845L171.074 30.3385Z" stroke="black" stroke-width="0.5"/>
<path d="M99.5742 32.3385C104.074 37.8385 111.074 34.3385 115.074 32.8385C116.074 17.3384 103.074 25.3384 99.5742 32.3385Z" stroke="black" stroke-width="0.5"/>
<path d="M235.072 9.83838L232.072 13.3384C249.072 18.8384 259.572 21.8384 272.072 28.3384H273.572L281.572 26.8384C266.572 20.3384 259.072 17.8384 235.072 9.83838Z" fill="#EDADBF" stroke="black" stroke-width="0.5"/>
<path d="M272.072 28.3384C261.572 22.8384 242.572 16.3384 232.072 13.3384L230.072 15.8384L245.072 23.3384C243.572 25.8384 239.572 27.8384 233.572 30.5384C245.572 29.8384 262.572 28.8384 272.072 28.3384Z" fill="#EDADBF" stroke="black" stroke-width="0.5"/>
<path d="M277.574 34.6384L283.573 32.3384L273.073 28.3384L229.073 30.8384C221.573 45.8384 206.573 76.3384 198.573 77.3384H213.073C211.573 66.3384 221.073 42.8384 246.074 51.8384C256.574 46.3384 266.574 40.8384 277.574 34.6384Z" fill="#EDADBF" stroke="black" stroke-width="0.5"/>
<path d="M278.572 34.3384C266.572 40.8384 256.572 46.3384 246.072 51.8384C250.572 54.8384 261.072 60.8384 260.072 79.8384L285.072 79.3384V77.8384C293.572 76.8384 302.072 80.3384 300.572 66.3384L302.572 56.3384C302.572 54.8384 300.072 50.8384 297.572 50.3384C299.072 47.8384 296.072 38.8384 296.072 38.8384V37.3384L292.072 34.3384L287.072 32.8384L283.572 32.3384L278.572 34.3384Z" fill="#EDADBF" stroke="black" stroke-width="0.5"/>
<path d="M281.572 26.8384L273.072 28.3384L283.572 32.3384C293.072 33.3384 292.071 34.8384 296.066 37.2586L295.572 28.8384L281.572 26.8384Z" fill="#EDADBF"/>
<path d="M296.072 37.3384L296.066 37.2586M296.066 37.2586L295.572 28.8384L281.572 26.8384L273.072 28.3384L283.572 32.3384C293.072 33.3384 292.071 34.8384 296.066 37.2586Z" stroke="black" stroke-width="0.5"/>
<path d="M294.574 36.8386C294.074 34.3385 283.074 34.1384 277.574 34.6384" stroke="black" stroke-width="0.5"/>
<path d="M300.574 66.8384L261.074 68.8384C260.574 63.8384 258.408 59.6717 256.574 57.8384L302.574 55.3384M301.074 52.8384C290.074 51.3384 279.074 46.5384 267.074 40.5384M229.074 30.8384L273.074 28.3384L281.574 26.8384" stroke="black" stroke-width="0.5"/>
<path d="M291.074 40.8384C291.074 38.8384 290.074 34.8384 286.574 32.8384C288.795 32.8384 292.172 33.8788 294.683 36.2484C295.147 37.7784 294.074 41.3384 291.032 42.8384C291.019 42.2481 291.074 41.5627 291.074 40.8384Z" fill="#EDADBF"/>
<path d="M273.074 43.3384C280.07 43.6882 286.087 43.7933 291.467 44.3384M298.074 45.3384C295.971 44.8877 293.778 44.5725 291.467 44.3384M296.074 37.8384C295.656 37.2533 295.187 36.724 294.683 36.2484M291.467 44.3384C291.141 43.9936 291.047 43.4706 291.032 42.8384M291.032 42.8384C291.019 42.2481 291.074 41.5627 291.074 40.8384C291.074 38.8384 290.074 34.8384 286.574 32.8384C288.795 32.8384 292.172 33.8788 294.683 36.2484M291.032 42.8384C294.074 41.3384 295.147 37.7784 294.683 36.2484" stroke="black" stroke-width="0.5"/>
<path d="M291.074 40.8384C286.574 40.8384 284.574 36.8384 283.574 34.3384" stroke="black" stroke-width="0.5"/>
<path d="M133.072 12.9384C119.572 16.9384 107.572 22.8384 93.5723 35.8384C100.572 23.8384 116.072 14.3384 131.572 9.33838L133.072 12.9384Z" fill="#EFC7D3" stroke="black" stroke-width="0.5"/>
<path d="M131.572 9.33838C111.572 15.0124 93.5723 32.3384 85.5723 30.3384C98.5723 20.8384 114.572 12.3384 131.072 7.83838L131.572 9.33838Z" fill="#EFC7D3" stroke="black" stroke-width="0.5"/>
<path d="M10.5729 48.3384H4.57293C2.07227 52.3384 2.07227 62.3384 2.57293 65.8384C1.07227 66.8384 1.07286 71.3384 2.07293 72.8384L6.07293 73.3384V74.8384L2.07293 76.8384V78.8384C6.07293 79.8384 14.5729 81.8384 22.5729 81.3384V79.8384H40.0729C39.4063 71.3384 41.0729 60.8384 50.0729 53.8384C47.5729 49.8384 40.5729 45.3384 37.5729 44.8384C27.5729 43.8384 12.5729 46.3384 10.5729 48.3384Z" fill="#EFC7D3" stroke="black" stroke-width="0.5"/>
<path d="M93.5742 35.8384C75.7409 36.6717 44.0742 41.5384 33.5742 44.5384L37.5742 44.8384C42.5742 46.3384 48.0742 50.6717 50.0742 53.8384C63.0732 44.3384 88.5732 51.3384 87.0732 78.8384H97.0732C90.0732 67.8384 91.0732 45.8384 93.5742 35.8384Z" fill="#EFC7D3" stroke="black" stroke-width="0.5"/>
<path d="M10.5723 48.3384H4.57227C37.0724 28.8383 59.0725 34.8384 85.0723 30.3384L94.0725 35.8384C77.0725 36.8384 48.0723 40.3384 34.0723 44.5384C26.0723 44.3384 12.0723 46.3384 10.5723 48.3384Z" fill="#EFC7D3" stroke="black" stroke-width="0.5"/>
<path d="M37.5737 44.8385C30.0737 43.8384 13.0737 45.8384 10.5737 48.3385C9.77372 50.7384 12.9071 53.6717 14.5737 54.8384C24.0737 56.3384 37.5737 50.3384 37.5737 44.8385Z" fill="#EFC7D3" stroke="black" stroke-width="0.5"/>
<path d="M4.57296 48.3384C11.573 49.3384 5.57296 59.8384 2.57296 64.8384C2.07289 57.8384 2.57275 52.3384 4.57296 48.3384Z" fill="#EFC7D3" stroke="black" stroke-width="0.5"/>
<path d="M22.5723 84.3384V79.8384H40.0723L40.5723 84.3384H22.5723Z" fill="#EFC7D3" stroke="black" stroke-width="0.5"/>
<path d="M3.07422 65.8384C4.57422 68.3384 6.57422 71.505 6.07422 73.3384M22.5742 79.8384C12.0742 80.3384 7.57422 76.3384 8.57422 72.8384C9.07422 72.3384 10.5742 70.8384 11.5742 70.8384" stroke="black" stroke-width="0.5"/>
<path d="M32.5742 74.8384C30.0742 70.8384 24.5742 65.8385 21.5742 64.3385C19.8242 63.8384 17.1991 63.9634 14.449 64.3385C12.8241 65.6718 11.5742 68.8384 12.0742 71.8384C12.0742 73.005 13.3816 75.3384 16.0742 75.3384C20.5742 75.3384 27.5742 75.8384 32.5742 74.8384Z" fill="#EFC7D3"/>
<path d="M6.57422 65.8385C8.82416 65.3384 11.6991 64.7135 14.449 64.3385M14.449 64.3385C17.1991 63.9634 19.8242 63.8384 21.5742 64.3385C24.5742 65.8385 30.0742 70.8384 32.5742 74.8384C27.5742 75.8384 20.5742 75.3384 16.0742 75.3384C13.3816 75.3384 12.0742 73.005 12.0742 71.8384C11.5742 68.8384 12.8241 65.6718 14.449 64.3385Z" stroke="black" stroke-width="0.5"/>
<path d="M12.0742 71.3385C20.0742 69.8385 23.5742 72.467 26.5742 73.967M13.5742 74.3385L31.0742 73.8385" stroke="black" stroke-width="0.5"/>
<path d="M22.5723 82.8384H32.0723C34.0723 82.8384 35.5723 80.8384 35.0723 79.8384M38.5723 79.8384V84.3384" stroke="black" stroke-width="0.5"/>
<path d="M22.5742 81.3386C18.0742 81.3386 13.5742 81.8386 2.07416 78.8386V76.8386L6.07417 74.8386V73.3386L2.07416 72.8386C1.57324 71.3384 0.573438 68.3384 2.57343 65.8384C2.07368 57.8384 2.57368 51.3384 4.57417 48.3381C37.0742 28.8385 59.0742 34.8386 85.0742 30.3386C163.074 -24.6615 245.074 12.3384 282.074 26.8386L295.574 28.8384L296.074 35.8384V38.8384C297.573 43.8384 298.908 48.3384 297.574 50.3384C300.074 51.3384 302.574 54.505 302.574 56.3384L300.574 66.3384C301.026 77.1863 298.618 77.4106 289.286 77.723C288.295 77.7562 286.226 77.7904 285.074 77.8384V79.3384L260.074 79.7694M22.5742 81.3386V84.3386H40.5725L40.0742 79.8386M22.5742 81.3386V79.8386H40.0742M40.0742 79.8386C37.0742 38.3386 90.5742 41.3386 87.0742 80.3386V82.8384H213.574C207.574 39.3384 262.074 39.3384 260.074 79.7694M259.573 79.7694H260.074" stroke="black"/>
</svg>
