<svg width="303" height="95" viewBox="0 0 303 95" fill="none" xmlns="http://www.w3.org/2000/svg">
<circle cx="62.4473" cy="73.7222" r="20.5" fill="#E0426F" stroke="black"/>
<circle cx="235.447" cy="73.7222" r="20.5" fill="#E0426F" stroke="black"/>
<path d="M132.445 12.222L130.945 8.72202C170.945 0.722136 192.445 1.22217 231.445 12.7221L227.945 17.2221C207.945 9.22208 189.945 8.22208 173.945 7.72215C171.445 7.22215 167.445 7.22211 164.945 7.72202C154.945 7.72215 142.945 9.22215 132.445 12.222Z" fill="#E0426F" stroke="black" stroke-width="0.5"/>
<path d="M130.945 8.72221L130.445 7.22221C166.445 -3.77783 198.945 0.222042 234.445 9.22221L231.445 12.7222C191.445 0.222168 165.445 1.72217 130.945 8.72221Z" fill="#E0426F" stroke="black" stroke-width="0.5"/>
<path d="M130.945 8.72228C182.445 -2.77775 210.945 7.22229 231.445 12.7223" stroke="black" stroke-width="0.5"/>
<path d="M170.447 29.7222L173.947 7.72217C207.447 8.72217 218.947 14.2222 223.447 15.7222L225.93 27.7222C198.94 27.7228 181.445 29.2223 170.447 29.7222Z" fill="#E0426F"/>
<path d="M226.447 30.2222L223.447 15.7222C218.947 14.2222 207.447 8.72217 173.947 7.72217L170.447 29.7222C181.447 29.2222 198.947 27.7222 225.947 27.7222" stroke="black" stroke-width="0.5"/>
<path d="M164.947 7.72217C131.947 8.72217 111.947 17.7222 92.9473 35.2222L95.4473 33.2222L159.447 30.2222L164.947 7.72217Z" fill="#E0426F" stroke="black" stroke-width="0.5"/>
<path d="M239.445 22.2222C235.779 19.5555 229.945 17.2222 223.445 15.7222L225.945 27.7222H232.445C235.445 26.2222 238.445 23.9909 239.445 22.2222Z" fill="#E0426F" stroke="black" stroke-width="0.5"/>
<path d="M96.4473 78.2222H163.447L197.947 76.7222H212.447L212.947 82.2222H198.947H97.9473H86.4473V78.2222H96.4473Z" fill="#E0426F"/>
<path d="M96.4473 78.2222H163.447L197.947 76.7222M96.4473 78.2222C96.4473 79.7222 96.9473 80.7222 97.9473 82.2222M96.4473 78.2222H86.4473V82.2222H97.9473M197.947 76.7222L198.947 82.2222M197.947 76.7222H212.447L212.947 82.2222H198.947M198.947 82.2222H97.9473" stroke="black" stroke-width="0.5"/>
<path d="M96.4464 78.2222C91.9473 73.7222 88.9473 51.7222 92.9464 35.2222L164.947 31.2222C160.947 36.2222 159.947 70.2222 163.447 78.2222H96.4464Z" fill="#E0426F" stroke="black" stroke-width="0.5"/>
<path d="M228.447 30.2222L164.947 31.2222C160.947 36.2222 159.948 70.2222 163.447 78.2222L197.947 76.7222C202.447 75.2222 208.947 69.7222 228.447 30.2222Z" fill="#E0426F" stroke="black" stroke-width="0.5"/>
<path d="M170.447 29.7222C165.947 30.2222 162.447 30.2222 159.447 30.2222L164.947 7.72224C167.947 7.22217 170.947 7.22217 173.947 7.72224L170.447 29.7222Z" fill="#E0426F" stroke="black" stroke-width="0.5"/>
<path d="M98.9473 31.7224C103.447 37.2224 110.447 33.7224 114.447 32.2224C115.447 16.7223 102.447 24.7223 98.9473 31.7224Z" fill="#E0426F" stroke="black" stroke-width="0.5"/>
<path d="M234.445 9.22217L231.445 12.7222C248.445 18.2222 258.945 21.2222 271.445 27.7222H272.945L280.945 26.2222C265.945 19.7222 258.445 17.2222 234.445 9.22217Z" fill="#E0426F" stroke="black" stroke-width="0.5"/>
<path d="M271.445 27.7222C260.945 22.2222 241.945 15.7222 231.445 12.7222L229.445 15.2222L244.445 22.7222C242.945 25.2222 238.945 27.2222 232.945 29.9222C244.945 29.2222 261.945 28.2222 271.445 27.7222Z" fill="#E0426F" stroke="black" stroke-width="0.5"/>
<path d="M276.947 34.0222L282.946 31.7222L272.446 27.7222L228.446 30.2222C220.946 45.2222 205.946 75.7222 197.946 76.7222H212.446C210.946 65.7222 220.446 42.2222 245.447 51.2222C255.947 45.7222 265.947 40.2222 276.947 34.0222Z" fill="#E0426F" stroke="black" stroke-width="0.5"/>
<path d="M277.945 33.7222C265.945 40.2222 255.945 45.7222 245.445 51.2222C249.945 54.2222 260.445 60.2222 259.445 79.2222L284.445 78.7222V77.2222C292.945 76.2222 301.445 79.7222 299.945 65.7222L301.945 55.7222C301.945 54.2222 299.445 50.2222 296.945 49.7222C298.445 47.2222 295.445 38.2222 295.445 38.2222V36.7222L291.445 33.7222L286.445 32.2222L282.945 31.7222L277.945 33.7222Z" fill="#E0426F" stroke="black" stroke-width="0.5"/>
<path d="M280.945 26.2222L272.445 27.7222L282.945 31.7222C292.445 32.7222 291.444 34.2222 295.439 36.6423L294.945 28.2222L280.945 26.2222Z" fill="#E0426F"/>
<path d="M295.445 36.7222L295.439 36.6423M295.439 36.6423L294.945 28.2222L280.945 26.2222L272.445 27.7222L282.945 31.7222C292.445 32.7222 291.444 34.2222 295.439 36.6423Z" stroke="black" stroke-width="0.5"/>
<path d="M293.947 36.2224C293.447 33.7223 282.447 33.5222 276.947 34.0222" stroke="black" stroke-width="0.5"/>
<path d="M299.947 66.2222L260.447 68.2222C259.947 63.2222 257.781 59.0555 255.947 57.2222L301.947 54.7222M300.447 52.2222C289.447 50.7222 278.447 45.9222 266.447 39.9222M228.447 30.2222L272.447 27.7222L280.947 26.2222" stroke="black" stroke-width="0.5"/>
<path d="M290.447 40.2222C290.447 38.2222 289.447 34.2222 285.947 32.2222C288.168 32.2222 291.545 33.2626 294.056 35.6322C294.52 37.1622 293.447 40.7222 290.405 42.2222C290.392 41.6319 290.447 40.9465 290.447 40.2222Z" fill="#E0426F"/>
<path d="M272.447 42.7222C279.443 43.072 285.46 43.177 290.84 43.7222M297.447 44.7222C295.344 44.2715 293.151 43.9563 290.84 43.7222M295.447 37.2222C295.029 36.637 294.56 36.1078 294.056 35.6322M290.84 43.7222C290.514 43.3774 290.42 42.8544 290.405 42.2222M290.405 42.2222C290.392 41.6319 290.447 40.9465 290.447 40.2222C290.447 38.2222 289.447 34.2222 285.947 32.2222C288.168 32.2222 291.545 33.2626 294.056 35.6322M290.405 42.2222C293.447 40.7222 294.52 37.1622 294.056 35.6322" stroke="black" stroke-width="0.5"/>
<path d="M290.447 40.2222C285.947 40.2222 283.947 36.2222 282.947 33.7222" stroke="black" stroke-width="0.5"/>
<path d="M132.445 12.3221C118.945 16.3221 106.945 22.2222 92.9453 35.2222C99.9453 23.2222 115.445 13.7222 130.945 8.72217L132.445 12.3221Z" fill="#EFC7D3" stroke="black" stroke-width="0.5"/>
<path d="M130.945 8.72217C110.945 14.3962 92.9453 31.7222 84.9453 29.7222C97.9453 20.2222 113.945 11.7222 130.445 7.22217L130.945 8.72217Z" fill="#EFC7D3" stroke="black" stroke-width="0.5"/>
<path d="M9.94598 47.7221H3.94598C1.44531 51.722 1.44531 61.722 1.94598 65.222C0.445312 66.222 0.44591 70.722 1.44598 72.222L5.44598 72.722V74.222L1.44598 76.222V78.222C5.44598 79.222 13.946 81.222 21.946 80.722V79.222H39.446C38.7793 70.722 40.446 60.222 49.446 53.222C46.946 49.222 39.946 44.722 36.946 44.2221C26.946 43.222 11.946 45.7221 9.94598 47.7221Z" fill="#EFC7D3" stroke="black" stroke-width="0.5"/>
<path d="M92.9473 35.2222C75.1139 36.0555 43.4473 40.9222 32.9473 43.9222L36.9473 44.2222C41.9473 45.7222 47.4473 50.0555 49.4473 53.2222C62.4463 43.7222 87.9463 50.7222 86.4463 78.2222H96.4463C89.4463 67.2222 90.4463 45.2222 92.9473 35.2222Z" fill="#EFC7D3" stroke="black" stroke-width="0.5"/>
<path d="M9.94531 47.7222H3.94531C36.4455 28.2221 58.4456 34.2222 84.4453 29.7222L93.4456 35.2222C76.4456 36.2222 47.4453 39.7222 33.4453 43.9222C25.4453 43.7222 11.4453 45.7222 9.94531 47.7222Z" fill="#EFC7D3" stroke="black" stroke-width="0.5"/>
<path d="M36.9468 44.2222C29.4468 43.2222 12.4468 45.2222 9.94677 47.7222C9.14677 50.1222 12.2801 53.0555 13.9468 54.2222C23.4468 55.7222 36.9468 49.7222 36.9468 44.2222Z" fill="#EFC7D3" stroke="black" stroke-width="0.5"/>
<path d="M3.94601 47.7222C10.946 48.7222 4.94601 59.2222 1.94601 64.2222C1.44594 57.2222 1.9458 51.7222 3.94601 47.7222Z" fill="#EFC7D3" stroke="black" stroke-width="0.5"/>
<path d="M21.9453 83.7222V79.2222H39.4453L39.9453 83.7222H21.9453Z" fill="#EFC7D3" stroke="black" stroke-width="0.5"/>
<path d="M2.44727 65.2222C3.94727 67.7222 5.94727 70.8888 5.44727 72.7222M21.9473 79.2222C11.4473 79.7222 6.94727 75.7222 7.94727 72.2222C8.44727 71.7222 9.94727 70.2222 10.9473 70.2222" stroke="black" stroke-width="0.5"/>
<path d="M31.9473 74.2223C29.4473 70.2223 23.9473 65.2224 20.9473 63.7224C19.1972 63.2224 16.5721 63.3474 13.8221 63.7224C12.1971 65.0557 10.9473 68.2223 11.4473 71.2223C11.4473 72.389 12.7547 74.7223 15.4473 74.7223C19.9473 74.7223 26.9473 75.2223 31.9473 74.2223Z" fill="#EFC7D3"/>
<path d="M5.94727 65.2224C8.19721 64.7223 11.0721 64.0974 13.8221 63.7224M13.8221 63.7224C16.5721 63.3474 19.1972 63.2224 20.9473 63.7224C23.9473 65.2224 29.4473 70.2223 31.9473 74.2223C26.9473 75.2223 19.9473 74.7223 15.4473 74.7223C12.7547 74.7223 11.4473 72.389 11.4473 71.2223C10.9473 68.2223 12.1971 65.0557 13.8221 63.7224Z" stroke="black" stroke-width="0.5"/>
<path d="M11.4473 70.7224C19.4473 69.2224 22.9473 71.8509 25.9473 73.3509M12.9473 73.7224L30.4473 73.2224" stroke="black" stroke-width="0.5"/>
<path d="M21.9453 82.2222H31.4453C33.4453 82.2222 34.9453 80.2222 34.4453 79.2222M37.9453 79.2222V83.7222" stroke="black" stroke-width="0.5"/>
<path d="M21.9472 80.7224C17.4472 80.7224 12.9472 81.2224 1.44721 78.2224V76.2224L5.44721 74.2224V72.7224L1.44721 72.2224C0.946289 70.7222 -0.0535151 67.7222 1.94648 65.2222C1.44672 57.2222 1.94672 50.7222 3.94721 47.7219C36.4472 28.2223 58.4472 34.2224 84.4472 29.7224C162.447 -25.2778 244.447 11.7222 281.447 26.2223L294.947 28.2222L295.447 35.2222V38.2222C296.946 43.2222 298.281 47.7222 296.947 49.7222C299.447 50.7222 301.947 53.8888 301.947 55.7222L299.947 65.7222C300.399 76.5701 297.991 76.7944 288.66 77.1068C287.668 77.14 285.599 77.1742 284.447 77.2222V78.7222L259.447 79.1532M21.9472 80.7224V83.7224H39.9456L39.4472 79.2224M21.9472 80.7224V79.2224H39.4472M39.4472 79.2224C36.4472 37.7224 89.9472 40.7224 86.4472 79.7224V82.2222H212.947C206.947 38.7222 261.447 38.7222 259.447 79.1532M258.946 79.1532H259.447" stroke="black"/>
</svg>
