<svg width="303" height="95" viewBox="0 0 303 95" fill="none" xmlns="http://www.w3.org/2000/svg">
<circle cx="62.458" cy="73.8459" r="20.5" fill="#E0426F" stroke="black"/>
<circle cx="235.458" cy="73.8459" r="20.5" fill="#E0426F" stroke="black"/>
<path d="M132.456 12.3458L130.956 8.8458C170.956 0.845915 192.456 1.34595 231.456 12.8459L227.956 17.3459C207.956 9.34586 189.956 8.34586 173.956 7.84592C171.456 7.34592 167.456 7.34589 164.956 7.8458C154.956 7.84592 142.956 9.34592 132.456 12.3458Z" stroke="black" stroke-width="0.5"/>
<path d="M130.956 8.84599L130.456 7.34599C166.456 -3.65405 198.956 0.345821 234.456 9.34599L231.456 12.846C191.456 0.345947 165.456 1.84595 130.956 8.84599Z" stroke="black" stroke-width="0.5"/>
<path d="M130.956 8.84593C182.456 -2.65409 210.956 7.34595 231.456 12.8459" stroke="black" stroke-width="0.5"/>
<path d="M226.458 30.3459L223.458 15.8459C218.958 14.3459 207.458 8.84595 173.958 7.84595L170.458 29.8459C181.458 29.3459 198.958 27.8459 225.958 27.8459" stroke="black" stroke-width="0.5"/>
<path d="M164.958 7.84595C131.958 8.84595 111.958 17.8459 92.958 35.3459L95.458 33.3459L159.458 30.3459L164.958 7.84595Z" stroke="black" stroke-width="0.5"/>
<path d="M239.456 22.3459C235.789 19.6793 229.956 17.3459 223.456 15.8459L225.956 27.8459H232.456C235.456 26.3459 238.456 24.1147 239.456 22.3459Z" stroke="black" stroke-width="0.5"/>
<path d="M96.458 78.3459H163.458L197.958 76.8459M96.458 78.3459C96.458 79.8459 96.958 80.8459 97.958 82.3459M96.458 78.3459H86.458V82.3459H97.958M197.958 76.8459L198.958 82.3459M197.958 76.8459H212.458L212.958 82.3459H198.958M198.958 82.3459H97.958" stroke="black" stroke-width="0.5"/>
<path d="M96.4571 78.3459C91.958 73.8459 88.9581 51.8459 92.9571 35.3459L164.958 31.3459C160.958 36.3459 159.958 70.3459 163.458 78.3459H96.4571Z" stroke="black" stroke-width="0.5"/>
<path d="M228.458 30.3459L164.958 31.3459C160.958 36.3459 159.958 70.3459 163.458 78.3459L197.958 76.8459C202.458 75.3459 208.958 69.8459 228.458 30.3459Z" stroke="black" stroke-width="0.5"/>
<path d="M170.458 29.846C165.958 30.346 162.458 30.346 159.458 30.346L164.958 7.84602C167.958 7.34595 170.958 7.34595 173.958 7.84602L170.458 29.846Z" stroke="black" stroke-width="0.5"/>
<path d="M98.958 31.8461C103.458 37.3461 110.458 33.8461 114.458 32.3461C115.458 16.846 102.458 24.8459 98.958 31.8461Z" stroke="black" stroke-width="0.5"/>
<path d="M234.456 9.34595L231.456 12.8459C248.456 18.3459 258.956 21.3459 271.456 27.8459H272.956L280.956 26.3459C265.956 19.8459 258.456 17.3459 234.456 9.34595Z" fill="#E56E90" stroke="black" stroke-width="0.5"/>
<path d="M271.456 27.8459C260.956 22.3459 241.956 15.8459 231.456 12.8459L229.456 15.3459L244.456 22.8459C242.956 25.3459 238.956 27.3459 232.956 30.0459C244.956 29.3459 261.956 28.3459 271.456 27.8459Z" fill="#E56E90" stroke="black" stroke-width="0.5"/>
<path d="M276.958 34.1459L282.956 31.8459L272.457 27.8459L228.457 30.3459C220.957 45.3459 205.957 75.8459 197.957 76.8459H212.457C210.957 65.8459 220.457 42.3459 245.458 51.3459C255.958 45.8459 265.958 40.3459 276.958 34.1459Z" fill="#E56E90" stroke="black" stroke-width="0.5"/>
<path d="M277.956 33.846C265.956 40.346 255.956 45.846 245.456 51.346C249.956 54.3459 260.456 60.3459 259.456 79.3459L284.456 78.8459V77.3459C292.956 76.3459 301.456 79.8459 299.956 65.8459L301.956 55.8459C301.956 54.3459 299.456 50.3459 296.956 49.8459C298.456 47.3459 295.456 38.3459 295.456 38.3459V36.8459L291.456 33.8459L286.456 32.3459L282.956 31.8459L277.956 33.846Z" fill="#E56E90" stroke="black" stroke-width="0.5"/>
<path d="M280.956 26.3459L272.456 27.8459L282.956 31.8459C292.456 32.8459 291.455 34.3459 295.45 36.7661L294.956 28.3459L280.956 26.3459Z" fill="#E56E90"/>
<path d="M295.456 36.8459L295.45 36.7661M295.45 36.7661L294.956 28.3459L280.956 26.3459L272.456 27.8459L282.956 31.8459C292.456 32.8459 291.455 34.3459 295.45 36.7661Z" stroke="black" stroke-width="0.5"/>
<path d="M293.958 36.3461C293.458 33.846 282.458 33.646 276.958 34.146" stroke="black" stroke-width="0.5"/>
<path d="M299.958 66.3459L260.458 68.3459C259.958 63.3459 257.791 59.1793 255.958 57.3459L301.958 54.8459M300.458 52.3459C289.458 50.8459 278.458 46.0459 266.458 40.0459M228.458 30.3459L272.458 27.8459L280.958 26.3459" stroke="black" stroke-width="0.5"/>
<path d="M290.458 40.3459C290.458 38.3459 289.458 34.3459 285.958 32.3459C288.179 32.3459 291.556 33.3863 294.067 35.7559C294.531 37.2859 293.458 40.8459 290.416 42.3459C290.403 41.7557 290.458 41.0702 290.458 40.3459Z" fill="#E56E90"/>
<path d="M272.458 42.8459C279.454 43.1957 285.471 43.3008 290.851 43.8459M297.458 44.8459C295.355 44.3953 293.162 44.08 290.851 43.8459M295.458 37.3459C295.04 36.7608 294.571 36.2316 294.067 35.7559M290.851 43.8459C290.525 43.5012 290.431 42.9781 290.416 42.3459M290.416 42.3459C290.403 41.7557 290.458 41.0702 290.458 40.3459C290.458 38.3459 289.458 34.3459 285.958 32.3459C288.179 32.3459 291.556 33.3863 294.067 35.7559M290.416 42.3459C293.458 40.8459 294.531 37.2859 294.067 35.7559" stroke="black" stroke-width="0.5"/>
<path d="M290.458 40.3459C285.958 40.3459 283.958 36.3459 282.958 33.8459" stroke="black" stroke-width="0.5"/>
<path d="M132.456 12.4459C118.956 16.4459 106.956 22.3459 92.9561 35.3459C99.9561 23.3459 115.456 13.8459 130.956 8.84595L132.456 12.4459Z" fill="#E0426F" stroke="black" stroke-width="0.5"/>
<path d="M130.956 8.84595C110.956 14.52 92.9561 31.8459 84.9561 29.8459C97.9561 20.3459 113.956 11.8459 130.456 7.34595L130.956 8.84595Z" fill="#E0426F" stroke="black" stroke-width="0.5"/>
<path d="M9.95672 47.846H3.95672C1.45605 51.8459 1.45605 61.8459 1.95672 65.3459C0.456055 66.3459 0.456652 70.8459 1.45672 72.3459L5.45672 72.8459V74.3459L1.45672 76.3459V78.3459C5.45672 79.3459 13.9567 81.3459 21.9567 80.8459V79.3459H39.4567C38.7901 70.8459 40.4567 60.3459 49.4567 53.3459C46.9567 49.3459 39.9567 44.8459 36.9567 44.346C26.9567 43.3459 11.9567 45.846 9.95672 47.846Z" fill="#E0426F" stroke="black" stroke-width="0.5"/>
<path d="M92.958 35.3459C75.1247 36.1793 43.458 41.0459 32.958 44.0459L36.958 44.3459C41.958 45.8459 47.458 50.1793 49.458 53.3459C62.457 43.8459 87.957 50.8459 86.457 78.3459H96.457C89.457 67.3459 90.457 45.3459 92.958 35.3459Z" fill="#E0426F" stroke="black" stroke-width="0.5"/>
<path d="M9.95606 47.846H3.95605C36.4562 28.3459 58.4563 34.3459 84.4561 29.8459L93.4563 35.3459C76.4563 36.3459 47.4561 39.8459 33.4561 44.046C25.4561 43.8459 11.4561 45.8459 9.95606 47.846Z" fill="#E0426F" stroke="black" stroke-width="0.5"/>
<path d="M36.9575 44.346C29.4575 43.3459 12.4575 45.3459 9.95751 47.846C9.15751 50.246 12.2908 53.1793 13.9575 54.3459C23.4575 55.8459 36.9575 49.8459 36.9575 44.346Z" fill="#E0426F" stroke="black" stroke-width="0.5"/>
<path d="M3.95675 47.8459C10.9568 48.8459 4.95675 59.3459 1.95675 64.3459C1.45668 57.3459 1.95654 51.8459 3.95675 47.8459Z" fill="#E0426F" stroke="black" stroke-width="0.5"/>
<path d="M21.9561 83.8459V79.3459H39.4561L39.9561 83.8459H21.9561Z" fill="#E0426F" stroke="black" stroke-width="0.5"/>
<path d="M2.45801 65.3459C3.95801 67.8459 5.95801 71.0126 5.45801 72.8459M21.958 79.3459C11.458 79.8459 6.95801 75.8459 7.95801 72.3459C8.45801 71.8459 9.95801 70.3459 10.958 70.3459" stroke="black" stroke-width="0.5"/>
<path d="M31.958 74.3459C29.458 70.3459 23.958 65.346 20.958 63.846C19.208 63.346 16.5829 63.471 13.8328 63.846C12.2079 65.1793 10.958 68.3459 11.458 71.3459C11.458 72.5126 12.7654 74.8459 15.458 74.8459C19.958 74.8459 26.958 75.3459 31.958 74.3459Z" fill="#E0426F"/>
<path d="M5.95801 65.346C8.20795 64.846 11.0829 64.221 13.8328 63.846M13.8328 63.846C16.5829 63.471 19.208 63.346 20.958 63.846C23.958 65.346 29.458 70.3459 31.958 74.3459C26.958 75.3459 19.958 74.8459 15.458 74.8459C12.7654 74.8459 11.458 72.5126 11.458 71.3459C10.958 68.3459 12.2079 65.1793 13.8328 63.846Z" stroke="black" stroke-width="0.5"/>
<path d="M11.458 70.846C19.458 69.3461 22.958 71.9745 25.958 73.4745M12.958 73.8461L30.458 73.3461" stroke="black" stroke-width="0.5"/>
<path d="M21.9561 82.3459H31.4561C33.4561 82.3459 34.9561 80.3459 34.4561 79.3459M37.9561 79.3459V83.8459" stroke="black" stroke-width="0.5"/>
<path d="M21.958 80.8462C17.458 80.8462 12.958 81.3462 1.45795 78.3462V76.3462L5.45795 74.3462V72.8462L1.45795 72.3462C0.957031 70.8459 -0.0427729 67.8459 1.95722 65.3459C1.45747 57.3459 1.95747 50.8459 3.95795 47.8457C36.458 28.3461 58.4579 34.3461 84.4579 29.8461C162.458 -25.154 244.458 11.8459 281.458 26.3461L294.958 28.3459L295.458 35.3459V38.3459C296.956 43.3459 298.291 47.8459 296.958 49.8459C299.458 50.8459 301.958 54.0126 301.958 55.8459L299.958 65.8459C300.41 76.6939 298.002 76.9181 288.67 77.2306C287.679 77.2638 285.61 77.2979 284.458 77.3459V78.8459L259.458 79.277M21.958 80.8462V83.8462H39.9563L39.458 79.3462M21.958 80.8462V79.3462H39.458M39.458 79.3462C36.458 37.8462 89.9579 40.8462 86.4579 79.8462V82.3459H212.958C206.958 38.8459 261.458 38.8459 259.458 79.277M258.956 79.277H259.458" stroke="black"/>
</svg>
