<svg width="303" height="95" viewBox="0 0 303 95" fill="none" xmlns="http://www.w3.org/2000/svg">
<circle cx="62.2915" cy="73.6768" r="20.5" fill="#E56E90" stroke="black"/>
<circle cx="235.292" cy="73.6768" r="20.5" fill="#E56E90" stroke="black"/>
<path d="M132.29 12.1766L130.79 8.67661C170.79 0.676725 192.29 1.17676 231.29 12.6767L227.79 17.1767C207.79 9.17667 189.79 8.17667 173.79 7.67673C171.29 7.17673 167.29 7.1767 164.79 7.67661C154.79 7.67673 142.79 9.17674 132.29 12.1766Z" stroke="black" stroke-width="0.5"/>
<path d="M130.79 8.6768L130.29 7.1768C166.29 -3.82324 198.79 0.176632 234.29 9.1768L231.29 12.6768C191.29 0.176758 165.29 1.67676 130.79 8.6768Z" stroke="black" stroke-width="0.5"/>
<path d="M130.79 8.67675C182.29 -2.82328 210.79 7.17676 231.29 12.6767" stroke="black" stroke-width="0.5"/>
<path d="M226.292 30.1768L223.292 15.6768C218.792 14.1768 207.292 8.67676 173.792 7.67676L170.292 29.6768C181.292 29.1768 198.792 27.6768 225.792 27.6768" stroke="black" stroke-width="0.5"/>
<path d="M164.792 7.67676C131.792 8.67676 111.792 17.6768 92.7915 35.1768L95.2915 33.1768L159.292 30.1768L164.792 7.67676Z" stroke="black" stroke-width="0.5"/>
<path d="M239.29 22.1768C235.623 19.5101 229.79 17.1768 223.29 15.6768L225.79 27.6768H232.29C235.29 26.1768 238.29 23.9455 239.29 22.1768Z" stroke="black" stroke-width="0.5"/>
<path d="M96.2915 78.1768H163.292L197.792 76.6768M96.2915 78.1768C96.2915 79.6768 96.7915 80.6768 97.7915 82.1768M96.2915 78.1768H86.2915V82.1768H97.7915M197.792 76.6768L198.792 82.1768M197.792 76.6768H212.292L212.792 82.1768H198.792M198.792 82.1768H97.7915" stroke="black" stroke-width="0.5"/>
<path d="M96.2906 78.1768C91.7915 73.6768 88.7915 51.6768 92.7906 35.1768L164.792 31.1768C160.792 36.1768 159.792 70.1768 163.291 78.1768H96.2906Z" stroke="black" stroke-width="0.5"/>
<path d="M228.291 30.1768L164.791 31.1768C160.791 36.1768 159.791 70.1768 163.291 78.1768L197.791 76.6768C202.291 75.1768 208.791 69.6768 228.291 30.1768Z" stroke="black" stroke-width="0.5"/>
<path d="M170.292 29.6768C165.792 30.1768 162.292 30.1768 159.292 30.1768L164.792 7.67683C167.792 7.17676 170.792 7.17676 173.792 7.67683L170.292 29.6768Z" stroke="black" stroke-width="0.5"/>
<path d="M98.7915 31.6769C103.292 37.1769 110.292 33.6769 114.292 32.1769C115.292 16.6768 102.292 24.6768 98.7915 31.6769Z" stroke="black" stroke-width="0.5"/>
<path d="M234.29 9.17676L231.29 12.6768C248.29 18.1768 258.79 21.1768 271.29 27.6768H272.79L280.79 26.1768C265.79 19.6768 258.29 17.1768 234.29 9.17676Z" stroke="black" stroke-width="0.5"/>
<path d="M271.29 27.6768C260.79 22.1768 241.79 15.6768 231.29 12.6768L229.29 15.1768L244.29 22.6768C242.79 25.1768 238.79 27.1768 232.79 29.8768C244.79 29.1768 261.79 28.1768 271.29 27.6768Z" stroke="black" stroke-width="0.5"/>
<path d="M276.792 33.9768L282.79 31.6768L272.291 27.6768L228.291 30.1768C220.791 45.1768 205.791 75.6768 197.791 76.6768H212.291C210.791 65.6768 220.291 42.1768 245.292 51.1768C255.792 45.6768 265.792 40.1768 276.792 33.9768Z" stroke="black" stroke-width="0.5"/>
<path d="M277.79 33.6768C265.79 40.1768 255.79 45.6768 245.29 51.1768C249.79 54.1768 260.29 60.1768 259.29 79.1768L284.29 78.6768V77.1768C292.79 76.1768 301.29 79.6768 299.79 65.6768L301.79 55.6768C301.79 54.1768 299.29 50.1768 296.79 49.6768C298.29 47.1768 295.29 38.1768 295.29 38.1768V36.6768L291.29 33.6768L286.29 32.1768L282.79 31.6768L277.79 33.6768Z" stroke="black" stroke-width="0.5"/>
<path d="M295.29 36.6768L295.284 36.5969M295.284 36.5969L294.79 28.1768L280.79 26.1768L272.29 27.6768L282.79 31.6768C292.29 32.6768 291.289 34.1768 295.284 36.5969Z" stroke="black" stroke-width="0.5"/>
<path d="M293.792 36.177C293.292 33.6768 282.292 33.4768 276.792 33.9768" stroke="black" stroke-width="0.5"/>
<path d="M299.792 66.1768L260.292 68.1768C259.792 63.1768 257.625 59.0101 255.792 57.1768L301.792 54.6768M300.292 52.1768C289.292 50.6768 278.292 45.8768 266.292 39.8768M228.292 30.1768L272.292 27.6768L280.792 26.1768" stroke="black" stroke-width="0.5"/>
<path d="M272.292 42.6768C279.287 43.0265 285.304 43.1316 290.685 43.6768M297.292 44.6768C295.189 44.2261 292.995 43.9109 290.685 43.6768M295.292 37.1768C294.874 36.5916 294.404 36.0624 293.9 35.5867M290.685 43.6768C290.358 43.332 290.264 42.8089 290.25 42.1768M290.25 42.1768C290.236 41.5865 290.292 40.901 290.292 40.1768C290.292 38.1768 289.292 34.1768 285.792 32.1768C288.012 32.1768 291.389 33.2171 293.9 35.5867M290.25 42.1768C293.292 40.6768 294.364 37.1167 293.9 35.5867" stroke="black" stroke-width="0.5"/>
<path d="M290.292 40.1768C285.792 40.1768 283.792 36.1768 282.792 33.6768" stroke="black" stroke-width="0.5"/>
<path d="M132.29 12.2767C118.79 16.2767 106.79 22.1768 92.79 35.1768C99.79 23.1768 115.29 13.6768 130.79 8.67676L132.29 12.2767Z" fill="#E56E90" stroke="black" stroke-width="0.5"/>
<path d="M130.79 8.67676C110.79 14.3508 92.79 31.6768 84.79 29.6768C97.79 20.1768 113.79 11.6768 130.29 7.17676L130.79 8.67676Z" fill="#E56E90" stroke="black" stroke-width="0.5"/>
<path d="M9.79071 47.6768H3.79071C1.29004 51.6768 1.29004 61.6768 1.79071 65.1768C0.290039 66.1768 0.290637 70.6768 1.29071 72.1768L5.29071 72.6768V74.1768L1.29071 76.1768V78.1768C5.29071 79.1768 13.7907 81.1768 21.7907 80.6768V79.1768H39.2907C38.624 70.6768 40.2907 60.1768 49.2907 53.1768C46.7907 49.1768 39.7907 44.6768 36.7907 44.1768C26.7907 43.1768 11.7907 45.6768 9.79071 47.6768Z" fill="#E56E90" stroke="black" stroke-width="0.5"/>
<path d="M92.7915 35.1768C74.9582 36.0101 43.2915 40.8768 32.7915 43.8768L36.7915 44.1768C41.7915 45.6768 47.2915 50.0101 49.2915 53.1768C62.2905 43.6768 87.7905 50.6768 86.2905 78.1768H96.2905C89.2905 67.1768 90.2905 45.1768 92.7915 35.1768Z" fill="#E56E90" stroke="black" stroke-width="0.5"/>
<path d="M9.79004 47.6768H3.79004C36.2902 28.1767 58.2903 34.1768 84.29 29.6768L93.2903 35.1768C76.2903 36.1768 47.29 39.6768 33.29 43.8768C25.29 43.6767 11.29 45.6768 9.79004 47.6768Z" fill="#E56E90" stroke="black" stroke-width="0.5"/>
<path d="M36.7915 44.1768C29.2915 43.1768 12.2915 45.1768 9.79149 47.6768C8.99149 50.0768 12.1248 53.0101 13.7915 54.1768C23.2915 55.6768 36.7915 49.6768 36.7915 44.1768Z" fill="#E56E90" stroke="black" stroke-width="0.5"/>
<path d="M3.79073 47.6768C10.7907 48.6768 4.79073 59.1768 1.79073 64.1768C1.29066 57.1768 1.79053 51.6768 3.79073 47.6768Z" fill="#E56E90" stroke="black" stroke-width="0.5"/>
<path d="M21.79 83.6768V79.1768H39.29L39.79 83.6768H21.79Z" fill="#E56E90" stroke="black" stroke-width="0.5"/>
<path d="M2.29199 65.1768C3.79199 67.6768 5.79199 70.8434 5.29199 72.6768M21.792 79.1768C11.292 79.6768 6.79199 75.6768 7.79199 72.1768C8.29199 71.6768 9.79199 70.1768 10.792 70.1768" stroke="black" stroke-width="0.5"/>
<path d="M31.792 74.1768C29.292 70.1768 23.792 65.1768 20.792 63.6768C19.0419 63.1768 16.4169 63.3018 13.6668 63.6768C12.0419 65.0101 10.792 68.1768 11.292 71.1768C11.292 72.3434 12.5994 74.6768 15.292 74.6768C19.792 74.6768 26.792 75.1768 31.792 74.1768Z" fill="#E56E90"/>
<path d="M5.79199 65.1768C8.04193 64.6768 10.9168 64.0518 13.6668 63.6768M13.6668 63.6768C16.4169 63.3018 19.0419 63.1768 20.792 63.6768C23.792 65.1768 29.292 70.1768 31.792 74.1768C26.792 75.1768 19.792 74.6768 15.292 74.6768C12.5994 74.6768 11.292 72.3434 11.292 71.1768C10.792 68.1768 12.0418 65.0101 13.6668 63.6768Z" stroke="black" stroke-width="0.5"/>
<path d="M11.292 70.6768C19.292 69.1769 22.792 71.8054 25.792 73.3054M12.792 73.6769L30.292 73.1769" stroke="black" stroke-width="0.5"/>
<path d="M21.79 82.1768H31.29C33.29 82.1768 34.79 80.1768 34.29 79.1768M37.79 79.1768V83.6768" stroke="black" stroke-width="0.5"/>
<path d="M21.7915 80.677C17.2915 80.677 12.7915 81.177 1.29145 78.177V76.177L5.29145 74.177V72.677L1.29145 72.177C0.790527 70.6768 -0.209277 67.6768 1.79072 65.1768C1.29096 57.1768 1.79096 50.6768 3.79145 47.6765C36.2915 28.1769 58.2914 34.1769 84.2914 29.6769C162.291 -25.3232 244.291 11.6767 281.291 26.1769L294.791 28.1768L295.291 35.1768V38.1768C296.79 43.1768 298.125 47.6768 296.791 49.6768C299.291 50.6768 301.791 53.8434 301.791 55.6768L299.791 65.6768C300.243 76.5247 297.835 76.7489 288.504 77.0614C287.513 77.0946 285.444 77.1288 284.291 77.1768V78.6768L259.291 79.1078M21.7915 80.677V83.677H39.7898L39.2915 79.177M21.7915 80.677V79.177H39.2915M39.2915 79.177C36.2915 37.677 89.7914 40.677 86.2914 79.677V82.1768H212.791C206.791 38.6768 261.291 38.6768 259.291 79.1078M258.79 79.1078H259.291" stroke="black"/>
</svg>
