<svg width="303" height="95" viewBox="0 0 303 95" fill="none" xmlns="http://www.w3.org/2000/svg">
<circle cx="62.6875" cy="73.8611" r="20.5" stroke="black"/>
<circle cx="235.688" cy="73.8611" r="20.5" stroke="black"/>
<path d="M132.686 12.3609L131.186 8.86094C171.186 0.861052 192.686 1.36108 231.686 12.861L228.186 17.361C208.186 9.36099 190.186 8.36099 174.186 7.86106C171.686 7.36106 167.686 7.36102 165.186 7.86094C155.186 7.86106 143.186 9.36106 132.686 12.3609Z" fill="#EDADBF" stroke="black" stroke-width="0.5"/>
<path d="M131.186 8.86113L130.686 7.36113C166.686 -3.63892 199.186 0.360958 234.686 9.36113L231.686 12.8611C191.686 0.361084 165.686 1.86108 131.186 8.86113Z" fill="#EDADBF" stroke="black" stroke-width="0.5"/>
<path d="M131.186 8.86095C182.686 -2.63908 211.186 7.36096 231.686 12.8609" stroke="black" stroke-width="0.5"/>
<path d="M170.688 29.8611L174.188 7.86108C207.688 8.86108 219.188 14.3611 223.688 15.8611L226.17 27.8611C199.18 27.8617 181.685 29.3612 170.688 29.8611Z" fill="#EDADBF"/>
<path d="M226.688 30.3611L223.688 15.8611C219.188 14.3611 207.688 8.86108 174.188 7.86108L170.688 29.8611C181.688 29.3611 199.188 27.8611 226.188 27.8611" stroke="black" stroke-width="0.5"/>
<path d="M165.188 7.86108C132.188 8.86108 112.188 17.8611 93.1875 35.3611L95.6875 33.3611L159.688 30.3611L165.188 7.86108Z" fill="#EDADBF" stroke="black" stroke-width="0.5"/>
<path d="M239.686 22.3611C236.019 19.6944 230.186 17.3611 223.686 15.8611L226.186 27.8611H232.686C235.686 26.3611 238.686 24.1298 239.686 22.3611Z" fill="#EDADBF" stroke="black" stroke-width="0.5"/>
<path d="M96.6875 78.3611H163.688L198.188 76.8611H212.688L213.188 82.3611H199.188H98.1875H86.6875V78.3611H96.6875Z" fill="#EDADBF"/>
<path d="M96.6875 78.3611H163.688L198.188 76.8611M96.6875 78.3611C96.6875 79.8611 97.1875 80.8611 98.1875 82.3611M96.6875 78.3611H86.6875V82.3611H98.1875M198.188 76.8611L199.188 82.3611M198.188 76.8611H212.688L213.188 82.3611H199.188M199.188 82.3611H98.1875" stroke="black" stroke-width="0.5"/>
<path d="M96.6866 78.3611C92.1875 73.8611 89.1875 51.8611 93.1866 35.3611L165.188 31.3611C161.188 36.3611 160.188 70.3611 163.687 78.3611H96.6866Z" fill="#EDADBF" stroke="black" stroke-width="0.5"/>
<path d="M228.687 30.3611L165.187 31.3611C161.188 36.3611 160.188 70.3611 163.687 78.3611L198.187 76.8611C202.687 75.3611 209.187 69.8611 228.687 30.3611Z" fill="#EDADBF" stroke="black" stroke-width="0.5"/>
<path d="M170.688 29.8612C166.188 30.3612 162.688 30.3612 159.688 30.3612L165.188 7.86116C168.188 7.36108 171.188 7.36108 174.188 7.86116L170.688 29.8612Z" fill="#EDADBF" stroke="black" stroke-width="0.5"/>
<path d="M99.1875 31.8611C103.688 37.3611 110.688 33.8611 114.688 32.3611C115.688 16.861 102.688 24.861 99.1875 31.8611Z" fill="#EDADBF" stroke="black" stroke-width="0.5"/>
<path d="M234.686 9.36108L231.686 12.8611C248.686 18.3611 259.186 21.3611 271.686 27.8611H273.186L281.186 26.3611C266.186 19.8611 258.686 17.3611 234.686 9.36108Z" fill="#EFC7D3" stroke="black" stroke-width="0.5"/>
<path d="M271.686 27.8611C261.186 22.3611 242.186 15.8611 231.686 12.8611L229.686 15.3611L244.686 22.8611C243.186 25.3611 239.186 27.3611 233.186 30.0611C245.186 29.3611 262.186 28.3611 271.686 27.8611Z" fill="#EFC7D3" stroke="black" stroke-width="0.5"/>
<path d="M277.188 34.1611L283.186 31.8611L272.687 27.8611L228.687 30.3611C221.187 45.3611 206.187 75.8611 198.187 76.8611H212.687C211.187 65.8611 220.687 42.3611 245.688 51.3611C256.188 45.8611 266.188 40.3611 277.188 34.1611Z" fill="#EFC7D3" stroke="black" stroke-width="0.5"/>
<path d="M278.186 33.8611C266.186 40.3611 256.186 45.8611 245.686 51.3611C250.186 54.3611 260.686 60.3611 259.686 79.3611L284.686 78.8611V77.3611C293.186 76.3611 301.686 79.8611 300.186 65.8611L302.186 55.8611C302.186 54.3611 299.686 50.3611 297.186 49.8611C298.686 47.3611 295.686 38.3611 295.686 38.3611V36.8611L291.686 33.8611L286.686 32.3611L283.186 31.8611L278.186 33.8611Z" fill="#EFC7D3" stroke="black" stroke-width="0.5"/>
<path d="M281.186 26.3611L272.686 27.8611L283.186 31.8611C292.686 32.8611 291.684 34.3611 295.68 36.7813L295.186 28.3611L281.186 26.3611Z" fill="#EFC7D3"/>
<path d="M295.686 36.8611L295.68 36.7813M295.68 36.7813L295.186 28.3611L281.186 26.3611L272.686 27.8611L283.186 31.8611C292.686 32.8611 291.684 34.3611 295.68 36.7813Z" stroke="black" stroke-width="0.5"/>
<path d="M294.188 36.3613C293.688 33.8612 282.688 33.6611 277.188 34.1611" stroke="black" stroke-width="0.5"/>
<path d="M300.188 66.3611L260.688 68.3611C260.188 63.3611 258.021 59.1944 256.188 57.3611L302.188 54.8611M300.688 52.3611C289.688 50.8611 278.688 46.0611 266.688 40.0611M228.688 30.3611L272.688 27.8611L281.188 26.3611" stroke="black" stroke-width="0.5"/>
<path d="M290.688 40.3611C290.688 38.3611 289.688 34.3611 286.188 32.3611C288.408 32.3611 291.785 33.4015 294.296 35.7711C294.76 37.3011 293.688 40.8611 290.646 42.3611C290.632 41.7708 290.688 41.0854 290.688 40.3611Z" fill="#EFC7D3"/>
<path d="M272.688 42.8611C279.683 43.2109 285.7 43.316 291.081 43.8611M297.688 44.8611C295.585 44.4104 293.391 44.0952 291.081 43.8611M295.688 37.3611C295.27 36.776 294.8 36.2467 294.296 35.7711M291.081 43.8611C290.754 43.5163 290.66 42.9933 290.646 42.3611M290.646 42.3611C290.632 41.7708 290.688 41.0854 290.688 40.3611C290.688 38.3611 289.688 34.3611 286.188 32.3611C288.408 32.3611 291.785 33.4015 294.296 35.7711M290.646 42.3611C293.688 40.8611 294.76 37.3011 294.296 35.7711" stroke="black" stroke-width="0.5"/>
<path d="M290.688 40.3611C286.188 40.3611 284.188 36.3611 283.188 33.8611" stroke="black" stroke-width="0.5"/>
<path d="M132.686 12.4611C119.186 16.4611 107.186 22.3611 93.186 35.3611C100.186 23.3611 115.686 13.8611 131.186 8.86108L132.686 12.4611Z" stroke="black" stroke-width="0.5"/>
<path d="M131.186 8.86108C111.186 14.5351 93.186 31.8611 85.186 29.8611C98.186 20.3611 114.186 11.8611 130.686 7.36108L131.186 8.86108Z" stroke="black" stroke-width="0.5"/>
<path d="M10.1867 47.861H4.1867C1.68604 51.861 1.68604 61.861 2.1867 65.361C0.686035 66.361 0.686633 70.861 1.6867 72.361L5.6867 72.861V74.361L1.6867 76.361V78.361C5.6867 79.361 14.1867 81.361 22.1867 80.861V79.361H39.6867C39.02 70.861 40.6867 60.361 49.6867 53.361C47.1867 49.361 40.1867 44.861 37.1867 44.361C27.1867 43.361 12.1867 45.861 10.1867 47.861Z" stroke="black" stroke-width="0.5"/>
<path d="M93.1875 35.3611C75.3542 36.1944 43.6875 41.0611 33.1875 44.0611L37.1875 44.3611C42.1875 45.8611 47.6875 50.1944 49.6875 53.3611C62.6865 43.8611 88.1865 50.8611 86.6865 78.3611H96.6865C89.6865 67.3611 90.6865 45.3611 93.1875 35.3611Z" stroke="black" stroke-width="0.5"/>
<path d="M10.1855 47.8611H4.18555C36.6857 28.361 58.6858 34.3611 84.6855 29.8611L93.6858 35.3611C76.6858 36.3611 47.6855 39.8611 33.6855 44.0611C25.6855 43.8611 11.6855 45.8611 10.1855 47.8611Z" stroke="black" stroke-width="0.5"/>
<path d="M37.1875 44.3612C29.6875 43.3611 12.6875 45.3611 10.1875 47.8612C9.38749 50.2611 12.5208 53.1944 14.1875 54.3611C23.6875 55.8611 37.1875 49.8611 37.1875 44.3612Z" stroke="black" stroke-width="0.5"/>
<path d="M4.18673 47.8611C11.1867 48.8611 5.18673 59.3611 2.18673 64.3611C1.68666 57.3611 2.18652 51.8611 4.18673 47.8611Z" stroke="black" stroke-width="0.5"/>
<path d="M22.186 83.8611V79.3611H39.686L40.186 83.8611H22.186Z" stroke="black" stroke-width="0.5"/>
<path d="M2.6875 65.3608C4.1875 67.8608 6.1875 71.0275 5.6875 72.8608M22.1875 79.3608C11.6875 79.8608 7.1875 75.8608 8.1875 72.3608C8.6875 71.8608 10.1875 70.3608 11.1875 70.3608" stroke="black" stroke-width="0.5"/>
<path d="M6.1875 65.361C8.43744 64.861 11.3124 64.236 14.0623 63.861M14.0623 63.861C16.8124 63.486 19.4375 63.361 21.1875 63.861C24.1875 65.361 29.6875 70.361 32.1875 74.361C27.1875 75.361 20.1875 74.861 15.6875 74.861C12.9949 74.861 11.6875 72.5276 11.6875 71.361C11.1875 68.361 12.4374 65.1943 14.0623 63.861Z" stroke="black" stroke-width="0.5"/>
<path d="M11.6875 70.861C19.6875 69.3611 23.1875 71.9896 26.1875 73.4896M13.1875 73.8611L30.6875 73.3611" stroke="black" stroke-width="0.5"/>
<path d="M22.1855 82.3608H31.6855C33.6855 82.3608 35.1855 80.3608 34.6855 79.3608M38.1855 79.3608V83.8608" stroke="black" stroke-width="0.5"/>
<path d="M22.1874 80.8613C17.6874 80.8613 13.1874 81.3613 1.68745 78.3613V76.3613L5.68745 74.3613V72.8613L1.68745 72.3613C1.18652 70.8611 0.186719 67.8611 2.18671 65.3611C1.68696 57.3611 2.18696 50.8611 4.18745 47.8608C36.6874 28.3612 58.6874 34.3613 84.6874 29.8613C162.687 -25.1388 244.687 11.8611 281.687 26.3613L295.187 28.3611L295.687 35.3611V38.3611C297.186 43.3611 298.521 47.8611 297.187 49.8611C299.687 50.8611 302.187 54.0278 302.187 55.8611L300.187 65.8611C300.639 76.709 298.231 76.9333 288.9 77.2457C287.909 77.2789 285.84 77.3131 284.687 77.3611V78.8611L259.687 79.2921M22.1874 80.8613V83.8613H40.1858L39.6875 79.3613M22.1874 80.8613V79.3613H39.6875M39.6875 79.3613C36.6875 37.8613 90.1874 40.8613 86.6874 79.8613V82.3611H213.187C207.187 38.8611 261.687 38.8611 259.687 79.2921M259.186 79.2921H259.687" stroke="black"/>
</svg>
