<svg width="303" height="96" viewBox="0 0 303 96" fill="none" xmlns="http://www.w3.org/2000/svg">
<circle cx="62.6978" cy="74.3535" r="20.5" stroke="black"/>
<circle cx="235.698" cy="74.3535" r="20.5" stroke="black"/>
<path d="M132.696 12.8534L131.196 9.35337C171.196 1.35348 192.696 1.85352 231.696 13.3535L228.196 17.8535C208.196 9.85343 190.196 8.85342 174.196 8.35349C171.696 7.85349 167.696 7.85345 165.196 8.35337C155.196 8.35349 143.196 9.85349 132.696 12.8534Z" fill="#EFC7D3" stroke="black" stroke-width="0.5"/>
<path d="M131.196 9.35356L130.696 7.85356C166.696 -3.14648 199.196 0.85339 234.696 9.85356L231.696 13.3536C191.696 0.853516 165.696 2.35352 131.196 9.35356Z" fill="#EFC7D3" stroke="black" stroke-width="0.5"/>
<path d="M131.196 9.3535C182.696 -2.14652 211.196 7.85352 231.696 13.3535" stroke="black" stroke-width="0.5"/>
<path d="M170.698 30.3535L174.198 8.35352C207.698 9.35352 219.198 14.8535 223.698 16.3535L226.181 28.3535C199.19 28.3542 181.695 29.8536 170.698 30.3535Z" fill="#EFC7D3"/>
<path d="M226.698 30.8535L223.698 16.3535C219.198 14.8535 207.698 9.35352 174.198 8.35352L170.698 30.3535C181.698 29.8535 199.198 28.3535 226.198 28.3535" stroke="black" stroke-width="0.5"/>
<path d="M165.198 8.35352C132.198 9.35352 112.198 18.3535 93.1978 35.8535L95.6978 33.8535L159.698 30.8535L165.198 8.35352Z" fill="#EFC7D3" stroke="black" stroke-width="0.5"/>
<path d="M239.696 22.8535C236.03 20.1868 230.196 17.8535 223.696 16.3535L226.196 28.3535H232.696C235.696 26.8535 238.696 24.6223 239.696 22.8535Z" fill="#EFC7D3" stroke="black" stroke-width="0.5"/>
<path d="M96.6978 78.8535H163.698L198.198 77.3535H212.698L213.198 82.8535H199.198H98.1978H86.6978V78.8535H96.6978Z" fill="#EFC7D3"/>
<path d="M96.6978 78.8535H163.698L198.198 77.3535M96.6978 78.8535C96.6978 80.3535 97.1978 81.3535 98.1978 82.8535M96.6978 78.8535H86.6978V82.8535H98.1978M198.198 77.3535L199.198 82.8535M198.198 77.3535H212.698L213.198 82.8535H199.198M199.198 82.8535H98.1978" stroke="black" stroke-width="0.5"/>
<path d="M96.6969 78.8535C92.1977 74.3535 89.1978 52.3535 93.1969 35.8535L165.198 31.8535C161.198 36.8535 160.198 70.8535 163.698 78.8535H96.6969Z" fill="#EFC7D3" stroke="black" stroke-width="0.5"/>
<path d="M228.697 30.8535L165.197 31.8535C161.197 36.8535 160.198 70.8535 163.697 78.8535L198.197 77.3535C202.697 75.8535 209.197 70.3535 228.697 30.8535Z" fill="#EFC7D3" stroke="black" stroke-width="0.5"/>
<path d="M170.698 30.3536C166.198 30.8536 162.698 30.8536 159.698 30.8536L165.198 8.35359C168.198 7.85352 171.198 7.85352 174.198 8.35359L170.698 30.3536Z" fill="#EFC7D3" stroke="black" stroke-width="0.5"/>
<path d="M99.1978 32.3537C103.698 37.8537 110.698 34.3537 114.698 32.8537C115.698 17.3535 102.698 25.3535 99.1978 32.3537Z" fill="#EFC7D3" stroke="black" stroke-width="0.5"/>
<path d="M234.696 9.85352L231.696 13.3535C248.696 18.8535 259.196 21.8535 271.696 28.3535H273.196L281.196 26.8535C266.196 20.3535 258.696 17.8535 234.696 9.85352Z" stroke="black" stroke-width="0.5"/>
<path d="M271.696 28.3535C261.196 22.8535 242.196 16.3535 231.696 13.3535L229.696 15.8535L244.696 23.3535C243.196 25.8535 239.196 27.8535 233.196 30.5535C245.196 29.8535 262.196 28.8535 271.696 28.3535Z" stroke="black" stroke-width="0.5"/>
<path d="M277.198 34.6535L283.196 32.3535L272.697 28.3535L228.697 30.8535C221.197 45.8535 206.197 76.3535 198.197 77.3535H212.697C211.197 66.3535 220.697 42.8535 245.698 51.8535C256.198 46.3535 266.198 40.8535 277.198 34.6535Z" stroke="black" stroke-width="0.5"/>
<path d="M278.196 34.3535C266.196 40.8535 256.196 46.3535 245.696 51.8535C250.196 54.8535 260.696 60.8535 259.696 79.8535L284.696 79.3535V77.8535C293.196 76.8535 301.696 80.3535 300.196 66.3535L302.196 56.3535C302.196 54.8535 299.696 50.8535 297.196 50.3535C298.696 47.8535 295.696 38.8535 295.696 38.8535V37.3535L291.696 34.3535L286.696 32.8535L283.196 32.3535L278.196 34.3535Z" stroke="black" stroke-width="0.5"/>
<path d="M295.696 37.3535L295.69 37.2737M295.69 37.2737L295.196 28.8535L281.196 26.8535L272.696 28.3535L283.196 32.3535C292.696 33.3535 291.695 34.8535 295.69 37.2737Z" stroke="black" stroke-width="0.5"/>
<path d="M294.198 36.8537C293.698 34.3536 282.698 34.1535 277.198 34.6535" stroke="black" stroke-width="0.5"/>
<path d="M300.198 66.8535L260.698 68.8535C260.198 63.8535 258.031 59.6868 256.198 57.8535L302.198 55.3535M300.698 52.8535C289.698 51.3535 278.698 46.5535 266.698 40.5535M228.698 30.8535L272.698 28.3535L281.198 26.8535" stroke="black" stroke-width="0.5"/>
<path d="M272.698 43.3535C279.693 43.7033 285.71 43.8084 291.091 44.3535M297.698 45.3535C295.595 44.9029 293.402 44.5876 291.091 44.3535M295.698 37.8535C295.28 37.2684 294.811 36.7392 294.307 36.2635M291.091 44.3535C290.765 44.0088 290.671 43.4857 290.656 42.8535M290.656 42.8535C290.642 42.2632 290.698 41.5778 290.698 40.8535C290.698 38.8535 289.698 34.8535 286.198 32.8535C288.419 32.8535 291.795 33.8939 294.307 36.2635M290.656 42.8535C293.698 41.3535 294.77 37.7935 294.307 36.2635" stroke="black" stroke-width="0.5"/>
<path d="M290.698 40.8535C286.198 40.8535 284.198 36.8535 283.198 34.3535" stroke="black" stroke-width="0.5"/>
<path d="M132.696 12.9535C119.196 16.9535 107.196 22.8535 93.1963 35.8535C100.196 23.8535 115.696 14.3535 131.196 9.35352L132.696 12.9535Z" fill="#EDADBF" stroke="black" stroke-width="0.5"/>
<path d="M131.196 9.35352C111.196 15.0276 93.1963 32.3535 85.1963 30.3535C98.1963 20.8535 114.196 12.3535 130.696 7.85352L131.196 9.35352Z" fill="#EDADBF" stroke="black" stroke-width="0.5"/>
<path d="M10.197 48.3535H4.19696C1.69629 52.3535 1.69629 62.3535 2.19696 65.8535C0.696289 66.8535 0.696887 71.3535 1.69696 72.8535L5.69696 73.3535V74.8535L1.69696 76.8535V78.8535C5.69696 79.8535 14.197 81.8535 22.197 81.3535V79.8535H39.697C39.0303 71.3535 40.697 60.8535 49.697 53.8535C47.197 49.8535 40.197 45.3535 37.197 44.8535C27.197 43.8535 12.197 46.3535 10.197 48.3535Z" fill="#EDADBF" stroke="black" stroke-width="0.5"/>
<path d="M93.1978 35.8535C75.3644 36.6868 43.6978 41.5535 33.1978 44.5535L37.1978 44.8535C42.1978 46.3535 47.6978 50.6868 49.6978 53.8535C62.6968 44.3535 88.1968 51.3535 86.6968 78.8535H96.6968C89.6968 67.8535 90.6968 45.8535 93.1978 35.8535Z" fill="#EDADBF" stroke="black" stroke-width="0.5"/>
<path d="M10.1963 48.3536H4.19629C36.6965 28.8535 58.6965 34.8535 84.6963 30.3535L93.6965 35.8535C76.6965 36.8535 47.6963 40.3535 33.6963 44.5535C25.6963 44.3535 11.6963 46.3535 10.1963 48.3536Z" fill="#EDADBF" stroke="black" stroke-width="0.5"/>
<path d="M37.1977 44.8536C29.6977 43.8535 12.6977 45.8535 10.1977 48.3536C9.39774 50.7535 12.5311 53.6868 14.1977 54.8535C23.6978 56.3535 37.1977 50.3535 37.1977 44.8536Z" fill="#EDADBF" stroke="black" stroke-width="0.5"/>
<path d="M4.19698 48.3535C11.197 49.3535 5.19698 59.8535 2.19698 64.8535C1.69691 57.8535 2.19678 52.3535 4.19698 48.3535Z" fill="#EDADBF" stroke="black" stroke-width="0.5"/>
<path d="M22.1963 84.3535V79.8535H39.6963L40.1963 84.3535H22.1963Z" fill="#EDADBF" stroke="black" stroke-width="0.5"/>
<path d="M2.69824 65.8535C4.19824 68.3535 6.19824 71.5202 5.69824 73.3535M22.1982 79.8535C11.6982 80.3535 7.19824 76.3535 8.19824 72.8535C8.69824 72.3535 10.1982 70.8535 11.1982 70.8535" stroke="black" stroke-width="0.5"/>
<path d="M32.1982 74.8535C29.6982 70.8535 24.1982 65.8536 21.1982 64.3536C19.4482 63.8536 16.8231 63.9786 14.073 64.3536C12.4481 65.6869 11.1982 68.8535 11.6982 71.8535C11.6982 73.0202 13.0057 75.3535 15.6982 75.3535C20.1982 75.3535 27.1982 75.8535 32.1982 74.8535Z" fill="#EDADBF"/>
<path d="M6.19824 65.8536C8.44818 65.3536 11.3231 64.7286 14.073 64.3536M14.073 64.3536C16.8231 63.9786 19.4482 63.8536 21.1982 64.3536C24.1982 65.8536 29.6982 70.8535 32.1982 74.8535C27.1982 75.8535 20.1982 75.3535 15.6982 75.3535C13.0057 75.3535 11.6982 73.0202 11.6982 71.8535C11.1982 68.8535 12.4481 65.6869 14.073 64.3536Z" stroke="black" stroke-width="0.5"/>
<path d="M11.6982 71.3536C19.6982 69.8536 23.1982 72.4821 26.1982 73.9821M13.1982 74.3536L30.6982 73.8536" stroke="black" stroke-width="0.5"/>
<path d="M22.1963 82.8535H31.6963C33.6963 82.8535 35.1963 80.8535 34.6963 79.8535M38.1963 79.8535V84.3535" stroke="black" stroke-width="0.5"/>
<path d="M22.1977 81.3538C17.6977 81.3538 13.1977 81.8538 1.6977 78.8538V76.8538L5.6977 74.8538V73.3538L1.6977 72.8538C1.19678 71.3535 0.196973 68.3535 2.19697 65.8535C1.69721 57.8535 2.19721 51.3535 4.1977 48.3533C36.6977 28.8537 58.6977 34.8537 84.6977 30.3537C162.698 -24.6464 244.698 12.3535 281.698 26.8537L295.198 28.8535L295.698 35.8535V38.8535C297.196 43.8535 298.531 48.3535 297.198 50.3535C299.698 51.3535 302.198 54.5202 302.198 56.3535L300.198 66.3535C300.65 77.2014 298.242 77.4257 288.91 77.7382C287.919 77.7713 285.85 77.8055 284.698 77.8535V79.3535L259.698 79.7846M22.1977 81.3538V84.3538H40.196L39.6977 79.8538M22.1977 81.3538V79.8538H39.6977M39.6977 79.8538C36.6977 38.3538 90.1977 41.3538 86.6977 80.3538V82.8535H213.198C207.198 39.3535 261.698 39.3535 259.698 79.7846M259.196 79.7846H259.698" stroke="black"/>
</svg>
