<svg width="303" height="95" viewBox="0 0 303 95" fill="none" xmlns="http://www.w3.org/2000/svg">
<circle cx="62.2725" cy="73.8914" r="20.5" fill="#E56E90" stroke="black"/>
<circle cx="235.272" cy="73.8914" r="20.5" fill="#E56E90" stroke="black"/>
<path d="M132.271 12.3912L130.771 8.89121C170.771 0.891325 192.271 1.39136 231.271 12.8913L227.771 17.3913C207.771 9.39127 189.771 8.39127 173.771 7.89133C171.271 7.39133 167.271 7.3913 164.771 7.89121C154.771 7.89133 142.771 9.39134 132.271 12.3912Z" fill="#E0426F" stroke="black" stroke-width="0.5"/>
<path d="M130.771 8.8914L130.271 7.3914C166.271 -3.60864 198.771 0.391232 234.271 9.3914L231.271 12.8914C191.271 0.391357 165.271 1.89136 130.771 8.8914Z" fill="#E0426F" stroke="black" stroke-width="0.5"/>
<path d="M130.771 8.89122C182.271 -2.6088 210.771 7.39124 231.271 12.8912" stroke="black" stroke-width="0.5"/>
<path d="M170.272 29.8914L173.772 7.89136C207.272 8.89136 218.772 14.3914 223.272 15.8914L225.755 27.8914C198.765 27.892 181.27 29.3915 170.272 29.8914Z" fill="#E0426F"/>
<path d="M226.272 30.3914L223.272 15.8914C218.772 14.3914 207.272 8.89136 173.772 7.89136L170.272 29.8914C181.272 29.3914 198.772 27.8914 225.772 27.8914" stroke="black" stroke-width="0.5"/>
<path d="M164.772 7.89136C131.772 8.89136 111.772 17.8914 92.7725 35.3914L95.2725 33.3914L159.272 30.3914L164.772 7.89136Z" fill="#E0426F" stroke="black" stroke-width="0.5"/>
<path d="M239.271 22.3914C235.604 19.7247 229.771 17.3914 223.271 15.8914L225.771 27.8914H232.271C235.271 26.3914 238.271 24.1601 239.271 22.3914Z" fill="#E0426F" stroke="black" stroke-width="0.5"/>
<path d="M96.2725 78.3914H163.272L197.772 76.8914H212.272L212.772 82.3914H198.772H97.7725H86.2725V78.3914H96.2725Z" fill="#E0426F"/>
<path d="M96.2725 78.3914H163.272L197.772 76.8914M96.2725 78.3914C96.2725 79.8914 96.7725 80.8914 97.7725 82.3914M96.2725 78.3914H86.2725V82.3914H97.7725M197.772 76.8914L198.772 82.3914M197.772 76.8914H212.272L212.772 82.3914H198.772M198.772 82.3914H97.7725" stroke="black" stroke-width="0.5"/>
<path d="M96.2716 78.3914C91.7725 73.8914 88.7725 51.8914 92.7716 35.3914L164.772 31.3914C160.772 36.3914 159.772 70.3914 163.272 78.3914H96.2716Z" fill="#E0426F" stroke="black" stroke-width="0.5"/>
<path d="M228.272 30.3914L164.772 31.3914C160.773 36.3914 159.773 70.3914 163.272 78.3914L197.772 76.8914C202.272 75.3914 208.772 69.8914 228.272 30.3914Z" fill="#E0426F" stroke="black" stroke-width="0.5"/>
<path d="M170.272 29.8914C165.772 30.3914 162.272 30.3914 159.272 30.3914L164.772 7.89143C167.772 7.39136 170.772 7.39136 173.772 7.89143L170.272 29.8914Z" fill="#E0426F" stroke="black" stroke-width="0.5"/>
<path d="M98.7725 31.8914C103.272 37.3914 110.272 33.8914 114.272 32.3914C115.272 16.8913 102.272 24.8912 98.7725 31.8914Z" fill="#E0426F" stroke="black" stroke-width="0.5"/>
<path d="M234.271 9.39136L231.271 12.8914C248.271 18.3914 258.771 21.3914 271.271 27.8914H272.771L280.771 26.3914C265.771 19.8914 258.271 17.3914 234.271 9.39136Z" fill="#EDADBF" stroke="black" stroke-width="0.5"/>
<path d="M271.271 27.8914C260.771 22.3914 241.771 15.8914 231.271 12.8914L229.271 15.3914L244.271 22.8914C242.771 25.3914 238.771 27.3914 232.771 30.0914C244.771 29.3914 261.771 28.3914 271.271 27.8914Z" fill="#EDADBF" stroke="black" stroke-width="0.5"/>
<path d="M276.772 34.1914L282.771 31.8914L272.271 27.8914L228.271 30.3914C220.771 45.3914 205.771 75.8914 197.771 76.8914H212.271C210.771 65.8914 220.271 42.3914 245.272 51.3914C255.772 45.8914 265.772 40.3914 276.772 34.1914Z" fill="#EDADBF" stroke="black" stroke-width="0.5"/>
<path d="M277.771 33.8914C265.771 40.3914 255.771 45.8914 245.271 51.3914C249.771 54.3914 260.271 60.3914 259.271 79.3914L284.271 78.8914V77.3914C292.771 76.3914 301.271 79.8914 299.771 65.8914L301.771 55.8914C301.771 54.3914 299.271 50.3914 296.771 49.8914C298.271 47.3914 295.271 38.3914 295.271 38.3914V36.8914L291.271 33.8914L286.271 32.3914L282.771 31.8914L277.771 33.8914Z" fill="#EDADBF" stroke="black" stroke-width="0.5"/>
<path d="M280.771 26.3914L272.271 27.8914L282.771 31.8914C292.271 32.8914 291.269 34.3914 295.265 36.8115L294.771 28.3914L280.771 26.3914Z" fill="#EDADBF"/>
<path d="M295.271 36.8914L295.265 36.8115M295.265 36.8115L294.771 28.3914L280.771 26.3914L272.271 27.8914L282.771 31.8914C292.271 32.8914 291.269 34.3914 295.265 36.8115Z" stroke="black" stroke-width="0.5"/>
<path d="M293.772 36.3916C293.272 33.8914 282.272 33.6914 276.772 34.1914" stroke="black" stroke-width="0.5"/>
<path d="M299.772 66.3914L260.272 68.3914C259.772 63.3914 257.606 59.2247 255.772 57.3914L301.772 54.8914M300.272 52.3914C289.272 50.8914 278.272 46.0914 266.272 40.0914M228.272 30.3914L272.272 27.8914L280.772 26.3914" stroke="black" stroke-width="0.5"/>
<path d="M290.272 40.3914C290.272 38.3914 289.272 34.3914 285.772 32.3914C287.993 32.3914 291.37 33.4317 293.881 35.8013C294.345 37.3313 293.272 40.8914 290.231 42.3914C290.217 41.8011 290.272 41.1156 290.272 40.3914Z" fill="#EDADBF"/>
<path d="M272.272 42.8914C279.268 43.2411 285.285 43.3462 290.666 43.8914M297.272 44.8914C295.169 44.4407 292.976 44.1255 290.666 43.8914M295.272 37.3914C294.855 36.8062 294.385 36.277 293.881 35.8013M290.666 43.8914C290.339 43.5466 290.245 43.0235 290.231 42.3914M290.231 42.3914C290.217 41.8011 290.272 41.1156 290.272 40.3914C290.272 38.3914 289.272 34.3914 285.772 32.3914C287.993 32.3914 291.37 33.4317 293.881 35.8013M290.231 42.3914C293.272 40.8914 294.345 37.3313 293.881 35.8013" stroke="black" stroke-width="0.5"/>
<path d="M290.272 40.3914C285.772 40.3914 283.772 36.3914 282.772 33.8914" stroke="black" stroke-width="0.5"/>
<path d="M132.271 12.4913C118.771 16.4913 106.771 22.3914 92.7705 35.3914C99.7705 23.3914 115.271 13.8914 130.771 8.89136L132.271 12.4913Z" fill="#EDADBF" stroke="black" stroke-width="0.5"/>
<path d="M130.771 8.89136C110.771 14.5654 92.7705 31.8914 84.7705 29.8914C97.7705 20.3914 113.771 11.8914 130.271 7.39136L130.771 8.89136Z" fill="#EDADBF" stroke="black" stroke-width="0.5"/>
<path d="M9.77118 47.8912H3.77118C1.27051 51.8912 1.27051 61.8912 1.77118 65.3912C0.270508 66.3912 0.271105 70.8912 1.27118 72.3912L5.27118 72.8912V74.3912L1.27118 76.3912V78.3912C5.27118 79.3912 13.7712 81.3912 21.7712 80.8912V79.3912H39.2712C38.6045 70.8912 40.2712 60.3912 49.2712 53.3912C46.7712 49.3912 39.7712 44.8912 36.7712 44.3912C26.7712 43.3912 11.7712 45.8912 9.77118 47.8912Z" fill="#EDADBF" stroke="black" stroke-width="0.5"/>
<path d="M92.7725 35.3914C74.9391 36.2247 43.2725 41.0914 32.7725 44.0914L36.7725 44.3914C41.7725 45.8914 47.2725 50.2247 49.2725 53.3914C62.2715 43.8914 87.7715 50.8914 86.2715 78.3914H96.2715C89.2715 67.3914 90.2715 45.3914 92.7725 35.3914Z" fill="#EDADBF" stroke="black" stroke-width="0.5"/>
<path d="M9.77051 47.8914H3.77051C36.2707 28.3913 58.2708 34.3914 84.2705 29.8914L93.2708 35.3914C76.2708 36.3914 47.2705 39.8914 33.2705 44.0914C25.2705 43.8913 11.2705 45.8914 9.77051 47.8914Z" fill="#EDADBF" stroke="black" stroke-width="0.5"/>
<path d="M36.772 44.3914C29.272 43.3914 12.272 45.3914 9.77196 47.8914C8.97196 50.2914 12.1053 53.2247 13.772 54.3914C23.272 55.8914 36.772 49.8914 36.772 44.3914Z" fill="#EDADBF" stroke="black" stroke-width="0.5"/>
<path d="M3.7712 47.8914C10.7712 48.8914 4.7712 59.3914 1.7712 64.3914C1.27113 57.3914 1.771 51.8914 3.7712 47.8914Z" fill="#EDADBF" stroke="black" stroke-width="0.5"/>
<path d="M21.7705 83.8914V79.3914H39.2705L39.7705 83.8914H21.7705Z" fill="#EDADBF" stroke="black" stroke-width="0.5"/>
<path d="M2.27246 65.3911C3.77246 67.8911 5.77246 71.0578 5.27246 72.8911M21.7725 79.3911C11.2725 79.8911 6.77246 75.8911 7.77246 72.3911C8.27246 71.8911 9.77246 70.3911 10.7725 70.3911" stroke="black" stroke-width="0.5"/>
<path d="M31.7725 74.3912C29.2725 70.3912 23.7725 65.3913 20.7725 63.8913C19.0224 63.3913 16.3973 63.5163 13.6472 63.8913C12.0223 65.2246 10.7725 68.3912 11.2725 71.3912C11.2725 72.5579 12.5799 74.8912 15.2725 74.8912C19.7725 74.8912 26.7725 75.3912 31.7725 74.3912Z" fill="#EDADBF"/>
<path d="M5.77246 65.3913C8.0224 64.8913 10.8973 64.2663 13.6472 63.8913M13.6472 63.8913C16.3973 63.5163 19.0224 63.3913 20.7725 63.8913C23.7725 65.3913 29.2725 70.3912 31.7725 74.3912C26.7725 75.3912 19.7725 74.8912 15.2725 74.8912C12.5799 74.8912 11.2725 72.5579 11.2725 71.3912C10.7725 68.3912 12.0223 65.2246 13.6472 63.8913Z" stroke="black" stroke-width="0.5"/>
<path d="M11.2725 70.8913C19.2725 69.3914 22.7725 72.0198 25.7725 73.5198M12.7725 73.8914L30.2725 73.3914" stroke="black" stroke-width="0.5"/>
<path d="M21.7705 82.3911H31.2705C33.2705 82.3911 34.7705 80.3911 34.2705 79.3911M37.7705 79.3911V83.8911" stroke="black" stroke-width="0.5"/>
<path d="M21.7724 80.8916C17.2724 80.8916 12.7724 81.3916 1.27241 78.3916V76.3916L5.27241 74.3916V72.8916L1.27241 72.3916C0.771484 70.8914 -0.22832 67.8914 1.77168 65.3914C1.27192 57.3914 1.77192 50.8914 3.77241 47.8911C36.2724 28.3915 58.2724 34.3915 84.2724 29.8915C162.272 -25.1086 244.272 11.8913 281.272 26.3915L294.772 28.3914L295.272 35.3914V38.3914C296.771 43.3914 298.106 47.8914 296.772 49.8914C299.272 50.8914 301.772 54.058 301.772 55.8914L299.772 65.8914C300.224 76.7393 297.816 76.9635 288.485 77.276C287.494 77.3092 285.425 77.3434 284.272 77.3914V78.8914L259.272 79.3224M21.7724 80.8916V83.8916H39.7708L39.2724 79.3916M21.7724 80.8916V79.3916H39.2724M39.2724 79.3916C36.2724 37.8916 89.7724 40.8916 86.2724 79.8916V82.3914H212.772C206.772 38.8914 261.272 38.8914 259.272 79.3224M258.771 79.3224H259.272" stroke="black"/>
</svg>
