<svg width="303" height="96" viewBox="0 0 303 96" fill="none" xmlns="http://www.w3.org/2000/svg">
<circle cx="62.2817" cy="74.2146" r="20.5" fill="#E56E90" stroke="black"/>
<circle cx="235.282" cy="74.2146" r="20.5" fill="#E56E90" stroke="black"/>
<path d="M132.28 12.7145L130.78 9.21445C170.78 1.21457 192.28 1.7146 231.28 13.2145L227.78 17.7145C207.78 9.71451 189.78 8.71451 173.78 8.21458C171.28 7.71458 167.28 7.71454 164.78 8.21445C154.78 8.21458 142.78 9.71458 132.28 12.7145Z" fill="#E56E90" stroke="black" stroke-width="0.5"/>
<path d="M130.78 9.21464L130.28 7.71464C166.28 -3.2854 198.78 0.714474 234.28 9.71465L231.28 13.2146C191.28 0.7146 165.28 2.2146 130.78 9.21464Z" fill="#E56E90" stroke="black" stroke-width="0.5"/>
<path d="M130.78 9.21447C182.28 -2.28556 210.78 7.71448 231.28 13.2145" stroke="black" stroke-width="0.5"/>
<path d="M170.282 30.2146L173.782 8.2146C207.282 9.2146 218.782 14.7146 223.282 16.2146L225.764 28.2146C198.774 28.2152 181.279 29.7147 170.282 30.2146Z" fill="#E56E90"/>
<path d="M226.282 30.7146L223.282 16.2146C218.782 14.7146 207.282 9.2146 173.782 8.2146L170.282 30.2146C181.282 29.7146 198.782 28.2146 225.782 28.2146" stroke="black" stroke-width="0.5"/>
<path d="M164.782 8.2146C131.782 9.2146 111.782 18.2146 92.7817 35.7146L95.2817 33.7146L159.282 30.7146L164.782 8.2146Z" fill="#E56E90" stroke="black" stroke-width="0.5"/>
<path d="M239.28 22.7146C235.614 20.0479 229.78 17.7146 223.28 16.2146L225.78 28.2146H232.28C235.28 26.7146 238.28 24.4833 239.28 22.7146Z" fill="#E56E90" stroke="black" stroke-width="0.5"/>
<path d="M96.2817 78.7146H163.282L197.782 77.2146H212.282L212.782 82.7146H198.782H97.7817H86.2817V78.7146H96.2817Z" fill="#E56E90"/>
<path d="M96.2817 78.7146H163.282L197.782 77.2146M96.2817 78.7146C96.2817 80.2146 96.7817 81.2146 97.7817 82.7146M96.2817 78.7146H86.2817V82.7146H97.7817M197.782 77.2146L198.782 82.7146M197.782 77.2146H212.282L212.782 82.7146H198.782M198.782 82.7146H97.7817" stroke="black" stroke-width="0.5"/>
<path d="M96.2809 78.7146C91.7817 74.2146 88.7818 52.2146 92.7809 35.7146L164.782 31.7146C160.782 36.7146 159.782 70.7146 163.282 78.7146H96.2809Z" fill="#E56E90" stroke="black" stroke-width="0.5"/>
<path d="M228.281 30.7146L164.781 31.7146C160.781 36.7146 159.781 70.7146 163.281 78.7146L197.781 77.2146C202.281 75.7146 208.781 70.2146 228.281 30.7146Z" fill="#E56E90" stroke="black" stroke-width="0.5"/>
<path d="M170.282 30.2147C165.782 30.7147 162.282 30.7147 159.282 30.7147L164.782 8.21467C167.782 7.7146 170.782 7.7146 173.782 8.21467L170.282 30.2147Z" fill="#E56E90" stroke="black" stroke-width="0.5"/>
<path d="M98.7817 32.2146C103.282 37.7146 110.282 34.2146 114.282 32.7146C115.282 17.2145 102.282 25.2145 98.7817 32.2146Z" fill="#E56E90" stroke="black" stroke-width="0.5"/>
<path d="M234.28 9.7146L231.28 13.2146C248.28 18.7146 258.78 21.7146 271.28 28.2146H272.78L280.78 26.7146C265.78 20.2146 258.28 17.7146 234.28 9.7146Z" fill="#EFC7D3" stroke="black" stroke-width="0.5"/>
<path d="M271.28 28.2146C260.78 22.7146 241.78 16.2146 231.28 13.2146L229.28 15.7146L244.28 23.2146C242.78 25.7146 238.78 27.7146 232.78 30.4146C244.78 29.7146 261.78 28.7146 271.28 28.2146Z" fill="#EFC7D3" stroke="black" stroke-width="0.5"/>
<path d="M276.782 34.5146L282.78 32.2146L272.281 28.2146L228.281 30.7146C220.781 45.7146 205.781 76.2146 197.781 77.2146H212.281C210.781 66.2146 220.281 42.7146 245.282 51.7146C255.782 46.2146 265.782 40.7146 276.782 34.5146Z" fill="#EFC7D3" stroke="black" stroke-width="0.5"/>
<path d="M277.78 34.2146C265.78 40.7146 255.78 46.2146 245.28 51.7146C249.78 54.7146 260.28 60.7146 259.28 79.7146L284.28 79.2146V77.7146C292.78 76.7146 301.28 80.2146 299.78 66.2146L301.78 56.2146C301.78 54.7146 299.28 50.7146 296.78 50.2146C298.28 47.7146 295.28 38.7146 295.28 38.7146V37.2146L291.28 34.2146L286.28 32.7146L282.78 32.2146L277.78 34.2146Z" fill="#EFC7D3" stroke="black" stroke-width="0.5"/>
<path d="M280.78 26.7146L272.28 28.2146L282.78 32.2146C292.28 33.2146 291.279 34.7146 295.274 37.1348L294.78 28.7146L280.78 26.7146Z" fill="#EFC7D3"/>
<path d="M295.28 37.2146L295.274 37.1348M295.274 37.1348L294.78 28.7146L280.78 26.7146L272.28 28.2146L282.78 32.2146C292.28 33.2146 291.279 34.7146 295.274 37.1348Z" stroke="black" stroke-width="0.5"/>
<path d="M293.782 36.7148C293.282 34.2147 282.282 34.0146 276.782 34.5146" stroke="black" stroke-width="0.5"/>
<path d="M299.782 66.7146L260.282 68.7146C259.782 63.7146 257.615 59.5479 255.782 57.7146L301.782 55.2146M300.282 52.7146C289.282 51.2146 278.282 46.4146 266.282 40.4146M228.282 30.7146L272.282 28.2146L280.782 26.7146" stroke="black" stroke-width="0.5"/>
<path d="M290.282 40.7146C290.282 38.7146 289.282 34.7146 285.782 32.7146C288.003 32.7146 291.379 33.755 293.891 36.1246C294.354 37.6546 293.282 41.2146 290.24 42.7146C290.226 42.1243 290.282 41.4389 290.282 40.7146Z" fill="#EFC7D3"/>
<path d="M272.282 43.2146C279.277 43.5644 285.294 43.6695 290.675 44.2146M297.282 45.2146C295.179 44.764 292.985 44.4487 290.675 44.2146M295.282 37.7146C294.864 37.1295 294.395 36.6002 293.891 36.1246M290.675 44.2146C290.349 43.8698 290.255 43.3468 290.24 42.7146M290.24 42.7146C290.226 42.1243 290.282 41.4389 290.282 40.7146C290.282 38.7146 289.282 34.7146 285.782 32.7146C288.003 32.7146 291.379 33.755 293.891 36.1246M290.24 42.7146C293.282 41.2146 294.354 37.6546 293.891 36.1246" stroke="black" stroke-width="0.5"/>
<path d="M290.282 40.7146C285.782 40.7146 283.782 36.7146 282.782 34.2146" stroke="black" stroke-width="0.5"/>
<path d="M132.28 12.8146C118.78 16.8146 106.78 22.7146 92.7803 35.7146C99.7803 23.7146 115.28 14.2146 130.78 9.2146L132.28 12.8146Z" fill="#E56E90" stroke="black" stroke-width="0.5"/>
<path d="M130.78 9.2146C110.78 14.8886 92.7803 32.2146 84.7803 30.2146C97.7803 20.7146 113.78 12.2146 130.28 7.7146L130.78 9.2146Z" fill="#E56E90" stroke="black" stroke-width="0.5"/>
<path d="M9.78094 48.2145H3.78094C1.28027 52.2145 1.28027 62.2145 1.78094 65.7145C0.280273 66.7145 0.280871 71.2145 1.28094 72.7145L5.28094 73.2145V74.7145L1.28094 76.7145V78.7145C5.28094 79.7145 13.7809 81.7145 21.7809 81.2145V79.7145H39.2809C38.6143 71.2145 40.2809 60.7145 49.2809 53.7145C46.7809 49.7145 39.7809 45.2145 36.7809 44.7145C26.7809 43.7145 11.7809 46.2145 9.78094 48.2145Z" fill="#E56E90" stroke="black" stroke-width="0.5"/>
<path d="M92.7817 35.7146C74.9484 36.5479 43.2817 41.4146 32.7817 44.4146L36.7817 44.7146C41.7817 46.2146 47.2817 50.5479 49.2817 53.7146C62.2808 44.2146 87.7808 51.2146 86.2808 78.7146H96.2808C89.2808 67.7146 90.2808 45.7146 92.7817 35.7146Z" fill="#E56E90" stroke="black" stroke-width="0.5"/>
<path d="M9.78027 48.2147H3.78027C36.2805 28.7146 58.2805 34.7146 84.2803 30.2146L93.2805 35.7146C76.2805 36.7146 47.2803 40.2146 33.2803 44.4146C25.2803 44.2146 11.2803 46.2146 9.78027 48.2147Z" fill="#E56E90" stroke="black" stroke-width="0.5"/>
<path d="M36.7817 44.7147C29.2817 43.7146 12.2817 45.7146 9.78173 48.2147C8.98173 50.6146 12.1151 53.5479 13.7817 54.7146C23.2817 56.2146 36.7817 50.2146 36.7817 44.7147Z" fill="#E56E90" stroke="black" stroke-width="0.5"/>
<path d="M3.78097 48.2146C10.781 49.2146 4.78097 59.7146 1.78097 64.7146C1.2809 57.7146 1.78076 52.2146 3.78097 48.2146Z" fill="#E56E90" stroke="black" stroke-width="0.5"/>
<path d="M21.7803 84.2146V79.7146H39.2803L39.7803 84.2146H21.7803Z" fill="#E56E90" stroke="black" stroke-width="0.5"/>
<path d="M2.28223 65.7144C3.78223 68.2144 5.78223 71.381 5.28223 73.2144M21.7822 79.7144C11.2822 80.2144 6.78223 76.2144 7.78223 72.7144C8.28223 72.2144 9.78223 70.7144 10.7822 70.7144" stroke="black" stroke-width="0.5"/>
<path d="M31.7822 74.7145C29.2822 70.7145 23.7822 65.7146 20.7822 64.2146C19.0322 63.7145 16.4071 63.8395 13.657 64.2146C12.0321 65.5479 10.7822 68.7145 11.2822 71.7145C11.2822 72.8811 12.5896 75.2145 15.2822 75.2145C19.7822 75.2145 26.7822 75.7145 31.7822 74.7145Z" fill="#E56E90"/>
<path d="M5.78223 65.7146C8.03217 65.2145 10.9071 64.5896 13.657 64.2146M13.657 64.2146C16.4071 63.8395 19.0322 63.7145 20.7822 64.2146C23.7822 65.7146 29.2822 70.7145 31.7822 74.7145C26.7822 75.7145 19.7822 75.2145 15.2822 75.2145C12.5896 75.2145 11.2822 72.8811 11.2822 71.7145C10.7822 68.7145 12.0321 65.5479 13.657 64.2146Z" stroke="black" stroke-width="0.5"/>
<path d="M11.2822 71.2146C19.2822 69.7146 22.7822 72.3431 25.7822 73.8431M12.7822 74.2146L30.2822 73.7146" stroke="black" stroke-width="0.5"/>
<path d="M21.7803 82.7144H31.2803C33.2803 82.7144 34.7803 80.7144 34.2803 79.7144M37.7803 79.7144V84.2144" stroke="black" stroke-width="0.5"/>
<path d="M21.7817 81.2148C17.2817 81.2148 12.7817 81.7148 1.28168 78.7148V76.7148L5.28168 74.7148V73.2148L1.28168 72.7149C0.780762 71.2146 -0.219042 68.2146 1.78095 65.7146C1.2812 57.7146 1.7812 51.2146 3.78168 48.2143C36.2817 28.7147 58.2817 34.7148 84.2817 30.2148C162.282 -24.7853 244.282 12.2146 281.282 26.7148L294.782 28.7146L295.282 35.7146V38.7146C296.78 43.7146 298.115 48.2146 296.782 50.2146C299.282 51.2146 301.782 54.3813 301.782 56.2146L299.782 66.2146C300.234 77.0625 297.826 77.2868 288.494 77.5992C287.503 77.6324 285.434 77.6666 284.282 77.7146V79.2146L259.282 79.6456M21.7817 81.2148V84.2148H39.78L39.2817 79.7148M21.7817 81.2148V79.7148H39.2817M39.2817 79.7148C36.2817 38.2148 89.7817 41.2148 86.2817 80.2148V82.7146H212.782C206.782 39.2146 261.282 39.2146 259.282 79.6456M258.78 79.6456H259.282" stroke="black"/>
</svg>
