<svg width="303" height="95" viewBox="0 0 303 95" fill="none" xmlns="http://www.w3.org/2000/svg">
<circle cx="62.2607" cy="73.8611" r="20.5" fill="#E56E90" stroke="black"/>
<circle cx="235.261" cy="73.8611" r="20.5" fill="#E56E90" stroke="black"/>
<path d="M132.259 12.3609L130.759 8.86094C170.759 0.861052 192.259 1.36108 231.259 12.861L227.759 17.361C207.759 9.36099 189.759 8.36099 173.759 7.86106C171.259 7.36106 167.259 7.36102 164.759 7.86094C154.759 7.86106 142.759 9.36106 132.259 12.3609Z" fill="#EDADBF" stroke="black" stroke-width="0.5"/>
<path d="M130.759 8.86113L130.259 7.36113C166.259 -3.63892 198.759 0.360958 234.259 9.36113L231.259 12.8611C191.259 0.361084 165.259 1.86108 130.759 8.86113Z" fill="#EDADBF" stroke="black" stroke-width="0.5"/>
<path d="M130.759 8.86095C182.259 -2.63908 210.759 7.36096 231.259 12.8609" stroke="black" stroke-width="0.5"/>
<path d="M170.261 29.8611L173.761 7.86108C207.261 8.86108 218.761 14.3611 223.261 15.8611L225.743 27.8611C198.753 27.8617 181.258 29.3612 170.261 29.8611Z" fill="#EDADBF"/>
<path d="M226.261 30.3611L223.261 15.8611C218.761 14.3611 207.261 8.86108 173.761 7.86108L170.261 29.8611C181.261 29.3611 198.761 27.8611 225.761 27.8611" stroke="black" stroke-width="0.5"/>
<path d="M164.761 7.86108C131.761 8.86108 111.761 17.8611 92.7607 35.3611L95.2607 33.3611L159.261 30.3611L164.761 7.86108Z" fill="#EDADBF" stroke="black" stroke-width="0.5"/>
<path d="M239.259 22.3611C235.592 19.6944 229.759 17.3611 223.259 15.8611L225.759 27.8611H232.259C235.259 26.3611 238.259 24.1298 239.259 22.3611Z" fill="#EDADBF" stroke="black" stroke-width="0.5"/>
<path d="M96.2607 78.3611H163.261L197.761 76.8611H212.261L212.761 82.3611H198.761H97.7607H86.2607V78.3611H96.2607Z" fill="#EDADBF"/>
<path d="M96.2607 78.3611H163.261L197.761 76.8611M96.2607 78.3611C96.2607 79.8611 96.7607 80.8611 97.7607 82.3611M96.2607 78.3611H86.2607V82.3611H97.7607M197.761 76.8611L198.761 82.3611M197.761 76.8611H212.261L212.761 82.3611H198.761M198.761 82.3611H97.7607" stroke="black" stroke-width="0.5"/>
<path d="M96.2599 78.3611C91.7607 73.8611 88.7608 51.8611 92.7599 35.3611L164.761 31.3611C160.761 36.3611 159.761 70.3611 163.261 78.3611H96.2599Z" fill="#EDADBF" stroke="black" stroke-width="0.5"/>
<path d="M228.261 30.3611L164.761 31.3611C160.761 36.3611 159.761 70.3611 163.261 78.3611L197.761 76.8611C202.261 75.3611 208.761 69.8611 228.261 30.3611Z" fill="#EDADBF" stroke="black" stroke-width="0.5"/>
<path d="M170.261 29.8612C165.761 30.3612 162.261 30.3612 159.261 30.3612L164.761 7.86116C167.761 7.36108 170.761 7.36108 173.761 7.86116L170.261 29.8612Z" fill="#EDADBF" stroke="black" stroke-width="0.5"/>
<path d="M98.7607 31.8611C103.261 37.3611 110.261 33.8611 114.261 32.3611C115.261 16.861 102.261 24.861 98.7607 31.8611Z" fill="#EDADBF" stroke="black" stroke-width="0.5"/>
<path d="M234.259 9.36108L231.259 12.8611C248.259 18.3611 258.759 21.3611 271.259 27.8611H272.759L280.759 26.3611C265.759 19.8611 258.259 17.3611 234.259 9.36108Z" fill="#E56E90" stroke="black" stroke-width="0.5"/>
<path d="M271.259 27.8611C260.759 22.3611 241.759 15.8611 231.259 12.8611L229.259 15.3611L244.259 22.8611C242.759 25.3611 238.759 27.3611 232.759 30.0611C244.759 29.3611 261.759 28.3611 271.259 27.8611Z" fill="#E56E90" stroke="black" stroke-width="0.5"/>
<path d="M276.761 34.1611L282.759 31.8611L272.26 27.8611L228.26 30.3611C220.76 45.3611 205.76 75.8611 197.76 76.8611H212.26C210.76 65.8611 220.26 42.3611 245.261 51.3611C255.761 45.8611 265.761 40.3611 276.761 34.1611Z" fill="#E56E90" stroke="black" stroke-width="0.5"/>
<path d="M277.759 33.8611C265.759 40.3611 255.759 45.8611 245.259 51.3611C249.759 54.3611 260.259 60.3611 259.259 79.3611L284.259 78.8611V77.3611C292.759 76.3611 301.259 79.8611 299.759 65.8611L301.759 55.8611C301.759 54.3611 299.259 50.3611 296.759 49.8611C298.259 47.3611 295.259 38.3611 295.259 38.3611V36.8611L291.259 33.8611L286.259 32.3611L282.759 31.8611L277.759 33.8611Z" fill="#E56E90" stroke="black" stroke-width="0.5"/>
<path d="M280.759 26.3611L272.259 27.8611L282.759 31.8611C292.259 32.8611 291.258 34.3611 295.253 36.7813L294.759 28.3611L280.759 26.3611Z" fill="#E56E90"/>
<path d="M295.259 36.8611L295.253 36.7813M295.253 36.7813L294.759 28.3611L280.759 26.3611L272.259 27.8611L282.759 31.8611C292.259 32.8611 291.258 34.3611 295.253 36.7813Z" stroke="black" stroke-width="0.5"/>
<path d="M293.761 36.3613C293.261 33.8612 282.261 33.6611 276.761 34.1611" stroke="black" stroke-width="0.5"/>
<path d="M299.761 66.3611L260.261 68.3611C259.761 63.3611 257.594 59.1944 255.761 57.3611L301.761 54.8611M300.261 52.3611C289.261 50.8611 278.261 46.0611 266.261 40.0611M228.261 30.3611L272.261 27.8611L280.761 26.3611" stroke="black" stroke-width="0.5"/>
<path d="M290.261 40.3611C290.261 38.3611 289.261 34.3611 285.761 32.3611C287.982 32.3611 291.358 33.4015 293.87 35.7711C294.333 37.3011 293.261 40.8611 290.219 42.3611C290.205 41.7708 290.261 41.0854 290.261 40.3611Z" fill="#E56E90"/>
<path d="M272.261 42.8611C279.256 43.2109 285.273 43.316 290.654 43.8611M297.261 44.8611C295.158 44.4104 292.964 44.0952 290.654 43.8611M295.261 37.3611C294.843 36.776 294.374 36.2467 293.87 35.7711M290.654 43.8611C290.328 43.5163 290.234 42.9933 290.219 42.3611M290.219 42.3611C290.205 41.7708 290.261 41.0854 290.261 40.3611C290.261 38.3611 289.261 34.3611 285.761 32.3611C287.982 32.3611 291.358 33.4015 293.87 35.7711M290.219 42.3611C293.261 40.8611 294.333 37.3011 293.87 35.7711" stroke="black" stroke-width="0.5"/>
<path d="M290.261 40.3611C285.761 40.3611 283.761 36.3611 282.761 33.8611" stroke="black" stroke-width="0.5"/>
<path d="M132.259 12.4611C118.759 16.4611 106.759 22.3611 92.7588 35.3611C99.7588 23.3611 115.259 13.8611 130.759 8.86108L132.259 12.4611Z" stroke="black" stroke-width="0.5"/>
<path d="M130.759 8.86108C110.759 14.5351 92.7588 31.8611 84.7588 29.8611C97.7588 20.3611 113.759 11.8611 130.259 7.36108L130.759 8.86108Z" stroke="black" stroke-width="0.5"/>
<path d="M9.75946 47.861H3.75946C1.25879 51.861 1.25879 61.861 1.75946 65.361C0.258789 66.361 0.259387 70.861 1.25946 72.361L5.25946 72.861V74.361L1.25946 76.361V78.361C5.25946 79.361 13.7595 81.361 21.7595 80.861V79.361H39.2595C38.5928 70.861 40.2595 60.361 49.2595 53.361C46.7595 49.361 39.7595 44.861 36.7595 44.361C26.7595 43.361 11.7595 45.861 9.75946 47.861Z" stroke="black" stroke-width="0.5"/>
<path d="M92.7607 35.3611C74.9274 36.1944 43.2607 41.0611 32.7607 44.0611L36.7607 44.3611C41.7607 45.8611 47.2607 50.1944 49.2607 53.3611C62.2598 43.8611 87.7598 50.8611 86.2598 78.3611H96.2598C89.2598 67.3611 90.2598 45.3611 92.7607 35.3611Z" stroke="black" stroke-width="0.5"/>
<path d="M9.75879 47.8611H3.75879C36.259 28.361 58.259 34.3611 84.2588 29.8611L93.259 35.3611C76.259 36.3611 47.2588 39.8611 33.2588 44.0611C25.2588 43.8611 11.2588 45.8611 9.75879 47.8611Z" stroke="black" stroke-width="0.5"/>
<path d="M36.7602 44.3612C29.2602 43.3611 12.2602 45.3611 9.76024 47.8612C8.96024 50.2611 12.0936 53.1944 13.7602 54.3611C23.2603 55.8611 36.7602 49.8611 36.7602 44.3612Z" stroke="black" stroke-width="0.5"/>
<path d="M3.75948 47.8611C10.7595 48.8611 4.75948 59.3611 1.75948 64.3611C1.25941 57.3611 1.75928 51.8611 3.75948 47.8611Z" stroke="black" stroke-width="0.5"/>
<path d="M21.7588 83.8611V79.3611H39.2588L39.7588 83.8611H21.7588Z" stroke="black" stroke-width="0.5"/>
<path d="M2.26074 65.3608C3.76074 67.8608 5.76074 71.0275 5.26074 72.8608M21.7607 79.3608C11.2607 79.8608 6.76074 75.8608 7.76074 72.3608C8.26074 71.8608 9.76074 70.3608 10.7607 70.3608" stroke="black" stroke-width="0.5"/>
<path d="M5.76074 65.361C8.01068 64.861 10.8856 64.236 13.6355 63.861M13.6355 63.861C16.3856 63.486 19.0107 63.361 20.7607 63.861C23.7607 65.361 29.2607 70.361 31.7607 74.361C26.7607 75.361 19.7607 74.861 15.2607 74.861C12.5682 74.861 11.2607 72.5276 11.2607 71.361C10.7607 68.361 12.0106 65.1943 13.6355 63.861Z" stroke="black" stroke-width="0.5"/>
<path d="M11.2607 70.861C19.2607 69.3611 22.7607 71.9896 25.7607 73.4896M12.7607 73.8611L30.2607 73.3611" stroke="black" stroke-width="0.5"/>
<path d="M21.7588 82.3608H31.2588C33.2588 82.3608 34.7588 80.3608 34.2588 79.3608M37.7588 79.3608V83.8608" stroke="black" stroke-width="0.5"/>
<path d="M21.7607 80.8613C17.2607 80.8613 12.7607 81.3613 1.26069 78.3613V76.3613L5.26069 74.3613V72.8613L1.26069 72.3613C0.759766 70.8611 -0.240039 67.8611 1.75996 65.3611C1.2602 57.3611 1.7602 50.8611 3.76069 47.8608C36.2607 28.3612 58.2607 34.3613 84.2607 29.8613C162.261 -25.1388 244.261 11.8611 281.261 26.3613L294.761 28.3611L295.261 35.3611V38.3611C296.759 43.3611 298.094 47.8611 296.761 49.8611C299.261 50.8611 301.761 54.0278 301.761 55.8611L299.761 65.8611C300.213 76.709 297.805 76.9333 288.473 77.2457C287.482 77.2789 285.413 77.3131 284.261 77.3611V78.8611L259.261 79.2921M21.7607 80.8613V83.8613H39.759L39.2607 79.3613M21.7607 80.8613V79.3613H39.2607M39.2607 79.3613C36.2607 37.8613 89.7607 40.8613 86.2607 79.8613V82.3611H212.761C206.761 38.8611 261.261 38.8611 259.261 79.2921M258.759 79.2921H259.261" stroke="black"/>
</svg>
