<svg width="303" height="96" viewBox="0 0 303 96" fill="none" xmlns="http://www.w3.org/2000/svg">
<circle cx="62.2915" cy="74.5076" r="20.5" fill="#E56E90" stroke="black"/>
<circle cx="235.292" cy="74.5076" r="20.5" fill="#E56E90" stroke="black"/>
<path d="M132.29 13.0074L130.79 9.50742C170.79 1.50754 192.29 2.00757 231.29 13.5075L227.79 18.0075C207.79 10.0075 189.79 9.00748 173.79 8.50755C171.29 8.00755 167.29 8.00751 164.79 8.50742C154.79 8.50755 142.79 10.0075 132.29 13.0074Z" stroke="black" stroke-width="0.5"/>
<path d="M130.79 9.50761L130.29 8.00761C166.29 -2.99243 198.79 1.00744 234.29 10.0076L231.29 13.5076C191.29 1.00757 165.29 2.50757 130.79 9.50761Z" stroke="black" stroke-width="0.5"/>
<path d="M130.79 9.50756C182.29 -1.99247 210.79 8.00757 231.29 13.5076" stroke="black" stroke-width="0.5"/>
<path d="M226.292 31.0076L223.292 16.5076C218.792 15.0076 207.292 9.50757 173.792 8.50757L170.292 30.5076C181.292 30.0076 198.792 28.5076 225.792 28.5076" stroke="black" stroke-width="0.5"/>
<path d="M164.792 8.50757C131.792 9.50757 111.792 18.5076 92.7915 36.0076L95.2915 34.0076L159.292 31.0076L164.792 8.50757Z" stroke="black" stroke-width="0.5"/>
<path d="M239.29 23.0076C235.623 20.3409 229.79 18.0076 223.29 16.5076L225.79 28.5076H232.29C235.29 27.0076 238.29 24.7763 239.29 23.0076Z" stroke="black" stroke-width="0.5"/>
<path d="M96.2915 79.0076H163.292L197.792 77.5076M96.2915 79.0076C96.2915 80.5076 96.7915 81.5076 97.7915 83.0076M96.2915 79.0076H86.2915V83.0076H97.7915M197.792 77.5076L198.792 83.0076M197.792 77.5076H212.292L212.792 83.0076H198.792M198.792 83.0076H97.7915" stroke="black" stroke-width="0.5"/>
<path d="M96.2906 79.0076C91.7915 74.5076 88.7915 52.5076 92.7906 36.0076L164.792 32.0076C160.792 37.0076 159.792 71.0076 163.291 79.0076H96.2906Z" stroke="black" stroke-width="0.5"/>
<path d="M228.291 31.0076L164.791 32.0076C160.791 37.0076 159.791 71.0076 163.291 79.0076L197.791 77.5076C202.291 76.0076 208.791 70.5076 228.291 31.0076Z" stroke="black" stroke-width="0.5"/>
<path d="M170.292 30.5076C165.792 31.0076 162.292 31.0076 159.292 31.0076L164.792 8.50764C167.792 8.00757 170.792 8.00757 173.792 8.50764L170.292 30.5076Z" stroke="black" stroke-width="0.5"/>
<path d="M98.7915 32.5077C103.292 38.0077 110.292 34.5077 114.292 33.0077C115.292 17.5076 102.292 25.5076 98.7915 32.5077Z" stroke="black" stroke-width="0.5"/>
<path d="M234.29 10.0076L231.29 13.5076C248.29 19.0076 258.79 22.0076 271.29 28.5076H272.79L280.79 27.0076C265.79 20.5076 258.29 18.0076 234.29 10.0076Z" stroke="black" stroke-width="0.5"/>
<path d="M271.29 28.5076C260.79 23.0076 241.79 16.5076 231.29 13.5076L229.29 16.0076L244.29 23.5076C242.79 26.0076 238.79 28.0076 232.79 30.7076C244.79 30.0076 261.79 29.0076 271.29 28.5076Z" stroke="black" stroke-width="0.5"/>
<path d="M276.792 34.8076L282.79 32.5076L272.291 28.5076L228.291 31.0076C220.791 46.0076 205.791 76.5076 197.791 77.5076H212.291C210.791 66.5076 220.291 43.0076 245.292 52.0076C255.792 46.5076 265.792 41.0076 276.792 34.8076Z" stroke="black" stroke-width="0.5"/>
<path d="M277.79 34.5076C265.79 41.0076 255.79 46.5076 245.29 52.0076C249.79 55.0076 260.29 61.0076 259.29 80.0076L284.29 79.5076V78.0076C292.79 77.0076 301.29 80.5076 299.79 66.5076L301.79 56.5076C301.79 55.0076 299.29 51.0076 296.79 50.5076C298.29 48.0076 295.29 39.0076 295.29 39.0076V37.5076L291.29 34.5076L286.29 33.0076L282.79 32.5076L277.79 34.5076Z" stroke="black" stroke-width="0.5"/>
<path d="M295.29 37.5076L295.284 37.4277M295.284 37.4277L294.79 29.0076L280.79 27.0076L272.29 28.5076L282.79 32.5076C292.29 33.5076 291.289 35.0076 295.284 37.4277Z" stroke="black" stroke-width="0.5"/>
<path d="M293.792 37.0078C293.292 34.5077 282.292 34.3076 276.792 34.8076" stroke="black" stroke-width="0.5"/>
<path d="M299.792 67.0076L260.292 69.0076C259.792 64.0076 257.625 59.8409 255.792 58.0076L301.792 55.5076M300.292 53.0076C289.292 51.5076 278.292 46.7076 266.292 40.7076M228.292 31.0076L272.292 28.5076L280.792 27.0076" stroke="black" stroke-width="0.5"/>
<path d="M272.292 43.5076C279.287 43.8574 285.304 43.9624 290.685 44.5076M297.292 45.5076C295.189 45.0569 292.995 44.7417 290.685 44.5076M295.292 38.0076C294.874 37.4224 294.404 36.8932 293.9 36.4176M290.685 44.5076C290.358 44.1628 290.264 43.6398 290.25 43.0076M290.25 43.0076C290.236 42.4173 290.292 41.7319 290.292 41.0076C290.292 39.0076 289.292 35.0076 285.792 33.0076C288.012 33.0076 291.389 34.048 293.9 36.4176M290.25 43.0076C293.292 41.5076 294.364 37.9476 293.9 36.4176" stroke="black" stroke-width="0.5"/>
<path d="M290.292 41.0076C285.792 41.0076 283.792 37.0076 282.792 34.5076" stroke="black" stroke-width="0.5"/>
<path d="M132.29 13.1075C118.79 17.1075 106.79 23.0076 92.79 36.0076C99.79 24.0076 115.29 14.5076 130.79 9.50757L132.29 13.1075Z" fill="#EDADBF" stroke="black" stroke-width="0.5"/>
<path d="M130.79 9.50757C110.79 15.1816 92.79 32.5076 84.79 30.5076C97.79 21.0076 113.79 12.5076 130.29 8.00757L130.79 9.50757Z" fill="#EDADBF" stroke="black" stroke-width="0.5"/>
<path d="M9.79071 48.5076H3.79071C1.29004 52.5076 1.29004 62.5076 1.79071 66.0076C0.290039 67.0076 0.290637 71.5076 1.29071 73.0076L5.29071 73.5076V75.0076L1.29071 77.0076V79.0076C5.29071 80.0076 13.7907 82.0076 21.7907 81.5076V80.0076H39.2907C38.624 71.5076 40.2907 61.0076 49.2907 54.0076C46.7907 50.0076 39.7907 45.5076 36.7907 45.0076C26.7907 44.0076 11.7907 46.5076 9.79071 48.5076Z" fill="#EDADBF" stroke="black" stroke-width="0.5"/>
<path d="M92.7915 36.0076C74.9582 36.8409 43.2915 41.7076 32.7915 44.7076L36.7915 45.0076C41.7915 46.5076 47.2915 50.8409 49.2915 54.0076C62.2905 44.5076 87.7905 51.5076 86.2905 79.0076H96.2905C89.2905 68.0076 90.2905 46.0076 92.7915 36.0076Z" fill="#EDADBF" stroke="black" stroke-width="0.5"/>
<path d="M9.79004 48.5076H3.79004C36.2902 29.0075 58.2903 35.0076 84.29 30.5076L93.2903 36.0076C76.2903 37.0076 47.29 40.5076 33.29 44.7076C25.29 44.5076 11.29 46.5076 9.79004 48.5076Z" fill="#EDADBF" stroke="black" stroke-width="0.5"/>
<path d="M36.7915 45.0076C29.2915 44.0076 12.2915 46.0076 9.79149 48.5076C8.99149 50.9076 12.1248 53.8409 13.7915 55.0076C23.2915 56.5076 36.7915 50.5076 36.7915 45.0076Z" fill="#EDADBF" stroke="black" stroke-width="0.5"/>
<path d="M3.79073 48.5076C10.7907 49.5076 4.79073 60.0076 1.79073 65.0076C1.29066 58.0076 1.79053 52.5076 3.79073 48.5076Z" fill="#EDADBF" stroke="black" stroke-width="0.5"/>
<path d="M21.79 84.5076V80.0076H39.29L39.79 84.5076H21.79Z" fill="#EDADBF" stroke="black" stroke-width="0.5"/>
<path d="M2.29199 66.0076C3.79199 68.5076 5.79199 71.6742 5.29199 73.5076M21.792 80.0076C11.292 80.5076 6.79199 76.5076 7.79199 73.0076C8.29199 72.5076 9.79199 71.0076 10.792 71.0076" stroke="black" stroke-width="0.5"/>
<path d="M31.792 75.0076C29.292 71.0076 23.792 66.0076 20.792 64.5076C19.0419 64.0076 16.4169 64.1326 13.6668 64.5076C12.0419 65.841 10.792 69.0076 11.292 72.0076C11.292 73.1742 12.5994 75.5076 15.292 75.5076C19.792 75.5076 26.792 76.0076 31.792 75.0076Z" fill="#EDADBF"/>
<path d="M5.79199 66.0076C8.04193 65.5076 10.9168 64.8826 13.6668 64.5076M13.6668 64.5076C16.4169 64.1326 19.0419 64.0076 20.792 64.5076C23.792 66.0076 29.292 71.0076 31.792 75.0076C26.792 76.0076 19.792 75.5076 15.292 75.5076C12.5994 75.5076 11.292 73.1742 11.292 72.0076C10.792 69.0076 12.0418 65.841 13.6668 64.5076Z" stroke="black" stroke-width="0.5"/>
<path d="M11.292 71.5076C19.292 70.0077 22.792 72.6362 25.792 74.1362M12.792 74.5077L30.292 74.0077" stroke="black" stroke-width="0.5"/>
<path d="M21.79 83.0076H31.29C33.29 83.0076 34.79 81.0076 34.29 80.0076M37.79 80.0076V84.5076" stroke="black" stroke-width="0.5"/>
<path d="M21.7915 81.5078C17.2915 81.5078 12.7915 82.0078 1.29145 79.0078V77.0078L5.29145 75.0078V73.5078L1.29145 73.0078C0.790527 71.5076 -0.209277 68.5076 1.79072 66.0076C1.29096 58.0076 1.79096 51.5076 3.79145 48.5073C36.2915 29.0077 58.2914 35.0078 84.2914 30.5078C162.291 -24.4924 244.291 12.5076 281.291 27.0077L294.791 29.0076L295.291 36.0076V39.0076C296.79 44.0076 298.125 48.5076 296.791 50.5076C299.291 51.5076 301.791 54.6742 301.791 56.5076L299.791 66.5076C300.243 77.3555 297.835 77.5798 288.504 77.8922C287.513 77.9254 285.444 77.9596 284.291 78.0076V79.5076L259.291 79.9386M21.7915 81.5078V84.5078H39.7898L39.2915 80.0078M21.7915 81.5078V80.0078H39.2915M39.2915 80.0078C36.2915 38.5078 89.7914 41.5078 86.2914 80.5078V83.0076H212.791C206.791 39.5076 261.291 39.5076 259.291 79.9386M258.79 79.9386H259.291" stroke="black"/>
</svg>
