<svg width="303" height="96" viewBox="0 0 303 96" fill="none" xmlns="http://www.w3.org/2000/svg">
<circle cx="62.6978" cy="74.2146" r="20.5" stroke="black"/>
<circle cx="235.698" cy="74.2146" r="20.5" stroke="black"/>
<path d="M132.696 12.7145L131.196 9.21445C171.196 1.21457 192.696 1.7146 231.696 13.2145L228.196 17.7145C208.196 9.71451 190.196 8.71451 174.196 8.21458C171.696 7.71458 167.696 7.71454 165.196 8.21445C155.196 8.21458 143.196 9.71458 132.696 12.7145Z" fill="#E56E90" stroke="black" stroke-width="0.5"/>
<path d="M131.196 9.21464L130.696 7.71464C166.696 -3.2854 199.196 0.714474 234.696 9.71465L231.696 13.2146C191.696 0.7146 165.696 2.2146 131.196 9.21464Z" fill="#E56E90" stroke="black" stroke-width="0.5"/>
<path d="M131.196 9.21447C182.696 -2.28556 211.196 7.71448 231.696 13.2145" stroke="black" stroke-width="0.5"/>
<path d="M170.698 30.2146L174.198 8.2146C207.698 9.2146 219.198 14.7146 223.698 16.2146L226.181 28.2146C199.19 28.2152 181.695 29.7147 170.698 30.2146Z" fill="#E56E90"/>
<path d="M226.698 30.7146L223.698 16.2146C219.198 14.7146 207.698 9.2146 174.198 8.2146L170.698 30.2146C181.698 29.7146 199.198 28.2146 226.198 28.2146" stroke="black" stroke-width="0.5"/>
<path d="M165.198 8.2146C132.198 9.2146 112.198 18.2146 93.1978 35.7146L95.6978 33.7146L159.698 30.7146L165.198 8.2146Z" fill="#E56E90" stroke="black" stroke-width="0.5"/>
<path d="M239.696 22.7146C236.03 20.0479 230.196 17.7146 223.696 16.2146L226.196 28.2146H232.696C235.696 26.7146 238.696 24.4833 239.696 22.7146Z" fill="#E56E90" stroke="black" stroke-width="0.5"/>
<path d="M96.6978 78.7146H163.698L198.198 77.2146H212.698L213.198 82.7146H199.198H98.1978H86.6978V78.7146H96.6978Z" fill="#E56E90"/>
<path d="M96.6978 78.7146H163.698L198.198 77.2146M96.6978 78.7146C96.6978 80.2146 97.1978 81.2146 98.1978 82.7146M96.6978 78.7146H86.6978V82.7146H98.1978M198.198 77.2146L199.198 82.7146M198.198 77.2146H212.698L213.198 82.7146H199.198M199.198 82.7146H98.1978" stroke="black" stroke-width="0.5"/>
<path d="M96.6969 78.7146C92.1977 74.2146 89.1978 52.2146 93.1969 35.7146L165.198 31.7146C161.198 36.7146 160.198 70.7146 163.698 78.7146H96.6969Z" fill="#E56E90" stroke="black" stroke-width="0.5"/>
<path d="M228.697 30.7146L165.197 31.7146C161.197 36.7146 160.198 70.7146 163.697 78.7146L198.197 77.2146C202.697 75.7146 209.197 70.2146 228.697 30.7146Z" fill="#E56E90" stroke="black" stroke-width="0.5"/>
<path d="M170.698 30.2147C166.198 30.7147 162.698 30.7147 159.698 30.7147L165.198 8.21467C168.198 7.7146 171.198 7.7146 174.198 8.21467L170.698 30.2147Z" fill="#E56E90" stroke="black" stroke-width="0.5"/>
<path d="M99.1978 32.2146C103.698 37.7146 110.698 34.2146 114.698 32.7146C115.698 17.2145 102.698 25.2145 99.1978 32.2146Z" fill="#E56E90" stroke="black" stroke-width="0.5"/>
<path d="M234.696 9.7146L231.696 13.2146C248.696 18.7146 259.196 21.7146 271.696 28.2146H273.196L281.196 26.7146C266.196 20.2146 258.696 17.7146 234.696 9.7146Z" stroke="black" stroke-width="0.5"/>
<path d="M271.696 28.2146C261.196 22.7146 242.196 16.2146 231.696 13.2146L229.696 15.7146L244.696 23.2146C243.196 25.7146 239.196 27.7146 233.196 30.4146C245.196 29.7146 262.196 28.7146 271.696 28.2146Z" stroke="black" stroke-width="0.5"/>
<path d="M277.198 34.5146L283.196 32.2146L272.697 28.2146L228.697 30.7146C221.197 45.7146 206.197 76.2146 198.197 77.2146H212.697C211.197 66.2146 220.697 42.7146 245.698 51.7146C256.198 46.2146 266.198 40.7146 277.198 34.5146Z" stroke="black" stroke-width="0.5"/>
<path d="M278.196 34.2146C266.196 40.7146 256.196 46.2146 245.696 51.7146C250.196 54.7146 260.696 60.7146 259.696 79.7146L284.696 79.2146V77.7146C293.196 76.7146 301.696 80.2146 300.196 66.2146L302.196 56.2146C302.196 54.7146 299.696 50.7146 297.196 50.2146C298.696 47.7146 295.696 38.7146 295.696 38.7146V37.2146L291.696 34.2146L286.696 32.7146L283.196 32.2146L278.196 34.2146Z" stroke="black" stroke-width="0.5"/>
<path d="M295.696 37.2146L295.69 37.1348M295.69 37.1348L295.196 28.7146L281.196 26.7146L272.696 28.2146L283.196 32.2146C292.696 33.2146 291.695 34.7146 295.69 37.1348Z" stroke="black" stroke-width="0.5"/>
<path d="M294.198 36.7148C293.698 34.2147 282.698 34.0146 277.198 34.5146" stroke="black" stroke-width="0.5"/>
<path d="M300.198 66.7146L260.698 68.7146C260.198 63.7146 258.031 59.5479 256.198 57.7146L302.198 55.2146M300.698 52.7146C289.698 51.2146 278.698 46.4146 266.698 40.4146M228.698 30.7146L272.698 28.2146L281.198 26.7146" stroke="black" stroke-width="0.5"/>
<path d="M272.698 43.2146C279.693 43.5644 285.71 43.6695 291.091 44.2146M297.698 45.2146C295.595 44.764 293.402 44.4487 291.091 44.2146M295.698 37.7146C295.28 37.1295 294.811 36.6002 294.307 36.1246M291.091 44.2146C290.765 43.8698 290.671 43.3468 290.656 42.7146M290.656 42.7146C290.642 42.1243 290.698 41.4389 290.698 40.7146C290.698 38.7146 289.698 34.7146 286.198 32.7146C288.419 32.7146 291.795 33.755 294.307 36.1246M290.656 42.7146C293.698 41.2146 294.77 37.6546 294.307 36.1246" stroke="black" stroke-width="0.5"/>
<path d="M290.698 40.7146C286.198 40.7146 284.198 36.7146 283.198 34.2146" stroke="black" stroke-width="0.5"/>
<path d="M132.696 12.8146C119.196 16.8146 107.196 22.7146 93.1963 35.7146C100.196 23.7146 115.696 14.2146 131.196 9.2146L132.696 12.8146Z" fill="#E56E90" stroke="black" stroke-width="0.5"/>
<path d="M131.196 9.2146C111.196 14.8886 93.1963 32.2146 85.1963 30.2146C98.1963 20.7146 114.196 12.2146 130.696 7.7146L131.196 9.2146Z" fill="#E56E90" stroke="black" stroke-width="0.5"/>
<path d="M10.197 48.2145H4.19696C1.69629 52.2145 1.69629 62.2145 2.19696 65.7145C0.696289 66.7145 0.696887 71.2145 1.69696 72.7145L5.69696 73.2145V74.7145L1.69696 76.7145V78.7145C5.69696 79.7145 14.197 81.7145 22.197 81.2145V79.7145H39.697C39.0303 71.2145 40.697 60.7145 49.697 53.7145C47.197 49.7145 40.197 45.2145 37.197 44.7145C27.197 43.7145 12.197 46.2145 10.197 48.2145Z" fill="#E56E90" stroke="black" stroke-width="0.5"/>
<path d="M93.1978 35.7146C75.3644 36.5479 43.6978 41.4146 33.1978 44.4146L37.1978 44.7146C42.1978 46.2146 47.6978 50.5479 49.6978 53.7146C62.6968 44.2146 88.1968 51.2146 86.6968 78.7146H96.6968C89.6968 67.7146 90.6968 45.7146 93.1978 35.7146Z" fill="#E56E90" stroke="black" stroke-width="0.5"/>
<path d="M10.1963 48.2147H4.19629C36.6965 28.7146 58.6965 34.7146 84.6963 30.2146L93.6965 35.7146C76.6965 36.7146 47.6963 40.2146 33.6963 44.4146C25.6963 44.2146 11.6963 46.2146 10.1963 48.2147Z" fill="#E56E90" stroke="black" stroke-width="0.5"/>
<path d="M37.1977 44.7147C29.6977 43.7146 12.6977 45.7146 10.1977 48.2147C9.39774 50.6146 12.5311 53.5479 14.1977 54.7146C23.6978 56.2146 37.1977 50.2146 37.1977 44.7147Z" fill="#E56E90" stroke="black" stroke-width="0.5"/>
<path d="M4.19698 48.2146C11.197 49.2146 5.19698 59.7146 2.19698 64.7146C1.69691 57.7146 2.19678 52.2146 4.19698 48.2146Z" fill="#E56E90" stroke="black" stroke-width="0.5"/>
<path d="M22.1963 84.2146V79.7146H39.6963L40.1963 84.2146H22.1963Z" fill="#E56E90" stroke="black" stroke-width="0.5"/>
<path d="M2.69824 65.7144C4.19824 68.2144 6.19824 71.381 5.69824 73.2144M22.1982 79.7144C11.6982 80.2144 7.19824 76.2144 8.19824 72.7144C8.69824 72.2144 10.1982 70.7144 11.1982 70.7144" stroke="black" stroke-width="0.5"/>
<path d="M32.1982 74.7145C29.6982 70.7145 24.1982 65.7146 21.1982 64.2146C19.4482 63.7145 16.8231 63.8395 14.073 64.2146C12.4481 65.5479 11.1982 68.7145 11.6982 71.7145C11.6982 72.8811 13.0057 75.2145 15.6982 75.2145C20.1982 75.2145 27.1982 75.7145 32.1982 74.7145Z" fill="#E56E90"/>
<path d="M6.19824 65.7146C8.44818 65.2145 11.3231 64.5896 14.073 64.2146M14.073 64.2146C16.8231 63.8395 19.4482 63.7145 21.1982 64.2146C24.1982 65.7146 29.6982 70.7145 32.1982 74.7145C27.1982 75.7145 20.1982 75.2145 15.6982 75.2145C13.0057 75.2145 11.6982 72.8811 11.6982 71.7145C11.1982 68.7145 12.4481 65.5479 14.073 64.2146Z" stroke="black" stroke-width="0.5"/>
<path d="M11.6982 71.2146C19.6982 69.7146 23.1982 72.3431 26.1982 73.8431M13.1982 74.2146L30.6982 73.7146" stroke="black" stroke-width="0.5"/>
<path d="M22.1963 82.7144H31.6963C33.6963 82.7144 35.1963 80.7144 34.6963 79.7144M38.1963 79.7144V84.2144" stroke="black" stroke-width="0.5"/>
<path d="M22.1977 81.2148C17.6977 81.2148 13.1977 81.7148 1.6977 78.7148V76.7148L5.6977 74.7148V73.2148L1.6977 72.7149C1.19678 71.2146 0.196973 68.2146 2.19697 65.7146C1.69721 57.7146 2.19721 51.2146 4.1977 48.2143C36.6977 28.7147 58.6977 34.7148 84.6977 30.2148C162.698 -24.7853 244.698 12.2146 281.698 26.7148L295.198 28.7146L295.698 35.7146V38.7146C297.196 43.7146 298.531 48.2146 297.198 50.2146C299.698 51.2146 302.198 54.3813 302.198 56.2146L300.198 66.2146C300.65 77.0625 298.242 77.2868 288.91 77.5992C287.919 77.6324 285.85 77.6666 284.698 77.7146V79.2146L259.698 79.6456M22.1977 81.2148V84.2148H40.196L39.6977 79.7148M22.1977 81.2148V79.7148H39.6977M39.6977 79.7148C36.6977 38.2148 90.1977 41.2148 86.6977 80.2148V82.7146H213.198C207.198 39.2146 261.698 39.2146 259.698 79.6456M259.196 79.6456H259.698" stroke="black"/>
</svg>
