<svg width="303" height="95" viewBox="0 0 303 95" fill="none" xmlns="http://www.w3.org/2000/svg">
<circle cx="62.2607" cy="73.8459" r="20.5" fill="#E56E90" stroke="black"/>
<circle cx="235.261" cy="73.8459" r="20.5" fill="#E56E90" stroke="black"/>
<path d="M132.259 12.3458L130.759 8.8458C170.759 0.845915 192.259 1.34595 231.259 12.8459L227.759 17.3459C207.759 9.34586 189.759 8.34586 173.759 7.84592C171.259 7.34592 167.259 7.34589 164.759 7.8458C154.759 7.84592 142.759 9.34592 132.259 12.3458Z" stroke="black" stroke-width="0.5"/>
<path d="M130.759 8.84599L130.259 7.34599C166.259 -3.65405 198.759 0.345821 234.259 9.34599L231.259 12.846C191.259 0.345947 165.259 1.84595 130.759 8.84599Z" stroke="black" stroke-width="0.5"/>
<path d="M130.759 8.84593C182.259 -2.65409 210.759 7.34595 231.259 12.8459" stroke="black" stroke-width="0.5"/>
<path d="M226.261 30.3459L223.261 15.8459C218.761 14.3459 207.261 8.84595 173.761 7.84595L170.261 29.8459C181.261 29.3459 198.761 27.8459 225.761 27.8459" stroke="black" stroke-width="0.5"/>
<path d="M164.761 7.84595C131.761 8.84595 111.761 17.8459 92.7607 35.3459L95.2607 33.3459L159.261 30.3459L164.761 7.84595Z" stroke="black" stroke-width="0.5"/>
<path d="M239.259 22.3459C235.592 19.6793 229.759 17.3459 223.259 15.8459L225.759 27.8459H232.259C235.259 26.3459 238.259 24.1147 239.259 22.3459Z" stroke="black" stroke-width="0.5"/>
<path d="M96.2607 78.3459H163.261L197.761 76.8459M96.2607 78.3459C96.2607 79.8459 96.7607 80.8459 97.7607 82.3459M96.2607 78.3459H86.2607V82.3459H97.7607M197.761 76.8459L198.761 82.3459M197.761 76.8459H212.261L212.761 82.3459H198.761M198.761 82.3459H97.7607" stroke="black" stroke-width="0.5"/>
<path d="M96.2599 78.3459C91.7607 73.8459 88.7608 51.8459 92.7599 35.3459L164.761 31.3459C160.761 36.3459 159.761 70.3459 163.261 78.3459H96.2599Z" stroke="black" stroke-width="0.5"/>
<path d="M228.261 30.3459L164.761 31.3459C160.761 36.3459 159.761 70.3459 163.261 78.3459L197.761 76.8459C202.261 75.3459 208.761 69.8459 228.261 30.3459Z" stroke="black" stroke-width="0.5"/>
<path d="M170.261 29.846C165.761 30.346 162.261 30.346 159.261 30.346L164.761 7.84602C167.761 7.34595 170.761 7.34595 173.761 7.84602L170.261 29.846Z" stroke="black" stroke-width="0.5"/>
<path d="M98.7607 31.8461C103.261 37.3461 110.261 33.8461 114.261 32.3461C115.261 16.846 102.261 24.8459 98.7607 31.8461Z" stroke="black" stroke-width="0.5"/>
<path d="M234.259 9.34595L231.259 12.8459C248.259 18.3459 258.759 21.3459 271.259 27.8459H272.759L280.759 26.3459C265.759 19.8459 258.259 17.3459 234.259 9.34595Z" fill="#E56E90" stroke="black" stroke-width="0.5"/>
<path d="M271.259 27.8459C260.759 22.3459 241.759 15.8459 231.259 12.8459L229.259 15.3459L244.259 22.8459C242.759 25.3459 238.759 27.3459 232.759 30.0459C244.759 29.3459 261.759 28.3459 271.259 27.8459Z" fill="#E56E90" stroke="black" stroke-width="0.5"/>
<path d="M276.761 34.1459L282.759 31.8459L272.26 27.8459L228.26 30.3459C220.76 45.3459 205.76 75.8459 197.76 76.8459H212.26C210.76 65.8459 220.26 42.3459 245.261 51.3459C255.761 45.8459 265.761 40.3459 276.761 34.1459Z" fill="#E56E90" stroke="black" stroke-width="0.5"/>
<path d="M277.759 33.846C265.759 40.346 255.759 45.846 245.259 51.346C249.759 54.3459 260.259 60.3459 259.259 79.3459L284.259 78.8459V77.3459C292.759 76.3459 301.259 79.8459 299.759 65.8459L301.759 55.8459C301.759 54.3459 299.259 50.3459 296.759 49.8459C298.259 47.3459 295.259 38.3459 295.259 38.3459V36.8459L291.259 33.8459L286.259 32.3459L282.759 31.8459L277.759 33.846Z" fill="#E56E90" stroke="black" stroke-width="0.5"/>
<path d="M280.759 26.3459L272.259 27.8459L282.759 31.8459C292.259 32.8459 291.258 34.3459 295.253 36.7661L294.759 28.3459L280.759 26.3459Z" fill="#E56E90"/>
<path d="M295.259 36.8459L295.253 36.7661M295.253 36.7661L294.759 28.3459L280.759 26.3459L272.259 27.8459L282.759 31.8459C292.259 32.8459 291.258 34.3459 295.253 36.7661Z" stroke="black" stroke-width="0.5"/>
<path d="M293.761 36.3461C293.261 33.846 282.261 33.646 276.761 34.146" stroke="black" stroke-width="0.5"/>
<path d="M299.761 66.3459L260.261 68.3459C259.761 63.3459 257.594 59.1793 255.761 57.3459L301.761 54.8459M300.261 52.3459C289.261 50.8459 278.261 46.0459 266.261 40.0459M228.261 30.3459L272.261 27.8459L280.761 26.3459" stroke="black" stroke-width="0.5"/>
<path d="M290.261 40.3459C290.261 38.3459 289.261 34.3459 285.761 32.3459C287.982 32.3459 291.358 33.3863 293.87 35.7559C294.333 37.2859 293.261 40.8459 290.219 42.3459C290.205 41.7557 290.261 41.0702 290.261 40.3459Z" fill="#E56E90"/>
<path d="M272.261 42.8459C279.256 43.1957 285.273 43.3008 290.654 43.8459M297.261 44.8459C295.158 44.3953 292.964 44.08 290.654 43.8459M295.261 37.3459C294.843 36.7608 294.374 36.2316 293.87 35.7559M290.654 43.8459C290.328 43.5012 290.234 42.9781 290.219 42.3459M290.219 42.3459C290.205 41.7557 290.261 41.0702 290.261 40.3459C290.261 38.3459 289.261 34.3459 285.761 32.3459C287.982 32.3459 291.358 33.3863 293.87 35.7559M290.219 42.3459C293.261 40.8459 294.333 37.2859 293.87 35.7559" stroke="black" stroke-width="0.5"/>
<path d="M290.261 40.3459C285.761 40.3459 283.761 36.3459 282.761 33.8459" stroke="black" stroke-width="0.5"/>
<path d="M132.259 12.4459C118.759 16.4459 106.759 22.3459 92.7588 35.3459C99.7588 23.3459 115.259 13.8459 130.759 8.84595L132.259 12.4459Z" fill="#E0426F" stroke="black" stroke-width="0.5"/>
<path d="M130.759 8.84595C110.759 14.52 92.7588 31.8459 84.7588 29.8459C97.7588 20.3459 113.759 11.8459 130.259 7.34595L130.759 8.84595Z" fill="#E0426F" stroke="black" stroke-width="0.5"/>
<path d="M9.75946 47.846H3.75946C1.25879 51.8459 1.25879 61.8459 1.75946 65.3459C0.258789 66.3459 0.259387 70.8459 1.25946 72.3459L5.25946 72.8459V74.3459L1.25946 76.3459V78.3459C5.25946 79.3459 13.7595 81.3459 21.7595 80.8459V79.3459H39.2595C38.5928 70.8459 40.2595 60.3459 49.2595 53.3459C46.7595 49.3459 39.7595 44.8459 36.7595 44.346C26.7595 43.3459 11.7595 45.846 9.75946 47.846Z" fill="#E0426F" stroke="black" stroke-width="0.5"/>
<path d="M92.7607 35.3459C74.9274 36.1793 43.2607 41.0459 32.7607 44.0459L36.7607 44.3459C41.7607 45.8459 47.2607 50.1793 49.2607 53.3459C62.2598 43.8459 87.7598 50.8459 86.2598 78.3459H96.2598C89.2598 67.3459 90.2598 45.3459 92.7607 35.3459Z" fill="#E0426F" stroke="black" stroke-width="0.5"/>
<path d="M9.75879 47.846H3.75879C36.259 28.3459 58.259 34.3459 84.2588 29.8459L93.259 35.3459C76.259 36.3459 47.2588 39.8459 33.2588 44.046C25.2588 43.8459 11.2588 45.8459 9.75879 47.846Z" fill="#E0426F" stroke="black" stroke-width="0.5"/>
<path d="M36.7602 44.346C29.2602 43.3459 12.2602 45.3459 9.76024 47.846C8.96024 50.246 12.0936 53.1793 13.7602 54.3459C23.2603 55.8459 36.7602 49.8459 36.7602 44.346Z" fill="#E0426F" stroke="black" stroke-width="0.5"/>
<path d="M3.75948 47.8459C10.7595 48.8459 4.75948 59.3459 1.75948 64.3459C1.25941 57.3459 1.75928 51.8459 3.75948 47.8459Z" fill="#E0426F" stroke="black" stroke-width="0.5"/>
<path d="M21.7588 83.8459V79.3459H39.2588L39.7588 83.8459H21.7588Z" fill="#E0426F" stroke="black" stroke-width="0.5"/>
<path d="M2.26074 65.3459C3.76074 67.8459 5.76074 71.0126 5.26074 72.8459M21.7607 79.3459C11.2607 79.8459 6.76074 75.8459 7.76074 72.3459C8.26074 71.8459 9.76074 70.3459 10.7607 70.3459" stroke="black" stroke-width="0.5"/>
<path d="M31.7607 74.3459C29.2607 70.3459 23.7607 65.346 20.7607 63.846C19.0107 63.346 16.3856 63.471 13.6355 63.846C12.0106 65.1793 10.7607 68.3459 11.2607 71.3459C11.2607 72.5126 12.5682 74.8459 15.2607 74.8459C19.7607 74.8459 26.7607 75.3459 31.7607 74.3459Z" fill="#E0426F"/>
<path d="M5.76074 65.346C8.01068 64.846 10.8856 64.221 13.6355 63.846M13.6355 63.846C16.3856 63.471 19.0107 63.346 20.7607 63.846C23.7607 65.346 29.2607 70.3459 31.7607 74.3459C26.7607 75.3459 19.7607 74.8459 15.2607 74.8459C12.5682 74.8459 11.2607 72.5126 11.2607 71.3459C10.7607 68.3459 12.0106 65.1793 13.6355 63.846Z" stroke="black" stroke-width="0.5"/>
<path d="M11.2607 70.846C19.2607 69.3461 22.7607 71.9745 25.7607 73.4745M12.7607 73.8461L30.2607 73.3461" stroke="black" stroke-width="0.5"/>
<path d="M21.7588 82.3459H31.2588C33.2588 82.3459 34.7588 80.3459 34.2588 79.3459M37.7588 79.3459V83.8459" stroke="black" stroke-width="0.5"/>
<path d="M21.7607 80.8462C17.2607 80.8462 12.7607 81.3462 1.26069 78.3462V76.3462L5.26069 74.3462V72.8462L1.26069 72.3462C0.759766 70.8459 -0.240039 67.8459 1.75996 65.3459C1.2602 57.3459 1.7602 50.8459 3.76069 47.8457C36.2607 28.3461 58.2607 34.3461 84.2607 29.8461C162.261 -25.154 244.261 11.8459 281.261 26.3461L294.761 28.3459L295.261 35.3459V38.3459C296.759 43.3459 298.094 47.8459 296.761 49.8459C299.261 50.8459 301.761 54.0126 301.761 55.8459L299.761 65.8459C300.213 76.6939 297.805 76.9181 288.473 77.2306C287.482 77.2638 285.413 77.2979 284.261 77.3459V78.8459L259.261 79.277M21.7607 80.8462V83.8462H39.759L39.2607 79.3462M21.7607 80.8462V79.3462H39.2607M39.2607 79.3462C36.2607 37.8462 89.7607 40.8462 86.2607 79.8462V82.3459H212.761C206.761 38.8459 261.261 38.8459 259.261 79.277M258.759 79.277H259.261" stroke="black"/>
</svg>
