<svg width="303" height="96" viewBox="0 0 303 96" fill="none" xmlns="http://www.w3.org/2000/svg">
<circle cx="62.6875" cy="74.1692" r="20.5" stroke="black"/>
<circle cx="235.688" cy="74.1692" r="20.5" stroke="black"/>
<path d="M132.686 12.669L131.186 9.16904C171.186 1.16916 192.686 1.66919 231.686 13.1691L228.186 17.6691C208.186 9.6691 190.186 8.6691 174.186 8.16917C171.686 7.66917 167.686 7.66913 165.186 8.16904C155.186 8.16917 143.186 9.66917 132.686 12.669Z" stroke="black" stroke-width="0.5"/>
<path d="M131.186 9.16923L130.686 7.66923C166.686 -3.33081 199.186 0.669064 234.686 9.66924L231.686 13.1692C191.686 0.669189 165.686 2.16919 131.186 9.16923Z" stroke="black" stroke-width="0.5"/>
<path d="M131.186 9.16918C182.686 -2.33085 211.186 7.66919 231.686 13.1692" stroke="black" stroke-width="0.5"/>
<path d="M226.688 30.6692L223.688 16.1692C219.188 14.6692 207.688 9.16919 174.188 8.16919L170.688 30.1692C181.688 29.6692 199.188 28.1692 226.188 28.1692" stroke="black" stroke-width="0.5"/>
<path d="M165.188 8.16919C132.188 9.16919 112.188 18.1692 93.1875 35.6692L95.6875 33.6692L159.688 30.6692L165.188 8.16919Z" stroke="black" stroke-width="0.5"/>
<path d="M239.686 22.6692C236.019 20.0025 230.186 17.6692 223.686 16.1692L226.186 28.1692H232.686C235.686 26.6692 238.686 24.4379 239.686 22.6692Z" stroke="black" stroke-width="0.5"/>
<path d="M96.6875 78.6692H163.688L198.188 77.1692M96.6875 78.6692C96.6875 80.1692 97.1875 81.1692 98.1875 82.6692M96.6875 78.6692H86.6875V82.6692H98.1875M198.188 77.1692L199.188 82.6692M198.188 77.1692H212.688L213.188 82.6692H199.188M199.188 82.6692H98.1875" stroke="black" stroke-width="0.5"/>
<path d="M96.6866 78.6692C92.1875 74.1692 89.1875 52.1692 93.1866 35.6692L165.188 31.6692C161.188 36.6692 160.188 70.6692 163.687 78.6692H96.6866Z" stroke="black" stroke-width="0.5"/>
<path d="M228.687 30.6692L165.187 31.6692C161.188 36.6692 160.188 70.6692 163.687 78.6692L198.187 77.1692C202.687 75.6692 209.187 70.1692 228.687 30.6692Z" stroke="black" stroke-width="0.5"/>
<path d="M170.688 30.1693C166.188 30.6693 162.688 30.6693 159.688 30.6693L165.188 8.16926C168.188 7.66919 171.188 7.66919 174.188 8.16926L170.688 30.1693Z" stroke="black" stroke-width="0.5"/>
<path d="M99.1875 32.1693C103.688 37.6693 110.688 34.1693 114.688 32.6693C115.688 17.1692 102.688 25.1692 99.1875 32.1693Z" stroke="black" stroke-width="0.5"/>
<path d="M234.686 9.66919L231.686 13.1692C248.686 18.6692 259.186 21.6692 271.686 28.1692H273.186L281.186 26.6692C266.186 20.1692 258.686 17.6692 234.686 9.66919Z" fill="#EFC7D3" stroke="black" stroke-width="0.5"/>
<path d="M271.686 28.1692C261.186 22.6692 242.186 16.1692 231.686 13.1692L229.686 15.6692L244.686 23.1692C243.186 25.6692 239.186 27.6692 233.186 30.3692C245.186 29.6692 262.186 28.6692 271.686 28.1692Z" fill="#EFC7D3" stroke="black" stroke-width="0.5"/>
<path d="M277.188 34.4692L283.186 32.1692L272.687 28.1692L228.687 30.6692C221.187 45.6692 206.187 76.1692 198.187 77.1692H212.687C211.187 66.1692 220.687 42.6692 245.688 51.6692C256.188 46.1692 266.188 40.6692 277.188 34.4692Z" fill="#EFC7D3" stroke="black" stroke-width="0.5"/>
<path d="M278.186 34.1692C266.186 40.6692 256.186 46.1692 245.686 51.6692C250.186 54.6692 260.686 60.6692 259.686 79.6692L284.686 79.1692V77.6692C293.186 76.6692 301.686 80.1692 300.186 66.1692L302.186 56.1692C302.186 54.6692 299.686 50.6692 297.186 50.1692C298.686 47.6692 295.686 38.6692 295.686 38.6692V37.1692L291.686 34.1692L286.686 32.6692L283.186 32.1692L278.186 34.1692Z" fill="#EFC7D3" stroke="black" stroke-width="0.5"/>
<path d="M281.186 26.6692L272.686 28.1692L283.186 32.1692C292.686 33.1692 291.684 34.6692 295.68 37.0894L295.186 28.6692L281.186 26.6692Z" fill="#EFC7D3"/>
<path d="M295.686 37.1692L295.68 37.0894M295.68 37.0894L295.186 28.6692L281.186 26.6692L272.686 28.1692L283.186 32.1692C292.686 33.1692 291.684 34.6692 295.68 37.0894Z" stroke="black" stroke-width="0.5"/>
<path d="M294.188 36.6694C293.688 34.1693 282.688 33.9692 277.188 34.4692" stroke="black" stroke-width="0.5"/>
<path d="M300.188 66.6692L260.688 68.6692C260.188 63.6692 258.021 59.5025 256.188 57.6692L302.188 55.1692M300.688 52.6692C289.688 51.1692 278.688 46.3692 266.688 40.3692M228.688 30.6692L272.688 28.1692L281.188 26.6692" stroke="black" stroke-width="0.5"/>
<path d="M290.688 40.6692C290.688 38.6692 289.688 34.6692 286.188 32.6692C288.408 32.6692 291.785 33.7096 294.296 36.0792C294.76 37.6092 293.688 41.1692 290.646 42.6692C290.632 42.0789 290.688 41.3935 290.688 40.6692Z" fill="#EFC7D3"/>
<path d="M272.688 43.1692C279.683 43.519 285.7 43.6241 291.081 44.1692M297.688 45.1692C295.585 44.7185 293.391 44.4033 291.081 44.1692M295.688 37.6692C295.27 37.0841 294.8 36.5548 294.296 36.0792M291.081 44.1692C290.754 43.8244 290.66 43.3014 290.646 42.6692M290.646 42.6692C290.632 42.0789 290.688 41.3935 290.688 40.6692C290.688 38.6692 289.688 34.6692 286.188 32.6692C288.408 32.6692 291.785 33.7096 294.296 36.0792M290.646 42.6692C293.688 41.1692 294.76 37.6092 294.296 36.0792" stroke="black" stroke-width="0.5"/>
<path d="M290.688 40.6692C286.188 40.6692 284.188 36.6692 283.188 34.1692" stroke="black" stroke-width="0.5"/>
<path d="M132.686 12.7692C119.186 16.7692 107.186 22.6692 93.186 35.6692C100.186 23.6692 115.686 14.1692 131.186 9.16919L132.686 12.7692Z" stroke="black" stroke-width="0.5"/>
<path d="M131.186 9.16919C111.186 14.8432 93.186 32.1692 85.186 30.1692C98.186 20.6692 114.186 12.1692 130.686 7.66919L131.186 9.16919Z" stroke="black" stroke-width="0.5"/>
<path d="M10.1867 48.1692H4.1867C1.68604 52.1692 1.68604 62.1692 2.1867 65.6692C0.686035 66.6692 0.686633 71.1692 1.6867 72.6692L5.6867 73.1692V74.6692L1.6867 76.6692V78.6692C5.6867 79.6692 14.1867 81.6692 22.1867 81.1692V79.6692H39.6867C39.02 71.1692 40.6867 60.6692 49.6867 53.6692C47.1867 49.6692 40.1867 45.1692 37.1867 44.6692C27.1867 43.6692 12.1867 46.1692 10.1867 48.1692Z" stroke="black" stroke-width="0.5"/>
<path d="M93.1875 35.6692C75.3542 36.5025 43.6875 41.3692 33.1875 44.3692L37.1875 44.6692C42.1875 46.1692 47.6875 50.5025 49.6875 53.6692C62.6865 44.1692 88.1865 51.1692 86.6865 78.6692H96.6865C89.6865 67.6692 90.6865 45.6692 93.1875 35.6692Z" stroke="black" stroke-width="0.5"/>
<path d="M10.1855 48.1692H4.18555C36.6857 28.6691 58.6858 34.6692 84.6855 30.1692L93.6858 35.6692C76.6858 36.6692 47.6855 40.1692 33.6855 44.3692C25.6855 44.1692 11.6855 46.1692 10.1855 48.1692Z" stroke="black" stroke-width="0.5"/>
<path d="M37.1875 44.6693C29.6875 43.6692 12.6875 45.6692 10.1875 48.1693C9.38749 50.5692 12.5208 53.5025 14.1875 54.6692C23.6875 56.1692 37.1875 50.1692 37.1875 44.6693Z" stroke="black" stroke-width="0.5"/>
<path d="M4.18673 48.1692C11.1867 49.1692 5.18673 59.6692 2.18673 64.6692C1.68666 57.6692 2.18652 52.1692 4.18673 48.1692Z" stroke="black" stroke-width="0.5"/>
<path d="M22.186 84.1692V79.6692H39.686L40.186 84.1692H22.186Z" stroke="black" stroke-width="0.5"/>
<path d="M2.6875 65.6692C4.1875 68.1692 6.1875 71.3359 5.6875 73.1692M22.1875 79.6692C11.6875 80.1692 7.1875 76.1692 8.1875 72.6692C8.6875 72.1692 10.1875 70.6692 11.1875 70.6692" stroke="black" stroke-width="0.5"/>
<path d="M6.1875 65.6693C8.43744 65.1692 11.3124 64.5443 14.0623 64.1693M14.0623 64.1693C16.8124 63.7943 19.4375 63.6693 21.1875 64.1693C24.1875 65.6693 29.6875 70.6692 32.1875 74.6692C27.1875 75.6692 20.1875 75.1692 15.6875 75.1692C12.9949 75.1692 11.6875 72.8359 11.6875 71.6692C11.1875 68.6692 12.4374 65.5026 14.0623 64.1693Z" stroke="black" stroke-width="0.5"/>
<path d="M11.6875 71.1693C19.6875 69.6693 23.1875 72.2978 26.1875 73.7978M13.1875 74.1693L30.6875 73.6693" stroke="black" stroke-width="0.5"/>
<path d="M22.1855 82.6692H31.6855C33.6855 82.6692 35.1855 80.6692 34.6855 79.6692M38.1855 79.6692V84.1692" stroke="black" stroke-width="0.5"/>
<path d="M22.1874 81.1694C17.6874 81.1694 13.1874 81.6694 1.68745 78.6694V76.6694L5.68745 74.6694V73.1694L1.68745 72.6694C1.18652 71.1692 0.186719 68.1692 2.18671 65.6692C1.68696 57.6692 2.18696 51.1692 4.18745 48.1689C36.6874 28.6693 58.6874 34.6694 84.6874 30.1694C162.687 -24.8307 244.687 12.1692 281.687 26.6694L295.187 28.6692L295.687 35.6692V38.6692C297.186 43.6692 298.521 48.1692 297.187 50.1692C299.687 51.1692 302.187 54.3359 302.187 56.1692L300.187 66.1692C300.639 77.0171 298.231 77.2414 288.9 77.5538C287.909 77.587 285.84 77.6212 284.687 77.6692V79.1692L259.687 79.6002M22.1874 81.1694V84.1694H40.1858L39.6875 79.6694M22.1874 81.1694V79.6694H39.6875M39.6875 79.6694C36.6875 38.1694 90.1874 41.1694 86.6874 80.1694V82.6692H213.187C207.187 39.1692 261.687 39.1692 259.687 79.6002M259.186 79.6002H259.687" stroke="black"/>
</svg>
