<svg width="303" height="95" viewBox="0 0 303 95" fill="none" xmlns="http://www.w3.org/2000/svg">
<circle cx="62.6562" cy="73.8459" r="20.5" stroke="black"/>
<circle cx="235.656" cy="73.8459" r="20.5" stroke="black"/>
<path d="M132.654 12.3458L131.154 8.8458C171.154 0.845915 192.654 1.34595 231.654 12.8459L228.154 17.3459C208.154 9.34586 190.154 8.34586 174.154 7.84592C171.654 7.34592 167.654 7.34589 165.154 7.8458C155.154 7.84592 143.154 9.34592 132.654 12.3458Z" stroke="black" stroke-width="0.5"/>
<path d="M131.154 8.84599L130.654 7.34599C166.654 -3.65405 199.154 0.345821 234.654 9.34599L231.654 12.846C191.654 0.345947 165.654 1.84595 131.154 8.84599Z" stroke="black" stroke-width="0.5"/>
<path d="M131.154 8.84593C182.654 -2.65409 211.154 7.34595 231.654 12.8459" stroke="black" stroke-width="0.5"/>
<path d="M226.656 30.3459L223.656 15.8459C219.156 14.3459 207.656 8.84595 174.156 7.84595L170.656 29.8459C181.656 29.3459 199.156 27.8459 226.156 27.8459" stroke="black" stroke-width="0.5"/>
<path d="M165.156 7.84595C132.156 8.84595 112.156 17.8459 93.1562 35.3459L95.6562 33.3459L159.656 30.3459L165.156 7.84595Z" stroke="black" stroke-width="0.5"/>
<path d="M239.654 22.3459C235.988 19.6793 230.154 17.3459 223.654 15.8459L226.154 27.8459H232.654C235.654 26.3459 238.654 24.1147 239.654 22.3459Z" stroke="black" stroke-width="0.5"/>
<path d="M96.6562 78.3459H163.656L198.156 76.8459M96.6562 78.3459C96.6562 79.8459 97.1562 80.8459 98.1562 82.3459M96.6562 78.3459H86.6562V82.3459H98.1562M198.156 76.8459L199.156 82.3459M198.156 76.8459H212.656L213.156 82.3459H199.156M199.156 82.3459H98.1562" stroke="black" stroke-width="0.5"/>
<path d="M96.6554 78.3459C92.1562 73.8459 89.1563 51.8459 93.1554 35.3459L165.156 31.3459C161.156 36.3459 160.156 70.3459 163.656 78.3459H96.6554Z" stroke="black" stroke-width="0.5"/>
<path d="M228.656 30.3459L165.156 31.3459C161.156 36.3459 160.156 70.3459 163.656 78.3459L198.156 76.8459C202.656 75.3459 209.156 69.8459 228.656 30.3459Z" stroke="black" stroke-width="0.5"/>
<path d="M170.656 29.846C166.156 30.346 162.656 30.346 159.656 30.346L165.156 7.84602C168.156 7.34595 171.156 7.34595 174.156 7.84602L170.656 29.846Z" stroke="black" stroke-width="0.5"/>
<path d="M99.1562 31.8461C103.656 37.3461 110.656 33.8461 114.656 32.3461C115.656 16.846 102.656 24.8459 99.1562 31.8461Z" stroke="black" stroke-width="0.5"/>
<path d="M234.654 9.34595L231.654 12.8459C248.654 18.3459 259.154 21.3459 271.654 27.8459H273.154L281.154 26.3459C266.154 19.8459 258.654 17.3459 234.654 9.34595Z" fill="#E0426F" stroke="black" stroke-width="0.5"/>
<path d="M271.654 27.8459C261.154 22.3459 242.154 15.8459 231.654 12.8459L229.654 15.3459L244.654 22.8459C243.154 25.3459 239.154 27.3459 233.154 30.0459C245.154 29.3459 262.154 28.3459 271.654 27.8459Z" fill="#E0426F" stroke="black" stroke-width="0.5"/>
<path d="M277.156 34.1459L283.155 31.8459L272.655 27.8459L228.655 30.3459C221.155 45.3459 206.155 75.8459 198.155 76.8459H212.655C211.155 65.8459 220.655 42.3459 245.656 51.3459C256.156 45.8459 266.156 40.3459 277.156 34.1459Z" fill="#E0426F" stroke="black" stroke-width="0.5"/>
<path d="M278.154 33.846C266.154 40.346 256.154 45.846 245.654 51.346C250.154 54.3459 260.654 60.3459 259.654 79.3459L284.654 78.8459V77.3459C293.154 76.3459 301.654 79.8459 300.154 65.8459L302.154 55.8459C302.154 54.3459 299.654 50.3459 297.154 49.8459C298.654 47.3459 295.654 38.3459 295.654 38.3459V36.8459L291.654 33.8459L286.654 32.3459L283.154 31.8459L278.154 33.846Z" fill="#E0426F" stroke="black" stroke-width="0.5"/>
<path d="M281.154 26.3459L272.654 27.8459L283.154 31.8459C292.654 32.8459 291.653 34.3459 295.648 36.7661L295.154 28.3459L281.154 26.3459Z" fill="#E0426F"/>
<path d="M295.654 36.8459L295.648 36.7661M295.648 36.7661L295.154 28.3459L281.154 26.3459L272.654 27.8459L283.154 31.8459C292.654 32.8459 291.653 34.3459 295.648 36.7661Z" stroke="black" stroke-width="0.5"/>
<path d="M294.156 36.3461C293.656 33.846 282.656 33.646 277.156 34.146" stroke="black" stroke-width="0.5"/>
<path d="M300.156 66.3459L260.656 68.3459C260.156 63.3459 257.99 59.1793 256.156 57.3459L302.156 54.8459M300.656 52.3459C289.656 50.8459 278.656 46.0459 266.656 40.0459M228.656 30.3459L272.656 27.8459L281.156 26.3459" stroke="black" stroke-width="0.5"/>
<path d="M290.656 40.3459C290.656 38.3459 289.656 34.3459 286.156 32.3459C288.377 32.3459 291.754 33.3863 294.265 35.7559C294.729 37.2859 293.656 40.8459 290.614 42.3459C290.601 41.7557 290.656 41.0702 290.656 40.3459Z" fill="#E0426F"/>
<path d="M272.656 42.8459C279.652 43.1957 285.669 43.3008 291.049 43.8459M297.656 44.8459C295.553 44.3953 293.36 44.08 291.049 43.8459M295.656 37.3459C295.238 36.7608 294.769 36.2316 294.265 35.7559M291.049 43.8459C290.723 43.5012 290.629 42.9781 290.614 42.3459M290.614 42.3459C290.601 41.7557 290.656 41.0702 290.656 40.3459C290.656 38.3459 289.656 34.3459 286.156 32.3459C288.377 32.3459 291.754 33.3863 294.265 35.7559M290.614 42.3459C293.656 40.8459 294.729 37.2859 294.265 35.7559" stroke="black" stroke-width="0.5"/>
<path d="M290.656 40.3459C286.156 40.3459 284.156 36.3459 283.156 33.8459" stroke="black" stroke-width="0.5"/>
<path d="M132.654 12.4459C119.154 16.4459 107.154 22.3459 93.1543 35.3459C100.154 23.3459 115.654 13.8459 131.154 8.84595L132.654 12.4459Z" fill="#E0426F" stroke="black" stroke-width="0.5"/>
<path d="M131.154 8.84595C111.154 14.52 93.1543 31.8459 85.1543 29.8459C98.1543 20.3459 114.154 11.8459 130.654 7.34595L131.154 8.84595Z" fill="#E0426F" stroke="black" stroke-width="0.5"/>
<path d="M10.155 47.846H4.15496C1.6543 51.8459 1.6543 61.8459 2.15496 65.3459C0.654297 66.3459 0.654894 70.8459 1.65496 72.3459L5.65496 72.8459V74.3459L1.65496 76.3459V78.3459C5.65496 79.3459 14.155 81.3459 22.155 80.8459V79.3459H39.655C38.9883 70.8459 40.655 60.3459 49.655 53.3459C47.155 49.3459 40.155 44.8459 37.155 44.346C27.155 43.3459 12.155 45.846 10.155 47.846Z" fill="#E0426F" stroke="black" stroke-width="0.5"/>
<path d="M93.1562 35.3459C75.3229 36.1793 43.6562 41.0459 33.1562 44.0459L37.1562 44.3459C42.1562 45.8459 47.6562 50.1793 49.6562 53.3459C62.6553 43.8459 88.1553 50.8459 86.6553 78.3459H96.6553C89.6553 67.3459 90.6553 45.3459 93.1562 35.3459Z" fill="#E0426F" stroke="black" stroke-width="0.5"/>
<path d="M10.1543 47.846H4.1543C36.6545 28.3459 58.6545 34.3459 84.6543 29.8459L93.6545 35.3459C76.6545 36.3459 47.6543 39.8459 33.6543 44.046C25.6543 43.8459 11.6543 45.8459 10.1543 47.846Z" fill="#E0426F" stroke="black" stroke-width="0.5"/>
<path d="M37.1558 44.346C29.6558 43.3459 12.6558 45.3459 10.1558 47.846C9.35575 50.246 12.4891 53.1793 14.1558 54.3459C23.6558 55.8459 37.1558 49.8459 37.1558 44.346Z" fill="#E0426F" stroke="black" stroke-width="0.5"/>
<path d="M4.15499 47.8459C11.155 48.8459 5.15499 59.3459 2.15499 64.3459C1.65492 57.3459 2.15479 51.8459 4.15499 47.8459Z" fill="#E0426F" stroke="black" stroke-width="0.5"/>
<path d="M22.1543 83.8459V79.3459H39.6543L40.1543 83.8459H22.1543Z" fill="#E0426F" stroke="black" stroke-width="0.5"/>
<path d="M2.65625 65.3459C4.15625 67.8459 6.15625 71.0126 5.65625 72.8459M22.1562 79.3459C11.6562 79.8459 7.15625 75.8459 8.15625 72.3459C8.65625 71.8459 10.1562 70.3459 11.1562 70.3459" stroke="black" stroke-width="0.5"/>
<path d="M32.1562 74.3459C29.6562 70.3459 24.1562 65.346 21.1562 63.846C19.4062 63.346 16.7811 63.471 14.031 63.846C12.4061 65.1793 11.1562 68.3459 11.6562 71.3459C11.6562 72.5126 12.9637 74.8459 15.6562 74.8459C20.1562 74.8459 27.1562 75.3459 32.1562 74.3459Z" fill="#E0426F"/>
<path d="M6.15625 65.346C8.40619 64.846 11.2811 64.221 14.031 63.846M14.031 63.846C16.7811 63.471 19.4062 63.346 21.1562 63.846C24.1562 65.346 29.6562 70.3459 32.1562 74.3459C27.1562 75.3459 20.1562 74.8459 15.6562 74.8459C12.9637 74.8459 11.6562 72.5126 11.6562 71.3459C11.1562 68.3459 12.4061 65.1793 14.031 63.846Z" stroke="black" stroke-width="0.5"/>
<path d="M11.6562 70.846C19.6562 69.3461 23.1562 71.9745 26.1562 73.4745M13.1562 73.8461L30.6562 73.3461" stroke="black" stroke-width="0.5"/>
<path d="M22.1543 82.3459H31.6543C33.6543 82.3459 35.1543 80.3459 34.6543 79.3459M38.1543 79.3459V83.8459" stroke="black" stroke-width="0.5"/>
<path d="M22.1562 80.8462C17.6562 80.8462 13.1562 81.3462 1.6562 78.3462V76.3462L5.6562 74.3462V72.8462L1.6562 72.3462C1.15527 70.8459 0.155469 67.8459 2.15546 65.3459C1.65571 57.3459 2.15571 50.8459 4.1562 47.8457C36.6562 28.3461 58.6562 34.3461 84.6562 29.8461C162.656 -25.154 244.656 11.8459 281.656 26.3461L295.156 28.3459L295.656 35.3459V38.3459C297.155 43.3459 298.49 47.8459 297.156 49.8459C299.656 50.8459 302.156 54.0126 302.156 55.8459L300.156 65.8459C300.608 76.6939 298.2 76.9181 288.868 77.2306C287.877 77.2638 285.808 77.2979 284.656 77.3459V78.8459L259.656 79.277M22.1562 80.8462V83.8462H40.1545L39.6562 79.3462M22.1562 80.8462V79.3462H39.6562M39.6562 79.3462C36.6562 37.8462 90.1562 40.8462 86.6562 79.8462V82.3459H213.156C207.156 38.8459 261.656 38.8459 259.656 79.277M259.155 79.277H259.656" stroke="black"/>
</svg>
