<svg width="304" height="96" viewBox="0 0 304 96" fill="none" xmlns="http://www.w3.org/2000/svg">
<circle cx="63.0635" cy="74.2146" r="20.5" fill="#EDADBF" stroke="black"/>
<circle cx="236.063" cy="74.2146" r="20.5" fill="#EDADBF" stroke="black"/>
<path d="M133.062 12.7145L131.562 9.21445C171.562 1.21457 193.062 1.7146 232.062 13.2145L228.562 17.7145C208.562 9.71451 190.562 8.71451 174.562 8.21458C172.062 7.71458 168.062 7.71454 165.562 8.21445C155.562 8.21458 143.562 9.71458 133.062 12.7145Z" fill="#E56E90" stroke="black" stroke-width="0.5"/>
<path d="M131.562 9.21464L131.062 7.71464C167.062 -3.2854 199.562 0.714474 235.062 9.71465L232.062 13.2146C192.062 0.7146 166.062 2.2146 131.562 9.21464Z" fill="#E56E90" stroke="black" stroke-width="0.5"/>
<path d="M131.562 9.21447C183.062 -2.28556 211.562 7.71448 232.062 13.2145" stroke="black" stroke-width="0.5"/>
<path d="M171.063 30.2146L174.563 8.2146C208.063 9.2146 219.563 14.7146 224.063 16.2146L226.546 28.2146C199.556 28.2152 182.061 29.7147 171.063 30.2146Z" fill="#E56E90"/>
<path d="M227.063 30.7146L224.063 16.2146C219.563 14.7146 208.063 9.2146 174.563 8.2146L171.063 30.2146C182.063 29.7146 199.563 28.2146 226.563 28.2146" stroke="black" stroke-width="0.5"/>
<path d="M165.563 8.2146C132.563 9.2146 112.563 18.2146 93.5635 35.7146L96.0635 33.7146L160.063 30.7146L165.563 8.2146Z" fill="#E56E90" stroke="black" stroke-width="0.5"/>
<path d="M240.062 22.7146C236.395 20.0479 230.562 17.7146 224.062 16.2146L226.562 28.2146H233.062C236.062 26.7146 239.062 24.4833 240.062 22.7146Z" fill="#E56E90" stroke="black" stroke-width="0.5"/>
<path d="M97.0635 78.7146H164.063L198.563 77.2146H213.063L213.563 82.7146H199.563H98.5635H87.0635V78.7146H97.0635Z" fill="#E56E90"/>
<path d="M97.0635 78.7146H164.063L198.563 77.2146M97.0635 78.7146C97.0635 80.2146 97.5635 81.2146 98.5635 82.7146M97.0635 78.7146H87.0635V82.7146H98.5635M198.563 77.2146L199.563 82.7146M198.563 77.2146H213.063L213.563 82.7146H199.563M199.563 82.7146H98.5635" stroke="black" stroke-width="0.5"/>
<path d="M97.0626 78.7146C92.5635 74.2146 89.5635 52.2146 93.5626 35.7146L165.563 31.7146C161.563 36.7146 160.563 70.7146 164.063 78.7146H97.0626Z" fill="#E56E90" stroke="black" stroke-width="0.5"/>
<path d="M229.063 30.7146L165.563 31.7146C161.564 36.7146 160.564 70.7146 164.063 78.7146L198.563 77.2146C203.063 75.7146 209.563 70.2146 229.063 30.7146Z" fill="#E56E90" stroke="black" stroke-width="0.5"/>
<path d="M171.063 30.2147C166.563 30.7147 163.063 30.7147 160.063 30.7147L165.563 8.21467C168.563 7.7146 171.563 7.7146 174.563 8.21467L171.063 30.2147Z" fill="#E56E90" stroke="black" stroke-width="0.5"/>
<path d="M99.5635 32.2146C104.063 37.7146 111.063 34.2146 115.063 32.7146C116.063 17.2145 103.063 25.2145 99.5635 32.2146Z" fill="#E56E90" stroke="black" stroke-width="0.5"/>
<path d="M235.062 9.7146L232.062 13.2146C249.062 18.7146 259.562 21.7146 272.062 28.2146H273.562L281.562 26.7146C266.562 20.2146 259.062 17.7146 235.062 9.7146Z" fill="#E56E90" stroke="black" stroke-width="0.5"/>
<path d="M272.062 28.2146C261.562 22.7146 242.562 16.2146 232.062 13.2146L230.062 15.7146L245.062 23.2146C243.562 25.7146 239.562 27.7146 233.562 30.4146C245.562 29.7146 262.562 28.7146 272.062 28.2146Z" fill="#E56E90" stroke="black" stroke-width="0.5"/>
<path d="M277.563 34.5146L283.562 32.2146L273.062 28.2146L229.062 30.7146C221.562 45.7146 206.562 76.2146 198.562 77.2146H213.062C211.562 66.2146 221.062 42.7146 246.063 51.7146C256.563 46.2146 266.563 40.7146 277.563 34.5146Z" fill="#E56E90" stroke="black" stroke-width="0.5"/>
<path d="M278.562 34.2146C266.562 40.7146 256.562 46.2146 246.062 51.7146C250.562 54.7146 261.062 60.7146 260.062 79.7146L285.062 79.2146V77.7146C293.562 76.7146 302.062 80.2146 300.562 66.2146L302.562 56.2146C302.562 54.7146 300.062 50.7146 297.562 50.2146C299.062 47.7146 296.062 38.7146 296.062 38.7146V37.2146L292.062 34.2146L287.062 32.7146L283.562 32.2146L278.562 34.2146Z" fill="#E56E90" stroke="black" stroke-width="0.5"/>
<path d="M281.562 26.7146L273.062 28.2146L283.562 32.2146C293.062 33.2146 292.06 34.7146 296.056 37.1348L295.562 28.7146L281.562 26.7146Z" fill="#E56E90"/>
<path d="M296.062 37.2146L296.056 37.1348M296.056 37.1348L295.562 28.7146L281.562 26.7146L273.062 28.2146L283.562 32.2146C293.062 33.2146 292.06 34.7146 296.056 37.1348Z" stroke="black" stroke-width="0.5"/>
<path d="M294.563 36.7148C294.063 34.2147 283.063 34.0146 277.563 34.5146" stroke="black" stroke-width="0.5"/>
<path d="M300.563 66.7146L261.063 68.7146C260.563 63.7146 258.397 59.5479 256.563 57.7146L302.563 55.2146M301.063 52.7146C290.063 51.2146 279.063 46.4146 267.063 40.4146M229.063 30.7146L273.063 28.2146L281.563 26.7146" stroke="black" stroke-width="0.5"/>
<path d="M291.063 40.7146C291.063 38.7146 290.063 34.7146 286.563 32.7146C288.784 32.7146 292.161 33.755 294.672 36.1246C295.136 37.6546 294.063 41.2146 291.022 42.7146C291.008 42.1243 291.063 41.4389 291.063 40.7146Z" fill="#E56E90"/>
<path d="M273.063 43.2146C280.059 43.5644 286.076 43.6695 291.457 44.2146M298.063 45.2146C295.96 44.764 293.767 44.4487 291.457 44.2146M296.063 37.7146C295.646 37.1295 295.176 36.6002 294.672 36.1246M291.457 44.2146C291.13 43.8698 291.036 43.3468 291.022 42.7146M291.022 42.7146C291.008 42.1243 291.063 41.4389 291.063 40.7146C291.063 38.7146 290.063 34.7146 286.563 32.7146C288.784 32.7146 292.161 33.755 294.672 36.1246M291.022 42.7146C294.063 41.2146 295.136 37.6546 294.672 36.1246" stroke="black" stroke-width="0.5"/>
<path d="M291.063 40.7146C286.563 40.7146 284.563 36.7146 283.563 34.2146" stroke="black" stroke-width="0.5"/>
<path d="M133.062 12.8146C119.562 16.8146 107.562 22.7146 93.5615 35.7146C100.562 23.7146 116.062 14.2146 131.562 9.2146L133.062 12.8146Z" fill="#E56E90" stroke="black" stroke-width="0.5"/>
<path d="M131.562 9.2146C111.562 14.8886 93.5615 32.2146 85.5615 30.2146C98.5615 20.7146 114.562 12.2146 131.062 7.7146L131.562 9.2146Z" fill="#E56E90" stroke="black" stroke-width="0.5"/>
<path d="M10.5622 48.2145H4.56219C2.06152 52.2145 2.06152 62.2145 2.56219 65.7145C1.06152 66.7145 1.06212 71.2145 2.06219 72.7145L6.06219 73.2145V74.7145L2.06219 76.7145V78.7145C6.06219 79.7145 14.5622 81.7145 22.5622 81.2145V79.7145H40.0622C39.3955 71.2145 41.0622 60.7145 50.0622 53.7145C47.5622 49.7145 40.5622 45.2145 37.5622 44.7145C27.5622 43.7145 12.5622 46.2145 10.5622 48.2145Z" fill="#E56E90" stroke="black" stroke-width="0.5"/>
<path d="M93.5635 35.7146C75.7301 36.5479 44.0635 41.4146 33.5635 44.4146L37.5635 44.7146C42.5635 46.2146 48.0635 50.5479 50.0635 53.7146C63.0625 44.2146 88.5625 51.2146 87.0625 78.7146H97.0625C90.0625 67.7146 91.0625 45.7146 93.5635 35.7146Z" fill="#E56E90" stroke="black" stroke-width="0.5"/>
<path d="M10.5615 48.2147H4.56152C37.0617 28.7146 59.0618 34.7146 85.0615 30.2146L94.0618 35.7146C77.0618 36.7146 48.0615 40.2146 34.0615 44.4146C26.0615 44.2146 12.0615 46.2146 10.5615 48.2147Z" fill="#E56E90" stroke="black" stroke-width="0.5"/>
<path d="M37.563 44.7147C30.063 43.7146 13.063 45.7146 10.563 48.2147C9.76298 50.6146 12.8963 53.5479 14.563 54.7146C24.063 56.2146 37.563 50.2146 37.563 44.7147Z" fill="#E56E90" stroke="black" stroke-width="0.5"/>
<path d="M4.56222 48.2146C11.5622 49.2146 5.56222 59.7146 2.56222 64.7146C2.06215 57.7146 2.56201 52.2146 4.56222 48.2146Z" fill="#E56E90" stroke="black" stroke-width="0.5"/>
<path d="M22.5615 84.2146V79.7146H40.0615L40.5615 84.2146H22.5615Z" fill="#E56E90" stroke="black" stroke-width="0.5"/>
<path d="M3.06348 65.7144C4.56348 68.2144 6.56348 71.381 6.06348 73.2144M22.5635 79.7144C12.0635 80.2144 7.56348 76.2144 8.56348 72.7144C9.06348 72.2144 10.5635 70.7144 11.5635 70.7144" stroke="black" stroke-width="0.5"/>
<path d="M32.5635 74.7145C30.0635 70.7145 24.5635 65.7146 21.5635 64.2146C19.8134 63.7145 17.1883 63.8395 14.4383 64.2146C12.8133 65.5479 11.5635 68.7145 12.0635 71.7145C12.0635 72.8811 13.3709 75.2145 16.0635 75.2145C20.5635 75.2145 27.5635 75.7145 32.5635 74.7145Z" fill="#E56E90"/>
<path d="M6.56348 65.7146C8.81342 65.2145 11.6883 64.5896 14.4383 64.2146M14.4383 64.2146C17.1883 63.8395 19.8134 63.7145 21.5635 64.2146C24.5635 65.7146 30.0635 70.7145 32.5635 74.7145C27.5635 75.7145 20.5635 75.2145 16.0635 75.2145C13.3709 75.2145 12.0635 72.8811 12.0635 71.7145C11.5635 68.7145 12.8133 65.5479 14.4383 64.2146Z" stroke="black" stroke-width="0.5"/>
<path d="M12.0635 71.2146C20.0635 69.7146 23.5635 72.3431 26.5635 73.8431M13.5635 74.2146L31.0635 73.7146" stroke="black" stroke-width="0.5"/>
<path d="M22.5615 82.7144H32.0615C34.0615 82.7144 35.5615 80.7144 35.0615 79.7144M38.5615 79.7144V84.2144" stroke="black" stroke-width="0.5"/>
<path d="M22.5634 81.2148C18.0634 81.2148 13.5634 81.7148 2.06342 78.7148V76.7148L6.06342 74.7148V73.2148L2.06342 72.7149C1.5625 71.2146 0.562696 68.2146 2.56269 65.7146C2.06293 57.7146 2.56293 51.2146 4.56342 48.2143C37.0634 28.7147 59.0634 34.7148 85.0634 30.2148C163.063 -24.7853 245.063 12.2146 282.063 26.7148L295.563 28.7146L296.063 35.7146V38.7146C297.562 43.7146 298.897 48.2146 297.563 50.2146C300.063 51.2146 302.563 54.3813 302.563 56.2146L300.563 66.2146C301.015 77.0625 298.607 77.2868 289.276 77.5992C288.285 77.6324 286.216 77.6666 285.063 77.7146V79.2146L260.063 79.6456M22.5634 81.2148V84.2148H40.5618L40.0634 79.7148M22.5634 81.2148V79.7148H40.0634M40.0634 79.7148C37.0634 38.2148 90.5634 41.2148 87.0634 80.2148V82.7146H213.563C207.563 39.2146 262.063 39.2146 260.063 79.6456M259.562 79.6456H260.063" stroke="black"/>
</svg>
