<svg width="303" height="96" viewBox="0 0 303 96" fill="none" xmlns="http://www.w3.org/2000/svg">
<circle cx="62.458" cy="74.3535" r="20.5" fill="#E0426F" stroke="black"/>
<circle cx="235.458" cy="74.3535" r="20.5" fill="#E0426F" stroke="black"/>
<path d="M132.456 12.8534L130.956 9.35337C170.956 1.35348 192.456 1.85352 231.456 13.3535L227.956 17.8535C207.956 9.85343 189.956 8.85342 173.956 8.35349C171.456 7.85349 167.456 7.85345 164.956 8.35337C154.956 8.35349 142.956 9.85349 132.456 12.8534Z" fill="#EFC7D3" stroke="black" stroke-width="0.5"/>
<path d="M130.956 9.35356L130.456 7.85356C166.456 -3.14648 198.956 0.85339 234.456 9.85356L231.456 13.3536C191.456 0.853516 165.456 2.35352 130.956 9.35356Z" fill="#EFC7D3" stroke="black" stroke-width="0.5"/>
<path d="M130.956 9.3535C182.456 -2.14652 210.956 7.85352 231.456 13.3535" stroke="black" stroke-width="0.5"/>
<path d="M170.458 30.3535L173.958 8.35352C207.458 9.35352 218.958 14.8535 223.458 16.3535L225.941 28.3535C198.951 28.3542 181.456 29.8536 170.458 30.3535Z" fill="#EFC7D3"/>
<path d="M226.458 30.8535L223.458 16.3535C218.958 14.8535 207.458 9.35352 173.958 8.35352L170.458 30.3535C181.458 29.8535 198.958 28.3535 225.958 28.3535" stroke="black" stroke-width="0.5"/>
<path d="M164.958 8.35352C131.958 9.35352 111.958 18.3535 92.958 35.8535L95.458 33.8535L159.458 30.8535L164.958 8.35352Z" fill="#EFC7D3" stroke="black" stroke-width="0.5"/>
<path d="M239.456 22.8535C235.789 20.1868 229.956 17.8535 223.456 16.3535L225.956 28.3535H232.456C235.456 26.8535 238.456 24.6223 239.456 22.8535Z" fill="#EFC7D3" stroke="black" stroke-width="0.5"/>
<path d="M96.458 78.8535H163.458L197.958 77.3535H212.458L212.958 82.8535H198.958H97.958H86.458V78.8535H96.458Z" fill="#EFC7D3"/>
<path d="M96.458 78.8535H163.458L197.958 77.3535M96.458 78.8535C96.458 80.3535 96.958 81.3535 97.958 82.8535M96.458 78.8535H86.458V82.8535H97.958M197.958 77.3535L198.958 82.8535M197.958 77.3535H212.458L212.958 82.8535H198.958M198.958 82.8535H97.958" stroke="black" stroke-width="0.5"/>
<path d="M96.4571 78.8535C91.958 74.3535 88.9581 52.3535 92.9571 35.8535L164.958 31.8535C160.958 36.8535 159.958 70.8535 163.458 78.8535H96.4571Z" fill="#EFC7D3" stroke="black" stroke-width="0.5"/>
<path d="M228.458 30.8535L164.958 31.8535C160.958 36.8535 159.958 70.8535 163.458 78.8535L197.958 77.3535C202.458 75.8535 208.958 70.3535 228.458 30.8535Z" fill="#EFC7D3" stroke="black" stroke-width="0.5"/>
<path d="M170.458 30.3536C165.958 30.8536 162.458 30.8536 159.458 30.8536L164.958 8.35359C167.958 7.85352 170.958 7.85352 173.958 8.35359L170.458 30.3536Z" fill="#EFC7D3" stroke="black" stroke-width="0.5"/>
<path d="M98.958 32.3537C103.458 37.8537 110.458 34.3537 114.458 32.8537C115.458 17.3535 102.458 25.3535 98.958 32.3537Z" fill="#EFC7D3" stroke="black" stroke-width="0.5"/>
<path d="M234.456 9.85352L231.456 13.3535C248.456 18.8535 258.956 21.8535 271.456 28.3535H272.956L280.956 26.8535C265.956 20.3535 258.456 17.8535 234.456 9.85352Z" fill="#E56E90" stroke="black" stroke-width="0.5"/>
<path d="M271.456 28.3535C260.956 22.8535 241.956 16.3535 231.456 13.3535L229.456 15.8535L244.456 23.3535C242.956 25.8535 238.956 27.8535 232.956 30.5535C244.956 29.8535 261.956 28.8535 271.456 28.3535Z" fill="#E56E90" stroke="black" stroke-width="0.5"/>
<path d="M276.958 34.6535L282.956 32.3535L272.457 28.3535L228.457 30.8535C220.957 45.8535 205.957 76.3535 197.957 77.3535H212.457C210.957 66.3535 220.457 42.8535 245.458 51.8535C255.958 46.3535 265.958 40.8535 276.958 34.6535Z" fill="#E56E90" stroke="black" stroke-width="0.5"/>
<path d="M277.956 34.3535C265.956 40.8535 255.956 46.3535 245.456 51.8535C249.956 54.8535 260.456 60.8535 259.456 79.8535L284.456 79.3535V77.8535C292.956 76.8535 301.456 80.3535 299.956 66.3535L301.956 56.3535C301.956 54.8535 299.456 50.8535 296.956 50.3535C298.456 47.8535 295.456 38.8535 295.456 38.8535V37.3535L291.456 34.3535L286.456 32.8535L282.956 32.3535L277.956 34.3535Z" fill="#E56E90" stroke="black" stroke-width="0.5"/>
<path d="M280.956 26.8535L272.456 28.3535L282.956 32.3535C292.456 33.3535 291.455 34.8535 295.45 37.2737L294.956 28.8535L280.956 26.8535Z" fill="#E56E90"/>
<path d="M295.456 37.3535L295.45 37.2737M295.45 37.2737L294.956 28.8535L280.956 26.8535L272.456 28.3535L282.956 32.3535C292.456 33.3535 291.455 34.8535 295.45 37.2737Z" stroke="black" stroke-width="0.5"/>
<path d="M293.958 36.8537C293.458 34.3536 282.458 34.1535 276.958 34.6535" stroke="black" stroke-width="0.5"/>
<path d="M299.958 66.8535L260.458 68.8535C259.958 63.8535 257.791 59.6868 255.958 57.8535L301.958 55.3535M300.458 52.8535C289.458 51.3535 278.458 46.5535 266.458 40.5535M228.458 30.8535L272.458 28.3535L280.958 26.8535" stroke="black" stroke-width="0.5"/>
<path d="M290.458 40.8535C290.458 38.8535 289.458 34.8535 285.958 32.8535C288.179 32.8535 291.556 33.8939 294.067 36.2635C294.531 37.7935 293.458 41.3535 290.416 42.8535C290.403 42.2632 290.458 41.5778 290.458 40.8535Z" fill="#E56E90"/>
<path d="M272.458 43.3535C279.454 43.7033 285.471 43.8084 290.851 44.3535M297.458 45.3535C295.355 44.9029 293.162 44.5876 290.851 44.3535M295.458 37.8535C295.04 37.2684 294.571 36.7392 294.067 36.2635M290.851 44.3535C290.525 44.0088 290.431 43.4857 290.416 42.8535M290.416 42.8535C290.403 42.2632 290.458 41.5778 290.458 40.8535C290.458 38.8535 289.458 34.8535 285.958 32.8535C288.179 32.8535 291.556 33.8939 294.067 36.2635M290.416 42.8535C293.458 41.3535 294.531 37.7935 294.067 36.2635" stroke="black" stroke-width="0.5"/>
<path d="M290.458 40.8535C285.958 40.8535 283.958 36.8535 282.958 34.3535" stroke="black" stroke-width="0.5"/>
<path d="M132.456 12.9535C118.956 16.9535 106.956 22.8535 92.9561 35.8535C99.9561 23.8535 115.456 14.3535 130.956 9.35352L132.456 12.9535Z" fill="#EDADBF" stroke="black" stroke-width="0.5"/>
<path d="M130.956 9.35352C110.956 15.0276 92.9561 32.3535 84.9561 30.3535C97.9561 20.8535 113.956 12.3535 130.456 7.85352L130.956 9.35352Z" fill="#EDADBF" stroke="black" stroke-width="0.5"/>
<path d="M9.95672 48.3535H3.95672C1.45605 52.3535 1.45605 62.3535 1.95672 65.8535C0.456055 66.8535 0.456652 71.3535 1.45672 72.8535L5.45672 73.3535V74.8535L1.45672 76.8535V78.8535C5.45672 79.8535 13.9567 81.8535 21.9567 81.3535V79.8535H39.4567C38.7901 71.3535 40.4567 60.8535 49.4567 53.8535C46.9567 49.8535 39.9567 45.3535 36.9567 44.8535C26.9567 43.8535 11.9567 46.3535 9.95672 48.3535Z" fill="#EDADBF" stroke="black" stroke-width="0.5"/>
<path d="M92.958 35.8535C75.1247 36.6868 43.458 41.5535 32.958 44.5535L36.958 44.8535C41.958 46.3535 47.458 50.6868 49.458 53.8535C62.457 44.3535 87.957 51.3535 86.457 78.8535H96.457C89.457 67.8535 90.457 45.8535 92.958 35.8535Z" fill="#EDADBF" stroke="black" stroke-width="0.5"/>
<path d="M9.95606 48.3536H3.95605C36.4562 28.8535 58.4563 34.8535 84.4561 30.3535L93.4563 35.8535C76.4563 36.8535 47.4561 40.3535 33.4561 44.5535C25.4561 44.3535 11.4561 46.3535 9.95606 48.3536Z" fill="#EDADBF" stroke="black" stroke-width="0.5"/>
<path d="M36.9575 44.8536C29.4575 43.8535 12.4575 45.8535 9.95751 48.3536C9.15751 50.7535 12.2908 53.6868 13.9575 54.8535C23.4575 56.3535 36.9575 50.3535 36.9575 44.8536Z" fill="#EDADBF" stroke="black" stroke-width="0.5"/>
<path d="M3.95675 48.3535C10.9568 49.3535 4.95675 59.8535 1.95675 64.8535C1.45668 57.8535 1.95654 52.3535 3.95675 48.3535Z" fill="#EDADBF" stroke="black" stroke-width="0.5"/>
<path d="M21.9561 84.3535V79.8535H39.4561L39.9561 84.3535H21.9561Z" fill="#EDADBF" stroke="black" stroke-width="0.5"/>
<path d="M2.45801 65.8535C3.95801 68.3535 5.95801 71.5202 5.45801 73.3535M21.958 79.8535C11.458 80.3535 6.95801 76.3535 7.95801 72.8535C8.45801 72.3535 9.95801 70.8535 10.958 70.8535" stroke="black" stroke-width="0.5"/>
<path d="M31.958 74.8535C29.458 70.8535 23.958 65.8536 20.958 64.3536C19.208 63.8536 16.5829 63.9786 13.8328 64.3536C12.2079 65.6869 10.958 68.8535 11.458 71.8535C11.458 73.0202 12.7654 75.3535 15.458 75.3535C19.958 75.3535 26.958 75.8535 31.958 74.8535Z" fill="#EDADBF"/>
<path d="M5.95801 65.8536C8.20795 65.3536 11.0829 64.7286 13.8328 64.3536M13.8328 64.3536C16.5829 63.9786 19.208 63.8536 20.958 64.3536C23.958 65.8536 29.458 70.8535 31.958 74.8535C26.958 75.8535 19.958 75.3535 15.458 75.3535C12.7654 75.3535 11.458 73.0202 11.458 71.8535C10.958 68.8535 12.2079 65.6869 13.8328 64.3536Z" stroke="black" stroke-width="0.5"/>
<path d="M11.458 71.3536C19.458 69.8536 22.958 72.4821 25.958 73.9821M12.958 74.3536L30.458 73.8536" stroke="black" stroke-width="0.5"/>
<path d="M21.9561 82.8535H31.4561C33.4561 82.8535 34.9561 80.8535 34.4561 79.8535M37.9561 79.8535V84.3535" stroke="black" stroke-width="0.5"/>
<path d="M21.958 81.3538C17.458 81.3538 12.958 81.8538 1.45795 78.8538V76.8538L5.45795 74.8538V73.3538L1.45795 72.8538C0.957031 71.3535 -0.0427729 68.3535 1.95722 65.8535C1.45747 57.8535 1.95747 51.3535 3.95795 48.3533C36.458 28.8537 58.4579 34.8537 84.4579 30.3537C162.458 -24.6464 244.458 12.3535 281.458 26.8537L294.958 28.8535L295.458 35.8535V38.8535C296.956 43.8535 298.291 48.3535 296.958 50.3535C299.458 51.3535 301.958 54.5202 301.958 56.3535L299.958 66.3535C300.41 77.2014 298.002 77.4257 288.67 77.7382C287.679 77.7713 285.61 77.8055 284.458 77.8535V79.3535L259.458 79.7846M21.958 81.3538V84.3538H39.9563L39.458 79.8538M21.958 81.3538V79.8538H39.458M39.458 79.8538C36.458 38.3538 89.9579 41.3538 86.4579 80.3538V82.8535H212.958C206.958 39.3535 261.458 39.3535 259.458 79.7846M258.956 79.7846H259.458" stroke="black"/>
</svg>
