<svg width="303" height="96" viewBox="0 0 303 96" fill="none" xmlns="http://www.w3.org/2000/svg">
<circle cx="62.4473" cy="74.0454" r="20.5" fill="#E0426F" stroke="black"/>
<circle cx="235.447" cy="74.0454" r="20.5" fill="#E0426F" stroke="black"/>
<path d="M132.445 12.5453L130.945 9.04527C170.945 1.04538 192.445 1.54541 231.445 13.0454L227.945 17.5454C207.945 9.54532 189.945 8.54532 173.945 8.04539C171.445 7.54539 167.445 7.54535 164.945 8.04527C154.945 8.04539 142.945 9.54539 132.445 12.5453Z" fill="#E56E90" stroke="black" stroke-width="0.5"/>
<path d="M130.945 9.04545L130.445 7.54545C166.445 -3.45459 198.945 0.545284 234.445 9.54546L231.445 13.0455C191.445 0.54541 165.445 2.04541 130.945 9.04545Z" fill="#E56E90" stroke="black" stroke-width="0.5"/>
<path d="M130.945 9.04552C182.445 -2.4545 210.945 7.54553 231.445 13.0455" stroke="black" stroke-width="0.5"/>
<path d="M170.447 30.0454L173.947 8.04541C207.447 9.04541 218.947 14.5454 223.447 16.0454L225.93 28.0454C198.94 28.046 181.445 29.5455 170.447 30.0454Z" fill="#E56E90"/>
<path d="M226.447 30.5454L223.447 16.0454C218.947 14.5454 207.447 9.04541 173.947 8.04541L170.447 30.0454C181.447 29.5454 198.947 28.0454 225.947 28.0454" stroke="black" stroke-width="0.5"/>
<path d="M164.947 8.04541C131.947 9.04541 111.947 18.0454 92.9473 35.5454L95.4473 33.5454L159.447 30.5454L164.947 8.04541Z" fill="#E56E90" stroke="black" stroke-width="0.5"/>
<path d="M239.445 22.5454C235.779 19.8787 229.945 17.5454 223.445 16.0454L225.945 28.0454H232.445C235.445 26.5454 238.445 24.3141 239.445 22.5454Z" fill="#E56E90" stroke="black" stroke-width="0.5"/>
<path d="M96.4473 78.5454H163.447L197.947 77.0454H212.447L212.947 82.5454H198.947H97.9473H86.4473V78.5454H96.4473Z" fill="#E56E90"/>
<path d="M96.4473 78.5454H163.447L197.947 77.0454M96.4473 78.5454C96.4473 80.0454 96.9473 81.0454 97.9473 82.5454M96.4473 78.5454H86.4473V82.5454H97.9473M197.947 77.0454L198.947 82.5454M197.947 77.0454H212.447L212.947 82.5454H198.947M198.947 82.5454H97.9473" stroke="black" stroke-width="0.5"/>
<path d="M96.4464 78.5454C91.9473 74.0454 88.9473 52.0454 92.9464 35.5454L164.947 31.5454C160.947 36.5454 159.947 70.5454 163.447 78.5454H96.4464Z" fill="#E56E90" stroke="black" stroke-width="0.5"/>
<path d="M228.447 30.5454L164.947 31.5454C160.947 36.5454 159.948 70.5454 163.447 78.5454L197.947 77.0454C202.447 75.5454 208.947 70.0454 228.447 30.5454Z" fill="#E56E90" stroke="black" stroke-width="0.5"/>
<path d="M170.447 30.0455C165.947 30.5455 162.447 30.5455 159.447 30.5455L164.947 8.04548C167.947 7.54541 170.947 7.54541 173.947 8.04548L170.447 30.0455Z" fill="#E56E90" stroke="black" stroke-width="0.5"/>
<path d="M98.9473 32.0457C103.447 37.5457 110.447 34.0457 114.447 32.5457C115.447 17.0455 102.447 25.0455 98.9473 32.0457Z" fill="#E56E90" stroke="black" stroke-width="0.5"/>
<path d="M234.445 9.54541L231.445 13.0454C248.445 18.5454 258.945 21.5454 271.445 28.0454H272.945L280.945 26.5454C265.945 20.0454 258.445 17.5454 234.445 9.54541Z" fill="#E0426F" stroke="black" stroke-width="0.5"/>
<path d="M271.445 28.0454C260.945 22.5454 241.945 16.0454 231.445 13.0454L229.445 15.5454L244.445 23.0454C242.945 25.5454 238.945 27.5454 232.945 30.2454C244.945 29.5454 261.945 28.5454 271.445 28.0454Z" fill="#E0426F" stroke="black" stroke-width="0.5"/>
<path d="M276.947 34.3454L282.946 32.0454L272.446 28.0454L228.446 30.5454C220.946 45.5454 205.946 76.0454 197.946 77.0454H212.446C210.946 66.0454 220.446 42.5454 245.447 51.5454C255.947 46.0454 265.947 40.5454 276.947 34.3454Z" fill="#E0426F" stroke="black" stroke-width="0.5"/>
<path d="M277.945 34.0454C265.945 40.5454 255.945 46.0454 245.445 51.5454C249.945 54.5454 260.445 60.5454 259.445 79.5454L284.445 79.0454V77.5454C292.945 76.5454 301.445 80.0454 299.945 66.0454L301.945 56.0454C301.945 54.5454 299.445 50.5454 296.945 50.0454C298.445 47.5454 295.445 38.5454 295.445 38.5454V37.0454L291.445 34.0454L286.445 32.5454L282.945 32.0454L277.945 34.0454Z" fill="#E0426F" stroke="black" stroke-width="0.5"/>
<path d="M280.945 26.5454L272.445 28.0454L282.945 32.0454C292.445 33.0454 291.444 34.5454 295.439 36.9656L294.945 28.5454L280.945 26.5454Z" fill="#E0426F"/>
<path d="M295.445 37.0454L295.439 36.9656M295.439 36.9656L294.945 28.5454L280.945 26.5454L272.445 28.0454L282.945 32.0454C292.445 33.0454 291.444 34.5454 295.439 36.9656Z" stroke="black" stroke-width="0.5"/>
<path d="M293.947 36.5456C293.447 34.0455 282.447 33.8454 276.947 34.3454" stroke="black" stroke-width="0.5"/>
<path d="M299.947 66.5454L260.447 68.5454C259.947 63.5454 257.781 59.3787 255.947 57.5454L301.947 55.0454M300.447 52.5454C289.447 51.0454 278.447 46.2454 266.447 40.2454M228.447 30.5454L272.447 28.0454L280.947 26.5454" stroke="black" stroke-width="0.5"/>
<path d="M290.447 40.5454C290.447 38.5454 289.447 34.5454 285.947 32.5454C288.168 32.5454 291.545 33.5858 294.056 35.9554C294.52 37.4854 293.447 41.0454 290.405 42.5454C290.392 41.9551 290.447 41.2697 290.447 40.5454Z" fill="#E0426F"/>
<path d="M272.447 43.0454C279.443 43.3952 285.46 43.5003 290.84 44.0454M297.447 45.0454C295.344 44.5948 293.151 44.2795 290.84 44.0454M295.447 37.5454C295.029 36.9603 294.56 36.4311 294.056 35.9554M290.84 44.0454C290.514 43.7006 290.42 43.1776 290.405 42.5454M290.405 42.5454C290.392 41.9551 290.447 41.2697 290.447 40.5454C290.447 38.5454 289.447 34.5454 285.947 32.5454C288.168 32.5454 291.545 33.5858 294.056 35.9554M290.405 42.5454C293.447 41.0454 294.52 37.4854 294.056 35.9554" stroke="black" stroke-width="0.5"/>
<path d="M290.447 40.5454C285.947 40.5454 283.947 36.5454 282.947 34.0454" stroke="black" stroke-width="0.5"/>
<path d="M132.445 12.6454C118.945 16.6454 106.945 22.5454 92.9453 35.5454C99.9453 23.5454 115.445 14.0454 130.945 9.04541L132.445 12.6454Z" fill="#EDADBF" stroke="black" stroke-width="0.5"/>
<path d="M130.945 9.04541C110.945 14.7194 92.9453 32.0454 84.9453 30.0454C97.9453 20.5454 113.945 12.0454 130.445 7.54541L130.945 9.04541Z" fill="#EDADBF" stroke="black" stroke-width="0.5"/>
<path d="M9.94598 48.0453H3.94598C1.44531 52.0453 1.44531 62.0453 1.94598 65.5453C0.445312 66.5453 0.44591 71.0453 1.44598 72.5453L5.44598 73.0453V74.5453L1.44598 76.5453V78.5453C5.44598 79.5453 13.946 81.5453 21.946 81.0453V79.5453H39.446C38.7793 71.0453 40.446 60.5453 49.446 53.5453C46.946 49.5453 39.946 45.0453 36.946 44.5453C26.946 43.5453 11.946 46.0453 9.94598 48.0453Z" fill="#EDADBF" stroke="black" stroke-width="0.5"/>
<path d="M92.9473 35.5454C75.1139 36.3787 43.4473 41.2454 32.9473 44.2454L36.9473 44.5454C41.9473 46.0454 47.4473 50.3787 49.4473 53.5454C62.4463 44.0454 87.9463 51.0454 86.4463 78.5454H96.4463C89.4463 67.5454 90.4463 45.5454 92.9473 35.5454Z" fill="#EDADBF" stroke="black" stroke-width="0.5"/>
<path d="M9.94531 48.0455H3.94531C36.4455 28.5454 58.4456 34.5454 84.4453 30.0454L93.4456 35.5454C76.4456 36.5454 47.4453 40.0454 33.4453 44.2454C25.4453 44.0454 11.4453 46.0454 9.94531 48.0455Z" fill="#EDADBF" stroke="black" stroke-width="0.5"/>
<path d="M36.9468 44.5455C29.4468 43.5454 12.4468 45.5454 9.94677 48.0455C9.14677 50.4454 12.2801 53.3787 13.9468 54.5454C23.4468 56.0454 36.9468 50.0454 36.9468 44.5455Z" fill="#EDADBF" stroke="black" stroke-width="0.5"/>
<path d="M3.94601 48.0454C10.946 49.0454 4.94601 59.5454 1.94601 64.5454C1.44594 57.5454 1.9458 52.0454 3.94601 48.0454Z" fill="#EDADBF" stroke="black" stroke-width="0.5"/>
<path d="M21.9453 84.0454V79.5454H39.4453L39.9453 84.0454H21.9453Z" fill="#EDADBF" stroke="black" stroke-width="0.5"/>
<path d="M2.44727 65.5454C3.94727 68.0454 5.94727 71.2121 5.44727 73.0454M21.9473 79.5454C11.4473 80.0454 6.94727 76.0454 7.94727 72.5454C8.44727 72.0454 9.94727 70.5454 10.9473 70.5454" stroke="black" stroke-width="0.5"/>
<path d="M31.9473 74.5455C29.4473 70.5455 23.9473 65.5456 20.9473 64.0456C19.1972 63.5456 16.5721 63.6706 13.8221 64.0456C12.1971 65.3789 10.9473 68.5455 11.4473 71.5455C11.4473 72.7122 12.7547 75.0455 15.4473 75.0455C19.9473 75.0455 26.9473 75.5455 31.9473 74.5455Z" fill="#EDADBF"/>
<path d="M5.94727 65.5456C8.19721 65.0456 11.0721 64.4206 13.8221 64.0456M13.8221 64.0456C16.5721 63.6706 19.1972 63.5456 20.9473 64.0456C23.9473 65.5456 29.4473 70.5455 31.9473 74.5455C26.9473 75.5455 19.9473 75.0455 15.4473 75.0455C12.7547 75.0455 11.4473 72.7122 11.4473 71.5455C10.9473 68.5455 12.1971 65.3789 13.8221 64.0456Z" stroke="black" stroke-width="0.5"/>
<path d="M11.4473 71.0456C19.4473 69.5457 22.9473 72.1741 25.9473 73.6741M12.9473 74.0457L30.4473 73.5457" stroke="black" stroke-width="0.5"/>
<path d="M21.9453 82.5454H31.4453C33.4453 82.5454 34.9453 80.5454 34.4453 79.5454M37.9453 79.5454V84.0454" stroke="black" stroke-width="0.5"/>
<path d="M21.9472 81.0457C17.4472 81.0457 12.9472 81.5457 1.44721 78.5457V76.5457L5.44721 74.5456V73.0457L1.44721 72.5457C0.946289 71.0454 -0.0535151 68.0454 1.94648 65.5454C1.44672 57.5454 1.94672 51.0454 3.94721 48.0452C36.4472 28.5455 58.4472 34.5456 84.4472 30.0456C162.447 -24.9545 244.447 12.0454 281.447 26.5456L294.947 28.5454L295.447 35.5454V38.5454C296.946 43.5454 298.281 48.0454 296.947 50.0454C299.447 51.0454 301.947 54.2121 301.947 56.0454L299.947 66.0454C300.399 76.8933 297.991 77.1176 288.66 77.43C287.668 77.4632 285.599 77.4974 284.447 77.5454V79.0454L259.447 79.4764M21.9472 81.0457V84.0457H39.9456L39.4472 79.5457M21.9472 81.0457V79.5457H39.4472M39.4472 79.5457C36.4472 38.0457 89.9472 41.0457 86.4472 80.0457V82.5454H212.947C206.947 39.0454 261.447 39.0454 259.447 79.4764M258.946 79.4764H259.447" stroke="black"/>
</svg>
