<svg width="303" height="95" viewBox="0 0 303 95" fill="none" xmlns="http://www.w3.org/2000/svg">
<circle cx="62.4897" cy="73.707" r="20.5" fill="#E0426F" stroke="black"/>
<circle cx="235.49" cy="73.707" r="20.5" fill="#E0426F" stroke="black"/>
<path d="M132.488 12.2069L130.988 8.70689C170.988 0.706999 192.488 1.20703 231.488 12.707L227.988 17.207C207.988 9.20694 189.988 8.20694 173.988 7.70701C171.488 7.20701 167.488 7.20697 164.988 7.70689C154.988 7.70701 142.988 9.20701 132.488 12.2069Z" fill="#E56E90" stroke="black" stroke-width="0.5"/>
<path d="M130.988 8.70708L130.488 7.20708C166.488 -3.79297 198.988 0.206905 234.488 9.20708L231.488 12.7071C191.488 0.207031 165.488 1.70703 130.988 8.70708Z" fill="#E56E90" stroke="black" stroke-width="0.5"/>
<path d="M130.988 8.70714C182.488 -2.79288 210.988 7.20715 231.488 12.7071" stroke="black" stroke-width="0.5"/>
<path d="M170.49 29.707L173.99 7.70703C207.49 8.70703 218.99 14.207 223.49 15.707L225.973 27.707C198.982 27.7077 181.487 29.2071 170.49 29.707Z" fill="#E56E90"/>
<path d="M226.49 30.207L223.49 15.707C218.99 14.207 207.49 8.70703 173.99 7.70703L170.49 29.707C181.49 29.207 198.99 27.707 225.99 27.707" stroke="black" stroke-width="0.5"/>
<path d="M164.99 7.70703C131.99 8.70703 111.99 17.707 92.9897 35.207L95.4897 33.207L159.49 30.207L164.99 7.70703Z" fill="#E56E90" stroke="black" stroke-width="0.5"/>
<path d="M239.488 22.207C235.822 19.5404 229.988 17.207 223.488 15.707L225.988 27.707H232.488C235.488 26.207 238.488 23.9758 239.488 22.207Z" fill="#E56E90" stroke="black" stroke-width="0.5"/>
<path d="M96.4897 78.207H163.49L197.99 76.707H212.49L212.99 82.207H198.99H97.9897H86.4897V78.207H96.4897Z" fill="#E56E90"/>
<path d="M96.4897 78.207H163.49L197.99 76.707M96.4897 78.207C96.4897 79.707 96.9897 80.707 97.9897 82.207M96.4897 78.207H86.4897V82.207H97.9897M197.99 76.707L198.99 82.207M197.99 76.707H212.49L212.99 82.207H198.99M198.99 82.207H97.9897" stroke="black" stroke-width="0.5"/>
<path d="M96.4889 78.207C91.9897 73.707 88.9898 51.707 92.9889 35.207L164.99 31.207C160.99 36.207 159.99 70.207 163.49 78.207H96.4889Z" fill="#E56E90" stroke="black" stroke-width="0.5"/>
<path d="M228.489 30.207L164.989 31.207C160.989 36.207 159.99 70.207 163.489 78.207L197.989 76.707C202.489 75.207 208.989 69.707 228.489 30.207Z" fill="#E56E90" stroke="black" stroke-width="0.5"/>
<path d="M170.49 29.7071C165.99 30.2071 162.49 30.2071 159.49 30.2071L164.99 7.70711C167.99 7.20703 170.99 7.20703 173.99 7.70711L170.49 29.7071Z" fill="#E56E90" stroke="black" stroke-width="0.5"/>
<path d="M98.9897 31.7073C103.49 37.2073 110.49 33.7073 114.49 32.2073C115.49 16.7072 102.49 24.7072 98.9897 31.7073Z" fill="#E56E90" stroke="black" stroke-width="0.5"/>
<path d="M234.488 9.20703L231.488 12.707C248.488 18.207 258.988 21.207 271.488 27.707H272.988L280.988 26.207C265.988 19.707 258.488 17.207 234.488 9.20703Z" stroke="black" stroke-width="0.5"/>
<path d="M271.488 27.707C260.988 22.207 241.988 15.707 231.488 12.707L229.488 15.207L244.488 22.707C242.988 25.207 238.988 27.207 232.988 29.907C244.988 29.207 261.988 28.207 271.488 27.707Z" stroke="black" stroke-width="0.5"/>
<path d="M276.99 34.007L282.988 31.707L272.489 27.707L228.489 30.207C220.989 45.207 205.989 75.707 197.989 76.707H212.489C210.989 65.707 220.489 42.207 245.49 51.207C255.99 45.707 265.99 40.207 276.99 34.007Z" stroke="black" stroke-width="0.5"/>
<path d="M277.988 33.7071C265.988 40.2071 255.988 45.7071 245.488 51.2071C249.988 54.207 260.488 60.207 259.488 79.207L284.488 78.707V77.207C292.988 76.207 301.488 79.707 299.988 65.707L301.988 55.707C301.988 54.207 299.488 50.207 296.988 49.707C298.488 47.207 295.488 38.207 295.488 38.207V36.707L291.488 33.707L286.488 32.207L282.988 31.707L277.988 33.7071Z" stroke="black" stroke-width="0.5"/>
<path d="M295.488 36.707L295.482 36.6272M295.482 36.6272L294.988 28.207L280.988 26.207L272.488 27.707L282.988 31.707C292.488 32.707 291.487 34.207 295.482 36.6272Z" stroke="black" stroke-width="0.5"/>
<path d="M293.99 36.2072C293.49 33.7071 282.49 33.507 276.99 34.007" stroke="black" stroke-width="0.5"/>
<path d="M299.99 66.207L260.49 68.207C259.99 63.207 257.823 59.0404 255.99 57.207L301.99 54.707M300.49 52.207C289.49 50.707 278.49 45.907 266.49 39.907M228.49 30.207L272.49 27.707L280.99 26.207" stroke="black" stroke-width="0.5"/>
<path d="M272.49 42.707C279.485 43.0568 285.502 43.1619 290.883 43.707M297.49 44.707C295.387 44.2564 293.194 43.9411 290.883 43.707M295.49 37.207C295.072 36.6219 294.603 36.0927 294.099 35.617M290.883 43.707C290.557 43.3623 290.463 42.8392 290.448 42.207M290.448 42.207C290.434 41.6168 290.49 40.9313 290.49 40.207C290.49 38.207 289.49 34.207 285.99 32.207C288.211 32.207 291.587 33.2474 294.099 35.617M290.448 42.207C293.49 40.707 294.562 37.147 294.099 35.617" stroke="black" stroke-width="0.5"/>
<path d="M290.49 40.207C285.99 40.207 283.99 36.207 282.99 33.707" stroke="black" stroke-width="0.5"/>
<path d="M132.488 12.307C118.988 16.307 106.988 22.207 92.9883 35.207C99.9883 23.207 115.488 13.707 130.988 8.70703L132.488 12.307Z" stroke="black" stroke-width="0.5"/>
<path d="M130.988 8.70703C110.988 14.3811 92.9883 31.707 84.9883 29.707C97.9883 20.207 113.988 11.707 130.488 7.20703L130.988 8.70703Z" stroke="black" stroke-width="0.5"/>
<path d="M9.98895 47.7069H3.98895C1.48828 51.7069 1.48828 61.7069 1.98895 65.2069C0.488281 66.2069 0.488879 70.7069 1.48895 72.2069L5.48895 72.7069V74.2069L1.48895 76.2069V78.2069C5.48895 79.2069 13.9889 81.2069 21.9889 80.7069V79.2069H39.4889C38.8223 70.7069 40.4889 60.2069 49.4889 53.2069C46.9889 49.2069 39.9889 44.7069 36.9889 44.2069C26.9889 43.2069 11.9889 45.7069 9.98895 47.7069Z" stroke="black" stroke-width="0.5"/>
<path d="M92.9897 35.207C75.1564 36.0404 43.4897 40.907 32.9897 43.907L36.9897 44.207C41.9897 45.707 47.4897 50.0404 49.4897 53.207C62.4888 43.707 87.9888 50.707 86.4888 78.207H96.4888C89.4888 67.207 90.4888 45.207 92.9897 35.207Z" stroke="black" stroke-width="0.5"/>
<path d="M9.98828 47.7071H3.98828C36.4885 28.207 58.4885 34.207 84.4883 29.707L93.4885 35.207C76.4885 36.207 47.4883 39.707 33.4883 43.907C25.4883 43.707 11.4883 45.707 9.98828 47.7071Z" stroke="black" stroke-width="0.5"/>
<path d="M36.9897 44.2071C29.4897 43.207 12.4897 45.207 9.98974 47.7071C9.18974 50.107 12.3231 53.0404 13.9897 54.207C23.4897 55.707 36.9897 49.707 36.9897 44.2071Z" stroke="black" stroke-width="0.5"/>
<path d="M3.98898 47.707C10.989 48.707 4.98898 59.207 1.98898 64.207C1.48891 57.207 1.98877 51.707 3.98898 47.707Z" stroke="black" stroke-width="0.5"/>
<path d="M21.9883 83.707V79.207H39.4883L39.9883 83.707H21.9883Z" stroke="black" stroke-width="0.5"/>
<path d="M2.49023 65.207C3.99023 67.707 5.99023 70.8737 5.49023 72.707M21.9902 79.207C11.4902 79.707 6.99023 75.707 7.99023 72.207C8.49023 71.707 9.99023 70.207 10.9902 70.207" stroke="black" stroke-width="0.5"/>
<path d="M5.99023 65.2072C8.24018 64.7072 11.1151 64.0822 13.865 63.7072M13.865 63.7072C16.6151 63.3322 19.2402 63.2072 20.9902 63.7072C23.9902 65.2072 29.4902 70.2072 31.9902 74.2072C26.9902 75.2072 19.9902 74.7072 15.4902 74.7072C12.7977 74.7072 11.4902 72.3738 11.4902 71.2072C10.9902 68.2072 12.2401 65.0405 13.865 63.7072Z" stroke="black" stroke-width="0.5"/>
<path d="M11.4902 70.7072C19.4902 69.2073 22.9902 71.8358 25.9902 73.3358M12.9902 73.7073L30.4902 73.2073" stroke="black" stroke-width="0.5"/>
<path d="M21.9883 82.207H31.4883C33.4883 82.207 34.9883 80.207 34.4883 79.207M37.9883 79.207V83.707" stroke="black" stroke-width="0.5"/>
<path d="M21.9897 80.7073C17.4897 80.7073 12.9897 81.2073 1.48969 78.2073V76.2073L5.48969 74.2073V72.7073L1.48969 72.2073C0.98877 70.707 -0.0110346 67.707 1.98896 65.207C1.4892 57.207 1.9892 50.707 3.98969 47.7068C36.4897 28.2072 58.4897 34.2072 84.4897 29.7072C162.49 -25.2929 244.49 11.707 281.49 26.2072L294.99 28.207L295.49 35.207V38.207C296.988 43.207 298.323 47.707 296.99 49.707C299.49 50.707 301.99 53.8737 301.99 55.707L299.99 65.707C300.442 76.5549 298.034 76.7792 288.702 77.0917C287.711 77.1249 285.642 77.159 284.49 77.207V78.707L259.49 79.1381M21.9897 80.7073V83.7073H39.988L39.4897 79.2073M21.9897 80.7073V79.2073H39.4897M39.4897 79.2073C36.4897 37.7073 89.9897 40.7073 86.4897 79.7073V82.207H212.99C206.99 38.707 261.49 38.707 259.49 79.1381M258.988 79.1381H259.49" stroke="black"/>
</svg>
