<svg width="304" height="95" viewBox="0 0 304 95" fill="none" xmlns="http://www.w3.org/2000/svg">
<circle cx="63.0938" cy="73.7222" r="20.5" fill="#EDADBF" stroke="black"/>
<circle cx="236.094" cy="73.7222" r="20.5" fill="#EDADBF" stroke="black"/>
<path d="M133.092 12.222L131.592 8.72202C171.592 0.722136 193.092 1.22217 232.092 12.7221L228.592 17.2221C208.592 9.22208 190.592 8.22208 174.592 7.72215C172.092 7.22215 168.092 7.22211 165.592 7.72202C155.592 7.72215 143.592 9.22215 133.092 12.222Z" fill="#E0426F" stroke="black" stroke-width="0.5"/>
<path d="M131.592 8.72221L131.092 7.22221C167.092 -3.77783 199.592 0.222042 235.092 9.22221L232.092 12.7222C192.092 0.222168 166.092 1.72217 131.592 8.72221Z" fill="#E0426F" stroke="black" stroke-width="0.5"/>
<path d="M131.592 8.72228C183.092 -2.77775 211.592 7.22229 232.092 12.7223" stroke="black" stroke-width="0.5"/>
<path d="M171.094 29.7222L174.594 7.72217C208.094 8.72217 219.594 14.2222 224.094 15.7222L226.577 27.7222C199.586 27.7228 182.091 29.2223 171.094 29.7222Z" fill="#E0426F"/>
<path d="M227.094 30.2222L224.094 15.7222C219.594 14.2222 208.094 8.72217 174.594 7.72217L171.094 29.7222C182.094 29.2222 199.594 27.7222 226.594 27.7222" stroke="black" stroke-width="0.5"/>
<path d="M165.594 7.72217C132.594 8.72217 112.594 17.7222 93.5938 35.2222L96.0938 33.2222L160.094 30.2222L165.594 7.72217Z" fill="#E0426F" stroke="black" stroke-width="0.5"/>
<path d="M240.092 22.2222C236.425 19.5555 230.592 17.2222 224.092 15.7222L226.592 27.7222H233.092C236.092 26.2222 239.092 23.9909 240.092 22.2222Z" fill="#E0426F" stroke="black" stroke-width="0.5"/>
<path d="M97.0938 78.2222H164.094L198.594 76.7222H213.094L213.594 82.2222H199.594H98.5938H87.0938V78.2222H97.0938Z" fill="#E0426F"/>
<path d="M97.0938 78.2222H164.094L198.594 76.7222M97.0938 78.2222C97.0938 79.7222 97.5938 80.7222 98.5938 82.2222M97.0938 78.2222H87.0938V82.2222H98.5938M198.594 76.7222L199.594 82.2222M198.594 76.7222H213.094L213.594 82.2222H199.594M199.594 82.2222H98.5938" stroke="black" stroke-width="0.5"/>
<path d="M97.0929 78.2222C92.5937 73.7222 89.5938 51.7222 93.5929 35.2222L165.594 31.2222C161.594 36.2222 160.594 70.2222 164.094 78.2222H97.0929Z" fill="#E0426F" stroke="black" stroke-width="0.5"/>
<path d="M229.094 30.2222L165.594 31.2222C161.594 36.2222 160.594 70.2222 164.094 78.2222L198.594 76.7222C203.094 75.2222 209.594 69.7222 229.094 30.2222Z" fill="#E0426F" stroke="black" stroke-width="0.5"/>
<path d="M171.094 29.7222C166.594 30.2222 163.094 30.2222 160.094 30.2222L165.594 7.72224C168.594 7.22217 171.594 7.22217 174.594 7.72224L171.094 29.7222Z" fill="#E0426F" stroke="black" stroke-width="0.5"/>
<path d="M99.5938 31.7224C104.094 37.2224 111.094 33.7224 115.094 32.2224C116.094 16.7223 103.094 24.7223 99.5938 31.7224Z" fill="#E0426F" stroke="black" stroke-width="0.5"/>
<path d="M235.092 9.22217L232.092 12.7222C249.092 18.2222 259.592 21.2222 272.092 27.7222H273.592L281.592 26.2222C266.592 19.7222 259.092 17.2222 235.092 9.22217Z" stroke="black" stroke-width="0.5"/>
<path d="M272.092 27.7222C261.592 22.2222 242.592 15.7222 232.092 12.7222L230.092 15.2222L245.092 22.7222C243.592 25.2222 239.592 27.2222 233.592 29.9222C245.592 29.2222 262.592 28.2222 272.092 27.7222Z" stroke="black" stroke-width="0.5"/>
<path d="M277.594 34.0222L283.592 31.7222L273.093 27.7222L229.093 30.2222C221.593 45.2222 206.593 75.7222 198.593 76.7222H213.093C211.593 65.7222 221.093 42.2222 246.094 51.2222C256.594 45.7222 266.594 40.2222 277.594 34.0222Z" stroke="black" stroke-width="0.5"/>
<path d="M278.592 33.7222C266.592 40.2222 256.592 45.7222 246.092 51.2222C250.592 54.2222 261.092 60.2222 260.092 79.2222L285.092 78.7222V77.2222C293.592 76.2222 302.092 79.7222 300.592 65.7222L302.592 55.7222C302.592 54.2222 300.092 50.2222 297.592 49.7222C299.092 47.2222 296.092 38.2222 296.092 38.2222V36.7222L292.092 33.7222L287.092 32.2222L283.592 31.7222L278.592 33.7222Z" stroke="black" stroke-width="0.5"/>
<path d="M296.092 36.7222L296.086 36.6423M296.086 36.6423L295.592 28.2222L281.592 26.2222L273.092 27.7222L283.592 31.7222C293.092 32.7222 292.091 34.2222 296.086 36.6423Z" stroke="black" stroke-width="0.5"/>
<path d="M294.594 36.2224C294.094 33.7223 283.094 33.5222 277.594 34.0222" stroke="black" stroke-width="0.5"/>
<path d="M300.594 66.2222L261.094 68.2222C260.594 63.2222 258.427 59.0555 256.594 57.2222L302.594 54.7222M301.094 52.2222C290.094 50.7222 279.094 45.9222 267.094 39.9222M229.094 30.2222L273.094 27.7222L281.594 26.2222" stroke="black" stroke-width="0.5"/>
<path d="M273.094 42.7222C280.089 43.072 286.106 43.177 291.487 43.7222M298.094 44.7222C295.991 44.2715 293.798 43.9563 291.487 43.7222M296.094 37.2222C295.676 36.637 295.207 36.1078 294.703 35.6322M291.487 43.7222C291.161 43.3774 291.067 42.8544 291.052 42.2222M291.052 42.2222C291.038 41.6319 291.094 40.9465 291.094 40.2222C291.094 38.2222 290.094 34.2222 286.594 32.2222C288.815 32.2222 292.191 33.2626 294.703 35.6322M291.052 42.2222C294.094 40.7222 295.166 37.1622 294.703 35.6322" stroke="black" stroke-width="0.5"/>
<path d="M291.094 40.2222C286.594 40.2222 284.594 36.2222 283.594 33.7222" stroke="black" stroke-width="0.5"/>
<path d="M133.092 12.3221C119.592 16.3221 107.592 22.2222 93.5923 35.2222C100.592 23.2222 116.092 13.7222 131.592 8.72217L133.092 12.3221Z" fill="#EFC7D3" stroke="black" stroke-width="0.5"/>
<path d="M131.592 8.72217C111.592 14.3962 93.5923 31.7222 85.5923 29.7222C98.5923 20.2222 114.592 11.7222 131.092 7.22217L131.592 8.72217Z" fill="#EFC7D3" stroke="black" stroke-width="0.5"/>
<path d="M10.593 47.7221H4.59295C2.09229 51.722 2.09229 61.722 2.59295 65.222C1.09229 66.222 1.09288 70.722 2.09295 72.222L6.09295 72.722V74.222L2.09295 76.222V78.222C6.09295 79.222 14.593 81.222 22.593 80.722V79.222H40.0929C39.4263 70.722 41.0929 60.222 50.0929 53.222C47.5929 49.222 40.5929 44.722 37.5929 44.2221C27.5929 43.222 12.593 45.7221 10.593 47.7221Z" fill="#EFC7D3" stroke="black" stroke-width="0.5"/>
<path d="M93.5938 35.2222C75.7604 36.0555 44.0938 40.9222 33.5938 43.9222L37.5938 44.2222C42.5938 45.7222 48.0938 50.0555 50.0938 53.2222C63.0928 43.7222 88.5928 50.7222 87.0928 78.2222H97.0928C90.0928 67.2222 91.0928 45.2222 93.5938 35.2222Z" fill="#EFC7D3" stroke="black" stroke-width="0.5"/>
<path d="M10.5918 47.7222H4.5918C37.092 28.2221 59.092 34.2222 85.0918 29.7222L94.092 35.2222C77.092 36.2222 48.0918 39.7222 34.0918 43.9222C26.0918 43.7222 12.0918 45.7222 10.5918 47.7222Z" fill="#EFC7D3" stroke="black" stroke-width="0.5"/>
<path d="M37.5937 44.2222C30.0937 43.2222 13.0937 45.2222 10.5937 47.7222C9.79374 50.1222 12.9271 53.0555 14.5937 54.2222C24.0938 55.7222 37.5937 49.7222 37.5937 44.2222Z" fill="#EFC7D3" stroke="black" stroke-width="0.5"/>
<path d="M4.59298 47.7222C11.593 48.7222 5.59298 59.2222 2.59298 64.2222C2.09291 57.2222 2.59277 51.7222 4.59298 47.7222Z" fill="#EFC7D3" stroke="black" stroke-width="0.5"/>
<path d="M22.5923 83.7222V79.2222H40.0923L40.5923 83.7222H22.5923Z" fill="#EFC7D3" stroke="black" stroke-width="0.5"/>
<path d="M3.09375 65.2222C4.59375 67.7222 6.59375 70.8888 6.09375 72.7222M22.5938 79.2222C12.0938 79.7222 7.59375 75.7222 8.59375 72.2222C9.09375 71.7222 10.5938 70.2222 11.5938 70.2222" stroke="black" stroke-width="0.5"/>
<path d="M32.5938 74.2223C30.0938 70.2223 24.5938 65.2224 21.5938 63.7224C19.8437 63.2224 17.2186 63.3474 14.4685 63.7224C12.8436 65.0557 11.5938 68.2223 12.0938 71.2223C12.0938 72.389 13.4012 74.7223 16.0938 74.7223C20.5938 74.7223 27.5938 75.2223 32.5938 74.2223Z" fill="#EFC7D3"/>
<path d="M6.59375 65.2224C8.84369 64.7223 11.7186 64.0974 14.4685 63.7224M14.4685 63.7224C17.2186 63.3474 19.8437 63.2224 21.5938 63.7224C24.5938 65.2224 30.0938 70.2223 32.5938 74.2223C27.5938 75.2223 20.5938 74.7223 16.0938 74.7223C13.4012 74.7223 12.0938 72.389 12.0938 71.2223C11.5938 68.2223 12.8436 65.0557 14.4685 63.7224Z" stroke="black" stroke-width="0.5"/>
<path d="M12.0938 70.7224C20.0938 69.2224 23.5938 71.8509 26.5938 73.3509M13.5938 73.7224L31.0938 73.2224" stroke="black" stroke-width="0.5"/>
<path d="M22.5918 82.2222H32.0918C34.0918 82.2222 35.5918 80.2222 35.0918 79.2222M38.5918 79.2222V83.7222" stroke="black" stroke-width="0.5"/>
<path d="M22.5937 80.7224C18.0937 80.7224 13.5937 81.2224 2.0937 78.2224V76.2224L6.0937 74.2224V72.7224L2.0937 72.2224C1.59277 70.7222 0.592969 67.7222 2.59296 65.2222C2.09321 57.2222 2.59321 50.7222 4.5937 47.7219C37.0937 28.2223 59.0937 34.2224 85.0937 29.7224C163.094 -25.2778 245.094 11.7222 282.094 26.2223L295.594 28.2222L296.094 35.2222V38.2222C297.592 43.2222 298.927 47.7222 297.594 49.7222C300.094 50.7222 302.594 53.8888 302.594 55.7222L300.594 65.7222C301.046 76.5701 298.638 76.7944 289.306 77.1068C288.315 77.14 286.246 77.1742 285.094 77.2222V78.7222L260.094 79.1532M22.5937 80.7224V83.7224H40.592L40.0937 79.2224M22.5937 80.7224V79.2224H40.0937M40.0937 79.2224C37.0937 37.7224 90.5937 40.7224 87.0937 79.7224V82.2222H213.594C207.594 38.7222 262.094 38.7222 260.094 79.1532M259.592 79.1532H260.094" stroke="black"/>
</svg>
