<svg width="303" height="96" viewBox="0 0 303 96" fill="none" xmlns="http://www.w3.org/2000/svg">
<circle cx="62.2817" cy="74.0454" r="20.5" fill="#E56E90" stroke="black"/>
<circle cx="235.282" cy="74.0454" r="20.5" fill="#E56E90" stroke="black"/>
<path d="M132.28 12.5453L130.78 9.04527C170.78 1.04538 192.28 1.54541 231.28 13.0454L227.78 17.5454C207.78 9.54532 189.78 8.54532 173.78 8.04539C171.28 7.54539 167.28 7.54535 164.78 8.04527C154.78 8.04539 142.78 9.54539 132.28 12.5453Z" fill="#E56E90" stroke="black" stroke-width="0.5"/>
<path d="M130.78 9.04545L130.28 7.54545C166.28 -3.45459 198.78 0.545284 234.28 9.54546L231.28 13.0455C191.28 0.54541 165.28 2.04541 130.78 9.04545Z" fill="#E56E90" stroke="black" stroke-width="0.5"/>
<path d="M130.78 9.04552C182.28 -2.4545 210.78 7.54553 231.28 13.0455" stroke="black" stroke-width="0.5"/>
<path d="M170.282 30.0454L173.782 8.04541C207.282 9.04541 218.782 14.5454 223.282 16.0454L225.764 28.0454C198.774 28.046 181.279 29.5455 170.282 30.0454Z" fill="#E56E90"/>
<path d="M226.282 30.5454L223.282 16.0454C218.782 14.5454 207.282 9.04541 173.782 8.04541L170.282 30.0454C181.282 29.5454 198.782 28.0454 225.782 28.0454" stroke="black" stroke-width="0.5"/>
<path d="M164.782 8.04541C131.782 9.04541 111.782 18.0454 92.7817 35.5454L95.2817 33.5454L159.282 30.5454L164.782 8.04541Z" fill="#E56E90" stroke="black" stroke-width="0.5"/>
<path d="M239.28 22.5454C235.614 19.8787 229.78 17.5454 223.28 16.0454L225.78 28.0454H232.28C235.28 26.5454 238.28 24.3141 239.28 22.5454Z" fill="#E56E90" stroke="black" stroke-width="0.5"/>
<path d="M96.2817 78.5454H163.282L197.782 77.0454H212.282L212.782 82.5454H198.782H97.7817H86.2817V78.5454H96.2817Z" fill="#E56E90"/>
<path d="M96.2817 78.5454H163.282L197.782 77.0454M96.2817 78.5454C96.2817 80.0454 96.7817 81.0454 97.7817 82.5454M96.2817 78.5454H86.2817V82.5454H97.7817M197.782 77.0454L198.782 82.5454M197.782 77.0454H212.282L212.782 82.5454H198.782M198.782 82.5454H97.7817" stroke="black" stroke-width="0.5"/>
<path d="M96.2809 78.5454C91.7817 74.0454 88.7818 52.0454 92.7809 35.5454L164.782 31.5454C160.782 36.5454 159.782 70.5454 163.282 78.5454H96.2809Z" fill="#E56E90" stroke="black" stroke-width="0.5"/>
<path d="M228.281 30.5454L164.781 31.5454C160.781 36.5454 159.781 70.5454 163.281 78.5454L197.781 77.0454C202.281 75.5454 208.781 70.0454 228.281 30.5454Z" fill="#E56E90" stroke="black" stroke-width="0.5"/>
<path d="M170.282 30.0455C165.782 30.5455 162.282 30.5455 159.282 30.5455L164.782 8.04548C167.782 7.54541 170.782 7.54541 173.782 8.04548L170.282 30.0455Z" fill="#E56E90" stroke="black" stroke-width="0.5"/>
<path d="M98.7817 32.0457C103.282 37.5457 110.282 34.0457 114.282 32.5457C115.282 17.0455 102.282 25.0455 98.7817 32.0457Z" fill="#E56E90" stroke="black" stroke-width="0.5"/>
<path d="M234.28 9.54541L231.28 13.0454C248.28 18.5454 258.78 21.5454 271.28 28.0454H272.78L280.78 26.5454C265.78 20.0454 258.28 17.5454 234.28 9.54541Z" fill="#EFC7D3" stroke="black" stroke-width="0.5"/>
<path d="M271.28 28.0454C260.78 22.5454 241.78 16.0454 231.28 13.0454L229.28 15.5454L244.28 23.0454C242.78 25.5454 238.78 27.5454 232.78 30.2454C244.78 29.5454 261.78 28.5454 271.28 28.0454Z" fill="#EFC7D3" stroke="black" stroke-width="0.5"/>
<path d="M276.782 34.3454L282.78 32.0454L272.281 28.0454L228.281 30.5454C220.781 45.5454 205.781 76.0454 197.781 77.0454H212.281C210.781 66.0454 220.281 42.5454 245.282 51.5454C255.782 46.0454 265.782 40.5454 276.782 34.3454Z" fill="#EFC7D3" stroke="black" stroke-width="0.5"/>
<path d="M277.78 34.0454C265.78 40.5454 255.78 46.0454 245.28 51.5454C249.78 54.5454 260.28 60.5454 259.28 79.5454L284.28 79.0454V77.5454C292.78 76.5454 301.28 80.0454 299.78 66.0454L301.78 56.0454C301.78 54.5454 299.28 50.5454 296.78 50.0454C298.28 47.5454 295.28 38.5454 295.28 38.5454V37.0454L291.28 34.0454L286.28 32.5454L282.78 32.0454L277.78 34.0454Z" fill="#EFC7D3" stroke="black" stroke-width="0.5"/>
<path d="M280.78 26.5454L272.28 28.0454L282.78 32.0454C292.28 33.0454 291.279 34.5454 295.274 36.9656L294.78 28.5454L280.78 26.5454Z" fill="#EFC7D3"/>
<path d="M295.28 37.0454L295.274 36.9656M295.274 36.9656L294.78 28.5454L280.78 26.5454L272.28 28.0454L282.78 32.0454C292.28 33.0454 291.279 34.5454 295.274 36.9656Z" stroke="black" stroke-width="0.5"/>
<path d="M293.782 36.5456C293.282 34.0455 282.282 33.8454 276.782 34.3454" stroke="black" stroke-width="0.5"/>
<path d="M299.782 66.5454L260.282 68.5454C259.782 63.5454 257.615 59.3787 255.782 57.5454L301.782 55.0454M300.282 52.5454C289.282 51.0454 278.282 46.2454 266.282 40.2454M228.282 30.5454L272.282 28.0454L280.782 26.5454" stroke="black" stroke-width="0.5"/>
<path d="M290.282 40.5454C290.282 38.5454 289.282 34.5454 285.782 32.5454C288.003 32.5454 291.379 33.5858 293.891 35.9554C294.354 37.4854 293.282 41.0454 290.24 42.5454C290.226 41.9551 290.282 41.2697 290.282 40.5454Z" fill="#EFC7D3"/>
<path d="M272.282 43.0454C279.277 43.3952 285.294 43.5003 290.675 44.0454M297.282 45.0454C295.179 44.5948 292.985 44.2795 290.675 44.0454M295.282 37.5454C294.864 36.9603 294.395 36.4311 293.891 35.9554M290.675 44.0454C290.349 43.7006 290.255 43.1776 290.24 42.5454M290.24 42.5454C290.226 41.9551 290.282 41.2697 290.282 40.5454C290.282 38.5454 289.282 34.5454 285.782 32.5454C288.003 32.5454 291.379 33.5858 293.891 35.9554M290.24 42.5454C293.282 41.0454 294.354 37.4854 293.891 35.9554" stroke="black" stroke-width="0.5"/>
<path d="M290.282 40.5454C285.782 40.5454 283.782 36.5454 282.782 34.0454" stroke="black" stroke-width="0.5"/>
<path d="M132.28 12.6454C118.78 16.6454 106.78 22.5454 92.7803 35.5454C99.7803 23.5454 115.28 14.0454 130.78 9.04541L132.28 12.6454Z" fill="#EDADBF" stroke="black" stroke-width="0.5"/>
<path d="M130.78 9.04541C110.78 14.7194 92.7803 32.0454 84.7803 30.0454C97.7803 20.5454 113.78 12.0454 130.28 7.54541L130.78 9.04541Z" fill="#EDADBF" stroke="black" stroke-width="0.5"/>
<path d="M9.78094 48.0453H3.78094C1.28027 52.0453 1.28027 62.0453 1.78094 65.5453C0.280273 66.5453 0.280871 71.0453 1.28094 72.5453L5.28094 73.0453V74.5453L1.28094 76.5453V78.5453C5.28094 79.5453 13.7809 81.5453 21.7809 81.0453V79.5453H39.2809C38.6143 71.0453 40.2809 60.5453 49.2809 53.5453C46.7809 49.5453 39.7809 45.0453 36.7809 44.5453C26.7809 43.5453 11.7809 46.0453 9.78094 48.0453Z" fill="#EDADBF" stroke="black" stroke-width="0.5"/>
<path d="M92.7817 35.5454C74.9484 36.3787 43.2817 41.2454 32.7817 44.2454L36.7817 44.5454C41.7817 46.0454 47.2817 50.3787 49.2817 53.5454C62.2808 44.0454 87.7808 51.0454 86.2808 78.5454H96.2808C89.2808 67.5454 90.2808 45.5454 92.7817 35.5454Z" fill="#EDADBF" stroke="black" stroke-width="0.5"/>
<path d="M9.78027 48.0455H3.78027C36.2805 28.5454 58.2805 34.5454 84.2803 30.0454L93.2805 35.5454C76.2805 36.5454 47.2803 40.0454 33.2803 44.2454C25.2803 44.0454 11.2803 46.0454 9.78027 48.0455Z" fill="#EDADBF" stroke="black" stroke-width="0.5"/>
<path d="M36.7817 44.5455C29.2817 43.5454 12.2817 45.5454 9.78173 48.0455C8.98173 50.4454 12.1151 53.3787 13.7817 54.5454C23.2817 56.0454 36.7817 50.0454 36.7817 44.5455Z" fill="#EDADBF" stroke="black" stroke-width="0.5"/>
<path d="M3.78097 48.0454C10.781 49.0454 4.78097 59.5454 1.78097 64.5454C1.2809 57.5454 1.78076 52.0454 3.78097 48.0454Z" fill="#EDADBF" stroke="black" stroke-width="0.5"/>
<path d="M21.7803 84.0454V79.5454H39.2803L39.7803 84.0454H21.7803Z" fill="#EDADBF" stroke="black" stroke-width="0.5"/>
<path d="M2.28223 65.5454C3.78223 68.0454 5.78223 71.2121 5.28223 73.0454M21.7822 79.5454C11.2822 80.0454 6.78223 76.0454 7.78223 72.5454C8.28223 72.0454 9.78223 70.5454 10.7822 70.5454" stroke="black" stroke-width="0.5"/>
<path d="M31.7822 74.5455C29.2822 70.5455 23.7822 65.5456 20.7822 64.0456C19.0322 63.5456 16.4071 63.6706 13.657 64.0456C12.0321 65.3789 10.7822 68.5455 11.2822 71.5455C11.2822 72.7122 12.5896 75.0455 15.2822 75.0455C19.7822 75.0455 26.7822 75.5455 31.7822 74.5455Z" fill="#EDADBF"/>
<path d="M5.78223 65.5456C8.03217 65.0456 10.9071 64.4206 13.657 64.0456M13.657 64.0456C16.4071 63.6706 19.0322 63.5456 20.7822 64.0456C23.7822 65.5456 29.2822 70.5455 31.7822 74.5455C26.7822 75.5455 19.7822 75.0455 15.2822 75.0455C12.5896 75.0455 11.2822 72.7122 11.2822 71.5455C10.7822 68.5455 12.0321 65.3789 13.657 64.0456Z" stroke="black" stroke-width="0.5"/>
<path d="M11.2822 71.0456C19.2822 69.5457 22.7822 72.1741 25.7822 73.6741M12.7822 74.0457L30.2822 73.5457" stroke="black" stroke-width="0.5"/>
<path d="M21.7803 82.5454H31.2803C33.2803 82.5454 34.7803 80.5454 34.2803 79.5454M37.7803 79.5454V84.0454" stroke="black" stroke-width="0.5"/>
<path d="M21.7817 81.0457C17.2817 81.0457 12.7817 81.5457 1.28168 78.5457V76.5457L5.28168 74.5456V73.0457L1.28168 72.5457C0.780762 71.0454 -0.219042 68.0454 1.78095 65.5454C1.2812 57.5454 1.7812 51.0454 3.78168 48.0452C36.2817 28.5455 58.2817 34.5456 84.2817 30.0456C162.282 -24.9545 244.282 12.0454 281.282 26.5456L294.782 28.5454L295.282 35.5454V38.5454C296.78 43.5454 298.115 48.0454 296.782 50.0454C299.282 51.0454 301.782 54.2121 301.782 56.0454L299.782 66.0454C300.234 76.8933 297.826 77.1176 288.494 77.43C287.503 77.4632 285.434 77.4974 284.282 77.5454V79.0454L259.282 79.4764M21.7817 81.0457V84.0457H39.78L39.2817 79.5457M21.7817 81.0457V79.5457H39.2817M39.2817 79.5457C36.2817 38.0457 89.7817 41.0457 86.2817 80.0457V82.5454H212.782C206.782 39.0454 261.282 39.0454 259.282 79.4764M258.78 79.4764H259.282" stroke="black"/>
</svg>
