<svg width="304" height="96" viewBox="0 0 304 96" fill="none" xmlns="http://www.w3.org/2000/svg">
<circle cx="63.0518" cy="74.1692" r="20.5" fill="#EDADBF" stroke="black"/>
<circle cx="236.052" cy="74.1692" r="20.5" fill="#EDADBF" stroke="black"/>
<path d="M133.05 12.669L131.55 9.16904C171.55 1.16916 193.05 1.66919 232.05 13.1691L228.55 17.6691C208.55 9.6691 190.55 8.6691 174.55 8.16917C172.05 7.66917 168.05 7.66913 165.55 8.16904C155.55 8.16917 143.55 9.66917 133.05 12.669Z" stroke="black" stroke-width="0.5"/>
<path d="M131.55 9.16923L131.05 7.66923C167.05 -3.33081 199.55 0.669064 235.05 9.66924L232.05 13.1692C192.05 0.669189 166.05 2.16919 131.55 9.16923Z" stroke="black" stroke-width="0.5"/>
<path d="M131.55 9.16918C183.05 -2.33085 211.55 7.66919 232.05 13.1692" stroke="black" stroke-width="0.5"/>
<path d="M227.052 30.6692L224.052 16.1692C219.552 14.6692 208.052 9.16919 174.552 8.16919L171.052 30.1692C182.052 29.6692 199.552 28.1692 226.552 28.1692" stroke="black" stroke-width="0.5"/>
<path d="M165.552 8.16919C132.552 9.16919 112.552 18.1692 93.5518 35.6692L96.0518 33.6692L160.052 30.6692L165.552 8.16919Z" stroke="black" stroke-width="0.5"/>
<path d="M240.05 22.6692C236.383 20.0025 230.55 17.6692 224.05 16.1692L226.55 28.1692H233.05C236.05 26.6692 239.05 24.4379 240.05 22.6692Z" stroke="black" stroke-width="0.5"/>
<path d="M97.0518 78.6692H164.052L198.552 77.1692M97.0518 78.6692C97.0518 80.1692 97.5518 81.1692 98.5518 82.6692M97.0518 78.6692H87.0518V82.6692H98.5518M198.552 77.1692L199.552 82.6692M198.552 77.1692H213.052L213.552 82.6692H199.552M199.552 82.6692H98.5518" stroke="black" stroke-width="0.5"/>
<path d="M97.0509 78.6692C92.5518 74.1692 89.5518 52.1692 93.5509 35.6692L165.552 31.6692C161.552 36.6692 160.552 70.6692 164.052 78.6692H97.0509Z" stroke="black" stroke-width="0.5"/>
<path d="M229.052 30.6692L165.552 31.6692C161.552 36.6692 160.552 70.6692 164.052 78.6692L198.552 77.1692C203.052 75.6692 209.552 70.1692 229.052 30.6692Z" stroke="black" stroke-width="0.5"/>
<path d="M171.052 30.1693C166.552 30.6693 163.052 30.6693 160.052 30.6693L165.552 8.16926C168.552 7.66919 171.552 7.66919 174.552 8.16926L171.052 30.1693Z" stroke="black" stroke-width="0.5"/>
<path d="M99.5518 32.1693C104.052 37.6693 111.052 34.1693 115.052 32.6693C116.052 17.1692 103.052 25.1692 99.5518 32.1693Z" stroke="black" stroke-width="0.5"/>
<path d="M235.05 9.66919L232.05 13.1692C249.05 18.6692 259.55 21.6692 272.05 28.1692H273.55L281.55 26.6692C266.55 20.1692 259.05 17.6692 235.05 9.66919Z" fill="#E0426F" stroke="black" stroke-width="0.5"/>
<path d="M272.05 28.1692C261.55 22.6692 242.55 16.1692 232.05 13.1692L230.05 15.6692L245.05 23.1692C243.55 25.6692 239.55 27.6692 233.55 30.3692C245.55 29.6692 262.55 28.6692 272.05 28.1692Z" fill="#E0426F" stroke="black" stroke-width="0.5"/>
<path d="M277.552 34.4692L283.55 32.1692L273.051 28.1692L229.051 30.6692C221.551 45.6692 206.551 76.1692 198.551 77.1692H213.051C211.551 66.1692 221.051 42.6692 246.052 51.6692C256.552 46.1692 266.552 40.6692 277.552 34.4692Z" fill="#E0426F" stroke="black" stroke-width="0.5"/>
<path d="M278.55 34.1692C266.55 40.6692 256.55 46.1692 246.05 51.6692C250.55 54.6692 261.05 60.6692 260.05 79.6692L285.05 79.1692V77.6692C293.55 76.6692 302.05 80.1692 300.55 66.1692L302.55 56.1692C302.55 54.6692 300.05 50.6692 297.55 50.1692C299.05 47.6692 296.05 38.6692 296.05 38.6692V37.1692L292.05 34.1692L287.05 32.6692L283.55 32.1692L278.55 34.1692Z" fill="#E0426F" stroke="black" stroke-width="0.5"/>
<path d="M281.55 26.6692L273.05 28.1692L283.55 32.1692C293.05 33.1692 292.049 34.6692 296.044 37.0894L295.55 28.6692L281.55 26.6692Z" fill="#E0426F"/>
<path d="M296.05 37.1692L296.044 37.0894M296.044 37.0894L295.55 28.6692L281.55 26.6692L273.05 28.1692L283.55 32.1692C293.05 33.1692 292.049 34.6692 296.044 37.0894Z" stroke="black" stroke-width="0.5"/>
<path d="M294.552 36.6694C294.052 34.1693 283.052 33.9692 277.552 34.4692" stroke="black" stroke-width="0.5"/>
<path d="M300.552 66.6692L261.052 68.6692C260.552 63.6692 258.385 59.5025 256.552 57.6692L302.552 55.1692M301.052 52.6692C290.052 51.1692 279.052 46.3692 267.052 40.3692M229.052 30.6692L273.052 28.1692L281.552 26.6692" stroke="black" stroke-width="0.5"/>
<path d="M291.052 40.6692C291.052 38.6692 290.052 34.6692 286.552 32.6692C288.773 32.6692 292.149 33.7096 294.661 36.0792C295.124 37.6092 294.052 41.1692 291.01 42.6692C290.996 42.0789 291.052 41.3935 291.052 40.6692Z" fill="#E0426F"/>
<path d="M273.052 43.1692C280.047 43.519 286.064 43.6241 291.445 44.1692M298.052 45.1692C295.949 44.7185 293.756 44.4033 291.445 44.1692M296.052 37.6692C295.634 37.0841 295.165 36.5548 294.661 36.0792M291.445 44.1692C291.119 43.8244 291.025 43.3014 291.01 42.6692M291.01 42.6692C290.996 42.0789 291.052 41.3935 291.052 40.6692C291.052 38.6692 290.052 34.6692 286.552 32.6692C288.773 32.6692 292.149 33.7096 294.661 36.0792M291.01 42.6692C294.052 41.1692 295.124 37.6092 294.661 36.0792" stroke="black" stroke-width="0.5"/>
<path d="M291.052 40.6692C286.552 40.6692 284.552 36.6692 283.552 34.1692" stroke="black" stroke-width="0.5"/>
<path d="M133.05 12.7692C119.55 16.7692 107.55 22.6692 93.5498 35.6692C100.55 23.6692 116.05 14.1692 131.55 9.16919L133.05 12.7692Z" stroke="black" stroke-width="0.5"/>
<path d="M131.55 9.16919C111.55 14.8432 93.5498 32.1692 85.5498 30.1692C98.5498 20.6692 114.55 12.1692 131.05 7.66919L131.55 9.16919Z" stroke="black" stroke-width="0.5"/>
<path d="M10.5505 48.1692H4.55047C2.0498 52.1692 2.0498 62.1692 2.55047 65.6692C1.0498 66.6692 1.0504 71.1692 2.05047 72.6692L6.05047 73.1692V74.6692L2.05047 76.6692V78.6692C6.05047 79.6692 14.5505 81.6692 22.5505 81.1692V79.6692H40.0505C39.3838 71.1692 41.0505 60.6692 50.0505 53.6692C47.5505 49.6692 40.5505 45.1692 37.5505 44.6692C27.5505 43.6692 12.5505 46.1692 10.5505 48.1692Z" stroke="black" stroke-width="0.5"/>
<path d="M93.5518 35.6692C75.7184 36.5025 44.0518 41.3692 33.5518 44.3692L37.5518 44.6692C42.5518 46.1692 48.0518 50.5025 50.0518 53.6692C63.0508 44.1692 88.5508 51.1692 87.0508 78.6692H97.0508C90.0508 67.6692 91.0508 45.6692 93.5518 35.6692Z" stroke="black" stroke-width="0.5"/>
<path d="M10.5498 48.1692H4.5498C37.05 28.6691 59.05 34.6692 85.0498 30.1692L94.05 35.6692C77.05 36.6692 48.0498 40.1692 34.0498 44.3692C26.0498 44.1692 12.0498 46.1692 10.5498 48.1692Z" stroke="black" stroke-width="0.5"/>
<path d="M37.5513 44.6693C30.0513 43.6692 13.0513 45.6692 10.5513 48.1693C9.75126 50.5692 12.8846 53.5025 14.5513 54.6692C24.0513 56.1692 37.5513 50.1692 37.5513 44.6693Z" stroke="black" stroke-width="0.5"/>
<path d="M4.5505 48.1692C11.5505 49.1692 5.5505 59.6692 2.5505 64.6692C2.05043 57.6692 2.55029 52.1692 4.5505 48.1692Z" stroke="black" stroke-width="0.5"/>
<path d="M22.5498 84.1692V79.6692H40.0498L40.5498 84.1692H22.5498Z" stroke="black" stroke-width="0.5"/>
<path d="M3.05176 65.6692C4.55176 68.1692 6.55176 71.3359 6.05176 73.1692M22.5518 79.6692C12.0518 80.1692 7.55176 76.1692 8.55176 72.6692C9.05176 72.1692 10.5518 70.6692 11.5518 70.6692" stroke="black" stroke-width="0.5"/>
<path d="M6.55176 65.6693C8.8017 65.1692 11.6766 64.5443 14.4265 64.1693M14.4265 64.1693C17.1766 63.7943 19.8017 63.6693 21.5518 64.1693C24.5518 65.6693 30.0518 70.6692 32.5518 74.6692C27.5518 75.6692 20.5518 75.1692 16.0518 75.1692C13.3592 75.1692 12.0518 72.8359 12.0518 71.6692C11.5518 68.6692 12.8016 65.5026 14.4265 64.1693Z" stroke="black" stroke-width="0.5"/>
<path d="M12.0518 71.1693C20.0518 69.6693 23.5518 72.2978 26.5518 73.7978M13.5518 74.1693L31.0518 73.6693" stroke="black" stroke-width="0.5"/>
<path d="M22.5498 82.6692H32.0498C34.0498 82.6692 35.5498 80.6692 35.0498 79.6692M38.5498 79.6692V84.1692" stroke="black" stroke-width="0.5"/>
<path d="M22.5517 81.1694C18.0517 81.1694 13.5517 81.6694 2.0517 78.6694V76.6694L6.0517 74.6694V73.1694L2.0517 72.6694C1.55078 71.1692 0.550977 68.1692 2.55097 65.6692C2.05122 57.6692 2.55122 51.1692 4.5517 48.1689C37.0517 28.6693 59.0517 34.6694 85.0517 30.1694C163.052 -24.8307 245.052 12.1692 282.052 26.6694L295.552 28.6692L296.052 35.6692V38.6692C297.55 43.6692 298.885 48.1692 297.552 50.1692C300.052 51.1692 302.552 54.3359 302.552 56.1692L300.552 66.1692C301.004 77.0171 298.596 77.2414 289.264 77.5538C288.273 77.587 286.204 77.6212 285.052 77.6692V79.1692L260.052 79.6002M22.5517 81.1694V84.1694H40.55L40.0517 79.6694M22.5517 81.1694V79.6694H40.0517M40.0517 79.6694C37.0517 38.1694 90.5517 41.1694 87.0517 80.1694V82.6692H213.552C207.552 39.1692 262.052 39.1692 260.052 79.6002M259.55 79.6002H260.052" stroke="black"/>
</svg>
