<svg width="303" height="96" viewBox="0 0 303 96" fill="none" xmlns="http://www.w3.org/2000/svg">
<circle cx="62.667" cy="74.0151" r="20.5" stroke="black"/>
<circle cx="235.667" cy="74.0151" r="20.5" stroke="black"/>
<path d="M132.665 12.515L131.165 9.01499C171.165 1.0151 192.665 1.51514 231.665 13.0151L228.165 17.5151C208.165 9.51505 190.165 8.51505 174.165 8.01511C171.665 7.51511 167.665 7.51508 165.165 8.01499C155.165 8.01511 143.165 9.51511 132.665 12.515Z" fill="#EFC7D3" stroke="black" stroke-width="0.5"/>
<path d="M131.165 9.01518L130.665 7.51518C166.665 -3.48486 199.165 0.515011 234.665 9.51518L231.665 13.0152C191.665 0.515137 165.665 2.01514 131.165 9.01518Z" fill="#EFC7D3" stroke="black" stroke-width="0.5"/>
<path d="M131.165 9.01512C182.665 -2.4849 211.165 7.51514 231.665 13.0151" stroke="black" stroke-width="0.5"/>
<path d="M170.667 30.0151L174.167 8.01514C207.667 9.01514 219.167 14.5151 223.667 16.0151L226.15 28.0151C199.16 28.0158 181.665 29.5152 170.667 30.0151Z" fill="#EFC7D3"/>
<path d="M226.667 30.5151L223.667 16.0151C219.167 14.5151 207.667 9.01514 174.167 8.01514L170.667 30.0151C181.667 29.5151 199.167 28.0151 226.167 28.0151" stroke="black" stroke-width="0.5"/>
<path d="M165.167 8.01514C132.167 9.01514 112.167 18.0151 93.167 35.5151L95.667 33.5151L159.667 30.5151L165.167 8.01514Z" fill="#EFC7D3" stroke="black" stroke-width="0.5"/>
<path d="M239.665 22.5151C235.998 19.8485 230.165 17.5151 223.665 16.0151L226.165 28.0151H232.665C235.665 26.5151 238.665 24.2839 239.665 22.5151Z" fill="#EFC7D3" stroke="black" stroke-width="0.5"/>
<path d="M96.667 78.5151H163.667L198.167 77.0151H212.667L213.167 82.5151H199.167H98.167H86.667V78.5151H96.667Z" fill="#EFC7D3"/>
<path d="M96.667 78.5151H163.667L198.167 77.0151M96.667 78.5151C96.667 80.0151 97.167 81.0151 98.167 82.5151M96.667 78.5151H86.667V82.5151H98.167M198.167 77.0151L199.167 82.5151M198.167 77.0151H212.667L213.167 82.5151H199.167M199.167 82.5151H98.167" stroke="black" stroke-width="0.5"/>
<path d="M96.6661 78.5151C92.167 74.0151 89.167 52.0151 93.1661 35.5151L165.167 31.5151C161.167 36.5151 160.167 70.5151 163.667 78.5151H96.6661Z" fill="#EFC7D3" stroke="black" stroke-width="0.5"/>
<path d="M228.667 30.5151L165.167 31.5151C161.167 36.5151 160.167 70.5151 163.667 78.5151L198.167 77.0151C202.667 75.5151 209.167 70.0151 228.667 30.5151Z" fill="#EFC7D3" stroke="black" stroke-width="0.5"/>
<path d="M170.667 30.0152C166.167 30.5152 162.667 30.5152 159.667 30.5152L165.167 8.01521C168.167 7.51514 171.167 7.51514 174.167 8.01521L170.667 30.0152Z" fill="#EFC7D3" stroke="black" stroke-width="0.5"/>
<path d="M99.167 32.0153C103.667 37.5153 110.667 34.0153 114.667 32.5153C115.667 17.0152 102.667 25.0151 99.167 32.0153Z" fill="#EFC7D3" stroke="black" stroke-width="0.5"/>
<path d="M234.665 9.51514L231.665 13.0151C248.665 18.5151 259.165 21.5151 271.665 28.0151H273.165L281.165 26.5151C266.165 20.0151 258.665 17.5151 234.665 9.51514Z" fill="#E56E90" stroke="black" stroke-width="0.5"/>
<path d="M271.665 28.0151C261.165 22.5151 242.165 16.0151 231.665 13.0151L229.665 15.5151L244.665 23.0151C243.165 25.5151 239.165 27.5151 233.165 30.2151C245.165 29.5151 262.165 28.5151 271.665 28.0151Z" fill="#E56E90" stroke="black" stroke-width="0.5"/>
<path d="M277.167 34.3151L283.165 32.0151L272.666 28.0151L228.666 30.5151C221.166 45.5151 206.166 76.0151 198.166 77.0151H212.666C211.166 66.0151 220.666 42.5151 245.667 51.5151C256.167 46.0151 266.167 40.5151 277.167 34.3151Z" fill="#E56E90" stroke="black" stroke-width="0.5"/>
<path d="M278.165 34.0152C266.165 40.5152 256.165 46.0152 245.665 51.5152C250.165 54.5151 260.665 60.5151 259.665 79.5151L284.665 79.0151V77.5151C293.165 76.5151 301.665 80.0151 300.165 66.0151L302.165 56.0151C302.165 54.5151 299.665 50.5151 297.165 50.0151C298.665 47.5151 295.665 38.5151 295.665 38.5151V37.0151L291.665 34.0151L286.665 32.5151L283.165 32.0151L278.165 34.0152Z" fill="#E56E90" stroke="black" stroke-width="0.5"/>
<path d="M281.165 26.5151L272.665 28.0151L283.165 32.0151C292.665 33.0151 291.664 34.5151 295.659 36.9353L295.165 28.5151L281.165 26.5151Z" fill="#E56E90"/>
<path d="M295.665 37.0151L295.659 36.9353M295.659 36.9353L295.165 28.5151L281.165 26.5151L272.665 28.0151L283.165 32.0151C292.665 33.0151 291.664 34.5151 295.659 36.9353Z" stroke="black" stroke-width="0.5"/>
<path d="M294.167 36.5153C293.667 34.0152 282.667 33.8151 277.167 34.3151" stroke="black" stroke-width="0.5"/>
<path d="M300.167 66.5151L260.667 68.5151C260.167 63.5151 258 59.3485 256.167 57.5151L302.167 55.0151M300.667 52.5151C289.667 51.0151 278.667 46.2151 266.667 40.2151M228.667 30.5151L272.667 28.0151L281.167 26.5151" stroke="black" stroke-width="0.5"/>
<path d="M290.667 40.5151C290.667 38.5151 289.667 34.5151 286.167 32.5151C288.388 32.5151 291.765 33.5555 294.276 35.9251C294.74 37.4551 293.667 41.0151 290.625 42.5151C290.612 41.9249 290.667 41.2394 290.667 40.5151Z" fill="#E56E90"/>
<path d="M272.667 43.0151C279.663 43.3649 285.68 43.47 291.06 44.0151M297.667 45.0151C295.564 44.5645 293.371 44.2492 291.06 44.0151M295.667 37.5151C295.249 36.93 294.78 36.4008 294.276 35.9251M291.06 44.0151C290.734 43.6704 290.64 43.1473 290.625 42.5151M290.625 42.5151C290.612 41.9249 290.667 41.2394 290.667 40.5151C290.667 38.5151 289.667 34.5151 286.167 32.5151C288.388 32.5151 291.765 33.5555 294.276 35.9251M290.625 42.5151C293.667 41.0151 294.74 37.4551 294.276 35.9251" stroke="black" stroke-width="0.5"/>
<path d="M290.667 40.5151C286.167 40.5151 284.167 36.5151 283.167 34.0151" stroke="black" stroke-width="0.5"/>
<path d="M132.665 12.6151C119.165 16.6151 107.165 22.5151 93.165 35.5151C100.165 23.5151 115.665 14.0151 131.165 9.01514L132.665 12.6151Z" stroke="black" stroke-width="0.5"/>
<path d="M131.165 9.01514C111.165 14.6892 93.165 32.0151 85.165 30.0151C98.165 20.5151 114.165 12.0151 130.665 7.51514L131.165 9.01514Z" stroke="black" stroke-width="0.5"/>
<path d="M10.1657 48.0151H4.16571C1.66504 52.0151 1.66504 62.0151 2.16571 65.5151C0.665039 66.5151 0.665637 71.0151 1.66571 72.5151L5.66571 73.0151V74.5151L1.66571 76.5151V78.5151C5.66571 79.5151 14.1657 81.5151 22.1657 81.0151V79.5151H39.6657C38.999 71.0151 40.6657 60.5151 49.6657 53.5151C47.1657 49.5151 40.1657 45.0151 37.1657 44.5151C27.1657 43.5151 12.1657 46.0151 10.1657 48.0151Z" stroke="black" stroke-width="0.5"/>
<path d="M93.167 35.5151C75.3337 36.3485 43.667 41.2151 33.167 44.2151L37.167 44.5151C42.167 46.0151 47.667 50.3485 49.667 53.5151C62.666 44.0151 88.166 51.0151 86.666 78.5151H96.666C89.666 67.5151 90.666 45.5151 93.167 35.5151Z" stroke="black" stroke-width="0.5"/>
<path d="M10.165 48.0152H4.16504C36.6652 28.5151 58.6653 34.5151 84.665 30.0151L93.6653 35.5151C76.6653 36.5151 47.665 40.0151 33.665 44.2151C25.665 44.0151 11.665 46.0151 10.165 48.0152Z" stroke="black" stroke-width="0.5"/>
<path d="M37.1665 44.5152C29.6665 43.5151 12.6665 45.5151 10.1665 48.0152C9.36649 50.4152 12.4998 53.3485 14.1665 54.5151C23.6665 56.0151 37.1665 50.0151 37.1665 44.5152Z" stroke="black" stroke-width="0.5"/>
<path d="M4.16573 48.0151C11.1657 49.0151 5.16573 59.5151 2.16573 64.5151C1.66566 57.5151 2.16553 52.0151 4.16573 48.0151Z" stroke="black" stroke-width="0.5"/>
<path d="M22.165 84.0151V79.5151H39.665L40.165 84.0151H22.165Z" stroke="black" stroke-width="0.5"/>
<path d="M2.66699 65.5151C4.16699 68.0151 6.16699 71.1818 5.66699 73.0151M22.167 79.5151C11.667 80.0151 7.16699 76.0151 8.16699 72.5151C8.66699 72.0151 10.167 70.5151 11.167 70.5151" stroke="black" stroke-width="0.5"/>
<path d="M6.16699 65.5152C8.41693 65.0152 11.2918 64.3902 14.0418 64.0152M14.0418 64.0152C16.7919 63.6402 19.4169 63.5152 21.167 64.0152C24.167 65.5152 29.667 70.5151 32.167 74.5151C27.167 75.5151 20.167 75.0151 15.667 75.0151C12.9744 75.0151 11.667 72.6818 11.667 71.5151C11.167 68.5151 12.4168 65.3485 14.0418 64.0152Z" stroke="black" stroke-width="0.5"/>
<path d="M11.667 71.0152C19.667 69.5153 23.167 72.1437 26.167 73.6437M13.167 74.0153L30.667 73.5153" stroke="black" stroke-width="0.5"/>
<path d="M22.165 82.5151H31.665C33.665 82.5151 35.165 80.5151 34.665 79.5151M38.165 79.5151V84.0151" stroke="black" stroke-width="0.5"/>
<path d="M22.1669 81.0154C17.6669 81.0154 13.1669 81.5154 1.66694 78.5154V76.5154L5.66694 74.5154V73.0154L1.66694 72.5154C1.16602 71.0151 0.166211 68.0151 2.16621 65.5151C1.66645 57.5151 2.16645 51.0151 4.16694 48.0149C36.6669 28.5153 58.6669 34.5153 84.6669 30.0153C162.667 -24.9848 244.667 12.0151 281.667 26.5153L295.167 28.5151L295.667 35.5151V38.5151C297.165 43.5151 298.5 48.0151 297.167 50.0151C299.667 51.0151 302.167 54.1818 302.167 56.0151L300.167 66.0151C300.619 76.863 298.211 77.0873 288.879 77.3998C287.888 77.433 285.819 77.4671 284.667 77.5151V79.0151L259.667 79.4462M22.1669 81.0154V84.0154H40.1653L39.6669 79.5154M22.1669 81.0154V79.5154H39.6669M39.6669 79.5154C36.6669 38.0154 90.1669 41.0154 86.6669 80.0154V82.5151H213.167C207.167 39.0151 261.667 39.0151 259.667 79.4462M259.165 79.4462H259.667" stroke="black"/>
</svg>
