<svg width="303" height="96" viewBox="0 0 303 96" fill="none" xmlns="http://www.w3.org/2000/svg">
<circle cx="62.4897" cy="74.2297" r="20.5" fill="#E0426F" stroke="black"/>
<circle cx="235.49" cy="74.2297" r="20.5" fill="#E0426F" stroke="black"/>
<path d="M132.488 12.7296L130.988 9.22959C170.988 1.2297 192.488 1.72974 231.488 13.2297L227.988 17.7297C207.988 9.72965 189.988 8.72964 173.988 8.22971C171.488 7.72971 167.488 7.72968 164.988 8.22959C154.988 8.22971 142.988 9.72971 132.488 12.7296Z" fill="#E0426F" stroke="black" stroke-width="0.5"/>
<path d="M130.988 9.22978L130.488 7.72978C166.488 -3.27026 198.988 0.72961 234.488 9.72978L231.488 13.2298C191.488 0.729736 165.488 2.22974 130.988 9.22978Z" fill="#E0426F" stroke="black" stroke-width="0.5"/>
<path d="M130.988 9.2296C182.488 -2.27042 210.988 7.72961 231.488 13.2296" stroke="black" stroke-width="0.5"/>
<path d="M170.49 30.2297L173.99 8.22974C207.49 9.22974 218.99 14.7297 223.49 16.2297L225.973 28.2297C198.982 28.2304 181.487 29.7298 170.49 30.2297Z" fill="#E0426F"/>
<path d="M226.49 30.7297L223.49 16.2297C218.99 14.7297 207.49 9.22974 173.99 8.22974L170.49 30.2297C181.49 29.7297 198.99 28.2297 225.99 28.2297" stroke="black" stroke-width="0.5"/>
<path d="M164.99 8.22974C131.99 9.22974 111.99 18.2297 92.9897 35.7297L95.4897 33.7297L159.49 30.7297L164.99 8.22974Z" fill="#E0426F" stroke="black" stroke-width="0.5"/>
<path d="M239.488 22.7297C235.822 20.0631 229.988 17.7297 223.488 16.2297L225.988 28.2297H232.488C235.488 26.7297 238.488 24.4985 239.488 22.7297Z" fill="#E0426F" stroke="black" stroke-width="0.5"/>
<path d="M96.4897 78.7297H163.49L197.99 77.2297H212.49L212.99 82.7297H198.99H97.9897H86.4897V78.7297H96.4897Z" fill="#E0426F"/>
<path d="M96.4897 78.7297H163.49L197.99 77.2297M96.4897 78.7297C96.4897 80.2297 96.9897 81.2297 97.9897 82.7297M96.4897 78.7297H86.4897V82.7297H97.9897M197.99 77.2297L198.99 82.7297M197.99 77.2297H212.49L212.99 82.7297H198.99M198.99 82.7297H97.9897" stroke="black" stroke-width="0.5"/>
<path d="M96.4889 78.7297C91.9897 74.2297 88.9898 52.2297 92.9889 35.7297L164.99 31.7297C160.99 36.7297 159.99 70.7297 163.49 78.7297H96.4889Z" fill="#E0426F" stroke="black" stroke-width="0.5"/>
<path d="M228.489 30.7297L164.989 31.7297C160.989 36.7297 159.99 70.7297 163.489 78.7297L197.989 77.2297C202.489 75.7297 208.989 70.2297 228.489 30.7297Z" fill="#E0426F" stroke="black" stroke-width="0.5"/>
<path d="M170.49 30.2298C165.99 30.7298 162.49 30.7298 159.49 30.7298L164.99 8.22981C167.99 7.72974 170.99 7.72974 173.99 8.22981L170.49 30.2298Z" fill="#E0426F" stroke="black" stroke-width="0.5"/>
<path d="M98.9897 32.2297C103.49 37.7297 110.49 34.2297 114.49 32.7297C115.49 17.2296 102.49 25.2296 98.9897 32.2297Z" fill="#E0426F" stroke="black" stroke-width="0.5"/>
<path d="M234.488 9.72974L231.488 13.2297C248.488 18.7297 258.988 21.7297 271.488 28.2297H272.988L280.988 26.7297C265.988 20.2297 258.488 17.7297 234.488 9.72974Z" stroke="black" stroke-width="0.5"/>
<path d="M271.488 28.2297C260.988 22.7297 241.988 16.2297 231.488 13.2297L229.488 15.7297L244.488 23.2297C242.988 25.7297 238.988 27.7297 232.988 30.4297C244.988 29.7297 261.988 28.7297 271.488 28.2297Z" stroke="black" stroke-width="0.5"/>
<path d="M276.99 34.5297L282.988 32.2297L272.489 28.2297L228.489 30.7297C220.989 45.7297 205.989 76.2297 197.989 77.2297H212.489C210.989 66.2297 220.489 42.7297 245.49 51.7297C255.99 46.2297 265.99 40.7297 276.99 34.5297Z" stroke="black" stroke-width="0.5"/>
<path d="M277.988 34.2298C265.988 40.7298 255.988 46.2298 245.488 51.7298C249.988 54.7297 260.488 60.7297 259.488 79.7297L284.488 79.2297V77.7297C292.988 76.7297 301.488 80.2297 299.988 66.2297L301.988 56.2297C301.988 54.7297 299.488 50.7297 296.988 50.2297C298.488 47.7297 295.488 38.7297 295.488 38.7297V37.2297L291.488 34.2297L286.488 32.7297L282.988 32.2297L277.988 34.2298Z" stroke="black" stroke-width="0.5"/>
<path d="M295.488 37.2297L295.482 37.1499M295.482 37.1499L294.988 28.7297L280.988 26.7297L272.488 28.2297L282.988 32.2297C292.488 33.2297 291.487 34.7297 295.482 37.1499Z" stroke="black" stroke-width="0.5"/>
<path d="M293.99 36.7299C293.49 34.2298 282.49 34.0297 276.99 34.5297" stroke="black" stroke-width="0.5"/>
<path d="M299.99 66.7297L260.49 68.7297C259.99 63.7297 257.823 59.5631 255.99 57.7297L301.99 55.2297M300.49 52.7297C289.49 51.2297 278.49 46.4297 266.49 40.4297M228.49 30.7297L272.49 28.2297L280.99 26.7297" stroke="black" stroke-width="0.5"/>
<path d="M272.49 43.2297C279.485 43.5795 285.502 43.6846 290.883 44.2297M297.49 45.2297C295.387 44.7791 293.194 44.4638 290.883 44.2297M295.49 37.7297C295.072 37.1446 294.603 36.6154 294.099 36.1397M290.883 44.2297C290.557 43.885 290.463 43.3619 290.448 42.7297M290.448 42.7297C290.434 42.1395 290.49 41.454 290.49 40.7297C290.49 38.7297 289.49 34.7297 285.99 32.7297C288.211 32.7297 291.587 33.7701 294.099 36.1397M290.448 42.7297C293.49 41.2297 294.562 37.6697 294.099 36.1397" stroke="black" stroke-width="0.5"/>
<path d="M290.49 40.7297C285.99 40.7297 283.99 36.7297 282.99 34.2297" stroke="black" stroke-width="0.5"/>
<path d="M132.488 12.8297C118.988 16.8297 106.988 22.7297 92.9883 35.7297C99.9883 23.7297 115.488 14.2297 130.988 9.22974L132.488 12.8297Z" fill="#E0426F" stroke="black" stroke-width="0.5"/>
<path d="M130.988 9.22974C110.988 14.9038 92.9883 32.2297 84.9883 30.2297C97.9883 20.7297 113.988 12.2297 130.488 7.72974L130.988 9.22974Z" fill="#E0426F" stroke="black" stroke-width="0.5"/>
<path d="M9.98895 48.2296H3.98895C1.48828 52.2296 1.48828 62.2296 1.98895 65.7296C0.488281 66.7296 0.488879 71.2296 1.48895 72.7296L5.48895 73.2296V74.7296L1.48895 76.7296V78.7296C5.48895 79.7296 13.9889 81.7296 21.9889 81.2296V79.7296H39.4889C38.8223 71.2296 40.4889 60.7296 49.4889 53.7296C46.9889 49.7296 39.9889 45.2296 36.9889 44.7296C26.9889 43.7296 11.9889 46.2296 9.98895 48.2296Z" fill="#E0426F" stroke="black" stroke-width="0.5"/>
<path d="M92.9897 35.7297C75.1564 36.5631 43.4897 41.4297 32.9897 44.4297L36.9897 44.7297C41.9897 46.2297 47.4897 50.5631 49.4897 53.7297C62.4888 44.2297 87.9888 51.2297 86.4888 78.7297H96.4888C89.4888 67.7297 90.4888 45.7297 92.9897 35.7297Z" fill="#E0426F" stroke="black" stroke-width="0.5"/>
<path d="M9.98828 48.2298H3.98828C36.4885 28.7297 58.4885 34.7297 84.4883 30.2297L93.4885 35.7297C76.4885 36.7297 47.4883 40.2297 33.4883 44.4297C25.4883 44.2297 11.4883 46.2297 9.98828 48.2298Z" fill="#E0426F" stroke="black" stroke-width="0.5"/>
<path d="M36.9897 44.7298C29.4897 43.7297 12.4897 45.7297 9.98974 48.2298C9.18974 50.6298 12.3231 53.5631 13.9897 54.7297C23.4897 56.2297 36.9897 50.2297 36.9897 44.7298Z" fill="#E0426F" stroke="black" stroke-width="0.5"/>
<path d="M3.98898 48.2297C10.989 49.2297 4.98898 59.7297 1.98898 64.7297C1.48891 57.7297 1.98877 52.2297 3.98898 48.2297Z" fill="#E0426F" stroke="black" stroke-width="0.5"/>
<path d="M21.9883 84.2297V79.7297H39.4883L39.9883 84.2297H21.9883Z" fill="#E0426F" stroke="black" stroke-width="0.5"/>
<path d="M2.49023 65.7295C3.99023 68.2295 5.99023 71.3962 5.49023 73.2295M21.9902 79.7295C11.4902 80.2295 6.99023 76.2295 7.99023 72.7295C8.49023 72.2295 9.99023 70.7295 10.9902 70.7295" stroke="black" stroke-width="0.5"/>
<path d="M31.9902 74.7296C29.4902 70.7296 23.9902 65.7297 20.9902 64.2297C19.2402 63.7297 16.6151 63.8547 13.865 64.2297C12.2401 65.563 10.9902 68.7296 11.4902 71.7296C11.4902 72.8963 12.7977 75.2296 15.4902 75.2296C19.9902 75.2296 26.9902 75.7296 31.9902 74.7296Z" fill="#E0426F"/>
<path d="M5.99023 65.7297C8.24018 65.2297 11.1151 64.6047 13.865 64.2297M13.865 64.2297C16.6151 63.8547 19.2402 63.7297 20.9902 64.2297C23.9902 65.7297 29.4902 70.7296 31.9902 74.7296C26.9902 75.7296 19.9902 75.2296 15.4902 75.2296C12.7977 75.2296 11.4902 72.8963 11.4902 71.7296C10.9902 68.7296 12.2401 65.563 13.865 64.2297Z" stroke="black" stroke-width="0.5"/>
<path d="M11.4902 71.2297C19.4902 69.7297 22.9902 72.3582 25.9902 73.8582M12.9902 74.2297L30.4902 73.7297" stroke="black" stroke-width="0.5"/>
<path d="M21.9883 82.7295H31.4883C33.4883 82.7295 34.9883 80.7295 34.4883 79.7295M37.9883 79.7295V84.2295" stroke="black" stroke-width="0.5"/>
<path d="M21.9897 81.23C17.4897 81.23 12.9897 81.73 1.48969 78.73V76.73L5.48969 74.73V73.23L1.48969 72.73C0.98877 71.2297 -0.0110346 68.2297 1.98896 65.7297C1.4892 57.7297 1.9892 51.2297 3.98969 48.2295C36.4897 28.7299 58.4897 34.7299 84.4897 30.2299C162.49 -24.7702 244.49 12.2297 281.49 26.7299L294.99 28.7297L295.49 35.7297V38.7297C296.988 43.7297 298.323 48.2297 296.99 50.2297C299.49 51.2297 301.99 54.3964 301.99 56.2297L299.99 66.2297C300.442 77.0776 298.034 77.3019 288.702 77.6144C287.711 77.6476 285.642 77.6817 284.49 77.7297V79.2297L259.49 79.6608M21.9897 81.23V84.23H39.988L39.4897 79.73M21.9897 81.23V79.73H39.4897M39.4897 79.73C36.4897 38.23 89.9897 41.23 86.4897 80.23V82.7297H212.99C206.99 39.2297 261.49 39.2297 259.49 79.6608M258.988 79.6608H259.49" stroke="black"/>
</svg>
