<svg width="303" height="96" viewBox="0 0 303 96" fill="none" xmlns="http://www.w3.org/2000/svg">
<circle cx="62.2607" cy="74.5076" r="20.5" fill="#E56E90" stroke="black"/>
<circle cx="235.261" cy="74.5076" r="20.5" fill="#E56E90" stroke="black"/>
<path d="M132.259 13.0074L130.759 9.50742C170.759 1.50754 192.259 2.00757 231.259 13.5075L227.759 18.0075C207.759 10.0075 189.759 9.00748 173.759 8.50755C171.259 8.00755 167.259 8.00751 164.759 8.50742C154.759 8.50755 142.759 10.0075 132.259 13.0074Z" stroke="black" stroke-width="0.5"/>
<path d="M130.759 9.50761L130.259 8.00761C166.259 -2.99243 198.759 1.00744 234.259 10.0076L231.259 13.5076C191.259 1.00757 165.259 2.50757 130.759 9.50761Z" stroke="black" stroke-width="0.5"/>
<path d="M130.759 9.50756C182.259 -1.99247 210.759 8.00757 231.259 13.5076" stroke="black" stroke-width="0.5"/>
<path d="M226.261 31.0076L223.261 16.5076C218.761 15.0076 207.261 9.50757 173.761 8.50757L170.261 30.5076C181.261 30.0076 198.761 28.5076 225.761 28.5076" stroke="black" stroke-width="0.5"/>
<path d="M164.761 8.50757C131.761 9.50757 111.761 18.5076 92.7607 36.0076L95.2607 34.0076L159.261 31.0076L164.761 8.50757Z" stroke="black" stroke-width="0.5"/>
<path d="M239.259 23.0076C235.592 20.3409 229.759 18.0076 223.259 16.5076L225.759 28.5076H232.259C235.259 27.0076 238.259 24.7763 239.259 23.0076Z" stroke="black" stroke-width="0.5"/>
<path d="M96.2607 79.0076H163.261L197.761 77.5076M96.2607 79.0076C96.2607 80.5076 96.7607 81.5076 97.7607 83.0076M96.2607 79.0076H86.2607V83.0076H97.7607M197.761 77.5076L198.761 83.0076M197.761 77.5076H212.261L212.761 83.0076H198.761M198.761 83.0076H97.7607" stroke="black" stroke-width="0.5"/>
<path d="M96.2599 79.0076C91.7607 74.5076 88.7608 52.5076 92.7599 36.0076L164.761 32.0076C160.761 37.0076 159.761 71.0076 163.261 79.0076H96.2599Z" stroke="black" stroke-width="0.5"/>
<path d="M228.261 31.0076L164.761 32.0076C160.761 37.0076 159.761 71.0076 163.261 79.0076L197.761 77.5076C202.261 76.0076 208.761 70.5076 228.261 31.0076Z" stroke="black" stroke-width="0.5"/>
<path d="M170.261 30.5076C165.761 31.0076 162.261 31.0076 159.261 31.0076L164.761 8.50764C167.761 8.00757 170.761 8.00757 173.761 8.50764L170.261 30.5076Z" stroke="black" stroke-width="0.5"/>
<path d="M98.7607 32.5077C103.261 38.0077 110.261 34.5077 114.261 33.0077C115.261 17.5076 102.261 25.5076 98.7607 32.5077Z" stroke="black" stroke-width="0.5"/>
<path d="M234.259 10.0076L231.259 13.5076C248.259 19.0076 258.759 22.0076 271.259 28.5076H272.759L280.759 27.0076C265.759 20.5076 258.259 18.0076 234.259 10.0076Z" fill="#E56E90" stroke="black" stroke-width="0.5"/>
<path d="M271.259 28.5076C260.759 23.0076 241.759 16.5076 231.259 13.5076L229.259 16.0076L244.259 23.5076C242.759 26.0076 238.759 28.0076 232.759 30.7076C244.759 30.0076 261.759 29.0076 271.259 28.5076Z" fill="#E56E90" stroke="black" stroke-width="0.5"/>
<path d="M276.761 34.8076L282.759 32.5076L272.26 28.5076L228.26 31.0076C220.76 46.0076 205.76 76.5076 197.76 77.5076H212.26C210.76 66.5076 220.26 43.0076 245.261 52.0076C255.761 46.5076 265.761 41.0076 276.761 34.8076Z" fill="#E56E90" stroke="black" stroke-width="0.5"/>
<path d="M277.759 34.5076C265.759 41.0076 255.759 46.5076 245.259 52.0076C249.759 55.0076 260.259 61.0076 259.259 80.0076L284.259 79.5076V78.0076C292.759 77.0076 301.259 80.5076 299.759 66.5076L301.759 56.5076C301.759 55.0076 299.259 51.0076 296.759 50.5076C298.259 48.0076 295.259 39.0076 295.259 39.0076V37.5076L291.259 34.5076L286.259 33.0076L282.759 32.5076L277.759 34.5076Z" fill="#E56E90" stroke="black" stroke-width="0.5"/>
<path d="M280.759 27.0076L272.259 28.5076L282.759 32.5076C292.259 33.5076 291.258 35.0076 295.253 37.4277L294.759 29.0076L280.759 27.0076Z" fill="#E56E90"/>
<path d="M295.259 37.5076L295.253 37.4277M295.253 37.4277L294.759 29.0076L280.759 27.0076L272.259 28.5076L282.759 32.5076C292.259 33.5076 291.258 35.0076 295.253 37.4277Z" stroke="black" stroke-width="0.5"/>
<path d="M293.761 37.0078C293.261 34.5077 282.261 34.3076 276.761 34.8076" stroke="black" stroke-width="0.5"/>
<path d="M299.761 67.0076L260.261 69.0076C259.761 64.0076 257.594 59.8409 255.761 58.0076L301.761 55.5076M300.261 53.0076C289.261 51.5076 278.261 46.7076 266.261 40.7076M228.261 31.0076L272.261 28.5076L280.761 27.0076" stroke="black" stroke-width="0.5"/>
<path d="M290.261 41.0076C290.261 39.0076 289.261 35.0076 285.761 33.0076C287.982 33.0076 291.358 34.048 293.87 36.4176C294.333 37.9476 293.261 41.5076 290.219 43.0076C290.205 42.4173 290.261 41.7319 290.261 41.0076Z" fill="#E56E90"/>
<path d="M272.261 43.5076C279.256 43.8574 285.273 43.9624 290.654 44.5076M297.261 45.5076C295.158 45.0569 292.964 44.7417 290.654 44.5076M295.261 38.0076C294.843 37.4224 294.374 36.8932 293.87 36.4176M290.654 44.5076C290.328 44.1628 290.234 43.6398 290.219 43.0076M290.219 43.0076C290.205 42.4173 290.261 41.7319 290.261 41.0076C290.261 39.0076 289.261 35.0076 285.761 33.0076C287.982 33.0076 291.358 34.048 293.87 36.4176M290.219 43.0076C293.261 41.5076 294.333 37.9476 293.87 36.4176" stroke="black" stroke-width="0.5"/>
<path d="M290.261 41.0076C285.761 41.0076 283.761 37.0076 282.761 34.5076" stroke="black" stroke-width="0.5"/>
<path d="M132.259 13.1075C118.759 17.1075 106.759 23.0076 92.7588 36.0076C99.7588 24.0076 115.259 14.5076 130.759 9.50757L132.259 13.1075Z" fill="#EDADBF" stroke="black" stroke-width="0.5"/>
<path d="M130.759 9.50757C110.759 15.1816 92.7588 32.5076 84.7588 30.5076C97.7588 21.0076 113.759 12.5076 130.259 8.00757L130.759 9.50757Z" fill="#EDADBF" stroke="black" stroke-width="0.5"/>
<path d="M9.75946 48.5076H3.75946C1.25879 52.5076 1.25879 62.5076 1.75946 66.0076C0.258789 67.0076 0.259387 71.5076 1.25946 73.0076L5.25946 73.5076V75.0076L1.25946 77.0076V79.0076C5.25946 80.0076 13.7595 82.0076 21.7595 81.5076V80.0076H39.2595C38.5928 71.5076 40.2595 61.0076 49.2595 54.0076C46.7595 50.0076 39.7595 45.5076 36.7595 45.0076C26.7595 44.0076 11.7595 46.5076 9.75946 48.5076Z" fill="#EDADBF" stroke="black" stroke-width="0.5"/>
<path d="M92.7607 36.0076C74.9274 36.8409 43.2607 41.7076 32.7607 44.7076L36.7607 45.0076C41.7607 46.5076 47.2607 50.8409 49.2607 54.0076C62.2598 44.5076 87.7598 51.5076 86.2598 79.0076H96.2598C89.2598 68.0076 90.2598 46.0076 92.7607 36.0076Z" fill="#EDADBF" stroke="black" stroke-width="0.5"/>
<path d="M9.75879 48.5076H3.75879C36.259 29.0075 58.259 35.0076 84.2588 30.5076L93.259 36.0076C76.259 37.0076 47.2588 40.5076 33.2588 44.7076C25.2588 44.5076 11.2588 46.5076 9.75879 48.5076Z" fill="#EDADBF" stroke="black" stroke-width="0.5"/>
<path d="M36.7602 45.0076C29.2602 44.0076 12.2602 46.0076 9.76024 48.5076C8.96024 50.9076 12.0936 53.8409 13.7602 55.0076C23.2603 56.5076 36.7602 50.5076 36.7602 45.0076Z" fill="#EDADBF" stroke="black" stroke-width="0.5"/>
<path d="M3.75948 48.5076C10.7595 49.5076 4.75948 60.0076 1.75948 65.0076C1.25941 58.0076 1.75928 52.5076 3.75948 48.5076Z" fill="#EDADBF" stroke="black" stroke-width="0.5"/>
<path d="M21.7588 84.5076V80.0076H39.2588L39.7588 84.5076H21.7588Z" fill="#EDADBF" stroke="black" stroke-width="0.5"/>
<path d="M2.26074 66.0076C3.76074 68.5076 5.76074 71.6742 5.26074 73.5076M21.7607 80.0076C11.2607 80.5076 6.76074 76.5076 7.76074 73.0076C8.26074 72.5076 9.76074 71.0076 10.7607 71.0076" stroke="black" stroke-width="0.5"/>
<path d="M31.7607 75.0076C29.2607 71.0076 23.7607 66.0076 20.7607 64.5076C19.0107 64.0076 16.3856 64.1326 13.6355 64.5076C12.0106 65.841 10.7607 69.0076 11.2607 72.0076C11.2607 73.1742 12.5682 75.5076 15.2607 75.5076C19.7607 75.5076 26.7607 76.0076 31.7607 75.0076Z" fill="#EDADBF"/>
<path d="M5.76074 66.0076C8.01068 65.5076 10.8856 64.8826 13.6355 64.5076M13.6355 64.5076C16.3856 64.1326 19.0107 64.0076 20.7607 64.5076C23.7607 66.0076 29.2607 71.0076 31.7607 75.0076C26.7607 76.0076 19.7607 75.5076 15.2607 75.5076C12.5682 75.5076 11.2607 73.1742 11.2607 72.0076C10.7607 69.0076 12.0106 65.841 13.6355 64.5076Z" stroke="black" stroke-width="0.5"/>
<path d="M11.2607 71.5076C19.2607 70.0077 22.7607 72.6362 25.7607 74.1362M12.7607 74.5077L30.2607 74.0077" stroke="black" stroke-width="0.5"/>
<path d="M21.7588 83.0076H31.2588C33.2588 83.0076 34.7588 81.0076 34.2588 80.0076M37.7588 80.0076V84.5076" stroke="black" stroke-width="0.5"/>
<path d="M21.7607 81.5078C17.2607 81.5078 12.7607 82.0078 1.26069 79.0078V77.0078L5.26069 75.0078V73.5078L1.26069 73.0078C0.759766 71.5076 -0.240039 68.5076 1.75996 66.0076C1.2602 58.0076 1.7602 51.5076 3.76069 48.5073C36.2607 29.0077 58.2607 35.0078 84.2607 30.5078C162.261 -24.4924 244.261 12.5076 281.261 27.0077L294.761 29.0076L295.261 36.0076V39.0076C296.759 44.0076 298.094 48.5076 296.761 50.5076C299.261 51.5076 301.761 54.6742 301.761 56.5076L299.761 66.5076C300.213 77.3555 297.805 77.5798 288.473 77.8922C287.482 77.9254 285.413 77.9596 284.261 78.0076V79.5076L259.261 79.9386M21.7607 81.5078V84.5078H39.759L39.2607 80.0078M21.7607 81.5078V80.0078H39.2607M39.2607 80.0078C36.2607 38.5078 89.7607 41.5078 86.2607 80.5078V83.0076H212.761C206.761 39.5076 261.261 39.5076 259.261 79.9386M258.759 79.9386H259.261" stroke="black"/>
</svg>
