<svg width="303" height="96" viewBox="0 0 303 96" fill="none" xmlns="http://www.w3.org/2000/svg">
<circle cx="62.2817" cy="74.5227" r="20.5" fill="#E56E90" stroke="black"/>
<circle cx="235.282" cy="74.5227" r="20.5" fill="#E56E90" stroke="black"/>
<path d="M132.28 13.0226L130.78 9.52256C170.78 1.52267 192.28 2.02271 231.28 13.5227L227.78 18.0226C207.78 10.0226 189.78 9.02261 173.78 8.52268C171.28 8.02268 167.28 8.02264 164.78 8.52256C154.78 8.52268 142.78 10.0227 132.28 13.0226Z" fill="#EFC7D3" stroke="black" stroke-width="0.5"/>
<path d="M130.78 9.52275L130.28 8.02275C166.28 -2.97729 198.78 1.02258 234.28 10.0228L231.28 13.5228C191.28 1.02271 165.28 2.52271 130.78 9.52275Z" fill="#EFC7D3" stroke="black" stroke-width="0.5"/>
<path d="M130.78 9.52269C182.28 -1.97733 210.78 8.02271 231.28 13.5227" stroke="black" stroke-width="0.5"/>
<path d="M170.282 30.5227L173.782 8.52271C207.282 9.52271 218.782 15.0227 223.282 16.5227L225.764 28.5227C198.774 28.5233 181.279 30.0228 170.282 30.5227Z" fill="#EFC7D3"/>
<path d="M226.282 31.0227L223.282 16.5227C218.782 15.0227 207.282 9.52271 173.782 8.52271L170.282 30.5227C181.282 30.0227 198.782 28.5227 225.782 28.5227" stroke="black" stroke-width="0.5"/>
<path d="M164.782 8.52271C131.782 9.52271 111.782 18.5227 92.7817 36.0227L95.2817 34.0227L159.282 31.0227L164.782 8.52271Z" fill="#EFC7D3" stroke="black" stroke-width="0.5"/>
<path d="M239.28 23.0227C235.614 20.356 229.78 18.0227 223.28 16.5227L225.78 28.5227H232.28C235.28 27.0227 238.28 24.7914 239.28 23.0227Z" fill="#EFC7D3" stroke="black" stroke-width="0.5"/>
<path d="M96.2817 79.0227H163.282L197.782 77.5227H212.282L212.782 83.0227H198.782H97.7817H86.2817V79.0227H96.2817Z" fill="#EFC7D3"/>
<path d="M96.2817 79.0227H163.282L197.782 77.5227M96.2817 79.0227C96.2817 80.5227 96.7817 81.5227 97.7817 83.0227M96.2817 79.0227H86.2817V83.0227H97.7817M197.782 77.5227L198.782 83.0227M197.782 77.5227H212.282L212.782 83.0227H198.782M198.782 83.0227H97.7817" stroke="black" stroke-width="0.5"/>
<path d="M96.2809 79.0227C91.7817 74.5227 88.7818 52.5227 92.7809 36.0227L164.782 32.0227C160.782 37.0227 159.782 71.0227 163.282 79.0227H96.2809Z" fill="#EFC7D3" stroke="black" stroke-width="0.5"/>
<path d="M228.281 31.0227L164.781 32.0227C160.781 37.0227 159.781 71.0227 163.281 79.0227L197.781 77.5227C202.281 76.0227 208.781 70.5227 228.281 31.0227Z" fill="#EFC7D3" stroke="black" stroke-width="0.5"/>
<path d="M170.282 30.5228C165.782 31.0228 162.282 31.0228 159.282 31.0228L164.782 8.52278C167.782 8.02271 170.782 8.02271 173.782 8.52278L170.282 30.5228Z" fill="#EFC7D3" stroke="black" stroke-width="0.5"/>
<path d="M98.7817 32.5228C103.282 38.0228 110.282 34.5228 114.282 33.0228C115.282 17.5227 102.282 25.5227 98.7817 32.5228Z" fill="#EFC7D3" stroke="black" stroke-width="0.5"/>
<path d="M234.28 10.0227L231.28 13.5227C248.28 19.0227 258.78 22.0227 271.28 28.5227H272.78L280.78 27.0227C265.78 20.5227 258.28 18.0227 234.28 10.0227Z" fill="#EFC7D3" stroke="black" stroke-width="0.5"/>
<path d="M271.28 28.5227C260.78 23.0227 241.78 16.5227 231.28 13.5227L229.28 16.0227L244.28 23.5227C242.78 26.0227 238.78 28.0227 232.78 30.7227C244.78 30.0227 261.78 29.0227 271.28 28.5227Z" fill="#EFC7D3" stroke="black" stroke-width="0.5"/>
<path d="M276.782 34.8227L282.78 32.5227L272.281 28.5227L228.281 31.0227C220.781 46.0227 205.781 76.5227 197.781 77.5227H212.281C210.781 66.5227 220.281 43.0227 245.282 52.0227C255.782 46.5227 265.782 41.0227 276.782 34.8227Z" fill="#EFC7D3" stroke="black" stroke-width="0.5"/>
<path d="M277.78 34.5227C265.78 41.0227 255.78 46.5227 245.28 52.0227C249.78 55.0227 260.28 61.0227 259.28 80.0227L284.28 79.5227V78.0227C292.78 77.0227 301.28 80.5227 299.78 66.5227L301.78 56.5227C301.78 55.0227 299.28 51.0227 296.78 50.5227C298.28 48.0227 295.28 39.0227 295.28 39.0227V37.5227L291.28 34.5227L286.28 33.0227L282.78 32.5227L277.78 34.5227Z" fill="#EFC7D3" stroke="black" stroke-width="0.5"/>
<path d="M280.78 27.0227L272.28 28.5227L282.78 32.5227C292.28 33.5227 291.279 35.0227 295.274 37.4429L294.78 29.0227L280.78 27.0227Z" fill="#EFC7D3"/>
<path d="M295.28 37.5227L295.274 37.4429M295.274 37.4429L294.78 29.0227L280.78 27.0227L272.28 28.5227L282.78 32.5227C292.28 33.5227 291.279 35.0227 295.274 37.4429Z" stroke="black" stroke-width="0.5"/>
<path d="M293.782 37.0229C293.282 34.5228 282.282 34.3227 276.782 34.8227" stroke="black" stroke-width="0.5"/>
<path d="M299.782 67.0227L260.282 69.0227C259.782 64.0227 257.615 59.856 255.782 58.0227L301.782 55.5227M300.282 53.0227C289.282 51.5227 278.282 46.7227 266.282 40.7227M228.282 31.0227L272.282 28.5227L280.782 27.0227" stroke="black" stroke-width="0.5"/>
<path d="M290.282 41.0227C290.282 39.0227 289.282 35.0227 285.782 33.0227C288.003 33.0227 291.379 34.0631 293.891 36.4327C294.354 37.9627 293.282 41.5227 290.24 43.0227C290.226 42.4324 290.282 41.747 290.282 41.0227Z" fill="#EFC7D3"/>
<path d="M272.282 43.5227C279.277 43.8725 285.294 43.9776 290.675 44.5227M297.282 45.5227C295.179 45.0721 292.985 44.7568 290.675 44.5227M295.282 38.0227C294.864 37.4376 294.395 36.9084 293.891 36.4327M290.675 44.5227C290.349 44.1779 290.255 43.6549 290.24 43.0227M290.24 43.0227C290.226 42.4324 290.282 41.747 290.282 41.0227C290.282 39.0227 289.282 35.0227 285.782 33.0227C288.003 33.0227 291.379 34.0631 293.891 36.4327M290.24 43.0227C293.282 41.5227 294.354 37.9627 293.891 36.4327" stroke="black" stroke-width="0.5"/>
<path d="M290.282 41.0227C285.782 41.0227 283.782 37.0227 282.782 34.5227" stroke="black" stroke-width="0.5"/>
<path d="M132.28 13.1227C118.78 17.1227 106.78 23.0227 92.7803 36.0227C99.7803 24.0227 115.28 14.5227 130.78 9.52271L132.28 13.1227Z" fill="#E56E90" stroke="black" stroke-width="0.5"/>
<path d="M130.78 9.52271C110.78 15.1967 92.7803 32.5227 84.7803 30.5227C97.7803 21.0227 113.78 12.5227 130.28 8.02271L130.78 9.52271Z" fill="#E56E90" stroke="black" stroke-width="0.5"/>
<path d="M9.78094 48.5227H3.78094C1.28027 52.5227 1.28027 62.5227 1.78094 66.0227C0.280273 67.0227 0.280871 71.5227 1.28094 73.0227L5.28094 73.5227V75.0227L1.28094 77.0227V79.0227C5.28094 80.0227 13.7809 82.0227 21.7809 81.5227V80.0227H39.2809C38.6143 71.5227 40.2809 61.0227 49.2809 54.0227C46.7809 50.0227 39.7809 45.5227 36.7809 45.0227C26.7809 44.0227 11.7809 46.5227 9.78094 48.5227Z" fill="#E56E90" stroke="black" stroke-width="0.5"/>
<path d="M92.7817 36.0227C74.9484 36.856 43.2817 41.7227 32.7817 44.7227L36.7817 45.0227C41.7817 46.5227 47.2817 50.856 49.2817 54.0227C62.2808 44.5227 87.7808 51.5227 86.2808 79.0227H96.2808C89.2808 68.0227 90.2808 46.0227 92.7817 36.0227Z" fill="#E56E90" stroke="black" stroke-width="0.5"/>
<path d="M9.78027 48.5228H3.78027C36.2805 29.0227 58.2805 35.0227 84.2803 30.5227L93.2805 36.0227C76.2805 37.0227 47.2803 40.5227 33.2803 44.7227C25.2803 44.5227 11.2803 46.5227 9.78027 48.5228Z" fill="#E56E90" stroke="black" stroke-width="0.5"/>
<path d="M36.7817 45.0228C29.2817 44.0227 12.2817 46.0227 9.78173 48.5228C8.98173 50.9227 12.1151 53.856 13.7817 55.0227C23.2817 56.5227 36.7817 50.5227 36.7817 45.0228Z" fill="#E56E90" stroke="black" stroke-width="0.5"/>
<path d="M3.78097 48.5227C10.781 49.5227 4.78097 60.0227 1.78097 65.0227C1.2809 58.0227 1.78076 52.5227 3.78097 48.5227Z" fill="#E56E90" stroke="black" stroke-width="0.5"/>
<path d="M21.7803 84.5227V80.0227H39.2803L39.7803 84.5227H21.7803Z" fill="#E56E90" stroke="black" stroke-width="0.5"/>
<path d="M2.28223 66.0225C3.78223 68.5225 5.78223 71.6891 5.28223 73.5225M21.7822 80.0225C11.2822 80.5225 6.78223 76.5225 7.78223 73.0225C8.28223 72.5225 9.78223 71.0225 10.7822 71.0225" stroke="black" stroke-width="0.5"/>
<path d="M31.7822 75.0226C29.2822 71.0226 23.7822 66.0227 20.7822 64.5227C19.0322 64.0227 16.4071 64.1477 13.657 64.5227C12.0321 65.856 10.7822 69.0226 11.2822 72.0226C11.2822 73.1892 12.5896 75.5226 15.2822 75.5226C19.7822 75.5226 26.7822 76.0226 31.7822 75.0226Z" fill="#E56E90"/>
<path d="M5.78223 66.0227C8.03217 65.5226 10.9071 64.8977 13.657 64.5227M13.657 64.5227C16.4071 64.1477 19.0322 64.0227 20.7822 64.5227C23.7822 66.0227 29.2822 71.0226 31.7822 75.0226C26.7822 76.0226 19.7822 75.5226 15.2822 75.5226C12.5896 75.5226 11.2822 73.1892 11.2822 72.0226C10.7822 69.0226 12.0321 65.856 13.657 64.5227Z" stroke="black" stroke-width="0.5"/>
<path d="M11.2822 71.5227C19.2822 70.0227 22.7822 72.6512 25.7822 74.1512M12.7822 74.5227L30.2822 74.0227" stroke="black" stroke-width="0.5"/>
<path d="M21.7803 83.0225H31.2803C33.2803 83.0225 34.7803 81.0225 34.2803 80.0225M37.7803 80.0225V84.5225" stroke="black" stroke-width="0.5"/>
<path d="M21.7817 81.5229C17.2817 81.5229 12.7817 82.0229 1.28168 79.0229V77.0229L5.28168 75.0229V73.5229L1.28168 73.023C0.780762 71.5227 -0.219042 68.5227 1.78095 66.0227C1.2812 58.0227 1.7812 51.5227 3.78168 48.5224C36.2817 29.0228 58.2817 35.0229 84.2817 30.5229C162.282 -24.4772 244.282 12.5227 281.282 27.0229L294.782 29.0227L295.282 36.0227V39.0227C296.78 44.0227 298.115 48.5227 296.782 50.5227C299.282 51.5227 301.782 54.6894 301.782 56.5227L299.782 66.5227C300.234 77.3706 297.826 77.5949 288.494 77.9073C287.503 77.9405 285.434 77.9747 284.282 78.0227V79.5227L259.282 79.9537M21.7817 81.5229V84.5229H39.78L39.2817 80.0229M21.7817 81.5229V80.0229H39.2817M39.2817 80.0229C36.2817 38.5229 89.7817 41.5229 86.2817 80.5229V83.0227H212.782C206.782 39.5227 261.282 39.5227 259.282 79.9537M258.78 79.9537H259.282" stroke="black"/>
</svg>
