<svg width="304" height="96" viewBox="0 0 304 96" fill="none" xmlns="http://www.w3.org/2000/svg">
<circle cx="63.0518" cy="74.0151" r="20.5" fill="#EDADBF" stroke="black"/>
<circle cx="236.052" cy="74.0151" r="20.5" fill="#EDADBF" stroke="black"/>
<path d="M133.05 12.515L131.55 9.01499C171.55 1.0151 193.05 1.51514 232.05 13.0151L228.55 17.5151C208.55 9.51505 190.55 8.51505 174.55 8.01511C172.05 7.51511 168.05 7.51508 165.55 8.01499C155.55 8.01511 143.55 9.51511 133.05 12.515Z" fill="#EFC7D3" stroke="black" stroke-width="0.5"/>
<path d="M131.55 9.01518L131.05 7.51518C167.05 -3.48486 199.55 0.515011 235.05 9.51518L232.05 13.0152C192.05 0.515137 166.05 2.01514 131.55 9.01518Z" fill="#EFC7D3" stroke="black" stroke-width="0.5"/>
<path d="M131.55 9.01512C183.05 -2.4849 211.55 7.51514 232.05 13.0151" stroke="black" stroke-width="0.5"/>
<path d="M171.052 30.0151L174.552 8.01514C208.052 9.01514 219.552 14.5151 224.052 16.0151L226.535 28.0151C199.544 28.0158 182.049 29.5152 171.052 30.0151Z" fill="#EFC7D3"/>
<path d="M227.052 30.5151L224.052 16.0151C219.552 14.5151 208.052 9.01514 174.552 8.01514L171.052 30.0151C182.052 29.5151 199.552 28.0151 226.552 28.0151" stroke="black" stroke-width="0.5"/>
<path d="M165.552 8.01514C132.552 9.01514 112.552 18.0151 93.5518 35.5151L96.0518 33.5151L160.052 30.5151L165.552 8.01514Z" fill="#EFC7D3" stroke="black" stroke-width="0.5"/>
<path d="M240.05 22.5151C236.383 19.8485 230.55 17.5151 224.05 16.0151L226.55 28.0151H233.05C236.05 26.5151 239.05 24.2839 240.05 22.5151Z" fill="#EFC7D3" stroke="black" stroke-width="0.5"/>
<path d="M97.0518 78.5151H164.052L198.552 77.0151H213.052L213.552 82.5151H199.552H98.5518H87.0518V78.5151H97.0518Z" fill="#EFC7D3"/>
<path d="M97.0518 78.5151H164.052L198.552 77.0151M97.0518 78.5151C97.0518 80.0151 97.5518 81.0151 98.5518 82.5151M97.0518 78.5151H87.0518V82.5151H98.5518M198.552 77.0151L199.552 82.5151M198.552 77.0151H213.052L213.552 82.5151H199.552M199.552 82.5151H98.5518" stroke="black" stroke-width="0.5"/>
<path d="M97.0509 78.5151C92.5518 74.0151 89.5518 52.0151 93.5509 35.5151L165.552 31.5151C161.552 36.5151 160.552 70.5151 164.052 78.5151H97.0509Z" fill="#EFC7D3" stroke="black" stroke-width="0.5"/>
<path d="M229.052 30.5151L165.552 31.5151C161.552 36.5151 160.552 70.5151 164.052 78.5151L198.552 77.0151C203.052 75.5151 209.552 70.0151 229.052 30.5151Z" fill="#EFC7D3" stroke="black" stroke-width="0.5"/>
<path d="M171.052 30.0152C166.552 30.5152 163.052 30.5152 160.052 30.5152L165.552 8.01521C168.552 7.51514 171.552 7.51514 174.552 8.01521L171.052 30.0152Z" fill="#EFC7D3" stroke="black" stroke-width="0.5"/>
<path d="M99.5518 32.0153C104.052 37.5153 111.052 34.0153 115.052 32.5153C116.052 17.0152 103.052 25.0151 99.5518 32.0153Z" fill="#EFC7D3" stroke="black" stroke-width="0.5"/>
<path d="M235.05 9.51514L232.05 13.0151C249.05 18.5151 259.55 21.5151 272.05 28.0151H273.55L281.55 26.5151C266.55 20.0151 259.05 17.5151 235.05 9.51514Z" fill="#E0426F" stroke="black" stroke-width="0.5"/>
<path d="M272.05 28.0151C261.55 22.5151 242.55 16.0151 232.05 13.0151L230.05 15.5151L245.05 23.0151C243.55 25.5151 239.55 27.5151 233.55 30.2151C245.55 29.5151 262.55 28.5151 272.05 28.0151Z" fill="#E0426F" stroke="black" stroke-width="0.5"/>
<path d="M277.552 34.3151L283.55 32.0151L273.051 28.0151L229.051 30.5151C221.551 45.5151 206.551 76.0151 198.551 77.0151H213.051C211.551 66.0151 221.051 42.5151 246.052 51.5151C256.552 46.0151 266.552 40.5151 277.552 34.3151Z" fill="#E0426F" stroke="black" stroke-width="0.5"/>
<path d="M278.55 34.0152C266.55 40.5152 256.55 46.0152 246.05 51.5152C250.55 54.5151 261.05 60.5151 260.05 79.5151L285.05 79.0151V77.5151C293.55 76.5151 302.05 80.0151 300.55 66.0151L302.55 56.0151C302.55 54.5151 300.05 50.5151 297.55 50.0151C299.05 47.5151 296.05 38.5151 296.05 38.5151V37.0151L292.05 34.0151L287.05 32.5151L283.55 32.0151L278.55 34.0152Z" fill="#E0426F" stroke="black" stroke-width="0.5"/>
<path d="M281.55 26.5151L273.05 28.0151L283.55 32.0151C293.05 33.0151 292.049 34.5151 296.044 36.9353L295.55 28.5151L281.55 26.5151Z" fill="#E0426F"/>
<path d="M296.05 37.0151L296.044 36.9353M296.044 36.9353L295.55 28.5151L281.55 26.5151L273.05 28.0151L283.55 32.0151C293.05 33.0151 292.049 34.5151 296.044 36.9353Z" stroke="black" stroke-width="0.5"/>
<path d="M294.552 36.5153C294.052 34.0152 283.052 33.8151 277.552 34.3151" stroke="black" stroke-width="0.5"/>
<path d="M300.552 66.5151L261.052 68.5151C260.552 63.5151 258.385 59.3485 256.552 57.5151L302.552 55.0151M301.052 52.5151C290.052 51.0151 279.052 46.2151 267.052 40.2151M229.052 30.5151L273.052 28.0151L281.552 26.5151" stroke="black" stroke-width="0.5"/>
<path d="M291.052 40.5151C291.052 38.5151 290.052 34.5151 286.552 32.5151C288.773 32.5151 292.149 33.5555 294.661 35.9251C295.124 37.4551 294.052 41.0151 291.01 42.5151C290.996 41.9249 291.052 41.2394 291.052 40.5151Z" fill="#E0426F"/>
<path d="M273.052 43.0151C280.047 43.3649 286.064 43.47 291.445 44.0151M298.052 45.0151C295.949 44.5645 293.756 44.2492 291.445 44.0151M296.052 37.5151C295.634 36.93 295.165 36.4008 294.661 35.9251M291.445 44.0151C291.119 43.6704 291.025 43.1473 291.01 42.5151M291.01 42.5151C290.996 41.9249 291.052 41.2394 291.052 40.5151C291.052 38.5151 290.052 34.5151 286.552 32.5151C288.773 32.5151 292.149 33.5555 294.661 35.9251M291.01 42.5151C294.052 41.0151 295.124 37.4551 294.661 35.9251" stroke="black" stroke-width="0.5"/>
<path d="M291.052 40.5151C286.552 40.5151 284.552 36.5151 283.552 34.0151" stroke="black" stroke-width="0.5"/>
<path d="M133.05 12.6151C119.55 16.6151 107.55 22.5151 93.5498 35.5151C100.55 23.5151 116.05 14.0151 131.55 9.01514L133.05 12.6151Z" stroke="black" stroke-width="0.5"/>
<path d="M131.55 9.01514C111.55 14.6892 93.5498 32.0151 85.5498 30.0151C98.5498 20.5151 114.55 12.0151 131.05 7.51514L131.55 9.01514Z" stroke="black" stroke-width="0.5"/>
<path d="M10.5505 48.0151H4.55047C2.0498 52.0151 2.0498 62.0151 2.55047 65.5151C1.0498 66.5151 1.0504 71.0151 2.05047 72.5151L6.05047 73.0151V74.5151L2.05047 76.5151V78.5151C6.05047 79.5151 14.5505 81.5151 22.5505 81.0151V79.5151H40.0505C39.3838 71.0151 41.0505 60.5151 50.0505 53.5151C47.5505 49.5151 40.5505 45.0151 37.5505 44.5151C27.5505 43.5151 12.5505 46.0151 10.5505 48.0151Z" stroke="black" stroke-width="0.5"/>
<path d="M93.5518 35.5151C75.7184 36.3485 44.0518 41.2151 33.5518 44.2151L37.5518 44.5151C42.5518 46.0151 48.0518 50.3485 50.0518 53.5151C63.0508 44.0151 88.5508 51.0151 87.0508 78.5151H97.0508C90.0508 67.5151 91.0508 45.5151 93.5518 35.5151Z" stroke="black" stroke-width="0.5"/>
<path d="M10.5498 48.0152H4.5498C37.05 28.5151 59.05 34.5151 85.0498 30.0151L94.05 35.5151C77.05 36.5151 48.0498 40.0151 34.0498 44.2151C26.0498 44.0151 12.0498 46.0151 10.5498 48.0152Z" stroke="black" stroke-width="0.5"/>
<path d="M37.5513 44.5152C30.0513 43.5151 13.0513 45.5151 10.5513 48.0152C9.75126 50.4152 12.8846 53.3485 14.5513 54.5151C24.0513 56.0151 37.5513 50.0151 37.5513 44.5152Z" stroke="black" stroke-width="0.5"/>
<path d="M4.5505 48.0151C11.5505 49.0151 5.5505 59.5151 2.5505 64.5151C2.05043 57.5151 2.55029 52.0151 4.5505 48.0151Z" stroke="black" stroke-width="0.5"/>
<path d="M22.5498 84.0151V79.5151H40.0498L40.5498 84.0151H22.5498Z" stroke="black" stroke-width="0.5"/>
<path d="M3.05176 65.5151C4.55176 68.0151 6.55176 71.1818 6.05176 73.0151M22.5518 79.5151C12.0518 80.0151 7.55176 76.0151 8.55176 72.5151C9.05176 72.0151 10.5518 70.5151 11.5518 70.5151" stroke="black" stroke-width="0.5"/>
<path d="M6.55176 65.5152C8.8017 65.0152 11.6766 64.3902 14.4265 64.0152M14.4265 64.0152C17.1766 63.6402 19.8017 63.5152 21.5518 64.0152C24.5518 65.5152 30.0518 70.5151 32.5518 74.5151C27.5518 75.5151 20.5518 75.0151 16.0518 75.0151C13.3592 75.0151 12.0518 72.6818 12.0518 71.5151C11.5518 68.5151 12.8016 65.3485 14.4265 64.0152Z" stroke="black" stroke-width="0.5"/>
<path d="M12.0518 71.0152C20.0518 69.5153 23.5518 72.1437 26.5518 73.6437M13.5518 74.0153L31.0518 73.5153" stroke="black" stroke-width="0.5"/>
<path d="M22.5498 82.5151H32.0498C34.0498 82.5151 35.5498 80.5151 35.0498 79.5151M38.5498 79.5151V84.0151" stroke="black" stroke-width="0.5"/>
<path d="M22.5517 81.0154C18.0517 81.0154 13.5517 81.5154 2.0517 78.5154V76.5154L6.0517 74.5154V73.0154L2.0517 72.5154C1.55078 71.0151 0.550977 68.0151 2.55097 65.5151C2.05122 57.5151 2.55122 51.0151 4.5517 48.0149C37.0517 28.5153 59.0517 34.5153 85.0517 30.0153C163.052 -24.9848 245.052 12.0151 282.052 26.5153L295.552 28.5151L296.052 35.5151V38.5151C297.55 43.5151 298.885 48.0151 297.552 50.0151C300.052 51.0151 302.552 54.1818 302.552 56.0151L300.552 66.0151C301.004 76.863 298.596 77.0873 289.264 77.3998C288.273 77.433 286.204 77.4671 285.052 77.5151V79.0151L260.052 79.4462M22.5517 81.0154V84.0154H40.55L40.0517 79.5154M22.5517 81.0154V79.5154H40.0517M40.0517 79.5154C37.0517 38.0154 90.5517 41.0154 87.0517 80.0154V82.5151H213.552C207.552 39.0151 262.052 39.0151 260.052 79.4462M259.55 79.4462H260.052" stroke="black"/>
</svg>
