<svg width="303" height="96" viewBox="0 0 303 96" fill="none" xmlns="http://www.w3.org/2000/svg">
<circle cx="62.876" cy="74.3384" r="20.5" fill="#EFC7D3" stroke="black"/>
<circle cx="235.876" cy="74.3384" r="20.5" fill="#EFC7D3" stroke="black"/>
<path d="M132.874 12.8382L131.374 9.33823C171.374 1.33835 192.874 1.83838 231.874 13.3383L228.374 17.8383C208.374 9.83829 190.374 8.83829 174.374 8.33836C171.874 7.83836 167.874 7.83832 165.374 8.33823C155.374 8.33836 143.374 9.83836 132.874 12.8382Z" stroke="black" stroke-width="0.5"/>
<path d="M131.374 9.33842L130.874 7.83842C166.874 -3.16162 199.374 0.838253 234.874 9.83842L231.874 13.3384C191.874 0.838379 165.874 2.33838 131.374 9.33842Z" stroke="black" stroke-width="0.5"/>
<path d="M131.374 9.33837C182.874 -2.16166 211.374 7.83838 231.874 13.3384" stroke="black" stroke-width="0.5"/>
<path d="M226.876 30.8384L223.876 16.3384C219.376 14.8384 207.876 9.33838 174.376 8.33838L170.876 30.3384C181.876 29.8384 199.376 28.3384 226.376 28.3384" stroke="black" stroke-width="0.5"/>
<path d="M165.376 8.33838C132.376 9.33838 112.376 18.3384 93.376 35.8384L95.876 33.8384L159.876 30.8384L165.376 8.33838Z" stroke="black" stroke-width="0.5"/>
<path d="M239.874 22.8384C236.207 20.1717 230.374 17.8384 223.874 16.3384L226.374 28.3384H232.874C235.874 26.8384 238.874 24.6071 239.874 22.8384Z" stroke="black" stroke-width="0.5"/>
<path d="M96.876 78.8384H163.876L198.376 77.3384M96.876 78.8384C96.876 80.3384 97.376 81.3384 98.376 82.8384M96.876 78.8384H86.876V82.8384H98.376M198.376 77.3384L199.376 82.8384M198.376 77.3384H212.876L213.376 82.8384H199.376M199.376 82.8384H98.376" stroke="black" stroke-width="0.5"/>
<path d="M96.8751 78.8384C92.376 74.3384 89.376 52.3384 93.3751 35.8384L165.376 31.8384C161.376 36.8384 160.376 70.8384 163.876 78.8384H96.8751Z" stroke="black" stroke-width="0.5"/>
<path d="M228.876 30.8384L165.376 31.8384C161.376 36.8384 160.376 70.8384 163.876 78.8384L198.376 77.3384C202.876 75.8384 209.376 70.3384 228.876 30.8384Z" stroke="black" stroke-width="0.5"/>
<path d="M170.876 30.3385C166.376 30.8385 162.876 30.8385 159.876 30.8385L165.376 8.33845C168.376 7.83838 171.376 7.83838 174.376 8.33845L170.876 30.3385Z" stroke="black" stroke-width="0.5"/>
<path d="M99.376 32.3385C103.876 37.8385 110.876 34.3385 114.876 32.8385C115.876 17.3384 102.876 25.3384 99.376 32.3385Z" stroke="black" stroke-width="0.5"/>
<path d="M234.874 9.83838L231.874 13.3384C248.874 18.8384 259.374 21.8384 271.874 28.3384H273.374L281.374 26.8384C266.374 20.3384 258.874 17.8384 234.874 9.83838Z" fill="#EDADBF" stroke="black" stroke-width="0.5"/>
<path d="M271.874 28.3384C261.374 22.8384 242.374 16.3384 231.874 13.3384L229.874 15.8384L244.874 23.3384C243.374 25.8384 239.374 27.8384 233.374 30.5384C245.374 29.8384 262.374 28.8384 271.874 28.3384Z" fill="#EDADBF" stroke="black" stroke-width="0.5"/>
<path d="M277.376 34.6384L283.374 32.3384L272.875 28.3384L228.875 30.8384C221.375 45.8384 206.375 76.3384 198.375 77.3384H212.875C211.375 66.3384 220.875 42.8384 245.876 51.8384C256.376 46.3384 266.376 40.8384 277.376 34.6384Z" fill="#EDADBF" stroke="black" stroke-width="0.5"/>
<path d="M278.374 34.3384C266.374 40.8384 256.374 46.3384 245.874 51.8384C250.374 54.8384 260.874 60.8384 259.874 79.8384L284.874 79.3384V77.8384C293.374 76.8384 301.874 80.3384 300.374 66.3384L302.374 56.3384C302.374 54.8384 299.874 50.8384 297.374 50.3384C298.874 47.8384 295.874 38.8384 295.874 38.8384V37.3384L291.874 34.3384L286.874 32.8384L283.374 32.3384L278.374 34.3384Z" fill="#EDADBF" stroke="black" stroke-width="0.5"/>
<path d="M281.374 26.8384L272.874 28.3384L283.374 32.3384C292.874 33.3384 291.873 34.8384 295.868 37.2586L295.374 28.8384L281.374 26.8384Z" fill="#EDADBF"/>
<path d="M295.874 37.3384L295.868 37.2586M295.868 37.2586L295.374 28.8384L281.374 26.8384L272.874 28.3384L283.374 32.3384C292.874 33.3384 291.873 34.8384 295.868 37.2586Z" stroke="black" stroke-width="0.5"/>
<path d="M294.376 36.8386C293.876 34.3385 282.876 34.1384 277.376 34.6384" stroke="black" stroke-width="0.5"/>
<path d="M300.376 66.8384L260.876 68.8384C260.376 63.8384 258.209 59.6717 256.376 57.8384L302.376 55.3384M300.876 52.8384C289.876 51.3384 278.876 46.5384 266.876 40.5384M228.876 30.8384L272.876 28.3384L281.376 26.8384" stroke="black" stroke-width="0.5"/>
<path d="M290.876 40.8384C290.876 38.8384 289.876 34.8384 286.376 32.8384C288.597 32.8384 291.974 33.8788 294.485 36.2484C294.949 37.7784 293.876 41.3384 290.834 42.8384C290.821 42.2481 290.876 41.5627 290.876 40.8384Z" fill="#EDADBF"/>
<path d="M272.876 43.3384C279.872 43.6882 285.889 43.7933 291.269 44.3384M297.876 45.3384C295.773 44.8877 293.58 44.5725 291.269 44.3384M295.876 37.8384C295.458 37.2533 294.989 36.724 294.485 36.2484M291.269 44.3384C290.943 43.9936 290.849 43.4706 290.834 42.8384M290.834 42.8384C290.821 42.2481 290.876 41.5627 290.876 40.8384C290.876 38.8384 289.876 34.8384 286.376 32.8384C288.597 32.8384 291.974 33.8788 294.485 36.2484M290.834 42.8384C293.876 41.3384 294.949 37.7784 294.485 36.2484" stroke="black" stroke-width="0.5"/>
<path d="M290.876 40.8384C286.376 40.8384 284.376 36.8384 283.376 34.3384" stroke="black" stroke-width="0.5"/>
<path d="M132.874 12.9384C119.374 16.9384 107.374 22.8384 93.374 35.8384C100.374 23.8384 115.874 14.3384 131.374 9.33838L132.874 12.9384Z" fill="#EFC7D3" stroke="black" stroke-width="0.5"/>
<path d="M131.374 9.33838C111.374 15.0124 93.374 32.3384 85.374 30.3384C98.374 20.8384 114.374 12.3384 130.874 7.83838L131.374 9.33838Z" fill="#EFC7D3" stroke="black" stroke-width="0.5"/>
<path d="M10.3747 48.3384H4.37469C1.87402 52.3384 1.87402 62.3384 2.37469 65.8384C0.874023 66.8384 0.874621 71.3384 1.87469 72.8384L5.87469 73.3384V74.8384L1.87469 76.8384V78.8384C5.87469 79.8384 14.3747 81.8384 22.3747 81.3384V79.8384H39.8747C39.208 71.3384 40.8747 60.8384 49.8747 53.8384C47.3747 49.8384 40.3747 45.3384 37.3747 44.8384C27.3747 43.8384 12.3747 46.3384 10.3747 48.3384Z" fill="#EFC7D3" stroke="black" stroke-width="0.5"/>
<path d="M93.376 35.8384C75.5426 36.6717 43.876 41.5384 33.376 44.5384L37.376 44.8384C42.376 46.3384 47.876 50.6717 49.876 53.8384C62.875 44.3384 88.375 51.3384 86.875 78.8384H96.875C89.875 67.8384 90.875 45.8384 93.376 35.8384Z" fill="#EFC7D3" stroke="black" stroke-width="0.5"/>
<path d="M10.374 48.3384H4.37402C36.8742 28.8383 58.8743 34.8384 84.874 30.3384L93.8743 35.8384C76.8743 36.8384 47.874 40.3384 33.874 44.5384C25.874 44.3384 11.874 46.3384 10.374 48.3384Z" fill="#EFC7D3" stroke="black" stroke-width="0.5"/>
<path d="M37.3755 44.8385C29.8755 43.8384 12.8755 45.8384 10.3755 48.3385C9.57548 50.7384 12.7088 53.6717 14.3755 54.8384C23.8755 56.3384 37.3755 50.3384 37.3755 44.8385Z" fill="#EFC7D3" stroke="black" stroke-width="0.5"/>
<path d="M4.37472 48.3384C11.3747 49.3384 5.37472 59.8384 2.37472 64.8384C1.87465 57.8384 2.37451 52.3384 4.37472 48.3384Z" fill="#EFC7D3" stroke="black" stroke-width="0.5"/>
<path d="M22.374 84.3384V79.8384H39.874L40.374 84.3384H22.374Z" fill="#EFC7D3" stroke="black" stroke-width="0.5"/>
<path d="M2.87598 65.8384C4.37598 68.3384 6.37598 71.505 5.87598 73.3384M22.376 79.8384C11.876 80.3384 7.37598 76.3384 8.37598 72.8384C8.87598 72.3384 10.376 70.8384 11.376 70.8384" stroke="black" stroke-width="0.5"/>
<path d="M32.376 74.8384C29.876 70.8384 24.376 65.8385 21.376 64.3385C19.6259 63.8384 17.0008 63.9634 14.2508 64.3385C12.6258 65.6718 11.376 68.8384 11.876 71.8384C11.876 73.005 13.1834 75.3384 15.876 75.3384C20.376 75.3384 27.376 75.8384 32.376 74.8384Z" fill="#EFC7D3"/>
<path d="M6.37598 65.8385C8.62592 65.3384 11.5008 64.7135 14.2508 64.3385M14.2508 64.3385C17.0008 63.9634 19.6259 63.8384 21.376 64.3385C24.376 65.8385 29.876 70.8384 32.376 74.8384C27.376 75.8384 20.376 75.3384 15.876 75.3384C13.1834 75.3384 11.876 73.005 11.876 71.8384C11.376 68.8384 12.6258 65.6718 14.2508 64.3385Z" stroke="black" stroke-width="0.5"/>
<path d="M11.876 71.3385C19.876 69.8385 23.376 72.467 26.376 73.967M13.376 74.3385L30.876 73.8385" stroke="black" stroke-width="0.5"/>
<path d="M22.374 82.8384H31.874C33.874 82.8384 35.374 80.8384 34.874 79.8384M38.374 79.8384V84.3384" stroke="black" stroke-width="0.5"/>
<path d="M22.3759 81.3386C17.8759 81.3386 13.3759 81.8386 1.87592 78.8386V76.8386L5.87592 74.8386V73.3386L1.87592 72.8386C1.375 71.3384 0.375196 68.3384 2.37519 65.8384C1.87543 57.8384 2.37543 51.3384 4.37592 48.3381C36.8759 28.8385 58.8759 34.8386 84.8759 30.3386C162.876 -24.6615 244.876 12.3384 281.876 26.8386L295.376 28.8384L295.876 35.8384V38.8384C297.374 43.8384 298.709 48.3384 297.376 50.3384C299.876 51.3384 302.376 54.505 302.376 56.3384L300.376 66.3384C300.828 77.1863 298.42 77.4106 289.088 77.723C288.097 77.7562 286.028 77.7904 284.876 77.8384V79.3384L259.876 79.7694M22.3759 81.3386V84.3386H40.3743L39.8759 79.8386M22.3759 81.3386V79.8386H39.8759M39.8759 79.8386C36.8759 38.3386 90.3759 41.3386 86.8759 80.3386V82.8384H213.376C207.376 39.3384 261.876 39.3384 259.876 79.7694M259.374 79.7694H259.876" stroke="black"/>
</svg>
