<svg width="303" height="96" viewBox="0 0 303 96" fill="none" xmlns="http://www.w3.org/2000/svg">
<circle cx="62.4897" cy="74.5076" r="20.5" fill="#E0426F" stroke="black"/>
<circle cx="235.49" cy="74.5076" r="20.5" fill="#E0426F" stroke="black"/>
<path d="M132.488 13.0074L130.988 9.50742C170.988 1.50754 192.488 2.00757 231.488 13.5075L227.988 18.0075C207.988 10.0075 189.988 9.00748 173.988 8.50755C171.488 8.00755 167.488 8.00751 164.988 8.50742C154.988 8.50755 142.988 10.0075 132.488 13.0074Z" stroke="black" stroke-width="0.5"/>
<path d="M130.988 9.50761L130.488 8.00761C166.488 -2.99243 198.988 1.00744 234.488 10.0076L231.488 13.5076C191.488 1.00757 165.488 2.50757 130.988 9.50761Z" stroke="black" stroke-width="0.5"/>
<path d="M130.988 9.50756C182.488 -1.99247 210.988 8.00757 231.488 13.5076" stroke="black" stroke-width="0.5"/>
<path d="M226.49 31.0076L223.49 16.5076C218.99 15.0076 207.49 9.50757 173.99 8.50757L170.49 30.5076C181.49 30.0076 198.99 28.5076 225.99 28.5076" stroke="black" stroke-width="0.5"/>
<path d="M164.99 8.50757C131.99 9.50757 111.99 18.5076 92.9897 36.0076L95.4897 34.0076L159.49 31.0076L164.99 8.50757Z" stroke="black" stroke-width="0.5"/>
<path d="M239.488 23.0076C235.822 20.3409 229.988 18.0076 223.488 16.5076L225.988 28.5076H232.488C235.488 27.0076 238.488 24.7763 239.488 23.0076Z" stroke="black" stroke-width="0.5"/>
<path d="M96.4897 79.0076H163.49L197.99 77.5076M96.4897 79.0076C96.4897 80.5076 96.9897 81.5076 97.9897 83.0076M96.4897 79.0076H86.4897V83.0076H97.9897M197.99 77.5076L198.99 83.0076M197.99 77.5076H212.49L212.99 83.0076H198.99M198.99 83.0076H97.9897" stroke="black" stroke-width="0.5"/>
<path d="M96.4889 79.0076C91.9897 74.5076 88.9898 52.5076 92.9889 36.0076L164.99 32.0076C160.99 37.0076 159.99 71.0076 163.49 79.0076H96.4889Z" stroke="black" stroke-width="0.5"/>
<path d="M228.489 31.0076L164.989 32.0076C160.989 37.0076 159.99 71.0076 163.489 79.0076L197.989 77.5076C202.489 76.0076 208.989 70.5076 228.489 31.0076Z" stroke="black" stroke-width="0.5"/>
<path d="M170.49 30.5076C165.99 31.0076 162.49 31.0076 159.49 31.0076L164.99 8.50764C167.99 8.00757 170.99 8.00757 173.99 8.50764L170.49 30.5076Z" stroke="black" stroke-width="0.5"/>
<path d="M98.9897 32.5077C103.49 38.0077 110.49 34.5077 114.49 33.0077C115.49 17.5076 102.49 25.5076 98.9897 32.5077Z" stroke="black" stroke-width="0.5"/>
<path d="M234.488 10.0076L231.488 13.5076C248.488 19.0076 258.988 22.0076 271.488 28.5076H272.988L280.988 27.0076C265.988 20.5076 258.488 18.0076 234.488 10.0076Z" stroke="black" stroke-width="0.5"/>
<path d="M271.488 28.5076C260.988 23.0076 241.988 16.5076 231.488 13.5076L229.488 16.0076L244.488 23.5076C242.988 26.0076 238.988 28.0076 232.988 30.7076C244.988 30.0076 261.988 29.0076 271.488 28.5076Z" stroke="black" stroke-width="0.5"/>
<path d="M276.99 34.8076L282.988 32.5076L272.489 28.5076L228.489 31.0076C220.989 46.0076 205.989 76.5076 197.989 77.5076H212.489C210.989 66.5076 220.489 43.0076 245.49 52.0076C255.99 46.5076 265.99 41.0076 276.99 34.8076Z" stroke="black" stroke-width="0.5"/>
<path d="M277.988 34.5076C265.988 41.0076 255.988 46.5076 245.488 52.0076C249.988 55.0076 260.488 61.0076 259.488 80.0076L284.488 79.5076V78.0076C292.988 77.0076 301.488 80.5076 299.988 66.5076L301.988 56.5076C301.988 55.0076 299.488 51.0076 296.988 50.5076C298.488 48.0076 295.488 39.0076 295.488 39.0076V37.5076L291.488 34.5076L286.488 33.0076L282.988 32.5076L277.988 34.5076Z" stroke="black" stroke-width="0.5"/>
<path d="M295.488 37.5076L295.482 37.4277M295.482 37.4277L294.988 29.0076L280.988 27.0076L272.488 28.5076L282.988 32.5076C292.488 33.5076 291.487 35.0076 295.482 37.4277Z" stroke="black" stroke-width="0.5"/>
<path d="M293.99 37.0078C293.49 34.5077 282.49 34.3076 276.99 34.8076" stroke="black" stroke-width="0.5"/>
<path d="M299.99 67.0076L260.49 69.0076C259.99 64.0076 257.823 59.8409 255.99 58.0076L301.99 55.5076M300.49 53.0076C289.49 51.5076 278.49 46.7076 266.49 40.7076M228.49 31.0076L272.49 28.5076L280.99 27.0076" stroke="black" stroke-width="0.5"/>
<path d="M272.49 43.5076C279.485 43.8574 285.502 43.9624 290.883 44.5076M297.49 45.5076C295.387 45.0569 293.194 44.7417 290.883 44.5076M295.49 38.0076C295.072 37.4224 294.603 36.8932 294.099 36.4176M290.883 44.5076C290.557 44.1628 290.463 43.6398 290.448 43.0076M290.448 43.0076C290.434 42.4173 290.49 41.7319 290.49 41.0076C290.49 39.0076 289.49 35.0076 285.99 33.0076C288.211 33.0076 291.587 34.048 294.099 36.4176M290.448 43.0076C293.49 41.5076 294.562 37.9476 294.099 36.4176" stroke="black" stroke-width="0.5"/>
<path d="M290.49 41.0076C285.99 41.0076 283.99 37.0076 282.99 34.5076" stroke="black" stroke-width="0.5"/>
<path d="M132.488 13.1075C118.988 17.1075 106.988 23.0076 92.9883 36.0076C99.9883 24.0076 115.488 14.5076 130.988 9.50757L132.488 13.1075Z" fill="#EDADBF" stroke="black" stroke-width="0.5"/>
<path d="M130.988 9.50757C110.988 15.1816 92.9883 32.5076 84.9883 30.5076C97.9883 21.0076 113.988 12.5076 130.488 8.00757L130.988 9.50757Z" fill="#EDADBF" stroke="black" stroke-width="0.5"/>
<path d="M9.98895 48.5076H3.98895C1.48828 52.5076 1.48828 62.5076 1.98895 66.0076C0.488281 67.0076 0.488879 71.5076 1.48895 73.0076L5.48895 73.5076V75.0076L1.48895 77.0076V79.0076C5.48895 80.0076 13.9889 82.0076 21.9889 81.5076V80.0076H39.4889C38.8223 71.5076 40.4889 61.0076 49.4889 54.0076C46.9889 50.0076 39.9889 45.5076 36.9889 45.0076C26.9889 44.0076 11.9889 46.5076 9.98895 48.5076Z" fill="#EDADBF" stroke="black" stroke-width="0.5"/>
<path d="M92.9897 36.0076C75.1564 36.8409 43.4897 41.7076 32.9897 44.7076L36.9897 45.0076C41.9897 46.5076 47.4897 50.8409 49.4897 54.0076C62.4888 44.5076 87.9888 51.5076 86.4888 79.0076H96.4888C89.4888 68.0076 90.4888 46.0076 92.9897 36.0076Z" fill="#EDADBF" stroke="black" stroke-width="0.5"/>
<path d="M9.98828 48.5076H3.98828C36.4885 29.0075 58.4885 35.0076 84.4883 30.5076L93.4885 36.0076C76.4885 37.0076 47.4883 40.5076 33.4883 44.7076C25.4883 44.5076 11.4883 46.5076 9.98828 48.5076Z" fill="#EDADBF" stroke="black" stroke-width="0.5"/>
<path d="M36.9897 45.0076C29.4897 44.0076 12.4897 46.0076 9.98974 48.5076C9.18974 50.9076 12.3231 53.8409 13.9897 55.0076C23.4897 56.5076 36.9897 50.5076 36.9897 45.0076Z" fill="#EDADBF" stroke="black" stroke-width="0.5"/>
<path d="M3.98898 48.5076C10.989 49.5076 4.98898 60.0076 1.98898 65.0076C1.48891 58.0076 1.98877 52.5076 3.98898 48.5076Z" fill="#EDADBF" stroke="black" stroke-width="0.5"/>
<path d="M21.9883 84.5076V80.0076H39.4883L39.9883 84.5076H21.9883Z" fill="#EDADBF" stroke="black" stroke-width="0.5"/>
<path d="M2.49023 66.0076C3.99023 68.5076 5.99023 71.6742 5.49023 73.5076M21.9902 80.0076C11.4902 80.5076 6.99023 76.5076 7.99023 73.0076C8.49023 72.5076 9.99023 71.0076 10.9902 71.0076" stroke="black" stroke-width="0.5"/>
<path d="M31.9902 75.0076C29.4902 71.0076 23.9902 66.0076 20.9902 64.5076C19.2402 64.0076 16.6151 64.1326 13.865 64.5076C12.2401 65.841 10.9902 69.0076 11.4902 72.0076C11.4902 73.1742 12.7977 75.5076 15.4902 75.5076C19.9902 75.5076 26.9902 76.0076 31.9902 75.0076Z" fill="#EDADBF"/>
<path d="M5.99023 66.0076C8.24018 65.5076 11.1151 64.8826 13.865 64.5076M13.865 64.5076C16.6151 64.1326 19.2402 64.0076 20.9902 64.5076C23.9902 66.0076 29.4902 71.0076 31.9902 75.0076C26.9902 76.0076 19.9902 75.5076 15.4902 75.5076C12.7977 75.5076 11.4902 73.1742 11.4902 72.0076C10.9902 69.0076 12.2401 65.841 13.865 64.5076Z" stroke="black" stroke-width="0.5"/>
<path d="M11.4902 71.5076C19.4902 70.0077 22.9902 72.6362 25.9902 74.1362M12.9902 74.5077L30.4902 74.0077" stroke="black" stroke-width="0.5"/>
<path d="M21.9883 83.0076H31.4883C33.4883 83.0076 34.9883 81.0076 34.4883 80.0076M37.9883 80.0076V84.5076" stroke="black" stroke-width="0.5"/>
<path d="M21.9897 81.5078C17.4897 81.5078 12.9897 82.0078 1.48969 79.0078V77.0078L5.48969 75.0078V73.5078L1.48969 73.0078C0.98877 71.5076 -0.0110346 68.5076 1.98896 66.0076C1.4892 58.0076 1.9892 51.5076 3.98969 48.5073C36.4897 29.0077 58.4897 35.0078 84.4897 30.5078C162.49 -24.4924 244.49 12.5076 281.49 27.0077L294.99 29.0076L295.49 36.0076V39.0076C296.988 44.0076 298.323 48.5076 296.99 50.5076C299.49 51.5076 301.99 54.6742 301.99 56.5076L299.99 66.5076C300.442 77.3555 298.034 77.5798 288.702 77.8922C287.711 77.9254 285.642 77.9596 284.49 78.0076V79.5076L259.49 79.9386M21.9897 81.5078V84.5078H39.988L39.4897 80.0078M21.9897 81.5078V80.0078H39.4897M39.4897 80.0078C36.4897 38.5078 89.9897 41.5078 86.4897 80.5078V83.0076H212.99C206.99 39.5076 261.49 39.5076 259.49 79.9386M258.988 79.9386H259.49" stroke="black"/>
</svg>
