<svg width="303" height="95" viewBox="0 0 303 95" fill="none" xmlns="http://www.w3.org/2000/svg">
<circle cx="62.667" cy="73.8914" r="20.5" stroke="black"/>
<circle cx="235.667" cy="73.8914" r="20.5" stroke="black"/>
<path d="M132.665 12.3912L131.165 8.89121C171.165 0.891325 192.665 1.39136 231.665 12.8913L228.165 17.3913C208.165 9.39127 190.165 8.39127 174.165 7.89133C171.665 7.39133 167.665 7.3913 165.165 7.89121C155.165 7.89133 143.165 9.39134 132.665 12.3912Z" fill="#E0426F" stroke="black" stroke-width="0.5"/>
<path d="M131.165 8.8914L130.665 7.3914C166.665 -3.60864 199.165 0.391232 234.665 9.3914L231.665 12.8914C191.665 0.391357 165.665 1.89136 131.165 8.8914Z" fill="#E0426F" stroke="black" stroke-width="0.5"/>
<path d="M131.165 8.89122C182.665 -2.6088 211.165 7.39124 231.665 12.8912" stroke="black" stroke-width="0.5"/>
<path d="M170.667 29.8914L174.167 7.89136C207.667 8.89136 219.167 14.3914 223.667 15.8914L226.15 27.8914C199.16 27.892 181.665 29.3915 170.667 29.8914Z" fill="#E0426F"/>
<path d="M226.667 30.3914L223.667 15.8914C219.167 14.3914 207.667 8.89136 174.167 7.89136L170.667 29.8914C181.667 29.3914 199.167 27.8914 226.167 27.8914" stroke="black" stroke-width="0.5"/>
<path d="M165.167 7.89136C132.167 8.89136 112.167 17.8914 93.167 35.3914L95.667 33.3914L159.667 30.3914L165.167 7.89136Z" fill="#E0426F" stroke="black" stroke-width="0.5"/>
<path d="M239.665 22.3914C235.998 19.7247 230.165 17.3914 223.665 15.8914L226.165 27.8914H232.665C235.665 26.3914 238.665 24.1601 239.665 22.3914Z" fill="#E0426F" stroke="black" stroke-width="0.5"/>
<path d="M96.667 78.3914H163.667L198.167 76.8914H212.667L213.167 82.3914H199.167H98.167H86.667V78.3914H96.667Z" fill="#E0426F"/>
<path d="M96.667 78.3914H163.667L198.167 76.8914M96.667 78.3914C96.667 79.8914 97.167 80.8914 98.167 82.3914M96.667 78.3914H86.667V82.3914H98.167M198.167 76.8914L199.167 82.3914M198.167 76.8914H212.667L213.167 82.3914H199.167M199.167 82.3914H98.167" stroke="black" stroke-width="0.5"/>
<path d="M96.6661 78.3914C92.167 73.8914 89.167 51.8914 93.1661 35.3914L165.167 31.3914C161.167 36.3914 160.167 70.3914 163.667 78.3914H96.6661Z" fill="#E0426F" stroke="black" stroke-width="0.5"/>
<path d="M228.667 30.3914L165.167 31.3914C161.167 36.3914 160.167 70.3914 163.667 78.3914L198.167 76.8914C202.667 75.3914 209.167 69.8914 228.667 30.3914Z" fill="#E0426F" stroke="black" stroke-width="0.5"/>
<path d="M170.667 29.8914C166.167 30.3914 162.667 30.3914 159.667 30.3914L165.167 7.89143C168.167 7.39136 171.167 7.39136 174.167 7.89143L170.667 29.8914Z" fill="#E0426F" stroke="black" stroke-width="0.5"/>
<path d="M99.167 31.8914C103.667 37.3914 110.667 33.8914 114.667 32.3914C115.667 16.8913 102.667 24.8912 99.167 31.8914Z" fill="#E0426F" stroke="black" stroke-width="0.5"/>
<path d="M234.665 9.39136L231.665 12.8914C248.665 18.3914 259.165 21.3914 271.665 27.8914H273.165L281.165 26.3914C266.165 19.8914 258.665 17.3914 234.665 9.39136Z" fill="#E56E90" stroke="black" stroke-width="0.5"/>
<path d="M271.665 27.8914C261.165 22.3914 242.165 15.8914 231.665 12.8914L229.665 15.3914L244.665 22.8914C243.165 25.3914 239.165 27.3914 233.165 30.0914C245.165 29.3914 262.165 28.3914 271.665 27.8914Z" fill="#E56E90" stroke="black" stroke-width="0.5"/>
<path d="M277.167 34.1914L283.165 31.8914L272.666 27.8914L228.666 30.3914C221.166 45.3914 206.166 75.8914 198.166 76.8914H212.666C211.166 65.8914 220.666 42.3914 245.667 51.3914C256.167 45.8914 266.167 40.3914 277.167 34.1914Z" fill="#E56E90" stroke="black" stroke-width="0.5"/>
<path d="M278.165 33.8914C266.165 40.3914 256.165 45.8914 245.665 51.3914C250.165 54.3914 260.665 60.3914 259.665 79.3914L284.665 78.8914V77.3914C293.165 76.3914 301.665 79.8914 300.165 65.8914L302.165 55.8914C302.165 54.3914 299.665 50.3914 297.165 49.8914C298.665 47.3914 295.665 38.3914 295.665 38.3914V36.8914L291.665 33.8914L286.665 32.3914L283.165 31.8914L278.165 33.8914Z" fill="#E56E90" stroke="black" stroke-width="0.5"/>
<path d="M281.165 26.3914L272.665 27.8914L283.165 31.8914C292.665 32.8914 291.664 34.3914 295.659 36.8115L295.165 28.3914L281.165 26.3914Z" fill="#E56E90"/>
<path d="M295.665 36.8914L295.659 36.8115M295.659 36.8115L295.165 28.3914L281.165 26.3914L272.665 27.8914L283.165 31.8914C292.665 32.8914 291.664 34.3914 295.659 36.8115Z" stroke="black" stroke-width="0.5"/>
<path d="M294.167 36.3916C293.667 33.8914 282.667 33.6914 277.167 34.1914" stroke="black" stroke-width="0.5"/>
<path d="M300.167 66.3914L260.667 68.3914C260.167 63.3914 258 59.2247 256.167 57.3914L302.167 54.8914M300.667 52.3914C289.667 50.8914 278.667 46.0914 266.667 40.0914M228.667 30.3914L272.667 27.8914L281.167 26.3914" stroke="black" stroke-width="0.5"/>
<path d="M290.667 40.3914C290.667 38.3914 289.667 34.3914 286.167 32.3914C288.388 32.3914 291.765 33.4317 294.276 35.8013C294.74 37.3313 293.667 40.8914 290.625 42.3914C290.612 41.8011 290.667 41.1156 290.667 40.3914Z" fill="#E56E90"/>
<path d="M272.667 42.8914C279.663 43.2411 285.68 43.3462 291.06 43.8914M297.667 44.8914C295.564 44.4407 293.371 44.1255 291.06 43.8914M295.667 37.3914C295.249 36.8062 294.78 36.277 294.276 35.8013M291.06 43.8914C290.734 43.5466 290.64 43.0235 290.625 42.3914M290.625 42.3914C290.612 41.8011 290.667 41.1156 290.667 40.3914C290.667 38.3914 289.667 34.3914 286.167 32.3914C288.388 32.3914 291.765 33.4317 294.276 35.8013M290.625 42.3914C293.667 40.8914 294.74 37.3313 294.276 35.8013" stroke="black" stroke-width="0.5"/>
<path d="M290.667 40.3914C286.167 40.3914 284.167 36.3914 283.167 33.8914" stroke="black" stroke-width="0.5"/>
<path d="M132.665 12.4913C119.165 16.4913 107.165 22.3914 93.165 35.3914C100.165 23.3914 115.665 13.8914 131.165 8.89136L132.665 12.4913Z" fill="#EDADBF" stroke="black" stroke-width="0.5"/>
<path d="M131.165 8.89136C111.165 14.5654 93.165 31.8914 85.165 29.8914C98.165 20.3914 114.165 11.8914 130.665 7.39136L131.165 8.89136Z" fill="#EDADBF" stroke="black" stroke-width="0.5"/>
<path d="M10.1657 47.8912H4.16571C1.66504 51.8912 1.66504 61.8912 2.16571 65.3912C0.665039 66.3912 0.665637 70.8912 1.66571 72.3912L5.66571 72.8912V74.3912L1.66571 76.3912V78.3912C5.66571 79.3912 14.1657 81.3912 22.1657 80.8912V79.3912H39.6657C38.999 70.8912 40.6657 60.3912 49.6657 53.3912C47.1657 49.3912 40.1657 44.8912 37.1657 44.3912C27.1657 43.3912 12.1657 45.8912 10.1657 47.8912Z" fill="#EDADBF" stroke="black" stroke-width="0.5"/>
<path d="M93.167 35.3914C75.3337 36.2247 43.667 41.0914 33.167 44.0914L37.167 44.3914C42.167 45.8914 47.667 50.2247 49.667 53.3914C62.666 43.8914 88.166 50.8914 86.666 78.3914H96.666C89.666 67.3914 90.666 45.3914 93.167 35.3914Z" fill="#EDADBF" stroke="black" stroke-width="0.5"/>
<path d="M10.165 47.8914H4.16504C36.6652 28.3913 58.6653 34.3914 84.665 29.8914L93.6653 35.3914C76.6653 36.3914 47.665 39.8914 33.665 44.0914C25.665 43.8913 11.665 45.8914 10.165 47.8914Z" fill="#EDADBF" stroke="black" stroke-width="0.5"/>
<path d="M37.1665 44.3914C29.6665 43.3914 12.6665 45.3914 10.1665 47.8914C9.36649 50.2914 12.4998 53.2247 14.1665 54.3914C23.6665 55.8914 37.1665 49.8914 37.1665 44.3914Z" fill="#EDADBF" stroke="black" stroke-width="0.5"/>
<path d="M4.16573 47.8914C11.1657 48.8914 5.16573 59.3914 2.16573 64.3914C1.66566 57.3914 2.16553 51.8914 4.16573 47.8914Z" fill="#EDADBF" stroke="black" stroke-width="0.5"/>
<path d="M22.165 83.8914V79.3914H39.665L40.165 83.8914H22.165Z" fill="#EDADBF" stroke="black" stroke-width="0.5"/>
<path d="M2.66699 65.3911C4.16699 67.8911 6.16699 71.0578 5.66699 72.8911M22.167 79.3911C11.667 79.8911 7.16699 75.8911 8.16699 72.3911C8.66699 71.8911 10.167 70.3911 11.167 70.3911" stroke="black" stroke-width="0.5"/>
<path d="M32.167 74.3912C29.667 70.3912 24.167 65.3913 21.167 63.8913C19.4169 63.3913 16.7919 63.5163 14.0418 63.8913C12.4169 65.2246 11.167 68.3912 11.667 71.3912C11.667 72.5579 12.9744 74.8912 15.667 74.8912C20.167 74.8912 27.167 75.3912 32.167 74.3912Z" fill="#EDADBF"/>
<path d="M6.16699 65.3913C8.41693 64.8913 11.2918 64.2663 14.0418 63.8913M14.0418 63.8913C16.7919 63.5163 19.4169 63.3913 21.167 63.8913C24.167 65.3913 29.667 70.3912 32.167 74.3912C27.167 75.3912 20.167 74.8912 15.667 74.8912C12.9744 74.8912 11.667 72.5579 11.667 71.3912C11.167 68.3912 12.4168 65.2246 14.0418 63.8913Z" stroke="black" stroke-width="0.5"/>
<path d="M11.667 70.8913C19.667 69.3914 23.167 72.0198 26.167 73.5198M13.167 73.8914L30.667 73.3914" stroke="black" stroke-width="0.5"/>
<path d="M22.165 82.3911H31.665C33.665 82.3911 35.165 80.3911 34.665 79.3911M38.165 79.3911V83.8911" stroke="black" stroke-width="0.5"/>
<path d="M22.1669 80.8916C17.6669 80.8916 13.1669 81.3916 1.66694 78.3916V76.3916L5.66694 74.3916V72.8916L1.66694 72.3916C1.16602 70.8914 0.166211 67.8914 2.16621 65.3914C1.66645 57.3914 2.16645 50.8914 4.16694 47.8911C36.6669 28.3915 58.6669 34.3915 84.6669 29.8915C162.667 -25.1086 244.667 11.8913 281.667 26.3915L295.167 28.3914L295.667 35.3914V38.3914C297.165 43.3914 298.5 47.8914 297.167 49.8914C299.667 50.8914 302.167 54.058 302.167 55.8914L300.167 65.8914C300.619 76.7393 298.211 76.9635 288.879 77.276C287.888 77.3092 285.819 77.3434 284.667 77.3914V78.8914L259.667 79.3224M22.1669 80.8916V83.8916H40.1653L39.6669 79.3916M22.1669 80.8916V79.3916H39.6669M39.6669 79.3916C36.6669 37.8916 90.1669 40.8916 86.6669 79.8916V82.3914H213.167C207.167 38.8914 261.667 38.8914 259.667 79.3224M259.165 79.3224H259.667" stroke="black"/>
</svg>
