<svg width="303" height="96" viewBox="0 0 303 96" fill="none" xmlns="http://www.w3.org/2000/svg">
<circle cx="62.249" cy="74.2146" r="20.5" fill="#E56E90" stroke="black"/>
<circle cx="235.249" cy="74.2146" r="20.5" fill="#E56E90" stroke="black"/>
<path d="M132.247 12.7145L130.747 9.21445C170.747 1.21457 192.247 1.7146 231.247 13.2145L227.747 17.7145C207.747 9.71451 189.747 8.71451 173.747 8.21458C171.247 7.71458 167.247 7.71454 164.747 8.21445C154.747 8.21458 142.747 9.71458 132.247 12.7145Z" fill="#E56E90" stroke="black" stroke-width="0.5"/>
<path d="M130.747 9.21464L130.247 7.71464C166.247 -3.2854 198.747 0.714474 234.247 9.71465L231.247 13.2146C191.247 0.7146 165.247 2.2146 130.747 9.21464Z" fill="#E56E90" stroke="black" stroke-width="0.5"/>
<path d="M130.747 9.21447C182.247 -2.28556 210.747 7.71448 231.247 13.2145" stroke="black" stroke-width="0.5"/>
<path d="M170.249 30.2146L173.749 8.2146C207.249 9.2146 218.749 14.7146 223.249 16.2146L225.732 28.2146C198.742 28.2152 181.247 29.7147 170.249 30.2146Z" fill="#E56E90"/>
<path d="M226.249 30.7146L223.249 16.2146C218.749 14.7146 207.249 9.2146 173.749 8.2146L170.249 30.2146C181.249 29.7146 198.749 28.2146 225.749 28.2146" stroke="black" stroke-width="0.5"/>
<path d="M164.749 8.2146C131.749 9.2146 111.749 18.2146 92.749 35.7146L95.249 33.7146L159.249 30.7146L164.749 8.2146Z" fill="#E56E90" stroke="black" stroke-width="0.5"/>
<path d="M239.247 22.7146C235.58 20.0479 229.747 17.7146 223.247 16.2146L225.747 28.2146H232.247C235.247 26.7146 238.247 24.4833 239.247 22.7146Z" fill="#E56E90" stroke="black" stroke-width="0.5"/>
<path d="M96.249 78.7146H163.249L197.749 77.2146H212.249L212.749 82.7146H198.749H97.749H86.249V78.7146H96.249Z" fill="#E56E90"/>
<path d="M96.249 78.7146H163.249L197.749 77.2146M96.249 78.7146C96.249 80.2146 96.749 81.2146 97.749 82.7146M96.249 78.7146H86.249V82.7146H97.749M197.749 77.2146L198.749 82.7146M197.749 77.2146H212.249L212.749 82.7146H198.749M198.749 82.7146H97.749" stroke="black" stroke-width="0.5"/>
<path d="M96.2482 78.7146C91.749 74.2146 88.7491 52.2146 92.7482 35.7146L164.749 31.7146C160.749 36.7146 159.749 70.7146 163.249 78.7146H96.2482Z" fill="#E56E90" stroke="black" stroke-width="0.5"/>
<path d="M228.249 30.7146L164.749 31.7146C160.749 36.7146 159.749 70.7146 163.249 78.7146L197.749 77.2146C202.249 75.7146 208.749 70.2146 228.249 30.7146Z" fill="#E56E90" stroke="black" stroke-width="0.5"/>
<path d="M170.249 30.2147C165.749 30.7147 162.249 30.7147 159.249 30.7147L164.749 8.21467C167.749 7.7146 170.749 7.7146 173.749 8.21467L170.249 30.2147Z" fill="#E56E90" stroke="black" stroke-width="0.5"/>
<path d="M98.749 32.2146C103.249 37.7146 110.249 34.2146 114.249 32.7146C115.249 17.2145 102.249 25.2145 98.749 32.2146Z" fill="#E56E90" stroke="black" stroke-width="0.5"/>
<path d="M234.247 9.7146L231.247 13.2146C248.247 18.7146 258.747 21.7146 271.247 28.2146H272.747L280.747 26.7146C265.747 20.2146 258.247 17.7146 234.247 9.7146Z" fill="#E0426F" stroke="black" stroke-width="0.5"/>
<path d="M271.247 28.2146C260.747 22.7146 241.747 16.2146 231.247 13.2146L229.247 15.7146L244.247 23.2146C242.747 25.7146 238.747 27.7146 232.747 30.4146C244.747 29.7146 261.747 28.7146 271.247 28.2146Z" fill="#E0426F" stroke="black" stroke-width="0.5"/>
<path d="M276.749 34.5146L282.747 32.2146L272.248 28.2146L228.248 30.7146C220.748 45.7146 205.748 76.2146 197.748 77.2146H212.248C210.748 66.2146 220.248 42.7146 245.249 51.7146C255.749 46.2146 265.749 40.7146 276.749 34.5146Z" fill="#E0426F" stroke="black" stroke-width="0.5"/>
<path d="M277.747 34.2146C265.747 40.7146 255.747 46.2146 245.247 51.7146C249.747 54.7146 260.247 60.7146 259.247 79.7146L284.247 79.2146V77.7146C292.747 76.7146 301.247 80.2146 299.747 66.2146L301.747 56.2146C301.747 54.7146 299.247 50.7146 296.747 50.2146C298.247 47.7146 295.247 38.7146 295.247 38.7146V37.2146L291.247 34.2146L286.247 32.7146L282.747 32.2146L277.747 34.2146Z" fill="#E0426F" stroke="black" stroke-width="0.5"/>
<path d="M280.747 26.7146L272.247 28.2146L282.747 32.2146C292.247 33.2146 291.246 34.7146 295.241 37.1348L294.747 28.7146L280.747 26.7146Z" fill="#E0426F"/>
<path d="M295.247 37.2146L295.241 37.1348M295.241 37.1348L294.747 28.7146L280.747 26.7146L272.247 28.2146L282.747 32.2146C292.247 33.2146 291.246 34.7146 295.241 37.1348Z" stroke="black" stroke-width="0.5"/>
<path d="M293.749 36.7148C293.249 34.2147 282.249 34.0146 276.749 34.5146" stroke="black" stroke-width="0.5"/>
<path d="M299.749 66.7146L260.249 68.7146C259.749 63.7146 257.582 59.5479 255.749 57.7146L301.749 55.2146M300.249 52.7146C289.249 51.2146 278.249 46.4146 266.249 40.4146M228.249 30.7146L272.249 28.2146L280.749 26.7146" stroke="black" stroke-width="0.5"/>
<path d="M290.249 40.7146C290.249 38.7146 289.249 34.7146 285.749 32.7146C287.97 32.7146 291.347 33.755 293.858 36.1246C294.322 37.6546 293.249 41.2146 290.207 42.7146C290.194 42.1243 290.249 41.4389 290.249 40.7146Z" fill="#E0426F"/>
<path d="M272.249 43.2146C279.245 43.5644 285.262 43.6695 290.642 44.2146M297.249 45.2146C295.146 44.764 292.953 44.4487 290.642 44.2146M295.249 37.7146C294.831 37.1295 294.362 36.6002 293.858 36.1246M290.642 44.2146C290.316 43.8698 290.222 43.3468 290.207 42.7146M290.207 42.7146C290.194 42.1243 290.249 41.4389 290.249 40.7146C290.249 38.7146 289.249 34.7146 285.749 32.7146C287.97 32.7146 291.347 33.755 293.858 36.1246M290.207 42.7146C293.249 41.2146 294.322 37.6546 293.858 36.1246" stroke="black" stroke-width="0.5"/>
<path d="M290.249 40.7146C285.749 40.7146 283.749 36.7146 282.749 34.2146" stroke="black" stroke-width="0.5"/>
<path d="M132.247 12.8146C118.747 16.8146 106.747 22.7146 92.7471 35.7146C99.7471 23.7146 115.247 14.2146 130.747 9.2146L132.247 12.8146Z" fill="#E56E90" stroke="black" stroke-width="0.5"/>
<path d="M130.747 9.2146C110.747 14.8886 92.7471 32.2146 84.7471 30.2146C97.7471 20.7146 113.747 12.2146 130.247 7.7146L130.747 9.2146Z" fill="#E56E90" stroke="black" stroke-width="0.5"/>
<path d="M9.74774 48.2145H3.74774C1.24707 52.2145 1.24707 62.2145 1.74774 65.7145C0.24707 66.7145 0.247668 71.2145 1.24774 72.7145L5.24774 73.2145V74.7145L1.24774 76.7145V78.7145C5.24774 79.7145 13.7477 81.7145 21.7477 81.2145V79.7145H39.2477C38.5811 71.2145 40.2477 60.7145 49.2477 53.7145C46.7477 49.7145 39.7477 45.2145 36.7477 44.7145C26.7477 43.7145 11.7477 46.2145 9.74774 48.2145Z" fill="#E56E90" stroke="black" stroke-width="0.5"/>
<path d="M92.749 35.7146C74.9157 36.5479 43.249 41.4146 32.749 44.4146L36.749 44.7146C41.749 46.2146 47.249 50.5479 49.249 53.7146C62.248 44.2146 87.748 51.2146 86.248 78.7146H96.248C89.248 67.7146 90.248 45.7146 92.749 35.7146Z" fill="#E56E90" stroke="black" stroke-width="0.5"/>
<path d="M9.74707 48.2147H3.74707C36.2473 28.7146 58.2473 34.7146 84.2471 30.2146L93.2473 35.7146C76.2473 36.7146 47.2471 40.2146 33.2471 44.4146C25.2471 44.2146 11.2471 46.2146 9.74707 48.2147Z" fill="#E56E90" stroke="black" stroke-width="0.5"/>
<path d="M36.7485 44.7147C29.2485 43.7146 12.2485 45.7146 9.74852 48.2147C8.94852 50.6146 12.0819 53.5479 13.7485 54.7146C23.2485 56.2146 36.7485 50.2146 36.7485 44.7147Z" fill="#E56E90" stroke="black" stroke-width="0.5"/>
<path d="M3.74777 48.2146C10.7478 49.2146 4.74777 59.7146 1.74777 64.7146C1.2477 57.7146 1.74756 52.2146 3.74777 48.2146Z" fill="#E56E90" stroke="black" stroke-width="0.5"/>
<path d="M21.7471 84.2146V79.7146H39.2471L39.7471 84.2146H21.7471Z" fill="#E56E90" stroke="black" stroke-width="0.5"/>
<path d="M2.24902 65.7144C3.74902 68.2144 5.74902 71.381 5.24902 73.2144M21.749 79.7144C11.249 80.2144 6.74902 76.2144 7.74902 72.7144C8.24902 72.2144 9.74902 70.7144 10.749 70.7144" stroke="black" stroke-width="0.5"/>
<path d="M31.749 74.7145C29.249 70.7145 23.749 65.7146 20.749 64.2146C18.999 63.7145 16.3739 63.8395 13.6238 64.2146C11.9989 65.5479 10.749 68.7145 11.249 71.7145C11.249 72.8811 12.5564 75.2145 15.249 75.2145C19.749 75.2145 26.749 75.7145 31.749 74.7145Z" fill="#E56E90"/>
<path d="M5.74902 65.7146C7.99897 65.2145 10.8739 64.5896 13.6238 64.2146M13.6238 64.2146C16.3739 63.8395 18.999 63.7145 20.749 64.2146C23.749 65.7146 29.249 70.7145 31.749 74.7145C26.749 75.7145 19.749 75.2145 15.249 75.2145C12.5564 75.2145 11.249 72.8811 11.249 71.7145C10.749 68.7145 11.9989 65.5479 13.6238 64.2146Z" stroke="black" stroke-width="0.5"/>
<path d="M11.249 71.2146C19.249 69.7146 22.749 72.3431 25.749 73.8431M12.749 74.2146L30.249 73.7146" stroke="black" stroke-width="0.5"/>
<path d="M21.7471 82.7144H31.2471C33.2471 82.7144 34.7471 80.7144 34.2471 79.7144M37.7471 79.7144V84.2144" stroke="black" stroke-width="0.5"/>
<path d="M21.749 81.2148C17.249 81.2148 12.749 81.7148 1.24897 78.7148V76.7148L5.24897 74.7148V73.2148L1.24897 72.7149C0.748047 71.2146 -0.251757 68.2146 1.74824 65.7146C1.24848 57.7146 1.74848 51.2146 3.74897 48.2143C36.249 28.7147 58.249 34.7148 84.249 30.2148C162.249 -24.7853 244.249 12.2146 281.249 26.7148L294.749 28.7146L295.249 35.7146V38.7146C296.747 43.7146 298.082 48.2146 296.749 50.2146C299.249 51.2146 301.749 54.3813 301.749 56.2146L299.749 66.2146C300.201 77.0625 297.793 77.2868 288.461 77.5992C287.47 77.6324 285.401 77.6666 284.249 77.7146V79.2146L259.249 79.6456M21.749 81.2148V84.2148H39.7473L39.249 79.7148M21.749 81.2148V79.7148H39.249M39.249 79.7148C36.249 38.2148 89.749 41.2148 86.249 80.2148V82.7146H212.749C206.749 39.2146 261.249 39.2146 259.249 79.6456M258.747 79.6456H259.249" stroke="black"/>
</svg>
