<svg width="303" height="96" viewBox="0 0 303 96" fill="none" xmlns="http://www.w3.org/2000/svg">
<circle cx="62.8853" cy="74.3384" r="20.5" fill="#EFC7D3" stroke="black"/>
<circle cx="235.885" cy="74.3384" r="20.5" fill="#EFC7D3" stroke="black"/>
<path d="M132.884 12.8382L131.384 9.33823C171.384 1.33835 192.884 1.83838 231.884 13.3383L228.384 17.8383C208.384 9.83829 190.384 8.83829 174.384 8.33836C171.884 7.83836 167.884 7.83832 165.384 8.33823C155.384 8.33836 143.384 9.83836 132.884 12.8382Z" stroke="black" stroke-width="0.5"/>
<path d="M131.384 9.33842L130.884 7.83842C166.884 -3.16162 199.384 0.838253 234.884 9.83842L231.884 13.3384C191.884 0.838379 165.884 2.33838 131.384 9.33842Z" stroke="black" stroke-width="0.5"/>
<path d="M131.384 9.33837C182.884 -2.16166 211.384 7.83838 231.884 13.3384" stroke="black" stroke-width="0.5"/>
<path d="M226.885 30.8384L223.885 16.3384C219.385 14.8384 207.885 9.33838 174.385 8.33838L170.885 30.3384C181.885 29.8384 199.385 28.3384 226.385 28.3384" stroke="black" stroke-width="0.5"/>
<path d="M165.385 8.33838C132.385 9.33838 112.385 18.3384 93.3853 35.8384L95.8853 33.8384L159.885 30.8384L165.385 8.33838Z" stroke="black" stroke-width="0.5"/>
<path d="M239.884 22.8384C236.217 20.1717 230.384 17.8384 223.884 16.3384L226.384 28.3384H232.884C235.884 26.8384 238.884 24.6071 239.884 22.8384Z" stroke="black" stroke-width="0.5"/>
<path d="M96.8853 78.8384H163.885L198.385 77.3384M96.8853 78.8384C96.8853 80.3384 97.3853 81.3384 98.3853 82.8384M96.8853 78.8384H86.8853V82.8384H98.3853M198.385 77.3384L199.385 82.8384M198.385 77.3384H212.885L213.385 82.8384H199.385M199.385 82.8384H98.3853" stroke="black" stroke-width="0.5"/>
<path d="M96.8844 78.8384C92.3852 74.3384 89.3853 52.3384 93.3844 35.8384L165.385 31.8384C161.385 36.8384 160.385 70.8384 163.885 78.8384H96.8844Z" stroke="black" stroke-width="0.5"/>
<path d="M228.885 30.8384L165.385 31.8384C161.385 36.8384 160.385 70.8384 163.885 78.8384L198.385 77.3384C202.885 75.8384 209.385 70.3384 228.885 30.8384Z" stroke="black" stroke-width="0.5"/>
<path d="M170.885 30.3385C166.385 30.8385 162.885 30.8385 159.885 30.8385L165.385 8.33845C168.385 7.83838 171.385 7.83838 174.385 8.33845L170.885 30.3385Z" stroke="black" stroke-width="0.5"/>
<path d="M99.3853 32.3385C103.885 37.8385 110.885 34.3385 114.885 32.8385C115.885 17.3384 102.885 25.3384 99.3853 32.3385Z" stroke="black" stroke-width="0.5"/>
<path d="M234.884 9.83838L231.884 13.3384C248.884 18.8384 259.384 21.8384 271.884 28.3384H273.384L281.384 26.8384C266.384 20.3384 258.884 17.8384 234.884 9.83838Z" fill="#EFC7D3" stroke="black" stroke-width="0.5"/>
<path d="M271.884 28.3384C261.384 22.8384 242.384 16.3384 231.884 13.3384L229.884 15.8384L244.884 23.3384C243.384 25.8384 239.384 27.8384 233.384 30.5384C245.384 29.8384 262.384 28.8384 271.884 28.3384Z" fill="#EFC7D3" stroke="black" stroke-width="0.5"/>
<path d="M277.385 34.6384L283.384 32.3384L272.884 28.3384L228.884 30.8384C221.384 45.8384 206.384 76.3384 198.384 77.3384H212.884C211.384 66.3384 220.884 42.8384 245.885 51.8384C256.385 46.3384 266.385 40.8384 277.385 34.6384Z" fill="#EFC7D3" stroke="black" stroke-width="0.5"/>
<path d="M278.384 34.3384C266.384 40.8384 256.384 46.3384 245.884 51.8384C250.384 54.8384 260.884 60.8384 259.884 79.8384L284.884 79.3384V77.8384C293.384 76.8384 301.884 80.3384 300.384 66.3384L302.384 56.3384C302.384 54.8384 299.884 50.8384 297.384 50.3384C298.884 47.8384 295.884 38.8384 295.884 38.8384V37.3384L291.884 34.3384L286.884 32.8384L283.384 32.3384L278.384 34.3384Z" fill="#EFC7D3" stroke="black" stroke-width="0.5"/>
<path d="M281.384 26.8384L272.884 28.3384L283.384 32.3384C292.884 33.3384 291.883 34.8384 295.878 37.2586L295.384 28.8384L281.384 26.8384Z" fill="#EFC7D3"/>
<path d="M295.884 37.3384L295.878 37.2586M295.878 37.2586L295.384 28.8384L281.384 26.8384L272.884 28.3384L283.384 32.3384C292.884 33.3384 291.883 34.8384 295.878 37.2586Z" stroke="black" stroke-width="0.5"/>
<path d="M294.385 36.8386C293.885 34.3385 282.885 34.1384 277.385 34.6384" stroke="black" stroke-width="0.5"/>
<path d="M300.385 66.8384L260.885 68.8384C260.385 63.8384 258.219 59.6717 256.385 57.8384L302.385 55.3384M300.885 52.8384C289.885 51.3384 278.885 46.5384 266.885 40.5384M228.885 30.8384L272.885 28.3384L281.385 26.8384" stroke="black" stroke-width="0.5"/>
<path d="M290.885 40.8384C290.885 38.8384 289.885 34.8384 286.385 32.8384C288.606 32.8384 291.983 33.8788 294.494 36.2484C294.958 37.7784 293.885 41.3384 290.843 42.8384C290.83 42.2481 290.885 41.5627 290.885 40.8384Z" fill="#EFC7D3"/>
<path d="M272.885 43.3384C279.881 43.6882 285.898 43.7933 291.278 44.3384M297.885 45.3384C295.782 44.8877 293.589 44.5725 291.278 44.3384M295.885 37.8384C295.467 37.2533 294.998 36.724 294.494 36.2484M291.278 44.3384C290.952 43.9936 290.858 43.4706 290.843 42.8384M290.843 42.8384C290.83 42.2481 290.885 41.5627 290.885 40.8384C290.885 38.8384 289.885 34.8384 286.385 32.8384C288.606 32.8384 291.983 33.8788 294.494 36.2484M290.843 42.8384C293.885 41.3384 294.958 37.7784 294.494 36.2484" stroke="black" stroke-width="0.5"/>
<path d="M290.885 40.8384C286.385 40.8384 284.385 36.8384 283.385 34.3384" stroke="black" stroke-width="0.5"/>
<path d="M132.884 12.9384C119.384 16.9384 107.384 22.8384 93.3838 35.8384C100.384 23.8384 115.884 14.3384 131.384 9.33838L132.884 12.9384Z" fill="#EFC7D3" stroke="black" stroke-width="0.5"/>
<path d="M131.384 9.33838C111.384 15.0124 93.3838 32.3384 85.3838 30.3384C98.3838 20.8384 114.384 12.3384 130.884 7.83838L131.384 9.33838Z" fill="#EFC7D3" stroke="black" stroke-width="0.5"/>
<path d="M10.3845 48.3384H4.38446C1.88379 52.3384 1.88379 62.3384 2.38446 65.8384C0.883789 66.8384 0.884387 71.3384 1.88446 72.8384L5.88446 73.3384V74.8384L1.88446 76.8384V78.8384C5.88446 79.8384 14.3845 81.8384 22.3845 81.3384V79.8384H39.8845C39.2178 71.3384 40.8845 60.8384 49.8845 53.8384C47.3845 49.8384 40.3845 45.3384 37.3845 44.8384C27.3845 43.8384 12.3845 46.3384 10.3845 48.3384Z" fill="#EFC7D3" stroke="black" stroke-width="0.5"/>
<path d="M93.3853 35.8384C75.5519 36.6717 43.8853 41.5384 33.3853 44.5384L37.3853 44.8384C42.3853 46.3384 47.8853 50.6717 49.8853 53.8384C62.8843 44.3384 88.3843 51.3384 86.8843 78.8384H96.8843C89.8843 67.8384 90.8843 45.8384 93.3853 35.8384Z" fill="#EFC7D3" stroke="black" stroke-width="0.5"/>
<path d="M10.3838 48.3384H4.38379C36.884 28.8383 58.884 34.8384 84.8838 30.3384L93.884 35.8384C76.884 36.8384 47.8838 40.3384 33.8838 44.5384C25.8838 44.3384 11.8838 46.3384 10.3838 48.3384Z" fill="#EFC7D3" stroke="black" stroke-width="0.5"/>
<path d="M37.3852 44.8385C29.8852 43.8384 12.8852 45.8384 10.3852 48.3385C9.58524 50.7384 12.7186 53.6717 14.3852 54.8384C23.8853 56.3384 37.3852 50.3384 37.3852 44.8385Z" fill="#EFC7D3" stroke="black" stroke-width="0.5"/>
<path d="M4.38448 48.3384C11.3845 49.3384 5.38448 59.8384 2.38448 64.8384C1.88441 57.8384 2.38428 52.3384 4.38448 48.3384Z" fill="#EFC7D3" stroke="black" stroke-width="0.5"/>
<path d="M22.3838 84.3384V79.8384H39.8838L40.3838 84.3384H22.3838Z" fill="#EFC7D3" stroke="black" stroke-width="0.5"/>
<path d="M2.88574 65.8384C4.38574 68.3384 6.38574 71.505 5.88574 73.3384M22.3857 79.8384C11.8857 80.3384 7.38574 76.3384 8.38574 72.8384C8.88574 72.3384 10.3857 70.8384 11.3857 70.8384" stroke="black" stroke-width="0.5"/>
<path d="M32.3857 74.8384C29.8857 70.8384 24.3857 65.8385 21.3857 64.3385C19.6357 63.8384 17.0106 63.9634 14.2605 64.3385C12.6356 65.6718 11.3857 68.8384 11.8857 71.8384C11.8857 73.005 13.1932 75.3384 15.8857 75.3384C20.3857 75.3384 27.3857 75.8384 32.3857 74.8384Z" fill="#EFC7D3"/>
<path d="M6.38574 65.8385C8.63568 65.3384 11.5106 64.7135 14.2605 64.3385M14.2605 64.3385C17.0106 63.9634 19.6357 63.8384 21.3857 64.3385C24.3857 65.8385 29.8857 70.8384 32.3857 74.8384C27.3857 75.8384 20.3857 75.3384 15.8857 75.3384C13.1932 75.3384 11.8857 73.005 11.8857 71.8384C11.3857 68.8384 12.6356 65.6718 14.2605 64.3385Z" stroke="black" stroke-width="0.5"/>
<path d="M11.8857 71.3385C19.8857 69.8385 23.3857 72.467 26.3857 73.967M13.3857 74.3385L30.8857 73.8385" stroke="black" stroke-width="0.5"/>
<path d="M22.3838 82.8384H31.8838C33.8838 82.8384 35.3838 80.8384 34.8838 79.8384M38.3838 79.8384V84.3384" stroke="black" stroke-width="0.5"/>
<path d="M22.3852 81.3386C17.8852 81.3386 13.3852 81.8386 1.8852 78.8386V76.8386L5.8852 74.8386V73.3386L1.8852 72.8386C1.38428 71.3384 0.384473 68.3384 2.38447 65.8384C1.88471 57.8384 2.38471 51.3384 4.3852 48.3381C36.8852 28.8385 58.8852 34.8386 84.8852 30.3386C162.885 -24.6615 244.885 12.3384 281.885 26.8386L295.385 28.8384L295.885 35.8384V38.8384C297.384 43.8384 298.719 48.3384 297.385 50.3384C299.885 51.3384 302.385 54.505 302.385 56.3384L300.385 66.3384C300.837 77.1863 298.429 77.4106 289.098 77.723C288.106 77.7562 286.037 77.7904 284.885 77.8384V79.3384L259.885 79.7694M22.3852 81.3386V84.3386H40.3835L39.8852 79.8386M22.3852 81.3386V79.8386H39.8852M39.8852 79.8386C36.8852 38.3386 90.3852 41.3386 86.8852 80.3386V82.8384H213.385C207.385 39.3384 261.885 39.3384 259.885 79.7694M259.384 79.7694H259.885" stroke="black"/>
</svg>
