<svg width="303" height="95" viewBox="0 0 303 95" fill="none" xmlns="http://www.w3.org/2000/svg">
<circle cx="62.458" cy="73.8762" r="20.5" fill="#E0426F" stroke="black"/>
<circle cx="235.458" cy="73.8762" r="20.5" fill="#E0426F" stroke="black"/>
<path d="M132.456 12.3761L130.956 8.87608C170.956 0.876188 192.456 1.37622 231.456 12.8762L227.956 17.3762C207.956 9.37613 189.956 8.37613 173.956 7.8762C171.456 7.3762 167.456 7.37616 164.956 7.87608C154.956 7.8762 142.956 9.3762 132.456 12.3761Z" fill="#E56E90" stroke="black" stroke-width="0.5"/>
<path d="M130.956 8.87627L130.456 7.37626C166.456 -3.62378 198.956 0.376095 234.456 9.37627L231.456 12.8763C191.456 0.376221 165.456 1.87622 130.956 8.87627Z" fill="#E56E90" stroke="black" stroke-width="0.5"/>
<path d="M130.956 8.87609C182.456 -2.62394 210.956 7.3761 231.456 12.8761" stroke="black" stroke-width="0.5"/>
<path d="M170.458 29.8762L173.958 7.87622C207.458 8.87622 218.958 14.3762 223.458 15.8762L225.941 27.8762C198.951 27.8769 181.456 29.3763 170.458 29.8762Z" fill="#E56E90"/>
<path d="M226.458 30.3762L223.458 15.8762C218.958 14.3762 207.458 8.87622 173.958 7.87622L170.458 29.8762C181.458 29.3762 198.958 27.8762 225.958 27.8762" stroke="black" stroke-width="0.5"/>
<path d="M164.958 7.87622C131.958 8.87622 111.958 17.8762 92.958 35.3762L95.458 33.3762L159.458 30.3762L164.958 7.87622Z" fill="#E56E90" stroke="black" stroke-width="0.5"/>
<path d="M239.456 22.3762C235.789 19.7096 229.956 17.3762 223.456 15.8762L225.956 27.8762H232.456C235.456 26.3762 238.456 24.145 239.456 22.3762Z" fill="#E56E90" stroke="black" stroke-width="0.5"/>
<path d="M96.458 78.3762H163.458L197.958 76.8762H212.458L212.958 82.3762H198.958H97.958H86.458V78.3762H96.458Z" fill="#E56E90"/>
<path d="M96.458 78.3762H163.458L197.958 76.8762M96.458 78.3762C96.458 79.8762 96.958 80.8762 97.958 82.3762M96.458 78.3762H86.458V82.3762H97.958M197.958 76.8762L198.958 82.3762M197.958 76.8762H212.458L212.958 82.3762H198.958M198.958 82.3762H97.958" stroke="black" stroke-width="0.5"/>
<path d="M96.4571 78.3762C91.958 73.8762 88.9581 51.8762 92.9571 35.3762L164.958 31.3762C160.958 36.3762 159.958 70.3762 163.458 78.3762H96.4571Z" fill="#E56E90" stroke="black" stroke-width="0.5"/>
<path d="M228.458 30.3762L164.958 31.3762C160.958 36.3762 159.958 70.3762 163.458 78.3762L197.958 76.8762C202.458 75.3762 208.958 69.8762 228.458 30.3762Z" fill="#E56E90" stroke="black" stroke-width="0.5"/>
<path d="M170.458 29.8763C165.958 30.3763 162.458 30.3763 159.458 30.3763L164.958 7.87629C167.958 7.37622 170.958 7.37622 173.958 7.87629L170.458 29.8763Z" fill="#E56E90" stroke="black" stroke-width="0.5"/>
<path d="M98.958 31.8762C103.458 37.3762 110.458 33.8762 114.458 32.3762C115.458 16.8761 102.458 24.8761 98.958 31.8762Z" fill="#E56E90" stroke="black" stroke-width="0.5"/>
<path d="M234.456 9.37622L231.456 12.8762C248.456 18.3762 258.956 21.3762 271.456 27.8762H272.956L280.956 26.3762C265.956 19.8762 258.456 17.3762 234.456 9.37622Z" fill="#E56E90" stroke="black" stroke-width="0.5"/>
<path d="M271.456 27.8762C260.956 22.3762 241.956 15.8762 231.456 12.8762L229.456 15.3762L244.456 22.8762C242.956 25.3762 238.956 27.3762 232.956 30.0762C244.956 29.3762 261.956 28.3762 271.456 27.8762Z" fill="#E56E90" stroke="black" stroke-width="0.5"/>
<path d="M276.958 34.1762L282.956 31.8762L272.457 27.8762L228.457 30.3762C220.957 45.3762 205.957 75.8762 197.957 76.8762H212.457C210.957 65.8762 220.457 42.3762 245.458 51.3762C255.958 45.8762 265.958 40.3762 276.958 34.1762Z" fill="#E56E90" stroke="black" stroke-width="0.5"/>
<path d="M277.956 33.8762C265.956 40.3762 255.956 45.8762 245.456 51.3762C249.956 54.3762 260.456 60.3762 259.456 79.3762L284.456 78.8762V77.3762C292.956 76.3762 301.456 79.8762 299.956 65.8762L301.956 55.8762C301.956 54.3762 299.456 50.3762 296.956 49.8762C298.456 47.3762 295.456 38.3762 295.456 38.3762V36.8762L291.456 33.8762L286.456 32.3762L282.956 31.8762L277.956 33.8762Z" fill="#E56E90" stroke="black" stroke-width="0.5"/>
<path d="M280.956 26.3762L272.456 27.8762L282.956 31.8762C292.456 32.8762 291.455 34.3762 295.45 36.7964L294.956 28.3762L280.956 26.3762Z" fill="#E56E90"/>
<path d="M295.456 36.8762L295.45 36.7964M295.45 36.7964L294.956 28.3762L280.956 26.3762L272.456 27.8762L282.956 31.8762C292.456 32.8762 291.455 34.3762 295.45 36.7964Z" stroke="black" stroke-width="0.5"/>
<path d="M293.958 36.3764C293.458 33.8763 282.458 33.6762 276.958 34.1762" stroke="black" stroke-width="0.5"/>
<path d="M299.958 66.3762L260.458 68.3762C259.958 63.3762 257.791 59.2096 255.958 57.3762L301.958 54.8762M300.458 52.3762C289.458 50.8762 278.458 46.0762 266.458 40.0762M228.458 30.3762L272.458 27.8762L280.958 26.3762" stroke="black" stroke-width="0.5"/>
<path d="M290.458 40.3762C290.458 38.3762 289.458 34.3762 285.958 32.3762C288.179 32.3762 291.556 33.4166 294.067 35.7862C294.531 37.3162 293.458 40.8762 290.416 42.3762C290.403 41.7859 290.458 41.1005 290.458 40.3762Z" fill="#E56E90"/>
<path d="M272.458 42.8762C279.454 43.226 285.471 43.3311 290.851 43.8762M297.458 44.8762C295.355 44.4256 293.162 44.1103 290.851 43.8762M295.458 37.3762C295.04 36.7911 294.571 36.2619 294.067 35.7862M290.851 43.8762C290.525 43.5315 290.431 43.0084 290.416 42.3762M290.416 42.3762C290.403 41.7859 290.458 41.1005 290.458 40.3762C290.458 38.3762 289.458 34.3762 285.958 32.3762C288.179 32.3762 291.556 33.4166 294.067 35.7862M290.416 42.3762C293.458 40.8762 294.531 37.3162 294.067 35.7862" stroke="black" stroke-width="0.5"/>
<path d="M290.458 40.3762C285.958 40.3762 283.958 36.3762 282.958 33.8762" stroke="black" stroke-width="0.5"/>
<path d="M132.456 12.4762C118.956 16.4762 106.956 22.3762 92.9561 35.3762C99.9561 23.3762 115.456 13.8762 130.956 8.87622L132.456 12.4762Z" fill="#EFC7D3" stroke="black" stroke-width="0.5"/>
<path d="M130.956 8.87622C110.956 14.5503 92.9561 31.8762 84.9561 29.8762C97.9561 20.3762 113.956 11.8762 130.456 7.37622L130.956 8.87622Z" fill="#EFC7D3" stroke="black" stroke-width="0.5"/>
<path d="M9.95672 47.8761H3.95672C1.45605 51.8761 1.45605 61.8761 1.95672 65.3761C0.456055 66.3761 0.456652 70.8761 1.45672 72.3761L5.45672 72.8761V74.3761L1.45672 76.3761V78.3761C5.45672 79.3761 13.9567 81.3761 21.9567 80.8761V79.3761H39.4567C38.7901 70.8761 40.4567 60.3761 49.4567 53.3761C46.9567 49.3761 39.9567 44.8761 36.9567 44.3761C26.9567 43.3761 11.9567 45.8761 9.95672 47.8761Z" fill="#EFC7D3" stroke="black" stroke-width="0.5"/>
<path d="M92.958 35.3762C75.1247 36.2096 43.458 41.0762 32.958 44.0762L36.958 44.3762C41.958 45.8762 47.458 50.2096 49.458 53.3762C62.457 43.8762 87.957 50.8762 86.457 78.3762H96.457C89.457 67.3762 90.457 45.3762 92.958 35.3762Z" fill="#EFC7D3" stroke="black" stroke-width="0.5"/>
<path d="M9.95606 47.8763H3.95605C36.4562 28.3762 58.4563 34.3762 84.4561 29.8762L93.4563 35.3762C76.4563 36.3762 47.4561 39.8762 33.4561 44.0762C25.4561 43.8762 11.4561 45.8762 9.95606 47.8763Z" fill="#EFC7D3" stroke="black" stroke-width="0.5"/>
<path d="M36.9575 44.3763C29.4575 43.3762 12.4575 45.3762 9.95751 47.8763C9.15751 50.2762 12.2908 53.2096 13.9575 54.3762C23.4575 55.8762 36.9575 49.8762 36.9575 44.3763Z" fill="#EFC7D3" stroke="black" stroke-width="0.5"/>
<path d="M3.95675 47.8762C10.9568 48.8762 4.95675 59.3762 1.95675 64.3762C1.45668 57.3762 1.95654 51.8762 3.95675 47.8762Z" fill="#EFC7D3" stroke="black" stroke-width="0.5"/>
<path d="M21.9561 83.8762V79.3762H39.4561L39.9561 83.8762H21.9561Z" fill="#EFC7D3" stroke="black" stroke-width="0.5"/>
<path d="M2.45801 65.376C3.95801 67.876 5.95801 71.0426 5.45801 72.876M21.958 79.376C11.458 79.876 6.95801 75.876 7.95801 72.376C8.45801 71.876 9.95801 70.376 10.958 70.376" stroke="black" stroke-width="0.5"/>
<path d="M31.958 74.3761C29.458 70.3761 23.958 65.3762 20.958 63.8762C19.208 63.3762 16.5829 63.5012 13.8328 63.8762C12.2079 65.2095 10.958 68.3761 11.458 71.3761C11.458 72.5428 12.7654 74.8761 15.458 74.8761C19.958 74.8761 26.958 75.3761 31.958 74.3761Z" fill="#EFC7D3"/>
<path d="M5.95801 65.3762C8.20795 64.8762 11.0829 64.2512 13.8328 63.8762M13.8328 63.8762C16.5829 63.5012 19.208 63.3762 20.958 63.8762C23.958 65.3762 29.458 70.3761 31.958 74.3761C26.958 75.3761 19.958 74.8761 15.458 74.8761C12.7654 74.8761 11.458 72.5428 11.458 71.3761C10.958 68.3761 12.2079 65.2095 13.8328 63.8762Z" stroke="black" stroke-width="0.5"/>
<path d="M11.458 70.8762C19.458 69.3762 22.958 72.0047 25.958 73.5047M12.958 73.8762L30.458 73.3762" stroke="black" stroke-width="0.5"/>
<path d="M21.9561 82.376H31.4561C33.4561 82.376 34.9561 80.376 34.4561 79.376M37.9561 79.376V83.876" stroke="black" stroke-width="0.5"/>
<path d="M21.958 80.8765C17.458 80.8765 12.958 81.3765 1.45795 78.3765V76.3765L5.45795 74.3765V72.8765L1.45795 72.3765C0.957031 70.8762 -0.0427729 67.8762 1.95722 65.3762C1.45747 57.3762 1.95747 50.8762 3.95795 47.876C36.458 28.3764 58.4579 34.3764 84.4579 29.8764C162.458 -25.1237 244.458 11.8762 281.458 26.3764L294.958 28.3762L295.458 35.3762V38.3762C296.956 43.3762 298.291 47.8762 296.958 49.8762C299.458 50.8762 301.958 54.0429 301.958 55.8762L299.958 65.8762C300.41 76.7241 298.002 76.9484 288.67 77.2609C287.679 77.294 285.61 77.3282 284.458 77.3762V78.8762L259.458 79.3073M21.958 80.8765V83.8765H39.9563L39.458 79.3765M21.958 80.8765V79.3765H39.458M39.458 79.3765C36.458 37.8765 89.9579 40.8765 86.4579 79.8765V82.3762H212.958C206.958 38.8762 261.458 38.8762 259.458 79.3073M258.956 79.3073H259.458" stroke="black"/>
</svg>
