<svg width="304" height="96" viewBox="0 0 304 96" fill="none" xmlns="http://www.w3.org/2000/svg">
<circle cx="63.0518" cy="74.553" r="20.5" fill="#EDADBF" stroke="black"/>
<circle cx="236.052" cy="74.553" r="20.5" fill="#EDADBF" stroke="black"/>
<path d="M133.05 13.0528L131.55 9.55283C171.55 1.55295 193.05 2.05298 232.05 13.5529L228.55 18.0529C208.55 10.0529 190.55 9.05289 174.55 8.55296C172.05 8.05296 168.05 8.05292 165.55 8.55283C155.55 8.55296 143.55 10.053 133.05 13.0528Z" fill="#E0426F" stroke="black" stroke-width="0.5"/>
<path d="M131.55 9.55302L131.05 8.05302C167.05 -2.94702 199.55 1.05285 235.05 10.053L232.05 13.553C192.05 1.05298 166.05 2.55298 131.55 9.55302Z" fill="#E0426F" stroke="black" stroke-width="0.5"/>
<path d="M131.55 9.55284C183.05 -1.94718 211.55 8.05286 232.05 13.5528" stroke="black" stroke-width="0.5"/>
<path d="M171.052 30.553L174.552 8.55298C208.052 9.55298 219.552 15.053 224.052 16.553L226.535 28.553C199.544 28.5536 182.049 30.0531 171.052 30.553Z" fill="#E0426F"/>
<path d="M227.052 31.053L224.052 16.553C219.552 15.053 208.052 9.55298 174.552 8.55298L171.052 30.553C182.052 30.053 199.552 28.553 226.552 28.553" stroke="black" stroke-width="0.5"/>
<path d="M165.552 8.55298C132.552 9.55298 112.552 18.553 93.5518 36.053L96.0518 34.053L160.052 31.053L165.552 8.55298Z" fill="#E0426F" stroke="black" stroke-width="0.5"/>
<path d="M240.05 23.053C236.383 20.3863 230.55 18.053 224.05 16.553L226.55 28.553H233.05C236.05 27.053 239.05 24.8217 240.05 23.053Z" fill="#E0426F" stroke="black" stroke-width="0.5"/>
<path d="M97.0518 79.053H164.052L198.552 77.553H213.052L213.552 83.053H199.552H98.5518H87.0518V79.053H97.0518Z" fill="#E0426F"/>
<path d="M97.0518 79.053H164.052L198.552 77.553M97.0518 79.053C97.0518 80.553 97.5518 81.553 98.5518 83.053M97.0518 79.053H87.0518V83.053H98.5518M198.552 77.553L199.552 83.053M198.552 77.553H213.052L213.552 83.053H199.552M199.552 83.053H98.5518" stroke="black" stroke-width="0.5"/>
<path d="M97.0509 79.053C92.5518 74.553 89.5518 52.553 93.5509 36.053L165.552 32.053C161.552 37.053 160.552 71.053 164.052 79.053H97.0509Z" fill="#E0426F" stroke="black" stroke-width="0.5"/>
<path d="M229.052 31.053L165.552 32.053C161.552 37.053 160.552 71.053 164.052 79.053L198.552 77.553C203.052 76.053 209.552 70.553 229.052 31.053Z" fill="#E0426F" stroke="black" stroke-width="0.5"/>
<path d="M171.052 30.5531C166.552 31.0531 163.052 31.0531 160.052 31.0531L165.552 8.55305C168.552 8.05298 171.552 8.05298 174.552 8.55305L171.052 30.5531Z" fill="#E0426F" stroke="black" stroke-width="0.5"/>
<path d="M99.5518 32.553C104.052 38.053 111.052 34.553 115.052 33.053C116.052 17.5529 103.052 25.5529 99.5518 32.553Z" fill="#E0426F" stroke="black" stroke-width="0.5"/>
<path d="M235.05 10.053L232.05 13.553C249.05 19.053 259.55 22.053 272.05 28.553H273.55L281.55 27.053C266.55 20.553 259.05 18.053 235.05 10.053Z" fill="#E0426F" stroke="black" stroke-width="0.5"/>
<path d="M272.05 28.553C261.55 23.053 242.55 16.553 232.05 13.553L230.05 16.053L245.05 23.553C243.55 26.053 239.55 28.053 233.55 30.753C245.55 30.053 262.55 29.053 272.05 28.553Z" fill="#E0426F" stroke="black" stroke-width="0.5"/>
<path d="M277.552 34.853L283.55 32.553L273.051 28.553L229.051 31.053C221.551 46.053 206.551 76.553 198.551 77.553H213.051C211.551 66.553 221.051 43.053 246.052 52.053C256.552 46.553 266.552 41.053 277.552 34.853Z" fill="#E0426F" stroke="black" stroke-width="0.5"/>
<path d="M278.55 34.553C266.55 41.053 256.55 46.553 246.05 52.053C250.55 55.053 261.05 61.053 260.05 80.053L285.05 79.553V78.053C293.55 77.053 302.05 80.553 300.55 66.553L302.55 56.553C302.55 55.053 300.05 51.053 297.55 50.553C299.05 48.053 296.05 39.053 296.05 39.053V37.553L292.05 34.553L287.05 33.053L283.55 32.553L278.55 34.553Z" fill="#E0426F" stroke="black" stroke-width="0.5"/>
<path d="M281.55 27.053L273.05 28.553L283.55 32.553C293.05 33.553 292.049 35.053 296.044 37.4732L295.55 29.053L281.55 27.053Z" fill="#E0426F"/>
<path d="M296.05 37.553L296.044 37.4732M296.044 37.4732L295.55 29.053L281.55 27.053L273.05 28.553L283.55 32.553C293.05 33.553 292.049 35.053 296.044 37.4732Z" stroke="black" stroke-width="0.5"/>
<path d="M294.552 37.0532C294.052 34.5531 283.052 34.353 277.552 34.853" stroke="black" stroke-width="0.5"/>
<path d="M300.552 67.053L261.052 69.053C260.552 64.053 258.385 59.8863 256.552 58.053L302.552 55.553M301.052 53.053C290.052 51.553 279.052 46.753 267.052 40.753M229.052 31.053L273.052 28.553L281.552 27.053" stroke="black" stroke-width="0.5"/>
<path d="M291.052 41.053C291.052 39.053 290.052 35.053 286.552 33.053C288.773 33.053 292.149 34.0934 294.661 36.463C295.124 37.993 294.052 41.553 291.01 43.053C290.996 42.4627 291.052 41.7773 291.052 41.053Z" fill="#E0426F"/>
<path d="M273.052 43.553C280.047 43.9028 286.064 44.0079 291.445 44.553M298.052 45.553C295.949 45.1023 293.756 44.7871 291.445 44.553M296.052 38.053C295.634 37.4679 295.165 36.9386 294.661 36.463M291.445 44.553C291.119 44.2082 291.025 43.6852 291.01 43.053M291.01 43.053C290.996 42.4627 291.052 41.7773 291.052 41.053C291.052 39.053 290.052 35.053 286.552 33.053C288.773 33.053 292.149 34.0934 294.661 36.463M291.01 43.053C294.052 41.553 295.124 37.993 294.661 36.463" stroke="black" stroke-width="0.5"/>
<path d="M291.052 41.053C286.552 41.053 284.552 37.053 283.552 34.553" stroke="black" stroke-width="0.5"/>
<path d="M133.05 13.153C119.55 17.153 107.55 23.053 93.5498 36.053C100.55 24.053 116.05 14.553 131.55 9.55298L133.05 13.153Z" stroke="black" stroke-width="0.5"/>
<path d="M131.55 9.55298C111.55 15.227 93.5498 32.553 85.5498 30.553C98.5498 21.053 114.55 12.553 131.05 8.05298L131.55 9.55298Z" stroke="black" stroke-width="0.5"/>
<path d="M10.5505 48.5529H4.55047C2.0498 52.5529 2.0498 62.5529 2.55047 66.0529C1.0498 67.0529 1.0504 71.5529 2.05047 73.0529L6.05047 73.5529V75.0529L2.05047 77.0529V79.0529C6.05047 80.0529 14.5505 82.0529 22.5505 81.5529V80.0529H40.0505C39.3838 71.5529 41.0505 61.0529 50.0505 54.0529C47.5505 50.0529 40.5505 45.5529 37.5505 45.0529C27.5505 44.0529 12.5505 46.5529 10.5505 48.5529Z" stroke="black" stroke-width="0.5"/>
<path d="M93.5518 36.053C75.7184 36.8863 44.0518 41.753 33.5518 44.753L37.5518 45.053C42.5518 46.553 48.0518 50.8863 50.0518 54.053C63.0508 44.553 88.5508 51.553 87.0508 79.053H97.0508C90.0508 68.053 91.0508 46.053 93.5518 36.053Z" stroke="black" stroke-width="0.5"/>
<path d="M10.5498 48.553H4.5498C37.05 29.0529 59.05 35.053 85.0498 30.553L94.05 36.053C77.05 37.053 48.0498 40.553 34.0498 44.753C26.0498 44.553 12.0498 46.553 10.5498 48.553Z" stroke="black" stroke-width="0.5"/>
<path d="M37.5513 45.0531C30.0513 44.053 13.0513 46.053 10.5513 48.5531C9.75126 50.953 12.8846 53.8863 14.5513 55.053C24.0513 56.553 37.5513 50.553 37.5513 45.0531Z" stroke="black" stroke-width="0.5"/>
<path d="M4.5505 48.553C11.5505 49.553 5.5505 60.053 2.5505 65.053C2.05043 58.053 2.55029 52.553 4.5505 48.553Z" stroke="black" stroke-width="0.5"/>
<path d="M22.5498 84.553V80.053H40.0498L40.5498 84.553H22.5498Z" stroke="black" stroke-width="0.5"/>
<path d="M3.05176 66.0527C4.55176 68.5527 6.55176 71.7194 6.05176 73.5527M22.5518 80.0527C12.0518 80.5527 7.55176 76.5527 8.55176 73.0527C9.05176 72.5527 10.5518 71.0527 11.5518 71.0527" stroke="black" stroke-width="0.5"/>
<path d="M6.55176 66.0529C8.8017 65.5529 11.6766 64.9279 14.4265 64.5529M14.4265 64.5529C17.1766 64.1779 19.8017 64.0529 21.5518 64.5529C24.5518 66.0529 30.0518 71.0529 32.5518 75.0529C27.5518 76.0529 20.5518 75.5529 16.0518 75.5529C13.3592 75.5529 12.0518 73.2195 12.0518 72.0529C11.5518 69.0529 12.8016 65.8862 14.4265 64.5529Z" stroke="black" stroke-width="0.5"/>
<path d="M12.0518 71.5529C20.0518 70.053 23.5518 72.6815 26.5518 74.1815M13.5518 74.553L31.0518 74.053" stroke="black" stroke-width="0.5"/>
<path d="M22.5498 83.0527H32.0498C34.0498 83.0527 35.5498 81.0527 35.0498 80.0527M38.5498 80.0527V84.5527" stroke="black" stroke-width="0.5"/>
<path d="M22.5517 81.5532C18.0517 81.5532 13.5517 82.0532 2.0517 79.0532V77.0532L6.0517 75.0532V73.5532L2.0517 73.0532C1.55078 71.553 0.550977 68.553 2.55097 66.053C2.05122 58.053 2.55122 51.553 4.5517 48.5527C37.0517 29.0531 59.0517 35.0532 85.0517 30.5532C163.052 -24.4469 245.052 12.553 282.052 27.0532L295.552 29.053L296.052 36.053V39.053C297.55 44.053 298.885 48.553 297.552 50.553C300.052 51.553 302.552 54.7196 302.552 56.553L300.552 66.553C301.004 77.4009 298.596 77.6252 289.264 77.9376C288.273 77.9708 286.204 78.005 285.052 78.053V79.553L260.052 79.984M22.5517 81.5532V84.5532H40.55L40.0517 80.0532M22.5517 81.5532V80.0532H40.0517M40.0517 80.0532C37.0517 38.5532 90.5517 41.5532 87.0517 80.5532V83.053H213.552C207.552 39.553 262.052 39.553 260.052 79.984M259.55 79.984H260.052" stroke="black"/>
</svg>
