<svg width="303" height="95" viewBox="0 0 303 95" fill="none" xmlns="http://www.w3.org/2000/svg">
<circle cx="62.876" cy="73.8611" r="20.5" fill="#EFC7D3" stroke="black"/>
<circle cx="235.876" cy="73.8611" r="20.5" fill="#EFC7D3" stroke="black"/>
<path d="M132.874 12.3609L131.374 8.86094C171.374 0.861052 192.874 1.36108 231.874 12.861L228.374 17.361C208.374 9.36099 190.374 8.36099 174.374 7.86106C171.874 7.36106 167.874 7.36102 165.374 7.86094C155.374 7.86106 143.374 9.36106 132.874 12.3609Z" fill="#EDADBF" stroke="black" stroke-width="0.5"/>
<path d="M131.374 8.86113L130.874 7.36113C166.874 -3.63892 199.374 0.360958 234.874 9.36113L231.874 12.8611C191.874 0.361084 165.874 1.86108 131.374 8.86113Z" fill="#EDADBF" stroke="black" stroke-width="0.5"/>
<path d="M131.374 8.86095C182.874 -2.63908 211.374 7.36096 231.874 12.8609" stroke="black" stroke-width="0.5"/>
<path d="M170.876 29.8611L174.376 7.86108C207.876 8.86108 219.376 14.3611 223.876 15.8611L226.359 27.8611C199.369 27.8617 181.874 29.3612 170.876 29.8611Z" fill="#EDADBF"/>
<path d="M226.876 30.3611L223.876 15.8611C219.376 14.3611 207.876 8.86108 174.376 7.86108L170.876 29.8611C181.876 29.3611 199.376 27.8611 226.376 27.8611" stroke="black" stroke-width="0.5"/>
<path d="M165.376 7.86108C132.376 8.86108 112.376 17.8611 93.376 35.3611L95.876 33.3611L159.876 30.3611L165.376 7.86108Z" fill="#EDADBF" stroke="black" stroke-width="0.5"/>
<path d="M239.874 22.3611C236.207 19.6944 230.374 17.3611 223.874 15.8611L226.374 27.8611H232.874C235.874 26.3611 238.874 24.1298 239.874 22.3611Z" fill="#EDADBF" stroke="black" stroke-width="0.5"/>
<path d="M96.876 78.3611H163.876L198.376 76.8611H212.876L213.376 82.3611H199.376H98.376H86.876V78.3611H96.876Z" fill="#EDADBF"/>
<path d="M96.876 78.3611H163.876L198.376 76.8611M96.876 78.3611C96.876 79.8611 97.376 80.8611 98.376 82.3611M96.876 78.3611H86.876V82.3611H98.376M198.376 76.8611L199.376 82.3611M198.376 76.8611H212.876L213.376 82.3611H199.376M199.376 82.3611H98.376" stroke="black" stroke-width="0.5"/>
<path d="M96.8751 78.3611C92.376 73.8611 89.376 51.8611 93.3751 35.3611L165.376 31.3611C161.376 36.3611 160.376 70.3611 163.876 78.3611H96.8751Z" fill="#EDADBF" stroke="black" stroke-width="0.5"/>
<path d="M228.876 30.3611L165.376 31.3611C161.376 36.3611 160.376 70.3611 163.876 78.3611L198.376 76.8611C202.876 75.3611 209.376 69.8611 228.876 30.3611Z" fill="#EDADBF" stroke="black" stroke-width="0.5"/>
<path d="M170.876 29.8612C166.376 30.3612 162.876 30.3612 159.876 30.3612L165.376 7.86116C168.376 7.36108 171.376 7.36108 174.376 7.86116L170.876 29.8612Z" fill="#EDADBF" stroke="black" stroke-width="0.5"/>
<path d="M99.376 31.8611C103.876 37.3611 110.876 33.8611 114.876 32.3611C115.876 16.861 102.876 24.861 99.376 31.8611Z" fill="#EDADBF" stroke="black" stroke-width="0.5"/>
<path d="M234.874 9.36108L231.874 12.8611C248.874 18.3611 259.374 21.3611 271.874 27.8611H273.374L281.374 26.3611C266.374 19.8611 258.874 17.3611 234.874 9.36108Z" fill="#EDADBF" stroke="black" stroke-width="0.5"/>
<path d="M271.874 27.8611C261.374 22.3611 242.374 15.8611 231.874 12.8611L229.874 15.3611L244.874 22.8611C243.374 25.3611 239.374 27.3611 233.374 30.0611C245.374 29.3611 262.374 28.3611 271.874 27.8611Z" fill="#EDADBF" stroke="black" stroke-width="0.5"/>
<path d="M277.376 34.1611L283.374 31.8611L272.875 27.8611L228.875 30.3611C221.375 45.3611 206.375 75.8611 198.375 76.8611H212.875C211.375 65.8611 220.875 42.3611 245.876 51.3611C256.376 45.8611 266.376 40.3611 277.376 34.1611Z" fill="#EDADBF" stroke="black" stroke-width="0.5"/>
<path d="M278.374 33.8611C266.374 40.3611 256.374 45.8611 245.874 51.3611C250.374 54.3611 260.874 60.3611 259.874 79.3611L284.874 78.8611V77.3611C293.374 76.3611 301.874 79.8611 300.374 65.8611L302.374 55.8611C302.374 54.3611 299.874 50.3611 297.374 49.8611C298.874 47.3611 295.874 38.3611 295.874 38.3611V36.8611L291.874 33.8611L286.874 32.3611L283.374 31.8611L278.374 33.8611Z" fill="#EDADBF" stroke="black" stroke-width="0.5"/>
<path d="M281.374 26.3611L272.874 27.8611L283.374 31.8611C292.874 32.8611 291.873 34.3611 295.868 36.7813L295.374 28.3611L281.374 26.3611Z" fill="#EDADBF"/>
<path d="M295.874 36.8611L295.868 36.7813M295.868 36.7813L295.374 28.3611L281.374 26.3611L272.874 27.8611L283.374 31.8611C292.874 32.8611 291.873 34.3611 295.868 36.7813Z" stroke="black" stroke-width="0.5"/>
<path d="M294.376 36.3613C293.876 33.8612 282.876 33.6611 277.376 34.1611" stroke="black" stroke-width="0.5"/>
<path d="M300.376 66.3611L260.876 68.3611C260.376 63.3611 258.209 59.1944 256.376 57.3611L302.376 54.8611M300.876 52.3611C289.876 50.8611 278.876 46.0611 266.876 40.0611M228.876 30.3611L272.876 27.8611L281.376 26.3611" stroke="black" stroke-width="0.5"/>
<path d="M290.876 40.3611C290.876 38.3611 289.876 34.3611 286.376 32.3611C288.597 32.3611 291.974 33.4015 294.485 35.7711C294.949 37.3011 293.876 40.8611 290.834 42.3611C290.821 41.7708 290.876 41.0854 290.876 40.3611Z" fill="#EDADBF"/>
<path d="M272.876 42.8611C279.872 43.2109 285.889 43.316 291.269 43.8611M297.876 44.8611C295.773 44.4104 293.58 44.0952 291.269 43.8611M295.876 37.3611C295.458 36.776 294.989 36.2467 294.485 35.7711M291.269 43.8611C290.943 43.5163 290.849 42.9933 290.834 42.3611M290.834 42.3611C290.821 41.7708 290.876 41.0854 290.876 40.3611C290.876 38.3611 289.876 34.3611 286.376 32.3611C288.597 32.3611 291.974 33.4015 294.485 35.7711M290.834 42.3611C293.876 40.8611 294.949 37.3011 294.485 35.7711" stroke="black" stroke-width="0.5"/>
<path d="M290.876 40.3611C286.376 40.3611 284.376 36.3611 283.376 33.8611" stroke="black" stroke-width="0.5"/>
<path d="M132.874 12.4611C119.374 16.4611 107.374 22.3611 93.374 35.3611C100.374 23.3611 115.874 13.8611 131.374 8.86108L132.874 12.4611Z" stroke="black" stroke-width="0.5"/>
<path d="M131.374 8.86108C111.374 14.5351 93.374 31.8611 85.374 29.8611C98.374 20.3611 114.374 11.8611 130.874 7.36108L131.374 8.86108Z" stroke="black" stroke-width="0.5"/>
<path d="M10.3747 47.861H4.37469C1.87402 51.861 1.87402 61.861 2.37469 65.361C0.874023 66.361 0.874621 70.861 1.87469 72.361L5.87469 72.861V74.361L1.87469 76.361V78.361C5.87469 79.361 14.3747 81.361 22.3747 80.861V79.361H39.8747C39.208 70.861 40.8747 60.361 49.8747 53.361C47.3747 49.361 40.3747 44.861 37.3747 44.361C27.3747 43.361 12.3747 45.861 10.3747 47.861Z" stroke="black" stroke-width="0.5"/>
<path d="M93.376 35.3611C75.5426 36.1944 43.876 41.0611 33.376 44.0611L37.376 44.3611C42.376 45.8611 47.876 50.1944 49.876 53.3611C62.875 43.8611 88.375 50.8611 86.875 78.3611H96.875C89.875 67.3611 90.875 45.3611 93.376 35.3611Z" stroke="black" stroke-width="0.5"/>
<path d="M10.374 47.8611H4.37402C36.8742 28.361 58.8743 34.3611 84.874 29.8611L93.8743 35.3611C76.8743 36.3611 47.874 39.8611 33.874 44.0611C25.874 43.8611 11.874 45.8611 10.374 47.8611Z" stroke="black" stroke-width="0.5"/>
<path d="M37.3755 44.3612C29.8755 43.3611 12.8755 45.3611 10.3755 47.8612C9.57548 50.2611 12.7088 53.1944 14.3755 54.3611C23.8755 55.8611 37.3755 49.8611 37.3755 44.3612Z" stroke="black" stroke-width="0.5"/>
<path d="M4.37472 47.8611C11.3747 48.8611 5.37472 59.3611 2.37472 64.3611C1.87465 57.3611 2.37451 51.8611 4.37472 47.8611Z" stroke="black" stroke-width="0.5"/>
<path d="M22.374 83.8611V79.3611H39.874L40.374 83.8611H22.374Z" stroke="black" stroke-width="0.5"/>
<path d="M2.87598 65.3608C4.37598 67.8608 6.37598 71.0275 5.87598 72.8608M22.376 79.3608C11.876 79.8608 7.37598 75.8608 8.37598 72.3608C8.87598 71.8608 10.376 70.3608 11.376 70.3608" stroke="black" stroke-width="0.5"/>
<path d="M6.37598 65.361C8.62592 64.861 11.5008 64.236 14.2508 63.861M14.2508 63.861C17.0008 63.486 19.6259 63.361 21.376 63.861C24.376 65.361 29.876 70.361 32.376 74.361C27.376 75.361 20.376 74.861 15.876 74.861C13.1834 74.861 11.876 72.5276 11.876 71.361C11.376 68.361 12.6258 65.1943 14.2508 63.861Z" stroke="black" stroke-width="0.5"/>
<path d="M11.876 70.861C19.876 69.3611 23.376 71.9896 26.376 73.4896M13.376 73.8611L30.876 73.3611" stroke="black" stroke-width="0.5"/>
<path d="M22.374 82.3608H31.874C33.874 82.3608 35.374 80.3608 34.874 79.3608M38.374 79.3608V83.8608" stroke="black" stroke-width="0.5"/>
<path d="M22.3759 80.8613C17.8759 80.8613 13.3759 81.3613 1.87592 78.3613V76.3613L5.87592 74.3613V72.8613L1.87592 72.3613C1.375 70.8611 0.375196 67.8611 2.37519 65.3611C1.87543 57.3611 2.37543 50.8611 4.37592 47.8608C36.8759 28.3612 58.8759 34.3613 84.8759 29.8613C162.876 -25.1388 244.876 11.8611 281.876 26.3613L295.376 28.3611L295.876 35.3611V38.3611C297.374 43.3611 298.709 47.8611 297.376 49.8611C299.876 50.8611 302.376 54.0278 302.376 55.8611L300.376 65.8611C300.828 76.709 298.42 76.9333 289.088 77.2457C288.097 77.2789 286.028 77.3131 284.876 77.3611V78.8611L259.876 79.2921M22.3759 80.8613V83.8613H40.3743L39.8759 79.3613M22.3759 80.8613V79.3613H39.8759M39.8759 79.3613C36.8759 37.8613 90.3759 40.8613 86.8759 79.8613V82.3611H213.376C207.376 38.8611 261.876 38.8611 259.876 79.2921M259.374 79.2921H259.876" stroke="black"/>
</svg>
