<svg width="303" height="96" viewBox="0 0 303 96" fill="none" xmlns="http://www.w3.org/2000/svg">
<circle cx="62.2725" cy="74.1995" r="20.5" fill="#E56E90" stroke="black"/>
<circle cx="235.272" cy="74.1995" r="20.5" fill="#E56E90" stroke="black"/>
<path d="M132.271 12.6993L130.771 9.19932C170.771 1.19943 192.271 1.69946 231.271 13.1994L227.771 17.6994C207.771 9.69937 189.771 8.69937 173.771 8.19944C171.271 7.69944 167.271 7.6994 164.771 8.19932C154.771 8.19944 142.771 9.69944 132.271 12.6993Z" fill="#EDADBF" stroke="black" stroke-width="0.5"/>
<path d="M130.771 9.19951L130.271 7.69951C166.271 -3.30054 198.771 0.699337 234.271 9.69951L231.271 13.1995C191.271 0.699463 165.271 2.19946 130.771 9.19951Z" fill="#EDADBF" stroke="black" stroke-width="0.5"/>
<path d="M130.771 9.19933C182.271 -2.3007 210.771 7.69934 231.271 13.1993" stroke="black" stroke-width="0.5"/>
<path d="M170.272 30.1995L173.772 8.19946C207.272 9.19946 218.772 14.6995 223.272 16.1995L225.755 28.1995C198.765 28.2001 181.27 29.6996 170.272 30.1995Z" fill="#EDADBF"/>
<path d="M226.272 30.6995L223.272 16.1995C218.772 14.6995 207.272 9.19946 173.772 8.19946L170.272 30.1995C181.272 29.6995 198.772 28.1995 225.772 28.1995" stroke="black" stroke-width="0.5"/>
<path d="M164.772 8.19946C131.772 9.19946 111.772 18.1995 92.7725 35.6995L95.2725 33.6995L159.272 30.6995L164.772 8.19946Z" fill="#EDADBF" stroke="black" stroke-width="0.5"/>
<path d="M239.271 22.6995C235.604 20.0328 229.771 17.6995 223.271 16.1995L225.771 28.1995H232.271C235.271 26.6995 238.271 24.4682 239.271 22.6995Z" fill="#EDADBF" stroke="black" stroke-width="0.5"/>
<path d="M96.2725 78.6995H163.272L197.772 77.1995H212.272L212.772 82.6995H198.772H97.7725H86.2725V78.6995H96.2725Z" fill="#EDADBF"/>
<path d="M96.2725 78.6995H163.272L197.772 77.1995M96.2725 78.6995C96.2725 80.1995 96.7725 81.1995 97.7725 82.6995M96.2725 78.6995H86.2725V82.6995H97.7725M197.772 77.1995L198.772 82.6995M197.772 77.1995H212.272L212.772 82.6995H198.772M198.772 82.6995H97.7725" stroke="black" stroke-width="0.5"/>
<path d="M96.2716 78.6995C91.7725 74.1995 88.7725 52.1995 92.7716 35.6995L164.772 31.6995C160.772 36.6995 159.772 70.6995 163.272 78.6995H96.2716Z" fill="#EDADBF" stroke="black" stroke-width="0.5"/>
<path d="M228.272 30.6995L164.772 31.6995C160.773 36.6995 159.773 70.6995 163.272 78.6995L197.772 77.1995C202.272 75.6995 208.772 70.1995 228.272 30.6995Z" fill="#EDADBF" stroke="black" stroke-width="0.5"/>
<path d="M170.272 30.1995C165.772 30.6995 162.272 30.6995 159.272 30.6995L164.772 8.19954C167.772 7.69946 170.772 7.69946 173.772 8.19954L170.272 30.1995Z" fill="#EDADBF" stroke="black" stroke-width="0.5"/>
<path d="M98.7725 32.1995C103.272 37.6995 110.272 34.1995 114.272 32.6995C115.272 17.1994 102.272 25.1993 98.7725 32.1995Z" fill="#EDADBF" stroke="black" stroke-width="0.5"/>
<path d="M234.271 9.69946L231.271 13.1995C248.271 18.6995 258.771 21.6995 271.271 28.1995H272.771L280.771 26.6995C265.771 20.1995 258.271 17.6995 234.271 9.69946Z" fill="#EDADBF" stroke="black" stroke-width="0.5"/>
<path d="M271.271 28.1995C260.771 22.6995 241.771 16.1995 231.271 13.1995L229.271 15.6995L244.271 23.1995C242.771 25.6995 238.771 27.6995 232.771 30.3995C244.771 29.6995 261.771 28.6995 271.271 28.1995Z" fill="#EDADBF" stroke="black" stroke-width="0.5"/>
<path d="M276.772 34.4995L282.771 32.1995L272.271 28.1995L228.271 30.6995C220.771 45.6995 205.771 76.1995 197.771 77.1995H212.271C210.771 66.1995 220.271 42.6995 245.272 51.6995C255.772 46.1995 265.772 40.6995 276.772 34.4995Z" fill="#EDADBF" stroke="black" stroke-width="0.5"/>
<path d="M277.771 34.1995C265.771 40.6995 255.771 46.1995 245.271 51.6995C249.771 54.6995 260.271 60.6995 259.271 79.6995L284.271 79.1995V77.6995C292.771 76.6995 301.271 80.1995 299.771 66.1995L301.771 56.1995C301.771 54.6995 299.271 50.6995 296.771 50.1995C298.271 47.6995 295.271 38.6995 295.271 38.6995V37.1995L291.271 34.1995L286.271 32.6995L282.771 32.1995L277.771 34.1995Z" fill="#EDADBF" stroke="black" stroke-width="0.5"/>
<path d="M280.771 26.6995L272.271 28.1995L282.771 32.1995C292.271 33.1995 291.269 34.6995 295.265 37.1196L294.771 28.6995L280.771 26.6995Z" fill="#EDADBF"/>
<path d="M295.271 37.1995L295.265 37.1196M295.265 37.1196L294.771 28.6995L280.771 26.6995L272.271 28.1995L282.771 32.1995C292.271 33.1995 291.269 34.6995 295.265 37.1196Z" stroke="black" stroke-width="0.5"/>
<path d="M293.772 36.6997C293.272 34.1996 282.272 33.9995 276.772 34.4995" stroke="black" stroke-width="0.5"/>
<path d="M299.772 66.6995L260.272 68.6995C259.772 63.6995 257.606 59.5328 255.772 57.6995L301.772 55.1995M300.272 52.6995C289.272 51.1995 278.272 46.3995 266.272 40.3995M228.272 30.6995L272.272 28.1995L280.772 26.6995" stroke="black" stroke-width="0.5"/>
<path d="M290.272 40.6995C290.272 38.6995 289.272 34.6995 285.772 32.6995C287.993 32.6995 291.37 33.7399 293.881 36.1094C294.345 37.6395 293.272 41.1995 290.231 42.6995C290.217 42.1092 290.272 41.4238 290.272 40.6995Z" fill="#EDADBF"/>
<path d="M272.272 43.1995C279.268 43.5492 285.285 43.6543 290.666 44.1995M297.272 45.1995C295.169 44.7488 292.976 44.4336 290.666 44.1995M295.272 37.6995C294.855 37.1143 294.385 36.5851 293.881 36.1094M290.666 44.1995C290.339 43.8547 290.245 43.3317 290.231 42.6995M290.231 42.6995C290.217 42.1092 290.272 41.4238 290.272 40.6995C290.272 38.6995 289.272 34.6995 285.772 32.6995C287.993 32.6995 291.37 33.7399 293.881 36.1094M290.231 42.6995C293.272 41.1995 294.345 37.6395 293.881 36.1094" stroke="black" stroke-width="0.5"/>
<path d="M290.272 40.6995C285.772 40.6995 283.772 36.6995 282.772 34.1995" stroke="black" stroke-width="0.5"/>
<path d="M132.271 12.7994C118.771 16.7994 106.771 22.6995 92.7705 35.6995C99.7705 23.6995 115.271 14.1995 130.771 9.19946L132.271 12.7994Z" fill="#EDADBF" stroke="black" stroke-width="0.5"/>
<path d="M130.771 9.19946C110.771 14.8735 92.7705 32.1995 84.7705 30.1995C97.7705 20.6995 113.771 12.1995 130.271 7.69946L130.771 9.19946Z" fill="#EDADBF" stroke="black" stroke-width="0.5"/>
<path d="M9.77118 48.1993H3.77118C1.27051 52.1993 1.27051 62.1993 1.77118 65.6993C0.270508 66.6993 0.271105 71.1993 1.27118 72.6993L5.27118 73.1993V74.6993L1.27118 76.6993V78.6993C5.27118 79.6993 13.7712 81.6993 21.7712 81.1993V79.6993H39.2712C38.6045 71.1993 40.2712 60.6993 49.2712 53.6993C46.7712 49.6993 39.7712 45.1993 36.7712 44.6993C26.7712 43.6993 11.7712 46.1993 9.77118 48.1993Z" fill="#EDADBF" stroke="black" stroke-width="0.5"/>
<path d="M92.7725 35.6995C74.9391 36.5328 43.2725 41.3995 32.7725 44.3995L36.7725 44.6995C41.7725 46.1995 47.2725 50.5328 49.2725 53.6995C62.2715 44.1995 87.7715 51.1995 86.2715 78.6995H96.2715C89.2715 67.6995 90.2715 45.6995 92.7725 35.6995Z" fill="#EDADBF" stroke="black" stroke-width="0.5"/>
<path d="M9.77051 48.1995H3.77051C36.2707 28.6994 58.2708 34.6995 84.2705 30.1995L93.2708 35.6995C76.2708 36.6995 47.2705 40.1995 33.2705 44.3995C25.2705 44.1995 11.2705 46.1995 9.77051 48.1995Z" fill="#EDADBF" stroke="black" stroke-width="0.5"/>
<path d="M36.772 44.6995C29.272 43.6995 12.272 45.6995 9.77196 48.1995C8.97196 50.5995 12.1053 53.5328 13.772 54.6995C23.272 56.1995 36.772 50.1995 36.772 44.6995Z" fill="#EDADBF" stroke="black" stroke-width="0.5"/>
<path d="M3.7712 48.1995C10.7712 49.1995 4.7712 59.6995 1.7712 64.6995C1.27113 57.6995 1.771 52.1995 3.7712 48.1995Z" fill="#EDADBF" stroke="black" stroke-width="0.5"/>
<path d="M21.7705 84.1995V79.6995H39.2705L39.7705 84.1995H21.7705Z" fill="#EDADBF" stroke="black" stroke-width="0.5"/>
<path d="M2.27246 65.6992C3.77246 68.1992 5.77246 71.3659 5.27246 73.1992M21.7725 79.6992C11.2725 80.1992 6.77246 76.1992 7.77246 72.6992C8.27246 72.1992 9.77246 70.6992 10.7725 70.6992" stroke="black" stroke-width="0.5"/>
<path d="M31.7725 74.6993C29.2725 70.6993 23.7725 65.6994 20.7725 64.1994C19.0224 63.6994 16.3973 63.8244 13.6472 64.1994C12.0223 65.5327 10.7725 68.6993 11.2725 71.6993C11.2725 72.866 12.5799 75.1993 15.2725 75.1993C19.7725 75.1993 26.7725 75.6993 31.7725 74.6993Z" fill="#EDADBF"/>
<path d="M5.77246 65.6994C8.0224 65.1994 10.8973 64.5744 13.6472 64.1994M13.6472 64.1994C16.3973 63.8244 19.0224 63.6994 20.7725 64.1994C23.7725 65.6994 29.2725 70.6993 31.7725 74.6993C26.7725 75.6993 19.7725 75.1993 15.2725 75.1993C12.5799 75.1993 11.2725 72.866 11.2725 71.6993C10.7725 68.6993 12.0223 65.5327 13.6472 64.1994Z" stroke="black" stroke-width="0.5"/>
<path d="M11.2725 71.1994C19.2725 69.6995 22.7725 72.3279 25.7725 73.8279M12.7725 74.1995L30.2725 73.6995" stroke="black" stroke-width="0.5"/>
<path d="M21.7705 82.6992H31.2705C33.2705 82.6992 34.7705 80.6992 34.2705 79.6992M37.7705 79.6992V84.1992" stroke="black" stroke-width="0.5"/>
<path d="M21.7724 81.1997C17.2724 81.1997 12.7724 81.6997 1.27241 78.6997V76.6997L5.27241 74.6997V73.1997L1.27241 72.6997C0.771484 71.1995 -0.22832 68.1995 1.77168 65.6995C1.27192 57.6995 1.77192 51.1995 3.77241 48.1992C36.2724 28.6996 58.2724 34.6997 84.2724 30.1997C162.272 -24.8005 244.272 12.1994 281.272 26.6996L294.772 28.6995L295.272 35.6995V38.6995C296.771 43.6995 298.106 48.1995 296.772 50.1995C299.272 51.1995 301.772 54.3661 301.772 56.1995L299.772 66.1995C300.224 77.0474 297.816 77.2717 288.485 77.5841C287.494 77.6173 285.425 77.6515 284.272 77.6995V79.1995L259.272 79.6305M21.7724 81.1997V84.1997H39.7708L39.2724 79.6997M21.7724 81.1997V79.6997H39.2724M39.2724 79.6997C36.2724 38.1997 89.7724 41.1997 86.2724 80.1997V82.6995H212.772C206.772 39.1995 261.272 39.1995 259.272 79.6305M258.771 79.6305H259.272" stroke="black"/>
</svg>
