<svg width="304" height="96" viewBox="0 0 304 96" fill="none" xmlns="http://www.w3.org/2000/svg">
<circle cx="63.0742" cy="74.0454" r="20.5" fill="#EDADBF" stroke="black"/>
<circle cx="236.074" cy="74.0454" r="20.5" fill="#EDADBF" stroke="black"/>
<path d="M133.072 12.5453L131.572 9.04527C171.572 1.04538 193.072 1.54541 232.072 13.0454L228.572 17.5454C208.572 9.54532 190.572 8.54532 174.572 8.04539C172.072 7.54539 168.072 7.54535 165.572 8.04527C155.572 8.04539 143.572 9.54539 133.072 12.5453Z" fill="#E56E90" stroke="black" stroke-width="0.5"/>
<path d="M131.572 9.04545L131.072 7.54545C167.072 -3.45459 199.572 0.545284 235.072 9.54546L232.072 13.0455C192.072 0.54541 166.072 2.04541 131.572 9.04545Z" fill="#E56E90" stroke="black" stroke-width="0.5"/>
<path d="M131.572 9.04552C183.072 -2.4545 211.572 7.54553 232.072 13.0455" stroke="black" stroke-width="0.5"/>
<path d="M171.074 30.0454L174.574 8.04541C208.074 9.04541 219.574 14.5454 224.074 16.0454L226.557 28.0454C199.567 28.046 182.072 29.5455 171.074 30.0454Z" fill="#E56E90"/>
<path d="M227.074 30.5454L224.074 16.0454C219.574 14.5454 208.074 9.04541 174.574 8.04541L171.074 30.0454C182.074 29.5454 199.574 28.0454 226.574 28.0454" stroke="black" stroke-width="0.5"/>
<path d="M165.574 8.04541C132.574 9.04541 112.574 18.0454 93.5742 35.5454L96.0742 33.5454L160.074 30.5454L165.574 8.04541Z" fill="#E56E90" stroke="black" stroke-width="0.5"/>
<path d="M240.072 22.5454C236.406 19.8787 230.572 17.5454 224.072 16.0454L226.572 28.0454H233.072C236.072 26.5454 239.072 24.3141 240.072 22.5454Z" fill="#E56E90" stroke="black" stroke-width="0.5"/>
<path d="M97.0742 78.5454H164.074L198.574 77.0454H213.074L213.574 82.5454H199.574H98.5742H87.0742V78.5454H97.0742Z" fill="#E56E90"/>
<path d="M97.0742 78.5454H164.074L198.574 77.0454M97.0742 78.5454C97.0742 80.0454 97.5742 81.0454 98.5742 82.5454M97.0742 78.5454H87.0742V82.5454H98.5742M198.574 77.0454L199.574 82.5454M198.574 77.0454H213.074L213.574 82.5454H199.574M199.574 82.5454H98.5742" stroke="black" stroke-width="0.5"/>
<path d="M97.0733 78.5454C92.5742 74.0454 89.5743 52.0454 93.5733 35.5454L165.574 31.5454C161.574 36.5454 160.574 70.5454 164.074 78.5454H97.0733Z" fill="#E56E90" stroke="black" stroke-width="0.5"/>
<path d="M229.074 30.5454L165.574 31.5454C161.574 36.5454 160.574 70.5454 164.074 78.5454L198.574 77.0454C203.074 75.5454 209.574 70.0454 229.074 30.5454Z" fill="#E56E90" stroke="black" stroke-width="0.5"/>
<path d="M171.074 30.0455C166.574 30.5455 163.074 30.5455 160.074 30.5455L165.574 8.04548C168.574 7.54541 171.574 7.54541 174.574 8.04548L171.074 30.0455Z" fill="#E56E90" stroke="black" stroke-width="0.5"/>
<path d="M99.5742 32.0457C104.074 37.5457 111.074 34.0457 115.074 32.5457C116.074 17.0455 103.074 25.0455 99.5742 32.0457Z" fill="#E56E90" stroke="black" stroke-width="0.5"/>
<path d="M235.072 9.54541L232.072 13.0454C249.072 18.5454 259.572 21.5454 272.072 28.0454H273.572L281.572 26.5454C266.572 20.0454 259.072 17.5454 235.072 9.54541Z" fill="#EDADBF" stroke="black" stroke-width="0.5"/>
<path d="M272.072 28.0454C261.572 22.5454 242.572 16.0454 232.072 13.0454L230.072 15.5454L245.072 23.0454C243.572 25.5454 239.572 27.5454 233.572 30.2454C245.572 29.5454 262.572 28.5454 272.072 28.0454Z" fill="#EDADBF" stroke="black" stroke-width="0.5"/>
<path d="M277.574 34.3454L283.573 32.0454L273.073 28.0454L229.073 30.5454C221.573 45.5454 206.573 76.0454 198.573 77.0454H213.073C211.573 66.0454 221.073 42.5454 246.074 51.5454C256.574 46.0454 266.574 40.5454 277.574 34.3454Z" fill="#EDADBF" stroke="black" stroke-width="0.5"/>
<path d="M278.572 34.0454C266.572 40.5454 256.572 46.0454 246.072 51.5454C250.572 54.5454 261.072 60.5454 260.072 79.5454L285.072 79.0454V77.5454C293.572 76.5454 302.072 80.0454 300.572 66.0454L302.572 56.0454C302.572 54.5454 300.072 50.5454 297.572 50.0454C299.072 47.5454 296.072 38.5454 296.072 38.5454V37.0454L292.072 34.0454L287.072 32.5454L283.572 32.0454L278.572 34.0454Z" fill="#EDADBF" stroke="black" stroke-width="0.5"/>
<path d="M281.572 26.5454L273.072 28.0454L283.572 32.0454C293.072 33.0454 292.071 34.5454 296.066 36.9656L295.572 28.5454L281.572 26.5454Z" fill="#EDADBF"/>
<path d="M296.072 37.0454L296.066 36.9656M296.066 36.9656L295.572 28.5454L281.572 26.5454L273.072 28.0454L283.572 32.0454C293.072 33.0454 292.071 34.5454 296.066 36.9656Z" stroke="black" stroke-width="0.5"/>
<path d="M294.574 36.5456C294.074 34.0455 283.074 33.8454 277.574 34.3454" stroke="black" stroke-width="0.5"/>
<path d="M300.574 66.5454L261.074 68.5454C260.574 63.5454 258.408 59.3787 256.574 57.5454L302.574 55.0454M301.074 52.5454C290.074 51.0454 279.074 46.2454 267.074 40.2454M229.074 30.5454L273.074 28.0454L281.574 26.5454" stroke="black" stroke-width="0.5"/>
<path d="M291.074 40.5454C291.074 38.5454 290.074 34.5454 286.574 32.5454C288.795 32.5454 292.172 33.5858 294.683 35.9554C295.147 37.4854 294.074 41.0454 291.032 42.5454C291.019 41.9551 291.074 41.2697 291.074 40.5454Z" fill="#EDADBF"/>
<path d="M273.074 43.0454C280.07 43.3952 286.087 43.5003 291.467 44.0454M298.074 45.0454C295.971 44.5948 293.778 44.2795 291.467 44.0454M296.074 37.5454C295.656 36.9603 295.187 36.4311 294.683 35.9554M291.467 44.0454C291.141 43.7006 291.047 43.1776 291.032 42.5454M291.032 42.5454C291.019 41.9551 291.074 41.2697 291.074 40.5454C291.074 38.5454 290.074 34.5454 286.574 32.5454C288.795 32.5454 292.172 33.5858 294.683 35.9554M291.032 42.5454C294.074 41.0454 295.147 37.4854 294.683 35.9554" stroke="black" stroke-width="0.5"/>
<path d="M291.074 40.5454C286.574 40.5454 284.574 36.5454 283.574 34.0454" stroke="black" stroke-width="0.5"/>
<path d="M133.072 12.6454C119.572 16.6454 107.572 22.5454 93.5723 35.5454C100.572 23.5454 116.072 14.0454 131.572 9.04541L133.072 12.6454Z" fill="#EDADBF" stroke="black" stroke-width="0.5"/>
<path d="M131.572 9.04541C111.572 14.7194 93.5723 32.0454 85.5723 30.0454C98.5723 20.5454 114.572 12.0454 131.072 7.54541L131.572 9.04541Z" fill="#EDADBF" stroke="black" stroke-width="0.5"/>
<path d="M10.5729 48.0453H4.57293C2.07227 52.0453 2.07227 62.0453 2.57293 65.5453C1.07227 66.5453 1.07286 71.0453 2.07293 72.5453L6.07293 73.0453V74.5453L2.07293 76.5453V78.5453C6.07293 79.5453 14.5729 81.5453 22.5729 81.0453V79.5453H40.0729C39.4063 71.0453 41.0729 60.5453 50.0729 53.5453C47.5729 49.5453 40.5729 45.0453 37.5729 44.5453C27.5729 43.5453 12.5729 46.0453 10.5729 48.0453Z" fill="#EDADBF" stroke="black" stroke-width="0.5"/>
<path d="M93.5742 35.5454C75.7409 36.3787 44.0742 41.2454 33.5742 44.2454L37.5742 44.5454C42.5742 46.0454 48.0742 50.3787 50.0742 53.5454C63.0732 44.0454 88.5732 51.0454 87.0732 78.5454H97.0732C90.0732 67.5454 91.0732 45.5454 93.5742 35.5454Z" fill="#EDADBF" stroke="black" stroke-width="0.5"/>
<path d="M10.5723 48.0455H4.57227C37.0724 28.5454 59.0725 34.5454 85.0723 30.0454L94.0725 35.5454C77.0725 36.5454 48.0723 40.0454 34.0723 44.2454C26.0723 44.0454 12.0723 46.0454 10.5723 48.0455Z" fill="#EDADBF" stroke="black" stroke-width="0.5"/>
<path d="M37.5737 44.5455C30.0737 43.5454 13.0737 45.5454 10.5737 48.0455C9.77372 50.4454 12.9071 53.3787 14.5737 54.5454C24.0737 56.0454 37.5737 50.0454 37.5737 44.5455Z" fill="#EDADBF" stroke="black" stroke-width="0.5"/>
<path d="M4.57296 48.0454C11.573 49.0454 5.57296 59.5454 2.57296 64.5454C2.07289 57.5454 2.57275 52.0454 4.57296 48.0454Z" fill="#EDADBF" stroke="black" stroke-width="0.5"/>
<path d="M22.5723 84.0454V79.5454H40.0723L40.5723 84.0454H22.5723Z" fill="#EDADBF" stroke="black" stroke-width="0.5"/>
<path d="M3.07422 65.5454C4.57422 68.0454 6.57422 71.2121 6.07422 73.0454M22.5742 79.5454C12.0742 80.0454 7.57422 76.0454 8.57422 72.5454C9.07422 72.0454 10.5742 70.5454 11.5742 70.5454" stroke="black" stroke-width="0.5"/>
<path d="M32.5742 74.5455C30.0742 70.5455 24.5742 65.5456 21.5742 64.0456C19.8242 63.5456 17.1991 63.6706 14.449 64.0456C12.8241 65.3789 11.5742 68.5455 12.0742 71.5455C12.0742 72.7122 13.3816 75.0455 16.0742 75.0455C20.5742 75.0455 27.5742 75.5455 32.5742 74.5455Z" fill="#EDADBF"/>
<path d="M6.57422 65.5456C8.82416 65.0456 11.6991 64.4206 14.449 64.0456M14.449 64.0456C17.1991 63.6706 19.8242 63.5456 21.5742 64.0456C24.5742 65.5456 30.0742 70.5455 32.5742 74.5455C27.5742 75.5455 20.5742 75.0455 16.0742 75.0455C13.3816 75.0455 12.0742 72.7122 12.0742 71.5455C11.5742 68.5455 12.8241 65.3789 14.449 64.0456Z" stroke="black" stroke-width="0.5"/>
<path d="M12.0742 71.0456C20.0742 69.5457 23.5742 72.1741 26.5742 73.6741M13.5742 74.0457L31.0742 73.5457" stroke="black" stroke-width="0.5"/>
<path d="M22.5723 82.5454H32.0723C34.0723 82.5454 35.5723 80.5454 35.0723 79.5454M38.5723 79.5454V84.0454" stroke="black" stroke-width="0.5"/>
<path d="M22.5742 81.0457C18.0742 81.0457 13.5742 81.5457 2.07416 78.5457V76.5457L6.07417 74.5456V73.0457L2.07416 72.5457C1.57324 71.0454 0.573438 68.0454 2.57343 65.5454C2.07368 57.5454 2.57368 51.0454 4.57417 48.0452C37.0742 28.5455 59.0742 34.5456 85.0742 30.0456C163.074 -24.9545 245.074 12.0454 282.074 26.5456L295.574 28.5454L296.074 35.5454V38.5454C297.573 43.5454 298.908 48.0454 297.574 50.0454C300.074 51.0454 302.574 54.2121 302.574 56.0454L300.574 66.0454C301.026 76.8933 298.618 77.1176 289.286 77.43C288.295 77.4632 286.226 77.4974 285.074 77.5454V79.0454L260.074 79.4764M22.5742 81.0457V84.0457H40.5725L40.0742 79.5457M22.5742 81.0457V79.5457H40.0742M40.0742 79.5457C37.0742 38.0457 90.5742 41.0457 87.0742 80.0457V82.5454H213.574C207.574 39.0454 262.074 39.0454 260.074 79.4764M259.573 79.4764H260.074" stroke="black"/>
</svg>
