<svg width="303" height="96" viewBox="0 0 303 96" fill="none" xmlns="http://www.w3.org/2000/svg">
<circle cx="62.249" cy="74.3838" r="20.5" fill="#E56E90" stroke="black"/>
<circle cx="235.249" cy="74.3838" r="20.5" fill="#E56E90" stroke="black"/>
<path d="M132.247 12.8836L130.747 9.38364C170.747 1.38376 192.247 1.88379 231.247 13.3837L227.747 17.8837C207.747 9.8837 189.747 8.8837 173.747 8.38377C171.247 7.88377 167.247 7.88373 164.747 8.38364C154.747 8.38377 142.747 9.88377 132.247 12.8836Z" fill="#E56E90" stroke="black" stroke-width="0.5"/>
<path d="M130.747 9.38383L130.247 7.88383C166.247 -3.11621 198.747 0.883663 234.247 9.88383L231.247 13.3838C191.247 0.883789 165.247 2.38379 130.747 9.38383Z" fill="#E56E90" stroke="black" stroke-width="0.5"/>
<path d="M130.747 9.3839C182.247 -2.11613 210.747 7.88391 231.247 13.3839" stroke="black" stroke-width="0.5"/>
<path d="M170.249 30.3838L173.749 8.38379C207.249 9.38379 218.749 14.8838 223.249 16.3838L225.732 28.3838C198.742 28.3844 181.247 29.8839 170.249 30.3838Z" fill="#E56E90"/>
<path d="M226.249 30.8838L223.249 16.3838C218.749 14.8838 207.249 9.38379 173.749 8.38379L170.249 30.3838C181.249 29.8838 198.749 28.3838 225.749 28.3838" stroke="black" stroke-width="0.5"/>
<path d="M164.749 8.38379C131.749 9.38379 111.749 18.3838 92.749 35.8838L95.249 33.8838L159.249 30.8838L164.749 8.38379Z" fill="#E56E90" stroke="black" stroke-width="0.5"/>
<path d="M239.247 22.8838C235.58 20.2171 229.747 17.8838 223.247 16.3838L225.747 28.3838H232.247C235.247 26.8838 238.247 24.6525 239.247 22.8838Z" fill="#E56E90" stroke="black" stroke-width="0.5"/>
<path d="M96.249 78.8838H163.249L197.749 77.3838H212.249L212.749 82.8838H198.749H97.749H86.249V78.8838H96.249Z" fill="#E56E90"/>
<path d="M96.249 78.8838H163.249L197.749 77.3838M96.249 78.8838C96.249 80.3838 96.749 81.3838 97.749 82.8838M96.249 78.8838H86.249V82.8838H97.749M197.749 77.3838L198.749 82.8838M197.749 77.3838H212.249L212.749 82.8838H198.749M198.749 82.8838H97.749" stroke="black" stroke-width="0.5"/>
<path d="M96.2482 78.8838C91.749 74.3838 88.7491 52.3838 92.7482 35.8838L164.749 31.8838C160.749 36.8838 159.749 70.8838 163.249 78.8838H96.2482Z" fill="#E56E90" stroke="black" stroke-width="0.5"/>
<path d="M228.249 30.8838L164.749 31.8838C160.749 36.8838 159.749 70.8838 163.249 78.8838L197.749 77.3838C202.249 75.8838 208.749 70.3838 228.249 30.8838Z" fill="#E56E90" stroke="black" stroke-width="0.5"/>
<path d="M170.249 30.3839C165.749 30.8839 162.249 30.8839 159.249 30.8839L164.749 8.38386C167.749 7.88379 170.749 7.88379 173.749 8.38386L170.249 30.3839Z" fill="#E56E90" stroke="black" stroke-width="0.5"/>
<path d="M98.749 32.384C103.249 37.884 110.249 34.384 114.249 32.884C115.249 17.3839 102.249 25.3839 98.749 32.384Z" fill="#E56E90" stroke="black" stroke-width="0.5"/>
<path d="M234.247 9.88379L231.247 13.3838C248.247 18.8838 258.747 21.8838 271.247 28.3838H272.747L280.747 26.8838C265.747 20.3838 258.247 17.8838 234.247 9.88379Z" fill="#E0426F" stroke="black" stroke-width="0.5"/>
<path d="M271.247 28.3838C260.747 22.8838 241.747 16.3838 231.247 13.3838L229.247 15.8838L244.247 23.3838C242.747 25.8838 238.747 27.8838 232.747 30.5838C244.747 29.8838 261.747 28.8838 271.247 28.3838Z" fill="#E0426F" stroke="black" stroke-width="0.5"/>
<path d="M276.749 34.6838L282.747 32.3838L272.248 28.3838L228.248 30.8838C220.748 45.8838 205.748 76.3838 197.748 77.3838H212.248C210.748 66.3838 220.248 42.8838 245.249 51.8838C255.749 46.3838 265.749 40.8838 276.749 34.6838Z" fill="#E0426F" stroke="black" stroke-width="0.5"/>
<path d="M277.747 34.3838C265.747 40.8838 255.747 46.3838 245.247 51.8838C249.747 54.8838 260.247 60.8838 259.247 79.8838L284.247 79.3838V77.8838C292.747 76.8838 301.247 80.3838 299.747 66.3838L301.747 56.3838C301.747 54.8838 299.247 50.8838 296.747 50.3838C298.247 47.8838 295.247 38.8838 295.247 38.8838V37.3838L291.247 34.3838L286.247 32.8838L282.747 32.3838L277.747 34.3838Z" fill="#E0426F" stroke="black" stroke-width="0.5"/>
<path d="M280.747 26.8838L272.247 28.3838L282.747 32.3838C292.247 33.3838 291.246 34.8838 295.241 37.304L294.747 28.8838L280.747 26.8838Z" fill="#E0426F"/>
<path d="M295.247 37.3838L295.241 37.304M295.241 37.304L294.747 28.8838L280.747 26.8838L272.247 28.3838L282.747 32.3838C292.247 33.3838 291.246 34.8838 295.241 37.304Z" stroke="black" stroke-width="0.5"/>
<path d="M293.749 36.884C293.249 34.3839 282.249 34.1838 276.749 34.6838" stroke="black" stroke-width="0.5"/>
<path d="M299.749 66.8838L260.249 68.8838C259.749 63.8838 257.582 59.7171 255.749 57.8838L301.749 55.3838M300.249 52.8838C289.249 51.3838 278.249 46.5838 266.249 40.5838M228.249 30.8838L272.249 28.3838L280.749 26.8838" stroke="black" stroke-width="0.5"/>
<path d="M290.249 40.8838C290.249 38.8838 289.249 34.8838 285.749 32.8838C287.97 32.8838 291.347 33.9242 293.858 36.2938C294.322 37.8238 293.249 41.3838 290.207 42.8838C290.194 42.2935 290.249 41.6081 290.249 40.8838Z" fill="#E0426F"/>
<path d="M272.249 43.3838C279.245 43.7336 285.262 43.8387 290.642 44.3838M297.249 45.3838C295.146 44.9331 292.953 44.6179 290.642 44.3838M295.249 37.8838C294.831 37.2987 294.362 36.7694 293.858 36.2938M290.642 44.3838C290.316 44.039 290.222 43.516 290.207 42.8838M290.207 42.8838C290.194 42.2935 290.249 41.6081 290.249 40.8838C290.249 38.8838 289.249 34.8838 285.749 32.8838C287.97 32.8838 291.347 33.9242 293.858 36.2938M290.207 42.8838C293.249 41.3838 294.322 37.8238 293.858 36.2938" stroke="black" stroke-width="0.5"/>
<path d="M290.249 40.8838C285.749 40.8838 283.749 36.8838 282.749 34.3838" stroke="black" stroke-width="0.5"/>
<path d="M132.247 12.9838C118.747 16.9838 106.747 22.8838 92.7471 35.8838C99.7471 23.8838 115.247 14.3838 130.747 9.38379L132.247 12.9838Z" fill="#E0426F" stroke="black" stroke-width="0.5"/>
<path d="M130.747 9.38379C110.747 15.0578 92.7471 32.3838 84.7471 30.3838C97.7471 20.8838 113.747 12.3838 130.247 7.88379L130.747 9.38379Z" fill="#E0426F" stroke="black" stroke-width="0.5"/>
<path d="M9.74774 48.3837H3.74774C1.24707 52.3837 1.24707 62.3837 1.74774 65.8837C0.24707 66.8837 0.247668 71.3837 1.24774 72.8837L5.24774 73.3837V74.8837L1.24774 76.8837V78.8837C5.24774 79.8837 13.7477 81.8837 21.7477 81.3837V79.8837H39.2477C38.5811 71.3837 40.2477 60.8837 49.2477 53.8837C46.7477 49.8837 39.7477 45.3837 36.7477 44.8837C26.7477 43.8837 11.7477 46.3837 9.74774 48.3837Z" fill="#E0426F" stroke="black" stroke-width="0.5"/>
<path d="M92.749 35.8838C74.9157 36.7171 43.249 41.5838 32.749 44.5838L36.749 44.8838C41.749 46.3838 47.249 50.7171 49.249 53.8838C62.248 44.3838 87.748 51.3838 86.248 78.8838H96.248C89.248 67.8838 90.248 45.8838 92.749 35.8838Z" fill="#E0426F" stroke="black" stroke-width="0.5"/>
<path d="M9.74707 48.3838H3.74707C36.2473 28.8837 58.2473 34.8838 84.2471 30.3838L93.2473 35.8838C76.2473 36.8838 47.2471 40.3838 33.2471 44.5838C25.2471 44.3838 11.2471 46.3838 9.74707 48.3838Z" fill="#E0426F" stroke="black" stroke-width="0.5"/>
<path d="M36.7485 44.8839C29.2485 43.8838 12.2485 45.8838 9.74852 48.3839C8.94852 50.7838 12.0819 53.7171 13.7485 54.8838C23.2485 56.3838 36.7485 50.3838 36.7485 44.8839Z" fill="#E0426F" stroke="black" stroke-width="0.5"/>
<path d="M3.74777 48.3838C10.7478 49.3838 4.74777 59.8838 1.74777 64.8838C1.2477 57.8838 1.74756 52.3838 3.74777 48.3838Z" fill="#E0426F" stroke="black" stroke-width="0.5"/>
<path d="M21.7471 84.3838V79.8838H39.2471L39.7471 84.3838H21.7471Z" fill="#E0426F" stroke="black" stroke-width="0.5"/>
<path d="M2.24902 65.8838C3.74902 68.3838 5.74902 71.5505 5.24902 73.3838M21.749 79.8838C11.249 80.3838 6.74902 76.3838 7.74902 72.8838C8.24902 72.3838 9.74902 70.8838 10.749 70.8838" stroke="black" stroke-width="0.5"/>
<path d="M31.749 74.8839C29.249 70.8839 23.749 65.884 20.749 64.384C18.999 63.884 16.3739 64.009 13.6238 64.384C11.9989 65.7173 10.749 68.8839 11.249 71.8839C11.249 73.0506 12.5564 75.3839 15.249 75.3839C19.749 75.3839 26.749 75.8839 31.749 74.8839Z" fill="#E0426F"/>
<path d="M5.74902 65.884C7.99897 65.384 10.8739 64.759 13.6238 64.384M13.6238 64.384C16.3739 64.009 18.999 63.884 20.749 64.384C23.749 65.884 29.249 70.8839 31.749 74.8839C26.749 75.8839 19.749 75.3839 15.249 75.3839C12.5564 75.3839 11.249 73.0506 11.249 71.8839C10.749 68.8839 11.9989 65.7173 13.6238 64.384Z" stroke="black" stroke-width="0.5"/>
<path d="M11.249 71.384C19.249 69.884 22.749 72.5125 25.749 74.0125M12.749 74.384L30.249 73.884" stroke="black" stroke-width="0.5"/>
<path d="M21.7471 82.8838H31.2471C33.2471 82.8838 34.7471 80.8838 34.2471 79.8838M37.7471 79.8838V84.3838" stroke="black" stroke-width="0.5"/>
<path d="M21.749 81.384C17.249 81.384 12.749 81.884 1.24897 78.884V76.884L5.24897 74.884V73.384L1.24897 72.884C0.748047 71.3838 -0.251757 68.3838 1.74824 65.8838C1.24848 57.8838 1.74848 51.3838 3.74897 48.3835C36.249 28.8839 58.249 34.884 84.249 30.384C162.249 -24.6161 244.249 12.3838 281.249 26.884L294.749 28.8838L295.249 35.8838V38.8838C296.747 43.8838 298.082 48.3838 296.749 50.3838C299.249 51.3838 301.749 54.5505 301.749 56.3838L299.749 66.3838C300.201 77.2317 297.793 77.456 288.461 77.7684C287.47 77.8016 285.401 77.8358 284.249 77.8838V79.3838L259.249 79.8148M21.749 81.384V84.384H39.7473L39.249 79.884M21.749 81.384V79.884H39.249M39.249 79.884C36.249 38.384 89.749 41.384 86.249 80.384V82.8838H212.749C206.749 39.3838 261.249 39.3838 259.249 79.8148M258.747 79.8148H259.249" stroke="black"/>
</svg>
