<svg width="303" height="95" viewBox="0 0 303 95" fill="none" xmlns="http://www.w3.org/2000/svg">
<circle cx="62.8652" cy="73.707" r="20.5" fill="#EFC7D3" stroke="black"/>
<circle cx="235.865" cy="73.707" r="20.5" fill="#EFC7D3" stroke="black"/>
<path d="M132.863 12.2069L131.363 8.70689C171.363 0.706999 192.863 1.20703 231.863 12.707L228.363 17.207C208.363 9.20694 190.363 8.20694 174.363 7.70701C171.863 7.20701 167.863 7.20697 165.363 7.70689C155.363 7.70701 143.363 9.20701 132.863 12.2069Z" fill="#E56E90" stroke="black" stroke-width="0.5"/>
<path d="M131.363 8.70708L130.863 7.20708C166.863 -3.79297 199.363 0.206905 234.863 9.20708L231.863 12.7071C191.863 0.207031 165.863 1.70703 131.363 8.70708Z" fill="#E56E90" stroke="black" stroke-width="0.5"/>
<path d="M131.363 8.70714C182.863 -2.79288 211.363 7.20715 231.863 12.7071" stroke="black" stroke-width="0.5"/>
<path d="M170.865 29.707L174.365 7.70703C207.865 8.70703 219.365 14.207 223.865 15.707L226.348 27.707C199.358 27.7077 181.863 29.2071 170.865 29.707Z" fill="#E56E90"/>
<path d="M226.865 30.207L223.865 15.707C219.365 14.207 207.865 8.70703 174.365 7.70703L170.865 29.707C181.865 29.207 199.365 27.707 226.365 27.707" stroke="black" stroke-width="0.5"/>
<path d="M165.365 7.70703C132.365 8.70703 112.365 17.707 93.3652 35.207L95.8652 33.207L159.865 30.207L165.365 7.70703Z" fill="#E56E90" stroke="black" stroke-width="0.5"/>
<path d="M239.863 22.207C236.197 19.5404 230.363 17.207 223.863 15.707L226.363 27.707H232.863C235.863 26.207 238.863 23.9758 239.863 22.207Z" fill="#E56E90" stroke="black" stroke-width="0.5"/>
<path d="M96.8652 78.207H163.865L198.365 76.707H212.865L213.365 82.207H199.365H98.3652H86.8652V78.207H96.8652Z" fill="#E56E90"/>
<path d="M96.8652 78.207H163.865L198.365 76.707M96.8652 78.207C96.8652 79.707 97.3652 80.707 98.3652 82.207M96.8652 78.207H86.8652V82.207H98.3652M198.365 76.707L199.365 82.207M198.365 76.707H212.865L213.365 82.207H199.365M199.365 82.207H98.3652" stroke="black" stroke-width="0.5"/>
<path d="M96.8644 78.207C92.3652 73.707 89.3653 51.707 93.3644 35.207L165.365 31.207C161.365 36.207 160.365 70.207 163.865 78.207H96.8644Z" fill="#E56E90" stroke="black" stroke-width="0.5"/>
<path d="M228.865 30.207L165.365 31.207C161.365 36.207 160.365 70.207 163.865 78.207L198.365 76.707C202.865 75.207 209.365 69.707 228.865 30.207Z" fill="#E56E90" stroke="black" stroke-width="0.5"/>
<path d="M170.865 29.7071C166.365 30.2071 162.865 30.2071 159.865 30.2071L165.365 7.70711C168.365 7.20703 171.365 7.20703 174.365 7.70711L170.865 29.7071Z" fill="#E56E90" stroke="black" stroke-width="0.5"/>
<path d="M99.3652 31.7073C103.865 37.2073 110.865 33.7073 114.865 32.2073C115.865 16.7072 102.865 24.7072 99.3652 31.7073Z" fill="#E56E90" stroke="black" stroke-width="0.5"/>
<path d="M234.863 9.20703L231.863 12.707C248.863 18.207 259.363 21.207 271.863 27.707H273.363L281.363 26.207C266.363 19.707 258.863 17.207 234.863 9.20703Z" fill="#E56E90" stroke="black" stroke-width="0.5"/>
<path d="M271.863 27.707C261.363 22.207 242.363 15.707 231.863 12.707L229.863 15.207L244.863 22.707C243.363 25.207 239.363 27.207 233.363 29.907C245.363 29.207 262.363 28.207 271.863 27.707Z" fill="#E56E90" stroke="black" stroke-width="0.5"/>
<path d="M277.365 34.007L283.364 31.707L272.864 27.707L228.864 30.207C221.364 45.207 206.364 75.707 198.364 76.707H212.864C211.364 65.707 220.864 42.207 245.865 51.207C256.365 45.707 266.365 40.207 277.365 34.007Z" fill="#E56E90" stroke="black" stroke-width="0.5"/>
<path d="M278.363 33.7071C266.363 40.2071 256.363 45.7071 245.863 51.2071C250.363 54.207 260.863 60.207 259.863 79.207L284.863 78.707V77.207C293.363 76.207 301.863 79.707 300.363 65.707L302.363 55.707C302.363 54.207 299.863 50.207 297.363 49.707C298.863 47.207 295.863 38.207 295.863 38.207V36.707L291.863 33.707L286.863 32.207L283.363 31.707L278.363 33.7071Z" fill="#E56E90" stroke="black" stroke-width="0.5"/>
<path d="M281.363 26.207L272.863 27.707L283.363 31.707C292.863 32.707 291.862 34.207 295.857 36.6272L295.363 28.207L281.363 26.207Z" fill="#E56E90"/>
<path d="M295.863 36.707L295.857 36.6272M295.857 36.6272L295.363 28.207L281.363 26.207L272.863 27.707L283.363 31.707C292.863 32.707 291.862 34.207 295.857 36.6272Z" stroke="black" stroke-width="0.5"/>
<path d="M294.365 36.2072C293.865 33.7071 282.865 33.507 277.365 34.007" stroke="black" stroke-width="0.5"/>
<path d="M300.365 66.207L260.865 68.207C260.365 63.207 258.199 59.0404 256.365 57.207L302.365 54.707M300.865 52.207C289.865 50.707 278.865 45.907 266.865 39.907M228.865 30.207L272.865 27.707L281.365 26.207" stroke="black" stroke-width="0.5"/>
<path d="M290.865 40.207C290.865 38.207 289.865 34.207 286.365 32.207C288.586 32.207 291.963 33.2474 294.474 35.617C294.938 37.147 293.865 40.707 290.823 42.207C290.81 41.6167 290.865 40.9313 290.865 40.207Z" fill="#E56E90"/>
<path d="M272.865 42.707C279.861 43.0568 285.878 43.1619 291.258 43.707M297.865 44.707C295.762 44.2564 293.569 43.9411 291.258 43.707M295.865 37.207C295.447 36.6219 294.978 36.0927 294.474 35.617M291.258 43.707C290.932 43.3623 290.838 42.8392 290.823 42.207M290.823 42.207C290.81 41.6168 290.865 40.9313 290.865 40.207C290.865 38.207 289.865 34.207 286.365 32.207C288.586 32.207 291.963 33.2474 294.474 35.617M290.823 42.207C293.865 40.707 294.938 37.147 294.474 35.617" stroke="black" stroke-width="0.5"/>
<path d="M290.865 40.207C286.365 40.207 284.365 36.207 283.365 33.707" stroke="black" stroke-width="0.5"/>
<path d="M132.863 12.307C119.363 16.307 107.363 22.207 93.3633 35.207C100.363 23.207 115.863 13.707 131.363 8.70703L132.863 12.307Z" stroke="black" stroke-width="0.5"/>
<path d="M131.363 8.70703C111.363 14.3811 93.3633 31.707 85.3633 29.707C98.3633 20.207 114.363 11.707 130.863 7.20703L131.363 8.70703Z" stroke="black" stroke-width="0.5"/>
<path d="M10.3639 47.7069H4.36395C1.86328 51.7069 1.86328 61.7069 2.36395 65.2069C0.863281 66.2069 0.863879 70.7069 1.86395 72.2069L5.86395 72.7069V74.2069L1.86395 76.2069V78.2069C5.86395 79.2069 14.3639 81.2069 22.3639 80.7069V79.2069H39.8639C39.1973 70.7069 40.8639 60.2069 49.8639 53.2069C47.3639 49.2069 40.3639 44.7069 37.3639 44.2069C27.3639 43.2069 12.3639 45.7069 10.3639 47.7069Z" stroke="black" stroke-width="0.5"/>
<path d="M93.3652 35.207C75.5319 36.0404 43.8652 40.907 33.3652 43.907L37.3652 44.207C42.3652 45.707 47.8652 50.0404 49.8652 53.207C62.8643 43.707 88.3643 50.707 86.8643 78.207H96.8643C89.8643 67.207 90.8643 45.207 93.3652 35.207Z" stroke="black" stroke-width="0.5"/>
<path d="M10.3633 47.7071H4.36328C36.8635 28.207 58.8635 34.207 84.8633 29.707L93.8635 35.207C76.8635 36.207 47.8633 39.707 33.8633 43.907C25.8633 43.707 11.8633 45.707 10.3633 47.7071Z" stroke="black" stroke-width="0.5"/>
<path d="M37.3647 44.2071C29.8647 43.207 12.8647 45.207 10.3647 47.7071C9.56474 50.107 12.6981 53.0404 14.3647 54.207C23.8647 55.707 37.3647 49.707 37.3647 44.2071Z" stroke="black" stroke-width="0.5"/>
<path d="M4.36398 47.707C11.364 48.707 5.36398 59.207 2.36398 64.207C1.86391 57.207 2.36377 51.707 4.36398 47.707Z" stroke="black" stroke-width="0.5"/>
<path d="M22.3633 83.707V79.207H39.8633L40.3633 83.707H22.3633Z" stroke="black" stroke-width="0.5"/>
<path d="M2.86523 65.207C4.36523 67.707 6.36523 70.8737 5.86523 72.707M22.3652 79.207C11.8652 79.707 7.36523 75.707 8.36523 72.207C8.86523 71.707 10.3652 70.207 11.3652 70.207" stroke="black" stroke-width="0.5"/>
<path d="M6.36523 65.2072C8.61518 64.7072 11.4901 64.0822 14.24 63.7072M14.24 63.7072C16.9901 63.3322 19.6152 63.2072 21.3652 63.7072C24.3652 65.2072 29.8652 70.2072 32.3652 74.2072C27.3652 75.2072 20.3652 74.7072 15.8652 74.7072C13.1727 74.7072 11.8652 72.3738 11.8652 71.2072C11.3652 68.2072 12.6151 65.0405 14.24 63.7072Z" stroke="black" stroke-width="0.5"/>
<path d="M11.8652 70.7072C19.8652 69.2073 23.3652 71.8358 26.3652 73.3358M13.3652 73.7073L30.8652 73.2073" stroke="black" stroke-width="0.5"/>
<path d="M22.3633 82.207H31.8633C33.8633 82.207 35.3633 80.207 34.8633 79.207M38.3633 79.207V83.707" stroke="black" stroke-width="0.5"/>
<path d="M22.3652 80.7073C17.8652 80.7073 13.3652 81.2073 1.86518 78.2073V76.2073L5.86518 74.2073V72.7073L1.86518 72.2073C1.36426 70.707 0.364454 67.707 2.36445 65.207C1.86469 57.207 2.36469 50.707 4.36518 47.7068C36.8652 28.2072 58.8652 34.2072 84.8652 29.7072C162.865 -25.2929 244.865 11.707 281.865 26.2072L295.365 28.207L295.865 35.207V38.207C297.364 43.207 298.699 47.707 297.365 49.707C299.865 50.707 302.365 53.8737 302.365 55.707L300.365 65.707C300.817 76.5549 298.409 76.7792 289.077 77.0917C288.086 77.1249 286.017 77.159 284.865 77.207V78.707L259.865 79.1381M22.3652 80.7073V83.7073H40.3635L39.8652 79.2073M22.3652 80.7073V79.2073H39.8652M39.8652 79.2073C36.8652 37.7073 90.3652 40.7073 86.8652 79.7073V82.207H213.365C207.365 38.707 261.865 38.707 259.865 79.1381M259.364 79.1381H259.865" stroke="black"/>
</svg>
