<svg width="303" height="96" viewBox="0 0 303 96" fill="none" xmlns="http://www.w3.org/2000/svg">
<circle cx="62.4795" cy="74.3687" r="20.5" fill="#E0426F" stroke="black"/>
<circle cx="235.479" cy="74.3687" r="20.5" fill="#E0426F" stroke="black"/>
<path d="M132.478 12.8685L130.978 9.36851C170.978 1.36862 192.478 1.86865 231.478 13.3686L227.978 17.8686C207.978 9.86856 189.978 8.86856 173.978 8.36863C171.478 7.86863 167.478 7.86859 164.978 8.36851C154.978 8.36863 142.978 9.86863 132.478 12.8685Z" fill="#EDADBF" stroke="black" stroke-width="0.5"/>
<path d="M130.978 9.3687L130.478 7.8687C166.478 -3.13135 198.978 0.868526 234.478 9.8687L231.478 13.3687C191.478 0.868652 165.478 2.36865 130.978 9.3687Z" fill="#EDADBF" stroke="black" stroke-width="0.5"/>
<path d="M130.978 9.36876C182.478 -2.13126 210.978 7.86877 231.478 13.3688" stroke="black" stroke-width="0.5"/>
<path d="M170.479 30.3687L173.979 8.36865C207.479 9.36865 218.979 14.8687 223.479 16.3687L225.962 28.3687C198.972 28.3693 181.477 29.8688 170.479 30.3687Z" fill="#EDADBF"/>
<path d="M226.479 30.8687L223.479 16.3687C218.979 14.8687 207.479 9.36865 173.979 8.36865L170.479 30.3687C181.479 29.8687 198.979 28.3687 225.979 28.3687" stroke="black" stroke-width="0.5"/>
<path d="M164.979 8.36865C131.979 9.36865 111.979 18.3687 92.9795 35.8687L95.4795 33.8687L159.479 30.8687L164.979 8.36865Z" fill="#EDADBF" stroke="black" stroke-width="0.5"/>
<path d="M239.478 22.8687C235.811 20.202 229.978 17.8687 223.478 16.3687L225.978 28.3687H232.478C235.478 26.8687 238.478 24.6374 239.478 22.8687Z" fill="#EDADBF" stroke="black" stroke-width="0.5"/>
<path d="M96.4795 78.8687H163.479L197.979 77.3687H212.479L212.979 82.8687H198.979H97.9795H86.4795V78.8687H96.4795Z" fill="#EDADBF"/>
<path d="M96.4795 78.8687H163.479L197.979 77.3687M96.4795 78.8687C96.4795 80.3687 96.9795 81.3687 97.9795 82.8687M96.4795 78.8687H86.4795V82.8687H97.9795M197.979 77.3687L198.979 82.8687M197.979 77.3687H212.479L212.979 82.8687H198.979M198.979 82.8687H97.9795" stroke="black" stroke-width="0.5"/>
<path d="M96.4786 78.8687C91.9795 74.3687 88.9795 52.3687 92.9786 35.8687L164.979 31.8687C160.979 36.8687 159.979 70.8687 163.479 78.8687H96.4786Z" fill="#EDADBF" stroke="black" stroke-width="0.5"/>
<path d="M228.479 30.8687L164.979 31.8687C160.98 36.8687 159.98 70.8687 163.479 78.8687L197.979 77.3687C202.479 75.8687 208.979 70.3687 228.479 30.8687Z" fill="#EDADBF" stroke="black" stroke-width="0.5"/>
<path d="M170.479 30.3687C165.979 30.8687 162.479 30.8687 159.479 30.8687L164.979 8.36873C167.979 7.86865 170.979 7.86865 173.979 8.36873L170.479 30.3687Z" fill="#EDADBF" stroke="black" stroke-width="0.5"/>
<path d="M98.9795 32.3689C103.479 37.8689 110.479 34.3689 114.479 32.8689C115.479 17.3688 102.479 25.3688 98.9795 32.3689Z" fill="#EDADBF" stroke="black" stroke-width="0.5"/>
<path d="M234.478 9.86865L231.478 13.3687C248.478 18.8687 258.978 21.8687 271.478 28.3687H272.978L280.978 26.8687C265.978 20.3687 258.478 17.8687 234.478 9.86865Z" fill="#EFC7D3" stroke="black" stroke-width="0.5"/>
<path d="M271.478 28.3687C260.978 22.8687 241.978 16.3687 231.478 13.3687L229.478 15.8687L244.478 23.3687C242.978 25.8687 238.978 27.8687 232.978 30.5687C244.978 29.8687 261.978 28.8687 271.478 28.3687Z" fill="#EFC7D3" stroke="black" stroke-width="0.5"/>
<path d="M276.979 34.6687L282.978 32.3687L272.479 28.3687L228.479 30.8687C220.979 45.8687 205.979 76.3687 197.979 77.3687H212.479C210.979 66.3687 220.479 42.8687 245.479 51.8687C255.979 46.3687 265.979 40.8687 276.979 34.6687Z" fill="#EFC7D3" stroke="black" stroke-width="0.5"/>
<path d="M277.978 34.3687C265.978 40.8687 255.978 46.3687 245.478 51.8687C249.978 54.8687 260.478 60.8687 259.478 79.8687L284.478 79.3687V77.8687C292.978 76.8687 301.478 80.3687 299.978 66.3687L301.978 56.3687C301.978 54.8687 299.478 50.8687 296.978 50.3687C298.478 47.8687 295.478 38.8687 295.478 38.8687V37.3687L291.478 34.3687L286.478 32.8687L282.978 32.3687L277.978 34.3687Z" fill="#EFC7D3" stroke="black" stroke-width="0.5"/>
<path d="M280.978 26.8687L272.478 28.3687L282.978 32.3687C292.478 33.3687 291.476 34.8687 295.472 37.2888L294.978 28.8687L280.978 26.8687Z" fill="#EFC7D3"/>
<path d="M295.478 37.3687L295.472 37.2888M295.472 37.2888L294.978 28.8687L280.978 26.8687L272.478 28.3687L282.978 32.3687C292.478 33.3687 291.476 34.8687 295.472 37.2888Z" stroke="black" stroke-width="0.5"/>
<path d="M293.979 36.8689C293.479 34.3687 282.479 34.1687 276.979 34.6687" stroke="black" stroke-width="0.5"/>
<path d="M299.979 66.8687L260.479 68.8687C259.979 63.8687 257.813 59.702 255.979 57.8687L301.979 55.3687M300.479 52.8687C289.479 51.3687 278.479 46.5687 266.479 40.5687M228.479 30.8687L272.479 28.3687L280.979 26.8687" stroke="black" stroke-width="0.5"/>
<path d="M290.479 40.8687C290.479 38.8687 289.479 34.8687 285.979 32.8687C288.2 32.8687 291.577 33.909 294.088 36.2786C294.552 37.8086 293.479 41.3687 290.438 42.8687C290.424 42.2784 290.479 41.5929 290.479 40.8687Z" fill="#EFC7D3"/>
<path d="M272.479 43.3687C279.475 43.7184 285.492 43.8235 290.873 44.3687M297.479 45.3687C295.376 44.918 293.183 44.6028 290.873 44.3687M295.479 37.8687C295.062 37.2835 294.592 36.7543 294.088 36.2786M290.873 44.3687C290.546 44.0239 290.452 43.5008 290.438 42.8687M290.438 42.8687C290.424 42.2784 290.479 41.5929 290.479 40.8687C290.479 38.8687 289.479 34.8687 285.979 32.8687C288.2 32.8687 291.577 33.909 294.088 36.2786M290.438 42.8687C293.479 41.3687 294.552 37.8086 294.088 36.2786" stroke="black" stroke-width="0.5"/>
<path d="M290.479 40.8687C285.979 40.8687 283.979 36.8687 282.979 34.3687" stroke="black" stroke-width="0.5"/>
<path d="M132.478 12.9686C118.978 16.9686 106.978 22.8687 92.978 35.8687C99.978 23.8687 115.478 14.3687 130.978 9.36865L132.478 12.9686Z" fill="#E56E90" stroke="black" stroke-width="0.5"/>
<path d="M130.978 9.36865C110.978 15.0427 92.978 32.3687 84.978 30.3687C97.978 20.8687 113.978 12.3687 130.478 7.86865L130.978 9.36865Z" fill="#E56E90" stroke="black" stroke-width="0.5"/>
<path d="M9.97869 48.3685H3.97869C1.47803 52.3685 1.47803 62.3685 1.97869 65.8685C0.478027 66.8685 0.478625 71.3685 1.47869 72.8685L5.47869 73.3685V74.8685L1.47869 76.8685V78.8685C5.47869 79.8685 13.9787 81.8685 21.9787 81.3685V79.8685H39.4787C38.812 71.3685 40.4787 60.8685 49.4787 53.8685C46.9787 49.8685 39.9787 45.3685 36.9787 44.8685C26.9787 43.8685 11.9787 46.3685 9.97869 48.3685Z" fill="#E56E90" stroke="black" stroke-width="0.5"/>
<path d="M92.9795 35.8687C75.1462 36.702 43.4795 41.5687 32.9795 44.5687L36.9795 44.8687C41.9795 46.3687 47.4795 50.702 49.4795 53.8687C62.4785 44.3687 87.9785 51.3687 86.4785 78.8687H96.4785C89.4785 67.8687 90.4785 45.8687 92.9795 35.8687Z" fill="#E56E90" stroke="black" stroke-width="0.5"/>
<path d="M9.97754 48.3687H3.97754C36.4777 28.8686 58.4778 34.8687 84.4775 30.3687L93.4778 35.8687C76.4778 36.8687 47.4775 40.3686 33.4775 44.5687C25.4775 44.3686 11.4775 46.3686 9.97754 48.3687Z" fill="#E56E90" stroke="black" stroke-width="0.5"/>
<path d="M36.9795 44.8687C29.4795 43.8687 12.4795 45.8687 9.97948 48.3687C9.17948 50.7687 12.3128 53.702 13.9795 54.8687C23.4795 56.3687 36.9795 50.3687 36.9795 44.8687Z" fill="#E56E90" stroke="black" stroke-width="0.5"/>
<path d="M3.97872 48.3687C10.9787 49.3687 4.97872 59.8687 1.97872 64.8687C1.47865 57.8687 1.97852 52.3687 3.97872 48.3687Z" fill="#E56E90" stroke="black" stroke-width="0.5"/>
<path d="M21.978 84.3687V79.8687H39.478L39.978 84.3687H21.978Z" fill="#E56E90" stroke="black" stroke-width="0.5"/>
<path d="M2.47949 65.8687C3.97949 68.3687 5.97949 71.5353 5.47949 73.3687M21.9795 79.8687C11.4795 80.3687 6.97949 76.3687 7.97949 72.8687C8.47949 72.3687 9.97949 70.8687 10.9795 70.8687" stroke="black" stroke-width="0.5"/>
<path d="M31.9795 74.8688C29.4795 70.8688 23.9795 65.8689 20.9795 64.3689C19.2294 63.8688 16.6044 63.9938 13.8543 64.3689C12.2294 65.7022 10.9795 68.8688 11.4795 71.8688C11.4795 73.0354 12.7869 75.3688 15.4795 75.3688C19.9795 75.3688 26.9795 75.8688 31.9795 74.8688Z" fill="#E56E90"/>
<path d="M5.97949 65.8689C8.22943 65.3688 11.1043 64.7438 13.8543 64.3689M13.8543 64.3689C16.6044 63.9938 19.2294 63.8688 20.9795 64.3689C23.9795 65.8689 29.4795 70.8688 31.9795 74.8688C26.9795 75.8688 19.9795 75.3688 15.4795 75.3688C12.7869 75.3688 11.4795 73.0354 11.4795 71.8688C10.9795 68.8688 12.2293 65.7022 13.8543 64.3689Z" stroke="black" stroke-width="0.5"/>
<path d="M11.4795 71.3688C19.4795 69.8689 22.9795 72.4974 25.9795 73.9974M12.9795 74.3689L30.4795 73.8689" stroke="black" stroke-width="0.5"/>
<path d="M21.9775 82.8687H31.4775C33.4775 82.8687 34.9775 80.8687 34.4775 79.8687M37.9775 79.8687V84.3687" stroke="black" stroke-width="0.5"/>
<path d="M21.9794 81.3689C17.4794 81.3689 12.9794 81.8689 1.47944 78.8689V76.8689L5.47944 74.8689V73.3689L1.47944 72.8689C0.978516 71.3687 -0.0212885 68.3687 1.97871 65.8687C1.47895 57.8687 1.97895 51.3687 3.97944 48.3684C36.4794 28.8688 58.4794 34.8688 84.4794 30.3688C162.479 -24.6313 244.479 12.3686 281.479 26.8688L294.979 28.8687L295.479 35.8687V38.8687C296.978 43.8687 298.313 48.3687 296.979 50.3687C299.479 51.3687 301.979 54.5353 301.979 56.3687L299.979 66.3687C300.431 77.2166 298.023 77.4408 288.692 77.7533C287.701 77.7865 285.632 77.8206 284.479 77.8687V79.3687L259.479 79.7997M21.9794 81.3689V84.3689H39.9778L39.4794 79.8689M21.9794 81.3689V79.8689H39.4794M39.4794 79.8689C36.4794 38.3689 89.9794 41.3689 86.4794 80.3689V82.8687H212.979C206.979 39.3687 261.479 39.3687 259.479 79.7997M258.978 79.7997H259.479" stroke="black"/>
</svg>
