<svg width="304" height="96" viewBox="0 0 304 96" fill="none" xmlns="http://www.w3.org/2000/svg">
<circle cx="63.0635" cy="74.0303" r="20.5" fill="#EDADBF" stroke="black"/>
<circle cx="236.063" cy="74.0303" r="20.5" fill="#EDADBF" stroke="black"/>
<path d="M133.062 12.5301L131.562 9.03013C171.562 1.03024 193.062 1.53027 232.062 13.0302L228.562 17.5302C208.562 9.53018 190.562 8.53018 174.562 8.03025C172.062 7.53025 168.062 7.53021 165.562 8.03013C155.562 8.03025 143.562 9.53025 133.062 12.5301Z" fill="#EDADBF" stroke="black" stroke-width="0.5"/>
<path d="M131.562 9.03032L131.062 7.53032C167.062 -3.46973 199.562 0.530148 235.062 9.53032L232.062 13.0303C192.062 0.530273 166.062 2.03027 131.562 9.03032Z" fill="#EDADBF" stroke="black" stroke-width="0.5"/>
<path d="M131.562 9.03038C183.062 -2.46964 211.562 7.5304 232.062 13.0304" stroke="black" stroke-width="0.5"/>
<path d="M171.063 30.0303L174.563 8.03027C208.063 9.03027 219.563 14.5303 224.063 16.0303L226.546 28.0303C199.556 28.0309 182.061 29.5304 171.063 30.0303Z" fill="#EDADBF"/>
<path d="M227.063 30.5303L224.063 16.0303C219.563 14.5303 208.063 9.03027 174.563 8.03027L171.063 30.0303C182.063 29.5303 199.563 28.0303 226.563 28.0303" stroke="black" stroke-width="0.5"/>
<path d="M165.563 8.03027C132.563 9.03027 112.563 18.0303 93.5635 35.5303L96.0635 33.5303L160.063 30.5303L165.563 8.03027Z" fill="#EDADBF" stroke="black" stroke-width="0.5"/>
<path d="M240.062 22.5303C236.395 19.8636 230.562 17.5303 224.062 16.0303L226.562 28.0303H233.062C236.062 26.5303 239.062 24.299 240.062 22.5303Z" fill="#EDADBF" stroke="black" stroke-width="0.5"/>
<path d="M97.0635 78.5303H164.063L198.563 77.0303H213.063L213.563 82.5303H199.563H98.5635H87.0635V78.5303H97.0635Z" fill="#EDADBF"/>
<path d="M97.0635 78.5303H164.063L198.563 77.0303M97.0635 78.5303C97.0635 80.0303 97.5635 81.0303 98.5635 82.5303M97.0635 78.5303H87.0635V82.5303H98.5635M198.563 77.0303L199.563 82.5303M198.563 77.0303H213.063L213.563 82.5303H199.563M199.563 82.5303H98.5635" stroke="black" stroke-width="0.5"/>
<path d="M97.0626 78.5303C92.5635 74.0303 89.5635 52.0303 93.5626 35.5303L165.563 31.5303C161.563 36.5303 160.563 70.5303 164.063 78.5303H97.0626Z" fill="#EDADBF" stroke="black" stroke-width="0.5"/>
<path d="M229.063 30.5303L165.563 31.5303C161.564 36.5303 160.564 70.5303 164.063 78.5303L198.563 77.0303C203.063 75.5303 209.563 70.0303 229.063 30.5303Z" fill="#EDADBF" stroke="black" stroke-width="0.5"/>
<path d="M171.063 30.0303C166.563 30.5303 163.063 30.5303 160.063 30.5303L165.563 8.03035C168.563 7.53027 171.563 7.53027 174.563 8.03035L171.063 30.0303Z" fill="#EDADBF" stroke="black" stroke-width="0.5"/>
<path d="M99.5635 32.0305C104.063 37.5305 111.063 34.0305 115.063 32.5305C116.063 17.0304 103.063 25.0304 99.5635 32.0305Z" fill="#EDADBF" stroke="black" stroke-width="0.5"/>
<path d="M235.062 9.53027L232.062 13.0303C249.062 18.5303 259.562 21.5303 272.062 28.0303H273.562L281.562 26.5303C266.562 20.0303 259.062 17.5303 235.062 9.53027Z" fill="#E56E90" stroke="black" stroke-width="0.5"/>
<path d="M272.062 28.0303C261.562 22.5303 242.562 16.0303 232.062 13.0303L230.062 15.5303L245.062 23.0303C243.562 25.5303 239.562 27.5303 233.562 30.2303C245.562 29.5303 262.562 28.5303 272.062 28.0303Z" fill="#E56E90" stroke="black" stroke-width="0.5"/>
<path d="M277.563 34.3303L283.562 32.0303L273.062 28.0303L229.062 30.5303C221.562 45.5303 206.562 76.0303 198.562 77.0303H213.062C211.562 66.0303 221.062 42.5303 246.063 51.5303C256.563 46.0303 266.563 40.5303 277.563 34.3303Z" fill="#E56E90" stroke="black" stroke-width="0.5"/>
<path d="M278.562 34.0303C266.562 40.5303 256.562 46.0303 246.062 51.5303C250.562 54.5303 261.062 60.5303 260.062 79.5303L285.062 79.0303V77.5303C293.562 76.5303 302.062 80.0303 300.562 66.0303L302.562 56.0303C302.562 54.5303 300.062 50.5303 297.562 50.0303C299.062 47.5303 296.062 38.5303 296.062 38.5303V37.0303L292.062 34.0303L287.062 32.5303L283.562 32.0303L278.562 34.0303Z" fill="#E56E90" stroke="black" stroke-width="0.5"/>
<path d="M281.562 26.5303L273.062 28.0303L283.562 32.0303C293.062 33.0303 292.06 34.5303 296.056 36.9505L295.562 28.5303L281.562 26.5303Z" fill="#E56E90"/>
<path d="M296.062 37.0303L296.056 36.9505M296.056 36.9505L295.562 28.5303L281.562 26.5303L273.062 28.0303L283.562 32.0303C293.062 33.0303 292.06 34.5303 296.056 36.9505Z" stroke="black" stroke-width="0.5"/>
<path d="M294.563 36.5305C294.063 34.0304 283.063 33.8303 277.563 34.3303" stroke="black" stroke-width="0.5"/>
<path d="M300.563 66.5303L261.063 68.5303C260.563 63.5303 258.397 59.3636 256.563 57.5303L302.563 55.0303M301.063 52.5303C290.063 51.0303 279.063 46.2303 267.063 40.2303M229.063 30.5303L273.063 28.0303L281.563 26.5303" stroke="black" stroke-width="0.5"/>
<path d="M291.063 40.5303C291.063 38.5303 290.063 34.5303 286.563 32.5303C288.784 32.5303 292.161 33.5707 294.672 35.9403C295.136 37.4703 294.063 41.0303 291.022 42.5303C291.008 41.94 291.063 41.2546 291.063 40.5303Z" fill="#E56E90"/>
<path d="M273.063 43.0303C280.059 43.3801 286.076 43.4851 291.457 44.0303M298.063 45.0303C295.96 44.5796 293.767 44.2644 291.457 44.0303M296.063 37.5303C295.646 36.9451 295.176 36.4159 294.672 35.9403M291.457 44.0303C291.13 43.6855 291.036 43.1625 291.022 42.5303M291.022 42.5303C291.008 41.94 291.063 41.2546 291.063 40.5303C291.063 38.5303 290.063 34.5303 286.563 32.5303C288.784 32.5303 292.161 33.5707 294.672 35.9403M291.022 42.5303C294.063 41.0303 295.136 37.4703 294.672 35.9403" stroke="black" stroke-width="0.5"/>
<path d="M291.063 40.5303C286.563 40.5303 284.563 36.5303 283.563 34.0303" stroke="black" stroke-width="0.5"/>
<path d="M133.062 12.6302C119.562 16.6302 107.562 22.5303 93.5615 35.5303C100.562 23.5303 116.062 14.0303 131.562 9.03027L133.062 12.6302Z" fill="#EFC7D3" stroke="black" stroke-width="0.5"/>
<path d="M131.562 9.03027C111.562 14.7043 93.5615 32.0303 85.5615 30.0303C98.5615 20.5303 114.562 12.0303 131.062 7.53027L131.562 9.03027Z" fill="#EFC7D3" stroke="black" stroke-width="0.5"/>
<path d="M10.5622 48.0302H4.56219C2.06152 52.0302 2.06152 62.0302 2.56219 65.5302C1.06152 66.5302 1.06212 71.0302 2.06219 72.5302L6.06219 73.0302V74.5302L2.06219 76.5302V78.5302C6.06219 79.5302 14.5622 81.5302 22.5622 81.0302V79.5302H40.0622C39.3955 71.0302 41.0622 60.5302 50.0622 53.5302C47.5622 49.5302 40.5622 45.0302 37.5622 44.5302C27.5622 43.5302 12.5622 46.0302 10.5622 48.0302Z" fill="#EFC7D3" stroke="black" stroke-width="0.5"/>
<path d="M93.5635 35.5303C75.7301 36.3636 44.0635 41.2303 33.5635 44.2303L37.5635 44.5303C42.5635 46.0303 48.0635 50.3636 50.0635 53.5303C63.0625 44.0303 88.5625 51.0303 87.0625 78.5303H97.0625C90.0625 67.5303 91.0625 45.5303 93.5635 35.5303Z" fill="#EFC7D3" stroke="black" stroke-width="0.5"/>
<path d="M10.5615 48.0303H4.56152C37.0617 28.5302 59.0618 34.5303 85.0615 30.0303L94.0618 35.5303C77.0618 36.5303 48.0615 40.0303 34.0615 44.2303C26.0615 44.0303 12.0615 46.0303 10.5615 48.0303Z" fill="#EFC7D3" stroke="black" stroke-width="0.5"/>
<path d="M37.563 44.5303C30.063 43.5303 13.063 45.5303 10.563 48.0303C9.76298 50.4303 12.8963 53.3636 14.563 54.5303C24.063 56.0303 37.563 50.0303 37.563 44.5303Z" fill="#EFC7D3" stroke="black" stroke-width="0.5"/>
<path d="M4.56222 48.0303C11.5622 49.0303 5.56222 59.5303 2.56222 64.5303C2.06215 57.5303 2.56201 52.0303 4.56222 48.0303Z" fill="#EFC7D3" stroke="black" stroke-width="0.5"/>
<path d="M22.5615 84.0303V79.5303H40.0615L40.5615 84.0303H22.5615Z" fill="#EFC7D3" stroke="black" stroke-width="0.5"/>
<path d="M3.06348 65.5303C4.56348 68.0303 6.56348 71.1969 6.06348 73.0303M22.5635 79.5303C12.0635 80.0303 7.56348 76.0303 8.56348 72.5303C9.06348 72.0303 10.5635 70.5303 11.5635 70.5303" stroke="black" stroke-width="0.5"/>
<path d="M32.5635 74.5304C30.0635 70.5304 24.5635 65.5305 21.5635 64.0305C19.8134 63.5305 17.1883 63.6555 14.4383 64.0305C12.8133 65.3638 11.5635 68.5304 12.0635 71.5304C12.0635 72.6971 13.3709 75.0304 16.0635 75.0304C20.5635 75.0304 27.5635 75.5304 32.5635 74.5304Z" fill="#EFC7D3"/>
<path d="M6.56348 65.5305C8.81342 65.0304 11.6883 64.4055 14.4383 64.0305M14.4383 64.0305C17.1883 63.6555 19.8134 63.5305 21.5635 64.0305C24.5635 65.5305 30.0635 70.5304 32.5635 74.5304C27.5635 75.5304 20.5635 75.0304 16.0635 75.0304C13.3709 75.0304 12.0635 72.6971 12.0635 71.5304C11.5635 68.5304 12.8133 65.3638 14.4383 64.0305Z" stroke="black" stroke-width="0.5"/>
<path d="M12.0635 71.0305C20.0635 69.5305 23.5635 72.159 26.5635 73.659M13.5635 74.0305L31.0635 73.5305" stroke="black" stroke-width="0.5"/>
<path d="M22.5615 82.5303H32.0615C34.0615 82.5303 35.5615 80.5303 35.0615 79.5303M38.5615 79.5303V84.0303" stroke="black" stroke-width="0.5"/>
<path d="M22.5634 81.0305C18.0634 81.0305 13.5634 81.5305 2.06342 78.5305V76.5305L6.06342 74.5305V73.0305L2.06342 72.5305C1.5625 71.0303 0.562696 68.0303 2.56269 65.5303C2.06293 57.5303 2.56293 51.0303 4.56342 48.03C37.0634 28.5304 59.0634 34.5305 85.0634 30.0305C163.063 -24.9697 245.063 12.0303 282.063 26.5305L295.563 28.5303L296.063 35.5303V38.5303C297.562 43.5303 298.897 48.0303 297.563 50.0303C300.063 51.0303 302.563 54.1969 302.563 56.0303L300.563 66.0303C301.015 76.8782 298.607 77.1025 289.276 77.4149C288.285 77.4481 286.216 77.4823 285.063 77.5303V79.0303L260.063 79.4613M22.5634 81.0305V84.0305H40.5618L40.0634 79.5305M22.5634 81.0305V79.5305H40.0634M40.0634 79.5305C37.0634 38.0305 90.5634 41.0305 87.0634 80.0305V82.5303H213.563C207.563 39.0303 262.063 39.0303 260.063 79.4613M259.562 79.4613H260.063" stroke="black"/>
</svg>
