<svg width="303" height="96" viewBox="0 0 303 96" fill="none" xmlns="http://www.w3.org/2000/svg">
<circle cx="62.6562" cy="74.3838" r="20.5" stroke="black"/>
<circle cx="235.656" cy="74.3838" r="20.5" stroke="black"/>
<path d="M132.654 12.8836L131.154 9.38364C171.154 1.38376 192.654 1.88379 231.654 13.3837L228.154 17.8837C208.154 9.8837 190.154 8.8837 174.154 8.38377C171.654 7.88377 167.654 7.88373 165.154 8.38364C155.154 8.38377 143.154 9.88377 132.654 12.8836Z" fill="#E56E90" stroke="black" stroke-width="0.5"/>
<path d="M131.154 9.38383L130.654 7.88383C166.654 -3.11621 199.154 0.883663 234.654 9.88383L231.654 13.3838C191.654 0.883789 165.654 2.38379 131.154 9.38383Z" fill="#E56E90" stroke="black" stroke-width="0.5"/>
<path d="M131.154 9.3839C182.654 -2.11613 211.154 7.88391 231.654 13.3839" stroke="black" stroke-width="0.5"/>
<path d="M170.656 30.3838L174.156 8.38379C207.656 9.38379 219.156 14.8838 223.656 16.3838L226.139 28.3838C199.149 28.3844 181.654 29.8839 170.656 30.3838Z" fill="#E56E90"/>
<path d="M226.656 30.8838L223.656 16.3838C219.156 14.8838 207.656 9.38379 174.156 8.38379L170.656 30.3838C181.656 29.8838 199.156 28.3838 226.156 28.3838" stroke="black" stroke-width="0.5"/>
<path d="M165.156 8.38379C132.156 9.38379 112.156 18.3838 93.1562 35.8838L95.6562 33.8838L159.656 30.8838L165.156 8.38379Z" fill="#E56E90" stroke="black" stroke-width="0.5"/>
<path d="M239.654 22.8838C235.988 20.2171 230.154 17.8838 223.654 16.3838L226.154 28.3838H232.654C235.654 26.8838 238.654 24.6525 239.654 22.8838Z" fill="#E56E90" stroke="black" stroke-width="0.5"/>
<path d="M96.6562 78.8838H163.656L198.156 77.3838H212.656L213.156 82.8838H199.156H98.1562H86.6562V78.8838H96.6562Z" fill="#E56E90"/>
<path d="M96.6562 78.8838H163.656L198.156 77.3838M96.6562 78.8838C96.6562 80.3838 97.1562 81.3838 98.1562 82.8838M96.6562 78.8838H86.6562V82.8838H98.1562M198.156 77.3838L199.156 82.8838M198.156 77.3838H212.656L213.156 82.8838H199.156M199.156 82.8838H98.1562" stroke="black" stroke-width="0.5"/>
<path d="M96.6554 78.8838C92.1562 74.3838 89.1563 52.3838 93.1554 35.8838L165.156 31.8838C161.156 36.8838 160.156 70.8838 163.656 78.8838H96.6554Z" fill="#E56E90" stroke="black" stroke-width="0.5"/>
<path d="M228.656 30.8838L165.156 31.8838C161.156 36.8838 160.156 70.8838 163.656 78.8838L198.156 77.3838C202.656 75.8838 209.156 70.3838 228.656 30.8838Z" fill="#E56E90" stroke="black" stroke-width="0.5"/>
<path d="M170.656 30.3839C166.156 30.8839 162.656 30.8839 159.656 30.8839L165.156 8.38386C168.156 7.88379 171.156 7.88379 174.156 8.38386L170.656 30.3839Z" fill="#E56E90" stroke="black" stroke-width="0.5"/>
<path d="M99.1562 32.384C103.656 37.884 110.656 34.384 114.656 32.884C115.656 17.3839 102.656 25.3839 99.1562 32.384Z" fill="#E56E90" stroke="black" stroke-width="0.5"/>
<path d="M234.654 9.88379L231.654 13.3838C248.654 18.8838 259.154 21.8838 271.654 28.3838H273.154L281.154 26.8838C266.154 20.3838 258.654 17.8838 234.654 9.88379Z" fill="#E0426F" stroke="black" stroke-width="0.5"/>
<path d="M271.654 28.3838C261.154 22.8838 242.154 16.3838 231.654 13.3838L229.654 15.8838L244.654 23.3838C243.154 25.8838 239.154 27.8838 233.154 30.5838C245.154 29.8838 262.154 28.8838 271.654 28.3838Z" fill="#E0426F" stroke="black" stroke-width="0.5"/>
<path d="M277.156 34.6838L283.155 32.3838L272.655 28.3838L228.655 30.8838C221.155 45.8838 206.155 76.3838 198.155 77.3838H212.655C211.155 66.3838 220.655 42.8838 245.656 51.8838C256.156 46.3838 266.156 40.8838 277.156 34.6838Z" fill="#E0426F" stroke="black" stroke-width="0.5"/>
<path d="M278.154 34.3838C266.154 40.8838 256.154 46.3838 245.654 51.8838C250.154 54.8838 260.654 60.8838 259.654 79.8838L284.654 79.3838V77.8838C293.154 76.8838 301.654 80.3838 300.154 66.3838L302.154 56.3838C302.154 54.8838 299.654 50.8838 297.154 50.3838C298.654 47.8838 295.654 38.8838 295.654 38.8838V37.3838L291.654 34.3838L286.654 32.8838L283.154 32.3838L278.154 34.3838Z" fill="#E0426F" stroke="black" stroke-width="0.5"/>
<path d="M281.154 26.8838L272.654 28.3838L283.154 32.3838C292.654 33.3838 291.653 34.8838 295.648 37.304L295.154 28.8838L281.154 26.8838Z" fill="#E0426F"/>
<path d="M295.654 37.3838L295.648 37.304M295.648 37.304L295.154 28.8838L281.154 26.8838L272.654 28.3838L283.154 32.3838C292.654 33.3838 291.653 34.8838 295.648 37.304Z" stroke="black" stroke-width="0.5"/>
<path d="M294.156 36.884C293.656 34.3839 282.656 34.1838 277.156 34.6838" stroke="black" stroke-width="0.5"/>
<path d="M300.156 66.8838L260.656 68.8838C260.156 63.8838 257.99 59.7171 256.156 57.8838L302.156 55.3838M300.656 52.8838C289.656 51.3838 278.656 46.5838 266.656 40.5838M228.656 30.8838L272.656 28.3838L281.156 26.8838" stroke="black" stroke-width="0.5"/>
<path d="M290.656 40.8838C290.656 38.8838 289.656 34.8838 286.156 32.8838C288.377 32.8838 291.754 33.9242 294.265 36.2938C294.729 37.8238 293.656 41.3838 290.614 42.8838C290.601 42.2935 290.656 41.6081 290.656 40.8838Z" fill="#E0426F"/>
<path d="M272.656 43.3838C279.652 43.7336 285.669 43.8387 291.049 44.3838M297.656 45.3838C295.553 44.9331 293.36 44.6179 291.049 44.3838M295.656 37.8838C295.238 37.2987 294.769 36.7694 294.265 36.2938M291.049 44.3838C290.723 44.039 290.629 43.516 290.614 42.8838M290.614 42.8838C290.601 42.2935 290.656 41.6081 290.656 40.8838C290.656 38.8838 289.656 34.8838 286.156 32.8838C288.377 32.8838 291.754 33.9242 294.265 36.2938M290.614 42.8838C293.656 41.3838 294.729 37.8238 294.265 36.2938" stroke="black" stroke-width="0.5"/>
<path d="M290.656 40.8838C286.156 40.8838 284.156 36.8838 283.156 34.3838" stroke="black" stroke-width="0.5"/>
<path d="M132.654 12.9838C119.154 16.9838 107.154 22.8838 93.1543 35.8838C100.154 23.8838 115.654 14.3838 131.154 9.38379L132.654 12.9838Z" fill="#E0426F" stroke="black" stroke-width="0.5"/>
<path d="M131.154 9.38379C111.154 15.0578 93.1543 32.3838 85.1543 30.3838C98.1543 20.8838 114.154 12.3838 130.654 7.88379L131.154 9.38379Z" fill="#E0426F" stroke="black" stroke-width="0.5"/>
<path d="M10.155 48.3837H4.15496C1.6543 52.3837 1.6543 62.3837 2.15496 65.8837C0.654297 66.8837 0.654894 71.3837 1.65496 72.8837L5.65496 73.3837V74.8837L1.65496 76.8837V78.8837C5.65496 79.8837 14.155 81.8837 22.155 81.3837V79.8837H39.655C38.9883 71.3837 40.655 60.8837 49.655 53.8837C47.155 49.8837 40.155 45.3837 37.155 44.8837C27.155 43.8837 12.155 46.3837 10.155 48.3837Z" fill="#E0426F" stroke="black" stroke-width="0.5"/>
<path d="M93.1562 35.8838C75.3229 36.7171 43.6562 41.5838 33.1562 44.5838L37.1562 44.8838C42.1562 46.3838 47.6562 50.7171 49.6562 53.8838C62.6553 44.3838 88.1553 51.3838 86.6553 78.8838H96.6553C89.6553 67.8838 90.6553 45.8838 93.1562 35.8838Z" fill="#E0426F" stroke="black" stroke-width="0.5"/>
<path d="M10.1543 48.3838H4.1543C36.6545 28.8837 58.6545 34.8838 84.6543 30.3838L93.6545 35.8838C76.6545 36.8838 47.6543 40.3838 33.6543 44.5838C25.6543 44.3838 11.6543 46.3838 10.1543 48.3838Z" fill="#E0426F" stroke="black" stroke-width="0.5"/>
<path d="M37.1558 44.8839C29.6558 43.8838 12.6558 45.8838 10.1558 48.3839C9.35575 50.7838 12.4891 53.7171 14.1558 54.8838C23.6558 56.3838 37.1558 50.3838 37.1558 44.8839Z" fill="#E0426F" stroke="black" stroke-width="0.5"/>
<path d="M4.15499 48.3838C11.155 49.3838 5.15499 59.8838 2.15499 64.8838C1.65492 57.8838 2.15479 52.3838 4.15499 48.3838Z" fill="#E0426F" stroke="black" stroke-width="0.5"/>
<path d="M22.1543 84.3838V79.8838H39.6543L40.1543 84.3838H22.1543Z" fill="#E0426F" stroke="black" stroke-width="0.5"/>
<path d="M2.65625 65.8838C4.15625 68.3838 6.15625 71.5505 5.65625 73.3838M22.1562 79.8838C11.6562 80.3838 7.15625 76.3838 8.15625 72.8838C8.65625 72.3838 10.1562 70.8838 11.1562 70.8838" stroke="black" stroke-width="0.5"/>
<path d="M32.1562 74.8839C29.6562 70.8839 24.1562 65.884 21.1562 64.384C19.4062 63.884 16.7811 64.009 14.031 64.384C12.4061 65.7173 11.1562 68.8839 11.6562 71.8839C11.6562 73.0506 12.9637 75.3839 15.6562 75.3839C20.1562 75.3839 27.1562 75.8839 32.1562 74.8839Z" fill="#E0426F"/>
<path d="M6.15625 65.884C8.40619 65.384 11.2811 64.759 14.031 64.384M14.031 64.384C16.7811 64.009 19.4062 63.884 21.1562 64.384C24.1562 65.884 29.6562 70.8839 32.1562 74.8839C27.1562 75.8839 20.1562 75.3839 15.6562 75.3839C12.9637 75.3839 11.6562 73.0506 11.6562 71.8839C11.1562 68.8839 12.4061 65.7173 14.031 64.384Z" stroke="black" stroke-width="0.5"/>
<path d="M11.6562 71.384C19.6562 69.884 23.1562 72.5125 26.1562 74.0125M13.1562 74.384L30.6562 73.884" stroke="black" stroke-width="0.5"/>
<path d="M22.1543 82.8838H31.6543C33.6543 82.8838 35.1543 80.8838 34.6543 79.8838M38.1543 79.8838V84.3838" stroke="black" stroke-width="0.5"/>
<path d="M22.1562 81.384C17.6562 81.384 13.1562 81.884 1.6562 78.884V76.884L5.6562 74.884V73.384L1.6562 72.884C1.15527 71.3838 0.155469 68.3838 2.15546 65.8838C1.65571 57.8838 2.15571 51.3838 4.1562 48.3835C36.6562 28.8839 58.6562 34.884 84.6562 30.384C162.656 -24.6161 244.656 12.3838 281.656 26.884L295.156 28.8838L295.656 35.8838V38.8838C297.155 43.8838 298.49 48.3838 297.156 50.3838C299.656 51.3838 302.156 54.5505 302.156 56.3838L300.156 66.3838C300.608 77.2317 298.2 77.456 288.868 77.7684C287.877 77.8016 285.808 77.8358 284.656 77.8838V79.3838L259.656 79.8148M22.1562 81.384V84.384H40.1545L39.6562 79.884M22.1562 81.384V79.884H39.6562M39.6562 79.884C36.6562 38.384 90.1562 41.384 86.6562 80.384V82.8838H213.156C207.156 39.3838 261.656 39.3838 259.656 79.8148M259.155 79.8148H259.656" stroke="black"/>
</svg>
