<svg width="303" height="96" viewBox="0 0 303 96" fill="none" xmlns="http://www.w3.org/2000/svg">
<circle cx="62.2817" cy="74.553" r="20.5" fill="#E56E90" stroke="black"/>
<circle cx="235.282" cy="74.553" r="20.5" fill="#E56E90" stroke="black"/>
<path d="M132.28 13.0528L130.78 9.55283C170.78 1.55295 192.28 2.05298 231.28 13.5529L227.78 18.0529C207.78 10.0529 189.78 9.05289 173.78 8.55296C171.28 8.05296 167.28 8.05292 164.78 8.55283C154.78 8.55296 142.78 10.053 132.28 13.0528Z" fill="#E0426F" stroke="black" stroke-width="0.5"/>
<path d="M130.78 9.55302L130.28 8.05302C166.28 -2.94702 198.78 1.05285 234.28 10.053L231.28 13.553C191.28 1.05298 165.28 2.55298 130.78 9.55302Z" fill="#E0426F" stroke="black" stroke-width="0.5"/>
<path d="M130.78 9.55284C182.28 -1.94718 210.78 8.05286 231.28 13.5528" stroke="black" stroke-width="0.5"/>
<path d="M170.282 30.553L173.782 8.55298C207.282 9.55298 218.782 15.053 223.282 16.553L225.764 28.553C198.774 28.5536 181.279 30.0531 170.282 30.553Z" fill="#E0426F"/>
<path d="M226.282 31.053L223.282 16.553C218.782 15.053 207.282 9.55298 173.782 8.55298L170.282 30.553C181.282 30.053 198.782 28.553 225.782 28.553" stroke="black" stroke-width="0.5"/>
<path d="M164.782 8.55298C131.782 9.55298 111.782 18.553 92.7817 36.053L95.2817 34.053L159.282 31.053L164.782 8.55298Z" fill="#E0426F" stroke="black" stroke-width="0.5"/>
<path d="M239.28 23.053C235.614 20.3863 229.78 18.053 223.28 16.553L225.78 28.553H232.28C235.28 27.053 238.28 24.8217 239.28 23.053Z" fill="#E0426F" stroke="black" stroke-width="0.5"/>
<path d="M96.2817 79.053H163.282L197.782 77.553H212.282L212.782 83.053H198.782H97.7817H86.2817V79.053H96.2817Z" fill="#E0426F"/>
<path d="M96.2817 79.053H163.282L197.782 77.553M96.2817 79.053C96.2817 80.553 96.7817 81.553 97.7817 83.053M96.2817 79.053H86.2817V83.053H97.7817M197.782 77.553L198.782 83.053M197.782 77.553H212.282L212.782 83.053H198.782M198.782 83.053H97.7817" stroke="black" stroke-width="0.5"/>
<path d="M96.2809 79.053C91.7817 74.553 88.7818 52.553 92.7809 36.053L164.782 32.053C160.782 37.053 159.782 71.053 163.282 79.053H96.2809Z" fill="#E0426F" stroke="black" stroke-width="0.5"/>
<path d="M228.281 31.053L164.781 32.053C160.781 37.053 159.781 71.053 163.281 79.053L197.781 77.553C202.281 76.053 208.781 70.553 228.281 31.053Z" fill="#E0426F" stroke="black" stroke-width="0.5"/>
<path d="M170.282 30.5531C165.782 31.0531 162.282 31.0531 159.282 31.0531L164.782 8.55305C167.782 8.05298 170.782 8.05298 173.782 8.55305L170.282 30.5531Z" fill="#E0426F" stroke="black" stroke-width="0.5"/>
<path d="M98.7817 32.553C103.282 38.053 110.282 34.553 114.282 33.053C115.282 17.5529 102.282 25.5529 98.7817 32.553Z" fill="#E0426F" stroke="black" stroke-width="0.5"/>
<path d="M234.28 10.053L231.28 13.553C248.28 19.053 258.78 22.053 271.28 28.553H272.78L280.78 27.053C265.78 20.553 258.28 18.053 234.28 10.053Z" fill="#EFC7D3" stroke="black" stroke-width="0.5"/>
<path d="M271.28 28.553C260.78 23.053 241.78 16.553 231.28 13.553L229.28 16.053L244.28 23.553C242.78 26.053 238.78 28.053 232.78 30.753C244.78 30.053 261.78 29.053 271.28 28.553Z" fill="#EFC7D3" stroke="black" stroke-width="0.5"/>
<path d="M276.782 34.853L282.78 32.553L272.281 28.553L228.281 31.053C220.781 46.053 205.781 76.553 197.781 77.553H212.281C210.781 66.553 220.281 43.053 245.282 52.053C255.782 46.553 265.782 41.053 276.782 34.853Z" fill="#EFC7D3" stroke="black" stroke-width="0.5"/>
<path d="M277.78 34.553C265.78 41.053 255.78 46.553 245.28 52.053C249.78 55.053 260.28 61.053 259.28 80.053L284.28 79.553V78.053C292.78 77.053 301.28 80.553 299.78 66.553L301.78 56.553C301.78 55.053 299.28 51.053 296.78 50.553C298.28 48.053 295.28 39.053 295.28 39.053V37.553L291.28 34.553L286.28 33.053L282.78 32.553L277.78 34.553Z" fill="#EFC7D3" stroke="black" stroke-width="0.5"/>
<path d="M280.78 27.053L272.28 28.553L282.78 32.553C292.28 33.553 291.279 35.053 295.274 37.4732L294.78 29.053L280.78 27.053Z" fill="#EFC7D3"/>
<path d="M295.28 37.553L295.274 37.4732M295.274 37.4732L294.78 29.053L280.78 27.053L272.28 28.553L282.78 32.553C292.28 33.553 291.279 35.053 295.274 37.4732Z" stroke="black" stroke-width="0.5"/>
<path d="M293.782 37.0532C293.282 34.5531 282.282 34.353 276.782 34.853" stroke="black" stroke-width="0.5"/>
<path d="M299.782 67.053L260.282 69.053C259.782 64.053 257.615 59.8863 255.782 58.053L301.782 55.553M300.282 53.053C289.282 51.553 278.282 46.753 266.282 40.753M228.282 31.053L272.282 28.553L280.782 27.053" stroke="black" stroke-width="0.5"/>
<path d="M290.282 41.053C290.282 39.053 289.282 35.053 285.782 33.053C288.003 33.053 291.379 34.0934 293.891 36.463C294.354 37.993 293.282 41.553 290.24 43.053C290.226 42.4627 290.282 41.7773 290.282 41.053Z" fill="#EFC7D3"/>
<path d="M272.282 43.553C279.277 43.9028 285.294 44.0079 290.675 44.553M297.282 45.553C295.179 45.1023 292.985 44.7871 290.675 44.553M295.282 38.053C294.864 37.4679 294.395 36.9386 293.891 36.463M290.675 44.553C290.349 44.2082 290.255 43.6852 290.24 43.053M290.24 43.053C290.226 42.4627 290.282 41.7773 290.282 41.053C290.282 39.053 289.282 35.053 285.782 33.053C288.003 33.053 291.379 34.0934 293.891 36.463M290.24 43.053C293.282 41.553 294.354 37.993 293.891 36.463" stroke="black" stroke-width="0.5"/>
<path d="M290.282 41.053C285.782 41.053 283.782 37.053 282.782 34.553" stroke="black" stroke-width="0.5"/>
<path d="M132.28 13.153C118.78 17.153 106.78 23.053 92.7803 36.053C99.7803 24.053 115.28 14.553 130.78 9.55298L132.28 13.153Z" stroke="black" stroke-width="0.5"/>
<path d="M130.78 9.55298C110.78 15.227 92.7803 32.553 84.7803 30.553C97.7803 21.053 113.78 12.553 130.28 8.05298L130.78 9.55298Z" stroke="black" stroke-width="0.5"/>
<path d="M9.78094 48.5529H3.78094C1.28027 52.5529 1.28027 62.5529 1.78094 66.0529C0.280273 67.0529 0.280871 71.5529 1.28094 73.0529L5.28094 73.5529V75.0529L1.28094 77.0529V79.0529C5.28094 80.0529 13.7809 82.0529 21.7809 81.5529V80.0529H39.2809C38.6143 71.5529 40.2809 61.0529 49.2809 54.0529C46.7809 50.0529 39.7809 45.5529 36.7809 45.0529C26.7809 44.0529 11.7809 46.5529 9.78094 48.5529Z" stroke="black" stroke-width="0.5"/>
<path d="M92.7817 36.053C74.9484 36.8863 43.2817 41.753 32.7817 44.753L36.7817 45.053C41.7817 46.553 47.2817 50.8863 49.2817 54.053C62.2808 44.553 87.7808 51.553 86.2808 79.053H96.2808C89.2808 68.053 90.2808 46.053 92.7817 36.053Z" stroke="black" stroke-width="0.5"/>
<path d="M9.78027 48.553H3.78027C36.2805 29.0529 58.2805 35.053 84.2803 30.553L93.2805 36.053C76.2805 37.053 47.2803 40.553 33.2803 44.753C25.2803 44.553 11.2803 46.553 9.78027 48.553Z" stroke="black" stroke-width="0.5"/>
<path d="M36.7817 45.0531C29.2817 44.053 12.2817 46.053 9.78173 48.5531C8.98173 50.953 12.1151 53.8863 13.7817 55.053C23.2817 56.553 36.7817 50.553 36.7817 45.0531Z" stroke="black" stroke-width="0.5"/>
<path d="M3.78097 48.553C10.781 49.553 4.78097 60.053 1.78097 65.053C1.2809 58.053 1.78076 52.553 3.78097 48.553Z" stroke="black" stroke-width="0.5"/>
<path d="M21.7803 84.553V80.053H39.2803L39.7803 84.553H21.7803Z" stroke="black" stroke-width="0.5"/>
<path d="M2.28223 66.0527C3.78223 68.5527 5.78223 71.7194 5.28223 73.5527M21.7822 80.0527C11.2822 80.5527 6.78223 76.5527 7.78223 73.0527C8.28223 72.5527 9.78223 71.0527 10.7822 71.0527" stroke="black" stroke-width="0.5"/>
<path d="M5.78223 66.0529C8.03217 65.5529 10.9071 64.9279 13.657 64.5529M13.657 64.5529C16.4071 64.1779 19.0322 64.0529 20.7822 64.5529C23.7822 66.0529 29.2822 71.0529 31.7822 75.0529C26.7822 76.0529 19.7822 75.5529 15.2822 75.5529C12.5896 75.5529 11.2822 73.2195 11.2822 72.0529C10.7822 69.0529 12.0321 65.8862 13.657 64.5529Z" stroke="black" stroke-width="0.5"/>
<path d="M11.2822 71.5529C19.2822 70.053 22.7822 72.6815 25.7822 74.1815M12.7822 74.553L30.2822 74.053" stroke="black" stroke-width="0.5"/>
<path d="M21.7803 83.0527H31.2803C33.2803 83.0527 34.7803 81.0527 34.2803 80.0527M37.7803 80.0527V84.5527" stroke="black" stroke-width="0.5"/>
<path d="M21.7817 81.5532C17.2817 81.5532 12.7817 82.0532 1.28168 79.0532V77.0532L5.28168 75.0532V73.5532L1.28168 73.0532C0.780762 71.553 -0.219042 68.553 1.78095 66.053C1.2812 58.053 1.7812 51.553 3.78168 48.5527C36.2817 29.0531 58.2817 35.0532 84.2817 30.5532C162.282 -24.4469 244.282 12.553 281.282 27.0532L294.782 29.053L295.282 36.053V39.053C296.78 44.053 298.115 48.553 296.782 50.553C299.282 51.553 301.782 54.7196 301.782 56.553L299.782 66.553C300.234 77.4009 297.826 77.6252 288.494 77.9376C287.503 77.9708 285.434 78.005 284.282 78.053V79.553L259.282 79.984M21.7817 81.5532V84.5532H39.78L39.2817 80.0532M21.7817 81.5532V80.0532H39.2817M39.2817 80.0532C36.2817 38.5532 89.7817 41.5532 86.2817 80.5532V83.053H212.782C206.782 39.553 261.282 39.553 259.282 79.984M258.78 79.984H259.282" stroke="black"/>
</svg>
