<svg width="303" height="95" viewBox="0 0 303 95" fill="none" xmlns="http://www.w3.org/2000/svg">
<circle cx="62.4897" cy="73.8611" r="20.5" fill="#E0426F" stroke="black"/>
<circle cx="235.49" cy="73.8611" r="20.5" fill="#E0426F" stroke="black"/>
<path d="M132.488 12.3609L130.988 8.86094C170.988 0.861052 192.488 1.36108 231.488 12.861L227.988 17.361C207.988 9.36099 189.988 8.36099 173.988 7.86106C171.488 7.36106 167.488 7.36102 164.988 7.86094C154.988 7.86106 142.988 9.36106 132.488 12.3609Z" fill="#EDADBF" stroke="black" stroke-width="0.5"/>
<path d="M130.988 8.86113L130.488 7.36113C166.488 -3.63892 198.988 0.360958 234.488 9.36113L231.488 12.8611C191.488 0.361084 165.488 1.86108 130.988 8.86113Z" fill="#EDADBF" stroke="black" stroke-width="0.5"/>
<path d="M130.988 8.86095C182.488 -2.63908 210.988 7.36096 231.488 12.8609" stroke="black" stroke-width="0.5"/>
<path d="M170.49 29.8611L173.99 7.86108C207.49 8.86108 218.99 14.3611 223.49 15.8611L225.973 27.8611C198.982 27.8617 181.487 29.3612 170.49 29.8611Z" fill="#EDADBF"/>
<path d="M226.49 30.3611L223.49 15.8611C218.99 14.3611 207.49 8.86108 173.99 7.86108L170.49 29.8611C181.49 29.3611 198.99 27.8611 225.99 27.8611" stroke="black" stroke-width="0.5"/>
<path d="M164.99 7.86108C131.99 8.86108 111.99 17.8611 92.9897 35.3611L95.4897 33.3611L159.49 30.3611L164.99 7.86108Z" fill="#EDADBF" stroke="black" stroke-width="0.5"/>
<path d="M239.488 22.3611C235.822 19.6944 229.988 17.3611 223.488 15.8611L225.988 27.8611H232.488C235.488 26.3611 238.488 24.1298 239.488 22.3611Z" fill="#EDADBF" stroke="black" stroke-width="0.5"/>
<path d="M96.4897 78.3611H163.49L197.99 76.8611H212.49L212.99 82.3611H198.99H97.9897H86.4897V78.3611H96.4897Z" fill="#EDADBF"/>
<path d="M96.4897 78.3611H163.49L197.99 76.8611M96.4897 78.3611C96.4897 79.8611 96.9897 80.8611 97.9897 82.3611M96.4897 78.3611H86.4897V82.3611H97.9897M197.99 76.8611L198.99 82.3611M197.99 76.8611H212.49L212.99 82.3611H198.99M198.99 82.3611H97.9897" stroke="black" stroke-width="0.5"/>
<path d="M96.4889 78.3611C91.9897 73.8611 88.9898 51.8611 92.9889 35.3611L164.99 31.3611C160.99 36.3611 159.99 70.3611 163.49 78.3611H96.4889Z" fill="#EDADBF" stroke="black" stroke-width="0.5"/>
<path d="M228.489 30.3611L164.989 31.3611C160.989 36.3611 159.99 70.3611 163.489 78.3611L197.989 76.8611C202.489 75.3611 208.989 69.8611 228.489 30.3611Z" fill="#EDADBF" stroke="black" stroke-width="0.5"/>
<path d="M170.49 29.8612C165.99 30.3612 162.49 30.3612 159.49 30.3612L164.99 7.86116C167.99 7.36108 170.99 7.36108 173.99 7.86116L170.49 29.8612Z" fill="#EDADBF" stroke="black" stroke-width="0.5"/>
<path d="M98.9897 31.8611C103.49 37.3611 110.49 33.8611 114.49 32.3611C115.49 16.861 102.49 24.861 98.9897 31.8611Z" fill="#EDADBF" stroke="black" stroke-width="0.5"/>
<path d="M234.488 9.36108L231.488 12.8611C248.488 18.3611 258.988 21.3611 271.488 27.8611H272.988L280.988 26.3611C265.988 19.8611 258.488 17.3611 234.488 9.36108Z" stroke="black" stroke-width="0.5"/>
<path d="M271.488 27.8611C260.988 22.3611 241.988 15.8611 231.488 12.8611L229.488 15.3611L244.488 22.8611C242.988 25.3611 238.988 27.3611 232.988 30.0611C244.988 29.3611 261.988 28.3611 271.488 27.8611Z" stroke="black" stroke-width="0.5"/>
<path d="M276.99 34.1611L282.988 31.8611L272.489 27.8611L228.489 30.3611C220.989 45.3611 205.989 75.8611 197.989 76.8611H212.489C210.989 65.8611 220.489 42.3611 245.49 51.3611C255.99 45.8611 265.99 40.3611 276.99 34.1611Z" stroke="black" stroke-width="0.5"/>
<path d="M277.988 33.8611C265.988 40.3611 255.988 45.8611 245.488 51.3611C249.988 54.3611 260.488 60.3611 259.488 79.3611L284.488 78.8611V77.3611C292.988 76.3611 301.488 79.8611 299.988 65.8611L301.988 55.8611C301.988 54.3611 299.488 50.3611 296.988 49.8611C298.488 47.3611 295.488 38.3611 295.488 38.3611V36.8611L291.488 33.8611L286.488 32.3611L282.988 31.8611L277.988 33.8611Z" stroke="black" stroke-width="0.5"/>
<path d="M295.488 36.8611L295.482 36.7813M295.482 36.7813L294.988 28.3611L280.988 26.3611L272.488 27.8611L282.988 31.8611C292.488 32.8611 291.487 34.3611 295.482 36.7813Z" stroke="black" stroke-width="0.5"/>
<path d="M293.99 36.3613C293.49 33.8612 282.49 33.6611 276.99 34.1611" stroke="black" stroke-width="0.5"/>
<path d="M299.99 66.3611L260.49 68.3611C259.99 63.3611 257.823 59.1944 255.99 57.3611L301.99 54.8611M300.49 52.3611C289.49 50.8611 278.49 46.0611 266.49 40.0611M228.49 30.3611L272.49 27.8611L280.99 26.3611" stroke="black" stroke-width="0.5"/>
<path d="M272.49 42.8611C279.485 43.2109 285.502 43.316 290.883 43.8611M297.49 44.8611C295.387 44.4104 293.194 44.0952 290.883 43.8611M295.49 37.3611C295.072 36.776 294.603 36.2467 294.099 35.7711M290.883 43.8611C290.557 43.5163 290.463 42.9933 290.448 42.3611M290.448 42.3611C290.434 41.7708 290.49 41.0854 290.49 40.3611C290.49 38.3611 289.49 34.3611 285.99 32.3611C288.211 32.3611 291.587 33.4015 294.099 35.7711M290.448 42.3611C293.49 40.8611 294.562 37.3011 294.099 35.7711" stroke="black" stroke-width="0.5"/>
<path d="M290.49 40.3611C285.99 40.3611 283.99 36.3611 282.99 33.8611" stroke="black" stroke-width="0.5"/>
<path d="M132.488 12.4611C118.988 16.4611 106.988 22.3611 92.9883 35.3611C99.9883 23.3611 115.488 13.8611 130.988 8.86108L132.488 12.4611Z" stroke="black" stroke-width="0.5"/>
<path d="M130.988 8.86108C110.988 14.5351 92.9883 31.8611 84.9883 29.8611C97.9883 20.3611 113.988 11.8611 130.488 7.36108L130.988 8.86108Z" stroke="black" stroke-width="0.5"/>
<path d="M9.98895 47.861H3.98895C1.48828 51.861 1.48828 61.861 1.98895 65.361C0.488281 66.361 0.488879 70.861 1.48895 72.361L5.48895 72.861V74.361L1.48895 76.361V78.361C5.48895 79.361 13.9889 81.361 21.9889 80.861V79.361H39.4889C38.8223 70.861 40.4889 60.361 49.4889 53.361C46.9889 49.361 39.9889 44.861 36.9889 44.361C26.9889 43.361 11.9889 45.861 9.98895 47.861Z" stroke="black" stroke-width="0.5"/>
<path d="M92.9897 35.3611C75.1564 36.1944 43.4897 41.0611 32.9897 44.0611L36.9897 44.3611C41.9897 45.8611 47.4897 50.1944 49.4897 53.3611C62.4888 43.8611 87.9888 50.8611 86.4888 78.3611H96.4888C89.4888 67.3611 90.4888 45.3611 92.9897 35.3611Z" stroke="black" stroke-width="0.5"/>
<path d="M9.98828 47.8611H3.98828C36.4885 28.361 58.4885 34.3611 84.4883 29.8611L93.4885 35.3611C76.4885 36.3611 47.4883 39.8611 33.4883 44.0611C25.4883 43.8611 11.4883 45.8611 9.98828 47.8611Z" stroke="black" stroke-width="0.5"/>
<path d="M36.9897 44.3612C29.4897 43.3611 12.4897 45.3611 9.98974 47.8612C9.18974 50.2611 12.3231 53.1944 13.9897 54.3611C23.4897 55.8611 36.9897 49.8611 36.9897 44.3612Z" stroke="black" stroke-width="0.5"/>
<path d="M3.98898 47.8611C10.989 48.8611 4.98898 59.3611 1.98898 64.3611C1.48891 57.3611 1.98877 51.8611 3.98898 47.8611Z" stroke="black" stroke-width="0.5"/>
<path d="M21.9883 83.8611V79.3611H39.4883L39.9883 83.8611H21.9883Z" stroke="black" stroke-width="0.5"/>
<path d="M2.49023 65.3608C3.99023 67.8608 5.99023 71.0275 5.49023 72.8608M21.9902 79.3608C11.4902 79.8608 6.99023 75.8608 7.99023 72.3608C8.49023 71.8608 9.99023 70.3608 10.9902 70.3608" stroke="black" stroke-width="0.5"/>
<path d="M5.99023 65.361C8.24018 64.861 11.1151 64.236 13.865 63.861M13.865 63.861C16.6151 63.486 19.2402 63.361 20.9902 63.861C23.9902 65.361 29.4902 70.361 31.9902 74.361C26.9902 75.361 19.9902 74.861 15.4902 74.861C12.7977 74.861 11.4902 72.5276 11.4902 71.361C10.9902 68.361 12.2401 65.1943 13.865 63.861Z" stroke="black" stroke-width="0.5"/>
<path d="M11.4902 70.861C19.4902 69.3611 22.9902 71.9896 25.9902 73.4896M12.9902 73.8611L30.4902 73.3611" stroke="black" stroke-width="0.5"/>
<path d="M21.9883 82.3608H31.4883C33.4883 82.3608 34.9883 80.3608 34.4883 79.3608M37.9883 79.3608V83.8608" stroke="black" stroke-width="0.5"/>
<path d="M21.9897 80.8613C17.4897 80.8613 12.9897 81.3613 1.48969 78.3613V76.3613L5.48969 74.3613V72.8613L1.48969 72.3613C0.98877 70.8611 -0.0110346 67.8611 1.98896 65.3611C1.4892 57.3611 1.9892 50.8611 3.98969 47.8608C36.4897 28.3612 58.4897 34.3613 84.4897 29.8613C162.49 -25.1388 244.49 11.8611 281.49 26.3613L294.99 28.3611L295.49 35.3611V38.3611C296.988 43.3611 298.323 47.8611 296.99 49.8611C299.49 50.8611 301.99 54.0278 301.99 55.8611L299.99 65.8611C300.442 76.709 298.034 76.9333 288.702 77.2457C287.711 77.2789 285.642 77.3131 284.49 77.3611V78.8611L259.49 79.2921M21.9897 80.8613V83.8613H39.988L39.4897 79.3613M21.9897 80.8613V79.3613H39.4897M39.4897 79.3613C36.4897 37.8613 89.9897 40.8613 86.4897 79.8613V82.3611H212.99C206.99 38.8611 261.49 38.8611 259.49 79.2921M258.988 79.2921H259.49" stroke="black"/>
</svg>
