<svg width="303" height="96" viewBox="0 0 303 96" fill="none" xmlns="http://www.w3.org/2000/svg">
<circle cx="62.2725" cy="74.3838" r="20.5" fill="#E56E90" stroke="black"/>
<circle cx="235.272" cy="74.3838" r="20.5" fill="#E56E90" stroke="black"/>
<path d="M132.271 12.8836L130.771 9.38364C170.771 1.38376 192.271 1.88379 231.271 13.3837L227.771 17.8837C207.771 9.8837 189.771 8.8837 173.771 8.38377C171.271 7.88377 167.271 7.88373 164.771 8.38364C154.771 8.38377 142.771 9.88377 132.271 12.8836Z" fill="#E56E90" stroke="black" stroke-width="0.5"/>
<path d="M130.771 9.38383L130.271 7.88383C166.271 -3.11621 198.771 0.883663 234.271 9.88383L231.271 13.3838C191.271 0.883789 165.271 2.38379 130.771 9.38383Z" fill="#E56E90" stroke="black" stroke-width="0.5"/>
<path d="M130.771 9.3839C182.271 -2.11613 210.771 7.88391 231.271 13.3839" stroke="black" stroke-width="0.5"/>
<path d="M170.272 30.3838L173.772 8.38379C207.272 9.38379 218.772 14.8838 223.272 16.3838L225.755 28.3838C198.765 28.3844 181.27 29.8839 170.272 30.3838Z" fill="#E56E90"/>
<path d="M226.272 30.8838L223.272 16.3838C218.772 14.8838 207.272 9.38379 173.772 8.38379L170.272 30.3838C181.272 29.8838 198.772 28.3838 225.772 28.3838" stroke="black" stroke-width="0.5"/>
<path d="M164.772 8.38379C131.772 9.38379 111.772 18.3838 92.7725 35.8838L95.2725 33.8838L159.272 30.8838L164.772 8.38379Z" fill="#E56E90" stroke="black" stroke-width="0.5"/>
<path d="M239.271 22.8838C235.604 20.2171 229.771 17.8838 223.271 16.3838L225.771 28.3838H232.271C235.271 26.8838 238.271 24.6525 239.271 22.8838Z" fill="#E56E90" stroke="black" stroke-width="0.5"/>
<path d="M96.2725 78.8838H163.272L197.772 77.3838H212.272L212.772 82.8838H198.772H97.7725H86.2725V78.8838H96.2725Z" fill="#E56E90"/>
<path d="M96.2725 78.8838H163.272L197.772 77.3838M96.2725 78.8838C96.2725 80.3838 96.7725 81.3838 97.7725 82.8838M96.2725 78.8838H86.2725V82.8838H97.7725M197.772 77.3838L198.772 82.8838M197.772 77.3838H212.272L212.772 82.8838H198.772M198.772 82.8838H97.7725" stroke="black" stroke-width="0.5"/>
<path d="M96.2716 78.8838C91.7725 74.3838 88.7725 52.3838 92.7716 35.8838L164.772 31.8838C160.772 36.8838 159.772 70.8838 163.272 78.8838H96.2716Z" fill="#E56E90" stroke="black" stroke-width="0.5"/>
<path d="M228.272 30.8838L164.772 31.8838C160.773 36.8838 159.773 70.8838 163.272 78.8838L197.772 77.3838C202.272 75.8838 208.772 70.3838 228.272 30.8838Z" fill="#E56E90" stroke="black" stroke-width="0.5"/>
<path d="M170.272 30.3839C165.772 30.8839 162.272 30.8839 159.272 30.8839L164.772 8.38386C167.772 7.88379 170.772 7.88379 173.772 8.38386L170.272 30.3839Z" fill="#E56E90" stroke="black" stroke-width="0.5"/>
<path d="M98.7725 32.384C103.272 37.884 110.272 34.384 114.272 32.884C115.272 17.3839 102.272 25.3839 98.7725 32.384Z" fill="#E56E90" stroke="black" stroke-width="0.5"/>
<path d="M234.271 9.88379L231.271 13.3838C248.271 18.8838 258.771 21.8838 271.271 28.3838H272.771L280.771 26.8838C265.771 20.3838 258.271 17.8838 234.271 9.88379Z" fill="#EDADBF" stroke="black" stroke-width="0.5"/>
<path d="M271.271 28.3838C260.771 22.8838 241.771 16.3838 231.271 13.3838L229.271 15.8838L244.271 23.3838C242.771 25.8838 238.771 27.8838 232.771 30.5838C244.771 29.8838 261.771 28.8838 271.271 28.3838Z" fill="#EDADBF" stroke="black" stroke-width="0.5"/>
<path d="M276.772 34.6838L282.771 32.3838L272.271 28.3838L228.271 30.8838C220.771 45.8838 205.771 76.3838 197.771 77.3838H212.271C210.771 66.3838 220.271 42.8838 245.272 51.8838C255.772 46.3838 265.772 40.8838 276.772 34.6838Z" fill="#EDADBF" stroke="black" stroke-width="0.5"/>
<path d="M277.771 34.3838C265.771 40.8838 255.771 46.3838 245.271 51.8838C249.771 54.8838 260.271 60.8838 259.271 79.8838L284.271 79.3838V77.8838C292.771 76.8838 301.271 80.3838 299.771 66.3838L301.771 56.3838C301.771 54.8838 299.271 50.8838 296.771 50.3838C298.271 47.8838 295.271 38.8838 295.271 38.8838V37.3838L291.271 34.3838L286.271 32.8838L282.771 32.3838L277.771 34.3838Z" fill="#EDADBF" stroke="black" stroke-width="0.5"/>
<path d="M280.771 26.8838L272.271 28.3838L282.771 32.3838C292.271 33.3838 291.269 34.8838 295.265 37.304L294.771 28.8838L280.771 26.8838Z" fill="#EDADBF"/>
<path d="M295.271 37.3838L295.265 37.304M295.265 37.304L294.771 28.8838L280.771 26.8838L272.271 28.3838L282.771 32.3838C292.271 33.3838 291.269 34.8838 295.265 37.304Z" stroke="black" stroke-width="0.5"/>
<path d="M293.772 36.884C293.272 34.3839 282.272 34.1838 276.772 34.6838" stroke="black" stroke-width="0.5"/>
<path d="M299.772 66.8838L260.272 68.8838C259.772 63.8838 257.606 59.7171 255.772 57.8838L301.772 55.3838M300.272 52.8838C289.272 51.3838 278.272 46.5838 266.272 40.5838M228.272 30.8838L272.272 28.3838L280.772 26.8838" stroke="black" stroke-width="0.5"/>
<path d="M290.272 40.8838C290.272 38.8838 289.272 34.8838 285.772 32.8838C287.993 32.8838 291.37 33.9242 293.881 36.2938C294.345 37.8238 293.272 41.3838 290.231 42.8838C290.217 42.2935 290.272 41.6081 290.272 40.8838Z" fill="#EDADBF"/>
<path d="M272.272 43.3838C279.268 43.7336 285.285 43.8387 290.666 44.3838M297.272 45.3838C295.169 44.9331 292.976 44.6179 290.666 44.3838M295.272 37.8838C294.855 37.2987 294.385 36.7694 293.881 36.2938M290.666 44.3838C290.339 44.039 290.245 43.516 290.231 42.8838M290.231 42.8838C290.217 42.2935 290.272 41.6081 290.272 40.8838C290.272 38.8838 289.272 34.8838 285.772 32.8838C287.993 32.8838 291.37 33.9242 293.881 36.2938M290.231 42.8838C293.272 41.3838 294.345 37.8238 293.881 36.2938" stroke="black" stroke-width="0.5"/>
<path d="M290.272 40.8838C285.772 40.8838 283.772 36.8838 282.772 34.3838" stroke="black" stroke-width="0.5"/>
<path d="M132.271 12.9838C118.771 16.9838 106.771 22.8838 92.7705 35.8838C99.7705 23.8838 115.271 14.3838 130.771 9.38379L132.271 12.9838Z" fill="#E0426F" stroke="black" stroke-width="0.5"/>
<path d="M130.771 9.38379C110.771 15.0578 92.7705 32.3838 84.7705 30.3838C97.7705 20.8838 113.771 12.3838 130.271 7.88379L130.771 9.38379Z" fill="#E0426F" stroke="black" stroke-width="0.5"/>
<path d="M9.77118 48.3837H3.77118C1.27051 52.3837 1.27051 62.3837 1.77118 65.8837C0.270508 66.8837 0.271105 71.3837 1.27118 72.8837L5.27118 73.3837V74.8837L1.27118 76.8837V78.8837C5.27118 79.8837 13.7712 81.8837 21.7712 81.3837V79.8837H39.2712C38.6045 71.3837 40.2712 60.8837 49.2712 53.8837C46.7712 49.8837 39.7712 45.3837 36.7712 44.8837C26.7712 43.8837 11.7712 46.3837 9.77118 48.3837Z" fill="#E0426F" stroke="black" stroke-width="0.5"/>
<path d="M92.7725 35.8838C74.9391 36.7171 43.2725 41.5838 32.7725 44.5838L36.7725 44.8838C41.7725 46.3838 47.2725 50.7171 49.2725 53.8838C62.2715 44.3838 87.7715 51.3838 86.2715 78.8838H96.2715C89.2715 67.8838 90.2715 45.8838 92.7725 35.8838Z" fill="#E0426F" stroke="black" stroke-width="0.5"/>
<path d="M9.77051 48.3838H3.77051C36.2707 28.8837 58.2708 34.8838 84.2705 30.3838L93.2708 35.8838C76.2708 36.8838 47.2705 40.3838 33.2705 44.5838C25.2705 44.3838 11.2705 46.3838 9.77051 48.3838Z" fill="#E0426F" stroke="black" stroke-width="0.5"/>
<path d="M36.772 44.8839C29.272 43.8838 12.272 45.8838 9.77196 48.3839C8.97196 50.7838 12.1053 53.7171 13.772 54.8838C23.272 56.3838 36.772 50.3838 36.772 44.8839Z" fill="#E0426F" stroke="black" stroke-width="0.5"/>
<path d="M3.7712 48.3838C10.7712 49.3838 4.7712 59.8838 1.7712 64.8838C1.27113 57.8838 1.771 52.3838 3.7712 48.3838Z" fill="#E0426F" stroke="black" stroke-width="0.5"/>
<path d="M21.7705 84.3838V79.8838H39.2705L39.7705 84.3838H21.7705Z" fill="#E0426F" stroke="black" stroke-width="0.5"/>
<path d="M2.27246 65.8838C3.77246 68.3838 5.77246 71.5505 5.27246 73.3838M21.7725 79.8838C11.2725 80.3838 6.77246 76.3838 7.77246 72.8838C8.27246 72.3838 9.77246 70.8838 10.7725 70.8838" stroke="black" stroke-width="0.5"/>
<path d="M31.7725 74.8839C29.2725 70.8839 23.7725 65.884 20.7725 64.384C19.0224 63.884 16.3973 64.009 13.6472 64.384C12.0223 65.7173 10.7725 68.8839 11.2725 71.8839C11.2725 73.0506 12.5799 75.3839 15.2725 75.3839C19.7725 75.3839 26.7725 75.8839 31.7725 74.8839Z" fill="#E0426F"/>
<path d="M5.77246 65.884C8.0224 65.384 10.8973 64.759 13.6472 64.384M13.6472 64.384C16.3973 64.009 19.0224 63.884 20.7725 64.384C23.7725 65.884 29.2725 70.8839 31.7725 74.8839C26.7725 75.8839 19.7725 75.3839 15.2725 75.3839C12.5799 75.3839 11.2725 73.0506 11.2725 71.8839C10.7725 68.8839 12.0223 65.7173 13.6472 64.384Z" stroke="black" stroke-width="0.5"/>
<path d="M11.2725 71.384C19.2725 69.884 22.7725 72.5125 25.7725 74.0125M12.7725 74.384L30.2725 73.884" stroke="black" stroke-width="0.5"/>
<path d="M21.7705 82.8838H31.2705C33.2705 82.8838 34.7705 80.8838 34.2705 79.8838M37.7705 79.8838V84.3838" stroke="black" stroke-width="0.5"/>
<path d="M21.7724 81.384C17.2724 81.384 12.7724 81.884 1.27241 78.884V76.884L5.27241 74.884V73.384L1.27241 72.884C0.771484 71.3838 -0.22832 68.3838 1.77168 65.8838C1.27192 57.8838 1.77192 51.3838 3.77241 48.3835C36.2724 28.8839 58.2724 34.884 84.2724 30.384C162.272 -24.6161 244.272 12.3838 281.272 26.884L294.772 28.8838L295.272 35.8838V38.8838C296.771 43.8838 298.106 48.3838 296.772 50.3838C299.272 51.3838 301.772 54.5505 301.772 56.3838L299.772 66.3838C300.224 77.2317 297.816 77.456 288.485 77.7684C287.494 77.8016 285.425 77.8358 284.272 77.8838V79.3838L259.272 79.8148M21.7724 81.384V84.384H39.7708L39.2724 79.884M21.7724 81.384V79.884H39.2724M39.2724 79.884C36.2724 38.384 89.7724 41.384 86.2724 80.384V82.8838H212.772C206.772 39.3838 261.272 39.3838 259.272 79.8148M258.771 79.8148H259.272" stroke="black"/>
</svg>
