<svg width="303" height="95" viewBox="0 0 303 95" fill="none" xmlns="http://www.w3.org/2000/svg">
<circle cx="62.6562" cy="73.6919" r="20.5" stroke="black"/>
<circle cx="235.656" cy="73.6919" r="20.5" stroke="black"/>
<path d="M132.654 12.1918L131.154 8.69175C171.154 0.691862 192.654 1.19189 231.654 12.6918L228.154 17.1918C208.154 9.1918 190.154 8.1918 174.154 7.69187C171.654 7.19187 167.654 7.19183 165.154 7.69175C155.154 7.69187 143.154 9.19187 132.654 12.1918Z" fill="#EFC7D3" stroke="black" stroke-width="0.5"/>
<path d="M131.154 8.69194L130.654 7.19194C166.654 -3.80811 199.154 0.191769 234.654 9.19194L231.654 12.6919C191.654 0.191895 165.654 1.69189 131.154 8.69194Z" fill="#EFC7D3" stroke="black" stroke-width="0.5"/>
<path d="M131.154 8.692C182.654 -2.80802 211.154 7.19202 231.654 12.692" stroke="black" stroke-width="0.5"/>
<path d="M170.656 29.6919L174.156 7.69189C207.656 8.69189 219.156 14.1919 223.656 15.6919L226.139 27.6919C199.149 27.6925 181.654 29.192 170.656 29.6919Z" fill="#EFC7D3"/>
<path d="M226.656 30.1919L223.656 15.6919C219.156 14.1919 207.656 8.69189 174.156 7.69189L170.656 29.6919C181.656 29.1919 199.156 27.6919 226.156 27.6919" stroke="black" stroke-width="0.5"/>
<path d="M165.156 7.69189C132.156 8.69189 112.156 17.6919 93.1562 35.1919L95.6562 33.1919L159.656 30.1919L165.156 7.69189Z" fill="#EFC7D3" stroke="black" stroke-width="0.5"/>
<path d="M239.654 22.1919C235.988 19.5252 230.154 17.1919 223.654 15.6919L226.154 27.6919H232.654C235.654 26.1919 238.654 23.9606 239.654 22.1919Z" fill="#EFC7D3" stroke="black" stroke-width="0.5"/>
<path d="M96.6562 78.1919H163.656L198.156 76.6919H212.656L213.156 82.1919H199.156H98.1562H86.6562V78.1919H96.6562Z" fill="#EFC7D3"/>
<path d="M96.6562 78.1919H163.656L198.156 76.6919M96.6562 78.1919C96.6562 79.6919 97.1562 80.6919 98.1562 82.1919M96.6562 78.1919H86.6562V82.1919H98.1562M198.156 76.6919L199.156 82.1919M198.156 76.6919H212.656L213.156 82.1919H199.156M199.156 82.1919H98.1562" stroke="black" stroke-width="0.5"/>
<path d="M96.6554 78.1919C92.1562 73.6919 89.1563 51.6919 93.1554 35.1919L165.156 31.1919C161.156 36.1919 160.156 70.1919 163.656 78.1919H96.6554Z" fill="#EFC7D3" stroke="black" stroke-width="0.5"/>
<path d="M228.656 30.1919L165.156 31.1919C161.156 36.1919 160.156 70.1919 163.656 78.1919L198.156 76.6919C202.656 75.1919 209.156 69.6919 228.656 30.1919Z" fill="#EFC7D3" stroke="black" stroke-width="0.5"/>
<path d="M170.656 29.692C166.156 30.192 162.656 30.192 159.656 30.192L165.156 7.69197C168.156 7.19189 171.156 7.19189 174.156 7.69197L170.656 29.692Z" fill="#EFC7D3" stroke="black" stroke-width="0.5"/>
<path d="M99.1562 31.6922C103.656 37.1922 110.656 33.6922 114.656 32.1922C115.656 16.692 102.656 24.692 99.1562 31.6922Z" fill="#EFC7D3" stroke="black" stroke-width="0.5"/>
<path d="M234.654 9.19189L231.654 12.6919C248.654 18.1919 259.154 21.1919 271.654 27.6919H273.154L281.154 26.1919C266.154 19.6919 258.654 17.1919 234.654 9.19189Z" fill="#E0426F" stroke="black" stroke-width="0.5"/>
<path d="M271.654 27.6919C261.154 22.1919 242.154 15.6919 231.654 12.6919L229.654 15.1919L244.654 22.6919C243.154 25.1919 239.154 27.1919 233.154 29.8919C245.154 29.1919 262.154 28.1919 271.654 27.6919Z" fill="#E0426F" stroke="black" stroke-width="0.5"/>
<path d="M277.156 33.9919L283.155 31.6919L272.655 27.6919L228.655 30.1919C221.155 45.1919 206.155 75.6919 198.155 76.6919H212.655C211.155 65.6919 220.655 42.1919 245.656 51.1919C256.156 45.6919 266.156 40.1919 277.156 33.9919Z" fill="#E0426F" stroke="black" stroke-width="0.5"/>
<path d="M278.154 33.6919C266.154 40.1919 256.154 45.6919 245.654 51.1919C250.154 54.1919 260.654 60.1919 259.654 79.1919L284.654 78.6919V77.1919C293.154 76.1919 301.654 79.6919 300.154 65.6919L302.154 55.6919C302.154 54.1919 299.654 50.1919 297.154 49.6919C298.654 47.1919 295.654 38.1919 295.654 38.1919V36.6919L291.654 33.6919L286.654 32.1919L283.154 31.6919L278.154 33.6919Z" fill="#E0426F" stroke="black" stroke-width="0.5"/>
<path d="M281.154 26.1919L272.654 27.6919L283.154 31.6919C292.654 32.6919 291.653 34.1919 295.648 36.6121L295.154 28.1919L281.154 26.1919Z" fill="#E0426F"/>
<path d="M295.654 36.6919L295.648 36.6121M295.648 36.6121L295.154 28.1919L281.154 26.1919L272.654 27.6919L283.154 31.6919C292.654 32.6919 291.653 34.1919 295.648 36.6121Z" stroke="black" stroke-width="0.5"/>
<path d="M294.156 36.1921C293.656 33.692 282.656 33.4919 277.156 33.9919" stroke="black" stroke-width="0.5"/>
<path d="M300.156 66.1919L260.656 68.1919C260.156 63.1919 257.99 59.0252 256.156 57.1919L302.156 54.6919M300.656 52.1919C289.656 50.6919 278.656 45.8919 266.656 39.8919M228.656 30.1919L272.656 27.6919L281.156 26.1919" stroke="black" stroke-width="0.5"/>
<path d="M290.656 40.1919C290.656 38.1919 289.656 34.1919 286.156 32.1919C288.377 32.1919 291.754 33.2323 294.265 35.6019C294.729 37.1319 293.656 40.6919 290.614 42.1919C290.601 41.6016 290.656 40.9162 290.656 40.1919Z" fill="#E0426F"/>
<path d="M272.656 42.6919C279.652 43.0417 285.669 43.1468 291.049 43.6919M297.656 44.6919C295.553 44.2413 293.36 43.926 291.049 43.6919M295.656 37.1919C295.238 36.6068 294.769 36.0775 294.265 35.6019M291.049 43.6919C290.723 43.3471 290.629 42.8241 290.614 42.1919M290.614 42.1919C290.601 41.6016 290.656 40.9162 290.656 40.1919C290.656 38.1919 289.656 34.1919 286.156 32.1919C288.377 32.1919 291.754 33.2323 294.265 35.6019M290.614 42.1919C293.656 40.6919 294.729 37.1319 294.265 35.6019" stroke="black" stroke-width="0.5"/>
<path d="M290.656 40.1919C286.156 40.1919 284.156 36.1919 283.156 33.6919" stroke="black" stroke-width="0.5"/>
<path d="M132.654 12.2919C119.154 16.2919 107.154 22.1919 93.1543 35.1919C100.154 23.1919 115.654 13.6919 131.154 8.69189L132.654 12.2919Z" fill="#E0426F" stroke="black" stroke-width="0.5"/>
<path d="M131.154 8.69189C111.154 14.3659 93.1543 31.6919 85.1543 29.6919C98.1543 20.1919 114.154 11.6919 130.654 7.19189L131.154 8.69189Z" fill="#E0426F" stroke="black" stroke-width="0.5"/>
<path d="M10.155 47.6918H4.15496C1.6543 51.6918 1.6543 61.6918 2.15496 65.1918C0.654297 66.1918 0.654894 70.6918 1.65496 72.1918L5.65496 72.6918V74.1918L1.65496 76.1918V78.1918C5.65496 79.1918 14.155 81.1918 22.155 80.6918V79.1918H39.655C38.9883 70.6918 40.655 60.1918 49.655 53.1918C47.155 49.1918 40.155 44.6918 37.155 44.1918C27.155 43.1918 12.155 45.6918 10.155 47.6918Z" fill="#E0426F" stroke="black" stroke-width="0.5"/>
<path d="M93.1562 35.1919C75.3229 36.0252 43.6562 40.8919 33.1562 43.8919L37.1562 44.1919C42.1562 45.6919 47.6562 50.0252 49.6562 53.1919C62.6553 43.6919 88.1553 50.6919 86.6553 78.1919H96.6553C89.6553 67.1919 90.6553 45.1919 93.1562 35.1919Z" fill="#E0426F" stroke="black" stroke-width="0.5"/>
<path d="M10.1543 47.6919H4.1543C36.6545 28.1918 58.6545 34.1919 84.6543 29.6919L93.6545 35.1919C76.6545 36.1919 47.6543 39.6919 33.6543 43.8919C25.6543 43.6919 11.6543 45.6919 10.1543 47.6919Z" fill="#E0426F" stroke="black" stroke-width="0.5"/>
<path d="M37.1558 44.192C29.6558 43.1919 12.6558 45.1919 10.1558 47.692C9.35575 50.0919 12.4891 53.0252 14.1558 54.1919C23.6558 55.6919 37.1558 49.6919 37.1558 44.192Z" fill="#E0426F" stroke="black" stroke-width="0.5"/>
<path d="M4.15499 47.6919C11.155 48.6919 5.15499 59.1919 2.15499 64.1919C1.65492 57.1919 2.15479 51.6919 4.15499 47.6919Z" fill="#E0426F" stroke="black" stroke-width="0.5"/>
<path d="M22.1543 83.6919V79.1919H39.6543L40.1543 83.6919H22.1543Z" fill="#E0426F" stroke="black" stroke-width="0.5"/>
<path d="M2.65625 65.1919C4.15625 67.6919 6.15625 70.8586 5.65625 72.6919M22.1562 79.1919C11.6562 79.6919 7.15625 75.6919 8.15625 72.1919C8.65625 71.6919 10.1562 70.1919 11.1562 70.1919" stroke="black" stroke-width="0.5"/>
<path d="M32.1562 74.192C29.6562 70.192 24.1562 65.1921 21.1562 63.6921C19.4062 63.1921 16.7811 63.3171 14.031 63.6921C12.4061 65.0254 11.1562 68.192 11.6562 71.192C11.6562 72.3587 12.9637 74.692 15.6562 74.692C20.1562 74.692 27.1562 75.192 32.1562 74.192Z" fill="#E0426F"/>
<path d="M6.15625 65.1921C8.40619 64.6921 11.2811 64.0671 14.031 63.6921M14.031 63.6921C16.7811 63.3171 19.4062 63.1921 21.1562 63.6921C24.1562 65.1921 29.6562 70.192 32.1562 74.192C27.1562 75.192 20.1562 74.692 15.6562 74.692C12.9637 74.692 11.6562 72.3587 11.6562 71.192C11.1562 68.192 12.4061 65.0254 14.031 63.6921Z" stroke="black" stroke-width="0.5"/>
<path d="M11.6562 70.6921C19.6562 69.1921 23.1562 71.8206 26.1562 73.3206M13.1562 73.6921L30.6562 73.1921" stroke="black" stroke-width="0.5"/>
<path d="M22.1543 82.1919H31.6543C33.6543 82.1919 35.1543 80.1919 34.6543 79.1919M38.1543 79.1919V83.6919" stroke="black" stroke-width="0.5"/>
<path d="M22.1562 80.6921C17.6562 80.6921 13.1562 81.1921 1.6562 78.1921V76.1921L5.6562 74.1921V72.6921L1.6562 72.1921C1.15527 70.6919 0.155469 67.6919 2.15546 65.1919C1.65571 57.1919 2.15571 50.6919 4.1562 47.6916C36.6562 28.192 58.6562 34.1921 84.6562 29.6921C162.656 -25.308 244.656 11.6919 281.656 26.1921L295.156 28.1919L295.656 35.1919V38.1919C297.155 43.1919 298.49 47.6919 297.156 49.6919C299.656 50.6919 302.156 53.8586 302.156 55.6919L300.156 65.6919C300.608 76.5398 298.2 76.7641 288.868 77.0765C287.877 77.1097 285.808 77.1439 284.656 77.1919V78.6919L259.656 79.1229M22.1562 80.6921V83.6921H40.1545L39.6562 79.1921M22.1562 80.6921V79.1921H39.6562M39.6562 79.1921C36.6562 37.6921 90.1562 40.6921 86.6562 79.6921V82.1919H213.156C207.156 38.6919 261.656 38.6919 259.656 79.1229M259.155 79.1229H259.656" stroke="black"/>
</svg>
