<svg width="303" height="96" viewBox="0 0 303 96" fill="none" xmlns="http://www.w3.org/2000/svg">
<circle cx="62.8652" cy="74.1843" r="20.5" fill="#EFC7D3" stroke="black"/>
<circle cx="235.865" cy="74.1843" r="20.5" fill="#EFC7D3" stroke="black"/>
<path d="M132.863 12.6842L131.363 9.18418C171.363 1.18429 192.863 1.68433 231.863 13.1843L228.363 17.6843C208.363 9.68424 190.363 8.68423 174.363 8.1843C171.863 7.6843 167.863 7.68427 165.363 8.18418C155.363 8.1843 143.363 9.6843 132.863 12.6842Z" fill="#EFC7D3" stroke="black" stroke-width="0.5"/>
<path d="M131.363 9.18437L130.863 7.68437C166.863 -3.31567 199.363 0.6842 234.863 9.68437L231.863 13.1844C191.863 0.684326 165.863 2.18433 131.363 9.18437Z" fill="#EFC7D3" stroke="black" stroke-width="0.5"/>
<path d="M131.363 9.18431C182.863 -2.31571 211.363 7.68433 231.863 13.1843" stroke="black" stroke-width="0.5"/>
<path d="M170.865 30.1843L174.365 8.18433C207.865 9.18433 219.365 14.6843 223.865 16.1843L226.348 28.1843C199.358 28.185 181.863 29.6844 170.865 30.1843Z" fill="#EFC7D3"/>
<path d="M226.865 30.6843L223.865 16.1843C219.365 14.6843 207.865 9.18433 174.365 8.18433L170.865 30.1843C181.865 29.6843 199.365 28.1843 226.365 28.1843" stroke="black" stroke-width="0.5"/>
<path d="M165.365 8.18433C132.365 9.18433 112.365 18.1843 93.3652 35.6843L95.8652 33.6843L159.865 30.6843L165.365 8.18433Z" fill="#EFC7D3" stroke="black" stroke-width="0.5"/>
<path d="M239.863 22.6843C236.197 20.0177 230.363 17.6843 223.863 16.1843L226.363 28.1843H232.863C235.863 26.6843 238.863 24.4531 239.863 22.6843Z" fill="#EFC7D3" stroke="black" stroke-width="0.5"/>
<path d="M96.8652 78.6843H163.865L198.365 77.1843H212.865L213.365 82.6843H199.365H98.3652H86.8652V78.6843H96.8652Z" fill="#EFC7D3"/>
<path d="M96.8652 78.6843H163.865L198.365 77.1843M96.8652 78.6843C96.8652 80.1843 97.3652 81.1843 98.3652 82.6843M96.8652 78.6843H86.8652V82.6843H98.3652M198.365 77.1843L199.365 82.6843M198.365 77.1843H212.865L213.365 82.6843H199.365M199.365 82.6843H98.3652" stroke="black" stroke-width="0.5"/>
<path d="M96.8644 78.6843C92.3652 74.1843 89.3653 52.1843 93.3644 35.6843L165.365 31.6843C161.365 36.6843 160.365 70.6843 163.865 78.6843H96.8644Z" fill="#EFC7D3" stroke="black" stroke-width="0.5"/>
<path d="M228.865 30.6843L165.365 31.6843C161.365 36.6843 160.365 70.6843 163.865 78.6843L198.365 77.1843C202.865 75.6843 209.365 70.1843 228.865 30.6843Z" fill="#EFC7D3" stroke="black" stroke-width="0.5"/>
<path d="M170.865 30.1844C166.365 30.6844 162.865 30.6844 159.865 30.6844L165.365 8.1844C168.365 7.68433 171.365 7.68433 174.365 8.1844L170.865 30.1844Z" fill="#EFC7D3" stroke="black" stroke-width="0.5"/>
<path d="M99.3652 32.1845C103.865 37.6845 110.865 34.1845 114.865 32.6845C115.865 17.1843 102.865 25.1843 99.3652 32.1845Z" fill="#EFC7D3" stroke="black" stroke-width="0.5"/>
<path d="M234.863 9.68433L231.863 13.1843C248.863 18.6843 259.363 21.6843 271.863 28.1843H273.363L281.363 26.6843C266.363 20.1843 258.863 17.6843 234.863 9.68433Z" fill="#E56E90" stroke="black" stroke-width="0.5"/>
<path d="M271.863 28.1843C261.363 22.6843 242.363 16.1843 231.863 13.1843L229.863 15.6843L244.863 23.1843C243.363 25.6843 239.363 27.6843 233.363 30.3843C245.363 29.6843 262.363 28.6843 271.863 28.1843Z" fill="#E56E90" stroke="black" stroke-width="0.5"/>
<path d="M277.365 34.4843L283.364 32.1843L272.864 28.1843L228.864 30.6843C221.364 45.6843 206.364 76.1843 198.364 77.1843H212.864C211.364 66.1843 220.864 42.6843 245.865 51.6843C256.365 46.1843 266.365 40.6843 277.365 34.4843Z" fill="#E56E90" stroke="black" stroke-width="0.5"/>
<path d="M278.363 34.1844C266.363 40.6844 256.363 46.1844 245.863 51.6844C250.363 54.6843 260.863 60.6843 259.863 79.6843L284.863 79.1843V77.6843C293.363 76.6843 301.863 80.1843 300.363 66.1843L302.363 56.1843C302.363 54.6843 299.863 50.6843 297.363 50.1843C298.863 47.6843 295.863 38.6843 295.863 38.6843V37.1843L291.863 34.1843L286.863 32.6843L283.363 32.1843L278.363 34.1844Z" fill="#E56E90" stroke="black" stroke-width="0.5"/>
<path d="M281.363 26.6843L272.863 28.1843L283.363 32.1843C292.863 33.1843 291.862 34.6843 295.857 37.1045L295.363 28.6843L281.363 26.6843Z" fill="#E56E90"/>
<path d="M295.863 37.1843L295.857 37.1045M295.857 37.1045L295.363 28.6843L281.363 26.6843L272.863 28.1843L283.363 32.1843C292.863 33.1843 291.862 34.6843 295.857 37.1045Z" stroke="black" stroke-width="0.5"/>
<path d="M294.365 36.6845C293.865 34.1844 282.865 33.9843 277.365 34.4843" stroke="black" stroke-width="0.5"/>
<path d="M300.365 66.6843L260.865 68.6843C260.365 63.6843 258.199 59.5177 256.365 57.6843L302.365 55.1843M300.865 52.6843C289.865 51.1843 278.865 46.3843 266.865 40.3843M228.865 30.6843L272.865 28.1843L281.365 26.6843" stroke="black" stroke-width="0.5"/>
<path d="M290.865 40.6843C290.865 38.6843 289.865 34.6843 286.365 32.6843C288.586 32.6843 291.963 33.7247 294.474 36.0943C294.938 37.6243 293.865 41.1843 290.823 42.6843C290.81 42.094 290.865 41.4086 290.865 40.6843Z" fill="#E56E90"/>
<path d="M272.865 43.1843C279.861 43.5341 285.878 43.6392 291.258 44.1843M297.865 45.1843C295.762 44.7337 293.569 44.4184 291.258 44.1843M295.865 37.6843C295.447 37.0992 294.978 36.57 294.474 36.0943M291.258 44.1843C290.932 43.8396 290.838 43.3165 290.823 42.6843M290.823 42.6843C290.81 42.094 290.865 41.4086 290.865 40.6843C290.865 38.6843 289.865 34.6843 286.365 32.6843C288.586 32.6843 291.963 33.7247 294.474 36.0943M290.823 42.6843C293.865 41.1843 294.938 37.6243 294.474 36.0943" stroke="black" stroke-width="0.5"/>
<path d="M290.865 40.6843C286.365 40.6843 284.365 36.6843 283.365 34.1843" stroke="black" stroke-width="0.5"/>
<path d="M132.863 12.7843C119.363 16.7843 107.363 22.6843 93.3633 35.6843C100.363 23.6843 115.863 14.1843 131.363 9.18433L132.863 12.7843Z" fill="#EFC7D3" stroke="black" stroke-width="0.5"/>
<path d="M131.363 9.18433C111.363 14.8584 93.3633 32.1843 85.3633 30.1843C98.3633 20.6843 114.363 12.1843 130.863 7.68433L131.363 9.18433Z" fill="#EFC7D3" stroke="black" stroke-width="0.5"/>
<path d="M10.3639 48.1843H4.36395C1.86328 52.1843 1.86328 62.1843 2.36395 65.6843C0.863281 66.6843 0.863879 71.1843 1.86395 72.6843L5.86395 73.1843V74.6843L1.86395 76.6843V78.6843C5.86395 79.6843 14.3639 81.6843 22.3639 81.1843V79.6843H39.8639C39.1973 71.1843 40.8639 60.6843 49.8639 53.6843C47.3639 49.6843 40.3639 45.1843 37.3639 44.6843C27.3639 43.6843 12.3639 46.1843 10.3639 48.1843Z" fill="#EFC7D3" stroke="black" stroke-width="0.5"/>
<path d="M93.3652 35.6843C75.5319 36.5177 43.8652 41.3843 33.3652 44.3843L37.3652 44.6843C42.3652 46.1843 47.8652 50.5177 49.8652 53.6843C62.8643 44.1843 88.3643 51.1843 86.8643 78.6843H96.8643C89.8643 67.6843 90.8643 45.6843 93.3652 35.6843Z" fill="#EFC7D3" stroke="black" stroke-width="0.5"/>
<path d="M10.3633 48.1844H4.36328C36.8635 28.6843 58.8635 34.6843 84.8633 30.1843L93.8635 35.6843C76.8635 36.6843 47.8633 40.1843 33.8633 44.3843C25.8633 44.1843 11.8633 46.1843 10.3633 48.1844Z" fill="#EFC7D3" stroke="black" stroke-width="0.5"/>
<path d="M37.3647 44.6844C29.8647 43.6843 12.8647 45.6843 10.3647 48.1844C9.56474 50.5843 12.6981 53.5177 14.3647 54.6843C23.8647 56.1843 37.3647 50.1843 37.3647 44.6844Z" fill="#EFC7D3" stroke="black" stroke-width="0.5"/>
<path d="M4.36398 48.1843C11.364 49.1843 5.36398 59.6843 2.36398 64.6843C1.86391 57.6843 2.36377 52.1843 4.36398 48.1843Z" fill="#EFC7D3" stroke="black" stroke-width="0.5"/>
<path d="M22.3633 84.1843V79.6843H39.8633L40.3633 84.1843H22.3633Z" fill="#EFC7D3" stroke="black" stroke-width="0.5"/>
<path d="M2.86523 65.6843C4.36523 68.1843 6.36523 71.351 5.86523 73.1843M22.3652 79.6843C11.8652 80.1843 7.36523 76.1843 8.36523 72.6843C8.86523 72.1843 10.3652 70.6843 11.3652 70.6843" stroke="black" stroke-width="0.5"/>
<path d="M32.3652 74.6843C29.8652 70.6843 24.3652 65.6844 21.3652 64.1844C19.6152 63.6844 16.9901 63.8094 14.24 64.1844C12.6151 65.5177 11.3652 68.6843 11.8652 71.6843C11.8652 72.851 13.1727 75.1843 15.8652 75.1843C20.3652 75.1843 27.3652 75.6843 32.3652 74.6843Z" fill="#EFC7D3"/>
<path d="M6.36523 65.6844C8.61518 65.1844 11.4901 64.5594 14.24 64.1844M14.24 64.1844C16.9901 63.8094 19.6152 63.6844 21.3652 64.1844C24.3652 65.6844 29.8652 70.6843 32.3652 74.6843C27.3652 75.6843 20.3652 75.1843 15.8652 75.1843C13.1727 75.1843 11.8652 72.851 11.8652 71.6843C11.3652 68.6843 12.6151 65.5177 14.24 64.1844Z" stroke="black" stroke-width="0.5"/>
<path d="M11.8652 71.1844C19.8652 69.6844 23.3652 72.3129 26.3652 73.8129M13.3652 74.1844L30.8652 73.6844" stroke="black" stroke-width="0.5"/>
<path d="M22.3633 82.6843H31.8633C33.8633 82.6843 35.3633 80.6843 34.8633 79.6843M38.3633 79.6843V84.1843" stroke="black" stroke-width="0.5"/>
<path d="M22.3652 81.1846C17.8652 81.1846 13.3652 81.6846 1.86518 78.6846V76.6846L5.86518 74.6846V73.1846L1.86518 72.6846C1.36426 71.1843 0.364454 68.1843 2.36445 65.6843C1.86469 57.6843 2.36469 51.1843 4.36518 48.1841C36.8652 28.6845 58.8652 34.6845 84.8652 30.1845C162.865 -24.8156 244.865 12.1843 281.865 26.6845L295.365 28.6843L295.865 35.6843V38.6843C297.364 43.6843 298.699 48.1843 297.365 50.1843C299.865 51.1843 302.365 54.351 302.365 56.1843L300.365 66.1843C300.817 77.0322 298.409 77.2565 289.077 77.569C288.086 77.6021 286.017 77.6363 284.865 77.6843V79.1843L259.865 79.6154M22.3652 81.1846V84.1846H40.3635L39.8652 79.6846M22.3652 81.1846V79.6846H39.8652M39.8652 79.6846C36.8652 38.1846 90.3652 41.1846 86.8652 80.1846V82.6843H213.365C207.365 39.1843 261.865 39.1843 259.865 79.6154M259.364 79.6154H259.865" stroke="black"/>
</svg>
