<svg width="303" height="95" viewBox="0 0 303 95" fill="none" xmlns="http://www.w3.org/2000/svg">
<circle cx="62.4897" cy="73.8459" r="20.5" fill="#E0426F" stroke="black"/>
<circle cx="235.49" cy="73.8459" r="20.5" fill="#E0426F" stroke="black"/>
<path d="M132.488 12.3458L130.988 8.8458C170.988 0.845915 192.488 1.34595 231.488 12.8459L227.988 17.3459C207.988 9.34586 189.988 8.34586 173.988 7.84592C171.488 7.34592 167.488 7.34589 164.988 7.8458C154.988 7.84592 142.988 9.34592 132.488 12.3458Z" stroke="black" stroke-width="0.5"/>
<path d="M130.988 8.84599L130.488 7.34599C166.488 -3.65405 198.988 0.345821 234.488 9.34599L231.488 12.846C191.488 0.345947 165.488 1.84595 130.988 8.84599Z" stroke="black" stroke-width="0.5"/>
<path d="M130.988 8.84593C182.488 -2.65409 210.988 7.34595 231.488 12.8459" stroke="black" stroke-width="0.5"/>
<path d="M226.49 30.3459L223.49 15.8459C218.99 14.3459 207.49 8.84595 173.99 7.84595L170.49 29.8459C181.49 29.3459 198.99 27.8459 225.99 27.8459" stroke="black" stroke-width="0.5"/>
<path d="M164.99 7.84595C131.99 8.84595 111.99 17.8459 92.9897 35.3459L95.4897 33.3459L159.49 30.3459L164.99 7.84595Z" stroke="black" stroke-width="0.5"/>
<path d="M239.488 22.3459C235.822 19.6793 229.988 17.3459 223.488 15.8459L225.988 27.8459H232.488C235.488 26.3459 238.488 24.1147 239.488 22.3459Z" stroke="black" stroke-width="0.5"/>
<path d="M96.4897 78.3459H163.49L197.99 76.8459M96.4897 78.3459C96.4897 79.8459 96.9897 80.8459 97.9897 82.3459M96.4897 78.3459H86.4897V82.3459H97.9897M197.99 76.8459L198.99 82.3459M197.99 76.8459H212.49L212.99 82.3459H198.99M198.99 82.3459H97.9897" stroke="black" stroke-width="0.5"/>
<path d="M96.4889 78.3459C91.9897 73.8459 88.9898 51.8459 92.9889 35.3459L164.99 31.3459C160.99 36.3459 159.99 70.3459 163.49 78.3459H96.4889Z" stroke="black" stroke-width="0.5"/>
<path d="M228.489 30.3459L164.989 31.3459C160.989 36.3459 159.99 70.3459 163.489 78.3459L197.989 76.8459C202.489 75.3459 208.989 69.8459 228.489 30.3459Z" stroke="black" stroke-width="0.5"/>
<path d="M170.49 29.846C165.99 30.346 162.49 30.346 159.49 30.346L164.99 7.84602C167.99 7.34595 170.99 7.34595 173.99 7.84602L170.49 29.846Z" stroke="black" stroke-width="0.5"/>
<path d="M98.9897 31.8461C103.49 37.3461 110.49 33.8461 114.49 32.3461C115.49 16.846 102.49 24.8459 98.9897 31.8461Z" stroke="black" stroke-width="0.5"/>
<path d="M234.488 9.34595L231.488 12.8459C248.488 18.3459 258.988 21.3459 271.488 27.8459H272.988L280.988 26.3459C265.988 19.8459 258.488 17.3459 234.488 9.34595Z" stroke="black" stroke-width="0.5"/>
<path d="M271.488 27.8459C260.988 22.3459 241.988 15.8459 231.488 12.8459L229.488 15.3459L244.488 22.8459C242.988 25.3459 238.988 27.3459 232.988 30.0459C244.988 29.3459 261.988 28.3459 271.488 27.8459Z" stroke="black" stroke-width="0.5"/>
<path d="M276.99 34.1459L282.988 31.8459L272.489 27.8459L228.489 30.3459C220.989 45.3459 205.989 75.8459 197.989 76.8459H212.489C210.989 65.8459 220.489 42.3459 245.49 51.3459C255.99 45.8459 265.99 40.3459 276.99 34.1459Z" stroke="black" stroke-width="0.5"/>
<path d="M277.988 33.846C265.988 40.346 255.988 45.846 245.488 51.346C249.988 54.3459 260.488 60.3459 259.488 79.3459L284.488 78.8459V77.3459C292.988 76.3459 301.488 79.8459 299.988 65.8459L301.988 55.8459C301.988 54.3459 299.488 50.3459 296.988 49.8459C298.488 47.3459 295.488 38.3459 295.488 38.3459V36.8459L291.488 33.8459L286.488 32.3459L282.988 31.8459L277.988 33.846Z" stroke="black" stroke-width="0.5"/>
<path d="M295.488 36.8459L295.482 36.7661M295.482 36.7661L294.988 28.3459L280.988 26.3459L272.488 27.8459L282.988 31.8459C292.488 32.8459 291.487 34.3459 295.482 36.7661Z" stroke="black" stroke-width="0.5"/>
<path d="M293.99 36.3461C293.49 33.846 282.49 33.646 276.99 34.146" stroke="black" stroke-width="0.5"/>
<path d="M299.99 66.3459L260.49 68.3459C259.99 63.3459 257.823 59.1793 255.99 57.3459L301.99 54.8459M300.49 52.3459C289.49 50.8459 278.49 46.0459 266.49 40.0459M228.49 30.3459L272.49 27.8459L280.99 26.3459" stroke="black" stroke-width="0.5"/>
<path d="M272.49 42.8459C279.485 43.1957 285.502 43.3008 290.883 43.8459M297.49 44.8459C295.387 44.3953 293.194 44.08 290.883 43.8459M295.49 37.3459C295.072 36.7608 294.603 36.2316 294.099 35.7559M290.883 43.8459C290.557 43.5012 290.463 42.9781 290.448 42.3459M290.448 42.3459C290.434 41.7557 290.49 41.0702 290.49 40.3459C290.49 38.3459 289.49 34.3459 285.99 32.3459C288.211 32.3459 291.587 33.3863 294.099 35.7559M290.448 42.3459C293.49 40.8459 294.562 37.2859 294.099 35.7559" stroke="black" stroke-width="0.5"/>
<path d="M290.49 40.3459C285.99 40.3459 283.99 36.3459 282.99 33.8459" stroke="black" stroke-width="0.5"/>
<path d="M132.488 12.4459C118.988 16.4459 106.988 22.3459 92.9883 35.3459C99.9883 23.3459 115.488 13.8459 130.988 8.84595L132.488 12.4459Z" fill="#E0426F" stroke="black" stroke-width="0.5"/>
<path d="M130.988 8.84595C110.988 14.52 92.9883 31.8459 84.9883 29.8459C97.9883 20.3459 113.988 11.8459 130.488 7.34595L130.988 8.84595Z" fill="#E0426F" stroke="black" stroke-width="0.5"/>
<path d="M9.98895 47.846H3.98895C1.48828 51.8459 1.48828 61.8459 1.98895 65.3459C0.488281 66.3459 0.488879 70.8459 1.48895 72.3459L5.48895 72.8459V74.3459L1.48895 76.3459V78.3459C5.48895 79.3459 13.9889 81.3459 21.9889 80.8459V79.3459H39.4889C38.8223 70.8459 40.4889 60.3459 49.4889 53.3459C46.9889 49.3459 39.9889 44.8459 36.9889 44.346C26.9889 43.3459 11.9889 45.846 9.98895 47.846Z" fill="#E0426F" stroke="black" stroke-width="0.5"/>
<path d="M92.9897 35.3459C75.1564 36.1793 43.4897 41.0459 32.9897 44.0459L36.9897 44.3459C41.9897 45.8459 47.4897 50.1793 49.4897 53.3459C62.4888 43.8459 87.9888 50.8459 86.4888 78.3459H96.4888C89.4888 67.3459 90.4888 45.3459 92.9897 35.3459Z" fill="#E0426F" stroke="black" stroke-width="0.5"/>
<path d="M9.98828 47.846H3.98828C36.4885 28.3459 58.4885 34.3459 84.4883 29.8459L93.4885 35.3459C76.4885 36.3459 47.4883 39.8459 33.4883 44.046C25.4883 43.8459 11.4883 45.8459 9.98828 47.846Z" fill="#E0426F" stroke="black" stroke-width="0.5"/>
<path d="M36.9897 44.346C29.4897 43.3459 12.4897 45.3459 9.98974 47.846C9.18974 50.246 12.3231 53.1793 13.9897 54.3459C23.4897 55.8459 36.9897 49.8459 36.9897 44.346Z" fill="#E0426F" stroke="black" stroke-width="0.5"/>
<path d="M3.98898 47.8459C10.989 48.8459 4.98898 59.3459 1.98898 64.3459C1.48891 57.3459 1.98877 51.8459 3.98898 47.8459Z" fill="#E0426F" stroke="black" stroke-width="0.5"/>
<path d="M21.9883 83.8459V79.3459H39.4883L39.9883 83.8459H21.9883Z" fill="#E0426F" stroke="black" stroke-width="0.5"/>
<path d="M2.49023 65.3459C3.99023 67.8459 5.99023 71.0126 5.49023 72.8459M21.9902 79.3459C11.4902 79.8459 6.99023 75.8459 7.99023 72.3459C8.49023 71.8459 9.99023 70.3459 10.9902 70.3459" stroke="black" stroke-width="0.5"/>
<path d="M31.9902 74.3459C29.4902 70.3459 23.9902 65.346 20.9902 63.846C19.2402 63.346 16.6151 63.471 13.865 63.846C12.2401 65.1793 10.9902 68.3459 11.4902 71.3459C11.4902 72.5126 12.7977 74.8459 15.4902 74.8459C19.9902 74.8459 26.9902 75.3459 31.9902 74.3459Z" fill="#E0426F"/>
<path d="M5.99023 65.346C8.24018 64.846 11.1151 64.221 13.865 63.846M13.865 63.846C16.6151 63.471 19.2402 63.346 20.9902 63.846C23.9902 65.346 29.4902 70.3459 31.9902 74.3459C26.9902 75.3459 19.9902 74.8459 15.4902 74.8459C12.7977 74.8459 11.4902 72.5126 11.4902 71.3459C10.9902 68.3459 12.2401 65.1793 13.865 63.846Z" stroke="black" stroke-width="0.5"/>
<path d="M11.4902 70.846C19.4902 69.3461 22.9902 71.9745 25.9902 73.4745M12.9902 73.8461L30.4902 73.3461" stroke="black" stroke-width="0.5"/>
<path d="M21.9883 82.3459H31.4883C33.4883 82.3459 34.9883 80.3459 34.4883 79.3459M37.9883 79.3459V83.8459" stroke="black" stroke-width="0.5"/>
<path d="M21.9897 80.8462C17.4897 80.8462 12.9897 81.3462 1.48969 78.3462V76.3462L5.48969 74.3462V72.8462L1.48969 72.3462C0.98877 70.8459 -0.0110346 67.8459 1.98896 65.3459C1.4892 57.3459 1.9892 50.8459 3.98969 47.8457C36.4897 28.3461 58.4897 34.3461 84.4897 29.8461C162.49 -25.154 244.49 11.8459 281.49 26.3461L294.99 28.3459L295.49 35.3459V38.3459C296.988 43.3459 298.323 47.8459 296.99 49.8459C299.49 50.8459 301.99 54.0126 301.99 55.8459L299.99 65.8459C300.442 76.6939 298.034 76.9181 288.702 77.2306C287.711 77.2638 285.642 77.2979 284.49 77.3459V78.8459L259.49 79.277M21.9897 80.8462V83.8462H39.988L39.4897 79.3462M21.9897 80.8462V79.3462H39.4897M39.4897 79.3462C36.4897 37.8462 89.9897 40.8462 86.4897 79.8462V82.3459H212.99C206.99 38.8459 261.49 38.8459 259.49 79.277M258.988 79.277H259.49" stroke="black"/>
</svg>
