<svg width="303" height="96" viewBox="0 0 303 96" fill="none" xmlns="http://www.w3.org/2000/svg">
<circle cx="62.8955" cy="74.5227" r="20.5" fill="#EFC7D3" stroke="black"/>
<circle cx="235.896" cy="74.5227" r="20.5" fill="#EFC7D3" stroke="black"/>
<path d="M132.894 13.0226L131.394 9.52256C171.394 1.52267 192.894 2.02271 231.894 13.5227L228.394 18.0226C208.394 10.0226 190.394 9.02261 174.394 8.52268C171.894 8.02268 167.894 8.02264 165.394 8.52256C155.394 8.52268 143.394 10.0227 132.894 13.0226Z" fill="#EFC7D3" stroke="black" stroke-width="0.5"/>
<path d="M131.394 9.52275L130.894 8.02275C166.894 -2.97729 199.394 1.02258 234.894 10.0228L231.894 13.5228C191.894 1.02271 165.894 2.52271 131.394 9.52275Z" fill="#EFC7D3" stroke="black" stroke-width="0.5"/>
<path d="M131.394 9.52269C182.894 -1.97733 211.394 8.02271 231.894 13.5227" stroke="black" stroke-width="0.5"/>
<path d="M170.896 30.5227L174.396 8.52271C207.896 9.52271 219.396 15.0227 223.896 16.5227L226.378 28.5227C199.388 28.5233 181.893 30.0228 170.896 30.5227Z" fill="#EFC7D3"/>
<path d="M226.896 31.0227L223.896 16.5227C219.396 15.0227 207.896 9.52271 174.396 8.52271L170.896 30.5227C181.896 30.0227 199.396 28.5227 226.396 28.5227" stroke="black" stroke-width="0.5"/>
<path d="M165.396 8.52271C132.396 9.52271 112.396 18.5227 93.3955 36.0227L95.8955 34.0227L159.896 31.0227L165.396 8.52271Z" fill="#EFC7D3" stroke="black" stroke-width="0.5"/>
<path d="M239.894 23.0227C236.227 20.356 230.394 18.0227 223.894 16.5227L226.394 28.5227H232.894C235.894 27.0227 238.894 24.7914 239.894 23.0227Z" fill="#EFC7D3" stroke="black" stroke-width="0.5"/>
<path d="M96.8955 79.0227H163.896L198.396 77.5227H212.896L213.396 83.0227H199.396H98.3955H86.8955V79.0227H96.8955Z" fill="#EFC7D3"/>
<path d="M96.8955 79.0227H163.896L198.396 77.5227M96.8955 79.0227C96.8955 80.5227 97.3955 81.5227 98.3955 83.0227M96.8955 79.0227H86.8955V83.0227H98.3955M198.396 77.5227L199.396 83.0227M198.396 77.5227H212.896L213.396 83.0227H199.396M199.396 83.0227H98.3955" stroke="black" stroke-width="0.5"/>
<path d="M96.8946 79.0227C92.3955 74.5227 89.3956 52.5227 93.3946 36.0227L165.396 32.0227C161.396 37.0227 160.396 71.0227 163.896 79.0227H96.8946Z" fill="#EFC7D3" stroke="black" stroke-width="0.5"/>
<path d="M228.895 31.0227L165.395 32.0227C161.396 37.0227 160.396 71.0227 163.895 79.0227L198.395 77.5227C202.895 76.0227 209.395 70.5227 228.895 31.0227Z" fill="#EFC7D3" stroke="black" stroke-width="0.5"/>
<path d="M170.896 30.5228C166.396 31.0228 162.896 31.0228 159.896 31.0228L165.396 8.52278C168.396 8.02271 171.396 8.02271 174.396 8.52278L170.896 30.5228Z" fill="#EFC7D3" stroke="black" stroke-width="0.5"/>
<path d="M99.3955 32.5228C103.896 38.0228 110.896 34.5228 114.896 33.0228C115.896 17.5227 102.896 25.5227 99.3955 32.5228Z" fill="#EFC7D3" stroke="black" stroke-width="0.5"/>
<path d="M234.894 10.0227L231.894 13.5227C248.894 19.0227 259.394 22.0227 271.894 28.5227H273.394L281.394 27.0227C266.394 20.5227 258.894 18.0227 234.894 10.0227Z" stroke="black" stroke-width="0.5"/>
<path d="M271.894 28.5227C261.394 23.0227 242.394 16.5227 231.894 13.5227L229.894 16.0227L244.894 23.5227C243.394 26.0227 239.394 28.0227 233.394 30.7227C245.394 30.0227 262.394 29.0227 271.894 28.5227Z" stroke="black" stroke-width="0.5"/>
<path d="M277.396 34.8227L283.394 32.5227L272.895 28.5227L228.895 31.0227C221.395 46.0227 206.395 76.5227 198.395 77.5227H212.895C211.395 66.5227 220.895 43.0227 245.896 52.0227C256.396 46.5227 266.396 41.0227 277.396 34.8227Z" stroke="black" stroke-width="0.5"/>
<path d="M278.394 34.5227C266.394 41.0227 256.394 46.5227 245.894 52.0227C250.394 55.0227 260.894 61.0227 259.894 80.0227L284.894 79.5227V78.0227C293.394 77.0227 301.894 80.5227 300.394 66.5227L302.394 56.5227C302.394 55.0227 299.894 51.0227 297.394 50.5227C298.894 48.0227 295.894 39.0227 295.894 39.0227V37.5227L291.894 34.5227L286.894 33.0227L283.394 32.5227L278.394 34.5227Z" stroke="black" stroke-width="0.5"/>
<path d="M295.894 37.5227L295.888 37.4429M295.888 37.4429L295.394 29.0227L281.394 27.0227L272.894 28.5227L283.394 32.5227C292.894 33.5227 291.892 35.0227 295.888 37.4429Z" stroke="black" stroke-width="0.5"/>
<path d="M294.396 37.0229C293.896 34.5228 282.896 34.3227 277.396 34.8227" stroke="black" stroke-width="0.5"/>
<path d="M300.396 67.0227L260.896 69.0227C260.396 64.0227 258.229 59.856 256.396 58.0227L302.396 55.5227M300.896 53.0227C289.896 51.5227 278.896 46.7227 266.896 40.7227M228.896 31.0227L272.896 28.5227L281.396 27.0227" stroke="black" stroke-width="0.5"/>
<path d="M272.896 43.5227C279.891 43.8725 285.908 43.9776 291.289 44.5227M297.896 45.5227C295.793 45.0721 293.599 44.7568 291.289 44.5227M295.896 38.0227C295.478 37.4376 295.008 36.9084 294.504 36.4327M291.289 44.5227C290.962 44.1779 290.868 43.6549 290.854 43.0227M290.854 43.0227C290.84 42.4324 290.896 41.747 290.896 41.0227C290.896 39.0227 289.896 35.0227 286.396 33.0227C288.616 33.0227 291.993 34.0631 294.504 36.4327M290.854 43.0227C293.896 41.5227 294.968 37.9627 294.504 36.4327" stroke="black" stroke-width="0.5"/>
<path d="M290.896 41.0227C286.396 41.0227 284.396 37.0227 283.396 34.5227" stroke="black" stroke-width="0.5"/>
<path d="M132.894 13.1227C119.394 17.1227 107.394 23.0227 93.394 36.0227C100.394 24.0227 115.894 14.5227 131.394 9.52271L132.894 13.1227Z" fill="#E56E90" stroke="black" stroke-width="0.5"/>
<path d="M131.394 9.52271C111.394 15.1967 93.394 32.5227 85.394 30.5227C98.394 21.0227 114.394 12.5227 130.894 8.02271L131.394 9.52271Z" fill="#E56E90" stroke="black" stroke-width="0.5"/>
<path d="M10.3947 48.5227H4.39471C1.89404 52.5227 1.89404 62.5227 2.39471 66.0227C0.894043 67.0227 0.89464 71.5227 1.89471 73.0227L5.89471 73.5227V75.0227L1.89471 77.0227V79.0227C5.89471 80.0227 14.3947 82.0227 22.3947 81.5227V80.0227H39.8947C39.228 71.5227 40.8947 61.0227 49.8947 54.0227C47.3947 50.0227 40.3947 45.5227 37.3947 45.0227C27.3947 44.0227 12.3947 46.5227 10.3947 48.5227Z" fill="#E56E90" stroke="black" stroke-width="0.5"/>
<path d="M93.3955 36.0227C75.5622 36.856 43.8955 41.7227 33.3955 44.7227L37.3955 45.0227C42.3955 46.5227 47.8955 50.856 49.8955 54.0227C62.8945 44.5227 88.3945 51.5227 86.8945 79.0227H96.8945C89.8945 68.0227 90.8945 46.0227 93.3955 36.0227Z" fill="#E56E90" stroke="black" stroke-width="0.5"/>
<path d="M10.3936 48.5228H4.39355C36.8937 29.0227 58.8938 35.0227 84.8936 30.5227L93.8938 36.0227C76.8938 37.0227 47.8936 40.5227 33.8936 44.7227C25.8936 44.5227 11.8936 46.5227 10.3936 48.5228Z" fill="#E56E90" stroke="black" stroke-width="0.5"/>
<path d="M37.3955 45.0228C29.8955 44.0227 12.8955 46.0227 10.3955 48.5228C9.5955 50.9227 12.7288 53.856 14.3955 55.0227C23.8955 56.5227 37.3955 50.5227 37.3955 45.0228Z" fill="#E56E90" stroke="black" stroke-width="0.5"/>
<path d="M4.39474 48.5227C11.3947 49.5227 5.39474 60.0227 2.39474 65.0227C1.89467 58.0227 2.39453 52.5227 4.39474 48.5227Z" fill="#E56E90" stroke="black" stroke-width="0.5"/>
<path d="M22.394 84.5227V80.0227H39.894L40.394 84.5227H22.394Z" fill="#E56E90" stroke="black" stroke-width="0.5"/>
<path d="M2.89551 66.0225C4.39551 68.5225 6.39551 71.6891 5.89551 73.5225M22.3955 80.0225C11.8955 80.5225 7.39551 76.5225 8.39551 73.0225C8.89551 72.5225 10.3955 71.0225 11.3955 71.0225" stroke="black" stroke-width="0.5"/>
<path d="M32.3955 75.0226C29.8955 71.0226 24.3955 66.0227 21.3955 64.5227C19.6455 64.0227 17.0204 64.1477 14.2703 64.5227C12.6454 65.856 11.3955 69.0226 11.8955 72.0226C11.8955 73.1892 13.2029 75.5226 15.8955 75.5226C20.3955 75.5226 27.3955 76.0226 32.3955 75.0226Z" fill="#E56E90"/>
<path d="M6.39551 66.0227C8.64545 65.5226 11.5204 64.8977 14.2703 64.5227M14.2703 64.5227C17.0204 64.1477 19.6455 64.0227 21.3955 64.5227C24.3955 66.0227 29.8955 71.0226 32.3955 75.0226C27.3955 76.0226 20.3955 75.5226 15.8955 75.5226C13.2029 75.5226 11.8955 73.1892 11.8955 72.0226C11.3955 69.0226 12.6454 65.856 14.2703 64.5227Z" stroke="black" stroke-width="0.5"/>
<path d="M11.8955 71.5227C19.8955 70.0227 23.3955 72.6512 26.3955 74.1512M13.3955 74.5227L30.8955 74.0227" stroke="black" stroke-width="0.5"/>
<path d="M22.3936 83.0225H31.8936C33.8936 83.0225 35.3936 81.0225 34.8936 80.0225M38.3936 80.0225V84.5225" stroke="black" stroke-width="0.5"/>
<path d="M22.3955 81.5229C17.8955 81.5229 13.3955 82.0229 1.89545 79.0229V77.0229L5.89545 75.0229V73.5229L1.89545 73.023C1.39453 71.5227 0.394727 68.5227 2.39472 66.0227C1.89497 58.0227 2.39497 51.5227 4.39545 48.5224C36.8955 29.0228 58.8954 35.0229 84.8954 30.5229C162.895 -24.4772 244.895 12.5227 281.895 27.0229L295.395 29.0227L295.895 36.0227V39.0227C297.394 44.0227 298.729 48.5227 297.395 50.5227C299.895 51.5227 302.395 54.6894 302.395 56.5227L300.395 66.5227C300.847 77.3706 298.439 77.5949 289.108 77.9073C288.117 77.9405 286.048 77.9747 284.895 78.0227V79.5227L259.895 79.9537M22.3955 81.5229V84.5229H40.3938L39.8955 80.0229M22.3955 81.5229V80.0229H39.8955M39.8955 80.0229C36.8955 38.5229 90.3954 41.5229 86.8954 80.5229V83.0227H213.395C207.395 39.5227 261.895 39.5227 259.895 79.9537M259.394 79.9537H259.895" stroke="black"/>
</svg>
