<svg width="304" height="96" viewBox="0 0 304 96" fill="none" xmlns="http://www.w3.org/2000/svg">
<circle cx="63.0742" cy="74.553" r="20.5" fill="#EDADBF" stroke="black"/>
<circle cx="236.074" cy="74.553" r="20.5" fill="#EDADBF" stroke="black"/>
<path d="M133.072 13.0528L131.572 9.55283C171.572 1.55295 193.072 2.05298 232.072 13.5529L228.572 18.0529C208.572 10.0529 190.572 9.05289 174.572 8.55296C172.072 8.05296 168.072 8.05292 165.572 8.55283C155.572 8.55296 143.572 10.053 133.072 13.0528Z" fill="#E0426F" stroke="black" stroke-width="0.5"/>
<path d="M131.572 9.55302L131.072 8.05302C167.072 -2.94702 199.572 1.05285 235.072 10.053L232.072 13.553C192.072 1.05298 166.072 2.55298 131.572 9.55302Z" fill="#E0426F" stroke="black" stroke-width="0.5"/>
<path d="M131.572 9.55284C183.072 -1.94718 211.572 8.05286 232.072 13.5528" stroke="black" stroke-width="0.5"/>
<path d="M171.074 30.553L174.574 8.55298C208.074 9.55298 219.574 15.053 224.074 16.553L226.557 28.553C199.567 28.5536 182.072 30.0531 171.074 30.553Z" fill="#E0426F"/>
<path d="M227.074 31.053L224.074 16.553C219.574 15.053 208.074 9.55298 174.574 8.55298L171.074 30.553C182.074 30.053 199.574 28.553 226.574 28.553" stroke="black" stroke-width="0.5"/>
<path d="M165.574 8.55298C132.574 9.55298 112.574 18.553 93.5742 36.053L96.0742 34.053L160.074 31.053L165.574 8.55298Z" fill="#E0426F" stroke="black" stroke-width="0.5"/>
<path d="M240.072 23.053C236.406 20.3863 230.572 18.053 224.072 16.553L226.572 28.553H233.072C236.072 27.053 239.072 24.8217 240.072 23.053Z" fill="#E0426F" stroke="black" stroke-width="0.5"/>
<path d="M97.0742 79.053H164.074L198.574 77.553H213.074L213.574 83.053H199.574H98.5742H87.0742V79.053H97.0742Z" fill="#E0426F"/>
<path d="M97.0742 79.053H164.074L198.574 77.553M97.0742 79.053C97.0742 80.553 97.5742 81.553 98.5742 83.053M97.0742 79.053H87.0742V83.053H98.5742M198.574 77.553L199.574 83.053M198.574 77.553H213.074L213.574 83.053H199.574M199.574 83.053H98.5742" stroke="black" stroke-width="0.5"/>
<path d="M97.0733 79.053C92.5742 74.553 89.5743 52.553 93.5733 36.053L165.574 32.053C161.574 37.053 160.574 71.053 164.074 79.053H97.0733Z" fill="#E0426F" stroke="black" stroke-width="0.5"/>
<path d="M229.074 31.053L165.574 32.053C161.574 37.053 160.574 71.053 164.074 79.053L198.574 77.553C203.074 76.053 209.574 70.553 229.074 31.053Z" fill="#E0426F" stroke="black" stroke-width="0.5"/>
<path d="M171.074 30.5531C166.574 31.0531 163.074 31.0531 160.074 31.0531L165.574 8.55305C168.574 8.05298 171.574 8.05298 174.574 8.55305L171.074 30.5531Z" fill="#E0426F" stroke="black" stroke-width="0.5"/>
<path d="M99.5742 32.553C104.074 38.053 111.074 34.553 115.074 33.053C116.074 17.5529 103.074 25.5529 99.5742 32.553Z" fill="#E0426F" stroke="black" stroke-width="0.5"/>
<path d="M235.072 10.053L232.072 13.553C249.072 19.053 259.572 22.053 272.072 28.553H273.572L281.572 27.053C266.572 20.553 259.072 18.053 235.072 10.053Z" fill="#EDADBF" stroke="black" stroke-width="0.5"/>
<path d="M272.072 28.553C261.572 23.053 242.572 16.553 232.072 13.553L230.072 16.053L245.072 23.553C243.572 26.053 239.572 28.053 233.572 30.753C245.572 30.053 262.572 29.053 272.072 28.553Z" fill="#EDADBF" stroke="black" stroke-width="0.5"/>
<path d="M277.574 34.853L283.573 32.553L273.073 28.553L229.073 31.053C221.573 46.053 206.573 76.553 198.573 77.553H213.073C211.573 66.553 221.073 43.053 246.074 52.053C256.574 46.553 266.574 41.053 277.574 34.853Z" fill="#EDADBF" stroke="black" stroke-width="0.5"/>
<path d="M278.572 34.553C266.572 41.053 256.572 46.553 246.072 52.053C250.572 55.053 261.072 61.053 260.072 80.053L285.072 79.553V78.053C293.572 77.053 302.072 80.553 300.572 66.553L302.572 56.553C302.572 55.053 300.072 51.053 297.572 50.553C299.072 48.053 296.072 39.053 296.072 39.053V37.553L292.072 34.553L287.072 33.053L283.572 32.553L278.572 34.553Z" fill="#EDADBF" stroke="black" stroke-width="0.5"/>
<path d="M281.572 27.053L273.072 28.553L283.572 32.553C293.072 33.553 292.071 35.053 296.066 37.4732L295.572 29.053L281.572 27.053Z" fill="#EDADBF"/>
<path d="M296.072 37.553L296.066 37.4732M296.066 37.4732L295.572 29.053L281.572 27.053L273.072 28.553L283.572 32.553C293.072 33.553 292.071 35.053 296.066 37.4732Z" stroke="black" stroke-width="0.5"/>
<path d="M294.574 37.0532C294.074 34.5531 283.074 34.353 277.574 34.853" stroke="black" stroke-width="0.5"/>
<path d="M300.574 67.053L261.074 69.053C260.574 64.053 258.408 59.8863 256.574 58.053L302.574 55.553M301.074 53.053C290.074 51.553 279.074 46.753 267.074 40.753M229.074 31.053L273.074 28.553L281.574 27.053" stroke="black" stroke-width="0.5"/>
<path d="M291.074 41.053C291.074 39.053 290.074 35.053 286.574 33.053C288.795 33.053 292.172 34.0934 294.683 36.463C295.147 37.993 294.074 41.553 291.032 43.053C291.019 42.4627 291.074 41.7773 291.074 41.053Z" fill="#EDADBF"/>
<path d="M273.074 43.553C280.07 43.9028 286.087 44.0079 291.467 44.553M298.074 45.553C295.971 45.1023 293.778 44.7871 291.467 44.553M296.074 38.053C295.656 37.4679 295.187 36.9386 294.683 36.463M291.467 44.553C291.141 44.2082 291.047 43.6852 291.032 43.053M291.032 43.053C291.019 42.4627 291.074 41.7773 291.074 41.053C291.074 39.053 290.074 35.053 286.574 33.053C288.795 33.053 292.172 34.0934 294.683 36.463M291.032 43.053C294.074 41.553 295.147 37.993 294.683 36.463" stroke="black" stroke-width="0.5"/>
<path d="M291.074 41.053C286.574 41.053 284.574 37.053 283.574 34.553" stroke="black" stroke-width="0.5"/>
<path d="M133.072 13.153C119.572 17.153 107.572 23.053 93.5723 36.053C100.572 24.053 116.072 14.553 131.572 9.55298L133.072 13.153Z" stroke="black" stroke-width="0.5"/>
<path d="M131.572 9.55298C111.572 15.227 93.5723 32.553 85.5723 30.553C98.5723 21.053 114.572 12.553 131.072 8.05298L131.572 9.55298Z" stroke="black" stroke-width="0.5"/>
<path d="M10.5729 48.5529H4.57293C2.07227 52.5529 2.07227 62.5529 2.57293 66.0529C1.07227 67.0529 1.07286 71.5529 2.07293 73.0529L6.07293 73.5529V75.0529L2.07293 77.0529V79.0529C6.07293 80.0529 14.5729 82.0529 22.5729 81.5529V80.0529H40.0729C39.4063 71.5529 41.0729 61.0529 50.0729 54.0529C47.5729 50.0529 40.5729 45.5529 37.5729 45.0529C27.5729 44.0529 12.5729 46.5529 10.5729 48.5529Z" stroke="black" stroke-width="0.5"/>
<path d="M93.5742 36.053C75.7409 36.8863 44.0742 41.753 33.5742 44.753L37.5742 45.053C42.5742 46.553 48.0742 50.8863 50.0742 54.053C63.0732 44.553 88.5732 51.553 87.0732 79.053H97.0732C90.0732 68.053 91.0732 46.053 93.5742 36.053Z" stroke="black" stroke-width="0.5"/>
<path d="M10.5723 48.553H4.57227C37.0724 29.0529 59.0725 35.053 85.0723 30.553L94.0725 36.053C77.0725 37.053 48.0723 40.553 34.0723 44.753C26.0723 44.553 12.0723 46.553 10.5723 48.553Z" stroke="black" stroke-width="0.5"/>
<path d="M37.5737 45.0531C30.0737 44.053 13.0737 46.053 10.5737 48.5531C9.77372 50.953 12.9071 53.8863 14.5737 55.053C24.0737 56.553 37.5737 50.553 37.5737 45.0531Z" stroke="black" stroke-width="0.5"/>
<path d="M4.57296 48.553C11.573 49.553 5.57296 60.053 2.57296 65.053C2.07289 58.053 2.57275 52.553 4.57296 48.553Z" stroke="black" stroke-width="0.5"/>
<path d="M22.5723 84.553V80.053H40.0723L40.5723 84.553H22.5723Z" stroke="black" stroke-width="0.5"/>
<path d="M3.07422 66.0527C4.57422 68.5527 6.57422 71.7194 6.07422 73.5527M22.5742 80.0527C12.0742 80.5527 7.57422 76.5527 8.57422 73.0527C9.07422 72.5527 10.5742 71.0527 11.5742 71.0527" stroke="black" stroke-width="0.5"/>
<path d="M6.57422 66.0529C8.82416 65.5529 11.6991 64.9279 14.449 64.5529M14.449 64.5529C17.1991 64.1779 19.8242 64.0529 21.5742 64.5529C24.5742 66.0529 30.0742 71.0529 32.5742 75.0529C27.5742 76.0529 20.5742 75.5529 16.0742 75.5529C13.3816 75.5529 12.0742 73.2195 12.0742 72.0529C11.5742 69.0529 12.8241 65.8862 14.449 64.5529Z" stroke="black" stroke-width="0.5"/>
<path d="M12.0742 71.5529C20.0742 70.053 23.5742 72.6815 26.5742 74.1815M13.5742 74.553L31.0742 74.053" stroke="black" stroke-width="0.5"/>
<path d="M22.5723 83.0527H32.0723C34.0723 83.0527 35.5723 81.0527 35.0723 80.0527M38.5723 80.0527V84.5527" stroke="black" stroke-width="0.5"/>
<path d="M22.5742 81.5532C18.0742 81.5532 13.5742 82.0532 2.07416 79.0532V77.0532L6.07417 75.0532V73.5532L2.07416 73.0532C1.57324 71.553 0.573438 68.553 2.57343 66.053C2.07368 58.053 2.57368 51.553 4.57417 48.5527C37.0742 29.0531 59.0742 35.0532 85.0742 30.5532C163.074 -24.4469 245.074 12.553 282.074 27.0532L295.574 29.053L296.074 36.053V39.053C297.573 44.053 298.908 48.553 297.574 50.553C300.074 51.553 302.574 54.7196 302.574 56.553L300.574 66.553C301.026 77.4009 298.618 77.6252 289.286 77.9376C288.295 77.9708 286.226 78.005 285.074 78.053V79.553L260.074 79.984M22.5742 81.5532V84.5532H40.5725L40.0742 80.0532M22.5742 81.5532V80.0532H40.0742M40.0742 80.0532C37.0742 38.5532 90.5742 41.5532 87.0742 80.5532V83.053H213.574C207.574 39.553 262.074 39.553 260.074 79.984M259.573 79.984H260.074" stroke="black"/>
</svg>
