<svg width="303" height="95" viewBox="0 0 303 95" fill="none" xmlns="http://www.w3.org/2000/svg">
<circle cx="62.8545" cy="73.8611" r="20.5" fill="#EFC7D3" stroke="black"/>
<circle cx="235.854" cy="73.8611" r="20.5" fill="#EFC7D3" stroke="black"/>
<path d="M132.853 12.3609L131.353 8.86094C171.353 0.861052 192.853 1.36108 231.853 12.861L228.353 17.361C208.353 9.36099 190.353 8.36099 174.353 7.86106C171.853 7.36106 167.853 7.36102 165.353 7.86094C155.353 7.86106 143.353 9.36106 132.853 12.3609Z" fill="#EDADBF" stroke="black" stroke-width="0.5"/>
<path d="M131.353 8.86113L130.853 7.36113C166.853 -3.63892 199.353 0.360958 234.853 9.36113L231.853 12.8611C191.853 0.361084 165.853 1.86108 131.353 8.86113Z" fill="#EDADBF" stroke="black" stroke-width="0.5"/>
<path d="M131.353 8.86095C182.853 -2.63908 211.353 7.36096 231.853 12.8609" stroke="black" stroke-width="0.5"/>
<path d="M170.854 29.8611L174.354 7.86108C207.854 8.86108 219.354 14.3611 223.854 15.8611L226.337 27.8611C199.347 27.8617 181.852 29.3612 170.854 29.8611Z" fill="#EDADBF"/>
<path d="M226.854 30.3611L223.854 15.8611C219.354 14.3611 207.854 8.86108 174.354 7.86108L170.854 29.8611C181.854 29.3611 199.354 27.8611 226.354 27.8611" stroke="black" stroke-width="0.5"/>
<path d="M165.354 7.86108C132.354 8.86108 112.354 17.8611 93.3545 35.3611L95.8545 33.3611L159.854 30.3611L165.354 7.86108Z" fill="#EDADBF" stroke="black" stroke-width="0.5"/>
<path d="M239.853 22.3611C236.186 19.6944 230.353 17.3611 223.853 15.8611L226.353 27.8611H232.853C235.853 26.3611 238.853 24.1298 239.853 22.3611Z" fill="#EDADBF" stroke="black" stroke-width="0.5"/>
<path d="M96.8545 78.3611H163.854L198.354 76.8611H212.854L213.354 82.3611H199.354H98.3545H86.8545V78.3611H96.8545Z" fill="#EDADBF"/>
<path d="M96.8545 78.3611H163.854L198.354 76.8611M96.8545 78.3611C96.8545 79.8611 97.3545 80.8611 98.3545 82.3611M96.8545 78.3611H86.8545V82.3611H98.3545M198.354 76.8611L199.354 82.3611M198.354 76.8611H212.854L213.354 82.3611H199.354M199.354 82.3611H98.3545" stroke="black" stroke-width="0.5"/>
<path d="M96.8536 78.3611C92.3545 73.8611 89.3545 51.8611 93.3536 35.3611L165.354 31.3611C161.354 36.3611 160.354 70.3611 163.854 78.3611H96.8536Z" fill="#EDADBF" stroke="black" stroke-width="0.5"/>
<path d="M228.854 30.3611L165.354 31.3611C161.355 36.3611 160.355 70.3611 163.854 78.3611L198.354 76.8611C202.854 75.3611 209.354 69.8611 228.854 30.3611Z" fill="#EDADBF" stroke="black" stroke-width="0.5"/>
<path d="M170.854 29.8612C166.354 30.3612 162.854 30.3612 159.854 30.3612L165.354 7.86116C168.354 7.36108 171.354 7.36108 174.354 7.86116L170.854 29.8612Z" fill="#EDADBF" stroke="black" stroke-width="0.5"/>
<path d="M99.3545 31.8611C103.854 37.3611 110.854 33.8611 114.854 32.3611C115.854 16.861 102.854 24.861 99.3545 31.8611Z" fill="#EDADBF" stroke="black" stroke-width="0.5"/>
<path d="M234.853 9.36108L231.853 12.8611C248.853 18.3611 259.353 21.3611 271.853 27.8611H273.353L281.353 26.3611C266.353 19.8611 258.853 17.3611 234.853 9.36108Z" fill="#E0426F" stroke="black" stroke-width="0.5"/>
<path d="M271.853 27.8611C261.353 22.3611 242.353 15.8611 231.853 12.8611L229.853 15.3611L244.853 22.8611C243.353 25.3611 239.353 27.3611 233.353 30.0611C245.353 29.3611 262.353 28.3611 271.853 27.8611Z" fill="#E0426F" stroke="black" stroke-width="0.5"/>
<path d="M277.354 34.1611L283.353 31.8611L272.854 27.8611L228.854 30.3611C221.354 45.3611 206.354 75.8611 198.354 76.8611H212.854C211.354 65.8611 220.854 42.3611 245.854 51.3611C256.354 45.8611 266.354 40.3611 277.354 34.1611Z" fill="#E0426F" stroke="black" stroke-width="0.5"/>
<path d="M278.353 33.8611C266.353 40.3611 256.353 45.8611 245.853 51.3611C250.353 54.3611 260.853 60.3611 259.853 79.3611L284.853 78.8611V77.3611C293.353 76.3611 301.853 79.8611 300.353 65.8611L302.353 55.8611C302.353 54.3611 299.853 50.3611 297.353 49.8611C298.853 47.3611 295.853 38.3611 295.853 38.3611V36.8611L291.853 33.8611L286.853 32.3611L283.353 31.8611L278.353 33.8611Z" fill="#E0426F" stroke="black" stroke-width="0.5"/>
<path d="M281.353 26.3611L272.853 27.8611L283.353 31.8611C292.853 32.8611 291.851 34.3611 295.847 36.7813L295.353 28.3611L281.353 26.3611Z" fill="#E0426F"/>
<path d="M295.853 36.8611L295.847 36.7813M295.847 36.7813L295.353 28.3611L281.353 26.3611L272.853 27.8611L283.353 31.8611C292.853 32.8611 291.851 34.3611 295.847 36.7813Z" stroke="black" stroke-width="0.5"/>
<path d="M294.354 36.3613C293.854 33.8612 282.854 33.6611 277.354 34.1611" stroke="black" stroke-width="0.5"/>
<path d="M300.354 66.3611L260.854 68.3611C260.354 63.3611 258.188 59.1944 256.354 57.3611L302.354 54.8611M300.854 52.3611C289.854 50.8611 278.854 46.0611 266.854 40.0611M228.854 30.3611L272.854 27.8611L281.354 26.3611" stroke="black" stroke-width="0.5"/>
<path d="M290.854 40.3611C290.854 38.3611 289.854 34.3611 286.354 32.3611C288.575 32.3611 291.952 33.4015 294.463 35.7711C294.927 37.3011 293.854 40.8611 290.813 42.3611C290.799 41.7708 290.854 41.0854 290.854 40.3611Z" fill="#E0426F"/>
<path d="M272.854 42.8611C279.85 43.2109 285.867 43.316 291.248 43.8611M297.854 44.8611C295.751 44.4104 293.558 44.0952 291.248 43.8611M295.854 37.3611C295.437 36.776 294.967 36.2467 294.463 35.7711M291.248 43.8611C290.921 43.5163 290.827 42.9933 290.813 42.3611M290.813 42.3611C290.799 41.7708 290.854 41.0854 290.854 40.3611C290.854 38.3611 289.854 34.3611 286.354 32.3611C288.575 32.3611 291.952 33.4015 294.463 35.7711M290.813 42.3611C293.854 40.8611 294.927 37.3011 294.463 35.7711" stroke="black" stroke-width="0.5"/>
<path d="M290.854 40.3611C286.354 40.3611 284.354 36.3611 283.354 33.8611" stroke="black" stroke-width="0.5"/>
<path d="M132.853 12.4611C119.353 16.4611 107.353 22.3611 93.3525 35.3611C100.353 23.3611 115.853 13.8611 131.353 8.86108L132.853 12.4611Z" stroke="black" stroke-width="0.5"/>
<path d="M131.353 8.86108C111.353 14.5351 93.3525 31.8611 85.3525 29.8611C98.3525 20.3611 114.353 11.8611 130.853 7.36108L131.353 8.86108Z" stroke="black" stroke-width="0.5"/>
<path d="M10.3532 47.861H4.35321C1.85254 51.861 1.85254 61.861 2.35321 65.361C0.852539 66.361 0.853137 70.861 1.85321 72.361L5.85321 72.861V74.361L1.85321 76.361V78.361C5.85321 79.361 14.3532 81.361 22.3532 80.861V79.361H39.8532C39.1865 70.861 40.8532 60.361 49.8532 53.361C47.3532 49.361 40.3532 44.861 37.3532 44.361C27.3532 43.361 12.3532 45.861 10.3532 47.861Z" stroke="black" stroke-width="0.5"/>
<path d="M93.3545 35.3611C75.5212 36.1944 43.8545 41.0611 33.3545 44.0611L37.3545 44.3611C42.3545 45.8611 47.8545 50.1944 49.8545 53.3611C62.8535 43.8611 88.3535 50.8611 86.8535 78.3611H96.8535C89.8535 67.3611 90.8535 45.3611 93.3545 35.3611Z" stroke="black" stroke-width="0.5"/>
<path d="M10.3525 47.8611H4.35254C36.8527 28.361 58.8528 34.3611 84.8525 29.8611L93.8528 35.3611C76.8528 36.3611 47.8525 39.8611 33.8525 44.0611C25.8525 43.8611 11.8525 45.8611 10.3525 47.8611Z" stroke="black" stroke-width="0.5"/>
<path d="M37.354 44.3612C29.854 43.3611 12.854 45.3611 10.354 47.8612C9.55399 50.2611 12.6873 53.1944 14.354 54.3611C23.854 55.8611 37.354 49.8611 37.354 44.3612Z" stroke="black" stroke-width="0.5"/>
<path d="M4.35323 47.8611C11.3532 48.8611 5.35323 59.3611 2.35323 64.3611C1.85316 57.3611 2.35303 51.8611 4.35323 47.8611Z" stroke="black" stroke-width="0.5"/>
<path d="M22.3525 83.8611V79.3611H39.8525L40.3525 83.8611H22.3525Z" stroke="black" stroke-width="0.5"/>
<path d="M2.85449 65.3608C4.35449 67.8608 6.35449 71.0275 5.85449 72.8608M22.3545 79.3608C11.8545 79.8608 7.35449 75.8608 8.35449 72.3608C8.85449 71.8608 10.3545 70.3608 11.3545 70.3608" stroke="black" stroke-width="0.5"/>
<path d="M6.35449 65.361C8.60443 64.861 11.4793 64.236 14.2293 63.861M14.2293 63.861C16.9794 63.486 19.6044 63.361 21.3545 63.861C24.3545 65.361 29.8545 70.361 32.3545 74.361C27.3545 75.361 20.3545 74.861 15.8545 74.861C13.1619 74.861 11.8545 72.5276 11.8545 71.361C11.3545 68.361 12.6043 65.1943 14.2293 63.861Z" stroke="black" stroke-width="0.5"/>
<path d="M11.8545 70.861C19.8545 69.3611 23.3545 71.9896 26.3545 73.4896M13.3545 73.8611L30.8545 73.3611" stroke="black" stroke-width="0.5"/>
<path d="M22.3525 82.3608H31.8525C33.8525 82.3608 35.3525 80.3608 34.8525 79.3608M38.3525 79.3608V83.8608" stroke="black" stroke-width="0.5"/>
<path d="M22.3544 80.8613C17.8544 80.8613 13.3544 81.3613 1.85444 78.3613V76.3613L5.85444 74.3613V72.8613L1.85444 72.3613C1.35352 70.8611 0.353711 67.8611 2.35371 65.3611C1.85395 57.3611 2.35395 50.8611 4.35444 47.8608C36.8544 28.3612 58.8544 34.3613 84.8544 29.8613C162.854 -25.1388 244.854 11.8611 281.854 26.3613L295.354 28.3611L295.854 35.3611V38.3611C297.353 43.3611 298.688 47.8611 297.354 49.8611C299.854 50.8611 302.354 54.0278 302.354 55.8611L300.354 65.8611C300.806 76.709 298.398 76.9333 289.067 77.2457C288.076 77.2789 286.007 77.3131 284.854 77.3611V78.8611L259.854 79.2921M22.3544 80.8613V83.8613H40.3528L39.8544 79.3613M22.3544 80.8613V79.3613H39.8544M39.8544 79.3613C36.8544 37.8613 90.3544 40.8613 86.8544 79.8613V82.3611H213.354C207.354 38.8611 261.854 38.8611 259.854 79.2921M259.353 79.2921H259.854" stroke="black"/>
</svg>
