<svg width="303" height="96" viewBox="0 0 303 96" fill="none" xmlns="http://www.w3.org/2000/svg">
<circle cx="62.4697" cy="74.3838" r="20.5" fill="#E0426F" stroke="black"/>
<circle cx="235.47" cy="74.3838" r="20.5" fill="#E0426F" stroke="black"/>
<path d="M132.468 12.8836L130.968 9.38364C170.968 1.38376 192.468 1.88379 231.468 13.3837L227.968 17.8837C207.968 9.8837 189.968 8.8837 173.968 8.38377C171.468 7.88377 167.468 7.88373 164.968 8.38364C154.968 8.38377 142.968 9.88377 132.468 12.8836Z" fill="#E56E90" stroke="black" stroke-width="0.5"/>
<path d="M130.968 9.38383L130.468 7.88383C166.468 -3.11621 198.968 0.883663 234.468 9.88383L231.468 13.3838C191.468 0.883789 165.468 2.38379 130.968 9.38383Z" fill="#E56E90" stroke="black" stroke-width="0.5"/>
<path d="M130.968 9.3839C182.468 -2.11613 210.968 7.88391 231.468 13.3839" stroke="black" stroke-width="0.5"/>
<path d="M170.47 30.3838L173.97 8.38379C207.47 9.38379 218.97 14.8838 223.47 16.3838L225.952 28.3838C198.962 28.3844 181.467 29.8839 170.47 30.3838Z" fill="#E56E90"/>
<path d="M226.47 30.8838L223.47 16.3838C218.97 14.8838 207.47 9.38379 173.97 8.38379L170.47 30.3838C181.47 29.8838 198.97 28.3838 225.97 28.3838" stroke="black" stroke-width="0.5"/>
<path d="M164.97 8.38379C131.97 9.38379 111.97 18.3838 92.9697 35.8838L95.4697 33.8838L159.47 30.8838L164.97 8.38379Z" fill="#E56E90" stroke="black" stroke-width="0.5"/>
<path d="M239.468 22.8838C235.801 20.2171 229.968 17.8838 223.468 16.3838L225.968 28.3838H232.468C235.468 26.8838 238.468 24.6525 239.468 22.8838Z" fill="#E56E90" stroke="black" stroke-width="0.5"/>
<path d="M96.4697 78.8838H163.47L197.97 77.3838H212.47L212.97 82.8838H198.97H97.9697H86.4697V78.8838H96.4697Z" fill="#E56E90"/>
<path d="M96.4697 78.8838H163.47L197.97 77.3838M96.4697 78.8838C96.4697 80.3838 96.9697 81.3838 97.9697 82.8838M96.4697 78.8838H86.4697V82.8838H97.9697M197.97 77.3838L198.97 82.8838M197.97 77.3838H212.47L212.97 82.8838H198.97M198.97 82.8838H97.9697" stroke="black" stroke-width="0.5"/>
<path d="M96.4689 78.8838C91.9697 74.3838 88.9698 52.3838 92.9689 35.8838L164.97 31.8838C160.97 36.8838 159.97 70.8838 163.47 78.8838H96.4689Z" fill="#E56E90" stroke="black" stroke-width="0.5"/>
<path d="M228.47 30.8838L164.97 31.8838C160.97 36.8838 159.97 70.8838 163.47 78.8838L197.97 77.3838C202.47 75.8838 208.97 70.3838 228.47 30.8838Z" fill="#E56E90" stroke="black" stroke-width="0.5"/>
<path d="M170.47 30.3839C165.97 30.8839 162.47 30.8839 159.47 30.8839L164.97 8.38386C167.97 7.88379 170.97 7.88379 173.97 8.38386L170.47 30.3839Z" fill="#E56E90" stroke="black" stroke-width="0.5"/>
<path d="M98.9697 32.384C103.47 37.884 110.47 34.384 114.47 32.884C115.47 17.3839 102.47 25.3839 98.9697 32.384Z" fill="#E56E90" stroke="black" stroke-width="0.5"/>
<path d="M234.468 9.88379L231.468 13.3838C248.468 18.8838 258.968 21.8838 271.468 28.3838H272.968L280.968 26.8838C265.968 20.3838 258.468 17.8838 234.468 9.88379Z" fill="#EDADBF" stroke="black" stroke-width="0.5"/>
<path d="M271.468 28.3838C260.968 22.8838 241.968 16.3838 231.468 13.3838L229.468 15.8838L244.468 23.3838C242.968 25.8838 238.968 27.8838 232.968 30.5838C244.968 29.8838 261.968 28.8838 271.468 28.3838Z" fill="#EDADBF" stroke="black" stroke-width="0.5"/>
<path d="M276.97 34.6838L282.968 32.3838L272.469 28.3838L228.469 30.8838C220.969 45.8838 205.969 76.3838 197.969 77.3838H212.469C210.969 66.3838 220.469 42.8838 245.47 51.8838C255.97 46.3838 265.97 40.8838 276.97 34.6838Z" fill="#EDADBF" stroke="black" stroke-width="0.5"/>
<path d="M277.968 34.3838C265.968 40.8838 255.968 46.3838 245.468 51.8838C249.968 54.8838 260.468 60.8838 259.468 79.8838L284.468 79.3838V77.8838C292.968 76.8838 301.468 80.3838 299.968 66.3838L301.968 56.3838C301.968 54.8838 299.468 50.8838 296.968 50.3838C298.468 47.8838 295.468 38.8838 295.468 38.8838V37.3838L291.468 34.3838L286.468 32.8838L282.968 32.3838L277.968 34.3838Z" fill="#EDADBF" stroke="black" stroke-width="0.5"/>
<path d="M280.968 26.8838L272.468 28.3838L282.968 32.3838C292.468 33.3838 291.467 34.8838 295.462 37.304L294.968 28.8838L280.968 26.8838Z" fill="#EDADBF"/>
<path d="M295.468 37.3838L295.462 37.304M295.462 37.304L294.968 28.8838L280.968 26.8838L272.468 28.3838L282.968 32.3838C292.468 33.3838 291.467 34.8838 295.462 37.304Z" stroke="black" stroke-width="0.5"/>
<path d="M293.97 36.884C293.47 34.3839 282.47 34.1838 276.97 34.6838" stroke="black" stroke-width="0.5"/>
<path d="M299.97 66.8838L260.47 68.8838C259.97 63.8838 257.803 59.7171 255.97 57.8838L301.97 55.3838M300.47 52.8838C289.47 51.3838 278.47 46.5838 266.47 40.5838M228.47 30.8838L272.47 28.3838L280.97 26.8838" stroke="black" stroke-width="0.5"/>
<path d="M290.47 40.8838C290.47 38.8838 289.47 34.8838 285.97 32.8838C288.191 32.8838 291.567 33.9242 294.079 36.2938C294.542 37.8238 293.47 41.3838 290.428 42.8838C290.414 42.2935 290.47 41.6081 290.47 40.8838Z" fill="#EDADBF"/>
<path d="M272.47 43.3838C279.465 43.7336 285.482 43.8387 290.863 44.3838M297.47 45.3838C295.367 44.9331 293.173 44.6179 290.863 44.3838M295.47 37.8838C295.052 37.2987 294.583 36.7694 294.079 36.2938M290.863 44.3838C290.537 44.039 290.443 43.516 290.428 42.8838M290.428 42.8838C290.414 42.2935 290.47 41.6081 290.47 40.8838C290.47 38.8838 289.47 34.8838 285.97 32.8838C288.191 32.8838 291.567 33.9242 294.079 36.2938M290.428 42.8838C293.47 41.3838 294.542 37.8238 294.079 36.2938" stroke="black" stroke-width="0.5"/>
<path d="M290.47 40.8838C285.97 40.8838 283.97 36.8838 282.97 34.3838" stroke="black" stroke-width="0.5"/>
<path d="M132.468 12.9838C118.968 16.9838 106.968 22.8838 92.9678 35.8838C99.9678 23.8838 115.468 14.3838 130.968 9.38379L132.468 12.9838Z" fill="#E0426F" stroke="black" stroke-width="0.5"/>
<path d="M130.968 9.38379C110.968 15.0578 92.9678 32.3838 84.9678 30.3838C97.9678 20.8838 113.968 12.3838 130.468 7.88379L130.968 9.38379Z" fill="#E0426F" stroke="black" stroke-width="0.5"/>
<path d="M9.96844 48.3837H3.96844C1.46777 52.3837 1.46777 62.3837 1.96844 65.8837C0.467773 66.8837 0.468371 71.3837 1.46844 72.8837L5.46844 73.3837V74.8837L1.46844 76.8837V78.8837C5.46844 79.8837 13.9684 81.8837 21.9684 81.3837V79.8837H39.4684C38.8018 71.3837 40.4684 60.8837 49.4684 53.8837C46.9684 49.8837 39.9684 45.3837 36.9684 44.8837C26.9684 43.8837 11.9684 46.3837 9.96844 48.3837Z" fill="#E0426F" stroke="black" stroke-width="0.5"/>
<path d="M92.9697 35.8838C75.1364 36.7171 43.4697 41.5838 32.9697 44.5838L36.9697 44.8838C41.9697 46.3838 47.4697 50.7171 49.4697 53.8838C62.4688 44.3838 87.9688 51.3838 86.4688 78.8838H96.4688C89.4688 67.8838 90.4688 45.8838 92.9697 35.8838Z" fill="#E0426F" stroke="black" stroke-width="0.5"/>
<path d="M9.96777 48.3838H3.96777C36.468 28.8837 58.468 34.8838 84.4678 30.3838L93.468 35.8838C76.468 36.8838 47.4678 40.3838 33.4678 44.5838C25.4678 44.3838 11.4678 46.3838 9.96777 48.3838Z" fill="#E0426F" stroke="black" stroke-width="0.5"/>
<path d="M36.9692 44.8839C29.4692 43.8838 12.4692 45.8838 9.96923 48.3839C9.16923 50.7838 12.3026 53.7171 13.9692 54.8838C23.4692 56.3838 36.9692 50.3838 36.9692 44.8839Z" fill="#E0426F" stroke="black" stroke-width="0.5"/>
<path d="M3.96847 48.3838C10.9685 49.3838 4.96847 59.8838 1.96847 64.8838C1.4684 57.8838 1.96826 52.3838 3.96847 48.3838Z" fill="#E0426F" stroke="black" stroke-width="0.5"/>
<path d="M21.9678 84.3838V79.8838H39.4678L39.9678 84.3838H21.9678Z" fill="#E0426F" stroke="black" stroke-width="0.5"/>
<path d="M2.46973 65.8838C3.96973 68.3838 5.96973 71.5505 5.46973 73.3838M21.9697 79.8838C11.4697 80.3838 6.96973 76.3838 7.96973 72.8838C8.46973 72.3838 9.96973 70.8838 10.9697 70.8838" stroke="black" stroke-width="0.5"/>
<path d="M31.9697 74.8839C29.4697 70.8839 23.9697 65.884 20.9697 64.384C19.2197 63.884 16.5946 64.009 13.8445 64.384C12.2196 65.7173 10.9697 68.8839 11.4697 71.8839C11.4697 73.0506 12.7771 75.3839 15.4697 75.3839C19.9697 75.3839 26.9697 75.8839 31.9697 74.8839Z" fill="#E0426F"/>
<path d="M5.96973 65.884C8.21967 65.384 11.0946 64.759 13.8445 64.384M13.8445 64.384C16.5946 64.009 19.2197 63.884 20.9697 64.384C23.9697 65.884 29.4697 70.8839 31.9697 74.8839C26.9697 75.8839 19.9697 75.3839 15.4697 75.3839C12.7771 75.3839 11.4697 73.0506 11.4697 71.8839C10.9697 68.8839 12.2196 65.7173 13.8445 64.384Z" stroke="black" stroke-width="0.5"/>
<path d="M11.4697 71.384C19.4697 69.884 22.9697 72.5125 25.9697 74.0125M12.9697 74.384L30.4697 73.884" stroke="black" stroke-width="0.5"/>
<path d="M21.9678 82.8838H31.4678C33.4678 82.8838 34.9678 80.8838 34.4678 79.8838M37.9678 79.8838V84.3838" stroke="black" stroke-width="0.5"/>
<path d="M21.9697 81.384C17.4697 81.384 12.9697 81.884 1.46967 78.884V76.884L5.46967 74.884V73.384L1.46967 72.884C0.96875 71.3838 -0.0310541 68.3838 1.96894 65.8838C1.46918 57.8838 1.96918 51.3838 3.96967 48.3835C36.4697 28.8839 58.4697 34.884 84.4697 30.384C162.47 -24.6161 244.47 12.3838 281.47 26.884L294.97 28.8838L295.47 35.8838V38.8838C296.968 43.8838 298.303 48.3838 296.97 50.3838C299.47 51.3838 301.97 54.5505 301.97 56.3838L299.97 66.3838C300.422 77.2317 298.013 77.456 288.682 77.7684C287.691 77.8016 285.622 77.8358 284.47 77.8838V79.3838L259.47 79.8148M21.9697 81.384V84.384H39.968L39.4697 79.884M21.9697 81.384V79.884H39.4697M39.4697 79.884C36.4697 38.384 89.9697 41.384 86.4697 80.384V82.8838H212.97C206.97 39.3838 261.47 39.3838 259.47 79.8148M258.968 79.8148H259.47" stroke="black"/>
</svg>
