<svg width="303" height="95" viewBox="0 0 303 95" fill="none" xmlns="http://www.w3.org/2000/svg">
<circle cx="62.4795" cy="73.8611" r="20.5" fill="#E0426F" stroke="black"/>
<circle cx="235.479" cy="73.8611" r="20.5" fill="#E0426F" stroke="black"/>
<path d="M132.478 12.3609L130.978 8.86094C170.978 0.861052 192.478 1.36108 231.478 12.861L227.978 17.361C207.978 9.36099 189.978 8.36099 173.978 7.86106C171.478 7.36106 167.478 7.36102 164.978 7.86094C154.978 7.86106 142.978 9.36106 132.478 12.3609Z" fill="#EDADBF" stroke="black" stroke-width="0.5"/>
<path d="M130.978 8.86113L130.478 7.36113C166.478 -3.63892 198.978 0.360958 234.478 9.36113L231.478 12.8611C191.478 0.361084 165.478 1.86108 130.978 8.86113Z" fill="#EDADBF" stroke="black" stroke-width="0.5"/>
<path d="M130.978 8.86095C182.478 -2.63908 210.978 7.36096 231.478 12.8609" stroke="black" stroke-width="0.5"/>
<path d="M170.479 29.8611L173.979 7.86108C207.479 8.86108 218.979 14.3611 223.479 15.8611L225.962 27.8611C198.972 27.8617 181.477 29.3612 170.479 29.8611Z" fill="#EDADBF"/>
<path d="M226.479 30.3611L223.479 15.8611C218.979 14.3611 207.479 8.86108 173.979 7.86108L170.479 29.8611C181.479 29.3611 198.979 27.8611 225.979 27.8611" stroke="black" stroke-width="0.5"/>
<path d="M164.979 7.86108C131.979 8.86108 111.979 17.8611 92.9795 35.3611L95.4795 33.3611L159.479 30.3611L164.979 7.86108Z" fill="#EDADBF" stroke="black" stroke-width="0.5"/>
<path d="M239.478 22.3611C235.811 19.6944 229.978 17.3611 223.478 15.8611L225.978 27.8611H232.478C235.478 26.3611 238.478 24.1298 239.478 22.3611Z" fill="#EDADBF" stroke="black" stroke-width="0.5"/>
<path d="M96.4795 78.3611H163.479L197.979 76.8611H212.479L212.979 82.3611H198.979H97.9795H86.4795V78.3611H96.4795Z" fill="#EDADBF"/>
<path d="M96.4795 78.3611H163.479L197.979 76.8611M96.4795 78.3611C96.4795 79.8611 96.9795 80.8611 97.9795 82.3611M96.4795 78.3611H86.4795V82.3611H97.9795M197.979 76.8611L198.979 82.3611M197.979 76.8611H212.479L212.979 82.3611H198.979M198.979 82.3611H97.9795" stroke="black" stroke-width="0.5"/>
<path d="M96.4786 78.3611C91.9795 73.8611 88.9795 51.8611 92.9786 35.3611L164.979 31.3611C160.979 36.3611 159.979 70.3611 163.479 78.3611H96.4786Z" fill="#EDADBF" stroke="black" stroke-width="0.5"/>
<path d="M228.479 30.3611L164.979 31.3611C160.98 36.3611 159.98 70.3611 163.479 78.3611L197.979 76.8611C202.479 75.3611 208.979 69.8611 228.479 30.3611Z" fill="#EDADBF" stroke="black" stroke-width="0.5"/>
<path d="M170.479 29.8612C165.979 30.3612 162.479 30.3612 159.479 30.3612L164.979 7.86116C167.979 7.36108 170.979 7.36108 173.979 7.86116L170.479 29.8612Z" fill="#EDADBF" stroke="black" stroke-width="0.5"/>
<path d="M98.9795 31.8611C103.479 37.3611 110.479 33.8611 114.479 32.3611C115.479 16.861 102.479 24.861 98.9795 31.8611Z" fill="#EDADBF" stroke="black" stroke-width="0.5"/>
<path d="M234.478 9.36108L231.478 12.8611C248.478 18.3611 258.978 21.3611 271.478 27.8611H272.978L280.978 26.3611C265.978 19.8611 258.478 17.3611 234.478 9.36108Z" fill="#EFC7D3" stroke="black" stroke-width="0.5"/>
<path d="M271.478 27.8611C260.978 22.3611 241.978 15.8611 231.478 12.8611L229.478 15.3611L244.478 22.8611C242.978 25.3611 238.978 27.3611 232.978 30.0611C244.978 29.3611 261.978 28.3611 271.478 27.8611Z" fill="#EFC7D3" stroke="black" stroke-width="0.5"/>
<path d="M276.979 34.1611L282.978 31.8611L272.479 27.8611L228.479 30.3611C220.979 45.3611 205.979 75.8611 197.979 76.8611H212.479C210.979 65.8611 220.479 42.3611 245.479 51.3611C255.979 45.8611 265.979 40.3611 276.979 34.1611Z" fill="#EFC7D3" stroke="black" stroke-width="0.5"/>
<path d="M277.978 33.8611C265.978 40.3611 255.978 45.8611 245.478 51.3611C249.978 54.3611 260.478 60.3611 259.478 79.3611L284.478 78.8611V77.3611C292.978 76.3611 301.478 79.8611 299.978 65.8611L301.978 55.8611C301.978 54.3611 299.478 50.3611 296.978 49.8611C298.478 47.3611 295.478 38.3611 295.478 38.3611V36.8611L291.478 33.8611L286.478 32.3611L282.978 31.8611L277.978 33.8611Z" fill="#EFC7D3" stroke="black" stroke-width="0.5"/>
<path d="M280.978 26.3611L272.478 27.8611L282.978 31.8611C292.478 32.8611 291.476 34.3611 295.472 36.7813L294.978 28.3611L280.978 26.3611Z" fill="#EFC7D3"/>
<path d="M295.478 36.8611L295.472 36.7813M295.472 36.7813L294.978 28.3611L280.978 26.3611L272.478 27.8611L282.978 31.8611C292.478 32.8611 291.476 34.3611 295.472 36.7813Z" stroke="black" stroke-width="0.5"/>
<path d="M293.979 36.3613C293.479 33.8612 282.479 33.6611 276.979 34.1611" stroke="black" stroke-width="0.5"/>
<path d="M299.979 66.3611L260.479 68.3611C259.979 63.3611 257.813 59.1944 255.979 57.3611L301.979 54.8611M300.479 52.3611C289.479 50.8611 278.479 46.0611 266.479 40.0611M228.479 30.3611L272.479 27.8611L280.979 26.3611" stroke="black" stroke-width="0.5"/>
<path d="M290.479 40.3611C290.479 38.3611 289.479 34.3611 285.979 32.3611C288.2 32.3611 291.577 33.4015 294.088 35.7711C294.552 37.3011 293.479 40.8611 290.438 42.3611C290.424 41.7708 290.479 41.0854 290.479 40.3611Z" fill="#EFC7D3"/>
<path d="M272.479 42.8611C279.475 43.2109 285.492 43.316 290.873 43.8611M297.479 44.8611C295.376 44.4104 293.183 44.0952 290.873 43.8611M295.479 37.3611C295.062 36.776 294.592 36.2467 294.088 35.7711M290.873 43.8611C290.546 43.5163 290.452 42.9933 290.438 42.3611M290.438 42.3611C290.424 41.7708 290.479 41.0854 290.479 40.3611C290.479 38.3611 289.479 34.3611 285.979 32.3611C288.2 32.3611 291.577 33.4015 294.088 35.7711M290.438 42.3611C293.479 40.8611 294.552 37.3011 294.088 35.7711" stroke="black" stroke-width="0.5"/>
<path d="M290.479 40.3611C285.979 40.3611 283.979 36.3611 282.979 33.8611" stroke="black" stroke-width="0.5"/>
<path d="M132.478 12.4611C118.978 16.4611 106.978 22.3611 92.978 35.3611C99.978 23.3611 115.478 13.8611 130.978 8.86108L132.478 12.4611Z" stroke="black" stroke-width="0.5"/>
<path d="M130.978 8.86108C110.978 14.5351 92.978 31.8611 84.978 29.8611C97.978 20.3611 113.978 11.8611 130.478 7.36108L130.978 8.86108Z" stroke="black" stroke-width="0.5"/>
<path d="M9.97869 47.861H3.97869C1.47803 51.861 1.47803 61.861 1.97869 65.361C0.478027 66.361 0.478625 70.861 1.47869 72.361L5.47869 72.861V74.361L1.47869 76.361V78.361C5.47869 79.361 13.9787 81.361 21.9787 80.861V79.361H39.4787C38.812 70.861 40.4787 60.361 49.4787 53.361C46.9787 49.361 39.9787 44.861 36.9787 44.361C26.9787 43.361 11.9787 45.861 9.97869 47.861Z" stroke="black" stroke-width="0.5"/>
<path d="M92.9795 35.3611C75.1462 36.1944 43.4795 41.0611 32.9795 44.0611L36.9795 44.3611C41.9795 45.8611 47.4795 50.1944 49.4795 53.3611C62.4785 43.8611 87.9785 50.8611 86.4785 78.3611H96.4785C89.4785 67.3611 90.4785 45.3611 92.9795 35.3611Z" stroke="black" stroke-width="0.5"/>
<path d="M9.97754 47.8611H3.97754C36.4777 28.361 58.4778 34.3611 84.4775 29.8611L93.4778 35.3611C76.4778 36.3611 47.4775 39.8611 33.4775 44.0611C25.4775 43.8611 11.4775 45.8611 9.97754 47.8611Z" stroke="black" stroke-width="0.5"/>
<path d="M36.9795 44.3612C29.4795 43.3611 12.4795 45.3611 9.97948 47.8612C9.17948 50.2611 12.3128 53.1944 13.9795 54.3611C23.4795 55.8611 36.9795 49.8611 36.9795 44.3612Z" stroke="black" stroke-width="0.5"/>
<path d="M3.97872 47.8611C10.9787 48.8611 4.97872 59.3611 1.97872 64.3611C1.47865 57.3611 1.97852 51.8611 3.97872 47.8611Z" stroke="black" stroke-width="0.5"/>
<path d="M21.978 83.8611V79.3611H39.478L39.978 83.8611H21.978Z" stroke="black" stroke-width="0.5"/>
<path d="M2.47949 65.3608C3.97949 67.8608 5.97949 71.0275 5.47949 72.8608M21.9795 79.3608C11.4795 79.8608 6.97949 75.8608 7.97949 72.3608C8.47949 71.8608 9.97949 70.3608 10.9795 70.3608" stroke="black" stroke-width="0.5"/>
<path d="M5.97949 65.361C8.22943 64.861 11.1043 64.236 13.8543 63.861M13.8543 63.861C16.6044 63.486 19.2294 63.361 20.9795 63.861C23.9795 65.361 29.4795 70.361 31.9795 74.361C26.9795 75.361 19.9795 74.861 15.4795 74.861C12.7869 74.861 11.4795 72.5276 11.4795 71.361C10.9795 68.361 12.2293 65.1943 13.8543 63.861Z" stroke="black" stroke-width="0.5"/>
<path d="M11.4795 70.861C19.4795 69.3611 22.9795 71.9896 25.9795 73.4896M12.9795 73.8611L30.4795 73.3611" stroke="black" stroke-width="0.5"/>
<path d="M21.9775 82.3608H31.4775C33.4775 82.3608 34.9775 80.3608 34.4775 79.3608M37.9775 79.3608V83.8608" stroke="black" stroke-width="0.5"/>
<path d="M21.9794 80.8613C17.4794 80.8613 12.9794 81.3613 1.47944 78.3613V76.3613L5.47944 74.3613V72.8613L1.47944 72.3613C0.978516 70.8611 -0.0212885 67.8611 1.97871 65.3611C1.47895 57.3611 1.97895 50.8611 3.97944 47.8608C36.4794 28.3612 58.4794 34.3613 84.4794 29.8613C162.479 -25.1388 244.479 11.8611 281.479 26.3613L294.979 28.3611L295.479 35.3611V38.3611C296.978 43.3611 298.313 47.8611 296.979 49.8611C299.479 50.8611 301.979 54.0278 301.979 55.8611L299.979 65.8611C300.431 76.709 298.023 76.9333 288.692 77.2457C287.701 77.2789 285.632 77.3131 284.479 77.3611V78.8611L259.479 79.2921M21.9794 80.8613V83.8613H39.9778L39.4794 79.3613M21.9794 80.8613V79.3613H39.4794M39.4794 79.3613C36.4794 37.8613 89.9794 40.8613 86.4794 79.8613V82.3611H212.979C206.979 38.8611 261.479 38.8611 259.479 79.2921M258.978 79.2921H259.479" stroke="black"/>
</svg>
