<svg width="303" height="96" viewBox="0 0 303 96" fill="none" xmlns="http://www.w3.org/2000/svg">
<circle cx="62.4473" cy="74.1692" r="20.5" fill="#E0426F" stroke="black"/>
<circle cx="235.447" cy="74.1692" r="20.5" fill="#E0426F" stroke="black"/>
<path d="M132.445 12.669L130.945 9.16904C170.945 1.16916 192.445 1.66919 231.445 13.1691L227.945 17.6691C207.945 9.6691 189.945 8.6691 173.945 8.16917C171.445 7.66917 167.445 7.66913 164.945 8.16904C154.945 8.16917 142.945 9.66917 132.445 12.669Z" stroke="black" stroke-width="0.5"/>
<path d="M130.945 9.16923L130.445 7.66923C166.445 -3.33081 198.945 0.669064 234.445 9.66924L231.445 13.1692C191.445 0.669189 165.445 2.16919 130.945 9.16923Z" stroke="black" stroke-width="0.5"/>
<path d="M130.945 9.16918C182.445 -2.33085 210.945 7.66919 231.445 13.1692" stroke="black" stroke-width="0.5"/>
<path d="M226.447 30.6692L223.447 16.1692C218.947 14.6692 207.447 9.16919 173.947 8.16919L170.447 30.1692C181.447 29.6692 198.947 28.1692 225.947 28.1692" stroke="black" stroke-width="0.5"/>
<path d="M164.947 8.16919C131.947 9.16919 111.947 18.1692 92.9473 35.6692L95.4473 33.6692L159.447 30.6692L164.947 8.16919Z" stroke="black" stroke-width="0.5"/>
<path d="M239.445 22.6692C235.779 20.0025 229.945 17.6692 223.445 16.1692L225.945 28.1692H232.445C235.445 26.6692 238.445 24.4379 239.445 22.6692Z" stroke="black" stroke-width="0.5"/>
<path d="M96.4473 78.6692H163.447L197.947 77.1692M96.4473 78.6692C96.4473 80.1692 96.9473 81.1692 97.9473 82.6692M96.4473 78.6692H86.4473V82.6692H97.9473M197.947 77.1692L198.947 82.6692M197.947 77.1692H212.447L212.947 82.6692H198.947M198.947 82.6692H97.9473" stroke="black" stroke-width="0.5"/>
<path d="M96.4464 78.6692C91.9473 74.1692 88.9473 52.1692 92.9464 35.6692L164.947 31.6692C160.947 36.6692 159.947 70.6692 163.447 78.6692H96.4464Z" stroke="black" stroke-width="0.5"/>
<path d="M228.447 30.6692L164.947 31.6692C160.947 36.6692 159.948 70.6692 163.447 78.6692L197.947 77.1692C202.447 75.6692 208.947 70.1692 228.447 30.6692Z" stroke="black" stroke-width="0.5"/>
<path d="M170.447 30.1693C165.947 30.6693 162.447 30.6693 159.447 30.6693L164.947 8.16926C167.947 7.66919 170.947 7.66919 173.947 8.16926L170.447 30.1693Z" stroke="black" stroke-width="0.5"/>
<path d="M98.9473 32.1693C103.447 37.6693 110.447 34.1693 114.447 32.6693C115.447 17.1692 102.447 25.1692 98.9473 32.1693Z" stroke="black" stroke-width="0.5"/>
<path d="M234.445 9.66919L231.445 13.1692C248.445 18.6692 258.945 21.6692 271.445 28.1692H272.945L280.945 26.6692C265.945 20.1692 258.445 17.6692 234.445 9.66919Z" fill="#E0426F" stroke="black" stroke-width="0.5"/>
<path d="M271.445 28.1692C260.945 22.6692 241.945 16.1692 231.445 13.1692L229.445 15.6692L244.445 23.1692C242.945 25.6692 238.945 27.6692 232.945 30.3692C244.945 29.6692 261.945 28.6692 271.445 28.1692Z" fill="#E0426F" stroke="black" stroke-width="0.5"/>
<path d="M276.947 34.4692L282.946 32.1692L272.446 28.1692L228.446 30.6692C220.946 45.6692 205.946 76.1692 197.946 77.1692H212.446C210.946 66.1692 220.446 42.6692 245.447 51.6692C255.947 46.1692 265.947 40.6692 276.947 34.4692Z" fill="#E0426F" stroke="black" stroke-width="0.5"/>
<path d="M277.945 34.1692C265.945 40.6692 255.945 46.1692 245.445 51.6692C249.945 54.6692 260.445 60.6692 259.445 79.6692L284.445 79.1692V77.6692C292.945 76.6692 301.445 80.1692 299.945 66.1692L301.945 56.1692C301.945 54.6692 299.445 50.6692 296.945 50.1692C298.445 47.6692 295.445 38.6692 295.445 38.6692V37.1692L291.445 34.1692L286.445 32.6692L282.945 32.1692L277.945 34.1692Z" fill="#E0426F" stroke="black" stroke-width="0.5"/>
<path d="M280.945 26.6692L272.445 28.1692L282.945 32.1692C292.445 33.1692 291.444 34.6692 295.439 37.0894L294.945 28.6692L280.945 26.6692Z" fill="#E0426F"/>
<path d="M295.445 37.1692L295.439 37.0894M295.439 37.0894L294.945 28.6692L280.945 26.6692L272.445 28.1692L282.945 32.1692C292.445 33.1692 291.444 34.6692 295.439 37.0894Z" stroke="black" stroke-width="0.5"/>
<path d="M293.947 36.6694C293.447 34.1693 282.447 33.9692 276.947 34.4692" stroke="black" stroke-width="0.5"/>
<path d="M299.947 66.6692L260.447 68.6692C259.947 63.6692 257.781 59.5025 255.947 57.6692L301.947 55.1692M300.447 52.6692C289.447 51.1692 278.447 46.3692 266.447 40.3692M228.447 30.6692L272.447 28.1692L280.947 26.6692" stroke="black" stroke-width="0.5"/>
<path d="M290.447 40.6692C290.447 38.6692 289.447 34.6692 285.947 32.6692C288.168 32.6692 291.545 33.7096 294.056 36.0792C294.52 37.6092 293.447 41.1692 290.405 42.6692C290.392 42.0789 290.447 41.3935 290.447 40.6692Z" fill="#E0426F"/>
<path d="M272.447 43.1692C279.443 43.519 285.46 43.6241 290.84 44.1692M297.447 45.1692C295.344 44.7185 293.151 44.4033 290.84 44.1692M295.447 37.6692C295.029 37.0841 294.56 36.5548 294.056 36.0792M290.84 44.1692C290.514 43.8244 290.42 43.3014 290.405 42.6692M290.405 42.6692C290.392 42.0789 290.447 41.3935 290.447 40.6692C290.447 38.6692 289.447 34.6692 285.947 32.6692C288.168 32.6692 291.545 33.7096 294.056 36.0792M290.405 42.6692C293.447 41.1692 294.52 37.6092 294.056 36.0792" stroke="black" stroke-width="0.5"/>
<path d="M290.447 40.6692C285.947 40.6692 283.947 36.6692 282.947 34.1692" stroke="black" stroke-width="0.5"/>
<path d="M132.445 12.7692C118.945 16.7692 106.945 22.6692 92.9453 35.6692C99.9453 23.6692 115.445 14.1692 130.945 9.16919L132.445 12.7692Z" stroke="black" stroke-width="0.5"/>
<path d="M130.945 9.16919C110.945 14.8432 92.9453 32.1692 84.9453 30.1692C97.9453 20.6692 113.945 12.1692 130.445 7.66919L130.945 9.16919Z" stroke="black" stroke-width="0.5"/>
<path d="M9.94598 48.1692H3.94598C1.44531 52.1692 1.44531 62.1692 1.94598 65.6692C0.445312 66.6692 0.44591 71.1692 1.44598 72.6692L5.44598 73.1692V74.6692L1.44598 76.6692V78.6692C5.44598 79.6692 13.946 81.6692 21.946 81.1692V79.6692H39.446C38.7793 71.1692 40.446 60.6692 49.446 53.6692C46.946 49.6692 39.946 45.1692 36.946 44.6692C26.946 43.6692 11.946 46.1692 9.94598 48.1692Z" stroke="black" stroke-width="0.5"/>
<path d="M92.9473 35.6692C75.1139 36.5025 43.4473 41.3692 32.9473 44.3692L36.9473 44.6692C41.9473 46.1692 47.4473 50.5025 49.4473 53.6692C62.4463 44.1692 87.9463 51.1692 86.4463 78.6692H96.4463C89.4463 67.6692 90.4463 45.6692 92.9473 35.6692Z" stroke="black" stroke-width="0.5"/>
<path d="M9.94531 48.1692H3.94531C36.4455 28.6691 58.4456 34.6692 84.4453 30.1692L93.4456 35.6692C76.4456 36.6692 47.4453 40.1692 33.4453 44.3692C25.4453 44.1692 11.4453 46.1692 9.94531 48.1692Z" stroke="black" stroke-width="0.5"/>
<path d="M36.9468 44.6693C29.4468 43.6692 12.4468 45.6692 9.94677 48.1693C9.14677 50.5692 12.2801 53.5025 13.9468 54.6692C23.4468 56.1692 36.9468 50.1692 36.9468 44.6693Z" stroke="black" stroke-width="0.5"/>
<path d="M3.94601 48.1692C10.946 49.1692 4.94601 59.6692 1.94601 64.6692C1.44594 57.6692 1.9458 52.1692 3.94601 48.1692Z" stroke="black" stroke-width="0.5"/>
<path d="M21.9453 84.1692V79.6692H39.4453L39.9453 84.1692H21.9453Z" stroke="black" stroke-width="0.5"/>
<path d="M2.44727 65.6692C3.94727 68.1692 5.94727 71.3359 5.44727 73.1692M21.9473 79.6692C11.4473 80.1692 6.94727 76.1692 7.94727 72.6692C8.44727 72.1692 9.94727 70.6692 10.9473 70.6692" stroke="black" stroke-width="0.5"/>
<path d="M5.94727 65.6693C8.19721 65.1692 11.0721 64.5443 13.8221 64.1693M13.8221 64.1693C16.5721 63.7943 19.1972 63.6693 20.9473 64.1693C23.9473 65.6693 29.4473 70.6692 31.9473 74.6692C26.9473 75.6692 19.9473 75.1692 15.4473 75.1692C12.7547 75.1692 11.4473 72.8359 11.4473 71.6692C10.9473 68.6692 12.1971 65.5026 13.8221 64.1693Z" stroke="black" stroke-width="0.5"/>
<path d="M11.4473 71.1693C19.4473 69.6693 22.9473 72.2978 25.9473 73.7978M12.9473 74.1693L30.4473 73.6693" stroke="black" stroke-width="0.5"/>
<path d="M21.9453 82.6692H31.4453C33.4453 82.6692 34.9453 80.6692 34.4453 79.6692M37.9453 79.6692V84.1692" stroke="black" stroke-width="0.5"/>
<path d="M21.9472 81.1694C17.4472 81.1694 12.9472 81.6694 1.44721 78.6694V76.6694L5.44721 74.6694V73.1694L1.44721 72.6694C0.946289 71.1692 -0.0535151 68.1692 1.94648 65.6692C1.44672 57.6692 1.94672 51.1692 3.94721 48.1689C36.4472 28.6693 58.4472 34.6694 84.4472 30.1694C162.447 -24.8307 244.447 12.1692 281.447 26.6694L294.947 28.6692L295.447 35.6692V38.6692C296.946 43.6692 298.281 48.1692 296.947 50.1692C299.447 51.1692 301.947 54.3359 301.947 56.1692L299.947 66.1692C300.399 77.0171 297.991 77.2414 288.66 77.5538C287.668 77.587 285.599 77.6212 284.447 77.6692V79.1692L259.447 79.6002M21.9472 81.1694V84.1694H39.9456L39.4472 79.6694M21.9472 81.1694V79.6694H39.4472M39.4472 79.6694C36.4472 38.1694 89.9472 41.1694 86.4472 80.1694V82.6692H212.947C206.947 39.1692 261.447 39.1692 259.447 79.6002M258.946 79.6002H259.447" stroke="black"/>
</svg>
