<svg width="303" height="96" viewBox="0 0 303 96" fill="none" xmlns="http://www.w3.org/2000/svg">
<circle cx="62.6772" cy="74.0454" r="20.5" stroke="black"/>
<circle cx="235.678" cy="74.0454" r="20.5" stroke="black"/>
<path d="M132.676 12.5453L131.176 9.04527C171.176 1.04538 192.676 1.54541 231.676 13.0454L228.176 17.5454C208.176 9.54532 190.176 8.54532 174.176 8.04539C171.676 7.54539 167.676 7.54535 165.176 8.04527C155.176 8.04539 143.176 9.54539 132.676 12.5453Z" fill="#E56E90" stroke="black" stroke-width="0.5"/>
<path d="M131.176 9.04545L130.676 7.54545C166.676 -3.45459 199.176 0.545284 234.676 9.54546L231.676 13.0455C191.676 0.54541 165.676 2.04541 131.176 9.04545Z" fill="#E56E90" stroke="black" stroke-width="0.5"/>
<path d="M131.176 9.04552C182.676 -2.4545 211.176 7.54553 231.676 13.0455" stroke="black" stroke-width="0.5"/>
<path d="M170.677 30.0454L174.177 8.04541C207.677 9.04541 219.177 14.5454 223.677 16.0454L226.16 28.0454C199.17 28.046 181.675 29.5455 170.677 30.0454Z" fill="#E56E90"/>
<path d="M226.677 30.5454L223.677 16.0454C219.177 14.5454 207.677 9.04541 174.177 8.04541L170.677 30.0454C181.677 29.5454 199.177 28.0454 226.177 28.0454" stroke="black" stroke-width="0.5"/>
<path d="M165.177 8.04541C132.177 9.04541 112.177 18.0454 93.1772 35.5454L95.6772 33.5454L159.677 30.5454L165.177 8.04541Z" fill="#E56E90" stroke="black" stroke-width="0.5"/>
<path d="M239.676 22.5454C236.009 19.8787 230.176 17.5454 223.676 16.0454L226.176 28.0454H232.676C235.676 26.5454 238.676 24.3141 239.676 22.5454Z" fill="#E56E90" stroke="black" stroke-width="0.5"/>
<path d="M96.6772 78.5454H163.677L198.177 77.0454H212.677L213.177 82.5454H199.177H98.1772H86.6772V78.5454H96.6772Z" fill="#E56E90"/>
<path d="M96.6772 78.5454H163.677L198.177 77.0454M96.6772 78.5454C96.6772 80.0454 97.1772 81.0454 98.1772 82.5454M96.6772 78.5454H86.6772V82.5454H98.1772M198.177 77.0454L199.177 82.5454M198.177 77.0454H212.677L213.177 82.5454H199.177M199.177 82.5454H98.1772" stroke="black" stroke-width="0.5"/>
<path d="M96.6764 78.5454C92.1772 74.0454 89.1773 52.0454 93.1764 35.5454L165.177 31.5454C161.177 36.5454 160.177 70.5454 163.677 78.5454H96.6764Z" fill="#E56E90" stroke="black" stroke-width="0.5"/>
<path d="M228.677 30.5454L165.177 31.5454C161.177 36.5454 160.177 70.5454 163.677 78.5454L198.177 77.0454C202.677 75.5454 209.177 70.0454 228.677 30.5454Z" fill="#E56E90" stroke="black" stroke-width="0.5"/>
<path d="M170.677 30.0455C166.177 30.5455 162.677 30.5455 159.677 30.5455L165.177 8.04548C168.177 7.54541 171.177 7.54541 174.177 8.04548L170.677 30.0455Z" fill="#E56E90" stroke="black" stroke-width="0.5"/>
<path d="M99.1772 32.0457C103.677 37.5457 110.677 34.0457 114.677 32.5457C115.677 17.0455 102.677 25.0455 99.1772 32.0457Z" fill="#E56E90" stroke="black" stroke-width="0.5"/>
<path d="M234.676 9.54541L231.676 13.0454C248.676 18.5454 259.176 21.5454 271.676 28.0454H273.176L281.176 26.5454C266.176 20.0454 258.676 17.5454 234.676 9.54541Z" fill="#EDADBF" stroke="black" stroke-width="0.5"/>
<path d="M271.676 28.0454C261.176 22.5454 242.176 16.0454 231.676 13.0454L229.676 15.5454L244.676 23.0454C243.176 25.5454 239.176 27.5454 233.176 30.2454C245.176 29.5454 262.176 28.5454 271.676 28.0454Z" fill="#EDADBF" stroke="black" stroke-width="0.5"/>
<path d="M277.178 34.3454L283.176 32.0454L272.677 28.0454L228.677 30.5454C221.177 45.5454 206.177 76.0454 198.177 77.0454H212.677C211.177 66.0454 220.677 42.5454 245.678 51.5454C256.178 46.0454 266.178 40.5454 277.178 34.3454Z" fill="#EDADBF" stroke="black" stroke-width="0.5"/>
<path d="M278.176 34.0454C266.176 40.5454 256.176 46.0454 245.676 51.5454C250.176 54.5454 260.676 60.5454 259.676 79.5454L284.676 79.0454V77.5454C293.176 76.5454 301.676 80.0454 300.176 66.0454L302.176 56.0454C302.176 54.5454 299.676 50.5454 297.176 50.0454C298.676 47.5454 295.676 38.5454 295.676 38.5454V37.0454L291.676 34.0454L286.676 32.5454L283.176 32.0454L278.176 34.0454Z" fill="#EDADBF" stroke="black" stroke-width="0.5"/>
<path d="M281.176 26.5454L272.676 28.0454L283.176 32.0454C292.676 33.0454 291.675 34.5454 295.67 36.9656L295.176 28.5454L281.176 26.5454Z" fill="#EDADBF"/>
<path d="M295.676 37.0454L295.67 36.9656M295.67 36.9656L295.176 28.5454L281.176 26.5454L272.676 28.0454L283.176 32.0454C292.676 33.0454 291.675 34.5454 295.67 36.9656Z" stroke="black" stroke-width="0.5"/>
<path d="M294.178 36.5456C293.678 34.0455 282.678 33.8454 277.178 34.3454" stroke="black" stroke-width="0.5"/>
<path d="M300.178 66.5454L260.678 68.5454C260.178 63.5454 258.011 59.3787 256.178 57.5454L302.178 55.0454M300.678 52.5454C289.678 51.0454 278.678 46.2454 266.678 40.2454M228.678 30.5454L272.678 28.0454L281.178 26.5454" stroke="black" stroke-width="0.5"/>
<path d="M290.678 40.5454C290.678 38.5454 289.678 34.5454 286.178 32.5454C288.399 32.5454 291.775 33.5858 294.287 35.9554C294.75 37.4854 293.678 41.0454 290.636 42.5454C290.622 41.9551 290.678 41.2697 290.678 40.5454Z" fill="#EDADBF"/>
<path d="M272.678 43.0454C279.673 43.3952 285.69 43.5003 291.071 44.0454M297.678 45.0454C295.575 44.5948 293.381 44.2795 291.071 44.0454M295.678 37.5454C295.26 36.9603 294.791 36.4311 294.287 35.9554M291.071 44.0454C290.745 43.7006 290.651 43.1776 290.636 42.5454M290.636 42.5454C290.622 41.9551 290.678 41.2697 290.678 40.5454C290.678 38.5454 289.678 34.5454 286.178 32.5454C288.399 32.5454 291.775 33.5858 294.287 35.9554M290.636 42.5454C293.678 41.0454 294.75 37.4854 294.287 35.9554" stroke="black" stroke-width="0.5"/>
<path d="M290.678 40.5454C286.178 40.5454 284.178 36.5454 283.178 34.0454" stroke="black" stroke-width="0.5"/>
<path d="M132.676 12.6454C119.176 16.6454 107.176 22.5454 93.1758 35.5454C100.176 23.5454 115.676 14.0454 131.176 9.04541L132.676 12.6454Z" fill="#EDADBF" stroke="black" stroke-width="0.5"/>
<path d="M131.176 9.04541C111.176 14.7194 93.1758 32.0454 85.1758 30.0454C98.1758 20.5454 114.176 12.0454 130.676 7.54541L131.176 9.04541Z" fill="#EDADBF" stroke="black" stroke-width="0.5"/>
<path d="M10.1764 48.0453H4.17645C1.67578 52.0453 1.67578 62.0453 2.17645 65.5453C0.675781 66.5453 0.676379 71.0453 1.67645 72.5453L5.67645 73.0453V74.5453L1.67645 76.5453V78.5453C5.67645 79.5453 14.1764 81.5453 22.1764 81.0453V79.5453H39.6764C39.0098 71.0453 40.6764 60.5453 49.6764 53.5453C47.1764 49.5453 40.1764 45.0453 37.1764 44.5453C27.1764 43.5453 12.1764 46.0453 10.1764 48.0453Z" fill="#EDADBF" stroke="black" stroke-width="0.5"/>
<path d="M93.1772 35.5454C75.3439 36.3787 43.6772 41.2454 33.1772 44.2454L37.1772 44.5454C42.1772 46.0454 47.6772 50.3787 49.6772 53.5454C62.6763 44.0454 88.1763 51.0454 86.6763 78.5454H96.6763C89.6763 67.5454 90.6763 45.5454 93.1772 35.5454Z" fill="#EDADBF" stroke="black" stroke-width="0.5"/>
<path d="M10.1758 48.0455H4.17578C36.676 28.5454 58.676 34.5454 84.6758 30.0454L93.676 35.5454C76.676 36.5454 47.6758 40.0454 33.6758 44.2454C25.6758 44.0454 11.6758 46.0454 10.1758 48.0455Z" fill="#EDADBF" stroke="black" stroke-width="0.5"/>
<path d="M37.1772 44.5455C29.6772 43.5454 12.6772 45.5454 10.1772 48.0455C9.37724 50.4454 12.5106 53.3787 14.1772 54.5454C23.6772 56.0454 37.1772 50.0454 37.1772 44.5455Z" fill="#EDADBF" stroke="black" stroke-width="0.5"/>
<path d="M4.17648 48.0454C11.1765 49.0454 5.17648 59.5454 2.17648 64.5454C1.67641 57.5454 2.17627 52.0454 4.17648 48.0454Z" fill="#EDADBF" stroke="black" stroke-width="0.5"/>
<path d="M22.1758 84.0454V79.5454H39.6758L40.1758 84.0454H22.1758Z" fill="#EDADBF" stroke="black" stroke-width="0.5"/>
<path d="M2.67773 65.5454C4.17773 68.0454 6.17773 71.2121 5.67773 73.0454M22.1777 79.5454C11.6777 80.0454 7.17773 76.0454 8.17773 72.5454C8.67773 72.0454 10.1777 70.5454 11.1777 70.5454" stroke="black" stroke-width="0.5"/>
<path d="M32.1777 74.5455C29.6777 70.5455 24.1777 65.5456 21.1777 64.0456C19.4277 63.5456 16.8026 63.6706 14.0525 64.0456C12.4276 65.3789 11.1777 68.5455 11.6777 71.5455C11.6777 72.7122 12.9852 75.0455 15.6777 75.0455C20.1777 75.0455 27.1777 75.5455 32.1777 74.5455Z" fill="#EDADBF"/>
<path d="M6.17773 65.5456C8.42768 65.0456 11.3026 64.4206 14.0525 64.0456M14.0525 64.0456C16.8026 63.6706 19.4277 63.5456 21.1777 64.0456C24.1777 65.5456 29.6777 70.5455 32.1777 74.5455C27.1777 75.5455 20.1777 75.0455 15.6777 75.0455C12.9852 75.0455 11.6777 72.7122 11.6777 71.5455C11.1777 68.5455 12.4276 65.3789 14.0525 64.0456Z" stroke="black" stroke-width="0.5"/>
<path d="M11.6777 71.0456C19.6777 69.5457 23.1777 72.1741 26.1777 73.6741M13.1777 74.0457L30.6777 73.5457" stroke="black" stroke-width="0.5"/>
<path d="M22.1758 82.5454H31.6758C33.6758 82.5454 35.1758 80.5454 34.6758 79.5454M38.1758 79.5454V84.0454" stroke="black" stroke-width="0.5"/>
<path d="M22.1772 81.0457C17.6772 81.0457 13.1772 81.5457 1.67719 78.5457V76.5457L5.67719 74.5456V73.0457L1.67719 72.5457C1.17627 71.0454 0.176465 68.0454 2.17646 65.5454C1.6767 57.5454 2.1767 51.0454 4.17719 48.0452C36.6772 28.5455 58.6772 34.5456 84.6772 30.0456C162.677 -24.9545 244.677 12.0454 281.677 26.5456L295.177 28.5454L295.677 35.5454V38.5454C297.176 43.5454 298.511 48.0454 297.177 50.0454C299.677 51.0454 302.177 54.2121 302.177 56.0454L300.177 66.0454C300.629 76.8933 298.221 77.1176 288.889 77.43C287.898 77.4632 285.829 77.4974 284.677 77.5454V79.0454L259.677 79.4764M22.1772 81.0457V84.0457H40.1755L39.6772 79.5457M22.1772 81.0457V79.5457H39.6772M39.6772 79.5457C36.6772 38.0457 90.1772 41.0457 86.6772 80.0457V82.5454H213.177C207.177 39.0454 261.677 39.0454 259.677 79.4764M259.176 79.4764H259.677" stroke="black"/>
</svg>
