<svg width="303" height="95" viewBox="0 0 303 95" fill="none" xmlns="http://www.w3.org/2000/svg">
<circle cx="62.8955" cy="73.8914" r="20.5" fill="#EFC7D3" stroke="black"/>
<circle cx="235.896" cy="73.8914" r="20.5" fill="#EFC7D3" stroke="black"/>
<path d="M132.894 12.3912L131.394 8.89121C171.394 0.891325 192.894 1.39136 231.894 12.8913L228.394 17.3913C208.394 9.39127 190.394 8.39127 174.394 7.89133C171.894 7.39133 167.894 7.3913 165.394 7.89121C155.394 7.89133 143.394 9.39134 132.894 12.3912Z" fill="#E0426F" stroke="black" stroke-width="0.5"/>
<path d="M131.394 8.8914L130.894 7.3914C166.894 -3.60864 199.394 0.391232 234.894 9.3914L231.894 12.8914C191.894 0.391357 165.894 1.89136 131.394 8.8914Z" fill="#E0426F" stroke="black" stroke-width="0.5"/>
<path d="M131.394 8.89122C182.894 -2.6088 211.394 7.39124 231.894 12.8912" stroke="black" stroke-width="0.5"/>
<path d="M170.896 29.8914L174.396 7.89136C207.896 8.89136 219.396 14.3914 223.896 15.8914L226.378 27.8914C199.388 27.892 181.893 29.3915 170.896 29.8914Z" fill="#E0426F"/>
<path d="M226.896 30.3914L223.896 15.8914C219.396 14.3914 207.896 8.89136 174.396 7.89136L170.896 29.8914C181.896 29.3914 199.396 27.8914 226.396 27.8914" stroke="black" stroke-width="0.5"/>
<path d="M165.396 7.89136C132.396 8.89136 112.396 17.8914 93.3955 35.3914L95.8955 33.3914L159.896 30.3914L165.396 7.89136Z" fill="#E0426F" stroke="black" stroke-width="0.5"/>
<path d="M239.894 22.3914C236.227 19.7247 230.394 17.3914 223.894 15.8914L226.394 27.8914H232.894C235.894 26.3914 238.894 24.1601 239.894 22.3914Z" fill="#E0426F" stroke="black" stroke-width="0.5"/>
<path d="M96.8955 78.3914H163.896L198.396 76.8914H212.896L213.396 82.3914H199.396H98.3955H86.8955V78.3914H96.8955Z" fill="#E0426F"/>
<path d="M96.8955 78.3914H163.896L198.396 76.8914M96.8955 78.3914C96.8955 79.8914 97.3955 80.8914 98.3955 82.3914M96.8955 78.3914H86.8955V82.3914H98.3955M198.396 76.8914L199.396 82.3914M198.396 76.8914H212.896L213.396 82.3914H199.396M199.396 82.3914H98.3955" stroke="black" stroke-width="0.5"/>
<path d="M96.8946 78.3914C92.3955 73.8914 89.3956 51.8914 93.3946 35.3914L165.396 31.3914C161.396 36.3914 160.396 70.3914 163.896 78.3914H96.8946Z" fill="#E0426F" stroke="black" stroke-width="0.5"/>
<path d="M228.895 30.3914L165.395 31.3914C161.396 36.3914 160.396 70.3914 163.895 78.3914L198.395 76.8914C202.895 75.3914 209.395 69.8914 228.895 30.3914Z" fill="#E0426F" stroke="black" stroke-width="0.5"/>
<path d="M170.896 29.8914C166.396 30.3914 162.896 30.3914 159.896 30.3914L165.396 7.89143C168.396 7.39136 171.396 7.39136 174.396 7.89143L170.896 29.8914Z" fill="#E0426F" stroke="black" stroke-width="0.5"/>
<path d="M99.3955 31.8914C103.896 37.3914 110.896 33.8914 114.896 32.3914C115.896 16.8913 102.896 24.8912 99.3955 31.8914Z" fill="#E0426F" stroke="black" stroke-width="0.5"/>
<path d="M234.894 9.39136L231.894 12.8914C248.894 18.3914 259.394 21.3914 271.894 27.8914H273.394L281.394 26.3914C266.394 19.8914 258.894 17.3914 234.894 9.39136Z" stroke="black" stroke-width="0.5"/>
<path d="M271.894 27.8914C261.394 22.3914 242.394 15.8914 231.894 12.8914L229.894 15.3914L244.894 22.8914C243.394 25.3914 239.394 27.3914 233.394 30.0914C245.394 29.3914 262.394 28.3914 271.894 27.8914Z" stroke="black" stroke-width="0.5"/>
<path d="M277.396 34.1914L283.394 31.8914L272.895 27.8914L228.895 30.3914C221.395 45.3914 206.395 75.8914 198.395 76.8914H212.895C211.395 65.8914 220.895 42.3914 245.896 51.3914C256.396 45.8914 266.396 40.3914 277.396 34.1914Z" stroke="black" stroke-width="0.5"/>
<path d="M278.394 33.8914C266.394 40.3914 256.394 45.8914 245.894 51.3914C250.394 54.3914 260.894 60.3914 259.894 79.3914L284.894 78.8914V77.3914C293.394 76.3914 301.894 79.8914 300.394 65.8914L302.394 55.8914C302.394 54.3914 299.894 50.3914 297.394 49.8914C298.894 47.3914 295.894 38.3914 295.894 38.3914V36.8914L291.894 33.8914L286.894 32.3914L283.394 31.8914L278.394 33.8914Z" stroke="black" stroke-width="0.5"/>
<path d="M295.894 36.8914L295.888 36.8115M295.888 36.8115L295.394 28.3914L281.394 26.3914L272.894 27.8914L283.394 31.8914C292.894 32.8914 291.892 34.3914 295.888 36.8115Z" stroke="black" stroke-width="0.5"/>
<path d="M294.396 36.3916C293.896 33.8914 282.896 33.6914 277.396 34.1914" stroke="black" stroke-width="0.5"/>
<path d="M300.396 66.3914L260.896 68.3914C260.396 63.3914 258.229 59.2247 256.396 57.3914L302.396 54.8914M300.896 52.3914C289.896 50.8914 278.896 46.0914 266.896 40.0914M228.896 30.3914L272.896 27.8914L281.396 26.3914" stroke="black" stroke-width="0.5"/>
<path d="M272.896 42.8914C279.891 43.2411 285.908 43.3462 291.289 43.8914M297.896 44.8914C295.793 44.4407 293.599 44.1255 291.289 43.8914M295.896 37.3914C295.478 36.8062 295.008 36.277 294.504 35.8013M291.289 43.8914C290.962 43.5466 290.868 43.0235 290.854 42.3914M290.854 42.3914C290.84 41.8011 290.896 41.1156 290.896 40.3914C290.896 38.3914 289.896 34.3914 286.396 32.3914C288.616 32.3914 291.993 33.4317 294.504 35.8013M290.854 42.3914C293.896 40.8914 294.968 37.3313 294.504 35.8013" stroke="black" stroke-width="0.5"/>
<path d="M290.896 40.3914C286.396 40.3914 284.396 36.3914 283.396 33.8914" stroke="black" stroke-width="0.5"/>
<path d="M132.894 12.4913C119.394 16.4913 107.394 22.3914 93.394 35.3914C100.394 23.3914 115.894 13.8914 131.394 8.89136L132.894 12.4913Z" fill="#EDADBF" stroke="black" stroke-width="0.5"/>
<path d="M131.394 8.89136C111.394 14.5654 93.394 31.8914 85.394 29.8914C98.394 20.3914 114.394 11.8914 130.894 7.39136L131.394 8.89136Z" fill="#EDADBF" stroke="black" stroke-width="0.5"/>
<path d="M10.3947 47.8912H4.39471C1.89404 51.8912 1.89404 61.8912 2.39471 65.3912C0.894043 66.3912 0.89464 70.8912 1.89471 72.3912L5.89471 72.8912V74.3912L1.89471 76.3912V78.3912C5.89471 79.3912 14.3947 81.3912 22.3947 80.8912V79.3912H39.8947C39.228 70.8912 40.8947 60.3912 49.8947 53.3912C47.3947 49.3912 40.3947 44.8912 37.3947 44.3912C27.3947 43.3912 12.3947 45.8912 10.3947 47.8912Z" fill="#EDADBF" stroke="black" stroke-width="0.5"/>
<path d="M93.3955 35.3914C75.5622 36.2247 43.8955 41.0914 33.3955 44.0914L37.3955 44.3914C42.3955 45.8914 47.8955 50.2247 49.8955 53.3914C62.8945 43.8914 88.3945 50.8914 86.8945 78.3914H96.8945C89.8945 67.3914 90.8945 45.3914 93.3955 35.3914Z" fill="#EDADBF" stroke="black" stroke-width="0.5"/>
<path d="M10.3936 47.8914H4.39355C36.8937 28.3913 58.8938 34.3914 84.8936 29.8914L93.8938 35.3914C76.8938 36.3914 47.8936 39.8914 33.8936 44.0914C25.8936 43.8913 11.8936 45.8914 10.3936 47.8914Z" fill="#EDADBF" stroke="black" stroke-width="0.5"/>
<path d="M37.3955 44.3914C29.8955 43.3914 12.8955 45.3914 10.3955 47.8914C9.5955 50.2914 12.7288 53.2247 14.3955 54.3914C23.8955 55.8914 37.3955 49.8914 37.3955 44.3914Z" fill="#EDADBF" stroke="black" stroke-width="0.5"/>
<path d="M4.39474 47.8914C11.3947 48.8914 5.39474 59.3914 2.39474 64.3914C1.89467 57.3914 2.39453 51.8914 4.39474 47.8914Z" fill="#EDADBF" stroke="black" stroke-width="0.5"/>
<path d="M22.394 83.8914V79.3914H39.894L40.394 83.8914H22.394Z" fill="#EDADBF" stroke="black" stroke-width="0.5"/>
<path d="M2.89551 65.3911C4.39551 67.8911 6.39551 71.0578 5.89551 72.8911M22.3955 79.3911C11.8955 79.8911 7.39551 75.8911 8.39551 72.3911C8.89551 71.8911 10.3955 70.3911 11.3955 70.3911" stroke="black" stroke-width="0.5"/>
<path d="M32.3955 74.3912C29.8955 70.3912 24.3955 65.3913 21.3955 63.8913C19.6455 63.3913 17.0204 63.5163 14.2703 63.8913C12.6454 65.2246 11.3955 68.3912 11.8955 71.3912C11.8955 72.5579 13.2029 74.8912 15.8955 74.8912C20.3955 74.8912 27.3955 75.3912 32.3955 74.3912Z" fill="#EDADBF"/>
<path d="M6.39551 65.3913C8.64545 64.8913 11.5204 64.2663 14.2703 63.8913M14.2703 63.8913C17.0204 63.5163 19.6455 63.3913 21.3955 63.8913C24.3955 65.3913 29.8955 70.3912 32.3955 74.3912C27.3955 75.3912 20.3955 74.8912 15.8955 74.8912C13.2029 74.8912 11.8955 72.5579 11.8955 71.3912C11.3955 68.3912 12.6454 65.2246 14.2703 63.8913Z" stroke="black" stroke-width="0.5"/>
<path d="M11.8955 70.8913C19.8955 69.3914 23.3955 72.0198 26.3955 73.5198M13.3955 73.8914L30.8955 73.3914" stroke="black" stroke-width="0.5"/>
<path d="M22.3936 82.3911H31.8936C33.8936 82.3911 35.3936 80.3911 34.8936 79.3911M38.3936 79.3911V83.8911" stroke="black" stroke-width="0.5"/>
<path d="M22.3955 80.8916C17.8955 80.8916 13.3955 81.3916 1.89545 78.3916V76.3916L5.89545 74.3916V72.8916L1.89545 72.3916C1.39453 70.8914 0.394727 67.8914 2.39472 65.3914C1.89497 57.3914 2.39497 50.8914 4.39545 47.8911C36.8955 28.3915 58.8954 34.3915 84.8954 29.8915C162.895 -25.1086 244.895 11.8913 281.895 26.3915L295.395 28.3914L295.895 35.3914V38.3914C297.394 43.3914 298.729 47.8914 297.395 49.8914C299.895 50.8914 302.395 54.058 302.395 55.8914L300.395 65.8914C300.847 76.7393 298.439 76.9635 289.108 77.276C288.117 77.3092 286.048 77.3434 284.895 77.3914V78.8914L259.895 79.3224M22.3955 80.8916V83.8916H40.3938L39.8955 79.3916M22.3955 80.8916V79.3916H39.8955M39.8955 79.3916C36.8955 37.8916 90.3954 40.8916 86.8954 79.8916V82.3914H213.395C207.395 38.8914 261.895 38.8914 259.895 79.3224M259.394 79.3224H259.895" stroke="black"/>
</svg>
