<svg width="303" height="95" viewBox="0 0 303 95" fill="none" xmlns="http://www.w3.org/2000/svg">
<circle cx="62.4897" cy="73.6919" r="20.5" fill="#E0426F" stroke="black"/>
<circle cx="235.49" cy="73.6919" r="20.5" fill="#E0426F" stroke="black"/>
<path d="M132.488 12.1918L130.988 8.69175C170.988 0.691862 192.488 1.19189 231.488 12.6918L227.988 17.1918C207.988 9.1918 189.988 8.1918 173.988 7.69187C171.488 7.19187 167.488 7.19183 164.988 7.69175C154.988 7.69187 142.988 9.19187 132.488 12.1918Z" fill="#EFC7D3" stroke="black" stroke-width="0.5"/>
<path d="M130.988 8.69194L130.488 7.19194C166.488 -3.80811 198.988 0.191769 234.488 9.19194L231.488 12.6919C191.488 0.191895 165.488 1.69189 130.988 8.69194Z" fill="#EFC7D3" stroke="black" stroke-width="0.5"/>
<path d="M130.988 8.692C182.488 -2.80802 210.988 7.19202 231.488 12.692" stroke="black" stroke-width="0.5"/>
<path d="M170.49 29.6919L173.99 7.69189C207.49 8.69189 218.99 14.1919 223.49 15.6919L225.973 27.6919C198.982 27.6925 181.487 29.192 170.49 29.6919Z" fill="#EFC7D3"/>
<path d="M226.49 30.1919L223.49 15.6919C218.99 14.1919 207.49 8.69189 173.99 7.69189L170.49 29.6919C181.49 29.1919 198.99 27.6919 225.99 27.6919" stroke="black" stroke-width="0.5"/>
<path d="M164.99 7.69189C131.99 8.69189 111.99 17.6919 92.9897 35.1919L95.4897 33.1919L159.49 30.1919L164.99 7.69189Z" fill="#EFC7D3" stroke="black" stroke-width="0.5"/>
<path d="M239.488 22.1919C235.822 19.5252 229.988 17.1919 223.488 15.6919L225.988 27.6919H232.488C235.488 26.1919 238.488 23.9606 239.488 22.1919Z" fill="#EFC7D3" stroke="black" stroke-width="0.5"/>
<path d="M96.4897 78.1919H163.49L197.99 76.6919H212.49L212.99 82.1919H198.99H97.9897H86.4897V78.1919H96.4897Z" fill="#EFC7D3"/>
<path d="M96.4897 78.1919H163.49L197.99 76.6919M96.4897 78.1919C96.4897 79.6919 96.9897 80.6919 97.9897 82.1919M96.4897 78.1919H86.4897V82.1919H97.9897M197.99 76.6919L198.99 82.1919M197.99 76.6919H212.49L212.99 82.1919H198.99M198.99 82.1919H97.9897" stroke="black" stroke-width="0.5"/>
<path d="M96.4889 78.1919C91.9897 73.6919 88.9898 51.6919 92.9889 35.1919L164.99 31.1919C160.99 36.1919 159.99 70.1919 163.49 78.1919H96.4889Z" fill="#EFC7D3" stroke="black" stroke-width="0.5"/>
<path d="M228.489 30.1919L164.989 31.1919C160.989 36.1919 159.99 70.1919 163.489 78.1919L197.989 76.6919C202.489 75.1919 208.989 69.6919 228.489 30.1919Z" fill="#EFC7D3" stroke="black" stroke-width="0.5"/>
<path d="M170.49 29.692C165.99 30.192 162.49 30.192 159.49 30.192L164.99 7.69197C167.99 7.19189 170.99 7.19189 173.99 7.69197L170.49 29.692Z" fill="#EFC7D3" stroke="black" stroke-width="0.5"/>
<path d="M98.9897 31.6922C103.49 37.1922 110.49 33.6922 114.49 32.1922C115.49 16.692 102.49 24.692 98.9897 31.6922Z" fill="#EFC7D3" stroke="black" stroke-width="0.5"/>
<path d="M234.488 9.19189L231.488 12.6919C248.488 18.1919 258.988 21.1919 271.488 27.6919H272.988L280.988 26.1919C265.988 19.6919 258.488 17.1919 234.488 9.19189Z" stroke="black" stroke-width="0.5"/>
<path d="M271.488 27.6919C260.988 22.1919 241.988 15.6919 231.488 12.6919L229.488 15.1919L244.488 22.6919C242.988 25.1919 238.988 27.1919 232.988 29.8919C244.988 29.1919 261.988 28.1919 271.488 27.6919Z" stroke="black" stroke-width="0.5"/>
<path d="M276.99 33.9919L282.988 31.6919L272.489 27.6919L228.489 30.1919C220.989 45.1919 205.989 75.6919 197.989 76.6919H212.489C210.989 65.6919 220.489 42.1919 245.49 51.1919C255.99 45.6919 265.99 40.1919 276.99 33.9919Z" stroke="black" stroke-width="0.5"/>
<path d="M277.988 33.6919C265.988 40.1919 255.988 45.6919 245.488 51.1919C249.988 54.1919 260.488 60.1919 259.488 79.1919L284.488 78.6919V77.1919C292.988 76.1919 301.488 79.6919 299.988 65.6919L301.988 55.6919C301.988 54.1919 299.488 50.1919 296.988 49.6919C298.488 47.1919 295.488 38.1919 295.488 38.1919V36.6919L291.488 33.6919L286.488 32.1919L282.988 31.6919L277.988 33.6919Z" stroke="black" stroke-width="0.5"/>
<path d="M295.488 36.6919L295.482 36.6121M295.482 36.6121L294.988 28.1919L280.988 26.1919L272.488 27.6919L282.988 31.6919C292.488 32.6919 291.487 34.1919 295.482 36.6121Z" stroke="black" stroke-width="0.5"/>
<path d="M293.99 36.1921C293.49 33.692 282.49 33.4919 276.99 33.9919" stroke="black" stroke-width="0.5"/>
<path d="M299.99 66.1919L260.49 68.1919C259.99 63.1919 257.823 59.0252 255.99 57.1919L301.99 54.6919M300.49 52.1919C289.49 50.6919 278.49 45.8919 266.49 39.8919M228.49 30.1919L272.49 27.6919L280.99 26.1919" stroke="black" stroke-width="0.5"/>
<path d="M272.49 42.6919C279.485 43.0417 285.502 43.1468 290.883 43.6919M297.49 44.6919C295.387 44.2413 293.194 43.926 290.883 43.6919M295.49 37.1919C295.072 36.6068 294.603 36.0775 294.099 35.6019M290.883 43.6919C290.557 43.3471 290.463 42.8241 290.448 42.1919M290.448 42.1919C290.434 41.6016 290.49 40.9162 290.49 40.1919C290.49 38.1919 289.49 34.1919 285.99 32.1919C288.211 32.1919 291.587 33.2323 294.099 35.6019M290.448 42.1919C293.49 40.6919 294.562 37.1319 294.099 35.6019" stroke="black" stroke-width="0.5"/>
<path d="M290.49 40.1919C285.99 40.1919 283.99 36.1919 282.99 33.6919" stroke="black" stroke-width="0.5"/>
<path d="M132.488 12.2919C118.988 16.2919 106.988 22.1919 92.9883 35.1919C99.9883 23.1919 115.488 13.6919 130.988 8.69189L132.488 12.2919Z" fill="#E0426F" stroke="black" stroke-width="0.5"/>
<path d="M130.988 8.69189C110.988 14.3659 92.9883 31.6919 84.9883 29.6919C97.9883 20.1919 113.988 11.6919 130.488 7.19189L130.988 8.69189Z" fill="#E0426F" stroke="black" stroke-width="0.5"/>
<path d="M9.98895 47.6918H3.98895C1.48828 51.6918 1.48828 61.6918 1.98895 65.1918C0.488281 66.1918 0.488879 70.6918 1.48895 72.1918L5.48895 72.6918V74.1918L1.48895 76.1918V78.1918C5.48895 79.1918 13.9889 81.1918 21.9889 80.6918V79.1918H39.4889C38.8223 70.6918 40.4889 60.1918 49.4889 53.1918C46.9889 49.1918 39.9889 44.6918 36.9889 44.1918C26.9889 43.1918 11.9889 45.6918 9.98895 47.6918Z" fill="#E0426F" stroke="black" stroke-width="0.5"/>
<path d="M92.9897 35.1919C75.1564 36.0252 43.4897 40.8919 32.9897 43.8919L36.9897 44.1919C41.9897 45.6919 47.4897 50.0252 49.4897 53.1919C62.4888 43.6919 87.9888 50.6919 86.4888 78.1919H96.4888C89.4888 67.1919 90.4888 45.1919 92.9897 35.1919Z" fill="#E0426F" stroke="black" stroke-width="0.5"/>
<path d="M9.98828 47.6919H3.98828C36.4885 28.1918 58.4885 34.1919 84.4883 29.6919L93.4885 35.1919C76.4885 36.1919 47.4883 39.6919 33.4883 43.8919C25.4883 43.6919 11.4883 45.6919 9.98828 47.6919Z" fill="#E0426F" stroke="black" stroke-width="0.5"/>
<path d="M36.9897 44.192C29.4897 43.1919 12.4897 45.1919 9.98974 47.692C9.18974 50.0919 12.3231 53.0252 13.9897 54.1919C23.4897 55.6919 36.9897 49.6919 36.9897 44.192Z" fill="#E0426F" stroke="black" stroke-width="0.5"/>
<path d="M3.98898 47.6919C10.989 48.6919 4.98898 59.1919 1.98898 64.1919C1.48891 57.1919 1.98877 51.6919 3.98898 47.6919Z" fill="#E0426F" stroke="black" stroke-width="0.5"/>
<path d="M21.9883 83.6919V79.1919H39.4883L39.9883 83.6919H21.9883Z" fill="#E0426F" stroke="black" stroke-width="0.5"/>
<path d="M2.49023 65.1919C3.99023 67.6919 5.99023 70.8586 5.49023 72.6919M21.9902 79.1919C11.4902 79.6919 6.99023 75.6919 7.99023 72.1919C8.49023 71.6919 9.99023 70.1919 10.9902 70.1919" stroke="black" stroke-width="0.5"/>
<path d="M31.9902 74.192C29.4902 70.192 23.9902 65.1921 20.9902 63.6921C19.2402 63.1921 16.6151 63.3171 13.865 63.6921C12.2401 65.0254 10.9902 68.192 11.4902 71.192C11.4902 72.3587 12.7977 74.692 15.4902 74.692C19.9902 74.692 26.9902 75.192 31.9902 74.192Z" fill="#E0426F"/>
<path d="M5.99023 65.1921C8.24018 64.6921 11.1151 64.0671 13.865 63.6921M13.865 63.6921C16.6151 63.3171 19.2402 63.1921 20.9902 63.6921C23.9902 65.1921 29.4902 70.192 31.9902 74.192C26.9902 75.192 19.9902 74.692 15.4902 74.692C12.7977 74.692 11.4902 72.3587 11.4902 71.192C10.9902 68.192 12.2401 65.0254 13.865 63.6921Z" stroke="black" stroke-width="0.5"/>
<path d="M11.4902 70.6921C19.4902 69.1921 22.9902 71.8206 25.9902 73.3206M12.9902 73.6921L30.4902 73.1921" stroke="black" stroke-width="0.5"/>
<path d="M21.9883 82.1919H31.4883C33.4883 82.1919 34.9883 80.1919 34.4883 79.1919M37.9883 79.1919V83.6919" stroke="black" stroke-width="0.5"/>
<path d="M21.9897 80.6921C17.4897 80.6921 12.9897 81.1921 1.48969 78.1921V76.1921L5.48969 74.1921V72.6921L1.48969 72.1921C0.98877 70.6919 -0.0110346 67.6919 1.98896 65.1919C1.4892 57.1919 1.9892 50.6919 3.98969 47.6916C36.4897 28.192 58.4897 34.1921 84.4897 29.6921C162.49 -25.308 244.49 11.6919 281.49 26.1921L294.99 28.1919L295.49 35.1919V38.1919C296.988 43.1919 298.323 47.6919 296.99 49.6919C299.49 50.6919 301.99 53.8586 301.99 55.6919L299.99 65.6919C300.442 76.5398 298.034 76.7641 288.702 77.0765C287.711 77.1097 285.642 77.1439 284.49 77.1919V78.6919L259.49 79.1229M21.9897 80.6921V83.6921H39.988L39.4897 79.1921M21.9897 80.6921V79.1921H39.4897M39.4897 79.1921C36.4897 37.6921 89.9897 40.6921 86.4897 79.6921V82.1919H212.99C206.99 38.6919 261.49 38.6919 259.49 79.1229M258.988 79.1229H259.49" stroke="black"/>
</svg>
