<svg width="304" height="96" viewBox="0 0 304 96" fill="none" xmlns="http://www.w3.org/2000/svg">
<circle cx="63.0635" cy="74.3535" r="20.5" fill="#EDADBF" stroke="black"/>
<circle cx="236.063" cy="74.3535" r="20.5" fill="#EDADBF" stroke="black"/>
<path d="M133.062 12.8534L131.562 9.35337C171.562 1.35348 193.062 1.85352 232.062 13.3535L228.562 17.8535C208.562 9.85343 190.562 8.85342 174.562 8.35349C172.062 7.85349 168.062 7.85345 165.562 8.35337C155.562 8.35349 143.562 9.85349 133.062 12.8534Z" fill="#EFC7D3" stroke="black" stroke-width="0.5"/>
<path d="M131.562 9.35356L131.062 7.85356C167.062 -3.14648 199.562 0.85339 235.062 9.85356L232.062 13.3536C192.062 0.853516 166.062 2.35352 131.562 9.35356Z" fill="#EFC7D3" stroke="black" stroke-width="0.5"/>
<path d="M131.562 9.3535C183.062 -2.14652 211.562 7.85352 232.062 13.3535" stroke="black" stroke-width="0.5"/>
<path d="M171.063 30.3535L174.563 8.35352C208.063 9.35352 219.563 14.8535 224.063 16.3535L226.546 28.3535C199.556 28.3542 182.061 29.8536 171.063 30.3535Z" fill="#EFC7D3"/>
<path d="M227.063 30.8535L224.063 16.3535C219.563 14.8535 208.063 9.35352 174.563 8.35352L171.063 30.3535C182.063 29.8535 199.563 28.3535 226.563 28.3535" stroke="black" stroke-width="0.5"/>
<path d="M165.563 8.35352C132.563 9.35352 112.563 18.3535 93.5635 35.8535L96.0635 33.8535L160.063 30.8535L165.563 8.35352Z" fill="#EFC7D3" stroke="black" stroke-width="0.5"/>
<path d="M240.062 22.8535C236.395 20.1868 230.562 17.8535 224.062 16.3535L226.562 28.3535H233.062C236.062 26.8535 239.062 24.6223 240.062 22.8535Z" fill="#EFC7D3" stroke="black" stroke-width="0.5"/>
<path d="M97.0635 78.8535H164.063L198.563 77.3535H213.063L213.563 82.8535H199.563H98.5635H87.0635V78.8535H97.0635Z" fill="#EFC7D3"/>
<path d="M97.0635 78.8535H164.063L198.563 77.3535M97.0635 78.8535C97.0635 80.3535 97.5635 81.3535 98.5635 82.8535M97.0635 78.8535H87.0635V82.8535H98.5635M198.563 77.3535L199.563 82.8535M198.563 77.3535H213.063L213.563 82.8535H199.563M199.563 82.8535H98.5635" stroke="black" stroke-width="0.5"/>
<path d="M97.0626 78.8535C92.5635 74.3535 89.5635 52.3535 93.5626 35.8535L165.563 31.8535C161.563 36.8535 160.563 70.8535 164.063 78.8535H97.0626Z" fill="#EFC7D3" stroke="black" stroke-width="0.5"/>
<path d="M229.063 30.8535L165.563 31.8535C161.564 36.8535 160.564 70.8535 164.063 78.8535L198.563 77.3535C203.063 75.8535 209.563 70.3535 229.063 30.8535Z" fill="#EFC7D3" stroke="black" stroke-width="0.5"/>
<path d="M171.063 30.3536C166.563 30.8536 163.063 30.8536 160.063 30.8536L165.563 8.35359C168.563 7.85352 171.563 7.85352 174.563 8.35359L171.063 30.3536Z" fill="#EFC7D3" stroke="black" stroke-width="0.5"/>
<path d="M99.5635 32.3537C104.063 37.8537 111.063 34.3537 115.063 32.8537C116.063 17.3535 103.063 25.3535 99.5635 32.3537Z" fill="#EFC7D3" stroke="black" stroke-width="0.5"/>
<path d="M235.062 9.85352L232.062 13.3535C249.062 18.8535 259.562 21.8535 272.062 28.3535H273.562L281.562 26.8535C266.562 20.3535 259.062 17.8535 235.062 9.85352Z" fill="#E56E90" stroke="black" stroke-width="0.5"/>
<path d="M272.062 28.3535C261.562 22.8535 242.562 16.3535 232.062 13.3535L230.062 15.8535L245.062 23.3535C243.562 25.8535 239.562 27.8535 233.562 30.5535C245.562 29.8535 262.562 28.8535 272.062 28.3535Z" fill="#E56E90" stroke="black" stroke-width="0.5"/>
<path d="M277.563 34.6535L283.562 32.3535L273.062 28.3535L229.062 30.8535C221.562 45.8535 206.562 76.3535 198.562 77.3535H213.062C211.562 66.3535 221.062 42.8535 246.063 51.8535C256.563 46.3535 266.563 40.8535 277.563 34.6535Z" fill="#E56E90" stroke="black" stroke-width="0.5"/>
<path d="M278.562 34.3535C266.562 40.8535 256.562 46.3535 246.062 51.8535C250.562 54.8535 261.062 60.8535 260.062 79.8535L285.062 79.3535V77.8535C293.562 76.8535 302.062 80.3535 300.562 66.3535L302.562 56.3535C302.562 54.8535 300.062 50.8535 297.562 50.3535C299.062 47.8535 296.062 38.8535 296.062 38.8535V37.3535L292.062 34.3535L287.062 32.8535L283.562 32.3535L278.562 34.3535Z" fill="#E56E90" stroke="black" stroke-width="0.5"/>
<path d="M281.562 26.8535L273.062 28.3535L283.562 32.3535C293.062 33.3535 292.06 34.8535 296.056 37.2737L295.562 28.8535L281.562 26.8535Z" fill="#E56E90"/>
<path d="M296.062 37.3535L296.056 37.2737M296.056 37.2737L295.562 28.8535L281.562 26.8535L273.062 28.3535L283.562 32.3535C293.062 33.3535 292.06 34.8535 296.056 37.2737Z" stroke="black" stroke-width="0.5"/>
<path d="M294.563 36.8537C294.063 34.3536 283.063 34.1535 277.563 34.6535" stroke="black" stroke-width="0.5"/>
<path d="M300.563 66.8535L261.063 68.8535C260.563 63.8535 258.397 59.6868 256.563 57.8535L302.563 55.3535M301.063 52.8535C290.063 51.3535 279.063 46.5535 267.063 40.5535M229.063 30.8535L273.063 28.3535L281.563 26.8535" stroke="black" stroke-width="0.5"/>
<path d="M291.063 40.8535C291.063 38.8535 290.063 34.8535 286.563 32.8535C288.784 32.8535 292.161 33.8939 294.672 36.2635C295.136 37.7935 294.063 41.3535 291.022 42.8535C291.008 42.2632 291.063 41.5778 291.063 40.8535Z" fill="#E56E90"/>
<path d="M273.063 43.3535C280.059 43.7033 286.076 43.8084 291.457 44.3535M298.063 45.3535C295.96 44.9029 293.767 44.5876 291.457 44.3535M296.063 37.8535C295.646 37.2684 295.176 36.7392 294.672 36.2635M291.457 44.3535C291.13 44.0088 291.036 43.4857 291.022 42.8535M291.022 42.8535C291.008 42.2632 291.063 41.5778 291.063 40.8535C291.063 38.8535 290.063 34.8535 286.563 32.8535C288.784 32.8535 292.161 33.8939 294.672 36.2635M291.022 42.8535C294.063 41.3535 295.136 37.7935 294.672 36.2635" stroke="black" stroke-width="0.5"/>
<path d="M291.063 40.8535C286.563 40.8535 284.563 36.8535 283.563 34.3535" stroke="black" stroke-width="0.5"/>
<path d="M133.062 12.9535C119.562 16.9535 107.562 22.8535 93.5615 35.8535C100.562 23.8535 116.062 14.3535 131.562 9.35352L133.062 12.9535Z" fill="#EDADBF" stroke="black" stroke-width="0.5"/>
<path d="M131.562 9.35352C111.562 15.0276 93.5615 32.3535 85.5615 30.3535C98.5615 20.8535 114.562 12.3535 131.062 7.85352L131.562 9.35352Z" fill="#EDADBF" stroke="black" stroke-width="0.5"/>
<path d="M10.5622 48.3535H4.56219C2.06152 52.3535 2.06152 62.3535 2.56219 65.8535C1.06152 66.8535 1.06212 71.3535 2.06219 72.8535L6.06219 73.3535V74.8535L2.06219 76.8535V78.8535C6.06219 79.8535 14.5622 81.8535 22.5622 81.3535V79.8535H40.0622C39.3955 71.3535 41.0622 60.8535 50.0622 53.8535C47.5622 49.8535 40.5622 45.3535 37.5622 44.8535C27.5622 43.8535 12.5622 46.3535 10.5622 48.3535Z" fill="#EDADBF" stroke="black" stroke-width="0.5"/>
<path d="M93.5635 35.8535C75.7301 36.6868 44.0635 41.5535 33.5635 44.5535L37.5635 44.8535C42.5635 46.3535 48.0635 50.6868 50.0635 53.8535C63.0625 44.3535 88.5625 51.3535 87.0625 78.8535H97.0625C90.0625 67.8535 91.0625 45.8535 93.5635 35.8535Z" fill="#EDADBF" stroke="black" stroke-width="0.5"/>
<path d="M10.5615 48.3536H4.56152C37.0617 28.8535 59.0618 34.8535 85.0615 30.3535L94.0618 35.8535C77.0618 36.8535 48.0615 40.3535 34.0615 44.5535C26.0615 44.3535 12.0615 46.3535 10.5615 48.3536Z" fill="#EDADBF" stroke="black" stroke-width="0.5"/>
<path d="M37.563 44.8536C30.063 43.8535 13.063 45.8535 10.563 48.3536C9.76298 50.7535 12.8963 53.6868 14.563 54.8535C24.063 56.3535 37.563 50.3535 37.563 44.8536Z" fill="#EDADBF" stroke="black" stroke-width="0.5"/>
<path d="M4.56222 48.3535C11.5622 49.3535 5.56222 59.8535 2.56222 64.8535C2.06215 57.8535 2.56201 52.3535 4.56222 48.3535Z" fill="#EDADBF" stroke="black" stroke-width="0.5"/>
<path d="M22.5615 84.3535V79.8535H40.0615L40.5615 84.3535H22.5615Z" fill="#EDADBF" stroke="black" stroke-width="0.5"/>
<path d="M3.06348 65.8535C4.56348 68.3535 6.56348 71.5202 6.06348 73.3535M22.5635 79.8535C12.0635 80.3535 7.56348 76.3535 8.56348 72.8535C9.06348 72.3535 10.5635 70.8535 11.5635 70.8535" stroke="black" stroke-width="0.5"/>
<path d="M32.5635 74.8535C30.0635 70.8535 24.5635 65.8536 21.5635 64.3536C19.8134 63.8536 17.1883 63.9786 14.4383 64.3536C12.8133 65.6869 11.5635 68.8535 12.0635 71.8535C12.0635 73.0202 13.3709 75.3535 16.0635 75.3535C20.5635 75.3535 27.5635 75.8535 32.5635 74.8535Z" fill="#EDADBF"/>
<path d="M6.56348 65.8536C8.81342 65.3536 11.6883 64.7286 14.4383 64.3536M14.4383 64.3536C17.1883 63.9786 19.8134 63.8536 21.5635 64.3536C24.5635 65.8536 30.0635 70.8535 32.5635 74.8535C27.5635 75.8535 20.5635 75.3535 16.0635 75.3535C13.3709 75.3535 12.0635 73.0202 12.0635 71.8535C11.5635 68.8535 12.8133 65.6869 14.4383 64.3536Z" stroke="black" stroke-width="0.5"/>
<path d="M12.0635 71.3536C20.0635 69.8536 23.5635 72.4821 26.5635 73.9821M13.5635 74.3536L31.0635 73.8536" stroke="black" stroke-width="0.5"/>
<path d="M22.5615 82.8535H32.0615C34.0615 82.8535 35.5615 80.8535 35.0615 79.8535M38.5615 79.8535V84.3535" stroke="black" stroke-width="0.5"/>
<path d="M22.5634 81.3538C18.0634 81.3538 13.5634 81.8538 2.06342 78.8538V76.8538L6.06342 74.8538V73.3538L2.06342 72.8538C1.5625 71.3535 0.562696 68.3535 2.56269 65.8535C2.06293 57.8535 2.56293 51.3535 4.56342 48.3533C37.0634 28.8537 59.0634 34.8537 85.0634 30.3537C163.063 -24.6464 245.063 12.3535 282.063 26.8537L295.563 28.8535L296.063 35.8535V38.8535C297.562 43.8535 298.897 48.3535 297.563 50.3535C300.063 51.3535 302.563 54.5202 302.563 56.3535L300.563 66.3535C301.015 77.2014 298.607 77.4257 289.276 77.7382C288.285 77.7713 286.216 77.8055 285.063 77.8535V79.3535L260.063 79.7846M22.5634 81.3538V84.3538H40.5618L40.0634 79.8538M22.5634 81.3538V79.8538H40.0634M40.0634 79.8538C37.0634 38.3538 90.5634 41.3538 87.0634 80.3538V82.8535H213.563C207.563 39.3535 262.063 39.3535 260.063 79.7846M259.562 79.7846H260.063" stroke="black"/>
</svg>
