<svg width="304" height="95" viewBox="0 0 304 95" fill="none" xmlns="http://www.w3.org/2000/svg">
<circle cx="63.0938" cy="73.8459" r="20.5" fill="#EDADBF" stroke="black"/>
<circle cx="236.094" cy="73.8459" r="20.5" fill="#EDADBF" stroke="black"/>
<path d="M133.092 12.3458L131.592 8.8458C171.592 0.845915 193.092 1.34595 232.092 12.8459L228.592 17.3459C208.592 9.34586 190.592 8.34586 174.592 7.84592C172.092 7.34592 168.092 7.34589 165.592 7.8458C155.592 7.84592 143.592 9.34592 133.092 12.3458Z" stroke="black" stroke-width="0.5"/>
<path d="M131.592 8.84599L131.092 7.34599C167.092 -3.65405 199.592 0.345821 235.092 9.34599L232.092 12.846C192.092 0.345947 166.092 1.84595 131.592 8.84599Z" stroke="black" stroke-width="0.5"/>
<path d="M131.592 8.84593C183.092 -2.65409 211.592 7.34595 232.092 12.8459" stroke="black" stroke-width="0.5"/>
<path d="M227.094 30.3459L224.094 15.8459C219.594 14.3459 208.094 8.84595 174.594 7.84595L171.094 29.8459C182.094 29.3459 199.594 27.8459 226.594 27.8459" stroke="black" stroke-width="0.5"/>
<path d="M165.594 7.84595C132.594 8.84595 112.594 17.8459 93.5938 35.3459L96.0938 33.3459L160.094 30.3459L165.594 7.84595Z" stroke="black" stroke-width="0.5"/>
<path d="M240.092 22.3459C236.425 19.6793 230.592 17.3459 224.092 15.8459L226.592 27.8459H233.092C236.092 26.3459 239.092 24.1147 240.092 22.3459Z" stroke="black" stroke-width="0.5"/>
<path d="M97.0938 78.3459H164.094L198.594 76.8459M97.0938 78.3459C97.0938 79.8459 97.5938 80.8459 98.5938 82.3459M97.0938 78.3459H87.0938V82.3459H98.5938M198.594 76.8459L199.594 82.3459M198.594 76.8459H213.094L213.594 82.3459H199.594M199.594 82.3459H98.5938" stroke="black" stroke-width="0.5"/>
<path d="M97.0929 78.3459C92.5937 73.8459 89.5938 51.8459 93.5929 35.3459L165.594 31.3459C161.594 36.3459 160.594 70.3459 164.094 78.3459H97.0929Z" stroke="black" stroke-width="0.5"/>
<path d="M229.094 30.3459L165.594 31.3459C161.594 36.3459 160.594 70.3459 164.094 78.3459L198.594 76.8459C203.094 75.3459 209.594 69.8459 229.094 30.3459Z" stroke="black" stroke-width="0.5"/>
<path d="M171.094 29.846C166.594 30.346 163.094 30.346 160.094 30.346L165.594 7.84602C168.594 7.34595 171.594 7.34595 174.594 7.84602L171.094 29.846Z" stroke="black" stroke-width="0.5"/>
<path d="M99.5938 31.8461C104.094 37.3461 111.094 33.8461 115.094 32.3461C116.094 16.846 103.094 24.8459 99.5938 31.8461Z" stroke="black" stroke-width="0.5"/>
<path d="M235.092 9.34595L232.092 12.8459C249.092 18.3459 259.592 21.3459 272.092 27.8459H273.592L281.592 26.3459C266.592 19.8459 259.092 17.3459 235.092 9.34595Z" stroke="black" stroke-width="0.5"/>
<path d="M272.092 27.8459C261.592 22.3459 242.592 15.8459 232.092 12.8459L230.092 15.3459L245.092 22.8459C243.592 25.3459 239.592 27.3459 233.592 30.0459C245.592 29.3459 262.592 28.3459 272.092 27.8459Z" stroke="black" stroke-width="0.5"/>
<path d="M277.594 34.1459L283.592 31.8459L273.093 27.8459L229.093 30.3459C221.593 45.3459 206.593 75.8459 198.593 76.8459H213.093C211.593 65.8459 221.093 42.3459 246.094 51.3459C256.594 45.8459 266.594 40.3459 277.594 34.1459Z" stroke="black" stroke-width="0.5"/>
<path d="M278.592 33.846C266.592 40.346 256.592 45.846 246.092 51.346C250.592 54.3459 261.092 60.3459 260.092 79.3459L285.092 78.8459V77.3459C293.592 76.3459 302.092 79.8459 300.592 65.8459L302.592 55.8459C302.592 54.3459 300.092 50.3459 297.592 49.8459C299.092 47.3459 296.092 38.3459 296.092 38.3459V36.8459L292.092 33.8459L287.092 32.3459L283.592 31.8459L278.592 33.846Z" stroke="black" stroke-width="0.5"/>
<path d="M296.092 36.8459L296.086 36.7661M296.086 36.7661L295.592 28.3459L281.592 26.3459L273.092 27.8459L283.592 31.8459C293.092 32.8459 292.091 34.3459 296.086 36.7661Z" stroke="black" stroke-width="0.5"/>
<path d="M294.594 36.3461C294.094 33.846 283.094 33.646 277.594 34.146" stroke="black" stroke-width="0.5"/>
<path d="M300.594 66.3459L261.094 68.3459C260.594 63.3459 258.427 59.1793 256.594 57.3459L302.594 54.8459M301.094 52.3459C290.094 50.8459 279.094 46.0459 267.094 40.0459M229.094 30.3459L273.094 27.8459L281.594 26.3459" stroke="black" stroke-width="0.5"/>
<path d="M273.094 42.8459C280.089 43.1957 286.106 43.3008 291.487 43.8459M298.094 44.8459C295.991 44.3953 293.798 44.08 291.487 43.8459M296.094 37.3459C295.676 36.7608 295.207 36.2316 294.703 35.7559M291.487 43.8459C291.161 43.5012 291.067 42.9781 291.052 42.3459M291.052 42.3459C291.038 41.7557 291.094 41.0702 291.094 40.3459C291.094 38.3459 290.094 34.3459 286.594 32.3459C288.815 32.3459 292.191 33.3863 294.703 35.7559M291.052 42.3459C294.094 40.8459 295.166 37.2859 294.703 35.7559" stroke="black" stroke-width="0.5"/>
<path d="M291.094 40.3459C286.594 40.3459 284.594 36.3459 283.594 33.8459" stroke="black" stroke-width="0.5"/>
<path d="M133.092 12.4459C119.592 16.4459 107.592 22.3459 93.5923 35.3459C100.592 23.3459 116.092 13.8459 131.592 8.84595L133.092 12.4459Z" fill="#E0426F" stroke="black" stroke-width="0.5"/>
<path d="M131.592 8.84595C111.592 14.52 93.5923 31.8459 85.5923 29.8459C98.5923 20.3459 114.592 11.8459 131.092 7.34595L131.592 8.84595Z" fill="#E0426F" stroke="black" stroke-width="0.5"/>
<path d="M10.593 47.846H4.59295C2.09229 51.8459 2.09229 61.8459 2.59295 65.3459C1.09229 66.3459 1.09288 70.8459 2.09295 72.3459L6.09295 72.8459V74.3459L2.09295 76.3459V78.3459C6.09295 79.3459 14.593 81.3459 22.593 80.8459V79.3459H40.0929C39.4263 70.8459 41.0929 60.3459 50.0929 53.3459C47.5929 49.3459 40.5929 44.8459 37.5929 44.346C27.5929 43.3459 12.593 45.846 10.593 47.846Z" fill="#E0426F" stroke="black" stroke-width="0.5"/>
<path d="M93.5938 35.3459C75.7604 36.1793 44.0938 41.0459 33.5938 44.0459L37.5938 44.3459C42.5938 45.8459 48.0938 50.1793 50.0938 53.3459C63.0928 43.8459 88.5928 50.8459 87.0928 78.3459H97.0928C90.0928 67.3459 91.0928 45.3459 93.5938 35.3459Z" fill="#E0426F" stroke="black" stroke-width="0.5"/>
<path d="M10.5918 47.846H4.5918C37.092 28.3459 59.092 34.3459 85.0918 29.8459L94.092 35.3459C77.092 36.3459 48.0918 39.8459 34.0918 44.046C26.0918 43.8459 12.0918 45.8459 10.5918 47.846Z" fill="#E0426F" stroke="black" stroke-width="0.5"/>
<path d="M37.5937 44.346C30.0937 43.3459 13.0937 45.3459 10.5937 47.846C9.79374 50.246 12.9271 53.1793 14.5937 54.3459C24.0938 55.8459 37.5937 49.8459 37.5937 44.346Z" fill="#E0426F" stroke="black" stroke-width="0.5"/>
<path d="M4.59298 47.8459C11.593 48.8459 5.59298 59.3459 2.59298 64.3459C2.09291 57.3459 2.59277 51.8459 4.59298 47.8459Z" fill="#E0426F" stroke="black" stroke-width="0.5"/>
<path d="M22.5923 83.8459V79.3459H40.0923L40.5923 83.8459H22.5923Z" fill="#E0426F" stroke="black" stroke-width="0.5"/>
<path d="M3.09375 65.3459C4.59375 67.8459 6.59375 71.0126 6.09375 72.8459M22.5938 79.3459C12.0938 79.8459 7.59375 75.8459 8.59375 72.3459C9.09375 71.8459 10.5938 70.3459 11.5938 70.3459" stroke="black" stroke-width="0.5"/>
<path d="M32.5938 74.3459C30.0938 70.3459 24.5938 65.346 21.5938 63.846C19.8437 63.346 17.2186 63.471 14.4685 63.846C12.8436 65.1793 11.5938 68.3459 12.0938 71.3459C12.0938 72.5126 13.4012 74.8459 16.0938 74.8459C20.5938 74.8459 27.5938 75.3459 32.5938 74.3459Z" fill="#E0426F"/>
<path d="M6.59375 65.346C8.84369 64.846 11.7186 64.221 14.4685 63.846M14.4685 63.846C17.2186 63.471 19.8437 63.346 21.5938 63.846C24.5938 65.346 30.0938 70.3459 32.5938 74.3459C27.5938 75.3459 20.5938 74.8459 16.0938 74.8459C13.4012 74.8459 12.0938 72.5126 12.0938 71.3459C11.5938 68.3459 12.8436 65.1793 14.4685 63.846Z" stroke="black" stroke-width="0.5"/>
<path d="M12.0938 70.846C20.0938 69.3461 23.5938 71.9745 26.5938 73.4745M13.5938 73.8461L31.0938 73.3461" stroke="black" stroke-width="0.5"/>
<path d="M22.5918 82.3459H32.0918C34.0918 82.3459 35.5918 80.3459 35.0918 79.3459M38.5918 79.3459V83.8459" stroke="black" stroke-width="0.5"/>
<path d="M22.5937 80.8462C18.0937 80.8462 13.5937 81.3462 2.0937 78.3462V76.3462L6.0937 74.3462V72.8462L2.0937 72.3462C1.59277 70.8459 0.592969 67.8459 2.59296 65.3459C2.09321 57.3459 2.59321 50.8459 4.5937 47.8457C37.0937 28.3461 59.0937 34.3461 85.0937 29.8461C163.094 -25.154 245.094 11.8459 282.094 26.3461L295.594 28.3459L296.094 35.3459V38.3459C297.592 43.3459 298.927 47.8459 297.594 49.8459C300.094 50.8459 302.594 54.0126 302.594 55.8459L300.594 65.8459C301.046 76.6939 298.638 76.9181 289.306 77.2306C288.315 77.2638 286.246 77.2979 285.094 77.3459V78.8459L260.094 79.277M22.5937 80.8462V83.8462H40.592L40.0937 79.3462M22.5937 80.8462V79.3462H40.0937M40.0937 79.3462C37.0937 37.8462 90.5937 40.8462 87.0937 79.8462V82.3459H213.594C207.594 38.8459 262.094 38.8459 260.094 79.277M259.592 79.277H260.094" stroke="black"/>
</svg>
