<svg width="303" height="96" viewBox="0 0 303 96" fill="none" xmlns="http://www.w3.org/2000/svg">
<circle cx="62.458" cy="74.5227" r="20.5" fill="#E0426F" stroke="black"/>
<circle cx="235.458" cy="74.5227" r="20.5" fill="#E0426F" stroke="black"/>
<path d="M132.456 13.0226L130.956 9.52256C170.956 1.52267 192.456 2.02271 231.456 13.5227L227.956 18.0226C207.956 10.0226 189.956 9.02261 173.956 8.52268C171.456 8.02268 167.456 8.02264 164.956 8.52256C154.956 8.52268 142.956 10.0227 132.456 13.0226Z" fill="#EFC7D3" stroke="black" stroke-width="0.5"/>
<path d="M130.956 9.52275L130.456 8.02275C166.456 -2.97729 198.956 1.02258 234.456 10.0228L231.456 13.5228C191.456 1.02271 165.456 2.52271 130.956 9.52275Z" fill="#EFC7D3" stroke="black" stroke-width="0.5"/>
<path d="M130.956 9.52269C182.456 -1.97733 210.956 8.02271 231.456 13.5227" stroke="black" stroke-width="0.5"/>
<path d="M170.458 30.5227L173.958 8.52271C207.458 9.52271 218.958 15.0227 223.458 16.5227L225.941 28.5227C198.951 28.5233 181.456 30.0228 170.458 30.5227Z" fill="#EFC7D3"/>
<path d="M226.458 31.0227L223.458 16.5227C218.958 15.0227 207.458 9.52271 173.958 8.52271L170.458 30.5227C181.458 30.0227 198.958 28.5227 225.958 28.5227" stroke="black" stroke-width="0.5"/>
<path d="M164.958 8.52271C131.958 9.52271 111.958 18.5227 92.958 36.0227L95.458 34.0227L159.458 31.0227L164.958 8.52271Z" fill="#EFC7D3" stroke="black" stroke-width="0.5"/>
<path d="M239.456 23.0227C235.789 20.356 229.956 18.0227 223.456 16.5227L225.956 28.5227H232.456C235.456 27.0227 238.456 24.7914 239.456 23.0227Z" fill="#EFC7D3" stroke="black" stroke-width="0.5"/>
<path d="M96.458 79.0227H163.458L197.958 77.5227H212.458L212.958 83.0227H198.958H97.958H86.458V79.0227H96.458Z" fill="#EFC7D3"/>
<path d="M96.458 79.0227H163.458L197.958 77.5227M96.458 79.0227C96.458 80.5227 96.958 81.5227 97.958 83.0227M96.458 79.0227H86.458V83.0227H97.958M197.958 77.5227L198.958 83.0227M197.958 77.5227H212.458L212.958 83.0227H198.958M198.958 83.0227H97.958" stroke="black" stroke-width="0.5"/>
<path d="M96.4571 79.0227C91.958 74.5227 88.9581 52.5227 92.9571 36.0227L164.958 32.0227C160.958 37.0227 159.958 71.0227 163.458 79.0227H96.4571Z" fill="#EFC7D3" stroke="black" stroke-width="0.5"/>
<path d="M228.458 31.0227L164.958 32.0227C160.958 37.0227 159.958 71.0227 163.458 79.0227L197.958 77.5227C202.458 76.0227 208.958 70.5227 228.458 31.0227Z" fill="#EFC7D3" stroke="black" stroke-width="0.5"/>
<path d="M170.458 30.5228C165.958 31.0228 162.458 31.0228 159.458 31.0228L164.958 8.52278C167.958 8.02271 170.958 8.02271 173.958 8.52278L170.458 30.5228Z" fill="#EFC7D3" stroke="black" stroke-width="0.5"/>
<path d="M98.958 32.5228C103.458 38.0228 110.458 34.5228 114.458 33.0228C115.458 17.5227 102.458 25.5227 98.958 32.5228Z" fill="#EFC7D3" stroke="black" stroke-width="0.5"/>
<path d="M234.456 10.0227L231.456 13.5227C248.456 19.0227 258.956 22.0227 271.456 28.5227H272.956L280.956 27.0227C265.956 20.5227 258.456 18.0227 234.456 10.0227Z" fill="#E56E90" stroke="black" stroke-width="0.5"/>
<path d="M271.456 28.5227C260.956 23.0227 241.956 16.5227 231.456 13.5227L229.456 16.0227L244.456 23.5227C242.956 26.0227 238.956 28.0227 232.956 30.7227C244.956 30.0227 261.956 29.0227 271.456 28.5227Z" fill="#E56E90" stroke="black" stroke-width="0.5"/>
<path d="M276.958 34.8227L282.956 32.5227L272.457 28.5227L228.457 31.0227C220.957 46.0227 205.957 76.5227 197.957 77.5227H212.457C210.957 66.5227 220.457 43.0227 245.458 52.0227C255.958 46.5227 265.958 41.0227 276.958 34.8227Z" fill="#E56E90" stroke="black" stroke-width="0.5"/>
<path d="M277.956 34.5227C265.956 41.0227 255.956 46.5227 245.456 52.0227C249.956 55.0227 260.456 61.0227 259.456 80.0227L284.456 79.5227V78.0227C292.956 77.0227 301.456 80.5227 299.956 66.5227L301.956 56.5227C301.956 55.0227 299.456 51.0227 296.956 50.5227C298.456 48.0227 295.456 39.0227 295.456 39.0227V37.5227L291.456 34.5227L286.456 33.0227L282.956 32.5227L277.956 34.5227Z" fill="#E56E90" stroke="black" stroke-width="0.5"/>
<path d="M280.956 27.0227L272.456 28.5227L282.956 32.5227C292.456 33.5227 291.455 35.0227 295.45 37.4429L294.956 29.0227L280.956 27.0227Z" fill="#E56E90"/>
<path d="M295.456 37.5227L295.45 37.4429M295.45 37.4429L294.956 29.0227L280.956 27.0227L272.456 28.5227L282.956 32.5227C292.456 33.5227 291.455 35.0227 295.45 37.4429Z" stroke="black" stroke-width="0.5"/>
<path d="M293.958 37.0229C293.458 34.5228 282.458 34.3227 276.958 34.8227" stroke="black" stroke-width="0.5"/>
<path d="M299.958 67.0227L260.458 69.0227C259.958 64.0227 257.791 59.856 255.958 58.0227L301.958 55.5227M300.458 53.0227C289.458 51.5227 278.458 46.7227 266.458 40.7227M228.458 31.0227L272.458 28.5227L280.958 27.0227" stroke="black" stroke-width="0.5"/>
<path d="M290.458 41.0227C290.458 39.0227 289.458 35.0227 285.958 33.0227C288.179 33.0227 291.556 34.0631 294.067 36.4327C294.531 37.9627 293.458 41.5227 290.416 43.0227C290.403 42.4324 290.458 41.747 290.458 41.0227Z" fill="#E56E90"/>
<path d="M272.458 43.5227C279.454 43.8725 285.471 43.9776 290.851 44.5227M297.458 45.5227C295.355 45.0721 293.162 44.7568 290.851 44.5227M295.458 38.0227C295.04 37.4376 294.571 36.9084 294.067 36.4327M290.851 44.5227C290.525 44.1779 290.431 43.6549 290.416 43.0227M290.416 43.0227C290.403 42.4324 290.458 41.747 290.458 41.0227C290.458 39.0227 289.458 35.0227 285.958 33.0227C288.179 33.0227 291.556 34.0631 294.067 36.4327M290.416 43.0227C293.458 41.5227 294.531 37.9627 294.067 36.4327" stroke="black" stroke-width="0.5"/>
<path d="M290.458 41.0227C285.958 41.0227 283.958 37.0227 282.958 34.5227" stroke="black" stroke-width="0.5"/>
<path d="M132.456 13.1227C118.956 17.1227 106.956 23.0227 92.9561 36.0227C99.9561 24.0227 115.456 14.5227 130.956 9.52271L132.456 13.1227Z" fill="#E56E90" stroke="black" stroke-width="0.5"/>
<path d="M130.956 9.52271C110.956 15.1967 92.9561 32.5227 84.9561 30.5227C97.9561 21.0227 113.956 12.5227 130.456 8.02271L130.956 9.52271Z" fill="#E56E90" stroke="black" stroke-width="0.5"/>
<path d="M9.95672 48.5227H3.95672C1.45605 52.5227 1.45605 62.5227 1.95672 66.0227C0.456055 67.0227 0.456652 71.5227 1.45672 73.0227L5.45672 73.5227V75.0227L1.45672 77.0227V79.0227C5.45672 80.0227 13.9567 82.0227 21.9567 81.5227V80.0227H39.4567C38.7901 71.5227 40.4567 61.0227 49.4567 54.0227C46.9567 50.0227 39.9567 45.5227 36.9567 45.0227C26.9567 44.0227 11.9567 46.5227 9.95672 48.5227Z" fill="#E56E90" stroke="black" stroke-width="0.5"/>
<path d="M92.958 36.0227C75.1247 36.856 43.458 41.7227 32.958 44.7227L36.958 45.0227C41.958 46.5227 47.458 50.856 49.458 54.0227C62.457 44.5227 87.957 51.5227 86.457 79.0227H96.457C89.457 68.0227 90.457 46.0227 92.958 36.0227Z" fill="#E56E90" stroke="black" stroke-width="0.5"/>
<path d="M9.95606 48.5228H3.95605C36.4562 29.0227 58.4563 35.0227 84.4561 30.5227L93.4563 36.0227C76.4563 37.0227 47.4561 40.5227 33.4561 44.7227C25.4561 44.5227 11.4561 46.5227 9.95606 48.5228Z" fill="#E56E90" stroke="black" stroke-width="0.5"/>
<path d="M36.9575 45.0228C29.4575 44.0227 12.4575 46.0227 9.95751 48.5228C9.15751 50.9227 12.2908 53.856 13.9575 55.0227C23.4575 56.5227 36.9575 50.5227 36.9575 45.0228Z" fill="#E56E90" stroke="black" stroke-width="0.5"/>
<path d="M3.95675 48.5227C10.9568 49.5227 4.95675 60.0227 1.95675 65.0227C1.45668 58.0227 1.95654 52.5227 3.95675 48.5227Z" fill="#E56E90" stroke="black" stroke-width="0.5"/>
<path d="M21.9561 84.5227V80.0227H39.4561L39.9561 84.5227H21.9561Z" fill="#E56E90" stroke="black" stroke-width="0.5"/>
<path d="M2.45801 66.0225C3.95801 68.5225 5.95801 71.6891 5.45801 73.5225M21.958 80.0225C11.458 80.5225 6.95801 76.5225 7.95801 73.0225C8.45801 72.5225 9.95801 71.0225 10.958 71.0225" stroke="black" stroke-width="0.5"/>
<path d="M31.958 75.0226C29.458 71.0226 23.958 66.0227 20.958 64.5227C19.208 64.0227 16.5829 64.1477 13.8328 64.5227C12.2079 65.856 10.958 69.0226 11.458 72.0226C11.458 73.1892 12.7654 75.5226 15.458 75.5226C19.958 75.5226 26.958 76.0226 31.958 75.0226Z" fill="#E56E90"/>
<path d="M5.95801 66.0227C8.20795 65.5226 11.0829 64.8977 13.8328 64.5227M13.8328 64.5227C16.5829 64.1477 19.208 64.0227 20.958 64.5227C23.958 66.0227 29.458 71.0226 31.958 75.0226C26.958 76.0226 19.958 75.5226 15.458 75.5226C12.7654 75.5226 11.458 73.1892 11.458 72.0226C10.958 69.0226 12.2079 65.856 13.8328 64.5227Z" stroke="black" stroke-width="0.5"/>
<path d="M11.458 71.5227C19.458 70.0227 22.958 72.6512 25.958 74.1512M12.958 74.5227L30.458 74.0227" stroke="black" stroke-width="0.5"/>
<path d="M21.9561 83.0225H31.4561C33.4561 83.0225 34.9561 81.0225 34.4561 80.0225M37.9561 80.0225V84.5225" stroke="black" stroke-width="0.5"/>
<path d="M21.958 81.5229C17.458 81.5229 12.958 82.0229 1.45795 79.0229V77.0229L5.45795 75.0229V73.5229L1.45795 73.023C0.957031 71.5227 -0.0427729 68.5227 1.95722 66.0227C1.45747 58.0227 1.95747 51.5227 3.95795 48.5224C36.458 29.0228 58.4579 35.0229 84.4579 30.5229C162.458 -24.4772 244.458 12.5227 281.458 27.0229L294.958 29.0227L295.458 36.0227V39.0227C296.956 44.0227 298.291 48.5227 296.958 50.5227C299.458 51.5227 301.958 54.6894 301.958 56.5227L299.958 66.5227C300.41 77.3706 298.002 77.5949 288.67 77.9073C287.679 77.9405 285.61 77.9747 284.458 78.0227V79.5227L259.458 79.9537M21.958 81.5229V84.5229H39.9563L39.458 80.0229M21.958 81.5229V80.0229H39.458M39.458 80.0229C36.458 38.5229 89.9579 41.5229 86.4579 80.5229V83.0227H212.958C206.958 39.5227 261.458 39.5227 259.458 79.9537M258.956 79.9537H259.458" stroke="black"/>
</svg>
