<svg width="303" height="96" viewBox="0 0 303 96" fill="none" xmlns="http://www.w3.org/2000/svg">
<circle cx="62.6978" cy="74.1843" r="20.5" stroke="black"/>
<circle cx="235.698" cy="74.1843" r="20.5" stroke="black"/>
<path d="M132.696 12.6842L131.196 9.18418C171.196 1.18429 192.696 1.68433 231.696 13.1843L228.196 17.6843C208.196 9.68424 190.196 8.68423 174.196 8.1843C171.696 7.6843 167.696 7.68427 165.196 8.18418C155.196 8.1843 143.196 9.6843 132.696 12.6842Z" fill="#EFC7D3" stroke="black" stroke-width="0.5"/>
<path d="M131.196 9.18437L130.696 7.68437C166.696 -3.31567 199.196 0.6842 234.696 9.68437L231.696 13.1844C191.696 0.684326 165.696 2.18433 131.196 9.18437Z" fill="#EFC7D3" stroke="black" stroke-width="0.5"/>
<path d="M131.196 9.18431C182.696 -2.31571 211.196 7.68433 231.696 13.1843" stroke="black" stroke-width="0.5"/>
<path d="M170.698 30.1843L174.198 8.18433C207.698 9.18433 219.198 14.6843 223.698 16.1843L226.181 28.1843C199.19 28.185 181.695 29.6844 170.698 30.1843Z" fill="#EFC7D3"/>
<path d="M226.698 30.6843L223.698 16.1843C219.198 14.6843 207.698 9.18433 174.198 8.18433L170.698 30.1843C181.698 29.6843 199.198 28.1843 226.198 28.1843" stroke="black" stroke-width="0.5"/>
<path d="M165.198 8.18433C132.198 9.18433 112.198 18.1843 93.1978 35.6843L95.6978 33.6843L159.698 30.6843L165.198 8.18433Z" fill="#EFC7D3" stroke="black" stroke-width="0.5"/>
<path d="M239.696 22.6843C236.03 20.0177 230.196 17.6843 223.696 16.1843L226.196 28.1843H232.696C235.696 26.6843 238.696 24.4531 239.696 22.6843Z" fill="#EFC7D3" stroke="black" stroke-width="0.5"/>
<path d="M96.6978 78.6843H163.698L198.198 77.1843H212.698L213.198 82.6843H199.198H98.1978H86.6978V78.6843H96.6978Z" fill="#EFC7D3"/>
<path d="M96.6978 78.6843H163.698L198.198 77.1843M96.6978 78.6843C96.6978 80.1843 97.1978 81.1843 98.1978 82.6843M96.6978 78.6843H86.6978V82.6843H98.1978M198.198 77.1843L199.198 82.6843M198.198 77.1843H212.698L213.198 82.6843H199.198M199.198 82.6843H98.1978" stroke="black" stroke-width="0.5"/>
<path d="M96.6969 78.6843C92.1977 74.1843 89.1978 52.1843 93.1969 35.6843L165.198 31.6843C161.198 36.6843 160.198 70.6843 163.698 78.6843H96.6969Z" fill="#EFC7D3" stroke="black" stroke-width="0.5"/>
<path d="M228.697 30.6843L165.197 31.6843C161.197 36.6843 160.198 70.6843 163.697 78.6843L198.197 77.1843C202.697 75.6843 209.197 70.1843 228.697 30.6843Z" fill="#EFC7D3" stroke="black" stroke-width="0.5"/>
<path d="M170.698 30.1844C166.198 30.6844 162.698 30.6844 159.698 30.6844L165.198 8.1844C168.198 7.68433 171.198 7.68433 174.198 8.1844L170.698 30.1844Z" fill="#EFC7D3" stroke="black" stroke-width="0.5"/>
<path d="M99.1978 32.1845C103.698 37.6845 110.698 34.1845 114.698 32.6845C115.698 17.1843 102.698 25.1843 99.1978 32.1845Z" fill="#EFC7D3" stroke="black" stroke-width="0.5"/>
<path d="M234.696 9.68433L231.696 13.1843C248.696 18.6843 259.196 21.6843 271.696 28.1843H273.196L281.196 26.6843C266.196 20.1843 258.696 17.6843 234.696 9.68433Z" stroke="black" stroke-width="0.5"/>
<path d="M271.696 28.1843C261.196 22.6843 242.196 16.1843 231.696 13.1843L229.696 15.6843L244.696 23.1843C243.196 25.6843 239.196 27.6843 233.196 30.3843C245.196 29.6843 262.196 28.6843 271.696 28.1843Z" stroke="black" stroke-width="0.5"/>
<path d="M277.198 34.4843L283.196 32.1843L272.697 28.1843L228.697 30.6843C221.197 45.6843 206.197 76.1843 198.197 77.1843H212.697C211.197 66.1843 220.697 42.6843 245.698 51.6843C256.198 46.1843 266.198 40.6843 277.198 34.4843Z" stroke="black" stroke-width="0.5"/>
<path d="M278.196 34.1844C266.196 40.6844 256.196 46.1844 245.696 51.6844C250.196 54.6843 260.696 60.6843 259.696 79.6843L284.696 79.1843V77.6843C293.196 76.6843 301.696 80.1843 300.196 66.1843L302.196 56.1843C302.196 54.6843 299.696 50.6843 297.196 50.1843C298.696 47.6843 295.696 38.6843 295.696 38.6843V37.1843L291.696 34.1843L286.696 32.6843L283.196 32.1843L278.196 34.1844Z" stroke="black" stroke-width="0.5"/>
<path d="M295.696 37.1843L295.69 37.1045M295.69 37.1045L295.196 28.6843L281.196 26.6843L272.696 28.1843L283.196 32.1843C292.696 33.1843 291.695 34.6843 295.69 37.1045Z" stroke="black" stroke-width="0.5"/>
<path d="M294.198 36.6845C293.698 34.1844 282.698 33.9843 277.198 34.4843" stroke="black" stroke-width="0.5"/>
<path d="M300.198 66.6843L260.698 68.6843C260.198 63.6843 258.031 59.5177 256.198 57.6843L302.198 55.1843M300.698 52.6843C289.698 51.1843 278.698 46.3843 266.698 40.3843M228.698 30.6843L272.698 28.1843L281.198 26.6843" stroke="black" stroke-width="0.5"/>
<path d="M272.698 43.1843C279.693 43.5341 285.71 43.6392 291.091 44.1843M297.698 45.1843C295.595 44.7337 293.402 44.4184 291.091 44.1843M295.698 37.6843C295.28 37.0992 294.811 36.57 294.307 36.0943M291.091 44.1843C290.765 43.8396 290.671 43.3165 290.656 42.6843M290.656 42.6843C290.642 42.094 290.698 41.4086 290.698 40.6843C290.698 38.6843 289.698 34.6843 286.198 32.6843C288.419 32.6843 291.795 33.7247 294.307 36.0943M290.656 42.6843C293.698 41.1843 294.77 37.6243 294.307 36.0943" stroke="black" stroke-width="0.5"/>
<path d="M290.698 40.6843C286.198 40.6843 284.198 36.6843 283.198 34.1843" stroke="black" stroke-width="0.5"/>
<path d="M132.696 12.7843C119.196 16.7843 107.196 22.6843 93.1963 35.6843C100.196 23.6843 115.696 14.1843 131.196 9.18433L132.696 12.7843Z" fill="#EFC7D3" stroke="black" stroke-width="0.5"/>
<path d="M131.196 9.18433C111.196 14.8584 93.1963 32.1843 85.1963 30.1843C98.1963 20.6843 114.196 12.1843 130.696 7.68433L131.196 9.18433Z" fill="#EFC7D3" stroke="black" stroke-width="0.5"/>
<path d="M10.197 48.1843H4.19696C1.69629 52.1843 1.69629 62.1843 2.19696 65.6843C0.696289 66.6843 0.696887 71.1843 1.69696 72.6843L5.69696 73.1843V74.6843L1.69696 76.6843V78.6843C5.69696 79.6843 14.197 81.6843 22.197 81.1843V79.6843H39.697C39.0303 71.1843 40.697 60.6843 49.697 53.6843C47.197 49.6843 40.197 45.1843 37.197 44.6843C27.197 43.6843 12.197 46.1843 10.197 48.1843Z" fill="#EFC7D3" stroke="black" stroke-width="0.5"/>
<path d="M93.1978 35.6843C75.3644 36.5177 43.6978 41.3843 33.1978 44.3843L37.1978 44.6843C42.1978 46.1843 47.6978 50.5177 49.6978 53.6843C62.6968 44.1843 88.1968 51.1843 86.6968 78.6843H96.6968C89.6968 67.6843 90.6968 45.6843 93.1978 35.6843Z" fill="#EFC7D3" stroke="black" stroke-width="0.5"/>
<path d="M10.1963 48.1844H4.19629C36.6965 28.6843 58.6965 34.6843 84.6963 30.1843L93.6965 35.6843C76.6965 36.6843 47.6963 40.1843 33.6963 44.3843C25.6963 44.1843 11.6963 46.1843 10.1963 48.1844Z" fill="#EFC7D3" stroke="black" stroke-width="0.5"/>
<path d="M37.1977 44.6844C29.6977 43.6843 12.6977 45.6843 10.1977 48.1844C9.39774 50.5843 12.5311 53.5177 14.1977 54.6843C23.6978 56.1843 37.1977 50.1843 37.1977 44.6844Z" fill="#EFC7D3" stroke="black" stroke-width="0.5"/>
<path d="M4.19698 48.1843C11.197 49.1843 5.19698 59.6843 2.19698 64.6843C1.69691 57.6843 2.19678 52.1843 4.19698 48.1843Z" fill="#EFC7D3" stroke="black" stroke-width="0.5"/>
<path d="M22.1963 84.1843V79.6843H39.6963L40.1963 84.1843H22.1963Z" fill="#EFC7D3" stroke="black" stroke-width="0.5"/>
<path d="M2.69824 65.6843C4.19824 68.1843 6.19824 71.351 5.69824 73.1843M22.1982 79.6843C11.6982 80.1843 7.19824 76.1843 8.19824 72.6843C8.69824 72.1843 10.1982 70.6843 11.1982 70.6843" stroke="black" stroke-width="0.5"/>
<path d="M32.1982 74.6843C29.6982 70.6843 24.1982 65.6844 21.1982 64.1844C19.4482 63.6844 16.8231 63.8094 14.073 64.1844C12.4481 65.5177 11.1982 68.6843 11.6982 71.6843C11.6982 72.851 13.0057 75.1843 15.6982 75.1843C20.1982 75.1843 27.1982 75.6843 32.1982 74.6843Z" fill="#EFC7D3"/>
<path d="M6.19824 65.6844C8.44818 65.1844 11.3231 64.5594 14.073 64.1844M14.073 64.1844C16.8231 63.8094 19.4482 63.6844 21.1982 64.1844C24.1982 65.6844 29.6982 70.6843 32.1982 74.6843C27.1982 75.6843 20.1982 75.1843 15.6982 75.1843C13.0057 75.1843 11.6982 72.851 11.6982 71.6843C11.1982 68.6843 12.4481 65.5177 14.073 64.1844Z" stroke="black" stroke-width="0.5"/>
<path d="M11.6982 71.1844C19.6982 69.6844 23.1982 72.3129 26.1982 73.8129M13.1982 74.1844L30.6982 73.6844" stroke="black" stroke-width="0.5"/>
<path d="M22.1963 82.6843H31.6963C33.6963 82.6843 35.1963 80.6843 34.6963 79.6843M38.1963 79.6843V84.1843" stroke="black" stroke-width="0.5"/>
<path d="M22.1977 81.1846C17.6977 81.1846 13.1977 81.6846 1.6977 78.6846V76.6846L5.6977 74.6846V73.1846L1.6977 72.6846C1.19678 71.1843 0.196973 68.1843 2.19697 65.6843C1.69721 57.6843 2.19721 51.1843 4.1977 48.1841C36.6977 28.6845 58.6977 34.6845 84.6977 30.1845C162.698 -24.8156 244.698 12.1843 281.698 26.6845L295.198 28.6843L295.698 35.6843V38.6843C297.196 43.6843 298.531 48.1843 297.198 50.1843C299.698 51.1843 302.198 54.351 302.198 56.1843L300.198 66.1843C300.65 77.0322 298.242 77.2565 288.91 77.569C287.919 77.6021 285.85 77.6363 284.698 77.6843V79.1843L259.698 79.6154M22.1977 81.1846V84.1846H40.196L39.6977 79.6846M22.1977 81.1846V79.6846H39.6977M39.6977 79.6846C36.6977 38.1846 90.1977 41.1846 86.6977 80.1846V82.6843H213.198C207.198 39.1843 261.698 39.1843 259.698 79.6154M259.196 79.6154H259.698" stroke="black"/>
</svg>
