<svg width="303" height="95" viewBox="0 0 303 95" fill="none" xmlns="http://www.w3.org/2000/svg">
<circle cx="62.6875" cy="73.6919" r="20.5" stroke="black"/>
<circle cx="235.688" cy="73.6919" r="20.5" stroke="black"/>
<path d="M132.686 12.1918L131.186 8.69175C171.186 0.691862 192.686 1.19189 231.686 12.6918L228.186 17.1918C208.186 9.1918 190.186 8.1918 174.186 7.69187C171.686 7.19187 167.686 7.19183 165.186 7.69175C155.186 7.69187 143.186 9.19187 132.686 12.1918Z" fill="#EFC7D3" stroke="black" stroke-width="0.5"/>
<path d="M131.186 8.69194L130.686 7.19194C166.686 -3.80811 199.186 0.191769 234.686 9.19194L231.686 12.6919C191.686 0.191895 165.686 1.69189 131.186 8.69194Z" fill="#EFC7D3" stroke="black" stroke-width="0.5"/>
<path d="M131.186 8.692C182.686 -2.80802 211.186 7.19202 231.686 12.692" stroke="black" stroke-width="0.5"/>
<path d="M170.688 29.6919L174.188 7.69189C207.688 8.69189 219.188 14.1919 223.688 15.6919L226.17 27.6919C199.18 27.6925 181.685 29.192 170.688 29.6919Z" fill="#EFC7D3"/>
<path d="M226.688 30.1919L223.688 15.6919C219.188 14.1919 207.688 8.69189 174.188 7.69189L170.688 29.6919C181.688 29.1919 199.188 27.6919 226.188 27.6919" stroke="black" stroke-width="0.5"/>
<path d="M165.188 7.69189C132.188 8.69189 112.188 17.6919 93.1875 35.1919L95.6875 33.1919L159.688 30.1919L165.188 7.69189Z" fill="#EFC7D3" stroke="black" stroke-width="0.5"/>
<path d="M239.686 22.1919C236.019 19.5252 230.186 17.1919 223.686 15.6919L226.186 27.6919H232.686C235.686 26.1919 238.686 23.9606 239.686 22.1919Z" fill="#EFC7D3" stroke="black" stroke-width="0.5"/>
<path d="M96.6875 78.1919H163.688L198.188 76.6919H212.688L213.188 82.1919H199.188H98.1875H86.6875V78.1919H96.6875Z" fill="#EFC7D3"/>
<path d="M96.6875 78.1919H163.688L198.188 76.6919M96.6875 78.1919C96.6875 79.6919 97.1875 80.6919 98.1875 82.1919M96.6875 78.1919H86.6875V82.1919H98.1875M198.188 76.6919L199.188 82.1919M198.188 76.6919H212.688L213.188 82.1919H199.188M199.188 82.1919H98.1875" stroke="black" stroke-width="0.5"/>
<path d="M96.6866 78.1919C92.1875 73.6919 89.1875 51.6919 93.1866 35.1919L165.188 31.1919C161.188 36.1919 160.188 70.1919 163.687 78.1919H96.6866Z" fill="#EFC7D3" stroke="black" stroke-width="0.5"/>
<path d="M228.687 30.1919L165.187 31.1919C161.188 36.1919 160.188 70.1919 163.687 78.1919L198.187 76.6919C202.687 75.1919 209.187 69.6919 228.687 30.1919Z" fill="#EFC7D3" stroke="black" stroke-width="0.5"/>
<path d="M170.688 29.692C166.188 30.192 162.688 30.192 159.688 30.192L165.188 7.69197C168.188 7.19189 171.188 7.19189 174.188 7.69197L170.688 29.692Z" fill="#EFC7D3" stroke="black" stroke-width="0.5"/>
<path d="M99.1875 31.6922C103.688 37.1922 110.688 33.6922 114.688 32.1922C115.688 16.692 102.688 24.692 99.1875 31.6922Z" fill="#EFC7D3" stroke="black" stroke-width="0.5"/>
<path d="M234.686 9.19189L231.686 12.6919C248.686 18.1919 259.186 21.1919 271.686 27.6919H273.186L281.186 26.1919C266.186 19.6919 258.686 17.1919 234.686 9.19189Z" fill="#EFC7D3" stroke="black" stroke-width="0.5"/>
<path d="M271.686 27.6919C261.186 22.1919 242.186 15.6919 231.686 12.6919L229.686 15.1919L244.686 22.6919C243.186 25.1919 239.186 27.1919 233.186 29.8919C245.186 29.1919 262.186 28.1919 271.686 27.6919Z" fill="#EFC7D3" stroke="black" stroke-width="0.5"/>
<path d="M277.188 33.9919L283.186 31.6919L272.687 27.6919L228.687 30.1919C221.187 45.1919 206.187 75.6919 198.187 76.6919H212.687C211.187 65.6919 220.687 42.1919 245.688 51.1919C256.188 45.6919 266.188 40.1919 277.188 33.9919Z" fill="#EFC7D3" stroke="black" stroke-width="0.5"/>
<path d="M278.186 33.6919C266.186 40.1919 256.186 45.6919 245.686 51.1919C250.186 54.1919 260.686 60.1919 259.686 79.1919L284.686 78.6919V77.1919C293.186 76.1919 301.686 79.6919 300.186 65.6919L302.186 55.6919C302.186 54.1919 299.686 50.1919 297.186 49.6919C298.686 47.1919 295.686 38.1919 295.686 38.1919V36.6919L291.686 33.6919L286.686 32.1919L283.186 31.6919L278.186 33.6919Z" fill="#EFC7D3" stroke="black" stroke-width="0.5"/>
<path d="M281.186 26.1919L272.686 27.6919L283.186 31.6919C292.686 32.6919 291.684 34.1919 295.68 36.6121L295.186 28.1919L281.186 26.1919Z" fill="#EFC7D3"/>
<path d="M295.686 36.6919L295.68 36.6121M295.68 36.6121L295.186 28.1919L281.186 26.1919L272.686 27.6919L283.186 31.6919C292.686 32.6919 291.684 34.1919 295.68 36.6121Z" stroke="black" stroke-width="0.5"/>
<path d="M294.188 36.1921C293.688 33.692 282.688 33.4919 277.188 33.9919" stroke="black" stroke-width="0.5"/>
<path d="M300.188 66.1919L260.688 68.1919C260.188 63.1919 258.021 59.0252 256.188 57.1919L302.188 54.6919M300.688 52.1919C289.688 50.6919 278.688 45.8919 266.688 39.8919M228.688 30.1919L272.688 27.6919L281.188 26.1919" stroke="black" stroke-width="0.5"/>
<path d="M290.688 40.1919C290.688 38.1919 289.688 34.1919 286.188 32.1919C288.408 32.1919 291.785 33.2323 294.296 35.6019C294.76 37.1319 293.688 40.6919 290.646 42.1919C290.632 41.6016 290.688 40.9162 290.688 40.1919Z" fill="#EFC7D3"/>
<path d="M272.688 42.6919C279.683 43.0417 285.7 43.1468 291.081 43.6919M297.688 44.6919C295.585 44.2413 293.391 43.926 291.081 43.6919M295.688 37.1919C295.27 36.6068 294.8 36.0775 294.296 35.6019M291.081 43.6919C290.754 43.3471 290.66 42.8241 290.646 42.1919M290.646 42.1919C290.632 41.6016 290.688 40.9162 290.688 40.1919C290.688 38.1919 289.688 34.1919 286.188 32.1919C288.408 32.1919 291.785 33.2323 294.296 35.6019M290.646 42.1919C293.688 40.6919 294.76 37.1319 294.296 35.6019" stroke="black" stroke-width="0.5"/>
<path d="M290.688 40.1919C286.188 40.1919 284.188 36.1919 283.188 33.6919" stroke="black" stroke-width="0.5"/>
<path d="M132.686 12.2919C119.186 16.2919 107.186 22.1919 93.186 35.1919C100.186 23.1919 115.686 13.6919 131.186 8.69189L132.686 12.2919Z" stroke="black" stroke-width="0.5"/>
<path d="M131.186 8.69189C111.186 14.3659 93.186 31.6919 85.186 29.6919C98.186 20.1919 114.186 11.6919 130.686 7.19189L131.186 8.69189Z" stroke="black" stroke-width="0.5"/>
<path d="M10.1867 47.6918H4.1867C1.68604 51.6918 1.68604 61.6918 2.1867 65.1918C0.686035 66.1918 0.686633 70.6918 1.6867 72.1918L5.6867 72.6918V74.1918L1.6867 76.1918V78.1918C5.6867 79.1918 14.1867 81.1918 22.1867 80.6918V79.1918H39.6867C39.02 70.6918 40.6867 60.1918 49.6867 53.1918C47.1867 49.1918 40.1867 44.6918 37.1867 44.1918C27.1867 43.1918 12.1867 45.6918 10.1867 47.6918Z" stroke="black" stroke-width="0.5"/>
<path d="M93.1875 35.1919C75.3542 36.0252 43.6875 40.8919 33.1875 43.8919L37.1875 44.1919C42.1875 45.6919 47.6875 50.0252 49.6875 53.1919C62.6865 43.6919 88.1865 50.6919 86.6865 78.1919H96.6865C89.6865 67.1919 90.6865 45.1919 93.1875 35.1919Z" stroke="black" stroke-width="0.5"/>
<path d="M10.1855 47.6919H4.18555C36.6857 28.1918 58.6858 34.1919 84.6855 29.6919L93.6858 35.1919C76.6858 36.1919 47.6855 39.6919 33.6855 43.8919C25.6855 43.6919 11.6855 45.6919 10.1855 47.6919Z" stroke="black" stroke-width="0.5"/>
<path d="M37.1875 44.192C29.6875 43.1919 12.6875 45.1919 10.1875 47.692C9.38749 50.0919 12.5208 53.0252 14.1875 54.1919C23.6875 55.6919 37.1875 49.6919 37.1875 44.192Z" stroke="black" stroke-width="0.5"/>
<path d="M4.18673 47.6919C11.1867 48.6919 5.18673 59.1919 2.18673 64.1919C1.68666 57.1919 2.18652 51.6919 4.18673 47.6919Z" stroke="black" stroke-width="0.5"/>
<path d="M22.186 83.6919V79.1919H39.686L40.186 83.6919H22.186Z" stroke="black" stroke-width="0.5"/>
<path d="M2.6875 65.1919C4.1875 67.6919 6.1875 70.8586 5.6875 72.6919M22.1875 79.1919C11.6875 79.6919 7.1875 75.6919 8.1875 72.1919C8.6875 71.6919 10.1875 70.1919 11.1875 70.1919" stroke="black" stroke-width="0.5"/>
<path d="M6.1875 65.1921C8.43744 64.6921 11.3124 64.0671 14.0623 63.6921M14.0623 63.6921C16.8124 63.3171 19.4375 63.1921 21.1875 63.6921C24.1875 65.1921 29.6875 70.192 32.1875 74.192C27.1875 75.192 20.1875 74.692 15.6875 74.692C12.9949 74.692 11.6875 72.3587 11.6875 71.192C11.1875 68.192 12.4374 65.0254 14.0623 63.6921Z" stroke="black" stroke-width="0.5"/>
<path d="M11.6875 70.6921C19.6875 69.1921 23.1875 71.8206 26.1875 73.3206M13.1875 73.6921L30.6875 73.1921" stroke="black" stroke-width="0.5"/>
<path d="M22.1855 82.1919H31.6855C33.6855 82.1919 35.1855 80.1919 34.6855 79.1919M38.1855 79.1919V83.6919" stroke="black" stroke-width="0.5"/>
<path d="M22.1874 80.6921C17.6874 80.6921 13.1874 81.1921 1.68745 78.1921V76.1921L5.68745 74.1921V72.6921L1.68745 72.1921C1.18652 70.6919 0.186719 67.6919 2.18671 65.1919C1.68696 57.1919 2.18696 50.6919 4.18745 47.6916C36.6874 28.192 58.6874 34.1921 84.6874 29.6921C162.687 -25.308 244.687 11.6919 281.687 26.1921L295.187 28.1919L295.687 35.1919V38.1919C297.186 43.1919 298.521 47.6919 297.187 49.6919C299.687 50.6919 302.187 53.8586 302.187 55.6919L300.187 65.6919C300.639 76.5398 298.231 76.7641 288.9 77.0765C287.909 77.1097 285.84 77.1439 284.687 77.1919V78.6919L259.687 79.1229M22.1874 80.6921V83.6921H40.1858L39.6875 79.1921M22.1874 80.6921V79.1921H39.6875M39.6875 79.1921C36.6875 37.6921 90.1874 40.6921 86.6874 79.6921V82.1919H213.187C207.187 38.6919 261.687 38.6919 259.687 79.1229M259.186 79.1229H259.687" stroke="black"/>
</svg>
