<svg width="303" height="95" viewBox="0 0 303 95" fill="none" xmlns="http://www.w3.org/2000/svg">
<circle cx="62.8853" cy="73.6768" r="20.5" fill="#EFC7D3" stroke="black"/>
<circle cx="235.885" cy="73.6768" r="20.5" fill="#EFC7D3" stroke="black"/>
<path d="M132.884 12.1766L131.384 8.67661C171.384 0.676725 192.884 1.17676 231.884 12.6767L228.384 17.1767C208.384 9.17667 190.384 8.17667 174.384 7.67673C171.884 7.17673 167.884 7.1767 165.384 7.67661C155.384 7.67673 143.384 9.17674 132.884 12.1766Z" stroke="black" stroke-width="0.5"/>
<path d="M131.384 8.6768L130.884 7.1768C166.884 -3.82324 199.384 0.176632 234.884 9.1768L231.884 12.6768C191.884 0.176758 165.884 1.67676 131.384 8.6768Z" stroke="black" stroke-width="0.5"/>
<path d="M131.384 8.67675C182.884 -2.82328 211.384 7.17676 231.884 12.6767" stroke="black" stroke-width="0.5"/>
<path d="M226.885 30.1768L223.885 15.6768C219.385 14.1768 207.885 8.67676 174.385 7.67676L170.885 29.6768C181.885 29.1768 199.385 27.6768 226.385 27.6768" stroke="black" stroke-width="0.5"/>
<path d="M165.385 7.67676C132.385 8.67676 112.385 17.6768 93.3853 35.1768L95.8853 33.1768L159.885 30.1768L165.385 7.67676Z" stroke="black" stroke-width="0.5"/>
<path d="M239.884 22.1768C236.217 19.5101 230.384 17.1768 223.884 15.6768L226.384 27.6768H232.884C235.884 26.1768 238.884 23.9455 239.884 22.1768Z" stroke="black" stroke-width="0.5"/>
<path d="M96.8853 78.1768H163.885L198.385 76.6768M96.8853 78.1768C96.8853 79.6768 97.3853 80.6768 98.3853 82.1768M96.8853 78.1768H86.8853V82.1768H98.3853M198.385 76.6768L199.385 82.1768M198.385 76.6768H212.885L213.385 82.1768H199.385M199.385 82.1768H98.3853" stroke="black" stroke-width="0.5"/>
<path d="M96.8844 78.1768C92.3852 73.6768 89.3853 51.6768 93.3844 35.1768L165.385 31.1768C161.385 36.1768 160.385 70.1768 163.885 78.1768H96.8844Z" stroke="black" stroke-width="0.5"/>
<path d="M228.885 30.1768L165.385 31.1768C161.385 36.1768 160.385 70.1768 163.885 78.1768L198.385 76.6768C202.885 75.1768 209.385 69.6768 228.885 30.1768Z" stroke="black" stroke-width="0.5"/>
<path d="M170.885 29.6768C166.385 30.1768 162.885 30.1768 159.885 30.1768L165.385 7.67683C168.385 7.17676 171.385 7.17676 174.385 7.67683L170.885 29.6768Z" stroke="black" stroke-width="0.5"/>
<path d="M99.3853 31.6769C103.885 37.1769 110.885 33.6769 114.885 32.1769C115.885 16.6768 102.885 24.6768 99.3853 31.6769Z" stroke="black" stroke-width="0.5"/>
<path d="M234.884 9.17676L231.884 12.6768C248.884 18.1768 259.384 21.1768 271.884 27.6768H273.384L281.384 26.1768C266.384 19.6768 258.884 17.1768 234.884 9.17676Z" fill="#EFC7D3" stroke="black" stroke-width="0.5"/>
<path d="M271.884 27.6768C261.384 22.1768 242.384 15.6768 231.884 12.6768L229.884 15.1768L244.884 22.6768C243.384 25.1768 239.384 27.1768 233.384 29.8768C245.384 29.1768 262.384 28.1768 271.884 27.6768Z" fill="#EFC7D3" stroke="black" stroke-width="0.5"/>
<path d="M277.385 33.9768L283.384 31.6768L272.884 27.6768L228.884 30.1768C221.384 45.1768 206.384 75.6768 198.384 76.6768H212.884C211.384 65.6768 220.884 42.1768 245.885 51.1768C256.385 45.6768 266.385 40.1768 277.385 33.9768Z" fill="#EFC7D3" stroke="black" stroke-width="0.5"/>
<path d="M278.384 33.6768C266.384 40.1768 256.384 45.6768 245.884 51.1768C250.384 54.1768 260.884 60.1768 259.884 79.1768L284.884 78.6768V77.1768C293.384 76.1768 301.884 79.6768 300.384 65.6768L302.384 55.6768C302.384 54.1768 299.884 50.1768 297.384 49.6768C298.884 47.1768 295.884 38.1768 295.884 38.1768V36.6768L291.884 33.6768L286.884 32.1768L283.384 31.6768L278.384 33.6768Z" fill="#EFC7D3" stroke="black" stroke-width="0.5"/>
<path d="M281.384 26.1768L272.884 27.6768L283.384 31.6768C292.884 32.6768 291.883 34.1768 295.878 36.5969L295.384 28.1768L281.384 26.1768Z" fill="#EFC7D3"/>
<path d="M295.884 36.6768L295.878 36.5969M295.878 36.5969L295.384 28.1768L281.384 26.1768L272.884 27.6768L283.384 31.6768C292.884 32.6768 291.883 34.1768 295.878 36.5969Z" stroke="black" stroke-width="0.5"/>
<path d="M294.385 36.177C293.885 33.6768 282.885 33.4768 277.385 33.9768" stroke="black" stroke-width="0.5"/>
<path d="M300.385 66.1768L260.885 68.1768C260.385 63.1768 258.219 59.0101 256.385 57.1768L302.385 54.6768M300.885 52.1768C289.885 50.6768 278.885 45.8768 266.885 39.8768M228.885 30.1768L272.885 27.6768L281.385 26.1768" stroke="black" stroke-width="0.5"/>
<path d="M290.885 40.1768C290.885 38.1768 289.885 34.1768 286.385 32.1768C288.606 32.1768 291.983 33.2171 294.494 35.5867C294.958 37.1167 293.885 40.6768 290.843 42.1768C290.83 41.5865 290.885 40.901 290.885 40.1768Z" fill="#EFC7D3"/>
<path d="M272.885 42.6768C279.881 43.0265 285.898 43.1316 291.278 43.6768M297.885 44.6768C295.782 44.2261 293.589 43.9109 291.278 43.6768M295.885 37.1768C295.467 36.5916 294.998 36.0624 294.494 35.5867M291.278 43.6768C290.952 43.332 290.858 42.8089 290.843 42.1768M290.843 42.1768C290.83 41.5865 290.885 40.901 290.885 40.1768C290.885 38.1768 289.885 34.1768 286.385 32.1768C288.606 32.1768 291.983 33.2171 294.494 35.5867M290.843 42.1768C293.885 40.6768 294.958 37.1167 294.494 35.5867" stroke="black" stroke-width="0.5"/>
<path d="M290.885 40.1768C286.385 40.1768 284.385 36.1768 283.385 33.6768" stroke="black" stroke-width="0.5"/>
<path d="M132.884 12.2767C119.384 16.2767 107.384 22.1768 93.3838 35.1768C100.384 23.1768 115.884 13.6768 131.384 8.67676L132.884 12.2767Z" fill="#E56E90" stroke="black" stroke-width="0.5"/>
<path d="M131.384 8.67676C111.384 14.3508 93.3838 31.6768 85.3838 29.6768C98.3838 20.1768 114.384 11.6768 130.884 7.17676L131.384 8.67676Z" fill="#E56E90" stroke="black" stroke-width="0.5"/>
<path d="M10.3845 47.6768H4.38446C1.88379 51.6768 1.88379 61.6768 2.38446 65.1768C0.883789 66.1768 0.884387 70.6768 1.88446 72.1768L5.88446 72.6768V74.1768L1.88446 76.1768V78.1768C5.88446 79.1768 14.3845 81.1768 22.3845 80.6768V79.1768H39.8845C39.2178 70.6768 40.8845 60.1768 49.8845 53.1768C47.3845 49.1768 40.3845 44.6768 37.3845 44.1768C27.3845 43.1768 12.3845 45.6768 10.3845 47.6768Z" fill="#E56E90" stroke="black" stroke-width="0.5"/>
<path d="M93.3853 35.1768C75.5519 36.0101 43.8853 40.8768 33.3853 43.8768L37.3853 44.1768C42.3853 45.6768 47.8853 50.0101 49.8853 53.1768C62.8843 43.6768 88.3843 50.6768 86.8843 78.1768H96.8843C89.8843 67.1768 90.8843 45.1768 93.3853 35.1768Z" fill="#E56E90" stroke="black" stroke-width="0.5"/>
<path d="M10.3838 47.6768H4.38379C36.884 28.1767 58.884 34.1768 84.8838 29.6768L93.884 35.1768C76.884 36.1768 47.8838 39.6768 33.8838 43.8768C25.8838 43.6767 11.8838 45.6768 10.3838 47.6768Z" fill="#E56E90" stroke="black" stroke-width="0.5"/>
<path d="M37.3852 44.1768C29.8852 43.1768 12.8852 45.1768 10.3852 47.6768C9.58524 50.0768 12.7186 53.0101 14.3852 54.1768C23.8853 55.6768 37.3852 49.6768 37.3852 44.1768Z" fill="#E56E90" stroke="black" stroke-width="0.5"/>
<path d="M4.38448 47.6768C11.3845 48.6768 5.38448 59.1768 2.38448 64.1768C1.88441 57.1768 2.38428 51.6768 4.38448 47.6768Z" fill="#E56E90" stroke="black" stroke-width="0.5"/>
<path d="M22.3838 83.6768V79.1768H39.8838L40.3838 83.6768H22.3838Z" fill="#E56E90" stroke="black" stroke-width="0.5"/>
<path d="M2.88574 65.1768C4.38574 67.6768 6.38574 70.8434 5.88574 72.6768M22.3857 79.1768C11.8857 79.6768 7.38574 75.6768 8.38574 72.1768C8.88574 71.6768 10.3857 70.1768 11.3857 70.1768" stroke="black" stroke-width="0.5"/>
<path d="M32.3857 74.1768C29.8857 70.1768 24.3857 65.1768 21.3857 63.6768C19.6357 63.1768 17.0106 63.3018 14.2605 63.6768C12.6356 65.0101 11.3857 68.1768 11.8857 71.1768C11.8857 72.3434 13.1932 74.6768 15.8857 74.6768C20.3857 74.6768 27.3857 75.1768 32.3857 74.1768Z" fill="#E56E90"/>
<path d="M6.38574 65.1768C8.63568 64.6768 11.5106 64.0518 14.2605 63.6768M14.2605 63.6768C17.0106 63.3018 19.6357 63.1768 21.3857 63.6768C24.3857 65.1768 29.8857 70.1768 32.3857 74.1768C27.3857 75.1768 20.3857 74.6768 15.8857 74.6768C13.1932 74.6768 11.8857 72.3434 11.8857 71.1768C11.3857 68.1768 12.6356 65.0101 14.2605 63.6768Z" stroke="black" stroke-width="0.5"/>
<path d="M11.8857 70.6768C19.8857 69.1769 23.3857 71.8054 26.3857 73.3054M13.3857 73.6769L30.8857 73.1769" stroke="black" stroke-width="0.5"/>
<path d="M22.3838 82.1768H31.8838C33.8838 82.1768 35.3838 80.1768 34.8838 79.1768M38.3838 79.1768V83.6768" stroke="black" stroke-width="0.5"/>
<path d="M22.3852 80.677C17.8852 80.677 13.3852 81.177 1.8852 78.177V76.177L5.8852 74.177V72.677L1.8852 72.177C1.38428 70.6768 0.384473 67.6768 2.38447 65.1768C1.88471 57.1768 2.38471 50.6768 4.3852 47.6765C36.8852 28.1769 58.8852 34.1769 84.8852 29.6769C162.885 -25.3232 244.885 11.6767 281.885 26.1769L295.385 28.1768L295.885 35.1768V38.1768C297.384 43.1768 298.719 47.6768 297.385 49.6768C299.885 50.6768 302.385 53.8434 302.385 55.6768L300.385 65.6768C300.837 76.5247 298.429 76.7489 289.098 77.0614C288.106 77.0946 286.037 77.1288 284.885 77.1768V78.6768L259.885 79.1078M22.3852 80.677V83.677H40.3835L39.8852 79.177M22.3852 80.677V79.177H39.8852M39.8852 79.177C36.8852 37.677 90.3852 40.677 86.8852 79.677V82.1768H213.385C207.385 38.6768 261.885 38.6768 259.885 79.1078M259.384 79.1078H259.885" stroke="black"/>
</svg>
