<svg width="304" height="96" viewBox="0 0 304 96" fill="none" xmlns="http://www.w3.org/2000/svg">
<circle cx="63.0742" cy="74.5378" r="20.5" fill="#EDADBF" stroke="black"/>
<circle cx="236.074" cy="74.5378" r="20.5" fill="#EDADBF" stroke="black"/>
<path d="M133.072 13.0377L131.572 9.5377C171.572 1.53781 193.072 2.03784 232.072 13.5378L228.572 18.0378C208.572 10.0378 190.572 9.03775 174.572 8.53782C172.072 8.03782 168.072 8.03778 165.572 8.5377C155.572 8.53782 143.572 10.0378 133.072 13.0377Z" fill="#EDADBF" stroke="black" stroke-width="0.5"/>
<path d="M131.572 9.53789L131.072 8.03789C167.072 -2.96216 199.572 1.03772 235.072 10.0379L232.072 13.5379C192.072 1.03784 166.072 2.53784 131.572 9.53789Z" fill="#EDADBF" stroke="black" stroke-width="0.5"/>
<path d="M131.572 9.53771C183.072 -1.96232 211.572 8.03772 232.072 13.5377" stroke="black" stroke-width="0.5"/>
<path d="M171.074 30.5378L174.574 8.53784C208.074 9.53784 219.574 15.0378 224.074 16.5378L226.557 28.5378C199.567 28.5385 182.072 30.0379 171.074 30.5378Z" fill="#EDADBF"/>
<path d="M227.074 31.0378L224.074 16.5378C219.574 15.0378 208.074 9.53784 174.574 8.53784L171.074 30.5378C182.074 30.0378 199.574 28.5378 226.574 28.5378" stroke="black" stroke-width="0.5"/>
<path d="M165.574 8.53784C132.574 9.53784 112.574 18.5378 93.5742 36.0378L96.0742 34.0378L160.074 31.0378L165.574 8.53784Z" fill="#EDADBF" stroke="black" stroke-width="0.5"/>
<path d="M240.072 23.0378C236.406 20.3712 230.572 18.0378 224.072 16.5378L226.572 28.5378H233.072C236.072 27.0378 239.072 24.8066 240.072 23.0378Z" fill="#EDADBF" stroke="black" stroke-width="0.5"/>
<path d="M97.0742 79.0378H164.074L198.574 77.5378H213.074L213.574 83.0378H199.574H98.5742H87.0742V79.0378H97.0742Z" fill="#EDADBF"/>
<path d="M97.0742 79.0378H164.074L198.574 77.5378M97.0742 79.0378C97.0742 80.5378 97.5742 81.5378 98.5742 83.0378M97.0742 79.0378H87.0742V83.0378H98.5742M198.574 77.5378L199.574 83.0378M198.574 77.5378H213.074L213.574 83.0378H199.574M199.574 83.0378H98.5742" stroke="black" stroke-width="0.5"/>
<path d="M97.0733 79.0378C92.5742 74.5378 89.5743 52.5378 93.5733 36.0378L165.574 32.0378C161.574 37.0378 160.574 71.0378 164.074 79.0378H97.0733Z" fill="#EDADBF" stroke="black" stroke-width="0.5"/>
<path d="M229.074 31.0378L165.574 32.0378C161.574 37.0378 160.574 71.0378 164.074 79.0378L198.574 77.5378C203.074 76.0378 209.574 70.5378 229.074 31.0378Z" fill="#EDADBF" stroke="black" stroke-width="0.5"/>
<path d="M171.074 30.5379C166.574 31.0379 163.074 31.0379 160.074 31.0379L165.574 8.53792C168.574 8.03784 171.574 8.03784 174.574 8.53792L171.074 30.5379Z" fill="#EDADBF" stroke="black" stroke-width="0.5"/>
<path d="M99.5742 32.5379C104.074 38.0379 111.074 34.5379 115.074 33.0379C116.074 17.5377 103.074 25.5377 99.5742 32.5379Z" fill="#EDADBF" stroke="black" stroke-width="0.5"/>
<path d="M235.072 10.0378L232.072 13.5378C249.072 19.0378 259.572 22.0378 272.072 28.5378H273.572L281.572 27.0378C266.572 20.5378 259.072 18.0378 235.072 10.0378Z" fill="#EDADBF" stroke="black" stroke-width="0.5"/>
<path d="M272.072 28.5378C261.572 23.0378 242.572 16.5378 232.072 13.5378L230.072 16.0378L245.072 23.5378C243.572 26.0378 239.572 28.0378 233.572 30.7378C245.572 30.0378 262.572 29.0378 272.072 28.5378Z" fill="#EDADBF" stroke="black" stroke-width="0.5"/>
<path d="M277.574 34.8378L283.573 32.5378L273.073 28.5378L229.073 31.0378C221.573 46.0378 206.573 76.5378 198.573 77.5378H213.073C211.573 66.5378 221.073 43.0378 246.074 52.0378C256.574 46.5378 266.574 41.0378 277.574 34.8378Z" fill="#EDADBF" stroke="black" stroke-width="0.5"/>
<path d="M278.572 34.5379C266.572 41.0379 256.572 46.5379 246.072 52.0379C250.572 55.0378 261.072 61.0378 260.072 80.0378L285.072 79.5378V78.0378C293.572 77.0378 302.072 80.5378 300.572 66.5378L302.572 56.5378C302.572 55.0378 300.072 51.0378 297.572 50.5378C299.072 48.0378 296.072 39.0378 296.072 39.0378V37.5378L292.072 34.5378L287.072 33.0378L283.572 32.5378L278.572 34.5379Z" fill="#EDADBF" stroke="black" stroke-width="0.5"/>
<path d="M281.572 27.0378L273.072 28.5378L283.572 32.5378C293.072 33.5378 292.071 35.0378 296.066 37.458L295.572 29.0378L281.572 27.0378Z" fill="#EDADBF"/>
<path d="M296.072 37.5378L296.066 37.458M296.066 37.458L295.572 29.0378L281.572 27.0378L273.072 28.5378L283.572 32.5378C293.072 33.5378 292.071 35.0378 296.066 37.458Z" stroke="black" stroke-width="0.5"/>
<path d="M294.574 37.038C294.074 34.5379 283.074 34.3379 277.574 34.8379" stroke="black" stroke-width="0.5"/>
<path d="M300.574 67.0378L261.074 69.0378C260.574 64.0378 258.408 59.8712 256.574 58.0378L302.574 55.5378M301.074 53.0378C290.074 51.5378 279.074 46.7378 267.074 40.7378M229.074 31.0378L273.074 28.5378L281.574 27.0378" stroke="black" stroke-width="0.5"/>
<path d="M291.074 41.0378C291.074 39.0378 290.074 35.0378 286.574 33.0378C288.795 33.0378 292.172 34.0782 294.683 36.4478C295.147 37.9778 294.074 41.5378 291.032 43.0378C291.019 42.4476 291.074 41.7621 291.074 41.0378Z" fill="#EDADBF"/>
<path d="M273.074 43.5378C280.07 43.8876 286.087 43.9927 291.467 44.5378M298.074 45.5378C295.971 45.0872 293.778 44.7719 291.467 44.5378M296.074 38.0378C295.656 37.4527 295.187 36.9235 294.683 36.4478M291.467 44.5378C291.141 44.1931 291.047 43.67 291.032 43.0378M291.032 43.0378C291.019 42.4476 291.074 41.7621 291.074 41.0378C291.074 39.0378 290.074 35.0378 286.574 33.0378C288.795 33.0378 292.172 34.0782 294.683 36.4478M291.032 43.0378C294.074 41.5378 295.147 37.9778 294.683 36.4478" stroke="black" stroke-width="0.5"/>
<path d="M291.074 41.0378C286.574 41.0378 284.574 37.0378 283.574 34.5378" stroke="black" stroke-width="0.5"/>
<path d="M133.072 13.1378C119.572 17.1378 107.572 23.0378 93.5723 36.0378C100.572 24.0378 116.072 14.5378 131.572 9.53784L133.072 13.1378Z" fill="#E0426F" stroke="black" stroke-width="0.5"/>
<path d="M131.572 9.53784C111.572 15.2119 93.5723 32.5378 85.5723 30.5378C98.5723 21.0378 114.572 12.5378 131.072 8.03784L131.572 9.53784Z" fill="#E0426F" stroke="black" stroke-width="0.5"/>
<path d="M10.5729 48.5377H4.57293C2.07227 52.5377 2.07227 62.5377 2.57293 66.0377C1.07227 67.0377 1.07286 71.5377 2.07293 73.0377L6.07293 73.5377V75.0377L2.07293 77.0377V79.0377C6.07293 80.0377 14.5729 82.0377 22.5729 81.5377V80.0377H40.0729C39.4063 71.5377 41.0729 61.0377 50.0729 54.0377C47.5729 50.0377 40.5729 45.5377 37.5729 45.0377C27.5729 44.0377 12.5729 46.5377 10.5729 48.5377Z" fill="#E0426F" stroke="black" stroke-width="0.5"/>
<path d="M93.5742 36.0378C75.7409 36.8712 44.0742 41.7378 33.5742 44.7378L37.5742 45.0378C42.5742 46.5378 48.0742 50.8712 50.0742 54.0378C63.0732 44.5378 88.5732 51.5378 87.0732 79.0378H97.0732C90.0732 68.0378 91.0732 46.0378 93.5742 36.0378Z" fill="#E0426F" stroke="black" stroke-width="0.5"/>
<path d="M10.5723 48.5379H4.57227C37.0724 29.0378 59.0725 35.0378 85.0723 30.5378L94.0725 36.0378C77.0725 37.0378 48.0723 40.5378 34.0723 44.7378C26.0723 44.5378 12.0723 46.5378 10.5723 48.5379Z" fill="#E0426F" stroke="black" stroke-width="0.5"/>
<path d="M37.5737 45.0379C30.0737 44.0378 13.0737 46.0378 10.5737 48.5379C9.77372 50.9379 12.9071 53.8712 14.5737 55.0378C24.0737 56.5378 37.5737 50.5378 37.5737 45.0379Z" fill="#E0426F" stroke="black" stroke-width="0.5"/>
<path d="M4.57296 48.5378C11.573 49.5378 5.57296 60.0378 2.57296 65.0378C2.07289 58.0378 2.57275 52.5378 4.57296 48.5378Z" fill="#E0426F" stroke="black" stroke-width="0.5"/>
<path d="M22.5723 84.5378V80.0378H40.0723L40.5723 84.5378H22.5723Z" fill="#E0426F" stroke="black" stroke-width="0.5"/>
<path d="M3.07422 66.0376C4.57422 68.5376 6.57422 71.7043 6.07422 73.5376M22.5742 80.0376C12.0742 80.5376 7.57422 76.5376 8.57422 73.0376C9.07422 72.5376 10.5742 71.0376 11.5742 71.0376" stroke="black" stroke-width="0.5"/>
<path d="M32.5742 75.0377C30.0742 71.0377 24.5742 66.0378 21.5742 64.5378C19.8242 64.0378 17.1991 64.1628 14.449 64.5378C12.8241 65.8711 11.5742 69.0377 12.0742 72.0377C12.0742 73.2044 13.3816 75.5377 16.0742 75.5377C20.5742 75.5377 27.5742 76.0377 32.5742 75.0377Z" fill="#E0426F"/>
<path d="M6.57422 66.0378C8.82416 65.5378 11.6991 64.9128 14.449 64.5378M14.449 64.5378C17.1991 64.1628 19.8242 64.0378 21.5742 64.5378C24.5742 66.0378 30.0742 71.0377 32.5742 75.0377C27.5742 76.0377 20.5742 75.5377 16.0742 75.5377C13.3816 75.5377 12.0742 73.2044 12.0742 72.0377C11.5742 69.0377 12.8241 65.8711 14.449 64.5378Z" stroke="black" stroke-width="0.5"/>
<path d="M12.0742 71.5378C20.0742 70.0378 23.5742 72.6663 26.5742 74.1663M13.5742 74.5378L31.0742 74.0378" stroke="black" stroke-width="0.5"/>
<path d="M22.5723 83.0376H32.0723C34.0723 83.0376 35.5723 81.0376 35.0723 80.0376M38.5723 80.0376V84.5376" stroke="black" stroke-width="0.5"/>
<path d="M22.5742 81.5381C18.0742 81.5381 13.5742 82.0381 2.07416 79.0381V77.0381L6.07417 75.0381V73.5381L2.07416 73.0381C1.57324 71.5378 0.573438 68.5378 2.57343 66.0378C2.07368 58.0378 2.57368 51.5378 4.57417 48.5376C37.0742 29.038 59.0742 35.038 85.0742 30.538C163.074 -24.4621 245.074 12.5378 282.074 27.038L295.574 29.0378L296.074 36.0378V39.0378C297.573 44.0378 298.908 48.5378 297.574 50.5378C300.074 51.5378 302.574 54.7045 302.574 56.5378L300.574 66.5378C301.026 77.3858 298.618 77.61 289.286 77.9225C288.295 77.9557 286.226 77.9898 285.074 78.0378V79.5378L260.074 79.9689M22.5742 81.5381V84.5381H40.5725L40.0742 80.0381M22.5742 81.5381V80.0381H40.0742M40.0742 80.0381C37.0742 38.5381 90.5742 41.5381 87.0742 80.5381V83.0378H213.574C207.574 39.5378 262.074 39.5378 260.074 79.9689M259.573 79.9689H260.074" stroke="black"/>
</svg>
