<svg width="303" height="95" viewBox="0 0 303 95" fill="none" xmlns="http://www.w3.org/2000/svg">
<circle cx="62.249" cy="73.8611" r="20.5" fill="#E56E90" stroke="black"/>
<circle cx="235.249" cy="73.8611" r="20.5" fill="#E56E90" stroke="black"/>
<path d="M132.247 12.3609L130.747 8.86094C170.747 0.861052 192.247 1.36108 231.247 12.861L227.747 17.361C207.747 9.36099 189.747 8.36099 173.747 7.86106C171.247 7.36106 167.247 7.36102 164.747 7.86094C154.747 7.86106 142.747 9.36106 132.247 12.3609Z" fill="#EDADBF" stroke="black" stroke-width="0.5"/>
<path d="M130.747 8.86113L130.247 7.36113C166.247 -3.63892 198.747 0.360958 234.247 9.36113L231.247 12.8611C191.247 0.361084 165.247 1.86108 130.747 8.86113Z" fill="#EDADBF" stroke="black" stroke-width="0.5"/>
<path d="M130.747 8.86095C182.247 -2.63908 210.747 7.36096 231.247 12.8609" stroke="black" stroke-width="0.5"/>
<path d="M170.249 29.8611L173.749 7.86108C207.249 8.86108 218.749 14.3611 223.249 15.8611L225.732 27.8611C198.742 27.8617 181.247 29.3612 170.249 29.8611Z" fill="#EDADBF"/>
<path d="M226.249 30.3611L223.249 15.8611C218.749 14.3611 207.249 8.86108 173.749 7.86108L170.249 29.8611C181.249 29.3611 198.749 27.8611 225.749 27.8611" stroke="black" stroke-width="0.5"/>
<path d="M164.749 7.86108C131.749 8.86108 111.749 17.8611 92.749 35.3611L95.249 33.3611L159.249 30.3611L164.749 7.86108Z" fill="#EDADBF" stroke="black" stroke-width="0.5"/>
<path d="M239.247 22.3611C235.58 19.6944 229.747 17.3611 223.247 15.8611L225.747 27.8611H232.247C235.247 26.3611 238.247 24.1298 239.247 22.3611Z" fill="#EDADBF" stroke="black" stroke-width="0.5"/>
<path d="M96.249 78.3611H163.249L197.749 76.8611H212.249L212.749 82.3611H198.749H97.749H86.249V78.3611H96.249Z" fill="#EDADBF"/>
<path d="M96.249 78.3611H163.249L197.749 76.8611M96.249 78.3611C96.249 79.8611 96.749 80.8611 97.749 82.3611M96.249 78.3611H86.249V82.3611H97.749M197.749 76.8611L198.749 82.3611M197.749 76.8611H212.249L212.749 82.3611H198.749M198.749 82.3611H97.749" stroke="black" stroke-width="0.5"/>
<path d="M96.2482 78.3611C91.749 73.8611 88.7491 51.8611 92.7482 35.3611L164.749 31.3611C160.749 36.3611 159.749 70.3611 163.249 78.3611H96.2482Z" fill="#EDADBF" stroke="black" stroke-width="0.5"/>
<path d="M228.249 30.3611L164.749 31.3611C160.749 36.3611 159.749 70.3611 163.249 78.3611L197.749 76.8611C202.249 75.3611 208.749 69.8611 228.249 30.3611Z" fill="#EDADBF" stroke="black" stroke-width="0.5"/>
<path d="M170.249 29.8612C165.749 30.3612 162.249 30.3612 159.249 30.3612L164.749 7.86116C167.749 7.36108 170.749 7.36108 173.749 7.86116L170.249 29.8612Z" fill="#EDADBF" stroke="black" stroke-width="0.5"/>
<path d="M98.749 31.8611C103.249 37.3611 110.249 33.8611 114.249 32.3611C115.249 16.861 102.249 24.861 98.749 31.8611Z" fill="#EDADBF" stroke="black" stroke-width="0.5"/>
<path d="M234.247 9.36108L231.247 12.8611C248.247 18.3611 258.747 21.3611 271.247 27.8611H272.747L280.747 26.3611C265.747 19.8611 258.247 17.3611 234.247 9.36108Z" fill="#E0426F" stroke="black" stroke-width="0.5"/>
<path d="M271.247 27.8611C260.747 22.3611 241.747 15.8611 231.247 12.8611L229.247 15.3611L244.247 22.8611C242.747 25.3611 238.747 27.3611 232.747 30.0611C244.747 29.3611 261.747 28.3611 271.247 27.8611Z" fill="#E0426F" stroke="black" stroke-width="0.5"/>
<path d="M276.749 34.1611L282.747 31.8611L272.248 27.8611L228.248 30.3611C220.748 45.3611 205.748 75.8611 197.748 76.8611H212.248C210.748 65.8611 220.248 42.3611 245.249 51.3611C255.749 45.8611 265.749 40.3611 276.749 34.1611Z" fill="#E0426F" stroke="black" stroke-width="0.5"/>
<path d="M277.747 33.8611C265.747 40.3611 255.747 45.8611 245.247 51.3611C249.747 54.3611 260.247 60.3611 259.247 79.3611L284.247 78.8611V77.3611C292.747 76.3611 301.247 79.8611 299.747 65.8611L301.747 55.8611C301.747 54.3611 299.247 50.3611 296.747 49.8611C298.247 47.3611 295.247 38.3611 295.247 38.3611V36.8611L291.247 33.8611L286.247 32.3611L282.747 31.8611L277.747 33.8611Z" fill="#E0426F" stroke="black" stroke-width="0.5"/>
<path d="M280.747 26.3611L272.247 27.8611L282.747 31.8611C292.247 32.8611 291.246 34.3611 295.241 36.7813L294.747 28.3611L280.747 26.3611Z" fill="#E0426F"/>
<path d="M295.247 36.8611L295.241 36.7813M295.241 36.7813L294.747 28.3611L280.747 26.3611L272.247 27.8611L282.747 31.8611C292.247 32.8611 291.246 34.3611 295.241 36.7813Z" stroke="black" stroke-width="0.5"/>
<path d="M293.749 36.3613C293.249 33.8612 282.249 33.6611 276.749 34.1611" stroke="black" stroke-width="0.5"/>
<path d="M299.749 66.3611L260.249 68.3611C259.749 63.3611 257.582 59.1944 255.749 57.3611L301.749 54.8611M300.249 52.3611C289.249 50.8611 278.249 46.0611 266.249 40.0611M228.249 30.3611L272.249 27.8611L280.749 26.3611" stroke="black" stroke-width="0.5"/>
<path d="M290.249 40.3611C290.249 38.3611 289.249 34.3611 285.749 32.3611C287.97 32.3611 291.347 33.4015 293.858 35.7711C294.322 37.3011 293.249 40.8611 290.207 42.3611C290.194 41.7708 290.249 41.0854 290.249 40.3611Z" fill="#E0426F"/>
<path d="M272.249 42.8611C279.245 43.2109 285.262 43.316 290.642 43.8611M297.249 44.8611C295.146 44.4104 292.953 44.0952 290.642 43.8611M295.249 37.3611C294.831 36.776 294.362 36.2467 293.858 35.7711M290.642 43.8611C290.316 43.5163 290.222 42.9933 290.207 42.3611M290.207 42.3611C290.194 41.7708 290.249 41.0854 290.249 40.3611C290.249 38.3611 289.249 34.3611 285.749 32.3611C287.97 32.3611 291.347 33.4015 293.858 35.7711M290.207 42.3611C293.249 40.8611 294.322 37.3011 293.858 35.7711" stroke="black" stroke-width="0.5"/>
<path d="M290.249 40.3611C285.749 40.3611 283.749 36.3611 282.749 33.8611" stroke="black" stroke-width="0.5"/>
<path d="M132.247 12.4611C118.747 16.4611 106.747 22.3611 92.7471 35.3611C99.7471 23.3611 115.247 13.8611 130.747 8.86108L132.247 12.4611Z" stroke="black" stroke-width="0.5"/>
<path d="M130.747 8.86108C110.747 14.5351 92.7471 31.8611 84.7471 29.8611C97.7471 20.3611 113.747 11.8611 130.247 7.36108L130.747 8.86108Z" stroke="black" stroke-width="0.5"/>
<path d="M9.74774 47.861H3.74774C1.24707 51.861 1.24707 61.861 1.74774 65.361C0.24707 66.361 0.247668 70.861 1.24774 72.361L5.24774 72.861V74.361L1.24774 76.361V78.361C5.24774 79.361 13.7477 81.361 21.7477 80.861V79.361H39.2477C38.5811 70.861 40.2477 60.361 49.2477 53.361C46.7477 49.361 39.7477 44.861 36.7477 44.361C26.7477 43.361 11.7477 45.861 9.74774 47.861Z" stroke="black" stroke-width="0.5"/>
<path d="M92.749 35.3611C74.9157 36.1944 43.249 41.0611 32.749 44.0611L36.749 44.3611C41.749 45.8611 47.249 50.1944 49.249 53.3611C62.248 43.8611 87.748 50.8611 86.248 78.3611H96.248C89.248 67.3611 90.248 45.3611 92.749 35.3611Z" stroke="black" stroke-width="0.5"/>
<path d="M9.74707 47.8611H3.74707C36.2473 28.361 58.2473 34.3611 84.2471 29.8611L93.2473 35.3611C76.2473 36.3611 47.2471 39.8611 33.2471 44.0611C25.2471 43.8611 11.2471 45.8611 9.74707 47.8611Z" stroke="black" stroke-width="0.5"/>
<path d="M36.7485 44.3612C29.2485 43.3611 12.2485 45.3611 9.74852 47.8612C8.94852 50.2611 12.0819 53.1944 13.7485 54.3611C23.2485 55.8611 36.7485 49.8611 36.7485 44.3612Z" stroke="black" stroke-width="0.5"/>
<path d="M3.74777 47.8611C10.7478 48.8611 4.74777 59.3611 1.74777 64.3611C1.2477 57.3611 1.74756 51.8611 3.74777 47.8611Z" stroke="black" stroke-width="0.5"/>
<path d="M21.7471 83.8611V79.3611H39.2471L39.7471 83.8611H21.7471Z" stroke="black" stroke-width="0.5"/>
<path d="M2.24902 65.3608C3.74902 67.8608 5.74902 71.0275 5.24902 72.8608M21.749 79.3608C11.249 79.8608 6.74902 75.8608 7.74902 72.3608C8.24902 71.8608 9.74902 70.3608 10.749 70.3608" stroke="black" stroke-width="0.5"/>
<path d="M5.74902 65.361C7.99897 64.861 10.8739 64.236 13.6238 63.861M13.6238 63.861C16.3739 63.486 18.999 63.361 20.749 63.861C23.749 65.361 29.249 70.361 31.749 74.361C26.749 75.361 19.749 74.861 15.249 74.861C12.5564 74.861 11.249 72.5276 11.249 71.361C10.749 68.361 11.9989 65.1943 13.6238 63.861Z" stroke="black" stroke-width="0.5"/>
<path d="M11.249 70.861C19.249 69.3611 22.749 71.9896 25.749 73.4896M12.749 73.8611L30.249 73.3611" stroke="black" stroke-width="0.5"/>
<path d="M21.7471 82.3608H31.2471C33.2471 82.3608 34.7471 80.3608 34.2471 79.3608M37.7471 79.3608V83.8608" stroke="black" stroke-width="0.5"/>
<path d="M21.749 80.8613C17.249 80.8613 12.749 81.3613 1.24897 78.3613V76.3613L5.24897 74.3613V72.8613L1.24897 72.3613C0.748047 70.8611 -0.251757 67.8611 1.74824 65.3611C1.24848 57.3611 1.74848 50.8611 3.74897 47.8608C36.249 28.3612 58.249 34.3613 84.249 29.8613C162.249 -25.1388 244.249 11.8611 281.249 26.3613L294.749 28.3611L295.249 35.3611V38.3611C296.747 43.3611 298.082 47.8611 296.749 49.8611C299.249 50.8611 301.749 54.0278 301.749 55.8611L299.749 65.8611C300.201 76.709 297.793 76.9333 288.461 77.2457C287.47 77.2789 285.401 77.3131 284.249 77.3611V78.8611L259.249 79.2921M21.749 80.8613V83.8613H39.7473L39.249 79.3613M21.749 80.8613V79.3613H39.249M39.249 79.3613C36.249 37.8613 89.749 40.8613 86.249 79.8613V82.3611H212.749C206.749 38.8611 261.249 38.8611 259.249 79.2921M258.747 79.2921H259.249" stroke="black"/>
</svg>
