<svg width="303" height="96" viewBox="0 0 303 96" fill="none" xmlns="http://www.w3.org/2000/svg">
<circle cx="62.8545" cy="74.5227" r="20.5" fill="#EFC7D3" stroke="black"/>
<circle cx="235.854" cy="74.5227" r="20.5" fill="#EFC7D3" stroke="black"/>
<path d="M132.853 13.0226L131.353 9.52256C171.353 1.52267 192.853 2.02271 231.853 13.5227L228.353 18.0226C208.353 10.0226 190.353 9.02261 174.353 8.52268C171.853 8.02268 167.853 8.02264 165.353 8.52256C155.353 8.52268 143.353 10.0227 132.853 13.0226Z" fill="#EFC7D3" stroke="black" stroke-width="0.5"/>
<path d="M131.353 9.52275L130.853 8.02275C166.853 -2.97729 199.353 1.02258 234.853 10.0228L231.853 13.5228C191.853 1.02271 165.853 2.52271 131.353 9.52275Z" fill="#EFC7D3" stroke="black" stroke-width="0.5"/>
<path d="M131.353 9.52269C182.853 -1.97733 211.353 8.02271 231.853 13.5227" stroke="black" stroke-width="0.5"/>
<path d="M170.854 30.5227L174.354 8.52271C207.854 9.52271 219.354 15.0227 223.854 16.5227L226.337 28.5227C199.347 28.5233 181.852 30.0228 170.854 30.5227Z" fill="#EFC7D3"/>
<path d="M226.854 31.0227L223.854 16.5227C219.354 15.0227 207.854 9.52271 174.354 8.52271L170.854 30.5227C181.854 30.0227 199.354 28.5227 226.354 28.5227" stroke="black" stroke-width="0.5"/>
<path d="M165.354 8.52271C132.354 9.52271 112.354 18.5227 93.3545 36.0227L95.8545 34.0227L159.854 31.0227L165.354 8.52271Z" fill="#EFC7D3" stroke="black" stroke-width="0.5"/>
<path d="M239.853 23.0227C236.186 20.356 230.353 18.0227 223.853 16.5227L226.353 28.5227H232.853C235.853 27.0227 238.853 24.7914 239.853 23.0227Z" fill="#EFC7D3" stroke="black" stroke-width="0.5"/>
<path d="M96.8545 79.0227H163.854L198.354 77.5227H212.854L213.354 83.0227H199.354H98.3545H86.8545V79.0227H96.8545Z" fill="#EFC7D3"/>
<path d="M96.8545 79.0227H163.854L198.354 77.5227M96.8545 79.0227C96.8545 80.5227 97.3545 81.5227 98.3545 83.0227M96.8545 79.0227H86.8545V83.0227H98.3545M198.354 77.5227L199.354 83.0227M198.354 77.5227H212.854L213.354 83.0227H199.354M199.354 83.0227H98.3545" stroke="black" stroke-width="0.5"/>
<path d="M96.8536 79.0227C92.3545 74.5227 89.3545 52.5227 93.3536 36.0227L165.354 32.0227C161.354 37.0227 160.354 71.0227 163.854 79.0227H96.8536Z" fill="#EFC7D3" stroke="black" stroke-width="0.5"/>
<path d="M228.854 31.0227L165.354 32.0227C161.355 37.0227 160.355 71.0227 163.854 79.0227L198.354 77.5227C202.854 76.0227 209.354 70.5227 228.854 31.0227Z" fill="#EFC7D3" stroke="black" stroke-width="0.5"/>
<path d="M170.854 30.5228C166.354 31.0228 162.854 31.0228 159.854 31.0228L165.354 8.52278C168.354 8.02271 171.354 8.02271 174.354 8.52278L170.854 30.5228Z" fill="#EFC7D3" stroke="black" stroke-width="0.5"/>
<path d="M99.3545 32.5228C103.854 38.0228 110.854 34.5228 114.854 33.0228C115.854 17.5227 102.854 25.5227 99.3545 32.5228Z" fill="#EFC7D3" stroke="black" stroke-width="0.5"/>
<path d="M234.853 10.0227L231.853 13.5227C248.853 19.0227 259.353 22.0227 271.853 28.5227H273.353L281.353 27.0227C266.353 20.5227 258.853 18.0227 234.853 10.0227Z" fill="#E0426F" stroke="black" stroke-width="0.5"/>
<path d="M271.853 28.5227C261.353 23.0227 242.353 16.5227 231.853 13.5227L229.853 16.0227L244.853 23.5227C243.353 26.0227 239.353 28.0227 233.353 30.7227C245.353 30.0227 262.353 29.0227 271.853 28.5227Z" fill="#E0426F" stroke="black" stroke-width="0.5"/>
<path d="M277.354 34.8227L283.353 32.5227L272.854 28.5227L228.854 31.0227C221.354 46.0227 206.354 76.5227 198.354 77.5227H212.854C211.354 66.5227 220.854 43.0227 245.854 52.0227C256.354 46.5227 266.354 41.0227 277.354 34.8227Z" fill="#E0426F" stroke="black" stroke-width="0.5"/>
<path d="M278.353 34.5227C266.353 41.0227 256.353 46.5227 245.853 52.0227C250.353 55.0227 260.853 61.0227 259.853 80.0227L284.853 79.5227V78.0227C293.353 77.0227 301.853 80.5227 300.353 66.5227L302.353 56.5227C302.353 55.0227 299.853 51.0227 297.353 50.5227C298.853 48.0227 295.853 39.0227 295.853 39.0227V37.5227L291.853 34.5227L286.853 33.0227L283.353 32.5227L278.353 34.5227Z" fill="#E0426F" stroke="black" stroke-width="0.5"/>
<path d="M281.353 27.0227L272.853 28.5227L283.353 32.5227C292.853 33.5227 291.851 35.0227 295.847 37.4429L295.353 29.0227L281.353 27.0227Z" fill="#E0426F"/>
<path d="M295.853 37.5227L295.847 37.4429M295.847 37.4429L295.353 29.0227L281.353 27.0227L272.853 28.5227L283.353 32.5227C292.853 33.5227 291.851 35.0227 295.847 37.4429Z" stroke="black" stroke-width="0.5"/>
<path d="M294.354 37.0229C293.854 34.5228 282.854 34.3227 277.354 34.8227" stroke="black" stroke-width="0.5"/>
<path d="M300.354 67.0227L260.854 69.0227C260.354 64.0227 258.188 59.856 256.354 58.0227L302.354 55.5227M300.854 53.0227C289.854 51.5227 278.854 46.7227 266.854 40.7227M228.854 31.0227L272.854 28.5227L281.354 27.0227" stroke="black" stroke-width="0.5"/>
<path d="M290.854 41.0227C290.854 39.0227 289.854 35.0227 286.354 33.0227C288.575 33.0227 291.952 34.0631 294.463 36.4327C294.927 37.9627 293.854 41.5227 290.813 43.0227C290.799 42.4324 290.854 41.747 290.854 41.0227Z" fill="#E0426F"/>
<path d="M272.854 43.5227C279.85 43.8725 285.867 43.9776 291.248 44.5227M297.854 45.5227C295.751 45.0721 293.558 44.7568 291.248 44.5227M295.854 38.0227C295.437 37.4376 294.967 36.9084 294.463 36.4327M291.248 44.5227C290.921 44.1779 290.827 43.6549 290.813 43.0227M290.813 43.0227C290.799 42.4324 290.854 41.747 290.854 41.0227C290.854 39.0227 289.854 35.0227 286.354 33.0227C288.575 33.0227 291.952 34.0631 294.463 36.4327M290.813 43.0227C293.854 41.5227 294.927 37.9627 294.463 36.4327" stroke="black" stroke-width="0.5"/>
<path d="M290.854 41.0227C286.354 41.0227 284.354 37.0227 283.354 34.5227" stroke="black" stroke-width="0.5"/>
<path d="M132.853 13.1227C119.353 17.1227 107.353 23.0227 93.3525 36.0227C100.353 24.0227 115.853 14.5227 131.353 9.52271L132.853 13.1227Z" fill="#E56E90" stroke="black" stroke-width="0.5"/>
<path d="M131.353 9.52271C111.353 15.1967 93.3525 32.5227 85.3525 30.5227C98.3525 21.0227 114.353 12.5227 130.853 8.02271L131.353 9.52271Z" fill="#E56E90" stroke="black" stroke-width="0.5"/>
<path d="M10.3532 48.5227H4.35321C1.85254 52.5227 1.85254 62.5227 2.35321 66.0227C0.852539 67.0227 0.853137 71.5227 1.85321 73.0227L5.85321 73.5227V75.0227L1.85321 77.0227V79.0227C5.85321 80.0227 14.3532 82.0227 22.3532 81.5227V80.0227H39.8532C39.1865 71.5227 40.8532 61.0227 49.8532 54.0227C47.3532 50.0227 40.3532 45.5227 37.3532 45.0227C27.3532 44.0227 12.3532 46.5227 10.3532 48.5227Z" fill="#E56E90" stroke="black" stroke-width="0.5"/>
<path d="M93.3545 36.0227C75.5212 36.856 43.8545 41.7227 33.3545 44.7227L37.3545 45.0227C42.3545 46.5227 47.8545 50.856 49.8545 54.0227C62.8535 44.5227 88.3535 51.5227 86.8535 79.0227H96.8535C89.8535 68.0227 90.8535 46.0227 93.3545 36.0227Z" fill="#E56E90" stroke="black" stroke-width="0.5"/>
<path d="M10.3525 48.5228H4.35254C36.8527 29.0227 58.8528 35.0227 84.8525 30.5227L93.8528 36.0227C76.8528 37.0227 47.8525 40.5227 33.8525 44.7227C25.8525 44.5227 11.8525 46.5227 10.3525 48.5228Z" fill="#E56E90" stroke="black" stroke-width="0.5"/>
<path d="M37.354 45.0228C29.854 44.0227 12.854 46.0227 10.354 48.5228C9.55399 50.9227 12.6873 53.856 14.354 55.0227C23.854 56.5227 37.354 50.5227 37.354 45.0228Z" fill="#E56E90" stroke="black" stroke-width="0.5"/>
<path d="M4.35323 48.5227C11.3532 49.5227 5.35323 60.0227 2.35323 65.0227C1.85316 58.0227 2.35303 52.5227 4.35323 48.5227Z" fill="#E56E90" stroke="black" stroke-width="0.5"/>
<path d="M22.3525 84.5227V80.0227H39.8525L40.3525 84.5227H22.3525Z" fill="#E56E90" stroke="black" stroke-width="0.5"/>
<path d="M2.85449 66.0225C4.35449 68.5225 6.35449 71.6891 5.85449 73.5225M22.3545 80.0225C11.8545 80.5225 7.35449 76.5225 8.35449 73.0225C8.85449 72.5225 10.3545 71.0225 11.3545 71.0225" stroke="black" stroke-width="0.5"/>
<path d="M32.3545 75.0226C29.8545 71.0226 24.3545 66.0227 21.3545 64.5227C19.6044 64.0227 16.9794 64.1477 14.2293 64.5227C12.6044 65.856 11.3545 69.0226 11.8545 72.0226C11.8545 73.1892 13.1619 75.5226 15.8545 75.5226C20.3545 75.5226 27.3545 76.0226 32.3545 75.0226Z" fill="#E56E90"/>
<path d="M6.35449 66.0227C8.60443 65.5226 11.4793 64.8977 14.2293 64.5227M14.2293 64.5227C16.9794 64.1477 19.6044 64.0227 21.3545 64.5227C24.3545 66.0227 29.8545 71.0226 32.3545 75.0226C27.3545 76.0226 20.3545 75.5226 15.8545 75.5226C13.1619 75.5226 11.8545 73.1892 11.8545 72.0226C11.3545 69.0226 12.6043 65.856 14.2293 64.5227Z" stroke="black" stroke-width="0.5"/>
<path d="M11.8545 71.5227C19.8545 70.0227 23.3545 72.6512 26.3545 74.1512M13.3545 74.5227L30.8545 74.0227" stroke="black" stroke-width="0.5"/>
<path d="M22.3525 83.0225H31.8525C33.8525 83.0225 35.3525 81.0225 34.8525 80.0225M38.3525 80.0225V84.5225" stroke="black" stroke-width="0.5"/>
<path d="M22.3544 81.5229C17.8544 81.5229 13.3544 82.0229 1.85444 79.0229V77.0229L5.85444 75.0229V73.5229L1.85444 73.023C1.35352 71.5227 0.353711 68.5227 2.35371 66.0227C1.85395 58.0227 2.35395 51.5227 4.35444 48.5224C36.8544 29.0228 58.8544 35.0229 84.8544 30.5229C162.854 -24.4772 244.854 12.5227 281.854 27.0229L295.354 29.0227L295.854 36.0227V39.0227C297.353 44.0227 298.688 48.5227 297.354 50.5227C299.854 51.5227 302.354 54.6894 302.354 56.5227L300.354 66.5227C300.806 77.3706 298.398 77.5949 289.067 77.9073C288.076 77.9405 286.007 77.9747 284.854 78.0227V79.5227L259.854 79.9537M22.3544 81.5229V84.5229H40.3528L39.8544 80.0229M22.3544 81.5229V80.0229H39.8544M39.8544 80.0229C36.8544 38.5229 90.3544 41.5229 86.8544 80.5229V83.0227H213.354C207.354 39.5227 261.854 39.5227 259.854 79.9537M259.353 79.9537H259.854" stroke="black"/>
</svg>
