<svg width="304" height="96" viewBox="0 0 304 96" fill="none" xmlns="http://www.w3.org/2000/svg">
<circle cx="63.0742" cy="74.1995" r="20.5" fill="#EDADBF" stroke="black"/>
<circle cx="236.074" cy="74.1995" r="20.5" fill="#EDADBF" stroke="black"/>
<path d="M133.072 12.6993L131.572 9.19932C171.572 1.19943 193.072 1.69946 232.072 13.1994L228.572 17.6994C208.572 9.69937 190.572 8.69937 174.572 8.19944C172.072 7.69944 168.072 7.6994 165.572 8.19932C155.572 8.19944 143.572 9.69944 133.072 12.6993Z" fill="#EDADBF" stroke="black" stroke-width="0.5"/>
<path d="M131.572 9.19951L131.072 7.69951C167.072 -3.30054 199.572 0.699337 235.072 9.69951L232.072 13.1995C192.072 0.699463 166.072 2.19946 131.572 9.19951Z" fill="#EDADBF" stroke="black" stroke-width="0.5"/>
<path d="M131.572 9.19933C183.072 -2.3007 211.572 7.69934 232.072 13.1993" stroke="black" stroke-width="0.5"/>
<path d="M171.074 30.1995L174.574 8.19946C208.074 9.19946 219.574 14.6995 224.074 16.1995L226.557 28.1995C199.567 28.2001 182.072 29.6996 171.074 30.1995Z" fill="#EDADBF"/>
<path d="M227.074 30.6995L224.074 16.1995C219.574 14.6995 208.074 9.19946 174.574 8.19946L171.074 30.1995C182.074 29.6995 199.574 28.1995 226.574 28.1995" stroke="black" stroke-width="0.5"/>
<path d="M165.574 8.19946C132.574 9.19946 112.574 18.1995 93.5742 35.6995L96.0742 33.6995L160.074 30.6995L165.574 8.19946Z" fill="#EDADBF" stroke="black" stroke-width="0.5"/>
<path d="M240.072 22.6995C236.406 20.0328 230.572 17.6995 224.072 16.1995L226.572 28.1995H233.072C236.072 26.6995 239.072 24.4682 240.072 22.6995Z" fill="#EDADBF" stroke="black" stroke-width="0.5"/>
<path d="M97.0742 78.6995H164.074L198.574 77.1995H213.074L213.574 82.6995H199.574H98.5742H87.0742V78.6995H97.0742Z" fill="#EDADBF"/>
<path d="M97.0742 78.6995H164.074L198.574 77.1995M97.0742 78.6995C97.0742 80.1995 97.5742 81.1995 98.5742 82.6995M97.0742 78.6995H87.0742V82.6995H98.5742M198.574 77.1995L199.574 82.6995M198.574 77.1995H213.074L213.574 82.6995H199.574M199.574 82.6995H98.5742" stroke="black" stroke-width="0.5"/>
<path d="M97.0733 78.6995C92.5742 74.1995 89.5743 52.1995 93.5733 35.6995L165.574 31.6995C161.574 36.6995 160.574 70.6995 164.074 78.6995H97.0733Z" fill="#EDADBF" stroke="black" stroke-width="0.5"/>
<path d="M229.074 30.6995L165.574 31.6995C161.574 36.6995 160.574 70.6995 164.074 78.6995L198.574 77.1995C203.074 75.6995 209.574 70.1995 229.074 30.6995Z" fill="#EDADBF" stroke="black" stroke-width="0.5"/>
<path d="M171.074 30.1995C166.574 30.6995 163.074 30.6995 160.074 30.6995L165.574 8.19954C168.574 7.69946 171.574 7.69946 174.574 8.19954L171.074 30.1995Z" fill="#EDADBF" stroke="black" stroke-width="0.5"/>
<path d="M99.5742 32.1995C104.074 37.6995 111.074 34.1995 115.074 32.6995C116.074 17.1994 103.074 25.1993 99.5742 32.1995Z" fill="#EDADBF" stroke="black" stroke-width="0.5"/>
<path d="M235.072 9.69946L232.072 13.1995C249.072 18.6995 259.572 21.6995 272.072 28.1995H273.572L281.572 26.6995C266.572 20.1995 259.072 17.6995 235.072 9.69946Z" fill="#EDADBF" stroke="black" stroke-width="0.5"/>
<path d="M272.072 28.1995C261.572 22.6995 242.572 16.1995 232.072 13.1995L230.072 15.6995L245.072 23.1995C243.572 25.6995 239.572 27.6995 233.572 30.3995C245.572 29.6995 262.572 28.6995 272.072 28.1995Z" fill="#EDADBF" stroke="black" stroke-width="0.5"/>
<path d="M277.574 34.4995L283.573 32.1995L273.073 28.1995L229.073 30.6995C221.573 45.6995 206.573 76.1995 198.573 77.1995H213.073C211.573 66.1995 221.073 42.6995 246.074 51.6995C256.574 46.1995 266.574 40.6995 277.574 34.4995Z" fill="#EDADBF" stroke="black" stroke-width="0.5"/>
<path d="M278.572 34.1995C266.572 40.6995 256.572 46.1995 246.072 51.6995C250.572 54.6995 261.072 60.6995 260.072 79.6995L285.072 79.1995V77.6995C293.572 76.6995 302.072 80.1995 300.572 66.1995L302.572 56.1995C302.572 54.6995 300.072 50.6995 297.572 50.1995C299.072 47.6995 296.072 38.6995 296.072 38.6995V37.1995L292.072 34.1995L287.072 32.6995L283.572 32.1995L278.572 34.1995Z" fill="#EDADBF" stroke="black" stroke-width="0.5"/>
<path d="M281.572 26.6995L273.072 28.1995L283.572 32.1995C293.072 33.1995 292.071 34.6995 296.066 37.1196L295.572 28.6995L281.572 26.6995Z" fill="#EDADBF"/>
<path d="M296.072 37.1995L296.066 37.1196M296.066 37.1196L295.572 28.6995L281.572 26.6995L273.072 28.1995L283.572 32.1995C293.072 33.1995 292.071 34.6995 296.066 37.1196Z" stroke="black" stroke-width="0.5"/>
<path d="M294.574 36.6997C294.074 34.1996 283.074 33.9995 277.574 34.4995" stroke="black" stroke-width="0.5"/>
<path d="M300.574 66.6995L261.074 68.6995C260.574 63.6995 258.408 59.5328 256.574 57.6995L302.574 55.1995M301.074 52.6995C290.074 51.1995 279.074 46.3995 267.074 40.3995M229.074 30.6995L273.074 28.1995L281.574 26.6995" stroke="black" stroke-width="0.5"/>
<path d="M291.074 40.6995C291.074 38.6995 290.074 34.6995 286.574 32.6995C288.795 32.6995 292.172 33.7399 294.683 36.1094C295.147 37.6395 294.074 41.1995 291.032 42.6995C291.019 42.1092 291.074 41.4238 291.074 40.6995Z" fill="#EDADBF"/>
<path d="M273.074 43.1995C280.07 43.5492 286.087 43.6543 291.467 44.1995M298.074 45.1995C295.971 44.7488 293.778 44.4336 291.467 44.1995M296.074 37.6995C295.656 37.1143 295.187 36.5851 294.683 36.1094M291.467 44.1995C291.141 43.8547 291.047 43.3317 291.032 42.6995M291.032 42.6995C291.019 42.1092 291.074 41.4238 291.074 40.6995C291.074 38.6995 290.074 34.6995 286.574 32.6995C288.795 32.6995 292.172 33.7399 294.683 36.1094M291.032 42.6995C294.074 41.1995 295.147 37.6395 294.683 36.1094" stroke="black" stroke-width="0.5"/>
<path d="M291.074 40.6995C286.574 40.6995 284.574 36.6995 283.574 34.1995" stroke="black" stroke-width="0.5"/>
<path d="M133.072 12.7994C119.572 16.7994 107.572 22.6995 93.5723 35.6995C100.572 23.6995 116.072 14.1995 131.572 9.19946L133.072 12.7994Z" fill="#EDADBF" stroke="black" stroke-width="0.5"/>
<path d="M131.572 9.19946C111.572 14.8735 93.5723 32.1995 85.5723 30.1995C98.5723 20.6995 114.572 12.1995 131.072 7.69946L131.572 9.19946Z" fill="#EDADBF" stroke="black" stroke-width="0.5"/>
<path d="M10.5729 48.1993H4.57293C2.07227 52.1993 2.07227 62.1993 2.57293 65.6993C1.07227 66.6993 1.07286 71.1993 2.07293 72.6993L6.07293 73.1993V74.6993L2.07293 76.6993V78.6993C6.07293 79.6993 14.5729 81.6993 22.5729 81.1993V79.6993H40.0729C39.4063 71.1993 41.0729 60.6993 50.0729 53.6993C47.5729 49.6993 40.5729 45.1993 37.5729 44.6993C27.5729 43.6993 12.5729 46.1993 10.5729 48.1993Z" fill="#EDADBF" stroke="black" stroke-width="0.5"/>
<path d="M93.5742 35.6995C75.7409 36.5328 44.0742 41.3995 33.5742 44.3995L37.5742 44.6995C42.5742 46.1995 48.0742 50.5328 50.0742 53.6995C63.0732 44.1995 88.5732 51.1995 87.0732 78.6995H97.0732C90.0732 67.6995 91.0732 45.6995 93.5742 35.6995Z" fill="#EDADBF" stroke="black" stroke-width="0.5"/>
<path d="M10.5723 48.1995H4.57227C37.0724 28.6994 59.0725 34.6995 85.0723 30.1995L94.0725 35.6995C77.0725 36.6995 48.0723 40.1995 34.0723 44.3995C26.0723 44.1995 12.0723 46.1995 10.5723 48.1995Z" fill="#EDADBF" stroke="black" stroke-width="0.5"/>
<path d="M37.5737 44.6995C30.0737 43.6995 13.0737 45.6995 10.5737 48.1995C9.77372 50.5995 12.9071 53.5328 14.5737 54.6995C24.0737 56.1995 37.5737 50.1995 37.5737 44.6995Z" fill="#EDADBF" stroke="black" stroke-width="0.5"/>
<path d="M4.57296 48.1995C11.573 49.1995 5.57296 59.6995 2.57296 64.6995C2.07289 57.6995 2.57275 52.1995 4.57296 48.1995Z" fill="#EDADBF" stroke="black" stroke-width="0.5"/>
<path d="M22.5723 84.1995V79.6995H40.0723L40.5723 84.1995H22.5723Z" fill="#EDADBF" stroke="black" stroke-width="0.5"/>
<path d="M3.07422 65.6992C4.57422 68.1992 6.57422 71.3659 6.07422 73.1992M22.5742 79.6992C12.0742 80.1992 7.57422 76.1992 8.57422 72.6992C9.07422 72.1992 10.5742 70.6992 11.5742 70.6992" stroke="black" stroke-width="0.5"/>
<path d="M32.5742 74.6993C30.0742 70.6993 24.5742 65.6994 21.5742 64.1994C19.8242 63.6994 17.1991 63.8244 14.449 64.1994C12.8241 65.5327 11.5742 68.6993 12.0742 71.6993C12.0742 72.866 13.3816 75.1993 16.0742 75.1993C20.5742 75.1993 27.5742 75.6993 32.5742 74.6993Z" fill="#EDADBF"/>
<path d="M6.57422 65.6994C8.82416 65.1994 11.6991 64.5744 14.449 64.1994M14.449 64.1994C17.1991 63.8244 19.8242 63.6994 21.5742 64.1994C24.5742 65.6994 30.0742 70.6993 32.5742 74.6993C27.5742 75.6993 20.5742 75.1993 16.0742 75.1993C13.3816 75.1993 12.0742 72.866 12.0742 71.6993C11.5742 68.6993 12.8241 65.5327 14.449 64.1994Z" stroke="black" stroke-width="0.5"/>
<path d="M12.0742 71.1994C20.0742 69.6995 23.5742 72.3279 26.5742 73.8279M13.5742 74.1995L31.0742 73.6995" stroke="black" stroke-width="0.5"/>
<path d="M22.5723 82.6992H32.0723C34.0723 82.6992 35.5723 80.6992 35.0723 79.6992M38.5723 79.6992V84.1992" stroke="black" stroke-width="0.5"/>
<path d="M22.5742 81.1997C18.0742 81.1997 13.5742 81.6997 2.07416 78.6997V76.6997L6.07417 74.6997V73.1997L2.07416 72.6997C1.57324 71.1995 0.573438 68.1995 2.57343 65.6995C2.07368 57.6995 2.57368 51.1995 4.57417 48.1992C37.0742 28.6996 59.0742 34.6997 85.0742 30.1997C163.074 -24.8005 245.074 12.1994 282.074 26.6996L295.574 28.6995L296.074 35.6995V38.6995C297.573 43.6995 298.908 48.1995 297.574 50.1995C300.074 51.1995 302.574 54.3661 302.574 56.1995L300.574 66.1995C301.026 77.0474 298.618 77.2717 289.286 77.5841C288.295 77.6173 286.226 77.6515 285.074 77.6995V79.1995L260.074 79.6305M22.5742 81.1997V84.1997H40.5725L40.0742 79.6997M22.5742 81.1997V79.6997H40.0742M40.0742 79.6997C37.0742 38.1997 90.5742 41.1997 87.0742 80.1997V82.6995H213.574C207.574 39.1995 262.074 39.1995 260.074 79.6305M259.573 79.6305H260.074" stroke="black"/>
</svg>
