<svg width="303" height="96" viewBox="0 0 303 96" fill="none" xmlns="http://www.w3.org/2000/svg">
<circle cx="62.2915" cy="74.553" r="20.5" fill="#E56E90" stroke="black"/>
<circle cx="235.292" cy="74.553" r="20.5" fill="#E56E90" stroke="black"/>
<path d="M132.29 13.0528L130.79 9.55283C170.79 1.55295 192.29 2.05298 231.29 13.5529L227.79 18.0529C207.79 10.0529 189.79 9.05289 173.79 8.55296C171.29 8.05296 167.29 8.05292 164.79 8.55283C154.79 8.55296 142.79 10.053 132.29 13.0528Z" fill="#E0426F" stroke="black" stroke-width="0.5"/>
<path d="M130.79 9.55302L130.29 8.05302C166.29 -2.94702 198.79 1.05285 234.29 10.053L231.29 13.553C191.29 1.05298 165.29 2.55298 130.79 9.55302Z" fill="#E0426F" stroke="black" stroke-width="0.5"/>
<path d="M130.79 9.55284C182.29 -1.94718 210.79 8.05286 231.29 13.5528" stroke="black" stroke-width="0.5"/>
<path d="M170.292 30.553L173.792 8.55298C207.292 9.55298 218.792 15.053 223.292 16.553L225.774 28.553C198.784 28.5536 181.289 30.0531 170.292 30.553Z" fill="#E0426F"/>
<path d="M226.292 31.053L223.292 16.553C218.792 15.053 207.292 9.55298 173.792 8.55298L170.292 30.553C181.292 30.053 198.792 28.553 225.792 28.553" stroke="black" stroke-width="0.5"/>
<path d="M164.792 8.55298C131.792 9.55298 111.792 18.553 92.7915 36.053L95.2915 34.053L159.292 31.053L164.792 8.55298Z" fill="#E0426F" stroke="black" stroke-width="0.5"/>
<path d="M239.29 23.053C235.623 20.3863 229.79 18.053 223.29 16.553L225.79 28.553H232.29C235.29 27.053 238.29 24.8217 239.29 23.053Z" fill="#E0426F" stroke="black" stroke-width="0.5"/>
<path d="M96.2915 79.053H163.292L197.792 77.553H212.292L212.792 83.053H198.792H97.7915H86.2915V79.053H96.2915Z" fill="#E0426F"/>
<path d="M96.2915 79.053H163.292L197.792 77.553M96.2915 79.053C96.2915 80.553 96.7915 81.553 97.7915 83.053M96.2915 79.053H86.2915V83.053H97.7915M197.792 77.553L198.792 83.053M197.792 77.553H212.292L212.792 83.053H198.792M198.792 83.053H97.7915" stroke="black" stroke-width="0.5"/>
<path d="M96.2906 79.053C91.7915 74.553 88.7915 52.553 92.7906 36.053L164.792 32.053C160.792 37.053 159.792 71.053 163.291 79.053H96.2906Z" fill="#E0426F" stroke="black" stroke-width="0.5"/>
<path d="M228.291 31.053L164.791 32.053C160.791 37.053 159.791 71.053 163.291 79.053L197.791 77.553C202.291 76.053 208.791 70.553 228.291 31.053Z" fill="#E0426F" stroke="black" stroke-width="0.5"/>
<path d="M170.292 30.5531C165.792 31.0531 162.292 31.0531 159.292 31.0531L164.792 8.55305C167.792 8.05298 170.792 8.05298 173.792 8.55305L170.292 30.5531Z" fill="#E0426F" stroke="black" stroke-width="0.5"/>
<path d="M98.7915 32.553C103.292 38.053 110.292 34.553 114.292 33.053C115.292 17.5529 102.292 25.5529 98.7915 32.553Z" fill="#E0426F" stroke="black" stroke-width="0.5"/>
<path d="M234.29 10.053L231.29 13.553C248.29 19.053 258.79 22.053 271.29 28.553H272.79L280.79 27.053C265.79 20.553 258.29 18.053 234.29 10.053Z" stroke="black" stroke-width="0.5"/>
<path d="M271.29 28.553C260.79 23.053 241.79 16.553 231.29 13.553L229.29 16.053L244.29 23.553C242.79 26.053 238.79 28.053 232.79 30.753C244.79 30.053 261.79 29.053 271.29 28.553Z" stroke="black" stroke-width="0.5"/>
<path d="M276.792 34.853L282.79 32.553L272.291 28.553L228.291 31.053C220.791 46.053 205.791 76.553 197.791 77.553H212.291C210.791 66.553 220.291 43.053 245.292 52.053C255.792 46.553 265.792 41.053 276.792 34.853Z" stroke="black" stroke-width="0.5"/>
<path d="M277.79 34.553C265.79 41.053 255.79 46.553 245.29 52.053C249.79 55.053 260.29 61.053 259.29 80.053L284.29 79.553V78.053C292.79 77.053 301.29 80.553 299.79 66.553L301.79 56.553C301.79 55.053 299.29 51.053 296.79 50.553C298.29 48.053 295.29 39.053 295.29 39.053V37.553L291.29 34.553L286.29 33.053L282.79 32.553L277.79 34.553Z" stroke="black" stroke-width="0.5"/>
<path d="M295.29 37.553L295.284 37.4732M295.284 37.4732L294.79 29.053L280.79 27.053L272.29 28.553L282.79 32.553C292.29 33.553 291.289 35.053 295.284 37.4732Z" stroke="black" stroke-width="0.5"/>
<path d="M293.792 37.0532C293.292 34.5531 282.292 34.353 276.792 34.853" stroke="black" stroke-width="0.5"/>
<path d="M299.792 67.053L260.292 69.053C259.792 64.053 257.625 59.8863 255.792 58.053L301.792 55.553M300.292 53.053C289.292 51.553 278.292 46.753 266.292 40.753M228.292 31.053L272.292 28.553L280.792 27.053" stroke="black" stroke-width="0.5"/>
<path d="M272.292 43.553C279.287 43.9028 285.304 44.0079 290.685 44.553M297.292 45.553C295.189 45.1023 292.995 44.7871 290.685 44.553M295.292 38.053C294.874 37.4679 294.404 36.9386 293.9 36.463M290.685 44.553C290.358 44.2082 290.264 43.6852 290.25 43.053M290.25 43.053C290.236 42.4627 290.292 41.7773 290.292 41.053C290.292 39.053 289.292 35.053 285.792 33.053C288.012 33.053 291.389 34.0934 293.9 36.463M290.25 43.053C293.292 41.553 294.364 37.993 293.9 36.463" stroke="black" stroke-width="0.5"/>
<path d="M290.292 41.053C285.792 41.053 283.792 37.053 282.792 34.553" stroke="black" stroke-width="0.5"/>
<path d="M132.29 13.153C118.79 17.153 106.79 23.053 92.79 36.053C99.79 24.053 115.29 14.553 130.79 9.55298L132.29 13.153Z" stroke="black" stroke-width="0.5"/>
<path d="M130.79 9.55298C110.79 15.227 92.79 32.553 84.79 30.553C97.79 21.053 113.79 12.553 130.29 8.05298L130.79 9.55298Z" stroke="black" stroke-width="0.5"/>
<path d="M9.79071 48.5529H3.79071C1.29004 52.5529 1.29004 62.5529 1.79071 66.0529C0.290039 67.0529 0.290637 71.5529 1.29071 73.0529L5.29071 73.5529V75.0529L1.29071 77.0529V79.0529C5.29071 80.0529 13.7907 82.0529 21.7907 81.5529V80.0529H39.2907C38.624 71.5529 40.2907 61.0529 49.2907 54.0529C46.7907 50.0529 39.7907 45.5529 36.7907 45.0529C26.7907 44.0529 11.7907 46.5529 9.79071 48.5529Z" stroke="black" stroke-width="0.5"/>
<path d="M92.7915 36.053C74.9582 36.8863 43.2915 41.753 32.7915 44.753L36.7915 45.053C41.7915 46.553 47.2915 50.8863 49.2915 54.053C62.2905 44.553 87.7905 51.553 86.2905 79.053H96.2905C89.2905 68.053 90.2905 46.053 92.7915 36.053Z" stroke="black" stroke-width="0.5"/>
<path d="M9.79004 48.553H3.79004C36.2902 29.0529 58.2903 35.053 84.29 30.553L93.2903 36.053C76.2903 37.053 47.29 40.553 33.29 44.753C25.29 44.553 11.29 46.553 9.79004 48.553Z" stroke="black" stroke-width="0.5"/>
<path d="M36.7915 45.0531C29.2915 44.053 12.2915 46.053 9.79149 48.5531C8.99149 50.953 12.1248 53.8863 13.7915 55.053C23.2915 56.553 36.7915 50.553 36.7915 45.0531Z" stroke="black" stroke-width="0.5"/>
<path d="M3.79073 48.553C10.7907 49.553 4.79073 60.053 1.79073 65.053C1.29066 58.053 1.79053 52.553 3.79073 48.553Z" stroke="black" stroke-width="0.5"/>
<path d="M21.79 84.553V80.053H39.29L39.79 84.553H21.79Z" stroke="black" stroke-width="0.5"/>
<path d="M2.29199 66.0527C3.79199 68.5527 5.79199 71.7194 5.29199 73.5527M21.792 80.0527C11.292 80.5527 6.79199 76.5527 7.79199 73.0527C8.29199 72.5527 9.79199 71.0527 10.792 71.0527" stroke="black" stroke-width="0.5"/>
<path d="M5.79199 66.0529C8.04193 65.5529 10.9168 64.9279 13.6668 64.5529M13.6668 64.5529C16.4169 64.1779 19.0419 64.0529 20.792 64.5529C23.792 66.0529 29.292 71.0529 31.792 75.0529C26.792 76.0529 19.792 75.5529 15.292 75.5529C12.5994 75.5529 11.292 73.2195 11.292 72.0529C10.792 69.0529 12.0418 65.8862 13.6668 64.5529Z" stroke="black" stroke-width="0.5"/>
<path d="M11.292 71.5529C19.292 70.053 22.792 72.6815 25.792 74.1815M12.792 74.553L30.292 74.053" stroke="black" stroke-width="0.5"/>
<path d="M21.79 83.0527H31.29C33.29 83.0527 34.79 81.0527 34.29 80.0527M37.79 80.0527V84.5527" stroke="black" stroke-width="0.5"/>
<path d="M21.7915 81.5532C17.2915 81.5532 12.7915 82.0532 1.29145 79.0532V77.0532L5.29145 75.0532V73.5532L1.29145 73.0532C0.790527 71.553 -0.209277 68.553 1.79072 66.053C1.29096 58.053 1.79096 51.553 3.79145 48.5527C36.2915 29.0531 58.2914 35.0532 84.2914 30.5532C162.291 -24.4469 244.291 12.553 281.291 27.0532L294.791 29.053L295.291 36.053V39.053C296.79 44.053 298.125 48.553 296.791 50.553C299.291 51.553 301.791 54.7196 301.791 56.553L299.791 66.553C300.243 77.4009 297.835 77.6252 288.504 77.9376C287.513 77.9708 285.444 78.005 284.291 78.053V79.553L259.291 79.984M21.7915 81.5532V84.5532H39.7898L39.2915 80.0532M21.7915 81.5532V80.0532H39.2915M39.2915 80.0532C36.2915 38.5532 89.7914 41.5532 86.2914 80.5532V83.053H212.791C206.791 39.553 261.291 39.553 259.291 79.984M258.79 79.984H259.291" stroke="black"/>
</svg>
