<svg width="304" height="96" viewBox="0 0 304 96" fill="none" xmlns="http://www.w3.org/2000/svg">
<circle cx="63.0938" cy="74.553" r="20.5" fill="#EDADBF" stroke="black"/>
<circle cx="236.094" cy="74.553" r="20.5" fill="#EDADBF" stroke="black"/>
<path d="M133.092 13.0528L131.592 9.55283C171.592 1.55295 193.092 2.05298 232.092 13.5529L228.592 18.0529C208.592 10.0529 190.592 9.05289 174.592 8.55296C172.092 8.05296 168.092 8.05292 165.592 8.55283C155.592 8.55296 143.592 10.053 133.092 13.0528Z" fill="#E0426F" stroke="black" stroke-width="0.5"/>
<path d="M131.592 9.55302L131.092 8.05302C167.092 -2.94702 199.592 1.05285 235.092 10.053L232.092 13.553C192.092 1.05298 166.092 2.55298 131.592 9.55302Z" fill="#E0426F" stroke="black" stroke-width="0.5"/>
<path d="M131.592 9.55284C183.092 -1.94718 211.592 8.05286 232.092 13.5528" stroke="black" stroke-width="0.5"/>
<path d="M171.094 30.553L174.594 8.55298C208.094 9.55298 219.594 15.053 224.094 16.553L226.577 28.553C199.586 28.5536 182.091 30.0531 171.094 30.553Z" fill="#E0426F"/>
<path d="M227.094 31.053L224.094 16.553C219.594 15.053 208.094 9.55298 174.594 8.55298L171.094 30.553C182.094 30.053 199.594 28.553 226.594 28.553" stroke="black" stroke-width="0.5"/>
<path d="M165.594 8.55298C132.594 9.55298 112.594 18.553 93.5938 36.053L96.0938 34.053L160.094 31.053L165.594 8.55298Z" fill="#E0426F" stroke="black" stroke-width="0.5"/>
<path d="M240.092 23.053C236.425 20.3863 230.592 18.053 224.092 16.553L226.592 28.553H233.092C236.092 27.053 239.092 24.8217 240.092 23.053Z" fill="#E0426F" stroke="black" stroke-width="0.5"/>
<path d="M97.0938 79.053H164.094L198.594 77.553H213.094L213.594 83.053H199.594H98.5938H87.0938V79.053H97.0938Z" fill="#E0426F"/>
<path d="M97.0938 79.053H164.094L198.594 77.553M97.0938 79.053C97.0938 80.553 97.5938 81.553 98.5938 83.053M97.0938 79.053H87.0938V83.053H98.5938M198.594 77.553L199.594 83.053M198.594 77.553H213.094L213.594 83.053H199.594M199.594 83.053H98.5938" stroke="black" stroke-width="0.5"/>
<path d="M97.0929 79.053C92.5937 74.553 89.5938 52.553 93.5929 36.053L165.594 32.053C161.594 37.053 160.594 71.053 164.094 79.053H97.0929Z" fill="#E0426F" stroke="black" stroke-width="0.5"/>
<path d="M229.094 31.053L165.594 32.053C161.594 37.053 160.594 71.053 164.094 79.053L198.594 77.553C203.094 76.053 209.594 70.553 229.094 31.053Z" fill="#E0426F" stroke="black" stroke-width="0.5"/>
<path d="M171.094 30.5531C166.594 31.0531 163.094 31.0531 160.094 31.0531L165.594 8.55305C168.594 8.05298 171.594 8.05298 174.594 8.55305L171.094 30.5531Z" fill="#E0426F" stroke="black" stroke-width="0.5"/>
<path d="M99.5938 32.553C104.094 38.053 111.094 34.553 115.094 33.053C116.094 17.5529 103.094 25.5529 99.5938 32.553Z" fill="#E0426F" stroke="black" stroke-width="0.5"/>
<path d="M235.092 10.053L232.092 13.553C249.092 19.053 259.592 22.053 272.092 28.553H273.592L281.592 27.053C266.592 20.553 259.092 18.053 235.092 10.053Z" stroke="black" stroke-width="0.5"/>
<path d="M272.092 28.553C261.592 23.053 242.592 16.553 232.092 13.553L230.092 16.053L245.092 23.553C243.592 26.053 239.592 28.053 233.592 30.753C245.592 30.053 262.592 29.053 272.092 28.553Z" stroke="black" stroke-width="0.5"/>
<path d="M277.594 34.853L283.592 32.553L273.093 28.553L229.093 31.053C221.593 46.053 206.593 76.553 198.593 77.553H213.093C211.593 66.553 221.093 43.053 246.094 52.053C256.594 46.553 266.594 41.053 277.594 34.853Z" stroke="black" stroke-width="0.5"/>
<path d="M278.592 34.553C266.592 41.053 256.592 46.553 246.092 52.053C250.592 55.053 261.092 61.053 260.092 80.053L285.092 79.553V78.053C293.592 77.053 302.092 80.553 300.592 66.553L302.592 56.553C302.592 55.053 300.092 51.053 297.592 50.553C299.092 48.053 296.092 39.053 296.092 39.053V37.553L292.092 34.553L287.092 33.053L283.592 32.553L278.592 34.553Z" stroke="black" stroke-width="0.5"/>
<path d="M296.092 37.553L296.086 37.4732M296.086 37.4732L295.592 29.053L281.592 27.053L273.092 28.553L283.592 32.553C293.092 33.553 292.091 35.053 296.086 37.4732Z" stroke="black" stroke-width="0.5"/>
<path d="M294.594 37.0532C294.094 34.5531 283.094 34.353 277.594 34.853" stroke="black" stroke-width="0.5"/>
<path d="M300.594 67.053L261.094 69.053C260.594 64.053 258.427 59.8863 256.594 58.053L302.594 55.553M301.094 53.053C290.094 51.553 279.094 46.753 267.094 40.753M229.094 31.053L273.094 28.553L281.594 27.053" stroke="black" stroke-width="0.5"/>
<path d="M273.094 43.553C280.089 43.9028 286.106 44.0079 291.487 44.553M298.094 45.553C295.991 45.1023 293.798 44.7871 291.487 44.553M296.094 38.053C295.676 37.4679 295.207 36.9386 294.703 36.463M291.487 44.553C291.161 44.2082 291.067 43.6852 291.052 43.053M291.052 43.053C291.038 42.4627 291.094 41.7773 291.094 41.053C291.094 39.053 290.094 35.053 286.594 33.053C288.815 33.053 292.191 34.0934 294.703 36.463M291.052 43.053C294.094 41.553 295.166 37.993 294.703 36.463" stroke="black" stroke-width="0.5"/>
<path d="M291.094 41.053C286.594 41.053 284.594 37.053 283.594 34.553" stroke="black" stroke-width="0.5"/>
<path d="M133.092 13.153C119.592 17.153 107.592 23.053 93.5923 36.053C100.592 24.053 116.092 14.553 131.592 9.55298L133.092 13.153Z" stroke="black" stroke-width="0.5"/>
<path d="M131.592 9.55298C111.592 15.227 93.5923 32.553 85.5923 30.553C98.5923 21.053 114.592 12.553 131.092 8.05298L131.592 9.55298Z" stroke="black" stroke-width="0.5"/>
<path d="M10.593 48.5529H4.59295C2.09229 52.5529 2.09229 62.5529 2.59295 66.0529C1.09229 67.0529 1.09288 71.5529 2.09295 73.0529L6.09295 73.5529V75.0529L2.09295 77.0529V79.0529C6.09295 80.0529 14.593 82.0529 22.593 81.5529V80.0529H40.0929C39.4263 71.5529 41.0929 61.0529 50.0929 54.0529C47.5929 50.0529 40.5929 45.5529 37.5929 45.0529C27.5929 44.0529 12.593 46.5529 10.593 48.5529Z" stroke="black" stroke-width="0.5"/>
<path d="M93.5938 36.053C75.7604 36.8863 44.0938 41.753 33.5938 44.753L37.5938 45.053C42.5938 46.553 48.0938 50.8863 50.0938 54.053C63.0928 44.553 88.5928 51.553 87.0928 79.053H97.0928C90.0928 68.053 91.0928 46.053 93.5938 36.053Z" stroke="black" stroke-width="0.5"/>
<path d="M10.5918 48.553H4.5918C37.092 29.0529 59.092 35.053 85.0918 30.553L94.092 36.053C77.092 37.053 48.0918 40.553 34.0918 44.753C26.0918 44.553 12.0918 46.553 10.5918 48.553Z" stroke="black" stroke-width="0.5"/>
<path d="M37.5937 45.0531C30.0937 44.053 13.0937 46.053 10.5937 48.5531C9.79374 50.953 12.9271 53.8863 14.5937 55.053C24.0938 56.553 37.5937 50.553 37.5937 45.0531Z" stroke="black" stroke-width="0.5"/>
<path d="M4.59298 48.553C11.593 49.553 5.59298 60.053 2.59298 65.053C2.09291 58.053 2.59277 52.553 4.59298 48.553Z" stroke="black" stroke-width="0.5"/>
<path d="M22.5923 84.553V80.053H40.0923L40.5923 84.553H22.5923Z" stroke="black" stroke-width="0.5"/>
<path d="M3.09375 66.0527C4.59375 68.5527 6.59375 71.7194 6.09375 73.5527M22.5938 80.0527C12.0938 80.5527 7.59375 76.5527 8.59375 73.0527C9.09375 72.5527 10.5938 71.0527 11.5938 71.0527" stroke="black" stroke-width="0.5"/>
<path d="M6.59375 66.0529C8.84369 65.5529 11.7186 64.9279 14.4685 64.5529M14.4685 64.5529C17.2186 64.1779 19.8437 64.0529 21.5938 64.5529C24.5938 66.0529 30.0938 71.0529 32.5938 75.0529C27.5938 76.0529 20.5938 75.5529 16.0938 75.5529C13.4012 75.5529 12.0938 73.2195 12.0938 72.0529C11.5938 69.0529 12.8436 65.8862 14.4685 64.5529Z" stroke="black" stroke-width="0.5"/>
<path d="M12.0938 71.5529C20.0938 70.053 23.5938 72.6815 26.5938 74.1815M13.5938 74.553L31.0938 74.053" stroke="black" stroke-width="0.5"/>
<path d="M22.5918 83.0527H32.0918C34.0918 83.0527 35.5918 81.0527 35.0918 80.0527M38.5918 80.0527V84.5527" stroke="black" stroke-width="0.5"/>
<path d="M22.5937 81.5532C18.0937 81.5532 13.5937 82.0532 2.0937 79.0532V77.0532L6.0937 75.0532V73.5532L2.0937 73.0532C1.59277 71.553 0.592969 68.553 2.59296 66.053C2.09321 58.053 2.59321 51.553 4.5937 48.5527C37.0937 29.0531 59.0937 35.0532 85.0937 30.5532C163.094 -24.4469 245.094 12.553 282.094 27.0532L295.594 29.053L296.094 36.053V39.053C297.592 44.053 298.927 48.553 297.594 50.553C300.094 51.553 302.594 54.7196 302.594 56.553L300.594 66.553C301.046 77.4009 298.638 77.6252 289.306 77.9376C288.315 77.9708 286.246 78.005 285.094 78.053V79.553L260.094 79.984M22.5937 81.5532V84.5532H40.592L40.0937 80.0532M22.5937 81.5532V80.0532H40.0937M40.0937 80.0532C37.0937 38.5532 90.5937 41.5532 87.0937 80.5532V83.053H213.594C207.594 39.553 262.094 39.553 260.094 79.984M259.592 79.984H260.094" stroke="black"/>
</svg>
