<svg width="303" height="96" viewBox="0 0 303 96" fill="none" xmlns="http://www.w3.org/2000/svg">
<circle cx="62.6875" cy="74.3535" r="20.5" stroke="black"/>
<circle cx="235.688" cy="74.3535" r="20.5" stroke="black"/>
<path d="M132.686 12.8534L131.186 9.35337C171.186 1.35348 192.686 1.85352 231.686 13.3535L228.186 17.8535C208.186 9.85343 190.186 8.85342 174.186 8.35349C171.686 7.85349 167.686 7.85345 165.186 8.35337C155.186 8.35349 143.186 9.85349 132.686 12.8534Z" fill="#EFC7D3" stroke="black" stroke-width="0.5"/>
<path d="M131.186 9.35356L130.686 7.85356C166.686 -3.14648 199.186 0.85339 234.686 9.85356L231.686 13.3536C191.686 0.853516 165.686 2.35352 131.186 9.35356Z" fill="#EFC7D3" stroke="black" stroke-width="0.5"/>
<path d="M131.186 9.3535C182.686 -2.14652 211.186 7.85352 231.686 13.3535" stroke="black" stroke-width="0.5"/>
<path d="M170.688 30.3535L174.188 8.35352C207.688 9.35352 219.188 14.8535 223.688 16.3535L226.17 28.3535C199.18 28.3542 181.685 29.8536 170.688 30.3535Z" fill="#EFC7D3"/>
<path d="M226.688 30.8535L223.688 16.3535C219.188 14.8535 207.688 9.35352 174.188 8.35352L170.688 30.3535C181.688 29.8535 199.188 28.3535 226.188 28.3535" stroke="black" stroke-width="0.5"/>
<path d="M165.188 8.35352C132.188 9.35352 112.188 18.3535 93.1875 35.8535L95.6875 33.8535L159.688 30.8535L165.188 8.35352Z" fill="#EFC7D3" stroke="black" stroke-width="0.5"/>
<path d="M239.686 22.8535C236.019 20.1868 230.186 17.8535 223.686 16.3535L226.186 28.3535H232.686C235.686 26.8535 238.686 24.6223 239.686 22.8535Z" fill="#EFC7D3" stroke="black" stroke-width="0.5"/>
<path d="M96.6875 78.8535H163.688L198.188 77.3535H212.688L213.188 82.8535H199.188H98.1875H86.6875V78.8535H96.6875Z" fill="#EFC7D3"/>
<path d="M96.6875 78.8535H163.688L198.188 77.3535M96.6875 78.8535C96.6875 80.3535 97.1875 81.3535 98.1875 82.8535M96.6875 78.8535H86.6875V82.8535H98.1875M198.188 77.3535L199.188 82.8535M198.188 77.3535H212.688L213.188 82.8535H199.188M199.188 82.8535H98.1875" stroke="black" stroke-width="0.5"/>
<path d="M96.6866 78.8535C92.1875 74.3535 89.1875 52.3535 93.1866 35.8535L165.188 31.8535C161.188 36.8535 160.188 70.8535 163.687 78.8535H96.6866Z" fill="#EFC7D3" stroke="black" stroke-width="0.5"/>
<path d="M228.687 30.8535L165.187 31.8535C161.188 36.8535 160.188 70.8535 163.687 78.8535L198.187 77.3535C202.687 75.8535 209.187 70.3535 228.687 30.8535Z" fill="#EFC7D3" stroke="black" stroke-width="0.5"/>
<path d="M170.688 30.3536C166.188 30.8536 162.688 30.8536 159.688 30.8536L165.188 8.35359C168.188 7.85352 171.188 7.85352 174.188 8.35359L170.688 30.3536Z" fill="#EFC7D3" stroke="black" stroke-width="0.5"/>
<path d="M99.1875 32.3537C103.688 37.8537 110.688 34.3537 114.688 32.8537C115.688 17.3535 102.688 25.3535 99.1875 32.3537Z" fill="#EFC7D3" stroke="black" stroke-width="0.5"/>
<path d="M234.686 9.85352L231.686 13.3535C248.686 18.8535 259.186 21.8535 271.686 28.3535H273.186L281.186 26.8535C266.186 20.3535 258.686 17.8535 234.686 9.85352Z" fill="#EFC7D3" stroke="black" stroke-width="0.5"/>
<path d="M271.686 28.3535C261.186 22.8535 242.186 16.3535 231.686 13.3535L229.686 15.8535L244.686 23.3535C243.186 25.8535 239.186 27.8535 233.186 30.5535C245.186 29.8535 262.186 28.8535 271.686 28.3535Z" fill="#EFC7D3" stroke="black" stroke-width="0.5"/>
<path d="M277.188 34.6535L283.186 32.3535L272.687 28.3535L228.687 30.8535C221.187 45.8535 206.187 76.3535 198.187 77.3535H212.687C211.187 66.3535 220.687 42.8535 245.688 51.8535C256.188 46.3535 266.188 40.8535 277.188 34.6535Z" fill="#EFC7D3" stroke="black" stroke-width="0.5"/>
<path d="M278.186 34.3535C266.186 40.8535 256.186 46.3535 245.686 51.8535C250.186 54.8535 260.686 60.8535 259.686 79.8535L284.686 79.3535V77.8535C293.186 76.8535 301.686 80.3535 300.186 66.3535L302.186 56.3535C302.186 54.8535 299.686 50.8535 297.186 50.3535C298.686 47.8535 295.686 38.8535 295.686 38.8535V37.3535L291.686 34.3535L286.686 32.8535L283.186 32.3535L278.186 34.3535Z" fill="#EFC7D3" stroke="black" stroke-width="0.5"/>
<path d="M281.186 26.8535L272.686 28.3535L283.186 32.3535C292.686 33.3535 291.684 34.8535 295.68 37.2737L295.186 28.8535L281.186 26.8535Z" fill="#EFC7D3"/>
<path d="M295.686 37.3535L295.68 37.2737M295.68 37.2737L295.186 28.8535L281.186 26.8535L272.686 28.3535L283.186 32.3535C292.686 33.3535 291.684 34.8535 295.68 37.2737Z" stroke="black" stroke-width="0.5"/>
<path d="M294.188 36.8537C293.688 34.3536 282.688 34.1535 277.188 34.6535" stroke="black" stroke-width="0.5"/>
<path d="M300.188 66.8535L260.688 68.8535C260.188 63.8535 258.021 59.6868 256.188 57.8535L302.188 55.3535M300.688 52.8535C289.688 51.3535 278.688 46.5535 266.688 40.5535M228.688 30.8535L272.688 28.3535L281.188 26.8535" stroke="black" stroke-width="0.5"/>
<path d="M290.688 40.8535C290.688 38.8535 289.688 34.8535 286.188 32.8535C288.408 32.8535 291.785 33.8939 294.296 36.2635C294.76 37.7935 293.688 41.3535 290.646 42.8535C290.632 42.2632 290.688 41.5778 290.688 40.8535Z" fill="#EFC7D3"/>
<path d="M272.688 43.3535C279.683 43.7033 285.7 43.8084 291.081 44.3535M297.688 45.3535C295.585 44.9029 293.391 44.5876 291.081 44.3535M295.688 37.8535C295.27 37.2684 294.8 36.7392 294.296 36.2635M291.081 44.3535C290.754 44.0088 290.66 43.4857 290.646 42.8535M290.646 42.8535C290.632 42.2632 290.688 41.5778 290.688 40.8535C290.688 38.8535 289.688 34.8535 286.188 32.8535C288.408 32.8535 291.785 33.8939 294.296 36.2635M290.646 42.8535C293.688 41.3535 294.76 37.7935 294.296 36.2635" stroke="black" stroke-width="0.5"/>
<path d="M290.688 40.8535C286.188 40.8535 284.188 36.8535 283.188 34.3535" stroke="black" stroke-width="0.5"/>
<path d="M132.686 12.9535C119.186 16.9535 107.186 22.8535 93.186 35.8535C100.186 23.8535 115.686 14.3535 131.186 9.35352L132.686 12.9535Z" fill="#EDADBF" stroke="black" stroke-width="0.5"/>
<path d="M131.186 9.35352C111.186 15.0276 93.186 32.3535 85.186 30.3535C98.186 20.8535 114.186 12.3535 130.686 7.85352L131.186 9.35352Z" fill="#EDADBF" stroke="black" stroke-width="0.5"/>
<path d="M10.1867 48.3535H4.1867C1.68604 52.3535 1.68604 62.3535 2.1867 65.8535C0.686035 66.8535 0.686633 71.3535 1.6867 72.8535L5.6867 73.3535V74.8535L1.6867 76.8535V78.8535C5.6867 79.8535 14.1867 81.8535 22.1867 81.3535V79.8535H39.6867C39.02 71.3535 40.6867 60.8535 49.6867 53.8535C47.1867 49.8535 40.1867 45.3535 37.1867 44.8535C27.1867 43.8535 12.1867 46.3535 10.1867 48.3535Z" fill="#EDADBF" stroke="black" stroke-width="0.5"/>
<path d="M93.1875 35.8535C75.3542 36.6868 43.6875 41.5535 33.1875 44.5535L37.1875 44.8535C42.1875 46.3535 47.6875 50.6868 49.6875 53.8535C62.6865 44.3535 88.1865 51.3535 86.6865 78.8535H96.6865C89.6865 67.8535 90.6865 45.8535 93.1875 35.8535Z" fill="#EDADBF" stroke="black" stroke-width="0.5"/>
<path d="M10.1855 48.3536H4.18555C36.6857 28.8535 58.6858 34.8535 84.6855 30.3535L93.6858 35.8535C76.6858 36.8535 47.6855 40.3535 33.6855 44.5535C25.6855 44.3535 11.6855 46.3535 10.1855 48.3536Z" fill="#EDADBF" stroke="black" stroke-width="0.5"/>
<path d="M37.1875 44.8536C29.6875 43.8535 12.6875 45.8535 10.1875 48.3536C9.38749 50.7535 12.5208 53.6868 14.1875 54.8535C23.6875 56.3535 37.1875 50.3535 37.1875 44.8536Z" fill="#EDADBF" stroke="black" stroke-width="0.5"/>
<path d="M4.18673 48.3535C11.1867 49.3535 5.18673 59.8535 2.18673 64.8535C1.68666 57.8535 2.18652 52.3535 4.18673 48.3535Z" fill="#EDADBF" stroke="black" stroke-width="0.5"/>
<path d="M22.186 84.3535V79.8535H39.686L40.186 84.3535H22.186Z" fill="#EDADBF" stroke="black" stroke-width="0.5"/>
<path d="M2.6875 65.8535C4.1875 68.3535 6.1875 71.5202 5.6875 73.3535M22.1875 79.8535C11.6875 80.3535 7.1875 76.3535 8.1875 72.8535C8.6875 72.3535 10.1875 70.8535 11.1875 70.8535" stroke="black" stroke-width="0.5"/>
<path d="M32.1875 74.8535C29.6875 70.8535 24.1875 65.8536 21.1875 64.3536C19.4375 63.8536 16.8124 63.9786 14.0623 64.3536C12.4374 65.6869 11.1875 68.8535 11.6875 71.8535C11.6875 73.0202 12.9949 75.3535 15.6875 75.3535C20.1875 75.3535 27.1875 75.8535 32.1875 74.8535Z" fill="#EDADBF"/>
<path d="M6.1875 65.8536C8.43744 65.3536 11.3124 64.7286 14.0623 64.3536M14.0623 64.3536C16.8124 63.9786 19.4375 63.8536 21.1875 64.3536C24.1875 65.8536 29.6875 70.8535 32.1875 74.8535C27.1875 75.8535 20.1875 75.3535 15.6875 75.3535C12.9949 75.3535 11.6875 73.0202 11.6875 71.8535C11.1875 68.8535 12.4374 65.6869 14.0623 64.3536Z" stroke="black" stroke-width="0.5"/>
<path d="M11.6875 71.3536C19.6875 69.8536 23.1875 72.4821 26.1875 73.9821M13.1875 74.3536L30.6875 73.8536" stroke="black" stroke-width="0.5"/>
<path d="M22.1855 82.8535H31.6855C33.6855 82.8535 35.1855 80.8535 34.6855 79.8535M38.1855 79.8535V84.3535" stroke="black" stroke-width="0.5"/>
<path d="M22.1874 81.3538C17.6874 81.3538 13.1874 81.8538 1.68745 78.8538V76.8538L5.68745 74.8538V73.3538L1.68745 72.8538C1.18652 71.3535 0.186719 68.3535 2.18671 65.8535C1.68696 57.8535 2.18696 51.3535 4.18745 48.3533C36.6874 28.8537 58.6874 34.8537 84.6874 30.3537C162.687 -24.6464 244.687 12.3535 281.687 26.8537L295.187 28.8535L295.687 35.8535V38.8535C297.186 43.8535 298.521 48.3535 297.187 50.3535C299.687 51.3535 302.187 54.5202 302.187 56.3535L300.187 66.3535C300.639 77.2014 298.231 77.4257 288.9 77.7382C287.909 77.7713 285.84 77.8055 284.687 77.8535V79.3535L259.687 79.7846M22.1874 81.3538V84.3538H40.1858L39.6875 79.8538M22.1874 81.3538V79.8538H39.6875M39.6875 79.8538C36.6875 38.3538 90.1874 41.3538 86.6874 80.3538V82.8535H213.187C207.187 39.3535 261.687 39.3535 259.687 79.7846M259.186 79.7846H259.687" stroke="black"/>
</svg>
