<svg width="304" height="96" viewBox="0 0 304 96" fill="none" xmlns="http://www.w3.org/2000/svg">
<circle cx="63.0835" cy="74.1995" r="20.5" fill="#EDADBF" stroke="black"/>
<circle cx="236.083" cy="74.1995" r="20.5" fill="#EDADBF" stroke="black"/>
<path d="M133.082 12.6993L131.582 9.19932C171.582 1.19943 193.082 1.69946 232.082 13.1994L228.582 17.6994C208.582 9.69937 190.582 8.69937 174.582 8.19944C172.082 7.69944 168.082 7.6994 165.582 8.19932C155.582 8.19944 143.582 9.69944 133.082 12.6993Z" fill="#EDADBF" stroke="black" stroke-width="0.5"/>
<path d="M131.582 9.19951L131.082 7.69951C167.082 -3.30054 199.582 0.699337 235.082 9.69951L232.082 13.1995C192.082 0.699463 166.082 2.19946 131.582 9.19951Z" fill="#EDADBF" stroke="black" stroke-width="0.5"/>
<path d="M131.582 9.19933C183.082 -2.3007 211.582 7.69934 232.082 13.1993" stroke="black" stroke-width="0.5"/>
<path d="M171.083 30.1995L174.583 8.19946C208.083 9.19946 219.583 14.6995 224.083 16.1995L226.566 28.1995C199.576 28.2001 182.081 29.6996 171.083 30.1995Z" fill="#EDADBF"/>
<path d="M227.083 30.6995L224.083 16.1995C219.583 14.6995 208.083 9.19946 174.583 8.19946L171.083 30.1995C182.083 29.6995 199.583 28.1995 226.583 28.1995" stroke="black" stroke-width="0.5"/>
<path d="M165.583 8.19946C132.583 9.19946 112.583 18.1995 93.5835 35.6995L96.0835 33.6995L160.083 30.6995L165.583 8.19946Z" fill="#EDADBF" stroke="black" stroke-width="0.5"/>
<path d="M240.082 22.6995C236.415 20.0328 230.582 17.6995 224.082 16.1995L226.582 28.1995H233.082C236.082 26.6995 239.082 24.4682 240.082 22.6995Z" fill="#EDADBF" stroke="black" stroke-width="0.5"/>
<path d="M97.0835 78.6995H164.083L198.583 77.1995H213.083L213.583 82.6995H199.583H98.5835H87.0835V78.6995H97.0835Z" fill="#EDADBF"/>
<path d="M97.0835 78.6995H164.083L198.583 77.1995M97.0835 78.6995C97.0835 80.1995 97.5835 81.1995 98.5835 82.6995M97.0835 78.6995H87.0835V82.6995H98.5835M198.583 77.1995L199.583 82.6995M198.583 77.1995H213.083L213.583 82.6995H199.583M199.583 82.6995H98.5835" stroke="black" stroke-width="0.5"/>
<path d="M97.0826 78.6995C92.5835 74.1995 89.5835 52.1995 93.5826 35.6995L165.583 31.6995C161.583 36.6995 160.583 70.6995 164.083 78.6995H97.0826Z" fill="#EDADBF" stroke="black" stroke-width="0.5"/>
<path d="M229.083 30.6995L165.583 31.6995C161.583 36.6995 160.583 70.6995 164.083 78.6995L198.583 77.1995C203.083 75.6995 209.583 70.1995 229.083 30.6995Z" fill="#EDADBF" stroke="black" stroke-width="0.5"/>
<path d="M171.083 30.1995C166.583 30.6995 163.083 30.6995 160.083 30.6995L165.583 8.19954C168.583 7.69946 171.583 7.69946 174.583 8.19954L171.083 30.1995Z" fill="#EDADBF" stroke="black" stroke-width="0.5"/>
<path d="M99.5835 32.1995C104.083 37.6995 111.083 34.1995 115.083 32.6995C116.083 17.1994 103.083 25.1993 99.5835 32.1995Z" fill="#EDADBF" stroke="black" stroke-width="0.5"/>
<path d="M235.082 9.69946L232.082 13.1995C249.082 18.6995 259.582 21.6995 272.082 28.1995H273.582L281.582 26.6995C266.582 20.1995 259.082 17.6995 235.082 9.69946Z" fill="#EFC7D3" stroke="black" stroke-width="0.5"/>
<path d="M272.082 28.1995C261.582 22.6995 242.582 16.1995 232.082 13.1995L230.082 15.6995L245.082 23.1995C243.582 25.6995 239.582 27.6995 233.582 30.3995C245.582 29.6995 262.582 28.6995 272.082 28.1995Z" fill="#EFC7D3" stroke="black" stroke-width="0.5"/>
<path d="M277.583 34.4995L283.582 32.1995L273.083 28.1995L229.083 30.6995C221.583 45.6995 206.583 76.1995 198.583 77.1995H213.083C211.583 66.1995 221.083 42.6995 246.083 51.6995C256.583 46.1995 266.583 40.6995 277.583 34.4995Z" fill="#EFC7D3" stroke="black" stroke-width="0.5"/>
<path d="M278.582 34.1995C266.582 40.6995 256.582 46.1995 246.082 51.6995C250.582 54.6995 261.082 60.6995 260.082 79.6995L285.082 79.1995V77.6995C293.582 76.6995 302.082 80.1995 300.582 66.1995L302.582 56.1995C302.582 54.6995 300.082 50.6995 297.582 50.1995C299.082 47.6995 296.082 38.6995 296.082 38.6995V37.1995L292.082 34.1995L287.082 32.6995L283.582 32.1995L278.582 34.1995Z" fill="#EFC7D3" stroke="black" stroke-width="0.5"/>
<path d="M281.582 26.6995L273.082 28.1995L283.582 32.1995C293.082 33.1995 292.081 34.6995 296.076 37.1196L295.582 28.6995L281.582 26.6995Z" fill="#EFC7D3"/>
<path d="M296.082 37.1995L296.076 37.1196M296.076 37.1196L295.582 28.6995L281.582 26.6995L273.082 28.1995L283.582 32.1995C293.082 33.1995 292.081 34.6995 296.076 37.1196Z" stroke="black" stroke-width="0.5"/>
<path d="M294.583 36.6997C294.083 34.1996 283.083 33.9995 277.583 34.4995" stroke="black" stroke-width="0.5"/>
<path d="M300.583 66.6995L261.083 68.6995C260.583 63.6995 258.417 59.5328 256.583 57.6995L302.583 55.1995M301.083 52.6995C290.083 51.1995 279.083 46.3995 267.083 40.3995M229.083 30.6995L273.083 28.1995L281.583 26.6995" stroke="black" stroke-width="0.5"/>
<path d="M291.083 40.6995C291.083 38.6995 290.083 34.6995 286.583 32.6995C288.804 32.6995 292.181 33.7399 294.692 36.1094C295.156 37.6395 294.083 41.1995 291.042 42.6995C291.028 42.1092 291.083 41.4238 291.083 40.6995Z" fill="#EFC7D3"/>
<path d="M273.083 43.1995C280.079 43.5492 286.096 43.6543 291.477 44.1995M298.083 45.1995C295.981 44.7488 293.787 44.4336 291.477 44.1995M296.083 37.6995C295.666 37.1143 295.196 36.5851 294.692 36.1094M291.477 44.1995C291.15 43.8547 291.056 43.3317 291.042 42.6995M291.042 42.6995C291.028 42.1092 291.083 41.4238 291.083 40.6995C291.083 38.6995 290.083 34.6995 286.583 32.6995C288.804 32.6995 292.181 33.7399 294.692 36.1094M291.042 42.6995C294.083 41.1995 295.156 37.6395 294.692 36.1094" stroke="black" stroke-width="0.5"/>
<path d="M291.083 40.6995C286.583 40.6995 284.583 36.6995 283.583 34.1995" stroke="black" stroke-width="0.5"/>
<path d="M133.082 12.7994C119.582 16.7994 107.582 22.6995 93.582 35.6995C100.582 23.6995 116.082 14.1995 131.582 9.19946L133.082 12.7994Z" fill="#EDADBF" stroke="black" stroke-width="0.5"/>
<path d="M131.582 9.19946C111.582 14.8735 93.582 32.1995 85.582 30.1995C98.582 20.6995 114.582 12.1995 131.082 7.69946L131.582 9.19946Z" fill="#EDADBF" stroke="black" stroke-width="0.5"/>
<path d="M10.5827 48.1993H4.5827C2.08203 52.1993 2.08203 62.1993 2.5827 65.6993C1.08203 66.6993 1.08263 71.1993 2.0827 72.6993L6.0827 73.1993V74.6993L2.0827 76.6993V78.6993C6.0827 79.6993 14.5827 81.6993 22.5827 81.1993V79.6993H40.0827C39.416 71.1993 41.0827 60.6993 50.0827 53.6993C47.5827 49.6993 40.5827 45.1993 37.5827 44.6993C27.5827 43.6993 12.5827 46.1993 10.5827 48.1993Z" fill="#EDADBF" stroke="black" stroke-width="0.5"/>
<path d="M93.5835 35.6995C75.7502 36.5328 44.0835 41.3995 33.5835 44.3995L37.5835 44.6995C42.5835 46.1995 48.0835 50.5328 50.0835 53.6995C63.0825 44.1995 88.5825 51.1995 87.0825 78.6995H97.0825C90.0825 67.6995 91.0825 45.6995 93.5835 35.6995Z" fill="#EDADBF" stroke="black" stroke-width="0.5"/>
<path d="M10.582 48.1995H4.58203C37.0822 28.6994 59.0823 34.6995 85.082 30.1995L94.0823 35.6995C77.0823 36.6995 48.082 40.1995 34.082 44.3995C26.082 44.1995 12.082 46.1995 10.582 48.1995Z" fill="#EDADBF" stroke="black" stroke-width="0.5"/>
<path d="M37.5835 44.6995C30.0835 43.6995 13.0835 45.6995 10.5835 48.1995C9.78349 50.5995 12.9168 53.5328 14.5835 54.6995C24.0835 56.1995 37.5835 50.1995 37.5835 44.6995Z" fill="#EDADBF" stroke="black" stroke-width="0.5"/>
<path d="M4.58273 48.1995C11.5827 49.1995 5.58273 59.6995 2.58273 64.6995C2.08266 57.6995 2.58252 52.1995 4.58273 48.1995Z" fill="#EDADBF" stroke="black" stroke-width="0.5"/>
<path d="M22.582 84.1995V79.6995H40.082L40.582 84.1995H22.582Z" fill="#EDADBF" stroke="black" stroke-width="0.5"/>
<path d="M3.08398 65.6992C4.58398 68.1992 6.58398 71.3659 6.08398 73.1992M22.584 79.6992C12.084 80.1992 7.58398 76.1992 8.58398 72.6992C9.08398 72.1992 10.584 70.6992 11.584 70.6992" stroke="black" stroke-width="0.5"/>
<path d="M32.584 74.6993C30.084 70.6993 24.584 65.6994 21.584 64.1994C19.8339 63.6994 17.2088 63.8244 14.4588 64.1994C12.8338 65.5327 11.584 68.6993 12.084 71.6993C12.084 72.866 13.3914 75.1993 16.084 75.1993C20.584 75.1993 27.584 75.6993 32.584 74.6993Z" fill="#EDADBF"/>
<path d="M6.58398 65.6994C8.83393 65.1994 11.7088 64.5744 14.4588 64.1994M14.4588 64.1994C17.2088 63.8244 19.8339 63.6994 21.584 64.1994C24.584 65.6994 30.084 70.6993 32.584 74.6993C27.584 75.6993 20.584 75.1993 16.084 75.1993C13.3914 75.1993 12.084 72.866 12.084 71.6993C11.584 68.6993 12.8338 65.5327 14.4588 64.1994Z" stroke="black" stroke-width="0.5"/>
<path d="M12.084 71.1994C20.084 69.6995 23.584 72.3279 26.584 73.8279M13.584 74.1995L31.084 73.6995" stroke="black" stroke-width="0.5"/>
<path d="M22.582 82.6992H32.082C34.082 82.6992 35.582 80.6992 35.082 79.6992M38.582 79.6992V84.1992" stroke="black" stroke-width="0.5"/>
<path d="M22.5834 81.1997C18.0834 81.1997 13.5834 81.6997 2.08344 78.6997V76.6997L6.08344 74.6997V73.1997L2.08344 72.6997C1.58252 71.1995 0.582715 68.1995 2.58271 65.6995C2.08295 57.6995 2.58295 51.1995 4.58344 48.1992C37.0834 28.6996 59.0834 34.6997 85.0834 30.1997C163.083 -24.8005 245.083 12.1994 282.083 26.6996L295.583 28.6995L296.083 35.6995V38.6995C297.582 43.6995 298.917 48.1995 297.583 50.1995C300.083 51.1995 302.583 54.3661 302.583 56.1995L300.583 66.1995C301.035 77.0474 298.627 77.2717 289.296 77.5841C288.305 77.6173 286.236 77.6515 285.083 77.6995V79.1995L260.083 79.6305M22.5834 81.1997V84.1997H40.5818L40.0835 79.6997M22.5834 81.1997V79.6997H40.0835M40.0835 79.6997C37.0835 38.1997 90.5834 41.1997 87.0834 80.1997V82.6995H213.583C207.583 39.1995 262.083 39.1995 260.083 79.6305M259.582 79.6305H260.083" stroke="black"/>
</svg>
