<svg width="303" height="96" viewBox="0 0 303 96" fill="none" xmlns="http://www.w3.org/2000/svg">
<circle cx="62.2915" cy="74.3384" r="20.5" fill="#E56E90" stroke="black"/>
<circle cx="235.292" cy="74.3384" r="20.5" fill="#E56E90" stroke="black"/>
<path d="M132.29 12.8382L130.79 9.33823C170.79 1.33835 192.29 1.83838 231.29 13.3383L227.79 17.8383C207.79 9.83829 189.79 8.83829 173.79 8.33836C171.29 7.83836 167.29 7.83832 164.79 8.33823C154.79 8.33836 142.79 9.83836 132.29 12.8382Z" stroke="black" stroke-width="0.5"/>
<path d="M130.79 9.33842L130.29 7.83842C166.29 -3.16162 198.79 0.838253 234.29 9.83842L231.29 13.3384C191.29 0.838379 165.29 2.33838 130.79 9.33842Z" stroke="black" stroke-width="0.5"/>
<path d="M130.79 9.33837C182.29 -2.16166 210.79 7.83838 231.29 13.3384" stroke="black" stroke-width="0.5"/>
<path d="M226.292 30.8384L223.292 16.3384C218.792 14.8384 207.292 9.33838 173.792 8.33838L170.292 30.3384C181.292 29.8384 198.792 28.3384 225.792 28.3384" stroke="black" stroke-width="0.5"/>
<path d="M164.792 8.33838C131.792 9.33838 111.792 18.3384 92.7915 35.8384L95.2915 33.8384L159.292 30.8384L164.792 8.33838Z" stroke="black" stroke-width="0.5"/>
<path d="M239.29 22.8384C235.623 20.1717 229.79 17.8384 223.29 16.3384L225.79 28.3384H232.29C235.29 26.8384 238.29 24.6071 239.29 22.8384Z" stroke="black" stroke-width="0.5"/>
<path d="M96.2915 78.8384H163.292L197.792 77.3384M96.2915 78.8384C96.2915 80.3384 96.7915 81.3384 97.7915 82.8384M96.2915 78.8384H86.2915V82.8384H97.7915M197.792 77.3384L198.792 82.8384M197.792 77.3384H212.292L212.792 82.8384H198.792M198.792 82.8384H97.7915" stroke="black" stroke-width="0.5"/>
<path d="M96.2906 78.8384C91.7915 74.3384 88.7915 52.3384 92.7906 35.8384L164.792 31.8384C160.792 36.8384 159.792 70.8384 163.291 78.8384H96.2906Z" stroke="black" stroke-width="0.5"/>
<path d="M228.291 30.8384L164.791 31.8384C160.791 36.8384 159.791 70.8384 163.291 78.8384L197.791 77.3384C202.291 75.8384 208.791 70.3384 228.291 30.8384Z" stroke="black" stroke-width="0.5"/>
<path d="M170.292 30.3385C165.792 30.8385 162.292 30.8385 159.292 30.8385L164.792 8.33845C167.792 7.83838 170.792 7.83838 173.792 8.33845L170.292 30.3385Z" stroke="black" stroke-width="0.5"/>
<path d="M98.7915 32.3385C103.292 37.8385 110.292 34.3385 114.292 32.8385C115.292 17.3384 102.292 25.3384 98.7915 32.3385Z" stroke="black" stroke-width="0.5"/>
<path d="M234.29 9.83838L231.29 13.3384C248.29 18.8384 258.79 21.8384 271.29 28.3384H272.79L280.79 26.8384C265.79 20.3384 258.29 17.8384 234.29 9.83838Z" stroke="black" stroke-width="0.5"/>
<path d="M271.29 28.3384C260.79 22.8384 241.79 16.3384 231.29 13.3384L229.29 15.8384L244.29 23.3384C242.79 25.8384 238.79 27.8384 232.79 30.5384C244.79 29.8384 261.79 28.8384 271.29 28.3384Z" stroke="black" stroke-width="0.5"/>
<path d="M276.792 34.6384L282.79 32.3384L272.291 28.3384L228.291 30.8384C220.791 45.8384 205.791 76.3384 197.791 77.3384H212.291C210.791 66.3384 220.291 42.8384 245.292 51.8384C255.792 46.3384 265.792 40.8384 276.792 34.6384Z" stroke="black" stroke-width="0.5"/>
<path d="M277.79 34.3384C265.79 40.8384 255.79 46.3384 245.29 51.8384C249.79 54.8384 260.29 60.8384 259.29 79.8384L284.29 79.3384V77.8384C292.79 76.8384 301.29 80.3384 299.79 66.3384L301.79 56.3384C301.79 54.8384 299.29 50.8384 296.79 50.3384C298.29 47.8384 295.29 38.8384 295.29 38.8384V37.3384L291.29 34.3384L286.29 32.8384L282.79 32.3384L277.79 34.3384Z" stroke="black" stroke-width="0.5"/>
<path d="M295.29 37.3384L295.284 37.2586M295.284 37.2586L294.79 28.8384L280.79 26.8384L272.29 28.3384L282.79 32.3384C292.29 33.3384 291.289 34.8384 295.284 37.2586Z" stroke="black" stroke-width="0.5"/>
<path d="M293.792 36.8386C293.292 34.3385 282.292 34.1384 276.792 34.6384" stroke="black" stroke-width="0.5"/>
<path d="M299.792 66.8384L260.292 68.8384C259.792 63.8384 257.625 59.6717 255.792 57.8384L301.792 55.3384M300.292 52.8384C289.292 51.3384 278.292 46.5384 266.292 40.5384M228.292 30.8384L272.292 28.3384L280.792 26.8384" stroke="black" stroke-width="0.5"/>
<path d="M272.292 43.3384C279.287 43.6882 285.304 43.7933 290.685 44.3384M297.292 45.3384C295.189 44.8877 292.995 44.5725 290.685 44.3384M295.292 37.8384C294.874 37.2533 294.404 36.724 293.9 36.2484M290.685 44.3384C290.358 43.9936 290.264 43.4706 290.25 42.8384M290.25 42.8384C290.236 42.2481 290.292 41.5627 290.292 40.8384C290.292 38.8384 289.292 34.8384 285.792 32.8384C288.012 32.8384 291.389 33.8788 293.9 36.2484M290.25 42.8384C293.292 41.3384 294.364 37.7784 293.9 36.2484" stroke="black" stroke-width="0.5"/>
<path d="M290.292 40.8384C285.792 40.8384 283.792 36.8384 282.792 34.3384" stroke="black" stroke-width="0.5"/>
<path d="M132.29 12.9384C118.79 16.9384 106.79 22.8384 92.79 35.8384C99.79 23.8384 115.29 14.3384 130.79 9.33838L132.29 12.9384Z" fill="#EFC7D3" stroke="black" stroke-width="0.5"/>
<path d="M130.79 9.33838C110.79 15.0124 92.79 32.3384 84.79 30.3384C97.79 20.8384 113.79 12.3384 130.29 7.83838L130.79 9.33838Z" fill="#EFC7D3" stroke="black" stroke-width="0.5"/>
<path d="M9.79071 48.3384H3.79071C1.29004 52.3384 1.29004 62.3384 1.79071 65.8384C0.290039 66.8384 0.290637 71.3384 1.29071 72.8384L5.29071 73.3384V74.8384L1.29071 76.8384V78.8384C5.29071 79.8384 13.7907 81.8384 21.7907 81.3384V79.8384H39.2907C38.624 71.3384 40.2907 60.8384 49.2907 53.8384C46.7907 49.8384 39.7907 45.3384 36.7907 44.8384C26.7907 43.8384 11.7907 46.3384 9.79071 48.3384Z" fill="#EFC7D3" stroke="black" stroke-width="0.5"/>
<path d="M92.7915 35.8384C74.9582 36.6717 43.2915 41.5384 32.7915 44.5384L36.7915 44.8384C41.7915 46.3384 47.2915 50.6717 49.2915 53.8384C62.2905 44.3384 87.7905 51.3384 86.2905 78.8384H96.2905C89.2905 67.8384 90.2905 45.8384 92.7915 35.8384Z" fill="#EFC7D3" stroke="black" stroke-width="0.5"/>
<path d="M9.79004 48.3384H3.79004C36.2902 28.8383 58.2903 34.8384 84.29 30.3384L93.2903 35.8384C76.2903 36.8384 47.29 40.3384 33.29 44.5384C25.29 44.3384 11.29 46.3384 9.79004 48.3384Z" fill="#EFC7D3" stroke="black" stroke-width="0.5"/>
<path d="M36.7915 44.8385C29.2915 43.8384 12.2915 45.8384 9.79149 48.3385C8.99149 50.7384 12.1248 53.6717 13.7915 54.8384C23.2915 56.3384 36.7915 50.3384 36.7915 44.8385Z" fill="#EFC7D3" stroke="black" stroke-width="0.5"/>
<path d="M3.79073 48.3384C10.7907 49.3384 4.79073 59.8384 1.79073 64.8384C1.29066 57.8384 1.79053 52.3384 3.79073 48.3384Z" fill="#EFC7D3" stroke="black" stroke-width="0.5"/>
<path d="M21.79 84.3384V79.8384H39.29L39.79 84.3384H21.79Z" fill="#EFC7D3" stroke="black" stroke-width="0.5"/>
<path d="M2.29199 65.8384C3.79199 68.3384 5.79199 71.505 5.29199 73.3384M21.792 79.8384C11.292 80.3384 6.79199 76.3384 7.79199 72.8384C8.29199 72.3384 9.79199 70.8384 10.792 70.8384" stroke="black" stroke-width="0.5"/>
<path d="M31.792 74.8384C29.292 70.8384 23.792 65.8385 20.792 64.3385C19.0419 63.8384 16.4169 63.9634 13.6668 64.3385C12.0419 65.6718 10.792 68.8384 11.292 71.8384C11.292 73.005 12.5994 75.3384 15.292 75.3384C19.792 75.3384 26.792 75.8384 31.792 74.8384Z" fill="#EFC7D3"/>
<path d="M5.79199 65.8385C8.04193 65.3384 10.9168 64.7135 13.6668 64.3385M13.6668 64.3385C16.4169 63.9634 19.0419 63.8384 20.792 64.3385C23.792 65.8385 29.292 70.8384 31.792 74.8384C26.792 75.8384 19.792 75.3384 15.292 75.3384C12.5994 75.3384 11.292 73.005 11.292 71.8384C10.792 68.8384 12.0418 65.6718 13.6668 64.3385Z" stroke="black" stroke-width="0.5"/>
<path d="M11.292 71.3385C19.292 69.8385 22.792 72.467 25.792 73.967M12.792 74.3385L30.292 73.8385" stroke="black" stroke-width="0.5"/>
<path d="M21.79 82.8384H31.29C33.29 82.8384 34.79 80.8384 34.29 79.8384M37.79 79.8384V84.3384" stroke="black" stroke-width="0.5"/>
<path d="M21.7915 81.3386C17.2915 81.3386 12.7915 81.8386 1.29145 78.8386V76.8386L5.29145 74.8386V73.3386L1.29145 72.8386C0.790527 71.3384 -0.209277 68.3384 1.79072 65.8384C1.29096 57.8384 1.79096 51.3384 3.79145 48.3381C36.2915 28.8385 58.2914 34.8386 84.2914 30.3386C162.291 -24.6615 244.291 12.3384 281.291 26.8386L294.791 28.8384L295.291 35.8384V38.8384C296.79 43.8384 298.125 48.3384 296.791 50.3384C299.291 51.3384 301.791 54.505 301.791 56.3384L299.791 66.3384C300.243 77.1863 297.835 77.4106 288.504 77.723C287.513 77.7562 285.444 77.7904 284.291 77.8384V79.3384L259.291 79.7694M21.7915 81.3386V84.3386H39.7898L39.2915 79.8386M21.7915 81.3386V79.8386H39.2915M39.2915 79.8386C36.2915 38.3386 89.7914 41.3386 86.2914 80.3386V82.8384H212.791C206.791 39.3384 261.291 39.3384 259.291 79.7694M258.79 79.7694H259.291" stroke="black"/>
</svg>
