<svg width="303" height="96" viewBox="0 0 303 96" fill="none" xmlns="http://www.w3.org/2000/svg">
<circle cx="62.6772" cy="74.2146" r="20.5" stroke="black"/>
<circle cx="235.678" cy="74.2146" r="20.5" stroke="black"/>
<path d="M132.676 12.7145L131.176 9.21445C171.176 1.21457 192.676 1.7146 231.676 13.2145L228.176 17.7145C208.176 9.71451 190.176 8.71451 174.176 8.21458C171.676 7.71458 167.676 7.71454 165.176 8.21445C155.176 8.21458 143.176 9.71458 132.676 12.7145Z" fill="#E56E90" stroke="black" stroke-width="0.5"/>
<path d="M131.176 9.21464L130.676 7.71464C166.676 -3.2854 199.176 0.714474 234.676 9.71465L231.676 13.2146C191.676 0.7146 165.676 2.2146 131.176 9.21464Z" fill="#E56E90" stroke="black" stroke-width="0.5"/>
<path d="M131.176 9.21447C182.676 -2.28556 211.176 7.71448 231.676 13.2145" stroke="black" stroke-width="0.5"/>
<path d="M170.677 30.2146L174.177 8.2146C207.677 9.2146 219.177 14.7146 223.677 16.2146L226.16 28.2146C199.17 28.2152 181.675 29.7147 170.677 30.2146Z" fill="#E56E90"/>
<path d="M226.677 30.7146L223.677 16.2146C219.177 14.7146 207.677 9.2146 174.177 8.2146L170.677 30.2146C181.677 29.7146 199.177 28.2146 226.177 28.2146" stroke="black" stroke-width="0.5"/>
<path d="M165.177 8.2146C132.177 9.2146 112.177 18.2146 93.1772 35.7146L95.6772 33.7146L159.677 30.7146L165.177 8.2146Z" fill="#E56E90" stroke="black" stroke-width="0.5"/>
<path d="M239.676 22.7146C236.009 20.0479 230.176 17.7146 223.676 16.2146L226.176 28.2146H232.676C235.676 26.7146 238.676 24.4833 239.676 22.7146Z" fill="#E56E90" stroke="black" stroke-width="0.5"/>
<path d="M96.6772 78.7146H163.677L198.177 77.2146H212.677L213.177 82.7146H199.177H98.1772H86.6772V78.7146H96.6772Z" fill="#E56E90"/>
<path d="M96.6772 78.7146H163.677L198.177 77.2146M96.6772 78.7146C96.6772 80.2146 97.1772 81.2146 98.1772 82.7146M96.6772 78.7146H86.6772V82.7146H98.1772M198.177 77.2146L199.177 82.7146M198.177 77.2146H212.677L213.177 82.7146H199.177M199.177 82.7146H98.1772" stroke="black" stroke-width="0.5"/>
<path d="M96.6764 78.7146C92.1772 74.2146 89.1773 52.2146 93.1764 35.7146L165.177 31.7146C161.177 36.7146 160.177 70.7146 163.677 78.7146H96.6764Z" fill="#E56E90" stroke="black" stroke-width="0.5"/>
<path d="M228.677 30.7146L165.177 31.7146C161.177 36.7146 160.177 70.7146 163.677 78.7146L198.177 77.2146C202.677 75.7146 209.177 70.2146 228.677 30.7146Z" fill="#E56E90" stroke="black" stroke-width="0.5"/>
<path d="M170.677 30.2147C166.177 30.7147 162.677 30.7147 159.677 30.7147L165.177 8.21467C168.177 7.7146 171.177 7.7146 174.177 8.21467L170.677 30.2147Z" fill="#E56E90" stroke="black" stroke-width="0.5"/>
<path d="M99.1772 32.2146C103.677 37.7146 110.677 34.2146 114.677 32.7146C115.677 17.2145 102.677 25.2145 99.1772 32.2146Z" fill="#E56E90" stroke="black" stroke-width="0.5"/>
<path d="M234.676 9.7146L231.676 13.2146C248.676 18.7146 259.176 21.7146 271.676 28.2146H273.176L281.176 26.7146C266.176 20.2146 258.676 17.7146 234.676 9.7146Z" fill="#EDADBF" stroke="black" stroke-width="0.5"/>
<path d="M271.676 28.2146C261.176 22.7146 242.176 16.2146 231.676 13.2146L229.676 15.7146L244.676 23.2146C243.176 25.7146 239.176 27.7146 233.176 30.4146C245.176 29.7146 262.176 28.7146 271.676 28.2146Z" fill="#EDADBF" stroke="black" stroke-width="0.5"/>
<path d="M277.178 34.5146L283.176 32.2146L272.677 28.2146L228.677 30.7146C221.177 45.7146 206.177 76.2146 198.177 77.2146H212.677C211.177 66.2146 220.677 42.7146 245.678 51.7146C256.178 46.2146 266.178 40.7146 277.178 34.5146Z" fill="#EDADBF" stroke="black" stroke-width="0.5"/>
<path d="M278.176 34.2146C266.176 40.7146 256.176 46.2146 245.676 51.7146C250.176 54.7146 260.676 60.7146 259.676 79.7146L284.676 79.2146V77.7146C293.176 76.7146 301.676 80.2146 300.176 66.2146L302.176 56.2146C302.176 54.7146 299.676 50.7146 297.176 50.2146C298.676 47.7146 295.676 38.7146 295.676 38.7146V37.2146L291.676 34.2146L286.676 32.7146L283.176 32.2146L278.176 34.2146Z" fill="#EDADBF" stroke="black" stroke-width="0.5"/>
<path d="M281.176 26.7146L272.676 28.2146L283.176 32.2146C292.676 33.2146 291.675 34.7146 295.67 37.1348L295.176 28.7146L281.176 26.7146Z" fill="#EDADBF"/>
<path d="M295.676 37.2146L295.67 37.1348M295.67 37.1348L295.176 28.7146L281.176 26.7146L272.676 28.2146L283.176 32.2146C292.676 33.2146 291.675 34.7146 295.67 37.1348Z" stroke="black" stroke-width="0.5"/>
<path d="M294.178 36.7148C293.678 34.2147 282.678 34.0146 277.178 34.5146" stroke="black" stroke-width="0.5"/>
<path d="M300.178 66.7146L260.678 68.7146C260.178 63.7146 258.011 59.5479 256.178 57.7146L302.178 55.2146M300.678 52.7146C289.678 51.2146 278.678 46.4146 266.678 40.4146M228.678 30.7146L272.678 28.2146L281.178 26.7146" stroke="black" stroke-width="0.5"/>
<path d="M290.678 40.7146C290.678 38.7146 289.678 34.7146 286.178 32.7146C288.399 32.7146 291.775 33.755 294.287 36.1246C294.75 37.6546 293.678 41.2146 290.636 42.7146C290.622 42.1243 290.678 41.4389 290.678 40.7146Z" fill="#EDADBF"/>
<path d="M272.678 43.2146C279.673 43.5644 285.69 43.6695 291.071 44.2146M297.678 45.2146C295.575 44.764 293.381 44.4487 291.071 44.2146M295.678 37.7146C295.26 37.1295 294.791 36.6002 294.287 36.1246M291.071 44.2146C290.745 43.8698 290.651 43.3468 290.636 42.7146M290.636 42.7146C290.622 42.1243 290.678 41.4389 290.678 40.7146C290.678 38.7146 289.678 34.7146 286.178 32.7146C288.399 32.7146 291.775 33.755 294.287 36.1246M290.636 42.7146C293.678 41.2146 294.75 37.6546 294.287 36.1246" stroke="black" stroke-width="0.5"/>
<path d="M290.678 40.7146C286.178 40.7146 284.178 36.7146 283.178 34.2146" stroke="black" stroke-width="0.5"/>
<path d="M132.676 12.8146C119.176 16.8146 107.176 22.7146 93.1758 35.7146C100.176 23.7146 115.676 14.2146 131.176 9.2146L132.676 12.8146Z" fill="#E56E90" stroke="black" stroke-width="0.5"/>
<path d="M131.176 9.2146C111.176 14.8886 93.1758 32.2146 85.1758 30.2146C98.1758 20.7146 114.176 12.2146 130.676 7.7146L131.176 9.2146Z" fill="#E56E90" stroke="black" stroke-width="0.5"/>
<path d="M10.1764 48.2145H4.17645C1.67578 52.2145 1.67578 62.2145 2.17645 65.7145C0.675781 66.7145 0.676379 71.2145 1.67645 72.7145L5.67645 73.2145V74.7145L1.67645 76.7145V78.7145C5.67645 79.7145 14.1764 81.7145 22.1764 81.2145V79.7145H39.6764C39.0098 71.2145 40.6764 60.7145 49.6764 53.7145C47.1764 49.7145 40.1764 45.2145 37.1764 44.7145C27.1764 43.7145 12.1764 46.2145 10.1764 48.2145Z" fill="#E56E90" stroke="black" stroke-width="0.5"/>
<path d="M93.1772 35.7146C75.3439 36.5479 43.6772 41.4146 33.1772 44.4146L37.1772 44.7146C42.1772 46.2146 47.6772 50.5479 49.6772 53.7146C62.6763 44.2146 88.1763 51.2146 86.6763 78.7146H96.6763C89.6763 67.7146 90.6763 45.7146 93.1772 35.7146Z" fill="#E56E90" stroke="black" stroke-width="0.5"/>
<path d="M10.1758 48.2147H4.17578C36.676 28.7146 58.676 34.7146 84.6758 30.2146L93.676 35.7146C76.676 36.7146 47.6758 40.2146 33.6758 44.4146C25.6758 44.2146 11.6758 46.2146 10.1758 48.2147Z" fill="#E56E90" stroke="black" stroke-width="0.5"/>
<path d="M37.1772 44.7147C29.6772 43.7146 12.6772 45.7146 10.1772 48.2147C9.37724 50.6146 12.5106 53.5479 14.1772 54.7146C23.6772 56.2146 37.1772 50.2146 37.1772 44.7147Z" fill="#E56E90" stroke="black" stroke-width="0.5"/>
<path d="M4.17648 48.2146C11.1765 49.2146 5.17648 59.7146 2.17648 64.7146C1.67641 57.7146 2.17627 52.2146 4.17648 48.2146Z" fill="#E56E90" stroke="black" stroke-width="0.5"/>
<path d="M22.1758 84.2146V79.7146H39.6758L40.1758 84.2146H22.1758Z" fill="#E56E90" stroke="black" stroke-width="0.5"/>
<path d="M2.67773 65.7144C4.17773 68.2144 6.17773 71.381 5.67773 73.2144M22.1777 79.7144C11.6777 80.2144 7.17773 76.2144 8.17773 72.7144C8.67773 72.2144 10.1777 70.7144 11.1777 70.7144" stroke="black" stroke-width="0.5"/>
<path d="M32.1777 74.7145C29.6777 70.7145 24.1777 65.7146 21.1777 64.2146C19.4277 63.7145 16.8026 63.8395 14.0525 64.2146C12.4276 65.5479 11.1777 68.7145 11.6777 71.7145C11.6777 72.8811 12.9852 75.2145 15.6777 75.2145C20.1777 75.2145 27.1777 75.7145 32.1777 74.7145Z" fill="#E56E90"/>
<path d="M6.17773 65.7146C8.42768 65.2145 11.3026 64.5896 14.0525 64.2146M14.0525 64.2146C16.8026 63.8395 19.4277 63.7145 21.1777 64.2146C24.1777 65.7146 29.6777 70.7145 32.1777 74.7145C27.1777 75.7145 20.1777 75.2145 15.6777 75.2145C12.9852 75.2145 11.6777 72.8811 11.6777 71.7145C11.1777 68.7145 12.4276 65.5479 14.0525 64.2146Z" stroke="black" stroke-width="0.5"/>
<path d="M11.6777 71.2146C19.6777 69.7146 23.1777 72.3431 26.1777 73.8431M13.1777 74.2146L30.6777 73.7146" stroke="black" stroke-width="0.5"/>
<path d="M22.1758 82.7144H31.6758C33.6758 82.7144 35.1758 80.7144 34.6758 79.7144M38.1758 79.7144V84.2144" stroke="black" stroke-width="0.5"/>
<path d="M22.1772 81.2148C17.6772 81.2148 13.1772 81.7148 1.67719 78.7148V76.7148L5.67719 74.7148V73.2148L1.67719 72.7149C1.17627 71.2146 0.176465 68.2146 2.17646 65.7146C1.6767 57.7146 2.1767 51.2146 4.17719 48.2143C36.6772 28.7147 58.6772 34.7148 84.6772 30.2148C162.677 -24.7853 244.677 12.2146 281.677 26.7148L295.177 28.7146L295.677 35.7146V38.7146C297.176 43.7146 298.511 48.2146 297.177 50.2146C299.677 51.2146 302.177 54.3813 302.177 56.2146L300.177 66.2146C300.629 77.0625 298.221 77.2868 288.889 77.5992C287.898 77.6324 285.829 77.6666 284.677 77.7146V79.2146L259.677 79.6456M22.1772 81.2148V84.2148H40.1755L39.6772 79.7148M22.1772 81.2148V79.7148H39.6772M39.6772 79.7148C36.6772 38.2148 90.1772 41.2148 86.6772 80.2148V82.7146H213.177C207.177 39.2146 261.677 39.2146 259.677 79.6456M259.176 79.6456H259.677" stroke="black"/>
</svg>
