<svg width="304" height="96" viewBox="0 0 304 96" fill="none" xmlns="http://www.w3.org/2000/svg">
<circle cx="63.0742" cy="74.0303" r="20.5" fill="#EDADBF" stroke="black"/>
<circle cx="236.074" cy="74.0303" r="20.5" fill="#EDADBF" stroke="black"/>
<path d="M133.072 12.5301L131.572 9.03013C171.572 1.03024 193.072 1.53027 232.072 13.0302L228.572 17.5302C208.572 9.53018 190.572 8.53018 174.572 8.03025C172.072 7.53025 168.072 7.53021 165.572 8.03013C155.572 8.03025 143.572 9.53025 133.072 12.5301Z" fill="#EDADBF" stroke="black" stroke-width="0.5"/>
<path d="M131.572 9.03032L131.072 7.53032C167.072 -3.46973 199.572 0.530148 235.072 9.53032L232.072 13.0303C192.072 0.530273 166.072 2.03027 131.572 9.03032Z" fill="#EDADBF" stroke="black" stroke-width="0.5"/>
<path d="M131.572 9.03038C183.072 -2.46964 211.572 7.5304 232.072 13.0304" stroke="black" stroke-width="0.5"/>
<path d="M171.074 30.0303L174.574 8.03027C208.074 9.03027 219.574 14.5303 224.074 16.0303L226.557 28.0303C199.567 28.0309 182.072 29.5304 171.074 30.0303Z" fill="#EDADBF"/>
<path d="M227.074 30.5303L224.074 16.0303C219.574 14.5303 208.074 9.03027 174.574 8.03027L171.074 30.0303C182.074 29.5303 199.574 28.0303 226.574 28.0303" stroke="black" stroke-width="0.5"/>
<path d="M165.574 8.03027C132.574 9.03027 112.574 18.0303 93.5742 35.5303L96.0742 33.5303L160.074 30.5303L165.574 8.03027Z" fill="#EDADBF" stroke="black" stroke-width="0.5"/>
<path d="M240.072 22.5303C236.406 19.8636 230.572 17.5303 224.072 16.0303L226.572 28.0303H233.072C236.072 26.5303 239.072 24.299 240.072 22.5303Z" fill="#EDADBF" stroke="black" stroke-width="0.5"/>
<path d="M97.0742 78.5303H164.074L198.574 77.0303H213.074L213.574 82.5303H199.574H98.5742H87.0742V78.5303H97.0742Z" fill="#EDADBF"/>
<path d="M97.0742 78.5303H164.074L198.574 77.0303M97.0742 78.5303C97.0742 80.0303 97.5742 81.0303 98.5742 82.5303M97.0742 78.5303H87.0742V82.5303H98.5742M198.574 77.0303L199.574 82.5303M198.574 77.0303H213.074L213.574 82.5303H199.574M199.574 82.5303H98.5742" stroke="black" stroke-width="0.5"/>
<path d="M97.0733 78.5303C92.5742 74.0303 89.5743 52.0303 93.5733 35.5303L165.574 31.5303C161.574 36.5303 160.574 70.5303 164.074 78.5303H97.0733Z" fill="#EDADBF" stroke="black" stroke-width="0.5"/>
<path d="M229.074 30.5303L165.574 31.5303C161.574 36.5303 160.574 70.5303 164.074 78.5303L198.574 77.0303C203.074 75.5303 209.574 70.0303 229.074 30.5303Z" fill="#EDADBF" stroke="black" stroke-width="0.5"/>
<path d="M171.074 30.0303C166.574 30.5303 163.074 30.5303 160.074 30.5303L165.574 8.03035C168.574 7.53027 171.574 7.53027 174.574 8.03035L171.074 30.0303Z" fill="#EDADBF" stroke="black" stroke-width="0.5"/>
<path d="M99.5742 32.0305C104.074 37.5305 111.074 34.0305 115.074 32.5305C116.074 17.0304 103.074 25.0304 99.5742 32.0305Z" fill="#EDADBF" stroke="black" stroke-width="0.5"/>
<path d="M235.072 9.53027L232.072 13.0303C249.072 18.5303 259.572 21.5303 272.072 28.0303H273.572L281.572 26.5303C266.572 20.0303 259.072 17.5303 235.072 9.53027Z" fill="#EDADBF" stroke="black" stroke-width="0.5"/>
<path d="M272.072 28.0303C261.572 22.5303 242.572 16.0303 232.072 13.0303L230.072 15.5303L245.072 23.0303C243.572 25.5303 239.572 27.5303 233.572 30.2303C245.572 29.5303 262.572 28.5303 272.072 28.0303Z" fill="#EDADBF" stroke="black" stroke-width="0.5"/>
<path d="M277.574 34.3303L283.573 32.0303L273.073 28.0303L229.073 30.5303C221.573 45.5303 206.573 76.0303 198.573 77.0303H213.073C211.573 66.0303 221.073 42.5303 246.074 51.5303C256.574 46.0303 266.574 40.5303 277.574 34.3303Z" fill="#EDADBF" stroke="black" stroke-width="0.5"/>
<path d="M278.572 34.0303C266.572 40.5303 256.572 46.0303 246.072 51.5303C250.572 54.5303 261.072 60.5303 260.072 79.5303L285.072 79.0303V77.5303C293.572 76.5303 302.072 80.0303 300.572 66.0303L302.572 56.0303C302.572 54.5303 300.072 50.5303 297.572 50.0303C299.072 47.5303 296.072 38.5303 296.072 38.5303V37.0303L292.072 34.0303L287.072 32.5303L283.572 32.0303L278.572 34.0303Z" fill="#EDADBF" stroke="black" stroke-width="0.5"/>
<path d="M281.572 26.5303L273.072 28.0303L283.572 32.0303C293.072 33.0303 292.071 34.5303 296.066 36.9505L295.572 28.5303L281.572 26.5303Z" fill="#EDADBF"/>
<path d="M296.072 37.0303L296.066 36.9505M296.066 36.9505L295.572 28.5303L281.572 26.5303L273.072 28.0303L283.572 32.0303C293.072 33.0303 292.071 34.5303 296.066 36.9505Z" stroke="black" stroke-width="0.5"/>
<path d="M294.574 36.5305C294.074 34.0304 283.074 33.8303 277.574 34.3303" stroke="black" stroke-width="0.5"/>
<path d="M300.574 66.5303L261.074 68.5303C260.574 63.5303 258.408 59.3636 256.574 57.5303L302.574 55.0303M301.074 52.5303C290.074 51.0303 279.074 46.2303 267.074 40.2303M229.074 30.5303L273.074 28.0303L281.574 26.5303" stroke="black" stroke-width="0.5"/>
<path d="M291.074 40.5303C291.074 38.5303 290.074 34.5303 286.574 32.5303C288.795 32.5303 292.172 33.5707 294.683 35.9403C295.147 37.4703 294.074 41.0303 291.032 42.5303C291.019 41.94 291.074 41.2546 291.074 40.5303Z" fill="#EDADBF"/>
<path d="M273.074 43.0303C280.07 43.3801 286.087 43.4851 291.467 44.0303M298.074 45.0303C295.971 44.5796 293.778 44.2644 291.467 44.0303M296.074 37.5303C295.656 36.9451 295.187 36.4159 294.683 35.9403M291.467 44.0303C291.141 43.6855 291.047 43.1625 291.032 42.5303M291.032 42.5303C291.019 41.94 291.074 41.2546 291.074 40.5303C291.074 38.5303 290.074 34.5303 286.574 32.5303C288.795 32.5303 292.172 33.5707 294.683 35.9403M291.032 42.5303C294.074 41.0303 295.147 37.4703 294.683 35.9403" stroke="black" stroke-width="0.5"/>
<path d="M291.074 40.5303C286.574 40.5303 284.574 36.5303 283.574 34.0303" stroke="black" stroke-width="0.5"/>
<path d="M133.072 12.6302C119.572 16.6302 107.572 22.5303 93.5723 35.5303C100.572 23.5303 116.072 14.0303 131.572 9.03027L133.072 12.6302Z" fill="#EFC7D3" stroke="black" stroke-width="0.5"/>
<path d="M131.572 9.03027C111.572 14.7043 93.5723 32.0303 85.5723 30.0303C98.5723 20.5303 114.572 12.0303 131.072 7.53027L131.572 9.03027Z" fill="#EFC7D3" stroke="black" stroke-width="0.5"/>
<path d="M10.5729 48.0302H4.57293C2.07227 52.0302 2.07227 62.0302 2.57293 65.5302C1.07227 66.5302 1.07286 71.0302 2.07293 72.5302L6.07293 73.0302V74.5302L2.07293 76.5302V78.5302C6.07293 79.5302 14.5729 81.5302 22.5729 81.0302V79.5302H40.0729C39.4063 71.0302 41.0729 60.5302 50.0729 53.5302C47.5729 49.5302 40.5729 45.0302 37.5729 44.5302C27.5729 43.5302 12.5729 46.0302 10.5729 48.0302Z" fill="#EFC7D3" stroke="black" stroke-width="0.5"/>
<path d="M93.5742 35.5303C75.7409 36.3636 44.0742 41.2303 33.5742 44.2303L37.5742 44.5303C42.5742 46.0303 48.0742 50.3636 50.0742 53.5303C63.0732 44.0303 88.5732 51.0303 87.0732 78.5303H97.0732C90.0732 67.5303 91.0732 45.5303 93.5742 35.5303Z" fill="#EFC7D3" stroke="black" stroke-width="0.5"/>
<path d="M10.5723 48.0303H4.57227C37.0724 28.5302 59.0725 34.5303 85.0723 30.0303L94.0725 35.5303C77.0725 36.5303 48.0723 40.0303 34.0723 44.2303C26.0723 44.0303 12.0723 46.0303 10.5723 48.0303Z" fill="#EFC7D3" stroke="black" stroke-width="0.5"/>
<path d="M37.5737 44.5303C30.0737 43.5303 13.0737 45.5303 10.5737 48.0303C9.77372 50.4303 12.9071 53.3636 14.5737 54.5303C24.0737 56.0303 37.5737 50.0303 37.5737 44.5303Z" fill="#EFC7D3" stroke="black" stroke-width="0.5"/>
<path d="M4.57296 48.0303C11.573 49.0303 5.57296 59.5303 2.57296 64.5303C2.07289 57.5303 2.57275 52.0303 4.57296 48.0303Z" fill="#EFC7D3" stroke="black" stroke-width="0.5"/>
<path d="M22.5723 84.0303V79.5303H40.0723L40.5723 84.0303H22.5723Z" fill="#EFC7D3" stroke="black" stroke-width="0.5"/>
<path d="M3.07422 65.5303C4.57422 68.0303 6.57422 71.1969 6.07422 73.0303M22.5742 79.5303C12.0742 80.0303 7.57422 76.0303 8.57422 72.5303C9.07422 72.0303 10.5742 70.5303 11.5742 70.5303" stroke="black" stroke-width="0.5"/>
<path d="M32.5742 74.5304C30.0742 70.5304 24.5742 65.5305 21.5742 64.0305C19.8242 63.5305 17.1991 63.6555 14.449 64.0305C12.8241 65.3638 11.5742 68.5304 12.0742 71.5304C12.0742 72.6971 13.3816 75.0304 16.0742 75.0304C20.5742 75.0304 27.5742 75.5304 32.5742 74.5304Z" fill="#EFC7D3"/>
<path d="M6.57422 65.5305C8.82416 65.0304 11.6991 64.4055 14.449 64.0305M14.449 64.0305C17.1991 63.6555 19.8242 63.5305 21.5742 64.0305C24.5742 65.5305 30.0742 70.5304 32.5742 74.5304C27.5742 75.5304 20.5742 75.0304 16.0742 75.0304C13.3816 75.0304 12.0742 72.6971 12.0742 71.5304C11.5742 68.5304 12.8241 65.3638 14.449 64.0305Z" stroke="black" stroke-width="0.5"/>
<path d="M12.0742 71.0305C20.0742 69.5305 23.5742 72.159 26.5742 73.659M13.5742 74.0305L31.0742 73.5305" stroke="black" stroke-width="0.5"/>
<path d="M22.5723 82.5303H32.0723C34.0723 82.5303 35.5723 80.5303 35.0723 79.5303M38.5723 79.5303V84.0303" stroke="black" stroke-width="0.5"/>
<path d="M22.5742 81.0305C18.0742 81.0305 13.5742 81.5305 2.07416 78.5305V76.5305L6.07417 74.5305V73.0305L2.07416 72.5305C1.57324 71.0303 0.573438 68.0303 2.57343 65.5303C2.07368 57.5303 2.57368 51.0303 4.57417 48.03C37.0742 28.5304 59.0742 34.5305 85.0742 30.0305C163.074 -24.9697 245.074 12.0303 282.074 26.5305L295.574 28.5303L296.074 35.5303V38.5303C297.573 43.5303 298.908 48.0303 297.574 50.0303C300.074 51.0303 302.574 54.1969 302.574 56.0303L300.574 66.0303C301.026 76.8782 298.618 77.1025 289.286 77.4149C288.295 77.4481 286.226 77.4823 285.074 77.5303V79.0303L260.074 79.4613M22.5742 81.0305V84.0305H40.5725L40.0742 79.5305M22.5742 81.0305V79.5305H40.0742M40.0742 79.5305C37.0742 38.0305 90.5742 41.0305 87.0742 80.0305V82.5303H213.574C207.574 39.0303 262.074 39.0303 260.074 79.4613M259.573 79.4613H260.074" stroke="black"/>
</svg>
