<svg width="303" height="96" viewBox="0 0 303 96" fill="none" xmlns="http://www.w3.org/2000/svg">
<circle cx="62.4473" cy="74.5227" r="20.5" fill="#E0426F" stroke="black"/>
<circle cx="235.447" cy="74.5227" r="20.5" fill="#E0426F" stroke="black"/>
<path d="M132.445 13.0226L130.945 9.52256C170.945 1.52267 192.445 2.02271 231.445 13.5227L227.945 18.0226C207.945 10.0226 189.945 9.02261 173.945 8.52268C171.445 8.02268 167.445 8.02264 164.945 8.52256C154.945 8.52268 142.945 10.0227 132.445 13.0226Z" fill="#EFC7D3" stroke="black" stroke-width="0.5"/>
<path d="M130.945 9.52275L130.445 8.02275C166.445 -2.97729 198.945 1.02258 234.445 10.0228L231.445 13.5228C191.445 1.02271 165.445 2.52271 130.945 9.52275Z" fill="#EFC7D3" stroke="black" stroke-width="0.5"/>
<path d="M130.945 9.52269C182.445 -1.97733 210.945 8.02271 231.445 13.5227" stroke="black" stroke-width="0.5"/>
<path d="M170.447 30.5227L173.947 8.52271C207.447 9.52271 218.947 15.0227 223.447 16.5227L225.93 28.5227C198.94 28.5233 181.445 30.0228 170.447 30.5227Z" fill="#EFC7D3"/>
<path d="M226.447 31.0227L223.447 16.5227C218.947 15.0227 207.447 9.52271 173.947 8.52271L170.447 30.5227C181.447 30.0227 198.947 28.5227 225.947 28.5227" stroke="black" stroke-width="0.5"/>
<path d="M164.947 8.52271C131.947 9.52271 111.947 18.5227 92.9473 36.0227L95.4473 34.0227L159.447 31.0227L164.947 8.52271Z" fill="#EFC7D3" stroke="black" stroke-width="0.5"/>
<path d="M239.445 23.0227C235.779 20.356 229.945 18.0227 223.445 16.5227L225.945 28.5227H232.445C235.445 27.0227 238.445 24.7914 239.445 23.0227Z" fill="#EFC7D3" stroke="black" stroke-width="0.5"/>
<path d="M96.4473 79.0227H163.447L197.947 77.5227H212.447L212.947 83.0227H198.947H97.9473H86.4473V79.0227H96.4473Z" fill="#EFC7D3"/>
<path d="M96.4473 79.0227H163.447L197.947 77.5227M96.4473 79.0227C96.4473 80.5227 96.9473 81.5227 97.9473 83.0227M96.4473 79.0227H86.4473V83.0227H97.9473M197.947 77.5227L198.947 83.0227M197.947 77.5227H212.447L212.947 83.0227H198.947M198.947 83.0227H97.9473" stroke="black" stroke-width="0.5"/>
<path d="M96.4464 79.0227C91.9473 74.5227 88.9473 52.5227 92.9464 36.0227L164.947 32.0227C160.947 37.0227 159.947 71.0227 163.447 79.0227H96.4464Z" fill="#EFC7D3" stroke="black" stroke-width="0.5"/>
<path d="M228.447 31.0227L164.947 32.0227C160.947 37.0227 159.948 71.0227 163.447 79.0227L197.947 77.5227C202.447 76.0227 208.947 70.5227 228.447 31.0227Z" fill="#EFC7D3" stroke="black" stroke-width="0.5"/>
<path d="M170.447 30.5228C165.947 31.0228 162.447 31.0228 159.447 31.0228L164.947 8.52278C167.947 8.02271 170.947 8.02271 173.947 8.52278L170.447 30.5228Z" fill="#EFC7D3" stroke="black" stroke-width="0.5"/>
<path d="M98.9473 32.5228C103.447 38.0228 110.447 34.5228 114.447 33.0228C115.447 17.5227 102.447 25.5227 98.9473 32.5228Z" fill="#EFC7D3" stroke="black" stroke-width="0.5"/>
<path d="M234.445 10.0227L231.445 13.5227C248.445 19.0227 258.945 22.0227 271.445 28.5227H272.945L280.945 27.0227C265.945 20.5227 258.445 18.0227 234.445 10.0227Z" fill="#E0426F" stroke="black" stroke-width="0.5"/>
<path d="M271.445 28.5227C260.945 23.0227 241.945 16.5227 231.445 13.5227L229.445 16.0227L244.445 23.5227C242.945 26.0227 238.945 28.0227 232.945 30.7227C244.945 30.0227 261.945 29.0227 271.445 28.5227Z" fill="#E0426F" stroke="black" stroke-width="0.5"/>
<path d="M276.947 34.8227L282.946 32.5227L272.446 28.5227L228.446 31.0227C220.946 46.0227 205.946 76.5227 197.946 77.5227H212.446C210.946 66.5227 220.446 43.0227 245.447 52.0227C255.947 46.5227 265.947 41.0227 276.947 34.8227Z" fill="#E0426F" stroke="black" stroke-width="0.5"/>
<path d="M277.945 34.5227C265.945 41.0227 255.945 46.5227 245.445 52.0227C249.945 55.0227 260.445 61.0227 259.445 80.0227L284.445 79.5227V78.0227C292.945 77.0227 301.445 80.5227 299.945 66.5227L301.945 56.5227C301.945 55.0227 299.445 51.0227 296.945 50.5227C298.445 48.0227 295.445 39.0227 295.445 39.0227V37.5227L291.445 34.5227L286.445 33.0227L282.945 32.5227L277.945 34.5227Z" fill="#E0426F" stroke="black" stroke-width="0.5"/>
<path d="M280.945 27.0227L272.445 28.5227L282.945 32.5227C292.445 33.5227 291.444 35.0227 295.439 37.4429L294.945 29.0227L280.945 27.0227Z" fill="#E0426F"/>
<path d="M295.445 37.5227L295.439 37.4429M295.439 37.4429L294.945 29.0227L280.945 27.0227L272.445 28.5227L282.945 32.5227C292.445 33.5227 291.444 35.0227 295.439 37.4429Z" stroke="black" stroke-width="0.5"/>
<path d="M293.947 37.0229C293.447 34.5228 282.447 34.3227 276.947 34.8227" stroke="black" stroke-width="0.5"/>
<path d="M299.947 67.0227L260.447 69.0227C259.947 64.0227 257.781 59.856 255.947 58.0227L301.947 55.5227M300.447 53.0227C289.447 51.5227 278.447 46.7227 266.447 40.7227M228.447 31.0227L272.447 28.5227L280.947 27.0227" stroke="black" stroke-width="0.5"/>
<path d="M290.447 41.0227C290.447 39.0227 289.447 35.0227 285.947 33.0227C288.168 33.0227 291.545 34.0631 294.056 36.4327C294.52 37.9627 293.447 41.5227 290.405 43.0227C290.392 42.4324 290.447 41.747 290.447 41.0227Z" fill="#E0426F"/>
<path d="M272.447 43.5227C279.443 43.8725 285.46 43.9776 290.84 44.5227M297.447 45.5227C295.344 45.0721 293.151 44.7568 290.84 44.5227M295.447 38.0227C295.029 37.4376 294.56 36.9084 294.056 36.4327M290.84 44.5227C290.514 44.1779 290.42 43.6549 290.405 43.0227M290.405 43.0227C290.392 42.4324 290.447 41.747 290.447 41.0227C290.447 39.0227 289.447 35.0227 285.947 33.0227C288.168 33.0227 291.545 34.0631 294.056 36.4327M290.405 43.0227C293.447 41.5227 294.52 37.9627 294.056 36.4327" stroke="black" stroke-width="0.5"/>
<path d="M290.447 41.0227C285.947 41.0227 283.947 37.0227 282.947 34.5227" stroke="black" stroke-width="0.5"/>
<path d="M132.445 13.1227C118.945 17.1227 106.945 23.0227 92.9453 36.0227C99.9453 24.0227 115.445 14.5227 130.945 9.52271L132.445 13.1227Z" fill="#E56E90" stroke="black" stroke-width="0.5"/>
<path d="M130.945 9.52271C110.945 15.1967 92.9453 32.5227 84.9453 30.5227C97.9453 21.0227 113.945 12.5227 130.445 8.02271L130.945 9.52271Z" fill="#E56E90" stroke="black" stroke-width="0.5"/>
<path d="M9.94598 48.5227H3.94598C1.44531 52.5227 1.44531 62.5227 1.94598 66.0227C0.445312 67.0227 0.44591 71.5227 1.44598 73.0227L5.44598 73.5227V75.0227L1.44598 77.0227V79.0227C5.44598 80.0227 13.946 82.0227 21.946 81.5227V80.0227H39.446C38.7793 71.5227 40.446 61.0227 49.446 54.0227C46.946 50.0227 39.946 45.5227 36.946 45.0227C26.946 44.0227 11.946 46.5227 9.94598 48.5227Z" fill="#E56E90" stroke="black" stroke-width="0.5"/>
<path d="M92.9473 36.0227C75.1139 36.856 43.4473 41.7227 32.9473 44.7227L36.9473 45.0227C41.9473 46.5227 47.4473 50.856 49.4473 54.0227C62.4463 44.5227 87.9463 51.5227 86.4463 79.0227H96.4463C89.4463 68.0227 90.4463 46.0227 92.9473 36.0227Z" fill="#E56E90" stroke="black" stroke-width="0.5"/>
<path d="M9.94531 48.5228H3.94531C36.4455 29.0227 58.4456 35.0227 84.4453 30.5227L93.4456 36.0227C76.4456 37.0227 47.4453 40.5227 33.4453 44.7227C25.4453 44.5227 11.4453 46.5227 9.94531 48.5228Z" fill="#E56E90" stroke="black" stroke-width="0.5"/>
<path d="M36.9468 45.0228C29.4468 44.0227 12.4468 46.0227 9.94677 48.5228C9.14677 50.9227 12.2801 53.856 13.9468 55.0227C23.4468 56.5227 36.9468 50.5227 36.9468 45.0228Z" fill="#E56E90" stroke="black" stroke-width="0.5"/>
<path d="M3.94601 48.5227C10.946 49.5227 4.94601 60.0227 1.94601 65.0227C1.44594 58.0227 1.9458 52.5227 3.94601 48.5227Z" fill="#E56E90" stroke="black" stroke-width="0.5"/>
<path d="M21.9453 84.5227V80.0227H39.4453L39.9453 84.5227H21.9453Z" fill="#E56E90" stroke="black" stroke-width="0.5"/>
<path d="M2.44727 66.0225C3.94727 68.5225 5.94727 71.6891 5.44727 73.5225M21.9473 80.0225C11.4473 80.5225 6.94727 76.5225 7.94727 73.0225C8.44727 72.5225 9.94727 71.0225 10.9473 71.0225" stroke="black" stroke-width="0.5"/>
<path d="M31.9473 75.0226C29.4473 71.0226 23.9473 66.0227 20.9473 64.5227C19.1972 64.0227 16.5721 64.1477 13.8221 64.5227C12.1971 65.856 10.9473 69.0226 11.4473 72.0226C11.4473 73.1892 12.7547 75.5226 15.4473 75.5226C19.9473 75.5226 26.9473 76.0226 31.9473 75.0226Z" fill="#E56E90"/>
<path d="M5.94727 66.0227C8.19721 65.5226 11.0721 64.8977 13.8221 64.5227M13.8221 64.5227C16.5721 64.1477 19.1972 64.0227 20.9473 64.5227C23.9473 66.0227 29.4473 71.0226 31.9473 75.0226C26.9473 76.0226 19.9473 75.5226 15.4473 75.5226C12.7547 75.5226 11.4473 73.1892 11.4473 72.0226C10.9473 69.0226 12.1971 65.856 13.8221 64.5227Z" stroke="black" stroke-width="0.5"/>
<path d="M11.4473 71.5227C19.4473 70.0227 22.9473 72.6512 25.9473 74.1512M12.9473 74.5227L30.4473 74.0227" stroke="black" stroke-width="0.5"/>
<path d="M21.9453 83.0225H31.4453C33.4453 83.0225 34.9453 81.0225 34.4453 80.0225M37.9453 80.0225V84.5225" stroke="black" stroke-width="0.5"/>
<path d="M21.9472 81.5229C17.4472 81.5229 12.9472 82.0229 1.44721 79.0229V77.0229L5.44721 75.0229V73.5229L1.44721 73.023C0.946289 71.5227 -0.0535151 68.5227 1.94648 66.0227C1.44672 58.0227 1.94672 51.5227 3.94721 48.5224C36.4472 29.0228 58.4472 35.0229 84.4472 30.5229C162.447 -24.4772 244.447 12.5227 281.447 27.0229L294.947 29.0227L295.447 36.0227V39.0227C296.946 44.0227 298.281 48.5227 296.947 50.5227C299.447 51.5227 301.947 54.6894 301.947 56.5227L299.947 66.5227C300.399 77.3706 297.991 77.5949 288.66 77.9073C287.668 77.9405 285.599 77.9747 284.447 78.0227V79.5227L259.447 79.9537M21.9472 81.5229V84.5229H39.9456L39.4472 80.0229M21.9472 81.5229V80.0229H39.4472M39.4472 80.0229C36.4472 38.5229 89.9472 41.5229 86.4472 80.5229V83.0227H212.947C206.947 39.5227 261.447 39.5227 259.447 79.9537M258.946 79.9537H259.447" stroke="black"/>
</svg>
