<svg width="303" height="96" viewBox="0 0 303 96" fill="none" xmlns="http://www.w3.org/2000/svg">
<circle cx="62.2607" cy="74.1995" r="20.5" fill="#E56E90" stroke="black"/>
<circle cx="235.261" cy="74.1995" r="20.5" fill="#E56E90" stroke="black"/>
<path d="M132.259 12.6993L130.759 9.19932C170.759 1.19943 192.259 1.69946 231.259 13.1994L227.759 17.6994C207.759 9.69937 189.759 8.69937 173.759 8.19944C171.259 7.69944 167.259 7.6994 164.759 8.19932C154.759 8.19944 142.759 9.69944 132.259 12.6993Z" fill="#EDADBF" stroke="black" stroke-width="0.5"/>
<path d="M130.759 9.19951L130.259 7.69951C166.259 -3.30054 198.759 0.699337 234.259 9.69951L231.259 13.1995C191.259 0.699463 165.259 2.19946 130.759 9.19951Z" fill="#EDADBF" stroke="black" stroke-width="0.5"/>
<path d="M130.759 9.19933C182.259 -2.3007 210.759 7.69934 231.259 13.1993" stroke="black" stroke-width="0.5"/>
<path d="M170.261 30.1995L173.761 8.19946C207.261 9.19946 218.761 14.6995 223.261 16.1995L225.743 28.1995C198.753 28.2001 181.258 29.6996 170.261 30.1995Z" fill="#EDADBF"/>
<path d="M226.261 30.6995L223.261 16.1995C218.761 14.6995 207.261 9.19946 173.761 8.19946L170.261 30.1995C181.261 29.6995 198.761 28.1995 225.761 28.1995" stroke="black" stroke-width="0.5"/>
<path d="M164.761 8.19946C131.761 9.19946 111.761 18.1995 92.7607 35.6995L95.2607 33.6995L159.261 30.6995L164.761 8.19946Z" fill="#EDADBF" stroke="black" stroke-width="0.5"/>
<path d="M239.259 22.6995C235.592 20.0328 229.759 17.6995 223.259 16.1995L225.759 28.1995H232.259C235.259 26.6995 238.259 24.4682 239.259 22.6995Z" fill="#EDADBF" stroke="black" stroke-width="0.5"/>
<path d="M96.2607 78.6995H163.261L197.761 77.1995H212.261L212.761 82.6995H198.761H97.7607H86.2607V78.6995H96.2607Z" fill="#EDADBF"/>
<path d="M96.2607 78.6995H163.261L197.761 77.1995M96.2607 78.6995C96.2607 80.1995 96.7607 81.1995 97.7607 82.6995M96.2607 78.6995H86.2607V82.6995H97.7607M197.761 77.1995L198.761 82.6995M197.761 77.1995H212.261L212.761 82.6995H198.761M198.761 82.6995H97.7607" stroke="black" stroke-width="0.5"/>
<path d="M96.2599 78.6995C91.7607 74.1995 88.7608 52.1995 92.7599 35.6995L164.761 31.6995C160.761 36.6995 159.761 70.6995 163.261 78.6995H96.2599Z" fill="#EDADBF" stroke="black" stroke-width="0.5"/>
<path d="M228.261 30.6995L164.761 31.6995C160.761 36.6995 159.761 70.6995 163.261 78.6995L197.761 77.1995C202.261 75.6995 208.761 70.1995 228.261 30.6995Z" fill="#EDADBF" stroke="black" stroke-width="0.5"/>
<path d="M170.261 30.1995C165.761 30.6995 162.261 30.6995 159.261 30.6995L164.761 8.19954C167.761 7.69946 170.761 7.69946 173.761 8.19954L170.261 30.1995Z" fill="#EDADBF" stroke="black" stroke-width="0.5"/>
<path d="M98.7607 32.1995C103.261 37.6995 110.261 34.1995 114.261 32.6995C115.261 17.1994 102.261 25.1993 98.7607 32.1995Z" fill="#EDADBF" stroke="black" stroke-width="0.5"/>
<path d="M234.259 9.69946L231.259 13.1995C248.259 18.6995 258.759 21.6995 271.259 28.1995H272.759L280.759 26.6995C265.759 20.1995 258.259 17.6995 234.259 9.69946Z" fill="#E56E90" stroke="black" stroke-width="0.5"/>
<path d="M271.259 28.1995C260.759 22.6995 241.759 16.1995 231.259 13.1995L229.259 15.6995L244.259 23.1995C242.759 25.6995 238.759 27.6995 232.759 30.3995C244.759 29.6995 261.759 28.6995 271.259 28.1995Z" fill="#E56E90" stroke="black" stroke-width="0.5"/>
<path d="M276.761 34.4995L282.759 32.1995L272.26 28.1995L228.26 30.6995C220.76 45.6995 205.76 76.1995 197.76 77.1995H212.26C210.76 66.1995 220.26 42.6995 245.261 51.6995C255.761 46.1995 265.761 40.6995 276.761 34.4995Z" fill="#E56E90" stroke="black" stroke-width="0.5"/>
<path d="M277.759 34.1995C265.759 40.6995 255.759 46.1995 245.259 51.6995C249.759 54.6995 260.259 60.6995 259.259 79.6995L284.259 79.1995V77.6995C292.759 76.6995 301.259 80.1995 299.759 66.1995L301.759 56.1995C301.759 54.6995 299.259 50.6995 296.759 50.1995C298.259 47.6995 295.259 38.6995 295.259 38.6995V37.1995L291.259 34.1995L286.259 32.6995L282.759 32.1995L277.759 34.1995Z" fill="#E56E90" stroke="black" stroke-width="0.5"/>
<path d="M280.759 26.6995L272.259 28.1995L282.759 32.1995C292.259 33.1995 291.258 34.6995 295.253 37.1196L294.759 28.6995L280.759 26.6995Z" fill="#E56E90"/>
<path d="M295.259 37.1995L295.253 37.1196M295.253 37.1196L294.759 28.6995L280.759 26.6995L272.259 28.1995L282.759 32.1995C292.259 33.1995 291.258 34.6995 295.253 37.1196Z" stroke="black" stroke-width="0.5"/>
<path d="M293.761 36.6997C293.261 34.1996 282.261 33.9995 276.761 34.4995" stroke="black" stroke-width="0.5"/>
<path d="M299.761 66.6995L260.261 68.6995C259.761 63.6995 257.594 59.5328 255.761 57.6995L301.761 55.1995M300.261 52.6995C289.261 51.1995 278.261 46.3995 266.261 40.3995M228.261 30.6995L272.261 28.1995L280.761 26.6995" stroke="black" stroke-width="0.5"/>
<path d="M290.261 40.6995C290.261 38.6995 289.261 34.6995 285.761 32.6995C287.982 32.6995 291.358 33.7399 293.87 36.1094C294.333 37.6395 293.261 41.1995 290.219 42.6995C290.205 42.1092 290.261 41.4238 290.261 40.6995Z" fill="#E56E90"/>
<path d="M272.261 43.1995C279.256 43.5492 285.273 43.6543 290.654 44.1995M297.261 45.1995C295.158 44.7488 292.964 44.4336 290.654 44.1995M295.261 37.6995C294.843 37.1143 294.374 36.5851 293.87 36.1094M290.654 44.1995C290.328 43.8547 290.234 43.3317 290.219 42.6995M290.219 42.6995C290.205 42.1092 290.261 41.4238 290.261 40.6995C290.261 38.6995 289.261 34.6995 285.761 32.6995C287.982 32.6995 291.358 33.7399 293.87 36.1094M290.219 42.6995C293.261 41.1995 294.333 37.6395 293.87 36.1094" stroke="black" stroke-width="0.5"/>
<path d="M290.261 40.6995C285.761 40.6995 283.761 36.6995 282.761 34.1995" stroke="black" stroke-width="0.5"/>
<path d="M132.259 12.7994C118.759 16.7994 106.759 22.6995 92.7588 35.6995C99.7588 23.6995 115.259 14.1995 130.759 9.19946L132.259 12.7994Z" fill="#EDADBF" stroke="black" stroke-width="0.5"/>
<path d="M130.759 9.19946C110.759 14.8735 92.7588 32.1995 84.7588 30.1995C97.7588 20.6995 113.759 12.1995 130.259 7.69946L130.759 9.19946Z" fill="#EDADBF" stroke="black" stroke-width="0.5"/>
<path d="M9.75946 48.1993H3.75946C1.25879 52.1993 1.25879 62.1993 1.75946 65.6993C0.258789 66.6993 0.259387 71.1993 1.25946 72.6993L5.25946 73.1993V74.6993L1.25946 76.6993V78.6993C5.25946 79.6993 13.7595 81.6993 21.7595 81.1993V79.6993H39.2595C38.5928 71.1993 40.2595 60.6993 49.2595 53.6993C46.7595 49.6993 39.7595 45.1993 36.7595 44.6993C26.7595 43.6993 11.7595 46.1993 9.75946 48.1993Z" fill="#EDADBF" stroke="black" stroke-width="0.5"/>
<path d="M92.7607 35.6995C74.9274 36.5328 43.2607 41.3995 32.7607 44.3995L36.7607 44.6995C41.7607 46.1995 47.2607 50.5328 49.2607 53.6995C62.2598 44.1995 87.7598 51.1995 86.2598 78.6995H96.2598C89.2598 67.6995 90.2598 45.6995 92.7607 35.6995Z" fill="#EDADBF" stroke="black" stroke-width="0.5"/>
<path d="M9.75879 48.1995H3.75879C36.259 28.6994 58.259 34.6995 84.2588 30.1995L93.259 35.6995C76.259 36.6995 47.2588 40.1995 33.2588 44.3995C25.2588 44.1995 11.2588 46.1995 9.75879 48.1995Z" fill="#EDADBF" stroke="black" stroke-width="0.5"/>
<path d="M36.7602 44.6995C29.2602 43.6995 12.2602 45.6995 9.76024 48.1995C8.96024 50.5995 12.0936 53.5328 13.7602 54.6995C23.2603 56.1995 36.7602 50.1995 36.7602 44.6995Z" fill="#EDADBF" stroke="black" stroke-width="0.5"/>
<path d="M3.75948 48.1995C10.7595 49.1995 4.75948 59.6995 1.75948 64.6995C1.25941 57.6995 1.75928 52.1995 3.75948 48.1995Z" fill="#EDADBF" stroke="black" stroke-width="0.5"/>
<path d="M21.7588 84.1995V79.6995H39.2588L39.7588 84.1995H21.7588Z" fill="#EDADBF" stroke="black" stroke-width="0.5"/>
<path d="M2.26074 65.6992C3.76074 68.1992 5.76074 71.3659 5.26074 73.1992M21.7607 79.6992C11.2607 80.1992 6.76074 76.1992 7.76074 72.6992C8.26074 72.1992 9.76074 70.6992 10.7607 70.6992" stroke="black" stroke-width="0.5"/>
<path d="M31.7607 74.6993C29.2607 70.6993 23.7607 65.6994 20.7607 64.1994C19.0107 63.6994 16.3856 63.8244 13.6355 64.1994C12.0106 65.5327 10.7607 68.6993 11.2607 71.6993C11.2607 72.866 12.5682 75.1993 15.2607 75.1993C19.7607 75.1993 26.7607 75.6993 31.7607 74.6993Z" fill="#EDADBF"/>
<path d="M5.76074 65.6994C8.01068 65.1994 10.8856 64.5744 13.6355 64.1994M13.6355 64.1994C16.3856 63.8244 19.0107 63.6994 20.7607 64.1994C23.7607 65.6994 29.2607 70.6993 31.7607 74.6993C26.7607 75.6993 19.7607 75.1993 15.2607 75.1993C12.5682 75.1993 11.2607 72.866 11.2607 71.6993C10.7607 68.6993 12.0106 65.5327 13.6355 64.1994Z" stroke="black" stroke-width="0.5"/>
<path d="M11.2607 71.1994C19.2607 69.6995 22.7607 72.3279 25.7607 73.8279M12.7607 74.1995L30.2607 73.6995" stroke="black" stroke-width="0.5"/>
<path d="M21.7588 82.6992H31.2588C33.2588 82.6992 34.7588 80.6992 34.2588 79.6992M37.7588 79.6992V84.1992" stroke="black" stroke-width="0.5"/>
<path d="M21.7607 81.1997C17.2607 81.1997 12.7607 81.6997 1.26069 78.6997V76.6997L5.26069 74.6997V73.1997L1.26069 72.6997C0.759766 71.1995 -0.240039 68.1995 1.75996 65.6995C1.2602 57.6995 1.7602 51.1995 3.76069 48.1992C36.2607 28.6996 58.2607 34.6997 84.2607 30.1997C162.261 -24.8005 244.261 12.1994 281.261 26.6996L294.761 28.6995L295.261 35.6995V38.6995C296.759 43.6995 298.094 48.1995 296.761 50.1995C299.261 51.1995 301.761 54.3661 301.761 56.1995L299.761 66.1995C300.213 77.0474 297.805 77.2717 288.473 77.5841C287.482 77.6173 285.413 77.6515 284.261 77.6995V79.1995L259.261 79.6305M21.7607 81.1997V84.1997H39.759L39.2607 79.6997M21.7607 81.1997V79.6997H39.2607M39.2607 79.6997C36.2607 38.1997 89.7607 41.1997 86.2607 80.1997V82.6995H212.761C206.761 39.1995 261.261 39.1995 259.261 79.6305M258.759 79.6305H259.261" stroke="black"/>
</svg>
