<svg width="303" height="96" viewBox="0 0 303 96" fill="none" xmlns="http://www.w3.org/2000/svg">
<circle cx="62.2915" cy="74.1995" r="20.5" fill="#E56E90" stroke="black"/>
<circle cx="235.292" cy="74.1995" r="20.5" fill="#E56E90" stroke="black"/>
<path d="M132.29 12.6993L130.79 9.19932C170.79 1.19943 192.29 1.69946 231.29 13.1994L227.79 17.6994C207.79 9.69937 189.79 8.69937 173.79 8.19944C171.29 7.69944 167.29 7.6994 164.79 8.19932C154.79 8.19944 142.79 9.69944 132.29 12.6993Z" fill="#EDADBF" stroke="black" stroke-width="0.5"/>
<path d="M130.79 9.19951L130.29 7.69951C166.29 -3.30054 198.79 0.699337 234.29 9.69951L231.29 13.1995C191.29 0.699463 165.29 2.19946 130.79 9.19951Z" fill="#EDADBF" stroke="black" stroke-width="0.5"/>
<path d="M130.79 9.19933C182.29 -2.3007 210.79 7.69934 231.29 13.1993" stroke="black" stroke-width="0.5"/>
<path d="M170.292 30.1995L173.792 8.19946C207.292 9.19946 218.792 14.6995 223.292 16.1995L225.774 28.1995C198.784 28.2001 181.289 29.6996 170.292 30.1995Z" fill="#EDADBF"/>
<path d="M226.292 30.6995L223.292 16.1995C218.792 14.6995 207.292 9.19946 173.792 8.19946L170.292 30.1995C181.292 29.6995 198.792 28.1995 225.792 28.1995" stroke="black" stroke-width="0.5"/>
<path d="M164.792 8.19946C131.792 9.19946 111.792 18.1995 92.7915 35.6995L95.2915 33.6995L159.292 30.6995L164.792 8.19946Z" fill="#EDADBF" stroke="black" stroke-width="0.5"/>
<path d="M239.29 22.6995C235.623 20.0328 229.79 17.6995 223.29 16.1995L225.79 28.1995H232.29C235.29 26.6995 238.29 24.4682 239.29 22.6995Z" fill="#EDADBF" stroke="black" stroke-width="0.5"/>
<path d="M96.2915 78.6995H163.292L197.792 77.1995H212.292L212.792 82.6995H198.792H97.7915H86.2915V78.6995H96.2915Z" fill="#EDADBF"/>
<path d="M96.2915 78.6995H163.292L197.792 77.1995M96.2915 78.6995C96.2915 80.1995 96.7915 81.1995 97.7915 82.6995M96.2915 78.6995H86.2915V82.6995H97.7915M197.792 77.1995L198.792 82.6995M197.792 77.1995H212.292L212.792 82.6995H198.792M198.792 82.6995H97.7915" stroke="black" stroke-width="0.5"/>
<path d="M96.2906 78.6995C91.7915 74.1995 88.7915 52.1995 92.7906 35.6995L164.792 31.6995C160.792 36.6995 159.792 70.6995 163.291 78.6995H96.2906Z" fill="#EDADBF" stroke="black" stroke-width="0.5"/>
<path d="M228.291 30.6995L164.791 31.6995C160.791 36.6995 159.791 70.6995 163.291 78.6995L197.791 77.1995C202.291 75.6995 208.791 70.1995 228.291 30.6995Z" fill="#EDADBF" stroke="black" stroke-width="0.5"/>
<path d="M170.292 30.1995C165.792 30.6995 162.292 30.6995 159.292 30.6995L164.792 8.19954C167.792 7.69946 170.792 7.69946 173.792 8.19954L170.292 30.1995Z" fill="#EDADBF" stroke="black" stroke-width="0.5"/>
<path d="M98.7915 32.1995C103.292 37.6995 110.292 34.1995 114.292 32.6995C115.292 17.1994 102.292 25.1993 98.7915 32.1995Z" fill="#EDADBF" stroke="black" stroke-width="0.5"/>
<path d="M234.29 9.69946L231.29 13.1995C248.29 18.6995 258.79 21.6995 271.29 28.1995H272.79L280.79 26.6995C265.79 20.1995 258.29 17.6995 234.29 9.69946Z" stroke="black" stroke-width="0.5"/>
<path d="M271.29 28.1995C260.79 22.6995 241.79 16.1995 231.29 13.1995L229.29 15.6995L244.29 23.1995C242.79 25.6995 238.79 27.6995 232.79 30.3995C244.79 29.6995 261.79 28.6995 271.29 28.1995Z" stroke="black" stroke-width="0.5"/>
<path d="M276.792 34.4995L282.79 32.1995L272.291 28.1995L228.291 30.6995C220.791 45.6995 205.791 76.1995 197.791 77.1995H212.291C210.791 66.1995 220.291 42.6995 245.292 51.6995C255.792 46.1995 265.792 40.6995 276.792 34.4995Z" stroke="black" stroke-width="0.5"/>
<path d="M277.79 34.1995C265.79 40.6995 255.79 46.1995 245.29 51.6995C249.79 54.6995 260.29 60.6995 259.29 79.6995L284.29 79.1995V77.6995C292.79 76.6995 301.29 80.1995 299.79 66.1995L301.79 56.1995C301.79 54.6995 299.29 50.6995 296.79 50.1995C298.29 47.6995 295.29 38.6995 295.29 38.6995V37.1995L291.29 34.1995L286.29 32.6995L282.79 32.1995L277.79 34.1995Z" stroke="black" stroke-width="0.5"/>
<path d="M295.29 37.1995L295.284 37.1196M295.284 37.1196L294.79 28.6995L280.79 26.6995L272.29 28.1995L282.79 32.1995C292.29 33.1995 291.289 34.6995 295.284 37.1196Z" stroke="black" stroke-width="0.5"/>
<path d="M293.792 36.6997C293.292 34.1996 282.292 33.9995 276.792 34.4995" stroke="black" stroke-width="0.5"/>
<path d="M299.792 66.6995L260.292 68.6995C259.792 63.6995 257.625 59.5328 255.792 57.6995L301.792 55.1995M300.292 52.6995C289.292 51.1995 278.292 46.3995 266.292 40.3995M228.292 30.6995L272.292 28.1995L280.792 26.6995" stroke="black" stroke-width="0.5"/>
<path d="M272.292 43.1995C279.287 43.5492 285.304 43.6543 290.685 44.1995M297.292 45.1995C295.189 44.7488 292.995 44.4336 290.685 44.1995M295.292 37.6995C294.874 37.1143 294.404 36.5851 293.9 36.1094M290.685 44.1995C290.358 43.8547 290.264 43.3317 290.25 42.6995M290.25 42.6995C290.236 42.1092 290.292 41.4238 290.292 40.6995C290.292 38.6995 289.292 34.6995 285.792 32.6995C288.012 32.6995 291.389 33.7399 293.9 36.1094M290.25 42.6995C293.292 41.1995 294.364 37.6395 293.9 36.1094" stroke="black" stroke-width="0.5"/>
<path d="M290.292 40.6995C285.792 40.6995 283.792 36.6995 282.792 34.1995" stroke="black" stroke-width="0.5"/>
<path d="M132.29 12.7994C118.79 16.7994 106.79 22.6995 92.79 35.6995C99.79 23.6995 115.29 14.1995 130.79 9.19946L132.29 12.7994Z" fill="#EDADBF" stroke="black" stroke-width="0.5"/>
<path d="M130.79 9.19946C110.79 14.8735 92.79 32.1995 84.79 30.1995C97.79 20.6995 113.79 12.1995 130.29 7.69946L130.79 9.19946Z" fill="#EDADBF" stroke="black" stroke-width="0.5"/>
<path d="M9.79071 48.1993H3.79071C1.29004 52.1993 1.29004 62.1993 1.79071 65.6993C0.290039 66.6993 0.290637 71.1993 1.29071 72.6993L5.29071 73.1993V74.6993L1.29071 76.6993V78.6993C5.29071 79.6993 13.7907 81.6993 21.7907 81.1993V79.6993H39.2907C38.624 71.1993 40.2907 60.6993 49.2907 53.6993C46.7907 49.6993 39.7907 45.1993 36.7907 44.6993C26.7907 43.6993 11.7907 46.1993 9.79071 48.1993Z" fill="#EDADBF" stroke="black" stroke-width="0.5"/>
<path d="M92.7915 35.6995C74.9582 36.5328 43.2915 41.3995 32.7915 44.3995L36.7915 44.6995C41.7915 46.1995 47.2915 50.5328 49.2915 53.6995C62.2905 44.1995 87.7905 51.1995 86.2905 78.6995H96.2905C89.2905 67.6995 90.2905 45.6995 92.7915 35.6995Z" fill="#EDADBF" stroke="black" stroke-width="0.5"/>
<path d="M9.79004 48.1995H3.79004C36.2902 28.6994 58.2903 34.6995 84.29 30.1995L93.2903 35.6995C76.2903 36.6995 47.29 40.1995 33.29 44.3995C25.29 44.1995 11.29 46.1995 9.79004 48.1995Z" fill="#EDADBF" stroke="black" stroke-width="0.5"/>
<path d="M36.7915 44.6995C29.2915 43.6995 12.2915 45.6995 9.79149 48.1995C8.99149 50.5995 12.1248 53.5328 13.7915 54.6995C23.2915 56.1995 36.7915 50.1995 36.7915 44.6995Z" fill="#EDADBF" stroke="black" stroke-width="0.5"/>
<path d="M3.79073 48.1995C10.7907 49.1995 4.79073 59.6995 1.79073 64.6995C1.29066 57.6995 1.79053 52.1995 3.79073 48.1995Z" fill="#EDADBF" stroke="black" stroke-width="0.5"/>
<path d="M21.79 84.1995V79.6995H39.29L39.79 84.1995H21.79Z" fill="#EDADBF" stroke="black" stroke-width="0.5"/>
<path d="M2.29199 65.6992C3.79199 68.1992 5.79199 71.3659 5.29199 73.1992M21.792 79.6992C11.292 80.1992 6.79199 76.1992 7.79199 72.6992C8.29199 72.1992 9.79199 70.6992 10.792 70.6992" stroke="black" stroke-width="0.5"/>
<path d="M31.792 74.6993C29.292 70.6993 23.792 65.6994 20.792 64.1994C19.0419 63.6994 16.4169 63.8244 13.6668 64.1994C12.0419 65.5327 10.792 68.6993 11.292 71.6993C11.292 72.866 12.5994 75.1993 15.292 75.1993C19.792 75.1993 26.792 75.6993 31.792 74.6993Z" fill="#EDADBF"/>
<path d="M5.79199 65.6994C8.04193 65.1994 10.9168 64.5744 13.6668 64.1994M13.6668 64.1994C16.4169 63.8244 19.0419 63.6994 20.792 64.1994C23.792 65.6994 29.292 70.6993 31.792 74.6993C26.792 75.6993 19.792 75.1993 15.292 75.1993C12.5994 75.1993 11.292 72.866 11.292 71.6993C10.792 68.6993 12.0418 65.5327 13.6668 64.1994Z" stroke="black" stroke-width="0.5"/>
<path d="M11.292 71.1994C19.292 69.6995 22.792 72.3279 25.792 73.8279M12.792 74.1995L30.292 73.6995" stroke="black" stroke-width="0.5"/>
<path d="M21.79 82.6992H31.29C33.29 82.6992 34.79 80.6992 34.29 79.6992M37.79 79.6992V84.1992" stroke="black" stroke-width="0.5"/>
<path d="M21.7915 81.1997C17.2915 81.1997 12.7915 81.6997 1.29145 78.6997V76.6997L5.29145 74.6997V73.1997L1.29145 72.6997C0.790527 71.1995 -0.209277 68.1995 1.79072 65.6995C1.29096 57.6995 1.79096 51.1995 3.79145 48.1992C36.2915 28.6996 58.2914 34.6997 84.2914 30.1997C162.291 -24.8005 244.291 12.1994 281.291 26.6996L294.791 28.6995L295.291 35.6995V38.6995C296.79 43.6995 298.125 48.1995 296.791 50.1995C299.291 51.1995 301.791 54.3661 301.791 56.1995L299.791 66.1995C300.243 77.0474 297.835 77.2717 288.504 77.5841C287.513 77.6173 285.444 77.6515 284.291 77.6995V79.1995L259.291 79.6305M21.7915 81.1997V84.1997H39.7898L39.2915 79.6997M21.7915 81.1997V79.6997H39.2915M39.2915 79.6997C36.2915 38.1997 89.7914 41.1997 86.2914 80.1997V82.6995H212.791C206.791 39.1995 261.291 39.1995 259.291 79.6305M258.79 79.6305H259.291" stroke="black"/>
</svg>
