<svg width="303" height="95" viewBox="0 0 303 95" fill="none" xmlns="http://www.w3.org/2000/svg">
<circle cx="62.4795" cy="73.7222" r="20.5" fill="#E0426F" stroke="black"/>
<circle cx="235.479" cy="73.7222" r="20.5" fill="#E0426F" stroke="black"/>
<path d="M132.478 12.222L130.978 8.72202C170.978 0.722136 192.478 1.22217 231.478 12.7221L227.978 17.2221C207.978 9.22208 189.978 8.22208 173.978 7.72215C171.478 7.22215 167.478 7.22211 164.978 7.72202C154.978 7.72215 142.978 9.22215 132.478 12.222Z" fill="#E0426F" stroke="black" stroke-width="0.5"/>
<path d="M130.978 8.72221L130.478 7.22221C166.478 -3.77783 198.978 0.222042 234.478 9.22221L231.478 12.7222C191.478 0.222168 165.478 1.72217 130.978 8.72221Z" fill="#E0426F" stroke="black" stroke-width="0.5"/>
<path d="M130.978 8.72228C182.478 -2.77775 210.978 7.22229 231.478 12.7223" stroke="black" stroke-width="0.5"/>
<path d="M170.479 29.7222L173.979 7.72217C207.479 8.72217 218.979 14.2222 223.479 15.7222L225.962 27.7222C198.972 27.7228 181.477 29.2223 170.479 29.7222Z" fill="#E0426F"/>
<path d="M226.479 30.2222L223.479 15.7222C218.979 14.2222 207.479 8.72217 173.979 7.72217L170.479 29.7222C181.479 29.2222 198.979 27.7222 225.979 27.7222" stroke="black" stroke-width="0.5"/>
<path d="M164.979 7.72217C131.979 8.72217 111.979 17.7222 92.9795 35.2222L95.4795 33.2222L159.479 30.2222L164.979 7.72217Z" fill="#E0426F" stroke="black" stroke-width="0.5"/>
<path d="M239.478 22.2222C235.811 19.5555 229.978 17.2222 223.478 15.7222L225.978 27.7222H232.478C235.478 26.2222 238.478 23.9909 239.478 22.2222Z" fill="#E0426F" stroke="black" stroke-width="0.5"/>
<path d="M96.4795 78.2222H163.479L197.979 76.7222H212.479L212.979 82.2222H198.979H97.9795H86.4795V78.2222H96.4795Z" fill="#E0426F"/>
<path d="M96.4795 78.2222H163.479L197.979 76.7222M96.4795 78.2222C96.4795 79.7222 96.9795 80.7222 97.9795 82.2222M96.4795 78.2222H86.4795V82.2222H97.9795M197.979 76.7222L198.979 82.2222M197.979 76.7222H212.479L212.979 82.2222H198.979M198.979 82.2222H97.9795" stroke="black" stroke-width="0.5"/>
<path d="M96.4786 78.2222C91.9795 73.7222 88.9795 51.7222 92.9786 35.2222L164.979 31.2222C160.979 36.2222 159.979 70.2222 163.479 78.2222H96.4786Z" fill="#E0426F" stroke="black" stroke-width="0.5"/>
<path d="M228.479 30.2222L164.979 31.2222C160.98 36.2222 159.98 70.2222 163.479 78.2222L197.979 76.7222C202.479 75.2222 208.979 69.7222 228.479 30.2222Z" fill="#E0426F" stroke="black" stroke-width="0.5"/>
<path d="M170.479 29.7222C165.979 30.2222 162.479 30.2222 159.479 30.2222L164.979 7.72224C167.979 7.22217 170.979 7.22217 173.979 7.72224L170.479 29.7222Z" fill="#E0426F" stroke="black" stroke-width="0.5"/>
<path d="M98.9795 31.7224C103.479 37.2224 110.479 33.7224 114.479 32.2224C115.479 16.7223 102.479 24.7223 98.9795 31.7224Z" fill="#E0426F" stroke="black" stroke-width="0.5"/>
<path d="M234.478 9.22217L231.478 12.7222C248.478 18.2222 258.978 21.2222 271.478 27.7222H272.978L280.978 26.2222C265.978 19.7222 258.478 17.2222 234.478 9.22217Z" fill="#EFC7D3" stroke="black" stroke-width="0.5"/>
<path d="M271.478 27.7222C260.978 22.2222 241.978 15.7222 231.478 12.7222L229.478 15.2222L244.478 22.7222C242.978 25.2222 238.978 27.2222 232.978 29.9222C244.978 29.2222 261.978 28.2222 271.478 27.7222Z" fill="#EFC7D3" stroke="black" stroke-width="0.5"/>
<path d="M276.979 34.0222L282.978 31.7222L272.479 27.7222L228.479 30.2222C220.979 45.2222 205.979 75.7222 197.979 76.7222H212.479C210.979 65.7222 220.479 42.2222 245.479 51.2222C255.979 45.7222 265.979 40.2222 276.979 34.0222Z" fill="#EFC7D3" stroke="black" stroke-width="0.5"/>
<path d="M277.978 33.7222C265.978 40.2222 255.978 45.7222 245.478 51.2222C249.978 54.2222 260.478 60.2222 259.478 79.2222L284.478 78.7222V77.2222C292.978 76.2222 301.478 79.7222 299.978 65.7222L301.978 55.7222C301.978 54.2222 299.478 50.2222 296.978 49.7222C298.478 47.2222 295.478 38.2222 295.478 38.2222V36.7222L291.478 33.7222L286.478 32.2222L282.978 31.7222L277.978 33.7222Z" fill="#EFC7D3" stroke="black" stroke-width="0.5"/>
<path d="M280.978 26.2222L272.478 27.7222L282.978 31.7222C292.478 32.7222 291.476 34.2222 295.472 36.6423L294.978 28.2222L280.978 26.2222Z" fill="#EFC7D3"/>
<path d="M295.478 36.7222L295.472 36.6423M295.472 36.6423L294.978 28.2222L280.978 26.2222L272.478 27.7222L282.978 31.7222C292.478 32.7222 291.476 34.2222 295.472 36.6423Z" stroke="black" stroke-width="0.5"/>
<path d="M293.979 36.2224C293.479 33.7223 282.479 33.5222 276.979 34.0222" stroke="black" stroke-width="0.5"/>
<path d="M299.979 66.2222L260.479 68.2222C259.979 63.2222 257.813 59.0555 255.979 57.2222L301.979 54.7222M300.479 52.2222C289.479 50.7222 278.479 45.9222 266.479 39.9222M228.479 30.2222L272.479 27.7222L280.979 26.2222" stroke="black" stroke-width="0.5"/>
<path d="M290.479 40.2222C290.479 38.2222 289.479 34.2222 285.979 32.2222C288.2 32.2222 291.577 33.2626 294.088 35.6322C294.552 37.1622 293.479 40.7222 290.438 42.2222C290.424 41.6319 290.479 40.9465 290.479 40.2222Z" fill="#EFC7D3"/>
<path d="M272.479 42.7222C279.475 43.072 285.492 43.177 290.873 43.7222M297.479 44.7222C295.376 44.2715 293.183 43.9563 290.873 43.7222M295.479 37.2222C295.062 36.637 294.592 36.1078 294.088 35.6322M290.873 43.7222C290.546 43.3774 290.452 42.8544 290.438 42.2222M290.438 42.2222C290.424 41.6319 290.479 40.9465 290.479 40.2222C290.479 38.2222 289.479 34.2222 285.979 32.2222C288.2 32.2222 291.577 33.2626 294.088 35.6322M290.438 42.2222C293.479 40.7222 294.552 37.1622 294.088 35.6322" stroke="black" stroke-width="0.5"/>
<path d="M290.479 40.2222C285.979 40.2222 283.979 36.2222 282.979 33.7222" stroke="black" stroke-width="0.5"/>
<path d="M132.478 12.3221C118.978 16.3221 106.978 22.2222 92.978 35.2222C99.978 23.2222 115.478 13.7222 130.978 8.72217L132.478 12.3221Z" fill="#EFC7D3" stroke="black" stroke-width="0.5"/>
<path d="M130.978 8.72217C110.978 14.3962 92.978 31.7222 84.978 29.7222C97.978 20.2222 113.978 11.7222 130.478 7.22217L130.978 8.72217Z" fill="#EFC7D3" stroke="black" stroke-width="0.5"/>
<path d="M9.97869 47.7221H3.97869C1.47803 51.722 1.47803 61.722 1.97869 65.222C0.478027 66.222 0.478625 70.722 1.47869 72.222L5.47869 72.722V74.222L1.47869 76.222V78.222C5.47869 79.222 13.9787 81.222 21.9787 80.722V79.222H39.4787C38.812 70.722 40.4787 60.222 49.4787 53.222C46.9787 49.222 39.9787 44.722 36.9787 44.2221C26.9787 43.222 11.9787 45.7221 9.97869 47.7221Z" fill="#EFC7D3" stroke="black" stroke-width="0.5"/>
<path d="M92.9795 35.2222C75.1462 36.0555 43.4795 40.9222 32.9795 43.9222L36.9795 44.2222C41.9795 45.7222 47.4795 50.0555 49.4795 53.2222C62.4785 43.7222 87.9785 50.7222 86.4785 78.2222H96.4785C89.4785 67.2222 90.4785 45.2222 92.9795 35.2222Z" fill="#EFC7D3" stroke="black" stroke-width="0.5"/>
<path d="M9.97754 47.7222H3.97754C36.4777 28.2221 58.4778 34.2222 84.4775 29.7222L93.4778 35.2222C76.4778 36.2222 47.4775 39.7222 33.4775 43.9222C25.4775 43.7222 11.4775 45.7222 9.97754 47.7222Z" fill="#EFC7D3" stroke="black" stroke-width="0.5"/>
<path d="M36.9795 44.2222C29.4795 43.2222 12.4795 45.2222 9.97948 47.7222C9.17948 50.1222 12.3128 53.0555 13.9795 54.2222C23.4795 55.7222 36.9795 49.7222 36.9795 44.2222Z" fill="#EFC7D3" stroke="black" stroke-width="0.5"/>
<path d="M3.97872 47.7222C10.9787 48.7222 4.97872 59.2222 1.97872 64.2222C1.47865 57.2222 1.97852 51.7222 3.97872 47.7222Z" fill="#EFC7D3" stroke="black" stroke-width="0.5"/>
<path d="M21.978 83.7222V79.2222H39.478L39.978 83.7222H21.978Z" fill="#EFC7D3" stroke="black" stroke-width="0.5"/>
<path d="M2.47949 65.2222C3.97949 67.7222 5.97949 70.8888 5.47949 72.7222M21.9795 79.2222C11.4795 79.7222 6.97949 75.7222 7.97949 72.2222C8.47949 71.7222 9.97949 70.2222 10.9795 70.2222" stroke="black" stroke-width="0.5"/>
<path d="M31.9795 74.2223C29.4795 70.2223 23.9795 65.2224 20.9795 63.7224C19.2294 63.2224 16.6044 63.3474 13.8543 63.7224C12.2294 65.0557 10.9795 68.2223 11.4795 71.2223C11.4795 72.389 12.7869 74.7223 15.4795 74.7223C19.9795 74.7223 26.9795 75.2223 31.9795 74.2223Z" fill="#EFC7D3"/>
<path d="M5.97949 65.2224C8.22943 64.7223 11.1043 64.0974 13.8543 63.7224M13.8543 63.7224C16.6044 63.3474 19.2294 63.2224 20.9795 63.7224C23.9795 65.2224 29.4795 70.2223 31.9795 74.2223C26.9795 75.2223 19.9795 74.7223 15.4795 74.7223C12.7869 74.7223 11.4795 72.389 11.4795 71.2223C10.9795 68.2223 12.2293 65.0557 13.8543 63.7224Z" stroke="black" stroke-width="0.5"/>
<path d="M11.4795 70.7224C19.4795 69.2224 22.9795 71.8509 25.9795 73.3509M12.9795 73.7224L30.4795 73.2224" stroke="black" stroke-width="0.5"/>
<path d="M21.9775 82.2222H31.4775C33.4775 82.2222 34.9775 80.2222 34.4775 79.2222M37.9775 79.2222V83.7222" stroke="black" stroke-width="0.5"/>
<path d="M21.9794 80.7224C17.4794 80.7224 12.9794 81.2224 1.47944 78.2224V76.2224L5.47944 74.2224V72.7224L1.47944 72.2224C0.978516 70.7222 -0.0212885 67.7222 1.97871 65.2222C1.47895 57.2222 1.97895 50.7222 3.97944 47.7219C36.4794 28.2223 58.4794 34.2224 84.4794 29.7224C162.479 -25.2778 244.479 11.7222 281.479 26.2223L294.979 28.2222L295.479 35.2222V38.2222C296.978 43.2222 298.313 47.7222 296.979 49.7222C299.479 50.7222 301.979 53.8888 301.979 55.7222L299.979 65.7222C300.431 76.5701 298.023 76.7944 288.692 77.1068C287.701 77.14 285.632 77.1742 284.479 77.2222V78.7222L259.479 79.1532M21.9794 80.7224V83.7224H39.9778L39.4794 79.2224M21.9794 80.7224V79.2224H39.4794M39.4794 79.2224C36.4794 37.7224 89.9794 40.7224 86.4794 79.7224V82.2222H212.979C206.979 38.7222 261.479 38.7222 259.479 79.1532M258.978 79.1532H259.479" stroke="black"/>
</svg>
