<svg width="303" height="95" viewBox="0 0 303 95" fill="none" xmlns="http://www.w3.org/2000/svg">
<circle cx="62.4473" cy="73.6768" r="20.5" fill="#E0426F" stroke="black"/>
<circle cx="235.447" cy="73.6768" r="20.5" fill="#E0426F" stroke="black"/>
<path d="M132.445 12.1766L130.945 8.67661C170.945 0.676725 192.445 1.17676 231.445 12.6767L227.945 17.1767C207.945 9.17667 189.945 8.17667 173.945 7.67673C171.445 7.17673 167.445 7.1767 164.945 7.67661C154.945 7.67673 142.945 9.17674 132.445 12.1766Z" stroke="black" stroke-width="0.5"/>
<path d="M130.945 8.6768L130.445 7.1768C166.445 -3.82324 198.945 0.176632 234.445 9.1768L231.445 12.6768C191.445 0.176758 165.445 1.67676 130.945 8.6768Z" stroke="black" stroke-width="0.5"/>
<path d="M130.945 8.67675C182.445 -2.82328 210.945 7.17676 231.445 12.6767" stroke="black" stroke-width="0.5"/>
<path d="M226.447 30.1768L223.447 15.6768C218.947 14.1768 207.447 8.67676 173.947 7.67676L170.447 29.6768C181.447 29.1768 198.947 27.6768 225.947 27.6768" stroke="black" stroke-width="0.5"/>
<path d="M164.947 7.67676C131.947 8.67676 111.947 17.6768 92.9473 35.1768L95.4473 33.1768L159.447 30.1768L164.947 7.67676Z" stroke="black" stroke-width="0.5"/>
<path d="M239.445 22.1768C235.779 19.5101 229.945 17.1768 223.445 15.6768L225.945 27.6768H232.445C235.445 26.1768 238.445 23.9455 239.445 22.1768Z" stroke="black" stroke-width="0.5"/>
<path d="M96.4473 78.1768H163.447L197.947 76.6768M96.4473 78.1768C96.4473 79.6768 96.9473 80.6768 97.9473 82.1768M96.4473 78.1768H86.4473V82.1768H97.9473M197.947 76.6768L198.947 82.1768M197.947 76.6768H212.447L212.947 82.1768H198.947M198.947 82.1768H97.9473" stroke="black" stroke-width="0.5"/>
<path d="M96.4464 78.1768C91.9473 73.6768 88.9473 51.6768 92.9464 35.1768L164.947 31.1768C160.947 36.1768 159.947 70.1768 163.447 78.1768H96.4464Z" stroke="black" stroke-width="0.5"/>
<path d="M228.447 30.1768L164.947 31.1768C160.947 36.1768 159.948 70.1768 163.447 78.1768L197.947 76.6768C202.447 75.1768 208.947 69.6768 228.447 30.1768Z" stroke="black" stroke-width="0.5"/>
<path d="M170.447 29.6768C165.947 30.1768 162.447 30.1768 159.447 30.1768L164.947 7.67683C167.947 7.17676 170.947 7.17676 173.947 7.67683L170.447 29.6768Z" stroke="black" stroke-width="0.5"/>
<path d="M98.9473 31.6769C103.447 37.1769 110.447 33.6769 114.447 32.1769C115.447 16.6768 102.447 24.6768 98.9473 31.6769Z" stroke="black" stroke-width="0.5"/>
<path d="M234.445 9.17676L231.445 12.6768C248.445 18.1768 258.945 21.1768 271.445 27.6768H272.945L280.945 26.1768C265.945 19.6768 258.445 17.1768 234.445 9.17676Z" fill="#E0426F" stroke="black" stroke-width="0.5"/>
<path d="M271.445 27.6768C260.945 22.1768 241.945 15.6768 231.445 12.6768L229.445 15.1768L244.445 22.6768C242.945 25.1768 238.945 27.1768 232.945 29.8768C244.945 29.1768 261.945 28.1768 271.445 27.6768Z" fill="#E0426F" stroke="black" stroke-width="0.5"/>
<path d="M276.947 33.9768L282.946 31.6768L272.446 27.6768L228.446 30.1768C220.946 45.1768 205.946 75.6768 197.946 76.6768H212.446C210.946 65.6768 220.446 42.1768 245.447 51.1768C255.947 45.6768 265.947 40.1768 276.947 33.9768Z" fill="#E0426F" stroke="black" stroke-width="0.5"/>
<path d="M277.945 33.6768C265.945 40.1768 255.945 45.6768 245.445 51.1768C249.945 54.1768 260.445 60.1768 259.445 79.1768L284.445 78.6768V77.1768C292.945 76.1768 301.445 79.6768 299.945 65.6768L301.945 55.6768C301.945 54.1768 299.445 50.1768 296.945 49.6768C298.445 47.1768 295.445 38.1768 295.445 38.1768V36.6768L291.445 33.6768L286.445 32.1768L282.945 31.6768L277.945 33.6768Z" fill="#E0426F" stroke="black" stroke-width="0.5"/>
<path d="M280.945 26.1768L272.445 27.6768L282.945 31.6768C292.445 32.6768 291.444 34.1768 295.439 36.5969L294.945 28.1768L280.945 26.1768Z" fill="#E0426F"/>
<path d="M295.445 36.6768L295.439 36.5969M295.439 36.5969L294.945 28.1768L280.945 26.1768L272.445 27.6768L282.945 31.6768C292.445 32.6768 291.444 34.1768 295.439 36.5969Z" stroke="black" stroke-width="0.5"/>
<path d="M293.947 36.177C293.447 33.6768 282.447 33.4768 276.947 33.9768" stroke="black" stroke-width="0.5"/>
<path d="M299.947 66.1768L260.447 68.1768C259.947 63.1768 257.781 59.0101 255.947 57.1768L301.947 54.6768M300.447 52.1768C289.447 50.6768 278.447 45.8768 266.447 39.8768M228.447 30.1768L272.447 27.6768L280.947 26.1768" stroke="black" stroke-width="0.5"/>
<path d="M290.447 40.1768C290.447 38.1768 289.447 34.1768 285.947 32.1768C288.168 32.1768 291.545 33.2171 294.056 35.5867C294.52 37.1167 293.447 40.6768 290.405 42.1768C290.392 41.5865 290.447 40.901 290.447 40.1768Z" fill="#E0426F"/>
<path d="M272.447 42.6768C279.443 43.0265 285.46 43.1316 290.84 43.6768M297.447 44.6768C295.344 44.2261 293.151 43.9109 290.84 43.6768M295.447 37.1768C295.029 36.5916 294.56 36.0624 294.056 35.5867M290.84 43.6768C290.514 43.332 290.42 42.8089 290.405 42.1768M290.405 42.1768C290.392 41.5865 290.447 40.901 290.447 40.1768C290.447 38.1768 289.447 34.1768 285.947 32.1768C288.168 32.1768 291.545 33.2171 294.056 35.5867M290.405 42.1768C293.447 40.6768 294.52 37.1167 294.056 35.5867" stroke="black" stroke-width="0.5"/>
<path d="M290.447 40.1768C285.947 40.1768 283.947 36.1768 282.947 33.6768" stroke="black" stroke-width="0.5"/>
<path d="M132.445 12.2767C118.945 16.2767 106.945 22.1768 92.9453 35.1768C99.9453 23.1768 115.445 13.6768 130.945 8.67676L132.445 12.2767Z" fill="#E56E90" stroke="black" stroke-width="0.5"/>
<path d="M130.945 8.67676C110.945 14.3508 92.9453 31.6768 84.9453 29.6768C97.9453 20.1768 113.945 11.6768 130.445 7.17676L130.945 8.67676Z" fill="#E56E90" stroke="black" stroke-width="0.5"/>
<path d="M9.94598 47.6768H3.94598C1.44531 51.6768 1.44531 61.6768 1.94598 65.1768C0.445312 66.1768 0.44591 70.6768 1.44598 72.1768L5.44598 72.6768V74.1768L1.44598 76.1768V78.1768C5.44598 79.1768 13.946 81.1768 21.946 80.6768V79.1768H39.446C38.7793 70.6768 40.446 60.1768 49.446 53.1768C46.946 49.1768 39.946 44.6768 36.946 44.1768C26.946 43.1768 11.946 45.6768 9.94598 47.6768Z" fill="#E56E90" stroke="black" stroke-width="0.5"/>
<path d="M92.9473 35.1768C75.1139 36.0101 43.4473 40.8768 32.9473 43.8768L36.9473 44.1768C41.9473 45.6768 47.4473 50.0101 49.4473 53.1768C62.4463 43.6768 87.9463 50.6768 86.4463 78.1768H96.4463C89.4463 67.1768 90.4463 45.1768 92.9473 35.1768Z" fill="#E56E90" stroke="black" stroke-width="0.5"/>
<path d="M9.94531 47.6768H3.94531C36.4455 28.1767 58.4456 34.1768 84.4453 29.6768L93.4456 35.1768C76.4456 36.1768 47.4453 39.6768 33.4453 43.8768C25.4453 43.6767 11.4453 45.6768 9.94531 47.6768Z" fill="#E56E90" stroke="black" stroke-width="0.5"/>
<path d="M36.9468 44.1768C29.4468 43.1768 12.4468 45.1768 9.94677 47.6768C9.14677 50.0768 12.2801 53.0101 13.9468 54.1768C23.4468 55.6768 36.9468 49.6768 36.9468 44.1768Z" fill="#E56E90" stroke="black" stroke-width="0.5"/>
<path d="M3.94601 47.6768C10.946 48.6768 4.94601 59.1768 1.94601 64.1768C1.44594 57.1768 1.9458 51.6768 3.94601 47.6768Z" fill="#E56E90" stroke="black" stroke-width="0.5"/>
<path d="M21.9453 83.6768V79.1768H39.4453L39.9453 83.6768H21.9453Z" fill="#E56E90" stroke="black" stroke-width="0.5"/>
<path d="M2.44727 65.1768C3.94727 67.6768 5.94727 70.8434 5.44727 72.6768M21.9473 79.1768C11.4473 79.6768 6.94727 75.6768 7.94727 72.1768C8.44727 71.6768 9.94727 70.1768 10.9473 70.1768" stroke="black" stroke-width="0.5"/>
<path d="M31.9473 74.1768C29.4473 70.1768 23.9473 65.1768 20.9473 63.6768C19.1972 63.1768 16.5721 63.3018 13.8221 63.6768C12.1971 65.0101 10.9473 68.1768 11.4473 71.1768C11.4473 72.3434 12.7547 74.6768 15.4473 74.6768C19.9473 74.6768 26.9473 75.1768 31.9473 74.1768Z" fill="#E56E90"/>
<path d="M5.94727 65.1768C8.19721 64.6768 11.0721 64.0518 13.8221 63.6768M13.8221 63.6768C16.5721 63.3018 19.1972 63.1768 20.9473 63.6768C23.9473 65.1768 29.4473 70.1768 31.9473 74.1768C26.9473 75.1768 19.9473 74.6768 15.4473 74.6768C12.7547 74.6768 11.4473 72.3434 11.4473 71.1768C10.9473 68.1768 12.1971 65.0101 13.8221 63.6768Z" stroke="black" stroke-width="0.5"/>
<path d="M11.4473 70.6768C19.4473 69.1769 22.9473 71.8054 25.9473 73.3054M12.9473 73.6769L30.4473 73.1769" stroke="black" stroke-width="0.5"/>
<path d="M21.9453 82.1768H31.4453C33.4453 82.1768 34.9453 80.1768 34.4453 79.1768M37.9453 79.1768V83.6768" stroke="black" stroke-width="0.5"/>
<path d="M21.9472 80.677C17.4472 80.677 12.9472 81.177 1.44721 78.177V76.177L5.44721 74.177V72.677L1.44721 72.177C0.946289 70.6768 -0.0535151 67.6768 1.94648 65.1768C1.44672 57.1768 1.94672 50.6768 3.94721 47.6765C36.4472 28.1769 58.4472 34.1769 84.4472 29.6769C162.447 -25.3232 244.447 11.6767 281.447 26.1769L294.947 28.1768L295.447 35.1768V38.1768C296.946 43.1768 298.281 47.6768 296.947 49.6768C299.447 50.6768 301.947 53.8434 301.947 55.6768L299.947 65.6768C300.399 76.5247 297.991 76.7489 288.66 77.0614C287.668 77.0946 285.599 77.1288 284.447 77.1768V78.6768L259.447 79.1078M21.9472 80.677V83.677H39.9456L39.4472 79.177M21.9472 80.677V79.177H39.4472M39.4472 79.177C36.4472 37.677 89.9472 40.677 86.4472 79.677V82.1768H212.947C206.947 38.6768 261.447 38.6768 259.447 79.1078M258.946 79.1078H259.447" stroke="black"/>
</svg>
