<svg width="303" height="96" viewBox="0 0 303 96" fill="none" xmlns="http://www.w3.org/2000/svg">
<circle cx="62.4897" cy="74.1995" r="20.5" fill="#E0426F" stroke="black"/>
<circle cx="235.49" cy="74.1995" r="20.5" fill="#E0426F" stroke="black"/>
<path d="M132.488 12.6993L130.988 9.19932C170.988 1.19943 192.488 1.69946 231.488 13.1994L227.988 17.6994C207.988 9.69937 189.988 8.69937 173.988 8.19944C171.488 7.69944 167.488 7.6994 164.988 8.19932C154.988 8.19944 142.988 9.69944 132.488 12.6993Z" fill="#EDADBF" stroke="black" stroke-width="0.5"/>
<path d="M130.988 9.19951L130.488 7.69951C166.488 -3.30054 198.988 0.699337 234.488 9.69951L231.488 13.1995C191.488 0.699463 165.488 2.19946 130.988 9.19951Z" fill="#EDADBF" stroke="black" stroke-width="0.5"/>
<path d="M130.988 9.19933C182.488 -2.3007 210.988 7.69934 231.488 13.1993" stroke="black" stroke-width="0.5"/>
<path d="M170.49 30.1995L173.99 8.19946C207.49 9.19946 218.99 14.6995 223.49 16.1995L225.973 28.1995C198.982 28.2001 181.487 29.6996 170.49 30.1995Z" fill="#EDADBF"/>
<path d="M226.49 30.6995L223.49 16.1995C218.99 14.6995 207.49 9.19946 173.99 8.19946L170.49 30.1995C181.49 29.6995 198.99 28.1995 225.99 28.1995" stroke="black" stroke-width="0.5"/>
<path d="M164.99 8.19946C131.99 9.19946 111.99 18.1995 92.9897 35.6995L95.4897 33.6995L159.49 30.6995L164.99 8.19946Z" fill="#EDADBF" stroke="black" stroke-width="0.5"/>
<path d="M239.488 22.6995C235.822 20.0328 229.988 17.6995 223.488 16.1995L225.988 28.1995H232.488C235.488 26.6995 238.488 24.4682 239.488 22.6995Z" fill="#EDADBF" stroke="black" stroke-width="0.5"/>
<path d="M96.4897 78.6995H163.49L197.99 77.1995H212.49L212.99 82.6995H198.99H97.9897H86.4897V78.6995H96.4897Z" fill="#EDADBF"/>
<path d="M96.4897 78.6995H163.49L197.99 77.1995M96.4897 78.6995C96.4897 80.1995 96.9897 81.1995 97.9897 82.6995M96.4897 78.6995H86.4897V82.6995H97.9897M197.99 77.1995L198.99 82.6995M197.99 77.1995H212.49L212.99 82.6995H198.99M198.99 82.6995H97.9897" stroke="black" stroke-width="0.5"/>
<path d="M96.4889 78.6995C91.9897 74.1995 88.9898 52.1995 92.9889 35.6995L164.99 31.6995C160.99 36.6995 159.99 70.6995 163.49 78.6995H96.4889Z" fill="#EDADBF" stroke="black" stroke-width="0.5"/>
<path d="M228.489 30.6995L164.989 31.6995C160.989 36.6995 159.99 70.6995 163.489 78.6995L197.989 77.1995C202.489 75.6995 208.989 70.1995 228.489 30.6995Z" fill="#EDADBF" stroke="black" stroke-width="0.5"/>
<path d="M170.49 30.1995C165.99 30.6995 162.49 30.6995 159.49 30.6995L164.99 8.19954C167.99 7.69946 170.99 7.69946 173.99 8.19954L170.49 30.1995Z" fill="#EDADBF" stroke="black" stroke-width="0.5"/>
<path d="M98.9897 32.1995C103.49 37.6995 110.49 34.1995 114.49 32.6995C115.49 17.1994 102.49 25.1993 98.9897 32.1995Z" fill="#EDADBF" stroke="black" stroke-width="0.5"/>
<path d="M234.488 9.69946L231.488 13.1995C248.488 18.6995 258.988 21.6995 271.488 28.1995H272.988L280.988 26.6995C265.988 20.1995 258.488 17.6995 234.488 9.69946Z" stroke="black" stroke-width="0.5"/>
<path d="M271.488 28.1995C260.988 22.6995 241.988 16.1995 231.488 13.1995L229.488 15.6995L244.488 23.1995C242.988 25.6995 238.988 27.6995 232.988 30.3995C244.988 29.6995 261.988 28.6995 271.488 28.1995Z" stroke="black" stroke-width="0.5"/>
<path d="M276.99 34.4995L282.988 32.1995L272.489 28.1995L228.489 30.6995C220.989 45.6995 205.989 76.1995 197.989 77.1995H212.489C210.989 66.1995 220.489 42.6995 245.49 51.6995C255.99 46.1995 265.99 40.6995 276.99 34.4995Z" stroke="black" stroke-width="0.5"/>
<path d="M277.988 34.1995C265.988 40.6995 255.988 46.1995 245.488 51.6995C249.988 54.6995 260.488 60.6995 259.488 79.6995L284.488 79.1995V77.6995C292.988 76.6995 301.488 80.1995 299.988 66.1995L301.988 56.1995C301.988 54.6995 299.488 50.6995 296.988 50.1995C298.488 47.6995 295.488 38.6995 295.488 38.6995V37.1995L291.488 34.1995L286.488 32.6995L282.988 32.1995L277.988 34.1995Z" stroke="black" stroke-width="0.5"/>
<path d="M295.488 37.1995L295.482 37.1196M295.482 37.1196L294.988 28.6995L280.988 26.6995L272.488 28.1995L282.988 32.1995C292.488 33.1995 291.487 34.6995 295.482 37.1196Z" stroke="black" stroke-width="0.5"/>
<path d="M293.99 36.6997C293.49 34.1996 282.49 33.9995 276.99 34.4995" stroke="black" stroke-width="0.5"/>
<path d="M299.99 66.6995L260.49 68.6995C259.99 63.6995 257.823 59.5328 255.99 57.6995L301.99 55.1995M300.49 52.6995C289.49 51.1995 278.49 46.3995 266.49 40.3995M228.49 30.6995L272.49 28.1995L280.99 26.6995" stroke="black" stroke-width="0.5"/>
<path d="M272.49 43.1995C279.485 43.5492 285.502 43.6543 290.883 44.1995M297.49 45.1995C295.387 44.7488 293.194 44.4336 290.883 44.1995M295.49 37.6995C295.072 37.1143 294.603 36.5851 294.099 36.1094M290.883 44.1995C290.557 43.8547 290.463 43.3317 290.448 42.6995M290.448 42.6995C290.434 42.1092 290.49 41.4238 290.49 40.6995C290.49 38.6995 289.49 34.6995 285.99 32.6995C288.211 32.6995 291.587 33.7399 294.099 36.1094M290.448 42.6995C293.49 41.1995 294.562 37.6395 294.099 36.1094" stroke="black" stroke-width="0.5"/>
<path d="M290.49 40.6995C285.99 40.6995 283.99 36.6995 282.99 34.1995" stroke="black" stroke-width="0.5"/>
<path d="M132.488 12.7994C118.988 16.7994 106.988 22.6995 92.9883 35.6995C99.9883 23.6995 115.488 14.1995 130.988 9.19946L132.488 12.7994Z" fill="#EDADBF" stroke="black" stroke-width="0.5"/>
<path d="M130.988 9.19946C110.988 14.8735 92.9883 32.1995 84.9883 30.1995C97.9883 20.6995 113.988 12.1995 130.488 7.69946L130.988 9.19946Z" fill="#EDADBF" stroke="black" stroke-width="0.5"/>
<path d="M9.98895 48.1993H3.98895C1.48828 52.1993 1.48828 62.1993 1.98895 65.6993C0.488281 66.6993 0.488879 71.1993 1.48895 72.6993L5.48895 73.1993V74.6993L1.48895 76.6993V78.6993C5.48895 79.6993 13.9889 81.6993 21.9889 81.1993V79.6993H39.4889C38.8223 71.1993 40.4889 60.6993 49.4889 53.6993C46.9889 49.6993 39.9889 45.1993 36.9889 44.6993C26.9889 43.6993 11.9889 46.1993 9.98895 48.1993Z" fill="#EDADBF" stroke="black" stroke-width="0.5"/>
<path d="M92.9897 35.6995C75.1564 36.5328 43.4897 41.3995 32.9897 44.3995L36.9897 44.6995C41.9897 46.1995 47.4897 50.5328 49.4897 53.6995C62.4888 44.1995 87.9888 51.1995 86.4888 78.6995H96.4888C89.4888 67.6995 90.4888 45.6995 92.9897 35.6995Z" fill="#EDADBF" stroke="black" stroke-width="0.5"/>
<path d="M9.98828 48.1995H3.98828C36.4885 28.6994 58.4885 34.6995 84.4883 30.1995L93.4885 35.6995C76.4885 36.6995 47.4883 40.1995 33.4883 44.3995C25.4883 44.1995 11.4883 46.1995 9.98828 48.1995Z" fill="#EDADBF" stroke="black" stroke-width="0.5"/>
<path d="M36.9897 44.6995C29.4897 43.6995 12.4897 45.6995 9.98974 48.1995C9.18974 50.5995 12.3231 53.5328 13.9897 54.6995C23.4897 56.1995 36.9897 50.1995 36.9897 44.6995Z" fill="#EDADBF" stroke="black" stroke-width="0.5"/>
<path d="M3.98898 48.1995C10.989 49.1995 4.98898 59.6995 1.98898 64.6995C1.48891 57.6995 1.98877 52.1995 3.98898 48.1995Z" fill="#EDADBF" stroke="black" stroke-width="0.5"/>
<path d="M21.9883 84.1995V79.6995H39.4883L39.9883 84.1995H21.9883Z" fill="#EDADBF" stroke="black" stroke-width="0.5"/>
<path d="M2.49023 65.6992C3.99023 68.1992 5.99023 71.3659 5.49023 73.1992M21.9902 79.6992C11.4902 80.1992 6.99023 76.1992 7.99023 72.6992C8.49023 72.1992 9.99023 70.6992 10.9902 70.6992" stroke="black" stroke-width="0.5"/>
<path d="M31.9902 74.6993C29.4902 70.6993 23.9902 65.6994 20.9902 64.1994C19.2402 63.6994 16.6151 63.8244 13.865 64.1994C12.2401 65.5327 10.9902 68.6993 11.4902 71.6993C11.4902 72.866 12.7977 75.1993 15.4902 75.1993C19.9902 75.1993 26.9902 75.6993 31.9902 74.6993Z" fill="#EDADBF"/>
<path d="M5.99023 65.6994C8.24018 65.1994 11.1151 64.5744 13.865 64.1994M13.865 64.1994C16.6151 63.8244 19.2402 63.6994 20.9902 64.1994C23.9902 65.6994 29.4902 70.6993 31.9902 74.6993C26.9902 75.6993 19.9902 75.1993 15.4902 75.1993C12.7977 75.1993 11.4902 72.866 11.4902 71.6993C10.9902 68.6993 12.2401 65.5327 13.865 64.1994Z" stroke="black" stroke-width="0.5"/>
<path d="M11.4902 71.1994C19.4902 69.6995 22.9902 72.3279 25.9902 73.8279M12.9902 74.1995L30.4902 73.6995" stroke="black" stroke-width="0.5"/>
<path d="M21.9883 82.6992H31.4883C33.4883 82.6992 34.9883 80.6992 34.4883 79.6992M37.9883 79.6992V84.1992" stroke="black" stroke-width="0.5"/>
<path d="M21.9897 81.1997C17.4897 81.1997 12.9897 81.6997 1.48969 78.6997V76.6997L5.48969 74.6997V73.1997L1.48969 72.6997C0.98877 71.1995 -0.0110346 68.1995 1.98896 65.6995C1.4892 57.6995 1.9892 51.1995 3.98969 48.1992C36.4897 28.6996 58.4897 34.6997 84.4897 30.1997C162.49 -24.8005 244.49 12.1994 281.49 26.6996L294.99 28.6995L295.49 35.6995V38.6995C296.988 43.6995 298.323 48.1995 296.99 50.1995C299.49 51.1995 301.99 54.3661 301.99 56.1995L299.99 66.1995C300.442 77.0474 298.034 77.2717 288.702 77.5841C287.711 77.6173 285.642 77.6515 284.49 77.6995V79.1995L259.49 79.6305M21.9897 81.1997V84.1997H39.988L39.4897 79.6997M21.9897 81.1997V79.6997H39.4897M39.4897 79.6997C36.4897 38.1997 89.9897 41.1997 86.4897 80.1997V82.6995H212.99C206.99 39.1995 261.49 39.1995 259.49 79.6305M258.988 79.6305H259.49" stroke="black"/>
</svg>
