<svg width="303" height="96" viewBox="0 0 303 96" fill="none" xmlns="http://www.w3.org/2000/svg">
<circle cx="62.4897" cy="74.0605" r="20.5" fill="#E0426F" stroke="black"/>
<circle cx="235.49" cy="74.0605" r="20.5" fill="#E0426F" stroke="black"/>
<path d="M132.488 12.5604L130.988 9.0604C170.988 1.06051 192.488 1.56055 231.488 13.0605L227.988 17.5605C207.988 9.56046 189.988 8.56046 173.988 8.06052C171.488 7.56052 167.488 7.56049 164.988 8.0604C154.988 8.06052 142.988 9.56052 132.488 12.5604Z" fill="#E0426F" stroke="black" stroke-width="0.5"/>
<path d="M130.988 9.06059L130.488 7.56059C166.488 -3.43945 198.988 0.560421 234.488 9.56059L231.488 13.0606C191.488 0.560547 165.488 2.06055 130.988 9.06059Z" fill="#E0426F" stroke="black" stroke-width="0.5"/>
<path d="M130.988 9.06066C182.488 -2.43937 210.988 7.56067 231.488 13.0607" stroke="black" stroke-width="0.5"/>
<path d="M170.49 30.0605L173.99 8.06055C207.49 9.06055 218.99 14.5605 223.49 16.0605L225.973 28.0605C198.982 28.0612 181.487 29.5607 170.49 30.0605Z" fill="#E0426F"/>
<path d="M226.49 30.5605L223.49 16.0605C218.99 14.5605 207.49 9.06055 173.99 8.06055L170.49 30.0605C181.49 29.5605 198.99 28.0605 225.99 28.0605" stroke="black" stroke-width="0.5"/>
<path d="M164.99 8.06055C131.99 9.06055 111.99 18.0605 92.9897 35.5605L95.4897 33.5605L159.49 30.5605L164.99 8.06055Z" fill="#E0426F" stroke="black" stroke-width="0.5"/>
<path d="M239.488 22.5605C235.822 19.8939 229.988 17.5605 223.488 16.0605L225.988 28.0605H232.488C235.488 26.5605 238.488 24.3293 239.488 22.5605Z" fill="#E0426F" stroke="black" stroke-width="0.5"/>
<path d="M96.4897 78.5605H163.49L197.99 77.0605H212.49L212.99 82.5605H198.99H97.9897H86.4897V78.5605H96.4897Z" fill="#E0426F"/>
<path d="M96.4897 78.5605H163.49L197.99 77.0605M96.4897 78.5605C96.4897 80.0605 96.9897 81.0605 97.9897 82.5605M96.4897 78.5605H86.4897V82.5605H97.9897M197.99 77.0605L198.99 82.5605M197.99 77.0605H212.49L212.99 82.5605H198.99M198.99 82.5605H97.9897" stroke="black" stroke-width="0.5"/>
<path d="M96.4889 78.5605C91.9897 74.0605 88.9898 52.0605 92.9889 35.5605L164.99 31.5605C160.99 36.5605 159.99 70.5605 163.49 78.5605H96.4889Z" fill="#E0426F" stroke="black" stroke-width="0.5"/>
<path d="M228.489 30.5605L164.989 31.5605C160.989 36.5605 159.99 70.5605 163.489 78.5605L197.989 77.0605C202.489 75.5605 208.989 70.0605 228.489 30.5605Z" fill="#E0426F" stroke="black" stroke-width="0.5"/>
<path d="M170.49 30.0606C165.99 30.5606 162.49 30.5606 159.49 30.5606L164.99 8.06062C167.99 7.56055 170.99 7.56055 173.99 8.06062L170.49 30.0606Z" fill="#E0426F" stroke="black" stroke-width="0.5"/>
<path d="M98.9897 32.0608C103.49 37.5608 110.49 34.0608 114.49 32.5608C115.49 17.0607 102.49 25.0607 98.9897 32.0608Z" fill="#E0426F" stroke="black" stroke-width="0.5"/>
<path d="M234.488 9.56055L231.488 13.0605C248.488 18.5605 258.988 21.5605 271.488 28.0605H272.988L280.988 26.5605C265.988 20.0605 258.488 17.5605 234.488 9.56055Z" stroke="black" stroke-width="0.5"/>
<path d="M271.488 28.0605C260.988 22.5605 241.988 16.0605 231.488 13.0605L229.488 15.5605L244.488 23.0605C242.988 25.5605 238.988 27.5605 232.988 30.2605C244.988 29.5605 261.988 28.5605 271.488 28.0605Z" stroke="black" stroke-width="0.5"/>
<path d="M276.99 34.3605L282.988 32.0605L272.489 28.0605L228.489 30.5605C220.989 45.5605 205.989 76.0605 197.989 77.0605H212.489C210.989 66.0605 220.489 42.5605 245.49 51.5605C255.99 46.0605 265.99 40.5605 276.99 34.3605Z" stroke="black" stroke-width="0.5"/>
<path d="M277.988 34.0606C265.988 40.5606 255.988 46.0606 245.488 51.5606C249.988 54.5605 260.488 60.5605 259.488 79.5605L284.488 79.0605V77.5605C292.988 76.5605 301.488 80.0605 299.988 66.0605L301.988 56.0605C301.988 54.5605 299.488 50.5605 296.988 50.0605C298.488 47.5605 295.488 38.5605 295.488 38.5605V37.0605L291.488 34.0605L286.488 32.5605L282.988 32.0605L277.988 34.0606Z" stroke="black" stroke-width="0.5"/>
<path d="M295.488 37.0605L295.482 36.9807M295.482 36.9807L294.988 28.5605L280.988 26.5605L272.488 28.0605L282.988 32.0605C292.488 33.0605 291.487 34.5605 295.482 36.9807Z" stroke="black" stroke-width="0.5"/>
<path d="M293.99 36.5607C293.49 34.0606 282.49 33.8606 276.99 34.3606" stroke="black" stroke-width="0.5"/>
<path d="M299.99 66.5605L260.49 68.5605C259.99 63.5605 257.823 59.3939 255.99 57.5605L301.99 55.0605M300.49 52.5605C289.49 51.0605 278.49 46.2605 266.49 40.2605M228.49 30.5605L272.49 28.0605L280.99 26.5605" stroke="black" stroke-width="0.5"/>
<path d="M272.49 43.0605C279.485 43.4103 285.502 43.5154 290.883 44.0605M297.49 45.0605C295.387 44.6099 293.194 44.2946 290.883 44.0605M295.49 37.5605C295.072 36.9754 294.603 36.4462 294.099 35.9705M290.883 44.0605C290.557 43.7158 290.463 43.1927 290.448 42.5605M290.448 42.5605C290.434 41.9703 290.49 41.2848 290.49 40.5605C290.49 38.5605 289.49 34.5605 285.99 32.5605C288.211 32.5605 291.587 33.6009 294.099 35.9705M290.448 42.5605C293.49 41.0605 294.562 37.5005 294.099 35.9705" stroke="black" stroke-width="0.5"/>
<path d="M290.49 40.5605C285.99 40.5605 283.99 36.5605 282.99 34.0605" stroke="black" stroke-width="0.5"/>
<path d="M132.488 12.6605C118.988 16.6605 106.988 22.5605 92.9883 35.5605C99.9883 23.5605 115.488 14.0605 130.988 9.06055L132.488 12.6605Z" fill="#E56E90" stroke="black" stroke-width="0.5"/>
<path d="M130.988 9.06055C110.988 14.7346 92.9883 32.0605 84.9883 30.0605C97.9883 20.5605 113.988 12.0605 130.488 7.56055L130.988 9.06055Z" fill="#E56E90" stroke="black" stroke-width="0.5"/>
<path d="M9.98895 48.0604H3.98895C1.48828 52.0604 1.48828 62.0604 1.98895 65.5604C0.488281 66.5604 0.488879 71.0604 1.48895 72.5604L5.48895 73.0604V74.5604L1.48895 76.5604V78.5604C5.48895 79.5604 13.9889 81.5604 21.9889 81.0604V79.5604H39.4889C38.8223 71.0604 40.4889 60.5604 49.4889 53.5604C46.9889 49.5604 39.9889 45.0604 36.9889 44.5604C26.9889 43.5604 11.9889 46.0604 9.98895 48.0604Z" fill="#E56E90" stroke="black" stroke-width="0.5"/>
<path d="M92.9897 35.5605C75.1564 36.3939 43.4897 41.2605 32.9897 44.2605L36.9897 44.5605C41.9897 46.0605 47.4897 50.3939 49.4897 53.5605C62.4888 44.0605 87.9888 51.0605 86.4888 78.5605H96.4888C89.4888 67.5605 90.4888 45.5605 92.9897 35.5605Z" fill="#E56E90" stroke="black" stroke-width="0.5"/>
<path d="M9.98828 48.0606H3.98828C36.4885 28.5605 58.4885 34.5605 84.4883 30.0605L93.4885 35.5605C76.4885 36.5605 47.4883 40.0605 33.4883 44.2606C25.4883 44.0605 11.4883 46.0605 9.98828 48.0606Z" fill="#E56E90" stroke="black" stroke-width="0.5"/>
<path d="M36.9897 44.5606C29.4897 43.5605 12.4897 45.5605 9.98974 48.0606C9.18974 50.4606 12.3231 53.3939 13.9897 54.5605C23.4897 56.0605 36.9897 50.0605 36.9897 44.5606Z" fill="#E56E90" stroke="black" stroke-width="0.5"/>
<path d="M3.98898 48.0605C10.989 49.0605 4.98898 59.5605 1.98898 64.5605C1.48891 57.5605 1.98877 52.0605 3.98898 48.0605Z" fill="#E56E90" stroke="black" stroke-width="0.5"/>
<path d="M21.9883 84.0605V79.5605H39.4883L39.9883 84.0605H21.9883Z" fill="#E56E90" stroke="black" stroke-width="0.5"/>
<path d="M2.49023 65.5605C3.99023 68.0605 5.99023 71.2272 5.49023 73.0605M21.9902 79.5605C11.4902 80.0605 6.99023 76.0605 7.99023 72.5605C8.49023 72.0605 9.99023 70.5605 10.9902 70.5605" stroke="black" stroke-width="0.5"/>
<path d="M31.9902 74.5607C29.4902 70.5607 23.9902 65.5607 20.9902 64.0607C19.2402 63.5607 16.6151 63.6857 13.865 64.0607C12.2401 65.3941 10.9902 68.5607 11.4902 71.5607C11.4902 72.7273 12.7977 75.0607 15.4902 75.0607C19.9902 75.0607 26.9902 75.5607 31.9902 74.5607Z" fill="#E56E90"/>
<path d="M5.99023 65.5607C8.24018 65.0607 11.1151 64.4357 13.865 64.0607M13.865 64.0607C16.6151 63.6857 19.2402 63.5607 20.9902 64.0607C23.9902 65.5607 29.4902 70.5607 31.9902 74.5607C26.9902 75.5607 19.9902 75.0607 15.4902 75.0607C12.7977 75.0607 11.4902 72.7273 11.4902 71.5607C10.9902 68.5607 12.2401 65.3941 13.865 64.0607Z" stroke="black" stroke-width="0.5"/>
<path d="M11.4902 71.0607C19.4902 69.5608 22.9902 72.1893 25.9902 73.6893M12.9902 74.0608L30.4902 73.5608" stroke="black" stroke-width="0.5"/>
<path d="M21.9883 82.5605H31.4883C33.4883 82.5605 34.9883 80.5605 34.4883 79.5605M37.9883 79.5605V84.0605" stroke="black" stroke-width="0.5"/>
<path d="M21.9897 81.0608C17.4897 81.0608 12.9897 81.5608 1.48969 78.5608V76.5608L5.48969 74.5608V73.0608L1.48969 72.5608C0.98877 71.0605 -0.0110346 68.0605 1.98896 65.5605C1.4892 57.5605 1.9892 51.0605 3.98969 48.0603C36.4897 28.5607 58.4897 34.5607 84.4897 30.0607C162.49 -24.9394 244.49 12.0605 281.49 26.5607L294.99 28.5605L295.49 35.5605V38.5605C296.988 43.5605 298.323 48.0605 296.99 50.0605C299.49 51.0605 301.99 54.2272 301.99 56.0605L299.99 66.0605C300.442 76.9085 298.034 77.1327 288.702 77.4452C287.711 77.4784 285.642 77.5125 284.49 77.5605V79.0605L259.49 79.4916M21.9897 81.0608V84.0608H39.988L39.4897 79.5608M21.9897 81.0608V79.5608H39.4897M39.4897 79.5608C36.4897 38.0608 89.9897 41.0608 86.4897 80.0608V82.5605H212.99C206.99 39.0605 261.49 39.0605 259.49 79.4916M258.988 79.4916H259.49" stroke="black"/>
</svg>
