<svg width="303" height="95" viewBox="0 0 303 95" fill="none" xmlns="http://www.w3.org/2000/svg">
<circle cx="62.2817" cy="73.707" r="20.5" fill="#E56E90" stroke="black"/>
<circle cx="235.282" cy="73.707" r="20.5" fill="#E56E90" stroke="black"/>
<path d="M132.28 12.2069L130.78 8.70689C170.78 0.706999 192.28 1.20703 231.28 12.707L227.78 17.207C207.78 9.20694 189.78 8.20694 173.78 7.70701C171.28 7.20701 167.28 7.20697 164.78 7.70689C154.78 7.70701 142.78 9.20701 132.28 12.2069Z" fill="#E56E90" stroke="black" stroke-width="0.5"/>
<path d="M130.78 8.70708L130.28 7.20708C166.28 -3.79297 198.78 0.206905 234.28 9.20708L231.28 12.7071C191.28 0.207031 165.28 1.70703 130.78 8.70708Z" fill="#E56E90" stroke="black" stroke-width="0.5"/>
<path d="M130.78 8.70714C182.28 -2.79288 210.78 7.20715 231.28 12.7071" stroke="black" stroke-width="0.5"/>
<path d="M170.282 29.707L173.782 7.70703C207.282 8.70703 218.782 14.207 223.282 15.707L225.764 27.707C198.774 27.7077 181.279 29.2071 170.282 29.707Z" fill="#E56E90"/>
<path d="M226.282 30.207L223.282 15.707C218.782 14.207 207.282 8.70703 173.782 7.70703L170.282 29.707C181.282 29.207 198.782 27.707 225.782 27.707" stroke="black" stroke-width="0.5"/>
<path d="M164.782 7.70703C131.782 8.70703 111.782 17.707 92.7817 35.207L95.2817 33.207L159.282 30.207L164.782 7.70703Z" fill="#E56E90" stroke="black" stroke-width="0.5"/>
<path d="M239.28 22.207C235.614 19.5404 229.78 17.207 223.28 15.707L225.78 27.707H232.28C235.28 26.207 238.28 23.9758 239.28 22.207Z" fill="#E56E90" stroke="black" stroke-width="0.5"/>
<path d="M96.2817 78.207H163.282L197.782 76.707H212.282L212.782 82.207H198.782H97.7817H86.2817V78.207H96.2817Z" fill="#E56E90"/>
<path d="M96.2817 78.207H163.282L197.782 76.707M96.2817 78.207C96.2817 79.707 96.7817 80.707 97.7817 82.207M96.2817 78.207H86.2817V82.207H97.7817M197.782 76.707L198.782 82.207M197.782 76.707H212.282L212.782 82.207H198.782M198.782 82.207H97.7817" stroke="black" stroke-width="0.5"/>
<path d="M96.2809 78.207C91.7817 73.707 88.7818 51.707 92.7809 35.207L164.782 31.207C160.782 36.207 159.782 70.207 163.282 78.207H96.2809Z" fill="#E56E90" stroke="black" stroke-width="0.5"/>
<path d="M228.281 30.207L164.781 31.207C160.781 36.207 159.781 70.207 163.281 78.207L197.781 76.707C202.281 75.207 208.781 69.707 228.281 30.207Z" fill="#E56E90" stroke="black" stroke-width="0.5"/>
<path d="M170.282 29.7071C165.782 30.2071 162.282 30.2071 159.282 30.2071L164.782 7.70711C167.782 7.20703 170.782 7.20703 173.782 7.70711L170.282 29.7071Z" fill="#E56E90" stroke="black" stroke-width="0.5"/>
<path d="M98.7817 31.7073C103.282 37.2073 110.282 33.7073 114.282 32.2073C115.282 16.7072 102.282 24.7072 98.7817 31.7073Z" fill="#E56E90" stroke="black" stroke-width="0.5"/>
<path d="M234.28 9.20703L231.28 12.707C248.28 18.207 258.78 21.207 271.28 27.707H272.78L280.78 26.207C265.78 19.707 258.28 17.207 234.28 9.20703Z" fill="#EFC7D3" stroke="black" stroke-width="0.5"/>
<path d="M271.28 27.707C260.78 22.207 241.78 15.707 231.28 12.707L229.28 15.207L244.28 22.707C242.78 25.207 238.78 27.207 232.78 29.907C244.78 29.207 261.78 28.207 271.28 27.707Z" fill="#EFC7D3" stroke="black" stroke-width="0.5"/>
<path d="M276.782 34.007L282.78 31.707L272.281 27.707L228.281 30.207C220.781 45.207 205.781 75.707 197.781 76.707H212.281C210.781 65.707 220.281 42.207 245.282 51.207C255.782 45.707 265.782 40.207 276.782 34.007Z" fill="#EFC7D3" stroke="black" stroke-width="0.5"/>
<path d="M277.78 33.7071C265.78 40.2071 255.78 45.7071 245.28 51.2071C249.78 54.207 260.28 60.207 259.28 79.207L284.28 78.707V77.207C292.78 76.207 301.28 79.707 299.78 65.707L301.78 55.707C301.78 54.207 299.28 50.207 296.78 49.707C298.28 47.207 295.28 38.207 295.28 38.207V36.707L291.28 33.707L286.28 32.207L282.78 31.707L277.78 33.7071Z" fill="#EFC7D3" stroke="black" stroke-width="0.5"/>
<path d="M280.78 26.207L272.28 27.707L282.78 31.707C292.28 32.707 291.279 34.207 295.274 36.6272L294.78 28.207L280.78 26.207Z" fill="#EFC7D3"/>
<path d="M295.28 36.707L295.274 36.6272M295.274 36.6272L294.78 28.207L280.78 26.207L272.28 27.707L282.78 31.707C292.28 32.707 291.279 34.207 295.274 36.6272Z" stroke="black" stroke-width="0.5"/>
<path d="M293.782 36.2072C293.282 33.7071 282.282 33.507 276.782 34.007" stroke="black" stroke-width="0.5"/>
<path d="M299.782 66.207L260.282 68.207C259.782 63.207 257.615 59.0404 255.782 57.207L301.782 54.707M300.282 52.207C289.282 50.707 278.282 45.907 266.282 39.907M228.282 30.207L272.282 27.707L280.782 26.207" stroke="black" stroke-width="0.5"/>
<path d="M290.282 40.207C290.282 38.207 289.282 34.207 285.782 32.207C288.003 32.207 291.379 33.2474 293.891 35.617C294.354 37.147 293.282 40.707 290.24 42.207C290.226 41.6167 290.282 40.9313 290.282 40.207Z" fill="#EFC7D3"/>
<path d="M272.282 42.707C279.277 43.0568 285.294 43.1619 290.675 43.707M297.282 44.707C295.179 44.2564 292.985 43.9411 290.675 43.707M295.282 37.207C294.864 36.6219 294.395 36.0927 293.891 35.617M290.675 43.707C290.349 43.3623 290.255 42.8392 290.24 42.207M290.24 42.207C290.226 41.6168 290.282 40.9313 290.282 40.207C290.282 38.207 289.282 34.207 285.782 32.207C288.003 32.207 291.379 33.2474 293.891 35.617M290.24 42.207C293.282 40.707 294.354 37.147 293.891 35.617" stroke="black" stroke-width="0.5"/>
<path d="M290.282 40.207C285.782 40.207 283.782 36.207 282.782 33.707" stroke="black" stroke-width="0.5"/>
<path d="M132.28 12.307C118.78 16.307 106.78 22.207 92.7803 35.207C99.7803 23.207 115.28 13.707 130.78 8.70703L132.28 12.307Z" stroke="black" stroke-width="0.5"/>
<path d="M130.78 8.70703C110.78 14.3811 92.7803 31.707 84.7803 29.707C97.7803 20.207 113.78 11.707 130.28 7.20703L130.78 8.70703Z" stroke="black" stroke-width="0.5"/>
<path d="M9.78094 47.7069H3.78094C1.28027 51.7069 1.28027 61.7069 1.78094 65.2069C0.280273 66.2069 0.280871 70.7069 1.28094 72.2069L5.28094 72.7069V74.2069L1.28094 76.2069V78.2069C5.28094 79.2069 13.7809 81.2069 21.7809 80.7069V79.2069H39.2809C38.6143 70.7069 40.2809 60.2069 49.2809 53.2069C46.7809 49.2069 39.7809 44.7069 36.7809 44.2069C26.7809 43.2069 11.7809 45.7069 9.78094 47.7069Z" stroke="black" stroke-width="0.5"/>
<path d="M92.7817 35.207C74.9484 36.0404 43.2817 40.907 32.7817 43.907L36.7817 44.207C41.7817 45.707 47.2817 50.0404 49.2817 53.207C62.2808 43.707 87.7808 50.707 86.2808 78.207H96.2808C89.2808 67.207 90.2808 45.207 92.7817 35.207Z" stroke="black" stroke-width="0.5"/>
<path d="M9.78027 47.7071H3.78027C36.2805 28.207 58.2805 34.207 84.2803 29.707L93.2805 35.207C76.2805 36.207 47.2803 39.707 33.2803 43.907C25.2803 43.707 11.2803 45.707 9.78027 47.7071Z" stroke="black" stroke-width="0.5"/>
<path d="M36.7817 44.2071C29.2817 43.207 12.2817 45.207 9.78173 47.7071C8.98173 50.107 12.1151 53.0404 13.7817 54.207C23.2817 55.707 36.7817 49.707 36.7817 44.2071Z" stroke="black" stroke-width="0.5"/>
<path d="M3.78097 47.707C10.781 48.707 4.78097 59.207 1.78097 64.207C1.2809 57.207 1.78076 51.707 3.78097 47.707Z" stroke="black" stroke-width="0.5"/>
<path d="M21.7803 83.707V79.207H39.2803L39.7803 83.707H21.7803Z" stroke="black" stroke-width="0.5"/>
<path d="M2.28223 65.207C3.78223 67.707 5.78223 70.8737 5.28223 72.707M21.7822 79.207C11.2822 79.707 6.78223 75.707 7.78223 72.207C8.28223 71.707 9.78223 70.207 10.7822 70.207" stroke="black" stroke-width="0.5"/>
<path d="M5.78223 65.2072C8.03217 64.7072 10.9071 64.0822 13.657 63.7072M13.657 63.7072C16.4071 63.3322 19.0322 63.2072 20.7822 63.7072C23.7822 65.2072 29.2822 70.2072 31.7822 74.2072C26.7822 75.2072 19.7822 74.7072 15.2822 74.7072C12.5896 74.7072 11.2822 72.3738 11.2822 71.2072C10.7822 68.2072 12.0321 65.0405 13.657 63.7072Z" stroke="black" stroke-width="0.5"/>
<path d="M11.2822 70.7072C19.2822 69.2073 22.7822 71.8358 25.7822 73.3358M12.7822 73.7073L30.2822 73.2073" stroke="black" stroke-width="0.5"/>
<path d="M21.7803 82.207H31.2803C33.2803 82.207 34.7803 80.207 34.2803 79.207M37.7803 79.207V83.707" stroke="black" stroke-width="0.5"/>
<path d="M21.7817 80.7073C17.2817 80.7073 12.7817 81.2073 1.28168 78.2073V76.2073L5.28168 74.2073V72.7073L1.28168 72.2073C0.780762 70.707 -0.219042 67.707 1.78095 65.207C1.2812 57.207 1.7812 50.707 3.78168 47.7068C36.2817 28.2072 58.2817 34.2072 84.2817 29.7072C162.282 -25.2929 244.282 11.707 281.282 26.2072L294.782 28.207L295.282 35.207V38.207C296.78 43.207 298.115 47.707 296.782 49.707C299.282 50.707 301.782 53.8737 301.782 55.707L299.782 65.707C300.234 76.5549 297.826 76.7792 288.494 77.0917C287.503 77.1249 285.434 77.159 284.282 77.207V78.707L259.282 79.1381M21.7817 80.7073V83.7073H39.78L39.2817 79.2073M21.7817 80.7073V79.2073H39.2817M39.2817 79.2073C36.2817 37.7073 89.7817 40.7073 86.2817 79.7073V82.207H212.782C206.782 38.707 261.282 38.707 259.282 79.1381M258.78 79.1381H259.282" stroke="black"/>
</svg>
