<svg width="303" height="96" viewBox="0 0 303 96" fill="none" xmlns="http://www.w3.org/2000/svg">
<circle cx="62.4795" cy="74.1692" r="20.5" fill="#E0426F" stroke="black"/>
<circle cx="235.479" cy="74.1692" r="20.5" fill="#E0426F" stroke="black"/>
<path d="M132.478 12.669L130.978 9.16904C170.978 1.16916 192.478 1.66919 231.478 13.1691L227.978 17.6691C207.978 9.6691 189.978 8.6691 173.978 8.16917C171.478 7.66917 167.478 7.66913 164.978 8.16904C154.978 8.16917 142.978 9.66917 132.478 12.669Z" stroke="black" stroke-width="0.5"/>
<path d="M130.978 9.16923L130.478 7.66923C166.478 -3.33081 198.978 0.669064 234.478 9.66924L231.478 13.1692C191.478 0.669189 165.478 2.16919 130.978 9.16923Z" stroke="black" stroke-width="0.5"/>
<path d="M130.978 9.16918C182.478 -2.33085 210.978 7.66919 231.478 13.1692" stroke="black" stroke-width="0.5"/>
<path d="M226.479 30.6692L223.479 16.1692C218.979 14.6692 207.479 9.16919 173.979 8.16919L170.479 30.1692C181.479 29.6692 198.979 28.1692 225.979 28.1692" stroke="black" stroke-width="0.5"/>
<path d="M164.979 8.16919C131.979 9.16919 111.979 18.1692 92.9795 35.6692L95.4795 33.6692L159.479 30.6692L164.979 8.16919Z" stroke="black" stroke-width="0.5"/>
<path d="M239.478 22.6692C235.811 20.0025 229.978 17.6692 223.478 16.1692L225.978 28.1692H232.478C235.478 26.6692 238.478 24.4379 239.478 22.6692Z" stroke="black" stroke-width="0.5"/>
<path d="M96.4795 78.6692H163.479L197.979 77.1692M96.4795 78.6692C96.4795 80.1692 96.9795 81.1692 97.9795 82.6692M96.4795 78.6692H86.4795V82.6692H97.9795M197.979 77.1692L198.979 82.6692M197.979 77.1692H212.479L212.979 82.6692H198.979M198.979 82.6692H97.9795" stroke="black" stroke-width="0.5"/>
<path d="M96.4786 78.6692C91.9795 74.1692 88.9795 52.1692 92.9786 35.6692L164.979 31.6692C160.979 36.6692 159.979 70.6692 163.479 78.6692H96.4786Z" stroke="black" stroke-width="0.5"/>
<path d="M228.479 30.6692L164.979 31.6692C160.98 36.6692 159.98 70.6692 163.479 78.6692L197.979 77.1692C202.479 75.6692 208.979 70.1692 228.479 30.6692Z" stroke="black" stroke-width="0.5"/>
<path d="M170.479 30.1693C165.979 30.6693 162.479 30.6693 159.479 30.6693L164.979 8.16926C167.979 7.66919 170.979 7.66919 173.979 8.16926L170.479 30.1693Z" stroke="black" stroke-width="0.5"/>
<path d="M98.9795 32.1693C103.479 37.6693 110.479 34.1693 114.479 32.6693C115.479 17.1692 102.479 25.1692 98.9795 32.1693Z" stroke="black" stroke-width="0.5"/>
<path d="M234.478 9.66919L231.478 13.1692C248.478 18.6692 258.978 21.6692 271.478 28.1692H272.978L280.978 26.6692C265.978 20.1692 258.478 17.6692 234.478 9.66919Z" fill="#EFC7D3" stroke="black" stroke-width="0.5"/>
<path d="M271.478 28.1692C260.978 22.6692 241.978 16.1692 231.478 13.1692L229.478 15.6692L244.478 23.1692C242.978 25.6692 238.978 27.6692 232.978 30.3692C244.978 29.6692 261.978 28.6692 271.478 28.1692Z" fill="#EFC7D3" stroke="black" stroke-width="0.5"/>
<path d="M276.979 34.4692L282.978 32.1692L272.479 28.1692L228.479 30.6692C220.979 45.6692 205.979 76.1692 197.979 77.1692H212.479C210.979 66.1692 220.479 42.6692 245.479 51.6692C255.979 46.1692 265.979 40.6692 276.979 34.4692Z" fill="#EFC7D3" stroke="black" stroke-width="0.5"/>
<path d="M277.978 34.1692C265.978 40.6692 255.978 46.1692 245.478 51.6692C249.978 54.6692 260.478 60.6692 259.478 79.6692L284.478 79.1692V77.6692C292.978 76.6692 301.478 80.1692 299.978 66.1692L301.978 56.1692C301.978 54.6692 299.478 50.6692 296.978 50.1692C298.478 47.6692 295.478 38.6692 295.478 38.6692V37.1692L291.478 34.1692L286.478 32.6692L282.978 32.1692L277.978 34.1692Z" fill="#EFC7D3" stroke="black" stroke-width="0.5"/>
<path d="M280.978 26.6692L272.478 28.1692L282.978 32.1692C292.478 33.1692 291.476 34.6692 295.472 37.0894L294.978 28.6692L280.978 26.6692Z" fill="#EFC7D3"/>
<path d="M295.478 37.1692L295.472 37.0894M295.472 37.0894L294.978 28.6692L280.978 26.6692L272.478 28.1692L282.978 32.1692C292.478 33.1692 291.476 34.6692 295.472 37.0894Z" stroke="black" stroke-width="0.5"/>
<path d="M293.979 36.6694C293.479 34.1693 282.479 33.9692 276.979 34.4692" stroke="black" stroke-width="0.5"/>
<path d="M299.979 66.6692L260.479 68.6692C259.979 63.6692 257.813 59.5025 255.979 57.6692L301.979 55.1692M300.479 52.6692C289.479 51.1692 278.479 46.3692 266.479 40.3692M228.479 30.6692L272.479 28.1692L280.979 26.6692" stroke="black" stroke-width="0.5"/>
<path d="M290.479 40.6692C290.479 38.6692 289.479 34.6692 285.979 32.6692C288.2 32.6692 291.577 33.7096 294.088 36.0792C294.552 37.6092 293.479 41.1692 290.438 42.6692C290.424 42.0789 290.479 41.3935 290.479 40.6692Z" fill="#EFC7D3"/>
<path d="M272.479 43.1692C279.475 43.519 285.492 43.6241 290.873 44.1692M297.479 45.1692C295.376 44.7185 293.183 44.4033 290.873 44.1692M295.479 37.6692C295.062 37.0841 294.592 36.5548 294.088 36.0792M290.873 44.1692C290.546 43.8244 290.452 43.3014 290.438 42.6692M290.438 42.6692C290.424 42.0789 290.479 41.3935 290.479 40.6692C290.479 38.6692 289.479 34.6692 285.979 32.6692C288.2 32.6692 291.577 33.7096 294.088 36.0792M290.438 42.6692C293.479 41.1692 294.552 37.6092 294.088 36.0792" stroke="black" stroke-width="0.5"/>
<path d="M290.479 40.6692C285.979 40.6692 283.979 36.6692 282.979 34.1692" stroke="black" stroke-width="0.5"/>
<path d="M132.478 12.7692C118.978 16.7692 106.978 22.6692 92.978 35.6692C99.978 23.6692 115.478 14.1692 130.978 9.16919L132.478 12.7692Z" stroke="black" stroke-width="0.5"/>
<path d="M130.978 9.16919C110.978 14.8432 92.978 32.1692 84.978 30.1692C97.978 20.6692 113.978 12.1692 130.478 7.66919L130.978 9.16919Z" stroke="black" stroke-width="0.5"/>
<path d="M9.97869 48.1692H3.97869C1.47803 52.1692 1.47803 62.1692 1.97869 65.6692C0.478027 66.6692 0.478625 71.1692 1.47869 72.6692L5.47869 73.1692V74.6692L1.47869 76.6692V78.6692C5.47869 79.6692 13.9787 81.6692 21.9787 81.1692V79.6692H39.4787C38.812 71.1692 40.4787 60.6692 49.4787 53.6692C46.9787 49.6692 39.9787 45.1692 36.9787 44.6692C26.9787 43.6692 11.9787 46.1692 9.97869 48.1692Z" stroke="black" stroke-width="0.5"/>
<path d="M92.9795 35.6692C75.1462 36.5025 43.4795 41.3692 32.9795 44.3692L36.9795 44.6692C41.9795 46.1692 47.4795 50.5025 49.4795 53.6692C62.4785 44.1692 87.9785 51.1692 86.4785 78.6692H96.4785C89.4785 67.6692 90.4785 45.6692 92.9795 35.6692Z" stroke="black" stroke-width="0.5"/>
<path d="M9.97754 48.1692H3.97754C36.4777 28.6691 58.4778 34.6692 84.4775 30.1692L93.4778 35.6692C76.4778 36.6692 47.4775 40.1692 33.4775 44.3692C25.4775 44.1692 11.4775 46.1692 9.97754 48.1692Z" stroke="black" stroke-width="0.5"/>
<path d="M36.9795 44.6693C29.4795 43.6692 12.4795 45.6692 9.97948 48.1693C9.17948 50.5692 12.3128 53.5025 13.9795 54.6692C23.4795 56.1692 36.9795 50.1692 36.9795 44.6693Z" stroke="black" stroke-width="0.5"/>
<path d="M3.97872 48.1692C10.9787 49.1692 4.97872 59.6692 1.97872 64.6692C1.47865 57.6692 1.97852 52.1692 3.97872 48.1692Z" stroke="black" stroke-width="0.5"/>
<path d="M21.978 84.1692V79.6692H39.478L39.978 84.1692H21.978Z" stroke="black" stroke-width="0.5"/>
<path d="M2.47949 65.6692C3.97949 68.1692 5.97949 71.3359 5.47949 73.1692M21.9795 79.6692C11.4795 80.1692 6.97949 76.1692 7.97949 72.6692C8.47949 72.1692 9.97949 70.6692 10.9795 70.6692" stroke="black" stroke-width="0.5"/>
<path d="M5.97949 65.6693C8.22943 65.1692 11.1043 64.5443 13.8543 64.1693M13.8543 64.1693C16.6044 63.7943 19.2294 63.6693 20.9795 64.1693C23.9795 65.6693 29.4795 70.6692 31.9795 74.6692C26.9795 75.6692 19.9795 75.1692 15.4795 75.1692C12.7869 75.1692 11.4795 72.8359 11.4795 71.6692C10.9795 68.6692 12.2293 65.5026 13.8543 64.1693Z" stroke="black" stroke-width="0.5"/>
<path d="M11.4795 71.1693C19.4795 69.6693 22.9795 72.2978 25.9795 73.7978M12.9795 74.1693L30.4795 73.6693" stroke="black" stroke-width="0.5"/>
<path d="M21.9775 82.6692H31.4775C33.4775 82.6692 34.9775 80.6692 34.4775 79.6692M37.9775 79.6692V84.1692" stroke="black" stroke-width="0.5"/>
<path d="M21.9794 81.1694C17.4794 81.1694 12.9794 81.6694 1.47944 78.6694V76.6694L5.47944 74.6694V73.1694L1.47944 72.6694C0.978516 71.1692 -0.0212885 68.1692 1.97871 65.6692C1.47895 57.6692 1.97895 51.1692 3.97944 48.1689C36.4794 28.6693 58.4794 34.6694 84.4794 30.1694C162.479 -24.8307 244.479 12.1692 281.479 26.6694L294.979 28.6692L295.479 35.6692V38.6692C296.978 43.6692 298.313 48.1692 296.979 50.1692C299.479 51.1692 301.979 54.3359 301.979 56.1692L299.979 66.1692C300.431 77.0171 298.023 77.2414 288.692 77.5538C287.701 77.587 285.632 77.6212 284.479 77.6692V79.1692L259.479 79.6002M21.9794 81.1694V84.1694H39.9778L39.4794 79.6694M21.9794 81.1694V79.6694H39.4794M39.4794 79.6694C36.4794 38.1694 89.9794 41.1694 86.4794 80.1694V82.6692H212.979C206.979 39.1692 261.479 39.1692 259.479 79.6002M258.978 79.6002H259.479" stroke="black"/>
</svg>
