<svg width="304" height="95" viewBox="0 0 304 95" fill="none" xmlns="http://www.w3.org/2000/svg">
<circle cx="63.0635" cy="73.8611" r="20.5" fill="#EDADBF" stroke="black"/>
<circle cx="236.063" cy="73.8611" r="20.5" fill="#EDADBF" stroke="black"/>
<path d="M133.062 12.3609L131.562 8.86094C171.562 0.861052 193.062 1.36108 232.062 12.861L228.562 17.361C208.562 9.36099 190.562 8.36099 174.562 7.86106C172.062 7.36106 168.062 7.36102 165.562 7.86094C155.562 7.86106 143.562 9.36106 133.062 12.3609Z" fill="#EDADBF" stroke="black" stroke-width="0.5"/>
<path d="M131.562 8.86113L131.062 7.36113C167.062 -3.63892 199.562 0.360958 235.062 9.36113L232.062 12.8611C192.062 0.361084 166.062 1.86108 131.562 8.86113Z" fill="#EDADBF" stroke="black" stroke-width="0.5"/>
<path d="M131.562 8.86095C183.062 -2.63908 211.562 7.36096 232.062 12.8609" stroke="black" stroke-width="0.5"/>
<path d="M171.063 29.8611L174.563 7.86108C208.063 8.86108 219.563 14.3611 224.063 15.8611L226.546 27.8611C199.556 27.8617 182.061 29.3612 171.063 29.8611Z" fill="#EDADBF"/>
<path d="M227.063 30.3611L224.063 15.8611C219.563 14.3611 208.063 8.86108 174.563 7.86108L171.063 29.8611C182.063 29.3611 199.563 27.8611 226.563 27.8611" stroke="black" stroke-width="0.5"/>
<path d="M165.563 7.86108C132.563 8.86108 112.563 17.8611 93.5635 35.3611L96.0635 33.3611L160.063 30.3611L165.563 7.86108Z" fill="#EDADBF" stroke="black" stroke-width="0.5"/>
<path d="M240.062 22.3611C236.395 19.6944 230.562 17.3611 224.062 15.8611L226.562 27.8611H233.062C236.062 26.3611 239.062 24.1298 240.062 22.3611Z" fill="#EDADBF" stroke="black" stroke-width="0.5"/>
<path d="M97.0635 78.3611H164.063L198.563 76.8611H213.063L213.563 82.3611H199.563H98.5635H87.0635V78.3611H97.0635Z" fill="#EDADBF"/>
<path d="M97.0635 78.3611H164.063L198.563 76.8611M97.0635 78.3611C97.0635 79.8611 97.5635 80.8611 98.5635 82.3611M97.0635 78.3611H87.0635V82.3611H98.5635M198.563 76.8611L199.563 82.3611M198.563 76.8611H213.063L213.563 82.3611H199.563M199.563 82.3611H98.5635" stroke="black" stroke-width="0.5"/>
<path d="M97.0626 78.3611C92.5635 73.8611 89.5635 51.8611 93.5626 35.3611L165.563 31.3611C161.563 36.3611 160.563 70.3611 164.063 78.3611H97.0626Z" fill="#EDADBF" stroke="black" stroke-width="0.5"/>
<path d="M229.063 30.3611L165.563 31.3611C161.564 36.3611 160.564 70.3611 164.063 78.3611L198.563 76.8611C203.063 75.3611 209.563 69.8611 229.063 30.3611Z" fill="#EDADBF" stroke="black" stroke-width="0.5"/>
<path d="M171.063 29.8612C166.563 30.3612 163.063 30.3612 160.063 30.3612L165.563 7.86116C168.563 7.36108 171.563 7.36108 174.563 7.86116L171.063 29.8612Z" fill="#EDADBF" stroke="black" stroke-width="0.5"/>
<path d="M99.5635 31.8611C104.063 37.3611 111.063 33.8611 115.063 32.3611C116.063 16.861 103.063 24.861 99.5635 31.8611Z" fill="#EDADBF" stroke="black" stroke-width="0.5"/>
<path d="M235.062 9.36108L232.062 12.8611C249.062 18.3611 259.562 21.3611 272.062 27.8611H273.562L281.562 26.3611C266.562 19.8611 259.062 17.3611 235.062 9.36108Z" fill="#E56E90" stroke="black" stroke-width="0.5"/>
<path d="M272.062 27.8611C261.562 22.3611 242.562 15.8611 232.062 12.8611L230.062 15.3611L245.062 22.8611C243.562 25.3611 239.562 27.3611 233.562 30.0611C245.562 29.3611 262.562 28.3611 272.062 27.8611Z" fill="#E56E90" stroke="black" stroke-width="0.5"/>
<path d="M277.563 34.1611L283.562 31.8611L273.062 27.8611L229.062 30.3611C221.562 45.3611 206.562 75.8611 198.562 76.8611H213.062C211.562 65.8611 221.062 42.3611 246.063 51.3611C256.563 45.8611 266.563 40.3611 277.563 34.1611Z" fill="#E56E90" stroke="black" stroke-width="0.5"/>
<path d="M278.562 33.8611C266.562 40.3611 256.562 45.8611 246.062 51.3611C250.562 54.3611 261.062 60.3611 260.062 79.3611L285.062 78.8611V77.3611C293.562 76.3611 302.062 79.8611 300.562 65.8611L302.562 55.8611C302.562 54.3611 300.062 50.3611 297.562 49.8611C299.062 47.3611 296.062 38.3611 296.062 38.3611V36.8611L292.062 33.8611L287.062 32.3611L283.562 31.8611L278.562 33.8611Z" fill="#E56E90" stroke="black" stroke-width="0.5"/>
<path d="M281.562 26.3611L273.062 27.8611L283.562 31.8611C293.062 32.8611 292.06 34.3611 296.056 36.7813L295.562 28.3611L281.562 26.3611Z" fill="#E56E90"/>
<path d="M296.062 36.8611L296.056 36.7813M296.056 36.7813L295.562 28.3611L281.562 26.3611L273.062 27.8611L283.562 31.8611C293.062 32.8611 292.06 34.3611 296.056 36.7813Z" stroke="black" stroke-width="0.5"/>
<path d="M294.563 36.3613C294.063 33.8612 283.063 33.6611 277.563 34.1611" stroke="black" stroke-width="0.5"/>
<path d="M300.563 66.3611L261.063 68.3611C260.563 63.3611 258.397 59.1944 256.563 57.3611L302.563 54.8611M301.063 52.3611C290.063 50.8611 279.063 46.0611 267.063 40.0611M229.063 30.3611L273.063 27.8611L281.563 26.3611" stroke="black" stroke-width="0.5"/>
<path d="M291.063 40.3611C291.063 38.3611 290.063 34.3611 286.563 32.3611C288.784 32.3611 292.161 33.4015 294.672 35.7711C295.136 37.3011 294.063 40.8611 291.022 42.3611C291.008 41.7708 291.063 41.0854 291.063 40.3611Z" fill="#E56E90"/>
<path d="M273.063 42.8611C280.059 43.2109 286.076 43.316 291.457 43.8611M298.063 44.8611C295.96 44.4104 293.767 44.0952 291.457 43.8611M296.063 37.3611C295.646 36.776 295.176 36.2467 294.672 35.7711M291.457 43.8611C291.13 43.5163 291.036 42.9933 291.022 42.3611M291.022 42.3611C291.008 41.7708 291.063 41.0854 291.063 40.3611C291.063 38.3611 290.063 34.3611 286.563 32.3611C288.784 32.3611 292.161 33.4015 294.672 35.7711M291.022 42.3611C294.063 40.8611 295.136 37.3011 294.672 35.7711" stroke="black" stroke-width="0.5"/>
<path d="M291.063 40.3611C286.563 40.3611 284.563 36.3611 283.563 33.8611" stroke="black" stroke-width="0.5"/>
<path d="M133.062 12.4611C119.562 16.4611 107.562 22.3611 93.5615 35.3611C100.562 23.3611 116.062 13.8611 131.562 8.86108L133.062 12.4611Z" stroke="black" stroke-width="0.5"/>
<path d="M131.562 8.86108C111.562 14.5351 93.5615 31.8611 85.5615 29.8611C98.5615 20.3611 114.562 11.8611 131.062 7.36108L131.562 8.86108Z" stroke="black" stroke-width="0.5"/>
<path d="M10.5622 47.861H4.56219C2.06152 51.861 2.06152 61.861 2.56219 65.361C1.06152 66.361 1.06212 70.861 2.06219 72.361L6.06219 72.861V74.361L2.06219 76.361V78.361C6.06219 79.361 14.5622 81.361 22.5622 80.861V79.361H40.0622C39.3955 70.861 41.0622 60.361 50.0622 53.361C47.5622 49.361 40.5622 44.861 37.5622 44.361C27.5622 43.361 12.5622 45.861 10.5622 47.861Z" stroke="black" stroke-width="0.5"/>
<path d="M93.5635 35.3611C75.7301 36.1944 44.0635 41.0611 33.5635 44.0611L37.5635 44.3611C42.5635 45.8611 48.0635 50.1944 50.0635 53.3611C63.0625 43.8611 88.5625 50.8611 87.0625 78.3611H97.0625C90.0625 67.3611 91.0625 45.3611 93.5635 35.3611Z" stroke="black" stroke-width="0.5"/>
<path d="M10.5615 47.8611H4.56152C37.0617 28.361 59.0618 34.3611 85.0615 29.8611L94.0618 35.3611C77.0618 36.3611 48.0615 39.8611 34.0615 44.0611C26.0615 43.8611 12.0615 45.8611 10.5615 47.8611Z" stroke="black" stroke-width="0.5"/>
<path d="M37.563 44.3612C30.063 43.3611 13.063 45.3611 10.563 47.8612C9.76298 50.2611 12.8963 53.1944 14.563 54.3611C24.063 55.8611 37.563 49.8611 37.563 44.3612Z" stroke="black" stroke-width="0.5"/>
<path d="M4.56222 47.8611C11.5622 48.8611 5.56222 59.3611 2.56222 64.3611C2.06215 57.3611 2.56201 51.8611 4.56222 47.8611Z" stroke="black" stroke-width="0.5"/>
<path d="M22.5615 83.8611V79.3611H40.0615L40.5615 83.8611H22.5615Z" stroke="black" stroke-width="0.5"/>
<path d="M3.06348 65.3608C4.56348 67.8608 6.56348 71.0275 6.06348 72.8608M22.5635 79.3608C12.0635 79.8608 7.56348 75.8608 8.56348 72.3608C9.06348 71.8608 10.5635 70.3608 11.5635 70.3608" stroke="black" stroke-width="0.5"/>
<path d="M6.56348 65.361C8.81342 64.861 11.6883 64.236 14.4383 63.861M14.4383 63.861C17.1883 63.486 19.8134 63.361 21.5635 63.861C24.5635 65.361 30.0635 70.361 32.5635 74.361C27.5635 75.361 20.5635 74.861 16.0635 74.861C13.3709 74.861 12.0635 72.5276 12.0635 71.361C11.5635 68.361 12.8133 65.1943 14.4383 63.861Z" stroke="black" stroke-width="0.5"/>
<path d="M12.0635 70.861C20.0635 69.3611 23.5635 71.9896 26.5635 73.4896M13.5635 73.8611L31.0635 73.3611" stroke="black" stroke-width="0.5"/>
<path d="M22.5615 82.3608H32.0615C34.0615 82.3608 35.5615 80.3608 35.0615 79.3608M38.5615 79.3608V83.8608" stroke="black" stroke-width="0.5"/>
<path d="M22.5634 80.8613C18.0634 80.8613 13.5634 81.3613 2.06342 78.3613V76.3613L6.06342 74.3613V72.8613L2.06342 72.3613C1.5625 70.8611 0.562696 67.8611 2.56269 65.3611C2.06293 57.3611 2.56293 50.8611 4.56342 47.8608C37.0634 28.3612 59.0634 34.3613 85.0634 29.8613C163.063 -25.1388 245.063 11.8611 282.063 26.3613L295.563 28.3611L296.063 35.3611V38.3611C297.562 43.3611 298.897 47.8611 297.563 49.8611C300.063 50.8611 302.563 54.0278 302.563 55.8611L300.563 65.8611C301.015 76.709 298.607 76.9333 289.276 77.2457C288.285 77.2789 286.216 77.3131 285.063 77.3611V78.8611L260.063 79.2921M22.5634 80.8613V83.8613H40.5618L40.0634 79.3613M22.5634 80.8613V79.3613H40.0634M40.0634 79.3613C37.0634 37.8613 90.5634 40.8613 87.0634 79.8613V82.3611H213.563C207.563 38.8611 262.063 38.8611 260.063 79.2921M259.562 79.2921H260.063" stroke="black"/>
</svg>
