<svg width="303" height="95" viewBox="0 0 303 95" fill="none" xmlns="http://www.w3.org/2000/svg">
<circle cx="62.2915" cy="73.6919" r="20.5" fill="#E56E90" stroke="black"/>
<circle cx="235.292" cy="73.6919" r="20.5" fill="#E56E90" stroke="black"/>
<path d="M132.29 12.1918L130.79 8.69175C170.79 0.691862 192.29 1.19189 231.29 12.6918L227.79 17.1918C207.79 9.1918 189.79 8.1918 173.79 7.69187C171.29 7.19187 167.29 7.19183 164.79 7.69175C154.79 7.69187 142.79 9.19187 132.29 12.1918Z" fill="#EFC7D3" stroke="black" stroke-width="0.5"/>
<path d="M130.79 8.69194L130.29 7.19194C166.29 -3.80811 198.79 0.191769 234.29 9.19194L231.29 12.6919C191.29 0.191895 165.29 1.69189 130.79 8.69194Z" fill="#EFC7D3" stroke="black" stroke-width="0.5"/>
<path d="M130.79 8.692C182.29 -2.80802 210.79 7.19202 231.29 12.692" stroke="black" stroke-width="0.5"/>
<path d="M170.292 29.6919L173.792 7.69189C207.292 8.69189 218.792 14.1919 223.292 15.6919L225.774 27.6919C198.784 27.6925 181.289 29.192 170.292 29.6919Z" fill="#EFC7D3"/>
<path d="M226.292 30.1919L223.292 15.6919C218.792 14.1919 207.292 8.69189 173.792 7.69189L170.292 29.6919C181.292 29.1919 198.792 27.6919 225.792 27.6919" stroke="black" stroke-width="0.5"/>
<path d="M164.792 7.69189C131.792 8.69189 111.792 17.6919 92.7915 35.1919L95.2915 33.1919L159.292 30.1919L164.792 7.69189Z" fill="#EFC7D3" stroke="black" stroke-width="0.5"/>
<path d="M239.29 22.1919C235.623 19.5252 229.79 17.1919 223.29 15.6919L225.79 27.6919H232.29C235.29 26.1919 238.29 23.9606 239.29 22.1919Z" fill="#EFC7D3" stroke="black" stroke-width="0.5"/>
<path d="M96.2915 78.1919H163.292L197.792 76.6919H212.292L212.792 82.1919H198.792H97.7915H86.2915V78.1919H96.2915Z" fill="#EFC7D3"/>
<path d="M96.2915 78.1919H163.292L197.792 76.6919M96.2915 78.1919C96.2915 79.6919 96.7915 80.6919 97.7915 82.1919M96.2915 78.1919H86.2915V82.1919H97.7915M197.792 76.6919L198.792 82.1919M197.792 76.6919H212.292L212.792 82.1919H198.792M198.792 82.1919H97.7915" stroke="black" stroke-width="0.5"/>
<path d="M96.2906 78.1919C91.7915 73.6919 88.7915 51.6919 92.7906 35.1919L164.792 31.1919C160.792 36.1919 159.792 70.1919 163.291 78.1919H96.2906Z" fill="#EFC7D3" stroke="black" stroke-width="0.5"/>
<path d="M228.291 30.1919L164.791 31.1919C160.791 36.1919 159.791 70.1919 163.291 78.1919L197.791 76.6919C202.291 75.1919 208.791 69.6919 228.291 30.1919Z" fill="#EFC7D3" stroke="black" stroke-width="0.5"/>
<path d="M170.292 29.692C165.792 30.192 162.292 30.192 159.292 30.192L164.792 7.69197C167.792 7.19189 170.792 7.19189 173.792 7.69197L170.292 29.692Z" fill="#EFC7D3" stroke="black" stroke-width="0.5"/>
<path d="M98.7915 31.6922C103.292 37.1922 110.292 33.6922 114.292 32.1922C115.292 16.692 102.292 24.692 98.7915 31.6922Z" fill="#EFC7D3" stroke="black" stroke-width="0.5"/>
<path d="M234.29 9.19189L231.29 12.6919C248.29 18.1919 258.79 21.1919 271.29 27.6919H272.79L280.79 26.1919C265.79 19.6919 258.29 17.1919 234.29 9.19189Z" stroke="black" stroke-width="0.5"/>
<path d="M271.29 27.6919C260.79 22.1919 241.79 15.6919 231.29 12.6919L229.29 15.1919L244.29 22.6919C242.79 25.1919 238.79 27.1919 232.79 29.8919C244.79 29.1919 261.79 28.1919 271.29 27.6919Z" stroke="black" stroke-width="0.5"/>
<path d="M276.792 33.9919L282.79 31.6919L272.291 27.6919L228.291 30.1919C220.791 45.1919 205.791 75.6919 197.791 76.6919H212.291C210.791 65.6919 220.291 42.1919 245.292 51.1919C255.792 45.6919 265.792 40.1919 276.792 33.9919Z" stroke="black" stroke-width="0.5"/>
<path d="M277.79 33.6919C265.79 40.1919 255.79 45.6919 245.29 51.1919C249.79 54.1919 260.29 60.1919 259.29 79.1919L284.29 78.6919V77.1919C292.79 76.1919 301.29 79.6919 299.79 65.6919L301.79 55.6919C301.79 54.1919 299.29 50.1919 296.79 49.6919C298.29 47.1919 295.29 38.1919 295.29 38.1919V36.6919L291.29 33.6919L286.29 32.1919L282.79 31.6919L277.79 33.6919Z" stroke="black" stroke-width="0.5"/>
<path d="M295.29 36.6919L295.284 36.6121M295.284 36.6121L294.79 28.1919L280.79 26.1919L272.29 27.6919L282.79 31.6919C292.29 32.6919 291.289 34.1919 295.284 36.6121Z" stroke="black" stroke-width="0.5"/>
<path d="M293.792 36.1921C293.292 33.692 282.292 33.4919 276.792 33.9919" stroke="black" stroke-width="0.5"/>
<path d="M299.792 66.1919L260.292 68.1919C259.792 63.1919 257.625 59.0252 255.792 57.1919L301.792 54.6919M300.292 52.1919C289.292 50.6919 278.292 45.8919 266.292 39.8919M228.292 30.1919L272.292 27.6919L280.792 26.1919" stroke="black" stroke-width="0.5"/>
<path d="M272.292 42.6919C279.287 43.0417 285.304 43.1468 290.685 43.6919M297.292 44.6919C295.189 44.2413 292.995 43.926 290.685 43.6919M295.292 37.1919C294.874 36.6068 294.404 36.0775 293.9 35.6019M290.685 43.6919C290.358 43.3471 290.264 42.8241 290.25 42.1919M290.25 42.1919C290.236 41.6016 290.292 40.9162 290.292 40.1919C290.292 38.1919 289.292 34.1919 285.792 32.1919C288.012 32.1919 291.389 33.2323 293.9 35.6019M290.25 42.1919C293.292 40.6919 294.364 37.1319 293.9 35.6019" stroke="black" stroke-width="0.5"/>
<path d="M290.292 40.1919C285.792 40.1919 283.792 36.1919 282.792 33.6919" stroke="black" stroke-width="0.5"/>
<path d="M132.29 12.2919C118.79 16.2919 106.79 22.1919 92.79 35.1919C99.79 23.1919 115.29 13.6919 130.79 8.69189L132.29 12.2919Z" fill="#E0426F" stroke="black" stroke-width="0.5"/>
<path d="M130.79 8.69189C110.79 14.3659 92.79 31.6919 84.79 29.6919C97.79 20.1919 113.79 11.6919 130.29 7.19189L130.79 8.69189Z" fill="#E0426F" stroke="black" stroke-width="0.5"/>
<path d="M9.79071 47.6918H3.79071C1.29004 51.6918 1.29004 61.6918 1.79071 65.1918C0.290039 66.1918 0.290637 70.6918 1.29071 72.1918L5.29071 72.6918V74.1918L1.29071 76.1918V78.1918C5.29071 79.1918 13.7907 81.1918 21.7907 80.6918V79.1918H39.2907C38.624 70.6918 40.2907 60.1918 49.2907 53.1918C46.7907 49.1918 39.7907 44.6918 36.7907 44.1918C26.7907 43.1918 11.7907 45.6918 9.79071 47.6918Z" fill="#E0426F" stroke="black" stroke-width="0.5"/>
<path d="M92.7915 35.1919C74.9582 36.0252 43.2915 40.8919 32.7915 43.8919L36.7915 44.1919C41.7915 45.6919 47.2915 50.0252 49.2915 53.1919C62.2905 43.6919 87.7905 50.6919 86.2905 78.1919H96.2905C89.2905 67.1919 90.2905 45.1919 92.7915 35.1919Z" fill="#E0426F" stroke="black" stroke-width="0.5"/>
<path d="M9.79004 47.6919H3.79004C36.2902 28.1918 58.2903 34.1919 84.29 29.6919L93.2903 35.1919C76.2903 36.1919 47.29 39.6919 33.29 43.8919C25.29 43.6919 11.29 45.6919 9.79004 47.6919Z" fill="#E0426F" stroke="black" stroke-width="0.5"/>
<path d="M36.7915 44.192C29.2915 43.1919 12.2915 45.1919 9.79149 47.692C8.99149 50.0919 12.1248 53.0252 13.7915 54.1919C23.2915 55.6919 36.7915 49.6919 36.7915 44.192Z" fill="#E0426F" stroke="black" stroke-width="0.5"/>
<path d="M3.79073 47.6919C10.7907 48.6919 4.79073 59.1919 1.79073 64.1919C1.29066 57.1919 1.79053 51.6919 3.79073 47.6919Z" fill="#E0426F" stroke="black" stroke-width="0.5"/>
<path d="M21.79 83.6919V79.1919H39.29L39.79 83.6919H21.79Z" fill="#E0426F" stroke="black" stroke-width="0.5"/>
<path d="M2.29199 65.1919C3.79199 67.6919 5.79199 70.8586 5.29199 72.6919M21.792 79.1919C11.292 79.6919 6.79199 75.6919 7.79199 72.1919C8.29199 71.6919 9.79199 70.1919 10.792 70.1919" stroke="black" stroke-width="0.5"/>
<path d="M31.792 74.192C29.292 70.192 23.792 65.1921 20.792 63.6921C19.0419 63.1921 16.4169 63.3171 13.6668 63.6921C12.0419 65.0254 10.792 68.192 11.292 71.192C11.292 72.3587 12.5994 74.692 15.292 74.692C19.792 74.692 26.792 75.192 31.792 74.192Z" fill="#E0426F"/>
<path d="M5.79199 65.1921C8.04193 64.6921 10.9168 64.0671 13.6668 63.6921M13.6668 63.6921C16.4169 63.3171 19.0419 63.1921 20.792 63.6921C23.792 65.1921 29.292 70.192 31.792 74.192C26.792 75.192 19.792 74.692 15.292 74.692C12.5994 74.692 11.292 72.3587 11.292 71.192C10.792 68.192 12.0418 65.0254 13.6668 63.6921Z" stroke="black" stroke-width="0.5"/>
<path d="M11.292 70.6921C19.292 69.1921 22.792 71.8206 25.792 73.3206M12.792 73.6921L30.292 73.1921" stroke="black" stroke-width="0.5"/>
<path d="M21.79 82.1919H31.29C33.29 82.1919 34.79 80.1919 34.29 79.1919M37.79 79.1919V83.6919" stroke="black" stroke-width="0.5"/>
<path d="M21.7915 80.6921C17.2915 80.6921 12.7915 81.1921 1.29145 78.1921V76.1921L5.29145 74.1921V72.6921L1.29145 72.1921C0.790527 70.6919 -0.209277 67.6919 1.79072 65.1919C1.29096 57.1919 1.79096 50.6919 3.79145 47.6916C36.2915 28.192 58.2914 34.1921 84.2914 29.6921C162.291 -25.308 244.291 11.6919 281.291 26.1921L294.791 28.1919L295.291 35.1919V38.1919C296.79 43.1919 298.125 47.6919 296.791 49.6919C299.291 50.6919 301.791 53.8586 301.791 55.6919L299.791 65.6919C300.243 76.5398 297.835 76.7641 288.504 77.0765C287.513 77.1097 285.444 77.1439 284.291 77.1919V78.6919L259.291 79.1229M21.7915 80.6921V83.6921H39.7898L39.2915 79.1921M21.7915 80.6921V79.1921H39.2915M39.2915 79.1921C36.2915 37.6921 89.7914 40.6921 86.2914 79.6921V82.1919H212.791C206.791 38.6919 261.291 38.6919 259.291 79.1229M258.79 79.1229H259.291" stroke="black"/>
</svg>
