<svg width="304" height="95" viewBox="0 0 304 95" fill="none" xmlns="http://www.w3.org/2000/svg">
<circle cx="63.0742" cy="73.8914" r="20.5" fill="#EDADBF" stroke="black"/>
<circle cx="236.074" cy="73.8914" r="20.5" fill="#EDADBF" stroke="black"/>
<path d="M133.072 12.3912L131.572 8.89121C171.572 0.891325 193.072 1.39136 232.072 12.8913L228.572 17.3913C208.572 9.39127 190.572 8.39127 174.572 7.89133C172.072 7.39133 168.072 7.3913 165.572 7.89121C155.572 7.89133 143.572 9.39134 133.072 12.3912Z" fill="#E0426F" stroke="black" stroke-width="0.5"/>
<path d="M131.572 8.8914L131.072 7.3914C167.072 -3.60864 199.572 0.391232 235.072 9.3914L232.072 12.8914C192.072 0.391357 166.072 1.89136 131.572 8.8914Z" fill="#E0426F" stroke="black" stroke-width="0.5"/>
<path d="M131.572 8.89122C183.072 -2.6088 211.572 7.39124 232.072 12.8912" stroke="black" stroke-width="0.5"/>
<path d="M171.074 29.8914L174.574 7.89136C208.074 8.89136 219.574 14.3914 224.074 15.8914L226.557 27.8914C199.567 27.892 182.072 29.3915 171.074 29.8914Z" fill="#E0426F"/>
<path d="M227.074 30.3914L224.074 15.8914C219.574 14.3914 208.074 8.89136 174.574 7.89136L171.074 29.8914C182.074 29.3914 199.574 27.8914 226.574 27.8914" stroke="black" stroke-width="0.5"/>
<path d="M165.574 7.89136C132.574 8.89136 112.574 17.8914 93.5742 35.3914L96.0742 33.3914L160.074 30.3914L165.574 7.89136Z" fill="#E0426F" stroke="black" stroke-width="0.5"/>
<path d="M240.072 22.3914C236.406 19.7247 230.572 17.3914 224.072 15.8914L226.572 27.8914H233.072C236.072 26.3914 239.072 24.1601 240.072 22.3914Z" fill="#E0426F" stroke="black" stroke-width="0.5"/>
<path d="M97.0742 78.3914H164.074L198.574 76.8914H213.074L213.574 82.3914H199.574H98.5742H87.0742V78.3914H97.0742Z" fill="#E0426F"/>
<path d="M97.0742 78.3914H164.074L198.574 76.8914M97.0742 78.3914C97.0742 79.8914 97.5742 80.8914 98.5742 82.3914M97.0742 78.3914H87.0742V82.3914H98.5742M198.574 76.8914L199.574 82.3914M198.574 76.8914H213.074L213.574 82.3914H199.574M199.574 82.3914H98.5742" stroke="black" stroke-width="0.5"/>
<path d="M97.0733 78.3914C92.5742 73.8914 89.5743 51.8914 93.5733 35.3914L165.574 31.3914C161.574 36.3914 160.574 70.3914 164.074 78.3914H97.0733Z" fill="#E0426F" stroke="black" stroke-width="0.5"/>
<path d="M229.074 30.3914L165.574 31.3914C161.574 36.3914 160.574 70.3914 164.074 78.3914L198.574 76.8914C203.074 75.3914 209.574 69.8914 229.074 30.3914Z" fill="#E0426F" stroke="black" stroke-width="0.5"/>
<path d="M171.074 29.8914C166.574 30.3914 163.074 30.3914 160.074 30.3914L165.574 7.89143C168.574 7.39136 171.574 7.39136 174.574 7.89143L171.074 29.8914Z" fill="#E0426F" stroke="black" stroke-width="0.5"/>
<path d="M99.5742 31.8914C104.074 37.3914 111.074 33.8914 115.074 32.3914C116.074 16.8913 103.074 24.8912 99.5742 31.8914Z" fill="#E0426F" stroke="black" stroke-width="0.5"/>
<path d="M235.072 9.39136L232.072 12.8914C249.072 18.3914 259.572 21.3914 272.072 27.8914H273.572L281.572 26.3914C266.572 19.8914 259.072 17.3914 235.072 9.39136Z" fill="#EDADBF" stroke="black" stroke-width="0.5"/>
<path d="M272.072 27.8914C261.572 22.3914 242.572 15.8914 232.072 12.8914L230.072 15.3914L245.072 22.8914C243.572 25.3914 239.572 27.3914 233.572 30.0914C245.572 29.3914 262.572 28.3914 272.072 27.8914Z" fill="#EDADBF" stroke="black" stroke-width="0.5"/>
<path d="M277.574 34.1914L283.573 31.8914L273.073 27.8914L229.073 30.3914C221.573 45.3914 206.573 75.8914 198.573 76.8914H213.073C211.573 65.8914 221.073 42.3914 246.074 51.3914C256.574 45.8914 266.574 40.3914 277.574 34.1914Z" fill="#EDADBF" stroke="black" stroke-width="0.5"/>
<path d="M278.572 33.8914C266.572 40.3914 256.572 45.8914 246.072 51.3914C250.572 54.3914 261.072 60.3914 260.072 79.3914L285.072 78.8914V77.3914C293.572 76.3914 302.072 79.8914 300.572 65.8914L302.572 55.8914C302.572 54.3914 300.072 50.3914 297.572 49.8914C299.072 47.3914 296.072 38.3914 296.072 38.3914V36.8914L292.072 33.8914L287.072 32.3914L283.572 31.8914L278.572 33.8914Z" fill="#EDADBF" stroke="black" stroke-width="0.5"/>
<path d="M281.572 26.3914L273.072 27.8914L283.572 31.8914C293.072 32.8914 292.071 34.3914 296.066 36.8115L295.572 28.3914L281.572 26.3914Z" fill="#EDADBF"/>
<path d="M296.072 36.8914L296.066 36.8115M296.066 36.8115L295.572 28.3914L281.572 26.3914L273.072 27.8914L283.572 31.8914C293.072 32.8914 292.071 34.3914 296.066 36.8115Z" stroke="black" stroke-width="0.5"/>
<path d="M294.574 36.3916C294.074 33.8914 283.074 33.6914 277.574 34.1914" stroke="black" stroke-width="0.5"/>
<path d="M300.574 66.3914L261.074 68.3914C260.574 63.3914 258.408 59.2247 256.574 57.3914L302.574 54.8914M301.074 52.3914C290.074 50.8914 279.074 46.0914 267.074 40.0914M229.074 30.3914L273.074 27.8914L281.574 26.3914" stroke="black" stroke-width="0.5"/>
<path d="M291.074 40.3914C291.074 38.3914 290.074 34.3914 286.574 32.3914C288.795 32.3914 292.172 33.4317 294.683 35.8013C295.147 37.3313 294.074 40.8914 291.032 42.3914C291.019 41.8011 291.074 41.1156 291.074 40.3914Z" fill="#EDADBF"/>
<path d="M273.074 42.8914C280.07 43.2411 286.087 43.3462 291.467 43.8914M298.074 44.8914C295.971 44.4407 293.778 44.1255 291.467 43.8914M296.074 37.3914C295.656 36.8062 295.187 36.277 294.683 35.8013M291.467 43.8914C291.141 43.5466 291.047 43.0235 291.032 42.3914M291.032 42.3914C291.019 41.8011 291.074 41.1156 291.074 40.3914C291.074 38.3914 290.074 34.3914 286.574 32.3914C288.795 32.3914 292.172 33.4317 294.683 35.8013M291.032 42.3914C294.074 40.8914 295.147 37.3313 294.683 35.8013" stroke="black" stroke-width="0.5"/>
<path d="M291.074 40.3914C286.574 40.3914 284.574 36.3914 283.574 33.8914" stroke="black" stroke-width="0.5"/>
<path d="M133.072 12.4913C119.572 16.4913 107.572 22.3914 93.5723 35.3914C100.572 23.3914 116.072 13.8914 131.572 8.89136L133.072 12.4913Z" fill="#EDADBF" stroke="black" stroke-width="0.5"/>
<path d="M131.572 8.89136C111.572 14.5654 93.5723 31.8914 85.5723 29.8914C98.5723 20.3914 114.572 11.8914 131.072 7.39136L131.572 8.89136Z" fill="#EDADBF" stroke="black" stroke-width="0.5"/>
<path d="M10.5729 47.8912H4.57293C2.07227 51.8912 2.07227 61.8912 2.57293 65.3912C1.07227 66.3912 1.07286 70.8912 2.07293 72.3912L6.07293 72.8912V74.3912L2.07293 76.3912V78.3912C6.07293 79.3912 14.5729 81.3912 22.5729 80.8912V79.3912H40.0729C39.4063 70.8912 41.0729 60.3912 50.0729 53.3912C47.5729 49.3912 40.5729 44.8912 37.5729 44.3912C27.5729 43.3912 12.5729 45.8912 10.5729 47.8912Z" fill="#EDADBF" stroke="black" stroke-width="0.5"/>
<path d="M93.5742 35.3914C75.7409 36.2247 44.0742 41.0914 33.5742 44.0914L37.5742 44.3914C42.5742 45.8914 48.0742 50.2247 50.0742 53.3914C63.0732 43.8914 88.5732 50.8914 87.0732 78.3914H97.0732C90.0732 67.3914 91.0732 45.3914 93.5742 35.3914Z" fill="#EDADBF" stroke="black" stroke-width="0.5"/>
<path d="M10.5723 47.8914H4.57227C37.0724 28.3913 59.0725 34.3914 85.0723 29.8914L94.0725 35.3914C77.0725 36.3914 48.0723 39.8914 34.0723 44.0914C26.0723 43.8913 12.0723 45.8914 10.5723 47.8914Z" fill="#EDADBF" stroke="black" stroke-width="0.5"/>
<path d="M37.5737 44.3914C30.0737 43.3914 13.0737 45.3914 10.5737 47.8914C9.77372 50.2914 12.9071 53.2247 14.5737 54.3914C24.0737 55.8914 37.5737 49.8914 37.5737 44.3914Z" fill="#EDADBF" stroke="black" stroke-width="0.5"/>
<path d="M4.57296 47.8914C11.573 48.8914 5.57296 59.3914 2.57296 64.3914C2.07289 57.3914 2.57275 51.8914 4.57296 47.8914Z" fill="#EDADBF" stroke="black" stroke-width="0.5"/>
<path d="M22.5723 83.8914V79.3914H40.0723L40.5723 83.8914H22.5723Z" fill="#EDADBF" stroke="black" stroke-width="0.5"/>
<path d="M3.07422 65.3911C4.57422 67.8911 6.57422 71.0578 6.07422 72.8911M22.5742 79.3911C12.0742 79.8911 7.57422 75.8911 8.57422 72.3911C9.07422 71.8911 10.5742 70.3911 11.5742 70.3911" stroke="black" stroke-width="0.5"/>
<path d="M32.5742 74.3912C30.0742 70.3912 24.5742 65.3913 21.5742 63.8913C19.8242 63.3913 17.1991 63.5163 14.449 63.8913C12.8241 65.2246 11.5742 68.3912 12.0742 71.3912C12.0742 72.5579 13.3816 74.8912 16.0742 74.8912C20.5742 74.8912 27.5742 75.3912 32.5742 74.3912Z" fill="#EDADBF"/>
<path d="M6.57422 65.3913C8.82416 64.8913 11.6991 64.2663 14.449 63.8913M14.449 63.8913C17.1991 63.5163 19.8242 63.3913 21.5742 63.8913C24.5742 65.3913 30.0742 70.3912 32.5742 74.3912C27.5742 75.3912 20.5742 74.8912 16.0742 74.8912C13.3816 74.8912 12.0742 72.5579 12.0742 71.3912C11.5742 68.3912 12.8241 65.2246 14.449 63.8913Z" stroke="black" stroke-width="0.5"/>
<path d="M12.0742 70.8913C20.0742 69.3914 23.5742 72.0198 26.5742 73.5198M13.5742 73.8914L31.0742 73.3914" stroke="black" stroke-width="0.5"/>
<path d="M22.5723 82.3911H32.0723C34.0723 82.3911 35.5723 80.3911 35.0723 79.3911M38.5723 79.3911V83.8911" stroke="black" stroke-width="0.5"/>
<path d="M22.5742 80.8916C18.0742 80.8916 13.5742 81.3916 2.07416 78.3916V76.3916L6.07417 74.3916V72.8916L2.07416 72.3916C1.57324 70.8914 0.573438 67.8914 2.57343 65.3914C2.07368 57.3914 2.57368 50.8914 4.57417 47.8911C37.0742 28.3915 59.0742 34.3915 85.0742 29.8915C163.074 -25.1086 245.074 11.8913 282.074 26.3915L295.574 28.3914L296.074 35.3914V38.3914C297.573 43.3914 298.908 47.8914 297.574 49.8914C300.074 50.8914 302.574 54.058 302.574 55.8914L300.574 65.8914C301.026 76.7393 298.618 76.9635 289.286 77.276C288.295 77.3092 286.226 77.3434 285.074 77.3914V78.8914L260.074 79.3224M22.5742 80.8916V83.8916H40.5725L40.0742 79.3916M22.5742 80.8916V79.3916H40.0742M40.0742 79.3916C37.0742 37.8916 90.5742 40.8916 87.0742 79.8916V82.3914H213.574C207.574 38.8914 262.074 38.8914 260.074 79.3224M259.573 79.3224H260.074" stroke="black"/>
</svg>
