<svg width="303" height="96" viewBox="0 0 303 96" fill="none" xmlns="http://www.w3.org/2000/svg">
<circle cx="62.6562" cy="74.1995" r="20.5" stroke="black"/>
<circle cx="235.656" cy="74.1995" r="20.5" stroke="black"/>
<path d="M132.654 12.6993L131.154 9.19932C171.154 1.19943 192.654 1.69946 231.654 13.1994L228.154 17.6994C208.154 9.69937 190.154 8.69937 174.154 8.19944C171.654 7.69944 167.654 7.6994 165.154 8.19932C155.154 8.19944 143.154 9.69944 132.654 12.6993Z" fill="#EDADBF" stroke="black" stroke-width="0.5"/>
<path d="M131.154 9.19951L130.654 7.69951C166.654 -3.30054 199.154 0.699337 234.654 9.69951L231.654 13.1995C191.654 0.699463 165.654 2.19946 131.154 9.19951Z" fill="#EDADBF" stroke="black" stroke-width="0.5"/>
<path d="M131.154 9.19933C182.654 -2.3007 211.154 7.69934 231.654 13.1993" stroke="black" stroke-width="0.5"/>
<path d="M170.656 30.1995L174.156 8.19946C207.656 9.19946 219.156 14.6995 223.656 16.1995L226.139 28.1995C199.149 28.2001 181.654 29.6996 170.656 30.1995Z" fill="#EDADBF"/>
<path d="M226.656 30.6995L223.656 16.1995C219.156 14.6995 207.656 9.19946 174.156 8.19946L170.656 30.1995C181.656 29.6995 199.156 28.1995 226.156 28.1995" stroke="black" stroke-width="0.5"/>
<path d="M165.156 8.19946C132.156 9.19946 112.156 18.1995 93.1562 35.6995L95.6562 33.6995L159.656 30.6995L165.156 8.19946Z" fill="#EDADBF" stroke="black" stroke-width="0.5"/>
<path d="M239.654 22.6995C235.988 20.0328 230.154 17.6995 223.654 16.1995L226.154 28.1995H232.654C235.654 26.6995 238.654 24.4682 239.654 22.6995Z" fill="#EDADBF" stroke="black" stroke-width="0.5"/>
<path d="M96.6562 78.6995H163.656L198.156 77.1995H212.656L213.156 82.6995H199.156H98.1562H86.6562V78.6995H96.6562Z" fill="#EDADBF"/>
<path d="M96.6562 78.6995H163.656L198.156 77.1995M96.6562 78.6995C96.6562 80.1995 97.1562 81.1995 98.1562 82.6995M96.6562 78.6995H86.6562V82.6995H98.1562M198.156 77.1995L199.156 82.6995M198.156 77.1995H212.656L213.156 82.6995H199.156M199.156 82.6995H98.1562" stroke="black" stroke-width="0.5"/>
<path d="M96.6554 78.6995C92.1562 74.1995 89.1563 52.1995 93.1554 35.6995L165.156 31.6995C161.156 36.6995 160.156 70.6995 163.656 78.6995H96.6554Z" fill="#EDADBF" stroke="black" stroke-width="0.5"/>
<path d="M228.656 30.6995L165.156 31.6995C161.156 36.6995 160.156 70.6995 163.656 78.6995L198.156 77.1995C202.656 75.6995 209.156 70.1995 228.656 30.6995Z" fill="#EDADBF" stroke="black" stroke-width="0.5"/>
<path d="M170.656 30.1995C166.156 30.6995 162.656 30.6995 159.656 30.6995L165.156 8.19954C168.156 7.69946 171.156 7.69946 174.156 8.19954L170.656 30.1995Z" fill="#EDADBF" stroke="black" stroke-width="0.5"/>
<path d="M99.1562 32.1995C103.656 37.6995 110.656 34.1995 114.656 32.6995C115.656 17.1994 102.656 25.1993 99.1562 32.1995Z" fill="#EDADBF" stroke="black" stroke-width="0.5"/>
<path d="M234.654 9.69946L231.654 13.1995C248.654 18.6995 259.154 21.6995 271.654 28.1995H273.154L281.154 26.6995C266.154 20.1995 258.654 17.6995 234.654 9.69946Z" fill="#E0426F" stroke="black" stroke-width="0.5"/>
<path d="M271.654 28.1995C261.154 22.6995 242.154 16.1995 231.654 13.1995L229.654 15.6995L244.654 23.1995C243.154 25.6995 239.154 27.6995 233.154 30.3995C245.154 29.6995 262.154 28.6995 271.654 28.1995Z" fill="#E0426F" stroke="black" stroke-width="0.5"/>
<path d="M277.156 34.4995L283.155 32.1995L272.655 28.1995L228.655 30.6995C221.155 45.6995 206.155 76.1995 198.155 77.1995H212.655C211.155 66.1995 220.655 42.6995 245.656 51.6995C256.156 46.1995 266.156 40.6995 277.156 34.4995Z" fill="#E0426F" stroke="black" stroke-width="0.5"/>
<path d="M278.154 34.1995C266.154 40.6995 256.154 46.1995 245.654 51.6995C250.154 54.6995 260.654 60.6995 259.654 79.6995L284.654 79.1995V77.6995C293.154 76.6995 301.654 80.1995 300.154 66.1995L302.154 56.1995C302.154 54.6995 299.654 50.6995 297.154 50.1995C298.654 47.6995 295.654 38.6995 295.654 38.6995V37.1995L291.654 34.1995L286.654 32.6995L283.154 32.1995L278.154 34.1995Z" fill="#E0426F" stroke="black" stroke-width="0.5"/>
<path d="M281.154 26.6995L272.654 28.1995L283.154 32.1995C292.654 33.1995 291.653 34.6995 295.648 37.1196L295.154 28.6995L281.154 26.6995Z" fill="#E0426F"/>
<path d="M295.654 37.1995L295.648 37.1196M295.648 37.1196L295.154 28.6995L281.154 26.6995L272.654 28.1995L283.154 32.1995C292.654 33.1995 291.653 34.6995 295.648 37.1196Z" stroke="black" stroke-width="0.5"/>
<path d="M294.156 36.6997C293.656 34.1996 282.656 33.9995 277.156 34.4995" stroke="black" stroke-width="0.5"/>
<path d="M300.156 66.6995L260.656 68.6995C260.156 63.6995 257.99 59.5328 256.156 57.6995L302.156 55.1995M300.656 52.6995C289.656 51.1995 278.656 46.3995 266.656 40.3995M228.656 30.6995L272.656 28.1995L281.156 26.6995" stroke="black" stroke-width="0.5"/>
<path d="M290.656 40.6995C290.656 38.6995 289.656 34.6995 286.156 32.6995C288.377 32.6995 291.754 33.7399 294.265 36.1094C294.729 37.6395 293.656 41.1995 290.614 42.6995C290.601 42.1092 290.656 41.4238 290.656 40.6995Z" fill="#E0426F"/>
<path d="M272.656 43.1995C279.652 43.5492 285.669 43.6543 291.049 44.1995M297.656 45.1995C295.553 44.7488 293.36 44.4336 291.049 44.1995M295.656 37.6995C295.238 37.1143 294.769 36.5851 294.265 36.1094M291.049 44.1995C290.723 43.8547 290.629 43.3317 290.614 42.6995M290.614 42.6995C290.601 42.1092 290.656 41.4238 290.656 40.6995C290.656 38.6995 289.656 34.6995 286.156 32.6995C288.377 32.6995 291.754 33.7399 294.265 36.1094M290.614 42.6995C293.656 41.1995 294.729 37.6395 294.265 36.1094" stroke="black" stroke-width="0.5"/>
<path d="M290.656 40.6995C286.156 40.6995 284.156 36.6995 283.156 34.1995" stroke="black" stroke-width="0.5"/>
<path d="M132.654 12.7994C119.154 16.7994 107.154 22.6995 93.1543 35.6995C100.154 23.6995 115.654 14.1995 131.154 9.19946L132.654 12.7994Z" fill="#EDADBF" stroke="black" stroke-width="0.5"/>
<path d="M131.154 9.19946C111.154 14.8735 93.1543 32.1995 85.1543 30.1995C98.1543 20.6995 114.154 12.1995 130.654 7.69946L131.154 9.19946Z" fill="#EDADBF" stroke="black" stroke-width="0.5"/>
<path d="M10.155 48.1993H4.15496C1.6543 52.1993 1.6543 62.1993 2.15496 65.6993C0.654297 66.6993 0.654894 71.1993 1.65496 72.6993L5.65496 73.1993V74.6993L1.65496 76.6993V78.6993C5.65496 79.6993 14.155 81.6993 22.155 81.1993V79.6993H39.655C38.9883 71.1993 40.655 60.6993 49.655 53.6993C47.155 49.6993 40.155 45.1993 37.155 44.6993C27.155 43.6993 12.155 46.1993 10.155 48.1993Z" fill="#EDADBF" stroke="black" stroke-width="0.5"/>
<path d="M93.1562 35.6995C75.3229 36.5328 43.6562 41.3995 33.1562 44.3995L37.1562 44.6995C42.1562 46.1995 47.6562 50.5328 49.6562 53.6995C62.6553 44.1995 88.1553 51.1995 86.6553 78.6995H96.6553C89.6553 67.6995 90.6553 45.6995 93.1562 35.6995Z" fill="#EDADBF" stroke="black" stroke-width="0.5"/>
<path d="M10.1543 48.1995H4.1543C36.6545 28.6994 58.6545 34.6995 84.6543 30.1995L93.6545 35.6995C76.6545 36.6995 47.6543 40.1995 33.6543 44.3995C25.6543 44.1995 11.6543 46.1995 10.1543 48.1995Z" fill="#EDADBF" stroke="black" stroke-width="0.5"/>
<path d="M37.1558 44.6995C29.6558 43.6995 12.6558 45.6995 10.1558 48.1995C9.35575 50.5995 12.4891 53.5328 14.1558 54.6995C23.6558 56.1995 37.1558 50.1995 37.1558 44.6995Z" fill="#EDADBF" stroke="black" stroke-width="0.5"/>
<path d="M4.15499 48.1995C11.155 49.1995 5.15499 59.6995 2.15499 64.6995C1.65492 57.6995 2.15479 52.1995 4.15499 48.1995Z" fill="#EDADBF" stroke="black" stroke-width="0.5"/>
<path d="M22.1543 84.1995V79.6995H39.6543L40.1543 84.1995H22.1543Z" fill="#EDADBF" stroke="black" stroke-width="0.5"/>
<path d="M2.65625 65.6992C4.15625 68.1992 6.15625 71.3659 5.65625 73.1992M22.1562 79.6992C11.6562 80.1992 7.15625 76.1992 8.15625 72.6992C8.65625 72.1992 10.1562 70.6992 11.1562 70.6992" stroke="black" stroke-width="0.5"/>
<path d="M32.1562 74.6993C29.6562 70.6993 24.1562 65.6994 21.1562 64.1994C19.4062 63.6994 16.7811 63.8244 14.031 64.1994C12.4061 65.5327 11.1562 68.6993 11.6562 71.6993C11.6562 72.866 12.9637 75.1993 15.6562 75.1993C20.1562 75.1993 27.1562 75.6993 32.1562 74.6993Z" fill="#EDADBF"/>
<path d="M6.15625 65.6994C8.40619 65.1994 11.2811 64.5744 14.031 64.1994M14.031 64.1994C16.7811 63.8244 19.4062 63.6994 21.1562 64.1994C24.1562 65.6994 29.6562 70.6993 32.1562 74.6993C27.1562 75.6993 20.1562 75.1993 15.6562 75.1993C12.9637 75.1993 11.6562 72.866 11.6562 71.6993C11.1562 68.6993 12.4061 65.5327 14.031 64.1994Z" stroke="black" stroke-width="0.5"/>
<path d="M11.6562 71.1994C19.6562 69.6995 23.1562 72.3279 26.1562 73.8279M13.1562 74.1995L30.6562 73.6995" stroke="black" stroke-width="0.5"/>
<path d="M22.1543 82.6992H31.6543C33.6543 82.6992 35.1543 80.6992 34.6543 79.6992M38.1543 79.6992V84.1992" stroke="black" stroke-width="0.5"/>
<path d="M22.1562 81.1997C17.6562 81.1997 13.1562 81.6997 1.6562 78.6997V76.6997L5.6562 74.6997V73.1997L1.6562 72.6997C1.15527 71.1995 0.155469 68.1995 2.15546 65.6995C1.65571 57.6995 2.15571 51.1995 4.1562 48.1992C36.6562 28.6996 58.6562 34.6997 84.6562 30.1997C162.656 -24.8005 244.656 12.1994 281.656 26.6996L295.156 28.6995L295.656 35.6995V38.6995C297.155 43.6995 298.49 48.1995 297.156 50.1995C299.656 51.1995 302.156 54.3661 302.156 56.1995L300.156 66.1995C300.608 77.0474 298.2 77.2717 288.868 77.5841C287.877 77.6173 285.808 77.6515 284.656 77.6995V79.1995L259.656 79.6305M22.1562 81.1997V84.1997H40.1545L39.6562 79.6997M22.1562 81.1997V79.6997H39.6562M39.6562 79.6997C36.6562 38.1997 90.1562 41.1997 86.6562 80.1997V82.6995H213.156C207.156 39.1995 261.656 39.1995 259.656 79.6305M259.155 79.6305H259.656" stroke="black"/>
</svg>
