<svg width="303" height="96" viewBox="0 0 303 96" fill="none" xmlns="http://www.w3.org/2000/svg">
<circle cx="62.8652" cy="74.0454" r="20.5" fill="#EFC7D3" stroke="black"/>
<circle cx="235.865" cy="74.0454" r="20.5" fill="#EFC7D3" stroke="black"/>
<path d="M132.863 12.5453L131.363 9.04527C171.363 1.04538 192.863 1.54541 231.863 13.0454L228.363 17.5454C208.363 9.54532 190.363 8.54532 174.363 8.04539C171.863 7.54539 167.863 7.54535 165.363 8.04527C155.363 8.04539 143.363 9.54539 132.863 12.5453Z" fill="#E56E90" stroke="black" stroke-width="0.5"/>
<path d="M131.363 9.04545L130.863 7.54545C166.863 -3.45459 199.363 0.545284 234.863 9.54546L231.863 13.0455C191.863 0.54541 165.863 2.04541 131.363 9.04545Z" fill="#E56E90" stroke="black" stroke-width="0.5"/>
<path d="M131.363 9.04552C182.863 -2.4545 211.363 7.54553 231.863 13.0455" stroke="black" stroke-width="0.5"/>
<path d="M170.865 30.0454L174.365 8.04541C207.865 9.04541 219.365 14.5454 223.865 16.0454L226.348 28.0454C199.358 28.046 181.863 29.5455 170.865 30.0454Z" fill="#E56E90"/>
<path d="M226.865 30.5454L223.865 16.0454C219.365 14.5454 207.865 9.04541 174.365 8.04541L170.865 30.0454C181.865 29.5454 199.365 28.0454 226.365 28.0454" stroke="black" stroke-width="0.5"/>
<path d="M165.365 8.04541C132.365 9.04541 112.365 18.0454 93.3652 35.5454L95.8652 33.5454L159.865 30.5454L165.365 8.04541Z" fill="#E56E90" stroke="black" stroke-width="0.5"/>
<path d="M239.863 22.5454C236.197 19.8787 230.363 17.5454 223.863 16.0454L226.363 28.0454H232.863C235.863 26.5454 238.863 24.3141 239.863 22.5454Z" fill="#E56E90" stroke="black" stroke-width="0.5"/>
<path d="M96.8652 78.5454H163.865L198.365 77.0454H212.865L213.365 82.5454H199.365H98.3652H86.8652V78.5454H96.8652Z" fill="#E56E90"/>
<path d="M96.8652 78.5454H163.865L198.365 77.0454M96.8652 78.5454C96.8652 80.0454 97.3652 81.0454 98.3652 82.5454M96.8652 78.5454H86.8652V82.5454H98.3652M198.365 77.0454L199.365 82.5454M198.365 77.0454H212.865L213.365 82.5454H199.365M199.365 82.5454H98.3652" stroke="black" stroke-width="0.5"/>
<path d="M96.8644 78.5454C92.3652 74.0454 89.3653 52.0454 93.3644 35.5454L165.365 31.5454C161.365 36.5454 160.365 70.5454 163.865 78.5454H96.8644Z" fill="#E56E90" stroke="black" stroke-width="0.5"/>
<path d="M228.865 30.5454L165.365 31.5454C161.365 36.5454 160.365 70.5454 163.865 78.5454L198.365 77.0454C202.865 75.5454 209.365 70.0454 228.865 30.5454Z" fill="#E56E90" stroke="black" stroke-width="0.5"/>
<path d="M170.865 30.0455C166.365 30.5455 162.865 30.5455 159.865 30.5455L165.365 8.04548C168.365 7.54541 171.365 7.54541 174.365 8.04548L170.865 30.0455Z" fill="#E56E90" stroke="black" stroke-width="0.5"/>
<path d="M99.3652 32.0457C103.865 37.5457 110.865 34.0457 114.865 32.5457C115.865 17.0455 102.865 25.0455 99.3652 32.0457Z" fill="#E56E90" stroke="black" stroke-width="0.5"/>
<path d="M234.863 9.54541L231.863 13.0454C248.863 18.5454 259.363 21.5454 271.863 28.0454H273.363L281.363 26.5454C266.363 20.0454 258.863 17.5454 234.863 9.54541Z" fill="#E56E90" stroke="black" stroke-width="0.5"/>
<path d="M271.863 28.0454C261.363 22.5454 242.363 16.0454 231.863 13.0454L229.863 15.5454L244.863 23.0454C243.363 25.5454 239.363 27.5454 233.363 30.2454C245.363 29.5454 262.363 28.5454 271.863 28.0454Z" fill="#E56E90" stroke="black" stroke-width="0.5"/>
<path d="M277.365 34.3454L283.364 32.0454L272.864 28.0454L228.864 30.5454C221.364 45.5454 206.364 76.0454 198.364 77.0454H212.864C211.364 66.0454 220.864 42.5454 245.865 51.5454C256.365 46.0454 266.365 40.5454 277.365 34.3454Z" fill="#E56E90" stroke="black" stroke-width="0.5"/>
<path d="M278.363 34.0454C266.363 40.5454 256.363 46.0454 245.863 51.5454C250.363 54.5454 260.863 60.5454 259.863 79.5454L284.863 79.0454V77.5454C293.363 76.5454 301.863 80.0454 300.363 66.0454L302.363 56.0454C302.363 54.5454 299.863 50.5454 297.363 50.0454C298.863 47.5454 295.863 38.5454 295.863 38.5454V37.0454L291.863 34.0454L286.863 32.5454L283.363 32.0454L278.363 34.0454Z" fill="#E56E90" stroke="black" stroke-width="0.5"/>
<path d="M281.363 26.5454L272.863 28.0454L283.363 32.0454C292.863 33.0454 291.862 34.5454 295.857 36.9656L295.363 28.5454L281.363 26.5454Z" fill="#E56E90"/>
<path d="M295.863 37.0454L295.857 36.9656M295.857 36.9656L295.363 28.5454L281.363 26.5454L272.863 28.0454L283.363 32.0454C292.863 33.0454 291.862 34.5454 295.857 36.9656Z" stroke="black" stroke-width="0.5"/>
<path d="M294.365 36.5456C293.865 34.0455 282.865 33.8454 277.365 34.3454" stroke="black" stroke-width="0.5"/>
<path d="M300.365 66.5454L260.865 68.5454C260.365 63.5454 258.199 59.3787 256.365 57.5454L302.365 55.0454M300.865 52.5454C289.865 51.0454 278.865 46.2454 266.865 40.2454M228.865 30.5454L272.865 28.0454L281.365 26.5454" stroke="black" stroke-width="0.5"/>
<path d="M290.865 40.5454C290.865 38.5454 289.865 34.5454 286.365 32.5454C288.586 32.5454 291.963 33.5858 294.474 35.9554C294.938 37.4854 293.865 41.0454 290.823 42.5454C290.81 41.9551 290.865 41.2697 290.865 40.5454Z" fill="#E56E90"/>
<path d="M272.865 43.0454C279.861 43.3952 285.878 43.5003 291.258 44.0454M297.865 45.0454C295.762 44.5948 293.569 44.2795 291.258 44.0454M295.865 37.5454C295.447 36.9603 294.978 36.4311 294.474 35.9554M291.258 44.0454C290.932 43.7006 290.838 43.1776 290.823 42.5454M290.823 42.5454C290.81 41.9551 290.865 41.2697 290.865 40.5454C290.865 38.5454 289.865 34.5454 286.365 32.5454C288.586 32.5454 291.963 33.5858 294.474 35.9554M290.823 42.5454C293.865 41.0454 294.938 37.4854 294.474 35.9554" stroke="black" stroke-width="0.5"/>
<path d="M290.865 40.5454C286.365 40.5454 284.365 36.5454 283.365 34.0454" stroke="black" stroke-width="0.5"/>
<path d="M132.863 12.6454C119.363 16.6454 107.363 22.5454 93.3633 35.5454C100.363 23.5454 115.863 14.0454 131.363 9.04541L132.863 12.6454Z" fill="#EDADBF" stroke="black" stroke-width="0.5"/>
<path d="M131.363 9.04541C111.363 14.7194 93.3633 32.0454 85.3633 30.0454C98.3633 20.5454 114.363 12.0454 130.863 7.54541L131.363 9.04541Z" fill="#EDADBF" stroke="black" stroke-width="0.5"/>
<path d="M10.3639 48.0453H4.36395C1.86328 52.0453 1.86328 62.0453 2.36395 65.5453C0.863281 66.5453 0.863879 71.0453 1.86395 72.5453L5.86395 73.0453V74.5453L1.86395 76.5453V78.5453C5.86395 79.5453 14.3639 81.5453 22.3639 81.0453V79.5453H39.8639C39.1973 71.0453 40.8639 60.5453 49.8639 53.5453C47.3639 49.5453 40.3639 45.0453 37.3639 44.5453C27.3639 43.5453 12.3639 46.0453 10.3639 48.0453Z" fill="#EDADBF" stroke="black" stroke-width="0.5"/>
<path d="M93.3652 35.5454C75.5319 36.3787 43.8652 41.2454 33.3652 44.2454L37.3652 44.5454C42.3652 46.0454 47.8652 50.3787 49.8652 53.5454C62.8643 44.0454 88.3643 51.0454 86.8643 78.5454H96.8643C89.8643 67.5454 90.8643 45.5454 93.3652 35.5454Z" fill="#EDADBF" stroke="black" stroke-width="0.5"/>
<path d="M10.3633 48.0455H4.36328C36.8635 28.5454 58.8635 34.5454 84.8633 30.0454L93.8635 35.5454C76.8635 36.5454 47.8633 40.0454 33.8633 44.2454C25.8633 44.0454 11.8633 46.0454 10.3633 48.0455Z" fill="#EDADBF" stroke="black" stroke-width="0.5"/>
<path d="M37.3647 44.5455C29.8647 43.5454 12.8647 45.5454 10.3647 48.0455C9.56474 50.4454 12.6981 53.3787 14.3647 54.5454C23.8647 56.0454 37.3647 50.0454 37.3647 44.5455Z" fill="#EDADBF" stroke="black" stroke-width="0.5"/>
<path d="M4.36398 48.0454C11.364 49.0454 5.36398 59.5454 2.36398 64.5454C1.86391 57.5454 2.36377 52.0454 4.36398 48.0454Z" fill="#EDADBF" stroke="black" stroke-width="0.5"/>
<path d="M22.3633 84.0454V79.5454H39.8633L40.3633 84.0454H22.3633Z" fill="#EDADBF" stroke="black" stroke-width="0.5"/>
<path d="M2.86523 65.5454C4.36523 68.0454 6.36523 71.2121 5.86523 73.0454M22.3652 79.5454C11.8652 80.0454 7.36523 76.0454 8.36523 72.5454C8.86523 72.0454 10.3652 70.5454 11.3652 70.5454" stroke="black" stroke-width="0.5"/>
<path d="M32.3652 74.5455C29.8652 70.5455 24.3652 65.5456 21.3652 64.0456C19.6152 63.5456 16.9901 63.6706 14.24 64.0456C12.6151 65.3789 11.3652 68.5455 11.8652 71.5455C11.8652 72.7122 13.1727 75.0455 15.8652 75.0455C20.3652 75.0455 27.3652 75.5455 32.3652 74.5455Z" fill="#EDADBF"/>
<path d="M6.36523 65.5456C8.61518 65.0456 11.4901 64.4206 14.24 64.0456M14.24 64.0456C16.9901 63.6706 19.6152 63.5456 21.3652 64.0456C24.3652 65.5456 29.8652 70.5455 32.3652 74.5455C27.3652 75.5455 20.3652 75.0455 15.8652 75.0455C13.1727 75.0455 11.8652 72.7122 11.8652 71.5455C11.3652 68.5455 12.6151 65.3789 14.24 64.0456Z" stroke="black" stroke-width="0.5"/>
<path d="M11.8652 71.0456C19.8652 69.5457 23.3652 72.1741 26.3652 73.6741M13.3652 74.0457L30.8652 73.5457" stroke="black" stroke-width="0.5"/>
<path d="M22.3633 82.5454H31.8633C33.8633 82.5454 35.3633 80.5454 34.8633 79.5454M38.3633 79.5454V84.0454" stroke="black" stroke-width="0.5"/>
<path d="M22.3652 81.0457C17.8652 81.0457 13.3652 81.5457 1.86518 78.5457V76.5457L5.86518 74.5456V73.0457L1.86518 72.5457C1.36426 71.0454 0.364454 68.0454 2.36445 65.5454C1.86469 57.5454 2.36469 51.0454 4.36518 48.0452C36.8652 28.5455 58.8652 34.5456 84.8652 30.0456C162.865 -24.9545 244.865 12.0454 281.865 26.5456L295.365 28.5454L295.865 35.5454V38.5454C297.364 43.5454 298.699 48.0454 297.365 50.0454C299.865 51.0454 302.365 54.2121 302.365 56.0454L300.365 66.0454C300.817 76.8933 298.409 77.1176 289.077 77.43C288.086 77.4632 286.017 77.4974 284.865 77.5454V79.0454L259.865 79.4764M22.3652 81.0457V84.0457H40.3635L39.8652 79.5457M22.3652 81.0457V79.5457H39.8652M39.8652 79.5457C36.8652 38.0457 90.3652 41.0457 86.8652 80.0457V82.5454H213.365C207.365 39.0454 261.865 39.0454 259.865 79.4764M259.364 79.4764H259.865" stroke="black"/>
</svg>
