<svg width="303" height="96" viewBox="0 0 303 96" fill="none" xmlns="http://www.w3.org/2000/svg">
<circle cx="62.6772" cy="74.3535" r="20.5" stroke="black"/>
<circle cx="235.678" cy="74.3535" r="20.5" stroke="black"/>
<path d="M132.676 12.8534L131.176 9.35337C171.176 1.35348 192.676 1.85352 231.676 13.3535L228.176 17.8535C208.176 9.85343 190.176 8.85342 174.176 8.35349C171.676 7.85349 167.676 7.85345 165.176 8.35337C155.176 8.35349 143.176 9.85349 132.676 12.8534Z" fill="#EFC7D3" stroke="black" stroke-width="0.5"/>
<path d="M131.176 9.35356L130.676 7.85356C166.676 -3.14648 199.176 0.85339 234.676 9.85356L231.676 13.3536C191.676 0.853516 165.676 2.35352 131.176 9.35356Z" fill="#EFC7D3" stroke="black" stroke-width="0.5"/>
<path d="M131.176 9.3535C182.676 -2.14652 211.176 7.85352 231.676 13.3535" stroke="black" stroke-width="0.5"/>
<path d="M170.677 30.3535L174.177 8.35352C207.677 9.35352 219.177 14.8535 223.677 16.3535L226.16 28.3535C199.17 28.3542 181.675 29.8536 170.677 30.3535Z" fill="#EFC7D3"/>
<path d="M226.677 30.8535L223.677 16.3535C219.177 14.8535 207.677 9.35352 174.177 8.35352L170.677 30.3535C181.677 29.8535 199.177 28.3535 226.177 28.3535" stroke="black" stroke-width="0.5"/>
<path d="M165.177 8.35352C132.177 9.35352 112.177 18.3535 93.1772 35.8535L95.6772 33.8535L159.677 30.8535L165.177 8.35352Z" fill="#EFC7D3" stroke="black" stroke-width="0.5"/>
<path d="M239.676 22.8535C236.009 20.1868 230.176 17.8535 223.676 16.3535L226.176 28.3535H232.676C235.676 26.8535 238.676 24.6223 239.676 22.8535Z" fill="#EFC7D3" stroke="black" stroke-width="0.5"/>
<path d="M96.6772 78.8535H163.677L198.177 77.3535H212.677L213.177 82.8535H199.177H98.1772H86.6772V78.8535H96.6772Z" fill="#EFC7D3"/>
<path d="M96.6772 78.8535H163.677L198.177 77.3535M96.6772 78.8535C96.6772 80.3535 97.1772 81.3535 98.1772 82.8535M96.6772 78.8535H86.6772V82.8535H98.1772M198.177 77.3535L199.177 82.8535M198.177 77.3535H212.677L213.177 82.8535H199.177M199.177 82.8535H98.1772" stroke="black" stroke-width="0.5"/>
<path d="M96.6764 78.8535C92.1772 74.3535 89.1773 52.3535 93.1764 35.8535L165.177 31.8535C161.177 36.8535 160.177 70.8535 163.677 78.8535H96.6764Z" fill="#EFC7D3" stroke="black" stroke-width="0.5"/>
<path d="M228.677 30.8535L165.177 31.8535C161.177 36.8535 160.177 70.8535 163.677 78.8535L198.177 77.3535C202.677 75.8535 209.177 70.3535 228.677 30.8535Z" fill="#EFC7D3" stroke="black" stroke-width="0.5"/>
<path d="M170.677 30.3536C166.177 30.8536 162.677 30.8536 159.677 30.8536L165.177 8.35359C168.177 7.85352 171.177 7.85352 174.177 8.35359L170.677 30.3536Z" fill="#EFC7D3" stroke="black" stroke-width="0.5"/>
<path d="M99.1772 32.3537C103.677 37.8537 110.677 34.3537 114.677 32.8537C115.677 17.3535 102.677 25.3535 99.1772 32.3537Z" fill="#EFC7D3" stroke="black" stroke-width="0.5"/>
<path d="M234.676 9.85352L231.676 13.3535C248.676 18.8535 259.176 21.8535 271.676 28.3535H273.176L281.176 26.8535C266.176 20.3535 258.676 17.8535 234.676 9.85352Z" fill="#EDADBF" stroke="black" stroke-width="0.5"/>
<path d="M271.676 28.3535C261.176 22.8535 242.176 16.3535 231.676 13.3535L229.676 15.8535L244.676 23.3535C243.176 25.8535 239.176 27.8535 233.176 30.5535C245.176 29.8535 262.176 28.8535 271.676 28.3535Z" fill="#EDADBF" stroke="black" stroke-width="0.5"/>
<path d="M277.178 34.6535L283.176 32.3535L272.677 28.3535L228.677 30.8535C221.177 45.8535 206.177 76.3535 198.177 77.3535H212.677C211.177 66.3535 220.677 42.8535 245.678 51.8535C256.178 46.3535 266.178 40.8535 277.178 34.6535Z" fill="#EDADBF" stroke="black" stroke-width="0.5"/>
<path d="M278.176 34.3535C266.176 40.8535 256.176 46.3535 245.676 51.8535C250.176 54.8535 260.676 60.8535 259.676 79.8535L284.676 79.3535V77.8535C293.176 76.8535 301.676 80.3535 300.176 66.3535L302.176 56.3535C302.176 54.8535 299.676 50.8535 297.176 50.3535C298.676 47.8535 295.676 38.8535 295.676 38.8535V37.3535L291.676 34.3535L286.676 32.8535L283.176 32.3535L278.176 34.3535Z" fill="#EDADBF" stroke="black" stroke-width="0.5"/>
<path d="M281.176 26.8535L272.676 28.3535L283.176 32.3535C292.676 33.3535 291.675 34.8535 295.67 37.2737L295.176 28.8535L281.176 26.8535Z" fill="#EDADBF"/>
<path d="M295.676 37.3535L295.67 37.2737M295.67 37.2737L295.176 28.8535L281.176 26.8535L272.676 28.3535L283.176 32.3535C292.676 33.3535 291.675 34.8535 295.67 37.2737Z" stroke="black" stroke-width="0.5"/>
<path d="M294.178 36.8537C293.678 34.3536 282.678 34.1535 277.178 34.6535" stroke="black" stroke-width="0.5"/>
<path d="M300.178 66.8535L260.678 68.8535C260.178 63.8535 258.011 59.6868 256.178 57.8535L302.178 55.3535M300.678 52.8535C289.678 51.3535 278.678 46.5535 266.678 40.5535M228.678 30.8535L272.678 28.3535L281.178 26.8535" stroke="black" stroke-width="0.5"/>
<path d="M290.678 40.8535C290.678 38.8535 289.678 34.8535 286.178 32.8535C288.399 32.8535 291.775 33.8939 294.287 36.2635C294.75 37.7935 293.678 41.3535 290.636 42.8535C290.622 42.2632 290.678 41.5778 290.678 40.8535Z" fill="#EDADBF"/>
<path d="M272.678 43.3535C279.673 43.7033 285.69 43.8084 291.071 44.3535M297.678 45.3535C295.575 44.9029 293.381 44.5876 291.071 44.3535M295.678 37.8535C295.26 37.2684 294.791 36.7392 294.287 36.2635M291.071 44.3535C290.745 44.0088 290.651 43.4857 290.636 42.8535M290.636 42.8535C290.622 42.2632 290.678 41.5778 290.678 40.8535C290.678 38.8535 289.678 34.8535 286.178 32.8535C288.399 32.8535 291.775 33.8939 294.287 36.2635M290.636 42.8535C293.678 41.3535 294.75 37.7935 294.287 36.2635" stroke="black" stroke-width="0.5"/>
<path d="M290.678 40.8535C286.178 40.8535 284.178 36.8535 283.178 34.3535" stroke="black" stroke-width="0.5"/>
<path d="M132.676 12.9535C119.176 16.9535 107.176 22.8535 93.1758 35.8535C100.176 23.8535 115.676 14.3535 131.176 9.35352L132.676 12.9535Z" fill="#EDADBF" stroke="black" stroke-width="0.5"/>
<path d="M131.176 9.35352C111.176 15.0276 93.1758 32.3535 85.1758 30.3535C98.1758 20.8535 114.176 12.3535 130.676 7.85352L131.176 9.35352Z" fill="#EDADBF" stroke="black" stroke-width="0.5"/>
<path d="M10.1764 48.3535H4.17645C1.67578 52.3535 1.67578 62.3535 2.17645 65.8535C0.675781 66.8535 0.676379 71.3535 1.67645 72.8535L5.67645 73.3535V74.8535L1.67645 76.8535V78.8535C5.67645 79.8535 14.1764 81.8535 22.1764 81.3535V79.8535H39.6764C39.0098 71.3535 40.6764 60.8535 49.6764 53.8535C47.1764 49.8535 40.1764 45.3535 37.1764 44.8535C27.1764 43.8535 12.1764 46.3535 10.1764 48.3535Z" fill="#EDADBF" stroke="black" stroke-width="0.5"/>
<path d="M93.1772 35.8535C75.3439 36.6868 43.6772 41.5535 33.1772 44.5535L37.1772 44.8535C42.1772 46.3535 47.6772 50.6868 49.6772 53.8535C62.6763 44.3535 88.1763 51.3535 86.6763 78.8535H96.6763C89.6763 67.8535 90.6763 45.8535 93.1772 35.8535Z" fill="#EDADBF" stroke="black" stroke-width="0.5"/>
<path d="M10.1758 48.3536H4.17578C36.676 28.8535 58.676 34.8535 84.6758 30.3535L93.676 35.8535C76.676 36.8535 47.6758 40.3535 33.6758 44.5535C25.6758 44.3535 11.6758 46.3535 10.1758 48.3536Z" fill="#EDADBF" stroke="black" stroke-width="0.5"/>
<path d="M37.1772 44.8536C29.6772 43.8535 12.6772 45.8535 10.1772 48.3536C9.37724 50.7535 12.5106 53.6868 14.1772 54.8535C23.6772 56.3535 37.1772 50.3535 37.1772 44.8536Z" fill="#EDADBF" stroke="black" stroke-width="0.5"/>
<path d="M4.17648 48.3535C11.1765 49.3535 5.17648 59.8535 2.17648 64.8535C1.67641 57.8535 2.17627 52.3535 4.17648 48.3535Z" fill="#EDADBF" stroke="black" stroke-width="0.5"/>
<path d="M22.1758 84.3535V79.8535H39.6758L40.1758 84.3535H22.1758Z" fill="#EDADBF" stroke="black" stroke-width="0.5"/>
<path d="M2.67773 65.8535C4.17773 68.3535 6.17773 71.5202 5.67773 73.3535M22.1777 79.8535C11.6777 80.3535 7.17773 76.3535 8.17773 72.8535C8.67773 72.3535 10.1777 70.8535 11.1777 70.8535" stroke="black" stroke-width="0.5"/>
<path d="M32.1777 74.8535C29.6777 70.8535 24.1777 65.8536 21.1777 64.3536C19.4277 63.8536 16.8026 63.9786 14.0525 64.3536C12.4276 65.6869 11.1777 68.8535 11.6777 71.8535C11.6777 73.0202 12.9852 75.3535 15.6777 75.3535C20.1777 75.3535 27.1777 75.8535 32.1777 74.8535Z" fill="#EDADBF"/>
<path d="M6.17773 65.8536C8.42768 65.3536 11.3026 64.7286 14.0525 64.3536M14.0525 64.3536C16.8026 63.9786 19.4277 63.8536 21.1777 64.3536C24.1777 65.8536 29.6777 70.8535 32.1777 74.8535C27.1777 75.8535 20.1777 75.3535 15.6777 75.3535C12.9852 75.3535 11.6777 73.0202 11.6777 71.8535C11.1777 68.8535 12.4276 65.6869 14.0525 64.3536Z" stroke="black" stroke-width="0.5"/>
<path d="M11.6777 71.3536C19.6777 69.8536 23.1777 72.4821 26.1777 73.9821M13.1777 74.3536L30.6777 73.8536" stroke="black" stroke-width="0.5"/>
<path d="M22.1758 82.8535H31.6758C33.6758 82.8535 35.1758 80.8535 34.6758 79.8535M38.1758 79.8535V84.3535" stroke="black" stroke-width="0.5"/>
<path d="M22.1772 81.3538C17.6772 81.3538 13.1772 81.8538 1.67719 78.8538V76.8538L5.67719 74.8538V73.3538L1.67719 72.8538C1.17627 71.3535 0.176465 68.3535 2.17646 65.8535C1.6767 57.8535 2.1767 51.3535 4.17719 48.3533C36.6772 28.8537 58.6772 34.8537 84.6772 30.3537C162.677 -24.6464 244.677 12.3535 281.677 26.8537L295.177 28.8535L295.677 35.8535V38.8535C297.176 43.8535 298.511 48.3535 297.177 50.3535C299.677 51.3535 302.177 54.5202 302.177 56.3535L300.177 66.3535C300.629 77.2014 298.221 77.4257 288.889 77.7382C287.898 77.7713 285.829 77.8055 284.677 77.8535V79.3535L259.677 79.7846M22.1772 81.3538V84.3538H40.1755L39.6772 79.8538M22.1772 81.3538V79.8538H39.6772M39.6772 79.8538C36.6772 38.3538 90.1772 41.3538 86.6772 80.3538V82.8535H213.177C207.177 39.3535 261.677 39.3535 259.677 79.7846M259.176 79.7846H259.677" stroke="black"/>
</svg>
