<svg width="303" height="96" viewBox="0 0 303 96" fill="none" xmlns="http://www.w3.org/2000/svg">
<circle cx="62.8955" cy="74.3687" r="20.5" fill="#EFC7D3" stroke="black"/>
<circle cx="235.896" cy="74.3687" r="20.5" fill="#EFC7D3" stroke="black"/>
<path d="M132.894 12.8685L131.394 9.36851C171.394 1.36862 192.894 1.86865 231.894 13.3686L228.394 17.8686C208.394 9.86856 190.394 8.86856 174.394 8.36863C171.894 7.86863 167.894 7.86859 165.394 8.36851C155.394 8.36863 143.394 9.86863 132.894 12.8685Z" fill="#EDADBF" stroke="black" stroke-width="0.5"/>
<path d="M131.394 9.3687L130.894 7.8687C166.894 -3.13135 199.394 0.868526 234.894 9.8687L231.894 13.3687C191.894 0.868652 165.894 2.36865 131.394 9.3687Z" fill="#EDADBF" stroke="black" stroke-width="0.5"/>
<path d="M131.394 9.36876C182.894 -2.13126 211.394 7.86877 231.894 13.3688" stroke="black" stroke-width="0.5"/>
<path d="M170.896 30.3687L174.396 8.36865C207.896 9.36865 219.396 14.8687 223.896 16.3687L226.378 28.3687C199.388 28.3693 181.893 29.8688 170.896 30.3687Z" fill="#EDADBF"/>
<path d="M226.896 30.8687L223.896 16.3687C219.396 14.8687 207.896 9.36865 174.396 8.36865L170.896 30.3687C181.896 29.8687 199.396 28.3687 226.396 28.3687" stroke="black" stroke-width="0.5"/>
<path d="M165.396 8.36865C132.396 9.36865 112.396 18.3687 93.3955 35.8687L95.8955 33.8687L159.896 30.8687L165.396 8.36865Z" fill="#EDADBF" stroke="black" stroke-width="0.5"/>
<path d="M239.894 22.8687C236.227 20.202 230.394 17.8687 223.894 16.3687L226.394 28.3687H232.894C235.894 26.8687 238.894 24.6374 239.894 22.8687Z" fill="#EDADBF" stroke="black" stroke-width="0.5"/>
<path d="M96.8955 78.8687H163.896L198.396 77.3687H212.896L213.396 82.8687H199.396H98.3955H86.8955V78.8687H96.8955Z" fill="#EDADBF"/>
<path d="M96.8955 78.8687H163.896L198.396 77.3687M96.8955 78.8687C96.8955 80.3687 97.3955 81.3687 98.3955 82.8687M96.8955 78.8687H86.8955V82.8687H98.3955M198.396 77.3687L199.396 82.8687M198.396 77.3687H212.896L213.396 82.8687H199.396M199.396 82.8687H98.3955" stroke="black" stroke-width="0.5"/>
<path d="M96.8946 78.8687C92.3955 74.3687 89.3956 52.3687 93.3946 35.8687L165.396 31.8687C161.396 36.8687 160.396 70.8687 163.896 78.8687H96.8946Z" fill="#EDADBF" stroke="black" stroke-width="0.5"/>
<path d="M228.895 30.8687L165.395 31.8687C161.396 36.8687 160.396 70.8687 163.895 78.8687L198.395 77.3687C202.895 75.8687 209.395 70.3687 228.895 30.8687Z" fill="#EDADBF" stroke="black" stroke-width="0.5"/>
<path d="M170.896 30.3687C166.396 30.8687 162.896 30.8687 159.896 30.8687L165.396 8.36873C168.396 7.86865 171.396 7.86865 174.396 8.36873L170.896 30.3687Z" fill="#EDADBF" stroke="black" stroke-width="0.5"/>
<path d="M99.3955 32.3689C103.896 37.8689 110.896 34.3689 114.896 32.8689C115.896 17.3688 102.896 25.3688 99.3955 32.3689Z" fill="#EDADBF" stroke="black" stroke-width="0.5"/>
<path d="M234.894 9.86865L231.894 13.3687C248.894 18.8687 259.394 21.8687 271.894 28.3687H273.394L281.394 26.8687C266.394 20.3687 258.894 17.8687 234.894 9.86865Z" stroke="black" stroke-width="0.5"/>
<path d="M271.894 28.3687C261.394 22.8687 242.394 16.3687 231.894 13.3687L229.894 15.8687L244.894 23.3687C243.394 25.8687 239.394 27.8687 233.394 30.5687C245.394 29.8687 262.394 28.8687 271.894 28.3687Z" stroke="black" stroke-width="0.5"/>
<path d="M277.396 34.6687L283.394 32.3687L272.895 28.3687L228.895 30.8687C221.395 45.8687 206.395 76.3687 198.395 77.3687H212.895C211.395 66.3687 220.895 42.8687 245.896 51.8687C256.396 46.3687 266.396 40.8687 277.396 34.6687Z" stroke="black" stroke-width="0.5"/>
<path d="M278.394 34.3687C266.394 40.8687 256.394 46.3687 245.894 51.8687C250.394 54.8687 260.894 60.8687 259.894 79.8687L284.894 79.3687V77.8687C293.394 76.8687 301.894 80.3687 300.394 66.3687L302.394 56.3687C302.394 54.8687 299.894 50.8687 297.394 50.3687C298.894 47.8687 295.894 38.8687 295.894 38.8687V37.3687L291.894 34.3687L286.894 32.8687L283.394 32.3687L278.394 34.3687Z" stroke="black" stroke-width="0.5"/>
<path d="M295.894 37.3687L295.888 37.2888M295.888 37.2888L295.394 28.8687L281.394 26.8687L272.894 28.3687L283.394 32.3687C292.894 33.3687 291.892 34.8687 295.888 37.2888Z" stroke="black" stroke-width="0.5"/>
<path d="M294.396 36.8689C293.896 34.3687 282.896 34.1687 277.396 34.6687" stroke="black" stroke-width="0.5"/>
<path d="M300.396 66.8687L260.896 68.8687C260.396 63.8687 258.229 59.702 256.396 57.8687L302.396 55.3687M300.896 52.8687C289.896 51.3687 278.896 46.5687 266.896 40.5687M228.896 30.8687L272.896 28.3687L281.396 26.8687" stroke="black" stroke-width="0.5"/>
<path d="M272.896 43.3687C279.891 43.7184 285.908 43.8235 291.289 44.3687M297.896 45.3687C295.793 44.918 293.599 44.6028 291.289 44.3687M295.896 37.8687C295.478 37.2835 295.008 36.7543 294.504 36.2786M291.289 44.3687C290.962 44.0239 290.868 43.5008 290.854 42.8687M290.854 42.8687C290.84 42.2784 290.896 41.5929 290.896 40.8687C290.896 38.8687 289.896 34.8687 286.396 32.8687C288.616 32.8687 291.993 33.909 294.504 36.2786M290.854 42.8687C293.896 41.3687 294.968 37.8086 294.504 36.2786" stroke="black" stroke-width="0.5"/>
<path d="M290.896 40.8687C286.396 40.8687 284.396 36.8687 283.396 34.3687" stroke="black" stroke-width="0.5"/>
<path d="M132.894 12.9686C119.394 16.9686 107.394 22.8687 93.394 35.8687C100.394 23.8687 115.894 14.3687 131.394 9.36865L132.894 12.9686Z" fill="#E56E90" stroke="black" stroke-width="0.5"/>
<path d="M131.394 9.36865C111.394 15.0427 93.394 32.3687 85.394 30.3687C98.394 20.8687 114.394 12.3687 130.894 7.86865L131.394 9.36865Z" fill="#E56E90" stroke="black" stroke-width="0.5"/>
<path d="M10.3947 48.3685H4.39471C1.89404 52.3685 1.89404 62.3685 2.39471 65.8685C0.894043 66.8685 0.89464 71.3685 1.89471 72.8685L5.89471 73.3685V74.8685L1.89471 76.8685V78.8685C5.89471 79.8685 14.3947 81.8685 22.3947 81.3685V79.8685H39.8947C39.228 71.3685 40.8947 60.8685 49.8947 53.8685C47.3947 49.8685 40.3947 45.3685 37.3947 44.8685C27.3947 43.8685 12.3947 46.3685 10.3947 48.3685Z" fill="#E56E90" stroke="black" stroke-width="0.5"/>
<path d="M93.3955 35.8687C75.5622 36.702 43.8955 41.5687 33.3955 44.5687L37.3955 44.8687C42.3955 46.3687 47.8955 50.702 49.8955 53.8687C62.8945 44.3687 88.3945 51.3687 86.8945 78.8687H96.8945C89.8945 67.8687 90.8945 45.8687 93.3955 35.8687Z" fill="#E56E90" stroke="black" stroke-width="0.5"/>
<path d="M10.3936 48.3687H4.39355C36.8937 28.8686 58.8938 34.8687 84.8936 30.3687L93.8938 35.8687C76.8938 36.8687 47.8936 40.3686 33.8936 44.5687C25.8936 44.3686 11.8936 46.3686 10.3936 48.3687Z" fill="#E56E90" stroke="black" stroke-width="0.5"/>
<path d="M37.3955 44.8687C29.8955 43.8687 12.8955 45.8687 10.3955 48.3687C9.5955 50.7687 12.7288 53.702 14.3955 54.8687C23.8955 56.3687 37.3955 50.3687 37.3955 44.8687Z" fill="#E56E90" stroke="black" stroke-width="0.5"/>
<path d="M4.39474 48.3687C11.3947 49.3687 5.39474 59.8687 2.39474 64.8687C1.89467 57.8687 2.39453 52.3687 4.39474 48.3687Z" fill="#E56E90" stroke="black" stroke-width="0.5"/>
<path d="M22.394 84.3687V79.8687H39.894L40.394 84.3687H22.394Z" fill="#E56E90" stroke="black" stroke-width="0.5"/>
<path d="M2.89551 65.8687C4.39551 68.3687 6.39551 71.5353 5.89551 73.3687M22.3955 79.8687C11.8955 80.3687 7.39551 76.3687 8.39551 72.8687C8.89551 72.3687 10.3955 70.8687 11.3955 70.8687" stroke="black" stroke-width="0.5"/>
<path d="M32.3955 74.8688C29.8955 70.8688 24.3955 65.8689 21.3955 64.3689C19.6455 63.8688 17.0204 63.9938 14.2703 64.3689C12.6454 65.7022 11.3955 68.8688 11.8955 71.8688C11.8955 73.0354 13.2029 75.3688 15.8955 75.3688C20.3955 75.3688 27.3955 75.8688 32.3955 74.8688Z" fill="#E56E90"/>
<path d="M6.39551 65.8689C8.64545 65.3688 11.5204 64.7438 14.2703 64.3689M14.2703 64.3689C17.0204 63.9938 19.6455 63.8688 21.3955 64.3689C24.3955 65.8689 29.8955 70.8688 32.3955 74.8688C27.3955 75.8688 20.3955 75.3688 15.8955 75.3688C13.2029 75.3688 11.8955 73.0354 11.8955 71.8688C11.3955 68.8688 12.6454 65.7022 14.2703 64.3689Z" stroke="black" stroke-width="0.5"/>
<path d="M11.8955 71.3688C19.8955 69.8689 23.3955 72.4974 26.3955 73.9974M13.3955 74.3689L30.8955 73.8689" stroke="black" stroke-width="0.5"/>
<path d="M22.3936 82.8687H31.8936C33.8936 82.8687 35.3936 80.8687 34.8936 79.8687M38.3936 79.8687V84.3687" stroke="black" stroke-width="0.5"/>
<path d="M22.3955 81.3689C17.8955 81.3689 13.3955 81.8689 1.89545 78.8689V76.8689L5.89545 74.8689V73.3689L1.89545 72.8689C1.39453 71.3687 0.394727 68.3687 2.39472 65.8687C1.89497 57.8687 2.39497 51.3687 4.39545 48.3684C36.8955 28.8688 58.8954 34.8688 84.8954 30.3688C162.895 -24.6313 244.895 12.3686 281.895 26.8688L295.395 28.8687L295.895 35.8687V38.8687C297.394 43.8687 298.729 48.3687 297.395 50.3687C299.895 51.3687 302.395 54.5353 302.395 56.3687L300.395 66.3687C300.847 77.2166 298.439 77.4408 289.108 77.7533C288.117 77.7865 286.048 77.8206 284.895 77.8687V79.3687L259.895 79.7997M22.3955 81.3689V84.3689H40.3938L39.8955 79.8689M22.3955 81.3689V79.8689H39.8955M39.8955 79.8689C36.8955 38.3689 90.3954 41.3689 86.8954 80.3689V82.8687H213.395C207.395 39.3687 261.895 39.3687 259.895 79.7997M259.394 79.7997H259.895" stroke="black"/>
</svg>
