<svg width="303" height="95" viewBox="0 0 303 95" fill="none" xmlns="http://www.w3.org/2000/svg">
<circle cx="62.249" cy="73.6919" r="20.5" fill="#E56E90" stroke="black"/>
<circle cx="235.249" cy="73.6919" r="20.5" fill="#E56E90" stroke="black"/>
<path d="M132.247 12.1918L130.747 8.69175C170.747 0.691862 192.247 1.19189 231.247 12.6918L227.747 17.1918C207.747 9.1918 189.747 8.1918 173.747 7.69187C171.247 7.19187 167.247 7.19183 164.747 7.69175C154.747 7.69187 142.747 9.19187 132.247 12.1918Z" fill="#EFC7D3" stroke="black" stroke-width="0.5"/>
<path d="M130.747 8.69194L130.247 7.19194C166.247 -3.80811 198.747 0.191769 234.247 9.19194L231.247 12.6919C191.247 0.191895 165.247 1.69189 130.747 8.69194Z" fill="#EFC7D3" stroke="black" stroke-width="0.5"/>
<path d="M130.747 8.692C182.247 -2.80802 210.747 7.19202 231.247 12.692" stroke="black" stroke-width="0.5"/>
<path d="M170.249 29.6919L173.749 7.69189C207.249 8.69189 218.749 14.1919 223.249 15.6919L225.732 27.6919C198.742 27.6925 181.247 29.192 170.249 29.6919Z" fill="#EFC7D3"/>
<path d="M226.249 30.1919L223.249 15.6919C218.749 14.1919 207.249 8.69189 173.749 7.69189L170.249 29.6919C181.249 29.1919 198.749 27.6919 225.749 27.6919" stroke="black" stroke-width="0.5"/>
<path d="M164.749 7.69189C131.749 8.69189 111.749 17.6919 92.749 35.1919L95.249 33.1919L159.249 30.1919L164.749 7.69189Z" fill="#EFC7D3" stroke="black" stroke-width="0.5"/>
<path d="M239.247 22.1919C235.58 19.5252 229.747 17.1919 223.247 15.6919L225.747 27.6919H232.247C235.247 26.1919 238.247 23.9606 239.247 22.1919Z" fill="#EFC7D3" stroke="black" stroke-width="0.5"/>
<path d="M96.249 78.1919H163.249L197.749 76.6919H212.249L212.749 82.1919H198.749H97.749H86.249V78.1919H96.249Z" fill="#EFC7D3"/>
<path d="M96.249 78.1919H163.249L197.749 76.6919M96.249 78.1919C96.249 79.6919 96.749 80.6919 97.749 82.1919M96.249 78.1919H86.249V82.1919H97.749M197.749 76.6919L198.749 82.1919M197.749 76.6919H212.249L212.749 82.1919H198.749M198.749 82.1919H97.749" stroke="black" stroke-width="0.5"/>
<path d="M96.2482 78.1919C91.749 73.6919 88.7491 51.6919 92.7482 35.1919L164.749 31.1919C160.749 36.1919 159.749 70.1919 163.249 78.1919H96.2482Z" fill="#EFC7D3" stroke="black" stroke-width="0.5"/>
<path d="M228.249 30.1919L164.749 31.1919C160.749 36.1919 159.749 70.1919 163.249 78.1919L197.749 76.6919C202.249 75.1919 208.749 69.6919 228.249 30.1919Z" fill="#EFC7D3" stroke="black" stroke-width="0.5"/>
<path d="M170.249 29.692C165.749 30.192 162.249 30.192 159.249 30.192L164.749 7.69197C167.749 7.19189 170.749 7.19189 173.749 7.69197L170.249 29.692Z" fill="#EFC7D3" stroke="black" stroke-width="0.5"/>
<path d="M98.749 31.6922C103.249 37.1922 110.249 33.6922 114.249 32.1922C115.249 16.692 102.249 24.692 98.749 31.6922Z" fill="#EFC7D3" stroke="black" stroke-width="0.5"/>
<path d="M234.247 9.19189L231.247 12.6919C248.247 18.1919 258.747 21.1919 271.247 27.6919H272.747L280.747 26.1919C265.747 19.6919 258.247 17.1919 234.247 9.19189Z" fill="#E0426F" stroke="black" stroke-width="0.5"/>
<path d="M271.247 27.6919C260.747 22.1919 241.747 15.6919 231.247 12.6919L229.247 15.1919L244.247 22.6919C242.747 25.1919 238.747 27.1919 232.747 29.8919C244.747 29.1919 261.747 28.1919 271.247 27.6919Z" fill="#E0426F" stroke="black" stroke-width="0.5"/>
<path d="M276.749 33.9919L282.747 31.6919L272.248 27.6919L228.248 30.1919C220.748 45.1919 205.748 75.6919 197.748 76.6919H212.248C210.748 65.6919 220.248 42.1919 245.249 51.1919C255.749 45.6919 265.749 40.1919 276.749 33.9919Z" fill="#E0426F" stroke="black" stroke-width="0.5"/>
<path d="M277.747 33.6919C265.747 40.1919 255.747 45.6919 245.247 51.1919C249.747 54.1919 260.247 60.1919 259.247 79.1919L284.247 78.6919V77.1919C292.747 76.1919 301.247 79.6919 299.747 65.6919L301.747 55.6919C301.747 54.1919 299.247 50.1919 296.747 49.6919C298.247 47.1919 295.247 38.1919 295.247 38.1919V36.6919L291.247 33.6919L286.247 32.1919L282.747 31.6919L277.747 33.6919Z" fill="#E0426F" stroke="black" stroke-width="0.5"/>
<path d="M280.747 26.1919L272.247 27.6919L282.747 31.6919C292.247 32.6919 291.246 34.1919 295.241 36.6121L294.747 28.1919L280.747 26.1919Z" fill="#E0426F"/>
<path d="M295.247 36.6919L295.241 36.6121M295.241 36.6121L294.747 28.1919L280.747 26.1919L272.247 27.6919L282.747 31.6919C292.247 32.6919 291.246 34.1919 295.241 36.6121Z" stroke="black" stroke-width="0.5"/>
<path d="M293.749 36.1921C293.249 33.692 282.249 33.4919 276.749 33.9919" stroke="black" stroke-width="0.5"/>
<path d="M299.749 66.1919L260.249 68.1919C259.749 63.1919 257.582 59.0252 255.749 57.1919L301.749 54.6919M300.249 52.1919C289.249 50.6919 278.249 45.8919 266.249 39.8919M228.249 30.1919L272.249 27.6919L280.749 26.1919" stroke="black" stroke-width="0.5"/>
<path d="M290.249 40.1919C290.249 38.1919 289.249 34.1919 285.749 32.1919C287.97 32.1919 291.347 33.2323 293.858 35.6019C294.322 37.1319 293.249 40.6919 290.207 42.1919C290.194 41.6016 290.249 40.9162 290.249 40.1919Z" fill="#E0426F"/>
<path d="M272.249 42.6919C279.245 43.0417 285.262 43.1468 290.642 43.6919M297.249 44.6919C295.146 44.2413 292.953 43.926 290.642 43.6919M295.249 37.1919C294.831 36.6068 294.362 36.0775 293.858 35.6019M290.642 43.6919C290.316 43.3471 290.222 42.8241 290.207 42.1919M290.207 42.1919C290.194 41.6016 290.249 40.9162 290.249 40.1919C290.249 38.1919 289.249 34.1919 285.749 32.1919C287.97 32.1919 291.347 33.2323 293.858 35.6019M290.207 42.1919C293.249 40.6919 294.322 37.1319 293.858 35.6019" stroke="black" stroke-width="0.5"/>
<path d="M290.249 40.1919C285.749 40.1919 283.749 36.1919 282.749 33.6919" stroke="black" stroke-width="0.5"/>
<path d="M132.247 12.2919C118.747 16.2919 106.747 22.1919 92.7471 35.1919C99.7471 23.1919 115.247 13.6919 130.747 8.69189L132.247 12.2919Z" fill="#E0426F" stroke="black" stroke-width="0.5"/>
<path d="M130.747 8.69189C110.747 14.3659 92.7471 31.6919 84.7471 29.6919C97.7471 20.1919 113.747 11.6919 130.247 7.19189L130.747 8.69189Z" fill="#E0426F" stroke="black" stroke-width="0.5"/>
<path d="M9.74774 47.6918H3.74774C1.24707 51.6918 1.24707 61.6918 1.74774 65.1918C0.24707 66.1918 0.247668 70.6918 1.24774 72.1918L5.24774 72.6918V74.1918L1.24774 76.1918V78.1918C5.24774 79.1918 13.7477 81.1918 21.7477 80.6918V79.1918H39.2477C38.5811 70.6918 40.2477 60.1918 49.2477 53.1918C46.7477 49.1918 39.7477 44.6918 36.7477 44.1918C26.7477 43.1918 11.7477 45.6918 9.74774 47.6918Z" fill="#E0426F" stroke="black" stroke-width="0.5"/>
<path d="M92.749 35.1919C74.9157 36.0252 43.249 40.8919 32.749 43.8919L36.749 44.1919C41.749 45.6919 47.249 50.0252 49.249 53.1919C62.248 43.6919 87.748 50.6919 86.248 78.1919H96.248C89.248 67.1919 90.248 45.1919 92.749 35.1919Z" fill="#E0426F" stroke="black" stroke-width="0.5"/>
<path d="M9.74707 47.6919H3.74707C36.2473 28.1918 58.2473 34.1919 84.2471 29.6919L93.2473 35.1919C76.2473 36.1919 47.2471 39.6919 33.2471 43.8919C25.2471 43.6919 11.2471 45.6919 9.74707 47.6919Z" fill="#E0426F" stroke="black" stroke-width="0.5"/>
<path d="M36.7485 44.192C29.2485 43.1919 12.2485 45.1919 9.74852 47.692C8.94852 50.0919 12.0819 53.0252 13.7485 54.1919C23.2485 55.6919 36.7485 49.6919 36.7485 44.192Z" fill="#E0426F" stroke="black" stroke-width="0.5"/>
<path d="M3.74777 47.6919C10.7478 48.6919 4.74777 59.1919 1.74777 64.1919C1.2477 57.1919 1.74756 51.6919 3.74777 47.6919Z" fill="#E0426F" stroke="black" stroke-width="0.5"/>
<path d="M21.7471 83.6919V79.1919H39.2471L39.7471 83.6919H21.7471Z" fill="#E0426F" stroke="black" stroke-width="0.5"/>
<path d="M2.24902 65.1919C3.74902 67.6919 5.74902 70.8586 5.24902 72.6919M21.749 79.1919C11.249 79.6919 6.74902 75.6919 7.74902 72.1919C8.24902 71.6919 9.74902 70.1919 10.749 70.1919" stroke="black" stroke-width="0.5"/>
<path d="M31.749 74.192C29.249 70.192 23.749 65.1921 20.749 63.6921C18.999 63.1921 16.3739 63.3171 13.6238 63.6921C11.9989 65.0254 10.749 68.192 11.249 71.192C11.249 72.3587 12.5564 74.692 15.249 74.692C19.749 74.692 26.749 75.192 31.749 74.192Z" fill="#E0426F"/>
<path d="M5.74902 65.1921C7.99897 64.6921 10.8739 64.0671 13.6238 63.6921M13.6238 63.6921C16.3739 63.3171 18.999 63.1921 20.749 63.6921C23.749 65.1921 29.249 70.192 31.749 74.192C26.749 75.192 19.749 74.692 15.249 74.692C12.5564 74.692 11.249 72.3587 11.249 71.192C10.749 68.192 11.9989 65.0254 13.6238 63.6921Z" stroke="black" stroke-width="0.5"/>
<path d="M11.249 70.6921C19.249 69.1921 22.749 71.8206 25.749 73.3206M12.749 73.6921L30.249 73.1921" stroke="black" stroke-width="0.5"/>
<path d="M21.7471 82.1919H31.2471C33.2471 82.1919 34.7471 80.1919 34.2471 79.1919M37.7471 79.1919V83.6919" stroke="black" stroke-width="0.5"/>
<path d="M21.749 80.6921C17.249 80.6921 12.749 81.1921 1.24897 78.1921V76.1921L5.24897 74.1921V72.6921L1.24897 72.1921C0.748047 70.6919 -0.251757 67.6919 1.74824 65.1919C1.24848 57.1919 1.74848 50.6919 3.74897 47.6916C36.249 28.192 58.249 34.1921 84.249 29.6921C162.249 -25.308 244.249 11.6919 281.249 26.1921L294.749 28.1919L295.249 35.1919V38.1919C296.747 43.1919 298.082 47.6919 296.749 49.6919C299.249 50.6919 301.749 53.8586 301.749 55.6919L299.749 65.6919C300.201 76.5398 297.793 76.7641 288.461 77.0765C287.47 77.1097 285.401 77.1439 284.249 77.1919V78.6919L259.249 79.1229M21.749 80.6921V83.6921H39.7473L39.249 79.1921M21.749 80.6921V79.1921H39.249M39.249 79.1921C36.249 37.6921 89.749 40.6921 86.249 79.6921V82.1919H212.749C206.749 38.6919 261.249 38.6919 259.249 79.1229M258.747 79.1229H259.249" stroke="black"/>
</svg>
