<svg width="304" height="95" viewBox="0 0 304 95" fill="none" xmlns="http://www.w3.org/2000/svg">
<circle cx="63.0835" cy="73.6919" r="20.5" fill="#EDADBF" stroke="black"/>
<circle cx="236.083" cy="73.6919" r="20.5" fill="#EDADBF" stroke="black"/>
<path d="M133.082 12.1918L131.582 8.69175C171.582 0.691862 193.082 1.19189 232.082 12.6918L228.582 17.1918C208.582 9.1918 190.582 8.1918 174.582 7.69187C172.082 7.19187 168.082 7.19183 165.582 7.69175C155.582 7.69187 143.582 9.19187 133.082 12.1918Z" fill="#EFC7D3" stroke="black" stroke-width="0.5"/>
<path d="M131.582 8.69194L131.082 7.19194C167.082 -3.80811 199.582 0.191769 235.082 9.19194L232.082 12.6919C192.082 0.191895 166.082 1.69189 131.582 8.69194Z" fill="#EFC7D3" stroke="black" stroke-width="0.5"/>
<path d="M131.582 8.692C183.082 -2.80802 211.582 7.19202 232.082 12.692" stroke="black" stroke-width="0.5"/>
<path d="M171.083 29.6919L174.583 7.69189C208.083 8.69189 219.583 14.1919 224.083 15.6919L226.566 27.6919C199.576 27.6925 182.081 29.192 171.083 29.6919Z" fill="#EFC7D3"/>
<path d="M227.083 30.1919L224.083 15.6919C219.583 14.1919 208.083 8.69189 174.583 7.69189L171.083 29.6919C182.083 29.1919 199.583 27.6919 226.583 27.6919" stroke="black" stroke-width="0.5"/>
<path d="M165.583 7.69189C132.583 8.69189 112.583 17.6919 93.5835 35.1919L96.0835 33.1919L160.083 30.1919L165.583 7.69189Z" fill="#EFC7D3" stroke="black" stroke-width="0.5"/>
<path d="M240.082 22.1919C236.415 19.5252 230.582 17.1919 224.082 15.6919L226.582 27.6919H233.082C236.082 26.1919 239.082 23.9606 240.082 22.1919Z" fill="#EFC7D3" stroke="black" stroke-width="0.5"/>
<path d="M97.0835 78.1919H164.083L198.583 76.6919H213.083L213.583 82.1919H199.583H98.5835H87.0835V78.1919H97.0835Z" fill="#EFC7D3"/>
<path d="M97.0835 78.1919H164.083L198.583 76.6919M97.0835 78.1919C97.0835 79.6919 97.5835 80.6919 98.5835 82.1919M97.0835 78.1919H87.0835V82.1919H98.5835M198.583 76.6919L199.583 82.1919M198.583 76.6919H213.083L213.583 82.1919H199.583M199.583 82.1919H98.5835" stroke="black" stroke-width="0.5"/>
<path d="M97.0826 78.1919C92.5835 73.6919 89.5835 51.6919 93.5826 35.1919L165.583 31.1919C161.583 36.1919 160.583 70.1919 164.083 78.1919H97.0826Z" fill="#EFC7D3" stroke="black" stroke-width="0.5"/>
<path d="M229.083 30.1919L165.583 31.1919C161.583 36.1919 160.583 70.1919 164.083 78.1919L198.583 76.6919C203.083 75.1919 209.583 69.6919 229.083 30.1919Z" fill="#EFC7D3" stroke="black" stroke-width="0.5"/>
<path d="M171.083 29.692C166.583 30.192 163.083 30.192 160.083 30.192L165.583 7.69197C168.583 7.19189 171.583 7.19189 174.583 7.69197L171.083 29.692Z" fill="#EFC7D3" stroke="black" stroke-width="0.5"/>
<path d="M99.5835 31.6922C104.083 37.1922 111.083 33.6922 115.083 32.1922C116.083 16.692 103.083 24.692 99.5835 31.6922Z" fill="#EFC7D3" stroke="black" stroke-width="0.5"/>
<path d="M235.082 9.19189L232.082 12.6919C249.082 18.1919 259.582 21.1919 272.082 27.6919H273.582L281.582 26.1919C266.582 19.6919 259.082 17.1919 235.082 9.19189Z" fill="#EFC7D3" stroke="black" stroke-width="0.5"/>
<path d="M272.082 27.6919C261.582 22.1919 242.582 15.6919 232.082 12.6919L230.082 15.1919L245.082 22.6919C243.582 25.1919 239.582 27.1919 233.582 29.8919C245.582 29.1919 262.582 28.1919 272.082 27.6919Z" fill="#EFC7D3" stroke="black" stroke-width="0.5"/>
<path d="M277.583 33.9919L283.582 31.6919L273.083 27.6919L229.083 30.1919C221.583 45.1919 206.583 75.6919 198.583 76.6919H213.083C211.583 65.6919 221.083 42.1919 246.083 51.1919C256.583 45.6919 266.583 40.1919 277.583 33.9919Z" fill="#EFC7D3" stroke="black" stroke-width="0.5"/>
<path d="M278.582 33.6919C266.582 40.1919 256.582 45.6919 246.082 51.1919C250.582 54.1919 261.082 60.1919 260.082 79.1919L285.082 78.6919V77.1919C293.582 76.1919 302.082 79.6919 300.582 65.6919L302.582 55.6919C302.582 54.1919 300.082 50.1919 297.582 49.6919C299.082 47.1919 296.082 38.1919 296.082 38.1919V36.6919L292.082 33.6919L287.082 32.1919L283.582 31.6919L278.582 33.6919Z" fill="#EFC7D3" stroke="black" stroke-width="0.5"/>
<path d="M281.582 26.1919L273.082 27.6919L283.582 31.6919C293.082 32.6919 292.081 34.1919 296.076 36.6121L295.582 28.1919L281.582 26.1919Z" fill="#EFC7D3"/>
<path d="M296.082 36.6919L296.076 36.6121M296.076 36.6121L295.582 28.1919L281.582 26.1919L273.082 27.6919L283.582 31.6919C293.082 32.6919 292.081 34.1919 296.076 36.6121Z" stroke="black" stroke-width="0.5"/>
<path d="M294.583 36.1921C294.083 33.692 283.083 33.4919 277.583 33.9919" stroke="black" stroke-width="0.5"/>
<path d="M300.583 66.1919L261.083 68.1919C260.583 63.1919 258.417 59.0252 256.583 57.1919L302.583 54.6919M301.083 52.1919C290.083 50.6919 279.083 45.8919 267.083 39.8919M229.083 30.1919L273.083 27.6919L281.583 26.1919" stroke="black" stroke-width="0.5"/>
<path d="M291.083 40.1919C291.083 38.1919 290.083 34.1919 286.583 32.1919C288.804 32.1919 292.181 33.2323 294.692 35.6019C295.156 37.1319 294.083 40.6919 291.042 42.1919C291.028 41.6016 291.083 40.9162 291.083 40.1919Z" fill="#EFC7D3"/>
<path d="M273.083 42.6919C280.079 43.0417 286.096 43.1468 291.477 43.6919M298.083 44.6919C295.981 44.2413 293.787 43.926 291.477 43.6919M296.083 37.1919C295.666 36.6068 295.196 36.0775 294.692 35.6019M291.477 43.6919C291.15 43.3471 291.056 42.8241 291.042 42.1919M291.042 42.1919C291.028 41.6016 291.083 40.9162 291.083 40.1919C291.083 38.1919 290.083 34.1919 286.583 32.1919C288.804 32.1919 292.181 33.2323 294.692 35.6019M291.042 42.1919C294.083 40.6919 295.156 37.1319 294.692 35.6019" stroke="black" stroke-width="0.5"/>
<path d="M291.083 40.1919C286.583 40.1919 284.583 36.1919 283.583 33.6919" stroke="black" stroke-width="0.5"/>
<path d="M133.082 12.2919C119.582 16.2919 107.582 22.1919 93.582 35.1919C100.582 23.1919 116.082 13.6919 131.582 8.69189L133.082 12.2919Z" fill="#E0426F" stroke="black" stroke-width="0.5"/>
<path d="M131.582 8.69189C111.582 14.3659 93.582 31.6919 85.582 29.6919C98.582 20.1919 114.582 11.6919 131.082 7.19189L131.582 8.69189Z" fill="#E0426F" stroke="black" stroke-width="0.5"/>
<path d="M10.5827 47.6918H4.5827C2.08203 51.6918 2.08203 61.6918 2.5827 65.1918C1.08203 66.1918 1.08263 70.6918 2.0827 72.1918L6.0827 72.6918V74.1918L2.0827 76.1918V78.1918C6.0827 79.1918 14.5827 81.1918 22.5827 80.6918V79.1918H40.0827C39.416 70.6918 41.0827 60.1918 50.0827 53.1918C47.5827 49.1918 40.5827 44.6918 37.5827 44.1918C27.5827 43.1918 12.5827 45.6918 10.5827 47.6918Z" fill="#E0426F" stroke="black" stroke-width="0.5"/>
<path d="M93.5835 35.1919C75.7502 36.0252 44.0835 40.8919 33.5835 43.8919L37.5835 44.1919C42.5835 45.6919 48.0835 50.0252 50.0835 53.1919C63.0825 43.6919 88.5825 50.6919 87.0825 78.1919H97.0825C90.0825 67.1919 91.0825 45.1919 93.5835 35.1919Z" fill="#E0426F" stroke="black" stroke-width="0.5"/>
<path d="M10.582 47.6919H4.58203C37.0822 28.1918 59.0823 34.1919 85.082 29.6919L94.0823 35.1919C77.0823 36.1919 48.082 39.6919 34.082 43.8919C26.082 43.6919 12.082 45.6919 10.582 47.6919Z" fill="#E0426F" stroke="black" stroke-width="0.5"/>
<path d="M37.5835 44.192C30.0835 43.1919 13.0835 45.1919 10.5835 47.692C9.78349 50.0919 12.9168 53.0252 14.5835 54.1919C24.0835 55.6919 37.5835 49.6919 37.5835 44.192Z" fill="#E0426F" stroke="black" stroke-width="0.5"/>
<path d="M4.58273 47.6919C11.5827 48.6919 5.58273 59.1919 2.58273 64.1919C2.08266 57.1919 2.58252 51.6919 4.58273 47.6919Z" fill="#E0426F" stroke="black" stroke-width="0.5"/>
<path d="M22.582 83.6919V79.1919H40.082L40.582 83.6919H22.582Z" fill="#E0426F" stroke="black" stroke-width="0.5"/>
<path d="M3.08398 65.1919C4.58398 67.6919 6.58398 70.8586 6.08398 72.6919M22.584 79.1919C12.084 79.6919 7.58398 75.6919 8.58398 72.1919C9.08398 71.6919 10.584 70.1919 11.584 70.1919" stroke="black" stroke-width="0.5"/>
<path d="M32.584 74.192C30.084 70.192 24.584 65.1921 21.584 63.6921C19.8339 63.1921 17.2088 63.3171 14.4588 63.6921C12.8338 65.0254 11.584 68.192 12.084 71.192C12.084 72.3587 13.3914 74.692 16.084 74.692C20.584 74.692 27.584 75.192 32.584 74.192Z" fill="#E0426F"/>
<path d="M6.58398 65.1921C8.83393 64.6921 11.7088 64.0671 14.4588 63.6921M14.4588 63.6921C17.2088 63.3171 19.8339 63.1921 21.584 63.6921C24.584 65.1921 30.084 70.192 32.584 74.192C27.584 75.192 20.584 74.692 16.084 74.692C13.3914 74.692 12.084 72.3587 12.084 71.192C11.584 68.192 12.8338 65.0254 14.4588 63.6921Z" stroke="black" stroke-width="0.5"/>
<path d="M12.084 70.6921C20.084 69.1921 23.584 71.8206 26.584 73.3206M13.584 73.6921L31.084 73.1921" stroke="black" stroke-width="0.5"/>
<path d="M22.582 82.1919H32.082C34.082 82.1919 35.582 80.1919 35.082 79.1919M38.582 79.1919V83.6919" stroke="black" stroke-width="0.5"/>
<path d="M22.5834 80.6921C18.0834 80.6921 13.5834 81.1921 2.08344 78.1921V76.1921L6.08344 74.1921V72.6921L2.08344 72.1921C1.58252 70.6919 0.582715 67.6919 2.58271 65.1919C2.08295 57.1919 2.58295 50.6919 4.58344 47.6916C37.0834 28.192 59.0834 34.1921 85.0834 29.6921C163.083 -25.308 245.083 11.6919 282.083 26.1921L295.583 28.1919L296.083 35.1919V38.1919C297.582 43.1919 298.917 47.6919 297.583 49.6919C300.083 50.6919 302.583 53.8586 302.583 55.6919L300.583 65.6919C301.035 76.5398 298.627 76.7641 289.296 77.0765C288.305 77.1097 286.236 77.1439 285.083 77.1919V78.6919L260.083 79.1229M22.5834 80.6921V83.6921H40.5818L40.0835 79.1921M22.5834 80.6921V79.1921H40.0835M40.0835 79.1921C37.0835 37.6921 90.5834 40.6921 87.0834 79.6921V82.1919H213.583C207.583 38.6919 262.083 38.6919 260.083 79.1229M259.582 79.1229H260.083" stroke="black"/>
</svg>
