<svg width="304" height="96" viewBox="0 0 304 96" fill="none" xmlns="http://www.w3.org/2000/svg">
<circle cx="63.0635" cy="74.2297" r="20.5" fill="#EDADBF" stroke="black"/>
<circle cx="236.063" cy="74.2297" r="20.5" fill="#EDADBF" stroke="black"/>
<path d="M133.062 12.7296L131.562 9.22959C171.562 1.2297 193.062 1.72974 232.062 13.2297L228.562 17.7297C208.562 9.72965 190.562 8.72964 174.562 8.22971C172.062 7.72971 168.062 7.72968 165.562 8.22959C155.562 8.22971 143.562 9.72971 133.062 12.7296Z" fill="#E0426F" stroke="black" stroke-width="0.5"/>
<path d="M131.562 9.22978L131.062 7.72978C167.062 -3.27026 199.562 0.72961 235.062 9.72978L232.062 13.2298C192.062 0.729736 166.062 2.22974 131.562 9.22978Z" fill="#E0426F" stroke="black" stroke-width="0.5"/>
<path d="M131.562 9.2296C183.062 -2.27042 211.562 7.72961 232.062 13.2296" stroke="black" stroke-width="0.5"/>
<path d="M171.063 30.2297L174.563 8.22974C208.063 9.22974 219.563 14.7297 224.063 16.2297L226.546 28.2297C199.556 28.2304 182.061 29.7298 171.063 30.2297Z" fill="#E0426F"/>
<path d="M227.063 30.7297L224.063 16.2297C219.563 14.7297 208.063 9.22974 174.563 8.22974L171.063 30.2297C182.063 29.7297 199.563 28.2297 226.563 28.2297" stroke="black" stroke-width="0.5"/>
<path d="M165.563 8.22974C132.563 9.22974 112.563 18.2297 93.5635 35.7297L96.0635 33.7297L160.063 30.7297L165.563 8.22974Z" fill="#E0426F" stroke="black" stroke-width="0.5"/>
<path d="M240.062 22.7297C236.395 20.0631 230.562 17.7297 224.062 16.2297L226.562 28.2297H233.062C236.062 26.7297 239.062 24.4985 240.062 22.7297Z" fill="#E0426F" stroke="black" stroke-width="0.5"/>
<path d="M97.0635 78.7297H164.063L198.563 77.2297H213.063L213.563 82.7297H199.563H98.5635H87.0635V78.7297H97.0635Z" fill="#E0426F"/>
<path d="M97.0635 78.7297H164.063L198.563 77.2297M97.0635 78.7297C97.0635 80.2297 97.5635 81.2297 98.5635 82.7297M97.0635 78.7297H87.0635V82.7297H98.5635M198.563 77.2297L199.563 82.7297M198.563 77.2297H213.063L213.563 82.7297H199.563M199.563 82.7297H98.5635" stroke="black" stroke-width="0.5"/>
<path d="M97.0626 78.7297C92.5635 74.2297 89.5635 52.2297 93.5626 35.7297L165.563 31.7297C161.563 36.7297 160.563 70.7297 164.063 78.7297H97.0626Z" fill="#E0426F" stroke="black" stroke-width="0.5"/>
<path d="M229.063 30.7297L165.563 31.7297C161.564 36.7297 160.564 70.7297 164.063 78.7297L198.563 77.2297C203.063 75.7297 209.563 70.2297 229.063 30.7297Z" fill="#E0426F" stroke="black" stroke-width="0.5"/>
<path d="M171.063 30.2298C166.563 30.7298 163.063 30.7298 160.063 30.7298L165.563 8.22981C168.563 7.72974 171.563 7.72974 174.563 8.22981L171.063 30.2298Z" fill="#E0426F" stroke="black" stroke-width="0.5"/>
<path d="M99.5635 32.2297C104.063 37.7297 111.063 34.2297 115.063 32.7297C116.063 17.2296 103.063 25.2296 99.5635 32.2297Z" fill="#E0426F" stroke="black" stroke-width="0.5"/>
<path d="M235.062 9.72974L232.062 13.2297C249.062 18.7297 259.562 21.7297 272.062 28.2297H273.562L281.562 26.7297C266.562 20.2297 259.062 17.7297 235.062 9.72974Z" fill="#E56E90" stroke="black" stroke-width="0.5"/>
<path d="M272.062 28.2297C261.562 22.7297 242.562 16.2297 232.062 13.2297L230.062 15.7297L245.062 23.2297C243.562 25.7297 239.562 27.7297 233.562 30.4297C245.562 29.7297 262.562 28.7297 272.062 28.2297Z" fill="#E56E90" stroke="black" stroke-width="0.5"/>
<path d="M277.563 34.5297L283.562 32.2297L273.062 28.2297L229.062 30.7297C221.562 45.7297 206.562 76.2297 198.562 77.2297H213.062C211.562 66.2297 221.062 42.7297 246.063 51.7297C256.563 46.2297 266.563 40.7297 277.563 34.5297Z" fill="#E56E90" stroke="black" stroke-width="0.5"/>
<path d="M278.562 34.2298C266.562 40.7298 256.562 46.2298 246.062 51.7298C250.562 54.7297 261.062 60.7297 260.062 79.7297L285.062 79.2297V77.7297C293.562 76.7297 302.062 80.2297 300.562 66.2297L302.562 56.2297C302.562 54.7297 300.062 50.7297 297.562 50.2297C299.062 47.7297 296.062 38.7297 296.062 38.7297V37.2297L292.062 34.2297L287.062 32.7297L283.562 32.2297L278.562 34.2298Z" fill="#E56E90" stroke="black" stroke-width="0.5"/>
<path d="M281.562 26.7297L273.062 28.2297L283.562 32.2297C293.062 33.2297 292.06 34.7297 296.056 37.1499L295.562 28.7297L281.562 26.7297Z" fill="#E56E90"/>
<path d="M296.062 37.2297L296.056 37.1499M296.056 37.1499L295.562 28.7297L281.562 26.7297L273.062 28.2297L283.562 32.2297C293.062 33.2297 292.06 34.7297 296.056 37.1499Z" stroke="black" stroke-width="0.5"/>
<path d="M294.563 36.7299C294.063 34.2298 283.063 34.0297 277.563 34.5297" stroke="black" stroke-width="0.5"/>
<path d="M300.563 66.7297L261.063 68.7297C260.563 63.7297 258.397 59.5631 256.563 57.7297L302.563 55.2297M301.063 52.7297C290.063 51.2297 279.063 46.4297 267.063 40.4297M229.063 30.7297L273.063 28.2297L281.563 26.7297" stroke="black" stroke-width="0.5"/>
<path d="M291.063 40.7297C291.063 38.7297 290.063 34.7297 286.563 32.7297C288.784 32.7297 292.161 33.7701 294.672 36.1397C295.136 37.6697 294.063 41.2297 291.022 42.7297C291.008 42.1395 291.063 41.454 291.063 40.7297Z" fill="#E56E90"/>
<path d="M273.063 43.2297C280.059 43.5795 286.076 43.6846 291.457 44.2297M298.063 45.2297C295.96 44.7791 293.767 44.4638 291.457 44.2297M296.063 37.7297C295.646 37.1446 295.176 36.6154 294.672 36.1397M291.457 44.2297C291.13 43.885 291.036 43.3619 291.022 42.7297M291.022 42.7297C291.008 42.1395 291.063 41.454 291.063 40.7297C291.063 38.7297 290.063 34.7297 286.563 32.7297C288.784 32.7297 292.161 33.7701 294.672 36.1397M291.022 42.7297C294.063 41.2297 295.136 37.6697 294.672 36.1397" stroke="black" stroke-width="0.5"/>
<path d="M291.063 40.7297C286.563 40.7297 284.563 36.7297 283.563 34.2297" stroke="black" stroke-width="0.5"/>
<path d="M133.062 12.8297C119.562 16.8297 107.562 22.7297 93.5615 35.7297C100.562 23.7297 116.062 14.2297 131.562 9.22974L133.062 12.8297Z" fill="#E0426F" stroke="black" stroke-width="0.5"/>
<path d="M131.562 9.22974C111.562 14.9038 93.5615 32.2297 85.5615 30.2297C98.5615 20.7297 114.562 12.2297 131.062 7.72974L131.562 9.22974Z" fill="#E0426F" stroke="black" stroke-width="0.5"/>
<path d="M10.5622 48.2296H4.56219C2.06152 52.2296 2.06152 62.2296 2.56219 65.7296C1.06152 66.7296 1.06212 71.2296 2.06219 72.7296L6.06219 73.2296V74.7296L2.06219 76.7296V78.7296C6.06219 79.7296 14.5622 81.7296 22.5622 81.2296V79.7296H40.0622C39.3955 71.2296 41.0622 60.7296 50.0622 53.7296C47.5622 49.7296 40.5622 45.2296 37.5622 44.7296C27.5622 43.7296 12.5622 46.2296 10.5622 48.2296Z" fill="#E0426F" stroke="black" stroke-width="0.5"/>
<path d="M93.5635 35.7297C75.7301 36.5631 44.0635 41.4297 33.5635 44.4297L37.5635 44.7297C42.5635 46.2297 48.0635 50.5631 50.0635 53.7297C63.0625 44.2297 88.5625 51.2297 87.0625 78.7297H97.0625C90.0625 67.7297 91.0625 45.7297 93.5635 35.7297Z" fill="#E0426F" stroke="black" stroke-width="0.5"/>
<path d="M10.5615 48.2298H4.56152C37.0617 28.7297 59.0618 34.7297 85.0615 30.2297L94.0618 35.7297C77.0618 36.7297 48.0615 40.2297 34.0615 44.4297C26.0615 44.2297 12.0615 46.2297 10.5615 48.2298Z" fill="#E0426F" stroke="black" stroke-width="0.5"/>
<path d="M37.563 44.7298C30.063 43.7297 13.063 45.7297 10.563 48.2298C9.76298 50.6298 12.8963 53.5631 14.563 54.7297C24.063 56.2297 37.563 50.2297 37.563 44.7298Z" fill="#E0426F" stroke="black" stroke-width="0.5"/>
<path d="M4.56222 48.2297C11.5622 49.2297 5.56222 59.7297 2.56222 64.7297C2.06215 57.7297 2.56201 52.2297 4.56222 48.2297Z" fill="#E0426F" stroke="black" stroke-width="0.5"/>
<path d="M22.5615 84.2297V79.7297H40.0615L40.5615 84.2297H22.5615Z" fill="#E0426F" stroke="black" stroke-width="0.5"/>
<path d="M3.06348 65.7295C4.56348 68.2295 6.56348 71.3962 6.06348 73.2295M22.5635 79.7295C12.0635 80.2295 7.56348 76.2295 8.56348 72.7295C9.06348 72.2295 10.5635 70.7295 11.5635 70.7295" stroke="black" stroke-width="0.5"/>
<path d="M32.5635 74.7296C30.0635 70.7296 24.5635 65.7297 21.5635 64.2297C19.8134 63.7297 17.1883 63.8547 14.4383 64.2297C12.8133 65.563 11.5635 68.7296 12.0635 71.7296C12.0635 72.8963 13.3709 75.2296 16.0635 75.2296C20.5635 75.2296 27.5635 75.7296 32.5635 74.7296Z" fill="#E0426F"/>
<path d="M6.56348 65.7297C8.81342 65.2297 11.6883 64.6047 14.4383 64.2297M14.4383 64.2297C17.1883 63.8547 19.8134 63.7297 21.5635 64.2297C24.5635 65.7297 30.0635 70.7296 32.5635 74.7296C27.5635 75.7296 20.5635 75.2296 16.0635 75.2296C13.3709 75.2296 12.0635 72.8963 12.0635 71.7296C11.5635 68.7296 12.8133 65.563 14.4383 64.2297Z" stroke="black" stroke-width="0.5"/>
<path d="M12.0635 71.2297C20.0635 69.7297 23.5635 72.3582 26.5635 73.8582M13.5635 74.2297L31.0635 73.7297" stroke="black" stroke-width="0.5"/>
<path d="M22.5615 82.7295H32.0615C34.0615 82.7295 35.5615 80.7295 35.0615 79.7295M38.5615 79.7295V84.2295" stroke="black" stroke-width="0.5"/>
<path d="M22.5634 81.23C18.0634 81.23 13.5634 81.73 2.06342 78.73V76.73L6.06342 74.73V73.23L2.06342 72.73C1.5625 71.2297 0.562696 68.2297 2.56269 65.7297C2.06293 57.7297 2.56293 51.2297 4.56342 48.2295C37.0634 28.7299 59.0634 34.7299 85.0634 30.2299C163.063 -24.7702 245.063 12.2297 282.063 26.7299L295.563 28.7297L296.063 35.7297V38.7297C297.562 43.7297 298.897 48.2297 297.563 50.2297C300.063 51.2297 302.563 54.3964 302.563 56.2297L300.563 66.2297C301.015 77.0776 298.607 77.3019 289.276 77.6144C288.285 77.6476 286.216 77.6817 285.063 77.7297V79.2297L260.063 79.6608M22.5634 81.23V84.23H40.5618L40.0634 79.73M22.5634 81.23V79.73H40.0634M40.0634 79.73C37.0634 38.23 90.5634 41.23 87.0634 80.23V82.7297H213.563C207.563 39.2297 262.063 39.2297 260.063 79.6608M259.562 79.6608H260.063" stroke="black"/>
</svg>
