<svg width="304" height="95" viewBox="0 0 304 95" fill="none" xmlns="http://www.w3.org/2000/svg">
<circle cx="63.0635" cy="73.6919" r="20.5" fill="#EDADBF" stroke="black"/>
<circle cx="236.063" cy="73.6919" r="20.5" fill="#EDADBF" stroke="black"/>
<path d="M133.062 12.1918L131.562 8.69175C171.562 0.691862 193.062 1.19189 232.062 12.6918L228.562 17.1918C208.562 9.1918 190.562 8.1918 174.562 7.69187C172.062 7.19187 168.062 7.19183 165.562 7.69175C155.562 7.69187 143.562 9.19187 133.062 12.1918Z" fill="#EFC7D3" stroke="black" stroke-width="0.5"/>
<path d="M131.562 8.69194L131.062 7.19194C167.062 -3.80811 199.562 0.191769 235.062 9.19194L232.062 12.6919C192.062 0.191895 166.062 1.69189 131.562 8.69194Z" fill="#EFC7D3" stroke="black" stroke-width="0.5"/>
<path d="M131.562 8.692C183.062 -2.80802 211.562 7.19202 232.062 12.692" stroke="black" stroke-width="0.5"/>
<path d="M171.063 29.6919L174.563 7.69189C208.063 8.69189 219.563 14.1919 224.063 15.6919L226.546 27.6919C199.556 27.6925 182.061 29.192 171.063 29.6919Z" fill="#EFC7D3"/>
<path d="M227.063 30.1919L224.063 15.6919C219.563 14.1919 208.063 8.69189 174.563 7.69189L171.063 29.6919C182.063 29.1919 199.563 27.6919 226.563 27.6919" stroke="black" stroke-width="0.5"/>
<path d="M165.563 7.69189C132.563 8.69189 112.563 17.6919 93.5635 35.1919L96.0635 33.1919L160.063 30.1919L165.563 7.69189Z" fill="#EFC7D3" stroke="black" stroke-width="0.5"/>
<path d="M240.062 22.1919C236.395 19.5252 230.562 17.1919 224.062 15.6919L226.562 27.6919H233.062C236.062 26.1919 239.062 23.9606 240.062 22.1919Z" fill="#EFC7D3" stroke="black" stroke-width="0.5"/>
<path d="M97.0635 78.1919H164.063L198.563 76.6919H213.063L213.563 82.1919H199.563H98.5635H87.0635V78.1919H97.0635Z" fill="#EFC7D3"/>
<path d="M97.0635 78.1919H164.063L198.563 76.6919M97.0635 78.1919C97.0635 79.6919 97.5635 80.6919 98.5635 82.1919M97.0635 78.1919H87.0635V82.1919H98.5635M198.563 76.6919L199.563 82.1919M198.563 76.6919H213.063L213.563 82.1919H199.563M199.563 82.1919H98.5635" stroke="black" stroke-width="0.5"/>
<path d="M97.0626 78.1919C92.5635 73.6919 89.5635 51.6919 93.5626 35.1919L165.563 31.1919C161.563 36.1919 160.563 70.1919 164.063 78.1919H97.0626Z" fill="#EFC7D3" stroke="black" stroke-width="0.5"/>
<path d="M229.063 30.1919L165.563 31.1919C161.564 36.1919 160.564 70.1919 164.063 78.1919L198.563 76.6919C203.063 75.1919 209.563 69.6919 229.063 30.1919Z" fill="#EFC7D3" stroke="black" stroke-width="0.5"/>
<path d="M171.063 29.692C166.563 30.192 163.063 30.192 160.063 30.192L165.563 7.69197C168.563 7.19189 171.563 7.19189 174.563 7.69197L171.063 29.692Z" fill="#EFC7D3" stroke="black" stroke-width="0.5"/>
<path d="M99.5635 31.6922C104.063 37.1922 111.063 33.6922 115.063 32.1922C116.063 16.692 103.063 24.692 99.5635 31.6922Z" fill="#EFC7D3" stroke="black" stroke-width="0.5"/>
<path d="M235.062 9.19189L232.062 12.6919C249.062 18.1919 259.562 21.1919 272.062 27.6919H273.562L281.562 26.1919C266.562 19.6919 259.062 17.1919 235.062 9.19189Z" fill="#E56E90" stroke="black" stroke-width="0.5"/>
<path d="M272.062 27.6919C261.562 22.1919 242.562 15.6919 232.062 12.6919L230.062 15.1919L245.062 22.6919C243.562 25.1919 239.562 27.1919 233.562 29.8919C245.562 29.1919 262.562 28.1919 272.062 27.6919Z" fill="#E56E90" stroke="black" stroke-width="0.5"/>
<path d="M277.563 33.9919L283.562 31.6919L273.062 27.6919L229.062 30.1919C221.562 45.1919 206.562 75.6919 198.562 76.6919H213.062C211.562 65.6919 221.062 42.1919 246.063 51.1919C256.563 45.6919 266.563 40.1919 277.563 33.9919Z" fill="#E56E90" stroke="black" stroke-width="0.5"/>
<path d="M278.562 33.6919C266.562 40.1919 256.562 45.6919 246.062 51.1919C250.562 54.1919 261.062 60.1919 260.062 79.1919L285.062 78.6919V77.1919C293.562 76.1919 302.062 79.6919 300.562 65.6919L302.562 55.6919C302.562 54.1919 300.062 50.1919 297.562 49.6919C299.062 47.1919 296.062 38.1919 296.062 38.1919V36.6919L292.062 33.6919L287.062 32.1919L283.562 31.6919L278.562 33.6919Z" fill="#E56E90" stroke="black" stroke-width="0.5"/>
<path d="M281.562 26.1919L273.062 27.6919L283.562 31.6919C293.062 32.6919 292.06 34.1919 296.056 36.6121L295.562 28.1919L281.562 26.1919Z" fill="#E56E90"/>
<path d="M296.062 36.6919L296.056 36.6121M296.056 36.6121L295.562 28.1919L281.562 26.1919L273.062 27.6919L283.562 31.6919C293.062 32.6919 292.06 34.1919 296.056 36.6121Z" stroke="black" stroke-width="0.5"/>
<path d="M294.563 36.1921C294.063 33.692 283.063 33.4919 277.563 33.9919" stroke="black" stroke-width="0.5"/>
<path d="M300.563 66.1919L261.063 68.1919C260.563 63.1919 258.397 59.0252 256.563 57.1919L302.563 54.6919M301.063 52.1919C290.063 50.6919 279.063 45.8919 267.063 39.8919M229.063 30.1919L273.063 27.6919L281.563 26.1919" stroke="black" stroke-width="0.5"/>
<path d="M291.063 40.1919C291.063 38.1919 290.063 34.1919 286.563 32.1919C288.784 32.1919 292.161 33.2323 294.672 35.6019C295.136 37.1319 294.063 40.6919 291.022 42.1919C291.008 41.6016 291.063 40.9162 291.063 40.1919Z" fill="#E56E90"/>
<path d="M273.063 42.6919C280.059 43.0417 286.076 43.1468 291.457 43.6919M298.063 44.6919C295.96 44.2413 293.767 43.926 291.457 43.6919M296.063 37.1919C295.646 36.6068 295.176 36.0775 294.672 35.6019M291.457 43.6919C291.13 43.3471 291.036 42.8241 291.022 42.1919M291.022 42.1919C291.008 41.6016 291.063 40.9162 291.063 40.1919C291.063 38.1919 290.063 34.1919 286.563 32.1919C288.784 32.1919 292.161 33.2323 294.672 35.6019M291.022 42.1919C294.063 40.6919 295.136 37.1319 294.672 35.6019" stroke="black" stroke-width="0.5"/>
<path d="M291.063 40.1919C286.563 40.1919 284.563 36.1919 283.563 33.6919" stroke="black" stroke-width="0.5"/>
<path d="M133.062 12.2919C119.562 16.2919 107.562 22.1919 93.5615 35.1919C100.562 23.1919 116.062 13.6919 131.562 8.69189L133.062 12.2919Z" fill="#E0426F" stroke="black" stroke-width="0.5"/>
<path d="M131.562 8.69189C111.562 14.3659 93.5615 31.6919 85.5615 29.6919C98.5615 20.1919 114.562 11.6919 131.062 7.19189L131.562 8.69189Z" fill="#E0426F" stroke="black" stroke-width="0.5"/>
<path d="M10.5622 47.6918H4.56219C2.06152 51.6918 2.06152 61.6918 2.56219 65.1918C1.06152 66.1918 1.06212 70.6918 2.06219 72.1918L6.06219 72.6918V74.1918L2.06219 76.1918V78.1918C6.06219 79.1918 14.5622 81.1918 22.5622 80.6918V79.1918H40.0622C39.3955 70.6918 41.0622 60.1918 50.0622 53.1918C47.5622 49.1918 40.5622 44.6918 37.5622 44.1918C27.5622 43.1918 12.5622 45.6918 10.5622 47.6918Z" fill="#E0426F" stroke="black" stroke-width="0.5"/>
<path d="M93.5635 35.1919C75.7301 36.0252 44.0635 40.8919 33.5635 43.8919L37.5635 44.1919C42.5635 45.6919 48.0635 50.0252 50.0635 53.1919C63.0625 43.6919 88.5625 50.6919 87.0625 78.1919H97.0625C90.0625 67.1919 91.0625 45.1919 93.5635 35.1919Z" fill="#E0426F" stroke="black" stroke-width="0.5"/>
<path d="M10.5615 47.6919H4.56152C37.0617 28.1918 59.0618 34.1919 85.0615 29.6919L94.0618 35.1919C77.0618 36.1919 48.0615 39.6919 34.0615 43.8919C26.0615 43.6919 12.0615 45.6919 10.5615 47.6919Z" fill="#E0426F" stroke="black" stroke-width="0.5"/>
<path d="M37.563 44.192C30.063 43.1919 13.063 45.1919 10.563 47.692C9.76298 50.0919 12.8963 53.0252 14.563 54.1919C24.063 55.6919 37.563 49.6919 37.563 44.192Z" fill="#E0426F" stroke="black" stroke-width="0.5"/>
<path d="M4.56222 47.6919C11.5622 48.6919 5.56222 59.1919 2.56222 64.1919C2.06215 57.1919 2.56201 51.6919 4.56222 47.6919Z" fill="#E0426F" stroke="black" stroke-width="0.5"/>
<path d="M22.5615 83.6919V79.1919H40.0615L40.5615 83.6919H22.5615Z" fill="#E0426F" stroke="black" stroke-width="0.5"/>
<path d="M3.06348 65.1919C4.56348 67.6919 6.56348 70.8586 6.06348 72.6919M22.5635 79.1919C12.0635 79.6919 7.56348 75.6919 8.56348 72.1919C9.06348 71.6919 10.5635 70.1919 11.5635 70.1919" stroke="black" stroke-width="0.5"/>
<path d="M32.5635 74.192C30.0635 70.192 24.5635 65.1921 21.5635 63.6921C19.8134 63.1921 17.1883 63.3171 14.4383 63.6921C12.8133 65.0254 11.5635 68.192 12.0635 71.192C12.0635 72.3587 13.3709 74.692 16.0635 74.692C20.5635 74.692 27.5635 75.192 32.5635 74.192Z" fill="#E0426F"/>
<path d="M6.56348 65.1921C8.81342 64.6921 11.6883 64.0671 14.4383 63.6921M14.4383 63.6921C17.1883 63.3171 19.8134 63.1921 21.5635 63.6921C24.5635 65.1921 30.0635 70.192 32.5635 74.192C27.5635 75.192 20.5635 74.692 16.0635 74.692C13.3709 74.692 12.0635 72.3587 12.0635 71.192C11.5635 68.192 12.8133 65.0254 14.4383 63.6921Z" stroke="black" stroke-width="0.5"/>
<path d="M12.0635 70.6921C20.0635 69.1921 23.5635 71.8206 26.5635 73.3206M13.5635 73.6921L31.0635 73.1921" stroke="black" stroke-width="0.5"/>
<path d="M22.5615 82.1919H32.0615C34.0615 82.1919 35.5615 80.1919 35.0615 79.1919M38.5615 79.1919V83.6919" stroke="black" stroke-width="0.5"/>
<path d="M22.5634 80.6921C18.0634 80.6921 13.5634 81.1921 2.06342 78.1921V76.1921L6.06342 74.1921V72.6921L2.06342 72.1921C1.5625 70.6919 0.562696 67.6919 2.56269 65.1919C2.06293 57.1919 2.56293 50.6919 4.56342 47.6916C37.0634 28.192 59.0634 34.1921 85.0634 29.6921C163.063 -25.308 245.063 11.6919 282.063 26.1921L295.563 28.1919L296.063 35.1919V38.1919C297.562 43.1919 298.897 47.6919 297.563 49.6919C300.063 50.6919 302.563 53.8586 302.563 55.6919L300.563 65.6919C301.015 76.5398 298.607 76.7641 289.276 77.0765C288.285 77.1097 286.216 77.1439 285.063 77.1919V78.6919L260.063 79.1229M22.5634 80.6921V83.6921H40.5618L40.0634 79.1921M22.5634 80.6921V79.1921H40.0634M40.0634 79.1921C37.0634 37.6921 90.5634 40.6921 87.0634 79.6921V82.1919H213.563C207.563 38.6919 262.063 38.6919 260.063 79.1229M259.562 79.1229H260.063" stroke="black"/>
</svg>
