<svg width="303" height="96" viewBox="0 0 303 96" fill="none" xmlns="http://www.w3.org/2000/svg">
<circle cx="62.458" cy="74.0303" r="20.5" fill="#E0426F" stroke="black"/>
<circle cx="235.458" cy="74.0303" r="20.5" fill="#E0426F" stroke="black"/>
<path d="M132.456 12.5301L130.956 9.03013C170.956 1.03024 192.456 1.53027 231.456 13.0302L227.956 17.5302C207.956 9.53018 189.956 8.53018 173.956 8.03025C171.456 7.53025 167.456 7.53021 164.956 8.03013C154.956 8.03025 142.956 9.53025 132.456 12.5301Z" fill="#EDADBF" stroke="black" stroke-width="0.5"/>
<path d="M130.956 9.03032L130.456 7.53032C166.456 -3.46973 198.956 0.530148 234.456 9.53032L231.456 13.0303C191.456 0.530273 165.456 2.03027 130.956 9.03032Z" fill="#EDADBF" stroke="black" stroke-width="0.5"/>
<path d="M130.956 9.03038C182.456 -2.46964 210.956 7.5304 231.456 13.0304" stroke="black" stroke-width="0.5"/>
<path d="M170.458 30.0303L173.958 8.03027C207.458 9.03027 218.958 14.5303 223.458 16.0303L225.941 28.0303C198.951 28.0309 181.456 29.5304 170.458 30.0303Z" fill="#EDADBF"/>
<path d="M226.458 30.5303L223.458 16.0303C218.958 14.5303 207.458 9.03027 173.958 8.03027L170.458 30.0303C181.458 29.5303 198.958 28.0303 225.958 28.0303" stroke="black" stroke-width="0.5"/>
<path d="M164.958 8.03027C131.958 9.03027 111.958 18.0303 92.958 35.5303L95.458 33.5303L159.458 30.5303L164.958 8.03027Z" fill="#EDADBF" stroke="black" stroke-width="0.5"/>
<path d="M239.456 22.5303C235.789 19.8636 229.956 17.5303 223.456 16.0303L225.956 28.0303H232.456C235.456 26.5303 238.456 24.299 239.456 22.5303Z" fill="#EDADBF" stroke="black" stroke-width="0.5"/>
<path d="M96.458 78.5303H163.458L197.958 77.0303H212.458L212.958 82.5303H198.958H97.958H86.458V78.5303H96.458Z" fill="#EDADBF"/>
<path d="M96.458 78.5303H163.458L197.958 77.0303M96.458 78.5303C96.458 80.0303 96.958 81.0303 97.958 82.5303M96.458 78.5303H86.458V82.5303H97.958M197.958 77.0303L198.958 82.5303M197.958 77.0303H212.458L212.958 82.5303H198.958M198.958 82.5303H97.958" stroke="black" stroke-width="0.5"/>
<path d="M96.4571 78.5303C91.958 74.0303 88.9581 52.0303 92.9571 35.5303L164.958 31.5303C160.958 36.5303 159.958 70.5303 163.458 78.5303H96.4571Z" fill="#EDADBF" stroke="black" stroke-width="0.5"/>
<path d="M228.458 30.5303L164.958 31.5303C160.958 36.5303 159.958 70.5303 163.458 78.5303L197.958 77.0303C202.458 75.5303 208.958 70.0303 228.458 30.5303Z" fill="#EDADBF" stroke="black" stroke-width="0.5"/>
<path d="M170.458 30.0303C165.958 30.5303 162.458 30.5303 159.458 30.5303L164.958 8.03035C167.958 7.53027 170.958 7.53027 173.958 8.03035L170.458 30.0303Z" fill="#EDADBF" stroke="black" stroke-width="0.5"/>
<path d="M98.958 32.0305C103.458 37.5305 110.458 34.0305 114.458 32.5305C115.458 17.0304 102.458 25.0304 98.958 32.0305Z" fill="#EDADBF" stroke="black" stroke-width="0.5"/>
<path d="M234.456 9.53027L231.456 13.0303C248.456 18.5303 258.956 21.5303 271.456 28.0303H272.956L280.956 26.5303C265.956 20.0303 258.456 17.5303 234.456 9.53027Z" fill="#E56E90" stroke="black" stroke-width="0.5"/>
<path d="M271.456 28.0303C260.956 22.5303 241.956 16.0303 231.456 13.0303L229.456 15.5303L244.456 23.0303C242.956 25.5303 238.956 27.5303 232.956 30.2303C244.956 29.5303 261.956 28.5303 271.456 28.0303Z" fill="#E56E90" stroke="black" stroke-width="0.5"/>
<path d="M276.958 34.3303L282.956 32.0303L272.457 28.0303L228.457 30.5303C220.957 45.5303 205.957 76.0303 197.957 77.0303H212.457C210.957 66.0303 220.457 42.5303 245.458 51.5303C255.958 46.0303 265.958 40.5303 276.958 34.3303Z" fill="#E56E90" stroke="black" stroke-width="0.5"/>
<path d="M277.956 34.0303C265.956 40.5303 255.956 46.0303 245.456 51.5303C249.956 54.5303 260.456 60.5303 259.456 79.5303L284.456 79.0303V77.5303C292.956 76.5303 301.456 80.0303 299.956 66.0303L301.956 56.0303C301.956 54.5303 299.456 50.5303 296.956 50.0303C298.456 47.5303 295.456 38.5303 295.456 38.5303V37.0303L291.456 34.0303L286.456 32.5303L282.956 32.0303L277.956 34.0303Z" fill="#E56E90" stroke="black" stroke-width="0.5"/>
<path d="M280.956 26.5303L272.456 28.0303L282.956 32.0303C292.456 33.0303 291.455 34.5303 295.45 36.9505L294.956 28.5303L280.956 26.5303Z" fill="#E56E90"/>
<path d="M295.456 37.0303L295.45 36.9505M295.45 36.9505L294.956 28.5303L280.956 26.5303L272.456 28.0303L282.956 32.0303C292.456 33.0303 291.455 34.5303 295.45 36.9505Z" stroke="black" stroke-width="0.5"/>
<path d="M293.958 36.5305C293.458 34.0304 282.458 33.8303 276.958 34.3303" stroke="black" stroke-width="0.5"/>
<path d="M299.958 66.5303L260.458 68.5303C259.958 63.5303 257.791 59.3636 255.958 57.5303L301.958 55.0303M300.458 52.5303C289.458 51.0303 278.458 46.2303 266.458 40.2303M228.458 30.5303L272.458 28.0303L280.958 26.5303" stroke="black" stroke-width="0.5"/>
<path d="M290.458 40.5303C290.458 38.5303 289.458 34.5303 285.958 32.5303C288.179 32.5303 291.556 33.5707 294.067 35.9403C294.531 37.4703 293.458 41.0303 290.416 42.5303C290.403 41.94 290.458 41.2546 290.458 40.5303Z" fill="#E56E90"/>
<path d="M272.458 43.0303C279.454 43.3801 285.471 43.4851 290.851 44.0303M297.458 45.0303C295.355 44.5796 293.162 44.2644 290.851 44.0303M295.458 37.5303C295.04 36.9451 294.571 36.4159 294.067 35.9403M290.851 44.0303C290.525 43.6855 290.431 43.1625 290.416 42.5303M290.416 42.5303C290.403 41.94 290.458 41.2546 290.458 40.5303C290.458 38.5303 289.458 34.5303 285.958 32.5303C288.179 32.5303 291.556 33.5707 294.067 35.9403M290.416 42.5303C293.458 41.0303 294.531 37.4703 294.067 35.9403" stroke="black" stroke-width="0.5"/>
<path d="M290.458 40.5303C285.958 40.5303 283.958 36.5303 282.958 34.0303" stroke="black" stroke-width="0.5"/>
<path d="M132.456 12.6302C118.956 16.6302 106.956 22.5303 92.9561 35.5303C99.9561 23.5303 115.456 14.0303 130.956 9.03027L132.456 12.6302Z" fill="#EFC7D3" stroke="black" stroke-width="0.5"/>
<path d="M130.956 9.03027C110.956 14.7043 92.9561 32.0303 84.9561 30.0303C97.9561 20.5303 113.956 12.0303 130.456 7.53027L130.956 9.03027Z" fill="#EFC7D3" stroke="black" stroke-width="0.5"/>
<path d="M9.95672 48.0302H3.95672C1.45605 52.0302 1.45605 62.0302 1.95672 65.5302C0.456055 66.5302 0.456652 71.0302 1.45672 72.5302L5.45672 73.0302V74.5302L1.45672 76.5302V78.5302C5.45672 79.5302 13.9567 81.5302 21.9567 81.0302V79.5302H39.4567C38.7901 71.0302 40.4567 60.5302 49.4567 53.5302C46.9567 49.5302 39.9567 45.0302 36.9567 44.5302C26.9567 43.5302 11.9567 46.0302 9.95672 48.0302Z" fill="#EFC7D3" stroke="black" stroke-width="0.5"/>
<path d="M92.958 35.5303C75.1247 36.3636 43.458 41.2303 32.958 44.2303L36.958 44.5303C41.958 46.0303 47.458 50.3636 49.458 53.5303C62.457 44.0303 87.957 51.0303 86.457 78.5303H96.457C89.457 67.5303 90.457 45.5303 92.958 35.5303Z" fill="#EFC7D3" stroke="black" stroke-width="0.5"/>
<path d="M9.95606 48.0303H3.95605C36.4562 28.5302 58.4563 34.5303 84.4561 30.0303L93.4563 35.5303C76.4563 36.5303 47.4561 40.0303 33.4561 44.2303C25.4561 44.0303 11.4561 46.0303 9.95606 48.0303Z" fill="#EFC7D3" stroke="black" stroke-width="0.5"/>
<path d="M36.9575 44.5303C29.4575 43.5303 12.4575 45.5303 9.95751 48.0303C9.15751 50.4303 12.2908 53.3636 13.9575 54.5303C23.4575 56.0303 36.9575 50.0303 36.9575 44.5303Z" fill="#EFC7D3" stroke="black" stroke-width="0.5"/>
<path d="M3.95675 48.0303C10.9568 49.0303 4.95675 59.5303 1.95675 64.5303C1.45668 57.5303 1.95654 52.0303 3.95675 48.0303Z" fill="#EFC7D3" stroke="black" stroke-width="0.5"/>
<path d="M21.9561 84.0303V79.5303H39.4561L39.9561 84.0303H21.9561Z" fill="#EFC7D3" stroke="black" stroke-width="0.5"/>
<path d="M2.45801 65.5303C3.95801 68.0303 5.95801 71.1969 5.45801 73.0303M21.958 79.5303C11.458 80.0303 6.95801 76.0303 7.95801 72.5303C8.45801 72.0303 9.95801 70.5303 10.958 70.5303" stroke="black" stroke-width="0.5"/>
<path d="M31.958 74.5304C29.458 70.5304 23.958 65.5305 20.958 64.0305C19.208 63.5305 16.5829 63.6555 13.8328 64.0305C12.2079 65.3638 10.958 68.5304 11.458 71.5304C11.458 72.6971 12.7654 75.0304 15.458 75.0304C19.958 75.0304 26.958 75.5304 31.958 74.5304Z" fill="#EFC7D3"/>
<path d="M5.95801 65.5305C8.20795 65.0304 11.0829 64.4055 13.8328 64.0305M13.8328 64.0305C16.5829 63.6555 19.208 63.5305 20.958 64.0305C23.958 65.5305 29.458 70.5304 31.958 74.5304C26.958 75.5304 19.958 75.0304 15.458 75.0304C12.7654 75.0304 11.458 72.6971 11.458 71.5304C10.958 68.5304 12.2079 65.3638 13.8328 64.0305Z" stroke="black" stroke-width="0.5"/>
<path d="M11.458 71.0305C19.458 69.5305 22.958 72.159 25.958 73.659M12.958 74.0305L30.458 73.5305" stroke="black" stroke-width="0.5"/>
<path d="M21.9561 82.5303H31.4561C33.4561 82.5303 34.9561 80.5303 34.4561 79.5303M37.9561 79.5303V84.0303" stroke="black" stroke-width="0.5"/>
<path d="M21.958 81.0305C17.458 81.0305 12.958 81.5305 1.45795 78.5305V76.5305L5.45795 74.5305V73.0305L1.45795 72.5305C0.957031 71.0303 -0.0427729 68.0303 1.95722 65.5303C1.45747 57.5303 1.95747 51.0303 3.95795 48.03C36.458 28.5304 58.4579 34.5305 84.4579 30.0305C162.458 -24.9697 244.458 12.0303 281.458 26.5305L294.958 28.5303L295.458 35.5303V38.5303C296.956 43.5303 298.291 48.0303 296.958 50.0303C299.458 51.0303 301.958 54.1969 301.958 56.0303L299.958 66.0303C300.41 76.8782 298.002 77.1025 288.67 77.4149C287.679 77.4481 285.61 77.4823 284.458 77.5303V79.0303L259.458 79.4613M21.958 81.0305V84.0305H39.9563L39.458 79.5305M21.958 81.0305V79.5305H39.458M39.458 79.5305C36.458 38.0305 89.9579 41.0305 86.4579 80.0305V82.5303H212.958C206.958 39.0303 261.458 39.0303 259.458 79.4613M258.956 79.4613H259.458" stroke="black"/>
</svg>
