<svg width="304" height="96" viewBox="0 0 304 96" fill="none" xmlns="http://www.w3.org/2000/svg">
<circle cx="63.0742" cy="74.3838" r="20.5" fill="#EDADBF" stroke="black"/>
<circle cx="236.074" cy="74.3838" r="20.5" fill="#EDADBF" stroke="black"/>
<path d="M133.072 12.8836L131.572 9.38364C171.572 1.38376 193.072 1.88379 232.072 13.3837L228.572 17.8837C208.572 9.8837 190.572 8.8837 174.572 8.38377C172.072 7.88377 168.072 7.88373 165.572 8.38364C155.572 8.38377 143.572 9.88377 133.072 12.8836Z" fill="#E56E90" stroke="black" stroke-width="0.5"/>
<path d="M131.572 9.38383L131.072 7.88383C167.072 -3.11621 199.572 0.883663 235.072 9.88383L232.072 13.3838C192.072 0.883789 166.072 2.38379 131.572 9.38383Z" fill="#E56E90" stroke="black" stroke-width="0.5"/>
<path d="M131.572 9.3839C183.072 -2.11613 211.572 7.88391 232.072 13.3839" stroke="black" stroke-width="0.5"/>
<path d="M171.074 30.3838L174.574 8.38379C208.074 9.38379 219.574 14.8838 224.074 16.3838L226.557 28.3838C199.567 28.3844 182.072 29.8839 171.074 30.3838Z" fill="#E56E90"/>
<path d="M227.074 30.8838L224.074 16.3838C219.574 14.8838 208.074 9.38379 174.574 8.38379L171.074 30.3838C182.074 29.8838 199.574 28.3838 226.574 28.3838" stroke="black" stroke-width="0.5"/>
<path d="M165.574 8.38379C132.574 9.38379 112.574 18.3838 93.5742 35.8838L96.0742 33.8838L160.074 30.8838L165.574 8.38379Z" fill="#E56E90" stroke="black" stroke-width="0.5"/>
<path d="M240.072 22.8838C236.406 20.2171 230.572 17.8838 224.072 16.3838L226.572 28.3838H233.072C236.072 26.8838 239.072 24.6525 240.072 22.8838Z" fill="#E56E90" stroke="black" stroke-width="0.5"/>
<path d="M97.0742 78.8838H164.074L198.574 77.3838H213.074L213.574 82.8838H199.574H98.5742H87.0742V78.8838H97.0742Z" fill="#E56E90"/>
<path d="M97.0742 78.8838H164.074L198.574 77.3838M97.0742 78.8838C97.0742 80.3838 97.5742 81.3838 98.5742 82.8838M97.0742 78.8838H87.0742V82.8838H98.5742M198.574 77.3838L199.574 82.8838M198.574 77.3838H213.074L213.574 82.8838H199.574M199.574 82.8838H98.5742" stroke="black" stroke-width="0.5"/>
<path d="M97.0733 78.8838C92.5742 74.3838 89.5743 52.3838 93.5733 35.8838L165.574 31.8838C161.574 36.8838 160.574 70.8838 164.074 78.8838H97.0733Z" fill="#E56E90" stroke="black" stroke-width="0.5"/>
<path d="M229.074 30.8838L165.574 31.8838C161.574 36.8838 160.574 70.8838 164.074 78.8838L198.574 77.3838C203.074 75.8838 209.574 70.3838 229.074 30.8838Z" fill="#E56E90" stroke="black" stroke-width="0.5"/>
<path d="M171.074 30.3839C166.574 30.8839 163.074 30.8839 160.074 30.8839L165.574 8.38386C168.574 7.88379 171.574 7.88379 174.574 8.38386L171.074 30.3839Z" fill="#E56E90" stroke="black" stroke-width="0.5"/>
<path d="M99.5742 32.384C104.074 37.884 111.074 34.384 115.074 32.884C116.074 17.3839 103.074 25.3839 99.5742 32.384Z" fill="#E56E90" stroke="black" stroke-width="0.5"/>
<path d="M235.072 9.88379L232.072 13.3838C249.072 18.8838 259.572 21.8838 272.072 28.3838H273.572L281.572 26.8838C266.572 20.3838 259.072 17.8838 235.072 9.88379Z" fill="#EDADBF" stroke="black" stroke-width="0.5"/>
<path d="M272.072 28.3838C261.572 22.8838 242.572 16.3838 232.072 13.3838L230.072 15.8838L245.072 23.3838C243.572 25.8838 239.572 27.8838 233.572 30.5838C245.572 29.8838 262.572 28.8838 272.072 28.3838Z" fill="#EDADBF" stroke="black" stroke-width="0.5"/>
<path d="M277.574 34.6838L283.573 32.3838L273.073 28.3838L229.073 30.8838C221.573 45.8838 206.573 76.3838 198.573 77.3838H213.073C211.573 66.3838 221.073 42.8838 246.074 51.8838C256.574 46.3838 266.574 40.8838 277.574 34.6838Z" fill="#EDADBF" stroke="black" stroke-width="0.5"/>
<path d="M278.572 34.3838C266.572 40.8838 256.572 46.3838 246.072 51.8838C250.572 54.8838 261.072 60.8838 260.072 79.8838L285.072 79.3838V77.8838C293.572 76.8838 302.072 80.3838 300.572 66.3838L302.572 56.3838C302.572 54.8838 300.072 50.8838 297.572 50.3838C299.072 47.8838 296.072 38.8838 296.072 38.8838V37.3838L292.072 34.3838L287.072 32.8838L283.572 32.3838L278.572 34.3838Z" fill="#EDADBF" stroke="black" stroke-width="0.5"/>
<path d="M281.572 26.8838L273.072 28.3838L283.572 32.3838C293.072 33.3838 292.071 34.8838 296.066 37.304L295.572 28.8838L281.572 26.8838Z" fill="#EDADBF"/>
<path d="M296.072 37.3838L296.066 37.304M296.066 37.304L295.572 28.8838L281.572 26.8838L273.072 28.3838L283.572 32.3838C293.072 33.3838 292.071 34.8838 296.066 37.304Z" stroke="black" stroke-width="0.5"/>
<path d="M294.574 36.884C294.074 34.3839 283.074 34.1838 277.574 34.6838" stroke="black" stroke-width="0.5"/>
<path d="M300.574 66.8838L261.074 68.8838C260.574 63.8838 258.408 59.7171 256.574 57.8838L302.574 55.3838M301.074 52.8838C290.074 51.3838 279.074 46.5838 267.074 40.5838M229.074 30.8838L273.074 28.3838L281.574 26.8838" stroke="black" stroke-width="0.5"/>
<path d="M291.074 40.8838C291.074 38.8838 290.074 34.8838 286.574 32.8838C288.795 32.8838 292.172 33.9242 294.683 36.2938C295.147 37.8238 294.074 41.3838 291.032 42.8838C291.019 42.2935 291.074 41.6081 291.074 40.8838Z" fill="#EDADBF"/>
<path d="M273.074 43.3838C280.07 43.7336 286.087 43.8387 291.467 44.3838M298.074 45.3838C295.971 44.9331 293.778 44.6179 291.467 44.3838M296.074 37.8838C295.656 37.2987 295.187 36.7694 294.683 36.2938M291.467 44.3838C291.141 44.039 291.047 43.516 291.032 42.8838M291.032 42.8838C291.019 42.2935 291.074 41.6081 291.074 40.8838C291.074 38.8838 290.074 34.8838 286.574 32.8838C288.795 32.8838 292.172 33.9242 294.683 36.2938M291.032 42.8838C294.074 41.3838 295.147 37.8238 294.683 36.2938" stroke="black" stroke-width="0.5"/>
<path d="M291.074 40.8838C286.574 40.8838 284.574 36.8838 283.574 34.3838" stroke="black" stroke-width="0.5"/>
<path d="M133.072 12.9838C119.572 16.9838 107.572 22.8838 93.5723 35.8838C100.572 23.8838 116.072 14.3838 131.572 9.38379L133.072 12.9838Z" fill="#E0426F" stroke="black" stroke-width="0.5"/>
<path d="M131.572 9.38379C111.572 15.0578 93.5723 32.3838 85.5723 30.3838C98.5723 20.8838 114.572 12.3838 131.072 7.88379L131.572 9.38379Z" fill="#E0426F" stroke="black" stroke-width="0.5"/>
<path d="M10.5729 48.3837H4.57293C2.07227 52.3837 2.07227 62.3837 2.57293 65.8837C1.07227 66.8837 1.07286 71.3837 2.07293 72.8837L6.07293 73.3837V74.8837L2.07293 76.8837V78.8837C6.07293 79.8837 14.5729 81.8837 22.5729 81.3837V79.8837H40.0729C39.4063 71.3837 41.0729 60.8837 50.0729 53.8837C47.5729 49.8837 40.5729 45.3837 37.5729 44.8837C27.5729 43.8837 12.5729 46.3837 10.5729 48.3837Z" fill="#E0426F" stroke="black" stroke-width="0.5"/>
<path d="M93.5742 35.8838C75.7409 36.7171 44.0742 41.5838 33.5742 44.5838L37.5742 44.8838C42.5742 46.3838 48.0742 50.7171 50.0742 53.8838C63.0732 44.3838 88.5732 51.3838 87.0732 78.8838H97.0732C90.0732 67.8838 91.0732 45.8838 93.5742 35.8838Z" fill="#E0426F" stroke="black" stroke-width="0.5"/>
<path d="M10.5723 48.3838H4.57227C37.0724 28.8837 59.0725 34.8838 85.0723 30.3838L94.0725 35.8838C77.0725 36.8838 48.0723 40.3838 34.0723 44.5838C26.0723 44.3838 12.0723 46.3838 10.5723 48.3838Z" fill="#E0426F" stroke="black" stroke-width="0.5"/>
<path d="M37.5737 44.8839C30.0737 43.8838 13.0737 45.8838 10.5737 48.3839C9.77372 50.7838 12.9071 53.7171 14.5737 54.8838C24.0737 56.3838 37.5737 50.3838 37.5737 44.8839Z" fill="#E0426F" stroke="black" stroke-width="0.5"/>
<path d="M4.57296 48.3838C11.573 49.3838 5.57296 59.8838 2.57296 64.8838C2.07289 57.8838 2.57275 52.3838 4.57296 48.3838Z" fill="#E0426F" stroke="black" stroke-width="0.5"/>
<path d="M22.5723 84.3838V79.8838H40.0723L40.5723 84.3838H22.5723Z" fill="#E0426F" stroke="black" stroke-width="0.5"/>
<path d="M3.07422 65.8838C4.57422 68.3838 6.57422 71.5505 6.07422 73.3838M22.5742 79.8838C12.0742 80.3838 7.57422 76.3838 8.57422 72.8838C9.07422 72.3838 10.5742 70.8838 11.5742 70.8838" stroke="black" stroke-width="0.5"/>
<path d="M32.5742 74.8839C30.0742 70.8839 24.5742 65.884 21.5742 64.384C19.8242 63.884 17.1991 64.009 14.449 64.384C12.8241 65.7173 11.5742 68.8839 12.0742 71.8839C12.0742 73.0506 13.3816 75.3839 16.0742 75.3839C20.5742 75.3839 27.5742 75.8839 32.5742 74.8839Z" fill="#E0426F"/>
<path d="M6.57422 65.884C8.82416 65.384 11.6991 64.759 14.449 64.384M14.449 64.384C17.1991 64.009 19.8242 63.884 21.5742 64.384C24.5742 65.884 30.0742 70.8839 32.5742 74.8839C27.5742 75.8839 20.5742 75.3839 16.0742 75.3839C13.3816 75.3839 12.0742 73.0506 12.0742 71.8839C11.5742 68.8839 12.8241 65.7173 14.449 64.384Z" stroke="black" stroke-width="0.5"/>
<path d="M12.0742 71.384C20.0742 69.884 23.5742 72.5125 26.5742 74.0125M13.5742 74.384L31.0742 73.884" stroke="black" stroke-width="0.5"/>
<path d="M22.5723 82.8838H32.0723C34.0723 82.8838 35.5723 80.8838 35.0723 79.8838M38.5723 79.8838V84.3838" stroke="black" stroke-width="0.5"/>
<path d="M22.5742 81.384C18.0742 81.384 13.5742 81.884 2.07416 78.884V76.884L6.07417 74.884V73.384L2.07416 72.884C1.57324 71.3838 0.573438 68.3838 2.57343 65.8838C2.07368 57.8838 2.57368 51.3838 4.57417 48.3835C37.0742 28.8839 59.0742 34.884 85.0742 30.384C163.074 -24.6161 245.074 12.3838 282.074 26.884L295.574 28.8838L296.074 35.8838V38.8838C297.573 43.8838 298.908 48.3838 297.574 50.3838C300.074 51.3838 302.574 54.5505 302.574 56.3838L300.574 66.3838C301.026 77.2317 298.618 77.456 289.286 77.7684C288.295 77.8016 286.226 77.8358 285.074 77.8838V79.3838L260.074 79.8148M22.5742 81.384V84.384H40.5725L40.0742 79.884M22.5742 81.384V79.884H40.0742M40.0742 79.884C37.0742 38.384 90.5742 41.384 87.0742 80.384V82.8838H213.574C207.574 39.3838 262.074 39.3838 260.074 79.8148M259.573 79.8148H260.074" stroke="black"/>
</svg>
