<svg width="303" height="96" viewBox="0 0 303 96" fill="none" xmlns="http://www.w3.org/2000/svg">
<circle cx="62.6772" cy="74.1995" r="20.5" stroke="black"/>
<circle cx="235.678" cy="74.1995" r="20.5" stroke="black"/>
<path d="M132.676 12.6993L131.176 9.19932C171.176 1.19943 192.676 1.69946 231.676 13.1994L228.176 17.6994C208.176 9.69937 190.176 8.69937 174.176 8.19944C171.676 7.69944 167.676 7.6994 165.176 8.19932C155.176 8.19944 143.176 9.69944 132.676 12.6993Z" fill="#EDADBF" stroke="black" stroke-width="0.5"/>
<path d="M131.176 9.19951L130.676 7.69951C166.676 -3.30054 199.176 0.699337 234.676 9.69951L231.676 13.1995C191.676 0.699463 165.676 2.19946 131.176 9.19951Z" fill="#EDADBF" stroke="black" stroke-width="0.5"/>
<path d="M131.176 9.19933C182.676 -2.3007 211.176 7.69934 231.676 13.1993" stroke="black" stroke-width="0.5"/>
<path d="M170.677 30.1995L174.177 8.19946C207.677 9.19946 219.177 14.6995 223.677 16.1995L226.16 28.1995C199.17 28.2001 181.675 29.6996 170.677 30.1995Z" fill="#EDADBF"/>
<path d="M226.677 30.6995L223.677 16.1995C219.177 14.6995 207.677 9.19946 174.177 8.19946L170.677 30.1995C181.677 29.6995 199.177 28.1995 226.177 28.1995" stroke="black" stroke-width="0.5"/>
<path d="M165.177 8.19946C132.177 9.19946 112.177 18.1995 93.1772 35.6995L95.6772 33.6995L159.677 30.6995L165.177 8.19946Z" fill="#EDADBF" stroke="black" stroke-width="0.5"/>
<path d="M239.676 22.6995C236.009 20.0328 230.176 17.6995 223.676 16.1995L226.176 28.1995H232.676C235.676 26.6995 238.676 24.4682 239.676 22.6995Z" fill="#EDADBF" stroke="black" stroke-width="0.5"/>
<path d="M96.6772 78.6995H163.677L198.177 77.1995H212.677L213.177 82.6995H199.177H98.1772H86.6772V78.6995H96.6772Z" fill="#EDADBF"/>
<path d="M96.6772 78.6995H163.677L198.177 77.1995M96.6772 78.6995C96.6772 80.1995 97.1772 81.1995 98.1772 82.6995M96.6772 78.6995H86.6772V82.6995H98.1772M198.177 77.1995L199.177 82.6995M198.177 77.1995H212.677L213.177 82.6995H199.177M199.177 82.6995H98.1772" stroke="black" stroke-width="0.5"/>
<path d="M96.6764 78.6995C92.1772 74.1995 89.1773 52.1995 93.1764 35.6995L165.177 31.6995C161.177 36.6995 160.177 70.6995 163.677 78.6995H96.6764Z" fill="#EDADBF" stroke="black" stroke-width="0.5"/>
<path d="M228.677 30.6995L165.177 31.6995C161.177 36.6995 160.177 70.6995 163.677 78.6995L198.177 77.1995C202.677 75.6995 209.177 70.1995 228.677 30.6995Z" fill="#EDADBF" stroke="black" stroke-width="0.5"/>
<path d="M170.677 30.1995C166.177 30.6995 162.677 30.6995 159.677 30.6995L165.177 8.19954C168.177 7.69946 171.177 7.69946 174.177 8.19954L170.677 30.1995Z" fill="#EDADBF" stroke="black" stroke-width="0.5"/>
<path d="M99.1772 32.1995C103.677 37.6995 110.677 34.1995 114.677 32.6995C115.677 17.1994 102.677 25.1993 99.1772 32.1995Z" fill="#EDADBF" stroke="black" stroke-width="0.5"/>
<path d="M234.676 9.69946L231.676 13.1995C248.676 18.6995 259.176 21.6995 271.676 28.1995H273.176L281.176 26.6995C266.176 20.1995 258.676 17.6995 234.676 9.69946Z" fill="#EDADBF" stroke="black" stroke-width="0.5"/>
<path d="M271.676 28.1995C261.176 22.6995 242.176 16.1995 231.676 13.1995L229.676 15.6995L244.676 23.1995C243.176 25.6995 239.176 27.6995 233.176 30.3995C245.176 29.6995 262.176 28.6995 271.676 28.1995Z" fill="#EDADBF" stroke="black" stroke-width="0.5"/>
<path d="M277.178 34.4995L283.176 32.1995L272.677 28.1995L228.677 30.6995C221.177 45.6995 206.177 76.1995 198.177 77.1995H212.677C211.177 66.1995 220.677 42.6995 245.678 51.6995C256.178 46.1995 266.178 40.6995 277.178 34.4995Z" fill="#EDADBF" stroke="black" stroke-width="0.5"/>
<path d="M278.176 34.1995C266.176 40.6995 256.176 46.1995 245.676 51.6995C250.176 54.6995 260.676 60.6995 259.676 79.6995L284.676 79.1995V77.6995C293.176 76.6995 301.676 80.1995 300.176 66.1995L302.176 56.1995C302.176 54.6995 299.676 50.6995 297.176 50.1995C298.676 47.6995 295.676 38.6995 295.676 38.6995V37.1995L291.676 34.1995L286.676 32.6995L283.176 32.1995L278.176 34.1995Z" fill="#EDADBF" stroke="black" stroke-width="0.5"/>
<path d="M281.176 26.6995L272.676 28.1995L283.176 32.1995C292.676 33.1995 291.675 34.6995 295.67 37.1196L295.176 28.6995L281.176 26.6995Z" fill="#EDADBF"/>
<path d="M295.676 37.1995L295.67 37.1196M295.67 37.1196L295.176 28.6995L281.176 26.6995L272.676 28.1995L283.176 32.1995C292.676 33.1995 291.675 34.6995 295.67 37.1196Z" stroke="black" stroke-width="0.5"/>
<path d="M294.178 36.6997C293.678 34.1996 282.678 33.9995 277.178 34.4995" stroke="black" stroke-width="0.5"/>
<path d="M300.178 66.6995L260.678 68.6995C260.178 63.6995 258.011 59.5328 256.178 57.6995L302.178 55.1995M300.678 52.6995C289.678 51.1995 278.678 46.3995 266.678 40.3995M228.678 30.6995L272.678 28.1995L281.178 26.6995" stroke="black" stroke-width="0.5"/>
<path d="M290.678 40.6995C290.678 38.6995 289.678 34.6995 286.178 32.6995C288.399 32.6995 291.775 33.7399 294.287 36.1094C294.75 37.6395 293.678 41.1995 290.636 42.6995C290.622 42.1092 290.678 41.4238 290.678 40.6995Z" fill="#EDADBF"/>
<path d="M272.678 43.1995C279.673 43.5492 285.69 43.6543 291.071 44.1995M297.678 45.1995C295.575 44.7488 293.381 44.4336 291.071 44.1995M295.678 37.6995C295.26 37.1143 294.791 36.5851 294.287 36.1094M291.071 44.1995C290.745 43.8547 290.651 43.3317 290.636 42.6995M290.636 42.6995C290.622 42.1092 290.678 41.4238 290.678 40.6995C290.678 38.6995 289.678 34.6995 286.178 32.6995C288.399 32.6995 291.775 33.7399 294.287 36.1094M290.636 42.6995C293.678 41.1995 294.75 37.6395 294.287 36.1094" stroke="black" stroke-width="0.5"/>
<path d="M290.678 40.6995C286.178 40.6995 284.178 36.6995 283.178 34.1995" stroke="black" stroke-width="0.5"/>
<path d="M132.676 12.7994C119.176 16.7994 107.176 22.6995 93.1758 35.6995C100.176 23.6995 115.676 14.1995 131.176 9.19946L132.676 12.7994Z" fill="#EDADBF" stroke="black" stroke-width="0.5"/>
<path d="M131.176 9.19946C111.176 14.8735 93.1758 32.1995 85.1758 30.1995C98.1758 20.6995 114.176 12.1995 130.676 7.69946L131.176 9.19946Z" fill="#EDADBF" stroke="black" stroke-width="0.5"/>
<path d="M10.1764 48.1993H4.17645C1.67578 52.1993 1.67578 62.1993 2.17645 65.6993C0.675781 66.6993 0.676379 71.1993 1.67645 72.6993L5.67645 73.1993V74.6993L1.67645 76.6993V78.6993C5.67645 79.6993 14.1764 81.6993 22.1764 81.1993V79.6993H39.6764C39.0098 71.1993 40.6764 60.6993 49.6764 53.6993C47.1764 49.6993 40.1764 45.1993 37.1764 44.6993C27.1764 43.6993 12.1764 46.1993 10.1764 48.1993Z" fill="#EDADBF" stroke="black" stroke-width="0.5"/>
<path d="M93.1772 35.6995C75.3439 36.5328 43.6772 41.3995 33.1772 44.3995L37.1772 44.6995C42.1772 46.1995 47.6772 50.5328 49.6772 53.6995C62.6763 44.1995 88.1763 51.1995 86.6763 78.6995H96.6763C89.6763 67.6995 90.6763 45.6995 93.1772 35.6995Z" fill="#EDADBF" stroke="black" stroke-width="0.5"/>
<path d="M10.1758 48.1995H4.17578C36.676 28.6994 58.676 34.6995 84.6758 30.1995L93.676 35.6995C76.676 36.6995 47.6758 40.1995 33.6758 44.3995C25.6758 44.1995 11.6758 46.1995 10.1758 48.1995Z" fill="#EDADBF" stroke="black" stroke-width="0.5"/>
<path d="M37.1772 44.6995C29.6772 43.6995 12.6772 45.6995 10.1772 48.1995C9.37724 50.5995 12.5106 53.5328 14.1772 54.6995C23.6772 56.1995 37.1772 50.1995 37.1772 44.6995Z" fill="#EDADBF" stroke="black" stroke-width="0.5"/>
<path d="M4.17648 48.1995C11.1765 49.1995 5.17648 59.6995 2.17648 64.6995C1.67641 57.6995 2.17627 52.1995 4.17648 48.1995Z" fill="#EDADBF" stroke="black" stroke-width="0.5"/>
<path d="M22.1758 84.1995V79.6995H39.6758L40.1758 84.1995H22.1758Z" fill="#EDADBF" stroke="black" stroke-width="0.5"/>
<path d="M2.67773 65.6992C4.17773 68.1992 6.17773 71.3659 5.67773 73.1992M22.1777 79.6992C11.6777 80.1992 7.17773 76.1992 8.17773 72.6992C8.67773 72.1992 10.1777 70.6992 11.1777 70.6992" stroke="black" stroke-width="0.5"/>
<path d="M32.1777 74.6993C29.6777 70.6993 24.1777 65.6994 21.1777 64.1994C19.4277 63.6994 16.8026 63.8244 14.0525 64.1994C12.4276 65.5327 11.1777 68.6993 11.6777 71.6993C11.6777 72.866 12.9852 75.1993 15.6777 75.1993C20.1777 75.1993 27.1777 75.6993 32.1777 74.6993Z" fill="#EDADBF"/>
<path d="M6.17773 65.6994C8.42768 65.1994 11.3026 64.5744 14.0525 64.1994M14.0525 64.1994C16.8026 63.8244 19.4277 63.6994 21.1777 64.1994C24.1777 65.6994 29.6777 70.6993 32.1777 74.6993C27.1777 75.6993 20.1777 75.1993 15.6777 75.1993C12.9852 75.1993 11.6777 72.866 11.6777 71.6993C11.1777 68.6993 12.4276 65.5327 14.0525 64.1994Z" stroke="black" stroke-width="0.5"/>
<path d="M11.6777 71.1994C19.6777 69.6995 23.1777 72.3279 26.1777 73.8279M13.1777 74.1995L30.6777 73.6995" stroke="black" stroke-width="0.5"/>
<path d="M22.1758 82.6992H31.6758C33.6758 82.6992 35.1758 80.6992 34.6758 79.6992M38.1758 79.6992V84.1992" stroke="black" stroke-width="0.5"/>
<path d="M22.1772 81.1997C17.6772 81.1997 13.1772 81.6997 1.67719 78.6997V76.6997L5.67719 74.6997V73.1997L1.67719 72.6997C1.17627 71.1995 0.176465 68.1995 2.17646 65.6995C1.6767 57.6995 2.1767 51.1995 4.17719 48.1992C36.6772 28.6996 58.6772 34.6997 84.6772 30.1997C162.677 -24.8005 244.677 12.1994 281.677 26.6996L295.177 28.6995L295.677 35.6995V38.6995C297.176 43.6995 298.511 48.1995 297.177 50.1995C299.677 51.1995 302.177 54.3661 302.177 56.1995L300.177 66.1995C300.629 77.0474 298.221 77.2717 288.889 77.5841C287.898 77.6173 285.829 77.6515 284.677 77.6995V79.1995L259.677 79.6305M22.1772 81.1997V84.1997H40.1755L39.6772 79.6997M22.1772 81.1997V79.6997H39.6772M39.6772 79.6997C36.6772 38.1997 90.1772 41.1997 86.6772 80.1997V82.6995H213.177C207.177 39.1995 261.677 39.1995 259.677 79.6305M259.176 79.6305H259.677" stroke="black"/>
</svg>
