<svg width="303" height="95" viewBox="0 0 303 95" fill="none" xmlns="http://www.w3.org/2000/svg">
<circle cx="62.2725" cy="73.8459" r="20.5" fill="#E56E90" stroke="black"/>
<circle cx="235.272" cy="73.8459" r="20.5" fill="#E56E90" stroke="black"/>
<path d="M132.271 12.3458L130.771 8.8458C170.771 0.845915 192.271 1.34595 231.271 12.8459L227.771 17.3459C207.771 9.34586 189.771 8.34586 173.771 7.84592C171.271 7.34592 167.271 7.34589 164.771 7.8458C154.771 7.84592 142.771 9.34592 132.271 12.3458Z" stroke="black" stroke-width="0.5"/>
<path d="M130.771 8.84599L130.271 7.34599C166.271 -3.65405 198.771 0.345821 234.271 9.34599L231.271 12.846C191.271 0.345947 165.271 1.84595 130.771 8.84599Z" stroke="black" stroke-width="0.5"/>
<path d="M130.771 8.84593C182.271 -2.65409 210.771 7.34595 231.271 12.8459" stroke="black" stroke-width="0.5"/>
<path d="M226.272 30.3459L223.272 15.8459C218.772 14.3459 207.272 8.84595 173.772 7.84595L170.272 29.8459C181.272 29.3459 198.772 27.8459 225.772 27.8459" stroke="black" stroke-width="0.5"/>
<path d="M164.772 7.84595C131.772 8.84595 111.772 17.8459 92.7725 35.3459L95.2725 33.3459L159.272 30.3459L164.772 7.84595Z" stroke="black" stroke-width="0.5"/>
<path d="M239.271 22.3459C235.604 19.6793 229.771 17.3459 223.271 15.8459L225.771 27.8459H232.271C235.271 26.3459 238.271 24.1147 239.271 22.3459Z" stroke="black" stroke-width="0.5"/>
<path d="M96.2725 78.3459H163.272L197.772 76.8459M96.2725 78.3459C96.2725 79.8459 96.7725 80.8459 97.7725 82.3459M96.2725 78.3459H86.2725V82.3459H97.7725M197.772 76.8459L198.772 82.3459M197.772 76.8459H212.272L212.772 82.3459H198.772M198.772 82.3459H97.7725" stroke="black" stroke-width="0.5"/>
<path d="M96.2716 78.3459C91.7725 73.8459 88.7725 51.8459 92.7716 35.3459L164.772 31.3459C160.772 36.3459 159.772 70.3459 163.272 78.3459H96.2716Z" stroke="black" stroke-width="0.5"/>
<path d="M228.272 30.3459L164.772 31.3459C160.773 36.3459 159.773 70.3459 163.272 78.3459L197.772 76.8459C202.272 75.3459 208.772 69.8459 228.272 30.3459Z" stroke="black" stroke-width="0.5"/>
<path d="M170.272 29.846C165.772 30.346 162.272 30.346 159.272 30.346L164.772 7.84602C167.772 7.34595 170.772 7.34595 173.772 7.84602L170.272 29.846Z" stroke="black" stroke-width="0.5"/>
<path d="M98.7725 31.8461C103.272 37.3461 110.272 33.8461 114.272 32.3461C115.272 16.846 102.272 24.8459 98.7725 31.8461Z" stroke="black" stroke-width="0.5"/>
<path d="M234.271 9.34595L231.271 12.8459C248.271 18.3459 258.771 21.3459 271.271 27.8459H272.771L280.771 26.3459C265.771 19.8459 258.271 17.3459 234.271 9.34595Z" fill="#EDADBF" stroke="black" stroke-width="0.5"/>
<path d="M271.271 27.8459C260.771 22.3459 241.771 15.8459 231.271 12.8459L229.271 15.3459L244.271 22.8459C242.771 25.3459 238.771 27.3459 232.771 30.0459C244.771 29.3459 261.771 28.3459 271.271 27.8459Z" fill="#EDADBF" stroke="black" stroke-width="0.5"/>
<path d="M276.772 34.1459L282.771 31.8459L272.271 27.8459L228.271 30.3459C220.771 45.3459 205.771 75.8459 197.771 76.8459H212.271C210.771 65.8459 220.271 42.3459 245.272 51.3459C255.772 45.8459 265.772 40.3459 276.772 34.1459Z" fill="#EDADBF" stroke="black" stroke-width="0.5"/>
<path d="M277.771 33.846C265.771 40.346 255.771 45.846 245.271 51.346C249.771 54.3459 260.271 60.3459 259.271 79.3459L284.271 78.8459V77.3459C292.771 76.3459 301.271 79.8459 299.771 65.8459L301.771 55.8459C301.771 54.3459 299.271 50.3459 296.771 49.8459C298.271 47.3459 295.271 38.3459 295.271 38.3459V36.8459L291.271 33.8459L286.271 32.3459L282.771 31.8459L277.771 33.846Z" fill="#EDADBF" stroke="black" stroke-width="0.5"/>
<path d="M280.771 26.3459L272.271 27.8459L282.771 31.8459C292.271 32.8459 291.269 34.3459 295.265 36.7661L294.771 28.3459L280.771 26.3459Z" fill="#EDADBF"/>
<path d="M295.271 36.8459L295.265 36.7661M295.265 36.7661L294.771 28.3459L280.771 26.3459L272.271 27.8459L282.771 31.8459C292.271 32.8459 291.269 34.3459 295.265 36.7661Z" stroke="black" stroke-width="0.5"/>
<path d="M293.772 36.3461C293.272 33.846 282.272 33.646 276.772 34.146" stroke="black" stroke-width="0.5"/>
<path d="M299.772 66.3459L260.272 68.3459C259.772 63.3459 257.606 59.1793 255.772 57.3459L301.772 54.8459M300.272 52.3459C289.272 50.8459 278.272 46.0459 266.272 40.0459M228.272 30.3459L272.272 27.8459L280.772 26.3459" stroke="black" stroke-width="0.5"/>
<path d="M290.272 40.3459C290.272 38.3459 289.272 34.3459 285.772 32.3459C287.993 32.3459 291.37 33.3863 293.881 35.7559C294.345 37.2859 293.272 40.8459 290.231 42.3459C290.217 41.7557 290.272 41.0702 290.272 40.3459Z" fill="#EDADBF"/>
<path d="M272.272 42.8459C279.268 43.1957 285.285 43.3008 290.666 43.8459M297.272 44.8459C295.169 44.3953 292.976 44.08 290.666 43.8459M295.272 37.3459C294.855 36.7608 294.385 36.2316 293.881 35.7559M290.666 43.8459C290.339 43.5012 290.245 42.9781 290.231 42.3459M290.231 42.3459C290.217 41.7557 290.272 41.0702 290.272 40.3459C290.272 38.3459 289.272 34.3459 285.772 32.3459C287.993 32.3459 291.37 33.3863 293.881 35.7559M290.231 42.3459C293.272 40.8459 294.345 37.2859 293.881 35.7559" stroke="black" stroke-width="0.5"/>
<path d="M290.272 40.3459C285.772 40.3459 283.772 36.3459 282.772 33.8459" stroke="black" stroke-width="0.5"/>
<path d="M132.271 12.4459C118.771 16.4459 106.771 22.3459 92.7705 35.3459C99.7705 23.3459 115.271 13.8459 130.771 8.84595L132.271 12.4459Z" fill="#E0426F" stroke="black" stroke-width="0.5"/>
<path d="M130.771 8.84595C110.771 14.52 92.7705 31.8459 84.7705 29.8459C97.7705 20.3459 113.771 11.8459 130.271 7.34595L130.771 8.84595Z" fill="#E0426F" stroke="black" stroke-width="0.5"/>
<path d="M9.77118 47.846H3.77118C1.27051 51.8459 1.27051 61.8459 1.77118 65.3459C0.270508 66.3459 0.271105 70.8459 1.27118 72.3459L5.27118 72.8459V74.3459L1.27118 76.3459V78.3459C5.27118 79.3459 13.7712 81.3459 21.7712 80.8459V79.3459H39.2712C38.6045 70.8459 40.2712 60.3459 49.2712 53.3459C46.7712 49.3459 39.7712 44.8459 36.7712 44.346C26.7712 43.3459 11.7712 45.846 9.77118 47.846Z" fill="#E0426F" stroke="black" stroke-width="0.5"/>
<path d="M92.7725 35.3459C74.9391 36.1793 43.2725 41.0459 32.7725 44.0459L36.7725 44.3459C41.7725 45.8459 47.2725 50.1793 49.2725 53.3459C62.2715 43.8459 87.7715 50.8459 86.2715 78.3459H96.2715C89.2715 67.3459 90.2715 45.3459 92.7725 35.3459Z" fill="#E0426F" stroke="black" stroke-width="0.5"/>
<path d="M9.77051 47.846H3.77051C36.2707 28.3459 58.2708 34.3459 84.2705 29.8459L93.2708 35.3459C76.2708 36.3459 47.2705 39.8459 33.2705 44.046C25.2705 43.8459 11.2705 45.8459 9.77051 47.846Z" fill="#E0426F" stroke="black" stroke-width="0.5"/>
<path d="M36.772 44.346C29.272 43.3459 12.272 45.3459 9.77196 47.846C8.97196 50.246 12.1053 53.1793 13.772 54.3459C23.272 55.8459 36.772 49.8459 36.772 44.346Z" fill="#E0426F" stroke="black" stroke-width="0.5"/>
<path d="M3.7712 47.8459C10.7712 48.8459 4.7712 59.3459 1.7712 64.3459C1.27113 57.3459 1.771 51.8459 3.7712 47.8459Z" fill="#E0426F" stroke="black" stroke-width="0.5"/>
<path d="M21.7705 83.8459V79.3459H39.2705L39.7705 83.8459H21.7705Z" fill="#E0426F" stroke="black" stroke-width="0.5"/>
<path d="M2.27246 65.3459C3.77246 67.8459 5.77246 71.0126 5.27246 72.8459M21.7725 79.3459C11.2725 79.8459 6.77246 75.8459 7.77246 72.3459C8.27246 71.8459 9.77246 70.3459 10.7725 70.3459" stroke="black" stroke-width="0.5"/>
<path d="M31.7725 74.3459C29.2725 70.3459 23.7725 65.346 20.7725 63.846C19.0224 63.346 16.3973 63.471 13.6472 63.846C12.0223 65.1793 10.7725 68.3459 11.2725 71.3459C11.2725 72.5126 12.5799 74.8459 15.2725 74.8459C19.7725 74.8459 26.7725 75.3459 31.7725 74.3459Z" fill="#E0426F"/>
<path d="M5.77246 65.346C8.0224 64.846 10.8973 64.221 13.6472 63.846M13.6472 63.846C16.3973 63.471 19.0224 63.346 20.7725 63.846C23.7725 65.346 29.2725 70.3459 31.7725 74.3459C26.7725 75.3459 19.7725 74.8459 15.2725 74.8459C12.5799 74.8459 11.2725 72.5126 11.2725 71.3459C10.7725 68.3459 12.0223 65.1793 13.6472 63.846Z" stroke="black" stroke-width="0.5"/>
<path d="M11.2725 70.846C19.2725 69.3461 22.7725 71.9745 25.7725 73.4745M12.7725 73.8461L30.2725 73.3461" stroke="black" stroke-width="0.5"/>
<path d="M21.7705 82.3459H31.2705C33.2705 82.3459 34.7705 80.3459 34.2705 79.3459M37.7705 79.3459V83.8459" stroke="black" stroke-width="0.5"/>
<path d="M21.7724 80.8462C17.2724 80.8462 12.7724 81.3462 1.27241 78.3462V76.3462L5.27241 74.3462V72.8462L1.27241 72.3462C0.771484 70.8459 -0.22832 67.8459 1.77168 65.3459C1.27192 57.3459 1.77192 50.8459 3.77241 47.8457C36.2724 28.3461 58.2724 34.3461 84.2724 29.8461C162.272 -25.154 244.272 11.8459 281.272 26.3461L294.772 28.3459L295.272 35.3459V38.3459C296.771 43.3459 298.106 47.8459 296.772 49.8459C299.272 50.8459 301.772 54.0126 301.772 55.8459L299.772 65.8459C300.224 76.6939 297.816 76.9181 288.485 77.2306C287.494 77.2638 285.425 77.2979 284.272 77.3459V78.8459L259.272 79.277M21.7724 80.8462V83.8462H39.7708L39.2724 79.3462M21.7724 80.8462V79.3462H39.2724M39.2724 79.3462C36.2724 37.8462 89.7724 40.8462 86.2724 79.8462V82.3459H212.772C206.772 38.8459 261.272 38.8459 259.272 79.277M258.771 79.277H259.272" stroke="black"/>
</svg>
