<svg width="303" height="96" viewBox="0 0 303 96" fill="none" xmlns="http://www.w3.org/2000/svg">
<circle cx="62.458" cy="74.0605" r="20.5" fill="#E0426F" stroke="black"/>
<circle cx="235.458" cy="74.0605" r="20.5" fill="#E0426F" stroke="black"/>
<path d="M132.456 12.5604L130.956 9.0604C170.956 1.06051 192.456 1.56055 231.456 13.0605L227.956 17.5605C207.956 9.56046 189.956 8.56046 173.956 8.06052C171.456 7.56052 167.456 7.56049 164.956 8.0604C154.956 8.06052 142.956 9.56052 132.456 12.5604Z" fill="#E0426F" stroke="black" stroke-width="0.5"/>
<path d="M130.956 9.06059L130.456 7.56059C166.456 -3.43945 198.956 0.560421 234.456 9.56059L231.456 13.0606C191.456 0.560547 165.456 2.06055 130.956 9.06059Z" fill="#E0426F" stroke="black" stroke-width="0.5"/>
<path d="M130.956 9.06066C182.456 -2.43937 210.956 7.56067 231.456 13.0607" stroke="black" stroke-width="0.5"/>
<path d="M170.458 30.0605L173.958 8.06055C207.458 9.06055 218.958 14.5605 223.458 16.0605L225.941 28.0605C198.951 28.0612 181.456 29.5607 170.458 30.0605Z" fill="#E0426F"/>
<path d="M226.458 30.5605L223.458 16.0605C218.958 14.5605 207.458 9.06055 173.958 8.06055L170.458 30.0605C181.458 29.5605 198.958 28.0605 225.958 28.0605" stroke="black" stroke-width="0.5"/>
<path d="M164.958 8.06055C131.958 9.06055 111.958 18.0605 92.958 35.5605L95.458 33.5605L159.458 30.5605L164.958 8.06055Z" fill="#E0426F" stroke="black" stroke-width="0.5"/>
<path d="M239.456 22.5605C235.789 19.8939 229.956 17.5605 223.456 16.0605L225.956 28.0605H232.456C235.456 26.5605 238.456 24.3293 239.456 22.5605Z" fill="#E0426F" stroke="black" stroke-width="0.5"/>
<path d="M96.458 78.5605H163.458L197.958 77.0605H212.458L212.958 82.5605H198.958H97.958H86.458V78.5605H96.458Z" fill="#E0426F"/>
<path d="M96.458 78.5605H163.458L197.958 77.0605M96.458 78.5605C96.458 80.0605 96.958 81.0605 97.958 82.5605M96.458 78.5605H86.458V82.5605H97.958M197.958 77.0605L198.958 82.5605M197.958 77.0605H212.458L212.958 82.5605H198.958M198.958 82.5605H97.958" stroke="black" stroke-width="0.5"/>
<path d="M96.4571 78.5605C91.958 74.0605 88.9581 52.0605 92.9571 35.5605L164.958 31.5605C160.958 36.5605 159.958 70.5605 163.458 78.5605H96.4571Z" fill="#E0426F" stroke="black" stroke-width="0.5"/>
<path d="M228.458 30.5605L164.958 31.5605C160.958 36.5605 159.958 70.5605 163.458 78.5605L197.958 77.0605C202.458 75.5605 208.958 70.0605 228.458 30.5605Z" fill="#E0426F" stroke="black" stroke-width="0.5"/>
<path d="M170.458 30.0606C165.958 30.5606 162.458 30.5606 159.458 30.5606L164.958 8.06062C167.958 7.56055 170.958 7.56055 173.958 8.06062L170.458 30.0606Z" fill="#E0426F" stroke="black" stroke-width="0.5"/>
<path d="M98.958 32.0608C103.458 37.5608 110.458 34.0608 114.458 32.5608C115.458 17.0607 102.458 25.0607 98.958 32.0608Z" fill="#E0426F" stroke="black" stroke-width="0.5"/>
<path d="M234.456 9.56055L231.456 13.0605C248.456 18.5605 258.956 21.5605 271.456 28.0605H272.956L280.956 26.5605C265.956 20.0605 258.456 17.5605 234.456 9.56055Z" fill="#E56E90" stroke="black" stroke-width="0.5"/>
<path d="M271.456 28.0605C260.956 22.5605 241.956 16.0605 231.456 13.0605L229.456 15.5605L244.456 23.0605C242.956 25.5605 238.956 27.5605 232.956 30.2605C244.956 29.5605 261.956 28.5605 271.456 28.0605Z" fill="#E56E90" stroke="black" stroke-width="0.5"/>
<path d="M276.958 34.3605L282.956 32.0605L272.457 28.0605L228.457 30.5605C220.957 45.5605 205.957 76.0605 197.957 77.0605H212.457C210.957 66.0605 220.457 42.5605 245.458 51.5605C255.958 46.0605 265.958 40.5605 276.958 34.3605Z" fill="#E56E90" stroke="black" stroke-width="0.5"/>
<path d="M277.956 34.0606C265.956 40.5606 255.956 46.0606 245.456 51.5606C249.956 54.5605 260.456 60.5605 259.456 79.5605L284.456 79.0605V77.5605C292.956 76.5605 301.456 80.0605 299.956 66.0605L301.956 56.0605C301.956 54.5605 299.456 50.5605 296.956 50.0605C298.456 47.5605 295.456 38.5605 295.456 38.5605V37.0605L291.456 34.0605L286.456 32.5605L282.956 32.0605L277.956 34.0606Z" fill="#E56E90" stroke="black" stroke-width="0.5"/>
<path d="M280.956 26.5605L272.456 28.0605L282.956 32.0605C292.456 33.0605 291.455 34.5605 295.45 36.9807L294.956 28.5605L280.956 26.5605Z" fill="#E56E90"/>
<path d="M295.456 37.0605L295.45 36.9807M295.45 36.9807L294.956 28.5605L280.956 26.5605L272.456 28.0605L282.956 32.0605C292.456 33.0605 291.455 34.5605 295.45 36.9807Z" stroke="black" stroke-width="0.5"/>
<path d="M293.958 36.5607C293.458 34.0606 282.458 33.8606 276.958 34.3606" stroke="black" stroke-width="0.5"/>
<path d="M299.958 66.5605L260.458 68.5605C259.958 63.5605 257.791 59.3939 255.958 57.5605L301.958 55.0605M300.458 52.5605C289.458 51.0605 278.458 46.2605 266.458 40.2605M228.458 30.5605L272.458 28.0605L280.958 26.5605" stroke="black" stroke-width="0.5"/>
<path d="M290.458 40.5605C290.458 38.5605 289.458 34.5605 285.958 32.5605C288.179 32.5605 291.556 33.6009 294.067 35.9705C294.531 37.5005 293.458 41.0605 290.416 42.5605C290.403 41.9703 290.458 41.2848 290.458 40.5605Z" fill="#E56E90"/>
<path d="M272.458 43.0605C279.454 43.4103 285.471 43.5154 290.851 44.0605M297.458 45.0605C295.355 44.6099 293.162 44.2946 290.851 44.0605M295.458 37.5605C295.04 36.9754 294.571 36.4462 294.067 35.9705M290.851 44.0605C290.525 43.7158 290.431 43.1927 290.416 42.5605M290.416 42.5605C290.403 41.9703 290.458 41.2848 290.458 40.5605C290.458 38.5605 289.458 34.5605 285.958 32.5605C288.179 32.5605 291.556 33.6009 294.067 35.9705M290.416 42.5605C293.458 41.0605 294.531 37.5005 294.067 35.9705" stroke="black" stroke-width="0.5"/>
<path d="M290.458 40.5605C285.958 40.5605 283.958 36.5605 282.958 34.0605" stroke="black" stroke-width="0.5"/>
<path d="M132.456 12.6605C118.956 16.6605 106.956 22.5605 92.9561 35.5605C99.9561 23.5605 115.456 14.0605 130.956 9.06055L132.456 12.6605Z" fill="#E56E90" stroke="black" stroke-width="0.5"/>
<path d="M130.956 9.06055C110.956 14.7346 92.9561 32.0605 84.9561 30.0605C97.9561 20.5605 113.956 12.0605 130.456 7.56055L130.956 9.06055Z" fill="#E56E90" stroke="black" stroke-width="0.5"/>
<path d="M9.95672 48.0604H3.95672C1.45605 52.0604 1.45605 62.0604 1.95672 65.5604C0.456055 66.5604 0.456652 71.0604 1.45672 72.5604L5.45672 73.0604V74.5604L1.45672 76.5604V78.5604C5.45672 79.5604 13.9567 81.5604 21.9567 81.0604V79.5604H39.4567C38.7901 71.0604 40.4567 60.5604 49.4567 53.5604C46.9567 49.5604 39.9567 45.0604 36.9567 44.5604C26.9567 43.5604 11.9567 46.0604 9.95672 48.0604Z" fill="#E56E90" stroke="black" stroke-width="0.5"/>
<path d="M92.958 35.5605C75.1247 36.3939 43.458 41.2605 32.958 44.2605L36.958 44.5605C41.958 46.0605 47.458 50.3939 49.458 53.5605C62.457 44.0605 87.957 51.0605 86.457 78.5605H96.457C89.457 67.5605 90.457 45.5605 92.958 35.5605Z" fill="#E56E90" stroke="black" stroke-width="0.5"/>
<path d="M9.95606 48.0606H3.95605C36.4562 28.5605 58.4563 34.5605 84.4561 30.0605L93.4563 35.5605C76.4563 36.5605 47.4561 40.0605 33.4561 44.2606C25.4561 44.0605 11.4561 46.0605 9.95606 48.0606Z" fill="#E56E90" stroke="black" stroke-width="0.5"/>
<path d="M36.9575 44.5606C29.4575 43.5605 12.4575 45.5605 9.95751 48.0606C9.15751 50.4606 12.2908 53.3939 13.9575 54.5605C23.4575 56.0605 36.9575 50.0605 36.9575 44.5606Z" fill="#E56E90" stroke="black" stroke-width="0.5"/>
<path d="M3.95675 48.0605C10.9568 49.0605 4.95675 59.5605 1.95675 64.5605C1.45668 57.5605 1.95654 52.0605 3.95675 48.0605Z" fill="#E56E90" stroke="black" stroke-width="0.5"/>
<path d="M21.9561 84.0605V79.5605H39.4561L39.9561 84.0605H21.9561Z" fill="#E56E90" stroke="black" stroke-width="0.5"/>
<path d="M2.45801 65.5605C3.95801 68.0605 5.95801 71.2272 5.45801 73.0605M21.958 79.5605C11.458 80.0605 6.95801 76.0605 7.95801 72.5605C8.45801 72.0605 9.95801 70.5605 10.958 70.5605" stroke="black" stroke-width="0.5"/>
<path d="M31.958 74.5607C29.458 70.5607 23.958 65.5607 20.958 64.0607C19.208 63.5607 16.5829 63.6857 13.8328 64.0607C12.2079 65.3941 10.958 68.5607 11.458 71.5607C11.458 72.7273 12.7654 75.0607 15.458 75.0607C19.958 75.0607 26.958 75.5607 31.958 74.5607Z" fill="#E56E90"/>
<path d="M5.95801 65.5607C8.20795 65.0607 11.0829 64.4357 13.8328 64.0607M13.8328 64.0607C16.5829 63.6857 19.208 63.5607 20.958 64.0607C23.958 65.5607 29.458 70.5607 31.958 74.5607C26.958 75.5607 19.958 75.0607 15.458 75.0607C12.7654 75.0607 11.458 72.7273 11.458 71.5607C10.958 68.5607 12.2079 65.3941 13.8328 64.0607Z" stroke="black" stroke-width="0.5"/>
<path d="M11.458 71.0607C19.458 69.5608 22.958 72.1893 25.958 73.6893M12.958 74.0608L30.458 73.5608" stroke="black" stroke-width="0.5"/>
<path d="M21.9561 82.5605H31.4561C33.4561 82.5605 34.9561 80.5605 34.4561 79.5605M37.9561 79.5605V84.0605" stroke="black" stroke-width="0.5"/>
<path d="M21.958 81.0608C17.458 81.0608 12.958 81.5608 1.45795 78.5608V76.5608L5.45795 74.5608V73.0608L1.45795 72.5608C0.957031 71.0605 -0.0427729 68.0605 1.95722 65.5605C1.45747 57.5605 1.95747 51.0605 3.95795 48.0603C36.458 28.5607 58.4579 34.5607 84.4579 30.0607C162.458 -24.9394 244.458 12.0605 281.458 26.5607L294.958 28.5605L295.458 35.5605V38.5605C296.956 43.5605 298.291 48.0605 296.958 50.0605C299.458 51.0605 301.958 54.2272 301.958 56.0605L299.958 66.0605C300.41 76.9085 298.002 77.1327 288.67 77.4452C287.679 77.4784 285.61 77.5125 284.458 77.5605V79.0605L259.458 79.4916M21.958 81.0608V84.0608H39.9563L39.458 79.5608M21.958 81.0608V79.5608H39.458M39.458 79.5608C36.458 38.0608 89.9579 41.0608 86.4579 80.0608V82.5605H212.958C206.958 39.0605 261.458 39.0605 259.458 79.4916M258.956 79.4916H259.458" stroke="black"/>
</svg>
