<svg width="304" height="95" viewBox="0 0 304 95" fill="none" xmlns="http://www.w3.org/2000/svg">
<circle cx="63.0938" cy="73.8611" r="20.5" fill="#EDADBF" stroke="black"/>
<circle cx="236.094" cy="73.8611" r="20.5" fill="#EDADBF" stroke="black"/>
<path d="M133.092 12.3609L131.592 8.86094C171.592 0.861052 193.092 1.36108 232.092 12.861L228.592 17.361C208.592 9.36099 190.592 8.36099 174.592 7.86106C172.092 7.36106 168.092 7.36102 165.592 7.86094C155.592 7.86106 143.592 9.36106 133.092 12.3609Z" fill="#EDADBF" stroke="black" stroke-width="0.5"/>
<path d="M131.592 8.86113L131.092 7.36113C167.092 -3.63892 199.592 0.360958 235.092 9.36113L232.092 12.8611C192.092 0.361084 166.092 1.86108 131.592 8.86113Z" fill="#EDADBF" stroke="black" stroke-width="0.5"/>
<path d="M131.592 8.86095C183.092 -2.63908 211.592 7.36096 232.092 12.8609" stroke="black" stroke-width="0.5"/>
<path d="M171.094 29.8611L174.594 7.86108C208.094 8.86108 219.594 14.3611 224.094 15.8611L226.577 27.8611C199.586 27.8617 182.091 29.3612 171.094 29.8611Z" fill="#EDADBF"/>
<path d="M227.094 30.3611L224.094 15.8611C219.594 14.3611 208.094 8.86108 174.594 7.86108L171.094 29.8611C182.094 29.3611 199.594 27.8611 226.594 27.8611" stroke="black" stroke-width="0.5"/>
<path d="M165.594 7.86108C132.594 8.86108 112.594 17.8611 93.5938 35.3611L96.0938 33.3611L160.094 30.3611L165.594 7.86108Z" fill="#EDADBF" stroke="black" stroke-width="0.5"/>
<path d="M240.092 22.3611C236.425 19.6944 230.592 17.3611 224.092 15.8611L226.592 27.8611H233.092C236.092 26.3611 239.092 24.1298 240.092 22.3611Z" fill="#EDADBF" stroke="black" stroke-width="0.5"/>
<path d="M97.0938 78.3611H164.094L198.594 76.8611H213.094L213.594 82.3611H199.594H98.5938H87.0938V78.3611H97.0938Z" fill="#EDADBF"/>
<path d="M97.0938 78.3611H164.094L198.594 76.8611M97.0938 78.3611C97.0938 79.8611 97.5938 80.8611 98.5938 82.3611M97.0938 78.3611H87.0938V82.3611H98.5938M198.594 76.8611L199.594 82.3611M198.594 76.8611H213.094L213.594 82.3611H199.594M199.594 82.3611H98.5938" stroke="black" stroke-width="0.5"/>
<path d="M97.0929 78.3611C92.5937 73.8611 89.5938 51.8611 93.5929 35.3611L165.594 31.3611C161.594 36.3611 160.594 70.3611 164.094 78.3611H97.0929Z" fill="#EDADBF" stroke="black" stroke-width="0.5"/>
<path d="M229.094 30.3611L165.594 31.3611C161.594 36.3611 160.594 70.3611 164.094 78.3611L198.594 76.8611C203.094 75.3611 209.594 69.8611 229.094 30.3611Z" fill="#EDADBF" stroke="black" stroke-width="0.5"/>
<path d="M171.094 29.8612C166.594 30.3612 163.094 30.3612 160.094 30.3612L165.594 7.86116C168.594 7.36108 171.594 7.36108 174.594 7.86116L171.094 29.8612Z" fill="#EDADBF" stroke="black" stroke-width="0.5"/>
<path d="M99.5938 31.8611C104.094 37.3611 111.094 33.8611 115.094 32.3611C116.094 16.861 103.094 24.861 99.5938 31.8611Z" fill="#EDADBF" stroke="black" stroke-width="0.5"/>
<path d="M235.092 9.36108L232.092 12.8611C249.092 18.3611 259.592 21.3611 272.092 27.8611H273.592L281.592 26.3611C266.592 19.8611 259.092 17.3611 235.092 9.36108Z" stroke="black" stroke-width="0.5"/>
<path d="M272.092 27.8611C261.592 22.3611 242.592 15.8611 232.092 12.8611L230.092 15.3611L245.092 22.8611C243.592 25.3611 239.592 27.3611 233.592 30.0611C245.592 29.3611 262.592 28.3611 272.092 27.8611Z" stroke="black" stroke-width="0.5"/>
<path d="M277.594 34.1611L283.592 31.8611L273.093 27.8611L229.093 30.3611C221.593 45.3611 206.593 75.8611 198.593 76.8611H213.093C211.593 65.8611 221.093 42.3611 246.094 51.3611C256.594 45.8611 266.594 40.3611 277.594 34.1611Z" stroke="black" stroke-width="0.5"/>
<path d="M278.592 33.8611C266.592 40.3611 256.592 45.8611 246.092 51.3611C250.592 54.3611 261.092 60.3611 260.092 79.3611L285.092 78.8611V77.3611C293.592 76.3611 302.092 79.8611 300.592 65.8611L302.592 55.8611C302.592 54.3611 300.092 50.3611 297.592 49.8611C299.092 47.3611 296.092 38.3611 296.092 38.3611V36.8611L292.092 33.8611L287.092 32.3611L283.592 31.8611L278.592 33.8611Z" stroke="black" stroke-width="0.5"/>
<path d="M296.092 36.8611L296.086 36.7813M296.086 36.7813L295.592 28.3611L281.592 26.3611L273.092 27.8611L283.592 31.8611C293.092 32.8611 292.091 34.3611 296.086 36.7813Z" stroke="black" stroke-width="0.5"/>
<path d="M294.594 36.3613C294.094 33.8612 283.094 33.6611 277.594 34.1611" stroke="black" stroke-width="0.5"/>
<path d="M300.594 66.3611L261.094 68.3611C260.594 63.3611 258.427 59.1944 256.594 57.3611L302.594 54.8611M301.094 52.3611C290.094 50.8611 279.094 46.0611 267.094 40.0611M229.094 30.3611L273.094 27.8611L281.594 26.3611" stroke="black" stroke-width="0.5"/>
<path d="M273.094 42.8611C280.089 43.2109 286.106 43.316 291.487 43.8611M298.094 44.8611C295.991 44.4104 293.798 44.0952 291.487 43.8611M296.094 37.3611C295.676 36.776 295.207 36.2467 294.703 35.7711M291.487 43.8611C291.161 43.5163 291.067 42.9933 291.052 42.3611M291.052 42.3611C291.038 41.7708 291.094 41.0854 291.094 40.3611C291.094 38.3611 290.094 34.3611 286.594 32.3611C288.815 32.3611 292.191 33.4015 294.703 35.7711M291.052 42.3611C294.094 40.8611 295.166 37.3011 294.703 35.7711" stroke="black" stroke-width="0.5"/>
<path d="M291.094 40.3611C286.594 40.3611 284.594 36.3611 283.594 33.8611" stroke="black" stroke-width="0.5"/>
<path d="M133.092 12.4611C119.592 16.4611 107.592 22.3611 93.5923 35.3611C100.592 23.3611 116.092 13.8611 131.592 8.86108L133.092 12.4611Z" stroke="black" stroke-width="0.5"/>
<path d="M131.592 8.86108C111.592 14.5351 93.5923 31.8611 85.5923 29.8611C98.5923 20.3611 114.592 11.8611 131.092 7.36108L131.592 8.86108Z" stroke="black" stroke-width="0.5"/>
<path d="M10.593 47.861H4.59295C2.09229 51.861 2.09229 61.861 2.59295 65.361C1.09229 66.361 1.09288 70.861 2.09295 72.361L6.09295 72.861V74.361L2.09295 76.361V78.361C6.09295 79.361 14.593 81.361 22.593 80.861V79.361H40.0929C39.4263 70.861 41.0929 60.361 50.0929 53.361C47.5929 49.361 40.5929 44.861 37.5929 44.361C27.5929 43.361 12.593 45.861 10.593 47.861Z" stroke="black" stroke-width="0.5"/>
<path d="M93.5938 35.3611C75.7604 36.1944 44.0938 41.0611 33.5938 44.0611L37.5938 44.3611C42.5938 45.8611 48.0938 50.1944 50.0938 53.3611C63.0928 43.8611 88.5928 50.8611 87.0928 78.3611H97.0928C90.0928 67.3611 91.0928 45.3611 93.5938 35.3611Z" stroke="black" stroke-width="0.5"/>
<path d="M10.5918 47.8611H4.5918C37.092 28.361 59.092 34.3611 85.0918 29.8611L94.092 35.3611C77.092 36.3611 48.0918 39.8611 34.0918 44.0611C26.0918 43.8611 12.0918 45.8611 10.5918 47.8611Z" stroke="black" stroke-width="0.5"/>
<path d="M37.5937 44.3612C30.0937 43.3611 13.0937 45.3611 10.5937 47.8612C9.79374 50.2611 12.9271 53.1944 14.5937 54.3611C24.0938 55.8611 37.5937 49.8611 37.5937 44.3612Z" stroke="black" stroke-width="0.5"/>
<path d="M4.59298 47.8611C11.593 48.8611 5.59298 59.3611 2.59298 64.3611C2.09291 57.3611 2.59277 51.8611 4.59298 47.8611Z" stroke="black" stroke-width="0.5"/>
<path d="M22.5923 83.8611V79.3611H40.0923L40.5923 83.8611H22.5923Z" stroke="black" stroke-width="0.5"/>
<path d="M3.09375 65.3608C4.59375 67.8608 6.59375 71.0275 6.09375 72.8608M22.5938 79.3608C12.0938 79.8608 7.59375 75.8608 8.59375 72.3608C9.09375 71.8608 10.5938 70.3608 11.5938 70.3608" stroke="black" stroke-width="0.5"/>
<path d="M6.59375 65.361C8.84369 64.861 11.7186 64.236 14.4685 63.861M14.4685 63.861C17.2186 63.486 19.8437 63.361 21.5938 63.861C24.5938 65.361 30.0938 70.361 32.5938 74.361C27.5938 75.361 20.5938 74.861 16.0938 74.861C13.4012 74.861 12.0938 72.5276 12.0938 71.361C11.5938 68.361 12.8436 65.1943 14.4685 63.861Z" stroke="black" stroke-width="0.5"/>
<path d="M12.0938 70.861C20.0938 69.3611 23.5938 71.9896 26.5938 73.4896M13.5938 73.8611L31.0938 73.3611" stroke="black" stroke-width="0.5"/>
<path d="M22.5918 82.3608H32.0918C34.0918 82.3608 35.5918 80.3608 35.0918 79.3608M38.5918 79.3608V83.8608" stroke="black" stroke-width="0.5"/>
<path d="M22.5937 80.8613C18.0937 80.8613 13.5937 81.3613 2.0937 78.3613V76.3613L6.0937 74.3613V72.8613L2.0937 72.3613C1.59277 70.8611 0.592969 67.8611 2.59296 65.3611C2.09321 57.3611 2.59321 50.8611 4.5937 47.8608C37.0937 28.3612 59.0937 34.3613 85.0937 29.8613C163.094 -25.1388 245.094 11.8611 282.094 26.3613L295.594 28.3611L296.094 35.3611V38.3611C297.592 43.3611 298.927 47.8611 297.594 49.8611C300.094 50.8611 302.594 54.0278 302.594 55.8611L300.594 65.8611C301.046 76.709 298.638 76.9333 289.306 77.2457C288.315 77.2789 286.246 77.3131 285.094 77.3611V78.8611L260.094 79.2921M22.5937 80.8613V83.8613H40.592L40.0937 79.3613M22.5937 80.8613V79.3613H40.0937M40.0937 79.3613C37.0937 37.8613 90.5937 40.8613 87.0937 79.8613V82.3611H213.594C207.594 38.8611 262.094 38.8611 260.094 79.2921M259.592 79.2921H260.094" stroke="black"/>
</svg>
