<svg width="303" height="96" viewBox="0 0 303 96" fill="none" xmlns="http://www.w3.org/2000/svg">
<circle cx="62.249" cy="74.2297" r="20.5" fill="#E56E90" stroke="black"/>
<circle cx="235.249" cy="74.2297" r="20.5" fill="#E56E90" stroke="black"/>
<path d="M132.247 12.7296L130.747 9.22959C170.747 1.2297 192.247 1.72974 231.247 13.2297L227.747 17.7297C207.747 9.72965 189.747 8.72964 173.747 8.22971C171.247 7.72971 167.247 7.72968 164.747 8.22959C154.747 8.22971 142.747 9.72971 132.247 12.7296Z" fill="#E0426F" stroke="black" stroke-width="0.5"/>
<path d="M130.747 9.22978L130.247 7.72978C166.247 -3.27026 198.747 0.72961 234.247 9.72978L231.247 13.2298C191.247 0.729736 165.247 2.22974 130.747 9.22978Z" fill="#E0426F" stroke="black" stroke-width="0.5"/>
<path d="M130.747 9.2296C182.247 -2.27042 210.747 7.72961 231.247 13.2296" stroke="black" stroke-width="0.5"/>
<path d="M170.249 30.2297L173.749 8.22974C207.249 9.22974 218.749 14.7297 223.249 16.2297L225.732 28.2297C198.742 28.2304 181.247 29.7298 170.249 30.2297Z" fill="#E0426F"/>
<path d="M226.249 30.7297L223.249 16.2297C218.749 14.7297 207.249 9.22974 173.749 8.22974L170.249 30.2297C181.249 29.7297 198.749 28.2297 225.749 28.2297" stroke="black" stroke-width="0.5"/>
<path d="M164.749 8.22974C131.749 9.22974 111.749 18.2297 92.749 35.7297L95.249 33.7297L159.249 30.7297L164.749 8.22974Z" fill="#E0426F" stroke="black" stroke-width="0.5"/>
<path d="M239.247 22.7297C235.58 20.0631 229.747 17.7297 223.247 16.2297L225.747 28.2297H232.247C235.247 26.7297 238.247 24.4985 239.247 22.7297Z" fill="#E0426F" stroke="black" stroke-width="0.5"/>
<path d="M96.249 78.7297H163.249L197.749 77.2297H212.249L212.749 82.7297H198.749H97.749H86.249V78.7297H96.249Z" fill="#E0426F"/>
<path d="M96.249 78.7297H163.249L197.749 77.2297M96.249 78.7297C96.249 80.2297 96.749 81.2297 97.749 82.7297M96.249 78.7297H86.249V82.7297H97.749M197.749 77.2297L198.749 82.7297M197.749 77.2297H212.249L212.749 82.7297H198.749M198.749 82.7297H97.749" stroke="black" stroke-width="0.5"/>
<path d="M96.2482 78.7297C91.749 74.2297 88.7491 52.2297 92.7482 35.7297L164.749 31.7297C160.749 36.7297 159.749 70.7297 163.249 78.7297H96.2482Z" fill="#E0426F" stroke="black" stroke-width="0.5"/>
<path d="M228.249 30.7297L164.749 31.7297C160.749 36.7297 159.749 70.7297 163.249 78.7297L197.749 77.2297C202.249 75.7297 208.749 70.2297 228.249 30.7297Z" fill="#E0426F" stroke="black" stroke-width="0.5"/>
<path d="M170.249 30.2298C165.749 30.7298 162.249 30.7298 159.249 30.7298L164.749 8.22981C167.749 7.72974 170.749 7.72974 173.749 8.22981L170.249 30.2298Z" fill="#E0426F" stroke="black" stroke-width="0.5"/>
<path d="M98.749 32.2297C103.249 37.7297 110.249 34.2297 114.249 32.7297C115.249 17.2296 102.249 25.2296 98.749 32.2297Z" fill="#E0426F" stroke="black" stroke-width="0.5"/>
<path d="M234.247 9.72974L231.247 13.2297C248.247 18.7297 258.747 21.7297 271.247 28.2297H272.747L280.747 26.7297C265.747 20.2297 258.247 17.7297 234.247 9.72974Z" fill="#E0426F" stroke="black" stroke-width="0.5"/>
<path d="M271.247 28.2297C260.747 22.7297 241.747 16.2297 231.247 13.2297L229.247 15.7297L244.247 23.2297C242.747 25.7297 238.747 27.7297 232.747 30.4297C244.747 29.7297 261.747 28.7297 271.247 28.2297Z" fill="#E0426F" stroke="black" stroke-width="0.5"/>
<path d="M276.749 34.5297L282.747 32.2297L272.248 28.2297L228.248 30.7297C220.748 45.7297 205.748 76.2297 197.748 77.2297H212.248C210.748 66.2297 220.248 42.7297 245.249 51.7297C255.749 46.2297 265.749 40.7297 276.749 34.5297Z" fill="#E0426F" stroke="black" stroke-width="0.5"/>
<path d="M277.747 34.2298C265.747 40.7298 255.747 46.2298 245.247 51.7298C249.747 54.7297 260.247 60.7297 259.247 79.7297L284.247 79.2297V77.7297C292.747 76.7297 301.247 80.2297 299.747 66.2297L301.747 56.2297C301.747 54.7297 299.247 50.7297 296.747 50.2297C298.247 47.7297 295.247 38.7297 295.247 38.7297V37.2297L291.247 34.2297L286.247 32.7297L282.747 32.2297L277.747 34.2298Z" fill="#E0426F" stroke="black" stroke-width="0.5"/>
<path d="M280.747 26.7297L272.247 28.2297L282.747 32.2297C292.247 33.2297 291.246 34.7297 295.241 37.1499L294.747 28.7297L280.747 26.7297Z" fill="#E0426F"/>
<path d="M295.247 37.2297L295.241 37.1499M295.241 37.1499L294.747 28.7297L280.747 26.7297L272.247 28.2297L282.747 32.2297C292.247 33.2297 291.246 34.7297 295.241 37.1499Z" stroke="black" stroke-width="0.5"/>
<path d="M293.749 36.7299C293.249 34.2298 282.249 34.0297 276.749 34.5297" stroke="black" stroke-width="0.5"/>
<path d="M299.749 66.7297L260.249 68.7297C259.749 63.7297 257.582 59.5631 255.749 57.7297L301.749 55.2297M300.249 52.7297C289.249 51.2297 278.249 46.4297 266.249 40.4297M228.249 30.7297L272.249 28.2297L280.749 26.7297" stroke="black" stroke-width="0.5"/>
<path d="M290.249 40.7297C290.249 38.7297 289.249 34.7297 285.749 32.7297C287.97 32.7297 291.347 33.7701 293.858 36.1397C294.322 37.6697 293.249 41.2297 290.207 42.7297C290.194 42.1395 290.249 41.454 290.249 40.7297Z" fill="#E0426F"/>
<path d="M272.249 43.2297C279.245 43.5795 285.262 43.6846 290.642 44.2297M297.249 45.2297C295.146 44.7791 292.953 44.4638 290.642 44.2297M295.249 37.7297C294.831 37.1446 294.362 36.6154 293.858 36.1397M290.642 44.2297C290.316 43.885 290.222 43.3619 290.207 42.7297M290.207 42.7297C290.194 42.1395 290.249 41.454 290.249 40.7297C290.249 38.7297 289.249 34.7297 285.749 32.7297C287.97 32.7297 291.347 33.7701 293.858 36.1397M290.207 42.7297C293.249 41.2297 294.322 37.6697 293.858 36.1397" stroke="black" stroke-width="0.5"/>
<path d="M290.249 40.7297C285.749 40.7297 283.749 36.7297 282.749 34.2297" stroke="black" stroke-width="0.5"/>
<path d="M132.247 12.8297C118.747 16.8297 106.747 22.7297 92.7471 35.7297C99.7471 23.7297 115.247 14.2297 130.747 9.22974L132.247 12.8297Z" fill="#E0426F" stroke="black" stroke-width="0.5"/>
<path d="M130.747 9.22974C110.747 14.9038 92.7471 32.2297 84.7471 30.2297C97.7471 20.7297 113.747 12.2297 130.247 7.72974L130.747 9.22974Z" fill="#E0426F" stroke="black" stroke-width="0.5"/>
<path d="M9.74774 48.2296H3.74774C1.24707 52.2296 1.24707 62.2296 1.74774 65.7296C0.24707 66.7296 0.247668 71.2296 1.24774 72.7296L5.24774 73.2296V74.7296L1.24774 76.7296V78.7296C5.24774 79.7296 13.7477 81.7296 21.7477 81.2296V79.7296H39.2477C38.5811 71.2296 40.2477 60.7296 49.2477 53.7296C46.7477 49.7296 39.7477 45.2296 36.7477 44.7296C26.7477 43.7296 11.7477 46.2296 9.74774 48.2296Z" fill="#E0426F" stroke="black" stroke-width="0.5"/>
<path d="M92.749 35.7297C74.9157 36.5631 43.249 41.4297 32.749 44.4297L36.749 44.7297C41.749 46.2297 47.249 50.5631 49.249 53.7297C62.248 44.2297 87.748 51.2297 86.248 78.7297H96.248C89.248 67.7297 90.248 45.7297 92.749 35.7297Z" fill="#E0426F" stroke="black" stroke-width="0.5"/>
<path d="M9.74707 48.2298H3.74707C36.2473 28.7297 58.2473 34.7297 84.2471 30.2297L93.2473 35.7297C76.2473 36.7297 47.2471 40.2297 33.2471 44.4297C25.2471 44.2297 11.2471 46.2297 9.74707 48.2298Z" fill="#E0426F" stroke="black" stroke-width="0.5"/>
<path d="M36.7485 44.7298C29.2485 43.7297 12.2485 45.7297 9.74852 48.2298C8.94852 50.6298 12.0819 53.5631 13.7485 54.7297C23.2485 56.2297 36.7485 50.2297 36.7485 44.7298Z" fill="#E0426F" stroke="black" stroke-width="0.5"/>
<path d="M3.74777 48.2297C10.7478 49.2297 4.74777 59.7297 1.74777 64.7297C1.2477 57.7297 1.74756 52.2297 3.74777 48.2297Z" fill="#E0426F" stroke="black" stroke-width="0.5"/>
<path d="M21.7471 84.2297V79.7297H39.2471L39.7471 84.2297H21.7471Z" fill="#E0426F" stroke="black" stroke-width="0.5"/>
<path d="M2.24902 65.7295C3.74902 68.2295 5.74902 71.3962 5.24902 73.2295M21.749 79.7295C11.249 80.2295 6.74902 76.2295 7.74902 72.7295C8.24902 72.2295 9.74902 70.7295 10.749 70.7295" stroke="black" stroke-width="0.5"/>
<path d="M31.749 74.7296C29.249 70.7296 23.749 65.7297 20.749 64.2297C18.999 63.7297 16.3739 63.8547 13.6238 64.2297C11.9989 65.563 10.749 68.7296 11.249 71.7296C11.249 72.8963 12.5564 75.2296 15.249 75.2296C19.749 75.2296 26.749 75.7296 31.749 74.7296Z" fill="#E0426F"/>
<path d="M5.74902 65.7297C7.99897 65.2297 10.8739 64.6047 13.6238 64.2297M13.6238 64.2297C16.3739 63.8547 18.999 63.7297 20.749 64.2297C23.749 65.7297 29.249 70.7296 31.749 74.7296C26.749 75.7296 19.749 75.2296 15.249 75.2296C12.5564 75.2296 11.249 72.8963 11.249 71.7296C10.749 68.7296 11.9989 65.563 13.6238 64.2297Z" stroke="black" stroke-width="0.5"/>
<path d="M11.249 71.2297C19.249 69.7297 22.749 72.3582 25.749 73.8582M12.749 74.2297L30.249 73.7297" stroke="black" stroke-width="0.5"/>
<path d="M21.7471 82.7295H31.2471C33.2471 82.7295 34.7471 80.7295 34.2471 79.7295M37.7471 79.7295V84.2295" stroke="black" stroke-width="0.5"/>
<path d="M21.749 81.23C17.249 81.23 12.749 81.73 1.24897 78.73V76.73L5.24897 74.73V73.23L1.24897 72.73C0.748047 71.2297 -0.251757 68.2297 1.74824 65.7297C1.24848 57.7297 1.74848 51.2297 3.74897 48.2295C36.249 28.7299 58.249 34.7299 84.249 30.2299C162.249 -24.7702 244.249 12.2297 281.249 26.7299L294.749 28.7297L295.249 35.7297V38.7297C296.747 43.7297 298.082 48.2297 296.749 50.2297C299.249 51.2297 301.749 54.3964 301.749 56.2297L299.749 66.2297C300.201 77.0776 297.793 77.3019 288.461 77.6144C287.47 77.6476 285.401 77.6817 284.249 77.7297V79.2297L259.249 79.6608M21.749 81.23V84.23H39.7473L39.249 79.73M21.749 81.23V79.73H39.249M39.249 79.73C36.249 38.23 89.749 41.23 86.249 80.23V82.7297H212.749C206.749 39.2297 261.249 39.2297 259.249 79.6608M258.747 79.6608H259.249" stroke="black"/>
</svg>
