<svg width="304" height="96" viewBox="0 0 304 96" fill="none" xmlns="http://www.w3.org/2000/svg">
<circle cx="63.0835" cy="74.3384" r="20.5" fill="#EDADBF" stroke="black"/>
<circle cx="236.083" cy="74.3384" r="20.5" fill="#EDADBF" stroke="black"/>
<path d="M133.082 12.8382L131.582 9.33823C171.582 1.33835 193.082 1.83838 232.082 13.3383L228.582 17.8383C208.582 9.83829 190.582 8.83829 174.582 8.33836C172.082 7.83836 168.082 7.83832 165.582 8.33823C155.582 8.33836 143.582 9.83836 133.082 12.8382Z" stroke="black" stroke-width="0.5"/>
<path d="M131.582 9.33842L131.082 7.83842C167.082 -3.16162 199.582 0.838253 235.082 9.83842L232.082 13.3384C192.082 0.838379 166.082 2.33838 131.582 9.33842Z" stroke="black" stroke-width="0.5"/>
<path d="M131.582 9.33837C183.082 -2.16166 211.582 7.83838 232.082 13.3384" stroke="black" stroke-width="0.5"/>
<path d="M227.083 30.8384L224.083 16.3384C219.583 14.8384 208.083 9.33838 174.583 8.33838L171.083 30.3384C182.083 29.8384 199.583 28.3384 226.583 28.3384" stroke="black" stroke-width="0.5"/>
<path d="M165.583 8.33838C132.583 9.33838 112.583 18.3384 93.5835 35.8384L96.0835 33.8384L160.083 30.8384L165.583 8.33838Z" stroke="black" stroke-width="0.5"/>
<path d="M240.082 22.8384C236.415 20.1717 230.582 17.8384 224.082 16.3384L226.582 28.3384H233.082C236.082 26.8384 239.082 24.6071 240.082 22.8384Z" stroke="black" stroke-width="0.5"/>
<path d="M97.0835 78.8384H164.083L198.583 77.3384M97.0835 78.8384C97.0835 80.3384 97.5835 81.3384 98.5835 82.8384M97.0835 78.8384H87.0835V82.8384H98.5835M198.583 77.3384L199.583 82.8384M198.583 77.3384H213.083L213.583 82.8384H199.583M199.583 82.8384H98.5835" stroke="black" stroke-width="0.5"/>
<path d="M97.0826 78.8384C92.5835 74.3384 89.5835 52.3384 93.5826 35.8384L165.583 31.8384C161.583 36.8384 160.583 70.8384 164.083 78.8384H97.0826Z" stroke="black" stroke-width="0.5"/>
<path d="M229.083 30.8384L165.583 31.8384C161.583 36.8384 160.583 70.8384 164.083 78.8384L198.583 77.3384C203.083 75.8384 209.583 70.3384 229.083 30.8384Z" stroke="black" stroke-width="0.5"/>
<path d="M171.083 30.3385C166.583 30.8385 163.083 30.8385 160.083 30.8385L165.583 8.33845C168.583 7.83838 171.583 7.83838 174.583 8.33845L171.083 30.3385Z" stroke="black" stroke-width="0.5"/>
<path d="M99.5835 32.3385C104.083 37.8385 111.083 34.3385 115.083 32.8385C116.083 17.3384 103.083 25.3384 99.5835 32.3385Z" stroke="black" stroke-width="0.5"/>
<path d="M235.082 9.83838L232.082 13.3384C249.082 18.8384 259.582 21.8384 272.082 28.3384H273.582L281.582 26.8384C266.582 20.3384 259.082 17.8384 235.082 9.83838Z" fill="#EFC7D3" stroke="black" stroke-width="0.5"/>
<path d="M272.082 28.3384C261.582 22.8384 242.582 16.3384 232.082 13.3384L230.082 15.8384L245.082 23.3384C243.582 25.8384 239.582 27.8384 233.582 30.5384C245.582 29.8384 262.582 28.8384 272.082 28.3384Z" fill="#EFC7D3" stroke="black" stroke-width="0.5"/>
<path d="M277.583 34.6384L283.582 32.3384L273.083 28.3384L229.083 30.8384C221.583 45.8384 206.583 76.3384 198.583 77.3384H213.083C211.583 66.3384 221.083 42.8384 246.083 51.8384C256.583 46.3384 266.583 40.8384 277.583 34.6384Z" fill="#EFC7D3" stroke="black" stroke-width="0.5"/>
<path d="M278.582 34.3384C266.582 40.8384 256.582 46.3384 246.082 51.8384C250.582 54.8384 261.082 60.8384 260.082 79.8384L285.082 79.3384V77.8384C293.582 76.8384 302.082 80.3384 300.582 66.3384L302.582 56.3384C302.582 54.8384 300.082 50.8384 297.582 50.3384C299.082 47.8384 296.082 38.8384 296.082 38.8384V37.3384L292.082 34.3384L287.082 32.8384L283.582 32.3384L278.582 34.3384Z" fill="#EFC7D3" stroke="black" stroke-width="0.5"/>
<path d="M281.582 26.8384L273.082 28.3384L283.582 32.3384C293.082 33.3384 292.081 34.8384 296.076 37.2586L295.582 28.8384L281.582 26.8384Z" fill="#EFC7D3"/>
<path d="M296.082 37.3384L296.076 37.2586M296.076 37.2586L295.582 28.8384L281.582 26.8384L273.082 28.3384L283.582 32.3384C293.082 33.3384 292.081 34.8384 296.076 37.2586Z" stroke="black" stroke-width="0.5"/>
<path d="M294.583 36.8386C294.083 34.3385 283.083 34.1384 277.583 34.6384" stroke="black" stroke-width="0.5"/>
<path d="M300.583 66.8384L261.083 68.8384C260.583 63.8384 258.417 59.6717 256.583 57.8384L302.583 55.3384M301.083 52.8384C290.083 51.3384 279.083 46.5384 267.083 40.5384M229.083 30.8384L273.083 28.3384L281.583 26.8384" stroke="black" stroke-width="0.5"/>
<path d="M291.083 40.8384C291.083 38.8384 290.083 34.8384 286.583 32.8384C288.804 32.8384 292.181 33.8788 294.692 36.2484C295.156 37.7784 294.083 41.3384 291.042 42.8384C291.028 42.2481 291.083 41.5627 291.083 40.8384Z" fill="#EFC7D3"/>
<path d="M273.083 43.3384C280.079 43.6882 286.096 43.7933 291.477 44.3384M298.083 45.3384C295.981 44.8877 293.787 44.5725 291.477 44.3384M296.083 37.8384C295.666 37.2533 295.196 36.724 294.692 36.2484M291.477 44.3384C291.15 43.9936 291.056 43.4706 291.042 42.8384M291.042 42.8384C291.028 42.2481 291.083 41.5627 291.083 40.8384C291.083 38.8384 290.083 34.8384 286.583 32.8384C288.804 32.8384 292.181 33.8788 294.692 36.2484M291.042 42.8384C294.083 41.3384 295.156 37.7784 294.692 36.2484" stroke="black" stroke-width="0.5"/>
<path d="M291.083 40.8384C286.583 40.8384 284.583 36.8384 283.583 34.3384" stroke="black" stroke-width="0.5"/>
<path d="M133.082 12.9384C119.582 16.9384 107.582 22.8384 93.582 35.8384C100.582 23.8384 116.082 14.3384 131.582 9.33838L133.082 12.9384Z" fill="#EFC7D3" stroke="black" stroke-width="0.5"/>
<path d="M131.582 9.33838C111.582 15.0124 93.582 32.3384 85.582 30.3384C98.582 20.8384 114.582 12.3384 131.082 7.83838L131.582 9.33838Z" fill="#EFC7D3" stroke="black" stroke-width="0.5"/>
<path d="M10.5827 48.3384H4.5827C2.08203 52.3384 2.08203 62.3384 2.5827 65.8384C1.08203 66.8384 1.08263 71.3384 2.0827 72.8384L6.0827 73.3384V74.8384L2.0827 76.8384V78.8384C6.0827 79.8384 14.5827 81.8384 22.5827 81.3384V79.8384H40.0827C39.416 71.3384 41.0827 60.8384 50.0827 53.8384C47.5827 49.8384 40.5827 45.3384 37.5827 44.8384C27.5827 43.8384 12.5827 46.3384 10.5827 48.3384Z" fill="#EFC7D3" stroke="black" stroke-width="0.5"/>
<path d="M93.5835 35.8384C75.7502 36.6717 44.0835 41.5384 33.5835 44.5384L37.5835 44.8384C42.5835 46.3384 48.0835 50.6717 50.0835 53.8384C63.0825 44.3384 88.5825 51.3384 87.0825 78.8384H97.0825C90.0825 67.8384 91.0825 45.8384 93.5835 35.8384Z" fill="#EFC7D3" stroke="black" stroke-width="0.5"/>
<path d="M10.582 48.3384H4.58203C37.0822 28.8383 59.0823 34.8384 85.082 30.3384L94.0823 35.8384C77.0823 36.8384 48.082 40.3384 34.082 44.5384C26.082 44.3384 12.082 46.3384 10.582 48.3384Z" fill="#EFC7D3" stroke="black" stroke-width="0.5"/>
<path d="M37.5835 44.8385C30.0835 43.8384 13.0835 45.8384 10.5835 48.3385C9.78349 50.7384 12.9168 53.6717 14.5835 54.8384C24.0835 56.3384 37.5835 50.3384 37.5835 44.8385Z" fill="#EFC7D3" stroke="black" stroke-width="0.5"/>
<path d="M4.58273 48.3384C11.5827 49.3384 5.58273 59.8384 2.58273 64.8384C2.08266 57.8384 2.58252 52.3384 4.58273 48.3384Z" fill="#EFC7D3" stroke="black" stroke-width="0.5"/>
<path d="M22.582 84.3384V79.8384H40.082L40.582 84.3384H22.582Z" fill="#EFC7D3" stroke="black" stroke-width="0.5"/>
<path d="M3.08398 65.8384C4.58398 68.3384 6.58398 71.505 6.08398 73.3384M22.584 79.8384C12.084 80.3384 7.58398 76.3384 8.58398 72.8384C9.08398 72.3384 10.584 70.8384 11.584 70.8384" stroke="black" stroke-width="0.5"/>
<path d="M32.584 74.8384C30.084 70.8384 24.584 65.8385 21.584 64.3385C19.8339 63.8384 17.2088 63.9634 14.4588 64.3385C12.8338 65.6718 11.584 68.8384 12.084 71.8384C12.084 73.005 13.3914 75.3384 16.084 75.3384C20.584 75.3384 27.584 75.8384 32.584 74.8384Z" fill="#EFC7D3"/>
<path d="M6.58398 65.8385C8.83393 65.3384 11.7088 64.7135 14.4588 64.3385M14.4588 64.3385C17.2088 63.9634 19.8339 63.8384 21.584 64.3385C24.584 65.8385 30.084 70.8384 32.584 74.8384C27.584 75.8384 20.584 75.3384 16.084 75.3384C13.3914 75.3384 12.084 73.005 12.084 71.8384C11.584 68.8384 12.8338 65.6718 14.4588 64.3385Z" stroke="black" stroke-width="0.5"/>
<path d="M12.084 71.3385C20.084 69.8385 23.584 72.467 26.584 73.967M13.584 74.3385L31.084 73.8385" stroke="black" stroke-width="0.5"/>
<path d="M22.582 82.8384H32.082C34.082 82.8384 35.582 80.8384 35.082 79.8384M38.582 79.8384V84.3384" stroke="black" stroke-width="0.5"/>
<path d="M22.5834 81.3386C18.0834 81.3386 13.5834 81.8386 2.08344 78.8386V76.8386L6.08344 74.8386V73.3386L2.08344 72.8386C1.58252 71.3384 0.582715 68.3384 2.58271 65.8384C2.08295 57.8384 2.58295 51.3384 4.58344 48.3381C37.0834 28.8385 59.0834 34.8386 85.0834 30.3386C163.083 -24.6615 245.083 12.3384 282.083 26.8386L295.583 28.8384L296.083 35.8384V38.8384C297.582 43.8384 298.917 48.3384 297.583 50.3384C300.083 51.3384 302.583 54.505 302.583 56.3384L300.583 66.3384C301.035 77.1863 298.627 77.4106 289.296 77.723C288.305 77.7562 286.236 77.7904 285.083 77.8384V79.3384L260.083 79.7694M22.5834 81.3386V84.3386H40.5818L40.0835 79.8386M22.5834 81.3386V79.8386H40.0835M40.0835 79.8386C37.0835 38.3386 90.5834 41.3386 87.0834 80.3386V82.8384H213.583C207.583 39.3384 262.083 39.3384 260.083 79.7694M259.582 79.7694H260.083" stroke="black"/>
</svg>
