<svg width="304" height="95" viewBox="0 0 304 95" fill="none" xmlns="http://www.w3.org/2000/svg">
<circle cx="63.0938" cy="73.6919" r="20.5" fill="#EDADBF" stroke="black"/>
<circle cx="236.094" cy="73.6919" r="20.5" fill="#EDADBF" stroke="black"/>
<path d="M133.092 12.1918L131.592 8.69175C171.592 0.691862 193.092 1.19189 232.092 12.6918L228.592 17.1918C208.592 9.1918 190.592 8.1918 174.592 7.69187C172.092 7.19187 168.092 7.19183 165.592 7.69175C155.592 7.69187 143.592 9.19187 133.092 12.1918Z" fill="#EFC7D3" stroke="black" stroke-width="0.5"/>
<path d="M131.592 8.69194L131.092 7.19194C167.092 -3.80811 199.592 0.191769 235.092 9.19194L232.092 12.6919C192.092 0.191895 166.092 1.69189 131.592 8.69194Z" fill="#EFC7D3" stroke="black" stroke-width="0.5"/>
<path d="M131.592 8.692C183.092 -2.80802 211.592 7.19202 232.092 12.692" stroke="black" stroke-width="0.5"/>
<path d="M171.094 29.6919L174.594 7.69189C208.094 8.69189 219.594 14.1919 224.094 15.6919L226.577 27.6919C199.586 27.6925 182.091 29.192 171.094 29.6919Z" fill="#EFC7D3"/>
<path d="M227.094 30.1919L224.094 15.6919C219.594 14.1919 208.094 8.69189 174.594 7.69189L171.094 29.6919C182.094 29.1919 199.594 27.6919 226.594 27.6919" stroke="black" stroke-width="0.5"/>
<path d="M165.594 7.69189C132.594 8.69189 112.594 17.6919 93.5938 35.1919L96.0938 33.1919L160.094 30.1919L165.594 7.69189Z" fill="#EFC7D3" stroke="black" stroke-width="0.5"/>
<path d="M240.092 22.1919C236.425 19.5252 230.592 17.1919 224.092 15.6919L226.592 27.6919H233.092C236.092 26.1919 239.092 23.9606 240.092 22.1919Z" fill="#EFC7D3" stroke="black" stroke-width="0.5"/>
<path d="M97.0938 78.1919H164.094L198.594 76.6919H213.094L213.594 82.1919H199.594H98.5938H87.0938V78.1919H97.0938Z" fill="#EFC7D3"/>
<path d="M97.0938 78.1919H164.094L198.594 76.6919M97.0938 78.1919C97.0938 79.6919 97.5938 80.6919 98.5938 82.1919M97.0938 78.1919H87.0938V82.1919H98.5938M198.594 76.6919L199.594 82.1919M198.594 76.6919H213.094L213.594 82.1919H199.594M199.594 82.1919H98.5938" stroke="black" stroke-width="0.5"/>
<path d="M97.0929 78.1919C92.5937 73.6919 89.5938 51.6919 93.5929 35.1919L165.594 31.1919C161.594 36.1919 160.594 70.1919 164.094 78.1919H97.0929Z" fill="#EFC7D3" stroke="black" stroke-width="0.5"/>
<path d="M229.094 30.1919L165.594 31.1919C161.594 36.1919 160.594 70.1919 164.094 78.1919L198.594 76.6919C203.094 75.1919 209.594 69.6919 229.094 30.1919Z" fill="#EFC7D3" stroke="black" stroke-width="0.5"/>
<path d="M171.094 29.692C166.594 30.192 163.094 30.192 160.094 30.192L165.594 7.69197C168.594 7.19189 171.594 7.19189 174.594 7.69197L171.094 29.692Z" fill="#EFC7D3" stroke="black" stroke-width="0.5"/>
<path d="M99.5938 31.6922C104.094 37.1922 111.094 33.6922 115.094 32.1922C116.094 16.692 103.094 24.692 99.5938 31.6922Z" fill="#EFC7D3" stroke="black" stroke-width="0.5"/>
<path d="M235.092 9.19189L232.092 12.6919C249.092 18.1919 259.592 21.1919 272.092 27.6919H273.592L281.592 26.1919C266.592 19.6919 259.092 17.1919 235.092 9.19189Z" stroke="black" stroke-width="0.5"/>
<path d="M272.092 27.6919C261.592 22.1919 242.592 15.6919 232.092 12.6919L230.092 15.1919L245.092 22.6919C243.592 25.1919 239.592 27.1919 233.592 29.8919C245.592 29.1919 262.592 28.1919 272.092 27.6919Z" stroke="black" stroke-width="0.5"/>
<path d="M277.594 33.9919L283.592 31.6919L273.093 27.6919L229.093 30.1919C221.593 45.1919 206.593 75.6919 198.593 76.6919H213.093C211.593 65.6919 221.093 42.1919 246.094 51.1919C256.594 45.6919 266.594 40.1919 277.594 33.9919Z" stroke="black" stroke-width="0.5"/>
<path d="M278.592 33.6919C266.592 40.1919 256.592 45.6919 246.092 51.1919C250.592 54.1919 261.092 60.1919 260.092 79.1919L285.092 78.6919V77.1919C293.592 76.1919 302.092 79.6919 300.592 65.6919L302.592 55.6919C302.592 54.1919 300.092 50.1919 297.592 49.6919C299.092 47.1919 296.092 38.1919 296.092 38.1919V36.6919L292.092 33.6919L287.092 32.1919L283.592 31.6919L278.592 33.6919Z" stroke="black" stroke-width="0.5"/>
<path d="M296.092 36.6919L296.086 36.6121M296.086 36.6121L295.592 28.1919L281.592 26.1919L273.092 27.6919L283.592 31.6919C293.092 32.6919 292.091 34.1919 296.086 36.6121Z" stroke="black" stroke-width="0.5"/>
<path d="M294.594 36.1921C294.094 33.692 283.094 33.4919 277.594 33.9919" stroke="black" stroke-width="0.5"/>
<path d="M300.594 66.1919L261.094 68.1919C260.594 63.1919 258.427 59.0252 256.594 57.1919L302.594 54.6919M301.094 52.1919C290.094 50.6919 279.094 45.8919 267.094 39.8919M229.094 30.1919L273.094 27.6919L281.594 26.1919" stroke="black" stroke-width="0.5"/>
<path d="M273.094 42.6919C280.089 43.0417 286.106 43.1468 291.487 43.6919M298.094 44.6919C295.991 44.2413 293.798 43.926 291.487 43.6919M296.094 37.1919C295.676 36.6068 295.207 36.0775 294.703 35.6019M291.487 43.6919C291.161 43.3471 291.067 42.8241 291.052 42.1919M291.052 42.1919C291.038 41.6016 291.094 40.9162 291.094 40.1919C291.094 38.1919 290.094 34.1919 286.594 32.1919C288.815 32.1919 292.191 33.2323 294.703 35.6019M291.052 42.1919C294.094 40.6919 295.166 37.1319 294.703 35.6019" stroke="black" stroke-width="0.5"/>
<path d="M291.094 40.1919C286.594 40.1919 284.594 36.1919 283.594 33.6919" stroke="black" stroke-width="0.5"/>
<path d="M133.092 12.2919C119.592 16.2919 107.592 22.1919 93.5923 35.1919C100.592 23.1919 116.092 13.6919 131.592 8.69189L133.092 12.2919Z" fill="#E0426F" stroke="black" stroke-width="0.5"/>
<path d="M131.592 8.69189C111.592 14.3659 93.5923 31.6919 85.5923 29.6919C98.5923 20.1919 114.592 11.6919 131.092 7.19189L131.592 8.69189Z" fill="#E0426F" stroke="black" stroke-width="0.5"/>
<path d="M10.593 47.6918H4.59295C2.09229 51.6918 2.09229 61.6918 2.59295 65.1918C1.09229 66.1918 1.09288 70.6918 2.09295 72.1918L6.09295 72.6918V74.1918L2.09295 76.1918V78.1918C6.09295 79.1918 14.593 81.1918 22.593 80.6918V79.1918H40.0929C39.4263 70.6918 41.0929 60.1918 50.0929 53.1918C47.5929 49.1918 40.5929 44.6918 37.5929 44.1918C27.5929 43.1918 12.593 45.6918 10.593 47.6918Z" fill="#E0426F" stroke="black" stroke-width="0.5"/>
<path d="M93.5938 35.1919C75.7604 36.0252 44.0938 40.8919 33.5938 43.8919L37.5938 44.1919C42.5938 45.6919 48.0938 50.0252 50.0938 53.1919C63.0928 43.6919 88.5928 50.6919 87.0928 78.1919H97.0928C90.0928 67.1919 91.0928 45.1919 93.5938 35.1919Z" fill="#E0426F" stroke="black" stroke-width="0.5"/>
<path d="M10.5918 47.6919H4.5918C37.092 28.1918 59.092 34.1919 85.0918 29.6919L94.092 35.1919C77.092 36.1919 48.0918 39.6919 34.0918 43.8919C26.0918 43.6919 12.0918 45.6919 10.5918 47.6919Z" fill="#E0426F" stroke="black" stroke-width="0.5"/>
<path d="M37.5937 44.192C30.0937 43.1919 13.0937 45.1919 10.5937 47.692C9.79374 50.0919 12.9271 53.0252 14.5937 54.1919C24.0938 55.6919 37.5937 49.6919 37.5937 44.192Z" fill="#E0426F" stroke="black" stroke-width="0.5"/>
<path d="M4.59298 47.6919C11.593 48.6919 5.59298 59.1919 2.59298 64.1919C2.09291 57.1919 2.59277 51.6919 4.59298 47.6919Z" fill="#E0426F" stroke="black" stroke-width="0.5"/>
<path d="M22.5923 83.6919V79.1919H40.0923L40.5923 83.6919H22.5923Z" fill="#E0426F" stroke="black" stroke-width="0.5"/>
<path d="M3.09375 65.1919C4.59375 67.6919 6.59375 70.8586 6.09375 72.6919M22.5938 79.1919C12.0938 79.6919 7.59375 75.6919 8.59375 72.1919C9.09375 71.6919 10.5938 70.1919 11.5938 70.1919" stroke="black" stroke-width="0.5"/>
<path d="M32.5938 74.192C30.0938 70.192 24.5938 65.1921 21.5938 63.6921C19.8437 63.1921 17.2186 63.3171 14.4685 63.6921C12.8436 65.0254 11.5938 68.192 12.0938 71.192C12.0938 72.3587 13.4012 74.692 16.0938 74.692C20.5938 74.692 27.5938 75.192 32.5938 74.192Z" fill="#E0426F"/>
<path d="M6.59375 65.1921C8.84369 64.6921 11.7186 64.0671 14.4685 63.6921M14.4685 63.6921C17.2186 63.3171 19.8437 63.1921 21.5938 63.6921C24.5938 65.1921 30.0938 70.192 32.5938 74.192C27.5938 75.192 20.5938 74.692 16.0938 74.692C13.4012 74.692 12.0938 72.3587 12.0938 71.192C11.5938 68.192 12.8436 65.0254 14.4685 63.6921Z" stroke="black" stroke-width="0.5"/>
<path d="M12.0938 70.6921C20.0938 69.1921 23.5938 71.8206 26.5938 73.3206M13.5938 73.6921L31.0938 73.1921" stroke="black" stroke-width="0.5"/>
<path d="M22.5918 82.1919H32.0918C34.0918 82.1919 35.5918 80.1919 35.0918 79.1919M38.5918 79.1919V83.6919" stroke="black" stroke-width="0.5"/>
<path d="M22.5937 80.6921C18.0937 80.6921 13.5937 81.1921 2.0937 78.1921V76.1921L6.0937 74.1921V72.6921L2.0937 72.1921C1.59277 70.6919 0.592969 67.6919 2.59296 65.1919C2.09321 57.1919 2.59321 50.6919 4.5937 47.6916C37.0937 28.192 59.0937 34.1921 85.0937 29.6921C163.094 -25.308 245.094 11.6919 282.094 26.1921L295.594 28.1919L296.094 35.1919V38.1919C297.592 43.1919 298.927 47.6919 297.594 49.6919C300.094 50.6919 302.594 53.8586 302.594 55.6919L300.594 65.6919C301.046 76.5398 298.638 76.7641 289.306 77.0765C288.315 77.1097 286.246 77.1439 285.094 77.1919V78.6919L260.094 79.1229M22.5937 80.6921V83.6921H40.592L40.0937 79.1921M22.5937 80.6921V79.1921H40.0937M40.0937 79.1921C37.0937 37.6921 90.5937 40.6921 87.0937 79.6921V82.1919H213.594C207.594 38.6919 262.094 38.6919 260.094 79.1229M259.592 79.1229H260.094" stroke="black"/>
</svg>
