<svg width="303" height="96" viewBox="0 0 303 96" fill="none" xmlns="http://www.w3.org/2000/svg">
<circle cx="62.2607" cy="74.0605" r="20.5" fill="#E56E90" stroke="black"/>
<circle cx="235.261" cy="74.0605" r="20.5" fill="#E56E90" stroke="black"/>
<path d="M132.259 12.5604L130.759 9.0604C170.759 1.06051 192.259 1.56055 231.259 13.0605L227.759 17.5605C207.759 9.56046 189.759 8.56046 173.759 8.06052C171.259 7.56052 167.259 7.56049 164.759 8.0604C154.759 8.06052 142.759 9.56052 132.259 12.5604Z" fill="#E0426F" stroke="black" stroke-width="0.5"/>
<path d="M130.759 9.06059L130.259 7.56059C166.259 -3.43945 198.759 0.560421 234.259 9.56059L231.259 13.0606C191.259 0.560547 165.259 2.06055 130.759 9.06059Z" fill="#E0426F" stroke="black" stroke-width="0.5"/>
<path d="M130.759 9.06066C182.259 -2.43937 210.759 7.56067 231.259 13.0607" stroke="black" stroke-width="0.5"/>
<path d="M170.261 30.0605L173.761 8.06055C207.261 9.06055 218.761 14.5605 223.261 16.0605L225.743 28.0605C198.753 28.0612 181.258 29.5607 170.261 30.0605Z" fill="#E0426F"/>
<path d="M226.261 30.5605L223.261 16.0605C218.761 14.5605 207.261 9.06055 173.761 8.06055L170.261 30.0605C181.261 29.5605 198.761 28.0605 225.761 28.0605" stroke="black" stroke-width="0.5"/>
<path d="M164.761 8.06055C131.761 9.06055 111.761 18.0605 92.7607 35.5605L95.2607 33.5605L159.261 30.5605L164.761 8.06055Z" fill="#E0426F" stroke="black" stroke-width="0.5"/>
<path d="M239.259 22.5605C235.592 19.8939 229.759 17.5605 223.259 16.0605L225.759 28.0605H232.259C235.259 26.5605 238.259 24.3293 239.259 22.5605Z" fill="#E0426F" stroke="black" stroke-width="0.5"/>
<path d="M96.2607 78.5605H163.261L197.761 77.0605H212.261L212.761 82.5605H198.761H97.7607H86.2607V78.5605H96.2607Z" fill="#E0426F"/>
<path d="M96.2607 78.5605H163.261L197.761 77.0605M96.2607 78.5605C96.2607 80.0605 96.7607 81.0605 97.7607 82.5605M96.2607 78.5605H86.2607V82.5605H97.7607M197.761 77.0605L198.761 82.5605M197.761 77.0605H212.261L212.761 82.5605H198.761M198.761 82.5605H97.7607" stroke="black" stroke-width="0.5"/>
<path d="M96.2599 78.5605C91.7607 74.0605 88.7608 52.0605 92.7599 35.5605L164.761 31.5605C160.761 36.5605 159.761 70.5605 163.261 78.5605H96.2599Z" fill="#E0426F" stroke="black" stroke-width="0.5"/>
<path d="M228.261 30.5605L164.761 31.5605C160.761 36.5605 159.761 70.5605 163.261 78.5605L197.761 77.0605C202.261 75.5605 208.761 70.0605 228.261 30.5605Z" fill="#E0426F" stroke="black" stroke-width="0.5"/>
<path d="M170.261 30.0606C165.761 30.5606 162.261 30.5606 159.261 30.5606L164.761 8.06062C167.761 7.56055 170.761 7.56055 173.761 8.06062L170.261 30.0606Z" fill="#E0426F" stroke="black" stroke-width="0.5"/>
<path d="M98.7607 32.0608C103.261 37.5608 110.261 34.0608 114.261 32.5608C115.261 17.0607 102.261 25.0607 98.7607 32.0608Z" fill="#E0426F" stroke="black" stroke-width="0.5"/>
<path d="M234.259 9.56055L231.259 13.0605C248.259 18.5605 258.759 21.5605 271.259 28.0605H272.759L280.759 26.5605C265.759 20.0605 258.259 17.5605 234.259 9.56055Z" fill="#E56E90" stroke="black" stroke-width="0.5"/>
<path d="M271.259 28.0605C260.759 22.5605 241.759 16.0605 231.259 13.0605L229.259 15.5605L244.259 23.0605C242.759 25.5605 238.759 27.5605 232.759 30.2605C244.759 29.5605 261.759 28.5605 271.259 28.0605Z" fill="#E56E90" stroke="black" stroke-width="0.5"/>
<path d="M276.761 34.3605L282.759 32.0605L272.26 28.0605L228.26 30.5605C220.76 45.5605 205.76 76.0605 197.76 77.0605H212.26C210.76 66.0605 220.26 42.5605 245.261 51.5605C255.761 46.0605 265.761 40.5605 276.761 34.3605Z" fill="#E56E90" stroke="black" stroke-width="0.5"/>
<path d="M277.759 34.0606C265.759 40.5606 255.759 46.0606 245.259 51.5606C249.759 54.5605 260.259 60.5605 259.259 79.5605L284.259 79.0605V77.5605C292.759 76.5605 301.259 80.0605 299.759 66.0605L301.759 56.0605C301.759 54.5605 299.259 50.5605 296.759 50.0605C298.259 47.5605 295.259 38.5605 295.259 38.5605V37.0605L291.259 34.0605L286.259 32.5605L282.759 32.0605L277.759 34.0606Z" fill="#E56E90" stroke="black" stroke-width="0.5"/>
<path d="M280.759 26.5605L272.259 28.0605L282.759 32.0605C292.259 33.0605 291.258 34.5605 295.253 36.9807L294.759 28.5605L280.759 26.5605Z" fill="#E56E90"/>
<path d="M295.259 37.0605L295.253 36.9807M295.253 36.9807L294.759 28.5605L280.759 26.5605L272.259 28.0605L282.759 32.0605C292.259 33.0605 291.258 34.5605 295.253 36.9807Z" stroke="black" stroke-width="0.5"/>
<path d="M293.761 36.5607C293.261 34.0606 282.261 33.8606 276.761 34.3606" stroke="black" stroke-width="0.5"/>
<path d="M299.761 66.5605L260.261 68.5605C259.761 63.5605 257.594 59.3939 255.761 57.5605L301.761 55.0605M300.261 52.5605C289.261 51.0605 278.261 46.2605 266.261 40.2605M228.261 30.5605L272.261 28.0605L280.761 26.5605" stroke="black" stroke-width="0.5"/>
<path d="M290.261 40.5605C290.261 38.5605 289.261 34.5605 285.761 32.5605C287.982 32.5605 291.358 33.6009 293.87 35.9705C294.333 37.5005 293.261 41.0605 290.219 42.5605C290.205 41.9703 290.261 41.2848 290.261 40.5605Z" fill="#E56E90"/>
<path d="M272.261 43.0605C279.256 43.4103 285.273 43.5154 290.654 44.0605M297.261 45.0605C295.158 44.6099 292.964 44.2946 290.654 44.0605M295.261 37.5605C294.843 36.9754 294.374 36.4462 293.87 35.9705M290.654 44.0605C290.328 43.7158 290.234 43.1927 290.219 42.5605M290.219 42.5605C290.205 41.9703 290.261 41.2848 290.261 40.5605C290.261 38.5605 289.261 34.5605 285.761 32.5605C287.982 32.5605 291.358 33.6009 293.87 35.9705M290.219 42.5605C293.261 41.0605 294.333 37.5005 293.87 35.9705" stroke="black" stroke-width="0.5"/>
<path d="M290.261 40.5605C285.761 40.5605 283.761 36.5605 282.761 34.0605" stroke="black" stroke-width="0.5"/>
<path d="M132.259 12.6605C118.759 16.6605 106.759 22.5605 92.7588 35.5605C99.7588 23.5605 115.259 14.0605 130.759 9.06055L132.259 12.6605Z" fill="#E56E90" stroke="black" stroke-width="0.5"/>
<path d="M130.759 9.06055C110.759 14.7346 92.7588 32.0605 84.7588 30.0605C97.7588 20.5605 113.759 12.0605 130.259 7.56055L130.759 9.06055Z" fill="#E56E90" stroke="black" stroke-width="0.5"/>
<path d="M9.75946 48.0604H3.75946C1.25879 52.0604 1.25879 62.0604 1.75946 65.5604C0.258789 66.5604 0.259387 71.0604 1.25946 72.5604L5.25946 73.0604V74.5604L1.25946 76.5604V78.5604C5.25946 79.5604 13.7595 81.5604 21.7595 81.0604V79.5604H39.2595C38.5928 71.0604 40.2595 60.5604 49.2595 53.5604C46.7595 49.5604 39.7595 45.0604 36.7595 44.5604C26.7595 43.5604 11.7595 46.0604 9.75946 48.0604Z" fill="#E56E90" stroke="black" stroke-width="0.5"/>
<path d="M92.7607 35.5605C74.9274 36.3939 43.2607 41.2605 32.7607 44.2605L36.7607 44.5605C41.7607 46.0605 47.2607 50.3939 49.2607 53.5605C62.2598 44.0605 87.7598 51.0605 86.2598 78.5605H96.2598C89.2598 67.5605 90.2598 45.5605 92.7607 35.5605Z" fill="#E56E90" stroke="black" stroke-width="0.5"/>
<path d="M9.75879 48.0606H3.75879C36.259 28.5605 58.259 34.5605 84.2588 30.0605L93.259 35.5605C76.259 36.5605 47.2588 40.0605 33.2588 44.2606C25.2588 44.0605 11.2588 46.0605 9.75879 48.0606Z" fill="#E56E90" stroke="black" stroke-width="0.5"/>
<path d="M36.7602 44.5606C29.2602 43.5605 12.2602 45.5605 9.76024 48.0606C8.96024 50.4606 12.0936 53.3939 13.7602 54.5605C23.2603 56.0605 36.7602 50.0605 36.7602 44.5606Z" fill="#E56E90" stroke="black" stroke-width="0.5"/>
<path d="M3.75948 48.0605C10.7595 49.0605 4.75948 59.5605 1.75948 64.5605C1.25941 57.5605 1.75928 52.0605 3.75948 48.0605Z" fill="#E56E90" stroke="black" stroke-width="0.5"/>
<path d="M21.7588 84.0605V79.5605H39.2588L39.7588 84.0605H21.7588Z" fill="#E56E90" stroke="black" stroke-width="0.5"/>
<path d="M2.26074 65.5605C3.76074 68.0605 5.76074 71.2272 5.26074 73.0605M21.7607 79.5605C11.2607 80.0605 6.76074 76.0605 7.76074 72.5605C8.26074 72.0605 9.76074 70.5605 10.7607 70.5605" stroke="black" stroke-width="0.5"/>
<path d="M31.7607 74.5607C29.2607 70.5607 23.7607 65.5607 20.7607 64.0607C19.0107 63.5607 16.3856 63.6857 13.6355 64.0607C12.0106 65.3941 10.7607 68.5607 11.2607 71.5607C11.2607 72.7273 12.5682 75.0607 15.2607 75.0607C19.7607 75.0607 26.7607 75.5607 31.7607 74.5607Z" fill="#E56E90"/>
<path d="M5.76074 65.5607C8.01068 65.0607 10.8856 64.4357 13.6355 64.0607M13.6355 64.0607C16.3856 63.6857 19.0107 63.5607 20.7607 64.0607C23.7607 65.5607 29.2607 70.5607 31.7607 74.5607C26.7607 75.5607 19.7607 75.0607 15.2607 75.0607C12.5682 75.0607 11.2607 72.7273 11.2607 71.5607C10.7607 68.5607 12.0106 65.3941 13.6355 64.0607Z" stroke="black" stroke-width="0.5"/>
<path d="M11.2607 71.0607C19.2607 69.5608 22.7607 72.1893 25.7607 73.6893M12.7607 74.0608L30.2607 73.5608" stroke="black" stroke-width="0.5"/>
<path d="M21.7588 82.5605H31.2588C33.2588 82.5605 34.7588 80.5605 34.2588 79.5605M37.7588 79.5605V84.0605" stroke="black" stroke-width="0.5"/>
<path d="M21.7607 81.0608C17.2607 81.0608 12.7607 81.5608 1.26069 78.5608V76.5608L5.26069 74.5608V73.0608L1.26069 72.5608C0.759766 71.0605 -0.240039 68.0605 1.75996 65.5605C1.2602 57.5605 1.7602 51.0605 3.76069 48.0603C36.2607 28.5607 58.2607 34.5607 84.2607 30.0607C162.261 -24.9394 244.261 12.0605 281.261 26.5607L294.761 28.5605L295.261 35.5605V38.5605C296.759 43.5605 298.094 48.0605 296.761 50.0605C299.261 51.0605 301.761 54.2272 301.761 56.0605L299.761 66.0605C300.213 76.9085 297.805 77.1327 288.473 77.4452C287.482 77.4784 285.413 77.5125 284.261 77.5605V79.0605L259.261 79.4916M21.7607 81.0608V84.0608H39.759L39.2607 79.5608M21.7607 81.0608V79.5608H39.2607M39.2607 79.5608C36.2607 38.0608 89.7607 41.0608 86.2607 80.0608V82.5605H212.761C206.761 39.0605 261.261 39.0605 259.261 79.4916M258.759 79.4916H259.261" stroke="black"/>
</svg>
