<svg width="304" height="96" viewBox="0 0 304 96" fill="none" xmlns="http://www.w3.org/2000/svg">
<circle cx="63.0635" cy="74.3384" r="20.5" fill="#EDADBF" stroke="black"/>
<circle cx="236.063" cy="74.3384" r="20.5" fill="#EDADBF" stroke="black"/>
<path d="M133.062 12.8382L131.562 9.33823C171.562 1.33835 193.062 1.83838 232.062 13.3383L228.562 17.8383C208.562 9.83829 190.562 8.83829 174.562 8.33836C172.062 7.83836 168.062 7.83832 165.562 8.33823C155.562 8.33836 143.562 9.83836 133.062 12.8382Z" stroke="black" stroke-width="0.5"/>
<path d="M131.562 9.33842L131.062 7.83842C167.062 -3.16162 199.562 0.838253 235.062 9.83842L232.062 13.3384C192.062 0.838379 166.062 2.33838 131.562 9.33842Z" stroke="black" stroke-width="0.5"/>
<path d="M131.562 9.33837C183.062 -2.16166 211.562 7.83838 232.062 13.3384" stroke="black" stroke-width="0.5"/>
<path d="M227.063 30.8384L224.063 16.3384C219.563 14.8384 208.063 9.33838 174.563 8.33838L171.063 30.3384C182.063 29.8384 199.563 28.3384 226.563 28.3384" stroke="black" stroke-width="0.5"/>
<path d="M165.563 8.33838C132.563 9.33838 112.563 18.3384 93.5635 35.8384L96.0635 33.8384L160.063 30.8384L165.563 8.33838Z" stroke="black" stroke-width="0.5"/>
<path d="M240.062 22.8384C236.395 20.1717 230.562 17.8384 224.062 16.3384L226.562 28.3384H233.062C236.062 26.8384 239.062 24.6071 240.062 22.8384Z" stroke="black" stroke-width="0.5"/>
<path d="M97.0635 78.8384H164.063L198.563 77.3384M97.0635 78.8384C97.0635 80.3384 97.5635 81.3384 98.5635 82.8384M97.0635 78.8384H87.0635V82.8384H98.5635M198.563 77.3384L199.563 82.8384M198.563 77.3384H213.063L213.563 82.8384H199.563M199.563 82.8384H98.5635" stroke="black" stroke-width="0.5"/>
<path d="M97.0626 78.8384C92.5635 74.3384 89.5635 52.3384 93.5626 35.8384L165.563 31.8384C161.563 36.8384 160.563 70.8384 164.063 78.8384H97.0626Z" stroke="black" stroke-width="0.5"/>
<path d="M229.063 30.8384L165.563 31.8384C161.564 36.8384 160.564 70.8384 164.063 78.8384L198.563 77.3384C203.063 75.8384 209.563 70.3384 229.063 30.8384Z" stroke="black" stroke-width="0.5"/>
<path d="M171.063 30.3385C166.563 30.8385 163.063 30.8385 160.063 30.8385L165.563 8.33845C168.563 7.83838 171.563 7.83838 174.563 8.33845L171.063 30.3385Z" stroke="black" stroke-width="0.5"/>
<path d="M99.5635 32.3385C104.063 37.8385 111.063 34.3385 115.063 32.8385C116.063 17.3384 103.063 25.3384 99.5635 32.3385Z" stroke="black" stroke-width="0.5"/>
<path d="M235.062 9.83838L232.062 13.3384C249.062 18.8384 259.562 21.8384 272.062 28.3384H273.562L281.562 26.8384C266.562 20.3384 259.062 17.8384 235.062 9.83838Z" fill="#E56E90" stroke="black" stroke-width="0.5"/>
<path d="M272.062 28.3384C261.562 22.8384 242.562 16.3384 232.062 13.3384L230.062 15.8384L245.062 23.3384C243.562 25.8384 239.562 27.8384 233.562 30.5384C245.562 29.8384 262.562 28.8384 272.062 28.3384Z" fill="#E56E90" stroke="black" stroke-width="0.5"/>
<path d="M277.563 34.6384L283.562 32.3384L273.062 28.3384L229.062 30.8384C221.562 45.8384 206.562 76.3384 198.562 77.3384H213.062C211.562 66.3384 221.062 42.8384 246.063 51.8384C256.563 46.3384 266.563 40.8384 277.563 34.6384Z" fill="#E56E90" stroke="black" stroke-width="0.5"/>
<path d="M278.562 34.3384C266.562 40.8384 256.562 46.3384 246.062 51.8384C250.562 54.8384 261.062 60.8384 260.062 79.8384L285.062 79.3384V77.8384C293.562 76.8384 302.062 80.3384 300.562 66.3384L302.562 56.3384C302.562 54.8384 300.062 50.8384 297.562 50.3384C299.062 47.8384 296.062 38.8384 296.062 38.8384V37.3384L292.062 34.3384L287.062 32.8384L283.562 32.3384L278.562 34.3384Z" fill="#E56E90" stroke="black" stroke-width="0.5"/>
<path d="M281.562 26.8384L273.062 28.3384L283.562 32.3384C293.062 33.3384 292.06 34.8384 296.056 37.2586L295.562 28.8384L281.562 26.8384Z" fill="#E56E90"/>
<path d="M296.062 37.3384L296.056 37.2586M296.056 37.2586L295.562 28.8384L281.562 26.8384L273.062 28.3384L283.562 32.3384C293.062 33.3384 292.06 34.8384 296.056 37.2586Z" stroke="black" stroke-width="0.5"/>
<path d="M294.563 36.8386C294.063 34.3385 283.063 34.1384 277.563 34.6384" stroke="black" stroke-width="0.5"/>
<path d="M300.563 66.8384L261.063 68.8384C260.563 63.8384 258.397 59.6717 256.563 57.8384L302.563 55.3384M301.063 52.8384C290.063 51.3384 279.063 46.5384 267.063 40.5384M229.063 30.8384L273.063 28.3384L281.563 26.8384" stroke="black" stroke-width="0.5"/>
<path d="M291.063 40.8384C291.063 38.8384 290.063 34.8384 286.563 32.8384C288.784 32.8384 292.161 33.8788 294.672 36.2484C295.136 37.7784 294.063 41.3384 291.022 42.8384C291.008 42.2481 291.063 41.5627 291.063 40.8384Z" fill="#E56E90"/>
<path d="M273.063 43.3384C280.059 43.6882 286.076 43.7933 291.457 44.3384M298.063 45.3384C295.96 44.8877 293.767 44.5725 291.457 44.3384M296.063 37.8384C295.646 37.2533 295.176 36.724 294.672 36.2484M291.457 44.3384C291.13 43.9936 291.036 43.4706 291.022 42.8384M291.022 42.8384C291.008 42.2481 291.063 41.5627 291.063 40.8384C291.063 38.8384 290.063 34.8384 286.563 32.8384C288.784 32.8384 292.161 33.8788 294.672 36.2484M291.022 42.8384C294.063 41.3384 295.136 37.7784 294.672 36.2484" stroke="black" stroke-width="0.5"/>
<path d="M291.063 40.8384C286.563 40.8384 284.563 36.8384 283.563 34.3384" stroke="black" stroke-width="0.5"/>
<path d="M133.062 12.9384C119.562 16.9384 107.562 22.8384 93.5615 35.8384C100.562 23.8384 116.062 14.3384 131.562 9.33838L133.062 12.9384Z" fill="#EFC7D3" stroke="black" stroke-width="0.5"/>
<path d="M131.562 9.33838C111.562 15.0124 93.5615 32.3384 85.5615 30.3384C98.5615 20.8384 114.562 12.3384 131.062 7.83838L131.562 9.33838Z" fill="#EFC7D3" stroke="black" stroke-width="0.5"/>
<path d="M10.5622 48.3384H4.56219C2.06152 52.3384 2.06152 62.3384 2.56219 65.8384C1.06152 66.8384 1.06212 71.3384 2.06219 72.8384L6.06219 73.3384V74.8384L2.06219 76.8384V78.8384C6.06219 79.8384 14.5622 81.8384 22.5622 81.3384V79.8384H40.0622C39.3955 71.3384 41.0622 60.8384 50.0622 53.8384C47.5622 49.8384 40.5622 45.3384 37.5622 44.8384C27.5622 43.8384 12.5622 46.3384 10.5622 48.3384Z" fill="#EFC7D3" stroke="black" stroke-width="0.5"/>
<path d="M93.5635 35.8384C75.7301 36.6717 44.0635 41.5384 33.5635 44.5384L37.5635 44.8384C42.5635 46.3384 48.0635 50.6717 50.0635 53.8384C63.0625 44.3384 88.5625 51.3384 87.0625 78.8384H97.0625C90.0625 67.8384 91.0625 45.8384 93.5635 35.8384Z" fill="#EFC7D3" stroke="black" stroke-width="0.5"/>
<path d="M10.5615 48.3384H4.56152C37.0617 28.8383 59.0618 34.8384 85.0615 30.3384L94.0618 35.8384C77.0618 36.8384 48.0615 40.3384 34.0615 44.5384C26.0615 44.3384 12.0615 46.3384 10.5615 48.3384Z" fill="#EFC7D3" stroke="black" stroke-width="0.5"/>
<path d="M37.563 44.8385C30.063 43.8384 13.063 45.8384 10.563 48.3385C9.76298 50.7384 12.8963 53.6717 14.563 54.8384C24.063 56.3384 37.563 50.3384 37.563 44.8385Z" fill="#EFC7D3" stroke="black" stroke-width="0.5"/>
<path d="M4.56222 48.3384C11.5622 49.3384 5.56222 59.8384 2.56222 64.8384C2.06215 57.8384 2.56201 52.3384 4.56222 48.3384Z" fill="#EFC7D3" stroke="black" stroke-width="0.5"/>
<path d="M22.5615 84.3384V79.8384H40.0615L40.5615 84.3384H22.5615Z" fill="#EFC7D3" stroke="black" stroke-width="0.5"/>
<path d="M3.06348 65.8384C4.56348 68.3384 6.56348 71.505 6.06348 73.3384M22.5635 79.8384C12.0635 80.3384 7.56348 76.3384 8.56348 72.8384C9.06348 72.3384 10.5635 70.8384 11.5635 70.8384" stroke="black" stroke-width="0.5"/>
<path d="M32.5635 74.8384C30.0635 70.8384 24.5635 65.8385 21.5635 64.3385C19.8134 63.8384 17.1883 63.9634 14.4383 64.3385C12.8133 65.6718 11.5635 68.8384 12.0635 71.8384C12.0635 73.005 13.3709 75.3384 16.0635 75.3384C20.5635 75.3384 27.5635 75.8384 32.5635 74.8384Z" fill="#EFC7D3"/>
<path d="M6.56348 65.8385C8.81342 65.3384 11.6883 64.7135 14.4383 64.3385M14.4383 64.3385C17.1883 63.9634 19.8134 63.8384 21.5635 64.3385C24.5635 65.8385 30.0635 70.8384 32.5635 74.8384C27.5635 75.8384 20.5635 75.3384 16.0635 75.3384C13.3709 75.3384 12.0635 73.005 12.0635 71.8384C11.5635 68.8384 12.8133 65.6718 14.4383 64.3385Z" stroke="black" stroke-width="0.5"/>
<path d="M12.0635 71.3385C20.0635 69.8385 23.5635 72.467 26.5635 73.967M13.5635 74.3385L31.0635 73.8385" stroke="black" stroke-width="0.5"/>
<path d="M22.5615 82.8384H32.0615C34.0615 82.8384 35.5615 80.8384 35.0615 79.8384M38.5615 79.8384V84.3384" stroke="black" stroke-width="0.5"/>
<path d="M22.5634 81.3386C18.0634 81.3386 13.5634 81.8386 2.06342 78.8386V76.8386L6.06342 74.8386V73.3386L2.06342 72.8386C1.5625 71.3384 0.562696 68.3384 2.56269 65.8384C2.06293 57.8384 2.56293 51.3384 4.56342 48.3381C37.0634 28.8385 59.0634 34.8386 85.0634 30.3386C163.063 -24.6615 245.063 12.3384 282.063 26.8386L295.563 28.8384L296.063 35.8384V38.8384C297.562 43.8384 298.897 48.3384 297.563 50.3384C300.063 51.3384 302.563 54.505 302.563 56.3384L300.563 66.3384C301.015 77.1863 298.607 77.4106 289.276 77.723C288.285 77.7562 286.216 77.7904 285.063 77.8384V79.3384L260.063 79.7694M22.5634 81.3386V84.3386H40.5618L40.0634 79.8386M22.5634 81.3386V79.8386H40.0634M40.0634 79.8386C37.0634 38.3386 90.5634 41.3386 87.0634 80.3386V82.8384H213.563C207.563 39.3384 262.063 39.3384 260.063 79.7694M259.562 79.7694H260.063" stroke="black"/>
</svg>
