<svg width="304" height="96" viewBox="0 0 304 96" fill="none" xmlns="http://www.w3.org/2000/svg">
<circle cx="63.0835" cy="74.3838" r="20.5" fill="#EDADBF" stroke="black"/>
<circle cx="236.083" cy="74.3838" r="20.5" fill="#EDADBF" stroke="black"/>
<path d="M133.082 12.8836L131.582 9.38364C171.582 1.38376 193.082 1.88379 232.082 13.3837L228.582 17.8837C208.582 9.8837 190.582 8.8837 174.582 8.38377C172.082 7.88377 168.082 7.88373 165.582 8.38364C155.582 8.38377 143.582 9.88377 133.082 12.8836Z" fill="#E56E90" stroke="black" stroke-width="0.5"/>
<path d="M131.582 9.38383L131.082 7.88383C167.082 -3.11621 199.582 0.883663 235.082 9.88383L232.082 13.3838C192.082 0.883789 166.082 2.38379 131.582 9.38383Z" fill="#E56E90" stroke="black" stroke-width="0.5"/>
<path d="M131.582 9.3839C183.082 -2.11613 211.582 7.88391 232.082 13.3839" stroke="black" stroke-width="0.5"/>
<path d="M171.083 30.3838L174.583 8.38379C208.083 9.38379 219.583 14.8838 224.083 16.3838L226.566 28.3838C199.576 28.3844 182.081 29.8839 171.083 30.3838Z" fill="#E56E90"/>
<path d="M227.083 30.8838L224.083 16.3838C219.583 14.8838 208.083 9.38379 174.583 8.38379L171.083 30.3838C182.083 29.8838 199.583 28.3838 226.583 28.3838" stroke="black" stroke-width="0.5"/>
<path d="M165.583 8.38379C132.583 9.38379 112.583 18.3838 93.5835 35.8838L96.0835 33.8838L160.083 30.8838L165.583 8.38379Z" fill="#E56E90" stroke="black" stroke-width="0.5"/>
<path d="M240.082 22.8838C236.415 20.2171 230.582 17.8838 224.082 16.3838L226.582 28.3838H233.082C236.082 26.8838 239.082 24.6525 240.082 22.8838Z" fill="#E56E90" stroke="black" stroke-width="0.5"/>
<path d="M97.0835 78.8838H164.083L198.583 77.3838H213.083L213.583 82.8838H199.583H98.5835H87.0835V78.8838H97.0835Z" fill="#E56E90"/>
<path d="M97.0835 78.8838H164.083L198.583 77.3838M97.0835 78.8838C97.0835 80.3838 97.5835 81.3838 98.5835 82.8838M97.0835 78.8838H87.0835V82.8838H98.5835M198.583 77.3838L199.583 82.8838M198.583 77.3838H213.083L213.583 82.8838H199.583M199.583 82.8838H98.5835" stroke="black" stroke-width="0.5"/>
<path d="M97.0826 78.8838C92.5835 74.3838 89.5835 52.3838 93.5826 35.8838L165.583 31.8838C161.583 36.8838 160.583 70.8838 164.083 78.8838H97.0826Z" fill="#E56E90" stroke="black" stroke-width="0.5"/>
<path d="M229.083 30.8838L165.583 31.8838C161.583 36.8838 160.583 70.8838 164.083 78.8838L198.583 77.3838C203.083 75.8838 209.583 70.3838 229.083 30.8838Z" fill="#E56E90" stroke="black" stroke-width="0.5"/>
<path d="M171.083 30.3839C166.583 30.8839 163.083 30.8839 160.083 30.8839L165.583 8.38386C168.583 7.88379 171.583 7.88379 174.583 8.38386L171.083 30.3839Z" fill="#E56E90" stroke="black" stroke-width="0.5"/>
<path d="M99.5835 32.384C104.083 37.884 111.083 34.384 115.083 32.884C116.083 17.3839 103.083 25.3839 99.5835 32.384Z" fill="#E56E90" stroke="black" stroke-width="0.5"/>
<path d="M235.082 9.88379L232.082 13.3838C249.082 18.8838 259.582 21.8838 272.082 28.3838H273.582L281.582 26.8838C266.582 20.3838 259.082 17.8838 235.082 9.88379Z" fill="#EFC7D3" stroke="black" stroke-width="0.5"/>
<path d="M272.082 28.3838C261.582 22.8838 242.582 16.3838 232.082 13.3838L230.082 15.8838L245.082 23.3838C243.582 25.8838 239.582 27.8838 233.582 30.5838C245.582 29.8838 262.582 28.8838 272.082 28.3838Z" fill="#EFC7D3" stroke="black" stroke-width="0.5"/>
<path d="M277.583 34.6838L283.582 32.3838L273.083 28.3838L229.083 30.8838C221.583 45.8838 206.583 76.3838 198.583 77.3838H213.083C211.583 66.3838 221.083 42.8838 246.083 51.8838C256.583 46.3838 266.583 40.8838 277.583 34.6838Z" fill="#EFC7D3" stroke="black" stroke-width="0.5"/>
<path d="M278.582 34.3838C266.582 40.8838 256.582 46.3838 246.082 51.8838C250.582 54.8838 261.082 60.8838 260.082 79.8838L285.082 79.3838V77.8838C293.582 76.8838 302.082 80.3838 300.582 66.3838L302.582 56.3838C302.582 54.8838 300.082 50.8838 297.582 50.3838C299.082 47.8838 296.082 38.8838 296.082 38.8838V37.3838L292.082 34.3838L287.082 32.8838L283.582 32.3838L278.582 34.3838Z" fill="#EFC7D3" stroke="black" stroke-width="0.5"/>
<path d="M281.582 26.8838L273.082 28.3838L283.582 32.3838C293.082 33.3838 292.081 34.8838 296.076 37.304L295.582 28.8838L281.582 26.8838Z" fill="#EFC7D3"/>
<path d="M296.082 37.3838L296.076 37.304M296.076 37.304L295.582 28.8838L281.582 26.8838L273.082 28.3838L283.582 32.3838C293.082 33.3838 292.081 34.8838 296.076 37.304Z" stroke="black" stroke-width="0.5"/>
<path d="M294.583 36.884C294.083 34.3839 283.083 34.1838 277.583 34.6838" stroke="black" stroke-width="0.5"/>
<path d="M300.583 66.8838L261.083 68.8838C260.583 63.8838 258.417 59.7171 256.583 57.8838L302.583 55.3838M301.083 52.8838C290.083 51.3838 279.083 46.5838 267.083 40.5838M229.083 30.8838L273.083 28.3838L281.583 26.8838" stroke="black" stroke-width="0.5"/>
<path d="M291.083 40.8838C291.083 38.8838 290.083 34.8838 286.583 32.8838C288.804 32.8838 292.181 33.9242 294.692 36.2938C295.156 37.8238 294.083 41.3838 291.042 42.8838C291.028 42.2935 291.083 41.6081 291.083 40.8838Z" fill="#EFC7D3"/>
<path d="M273.083 43.3838C280.079 43.7336 286.096 43.8387 291.477 44.3838M298.083 45.3838C295.981 44.9331 293.787 44.6179 291.477 44.3838M296.083 37.8838C295.666 37.2987 295.196 36.7694 294.692 36.2938M291.477 44.3838C291.15 44.039 291.056 43.516 291.042 42.8838M291.042 42.8838C291.028 42.2935 291.083 41.6081 291.083 40.8838C291.083 38.8838 290.083 34.8838 286.583 32.8838C288.804 32.8838 292.181 33.9242 294.692 36.2938M291.042 42.8838C294.083 41.3838 295.156 37.8238 294.692 36.2938" stroke="black" stroke-width="0.5"/>
<path d="M291.083 40.8838C286.583 40.8838 284.583 36.8838 283.583 34.3838" stroke="black" stroke-width="0.5"/>
<path d="M133.082 12.9838C119.582 16.9838 107.582 22.8838 93.582 35.8838C100.582 23.8838 116.082 14.3838 131.582 9.38379L133.082 12.9838Z" fill="#E0426F" stroke="black" stroke-width="0.5"/>
<path d="M131.582 9.38379C111.582 15.0578 93.582 32.3838 85.582 30.3838C98.582 20.8838 114.582 12.3838 131.082 7.88379L131.582 9.38379Z" fill="#E0426F" stroke="black" stroke-width="0.5"/>
<path d="M10.5827 48.3837H4.5827C2.08203 52.3837 2.08203 62.3837 2.5827 65.8837C1.08203 66.8837 1.08263 71.3837 2.0827 72.8837L6.0827 73.3837V74.8837L2.0827 76.8837V78.8837C6.0827 79.8837 14.5827 81.8837 22.5827 81.3837V79.8837H40.0827C39.416 71.3837 41.0827 60.8837 50.0827 53.8837C47.5827 49.8837 40.5827 45.3837 37.5827 44.8837C27.5827 43.8837 12.5827 46.3837 10.5827 48.3837Z" fill="#E0426F" stroke="black" stroke-width="0.5"/>
<path d="M93.5835 35.8838C75.7502 36.7171 44.0835 41.5838 33.5835 44.5838L37.5835 44.8838C42.5835 46.3838 48.0835 50.7171 50.0835 53.8838C63.0825 44.3838 88.5825 51.3838 87.0825 78.8838H97.0825C90.0825 67.8838 91.0825 45.8838 93.5835 35.8838Z" fill="#E0426F" stroke="black" stroke-width="0.5"/>
<path d="M10.582 48.3838H4.58203C37.0822 28.8837 59.0823 34.8838 85.082 30.3838L94.0823 35.8838C77.0823 36.8838 48.082 40.3838 34.082 44.5838C26.082 44.3838 12.082 46.3838 10.582 48.3838Z" fill="#E0426F" stroke="black" stroke-width="0.5"/>
<path d="M37.5835 44.8839C30.0835 43.8838 13.0835 45.8838 10.5835 48.3839C9.78349 50.7838 12.9168 53.7171 14.5835 54.8838C24.0835 56.3838 37.5835 50.3838 37.5835 44.8839Z" fill="#E0426F" stroke="black" stroke-width="0.5"/>
<path d="M4.58273 48.3838C11.5827 49.3838 5.58273 59.8838 2.58273 64.8838C2.08266 57.8838 2.58252 52.3838 4.58273 48.3838Z" fill="#E0426F" stroke="black" stroke-width="0.5"/>
<path d="M22.582 84.3838V79.8838H40.082L40.582 84.3838H22.582Z" fill="#E0426F" stroke="black" stroke-width="0.5"/>
<path d="M3.08398 65.8838C4.58398 68.3838 6.58398 71.5505 6.08398 73.3838M22.584 79.8838C12.084 80.3838 7.58398 76.3838 8.58398 72.8838C9.08398 72.3838 10.584 70.8838 11.584 70.8838" stroke="black" stroke-width="0.5"/>
<path d="M32.584 74.8839C30.084 70.8839 24.584 65.884 21.584 64.384C19.8339 63.884 17.2088 64.009 14.4588 64.384C12.8338 65.7173 11.584 68.8839 12.084 71.8839C12.084 73.0506 13.3914 75.3839 16.084 75.3839C20.584 75.3839 27.584 75.8839 32.584 74.8839Z" fill="#E0426F"/>
<path d="M6.58398 65.884C8.83393 65.384 11.7088 64.759 14.4588 64.384M14.4588 64.384C17.2088 64.009 19.8339 63.884 21.584 64.384C24.584 65.884 30.084 70.8839 32.584 74.8839C27.584 75.8839 20.584 75.3839 16.084 75.3839C13.3914 75.3839 12.084 73.0506 12.084 71.8839C11.584 68.8839 12.8338 65.7173 14.4588 64.384Z" stroke="black" stroke-width="0.5"/>
<path d="M12.084 71.384C20.084 69.884 23.584 72.5125 26.584 74.0125M13.584 74.384L31.084 73.884" stroke="black" stroke-width="0.5"/>
<path d="M22.582 82.8838H32.082C34.082 82.8838 35.582 80.8838 35.082 79.8838M38.582 79.8838V84.3838" stroke="black" stroke-width="0.5"/>
<path d="M22.5834 81.384C18.0834 81.384 13.5834 81.884 2.08344 78.884V76.884L6.08344 74.884V73.384L2.08344 72.884C1.58252 71.3838 0.582715 68.3838 2.58271 65.8838C2.08295 57.8838 2.58295 51.3838 4.58344 48.3835C37.0834 28.8839 59.0834 34.884 85.0834 30.384C163.083 -24.6161 245.083 12.3838 282.083 26.884L295.583 28.8838L296.083 35.8838V38.8838C297.582 43.8838 298.917 48.3838 297.583 50.3838C300.083 51.3838 302.583 54.5505 302.583 56.3838L300.583 66.3838C301.035 77.2317 298.627 77.456 289.296 77.7684C288.305 77.8016 286.236 77.8358 285.083 77.8838V79.3838L260.083 79.8148M22.5834 81.384V84.384H40.5818L40.0835 79.884M22.5834 81.384V79.884H40.0835M40.0835 79.884C37.0835 38.384 90.5834 41.384 87.0834 80.384V82.8838H213.583C207.583 39.3838 262.083 39.3838 260.083 79.8148M259.582 79.8148H260.083" stroke="black"/>
</svg>
