<svg width="303" height="95" viewBox="0 0 303 95" fill="none" xmlns="http://www.w3.org/2000/svg">
<circle cx="62.667" cy="73.6768" r="20.5" stroke="black"/>
<circle cx="235.667" cy="73.6768" r="20.5" stroke="black"/>
<path d="M132.665 12.1766L131.165 8.67661C171.165 0.676725 192.665 1.17676 231.665 12.6767L228.165 17.1767C208.165 9.17667 190.165 8.17667 174.165 7.67673C171.665 7.17673 167.665 7.1767 165.165 7.67661C155.165 7.67673 143.165 9.17674 132.665 12.1766Z" stroke="black" stroke-width="0.5"/>
<path d="M131.165 8.6768L130.665 7.1768C166.665 -3.82324 199.165 0.176632 234.665 9.1768L231.665 12.6768C191.665 0.176758 165.665 1.67676 131.165 8.6768Z" stroke="black" stroke-width="0.5"/>
<path d="M131.165 8.67675C182.665 -2.82328 211.165 7.17676 231.665 12.6767" stroke="black" stroke-width="0.5"/>
<path d="M226.667 30.1768L223.667 15.6768C219.167 14.1768 207.667 8.67676 174.167 7.67676L170.667 29.6768C181.667 29.1768 199.167 27.6768 226.167 27.6768" stroke="black" stroke-width="0.5"/>
<path d="M165.167 7.67676C132.167 8.67676 112.167 17.6768 93.167 35.1768L95.667 33.1768L159.667 30.1768L165.167 7.67676Z" stroke="black" stroke-width="0.5"/>
<path d="M239.665 22.1768C235.998 19.5101 230.165 17.1768 223.665 15.6768L226.165 27.6768H232.665C235.665 26.1768 238.665 23.9455 239.665 22.1768Z" stroke="black" stroke-width="0.5"/>
<path d="M96.667 78.1768H163.667L198.167 76.6768M96.667 78.1768C96.667 79.6768 97.167 80.6768 98.167 82.1768M96.667 78.1768H86.667V82.1768H98.167M198.167 76.6768L199.167 82.1768M198.167 76.6768H212.667L213.167 82.1768H199.167M199.167 82.1768H98.167" stroke="black" stroke-width="0.5"/>
<path d="M96.6661 78.1768C92.167 73.6768 89.167 51.6768 93.1661 35.1768L165.167 31.1768C161.167 36.1768 160.167 70.1768 163.667 78.1768H96.6661Z" stroke="black" stroke-width="0.5"/>
<path d="M228.667 30.1768L165.167 31.1768C161.167 36.1768 160.167 70.1768 163.667 78.1768L198.167 76.6768C202.667 75.1768 209.167 69.6768 228.667 30.1768Z" stroke="black" stroke-width="0.5"/>
<path d="M170.667 29.6768C166.167 30.1768 162.667 30.1768 159.667 30.1768L165.167 7.67683C168.167 7.17676 171.167 7.17676 174.167 7.67683L170.667 29.6768Z" stroke="black" stroke-width="0.5"/>
<path d="M99.167 31.6769C103.667 37.1769 110.667 33.6769 114.667 32.1769C115.667 16.6768 102.667 24.6768 99.167 31.6769Z" stroke="black" stroke-width="0.5"/>
<path d="M234.665 9.17676L231.665 12.6768C248.665 18.1768 259.165 21.1768 271.665 27.6768H273.165L281.165 26.1768C266.165 19.6768 258.665 17.1768 234.665 9.17676Z" fill="#E56E90" stroke="black" stroke-width="0.5"/>
<path d="M271.665 27.6768C261.165 22.1768 242.165 15.6768 231.665 12.6768L229.665 15.1768L244.665 22.6768C243.165 25.1768 239.165 27.1768 233.165 29.8768C245.165 29.1768 262.165 28.1768 271.665 27.6768Z" fill="#E56E90" stroke="black" stroke-width="0.5"/>
<path d="M277.167 33.9768L283.165 31.6768L272.666 27.6768L228.666 30.1768C221.166 45.1768 206.166 75.6768 198.166 76.6768H212.666C211.166 65.6768 220.666 42.1768 245.667 51.1768C256.167 45.6768 266.167 40.1768 277.167 33.9768Z" fill="#E56E90" stroke="black" stroke-width="0.5"/>
<path d="M278.165 33.6768C266.165 40.1768 256.165 45.6768 245.665 51.1768C250.165 54.1768 260.665 60.1768 259.665 79.1768L284.665 78.6768V77.1768C293.165 76.1768 301.665 79.6768 300.165 65.6768L302.165 55.6768C302.165 54.1768 299.665 50.1768 297.165 49.6768C298.665 47.1768 295.665 38.1768 295.665 38.1768V36.6768L291.665 33.6768L286.665 32.1768L283.165 31.6768L278.165 33.6768Z" fill="#E56E90" stroke="black" stroke-width="0.5"/>
<path d="M281.165 26.1768L272.665 27.6768L283.165 31.6768C292.665 32.6768 291.664 34.1768 295.659 36.5969L295.165 28.1768L281.165 26.1768Z" fill="#E56E90"/>
<path d="M295.665 36.6768L295.659 36.5969M295.659 36.5969L295.165 28.1768L281.165 26.1768L272.665 27.6768L283.165 31.6768C292.665 32.6768 291.664 34.1768 295.659 36.5969Z" stroke="black" stroke-width="0.5"/>
<path d="M294.167 36.177C293.667 33.6768 282.667 33.4768 277.167 33.9768" stroke="black" stroke-width="0.5"/>
<path d="M300.167 66.1768L260.667 68.1768C260.167 63.1768 258 59.0101 256.167 57.1768L302.167 54.6768M300.667 52.1768C289.667 50.6768 278.667 45.8768 266.667 39.8768M228.667 30.1768L272.667 27.6768L281.167 26.1768" stroke="black" stroke-width="0.5"/>
<path d="M290.667 40.1768C290.667 38.1768 289.667 34.1768 286.167 32.1768C288.388 32.1768 291.765 33.2171 294.276 35.5867C294.74 37.1167 293.667 40.6768 290.625 42.1768C290.612 41.5865 290.667 40.901 290.667 40.1768Z" fill="#E56E90"/>
<path d="M272.667 42.6768C279.663 43.0265 285.68 43.1316 291.06 43.6768M297.667 44.6768C295.564 44.2261 293.371 43.9109 291.06 43.6768M295.667 37.1768C295.249 36.5916 294.78 36.0624 294.276 35.5867M291.06 43.6768C290.734 43.332 290.64 42.8089 290.625 42.1768M290.625 42.1768C290.612 41.5865 290.667 40.901 290.667 40.1768C290.667 38.1768 289.667 34.1768 286.167 32.1768C288.388 32.1768 291.765 33.2171 294.276 35.5867M290.625 42.1768C293.667 40.6768 294.74 37.1167 294.276 35.5867" stroke="black" stroke-width="0.5"/>
<path d="M290.667 40.1768C286.167 40.1768 284.167 36.1768 283.167 33.6768" stroke="black" stroke-width="0.5"/>
<path d="M132.665 12.2767C119.165 16.2767 107.165 22.1768 93.165 35.1768C100.165 23.1768 115.665 13.6768 131.165 8.67676L132.665 12.2767Z" fill="#E56E90" stroke="black" stroke-width="0.5"/>
<path d="M131.165 8.67676C111.165 14.3508 93.165 31.6768 85.165 29.6768C98.165 20.1768 114.165 11.6768 130.665 7.17676L131.165 8.67676Z" fill="#E56E90" stroke="black" stroke-width="0.5"/>
<path d="M10.1657 47.6768H4.16571C1.66504 51.6768 1.66504 61.6768 2.16571 65.1768C0.665039 66.1768 0.665637 70.6768 1.66571 72.1768L5.66571 72.6768V74.1768L1.66571 76.1768V78.1768C5.66571 79.1768 14.1657 81.1768 22.1657 80.6768V79.1768H39.6657C38.999 70.6768 40.6657 60.1768 49.6657 53.1768C47.1657 49.1768 40.1657 44.6768 37.1657 44.1768C27.1657 43.1768 12.1657 45.6768 10.1657 47.6768Z" fill="#E56E90" stroke="black" stroke-width="0.5"/>
<path d="M93.167 35.1768C75.3337 36.0101 43.667 40.8768 33.167 43.8768L37.167 44.1768C42.167 45.6768 47.667 50.0101 49.667 53.1768C62.666 43.6768 88.166 50.6768 86.666 78.1768H96.666C89.666 67.1768 90.666 45.1768 93.167 35.1768Z" fill="#E56E90" stroke="black" stroke-width="0.5"/>
<path d="M10.165 47.6768H4.16504C36.6652 28.1767 58.6653 34.1768 84.665 29.6768L93.6653 35.1768C76.6653 36.1768 47.665 39.6768 33.665 43.8768C25.665 43.6767 11.665 45.6768 10.165 47.6768Z" fill="#E56E90" stroke="black" stroke-width="0.5"/>
<path d="M37.1665 44.1768C29.6665 43.1768 12.6665 45.1768 10.1665 47.6768C9.36649 50.0768 12.4998 53.0101 14.1665 54.1768C23.6665 55.6768 37.1665 49.6768 37.1665 44.1768Z" fill="#E56E90" stroke="black" stroke-width="0.5"/>
<path d="M4.16573 47.6768C11.1657 48.6768 5.16573 59.1768 2.16573 64.1768C1.66566 57.1768 2.16553 51.6768 4.16573 47.6768Z" fill="#E56E90" stroke="black" stroke-width="0.5"/>
<path d="M22.165 83.6768V79.1768H39.665L40.165 83.6768H22.165Z" fill="#E56E90" stroke="black" stroke-width="0.5"/>
<path d="M2.66699 65.1768C4.16699 67.6768 6.16699 70.8434 5.66699 72.6768M22.167 79.1768C11.667 79.6768 7.16699 75.6768 8.16699 72.1768C8.66699 71.6768 10.167 70.1768 11.167 70.1768" stroke="black" stroke-width="0.5"/>
<path d="M32.167 74.1768C29.667 70.1768 24.167 65.1768 21.167 63.6768C19.4169 63.1768 16.7919 63.3018 14.0418 63.6768C12.4169 65.0101 11.167 68.1768 11.667 71.1768C11.667 72.3434 12.9744 74.6768 15.667 74.6768C20.167 74.6768 27.167 75.1768 32.167 74.1768Z" fill="#E56E90"/>
<path d="M6.16699 65.1768C8.41693 64.6768 11.2918 64.0518 14.0418 63.6768M14.0418 63.6768C16.7919 63.3018 19.4169 63.1768 21.167 63.6768C24.167 65.1768 29.667 70.1768 32.167 74.1768C27.167 75.1768 20.167 74.6768 15.667 74.6768C12.9744 74.6768 11.667 72.3434 11.667 71.1768C11.167 68.1768 12.4168 65.0101 14.0418 63.6768Z" stroke="black" stroke-width="0.5"/>
<path d="M11.667 70.6768C19.667 69.1769 23.167 71.8054 26.167 73.3054M13.167 73.6769L30.667 73.1769" stroke="black" stroke-width="0.5"/>
<path d="M22.165 82.1768H31.665C33.665 82.1768 35.165 80.1768 34.665 79.1768M38.165 79.1768V83.6768" stroke="black" stroke-width="0.5"/>
<path d="M22.1669 80.677C17.6669 80.677 13.1669 81.177 1.66694 78.177V76.177L5.66694 74.177V72.677L1.66694 72.177C1.16602 70.6768 0.166211 67.6768 2.16621 65.1768C1.66645 57.1768 2.16645 50.6768 4.16694 47.6765C36.6669 28.1769 58.6669 34.1769 84.6669 29.6769C162.667 -25.3232 244.667 11.6767 281.667 26.1769L295.167 28.1768L295.667 35.1768V38.1768C297.165 43.1768 298.5 47.6768 297.167 49.6768C299.667 50.6768 302.167 53.8434 302.167 55.6768L300.167 65.6768C300.619 76.5247 298.211 76.7489 288.879 77.0614C287.888 77.0946 285.819 77.1288 284.667 77.1768V78.6768L259.667 79.1078M22.1669 80.677V83.677H40.1653L39.6669 79.177M22.1669 80.677V79.177H39.6669M39.6669 79.177C36.6669 37.677 90.1669 40.677 86.6669 79.677V82.1768H213.167C207.167 38.6768 261.667 38.6768 259.667 79.1078M259.165 79.1078H259.667" stroke="black"/>
</svg>
