<svg width="303" height="96" viewBox="0 0 303 96" fill="none" xmlns="http://www.w3.org/2000/svg">
<circle cx="62.6875" cy="74.0303" r="20.5" stroke="black"/>
<circle cx="235.688" cy="74.0303" r="20.5" stroke="black"/>
<path d="M132.686 12.5301L131.186 9.03013C171.186 1.03024 192.686 1.53027 231.686 13.0302L228.186 17.5302C208.186 9.53018 190.186 8.53018 174.186 8.03025C171.686 7.53025 167.686 7.53021 165.186 8.03013C155.186 8.03025 143.186 9.53025 132.686 12.5301Z" fill="#EDADBF" stroke="black" stroke-width="0.5"/>
<path d="M131.186 9.03032L130.686 7.53032C166.686 -3.46973 199.186 0.530148 234.686 9.53032L231.686 13.0303C191.686 0.530273 165.686 2.03027 131.186 9.03032Z" fill="#EDADBF" stroke="black" stroke-width="0.5"/>
<path d="M131.186 9.03038C182.686 -2.46964 211.186 7.5304 231.686 13.0304" stroke="black" stroke-width="0.5"/>
<path d="M170.688 30.0303L174.188 8.03027C207.688 9.03027 219.188 14.5303 223.688 16.0303L226.17 28.0303C199.18 28.0309 181.685 29.5304 170.688 30.0303Z" fill="#EDADBF"/>
<path d="M226.688 30.5303L223.688 16.0303C219.188 14.5303 207.688 9.03027 174.188 8.03027L170.688 30.0303C181.688 29.5303 199.188 28.0303 226.188 28.0303" stroke="black" stroke-width="0.5"/>
<path d="M165.188 8.03027C132.188 9.03027 112.188 18.0303 93.1875 35.5303L95.6875 33.5303L159.688 30.5303L165.188 8.03027Z" fill="#EDADBF" stroke="black" stroke-width="0.5"/>
<path d="M239.686 22.5303C236.019 19.8636 230.186 17.5303 223.686 16.0303L226.186 28.0303H232.686C235.686 26.5303 238.686 24.299 239.686 22.5303Z" fill="#EDADBF" stroke="black" stroke-width="0.5"/>
<path d="M96.6875 78.5303H163.688L198.188 77.0303H212.688L213.188 82.5303H199.188H98.1875H86.6875V78.5303H96.6875Z" fill="#EDADBF"/>
<path d="M96.6875 78.5303H163.688L198.188 77.0303M96.6875 78.5303C96.6875 80.0303 97.1875 81.0303 98.1875 82.5303M96.6875 78.5303H86.6875V82.5303H98.1875M198.188 77.0303L199.188 82.5303M198.188 77.0303H212.688L213.188 82.5303H199.188M199.188 82.5303H98.1875" stroke="black" stroke-width="0.5"/>
<path d="M96.6866 78.5303C92.1875 74.0303 89.1875 52.0303 93.1866 35.5303L165.188 31.5303C161.188 36.5303 160.188 70.5303 163.687 78.5303H96.6866Z" fill="#EDADBF" stroke="black" stroke-width="0.5"/>
<path d="M228.687 30.5303L165.187 31.5303C161.188 36.5303 160.188 70.5303 163.687 78.5303L198.187 77.0303C202.687 75.5303 209.187 70.0303 228.687 30.5303Z" fill="#EDADBF" stroke="black" stroke-width="0.5"/>
<path d="M170.688 30.0303C166.188 30.5303 162.688 30.5303 159.688 30.5303L165.188 8.03035C168.188 7.53027 171.188 7.53027 174.188 8.03035L170.688 30.0303Z" fill="#EDADBF" stroke="black" stroke-width="0.5"/>
<path d="M99.1875 32.0305C103.688 37.5305 110.688 34.0305 114.688 32.5305C115.688 17.0304 102.688 25.0304 99.1875 32.0305Z" fill="#EDADBF" stroke="black" stroke-width="0.5"/>
<path d="M234.686 9.53027L231.686 13.0303C248.686 18.5303 259.186 21.5303 271.686 28.0303H273.186L281.186 26.5303C266.186 20.0303 258.686 17.5303 234.686 9.53027Z" fill="#EFC7D3" stroke="black" stroke-width="0.5"/>
<path d="M271.686 28.0303C261.186 22.5303 242.186 16.0303 231.686 13.0303L229.686 15.5303L244.686 23.0303C243.186 25.5303 239.186 27.5303 233.186 30.2303C245.186 29.5303 262.186 28.5303 271.686 28.0303Z" fill="#EFC7D3" stroke="black" stroke-width="0.5"/>
<path d="M277.188 34.3303L283.186 32.0303L272.687 28.0303L228.687 30.5303C221.187 45.5303 206.187 76.0303 198.187 77.0303H212.687C211.187 66.0303 220.687 42.5303 245.688 51.5303C256.188 46.0303 266.188 40.5303 277.188 34.3303Z" fill="#EFC7D3" stroke="black" stroke-width="0.5"/>
<path d="M278.186 34.0303C266.186 40.5303 256.186 46.0303 245.686 51.5303C250.186 54.5303 260.686 60.5303 259.686 79.5303L284.686 79.0303V77.5303C293.186 76.5303 301.686 80.0303 300.186 66.0303L302.186 56.0303C302.186 54.5303 299.686 50.5303 297.186 50.0303C298.686 47.5303 295.686 38.5303 295.686 38.5303V37.0303L291.686 34.0303L286.686 32.5303L283.186 32.0303L278.186 34.0303Z" fill="#EFC7D3" stroke="black" stroke-width="0.5"/>
<path d="M281.186 26.5303L272.686 28.0303L283.186 32.0303C292.686 33.0303 291.684 34.5303 295.68 36.9505L295.186 28.5303L281.186 26.5303Z" fill="#EFC7D3"/>
<path d="M295.686 37.0303L295.68 36.9505M295.68 36.9505L295.186 28.5303L281.186 26.5303L272.686 28.0303L283.186 32.0303C292.686 33.0303 291.684 34.5303 295.68 36.9505Z" stroke="black" stroke-width="0.5"/>
<path d="M294.188 36.5305C293.688 34.0304 282.688 33.8303 277.188 34.3303" stroke="black" stroke-width="0.5"/>
<path d="M300.188 66.5303L260.688 68.5303C260.188 63.5303 258.021 59.3636 256.188 57.5303L302.188 55.0303M300.688 52.5303C289.688 51.0303 278.688 46.2303 266.688 40.2303M228.688 30.5303L272.688 28.0303L281.188 26.5303" stroke="black" stroke-width="0.5"/>
<path d="M290.688 40.5303C290.688 38.5303 289.688 34.5303 286.188 32.5303C288.408 32.5303 291.785 33.5707 294.296 35.9403C294.76 37.4703 293.688 41.0303 290.646 42.5303C290.632 41.94 290.688 41.2546 290.688 40.5303Z" fill="#EFC7D3"/>
<path d="M272.688 43.0303C279.683 43.3801 285.7 43.4851 291.081 44.0303M297.688 45.0303C295.585 44.5796 293.391 44.2644 291.081 44.0303M295.688 37.5303C295.27 36.9451 294.8 36.4159 294.296 35.9403M291.081 44.0303C290.754 43.6855 290.66 43.1625 290.646 42.5303M290.646 42.5303C290.632 41.94 290.688 41.2546 290.688 40.5303C290.688 38.5303 289.688 34.5303 286.188 32.5303C288.408 32.5303 291.785 33.5707 294.296 35.9403M290.646 42.5303C293.688 41.0303 294.76 37.4703 294.296 35.9403" stroke="black" stroke-width="0.5"/>
<path d="M290.688 40.5303C286.188 40.5303 284.188 36.5303 283.188 34.0303" stroke="black" stroke-width="0.5"/>
<path d="M132.686 12.6302C119.186 16.6302 107.186 22.5303 93.186 35.5303C100.186 23.5303 115.686 14.0303 131.186 9.03027L132.686 12.6302Z" fill="#EFC7D3" stroke="black" stroke-width="0.5"/>
<path d="M131.186 9.03027C111.186 14.7043 93.186 32.0303 85.186 30.0303C98.186 20.5303 114.186 12.0303 130.686 7.53027L131.186 9.03027Z" fill="#EFC7D3" stroke="black" stroke-width="0.5"/>
<path d="M10.1867 48.0302H4.1867C1.68604 52.0302 1.68604 62.0302 2.1867 65.5302C0.686035 66.5302 0.686633 71.0302 1.6867 72.5302L5.6867 73.0302V74.5302L1.6867 76.5302V78.5302C5.6867 79.5302 14.1867 81.5302 22.1867 81.0302V79.5302H39.6867C39.02 71.0302 40.6867 60.5302 49.6867 53.5302C47.1867 49.5302 40.1867 45.0302 37.1867 44.5302C27.1867 43.5302 12.1867 46.0302 10.1867 48.0302Z" fill="#EFC7D3" stroke="black" stroke-width="0.5"/>
<path d="M93.1875 35.5303C75.3542 36.3636 43.6875 41.2303 33.1875 44.2303L37.1875 44.5303C42.1875 46.0303 47.6875 50.3636 49.6875 53.5303C62.6865 44.0303 88.1865 51.0303 86.6865 78.5303H96.6865C89.6865 67.5303 90.6865 45.5303 93.1875 35.5303Z" fill="#EFC7D3" stroke="black" stroke-width="0.5"/>
<path d="M10.1855 48.0303H4.18555C36.6857 28.5302 58.6858 34.5303 84.6855 30.0303L93.6858 35.5303C76.6858 36.5303 47.6855 40.0303 33.6855 44.2303C25.6855 44.0303 11.6855 46.0303 10.1855 48.0303Z" fill="#EFC7D3" stroke="black" stroke-width="0.5"/>
<path d="M37.1875 44.5303C29.6875 43.5303 12.6875 45.5303 10.1875 48.0303C9.38749 50.4303 12.5208 53.3636 14.1875 54.5303C23.6875 56.0303 37.1875 50.0303 37.1875 44.5303Z" fill="#EFC7D3" stroke="black" stroke-width="0.5"/>
<path d="M4.18673 48.0303C11.1867 49.0303 5.18673 59.5303 2.18673 64.5303C1.68666 57.5303 2.18652 52.0303 4.18673 48.0303Z" fill="#EFC7D3" stroke="black" stroke-width="0.5"/>
<path d="M22.186 84.0303V79.5303H39.686L40.186 84.0303H22.186Z" fill="#EFC7D3" stroke="black" stroke-width="0.5"/>
<path d="M2.6875 65.5303C4.1875 68.0303 6.1875 71.1969 5.6875 73.0303M22.1875 79.5303C11.6875 80.0303 7.1875 76.0303 8.1875 72.5303C8.6875 72.0303 10.1875 70.5303 11.1875 70.5303" stroke="black" stroke-width="0.5"/>
<path d="M32.1875 74.5304C29.6875 70.5304 24.1875 65.5305 21.1875 64.0305C19.4375 63.5305 16.8124 63.6555 14.0623 64.0305C12.4374 65.3638 11.1875 68.5304 11.6875 71.5304C11.6875 72.6971 12.9949 75.0304 15.6875 75.0304C20.1875 75.0304 27.1875 75.5304 32.1875 74.5304Z" fill="#EFC7D3"/>
<path d="M6.1875 65.5305C8.43744 65.0304 11.3124 64.4055 14.0623 64.0305M14.0623 64.0305C16.8124 63.6555 19.4375 63.5305 21.1875 64.0305C24.1875 65.5305 29.6875 70.5304 32.1875 74.5304C27.1875 75.5304 20.1875 75.0304 15.6875 75.0304C12.9949 75.0304 11.6875 72.6971 11.6875 71.5304C11.1875 68.5304 12.4374 65.3638 14.0623 64.0305Z" stroke="black" stroke-width="0.5"/>
<path d="M11.6875 71.0305C19.6875 69.5305 23.1875 72.159 26.1875 73.659M13.1875 74.0305L30.6875 73.5305" stroke="black" stroke-width="0.5"/>
<path d="M22.1855 82.5303H31.6855C33.6855 82.5303 35.1855 80.5303 34.6855 79.5303M38.1855 79.5303V84.0303" stroke="black" stroke-width="0.5"/>
<path d="M22.1874 81.0305C17.6874 81.0305 13.1874 81.5305 1.68745 78.5305V76.5305L5.68745 74.5305V73.0305L1.68745 72.5305C1.18652 71.0303 0.186719 68.0303 2.18671 65.5303C1.68696 57.5303 2.18696 51.0303 4.18745 48.03C36.6874 28.5304 58.6874 34.5305 84.6874 30.0305C162.687 -24.9697 244.687 12.0303 281.687 26.5305L295.187 28.5303L295.687 35.5303V38.5303C297.186 43.5303 298.521 48.0303 297.187 50.0303C299.687 51.0303 302.187 54.1969 302.187 56.0303L300.187 66.0303C300.639 76.8782 298.231 77.1025 288.9 77.4149C287.909 77.4481 285.84 77.4823 284.687 77.5303V79.0303L259.687 79.4613M22.1874 81.0305V84.0305H40.1858L39.6875 79.5305M22.1874 81.0305V79.5305H39.6875M39.6875 79.5305C36.6875 38.0305 90.1874 41.0305 86.6874 80.0305V82.5303H213.187C207.187 39.0303 261.687 39.0303 259.687 79.4613M259.186 79.4613H259.687" stroke="black"/>
</svg>
