<svg width="303" height="96" viewBox="0 0 303 96" fill="none" xmlns="http://www.w3.org/2000/svg">
<circle cx="62.8545" cy="74.2297" r="20.5" fill="#EFC7D3" stroke="black"/>
<circle cx="235.854" cy="74.2297" r="20.5" fill="#EFC7D3" stroke="black"/>
<path d="M132.853 12.7296L131.353 9.22959C171.353 1.2297 192.853 1.72974 231.853 13.2297L228.353 17.7297C208.353 9.72965 190.353 8.72964 174.353 8.22971C171.853 7.72971 167.853 7.72968 165.353 8.22959C155.353 8.22971 143.353 9.72971 132.853 12.7296Z" fill="#E0426F" stroke="black" stroke-width="0.5"/>
<path d="M131.353 9.22978L130.853 7.72978C166.853 -3.27026 199.353 0.72961 234.853 9.72978L231.853 13.2298C191.853 0.729736 165.853 2.22974 131.353 9.22978Z" fill="#E0426F" stroke="black" stroke-width="0.5"/>
<path d="M131.353 9.2296C182.853 -2.27042 211.353 7.72961 231.853 13.2296" stroke="black" stroke-width="0.5"/>
<path d="M170.854 30.2297L174.354 8.22974C207.854 9.22974 219.354 14.7297 223.854 16.2297L226.337 28.2297C199.347 28.2304 181.852 29.7298 170.854 30.2297Z" fill="#E0426F"/>
<path d="M226.854 30.7297L223.854 16.2297C219.354 14.7297 207.854 9.22974 174.354 8.22974L170.854 30.2297C181.854 29.7297 199.354 28.2297 226.354 28.2297" stroke="black" stroke-width="0.5"/>
<path d="M165.354 8.22974C132.354 9.22974 112.354 18.2297 93.3545 35.7297L95.8545 33.7297L159.854 30.7297L165.354 8.22974Z" fill="#E0426F" stroke="black" stroke-width="0.5"/>
<path d="M239.853 22.7297C236.186 20.0631 230.353 17.7297 223.853 16.2297L226.353 28.2297H232.853C235.853 26.7297 238.853 24.4985 239.853 22.7297Z" fill="#E0426F" stroke="black" stroke-width="0.5"/>
<path d="M96.8545 78.7297H163.854L198.354 77.2297H212.854L213.354 82.7297H199.354H98.3545H86.8545V78.7297H96.8545Z" fill="#E0426F"/>
<path d="M96.8545 78.7297H163.854L198.354 77.2297M96.8545 78.7297C96.8545 80.2297 97.3545 81.2297 98.3545 82.7297M96.8545 78.7297H86.8545V82.7297H98.3545M198.354 77.2297L199.354 82.7297M198.354 77.2297H212.854L213.354 82.7297H199.354M199.354 82.7297H98.3545" stroke="black" stroke-width="0.5"/>
<path d="M96.8536 78.7297C92.3545 74.2297 89.3545 52.2297 93.3536 35.7297L165.354 31.7297C161.354 36.7297 160.354 70.7297 163.854 78.7297H96.8536Z" fill="#E0426F" stroke="black" stroke-width="0.5"/>
<path d="M228.854 30.7297L165.354 31.7297C161.355 36.7297 160.355 70.7297 163.854 78.7297L198.354 77.2297C202.854 75.7297 209.354 70.2297 228.854 30.7297Z" fill="#E0426F" stroke="black" stroke-width="0.5"/>
<path d="M170.854 30.2298C166.354 30.7298 162.854 30.7298 159.854 30.7298L165.354 8.22981C168.354 7.72974 171.354 7.72974 174.354 8.22981L170.854 30.2298Z" fill="#E0426F" stroke="black" stroke-width="0.5"/>
<path d="M99.3545 32.2297C103.854 37.7297 110.854 34.2297 114.854 32.7297C115.854 17.2296 102.854 25.2296 99.3545 32.2297Z" fill="#E0426F" stroke="black" stroke-width="0.5"/>
<path d="M234.853 9.72974L231.853 13.2297C248.853 18.7297 259.353 21.7297 271.853 28.2297H273.353L281.353 26.7297C266.353 20.2297 258.853 17.7297 234.853 9.72974Z" fill="#E0426F" stroke="black" stroke-width="0.5"/>
<path d="M271.853 28.2297C261.353 22.7297 242.353 16.2297 231.853 13.2297L229.853 15.7297L244.853 23.2297C243.353 25.7297 239.353 27.7297 233.353 30.4297C245.353 29.7297 262.353 28.7297 271.853 28.2297Z" fill="#E0426F" stroke="black" stroke-width="0.5"/>
<path d="M277.354 34.5297L283.353 32.2297L272.854 28.2297L228.854 30.7297C221.354 45.7297 206.354 76.2297 198.354 77.2297H212.854C211.354 66.2297 220.854 42.7297 245.854 51.7297C256.354 46.2297 266.354 40.7297 277.354 34.5297Z" fill="#E0426F" stroke="black" stroke-width="0.5"/>
<path d="M278.353 34.2298C266.353 40.7298 256.353 46.2298 245.853 51.7298C250.353 54.7297 260.853 60.7297 259.853 79.7297L284.853 79.2297V77.7297C293.353 76.7297 301.853 80.2297 300.353 66.2297L302.353 56.2297C302.353 54.7297 299.853 50.7297 297.353 50.2297C298.853 47.7297 295.853 38.7297 295.853 38.7297V37.2297L291.853 34.2297L286.853 32.7297L283.353 32.2297L278.353 34.2298Z" fill="#E0426F" stroke="black" stroke-width="0.5"/>
<path d="M281.353 26.7297L272.853 28.2297L283.353 32.2297C292.853 33.2297 291.851 34.7297 295.847 37.1499L295.353 28.7297L281.353 26.7297Z" fill="#E0426F"/>
<path d="M295.853 37.2297L295.847 37.1499M295.847 37.1499L295.353 28.7297L281.353 26.7297L272.853 28.2297L283.353 32.2297C292.853 33.2297 291.851 34.7297 295.847 37.1499Z" stroke="black" stroke-width="0.5"/>
<path d="M294.354 36.7299C293.854 34.2298 282.854 34.0297 277.354 34.5297" stroke="black" stroke-width="0.5"/>
<path d="M300.354 66.7297L260.854 68.7297C260.354 63.7297 258.188 59.5631 256.354 57.7297L302.354 55.2297M300.854 52.7297C289.854 51.2297 278.854 46.4297 266.854 40.4297M228.854 30.7297L272.854 28.2297L281.354 26.7297" stroke="black" stroke-width="0.5"/>
<path d="M290.854 40.7297C290.854 38.7297 289.854 34.7297 286.354 32.7297C288.575 32.7297 291.952 33.7701 294.463 36.1397C294.927 37.6697 293.854 41.2297 290.813 42.7297C290.799 42.1395 290.854 41.454 290.854 40.7297Z" fill="#E0426F"/>
<path d="M272.854 43.2297C279.85 43.5795 285.867 43.6846 291.248 44.2297M297.854 45.2297C295.751 44.7791 293.558 44.4638 291.248 44.2297M295.854 37.7297C295.437 37.1446 294.967 36.6154 294.463 36.1397M291.248 44.2297C290.921 43.885 290.827 43.3619 290.813 42.7297M290.813 42.7297C290.799 42.1395 290.854 41.454 290.854 40.7297C290.854 38.7297 289.854 34.7297 286.354 32.7297C288.575 32.7297 291.952 33.7701 294.463 36.1397M290.813 42.7297C293.854 41.2297 294.927 37.6697 294.463 36.1397" stroke="black" stroke-width="0.5"/>
<path d="M290.854 40.7297C286.354 40.7297 284.354 36.7297 283.354 34.2297" stroke="black" stroke-width="0.5"/>
<path d="M132.853 12.8297C119.353 16.8297 107.353 22.7297 93.3525 35.7297C100.353 23.7297 115.853 14.2297 131.353 9.22974L132.853 12.8297Z" fill="#E0426F" stroke="black" stroke-width="0.5"/>
<path d="M131.353 9.22974C111.353 14.9038 93.3525 32.2297 85.3525 30.2297C98.3525 20.7297 114.353 12.2297 130.853 7.72974L131.353 9.22974Z" fill="#E0426F" stroke="black" stroke-width="0.5"/>
<path d="M10.3532 48.2296H4.35321C1.85254 52.2296 1.85254 62.2296 2.35321 65.7296C0.852539 66.7296 0.853137 71.2296 1.85321 72.7296L5.85321 73.2296V74.7296L1.85321 76.7296V78.7296C5.85321 79.7296 14.3532 81.7296 22.3532 81.2296V79.7296H39.8532C39.1865 71.2296 40.8532 60.7296 49.8532 53.7296C47.3532 49.7296 40.3532 45.2296 37.3532 44.7296C27.3532 43.7296 12.3532 46.2296 10.3532 48.2296Z" fill="#E0426F" stroke="black" stroke-width="0.5"/>
<path d="M93.3545 35.7297C75.5212 36.5631 43.8545 41.4297 33.3545 44.4297L37.3545 44.7297C42.3545 46.2297 47.8545 50.5631 49.8545 53.7297C62.8535 44.2297 88.3535 51.2297 86.8535 78.7297H96.8535C89.8535 67.7297 90.8535 45.7297 93.3545 35.7297Z" fill="#E0426F" stroke="black" stroke-width="0.5"/>
<path d="M10.3525 48.2298H4.35254C36.8527 28.7297 58.8528 34.7297 84.8525 30.2297L93.8528 35.7297C76.8528 36.7297 47.8525 40.2297 33.8525 44.4297C25.8525 44.2297 11.8525 46.2297 10.3525 48.2298Z" fill="#E0426F" stroke="black" stroke-width="0.5"/>
<path d="M37.354 44.7298C29.854 43.7297 12.854 45.7297 10.354 48.2298C9.55399 50.6298 12.6873 53.5631 14.354 54.7297C23.854 56.2297 37.354 50.2297 37.354 44.7298Z" fill="#E0426F" stroke="black" stroke-width="0.5"/>
<path d="M4.35323 48.2297C11.3532 49.2297 5.35323 59.7297 2.35323 64.7297C1.85316 57.7297 2.35303 52.2297 4.35323 48.2297Z" fill="#E0426F" stroke="black" stroke-width="0.5"/>
<path d="M22.3525 84.2297V79.7297H39.8525L40.3525 84.2297H22.3525Z" fill="#E0426F" stroke="black" stroke-width="0.5"/>
<path d="M2.85449 65.7295C4.35449 68.2295 6.35449 71.3962 5.85449 73.2295M22.3545 79.7295C11.8545 80.2295 7.35449 76.2295 8.35449 72.7295C8.85449 72.2295 10.3545 70.7295 11.3545 70.7295" stroke="black" stroke-width="0.5"/>
<path d="M32.3545 74.7296C29.8545 70.7296 24.3545 65.7297 21.3545 64.2297C19.6044 63.7297 16.9794 63.8547 14.2293 64.2297C12.6044 65.563 11.3545 68.7296 11.8545 71.7296C11.8545 72.8963 13.1619 75.2296 15.8545 75.2296C20.3545 75.2296 27.3545 75.7296 32.3545 74.7296Z" fill="#E0426F"/>
<path d="M6.35449 65.7297C8.60443 65.2297 11.4793 64.6047 14.2293 64.2297M14.2293 64.2297C16.9794 63.8547 19.6044 63.7297 21.3545 64.2297C24.3545 65.7297 29.8545 70.7296 32.3545 74.7296C27.3545 75.7296 20.3545 75.2296 15.8545 75.2296C13.1619 75.2296 11.8545 72.8963 11.8545 71.7296C11.3545 68.7296 12.6043 65.563 14.2293 64.2297Z" stroke="black" stroke-width="0.5"/>
<path d="M11.8545 71.2297C19.8545 69.7297 23.3545 72.3582 26.3545 73.8582M13.3545 74.2297L30.8545 73.7297" stroke="black" stroke-width="0.5"/>
<path d="M22.3525 82.7295H31.8525C33.8525 82.7295 35.3525 80.7295 34.8525 79.7295M38.3525 79.7295V84.2295" stroke="black" stroke-width="0.5"/>
<path d="M22.3544 81.23C17.8544 81.23 13.3544 81.73 1.85444 78.73V76.73L5.85444 74.73V73.23L1.85444 72.73C1.35352 71.2297 0.353711 68.2297 2.35371 65.7297C1.85395 57.7297 2.35395 51.2297 4.35444 48.2295C36.8544 28.7299 58.8544 34.7299 84.8544 30.2299C162.854 -24.7702 244.854 12.2297 281.854 26.7299L295.354 28.7297L295.854 35.7297V38.7297C297.353 43.7297 298.688 48.2297 297.354 50.2297C299.854 51.2297 302.354 54.3964 302.354 56.2297L300.354 66.2297C300.806 77.0776 298.398 77.3019 289.067 77.6144C288.076 77.6476 286.007 77.6817 284.854 77.7297V79.2297L259.854 79.6608M22.3544 81.23V84.23H40.3528L39.8544 79.73M22.3544 81.23V79.73H39.8544M39.8544 79.73C36.8544 38.23 90.3544 41.23 86.8544 80.23V82.7297H213.354C207.354 39.2297 261.854 39.2297 259.854 79.6608M259.353 79.6608H259.854" stroke="black"/>
</svg>
