<svg width="303" height="96" viewBox="0 0 303 96" fill="none" xmlns="http://www.w3.org/2000/svg">
<circle cx="62.2725" cy="74.0454" r="20.5" fill="#E56E90" stroke="black"/>
<circle cx="235.272" cy="74.0454" r="20.5" fill="#E56E90" stroke="black"/>
<path d="M132.271 12.5453L130.771 9.04527C170.771 1.04538 192.271 1.54541 231.271 13.0454L227.771 17.5454C207.771 9.54532 189.771 8.54532 173.771 8.04539C171.271 7.54539 167.271 7.54535 164.771 8.04527C154.771 8.04539 142.771 9.54539 132.271 12.5453Z" fill="#E56E90" stroke="black" stroke-width="0.5"/>
<path d="M130.771 9.04545L130.271 7.54545C166.271 -3.45459 198.771 0.545284 234.271 9.54546L231.271 13.0455C191.271 0.54541 165.271 2.04541 130.771 9.04545Z" fill="#E56E90" stroke="black" stroke-width="0.5"/>
<path d="M130.771 9.04552C182.271 -2.4545 210.771 7.54553 231.271 13.0455" stroke="black" stroke-width="0.5"/>
<path d="M170.272 30.0454L173.772 8.04541C207.272 9.04541 218.772 14.5454 223.272 16.0454L225.755 28.0454C198.765 28.046 181.27 29.5455 170.272 30.0454Z" fill="#E56E90"/>
<path d="M226.272 30.5454L223.272 16.0454C218.772 14.5454 207.272 9.04541 173.772 8.04541L170.272 30.0454C181.272 29.5454 198.772 28.0454 225.772 28.0454" stroke="black" stroke-width="0.5"/>
<path d="M164.772 8.04541C131.772 9.04541 111.772 18.0454 92.7725 35.5454L95.2725 33.5454L159.272 30.5454L164.772 8.04541Z" fill="#E56E90" stroke="black" stroke-width="0.5"/>
<path d="M239.271 22.5454C235.604 19.8787 229.771 17.5454 223.271 16.0454L225.771 28.0454H232.271C235.271 26.5454 238.271 24.3141 239.271 22.5454Z" fill="#E56E90" stroke="black" stroke-width="0.5"/>
<path d="M96.2725 78.5454H163.272L197.772 77.0454H212.272L212.772 82.5454H198.772H97.7725H86.2725V78.5454H96.2725Z" fill="#E56E90"/>
<path d="M96.2725 78.5454H163.272L197.772 77.0454M96.2725 78.5454C96.2725 80.0454 96.7725 81.0454 97.7725 82.5454M96.2725 78.5454H86.2725V82.5454H97.7725M197.772 77.0454L198.772 82.5454M197.772 77.0454H212.272L212.772 82.5454H198.772M198.772 82.5454H97.7725" stroke="black" stroke-width="0.5"/>
<path d="M96.2716 78.5454C91.7725 74.0454 88.7725 52.0454 92.7716 35.5454L164.772 31.5454C160.772 36.5454 159.772 70.5454 163.272 78.5454H96.2716Z" fill="#E56E90" stroke="black" stroke-width="0.5"/>
<path d="M228.272 30.5454L164.772 31.5454C160.773 36.5454 159.773 70.5454 163.272 78.5454L197.772 77.0454C202.272 75.5454 208.772 70.0454 228.272 30.5454Z" fill="#E56E90" stroke="black" stroke-width="0.5"/>
<path d="M170.272 30.0455C165.772 30.5455 162.272 30.5455 159.272 30.5455L164.772 8.04548C167.772 7.54541 170.772 7.54541 173.772 8.04548L170.272 30.0455Z" fill="#E56E90" stroke="black" stroke-width="0.5"/>
<path d="M98.7725 32.0457C103.272 37.5457 110.272 34.0457 114.272 32.5457C115.272 17.0455 102.272 25.0455 98.7725 32.0457Z" fill="#E56E90" stroke="black" stroke-width="0.5"/>
<path d="M234.271 9.54541L231.271 13.0454C248.271 18.5454 258.771 21.5454 271.271 28.0454H272.771L280.771 26.5454C265.771 20.0454 258.271 17.5454 234.271 9.54541Z" fill="#EDADBF" stroke="black" stroke-width="0.5"/>
<path d="M271.271 28.0454C260.771 22.5454 241.771 16.0454 231.271 13.0454L229.271 15.5454L244.271 23.0454C242.771 25.5454 238.771 27.5454 232.771 30.2454C244.771 29.5454 261.771 28.5454 271.271 28.0454Z" fill="#EDADBF" stroke="black" stroke-width="0.5"/>
<path d="M276.772 34.3454L282.771 32.0454L272.271 28.0454L228.271 30.5454C220.771 45.5454 205.771 76.0454 197.771 77.0454H212.271C210.771 66.0454 220.271 42.5454 245.272 51.5454C255.772 46.0454 265.772 40.5454 276.772 34.3454Z" fill="#EDADBF" stroke="black" stroke-width="0.5"/>
<path d="M277.771 34.0454C265.771 40.5454 255.771 46.0454 245.271 51.5454C249.771 54.5454 260.271 60.5454 259.271 79.5454L284.271 79.0454V77.5454C292.771 76.5454 301.271 80.0454 299.771 66.0454L301.771 56.0454C301.771 54.5454 299.271 50.5454 296.771 50.0454C298.271 47.5454 295.271 38.5454 295.271 38.5454V37.0454L291.271 34.0454L286.271 32.5454L282.771 32.0454L277.771 34.0454Z" fill="#EDADBF" stroke="black" stroke-width="0.5"/>
<path d="M280.771 26.5454L272.271 28.0454L282.771 32.0454C292.271 33.0454 291.269 34.5454 295.265 36.9656L294.771 28.5454L280.771 26.5454Z" fill="#EDADBF"/>
<path d="M295.271 37.0454L295.265 36.9656M295.265 36.9656L294.771 28.5454L280.771 26.5454L272.271 28.0454L282.771 32.0454C292.271 33.0454 291.269 34.5454 295.265 36.9656Z" stroke="black" stroke-width="0.5"/>
<path d="M293.772 36.5456C293.272 34.0455 282.272 33.8454 276.772 34.3454" stroke="black" stroke-width="0.5"/>
<path d="M299.772 66.5454L260.272 68.5454C259.772 63.5454 257.606 59.3787 255.772 57.5454L301.772 55.0454M300.272 52.5454C289.272 51.0454 278.272 46.2454 266.272 40.2454M228.272 30.5454L272.272 28.0454L280.772 26.5454" stroke="black" stroke-width="0.5"/>
<path d="M290.272 40.5454C290.272 38.5454 289.272 34.5454 285.772 32.5454C287.993 32.5454 291.37 33.5858 293.881 35.9554C294.345 37.4854 293.272 41.0454 290.231 42.5454C290.217 41.9551 290.272 41.2697 290.272 40.5454Z" fill="#EDADBF"/>
<path d="M272.272 43.0454C279.268 43.3952 285.285 43.5003 290.666 44.0454M297.272 45.0454C295.169 44.5948 292.976 44.2795 290.666 44.0454M295.272 37.5454C294.855 36.9603 294.385 36.4311 293.881 35.9554M290.666 44.0454C290.339 43.7006 290.245 43.1776 290.231 42.5454M290.231 42.5454C290.217 41.9551 290.272 41.2697 290.272 40.5454C290.272 38.5454 289.272 34.5454 285.772 32.5454C287.993 32.5454 291.37 33.5858 293.881 35.9554M290.231 42.5454C293.272 41.0454 294.345 37.4854 293.881 35.9554" stroke="black" stroke-width="0.5"/>
<path d="M290.272 40.5454C285.772 40.5454 283.772 36.5454 282.772 34.0454" stroke="black" stroke-width="0.5"/>
<path d="M132.271 12.6454C118.771 16.6454 106.771 22.5454 92.7705 35.5454C99.7705 23.5454 115.271 14.0454 130.771 9.04541L132.271 12.6454Z" fill="#EDADBF" stroke="black" stroke-width="0.5"/>
<path d="M130.771 9.04541C110.771 14.7194 92.7705 32.0454 84.7705 30.0454C97.7705 20.5454 113.771 12.0454 130.271 7.54541L130.771 9.04541Z" fill="#EDADBF" stroke="black" stroke-width="0.5"/>
<path d="M9.77118 48.0453H3.77118C1.27051 52.0453 1.27051 62.0453 1.77118 65.5453C0.270508 66.5453 0.271105 71.0453 1.27118 72.5453L5.27118 73.0453V74.5453L1.27118 76.5453V78.5453C5.27118 79.5453 13.7712 81.5453 21.7712 81.0453V79.5453H39.2712C38.6045 71.0453 40.2712 60.5453 49.2712 53.5453C46.7712 49.5453 39.7712 45.0453 36.7712 44.5453C26.7712 43.5453 11.7712 46.0453 9.77118 48.0453Z" fill="#EDADBF" stroke="black" stroke-width="0.5"/>
<path d="M92.7725 35.5454C74.9391 36.3787 43.2725 41.2454 32.7725 44.2454L36.7725 44.5454C41.7725 46.0454 47.2725 50.3787 49.2725 53.5454C62.2715 44.0454 87.7715 51.0454 86.2715 78.5454H96.2715C89.2715 67.5454 90.2715 45.5454 92.7725 35.5454Z" fill="#EDADBF" stroke="black" stroke-width="0.5"/>
<path d="M9.77051 48.0455H3.77051C36.2707 28.5454 58.2708 34.5454 84.2705 30.0454L93.2708 35.5454C76.2708 36.5454 47.2705 40.0454 33.2705 44.2454C25.2705 44.0454 11.2705 46.0454 9.77051 48.0455Z" fill="#EDADBF" stroke="black" stroke-width="0.5"/>
<path d="M36.772 44.5455C29.272 43.5454 12.272 45.5454 9.77196 48.0455C8.97196 50.4454 12.1053 53.3787 13.772 54.5454C23.272 56.0454 36.772 50.0454 36.772 44.5455Z" fill="#EDADBF" stroke="black" stroke-width="0.5"/>
<path d="M3.7712 48.0454C10.7712 49.0454 4.7712 59.5454 1.7712 64.5454C1.27113 57.5454 1.771 52.0454 3.7712 48.0454Z" fill="#EDADBF" stroke="black" stroke-width="0.5"/>
<path d="M21.7705 84.0454V79.5454H39.2705L39.7705 84.0454H21.7705Z" fill="#EDADBF" stroke="black" stroke-width="0.5"/>
<path d="M2.27246 65.5454C3.77246 68.0454 5.77246 71.2121 5.27246 73.0454M21.7725 79.5454C11.2725 80.0454 6.77246 76.0454 7.77246 72.5454C8.27246 72.0454 9.77246 70.5454 10.7725 70.5454" stroke="black" stroke-width="0.5"/>
<path d="M31.7725 74.5455C29.2725 70.5455 23.7725 65.5456 20.7725 64.0456C19.0224 63.5456 16.3973 63.6706 13.6472 64.0456C12.0223 65.3789 10.7725 68.5455 11.2725 71.5455C11.2725 72.7122 12.5799 75.0455 15.2725 75.0455C19.7725 75.0455 26.7725 75.5455 31.7725 74.5455Z" fill="#EDADBF"/>
<path d="M5.77246 65.5456C8.0224 65.0456 10.8973 64.4206 13.6472 64.0456M13.6472 64.0456C16.3973 63.6706 19.0224 63.5456 20.7725 64.0456C23.7725 65.5456 29.2725 70.5455 31.7725 74.5455C26.7725 75.5455 19.7725 75.0455 15.2725 75.0455C12.5799 75.0455 11.2725 72.7122 11.2725 71.5455C10.7725 68.5455 12.0223 65.3789 13.6472 64.0456Z" stroke="black" stroke-width="0.5"/>
<path d="M11.2725 71.0456C19.2725 69.5457 22.7725 72.1741 25.7725 73.6741M12.7725 74.0457L30.2725 73.5457" stroke="black" stroke-width="0.5"/>
<path d="M21.7705 82.5454H31.2705C33.2705 82.5454 34.7705 80.5454 34.2705 79.5454M37.7705 79.5454V84.0454" stroke="black" stroke-width="0.5"/>
<path d="M21.7724 81.0457C17.2724 81.0457 12.7724 81.5457 1.27241 78.5457V76.5457L5.27241 74.5456V73.0457L1.27241 72.5457C0.771484 71.0454 -0.22832 68.0454 1.77168 65.5454C1.27192 57.5454 1.77192 51.0454 3.77241 48.0452C36.2724 28.5455 58.2724 34.5456 84.2724 30.0456C162.272 -24.9545 244.272 12.0454 281.272 26.5456L294.772 28.5454L295.272 35.5454V38.5454C296.771 43.5454 298.106 48.0454 296.772 50.0454C299.272 51.0454 301.772 54.2121 301.772 56.0454L299.772 66.0454C300.224 76.8933 297.816 77.1176 288.485 77.43C287.494 77.4632 285.425 77.4974 284.272 77.5454V79.0454L259.272 79.4764M21.7724 81.0457V84.0457H39.7708L39.2724 79.5457M21.7724 81.0457V79.5457H39.2724M39.2724 79.5457C36.2724 38.0457 89.7724 41.0457 86.2724 80.0457V82.5454H212.772C206.772 39.0454 261.272 39.0454 259.272 79.4764M258.771 79.4764H259.272" stroke="black"/>
</svg>
