<svg width="304" height="96" viewBox="0 0 304 96" fill="none" xmlns="http://www.w3.org/2000/svg">
<circle cx="63.0518" cy="74.2146" r="20.5" fill="#EDADBF" stroke="black"/>
<circle cx="236.052" cy="74.2146" r="20.5" fill="#EDADBF" stroke="black"/>
<path d="M133.05 12.7145L131.55 9.21445C171.55 1.21457 193.05 1.7146 232.05 13.2145L228.55 17.7145C208.55 9.71451 190.55 8.71451 174.55 8.21458C172.05 7.71458 168.05 7.71454 165.55 8.21445C155.55 8.21458 143.55 9.71458 133.05 12.7145Z" fill="#E56E90" stroke="black" stroke-width="0.5"/>
<path d="M131.55 9.21464L131.05 7.71464C167.05 -3.2854 199.55 0.714474 235.05 9.71465L232.05 13.2146C192.05 0.7146 166.05 2.2146 131.55 9.21464Z" fill="#E56E90" stroke="black" stroke-width="0.5"/>
<path d="M131.55 9.21447C183.05 -2.28556 211.55 7.71448 232.05 13.2145" stroke="black" stroke-width="0.5"/>
<path d="M171.052 30.2146L174.552 8.2146C208.052 9.2146 219.552 14.7146 224.052 16.2146L226.535 28.2146C199.544 28.2152 182.049 29.7147 171.052 30.2146Z" fill="#E56E90"/>
<path d="M227.052 30.7146L224.052 16.2146C219.552 14.7146 208.052 9.2146 174.552 8.2146L171.052 30.2146C182.052 29.7146 199.552 28.2146 226.552 28.2146" stroke="black" stroke-width="0.5"/>
<path d="M165.552 8.2146C132.552 9.2146 112.552 18.2146 93.5518 35.7146L96.0518 33.7146L160.052 30.7146L165.552 8.2146Z" fill="#E56E90" stroke="black" stroke-width="0.5"/>
<path d="M240.05 22.7146C236.383 20.0479 230.55 17.7146 224.05 16.2146L226.55 28.2146H233.05C236.05 26.7146 239.05 24.4833 240.05 22.7146Z" fill="#E56E90" stroke="black" stroke-width="0.5"/>
<path d="M97.0518 78.7146H164.052L198.552 77.2146H213.052L213.552 82.7146H199.552H98.5518H87.0518V78.7146H97.0518Z" fill="#E56E90"/>
<path d="M97.0518 78.7146H164.052L198.552 77.2146M97.0518 78.7146C97.0518 80.2146 97.5518 81.2146 98.5518 82.7146M97.0518 78.7146H87.0518V82.7146H98.5518M198.552 77.2146L199.552 82.7146M198.552 77.2146H213.052L213.552 82.7146H199.552M199.552 82.7146H98.5518" stroke="black" stroke-width="0.5"/>
<path d="M97.0509 78.7146C92.5518 74.2146 89.5518 52.2146 93.5509 35.7146L165.552 31.7146C161.552 36.7146 160.552 70.7146 164.052 78.7146H97.0509Z" fill="#E56E90" stroke="black" stroke-width="0.5"/>
<path d="M229.052 30.7146L165.552 31.7146C161.552 36.7146 160.552 70.7146 164.052 78.7146L198.552 77.2146C203.052 75.7146 209.552 70.2146 229.052 30.7146Z" fill="#E56E90" stroke="black" stroke-width="0.5"/>
<path d="M171.052 30.2147C166.552 30.7147 163.052 30.7147 160.052 30.7147L165.552 8.21467C168.552 7.7146 171.552 7.7146 174.552 8.21467L171.052 30.2147Z" fill="#E56E90" stroke="black" stroke-width="0.5"/>
<path d="M99.5518 32.2146C104.052 37.7146 111.052 34.2146 115.052 32.7146C116.052 17.2145 103.052 25.2145 99.5518 32.2146Z" fill="#E56E90" stroke="black" stroke-width="0.5"/>
<path d="M235.05 9.7146L232.05 13.2146C249.05 18.7146 259.55 21.7146 272.05 28.2146H273.55L281.55 26.7146C266.55 20.2146 259.05 17.7146 235.05 9.7146Z" fill="#E0426F" stroke="black" stroke-width="0.5"/>
<path d="M272.05 28.2146C261.55 22.7146 242.55 16.2146 232.05 13.2146L230.05 15.7146L245.05 23.2146C243.55 25.7146 239.55 27.7146 233.55 30.4146C245.55 29.7146 262.55 28.7146 272.05 28.2146Z" fill="#E0426F" stroke="black" stroke-width="0.5"/>
<path d="M277.552 34.5146L283.55 32.2146L273.051 28.2146L229.051 30.7146C221.551 45.7146 206.551 76.2146 198.551 77.2146H213.051C211.551 66.2146 221.051 42.7146 246.052 51.7146C256.552 46.2146 266.552 40.7146 277.552 34.5146Z" fill="#E0426F" stroke="black" stroke-width="0.5"/>
<path d="M278.55 34.2146C266.55 40.7146 256.55 46.2146 246.05 51.7146C250.55 54.7146 261.05 60.7146 260.05 79.7146L285.05 79.2146V77.7146C293.55 76.7146 302.05 80.2146 300.55 66.2146L302.55 56.2146C302.55 54.7146 300.05 50.7146 297.55 50.2146C299.05 47.7146 296.05 38.7146 296.05 38.7146V37.2146L292.05 34.2146L287.05 32.7146L283.55 32.2146L278.55 34.2146Z" fill="#E0426F" stroke="black" stroke-width="0.5"/>
<path d="M281.55 26.7146L273.05 28.2146L283.55 32.2146C293.05 33.2146 292.049 34.7146 296.044 37.1348L295.55 28.7146L281.55 26.7146Z" fill="#E0426F"/>
<path d="M296.05 37.2146L296.044 37.1348M296.044 37.1348L295.55 28.7146L281.55 26.7146L273.05 28.2146L283.55 32.2146C293.05 33.2146 292.049 34.7146 296.044 37.1348Z" stroke="black" stroke-width="0.5"/>
<path d="M294.552 36.7148C294.052 34.2147 283.052 34.0146 277.552 34.5146" stroke="black" stroke-width="0.5"/>
<path d="M300.552 66.7146L261.052 68.7146C260.552 63.7146 258.385 59.5479 256.552 57.7146L302.552 55.2146M301.052 52.7146C290.052 51.2146 279.052 46.4146 267.052 40.4146M229.052 30.7146L273.052 28.2146L281.552 26.7146" stroke="black" stroke-width="0.5"/>
<path d="M291.052 40.7146C291.052 38.7146 290.052 34.7146 286.552 32.7146C288.773 32.7146 292.149 33.755 294.661 36.1246C295.124 37.6546 294.052 41.2146 291.01 42.7146C290.996 42.1243 291.052 41.4389 291.052 40.7146Z" fill="#E0426F"/>
<path d="M273.052 43.2146C280.047 43.5644 286.064 43.6695 291.445 44.2146M298.052 45.2146C295.949 44.764 293.756 44.4487 291.445 44.2146M296.052 37.7146C295.634 37.1295 295.165 36.6002 294.661 36.1246M291.445 44.2146C291.119 43.8698 291.025 43.3468 291.01 42.7146M291.01 42.7146C290.996 42.1243 291.052 41.4389 291.052 40.7146C291.052 38.7146 290.052 34.7146 286.552 32.7146C288.773 32.7146 292.149 33.755 294.661 36.1246M291.01 42.7146C294.052 41.2146 295.124 37.6546 294.661 36.1246" stroke="black" stroke-width="0.5"/>
<path d="M291.052 40.7146C286.552 40.7146 284.552 36.7146 283.552 34.2146" stroke="black" stroke-width="0.5"/>
<path d="M133.05 12.8146C119.55 16.8146 107.55 22.7146 93.5498 35.7146C100.55 23.7146 116.05 14.2146 131.55 9.2146L133.05 12.8146Z" fill="#E56E90" stroke="black" stroke-width="0.5"/>
<path d="M131.55 9.2146C111.55 14.8886 93.5498 32.2146 85.5498 30.2146C98.5498 20.7146 114.55 12.2146 131.05 7.7146L131.55 9.2146Z" fill="#E56E90" stroke="black" stroke-width="0.5"/>
<path d="M10.5505 48.2145H4.55047C2.0498 52.2145 2.0498 62.2145 2.55047 65.7145C1.0498 66.7145 1.0504 71.2145 2.05047 72.7145L6.05047 73.2145V74.7145L2.05047 76.7145V78.7145C6.05047 79.7145 14.5505 81.7145 22.5505 81.2145V79.7145H40.0505C39.3838 71.2145 41.0505 60.7145 50.0505 53.7145C47.5505 49.7145 40.5505 45.2145 37.5505 44.7145C27.5505 43.7145 12.5505 46.2145 10.5505 48.2145Z" fill="#E56E90" stroke="black" stroke-width="0.5"/>
<path d="M93.5518 35.7146C75.7184 36.5479 44.0518 41.4146 33.5518 44.4146L37.5518 44.7146C42.5518 46.2146 48.0518 50.5479 50.0518 53.7146C63.0508 44.2146 88.5508 51.2146 87.0508 78.7146H97.0508C90.0508 67.7146 91.0508 45.7146 93.5518 35.7146Z" fill="#E56E90" stroke="black" stroke-width="0.5"/>
<path d="M10.5498 48.2147H4.5498C37.05 28.7146 59.05 34.7146 85.0498 30.2146L94.05 35.7146C77.05 36.7146 48.0498 40.2146 34.0498 44.4146C26.0498 44.2146 12.0498 46.2146 10.5498 48.2147Z" fill="#E56E90" stroke="black" stroke-width="0.5"/>
<path d="M37.5513 44.7147C30.0513 43.7146 13.0513 45.7146 10.5513 48.2147C9.75126 50.6146 12.8846 53.5479 14.5513 54.7146C24.0513 56.2146 37.5513 50.2146 37.5513 44.7147Z" fill="#E56E90" stroke="black" stroke-width="0.5"/>
<path d="M4.5505 48.2146C11.5505 49.2146 5.5505 59.7146 2.5505 64.7146C2.05043 57.7146 2.55029 52.2146 4.5505 48.2146Z" fill="#E56E90" stroke="black" stroke-width="0.5"/>
<path d="M22.5498 84.2146V79.7146H40.0498L40.5498 84.2146H22.5498Z" fill="#E56E90" stroke="black" stroke-width="0.5"/>
<path d="M3.05176 65.7144C4.55176 68.2144 6.55176 71.381 6.05176 73.2144M22.5518 79.7144C12.0518 80.2144 7.55176 76.2144 8.55176 72.7144C9.05176 72.2144 10.5518 70.7144 11.5518 70.7144" stroke="black" stroke-width="0.5"/>
<path d="M32.5518 74.7145C30.0518 70.7145 24.5518 65.7146 21.5518 64.2146C19.8017 63.7145 17.1766 63.8395 14.4265 64.2146C12.8016 65.5479 11.5518 68.7145 12.0518 71.7145C12.0518 72.8811 13.3592 75.2145 16.0518 75.2145C20.5518 75.2145 27.5518 75.7145 32.5518 74.7145Z" fill="#E56E90"/>
<path d="M6.55176 65.7146C8.8017 65.2145 11.6766 64.5896 14.4265 64.2146M14.4265 64.2146C17.1766 63.8395 19.8017 63.7145 21.5518 64.2146C24.5518 65.7146 30.0518 70.7145 32.5518 74.7145C27.5518 75.7145 20.5518 75.2145 16.0518 75.2145C13.3592 75.2145 12.0518 72.8811 12.0518 71.7145C11.5518 68.7145 12.8016 65.5479 14.4265 64.2146Z" stroke="black" stroke-width="0.5"/>
<path d="M12.0518 71.2146C20.0518 69.7146 23.5518 72.3431 26.5518 73.8431M13.5518 74.2146L31.0518 73.7146" stroke="black" stroke-width="0.5"/>
<path d="M22.5498 82.7144H32.0498C34.0498 82.7144 35.5498 80.7144 35.0498 79.7144M38.5498 79.7144V84.2144" stroke="black" stroke-width="0.5"/>
<path d="M22.5517 81.2148C18.0517 81.2148 13.5517 81.7148 2.0517 78.7148V76.7148L6.0517 74.7148V73.2148L2.0517 72.7149C1.55078 71.2146 0.550977 68.2146 2.55097 65.7146C2.05122 57.7146 2.55122 51.2146 4.5517 48.2143C37.0517 28.7147 59.0517 34.7148 85.0517 30.2148C163.052 -24.7853 245.052 12.2146 282.052 26.7148L295.552 28.7146L296.052 35.7146V38.7146C297.55 43.7146 298.885 48.2146 297.552 50.2146C300.052 51.2146 302.552 54.3813 302.552 56.2146L300.552 66.2146C301.004 77.0625 298.596 77.2868 289.264 77.5992C288.273 77.6324 286.204 77.6666 285.052 77.7146V79.2146L260.052 79.6456M22.5517 81.2148V84.2148H40.55L40.0517 79.7148M22.5517 81.2148V79.7148H40.0517M40.0517 79.7148C37.0517 38.2148 90.5517 41.2148 87.0517 80.2148V82.7146H213.552C207.552 39.2146 262.052 39.2146 260.052 79.6456M259.55 79.6456H260.052" stroke="black"/>
</svg>
