<svg width="303" height="96" viewBox="0 0 303 96" fill="none" xmlns="http://www.w3.org/2000/svg">
<circle cx="62.6562" cy="74.3384" r="20.5" stroke="black"/>
<circle cx="235.656" cy="74.3384" r="20.5" stroke="black"/>
<path d="M132.654 12.8382L131.154 9.33823C171.154 1.33835 192.654 1.83838 231.654 13.3383L228.154 17.8383C208.154 9.83829 190.154 8.83829 174.154 8.33836C171.654 7.83836 167.654 7.83832 165.154 8.33823C155.154 8.33836 143.154 9.83836 132.654 12.8382Z" stroke="black" stroke-width="0.5"/>
<path d="M131.154 9.33842L130.654 7.83842C166.654 -3.16162 199.154 0.838253 234.654 9.83842L231.654 13.3384C191.654 0.838379 165.654 2.33838 131.154 9.33842Z" stroke="black" stroke-width="0.5"/>
<path d="M131.154 9.33837C182.654 -2.16166 211.154 7.83838 231.654 13.3384" stroke="black" stroke-width="0.5"/>
<path d="M226.656 30.8384L223.656 16.3384C219.156 14.8384 207.656 9.33838 174.156 8.33838L170.656 30.3384C181.656 29.8384 199.156 28.3384 226.156 28.3384" stroke="black" stroke-width="0.5"/>
<path d="M165.156 8.33838C132.156 9.33838 112.156 18.3384 93.1562 35.8384L95.6562 33.8384L159.656 30.8384L165.156 8.33838Z" stroke="black" stroke-width="0.5"/>
<path d="M239.654 22.8384C235.988 20.1717 230.154 17.8384 223.654 16.3384L226.154 28.3384H232.654C235.654 26.8384 238.654 24.6071 239.654 22.8384Z" stroke="black" stroke-width="0.5"/>
<path d="M96.6562 78.8384H163.656L198.156 77.3384M96.6562 78.8384C96.6562 80.3384 97.1562 81.3384 98.1562 82.8384M96.6562 78.8384H86.6562V82.8384H98.1562M198.156 77.3384L199.156 82.8384M198.156 77.3384H212.656L213.156 82.8384H199.156M199.156 82.8384H98.1562" stroke="black" stroke-width="0.5"/>
<path d="M96.6554 78.8384C92.1562 74.3384 89.1563 52.3384 93.1554 35.8384L165.156 31.8384C161.156 36.8384 160.156 70.8384 163.656 78.8384H96.6554Z" stroke="black" stroke-width="0.5"/>
<path d="M228.656 30.8384L165.156 31.8384C161.156 36.8384 160.156 70.8384 163.656 78.8384L198.156 77.3384C202.656 75.8384 209.156 70.3384 228.656 30.8384Z" stroke="black" stroke-width="0.5"/>
<path d="M170.656 30.3385C166.156 30.8385 162.656 30.8385 159.656 30.8385L165.156 8.33845C168.156 7.83838 171.156 7.83838 174.156 8.33845L170.656 30.3385Z" stroke="black" stroke-width="0.5"/>
<path d="M99.1562 32.3385C103.656 37.8385 110.656 34.3385 114.656 32.8385C115.656 17.3384 102.656 25.3384 99.1562 32.3385Z" stroke="black" stroke-width="0.5"/>
<path d="M234.654 9.83838L231.654 13.3384C248.654 18.8384 259.154 21.8384 271.654 28.3384H273.154L281.154 26.8384C266.154 20.3384 258.654 17.8384 234.654 9.83838Z" fill="#E0426F" stroke="black" stroke-width="0.5"/>
<path d="M271.654 28.3384C261.154 22.8384 242.154 16.3384 231.654 13.3384L229.654 15.8384L244.654 23.3384C243.154 25.8384 239.154 27.8384 233.154 30.5384C245.154 29.8384 262.154 28.8384 271.654 28.3384Z" fill="#E0426F" stroke="black" stroke-width="0.5"/>
<path d="M277.156 34.6384L283.155 32.3384L272.655 28.3384L228.655 30.8384C221.155 45.8384 206.155 76.3384 198.155 77.3384H212.655C211.155 66.3384 220.655 42.8384 245.656 51.8384C256.156 46.3384 266.156 40.8384 277.156 34.6384Z" fill="#E0426F" stroke="black" stroke-width="0.5"/>
<path d="M278.154 34.3384C266.154 40.8384 256.154 46.3384 245.654 51.8384C250.154 54.8384 260.654 60.8384 259.654 79.8384L284.654 79.3384V77.8384C293.154 76.8384 301.654 80.3384 300.154 66.3384L302.154 56.3384C302.154 54.8384 299.654 50.8384 297.154 50.3384C298.654 47.8384 295.654 38.8384 295.654 38.8384V37.3384L291.654 34.3384L286.654 32.8384L283.154 32.3384L278.154 34.3384Z" fill="#E0426F" stroke="black" stroke-width="0.5"/>
<path d="M281.154 26.8384L272.654 28.3384L283.154 32.3384C292.654 33.3384 291.653 34.8384 295.648 37.2586L295.154 28.8384L281.154 26.8384Z" fill="#E0426F"/>
<path d="M295.654 37.3384L295.648 37.2586M295.648 37.2586L295.154 28.8384L281.154 26.8384L272.654 28.3384L283.154 32.3384C292.654 33.3384 291.653 34.8384 295.648 37.2586Z" stroke="black" stroke-width="0.5"/>
<path d="M294.156 36.8386C293.656 34.3385 282.656 34.1384 277.156 34.6384" stroke="black" stroke-width="0.5"/>
<path d="M300.156 66.8384L260.656 68.8384C260.156 63.8384 257.99 59.6717 256.156 57.8384L302.156 55.3384M300.656 52.8384C289.656 51.3384 278.656 46.5384 266.656 40.5384M228.656 30.8384L272.656 28.3384L281.156 26.8384" stroke="black" stroke-width="0.5"/>
<path d="M290.656 40.8384C290.656 38.8384 289.656 34.8384 286.156 32.8384C288.377 32.8384 291.754 33.8788 294.265 36.2484C294.729 37.7784 293.656 41.3384 290.614 42.8384C290.601 42.2481 290.656 41.5627 290.656 40.8384Z" fill="#E0426F"/>
<path d="M272.656 43.3384C279.652 43.6882 285.669 43.7933 291.049 44.3384M297.656 45.3384C295.553 44.8877 293.36 44.5725 291.049 44.3384M295.656 37.8384C295.238 37.2533 294.769 36.724 294.265 36.2484M291.049 44.3384C290.723 43.9936 290.629 43.4706 290.614 42.8384M290.614 42.8384C290.601 42.2481 290.656 41.5627 290.656 40.8384C290.656 38.8384 289.656 34.8384 286.156 32.8384C288.377 32.8384 291.754 33.8788 294.265 36.2484M290.614 42.8384C293.656 41.3384 294.729 37.7784 294.265 36.2484" stroke="black" stroke-width="0.5"/>
<path d="M290.656 40.8384C286.156 40.8384 284.156 36.8384 283.156 34.3384" stroke="black" stroke-width="0.5"/>
<path d="M132.654 12.9384C119.154 16.9384 107.154 22.8384 93.1543 35.8384C100.154 23.8384 115.654 14.3384 131.154 9.33838L132.654 12.9384Z" fill="#EFC7D3" stroke="black" stroke-width="0.5"/>
<path d="M131.154 9.33838C111.154 15.0124 93.1543 32.3384 85.1543 30.3384C98.1543 20.8384 114.154 12.3384 130.654 7.83838L131.154 9.33838Z" fill="#EFC7D3" stroke="black" stroke-width="0.5"/>
<path d="M10.155 48.3384H4.15496C1.6543 52.3384 1.6543 62.3384 2.15496 65.8384C0.654297 66.8384 0.654894 71.3384 1.65496 72.8384L5.65496 73.3384V74.8384L1.65496 76.8384V78.8384C5.65496 79.8384 14.155 81.8384 22.155 81.3384V79.8384H39.655C38.9883 71.3384 40.655 60.8384 49.655 53.8384C47.155 49.8384 40.155 45.3384 37.155 44.8384C27.155 43.8384 12.155 46.3384 10.155 48.3384Z" fill="#EFC7D3" stroke="black" stroke-width="0.5"/>
<path d="M93.1562 35.8384C75.3229 36.6717 43.6562 41.5384 33.1562 44.5384L37.1562 44.8384C42.1562 46.3384 47.6562 50.6717 49.6562 53.8384C62.6553 44.3384 88.1553 51.3384 86.6553 78.8384H96.6553C89.6553 67.8384 90.6553 45.8384 93.1562 35.8384Z" fill="#EFC7D3" stroke="black" stroke-width="0.5"/>
<path d="M10.1543 48.3384H4.1543C36.6545 28.8383 58.6545 34.8384 84.6543 30.3384L93.6545 35.8384C76.6545 36.8384 47.6543 40.3384 33.6543 44.5384C25.6543 44.3384 11.6543 46.3384 10.1543 48.3384Z" fill="#EFC7D3" stroke="black" stroke-width="0.5"/>
<path d="M37.1558 44.8385C29.6558 43.8384 12.6558 45.8384 10.1558 48.3385C9.35575 50.7384 12.4891 53.6717 14.1558 54.8384C23.6558 56.3384 37.1558 50.3384 37.1558 44.8385Z" fill="#EFC7D3" stroke="black" stroke-width="0.5"/>
<path d="M4.15499 48.3384C11.155 49.3384 5.15499 59.8384 2.15499 64.8384C1.65492 57.8384 2.15479 52.3384 4.15499 48.3384Z" fill="#EFC7D3" stroke="black" stroke-width="0.5"/>
<path d="M22.1543 84.3384V79.8384H39.6543L40.1543 84.3384H22.1543Z" fill="#EFC7D3" stroke="black" stroke-width="0.5"/>
<path d="M2.65625 65.8384C4.15625 68.3384 6.15625 71.505 5.65625 73.3384M22.1562 79.8384C11.6562 80.3384 7.15625 76.3384 8.15625 72.8384C8.65625 72.3384 10.1562 70.8384 11.1562 70.8384" stroke="black" stroke-width="0.5"/>
<path d="M32.1562 74.8384C29.6562 70.8384 24.1562 65.8385 21.1562 64.3385C19.4062 63.8384 16.7811 63.9634 14.031 64.3385C12.4061 65.6718 11.1562 68.8384 11.6562 71.8384C11.6562 73.005 12.9637 75.3384 15.6562 75.3384C20.1562 75.3384 27.1562 75.8384 32.1562 74.8384Z" fill="#EFC7D3"/>
<path d="M6.15625 65.8385C8.40619 65.3384 11.2811 64.7135 14.031 64.3385M14.031 64.3385C16.7811 63.9634 19.4062 63.8384 21.1562 64.3385C24.1562 65.8385 29.6562 70.8384 32.1562 74.8384C27.1562 75.8384 20.1562 75.3384 15.6562 75.3384C12.9637 75.3384 11.6562 73.005 11.6562 71.8384C11.1562 68.8384 12.4061 65.6718 14.031 64.3385Z" stroke="black" stroke-width="0.5"/>
<path d="M11.6562 71.3385C19.6562 69.8385 23.1562 72.467 26.1562 73.967M13.1562 74.3385L30.6562 73.8385" stroke="black" stroke-width="0.5"/>
<path d="M22.1543 82.8384H31.6543C33.6543 82.8384 35.1543 80.8384 34.6543 79.8384M38.1543 79.8384V84.3384" stroke="black" stroke-width="0.5"/>
<path d="M22.1562 81.3386C17.6562 81.3386 13.1562 81.8386 1.6562 78.8386V76.8386L5.6562 74.8386V73.3386L1.6562 72.8386C1.15527 71.3384 0.155469 68.3384 2.15546 65.8384C1.65571 57.8384 2.15571 51.3384 4.1562 48.3381C36.6562 28.8385 58.6562 34.8386 84.6562 30.3386C162.656 -24.6615 244.656 12.3384 281.656 26.8386L295.156 28.8384L295.656 35.8384V38.8384C297.155 43.8384 298.49 48.3384 297.156 50.3384C299.656 51.3384 302.156 54.505 302.156 56.3384L300.156 66.3384C300.608 77.1863 298.2 77.4106 288.868 77.723C287.877 77.7562 285.808 77.7904 284.656 77.8384V79.3384L259.656 79.7694M22.1562 81.3386V84.3386H40.1545L39.6562 79.8386M22.1562 81.3386V79.8386H39.6562M39.6562 79.8386C36.6562 38.3386 90.1562 41.3386 86.6562 80.3386V82.8384H213.156C207.156 39.3384 261.656 39.3384 259.656 79.7694M259.155 79.7694H259.656" stroke="black"/>
</svg>
