<svg width="303" height="96" viewBox="0 0 303 96" fill="none" xmlns="http://www.w3.org/2000/svg">
<circle cx="62.2915" cy="74.0605" r="20.5" fill="#E56E90" stroke="black"/>
<circle cx="235.292" cy="74.0605" r="20.5" fill="#E56E90" stroke="black"/>
<path d="M132.29 12.5604L130.79 9.0604C170.79 1.06051 192.29 1.56055 231.29 13.0605L227.79 17.5605C207.79 9.56046 189.79 8.56046 173.79 8.06052C171.29 7.56052 167.29 7.56049 164.79 8.0604C154.79 8.06052 142.79 9.56052 132.29 12.5604Z" fill="#E0426F" stroke="black" stroke-width="0.5"/>
<path d="M130.79 9.06059L130.29 7.56059C166.29 -3.43945 198.79 0.560421 234.29 9.56059L231.29 13.0606C191.29 0.560547 165.29 2.06055 130.79 9.06059Z" fill="#E0426F" stroke="black" stroke-width="0.5"/>
<path d="M130.79 9.06066C182.29 -2.43937 210.79 7.56067 231.29 13.0607" stroke="black" stroke-width="0.5"/>
<path d="M170.292 30.0605L173.792 8.06055C207.292 9.06055 218.792 14.5605 223.292 16.0605L225.774 28.0605C198.784 28.0612 181.289 29.5607 170.292 30.0605Z" fill="#E0426F"/>
<path d="M226.292 30.5605L223.292 16.0605C218.792 14.5605 207.292 9.06055 173.792 8.06055L170.292 30.0605C181.292 29.5605 198.792 28.0605 225.792 28.0605" stroke="black" stroke-width="0.5"/>
<path d="M164.792 8.06055C131.792 9.06055 111.792 18.0605 92.7915 35.5605L95.2915 33.5605L159.292 30.5605L164.792 8.06055Z" fill="#E0426F" stroke="black" stroke-width="0.5"/>
<path d="M239.29 22.5605C235.623 19.8939 229.79 17.5605 223.29 16.0605L225.79 28.0605H232.29C235.29 26.5605 238.29 24.3293 239.29 22.5605Z" fill="#E0426F" stroke="black" stroke-width="0.5"/>
<path d="M96.2915 78.5605H163.292L197.792 77.0605H212.292L212.792 82.5605H198.792H97.7915H86.2915V78.5605H96.2915Z" fill="#E0426F"/>
<path d="M96.2915 78.5605H163.292L197.792 77.0605M96.2915 78.5605C96.2915 80.0605 96.7915 81.0605 97.7915 82.5605M96.2915 78.5605H86.2915V82.5605H97.7915M197.792 77.0605L198.792 82.5605M197.792 77.0605H212.292L212.792 82.5605H198.792M198.792 82.5605H97.7915" stroke="black" stroke-width="0.5"/>
<path d="M96.2906 78.5605C91.7915 74.0605 88.7915 52.0605 92.7906 35.5605L164.792 31.5605C160.792 36.5605 159.792 70.5605 163.291 78.5605H96.2906Z" fill="#E0426F" stroke="black" stroke-width="0.5"/>
<path d="M228.291 30.5605L164.791 31.5605C160.791 36.5605 159.791 70.5605 163.291 78.5605L197.791 77.0605C202.291 75.5605 208.791 70.0605 228.291 30.5605Z" fill="#E0426F" stroke="black" stroke-width="0.5"/>
<path d="M170.292 30.0606C165.792 30.5606 162.292 30.5606 159.292 30.5606L164.792 8.06062C167.792 7.56055 170.792 7.56055 173.792 8.06062L170.292 30.0606Z" fill="#E0426F" stroke="black" stroke-width="0.5"/>
<path d="M98.7915 32.0608C103.292 37.5608 110.292 34.0608 114.292 32.5608C115.292 17.0607 102.292 25.0607 98.7915 32.0608Z" fill="#E0426F" stroke="black" stroke-width="0.5"/>
<path d="M234.29 9.56055L231.29 13.0605C248.29 18.5605 258.79 21.5605 271.29 28.0605H272.79L280.79 26.5605C265.79 20.0605 258.29 17.5605 234.29 9.56055Z" stroke="black" stroke-width="0.5"/>
<path d="M271.29 28.0605C260.79 22.5605 241.79 16.0605 231.29 13.0605L229.29 15.5605L244.29 23.0605C242.79 25.5605 238.79 27.5605 232.79 30.2605C244.79 29.5605 261.79 28.5605 271.29 28.0605Z" stroke="black" stroke-width="0.5"/>
<path d="M276.792 34.3605L282.79 32.0605L272.291 28.0605L228.291 30.5605C220.791 45.5605 205.791 76.0605 197.791 77.0605H212.291C210.791 66.0605 220.291 42.5605 245.292 51.5605C255.792 46.0605 265.792 40.5605 276.792 34.3605Z" stroke="black" stroke-width="0.5"/>
<path d="M277.79 34.0606C265.79 40.5606 255.79 46.0606 245.29 51.5606C249.79 54.5605 260.29 60.5605 259.29 79.5605L284.29 79.0605V77.5605C292.79 76.5605 301.29 80.0605 299.79 66.0605L301.79 56.0605C301.79 54.5605 299.29 50.5605 296.79 50.0605C298.29 47.5605 295.29 38.5605 295.29 38.5605V37.0605L291.29 34.0605L286.29 32.5605L282.79 32.0605L277.79 34.0606Z" stroke="black" stroke-width="0.5"/>
<path d="M295.29 37.0605L295.284 36.9807M295.284 36.9807L294.79 28.5605L280.79 26.5605L272.29 28.0605L282.79 32.0605C292.29 33.0605 291.289 34.5605 295.284 36.9807Z" stroke="black" stroke-width="0.5"/>
<path d="M293.792 36.5607C293.292 34.0606 282.292 33.8606 276.792 34.3606" stroke="black" stroke-width="0.5"/>
<path d="M299.792 66.5605L260.292 68.5605C259.792 63.5605 257.625 59.3939 255.792 57.5605L301.792 55.0605M300.292 52.5605C289.292 51.0605 278.292 46.2605 266.292 40.2605M228.292 30.5605L272.292 28.0605L280.792 26.5605" stroke="black" stroke-width="0.5"/>
<path d="M272.292 43.0605C279.287 43.4103 285.304 43.5154 290.685 44.0605M297.292 45.0605C295.189 44.6099 292.995 44.2946 290.685 44.0605M295.292 37.5605C294.874 36.9754 294.404 36.4462 293.9 35.9705M290.685 44.0605C290.358 43.7158 290.264 43.1927 290.25 42.5605M290.25 42.5605C290.236 41.9703 290.292 41.2848 290.292 40.5605C290.292 38.5605 289.292 34.5605 285.792 32.5605C288.012 32.5605 291.389 33.6009 293.9 35.9705M290.25 42.5605C293.292 41.0605 294.364 37.5005 293.9 35.9705" stroke="black" stroke-width="0.5"/>
<path d="M290.292 40.5605C285.792 40.5605 283.792 36.5605 282.792 34.0605" stroke="black" stroke-width="0.5"/>
<path d="M132.29 12.6605C118.79 16.6605 106.79 22.5605 92.79 35.5605C99.79 23.5605 115.29 14.0605 130.79 9.06055L132.29 12.6605Z" fill="#E56E90" stroke="black" stroke-width="0.5"/>
<path d="M130.79 9.06055C110.79 14.7346 92.79 32.0605 84.79 30.0605C97.79 20.5605 113.79 12.0605 130.29 7.56055L130.79 9.06055Z" fill="#E56E90" stroke="black" stroke-width="0.5"/>
<path d="M9.79071 48.0604H3.79071C1.29004 52.0604 1.29004 62.0604 1.79071 65.5604C0.290039 66.5604 0.290637 71.0604 1.29071 72.5604L5.29071 73.0604V74.5604L1.29071 76.5604V78.5604C5.29071 79.5604 13.7907 81.5604 21.7907 81.0604V79.5604H39.2907C38.624 71.0604 40.2907 60.5604 49.2907 53.5604C46.7907 49.5604 39.7907 45.0604 36.7907 44.5604C26.7907 43.5604 11.7907 46.0604 9.79071 48.0604Z" fill="#E56E90" stroke="black" stroke-width="0.5"/>
<path d="M92.7915 35.5605C74.9582 36.3939 43.2915 41.2605 32.7915 44.2605L36.7915 44.5605C41.7915 46.0605 47.2915 50.3939 49.2915 53.5605C62.2905 44.0605 87.7905 51.0605 86.2905 78.5605H96.2905C89.2905 67.5605 90.2905 45.5605 92.7915 35.5605Z" fill="#E56E90" stroke="black" stroke-width="0.5"/>
<path d="M9.79004 48.0606H3.79004C36.2902 28.5605 58.2903 34.5605 84.29 30.0605L93.2903 35.5605C76.2903 36.5605 47.29 40.0605 33.29 44.2606C25.29 44.0605 11.29 46.0605 9.79004 48.0606Z" fill="#E56E90" stroke="black" stroke-width="0.5"/>
<path d="M36.7915 44.5606C29.2915 43.5605 12.2915 45.5605 9.79149 48.0606C8.99149 50.4606 12.1248 53.3939 13.7915 54.5605C23.2915 56.0605 36.7915 50.0605 36.7915 44.5606Z" fill="#E56E90" stroke="black" stroke-width="0.5"/>
<path d="M3.79073 48.0605C10.7907 49.0605 4.79073 59.5605 1.79073 64.5605C1.29066 57.5605 1.79053 52.0605 3.79073 48.0605Z" fill="#E56E90" stroke="black" stroke-width="0.5"/>
<path d="M21.79 84.0605V79.5605H39.29L39.79 84.0605H21.79Z" fill="#E56E90" stroke="black" stroke-width="0.5"/>
<path d="M2.29199 65.5605C3.79199 68.0605 5.79199 71.2272 5.29199 73.0605M21.792 79.5605C11.292 80.0605 6.79199 76.0605 7.79199 72.5605C8.29199 72.0605 9.79199 70.5605 10.792 70.5605" stroke="black" stroke-width="0.5"/>
<path d="M31.792 74.5607C29.292 70.5607 23.792 65.5607 20.792 64.0607C19.0419 63.5607 16.4169 63.6857 13.6668 64.0607C12.0419 65.3941 10.792 68.5607 11.292 71.5607C11.292 72.7273 12.5994 75.0607 15.292 75.0607C19.792 75.0607 26.792 75.5607 31.792 74.5607Z" fill="#E56E90"/>
<path d="M5.79199 65.5607C8.04193 65.0607 10.9168 64.4357 13.6668 64.0607M13.6668 64.0607C16.4169 63.6857 19.0419 63.5607 20.792 64.0607C23.792 65.5607 29.292 70.5607 31.792 74.5607C26.792 75.5607 19.792 75.0607 15.292 75.0607C12.5994 75.0607 11.292 72.7273 11.292 71.5607C10.792 68.5607 12.0418 65.3941 13.6668 64.0607Z" stroke="black" stroke-width="0.5"/>
<path d="M11.292 71.0607C19.292 69.5608 22.792 72.1893 25.792 73.6893M12.792 74.0608L30.292 73.5608" stroke="black" stroke-width="0.5"/>
<path d="M21.79 82.5605H31.29C33.29 82.5605 34.79 80.5605 34.29 79.5605M37.79 79.5605V84.0605" stroke="black" stroke-width="0.5"/>
<path d="M21.7915 81.0608C17.2915 81.0608 12.7915 81.5608 1.29145 78.5608V76.5608L5.29145 74.5608V73.0608L1.29145 72.5608C0.790527 71.0605 -0.209277 68.0605 1.79072 65.5605C1.29096 57.5605 1.79096 51.0605 3.79145 48.0603C36.2915 28.5607 58.2914 34.5607 84.2914 30.0607C162.291 -24.9394 244.291 12.0605 281.291 26.5607L294.791 28.5605L295.291 35.5605V38.5605C296.79 43.5605 298.125 48.0605 296.791 50.0605C299.291 51.0605 301.791 54.2272 301.791 56.0605L299.791 66.0605C300.243 76.9085 297.835 77.1327 288.504 77.4452C287.513 77.4784 285.444 77.5125 284.291 77.5605V79.0605L259.291 79.4916M21.7915 81.0608V84.0608H39.7898L39.2915 79.5608M21.7915 81.0608V79.5608H39.2915M39.2915 79.5608C36.2915 38.0608 89.7914 41.0608 86.2914 80.0608V82.5605H212.791C206.791 39.0605 261.291 39.0605 259.291 79.4916M258.79 79.4916H259.291" stroke="black"/>
</svg>
