<svg width="303" height="95" viewBox="0 0 303 95" fill="none" xmlns="http://www.w3.org/2000/svg">
<circle cx="62.6978" cy="73.8762" r="20.5" stroke="black"/>
<circle cx="235.698" cy="73.8762" r="20.5" stroke="black"/>
<path d="M132.696 12.3761L131.196 8.87608C171.196 0.876188 192.696 1.37622 231.696 12.8762L228.196 17.3762C208.196 9.37613 190.196 8.37613 174.196 7.8762C171.696 7.3762 167.696 7.37616 165.196 7.87608C155.196 7.8762 143.196 9.3762 132.696 12.3761Z" fill="#E56E90" stroke="black" stroke-width="0.5"/>
<path d="M131.196 8.87627L130.696 7.37626C166.696 -3.62378 199.196 0.376095 234.696 9.37627L231.696 12.8763C191.696 0.376221 165.696 1.87622 131.196 8.87627Z" fill="#E56E90" stroke="black" stroke-width="0.5"/>
<path d="M131.196 8.87609C182.696 -2.62394 211.196 7.3761 231.696 12.8761" stroke="black" stroke-width="0.5"/>
<path d="M170.698 29.8762L174.198 7.87622C207.698 8.87622 219.198 14.3762 223.698 15.8762L226.181 27.8762C199.19 27.8769 181.695 29.3763 170.698 29.8762Z" fill="#E56E90"/>
<path d="M226.698 30.3762L223.698 15.8762C219.198 14.3762 207.698 8.87622 174.198 7.87622L170.698 29.8762C181.698 29.3762 199.198 27.8762 226.198 27.8762" stroke="black" stroke-width="0.5"/>
<path d="M165.198 7.87622C132.198 8.87622 112.198 17.8762 93.1978 35.3762L95.6978 33.3762L159.698 30.3762L165.198 7.87622Z" fill="#E56E90" stroke="black" stroke-width="0.5"/>
<path d="M239.696 22.3762C236.03 19.7096 230.196 17.3762 223.696 15.8762L226.196 27.8762H232.696C235.696 26.3762 238.696 24.145 239.696 22.3762Z" fill="#E56E90" stroke="black" stroke-width="0.5"/>
<path d="M96.6978 78.3762H163.698L198.198 76.8762H212.698L213.198 82.3762H199.198H98.1978H86.6978V78.3762H96.6978Z" fill="#E56E90"/>
<path d="M96.6978 78.3762H163.698L198.198 76.8762M96.6978 78.3762C96.6978 79.8762 97.1978 80.8762 98.1978 82.3762M96.6978 78.3762H86.6978V82.3762H98.1978M198.198 76.8762L199.198 82.3762M198.198 76.8762H212.698L213.198 82.3762H199.198M199.198 82.3762H98.1978" stroke="black" stroke-width="0.5"/>
<path d="M96.6969 78.3762C92.1977 73.8762 89.1978 51.8762 93.1969 35.3762L165.198 31.3762C161.198 36.3762 160.198 70.3762 163.698 78.3762H96.6969Z" fill="#E56E90" stroke="black" stroke-width="0.5"/>
<path d="M228.697 30.3762L165.197 31.3762C161.197 36.3762 160.198 70.3762 163.697 78.3762L198.197 76.8762C202.697 75.3762 209.197 69.8762 228.697 30.3762Z" fill="#E56E90" stroke="black" stroke-width="0.5"/>
<path d="M170.698 29.8763C166.198 30.3763 162.698 30.3763 159.698 30.3763L165.198 7.87629C168.198 7.37622 171.198 7.37622 174.198 7.87629L170.698 29.8763Z" fill="#E56E90" stroke="black" stroke-width="0.5"/>
<path d="M99.1978 31.8762C103.698 37.3762 110.698 33.8762 114.698 32.3762C115.698 16.8761 102.698 24.8761 99.1978 31.8762Z" fill="#E56E90" stroke="black" stroke-width="0.5"/>
<path d="M234.696 9.37622L231.696 12.8762C248.696 18.3762 259.196 21.3762 271.696 27.8762H273.196L281.196 26.3762C266.196 19.8762 258.696 17.3762 234.696 9.37622Z" stroke="black" stroke-width="0.5"/>
<path d="M271.696 27.8762C261.196 22.3762 242.196 15.8762 231.696 12.8762L229.696 15.3762L244.696 22.8762C243.196 25.3762 239.196 27.3762 233.196 30.0762C245.196 29.3762 262.196 28.3762 271.696 27.8762Z" stroke="black" stroke-width="0.5"/>
<path d="M277.198 34.1762L283.196 31.8762L272.697 27.8762L228.697 30.3762C221.197 45.3762 206.197 75.8762 198.197 76.8762H212.697C211.197 65.8762 220.697 42.3762 245.698 51.3762C256.198 45.8762 266.198 40.3762 277.198 34.1762Z" stroke="black" stroke-width="0.5"/>
<path d="M278.196 33.8762C266.196 40.3762 256.196 45.8762 245.696 51.3762C250.196 54.3762 260.696 60.3762 259.696 79.3762L284.696 78.8762V77.3762C293.196 76.3762 301.696 79.8762 300.196 65.8762L302.196 55.8762C302.196 54.3762 299.696 50.3762 297.196 49.8762C298.696 47.3762 295.696 38.3762 295.696 38.3762V36.8762L291.696 33.8762L286.696 32.3762L283.196 31.8762L278.196 33.8762Z" stroke="black" stroke-width="0.5"/>
<path d="M295.696 36.8762L295.69 36.7964M295.69 36.7964L295.196 28.3762L281.196 26.3762L272.696 27.8762L283.196 31.8762C292.696 32.8762 291.695 34.3762 295.69 36.7964Z" stroke="black" stroke-width="0.5"/>
<path d="M294.198 36.3764C293.698 33.8763 282.698 33.6762 277.198 34.1762" stroke="black" stroke-width="0.5"/>
<path d="M300.198 66.3762L260.698 68.3762C260.198 63.3762 258.031 59.2096 256.198 57.3762L302.198 54.8762M300.698 52.3762C289.698 50.8762 278.698 46.0762 266.698 40.0762M228.698 30.3762L272.698 27.8762L281.198 26.3762" stroke="black" stroke-width="0.5"/>
<path d="M272.698 42.8762C279.693 43.226 285.71 43.3311 291.091 43.8762M297.698 44.8762C295.595 44.4256 293.402 44.1103 291.091 43.8762M295.698 37.3762C295.28 36.7911 294.811 36.2619 294.307 35.7862M291.091 43.8762C290.765 43.5315 290.671 43.0084 290.656 42.3762M290.656 42.3762C290.642 41.7859 290.698 41.1005 290.698 40.3762C290.698 38.3762 289.698 34.3762 286.198 32.3762C288.419 32.3762 291.795 33.4166 294.307 35.7862M290.656 42.3762C293.698 40.8762 294.77 37.3162 294.307 35.7862" stroke="black" stroke-width="0.5"/>
<path d="M290.698 40.3762C286.198 40.3762 284.198 36.3762 283.198 33.8762" stroke="black" stroke-width="0.5"/>
<path d="M132.696 12.4762C119.196 16.4762 107.196 22.3762 93.1963 35.3762C100.196 23.3762 115.696 13.8762 131.196 8.87622L132.696 12.4762Z" fill="#EFC7D3" stroke="black" stroke-width="0.5"/>
<path d="M131.196 8.87622C111.196 14.5503 93.1963 31.8762 85.1963 29.8762C98.1963 20.3762 114.196 11.8762 130.696 7.37622L131.196 8.87622Z" fill="#EFC7D3" stroke="black" stroke-width="0.5"/>
<path d="M10.197 47.8761H4.19696C1.69629 51.8761 1.69629 61.8761 2.19696 65.3761C0.696289 66.3761 0.696887 70.8761 1.69696 72.3761L5.69696 72.8761V74.3761L1.69696 76.3761V78.3761C5.69696 79.3761 14.197 81.3761 22.197 80.8761V79.3761H39.697C39.0303 70.8761 40.697 60.3761 49.697 53.3761C47.197 49.3761 40.197 44.8761 37.197 44.3761C27.197 43.3761 12.197 45.8761 10.197 47.8761Z" fill="#EFC7D3" stroke="black" stroke-width="0.5"/>
<path d="M93.1978 35.3762C75.3644 36.2096 43.6978 41.0762 33.1978 44.0762L37.1978 44.3762C42.1978 45.8762 47.6978 50.2096 49.6978 53.3762C62.6968 43.8762 88.1968 50.8762 86.6968 78.3762H96.6968C89.6968 67.3762 90.6968 45.3762 93.1978 35.3762Z" fill="#EFC7D3" stroke="black" stroke-width="0.5"/>
<path d="M10.1963 47.8763H4.19629C36.6965 28.3762 58.6965 34.3762 84.6963 29.8762L93.6965 35.3762C76.6965 36.3762 47.6963 39.8762 33.6963 44.0762C25.6963 43.8762 11.6963 45.8762 10.1963 47.8763Z" fill="#EFC7D3" stroke="black" stroke-width="0.5"/>
<path d="M37.1977 44.3763C29.6977 43.3762 12.6977 45.3762 10.1977 47.8763C9.39774 50.2762 12.5311 53.2096 14.1977 54.3762C23.6978 55.8762 37.1977 49.8762 37.1977 44.3763Z" fill="#EFC7D3" stroke="black" stroke-width="0.5"/>
<path d="M4.19698 47.8762C11.197 48.8762 5.19698 59.3762 2.19698 64.3762C1.69691 57.3762 2.19678 51.8762 4.19698 47.8762Z" fill="#EFC7D3" stroke="black" stroke-width="0.5"/>
<path d="M22.1963 83.8762V79.3762H39.6963L40.1963 83.8762H22.1963Z" fill="#EFC7D3" stroke="black" stroke-width="0.5"/>
<path d="M2.69824 65.376C4.19824 67.876 6.19824 71.0426 5.69824 72.876M22.1982 79.376C11.6982 79.876 7.19824 75.876 8.19824 72.376C8.69824 71.876 10.1982 70.376 11.1982 70.376" stroke="black" stroke-width="0.5"/>
<path d="M32.1982 74.3761C29.6982 70.3761 24.1982 65.3762 21.1982 63.8762C19.4482 63.3762 16.8231 63.5012 14.073 63.8762C12.4481 65.2095 11.1982 68.3761 11.6982 71.3761C11.6982 72.5428 13.0057 74.8761 15.6982 74.8761C20.1982 74.8761 27.1982 75.3761 32.1982 74.3761Z" fill="#EFC7D3"/>
<path d="M6.19824 65.3762C8.44818 64.8762 11.3231 64.2512 14.073 63.8762M14.073 63.8762C16.8231 63.5012 19.4482 63.3762 21.1982 63.8762C24.1982 65.3762 29.6982 70.3761 32.1982 74.3761C27.1982 75.3761 20.1982 74.8761 15.6982 74.8761C13.0057 74.8761 11.6982 72.5428 11.6982 71.3761C11.1982 68.3761 12.4481 65.2095 14.073 63.8762Z" stroke="black" stroke-width="0.5"/>
<path d="M11.6982 70.8762C19.6982 69.3762 23.1982 72.0047 26.1982 73.5047M13.1982 73.8762L30.6982 73.3762" stroke="black" stroke-width="0.5"/>
<path d="M22.1963 82.376H31.6963C33.6963 82.376 35.1963 80.376 34.6963 79.376M38.1963 79.376V83.876" stroke="black" stroke-width="0.5"/>
<path d="M22.1977 80.8765C17.6977 80.8765 13.1977 81.3765 1.6977 78.3765V76.3765L5.6977 74.3765V72.8765L1.6977 72.3765C1.19678 70.8762 0.196973 67.8762 2.19697 65.3762C1.69721 57.3762 2.19721 50.8762 4.1977 47.876C36.6977 28.3764 58.6977 34.3764 84.6977 29.8764C162.698 -25.1237 244.698 11.8762 281.698 26.3764L295.198 28.3762L295.698 35.3762V38.3762C297.196 43.3762 298.531 47.8762 297.198 49.8762C299.698 50.8762 302.198 54.0429 302.198 55.8762L300.198 65.8762C300.65 76.7241 298.242 76.9484 288.91 77.2609C287.919 77.294 285.85 77.3282 284.698 77.3762V78.8762L259.698 79.3073M22.1977 80.8765V83.8765H40.196L39.6977 79.3765M22.1977 80.8765V79.3765H39.6977M39.6977 79.3765C36.6977 37.8765 90.1977 40.8765 86.6977 79.8765V82.3762H213.198C207.198 38.8762 261.698 38.8762 259.698 79.3073M259.196 79.3073H259.698" stroke="black"/>
</svg>
