<svg width="303" height="96" viewBox="0 0 303 96" fill="none" xmlns="http://www.w3.org/2000/svg">
<circle cx="62.249" cy="74.3535" r="20.5" fill="#E56E90" stroke="black"/>
<circle cx="235.249" cy="74.3535" r="20.5" fill="#E56E90" stroke="black"/>
<path d="M132.247 12.8534L130.747 9.35337C170.747 1.35348 192.247 1.85352 231.247 13.3535L227.747 17.8535C207.747 9.85343 189.747 8.85342 173.747 8.35349C171.247 7.85349 167.247 7.85345 164.747 8.35337C154.747 8.35349 142.747 9.85349 132.247 12.8534Z" fill="#EFC7D3" stroke="black" stroke-width="0.5"/>
<path d="M130.747 9.35356L130.247 7.85356C166.247 -3.14648 198.747 0.85339 234.247 9.85356L231.247 13.3536C191.247 0.853516 165.247 2.35352 130.747 9.35356Z" fill="#EFC7D3" stroke="black" stroke-width="0.5"/>
<path d="M130.747 9.3535C182.247 -2.14652 210.747 7.85352 231.247 13.3535" stroke="black" stroke-width="0.5"/>
<path d="M170.249 30.3535L173.749 8.35352C207.249 9.35352 218.749 14.8535 223.249 16.3535L225.732 28.3535C198.742 28.3542 181.247 29.8536 170.249 30.3535Z" fill="#EFC7D3"/>
<path d="M226.249 30.8535L223.249 16.3535C218.749 14.8535 207.249 9.35352 173.749 8.35352L170.249 30.3535C181.249 29.8535 198.749 28.3535 225.749 28.3535" stroke="black" stroke-width="0.5"/>
<path d="M164.749 8.35352C131.749 9.35352 111.749 18.3535 92.749 35.8535L95.249 33.8535L159.249 30.8535L164.749 8.35352Z" fill="#EFC7D3" stroke="black" stroke-width="0.5"/>
<path d="M239.247 22.8535C235.58 20.1868 229.747 17.8535 223.247 16.3535L225.747 28.3535H232.247C235.247 26.8535 238.247 24.6223 239.247 22.8535Z" fill="#EFC7D3" stroke="black" stroke-width="0.5"/>
<path d="M96.249 78.8535H163.249L197.749 77.3535H212.249L212.749 82.8535H198.749H97.749H86.249V78.8535H96.249Z" fill="#EFC7D3"/>
<path d="M96.249 78.8535H163.249L197.749 77.3535M96.249 78.8535C96.249 80.3535 96.749 81.3535 97.749 82.8535M96.249 78.8535H86.249V82.8535H97.749M197.749 77.3535L198.749 82.8535M197.749 77.3535H212.249L212.749 82.8535H198.749M198.749 82.8535H97.749" stroke="black" stroke-width="0.5"/>
<path d="M96.2482 78.8535C91.749 74.3535 88.7491 52.3535 92.7482 35.8535L164.749 31.8535C160.749 36.8535 159.749 70.8535 163.249 78.8535H96.2482Z" fill="#EFC7D3" stroke="black" stroke-width="0.5"/>
<path d="M228.249 30.8535L164.749 31.8535C160.749 36.8535 159.749 70.8535 163.249 78.8535L197.749 77.3535C202.249 75.8535 208.749 70.3535 228.249 30.8535Z" fill="#EFC7D3" stroke="black" stroke-width="0.5"/>
<path d="M170.249 30.3536C165.749 30.8536 162.249 30.8536 159.249 30.8536L164.749 8.35359C167.749 7.85352 170.749 7.85352 173.749 8.35359L170.249 30.3536Z" fill="#EFC7D3" stroke="black" stroke-width="0.5"/>
<path d="M98.749 32.3537C103.249 37.8537 110.249 34.3537 114.249 32.8537C115.249 17.3535 102.249 25.3535 98.749 32.3537Z" fill="#EFC7D3" stroke="black" stroke-width="0.5"/>
<path d="M234.247 9.85352L231.247 13.3535C248.247 18.8535 258.747 21.8535 271.247 28.3535H272.747L280.747 26.8535C265.747 20.3535 258.247 17.8535 234.247 9.85352Z" fill="#E0426F" stroke="black" stroke-width="0.5"/>
<path d="M271.247 28.3535C260.747 22.8535 241.747 16.3535 231.247 13.3535L229.247 15.8535L244.247 23.3535C242.747 25.8535 238.747 27.8535 232.747 30.5535C244.747 29.8535 261.747 28.8535 271.247 28.3535Z" fill="#E0426F" stroke="black" stroke-width="0.5"/>
<path d="M276.749 34.6535L282.747 32.3535L272.248 28.3535L228.248 30.8535C220.748 45.8535 205.748 76.3535 197.748 77.3535H212.248C210.748 66.3535 220.248 42.8535 245.249 51.8535C255.749 46.3535 265.749 40.8535 276.749 34.6535Z" fill="#E0426F" stroke="black" stroke-width="0.5"/>
<path d="M277.747 34.3535C265.747 40.8535 255.747 46.3535 245.247 51.8535C249.747 54.8535 260.247 60.8535 259.247 79.8535L284.247 79.3535V77.8535C292.747 76.8535 301.247 80.3535 299.747 66.3535L301.747 56.3535C301.747 54.8535 299.247 50.8535 296.747 50.3535C298.247 47.8535 295.247 38.8535 295.247 38.8535V37.3535L291.247 34.3535L286.247 32.8535L282.747 32.3535L277.747 34.3535Z" fill="#E0426F" stroke="black" stroke-width="0.5"/>
<path d="M280.747 26.8535L272.247 28.3535L282.747 32.3535C292.247 33.3535 291.246 34.8535 295.241 37.2737L294.747 28.8535L280.747 26.8535Z" fill="#E0426F"/>
<path d="M295.247 37.3535L295.241 37.2737M295.241 37.2737L294.747 28.8535L280.747 26.8535L272.247 28.3535L282.747 32.3535C292.247 33.3535 291.246 34.8535 295.241 37.2737Z" stroke="black" stroke-width="0.5"/>
<path d="M293.749 36.8537C293.249 34.3536 282.249 34.1535 276.749 34.6535" stroke="black" stroke-width="0.5"/>
<path d="M299.749 66.8535L260.249 68.8535C259.749 63.8535 257.582 59.6868 255.749 57.8535L301.749 55.3535M300.249 52.8535C289.249 51.3535 278.249 46.5535 266.249 40.5535M228.249 30.8535L272.249 28.3535L280.749 26.8535" stroke="black" stroke-width="0.5"/>
<path d="M290.249 40.8535C290.249 38.8535 289.249 34.8535 285.749 32.8535C287.97 32.8535 291.347 33.8939 293.858 36.2635C294.322 37.7935 293.249 41.3535 290.207 42.8535C290.194 42.2632 290.249 41.5778 290.249 40.8535Z" fill="#E0426F"/>
<path d="M272.249 43.3535C279.245 43.7033 285.262 43.8084 290.642 44.3535M297.249 45.3535C295.146 44.9029 292.953 44.5876 290.642 44.3535M295.249 37.8535C294.831 37.2684 294.362 36.7392 293.858 36.2635M290.642 44.3535C290.316 44.0088 290.222 43.4857 290.207 42.8535M290.207 42.8535C290.194 42.2632 290.249 41.5778 290.249 40.8535C290.249 38.8535 289.249 34.8535 285.749 32.8535C287.97 32.8535 291.347 33.8939 293.858 36.2635M290.207 42.8535C293.249 41.3535 294.322 37.7935 293.858 36.2635" stroke="black" stroke-width="0.5"/>
<path d="M290.249 40.8535C285.749 40.8535 283.749 36.8535 282.749 34.3535" stroke="black" stroke-width="0.5"/>
<path d="M132.247 12.9535C118.747 16.9535 106.747 22.8535 92.7471 35.8535C99.7471 23.8535 115.247 14.3535 130.747 9.35352L132.247 12.9535Z" fill="#EDADBF" stroke="black" stroke-width="0.5"/>
<path d="M130.747 9.35352C110.747 15.0276 92.7471 32.3535 84.7471 30.3535C97.7471 20.8535 113.747 12.3535 130.247 7.85352L130.747 9.35352Z" fill="#EDADBF" stroke="black" stroke-width="0.5"/>
<path d="M9.74774 48.3535H3.74774C1.24707 52.3535 1.24707 62.3535 1.74774 65.8535C0.24707 66.8535 0.247668 71.3535 1.24774 72.8535L5.24774 73.3535V74.8535L1.24774 76.8535V78.8535C5.24774 79.8535 13.7477 81.8535 21.7477 81.3535V79.8535H39.2477C38.5811 71.3535 40.2477 60.8535 49.2477 53.8535C46.7477 49.8535 39.7477 45.3535 36.7477 44.8535C26.7477 43.8535 11.7477 46.3535 9.74774 48.3535Z" fill="#EDADBF" stroke="black" stroke-width="0.5"/>
<path d="M92.749 35.8535C74.9157 36.6868 43.249 41.5535 32.749 44.5535L36.749 44.8535C41.749 46.3535 47.249 50.6868 49.249 53.8535C62.248 44.3535 87.748 51.3535 86.248 78.8535H96.248C89.248 67.8535 90.248 45.8535 92.749 35.8535Z" fill="#EDADBF" stroke="black" stroke-width="0.5"/>
<path d="M9.74707 48.3536H3.74707C36.2473 28.8535 58.2473 34.8535 84.2471 30.3535L93.2473 35.8535C76.2473 36.8535 47.2471 40.3535 33.2471 44.5535C25.2471 44.3535 11.2471 46.3535 9.74707 48.3536Z" fill="#EDADBF" stroke="black" stroke-width="0.5"/>
<path d="M36.7485 44.8536C29.2485 43.8535 12.2485 45.8535 9.74852 48.3536C8.94852 50.7535 12.0819 53.6868 13.7485 54.8535C23.2485 56.3535 36.7485 50.3535 36.7485 44.8536Z" fill="#EDADBF" stroke="black" stroke-width="0.5"/>
<path d="M3.74777 48.3535C10.7478 49.3535 4.74777 59.8535 1.74777 64.8535C1.2477 57.8535 1.74756 52.3535 3.74777 48.3535Z" fill="#EDADBF" stroke="black" stroke-width="0.5"/>
<path d="M21.7471 84.3535V79.8535H39.2471L39.7471 84.3535H21.7471Z" fill="#EDADBF" stroke="black" stroke-width="0.5"/>
<path d="M2.24902 65.8535C3.74902 68.3535 5.74902 71.5202 5.24902 73.3535M21.749 79.8535C11.249 80.3535 6.74902 76.3535 7.74902 72.8535C8.24902 72.3535 9.74902 70.8535 10.749 70.8535" stroke="black" stroke-width="0.5"/>
<path d="M31.749 74.8535C29.249 70.8535 23.749 65.8536 20.749 64.3536C18.999 63.8536 16.3739 63.9786 13.6238 64.3536C11.9989 65.6869 10.749 68.8535 11.249 71.8535C11.249 73.0202 12.5564 75.3535 15.249 75.3535C19.749 75.3535 26.749 75.8535 31.749 74.8535Z" fill="#EDADBF"/>
<path d="M5.74902 65.8536C7.99897 65.3536 10.8739 64.7286 13.6238 64.3536M13.6238 64.3536C16.3739 63.9786 18.999 63.8536 20.749 64.3536C23.749 65.8536 29.249 70.8535 31.749 74.8535C26.749 75.8535 19.749 75.3535 15.249 75.3535C12.5564 75.3535 11.249 73.0202 11.249 71.8535C10.749 68.8535 11.9989 65.6869 13.6238 64.3536Z" stroke="black" stroke-width="0.5"/>
<path d="M11.249 71.3536C19.249 69.8536 22.749 72.4821 25.749 73.9821M12.749 74.3536L30.249 73.8536" stroke="black" stroke-width="0.5"/>
<path d="M21.7471 82.8535H31.2471C33.2471 82.8535 34.7471 80.8535 34.2471 79.8535M37.7471 79.8535V84.3535" stroke="black" stroke-width="0.5"/>
<path d="M21.749 81.3538C17.249 81.3538 12.749 81.8538 1.24897 78.8538V76.8538L5.24897 74.8538V73.3538L1.24897 72.8538C0.748047 71.3535 -0.251757 68.3535 1.74824 65.8535C1.24848 57.8535 1.74848 51.3535 3.74897 48.3533C36.249 28.8537 58.249 34.8537 84.249 30.3537C162.249 -24.6464 244.249 12.3535 281.249 26.8537L294.749 28.8535L295.249 35.8535V38.8535C296.747 43.8535 298.082 48.3535 296.749 50.3535C299.249 51.3535 301.749 54.5202 301.749 56.3535L299.749 66.3535C300.201 77.2014 297.793 77.4257 288.461 77.7382C287.47 77.7713 285.401 77.8055 284.249 77.8535V79.3535L259.249 79.7846M21.749 81.3538V84.3538H39.7473L39.249 79.8538M21.749 81.3538V79.8538H39.249M39.249 79.8538C36.249 38.3538 89.749 41.3538 86.249 80.3538V82.8535H212.749C206.749 39.3535 261.249 39.3535 259.249 79.7846M258.747 79.7846H259.249" stroke="black"/>
</svg>
