<svg width="303" height="96" viewBox="0 0 303 96" fill="none" xmlns="http://www.w3.org/2000/svg">
<circle cx="62.6562" cy="74.5076" r="20.5" stroke="black"/>
<circle cx="235.656" cy="74.5076" r="20.5" stroke="black"/>
<path d="M132.654 13.0074L131.154 9.50742C171.154 1.50754 192.654 2.00757 231.654 13.5075L228.154 18.0075C208.154 10.0075 190.154 9.00748 174.154 8.50755C171.654 8.00755 167.654 8.00751 165.154 8.50742C155.154 8.50755 143.154 10.0075 132.654 13.0074Z" stroke="black" stroke-width="0.5"/>
<path d="M131.154 9.50761L130.654 8.00761C166.654 -2.99243 199.154 1.00744 234.654 10.0076L231.654 13.5076C191.654 1.00757 165.654 2.50757 131.154 9.50761Z" stroke="black" stroke-width="0.5"/>
<path d="M131.154 9.50756C182.654 -1.99247 211.154 8.00757 231.654 13.5076" stroke="black" stroke-width="0.5"/>
<path d="M226.656 31.0076L223.656 16.5076C219.156 15.0076 207.656 9.50757 174.156 8.50757L170.656 30.5076C181.656 30.0076 199.156 28.5076 226.156 28.5076" stroke="black" stroke-width="0.5"/>
<path d="M165.156 8.50757C132.156 9.50757 112.156 18.5076 93.1562 36.0076L95.6562 34.0076L159.656 31.0076L165.156 8.50757Z" stroke="black" stroke-width="0.5"/>
<path d="M239.654 23.0076C235.988 20.3409 230.154 18.0076 223.654 16.5076L226.154 28.5076H232.654C235.654 27.0076 238.654 24.7763 239.654 23.0076Z" stroke="black" stroke-width="0.5"/>
<path d="M96.6562 79.0076H163.656L198.156 77.5076M96.6562 79.0076C96.6562 80.5076 97.1562 81.5076 98.1562 83.0076M96.6562 79.0076H86.6562V83.0076H98.1562M198.156 77.5076L199.156 83.0076M198.156 77.5076H212.656L213.156 83.0076H199.156M199.156 83.0076H98.1562" stroke="black" stroke-width="0.5"/>
<path d="M96.6554 79.0076C92.1562 74.5076 89.1563 52.5076 93.1554 36.0076L165.156 32.0076C161.156 37.0076 160.156 71.0076 163.656 79.0076H96.6554Z" stroke="black" stroke-width="0.5"/>
<path d="M228.656 31.0076L165.156 32.0076C161.156 37.0076 160.156 71.0076 163.656 79.0076L198.156 77.5076C202.656 76.0076 209.156 70.5076 228.656 31.0076Z" stroke="black" stroke-width="0.5"/>
<path d="M170.656 30.5076C166.156 31.0076 162.656 31.0076 159.656 31.0076L165.156 8.50764C168.156 8.00757 171.156 8.00757 174.156 8.50764L170.656 30.5076Z" stroke="black" stroke-width="0.5"/>
<path d="M99.1562 32.5077C103.656 38.0077 110.656 34.5077 114.656 33.0077C115.656 17.5076 102.656 25.5076 99.1562 32.5077Z" stroke="black" stroke-width="0.5"/>
<path d="M234.654 10.0076L231.654 13.5076C248.654 19.0076 259.154 22.0076 271.654 28.5076H273.154L281.154 27.0076C266.154 20.5076 258.654 18.0076 234.654 10.0076Z" fill="#E0426F" stroke="black" stroke-width="0.5"/>
<path d="M271.654 28.5076C261.154 23.0076 242.154 16.5076 231.654 13.5076L229.654 16.0076L244.654 23.5076C243.154 26.0076 239.154 28.0076 233.154 30.7076C245.154 30.0076 262.154 29.0076 271.654 28.5076Z" fill="#E0426F" stroke="black" stroke-width="0.5"/>
<path d="M277.156 34.8076L283.155 32.5076L272.655 28.5076L228.655 31.0076C221.155 46.0076 206.155 76.5076 198.155 77.5076H212.655C211.155 66.5076 220.655 43.0076 245.656 52.0076C256.156 46.5076 266.156 41.0076 277.156 34.8076Z" fill="#E0426F" stroke="black" stroke-width="0.5"/>
<path d="M278.154 34.5076C266.154 41.0076 256.154 46.5076 245.654 52.0076C250.154 55.0076 260.654 61.0076 259.654 80.0076L284.654 79.5076V78.0076C293.154 77.0076 301.654 80.5076 300.154 66.5076L302.154 56.5076C302.154 55.0076 299.654 51.0076 297.154 50.5076C298.654 48.0076 295.654 39.0076 295.654 39.0076V37.5076L291.654 34.5076L286.654 33.0076L283.154 32.5076L278.154 34.5076Z" fill="#E0426F" stroke="black" stroke-width="0.5"/>
<path d="M281.154 27.0076L272.654 28.5076L283.154 32.5076C292.654 33.5076 291.653 35.0076 295.648 37.4277L295.154 29.0076L281.154 27.0076Z" fill="#E0426F"/>
<path d="M295.654 37.5076L295.648 37.4277M295.648 37.4277L295.154 29.0076L281.154 27.0076L272.654 28.5076L283.154 32.5076C292.654 33.5076 291.653 35.0076 295.648 37.4277Z" stroke="black" stroke-width="0.5"/>
<path d="M294.156 37.0078C293.656 34.5077 282.656 34.3076 277.156 34.8076" stroke="black" stroke-width="0.5"/>
<path d="M300.156 67.0076L260.656 69.0076C260.156 64.0076 257.99 59.8409 256.156 58.0076L302.156 55.5076M300.656 53.0076C289.656 51.5076 278.656 46.7076 266.656 40.7076M228.656 31.0076L272.656 28.5076L281.156 27.0076" stroke="black" stroke-width="0.5"/>
<path d="M290.656 41.0076C290.656 39.0076 289.656 35.0076 286.156 33.0076C288.377 33.0076 291.754 34.048 294.265 36.4176C294.729 37.9476 293.656 41.5076 290.614 43.0076C290.601 42.4173 290.656 41.7319 290.656 41.0076Z" fill="#E0426F"/>
<path d="M272.656 43.5076C279.652 43.8574 285.669 43.9624 291.049 44.5076M297.656 45.5076C295.553 45.0569 293.36 44.7417 291.049 44.5076M295.656 38.0076C295.238 37.4224 294.769 36.8932 294.265 36.4176M291.049 44.5076C290.723 44.1628 290.629 43.6398 290.614 43.0076M290.614 43.0076C290.601 42.4173 290.656 41.7319 290.656 41.0076C290.656 39.0076 289.656 35.0076 286.156 33.0076C288.377 33.0076 291.754 34.048 294.265 36.4176M290.614 43.0076C293.656 41.5076 294.729 37.9476 294.265 36.4176" stroke="black" stroke-width="0.5"/>
<path d="M290.656 41.0076C286.156 41.0076 284.156 37.0076 283.156 34.5076" stroke="black" stroke-width="0.5"/>
<path d="M132.654 13.1075C119.154 17.1075 107.154 23.0076 93.1543 36.0076C100.154 24.0076 115.654 14.5076 131.154 9.50757L132.654 13.1075Z" fill="#EDADBF" stroke="black" stroke-width="0.5"/>
<path d="M131.154 9.50757C111.154 15.1816 93.1543 32.5076 85.1543 30.5076C98.1543 21.0076 114.154 12.5076 130.654 8.00757L131.154 9.50757Z" fill="#EDADBF" stroke="black" stroke-width="0.5"/>
<path d="M10.155 48.5076H4.15496C1.6543 52.5076 1.6543 62.5076 2.15496 66.0076C0.654297 67.0076 0.654894 71.5076 1.65496 73.0076L5.65496 73.5076V75.0076L1.65496 77.0076V79.0076C5.65496 80.0076 14.155 82.0076 22.155 81.5076V80.0076H39.655C38.9883 71.5076 40.655 61.0076 49.655 54.0076C47.155 50.0076 40.155 45.5076 37.155 45.0076C27.155 44.0076 12.155 46.5076 10.155 48.5076Z" fill="#EDADBF" stroke="black" stroke-width="0.5"/>
<path d="M93.1562 36.0076C75.3229 36.8409 43.6562 41.7076 33.1562 44.7076L37.1562 45.0076C42.1562 46.5076 47.6562 50.8409 49.6562 54.0076C62.6553 44.5076 88.1553 51.5076 86.6553 79.0076H96.6553C89.6553 68.0076 90.6553 46.0076 93.1562 36.0076Z" fill="#EDADBF" stroke="black" stroke-width="0.5"/>
<path d="M10.1543 48.5076H4.1543C36.6545 29.0075 58.6545 35.0076 84.6543 30.5076L93.6545 36.0076C76.6545 37.0076 47.6543 40.5076 33.6543 44.7076C25.6543 44.5076 11.6543 46.5076 10.1543 48.5076Z" fill="#EDADBF" stroke="black" stroke-width="0.5"/>
<path d="M37.1558 45.0076C29.6558 44.0076 12.6558 46.0076 10.1558 48.5076C9.35575 50.9076 12.4891 53.8409 14.1558 55.0076C23.6558 56.5076 37.1558 50.5076 37.1558 45.0076Z" fill="#EDADBF" stroke="black" stroke-width="0.5"/>
<path d="M4.15499 48.5076C11.155 49.5076 5.15499 60.0076 2.15499 65.0076C1.65492 58.0076 2.15479 52.5076 4.15499 48.5076Z" fill="#EDADBF" stroke="black" stroke-width="0.5"/>
<path d="M22.1543 84.5076V80.0076H39.6543L40.1543 84.5076H22.1543Z" fill="#EDADBF" stroke="black" stroke-width="0.5"/>
<path d="M2.65625 66.0076C4.15625 68.5076 6.15625 71.6742 5.65625 73.5076M22.1562 80.0076C11.6562 80.5076 7.15625 76.5076 8.15625 73.0076C8.65625 72.5076 10.1562 71.0076 11.1562 71.0076" stroke="black" stroke-width="0.5"/>
<path d="M32.1562 75.0076C29.6562 71.0076 24.1562 66.0076 21.1562 64.5076C19.4062 64.0076 16.7811 64.1326 14.031 64.5076C12.4061 65.841 11.1562 69.0076 11.6562 72.0076C11.6562 73.1742 12.9637 75.5076 15.6562 75.5076C20.1562 75.5076 27.1562 76.0076 32.1562 75.0076Z" fill="#EDADBF"/>
<path d="M6.15625 66.0076C8.40619 65.5076 11.2811 64.8826 14.031 64.5076M14.031 64.5076C16.7811 64.1326 19.4062 64.0076 21.1562 64.5076C24.1562 66.0076 29.6562 71.0076 32.1562 75.0076C27.1562 76.0076 20.1562 75.5076 15.6562 75.5076C12.9637 75.5076 11.6562 73.1742 11.6562 72.0076C11.1562 69.0076 12.4061 65.841 14.031 64.5076Z" stroke="black" stroke-width="0.5"/>
<path d="M11.6562 71.5076C19.6562 70.0077 23.1562 72.6362 26.1562 74.1362M13.1562 74.5077L30.6562 74.0077" stroke="black" stroke-width="0.5"/>
<path d="M22.1543 83.0076H31.6543C33.6543 83.0076 35.1543 81.0076 34.6543 80.0076M38.1543 80.0076V84.5076" stroke="black" stroke-width="0.5"/>
<path d="M22.1562 81.5078C17.6562 81.5078 13.1562 82.0078 1.6562 79.0078V77.0078L5.6562 75.0078V73.5078L1.6562 73.0078C1.15527 71.5076 0.155469 68.5076 2.15546 66.0076C1.65571 58.0076 2.15571 51.5076 4.1562 48.5073C36.6562 29.0077 58.6562 35.0078 84.6562 30.5078C162.656 -24.4924 244.656 12.5076 281.656 27.0077L295.156 29.0076L295.656 36.0076V39.0076C297.155 44.0076 298.49 48.5076 297.156 50.5076C299.656 51.5076 302.156 54.6742 302.156 56.5076L300.156 66.5076C300.608 77.3555 298.2 77.5798 288.868 77.8922C287.877 77.9254 285.808 77.9596 284.656 78.0076V79.5076L259.656 79.9386M22.1562 81.5078V84.5078H40.1545L39.6562 80.0078M22.1562 81.5078V80.0078H39.6562M39.6562 80.0078C36.6562 38.5078 90.1562 41.5078 86.6562 80.5078V83.0076H213.156C207.156 39.5076 261.656 39.5076 259.656 79.9386M259.155 79.9386H259.656" stroke="black"/>
</svg>
