<svg width="303" height="96" viewBox="0 0 303 96" fill="none" xmlns="http://www.w3.org/2000/svg">
<circle cx="62.2725" cy="74.2297" r="20.5" fill="#E56E90" stroke="black"/>
<circle cx="235.272" cy="74.2297" r="20.5" fill="#E56E90" stroke="black"/>
<path d="M132.271 12.7296L130.771 9.22959C170.771 1.2297 192.271 1.72974 231.271 13.2297L227.771 17.7297C207.771 9.72965 189.771 8.72964 173.771 8.22971C171.271 7.72971 167.271 7.72968 164.771 8.22959C154.771 8.22971 142.771 9.72971 132.271 12.7296Z" fill="#E0426F" stroke="black" stroke-width="0.5"/>
<path d="M130.771 9.22978L130.271 7.72978C166.271 -3.27026 198.771 0.72961 234.271 9.72978L231.271 13.2298C191.271 0.729736 165.271 2.22974 130.771 9.22978Z" fill="#E0426F" stroke="black" stroke-width="0.5"/>
<path d="M130.771 9.2296C182.271 -2.27042 210.771 7.72961 231.271 13.2296" stroke="black" stroke-width="0.5"/>
<path d="M170.272 30.2297L173.772 8.22974C207.272 9.22974 218.772 14.7297 223.272 16.2297L225.755 28.2297C198.765 28.2304 181.27 29.7298 170.272 30.2297Z" fill="#E0426F"/>
<path d="M226.272 30.7297L223.272 16.2297C218.772 14.7297 207.272 9.22974 173.772 8.22974L170.272 30.2297C181.272 29.7297 198.772 28.2297 225.772 28.2297" stroke="black" stroke-width="0.5"/>
<path d="M164.772 8.22974C131.772 9.22974 111.772 18.2297 92.7725 35.7297L95.2725 33.7297L159.272 30.7297L164.772 8.22974Z" fill="#E0426F" stroke="black" stroke-width="0.5"/>
<path d="M239.271 22.7297C235.604 20.0631 229.771 17.7297 223.271 16.2297L225.771 28.2297H232.271C235.271 26.7297 238.271 24.4985 239.271 22.7297Z" fill="#E0426F" stroke="black" stroke-width="0.5"/>
<path d="M96.2725 78.7297H163.272L197.772 77.2297H212.272L212.772 82.7297H198.772H97.7725H86.2725V78.7297H96.2725Z" fill="#E0426F"/>
<path d="M96.2725 78.7297H163.272L197.772 77.2297M96.2725 78.7297C96.2725 80.2297 96.7725 81.2297 97.7725 82.7297M96.2725 78.7297H86.2725V82.7297H97.7725M197.772 77.2297L198.772 82.7297M197.772 77.2297H212.272L212.772 82.7297H198.772M198.772 82.7297H97.7725" stroke="black" stroke-width="0.5"/>
<path d="M96.2716 78.7297C91.7725 74.2297 88.7725 52.2297 92.7716 35.7297L164.772 31.7297C160.772 36.7297 159.772 70.7297 163.272 78.7297H96.2716Z" fill="#E0426F" stroke="black" stroke-width="0.5"/>
<path d="M228.272 30.7297L164.772 31.7297C160.773 36.7297 159.773 70.7297 163.272 78.7297L197.772 77.2297C202.272 75.7297 208.772 70.2297 228.272 30.7297Z" fill="#E0426F" stroke="black" stroke-width="0.5"/>
<path d="M170.272 30.2298C165.772 30.7298 162.272 30.7298 159.272 30.7298L164.772 8.22981C167.772 7.72974 170.772 7.72974 173.772 8.22981L170.272 30.2298Z" fill="#E0426F" stroke="black" stroke-width="0.5"/>
<path d="M98.7725 32.2297C103.272 37.7297 110.272 34.2297 114.272 32.7297C115.272 17.2296 102.272 25.2296 98.7725 32.2297Z" fill="#E0426F" stroke="black" stroke-width="0.5"/>
<path d="M234.271 9.72974L231.271 13.2297C248.271 18.7297 258.771 21.7297 271.271 28.2297H272.771L280.771 26.7297C265.771 20.2297 258.271 17.7297 234.271 9.72974Z" fill="#EDADBF" stroke="black" stroke-width="0.5"/>
<path d="M271.271 28.2297C260.771 22.7297 241.771 16.2297 231.271 13.2297L229.271 15.7297L244.271 23.2297C242.771 25.7297 238.771 27.7297 232.771 30.4297C244.771 29.7297 261.771 28.7297 271.271 28.2297Z" fill="#EDADBF" stroke="black" stroke-width="0.5"/>
<path d="M276.772 34.5297L282.771 32.2297L272.271 28.2297L228.271 30.7297C220.771 45.7297 205.771 76.2297 197.771 77.2297H212.271C210.771 66.2297 220.271 42.7297 245.272 51.7297C255.772 46.2297 265.772 40.7297 276.772 34.5297Z" fill="#EDADBF" stroke="black" stroke-width="0.5"/>
<path d="M277.771 34.2298C265.771 40.7298 255.771 46.2298 245.271 51.7298C249.771 54.7297 260.271 60.7297 259.271 79.7297L284.271 79.2297V77.7297C292.771 76.7297 301.271 80.2297 299.771 66.2297L301.771 56.2297C301.771 54.7297 299.271 50.7297 296.771 50.2297C298.271 47.7297 295.271 38.7297 295.271 38.7297V37.2297L291.271 34.2297L286.271 32.7297L282.771 32.2297L277.771 34.2298Z" fill="#EDADBF" stroke="black" stroke-width="0.5"/>
<path d="M280.771 26.7297L272.271 28.2297L282.771 32.2297C292.271 33.2297 291.269 34.7297 295.265 37.1499L294.771 28.7297L280.771 26.7297Z" fill="#EDADBF"/>
<path d="M295.271 37.2297L295.265 37.1499M295.265 37.1499L294.771 28.7297L280.771 26.7297L272.271 28.2297L282.771 32.2297C292.271 33.2297 291.269 34.7297 295.265 37.1499Z" stroke="black" stroke-width="0.5"/>
<path d="M293.772 36.7299C293.272 34.2298 282.272 34.0297 276.772 34.5297" stroke="black" stroke-width="0.5"/>
<path d="M299.772 66.7297L260.272 68.7297C259.772 63.7297 257.606 59.5631 255.772 57.7297L301.772 55.2297M300.272 52.7297C289.272 51.2297 278.272 46.4297 266.272 40.4297M228.272 30.7297L272.272 28.2297L280.772 26.7297" stroke="black" stroke-width="0.5"/>
<path d="M290.272 40.7297C290.272 38.7297 289.272 34.7297 285.772 32.7297C287.993 32.7297 291.37 33.7701 293.881 36.1397C294.345 37.6697 293.272 41.2297 290.231 42.7297C290.217 42.1395 290.272 41.454 290.272 40.7297Z" fill="#EDADBF"/>
<path d="M272.272 43.2297C279.268 43.5795 285.285 43.6846 290.666 44.2297M297.272 45.2297C295.169 44.7791 292.976 44.4638 290.666 44.2297M295.272 37.7297C294.855 37.1446 294.385 36.6154 293.881 36.1397M290.666 44.2297C290.339 43.885 290.245 43.3619 290.231 42.7297M290.231 42.7297C290.217 42.1395 290.272 41.454 290.272 40.7297C290.272 38.7297 289.272 34.7297 285.772 32.7297C287.993 32.7297 291.37 33.7701 293.881 36.1397M290.231 42.7297C293.272 41.2297 294.345 37.6697 293.881 36.1397" stroke="black" stroke-width="0.5"/>
<path d="M290.272 40.7297C285.772 40.7297 283.772 36.7297 282.772 34.2297" stroke="black" stroke-width="0.5"/>
<path d="M132.271 12.8297C118.771 16.8297 106.771 22.7297 92.7705 35.7297C99.7705 23.7297 115.271 14.2297 130.771 9.22974L132.271 12.8297Z" fill="#E0426F" stroke="black" stroke-width="0.5"/>
<path d="M130.771 9.22974C110.771 14.9038 92.7705 32.2297 84.7705 30.2297C97.7705 20.7297 113.771 12.2297 130.271 7.72974L130.771 9.22974Z" fill="#E0426F" stroke="black" stroke-width="0.5"/>
<path d="M9.77118 48.2296H3.77118C1.27051 52.2296 1.27051 62.2296 1.77118 65.7296C0.270508 66.7296 0.271105 71.2296 1.27118 72.7296L5.27118 73.2296V74.7296L1.27118 76.7296V78.7296C5.27118 79.7296 13.7712 81.7296 21.7712 81.2296V79.7296H39.2712C38.6045 71.2296 40.2712 60.7296 49.2712 53.7296C46.7712 49.7296 39.7712 45.2296 36.7712 44.7296C26.7712 43.7296 11.7712 46.2296 9.77118 48.2296Z" fill="#E0426F" stroke="black" stroke-width="0.5"/>
<path d="M92.7725 35.7297C74.9391 36.5631 43.2725 41.4297 32.7725 44.4297L36.7725 44.7297C41.7725 46.2297 47.2725 50.5631 49.2725 53.7297C62.2715 44.2297 87.7715 51.2297 86.2715 78.7297H96.2715C89.2715 67.7297 90.2715 45.7297 92.7725 35.7297Z" fill="#E0426F" stroke="black" stroke-width="0.5"/>
<path d="M9.77051 48.2298H3.77051C36.2707 28.7297 58.2708 34.7297 84.2705 30.2297L93.2708 35.7297C76.2708 36.7297 47.2705 40.2297 33.2705 44.4297C25.2705 44.2297 11.2705 46.2297 9.77051 48.2298Z" fill="#E0426F" stroke="black" stroke-width="0.5"/>
<path d="M36.772 44.7298C29.272 43.7297 12.272 45.7297 9.77196 48.2298C8.97196 50.6298 12.1053 53.5631 13.772 54.7297C23.272 56.2297 36.772 50.2297 36.772 44.7298Z" fill="#E0426F" stroke="black" stroke-width="0.5"/>
<path d="M3.7712 48.2297C10.7712 49.2297 4.7712 59.7297 1.7712 64.7297C1.27113 57.7297 1.771 52.2297 3.7712 48.2297Z" fill="#E0426F" stroke="black" stroke-width="0.5"/>
<path d="M21.7705 84.2297V79.7297H39.2705L39.7705 84.2297H21.7705Z" fill="#E0426F" stroke="black" stroke-width="0.5"/>
<path d="M2.27246 65.7295C3.77246 68.2295 5.77246 71.3962 5.27246 73.2295M21.7725 79.7295C11.2725 80.2295 6.77246 76.2295 7.77246 72.7295C8.27246 72.2295 9.77246 70.7295 10.7725 70.7295" stroke="black" stroke-width="0.5"/>
<path d="M31.7725 74.7296C29.2725 70.7296 23.7725 65.7297 20.7725 64.2297C19.0224 63.7297 16.3973 63.8547 13.6472 64.2297C12.0223 65.563 10.7725 68.7296 11.2725 71.7296C11.2725 72.8963 12.5799 75.2296 15.2725 75.2296C19.7725 75.2296 26.7725 75.7296 31.7725 74.7296Z" fill="#E0426F"/>
<path d="M5.77246 65.7297C8.0224 65.2297 10.8973 64.6047 13.6472 64.2297M13.6472 64.2297C16.3973 63.8547 19.0224 63.7297 20.7725 64.2297C23.7725 65.7297 29.2725 70.7296 31.7725 74.7296C26.7725 75.7296 19.7725 75.2296 15.2725 75.2296C12.5799 75.2296 11.2725 72.8963 11.2725 71.7296C10.7725 68.7296 12.0223 65.563 13.6472 64.2297Z" stroke="black" stroke-width="0.5"/>
<path d="M11.2725 71.2297C19.2725 69.7297 22.7725 72.3582 25.7725 73.8582M12.7725 74.2297L30.2725 73.7297" stroke="black" stroke-width="0.5"/>
<path d="M21.7705 82.7295H31.2705C33.2705 82.7295 34.7705 80.7295 34.2705 79.7295M37.7705 79.7295V84.2295" stroke="black" stroke-width="0.5"/>
<path d="M21.7724 81.23C17.2724 81.23 12.7724 81.73 1.27241 78.73V76.73L5.27241 74.73V73.23L1.27241 72.73C0.771484 71.2297 -0.22832 68.2297 1.77168 65.7297C1.27192 57.7297 1.77192 51.2297 3.77241 48.2295C36.2724 28.7299 58.2724 34.7299 84.2724 30.2299C162.272 -24.7702 244.272 12.2297 281.272 26.7299L294.772 28.7297L295.272 35.7297V38.7297C296.771 43.7297 298.106 48.2297 296.772 50.2297C299.272 51.2297 301.772 54.3964 301.772 56.2297L299.772 66.2297C300.224 77.0776 297.816 77.3019 288.485 77.6144C287.494 77.6476 285.425 77.6817 284.272 77.7297V79.2297L259.272 79.6608M21.7724 81.23V84.23H39.7708L39.2724 79.73M21.7724 81.23V79.73H39.2724M39.2724 79.73C36.2724 38.23 89.7724 41.23 86.2724 80.23V82.7297H212.772C206.772 39.2297 261.272 39.2297 259.272 79.6608M258.771 79.6608H259.272" stroke="black"/>
</svg>
