<svg width="303" height="96" viewBox="0 0 303 96" fill="none" xmlns="http://www.w3.org/2000/svg">
<circle cx="62.6875" cy="74.0151" r="20.5" stroke="black"/>
<circle cx="235.688" cy="74.0151" r="20.5" stroke="black"/>
<path d="M132.686 12.515L131.186 9.01499C171.186 1.0151 192.686 1.51514 231.686 13.0151L228.186 17.5151C208.186 9.51505 190.186 8.51505 174.186 8.01511C171.686 7.51511 167.686 7.51508 165.186 8.01499C155.186 8.01511 143.186 9.51511 132.686 12.515Z" fill="#EFC7D3" stroke="black" stroke-width="0.5"/>
<path d="M131.186 9.01518L130.686 7.51518C166.686 -3.48486 199.186 0.515011 234.686 9.51518L231.686 13.0152C191.686 0.515137 165.686 2.01514 131.186 9.01518Z" fill="#EFC7D3" stroke="black" stroke-width="0.5"/>
<path d="M131.186 9.01512C182.686 -2.4849 211.186 7.51514 231.686 13.0151" stroke="black" stroke-width="0.5"/>
<path d="M170.688 30.0151L174.188 8.01514C207.688 9.01514 219.188 14.5151 223.688 16.0151L226.17 28.0151C199.18 28.0158 181.685 29.5152 170.688 30.0151Z" fill="#EFC7D3"/>
<path d="M226.688 30.5151L223.688 16.0151C219.188 14.5151 207.688 9.01514 174.188 8.01514L170.688 30.0151C181.688 29.5151 199.188 28.0151 226.188 28.0151" stroke="black" stroke-width="0.5"/>
<path d="M165.188 8.01514C132.188 9.01514 112.188 18.0151 93.1875 35.5151L95.6875 33.5151L159.688 30.5151L165.188 8.01514Z" fill="#EFC7D3" stroke="black" stroke-width="0.5"/>
<path d="M239.686 22.5151C236.019 19.8485 230.186 17.5151 223.686 16.0151L226.186 28.0151H232.686C235.686 26.5151 238.686 24.2839 239.686 22.5151Z" fill="#EFC7D3" stroke="black" stroke-width="0.5"/>
<path d="M96.6875 78.5151H163.688L198.188 77.0151H212.688L213.188 82.5151H199.188H98.1875H86.6875V78.5151H96.6875Z" fill="#EFC7D3"/>
<path d="M96.6875 78.5151H163.688L198.188 77.0151M96.6875 78.5151C96.6875 80.0151 97.1875 81.0151 98.1875 82.5151M96.6875 78.5151H86.6875V82.5151H98.1875M198.188 77.0151L199.188 82.5151M198.188 77.0151H212.688L213.188 82.5151H199.188M199.188 82.5151H98.1875" stroke="black" stroke-width="0.5"/>
<path d="M96.6866 78.5151C92.1875 74.0151 89.1875 52.0151 93.1866 35.5151L165.188 31.5151C161.188 36.5151 160.188 70.5151 163.687 78.5151H96.6866Z" fill="#EFC7D3" stroke="black" stroke-width="0.5"/>
<path d="M228.687 30.5151L165.187 31.5151C161.188 36.5151 160.188 70.5151 163.687 78.5151L198.187 77.0151C202.687 75.5151 209.187 70.0151 228.687 30.5151Z" fill="#EFC7D3" stroke="black" stroke-width="0.5"/>
<path d="M170.688 30.0152C166.188 30.5152 162.688 30.5152 159.688 30.5152L165.188 8.01521C168.188 7.51514 171.188 7.51514 174.188 8.01521L170.688 30.0152Z" fill="#EFC7D3" stroke="black" stroke-width="0.5"/>
<path d="M99.1875 32.0153C103.688 37.5153 110.688 34.0153 114.688 32.5153C115.688 17.0152 102.688 25.0151 99.1875 32.0153Z" fill="#EFC7D3" stroke="black" stroke-width="0.5"/>
<path d="M234.686 9.51514L231.686 13.0151C248.686 18.5151 259.186 21.5151 271.686 28.0151H273.186L281.186 26.5151C266.186 20.0151 258.686 17.5151 234.686 9.51514Z" fill="#EFC7D3" stroke="black" stroke-width="0.5"/>
<path d="M271.686 28.0151C261.186 22.5151 242.186 16.0151 231.686 13.0151L229.686 15.5151L244.686 23.0151C243.186 25.5151 239.186 27.5151 233.186 30.2151C245.186 29.5151 262.186 28.5151 271.686 28.0151Z" fill="#EFC7D3" stroke="black" stroke-width="0.5"/>
<path d="M277.188 34.3151L283.186 32.0151L272.687 28.0151L228.687 30.5151C221.187 45.5151 206.187 76.0151 198.187 77.0151H212.687C211.187 66.0151 220.687 42.5151 245.688 51.5151C256.188 46.0151 266.188 40.5151 277.188 34.3151Z" fill="#EFC7D3" stroke="black" stroke-width="0.5"/>
<path d="M278.186 34.0152C266.186 40.5152 256.186 46.0152 245.686 51.5152C250.186 54.5151 260.686 60.5151 259.686 79.5151L284.686 79.0151V77.5151C293.186 76.5151 301.686 80.0151 300.186 66.0151L302.186 56.0151C302.186 54.5151 299.686 50.5151 297.186 50.0151C298.686 47.5151 295.686 38.5151 295.686 38.5151V37.0151L291.686 34.0151L286.686 32.5151L283.186 32.0151L278.186 34.0152Z" fill="#EFC7D3" stroke="black" stroke-width="0.5"/>
<path d="M281.186 26.5151L272.686 28.0151L283.186 32.0151C292.686 33.0151 291.684 34.5151 295.68 36.9353L295.186 28.5151L281.186 26.5151Z" fill="#EFC7D3"/>
<path d="M295.686 37.0151L295.68 36.9353M295.68 36.9353L295.186 28.5151L281.186 26.5151L272.686 28.0151L283.186 32.0151C292.686 33.0151 291.684 34.5151 295.68 36.9353Z" stroke="black" stroke-width="0.5"/>
<path d="M294.188 36.5153C293.688 34.0152 282.688 33.8151 277.188 34.3151" stroke="black" stroke-width="0.5"/>
<path d="M300.188 66.5151L260.688 68.5151C260.188 63.5151 258.021 59.3485 256.188 57.5151L302.188 55.0151M300.688 52.5151C289.688 51.0151 278.688 46.2151 266.688 40.2151M228.688 30.5151L272.688 28.0151L281.188 26.5151" stroke="black" stroke-width="0.5"/>
<path d="M290.688 40.5151C290.688 38.5151 289.688 34.5151 286.188 32.5151C288.408 32.5151 291.785 33.5555 294.296 35.9251C294.76 37.4551 293.688 41.0151 290.646 42.5151C290.632 41.9249 290.688 41.2394 290.688 40.5151Z" fill="#EFC7D3"/>
<path d="M272.688 43.0151C279.683 43.3649 285.7 43.47 291.081 44.0151M297.688 45.0151C295.585 44.5645 293.391 44.2492 291.081 44.0151M295.688 37.5151C295.27 36.93 294.8 36.4008 294.296 35.9251M291.081 44.0151C290.754 43.6704 290.66 43.1473 290.646 42.5151M290.646 42.5151C290.632 41.9249 290.688 41.2394 290.688 40.5151C290.688 38.5151 289.688 34.5151 286.188 32.5151C288.408 32.5151 291.785 33.5555 294.296 35.9251M290.646 42.5151C293.688 41.0151 294.76 37.4551 294.296 35.9251" stroke="black" stroke-width="0.5"/>
<path d="M290.688 40.5151C286.188 40.5151 284.188 36.5151 283.188 34.0151" stroke="black" stroke-width="0.5"/>
<path d="M132.686 12.6151C119.186 16.6151 107.186 22.5151 93.186 35.5151C100.186 23.5151 115.686 14.0151 131.186 9.01514L132.686 12.6151Z" stroke="black" stroke-width="0.5"/>
<path d="M131.186 9.01514C111.186 14.6892 93.186 32.0151 85.186 30.0151C98.186 20.5151 114.186 12.0151 130.686 7.51514L131.186 9.01514Z" stroke="black" stroke-width="0.5"/>
<path d="M10.1867 48.0151H4.1867C1.68604 52.0151 1.68604 62.0151 2.1867 65.5151C0.686035 66.5151 0.686633 71.0151 1.6867 72.5151L5.6867 73.0151V74.5151L1.6867 76.5151V78.5151C5.6867 79.5151 14.1867 81.5151 22.1867 81.0151V79.5151H39.6867C39.02 71.0151 40.6867 60.5151 49.6867 53.5151C47.1867 49.5151 40.1867 45.0151 37.1867 44.5151C27.1867 43.5151 12.1867 46.0151 10.1867 48.0151Z" stroke="black" stroke-width="0.5"/>
<path d="M93.1875 35.5151C75.3542 36.3485 43.6875 41.2151 33.1875 44.2151L37.1875 44.5151C42.1875 46.0151 47.6875 50.3485 49.6875 53.5151C62.6865 44.0151 88.1865 51.0151 86.6865 78.5151H96.6865C89.6865 67.5151 90.6865 45.5151 93.1875 35.5151Z" stroke="black" stroke-width="0.5"/>
<path d="M10.1855 48.0152H4.18555C36.6857 28.5151 58.6858 34.5151 84.6855 30.0151L93.6858 35.5151C76.6858 36.5151 47.6855 40.0151 33.6855 44.2151C25.6855 44.0151 11.6855 46.0151 10.1855 48.0152Z" stroke="black" stroke-width="0.5"/>
<path d="M37.1875 44.5152C29.6875 43.5151 12.6875 45.5151 10.1875 48.0152C9.38749 50.4152 12.5208 53.3485 14.1875 54.5151C23.6875 56.0151 37.1875 50.0151 37.1875 44.5152Z" stroke="black" stroke-width="0.5"/>
<path d="M4.18673 48.0151C11.1867 49.0151 5.18673 59.5151 2.18673 64.5151C1.68666 57.5151 2.18652 52.0151 4.18673 48.0151Z" stroke="black" stroke-width="0.5"/>
<path d="M22.186 84.0151V79.5151H39.686L40.186 84.0151H22.186Z" stroke="black" stroke-width="0.5"/>
<path d="M2.6875 65.5151C4.1875 68.0151 6.1875 71.1818 5.6875 73.0151M22.1875 79.5151C11.6875 80.0151 7.1875 76.0151 8.1875 72.5151C8.6875 72.0151 10.1875 70.5151 11.1875 70.5151" stroke="black" stroke-width="0.5"/>
<path d="M6.1875 65.5152C8.43744 65.0152 11.3124 64.3902 14.0623 64.0152M14.0623 64.0152C16.8124 63.6402 19.4375 63.5152 21.1875 64.0152C24.1875 65.5152 29.6875 70.5151 32.1875 74.5151C27.1875 75.5151 20.1875 75.0151 15.6875 75.0151C12.9949 75.0151 11.6875 72.6818 11.6875 71.5151C11.1875 68.5151 12.4374 65.3485 14.0623 64.0152Z" stroke="black" stroke-width="0.5"/>
<path d="M11.6875 71.0152C19.6875 69.5153 23.1875 72.1437 26.1875 73.6437M13.1875 74.0153L30.6875 73.5153" stroke="black" stroke-width="0.5"/>
<path d="M22.1855 82.5151H31.6855C33.6855 82.5151 35.1855 80.5151 34.6855 79.5151M38.1855 79.5151V84.0151" stroke="black" stroke-width="0.5"/>
<path d="M22.1874 81.0154C17.6874 81.0154 13.1874 81.5154 1.68745 78.5154V76.5154L5.68745 74.5154V73.0154L1.68745 72.5154C1.18652 71.0151 0.186719 68.0151 2.18671 65.5151C1.68696 57.5151 2.18696 51.0151 4.18745 48.0149C36.6874 28.5153 58.6874 34.5153 84.6874 30.0153C162.687 -24.9848 244.687 12.0151 281.687 26.5153L295.187 28.5151L295.687 35.5151V38.5151C297.186 43.5151 298.521 48.0151 297.187 50.0151C299.687 51.0151 302.187 54.1818 302.187 56.0151L300.187 66.0151C300.639 76.863 298.231 77.0873 288.9 77.3998C287.909 77.433 285.84 77.4671 284.687 77.5151V79.0151L259.687 79.4462M22.1874 81.0154V84.0154H40.1858L39.6875 79.5154M22.1874 81.0154V79.5154H39.6875M39.6875 79.5154C36.6875 38.0154 90.1874 41.0154 86.6874 80.0154V82.5151H213.187C207.187 39.0151 261.687 39.0151 259.687 79.4462M259.186 79.4462H259.687" stroke="black"/>
</svg>
