<svg width="303" height="95" viewBox="0 0 303 95" fill="none" xmlns="http://www.w3.org/2000/svg">
<circle cx="62.876" cy="73.8459" r="20.5" fill="#EFC7D3" stroke="black"/>
<circle cx="235.876" cy="73.8459" r="20.5" fill="#EFC7D3" stroke="black"/>
<path d="M132.874 12.3458L131.374 8.8458C171.374 0.845915 192.874 1.34595 231.874 12.8459L228.374 17.3459C208.374 9.34586 190.374 8.34586 174.374 7.84592C171.874 7.34592 167.874 7.34589 165.374 7.8458C155.374 7.84592 143.374 9.34592 132.874 12.3458Z" stroke="black" stroke-width="0.5"/>
<path d="M131.374 8.84599L130.874 7.34599C166.874 -3.65405 199.374 0.345821 234.874 9.34599L231.874 12.846C191.874 0.345947 165.874 1.84595 131.374 8.84599Z" stroke="black" stroke-width="0.5"/>
<path d="M131.374 8.84593C182.874 -2.65409 211.374 7.34595 231.874 12.8459" stroke="black" stroke-width="0.5"/>
<path d="M226.876 30.3459L223.876 15.8459C219.376 14.3459 207.876 8.84595 174.376 7.84595L170.876 29.8459C181.876 29.3459 199.376 27.8459 226.376 27.8459" stroke="black" stroke-width="0.5"/>
<path d="M165.376 7.84595C132.376 8.84595 112.376 17.8459 93.376 35.3459L95.876 33.3459L159.876 30.3459L165.376 7.84595Z" stroke="black" stroke-width="0.5"/>
<path d="M239.874 22.3459C236.207 19.6793 230.374 17.3459 223.874 15.8459L226.374 27.8459H232.874C235.874 26.3459 238.874 24.1147 239.874 22.3459Z" stroke="black" stroke-width="0.5"/>
<path d="M96.876 78.3459H163.876L198.376 76.8459M96.876 78.3459C96.876 79.8459 97.376 80.8459 98.376 82.3459M96.876 78.3459H86.876V82.3459H98.376M198.376 76.8459L199.376 82.3459M198.376 76.8459H212.876L213.376 82.3459H199.376M199.376 82.3459H98.376" stroke="black" stroke-width="0.5"/>
<path d="M96.8751 78.3459C92.376 73.8459 89.376 51.8459 93.3751 35.3459L165.376 31.3459C161.376 36.3459 160.376 70.3459 163.876 78.3459H96.8751Z" stroke="black" stroke-width="0.5"/>
<path d="M228.876 30.3459L165.376 31.3459C161.376 36.3459 160.376 70.3459 163.876 78.3459L198.376 76.8459C202.876 75.3459 209.376 69.8459 228.876 30.3459Z" stroke="black" stroke-width="0.5"/>
<path d="M170.876 29.846C166.376 30.346 162.876 30.346 159.876 30.346L165.376 7.84602C168.376 7.34595 171.376 7.34595 174.376 7.84602L170.876 29.846Z" stroke="black" stroke-width="0.5"/>
<path d="M99.376 31.8461C103.876 37.3461 110.876 33.8461 114.876 32.3461C115.876 16.846 102.876 24.8459 99.376 31.8461Z" stroke="black" stroke-width="0.5"/>
<path d="M234.874 9.34595L231.874 12.8459C248.874 18.3459 259.374 21.3459 271.874 27.8459H273.374L281.374 26.3459C266.374 19.8459 258.874 17.3459 234.874 9.34595Z" fill="#EDADBF" stroke="black" stroke-width="0.5"/>
<path d="M271.874 27.8459C261.374 22.3459 242.374 15.8459 231.874 12.8459L229.874 15.3459L244.874 22.8459C243.374 25.3459 239.374 27.3459 233.374 30.0459C245.374 29.3459 262.374 28.3459 271.874 27.8459Z" fill="#EDADBF" stroke="black" stroke-width="0.5"/>
<path d="M277.376 34.1459L283.374 31.8459L272.875 27.8459L228.875 30.3459C221.375 45.3459 206.375 75.8459 198.375 76.8459H212.875C211.375 65.8459 220.875 42.3459 245.876 51.3459C256.376 45.8459 266.376 40.3459 277.376 34.1459Z" fill="#EDADBF" stroke="black" stroke-width="0.5"/>
<path d="M278.374 33.846C266.374 40.346 256.374 45.846 245.874 51.346C250.374 54.3459 260.874 60.3459 259.874 79.3459L284.874 78.8459V77.3459C293.374 76.3459 301.874 79.8459 300.374 65.8459L302.374 55.8459C302.374 54.3459 299.874 50.3459 297.374 49.8459C298.874 47.3459 295.874 38.3459 295.874 38.3459V36.8459L291.874 33.8459L286.874 32.3459L283.374 31.8459L278.374 33.846Z" fill="#EDADBF" stroke="black" stroke-width="0.5"/>
<path d="M281.374 26.3459L272.874 27.8459L283.374 31.8459C292.874 32.8459 291.873 34.3459 295.868 36.7661L295.374 28.3459L281.374 26.3459Z" fill="#EDADBF"/>
<path d="M295.874 36.8459L295.868 36.7661M295.868 36.7661L295.374 28.3459L281.374 26.3459L272.874 27.8459L283.374 31.8459C292.874 32.8459 291.873 34.3459 295.868 36.7661Z" stroke="black" stroke-width="0.5"/>
<path d="M294.376 36.3461C293.876 33.846 282.876 33.646 277.376 34.146" stroke="black" stroke-width="0.5"/>
<path d="M300.376 66.3459L260.876 68.3459C260.376 63.3459 258.209 59.1793 256.376 57.3459L302.376 54.8459M300.876 52.3459C289.876 50.8459 278.876 46.0459 266.876 40.0459M228.876 30.3459L272.876 27.8459L281.376 26.3459" stroke="black" stroke-width="0.5"/>
<path d="M290.876 40.3459C290.876 38.3459 289.876 34.3459 286.376 32.3459C288.597 32.3459 291.974 33.3863 294.485 35.7559C294.949 37.2859 293.876 40.8459 290.834 42.3459C290.821 41.7557 290.876 41.0702 290.876 40.3459Z" fill="#EDADBF"/>
<path d="M272.876 42.8459C279.872 43.1957 285.889 43.3008 291.269 43.8459M297.876 44.8459C295.773 44.3953 293.58 44.08 291.269 43.8459M295.876 37.3459C295.458 36.7608 294.989 36.2316 294.485 35.7559M291.269 43.8459C290.943 43.5012 290.849 42.9781 290.834 42.3459M290.834 42.3459C290.821 41.7557 290.876 41.0702 290.876 40.3459C290.876 38.3459 289.876 34.3459 286.376 32.3459C288.597 32.3459 291.974 33.3863 294.485 35.7559M290.834 42.3459C293.876 40.8459 294.949 37.2859 294.485 35.7559" stroke="black" stroke-width="0.5"/>
<path d="M290.876 40.3459C286.376 40.3459 284.376 36.3459 283.376 33.8459" stroke="black" stroke-width="0.5"/>
<path d="M132.874 12.4459C119.374 16.4459 107.374 22.3459 93.374 35.3459C100.374 23.3459 115.874 13.8459 131.374 8.84595L132.874 12.4459Z" fill="#E0426F" stroke="black" stroke-width="0.5"/>
<path d="M131.374 8.84595C111.374 14.52 93.374 31.8459 85.374 29.8459C98.374 20.3459 114.374 11.8459 130.874 7.34595L131.374 8.84595Z" fill="#E0426F" stroke="black" stroke-width="0.5"/>
<path d="M10.3747 47.846H4.37469C1.87402 51.8459 1.87402 61.8459 2.37469 65.3459C0.874023 66.3459 0.874621 70.8459 1.87469 72.3459L5.87469 72.8459V74.3459L1.87469 76.3459V78.3459C5.87469 79.3459 14.3747 81.3459 22.3747 80.8459V79.3459H39.8747C39.208 70.8459 40.8747 60.3459 49.8747 53.3459C47.3747 49.3459 40.3747 44.8459 37.3747 44.346C27.3747 43.3459 12.3747 45.846 10.3747 47.846Z" fill="#E0426F" stroke="black" stroke-width="0.5"/>
<path d="M93.376 35.3459C75.5426 36.1793 43.876 41.0459 33.376 44.0459L37.376 44.3459C42.376 45.8459 47.876 50.1793 49.876 53.3459C62.875 43.8459 88.375 50.8459 86.875 78.3459H96.875C89.875 67.3459 90.875 45.3459 93.376 35.3459Z" fill="#E0426F" stroke="black" stroke-width="0.5"/>
<path d="M10.374 47.846H4.37402C36.8742 28.3459 58.8743 34.3459 84.874 29.8459L93.8743 35.3459C76.8743 36.3459 47.874 39.8459 33.874 44.046C25.874 43.8459 11.874 45.8459 10.374 47.846Z" fill="#E0426F" stroke="black" stroke-width="0.5"/>
<path d="M37.3755 44.346C29.8755 43.3459 12.8755 45.3459 10.3755 47.846C9.57548 50.246 12.7088 53.1793 14.3755 54.3459C23.8755 55.8459 37.3755 49.8459 37.3755 44.346Z" fill="#E0426F" stroke="black" stroke-width="0.5"/>
<path d="M4.37472 47.8459C11.3747 48.8459 5.37472 59.3459 2.37472 64.3459C1.87465 57.3459 2.37451 51.8459 4.37472 47.8459Z" fill="#E0426F" stroke="black" stroke-width="0.5"/>
<path d="M22.374 83.8459V79.3459H39.874L40.374 83.8459H22.374Z" fill="#E0426F" stroke="black" stroke-width="0.5"/>
<path d="M2.87598 65.3459C4.37598 67.8459 6.37598 71.0126 5.87598 72.8459M22.376 79.3459C11.876 79.8459 7.37598 75.8459 8.37598 72.3459C8.87598 71.8459 10.376 70.3459 11.376 70.3459" stroke="black" stroke-width="0.5"/>
<path d="M32.376 74.3459C29.876 70.3459 24.376 65.346 21.376 63.846C19.6259 63.346 17.0008 63.471 14.2508 63.846C12.6258 65.1793 11.376 68.3459 11.876 71.3459C11.876 72.5126 13.1834 74.8459 15.876 74.8459C20.376 74.8459 27.376 75.3459 32.376 74.3459Z" fill="#E0426F"/>
<path d="M6.37598 65.346C8.62592 64.846 11.5008 64.221 14.2508 63.846M14.2508 63.846C17.0008 63.471 19.6259 63.346 21.376 63.846C24.376 65.346 29.876 70.3459 32.376 74.3459C27.376 75.3459 20.376 74.8459 15.876 74.8459C13.1834 74.8459 11.876 72.5126 11.876 71.3459C11.376 68.3459 12.6258 65.1793 14.2508 63.846Z" stroke="black" stroke-width="0.5"/>
<path d="M11.876 70.846C19.876 69.3461 23.376 71.9745 26.376 73.4745M13.376 73.8461L30.876 73.3461" stroke="black" stroke-width="0.5"/>
<path d="M22.374 82.3459H31.874C33.874 82.3459 35.374 80.3459 34.874 79.3459M38.374 79.3459V83.8459" stroke="black" stroke-width="0.5"/>
<path d="M22.3759 80.8462C17.8759 80.8462 13.3759 81.3462 1.87592 78.3462V76.3462L5.87592 74.3462V72.8462L1.87592 72.3462C1.375 70.8459 0.375196 67.8459 2.37519 65.3459C1.87543 57.3459 2.37543 50.8459 4.37592 47.8457C36.8759 28.3461 58.8759 34.3461 84.8759 29.8461C162.876 -25.154 244.876 11.8459 281.876 26.3461L295.376 28.3459L295.876 35.3459V38.3459C297.374 43.3459 298.709 47.8459 297.376 49.8459C299.876 50.8459 302.376 54.0126 302.376 55.8459L300.376 65.8459C300.828 76.6939 298.42 76.9181 289.088 77.2306C288.097 77.2638 286.028 77.2979 284.876 77.3459V78.8459L259.876 79.277M22.3759 80.8462V83.8462H40.3743L39.8759 79.3462M22.3759 80.8462V79.3462H39.8759M39.8759 79.3462C36.8759 37.8462 90.3759 40.8462 86.8759 79.8462V82.3459H213.376C207.376 38.8459 261.876 38.8459 259.876 79.277M259.374 79.277H259.876" stroke="black"/>
</svg>
