<svg width="303" height="96" viewBox="0 0 303 96" fill="none" xmlns="http://www.w3.org/2000/svg">
<circle cx="62.8955" cy="74.3535" r="20.5" fill="#EFC7D3" stroke="black"/>
<circle cx="235.896" cy="74.3535" r="20.5" fill="#EFC7D3" stroke="black"/>
<path d="M132.894 12.8534L131.394 9.35337C171.394 1.35348 192.894 1.85352 231.894 13.3535L228.394 17.8535C208.394 9.85343 190.394 8.85342 174.394 8.35349C171.894 7.85349 167.894 7.85345 165.394 8.35337C155.394 8.35349 143.394 9.85349 132.894 12.8534Z" fill="#EFC7D3" stroke="black" stroke-width="0.5"/>
<path d="M131.394 9.35356L130.894 7.85356C166.894 -3.14648 199.394 0.85339 234.894 9.85356L231.894 13.3536C191.894 0.853516 165.894 2.35352 131.394 9.35356Z" fill="#EFC7D3" stroke="black" stroke-width="0.5"/>
<path d="M131.394 9.3535C182.894 -2.14652 211.394 7.85352 231.894 13.3535" stroke="black" stroke-width="0.5"/>
<path d="M170.896 30.3535L174.396 8.35352C207.896 9.35352 219.396 14.8535 223.896 16.3535L226.378 28.3535C199.388 28.3542 181.893 29.8536 170.896 30.3535Z" fill="#EFC7D3"/>
<path d="M226.896 30.8535L223.896 16.3535C219.396 14.8535 207.896 9.35352 174.396 8.35352L170.896 30.3535C181.896 29.8535 199.396 28.3535 226.396 28.3535" stroke="black" stroke-width="0.5"/>
<path d="M165.396 8.35352C132.396 9.35352 112.396 18.3535 93.3955 35.8535L95.8955 33.8535L159.896 30.8535L165.396 8.35352Z" fill="#EFC7D3" stroke="black" stroke-width="0.5"/>
<path d="M239.894 22.8535C236.227 20.1868 230.394 17.8535 223.894 16.3535L226.394 28.3535H232.894C235.894 26.8535 238.894 24.6223 239.894 22.8535Z" fill="#EFC7D3" stroke="black" stroke-width="0.5"/>
<path d="M96.8955 78.8535H163.896L198.396 77.3535H212.896L213.396 82.8535H199.396H98.3955H86.8955V78.8535H96.8955Z" fill="#EFC7D3"/>
<path d="M96.8955 78.8535H163.896L198.396 77.3535M96.8955 78.8535C96.8955 80.3535 97.3955 81.3535 98.3955 82.8535M96.8955 78.8535H86.8955V82.8535H98.3955M198.396 77.3535L199.396 82.8535M198.396 77.3535H212.896L213.396 82.8535H199.396M199.396 82.8535H98.3955" stroke="black" stroke-width="0.5"/>
<path d="M96.8946 78.8535C92.3955 74.3535 89.3956 52.3535 93.3946 35.8535L165.396 31.8535C161.396 36.8535 160.396 70.8535 163.896 78.8535H96.8946Z" fill="#EFC7D3" stroke="black" stroke-width="0.5"/>
<path d="M228.895 30.8535L165.395 31.8535C161.396 36.8535 160.396 70.8535 163.895 78.8535L198.395 77.3535C202.895 75.8535 209.395 70.3535 228.895 30.8535Z" fill="#EFC7D3" stroke="black" stroke-width="0.5"/>
<path d="M170.896 30.3536C166.396 30.8536 162.896 30.8536 159.896 30.8536L165.396 8.35359C168.396 7.85352 171.396 7.85352 174.396 8.35359L170.896 30.3536Z" fill="#EFC7D3" stroke="black" stroke-width="0.5"/>
<path d="M99.3955 32.3537C103.896 37.8537 110.896 34.3537 114.896 32.8537C115.896 17.3535 102.896 25.3535 99.3955 32.3537Z" fill="#EFC7D3" stroke="black" stroke-width="0.5"/>
<path d="M234.894 9.85352L231.894 13.3535C248.894 18.8535 259.394 21.8535 271.894 28.3535H273.394L281.394 26.8535C266.394 20.3535 258.894 17.8535 234.894 9.85352Z" stroke="black" stroke-width="0.5"/>
<path d="M271.894 28.3535C261.394 22.8535 242.394 16.3535 231.894 13.3535L229.894 15.8535L244.894 23.3535C243.394 25.8535 239.394 27.8535 233.394 30.5535C245.394 29.8535 262.394 28.8535 271.894 28.3535Z" stroke="black" stroke-width="0.5"/>
<path d="M277.396 34.6535L283.394 32.3535L272.895 28.3535L228.895 30.8535C221.395 45.8535 206.395 76.3535 198.395 77.3535H212.895C211.395 66.3535 220.895 42.8535 245.896 51.8535C256.396 46.3535 266.396 40.8535 277.396 34.6535Z" stroke="black" stroke-width="0.5"/>
<path d="M278.394 34.3535C266.394 40.8535 256.394 46.3535 245.894 51.8535C250.394 54.8535 260.894 60.8535 259.894 79.8535L284.894 79.3535V77.8535C293.394 76.8535 301.894 80.3535 300.394 66.3535L302.394 56.3535C302.394 54.8535 299.894 50.8535 297.394 50.3535C298.894 47.8535 295.894 38.8535 295.894 38.8535V37.3535L291.894 34.3535L286.894 32.8535L283.394 32.3535L278.394 34.3535Z" stroke="black" stroke-width="0.5"/>
<path d="M295.894 37.3535L295.888 37.2737M295.888 37.2737L295.394 28.8535L281.394 26.8535L272.894 28.3535L283.394 32.3535C292.894 33.3535 291.892 34.8535 295.888 37.2737Z" stroke="black" stroke-width="0.5"/>
<path d="M294.396 36.8537C293.896 34.3536 282.896 34.1535 277.396 34.6535" stroke="black" stroke-width="0.5"/>
<path d="M300.396 66.8535L260.896 68.8535C260.396 63.8535 258.229 59.6868 256.396 57.8535L302.396 55.3535M300.896 52.8535C289.896 51.3535 278.896 46.5535 266.896 40.5535M228.896 30.8535L272.896 28.3535L281.396 26.8535" stroke="black" stroke-width="0.5"/>
<path d="M272.896 43.3535C279.891 43.7033 285.908 43.8084 291.289 44.3535M297.896 45.3535C295.793 44.9029 293.599 44.5876 291.289 44.3535M295.896 37.8535C295.478 37.2684 295.008 36.7392 294.504 36.2635M291.289 44.3535C290.962 44.0088 290.868 43.4857 290.854 42.8535M290.854 42.8535C290.84 42.2632 290.896 41.5778 290.896 40.8535C290.896 38.8535 289.896 34.8535 286.396 32.8535C288.616 32.8535 291.993 33.8939 294.504 36.2635M290.854 42.8535C293.896 41.3535 294.968 37.7935 294.504 36.2635" stroke="black" stroke-width="0.5"/>
<path d="M290.896 40.8535C286.396 40.8535 284.396 36.8535 283.396 34.3535" stroke="black" stroke-width="0.5"/>
<path d="M132.894 12.9535C119.394 16.9535 107.394 22.8535 93.394 35.8535C100.394 23.8535 115.894 14.3535 131.394 9.35352L132.894 12.9535Z" fill="#EDADBF" stroke="black" stroke-width="0.5"/>
<path d="M131.394 9.35352C111.394 15.0276 93.394 32.3535 85.394 30.3535C98.394 20.8535 114.394 12.3535 130.894 7.85352L131.394 9.35352Z" fill="#EDADBF" stroke="black" stroke-width="0.5"/>
<path d="M10.3947 48.3535H4.39471C1.89404 52.3535 1.89404 62.3535 2.39471 65.8535C0.894043 66.8535 0.89464 71.3535 1.89471 72.8535L5.89471 73.3535V74.8535L1.89471 76.8535V78.8535C5.89471 79.8535 14.3947 81.8535 22.3947 81.3535V79.8535H39.8947C39.228 71.3535 40.8947 60.8535 49.8947 53.8535C47.3947 49.8535 40.3947 45.3535 37.3947 44.8535C27.3947 43.8535 12.3947 46.3535 10.3947 48.3535Z" fill="#EDADBF" stroke="black" stroke-width="0.5"/>
<path d="M93.3955 35.8535C75.5622 36.6868 43.8955 41.5535 33.3955 44.5535L37.3955 44.8535C42.3955 46.3535 47.8955 50.6868 49.8955 53.8535C62.8945 44.3535 88.3945 51.3535 86.8945 78.8535H96.8945C89.8945 67.8535 90.8945 45.8535 93.3955 35.8535Z" fill="#EDADBF" stroke="black" stroke-width="0.5"/>
<path d="M10.3936 48.3536H4.39355C36.8937 28.8535 58.8938 34.8535 84.8936 30.3535L93.8938 35.8535C76.8938 36.8535 47.8936 40.3535 33.8936 44.5535C25.8936 44.3535 11.8936 46.3535 10.3936 48.3536Z" fill="#EDADBF" stroke="black" stroke-width="0.5"/>
<path d="M37.3955 44.8536C29.8955 43.8535 12.8955 45.8535 10.3955 48.3536C9.5955 50.7535 12.7288 53.6868 14.3955 54.8535C23.8955 56.3535 37.3955 50.3535 37.3955 44.8536Z" fill="#EDADBF" stroke="black" stroke-width="0.5"/>
<path d="M4.39474 48.3535C11.3947 49.3535 5.39474 59.8535 2.39474 64.8535C1.89467 57.8535 2.39453 52.3535 4.39474 48.3535Z" fill="#EDADBF" stroke="black" stroke-width="0.5"/>
<path d="M22.394 84.3535V79.8535H39.894L40.394 84.3535H22.394Z" fill="#EDADBF" stroke="black" stroke-width="0.5"/>
<path d="M2.89551 65.8535C4.39551 68.3535 6.39551 71.5202 5.89551 73.3535M22.3955 79.8535C11.8955 80.3535 7.39551 76.3535 8.39551 72.8535C8.89551 72.3535 10.3955 70.8535 11.3955 70.8535" stroke="black" stroke-width="0.5"/>
<path d="M32.3955 74.8535C29.8955 70.8535 24.3955 65.8536 21.3955 64.3536C19.6455 63.8536 17.0204 63.9786 14.2703 64.3536C12.6454 65.6869 11.3955 68.8535 11.8955 71.8535C11.8955 73.0202 13.2029 75.3535 15.8955 75.3535C20.3955 75.3535 27.3955 75.8535 32.3955 74.8535Z" fill="#EDADBF"/>
<path d="M6.39551 65.8536C8.64545 65.3536 11.5204 64.7286 14.2703 64.3536M14.2703 64.3536C17.0204 63.9786 19.6455 63.8536 21.3955 64.3536C24.3955 65.8536 29.8955 70.8535 32.3955 74.8535C27.3955 75.8535 20.3955 75.3535 15.8955 75.3535C13.2029 75.3535 11.8955 73.0202 11.8955 71.8535C11.3955 68.8535 12.6454 65.6869 14.2703 64.3536Z" stroke="black" stroke-width="0.5"/>
<path d="M11.8955 71.3536C19.8955 69.8536 23.3955 72.4821 26.3955 73.9821M13.3955 74.3536L30.8955 73.8536" stroke="black" stroke-width="0.5"/>
<path d="M22.3936 82.8535H31.8936C33.8936 82.8535 35.3936 80.8535 34.8936 79.8535M38.3936 79.8535V84.3535" stroke="black" stroke-width="0.5"/>
<path d="M22.3955 81.3538C17.8955 81.3538 13.3955 81.8538 1.89545 78.8538V76.8538L5.89545 74.8538V73.3538L1.89545 72.8538C1.39453 71.3535 0.394727 68.3535 2.39472 65.8535C1.89497 57.8535 2.39497 51.3535 4.39545 48.3533C36.8955 28.8537 58.8954 34.8537 84.8954 30.3537C162.895 -24.6464 244.895 12.3535 281.895 26.8537L295.395 28.8535L295.895 35.8535V38.8535C297.394 43.8535 298.729 48.3535 297.395 50.3535C299.895 51.3535 302.395 54.5202 302.395 56.3535L300.395 66.3535C300.847 77.2014 298.439 77.4257 289.108 77.7382C288.117 77.7713 286.048 77.8055 284.895 77.8535V79.3535L259.895 79.7846M22.3955 81.3538V84.3538H40.3938L39.8955 79.8538M22.3955 81.3538V79.8538H39.8955M39.8955 79.8538C36.8955 38.3538 90.3954 41.3538 86.8954 80.3538V82.8535H213.395C207.395 39.3535 261.895 39.3535 259.895 79.7846M259.394 79.7846H259.895" stroke="black"/>
</svg>
