<svg width="303" height="96" viewBox="0 0 303 96" fill="none" xmlns="http://www.w3.org/2000/svg">
<circle cx="62.4473" cy="74.2146" r="20.5" fill="#E0426F" stroke="black"/>
<circle cx="235.447" cy="74.2146" r="20.5" fill="#E0426F" stroke="black"/>
<path d="M132.445 12.7145L130.945 9.21445C170.945 1.21457 192.445 1.7146 231.445 13.2145L227.945 17.7145C207.945 9.71451 189.945 8.71451 173.945 8.21458C171.445 7.71458 167.445 7.71454 164.945 8.21445C154.945 8.21458 142.945 9.71458 132.445 12.7145Z" fill="#E56E90" stroke="black" stroke-width="0.5"/>
<path d="M130.945 9.21464L130.445 7.71464C166.445 -3.2854 198.945 0.714474 234.445 9.71465L231.445 13.2146C191.445 0.7146 165.445 2.2146 130.945 9.21464Z" fill="#E56E90" stroke="black" stroke-width="0.5"/>
<path d="M130.945 9.21447C182.445 -2.28556 210.945 7.71448 231.445 13.2145" stroke="black" stroke-width="0.5"/>
<path d="M170.447 30.2146L173.947 8.2146C207.447 9.2146 218.947 14.7146 223.447 16.2146L225.93 28.2146C198.94 28.2152 181.445 29.7147 170.447 30.2146Z" fill="#E56E90"/>
<path d="M226.447 30.7146L223.447 16.2146C218.947 14.7146 207.447 9.2146 173.947 8.2146L170.447 30.2146C181.447 29.7146 198.947 28.2146 225.947 28.2146" stroke="black" stroke-width="0.5"/>
<path d="M164.947 8.2146C131.947 9.2146 111.947 18.2146 92.9473 35.7146L95.4473 33.7146L159.447 30.7146L164.947 8.2146Z" fill="#E56E90" stroke="black" stroke-width="0.5"/>
<path d="M239.445 22.7146C235.779 20.0479 229.945 17.7146 223.445 16.2146L225.945 28.2146H232.445C235.445 26.7146 238.445 24.4833 239.445 22.7146Z" fill="#E56E90" stroke="black" stroke-width="0.5"/>
<path d="M96.4473 78.7146H163.447L197.947 77.2146H212.447L212.947 82.7146H198.947H97.9473H86.4473V78.7146H96.4473Z" fill="#E56E90"/>
<path d="M96.4473 78.7146H163.447L197.947 77.2146M96.4473 78.7146C96.4473 80.2146 96.9473 81.2146 97.9473 82.7146M96.4473 78.7146H86.4473V82.7146H97.9473M197.947 77.2146L198.947 82.7146M197.947 77.2146H212.447L212.947 82.7146H198.947M198.947 82.7146H97.9473" stroke="black" stroke-width="0.5"/>
<path d="M96.4464 78.7146C91.9473 74.2146 88.9473 52.2146 92.9464 35.7146L164.947 31.7146C160.947 36.7146 159.947 70.7146 163.447 78.7146H96.4464Z" fill="#E56E90" stroke="black" stroke-width="0.5"/>
<path d="M228.447 30.7146L164.947 31.7146C160.947 36.7146 159.948 70.7146 163.447 78.7146L197.947 77.2146C202.447 75.7146 208.947 70.2146 228.447 30.7146Z" fill="#E56E90" stroke="black" stroke-width="0.5"/>
<path d="M170.447 30.2147C165.947 30.7147 162.447 30.7147 159.447 30.7147L164.947 8.21467C167.947 7.7146 170.947 7.7146 173.947 8.21467L170.447 30.2147Z" fill="#E56E90" stroke="black" stroke-width="0.5"/>
<path d="M98.9473 32.2146C103.447 37.7146 110.447 34.2146 114.447 32.7146C115.447 17.2145 102.447 25.2145 98.9473 32.2146Z" fill="#E56E90" stroke="black" stroke-width="0.5"/>
<path d="M234.445 9.7146L231.445 13.2146C248.445 18.7146 258.945 21.7146 271.445 28.2146H272.945L280.945 26.7146C265.945 20.2146 258.445 17.7146 234.445 9.7146Z" fill="#E0426F" stroke="black" stroke-width="0.5"/>
<path d="M271.445 28.2146C260.945 22.7146 241.945 16.2146 231.445 13.2146L229.445 15.7146L244.445 23.2146C242.945 25.7146 238.945 27.7146 232.945 30.4146C244.945 29.7146 261.945 28.7146 271.445 28.2146Z" fill="#E0426F" stroke="black" stroke-width="0.5"/>
<path d="M276.947 34.5146L282.946 32.2146L272.446 28.2146L228.446 30.7146C220.946 45.7146 205.946 76.2146 197.946 77.2146H212.446C210.946 66.2146 220.446 42.7146 245.447 51.7146C255.947 46.2146 265.947 40.7146 276.947 34.5146Z" fill="#E0426F" stroke="black" stroke-width="0.5"/>
<path d="M277.945 34.2146C265.945 40.7146 255.945 46.2146 245.445 51.7146C249.945 54.7146 260.445 60.7146 259.445 79.7146L284.445 79.2146V77.7146C292.945 76.7146 301.445 80.2146 299.945 66.2146L301.945 56.2146C301.945 54.7146 299.445 50.7146 296.945 50.2146C298.445 47.7146 295.445 38.7146 295.445 38.7146V37.2146L291.445 34.2146L286.445 32.7146L282.945 32.2146L277.945 34.2146Z" fill="#E0426F" stroke="black" stroke-width="0.5"/>
<path d="M280.945 26.7146L272.445 28.2146L282.945 32.2146C292.445 33.2146 291.444 34.7146 295.439 37.1348L294.945 28.7146L280.945 26.7146Z" fill="#E0426F"/>
<path d="M295.445 37.2146L295.439 37.1348M295.439 37.1348L294.945 28.7146L280.945 26.7146L272.445 28.2146L282.945 32.2146C292.445 33.2146 291.444 34.7146 295.439 37.1348Z" stroke="black" stroke-width="0.5"/>
<path d="M293.947 36.7148C293.447 34.2147 282.447 34.0146 276.947 34.5146" stroke="black" stroke-width="0.5"/>
<path d="M299.947 66.7146L260.447 68.7146C259.947 63.7146 257.781 59.5479 255.947 57.7146L301.947 55.2146M300.447 52.7146C289.447 51.2146 278.447 46.4146 266.447 40.4146M228.447 30.7146L272.447 28.2146L280.947 26.7146" stroke="black" stroke-width="0.5"/>
<path d="M290.447 40.7146C290.447 38.7146 289.447 34.7146 285.947 32.7146C288.168 32.7146 291.545 33.755 294.056 36.1246C294.52 37.6546 293.447 41.2146 290.405 42.7146C290.392 42.1243 290.447 41.4389 290.447 40.7146Z" fill="#E0426F"/>
<path d="M272.447 43.2146C279.443 43.5644 285.46 43.6695 290.84 44.2146M297.447 45.2146C295.344 44.764 293.151 44.4487 290.84 44.2146M295.447 37.7146C295.029 37.1295 294.56 36.6002 294.056 36.1246M290.84 44.2146C290.514 43.8698 290.42 43.3468 290.405 42.7146M290.405 42.7146C290.392 42.1243 290.447 41.4389 290.447 40.7146C290.447 38.7146 289.447 34.7146 285.947 32.7146C288.168 32.7146 291.545 33.755 294.056 36.1246M290.405 42.7146C293.447 41.2146 294.52 37.6546 294.056 36.1246" stroke="black" stroke-width="0.5"/>
<path d="M290.447 40.7146C285.947 40.7146 283.947 36.7146 282.947 34.2146" stroke="black" stroke-width="0.5"/>
<path d="M132.445 12.8146C118.945 16.8146 106.945 22.7146 92.9453 35.7146C99.9453 23.7146 115.445 14.2146 130.945 9.2146L132.445 12.8146Z" fill="#E56E90" stroke="black" stroke-width="0.5"/>
<path d="M130.945 9.2146C110.945 14.8886 92.9453 32.2146 84.9453 30.2146C97.9453 20.7146 113.945 12.2146 130.445 7.7146L130.945 9.2146Z" fill="#E56E90" stroke="black" stroke-width="0.5"/>
<path d="M9.94598 48.2145H3.94598C1.44531 52.2145 1.44531 62.2145 1.94598 65.7145C0.445312 66.7145 0.44591 71.2145 1.44598 72.7145L5.44598 73.2145V74.7145L1.44598 76.7145V78.7145C5.44598 79.7145 13.946 81.7145 21.946 81.2145V79.7145H39.446C38.7793 71.2145 40.446 60.7145 49.446 53.7145C46.946 49.7145 39.946 45.2145 36.946 44.7145C26.946 43.7145 11.946 46.2145 9.94598 48.2145Z" fill="#E56E90" stroke="black" stroke-width="0.5"/>
<path d="M92.9473 35.7146C75.1139 36.5479 43.4473 41.4146 32.9473 44.4146L36.9473 44.7146C41.9473 46.2146 47.4473 50.5479 49.4473 53.7146C62.4463 44.2146 87.9463 51.2146 86.4463 78.7146H96.4463C89.4463 67.7146 90.4463 45.7146 92.9473 35.7146Z" fill="#E56E90" stroke="black" stroke-width="0.5"/>
<path d="M9.94531 48.2147H3.94531C36.4455 28.7146 58.4456 34.7146 84.4453 30.2146L93.4456 35.7146C76.4456 36.7146 47.4453 40.2146 33.4453 44.4146C25.4453 44.2146 11.4453 46.2146 9.94531 48.2147Z" fill="#E56E90" stroke="black" stroke-width="0.5"/>
<path d="M36.9468 44.7147C29.4468 43.7146 12.4468 45.7146 9.94677 48.2147C9.14677 50.6146 12.2801 53.5479 13.9468 54.7146C23.4468 56.2146 36.9468 50.2146 36.9468 44.7147Z" fill="#E56E90" stroke="black" stroke-width="0.5"/>
<path d="M3.94601 48.2146C10.946 49.2146 4.94601 59.7146 1.94601 64.7146C1.44594 57.7146 1.9458 52.2146 3.94601 48.2146Z" fill="#E56E90" stroke="black" stroke-width="0.5"/>
<path d="M21.9453 84.2146V79.7146H39.4453L39.9453 84.2146H21.9453Z" fill="#E56E90" stroke="black" stroke-width="0.5"/>
<path d="M2.44727 65.7144C3.94727 68.2144 5.94727 71.381 5.44727 73.2144M21.9473 79.7144C11.4473 80.2144 6.94727 76.2144 7.94727 72.7144C8.44727 72.2144 9.94727 70.7144 10.9473 70.7144" stroke="black" stroke-width="0.5"/>
<path d="M31.9473 74.7145C29.4473 70.7145 23.9473 65.7146 20.9473 64.2146C19.1972 63.7145 16.5721 63.8395 13.8221 64.2146C12.1971 65.5479 10.9473 68.7145 11.4473 71.7145C11.4473 72.8811 12.7547 75.2145 15.4473 75.2145C19.9473 75.2145 26.9473 75.7145 31.9473 74.7145Z" fill="#E56E90"/>
<path d="M5.94727 65.7146C8.19721 65.2145 11.0721 64.5896 13.8221 64.2146M13.8221 64.2146C16.5721 63.8395 19.1972 63.7145 20.9473 64.2146C23.9473 65.7146 29.4473 70.7145 31.9473 74.7145C26.9473 75.7145 19.9473 75.2145 15.4473 75.2145C12.7547 75.2145 11.4473 72.8811 11.4473 71.7145C10.9473 68.7145 12.1971 65.5479 13.8221 64.2146Z" stroke="black" stroke-width="0.5"/>
<path d="M11.4473 71.2146C19.4473 69.7146 22.9473 72.3431 25.9473 73.8431M12.9473 74.2146L30.4473 73.7146" stroke="black" stroke-width="0.5"/>
<path d="M21.9453 82.7144H31.4453C33.4453 82.7144 34.9453 80.7144 34.4453 79.7144M37.9453 79.7144V84.2144" stroke="black" stroke-width="0.5"/>
<path d="M21.9472 81.2148C17.4472 81.2148 12.9472 81.7148 1.44721 78.7148V76.7148L5.44721 74.7148V73.2148L1.44721 72.7149C0.946289 71.2146 -0.0535151 68.2146 1.94648 65.7146C1.44672 57.7146 1.94672 51.2146 3.94721 48.2143C36.4472 28.7147 58.4472 34.7148 84.4472 30.2148C162.447 -24.7853 244.447 12.2146 281.447 26.7148L294.947 28.7146L295.447 35.7146V38.7146C296.946 43.7146 298.281 48.2146 296.947 50.2146C299.447 51.2146 301.947 54.3813 301.947 56.2146L299.947 66.2146C300.399 77.0625 297.991 77.2868 288.66 77.5992C287.668 77.6324 285.599 77.6666 284.447 77.7146V79.2146L259.447 79.6456M21.9472 81.2148V84.2148H39.9456L39.4472 79.7148M21.9472 81.2148V79.7148H39.4472M39.4472 79.7148C36.4472 38.2148 89.9472 41.2148 86.4472 80.2148V82.7146H212.947C206.947 39.2146 261.447 39.2146 259.447 79.6456M258.946 79.6456H259.447" stroke="black"/>
</svg>
