<svg width="304" height="96" viewBox="0 0 304 96" fill="none" xmlns="http://www.w3.org/2000/svg">
<circle cx="63.0835" cy="74.553" r="20.5" fill="#EDADBF" stroke="black"/>
<circle cx="236.083" cy="74.553" r="20.5" fill="#EDADBF" stroke="black"/>
<path d="M133.082 13.0528L131.582 9.55283C171.582 1.55295 193.082 2.05298 232.082 13.5529L228.582 18.0529C208.582 10.0529 190.582 9.05289 174.582 8.55296C172.082 8.05296 168.082 8.05292 165.582 8.55283C155.582 8.55296 143.582 10.053 133.082 13.0528Z" fill="#E0426F" stroke="black" stroke-width="0.5"/>
<path d="M131.582 9.55302L131.082 8.05302C167.082 -2.94702 199.582 1.05285 235.082 10.053L232.082 13.553C192.082 1.05298 166.082 2.55298 131.582 9.55302Z" fill="#E0426F" stroke="black" stroke-width="0.5"/>
<path d="M131.582 9.55284C183.082 -1.94718 211.582 8.05286 232.082 13.5528" stroke="black" stroke-width="0.5"/>
<path d="M171.083 30.553L174.583 8.55298C208.083 9.55298 219.583 15.053 224.083 16.553L226.566 28.553C199.576 28.5536 182.081 30.0531 171.083 30.553Z" fill="#E0426F"/>
<path d="M227.083 31.053L224.083 16.553C219.583 15.053 208.083 9.55298 174.583 8.55298L171.083 30.553C182.083 30.053 199.583 28.553 226.583 28.553" stroke="black" stroke-width="0.5"/>
<path d="M165.583 8.55298C132.583 9.55298 112.583 18.553 93.5835 36.053L96.0835 34.053L160.083 31.053L165.583 8.55298Z" fill="#E0426F" stroke="black" stroke-width="0.5"/>
<path d="M240.082 23.053C236.415 20.3863 230.582 18.053 224.082 16.553L226.582 28.553H233.082C236.082 27.053 239.082 24.8217 240.082 23.053Z" fill="#E0426F" stroke="black" stroke-width="0.5"/>
<path d="M97.0835 79.053H164.083L198.583 77.553H213.083L213.583 83.053H199.583H98.5835H87.0835V79.053H97.0835Z" fill="#E0426F"/>
<path d="M97.0835 79.053H164.083L198.583 77.553M97.0835 79.053C97.0835 80.553 97.5835 81.553 98.5835 83.053M97.0835 79.053H87.0835V83.053H98.5835M198.583 77.553L199.583 83.053M198.583 77.553H213.083L213.583 83.053H199.583M199.583 83.053H98.5835" stroke="black" stroke-width="0.5"/>
<path d="M97.0826 79.053C92.5835 74.553 89.5835 52.553 93.5826 36.053L165.583 32.053C161.583 37.053 160.583 71.053 164.083 79.053H97.0826Z" fill="#E0426F" stroke="black" stroke-width="0.5"/>
<path d="M229.083 31.053L165.583 32.053C161.583 37.053 160.583 71.053 164.083 79.053L198.583 77.553C203.083 76.053 209.583 70.553 229.083 31.053Z" fill="#E0426F" stroke="black" stroke-width="0.5"/>
<path d="M171.083 30.5531C166.583 31.0531 163.083 31.0531 160.083 31.0531L165.583 8.55305C168.583 8.05298 171.583 8.05298 174.583 8.55305L171.083 30.5531Z" fill="#E0426F" stroke="black" stroke-width="0.5"/>
<path d="M99.5835 32.553C104.083 38.053 111.083 34.553 115.083 33.053C116.083 17.5529 103.083 25.5529 99.5835 32.553Z" fill="#E0426F" stroke="black" stroke-width="0.5"/>
<path d="M235.082 10.053L232.082 13.553C249.082 19.053 259.582 22.053 272.082 28.553H273.582L281.582 27.053C266.582 20.553 259.082 18.053 235.082 10.053Z" fill="#EFC7D3" stroke="black" stroke-width="0.5"/>
<path d="M272.082 28.553C261.582 23.053 242.582 16.553 232.082 13.553L230.082 16.053L245.082 23.553C243.582 26.053 239.582 28.053 233.582 30.753C245.582 30.053 262.582 29.053 272.082 28.553Z" fill="#EFC7D3" stroke="black" stroke-width="0.5"/>
<path d="M277.583 34.853L283.582 32.553L273.083 28.553L229.083 31.053C221.583 46.053 206.583 76.553 198.583 77.553H213.083C211.583 66.553 221.083 43.053 246.083 52.053C256.583 46.553 266.583 41.053 277.583 34.853Z" fill="#EFC7D3" stroke="black" stroke-width="0.5"/>
<path d="M278.582 34.553C266.582 41.053 256.582 46.553 246.082 52.053C250.582 55.053 261.082 61.053 260.082 80.053L285.082 79.553V78.053C293.582 77.053 302.082 80.553 300.582 66.553L302.582 56.553C302.582 55.053 300.082 51.053 297.582 50.553C299.082 48.053 296.082 39.053 296.082 39.053V37.553L292.082 34.553L287.082 33.053L283.582 32.553L278.582 34.553Z" fill="#EFC7D3" stroke="black" stroke-width="0.5"/>
<path d="M281.582 27.053L273.082 28.553L283.582 32.553C293.082 33.553 292.081 35.053 296.076 37.4732L295.582 29.053L281.582 27.053Z" fill="#EFC7D3"/>
<path d="M296.082 37.553L296.076 37.4732M296.076 37.4732L295.582 29.053L281.582 27.053L273.082 28.553L283.582 32.553C293.082 33.553 292.081 35.053 296.076 37.4732Z" stroke="black" stroke-width="0.5"/>
<path d="M294.583 37.0532C294.083 34.5531 283.083 34.353 277.583 34.853" stroke="black" stroke-width="0.5"/>
<path d="M300.583 67.053L261.083 69.053C260.583 64.053 258.417 59.8863 256.583 58.053L302.583 55.553M301.083 53.053C290.083 51.553 279.083 46.753 267.083 40.753M229.083 31.053L273.083 28.553L281.583 27.053" stroke="black" stroke-width="0.5"/>
<path d="M291.083 41.053C291.083 39.053 290.083 35.053 286.583 33.053C288.804 33.053 292.181 34.0934 294.692 36.463C295.156 37.993 294.083 41.553 291.042 43.053C291.028 42.4627 291.083 41.7773 291.083 41.053Z" fill="#EFC7D3"/>
<path d="M273.083 43.553C280.079 43.9028 286.096 44.0079 291.477 44.553M298.083 45.553C295.981 45.1023 293.787 44.7871 291.477 44.553M296.083 38.053C295.666 37.4679 295.196 36.9386 294.692 36.463M291.477 44.553C291.15 44.2082 291.056 43.6852 291.042 43.053M291.042 43.053C291.028 42.4627 291.083 41.7773 291.083 41.053C291.083 39.053 290.083 35.053 286.583 33.053C288.804 33.053 292.181 34.0934 294.692 36.463M291.042 43.053C294.083 41.553 295.156 37.993 294.692 36.463" stroke="black" stroke-width="0.5"/>
<path d="M291.083 41.053C286.583 41.053 284.583 37.053 283.583 34.553" stroke="black" stroke-width="0.5"/>
<path d="M133.082 13.153C119.582 17.153 107.582 23.053 93.582 36.053C100.582 24.053 116.082 14.553 131.582 9.55298L133.082 13.153Z" stroke="black" stroke-width="0.5"/>
<path d="M131.582 9.55298C111.582 15.227 93.582 32.553 85.582 30.553C98.582 21.053 114.582 12.553 131.082 8.05298L131.582 9.55298Z" stroke="black" stroke-width="0.5"/>
<path d="M10.5827 48.5529H4.5827C2.08203 52.5529 2.08203 62.5529 2.5827 66.0529C1.08203 67.0529 1.08263 71.5529 2.0827 73.0529L6.0827 73.5529V75.0529L2.0827 77.0529V79.0529C6.0827 80.0529 14.5827 82.0529 22.5827 81.5529V80.0529H40.0827C39.416 71.5529 41.0827 61.0529 50.0827 54.0529C47.5827 50.0529 40.5827 45.5529 37.5827 45.0529C27.5827 44.0529 12.5827 46.5529 10.5827 48.5529Z" stroke="black" stroke-width="0.5"/>
<path d="M93.5835 36.053C75.7502 36.8863 44.0835 41.753 33.5835 44.753L37.5835 45.053C42.5835 46.553 48.0835 50.8863 50.0835 54.053C63.0825 44.553 88.5825 51.553 87.0825 79.053H97.0825C90.0825 68.053 91.0825 46.053 93.5835 36.053Z" stroke="black" stroke-width="0.5"/>
<path d="M10.582 48.553H4.58203C37.0822 29.0529 59.0823 35.053 85.082 30.553L94.0823 36.053C77.0823 37.053 48.082 40.553 34.082 44.753C26.082 44.553 12.082 46.553 10.582 48.553Z" stroke="black" stroke-width="0.5"/>
<path d="M37.5835 45.0531C30.0835 44.053 13.0835 46.053 10.5835 48.5531C9.78349 50.953 12.9168 53.8863 14.5835 55.053C24.0835 56.553 37.5835 50.553 37.5835 45.0531Z" stroke="black" stroke-width="0.5"/>
<path d="M4.58273 48.553C11.5827 49.553 5.58273 60.053 2.58273 65.053C2.08266 58.053 2.58252 52.553 4.58273 48.553Z" stroke="black" stroke-width="0.5"/>
<path d="M22.582 84.553V80.053H40.082L40.582 84.553H22.582Z" stroke="black" stroke-width="0.5"/>
<path d="M3.08398 66.0527C4.58398 68.5527 6.58398 71.7194 6.08398 73.5527M22.584 80.0527C12.084 80.5527 7.58398 76.5527 8.58398 73.0527C9.08398 72.5527 10.584 71.0527 11.584 71.0527" stroke="black" stroke-width="0.5"/>
<path d="M6.58398 66.0529C8.83393 65.5529 11.7088 64.9279 14.4588 64.5529M14.4588 64.5529C17.2088 64.1779 19.8339 64.0529 21.584 64.5529C24.584 66.0529 30.084 71.0529 32.584 75.0529C27.584 76.0529 20.584 75.5529 16.084 75.5529C13.3914 75.5529 12.084 73.2195 12.084 72.0529C11.584 69.0529 12.8338 65.8862 14.4588 64.5529Z" stroke="black" stroke-width="0.5"/>
<path d="M12.084 71.5529C20.084 70.053 23.584 72.6815 26.584 74.1815M13.584 74.553L31.084 74.053" stroke="black" stroke-width="0.5"/>
<path d="M22.582 83.0527H32.082C34.082 83.0527 35.582 81.0527 35.082 80.0527M38.582 80.0527V84.5527" stroke="black" stroke-width="0.5"/>
<path d="M22.5834 81.5532C18.0834 81.5532 13.5834 82.0532 2.08344 79.0532V77.0532L6.08344 75.0532V73.5532L2.08344 73.0532C1.58252 71.553 0.582715 68.553 2.58271 66.053C2.08295 58.053 2.58295 51.553 4.58344 48.5527C37.0834 29.0531 59.0834 35.0532 85.0834 30.5532C163.083 -24.4469 245.083 12.553 282.083 27.0532L295.583 29.053L296.083 36.053V39.053C297.582 44.053 298.917 48.553 297.583 50.553C300.083 51.553 302.583 54.7196 302.583 56.553L300.583 66.553C301.035 77.4009 298.627 77.6252 289.296 77.9376C288.305 77.9708 286.236 78.005 285.083 78.053V79.553L260.083 79.984M22.5834 81.5532V84.5532H40.5818L40.0835 80.0532M22.5834 81.5532V80.0532H40.0835M40.0835 80.0532C37.0835 38.5532 90.5834 41.5532 87.0834 80.5532V83.053H213.583C207.583 39.553 262.083 39.553 260.083 79.984M259.582 79.984H260.083" stroke="black"/>
</svg>
