<svg width="304" height="96" viewBox="0 0 304 96" fill="none" xmlns="http://www.w3.org/2000/svg">
<circle cx="63.0938" cy="74.2146" r="20.5" fill="#EDADBF" stroke="black"/>
<circle cx="236.094" cy="74.2146" r="20.5" fill="#EDADBF" stroke="black"/>
<path d="M133.092 12.7145L131.592 9.21445C171.592 1.21457 193.092 1.7146 232.092 13.2145L228.592 17.7145C208.592 9.71451 190.592 8.71451 174.592 8.21458C172.092 7.71458 168.092 7.71454 165.592 8.21445C155.592 8.21458 143.592 9.71458 133.092 12.7145Z" fill="#E56E90" stroke="black" stroke-width="0.5"/>
<path d="M131.592 9.21464L131.092 7.71464C167.092 -3.2854 199.592 0.714474 235.092 9.71465L232.092 13.2146C192.092 0.7146 166.092 2.2146 131.592 9.21464Z" fill="#E56E90" stroke="black" stroke-width="0.5"/>
<path d="M131.592 9.21447C183.092 -2.28556 211.592 7.71448 232.092 13.2145" stroke="black" stroke-width="0.5"/>
<path d="M171.094 30.2146L174.594 8.2146C208.094 9.2146 219.594 14.7146 224.094 16.2146L226.577 28.2146C199.586 28.2152 182.091 29.7147 171.094 30.2146Z" fill="#E56E90"/>
<path d="M227.094 30.7146L224.094 16.2146C219.594 14.7146 208.094 9.2146 174.594 8.2146L171.094 30.2146C182.094 29.7146 199.594 28.2146 226.594 28.2146" stroke="black" stroke-width="0.5"/>
<path d="M165.594 8.2146C132.594 9.2146 112.594 18.2146 93.5938 35.7146L96.0938 33.7146L160.094 30.7146L165.594 8.2146Z" fill="#E56E90" stroke="black" stroke-width="0.5"/>
<path d="M240.092 22.7146C236.425 20.0479 230.592 17.7146 224.092 16.2146L226.592 28.2146H233.092C236.092 26.7146 239.092 24.4833 240.092 22.7146Z" fill="#E56E90" stroke="black" stroke-width="0.5"/>
<path d="M97.0938 78.7146H164.094L198.594 77.2146H213.094L213.594 82.7146H199.594H98.5938H87.0938V78.7146H97.0938Z" fill="#E56E90"/>
<path d="M97.0938 78.7146H164.094L198.594 77.2146M97.0938 78.7146C97.0938 80.2146 97.5938 81.2146 98.5938 82.7146M97.0938 78.7146H87.0938V82.7146H98.5938M198.594 77.2146L199.594 82.7146M198.594 77.2146H213.094L213.594 82.7146H199.594M199.594 82.7146H98.5938" stroke="black" stroke-width="0.5"/>
<path d="M97.0929 78.7146C92.5937 74.2146 89.5938 52.2146 93.5929 35.7146L165.594 31.7146C161.594 36.7146 160.594 70.7146 164.094 78.7146H97.0929Z" fill="#E56E90" stroke="black" stroke-width="0.5"/>
<path d="M229.094 30.7146L165.594 31.7146C161.594 36.7146 160.594 70.7146 164.094 78.7146L198.594 77.2146C203.094 75.7146 209.594 70.2146 229.094 30.7146Z" fill="#E56E90" stroke="black" stroke-width="0.5"/>
<path d="M171.094 30.2147C166.594 30.7147 163.094 30.7147 160.094 30.7147L165.594 8.21467C168.594 7.7146 171.594 7.7146 174.594 8.21467L171.094 30.2147Z" fill="#E56E90" stroke="black" stroke-width="0.5"/>
<path d="M99.5938 32.2146C104.094 37.7146 111.094 34.2146 115.094 32.7146C116.094 17.2145 103.094 25.2145 99.5938 32.2146Z" fill="#E56E90" stroke="black" stroke-width="0.5"/>
<path d="M235.092 9.7146L232.092 13.2146C249.092 18.7146 259.592 21.7146 272.092 28.2146H273.592L281.592 26.7146C266.592 20.2146 259.092 17.7146 235.092 9.7146Z" stroke="black" stroke-width="0.5"/>
<path d="M272.092 28.2146C261.592 22.7146 242.592 16.2146 232.092 13.2146L230.092 15.7146L245.092 23.2146C243.592 25.7146 239.592 27.7146 233.592 30.4146C245.592 29.7146 262.592 28.7146 272.092 28.2146Z" stroke="black" stroke-width="0.5"/>
<path d="M277.594 34.5146L283.592 32.2146L273.093 28.2146L229.093 30.7146C221.593 45.7146 206.593 76.2146 198.593 77.2146H213.093C211.593 66.2146 221.093 42.7146 246.094 51.7146C256.594 46.2146 266.594 40.7146 277.594 34.5146Z" stroke="black" stroke-width="0.5"/>
<path d="M278.592 34.2146C266.592 40.7146 256.592 46.2146 246.092 51.7146C250.592 54.7146 261.092 60.7146 260.092 79.7146L285.092 79.2146V77.7146C293.592 76.7146 302.092 80.2146 300.592 66.2146L302.592 56.2146C302.592 54.7146 300.092 50.7146 297.592 50.2146C299.092 47.7146 296.092 38.7146 296.092 38.7146V37.2146L292.092 34.2146L287.092 32.7146L283.592 32.2146L278.592 34.2146Z" stroke="black" stroke-width="0.5"/>
<path d="M296.092 37.2146L296.086 37.1348M296.086 37.1348L295.592 28.7146L281.592 26.7146L273.092 28.2146L283.592 32.2146C293.092 33.2146 292.091 34.7146 296.086 37.1348Z" stroke="black" stroke-width="0.5"/>
<path d="M294.594 36.7148C294.094 34.2147 283.094 34.0146 277.594 34.5146" stroke="black" stroke-width="0.5"/>
<path d="M300.594 66.7146L261.094 68.7146C260.594 63.7146 258.427 59.5479 256.594 57.7146L302.594 55.2146M301.094 52.7146C290.094 51.2146 279.094 46.4146 267.094 40.4146M229.094 30.7146L273.094 28.2146L281.594 26.7146" stroke="black" stroke-width="0.5"/>
<path d="M273.094 43.2146C280.089 43.5644 286.106 43.6695 291.487 44.2146M298.094 45.2146C295.991 44.764 293.798 44.4487 291.487 44.2146M296.094 37.7146C295.676 37.1295 295.207 36.6002 294.703 36.1246M291.487 44.2146C291.161 43.8698 291.067 43.3468 291.052 42.7146M291.052 42.7146C291.038 42.1243 291.094 41.4389 291.094 40.7146C291.094 38.7146 290.094 34.7146 286.594 32.7146C288.815 32.7146 292.191 33.755 294.703 36.1246M291.052 42.7146C294.094 41.2146 295.166 37.6546 294.703 36.1246" stroke="black" stroke-width="0.5"/>
<path d="M291.094 40.7146C286.594 40.7146 284.594 36.7146 283.594 34.2146" stroke="black" stroke-width="0.5"/>
<path d="M133.092 12.8146C119.592 16.8146 107.592 22.7146 93.5923 35.7146C100.592 23.7146 116.092 14.2146 131.592 9.2146L133.092 12.8146Z" fill="#E56E90" stroke="black" stroke-width="0.5"/>
<path d="M131.592 9.2146C111.592 14.8886 93.5923 32.2146 85.5923 30.2146C98.5923 20.7146 114.592 12.2146 131.092 7.7146L131.592 9.2146Z" fill="#E56E90" stroke="black" stroke-width="0.5"/>
<path d="M10.593 48.2145H4.59295C2.09229 52.2145 2.09229 62.2145 2.59295 65.7145C1.09229 66.7145 1.09288 71.2145 2.09295 72.7145L6.09295 73.2145V74.7145L2.09295 76.7145V78.7145C6.09295 79.7145 14.593 81.7145 22.593 81.2145V79.7145H40.0929C39.4263 71.2145 41.0929 60.7145 50.0929 53.7145C47.5929 49.7145 40.5929 45.2145 37.5929 44.7145C27.5929 43.7145 12.593 46.2145 10.593 48.2145Z" fill="#E56E90" stroke="black" stroke-width="0.5"/>
<path d="M93.5938 35.7146C75.7604 36.5479 44.0938 41.4146 33.5938 44.4146L37.5938 44.7146C42.5938 46.2146 48.0938 50.5479 50.0938 53.7146C63.0928 44.2146 88.5928 51.2146 87.0928 78.7146H97.0928C90.0928 67.7146 91.0928 45.7146 93.5938 35.7146Z" fill="#E56E90" stroke="black" stroke-width="0.5"/>
<path d="M10.5918 48.2147H4.5918C37.092 28.7146 59.092 34.7146 85.0918 30.2146L94.092 35.7146C77.092 36.7146 48.0918 40.2146 34.0918 44.4146C26.0918 44.2146 12.0918 46.2146 10.5918 48.2147Z" fill="#E56E90" stroke="black" stroke-width="0.5"/>
<path d="M37.5937 44.7147C30.0937 43.7146 13.0937 45.7146 10.5937 48.2147C9.79374 50.6146 12.9271 53.5479 14.5937 54.7146C24.0938 56.2146 37.5937 50.2146 37.5937 44.7147Z" fill="#E56E90" stroke="black" stroke-width="0.5"/>
<path d="M4.59298 48.2146C11.593 49.2146 5.59298 59.7146 2.59298 64.7146C2.09291 57.7146 2.59277 52.2146 4.59298 48.2146Z" fill="#E56E90" stroke="black" stroke-width="0.5"/>
<path d="M22.5923 84.2146V79.7146H40.0923L40.5923 84.2146H22.5923Z" fill="#E56E90" stroke="black" stroke-width="0.5"/>
<path d="M3.09375 65.7144C4.59375 68.2144 6.59375 71.381 6.09375 73.2144M22.5938 79.7144C12.0938 80.2144 7.59375 76.2144 8.59375 72.7144C9.09375 72.2144 10.5938 70.7144 11.5938 70.7144" stroke="black" stroke-width="0.5"/>
<path d="M32.5938 74.7145C30.0938 70.7145 24.5938 65.7146 21.5938 64.2146C19.8437 63.7145 17.2186 63.8395 14.4685 64.2146C12.8436 65.5479 11.5938 68.7145 12.0938 71.7145C12.0938 72.8811 13.4012 75.2145 16.0938 75.2145C20.5938 75.2145 27.5938 75.7145 32.5938 74.7145Z" fill="#E56E90"/>
<path d="M6.59375 65.7146C8.84369 65.2145 11.7186 64.5896 14.4685 64.2146M14.4685 64.2146C17.2186 63.8395 19.8437 63.7145 21.5938 64.2146C24.5938 65.7146 30.0938 70.7145 32.5938 74.7145C27.5938 75.7145 20.5938 75.2145 16.0938 75.2145C13.4012 75.2145 12.0938 72.8811 12.0938 71.7145C11.5938 68.7145 12.8436 65.5479 14.4685 64.2146Z" stroke="black" stroke-width="0.5"/>
<path d="M12.0938 71.2146C20.0938 69.7146 23.5938 72.3431 26.5938 73.8431M13.5938 74.2146L31.0938 73.7146" stroke="black" stroke-width="0.5"/>
<path d="M22.5918 82.7144H32.0918C34.0918 82.7144 35.5918 80.7144 35.0918 79.7144M38.5918 79.7144V84.2144" stroke="black" stroke-width="0.5"/>
<path d="M22.5937 81.2148C18.0937 81.2148 13.5937 81.7148 2.0937 78.7148V76.7148L6.0937 74.7148V73.2148L2.0937 72.7149C1.59277 71.2146 0.592969 68.2146 2.59296 65.7146C2.09321 57.7146 2.59321 51.2146 4.5937 48.2143C37.0937 28.7147 59.0937 34.7148 85.0937 30.2148C163.094 -24.7853 245.094 12.2146 282.094 26.7148L295.594 28.7146L296.094 35.7146V38.7146C297.592 43.7146 298.927 48.2146 297.594 50.2146C300.094 51.2146 302.594 54.3813 302.594 56.2146L300.594 66.2146C301.046 77.0625 298.638 77.2868 289.306 77.5992C288.315 77.6324 286.246 77.6666 285.094 77.7146V79.2146L260.094 79.6456M22.5937 81.2148V84.2148H40.592L40.0937 79.7148M22.5937 81.2148V79.7148H40.0937M40.0937 79.7148C37.0937 38.2148 90.5937 41.2148 87.0937 80.2148V82.7146H213.594C207.594 39.2146 262.094 39.2146 260.094 79.6456M259.592 79.6456H260.094" stroke="black"/>
</svg>
