<svg width="303" height="96" viewBox="0 0 303 96" fill="none" xmlns="http://www.w3.org/2000/svg">
<circle cx="62.8652" cy="74.0605" r="20.5" fill="#EFC7D3" stroke="black"/>
<circle cx="235.865" cy="74.0605" r="20.5" fill="#EFC7D3" stroke="black"/>
<path d="M132.863 12.5604L131.363 9.0604C171.363 1.06051 192.863 1.56055 231.863 13.0605L228.363 17.5605C208.363 9.56046 190.363 8.56046 174.363 8.06052C171.863 7.56052 167.863 7.56049 165.363 8.0604C155.363 8.06052 143.363 9.56052 132.863 12.5604Z" fill="#E0426F" stroke="black" stroke-width="0.5"/>
<path d="M131.363 9.06059L130.863 7.56059C166.863 -3.43945 199.363 0.560421 234.863 9.56059L231.863 13.0606C191.863 0.560547 165.863 2.06055 131.363 9.06059Z" fill="#E0426F" stroke="black" stroke-width="0.5"/>
<path d="M131.363 9.06066C182.863 -2.43937 211.363 7.56067 231.863 13.0607" stroke="black" stroke-width="0.5"/>
<path d="M170.865 30.0605L174.365 8.06055C207.865 9.06055 219.365 14.5605 223.865 16.0605L226.348 28.0605C199.358 28.0612 181.863 29.5607 170.865 30.0605Z" fill="#E0426F"/>
<path d="M226.865 30.5605L223.865 16.0605C219.365 14.5605 207.865 9.06055 174.365 8.06055L170.865 30.0605C181.865 29.5605 199.365 28.0605 226.365 28.0605" stroke="black" stroke-width="0.5"/>
<path d="M165.365 8.06055C132.365 9.06055 112.365 18.0605 93.3652 35.5605L95.8652 33.5605L159.865 30.5605L165.365 8.06055Z" fill="#E0426F" stroke="black" stroke-width="0.5"/>
<path d="M239.863 22.5605C236.197 19.8939 230.363 17.5605 223.863 16.0605L226.363 28.0605H232.863C235.863 26.5605 238.863 24.3293 239.863 22.5605Z" fill="#E0426F" stroke="black" stroke-width="0.5"/>
<path d="M96.8652 78.5605H163.865L198.365 77.0605H212.865L213.365 82.5605H199.365H98.3652H86.8652V78.5605H96.8652Z" fill="#E0426F"/>
<path d="M96.8652 78.5605H163.865L198.365 77.0605M96.8652 78.5605C96.8652 80.0605 97.3652 81.0605 98.3652 82.5605M96.8652 78.5605H86.8652V82.5605H98.3652M198.365 77.0605L199.365 82.5605M198.365 77.0605H212.865L213.365 82.5605H199.365M199.365 82.5605H98.3652" stroke="black" stroke-width="0.5"/>
<path d="M96.8644 78.5605C92.3652 74.0605 89.3653 52.0605 93.3644 35.5605L165.365 31.5605C161.365 36.5605 160.365 70.5605 163.865 78.5605H96.8644Z" fill="#E0426F" stroke="black" stroke-width="0.5"/>
<path d="M228.865 30.5605L165.365 31.5605C161.365 36.5605 160.365 70.5605 163.865 78.5605L198.365 77.0605C202.865 75.5605 209.365 70.0605 228.865 30.5605Z" fill="#E0426F" stroke="black" stroke-width="0.5"/>
<path d="M170.865 30.0606C166.365 30.5606 162.865 30.5606 159.865 30.5606L165.365 8.06062C168.365 7.56055 171.365 7.56055 174.365 8.06062L170.865 30.0606Z" fill="#E0426F" stroke="black" stroke-width="0.5"/>
<path d="M99.3652 32.0608C103.865 37.5608 110.865 34.0608 114.865 32.5608C115.865 17.0607 102.865 25.0607 99.3652 32.0608Z" fill="#E0426F" stroke="black" stroke-width="0.5"/>
<path d="M234.863 9.56055L231.863 13.0605C248.863 18.5605 259.363 21.5605 271.863 28.0605H273.363L281.363 26.5605C266.363 20.0605 258.863 17.5605 234.863 9.56055Z" fill="#E56E90" stroke="black" stroke-width="0.5"/>
<path d="M271.863 28.0605C261.363 22.5605 242.363 16.0605 231.863 13.0605L229.863 15.5605L244.863 23.0605C243.363 25.5605 239.363 27.5605 233.363 30.2605C245.363 29.5605 262.363 28.5605 271.863 28.0605Z" fill="#E56E90" stroke="black" stroke-width="0.5"/>
<path d="M277.365 34.3605L283.364 32.0605L272.864 28.0605L228.864 30.5605C221.364 45.5605 206.364 76.0605 198.364 77.0605H212.864C211.364 66.0605 220.864 42.5605 245.865 51.5605C256.365 46.0605 266.365 40.5605 277.365 34.3605Z" fill="#E56E90" stroke="black" stroke-width="0.5"/>
<path d="M278.363 34.0606C266.363 40.5606 256.363 46.0606 245.863 51.5606C250.363 54.5605 260.863 60.5605 259.863 79.5605L284.863 79.0605V77.5605C293.363 76.5605 301.863 80.0605 300.363 66.0605L302.363 56.0605C302.363 54.5605 299.863 50.5605 297.363 50.0605C298.863 47.5605 295.863 38.5605 295.863 38.5605V37.0605L291.863 34.0605L286.863 32.5605L283.363 32.0605L278.363 34.0606Z" fill="#E56E90" stroke="black" stroke-width="0.5"/>
<path d="M281.363 26.5605L272.863 28.0605L283.363 32.0605C292.863 33.0605 291.862 34.5605 295.857 36.9807L295.363 28.5605L281.363 26.5605Z" fill="#E56E90"/>
<path d="M295.863 37.0605L295.857 36.9807M295.857 36.9807L295.363 28.5605L281.363 26.5605L272.863 28.0605L283.363 32.0605C292.863 33.0605 291.862 34.5605 295.857 36.9807Z" stroke="black" stroke-width="0.5"/>
<path d="M294.365 36.5607C293.865 34.0606 282.865 33.8606 277.365 34.3606" stroke="black" stroke-width="0.5"/>
<path d="M300.365 66.5605L260.865 68.5605C260.365 63.5605 258.199 59.3939 256.365 57.5605L302.365 55.0605M300.865 52.5605C289.865 51.0605 278.865 46.2605 266.865 40.2605M228.865 30.5605L272.865 28.0605L281.365 26.5605" stroke="black" stroke-width="0.5"/>
<path d="M290.865 40.5605C290.865 38.5605 289.865 34.5605 286.365 32.5605C288.586 32.5605 291.963 33.6009 294.474 35.9705C294.938 37.5005 293.865 41.0605 290.823 42.5605C290.81 41.9703 290.865 41.2848 290.865 40.5605Z" fill="#E56E90"/>
<path d="M272.865 43.0605C279.861 43.4103 285.878 43.5154 291.258 44.0605M297.865 45.0605C295.762 44.6099 293.569 44.2946 291.258 44.0605M295.865 37.5605C295.447 36.9754 294.978 36.4462 294.474 35.9705M291.258 44.0605C290.932 43.7158 290.838 43.1927 290.823 42.5605M290.823 42.5605C290.81 41.9703 290.865 41.2848 290.865 40.5605C290.865 38.5605 289.865 34.5605 286.365 32.5605C288.586 32.5605 291.963 33.6009 294.474 35.9705M290.823 42.5605C293.865 41.0605 294.938 37.5005 294.474 35.9705" stroke="black" stroke-width="0.5"/>
<path d="M290.865 40.5605C286.365 40.5605 284.365 36.5605 283.365 34.0605" stroke="black" stroke-width="0.5"/>
<path d="M132.863 12.6605C119.363 16.6605 107.363 22.5605 93.3633 35.5605C100.363 23.5605 115.863 14.0605 131.363 9.06055L132.863 12.6605Z" fill="#E56E90" stroke="black" stroke-width="0.5"/>
<path d="M131.363 9.06055C111.363 14.7346 93.3633 32.0605 85.3633 30.0605C98.3633 20.5605 114.363 12.0605 130.863 7.56055L131.363 9.06055Z" fill="#E56E90" stroke="black" stroke-width="0.5"/>
<path d="M10.3639 48.0604H4.36395C1.86328 52.0604 1.86328 62.0604 2.36395 65.5604C0.863281 66.5604 0.863879 71.0604 1.86395 72.5604L5.86395 73.0604V74.5604L1.86395 76.5604V78.5604C5.86395 79.5604 14.3639 81.5604 22.3639 81.0604V79.5604H39.8639C39.1973 71.0604 40.8639 60.5604 49.8639 53.5604C47.3639 49.5604 40.3639 45.0604 37.3639 44.5604C27.3639 43.5604 12.3639 46.0604 10.3639 48.0604Z" fill="#E56E90" stroke="black" stroke-width="0.5"/>
<path d="M93.3652 35.5605C75.5319 36.3939 43.8652 41.2605 33.3652 44.2605L37.3652 44.5605C42.3652 46.0605 47.8652 50.3939 49.8652 53.5605C62.8643 44.0605 88.3643 51.0605 86.8643 78.5605H96.8643C89.8643 67.5605 90.8643 45.5605 93.3652 35.5605Z" fill="#E56E90" stroke="black" stroke-width="0.5"/>
<path d="M10.3633 48.0606H4.36328C36.8635 28.5605 58.8635 34.5605 84.8633 30.0605L93.8635 35.5605C76.8635 36.5605 47.8633 40.0605 33.8633 44.2606C25.8633 44.0605 11.8633 46.0605 10.3633 48.0606Z" fill="#E56E90" stroke="black" stroke-width="0.5"/>
<path d="M37.3647 44.5606C29.8647 43.5605 12.8647 45.5605 10.3647 48.0606C9.56474 50.4606 12.6981 53.3939 14.3647 54.5605C23.8647 56.0605 37.3647 50.0605 37.3647 44.5606Z" fill="#E56E90" stroke="black" stroke-width="0.5"/>
<path d="M4.36398 48.0605C11.364 49.0605 5.36398 59.5605 2.36398 64.5605C1.86391 57.5605 2.36377 52.0605 4.36398 48.0605Z" fill="#E56E90" stroke="black" stroke-width="0.5"/>
<path d="M22.3633 84.0605V79.5605H39.8633L40.3633 84.0605H22.3633Z" fill="#E56E90" stroke="black" stroke-width="0.5"/>
<path d="M2.86523 65.5605C4.36523 68.0605 6.36523 71.2272 5.86523 73.0605M22.3652 79.5605C11.8652 80.0605 7.36523 76.0605 8.36523 72.5605C8.86523 72.0605 10.3652 70.5605 11.3652 70.5605" stroke="black" stroke-width="0.5"/>
<path d="M32.3652 74.5607C29.8652 70.5607 24.3652 65.5607 21.3652 64.0607C19.6152 63.5607 16.9901 63.6857 14.24 64.0607C12.6151 65.3941 11.3652 68.5607 11.8652 71.5607C11.8652 72.7273 13.1727 75.0607 15.8652 75.0607C20.3652 75.0607 27.3652 75.5607 32.3652 74.5607Z" fill="#E56E90"/>
<path d="M6.36523 65.5607C8.61518 65.0607 11.4901 64.4357 14.24 64.0607M14.24 64.0607C16.9901 63.6857 19.6152 63.5607 21.3652 64.0607C24.3652 65.5607 29.8652 70.5607 32.3652 74.5607C27.3652 75.5607 20.3652 75.0607 15.8652 75.0607C13.1727 75.0607 11.8652 72.7273 11.8652 71.5607C11.3652 68.5607 12.6151 65.3941 14.24 64.0607Z" stroke="black" stroke-width="0.5"/>
<path d="M11.8652 71.0607C19.8652 69.5608 23.3652 72.1893 26.3652 73.6893M13.3652 74.0608L30.8652 73.5608" stroke="black" stroke-width="0.5"/>
<path d="M22.3633 82.5605H31.8633C33.8633 82.5605 35.3633 80.5605 34.8633 79.5605M38.3633 79.5605V84.0605" stroke="black" stroke-width="0.5"/>
<path d="M22.3652 81.0608C17.8652 81.0608 13.3652 81.5608 1.86518 78.5608V76.5608L5.86518 74.5608V73.0608L1.86518 72.5608C1.36426 71.0605 0.364454 68.0605 2.36445 65.5605C1.86469 57.5605 2.36469 51.0605 4.36518 48.0603C36.8652 28.5607 58.8652 34.5607 84.8652 30.0607C162.865 -24.9394 244.865 12.0605 281.865 26.5607L295.365 28.5605L295.865 35.5605V38.5605C297.364 43.5605 298.699 48.0605 297.365 50.0605C299.865 51.0605 302.365 54.2272 302.365 56.0605L300.365 66.0605C300.817 76.9085 298.409 77.1327 289.077 77.4452C288.086 77.4784 286.017 77.5125 284.865 77.5605V79.0605L259.865 79.4916M22.3652 81.0608V84.0608H40.3635L39.8652 79.5608M22.3652 81.0608V79.5608H39.8652M39.8652 79.5608C36.8652 38.0608 90.3652 41.0608 86.8652 80.0608V82.5605H213.365C207.365 39.0605 261.865 39.0605 259.865 79.4916M259.364 79.4916H259.865" stroke="black"/>
</svg>
