<svg width="303" height="95" viewBox="0 0 303 95" fill="none" xmlns="http://www.w3.org/2000/svg">
<circle cx="62.8955" cy="73.707" r="20.5" fill="#EFC7D3" stroke="black"/>
<circle cx="235.896" cy="73.707" r="20.5" fill="#EFC7D3" stroke="black"/>
<path d="M132.894 12.2069L131.394 8.70689C171.394 0.706999 192.894 1.20703 231.894 12.707L228.394 17.207C208.394 9.20694 190.394 8.20694 174.394 7.70701C171.894 7.20701 167.894 7.20697 165.394 7.70689C155.394 7.70701 143.394 9.20701 132.894 12.2069Z" fill="#E56E90" stroke="black" stroke-width="0.5"/>
<path d="M131.394 8.70708L130.894 7.20708C166.894 -3.79297 199.394 0.206905 234.894 9.20708L231.894 12.7071C191.894 0.207031 165.894 1.70703 131.394 8.70708Z" fill="#E56E90" stroke="black" stroke-width="0.5"/>
<path d="M131.394 8.70714C182.894 -2.79288 211.394 7.20715 231.894 12.7071" stroke="black" stroke-width="0.5"/>
<path d="M170.896 29.707L174.396 7.70703C207.896 8.70703 219.396 14.207 223.896 15.707L226.378 27.707C199.388 27.7077 181.893 29.2071 170.896 29.707Z" fill="#E56E90"/>
<path d="M226.896 30.207L223.896 15.707C219.396 14.207 207.896 8.70703 174.396 7.70703L170.896 29.707C181.896 29.207 199.396 27.707 226.396 27.707" stroke="black" stroke-width="0.5"/>
<path d="M165.396 7.70703C132.396 8.70703 112.396 17.707 93.3955 35.207L95.8955 33.207L159.896 30.207L165.396 7.70703Z" fill="#E56E90" stroke="black" stroke-width="0.5"/>
<path d="M239.894 22.207C236.227 19.5404 230.394 17.207 223.894 15.707L226.394 27.707H232.894C235.894 26.207 238.894 23.9758 239.894 22.207Z" fill="#E56E90" stroke="black" stroke-width="0.5"/>
<path d="M96.8955 78.207H163.896L198.396 76.707H212.896L213.396 82.207H199.396H98.3955H86.8955V78.207H96.8955Z" fill="#E56E90"/>
<path d="M96.8955 78.207H163.896L198.396 76.707M96.8955 78.207C96.8955 79.707 97.3955 80.707 98.3955 82.207M96.8955 78.207H86.8955V82.207H98.3955M198.396 76.707L199.396 82.207M198.396 76.707H212.896L213.396 82.207H199.396M199.396 82.207H98.3955" stroke="black" stroke-width="0.5"/>
<path d="M96.8946 78.207C92.3955 73.707 89.3956 51.707 93.3946 35.207L165.396 31.207C161.396 36.207 160.396 70.207 163.896 78.207H96.8946Z" fill="#E56E90" stroke="black" stroke-width="0.5"/>
<path d="M228.895 30.207L165.395 31.207C161.396 36.207 160.396 70.207 163.895 78.207L198.395 76.707C202.895 75.207 209.395 69.707 228.895 30.207Z" fill="#E56E90" stroke="black" stroke-width="0.5"/>
<path d="M170.896 29.7071C166.396 30.2071 162.896 30.2071 159.896 30.2071L165.396 7.70711C168.396 7.20703 171.396 7.20703 174.396 7.70711L170.896 29.7071Z" fill="#E56E90" stroke="black" stroke-width="0.5"/>
<path d="M99.3955 31.7073C103.896 37.2073 110.896 33.7073 114.896 32.2073C115.896 16.7072 102.896 24.7072 99.3955 31.7073Z" fill="#E56E90" stroke="black" stroke-width="0.5"/>
<path d="M234.894 9.20703L231.894 12.707C248.894 18.207 259.394 21.207 271.894 27.707H273.394L281.394 26.207C266.394 19.707 258.894 17.207 234.894 9.20703Z" stroke="black" stroke-width="0.5"/>
<path d="M271.894 27.707C261.394 22.207 242.394 15.707 231.894 12.707L229.894 15.207L244.894 22.707C243.394 25.207 239.394 27.207 233.394 29.907C245.394 29.207 262.394 28.207 271.894 27.707Z" stroke="black" stroke-width="0.5"/>
<path d="M277.396 34.007L283.394 31.707L272.895 27.707L228.895 30.207C221.395 45.207 206.395 75.707 198.395 76.707H212.895C211.395 65.707 220.895 42.207 245.896 51.207C256.396 45.707 266.396 40.207 277.396 34.007Z" stroke="black" stroke-width="0.5"/>
<path d="M278.394 33.7071C266.394 40.2071 256.394 45.7071 245.894 51.2071C250.394 54.207 260.894 60.207 259.894 79.207L284.894 78.707V77.207C293.394 76.207 301.894 79.707 300.394 65.707L302.394 55.707C302.394 54.207 299.894 50.207 297.394 49.707C298.894 47.207 295.894 38.207 295.894 38.207V36.707L291.894 33.707L286.894 32.207L283.394 31.707L278.394 33.7071Z" stroke="black" stroke-width="0.5"/>
<path d="M295.894 36.707L295.888 36.6272M295.888 36.6272L295.394 28.207L281.394 26.207L272.894 27.707L283.394 31.707C292.894 32.707 291.892 34.207 295.888 36.6272Z" stroke="black" stroke-width="0.5"/>
<path d="M294.396 36.2072C293.896 33.7071 282.896 33.507 277.396 34.007" stroke="black" stroke-width="0.5"/>
<path d="M300.396 66.207L260.896 68.207C260.396 63.207 258.229 59.0404 256.396 57.207L302.396 54.707M300.896 52.207C289.896 50.707 278.896 45.907 266.896 39.907M228.896 30.207L272.896 27.707L281.396 26.207" stroke="black" stroke-width="0.5"/>
<path d="M272.896 42.707C279.891 43.0568 285.908 43.1619 291.289 43.707M297.896 44.707C295.793 44.2564 293.599 43.9411 291.289 43.707M295.896 37.207C295.478 36.6219 295.008 36.0927 294.504 35.617M291.289 43.707C290.962 43.3623 290.868 42.8392 290.854 42.207M290.854 42.207C290.84 41.6168 290.896 40.9313 290.896 40.207C290.896 38.207 289.896 34.207 286.396 32.207C288.616 32.207 291.993 33.2474 294.504 35.617M290.854 42.207C293.896 40.707 294.968 37.147 294.504 35.617" stroke="black" stroke-width="0.5"/>
<path d="M290.896 40.207C286.396 40.207 284.396 36.207 283.396 33.707" stroke="black" stroke-width="0.5"/>
<path d="M132.894 12.307C119.394 16.307 107.394 22.207 93.394 35.207C100.394 23.207 115.894 13.707 131.394 8.70703L132.894 12.307Z" stroke="black" stroke-width="0.5"/>
<path d="M131.394 8.70703C111.394 14.3811 93.394 31.707 85.394 29.707C98.394 20.207 114.394 11.707 130.894 7.20703L131.394 8.70703Z" stroke="black" stroke-width="0.5"/>
<path d="M10.3947 47.7069H4.39471C1.89404 51.7069 1.89404 61.7069 2.39471 65.2069C0.894043 66.2069 0.89464 70.7069 1.89471 72.2069L5.89471 72.7069V74.2069L1.89471 76.2069V78.2069C5.89471 79.2069 14.3947 81.2069 22.3947 80.7069V79.2069H39.8947C39.228 70.7069 40.8947 60.2069 49.8947 53.2069C47.3947 49.2069 40.3947 44.7069 37.3947 44.2069C27.3947 43.2069 12.3947 45.7069 10.3947 47.7069Z" stroke="black" stroke-width="0.5"/>
<path d="M93.3955 35.207C75.5622 36.0404 43.8955 40.907 33.3955 43.907L37.3955 44.207C42.3955 45.707 47.8955 50.0404 49.8955 53.207C62.8945 43.707 88.3945 50.707 86.8945 78.207H96.8945C89.8945 67.207 90.8945 45.207 93.3955 35.207Z" stroke="black" stroke-width="0.5"/>
<path d="M10.3936 47.7071H4.39355C36.8937 28.207 58.8938 34.207 84.8936 29.707L93.8938 35.207C76.8938 36.207 47.8936 39.707 33.8936 43.907C25.8936 43.707 11.8936 45.707 10.3936 47.7071Z" stroke="black" stroke-width="0.5"/>
<path d="M37.3955 44.2071C29.8955 43.207 12.8955 45.207 10.3955 47.7071C9.5955 50.107 12.7288 53.0404 14.3955 54.207C23.8955 55.707 37.3955 49.707 37.3955 44.2071Z" stroke="black" stroke-width="0.5"/>
<path d="M4.39474 47.707C11.3947 48.707 5.39474 59.207 2.39474 64.207C1.89467 57.207 2.39453 51.707 4.39474 47.707Z" stroke="black" stroke-width="0.5"/>
<path d="M22.394 83.707V79.207H39.894L40.394 83.707H22.394Z" stroke="black" stroke-width="0.5"/>
<path d="M2.89551 65.207C4.39551 67.707 6.39551 70.8737 5.89551 72.707M22.3955 79.207C11.8955 79.707 7.39551 75.707 8.39551 72.207C8.89551 71.707 10.3955 70.207 11.3955 70.207" stroke="black" stroke-width="0.5"/>
<path d="M6.39551 65.2072C8.64545 64.7072 11.5204 64.0822 14.2703 63.7072M14.2703 63.7072C17.0204 63.3322 19.6455 63.2072 21.3955 63.7072C24.3955 65.2072 29.8955 70.2072 32.3955 74.2072C27.3955 75.2072 20.3955 74.7072 15.8955 74.7072C13.2029 74.7072 11.8955 72.3738 11.8955 71.2072C11.3955 68.2072 12.6454 65.0405 14.2703 63.7072Z" stroke="black" stroke-width="0.5"/>
<path d="M11.8955 70.7072C19.8955 69.2073 23.3955 71.8358 26.3955 73.3358M13.3955 73.7073L30.8955 73.2073" stroke="black" stroke-width="0.5"/>
<path d="M22.3936 82.207H31.8936C33.8936 82.207 35.3936 80.207 34.8936 79.207M38.3936 79.207V83.707" stroke="black" stroke-width="0.5"/>
<path d="M22.3955 80.7073C17.8955 80.7073 13.3955 81.2073 1.89545 78.2073V76.2073L5.89545 74.2073V72.7073L1.89545 72.2073C1.39453 70.707 0.394727 67.707 2.39472 65.207C1.89497 57.207 2.39497 50.707 4.39545 47.7068C36.8955 28.2072 58.8954 34.2072 84.8954 29.7072C162.895 -25.2929 244.895 11.707 281.895 26.2072L295.395 28.207L295.895 35.207V38.207C297.394 43.207 298.729 47.707 297.395 49.707C299.895 50.707 302.395 53.8737 302.395 55.707L300.395 65.707C300.847 76.5549 298.439 76.7792 289.108 77.0917C288.117 77.1249 286.048 77.159 284.895 77.207V78.707L259.895 79.1381M22.3955 80.7073V83.7073H40.3938L39.8955 79.2073M22.3955 80.7073V79.2073H39.8955M39.8955 79.2073C36.8955 37.7073 90.3954 40.7073 86.8954 79.7073V82.207H213.395C207.395 38.707 261.895 38.707 259.895 79.1381M259.394 79.1381H259.895" stroke="black"/>
</svg>
