<svg width="303" height="96" viewBox="0 0 303 96" fill="none" xmlns="http://www.w3.org/2000/svg">
<circle cx="62.8853" cy="74.0454" r="20.5" fill="#EFC7D3" stroke="black"/>
<circle cx="235.885" cy="74.0454" r="20.5" fill="#EFC7D3" stroke="black"/>
<path d="M132.884 12.5453L131.384 9.04527C171.384 1.04538 192.884 1.54541 231.884 13.0454L228.384 17.5454C208.384 9.54532 190.384 8.54532 174.384 8.04539C171.884 7.54539 167.884 7.54535 165.384 8.04527C155.384 8.04539 143.384 9.54539 132.884 12.5453Z" fill="#E56E90" stroke="black" stroke-width="0.5"/>
<path d="M131.384 9.04545L130.884 7.54545C166.884 -3.45459 199.384 0.545284 234.884 9.54546L231.884 13.0455C191.884 0.54541 165.884 2.04541 131.384 9.04545Z" fill="#E56E90" stroke="black" stroke-width="0.5"/>
<path d="M131.384 9.04552C182.884 -2.4545 211.384 7.54553 231.884 13.0455" stroke="black" stroke-width="0.5"/>
<path d="M170.885 30.0454L174.385 8.04541C207.885 9.04541 219.385 14.5454 223.885 16.0454L226.368 28.0454C199.378 28.046 181.883 29.5455 170.885 30.0454Z" fill="#E56E90"/>
<path d="M226.885 30.5454L223.885 16.0454C219.385 14.5454 207.885 9.04541 174.385 8.04541L170.885 30.0454C181.885 29.5454 199.385 28.0454 226.385 28.0454" stroke="black" stroke-width="0.5"/>
<path d="M165.385 8.04541C132.385 9.04541 112.385 18.0454 93.3853 35.5454L95.8853 33.5454L159.885 30.5454L165.385 8.04541Z" fill="#E56E90" stroke="black" stroke-width="0.5"/>
<path d="M239.884 22.5454C236.217 19.8787 230.384 17.5454 223.884 16.0454L226.384 28.0454H232.884C235.884 26.5454 238.884 24.3141 239.884 22.5454Z" fill="#E56E90" stroke="black" stroke-width="0.5"/>
<path d="M96.8853 78.5454H163.885L198.385 77.0454H212.885L213.385 82.5454H199.385H98.3853H86.8853V78.5454H96.8853Z" fill="#E56E90"/>
<path d="M96.8853 78.5454H163.885L198.385 77.0454M96.8853 78.5454C96.8853 80.0454 97.3853 81.0454 98.3853 82.5454M96.8853 78.5454H86.8853V82.5454H98.3853M198.385 77.0454L199.385 82.5454M198.385 77.0454H212.885L213.385 82.5454H199.385M199.385 82.5454H98.3853" stroke="black" stroke-width="0.5"/>
<path d="M96.8844 78.5454C92.3852 74.0454 89.3853 52.0454 93.3844 35.5454L165.385 31.5454C161.385 36.5454 160.385 70.5454 163.885 78.5454H96.8844Z" fill="#E56E90" stroke="black" stroke-width="0.5"/>
<path d="M228.885 30.5454L165.385 31.5454C161.385 36.5454 160.385 70.5454 163.885 78.5454L198.385 77.0454C202.885 75.5454 209.385 70.0454 228.885 30.5454Z" fill="#E56E90" stroke="black" stroke-width="0.5"/>
<path d="M170.885 30.0455C166.385 30.5455 162.885 30.5455 159.885 30.5455L165.385 8.04548C168.385 7.54541 171.385 7.54541 174.385 8.04548L170.885 30.0455Z" fill="#E56E90" stroke="black" stroke-width="0.5"/>
<path d="M99.3853 32.0457C103.885 37.5457 110.885 34.0457 114.885 32.5457C115.885 17.0455 102.885 25.0455 99.3853 32.0457Z" fill="#E56E90" stroke="black" stroke-width="0.5"/>
<path d="M234.884 9.54541L231.884 13.0454C248.884 18.5454 259.384 21.5454 271.884 28.0454H273.384L281.384 26.5454C266.384 20.0454 258.884 17.5454 234.884 9.54541Z" fill="#EFC7D3" stroke="black" stroke-width="0.5"/>
<path d="M271.884 28.0454C261.384 22.5454 242.384 16.0454 231.884 13.0454L229.884 15.5454L244.884 23.0454C243.384 25.5454 239.384 27.5454 233.384 30.2454C245.384 29.5454 262.384 28.5454 271.884 28.0454Z" fill="#EFC7D3" stroke="black" stroke-width="0.5"/>
<path d="M277.385 34.3454L283.384 32.0454L272.884 28.0454L228.884 30.5454C221.384 45.5454 206.384 76.0454 198.384 77.0454H212.884C211.384 66.0454 220.884 42.5454 245.885 51.5454C256.385 46.0454 266.385 40.5454 277.385 34.3454Z" fill="#EFC7D3" stroke="black" stroke-width="0.5"/>
<path d="M278.384 34.0454C266.384 40.5454 256.384 46.0454 245.884 51.5454C250.384 54.5454 260.884 60.5454 259.884 79.5454L284.884 79.0454V77.5454C293.384 76.5454 301.884 80.0454 300.384 66.0454L302.384 56.0454C302.384 54.5454 299.884 50.5454 297.384 50.0454C298.884 47.5454 295.884 38.5454 295.884 38.5454V37.0454L291.884 34.0454L286.884 32.5454L283.384 32.0454L278.384 34.0454Z" fill="#EFC7D3" stroke="black" stroke-width="0.5"/>
<path d="M281.384 26.5454L272.884 28.0454L283.384 32.0454C292.884 33.0454 291.883 34.5454 295.878 36.9656L295.384 28.5454L281.384 26.5454Z" fill="#EFC7D3"/>
<path d="M295.884 37.0454L295.878 36.9656M295.878 36.9656L295.384 28.5454L281.384 26.5454L272.884 28.0454L283.384 32.0454C292.884 33.0454 291.883 34.5454 295.878 36.9656Z" stroke="black" stroke-width="0.5"/>
<path d="M294.385 36.5456C293.885 34.0455 282.885 33.8454 277.385 34.3454" stroke="black" stroke-width="0.5"/>
<path d="M300.385 66.5454L260.885 68.5454C260.385 63.5454 258.219 59.3787 256.385 57.5454L302.385 55.0454M300.885 52.5454C289.885 51.0454 278.885 46.2454 266.885 40.2454M228.885 30.5454L272.885 28.0454L281.385 26.5454" stroke="black" stroke-width="0.5"/>
<path d="M290.885 40.5454C290.885 38.5454 289.885 34.5454 286.385 32.5454C288.606 32.5454 291.983 33.5858 294.494 35.9554C294.958 37.4854 293.885 41.0454 290.843 42.5454C290.83 41.9551 290.885 41.2697 290.885 40.5454Z" fill="#EFC7D3"/>
<path d="M272.885 43.0454C279.881 43.3952 285.898 43.5003 291.278 44.0454M297.885 45.0454C295.782 44.5948 293.589 44.2795 291.278 44.0454M295.885 37.5454C295.467 36.9603 294.998 36.4311 294.494 35.9554M291.278 44.0454C290.952 43.7006 290.858 43.1776 290.843 42.5454M290.843 42.5454C290.83 41.9551 290.885 41.2697 290.885 40.5454C290.885 38.5454 289.885 34.5454 286.385 32.5454C288.606 32.5454 291.983 33.5858 294.494 35.9554M290.843 42.5454C293.885 41.0454 294.958 37.4854 294.494 35.9554" stroke="black" stroke-width="0.5"/>
<path d="M290.885 40.5454C286.385 40.5454 284.385 36.5454 283.385 34.0454" stroke="black" stroke-width="0.5"/>
<path d="M132.884 12.6454C119.384 16.6454 107.384 22.5454 93.3838 35.5454C100.384 23.5454 115.884 14.0454 131.384 9.04541L132.884 12.6454Z" fill="#EDADBF" stroke="black" stroke-width="0.5"/>
<path d="M131.384 9.04541C111.384 14.7194 93.3838 32.0454 85.3838 30.0454C98.3838 20.5454 114.384 12.0454 130.884 7.54541L131.384 9.04541Z" fill="#EDADBF" stroke="black" stroke-width="0.5"/>
<path d="M10.3845 48.0453H4.38446C1.88379 52.0453 1.88379 62.0453 2.38446 65.5453C0.883789 66.5453 0.884387 71.0453 1.88446 72.5453L5.88446 73.0453V74.5453L1.88446 76.5453V78.5453C5.88446 79.5453 14.3845 81.5453 22.3845 81.0453V79.5453H39.8845C39.2178 71.0453 40.8845 60.5453 49.8845 53.5453C47.3845 49.5453 40.3845 45.0453 37.3845 44.5453C27.3845 43.5453 12.3845 46.0453 10.3845 48.0453Z" fill="#EDADBF" stroke="black" stroke-width="0.5"/>
<path d="M93.3853 35.5454C75.5519 36.3787 43.8853 41.2454 33.3853 44.2454L37.3853 44.5454C42.3853 46.0454 47.8853 50.3787 49.8853 53.5454C62.8843 44.0454 88.3843 51.0454 86.8843 78.5454H96.8843C89.8843 67.5454 90.8843 45.5454 93.3853 35.5454Z" fill="#EDADBF" stroke="black" stroke-width="0.5"/>
<path d="M10.3838 48.0455H4.38379C36.884 28.5454 58.884 34.5454 84.8838 30.0454L93.884 35.5454C76.884 36.5454 47.8838 40.0454 33.8838 44.2454C25.8838 44.0454 11.8838 46.0454 10.3838 48.0455Z" fill="#EDADBF" stroke="black" stroke-width="0.5"/>
<path d="M37.3852 44.5455C29.8852 43.5454 12.8852 45.5454 10.3852 48.0455C9.58524 50.4454 12.7186 53.3787 14.3852 54.5454C23.8853 56.0454 37.3852 50.0454 37.3852 44.5455Z" fill="#EDADBF" stroke="black" stroke-width="0.5"/>
<path d="M4.38448 48.0454C11.3845 49.0454 5.38448 59.5454 2.38448 64.5454C1.88441 57.5454 2.38428 52.0454 4.38448 48.0454Z" fill="#EDADBF" stroke="black" stroke-width="0.5"/>
<path d="M22.3838 84.0454V79.5454H39.8838L40.3838 84.0454H22.3838Z" fill="#EDADBF" stroke="black" stroke-width="0.5"/>
<path d="M2.88574 65.5454C4.38574 68.0454 6.38574 71.2121 5.88574 73.0454M22.3857 79.5454C11.8857 80.0454 7.38574 76.0454 8.38574 72.5454C8.88574 72.0454 10.3857 70.5454 11.3857 70.5454" stroke="black" stroke-width="0.5"/>
<path d="M32.3857 74.5455C29.8857 70.5455 24.3857 65.5456 21.3857 64.0456C19.6357 63.5456 17.0106 63.6706 14.2605 64.0456C12.6356 65.3789 11.3857 68.5455 11.8857 71.5455C11.8857 72.7122 13.1932 75.0455 15.8857 75.0455C20.3857 75.0455 27.3857 75.5455 32.3857 74.5455Z" fill="#EDADBF"/>
<path d="M6.38574 65.5456C8.63568 65.0456 11.5106 64.4206 14.2605 64.0456M14.2605 64.0456C17.0106 63.6706 19.6357 63.5456 21.3857 64.0456C24.3857 65.5456 29.8857 70.5455 32.3857 74.5455C27.3857 75.5455 20.3857 75.0455 15.8857 75.0455C13.1932 75.0455 11.8857 72.7122 11.8857 71.5455C11.3857 68.5455 12.6356 65.3789 14.2605 64.0456Z" stroke="black" stroke-width="0.5"/>
<path d="M11.8857 71.0456C19.8857 69.5457 23.3857 72.1741 26.3857 73.6741M13.3857 74.0457L30.8857 73.5457" stroke="black" stroke-width="0.5"/>
<path d="M22.3838 82.5454H31.8838C33.8838 82.5454 35.3838 80.5454 34.8838 79.5454M38.3838 79.5454V84.0454" stroke="black" stroke-width="0.5"/>
<path d="M22.3852 81.0457C17.8852 81.0457 13.3852 81.5457 1.8852 78.5457V76.5457L5.8852 74.5456V73.0457L1.8852 72.5457C1.38428 71.0454 0.384473 68.0454 2.38447 65.5454C1.88471 57.5454 2.38471 51.0454 4.3852 48.0452C36.8852 28.5455 58.8852 34.5456 84.8852 30.0456C162.885 -24.9545 244.885 12.0454 281.885 26.5456L295.385 28.5454L295.885 35.5454V38.5454C297.384 43.5454 298.719 48.0454 297.385 50.0454C299.885 51.0454 302.385 54.2121 302.385 56.0454L300.385 66.0454C300.837 76.8933 298.429 77.1176 289.098 77.43C288.106 77.4632 286.037 77.4974 284.885 77.5454V79.0454L259.885 79.4764M22.3852 81.0457V84.0457H40.3835L39.8852 79.5457M22.3852 81.0457V79.5457H39.8852M39.8852 79.5457C36.8852 38.0457 90.3852 41.0457 86.8852 80.0457V82.5454H213.385C207.385 39.0454 261.885 39.0454 259.885 79.4764M259.384 79.4764H259.885" stroke="black"/>
</svg>
