<svg width="303" height="96" viewBox="0 0 303 96" fill="none" xmlns="http://www.w3.org/2000/svg">
<circle cx="62.249" cy="74.0605" r="20.5" fill="#E56E90" stroke="black"/>
<circle cx="235.249" cy="74.0605" r="20.5" fill="#E56E90" stroke="black"/>
<path d="M132.247 12.5604L130.747 9.0604C170.747 1.06051 192.247 1.56055 231.247 13.0605L227.747 17.5605C207.747 9.56046 189.747 8.56046 173.747 8.06052C171.247 7.56052 167.247 7.56049 164.747 8.0604C154.747 8.06052 142.747 9.56052 132.247 12.5604Z" fill="#E0426F" stroke="black" stroke-width="0.5"/>
<path d="M130.747 9.06059L130.247 7.56059C166.247 -3.43945 198.747 0.560421 234.247 9.56059L231.247 13.0606C191.247 0.560547 165.247 2.06055 130.747 9.06059Z" fill="#E0426F" stroke="black" stroke-width="0.5"/>
<path d="M130.747 9.06066C182.247 -2.43937 210.747 7.56067 231.247 13.0607" stroke="black" stroke-width="0.5"/>
<path d="M170.249 30.0605L173.749 8.06055C207.249 9.06055 218.749 14.5605 223.249 16.0605L225.732 28.0605C198.742 28.0612 181.247 29.5607 170.249 30.0605Z" fill="#E0426F"/>
<path d="M226.249 30.5605L223.249 16.0605C218.749 14.5605 207.249 9.06055 173.749 8.06055L170.249 30.0605C181.249 29.5605 198.749 28.0605 225.749 28.0605" stroke="black" stroke-width="0.5"/>
<path d="M164.749 8.06055C131.749 9.06055 111.749 18.0605 92.749 35.5605L95.249 33.5605L159.249 30.5605L164.749 8.06055Z" fill="#E0426F" stroke="black" stroke-width="0.5"/>
<path d="M239.247 22.5605C235.58 19.8939 229.747 17.5605 223.247 16.0605L225.747 28.0605H232.247C235.247 26.5605 238.247 24.3293 239.247 22.5605Z" fill="#E0426F" stroke="black" stroke-width="0.5"/>
<path d="M96.249 78.5605H163.249L197.749 77.0605H212.249L212.749 82.5605H198.749H97.749H86.249V78.5605H96.249Z" fill="#E0426F"/>
<path d="M96.249 78.5605H163.249L197.749 77.0605M96.249 78.5605C96.249 80.0605 96.749 81.0605 97.749 82.5605M96.249 78.5605H86.249V82.5605H97.749M197.749 77.0605L198.749 82.5605M197.749 77.0605H212.249L212.749 82.5605H198.749M198.749 82.5605H97.749" stroke="black" stroke-width="0.5"/>
<path d="M96.2482 78.5605C91.749 74.0605 88.7491 52.0605 92.7482 35.5605L164.749 31.5605C160.749 36.5605 159.749 70.5605 163.249 78.5605H96.2482Z" fill="#E0426F" stroke="black" stroke-width="0.5"/>
<path d="M228.249 30.5605L164.749 31.5605C160.749 36.5605 159.749 70.5605 163.249 78.5605L197.749 77.0605C202.249 75.5605 208.749 70.0605 228.249 30.5605Z" fill="#E0426F" stroke="black" stroke-width="0.5"/>
<path d="M170.249 30.0606C165.749 30.5606 162.249 30.5606 159.249 30.5606L164.749 8.06062C167.749 7.56055 170.749 7.56055 173.749 8.06062L170.249 30.0606Z" fill="#E0426F" stroke="black" stroke-width="0.5"/>
<path d="M98.749 32.0608C103.249 37.5608 110.249 34.0608 114.249 32.5608C115.249 17.0607 102.249 25.0607 98.749 32.0608Z" fill="#E0426F" stroke="black" stroke-width="0.5"/>
<path d="M234.247 9.56055L231.247 13.0605C248.247 18.5605 258.747 21.5605 271.247 28.0605H272.747L280.747 26.5605C265.747 20.0605 258.247 17.5605 234.247 9.56055Z" fill="#E0426F" stroke="black" stroke-width="0.5"/>
<path d="M271.247 28.0605C260.747 22.5605 241.747 16.0605 231.247 13.0605L229.247 15.5605L244.247 23.0605C242.747 25.5605 238.747 27.5605 232.747 30.2605C244.747 29.5605 261.747 28.5605 271.247 28.0605Z" fill="#E0426F" stroke="black" stroke-width="0.5"/>
<path d="M276.749 34.3605L282.747 32.0605L272.248 28.0605L228.248 30.5605C220.748 45.5605 205.748 76.0605 197.748 77.0605H212.248C210.748 66.0605 220.248 42.5605 245.249 51.5605C255.749 46.0605 265.749 40.5605 276.749 34.3605Z" fill="#E0426F" stroke="black" stroke-width="0.5"/>
<path d="M277.747 34.0606C265.747 40.5606 255.747 46.0606 245.247 51.5606C249.747 54.5605 260.247 60.5605 259.247 79.5605L284.247 79.0605V77.5605C292.747 76.5605 301.247 80.0605 299.747 66.0605L301.747 56.0605C301.747 54.5605 299.247 50.5605 296.747 50.0605C298.247 47.5605 295.247 38.5605 295.247 38.5605V37.0605L291.247 34.0605L286.247 32.5605L282.747 32.0605L277.747 34.0606Z" fill="#E0426F" stroke="black" stroke-width="0.5"/>
<path d="M280.747 26.5605L272.247 28.0605L282.747 32.0605C292.247 33.0605 291.246 34.5605 295.241 36.9807L294.747 28.5605L280.747 26.5605Z" fill="#E0426F"/>
<path d="M295.247 37.0605L295.241 36.9807M295.241 36.9807L294.747 28.5605L280.747 26.5605L272.247 28.0605L282.747 32.0605C292.247 33.0605 291.246 34.5605 295.241 36.9807Z" stroke="black" stroke-width="0.5"/>
<path d="M293.749 36.5607C293.249 34.0606 282.249 33.8606 276.749 34.3606" stroke="black" stroke-width="0.5"/>
<path d="M299.749 66.5605L260.249 68.5605C259.749 63.5605 257.582 59.3939 255.749 57.5605L301.749 55.0605M300.249 52.5605C289.249 51.0605 278.249 46.2605 266.249 40.2605M228.249 30.5605L272.249 28.0605L280.749 26.5605" stroke="black" stroke-width="0.5"/>
<path d="M290.249 40.5605C290.249 38.5605 289.249 34.5605 285.749 32.5605C287.97 32.5605 291.347 33.6009 293.858 35.9705C294.322 37.5005 293.249 41.0605 290.207 42.5605C290.194 41.9703 290.249 41.2848 290.249 40.5605Z" fill="#E0426F"/>
<path d="M272.249 43.0605C279.245 43.4103 285.262 43.5154 290.642 44.0605M297.249 45.0605C295.146 44.6099 292.953 44.2946 290.642 44.0605M295.249 37.5605C294.831 36.9754 294.362 36.4462 293.858 35.9705M290.642 44.0605C290.316 43.7158 290.222 43.1927 290.207 42.5605M290.207 42.5605C290.194 41.9703 290.249 41.2848 290.249 40.5605C290.249 38.5605 289.249 34.5605 285.749 32.5605C287.97 32.5605 291.347 33.6009 293.858 35.9705M290.207 42.5605C293.249 41.0605 294.322 37.5005 293.858 35.9705" stroke="black" stroke-width="0.5"/>
<path d="M290.249 40.5605C285.749 40.5605 283.749 36.5605 282.749 34.0605" stroke="black" stroke-width="0.5"/>
<path d="M132.247 12.6605C118.747 16.6605 106.747 22.5605 92.7471 35.5605C99.7471 23.5605 115.247 14.0605 130.747 9.06055L132.247 12.6605Z" fill="#E56E90" stroke="black" stroke-width="0.5"/>
<path d="M130.747 9.06055C110.747 14.7346 92.7471 32.0605 84.7471 30.0605C97.7471 20.5605 113.747 12.0605 130.247 7.56055L130.747 9.06055Z" fill="#E56E90" stroke="black" stroke-width="0.5"/>
<path d="M9.74774 48.0604H3.74774C1.24707 52.0604 1.24707 62.0604 1.74774 65.5604C0.24707 66.5604 0.247668 71.0604 1.24774 72.5604L5.24774 73.0604V74.5604L1.24774 76.5604V78.5604C5.24774 79.5604 13.7477 81.5604 21.7477 81.0604V79.5604H39.2477C38.5811 71.0604 40.2477 60.5604 49.2477 53.5604C46.7477 49.5604 39.7477 45.0604 36.7477 44.5604C26.7477 43.5604 11.7477 46.0604 9.74774 48.0604Z" fill="#E56E90" stroke="black" stroke-width="0.5"/>
<path d="M92.749 35.5605C74.9157 36.3939 43.249 41.2605 32.749 44.2605L36.749 44.5605C41.749 46.0605 47.249 50.3939 49.249 53.5605C62.248 44.0605 87.748 51.0605 86.248 78.5605H96.248C89.248 67.5605 90.248 45.5605 92.749 35.5605Z" fill="#E56E90" stroke="black" stroke-width="0.5"/>
<path d="M9.74707 48.0606H3.74707C36.2473 28.5605 58.2473 34.5605 84.2471 30.0605L93.2473 35.5605C76.2473 36.5605 47.2471 40.0605 33.2471 44.2606C25.2471 44.0605 11.2471 46.0605 9.74707 48.0606Z" fill="#E56E90" stroke="black" stroke-width="0.5"/>
<path d="M36.7485 44.5606C29.2485 43.5605 12.2485 45.5605 9.74852 48.0606C8.94852 50.4606 12.0819 53.3939 13.7485 54.5605C23.2485 56.0605 36.7485 50.0605 36.7485 44.5606Z" fill="#E56E90" stroke="black" stroke-width="0.5"/>
<path d="M3.74777 48.0605C10.7478 49.0605 4.74777 59.5605 1.74777 64.5605C1.2477 57.5605 1.74756 52.0605 3.74777 48.0605Z" fill="#E56E90" stroke="black" stroke-width="0.5"/>
<path d="M21.7471 84.0605V79.5605H39.2471L39.7471 84.0605H21.7471Z" fill="#E56E90" stroke="black" stroke-width="0.5"/>
<path d="M2.24902 65.5605C3.74902 68.0605 5.74902 71.2272 5.24902 73.0605M21.749 79.5605C11.249 80.0605 6.74902 76.0605 7.74902 72.5605C8.24902 72.0605 9.74902 70.5605 10.749 70.5605" stroke="black" stroke-width="0.5"/>
<path d="M31.749 74.5607C29.249 70.5607 23.749 65.5607 20.749 64.0607C18.999 63.5607 16.3739 63.6857 13.6238 64.0607C11.9989 65.3941 10.749 68.5607 11.249 71.5607C11.249 72.7273 12.5564 75.0607 15.249 75.0607C19.749 75.0607 26.749 75.5607 31.749 74.5607Z" fill="#E56E90"/>
<path d="M5.74902 65.5607C7.99897 65.0607 10.8739 64.4357 13.6238 64.0607M13.6238 64.0607C16.3739 63.6857 18.999 63.5607 20.749 64.0607C23.749 65.5607 29.249 70.5607 31.749 74.5607C26.749 75.5607 19.749 75.0607 15.249 75.0607C12.5564 75.0607 11.249 72.7273 11.249 71.5607C10.749 68.5607 11.9989 65.3941 13.6238 64.0607Z" stroke="black" stroke-width="0.5"/>
<path d="M11.249 71.0607C19.249 69.5608 22.749 72.1893 25.749 73.6893M12.749 74.0608L30.249 73.5608" stroke="black" stroke-width="0.5"/>
<path d="M21.7471 82.5605H31.2471C33.2471 82.5605 34.7471 80.5605 34.2471 79.5605M37.7471 79.5605V84.0605" stroke="black" stroke-width="0.5"/>
<path d="M21.749 81.0608C17.249 81.0608 12.749 81.5608 1.24897 78.5608V76.5608L5.24897 74.5608V73.0608L1.24897 72.5608C0.748047 71.0605 -0.251757 68.0605 1.74824 65.5605C1.24848 57.5605 1.74848 51.0605 3.74897 48.0603C36.249 28.5607 58.249 34.5607 84.249 30.0607C162.249 -24.9394 244.249 12.0605 281.249 26.5607L294.749 28.5605L295.249 35.5605V38.5605C296.747 43.5605 298.082 48.0605 296.749 50.0605C299.249 51.0605 301.749 54.2272 301.749 56.0605L299.749 66.0605C300.201 76.9085 297.793 77.1327 288.461 77.4452C287.47 77.4784 285.401 77.5125 284.249 77.5605V79.0605L259.249 79.4916M21.749 81.0608V84.0608H39.7473L39.249 79.5608M21.749 81.0608V79.5608H39.249M39.249 79.5608C36.249 38.0608 89.749 41.0608 86.249 80.0608V82.5605H212.749C206.749 39.0605 261.249 39.0605 259.249 79.4916M258.747 79.4916H259.249" stroke="black"/>
</svg>
