<svg width="303" height="95" viewBox="0 0 303 95" fill="none" xmlns="http://www.w3.org/2000/svg">
<circle cx="62.8652" cy="73.6919" r="20.5" fill="#EFC7D3" stroke="black"/>
<circle cx="235.865" cy="73.6919" r="20.5" fill="#EFC7D3" stroke="black"/>
<path d="M132.863 12.1918L131.363 8.69175C171.363 0.691862 192.863 1.19189 231.863 12.6918L228.363 17.1918C208.363 9.1918 190.363 8.1918 174.363 7.69187C171.863 7.19187 167.863 7.19183 165.363 7.69175C155.363 7.69187 143.363 9.19187 132.863 12.1918Z" fill="#EFC7D3" stroke="black" stroke-width="0.5"/>
<path d="M131.363 8.69194L130.863 7.19194C166.863 -3.80811 199.363 0.191769 234.863 9.19194L231.863 12.6919C191.863 0.191895 165.863 1.69189 131.363 8.69194Z" fill="#EFC7D3" stroke="black" stroke-width="0.5"/>
<path d="M131.363 8.692C182.863 -2.80802 211.363 7.19202 231.863 12.692" stroke="black" stroke-width="0.5"/>
<path d="M170.865 29.6919L174.365 7.69189C207.865 8.69189 219.365 14.1919 223.865 15.6919L226.348 27.6919C199.358 27.6925 181.863 29.192 170.865 29.6919Z" fill="#EFC7D3"/>
<path d="M226.865 30.1919L223.865 15.6919C219.365 14.1919 207.865 8.69189 174.365 7.69189L170.865 29.6919C181.865 29.1919 199.365 27.6919 226.365 27.6919" stroke="black" stroke-width="0.5"/>
<path d="M165.365 7.69189C132.365 8.69189 112.365 17.6919 93.3652 35.1919L95.8652 33.1919L159.865 30.1919L165.365 7.69189Z" fill="#EFC7D3" stroke="black" stroke-width="0.5"/>
<path d="M239.863 22.1919C236.197 19.5252 230.363 17.1919 223.863 15.6919L226.363 27.6919H232.863C235.863 26.1919 238.863 23.9606 239.863 22.1919Z" fill="#EFC7D3" stroke="black" stroke-width="0.5"/>
<path d="M96.8652 78.1919H163.865L198.365 76.6919H212.865L213.365 82.1919H199.365H98.3652H86.8652V78.1919H96.8652Z" fill="#EFC7D3"/>
<path d="M96.8652 78.1919H163.865L198.365 76.6919M96.8652 78.1919C96.8652 79.6919 97.3652 80.6919 98.3652 82.1919M96.8652 78.1919H86.8652V82.1919H98.3652M198.365 76.6919L199.365 82.1919M198.365 76.6919H212.865L213.365 82.1919H199.365M199.365 82.1919H98.3652" stroke="black" stroke-width="0.5"/>
<path d="M96.8644 78.1919C92.3652 73.6919 89.3653 51.6919 93.3644 35.1919L165.365 31.1919C161.365 36.1919 160.365 70.1919 163.865 78.1919H96.8644Z" fill="#EFC7D3" stroke="black" stroke-width="0.5"/>
<path d="M228.865 30.1919L165.365 31.1919C161.365 36.1919 160.365 70.1919 163.865 78.1919L198.365 76.6919C202.865 75.1919 209.365 69.6919 228.865 30.1919Z" fill="#EFC7D3" stroke="black" stroke-width="0.5"/>
<path d="M170.865 29.692C166.365 30.192 162.865 30.192 159.865 30.192L165.365 7.69197C168.365 7.19189 171.365 7.19189 174.365 7.69197L170.865 29.692Z" fill="#EFC7D3" stroke="black" stroke-width="0.5"/>
<path d="M99.3652 31.6922C103.865 37.1922 110.865 33.6922 114.865 32.1922C115.865 16.692 102.865 24.692 99.3652 31.6922Z" fill="#EFC7D3" stroke="black" stroke-width="0.5"/>
<path d="M234.863 9.19189L231.863 12.6919C248.863 18.1919 259.363 21.1919 271.863 27.6919H273.363L281.363 26.1919C266.363 19.6919 258.863 17.1919 234.863 9.19189Z" fill="#E56E90" stroke="black" stroke-width="0.5"/>
<path d="M271.863 27.6919C261.363 22.1919 242.363 15.6919 231.863 12.6919L229.863 15.1919L244.863 22.6919C243.363 25.1919 239.363 27.1919 233.363 29.8919C245.363 29.1919 262.363 28.1919 271.863 27.6919Z" fill="#E56E90" stroke="black" stroke-width="0.5"/>
<path d="M277.365 33.9919L283.364 31.6919L272.864 27.6919L228.864 30.1919C221.364 45.1919 206.364 75.6919 198.364 76.6919H212.864C211.364 65.6919 220.864 42.1919 245.865 51.1919C256.365 45.6919 266.365 40.1919 277.365 33.9919Z" fill="#E56E90" stroke="black" stroke-width="0.5"/>
<path d="M278.363 33.6919C266.363 40.1919 256.363 45.6919 245.863 51.1919C250.363 54.1919 260.863 60.1919 259.863 79.1919L284.863 78.6919V77.1919C293.363 76.1919 301.863 79.6919 300.363 65.6919L302.363 55.6919C302.363 54.1919 299.863 50.1919 297.363 49.6919C298.863 47.1919 295.863 38.1919 295.863 38.1919V36.6919L291.863 33.6919L286.863 32.1919L283.363 31.6919L278.363 33.6919Z" fill="#E56E90" stroke="black" stroke-width="0.5"/>
<path d="M281.363 26.1919L272.863 27.6919L283.363 31.6919C292.863 32.6919 291.862 34.1919 295.857 36.6121L295.363 28.1919L281.363 26.1919Z" fill="#E56E90"/>
<path d="M295.863 36.6919L295.857 36.6121M295.857 36.6121L295.363 28.1919L281.363 26.1919L272.863 27.6919L283.363 31.6919C292.863 32.6919 291.862 34.1919 295.857 36.6121Z" stroke="black" stroke-width="0.5"/>
<path d="M294.365 36.1921C293.865 33.692 282.865 33.4919 277.365 33.9919" stroke="black" stroke-width="0.5"/>
<path d="M300.365 66.1919L260.865 68.1919C260.365 63.1919 258.199 59.0252 256.365 57.1919L302.365 54.6919M300.865 52.1919C289.865 50.6919 278.865 45.8919 266.865 39.8919M228.865 30.1919L272.865 27.6919L281.365 26.1919" stroke="black" stroke-width="0.5"/>
<path d="M290.865 40.1919C290.865 38.1919 289.865 34.1919 286.365 32.1919C288.586 32.1919 291.963 33.2323 294.474 35.6019C294.938 37.1319 293.865 40.6919 290.823 42.1919C290.81 41.6016 290.865 40.9162 290.865 40.1919Z" fill="#E56E90"/>
<path d="M272.865 42.6919C279.861 43.0417 285.878 43.1468 291.258 43.6919M297.865 44.6919C295.762 44.2413 293.569 43.926 291.258 43.6919M295.865 37.1919C295.447 36.6068 294.978 36.0775 294.474 35.6019M291.258 43.6919C290.932 43.3471 290.838 42.8241 290.823 42.1919M290.823 42.1919C290.81 41.6016 290.865 40.9162 290.865 40.1919C290.865 38.1919 289.865 34.1919 286.365 32.1919C288.586 32.1919 291.963 33.2323 294.474 35.6019M290.823 42.1919C293.865 40.6919 294.938 37.1319 294.474 35.6019" stroke="black" stroke-width="0.5"/>
<path d="M290.865 40.1919C286.365 40.1919 284.365 36.1919 283.365 33.6919" stroke="black" stroke-width="0.5"/>
<path d="M132.863 12.2919C119.363 16.2919 107.363 22.1919 93.3633 35.1919C100.363 23.1919 115.863 13.6919 131.363 8.69189L132.863 12.2919Z" fill="#E0426F" stroke="black" stroke-width="0.5"/>
<path d="M131.363 8.69189C111.363 14.3659 93.3633 31.6919 85.3633 29.6919C98.3633 20.1919 114.363 11.6919 130.863 7.19189L131.363 8.69189Z" fill="#E0426F" stroke="black" stroke-width="0.5"/>
<path d="M10.3639 47.6918H4.36395C1.86328 51.6918 1.86328 61.6918 2.36395 65.1918C0.863281 66.1918 0.863879 70.6918 1.86395 72.1918L5.86395 72.6918V74.1918L1.86395 76.1918V78.1918C5.86395 79.1918 14.3639 81.1918 22.3639 80.6918V79.1918H39.8639C39.1973 70.6918 40.8639 60.1918 49.8639 53.1918C47.3639 49.1918 40.3639 44.6918 37.3639 44.1918C27.3639 43.1918 12.3639 45.6918 10.3639 47.6918Z" fill="#E0426F" stroke="black" stroke-width="0.5"/>
<path d="M93.3652 35.1919C75.5319 36.0252 43.8652 40.8919 33.3652 43.8919L37.3652 44.1919C42.3652 45.6919 47.8652 50.0252 49.8652 53.1919C62.8643 43.6919 88.3643 50.6919 86.8643 78.1919H96.8643C89.8643 67.1919 90.8643 45.1919 93.3652 35.1919Z" fill="#E0426F" stroke="black" stroke-width="0.5"/>
<path d="M10.3633 47.6919H4.36328C36.8635 28.1918 58.8635 34.1919 84.8633 29.6919L93.8635 35.1919C76.8635 36.1919 47.8633 39.6919 33.8633 43.8919C25.8633 43.6919 11.8633 45.6919 10.3633 47.6919Z" fill="#E0426F" stroke="black" stroke-width="0.5"/>
<path d="M37.3647 44.192C29.8647 43.1919 12.8647 45.1919 10.3647 47.692C9.56474 50.0919 12.6981 53.0252 14.3647 54.1919C23.8647 55.6919 37.3647 49.6919 37.3647 44.192Z" fill="#E0426F" stroke="black" stroke-width="0.5"/>
<path d="M4.36398 47.6919C11.364 48.6919 5.36398 59.1919 2.36398 64.1919C1.86391 57.1919 2.36377 51.6919 4.36398 47.6919Z" fill="#E0426F" stroke="black" stroke-width="0.5"/>
<path d="M22.3633 83.6919V79.1919H39.8633L40.3633 83.6919H22.3633Z" fill="#E0426F" stroke="black" stroke-width="0.5"/>
<path d="M2.86523 65.1919C4.36523 67.6919 6.36523 70.8586 5.86523 72.6919M22.3652 79.1919C11.8652 79.6919 7.36523 75.6919 8.36523 72.1919C8.86523 71.6919 10.3652 70.1919 11.3652 70.1919" stroke="black" stroke-width="0.5"/>
<path d="M32.3652 74.192C29.8652 70.192 24.3652 65.1921 21.3652 63.6921C19.6152 63.1921 16.9901 63.3171 14.24 63.6921C12.6151 65.0254 11.3652 68.192 11.8652 71.192C11.8652 72.3587 13.1727 74.692 15.8652 74.692C20.3652 74.692 27.3652 75.192 32.3652 74.192Z" fill="#E0426F"/>
<path d="M6.36523 65.1921C8.61518 64.6921 11.4901 64.0671 14.24 63.6921M14.24 63.6921C16.9901 63.3171 19.6152 63.1921 21.3652 63.6921C24.3652 65.1921 29.8652 70.192 32.3652 74.192C27.3652 75.192 20.3652 74.692 15.8652 74.692C13.1727 74.692 11.8652 72.3587 11.8652 71.192C11.3652 68.192 12.6151 65.0254 14.24 63.6921Z" stroke="black" stroke-width="0.5"/>
<path d="M11.8652 70.6921C19.8652 69.1921 23.3652 71.8206 26.3652 73.3206M13.3652 73.6921L30.8652 73.1921" stroke="black" stroke-width="0.5"/>
<path d="M22.3633 82.1919H31.8633C33.8633 82.1919 35.3633 80.1919 34.8633 79.1919M38.3633 79.1919V83.6919" stroke="black" stroke-width="0.5"/>
<path d="M22.3652 80.6921C17.8652 80.6921 13.3652 81.1921 1.86518 78.1921V76.1921L5.86518 74.1921V72.6921L1.86518 72.1921C1.36426 70.6919 0.364454 67.6919 2.36445 65.1919C1.86469 57.1919 2.36469 50.6919 4.36518 47.6916C36.8652 28.192 58.8652 34.1921 84.8652 29.6921C162.865 -25.308 244.865 11.6919 281.865 26.1921L295.365 28.1919L295.865 35.1919V38.1919C297.364 43.1919 298.699 47.6919 297.365 49.6919C299.865 50.6919 302.365 53.8586 302.365 55.6919L300.365 65.6919C300.817 76.5398 298.409 76.7641 289.077 77.0765C288.086 77.1097 286.017 77.1439 284.865 77.1919V78.6919L259.865 79.1229M22.3652 80.6921V83.6921H40.3635L39.8652 79.1921M22.3652 80.6921V79.1921H39.8652M39.8652 79.1921C36.8652 37.6921 90.3652 40.6921 86.8652 79.6921V82.1919H213.365C207.365 38.6919 261.865 38.6919 259.865 79.1229M259.364 79.1229H259.865" stroke="black"/>
</svg>
