<svg width="303" height="96" viewBox="0 0 303 96" fill="none" xmlns="http://www.w3.org/2000/svg">
<circle cx="62.6562" cy="74.0303" r="20.5" stroke="black"/>
<circle cx="235.656" cy="74.0303" r="20.5" stroke="black"/>
<path d="M132.654 12.5301L131.154 9.03013C171.154 1.03024 192.654 1.53027 231.654 13.0302L228.154 17.5302C208.154 9.53018 190.154 8.53018 174.154 8.03025C171.654 7.53025 167.654 7.53021 165.154 8.03013C155.154 8.03025 143.154 9.53025 132.654 12.5301Z" fill="#EDADBF" stroke="black" stroke-width="0.5"/>
<path d="M131.154 9.03032L130.654 7.53032C166.654 -3.46973 199.154 0.530148 234.654 9.53032L231.654 13.0303C191.654 0.530273 165.654 2.03027 131.154 9.03032Z" fill="#EDADBF" stroke="black" stroke-width="0.5"/>
<path d="M131.154 9.03038C182.654 -2.46964 211.154 7.5304 231.654 13.0304" stroke="black" stroke-width="0.5"/>
<path d="M170.656 30.0303L174.156 8.03027C207.656 9.03027 219.156 14.5303 223.656 16.0303L226.139 28.0303C199.149 28.0309 181.654 29.5304 170.656 30.0303Z" fill="#EDADBF"/>
<path d="M226.656 30.5303L223.656 16.0303C219.156 14.5303 207.656 9.03027 174.156 8.03027L170.656 30.0303C181.656 29.5303 199.156 28.0303 226.156 28.0303" stroke="black" stroke-width="0.5"/>
<path d="M165.156 8.03027C132.156 9.03027 112.156 18.0303 93.1562 35.5303L95.6562 33.5303L159.656 30.5303L165.156 8.03027Z" fill="#EDADBF" stroke="black" stroke-width="0.5"/>
<path d="M239.654 22.5303C235.988 19.8636 230.154 17.5303 223.654 16.0303L226.154 28.0303H232.654C235.654 26.5303 238.654 24.299 239.654 22.5303Z" fill="#EDADBF" stroke="black" stroke-width="0.5"/>
<path d="M96.6562 78.5303H163.656L198.156 77.0303H212.656L213.156 82.5303H199.156H98.1562H86.6562V78.5303H96.6562Z" fill="#EDADBF"/>
<path d="M96.6562 78.5303H163.656L198.156 77.0303M96.6562 78.5303C96.6562 80.0303 97.1562 81.0303 98.1562 82.5303M96.6562 78.5303H86.6562V82.5303H98.1562M198.156 77.0303L199.156 82.5303M198.156 77.0303H212.656L213.156 82.5303H199.156M199.156 82.5303H98.1562" stroke="black" stroke-width="0.5"/>
<path d="M96.6554 78.5303C92.1562 74.0303 89.1563 52.0303 93.1554 35.5303L165.156 31.5303C161.156 36.5303 160.156 70.5303 163.656 78.5303H96.6554Z" fill="#EDADBF" stroke="black" stroke-width="0.5"/>
<path d="M228.656 30.5303L165.156 31.5303C161.156 36.5303 160.156 70.5303 163.656 78.5303L198.156 77.0303C202.656 75.5303 209.156 70.0303 228.656 30.5303Z" fill="#EDADBF" stroke="black" stroke-width="0.5"/>
<path d="M170.656 30.0303C166.156 30.5303 162.656 30.5303 159.656 30.5303L165.156 8.03035C168.156 7.53027 171.156 7.53027 174.156 8.03035L170.656 30.0303Z" fill="#EDADBF" stroke="black" stroke-width="0.5"/>
<path d="M99.1562 32.0305C103.656 37.5305 110.656 34.0305 114.656 32.5305C115.656 17.0304 102.656 25.0304 99.1562 32.0305Z" fill="#EDADBF" stroke="black" stroke-width="0.5"/>
<path d="M234.654 9.53027L231.654 13.0303C248.654 18.5303 259.154 21.5303 271.654 28.0303H273.154L281.154 26.5303C266.154 20.0303 258.654 17.5303 234.654 9.53027Z" fill="#E0426F" stroke="black" stroke-width="0.5"/>
<path d="M271.654 28.0303C261.154 22.5303 242.154 16.0303 231.654 13.0303L229.654 15.5303L244.654 23.0303C243.154 25.5303 239.154 27.5303 233.154 30.2303C245.154 29.5303 262.154 28.5303 271.654 28.0303Z" fill="#E0426F" stroke="black" stroke-width="0.5"/>
<path d="M277.156 34.3303L283.155 32.0303L272.655 28.0303L228.655 30.5303C221.155 45.5303 206.155 76.0303 198.155 77.0303H212.655C211.155 66.0303 220.655 42.5303 245.656 51.5303C256.156 46.0303 266.156 40.5303 277.156 34.3303Z" fill="#E0426F" stroke="black" stroke-width="0.5"/>
<path d="M278.154 34.0303C266.154 40.5303 256.154 46.0303 245.654 51.5303C250.154 54.5303 260.654 60.5303 259.654 79.5303L284.654 79.0303V77.5303C293.154 76.5303 301.654 80.0303 300.154 66.0303L302.154 56.0303C302.154 54.5303 299.654 50.5303 297.154 50.0303C298.654 47.5303 295.654 38.5303 295.654 38.5303V37.0303L291.654 34.0303L286.654 32.5303L283.154 32.0303L278.154 34.0303Z" fill="#E0426F" stroke="black" stroke-width="0.5"/>
<path d="M281.154 26.5303L272.654 28.0303L283.154 32.0303C292.654 33.0303 291.653 34.5303 295.648 36.9505L295.154 28.5303L281.154 26.5303Z" fill="#E0426F"/>
<path d="M295.654 37.0303L295.648 36.9505M295.648 36.9505L295.154 28.5303L281.154 26.5303L272.654 28.0303L283.154 32.0303C292.654 33.0303 291.653 34.5303 295.648 36.9505Z" stroke="black" stroke-width="0.5"/>
<path d="M294.156 36.5305C293.656 34.0304 282.656 33.8303 277.156 34.3303" stroke="black" stroke-width="0.5"/>
<path d="M300.156 66.5303L260.656 68.5303C260.156 63.5303 257.99 59.3636 256.156 57.5303L302.156 55.0303M300.656 52.5303C289.656 51.0303 278.656 46.2303 266.656 40.2303M228.656 30.5303L272.656 28.0303L281.156 26.5303" stroke="black" stroke-width="0.5"/>
<path d="M290.656 40.5303C290.656 38.5303 289.656 34.5303 286.156 32.5303C288.377 32.5303 291.754 33.5707 294.265 35.9403C294.729 37.4703 293.656 41.0303 290.614 42.5303C290.601 41.94 290.656 41.2546 290.656 40.5303Z" fill="#E0426F"/>
<path d="M272.656 43.0303C279.652 43.3801 285.669 43.4851 291.049 44.0303M297.656 45.0303C295.553 44.5796 293.36 44.2644 291.049 44.0303M295.656 37.5303C295.238 36.9451 294.769 36.4159 294.265 35.9403M291.049 44.0303C290.723 43.6855 290.629 43.1625 290.614 42.5303M290.614 42.5303C290.601 41.94 290.656 41.2546 290.656 40.5303C290.656 38.5303 289.656 34.5303 286.156 32.5303C288.377 32.5303 291.754 33.5707 294.265 35.9403M290.614 42.5303C293.656 41.0303 294.729 37.4703 294.265 35.9403" stroke="black" stroke-width="0.5"/>
<path d="M290.656 40.5303C286.156 40.5303 284.156 36.5303 283.156 34.0303" stroke="black" stroke-width="0.5"/>
<path d="M132.654 12.6302C119.154 16.6302 107.154 22.5303 93.1543 35.5303C100.154 23.5303 115.654 14.0303 131.154 9.03027L132.654 12.6302Z" fill="#EFC7D3" stroke="black" stroke-width="0.5"/>
<path d="M131.154 9.03027C111.154 14.7043 93.1543 32.0303 85.1543 30.0303C98.1543 20.5303 114.154 12.0303 130.654 7.53027L131.154 9.03027Z" fill="#EFC7D3" stroke="black" stroke-width="0.5"/>
<path d="M10.155 48.0302H4.15496C1.6543 52.0302 1.6543 62.0302 2.15496 65.5302C0.654297 66.5302 0.654894 71.0302 1.65496 72.5302L5.65496 73.0302V74.5302L1.65496 76.5302V78.5302C5.65496 79.5302 14.155 81.5302 22.155 81.0302V79.5302H39.655C38.9883 71.0302 40.655 60.5302 49.655 53.5302C47.155 49.5302 40.155 45.0302 37.155 44.5302C27.155 43.5302 12.155 46.0302 10.155 48.0302Z" fill="#EFC7D3" stroke="black" stroke-width="0.5"/>
<path d="M93.1562 35.5303C75.3229 36.3636 43.6562 41.2303 33.1562 44.2303L37.1562 44.5303C42.1562 46.0303 47.6562 50.3636 49.6562 53.5303C62.6553 44.0303 88.1553 51.0303 86.6553 78.5303H96.6553C89.6553 67.5303 90.6553 45.5303 93.1562 35.5303Z" fill="#EFC7D3" stroke="black" stroke-width="0.5"/>
<path d="M10.1543 48.0303H4.1543C36.6545 28.5302 58.6545 34.5303 84.6543 30.0303L93.6545 35.5303C76.6545 36.5303 47.6543 40.0303 33.6543 44.2303C25.6543 44.0303 11.6543 46.0303 10.1543 48.0303Z" fill="#EFC7D3" stroke="black" stroke-width="0.5"/>
<path d="M37.1558 44.5303C29.6558 43.5303 12.6558 45.5303 10.1558 48.0303C9.35575 50.4303 12.4891 53.3636 14.1558 54.5303C23.6558 56.0303 37.1558 50.0303 37.1558 44.5303Z" fill="#EFC7D3" stroke="black" stroke-width="0.5"/>
<path d="M4.15499 48.0303C11.155 49.0303 5.15499 59.5303 2.15499 64.5303C1.65492 57.5303 2.15479 52.0303 4.15499 48.0303Z" fill="#EFC7D3" stroke="black" stroke-width="0.5"/>
<path d="M22.1543 84.0303V79.5303H39.6543L40.1543 84.0303H22.1543Z" fill="#EFC7D3" stroke="black" stroke-width="0.5"/>
<path d="M2.65625 65.5303C4.15625 68.0303 6.15625 71.1969 5.65625 73.0303M22.1562 79.5303C11.6562 80.0303 7.15625 76.0303 8.15625 72.5303C8.65625 72.0303 10.1562 70.5303 11.1562 70.5303" stroke="black" stroke-width="0.5"/>
<path d="M32.1562 74.5304C29.6562 70.5304 24.1562 65.5305 21.1562 64.0305C19.4062 63.5305 16.7811 63.6555 14.031 64.0305C12.4061 65.3638 11.1562 68.5304 11.6562 71.5304C11.6562 72.6971 12.9637 75.0304 15.6562 75.0304C20.1562 75.0304 27.1562 75.5304 32.1562 74.5304Z" fill="#EFC7D3"/>
<path d="M6.15625 65.5305C8.40619 65.0304 11.2811 64.4055 14.031 64.0305M14.031 64.0305C16.7811 63.6555 19.4062 63.5305 21.1562 64.0305C24.1562 65.5305 29.6562 70.5304 32.1562 74.5304C27.1562 75.5304 20.1562 75.0304 15.6562 75.0304C12.9637 75.0304 11.6562 72.6971 11.6562 71.5304C11.1562 68.5304 12.4061 65.3638 14.031 64.0305Z" stroke="black" stroke-width="0.5"/>
<path d="M11.6562 71.0305C19.6562 69.5305 23.1562 72.159 26.1562 73.659M13.1562 74.0305L30.6562 73.5305" stroke="black" stroke-width="0.5"/>
<path d="M22.1543 82.5303H31.6543C33.6543 82.5303 35.1543 80.5303 34.6543 79.5303M38.1543 79.5303V84.0303" stroke="black" stroke-width="0.5"/>
<path d="M22.1562 81.0305C17.6562 81.0305 13.1562 81.5305 1.6562 78.5305V76.5305L5.6562 74.5305V73.0305L1.6562 72.5305C1.15527 71.0303 0.155469 68.0303 2.15546 65.5303C1.65571 57.5303 2.15571 51.0303 4.1562 48.03C36.6562 28.5304 58.6562 34.5305 84.6562 30.0305C162.656 -24.9697 244.656 12.0303 281.656 26.5305L295.156 28.5303L295.656 35.5303V38.5303C297.155 43.5303 298.49 48.0303 297.156 50.0303C299.656 51.0303 302.156 54.1969 302.156 56.0303L300.156 66.0303C300.608 76.8782 298.2 77.1025 288.868 77.4149C287.877 77.4481 285.808 77.4823 284.656 77.5303V79.0303L259.656 79.4613M22.1562 81.0305V84.0305H40.1545L39.6562 79.5305M22.1562 81.0305V79.5305H39.6562M39.6562 79.5305C36.6562 38.0305 90.1562 41.0305 86.6562 80.0305V82.5303H213.156C207.156 39.0303 261.656 39.0303 259.656 79.4613M259.155 79.4613H259.656" stroke="black"/>
</svg>
