<svg width="303" height="96" viewBox="0 0 303 96" fill="none" xmlns="http://www.w3.org/2000/svg">
<circle cx="62.2817" cy="74.1843" r="20.5" fill="#E56E90" stroke="black"/>
<circle cx="235.282" cy="74.1843" r="20.5" fill="#E56E90" stroke="black"/>
<path d="M132.28 12.6842L130.78 9.18418C170.78 1.18429 192.28 1.68433 231.28 13.1843L227.78 17.6843C207.78 9.68424 189.78 8.68423 173.78 8.1843C171.28 7.6843 167.28 7.68427 164.78 8.18418C154.78 8.1843 142.78 9.6843 132.28 12.6842Z" fill="#EFC7D3" stroke="black" stroke-width="0.5"/>
<path d="M130.78 9.18437L130.28 7.68437C166.28 -3.31567 198.78 0.6842 234.28 9.68437L231.28 13.1844C191.28 0.684326 165.28 2.18433 130.78 9.18437Z" fill="#EFC7D3" stroke="black" stroke-width="0.5"/>
<path d="M130.78 9.18431C182.28 -2.31571 210.78 7.68433 231.28 13.1843" stroke="black" stroke-width="0.5"/>
<path d="M170.282 30.1843L173.782 8.18433C207.282 9.18433 218.782 14.6843 223.282 16.1843L225.764 28.1843C198.774 28.185 181.279 29.6844 170.282 30.1843Z" fill="#EFC7D3"/>
<path d="M226.282 30.6843L223.282 16.1843C218.782 14.6843 207.282 9.18433 173.782 8.18433L170.282 30.1843C181.282 29.6843 198.782 28.1843 225.782 28.1843" stroke="black" stroke-width="0.5"/>
<path d="M164.782 8.18433C131.782 9.18433 111.782 18.1843 92.7817 35.6843L95.2817 33.6843L159.282 30.6843L164.782 8.18433Z" fill="#EFC7D3" stroke="black" stroke-width="0.5"/>
<path d="M239.28 22.6843C235.614 20.0177 229.78 17.6843 223.28 16.1843L225.78 28.1843H232.28C235.28 26.6843 238.28 24.4531 239.28 22.6843Z" fill="#EFC7D3" stroke="black" stroke-width="0.5"/>
<path d="M96.2817 78.6843H163.282L197.782 77.1843H212.282L212.782 82.6843H198.782H97.7817H86.2817V78.6843H96.2817Z" fill="#EFC7D3"/>
<path d="M96.2817 78.6843H163.282L197.782 77.1843M96.2817 78.6843C96.2817 80.1843 96.7817 81.1843 97.7817 82.6843M96.2817 78.6843H86.2817V82.6843H97.7817M197.782 77.1843L198.782 82.6843M197.782 77.1843H212.282L212.782 82.6843H198.782M198.782 82.6843H97.7817" stroke="black" stroke-width="0.5"/>
<path d="M96.2809 78.6843C91.7817 74.1843 88.7818 52.1843 92.7809 35.6843L164.782 31.6843C160.782 36.6843 159.782 70.6843 163.282 78.6843H96.2809Z" fill="#EFC7D3" stroke="black" stroke-width="0.5"/>
<path d="M228.281 30.6843L164.781 31.6843C160.781 36.6843 159.781 70.6843 163.281 78.6843L197.781 77.1843C202.281 75.6843 208.781 70.1843 228.281 30.6843Z" fill="#EFC7D3" stroke="black" stroke-width="0.5"/>
<path d="M170.282 30.1844C165.782 30.6844 162.282 30.6844 159.282 30.6844L164.782 8.1844C167.782 7.68433 170.782 7.68433 173.782 8.1844L170.282 30.1844Z" fill="#EFC7D3" stroke="black" stroke-width="0.5"/>
<path d="M98.7817 32.1845C103.282 37.6845 110.282 34.1845 114.282 32.6845C115.282 17.1843 102.282 25.1843 98.7817 32.1845Z" fill="#EFC7D3" stroke="black" stroke-width="0.5"/>
<path d="M234.28 9.68433L231.28 13.1843C248.28 18.6843 258.78 21.6843 271.28 28.1843H272.78L280.78 26.6843C265.78 20.1843 258.28 17.6843 234.28 9.68433Z" fill="#EFC7D3" stroke="black" stroke-width="0.5"/>
<path d="M271.28 28.1843C260.78 22.6843 241.78 16.1843 231.28 13.1843L229.28 15.6843L244.28 23.1843C242.78 25.6843 238.78 27.6843 232.78 30.3843C244.78 29.6843 261.78 28.6843 271.28 28.1843Z" fill="#EFC7D3" stroke="black" stroke-width="0.5"/>
<path d="M276.782 34.4843L282.78 32.1843L272.281 28.1843L228.281 30.6843C220.781 45.6843 205.781 76.1843 197.781 77.1843H212.281C210.781 66.1843 220.281 42.6843 245.282 51.6843C255.782 46.1843 265.782 40.6843 276.782 34.4843Z" fill="#EFC7D3" stroke="black" stroke-width="0.5"/>
<path d="M277.78 34.1844C265.78 40.6844 255.78 46.1844 245.28 51.6844C249.78 54.6843 260.28 60.6843 259.28 79.6843L284.28 79.1843V77.6843C292.78 76.6843 301.28 80.1843 299.78 66.1843L301.78 56.1843C301.78 54.6843 299.28 50.6843 296.78 50.1843C298.28 47.6843 295.28 38.6843 295.28 38.6843V37.1843L291.28 34.1843L286.28 32.6843L282.78 32.1843L277.78 34.1844Z" fill="#EFC7D3" stroke="black" stroke-width="0.5"/>
<path d="M280.78 26.6843L272.28 28.1843L282.78 32.1843C292.28 33.1843 291.279 34.6843 295.274 37.1045L294.78 28.6843L280.78 26.6843Z" fill="#EFC7D3"/>
<path d="M295.28 37.1843L295.274 37.1045M295.274 37.1045L294.78 28.6843L280.78 26.6843L272.28 28.1843L282.78 32.1843C292.28 33.1843 291.279 34.6843 295.274 37.1045Z" stroke="black" stroke-width="0.5"/>
<path d="M293.782 36.6845C293.282 34.1844 282.282 33.9843 276.782 34.4843" stroke="black" stroke-width="0.5"/>
<path d="M299.782 66.6843L260.282 68.6843C259.782 63.6843 257.615 59.5177 255.782 57.6843L301.782 55.1843M300.282 52.6843C289.282 51.1843 278.282 46.3843 266.282 40.3843M228.282 30.6843L272.282 28.1843L280.782 26.6843" stroke="black" stroke-width="0.5"/>
<path d="M290.282 40.6843C290.282 38.6843 289.282 34.6843 285.782 32.6843C288.003 32.6843 291.379 33.7247 293.891 36.0943C294.354 37.6243 293.282 41.1843 290.24 42.6843C290.226 42.094 290.282 41.4086 290.282 40.6843Z" fill="#EFC7D3"/>
<path d="M272.282 43.1843C279.277 43.5341 285.294 43.6392 290.675 44.1843M297.282 45.1843C295.179 44.7337 292.985 44.4184 290.675 44.1843M295.282 37.6843C294.864 37.0992 294.395 36.57 293.891 36.0943M290.675 44.1843C290.349 43.8396 290.255 43.3165 290.24 42.6843M290.24 42.6843C290.226 42.094 290.282 41.4086 290.282 40.6843C290.282 38.6843 289.282 34.6843 285.782 32.6843C288.003 32.6843 291.379 33.7247 293.891 36.0943M290.24 42.6843C293.282 41.1843 294.354 37.6243 293.891 36.0943" stroke="black" stroke-width="0.5"/>
<path d="M290.282 40.6843C285.782 40.6843 283.782 36.6843 282.782 34.1843" stroke="black" stroke-width="0.5"/>
<path d="M132.28 12.7843C118.78 16.7843 106.78 22.6843 92.7803 35.6843C99.7803 23.6843 115.28 14.1843 130.78 9.18433L132.28 12.7843Z" fill="#EFC7D3" stroke="black" stroke-width="0.5"/>
<path d="M130.78 9.18433C110.78 14.8584 92.7803 32.1843 84.7803 30.1843C97.7803 20.6843 113.78 12.1843 130.28 7.68433L130.78 9.18433Z" fill="#EFC7D3" stroke="black" stroke-width="0.5"/>
<path d="M9.78094 48.1843H3.78094C1.28027 52.1843 1.28027 62.1843 1.78094 65.6843C0.280273 66.6843 0.280871 71.1843 1.28094 72.6843L5.28094 73.1843V74.6843L1.28094 76.6843V78.6843C5.28094 79.6843 13.7809 81.6843 21.7809 81.1843V79.6843H39.2809C38.6143 71.1843 40.2809 60.6843 49.2809 53.6843C46.7809 49.6843 39.7809 45.1843 36.7809 44.6843C26.7809 43.6843 11.7809 46.1843 9.78094 48.1843Z" fill="#EFC7D3" stroke="black" stroke-width="0.5"/>
<path d="M92.7817 35.6843C74.9484 36.5177 43.2817 41.3843 32.7817 44.3843L36.7817 44.6843C41.7817 46.1843 47.2817 50.5177 49.2817 53.6843C62.2808 44.1843 87.7808 51.1843 86.2808 78.6843H96.2808C89.2808 67.6843 90.2808 45.6843 92.7817 35.6843Z" fill="#EFC7D3" stroke="black" stroke-width="0.5"/>
<path d="M9.78027 48.1844H3.78027C36.2805 28.6843 58.2805 34.6843 84.2803 30.1843L93.2805 35.6843C76.2805 36.6843 47.2803 40.1843 33.2803 44.3843C25.2803 44.1843 11.2803 46.1843 9.78027 48.1844Z" fill="#EFC7D3" stroke="black" stroke-width="0.5"/>
<path d="M36.7817 44.6844C29.2817 43.6843 12.2817 45.6843 9.78173 48.1844C8.98173 50.5843 12.1151 53.5177 13.7817 54.6843C23.2817 56.1843 36.7817 50.1843 36.7817 44.6844Z" fill="#EFC7D3" stroke="black" stroke-width="0.5"/>
<path d="M3.78097 48.1843C10.781 49.1843 4.78097 59.6843 1.78097 64.6843C1.2809 57.6843 1.78076 52.1843 3.78097 48.1843Z" fill="#EFC7D3" stroke="black" stroke-width="0.5"/>
<path d="M21.7803 84.1843V79.6843H39.2803L39.7803 84.1843H21.7803Z" fill="#EFC7D3" stroke="black" stroke-width="0.5"/>
<path d="M2.28223 65.6843C3.78223 68.1843 5.78223 71.351 5.28223 73.1843M21.7822 79.6843C11.2822 80.1843 6.78223 76.1843 7.78223 72.6843C8.28223 72.1843 9.78223 70.6843 10.7822 70.6843" stroke="black" stroke-width="0.5"/>
<path d="M31.7822 74.6843C29.2822 70.6843 23.7822 65.6844 20.7822 64.1844C19.0322 63.6844 16.4071 63.8094 13.657 64.1844C12.0321 65.5177 10.7822 68.6843 11.2822 71.6843C11.2822 72.851 12.5896 75.1843 15.2822 75.1843C19.7822 75.1843 26.7822 75.6843 31.7822 74.6843Z" fill="#EFC7D3"/>
<path d="M5.78223 65.6844C8.03217 65.1844 10.9071 64.5594 13.657 64.1844M13.657 64.1844C16.4071 63.8094 19.0322 63.6844 20.7822 64.1844C23.7822 65.6844 29.2822 70.6843 31.7822 74.6843C26.7822 75.6843 19.7822 75.1843 15.2822 75.1843C12.5896 75.1843 11.2822 72.851 11.2822 71.6843C10.7822 68.6843 12.0321 65.5177 13.657 64.1844Z" stroke="black" stroke-width="0.5"/>
<path d="M11.2822 71.1844C19.2822 69.6844 22.7822 72.3129 25.7822 73.8129M12.7822 74.1844L30.2822 73.6844" stroke="black" stroke-width="0.5"/>
<path d="M21.7803 82.6843H31.2803C33.2803 82.6843 34.7803 80.6843 34.2803 79.6843M37.7803 79.6843V84.1843" stroke="black" stroke-width="0.5"/>
<path d="M21.7817 81.1846C17.2817 81.1846 12.7817 81.6846 1.28168 78.6846V76.6846L5.28168 74.6846V73.1846L1.28168 72.6846C0.780762 71.1843 -0.219042 68.1843 1.78095 65.6843C1.2812 57.6843 1.7812 51.1843 3.78168 48.1841C36.2817 28.6845 58.2817 34.6845 84.2817 30.1845C162.282 -24.8156 244.282 12.1843 281.282 26.6845L294.782 28.6843L295.282 35.6843V38.6843C296.78 43.6843 298.115 48.1843 296.782 50.1843C299.282 51.1843 301.782 54.351 301.782 56.1843L299.782 66.1843C300.234 77.0322 297.826 77.2565 288.494 77.569C287.503 77.6021 285.434 77.6363 284.282 77.6843V79.1843L259.282 79.6154M21.7817 81.1846V84.1846H39.78L39.2817 79.6846M21.7817 81.1846V79.6846H39.2817M39.2817 79.6846C36.2817 38.1846 89.7817 41.1846 86.2817 80.1846V82.6843H212.782C206.782 39.1843 261.282 39.1843 259.282 79.6154M258.78 79.6154H259.282" stroke="black"/>
</svg>
