<svg width="303" height="96" viewBox="0 0 303 96" fill="none" xmlns="http://www.w3.org/2000/svg">
<circle cx="62.6875" cy="74.5378" r="20.5" stroke="black"/>
<circle cx="235.688" cy="74.5378" r="20.5" stroke="black"/>
<path d="M132.686 13.0377L131.186 9.5377C171.186 1.53781 192.686 2.03784 231.686 13.5378L228.186 18.0378C208.186 10.0378 190.186 9.03775 174.186 8.53782C171.686 8.03782 167.686 8.03778 165.186 8.5377C155.186 8.53782 143.186 10.0378 132.686 13.0377Z" fill="#EDADBF" stroke="black" stroke-width="0.5"/>
<path d="M131.186 9.53789L130.686 8.03789C166.686 -2.96216 199.186 1.03772 234.686 10.0379L231.686 13.5379C191.686 1.03784 165.686 2.53784 131.186 9.53789Z" fill="#EDADBF" stroke="black" stroke-width="0.5"/>
<path d="M131.186 9.53771C182.686 -1.96232 211.186 8.03772 231.686 13.5377" stroke="black" stroke-width="0.5"/>
<path d="M170.688 30.5378L174.188 8.53784C207.688 9.53784 219.188 15.0378 223.688 16.5378L226.17 28.5378C199.18 28.5385 181.685 30.0379 170.688 30.5378Z" fill="#EDADBF"/>
<path d="M226.688 31.0378L223.688 16.5378C219.188 15.0378 207.688 9.53784 174.188 8.53784L170.688 30.5378C181.688 30.0378 199.188 28.5378 226.188 28.5378" stroke="black" stroke-width="0.5"/>
<path d="M165.188 8.53784C132.188 9.53784 112.188 18.5378 93.1875 36.0378L95.6875 34.0378L159.688 31.0378L165.188 8.53784Z" fill="#EDADBF" stroke="black" stroke-width="0.5"/>
<path d="M239.686 23.0378C236.019 20.3712 230.186 18.0378 223.686 16.5378L226.186 28.5378H232.686C235.686 27.0378 238.686 24.8066 239.686 23.0378Z" fill="#EDADBF" stroke="black" stroke-width="0.5"/>
<path d="M96.6875 79.0378H163.688L198.188 77.5378H212.688L213.188 83.0378H199.188H98.1875H86.6875V79.0378H96.6875Z" fill="#EDADBF"/>
<path d="M96.6875 79.0378H163.688L198.188 77.5378M96.6875 79.0378C96.6875 80.5378 97.1875 81.5378 98.1875 83.0378M96.6875 79.0378H86.6875V83.0378H98.1875M198.188 77.5378L199.188 83.0378M198.188 77.5378H212.688L213.188 83.0378H199.188M199.188 83.0378H98.1875" stroke="black" stroke-width="0.5"/>
<path d="M96.6866 79.0378C92.1875 74.5378 89.1875 52.5378 93.1866 36.0378L165.188 32.0378C161.188 37.0378 160.188 71.0378 163.687 79.0378H96.6866Z" fill="#EDADBF" stroke="black" stroke-width="0.5"/>
<path d="M228.687 31.0378L165.187 32.0378C161.188 37.0378 160.188 71.0378 163.687 79.0378L198.187 77.5378C202.687 76.0378 209.187 70.5378 228.687 31.0378Z" fill="#EDADBF" stroke="black" stroke-width="0.5"/>
<path d="M170.688 30.5379C166.188 31.0379 162.688 31.0379 159.688 31.0379L165.188 8.53792C168.188 8.03784 171.188 8.03784 174.188 8.53792L170.688 30.5379Z" fill="#EDADBF" stroke="black" stroke-width="0.5"/>
<path d="M99.1875 32.5379C103.688 38.0379 110.688 34.5379 114.688 33.0379C115.688 17.5377 102.688 25.5377 99.1875 32.5379Z" fill="#EDADBF" stroke="black" stroke-width="0.5"/>
<path d="M234.686 10.0378L231.686 13.5378C248.686 19.0378 259.186 22.0378 271.686 28.5378H273.186L281.186 27.0378C266.186 20.5378 258.686 18.0378 234.686 10.0378Z" fill="#EFC7D3" stroke="black" stroke-width="0.5"/>
<path d="M271.686 28.5378C261.186 23.0378 242.186 16.5378 231.686 13.5378L229.686 16.0378L244.686 23.5378C243.186 26.0378 239.186 28.0378 233.186 30.7378C245.186 30.0378 262.186 29.0378 271.686 28.5378Z" fill="#EFC7D3" stroke="black" stroke-width="0.5"/>
<path d="M277.188 34.8378L283.186 32.5378L272.687 28.5378L228.687 31.0378C221.187 46.0378 206.187 76.5378 198.187 77.5378H212.687C211.187 66.5378 220.687 43.0378 245.688 52.0378C256.188 46.5378 266.188 41.0378 277.188 34.8378Z" fill="#EFC7D3" stroke="black" stroke-width="0.5"/>
<path d="M278.186 34.5379C266.186 41.0379 256.186 46.5379 245.686 52.0379C250.186 55.0378 260.686 61.0378 259.686 80.0378L284.686 79.5378V78.0378C293.186 77.0378 301.686 80.5378 300.186 66.5378L302.186 56.5378C302.186 55.0378 299.686 51.0378 297.186 50.5378C298.686 48.0378 295.686 39.0378 295.686 39.0378V37.5378L291.686 34.5378L286.686 33.0378L283.186 32.5378L278.186 34.5379Z" fill="#EFC7D3" stroke="black" stroke-width="0.5"/>
<path d="M281.186 27.0378L272.686 28.5378L283.186 32.5378C292.686 33.5378 291.684 35.0378 295.68 37.458L295.186 29.0378L281.186 27.0378Z" fill="#EFC7D3"/>
<path d="M295.686 37.5378L295.68 37.458M295.68 37.458L295.186 29.0378L281.186 27.0378L272.686 28.5378L283.186 32.5378C292.686 33.5378 291.684 35.0378 295.68 37.458Z" stroke="black" stroke-width="0.5"/>
<path d="M294.188 37.038C293.688 34.5379 282.688 34.3379 277.188 34.8379" stroke="black" stroke-width="0.5"/>
<path d="M300.188 67.0378L260.688 69.0378C260.188 64.0378 258.021 59.8712 256.188 58.0378L302.188 55.5378M300.688 53.0378C289.688 51.5378 278.688 46.7378 266.688 40.7378M228.688 31.0378L272.688 28.5378L281.188 27.0378" stroke="black" stroke-width="0.5"/>
<path d="M290.688 41.0378C290.688 39.0378 289.688 35.0378 286.188 33.0378C288.408 33.0378 291.785 34.0782 294.296 36.4478C294.76 37.9778 293.688 41.5378 290.646 43.0378C290.632 42.4476 290.688 41.7621 290.688 41.0378Z" fill="#EFC7D3"/>
<path d="M272.688 43.5378C279.683 43.8876 285.7 43.9927 291.081 44.5378M297.688 45.5378C295.585 45.0872 293.391 44.7719 291.081 44.5378M295.688 38.0378C295.27 37.4527 294.8 36.9235 294.296 36.4478M291.081 44.5378C290.754 44.1931 290.66 43.67 290.646 43.0378M290.646 43.0378C290.632 42.4476 290.688 41.7621 290.688 41.0378C290.688 39.0378 289.688 35.0378 286.188 33.0378C288.408 33.0378 291.785 34.0782 294.296 36.4478M290.646 43.0378C293.688 41.5378 294.76 37.9778 294.296 36.4478" stroke="black" stroke-width="0.5"/>
<path d="M290.688 41.0378C286.188 41.0378 284.188 37.0378 283.188 34.5378" stroke="black" stroke-width="0.5"/>
<path d="M132.686 13.1378C119.186 17.1378 107.186 23.0378 93.186 36.0378C100.186 24.0378 115.686 14.5378 131.186 9.53784L132.686 13.1378Z" fill="#E0426F" stroke="black" stroke-width="0.5"/>
<path d="M131.186 9.53784C111.186 15.2119 93.186 32.5378 85.186 30.5378C98.186 21.0378 114.186 12.5378 130.686 8.03784L131.186 9.53784Z" fill="#E0426F" stroke="black" stroke-width="0.5"/>
<path d="M10.1867 48.5377H4.1867C1.68604 52.5377 1.68604 62.5377 2.1867 66.0377C0.686035 67.0377 0.686633 71.5377 1.6867 73.0377L5.6867 73.5377V75.0377L1.6867 77.0377V79.0377C5.6867 80.0377 14.1867 82.0377 22.1867 81.5377V80.0377H39.6867C39.02 71.5377 40.6867 61.0377 49.6867 54.0377C47.1867 50.0377 40.1867 45.5377 37.1867 45.0377C27.1867 44.0377 12.1867 46.5377 10.1867 48.5377Z" fill="#E0426F" stroke="black" stroke-width="0.5"/>
<path d="M93.1875 36.0378C75.3542 36.8712 43.6875 41.7378 33.1875 44.7378L37.1875 45.0378C42.1875 46.5378 47.6875 50.8712 49.6875 54.0378C62.6865 44.5378 88.1865 51.5378 86.6865 79.0378H96.6865C89.6865 68.0378 90.6865 46.0378 93.1875 36.0378Z" fill="#E0426F" stroke="black" stroke-width="0.5"/>
<path d="M10.1855 48.5379H4.18555C36.6857 29.0378 58.6858 35.0378 84.6855 30.5378L93.6858 36.0378C76.6858 37.0378 47.6855 40.5378 33.6855 44.7378C25.6855 44.5378 11.6855 46.5378 10.1855 48.5379Z" fill="#E0426F" stroke="black" stroke-width="0.5"/>
<path d="M37.1875 45.0379C29.6875 44.0378 12.6875 46.0378 10.1875 48.5379C9.38749 50.9379 12.5208 53.8712 14.1875 55.0378C23.6875 56.5378 37.1875 50.5378 37.1875 45.0379Z" fill="#E0426F" stroke="black" stroke-width="0.5"/>
<path d="M4.18673 48.5378C11.1867 49.5378 5.18673 60.0378 2.18673 65.0378C1.68666 58.0378 2.18652 52.5378 4.18673 48.5378Z" fill="#E0426F" stroke="black" stroke-width="0.5"/>
<path d="M22.186 84.5378V80.0378H39.686L40.186 84.5378H22.186Z" fill="#E0426F" stroke="black" stroke-width="0.5"/>
<path d="M2.6875 66.0376C4.1875 68.5376 6.1875 71.7043 5.6875 73.5376M22.1875 80.0376C11.6875 80.5376 7.1875 76.5376 8.1875 73.0376C8.6875 72.5376 10.1875 71.0376 11.1875 71.0376" stroke="black" stroke-width="0.5"/>
<path d="M32.1875 75.0377C29.6875 71.0377 24.1875 66.0378 21.1875 64.5378C19.4375 64.0378 16.8124 64.1628 14.0623 64.5378C12.4374 65.8711 11.1875 69.0377 11.6875 72.0377C11.6875 73.2044 12.9949 75.5377 15.6875 75.5377C20.1875 75.5377 27.1875 76.0377 32.1875 75.0377Z" fill="#E0426F"/>
<path d="M6.1875 66.0378C8.43744 65.5378 11.3124 64.9128 14.0623 64.5378M14.0623 64.5378C16.8124 64.1628 19.4375 64.0378 21.1875 64.5378C24.1875 66.0378 29.6875 71.0377 32.1875 75.0377C27.1875 76.0377 20.1875 75.5377 15.6875 75.5377C12.9949 75.5377 11.6875 73.2044 11.6875 72.0377C11.1875 69.0377 12.4374 65.8711 14.0623 64.5378Z" stroke="black" stroke-width="0.5"/>
<path d="M11.6875 71.5378C19.6875 70.0378 23.1875 72.6663 26.1875 74.1663M13.1875 74.5378L30.6875 74.0378" stroke="black" stroke-width="0.5"/>
<path d="M22.1855 83.0376H31.6855C33.6855 83.0376 35.1855 81.0376 34.6855 80.0376M38.1855 80.0376V84.5376" stroke="black" stroke-width="0.5"/>
<path d="M22.1874 81.5381C17.6874 81.5381 13.1874 82.0381 1.68745 79.0381V77.0381L5.68745 75.0381V73.5381L1.68745 73.0381C1.18652 71.5378 0.186719 68.5378 2.18671 66.0378C1.68696 58.0378 2.18696 51.5378 4.18745 48.5376C36.6874 29.038 58.6874 35.038 84.6874 30.538C162.687 -24.4621 244.687 12.5378 281.687 27.038L295.187 29.0378L295.687 36.0378V39.0378C297.186 44.0378 298.521 48.5378 297.187 50.5378C299.687 51.5378 302.187 54.7045 302.187 56.5378L300.187 66.5378C300.639 77.3858 298.231 77.61 288.9 77.9225C287.909 77.9557 285.84 77.9898 284.687 78.0378V79.5378L259.687 79.9689M22.1874 81.5381V84.5381H40.1858L39.6875 80.0381M22.1874 81.5381V80.0381H39.6875M39.6875 80.0381C36.6875 38.5381 90.1874 41.5381 86.6874 80.5381V83.0378H213.187C207.187 39.5378 261.687 39.5378 259.687 79.9689M259.186 79.9689H259.687" stroke="black"/>
</svg>
