<svg width="304" height="96" viewBox="0 0 304 96" fill="none" xmlns="http://www.w3.org/2000/svg">
<circle cx="63.0938" cy="74.1995" r="20.5" fill="#EDADBF" stroke="black"/>
<circle cx="236.094" cy="74.1995" r="20.5" fill="#EDADBF" stroke="black"/>
<path d="M133.092 12.6993L131.592 9.19932C171.592 1.19943 193.092 1.69946 232.092 13.1994L228.592 17.6994C208.592 9.69937 190.592 8.69937 174.592 8.19944C172.092 7.69944 168.092 7.6994 165.592 8.19932C155.592 8.19944 143.592 9.69944 133.092 12.6993Z" fill="#EDADBF" stroke="black" stroke-width="0.5"/>
<path d="M131.592 9.19951L131.092 7.69951C167.092 -3.30054 199.592 0.699337 235.092 9.69951L232.092 13.1995C192.092 0.699463 166.092 2.19946 131.592 9.19951Z" fill="#EDADBF" stroke="black" stroke-width="0.5"/>
<path d="M131.592 9.19933C183.092 -2.3007 211.592 7.69934 232.092 13.1993" stroke="black" stroke-width="0.5"/>
<path d="M171.094 30.1995L174.594 8.19946C208.094 9.19946 219.594 14.6995 224.094 16.1995L226.577 28.1995C199.586 28.2001 182.091 29.6996 171.094 30.1995Z" fill="#EDADBF"/>
<path d="M227.094 30.6995L224.094 16.1995C219.594 14.6995 208.094 9.19946 174.594 8.19946L171.094 30.1995C182.094 29.6995 199.594 28.1995 226.594 28.1995" stroke="black" stroke-width="0.5"/>
<path d="M165.594 8.19946C132.594 9.19946 112.594 18.1995 93.5938 35.6995L96.0938 33.6995L160.094 30.6995L165.594 8.19946Z" fill="#EDADBF" stroke="black" stroke-width="0.5"/>
<path d="M240.092 22.6995C236.425 20.0328 230.592 17.6995 224.092 16.1995L226.592 28.1995H233.092C236.092 26.6995 239.092 24.4682 240.092 22.6995Z" fill="#EDADBF" stroke="black" stroke-width="0.5"/>
<path d="M97.0938 78.6995H164.094L198.594 77.1995H213.094L213.594 82.6995H199.594H98.5938H87.0938V78.6995H97.0938Z" fill="#EDADBF"/>
<path d="M97.0938 78.6995H164.094L198.594 77.1995M97.0938 78.6995C97.0938 80.1995 97.5938 81.1995 98.5938 82.6995M97.0938 78.6995H87.0938V82.6995H98.5938M198.594 77.1995L199.594 82.6995M198.594 77.1995H213.094L213.594 82.6995H199.594M199.594 82.6995H98.5938" stroke="black" stroke-width="0.5"/>
<path d="M97.0929 78.6995C92.5937 74.1995 89.5938 52.1995 93.5929 35.6995L165.594 31.6995C161.594 36.6995 160.594 70.6995 164.094 78.6995H97.0929Z" fill="#EDADBF" stroke="black" stroke-width="0.5"/>
<path d="M229.094 30.6995L165.594 31.6995C161.594 36.6995 160.594 70.6995 164.094 78.6995L198.594 77.1995C203.094 75.6995 209.594 70.1995 229.094 30.6995Z" fill="#EDADBF" stroke="black" stroke-width="0.5"/>
<path d="M171.094 30.1995C166.594 30.6995 163.094 30.6995 160.094 30.6995L165.594 8.19954C168.594 7.69946 171.594 7.69946 174.594 8.19954L171.094 30.1995Z" fill="#EDADBF" stroke="black" stroke-width="0.5"/>
<path d="M99.5938 32.1995C104.094 37.6995 111.094 34.1995 115.094 32.6995C116.094 17.1994 103.094 25.1993 99.5938 32.1995Z" fill="#EDADBF" stroke="black" stroke-width="0.5"/>
<path d="M235.092 9.69946L232.092 13.1995C249.092 18.6995 259.592 21.6995 272.092 28.1995H273.592L281.592 26.6995C266.592 20.1995 259.092 17.6995 235.092 9.69946Z" stroke="black" stroke-width="0.5"/>
<path d="M272.092 28.1995C261.592 22.6995 242.592 16.1995 232.092 13.1995L230.092 15.6995L245.092 23.1995C243.592 25.6995 239.592 27.6995 233.592 30.3995C245.592 29.6995 262.592 28.6995 272.092 28.1995Z" stroke="black" stroke-width="0.5"/>
<path d="M277.594 34.4995L283.592 32.1995L273.093 28.1995L229.093 30.6995C221.593 45.6995 206.593 76.1995 198.593 77.1995H213.093C211.593 66.1995 221.093 42.6995 246.094 51.6995C256.594 46.1995 266.594 40.6995 277.594 34.4995Z" stroke="black" stroke-width="0.5"/>
<path d="M278.592 34.1995C266.592 40.6995 256.592 46.1995 246.092 51.6995C250.592 54.6995 261.092 60.6995 260.092 79.6995L285.092 79.1995V77.6995C293.592 76.6995 302.092 80.1995 300.592 66.1995L302.592 56.1995C302.592 54.6995 300.092 50.6995 297.592 50.1995C299.092 47.6995 296.092 38.6995 296.092 38.6995V37.1995L292.092 34.1995L287.092 32.6995L283.592 32.1995L278.592 34.1995Z" stroke="black" stroke-width="0.5"/>
<path d="M296.092 37.1995L296.086 37.1196M296.086 37.1196L295.592 28.6995L281.592 26.6995L273.092 28.1995L283.592 32.1995C293.092 33.1995 292.091 34.6995 296.086 37.1196Z" stroke="black" stroke-width="0.5"/>
<path d="M294.594 36.6997C294.094 34.1996 283.094 33.9995 277.594 34.4995" stroke="black" stroke-width="0.5"/>
<path d="M300.594 66.6995L261.094 68.6995C260.594 63.6995 258.427 59.5328 256.594 57.6995L302.594 55.1995M301.094 52.6995C290.094 51.1995 279.094 46.3995 267.094 40.3995M229.094 30.6995L273.094 28.1995L281.594 26.6995" stroke="black" stroke-width="0.5"/>
<path d="M273.094 43.1995C280.089 43.5492 286.106 43.6543 291.487 44.1995M298.094 45.1995C295.991 44.7488 293.798 44.4336 291.487 44.1995M296.094 37.6995C295.676 37.1143 295.207 36.5851 294.703 36.1094M291.487 44.1995C291.161 43.8547 291.067 43.3317 291.052 42.6995M291.052 42.6995C291.038 42.1092 291.094 41.4238 291.094 40.6995C291.094 38.6995 290.094 34.6995 286.594 32.6995C288.815 32.6995 292.191 33.7399 294.703 36.1094M291.052 42.6995C294.094 41.1995 295.166 37.6395 294.703 36.1094" stroke="black" stroke-width="0.5"/>
<path d="M291.094 40.6995C286.594 40.6995 284.594 36.6995 283.594 34.1995" stroke="black" stroke-width="0.5"/>
<path d="M133.092 12.7994C119.592 16.7994 107.592 22.6995 93.5923 35.6995C100.592 23.6995 116.092 14.1995 131.592 9.19946L133.092 12.7994Z" fill="#EDADBF" stroke="black" stroke-width="0.5"/>
<path d="M131.592 9.19946C111.592 14.8735 93.5923 32.1995 85.5923 30.1995C98.5923 20.6995 114.592 12.1995 131.092 7.69946L131.592 9.19946Z" fill="#EDADBF" stroke="black" stroke-width="0.5"/>
<path d="M10.593 48.1993H4.59295C2.09229 52.1993 2.09229 62.1993 2.59295 65.6993C1.09229 66.6993 1.09288 71.1993 2.09295 72.6993L6.09295 73.1993V74.6993L2.09295 76.6993V78.6993C6.09295 79.6993 14.593 81.6993 22.593 81.1993V79.6993H40.0929C39.4263 71.1993 41.0929 60.6993 50.0929 53.6993C47.5929 49.6993 40.5929 45.1993 37.5929 44.6993C27.5929 43.6993 12.593 46.1993 10.593 48.1993Z" fill="#EDADBF" stroke="black" stroke-width="0.5"/>
<path d="M93.5938 35.6995C75.7604 36.5328 44.0938 41.3995 33.5938 44.3995L37.5938 44.6995C42.5938 46.1995 48.0938 50.5328 50.0938 53.6995C63.0928 44.1995 88.5928 51.1995 87.0928 78.6995H97.0928C90.0928 67.6995 91.0928 45.6995 93.5938 35.6995Z" fill="#EDADBF" stroke="black" stroke-width="0.5"/>
<path d="M10.5918 48.1995H4.5918C37.092 28.6994 59.092 34.6995 85.0918 30.1995L94.092 35.6995C77.092 36.6995 48.0918 40.1995 34.0918 44.3995C26.0918 44.1995 12.0918 46.1995 10.5918 48.1995Z" fill="#EDADBF" stroke="black" stroke-width="0.5"/>
<path d="M37.5937 44.6995C30.0937 43.6995 13.0937 45.6995 10.5937 48.1995C9.79374 50.5995 12.9271 53.5328 14.5937 54.6995C24.0938 56.1995 37.5937 50.1995 37.5937 44.6995Z" fill="#EDADBF" stroke="black" stroke-width="0.5"/>
<path d="M4.59298 48.1995C11.593 49.1995 5.59298 59.6995 2.59298 64.6995C2.09291 57.6995 2.59277 52.1995 4.59298 48.1995Z" fill="#EDADBF" stroke="black" stroke-width="0.5"/>
<path d="M22.5923 84.1995V79.6995H40.0923L40.5923 84.1995H22.5923Z" fill="#EDADBF" stroke="black" stroke-width="0.5"/>
<path d="M3.09375 65.6992C4.59375 68.1992 6.59375 71.3659 6.09375 73.1992M22.5938 79.6992C12.0938 80.1992 7.59375 76.1992 8.59375 72.6992C9.09375 72.1992 10.5938 70.6992 11.5938 70.6992" stroke="black" stroke-width="0.5"/>
<path d="M32.5938 74.6993C30.0938 70.6993 24.5938 65.6994 21.5938 64.1994C19.8437 63.6994 17.2186 63.8244 14.4685 64.1994C12.8436 65.5327 11.5938 68.6993 12.0938 71.6993C12.0938 72.866 13.4012 75.1993 16.0938 75.1993C20.5938 75.1993 27.5938 75.6993 32.5938 74.6993Z" fill="#EDADBF"/>
<path d="M6.59375 65.6994C8.84369 65.1994 11.7186 64.5744 14.4685 64.1994M14.4685 64.1994C17.2186 63.8244 19.8437 63.6994 21.5938 64.1994C24.5938 65.6994 30.0938 70.6993 32.5938 74.6993C27.5938 75.6993 20.5938 75.1993 16.0938 75.1993C13.4012 75.1993 12.0938 72.866 12.0938 71.6993C11.5938 68.6993 12.8436 65.5327 14.4685 64.1994Z" stroke="black" stroke-width="0.5"/>
<path d="M12.0938 71.1994C20.0938 69.6995 23.5938 72.3279 26.5938 73.8279M13.5938 74.1995L31.0938 73.6995" stroke="black" stroke-width="0.5"/>
<path d="M22.5918 82.6992H32.0918C34.0918 82.6992 35.5918 80.6992 35.0918 79.6992M38.5918 79.6992V84.1992" stroke="black" stroke-width="0.5"/>
<path d="M22.5937 81.1997C18.0937 81.1997 13.5937 81.6997 2.0937 78.6997V76.6997L6.0937 74.6997V73.1997L2.0937 72.6997C1.59277 71.1995 0.592969 68.1995 2.59296 65.6995C2.09321 57.6995 2.59321 51.1995 4.5937 48.1992C37.0937 28.6996 59.0937 34.6997 85.0937 30.1997C163.094 -24.8005 245.094 12.1994 282.094 26.6996L295.594 28.6995L296.094 35.6995V38.6995C297.592 43.6995 298.927 48.1995 297.594 50.1995C300.094 51.1995 302.594 54.3661 302.594 56.1995L300.594 66.1995C301.046 77.0474 298.638 77.2717 289.306 77.5841C288.315 77.6173 286.246 77.6515 285.094 77.6995V79.1995L260.094 79.6305M22.5937 81.1997V84.1997H40.592L40.0937 79.6997M22.5937 81.1997V79.6997H40.0937M40.0937 79.6997C37.0937 38.1997 90.5937 41.1997 87.0937 80.1997V82.6995H213.594C207.594 39.1995 262.094 39.1995 260.094 79.6305M259.592 79.6305H260.094" stroke="black"/>
</svg>
