<svg width="303" height="96" viewBox="0 0 303 96" fill="none" xmlns="http://www.w3.org/2000/svg">
<circle cx="62.876" cy="74.5227" r="20.5" fill="#EFC7D3" stroke="black"/>
<circle cx="235.876" cy="74.5227" r="20.5" fill="#EFC7D3" stroke="black"/>
<path d="M132.874 13.0226L131.374 9.52256C171.374 1.52267 192.874 2.02271 231.874 13.5227L228.374 18.0226C208.374 10.0226 190.374 9.02261 174.374 8.52268C171.874 8.02268 167.874 8.02264 165.374 8.52256C155.374 8.52268 143.374 10.0227 132.874 13.0226Z" fill="#EFC7D3" stroke="black" stroke-width="0.5"/>
<path d="M131.374 9.52275L130.874 8.02275C166.874 -2.97729 199.374 1.02258 234.874 10.0228L231.874 13.5228C191.874 1.02271 165.874 2.52271 131.374 9.52275Z" fill="#EFC7D3" stroke="black" stroke-width="0.5"/>
<path d="M131.374 9.52269C182.874 -1.97733 211.374 8.02271 231.874 13.5227" stroke="black" stroke-width="0.5"/>
<path d="M170.876 30.5227L174.376 8.52271C207.876 9.52271 219.376 15.0227 223.876 16.5227L226.359 28.5227C199.369 28.5233 181.874 30.0228 170.876 30.5227Z" fill="#EFC7D3"/>
<path d="M226.876 31.0227L223.876 16.5227C219.376 15.0227 207.876 9.52271 174.376 8.52271L170.876 30.5227C181.876 30.0227 199.376 28.5227 226.376 28.5227" stroke="black" stroke-width="0.5"/>
<path d="M165.376 8.52271C132.376 9.52271 112.376 18.5227 93.376 36.0227L95.876 34.0227L159.876 31.0227L165.376 8.52271Z" fill="#EFC7D3" stroke="black" stroke-width="0.5"/>
<path d="M239.874 23.0227C236.207 20.356 230.374 18.0227 223.874 16.5227L226.374 28.5227H232.874C235.874 27.0227 238.874 24.7914 239.874 23.0227Z" fill="#EFC7D3" stroke="black" stroke-width="0.5"/>
<path d="M96.876 79.0227H163.876L198.376 77.5227H212.876L213.376 83.0227H199.376H98.376H86.876V79.0227H96.876Z" fill="#EFC7D3"/>
<path d="M96.876 79.0227H163.876L198.376 77.5227M96.876 79.0227C96.876 80.5227 97.376 81.5227 98.376 83.0227M96.876 79.0227H86.876V83.0227H98.376M198.376 77.5227L199.376 83.0227M198.376 77.5227H212.876L213.376 83.0227H199.376M199.376 83.0227H98.376" stroke="black" stroke-width="0.5"/>
<path d="M96.8751 79.0227C92.376 74.5227 89.376 52.5227 93.3751 36.0227L165.376 32.0227C161.376 37.0227 160.376 71.0227 163.876 79.0227H96.8751Z" fill="#EFC7D3" stroke="black" stroke-width="0.5"/>
<path d="M228.876 31.0227L165.376 32.0227C161.376 37.0227 160.376 71.0227 163.876 79.0227L198.376 77.5227C202.876 76.0227 209.376 70.5227 228.876 31.0227Z" fill="#EFC7D3" stroke="black" stroke-width="0.5"/>
<path d="M170.876 30.5228C166.376 31.0228 162.876 31.0228 159.876 31.0228L165.376 8.52278C168.376 8.02271 171.376 8.02271 174.376 8.52278L170.876 30.5228Z" fill="#EFC7D3" stroke="black" stroke-width="0.5"/>
<path d="M99.376 32.5228C103.876 38.0228 110.876 34.5228 114.876 33.0228C115.876 17.5227 102.876 25.5227 99.376 32.5228Z" fill="#EFC7D3" stroke="black" stroke-width="0.5"/>
<path d="M234.874 10.0227L231.874 13.5227C248.874 19.0227 259.374 22.0227 271.874 28.5227H273.374L281.374 27.0227C266.374 20.5227 258.874 18.0227 234.874 10.0227Z" fill="#EDADBF" stroke="black" stroke-width="0.5"/>
<path d="M271.874 28.5227C261.374 23.0227 242.374 16.5227 231.874 13.5227L229.874 16.0227L244.874 23.5227C243.374 26.0227 239.374 28.0227 233.374 30.7227C245.374 30.0227 262.374 29.0227 271.874 28.5227Z" fill="#EDADBF" stroke="black" stroke-width="0.5"/>
<path d="M277.376 34.8227L283.374 32.5227L272.875 28.5227L228.875 31.0227C221.375 46.0227 206.375 76.5227 198.375 77.5227H212.875C211.375 66.5227 220.875 43.0227 245.876 52.0227C256.376 46.5227 266.376 41.0227 277.376 34.8227Z" fill="#EDADBF" stroke="black" stroke-width="0.5"/>
<path d="M278.374 34.5227C266.374 41.0227 256.374 46.5227 245.874 52.0227C250.374 55.0227 260.874 61.0227 259.874 80.0227L284.874 79.5227V78.0227C293.374 77.0227 301.874 80.5227 300.374 66.5227L302.374 56.5227C302.374 55.0227 299.874 51.0227 297.374 50.5227C298.874 48.0227 295.874 39.0227 295.874 39.0227V37.5227L291.874 34.5227L286.874 33.0227L283.374 32.5227L278.374 34.5227Z" fill="#EDADBF" stroke="black" stroke-width="0.5"/>
<path d="M281.374 27.0227L272.874 28.5227L283.374 32.5227C292.874 33.5227 291.873 35.0227 295.868 37.4429L295.374 29.0227L281.374 27.0227Z" fill="#EDADBF"/>
<path d="M295.874 37.5227L295.868 37.4429M295.868 37.4429L295.374 29.0227L281.374 27.0227L272.874 28.5227L283.374 32.5227C292.874 33.5227 291.873 35.0227 295.868 37.4429Z" stroke="black" stroke-width="0.5"/>
<path d="M294.376 37.0229C293.876 34.5228 282.876 34.3227 277.376 34.8227" stroke="black" stroke-width="0.5"/>
<path d="M300.376 67.0227L260.876 69.0227C260.376 64.0227 258.209 59.856 256.376 58.0227L302.376 55.5227M300.876 53.0227C289.876 51.5227 278.876 46.7227 266.876 40.7227M228.876 31.0227L272.876 28.5227L281.376 27.0227" stroke="black" stroke-width="0.5"/>
<path d="M290.876 41.0227C290.876 39.0227 289.876 35.0227 286.376 33.0227C288.597 33.0227 291.974 34.0631 294.485 36.4327C294.949 37.9627 293.876 41.5227 290.834 43.0227C290.821 42.4324 290.876 41.747 290.876 41.0227Z" fill="#EDADBF"/>
<path d="M272.876 43.5227C279.872 43.8725 285.889 43.9776 291.269 44.5227M297.876 45.5227C295.773 45.0721 293.58 44.7568 291.269 44.5227M295.876 38.0227C295.458 37.4376 294.989 36.9084 294.485 36.4327M291.269 44.5227C290.943 44.1779 290.849 43.6549 290.834 43.0227M290.834 43.0227C290.821 42.4324 290.876 41.747 290.876 41.0227C290.876 39.0227 289.876 35.0227 286.376 33.0227C288.597 33.0227 291.974 34.0631 294.485 36.4327M290.834 43.0227C293.876 41.5227 294.949 37.9627 294.485 36.4327" stroke="black" stroke-width="0.5"/>
<path d="M290.876 41.0227C286.376 41.0227 284.376 37.0227 283.376 34.5227" stroke="black" stroke-width="0.5"/>
<path d="M132.874 13.1227C119.374 17.1227 107.374 23.0227 93.374 36.0227C100.374 24.0227 115.874 14.5227 131.374 9.52271L132.874 13.1227Z" fill="#E56E90" stroke="black" stroke-width="0.5"/>
<path d="M131.374 9.52271C111.374 15.1967 93.374 32.5227 85.374 30.5227C98.374 21.0227 114.374 12.5227 130.874 8.02271L131.374 9.52271Z" fill="#E56E90" stroke="black" stroke-width="0.5"/>
<path d="M10.3747 48.5227H4.37469C1.87402 52.5227 1.87402 62.5227 2.37469 66.0227C0.874023 67.0227 0.874621 71.5227 1.87469 73.0227L5.87469 73.5227V75.0227L1.87469 77.0227V79.0227C5.87469 80.0227 14.3747 82.0227 22.3747 81.5227V80.0227H39.8747C39.208 71.5227 40.8747 61.0227 49.8747 54.0227C47.3747 50.0227 40.3747 45.5227 37.3747 45.0227C27.3747 44.0227 12.3747 46.5227 10.3747 48.5227Z" fill="#E56E90" stroke="black" stroke-width="0.5"/>
<path d="M93.376 36.0227C75.5426 36.856 43.876 41.7227 33.376 44.7227L37.376 45.0227C42.376 46.5227 47.876 50.856 49.876 54.0227C62.875 44.5227 88.375 51.5227 86.875 79.0227H96.875C89.875 68.0227 90.875 46.0227 93.376 36.0227Z" fill="#E56E90" stroke="black" stroke-width="0.5"/>
<path d="M10.374 48.5228H4.37402C36.8742 29.0227 58.8743 35.0227 84.874 30.5227L93.8743 36.0227C76.8743 37.0227 47.874 40.5227 33.874 44.7227C25.874 44.5227 11.874 46.5227 10.374 48.5228Z" fill="#E56E90" stroke="black" stroke-width="0.5"/>
<path d="M37.3755 45.0228C29.8755 44.0227 12.8755 46.0227 10.3755 48.5228C9.57548 50.9227 12.7088 53.856 14.3755 55.0227C23.8755 56.5227 37.3755 50.5227 37.3755 45.0228Z" fill="#E56E90" stroke="black" stroke-width="0.5"/>
<path d="M4.37472 48.5227C11.3747 49.5227 5.37472 60.0227 2.37472 65.0227C1.87465 58.0227 2.37451 52.5227 4.37472 48.5227Z" fill="#E56E90" stroke="black" stroke-width="0.5"/>
<path d="M22.374 84.5227V80.0227H39.874L40.374 84.5227H22.374Z" fill="#E56E90" stroke="black" stroke-width="0.5"/>
<path d="M2.87598 66.0225C4.37598 68.5225 6.37598 71.6891 5.87598 73.5225M22.376 80.0225C11.876 80.5225 7.37598 76.5225 8.37598 73.0225C8.87598 72.5225 10.376 71.0225 11.376 71.0225" stroke="black" stroke-width="0.5"/>
<path d="M32.376 75.0226C29.876 71.0226 24.376 66.0227 21.376 64.5227C19.6259 64.0227 17.0008 64.1477 14.2508 64.5227C12.6258 65.856 11.376 69.0226 11.876 72.0226C11.876 73.1892 13.1834 75.5226 15.876 75.5226C20.376 75.5226 27.376 76.0226 32.376 75.0226Z" fill="#E56E90"/>
<path d="M6.37598 66.0227C8.62592 65.5226 11.5008 64.8977 14.2508 64.5227M14.2508 64.5227C17.0008 64.1477 19.6259 64.0227 21.376 64.5227C24.376 66.0227 29.876 71.0226 32.376 75.0226C27.376 76.0226 20.376 75.5226 15.876 75.5226C13.1834 75.5226 11.876 73.1892 11.876 72.0226C11.376 69.0226 12.6258 65.856 14.2508 64.5227Z" stroke="black" stroke-width="0.5"/>
<path d="M11.876 71.5227C19.876 70.0227 23.376 72.6512 26.376 74.1512M13.376 74.5227L30.876 74.0227" stroke="black" stroke-width="0.5"/>
<path d="M22.374 83.0225H31.874C33.874 83.0225 35.374 81.0225 34.874 80.0225M38.374 80.0225V84.5225" stroke="black" stroke-width="0.5"/>
<path d="M22.3759 81.5229C17.8759 81.5229 13.3759 82.0229 1.87592 79.0229V77.0229L5.87592 75.0229V73.5229L1.87592 73.023C1.375 71.5227 0.375196 68.5227 2.37519 66.0227C1.87543 58.0227 2.37543 51.5227 4.37592 48.5224C36.8759 29.0228 58.8759 35.0229 84.8759 30.5229C162.876 -24.4772 244.876 12.5227 281.876 27.0229L295.376 29.0227L295.876 36.0227V39.0227C297.374 44.0227 298.709 48.5227 297.376 50.5227C299.876 51.5227 302.376 54.6894 302.376 56.5227L300.376 66.5227C300.828 77.3706 298.42 77.5949 289.088 77.9073C288.097 77.9405 286.028 77.9747 284.876 78.0227V79.5227L259.876 79.9537M22.3759 81.5229V84.5229H40.3743L39.8759 80.0229M22.3759 81.5229V80.0229H39.8759M39.8759 80.0229C36.8759 38.5229 90.3759 41.5229 86.8759 80.5229V83.0227H213.376C207.376 39.5227 261.876 39.5227 259.876 79.9537M259.374 79.9537H259.876" stroke="black"/>
</svg>
