<svg width="303" height="96" viewBox="0 0 303 96" fill="none" xmlns="http://www.w3.org/2000/svg">
<circle cx="62.6562" cy="74.5378" r="20.5" stroke="black"/>
<circle cx="235.656" cy="74.5378" r="20.5" stroke="black"/>
<path d="M132.654 13.0377L131.154 9.5377C171.154 1.53781 192.654 2.03784 231.654 13.5378L228.154 18.0378C208.154 10.0378 190.154 9.03775 174.154 8.53782C171.654 8.03782 167.654 8.03778 165.154 8.5377C155.154 8.53782 143.154 10.0378 132.654 13.0377Z" fill="#EDADBF" stroke="black" stroke-width="0.5"/>
<path d="M131.154 9.53789L130.654 8.03789C166.654 -2.96216 199.154 1.03772 234.654 10.0379L231.654 13.5379C191.654 1.03784 165.654 2.53784 131.154 9.53789Z" fill="#EDADBF" stroke="black" stroke-width="0.5"/>
<path d="M131.154 9.53771C182.654 -1.96232 211.154 8.03772 231.654 13.5377" stroke="black" stroke-width="0.5"/>
<path d="M170.656 30.5378L174.156 8.53784C207.656 9.53784 219.156 15.0378 223.656 16.5378L226.139 28.5378C199.149 28.5385 181.654 30.0379 170.656 30.5378Z" fill="#EDADBF"/>
<path d="M226.656 31.0378L223.656 16.5378C219.156 15.0378 207.656 9.53784 174.156 8.53784L170.656 30.5378C181.656 30.0378 199.156 28.5378 226.156 28.5378" stroke="black" stroke-width="0.5"/>
<path d="M165.156 8.53784C132.156 9.53784 112.156 18.5378 93.1562 36.0378L95.6562 34.0378L159.656 31.0378L165.156 8.53784Z" fill="#EDADBF" stroke="black" stroke-width="0.5"/>
<path d="M239.654 23.0378C235.988 20.3712 230.154 18.0378 223.654 16.5378L226.154 28.5378H232.654C235.654 27.0378 238.654 24.8066 239.654 23.0378Z" fill="#EDADBF" stroke="black" stroke-width="0.5"/>
<path d="M96.6562 79.0378H163.656L198.156 77.5378H212.656L213.156 83.0378H199.156H98.1562H86.6562V79.0378H96.6562Z" fill="#EDADBF"/>
<path d="M96.6562 79.0378H163.656L198.156 77.5378M96.6562 79.0378C96.6562 80.5378 97.1562 81.5378 98.1562 83.0378M96.6562 79.0378H86.6562V83.0378H98.1562M198.156 77.5378L199.156 83.0378M198.156 77.5378H212.656L213.156 83.0378H199.156M199.156 83.0378H98.1562" stroke="black" stroke-width="0.5"/>
<path d="M96.6554 79.0378C92.1562 74.5378 89.1563 52.5378 93.1554 36.0378L165.156 32.0378C161.156 37.0378 160.156 71.0378 163.656 79.0378H96.6554Z" fill="#EDADBF" stroke="black" stroke-width="0.5"/>
<path d="M228.656 31.0378L165.156 32.0378C161.156 37.0378 160.156 71.0378 163.656 79.0378L198.156 77.5378C202.656 76.0378 209.156 70.5378 228.656 31.0378Z" fill="#EDADBF" stroke="black" stroke-width="0.5"/>
<path d="M170.656 30.5379C166.156 31.0379 162.656 31.0379 159.656 31.0379L165.156 8.53792C168.156 8.03784 171.156 8.03784 174.156 8.53792L170.656 30.5379Z" fill="#EDADBF" stroke="black" stroke-width="0.5"/>
<path d="M99.1562 32.5379C103.656 38.0379 110.656 34.5379 114.656 33.0379C115.656 17.5377 102.656 25.5377 99.1562 32.5379Z" fill="#EDADBF" stroke="black" stroke-width="0.5"/>
<path d="M234.654 10.0378L231.654 13.5378C248.654 19.0378 259.154 22.0378 271.654 28.5378H273.154L281.154 27.0378C266.154 20.5378 258.654 18.0378 234.654 10.0378Z" fill="#E0426F" stroke="black" stroke-width="0.5"/>
<path d="M271.654 28.5378C261.154 23.0378 242.154 16.5378 231.654 13.5378L229.654 16.0378L244.654 23.5378C243.154 26.0378 239.154 28.0378 233.154 30.7378C245.154 30.0378 262.154 29.0378 271.654 28.5378Z" fill="#E0426F" stroke="black" stroke-width="0.5"/>
<path d="M277.156 34.8378L283.155 32.5378L272.655 28.5378L228.655 31.0378C221.155 46.0378 206.155 76.5378 198.155 77.5378H212.655C211.155 66.5378 220.655 43.0378 245.656 52.0378C256.156 46.5378 266.156 41.0378 277.156 34.8378Z" fill="#E0426F" stroke="black" stroke-width="0.5"/>
<path d="M278.154 34.5379C266.154 41.0379 256.154 46.5379 245.654 52.0379C250.154 55.0378 260.654 61.0378 259.654 80.0378L284.654 79.5378V78.0378C293.154 77.0378 301.654 80.5378 300.154 66.5378L302.154 56.5378C302.154 55.0378 299.654 51.0378 297.154 50.5378C298.654 48.0378 295.654 39.0378 295.654 39.0378V37.5378L291.654 34.5378L286.654 33.0378L283.154 32.5378L278.154 34.5379Z" fill="#E0426F" stroke="black" stroke-width="0.5"/>
<path d="M281.154 27.0378L272.654 28.5378L283.154 32.5378C292.654 33.5378 291.653 35.0378 295.648 37.458L295.154 29.0378L281.154 27.0378Z" fill="#E0426F"/>
<path d="M295.654 37.5378L295.648 37.458M295.648 37.458L295.154 29.0378L281.154 27.0378L272.654 28.5378L283.154 32.5378C292.654 33.5378 291.653 35.0378 295.648 37.458Z" stroke="black" stroke-width="0.5"/>
<path d="M294.156 37.038C293.656 34.5379 282.656 34.3379 277.156 34.8379" stroke="black" stroke-width="0.5"/>
<path d="M300.156 67.0378L260.656 69.0378C260.156 64.0378 257.99 59.8712 256.156 58.0378L302.156 55.5378M300.656 53.0378C289.656 51.5378 278.656 46.7378 266.656 40.7378M228.656 31.0378L272.656 28.5378L281.156 27.0378" stroke="black" stroke-width="0.5"/>
<path d="M290.656 41.0378C290.656 39.0378 289.656 35.0378 286.156 33.0378C288.377 33.0378 291.754 34.0782 294.265 36.4478C294.729 37.9778 293.656 41.5378 290.614 43.0378C290.601 42.4476 290.656 41.7621 290.656 41.0378Z" fill="#E0426F"/>
<path d="M272.656 43.5378C279.652 43.8876 285.669 43.9927 291.049 44.5378M297.656 45.5378C295.553 45.0872 293.36 44.7719 291.049 44.5378M295.656 38.0378C295.238 37.4527 294.769 36.9235 294.265 36.4478M291.049 44.5378C290.723 44.1931 290.629 43.67 290.614 43.0378M290.614 43.0378C290.601 42.4476 290.656 41.7621 290.656 41.0378C290.656 39.0378 289.656 35.0378 286.156 33.0378C288.377 33.0378 291.754 34.0782 294.265 36.4478M290.614 43.0378C293.656 41.5378 294.729 37.9778 294.265 36.4478" stroke="black" stroke-width="0.5"/>
<path d="M290.656 41.0378C286.156 41.0378 284.156 37.0378 283.156 34.5378" stroke="black" stroke-width="0.5"/>
<path d="M132.654 13.1378C119.154 17.1378 107.154 23.0378 93.1543 36.0378C100.154 24.0378 115.654 14.5378 131.154 9.53784L132.654 13.1378Z" fill="#E0426F" stroke="black" stroke-width="0.5"/>
<path d="M131.154 9.53784C111.154 15.2119 93.1543 32.5378 85.1543 30.5378C98.1543 21.0378 114.154 12.5378 130.654 8.03784L131.154 9.53784Z" fill="#E0426F" stroke="black" stroke-width="0.5"/>
<path d="M10.155 48.5377H4.15496C1.6543 52.5377 1.6543 62.5377 2.15496 66.0377C0.654297 67.0377 0.654894 71.5377 1.65496 73.0377L5.65496 73.5377V75.0377L1.65496 77.0377V79.0377C5.65496 80.0377 14.155 82.0377 22.155 81.5377V80.0377H39.655C38.9883 71.5377 40.655 61.0377 49.655 54.0377C47.155 50.0377 40.155 45.5377 37.155 45.0377C27.155 44.0377 12.155 46.5377 10.155 48.5377Z" fill="#E0426F" stroke="black" stroke-width="0.5"/>
<path d="M93.1562 36.0378C75.3229 36.8712 43.6562 41.7378 33.1562 44.7378L37.1562 45.0378C42.1562 46.5378 47.6562 50.8712 49.6562 54.0378C62.6553 44.5378 88.1553 51.5378 86.6553 79.0378H96.6553C89.6553 68.0378 90.6553 46.0378 93.1562 36.0378Z" fill="#E0426F" stroke="black" stroke-width="0.5"/>
<path d="M10.1543 48.5379H4.1543C36.6545 29.0378 58.6545 35.0378 84.6543 30.5378L93.6545 36.0378C76.6545 37.0378 47.6543 40.5378 33.6543 44.7378C25.6543 44.5378 11.6543 46.5378 10.1543 48.5379Z" fill="#E0426F" stroke="black" stroke-width="0.5"/>
<path d="M37.1558 45.0379C29.6558 44.0378 12.6558 46.0378 10.1558 48.5379C9.35575 50.9379 12.4891 53.8712 14.1558 55.0378C23.6558 56.5378 37.1558 50.5378 37.1558 45.0379Z" fill="#E0426F" stroke="black" stroke-width="0.5"/>
<path d="M4.15499 48.5378C11.155 49.5378 5.15499 60.0378 2.15499 65.0378C1.65492 58.0378 2.15479 52.5378 4.15499 48.5378Z" fill="#E0426F" stroke="black" stroke-width="0.5"/>
<path d="M22.1543 84.5378V80.0378H39.6543L40.1543 84.5378H22.1543Z" fill="#E0426F" stroke="black" stroke-width="0.5"/>
<path d="M2.65625 66.0376C4.15625 68.5376 6.15625 71.7043 5.65625 73.5376M22.1562 80.0376C11.6562 80.5376 7.15625 76.5376 8.15625 73.0376C8.65625 72.5376 10.1562 71.0376 11.1562 71.0376" stroke="black" stroke-width="0.5"/>
<path d="M32.1562 75.0377C29.6562 71.0377 24.1562 66.0378 21.1562 64.5378C19.4062 64.0378 16.7811 64.1628 14.031 64.5378C12.4061 65.8711 11.1562 69.0377 11.6562 72.0377C11.6562 73.2044 12.9637 75.5377 15.6562 75.5377C20.1562 75.5377 27.1562 76.0377 32.1562 75.0377Z" fill="#E0426F"/>
<path d="M6.15625 66.0378C8.40619 65.5378 11.2811 64.9128 14.031 64.5378M14.031 64.5378C16.7811 64.1628 19.4062 64.0378 21.1562 64.5378C24.1562 66.0378 29.6562 71.0377 32.1562 75.0377C27.1562 76.0377 20.1562 75.5377 15.6562 75.5377C12.9637 75.5377 11.6562 73.2044 11.6562 72.0377C11.1562 69.0377 12.4061 65.8711 14.031 64.5378Z" stroke="black" stroke-width="0.5"/>
<path d="M11.6562 71.5378C19.6562 70.0378 23.1562 72.6663 26.1562 74.1663M13.1562 74.5378L30.6562 74.0378" stroke="black" stroke-width="0.5"/>
<path d="M22.1543 83.0376H31.6543C33.6543 83.0376 35.1543 81.0376 34.6543 80.0376M38.1543 80.0376V84.5376" stroke="black" stroke-width="0.5"/>
<path d="M22.1562 81.5381C17.6562 81.5381 13.1562 82.0381 1.6562 79.0381V77.0381L5.6562 75.0381V73.5381L1.6562 73.0381C1.15527 71.5378 0.155469 68.5378 2.15546 66.0378C1.65571 58.0378 2.15571 51.5378 4.1562 48.5376C36.6562 29.038 58.6562 35.038 84.6562 30.538C162.656 -24.4621 244.656 12.5378 281.656 27.038L295.156 29.0378L295.656 36.0378V39.0378C297.155 44.0378 298.49 48.5378 297.156 50.5378C299.656 51.5378 302.156 54.7045 302.156 56.5378L300.156 66.5378C300.608 77.3858 298.2 77.61 288.868 77.9225C287.877 77.9557 285.808 77.9898 284.656 78.0378V79.5378L259.656 79.9689M22.1562 81.5381V84.5381H40.1545L39.6562 80.0381M22.1562 81.5381V80.0381H39.6562M39.6562 80.0381C36.6562 38.5381 90.1562 41.5381 86.6562 80.5381V83.0378H213.156C207.156 39.5378 261.656 39.5378 259.656 79.9689M259.155 79.9689H259.656" stroke="black"/>
</svg>
