<svg width="303" height="96" viewBox="0 0 303 96" fill="none" xmlns="http://www.w3.org/2000/svg">
<circle cx="62.876" cy="74.2297" r="20.5" fill="#EFC7D3" stroke="black"/>
<circle cx="235.876" cy="74.2297" r="20.5" fill="#EFC7D3" stroke="black"/>
<path d="M132.874 12.7296L131.374 9.22959C171.374 1.2297 192.874 1.72974 231.874 13.2297L228.374 17.7297C208.374 9.72965 190.374 8.72964 174.374 8.22971C171.874 7.72971 167.874 7.72968 165.374 8.22959C155.374 8.22971 143.374 9.72971 132.874 12.7296Z" fill="#E0426F" stroke="black" stroke-width="0.5"/>
<path d="M131.374 9.22978L130.874 7.72978C166.874 -3.27026 199.374 0.72961 234.874 9.72978L231.874 13.2298C191.874 0.729736 165.874 2.22974 131.374 9.22978Z" fill="#E0426F" stroke="black" stroke-width="0.5"/>
<path d="M131.374 9.2296C182.874 -2.27042 211.374 7.72961 231.874 13.2296" stroke="black" stroke-width="0.5"/>
<path d="M170.876 30.2297L174.376 8.22974C207.876 9.22974 219.376 14.7297 223.876 16.2297L226.359 28.2297C199.369 28.2304 181.874 29.7298 170.876 30.2297Z" fill="#E0426F"/>
<path d="M226.876 30.7297L223.876 16.2297C219.376 14.7297 207.876 9.22974 174.376 8.22974L170.876 30.2297C181.876 29.7297 199.376 28.2297 226.376 28.2297" stroke="black" stroke-width="0.5"/>
<path d="M165.376 8.22974C132.376 9.22974 112.376 18.2297 93.376 35.7297L95.876 33.7297L159.876 30.7297L165.376 8.22974Z" fill="#E0426F" stroke="black" stroke-width="0.5"/>
<path d="M239.874 22.7297C236.207 20.0631 230.374 17.7297 223.874 16.2297L226.374 28.2297H232.874C235.874 26.7297 238.874 24.4985 239.874 22.7297Z" fill="#E0426F" stroke="black" stroke-width="0.5"/>
<path d="M96.876 78.7297H163.876L198.376 77.2297H212.876L213.376 82.7297H199.376H98.376H86.876V78.7297H96.876Z" fill="#E0426F"/>
<path d="M96.876 78.7297H163.876L198.376 77.2297M96.876 78.7297C96.876 80.2297 97.376 81.2297 98.376 82.7297M96.876 78.7297H86.876V82.7297H98.376M198.376 77.2297L199.376 82.7297M198.376 77.2297H212.876L213.376 82.7297H199.376M199.376 82.7297H98.376" stroke="black" stroke-width="0.5"/>
<path d="M96.8751 78.7297C92.376 74.2297 89.376 52.2297 93.3751 35.7297L165.376 31.7297C161.376 36.7297 160.376 70.7297 163.876 78.7297H96.8751Z" fill="#E0426F" stroke="black" stroke-width="0.5"/>
<path d="M228.876 30.7297L165.376 31.7297C161.376 36.7297 160.376 70.7297 163.876 78.7297L198.376 77.2297C202.876 75.7297 209.376 70.2297 228.876 30.7297Z" fill="#E0426F" stroke="black" stroke-width="0.5"/>
<path d="M170.876 30.2298C166.376 30.7298 162.876 30.7298 159.876 30.7298L165.376 8.22981C168.376 7.72974 171.376 7.72974 174.376 8.22981L170.876 30.2298Z" fill="#E0426F" stroke="black" stroke-width="0.5"/>
<path d="M99.376 32.2297C103.876 37.7297 110.876 34.2297 114.876 32.7297C115.876 17.2296 102.876 25.2296 99.376 32.2297Z" fill="#E0426F" stroke="black" stroke-width="0.5"/>
<path d="M234.874 9.72974L231.874 13.2297C248.874 18.7297 259.374 21.7297 271.874 28.2297H273.374L281.374 26.7297C266.374 20.2297 258.874 17.7297 234.874 9.72974Z" fill="#EDADBF" stroke="black" stroke-width="0.5"/>
<path d="M271.874 28.2297C261.374 22.7297 242.374 16.2297 231.874 13.2297L229.874 15.7297L244.874 23.2297C243.374 25.7297 239.374 27.7297 233.374 30.4297C245.374 29.7297 262.374 28.7297 271.874 28.2297Z" fill="#EDADBF" stroke="black" stroke-width="0.5"/>
<path d="M277.376 34.5297L283.374 32.2297L272.875 28.2297L228.875 30.7297C221.375 45.7297 206.375 76.2297 198.375 77.2297H212.875C211.375 66.2297 220.875 42.7297 245.876 51.7297C256.376 46.2297 266.376 40.7297 277.376 34.5297Z" fill="#EDADBF" stroke="black" stroke-width="0.5"/>
<path d="M278.374 34.2298C266.374 40.7298 256.374 46.2298 245.874 51.7298C250.374 54.7297 260.874 60.7297 259.874 79.7297L284.874 79.2297V77.7297C293.374 76.7297 301.874 80.2297 300.374 66.2297L302.374 56.2297C302.374 54.7297 299.874 50.7297 297.374 50.2297C298.874 47.7297 295.874 38.7297 295.874 38.7297V37.2297L291.874 34.2297L286.874 32.7297L283.374 32.2297L278.374 34.2298Z" fill="#EDADBF" stroke="black" stroke-width="0.5"/>
<path d="M281.374 26.7297L272.874 28.2297L283.374 32.2297C292.874 33.2297 291.873 34.7297 295.868 37.1499L295.374 28.7297L281.374 26.7297Z" fill="#EDADBF"/>
<path d="M295.874 37.2297L295.868 37.1499M295.868 37.1499L295.374 28.7297L281.374 26.7297L272.874 28.2297L283.374 32.2297C292.874 33.2297 291.873 34.7297 295.868 37.1499Z" stroke="black" stroke-width="0.5"/>
<path d="M294.376 36.7299C293.876 34.2298 282.876 34.0297 277.376 34.5297" stroke="black" stroke-width="0.5"/>
<path d="M300.376 66.7297L260.876 68.7297C260.376 63.7297 258.209 59.5631 256.376 57.7297L302.376 55.2297M300.876 52.7297C289.876 51.2297 278.876 46.4297 266.876 40.4297M228.876 30.7297L272.876 28.2297L281.376 26.7297" stroke="black" stroke-width="0.5"/>
<path d="M290.876 40.7297C290.876 38.7297 289.876 34.7297 286.376 32.7297C288.597 32.7297 291.974 33.7701 294.485 36.1397C294.949 37.6697 293.876 41.2297 290.834 42.7297C290.821 42.1395 290.876 41.454 290.876 40.7297Z" fill="#EDADBF"/>
<path d="M272.876 43.2297C279.872 43.5795 285.889 43.6846 291.269 44.2297M297.876 45.2297C295.773 44.7791 293.58 44.4638 291.269 44.2297M295.876 37.7297C295.458 37.1446 294.989 36.6154 294.485 36.1397M291.269 44.2297C290.943 43.885 290.849 43.3619 290.834 42.7297M290.834 42.7297C290.821 42.1395 290.876 41.454 290.876 40.7297C290.876 38.7297 289.876 34.7297 286.376 32.7297C288.597 32.7297 291.974 33.7701 294.485 36.1397M290.834 42.7297C293.876 41.2297 294.949 37.6697 294.485 36.1397" stroke="black" stroke-width="0.5"/>
<path d="M290.876 40.7297C286.376 40.7297 284.376 36.7297 283.376 34.2297" stroke="black" stroke-width="0.5"/>
<path d="M132.874 12.8297C119.374 16.8297 107.374 22.7297 93.374 35.7297C100.374 23.7297 115.874 14.2297 131.374 9.22974L132.874 12.8297Z" fill="#E0426F" stroke="black" stroke-width="0.5"/>
<path d="M131.374 9.22974C111.374 14.9038 93.374 32.2297 85.374 30.2297C98.374 20.7297 114.374 12.2297 130.874 7.72974L131.374 9.22974Z" fill="#E0426F" stroke="black" stroke-width="0.5"/>
<path d="M10.3747 48.2296H4.37469C1.87402 52.2296 1.87402 62.2296 2.37469 65.7296C0.874023 66.7296 0.874621 71.2296 1.87469 72.7296L5.87469 73.2296V74.7296L1.87469 76.7296V78.7296C5.87469 79.7296 14.3747 81.7296 22.3747 81.2296V79.7296H39.8747C39.208 71.2296 40.8747 60.7296 49.8747 53.7296C47.3747 49.7296 40.3747 45.2296 37.3747 44.7296C27.3747 43.7296 12.3747 46.2296 10.3747 48.2296Z" fill="#E0426F" stroke="black" stroke-width="0.5"/>
<path d="M93.376 35.7297C75.5426 36.5631 43.876 41.4297 33.376 44.4297L37.376 44.7297C42.376 46.2297 47.876 50.5631 49.876 53.7297C62.875 44.2297 88.375 51.2297 86.875 78.7297H96.875C89.875 67.7297 90.875 45.7297 93.376 35.7297Z" fill="#E0426F" stroke="black" stroke-width="0.5"/>
<path d="M10.374 48.2298H4.37402C36.8742 28.7297 58.8743 34.7297 84.874 30.2297L93.8743 35.7297C76.8743 36.7297 47.874 40.2297 33.874 44.4297C25.874 44.2297 11.874 46.2297 10.374 48.2298Z" fill="#E0426F" stroke="black" stroke-width="0.5"/>
<path d="M37.3755 44.7298C29.8755 43.7297 12.8755 45.7297 10.3755 48.2298C9.57548 50.6298 12.7088 53.5631 14.3755 54.7297C23.8755 56.2297 37.3755 50.2297 37.3755 44.7298Z" fill="#E0426F" stroke="black" stroke-width="0.5"/>
<path d="M4.37472 48.2297C11.3747 49.2297 5.37472 59.7297 2.37472 64.7297C1.87465 57.7297 2.37451 52.2297 4.37472 48.2297Z" fill="#E0426F" stroke="black" stroke-width="0.5"/>
<path d="M22.374 84.2297V79.7297H39.874L40.374 84.2297H22.374Z" fill="#E0426F" stroke="black" stroke-width="0.5"/>
<path d="M2.87598 65.7295C4.37598 68.2295 6.37598 71.3962 5.87598 73.2295M22.376 79.7295C11.876 80.2295 7.37598 76.2295 8.37598 72.7295C8.87598 72.2295 10.376 70.7295 11.376 70.7295" stroke="black" stroke-width="0.5"/>
<path d="M32.376 74.7296C29.876 70.7296 24.376 65.7297 21.376 64.2297C19.6259 63.7297 17.0008 63.8547 14.2508 64.2297C12.6258 65.563 11.376 68.7296 11.876 71.7296C11.876 72.8963 13.1834 75.2296 15.876 75.2296C20.376 75.2296 27.376 75.7296 32.376 74.7296Z" fill="#E0426F"/>
<path d="M6.37598 65.7297C8.62592 65.2297 11.5008 64.6047 14.2508 64.2297M14.2508 64.2297C17.0008 63.8547 19.6259 63.7297 21.376 64.2297C24.376 65.7297 29.876 70.7296 32.376 74.7296C27.376 75.7296 20.376 75.2296 15.876 75.2296C13.1834 75.2296 11.876 72.8963 11.876 71.7296C11.376 68.7296 12.6258 65.563 14.2508 64.2297Z" stroke="black" stroke-width="0.5"/>
<path d="M11.876 71.2297C19.876 69.7297 23.376 72.3582 26.376 73.8582M13.376 74.2297L30.876 73.7297" stroke="black" stroke-width="0.5"/>
<path d="M22.374 82.7295H31.874C33.874 82.7295 35.374 80.7295 34.874 79.7295M38.374 79.7295V84.2295" stroke="black" stroke-width="0.5"/>
<path d="M22.3759 81.23C17.8759 81.23 13.3759 81.73 1.87592 78.73V76.73L5.87592 74.73V73.23L1.87592 72.73C1.375 71.2297 0.375196 68.2297 2.37519 65.7297C1.87543 57.7297 2.37543 51.2297 4.37592 48.2295C36.8759 28.7299 58.8759 34.7299 84.8759 30.2299C162.876 -24.7702 244.876 12.2297 281.876 26.7299L295.376 28.7297L295.876 35.7297V38.7297C297.374 43.7297 298.709 48.2297 297.376 50.2297C299.876 51.2297 302.376 54.3964 302.376 56.2297L300.376 66.2297C300.828 77.0776 298.42 77.3019 289.088 77.6144C288.097 77.6476 286.028 77.6817 284.876 77.7297V79.2297L259.876 79.6608M22.3759 81.23V84.23H40.3743L39.8759 79.73M22.3759 81.23V79.73H39.8759M39.8759 79.73C36.8759 38.23 90.3759 41.23 86.8759 80.23V82.7297H213.376C207.376 39.2297 261.876 39.2297 259.876 79.6608M259.374 79.6608H259.876" stroke="black"/>
</svg>
