<svg width="303" height="96" viewBox="0 0 303 96" fill="none" xmlns="http://www.w3.org/2000/svg">
<circle cx="62.6562" cy="74.3535" r="20.5" stroke="black"/>
<circle cx="235.656" cy="74.3535" r="20.5" stroke="black"/>
<path d="M132.654 12.8534L131.154 9.35337C171.154 1.35348 192.654 1.85352 231.654 13.3535L228.154 17.8535C208.154 9.85343 190.154 8.85342 174.154 8.35349C171.654 7.85349 167.654 7.85345 165.154 8.35337C155.154 8.35349 143.154 9.85349 132.654 12.8534Z" fill="#EFC7D3" stroke="black" stroke-width="0.5"/>
<path d="M131.154 9.35356L130.654 7.85356C166.654 -3.14648 199.154 0.85339 234.654 9.85356L231.654 13.3536C191.654 0.853516 165.654 2.35352 131.154 9.35356Z" fill="#EFC7D3" stroke="black" stroke-width="0.5"/>
<path d="M131.154 9.3535C182.654 -2.14652 211.154 7.85352 231.654 13.3535" stroke="black" stroke-width="0.5"/>
<path d="M170.656 30.3535L174.156 8.35352C207.656 9.35352 219.156 14.8535 223.656 16.3535L226.139 28.3535C199.149 28.3542 181.654 29.8536 170.656 30.3535Z" fill="#EFC7D3"/>
<path d="M226.656 30.8535L223.656 16.3535C219.156 14.8535 207.656 9.35352 174.156 8.35352L170.656 30.3535C181.656 29.8535 199.156 28.3535 226.156 28.3535" stroke="black" stroke-width="0.5"/>
<path d="M165.156 8.35352C132.156 9.35352 112.156 18.3535 93.1562 35.8535L95.6562 33.8535L159.656 30.8535L165.156 8.35352Z" fill="#EFC7D3" stroke="black" stroke-width="0.5"/>
<path d="M239.654 22.8535C235.988 20.1868 230.154 17.8535 223.654 16.3535L226.154 28.3535H232.654C235.654 26.8535 238.654 24.6223 239.654 22.8535Z" fill="#EFC7D3" stroke="black" stroke-width="0.5"/>
<path d="M96.6562 78.8535H163.656L198.156 77.3535H212.656L213.156 82.8535H199.156H98.1562H86.6562V78.8535H96.6562Z" fill="#EFC7D3"/>
<path d="M96.6562 78.8535H163.656L198.156 77.3535M96.6562 78.8535C96.6562 80.3535 97.1562 81.3535 98.1562 82.8535M96.6562 78.8535H86.6562V82.8535H98.1562M198.156 77.3535L199.156 82.8535M198.156 77.3535H212.656L213.156 82.8535H199.156M199.156 82.8535H98.1562" stroke="black" stroke-width="0.5"/>
<path d="M96.6554 78.8535C92.1562 74.3535 89.1563 52.3535 93.1554 35.8535L165.156 31.8535C161.156 36.8535 160.156 70.8535 163.656 78.8535H96.6554Z" fill="#EFC7D3" stroke="black" stroke-width="0.5"/>
<path d="M228.656 30.8535L165.156 31.8535C161.156 36.8535 160.156 70.8535 163.656 78.8535L198.156 77.3535C202.656 75.8535 209.156 70.3535 228.656 30.8535Z" fill="#EFC7D3" stroke="black" stroke-width="0.5"/>
<path d="M170.656 30.3536C166.156 30.8536 162.656 30.8536 159.656 30.8536L165.156 8.35359C168.156 7.85352 171.156 7.85352 174.156 8.35359L170.656 30.3536Z" fill="#EFC7D3" stroke="black" stroke-width="0.5"/>
<path d="M99.1562 32.3537C103.656 37.8537 110.656 34.3537 114.656 32.8537C115.656 17.3535 102.656 25.3535 99.1562 32.3537Z" fill="#EFC7D3" stroke="black" stroke-width="0.5"/>
<path d="M234.654 9.85352L231.654 13.3535C248.654 18.8535 259.154 21.8535 271.654 28.3535H273.154L281.154 26.8535C266.154 20.3535 258.654 17.8535 234.654 9.85352Z" fill="#E0426F" stroke="black" stroke-width="0.5"/>
<path d="M271.654 28.3535C261.154 22.8535 242.154 16.3535 231.654 13.3535L229.654 15.8535L244.654 23.3535C243.154 25.8535 239.154 27.8535 233.154 30.5535C245.154 29.8535 262.154 28.8535 271.654 28.3535Z" fill="#E0426F" stroke="black" stroke-width="0.5"/>
<path d="M277.156 34.6535L283.155 32.3535L272.655 28.3535L228.655 30.8535C221.155 45.8535 206.155 76.3535 198.155 77.3535H212.655C211.155 66.3535 220.655 42.8535 245.656 51.8535C256.156 46.3535 266.156 40.8535 277.156 34.6535Z" fill="#E0426F" stroke="black" stroke-width="0.5"/>
<path d="M278.154 34.3535C266.154 40.8535 256.154 46.3535 245.654 51.8535C250.154 54.8535 260.654 60.8535 259.654 79.8535L284.654 79.3535V77.8535C293.154 76.8535 301.654 80.3535 300.154 66.3535L302.154 56.3535C302.154 54.8535 299.654 50.8535 297.154 50.3535C298.654 47.8535 295.654 38.8535 295.654 38.8535V37.3535L291.654 34.3535L286.654 32.8535L283.154 32.3535L278.154 34.3535Z" fill="#E0426F" stroke="black" stroke-width="0.5"/>
<path d="M281.154 26.8535L272.654 28.3535L283.154 32.3535C292.654 33.3535 291.653 34.8535 295.648 37.2737L295.154 28.8535L281.154 26.8535Z" fill="#E0426F"/>
<path d="M295.654 37.3535L295.648 37.2737M295.648 37.2737L295.154 28.8535L281.154 26.8535L272.654 28.3535L283.154 32.3535C292.654 33.3535 291.653 34.8535 295.648 37.2737Z" stroke="black" stroke-width="0.5"/>
<path d="M294.156 36.8537C293.656 34.3536 282.656 34.1535 277.156 34.6535" stroke="black" stroke-width="0.5"/>
<path d="M300.156 66.8535L260.656 68.8535C260.156 63.8535 257.99 59.6868 256.156 57.8535L302.156 55.3535M300.656 52.8535C289.656 51.3535 278.656 46.5535 266.656 40.5535M228.656 30.8535L272.656 28.3535L281.156 26.8535" stroke="black" stroke-width="0.5"/>
<path d="M290.656 40.8535C290.656 38.8535 289.656 34.8535 286.156 32.8535C288.377 32.8535 291.754 33.8939 294.265 36.2635C294.729 37.7935 293.656 41.3535 290.614 42.8535C290.601 42.2632 290.656 41.5778 290.656 40.8535Z" fill="#E0426F"/>
<path d="M272.656 43.3535C279.652 43.7033 285.669 43.8084 291.049 44.3535M297.656 45.3535C295.553 44.9029 293.36 44.5876 291.049 44.3535M295.656 37.8535C295.238 37.2684 294.769 36.7392 294.265 36.2635M291.049 44.3535C290.723 44.0088 290.629 43.4857 290.614 42.8535M290.614 42.8535C290.601 42.2632 290.656 41.5778 290.656 40.8535C290.656 38.8535 289.656 34.8535 286.156 32.8535C288.377 32.8535 291.754 33.8939 294.265 36.2635M290.614 42.8535C293.656 41.3535 294.729 37.7935 294.265 36.2635" stroke="black" stroke-width="0.5"/>
<path d="M290.656 40.8535C286.156 40.8535 284.156 36.8535 283.156 34.3535" stroke="black" stroke-width="0.5"/>
<path d="M132.654 12.9535C119.154 16.9535 107.154 22.8535 93.1543 35.8535C100.154 23.8535 115.654 14.3535 131.154 9.35352L132.654 12.9535Z" fill="#EDADBF" stroke="black" stroke-width="0.5"/>
<path d="M131.154 9.35352C111.154 15.0276 93.1543 32.3535 85.1543 30.3535C98.1543 20.8535 114.154 12.3535 130.654 7.85352L131.154 9.35352Z" fill="#EDADBF" stroke="black" stroke-width="0.5"/>
<path d="M10.155 48.3535H4.15496C1.6543 52.3535 1.6543 62.3535 2.15496 65.8535C0.654297 66.8535 0.654894 71.3535 1.65496 72.8535L5.65496 73.3535V74.8535L1.65496 76.8535V78.8535C5.65496 79.8535 14.155 81.8535 22.155 81.3535V79.8535H39.655C38.9883 71.3535 40.655 60.8535 49.655 53.8535C47.155 49.8535 40.155 45.3535 37.155 44.8535C27.155 43.8535 12.155 46.3535 10.155 48.3535Z" fill="#EDADBF" stroke="black" stroke-width="0.5"/>
<path d="M93.1562 35.8535C75.3229 36.6868 43.6562 41.5535 33.1562 44.5535L37.1562 44.8535C42.1562 46.3535 47.6562 50.6868 49.6562 53.8535C62.6553 44.3535 88.1553 51.3535 86.6553 78.8535H96.6553C89.6553 67.8535 90.6553 45.8535 93.1562 35.8535Z" fill="#EDADBF" stroke="black" stroke-width="0.5"/>
<path d="M10.1543 48.3536H4.1543C36.6545 28.8535 58.6545 34.8535 84.6543 30.3535L93.6545 35.8535C76.6545 36.8535 47.6543 40.3535 33.6543 44.5535C25.6543 44.3535 11.6543 46.3535 10.1543 48.3536Z" fill="#EDADBF" stroke="black" stroke-width="0.5"/>
<path d="M37.1558 44.8536C29.6558 43.8535 12.6558 45.8535 10.1558 48.3536C9.35575 50.7535 12.4891 53.6868 14.1558 54.8535C23.6558 56.3535 37.1558 50.3535 37.1558 44.8536Z" fill="#EDADBF" stroke="black" stroke-width="0.5"/>
<path d="M4.15499 48.3535C11.155 49.3535 5.15499 59.8535 2.15499 64.8535C1.65492 57.8535 2.15479 52.3535 4.15499 48.3535Z" fill="#EDADBF" stroke="black" stroke-width="0.5"/>
<path d="M22.1543 84.3535V79.8535H39.6543L40.1543 84.3535H22.1543Z" fill="#EDADBF" stroke="black" stroke-width="0.5"/>
<path d="M2.65625 65.8535C4.15625 68.3535 6.15625 71.5202 5.65625 73.3535M22.1562 79.8535C11.6562 80.3535 7.15625 76.3535 8.15625 72.8535C8.65625 72.3535 10.1562 70.8535 11.1562 70.8535" stroke="black" stroke-width="0.5"/>
<path d="M32.1562 74.8535C29.6562 70.8535 24.1562 65.8536 21.1562 64.3536C19.4062 63.8536 16.7811 63.9786 14.031 64.3536C12.4061 65.6869 11.1562 68.8535 11.6562 71.8535C11.6562 73.0202 12.9637 75.3535 15.6562 75.3535C20.1562 75.3535 27.1562 75.8535 32.1562 74.8535Z" fill="#EDADBF"/>
<path d="M6.15625 65.8536C8.40619 65.3536 11.2811 64.7286 14.031 64.3536M14.031 64.3536C16.7811 63.9786 19.4062 63.8536 21.1562 64.3536C24.1562 65.8536 29.6562 70.8535 32.1562 74.8535C27.1562 75.8535 20.1562 75.3535 15.6562 75.3535C12.9637 75.3535 11.6562 73.0202 11.6562 71.8535C11.1562 68.8535 12.4061 65.6869 14.031 64.3536Z" stroke="black" stroke-width="0.5"/>
<path d="M11.6562 71.3536C19.6562 69.8536 23.1562 72.4821 26.1562 73.9821M13.1562 74.3536L30.6562 73.8536" stroke="black" stroke-width="0.5"/>
<path d="M22.1543 82.8535H31.6543C33.6543 82.8535 35.1543 80.8535 34.6543 79.8535M38.1543 79.8535V84.3535" stroke="black" stroke-width="0.5"/>
<path d="M22.1562 81.3538C17.6562 81.3538 13.1562 81.8538 1.6562 78.8538V76.8538L5.6562 74.8538V73.3538L1.6562 72.8538C1.15527 71.3535 0.155469 68.3535 2.15546 65.8535C1.65571 57.8535 2.15571 51.3535 4.1562 48.3533C36.6562 28.8537 58.6562 34.8537 84.6562 30.3537C162.656 -24.6464 244.656 12.3535 281.656 26.8537L295.156 28.8535L295.656 35.8535V38.8535C297.155 43.8535 298.49 48.3535 297.156 50.3535C299.656 51.3535 302.156 54.5202 302.156 56.3535L300.156 66.3535C300.608 77.2014 298.2 77.4257 288.868 77.7382C287.877 77.7713 285.808 77.8055 284.656 77.8535V79.3535L259.656 79.7846M22.1562 81.3538V84.3538H40.1545L39.6562 79.8538M22.1562 81.3538V79.8538H39.6562M39.6562 79.8538C36.6562 38.3538 90.1562 41.3538 86.6562 80.3538V82.8535H213.156C207.156 39.3535 261.656 39.3535 259.656 79.7846M259.155 79.7846H259.656" stroke="black"/>
</svg>
