<svg width="303" height="95" viewBox="0 0 303 95" fill="none" xmlns="http://www.w3.org/2000/svg">
<circle cx="62.876" cy="73.8914" r="20.5" fill="#EFC7D3" stroke="black"/>
<circle cx="235.876" cy="73.8914" r="20.5" fill="#EFC7D3" stroke="black"/>
<path d="M132.874 12.3912L131.374 8.89121C171.374 0.891325 192.874 1.39136 231.874 12.8913L228.374 17.3913C208.374 9.39127 190.374 8.39127 174.374 7.89133C171.874 7.39133 167.874 7.3913 165.374 7.89121C155.374 7.89133 143.374 9.39134 132.874 12.3912Z" fill="#E0426F" stroke="black" stroke-width="0.5"/>
<path d="M131.374 8.8914L130.874 7.3914C166.874 -3.60864 199.374 0.391232 234.874 9.3914L231.874 12.8914C191.874 0.391357 165.874 1.89136 131.374 8.8914Z" fill="#E0426F" stroke="black" stroke-width="0.5"/>
<path d="M131.374 8.89122C182.874 -2.6088 211.374 7.39124 231.874 12.8912" stroke="black" stroke-width="0.5"/>
<path d="M170.876 29.8914L174.376 7.89136C207.876 8.89136 219.376 14.3914 223.876 15.8914L226.359 27.8914C199.369 27.892 181.874 29.3915 170.876 29.8914Z" fill="#E0426F"/>
<path d="M226.876 30.3914L223.876 15.8914C219.376 14.3914 207.876 8.89136 174.376 7.89136L170.876 29.8914C181.876 29.3914 199.376 27.8914 226.376 27.8914" stroke="black" stroke-width="0.5"/>
<path d="M165.376 7.89136C132.376 8.89136 112.376 17.8914 93.376 35.3914L95.876 33.3914L159.876 30.3914L165.376 7.89136Z" fill="#E0426F" stroke="black" stroke-width="0.5"/>
<path d="M239.874 22.3914C236.207 19.7247 230.374 17.3914 223.874 15.8914L226.374 27.8914H232.874C235.874 26.3914 238.874 24.1601 239.874 22.3914Z" fill="#E0426F" stroke="black" stroke-width="0.5"/>
<path d="M96.876 78.3914H163.876L198.376 76.8914H212.876L213.376 82.3914H199.376H98.376H86.876V78.3914H96.876Z" fill="#E0426F"/>
<path d="M96.876 78.3914H163.876L198.376 76.8914M96.876 78.3914C96.876 79.8914 97.376 80.8914 98.376 82.3914M96.876 78.3914H86.876V82.3914H98.376M198.376 76.8914L199.376 82.3914M198.376 76.8914H212.876L213.376 82.3914H199.376M199.376 82.3914H98.376" stroke="black" stroke-width="0.5"/>
<path d="M96.8751 78.3914C92.376 73.8914 89.376 51.8914 93.3751 35.3914L165.376 31.3914C161.376 36.3914 160.376 70.3914 163.876 78.3914H96.8751Z" fill="#E0426F" stroke="black" stroke-width="0.5"/>
<path d="M228.876 30.3914L165.376 31.3914C161.376 36.3914 160.376 70.3914 163.876 78.3914L198.376 76.8914C202.876 75.3914 209.376 69.8914 228.876 30.3914Z" fill="#E0426F" stroke="black" stroke-width="0.5"/>
<path d="M170.876 29.8914C166.376 30.3914 162.876 30.3914 159.876 30.3914L165.376 7.89143C168.376 7.39136 171.376 7.39136 174.376 7.89143L170.876 29.8914Z" fill="#E0426F" stroke="black" stroke-width="0.5"/>
<path d="M99.376 31.8914C103.876 37.3914 110.876 33.8914 114.876 32.3914C115.876 16.8913 102.876 24.8912 99.376 31.8914Z" fill="#E0426F" stroke="black" stroke-width="0.5"/>
<path d="M234.874 9.39136L231.874 12.8914C248.874 18.3914 259.374 21.3914 271.874 27.8914H273.374L281.374 26.3914C266.374 19.8914 258.874 17.3914 234.874 9.39136Z" fill="#EDADBF" stroke="black" stroke-width="0.5"/>
<path d="M271.874 27.8914C261.374 22.3914 242.374 15.8914 231.874 12.8914L229.874 15.3914L244.874 22.8914C243.374 25.3914 239.374 27.3914 233.374 30.0914C245.374 29.3914 262.374 28.3914 271.874 27.8914Z" fill="#EDADBF" stroke="black" stroke-width="0.5"/>
<path d="M277.376 34.1914L283.374 31.8914L272.875 27.8914L228.875 30.3914C221.375 45.3914 206.375 75.8914 198.375 76.8914H212.875C211.375 65.8914 220.875 42.3914 245.876 51.3914C256.376 45.8914 266.376 40.3914 277.376 34.1914Z" fill="#EDADBF" stroke="black" stroke-width="0.5"/>
<path d="M278.374 33.8914C266.374 40.3914 256.374 45.8914 245.874 51.3914C250.374 54.3914 260.874 60.3914 259.874 79.3914L284.874 78.8914V77.3914C293.374 76.3914 301.874 79.8914 300.374 65.8914L302.374 55.8914C302.374 54.3914 299.874 50.3914 297.374 49.8914C298.874 47.3914 295.874 38.3914 295.874 38.3914V36.8914L291.874 33.8914L286.874 32.3914L283.374 31.8914L278.374 33.8914Z" fill="#EDADBF" stroke="black" stroke-width="0.5"/>
<path d="M281.374 26.3914L272.874 27.8914L283.374 31.8914C292.874 32.8914 291.873 34.3914 295.868 36.8115L295.374 28.3914L281.374 26.3914Z" fill="#EDADBF"/>
<path d="M295.874 36.8914L295.868 36.8115M295.868 36.8115L295.374 28.3914L281.374 26.3914L272.874 27.8914L283.374 31.8914C292.874 32.8914 291.873 34.3914 295.868 36.8115Z" stroke="black" stroke-width="0.5"/>
<path d="M294.376 36.3916C293.876 33.8914 282.876 33.6914 277.376 34.1914" stroke="black" stroke-width="0.5"/>
<path d="M300.376 66.3914L260.876 68.3914C260.376 63.3914 258.209 59.2247 256.376 57.3914L302.376 54.8914M300.876 52.3914C289.876 50.8914 278.876 46.0914 266.876 40.0914M228.876 30.3914L272.876 27.8914L281.376 26.3914" stroke="black" stroke-width="0.5"/>
<path d="M290.876 40.3914C290.876 38.3914 289.876 34.3914 286.376 32.3914C288.597 32.3914 291.974 33.4317 294.485 35.8013C294.949 37.3313 293.876 40.8914 290.834 42.3914C290.821 41.8011 290.876 41.1156 290.876 40.3914Z" fill="#EDADBF"/>
<path d="M272.876 42.8914C279.872 43.2411 285.889 43.3462 291.269 43.8914M297.876 44.8914C295.773 44.4407 293.58 44.1255 291.269 43.8914M295.876 37.3914C295.458 36.8062 294.989 36.277 294.485 35.8013M291.269 43.8914C290.943 43.5466 290.849 43.0235 290.834 42.3914M290.834 42.3914C290.821 41.8011 290.876 41.1156 290.876 40.3914C290.876 38.3914 289.876 34.3914 286.376 32.3914C288.597 32.3914 291.974 33.4317 294.485 35.8013M290.834 42.3914C293.876 40.8914 294.949 37.3313 294.485 35.8013" stroke="black" stroke-width="0.5"/>
<path d="M290.876 40.3914C286.376 40.3914 284.376 36.3914 283.376 33.8914" stroke="black" stroke-width="0.5"/>
<path d="M132.874 12.4913C119.374 16.4913 107.374 22.3914 93.374 35.3914C100.374 23.3914 115.874 13.8914 131.374 8.89136L132.874 12.4913Z" fill="#EDADBF" stroke="black" stroke-width="0.5"/>
<path d="M131.374 8.89136C111.374 14.5654 93.374 31.8914 85.374 29.8914C98.374 20.3914 114.374 11.8914 130.874 7.39136L131.374 8.89136Z" fill="#EDADBF" stroke="black" stroke-width="0.5"/>
<path d="M10.3747 47.8912H4.37469C1.87402 51.8912 1.87402 61.8912 2.37469 65.3912C0.874023 66.3912 0.874621 70.8912 1.87469 72.3912L5.87469 72.8912V74.3912L1.87469 76.3912V78.3912C5.87469 79.3912 14.3747 81.3912 22.3747 80.8912V79.3912H39.8747C39.208 70.8912 40.8747 60.3912 49.8747 53.3912C47.3747 49.3912 40.3747 44.8912 37.3747 44.3912C27.3747 43.3912 12.3747 45.8912 10.3747 47.8912Z" fill="#EDADBF" stroke="black" stroke-width="0.5"/>
<path d="M93.376 35.3914C75.5426 36.2247 43.876 41.0914 33.376 44.0914L37.376 44.3914C42.376 45.8914 47.876 50.2247 49.876 53.3914C62.875 43.8914 88.375 50.8914 86.875 78.3914H96.875C89.875 67.3914 90.875 45.3914 93.376 35.3914Z" fill="#EDADBF" stroke="black" stroke-width="0.5"/>
<path d="M10.374 47.8914H4.37402C36.8742 28.3913 58.8743 34.3914 84.874 29.8914L93.8743 35.3914C76.8743 36.3914 47.874 39.8914 33.874 44.0914C25.874 43.8913 11.874 45.8914 10.374 47.8914Z" fill="#EDADBF" stroke="black" stroke-width="0.5"/>
<path d="M37.3755 44.3914C29.8755 43.3914 12.8755 45.3914 10.3755 47.8914C9.57548 50.2914 12.7088 53.2247 14.3755 54.3914C23.8755 55.8914 37.3755 49.8914 37.3755 44.3914Z" fill="#EDADBF" stroke="black" stroke-width="0.5"/>
<path d="M4.37472 47.8914C11.3747 48.8914 5.37472 59.3914 2.37472 64.3914C1.87465 57.3914 2.37451 51.8914 4.37472 47.8914Z" fill="#EDADBF" stroke="black" stroke-width="0.5"/>
<path d="M22.374 83.8914V79.3914H39.874L40.374 83.8914H22.374Z" fill="#EDADBF" stroke="black" stroke-width="0.5"/>
<path d="M2.87598 65.3911C4.37598 67.8911 6.37598 71.0578 5.87598 72.8911M22.376 79.3911C11.876 79.8911 7.37598 75.8911 8.37598 72.3911C8.87598 71.8911 10.376 70.3911 11.376 70.3911" stroke="black" stroke-width="0.5"/>
<path d="M32.376 74.3912C29.876 70.3912 24.376 65.3913 21.376 63.8913C19.6259 63.3913 17.0008 63.5163 14.2508 63.8913C12.6258 65.2246 11.376 68.3912 11.876 71.3912C11.876 72.5579 13.1834 74.8912 15.876 74.8912C20.376 74.8912 27.376 75.3912 32.376 74.3912Z" fill="#EDADBF"/>
<path d="M6.37598 65.3913C8.62592 64.8913 11.5008 64.2663 14.2508 63.8913M14.2508 63.8913C17.0008 63.5163 19.6259 63.3913 21.376 63.8913C24.376 65.3913 29.876 70.3912 32.376 74.3912C27.376 75.3912 20.376 74.8912 15.876 74.8912C13.1834 74.8912 11.876 72.5579 11.876 71.3912C11.376 68.3912 12.6258 65.2246 14.2508 63.8913Z" stroke="black" stroke-width="0.5"/>
<path d="M11.876 70.8913C19.876 69.3914 23.376 72.0198 26.376 73.5198M13.376 73.8914L30.876 73.3914" stroke="black" stroke-width="0.5"/>
<path d="M22.374 82.3911H31.874C33.874 82.3911 35.374 80.3911 34.874 79.3911M38.374 79.3911V83.8911" stroke="black" stroke-width="0.5"/>
<path d="M22.3759 80.8916C17.8759 80.8916 13.3759 81.3916 1.87592 78.3916V76.3916L5.87592 74.3916V72.8916L1.87592 72.3916C1.375 70.8914 0.375196 67.8914 2.37519 65.3914C1.87543 57.3914 2.37543 50.8914 4.37592 47.8911C36.8759 28.3915 58.8759 34.3915 84.8759 29.8915C162.876 -25.1086 244.876 11.8913 281.876 26.3915L295.376 28.3914L295.876 35.3914V38.3914C297.374 43.3914 298.709 47.8914 297.376 49.8914C299.876 50.8914 302.376 54.058 302.376 55.8914L300.376 65.8914C300.828 76.7393 298.42 76.9635 289.088 77.276C288.097 77.3092 286.028 77.3434 284.876 77.3914V78.8914L259.876 79.3224M22.3759 80.8916V83.8916H40.3743L39.8759 79.3916M22.3759 80.8916V79.3916H39.8759M39.8759 79.3916C36.8759 37.8916 90.3759 40.8916 86.8759 79.8916V82.3914H213.376C207.376 38.8914 261.876 38.8914 259.876 79.3224M259.374 79.3224H259.876" stroke="black"/>
</svg>
