<svg width="304" height="95" viewBox="0 0 304 95" fill="none" xmlns="http://www.w3.org/2000/svg">
<circle cx="63.0742" cy="73.8762" r="20.5" fill="#EDADBF" stroke="black"/>
<circle cx="236.074" cy="73.8762" r="20.5" fill="#EDADBF" stroke="black"/>
<path d="M133.072 12.3761L131.572 8.87608C171.572 0.876188 193.072 1.37622 232.072 12.8762L228.572 17.3762C208.572 9.37613 190.572 8.37613 174.572 7.8762C172.072 7.3762 168.072 7.37616 165.572 7.87608C155.572 7.8762 143.572 9.3762 133.072 12.3761Z" fill="#E56E90" stroke="black" stroke-width="0.5"/>
<path d="M131.572 8.87627L131.072 7.37626C167.072 -3.62378 199.572 0.376095 235.072 9.37627L232.072 12.8763C192.072 0.376221 166.072 1.87622 131.572 8.87627Z" fill="#E56E90" stroke="black" stroke-width="0.5"/>
<path d="M131.572 8.87609C183.072 -2.62394 211.572 7.3761 232.072 12.8761" stroke="black" stroke-width="0.5"/>
<path d="M171.074 29.8762L174.574 7.87622C208.074 8.87622 219.574 14.3762 224.074 15.8762L226.557 27.8762C199.567 27.8769 182.072 29.3763 171.074 29.8762Z" fill="#E56E90"/>
<path d="M227.074 30.3762L224.074 15.8762C219.574 14.3762 208.074 8.87622 174.574 7.87622L171.074 29.8762C182.074 29.3762 199.574 27.8762 226.574 27.8762" stroke="black" stroke-width="0.5"/>
<path d="M165.574 7.87622C132.574 8.87622 112.574 17.8762 93.5742 35.3762L96.0742 33.3762L160.074 30.3762L165.574 7.87622Z" fill="#E56E90" stroke="black" stroke-width="0.5"/>
<path d="M240.072 22.3762C236.406 19.7096 230.572 17.3762 224.072 15.8762L226.572 27.8762H233.072C236.072 26.3762 239.072 24.145 240.072 22.3762Z" fill="#E56E90" stroke="black" stroke-width="0.5"/>
<path d="M97.0742 78.3762H164.074L198.574 76.8762H213.074L213.574 82.3762H199.574H98.5742H87.0742V78.3762H97.0742Z" fill="#E56E90"/>
<path d="M97.0742 78.3762H164.074L198.574 76.8762M97.0742 78.3762C97.0742 79.8762 97.5742 80.8762 98.5742 82.3762M97.0742 78.3762H87.0742V82.3762H98.5742M198.574 76.8762L199.574 82.3762M198.574 76.8762H213.074L213.574 82.3762H199.574M199.574 82.3762H98.5742" stroke="black" stroke-width="0.5"/>
<path d="M97.0733 78.3762C92.5742 73.8762 89.5743 51.8762 93.5733 35.3762L165.574 31.3762C161.574 36.3762 160.574 70.3762 164.074 78.3762H97.0733Z" fill="#E56E90" stroke="black" stroke-width="0.5"/>
<path d="M229.074 30.3762L165.574 31.3762C161.574 36.3762 160.574 70.3762 164.074 78.3762L198.574 76.8762C203.074 75.3762 209.574 69.8762 229.074 30.3762Z" fill="#E56E90" stroke="black" stroke-width="0.5"/>
<path d="M171.074 29.8763C166.574 30.3763 163.074 30.3763 160.074 30.3763L165.574 7.87629C168.574 7.37622 171.574 7.37622 174.574 7.87629L171.074 29.8763Z" fill="#E56E90" stroke="black" stroke-width="0.5"/>
<path d="M99.5742 31.8762C104.074 37.3762 111.074 33.8762 115.074 32.3762C116.074 16.8761 103.074 24.8761 99.5742 31.8762Z" fill="#E56E90" stroke="black" stroke-width="0.5"/>
<path d="M235.072 9.37622L232.072 12.8762C249.072 18.3762 259.572 21.3762 272.072 27.8762H273.572L281.572 26.3762C266.572 19.8762 259.072 17.3762 235.072 9.37622Z" fill="#EDADBF" stroke="black" stroke-width="0.5"/>
<path d="M272.072 27.8762C261.572 22.3762 242.572 15.8762 232.072 12.8762L230.072 15.3762L245.072 22.8762C243.572 25.3762 239.572 27.3762 233.572 30.0762C245.572 29.3762 262.572 28.3762 272.072 27.8762Z" fill="#EDADBF" stroke="black" stroke-width="0.5"/>
<path d="M277.574 34.1762L283.573 31.8762L273.073 27.8762L229.073 30.3762C221.573 45.3762 206.573 75.8762 198.573 76.8762H213.073C211.573 65.8762 221.073 42.3762 246.074 51.3762C256.574 45.8762 266.574 40.3762 277.574 34.1762Z" fill="#EDADBF" stroke="black" stroke-width="0.5"/>
<path d="M278.572 33.8762C266.572 40.3762 256.572 45.8762 246.072 51.3762C250.572 54.3762 261.072 60.3762 260.072 79.3762L285.072 78.8762V77.3762C293.572 76.3762 302.072 79.8762 300.572 65.8762L302.572 55.8762C302.572 54.3762 300.072 50.3762 297.572 49.8762C299.072 47.3762 296.072 38.3762 296.072 38.3762V36.8762L292.072 33.8762L287.072 32.3762L283.572 31.8762L278.572 33.8762Z" fill="#EDADBF" stroke="black" stroke-width="0.5"/>
<path d="M281.572 26.3762L273.072 27.8762L283.572 31.8762C293.072 32.8762 292.071 34.3762 296.066 36.7964L295.572 28.3762L281.572 26.3762Z" fill="#EDADBF"/>
<path d="M296.072 36.8762L296.066 36.7964M296.066 36.7964L295.572 28.3762L281.572 26.3762L273.072 27.8762L283.572 31.8762C293.072 32.8762 292.071 34.3762 296.066 36.7964Z" stroke="black" stroke-width="0.5"/>
<path d="M294.574 36.3764C294.074 33.8763 283.074 33.6762 277.574 34.1762" stroke="black" stroke-width="0.5"/>
<path d="M300.574 66.3762L261.074 68.3762C260.574 63.3762 258.408 59.2096 256.574 57.3762L302.574 54.8762M301.074 52.3762C290.074 50.8762 279.074 46.0762 267.074 40.0762M229.074 30.3762L273.074 27.8762L281.574 26.3762" stroke="black" stroke-width="0.5"/>
<path d="M291.074 40.3762C291.074 38.3762 290.074 34.3762 286.574 32.3762C288.795 32.3762 292.172 33.4166 294.683 35.7862C295.147 37.3162 294.074 40.8762 291.032 42.3762C291.019 41.7859 291.074 41.1005 291.074 40.3762Z" fill="#EDADBF"/>
<path d="M273.074 42.8762C280.07 43.226 286.087 43.3311 291.467 43.8762M298.074 44.8762C295.971 44.4256 293.778 44.1103 291.467 43.8762M296.074 37.3762C295.656 36.7911 295.187 36.2619 294.683 35.7862M291.467 43.8762C291.141 43.5315 291.047 43.0084 291.032 42.3762M291.032 42.3762C291.019 41.7859 291.074 41.1005 291.074 40.3762C291.074 38.3762 290.074 34.3762 286.574 32.3762C288.795 32.3762 292.172 33.4166 294.683 35.7862M291.032 42.3762C294.074 40.8762 295.147 37.3162 294.683 35.7862" stroke="black" stroke-width="0.5"/>
<path d="M291.074 40.3762C286.574 40.3762 284.574 36.3762 283.574 33.8762" stroke="black" stroke-width="0.5"/>
<path d="M133.072 12.4762C119.572 16.4762 107.572 22.3762 93.5723 35.3762C100.572 23.3762 116.072 13.8762 131.572 8.87622L133.072 12.4762Z" fill="#EFC7D3" stroke="black" stroke-width="0.5"/>
<path d="M131.572 8.87622C111.572 14.5503 93.5723 31.8762 85.5723 29.8762C98.5723 20.3762 114.572 11.8762 131.072 7.37622L131.572 8.87622Z" fill="#EFC7D3" stroke="black" stroke-width="0.5"/>
<path d="M10.5729 47.8761H4.57293C2.07227 51.8761 2.07227 61.8761 2.57293 65.3761C1.07227 66.3761 1.07286 70.8761 2.07293 72.3761L6.07293 72.8761V74.3761L2.07293 76.3761V78.3761C6.07293 79.3761 14.5729 81.3761 22.5729 80.8761V79.3761H40.0729C39.4063 70.8761 41.0729 60.3761 50.0729 53.3761C47.5729 49.3761 40.5729 44.8761 37.5729 44.3761C27.5729 43.3761 12.5729 45.8761 10.5729 47.8761Z" fill="#EFC7D3" stroke="black" stroke-width="0.5"/>
<path d="M93.5742 35.3762C75.7409 36.2096 44.0742 41.0762 33.5742 44.0762L37.5742 44.3762C42.5742 45.8762 48.0742 50.2096 50.0742 53.3762C63.0732 43.8762 88.5732 50.8762 87.0732 78.3762H97.0732C90.0732 67.3762 91.0732 45.3762 93.5742 35.3762Z" fill="#EFC7D3" stroke="black" stroke-width="0.5"/>
<path d="M10.5723 47.8763H4.57227C37.0724 28.3762 59.0725 34.3762 85.0723 29.8762L94.0725 35.3762C77.0725 36.3762 48.0723 39.8762 34.0723 44.0762C26.0723 43.8762 12.0723 45.8762 10.5723 47.8763Z" fill="#EFC7D3" stroke="black" stroke-width="0.5"/>
<path d="M37.5737 44.3763C30.0737 43.3762 13.0737 45.3762 10.5737 47.8763C9.77372 50.2762 12.9071 53.2096 14.5737 54.3762C24.0737 55.8762 37.5737 49.8762 37.5737 44.3763Z" fill="#EFC7D3" stroke="black" stroke-width="0.5"/>
<path d="M4.57296 47.8762C11.573 48.8762 5.57296 59.3762 2.57296 64.3762C2.07289 57.3762 2.57275 51.8762 4.57296 47.8762Z" fill="#EFC7D3" stroke="black" stroke-width="0.5"/>
<path d="M22.5723 83.8762V79.3762H40.0723L40.5723 83.8762H22.5723Z" fill="#EFC7D3" stroke="black" stroke-width="0.5"/>
<path d="M3.07422 65.376C4.57422 67.876 6.57422 71.0426 6.07422 72.876M22.5742 79.376C12.0742 79.876 7.57422 75.876 8.57422 72.376C9.07422 71.876 10.5742 70.376 11.5742 70.376" stroke="black" stroke-width="0.5"/>
<path d="M32.5742 74.3761C30.0742 70.3761 24.5742 65.3762 21.5742 63.8762C19.8242 63.3762 17.1991 63.5012 14.449 63.8762C12.8241 65.2095 11.5742 68.3761 12.0742 71.3761C12.0742 72.5428 13.3816 74.8761 16.0742 74.8761C20.5742 74.8761 27.5742 75.3761 32.5742 74.3761Z" fill="#EFC7D3"/>
<path d="M6.57422 65.3762C8.82416 64.8762 11.6991 64.2512 14.449 63.8762M14.449 63.8762C17.1991 63.5012 19.8242 63.3762 21.5742 63.8762C24.5742 65.3762 30.0742 70.3761 32.5742 74.3761C27.5742 75.3761 20.5742 74.8761 16.0742 74.8761C13.3816 74.8761 12.0742 72.5428 12.0742 71.3761C11.5742 68.3761 12.8241 65.2095 14.449 63.8762Z" stroke="black" stroke-width="0.5"/>
<path d="M12.0742 70.8762C20.0742 69.3762 23.5742 72.0047 26.5742 73.5047M13.5742 73.8762L31.0742 73.3762" stroke="black" stroke-width="0.5"/>
<path d="M22.5723 82.376H32.0723C34.0723 82.376 35.5723 80.376 35.0723 79.376M38.5723 79.376V83.876" stroke="black" stroke-width="0.5"/>
<path d="M22.5742 80.8765C18.0742 80.8765 13.5742 81.3765 2.07416 78.3765V76.3765L6.07417 74.3765V72.8765L2.07416 72.3765C1.57324 70.8762 0.573438 67.8762 2.57343 65.3762C2.07368 57.3762 2.57368 50.8762 4.57417 47.876C37.0742 28.3764 59.0742 34.3764 85.0742 29.8764C163.074 -25.1237 245.074 11.8762 282.074 26.3764L295.574 28.3762L296.074 35.3762V38.3762C297.573 43.3762 298.908 47.8762 297.574 49.8762C300.074 50.8762 302.574 54.0429 302.574 55.8762L300.574 65.8762C301.026 76.7241 298.618 76.9484 289.286 77.2609C288.295 77.294 286.226 77.3282 285.074 77.3762V78.8762L260.074 79.3073M22.5742 80.8765V83.8765H40.5725L40.0742 79.3765M22.5742 80.8765V79.3765H40.0742M40.0742 79.3765C37.0742 37.8765 90.5742 40.8765 87.0742 79.8765V82.3762H213.574C207.574 38.8762 262.074 38.8762 260.074 79.3073M259.573 79.3073H260.074" stroke="black"/>
</svg>
