<svg width="303" height="96" viewBox="0 0 303 96" fill="none" xmlns="http://www.w3.org/2000/svg">
<circle cx="62.2915" cy="74.0454" r="20.5" fill="#E56E90" stroke="black"/>
<circle cx="235.292" cy="74.0454" r="20.5" fill="#E56E90" stroke="black"/>
<path d="M132.29 12.5453L130.79 9.04527C170.79 1.04538 192.29 1.54541 231.29 13.0454L227.79 17.5454C207.79 9.54532 189.79 8.54532 173.79 8.04539C171.29 7.54539 167.29 7.54535 164.79 8.04527C154.79 8.04539 142.79 9.54539 132.29 12.5453Z" fill="#E56E90" stroke="black" stroke-width="0.5"/>
<path d="M130.79 9.04545L130.29 7.54545C166.29 -3.45459 198.79 0.545284 234.29 9.54546L231.29 13.0455C191.29 0.54541 165.29 2.04541 130.79 9.04545Z" fill="#E56E90" stroke="black" stroke-width="0.5"/>
<path d="M130.79 9.04552C182.29 -2.4545 210.79 7.54553 231.29 13.0455" stroke="black" stroke-width="0.5"/>
<path d="M170.292 30.0454L173.792 8.04541C207.292 9.04541 218.792 14.5454 223.292 16.0454L225.774 28.0454C198.784 28.046 181.289 29.5455 170.292 30.0454Z" fill="#E56E90"/>
<path d="M226.292 30.5454L223.292 16.0454C218.792 14.5454 207.292 9.04541 173.792 8.04541L170.292 30.0454C181.292 29.5454 198.792 28.0454 225.792 28.0454" stroke="black" stroke-width="0.5"/>
<path d="M164.792 8.04541C131.792 9.04541 111.792 18.0454 92.7915 35.5454L95.2915 33.5454L159.292 30.5454L164.792 8.04541Z" fill="#E56E90" stroke="black" stroke-width="0.5"/>
<path d="M239.29 22.5454C235.623 19.8787 229.79 17.5454 223.29 16.0454L225.79 28.0454H232.29C235.29 26.5454 238.29 24.3141 239.29 22.5454Z" fill="#E56E90" stroke="black" stroke-width="0.5"/>
<path d="M96.2915 78.5454H163.292L197.792 77.0454H212.292L212.792 82.5454H198.792H97.7915H86.2915V78.5454H96.2915Z" fill="#E56E90"/>
<path d="M96.2915 78.5454H163.292L197.792 77.0454M96.2915 78.5454C96.2915 80.0454 96.7915 81.0454 97.7915 82.5454M96.2915 78.5454H86.2915V82.5454H97.7915M197.792 77.0454L198.792 82.5454M197.792 77.0454H212.292L212.792 82.5454H198.792M198.792 82.5454H97.7915" stroke="black" stroke-width="0.5"/>
<path d="M96.2906 78.5454C91.7915 74.0454 88.7915 52.0454 92.7906 35.5454L164.792 31.5454C160.792 36.5454 159.792 70.5454 163.291 78.5454H96.2906Z" fill="#E56E90" stroke="black" stroke-width="0.5"/>
<path d="M228.291 30.5454L164.791 31.5454C160.791 36.5454 159.791 70.5454 163.291 78.5454L197.791 77.0454C202.291 75.5454 208.791 70.0454 228.291 30.5454Z" fill="#E56E90" stroke="black" stroke-width="0.5"/>
<path d="M170.292 30.0455C165.792 30.5455 162.292 30.5455 159.292 30.5455L164.792 8.04548C167.792 7.54541 170.792 7.54541 173.792 8.04548L170.292 30.0455Z" fill="#E56E90" stroke="black" stroke-width="0.5"/>
<path d="M98.7915 32.0457C103.292 37.5457 110.292 34.0457 114.292 32.5457C115.292 17.0455 102.292 25.0455 98.7915 32.0457Z" fill="#E56E90" stroke="black" stroke-width="0.5"/>
<path d="M234.29 9.54541L231.29 13.0454C248.29 18.5454 258.79 21.5454 271.29 28.0454H272.79L280.79 26.5454C265.79 20.0454 258.29 17.5454 234.29 9.54541Z" stroke="black" stroke-width="0.5"/>
<path d="M271.29 28.0454C260.79 22.5454 241.79 16.0454 231.29 13.0454L229.29 15.5454L244.29 23.0454C242.79 25.5454 238.79 27.5454 232.79 30.2454C244.79 29.5454 261.79 28.5454 271.29 28.0454Z" stroke="black" stroke-width="0.5"/>
<path d="M276.792 34.3454L282.79 32.0454L272.291 28.0454L228.291 30.5454C220.791 45.5454 205.791 76.0454 197.791 77.0454H212.291C210.791 66.0454 220.291 42.5454 245.292 51.5454C255.792 46.0454 265.792 40.5454 276.792 34.3454Z" stroke="black" stroke-width="0.5"/>
<path d="M277.79 34.0454C265.79 40.5454 255.79 46.0454 245.29 51.5454C249.79 54.5454 260.29 60.5454 259.29 79.5454L284.29 79.0454V77.5454C292.79 76.5454 301.29 80.0454 299.79 66.0454L301.79 56.0454C301.79 54.5454 299.29 50.5454 296.79 50.0454C298.29 47.5454 295.29 38.5454 295.29 38.5454V37.0454L291.29 34.0454L286.29 32.5454L282.79 32.0454L277.79 34.0454Z" stroke="black" stroke-width="0.5"/>
<path d="M295.29 37.0454L295.284 36.9656M295.284 36.9656L294.79 28.5454L280.79 26.5454L272.29 28.0454L282.79 32.0454C292.29 33.0454 291.289 34.5454 295.284 36.9656Z" stroke="black" stroke-width="0.5"/>
<path d="M293.792 36.5456C293.292 34.0455 282.292 33.8454 276.792 34.3454" stroke="black" stroke-width="0.5"/>
<path d="M299.792 66.5454L260.292 68.5454C259.792 63.5454 257.625 59.3787 255.792 57.5454L301.792 55.0454M300.292 52.5454C289.292 51.0454 278.292 46.2454 266.292 40.2454M228.292 30.5454L272.292 28.0454L280.792 26.5454" stroke="black" stroke-width="0.5"/>
<path d="M272.292 43.0454C279.287 43.3952 285.304 43.5003 290.685 44.0454M297.292 45.0454C295.189 44.5948 292.995 44.2795 290.685 44.0454M295.292 37.5454C294.874 36.9603 294.404 36.4311 293.9 35.9554M290.685 44.0454C290.358 43.7006 290.264 43.1776 290.25 42.5454M290.25 42.5454C290.236 41.9551 290.292 41.2697 290.292 40.5454C290.292 38.5454 289.292 34.5454 285.792 32.5454C288.012 32.5454 291.389 33.5858 293.9 35.9554M290.25 42.5454C293.292 41.0454 294.364 37.4854 293.9 35.9554" stroke="black" stroke-width="0.5"/>
<path d="M290.292 40.5454C285.792 40.5454 283.792 36.5454 282.792 34.0454" stroke="black" stroke-width="0.5"/>
<path d="M132.29 12.6454C118.79 16.6454 106.79 22.5454 92.79 35.5454C99.79 23.5454 115.29 14.0454 130.79 9.04541L132.29 12.6454Z" fill="#EDADBF" stroke="black" stroke-width="0.5"/>
<path d="M130.79 9.04541C110.79 14.7194 92.79 32.0454 84.79 30.0454C97.79 20.5454 113.79 12.0454 130.29 7.54541L130.79 9.04541Z" fill="#EDADBF" stroke="black" stroke-width="0.5"/>
<path d="M9.79071 48.0453H3.79071C1.29004 52.0453 1.29004 62.0453 1.79071 65.5453C0.290039 66.5453 0.290637 71.0453 1.29071 72.5453L5.29071 73.0453V74.5453L1.29071 76.5453V78.5453C5.29071 79.5453 13.7907 81.5453 21.7907 81.0453V79.5453H39.2907C38.624 71.0453 40.2907 60.5453 49.2907 53.5453C46.7907 49.5453 39.7907 45.0453 36.7907 44.5453C26.7907 43.5453 11.7907 46.0453 9.79071 48.0453Z" fill="#EDADBF" stroke="black" stroke-width="0.5"/>
<path d="M92.7915 35.5454C74.9582 36.3787 43.2915 41.2454 32.7915 44.2454L36.7915 44.5454C41.7915 46.0454 47.2915 50.3787 49.2915 53.5454C62.2905 44.0454 87.7905 51.0454 86.2905 78.5454H96.2905C89.2905 67.5454 90.2905 45.5454 92.7915 35.5454Z" fill="#EDADBF" stroke="black" stroke-width="0.5"/>
<path d="M9.79004 48.0455H3.79004C36.2902 28.5454 58.2903 34.5454 84.29 30.0454L93.2903 35.5454C76.2903 36.5454 47.29 40.0454 33.29 44.2454C25.29 44.0454 11.29 46.0454 9.79004 48.0455Z" fill="#EDADBF" stroke="black" stroke-width="0.5"/>
<path d="M36.7915 44.5455C29.2915 43.5454 12.2915 45.5454 9.79149 48.0455C8.99149 50.4454 12.1248 53.3787 13.7915 54.5454C23.2915 56.0454 36.7915 50.0454 36.7915 44.5455Z" fill="#EDADBF" stroke="black" stroke-width="0.5"/>
<path d="M3.79073 48.0454C10.7907 49.0454 4.79073 59.5454 1.79073 64.5454C1.29066 57.5454 1.79053 52.0454 3.79073 48.0454Z" fill="#EDADBF" stroke="black" stroke-width="0.5"/>
<path d="M21.79 84.0454V79.5454H39.29L39.79 84.0454H21.79Z" fill="#EDADBF" stroke="black" stroke-width="0.5"/>
<path d="M2.29199 65.5454C3.79199 68.0454 5.79199 71.2121 5.29199 73.0454M21.792 79.5454C11.292 80.0454 6.79199 76.0454 7.79199 72.5454C8.29199 72.0454 9.79199 70.5454 10.792 70.5454" stroke="black" stroke-width="0.5"/>
<path d="M31.792 74.5455C29.292 70.5455 23.792 65.5456 20.792 64.0456C19.0419 63.5456 16.4169 63.6706 13.6668 64.0456C12.0419 65.3789 10.792 68.5455 11.292 71.5455C11.292 72.7122 12.5994 75.0455 15.292 75.0455C19.792 75.0455 26.792 75.5455 31.792 74.5455Z" fill="#EDADBF"/>
<path d="M5.79199 65.5456C8.04193 65.0456 10.9168 64.4206 13.6668 64.0456M13.6668 64.0456C16.4169 63.6706 19.0419 63.5456 20.792 64.0456C23.792 65.5456 29.292 70.5455 31.792 74.5455C26.792 75.5455 19.792 75.0455 15.292 75.0455C12.5994 75.0455 11.292 72.7122 11.292 71.5455C10.792 68.5455 12.0418 65.3789 13.6668 64.0456Z" stroke="black" stroke-width="0.5"/>
<path d="M11.292 71.0456C19.292 69.5457 22.792 72.1741 25.792 73.6741M12.792 74.0457L30.292 73.5457" stroke="black" stroke-width="0.5"/>
<path d="M21.79 82.5454H31.29C33.29 82.5454 34.79 80.5454 34.29 79.5454M37.79 79.5454V84.0454" stroke="black" stroke-width="0.5"/>
<path d="M21.7915 81.0457C17.2915 81.0457 12.7915 81.5457 1.29145 78.5457V76.5457L5.29145 74.5456V73.0457L1.29145 72.5457C0.790527 71.0454 -0.209277 68.0454 1.79072 65.5454C1.29096 57.5454 1.79096 51.0454 3.79145 48.0452C36.2915 28.5455 58.2914 34.5456 84.2914 30.0456C162.291 -24.9545 244.291 12.0454 281.291 26.5456L294.791 28.5454L295.291 35.5454V38.5454C296.79 43.5454 298.125 48.0454 296.791 50.0454C299.291 51.0454 301.791 54.2121 301.791 56.0454L299.791 66.0454C300.243 76.8933 297.835 77.1176 288.504 77.43C287.513 77.4632 285.444 77.4974 284.291 77.5454V79.0454L259.291 79.4764M21.7915 81.0457V84.0457H39.7898L39.2915 79.5457M21.7915 81.0457V79.5457H39.2915M39.2915 79.5457C36.2915 38.0457 89.7914 41.0457 86.2914 80.0457V82.5454H212.791C206.791 39.0454 261.291 39.0454 259.291 79.4764M258.79 79.4764H259.291" stroke="black"/>
</svg>
