<svg width="303" height="96" viewBox="0 0 303 96" fill="none" xmlns="http://www.w3.org/2000/svg">
<circle cx="62.4897" cy="74.5378" r="20.5" fill="#E0426F" stroke="black"/>
<circle cx="235.49" cy="74.5378" r="20.5" fill="#E0426F" stroke="black"/>
<path d="M132.488 13.0377L130.988 9.5377C170.988 1.53781 192.488 2.03784 231.488 13.5378L227.988 18.0378C207.988 10.0378 189.988 9.03775 173.988 8.53782C171.488 8.03782 167.488 8.03778 164.988 8.5377C154.988 8.53782 142.988 10.0378 132.488 13.0377Z" fill="#EDADBF" stroke="black" stroke-width="0.5"/>
<path d="M130.988 9.53789L130.488 8.03789C166.488 -2.96216 198.988 1.03772 234.488 10.0379L231.488 13.5379C191.488 1.03784 165.488 2.53784 130.988 9.53789Z" fill="#EDADBF" stroke="black" stroke-width="0.5"/>
<path d="M130.988 9.53771C182.488 -1.96232 210.988 8.03772 231.488 13.5377" stroke="black" stroke-width="0.5"/>
<path d="M170.49 30.5378L173.99 8.53784C207.49 9.53784 218.99 15.0378 223.49 16.5378L225.973 28.5378C198.982 28.5385 181.487 30.0379 170.49 30.5378Z" fill="#EDADBF"/>
<path d="M226.49 31.0378L223.49 16.5378C218.99 15.0378 207.49 9.53784 173.99 8.53784L170.49 30.5378C181.49 30.0378 198.99 28.5378 225.99 28.5378" stroke="black" stroke-width="0.5"/>
<path d="M164.99 8.53784C131.99 9.53784 111.99 18.5378 92.9897 36.0378L95.4897 34.0378L159.49 31.0378L164.99 8.53784Z" fill="#EDADBF" stroke="black" stroke-width="0.5"/>
<path d="M239.488 23.0378C235.822 20.3712 229.988 18.0378 223.488 16.5378L225.988 28.5378H232.488C235.488 27.0378 238.488 24.8066 239.488 23.0378Z" fill="#EDADBF" stroke="black" stroke-width="0.5"/>
<path d="M96.4897 79.0378H163.49L197.99 77.5378H212.49L212.99 83.0378H198.99H97.9897H86.4897V79.0378H96.4897Z" fill="#EDADBF"/>
<path d="M96.4897 79.0378H163.49L197.99 77.5378M96.4897 79.0378C96.4897 80.5378 96.9897 81.5378 97.9897 83.0378M96.4897 79.0378H86.4897V83.0378H97.9897M197.99 77.5378L198.99 83.0378M197.99 77.5378H212.49L212.99 83.0378H198.99M198.99 83.0378H97.9897" stroke="black" stroke-width="0.5"/>
<path d="M96.4889 79.0378C91.9897 74.5378 88.9898 52.5378 92.9889 36.0378L164.99 32.0378C160.99 37.0378 159.99 71.0378 163.49 79.0378H96.4889Z" fill="#EDADBF" stroke="black" stroke-width="0.5"/>
<path d="M228.489 31.0378L164.989 32.0378C160.989 37.0378 159.99 71.0378 163.489 79.0378L197.989 77.5378C202.489 76.0378 208.989 70.5378 228.489 31.0378Z" fill="#EDADBF" stroke="black" stroke-width="0.5"/>
<path d="M170.49 30.5379C165.99 31.0379 162.49 31.0379 159.49 31.0379L164.99 8.53792C167.99 8.03784 170.99 8.03784 173.99 8.53792L170.49 30.5379Z" fill="#EDADBF" stroke="black" stroke-width="0.5"/>
<path d="M98.9897 32.5379C103.49 38.0379 110.49 34.5379 114.49 33.0379C115.49 17.5377 102.49 25.5377 98.9897 32.5379Z" fill="#EDADBF" stroke="black" stroke-width="0.5"/>
<path d="M234.488 10.0378L231.488 13.5378C248.488 19.0378 258.988 22.0378 271.488 28.5378H272.988L280.988 27.0378C265.988 20.5378 258.488 18.0378 234.488 10.0378Z" stroke="black" stroke-width="0.5"/>
<path d="M271.488 28.5378C260.988 23.0378 241.988 16.5378 231.488 13.5378L229.488 16.0378L244.488 23.5378C242.988 26.0378 238.988 28.0378 232.988 30.7378C244.988 30.0378 261.988 29.0378 271.488 28.5378Z" stroke="black" stroke-width="0.5"/>
<path d="M276.99 34.8378L282.988 32.5378L272.489 28.5378L228.489 31.0378C220.989 46.0378 205.989 76.5378 197.989 77.5378H212.489C210.989 66.5378 220.489 43.0378 245.49 52.0378C255.99 46.5378 265.99 41.0378 276.99 34.8378Z" stroke="black" stroke-width="0.5"/>
<path d="M277.988 34.5379C265.988 41.0379 255.988 46.5379 245.488 52.0379C249.988 55.0378 260.488 61.0378 259.488 80.0378L284.488 79.5378V78.0378C292.988 77.0378 301.488 80.5378 299.988 66.5378L301.988 56.5378C301.988 55.0378 299.488 51.0378 296.988 50.5378C298.488 48.0378 295.488 39.0378 295.488 39.0378V37.5378L291.488 34.5378L286.488 33.0378L282.988 32.5378L277.988 34.5379Z" stroke="black" stroke-width="0.5"/>
<path d="M295.488 37.5378L295.482 37.458M295.482 37.458L294.988 29.0378L280.988 27.0378L272.488 28.5378L282.988 32.5378C292.488 33.5378 291.487 35.0378 295.482 37.458Z" stroke="black" stroke-width="0.5"/>
<path d="M293.99 37.038C293.49 34.5379 282.49 34.3379 276.99 34.8379" stroke="black" stroke-width="0.5"/>
<path d="M299.99 67.0378L260.49 69.0378C259.99 64.0378 257.823 59.8712 255.99 58.0378L301.99 55.5378M300.49 53.0378C289.49 51.5378 278.49 46.7378 266.49 40.7378M228.49 31.0378L272.49 28.5378L280.99 27.0378" stroke="black" stroke-width="0.5"/>
<path d="M272.49 43.5378C279.485 43.8876 285.502 43.9927 290.883 44.5378M297.49 45.5378C295.387 45.0872 293.194 44.7719 290.883 44.5378M295.49 38.0378C295.072 37.4527 294.603 36.9235 294.099 36.4478M290.883 44.5378C290.557 44.1931 290.463 43.67 290.448 43.0378M290.448 43.0378C290.434 42.4476 290.49 41.7621 290.49 41.0378C290.49 39.0378 289.49 35.0378 285.99 33.0378C288.211 33.0378 291.587 34.0782 294.099 36.4478M290.448 43.0378C293.49 41.5378 294.562 37.9778 294.099 36.4478" stroke="black" stroke-width="0.5"/>
<path d="M290.49 41.0378C285.99 41.0378 283.99 37.0378 282.99 34.5378" stroke="black" stroke-width="0.5"/>
<path d="M132.488 13.1378C118.988 17.1378 106.988 23.0378 92.9883 36.0378C99.9883 24.0378 115.488 14.5378 130.988 9.53784L132.488 13.1378Z" fill="#E0426F" stroke="black" stroke-width="0.5"/>
<path d="M130.988 9.53784C110.988 15.2119 92.9883 32.5378 84.9883 30.5378C97.9883 21.0378 113.988 12.5378 130.488 8.03784L130.988 9.53784Z" fill="#E0426F" stroke="black" stroke-width="0.5"/>
<path d="M9.98895 48.5377H3.98895C1.48828 52.5377 1.48828 62.5377 1.98895 66.0377C0.488281 67.0377 0.488879 71.5377 1.48895 73.0377L5.48895 73.5377V75.0377L1.48895 77.0377V79.0377C5.48895 80.0377 13.9889 82.0377 21.9889 81.5377V80.0377H39.4889C38.8223 71.5377 40.4889 61.0377 49.4889 54.0377C46.9889 50.0377 39.9889 45.5377 36.9889 45.0377C26.9889 44.0377 11.9889 46.5377 9.98895 48.5377Z" fill="#E0426F" stroke="black" stroke-width="0.5"/>
<path d="M92.9897 36.0378C75.1564 36.8712 43.4897 41.7378 32.9897 44.7378L36.9897 45.0378C41.9897 46.5378 47.4897 50.8712 49.4897 54.0378C62.4888 44.5378 87.9888 51.5378 86.4888 79.0378H96.4888C89.4888 68.0378 90.4888 46.0378 92.9897 36.0378Z" fill="#E0426F" stroke="black" stroke-width="0.5"/>
<path d="M9.98828 48.5379H3.98828C36.4885 29.0378 58.4885 35.0378 84.4883 30.5378L93.4885 36.0378C76.4885 37.0378 47.4883 40.5378 33.4883 44.7378C25.4883 44.5378 11.4883 46.5378 9.98828 48.5379Z" fill="#E0426F" stroke="black" stroke-width="0.5"/>
<path d="M36.9897 45.0379C29.4897 44.0378 12.4897 46.0378 9.98974 48.5379C9.18974 50.9379 12.3231 53.8712 13.9897 55.0378C23.4897 56.5378 36.9897 50.5378 36.9897 45.0379Z" fill="#E0426F" stroke="black" stroke-width="0.5"/>
<path d="M3.98898 48.5378C10.989 49.5378 4.98898 60.0378 1.98898 65.0378C1.48891 58.0378 1.98877 52.5378 3.98898 48.5378Z" fill="#E0426F" stroke="black" stroke-width="0.5"/>
<path d="M21.9883 84.5378V80.0378H39.4883L39.9883 84.5378H21.9883Z" fill="#E0426F" stroke="black" stroke-width="0.5"/>
<path d="M2.49023 66.0376C3.99023 68.5376 5.99023 71.7043 5.49023 73.5376M21.9902 80.0376C11.4902 80.5376 6.99023 76.5376 7.99023 73.0376C8.49023 72.5376 9.99023 71.0376 10.9902 71.0376" stroke="black" stroke-width="0.5"/>
<path d="M31.9902 75.0377C29.4902 71.0377 23.9902 66.0378 20.9902 64.5378C19.2402 64.0378 16.6151 64.1628 13.865 64.5378C12.2401 65.8711 10.9902 69.0377 11.4902 72.0377C11.4902 73.2044 12.7977 75.5377 15.4902 75.5377C19.9902 75.5377 26.9902 76.0377 31.9902 75.0377Z" fill="#E0426F"/>
<path d="M5.99023 66.0378C8.24018 65.5378 11.1151 64.9128 13.865 64.5378M13.865 64.5378C16.6151 64.1628 19.2402 64.0378 20.9902 64.5378C23.9902 66.0378 29.4902 71.0377 31.9902 75.0377C26.9902 76.0377 19.9902 75.5377 15.4902 75.5377C12.7977 75.5377 11.4902 73.2044 11.4902 72.0377C10.9902 69.0377 12.2401 65.8711 13.865 64.5378Z" stroke="black" stroke-width="0.5"/>
<path d="M11.4902 71.5378C19.4902 70.0378 22.9902 72.6663 25.9902 74.1663M12.9902 74.5378L30.4902 74.0378" stroke="black" stroke-width="0.5"/>
<path d="M21.9883 83.0376H31.4883C33.4883 83.0376 34.9883 81.0376 34.4883 80.0376M37.9883 80.0376V84.5376" stroke="black" stroke-width="0.5"/>
<path d="M21.9897 81.5381C17.4897 81.5381 12.9897 82.0381 1.48969 79.0381V77.0381L5.48969 75.0381V73.5381L1.48969 73.0381C0.98877 71.5378 -0.0110346 68.5378 1.98896 66.0378C1.4892 58.0378 1.9892 51.5378 3.98969 48.5376C36.4897 29.038 58.4897 35.038 84.4897 30.538C162.49 -24.4621 244.49 12.5378 281.49 27.038L294.99 29.0378L295.49 36.0378V39.0378C296.988 44.0378 298.323 48.5378 296.99 50.5378C299.49 51.5378 301.99 54.7045 301.99 56.5378L299.99 66.5378C300.442 77.3858 298.034 77.61 288.702 77.9225C287.711 77.9557 285.642 77.9898 284.49 78.0378V79.5378L259.49 79.9689M21.9897 81.5381V84.5381H39.988L39.4897 80.0381M21.9897 81.5381V80.0381H39.4897M39.4897 80.0381C36.4897 38.5381 89.9897 41.5381 86.4897 80.5381V83.0378H212.99C206.99 39.5378 261.49 39.5378 259.49 79.9689M258.988 79.9689H259.49" stroke="black"/>
</svg>
