<svg width="304" height="95" viewBox="0 0 304 95" fill="none" xmlns="http://www.w3.org/2000/svg">
<circle cx="63.0835" cy="73.8611" r="20.5" fill="#EDADBF" stroke="black"/>
<circle cx="236.083" cy="73.8611" r="20.5" fill="#EDADBF" stroke="black"/>
<path d="M133.082 12.3609L131.582 8.86094C171.582 0.861052 193.082 1.36108 232.082 12.861L228.582 17.361C208.582 9.36099 190.582 8.36099 174.582 7.86106C172.082 7.36106 168.082 7.36102 165.582 7.86094C155.582 7.86106 143.582 9.36106 133.082 12.3609Z" fill="#EDADBF" stroke="black" stroke-width="0.5"/>
<path d="M131.582 8.86113L131.082 7.36113C167.082 -3.63892 199.582 0.360958 235.082 9.36113L232.082 12.8611C192.082 0.361084 166.082 1.86108 131.582 8.86113Z" fill="#EDADBF" stroke="black" stroke-width="0.5"/>
<path d="M131.582 8.86095C183.082 -2.63908 211.582 7.36096 232.082 12.8609" stroke="black" stroke-width="0.5"/>
<path d="M171.083 29.8611L174.583 7.86108C208.083 8.86108 219.583 14.3611 224.083 15.8611L226.566 27.8611C199.576 27.8617 182.081 29.3612 171.083 29.8611Z" fill="#EDADBF"/>
<path d="M227.083 30.3611L224.083 15.8611C219.583 14.3611 208.083 8.86108 174.583 7.86108L171.083 29.8611C182.083 29.3611 199.583 27.8611 226.583 27.8611" stroke="black" stroke-width="0.5"/>
<path d="M165.583 7.86108C132.583 8.86108 112.583 17.8611 93.5835 35.3611L96.0835 33.3611L160.083 30.3611L165.583 7.86108Z" fill="#EDADBF" stroke="black" stroke-width="0.5"/>
<path d="M240.082 22.3611C236.415 19.6944 230.582 17.3611 224.082 15.8611L226.582 27.8611H233.082C236.082 26.3611 239.082 24.1298 240.082 22.3611Z" fill="#EDADBF" stroke="black" stroke-width="0.5"/>
<path d="M97.0835 78.3611H164.083L198.583 76.8611H213.083L213.583 82.3611H199.583H98.5835H87.0835V78.3611H97.0835Z" fill="#EDADBF"/>
<path d="M97.0835 78.3611H164.083L198.583 76.8611M97.0835 78.3611C97.0835 79.8611 97.5835 80.8611 98.5835 82.3611M97.0835 78.3611H87.0835V82.3611H98.5835M198.583 76.8611L199.583 82.3611M198.583 76.8611H213.083L213.583 82.3611H199.583M199.583 82.3611H98.5835" stroke="black" stroke-width="0.5"/>
<path d="M97.0826 78.3611C92.5835 73.8611 89.5835 51.8611 93.5826 35.3611L165.583 31.3611C161.583 36.3611 160.583 70.3611 164.083 78.3611H97.0826Z" fill="#EDADBF" stroke="black" stroke-width="0.5"/>
<path d="M229.083 30.3611L165.583 31.3611C161.583 36.3611 160.583 70.3611 164.083 78.3611L198.583 76.8611C203.083 75.3611 209.583 69.8611 229.083 30.3611Z" fill="#EDADBF" stroke="black" stroke-width="0.5"/>
<path d="M171.083 29.8612C166.583 30.3612 163.083 30.3612 160.083 30.3612L165.583 7.86116C168.583 7.36108 171.583 7.36108 174.583 7.86116L171.083 29.8612Z" fill="#EDADBF" stroke="black" stroke-width="0.5"/>
<path d="M99.5835 31.8611C104.083 37.3611 111.083 33.8611 115.083 32.3611C116.083 16.861 103.083 24.861 99.5835 31.8611Z" fill="#EDADBF" stroke="black" stroke-width="0.5"/>
<path d="M235.082 9.36108L232.082 12.8611C249.082 18.3611 259.582 21.3611 272.082 27.8611H273.582L281.582 26.3611C266.582 19.8611 259.082 17.3611 235.082 9.36108Z" fill="#EFC7D3" stroke="black" stroke-width="0.5"/>
<path d="M272.082 27.8611C261.582 22.3611 242.582 15.8611 232.082 12.8611L230.082 15.3611L245.082 22.8611C243.582 25.3611 239.582 27.3611 233.582 30.0611C245.582 29.3611 262.582 28.3611 272.082 27.8611Z" fill="#EFC7D3" stroke="black" stroke-width="0.5"/>
<path d="M277.583 34.1611L283.582 31.8611L273.083 27.8611L229.083 30.3611C221.583 45.3611 206.583 75.8611 198.583 76.8611H213.083C211.583 65.8611 221.083 42.3611 246.083 51.3611C256.583 45.8611 266.583 40.3611 277.583 34.1611Z" fill="#EFC7D3" stroke="black" stroke-width="0.5"/>
<path d="M278.582 33.8611C266.582 40.3611 256.582 45.8611 246.082 51.3611C250.582 54.3611 261.082 60.3611 260.082 79.3611L285.082 78.8611V77.3611C293.582 76.3611 302.082 79.8611 300.582 65.8611L302.582 55.8611C302.582 54.3611 300.082 50.3611 297.582 49.8611C299.082 47.3611 296.082 38.3611 296.082 38.3611V36.8611L292.082 33.8611L287.082 32.3611L283.582 31.8611L278.582 33.8611Z" fill="#EFC7D3" stroke="black" stroke-width="0.5"/>
<path d="M281.582 26.3611L273.082 27.8611L283.582 31.8611C293.082 32.8611 292.081 34.3611 296.076 36.7813L295.582 28.3611L281.582 26.3611Z" fill="#EFC7D3"/>
<path d="M296.082 36.8611L296.076 36.7813M296.076 36.7813L295.582 28.3611L281.582 26.3611L273.082 27.8611L283.582 31.8611C293.082 32.8611 292.081 34.3611 296.076 36.7813Z" stroke="black" stroke-width="0.5"/>
<path d="M294.583 36.3613C294.083 33.8612 283.083 33.6611 277.583 34.1611" stroke="black" stroke-width="0.5"/>
<path d="M300.583 66.3611L261.083 68.3611C260.583 63.3611 258.417 59.1944 256.583 57.3611L302.583 54.8611M301.083 52.3611C290.083 50.8611 279.083 46.0611 267.083 40.0611M229.083 30.3611L273.083 27.8611L281.583 26.3611" stroke="black" stroke-width="0.5"/>
<path d="M291.083 40.3611C291.083 38.3611 290.083 34.3611 286.583 32.3611C288.804 32.3611 292.181 33.4015 294.692 35.7711C295.156 37.3011 294.083 40.8611 291.042 42.3611C291.028 41.7708 291.083 41.0854 291.083 40.3611Z" fill="#EFC7D3"/>
<path d="M273.083 42.8611C280.079 43.2109 286.096 43.316 291.477 43.8611M298.083 44.8611C295.981 44.4104 293.787 44.0952 291.477 43.8611M296.083 37.3611C295.666 36.776 295.196 36.2467 294.692 35.7711M291.477 43.8611C291.15 43.5163 291.056 42.9933 291.042 42.3611M291.042 42.3611C291.028 41.7708 291.083 41.0854 291.083 40.3611C291.083 38.3611 290.083 34.3611 286.583 32.3611C288.804 32.3611 292.181 33.4015 294.692 35.7711M291.042 42.3611C294.083 40.8611 295.156 37.3011 294.692 35.7711" stroke="black" stroke-width="0.5"/>
<path d="M291.083 40.3611C286.583 40.3611 284.583 36.3611 283.583 33.8611" stroke="black" stroke-width="0.5"/>
<path d="M133.082 12.4611C119.582 16.4611 107.582 22.3611 93.582 35.3611C100.582 23.3611 116.082 13.8611 131.582 8.86108L133.082 12.4611Z" stroke="black" stroke-width="0.5"/>
<path d="M131.582 8.86108C111.582 14.5351 93.582 31.8611 85.582 29.8611C98.582 20.3611 114.582 11.8611 131.082 7.36108L131.582 8.86108Z" stroke="black" stroke-width="0.5"/>
<path d="M10.5827 47.861H4.5827C2.08203 51.861 2.08203 61.861 2.5827 65.361C1.08203 66.361 1.08263 70.861 2.0827 72.361L6.0827 72.861V74.361L2.0827 76.361V78.361C6.0827 79.361 14.5827 81.361 22.5827 80.861V79.361H40.0827C39.416 70.861 41.0827 60.361 50.0827 53.361C47.5827 49.361 40.5827 44.861 37.5827 44.361C27.5827 43.361 12.5827 45.861 10.5827 47.861Z" stroke="black" stroke-width="0.5"/>
<path d="M93.5835 35.3611C75.7502 36.1944 44.0835 41.0611 33.5835 44.0611L37.5835 44.3611C42.5835 45.8611 48.0835 50.1944 50.0835 53.3611C63.0825 43.8611 88.5825 50.8611 87.0825 78.3611H97.0825C90.0825 67.3611 91.0825 45.3611 93.5835 35.3611Z" stroke="black" stroke-width="0.5"/>
<path d="M10.582 47.8611H4.58203C37.0822 28.361 59.0823 34.3611 85.082 29.8611L94.0823 35.3611C77.0823 36.3611 48.082 39.8611 34.082 44.0611C26.082 43.8611 12.082 45.8611 10.582 47.8611Z" stroke="black" stroke-width="0.5"/>
<path d="M37.5835 44.3612C30.0835 43.3611 13.0835 45.3611 10.5835 47.8612C9.78349 50.2611 12.9168 53.1944 14.5835 54.3611C24.0835 55.8611 37.5835 49.8611 37.5835 44.3612Z" stroke="black" stroke-width="0.5"/>
<path d="M4.58273 47.8611C11.5827 48.8611 5.58273 59.3611 2.58273 64.3611C2.08266 57.3611 2.58252 51.8611 4.58273 47.8611Z" stroke="black" stroke-width="0.5"/>
<path d="M22.582 83.8611V79.3611H40.082L40.582 83.8611H22.582Z" stroke="black" stroke-width="0.5"/>
<path d="M3.08398 65.3608C4.58398 67.8608 6.58398 71.0275 6.08398 72.8608M22.584 79.3608C12.084 79.8608 7.58398 75.8608 8.58398 72.3608C9.08398 71.8608 10.584 70.3608 11.584 70.3608" stroke="black" stroke-width="0.5"/>
<path d="M6.58398 65.361C8.83393 64.861 11.7088 64.236 14.4588 63.861M14.4588 63.861C17.2088 63.486 19.8339 63.361 21.584 63.861C24.584 65.361 30.084 70.361 32.584 74.361C27.584 75.361 20.584 74.861 16.084 74.861C13.3914 74.861 12.084 72.5276 12.084 71.361C11.584 68.361 12.8338 65.1943 14.4588 63.861Z" stroke="black" stroke-width="0.5"/>
<path d="M12.084 70.861C20.084 69.3611 23.584 71.9896 26.584 73.4896M13.584 73.8611L31.084 73.3611" stroke="black" stroke-width="0.5"/>
<path d="M22.582 82.3608H32.082C34.082 82.3608 35.582 80.3608 35.082 79.3608M38.582 79.3608V83.8608" stroke="black" stroke-width="0.5"/>
<path d="M22.5834 80.8613C18.0834 80.8613 13.5834 81.3613 2.08344 78.3613V76.3613L6.08344 74.3613V72.8613L2.08344 72.3613C1.58252 70.8611 0.582715 67.8611 2.58271 65.3611C2.08295 57.3611 2.58295 50.8611 4.58344 47.8608C37.0834 28.3612 59.0834 34.3613 85.0834 29.8613C163.083 -25.1388 245.083 11.8611 282.083 26.3613L295.583 28.3611L296.083 35.3611V38.3611C297.582 43.3611 298.917 47.8611 297.583 49.8611C300.083 50.8611 302.583 54.0278 302.583 55.8611L300.583 65.8611C301.035 76.709 298.627 76.9333 289.296 77.2457C288.305 77.2789 286.236 77.3131 285.083 77.3611V78.8611L260.083 79.2921M22.5834 80.8613V83.8613H40.5818L40.0835 79.3613M22.5834 80.8613V79.3613H40.0835M40.0835 79.3613C37.0835 37.8613 90.5834 40.8613 87.0834 79.8613V82.3611H213.583C207.583 38.8611 262.083 38.8611 260.083 79.2921M259.582 79.2921H260.083" stroke="black"/>
</svg>
