<svg width="303" height="96" viewBox="0 0 303 96" fill="none" xmlns="http://www.w3.org/2000/svg">
<circle cx="62.458" cy="74.2146" r="20.5" fill="#E0426F" stroke="black"/>
<circle cx="235.458" cy="74.2146" r="20.5" fill="#E0426F" stroke="black"/>
<path d="M132.456 12.7145L130.956 9.21445C170.956 1.21457 192.456 1.7146 231.456 13.2145L227.956 17.7145C207.956 9.71451 189.956 8.71451 173.956 8.21458C171.456 7.71458 167.456 7.71454 164.956 8.21445C154.956 8.21458 142.956 9.71458 132.456 12.7145Z" fill="#E56E90" stroke="black" stroke-width="0.5"/>
<path d="M130.956 9.21464L130.456 7.71464C166.456 -3.2854 198.956 0.714474 234.456 9.71465L231.456 13.2146C191.456 0.7146 165.456 2.2146 130.956 9.21464Z" fill="#E56E90" stroke="black" stroke-width="0.5"/>
<path d="M130.956 9.21447C182.456 -2.28556 210.956 7.71448 231.456 13.2145" stroke="black" stroke-width="0.5"/>
<path d="M170.458 30.2146L173.958 8.2146C207.458 9.2146 218.958 14.7146 223.458 16.2146L225.941 28.2146C198.951 28.2152 181.456 29.7147 170.458 30.2146Z" fill="#E56E90"/>
<path d="M226.458 30.7146L223.458 16.2146C218.958 14.7146 207.458 9.2146 173.958 8.2146L170.458 30.2146C181.458 29.7146 198.958 28.2146 225.958 28.2146" stroke="black" stroke-width="0.5"/>
<path d="M164.958 8.2146C131.958 9.2146 111.958 18.2146 92.958 35.7146L95.458 33.7146L159.458 30.7146L164.958 8.2146Z" fill="#E56E90" stroke="black" stroke-width="0.5"/>
<path d="M239.456 22.7146C235.789 20.0479 229.956 17.7146 223.456 16.2146L225.956 28.2146H232.456C235.456 26.7146 238.456 24.4833 239.456 22.7146Z" fill="#E56E90" stroke="black" stroke-width="0.5"/>
<path d="M96.458 78.7146H163.458L197.958 77.2146H212.458L212.958 82.7146H198.958H97.958H86.458V78.7146H96.458Z" fill="#E56E90"/>
<path d="M96.458 78.7146H163.458L197.958 77.2146M96.458 78.7146C96.458 80.2146 96.958 81.2146 97.958 82.7146M96.458 78.7146H86.458V82.7146H97.958M197.958 77.2146L198.958 82.7146M197.958 77.2146H212.458L212.958 82.7146H198.958M198.958 82.7146H97.958" stroke="black" stroke-width="0.5"/>
<path d="M96.4571 78.7146C91.958 74.2146 88.9581 52.2146 92.9571 35.7146L164.958 31.7146C160.958 36.7146 159.958 70.7146 163.458 78.7146H96.4571Z" fill="#E56E90" stroke="black" stroke-width="0.5"/>
<path d="M228.458 30.7146L164.958 31.7146C160.958 36.7146 159.958 70.7146 163.458 78.7146L197.958 77.2146C202.458 75.7146 208.958 70.2146 228.458 30.7146Z" fill="#E56E90" stroke="black" stroke-width="0.5"/>
<path d="M170.458 30.2147C165.958 30.7147 162.458 30.7147 159.458 30.7147L164.958 8.21467C167.958 7.7146 170.958 7.7146 173.958 8.21467L170.458 30.2147Z" fill="#E56E90" stroke="black" stroke-width="0.5"/>
<path d="M98.958 32.2146C103.458 37.7146 110.458 34.2146 114.458 32.7146C115.458 17.2145 102.458 25.2145 98.958 32.2146Z" fill="#E56E90" stroke="black" stroke-width="0.5"/>
<path d="M234.456 9.7146L231.456 13.2146C248.456 18.7146 258.956 21.7146 271.456 28.2146H272.956L280.956 26.7146C265.956 20.2146 258.456 17.7146 234.456 9.7146Z" fill="#E56E90" stroke="black" stroke-width="0.5"/>
<path d="M271.456 28.2146C260.956 22.7146 241.956 16.2146 231.456 13.2146L229.456 15.7146L244.456 23.2146C242.956 25.7146 238.956 27.7146 232.956 30.4146C244.956 29.7146 261.956 28.7146 271.456 28.2146Z" fill="#E56E90" stroke="black" stroke-width="0.5"/>
<path d="M276.958 34.5146L282.956 32.2146L272.457 28.2146L228.457 30.7146C220.957 45.7146 205.957 76.2146 197.957 77.2146H212.457C210.957 66.2146 220.457 42.7146 245.458 51.7146C255.958 46.2146 265.958 40.7146 276.958 34.5146Z" fill="#E56E90" stroke="black" stroke-width="0.5"/>
<path d="M277.956 34.2146C265.956 40.7146 255.956 46.2146 245.456 51.7146C249.956 54.7146 260.456 60.7146 259.456 79.7146L284.456 79.2146V77.7146C292.956 76.7146 301.456 80.2146 299.956 66.2146L301.956 56.2146C301.956 54.7146 299.456 50.7146 296.956 50.2146C298.456 47.7146 295.456 38.7146 295.456 38.7146V37.2146L291.456 34.2146L286.456 32.7146L282.956 32.2146L277.956 34.2146Z" fill="#E56E90" stroke="black" stroke-width="0.5"/>
<path d="M280.956 26.7146L272.456 28.2146L282.956 32.2146C292.456 33.2146 291.455 34.7146 295.45 37.1348L294.956 28.7146L280.956 26.7146Z" fill="#E56E90"/>
<path d="M295.456 37.2146L295.45 37.1348M295.45 37.1348L294.956 28.7146L280.956 26.7146L272.456 28.2146L282.956 32.2146C292.456 33.2146 291.455 34.7146 295.45 37.1348Z" stroke="black" stroke-width="0.5"/>
<path d="M293.958 36.7148C293.458 34.2147 282.458 34.0146 276.958 34.5146" stroke="black" stroke-width="0.5"/>
<path d="M299.958 66.7146L260.458 68.7146C259.958 63.7146 257.791 59.5479 255.958 57.7146L301.958 55.2146M300.458 52.7146C289.458 51.2146 278.458 46.4146 266.458 40.4146M228.458 30.7146L272.458 28.2146L280.958 26.7146" stroke="black" stroke-width="0.5"/>
<path d="M290.458 40.7146C290.458 38.7146 289.458 34.7146 285.958 32.7146C288.179 32.7146 291.556 33.755 294.067 36.1246C294.531 37.6546 293.458 41.2146 290.416 42.7146C290.403 42.1243 290.458 41.4389 290.458 40.7146Z" fill="#E56E90"/>
<path d="M272.458 43.2146C279.454 43.5644 285.471 43.6695 290.851 44.2146M297.458 45.2146C295.355 44.764 293.162 44.4487 290.851 44.2146M295.458 37.7146C295.04 37.1295 294.571 36.6002 294.067 36.1246M290.851 44.2146C290.525 43.8698 290.431 43.3468 290.416 42.7146M290.416 42.7146C290.403 42.1243 290.458 41.4389 290.458 40.7146C290.458 38.7146 289.458 34.7146 285.958 32.7146C288.179 32.7146 291.556 33.755 294.067 36.1246M290.416 42.7146C293.458 41.2146 294.531 37.6546 294.067 36.1246" stroke="black" stroke-width="0.5"/>
<path d="M290.458 40.7146C285.958 40.7146 283.958 36.7146 282.958 34.2146" stroke="black" stroke-width="0.5"/>
<path d="M132.456 12.8146C118.956 16.8146 106.956 22.7146 92.9561 35.7146C99.9561 23.7146 115.456 14.2146 130.956 9.2146L132.456 12.8146Z" fill="#E56E90" stroke="black" stroke-width="0.5"/>
<path d="M130.956 9.2146C110.956 14.8886 92.9561 32.2146 84.9561 30.2146C97.9561 20.7146 113.956 12.2146 130.456 7.7146L130.956 9.2146Z" fill="#E56E90" stroke="black" stroke-width="0.5"/>
<path d="M9.95672 48.2145H3.95672C1.45605 52.2145 1.45605 62.2145 1.95672 65.7145C0.456055 66.7145 0.456652 71.2145 1.45672 72.7145L5.45672 73.2145V74.7145L1.45672 76.7145V78.7145C5.45672 79.7145 13.9567 81.7145 21.9567 81.2145V79.7145H39.4567C38.7901 71.2145 40.4567 60.7145 49.4567 53.7145C46.9567 49.7145 39.9567 45.2145 36.9567 44.7145C26.9567 43.7145 11.9567 46.2145 9.95672 48.2145Z" fill="#E56E90" stroke="black" stroke-width="0.5"/>
<path d="M92.958 35.7146C75.1247 36.5479 43.458 41.4146 32.958 44.4146L36.958 44.7146C41.958 46.2146 47.458 50.5479 49.458 53.7146C62.457 44.2146 87.957 51.2146 86.457 78.7146H96.457C89.457 67.7146 90.457 45.7146 92.958 35.7146Z" fill="#E56E90" stroke="black" stroke-width="0.5"/>
<path d="M9.95606 48.2147H3.95605C36.4562 28.7146 58.4563 34.7146 84.4561 30.2146L93.4563 35.7146C76.4563 36.7146 47.4561 40.2146 33.4561 44.4146C25.4561 44.2146 11.4561 46.2146 9.95606 48.2147Z" fill="#E56E90" stroke="black" stroke-width="0.5"/>
<path d="M36.9575 44.7147C29.4575 43.7146 12.4575 45.7146 9.95751 48.2147C9.15751 50.6146 12.2908 53.5479 13.9575 54.7146C23.4575 56.2146 36.9575 50.2146 36.9575 44.7147Z" fill="#E56E90" stroke="black" stroke-width="0.5"/>
<path d="M3.95675 48.2146C10.9568 49.2146 4.95675 59.7146 1.95675 64.7146C1.45668 57.7146 1.95654 52.2146 3.95675 48.2146Z" fill="#E56E90" stroke="black" stroke-width="0.5"/>
<path d="M21.9561 84.2146V79.7146H39.4561L39.9561 84.2146H21.9561Z" fill="#E56E90" stroke="black" stroke-width="0.5"/>
<path d="M2.45801 65.7144C3.95801 68.2144 5.95801 71.381 5.45801 73.2144M21.958 79.7144C11.458 80.2144 6.95801 76.2144 7.95801 72.7144C8.45801 72.2144 9.95801 70.7144 10.958 70.7144" stroke="black" stroke-width="0.5"/>
<path d="M31.958 74.7145C29.458 70.7145 23.958 65.7146 20.958 64.2146C19.208 63.7145 16.5829 63.8395 13.8328 64.2146C12.2079 65.5479 10.958 68.7145 11.458 71.7145C11.458 72.8811 12.7654 75.2145 15.458 75.2145C19.958 75.2145 26.958 75.7145 31.958 74.7145Z" fill="#E56E90"/>
<path d="M5.95801 65.7146C8.20795 65.2145 11.0829 64.5896 13.8328 64.2146M13.8328 64.2146C16.5829 63.8395 19.208 63.7145 20.958 64.2146C23.958 65.7146 29.458 70.7145 31.958 74.7145C26.958 75.7145 19.958 75.2145 15.458 75.2145C12.7654 75.2145 11.458 72.8811 11.458 71.7145C10.958 68.7145 12.2079 65.5479 13.8328 64.2146Z" stroke="black" stroke-width="0.5"/>
<path d="M11.458 71.2146C19.458 69.7146 22.958 72.3431 25.958 73.8431M12.958 74.2146L30.458 73.7146" stroke="black" stroke-width="0.5"/>
<path d="M21.9561 82.7144H31.4561C33.4561 82.7144 34.9561 80.7144 34.4561 79.7144M37.9561 79.7144V84.2144" stroke="black" stroke-width="0.5"/>
<path d="M21.958 81.2148C17.458 81.2148 12.958 81.7148 1.45795 78.7148V76.7148L5.45795 74.7148V73.2148L1.45795 72.7149C0.957031 71.2146 -0.0427729 68.2146 1.95722 65.7146C1.45747 57.7146 1.95747 51.2146 3.95795 48.2143C36.458 28.7147 58.4579 34.7148 84.4579 30.2148C162.458 -24.7853 244.458 12.2146 281.458 26.7148L294.958 28.7146L295.458 35.7146V38.7146C296.956 43.7146 298.291 48.2146 296.958 50.2146C299.458 51.2146 301.958 54.3813 301.958 56.2146L299.958 66.2146C300.41 77.0625 298.002 77.2868 288.67 77.5992C287.679 77.6324 285.61 77.6666 284.458 77.7146V79.2146L259.458 79.6456M21.958 81.2148V84.2148H39.9563L39.458 79.7148M21.958 81.2148V79.7148H39.458M39.458 79.7148C36.458 38.2148 89.9579 41.2148 86.4579 80.2148V82.7146H212.958C206.958 39.2146 261.458 39.2146 259.458 79.6456M258.956 79.6456H259.458" stroke="black"/>
</svg>
