<svg width="303" height="95" viewBox="0 0 303 95" fill="none" xmlns="http://www.w3.org/2000/svg">
<circle cx="62.6978" cy="73.8914" r="20.5" stroke="black"/>
<circle cx="235.698" cy="73.8914" r="20.5" stroke="black"/>
<path d="M132.696 12.3912L131.196 8.89121C171.196 0.891325 192.696 1.39136 231.696 12.8913L228.196 17.3913C208.196 9.39127 190.196 8.39127 174.196 7.89133C171.696 7.39133 167.696 7.3913 165.196 7.89121C155.196 7.89133 143.196 9.39134 132.696 12.3912Z" fill="#E0426F" stroke="black" stroke-width="0.5"/>
<path d="M131.196 8.8914L130.696 7.3914C166.696 -3.60864 199.196 0.391232 234.696 9.3914L231.696 12.8914C191.696 0.391357 165.696 1.89136 131.196 8.8914Z" fill="#E0426F" stroke="black" stroke-width="0.5"/>
<path d="M131.196 8.89122C182.696 -2.6088 211.196 7.39124 231.696 12.8912" stroke="black" stroke-width="0.5"/>
<path d="M170.698 29.8914L174.198 7.89136C207.698 8.89136 219.198 14.3914 223.698 15.8914L226.181 27.8914C199.19 27.892 181.695 29.3915 170.698 29.8914Z" fill="#E0426F"/>
<path d="M226.698 30.3914L223.698 15.8914C219.198 14.3914 207.698 8.89136 174.198 7.89136L170.698 29.8914C181.698 29.3914 199.198 27.8914 226.198 27.8914" stroke="black" stroke-width="0.5"/>
<path d="M165.198 7.89136C132.198 8.89136 112.198 17.8914 93.1978 35.3914L95.6978 33.3914L159.698 30.3914L165.198 7.89136Z" fill="#E0426F" stroke="black" stroke-width="0.5"/>
<path d="M239.696 22.3914C236.03 19.7247 230.196 17.3914 223.696 15.8914L226.196 27.8914H232.696C235.696 26.3914 238.696 24.1601 239.696 22.3914Z" fill="#E0426F" stroke="black" stroke-width="0.5"/>
<path d="M96.6978 78.3914H163.698L198.198 76.8914H212.698L213.198 82.3914H199.198H98.1978H86.6978V78.3914H96.6978Z" fill="#E0426F"/>
<path d="M96.6978 78.3914H163.698L198.198 76.8914M96.6978 78.3914C96.6978 79.8914 97.1978 80.8914 98.1978 82.3914M96.6978 78.3914H86.6978V82.3914H98.1978M198.198 76.8914L199.198 82.3914M198.198 76.8914H212.698L213.198 82.3914H199.198M199.198 82.3914H98.1978" stroke="black" stroke-width="0.5"/>
<path d="M96.6969 78.3914C92.1977 73.8914 89.1978 51.8914 93.1969 35.3914L165.198 31.3914C161.198 36.3914 160.198 70.3914 163.698 78.3914H96.6969Z" fill="#E0426F" stroke="black" stroke-width="0.5"/>
<path d="M228.697 30.3914L165.197 31.3914C161.197 36.3914 160.198 70.3914 163.697 78.3914L198.197 76.8914C202.697 75.3914 209.197 69.8914 228.697 30.3914Z" fill="#E0426F" stroke="black" stroke-width="0.5"/>
<path d="M170.698 29.8914C166.198 30.3914 162.698 30.3914 159.698 30.3914L165.198 7.89143C168.198 7.39136 171.198 7.39136 174.198 7.89143L170.698 29.8914Z" fill="#E0426F" stroke="black" stroke-width="0.5"/>
<path d="M99.1978 31.8914C103.698 37.3914 110.698 33.8914 114.698 32.3914C115.698 16.8913 102.698 24.8912 99.1978 31.8914Z" fill="#E0426F" stroke="black" stroke-width="0.5"/>
<path d="M234.696 9.39136L231.696 12.8914C248.696 18.3914 259.196 21.3914 271.696 27.8914H273.196L281.196 26.3914C266.196 19.8914 258.696 17.3914 234.696 9.39136Z" stroke="black" stroke-width="0.5"/>
<path d="M271.696 27.8914C261.196 22.3914 242.196 15.8914 231.696 12.8914L229.696 15.3914L244.696 22.8914C243.196 25.3914 239.196 27.3914 233.196 30.0914C245.196 29.3914 262.196 28.3914 271.696 27.8914Z" stroke="black" stroke-width="0.5"/>
<path d="M277.198 34.1914L283.196 31.8914L272.697 27.8914L228.697 30.3914C221.197 45.3914 206.197 75.8914 198.197 76.8914H212.697C211.197 65.8914 220.697 42.3914 245.698 51.3914C256.198 45.8914 266.198 40.3914 277.198 34.1914Z" stroke="black" stroke-width="0.5"/>
<path d="M278.196 33.8914C266.196 40.3914 256.196 45.8914 245.696 51.3914C250.196 54.3914 260.696 60.3914 259.696 79.3914L284.696 78.8914V77.3914C293.196 76.3914 301.696 79.8914 300.196 65.8914L302.196 55.8914C302.196 54.3914 299.696 50.3914 297.196 49.8914C298.696 47.3914 295.696 38.3914 295.696 38.3914V36.8914L291.696 33.8914L286.696 32.3914L283.196 31.8914L278.196 33.8914Z" stroke="black" stroke-width="0.5"/>
<path d="M295.696 36.8914L295.69 36.8115M295.69 36.8115L295.196 28.3914L281.196 26.3914L272.696 27.8914L283.196 31.8914C292.696 32.8914 291.695 34.3914 295.69 36.8115Z" stroke="black" stroke-width="0.5"/>
<path d="M294.198 36.3916C293.698 33.8914 282.698 33.6914 277.198 34.1914" stroke="black" stroke-width="0.5"/>
<path d="M300.198 66.3914L260.698 68.3914C260.198 63.3914 258.031 59.2247 256.198 57.3914L302.198 54.8914M300.698 52.3914C289.698 50.8914 278.698 46.0914 266.698 40.0914M228.698 30.3914L272.698 27.8914L281.198 26.3914" stroke="black" stroke-width="0.5"/>
<path d="M272.698 42.8914C279.693 43.2411 285.71 43.3462 291.091 43.8914M297.698 44.8914C295.595 44.4407 293.402 44.1255 291.091 43.8914M295.698 37.3914C295.28 36.8062 294.811 36.277 294.307 35.8013M291.091 43.8914C290.765 43.5466 290.671 43.0235 290.656 42.3914M290.656 42.3914C290.642 41.8011 290.698 41.1156 290.698 40.3914C290.698 38.3914 289.698 34.3914 286.198 32.3914C288.419 32.3914 291.795 33.4317 294.307 35.8013M290.656 42.3914C293.698 40.8914 294.77 37.3313 294.307 35.8013" stroke="black" stroke-width="0.5"/>
<path d="M290.698 40.3914C286.198 40.3914 284.198 36.3914 283.198 33.8914" stroke="black" stroke-width="0.5"/>
<path d="M132.696 12.4913C119.196 16.4913 107.196 22.3914 93.1963 35.3914C100.196 23.3914 115.696 13.8914 131.196 8.89136L132.696 12.4913Z" fill="#EDADBF" stroke="black" stroke-width="0.5"/>
<path d="M131.196 8.89136C111.196 14.5654 93.1963 31.8914 85.1963 29.8914C98.1963 20.3914 114.196 11.8914 130.696 7.39136L131.196 8.89136Z" fill="#EDADBF" stroke="black" stroke-width="0.5"/>
<path d="M10.197 47.8912H4.19696C1.69629 51.8912 1.69629 61.8912 2.19696 65.3912C0.696289 66.3912 0.696887 70.8912 1.69696 72.3912L5.69696 72.8912V74.3912L1.69696 76.3912V78.3912C5.69696 79.3912 14.197 81.3912 22.197 80.8912V79.3912H39.697C39.0303 70.8912 40.697 60.3912 49.697 53.3912C47.197 49.3912 40.197 44.8912 37.197 44.3912C27.197 43.3912 12.197 45.8912 10.197 47.8912Z" fill="#EDADBF" stroke="black" stroke-width="0.5"/>
<path d="M93.1978 35.3914C75.3644 36.2247 43.6978 41.0914 33.1978 44.0914L37.1978 44.3914C42.1978 45.8914 47.6978 50.2247 49.6978 53.3914C62.6968 43.8914 88.1968 50.8914 86.6968 78.3914H96.6968C89.6968 67.3914 90.6968 45.3914 93.1978 35.3914Z" fill="#EDADBF" stroke="black" stroke-width="0.5"/>
<path d="M10.1963 47.8914H4.19629C36.6965 28.3913 58.6965 34.3914 84.6963 29.8914L93.6965 35.3914C76.6965 36.3914 47.6963 39.8914 33.6963 44.0914C25.6963 43.8913 11.6963 45.8914 10.1963 47.8914Z" fill="#EDADBF" stroke="black" stroke-width="0.5"/>
<path d="M37.1977 44.3914C29.6977 43.3914 12.6977 45.3914 10.1977 47.8914C9.39774 50.2914 12.5311 53.2247 14.1977 54.3914C23.6978 55.8914 37.1977 49.8914 37.1977 44.3914Z" fill="#EDADBF" stroke="black" stroke-width="0.5"/>
<path d="M4.19698 47.8914C11.197 48.8914 5.19698 59.3914 2.19698 64.3914C1.69691 57.3914 2.19678 51.8914 4.19698 47.8914Z" fill="#EDADBF" stroke="black" stroke-width="0.5"/>
<path d="M22.1963 83.8914V79.3914H39.6963L40.1963 83.8914H22.1963Z" fill="#EDADBF" stroke="black" stroke-width="0.5"/>
<path d="M2.69824 65.3911C4.19824 67.8911 6.19824 71.0578 5.69824 72.8911M22.1982 79.3911C11.6982 79.8911 7.19824 75.8911 8.19824 72.3911C8.69824 71.8911 10.1982 70.3911 11.1982 70.3911" stroke="black" stroke-width="0.5"/>
<path d="M32.1982 74.3912C29.6982 70.3912 24.1982 65.3913 21.1982 63.8913C19.4482 63.3913 16.8231 63.5163 14.073 63.8913C12.4481 65.2246 11.1982 68.3912 11.6982 71.3912C11.6982 72.5579 13.0057 74.8912 15.6982 74.8912C20.1982 74.8912 27.1982 75.3912 32.1982 74.3912Z" fill="#EDADBF"/>
<path d="M6.19824 65.3913C8.44818 64.8913 11.3231 64.2663 14.073 63.8913M14.073 63.8913C16.8231 63.5163 19.4482 63.3913 21.1982 63.8913C24.1982 65.3913 29.6982 70.3912 32.1982 74.3912C27.1982 75.3912 20.1982 74.8912 15.6982 74.8912C13.0057 74.8912 11.6982 72.5579 11.6982 71.3912C11.1982 68.3912 12.4481 65.2246 14.073 63.8913Z" stroke="black" stroke-width="0.5"/>
<path d="M11.6982 70.8913C19.6982 69.3914 23.1982 72.0198 26.1982 73.5198M13.1982 73.8914L30.6982 73.3914" stroke="black" stroke-width="0.5"/>
<path d="M22.1963 82.3911H31.6963C33.6963 82.3911 35.1963 80.3911 34.6963 79.3911M38.1963 79.3911V83.8911" stroke="black" stroke-width="0.5"/>
<path d="M22.1977 80.8916C17.6977 80.8916 13.1977 81.3916 1.6977 78.3916V76.3916L5.6977 74.3916V72.8916L1.6977 72.3916C1.19678 70.8914 0.196973 67.8914 2.19697 65.3914C1.69721 57.3914 2.19721 50.8914 4.1977 47.8911C36.6977 28.3915 58.6977 34.3915 84.6977 29.8915C162.698 -25.1086 244.698 11.8913 281.698 26.3915L295.198 28.3914L295.698 35.3914V38.3914C297.196 43.3914 298.531 47.8914 297.198 49.8914C299.698 50.8914 302.198 54.058 302.198 55.8914L300.198 65.8914C300.65 76.7393 298.242 76.9635 288.91 77.276C287.919 77.3092 285.85 77.3434 284.698 77.3914V78.8914L259.698 79.3224M22.1977 80.8916V83.8916H40.196L39.6977 79.3916M22.1977 80.8916V79.3916H39.6977M39.6977 79.3916C36.6977 37.8916 90.1977 40.8916 86.6977 79.8916V82.3914H213.198C207.198 38.8914 261.698 38.8914 259.698 79.3224M259.196 79.3224H259.698" stroke="black"/>
</svg>
