<svg width="303" height="95" viewBox="0 0 303 95" fill="none" xmlns="http://www.w3.org/2000/svg">
<circle cx="62.8652" cy="73.8459" r="20.5" fill="#EFC7D3" stroke="black"/>
<circle cx="235.865" cy="73.8459" r="20.5" fill="#EFC7D3" stroke="black"/>
<path d="M132.863 12.3458L131.363 8.8458C171.363 0.845915 192.863 1.34595 231.863 12.8459L228.363 17.3459C208.363 9.34586 190.363 8.34586 174.363 7.84592C171.863 7.34592 167.863 7.34589 165.363 7.8458C155.363 7.84592 143.363 9.34592 132.863 12.3458Z" stroke="black" stroke-width="0.5"/>
<path d="M131.363 8.84599L130.863 7.34599C166.863 -3.65405 199.363 0.345821 234.863 9.34599L231.863 12.846C191.863 0.345947 165.863 1.84595 131.363 8.84599Z" stroke="black" stroke-width="0.5"/>
<path d="M131.363 8.84593C182.863 -2.65409 211.363 7.34595 231.863 12.8459" stroke="black" stroke-width="0.5"/>
<path d="M226.865 30.3459L223.865 15.8459C219.365 14.3459 207.865 8.84595 174.365 7.84595L170.865 29.8459C181.865 29.3459 199.365 27.8459 226.365 27.8459" stroke="black" stroke-width="0.5"/>
<path d="M165.365 7.84595C132.365 8.84595 112.365 17.8459 93.3652 35.3459L95.8652 33.3459L159.865 30.3459L165.365 7.84595Z" stroke="black" stroke-width="0.5"/>
<path d="M239.863 22.3459C236.197 19.6793 230.363 17.3459 223.863 15.8459L226.363 27.8459H232.863C235.863 26.3459 238.863 24.1147 239.863 22.3459Z" stroke="black" stroke-width="0.5"/>
<path d="M96.8652 78.3459H163.865L198.365 76.8459M96.8652 78.3459C96.8652 79.8459 97.3652 80.8459 98.3652 82.3459M96.8652 78.3459H86.8652V82.3459H98.3652M198.365 76.8459L199.365 82.3459M198.365 76.8459H212.865L213.365 82.3459H199.365M199.365 82.3459H98.3652" stroke="black" stroke-width="0.5"/>
<path d="M96.8644 78.3459C92.3652 73.8459 89.3653 51.8459 93.3644 35.3459L165.365 31.3459C161.365 36.3459 160.365 70.3459 163.865 78.3459H96.8644Z" stroke="black" stroke-width="0.5"/>
<path d="M228.865 30.3459L165.365 31.3459C161.365 36.3459 160.365 70.3459 163.865 78.3459L198.365 76.8459C202.865 75.3459 209.365 69.8459 228.865 30.3459Z" stroke="black" stroke-width="0.5"/>
<path d="M170.865 29.846C166.365 30.346 162.865 30.346 159.865 30.346L165.365 7.84602C168.365 7.34595 171.365 7.34595 174.365 7.84602L170.865 29.846Z" stroke="black" stroke-width="0.5"/>
<path d="M99.3652 31.8461C103.865 37.3461 110.865 33.8461 114.865 32.3461C115.865 16.846 102.865 24.8459 99.3652 31.8461Z" stroke="black" stroke-width="0.5"/>
<path d="M234.863 9.34595L231.863 12.8459C248.863 18.3459 259.363 21.3459 271.863 27.8459H273.363L281.363 26.3459C266.363 19.8459 258.863 17.3459 234.863 9.34595Z" fill="#E56E90" stroke="black" stroke-width="0.5"/>
<path d="M271.863 27.8459C261.363 22.3459 242.363 15.8459 231.863 12.8459L229.863 15.3459L244.863 22.8459C243.363 25.3459 239.363 27.3459 233.363 30.0459C245.363 29.3459 262.363 28.3459 271.863 27.8459Z" fill="#E56E90" stroke="black" stroke-width="0.5"/>
<path d="M277.365 34.1459L283.364 31.8459L272.864 27.8459L228.864 30.3459C221.364 45.3459 206.364 75.8459 198.364 76.8459H212.864C211.364 65.8459 220.864 42.3459 245.865 51.3459C256.365 45.8459 266.365 40.3459 277.365 34.1459Z" fill="#E56E90" stroke="black" stroke-width="0.5"/>
<path d="M278.363 33.846C266.363 40.346 256.363 45.846 245.863 51.346C250.363 54.3459 260.863 60.3459 259.863 79.3459L284.863 78.8459V77.3459C293.363 76.3459 301.863 79.8459 300.363 65.8459L302.363 55.8459C302.363 54.3459 299.863 50.3459 297.363 49.8459C298.863 47.3459 295.863 38.3459 295.863 38.3459V36.8459L291.863 33.8459L286.863 32.3459L283.363 31.8459L278.363 33.846Z" fill="#E56E90" stroke="black" stroke-width="0.5"/>
<path d="M281.363 26.3459L272.863 27.8459L283.363 31.8459C292.863 32.8459 291.862 34.3459 295.857 36.7661L295.363 28.3459L281.363 26.3459Z" fill="#E56E90"/>
<path d="M295.863 36.8459L295.857 36.7661M295.857 36.7661L295.363 28.3459L281.363 26.3459L272.863 27.8459L283.363 31.8459C292.863 32.8459 291.862 34.3459 295.857 36.7661Z" stroke="black" stroke-width="0.5"/>
<path d="M294.365 36.3461C293.865 33.846 282.865 33.646 277.365 34.146" stroke="black" stroke-width="0.5"/>
<path d="M300.365 66.3459L260.865 68.3459C260.365 63.3459 258.199 59.1793 256.365 57.3459L302.365 54.8459M300.865 52.3459C289.865 50.8459 278.865 46.0459 266.865 40.0459M228.865 30.3459L272.865 27.8459L281.365 26.3459" stroke="black" stroke-width="0.5"/>
<path d="M290.865 40.3459C290.865 38.3459 289.865 34.3459 286.365 32.3459C288.586 32.3459 291.963 33.3863 294.474 35.7559C294.938 37.2859 293.865 40.8459 290.823 42.3459C290.81 41.7557 290.865 41.0702 290.865 40.3459Z" fill="#E56E90"/>
<path d="M272.865 42.8459C279.861 43.1957 285.878 43.3008 291.258 43.8459M297.865 44.8459C295.762 44.3953 293.569 44.08 291.258 43.8459M295.865 37.3459C295.447 36.7608 294.978 36.2316 294.474 35.7559M291.258 43.8459C290.932 43.5012 290.838 42.9781 290.823 42.3459M290.823 42.3459C290.81 41.7557 290.865 41.0702 290.865 40.3459C290.865 38.3459 289.865 34.3459 286.365 32.3459C288.586 32.3459 291.963 33.3863 294.474 35.7559M290.823 42.3459C293.865 40.8459 294.938 37.2859 294.474 35.7559" stroke="black" stroke-width="0.5"/>
<path d="M290.865 40.3459C286.365 40.3459 284.365 36.3459 283.365 33.8459" stroke="black" stroke-width="0.5"/>
<path d="M132.863 12.4459C119.363 16.4459 107.363 22.3459 93.3633 35.3459C100.363 23.3459 115.863 13.8459 131.363 8.84595L132.863 12.4459Z" fill="#E0426F" stroke="black" stroke-width="0.5"/>
<path d="M131.363 8.84595C111.363 14.52 93.3633 31.8459 85.3633 29.8459C98.3633 20.3459 114.363 11.8459 130.863 7.34595L131.363 8.84595Z" fill="#E0426F" stroke="black" stroke-width="0.5"/>
<path d="M10.3639 47.846H4.36395C1.86328 51.8459 1.86328 61.8459 2.36395 65.3459C0.863281 66.3459 0.863879 70.8459 1.86395 72.3459L5.86395 72.8459V74.3459L1.86395 76.3459V78.3459C5.86395 79.3459 14.3639 81.3459 22.3639 80.8459V79.3459H39.8639C39.1973 70.8459 40.8639 60.3459 49.8639 53.3459C47.3639 49.3459 40.3639 44.8459 37.3639 44.346C27.3639 43.3459 12.3639 45.846 10.3639 47.846Z" fill="#E0426F" stroke="black" stroke-width="0.5"/>
<path d="M93.3652 35.3459C75.5319 36.1793 43.8652 41.0459 33.3652 44.0459L37.3652 44.3459C42.3652 45.8459 47.8652 50.1793 49.8652 53.3459C62.8643 43.8459 88.3643 50.8459 86.8643 78.3459H96.8643C89.8643 67.3459 90.8643 45.3459 93.3652 35.3459Z" fill="#E0426F" stroke="black" stroke-width="0.5"/>
<path d="M10.3633 47.846H4.36328C36.8635 28.3459 58.8635 34.3459 84.8633 29.8459L93.8635 35.3459C76.8635 36.3459 47.8633 39.8459 33.8633 44.046C25.8633 43.8459 11.8633 45.8459 10.3633 47.846Z" fill="#E0426F" stroke="black" stroke-width="0.5"/>
<path d="M37.3647 44.346C29.8647 43.3459 12.8647 45.3459 10.3647 47.846C9.56474 50.246 12.6981 53.1793 14.3647 54.3459C23.8647 55.8459 37.3647 49.8459 37.3647 44.346Z" fill="#E0426F" stroke="black" stroke-width="0.5"/>
<path d="M4.36398 47.8459C11.364 48.8459 5.36398 59.3459 2.36398 64.3459C1.86391 57.3459 2.36377 51.8459 4.36398 47.8459Z" fill="#E0426F" stroke="black" stroke-width="0.5"/>
<path d="M22.3633 83.8459V79.3459H39.8633L40.3633 83.8459H22.3633Z" fill="#E0426F" stroke="black" stroke-width="0.5"/>
<path d="M2.86523 65.3459C4.36523 67.8459 6.36523 71.0126 5.86523 72.8459M22.3652 79.3459C11.8652 79.8459 7.36523 75.8459 8.36523 72.3459C8.86523 71.8459 10.3652 70.3459 11.3652 70.3459" stroke="black" stroke-width="0.5"/>
<path d="M32.3652 74.3459C29.8652 70.3459 24.3652 65.346 21.3652 63.846C19.6152 63.346 16.9901 63.471 14.24 63.846C12.6151 65.1793 11.3652 68.3459 11.8652 71.3459C11.8652 72.5126 13.1727 74.8459 15.8652 74.8459C20.3652 74.8459 27.3652 75.3459 32.3652 74.3459Z" fill="#E0426F"/>
<path d="M6.36523 65.346C8.61518 64.846 11.4901 64.221 14.24 63.846M14.24 63.846C16.9901 63.471 19.6152 63.346 21.3652 63.846C24.3652 65.346 29.8652 70.3459 32.3652 74.3459C27.3652 75.3459 20.3652 74.8459 15.8652 74.8459C13.1727 74.8459 11.8652 72.5126 11.8652 71.3459C11.3652 68.3459 12.6151 65.1793 14.24 63.846Z" stroke="black" stroke-width="0.5"/>
<path d="M11.8652 70.846C19.8652 69.3461 23.3652 71.9745 26.3652 73.4745M13.3652 73.8461L30.8652 73.3461" stroke="black" stroke-width="0.5"/>
<path d="M22.3633 82.3459H31.8633C33.8633 82.3459 35.3633 80.3459 34.8633 79.3459M38.3633 79.3459V83.8459" stroke="black" stroke-width="0.5"/>
<path d="M22.3652 80.8462C17.8652 80.8462 13.3652 81.3462 1.86518 78.3462V76.3462L5.86518 74.3462V72.8462L1.86518 72.3462C1.36426 70.8459 0.364454 67.8459 2.36445 65.3459C1.86469 57.3459 2.36469 50.8459 4.36518 47.8457C36.8652 28.3461 58.8652 34.3461 84.8652 29.8461C162.865 -25.154 244.865 11.8459 281.865 26.3461L295.365 28.3459L295.865 35.3459V38.3459C297.364 43.3459 298.699 47.8459 297.365 49.8459C299.865 50.8459 302.365 54.0126 302.365 55.8459L300.365 65.8459C300.817 76.6939 298.409 76.9181 289.077 77.2306C288.086 77.2638 286.017 77.2979 284.865 77.3459V78.8459L259.865 79.277M22.3652 80.8462V83.8462H40.3635L39.8652 79.3462M22.3652 80.8462V79.3462H39.8652M39.8652 79.3462C36.8652 37.8462 90.3652 40.8462 86.8652 79.8462V82.3459H213.365C207.365 38.8459 261.865 38.8459 259.865 79.277M259.364 79.277H259.865" stroke="black"/>
</svg>
