<svg width="303" height="95" viewBox="0 0 303 95" fill="none" xmlns="http://www.w3.org/2000/svg">
<circle cx="62.6875" cy="73.707" r="20.5" stroke="black"/>
<circle cx="235.688" cy="73.707" r="20.5" stroke="black"/>
<path d="M132.686 12.2069L131.186 8.70689C171.186 0.706999 192.686 1.20703 231.686 12.707L228.186 17.207C208.186 9.20694 190.186 8.20694 174.186 7.70701C171.686 7.20701 167.686 7.20697 165.186 7.70689C155.186 7.70701 143.186 9.20701 132.686 12.2069Z" fill="#E56E90" stroke="black" stroke-width="0.5"/>
<path d="M131.186 8.70708L130.686 7.20708C166.686 -3.79297 199.186 0.206905 234.686 9.20708L231.686 12.7071C191.686 0.207031 165.686 1.70703 131.186 8.70708Z" fill="#E56E90" stroke="black" stroke-width="0.5"/>
<path d="M131.186 8.70714C182.686 -2.79288 211.186 7.20715 231.686 12.7071" stroke="black" stroke-width="0.5"/>
<path d="M170.688 29.707L174.188 7.70703C207.688 8.70703 219.188 14.207 223.688 15.707L226.17 27.707C199.18 27.7077 181.685 29.2071 170.688 29.707Z" fill="#E56E90"/>
<path d="M226.688 30.207L223.688 15.707C219.188 14.207 207.688 8.70703 174.188 7.70703L170.688 29.707C181.688 29.207 199.188 27.707 226.188 27.707" stroke="black" stroke-width="0.5"/>
<path d="M165.188 7.70703C132.188 8.70703 112.188 17.707 93.1875 35.207L95.6875 33.207L159.688 30.207L165.188 7.70703Z" fill="#E56E90" stroke="black" stroke-width="0.5"/>
<path d="M239.686 22.207C236.019 19.5404 230.186 17.207 223.686 15.707L226.186 27.707H232.686C235.686 26.207 238.686 23.9758 239.686 22.207Z" fill="#E56E90" stroke="black" stroke-width="0.5"/>
<path d="M96.6875 78.207H163.688L198.188 76.707H212.688L213.188 82.207H199.188H98.1875H86.6875V78.207H96.6875Z" fill="#E56E90"/>
<path d="M96.6875 78.207H163.688L198.188 76.707M96.6875 78.207C96.6875 79.707 97.1875 80.707 98.1875 82.207M96.6875 78.207H86.6875V82.207H98.1875M198.188 76.707L199.188 82.207M198.188 76.707H212.688L213.188 82.207H199.188M199.188 82.207H98.1875" stroke="black" stroke-width="0.5"/>
<path d="M96.6866 78.207C92.1875 73.707 89.1875 51.707 93.1866 35.207L165.188 31.207C161.188 36.207 160.188 70.207 163.687 78.207H96.6866Z" fill="#E56E90" stroke="black" stroke-width="0.5"/>
<path d="M228.687 30.207L165.187 31.207C161.188 36.207 160.188 70.207 163.687 78.207L198.187 76.707C202.687 75.207 209.187 69.707 228.687 30.207Z" fill="#E56E90" stroke="black" stroke-width="0.5"/>
<path d="M170.688 29.7071C166.188 30.2071 162.688 30.2071 159.688 30.2071L165.188 7.70711C168.188 7.20703 171.188 7.20703 174.188 7.70711L170.688 29.7071Z" fill="#E56E90" stroke="black" stroke-width="0.5"/>
<path d="M99.1875 31.7073C103.688 37.2073 110.688 33.7073 114.688 32.2073C115.688 16.7072 102.688 24.7072 99.1875 31.7073Z" fill="#E56E90" stroke="black" stroke-width="0.5"/>
<path d="M234.686 9.20703L231.686 12.707C248.686 18.207 259.186 21.207 271.686 27.707H273.186L281.186 26.207C266.186 19.707 258.686 17.207 234.686 9.20703Z" fill="#EFC7D3" stroke="black" stroke-width="0.5"/>
<path d="M271.686 27.707C261.186 22.207 242.186 15.707 231.686 12.707L229.686 15.207L244.686 22.707C243.186 25.207 239.186 27.207 233.186 29.907C245.186 29.207 262.186 28.207 271.686 27.707Z" fill="#EFC7D3" stroke="black" stroke-width="0.5"/>
<path d="M277.188 34.007L283.186 31.707L272.687 27.707L228.687 30.207C221.187 45.207 206.187 75.707 198.187 76.707H212.687C211.187 65.707 220.687 42.207 245.688 51.207C256.188 45.707 266.188 40.207 277.188 34.007Z" fill="#EFC7D3" stroke="black" stroke-width="0.5"/>
<path d="M278.186 33.7071C266.186 40.2071 256.186 45.7071 245.686 51.2071C250.186 54.207 260.686 60.207 259.686 79.207L284.686 78.707V77.207C293.186 76.207 301.686 79.707 300.186 65.707L302.186 55.707C302.186 54.207 299.686 50.207 297.186 49.707C298.686 47.207 295.686 38.207 295.686 38.207V36.707L291.686 33.707L286.686 32.207L283.186 31.707L278.186 33.7071Z" fill="#EFC7D3" stroke="black" stroke-width="0.5"/>
<path d="M281.186 26.207L272.686 27.707L283.186 31.707C292.686 32.707 291.684 34.207 295.68 36.6272L295.186 28.207L281.186 26.207Z" fill="#EFC7D3"/>
<path d="M295.686 36.707L295.68 36.6272M295.68 36.6272L295.186 28.207L281.186 26.207L272.686 27.707L283.186 31.707C292.686 32.707 291.684 34.207 295.68 36.6272Z" stroke="black" stroke-width="0.5"/>
<path d="M294.188 36.2072C293.688 33.7071 282.688 33.507 277.188 34.007" stroke="black" stroke-width="0.5"/>
<path d="M300.188 66.207L260.688 68.207C260.188 63.207 258.021 59.0404 256.188 57.207L302.188 54.707M300.688 52.207C289.688 50.707 278.688 45.907 266.688 39.907M228.688 30.207L272.688 27.707L281.188 26.207" stroke="black" stroke-width="0.5"/>
<path d="M290.688 40.207C290.688 38.207 289.688 34.207 286.188 32.207C288.408 32.207 291.785 33.2474 294.296 35.617C294.76 37.147 293.688 40.707 290.646 42.207C290.632 41.6167 290.688 40.9313 290.688 40.207Z" fill="#EFC7D3"/>
<path d="M272.688 42.707C279.683 43.0568 285.7 43.1619 291.081 43.707M297.688 44.707C295.585 44.2564 293.391 43.9411 291.081 43.707M295.688 37.207C295.27 36.6219 294.8 36.0927 294.296 35.617M291.081 43.707C290.754 43.3623 290.66 42.8392 290.646 42.207M290.646 42.207C290.632 41.6168 290.688 40.9313 290.688 40.207C290.688 38.207 289.688 34.207 286.188 32.207C288.408 32.207 291.785 33.2474 294.296 35.617M290.646 42.207C293.688 40.707 294.76 37.147 294.296 35.617" stroke="black" stroke-width="0.5"/>
<path d="M290.688 40.207C286.188 40.207 284.188 36.207 283.188 33.707" stroke="black" stroke-width="0.5"/>
<path d="M132.686 12.307C119.186 16.307 107.186 22.207 93.186 35.207C100.186 23.207 115.686 13.707 131.186 8.70703L132.686 12.307Z" stroke="black" stroke-width="0.5"/>
<path d="M131.186 8.70703C111.186 14.3811 93.186 31.707 85.186 29.707C98.186 20.207 114.186 11.707 130.686 7.20703L131.186 8.70703Z" stroke="black" stroke-width="0.5"/>
<path d="M10.1867 47.7069H4.1867C1.68604 51.7069 1.68604 61.7069 2.1867 65.2069C0.686035 66.2069 0.686633 70.7069 1.6867 72.2069L5.6867 72.7069V74.2069L1.6867 76.2069V78.2069C5.6867 79.2069 14.1867 81.2069 22.1867 80.7069V79.2069H39.6867C39.02 70.7069 40.6867 60.2069 49.6867 53.2069C47.1867 49.2069 40.1867 44.7069 37.1867 44.2069C27.1867 43.2069 12.1867 45.7069 10.1867 47.7069Z" stroke="black" stroke-width="0.5"/>
<path d="M93.1875 35.207C75.3542 36.0404 43.6875 40.907 33.1875 43.907L37.1875 44.207C42.1875 45.707 47.6875 50.0404 49.6875 53.207C62.6865 43.707 88.1865 50.707 86.6865 78.207H96.6865C89.6865 67.207 90.6865 45.207 93.1875 35.207Z" stroke="black" stroke-width="0.5"/>
<path d="M10.1855 47.7071H4.18555C36.6857 28.207 58.6858 34.207 84.6855 29.707L93.6858 35.207C76.6858 36.207 47.6855 39.707 33.6855 43.907C25.6855 43.707 11.6855 45.707 10.1855 47.7071Z" stroke="black" stroke-width="0.5"/>
<path d="M37.1875 44.2071C29.6875 43.207 12.6875 45.207 10.1875 47.7071C9.38749 50.107 12.5208 53.0404 14.1875 54.207C23.6875 55.707 37.1875 49.707 37.1875 44.2071Z" stroke="black" stroke-width="0.5"/>
<path d="M4.18673 47.707C11.1867 48.707 5.18673 59.207 2.18673 64.207C1.68666 57.207 2.18652 51.707 4.18673 47.707Z" stroke="black" stroke-width="0.5"/>
<path d="M22.186 83.707V79.207H39.686L40.186 83.707H22.186Z" stroke="black" stroke-width="0.5"/>
<path d="M2.6875 65.207C4.1875 67.707 6.1875 70.8737 5.6875 72.707M22.1875 79.207C11.6875 79.707 7.1875 75.707 8.1875 72.207C8.6875 71.707 10.1875 70.207 11.1875 70.207" stroke="black" stroke-width="0.5"/>
<path d="M6.1875 65.2072C8.43744 64.7072 11.3124 64.0822 14.0623 63.7072M14.0623 63.7072C16.8124 63.3322 19.4375 63.2072 21.1875 63.7072C24.1875 65.2072 29.6875 70.2072 32.1875 74.2072C27.1875 75.2072 20.1875 74.7072 15.6875 74.7072C12.9949 74.7072 11.6875 72.3738 11.6875 71.2072C11.1875 68.2072 12.4374 65.0405 14.0623 63.7072Z" stroke="black" stroke-width="0.5"/>
<path d="M11.6875 70.7072C19.6875 69.2073 23.1875 71.8358 26.1875 73.3358M13.1875 73.7073L30.6875 73.2073" stroke="black" stroke-width="0.5"/>
<path d="M22.1855 82.207H31.6855C33.6855 82.207 35.1855 80.207 34.6855 79.207M38.1855 79.207V83.707" stroke="black" stroke-width="0.5"/>
<path d="M22.1874 80.7073C17.6874 80.7073 13.1874 81.2073 1.68745 78.2073V76.2073L5.68745 74.2073V72.7073L1.68745 72.2073C1.18652 70.707 0.186719 67.707 2.18671 65.207C1.68696 57.207 2.18696 50.707 4.18745 47.7068C36.6874 28.2072 58.6874 34.2072 84.6874 29.7072C162.687 -25.2929 244.687 11.707 281.687 26.2072L295.187 28.207L295.687 35.207V38.207C297.186 43.207 298.521 47.707 297.187 49.707C299.687 50.707 302.187 53.8737 302.187 55.707L300.187 65.707C300.639 76.5549 298.231 76.7792 288.9 77.0917C287.909 77.1249 285.84 77.159 284.687 77.207V78.707L259.687 79.1381M22.1874 80.7073V83.7073H40.1858L39.6875 79.2073M22.1874 80.7073V79.2073H39.6875M39.6875 79.2073C36.6875 37.7073 90.1874 40.7073 86.6874 79.7073V82.207H213.187C207.187 38.707 261.687 38.707 259.687 79.1381M259.186 79.1381H259.687" stroke="black"/>
</svg>
