<svg width="303" height="96" viewBox="0 0 303 96" fill="none" xmlns="http://www.w3.org/2000/svg">
<circle cx="62.2915" cy="74.5227" r="20.5" fill="#E56E90" stroke="black"/>
<circle cx="235.292" cy="74.5227" r="20.5" fill="#E56E90" stroke="black"/>
<path d="M132.29 13.0226L130.79 9.52256C170.79 1.52267 192.29 2.02271 231.29 13.5227L227.79 18.0226C207.79 10.0226 189.79 9.02261 173.79 8.52268C171.29 8.02268 167.29 8.02264 164.79 8.52256C154.79 8.52268 142.79 10.0227 132.29 13.0226Z" fill="#EFC7D3" stroke="black" stroke-width="0.5"/>
<path d="M130.79 9.52275L130.29 8.02275C166.29 -2.97729 198.79 1.02258 234.29 10.0228L231.29 13.5228C191.29 1.02271 165.29 2.52271 130.79 9.52275Z" fill="#EFC7D3" stroke="black" stroke-width="0.5"/>
<path d="M130.79 9.52269C182.29 -1.97733 210.79 8.02271 231.29 13.5227" stroke="black" stroke-width="0.5"/>
<path d="M170.292 30.5227L173.792 8.52271C207.292 9.52271 218.792 15.0227 223.292 16.5227L225.774 28.5227C198.784 28.5233 181.289 30.0228 170.292 30.5227Z" fill="#EFC7D3"/>
<path d="M226.292 31.0227L223.292 16.5227C218.792 15.0227 207.292 9.52271 173.792 8.52271L170.292 30.5227C181.292 30.0227 198.792 28.5227 225.792 28.5227" stroke="black" stroke-width="0.5"/>
<path d="M164.792 8.52271C131.792 9.52271 111.792 18.5227 92.7915 36.0227L95.2915 34.0227L159.292 31.0227L164.792 8.52271Z" fill="#EFC7D3" stroke="black" stroke-width="0.5"/>
<path d="M239.29 23.0227C235.623 20.356 229.79 18.0227 223.29 16.5227L225.79 28.5227H232.29C235.29 27.0227 238.29 24.7914 239.29 23.0227Z" fill="#EFC7D3" stroke="black" stroke-width="0.5"/>
<path d="M96.2915 79.0227H163.292L197.792 77.5227H212.292L212.792 83.0227H198.792H97.7915H86.2915V79.0227H96.2915Z" fill="#EFC7D3"/>
<path d="M96.2915 79.0227H163.292L197.792 77.5227M96.2915 79.0227C96.2915 80.5227 96.7915 81.5227 97.7915 83.0227M96.2915 79.0227H86.2915V83.0227H97.7915M197.792 77.5227L198.792 83.0227M197.792 77.5227H212.292L212.792 83.0227H198.792M198.792 83.0227H97.7915" stroke="black" stroke-width="0.5"/>
<path d="M96.2906 79.0227C91.7915 74.5227 88.7915 52.5227 92.7906 36.0227L164.792 32.0227C160.792 37.0227 159.792 71.0227 163.291 79.0227H96.2906Z" fill="#EFC7D3" stroke="black" stroke-width="0.5"/>
<path d="M228.291 31.0227L164.791 32.0227C160.791 37.0227 159.791 71.0227 163.291 79.0227L197.791 77.5227C202.291 76.0227 208.791 70.5227 228.291 31.0227Z" fill="#EFC7D3" stroke="black" stroke-width="0.5"/>
<path d="M170.292 30.5228C165.792 31.0228 162.292 31.0228 159.292 31.0228L164.792 8.52278C167.792 8.02271 170.792 8.02271 173.792 8.52278L170.292 30.5228Z" fill="#EFC7D3" stroke="black" stroke-width="0.5"/>
<path d="M98.7915 32.5228C103.292 38.0228 110.292 34.5228 114.292 33.0228C115.292 17.5227 102.292 25.5227 98.7915 32.5228Z" fill="#EFC7D3" stroke="black" stroke-width="0.5"/>
<path d="M234.29 10.0227L231.29 13.5227C248.29 19.0227 258.79 22.0227 271.29 28.5227H272.79L280.79 27.0227C265.79 20.5227 258.29 18.0227 234.29 10.0227Z" stroke="black" stroke-width="0.5"/>
<path d="M271.29 28.5227C260.79 23.0227 241.79 16.5227 231.29 13.5227L229.29 16.0227L244.29 23.5227C242.79 26.0227 238.79 28.0227 232.79 30.7227C244.79 30.0227 261.79 29.0227 271.29 28.5227Z" stroke="black" stroke-width="0.5"/>
<path d="M276.792 34.8227L282.79 32.5227L272.291 28.5227L228.291 31.0227C220.791 46.0227 205.791 76.5227 197.791 77.5227H212.291C210.791 66.5227 220.291 43.0227 245.292 52.0227C255.792 46.5227 265.792 41.0227 276.792 34.8227Z" stroke="black" stroke-width="0.5"/>
<path d="M277.79 34.5227C265.79 41.0227 255.79 46.5227 245.29 52.0227C249.79 55.0227 260.29 61.0227 259.29 80.0227L284.29 79.5227V78.0227C292.79 77.0227 301.29 80.5227 299.79 66.5227L301.79 56.5227C301.79 55.0227 299.29 51.0227 296.79 50.5227C298.29 48.0227 295.29 39.0227 295.29 39.0227V37.5227L291.29 34.5227L286.29 33.0227L282.79 32.5227L277.79 34.5227Z" stroke="black" stroke-width="0.5"/>
<path d="M295.29 37.5227L295.284 37.4429M295.284 37.4429L294.79 29.0227L280.79 27.0227L272.29 28.5227L282.79 32.5227C292.29 33.5227 291.289 35.0227 295.284 37.4429Z" stroke="black" stroke-width="0.5"/>
<path d="M293.792 37.0229C293.292 34.5228 282.292 34.3227 276.792 34.8227" stroke="black" stroke-width="0.5"/>
<path d="M299.792 67.0227L260.292 69.0227C259.792 64.0227 257.625 59.856 255.792 58.0227L301.792 55.5227M300.292 53.0227C289.292 51.5227 278.292 46.7227 266.292 40.7227M228.292 31.0227L272.292 28.5227L280.792 27.0227" stroke="black" stroke-width="0.5"/>
<path d="M272.292 43.5227C279.287 43.8725 285.304 43.9776 290.685 44.5227M297.292 45.5227C295.189 45.0721 292.995 44.7568 290.685 44.5227M295.292 38.0227C294.874 37.4376 294.404 36.9084 293.9 36.4327M290.685 44.5227C290.358 44.1779 290.264 43.6549 290.25 43.0227M290.25 43.0227C290.236 42.4324 290.292 41.747 290.292 41.0227C290.292 39.0227 289.292 35.0227 285.792 33.0227C288.012 33.0227 291.389 34.0631 293.9 36.4327M290.25 43.0227C293.292 41.5227 294.364 37.9627 293.9 36.4327" stroke="black" stroke-width="0.5"/>
<path d="M290.292 41.0227C285.792 41.0227 283.792 37.0227 282.792 34.5227" stroke="black" stroke-width="0.5"/>
<path d="M132.29 13.1227C118.79 17.1227 106.79 23.0227 92.79 36.0227C99.79 24.0227 115.29 14.5227 130.79 9.52271L132.29 13.1227Z" fill="#E56E90" stroke="black" stroke-width="0.5"/>
<path d="M130.79 9.52271C110.79 15.1967 92.79 32.5227 84.79 30.5227C97.79 21.0227 113.79 12.5227 130.29 8.02271L130.79 9.52271Z" fill="#E56E90" stroke="black" stroke-width="0.5"/>
<path d="M9.79071 48.5227H3.79071C1.29004 52.5227 1.29004 62.5227 1.79071 66.0227C0.290039 67.0227 0.290637 71.5227 1.29071 73.0227L5.29071 73.5227V75.0227L1.29071 77.0227V79.0227C5.29071 80.0227 13.7907 82.0227 21.7907 81.5227V80.0227H39.2907C38.624 71.5227 40.2907 61.0227 49.2907 54.0227C46.7907 50.0227 39.7907 45.5227 36.7907 45.0227C26.7907 44.0227 11.7907 46.5227 9.79071 48.5227Z" fill="#E56E90" stroke="black" stroke-width="0.5"/>
<path d="M92.7915 36.0227C74.9582 36.856 43.2915 41.7227 32.7915 44.7227L36.7915 45.0227C41.7915 46.5227 47.2915 50.856 49.2915 54.0227C62.2905 44.5227 87.7905 51.5227 86.2905 79.0227H96.2905C89.2905 68.0227 90.2905 46.0227 92.7915 36.0227Z" fill="#E56E90" stroke="black" stroke-width="0.5"/>
<path d="M9.79004 48.5228H3.79004C36.2902 29.0227 58.2903 35.0227 84.29 30.5227L93.2903 36.0227C76.2903 37.0227 47.29 40.5227 33.29 44.7227C25.29 44.5227 11.29 46.5227 9.79004 48.5228Z" fill="#E56E90" stroke="black" stroke-width="0.5"/>
<path d="M36.7915 45.0228C29.2915 44.0227 12.2915 46.0227 9.79149 48.5228C8.99149 50.9227 12.1248 53.856 13.7915 55.0227C23.2915 56.5227 36.7915 50.5227 36.7915 45.0228Z" fill="#E56E90" stroke="black" stroke-width="0.5"/>
<path d="M3.79073 48.5227C10.7907 49.5227 4.79073 60.0227 1.79073 65.0227C1.29066 58.0227 1.79053 52.5227 3.79073 48.5227Z" fill="#E56E90" stroke="black" stroke-width="0.5"/>
<path d="M21.79 84.5227V80.0227H39.29L39.79 84.5227H21.79Z" fill="#E56E90" stroke="black" stroke-width="0.5"/>
<path d="M2.29199 66.0225C3.79199 68.5225 5.79199 71.6891 5.29199 73.5225M21.792 80.0225C11.292 80.5225 6.79199 76.5225 7.79199 73.0225C8.29199 72.5225 9.79199 71.0225 10.792 71.0225" stroke="black" stroke-width="0.5"/>
<path d="M31.792 75.0226C29.292 71.0226 23.792 66.0227 20.792 64.5227C19.0419 64.0227 16.4169 64.1477 13.6668 64.5227C12.0419 65.856 10.792 69.0226 11.292 72.0226C11.292 73.1892 12.5994 75.5226 15.292 75.5226C19.792 75.5226 26.792 76.0226 31.792 75.0226Z" fill="#E56E90"/>
<path d="M5.79199 66.0227C8.04193 65.5226 10.9168 64.8977 13.6668 64.5227M13.6668 64.5227C16.4169 64.1477 19.0419 64.0227 20.792 64.5227C23.792 66.0227 29.292 71.0226 31.792 75.0226C26.792 76.0226 19.792 75.5226 15.292 75.5226C12.5994 75.5226 11.292 73.1892 11.292 72.0226C10.792 69.0226 12.0418 65.856 13.6668 64.5227Z" stroke="black" stroke-width="0.5"/>
<path d="M11.292 71.5227C19.292 70.0227 22.792 72.6512 25.792 74.1512M12.792 74.5227L30.292 74.0227" stroke="black" stroke-width="0.5"/>
<path d="M21.79 83.0225H31.29C33.29 83.0225 34.79 81.0225 34.29 80.0225M37.79 80.0225V84.5225" stroke="black" stroke-width="0.5"/>
<path d="M21.7915 81.5229C17.2915 81.5229 12.7915 82.0229 1.29145 79.0229V77.0229L5.29145 75.0229V73.5229L1.29145 73.023C0.790527 71.5227 -0.209277 68.5227 1.79072 66.0227C1.29096 58.0227 1.79096 51.5227 3.79145 48.5224C36.2915 29.0228 58.2914 35.0229 84.2914 30.5229C162.291 -24.4772 244.291 12.5227 281.291 27.0229L294.791 29.0227L295.291 36.0227V39.0227C296.79 44.0227 298.125 48.5227 296.791 50.5227C299.291 51.5227 301.791 54.6894 301.791 56.5227L299.791 66.5227C300.243 77.3706 297.835 77.5949 288.504 77.9073C287.513 77.9405 285.444 77.9747 284.291 78.0227V79.5227L259.291 79.9537M21.7915 81.5229V84.5229H39.7898L39.2915 80.0229M21.7915 81.5229V80.0229H39.2915M39.2915 80.0229C36.2915 38.5229 89.7914 41.5229 86.2914 80.5229V83.0227H212.791C206.791 39.5227 261.291 39.5227 259.291 79.9537M258.79 79.9537H259.291" stroke="black"/>
</svg>
