<svg width="303" height="96" viewBox="0 0 303 96" fill="none" xmlns="http://www.w3.org/2000/svg">
<circle cx="62.4897" cy="74.3384" r="20.5" fill="#E0426F" stroke="black"/>
<circle cx="235.49" cy="74.3384" r="20.5" fill="#E0426F" stroke="black"/>
<path d="M132.488 12.8382L130.988 9.33823C170.988 1.33835 192.488 1.83838 231.488 13.3383L227.988 17.8383C207.988 9.83829 189.988 8.83829 173.988 8.33836C171.488 7.83836 167.488 7.83832 164.988 8.33823C154.988 8.33836 142.988 9.83836 132.488 12.8382Z" stroke="black" stroke-width="0.5"/>
<path d="M130.988 9.33842L130.488 7.83842C166.488 -3.16162 198.988 0.838253 234.488 9.83842L231.488 13.3384C191.488 0.838379 165.488 2.33838 130.988 9.33842Z" stroke="black" stroke-width="0.5"/>
<path d="M130.988 9.33837C182.488 -2.16166 210.988 7.83838 231.488 13.3384" stroke="black" stroke-width="0.5"/>
<path d="M226.49 30.8384L223.49 16.3384C218.99 14.8384 207.49 9.33838 173.99 8.33838L170.49 30.3384C181.49 29.8384 198.99 28.3384 225.99 28.3384" stroke="black" stroke-width="0.5"/>
<path d="M164.99 8.33838C131.99 9.33838 111.99 18.3384 92.9897 35.8384L95.4897 33.8384L159.49 30.8384L164.99 8.33838Z" stroke="black" stroke-width="0.5"/>
<path d="M239.488 22.8384C235.822 20.1717 229.988 17.8384 223.488 16.3384L225.988 28.3384H232.488C235.488 26.8384 238.488 24.6071 239.488 22.8384Z" stroke="black" stroke-width="0.5"/>
<path d="M96.4897 78.8384H163.49L197.99 77.3384M96.4897 78.8384C96.4897 80.3384 96.9897 81.3384 97.9897 82.8384M96.4897 78.8384H86.4897V82.8384H97.9897M197.99 77.3384L198.99 82.8384M197.99 77.3384H212.49L212.99 82.8384H198.99M198.99 82.8384H97.9897" stroke="black" stroke-width="0.5"/>
<path d="M96.4889 78.8384C91.9897 74.3384 88.9898 52.3384 92.9889 35.8384L164.99 31.8384C160.99 36.8384 159.99 70.8384 163.49 78.8384H96.4889Z" stroke="black" stroke-width="0.5"/>
<path d="M228.489 30.8384L164.989 31.8384C160.989 36.8384 159.99 70.8384 163.489 78.8384L197.989 77.3384C202.489 75.8384 208.989 70.3384 228.489 30.8384Z" stroke="black" stroke-width="0.5"/>
<path d="M170.49 30.3385C165.99 30.8385 162.49 30.8385 159.49 30.8385L164.99 8.33845C167.99 7.83838 170.99 7.83838 173.99 8.33845L170.49 30.3385Z" stroke="black" stroke-width="0.5"/>
<path d="M98.9897 32.3385C103.49 37.8385 110.49 34.3385 114.49 32.8385C115.49 17.3384 102.49 25.3384 98.9897 32.3385Z" stroke="black" stroke-width="0.5"/>
<path d="M234.488 9.83838L231.488 13.3384C248.488 18.8384 258.988 21.8384 271.488 28.3384H272.988L280.988 26.8384C265.988 20.3384 258.488 17.8384 234.488 9.83838Z" stroke="black" stroke-width="0.5"/>
<path d="M271.488 28.3384C260.988 22.8384 241.988 16.3384 231.488 13.3384L229.488 15.8384L244.488 23.3384C242.988 25.8384 238.988 27.8384 232.988 30.5384C244.988 29.8384 261.988 28.8384 271.488 28.3384Z" stroke="black" stroke-width="0.5"/>
<path d="M276.99 34.6384L282.988 32.3384L272.489 28.3384L228.489 30.8384C220.989 45.8384 205.989 76.3384 197.989 77.3384H212.489C210.989 66.3384 220.489 42.8384 245.49 51.8384C255.99 46.3384 265.99 40.8384 276.99 34.6384Z" stroke="black" stroke-width="0.5"/>
<path d="M277.988 34.3384C265.988 40.8384 255.988 46.3384 245.488 51.8384C249.988 54.8384 260.488 60.8384 259.488 79.8384L284.488 79.3384V77.8384C292.988 76.8384 301.488 80.3384 299.988 66.3384L301.988 56.3384C301.988 54.8384 299.488 50.8384 296.988 50.3384C298.488 47.8384 295.488 38.8384 295.488 38.8384V37.3384L291.488 34.3384L286.488 32.8384L282.988 32.3384L277.988 34.3384Z" stroke="black" stroke-width="0.5"/>
<path d="M295.488 37.3384L295.482 37.2586M295.482 37.2586L294.988 28.8384L280.988 26.8384L272.488 28.3384L282.988 32.3384C292.488 33.3384 291.487 34.8384 295.482 37.2586Z" stroke="black" stroke-width="0.5"/>
<path d="M293.99 36.8386C293.49 34.3385 282.49 34.1384 276.99 34.6384" stroke="black" stroke-width="0.5"/>
<path d="M299.99 66.8384L260.49 68.8384C259.99 63.8384 257.823 59.6717 255.99 57.8384L301.99 55.3384M300.49 52.8384C289.49 51.3384 278.49 46.5384 266.49 40.5384M228.49 30.8384L272.49 28.3384L280.99 26.8384" stroke="black" stroke-width="0.5"/>
<path d="M272.49 43.3384C279.485 43.6882 285.502 43.7933 290.883 44.3384M297.49 45.3384C295.387 44.8877 293.194 44.5725 290.883 44.3384M295.49 37.8384C295.072 37.2533 294.603 36.724 294.099 36.2484M290.883 44.3384C290.557 43.9936 290.463 43.4706 290.448 42.8384M290.448 42.8384C290.434 42.2481 290.49 41.5627 290.49 40.8384C290.49 38.8384 289.49 34.8384 285.99 32.8384C288.211 32.8384 291.587 33.8788 294.099 36.2484M290.448 42.8384C293.49 41.3384 294.562 37.7784 294.099 36.2484" stroke="black" stroke-width="0.5"/>
<path d="M290.49 40.8384C285.99 40.8384 283.99 36.8384 282.99 34.3384" stroke="black" stroke-width="0.5"/>
<path d="M132.488 12.9384C118.988 16.9384 106.988 22.8384 92.9883 35.8384C99.9883 23.8384 115.488 14.3384 130.988 9.33838L132.488 12.9384Z" fill="#EFC7D3" stroke="black" stroke-width="0.5"/>
<path d="M130.988 9.33838C110.988 15.0124 92.9883 32.3384 84.9883 30.3384C97.9883 20.8384 113.988 12.3384 130.488 7.83838L130.988 9.33838Z" fill="#EFC7D3" stroke="black" stroke-width="0.5"/>
<path d="M9.98895 48.3384H3.98895C1.48828 52.3384 1.48828 62.3384 1.98895 65.8384C0.488281 66.8384 0.488879 71.3384 1.48895 72.8384L5.48895 73.3384V74.8384L1.48895 76.8384V78.8384C5.48895 79.8384 13.9889 81.8384 21.9889 81.3384V79.8384H39.4889C38.8223 71.3384 40.4889 60.8384 49.4889 53.8384C46.9889 49.8384 39.9889 45.3384 36.9889 44.8384C26.9889 43.8384 11.9889 46.3384 9.98895 48.3384Z" fill="#EFC7D3" stroke="black" stroke-width="0.5"/>
<path d="M92.9897 35.8384C75.1564 36.6717 43.4897 41.5384 32.9897 44.5384L36.9897 44.8384C41.9897 46.3384 47.4897 50.6717 49.4897 53.8384C62.4888 44.3384 87.9888 51.3384 86.4888 78.8384H96.4888C89.4888 67.8384 90.4888 45.8384 92.9897 35.8384Z" fill="#EFC7D3" stroke="black" stroke-width="0.5"/>
<path d="M9.98828 48.3384H3.98828C36.4885 28.8383 58.4885 34.8384 84.4883 30.3384L93.4885 35.8384C76.4885 36.8384 47.4883 40.3384 33.4883 44.5384C25.4883 44.3384 11.4883 46.3384 9.98828 48.3384Z" fill="#EFC7D3" stroke="black" stroke-width="0.5"/>
<path d="M36.9897 44.8385C29.4897 43.8384 12.4897 45.8384 9.98974 48.3385C9.18974 50.7384 12.3231 53.6717 13.9897 54.8384C23.4897 56.3384 36.9897 50.3384 36.9897 44.8385Z" fill="#EFC7D3" stroke="black" stroke-width="0.5"/>
<path d="M3.98898 48.3384C10.989 49.3384 4.98898 59.8384 1.98898 64.8384C1.48891 57.8384 1.98877 52.3384 3.98898 48.3384Z" fill="#EFC7D3" stroke="black" stroke-width="0.5"/>
<path d="M21.9883 84.3384V79.8384H39.4883L39.9883 84.3384H21.9883Z" fill="#EFC7D3" stroke="black" stroke-width="0.5"/>
<path d="M2.49023 65.8384C3.99023 68.3384 5.99023 71.505 5.49023 73.3384M21.9902 79.8384C11.4902 80.3384 6.99023 76.3384 7.99023 72.8384C8.49023 72.3384 9.99023 70.8384 10.9902 70.8384" stroke="black" stroke-width="0.5"/>
<path d="M31.9902 74.8384C29.4902 70.8384 23.9902 65.8385 20.9902 64.3385C19.2402 63.8384 16.6151 63.9634 13.865 64.3385C12.2401 65.6718 10.9902 68.8384 11.4902 71.8384C11.4902 73.005 12.7977 75.3384 15.4902 75.3384C19.9902 75.3384 26.9902 75.8384 31.9902 74.8384Z" fill="#EFC7D3"/>
<path d="M5.99023 65.8385C8.24018 65.3384 11.1151 64.7135 13.865 64.3385M13.865 64.3385C16.6151 63.9634 19.2402 63.8384 20.9902 64.3385C23.9902 65.8385 29.4902 70.8384 31.9902 74.8384C26.9902 75.8384 19.9902 75.3384 15.4902 75.3384C12.7977 75.3384 11.4902 73.005 11.4902 71.8384C10.9902 68.8384 12.2401 65.6718 13.865 64.3385Z" stroke="black" stroke-width="0.5"/>
<path d="M11.4902 71.3385C19.4902 69.8385 22.9902 72.467 25.9902 73.967M12.9902 74.3385L30.4902 73.8385" stroke="black" stroke-width="0.5"/>
<path d="M21.9883 82.8384H31.4883C33.4883 82.8384 34.9883 80.8384 34.4883 79.8384M37.9883 79.8384V84.3384" stroke="black" stroke-width="0.5"/>
<path d="M21.9897 81.3386C17.4897 81.3386 12.9897 81.8386 1.48969 78.8386V76.8386L5.48969 74.8386V73.3386L1.48969 72.8386C0.98877 71.3384 -0.0110346 68.3384 1.98896 65.8384C1.4892 57.8384 1.9892 51.3384 3.98969 48.3381C36.4897 28.8385 58.4897 34.8386 84.4897 30.3386C162.49 -24.6615 244.49 12.3384 281.49 26.8386L294.99 28.8384L295.49 35.8384V38.8384C296.988 43.8384 298.323 48.3384 296.99 50.3384C299.49 51.3384 301.99 54.505 301.99 56.3384L299.99 66.3384C300.442 77.1863 298.034 77.4106 288.702 77.723C287.711 77.7562 285.642 77.7904 284.49 77.8384V79.3384L259.49 79.7694M21.9897 81.3386V84.3386H39.988L39.4897 79.8386M21.9897 81.3386V79.8386H39.4897M39.4897 79.8386C36.4897 38.3386 89.9897 41.3386 86.4897 80.3386V82.8384H212.99C206.99 39.3384 261.49 39.3384 259.49 79.7694M258.988 79.7694H259.49" stroke="black"/>
</svg>
