<svg width="304" height="96" viewBox="0 0 304 96" fill="none" xmlns="http://www.w3.org/2000/svg">
<circle cx="63.0938" cy="74.0151" r="20.5" fill="#EDADBF" stroke="black"/>
<circle cx="236.094" cy="74.0151" r="20.5" fill="#EDADBF" stroke="black"/>
<path d="M133.092 12.515L131.592 9.01499C171.592 1.0151 193.092 1.51514 232.092 13.0151L228.592 17.5151C208.592 9.51505 190.592 8.51505 174.592 8.01511C172.092 7.51511 168.092 7.51508 165.592 8.01499C155.592 8.01511 143.592 9.51511 133.092 12.515Z" fill="#EFC7D3" stroke="black" stroke-width="0.5"/>
<path d="M131.592 9.01518L131.092 7.51518C167.092 -3.48486 199.592 0.515011 235.092 9.51518L232.092 13.0152C192.092 0.515137 166.092 2.01514 131.592 9.01518Z" fill="#EFC7D3" stroke="black" stroke-width="0.5"/>
<path d="M131.592 9.01512C183.092 -2.4849 211.592 7.51514 232.092 13.0151" stroke="black" stroke-width="0.5"/>
<path d="M171.094 30.0151L174.594 8.01514C208.094 9.01514 219.594 14.5151 224.094 16.0151L226.577 28.0151C199.586 28.0158 182.091 29.5152 171.094 30.0151Z" fill="#EFC7D3"/>
<path d="M227.094 30.5151L224.094 16.0151C219.594 14.5151 208.094 9.01514 174.594 8.01514L171.094 30.0151C182.094 29.5151 199.594 28.0151 226.594 28.0151" stroke="black" stroke-width="0.5"/>
<path d="M165.594 8.01514C132.594 9.01514 112.594 18.0151 93.5938 35.5151L96.0938 33.5151L160.094 30.5151L165.594 8.01514Z" fill="#EFC7D3" stroke="black" stroke-width="0.5"/>
<path d="M240.092 22.5151C236.425 19.8485 230.592 17.5151 224.092 16.0151L226.592 28.0151H233.092C236.092 26.5151 239.092 24.2839 240.092 22.5151Z" fill="#EFC7D3" stroke="black" stroke-width="0.5"/>
<path d="M97.0938 78.5151H164.094L198.594 77.0151H213.094L213.594 82.5151H199.594H98.5938H87.0938V78.5151H97.0938Z" fill="#EFC7D3"/>
<path d="M97.0938 78.5151H164.094L198.594 77.0151M97.0938 78.5151C97.0938 80.0151 97.5938 81.0151 98.5938 82.5151M97.0938 78.5151H87.0938V82.5151H98.5938M198.594 77.0151L199.594 82.5151M198.594 77.0151H213.094L213.594 82.5151H199.594M199.594 82.5151H98.5938" stroke="black" stroke-width="0.5"/>
<path d="M97.0929 78.5151C92.5937 74.0151 89.5938 52.0151 93.5929 35.5151L165.594 31.5151C161.594 36.5151 160.594 70.5151 164.094 78.5151H97.0929Z" fill="#EFC7D3" stroke="black" stroke-width="0.5"/>
<path d="M229.094 30.5151L165.594 31.5151C161.594 36.5151 160.594 70.5151 164.094 78.5151L198.594 77.0151C203.094 75.5151 209.594 70.0151 229.094 30.5151Z" fill="#EFC7D3" stroke="black" stroke-width="0.5"/>
<path d="M171.094 30.0152C166.594 30.5152 163.094 30.5152 160.094 30.5152L165.594 8.01521C168.594 7.51514 171.594 7.51514 174.594 8.01521L171.094 30.0152Z" fill="#EFC7D3" stroke="black" stroke-width="0.5"/>
<path d="M99.5938 32.0153C104.094 37.5153 111.094 34.0153 115.094 32.5153C116.094 17.0152 103.094 25.0151 99.5938 32.0153Z" fill="#EFC7D3" stroke="black" stroke-width="0.5"/>
<path d="M235.092 9.51514L232.092 13.0151C249.092 18.5151 259.592 21.5151 272.092 28.0151H273.592L281.592 26.5151C266.592 20.0151 259.092 17.5151 235.092 9.51514Z" stroke="black" stroke-width="0.5"/>
<path d="M272.092 28.0151C261.592 22.5151 242.592 16.0151 232.092 13.0151L230.092 15.5151L245.092 23.0151C243.592 25.5151 239.592 27.5151 233.592 30.2151C245.592 29.5151 262.592 28.5151 272.092 28.0151Z" stroke="black" stroke-width="0.5"/>
<path d="M277.594 34.3151L283.592 32.0151L273.093 28.0151L229.093 30.5151C221.593 45.5151 206.593 76.0151 198.593 77.0151H213.093C211.593 66.0151 221.093 42.5151 246.094 51.5151C256.594 46.0151 266.594 40.5151 277.594 34.3151Z" stroke="black" stroke-width="0.5"/>
<path d="M278.592 34.0152C266.592 40.5152 256.592 46.0152 246.092 51.5152C250.592 54.5151 261.092 60.5151 260.092 79.5151L285.092 79.0151V77.5151C293.592 76.5151 302.092 80.0151 300.592 66.0151L302.592 56.0151C302.592 54.5151 300.092 50.5151 297.592 50.0151C299.092 47.5151 296.092 38.5151 296.092 38.5151V37.0151L292.092 34.0151L287.092 32.5151L283.592 32.0151L278.592 34.0152Z" stroke="black" stroke-width="0.5"/>
<path d="M296.092 37.0151L296.086 36.9353M296.086 36.9353L295.592 28.5151L281.592 26.5151L273.092 28.0151L283.592 32.0151C293.092 33.0151 292.091 34.5151 296.086 36.9353Z" stroke="black" stroke-width="0.5"/>
<path d="M294.594 36.5153C294.094 34.0152 283.094 33.8151 277.594 34.3151" stroke="black" stroke-width="0.5"/>
<path d="M300.594 66.5151L261.094 68.5151C260.594 63.5151 258.427 59.3485 256.594 57.5151L302.594 55.0151M301.094 52.5151C290.094 51.0151 279.094 46.2151 267.094 40.2151M229.094 30.5151L273.094 28.0151L281.594 26.5151" stroke="black" stroke-width="0.5"/>
<path d="M273.094 43.0151C280.089 43.3649 286.106 43.47 291.487 44.0151M298.094 45.0151C295.991 44.5645 293.798 44.2492 291.487 44.0151M296.094 37.5151C295.676 36.93 295.207 36.4008 294.703 35.9251M291.487 44.0151C291.161 43.6704 291.067 43.1473 291.052 42.5151M291.052 42.5151C291.038 41.9249 291.094 41.2394 291.094 40.5151C291.094 38.5151 290.094 34.5151 286.594 32.5151C288.815 32.5151 292.191 33.5555 294.703 35.9251M291.052 42.5151C294.094 41.0151 295.166 37.4551 294.703 35.9251" stroke="black" stroke-width="0.5"/>
<path d="M291.094 40.5151C286.594 40.5151 284.594 36.5151 283.594 34.0151" stroke="black" stroke-width="0.5"/>
<path d="M133.092 12.6151C119.592 16.6151 107.592 22.5151 93.5923 35.5151C100.592 23.5151 116.092 14.0151 131.592 9.01514L133.092 12.6151Z" stroke="black" stroke-width="0.5"/>
<path d="M131.592 9.01514C111.592 14.6892 93.5923 32.0151 85.5923 30.0151C98.5923 20.5151 114.592 12.0151 131.092 7.51514L131.592 9.01514Z" stroke="black" stroke-width="0.5"/>
<path d="M10.593 48.0151H4.59295C2.09229 52.0151 2.09229 62.0151 2.59295 65.5151C1.09229 66.5151 1.09288 71.0151 2.09295 72.5151L6.09295 73.0151V74.5151L2.09295 76.5151V78.5151C6.09295 79.5151 14.593 81.5151 22.593 81.0151V79.5151H40.0929C39.4263 71.0151 41.0929 60.5151 50.0929 53.5151C47.5929 49.5151 40.5929 45.0151 37.5929 44.5151C27.5929 43.5151 12.593 46.0151 10.593 48.0151Z" stroke="black" stroke-width="0.5"/>
<path d="M93.5938 35.5151C75.7604 36.3485 44.0938 41.2151 33.5938 44.2151L37.5938 44.5151C42.5938 46.0151 48.0938 50.3485 50.0938 53.5151C63.0928 44.0151 88.5928 51.0151 87.0928 78.5151H97.0928C90.0928 67.5151 91.0928 45.5151 93.5938 35.5151Z" stroke="black" stroke-width="0.5"/>
<path d="M10.5918 48.0152H4.5918C37.092 28.5151 59.092 34.5151 85.0918 30.0151L94.092 35.5151C77.092 36.5151 48.0918 40.0151 34.0918 44.2151C26.0918 44.0151 12.0918 46.0151 10.5918 48.0152Z" stroke="black" stroke-width="0.5"/>
<path d="M37.5937 44.5152C30.0937 43.5151 13.0937 45.5151 10.5937 48.0152C9.79374 50.4152 12.9271 53.3485 14.5937 54.5151C24.0938 56.0151 37.5937 50.0151 37.5937 44.5152Z" stroke="black" stroke-width="0.5"/>
<path d="M4.59298 48.0151C11.593 49.0151 5.59298 59.5151 2.59298 64.5151C2.09291 57.5151 2.59277 52.0151 4.59298 48.0151Z" stroke="black" stroke-width="0.5"/>
<path d="M22.5923 84.0151V79.5151H40.0923L40.5923 84.0151H22.5923Z" stroke="black" stroke-width="0.5"/>
<path d="M3.09375 65.5151C4.59375 68.0151 6.59375 71.1818 6.09375 73.0151M22.5938 79.5151C12.0938 80.0151 7.59375 76.0151 8.59375 72.5151C9.09375 72.0151 10.5938 70.5151 11.5938 70.5151" stroke="black" stroke-width="0.5"/>
<path d="M6.59375 65.5152C8.84369 65.0152 11.7186 64.3902 14.4685 64.0152M14.4685 64.0152C17.2186 63.6402 19.8437 63.5152 21.5938 64.0152C24.5938 65.5152 30.0938 70.5151 32.5938 74.5151C27.5938 75.5151 20.5938 75.0151 16.0938 75.0151C13.4012 75.0151 12.0938 72.6818 12.0938 71.5151C11.5938 68.5151 12.8436 65.3485 14.4685 64.0152Z" stroke="black" stroke-width="0.5"/>
<path d="M12.0938 71.0152C20.0938 69.5153 23.5938 72.1437 26.5938 73.6437M13.5938 74.0153L31.0938 73.5153" stroke="black" stroke-width="0.5"/>
<path d="M22.5918 82.5151H32.0918C34.0918 82.5151 35.5918 80.5151 35.0918 79.5151M38.5918 79.5151V84.0151" stroke="black" stroke-width="0.5"/>
<path d="M22.5937 81.0154C18.0937 81.0154 13.5937 81.5154 2.0937 78.5154V76.5154L6.0937 74.5154V73.0154L2.0937 72.5154C1.59277 71.0151 0.592969 68.0151 2.59296 65.5151C2.09321 57.5151 2.59321 51.0151 4.5937 48.0149C37.0937 28.5153 59.0937 34.5153 85.0937 30.0153C163.094 -24.9848 245.094 12.0151 282.094 26.5153L295.594 28.5151L296.094 35.5151V38.5151C297.592 43.5151 298.927 48.0151 297.594 50.0151C300.094 51.0151 302.594 54.1818 302.594 56.0151L300.594 66.0151C301.046 76.863 298.638 77.0873 289.306 77.3998C288.315 77.433 286.246 77.4671 285.094 77.5151V79.0151L260.094 79.4462M22.5937 81.0154V84.0154H40.592L40.0937 79.5154M22.5937 81.0154V79.5154H40.0937M40.0937 79.5154C37.0937 38.0154 90.5937 41.0154 87.0937 80.0154V82.5151H213.594C207.594 39.0151 262.094 39.0151 260.094 79.4462M259.592 79.4462H260.094" stroke="black"/>
</svg>
