<svg width="303" height="96" viewBox="0 0 303 96" fill="none" xmlns="http://www.w3.org/2000/svg">
<circle cx="62.667" cy="74.2297" r="20.5" stroke="black"/>
<circle cx="235.667" cy="74.2297" r="20.5" stroke="black"/>
<path d="M132.665 12.7296L131.165 9.22959C171.165 1.2297 192.665 1.72974 231.665 13.2297L228.165 17.7297C208.165 9.72965 190.165 8.72964 174.165 8.22971C171.665 7.72971 167.665 7.72968 165.165 8.22959C155.165 8.22971 143.165 9.72971 132.665 12.7296Z" fill="#E0426F" stroke="black" stroke-width="0.5"/>
<path d="M131.165 9.22978L130.665 7.72978C166.665 -3.27026 199.165 0.72961 234.665 9.72978L231.665 13.2298C191.665 0.729736 165.665 2.22974 131.165 9.22978Z" fill="#E0426F" stroke="black" stroke-width="0.5"/>
<path d="M131.165 9.2296C182.665 -2.27042 211.165 7.72961 231.665 13.2296" stroke="black" stroke-width="0.5"/>
<path d="M170.667 30.2297L174.167 8.22974C207.667 9.22974 219.167 14.7297 223.667 16.2297L226.15 28.2297C199.16 28.2304 181.665 29.7298 170.667 30.2297Z" fill="#E0426F"/>
<path d="M226.667 30.7297L223.667 16.2297C219.167 14.7297 207.667 9.22974 174.167 8.22974L170.667 30.2297C181.667 29.7297 199.167 28.2297 226.167 28.2297" stroke="black" stroke-width="0.5"/>
<path d="M165.167 8.22974C132.167 9.22974 112.167 18.2297 93.167 35.7297L95.667 33.7297L159.667 30.7297L165.167 8.22974Z" fill="#E0426F" stroke="black" stroke-width="0.5"/>
<path d="M239.665 22.7297C235.998 20.0631 230.165 17.7297 223.665 16.2297L226.165 28.2297H232.665C235.665 26.7297 238.665 24.4985 239.665 22.7297Z" fill="#E0426F" stroke="black" stroke-width="0.5"/>
<path d="M96.667 78.7297H163.667L198.167 77.2297H212.667L213.167 82.7297H199.167H98.167H86.667V78.7297H96.667Z" fill="#E0426F"/>
<path d="M96.667 78.7297H163.667L198.167 77.2297M96.667 78.7297C96.667 80.2297 97.167 81.2297 98.167 82.7297M96.667 78.7297H86.667V82.7297H98.167M198.167 77.2297L199.167 82.7297M198.167 77.2297H212.667L213.167 82.7297H199.167M199.167 82.7297H98.167" stroke="black" stroke-width="0.5"/>
<path d="M96.6661 78.7297C92.167 74.2297 89.167 52.2297 93.1661 35.7297L165.167 31.7297C161.167 36.7297 160.167 70.7297 163.667 78.7297H96.6661Z" fill="#E0426F" stroke="black" stroke-width="0.5"/>
<path d="M228.667 30.7297L165.167 31.7297C161.167 36.7297 160.167 70.7297 163.667 78.7297L198.167 77.2297C202.667 75.7297 209.167 70.2297 228.667 30.7297Z" fill="#E0426F" stroke="black" stroke-width="0.5"/>
<path d="M170.667 30.2298C166.167 30.7298 162.667 30.7298 159.667 30.7298L165.167 8.22981C168.167 7.72974 171.167 7.72974 174.167 8.22981L170.667 30.2298Z" fill="#E0426F" stroke="black" stroke-width="0.5"/>
<path d="M99.167 32.2297C103.667 37.7297 110.667 34.2297 114.667 32.7297C115.667 17.2296 102.667 25.2296 99.167 32.2297Z" fill="#E0426F" stroke="black" stroke-width="0.5"/>
<path d="M234.665 9.72974L231.665 13.2297C248.665 18.7297 259.165 21.7297 271.665 28.2297H273.165L281.165 26.7297C266.165 20.2297 258.665 17.7297 234.665 9.72974Z" fill="#E56E90" stroke="black" stroke-width="0.5"/>
<path d="M271.665 28.2297C261.165 22.7297 242.165 16.2297 231.665 13.2297L229.665 15.7297L244.665 23.2297C243.165 25.7297 239.165 27.7297 233.165 30.4297C245.165 29.7297 262.165 28.7297 271.665 28.2297Z" fill="#E56E90" stroke="black" stroke-width="0.5"/>
<path d="M277.167 34.5297L283.165 32.2297L272.666 28.2297L228.666 30.7297C221.166 45.7297 206.166 76.2297 198.166 77.2297H212.666C211.166 66.2297 220.666 42.7297 245.667 51.7297C256.167 46.2297 266.167 40.7297 277.167 34.5297Z" fill="#E56E90" stroke="black" stroke-width="0.5"/>
<path d="M278.165 34.2298C266.165 40.7298 256.165 46.2298 245.665 51.7298C250.165 54.7297 260.665 60.7297 259.665 79.7297L284.665 79.2297V77.7297C293.165 76.7297 301.665 80.2297 300.165 66.2297L302.165 56.2297C302.165 54.7297 299.665 50.7297 297.165 50.2297C298.665 47.7297 295.665 38.7297 295.665 38.7297V37.2297L291.665 34.2297L286.665 32.7297L283.165 32.2297L278.165 34.2298Z" fill="#E56E90" stroke="black" stroke-width="0.5"/>
<path d="M281.165 26.7297L272.665 28.2297L283.165 32.2297C292.665 33.2297 291.664 34.7297 295.659 37.1499L295.165 28.7297L281.165 26.7297Z" fill="#E56E90"/>
<path d="M295.665 37.2297L295.659 37.1499M295.659 37.1499L295.165 28.7297L281.165 26.7297L272.665 28.2297L283.165 32.2297C292.665 33.2297 291.664 34.7297 295.659 37.1499Z" stroke="black" stroke-width="0.5"/>
<path d="M294.167 36.7299C293.667 34.2298 282.667 34.0297 277.167 34.5297" stroke="black" stroke-width="0.5"/>
<path d="M300.167 66.7297L260.667 68.7297C260.167 63.7297 258 59.5631 256.167 57.7297L302.167 55.2297M300.667 52.7297C289.667 51.2297 278.667 46.4297 266.667 40.4297M228.667 30.7297L272.667 28.2297L281.167 26.7297" stroke="black" stroke-width="0.5"/>
<path d="M290.667 40.7297C290.667 38.7297 289.667 34.7297 286.167 32.7297C288.388 32.7297 291.765 33.7701 294.276 36.1397C294.74 37.6697 293.667 41.2297 290.625 42.7297C290.612 42.1395 290.667 41.454 290.667 40.7297Z" fill="#E56E90"/>
<path d="M272.667 43.2297C279.663 43.5795 285.68 43.6846 291.06 44.2297M297.667 45.2297C295.564 44.7791 293.371 44.4638 291.06 44.2297M295.667 37.7297C295.249 37.1446 294.78 36.6154 294.276 36.1397M291.06 44.2297C290.734 43.885 290.64 43.3619 290.625 42.7297M290.625 42.7297C290.612 42.1395 290.667 41.454 290.667 40.7297C290.667 38.7297 289.667 34.7297 286.167 32.7297C288.388 32.7297 291.765 33.7701 294.276 36.1397M290.625 42.7297C293.667 41.2297 294.74 37.6697 294.276 36.1397" stroke="black" stroke-width="0.5"/>
<path d="M290.667 40.7297C286.167 40.7297 284.167 36.7297 283.167 34.2297" stroke="black" stroke-width="0.5"/>
<path d="M132.665 12.8297C119.165 16.8297 107.165 22.7297 93.165 35.7297C100.165 23.7297 115.665 14.2297 131.165 9.22974L132.665 12.8297Z" fill="#E0426F" stroke="black" stroke-width="0.5"/>
<path d="M131.165 9.22974C111.165 14.9038 93.165 32.2297 85.165 30.2297C98.165 20.7297 114.165 12.2297 130.665 7.72974L131.165 9.22974Z" fill="#E0426F" stroke="black" stroke-width="0.5"/>
<path d="M10.1657 48.2296H4.16571C1.66504 52.2296 1.66504 62.2296 2.16571 65.7296C0.665039 66.7296 0.665637 71.2296 1.66571 72.7296L5.66571 73.2296V74.7296L1.66571 76.7296V78.7296C5.66571 79.7296 14.1657 81.7296 22.1657 81.2296V79.7296H39.6657C38.999 71.2296 40.6657 60.7296 49.6657 53.7296C47.1657 49.7296 40.1657 45.2296 37.1657 44.7296C27.1657 43.7296 12.1657 46.2296 10.1657 48.2296Z" fill="#E0426F" stroke="black" stroke-width="0.5"/>
<path d="M93.167 35.7297C75.3337 36.5631 43.667 41.4297 33.167 44.4297L37.167 44.7297C42.167 46.2297 47.667 50.5631 49.667 53.7297C62.666 44.2297 88.166 51.2297 86.666 78.7297H96.666C89.666 67.7297 90.666 45.7297 93.167 35.7297Z" fill="#E0426F" stroke="black" stroke-width="0.5"/>
<path d="M10.165 48.2298H4.16504C36.6652 28.7297 58.6653 34.7297 84.665 30.2297L93.6653 35.7297C76.6653 36.7297 47.665 40.2297 33.665 44.4297C25.665 44.2297 11.665 46.2297 10.165 48.2298Z" fill="#E0426F" stroke="black" stroke-width="0.5"/>
<path d="M37.1665 44.7298C29.6665 43.7297 12.6665 45.7297 10.1665 48.2298C9.36649 50.6298 12.4998 53.5631 14.1665 54.7297C23.6665 56.2297 37.1665 50.2297 37.1665 44.7298Z" fill="#E0426F" stroke="black" stroke-width="0.5"/>
<path d="M4.16573 48.2297C11.1657 49.2297 5.16573 59.7297 2.16573 64.7297C1.66566 57.7297 2.16553 52.2297 4.16573 48.2297Z" fill="#E0426F" stroke="black" stroke-width="0.5"/>
<path d="M22.165 84.2297V79.7297H39.665L40.165 84.2297H22.165Z" fill="#E0426F" stroke="black" stroke-width="0.5"/>
<path d="M2.66699 65.7295C4.16699 68.2295 6.16699 71.3962 5.66699 73.2295M22.167 79.7295C11.667 80.2295 7.16699 76.2295 8.16699 72.7295C8.66699 72.2295 10.167 70.7295 11.167 70.7295" stroke="black" stroke-width="0.5"/>
<path d="M32.167 74.7296C29.667 70.7296 24.167 65.7297 21.167 64.2297C19.4169 63.7297 16.7919 63.8547 14.0418 64.2297C12.4169 65.563 11.167 68.7296 11.667 71.7296C11.667 72.8963 12.9744 75.2296 15.667 75.2296C20.167 75.2296 27.167 75.7296 32.167 74.7296Z" fill="#E0426F"/>
<path d="M6.16699 65.7297C8.41693 65.2297 11.2918 64.6047 14.0418 64.2297M14.0418 64.2297C16.7919 63.8547 19.4169 63.7297 21.167 64.2297C24.167 65.7297 29.667 70.7296 32.167 74.7296C27.167 75.7296 20.167 75.2296 15.667 75.2296C12.9744 75.2296 11.667 72.8963 11.667 71.7296C11.167 68.7296 12.4168 65.563 14.0418 64.2297Z" stroke="black" stroke-width="0.5"/>
<path d="M11.667 71.2297C19.667 69.7297 23.167 72.3582 26.167 73.8582M13.167 74.2297L30.667 73.7297" stroke="black" stroke-width="0.5"/>
<path d="M22.165 82.7295H31.665C33.665 82.7295 35.165 80.7295 34.665 79.7295M38.165 79.7295V84.2295" stroke="black" stroke-width="0.5"/>
<path d="M22.1669 81.23C17.6669 81.23 13.1669 81.73 1.66694 78.73V76.73L5.66694 74.73V73.23L1.66694 72.73C1.16602 71.2297 0.166211 68.2297 2.16621 65.7297C1.66645 57.7297 2.16645 51.2297 4.16694 48.2295C36.6669 28.7299 58.6669 34.7299 84.6669 30.2299C162.667 -24.7702 244.667 12.2297 281.667 26.7299L295.167 28.7297L295.667 35.7297V38.7297C297.165 43.7297 298.5 48.2297 297.167 50.2297C299.667 51.2297 302.167 54.3964 302.167 56.2297L300.167 66.2297C300.619 77.0776 298.211 77.3019 288.879 77.6144C287.888 77.6476 285.819 77.6817 284.667 77.7297V79.2297L259.667 79.6608M22.1669 81.23V84.23H40.1653L39.6669 79.73M22.1669 81.23V79.73H39.6669M39.6669 79.73C36.6669 38.23 90.1669 41.23 86.6669 80.23V82.7297H213.167C207.167 39.2297 261.667 39.2297 259.667 79.6608M259.165 79.6608H259.667" stroke="black"/>
</svg>
