<svg width="303" height="96" viewBox="0 0 303 96" fill="none" xmlns="http://www.w3.org/2000/svg">
<circle cx="62.8545" cy="74.553" r="20.5" fill="#EFC7D3" stroke="black"/>
<circle cx="235.854" cy="74.553" r="20.5" fill="#EFC7D3" stroke="black"/>
<path d="M132.853 13.0528L131.353 9.55283C171.353 1.55295 192.853 2.05298 231.853 13.5529L228.353 18.0529C208.353 10.0529 190.353 9.05289 174.353 8.55296C171.853 8.05296 167.853 8.05292 165.353 8.55283C155.353 8.55296 143.353 10.053 132.853 13.0528Z" fill="#E0426F" stroke="black" stroke-width="0.5"/>
<path d="M131.353 9.55302L130.853 8.05302C166.853 -2.94702 199.353 1.05285 234.853 10.053L231.853 13.553C191.853 1.05298 165.853 2.55298 131.353 9.55302Z" fill="#E0426F" stroke="black" stroke-width="0.5"/>
<path d="M131.353 9.55284C182.853 -1.94718 211.353 8.05286 231.853 13.5528" stroke="black" stroke-width="0.5"/>
<path d="M170.854 30.553L174.354 8.55298C207.854 9.55298 219.354 15.053 223.854 16.553L226.337 28.553C199.347 28.5536 181.852 30.0531 170.854 30.553Z" fill="#E0426F"/>
<path d="M226.854 31.053L223.854 16.553C219.354 15.053 207.854 9.55298 174.354 8.55298L170.854 30.553C181.854 30.053 199.354 28.553 226.354 28.553" stroke="black" stroke-width="0.5"/>
<path d="M165.354 8.55298C132.354 9.55298 112.354 18.553 93.3545 36.053L95.8545 34.053L159.854 31.053L165.354 8.55298Z" fill="#E0426F" stroke="black" stroke-width="0.5"/>
<path d="M239.853 23.053C236.186 20.3863 230.353 18.053 223.853 16.553L226.353 28.553H232.853C235.853 27.053 238.853 24.8217 239.853 23.053Z" fill="#E0426F" stroke="black" stroke-width="0.5"/>
<path d="M96.8545 79.053H163.854L198.354 77.553H212.854L213.354 83.053H199.354H98.3545H86.8545V79.053H96.8545Z" fill="#E0426F"/>
<path d="M96.8545 79.053H163.854L198.354 77.553M96.8545 79.053C96.8545 80.553 97.3545 81.553 98.3545 83.053M96.8545 79.053H86.8545V83.053H98.3545M198.354 77.553L199.354 83.053M198.354 77.553H212.854L213.354 83.053H199.354M199.354 83.053H98.3545" stroke="black" stroke-width="0.5"/>
<path d="M96.8536 79.053C92.3545 74.553 89.3545 52.553 93.3536 36.053L165.354 32.053C161.354 37.053 160.354 71.053 163.854 79.053H96.8536Z" fill="#E0426F" stroke="black" stroke-width="0.5"/>
<path d="M228.854 31.053L165.354 32.053C161.355 37.053 160.355 71.053 163.854 79.053L198.354 77.553C202.854 76.053 209.354 70.553 228.854 31.053Z" fill="#E0426F" stroke="black" stroke-width="0.5"/>
<path d="M170.854 30.5531C166.354 31.0531 162.854 31.0531 159.854 31.0531L165.354 8.55305C168.354 8.05298 171.354 8.05298 174.354 8.55305L170.854 30.5531Z" fill="#E0426F" stroke="black" stroke-width="0.5"/>
<path d="M99.3545 32.553C103.854 38.053 110.854 34.553 114.854 33.053C115.854 17.5529 102.854 25.5529 99.3545 32.553Z" fill="#E0426F" stroke="black" stroke-width="0.5"/>
<path d="M234.853 10.053L231.853 13.553C248.853 19.053 259.353 22.053 271.853 28.553H273.353L281.353 27.053C266.353 20.553 258.853 18.053 234.853 10.053Z" fill="#E0426F" stroke="black" stroke-width="0.5"/>
<path d="M271.853 28.553C261.353 23.053 242.353 16.553 231.853 13.553L229.853 16.053L244.853 23.553C243.353 26.053 239.353 28.053 233.353 30.753C245.353 30.053 262.353 29.053 271.853 28.553Z" fill="#E0426F" stroke="black" stroke-width="0.5"/>
<path d="M277.354 34.853L283.353 32.553L272.854 28.553L228.854 31.053C221.354 46.053 206.354 76.553 198.354 77.553H212.854C211.354 66.553 220.854 43.053 245.854 52.053C256.354 46.553 266.354 41.053 277.354 34.853Z" fill="#E0426F" stroke="black" stroke-width="0.5"/>
<path d="M278.353 34.553C266.353 41.053 256.353 46.553 245.853 52.053C250.353 55.053 260.853 61.053 259.853 80.053L284.853 79.553V78.053C293.353 77.053 301.853 80.553 300.353 66.553L302.353 56.553C302.353 55.053 299.853 51.053 297.353 50.553C298.853 48.053 295.853 39.053 295.853 39.053V37.553L291.853 34.553L286.853 33.053L283.353 32.553L278.353 34.553Z" fill="#E0426F" stroke="black" stroke-width="0.5"/>
<path d="M281.353 27.053L272.853 28.553L283.353 32.553C292.853 33.553 291.851 35.053 295.847 37.4732L295.353 29.053L281.353 27.053Z" fill="#E0426F"/>
<path d="M295.853 37.553L295.847 37.4732M295.847 37.4732L295.353 29.053L281.353 27.053L272.853 28.553L283.353 32.553C292.853 33.553 291.851 35.053 295.847 37.4732Z" stroke="black" stroke-width="0.5"/>
<path d="M294.354 37.0532C293.854 34.5531 282.854 34.353 277.354 34.853" stroke="black" stroke-width="0.5"/>
<path d="M300.354 67.053L260.854 69.053C260.354 64.053 258.188 59.8863 256.354 58.053L302.354 55.553M300.854 53.053C289.854 51.553 278.854 46.753 266.854 40.753M228.854 31.053L272.854 28.553L281.354 27.053" stroke="black" stroke-width="0.5"/>
<path d="M290.854 41.053C290.854 39.053 289.854 35.053 286.354 33.053C288.575 33.053 291.952 34.0934 294.463 36.463C294.927 37.993 293.854 41.553 290.813 43.053C290.799 42.4627 290.854 41.7773 290.854 41.053Z" fill="#E0426F"/>
<path d="M272.854 43.553C279.85 43.9028 285.867 44.0079 291.248 44.553M297.854 45.553C295.751 45.1023 293.558 44.7871 291.248 44.553M295.854 38.053C295.437 37.4679 294.967 36.9386 294.463 36.463M291.248 44.553C290.921 44.2082 290.827 43.6852 290.813 43.053M290.813 43.053C290.799 42.4627 290.854 41.7773 290.854 41.053C290.854 39.053 289.854 35.053 286.354 33.053C288.575 33.053 291.952 34.0934 294.463 36.463M290.813 43.053C293.854 41.553 294.927 37.993 294.463 36.463" stroke="black" stroke-width="0.5"/>
<path d="M290.854 41.053C286.354 41.053 284.354 37.053 283.354 34.553" stroke="black" stroke-width="0.5"/>
<path d="M132.853 13.153C119.353 17.153 107.353 23.053 93.3525 36.053C100.353 24.053 115.853 14.553 131.353 9.55298L132.853 13.153Z" stroke="black" stroke-width="0.5"/>
<path d="M131.353 9.55298C111.353 15.227 93.3525 32.553 85.3525 30.553C98.3525 21.053 114.353 12.553 130.853 8.05298L131.353 9.55298Z" stroke="black" stroke-width="0.5"/>
<path d="M10.3532 48.5529H4.35321C1.85254 52.5529 1.85254 62.5529 2.35321 66.0529C0.852539 67.0529 0.853137 71.5529 1.85321 73.0529L5.85321 73.5529V75.0529L1.85321 77.0529V79.0529C5.85321 80.0529 14.3532 82.0529 22.3532 81.5529V80.0529H39.8532C39.1865 71.5529 40.8532 61.0529 49.8532 54.0529C47.3532 50.0529 40.3532 45.5529 37.3532 45.0529C27.3532 44.0529 12.3532 46.5529 10.3532 48.5529Z" stroke="black" stroke-width="0.5"/>
<path d="M93.3545 36.053C75.5212 36.8863 43.8545 41.753 33.3545 44.753L37.3545 45.053C42.3545 46.553 47.8545 50.8863 49.8545 54.053C62.8535 44.553 88.3535 51.553 86.8535 79.053H96.8535C89.8535 68.053 90.8535 46.053 93.3545 36.053Z" stroke="black" stroke-width="0.5"/>
<path d="M10.3525 48.553H4.35254C36.8527 29.0529 58.8528 35.053 84.8525 30.553L93.8528 36.053C76.8528 37.053 47.8525 40.553 33.8525 44.753C25.8525 44.553 11.8525 46.553 10.3525 48.553Z" stroke="black" stroke-width="0.5"/>
<path d="M37.354 45.0531C29.854 44.053 12.854 46.053 10.354 48.5531C9.55399 50.953 12.6873 53.8863 14.354 55.053C23.854 56.553 37.354 50.553 37.354 45.0531Z" stroke="black" stroke-width="0.5"/>
<path d="M4.35323 48.553C11.3532 49.553 5.35323 60.053 2.35323 65.053C1.85316 58.053 2.35303 52.553 4.35323 48.553Z" stroke="black" stroke-width="0.5"/>
<path d="M22.3525 84.553V80.053H39.8525L40.3525 84.553H22.3525Z" stroke="black" stroke-width="0.5"/>
<path d="M2.85449 66.0527C4.35449 68.5527 6.35449 71.7194 5.85449 73.5527M22.3545 80.0527C11.8545 80.5527 7.35449 76.5527 8.35449 73.0527C8.85449 72.5527 10.3545 71.0527 11.3545 71.0527" stroke="black" stroke-width="0.5"/>
<path d="M6.35449 66.0529C8.60443 65.5529 11.4793 64.9279 14.2293 64.5529M14.2293 64.5529C16.9794 64.1779 19.6044 64.0529 21.3545 64.5529C24.3545 66.0529 29.8545 71.0529 32.3545 75.0529C27.3545 76.0529 20.3545 75.5529 15.8545 75.5529C13.1619 75.5529 11.8545 73.2195 11.8545 72.0529C11.3545 69.0529 12.6043 65.8862 14.2293 64.5529Z" stroke="black" stroke-width="0.5"/>
<path d="M11.8545 71.5529C19.8545 70.053 23.3545 72.6815 26.3545 74.1815M13.3545 74.553L30.8545 74.053" stroke="black" stroke-width="0.5"/>
<path d="M22.3525 83.0527H31.8525C33.8525 83.0527 35.3525 81.0527 34.8525 80.0527M38.3525 80.0527V84.5527" stroke="black" stroke-width="0.5"/>
<path d="M22.3544 81.5532C17.8544 81.5532 13.3544 82.0532 1.85444 79.0532V77.0532L5.85444 75.0532V73.5532L1.85444 73.0532C1.35352 71.553 0.353711 68.553 2.35371 66.053C1.85395 58.053 2.35395 51.553 4.35444 48.5527C36.8544 29.0531 58.8544 35.0532 84.8544 30.5532C162.854 -24.4469 244.854 12.553 281.854 27.0532L295.354 29.053L295.854 36.053V39.053C297.353 44.053 298.688 48.553 297.354 50.553C299.854 51.553 302.354 54.7196 302.354 56.553L300.354 66.553C300.806 77.4009 298.398 77.6252 289.067 77.9376C288.076 77.9708 286.007 78.005 284.854 78.053V79.553L259.854 79.984M22.3544 81.5532V84.5532H40.3528L39.8544 80.0532M22.3544 81.5532V80.0532H39.8544M39.8544 80.0532C36.8544 38.5532 90.3544 41.5532 86.8544 80.5532V83.053H213.354C207.354 39.553 261.854 39.553 259.854 79.984M259.353 79.984H259.854" stroke="black"/>
</svg>
