<svg width="304" height="95" viewBox="0 0 304 95" fill="none" xmlns="http://www.w3.org/2000/svg">
<circle cx="63.0518" cy="73.8611" r="20.5" fill="#EDADBF" stroke="black"/>
<circle cx="236.052" cy="73.8611" r="20.5" fill="#EDADBF" stroke="black"/>
<path d="M133.05 12.3609L131.55 8.86094C171.55 0.861052 193.05 1.36108 232.05 12.861L228.55 17.361C208.55 9.36099 190.55 8.36099 174.55 7.86106C172.05 7.36106 168.05 7.36102 165.55 7.86094C155.55 7.86106 143.55 9.36106 133.05 12.3609Z" fill="#EDADBF" stroke="black" stroke-width="0.5"/>
<path d="M131.55 8.86113L131.05 7.36113C167.05 -3.63892 199.55 0.360958 235.05 9.36113L232.05 12.8611C192.05 0.361084 166.05 1.86108 131.55 8.86113Z" fill="#EDADBF" stroke="black" stroke-width="0.5"/>
<path d="M131.55 8.86095C183.05 -2.63908 211.55 7.36096 232.05 12.8609" stroke="black" stroke-width="0.5"/>
<path d="M171.052 29.8611L174.552 7.86108C208.052 8.86108 219.552 14.3611 224.052 15.8611L226.535 27.8611C199.544 27.8617 182.049 29.3612 171.052 29.8611Z" fill="#EDADBF"/>
<path d="M227.052 30.3611L224.052 15.8611C219.552 14.3611 208.052 8.86108 174.552 7.86108L171.052 29.8611C182.052 29.3611 199.552 27.8611 226.552 27.8611" stroke="black" stroke-width="0.5"/>
<path d="M165.552 7.86108C132.552 8.86108 112.552 17.8611 93.5518 35.3611L96.0518 33.3611L160.052 30.3611L165.552 7.86108Z" fill="#EDADBF" stroke="black" stroke-width="0.5"/>
<path d="M240.05 22.3611C236.383 19.6944 230.55 17.3611 224.05 15.8611L226.55 27.8611H233.05C236.05 26.3611 239.05 24.1298 240.05 22.3611Z" fill="#EDADBF" stroke="black" stroke-width="0.5"/>
<path d="M97.0518 78.3611H164.052L198.552 76.8611H213.052L213.552 82.3611H199.552H98.5518H87.0518V78.3611H97.0518Z" fill="#EDADBF"/>
<path d="M97.0518 78.3611H164.052L198.552 76.8611M97.0518 78.3611C97.0518 79.8611 97.5518 80.8611 98.5518 82.3611M97.0518 78.3611H87.0518V82.3611H98.5518M198.552 76.8611L199.552 82.3611M198.552 76.8611H213.052L213.552 82.3611H199.552M199.552 82.3611H98.5518" stroke="black" stroke-width="0.5"/>
<path d="M97.0509 78.3611C92.5518 73.8611 89.5518 51.8611 93.5509 35.3611L165.552 31.3611C161.552 36.3611 160.552 70.3611 164.052 78.3611H97.0509Z" fill="#EDADBF" stroke="black" stroke-width="0.5"/>
<path d="M229.052 30.3611L165.552 31.3611C161.552 36.3611 160.552 70.3611 164.052 78.3611L198.552 76.8611C203.052 75.3611 209.552 69.8611 229.052 30.3611Z" fill="#EDADBF" stroke="black" stroke-width="0.5"/>
<path d="M171.052 29.8612C166.552 30.3612 163.052 30.3612 160.052 30.3612L165.552 7.86116C168.552 7.36108 171.552 7.36108 174.552 7.86116L171.052 29.8612Z" fill="#EDADBF" stroke="black" stroke-width="0.5"/>
<path d="M99.5518 31.8611C104.052 37.3611 111.052 33.8611 115.052 32.3611C116.052 16.861 103.052 24.861 99.5518 31.8611Z" fill="#EDADBF" stroke="black" stroke-width="0.5"/>
<path d="M235.05 9.36108L232.05 12.8611C249.05 18.3611 259.55 21.3611 272.05 27.8611H273.55L281.55 26.3611C266.55 19.8611 259.05 17.3611 235.05 9.36108Z" fill="#E0426F" stroke="black" stroke-width="0.5"/>
<path d="M272.05 27.8611C261.55 22.3611 242.55 15.8611 232.05 12.8611L230.05 15.3611L245.05 22.8611C243.55 25.3611 239.55 27.3611 233.55 30.0611C245.55 29.3611 262.55 28.3611 272.05 27.8611Z" fill="#E0426F" stroke="black" stroke-width="0.5"/>
<path d="M277.552 34.1611L283.55 31.8611L273.051 27.8611L229.051 30.3611C221.551 45.3611 206.551 75.8611 198.551 76.8611H213.051C211.551 65.8611 221.051 42.3611 246.052 51.3611C256.552 45.8611 266.552 40.3611 277.552 34.1611Z" fill="#E0426F" stroke="black" stroke-width="0.5"/>
<path d="M278.55 33.8611C266.55 40.3611 256.55 45.8611 246.05 51.3611C250.55 54.3611 261.05 60.3611 260.05 79.3611L285.05 78.8611V77.3611C293.55 76.3611 302.05 79.8611 300.55 65.8611L302.55 55.8611C302.55 54.3611 300.05 50.3611 297.55 49.8611C299.05 47.3611 296.05 38.3611 296.05 38.3611V36.8611L292.05 33.8611L287.05 32.3611L283.55 31.8611L278.55 33.8611Z" fill="#E0426F" stroke="black" stroke-width="0.5"/>
<path d="M281.55 26.3611L273.05 27.8611L283.55 31.8611C293.05 32.8611 292.049 34.3611 296.044 36.7813L295.55 28.3611L281.55 26.3611Z" fill="#E0426F"/>
<path d="M296.05 36.8611L296.044 36.7813M296.044 36.7813L295.55 28.3611L281.55 26.3611L273.05 27.8611L283.55 31.8611C293.05 32.8611 292.049 34.3611 296.044 36.7813Z" stroke="black" stroke-width="0.5"/>
<path d="M294.552 36.3613C294.052 33.8612 283.052 33.6611 277.552 34.1611" stroke="black" stroke-width="0.5"/>
<path d="M300.552 66.3611L261.052 68.3611C260.552 63.3611 258.385 59.1944 256.552 57.3611L302.552 54.8611M301.052 52.3611C290.052 50.8611 279.052 46.0611 267.052 40.0611M229.052 30.3611L273.052 27.8611L281.552 26.3611" stroke="black" stroke-width="0.5"/>
<path d="M291.052 40.3611C291.052 38.3611 290.052 34.3611 286.552 32.3611C288.773 32.3611 292.149 33.4015 294.661 35.7711C295.124 37.3011 294.052 40.8611 291.01 42.3611C290.996 41.7708 291.052 41.0854 291.052 40.3611Z" fill="#E0426F"/>
<path d="M273.052 42.8611C280.047 43.2109 286.064 43.316 291.445 43.8611M298.052 44.8611C295.949 44.4104 293.756 44.0952 291.445 43.8611M296.052 37.3611C295.634 36.776 295.165 36.2467 294.661 35.7711M291.445 43.8611C291.119 43.5163 291.025 42.9933 291.01 42.3611M291.01 42.3611C290.996 41.7708 291.052 41.0854 291.052 40.3611C291.052 38.3611 290.052 34.3611 286.552 32.3611C288.773 32.3611 292.149 33.4015 294.661 35.7711M291.01 42.3611C294.052 40.8611 295.124 37.3011 294.661 35.7711" stroke="black" stroke-width="0.5"/>
<path d="M291.052 40.3611C286.552 40.3611 284.552 36.3611 283.552 33.8611" stroke="black" stroke-width="0.5"/>
<path d="M133.05 12.4611C119.55 16.4611 107.55 22.3611 93.5498 35.3611C100.55 23.3611 116.05 13.8611 131.55 8.86108L133.05 12.4611Z" stroke="black" stroke-width="0.5"/>
<path d="M131.55 8.86108C111.55 14.5351 93.5498 31.8611 85.5498 29.8611C98.5498 20.3611 114.55 11.8611 131.05 7.36108L131.55 8.86108Z" stroke="black" stroke-width="0.5"/>
<path d="M10.5505 47.861H4.55047C2.0498 51.861 2.0498 61.861 2.55047 65.361C1.0498 66.361 1.0504 70.861 2.05047 72.361L6.05047 72.861V74.361L2.05047 76.361V78.361C6.05047 79.361 14.5505 81.361 22.5505 80.861V79.361H40.0505C39.3838 70.861 41.0505 60.361 50.0505 53.361C47.5505 49.361 40.5505 44.861 37.5505 44.361C27.5505 43.361 12.5505 45.861 10.5505 47.861Z" stroke="black" stroke-width="0.5"/>
<path d="M93.5518 35.3611C75.7184 36.1944 44.0518 41.0611 33.5518 44.0611L37.5518 44.3611C42.5518 45.8611 48.0518 50.1944 50.0518 53.3611C63.0508 43.8611 88.5508 50.8611 87.0508 78.3611H97.0508C90.0508 67.3611 91.0508 45.3611 93.5518 35.3611Z" stroke="black" stroke-width="0.5"/>
<path d="M10.5498 47.8611H4.5498C37.05 28.361 59.05 34.3611 85.0498 29.8611L94.05 35.3611C77.05 36.3611 48.0498 39.8611 34.0498 44.0611C26.0498 43.8611 12.0498 45.8611 10.5498 47.8611Z" stroke="black" stroke-width="0.5"/>
<path d="M37.5513 44.3612C30.0513 43.3611 13.0513 45.3611 10.5513 47.8612C9.75126 50.2611 12.8846 53.1944 14.5513 54.3611C24.0513 55.8611 37.5513 49.8611 37.5513 44.3612Z" stroke="black" stroke-width="0.5"/>
<path d="M4.5505 47.8611C11.5505 48.8611 5.5505 59.3611 2.5505 64.3611C2.05043 57.3611 2.55029 51.8611 4.5505 47.8611Z" stroke="black" stroke-width="0.5"/>
<path d="M22.5498 83.8611V79.3611H40.0498L40.5498 83.8611H22.5498Z" stroke="black" stroke-width="0.5"/>
<path d="M3.05176 65.3608C4.55176 67.8608 6.55176 71.0275 6.05176 72.8608M22.5518 79.3608C12.0518 79.8608 7.55176 75.8608 8.55176 72.3608C9.05176 71.8608 10.5518 70.3608 11.5518 70.3608" stroke="black" stroke-width="0.5"/>
<path d="M6.55176 65.361C8.8017 64.861 11.6766 64.236 14.4265 63.861M14.4265 63.861C17.1766 63.486 19.8017 63.361 21.5518 63.861C24.5518 65.361 30.0518 70.361 32.5518 74.361C27.5518 75.361 20.5518 74.861 16.0518 74.861C13.3592 74.861 12.0518 72.5276 12.0518 71.361C11.5518 68.361 12.8016 65.1943 14.4265 63.861Z" stroke="black" stroke-width="0.5"/>
<path d="M12.0518 70.861C20.0518 69.3611 23.5518 71.9896 26.5518 73.4896M13.5518 73.8611L31.0518 73.3611" stroke="black" stroke-width="0.5"/>
<path d="M22.5498 82.3608H32.0498C34.0498 82.3608 35.5498 80.3608 35.0498 79.3608M38.5498 79.3608V83.8608" stroke="black" stroke-width="0.5"/>
<path d="M22.5517 80.8613C18.0517 80.8613 13.5517 81.3613 2.0517 78.3613V76.3613L6.0517 74.3613V72.8613L2.0517 72.3613C1.55078 70.8611 0.550977 67.8611 2.55097 65.3611C2.05122 57.3611 2.55122 50.8611 4.5517 47.8608C37.0517 28.3612 59.0517 34.3613 85.0517 29.8613C163.052 -25.1388 245.052 11.8611 282.052 26.3613L295.552 28.3611L296.052 35.3611V38.3611C297.55 43.3611 298.885 47.8611 297.552 49.8611C300.052 50.8611 302.552 54.0278 302.552 55.8611L300.552 65.8611C301.004 76.709 298.596 76.9333 289.264 77.2457C288.273 77.2789 286.204 77.3131 285.052 77.3611V78.8611L260.052 79.2921M22.5517 80.8613V83.8613H40.55L40.0517 79.3613M22.5517 80.8613V79.3613H40.0517M40.0517 79.3613C37.0517 37.8613 90.5517 40.8613 87.0517 79.8613V82.3611H213.552C207.552 38.8611 262.052 38.8611 260.052 79.2921M259.55 79.2921H260.052" stroke="black"/>
</svg>
