<svg width="303" height="96" viewBox="0 0 303 96" fill="none" xmlns="http://www.w3.org/2000/svg">
<circle cx="62.8652" cy="74.0151" r="20.5" fill="#EFC7D3" stroke="black"/>
<circle cx="235.865" cy="74.0151" r="20.5" fill="#EFC7D3" stroke="black"/>
<path d="M132.863 12.515L131.363 9.01499C171.363 1.0151 192.863 1.51514 231.863 13.0151L228.363 17.5151C208.363 9.51505 190.363 8.51505 174.363 8.01511C171.863 7.51511 167.863 7.51508 165.363 8.01499C155.363 8.01511 143.363 9.51511 132.863 12.515Z" fill="#EFC7D3" stroke="black" stroke-width="0.5"/>
<path d="M131.363 9.01518L130.863 7.51518C166.863 -3.48486 199.363 0.515011 234.863 9.51518L231.863 13.0152C191.863 0.515137 165.863 2.01514 131.363 9.01518Z" fill="#EFC7D3" stroke="black" stroke-width="0.5"/>
<path d="M131.363 9.01512C182.863 -2.4849 211.363 7.51514 231.863 13.0151" stroke="black" stroke-width="0.5"/>
<path d="M170.865 30.0151L174.365 8.01514C207.865 9.01514 219.365 14.5151 223.865 16.0151L226.348 28.0151C199.358 28.0158 181.863 29.5152 170.865 30.0151Z" fill="#EFC7D3"/>
<path d="M226.865 30.5151L223.865 16.0151C219.365 14.5151 207.865 9.01514 174.365 8.01514L170.865 30.0151C181.865 29.5151 199.365 28.0151 226.365 28.0151" stroke="black" stroke-width="0.5"/>
<path d="M165.365 8.01514C132.365 9.01514 112.365 18.0151 93.3652 35.5151L95.8652 33.5151L159.865 30.5151L165.365 8.01514Z" fill="#EFC7D3" stroke="black" stroke-width="0.5"/>
<path d="M239.863 22.5151C236.197 19.8485 230.363 17.5151 223.863 16.0151L226.363 28.0151H232.863C235.863 26.5151 238.863 24.2839 239.863 22.5151Z" fill="#EFC7D3" stroke="black" stroke-width="0.5"/>
<path d="M96.8652 78.5151H163.865L198.365 77.0151H212.865L213.365 82.5151H199.365H98.3652H86.8652V78.5151H96.8652Z" fill="#EFC7D3"/>
<path d="M96.8652 78.5151H163.865L198.365 77.0151M96.8652 78.5151C96.8652 80.0151 97.3652 81.0151 98.3652 82.5151M96.8652 78.5151H86.8652V82.5151H98.3652M198.365 77.0151L199.365 82.5151M198.365 77.0151H212.865L213.365 82.5151H199.365M199.365 82.5151H98.3652" stroke="black" stroke-width="0.5"/>
<path d="M96.8644 78.5151C92.3652 74.0151 89.3653 52.0151 93.3644 35.5151L165.365 31.5151C161.365 36.5151 160.365 70.5151 163.865 78.5151H96.8644Z" fill="#EFC7D3" stroke="black" stroke-width="0.5"/>
<path d="M228.865 30.5151L165.365 31.5151C161.365 36.5151 160.365 70.5151 163.865 78.5151L198.365 77.0151C202.865 75.5151 209.365 70.0151 228.865 30.5151Z" fill="#EFC7D3" stroke="black" stroke-width="0.5"/>
<path d="M170.865 30.0152C166.365 30.5152 162.865 30.5152 159.865 30.5152L165.365 8.01521C168.365 7.51514 171.365 7.51514 174.365 8.01521L170.865 30.0152Z" fill="#EFC7D3" stroke="black" stroke-width="0.5"/>
<path d="M99.3652 32.0153C103.865 37.5153 110.865 34.0153 114.865 32.5153C115.865 17.0152 102.865 25.0151 99.3652 32.0153Z" fill="#EFC7D3" stroke="black" stroke-width="0.5"/>
<path d="M234.863 9.51514L231.863 13.0151C248.863 18.5151 259.363 21.5151 271.863 28.0151H273.363L281.363 26.5151C266.363 20.0151 258.863 17.5151 234.863 9.51514Z" fill="#E56E90" stroke="black" stroke-width="0.5"/>
<path d="M271.863 28.0151C261.363 22.5151 242.363 16.0151 231.863 13.0151L229.863 15.5151L244.863 23.0151C243.363 25.5151 239.363 27.5151 233.363 30.2151C245.363 29.5151 262.363 28.5151 271.863 28.0151Z" fill="#E56E90" stroke="black" stroke-width="0.5"/>
<path d="M277.365 34.3151L283.364 32.0151L272.864 28.0151L228.864 30.5151C221.364 45.5151 206.364 76.0151 198.364 77.0151H212.864C211.364 66.0151 220.864 42.5151 245.865 51.5151C256.365 46.0151 266.365 40.5151 277.365 34.3151Z" fill="#E56E90" stroke="black" stroke-width="0.5"/>
<path d="M278.363 34.0152C266.363 40.5152 256.363 46.0152 245.863 51.5152C250.363 54.5151 260.863 60.5151 259.863 79.5151L284.863 79.0151V77.5151C293.363 76.5151 301.863 80.0151 300.363 66.0151L302.363 56.0151C302.363 54.5151 299.863 50.5151 297.363 50.0151C298.863 47.5151 295.863 38.5151 295.863 38.5151V37.0151L291.863 34.0151L286.863 32.5151L283.363 32.0151L278.363 34.0152Z" fill="#E56E90" stroke="black" stroke-width="0.5"/>
<path d="M281.363 26.5151L272.863 28.0151L283.363 32.0151C292.863 33.0151 291.862 34.5151 295.857 36.9353L295.363 28.5151L281.363 26.5151Z" fill="#E56E90"/>
<path d="M295.863 37.0151L295.857 36.9353M295.857 36.9353L295.363 28.5151L281.363 26.5151L272.863 28.0151L283.363 32.0151C292.863 33.0151 291.862 34.5151 295.857 36.9353Z" stroke="black" stroke-width="0.5"/>
<path d="M294.365 36.5153C293.865 34.0152 282.865 33.8151 277.365 34.3151" stroke="black" stroke-width="0.5"/>
<path d="M300.365 66.5151L260.865 68.5151C260.365 63.5151 258.199 59.3485 256.365 57.5151L302.365 55.0151M300.865 52.5151C289.865 51.0151 278.865 46.2151 266.865 40.2151M228.865 30.5151L272.865 28.0151L281.365 26.5151" stroke="black" stroke-width="0.5"/>
<path d="M290.865 40.5151C290.865 38.5151 289.865 34.5151 286.365 32.5151C288.586 32.5151 291.963 33.5555 294.474 35.9251C294.938 37.4551 293.865 41.0151 290.823 42.5151C290.81 41.9249 290.865 41.2394 290.865 40.5151Z" fill="#E56E90"/>
<path d="M272.865 43.0151C279.861 43.3649 285.878 43.47 291.258 44.0151M297.865 45.0151C295.762 44.5645 293.569 44.2492 291.258 44.0151M295.865 37.5151C295.447 36.93 294.978 36.4008 294.474 35.9251M291.258 44.0151C290.932 43.6704 290.838 43.1473 290.823 42.5151M290.823 42.5151C290.81 41.9249 290.865 41.2394 290.865 40.5151C290.865 38.5151 289.865 34.5151 286.365 32.5151C288.586 32.5151 291.963 33.5555 294.474 35.9251M290.823 42.5151C293.865 41.0151 294.938 37.4551 294.474 35.9251" stroke="black" stroke-width="0.5"/>
<path d="M290.865 40.5151C286.365 40.5151 284.365 36.5151 283.365 34.0151" stroke="black" stroke-width="0.5"/>
<path d="M132.863 12.6151C119.363 16.6151 107.363 22.5151 93.3633 35.5151C100.363 23.5151 115.863 14.0151 131.363 9.01514L132.863 12.6151Z" stroke="black" stroke-width="0.5"/>
<path d="M131.363 9.01514C111.363 14.6892 93.3633 32.0151 85.3633 30.0151C98.3633 20.5151 114.363 12.0151 130.863 7.51514L131.363 9.01514Z" stroke="black" stroke-width="0.5"/>
<path d="M10.3639 48.0151H4.36395C1.86328 52.0151 1.86328 62.0151 2.36395 65.5151C0.863281 66.5151 0.863879 71.0151 1.86395 72.5151L5.86395 73.0151V74.5151L1.86395 76.5151V78.5151C5.86395 79.5151 14.3639 81.5151 22.3639 81.0151V79.5151H39.8639C39.1973 71.0151 40.8639 60.5151 49.8639 53.5151C47.3639 49.5151 40.3639 45.0151 37.3639 44.5151C27.3639 43.5151 12.3639 46.0151 10.3639 48.0151Z" stroke="black" stroke-width="0.5"/>
<path d="M93.3652 35.5151C75.5319 36.3485 43.8652 41.2151 33.3652 44.2151L37.3652 44.5151C42.3652 46.0151 47.8652 50.3485 49.8652 53.5151C62.8643 44.0151 88.3643 51.0151 86.8643 78.5151H96.8643C89.8643 67.5151 90.8643 45.5151 93.3652 35.5151Z" stroke="black" stroke-width="0.5"/>
<path d="M10.3633 48.0152H4.36328C36.8635 28.5151 58.8635 34.5151 84.8633 30.0151L93.8635 35.5151C76.8635 36.5151 47.8633 40.0151 33.8633 44.2151C25.8633 44.0151 11.8633 46.0151 10.3633 48.0152Z" stroke="black" stroke-width="0.5"/>
<path d="M37.3647 44.5152C29.8647 43.5151 12.8647 45.5151 10.3647 48.0152C9.56474 50.4152 12.6981 53.3485 14.3647 54.5151C23.8647 56.0151 37.3647 50.0151 37.3647 44.5152Z" stroke="black" stroke-width="0.5"/>
<path d="M4.36398 48.0151C11.364 49.0151 5.36398 59.5151 2.36398 64.5151C1.86391 57.5151 2.36377 52.0151 4.36398 48.0151Z" stroke="black" stroke-width="0.5"/>
<path d="M22.3633 84.0151V79.5151H39.8633L40.3633 84.0151H22.3633Z" stroke="black" stroke-width="0.5"/>
<path d="M2.86523 65.5151C4.36523 68.0151 6.36523 71.1818 5.86523 73.0151M22.3652 79.5151C11.8652 80.0151 7.36523 76.0151 8.36523 72.5151C8.86523 72.0151 10.3652 70.5151 11.3652 70.5151" stroke="black" stroke-width="0.5"/>
<path d="M6.36523 65.5152C8.61518 65.0152 11.4901 64.3902 14.24 64.0152M14.24 64.0152C16.9901 63.6402 19.6152 63.5152 21.3652 64.0152C24.3652 65.5152 29.8652 70.5151 32.3652 74.5151C27.3652 75.5151 20.3652 75.0151 15.8652 75.0151C13.1727 75.0151 11.8652 72.6818 11.8652 71.5151C11.3652 68.5151 12.6151 65.3485 14.24 64.0152Z" stroke="black" stroke-width="0.5"/>
<path d="M11.8652 71.0152C19.8652 69.5153 23.3652 72.1437 26.3652 73.6437M13.3652 74.0153L30.8652 73.5153" stroke="black" stroke-width="0.5"/>
<path d="M22.3633 82.5151H31.8633C33.8633 82.5151 35.3633 80.5151 34.8633 79.5151M38.3633 79.5151V84.0151" stroke="black" stroke-width="0.5"/>
<path d="M22.3652 81.0154C17.8652 81.0154 13.3652 81.5154 1.86518 78.5154V76.5154L5.86518 74.5154V73.0154L1.86518 72.5154C1.36426 71.0151 0.364454 68.0151 2.36445 65.5151C1.86469 57.5151 2.36469 51.0151 4.36518 48.0149C36.8652 28.5153 58.8652 34.5153 84.8652 30.0153C162.865 -24.9848 244.865 12.0151 281.865 26.5153L295.365 28.5151L295.865 35.5151V38.5151C297.364 43.5151 298.699 48.0151 297.365 50.0151C299.865 51.0151 302.365 54.1818 302.365 56.0151L300.365 66.0151C300.817 76.863 298.409 77.0873 289.077 77.3998C288.086 77.433 286.017 77.4671 284.865 77.5151V79.0151L259.865 79.4462M22.3652 81.0154V84.0154H40.3635L39.8652 79.5154M22.3652 81.0154V79.5154H39.8652M39.8652 79.5154C36.8652 38.0154 90.3652 41.0154 86.8652 80.0154V82.5151H213.365C207.365 39.0151 261.865 39.0151 259.865 79.4462M259.364 79.4462H259.865" stroke="black"/>
</svg>
