<svg width="303" height="96" viewBox="0 0 303 96" fill="none" xmlns="http://www.w3.org/2000/svg">
<circle cx="62.8853" cy="74.3535" r="20.5" fill="#EFC7D3" stroke="black"/>
<circle cx="235.885" cy="74.3535" r="20.5" fill="#EFC7D3" stroke="black"/>
<path d="M132.884 12.8534L131.384 9.35337C171.384 1.35348 192.884 1.85352 231.884 13.3535L228.384 17.8535C208.384 9.85343 190.384 8.85342 174.384 8.35349C171.884 7.85349 167.884 7.85345 165.384 8.35337C155.384 8.35349 143.384 9.85349 132.884 12.8534Z" fill="#EFC7D3" stroke="black" stroke-width="0.5"/>
<path d="M131.384 9.35356L130.884 7.85356C166.884 -3.14648 199.384 0.85339 234.884 9.85356L231.884 13.3536C191.884 0.853516 165.884 2.35352 131.384 9.35356Z" fill="#EFC7D3" stroke="black" stroke-width="0.5"/>
<path d="M131.384 9.3535C182.884 -2.14652 211.384 7.85352 231.884 13.3535" stroke="black" stroke-width="0.5"/>
<path d="M170.885 30.3535L174.385 8.35352C207.885 9.35352 219.385 14.8535 223.885 16.3535L226.368 28.3535C199.378 28.3542 181.883 29.8536 170.885 30.3535Z" fill="#EFC7D3"/>
<path d="M226.885 30.8535L223.885 16.3535C219.385 14.8535 207.885 9.35352 174.385 8.35352L170.885 30.3535C181.885 29.8535 199.385 28.3535 226.385 28.3535" stroke="black" stroke-width="0.5"/>
<path d="M165.385 8.35352C132.385 9.35352 112.385 18.3535 93.3853 35.8535L95.8853 33.8535L159.885 30.8535L165.385 8.35352Z" fill="#EFC7D3" stroke="black" stroke-width="0.5"/>
<path d="M239.884 22.8535C236.217 20.1868 230.384 17.8535 223.884 16.3535L226.384 28.3535H232.884C235.884 26.8535 238.884 24.6223 239.884 22.8535Z" fill="#EFC7D3" stroke="black" stroke-width="0.5"/>
<path d="M96.8853 78.8535H163.885L198.385 77.3535H212.885L213.385 82.8535H199.385H98.3853H86.8853V78.8535H96.8853Z" fill="#EFC7D3"/>
<path d="M96.8853 78.8535H163.885L198.385 77.3535M96.8853 78.8535C96.8853 80.3535 97.3853 81.3535 98.3853 82.8535M96.8853 78.8535H86.8853V82.8535H98.3853M198.385 77.3535L199.385 82.8535M198.385 77.3535H212.885L213.385 82.8535H199.385M199.385 82.8535H98.3853" stroke="black" stroke-width="0.5"/>
<path d="M96.8844 78.8535C92.3852 74.3535 89.3853 52.3535 93.3844 35.8535L165.385 31.8535C161.385 36.8535 160.385 70.8535 163.885 78.8535H96.8844Z" fill="#EFC7D3" stroke="black" stroke-width="0.5"/>
<path d="M228.885 30.8535L165.385 31.8535C161.385 36.8535 160.385 70.8535 163.885 78.8535L198.385 77.3535C202.885 75.8535 209.385 70.3535 228.885 30.8535Z" fill="#EFC7D3" stroke="black" stroke-width="0.5"/>
<path d="M170.885 30.3536C166.385 30.8536 162.885 30.8536 159.885 30.8536L165.385 8.35359C168.385 7.85352 171.385 7.85352 174.385 8.35359L170.885 30.3536Z" fill="#EFC7D3" stroke="black" stroke-width="0.5"/>
<path d="M99.3853 32.3537C103.885 37.8537 110.885 34.3537 114.885 32.8537C115.885 17.3535 102.885 25.3535 99.3853 32.3537Z" fill="#EFC7D3" stroke="black" stroke-width="0.5"/>
<path d="M234.884 9.85352L231.884 13.3535C248.884 18.8535 259.384 21.8535 271.884 28.3535H273.384L281.384 26.8535C266.384 20.3535 258.884 17.8535 234.884 9.85352Z" fill="#EFC7D3" stroke="black" stroke-width="0.5"/>
<path d="M271.884 28.3535C261.384 22.8535 242.384 16.3535 231.884 13.3535L229.884 15.8535L244.884 23.3535C243.384 25.8535 239.384 27.8535 233.384 30.5535C245.384 29.8535 262.384 28.8535 271.884 28.3535Z" fill="#EFC7D3" stroke="black" stroke-width="0.5"/>
<path d="M277.385 34.6535L283.384 32.3535L272.884 28.3535L228.884 30.8535C221.384 45.8535 206.384 76.3535 198.384 77.3535H212.884C211.384 66.3535 220.884 42.8535 245.885 51.8535C256.385 46.3535 266.385 40.8535 277.385 34.6535Z" fill="#EFC7D3" stroke="black" stroke-width="0.5"/>
<path d="M278.384 34.3535C266.384 40.8535 256.384 46.3535 245.884 51.8535C250.384 54.8535 260.884 60.8535 259.884 79.8535L284.884 79.3535V77.8535C293.384 76.8535 301.884 80.3535 300.384 66.3535L302.384 56.3535C302.384 54.8535 299.884 50.8535 297.384 50.3535C298.884 47.8535 295.884 38.8535 295.884 38.8535V37.3535L291.884 34.3535L286.884 32.8535L283.384 32.3535L278.384 34.3535Z" fill="#EFC7D3" stroke="black" stroke-width="0.5"/>
<path d="M281.384 26.8535L272.884 28.3535L283.384 32.3535C292.884 33.3535 291.883 34.8535 295.878 37.2737L295.384 28.8535L281.384 26.8535Z" fill="#EFC7D3"/>
<path d="M295.884 37.3535L295.878 37.2737M295.878 37.2737L295.384 28.8535L281.384 26.8535L272.884 28.3535L283.384 32.3535C292.884 33.3535 291.883 34.8535 295.878 37.2737Z" stroke="black" stroke-width="0.5"/>
<path d="M294.385 36.8537C293.885 34.3536 282.885 34.1535 277.385 34.6535" stroke="black" stroke-width="0.5"/>
<path d="M300.385 66.8535L260.885 68.8535C260.385 63.8535 258.219 59.6868 256.385 57.8535L302.385 55.3535M300.885 52.8535C289.885 51.3535 278.885 46.5535 266.885 40.5535M228.885 30.8535L272.885 28.3535L281.385 26.8535" stroke="black" stroke-width="0.5"/>
<path d="M290.885 40.8535C290.885 38.8535 289.885 34.8535 286.385 32.8535C288.606 32.8535 291.983 33.8939 294.494 36.2635C294.958 37.7935 293.885 41.3535 290.843 42.8535C290.83 42.2632 290.885 41.5778 290.885 40.8535Z" fill="#EFC7D3"/>
<path d="M272.885 43.3535C279.881 43.7033 285.898 43.8084 291.278 44.3535M297.885 45.3535C295.782 44.9029 293.589 44.5876 291.278 44.3535M295.885 37.8535C295.467 37.2684 294.998 36.7392 294.494 36.2635M291.278 44.3535C290.952 44.0088 290.858 43.4857 290.843 42.8535M290.843 42.8535C290.83 42.2632 290.885 41.5778 290.885 40.8535C290.885 38.8535 289.885 34.8535 286.385 32.8535C288.606 32.8535 291.983 33.8939 294.494 36.2635M290.843 42.8535C293.885 41.3535 294.958 37.7935 294.494 36.2635" stroke="black" stroke-width="0.5"/>
<path d="M290.885 40.8535C286.385 40.8535 284.385 36.8535 283.385 34.3535" stroke="black" stroke-width="0.5"/>
<path d="M132.884 12.9535C119.384 16.9535 107.384 22.8535 93.3838 35.8535C100.384 23.8535 115.884 14.3535 131.384 9.35352L132.884 12.9535Z" fill="#EDADBF" stroke="black" stroke-width="0.5"/>
<path d="M131.384 9.35352C111.384 15.0276 93.3838 32.3535 85.3838 30.3535C98.3838 20.8535 114.384 12.3535 130.884 7.85352L131.384 9.35352Z" fill="#EDADBF" stroke="black" stroke-width="0.5"/>
<path d="M10.3845 48.3535H4.38446C1.88379 52.3535 1.88379 62.3535 2.38446 65.8535C0.883789 66.8535 0.884387 71.3535 1.88446 72.8535L5.88446 73.3535V74.8535L1.88446 76.8535V78.8535C5.88446 79.8535 14.3845 81.8535 22.3845 81.3535V79.8535H39.8845C39.2178 71.3535 40.8845 60.8535 49.8845 53.8535C47.3845 49.8535 40.3845 45.3535 37.3845 44.8535C27.3845 43.8535 12.3845 46.3535 10.3845 48.3535Z" fill="#EDADBF" stroke="black" stroke-width="0.5"/>
<path d="M93.3853 35.8535C75.5519 36.6868 43.8853 41.5535 33.3853 44.5535L37.3853 44.8535C42.3853 46.3535 47.8853 50.6868 49.8853 53.8535C62.8843 44.3535 88.3843 51.3535 86.8843 78.8535H96.8843C89.8843 67.8535 90.8843 45.8535 93.3853 35.8535Z" fill="#EDADBF" stroke="black" stroke-width="0.5"/>
<path d="M10.3838 48.3536H4.38379C36.884 28.8535 58.884 34.8535 84.8838 30.3535L93.884 35.8535C76.884 36.8535 47.8838 40.3535 33.8838 44.5535C25.8838 44.3535 11.8838 46.3535 10.3838 48.3536Z" fill="#EDADBF" stroke="black" stroke-width="0.5"/>
<path d="M37.3852 44.8536C29.8852 43.8535 12.8852 45.8535 10.3852 48.3536C9.58524 50.7535 12.7186 53.6868 14.3852 54.8535C23.8853 56.3535 37.3852 50.3535 37.3852 44.8536Z" fill="#EDADBF" stroke="black" stroke-width="0.5"/>
<path d="M4.38448 48.3535C11.3845 49.3535 5.38448 59.8535 2.38448 64.8535C1.88441 57.8535 2.38428 52.3535 4.38448 48.3535Z" fill="#EDADBF" stroke="black" stroke-width="0.5"/>
<path d="M22.3838 84.3535V79.8535H39.8838L40.3838 84.3535H22.3838Z" fill="#EDADBF" stroke="black" stroke-width="0.5"/>
<path d="M2.88574 65.8535C4.38574 68.3535 6.38574 71.5202 5.88574 73.3535M22.3857 79.8535C11.8857 80.3535 7.38574 76.3535 8.38574 72.8535C8.88574 72.3535 10.3857 70.8535 11.3857 70.8535" stroke="black" stroke-width="0.5"/>
<path d="M32.3857 74.8535C29.8857 70.8535 24.3857 65.8536 21.3857 64.3536C19.6357 63.8536 17.0106 63.9786 14.2605 64.3536C12.6356 65.6869 11.3857 68.8535 11.8857 71.8535C11.8857 73.0202 13.1932 75.3535 15.8857 75.3535C20.3857 75.3535 27.3857 75.8535 32.3857 74.8535Z" fill="#EDADBF"/>
<path d="M6.38574 65.8536C8.63568 65.3536 11.5106 64.7286 14.2605 64.3536M14.2605 64.3536C17.0106 63.9786 19.6357 63.8536 21.3857 64.3536C24.3857 65.8536 29.8857 70.8535 32.3857 74.8535C27.3857 75.8535 20.3857 75.3535 15.8857 75.3535C13.1932 75.3535 11.8857 73.0202 11.8857 71.8535C11.3857 68.8535 12.6356 65.6869 14.2605 64.3536Z" stroke="black" stroke-width="0.5"/>
<path d="M11.8857 71.3536C19.8857 69.8536 23.3857 72.4821 26.3857 73.9821M13.3857 74.3536L30.8857 73.8536" stroke="black" stroke-width="0.5"/>
<path d="M22.3838 82.8535H31.8838C33.8838 82.8535 35.3838 80.8535 34.8838 79.8535M38.3838 79.8535V84.3535" stroke="black" stroke-width="0.5"/>
<path d="M22.3852 81.3538C17.8852 81.3538 13.3852 81.8538 1.8852 78.8538V76.8538L5.8852 74.8538V73.3538L1.8852 72.8538C1.38428 71.3535 0.384473 68.3535 2.38447 65.8535C1.88471 57.8535 2.38471 51.3535 4.3852 48.3533C36.8852 28.8537 58.8852 34.8537 84.8852 30.3537C162.885 -24.6464 244.885 12.3535 281.885 26.8537L295.385 28.8535L295.885 35.8535V38.8535C297.384 43.8535 298.719 48.3535 297.385 50.3535C299.885 51.3535 302.385 54.5202 302.385 56.3535L300.385 66.3535C300.837 77.2014 298.429 77.4257 289.098 77.7382C288.106 77.7713 286.037 77.8055 284.885 77.8535V79.3535L259.885 79.7846M22.3852 81.3538V84.3538H40.3835L39.8852 79.8538M22.3852 81.3538V79.8538H39.8852M39.8852 79.8538C36.8852 38.3538 90.3852 41.3538 86.8852 80.3538V82.8535H213.385C207.385 39.3535 261.885 39.3535 259.885 79.7846M259.384 79.7846H259.885" stroke="black"/>
</svg>
