<svg width="303" height="95" viewBox="0 0 303 95" fill="none" xmlns="http://www.w3.org/2000/svg">
<circle cx="62.4795" cy="73.6919" r="20.5" fill="#E0426F" stroke="black"/>
<circle cx="235.479" cy="73.6919" r="20.5" fill="#E0426F" stroke="black"/>
<path d="M132.478 12.1918L130.978 8.69175C170.978 0.691862 192.478 1.19189 231.478 12.6918L227.978 17.1918C207.978 9.1918 189.978 8.1918 173.978 7.69187C171.478 7.19187 167.478 7.19183 164.978 7.69175C154.978 7.69187 142.978 9.19187 132.478 12.1918Z" fill="#EFC7D3" stroke="black" stroke-width="0.5"/>
<path d="M130.978 8.69194L130.478 7.19194C166.478 -3.80811 198.978 0.191769 234.478 9.19194L231.478 12.6919C191.478 0.191895 165.478 1.69189 130.978 8.69194Z" fill="#EFC7D3" stroke="black" stroke-width="0.5"/>
<path d="M130.978 8.692C182.478 -2.80802 210.978 7.19202 231.478 12.692" stroke="black" stroke-width="0.5"/>
<path d="M170.479 29.6919L173.979 7.69189C207.479 8.69189 218.979 14.1919 223.479 15.6919L225.962 27.6919C198.972 27.6925 181.477 29.192 170.479 29.6919Z" fill="#EFC7D3"/>
<path d="M226.479 30.1919L223.479 15.6919C218.979 14.1919 207.479 8.69189 173.979 7.69189L170.479 29.6919C181.479 29.1919 198.979 27.6919 225.979 27.6919" stroke="black" stroke-width="0.5"/>
<path d="M164.979 7.69189C131.979 8.69189 111.979 17.6919 92.9795 35.1919L95.4795 33.1919L159.479 30.1919L164.979 7.69189Z" fill="#EFC7D3" stroke="black" stroke-width="0.5"/>
<path d="M239.478 22.1919C235.811 19.5252 229.978 17.1919 223.478 15.6919L225.978 27.6919H232.478C235.478 26.1919 238.478 23.9606 239.478 22.1919Z" fill="#EFC7D3" stroke="black" stroke-width="0.5"/>
<path d="M96.4795 78.1919H163.479L197.979 76.6919H212.479L212.979 82.1919H198.979H97.9795H86.4795V78.1919H96.4795Z" fill="#EFC7D3"/>
<path d="M96.4795 78.1919H163.479L197.979 76.6919M96.4795 78.1919C96.4795 79.6919 96.9795 80.6919 97.9795 82.1919M96.4795 78.1919H86.4795V82.1919H97.9795M197.979 76.6919L198.979 82.1919M197.979 76.6919H212.479L212.979 82.1919H198.979M198.979 82.1919H97.9795" stroke="black" stroke-width="0.5"/>
<path d="M96.4786 78.1919C91.9795 73.6919 88.9795 51.6919 92.9786 35.1919L164.979 31.1919C160.979 36.1919 159.979 70.1919 163.479 78.1919H96.4786Z" fill="#EFC7D3" stroke="black" stroke-width="0.5"/>
<path d="M228.479 30.1919L164.979 31.1919C160.98 36.1919 159.98 70.1919 163.479 78.1919L197.979 76.6919C202.479 75.1919 208.979 69.6919 228.479 30.1919Z" fill="#EFC7D3" stroke="black" stroke-width="0.5"/>
<path d="M170.479 29.692C165.979 30.192 162.479 30.192 159.479 30.192L164.979 7.69197C167.979 7.19189 170.979 7.19189 173.979 7.69197L170.479 29.692Z" fill="#EFC7D3" stroke="black" stroke-width="0.5"/>
<path d="M98.9795 31.6922C103.479 37.1922 110.479 33.6922 114.479 32.1922C115.479 16.692 102.479 24.692 98.9795 31.6922Z" fill="#EFC7D3" stroke="black" stroke-width="0.5"/>
<path d="M234.478 9.19189L231.478 12.6919C248.478 18.1919 258.978 21.1919 271.478 27.6919H272.978L280.978 26.1919C265.978 19.6919 258.478 17.1919 234.478 9.19189Z" fill="#EFC7D3" stroke="black" stroke-width="0.5"/>
<path d="M271.478 27.6919C260.978 22.1919 241.978 15.6919 231.478 12.6919L229.478 15.1919L244.478 22.6919C242.978 25.1919 238.978 27.1919 232.978 29.8919C244.978 29.1919 261.978 28.1919 271.478 27.6919Z" fill="#EFC7D3" stroke="black" stroke-width="0.5"/>
<path d="M276.979 33.9919L282.978 31.6919L272.479 27.6919L228.479 30.1919C220.979 45.1919 205.979 75.6919 197.979 76.6919H212.479C210.979 65.6919 220.479 42.1919 245.479 51.1919C255.979 45.6919 265.979 40.1919 276.979 33.9919Z" fill="#EFC7D3" stroke="black" stroke-width="0.5"/>
<path d="M277.978 33.6919C265.978 40.1919 255.978 45.6919 245.478 51.1919C249.978 54.1919 260.478 60.1919 259.478 79.1919L284.478 78.6919V77.1919C292.978 76.1919 301.478 79.6919 299.978 65.6919L301.978 55.6919C301.978 54.1919 299.478 50.1919 296.978 49.6919C298.478 47.1919 295.478 38.1919 295.478 38.1919V36.6919L291.478 33.6919L286.478 32.1919L282.978 31.6919L277.978 33.6919Z" fill="#EFC7D3" stroke="black" stroke-width="0.5"/>
<path d="M280.978 26.1919L272.478 27.6919L282.978 31.6919C292.478 32.6919 291.476 34.1919 295.472 36.6121L294.978 28.1919L280.978 26.1919Z" fill="#EFC7D3"/>
<path d="M295.478 36.6919L295.472 36.6121M295.472 36.6121L294.978 28.1919L280.978 26.1919L272.478 27.6919L282.978 31.6919C292.478 32.6919 291.476 34.1919 295.472 36.6121Z" stroke="black" stroke-width="0.5"/>
<path d="M293.979 36.1921C293.479 33.692 282.479 33.4919 276.979 33.9919" stroke="black" stroke-width="0.5"/>
<path d="M299.979 66.1919L260.479 68.1919C259.979 63.1919 257.813 59.0252 255.979 57.1919L301.979 54.6919M300.479 52.1919C289.479 50.6919 278.479 45.8919 266.479 39.8919M228.479 30.1919L272.479 27.6919L280.979 26.1919" stroke="black" stroke-width="0.5"/>
<path d="M290.479 40.1919C290.479 38.1919 289.479 34.1919 285.979 32.1919C288.2 32.1919 291.577 33.2323 294.088 35.6019C294.552 37.1319 293.479 40.6919 290.438 42.1919C290.424 41.6016 290.479 40.9162 290.479 40.1919Z" fill="#EFC7D3"/>
<path d="M272.479 42.6919C279.475 43.0417 285.492 43.1468 290.873 43.6919M297.479 44.6919C295.376 44.2413 293.183 43.926 290.873 43.6919M295.479 37.1919C295.062 36.6068 294.592 36.0775 294.088 35.6019M290.873 43.6919C290.546 43.3471 290.452 42.8241 290.438 42.1919M290.438 42.1919C290.424 41.6016 290.479 40.9162 290.479 40.1919C290.479 38.1919 289.479 34.1919 285.979 32.1919C288.2 32.1919 291.577 33.2323 294.088 35.6019M290.438 42.1919C293.479 40.6919 294.552 37.1319 294.088 35.6019" stroke="black" stroke-width="0.5"/>
<path d="M290.479 40.1919C285.979 40.1919 283.979 36.1919 282.979 33.6919" stroke="black" stroke-width="0.5"/>
<path d="M132.478 12.2919C118.978 16.2919 106.978 22.1919 92.978 35.1919C99.978 23.1919 115.478 13.6919 130.978 8.69189L132.478 12.2919Z" fill="#E0426F" stroke="black" stroke-width="0.5"/>
<path d="M130.978 8.69189C110.978 14.3659 92.978 31.6919 84.978 29.6919C97.978 20.1919 113.978 11.6919 130.478 7.19189L130.978 8.69189Z" fill="#E0426F" stroke="black" stroke-width="0.5"/>
<path d="M9.97869 47.6918H3.97869C1.47803 51.6918 1.47803 61.6918 1.97869 65.1918C0.478027 66.1918 0.478625 70.6918 1.47869 72.1918L5.47869 72.6918V74.1918L1.47869 76.1918V78.1918C5.47869 79.1918 13.9787 81.1918 21.9787 80.6918V79.1918H39.4787C38.812 70.6918 40.4787 60.1918 49.4787 53.1918C46.9787 49.1918 39.9787 44.6918 36.9787 44.1918C26.9787 43.1918 11.9787 45.6918 9.97869 47.6918Z" fill="#E0426F" stroke="black" stroke-width="0.5"/>
<path d="M92.9795 35.1919C75.1462 36.0252 43.4795 40.8919 32.9795 43.8919L36.9795 44.1919C41.9795 45.6919 47.4795 50.0252 49.4795 53.1919C62.4785 43.6919 87.9785 50.6919 86.4785 78.1919H96.4785C89.4785 67.1919 90.4785 45.1919 92.9795 35.1919Z" fill="#E0426F" stroke="black" stroke-width="0.5"/>
<path d="M9.97754 47.6919H3.97754C36.4777 28.1918 58.4778 34.1919 84.4775 29.6919L93.4778 35.1919C76.4778 36.1919 47.4775 39.6919 33.4775 43.8919C25.4775 43.6919 11.4775 45.6919 9.97754 47.6919Z" fill="#E0426F" stroke="black" stroke-width="0.5"/>
<path d="M36.9795 44.192C29.4795 43.1919 12.4795 45.1919 9.97948 47.692C9.17948 50.0919 12.3128 53.0252 13.9795 54.1919C23.4795 55.6919 36.9795 49.6919 36.9795 44.192Z" fill="#E0426F" stroke="black" stroke-width="0.5"/>
<path d="M3.97872 47.6919C10.9787 48.6919 4.97872 59.1919 1.97872 64.1919C1.47865 57.1919 1.97852 51.6919 3.97872 47.6919Z" fill="#E0426F" stroke="black" stroke-width="0.5"/>
<path d="M21.978 83.6919V79.1919H39.478L39.978 83.6919H21.978Z" fill="#E0426F" stroke="black" stroke-width="0.5"/>
<path d="M2.47949 65.1919C3.97949 67.6919 5.97949 70.8586 5.47949 72.6919M21.9795 79.1919C11.4795 79.6919 6.97949 75.6919 7.97949 72.1919C8.47949 71.6919 9.97949 70.1919 10.9795 70.1919" stroke="black" stroke-width="0.5"/>
<path d="M31.9795 74.192C29.4795 70.192 23.9795 65.1921 20.9795 63.6921C19.2294 63.1921 16.6044 63.3171 13.8543 63.6921C12.2294 65.0254 10.9795 68.192 11.4795 71.192C11.4795 72.3587 12.7869 74.692 15.4795 74.692C19.9795 74.692 26.9795 75.192 31.9795 74.192Z" fill="#E0426F"/>
<path d="M5.97949 65.1921C8.22943 64.6921 11.1043 64.0671 13.8543 63.6921M13.8543 63.6921C16.6044 63.3171 19.2294 63.1921 20.9795 63.6921C23.9795 65.1921 29.4795 70.192 31.9795 74.192C26.9795 75.192 19.9795 74.692 15.4795 74.692C12.7869 74.692 11.4795 72.3587 11.4795 71.192C10.9795 68.192 12.2293 65.0254 13.8543 63.6921Z" stroke="black" stroke-width="0.5"/>
<path d="M11.4795 70.6921C19.4795 69.1921 22.9795 71.8206 25.9795 73.3206M12.9795 73.6921L30.4795 73.1921" stroke="black" stroke-width="0.5"/>
<path d="M21.9775 82.1919H31.4775C33.4775 82.1919 34.9775 80.1919 34.4775 79.1919M37.9775 79.1919V83.6919" stroke="black" stroke-width="0.5"/>
<path d="M21.9794 80.6921C17.4794 80.6921 12.9794 81.1921 1.47944 78.1921V76.1921L5.47944 74.1921V72.6921L1.47944 72.1921C0.978516 70.6919 -0.0212885 67.6919 1.97871 65.1919C1.47895 57.1919 1.97895 50.6919 3.97944 47.6916C36.4794 28.192 58.4794 34.1921 84.4794 29.6921C162.479 -25.308 244.479 11.6919 281.479 26.1921L294.979 28.1919L295.479 35.1919V38.1919C296.978 43.1919 298.313 47.6919 296.979 49.6919C299.479 50.6919 301.979 53.8586 301.979 55.6919L299.979 65.6919C300.431 76.5398 298.023 76.7641 288.692 77.0765C287.701 77.1097 285.632 77.1439 284.479 77.1919V78.6919L259.479 79.1229M21.9794 80.6921V83.6921H39.9778L39.4794 79.1921M21.9794 80.6921V79.1921H39.4794M39.4794 79.1921C36.4794 37.6921 89.9794 40.6921 86.4794 79.6921V82.1919H212.979C206.979 38.6919 261.479 38.6919 259.479 79.1229M258.978 79.1229H259.479" stroke="black"/>
</svg>
