<svg width="304" height="96" viewBox="0 0 304 96" fill="none" xmlns="http://www.w3.org/2000/svg">
<circle cx="63.0518" cy="74.3535" r="20.5" fill="#EDADBF" stroke="black"/>
<circle cx="236.052" cy="74.3535" r="20.5" fill="#EDADBF" stroke="black"/>
<path d="M133.05 12.8534L131.55 9.35337C171.55 1.35348 193.05 1.85352 232.05 13.3535L228.55 17.8535C208.55 9.85343 190.55 8.85342 174.55 8.35349C172.05 7.85349 168.05 7.85345 165.55 8.35337C155.55 8.35349 143.55 9.85349 133.05 12.8534Z" fill="#EFC7D3" stroke="black" stroke-width="0.5"/>
<path d="M131.55 9.35356L131.05 7.85356C167.05 -3.14648 199.55 0.85339 235.05 9.85356L232.05 13.3536C192.05 0.853516 166.05 2.35352 131.55 9.35356Z" fill="#EFC7D3" stroke="black" stroke-width="0.5"/>
<path d="M131.55 9.3535C183.05 -2.14652 211.55 7.85352 232.05 13.3535" stroke="black" stroke-width="0.5"/>
<path d="M171.052 30.3535L174.552 8.35352C208.052 9.35352 219.552 14.8535 224.052 16.3535L226.535 28.3535C199.544 28.3542 182.049 29.8536 171.052 30.3535Z" fill="#EFC7D3"/>
<path d="M227.052 30.8535L224.052 16.3535C219.552 14.8535 208.052 9.35352 174.552 8.35352L171.052 30.3535C182.052 29.8535 199.552 28.3535 226.552 28.3535" stroke="black" stroke-width="0.5"/>
<path d="M165.552 8.35352C132.552 9.35352 112.552 18.3535 93.5518 35.8535L96.0518 33.8535L160.052 30.8535L165.552 8.35352Z" fill="#EFC7D3" stroke="black" stroke-width="0.5"/>
<path d="M240.05 22.8535C236.383 20.1868 230.55 17.8535 224.05 16.3535L226.55 28.3535H233.05C236.05 26.8535 239.05 24.6223 240.05 22.8535Z" fill="#EFC7D3" stroke="black" stroke-width="0.5"/>
<path d="M97.0518 78.8535H164.052L198.552 77.3535H213.052L213.552 82.8535H199.552H98.5518H87.0518V78.8535H97.0518Z" fill="#EFC7D3"/>
<path d="M97.0518 78.8535H164.052L198.552 77.3535M97.0518 78.8535C97.0518 80.3535 97.5518 81.3535 98.5518 82.8535M97.0518 78.8535H87.0518V82.8535H98.5518M198.552 77.3535L199.552 82.8535M198.552 77.3535H213.052L213.552 82.8535H199.552M199.552 82.8535H98.5518" stroke="black" stroke-width="0.5"/>
<path d="M97.0509 78.8535C92.5518 74.3535 89.5518 52.3535 93.5509 35.8535L165.552 31.8535C161.552 36.8535 160.552 70.8535 164.052 78.8535H97.0509Z" fill="#EFC7D3" stroke="black" stroke-width="0.5"/>
<path d="M229.052 30.8535L165.552 31.8535C161.552 36.8535 160.552 70.8535 164.052 78.8535L198.552 77.3535C203.052 75.8535 209.552 70.3535 229.052 30.8535Z" fill="#EFC7D3" stroke="black" stroke-width="0.5"/>
<path d="M171.052 30.3536C166.552 30.8536 163.052 30.8536 160.052 30.8536L165.552 8.35359C168.552 7.85352 171.552 7.85352 174.552 8.35359L171.052 30.3536Z" fill="#EFC7D3" stroke="black" stroke-width="0.5"/>
<path d="M99.5518 32.3537C104.052 37.8537 111.052 34.3537 115.052 32.8537C116.052 17.3535 103.052 25.3535 99.5518 32.3537Z" fill="#EFC7D3" stroke="black" stroke-width="0.5"/>
<path d="M235.05 9.85352L232.05 13.3535C249.05 18.8535 259.55 21.8535 272.05 28.3535H273.55L281.55 26.8535C266.55 20.3535 259.05 17.8535 235.05 9.85352Z" fill="#E0426F" stroke="black" stroke-width="0.5"/>
<path d="M272.05 28.3535C261.55 22.8535 242.55 16.3535 232.05 13.3535L230.05 15.8535L245.05 23.3535C243.55 25.8535 239.55 27.8535 233.55 30.5535C245.55 29.8535 262.55 28.8535 272.05 28.3535Z" fill="#E0426F" stroke="black" stroke-width="0.5"/>
<path d="M277.552 34.6535L283.55 32.3535L273.051 28.3535L229.051 30.8535C221.551 45.8535 206.551 76.3535 198.551 77.3535H213.051C211.551 66.3535 221.051 42.8535 246.052 51.8535C256.552 46.3535 266.552 40.8535 277.552 34.6535Z" fill="#E0426F" stroke="black" stroke-width="0.5"/>
<path d="M278.55 34.3535C266.55 40.8535 256.55 46.3535 246.05 51.8535C250.55 54.8535 261.05 60.8535 260.05 79.8535L285.05 79.3535V77.8535C293.55 76.8535 302.05 80.3535 300.55 66.3535L302.55 56.3535C302.55 54.8535 300.05 50.8535 297.55 50.3535C299.05 47.8535 296.05 38.8535 296.05 38.8535V37.3535L292.05 34.3535L287.05 32.8535L283.55 32.3535L278.55 34.3535Z" fill="#E0426F" stroke="black" stroke-width="0.5"/>
<path d="M281.55 26.8535L273.05 28.3535L283.55 32.3535C293.05 33.3535 292.049 34.8535 296.044 37.2737L295.55 28.8535L281.55 26.8535Z" fill="#E0426F"/>
<path d="M296.05 37.3535L296.044 37.2737M296.044 37.2737L295.55 28.8535L281.55 26.8535L273.05 28.3535L283.55 32.3535C293.05 33.3535 292.049 34.8535 296.044 37.2737Z" stroke="black" stroke-width="0.5"/>
<path d="M294.552 36.8537C294.052 34.3536 283.052 34.1535 277.552 34.6535" stroke="black" stroke-width="0.5"/>
<path d="M300.552 66.8535L261.052 68.8535C260.552 63.8535 258.385 59.6868 256.552 57.8535L302.552 55.3535M301.052 52.8535C290.052 51.3535 279.052 46.5535 267.052 40.5535M229.052 30.8535L273.052 28.3535L281.552 26.8535" stroke="black" stroke-width="0.5"/>
<path d="M291.052 40.8535C291.052 38.8535 290.052 34.8535 286.552 32.8535C288.773 32.8535 292.149 33.8939 294.661 36.2635C295.124 37.7935 294.052 41.3535 291.01 42.8535C290.996 42.2632 291.052 41.5778 291.052 40.8535Z" fill="#E0426F"/>
<path d="M273.052 43.3535C280.047 43.7033 286.064 43.8084 291.445 44.3535M298.052 45.3535C295.949 44.9029 293.756 44.5876 291.445 44.3535M296.052 37.8535C295.634 37.2684 295.165 36.7392 294.661 36.2635M291.445 44.3535C291.119 44.0088 291.025 43.4857 291.01 42.8535M291.01 42.8535C290.996 42.2632 291.052 41.5778 291.052 40.8535C291.052 38.8535 290.052 34.8535 286.552 32.8535C288.773 32.8535 292.149 33.8939 294.661 36.2635M291.01 42.8535C294.052 41.3535 295.124 37.7935 294.661 36.2635" stroke="black" stroke-width="0.5"/>
<path d="M291.052 40.8535C286.552 40.8535 284.552 36.8535 283.552 34.3535" stroke="black" stroke-width="0.5"/>
<path d="M133.05 12.9535C119.55 16.9535 107.55 22.8535 93.5498 35.8535C100.55 23.8535 116.05 14.3535 131.55 9.35352L133.05 12.9535Z" fill="#EDADBF" stroke="black" stroke-width="0.5"/>
<path d="M131.55 9.35352C111.55 15.0276 93.5498 32.3535 85.5498 30.3535C98.5498 20.8535 114.55 12.3535 131.05 7.85352L131.55 9.35352Z" fill="#EDADBF" stroke="black" stroke-width="0.5"/>
<path d="M10.5505 48.3535H4.55047C2.0498 52.3535 2.0498 62.3535 2.55047 65.8535C1.0498 66.8535 1.0504 71.3535 2.05047 72.8535L6.05047 73.3535V74.8535L2.05047 76.8535V78.8535C6.05047 79.8535 14.5505 81.8535 22.5505 81.3535V79.8535H40.0505C39.3838 71.3535 41.0505 60.8535 50.0505 53.8535C47.5505 49.8535 40.5505 45.3535 37.5505 44.8535C27.5505 43.8535 12.5505 46.3535 10.5505 48.3535Z" fill="#EDADBF" stroke="black" stroke-width="0.5"/>
<path d="M93.5518 35.8535C75.7184 36.6868 44.0518 41.5535 33.5518 44.5535L37.5518 44.8535C42.5518 46.3535 48.0518 50.6868 50.0518 53.8535C63.0508 44.3535 88.5508 51.3535 87.0508 78.8535H97.0508C90.0508 67.8535 91.0508 45.8535 93.5518 35.8535Z" fill="#EDADBF" stroke="black" stroke-width="0.5"/>
<path d="M10.5498 48.3536H4.5498C37.05 28.8535 59.05 34.8535 85.0498 30.3535L94.05 35.8535C77.05 36.8535 48.0498 40.3535 34.0498 44.5535C26.0498 44.3535 12.0498 46.3535 10.5498 48.3536Z" fill="#EDADBF" stroke="black" stroke-width="0.5"/>
<path d="M37.5513 44.8536C30.0513 43.8535 13.0513 45.8535 10.5513 48.3536C9.75126 50.7535 12.8846 53.6868 14.5513 54.8535C24.0513 56.3535 37.5513 50.3535 37.5513 44.8536Z" fill="#EDADBF" stroke="black" stroke-width="0.5"/>
<path d="M4.5505 48.3535C11.5505 49.3535 5.5505 59.8535 2.5505 64.8535C2.05043 57.8535 2.55029 52.3535 4.5505 48.3535Z" fill="#EDADBF" stroke="black" stroke-width="0.5"/>
<path d="M22.5498 84.3535V79.8535H40.0498L40.5498 84.3535H22.5498Z" fill="#EDADBF" stroke="black" stroke-width="0.5"/>
<path d="M3.05176 65.8535C4.55176 68.3535 6.55176 71.5202 6.05176 73.3535M22.5518 79.8535C12.0518 80.3535 7.55176 76.3535 8.55176 72.8535C9.05176 72.3535 10.5518 70.8535 11.5518 70.8535" stroke="black" stroke-width="0.5"/>
<path d="M32.5518 74.8535C30.0518 70.8535 24.5518 65.8536 21.5518 64.3536C19.8017 63.8536 17.1766 63.9786 14.4265 64.3536C12.8016 65.6869 11.5518 68.8535 12.0518 71.8535C12.0518 73.0202 13.3592 75.3535 16.0518 75.3535C20.5518 75.3535 27.5518 75.8535 32.5518 74.8535Z" fill="#EDADBF"/>
<path d="M6.55176 65.8536C8.8017 65.3536 11.6766 64.7286 14.4265 64.3536M14.4265 64.3536C17.1766 63.9786 19.8017 63.8536 21.5518 64.3536C24.5518 65.8536 30.0518 70.8535 32.5518 74.8535C27.5518 75.8535 20.5518 75.3535 16.0518 75.3535C13.3592 75.3535 12.0518 73.0202 12.0518 71.8535C11.5518 68.8535 12.8016 65.6869 14.4265 64.3536Z" stroke="black" stroke-width="0.5"/>
<path d="M12.0518 71.3536C20.0518 69.8536 23.5518 72.4821 26.5518 73.9821M13.5518 74.3536L31.0518 73.8536" stroke="black" stroke-width="0.5"/>
<path d="M22.5498 82.8535H32.0498C34.0498 82.8535 35.5498 80.8535 35.0498 79.8535M38.5498 79.8535V84.3535" stroke="black" stroke-width="0.5"/>
<path d="M22.5517 81.3538C18.0517 81.3538 13.5517 81.8538 2.0517 78.8538V76.8538L6.0517 74.8538V73.3538L2.0517 72.8538C1.55078 71.3535 0.550977 68.3535 2.55097 65.8535C2.05122 57.8535 2.55122 51.3535 4.5517 48.3533C37.0517 28.8537 59.0517 34.8537 85.0517 30.3537C163.052 -24.6464 245.052 12.3535 282.052 26.8537L295.552 28.8535L296.052 35.8535V38.8535C297.55 43.8535 298.885 48.3535 297.552 50.3535C300.052 51.3535 302.552 54.5202 302.552 56.3535L300.552 66.3535C301.004 77.2014 298.596 77.4257 289.264 77.7382C288.273 77.7713 286.204 77.8055 285.052 77.8535V79.3535L260.052 79.7846M22.5517 81.3538V84.3538H40.55L40.0517 79.8538M22.5517 81.3538V79.8538H40.0517M40.0517 79.8538C37.0517 38.3538 90.5517 41.3538 87.0517 80.3538V82.8535H213.552C207.552 39.3535 262.052 39.3535 260.052 79.7846M259.55 79.7846H260.052" stroke="black"/>
</svg>
