<svg width="303" height="96" viewBox="0 0 303 96" fill="none" xmlns="http://www.w3.org/2000/svg">
<circle cx="62.667" cy="74.1843" r="20.5" stroke="black"/>
<circle cx="235.667" cy="74.1843" r="20.5" stroke="black"/>
<path d="M132.665 12.6842L131.165 9.18418C171.165 1.18429 192.665 1.68433 231.665 13.1843L228.165 17.6843C208.165 9.68424 190.165 8.68423 174.165 8.1843C171.665 7.6843 167.665 7.68427 165.165 8.18418C155.165 8.1843 143.165 9.6843 132.665 12.6842Z" fill="#EFC7D3" stroke="black" stroke-width="0.5"/>
<path d="M131.165 9.18437L130.665 7.68437C166.665 -3.31567 199.165 0.6842 234.665 9.68437L231.665 13.1844C191.665 0.684326 165.665 2.18433 131.165 9.18437Z" fill="#EFC7D3" stroke="black" stroke-width="0.5"/>
<path d="M131.165 9.18431C182.665 -2.31571 211.165 7.68433 231.665 13.1843" stroke="black" stroke-width="0.5"/>
<path d="M170.667 30.1843L174.167 8.18433C207.667 9.18433 219.167 14.6843 223.667 16.1843L226.15 28.1843C199.16 28.185 181.665 29.6844 170.667 30.1843Z" fill="#EFC7D3"/>
<path d="M226.667 30.6843L223.667 16.1843C219.167 14.6843 207.667 9.18433 174.167 8.18433L170.667 30.1843C181.667 29.6843 199.167 28.1843 226.167 28.1843" stroke="black" stroke-width="0.5"/>
<path d="M165.167 8.18433C132.167 9.18433 112.167 18.1843 93.167 35.6843L95.667 33.6843L159.667 30.6843L165.167 8.18433Z" fill="#EFC7D3" stroke="black" stroke-width="0.5"/>
<path d="M239.665 22.6843C235.998 20.0177 230.165 17.6843 223.665 16.1843L226.165 28.1843H232.665C235.665 26.6843 238.665 24.4531 239.665 22.6843Z" fill="#EFC7D3" stroke="black" stroke-width="0.5"/>
<path d="M96.667 78.6843H163.667L198.167 77.1843H212.667L213.167 82.6843H199.167H98.167H86.667V78.6843H96.667Z" fill="#EFC7D3"/>
<path d="M96.667 78.6843H163.667L198.167 77.1843M96.667 78.6843C96.667 80.1843 97.167 81.1843 98.167 82.6843M96.667 78.6843H86.667V82.6843H98.167M198.167 77.1843L199.167 82.6843M198.167 77.1843H212.667L213.167 82.6843H199.167M199.167 82.6843H98.167" stroke="black" stroke-width="0.5"/>
<path d="M96.6661 78.6843C92.167 74.1843 89.167 52.1843 93.1661 35.6843L165.167 31.6843C161.167 36.6843 160.167 70.6843 163.667 78.6843H96.6661Z" fill="#EFC7D3" stroke="black" stroke-width="0.5"/>
<path d="M228.667 30.6843L165.167 31.6843C161.167 36.6843 160.167 70.6843 163.667 78.6843L198.167 77.1843C202.667 75.6843 209.167 70.1843 228.667 30.6843Z" fill="#EFC7D3" stroke="black" stroke-width="0.5"/>
<path d="M170.667 30.1844C166.167 30.6844 162.667 30.6844 159.667 30.6844L165.167 8.1844C168.167 7.68433 171.167 7.68433 174.167 8.1844L170.667 30.1844Z" fill="#EFC7D3" stroke="black" stroke-width="0.5"/>
<path d="M99.167 32.1845C103.667 37.6845 110.667 34.1845 114.667 32.6845C115.667 17.1843 102.667 25.1843 99.167 32.1845Z" fill="#EFC7D3" stroke="black" stroke-width="0.5"/>
<path d="M234.665 9.68433L231.665 13.1843C248.665 18.6843 259.165 21.6843 271.665 28.1843H273.165L281.165 26.6843C266.165 20.1843 258.665 17.6843 234.665 9.68433Z" fill="#E56E90" stroke="black" stroke-width="0.5"/>
<path d="M271.665 28.1843C261.165 22.6843 242.165 16.1843 231.665 13.1843L229.665 15.6843L244.665 23.1843C243.165 25.6843 239.165 27.6843 233.165 30.3843C245.165 29.6843 262.165 28.6843 271.665 28.1843Z" fill="#E56E90" stroke="black" stroke-width="0.5"/>
<path d="M277.167 34.4843L283.165 32.1843L272.666 28.1843L228.666 30.6843C221.166 45.6843 206.166 76.1843 198.166 77.1843H212.666C211.166 66.1843 220.666 42.6843 245.667 51.6843C256.167 46.1843 266.167 40.6843 277.167 34.4843Z" fill="#E56E90" stroke="black" stroke-width="0.5"/>
<path d="M278.165 34.1844C266.165 40.6844 256.165 46.1844 245.665 51.6844C250.165 54.6843 260.665 60.6843 259.665 79.6843L284.665 79.1843V77.6843C293.165 76.6843 301.665 80.1843 300.165 66.1843L302.165 56.1843C302.165 54.6843 299.665 50.6843 297.165 50.1843C298.665 47.6843 295.665 38.6843 295.665 38.6843V37.1843L291.665 34.1843L286.665 32.6843L283.165 32.1843L278.165 34.1844Z" fill="#E56E90" stroke="black" stroke-width="0.5"/>
<path d="M281.165 26.6843L272.665 28.1843L283.165 32.1843C292.665 33.1843 291.664 34.6843 295.659 37.1045L295.165 28.6843L281.165 26.6843Z" fill="#E56E90"/>
<path d="M295.665 37.1843L295.659 37.1045M295.659 37.1045L295.165 28.6843L281.165 26.6843L272.665 28.1843L283.165 32.1843C292.665 33.1843 291.664 34.6843 295.659 37.1045Z" stroke="black" stroke-width="0.5"/>
<path d="M294.167 36.6845C293.667 34.1844 282.667 33.9843 277.167 34.4843" stroke="black" stroke-width="0.5"/>
<path d="M300.167 66.6843L260.667 68.6843C260.167 63.6843 258 59.5177 256.167 57.6843L302.167 55.1843M300.667 52.6843C289.667 51.1843 278.667 46.3843 266.667 40.3843M228.667 30.6843L272.667 28.1843L281.167 26.6843" stroke="black" stroke-width="0.5"/>
<path d="M290.667 40.6843C290.667 38.6843 289.667 34.6843 286.167 32.6843C288.388 32.6843 291.765 33.7247 294.276 36.0943C294.74 37.6243 293.667 41.1843 290.625 42.6843C290.612 42.094 290.667 41.4086 290.667 40.6843Z" fill="#E56E90"/>
<path d="M272.667 43.1843C279.663 43.5341 285.68 43.6392 291.06 44.1843M297.667 45.1843C295.564 44.7337 293.371 44.4184 291.06 44.1843M295.667 37.6843C295.249 37.0992 294.78 36.57 294.276 36.0943M291.06 44.1843C290.734 43.8396 290.64 43.3165 290.625 42.6843M290.625 42.6843C290.612 42.094 290.667 41.4086 290.667 40.6843C290.667 38.6843 289.667 34.6843 286.167 32.6843C288.388 32.6843 291.765 33.7247 294.276 36.0943M290.625 42.6843C293.667 41.1843 294.74 37.6243 294.276 36.0943" stroke="black" stroke-width="0.5"/>
<path d="M290.667 40.6843C286.167 40.6843 284.167 36.6843 283.167 34.1843" stroke="black" stroke-width="0.5"/>
<path d="M132.665 12.7843C119.165 16.7843 107.165 22.6843 93.165 35.6843C100.165 23.6843 115.665 14.1843 131.165 9.18433L132.665 12.7843Z" fill="#EFC7D3" stroke="black" stroke-width="0.5"/>
<path d="M131.165 9.18433C111.165 14.8584 93.165 32.1843 85.165 30.1843C98.165 20.6843 114.165 12.1843 130.665 7.68433L131.165 9.18433Z" fill="#EFC7D3" stroke="black" stroke-width="0.5"/>
<path d="M10.1657 48.1843H4.16571C1.66504 52.1843 1.66504 62.1843 2.16571 65.6843C0.665039 66.6843 0.665637 71.1843 1.66571 72.6843L5.66571 73.1843V74.6843L1.66571 76.6843V78.6843C5.66571 79.6843 14.1657 81.6843 22.1657 81.1843V79.6843H39.6657C38.999 71.1843 40.6657 60.6843 49.6657 53.6843C47.1657 49.6843 40.1657 45.1843 37.1657 44.6843C27.1657 43.6843 12.1657 46.1843 10.1657 48.1843Z" fill="#EFC7D3" stroke="black" stroke-width="0.5"/>
<path d="M93.167 35.6843C75.3337 36.5177 43.667 41.3843 33.167 44.3843L37.167 44.6843C42.167 46.1843 47.667 50.5177 49.667 53.6843C62.666 44.1843 88.166 51.1843 86.666 78.6843H96.666C89.666 67.6843 90.666 45.6843 93.167 35.6843Z" fill="#EFC7D3" stroke="black" stroke-width="0.5"/>
<path d="M10.165 48.1844H4.16504C36.6652 28.6843 58.6653 34.6843 84.665 30.1843L93.6653 35.6843C76.6653 36.6843 47.665 40.1843 33.665 44.3843C25.665 44.1843 11.665 46.1843 10.165 48.1844Z" fill="#EFC7D3" stroke="black" stroke-width="0.5"/>
<path d="M37.1665 44.6844C29.6665 43.6843 12.6665 45.6843 10.1665 48.1844C9.36649 50.5843 12.4998 53.5177 14.1665 54.6843C23.6665 56.1843 37.1665 50.1843 37.1665 44.6844Z" fill="#EFC7D3" stroke="black" stroke-width="0.5"/>
<path d="M4.16573 48.1843C11.1657 49.1843 5.16573 59.6843 2.16573 64.6843C1.66566 57.6843 2.16553 52.1843 4.16573 48.1843Z" fill="#EFC7D3" stroke="black" stroke-width="0.5"/>
<path d="M22.165 84.1843V79.6843H39.665L40.165 84.1843H22.165Z" fill="#EFC7D3" stroke="black" stroke-width="0.5"/>
<path d="M2.66699 65.6843C4.16699 68.1843 6.16699 71.351 5.66699 73.1843M22.167 79.6843C11.667 80.1843 7.16699 76.1843 8.16699 72.6843C8.66699 72.1843 10.167 70.6843 11.167 70.6843" stroke="black" stroke-width="0.5"/>
<path d="M32.167 74.6843C29.667 70.6843 24.167 65.6844 21.167 64.1844C19.4169 63.6844 16.7919 63.8094 14.0418 64.1844C12.4169 65.5177 11.167 68.6843 11.667 71.6843C11.667 72.851 12.9744 75.1843 15.667 75.1843C20.167 75.1843 27.167 75.6843 32.167 74.6843Z" fill="#EFC7D3"/>
<path d="M6.16699 65.6844C8.41693 65.1844 11.2918 64.5594 14.0418 64.1844M14.0418 64.1844C16.7919 63.8094 19.4169 63.6844 21.167 64.1844C24.167 65.6844 29.667 70.6843 32.167 74.6843C27.167 75.6843 20.167 75.1843 15.667 75.1843C12.9744 75.1843 11.667 72.851 11.667 71.6843C11.167 68.6843 12.4168 65.5177 14.0418 64.1844Z" stroke="black" stroke-width="0.5"/>
<path d="M11.667 71.1844C19.667 69.6844 23.167 72.3129 26.167 73.8129M13.167 74.1844L30.667 73.6844" stroke="black" stroke-width="0.5"/>
<path d="M22.165 82.6843H31.665C33.665 82.6843 35.165 80.6843 34.665 79.6843M38.165 79.6843V84.1843" stroke="black" stroke-width="0.5"/>
<path d="M22.1669 81.1846C17.6669 81.1846 13.1669 81.6846 1.66694 78.6846V76.6846L5.66694 74.6846V73.1846L1.66694 72.6846C1.16602 71.1843 0.166211 68.1843 2.16621 65.6843C1.66645 57.6843 2.16645 51.1843 4.16694 48.1841C36.6669 28.6845 58.6669 34.6845 84.6669 30.1845C162.667 -24.8156 244.667 12.1843 281.667 26.6845L295.167 28.6843L295.667 35.6843V38.6843C297.165 43.6843 298.5 48.1843 297.167 50.1843C299.667 51.1843 302.167 54.351 302.167 56.1843L300.167 66.1843C300.619 77.0322 298.211 77.2565 288.879 77.569C287.888 77.6021 285.819 77.6363 284.667 77.6843V79.1843L259.667 79.6154M22.1669 81.1846V84.1846H40.1653L39.6669 79.6846M22.1669 81.1846V79.6846H39.6669M39.6669 79.6846C36.6669 38.1846 90.1669 41.1846 86.6669 80.1846V82.6843H213.167C207.167 39.1843 261.667 39.1843 259.667 79.6154M259.165 79.6154H259.667" stroke="black"/>
</svg>
