<svg width="303" height="95" viewBox="0 0 303 95" fill="none" xmlns="http://www.w3.org/2000/svg">
<circle cx="62.2607" cy="73.6768" r="20.5" fill="#E56E90" stroke="black"/>
<circle cx="235.261" cy="73.6768" r="20.5" fill="#E56E90" stroke="black"/>
<path d="M132.259 12.1766L130.759 8.67661C170.759 0.676725 192.259 1.17676 231.259 12.6767L227.759 17.1767C207.759 9.17667 189.759 8.17667 173.759 7.67673C171.259 7.17673 167.259 7.1767 164.759 7.67661C154.759 7.67673 142.759 9.17674 132.259 12.1766Z" stroke="black" stroke-width="0.5"/>
<path d="M130.759 8.6768L130.259 7.1768C166.259 -3.82324 198.759 0.176632 234.259 9.1768L231.259 12.6768C191.259 0.176758 165.259 1.67676 130.759 8.6768Z" stroke="black" stroke-width="0.5"/>
<path d="M130.759 8.67675C182.259 -2.82328 210.759 7.17676 231.259 12.6767" stroke="black" stroke-width="0.5"/>
<path d="M226.261 30.1768L223.261 15.6768C218.761 14.1768 207.261 8.67676 173.761 7.67676L170.261 29.6768C181.261 29.1768 198.761 27.6768 225.761 27.6768" stroke="black" stroke-width="0.5"/>
<path d="M164.761 7.67676C131.761 8.67676 111.761 17.6768 92.7607 35.1768L95.2607 33.1768L159.261 30.1768L164.761 7.67676Z" stroke="black" stroke-width="0.5"/>
<path d="M239.259 22.1768C235.592 19.5101 229.759 17.1768 223.259 15.6768L225.759 27.6768H232.259C235.259 26.1768 238.259 23.9455 239.259 22.1768Z" stroke="black" stroke-width="0.5"/>
<path d="M96.2607 78.1768H163.261L197.761 76.6768M96.2607 78.1768C96.2607 79.6768 96.7607 80.6768 97.7607 82.1768M96.2607 78.1768H86.2607V82.1768H97.7607M197.761 76.6768L198.761 82.1768M197.761 76.6768H212.261L212.761 82.1768H198.761M198.761 82.1768H97.7607" stroke="black" stroke-width="0.5"/>
<path d="M96.2599 78.1768C91.7607 73.6768 88.7608 51.6768 92.7599 35.1768L164.761 31.1768C160.761 36.1768 159.761 70.1768 163.261 78.1768H96.2599Z" stroke="black" stroke-width="0.5"/>
<path d="M228.261 30.1768L164.761 31.1768C160.761 36.1768 159.761 70.1768 163.261 78.1768L197.761 76.6768C202.261 75.1768 208.761 69.6768 228.261 30.1768Z" stroke="black" stroke-width="0.5"/>
<path d="M170.261 29.6768C165.761 30.1768 162.261 30.1768 159.261 30.1768L164.761 7.67683C167.761 7.17676 170.761 7.17676 173.761 7.67683L170.261 29.6768Z" stroke="black" stroke-width="0.5"/>
<path d="M98.7607 31.6769C103.261 37.1769 110.261 33.6769 114.261 32.1769C115.261 16.6768 102.261 24.6768 98.7607 31.6769Z" stroke="black" stroke-width="0.5"/>
<path d="M234.259 9.17676L231.259 12.6768C248.259 18.1768 258.759 21.1768 271.259 27.6768H272.759L280.759 26.1768C265.759 19.6768 258.259 17.1768 234.259 9.17676Z" fill="#E56E90" stroke="black" stroke-width="0.5"/>
<path d="M271.259 27.6768C260.759 22.1768 241.759 15.6768 231.259 12.6768L229.259 15.1768L244.259 22.6768C242.759 25.1768 238.759 27.1768 232.759 29.8768C244.759 29.1768 261.759 28.1768 271.259 27.6768Z" fill="#E56E90" stroke="black" stroke-width="0.5"/>
<path d="M276.761 33.9768L282.759 31.6768L272.26 27.6768L228.26 30.1768C220.76 45.1768 205.76 75.6768 197.76 76.6768H212.26C210.76 65.6768 220.26 42.1768 245.261 51.1768C255.761 45.6768 265.761 40.1768 276.761 33.9768Z" fill="#E56E90" stroke="black" stroke-width="0.5"/>
<path d="M277.759 33.6768C265.759 40.1768 255.759 45.6768 245.259 51.1768C249.759 54.1768 260.259 60.1768 259.259 79.1768L284.259 78.6768V77.1768C292.759 76.1768 301.259 79.6768 299.759 65.6768L301.759 55.6768C301.759 54.1768 299.259 50.1768 296.759 49.6768C298.259 47.1768 295.259 38.1768 295.259 38.1768V36.6768L291.259 33.6768L286.259 32.1768L282.759 31.6768L277.759 33.6768Z" fill="#E56E90" stroke="black" stroke-width="0.5"/>
<path d="M280.759 26.1768L272.259 27.6768L282.759 31.6768C292.259 32.6768 291.258 34.1768 295.253 36.5969L294.759 28.1768L280.759 26.1768Z" fill="#E56E90"/>
<path d="M295.259 36.6768L295.253 36.5969M295.253 36.5969L294.759 28.1768L280.759 26.1768L272.259 27.6768L282.759 31.6768C292.259 32.6768 291.258 34.1768 295.253 36.5969Z" stroke="black" stroke-width="0.5"/>
<path d="M293.761 36.177C293.261 33.6768 282.261 33.4768 276.761 33.9768" stroke="black" stroke-width="0.5"/>
<path d="M299.761 66.1768L260.261 68.1768C259.761 63.1768 257.594 59.0101 255.761 57.1768L301.761 54.6768M300.261 52.1768C289.261 50.6768 278.261 45.8768 266.261 39.8768M228.261 30.1768L272.261 27.6768L280.761 26.1768" stroke="black" stroke-width="0.5"/>
<path d="M290.261 40.1768C290.261 38.1768 289.261 34.1768 285.761 32.1768C287.982 32.1768 291.358 33.2171 293.87 35.5867C294.333 37.1167 293.261 40.6768 290.219 42.1768C290.205 41.5865 290.261 40.901 290.261 40.1768Z" fill="#E56E90"/>
<path d="M272.261 42.6768C279.256 43.0265 285.273 43.1316 290.654 43.6768M297.261 44.6768C295.158 44.2261 292.964 43.9109 290.654 43.6768M295.261 37.1768C294.843 36.5916 294.374 36.0624 293.87 35.5867M290.654 43.6768C290.328 43.332 290.234 42.8089 290.219 42.1768M290.219 42.1768C290.205 41.5865 290.261 40.901 290.261 40.1768C290.261 38.1768 289.261 34.1768 285.761 32.1768C287.982 32.1768 291.358 33.2171 293.87 35.5867M290.219 42.1768C293.261 40.6768 294.333 37.1167 293.87 35.5867" stroke="black" stroke-width="0.5"/>
<path d="M290.261 40.1768C285.761 40.1768 283.761 36.1768 282.761 33.6768" stroke="black" stroke-width="0.5"/>
<path d="M132.259 12.2767C118.759 16.2767 106.759 22.1768 92.7588 35.1768C99.7588 23.1768 115.259 13.6768 130.759 8.67676L132.259 12.2767Z" fill="#E56E90" stroke="black" stroke-width="0.5"/>
<path d="M130.759 8.67676C110.759 14.3508 92.7588 31.6768 84.7588 29.6768C97.7588 20.1768 113.759 11.6768 130.259 7.17676L130.759 8.67676Z" fill="#E56E90" stroke="black" stroke-width="0.5"/>
<path d="M9.75946 47.6768H3.75946C1.25879 51.6768 1.25879 61.6768 1.75946 65.1768C0.258789 66.1768 0.259387 70.6768 1.25946 72.1768L5.25946 72.6768V74.1768L1.25946 76.1768V78.1768C5.25946 79.1768 13.7595 81.1768 21.7595 80.6768V79.1768H39.2595C38.5928 70.6768 40.2595 60.1768 49.2595 53.1768C46.7595 49.1768 39.7595 44.6768 36.7595 44.1768C26.7595 43.1768 11.7595 45.6768 9.75946 47.6768Z" fill="#E56E90" stroke="black" stroke-width="0.5"/>
<path d="M92.7607 35.1768C74.9274 36.0101 43.2607 40.8768 32.7607 43.8768L36.7607 44.1768C41.7607 45.6768 47.2607 50.0101 49.2607 53.1768C62.2598 43.6768 87.7598 50.6768 86.2598 78.1768H96.2598C89.2598 67.1768 90.2598 45.1768 92.7607 35.1768Z" fill="#E56E90" stroke="black" stroke-width="0.5"/>
<path d="M9.75879 47.6768H3.75879C36.259 28.1767 58.259 34.1768 84.2588 29.6768L93.259 35.1768C76.259 36.1768 47.2588 39.6768 33.2588 43.8768C25.2588 43.6767 11.2588 45.6768 9.75879 47.6768Z" fill="#E56E90" stroke="black" stroke-width="0.5"/>
<path d="M36.7602 44.1768C29.2602 43.1768 12.2602 45.1768 9.76024 47.6768C8.96024 50.0768 12.0936 53.0101 13.7602 54.1768C23.2603 55.6768 36.7602 49.6768 36.7602 44.1768Z" fill="#E56E90" stroke="black" stroke-width="0.5"/>
<path d="M3.75948 47.6768C10.7595 48.6768 4.75948 59.1768 1.75948 64.1768C1.25941 57.1768 1.75928 51.6768 3.75948 47.6768Z" fill="#E56E90" stroke="black" stroke-width="0.5"/>
<path d="M21.7588 83.6768V79.1768H39.2588L39.7588 83.6768H21.7588Z" fill="#E56E90" stroke="black" stroke-width="0.5"/>
<path d="M2.26074 65.1768C3.76074 67.6768 5.76074 70.8434 5.26074 72.6768M21.7607 79.1768C11.2607 79.6768 6.76074 75.6768 7.76074 72.1768C8.26074 71.6768 9.76074 70.1768 10.7607 70.1768" stroke="black" stroke-width="0.5"/>
<path d="M31.7607 74.1768C29.2607 70.1768 23.7607 65.1768 20.7607 63.6768C19.0107 63.1768 16.3856 63.3018 13.6355 63.6768C12.0106 65.0101 10.7607 68.1768 11.2607 71.1768C11.2607 72.3434 12.5682 74.6768 15.2607 74.6768C19.7607 74.6768 26.7607 75.1768 31.7607 74.1768Z" fill="#E56E90"/>
<path d="M5.76074 65.1768C8.01068 64.6768 10.8856 64.0518 13.6355 63.6768M13.6355 63.6768C16.3856 63.3018 19.0107 63.1768 20.7607 63.6768C23.7607 65.1768 29.2607 70.1768 31.7607 74.1768C26.7607 75.1768 19.7607 74.6768 15.2607 74.6768C12.5682 74.6768 11.2607 72.3434 11.2607 71.1768C10.7607 68.1768 12.0106 65.0101 13.6355 63.6768Z" stroke="black" stroke-width="0.5"/>
<path d="M11.2607 70.6768C19.2607 69.1769 22.7607 71.8054 25.7607 73.3054M12.7607 73.6769L30.2607 73.1769" stroke="black" stroke-width="0.5"/>
<path d="M21.7588 82.1768H31.2588C33.2588 82.1768 34.7588 80.1768 34.2588 79.1768M37.7588 79.1768V83.6768" stroke="black" stroke-width="0.5"/>
<path d="M21.7607 80.677C17.2607 80.677 12.7607 81.177 1.26069 78.177V76.177L5.26069 74.177V72.677L1.26069 72.177C0.759766 70.6768 -0.240039 67.6768 1.75996 65.1768C1.2602 57.1768 1.7602 50.6768 3.76069 47.6765C36.2607 28.1769 58.2607 34.1769 84.2607 29.6769C162.261 -25.3232 244.261 11.6767 281.261 26.1769L294.761 28.1768L295.261 35.1768V38.1768C296.759 43.1768 298.094 47.6768 296.761 49.6768C299.261 50.6768 301.761 53.8434 301.761 55.6768L299.761 65.6768C300.213 76.5247 297.805 76.7489 288.473 77.0614C287.482 77.0946 285.413 77.1288 284.261 77.1768V78.6768L259.261 79.1078M21.7607 80.677V83.677H39.759L39.2607 79.177M21.7607 80.677V79.177H39.2607M39.2607 79.177C36.2607 37.677 89.7607 40.677 86.2607 79.677V82.1768H212.761C206.761 38.6768 261.261 38.6768 259.261 79.1078M258.759 79.1078H259.261" stroke="black"/>
</svg>
