<svg width="303" height="95" viewBox="0 0 303 95" fill="none" xmlns="http://www.w3.org/2000/svg">
<circle cx="62.876" cy="73.7222" r="20.5" fill="#EFC7D3" stroke="black"/>
<circle cx="235.876" cy="73.7222" r="20.5" fill="#EFC7D3" stroke="black"/>
<path d="M132.874 12.222L131.374 8.72202C171.374 0.722136 192.874 1.22217 231.874 12.7221L228.374 17.2221C208.374 9.22208 190.374 8.22208 174.374 7.72215C171.874 7.22215 167.874 7.22211 165.374 7.72202C155.374 7.72215 143.374 9.22215 132.874 12.222Z" fill="#E0426F" stroke="black" stroke-width="0.5"/>
<path d="M131.374 8.72221L130.874 7.22221C166.874 -3.77783 199.374 0.222042 234.874 9.22221L231.874 12.7222C191.874 0.222168 165.874 1.72217 131.374 8.72221Z" fill="#E0426F" stroke="black" stroke-width="0.5"/>
<path d="M131.374 8.72228C182.874 -2.77775 211.374 7.22229 231.874 12.7223" stroke="black" stroke-width="0.5"/>
<path d="M170.876 29.7222L174.376 7.72217C207.876 8.72217 219.376 14.2222 223.876 15.7222L226.359 27.7222C199.369 27.7228 181.874 29.2223 170.876 29.7222Z" fill="#E0426F"/>
<path d="M226.876 30.2222L223.876 15.7222C219.376 14.2222 207.876 8.72217 174.376 7.72217L170.876 29.7222C181.876 29.2222 199.376 27.7222 226.376 27.7222" stroke="black" stroke-width="0.5"/>
<path d="M165.376 7.72217C132.376 8.72217 112.376 17.7222 93.376 35.2222L95.876 33.2222L159.876 30.2222L165.376 7.72217Z" fill="#E0426F" stroke="black" stroke-width="0.5"/>
<path d="M239.874 22.2222C236.207 19.5555 230.374 17.2222 223.874 15.7222L226.374 27.7222H232.874C235.874 26.2222 238.874 23.9909 239.874 22.2222Z" fill="#E0426F" stroke="black" stroke-width="0.5"/>
<path d="M96.876 78.2222H163.876L198.376 76.7222H212.876L213.376 82.2222H199.376H98.376H86.876V78.2222H96.876Z" fill="#E0426F"/>
<path d="M96.876 78.2222H163.876L198.376 76.7222M96.876 78.2222C96.876 79.7222 97.376 80.7222 98.376 82.2222M96.876 78.2222H86.876V82.2222H98.376M198.376 76.7222L199.376 82.2222M198.376 76.7222H212.876L213.376 82.2222H199.376M199.376 82.2222H98.376" stroke="black" stroke-width="0.5"/>
<path d="M96.8751 78.2222C92.376 73.7222 89.376 51.7222 93.3751 35.2222L165.376 31.2222C161.376 36.2222 160.376 70.2222 163.876 78.2222H96.8751Z" fill="#E0426F" stroke="black" stroke-width="0.5"/>
<path d="M228.876 30.2222L165.376 31.2222C161.376 36.2222 160.376 70.2222 163.876 78.2222L198.376 76.7222C202.876 75.2222 209.376 69.7222 228.876 30.2222Z" fill="#E0426F" stroke="black" stroke-width="0.5"/>
<path d="M170.876 29.7222C166.376 30.2222 162.876 30.2222 159.876 30.2222L165.376 7.72224C168.376 7.22217 171.376 7.22217 174.376 7.72224L170.876 29.7222Z" fill="#E0426F" stroke="black" stroke-width="0.5"/>
<path d="M99.376 31.7224C103.876 37.2224 110.876 33.7224 114.876 32.2224C115.876 16.7223 102.876 24.7223 99.376 31.7224Z" fill="#E0426F" stroke="black" stroke-width="0.5"/>
<path d="M234.874 9.22217L231.874 12.7222C248.874 18.2222 259.374 21.2222 271.874 27.7222H273.374L281.374 26.2222C266.374 19.7222 258.874 17.2222 234.874 9.22217Z" fill="#EDADBF" stroke="black" stroke-width="0.5"/>
<path d="M271.874 27.7222C261.374 22.2222 242.374 15.7222 231.874 12.7222L229.874 15.2222L244.874 22.7222C243.374 25.2222 239.374 27.2222 233.374 29.9222C245.374 29.2222 262.374 28.2222 271.874 27.7222Z" fill="#EDADBF" stroke="black" stroke-width="0.5"/>
<path d="M277.376 34.0222L283.374 31.7222L272.875 27.7222L228.875 30.2222C221.375 45.2222 206.375 75.7222 198.375 76.7222H212.875C211.375 65.7222 220.875 42.2222 245.876 51.2222C256.376 45.7222 266.376 40.2222 277.376 34.0222Z" fill="#EDADBF" stroke="black" stroke-width="0.5"/>
<path d="M278.374 33.7222C266.374 40.2222 256.374 45.7222 245.874 51.2222C250.374 54.2222 260.874 60.2222 259.874 79.2222L284.874 78.7222V77.2222C293.374 76.2222 301.874 79.7222 300.374 65.7222L302.374 55.7222C302.374 54.2222 299.874 50.2222 297.374 49.7222C298.874 47.2222 295.874 38.2222 295.874 38.2222V36.7222L291.874 33.7222L286.874 32.2222L283.374 31.7222L278.374 33.7222Z" fill="#EDADBF" stroke="black" stroke-width="0.5"/>
<path d="M281.374 26.2222L272.874 27.7222L283.374 31.7222C292.874 32.7222 291.873 34.2222 295.868 36.6423L295.374 28.2222L281.374 26.2222Z" fill="#EDADBF"/>
<path d="M295.874 36.7222L295.868 36.6423M295.868 36.6423L295.374 28.2222L281.374 26.2222L272.874 27.7222L283.374 31.7222C292.874 32.7222 291.873 34.2222 295.868 36.6423Z" stroke="black" stroke-width="0.5"/>
<path d="M294.376 36.2224C293.876 33.7223 282.876 33.5222 277.376 34.0222" stroke="black" stroke-width="0.5"/>
<path d="M300.376 66.2222L260.876 68.2222C260.376 63.2222 258.209 59.0555 256.376 57.2222L302.376 54.7222M300.876 52.2222C289.876 50.7222 278.876 45.9222 266.876 39.9222M228.876 30.2222L272.876 27.7222L281.376 26.2222" stroke="black" stroke-width="0.5"/>
<path d="M290.876 40.2222C290.876 38.2222 289.876 34.2222 286.376 32.2222C288.597 32.2222 291.974 33.2626 294.485 35.6322C294.949 37.1622 293.876 40.7222 290.834 42.2222C290.821 41.6319 290.876 40.9465 290.876 40.2222Z" fill="#EDADBF"/>
<path d="M272.876 42.7222C279.872 43.072 285.889 43.177 291.269 43.7222M297.876 44.7222C295.773 44.2715 293.58 43.9563 291.269 43.7222M295.876 37.2222C295.458 36.637 294.989 36.1078 294.485 35.6322M291.269 43.7222C290.943 43.3774 290.849 42.8544 290.834 42.2222M290.834 42.2222C290.821 41.6319 290.876 40.9465 290.876 40.2222C290.876 38.2222 289.876 34.2222 286.376 32.2222C288.597 32.2222 291.974 33.2626 294.485 35.6322M290.834 42.2222C293.876 40.7222 294.949 37.1622 294.485 35.6322" stroke="black" stroke-width="0.5"/>
<path d="M290.876 40.2222C286.376 40.2222 284.376 36.2222 283.376 33.7222" stroke="black" stroke-width="0.5"/>
<path d="M132.874 12.3221C119.374 16.3221 107.374 22.2222 93.374 35.2222C100.374 23.2222 115.874 13.7222 131.374 8.72217L132.874 12.3221Z" fill="#EFC7D3" stroke="black" stroke-width="0.5"/>
<path d="M131.374 8.72217C111.374 14.3962 93.374 31.7222 85.374 29.7222C98.374 20.2222 114.374 11.7222 130.874 7.22217L131.374 8.72217Z" fill="#EFC7D3" stroke="black" stroke-width="0.5"/>
<path d="M10.3747 47.7221H4.37469C1.87402 51.722 1.87402 61.722 2.37469 65.222C0.874023 66.222 0.874621 70.722 1.87469 72.222L5.87469 72.722V74.222L1.87469 76.222V78.222C5.87469 79.222 14.3747 81.222 22.3747 80.722V79.222H39.8747C39.208 70.722 40.8747 60.222 49.8747 53.222C47.3747 49.222 40.3747 44.722 37.3747 44.2221C27.3747 43.222 12.3747 45.7221 10.3747 47.7221Z" fill="#EFC7D3" stroke="black" stroke-width="0.5"/>
<path d="M93.376 35.2222C75.5426 36.0555 43.876 40.9222 33.376 43.9222L37.376 44.2222C42.376 45.7222 47.876 50.0555 49.876 53.2222C62.875 43.7222 88.375 50.7222 86.875 78.2222H96.875C89.875 67.2222 90.875 45.2222 93.376 35.2222Z" fill="#EFC7D3" stroke="black" stroke-width="0.5"/>
<path d="M10.374 47.7222H4.37402C36.8742 28.2221 58.8743 34.2222 84.874 29.7222L93.8743 35.2222C76.8743 36.2222 47.874 39.7222 33.874 43.9222C25.874 43.7222 11.874 45.7222 10.374 47.7222Z" fill="#EFC7D3" stroke="black" stroke-width="0.5"/>
<path d="M37.3755 44.2222C29.8755 43.2222 12.8755 45.2222 10.3755 47.7222C9.57548 50.1222 12.7088 53.0555 14.3755 54.2222C23.8755 55.7222 37.3755 49.7222 37.3755 44.2222Z" fill="#EFC7D3" stroke="black" stroke-width="0.5"/>
<path d="M4.37472 47.7222C11.3747 48.7222 5.37472 59.2222 2.37472 64.2222C1.87465 57.2222 2.37451 51.7222 4.37472 47.7222Z" fill="#EFC7D3" stroke="black" stroke-width="0.5"/>
<path d="M22.374 83.7222V79.2222H39.874L40.374 83.7222H22.374Z" fill="#EFC7D3" stroke="black" stroke-width="0.5"/>
<path d="M2.87598 65.2222C4.37598 67.7222 6.37598 70.8888 5.87598 72.7222M22.376 79.2222C11.876 79.7222 7.37598 75.7222 8.37598 72.2222C8.87598 71.7222 10.376 70.2222 11.376 70.2222" stroke="black" stroke-width="0.5"/>
<path d="M32.376 74.2223C29.876 70.2223 24.376 65.2224 21.376 63.7224C19.6259 63.2224 17.0008 63.3474 14.2508 63.7224C12.6258 65.0557 11.376 68.2223 11.876 71.2223C11.876 72.389 13.1834 74.7223 15.876 74.7223C20.376 74.7223 27.376 75.2223 32.376 74.2223Z" fill="#EFC7D3"/>
<path d="M6.37598 65.2224C8.62592 64.7223 11.5008 64.0974 14.2508 63.7224M14.2508 63.7224C17.0008 63.3474 19.6259 63.2224 21.376 63.7224C24.376 65.2224 29.876 70.2223 32.376 74.2223C27.376 75.2223 20.376 74.7223 15.876 74.7223C13.1834 74.7223 11.876 72.389 11.876 71.2223C11.376 68.2223 12.6258 65.0557 14.2508 63.7224Z" stroke="black" stroke-width="0.5"/>
<path d="M11.876 70.7224C19.876 69.2224 23.376 71.8509 26.376 73.3509M13.376 73.7224L30.876 73.2224" stroke="black" stroke-width="0.5"/>
<path d="M22.374 82.2222H31.874C33.874 82.2222 35.374 80.2222 34.874 79.2222M38.374 79.2222V83.7222" stroke="black" stroke-width="0.5"/>
<path d="M22.3759 80.7224C17.8759 80.7224 13.3759 81.2224 1.87592 78.2224V76.2224L5.87592 74.2224V72.7224L1.87592 72.2224C1.375 70.7222 0.375196 67.7222 2.37519 65.2222C1.87543 57.2222 2.37543 50.7222 4.37592 47.7219C36.8759 28.2223 58.8759 34.2224 84.8759 29.7224C162.876 -25.2778 244.876 11.7222 281.876 26.2223L295.376 28.2222L295.876 35.2222V38.2222C297.374 43.2222 298.709 47.7222 297.376 49.7222C299.876 50.7222 302.376 53.8888 302.376 55.7222L300.376 65.7222C300.828 76.5701 298.42 76.7944 289.088 77.1068C288.097 77.14 286.028 77.1742 284.876 77.2222V78.7222L259.876 79.1532M22.3759 80.7224V83.7224H40.3743L39.8759 79.2224M22.3759 80.7224V79.2224H39.8759M39.8759 79.2224C36.8759 37.7224 90.3759 40.7224 86.8759 79.7224V82.2222H213.376C207.376 38.7222 261.876 38.7222 259.876 79.1532M259.374 79.1532H259.876" stroke="black"/>
</svg>
