<svg width="303" height="96" viewBox="0 0 303 96" fill="none" xmlns="http://www.w3.org/2000/svg">
<circle cx="62.4897" cy="74.1843" r="20.5" fill="#E0426F" stroke="black"/>
<circle cx="235.49" cy="74.1843" r="20.5" fill="#E0426F" stroke="black"/>
<path d="M132.488 12.6842L130.988 9.18418C170.988 1.18429 192.488 1.68433 231.488 13.1843L227.988 17.6843C207.988 9.68424 189.988 8.68423 173.988 8.1843C171.488 7.6843 167.488 7.68427 164.988 8.18418C154.988 8.1843 142.988 9.6843 132.488 12.6842Z" fill="#EFC7D3" stroke="black" stroke-width="0.5"/>
<path d="M130.988 9.18437L130.488 7.68437C166.488 -3.31567 198.988 0.6842 234.488 9.68437L231.488 13.1844C191.488 0.684326 165.488 2.18433 130.988 9.18437Z" fill="#EFC7D3" stroke="black" stroke-width="0.5"/>
<path d="M130.988 9.18431C182.488 -2.31571 210.988 7.68433 231.488 13.1843" stroke="black" stroke-width="0.5"/>
<path d="M170.49 30.1843L173.99 8.18433C207.49 9.18433 218.99 14.6843 223.49 16.1843L225.973 28.1843C198.982 28.185 181.487 29.6844 170.49 30.1843Z" fill="#EFC7D3"/>
<path d="M226.49 30.6843L223.49 16.1843C218.99 14.6843 207.49 9.18433 173.99 8.18433L170.49 30.1843C181.49 29.6843 198.99 28.1843 225.99 28.1843" stroke="black" stroke-width="0.5"/>
<path d="M164.99 8.18433C131.99 9.18433 111.99 18.1843 92.9897 35.6843L95.4897 33.6843L159.49 30.6843L164.99 8.18433Z" fill="#EFC7D3" stroke="black" stroke-width="0.5"/>
<path d="M239.488 22.6843C235.822 20.0177 229.988 17.6843 223.488 16.1843L225.988 28.1843H232.488C235.488 26.6843 238.488 24.4531 239.488 22.6843Z" fill="#EFC7D3" stroke="black" stroke-width="0.5"/>
<path d="M96.4897 78.6843H163.49L197.99 77.1843H212.49L212.99 82.6843H198.99H97.9897H86.4897V78.6843H96.4897Z" fill="#EFC7D3"/>
<path d="M96.4897 78.6843H163.49L197.99 77.1843M96.4897 78.6843C96.4897 80.1843 96.9897 81.1843 97.9897 82.6843M96.4897 78.6843H86.4897V82.6843H97.9897M197.99 77.1843L198.99 82.6843M197.99 77.1843H212.49L212.99 82.6843H198.99M198.99 82.6843H97.9897" stroke="black" stroke-width="0.5"/>
<path d="M96.4889 78.6843C91.9897 74.1843 88.9898 52.1843 92.9889 35.6843L164.99 31.6843C160.99 36.6843 159.99 70.6843 163.49 78.6843H96.4889Z" fill="#EFC7D3" stroke="black" stroke-width="0.5"/>
<path d="M228.489 30.6843L164.989 31.6843C160.989 36.6843 159.99 70.6843 163.489 78.6843L197.989 77.1843C202.489 75.6843 208.989 70.1843 228.489 30.6843Z" fill="#EFC7D3" stroke="black" stroke-width="0.5"/>
<path d="M170.49 30.1844C165.99 30.6844 162.49 30.6844 159.49 30.6844L164.99 8.1844C167.99 7.68433 170.99 7.68433 173.99 8.1844L170.49 30.1844Z" fill="#EFC7D3" stroke="black" stroke-width="0.5"/>
<path d="M98.9897 32.1845C103.49 37.6845 110.49 34.1845 114.49 32.6845C115.49 17.1843 102.49 25.1843 98.9897 32.1845Z" fill="#EFC7D3" stroke="black" stroke-width="0.5"/>
<path d="M234.488 9.68433L231.488 13.1843C248.488 18.6843 258.988 21.6843 271.488 28.1843H272.988L280.988 26.6843C265.988 20.1843 258.488 17.6843 234.488 9.68433Z" stroke="black" stroke-width="0.5"/>
<path d="M271.488 28.1843C260.988 22.6843 241.988 16.1843 231.488 13.1843L229.488 15.6843L244.488 23.1843C242.988 25.6843 238.988 27.6843 232.988 30.3843C244.988 29.6843 261.988 28.6843 271.488 28.1843Z" stroke="black" stroke-width="0.5"/>
<path d="M276.99 34.4843L282.988 32.1843L272.489 28.1843L228.489 30.6843C220.989 45.6843 205.989 76.1843 197.989 77.1843H212.489C210.989 66.1843 220.489 42.6843 245.49 51.6843C255.99 46.1843 265.99 40.6843 276.99 34.4843Z" stroke="black" stroke-width="0.5"/>
<path d="M277.988 34.1844C265.988 40.6844 255.988 46.1844 245.488 51.6844C249.988 54.6843 260.488 60.6843 259.488 79.6843L284.488 79.1843V77.6843C292.988 76.6843 301.488 80.1843 299.988 66.1843L301.988 56.1843C301.988 54.6843 299.488 50.6843 296.988 50.1843C298.488 47.6843 295.488 38.6843 295.488 38.6843V37.1843L291.488 34.1843L286.488 32.6843L282.988 32.1843L277.988 34.1844Z" stroke="black" stroke-width="0.5"/>
<path d="M295.488 37.1843L295.482 37.1045M295.482 37.1045L294.988 28.6843L280.988 26.6843L272.488 28.1843L282.988 32.1843C292.488 33.1843 291.487 34.6843 295.482 37.1045Z" stroke="black" stroke-width="0.5"/>
<path d="M293.99 36.6845C293.49 34.1844 282.49 33.9843 276.99 34.4843" stroke="black" stroke-width="0.5"/>
<path d="M299.99 66.6843L260.49 68.6843C259.99 63.6843 257.823 59.5177 255.99 57.6843L301.99 55.1843M300.49 52.6843C289.49 51.1843 278.49 46.3843 266.49 40.3843M228.49 30.6843L272.49 28.1843L280.99 26.6843" stroke="black" stroke-width="0.5"/>
<path d="M272.49 43.1843C279.485 43.5341 285.502 43.6392 290.883 44.1843M297.49 45.1843C295.387 44.7337 293.194 44.4184 290.883 44.1843M295.49 37.6843C295.072 37.0992 294.603 36.57 294.099 36.0943M290.883 44.1843C290.557 43.8396 290.463 43.3165 290.448 42.6843M290.448 42.6843C290.434 42.094 290.49 41.4086 290.49 40.6843C290.49 38.6843 289.49 34.6843 285.99 32.6843C288.211 32.6843 291.587 33.7247 294.099 36.0943M290.448 42.6843C293.49 41.1843 294.562 37.6243 294.099 36.0943" stroke="black" stroke-width="0.5"/>
<path d="M290.49 40.6843C285.99 40.6843 283.99 36.6843 282.99 34.1843" stroke="black" stroke-width="0.5"/>
<path d="M132.488 12.7843C118.988 16.7843 106.988 22.6843 92.9883 35.6843C99.9883 23.6843 115.488 14.1843 130.988 9.18433L132.488 12.7843Z" fill="#EFC7D3" stroke="black" stroke-width="0.5"/>
<path d="M130.988 9.18433C110.988 14.8584 92.9883 32.1843 84.9883 30.1843C97.9883 20.6843 113.988 12.1843 130.488 7.68433L130.988 9.18433Z" fill="#EFC7D3" stroke="black" stroke-width="0.5"/>
<path d="M9.98895 48.1843H3.98895C1.48828 52.1843 1.48828 62.1843 1.98895 65.6843C0.488281 66.6843 0.488879 71.1843 1.48895 72.6843L5.48895 73.1843V74.6843L1.48895 76.6843V78.6843C5.48895 79.6843 13.9889 81.6843 21.9889 81.1843V79.6843H39.4889C38.8223 71.1843 40.4889 60.6843 49.4889 53.6843C46.9889 49.6843 39.9889 45.1843 36.9889 44.6843C26.9889 43.6843 11.9889 46.1843 9.98895 48.1843Z" fill="#EFC7D3" stroke="black" stroke-width="0.5"/>
<path d="M92.9897 35.6843C75.1564 36.5177 43.4897 41.3843 32.9897 44.3843L36.9897 44.6843C41.9897 46.1843 47.4897 50.5177 49.4897 53.6843C62.4888 44.1843 87.9888 51.1843 86.4888 78.6843H96.4888C89.4888 67.6843 90.4888 45.6843 92.9897 35.6843Z" fill="#EFC7D3" stroke="black" stroke-width="0.5"/>
<path d="M9.98828 48.1844H3.98828C36.4885 28.6843 58.4885 34.6843 84.4883 30.1843L93.4885 35.6843C76.4885 36.6843 47.4883 40.1843 33.4883 44.3843C25.4883 44.1843 11.4883 46.1843 9.98828 48.1844Z" fill="#EFC7D3" stroke="black" stroke-width="0.5"/>
<path d="M36.9897 44.6844C29.4897 43.6843 12.4897 45.6843 9.98974 48.1844C9.18974 50.5843 12.3231 53.5177 13.9897 54.6843C23.4897 56.1843 36.9897 50.1843 36.9897 44.6844Z" fill="#EFC7D3" stroke="black" stroke-width="0.5"/>
<path d="M3.98898 48.1843C10.989 49.1843 4.98898 59.6843 1.98898 64.6843C1.48891 57.6843 1.98877 52.1843 3.98898 48.1843Z" fill="#EFC7D3" stroke="black" stroke-width="0.5"/>
<path d="M21.9883 84.1843V79.6843H39.4883L39.9883 84.1843H21.9883Z" fill="#EFC7D3" stroke="black" stroke-width="0.5"/>
<path d="M2.49023 65.6843C3.99023 68.1843 5.99023 71.351 5.49023 73.1843M21.9902 79.6843C11.4902 80.1843 6.99023 76.1843 7.99023 72.6843C8.49023 72.1843 9.99023 70.6843 10.9902 70.6843" stroke="black" stroke-width="0.5"/>
<path d="M31.9902 74.6843C29.4902 70.6843 23.9902 65.6844 20.9902 64.1844C19.2402 63.6844 16.6151 63.8094 13.865 64.1844C12.2401 65.5177 10.9902 68.6843 11.4902 71.6843C11.4902 72.851 12.7977 75.1843 15.4902 75.1843C19.9902 75.1843 26.9902 75.6843 31.9902 74.6843Z" fill="#EFC7D3"/>
<path d="M5.99023 65.6844C8.24018 65.1844 11.1151 64.5594 13.865 64.1844M13.865 64.1844C16.6151 63.8094 19.2402 63.6844 20.9902 64.1844C23.9902 65.6844 29.4902 70.6843 31.9902 74.6843C26.9902 75.6843 19.9902 75.1843 15.4902 75.1843C12.7977 75.1843 11.4902 72.851 11.4902 71.6843C10.9902 68.6843 12.2401 65.5177 13.865 64.1844Z" stroke="black" stroke-width="0.5"/>
<path d="M11.4902 71.1844C19.4902 69.6844 22.9902 72.3129 25.9902 73.8129M12.9902 74.1844L30.4902 73.6844" stroke="black" stroke-width="0.5"/>
<path d="M21.9883 82.6843H31.4883C33.4883 82.6843 34.9883 80.6843 34.4883 79.6843M37.9883 79.6843V84.1843" stroke="black" stroke-width="0.5"/>
<path d="M21.9897 81.1846C17.4897 81.1846 12.9897 81.6846 1.48969 78.6846V76.6846L5.48969 74.6846V73.1846L1.48969 72.6846C0.98877 71.1843 -0.0110346 68.1843 1.98896 65.6843C1.4892 57.6843 1.9892 51.1843 3.98969 48.1841C36.4897 28.6845 58.4897 34.6845 84.4897 30.1845C162.49 -24.8156 244.49 12.1843 281.49 26.6845L294.99 28.6843L295.49 35.6843V38.6843C296.988 43.6843 298.323 48.1843 296.99 50.1843C299.49 51.1843 301.99 54.351 301.99 56.1843L299.99 66.1843C300.442 77.0322 298.034 77.2565 288.702 77.569C287.711 77.6021 285.642 77.6363 284.49 77.6843V79.1843L259.49 79.6154M21.9897 81.1846V84.1846H39.988L39.4897 79.6846M21.9897 81.1846V79.6846H39.4897M39.4897 79.6846C36.4897 38.1846 89.9897 41.1846 86.4897 80.1846V82.6843H212.99C206.99 39.1843 261.49 39.1843 259.49 79.6154M258.988 79.6154H259.49" stroke="black"/>
</svg>
