<svg width="303" height="96" viewBox="0 0 303 96" fill="none" xmlns="http://www.w3.org/2000/svg">
<circle cx="62.249" cy="74.5378" r="20.5" fill="#E56E90" stroke="black"/>
<circle cx="235.249" cy="74.5378" r="20.5" fill="#E56E90" stroke="black"/>
<path d="M132.247 13.0377L130.747 9.5377C170.747 1.53781 192.247 2.03784 231.247 13.5378L227.747 18.0378C207.747 10.0378 189.747 9.03775 173.747 8.53782C171.247 8.03782 167.247 8.03778 164.747 8.5377C154.747 8.53782 142.747 10.0378 132.247 13.0377Z" fill="#EDADBF" stroke="black" stroke-width="0.5"/>
<path d="M130.747 9.53789L130.247 8.03789C166.247 -2.96216 198.747 1.03772 234.247 10.0379L231.247 13.5379C191.247 1.03784 165.247 2.53784 130.747 9.53789Z" fill="#EDADBF" stroke="black" stroke-width="0.5"/>
<path d="M130.747 9.53771C182.247 -1.96232 210.747 8.03772 231.247 13.5377" stroke="black" stroke-width="0.5"/>
<path d="M170.249 30.5378L173.749 8.53784C207.249 9.53784 218.749 15.0378 223.249 16.5378L225.732 28.5378C198.742 28.5385 181.247 30.0379 170.249 30.5378Z" fill="#EDADBF"/>
<path d="M226.249 31.0378L223.249 16.5378C218.749 15.0378 207.249 9.53784 173.749 8.53784L170.249 30.5378C181.249 30.0378 198.749 28.5378 225.749 28.5378" stroke="black" stroke-width="0.5"/>
<path d="M164.749 8.53784C131.749 9.53784 111.749 18.5378 92.749 36.0378L95.249 34.0378L159.249 31.0378L164.749 8.53784Z" fill="#EDADBF" stroke="black" stroke-width="0.5"/>
<path d="M239.247 23.0378C235.58 20.3712 229.747 18.0378 223.247 16.5378L225.747 28.5378H232.247C235.247 27.0378 238.247 24.8066 239.247 23.0378Z" fill="#EDADBF" stroke="black" stroke-width="0.5"/>
<path d="M96.249 79.0378H163.249L197.749 77.5378H212.249L212.749 83.0378H198.749H97.749H86.249V79.0378H96.249Z" fill="#EDADBF"/>
<path d="M96.249 79.0378H163.249L197.749 77.5378M96.249 79.0378C96.249 80.5378 96.749 81.5378 97.749 83.0378M96.249 79.0378H86.249V83.0378H97.749M197.749 77.5378L198.749 83.0378M197.749 77.5378H212.249L212.749 83.0378H198.749M198.749 83.0378H97.749" stroke="black" stroke-width="0.5"/>
<path d="M96.2482 79.0378C91.749 74.5378 88.7491 52.5378 92.7482 36.0378L164.749 32.0378C160.749 37.0378 159.749 71.0378 163.249 79.0378H96.2482Z" fill="#EDADBF" stroke="black" stroke-width="0.5"/>
<path d="M228.249 31.0378L164.749 32.0378C160.749 37.0378 159.749 71.0378 163.249 79.0378L197.749 77.5378C202.249 76.0378 208.749 70.5378 228.249 31.0378Z" fill="#EDADBF" stroke="black" stroke-width="0.5"/>
<path d="M170.249 30.5379C165.749 31.0379 162.249 31.0379 159.249 31.0379L164.749 8.53792C167.749 8.03784 170.749 8.03784 173.749 8.53792L170.249 30.5379Z" fill="#EDADBF" stroke="black" stroke-width="0.5"/>
<path d="M98.749 32.5379C103.249 38.0379 110.249 34.5379 114.249 33.0379C115.249 17.5377 102.249 25.5377 98.749 32.5379Z" fill="#EDADBF" stroke="black" stroke-width="0.5"/>
<path d="M234.247 10.0378L231.247 13.5378C248.247 19.0378 258.747 22.0378 271.247 28.5378H272.747L280.747 27.0378C265.747 20.5378 258.247 18.0378 234.247 10.0378Z" fill="#E0426F" stroke="black" stroke-width="0.5"/>
<path d="M271.247 28.5378C260.747 23.0378 241.747 16.5378 231.247 13.5378L229.247 16.0378L244.247 23.5378C242.747 26.0378 238.747 28.0378 232.747 30.7378C244.747 30.0378 261.747 29.0378 271.247 28.5378Z" fill="#E0426F" stroke="black" stroke-width="0.5"/>
<path d="M276.749 34.8378L282.747 32.5378L272.248 28.5378L228.248 31.0378C220.748 46.0378 205.748 76.5378 197.748 77.5378H212.248C210.748 66.5378 220.248 43.0378 245.249 52.0378C255.749 46.5378 265.749 41.0378 276.749 34.8378Z" fill="#E0426F" stroke="black" stroke-width="0.5"/>
<path d="M277.747 34.5379C265.747 41.0379 255.747 46.5379 245.247 52.0379C249.747 55.0378 260.247 61.0378 259.247 80.0378L284.247 79.5378V78.0378C292.747 77.0378 301.247 80.5378 299.747 66.5378L301.747 56.5378C301.747 55.0378 299.247 51.0378 296.747 50.5378C298.247 48.0378 295.247 39.0378 295.247 39.0378V37.5378L291.247 34.5378L286.247 33.0378L282.747 32.5378L277.747 34.5379Z" fill="#E0426F" stroke="black" stroke-width="0.5"/>
<path d="M280.747 27.0378L272.247 28.5378L282.747 32.5378C292.247 33.5378 291.246 35.0378 295.241 37.458L294.747 29.0378L280.747 27.0378Z" fill="#E0426F"/>
<path d="M295.247 37.5378L295.241 37.458M295.241 37.458L294.747 29.0378L280.747 27.0378L272.247 28.5378L282.747 32.5378C292.247 33.5378 291.246 35.0378 295.241 37.458Z" stroke="black" stroke-width="0.5"/>
<path d="M293.749 37.038C293.249 34.5379 282.249 34.3379 276.749 34.8379" stroke="black" stroke-width="0.5"/>
<path d="M299.749 67.0378L260.249 69.0378C259.749 64.0378 257.582 59.8712 255.749 58.0378L301.749 55.5378M300.249 53.0378C289.249 51.5378 278.249 46.7378 266.249 40.7378M228.249 31.0378L272.249 28.5378L280.749 27.0378" stroke="black" stroke-width="0.5"/>
<path d="M290.249 41.0378C290.249 39.0378 289.249 35.0378 285.749 33.0378C287.97 33.0378 291.347 34.0782 293.858 36.4478C294.322 37.9778 293.249 41.5378 290.207 43.0378C290.194 42.4476 290.249 41.7621 290.249 41.0378Z" fill="#E0426F"/>
<path d="M272.249 43.5378C279.245 43.8876 285.262 43.9927 290.642 44.5378M297.249 45.5378C295.146 45.0872 292.953 44.7719 290.642 44.5378M295.249 38.0378C294.831 37.4527 294.362 36.9235 293.858 36.4478M290.642 44.5378C290.316 44.1931 290.222 43.67 290.207 43.0378M290.207 43.0378C290.194 42.4476 290.249 41.7621 290.249 41.0378C290.249 39.0378 289.249 35.0378 285.749 33.0378C287.97 33.0378 291.347 34.0782 293.858 36.4478M290.207 43.0378C293.249 41.5378 294.322 37.9778 293.858 36.4478" stroke="black" stroke-width="0.5"/>
<path d="M290.249 41.0378C285.749 41.0378 283.749 37.0378 282.749 34.5378" stroke="black" stroke-width="0.5"/>
<path d="M132.247 13.1378C118.747 17.1378 106.747 23.0378 92.7471 36.0378C99.7471 24.0378 115.247 14.5378 130.747 9.53784L132.247 13.1378Z" fill="#E0426F" stroke="black" stroke-width="0.5"/>
<path d="M130.747 9.53784C110.747 15.2119 92.7471 32.5378 84.7471 30.5378C97.7471 21.0378 113.747 12.5378 130.247 8.03784L130.747 9.53784Z" fill="#E0426F" stroke="black" stroke-width="0.5"/>
<path d="M9.74774 48.5377H3.74774C1.24707 52.5377 1.24707 62.5377 1.74774 66.0377C0.24707 67.0377 0.247668 71.5377 1.24774 73.0377L5.24774 73.5377V75.0377L1.24774 77.0377V79.0377C5.24774 80.0377 13.7477 82.0377 21.7477 81.5377V80.0377H39.2477C38.5811 71.5377 40.2477 61.0377 49.2477 54.0377C46.7477 50.0377 39.7477 45.5377 36.7477 45.0377C26.7477 44.0377 11.7477 46.5377 9.74774 48.5377Z" fill="#E0426F" stroke="black" stroke-width="0.5"/>
<path d="M92.749 36.0378C74.9157 36.8712 43.249 41.7378 32.749 44.7378L36.749 45.0378C41.749 46.5378 47.249 50.8712 49.249 54.0378C62.248 44.5378 87.748 51.5378 86.248 79.0378H96.248C89.248 68.0378 90.248 46.0378 92.749 36.0378Z" fill="#E0426F" stroke="black" stroke-width="0.5"/>
<path d="M9.74707 48.5379H3.74707C36.2473 29.0378 58.2473 35.0378 84.2471 30.5378L93.2473 36.0378C76.2473 37.0378 47.2471 40.5378 33.2471 44.7378C25.2471 44.5378 11.2471 46.5378 9.74707 48.5379Z" fill="#E0426F" stroke="black" stroke-width="0.5"/>
<path d="M36.7485 45.0379C29.2485 44.0378 12.2485 46.0378 9.74852 48.5379C8.94852 50.9379 12.0819 53.8712 13.7485 55.0378C23.2485 56.5378 36.7485 50.5378 36.7485 45.0379Z" fill="#E0426F" stroke="black" stroke-width="0.5"/>
<path d="M3.74777 48.5378C10.7478 49.5378 4.74777 60.0378 1.74777 65.0378C1.2477 58.0378 1.74756 52.5378 3.74777 48.5378Z" fill="#E0426F" stroke="black" stroke-width="0.5"/>
<path d="M21.7471 84.5378V80.0378H39.2471L39.7471 84.5378H21.7471Z" fill="#E0426F" stroke="black" stroke-width="0.5"/>
<path d="M2.24902 66.0376C3.74902 68.5376 5.74902 71.7043 5.24902 73.5376M21.749 80.0376C11.249 80.5376 6.74902 76.5376 7.74902 73.0376C8.24902 72.5376 9.74902 71.0376 10.749 71.0376" stroke="black" stroke-width="0.5"/>
<path d="M31.749 75.0377C29.249 71.0377 23.749 66.0378 20.749 64.5378C18.999 64.0378 16.3739 64.1628 13.6238 64.5378C11.9989 65.8711 10.749 69.0377 11.249 72.0377C11.249 73.2044 12.5564 75.5377 15.249 75.5377C19.749 75.5377 26.749 76.0377 31.749 75.0377Z" fill="#E0426F"/>
<path d="M5.74902 66.0378C7.99897 65.5378 10.8739 64.9128 13.6238 64.5378M13.6238 64.5378C16.3739 64.1628 18.999 64.0378 20.749 64.5378C23.749 66.0378 29.249 71.0377 31.749 75.0377C26.749 76.0377 19.749 75.5377 15.249 75.5377C12.5564 75.5377 11.249 73.2044 11.249 72.0377C10.749 69.0377 11.9989 65.8711 13.6238 64.5378Z" stroke="black" stroke-width="0.5"/>
<path d="M11.249 71.5378C19.249 70.0378 22.749 72.6663 25.749 74.1663M12.749 74.5378L30.249 74.0378" stroke="black" stroke-width="0.5"/>
<path d="M21.7471 83.0376H31.2471C33.2471 83.0376 34.7471 81.0376 34.2471 80.0376M37.7471 80.0376V84.5376" stroke="black" stroke-width="0.5"/>
<path d="M21.749 81.5381C17.249 81.5381 12.749 82.0381 1.24897 79.0381V77.0381L5.24897 75.0381V73.5381L1.24897 73.0381C0.748047 71.5378 -0.251757 68.5378 1.74824 66.0378C1.24848 58.0378 1.74848 51.5378 3.74897 48.5376C36.249 29.038 58.249 35.038 84.249 30.538C162.249 -24.4621 244.249 12.5378 281.249 27.038L294.749 29.0378L295.249 36.0378V39.0378C296.747 44.0378 298.082 48.5378 296.749 50.5378C299.249 51.5378 301.749 54.7045 301.749 56.5378L299.749 66.5378C300.201 77.3858 297.793 77.61 288.461 77.9225C287.47 77.9557 285.401 77.9898 284.249 78.0378V79.5378L259.249 79.9689M21.749 81.5381V84.5381H39.7473L39.249 80.0381M21.749 81.5381V80.0381H39.249M39.249 80.0381C36.249 38.5381 89.749 41.5381 86.249 80.5381V83.0378H212.749C206.749 39.5378 261.249 39.5378 259.249 79.9689M258.747 79.9689H259.249" stroke="black"/>
</svg>
