<svg width="303" height="95" viewBox="0 0 303 95" fill="none" xmlns="http://www.w3.org/2000/svg">
<circle cx="62.6978" cy="73.8459" r="20.5" stroke="black"/>
<circle cx="235.698" cy="73.8459" r="20.5" stroke="black"/>
<path d="M132.696 12.3458L131.196 8.8458C171.196 0.845915 192.696 1.34595 231.696 12.8459L228.196 17.3459C208.196 9.34586 190.196 8.34586 174.196 7.84592C171.696 7.34592 167.696 7.34589 165.196 7.8458C155.196 7.84592 143.196 9.34592 132.696 12.3458Z" stroke="black" stroke-width="0.5"/>
<path d="M131.196 8.84599L130.696 7.34599C166.696 -3.65405 199.196 0.345821 234.696 9.34599L231.696 12.846C191.696 0.345947 165.696 1.84595 131.196 8.84599Z" stroke="black" stroke-width="0.5"/>
<path d="M131.196 8.84593C182.696 -2.65409 211.196 7.34595 231.696 12.8459" stroke="black" stroke-width="0.5"/>
<path d="M226.698 30.3459L223.698 15.8459C219.198 14.3459 207.698 8.84595 174.198 7.84595L170.698 29.8459C181.698 29.3459 199.198 27.8459 226.198 27.8459" stroke="black" stroke-width="0.5"/>
<path d="M165.198 7.84595C132.198 8.84595 112.198 17.8459 93.1978 35.3459L95.6978 33.3459L159.698 30.3459L165.198 7.84595Z" stroke="black" stroke-width="0.5"/>
<path d="M239.696 22.3459C236.03 19.6793 230.196 17.3459 223.696 15.8459L226.196 27.8459H232.696C235.696 26.3459 238.696 24.1147 239.696 22.3459Z" stroke="black" stroke-width="0.5"/>
<path d="M96.6978 78.3459H163.698L198.198 76.8459M96.6978 78.3459C96.6978 79.8459 97.1978 80.8459 98.1978 82.3459M96.6978 78.3459H86.6978V82.3459H98.1978M198.198 76.8459L199.198 82.3459M198.198 76.8459H212.698L213.198 82.3459H199.198M199.198 82.3459H98.1978" stroke="black" stroke-width="0.5"/>
<path d="M96.6969 78.3459C92.1977 73.8459 89.1978 51.8459 93.1969 35.3459L165.198 31.3459C161.198 36.3459 160.198 70.3459 163.698 78.3459H96.6969Z" stroke="black" stroke-width="0.5"/>
<path d="M228.697 30.3459L165.197 31.3459C161.197 36.3459 160.198 70.3459 163.697 78.3459L198.197 76.8459C202.697 75.3459 209.197 69.8459 228.697 30.3459Z" stroke="black" stroke-width="0.5"/>
<path d="M170.698 29.846C166.198 30.346 162.698 30.346 159.698 30.346L165.198 7.84602C168.198 7.34595 171.198 7.34595 174.198 7.84602L170.698 29.846Z" stroke="black" stroke-width="0.5"/>
<path d="M99.1978 31.8461C103.698 37.3461 110.698 33.8461 114.698 32.3461C115.698 16.846 102.698 24.8459 99.1978 31.8461Z" stroke="black" stroke-width="0.5"/>
<path d="M234.696 9.34595L231.696 12.8459C248.696 18.3459 259.196 21.3459 271.696 27.8459H273.196L281.196 26.3459C266.196 19.8459 258.696 17.3459 234.696 9.34595Z" stroke="black" stroke-width="0.5"/>
<path d="M271.696 27.8459C261.196 22.3459 242.196 15.8459 231.696 12.8459L229.696 15.3459L244.696 22.8459C243.196 25.3459 239.196 27.3459 233.196 30.0459C245.196 29.3459 262.196 28.3459 271.696 27.8459Z" stroke="black" stroke-width="0.5"/>
<path d="M277.198 34.1459L283.196 31.8459L272.697 27.8459L228.697 30.3459C221.197 45.3459 206.197 75.8459 198.197 76.8459H212.697C211.197 65.8459 220.697 42.3459 245.698 51.3459C256.198 45.8459 266.198 40.3459 277.198 34.1459Z" stroke="black" stroke-width="0.5"/>
<path d="M278.196 33.846C266.196 40.346 256.196 45.846 245.696 51.346C250.196 54.3459 260.696 60.3459 259.696 79.3459L284.696 78.8459V77.3459C293.196 76.3459 301.696 79.8459 300.196 65.8459L302.196 55.8459C302.196 54.3459 299.696 50.3459 297.196 49.8459C298.696 47.3459 295.696 38.3459 295.696 38.3459V36.8459L291.696 33.8459L286.696 32.3459L283.196 31.8459L278.196 33.846Z" stroke="black" stroke-width="0.5"/>
<path d="M295.696 36.8459L295.69 36.7661M295.69 36.7661L295.196 28.3459L281.196 26.3459L272.696 27.8459L283.196 31.8459C292.696 32.8459 291.695 34.3459 295.69 36.7661Z" stroke="black" stroke-width="0.5"/>
<path d="M294.198 36.3461C293.698 33.846 282.698 33.646 277.198 34.146" stroke="black" stroke-width="0.5"/>
<path d="M300.198 66.3459L260.698 68.3459C260.198 63.3459 258.031 59.1793 256.198 57.3459L302.198 54.8459M300.698 52.3459C289.698 50.8459 278.698 46.0459 266.698 40.0459M228.698 30.3459L272.698 27.8459L281.198 26.3459" stroke="black" stroke-width="0.5"/>
<path d="M272.698 42.8459C279.693 43.1957 285.71 43.3008 291.091 43.8459M297.698 44.8459C295.595 44.3953 293.402 44.08 291.091 43.8459M295.698 37.3459C295.28 36.7608 294.811 36.2316 294.307 35.7559M291.091 43.8459C290.765 43.5012 290.671 42.9781 290.656 42.3459M290.656 42.3459C290.642 41.7557 290.698 41.0702 290.698 40.3459C290.698 38.3459 289.698 34.3459 286.198 32.3459C288.419 32.3459 291.795 33.3863 294.307 35.7559M290.656 42.3459C293.698 40.8459 294.77 37.2859 294.307 35.7559" stroke="black" stroke-width="0.5"/>
<path d="M290.698 40.3459C286.198 40.3459 284.198 36.3459 283.198 33.8459" stroke="black" stroke-width="0.5"/>
<path d="M132.696 12.4459C119.196 16.4459 107.196 22.3459 93.1963 35.3459C100.196 23.3459 115.696 13.8459 131.196 8.84595L132.696 12.4459Z" fill="#E0426F" stroke="black" stroke-width="0.5"/>
<path d="M131.196 8.84595C111.196 14.52 93.1963 31.8459 85.1963 29.8459C98.1963 20.3459 114.196 11.8459 130.696 7.34595L131.196 8.84595Z" fill="#E0426F" stroke="black" stroke-width="0.5"/>
<path d="M10.197 47.846H4.19696C1.69629 51.8459 1.69629 61.8459 2.19696 65.3459C0.696289 66.3459 0.696887 70.8459 1.69696 72.3459L5.69696 72.8459V74.3459L1.69696 76.3459V78.3459C5.69696 79.3459 14.197 81.3459 22.197 80.8459V79.3459H39.697C39.0303 70.8459 40.697 60.3459 49.697 53.3459C47.197 49.3459 40.197 44.8459 37.197 44.346C27.197 43.3459 12.197 45.846 10.197 47.846Z" fill="#E0426F" stroke="black" stroke-width="0.5"/>
<path d="M93.1978 35.3459C75.3644 36.1793 43.6978 41.0459 33.1978 44.0459L37.1978 44.3459C42.1978 45.8459 47.6978 50.1793 49.6978 53.3459C62.6968 43.8459 88.1968 50.8459 86.6968 78.3459H96.6968C89.6968 67.3459 90.6968 45.3459 93.1978 35.3459Z" fill="#E0426F" stroke="black" stroke-width="0.5"/>
<path d="M10.1963 47.846H4.19629C36.6965 28.3459 58.6965 34.3459 84.6963 29.8459L93.6965 35.3459C76.6965 36.3459 47.6963 39.8459 33.6963 44.046C25.6963 43.8459 11.6963 45.8459 10.1963 47.846Z" fill="#E0426F" stroke="black" stroke-width="0.5"/>
<path d="M37.1977 44.346C29.6977 43.3459 12.6977 45.3459 10.1977 47.846C9.39774 50.246 12.5311 53.1793 14.1977 54.3459C23.6978 55.8459 37.1977 49.8459 37.1977 44.346Z" fill="#E0426F" stroke="black" stroke-width="0.5"/>
<path d="M4.19698 47.8459C11.197 48.8459 5.19698 59.3459 2.19698 64.3459C1.69691 57.3459 2.19678 51.8459 4.19698 47.8459Z" fill="#E0426F" stroke="black" stroke-width="0.5"/>
<path d="M22.1963 83.8459V79.3459H39.6963L40.1963 83.8459H22.1963Z" fill="#E0426F" stroke="black" stroke-width="0.5"/>
<path d="M2.69824 65.3459C4.19824 67.8459 6.19824 71.0126 5.69824 72.8459M22.1982 79.3459C11.6982 79.8459 7.19824 75.8459 8.19824 72.3459C8.69824 71.8459 10.1982 70.3459 11.1982 70.3459" stroke="black" stroke-width="0.5"/>
<path d="M32.1982 74.3459C29.6982 70.3459 24.1982 65.346 21.1982 63.846C19.4482 63.346 16.8231 63.471 14.073 63.846C12.4481 65.1793 11.1982 68.3459 11.6982 71.3459C11.6982 72.5126 13.0057 74.8459 15.6982 74.8459C20.1982 74.8459 27.1982 75.3459 32.1982 74.3459Z" fill="#E0426F"/>
<path d="M6.19824 65.346C8.44818 64.846 11.3231 64.221 14.073 63.846M14.073 63.846C16.8231 63.471 19.4482 63.346 21.1982 63.846C24.1982 65.346 29.6982 70.3459 32.1982 74.3459C27.1982 75.3459 20.1982 74.8459 15.6982 74.8459C13.0057 74.8459 11.6982 72.5126 11.6982 71.3459C11.1982 68.3459 12.4481 65.1793 14.073 63.846Z" stroke="black" stroke-width="0.5"/>
<path d="M11.6982 70.846C19.6982 69.3461 23.1982 71.9745 26.1982 73.4745M13.1982 73.8461L30.6982 73.3461" stroke="black" stroke-width="0.5"/>
<path d="M22.1963 82.3459H31.6963C33.6963 82.3459 35.1963 80.3459 34.6963 79.3459M38.1963 79.3459V83.8459" stroke="black" stroke-width="0.5"/>
<path d="M22.1977 80.8462C17.6977 80.8462 13.1977 81.3462 1.6977 78.3462V76.3462L5.6977 74.3462V72.8462L1.6977 72.3462C1.19678 70.8459 0.196973 67.8459 2.19697 65.3459C1.69721 57.3459 2.19721 50.8459 4.1977 47.8457C36.6977 28.3461 58.6977 34.3461 84.6977 29.8461C162.698 -25.154 244.698 11.8459 281.698 26.3461L295.198 28.3459L295.698 35.3459V38.3459C297.196 43.3459 298.531 47.8459 297.198 49.8459C299.698 50.8459 302.198 54.0126 302.198 55.8459L300.198 65.8459C300.65 76.6939 298.242 76.9181 288.91 77.2306C287.919 77.2638 285.85 77.2979 284.698 77.3459V78.8459L259.698 79.277M22.1977 80.8462V83.8462H40.196L39.6977 79.3462M22.1977 80.8462V79.3462H39.6977M39.6977 79.3462C36.6977 37.8462 90.1977 40.8462 86.6977 79.8462V82.3459H213.198C207.198 38.8459 261.698 38.8459 259.698 79.277M259.196 79.277H259.698" stroke="black"/>
</svg>
