<svg width="303" height="95" viewBox="0 0 303 95" fill="none" xmlns="http://www.w3.org/2000/svg">
<circle cx="62.6772" cy="73.707" r="20.5" stroke="black"/>
<circle cx="235.678" cy="73.707" r="20.5" stroke="black"/>
<path d="M132.676 12.2069L131.176 8.70689C171.176 0.706999 192.676 1.20703 231.676 12.707L228.176 17.207C208.176 9.20694 190.176 8.20694 174.176 7.70701C171.676 7.20701 167.676 7.20697 165.176 7.70689C155.176 7.70701 143.176 9.20701 132.676 12.2069Z" fill="#E56E90" stroke="black" stroke-width="0.5"/>
<path d="M131.176 8.70708L130.676 7.20708C166.676 -3.79297 199.176 0.206905 234.676 9.20708L231.676 12.7071C191.676 0.207031 165.676 1.70703 131.176 8.70708Z" fill="#E56E90" stroke="black" stroke-width="0.5"/>
<path d="M131.176 8.70714C182.676 -2.79288 211.176 7.20715 231.676 12.7071" stroke="black" stroke-width="0.5"/>
<path d="M170.677 29.707L174.177 7.70703C207.677 8.70703 219.177 14.207 223.677 15.707L226.16 27.707C199.17 27.7077 181.675 29.2071 170.677 29.707Z" fill="#E56E90"/>
<path d="M226.677 30.207L223.677 15.707C219.177 14.207 207.677 8.70703 174.177 7.70703L170.677 29.707C181.677 29.207 199.177 27.707 226.177 27.707" stroke="black" stroke-width="0.5"/>
<path d="M165.177 7.70703C132.177 8.70703 112.177 17.707 93.1772 35.207L95.6772 33.207L159.677 30.207L165.177 7.70703Z" fill="#E56E90" stroke="black" stroke-width="0.5"/>
<path d="M239.676 22.207C236.009 19.5404 230.176 17.207 223.676 15.707L226.176 27.707H232.676C235.676 26.207 238.676 23.9758 239.676 22.207Z" fill="#E56E90" stroke="black" stroke-width="0.5"/>
<path d="M96.6772 78.207H163.677L198.177 76.707H212.677L213.177 82.207H199.177H98.1772H86.6772V78.207H96.6772Z" fill="#E56E90"/>
<path d="M96.6772 78.207H163.677L198.177 76.707M96.6772 78.207C96.6772 79.707 97.1772 80.707 98.1772 82.207M96.6772 78.207H86.6772V82.207H98.1772M198.177 76.707L199.177 82.207M198.177 76.707H212.677L213.177 82.207H199.177M199.177 82.207H98.1772" stroke="black" stroke-width="0.5"/>
<path d="M96.6764 78.207C92.1772 73.707 89.1773 51.707 93.1764 35.207L165.177 31.207C161.177 36.207 160.177 70.207 163.677 78.207H96.6764Z" fill="#E56E90" stroke="black" stroke-width="0.5"/>
<path d="M228.677 30.207L165.177 31.207C161.177 36.207 160.177 70.207 163.677 78.207L198.177 76.707C202.677 75.207 209.177 69.707 228.677 30.207Z" fill="#E56E90" stroke="black" stroke-width="0.5"/>
<path d="M170.677 29.7071C166.177 30.2071 162.677 30.2071 159.677 30.2071L165.177 7.70711C168.177 7.20703 171.177 7.20703 174.177 7.70711L170.677 29.7071Z" fill="#E56E90" stroke="black" stroke-width="0.5"/>
<path d="M99.1772 31.7073C103.677 37.2073 110.677 33.7073 114.677 32.2073C115.677 16.7072 102.677 24.7072 99.1772 31.7073Z" fill="#E56E90" stroke="black" stroke-width="0.5"/>
<path d="M234.676 9.20703L231.676 12.707C248.676 18.207 259.176 21.207 271.676 27.707H273.176L281.176 26.207C266.176 19.707 258.676 17.207 234.676 9.20703Z" fill="#EDADBF" stroke="black" stroke-width="0.5"/>
<path d="M271.676 27.707C261.176 22.207 242.176 15.707 231.676 12.707L229.676 15.207L244.676 22.707C243.176 25.207 239.176 27.207 233.176 29.907C245.176 29.207 262.176 28.207 271.676 27.707Z" fill="#EDADBF" stroke="black" stroke-width="0.5"/>
<path d="M277.178 34.007L283.176 31.707L272.677 27.707L228.677 30.207C221.177 45.207 206.177 75.707 198.177 76.707H212.677C211.177 65.707 220.677 42.207 245.678 51.207C256.178 45.707 266.178 40.207 277.178 34.007Z" fill="#EDADBF" stroke="black" stroke-width="0.5"/>
<path d="M278.176 33.7071C266.176 40.2071 256.176 45.7071 245.676 51.2071C250.176 54.207 260.676 60.207 259.676 79.207L284.676 78.707V77.207C293.176 76.207 301.676 79.707 300.176 65.707L302.176 55.707C302.176 54.207 299.676 50.207 297.176 49.707C298.676 47.207 295.676 38.207 295.676 38.207V36.707L291.676 33.707L286.676 32.207L283.176 31.707L278.176 33.7071Z" fill="#EDADBF" stroke="black" stroke-width="0.5"/>
<path d="M281.176 26.207L272.676 27.707L283.176 31.707C292.676 32.707 291.675 34.207 295.67 36.6272L295.176 28.207L281.176 26.207Z" fill="#EDADBF"/>
<path d="M295.676 36.707L295.67 36.6272M295.67 36.6272L295.176 28.207L281.176 26.207L272.676 27.707L283.176 31.707C292.676 32.707 291.675 34.207 295.67 36.6272Z" stroke="black" stroke-width="0.5"/>
<path d="M294.178 36.2072C293.678 33.7071 282.678 33.507 277.178 34.007" stroke="black" stroke-width="0.5"/>
<path d="M300.178 66.207L260.678 68.207C260.178 63.207 258.011 59.0404 256.178 57.207L302.178 54.707M300.678 52.207C289.678 50.707 278.678 45.907 266.678 39.907M228.678 30.207L272.678 27.707L281.178 26.207" stroke="black" stroke-width="0.5"/>
<path d="M290.678 40.207C290.678 38.207 289.678 34.207 286.178 32.207C288.399 32.207 291.775 33.2474 294.287 35.617C294.75 37.147 293.678 40.707 290.636 42.207C290.622 41.6167 290.678 40.9313 290.678 40.207Z" fill="#EDADBF"/>
<path d="M272.678 42.707C279.673 43.0568 285.69 43.1619 291.071 43.707M297.678 44.707C295.575 44.2564 293.381 43.9411 291.071 43.707M295.678 37.207C295.26 36.6219 294.791 36.0927 294.287 35.617M291.071 43.707C290.745 43.3623 290.651 42.8392 290.636 42.207M290.636 42.207C290.622 41.6168 290.678 40.9313 290.678 40.207C290.678 38.207 289.678 34.207 286.178 32.207C288.399 32.207 291.775 33.2474 294.287 35.617M290.636 42.207C293.678 40.707 294.75 37.147 294.287 35.617" stroke="black" stroke-width="0.5"/>
<path d="M290.678 40.207C286.178 40.207 284.178 36.207 283.178 33.707" stroke="black" stroke-width="0.5"/>
<path d="M132.676 12.307C119.176 16.307 107.176 22.207 93.1758 35.207C100.176 23.207 115.676 13.707 131.176 8.70703L132.676 12.307Z" stroke="black" stroke-width="0.5"/>
<path d="M131.176 8.70703C111.176 14.3811 93.1758 31.707 85.1758 29.707C98.1758 20.207 114.176 11.707 130.676 7.20703L131.176 8.70703Z" stroke="black" stroke-width="0.5"/>
<path d="M10.1764 47.7069H4.17645C1.67578 51.7069 1.67578 61.7069 2.17645 65.2069C0.675781 66.2069 0.676379 70.7069 1.67645 72.2069L5.67645 72.7069V74.2069L1.67645 76.2069V78.2069C5.67645 79.2069 14.1764 81.2069 22.1764 80.7069V79.2069H39.6764C39.0098 70.7069 40.6764 60.2069 49.6764 53.2069C47.1764 49.2069 40.1764 44.7069 37.1764 44.2069C27.1764 43.2069 12.1764 45.7069 10.1764 47.7069Z" stroke="black" stroke-width="0.5"/>
<path d="M93.1772 35.207C75.3439 36.0404 43.6772 40.907 33.1772 43.907L37.1772 44.207C42.1772 45.707 47.6772 50.0404 49.6772 53.207C62.6763 43.707 88.1763 50.707 86.6763 78.207H96.6763C89.6763 67.207 90.6763 45.207 93.1772 35.207Z" stroke="black" stroke-width="0.5"/>
<path d="M10.1758 47.7071H4.17578C36.676 28.207 58.676 34.207 84.6758 29.707L93.676 35.207C76.676 36.207 47.6758 39.707 33.6758 43.907C25.6758 43.707 11.6758 45.707 10.1758 47.7071Z" stroke="black" stroke-width="0.5"/>
<path d="M37.1772 44.2071C29.6772 43.207 12.6772 45.207 10.1772 47.7071C9.37724 50.107 12.5106 53.0404 14.1772 54.207C23.6772 55.707 37.1772 49.707 37.1772 44.2071Z" stroke="black" stroke-width="0.5"/>
<path d="M4.17648 47.707C11.1765 48.707 5.17648 59.207 2.17648 64.207C1.67641 57.207 2.17627 51.707 4.17648 47.707Z" stroke="black" stroke-width="0.5"/>
<path d="M22.1758 83.707V79.207H39.6758L40.1758 83.707H22.1758Z" stroke="black" stroke-width="0.5"/>
<path d="M2.67773 65.207C4.17773 67.707 6.17773 70.8737 5.67773 72.707M22.1777 79.207C11.6777 79.707 7.17773 75.707 8.17773 72.207C8.67773 71.707 10.1777 70.207 11.1777 70.207" stroke="black" stroke-width="0.5"/>
<path d="M6.17773 65.2072C8.42768 64.7072 11.3026 64.0822 14.0525 63.7072M14.0525 63.7072C16.8026 63.3322 19.4277 63.2072 21.1777 63.7072C24.1777 65.2072 29.6777 70.2072 32.1777 74.2072C27.1777 75.2072 20.1777 74.7072 15.6777 74.7072C12.9852 74.7072 11.6777 72.3738 11.6777 71.2072C11.1777 68.2072 12.4276 65.0405 14.0525 63.7072Z" stroke="black" stroke-width="0.5"/>
<path d="M11.6777 70.7072C19.6777 69.2073 23.1777 71.8358 26.1777 73.3358M13.1777 73.7073L30.6777 73.2073" stroke="black" stroke-width="0.5"/>
<path d="M22.1758 82.207H31.6758C33.6758 82.207 35.1758 80.207 34.6758 79.207M38.1758 79.207V83.707" stroke="black" stroke-width="0.5"/>
<path d="M22.1772 80.7073C17.6772 80.7073 13.1772 81.2073 1.67719 78.2073V76.2073L5.67719 74.2073V72.7073L1.67719 72.2073C1.17627 70.707 0.176465 67.707 2.17646 65.207C1.6767 57.207 2.1767 50.707 4.17719 47.7068C36.6772 28.2072 58.6772 34.2072 84.6772 29.7072C162.677 -25.2929 244.677 11.707 281.677 26.2072L295.177 28.207L295.677 35.207V38.207C297.176 43.207 298.511 47.707 297.177 49.707C299.677 50.707 302.177 53.8737 302.177 55.707L300.177 65.707C300.629 76.5549 298.221 76.7792 288.889 77.0917C287.898 77.1249 285.829 77.159 284.677 77.207V78.707L259.677 79.1381M22.1772 80.7073V83.7073H40.1755L39.6772 79.2073M22.1772 80.7073V79.2073H39.6772M39.6772 79.2073C36.6772 37.7073 90.1772 40.7073 86.6772 79.7073V82.207H213.177C207.177 38.707 261.677 38.707 259.677 79.1381M259.176 79.1381H259.677" stroke="black"/>
</svg>
