<svg width="304" height="95" viewBox="0 0 304 95" fill="none" xmlns="http://www.w3.org/2000/svg">
<circle cx="63.0938" cy="73.8762" r="20.5" fill="#EDADBF" stroke="black"/>
<circle cx="236.094" cy="73.8762" r="20.5" fill="#EDADBF" stroke="black"/>
<path d="M133.092 12.3761L131.592 8.87608C171.592 0.876188 193.092 1.37622 232.092 12.8762L228.592 17.3762C208.592 9.37613 190.592 8.37613 174.592 7.8762C172.092 7.3762 168.092 7.37616 165.592 7.87608C155.592 7.8762 143.592 9.3762 133.092 12.3761Z" fill="#E56E90" stroke="black" stroke-width="0.5"/>
<path d="M131.592 8.87627L131.092 7.37626C167.092 -3.62378 199.592 0.376095 235.092 9.37627L232.092 12.8763C192.092 0.376221 166.092 1.87622 131.592 8.87627Z" fill="#E56E90" stroke="black" stroke-width="0.5"/>
<path d="M131.592 8.87609C183.092 -2.62394 211.592 7.3761 232.092 12.8761" stroke="black" stroke-width="0.5"/>
<path d="M171.094 29.8762L174.594 7.87622C208.094 8.87622 219.594 14.3762 224.094 15.8762L226.577 27.8762C199.586 27.8769 182.091 29.3763 171.094 29.8762Z" fill="#E56E90"/>
<path d="M227.094 30.3762L224.094 15.8762C219.594 14.3762 208.094 8.87622 174.594 7.87622L171.094 29.8762C182.094 29.3762 199.594 27.8762 226.594 27.8762" stroke="black" stroke-width="0.5"/>
<path d="M165.594 7.87622C132.594 8.87622 112.594 17.8762 93.5938 35.3762L96.0938 33.3762L160.094 30.3762L165.594 7.87622Z" fill="#E56E90" stroke="black" stroke-width="0.5"/>
<path d="M240.092 22.3762C236.425 19.7096 230.592 17.3762 224.092 15.8762L226.592 27.8762H233.092C236.092 26.3762 239.092 24.145 240.092 22.3762Z" fill="#E56E90" stroke="black" stroke-width="0.5"/>
<path d="M97.0938 78.3762H164.094L198.594 76.8762H213.094L213.594 82.3762H199.594H98.5938H87.0938V78.3762H97.0938Z" fill="#E56E90"/>
<path d="M97.0938 78.3762H164.094L198.594 76.8762M97.0938 78.3762C97.0938 79.8762 97.5938 80.8762 98.5938 82.3762M97.0938 78.3762H87.0938V82.3762H98.5938M198.594 76.8762L199.594 82.3762M198.594 76.8762H213.094L213.594 82.3762H199.594M199.594 82.3762H98.5938" stroke="black" stroke-width="0.5"/>
<path d="M97.0929 78.3762C92.5937 73.8762 89.5938 51.8762 93.5929 35.3762L165.594 31.3762C161.594 36.3762 160.594 70.3762 164.094 78.3762H97.0929Z" fill="#E56E90" stroke="black" stroke-width="0.5"/>
<path d="M229.094 30.3762L165.594 31.3762C161.594 36.3762 160.594 70.3762 164.094 78.3762L198.594 76.8762C203.094 75.3762 209.594 69.8762 229.094 30.3762Z" fill="#E56E90" stroke="black" stroke-width="0.5"/>
<path d="M171.094 29.8763C166.594 30.3763 163.094 30.3763 160.094 30.3763L165.594 7.87629C168.594 7.37622 171.594 7.37622 174.594 7.87629L171.094 29.8763Z" fill="#E56E90" stroke="black" stroke-width="0.5"/>
<path d="M99.5938 31.8762C104.094 37.3762 111.094 33.8762 115.094 32.3762C116.094 16.8761 103.094 24.8761 99.5938 31.8762Z" fill="#E56E90" stroke="black" stroke-width="0.5"/>
<path d="M235.092 9.37622L232.092 12.8762C249.092 18.3762 259.592 21.3762 272.092 27.8762H273.592L281.592 26.3762C266.592 19.8762 259.092 17.3762 235.092 9.37622Z" stroke="black" stroke-width="0.5"/>
<path d="M272.092 27.8762C261.592 22.3762 242.592 15.8762 232.092 12.8762L230.092 15.3762L245.092 22.8762C243.592 25.3762 239.592 27.3762 233.592 30.0762C245.592 29.3762 262.592 28.3762 272.092 27.8762Z" stroke="black" stroke-width="0.5"/>
<path d="M277.594 34.1762L283.592 31.8762L273.093 27.8762L229.093 30.3762C221.593 45.3762 206.593 75.8762 198.593 76.8762H213.093C211.593 65.8762 221.093 42.3762 246.094 51.3762C256.594 45.8762 266.594 40.3762 277.594 34.1762Z" stroke="black" stroke-width="0.5"/>
<path d="M278.592 33.8762C266.592 40.3762 256.592 45.8762 246.092 51.3762C250.592 54.3762 261.092 60.3762 260.092 79.3762L285.092 78.8762V77.3762C293.592 76.3762 302.092 79.8762 300.592 65.8762L302.592 55.8762C302.592 54.3762 300.092 50.3762 297.592 49.8762C299.092 47.3762 296.092 38.3762 296.092 38.3762V36.8762L292.092 33.8762L287.092 32.3762L283.592 31.8762L278.592 33.8762Z" stroke="black" stroke-width="0.5"/>
<path d="M296.092 36.8762L296.086 36.7964M296.086 36.7964L295.592 28.3762L281.592 26.3762L273.092 27.8762L283.592 31.8762C293.092 32.8762 292.091 34.3762 296.086 36.7964Z" stroke="black" stroke-width="0.5"/>
<path d="M294.594 36.3764C294.094 33.8763 283.094 33.6762 277.594 34.1762" stroke="black" stroke-width="0.5"/>
<path d="M300.594 66.3762L261.094 68.3762C260.594 63.3762 258.427 59.2096 256.594 57.3762L302.594 54.8762M301.094 52.3762C290.094 50.8762 279.094 46.0762 267.094 40.0762M229.094 30.3762L273.094 27.8762L281.594 26.3762" stroke="black" stroke-width="0.5"/>
<path d="M273.094 42.8762C280.089 43.226 286.106 43.3311 291.487 43.8762M298.094 44.8762C295.991 44.4256 293.798 44.1103 291.487 43.8762M296.094 37.3762C295.676 36.7911 295.207 36.2619 294.703 35.7862M291.487 43.8762C291.161 43.5315 291.067 43.0084 291.052 42.3762M291.052 42.3762C291.038 41.7859 291.094 41.1005 291.094 40.3762C291.094 38.3762 290.094 34.3762 286.594 32.3762C288.815 32.3762 292.191 33.4166 294.703 35.7862M291.052 42.3762C294.094 40.8762 295.166 37.3162 294.703 35.7862" stroke="black" stroke-width="0.5"/>
<path d="M291.094 40.3762C286.594 40.3762 284.594 36.3762 283.594 33.8762" stroke="black" stroke-width="0.5"/>
<path d="M133.092 12.4762C119.592 16.4762 107.592 22.3762 93.5923 35.3762C100.592 23.3762 116.092 13.8762 131.592 8.87622L133.092 12.4762Z" fill="#EFC7D3" stroke="black" stroke-width="0.5"/>
<path d="M131.592 8.87622C111.592 14.5503 93.5923 31.8762 85.5923 29.8762C98.5923 20.3762 114.592 11.8762 131.092 7.37622L131.592 8.87622Z" fill="#EFC7D3" stroke="black" stroke-width="0.5"/>
<path d="M10.593 47.8761H4.59295C2.09229 51.8761 2.09229 61.8761 2.59295 65.3761C1.09229 66.3761 1.09288 70.8761 2.09295 72.3761L6.09295 72.8761V74.3761L2.09295 76.3761V78.3761C6.09295 79.3761 14.593 81.3761 22.593 80.8761V79.3761H40.0929C39.4263 70.8761 41.0929 60.3761 50.0929 53.3761C47.5929 49.3761 40.5929 44.8761 37.5929 44.3761C27.5929 43.3761 12.593 45.8761 10.593 47.8761Z" fill="#EFC7D3" stroke="black" stroke-width="0.5"/>
<path d="M93.5938 35.3762C75.7604 36.2096 44.0938 41.0762 33.5938 44.0762L37.5938 44.3762C42.5938 45.8762 48.0938 50.2096 50.0938 53.3762C63.0928 43.8762 88.5928 50.8762 87.0928 78.3762H97.0928C90.0928 67.3762 91.0928 45.3762 93.5938 35.3762Z" fill="#EFC7D3" stroke="black" stroke-width="0.5"/>
<path d="M10.5918 47.8763H4.5918C37.092 28.3762 59.092 34.3762 85.0918 29.8762L94.092 35.3762C77.092 36.3762 48.0918 39.8762 34.0918 44.0762C26.0918 43.8762 12.0918 45.8762 10.5918 47.8763Z" fill="#EFC7D3" stroke="black" stroke-width="0.5"/>
<path d="M37.5937 44.3763C30.0937 43.3762 13.0937 45.3762 10.5937 47.8763C9.79374 50.2762 12.9271 53.2096 14.5937 54.3762C24.0938 55.8762 37.5937 49.8762 37.5937 44.3763Z" fill="#EFC7D3" stroke="black" stroke-width="0.5"/>
<path d="M4.59298 47.8762C11.593 48.8762 5.59298 59.3762 2.59298 64.3762C2.09291 57.3762 2.59277 51.8762 4.59298 47.8762Z" fill="#EFC7D3" stroke="black" stroke-width="0.5"/>
<path d="M22.5923 83.8762V79.3762H40.0923L40.5923 83.8762H22.5923Z" fill="#EFC7D3" stroke="black" stroke-width="0.5"/>
<path d="M3.09375 65.376C4.59375 67.876 6.59375 71.0426 6.09375 72.876M22.5938 79.376C12.0938 79.876 7.59375 75.876 8.59375 72.376C9.09375 71.876 10.5938 70.376 11.5938 70.376" stroke="black" stroke-width="0.5"/>
<path d="M32.5938 74.3761C30.0938 70.3761 24.5938 65.3762 21.5938 63.8762C19.8437 63.3762 17.2186 63.5012 14.4685 63.8762C12.8436 65.2095 11.5938 68.3761 12.0938 71.3761C12.0938 72.5428 13.4012 74.8761 16.0938 74.8761C20.5938 74.8761 27.5938 75.3761 32.5938 74.3761Z" fill="#EFC7D3"/>
<path d="M6.59375 65.3762C8.84369 64.8762 11.7186 64.2512 14.4685 63.8762M14.4685 63.8762C17.2186 63.5012 19.8437 63.3762 21.5938 63.8762C24.5938 65.3762 30.0938 70.3761 32.5938 74.3761C27.5938 75.3761 20.5938 74.8761 16.0938 74.8761C13.4012 74.8761 12.0938 72.5428 12.0938 71.3761C11.5938 68.3761 12.8436 65.2095 14.4685 63.8762Z" stroke="black" stroke-width="0.5"/>
<path d="M12.0938 70.8762C20.0938 69.3762 23.5938 72.0047 26.5938 73.5047M13.5938 73.8762L31.0938 73.3762" stroke="black" stroke-width="0.5"/>
<path d="M22.5918 82.376H32.0918C34.0918 82.376 35.5918 80.376 35.0918 79.376M38.5918 79.376V83.876" stroke="black" stroke-width="0.5"/>
<path d="M22.5937 80.8765C18.0937 80.8765 13.5937 81.3765 2.0937 78.3765V76.3765L6.0937 74.3765V72.8765L2.0937 72.3765C1.59277 70.8762 0.592969 67.8762 2.59296 65.3762C2.09321 57.3762 2.59321 50.8762 4.5937 47.876C37.0937 28.3764 59.0937 34.3764 85.0937 29.8764C163.094 -25.1237 245.094 11.8762 282.094 26.3764L295.594 28.3762L296.094 35.3762V38.3762C297.592 43.3762 298.927 47.8762 297.594 49.8762C300.094 50.8762 302.594 54.0429 302.594 55.8762L300.594 65.8762C301.046 76.7241 298.638 76.9484 289.306 77.2609C288.315 77.294 286.246 77.3282 285.094 77.3762V78.8762L260.094 79.3073M22.5937 80.8765V83.8765H40.592L40.0937 79.3765M22.5937 80.8765V79.3765H40.0937M40.0937 79.3765C37.0937 37.8765 90.5937 40.8765 87.0937 79.8765V82.3762H213.594C207.594 38.8762 262.094 38.8762 260.094 79.3073M259.592 79.3073H260.094" stroke="black"/>
</svg>
