<svg width="303" height="96" viewBox="0 0 303 96" fill="none" xmlns="http://www.w3.org/2000/svg">
<circle cx="62.8955" cy="74.1692" r="20.5" fill="#EFC7D3" stroke="black"/>
<circle cx="235.896" cy="74.1692" r="20.5" fill="#EFC7D3" stroke="black"/>
<path d="M132.894 12.669L131.394 9.16904C171.394 1.16916 192.894 1.66919 231.894 13.1691L228.394 17.6691C208.394 9.6691 190.394 8.6691 174.394 8.16917C171.894 7.66917 167.894 7.66913 165.394 8.16904C155.394 8.16917 143.394 9.66917 132.894 12.669Z" stroke="black" stroke-width="0.5"/>
<path d="M131.394 9.16923L130.894 7.66923C166.894 -3.33081 199.394 0.669064 234.894 9.66924L231.894 13.1692C191.894 0.669189 165.894 2.16919 131.394 9.16923Z" stroke="black" stroke-width="0.5"/>
<path d="M131.394 9.16918C182.894 -2.33085 211.394 7.66919 231.894 13.1692" stroke="black" stroke-width="0.5"/>
<path d="M226.896 30.6692L223.896 16.1692C219.396 14.6692 207.896 9.16919 174.396 8.16919L170.896 30.1692C181.896 29.6692 199.396 28.1692 226.396 28.1692" stroke="black" stroke-width="0.5"/>
<path d="M165.396 8.16919C132.396 9.16919 112.396 18.1692 93.3955 35.6692L95.8955 33.6692L159.896 30.6692L165.396 8.16919Z" stroke="black" stroke-width="0.5"/>
<path d="M239.894 22.6692C236.227 20.0025 230.394 17.6692 223.894 16.1692L226.394 28.1692H232.894C235.894 26.6692 238.894 24.4379 239.894 22.6692Z" stroke="black" stroke-width="0.5"/>
<path d="M96.8955 78.6692H163.896L198.396 77.1692M96.8955 78.6692C96.8955 80.1692 97.3955 81.1692 98.3955 82.6692M96.8955 78.6692H86.8955V82.6692H98.3955M198.396 77.1692L199.396 82.6692M198.396 77.1692H212.896L213.396 82.6692H199.396M199.396 82.6692H98.3955" stroke="black" stroke-width="0.5"/>
<path d="M96.8946 78.6692C92.3955 74.1692 89.3956 52.1692 93.3946 35.6692L165.396 31.6692C161.396 36.6692 160.396 70.6692 163.896 78.6692H96.8946Z" stroke="black" stroke-width="0.5"/>
<path d="M228.895 30.6692L165.395 31.6692C161.396 36.6692 160.396 70.6692 163.895 78.6692L198.395 77.1692C202.895 75.6692 209.395 70.1692 228.895 30.6692Z" stroke="black" stroke-width="0.5"/>
<path d="M170.896 30.1693C166.396 30.6693 162.896 30.6693 159.896 30.6693L165.396 8.16926C168.396 7.66919 171.396 7.66919 174.396 8.16926L170.896 30.1693Z" stroke="black" stroke-width="0.5"/>
<path d="M99.3955 32.1693C103.896 37.6693 110.896 34.1693 114.896 32.6693C115.896 17.1692 102.896 25.1692 99.3955 32.1693Z" stroke="black" stroke-width="0.5"/>
<path d="M234.894 9.66919L231.894 13.1692C248.894 18.6692 259.394 21.6692 271.894 28.1692H273.394L281.394 26.6692C266.394 20.1692 258.894 17.6692 234.894 9.66919Z" stroke="black" stroke-width="0.5"/>
<path d="M271.894 28.1692C261.394 22.6692 242.394 16.1692 231.894 13.1692L229.894 15.6692L244.894 23.1692C243.394 25.6692 239.394 27.6692 233.394 30.3692C245.394 29.6692 262.394 28.6692 271.894 28.1692Z" stroke="black" stroke-width="0.5"/>
<path d="M277.396 34.4692L283.394 32.1692L272.895 28.1692L228.895 30.6692C221.395 45.6692 206.395 76.1692 198.395 77.1692H212.895C211.395 66.1692 220.895 42.6692 245.896 51.6692C256.396 46.1692 266.396 40.6692 277.396 34.4692Z" stroke="black" stroke-width="0.5"/>
<path d="M278.394 34.1692C266.394 40.6692 256.394 46.1692 245.894 51.6692C250.394 54.6692 260.894 60.6692 259.894 79.6692L284.894 79.1692V77.6692C293.394 76.6692 301.894 80.1692 300.394 66.1692L302.394 56.1692C302.394 54.6692 299.894 50.6692 297.394 50.1692C298.894 47.6692 295.894 38.6692 295.894 38.6692V37.1692L291.894 34.1692L286.894 32.6692L283.394 32.1692L278.394 34.1692Z" stroke="black" stroke-width="0.5"/>
<path d="M295.894 37.1692L295.888 37.0894M295.888 37.0894L295.394 28.6692L281.394 26.6692L272.894 28.1692L283.394 32.1692C292.894 33.1692 291.892 34.6692 295.888 37.0894Z" stroke="black" stroke-width="0.5"/>
<path d="M294.396 36.6694C293.896 34.1693 282.896 33.9692 277.396 34.4692" stroke="black" stroke-width="0.5"/>
<path d="M300.396 66.6692L260.896 68.6692C260.396 63.6692 258.229 59.5025 256.396 57.6692L302.396 55.1692M300.896 52.6692C289.896 51.1692 278.896 46.3692 266.896 40.3692M228.896 30.6692L272.896 28.1692L281.396 26.6692" stroke="black" stroke-width="0.5"/>
<path d="M272.896 43.1692C279.891 43.519 285.908 43.6241 291.289 44.1692M297.896 45.1692C295.793 44.7185 293.599 44.4033 291.289 44.1692M295.896 37.6692C295.478 37.0841 295.008 36.5548 294.504 36.0792M291.289 44.1692C290.962 43.8244 290.868 43.3014 290.854 42.6692M290.854 42.6692C290.84 42.0789 290.896 41.3935 290.896 40.6692C290.896 38.6692 289.896 34.6692 286.396 32.6692C288.616 32.6692 291.993 33.7096 294.504 36.0792M290.854 42.6692C293.896 41.1692 294.968 37.6092 294.504 36.0792" stroke="black" stroke-width="0.5"/>
<path d="M290.896 40.6692C286.396 40.6692 284.396 36.6692 283.396 34.1692" stroke="black" stroke-width="0.5"/>
<path d="M132.894 12.7692C119.394 16.7692 107.394 22.6692 93.394 35.6692C100.394 23.6692 115.894 14.1692 131.394 9.16919L132.894 12.7692Z" stroke="black" stroke-width="0.5"/>
<path d="M131.394 9.16919C111.394 14.8432 93.394 32.1692 85.394 30.1692C98.394 20.6692 114.394 12.1692 130.894 7.66919L131.394 9.16919Z" stroke="black" stroke-width="0.5"/>
<path d="M10.3947 48.1692H4.39471C1.89404 52.1692 1.89404 62.1692 2.39471 65.6692C0.894043 66.6692 0.89464 71.1692 1.89471 72.6692L5.89471 73.1692V74.6692L1.89471 76.6692V78.6692C5.89471 79.6692 14.3947 81.6692 22.3947 81.1692V79.6692H39.8947C39.228 71.1692 40.8947 60.6692 49.8947 53.6692C47.3947 49.6692 40.3947 45.1692 37.3947 44.6692C27.3947 43.6692 12.3947 46.1692 10.3947 48.1692Z" stroke="black" stroke-width="0.5"/>
<path d="M93.3955 35.6692C75.5622 36.5025 43.8955 41.3692 33.3955 44.3692L37.3955 44.6692C42.3955 46.1692 47.8955 50.5025 49.8955 53.6692C62.8945 44.1692 88.3945 51.1692 86.8945 78.6692H96.8945C89.8945 67.6692 90.8945 45.6692 93.3955 35.6692Z" stroke="black" stroke-width="0.5"/>
<path d="M10.3936 48.1692H4.39355C36.8937 28.6691 58.8938 34.6692 84.8936 30.1692L93.8938 35.6692C76.8938 36.6692 47.8936 40.1692 33.8936 44.3692C25.8936 44.1692 11.8936 46.1692 10.3936 48.1692Z" stroke="black" stroke-width="0.5"/>
<path d="M37.3955 44.6693C29.8955 43.6692 12.8955 45.6692 10.3955 48.1693C9.5955 50.5692 12.7288 53.5025 14.3955 54.6692C23.8955 56.1692 37.3955 50.1692 37.3955 44.6693Z" stroke="black" stroke-width="0.5"/>
<path d="M4.39474 48.1692C11.3947 49.1692 5.39474 59.6692 2.39474 64.6692C1.89467 57.6692 2.39453 52.1692 4.39474 48.1692Z" stroke="black" stroke-width="0.5"/>
<path d="M22.394 84.1692V79.6692H39.894L40.394 84.1692H22.394Z" stroke="black" stroke-width="0.5"/>
<path d="M2.89551 65.6692C4.39551 68.1692 6.39551 71.3359 5.89551 73.1692M22.3955 79.6692C11.8955 80.1692 7.39551 76.1692 8.39551 72.6692C8.89551 72.1692 10.3955 70.6692 11.3955 70.6692" stroke="black" stroke-width="0.5"/>
<path d="M6.39551 65.6693C8.64545 65.1692 11.5204 64.5443 14.2703 64.1693M14.2703 64.1693C17.0204 63.7943 19.6455 63.6693 21.3955 64.1693C24.3955 65.6693 29.8955 70.6692 32.3955 74.6692C27.3955 75.6692 20.3955 75.1692 15.8955 75.1692C13.2029 75.1692 11.8955 72.8359 11.8955 71.6692C11.3955 68.6692 12.6454 65.5026 14.2703 64.1693Z" stroke="black" stroke-width="0.5"/>
<path d="M11.8955 71.1693C19.8955 69.6693 23.3955 72.2978 26.3955 73.7978M13.3955 74.1693L30.8955 73.6693" stroke="black" stroke-width="0.5"/>
<path d="M22.3936 82.6692H31.8936C33.8936 82.6692 35.3936 80.6692 34.8936 79.6692M38.3936 79.6692V84.1692" stroke="black" stroke-width="0.5"/>
<path d="M22.3955 81.1694C17.8955 81.1694 13.3955 81.6694 1.89545 78.6694V76.6694L5.89545 74.6694V73.1694L1.89545 72.6694C1.39453 71.1692 0.394727 68.1692 2.39472 65.6692C1.89497 57.6692 2.39497 51.1692 4.39545 48.1689C36.8955 28.6693 58.8954 34.6694 84.8954 30.1694C162.895 -24.8307 244.895 12.1692 281.895 26.6694L295.395 28.6692L295.895 35.6692V38.6692C297.394 43.6692 298.729 48.1692 297.395 50.1692C299.895 51.1692 302.395 54.3359 302.395 56.1692L300.395 66.1692C300.847 77.0171 298.439 77.2414 289.108 77.5538C288.117 77.587 286.048 77.6212 284.895 77.6692V79.1692L259.895 79.6002M22.3955 81.1694V84.1694H40.3938L39.8955 79.6694M22.3955 81.1694V79.6694H39.8955M39.8955 79.6694C36.8955 38.1694 90.3954 41.1694 86.8954 80.1694V82.6692H213.395C207.395 39.1692 261.895 39.1692 259.895 79.6002M259.394 79.6002H259.895" stroke="black"/>
</svg>
