<svg width="303" height="96" viewBox="0 0 303 96" fill="none" xmlns="http://www.w3.org/2000/svg">
<circle cx="62.8955" cy="74.3384" r="20.5" fill="#EFC7D3" stroke="black"/>
<circle cx="235.896" cy="74.3384" r="20.5" fill="#EFC7D3" stroke="black"/>
<path d="M132.894 12.8382L131.394 9.33823C171.394 1.33835 192.894 1.83838 231.894 13.3383L228.394 17.8383C208.394 9.83829 190.394 8.83829 174.394 8.33836C171.894 7.83836 167.894 7.83832 165.394 8.33823C155.394 8.33836 143.394 9.83836 132.894 12.8382Z" stroke="black" stroke-width="0.5"/>
<path d="M131.394 9.33842L130.894 7.83842C166.894 -3.16162 199.394 0.838253 234.894 9.83842L231.894 13.3384C191.894 0.838379 165.894 2.33838 131.394 9.33842Z" stroke="black" stroke-width="0.5"/>
<path d="M131.394 9.33837C182.894 -2.16166 211.394 7.83838 231.894 13.3384" stroke="black" stroke-width="0.5"/>
<path d="M226.896 30.8384L223.896 16.3384C219.396 14.8384 207.896 9.33838 174.396 8.33838L170.896 30.3384C181.896 29.8384 199.396 28.3384 226.396 28.3384" stroke="black" stroke-width="0.5"/>
<path d="M165.396 8.33838C132.396 9.33838 112.396 18.3384 93.3955 35.8384L95.8955 33.8384L159.896 30.8384L165.396 8.33838Z" stroke="black" stroke-width="0.5"/>
<path d="M239.894 22.8384C236.227 20.1717 230.394 17.8384 223.894 16.3384L226.394 28.3384H232.894C235.894 26.8384 238.894 24.6071 239.894 22.8384Z" stroke="black" stroke-width="0.5"/>
<path d="M96.8955 78.8384H163.896L198.396 77.3384M96.8955 78.8384C96.8955 80.3384 97.3955 81.3384 98.3955 82.8384M96.8955 78.8384H86.8955V82.8384H98.3955M198.396 77.3384L199.396 82.8384M198.396 77.3384H212.896L213.396 82.8384H199.396M199.396 82.8384H98.3955" stroke="black" stroke-width="0.5"/>
<path d="M96.8946 78.8384C92.3955 74.3384 89.3956 52.3384 93.3946 35.8384L165.396 31.8384C161.396 36.8384 160.396 70.8384 163.896 78.8384H96.8946Z" stroke="black" stroke-width="0.5"/>
<path d="M228.895 30.8384L165.395 31.8384C161.396 36.8384 160.396 70.8384 163.895 78.8384L198.395 77.3384C202.895 75.8384 209.395 70.3384 228.895 30.8384Z" stroke="black" stroke-width="0.5"/>
<path d="M170.896 30.3385C166.396 30.8385 162.896 30.8385 159.896 30.8385L165.396 8.33845C168.396 7.83838 171.396 7.83838 174.396 8.33845L170.896 30.3385Z" stroke="black" stroke-width="0.5"/>
<path d="M99.3955 32.3385C103.896 37.8385 110.896 34.3385 114.896 32.8385C115.896 17.3384 102.896 25.3384 99.3955 32.3385Z" stroke="black" stroke-width="0.5"/>
<path d="M234.894 9.83838L231.894 13.3384C248.894 18.8384 259.394 21.8384 271.894 28.3384H273.394L281.394 26.8384C266.394 20.3384 258.894 17.8384 234.894 9.83838Z" stroke="black" stroke-width="0.5"/>
<path d="M271.894 28.3384C261.394 22.8384 242.394 16.3384 231.894 13.3384L229.894 15.8384L244.894 23.3384C243.394 25.8384 239.394 27.8384 233.394 30.5384C245.394 29.8384 262.394 28.8384 271.894 28.3384Z" stroke="black" stroke-width="0.5"/>
<path d="M277.396 34.6384L283.394 32.3384L272.895 28.3384L228.895 30.8384C221.395 45.8384 206.395 76.3384 198.395 77.3384H212.895C211.395 66.3384 220.895 42.8384 245.896 51.8384C256.396 46.3384 266.396 40.8384 277.396 34.6384Z" stroke="black" stroke-width="0.5"/>
<path d="M278.394 34.3384C266.394 40.8384 256.394 46.3384 245.894 51.8384C250.394 54.8384 260.894 60.8384 259.894 79.8384L284.894 79.3384V77.8384C293.394 76.8384 301.894 80.3384 300.394 66.3384L302.394 56.3384C302.394 54.8384 299.894 50.8384 297.394 50.3384C298.894 47.8384 295.894 38.8384 295.894 38.8384V37.3384L291.894 34.3384L286.894 32.8384L283.394 32.3384L278.394 34.3384Z" stroke="black" stroke-width="0.5"/>
<path d="M295.894 37.3384L295.888 37.2586M295.888 37.2586L295.394 28.8384L281.394 26.8384L272.894 28.3384L283.394 32.3384C292.894 33.3384 291.892 34.8384 295.888 37.2586Z" stroke="black" stroke-width="0.5"/>
<path d="M294.396 36.8386C293.896 34.3385 282.896 34.1384 277.396 34.6384" stroke="black" stroke-width="0.5"/>
<path d="M300.396 66.8384L260.896 68.8384C260.396 63.8384 258.229 59.6717 256.396 57.8384L302.396 55.3384M300.896 52.8384C289.896 51.3384 278.896 46.5384 266.896 40.5384M228.896 30.8384L272.896 28.3384L281.396 26.8384" stroke="black" stroke-width="0.5"/>
<path d="M272.896 43.3384C279.891 43.6882 285.908 43.7933 291.289 44.3384M297.896 45.3384C295.793 44.8877 293.599 44.5725 291.289 44.3384M295.896 37.8384C295.478 37.2533 295.008 36.724 294.504 36.2484M291.289 44.3384C290.962 43.9936 290.868 43.4706 290.854 42.8384M290.854 42.8384C290.84 42.2481 290.896 41.5627 290.896 40.8384C290.896 38.8384 289.896 34.8384 286.396 32.8384C288.616 32.8384 291.993 33.8788 294.504 36.2484M290.854 42.8384C293.896 41.3384 294.968 37.7784 294.504 36.2484" stroke="black" stroke-width="0.5"/>
<path d="M290.896 40.8384C286.396 40.8384 284.396 36.8384 283.396 34.3384" stroke="black" stroke-width="0.5"/>
<path d="M132.894 12.9384C119.394 16.9384 107.394 22.8384 93.394 35.8384C100.394 23.8384 115.894 14.3384 131.394 9.33838L132.894 12.9384Z" fill="#EFC7D3" stroke="black" stroke-width="0.5"/>
<path d="M131.394 9.33838C111.394 15.0124 93.394 32.3384 85.394 30.3384C98.394 20.8384 114.394 12.3384 130.894 7.83838L131.394 9.33838Z" fill="#EFC7D3" stroke="black" stroke-width="0.5"/>
<path d="M10.3947 48.3384H4.39471C1.89404 52.3384 1.89404 62.3384 2.39471 65.8384C0.894043 66.8384 0.89464 71.3384 1.89471 72.8384L5.89471 73.3384V74.8384L1.89471 76.8384V78.8384C5.89471 79.8384 14.3947 81.8384 22.3947 81.3384V79.8384H39.8947C39.228 71.3384 40.8947 60.8384 49.8947 53.8384C47.3947 49.8384 40.3947 45.3384 37.3947 44.8384C27.3947 43.8384 12.3947 46.3384 10.3947 48.3384Z" fill="#EFC7D3" stroke="black" stroke-width="0.5"/>
<path d="M93.3955 35.8384C75.5622 36.6717 43.8955 41.5384 33.3955 44.5384L37.3955 44.8384C42.3955 46.3384 47.8955 50.6717 49.8955 53.8384C62.8945 44.3384 88.3945 51.3384 86.8945 78.8384H96.8945C89.8945 67.8384 90.8945 45.8384 93.3955 35.8384Z" fill="#EFC7D3" stroke="black" stroke-width="0.5"/>
<path d="M10.3936 48.3384H4.39355C36.8937 28.8383 58.8938 34.8384 84.8936 30.3384L93.8938 35.8384C76.8938 36.8384 47.8936 40.3384 33.8936 44.5384C25.8936 44.3384 11.8936 46.3384 10.3936 48.3384Z" fill="#EFC7D3" stroke="black" stroke-width="0.5"/>
<path d="M37.3955 44.8385C29.8955 43.8384 12.8955 45.8384 10.3955 48.3385C9.5955 50.7384 12.7288 53.6717 14.3955 54.8384C23.8955 56.3384 37.3955 50.3384 37.3955 44.8385Z" fill="#EFC7D3" stroke="black" stroke-width="0.5"/>
<path d="M4.39474 48.3384C11.3947 49.3384 5.39474 59.8384 2.39474 64.8384C1.89467 57.8384 2.39453 52.3384 4.39474 48.3384Z" fill="#EFC7D3" stroke="black" stroke-width="0.5"/>
<path d="M22.394 84.3384V79.8384H39.894L40.394 84.3384H22.394Z" fill="#EFC7D3" stroke="black" stroke-width="0.5"/>
<path d="M2.89551 65.8384C4.39551 68.3384 6.39551 71.505 5.89551 73.3384M22.3955 79.8384C11.8955 80.3384 7.39551 76.3384 8.39551 72.8384C8.89551 72.3384 10.3955 70.8384 11.3955 70.8384" stroke="black" stroke-width="0.5"/>
<path d="M32.3955 74.8384C29.8955 70.8384 24.3955 65.8385 21.3955 64.3385C19.6455 63.8384 17.0204 63.9634 14.2703 64.3385C12.6454 65.6718 11.3955 68.8384 11.8955 71.8384C11.8955 73.005 13.2029 75.3384 15.8955 75.3384C20.3955 75.3384 27.3955 75.8384 32.3955 74.8384Z" fill="#EFC7D3"/>
<path d="M6.39551 65.8385C8.64545 65.3384 11.5204 64.7135 14.2703 64.3385M14.2703 64.3385C17.0204 63.9634 19.6455 63.8384 21.3955 64.3385C24.3955 65.8385 29.8955 70.8384 32.3955 74.8384C27.3955 75.8384 20.3955 75.3384 15.8955 75.3384C13.2029 75.3384 11.8955 73.005 11.8955 71.8384C11.3955 68.8384 12.6454 65.6718 14.2703 64.3385Z" stroke="black" stroke-width="0.5"/>
<path d="M11.8955 71.3385C19.8955 69.8385 23.3955 72.467 26.3955 73.967M13.3955 74.3385L30.8955 73.8385" stroke="black" stroke-width="0.5"/>
<path d="M22.3936 82.8384H31.8936C33.8936 82.8384 35.3936 80.8384 34.8936 79.8384M38.3936 79.8384V84.3384" stroke="black" stroke-width="0.5"/>
<path d="M22.3955 81.3386C17.8955 81.3386 13.3955 81.8386 1.89545 78.8386V76.8386L5.89545 74.8386V73.3386L1.89545 72.8386C1.39453 71.3384 0.394727 68.3384 2.39472 65.8384C1.89497 57.8384 2.39497 51.3384 4.39545 48.3381C36.8955 28.8385 58.8954 34.8386 84.8954 30.3386C162.895 -24.6615 244.895 12.3384 281.895 26.8386L295.395 28.8384L295.895 35.8384V38.8384C297.394 43.8384 298.729 48.3384 297.395 50.3384C299.895 51.3384 302.395 54.505 302.395 56.3384L300.395 66.3384C300.847 77.1863 298.439 77.4106 289.108 77.723C288.117 77.7562 286.048 77.7904 284.895 77.8384V79.3384L259.895 79.7694M22.3955 81.3386V84.3386H40.3938L39.8955 79.8386M22.3955 81.3386V79.8386H39.8955M39.8955 79.8386C36.8955 38.3386 90.3954 41.3386 86.8954 80.3386V82.8384H213.395C207.395 39.3384 261.895 39.3384 259.895 79.7694M259.394 79.7694H259.895" stroke="black"/>
</svg>
