<svg width="303" height="96" viewBox="0 0 303 96" fill="none" xmlns="http://www.w3.org/2000/svg">
<circle cx="62.8955" cy="74.3838" r="20.5" fill="#EFC7D3" stroke="black"/>
<circle cx="235.896" cy="74.3838" r="20.5" fill="#EFC7D3" stroke="black"/>
<path d="M132.894 12.8836L131.394 9.38364C171.394 1.38376 192.894 1.88379 231.894 13.3837L228.394 17.8837C208.394 9.8837 190.394 8.8837 174.394 8.38377C171.894 7.88377 167.894 7.88373 165.394 8.38364C155.394 8.38377 143.394 9.88377 132.894 12.8836Z" fill="#E56E90" stroke="black" stroke-width="0.5"/>
<path d="M131.394 9.38383L130.894 7.88383C166.894 -3.11621 199.394 0.883663 234.894 9.88383L231.894 13.3838C191.894 0.883789 165.894 2.38379 131.394 9.38383Z" fill="#E56E90" stroke="black" stroke-width="0.5"/>
<path d="M131.394 9.3839C182.894 -2.11613 211.394 7.88391 231.894 13.3839" stroke="black" stroke-width="0.5"/>
<path d="M170.896 30.3838L174.396 8.38379C207.896 9.38379 219.396 14.8838 223.896 16.3838L226.378 28.3838C199.388 28.3844 181.893 29.8839 170.896 30.3838Z" fill="#E56E90"/>
<path d="M226.896 30.8838L223.896 16.3838C219.396 14.8838 207.896 9.38379 174.396 8.38379L170.896 30.3838C181.896 29.8838 199.396 28.3838 226.396 28.3838" stroke="black" stroke-width="0.5"/>
<path d="M165.396 8.38379C132.396 9.38379 112.396 18.3838 93.3955 35.8838L95.8955 33.8838L159.896 30.8838L165.396 8.38379Z" fill="#E56E90" stroke="black" stroke-width="0.5"/>
<path d="M239.894 22.8838C236.227 20.2171 230.394 17.8838 223.894 16.3838L226.394 28.3838H232.894C235.894 26.8838 238.894 24.6525 239.894 22.8838Z" fill="#E56E90" stroke="black" stroke-width="0.5"/>
<path d="M96.8955 78.8838H163.896L198.396 77.3838H212.896L213.396 82.8838H199.396H98.3955H86.8955V78.8838H96.8955Z" fill="#E56E90"/>
<path d="M96.8955 78.8838H163.896L198.396 77.3838M96.8955 78.8838C96.8955 80.3838 97.3955 81.3838 98.3955 82.8838M96.8955 78.8838H86.8955V82.8838H98.3955M198.396 77.3838L199.396 82.8838M198.396 77.3838H212.896L213.396 82.8838H199.396M199.396 82.8838H98.3955" stroke="black" stroke-width="0.5"/>
<path d="M96.8946 78.8838C92.3955 74.3838 89.3956 52.3838 93.3946 35.8838L165.396 31.8838C161.396 36.8838 160.396 70.8838 163.896 78.8838H96.8946Z" fill="#E56E90" stroke="black" stroke-width="0.5"/>
<path d="M228.895 30.8838L165.395 31.8838C161.396 36.8838 160.396 70.8838 163.895 78.8838L198.395 77.3838C202.895 75.8838 209.395 70.3838 228.895 30.8838Z" fill="#E56E90" stroke="black" stroke-width="0.5"/>
<path d="M170.896 30.3839C166.396 30.8839 162.896 30.8839 159.896 30.8839L165.396 8.38386C168.396 7.88379 171.396 7.88379 174.396 8.38386L170.896 30.3839Z" fill="#E56E90" stroke="black" stroke-width="0.5"/>
<path d="M99.3955 32.384C103.896 37.884 110.896 34.384 114.896 32.884C115.896 17.3839 102.896 25.3839 99.3955 32.384Z" fill="#E56E90" stroke="black" stroke-width="0.5"/>
<path d="M234.894 9.88379L231.894 13.3838C248.894 18.8838 259.394 21.8838 271.894 28.3838H273.394L281.394 26.8838C266.394 20.3838 258.894 17.8838 234.894 9.88379Z" stroke="black" stroke-width="0.5"/>
<path d="M271.894 28.3838C261.394 22.8838 242.394 16.3838 231.894 13.3838L229.894 15.8838L244.894 23.3838C243.394 25.8838 239.394 27.8838 233.394 30.5838C245.394 29.8838 262.394 28.8838 271.894 28.3838Z" stroke="black" stroke-width="0.5"/>
<path d="M277.396 34.6838L283.394 32.3838L272.895 28.3838L228.895 30.8838C221.395 45.8838 206.395 76.3838 198.395 77.3838H212.895C211.395 66.3838 220.895 42.8838 245.896 51.8838C256.396 46.3838 266.396 40.8838 277.396 34.6838Z" stroke="black" stroke-width="0.5"/>
<path d="M278.394 34.3838C266.394 40.8838 256.394 46.3838 245.894 51.8838C250.394 54.8838 260.894 60.8838 259.894 79.8838L284.894 79.3838V77.8838C293.394 76.8838 301.894 80.3838 300.394 66.3838L302.394 56.3838C302.394 54.8838 299.894 50.8838 297.394 50.3838C298.894 47.8838 295.894 38.8838 295.894 38.8838V37.3838L291.894 34.3838L286.894 32.8838L283.394 32.3838L278.394 34.3838Z" stroke="black" stroke-width="0.5"/>
<path d="M295.894 37.3838L295.888 37.304M295.888 37.304L295.394 28.8838L281.394 26.8838L272.894 28.3838L283.394 32.3838C292.894 33.3838 291.892 34.8838 295.888 37.304Z" stroke="black" stroke-width="0.5"/>
<path d="M294.396 36.884C293.896 34.3839 282.896 34.1838 277.396 34.6838" stroke="black" stroke-width="0.5"/>
<path d="M300.396 66.8838L260.896 68.8838C260.396 63.8838 258.229 59.7171 256.396 57.8838L302.396 55.3838M300.896 52.8838C289.896 51.3838 278.896 46.5838 266.896 40.5838M228.896 30.8838L272.896 28.3838L281.396 26.8838" stroke="black" stroke-width="0.5"/>
<path d="M272.896 43.3838C279.891 43.7336 285.908 43.8387 291.289 44.3838M297.896 45.3838C295.793 44.9331 293.599 44.6179 291.289 44.3838M295.896 37.8838C295.478 37.2987 295.008 36.7694 294.504 36.2938M291.289 44.3838C290.962 44.039 290.868 43.516 290.854 42.8838M290.854 42.8838C290.84 42.2935 290.896 41.6081 290.896 40.8838C290.896 38.8838 289.896 34.8838 286.396 32.8838C288.616 32.8838 291.993 33.9242 294.504 36.2938M290.854 42.8838C293.896 41.3838 294.968 37.8238 294.504 36.2938" stroke="black" stroke-width="0.5"/>
<path d="M290.896 40.8838C286.396 40.8838 284.396 36.8838 283.396 34.3838" stroke="black" stroke-width="0.5"/>
<path d="M132.894 12.9838C119.394 16.9838 107.394 22.8838 93.394 35.8838C100.394 23.8838 115.894 14.3838 131.394 9.38379L132.894 12.9838Z" fill="#E0426F" stroke="black" stroke-width="0.5"/>
<path d="M131.394 9.38379C111.394 15.0578 93.394 32.3838 85.394 30.3838C98.394 20.8838 114.394 12.3838 130.894 7.88379L131.394 9.38379Z" fill="#E0426F" stroke="black" stroke-width="0.5"/>
<path d="M10.3947 48.3837H4.39471C1.89404 52.3837 1.89404 62.3837 2.39471 65.8837C0.894043 66.8837 0.89464 71.3837 1.89471 72.8837L5.89471 73.3837V74.8837L1.89471 76.8837V78.8837C5.89471 79.8837 14.3947 81.8837 22.3947 81.3837V79.8837H39.8947C39.228 71.3837 40.8947 60.8837 49.8947 53.8837C47.3947 49.8837 40.3947 45.3837 37.3947 44.8837C27.3947 43.8837 12.3947 46.3837 10.3947 48.3837Z" fill="#E0426F" stroke="black" stroke-width="0.5"/>
<path d="M93.3955 35.8838C75.5622 36.7171 43.8955 41.5838 33.3955 44.5838L37.3955 44.8838C42.3955 46.3838 47.8955 50.7171 49.8955 53.8838C62.8945 44.3838 88.3945 51.3838 86.8945 78.8838H96.8945C89.8945 67.8838 90.8945 45.8838 93.3955 35.8838Z" fill="#E0426F" stroke="black" stroke-width="0.5"/>
<path d="M10.3936 48.3838H4.39355C36.8937 28.8837 58.8938 34.8838 84.8936 30.3838L93.8938 35.8838C76.8938 36.8838 47.8936 40.3838 33.8936 44.5838C25.8936 44.3838 11.8936 46.3838 10.3936 48.3838Z" fill="#E0426F" stroke="black" stroke-width="0.5"/>
<path d="M37.3955 44.8839C29.8955 43.8838 12.8955 45.8838 10.3955 48.3839C9.5955 50.7838 12.7288 53.7171 14.3955 54.8838C23.8955 56.3838 37.3955 50.3838 37.3955 44.8839Z" fill="#E0426F" stroke="black" stroke-width="0.5"/>
<path d="M4.39474 48.3838C11.3947 49.3838 5.39474 59.8838 2.39474 64.8838C1.89467 57.8838 2.39453 52.3838 4.39474 48.3838Z" fill="#E0426F" stroke="black" stroke-width="0.5"/>
<path d="M22.394 84.3838V79.8838H39.894L40.394 84.3838H22.394Z" fill="#E0426F" stroke="black" stroke-width="0.5"/>
<path d="M2.89551 65.8838C4.39551 68.3838 6.39551 71.5505 5.89551 73.3838M22.3955 79.8838C11.8955 80.3838 7.39551 76.3838 8.39551 72.8838C8.89551 72.3838 10.3955 70.8838 11.3955 70.8838" stroke="black" stroke-width="0.5"/>
<path d="M32.3955 74.8839C29.8955 70.8839 24.3955 65.884 21.3955 64.384C19.6455 63.884 17.0204 64.009 14.2703 64.384C12.6454 65.7173 11.3955 68.8839 11.8955 71.8839C11.8955 73.0506 13.2029 75.3839 15.8955 75.3839C20.3955 75.3839 27.3955 75.8839 32.3955 74.8839Z" fill="#E0426F"/>
<path d="M6.39551 65.884C8.64545 65.384 11.5204 64.759 14.2703 64.384M14.2703 64.384C17.0204 64.009 19.6455 63.884 21.3955 64.384C24.3955 65.884 29.8955 70.8839 32.3955 74.8839C27.3955 75.8839 20.3955 75.3839 15.8955 75.3839C13.2029 75.3839 11.8955 73.0506 11.8955 71.8839C11.3955 68.8839 12.6454 65.7173 14.2703 64.384Z" stroke="black" stroke-width="0.5"/>
<path d="M11.8955 71.384C19.8955 69.884 23.3955 72.5125 26.3955 74.0125M13.3955 74.384L30.8955 73.884" stroke="black" stroke-width="0.5"/>
<path d="M22.3936 82.8838H31.8936C33.8936 82.8838 35.3936 80.8838 34.8936 79.8838M38.3936 79.8838V84.3838" stroke="black" stroke-width="0.5"/>
<path d="M22.3955 81.384C17.8955 81.384 13.3955 81.884 1.89545 78.884V76.884L5.89545 74.884V73.384L1.89545 72.884C1.39453 71.3838 0.394727 68.3838 2.39472 65.8838C1.89497 57.8838 2.39497 51.3838 4.39545 48.3835C36.8955 28.8839 58.8954 34.884 84.8954 30.384C162.895 -24.6161 244.895 12.3838 281.895 26.884L295.395 28.8838L295.895 35.8838V38.8838C297.394 43.8838 298.729 48.3838 297.395 50.3838C299.895 51.3838 302.395 54.5505 302.395 56.3838L300.395 66.3838C300.847 77.2317 298.439 77.456 289.108 77.7684C288.117 77.8016 286.048 77.8358 284.895 77.8838V79.3838L259.895 79.8148M22.3955 81.384V84.384H40.3938L39.8955 79.884M22.3955 81.384V79.884H39.8955M39.8955 79.884C36.8955 38.384 90.3954 41.384 86.8954 80.384V82.8838H213.395C207.395 39.3838 261.895 39.3838 259.895 79.8148M259.394 79.8148H259.895" stroke="black"/>
</svg>
