<svg width="303" height="96" viewBox="0 0 303 96" fill="none" xmlns="http://www.w3.org/2000/svg">
<circle cx="62.6772" cy="74.5378" r="20.5" stroke="black"/>
<circle cx="235.678" cy="74.5378" r="20.5" stroke="black"/>
<path d="M132.676 13.0377L131.176 9.5377C171.176 1.53781 192.676 2.03784 231.676 13.5378L228.176 18.0378C208.176 10.0378 190.176 9.03775 174.176 8.53782C171.676 8.03782 167.676 8.03778 165.176 8.5377C155.176 8.53782 143.176 10.0378 132.676 13.0377Z" fill="#EDADBF" stroke="black" stroke-width="0.5"/>
<path d="M131.176 9.53789L130.676 8.03789C166.676 -2.96216 199.176 1.03772 234.676 10.0379L231.676 13.5379C191.676 1.03784 165.676 2.53784 131.176 9.53789Z" fill="#EDADBF" stroke="black" stroke-width="0.5"/>
<path d="M131.176 9.53771C182.676 -1.96232 211.176 8.03772 231.676 13.5377" stroke="black" stroke-width="0.5"/>
<path d="M170.677 30.5378L174.177 8.53784C207.677 9.53784 219.177 15.0378 223.677 16.5378L226.16 28.5378C199.17 28.5385 181.675 30.0379 170.677 30.5378Z" fill="#EDADBF"/>
<path d="M226.677 31.0378L223.677 16.5378C219.177 15.0378 207.677 9.53784 174.177 8.53784L170.677 30.5378C181.677 30.0378 199.177 28.5378 226.177 28.5378" stroke="black" stroke-width="0.5"/>
<path d="M165.177 8.53784C132.177 9.53784 112.177 18.5378 93.1772 36.0378L95.6772 34.0378L159.677 31.0378L165.177 8.53784Z" fill="#EDADBF" stroke="black" stroke-width="0.5"/>
<path d="M239.676 23.0378C236.009 20.3712 230.176 18.0378 223.676 16.5378L226.176 28.5378H232.676C235.676 27.0378 238.676 24.8066 239.676 23.0378Z" fill="#EDADBF" stroke="black" stroke-width="0.5"/>
<path d="M96.6772 79.0378H163.677L198.177 77.5378H212.677L213.177 83.0378H199.177H98.1772H86.6772V79.0378H96.6772Z" fill="#EDADBF"/>
<path d="M96.6772 79.0378H163.677L198.177 77.5378M96.6772 79.0378C96.6772 80.5378 97.1772 81.5378 98.1772 83.0378M96.6772 79.0378H86.6772V83.0378H98.1772M198.177 77.5378L199.177 83.0378M198.177 77.5378H212.677L213.177 83.0378H199.177M199.177 83.0378H98.1772" stroke="black" stroke-width="0.5"/>
<path d="M96.6764 79.0378C92.1772 74.5378 89.1773 52.5378 93.1764 36.0378L165.177 32.0378C161.177 37.0378 160.177 71.0378 163.677 79.0378H96.6764Z" fill="#EDADBF" stroke="black" stroke-width="0.5"/>
<path d="M228.677 31.0378L165.177 32.0378C161.177 37.0378 160.177 71.0378 163.677 79.0378L198.177 77.5378C202.677 76.0378 209.177 70.5378 228.677 31.0378Z" fill="#EDADBF" stroke="black" stroke-width="0.5"/>
<path d="M170.677 30.5379C166.177 31.0379 162.677 31.0379 159.677 31.0379L165.177 8.53792C168.177 8.03784 171.177 8.03784 174.177 8.53792L170.677 30.5379Z" fill="#EDADBF" stroke="black" stroke-width="0.5"/>
<path d="M99.1772 32.5379C103.677 38.0379 110.677 34.5379 114.677 33.0379C115.677 17.5377 102.677 25.5377 99.1772 32.5379Z" fill="#EDADBF" stroke="black" stroke-width="0.5"/>
<path d="M234.676 10.0378L231.676 13.5378C248.676 19.0378 259.176 22.0378 271.676 28.5378H273.176L281.176 27.0378C266.176 20.5378 258.676 18.0378 234.676 10.0378Z" fill="#EDADBF" stroke="black" stroke-width="0.5"/>
<path d="M271.676 28.5378C261.176 23.0378 242.176 16.5378 231.676 13.5378L229.676 16.0378L244.676 23.5378C243.176 26.0378 239.176 28.0378 233.176 30.7378C245.176 30.0378 262.176 29.0378 271.676 28.5378Z" fill="#EDADBF" stroke="black" stroke-width="0.5"/>
<path d="M277.178 34.8378L283.176 32.5378L272.677 28.5378L228.677 31.0378C221.177 46.0378 206.177 76.5378 198.177 77.5378H212.677C211.177 66.5378 220.677 43.0378 245.678 52.0378C256.178 46.5378 266.178 41.0378 277.178 34.8378Z" fill="#EDADBF" stroke="black" stroke-width="0.5"/>
<path d="M278.176 34.5379C266.176 41.0379 256.176 46.5379 245.676 52.0379C250.176 55.0378 260.676 61.0378 259.676 80.0378L284.676 79.5378V78.0378C293.176 77.0378 301.676 80.5378 300.176 66.5378L302.176 56.5378C302.176 55.0378 299.676 51.0378 297.176 50.5378C298.676 48.0378 295.676 39.0378 295.676 39.0378V37.5378L291.676 34.5378L286.676 33.0378L283.176 32.5378L278.176 34.5379Z" fill="#EDADBF" stroke="black" stroke-width="0.5"/>
<path d="M281.176 27.0378L272.676 28.5378L283.176 32.5378C292.676 33.5378 291.675 35.0378 295.67 37.458L295.176 29.0378L281.176 27.0378Z" fill="#EDADBF"/>
<path d="M295.676 37.5378L295.67 37.458M295.67 37.458L295.176 29.0378L281.176 27.0378L272.676 28.5378L283.176 32.5378C292.676 33.5378 291.675 35.0378 295.67 37.458Z" stroke="black" stroke-width="0.5"/>
<path d="M294.178 37.038C293.678 34.5379 282.678 34.3379 277.178 34.8379" stroke="black" stroke-width="0.5"/>
<path d="M300.178 67.0378L260.678 69.0378C260.178 64.0378 258.011 59.8712 256.178 58.0378L302.178 55.5378M300.678 53.0378C289.678 51.5378 278.678 46.7378 266.678 40.7378M228.678 31.0378L272.678 28.5378L281.178 27.0378" stroke="black" stroke-width="0.5"/>
<path d="M290.678 41.0378C290.678 39.0378 289.678 35.0378 286.178 33.0378C288.399 33.0378 291.775 34.0782 294.287 36.4478C294.75 37.9778 293.678 41.5378 290.636 43.0378C290.622 42.4476 290.678 41.7621 290.678 41.0378Z" fill="#EDADBF"/>
<path d="M272.678 43.5378C279.673 43.8876 285.69 43.9927 291.071 44.5378M297.678 45.5378C295.575 45.0872 293.381 44.7719 291.071 44.5378M295.678 38.0378C295.26 37.4527 294.791 36.9235 294.287 36.4478M291.071 44.5378C290.745 44.1931 290.651 43.67 290.636 43.0378M290.636 43.0378C290.622 42.4476 290.678 41.7621 290.678 41.0378C290.678 39.0378 289.678 35.0378 286.178 33.0378C288.399 33.0378 291.775 34.0782 294.287 36.4478M290.636 43.0378C293.678 41.5378 294.75 37.9778 294.287 36.4478" stroke="black" stroke-width="0.5"/>
<path d="M290.678 41.0378C286.178 41.0378 284.178 37.0378 283.178 34.5378" stroke="black" stroke-width="0.5"/>
<path d="M132.676 13.1378C119.176 17.1378 107.176 23.0378 93.1758 36.0378C100.176 24.0378 115.676 14.5378 131.176 9.53784L132.676 13.1378Z" fill="#E0426F" stroke="black" stroke-width="0.5"/>
<path d="M131.176 9.53784C111.176 15.2119 93.1758 32.5378 85.1758 30.5378C98.1758 21.0378 114.176 12.5378 130.676 8.03784L131.176 9.53784Z" fill="#E0426F" stroke="black" stroke-width="0.5"/>
<path d="M10.1764 48.5377H4.17645C1.67578 52.5377 1.67578 62.5377 2.17645 66.0377C0.675781 67.0377 0.676379 71.5377 1.67645 73.0377L5.67645 73.5377V75.0377L1.67645 77.0377V79.0377C5.67645 80.0377 14.1764 82.0377 22.1764 81.5377V80.0377H39.6764C39.0098 71.5377 40.6764 61.0377 49.6764 54.0377C47.1764 50.0377 40.1764 45.5377 37.1764 45.0377C27.1764 44.0377 12.1764 46.5377 10.1764 48.5377Z" fill="#E0426F" stroke="black" stroke-width="0.5"/>
<path d="M93.1772 36.0378C75.3439 36.8712 43.6772 41.7378 33.1772 44.7378L37.1772 45.0378C42.1772 46.5378 47.6772 50.8712 49.6772 54.0378C62.6763 44.5378 88.1763 51.5378 86.6763 79.0378H96.6763C89.6763 68.0378 90.6763 46.0378 93.1772 36.0378Z" fill="#E0426F" stroke="black" stroke-width="0.5"/>
<path d="M10.1758 48.5379H4.17578C36.676 29.0378 58.676 35.0378 84.6758 30.5378L93.676 36.0378C76.676 37.0378 47.6758 40.5378 33.6758 44.7378C25.6758 44.5378 11.6758 46.5378 10.1758 48.5379Z" fill="#E0426F" stroke="black" stroke-width="0.5"/>
<path d="M37.1772 45.0379C29.6772 44.0378 12.6772 46.0378 10.1772 48.5379C9.37724 50.9379 12.5106 53.8712 14.1772 55.0378C23.6772 56.5378 37.1772 50.5378 37.1772 45.0379Z" fill="#E0426F" stroke="black" stroke-width="0.5"/>
<path d="M4.17648 48.5378C11.1765 49.5378 5.17648 60.0378 2.17648 65.0378C1.67641 58.0378 2.17627 52.5378 4.17648 48.5378Z" fill="#E0426F" stroke="black" stroke-width="0.5"/>
<path d="M22.1758 84.5378V80.0378H39.6758L40.1758 84.5378H22.1758Z" fill="#E0426F" stroke="black" stroke-width="0.5"/>
<path d="M2.67773 66.0376C4.17773 68.5376 6.17773 71.7043 5.67773 73.5376M22.1777 80.0376C11.6777 80.5376 7.17773 76.5376 8.17773 73.0376C8.67773 72.5376 10.1777 71.0376 11.1777 71.0376" stroke="black" stroke-width="0.5"/>
<path d="M32.1777 75.0377C29.6777 71.0377 24.1777 66.0378 21.1777 64.5378C19.4277 64.0378 16.8026 64.1628 14.0525 64.5378C12.4276 65.8711 11.1777 69.0377 11.6777 72.0377C11.6777 73.2044 12.9852 75.5377 15.6777 75.5377C20.1777 75.5377 27.1777 76.0377 32.1777 75.0377Z" fill="#E0426F"/>
<path d="M6.17773 66.0378C8.42768 65.5378 11.3026 64.9128 14.0525 64.5378M14.0525 64.5378C16.8026 64.1628 19.4277 64.0378 21.1777 64.5378C24.1777 66.0378 29.6777 71.0377 32.1777 75.0377C27.1777 76.0377 20.1777 75.5377 15.6777 75.5377C12.9852 75.5377 11.6777 73.2044 11.6777 72.0377C11.1777 69.0377 12.4276 65.8711 14.0525 64.5378Z" stroke="black" stroke-width="0.5"/>
<path d="M11.6777 71.5378C19.6777 70.0378 23.1777 72.6663 26.1777 74.1663M13.1777 74.5378L30.6777 74.0378" stroke="black" stroke-width="0.5"/>
<path d="M22.1758 83.0376H31.6758C33.6758 83.0376 35.1758 81.0376 34.6758 80.0376M38.1758 80.0376V84.5376" stroke="black" stroke-width="0.5"/>
<path d="M22.1772 81.5381C17.6772 81.5381 13.1772 82.0381 1.67719 79.0381V77.0381L5.67719 75.0381V73.5381L1.67719 73.0381C1.17627 71.5378 0.176465 68.5378 2.17646 66.0378C1.6767 58.0378 2.1767 51.5378 4.17719 48.5376C36.6772 29.038 58.6772 35.038 84.6772 30.538C162.677 -24.4621 244.677 12.5378 281.677 27.038L295.177 29.0378L295.677 36.0378V39.0378C297.176 44.0378 298.511 48.5378 297.177 50.5378C299.677 51.5378 302.177 54.7045 302.177 56.5378L300.177 66.5378C300.629 77.3858 298.221 77.61 288.889 77.9225C287.898 77.9557 285.829 77.9898 284.677 78.0378V79.5378L259.677 79.9689M22.1772 81.5381V84.5381H40.1755L39.6772 80.0381M22.1772 81.5381V80.0381H39.6772M39.6772 80.0381C36.6772 38.5381 90.1772 41.5381 86.6772 80.5381V83.0378H213.177C207.177 39.5378 261.677 39.5378 259.677 79.9689M259.176 79.9689H259.677" stroke="black"/>
</svg>
