<svg width="304" height="96" viewBox="0 0 304 96" fill="none" xmlns="http://www.w3.org/2000/svg">
<circle cx="63.0635" cy="74.5076" r="20.5" fill="#EDADBF" stroke="black"/>
<circle cx="236.063" cy="74.5076" r="20.5" fill="#EDADBF" stroke="black"/>
<path d="M133.062 13.0074L131.562 9.50742C171.562 1.50754 193.062 2.00757 232.062 13.5075L228.562 18.0075C208.562 10.0075 190.562 9.00748 174.562 8.50755C172.062 8.00755 168.062 8.00751 165.562 8.50742C155.562 8.50755 143.562 10.0075 133.062 13.0074Z" stroke="black" stroke-width="0.5"/>
<path d="M131.562 9.50761L131.062 8.00761C167.062 -2.99243 199.562 1.00744 235.062 10.0076L232.062 13.5076C192.062 1.00757 166.062 2.50757 131.562 9.50761Z" stroke="black" stroke-width="0.5"/>
<path d="M131.562 9.50756C183.062 -1.99247 211.562 8.00757 232.062 13.5076" stroke="black" stroke-width="0.5"/>
<path d="M227.063 31.0076L224.063 16.5076C219.563 15.0076 208.063 9.50757 174.563 8.50757L171.063 30.5076C182.063 30.0076 199.563 28.5076 226.563 28.5076" stroke="black" stroke-width="0.5"/>
<path d="M165.563 8.50757C132.563 9.50757 112.563 18.5076 93.5635 36.0076L96.0635 34.0076L160.063 31.0076L165.563 8.50757Z" stroke="black" stroke-width="0.5"/>
<path d="M240.062 23.0076C236.395 20.3409 230.562 18.0076 224.062 16.5076L226.562 28.5076H233.062C236.062 27.0076 239.062 24.7763 240.062 23.0076Z" stroke="black" stroke-width="0.5"/>
<path d="M97.0635 79.0076H164.063L198.563 77.5076M97.0635 79.0076C97.0635 80.5076 97.5635 81.5076 98.5635 83.0076M97.0635 79.0076H87.0635V83.0076H98.5635M198.563 77.5076L199.563 83.0076M198.563 77.5076H213.063L213.563 83.0076H199.563M199.563 83.0076H98.5635" stroke="black" stroke-width="0.5"/>
<path d="M97.0626 79.0076C92.5635 74.5076 89.5635 52.5076 93.5626 36.0076L165.563 32.0076C161.563 37.0076 160.563 71.0076 164.063 79.0076H97.0626Z" stroke="black" stroke-width="0.5"/>
<path d="M229.063 31.0076L165.563 32.0076C161.564 37.0076 160.564 71.0076 164.063 79.0076L198.563 77.5076C203.063 76.0076 209.563 70.5076 229.063 31.0076Z" stroke="black" stroke-width="0.5"/>
<path d="M171.063 30.5076C166.563 31.0076 163.063 31.0076 160.063 31.0076L165.563 8.50764C168.563 8.00757 171.563 8.00757 174.563 8.50764L171.063 30.5076Z" stroke="black" stroke-width="0.5"/>
<path d="M99.5635 32.5077C104.063 38.0077 111.063 34.5077 115.063 33.0077C116.063 17.5076 103.063 25.5076 99.5635 32.5077Z" stroke="black" stroke-width="0.5"/>
<path d="M235.062 10.0076L232.062 13.5076C249.062 19.0076 259.562 22.0076 272.062 28.5076H273.562L281.562 27.0076C266.562 20.5076 259.062 18.0076 235.062 10.0076Z" fill="#E56E90" stroke="black" stroke-width="0.5"/>
<path d="M272.062 28.5076C261.562 23.0076 242.562 16.5076 232.062 13.5076L230.062 16.0076L245.062 23.5076C243.562 26.0076 239.562 28.0076 233.562 30.7076C245.562 30.0076 262.562 29.0076 272.062 28.5076Z" fill="#E56E90" stroke="black" stroke-width="0.5"/>
<path d="M277.563 34.8076L283.562 32.5076L273.062 28.5076L229.062 31.0076C221.562 46.0076 206.562 76.5076 198.562 77.5076H213.062C211.562 66.5076 221.062 43.0076 246.063 52.0076C256.563 46.5076 266.563 41.0076 277.563 34.8076Z" fill="#E56E90" stroke="black" stroke-width="0.5"/>
<path d="M278.562 34.5076C266.562 41.0076 256.562 46.5076 246.062 52.0076C250.562 55.0076 261.062 61.0076 260.062 80.0076L285.062 79.5076V78.0076C293.562 77.0076 302.062 80.5076 300.562 66.5076L302.562 56.5076C302.562 55.0076 300.062 51.0076 297.562 50.5076C299.062 48.0076 296.062 39.0076 296.062 39.0076V37.5076L292.062 34.5076L287.062 33.0076L283.562 32.5076L278.562 34.5076Z" fill="#E56E90" stroke="black" stroke-width="0.5"/>
<path d="M281.562 27.0076L273.062 28.5076L283.562 32.5076C293.062 33.5076 292.06 35.0076 296.056 37.4277L295.562 29.0076L281.562 27.0076Z" fill="#E56E90"/>
<path d="M296.062 37.5076L296.056 37.4277M296.056 37.4277L295.562 29.0076L281.562 27.0076L273.062 28.5076L283.562 32.5076C293.062 33.5076 292.06 35.0076 296.056 37.4277Z" stroke="black" stroke-width="0.5"/>
<path d="M294.563 37.0078C294.063 34.5077 283.063 34.3076 277.563 34.8076" stroke="black" stroke-width="0.5"/>
<path d="M300.563 67.0076L261.063 69.0076C260.563 64.0076 258.397 59.8409 256.563 58.0076L302.563 55.5076M301.063 53.0076C290.063 51.5076 279.063 46.7076 267.063 40.7076M229.063 31.0076L273.063 28.5076L281.563 27.0076" stroke="black" stroke-width="0.5"/>
<path d="M291.063 41.0076C291.063 39.0076 290.063 35.0076 286.563 33.0076C288.784 33.0076 292.161 34.048 294.672 36.4176C295.136 37.9476 294.063 41.5076 291.022 43.0076C291.008 42.4173 291.063 41.7319 291.063 41.0076Z" fill="#E56E90"/>
<path d="M273.063 43.5076C280.059 43.8574 286.076 43.9624 291.457 44.5076M298.063 45.5076C295.96 45.0569 293.767 44.7417 291.457 44.5076M296.063 38.0076C295.646 37.4224 295.176 36.8932 294.672 36.4176M291.457 44.5076C291.13 44.1628 291.036 43.6398 291.022 43.0076M291.022 43.0076C291.008 42.4173 291.063 41.7319 291.063 41.0076C291.063 39.0076 290.063 35.0076 286.563 33.0076C288.784 33.0076 292.161 34.048 294.672 36.4176M291.022 43.0076C294.063 41.5076 295.136 37.9476 294.672 36.4176" stroke="black" stroke-width="0.5"/>
<path d="M291.063 41.0076C286.563 41.0076 284.563 37.0076 283.563 34.5076" stroke="black" stroke-width="0.5"/>
<path d="M133.062 13.1075C119.562 17.1075 107.562 23.0076 93.5615 36.0076C100.562 24.0076 116.062 14.5076 131.562 9.50757L133.062 13.1075Z" fill="#EDADBF" stroke="black" stroke-width="0.5"/>
<path d="M131.562 9.50757C111.562 15.1816 93.5615 32.5076 85.5615 30.5076C98.5615 21.0076 114.562 12.5076 131.062 8.00757L131.562 9.50757Z" fill="#EDADBF" stroke="black" stroke-width="0.5"/>
<path d="M10.5622 48.5076H4.56219C2.06152 52.5076 2.06152 62.5076 2.56219 66.0076C1.06152 67.0076 1.06212 71.5076 2.06219 73.0076L6.06219 73.5076V75.0076L2.06219 77.0076V79.0076C6.06219 80.0076 14.5622 82.0076 22.5622 81.5076V80.0076H40.0622C39.3955 71.5076 41.0622 61.0076 50.0622 54.0076C47.5622 50.0076 40.5622 45.5076 37.5622 45.0076C27.5622 44.0076 12.5622 46.5076 10.5622 48.5076Z" fill="#EDADBF" stroke="black" stroke-width="0.5"/>
<path d="M93.5635 36.0076C75.7301 36.8409 44.0635 41.7076 33.5635 44.7076L37.5635 45.0076C42.5635 46.5076 48.0635 50.8409 50.0635 54.0076C63.0625 44.5076 88.5625 51.5076 87.0625 79.0076H97.0625C90.0625 68.0076 91.0625 46.0076 93.5635 36.0076Z" fill="#EDADBF" stroke="black" stroke-width="0.5"/>
<path d="M10.5615 48.5076H4.56152C37.0617 29.0075 59.0618 35.0076 85.0615 30.5076L94.0618 36.0076C77.0618 37.0076 48.0615 40.5076 34.0615 44.7076C26.0615 44.5076 12.0615 46.5076 10.5615 48.5076Z" fill="#EDADBF" stroke="black" stroke-width="0.5"/>
<path d="M37.563 45.0076C30.063 44.0076 13.063 46.0076 10.563 48.5076C9.76298 50.9076 12.8963 53.8409 14.563 55.0076C24.063 56.5076 37.563 50.5076 37.563 45.0076Z" fill="#EDADBF" stroke="black" stroke-width="0.5"/>
<path d="M4.56222 48.5076C11.5622 49.5076 5.56222 60.0076 2.56222 65.0076C2.06215 58.0076 2.56201 52.5076 4.56222 48.5076Z" fill="#EDADBF" stroke="black" stroke-width="0.5"/>
<path d="M22.5615 84.5076V80.0076H40.0615L40.5615 84.5076H22.5615Z" fill="#EDADBF" stroke="black" stroke-width="0.5"/>
<path d="M3.06348 66.0076C4.56348 68.5076 6.56348 71.6742 6.06348 73.5076M22.5635 80.0076C12.0635 80.5076 7.56348 76.5076 8.56348 73.0076C9.06348 72.5076 10.5635 71.0076 11.5635 71.0076" stroke="black" stroke-width="0.5"/>
<path d="M32.5635 75.0076C30.0635 71.0076 24.5635 66.0076 21.5635 64.5076C19.8134 64.0076 17.1883 64.1326 14.4383 64.5076C12.8133 65.841 11.5635 69.0076 12.0635 72.0076C12.0635 73.1742 13.3709 75.5076 16.0635 75.5076C20.5635 75.5076 27.5635 76.0076 32.5635 75.0076Z" fill="#EDADBF"/>
<path d="M6.56348 66.0076C8.81342 65.5076 11.6883 64.8826 14.4383 64.5076M14.4383 64.5076C17.1883 64.1326 19.8134 64.0076 21.5635 64.5076C24.5635 66.0076 30.0635 71.0076 32.5635 75.0076C27.5635 76.0076 20.5635 75.5076 16.0635 75.5076C13.3709 75.5076 12.0635 73.1742 12.0635 72.0076C11.5635 69.0076 12.8133 65.841 14.4383 64.5076Z" stroke="black" stroke-width="0.5"/>
<path d="M12.0635 71.5076C20.0635 70.0077 23.5635 72.6362 26.5635 74.1362M13.5635 74.5077L31.0635 74.0077" stroke="black" stroke-width="0.5"/>
<path d="M22.5615 83.0076H32.0615C34.0615 83.0076 35.5615 81.0076 35.0615 80.0076M38.5615 80.0076V84.5076" stroke="black" stroke-width="0.5"/>
<path d="M22.5634 81.5078C18.0634 81.5078 13.5634 82.0078 2.06342 79.0078V77.0078L6.06342 75.0078V73.5078L2.06342 73.0078C1.5625 71.5076 0.562696 68.5076 2.56269 66.0076C2.06293 58.0076 2.56293 51.5076 4.56342 48.5073C37.0634 29.0077 59.0634 35.0078 85.0634 30.5078C163.063 -24.4924 245.063 12.5076 282.063 27.0077L295.563 29.0076L296.063 36.0076V39.0076C297.562 44.0076 298.897 48.5076 297.563 50.5076C300.063 51.5076 302.563 54.6742 302.563 56.5076L300.563 66.5076C301.015 77.3555 298.607 77.5798 289.276 77.8922C288.285 77.9254 286.216 77.9596 285.063 78.0076V79.5076L260.063 79.9386M22.5634 81.5078V84.5078H40.5618L40.0634 80.0078M22.5634 81.5078V80.0078H40.0634M40.0634 80.0078C37.0634 38.5078 90.5634 41.5078 87.0634 80.5078V83.0076H213.563C207.563 39.5076 262.063 39.5076 260.063 79.9386M259.562 79.9386H260.063" stroke="black"/>
</svg>
