<svg width="304" height="96" viewBox="0 0 304 96" fill="none" xmlns="http://www.w3.org/2000/svg">
<circle cx="63.0742" cy="74.2146" r="20.5" fill="#EDADBF" stroke="black"/>
<circle cx="236.074" cy="74.2146" r="20.5" fill="#EDADBF" stroke="black"/>
<path d="M133.072 12.7145L131.572 9.21445C171.572 1.21457 193.072 1.7146 232.072 13.2145L228.572 17.7145C208.572 9.71451 190.572 8.71451 174.572 8.21458C172.072 7.71458 168.072 7.71454 165.572 8.21445C155.572 8.21458 143.572 9.71458 133.072 12.7145Z" fill="#E56E90" stroke="black" stroke-width="0.5"/>
<path d="M131.572 9.21464L131.072 7.71464C167.072 -3.2854 199.572 0.714474 235.072 9.71465L232.072 13.2146C192.072 0.7146 166.072 2.2146 131.572 9.21464Z" fill="#E56E90" stroke="black" stroke-width="0.5"/>
<path d="M131.572 9.21447C183.072 -2.28556 211.572 7.71448 232.072 13.2145" stroke="black" stroke-width="0.5"/>
<path d="M171.074 30.2146L174.574 8.2146C208.074 9.2146 219.574 14.7146 224.074 16.2146L226.557 28.2146C199.567 28.2152 182.072 29.7147 171.074 30.2146Z" fill="#E56E90"/>
<path d="M227.074 30.7146L224.074 16.2146C219.574 14.7146 208.074 9.2146 174.574 8.2146L171.074 30.2146C182.074 29.7146 199.574 28.2146 226.574 28.2146" stroke="black" stroke-width="0.5"/>
<path d="M165.574 8.2146C132.574 9.2146 112.574 18.2146 93.5742 35.7146L96.0742 33.7146L160.074 30.7146L165.574 8.2146Z" fill="#E56E90" stroke="black" stroke-width="0.5"/>
<path d="M240.072 22.7146C236.406 20.0479 230.572 17.7146 224.072 16.2146L226.572 28.2146H233.072C236.072 26.7146 239.072 24.4833 240.072 22.7146Z" fill="#E56E90" stroke="black" stroke-width="0.5"/>
<path d="M97.0742 78.7146H164.074L198.574 77.2146H213.074L213.574 82.7146H199.574H98.5742H87.0742V78.7146H97.0742Z" fill="#E56E90"/>
<path d="M97.0742 78.7146H164.074L198.574 77.2146M97.0742 78.7146C97.0742 80.2146 97.5742 81.2146 98.5742 82.7146M97.0742 78.7146H87.0742V82.7146H98.5742M198.574 77.2146L199.574 82.7146M198.574 77.2146H213.074L213.574 82.7146H199.574M199.574 82.7146H98.5742" stroke="black" stroke-width="0.5"/>
<path d="M97.0733 78.7146C92.5742 74.2146 89.5743 52.2146 93.5733 35.7146L165.574 31.7146C161.574 36.7146 160.574 70.7146 164.074 78.7146H97.0733Z" fill="#E56E90" stroke="black" stroke-width="0.5"/>
<path d="M229.074 30.7146L165.574 31.7146C161.574 36.7146 160.574 70.7146 164.074 78.7146L198.574 77.2146C203.074 75.7146 209.574 70.2146 229.074 30.7146Z" fill="#E56E90" stroke="black" stroke-width="0.5"/>
<path d="M171.074 30.2147C166.574 30.7147 163.074 30.7147 160.074 30.7147L165.574 8.21467C168.574 7.7146 171.574 7.7146 174.574 8.21467L171.074 30.2147Z" fill="#E56E90" stroke="black" stroke-width="0.5"/>
<path d="M99.5742 32.2146C104.074 37.7146 111.074 34.2146 115.074 32.7146C116.074 17.2145 103.074 25.2145 99.5742 32.2146Z" fill="#E56E90" stroke="black" stroke-width="0.5"/>
<path d="M235.072 9.7146L232.072 13.2146C249.072 18.7146 259.572 21.7146 272.072 28.2146H273.572L281.572 26.7146C266.572 20.2146 259.072 17.7146 235.072 9.7146Z" fill="#EDADBF" stroke="black" stroke-width="0.5"/>
<path d="M272.072 28.2146C261.572 22.7146 242.572 16.2146 232.072 13.2146L230.072 15.7146L245.072 23.2146C243.572 25.7146 239.572 27.7146 233.572 30.4146C245.572 29.7146 262.572 28.7146 272.072 28.2146Z" fill="#EDADBF" stroke="black" stroke-width="0.5"/>
<path d="M277.574 34.5146L283.573 32.2146L273.073 28.2146L229.073 30.7146C221.573 45.7146 206.573 76.2146 198.573 77.2146H213.073C211.573 66.2146 221.073 42.7146 246.074 51.7146C256.574 46.2146 266.574 40.7146 277.574 34.5146Z" fill="#EDADBF" stroke="black" stroke-width="0.5"/>
<path d="M278.572 34.2146C266.572 40.7146 256.572 46.2146 246.072 51.7146C250.572 54.7146 261.072 60.7146 260.072 79.7146L285.072 79.2146V77.7146C293.572 76.7146 302.072 80.2146 300.572 66.2146L302.572 56.2146C302.572 54.7146 300.072 50.7146 297.572 50.2146C299.072 47.7146 296.072 38.7146 296.072 38.7146V37.2146L292.072 34.2146L287.072 32.7146L283.572 32.2146L278.572 34.2146Z" fill="#EDADBF" stroke="black" stroke-width="0.5"/>
<path d="M281.572 26.7146L273.072 28.2146L283.572 32.2146C293.072 33.2146 292.071 34.7146 296.066 37.1348L295.572 28.7146L281.572 26.7146Z" fill="#EDADBF"/>
<path d="M296.072 37.2146L296.066 37.1348M296.066 37.1348L295.572 28.7146L281.572 26.7146L273.072 28.2146L283.572 32.2146C293.072 33.2146 292.071 34.7146 296.066 37.1348Z" stroke="black" stroke-width="0.5"/>
<path d="M294.574 36.7148C294.074 34.2147 283.074 34.0146 277.574 34.5146" stroke="black" stroke-width="0.5"/>
<path d="M300.574 66.7146L261.074 68.7146C260.574 63.7146 258.408 59.5479 256.574 57.7146L302.574 55.2146M301.074 52.7146C290.074 51.2146 279.074 46.4146 267.074 40.4146M229.074 30.7146L273.074 28.2146L281.574 26.7146" stroke="black" stroke-width="0.5"/>
<path d="M291.074 40.7146C291.074 38.7146 290.074 34.7146 286.574 32.7146C288.795 32.7146 292.172 33.755 294.683 36.1246C295.147 37.6546 294.074 41.2146 291.032 42.7146C291.019 42.1243 291.074 41.4389 291.074 40.7146Z" fill="#EDADBF"/>
<path d="M273.074 43.2146C280.07 43.5644 286.087 43.6695 291.467 44.2146M298.074 45.2146C295.971 44.764 293.778 44.4487 291.467 44.2146M296.074 37.7146C295.656 37.1295 295.187 36.6002 294.683 36.1246M291.467 44.2146C291.141 43.8698 291.047 43.3468 291.032 42.7146M291.032 42.7146C291.019 42.1243 291.074 41.4389 291.074 40.7146C291.074 38.7146 290.074 34.7146 286.574 32.7146C288.795 32.7146 292.172 33.755 294.683 36.1246M291.032 42.7146C294.074 41.2146 295.147 37.6546 294.683 36.1246" stroke="black" stroke-width="0.5"/>
<path d="M291.074 40.7146C286.574 40.7146 284.574 36.7146 283.574 34.2146" stroke="black" stroke-width="0.5"/>
<path d="M133.072 12.8146C119.572 16.8146 107.572 22.7146 93.5723 35.7146C100.572 23.7146 116.072 14.2146 131.572 9.2146L133.072 12.8146Z" fill="#E56E90" stroke="black" stroke-width="0.5"/>
<path d="M131.572 9.2146C111.572 14.8886 93.5723 32.2146 85.5723 30.2146C98.5723 20.7146 114.572 12.2146 131.072 7.7146L131.572 9.2146Z" fill="#E56E90" stroke="black" stroke-width="0.5"/>
<path d="M10.5729 48.2145H4.57293C2.07227 52.2145 2.07227 62.2145 2.57293 65.7145C1.07227 66.7145 1.07286 71.2145 2.07293 72.7145L6.07293 73.2145V74.7145L2.07293 76.7145V78.7145C6.07293 79.7145 14.5729 81.7145 22.5729 81.2145V79.7145H40.0729C39.4063 71.2145 41.0729 60.7145 50.0729 53.7145C47.5729 49.7145 40.5729 45.2145 37.5729 44.7145C27.5729 43.7145 12.5729 46.2145 10.5729 48.2145Z" fill="#E56E90" stroke="black" stroke-width="0.5"/>
<path d="M93.5742 35.7146C75.7409 36.5479 44.0742 41.4146 33.5742 44.4146L37.5742 44.7146C42.5742 46.2146 48.0742 50.5479 50.0742 53.7146C63.0732 44.2146 88.5732 51.2146 87.0732 78.7146H97.0732C90.0732 67.7146 91.0732 45.7146 93.5742 35.7146Z" fill="#E56E90" stroke="black" stroke-width="0.5"/>
<path d="M10.5723 48.2147H4.57227C37.0724 28.7146 59.0725 34.7146 85.0723 30.2146L94.0725 35.7146C77.0725 36.7146 48.0723 40.2146 34.0723 44.4146C26.0723 44.2146 12.0723 46.2146 10.5723 48.2147Z" fill="#E56E90" stroke="black" stroke-width="0.5"/>
<path d="M37.5737 44.7147C30.0737 43.7146 13.0737 45.7146 10.5737 48.2147C9.77372 50.6146 12.9071 53.5479 14.5737 54.7146C24.0737 56.2146 37.5737 50.2146 37.5737 44.7147Z" fill="#E56E90" stroke="black" stroke-width="0.5"/>
<path d="M4.57296 48.2146C11.573 49.2146 5.57296 59.7146 2.57296 64.7146C2.07289 57.7146 2.57275 52.2146 4.57296 48.2146Z" fill="#E56E90" stroke="black" stroke-width="0.5"/>
<path d="M22.5723 84.2146V79.7146H40.0723L40.5723 84.2146H22.5723Z" fill="#E56E90" stroke="black" stroke-width="0.5"/>
<path d="M3.07422 65.7144C4.57422 68.2144 6.57422 71.381 6.07422 73.2144M22.5742 79.7144C12.0742 80.2144 7.57422 76.2144 8.57422 72.7144C9.07422 72.2144 10.5742 70.7144 11.5742 70.7144" stroke="black" stroke-width="0.5"/>
<path d="M32.5742 74.7145C30.0742 70.7145 24.5742 65.7146 21.5742 64.2146C19.8242 63.7145 17.1991 63.8395 14.449 64.2146C12.8241 65.5479 11.5742 68.7145 12.0742 71.7145C12.0742 72.8811 13.3816 75.2145 16.0742 75.2145C20.5742 75.2145 27.5742 75.7145 32.5742 74.7145Z" fill="#E56E90"/>
<path d="M6.57422 65.7146C8.82416 65.2145 11.6991 64.5896 14.449 64.2146M14.449 64.2146C17.1991 63.8395 19.8242 63.7145 21.5742 64.2146C24.5742 65.7146 30.0742 70.7145 32.5742 74.7145C27.5742 75.7145 20.5742 75.2145 16.0742 75.2145C13.3816 75.2145 12.0742 72.8811 12.0742 71.7145C11.5742 68.7145 12.8241 65.5479 14.449 64.2146Z" stroke="black" stroke-width="0.5"/>
<path d="M12.0742 71.2146C20.0742 69.7146 23.5742 72.3431 26.5742 73.8431M13.5742 74.2146L31.0742 73.7146" stroke="black" stroke-width="0.5"/>
<path d="M22.5723 82.7144H32.0723C34.0723 82.7144 35.5723 80.7144 35.0723 79.7144M38.5723 79.7144V84.2144" stroke="black" stroke-width="0.5"/>
<path d="M22.5742 81.2148C18.0742 81.2148 13.5742 81.7148 2.07416 78.7148V76.7148L6.07417 74.7148V73.2148L2.07416 72.7149C1.57324 71.2146 0.573438 68.2146 2.57343 65.7146C2.07368 57.7146 2.57368 51.2146 4.57417 48.2143C37.0742 28.7147 59.0742 34.7148 85.0742 30.2148C163.074 -24.7853 245.074 12.2146 282.074 26.7148L295.574 28.7146L296.074 35.7146V38.7146C297.573 43.7146 298.908 48.2146 297.574 50.2146C300.074 51.2146 302.574 54.3813 302.574 56.2146L300.574 66.2146C301.026 77.0625 298.618 77.2868 289.286 77.5992C288.295 77.6324 286.226 77.6666 285.074 77.7146V79.2146L260.074 79.6456M22.5742 81.2148V84.2148H40.5725L40.0742 79.7148M22.5742 81.2148V79.7148H40.0742M40.0742 79.7148C37.0742 38.2148 90.5742 41.2148 87.0742 80.2148V82.7146H213.574C207.574 39.2146 262.074 39.2146 260.074 79.6456M259.573 79.6456H260.074" stroke="black"/>
</svg>
