<svg width="303" height="95" viewBox="0 0 303 95" fill="none" xmlns="http://www.w3.org/2000/svg">
<circle cx="62.4473" cy="73.8914" r="20.5" fill="#E0426F" stroke="black"/>
<circle cx="235.447" cy="73.8914" r="20.5" fill="#E0426F" stroke="black"/>
<path d="M132.445 12.3912L130.945 8.89121C170.945 0.891325 192.445 1.39136 231.445 12.8913L227.945 17.3913C207.945 9.39127 189.945 8.39127 173.945 7.89133C171.445 7.39133 167.445 7.3913 164.945 7.89121C154.945 7.89133 142.945 9.39134 132.445 12.3912Z" fill="#E0426F" stroke="black" stroke-width="0.5"/>
<path d="M130.945 8.8914L130.445 7.3914C166.445 -3.60864 198.945 0.391232 234.445 9.3914L231.445 12.8914C191.445 0.391357 165.445 1.89136 130.945 8.8914Z" fill="#E0426F" stroke="black" stroke-width="0.5"/>
<path d="M130.945 8.89122C182.445 -2.6088 210.945 7.39124 231.445 12.8912" stroke="black" stroke-width="0.5"/>
<path d="M170.447 29.8914L173.947 7.89136C207.447 8.89136 218.947 14.3914 223.447 15.8914L225.93 27.8914C198.94 27.892 181.445 29.3915 170.447 29.8914Z" fill="#E0426F"/>
<path d="M226.447 30.3914L223.447 15.8914C218.947 14.3914 207.447 8.89136 173.947 7.89136L170.447 29.8914C181.447 29.3914 198.947 27.8914 225.947 27.8914" stroke="black" stroke-width="0.5"/>
<path d="M164.947 7.89136C131.947 8.89136 111.947 17.8914 92.9473 35.3914L95.4473 33.3914L159.447 30.3914L164.947 7.89136Z" fill="#E0426F" stroke="black" stroke-width="0.5"/>
<path d="M239.445 22.3914C235.779 19.7247 229.945 17.3914 223.445 15.8914L225.945 27.8914H232.445C235.445 26.3914 238.445 24.1601 239.445 22.3914Z" fill="#E0426F" stroke="black" stroke-width="0.5"/>
<path d="M96.4473 78.3914H163.447L197.947 76.8914H212.447L212.947 82.3914H198.947H97.9473H86.4473V78.3914H96.4473Z" fill="#E0426F"/>
<path d="M96.4473 78.3914H163.447L197.947 76.8914M96.4473 78.3914C96.4473 79.8914 96.9473 80.8914 97.9473 82.3914M96.4473 78.3914H86.4473V82.3914H97.9473M197.947 76.8914L198.947 82.3914M197.947 76.8914H212.447L212.947 82.3914H198.947M198.947 82.3914H97.9473" stroke="black" stroke-width="0.5"/>
<path d="M96.4464 78.3914C91.9473 73.8914 88.9473 51.8914 92.9464 35.3914L164.947 31.3914C160.947 36.3914 159.947 70.3914 163.447 78.3914H96.4464Z" fill="#E0426F" stroke="black" stroke-width="0.5"/>
<path d="M228.447 30.3914L164.947 31.3914C160.947 36.3914 159.948 70.3914 163.447 78.3914L197.947 76.8914C202.447 75.3914 208.947 69.8914 228.447 30.3914Z" fill="#E0426F" stroke="black" stroke-width="0.5"/>
<path d="M170.447 29.8914C165.947 30.3914 162.447 30.3914 159.447 30.3914L164.947 7.89143C167.947 7.39136 170.947 7.39136 173.947 7.89143L170.447 29.8914Z" fill="#E0426F" stroke="black" stroke-width="0.5"/>
<path d="M98.9473 31.8914C103.447 37.3914 110.447 33.8914 114.447 32.3914C115.447 16.8913 102.447 24.8912 98.9473 31.8914Z" fill="#E0426F" stroke="black" stroke-width="0.5"/>
<path d="M234.445 9.39136L231.445 12.8914C248.445 18.3914 258.945 21.3914 271.445 27.8914H272.945L280.945 26.3914C265.945 19.8914 258.445 17.3914 234.445 9.39136Z" fill="#E0426F" stroke="black" stroke-width="0.5"/>
<path d="M271.445 27.8914C260.945 22.3914 241.945 15.8914 231.445 12.8914L229.445 15.3914L244.445 22.8914C242.945 25.3914 238.945 27.3914 232.945 30.0914C244.945 29.3914 261.945 28.3914 271.445 27.8914Z" fill="#E0426F" stroke="black" stroke-width="0.5"/>
<path d="M276.947 34.1914L282.946 31.8914L272.446 27.8914L228.446 30.3914C220.946 45.3914 205.946 75.8914 197.946 76.8914H212.446C210.946 65.8914 220.446 42.3914 245.447 51.3914C255.947 45.8914 265.947 40.3914 276.947 34.1914Z" fill="#E0426F" stroke="black" stroke-width="0.5"/>
<path d="M277.945 33.8914C265.945 40.3914 255.945 45.8914 245.445 51.3914C249.945 54.3914 260.445 60.3914 259.445 79.3914L284.445 78.8914V77.3914C292.945 76.3914 301.445 79.8914 299.945 65.8914L301.945 55.8914C301.945 54.3914 299.445 50.3914 296.945 49.8914C298.445 47.3914 295.445 38.3914 295.445 38.3914V36.8914L291.445 33.8914L286.445 32.3914L282.945 31.8914L277.945 33.8914Z" fill="#E0426F" stroke="black" stroke-width="0.5"/>
<path d="M280.945 26.3914L272.445 27.8914L282.945 31.8914C292.445 32.8914 291.444 34.3914 295.439 36.8115L294.945 28.3914L280.945 26.3914Z" fill="#E0426F"/>
<path d="M295.445 36.8914L295.439 36.8115M295.439 36.8115L294.945 28.3914L280.945 26.3914L272.445 27.8914L282.945 31.8914C292.445 32.8914 291.444 34.3914 295.439 36.8115Z" stroke="black" stroke-width="0.5"/>
<path d="M293.947 36.3916C293.447 33.8914 282.447 33.6914 276.947 34.1914" stroke="black" stroke-width="0.5"/>
<path d="M299.947 66.3914L260.447 68.3914C259.947 63.3914 257.781 59.2247 255.947 57.3914L301.947 54.8914M300.447 52.3914C289.447 50.8914 278.447 46.0914 266.447 40.0914M228.447 30.3914L272.447 27.8914L280.947 26.3914" stroke="black" stroke-width="0.5"/>
<path d="M290.447 40.3914C290.447 38.3914 289.447 34.3914 285.947 32.3914C288.168 32.3914 291.545 33.4317 294.056 35.8013C294.52 37.3313 293.447 40.8914 290.405 42.3914C290.392 41.8011 290.447 41.1156 290.447 40.3914Z" fill="#E0426F"/>
<path d="M272.447 42.8914C279.443 43.2411 285.46 43.3462 290.84 43.8914M297.447 44.8914C295.344 44.4407 293.151 44.1255 290.84 43.8914M295.447 37.3914C295.029 36.8062 294.56 36.277 294.056 35.8013M290.84 43.8914C290.514 43.5466 290.42 43.0235 290.405 42.3914M290.405 42.3914C290.392 41.8011 290.447 41.1156 290.447 40.3914C290.447 38.3914 289.447 34.3914 285.947 32.3914C288.168 32.3914 291.545 33.4317 294.056 35.8013M290.405 42.3914C293.447 40.8914 294.52 37.3313 294.056 35.8013" stroke="black" stroke-width="0.5"/>
<path d="M290.447 40.3914C285.947 40.3914 283.947 36.3914 282.947 33.8914" stroke="black" stroke-width="0.5"/>
<path d="M132.445 12.4913C118.945 16.4913 106.945 22.3914 92.9453 35.3914C99.9453 23.3914 115.445 13.8914 130.945 8.89136L132.445 12.4913Z" fill="#EDADBF" stroke="black" stroke-width="0.5"/>
<path d="M130.945 8.89136C110.945 14.5654 92.9453 31.8914 84.9453 29.8914C97.9453 20.3914 113.945 11.8914 130.445 7.39136L130.945 8.89136Z" fill="#EDADBF" stroke="black" stroke-width="0.5"/>
<path d="M9.94598 47.8912H3.94598C1.44531 51.8912 1.44531 61.8912 1.94598 65.3912C0.445312 66.3912 0.44591 70.8912 1.44598 72.3912L5.44598 72.8912V74.3912L1.44598 76.3912V78.3912C5.44598 79.3912 13.946 81.3912 21.946 80.8912V79.3912H39.446C38.7793 70.8912 40.446 60.3912 49.446 53.3912C46.946 49.3912 39.946 44.8912 36.946 44.3912C26.946 43.3912 11.946 45.8912 9.94598 47.8912Z" fill="#EDADBF" stroke="black" stroke-width="0.5"/>
<path d="M92.9473 35.3914C75.1139 36.2247 43.4473 41.0914 32.9473 44.0914L36.9473 44.3914C41.9473 45.8914 47.4473 50.2247 49.4473 53.3914C62.4463 43.8914 87.9463 50.8914 86.4463 78.3914H96.4463C89.4463 67.3914 90.4463 45.3914 92.9473 35.3914Z" fill="#EDADBF" stroke="black" stroke-width="0.5"/>
<path d="M9.94531 47.8914H3.94531C36.4455 28.3913 58.4456 34.3914 84.4453 29.8914L93.4456 35.3914C76.4456 36.3914 47.4453 39.8914 33.4453 44.0914C25.4453 43.8913 11.4453 45.8914 9.94531 47.8914Z" fill="#EDADBF" stroke="black" stroke-width="0.5"/>
<path d="M36.9468 44.3914C29.4468 43.3914 12.4468 45.3914 9.94677 47.8914C9.14677 50.2914 12.2801 53.2247 13.9468 54.3914C23.4468 55.8914 36.9468 49.8914 36.9468 44.3914Z" fill="#EDADBF" stroke="black" stroke-width="0.5"/>
<path d="M3.94601 47.8914C10.946 48.8914 4.94601 59.3914 1.94601 64.3914C1.44594 57.3914 1.9458 51.8914 3.94601 47.8914Z" fill="#EDADBF" stroke="black" stroke-width="0.5"/>
<path d="M21.9453 83.8914V79.3914H39.4453L39.9453 83.8914H21.9453Z" fill="#EDADBF" stroke="black" stroke-width="0.5"/>
<path d="M2.44727 65.3911C3.94727 67.8911 5.94727 71.0578 5.44727 72.8911M21.9473 79.3911C11.4473 79.8911 6.94727 75.8911 7.94727 72.3911C8.44727 71.8911 9.94727 70.3911 10.9473 70.3911" stroke="black" stroke-width="0.5"/>
<path d="M31.9473 74.3912C29.4473 70.3912 23.9473 65.3913 20.9473 63.8913C19.1972 63.3913 16.5721 63.5163 13.8221 63.8913C12.1971 65.2246 10.9473 68.3912 11.4473 71.3912C11.4473 72.5579 12.7547 74.8912 15.4473 74.8912C19.9473 74.8912 26.9473 75.3912 31.9473 74.3912Z" fill="#EDADBF"/>
<path d="M5.94727 65.3913C8.19721 64.8913 11.0721 64.2663 13.8221 63.8913M13.8221 63.8913C16.5721 63.5163 19.1972 63.3913 20.9473 63.8913C23.9473 65.3913 29.4473 70.3912 31.9473 74.3912C26.9473 75.3912 19.9473 74.8912 15.4473 74.8912C12.7547 74.8912 11.4473 72.5579 11.4473 71.3912C10.9473 68.3912 12.1971 65.2246 13.8221 63.8913Z" stroke="black" stroke-width="0.5"/>
<path d="M11.4473 70.8913C19.4473 69.3914 22.9473 72.0198 25.9473 73.5198M12.9473 73.8914L30.4473 73.3914" stroke="black" stroke-width="0.5"/>
<path d="M21.9453 82.3911H31.4453C33.4453 82.3911 34.9453 80.3911 34.4453 79.3911M37.9453 79.3911V83.8911" stroke="black" stroke-width="0.5"/>
<path d="M21.9472 80.8916C17.4472 80.8916 12.9472 81.3916 1.44721 78.3916V76.3916L5.44721 74.3916V72.8916L1.44721 72.3916C0.946289 70.8914 -0.0535151 67.8914 1.94648 65.3914C1.44672 57.3914 1.94672 50.8914 3.94721 47.8911C36.4472 28.3915 58.4472 34.3915 84.4472 29.8915C162.447 -25.1086 244.447 11.8913 281.447 26.3915L294.947 28.3914L295.447 35.3914V38.3914C296.946 43.3914 298.281 47.8914 296.947 49.8914C299.447 50.8914 301.947 54.058 301.947 55.8914L299.947 65.8914C300.399 76.7393 297.991 76.9635 288.66 77.276C287.668 77.3092 285.599 77.3434 284.447 77.3914V78.8914L259.447 79.3224M21.9472 80.8916V83.8916H39.9456L39.4472 79.3916M21.9472 80.8916V79.3916H39.4472M39.4472 79.3916C36.4472 37.8916 89.9472 40.8916 86.4472 79.8916V82.3914H212.947C206.947 38.8914 261.447 38.8914 259.447 79.3224M258.946 79.3224H259.447" stroke="black"/>
</svg>
