<svg width="303" height="96" viewBox="0 0 303 96" fill="none" xmlns="http://www.w3.org/2000/svg">
<circle cx="62.876" cy="74.1843" r="20.5" fill="#EFC7D3" stroke="black"/>
<circle cx="235.876" cy="74.1843" r="20.5" fill="#EFC7D3" stroke="black"/>
<path d="M132.874 12.6842L131.374 9.18418C171.374 1.18429 192.874 1.68433 231.874 13.1843L228.374 17.6843C208.374 9.68424 190.374 8.68423 174.374 8.1843C171.874 7.6843 167.874 7.68427 165.374 8.18418C155.374 8.1843 143.374 9.6843 132.874 12.6842Z" fill="#EFC7D3" stroke="black" stroke-width="0.5"/>
<path d="M131.374 9.18437L130.874 7.68437C166.874 -3.31567 199.374 0.6842 234.874 9.68437L231.874 13.1844C191.874 0.684326 165.874 2.18433 131.374 9.18437Z" fill="#EFC7D3" stroke="black" stroke-width="0.5"/>
<path d="M131.374 9.18431C182.874 -2.31571 211.374 7.68433 231.874 13.1843" stroke="black" stroke-width="0.5"/>
<path d="M170.876 30.1843L174.376 8.18433C207.876 9.18433 219.376 14.6843 223.876 16.1843L226.359 28.1843C199.369 28.185 181.874 29.6844 170.876 30.1843Z" fill="#EFC7D3"/>
<path d="M226.876 30.6843L223.876 16.1843C219.376 14.6843 207.876 9.18433 174.376 8.18433L170.876 30.1843C181.876 29.6843 199.376 28.1843 226.376 28.1843" stroke="black" stroke-width="0.5"/>
<path d="M165.376 8.18433C132.376 9.18433 112.376 18.1843 93.376 35.6843L95.876 33.6843L159.876 30.6843L165.376 8.18433Z" fill="#EFC7D3" stroke="black" stroke-width="0.5"/>
<path d="M239.874 22.6843C236.207 20.0177 230.374 17.6843 223.874 16.1843L226.374 28.1843H232.874C235.874 26.6843 238.874 24.4531 239.874 22.6843Z" fill="#EFC7D3" stroke="black" stroke-width="0.5"/>
<path d="M96.876 78.6843H163.876L198.376 77.1843H212.876L213.376 82.6843H199.376H98.376H86.876V78.6843H96.876Z" fill="#EFC7D3"/>
<path d="M96.876 78.6843H163.876L198.376 77.1843M96.876 78.6843C96.876 80.1843 97.376 81.1843 98.376 82.6843M96.876 78.6843H86.876V82.6843H98.376M198.376 77.1843L199.376 82.6843M198.376 77.1843H212.876L213.376 82.6843H199.376M199.376 82.6843H98.376" stroke="black" stroke-width="0.5"/>
<path d="M96.8751 78.6843C92.376 74.1843 89.376 52.1843 93.3751 35.6843L165.376 31.6843C161.376 36.6843 160.376 70.6843 163.876 78.6843H96.8751Z" fill="#EFC7D3" stroke="black" stroke-width="0.5"/>
<path d="M228.876 30.6843L165.376 31.6843C161.376 36.6843 160.376 70.6843 163.876 78.6843L198.376 77.1843C202.876 75.6843 209.376 70.1843 228.876 30.6843Z" fill="#EFC7D3" stroke="black" stroke-width="0.5"/>
<path d="M170.876 30.1844C166.376 30.6844 162.876 30.6844 159.876 30.6844L165.376 8.1844C168.376 7.68433 171.376 7.68433 174.376 8.1844L170.876 30.1844Z" fill="#EFC7D3" stroke="black" stroke-width="0.5"/>
<path d="M99.376 32.1845C103.876 37.6845 110.876 34.1845 114.876 32.6845C115.876 17.1843 102.876 25.1843 99.376 32.1845Z" fill="#EFC7D3" stroke="black" stroke-width="0.5"/>
<path d="M234.874 9.68433L231.874 13.1843C248.874 18.6843 259.374 21.6843 271.874 28.1843H273.374L281.374 26.6843C266.374 20.1843 258.874 17.6843 234.874 9.68433Z" fill="#EDADBF" stroke="black" stroke-width="0.5"/>
<path d="M271.874 28.1843C261.374 22.6843 242.374 16.1843 231.874 13.1843L229.874 15.6843L244.874 23.1843C243.374 25.6843 239.374 27.6843 233.374 30.3843C245.374 29.6843 262.374 28.6843 271.874 28.1843Z" fill="#EDADBF" stroke="black" stroke-width="0.5"/>
<path d="M277.376 34.4843L283.374 32.1843L272.875 28.1843L228.875 30.6843C221.375 45.6843 206.375 76.1843 198.375 77.1843H212.875C211.375 66.1843 220.875 42.6843 245.876 51.6843C256.376 46.1843 266.376 40.6843 277.376 34.4843Z" fill="#EDADBF" stroke="black" stroke-width="0.5"/>
<path d="M278.374 34.1844C266.374 40.6844 256.374 46.1844 245.874 51.6844C250.374 54.6843 260.874 60.6843 259.874 79.6843L284.874 79.1843V77.6843C293.374 76.6843 301.874 80.1843 300.374 66.1843L302.374 56.1843C302.374 54.6843 299.874 50.6843 297.374 50.1843C298.874 47.6843 295.874 38.6843 295.874 38.6843V37.1843L291.874 34.1843L286.874 32.6843L283.374 32.1843L278.374 34.1844Z" fill="#EDADBF" stroke="black" stroke-width="0.5"/>
<path d="M281.374 26.6843L272.874 28.1843L283.374 32.1843C292.874 33.1843 291.873 34.6843 295.868 37.1045L295.374 28.6843L281.374 26.6843Z" fill="#EDADBF"/>
<path d="M295.874 37.1843L295.868 37.1045M295.868 37.1045L295.374 28.6843L281.374 26.6843L272.874 28.1843L283.374 32.1843C292.874 33.1843 291.873 34.6843 295.868 37.1045Z" stroke="black" stroke-width="0.5"/>
<path d="M294.376 36.6845C293.876 34.1844 282.876 33.9843 277.376 34.4843" stroke="black" stroke-width="0.5"/>
<path d="M300.376 66.6843L260.876 68.6843C260.376 63.6843 258.209 59.5177 256.376 57.6843L302.376 55.1843M300.876 52.6843C289.876 51.1843 278.876 46.3843 266.876 40.3843M228.876 30.6843L272.876 28.1843L281.376 26.6843" stroke="black" stroke-width="0.5"/>
<path d="M290.876 40.6843C290.876 38.6843 289.876 34.6843 286.376 32.6843C288.597 32.6843 291.974 33.7247 294.485 36.0943C294.949 37.6243 293.876 41.1843 290.834 42.6843C290.821 42.094 290.876 41.4086 290.876 40.6843Z" fill="#EDADBF"/>
<path d="M272.876 43.1843C279.872 43.5341 285.889 43.6392 291.269 44.1843M297.876 45.1843C295.773 44.7337 293.58 44.4184 291.269 44.1843M295.876 37.6843C295.458 37.0992 294.989 36.57 294.485 36.0943M291.269 44.1843C290.943 43.8396 290.849 43.3165 290.834 42.6843M290.834 42.6843C290.821 42.094 290.876 41.4086 290.876 40.6843C290.876 38.6843 289.876 34.6843 286.376 32.6843C288.597 32.6843 291.974 33.7247 294.485 36.0943M290.834 42.6843C293.876 41.1843 294.949 37.6243 294.485 36.0943" stroke="black" stroke-width="0.5"/>
<path d="M290.876 40.6843C286.376 40.6843 284.376 36.6843 283.376 34.1843" stroke="black" stroke-width="0.5"/>
<path d="M132.874 12.7843C119.374 16.7843 107.374 22.6843 93.374 35.6843C100.374 23.6843 115.874 14.1843 131.374 9.18433L132.874 12.7843Z" fill="#EFC7D3" stroke="black" stroke-width="0.5"/>
<path d="M131.374 9.18433C111.374 14.8584 93.374 32.1843 85.374 30.1843C98.374 20.6843 114.374 12.1843 130.874 7.68433L131.374 9.18433Z" fill="#EFC7D3" stroke="black" stroke-width="0.5"/>
<path d="M10.3747 48.1843H4.37469C1.87402 52.1843 1.87402 62.1843 2.37469 65.6843C0.874023 66.6843 0.874621 71.1843 1.87469 72.6843L5.87469 73.1843V74.6843L1.87469 76.6843V78.6843C5.87469 79.6843 14.3747 81.6843 22.3747 81.1843V79.6843H39.8747C39.208 71.1843 40.8747 60.6843 49.8747 53.6843C47.3747 49.6843 40.3747 45.1843 37.3747 44.6843C27.3747 43.6843 12.3747 46.1843 10.3747 48.1843Z" fill="#EFC7D3" stroke="black" stroke-width="0.5"/>
<path d="M93.376 35.6843C75.5426 36.5177 43.876 41.3843 33.376 44.3843L37.376 44.6843C42.376 46.1843 47.876 50.5177 49.876 53.6843C62.875 44.1843 88.375 51.1843 86.875 78.6843H96.875C89.875 67.6843 90.875 45.6843 93.376 35.6843Z" fill="#EFC7D3" stroke="black" stroke-width="0.5"/>
<path d="M10.374 48.1844H4.37402C36.8742 28.6843 58.8743 34.6843 84.874 30.1843L93.8743 35.6843C76.8743 36.6843 47.874 40.1843 33.874 44.3843C25.874 44.1843 11.874 46.1843 10.374 48.1844Z" fill="#EFC7D3" stroke="black" stroke-width="0.5"/>
<path d="M37.3755 44.6844C29.8755 43.6843 12.8755 45.6843 10.3755 48.1844C9.57548 50.5843 12.7088 53.5177 14.3755 54.6843C23.8755 56.1843 37.3755 50.1843 37.3755 44.6844Z" fill="#EFC7D3" stroke="black" stroke-width="0.5"/>
<path d="M4.37472 48.1843C11.3747 49.1843 5.37472 59.6843 2.37472 64.6843C1.87465 57.6843 2.37451 52.1843 4.37472 48.1843Z" fill="#EFC7D3" stroke="black" stroke-width="0.5"/>
<path d="M22.374 84.1843V79.6843H39.874L40.374 84.1843H22.374Z" fill="#EFC7D3" stroke="black" stroke-width="0.5"/>
<path d="M2.87598 65.6843C4.37598 68.1843 6.37598 71.351 5.87598 73.1843M22.376 79.6843C11.876 80.1843 7.37598 76.1843 8.37598 72.6843C8.87598 72.1843 10.376 70.6843 11.376 70.6843" stroke="black" stroke-width="0.5"/>
<path d="M32.376 74.6843C29.876 70.6843 24.376 65.6844 21.376 64.1844C19.6259 63.6844 17.0008 63.8094 14.2508 64.1844C12.6258 65.5177 11.376 68.6843 11.876 71.6843C11.876 72.851 13.1834 75.1843 15.876 75.1843C20.376 75.1843 27.376 75.6843 32.376 74.6843Z" fill="#EFC7D3"/>
<path d="M6.37598 65.6844C8.62592 65.1844 11.5008 64.5594 14.2508 64.1844M14.2508 64.1844C17.0008 63.8094 19.6259 63.6844 21.376 64.1844C24.376 65.6844 29.876 70.6843 32.376 74.6843C27.376 75.6843 20.376 75.1843 15.876 75.1843C13.1834 75.1843 11.876 72.851 11.876 71.6843C11.376 68.6843 12.6258 65.5177 14.2508 64.1844Z" stroke="black" stroke-width="0.5"/>
<path d="M11.876 71.1844C19.876 69.6844 23.376 72.3129 26.376 73.8129M13.376 74.1844L30.876 73.6844" stroke="black" stroke-width="0.5"/>
<path d="M22.374 82.6843H31.874C33.874 82.6843 35.374 80.6843 34.874 79.6843M38.374 79.6843V84.1843" stroke="black" stroke-width="0.5"/>
<path d="M22.3759 81.1846C17.8759 81.1846 13.3759 81.6846 1.87592 78.6846V76.6846L5.87592 74.6846V73.1846L1.87592 72.6846C1.375 71.1843 0.375196 68.1843 2.37519 65.6843C1.87543 57.6843 2.37543 51.1843 4.37592 48.1841C36.8759 28.6845 58.8759 34.6845 84.8759 30.1845C162.876 -24.8156 244.876 12.1843 281.876 26.6845L295.376 28.6843L295.876 35.6843V38.6843C297.374 43.6843 298.709 48.1843 297.376 50.1843C299.876 51.1843 302.376 54.351 302.376 56.1843L300.376 66.1843C300.828 77.0322 298.42 77.2565 289.088 77.569C288.097 77.6021 286.028 77.6363 284.876 77.6843V79.1843L259.876 79.6154M22.3759 81.1846V84.1846H40.3743L39.8759 79.6846M22.3759 81.1846V79.6846H39.8759M39.8759 79.6846C36.8759 38.1846 90.3759 41.1846 86.8759 80.1846V82.6843H213.376C207.376 39.1843 261.876 39.1843 259.876 79.6154M259.374 79.6154H259.876" stroke="black"/>
</svg>
