<svg width="303" height="96" viewBox="0 0 303 96" fill="none" xmlns="http://www.w3.org/2000/svg">
<circle cx="62.2725" cy="74.5227" r="20.5" fill="#E56E90" stroke="black"/>
<circle cx="235.272" cy="74.5227" r="20.5" fill="#E56E90" stroke="black"/>
<path d="M132.271 13.0226L130.771 9.52256C170.771 1.52267 192.271 2.02271 231.271 13.5227L227.771 18.0226C207.771 10.0226 189.771 9.02261 173.771 8.52268C171.271 8.02268 167.271 8.02264 164.771 8.52256C154.771 8.52268 142.771 10.0227 132.271 13.0226Z" fill="#EFC7D3" stroke="black" stroke-width="0.5"/>
<path d="M130.771 9.52275L130.271 8.02275C166.271 -2.97729 198.771 1.02258 234.271 10.0228L231.271 13.5228C191.271 1.02271 165.271 2.52271 130.771 9.52275Z" fill="#EFC7D3" stroke="black" stroke-width="0.5"/>
<path d="M130.771 9.52269C182.271 -1.97733 210.771 8.02271 231.271 13.5227" stroke="black" stroke-width="0.5"/>
<path d="M170.272 30.5227L173.772 8.52271C207.272 9.52271 218.772 15.0227 223.272 16.5227L225.755 28.5227C198.765 28.5233 181.27 30.0228 170.272 30.5227Z" fill="#EFC7D3"/>
<path d="M226.272 31.0227L223.272 16.5227C218.772 15.0227 207.272 9.52271 173.772 8.52271L170.272 30.5227C181.272 30.0227 198.772 28.5227 225.772 28.5227" stroke="black" stroke-width="0.5"/>
<path d="M164.772 8.52271C131.772 9.52271 111.772 18.5227 92.7725 36.0227L95.2725 34.0227L159.272 31.0227L164.772 8.52271Z" fill="#EFC7D3" stroke="black" stroke-width="0.5"/>
<path d="M239.271 23.0227C235.604 20.356 229.771 18.0227 223.271 16.5227L225.771 28.5227H232.271C235.271 27.0227 238.271 24.7914 239.271 23.0227Z" fill="#EFC7D3" stroke="black" stroke-width="0.5"/>
<path d="M96.2725 79.0227H163.272L197.772 77.5227H212.272L212.772 83.0227H198.772H97.7725H86.2725V79.0227H96.2725Z" fill="#EFC7D3"/>
<path d="M96.2725 79.0227H163.272L197.772 77.5227M96.2725 79.0227C96.2725 80.5227 96.7725 81.5227 97.7725 83.0227M96.2725 79.0227H86.2725V83.0227H97.7725M197.772 77.5227L198.772 83.0227M197.772 77.5227H212.272L212.772 83.0227H198.772M198.772 83.0227H97.7725" stroke="black" stroke-width="0.5"/>
<path d="M96.2716 79.0227C91.7725 74.5227 88.7725 52.5227 92.7716 36.0227L164.772 32.0227C160.772 37.0227 159.772 71.0227 163.272 79.0227H96.2716Z" fill="#EFC7D3" stroke="black" stroke-width="0.5"/>
<path d="M228.272 31.0227L164.772 32.0227C160.773 37.0227 159.773 71.0227 163.272 79.0227L197.772 77.5227C202.272 76.0227 208.772 70.5227 228.272 31.0227Z" fill="#EFC7D3" stroke="black" stroke-width="0.5"/>
<path d="M170.272 30.5228C165.772 31.0228 162.272 31.0228 159.272 31.0228L164.772 8.52278C167.772 8.02271 170.772 8.02271 173.772 8.52278L170.272 30.5228Z" fill="#EFC7D3" stroke="black" stroke-width="0.5"/>
<path d="M98.7725 32.5228C103.272 38.0228 110.272 34.5228 114.272 33.0228C115.272 17.5227 102.272 25.5227 98.7725 32.5228Z" fill="#EFC7D3" stroke="black" stroke-width="0.5"/>
<path d="M234.271 10.0227L231.271 13.5227C248.271 19.0227 258.771 22.0227 271.271 28.5227H272.771L280.771 27.0227C265.771 20.5227 258.271 18.0227 234.271 10.0227Z" fill="#EDADBF" stroke="black" stroke-width="0.5"/>
<path d="M271.271 28.5227C260.771 23.0227 241.771 16.5227 231.271 13.5227L229.271 16.0227L244.271 23.5227C242.771 26.0227 238.771 28.0227 232.771 30.7227C244.771 30.0227 261.771 29.0227 271.271 28.5227Z" fill="#EDADBF" stroke="black" stroke-width="0.5"/>
<path d="M276.772 34.8227L282.771 32.5227L272.271 28.5227L228.271 31.0227C220.771 46.0227 205.771 76.5227 197.771 77.5227H212.271C210.771 66.5227 220.271 43.0227 245.272 52.0227C255.772 46.5227 265.772 41.0227 276.772 34.8227Z" fill="#EDADBF" stroke="black" stroke-width="0.5"/>
<path d="M277.771 34.5227C265.771 41.0227 255.771 46.5227 245.271 52.0227C249.771 55.0227 260.271 61.0227 259.271 80.0227L284.271 79.5227V78.0227C292.771 77.0227 301.271 80.5227 299.771 66.5227L301.771 56.5227C301.771 55.0227 299.271 51.0227 296.771 50.5227C298.271 48.0227 295.271 39.0227 295.271 39.0227V37.5227L291.271 34.5227L286.271 33.0227L282.771 32.5227L277.771 34.5227Z" fill="#EDADBF" stroke="black" stroke-width="0.5"/>
<path d="M280.771 27.0227L272.271 28.5227L282.771 32.5227C292.271 33.5227 291.269 35.0227 295.265 37.4429L294.771 29.0227L280.771 27.0227Z" fill="#EDADBF"/>
<path d="M295.271 37.5227L295.265 37.4429M295.265 37.4429L294.771 29.0227L280.771 27.0227L272.271 28.5227L282.771 32.5227C292.271 33.5227 291.269 35.0227 295.265 37.4429Z" stroke="black" stroke-width="0.5"/>
<path d="M293.772 37.0229C293.272 34.5228 282.272 34.3227 276.772 34.8227" stroke="black" stroke-width="0.5"/>
<path d="M299.772 67.0227L260.272 69.0227C259.772 64.0227 257.606 59.856 255.772 58.0227L301.772 55.5227M300.272 53.0227C289.272 51.5227 278.272 46.7227 266.272 40.7227M228.272 31.0227L272.272 28.5227L280.772 27.0227" stroke="black" stroke-width="0.5"/>
<path d="M290.272 41.0227C290.272 39.0227 289.272 35.0227 285.772 33.0227C287.993 33.0227 291.37 34.0631 293.881 36.4327C294.345 37.9627 293.272 41.5227 290.231 43.0227C290.217 42.4324 290.272 41.747 290.272 41.0227Z" fill="#EDADBF"/>
<path d="M272.272 43.5227C279.268 43.8725 285.285 43.9776 290.666 44.5227M297.272 45.5227C295.169 45.0721 292.976 44.7568 290.666 44.5227M295.272 38.0227C294.855 37.4376 294.385 36.9084 293.881 36.4327M290.666 44.5227C290.339 44.1779 290.245 43.6549 290.231 43.0227M290.231 43.0227C290.217 42.4324 290.272 41.747 290.272 41.0227C290.272 39.0227 289.272 35.0227 285.772 33.0227C287.993 33.0227 291.37 34.0631 293.881 36.4327M290.231 43.0227C293.272 41.5227 294.345 37.9627 293.881 36.4327" stroke="black" stroke-width="0.5"/>
<path d="M290.272 41.0227C285.772 41.0227 283.772 37.0227 282.772 34.5227" stroke="black" stroke-width="0.5"/>
<path d="M132.271 13.1227C118.771 17.1227 106.771 23.0227 92.7705 36.0227C99.7705 24.0227 115.271 14.5227 130.771 9.52271L132.271 13.1227Z" fill="#E56E90" stroke="black" stroke-width="0.5"/>
<path d="M130.771 9.52271C110.771 15.1967 92.7705 32.5227 84.7705 30.5227C97.7705 21.0227 113.771 12.5227 130.271 8.02271L130.771 9.52271Z" fill="#E56E90" stroke="black" stroke-width="0.5"/>
<path d="M9.77118 48.5227H3.77118C1.27051 52.5227 1.27051 62.5227 1.77118 66.0227C0.270508 67.0227 0.271105 71.5227 1.27118 73.0227L5.27118 73.5227V75.0227L1.27118 77.0227V79.0227C5.27118 80.0227 13.7712 82.0227 21.7712 81.5227V80.0227H39.2712C38.6045 71.5227 40.2712 61.0227 49.2712 54.0227C46.7712 50.0227 39.7712 45.5227 36.7712 45.0227C26.7712 44.0227 11.7712 46.5227 9.77118 48.5227Z" fill="#E56E90" stroke="black" stroke-width="0.5"/>
<path d="M92.7725 36.0227C74.9391 36.856 43.2725 41.7227 32.7725 44.7227L36.7725 45.0227C41.7725 46.5227 47.2725 50.856 49.2725 54.0227C62.2715 44.5227 87.7715 51.5227 86.2715 79.0227H96.2715C89.2715 68.0227 90.2715 46.0227 92.7725 36.0227Z" fill="#E56E90" stroke="black" stroke-width="0.5"/>
<path d="M9.77051 48.5228H3.77051C36.2707 29.0227 58.2708 35.0227 84.2705 30.5227L93.2708 36.0227C76.2708 37.0227 47.2705 40.5227 33.2705 44.7227C25.2705 44.5227 11.2705 46.5227 9.77051 48.5228Z" fill="#E56E90" stroke="black" stroke-width="0.5"/>
<path d="M36.772 45.0228C29.272 44.0227 12.272 46.0227 9.77196 48.5228C8.97196 50.9227 12.1053 53.856 13.772 55.0227C23.272 56.5227 36.772 50.5227 36.772 45.0228Z" fill="#E56E90" stroke="black" stroke-width="0.5"/>
<path d="M3.7712 48.5227C10.7712 49.5227 4.7712 60.0227 1.7712 65.0227C1.27113 58.0227 1.771 52.5227 3.7712 48.5227Z" fill="#E56E90" stroke="black" stroke-width="0.5"/>
<path d="M21.7705 84.5227V80.0227H39.2705L39.7705 84.5227H21.7705Z" fill="#E56E90" stroke="black" stroke-width="0.5"/>
<path d="M2.27246 66.0225C3.77246 68.5225 5.77246 71.6891 5.27246 73.5225M21.7725 80.0225C11.2725 80.5225 6.77246 76.5225 7.77246 73.0225C8.27246 72.5225 9.77246 71.0225 10.7725 71.0225" stroke="black" stroke-width="0.5"/>
<path d="M31.7725 75.0226C29.2725 71.0226 23.7725 66.0227 20.7725 64.5227C19.0224 64.0227 16.3973 64.1477 13.6472 64.5227C12.0223 65.856 10.7725 69.0226 11.2725 72.0226C11.2725 73.1892 12.5799 75.5226 15.2725 75.5226C19.7725 75.5226 26.7725 76.0226 31.7725 75.0226Z" fill="#E56E90"/>
<path d="M5.77246 66.0227C8.0224 65.5226 10.8973 64.8977 13.6472 64.5227M13.6472 64.5227C16.3973 64.1477 19.0224 64.0227 20.7725 64.5227C23.7725 66.0227 29.2725 71.0226 31.7725 75.0226C26.7725 76.0226 19.7725 75.5226 15.2725 75.5226C12.5799 75.5226 11.2725 73.1892 11.2725 72.0226C10.7725 69.0226 12.0223 65.856 13.6472 64.5227Z" stroke="black" stroke-width="0.5"/>
<path d="M11.2725 71.5227C19.2725 70.0227 22.7725 72.6512 25.7725 74.1512M12.7725 74.5227L30.2725 74.0227" stroke="black" stroke-width="0.5"/>
<path d="M21.7705 83.0225H31.2705C33.2705 83.0225 34.7705 81.0225 34.2705 80.0225M37.7705 80.0225V84.5225" stroke="black" stroke-width="0.5"/>
<path d="M21.7724 81.5229C17.2724 81.5229 12.7724 82.0229 1.27241 79.0229V77.0229L5.27241 75.0229V73.5229L1.27241 73.023C0.771484 71.5227 -0.22832 68.5227 1.77168 66.0227C1.27192 58.0227 1.77192 51.5227 3.77241 48.5224C36.2724 29.0228 58.2724 35.0229 84.2724 30.5229C162.272 -24.4772 244.272 12.5227 281.272 27.0229L294.772 29.0227L295.272 36.0227V39.0227C296.771 44.0227 298.106 48.5227 296.772 50.5227C299.272 51.5227 301.772 54.6894 301.772 56.5227L299.772 66.5227C300.224 77.3706 297.816 77.5949 288.485 77.9073C287.494 77.9405 285.425 77.9747 284.272 78.0227V79.5227L259.272 79.9537M21.7724 81.5229V84.5229H39.7708L39.2724 80.0229M21.7724 81.5229V80.0229H39.2724M39.2724 80.0229C36.2724 38.5229 89.7724 41.5229 86.2724 80.5229V83.0227H212.772C206.772 39.5227 261.272 39.5227 259.272 79.9537M258.771 79.9537H259.272" stroke="black"/>
</svg>
