<svg width="303" height="95" viewBox="0 0 303 95" fill="none" xmlns="http://www.w3.org/2000/svg">
<circle cx="62.2725" cy="73.6919" r="20.5" fill="#E56E90" stroke="black"/>
<circle cx="235.272" cy="73.6919" r="20.5" fill="#E56E90" stroke="black"/>
<path d="M132.271 12.1918L130.771 8.69175C170.771 0.691862 192.271 1.19189 231.271 12.6918L227.771 17.1918C207.771 9.1918 189.771 8.1918 173.771 7.69187C171.271 7.19187 167.271 7.19183 164.771 7.69175C154.771 7.69187 142.771 9.19187 132.271 12.1918Z" fill="#EFC7D3" stroke="black" stroke-width="0.5"/>
<path d="M130.771 8.69194L130.271 7.19194C166.271 -3.80811 198.771 0.191769 234.271 9.19194L231.271 12.6919C191.271 0.191895 165.271 1.69189 130.771 8.69194Z" fill="#EFC7D3" stroke="black" stroke-width="0.5"/>
<path d="M130.771 8.692C182.271 -2.80802 210.771 7.19202 231.271 12.692" stroke="black" stroke-width="0.5"/>
<path d="M170.272 29.6919L173.772 7.69189C207.272 8.69189 218.772 14.1919 223.272 15.6919L225.755 27.6919C198.765 27.6925 181.27 29.192 170.272 29.6919Z" fill="#EFC7D3"/>
<path d="M226.272 30.1919L223.272 15.6919C218.772 14.1919 207.272 8.69189 173.772 7.69189L170.272 29.6919C181.272 29.1919 198.772 27.6919 225.772 27.6919" stroke="black" stroke-width="0.5"/>
<path d="M164.772 7.69189C131.772 8.69189 111.772 17.6919 92.7725 35.1919L95.2725 33.1919L159.272 30.1919L164.772 7.69189Z" fill="#EFC7D3" stroke="black" stroke-width="0.5"/>
<path d="M239.271 22.1919C235.604 19.5252 229.771 17.1919 223.271 15.6919L225.771 27.6919H232.271C235.271 26.1919 238.271 23.9606 239.271 22.1919Z" fill="#EFC7D3" stroke="black" stroke-width="0.5"/>
<path d="M96.2725 78.1919H163.272L197.772 76.6919H212.272L212.772 82.1919H198.772H97.7725H86.2725V78.1919H96.2725Z" fill="#EFC7D3"/>
<path d="M96.2725 78.1919H163.272L197.772 76.6919M96.2725 78.1919C96.2725 79.6919 96.7725 80.6919 97.7725 82.1919M96.2725 78.1919H86.2725V82.1919H97.7725M197.772 76.6919L198.772 82.1919M197.772 76.6919H212.272L212.772 82.1919H198.772M198.772 82.1919H97.7725" stroke="black" stroke-width="0.5"/>
<path d="M96.2716 78.1919C91.7725 73.6919 88.7725 51.6919 92.7716 35.1919L164.772 31.1919C160.772 36.1919 159.772 70.1919 163.272 78.1919H96.2716Z" fill="#EFC7D3" stroke="black" stroke-width="0.5"/>
<path d="M228.272 30.1919L164.772 31.1919C160.773 36.1919 159.773 70.1919 163.272 78.1919L197.772 76.6919C202.272 75.1919 208.772 69.6919 228.272 30.1919Z" fill="#EFC7D3" stroke="black" stroke-width="0.5"/>
<path d="M170.272 29.692C165.772 30.192 162.272 30.192 159.272 30.192L164.772 7.69197C167.772 7.19189 170.772 7.19189 173.772 7.69197L170.272 29.692Z" fill="#EFC7D3" stroke="black" stroke-width="0.5"/>
<path d="M98.7725 31.6922C103.272 37.1922 110.272 33.6922 114.272 32.1922C115.272 16.692 102.272 24.692 98.7725 31.6922Z" fill="#EFC7D3" stroke="black" stroke-width="0.5"/>
<path d="M234.271 9.19189L231.271 12.6919C248.271 18.1919 258.771 21.1919 271.271 27.6919H272.771L280.771 26.1919C265.771 19.6919 258.271 17.1919 234.271 9.19189Z" fill="#EDADBF" stroke="black" stroke-width="0.5"/>
<path d="M271.271 27.6919C260.771 22.1919 241.771 15.6919 231.271 12.6919L229.271 15.1919L244.271 22.6919C242.771 25.1919 238.771 27.1919 232.771 29.8919C244.771 29.1919 261.771 28.1919 271.271 27.6919Z" fill="#EDADBF" stroke="black" stroke-width="0.5"/>
<path d="M276.772 33.9919L282.771 31.6919L272.271 27.6919L228.271 30.1919C220.771 45.1919 205.771 75.6919 197.771 76.6919H212.271C210.771 65.6919 220.271 42.1919 245.272 51.1919C255.772 45.6919 265.772 40.1919 276.772 33.9919Z" fill="#EDADBF" stroke="black" stroke-width="0.5"/>
<path d="M277.771 33.6919C265.771 40.1919 255.771 45.6919 245.271 51.1919C249.771 54.1919 260.271 60.1919 259.271 79.1919L284.271 78.6919V77.1919C292.771 76.1919 301.271 79.6919 299.771 65.6919L301.771 55.6919C301.771 54.1919 299.271 50.1919 296.771 49.6919C298.271 47.1919 295.271 38.1919 295.271 38.1919V36.6919L291.271 33.6919L286.271 32.1919L282.771 31.6919L277.771 33.6919Z" fill="#EDADBF" stroke="black" stroke-width="0.5"/>
<path d="M280.771 26.1919L272.271 27.6919L282.771 31.6919C292.271 32.6919 291.269 34.1919 295.265 36.6121L294.771 28.1919L280.771 26.1919Z" fill="#EDADBF"/>
<path d="M295.271 36.6919L295.265 36.6121M295.265 36.6121L294.771 28.1919L280.771 26.1919L272.271 27.6919L282.771 31.6919C292.271 32.6919 291.269 34.1919 295.265 36.6121Z" stroke="black" stroke-width="0.5"/>
<path d="M293.772 36.1921C293.272 33.692 282.272 33.4919 276.772 33.9919" stroke="black" stroke-width="0.5"/>
<path d="M299.772 66.1919L260.272 68.1919C259.772 63.1919 257.606 59.0252 255.772 57.1919L301.772 54.6919M300.272 52.1919C289.272 50.6919 278.272 45.8919 266.272 39.8919M228.272 30.1919L272.272 27.6919L280.772 26.1919" stroke="black" stroke-width="0.5"/>
<path d="M290.272 40.1919C290.272 38.1919 289.272 34.1919 285.772 32.1919C287.993 32.1919 291.37 33.2323 293.881 35.6019C294.345 37.1319 293.272 40.6919 290.231 42.1919C290.217 41.6016 290.272 40.9162 290.272 40.1919Z" fill="#EDADBF"/>
<path d="M272.272 42.6919C279.268 43.0417 285.285 43.1468 290.666 43.6919M297.272 44.6919C295.169 44.2413 292.976 43.926 290.666 43.6919M295.272 37.1919C294.855 36.6068 294.385 36.0775 293.881 35.6019M290.666 43.6919C290.339 43.3471 290.245 42.8241 290.231 42.1919M290.231 42.1919C290.217 41.6016 290.272 40.9162 290.272 40.1919C290.272 38.1919 289.272 34.1919 285.772 32.1919C287.993 32.1919 291.37 33.2323 293.881 35.6019M290.231 42.1919C293.272 40.6919 294.345 37.1319 293.881 35.6019" stroke="black" stroke-width="0.5"/>
<path d="M290.272 40.1919C285.772 40.1919 283.772 36.1919 282.772 33.6919" stroke="black" stroke-width="0.5"/>
<path d="M132.271 12.2919C118.771 16.2919 106.771 22.1919 92.7705 35.1919C99.7705 23.1919 115.271 13.6919 130.771 8.69189L132.271 12.2919Z" fill="#E0426F" stroke="black" stroke-width="0.5"/>
<path d="M130.771 8.69189C110.771 14.3659 92.7705 31.6919 84.7705 29.6919C97.7705 20.1919 113.771 11.6919 130.271 7.19189L130.771 8.69189Z" fill="#E0426F" stroke="black" stroke-width="0.5"/>
<path d="M9.77118 47.6918H3.77118C1.27051 51.6918 1.27051 61.6918 1.77118 65.1918C0.270508 66.1918 0.271105 70.6918 1.27118 72.1918L5.27118 72.6918V74.1918L1.27118 76.1918V78.1918C5.27118 79.1918 13.7712 81.1918 21.7712 80.6918V79.1918H39.2712C38.6045 70.6918 40.2712 60.1918 49.2712 53.1918C46.7712 49.1918 39.7712 44.6918 36.7712 44.1918C26.7712 43.1918 11.7712 45.6918 9.77118 47.6918Z" fill="#E0426F" stroke="black" stroke-width="0.5"/>
<path d="M92.7725 35.1919C74.9391 36.0252 43.2725 40.8919 32.7725 43.8919L36.7725 44.1919C41.7725 45.6919 47.2725 50.0252 49.2725 53.1919C62.2715 43.6919 87.7715 50.6919 86.2715 78.1919H96.2715C89.2715 67.1919 90.2715 45.1919 92.7725 35.1919Z" fill="#E0426F" stroke="black" stroke-width="0.5"/>
<path d="M9.77051 47.6919H3.77051C36.2707 28.1918 58.2708 34.1919 84.2705 29.6919L93.2708 35.1919C76.2708 36.1919 47.2705 39.6919 33.2705 43.8919C25.2705 43.6919 11.2705 45.6919 9.77051 47.6919Z" fill="#E0426F" stroke="black" stroke-width="0.5"/>
<path d="M36.772 44.192C29.272 43.1919 12.272 45.1919 9.77196 47.692C8.97196 50.0919 12.1053 53.0252 13.772 54.1919C23.272 55.6919 36.772 49.6919 36.772 44.192Z" fill="#E0426F" stroke="black" stroke-width="0.5"/>
<path d="M3.7712 47.6919C10.7712 48.6919 4.7712 59.1919 1.7712 64.1919C1.27113 57.1919 1.771 51.6919 3.7712 47.6919Z" fill="#E0426F" stroke="black" stroke-width="0.5"/>
<path d="M21.7705 83.6919V79.1919H39.2705L39.7705 83.6919H21.7705Z" fill="#E0426F" stroke="black" stroke-width="0.5"/>
<path d="M2.27246 65.1919C3.77246 67.6919 5.77246 70.8586 5.27246 72.6919M21.7725 79.1919C11.2725 79.6919 6.77246 75.6919 7.77246 72.1919C8.27246 71.6919 9.77246 70.1919 10.7725 70.1919" stroke="black" stroke-width="0.5"/>
<path d="M31.7725 74.192C29.2725 70.192 23.7725 65.1921 20.7725 63.6921C19.0224 63.1921 16.3973 63.3171 13.6472 63.6921C12.0223 65.0254 10.7725 68.192 11.2725 71.192C11.2725 72.3587 12.5799 74.692 15.2725 74.692C19.7725 74.692 26.7725 75.192 31.7725 74.192Z" fill="#E0426F"/>
<path d="M5.77246 65.1921C8.0224 64.6921 10.8973 64.0671 13.6472 63.6921M13.6472 63.6921C16.3973 63.3171 19.0224 63.1921 20.7725 63.6921C23.7725 65.1921 29.2725 70.192 31.7725 74.192C26.7725 75.192 19.7725 74.692 15.2725 74.692C12.5799 74.692 11.2725 72.3587 11.2725 71.192C10.7725 68.192 12.0223 65.0254 13.6472 63.6921Z" stroke="black" stroke-width="0.5"/>
<path d="M11.2725 70.6921C19.2725 69.1921 22.7725 71.8206 25.7725 73.3206M12.7725 73.6921L30.2725 73.1921" stroke="black" stroke-width="0.5"/>
<path d="M21.7705 82.1919H31.2705C33.2705 82.1919 34.7705 80.1919 34.2705 79.1919M37.7705 79.1919V83.6919" stroke="black" stroke-width="0.5"/>
<path d="M21.7724 80.6921C17.2724 80.6921 12.7724 81.1921 1.27241 78.1921V76.1921L5.27241 74.1921V72.6921L1.27241 72.1921C0.771484 70.6919 -0.22832 67.6919 1.77168 65.1919C1.27192 57.1919 1.77192 50.6919 3.77241 47.6916C36.2724 28.192 58.2724 34.1921 84.2724 29.6921C162.272 -25.308 244.272 11.6919 281.272 26.1921L294.772 28.1919L295.272 35.1919V38.1919C296.771 43.1919 298.106 47.6919 296.772 49.6919C299.272 50.6919 301.772 53.8586 301.772 55.6919L299.772 65.6919C300.224 76.5398 297.816 76.7641 288.485 77.0765C287.494 77.1097 285.425 77.1439 284.272 77.1919V78.6919L259.272 79.1229M21.7724 80.6921V83.6921H39.7708L39.2724 79.1921M21.7724 80.6921V79.1921H39.2724M39.2724 79.1921C36.2724 37.6921 89.7724 40.6921 86.2724 79.6921V82.1919H212.772C206.772 38.6919 261.272 38.6919 259.272 79.1229M258.771 79.1229H259.272" stroke="black"/>
</svg>
