<svg width="303" height="96" viewBox="0 0 303 96" fill="none" xmlns="http://www.w3.org/2000/svg">
<circle cx="62.8955" cy="74.0605" r="20.5" fill="#EFC7D3" stroke="black"/>
<circle cx="235.896" cy="74.0605" r="20.5" fill="#EFC7D3" stroke="black"/>
<path d="M132.894 12.5604L131.394 9.0604C171.394 1.06051 192.894 1.56055 231.894 13.0605L228.394 17.5605C208.394 9.56046 190.394 8.56046 174.394 8.06052C171.894 7.56052 167.894 7.56049 165.394 8.0604C155.394 8.06052 143.394 9.56052 132.894 12.5604Z" fill="#E0426F" stroke="black" stroke-width="0.5"/>
<path d="M131.394 9.06059L130.894 7.56059C166.894 -3.43945 199.394 0.560421 234.894 9.56059L231.894 13.0606C191.894 0.560547 165.894 2.06055 131.394 9.06059Z" fill="#E0426F" stroke="black" stroke-width="0.5"/>
<path d="M131.394 9.06066C182.894 -2.43937 211.394 7.56067 231.894 13.0607" stroke="black" stroke-width="0.5"/>
<path d="M170.896 30.0605L174.396 8.06055C207.896 9.06055 219.396 14.5605 223.896 16.0605L226.378 28.0605C199.388 28.0612 181.893 29.5607 170.896 30.0605Z" fill="#E0426F"/>
<path d="M226.896 30.5605L223.896 16.0605C219.396 14.5605 207.896 9.06055 174.396 8.06055L170.896 30.0605C181.896 29.5605 199.396 28.0605 226.396 28.0605" stroke="black" stroke-width="0.5"/>
<path d="M165.396 8.06055C132.396 9.06055 112.396 18.0605 93.3955 35.5605L95.8955 33.5605L159.896 30.5605L165.396 8.06055Z" fill="#E0426F" stroke="black" stroke-width="0.5"/>
<path d="M239.894 22.5605C236.227 19.8939 230.394 17.5605 223.894 16.0605L226.394 28.0605H232.894C235.894 26.5605 238.894 24.3293 239.894 22.5605Z" fill="#E0426F" stroke="black" stroke-width="0.5"/>
<path d="M96.8955 78.5605H163.896L198.396 77.0605H212.896L213.396 82.5605H199.396H98.3955H86.8955V78.5605H96.8955Z" fill="#E0426F"/>
<path d="M96.8955 78.5605H163.896L198.396 77.0605M96.8955 78.5605C96.8955 80.0605 97.3955 81.0605 98.3955 82.5605M96.8955 78.5605H86.8955V82.5605H98.3955M198.396 77.0605L199.396 82.5605M198.396 77.0605H212.896L213.396 82.5605H199.396M199.396 82.5605H98.3955" stroke="black" stroke-width="0.5"/>
<path d="M96.8946 78.5605C92.3955 74.0605 89.3956 52.0605 93.3946 35.5605L165.396 31.5605C161.396 36.5605 160.396 70.5605 163.896 78.5605H96.8946Z" fill="#E0426F" stroke="black" stroke-width="0.5"/>
<path d="M228.895 30.5605L165.395 31.5605C161.396 36.5605 160.396 70.5605 163.895 78.5605L198.395 77.0605C202.895 75.5605 209.395 70.0605 228.895 30.5605Z" fill="#E0426F" stroke="black" stroke-width="0.5"/>
<path d="M170.896 30.0606C166.396 30.5606 162.896 30.5606 159.896 30.5606L165.396 8.06062C168.396 7.56055 171.396 7.56055 174.396 8.06062L170.896 30.0606Z" fill="#E0426F" stroke="black" stroke-width="0.5"/>
<path d="M99.3955 32.0608C103.896 37.5608 110.896 34.0608 114.896 32.5608C115.896 17.0607 102.896 25.0607 99.3955 32.0608Z" fill="#E0426F" stroke="black" stroke-width="0.5"/>
<path d="M234.894 9.56055L231.894 13.0605C248.894 18.5605 259.394 21.5605 271.894 28.0605H273.394L281.394 26.5605C266.394 20.0605 258.894 17.5605 234.894 9.56055Z" stroke="black" stroke-width="0.5"/>
<path d="M271.894 28.0605C261.394 22.5605 242.394 16.0605 231.894 13.0605L229.894 15.5605L244.894 23.0605C243.394 25.5605 239.394 27.5605 233.394 30.2605C245.394 29.5605 262.394 28.5605 271.894 28.0605Z" stroke="black" stroke-width="0.5"/>
<path d="M277.396 34.3605L283.394 32.0605L272.895 28.0605L228.895 30.5605C221.395 45.5605 206.395 76.0605 198.395 77.0605H212.895C211.395 66.0605 220.895 42.5605 245.896 51.5605C256.396 46.0605 266.396 40.5605 277.396 34.3605Z" stroke="black" stroke-width="0.5"/>
<path d="M278.394 34.0606C266.394 40.5606 256.394 46.0606 245.894 51.5606C250.394 54.5605 260.894 60.5605 259.894 79.5605L284.894 79.0605V77.5605C293.394 76.5605 301.894 80.0605 300.394 66.0605L302.394 56.0605C302.394 54.5605 299.894 50.5605 297.394 50.0605C298.894 47.5605 295.894 38.5605 295.894 38.5605V37.0605L291.894 34.0605L286.894 32.5605L283.394 32.0605L278.394 34.0606Z" stroke="black" stroke-width="0.5"/>
<path d="M295.894 37.0605L295.888 36.9807M295.888 36.9807L295.394 28.5605L281.394 26.5605L272.894 28.0605L283.394 32.0605C292.894 33.0605 291.892 34.5605 295.888 36.9807Z" stroke="black" stroke-width="0.5"/>
<path d="M294.396 36.5607C293.896 34.0606 282.896 33.8606 277.396 34.3606" stroke="black" stroke-width="0.5"/>
<path d="M300.396 66.5605L260.896 68.5605C260.396 63.5605 258.229 59.3939 256.396 57.5605L302.396 55.0605M300.896 52.5605C289.896 51.0605 278.896 46.2605 266.896 40.2605M228.896 30.5605L272.896 28.0605L281.396 26.5605" stroke="black" stroke-width="0.5"/>
<path d="M272.896 43.0605C279.891 43.4103 285.908 43.5154 291.289 44.0605M297.896 45.0605C295.793 44.6099 293.599 44.2946 291.289 44.0605M295.896 37.5605C295.478 36.9754 295.008 36.4462 294.504 35.9705M291.289 44.0605C290.962 43.7158 290.868 43.1927 290.854 42.5605M290.854 42.5605C290.84 41.9703 290.896 41.2848 290.896 40.5605C290.896 38.5605 289.896 34.5605 286.396 32.5605C288.616 32.5605 291.993 33.6009 294.504 35.9705M290.854 42.5605C293.896 41.0605 294.968 37.5005 294.504 35.9705" stroke="black" stroke-width="0.5"/>
<path d="M290.896 40.5605C286.396 40.5605 284.396 36.5605 283.396 34.0605" stroke="black" stroke-width="0.5"/>
<path d="M132.894 12.6605C119.394 16.6605 107.394 22.5605 93.394 35.5605C100.394 23.5605 115.894 14.0605 131.394 9.06055L132.894 12.6605Z" fill="#E56E90" stroke="black" stroke-width="0.5"/>
<path d="M131.394 9.06055C111.394 14.7346 93.394 32.0605 85.394 30.0605C98.394 20.5605 114.394 12.0605 130.894 7.56055L131.394 9.06055Z" fill="#E56E90" stroke="black" stroke-width="0.5"/>
<path d="M10.3947 48.0604H4.39471C1.89404 52.0604 1.89404 62.0604 2.39471 65.5604C0.894043 66.5604 0.89464 71.0604 1.89471 72.5604L5.89471 73.0604V74.5604L1.89471 76.5604V78.5604C5.89471 79.5604 14.3947 81.5604 22.3947 81.0604V79.5604H39.8947C39.228 71.0604 40.8947 60.5604 49.8947 53.5604C47.3947 49.5604 40.3947 45.0604 37.3947 44.5604C27.3947 43.5604 12.3947 46.0604 10.3947 48.0604Z" fill="#E56E90" stroke="black" stroke-width="0.5"/>
<path d="M93.3955 35.5605C75.5622 36.3939 43.8955 41.2605 33.3955 44.2605L37.3955 44.5605C42.3955 46.0605 47.8955 50.3939 49.8955 53.5605C62.8945 44.0605 88.3945 51.0605 86.8945 78.5605H96.8945C89.8945 67.5605 90.8945 45.5605 93.3955 35.5605Z" fill="#E56E90" stroke="black" stroke-width="0.5"/>
<path d="M10.3936 48.0606H4.39355C36.8937 28.5605 58.8938 34.5605 84.8936 30.0605L93.8938 35.5605C76.8938 36.5605 47.8936 40.0605 33.8936 44.2606C25.8936 44.0605 11.8936 46.0605 10.3936 48.0606Z" fill="#E56E90" stroke="black" stroke-width="0.5"/>
<path d="M37.3955 44.5606C29.8955 43.5605 12.8955 45.5605 10.3955 48.0606C9.5955 50.4606 12.7288 53.3939 14.3955 54.5605C23.8955 56.0605 37.3955 50.0605 37.3955 44.5606Z" fill="#E56E90" stroke="black" stroke-width="0.5"/>
<path d="M4.39474 48.0605C11.3947 49.0605 5.39474 59.5605 2.39474 64.5605C1.89467 57.5605 2.39453 52.0605 4.39474 48.0605Z" fill="#E56E90" stroke="black" stroke-width="0.5"/>
<path d="M22.394 84.0605V79.5605H39.894L40.394 84.0605H22.394Z" fill="#E56E90" stroke="black" stroke-width="0.5"/>
<path d="M2.89551 65.5605C4.39551 68.0605 6.39551 71.2272 5.89551 73.0605M22.3955 79.5605C11.8955 80.0605 7.39551 76.0605 8.39551 72.5605C8.89551 72.0605 10.3955 70.5605 11.3955 70.5605" stroke="black" stroke-width="0.5"/>
<path d="M32.3955 74.5607C29.8955 70.5607 24.3955 65.5607 21.3955 64.0607C19.6455 63.5607 17.0204 63.6857 14.2703 64.0607C12.6454 65.3941 11.3955 68.5607 11.8955 71.5607C11.8955 72.7273 13.2029 75.0607 15.8955 75.0607C20.3955 75.0607 27.3955 75.5607 32.3955 74.5607Z" fill="#E56E90"/>
<path d="M6.39551 65.5607C8.64545 65.0607 11.5204 64.4357 14.2703 64.0607M14.2703 64.0607C17.0204 63.6857 19.6455 63.5607 21.3955 64.0607C24.3955 65.5607 29.8955 70.5607 32.3955 74.5607C27.3955 75.5607 20.3955 75.0607 15.8955 75.0607C13.2029 75.0607 11.8955 72.7273 11.8955 71.5607C11.3955 68.5607 12.6454 65.3941 14.2703 64.0607Z" stroke="black" stroke-width="0.5"/>
<path d="M11.8955 71.0607C19.8955 69.5608 23.3955 72.1893 26.3955 73.6893M13.3955 74.0608L30.8955 73.5608" stroke="black" stroke-width="0.5"/>
<path d="M22.3936 82.5605H31.8936C33.8936 82.5605 35.3936 80.5605 34.8936 79.5605M38.3936 79.5605V84.0605" stroke="black" stroke-width="0.5"/>
<path d="M22.3955 81.0608C17.8955 81.0608 13.3955 81.5608 1.89545 78.5608V76.5608L5.89545 74.5608V73.0608L1.89545 72.5608C1.39453 71.0605 0.394727 68.0605 2.39472 65.5605C1.89497 57.5605 2.39497 51.0605 4.39545 48.0603C36.8955 28.5607 58.8954 34.5607 84.8954 30.0607C162.895 -24.9394 244.895 12.0605 281.895 26.5607L295.395 28.5605L295.895 35.5605V38.5605C297.394 43.5605 298.729 48.0605 297.395 50.0605C299.895 51.0605 302.395 54.2272 302.395 56.0605L300.395 66.0605C300.847 76.9085 298.439 77.1327 289.108 77.4452C288.117 77.4784 286.048 77.5125 284.895 77.5605V79.0605L259.895 79.4916M22.3955 81.0608V84.0608H40.3938L39.8955 79.5608M22.3955 81.0608V79.5608H39.8955M39.8955 79.5608C36.8955 38.0608 90.3954 41.0608 86.8954 80.0608V82.5605H213.395C207.395 39.0605 261.895 39.0605 259.895 79.4916M259.394 79.4916H259.895" stroke="black"/>
</svg>
