<svg width="303" height="96" viewBox="0 0 303 96" fill="none" xmlns="http://www.w3.org/2000/svg">
<circle cx="62.2725" cy="74.2146" r="20.5" fill="#E56E90" stroke="black"/>
<circle cx="235.272" cy="74.2146" r="20.5" fill="#E56E90" stroke="black"/>
<path d="M132.271 12.7145L130.771 9.21445C170.771 1.21457 192.271 1.7146 231.271 13.2145L227.771 17.7145C207.771 9.71451 189.771 8.71451 173.771 8.21458C171.271 7.71458 167.271 7.71454 164.771 8.21445C154.771 8.21458 142.771 9.71458 132.271 12.7145Z" fill="#E56E90" stroke="black" stroke-width="0.5"/>
<path d="M130.771 9.21464L130.271 7.71464C166.271 -3.2854 198.771 0.714474 234.271 9.71465L231.271 13.2146C191.271 0.7146 165.271 2.2146 130.771 9.21464Z" fill="#E56E90" stroke="black" stroke-width="0.5"/>
<path d="M130.771 9.21447C182.271 -2.28556 210.771 7.71448 231.271 13.2145" stroke="black" stroke-width="0.5"/>
<path d="M170.272 30.2146L173.772 8.2146C207.272 9.2146 218.772 14.7146 223.272 16.2146L225.755 28.2146C198.765 28.2152 181.27 29.7147 170.272 30.2146Z" fill="#E56E90"/>
<path d="M226.272 30.7146L223.272 16.2146C218.772 14.7146 207.272 9.2146 173.772 8.2146L170.272 30.2146C181.272 29.7146 198.772 28.2146 225.772 28.2146" stroke="black" stroke-width="0.5"/>
<path d="M164.772 8.2146C131.772 9.2146 111.772 18.2146 92.7725 35.7146L95.2725 33.7146L159.272 30.7146L164.772 8.2146Z" fill="#E56E90" stroke="black" stroke-width="0.5"/>
<path d="M239.271 22.7146C235.604 20.0479 229.771 17.7146 223.271 16.2146L225.771 28.2146H232.271C235.271 26.7146 238.271 24.4833 239.271 22.7146Z" fill="#E56E90" stroke="black" stroke-width="0.5"/>
<path d="M96.2725 78.7146H163.272L197.772 77.2146H212.272L212.772 82.7146H198.772H97.7725H86.2725V78.7146H96.2725Z" fill="#E56E90"/>
<path d="M96.2725 78.7146H163.272L197.772 77.2146M96.2725 78.7146C96.2725 80.2146 96.7725 81.2146 97.7725 82.7146M96.2725 78.7146H86.2725V82.7146H97.7725M197.772 77.2146L198.772 82.7146M197.772 77.2146H212.272L212.772 82.7146H198.772M198.772 82.7146H97.7725" stroke="black" stroke-width="0.5"/>
<path d="M96.2716 78.7146C91.7725 74.2146 88.7725 52.2146 92.7716 35.7146L164.772 31.7146C160.772 36.7146 159.772 70.7146 163.272 78.7146H96.2716Z" fill="#E56E90" stroke="black" stroke-width="0.5"/>
<path d="M228.272 30.7146L164.772 31.7146C160.773 36.7146 159.773 70.7146 163.272 78.7146L197.772 77.2146C202.272 75.7146 208.772 70.2146 228.272 30.7146Z" fill="#E56E90" stroke="black" stroke-width="0.5"/>
<path d="M170.272 30.2147C165.772 30.7147 162.272 30.7147 159.272 30.7147L164.772 8.21467C167.772 7.7146 170.772 7.7146 173.772 8.21467L170.272 30.2147Z" fill="#E56E90" stroke="black" stroke-width="0.5"/>
<path d="M98.7725 32.2146C103.272 37.7146 110.272 34.2146 114.272 32.7146C115.272 17.2145 102.272 25.2145 98.7725 32.2146Z" fill="#E56E90" stroke="black" stroke-width="0.5"/>
<path d="M234.271 9.7146L231.271 13.2146C248.271 18.7146 258.771 21.7146 271.271 28.2146H272.771L280.771 26.7146C265.771 20.2146 258.271 17.7146 234.271 9.7146Z" fill="#EDADBF" stroke="black" stroke-width="0.5"/>
<path d="M271.271 28.2146C260.771 22.7146 241.771 16.2146 231.271 13.2146L229.271 15.7146L244.271 23.2146C242.771 25.7146 238.771 27.7146 232.771 30.4146C244.771 29.7146 261.771 28.7146 271.271 28.2146Z" fill="#EDADBF" stroke="black" stroke-width="0.5"/>
<path d="M276.772 34.5146L282.771 32.2146L272.271 28.2146L228.271 30.7146C220.771 45.7146 205.771 76.2146 197.771 77.2146H212.271C210.771 66.2146 220.271 42.7146 245.272 51.7146C255.772 46.2146 265.772 40.7146 276.772 34.5146Z" fill="#EDADBF" stroke="black" stroke-width="0.5"/>
<path d="M277.771 34.2146C265.771 40.7146 255.771 46.2146 245.271 51.7146C249.771 54.7146 260.271 60.7146 259.271 79.7146L284.271 79.2146V77.7146C292.771 76.7146 301.271 80.2146 299.771 66.2146L301.771 56.2146C301.771 54.7146 299.271 50.7146 296.771 50.2146C298.271 47.7146 295.271 38.7146 295.271 38.7146V37.2146L291.271 34.2146L286.271 32.7146L282.771 32.2146L277.771 34.2146Z" fill="#EDADBF" stroke="black" stroke-width="0.5"/>
<path d="M280.771 26.7146L272.271 28.2146L282.771 32.2146C292.271 33.2146 291.269 34.7146 295.265 37.1348L294.771 28.7146L280.771 26.7146Z" fill="#EDADBF"/>
<path d="M295.271 37.2146L295.265 37.1348M295.265 37.1348L294.771 28.7146L280.771 26.7146L272.271 28.2146L282.771 32.2146C292.271 33.2146 291.269 34.7146 295.265 37.1348Z" stroke="black" stroke-width="0.5"/>
<path d="M293.772 36.7148C293.272 34.2147 282.272 34.0146 276.772 34.5146" stroke="black" stroke-width="0.5"/>
<path d="M299.772 66.7146L260.272 68.7146C259.772 63.7146 257.606 59.5479 255.772 57.7146L301.772 55.2146M300.272 52.7146C289.272 51.2146 278.272 46.4146 266.272 40.4146M228.272 30.7146L272.272 28.2146L280.772 26.7146" stroke="black" stroke-width="0.5"/>
<path d="M290.272 40.7146C290.272 38.7146 289.272 34.7146 285.772 32.7146C287.993 32.7146 291.37 33.755 293.881 36.1246C294.345 37.6546 293.272 41.2146 290.231 42.7146C290.217 42.1243 290.272 41.4389 290.272 40.7146Z" fill="#EDADBF"/>
<path d="M272.272 43.2146C279.268 43.5644 285.285 43.6695 290.666 44.2146M297.272 45.2146C295.169 44.764 292.976 44.4487 290.666 44.2146M295.272 37.7146C294.855 37.1295 294.385 36.6002 293.881 36.1246M290.666 44.2146C290.339 43.8698 290.245 43.3468 290.231 42.7146M290.231 42.7146C290.217 42.1243 290.272 41.4389 290.272 40.7146C290.272 38.7146 289.272 34.7146 285.772 32.7146C287.993 32.7146 291.37 33.755 293.881 36.1246M290.231 42.7146C293.272 41.2146 294.345 37.6546 293.881 36.1246" stroke="black" stroke-width="0.5"/>
<path d="M290.272 40.7146C285.772 40.7146 283.772 36.7146 282.772 34.2146" stroke="black" stroke-width="0.5"/>
<path d="M132.271 12.8146C118.771 16.8146 106.771 22.7146 92.7705 35.7146C99.7705 23.7146 115.271 14.2146 130.771 9.2146L132.271 12.8146Z" fill="#E56E90" stroke="black" stroke-width="0.5"/>
<path d="M130.771 9.2146C110.771 14.8886 92.7705 32.2146 84.7705 30.2146C97.7705 20.7146 113.771 12.2146 130.271 7.7146L130.771 9.2146Z" fill="#E56E90" stroke="black" stroke-width="0.5"/>
<path d="M9.77118 48.2145H3.77118C1.27051 52.2145 1.27051 62.2145 1.77118 65.7145C0.270508 66.7145 0.271105 71.2145 1.27118 72.7145L5.27118 73.2145V74.7145L1.27118 76.7145V78.7145C5.27118 79.7145 13.7712 81.7145 21.7712 81.2145V79.7145H39.2712C38.6045 71.2145 40.2712 60.7145 49.2712 53.7145C46.7712 49.7145 39.7712 45.2145 36.7712 44.7145C26.7712 43.7145 11.7712 46.2145 9.77118 48.2145Z" fill="#E56E90" stroke="black" stroke-width="0.5"/>
<path d="M92.7725 35.7146C74.9391 36.5479 43.2725 41.4146 32.7725 44.4146L36.7725 44.7146C41.7725 46.2146 47.2725 50.5479 49.2725 53.7146C62.2715 44.2146 87.7715 51.2146 86.2715 78.7146H96.2715C89.2715 67.7146 90.2715 45.7146 92.7725 35.7146Z" fill="#E56E90" stroke="black" stroke-width="0.5"/>
<path d="M9.77051 48.2147H3.77051C36.2707 28.7146 58.2708 34.7146 84.2705 30.2146L93.2708 35.7146C76.2708 36.7146 47.2705 40.2146 33.2705 44.4146C25.2705 44.2146 11.2705 46.2146 9.77051 48.2147Z" fill="#E56E90" stroke="black" stroke-width="0.5"/>
<path d="M36.772 44.7147C29.272 43.7146 12.272 45.7146 9.77196 48.2147C8.97196 50.6146 12.1053 53.5479 13.772 54.7146C23.272 56.2146 36.772 50.2146 36.772 44.7147Z" fill="#E56E90" stroke="black" stroke-width="0.5"/>
<path d="M3.7712 48.2146C10.7712 49.2146 4.7712 59.7146 1.7712 64.7146C1.27113 57.7146 1.771 52.2146 3.7712 48.2146Z" fill="#E56E90" stroke="black" stroke-width="0.5"/>
<path d="M21.7705 84.2146V79.7146H39.2705L39.7705 84.2146H21.7705Z" fill="#E56E90" stroke="black" stroke-width="0.5"/>
<path d="M2.27246 65.7144C3.77246 68.2144 5.77246 71.381 5.27246 73.2144M21.7725 79.7144C11.2725 80.2144 6.77246 76.2144 7.77246 72.7144C8.27246 72.2144 9.77246 70.7144 10.7725 70.7144" stroke="black" stroke-width="0.5"/>
<path d="M31.7725 74.7145C29.2725 70.7145 23.7725 65.7146 20.7725 64.2146C19.0224 63.7145 16.3973 63.8395 13.6472 64.2146C12.0223 65.5479 10.7725 68.7145 11.2725 71.7145C11.2725 72.8811 12.5799 75.2145 15.2725 75.2145C19.7725 75.2145 26.7725 75.7145 31.7725 74.7145Z" fill="#E56E90"/>
<path d="M5.77246 65.7146C8.0224 65.2145 10.8973 64.5896 13.6472 64.2146M13.6472 64.2146C16.3973 63.8395 19.0224 63.7145 20.7725 64.2146C23.7725 65.7146 29.2725 70.7145 31.7725 74.7145C26.7725 75.7145 19.7725 75.2145 15.2725 75.2145C12.5799 75.2145 11.2725 72.8811 11.2725 71.7145C10.7725 68.7145 12.0223 65.5479 13.6472 64.2146Z" stroke="black" stroke-width="0.5"/>
<path d="M11.2725 71.2146C19.2725 69.7146 22.7725 72.3431 25.7725 73.8431M12.7725 74.2146L30.2725 73.7146" stroke="black" stroke-width="0.5"/>
<path d="M21.7705 82.7144H31.2705C33.2705 82.7144 34.7705 80.7144 34.2705 79.7144M37.7705 79.7144V84.2144" stroke="black" stroke-width="0.5"/>
<path d="M21.7724 81.2148C17.2724 81.2148 12.7724 81.7148 1.27241 78.7148V76.7148L5.27241 74.7148V73.2148L1.27241 72.7149C0.771484 71.2146 -0.22832 68.2146 1.77168 65.7146C1.27192 57.7146 1.77192 51.2146 3.77241 48.2143C36.2724 28.7147 58.2724 34.7148 84.2724 30.2148C162.272 -24.7853 244.272 12.2146 281.272 26.7148L294.772 28.7146L295.272 35.7146V38.7146C296.771 43.7146 298.106 48.2146 296.772 50.2146C299.272 51.2146 301.772 54.3813 301.772 56.2146L299.772 66.2146C300.224 77.0625 297.816 77.2868 288.485 77.5992C287.494 77.6324 285.425 77.6666 284.272 77.7146V79.2146L259.272 79.6456M21.7724 81.2148V84.2148H39.7708L39.2724 79.7148M21.7724 81.2148V79.7148H39.2724M39.2724 79.7148C36.2724 38.2148 89.7724 41.2148 86.2724 80.2148V82.7146H212.772C206.772 39.2146 261.272 39.2146 259.272 79.6456M258.771 79.6456H259.272" stroke="black"/>
</svg>
