<svg width="303" height="96" viewBox="0 0 303 96" fill="none" xmlns="http://www.w3.org/2000/svg">
<circle cx="62.8853" cy="74.5378" r="20.5" fill="#EFC7D3" stroke="black"/>
<circle cx="235.885" cy="74.5378" r="20.5" fill="#EFC7D3" stroke="black"/>
<path d="M132.884 13.0377L131.384 9.5377C171.384 1.53781 192.884 2.03784 231.884 13.5378L228.384 18.0378C208.384 10.0378 190.384 9.03775 174.384 8.53782C171.884 8.03782 167.884 8.03778 165.384 8.5377C155.384 8.53782 143.384 10.0378 132.884 13.0377Z" fill="#EDADBF" stroke="black" stroke-width="0.5"/>
<path d="M131.384 9.53789L130.884 8.03789C166.884 -2.96216 199.384 1.03772 234.884 10.0379L231.884 13.5379C191.884 1.03784 165.884 2.53784 131.384 9.53789Z" fill="#EDADBF" stroke="black" stroke-width="0.5"/>
<path d="M131.384 9.53771C182.884 -1.96232 211.384 8.03772 231.884 13.5377" stroke="black" stroke-width="0.5"/>
<path d="M170.885 30.5378L174.385 8.53784C207.885 9.53784 219.385 15.0378 223.885 16.5378L226.368 28.5378C199.378 28.5385 181.883 30.0379 170.885 30.5378Z" fill="#EDADBF"/>
<path d="M226.885 31.0378L223.885 16.5378C219.385 15.0378 207.885 9.53784 174.385 8.53784L170.885 30.5378C181.885 30.0378 199.385 28.5378 226.385 28.5378" stroke="black" stroke-width="0.5"/>
<path d="M165.385 8.53784C132.385 9.53784 112.385 18.5378 93.3853 36.0378L95.8853 34.0378L159.885 31.0378L165.385 8.53784Z" fill="#EDADBF" stroke="black" stroke-width="0.5"/>
<path d="M239.884 23.0378C236.217 20.3712 230.384 18.0378 223.884 16.5378L226.384 28.5378H232.884C235.884 27.0378 238.884 24.8066 239.884 23.0378Z" fill="#EDADBF" stroke="black" stroke-width="0.5"/>
<path d="M96.8853 79.0378H163.885L198.385 77.5378H212.885L213.385 83.0378H199.385H98.3853H86.8853V79.0378H96.8853Z" fill="#EDADBF"/>
<path d="M96.8853 79.0378H163.885L198.385 77.5378M96.8853 79.0378C96.8853 80.5378 97.3853 81.5378 98.3853 83.0378M96.8853 79.0378H86.8853V83.0378H98.3853M198.385 77.5378L199.385 83.0378M198.385 77.5378H212.885L213.385 83.0378H199.385M199.385 83.0378H98.3853" stroke="black" stroke-width="0.5"/>
<path d="M96.8844 79.0378C92.3852 74.5378 89.3853 52.5378 93.3844 36.0378L165.385 32.0378C161.385 37.0378 160.385 71.0378 163.885 79.0378H96.8844Z" fill="#EDADBF" stroke="black" stroke-width="0.5"/>
<path d="M228.885 31.0378L165.385 32.0378C161.385 37.0378 160.385 71.0378 163.885 79.0378L198.385 77.5378C202.885 76.0378 209.385 70.5378 228.885 31.0378Z" fill="#EDADBF" stroke="black" stroke-width="0.5"/>
<path d="M170.885 30.5379C166.385 31.0379 162.885 31.0379 159.885 31.0379L165.385 8.53792C168.385 8.03784 171.385 8.03784 174.385 8.53792L170.885 30.5379Z" fill="#EDADBF" stroke="black" stroke-width="0.5"/>
<path d="M99.3853 32.5379C103.885 38.0379 110.885 34.5379 114.885 33.0379C115.885 17.5377 102.885 25.5377 99.3853 32.5379Z" fill="#EDADBF" stroke="black" stroke-width="0.5"/>
<path d="M234.884 10.0378L231.884 13.5378C248.884 19.0378 259.384 22.0378 271.884 28.5378H273.384L281.384 27.0378C266.384 20.5378 258.884 18.0378 234.884 10.0378Z" fill="#EFC7D3" stroke="black" stroke-width="0.5"/>
<path d="M271.884 28.5378C261.384 23.0378 242.384 16.5378 231.884 13.5378L229.884 16.0378L244.884 23.5378C243.384 26.0378 239.384 28.0378 233.384 30.7378C245.384 30.0378 262.384 29.0378 271.884 28.5378Z" fill="#EFC7D3" stroke="black" stroke-width="0.5"/>
<path d="M277.385 34.8378L283.384 32.5378L272.884 28.5378L228.884 31.0378C221.384 46.0378 206.384 76.5378 198.384 77.5378H212.884C211.384 66.5378 220.884 43.0378 245.885 52.0378C256.385 46.5378 266.385 41.0378 277.385 34.8378Z" fill="#EFC7D3" stroke="black" stroke-width="0.5"/>
<path d="M278.384 34.5379C266.384 41.0379 256.384 46.5379 245.884 52.0379C250.384 55.0378 260.884 61.0378 259.884 80.0378L284.884 79.5378V78.0378C293.384 77.0378 301.884 80.5378 300.384 66.5378L302.384 56.5378C302.384 55.0378 299.884 51.0378 297.384 50.5378C298.884 48.0378 295.884 39.0378 295.884 39.0378V37.5378L291.884 34.5378L286.884 33.0378L283.384 32.5378L278.384 34.5379Z" fill="#EFC7D3" stroke="black" stroke-width="0.5"/>
<path d="M281.384 27.0378L272.884 28.5378L283.384 32.5378C292.884 33.5378 291.883 35.0378 295.878 37.458L295.384 29.0378L281.384 27.0378Z" fill="#EFC7D3"/>
<path d="M295.884 37.5378L295.878 37.458M295.878 37.458L295.384 29.0378L281.384 27.0378L272.884 28.5378L283.384 32.5378C292.884 33.5378 291.883 35.0378 295.878 37.458Z" stroke="black" stroke-width="0.5"/>
<path d="M294.385 37.038C293.885 34.5379 282.885 34.3379 277.385 34.8379" stroke="black" stroke-width="0.5"/>
<path d="M300.385 67.0378L260.885 69.0378C260.385 64.0378 258.219 59.8712 256.385 58.0378L302.385 55.5378M300.885 53.0378C289.885 51.5378 278.885 46.7378 266.885 40.7378M228.885 31.0378L272.885 28.5378L281.385 27.0378" stroke="black" stroke-width="0.5"/>
<path d="M290.885 41.0378C290.885 39.0378 289.885 35.0378 286.385 33.0378C288.606 33.0378 291.983 34.0782 294.494 36.4478C294.958 37.9778 293.885 41.5378 290.843 43.0378C290.83 42.4476 290.885 41.7621 290.885 41.0378Z" fill="#EFC7D3"/>
<path d="M272.885 43.5378C279.881 43.8876 285.898 43.9927 291.278 44.5378M297.885 45.5378C295.782 45.0872 293.589 44.7719 291.278 44.5378M295.885 38.0378C295.467 37.4527 294.998 36.9235 294.494 36.4478M291.278 44.5378C290.952 44.1931 290.858 43.67 290.843 43.0378M290.843 43.0378C290.83 42.4476 290.885 41.7621 290.885 41.0378C290.885 39.0378 289.885 35.0378 286.385 33.0378C288.606 33.0378 291.983 34.0782 294.494 36.4478M290.843 43.0378C293.885 41.5378 294.958 37.9778 294.494 36.4478" stroke="black" stroke-width="0.5"/>
<path d="M290.885 41.0378C286.385 41.0378 284.385 37.0378 283.385 34.5378" stroke="black" stroke-width="0.5"/>
<path d="M132.884 13.1378C119.384 17.1378 107.384 23.0378 93.3838 36.0378C100.384 24.0378 115.884 14.5378 131.384 9.53784L132.884 13.1378Z" fill="#E0426F" stroke="black" stroke-width="0.5"/>
<path d="M131.384 9.53784C111.384 15.2119 93.3838 32.5378 85.3838 30.5378C98.3838 21.0378 114.384 12.5378 130.884 8.03784L131.384 9.53784Z" fill="#E0426F" stroke="black" stroke-width="0.5"/>
<path d="M10.3845 48.5377H4.38446C1.88379 52.5377 1.88379 62.5377 2.38446 66.0377C0.883789 67.0377 0.884387 71.5377 1.88446 73.0377L5.88446 73.5377V75.0377L1.88446 77.0377V79.0377C5.88446 80.0377 14.3845 82.0377 22.3845 81.5377V80.0377H39.8845C39.2178 71.5377 40.8845 61.0377 49.8845 54.0377C47.3845 50.0377 40.3845 45.5377 37.3845 45.0377C27.3845 44.0377 12.3845 46.5377 10.3845 48.5377Z" fill="#E0426F" stroke="black" stroke-width="0.5"/>
<path d="M93.3853 36.0378C75.5519 36.8712 43.8853 41.7378 33.3853 44.7378L37.3853 45.0378C42.3853 46.5378 47.8853 50.8712 49.8853 54.0378C62.8843 44.5378 88.3843 51.5378 86.8843 79.0378H96.8843C89.8843 68.0378 90.8843 46.0378 93.3853 36.0378Z" fill="#E0426F" stroke="black" stroke-width="0.5"/>
<path d="M10.3838 48.5379H4.38379C36.884 29.0378 58.884 35.0378 84.8838 30.5378L93.884 36.0378C76.884 37.0378 47.8838 40.5378 33.8838 44.7378C25.8838 44.5378 11.8838 46.5378 10.3838 48.5379Z" fill="#E0426F" stroke="black" stroke-width="0.5"/>
<path d="M37.3852 45.0379C29.8852 44.0378 12.8852 46.0378 10.3852 48.5379C9.58524 50.9379 12.7186 53.8712 14.3852 55.0378C23.8853 56.5378 37.3852 50.5378 37.3852 45.0379Z" fill="#E0426F" stroke="black" stroke-width="0.5"/>
<path d="M4.38448 48.5378C11.3845 49.5378 5.38448 60.0378 2.38448 65.0378C1.88441 58.0378 2.38428 52.5378 4.38448 48.5378Z" fill="#E0426F" stroke="black" stroke-width="0.5"/>
<path d="M22.3838 84.5378V80.0378H39.8838L40.3838 84.5378H22.3838Z" fill="#E0426F" stroke="black" stroke-width="0.5"/>
<path d="M2.88574 66.0376C4.38574 68.5376 6.38574 71.7043 5.88574 73.5376M22.3857 80.0376C11.8857 80.5376 7.38574 76.5376 8.38574 73.0376C8.88574 72.5376 10.3857 71.0376 11.3857 71.0376" stroke="black" stroke-width="0.5"/>
<path d="M32.3857 75.0377C29.8857 71.0377 24.3857 66.0378 21.3857 64.5378C19.6357 64.0378 17.0106 64.1628 14.2605 64.5378C12.6356 65.8711 11.3857 69.0377 11.8857 72.0377C11.8857 73.2044 13.1932 75.5377 15.8857 75.5377C20.3857 75.5377 27.3857 76.0377 32.3857 75.0377Z" fill="#E0426F"/>
<path d="M6.38574 66.0378C8.63568 65.5378 11.5106 64.9128 14.2605 64.5378M14.2605 64.5378C17.0106 64.1628 19.6357 64.0378 21.3857 64.5378C24.3857 66.0378 29.8857 71.0377 32.3857 75.0377C27.3857 76.0377 20.3857 75.5377 15.8857 75.5377C13.1932 75.5377 11.8857 73.2044 11.8857 72.0377C11.3857 69.0377 12.6356 65.8711 14.2605 64.5378Z" stroke="black" stroke-width="0.5"/>
<path d="M11.8857 71.5378C19.8857 70.0378 23.3857 72.6663 26.3857 74.1663M13.3857 74.5378L30.8857 74.0378" stroke="black" stroke-width="0.5"/>
<path d="M22.3838 83.0376H31.8838C33.8838 83.0376 35.3838 81.0376 34.8838 80.0376M38.3838 80.0376V84.5376" stroke="black" stroke-width="0.5"/>
<path d="M22.3852 81.5381C17.8852 81.5381 13.3852 82.0381 1.8852 79.0381V77.0381L5.8852 75.0381V73.5381L1.8852 73.0381C1.38428 71.5378 0.384473 68.5378 2.38447 66.0378C1.88471 58.0378 2.38471 51.5378 4.3852 48.5376C36.8852 29.038 58.8852 35.038 84.8852 30.538C162.885 -24.4621 244.885 12.5378 281.885 27.038L295.385 29.0378L295.885 36.0378V39.0378C297.384 44.0378 298.719 48.5378 297.385 50.5378C299.885 51.5378 302.385 54.7045 302.385 56.5378L300.385 66.5378C300.837 77.3858 298.429 77.61 289.098 77.9225C288.106 77.9557 286.037 77.9898 284.885 78.0378V79.5378L259.885 79.9689M22.3852 81.5381V84.5381H40.3835L39.8852 80.0381M22.3852 81.5381V80.0381H39.8852M39.8852 80.0381C36.8852 38.5381 90.3852 41.5381 86.8852 80.5381V83.0378H213.385C207.385 39.5378 261.885 39.5378 259.885 79.9689M259.384 79.9689H259.885" stroke="black"/>
</svg>
