<svg width="303" height="96" viewBox="0 0 303 96" fill="none" xmlns="http://www.w3.org/2000/svg">
<circle cx="62.4697" cy="74.2146" r="20.5" fill="#E0426F" stroke="black"/>
<circle cx="235.47" cy="74.2146" r="20.5" fill="#E0426F" stroke="black"/>
<path d="M132.468 12.7145L130.968 9.21445C170.968 1.21457 192.468 1.7146 231.468 13.2145L227.968 17.7145C207.968 9.71451 189.968 8.71451 173.968 8.21458C171.468 7.71458 167.468 7.71454 164.968 8.21445C154.968 8.21458 142.968 9.71458 132.468 12.7145Z" fill="#E56E90" stroke="black" stroke-width="0.5"/>
<path d="M130.968 9.21464L130.468 7.71464C166.468 -3.2854 198.968 0.714474 234.468 9.71465L231.468 13.2146C191.468 0.7146 165.468 2.2146 130.968 9.21464Z" fill="#E56E90" stroke="black" stroke-width="0.5"/>
<path d="M130.968 9.21447C182.468 -2.28556 210.968 7.71448 231.468 13.2145" stroke="black" stroke-width="0.5"/>
<path d="M170.47 30.2146L173.97 8.2146C207.47 9.2146 218.97 14.7146 223.47 16.2146L225.952 28.2146C198.962 28.2152 181.467 29.7147 170.47 30.2146Z" fill="#E56E90"/>
<path d="M226.47 30.7146L223.47 16.2146C218.97 14.7146 207.47 9.2146 173.97 8.2146L170.47 30.2146C181.47 29.7146 198.97 28.2146 225.97 28.2146" stroke="black" stroke-width="0.5"/>
<path d="M164.97 8.2146C131.97 9.2146 111.97 18.2146 92.9697 35.7146L95.4697 33.7146L159.47 30.7146L164.97 8.2146Z" fill="#E56E90" stroke="black" stroke-width="0.5"/>
<path d="M239.468 22.7146C235.801 20.0479 229.968 17.7146 223.468 16.2146L225.968 28.2146H232.468C235.468 26.7146 238.468 24.4833 239.468 22.7146Z" fill="#E56E90" stroke="black" stroke-width="0.5"/>
<path d="M96.4697 78.7146H163.47L197.97 77.2146H212.47L212.97 82.7146H198.97H97.9697H86.4697V78.7146H96.4697Z" fill="#E56E90"/>
<path d="M96.4697 78.7146H163.47L197.97 77.2146M96.4697 78.7146C96.4697 80.2146 96.9697 81.2146 97.9697 82.7146M96.4697 78.7146H86.4697V82.7146H97.9697M197.97 77.2146L198.97 82.7146M197.97 77.2146H212.47L212.97 82.7146H198.97M198.97 82.7146H97.9697" stroke="black" stroke-width="0.5"/>
<path d="M96.4689 78.7146C91.9697 74.2146 88.9698 52.2146 92.9689 35.7146L164.97 31.7146C160.97 36.7146 159.97 70.7146 163.47 78.7146H96.4689Z" fill="#E56E90" stroke="black" stroke-width="0.5"/>
<path d="M228.47 30.7146L164.97 31.7146C160.97 36.7146 159.97 70.7146 163.47 78.7146L197.97 77.2146C202.47 75.7146 208.97 70.2146 228.47 30.7146Z" fill="#E56E90" stroke="black" stroke-width="0.5"/>
<path d="M170.47 30.2147C165.97 30.7147 162.47 30.7147 159.47 30.7147L164.97 8.21467C167.97 7.7146 170.97 7.7146 173.97 8.21467L170.47 30.2147Z" fill="#E56E90" stroke="black" stroke-width="0.5"/>
<path d="M98.9697 32.2146C103.47 37.7146 110.47 34.2146 114.47 32.7146C115.47 17.2145 102.47 25.2145 98.9697 32.2146Z" fill="#E56E90" stroke="black" stroke-width="0.5"/>
<path d="M234.468 9.7146L231.468 13.2146C248.468 18.7146 258.968 21.7146 271.468 28.2146H272.968L280.968 26.7146C265.968 20.2146 258.468 17.7146 234.468 9.7146Z" fill="#EDADBF" stroke="black" stroke-width="0.5"/>
<path d="M271.468 28.2146C260.968 22.7146 241.968 16.2146 231.468 13.2146L229.468 15.7146L244.468 23.2146C242.968 25.7146 238.968 27.7146 232.968 30.4146C244.968 29.7146 261.968 28.7146 271.468 28.2146Z" fill="#EDADBF" stroke="black" stroke-width="0.5"/>
<path d="M276.97 34.5146L282.968 32.2146L272.469 28.2146L228.469 30.7146C220.969 45.7146 205.969 76.2146 197.969 77.2146H212.469C210.969 66.2146 220.469 42.7146 245.47 51.7146C255.97 46.2146 265.97 40.7146 276.97 34.5146Z" fill="#EDADBF" stroke="black" stroke-width="0.5"/>
<path d="M277.968 34.2146C265.968 40.7146 255.968 46.2146 245.468 51.7146C249.968 54.7146 260.468 60.7146 259.468 79.7146L284.468 79.2146V77.7146C292.968 76.7146 301.468 80.2146 299.968 66.2146L301.968 56.2146C301.968 54.7146 299.468 50.7146 296.968 50.2146C298.468 47.7146 295.468 38.7146 295.468 38.7146V37.2146L291.468 34.2146L286.468 32.7146L282.968 32.2146L277.968 34.2146Z" fill="#EDADBF" stroke="black" stroke-width="0.5"/>
<path d="M280.968 26.7146L272.468 28.2146L282.968 32.2146C292.468 33.2146 291.467 34.7146 295.462 37.1348L294.968 28.7146L280.968 26.7146Z" fill="#EDADBF"/>
<path d="M295.468 37.2146L295.462 37.1348M295.462 37.1348L294.968 28.7146L280.968 26.7146L272.468 28.2146L282.968 32.2146C292.468 33.2146 291.467 34.7146 295.462 37.1348Z" stroke="black" stroke-width="0.5"/>
<path d="M293.97 36.7148C293.47 34.2147 282.47 34.0146 276.97 34.5146" stroke="black" stroke-width="0.5"/>
<path d="M299.97 66.7146L260.47 68.7146C259.97 63.7146 257.803 59.5479 255.97 57.7146L301.97 55.2146M300.47 52.7146C289.47 51.2146 278.47 46.4146 266.47 40.4146M228.47 30.7146L272.47 28.2146L280.97 26.7146" stroke="black" stroke-width="0.5"/>
<path d="M290.47 40.7146C290.47 38.7146 289.47 34.7146 285.97 32.7146C288.191 32.7146 291.567 33.755 294.079 36.1246C294.542 37.6546 293.47 41.2146 290.428 42.7146C290.414 42.1243 290.47 41.4389 290.47 40.7146Z" fill="#EDADBF"/>
<path d="M272.47 43.2146C279.465 43.5644 285.482 43.6695 290.863 44.2146M297.47 45.2146C295.367 44.764 293.173 44.4487 290.863 44.2146M295.47 37.7146C295.052 37.1295 294.583 36.6002 294.079 36.1246M290.863 44.2146C290.537 43.8698 290.443 43.3468 290.428 42.7146M290.428 42.7146C290.414 42.1243 290.47 41.4389 290.47 40.7146C290.47 38.7146 289.47 34.7146 285.97 32.7146C288.191 32.7146 291.567 33.755 294.079 36.1246M290.428 42.7146C293.47 41.2146 294.542 37.6546 294.079 36.1246" stroke="black" stroke-width="0.5"/>
<path d="M290.47 40.7146C285.97 40.7146 283.97 36.7146 282.97 34.2146" stroke="black" stroke-width="0.5"/>
<path d="M132.468 12.8146C118.968 16.8146 106.968 22.7146 92.9678 35.7146C99.9678 23.7146 115.468 14.2146 130.968 9.2146L132.468 12.8146Z" fill="#E56E90" stroke="black" stroke-width="0.5"/>
<path d="M130.968 9.2146C110.968 14.8886 92.9678 32.2146 84.9678 30.2146C97.9678 20.7146 113.968 12.2146 130.468 7.7146L130.968 9.2146Z" fill="#E56E90" stroke="black" stroke-width="0.5"/>
<path d="M9.96844 48.2145H3.96844C1.46777 52.2145 1.46777 62.2145 1.96844 65.7145C0.467773 66.7145 0.468371 71.2145 1.46844 72.7145L5.46844 73.2145V74.7145L1.46844 76.7145V78.7145C5.46844 79.7145 13.9684 81.7145 21.9684 81.2145V79.7145H39.4684C38.8018 71.2145 40.4684 60.7145 49.4684 53.7145C46.9684 49.7145 39.9684 45.2145 36.9684 44.7145C26.9684 43.7145 11.9684 46.2145 9.96844 48.2145Z" fill="#E56E90" stroke="black" stroke-width="0.5"/>
<path d="M92.9697 35.7146C75.1364 36.5479 43.4697 41.4146 32.9697 44.4146L36.9697 44.7146C41.9697 46.2146 47.4697 50.5479 49.4697 53.7146C62.4688 44.2146 87.9688 51.2146 86.4688 78.7146H96.4688C89.4688 67.7146 90.4688 45.7146 92.9697 35.7146Z" fill="#E56E90" stroke="black" stroke-width="0.5"/>
<path d="M9.96777 48.2147H3.96777C36.468 28.7146 58.468 34.7146 84.4678 30.2146L93.468 35.7146C76.468 36.7146 47.4678 40.2146 33.4678 44.4146C25.4678 44.2146 11.4678 46.2146 9.96777 48.2147Z" fill="#E56E90" stroke="black" stroke-width="0.5"/>
<path d="M36.9692 44.7147C29.4692 43.7146 12.4692 45.7146 9.96923 48.2147C9.16923 50.6146 12.3026 53.5479 13.9692 54.7146C23.4692 56.2146 36.9692 50.2146 36.9692 44.7147Z" fill="#E56E90" stroke="black" stroke-width="0.5"/>
<path d="M3.96847 48.2146C10.9685 49.2146 4.96847 59.7146 1.96847 64.7146C1.4684 57.7146 1.96826 52.2146 3.96847 48.2146Z" fill="#E56E90" stroke="black" stroke-width="0.5"/>
<path d="M21.9678 84.2146V79.7146H39.4678L39.9678 84.2146H21.9678Z" fill="#E56E90" stroke="black" stroke-width="0.5"/>
<path d="M2.46973 65.7144C3.96973 68.2144 5.96973 71.381 5.46973 73.2144M21.9697 79.7144C11.4697 80.2144 6.96973 76.2144 7.96973 72.7144C8.46973 72.2144 9.96973 70.7144 10.9697 70.7144" stroke="black" stroke-width="0.5"/>
<path d="M31.9697 74.7145C29.4697 70.7145 23.9697 65.7146 20.9697 64.2146C19.2197 63.7145 16.5946 63.8395 13.8445 64.2146C12.2196 65.5479 10.9697 68.7145 11.4697 71.7145C11.4697 72.8811 12.7771 75.2145 15.4697 75.2145C19.9697 75.2145 26.9697 75.7145 31.9697 74.7145Z" fill="#E56E90"/>
<path d="M5.96973 65.7146C8.21967 65.2145 11.0946 64.5896 13.8445 64.2146M13.8445 64.2146C16.5946 63.8395 19.2197 63.7145 20.9697 64.2146C23.9697 65.7146 29.4697 70.7145 31.9697 74.7145C26.9697 75.7145 19.9697 75.2145 15.4697 75.2145C12.7771 75.2145 11.4697 72.8811 11.4697 71.7145C10.9697 68.7145 12.2196 65.5479 13.8445 64.2146Z" stroke="black" stroke-width="0.5"/>
<path d="M11.4697 71.2146C19.4697 69.7146 22.9697 72.3431 25.9697 73.8431M12.9697 74.2146L30.4697 73.7146" stroke="black" stroke-width="0.5"/>
<path d="M21.9678 82.7144H31.4678C33.4678 82.7144 34.9678 80.7144 34.4678 79.7144M37.9678 79.7144V84.2144" stroke="black" stroke-width="0.5"/>
<path d="M21.9697 81.2148C17.4697 81.2148 12.9697 81.7148 1.46967 78.7148V76.7148L5.46967 74.7148V73.2148L1.46967 72.7149C0.96875 71.2146 -0.0310541 68.2146 1.96894 65.7146C1.46918 57.7146 1.96918 51.2146 3.96967 48.2143C36.4697 28.7147 58.4697 34.7148 84.4697 30.2148C162.47 -24.7853 244.47 12.2146 281.47 26.7148L294.97 28.7146L295.47 35.7146V38.7146C296.968 43.7146 298.303 48.2146 296.97 50.2146C299.47 51.2146 301.97 54.3813 301.97 56.2146L299.97 66.2146C300.422 77.0625 298.013 77.2868 288.682 77.5992C287.691 77.6324 285.622 77.6666 284.47 77.7146V79.2146L259.47 79.6456M21.9697 81.2148V84.2148H39.968L39.4697 79.7148M21.9697 81.2148V79.7148H39.4697M39.4697 79.7148C36.4697 38.2148 89.9697 41.2148 86.4697 80.2148V82.7146H212.97C206.97 39.2146 261.47 39.2146 259.47 79.6456M258.968 79.6456H259.47" stroke="black"/>
</svg>
