<svg width="304" height="96" viewBox="0 0 304 96" fill="none" xmlns="http://www.w3.org/2000/svg">
<circle cx="63.0835" cy="74.5378" r="20.5" fill="#EDADBF" stroke="black"/>
<circle cx="236.083" cy="74.5378" r="20.5" fill="#EDADBF" stroke="black"/>
<path d="M133.082 13.0377L131.582 9.5377C171.582 1.53781 193.082 2.03784 232.082 13.5378L228.582 18.0378C208.582 10.0378 190.582 9.03775 174.582 8.53782C172.082 8.03782 168.082 8.03778 165.582 8.5377C155.582 8.53782 143.582 10.0378 133.082 13.0377Z" fill="#EDADBF" stroke="black" stroke-width="0.5"/>
<path d="M131.582 9.53789L131.082 8.03789C167.082 -2.96216 199.582 1.03772 235.082 10.0379L232.082 13.5379C192.082 1.03784 166.082 2.53784 131.582 9.53789Z" fill="#EDADBF" stroke="black" stroke-width="0.5"/>
<path d="M131.582 9.53771C183.082 -1.96232 211.582 8.03772 232.082 13.5377" stroke="black" stroke-width="0.5"/>
<path d="M171.083 30.5378L174.583 8.53784C208.083 9.53784 219.583 15.0378 224.083 16.5378L226.566 28.5378C199.576 28.5385 182.081 30.0379 171.083 30.5378Z" fill="#EDADBF"/>
<path d="M227.083 31.0378L224.083 16.5378C219.583 15.0378 208.083 9.53784 174.583 8.53784L171.083 30.5378C182.083 30.0378 199.583 28.5378 226.583 28.5378" stroke="black" stroke-width="0.5"/>
<path d="M165.583 8.53784C132.583 9.53784 112.583 18.5378 93.5835 36.0378L96.0835 34.0378L160.083 31.0378L165.583 8.53784Z" fill="#EDADBF" stroke="black" stroke-width="0.5"/>
<path d="M240.082 23.0378C236.415 20.3712 230.582 18.0378 224.082 16.5378L226.582 28.5378H233.082C236.082 27.0378 239.082 24.8066 240.082 23.0378Z" fill="#EDADBF" stroke="black" stroke-width="0.5"/>
<path d="M97.0835 79.0378H164.083L198.583 77.5378H213.083L213.583 83.0378H199.583H98.5835H87.0835V79.0378H97.0835Z" fill="#EDADBF"/>
<path d="M97.0835 79.0378H164.083L198.583 77.5378M97.0835 79.0378C97.0835 80.5378 97.5835 81.5378 98.5835 83.0378M97.0835 79.0378H87.0835V83.0378H98.5835M198.583 77.5378L199.583 83.0378M198.583 77.5378H213.083L213.583 83.0378H199.583M199.583 83.0378H98.5835" stroke="black" stroke-width="0.5"/>
<path d="M97.0826 79.0378C92.5835 74.5378 89.5835 52.5378 93.5826 36.0378L165.583 32.0378C161.583 37.0378 160.583 71.0378 164.083 79.0378H97.0826Z" fill="#EDADBF" stroke="black" stroke-width="0.5"/>
<path d="M229.083 31.0378L165.583 32.0378C161.583 37.0378 160.583 71.0378 164.083 79.0378L198.583 77.5378C203.083 76.0378 209.583 70.5378 229.083 31.0378Z" fill="#EDADBF" stroke="black" stroke-width="0.5"/>
<path d="M171.083 30.5379C166.583 31.0379 163.083 31.0379 160.083 31.0379L165.583 8.53792C168.583 8.03784 171.583 8.03784 174.583 8.53792L171.083 30.5379Z" fill="#EDADBF" stroke="black" stroke-width="0.5"/>
<path d="M99.5835 32.5379C104.083 38.0379 111.083 34.5379 115.083 33.0379C116.083 17.5377 103.083 25.5377 99.5835 32.5379Z" fill="#EDADBF" stroke="black" stroke-width="0.5"/>
<path d="M235.082 10.0378L232.082 13.5378C249.082 19.0378 259.582 22.0378 272.082 28.5378H273.582L281.582 27.0378C266.582 20.5378 259.082 18.0378 235.082 10.0378Z" fill="#EFC7D3" stroke="black" stroke-width="0.5"/>
<path d="M272.082 28.5378C261.582 23.0378 242.582 16.5378 232.082 13.5378L230.082 16.0378L245.082 23.5378C243.582 26.0378 239.582 28.0378 233.582 30.7378C245.582 30.0378 262.582 29.0378 272.082 28.5378Z" fill="#EFC7D3" stroke="black" stroke-width="0.5"/>
<path d="M277.583 34.8378L283.582 32.5378L273.083 28.5378L229.083 31.0378C221.583 46.0378 206.583 76.5378 198.583 77.5378H213.083C211.583 66.5378 221.083 43.0378 246.083 52.0378C256.583 46.5378 266.583 41.0378 277.583 34.8378Z" fill="#EFC7D3" stroke="black" stroke-width="0.5"/>
<path d="M278.582 34.5379C266.582 41.0379 256.582 46.5379 246.082 52.0379C250.582 55.0378 261.082 61.0378 260.082 80.0378L285.082 79.5378V78.0378C293.582 77.0378 302.082 80.5378 300.582 66.5378L302.582 56.5378C302.582 55.0378 300.082 51.0378 297.582 50.5378C299.082 48.0378 296.082 39.0378 296.082 39.0378V37.5378L292.082 34.5378L287.082 33.0378L283.582 32.5378L278.582 34.5379Z" fill="#EFC7D3" stroke="black" stroke-width="0.5"/>
<path d="M281.582 27.0378L273.082 28.5378L283.582 32.5378C293.082 33.5378 292.081 35.0378 296.076 37.458L295.582 29.0378L281.582 27.0378Z" fill="#EFC7D3"/>
<path d="M296.082 37.5378L296.076 37.458M296.076 37.458L295.582 29.0378L281.582 27.0378L273.082 28.5378L283.582 32.5378C293.082 33.5378 292.081 35.0378 296.076 37.458Z" stroke="black" stroke-width="0.5"/>
<path d="M294.583 37.038C294.083 34.5379 283.083 34.3379 277.583 34.8379" stroke="black" stroke-width="0.5"/>
<path d="M300.583 67.0378L261.083 69.0378C260.583 64.0378 258.417 59.8712 256.583 58.0378L302.583 55.5378M301.083 53.0378C290.083 51.5378 279.083 46.7378 267.083 40.7378M229.083 31.0378L273.083 28.5378L281.583 27.0378" stroke="black" stroke-width="0.5"/>
<path d="M291.083 41.0378C291.083 39.0378 290.083 35.0378 286.583 33.0378C288.804 33.0378 292.181 34.0782 294.692 36.4478C295.156 37.9778 294.083 41.5378 291.042 43.0378C291.028 42.4476 291.083 41.7621 291.083 41.0378Z" fill="#EFC7D3"/>
<path d="M273.083 43.5378C280.079 43.8876 286.096 43.9927 291.477 44.5378M298.083 45.5378C295.981 45.0872 293.787 44.7719 291.477 44.5378M296.083 38.0378C295.666 37.4527 295.196 36.9235 294.692 36.4478M291.477 44.5378C291.15 44.1931 291.056 43.67 291.042 43.0378M291.042 43.0378C291.028 42.4476 291.083 41.7621 291.083 41.0378C291.083 39.0378 290.083 35.0378 286.583 33.0378C288.804 33.0378 292.181 34.0782 294.692 36.4478M291.042 43.0378C294.083 41.5378 295.156 37.9778 294.692 36.4478" stroke="black" stroke-width="0.5"/>
<path d="M291.083 41.0378C286.583 41.0378 284.583 37.0378 283.583 34.5378" stroke="black" stroke-width="0.5"/>
<path d="M133.082 13.1378C119.582 17.1378 107.582 23.0378 93.582 36.0378C100.582 24.0378 116.082 14.5378 131.582 9.53784L133.082 13.1378Z" fill="#E0426F" stroke="black" stroke-width="0.5"/>
<path d="M131.582 9.53784C111.582 15.2119 93.582 32.5378 85.582 30.5378C98.582 21.0378 114.582 12.5378 131.082 8.03784L131.582 9.53784Z" fill="#E0426F" stroke="black" stroke-width="0.5"/>
<path d="M10.5827 48.5377H4.5827C2.08203 52.5377 2.08203 62.5377 2.5827 66.0377C1.08203 67.0377 1.08263 71.5377 2.0827 73.0377L6.0827 73.5377V75.0377L2.0827 77.0377V79.0377C6.0827 80.0377 14.5827 82.0377 22.5827 81.5377V80.0377H40.0827C39.416 71.5377 41.0827 61.0377 50.0827 54.0377C47.5827 50.0377 40.5827 45.5377 37.5827 45.0377C27.5827 44.0377 12.5827 46.5377 10.5827 48.5377Z" fill="#E0426F" stroke="black" stroke-width="0.5"/>
<path d="M93.5835 36.0378C75.7502 36.8712 44.0835 41.7378 33.5835 44.7378L37.5835 45.0378C42.5835 46.5378 48.0835 50.8712 50.0835 54.0378C63.0825 44.5378 88.5825 51.5378 87.0825 79.0378H97.0825C90.0825 68.0378 91.0825 46.0378 93.5835 36.0378Z" fill="#E0426F" stroke="black" stroke-width="0.5"/>
<path d="M10.582 48.5379H4.58203C37.0822 29.0378 59.0823 35.0378 85.082 30.5378L94.0823 36.0378C77.0823 37.0378 48.082 40.5378 34.082 44.7378C26.082 44.5378 12.082 46.5378 10.582 48.5379Z" fill="#E0426F" stroke="black" stroke-width="0.5"/>
<path d="M37.5835 45.0379C30.0835 44.0378 13.0835 46.0378 10.5835 48.5379C9.78349 50.9379 12.9168 53.8712 14.5835 55.0378C24.0835 56.5378 37.5835 50.5378 37.5835 45.0379Z" fill="#E0426F" stroke="black" stroke-width="0.5"/>
<path d="M4.58273 48.5378C11.5827 49.5378 5.58273 60.0378 2.58273 65.0378C2.08266 58.0378 2.58252 52.5378 4.58273 48.5378Z" fill="#E0426F" stroke="black" stroke-width="0.5"/>
<path d="M22.582 84.5378V80.0378H40.082L40.582 84.5378H22.582Z" fill="#E0426F" stroke="black" stroke-width="0.5"/>
<path d="M3.08398 66.0376C4.58398 68.5376 6.58398 71.7043 6.08398 73.5376M22.584 80.0376C12.084 80.5376 7.58398 76.5376 8.58398 73.0376C9.08398 72.5376 10.584 71.0376 11.584 71.0376" stroke="black" stroke-width="0.5"/>
<path d="M32.584 75.0377C30.084 71.0377 24.584 66.0378 21.584 64.5378C19.8339 64.0378 17.2088 64.1628 14.4588 64.5378C12.8338 65.8711 11.584 69.0377 12.084 72.0377C12.084 73.2044 13.3914 75.5377 16.084 75.5377C20.584 75.5377 27.584 76.0377 32.584 75.0377Z" fill="#E0426F"/>
<path d="M6.58398 66.0378C8.83393 65.5378 11.7088 64.9128 14.4588 64.5378M14.4588 64.5378C17.2088 64.1628 19.8339 64.0378 21.584 64.5378C24.584 66.0378 30.084 71.0377 32.584 75.0377C27.584 76.0377 20.584 75.5377 16.084 75.5377C13.3914 75.5377 12.084 73.2044 12.084 72.0377C11.584 69.0377 12.8338 65.8711 14.4588 64.5378Z" stroke="black" stroke-width="0.5"/>
<path d="M12.084 71.5378C20.084 70.0378 23.584 72.6663 26.584 74.1663M13.584 74.5378L31.084 74.0378" stroke="black" stroke-width="0.5"/>
<path d="M22.582 83.0376H32.082C34.082 83.0376 35.582 81.0376 35.082 80.0376M38.582 80.0376V84.5376" stroke="black" stroke-width="0.5"/>
<path d="M22.5834 81.5381C18.0834 81.5381 13.5834 82.0381 2.08344 79.0381V77.0381L6.08344 75.0381V73.5381L2.08344 73.0381C1.58252 71.5378 0.582715 68.5378 2.58271 66.0378C2.08295 58.0378 2.58295 51.5378 4.58344 48.5376C37.0834 29.038 59.0834 35.038 85.0834 30.538C163.083 -24.4621 245.083 12.5378 282.083 27.038L295.583 29.0378L296.083 36.0378V39.0378C297.582 44.0378 298.917 48.5378 297.583 50.5378C300.083 51.5378 302.583 54.7045 302.583 56.5378L300.583 66.5378C301.035 77.3858 298.627 77.61 289.296 77.9225C288.305 77.9557 286.236 77.9898 285.083 78.0378V79.5378L260.083 79.9689M22.5834 81.5381V84.5381H40.5818L40.0835 80.0381M22.5834 81.5381V80.0381H40.0835M40.0835 80.0381C37.0835 38.5381 90.5834 41.5381 87.0834 80.5381V83.0378H213.583C207.583 39.5378 262.083 39.5378 260.083 79.9689M259.582 79.9689H260.083" stroke="black"/>
</svg>
