<svg width="303" height="95" viewBox="0 0 303 95" fill="none" xmlns="http://www.w3.org/2000/svg">
<circle cx="62.2915" cy="73.8459" r="20.5" fill="#E56E90" stroke="black"/>
<circle cx="235.292" cy="73.8459" r="20.5" fill="#E56E90" stroke="black"/>
<path d="M132.29 12.3458L130.79 8.8458C170.79 0.845915 192.29 1.34595 231.29 12.8459L227.79 17.3459C207.79 9.34586 189.79 8.34586 173.79 7.84592C171.29 7.34592 167.29 7.34589 164.79 7.8458C154.79 7.84592 142.79 9.34592 132.29 12.3458Z" stroke="black" stroke-width="0.5"/>
<path d="M130.79 8.84599L130.29 7.34599C166.29 -3.65405 198.79 0.345821 234.29 9.34599L231.29 12.846C191.29 0.345947 165.29 1.84595 130.79 8.84599Z" stroke="black" stroke-width="0.5"/>
<path d="M130.79 8.84593C182.29 -2.65409 210.79 7.34595 231.29 12.8459" stroke="black" stroke-width="0.5"/>
<path d="M226.292 30.3459L223.292 15.8459C218.792 14.3459 207.292 8.84595 173.792 7.84595L170.292 29.8459C181.292 29.3459 198.792 27.8459 225.792 27.8459" stroke="black" stroke-width="0.5"/>
<path d="M164.792 7.84595C131.792 8.84595 111.792 17.8459 92.7915 35.3459L95.2915 33.3459L159.292 30.3459L164.792 7.84595Z" stroke="black" stroke-width="0.5"/>
<path d="M239.29 22.3459C235.623 19.6793 229.79 17.3459 223.29 15.8459L225.79 27.8459H232.29C235.29 26.3459 238.29 24.1147 239.29 22.3459Z" stroke="black" stroke-width="0.5"/>
<path d="M96.2915 78.3459H163.292L197.792 76.8459M96.2915 78.3459C96.2915 79.8459 96.7915 80.8459 97.7915 82.3459M96.2915 78.3459H86.2915V82.3459H97.7915M197.792 76.8459L198.792 82.3459M197.792 76.8459H212.292L212.792 82.3459H198.792M198.792 82.3459H97.7915" stroke="black" stroke-width="0.5"/>
<path d="M96.2906 78.3459C91.7915 73.8459 88.7915 51.8459 92.7906 35.3459L164.792 31.3459C160.792 36.3459 159.792 70.3459 163.291 78.3459H96.2906Z" stroke="black" stroke-width="0.5"/>
<path d="M228.291 30.3459L164.791 31.3459C160.791 36.3459 159.791 70.3459 163.291 78.3459L197.791 76.8459C202.291 75.3459 208.791 69.8459 228.291 30.3459Z" stroke="black" stroke-width="0.5"/>
<path d="M170.292 29.846C165.792 30.346 162.292 30.346 159.292 30.346L164.792 7.84602C167.792 7.34595 170.792 7.34595 173.792 7.84602L170.292 29.846Z" stroke="black" stroke-width="0.5"/>
<path d="M98.7915 31.8461C103.292 37.3461 110.292 33.8461 114.292 32.3461C115.292 16.846 102.292 24.8459 98.7915 31.8461Z" stroke="black" stroke-width="0.5"/>
<path d="M234.29 9.34595L231.29 12.8459C248.29 18.3459 258.79 21.3459 271.29 27.8459H272.79L280.79 26.3459C265.79 19.8459 258.29 17.3459 234.29 9.34595Z" stroke="black" stroke-width="0.5"/>
<path d="M271.29 27.8459C260.79 22.3459 241.79 15.8459 231.29 12.8459L229.29 15.3459L244.29 22.8459C242.79 25.3459 238.79 27.3459 232.79 30.0459C244.79 29.3459 261.79 28.3459 271.29 27.8459Z" stroke="black" stroke-width="0.5"/>
<path d="M276.792 34.1459L282.79 31.8459L272.291 27.8459L228.291 30.3459C220.791 45.3459 205.791 75.8459 197.791 76.8459H212.291C210.791 65.8459 220.291 42.3459 245.292 51.3459C255.792 45.8459 265.792 40.3459 276.792 34.1459Z" stroke="black" stroke-width="0.5"/>
<path d="M277.79 33.846C265.79 40.346 255.79 45.846 245.29 51.346C249.79 54.3459 260.29 60.3459 259.29 79.3459L284.29 78.8459V77.3459C292.79 76.3459 301.29 79.8459 299.79 65.8459L301.79 55.8459C301.79 54.3459 299.29 50.3459 296.79 49.8459C298.29 47.3459 295.29 38.3459 295.29 38.3459V36.8459L291.29 33.8459L286.29 32.3459L282.79 31.8459L277.79 33.846Z" stroke="black" stroke-width="0.5"/>
<path d="M295.29 36.8459L295.284 36.7661M295.284 36.7661L294.79 28.3459L280.79 26.3459L272.29 27.8459L282.79 31.8459C292.29 32.8459 291.289 34.3459 295.284 36.7661Z" stroke="black" stroke-width="0.5"/>
<path d="M293.792 36.3461C293.292 33.846 282.292 33.646 276.792 34.146" stroke="black" stroke-width="0.5"/>
<path d="M299.792 66.3459L260.292 68.3459C259.792 63.3459 257.625 59.1793 255.792 57.3459L301.792 54.8459M300.292 52.3459C289.292 50.8459 278.292 46.0459 266.292 40.0459M228.292 30.3459L272.292 27.8459L280.792 26.3459" stroke="black" stroke-width="0.5"/>
<path d="M272.292 42.8459C279.287 43.1957 285.304 43.3008 290.685 43.8459M297.292 44.8459C295.189 44.3953 292.995 44.08 290.685 43.8459M295.292 37.3459C294.874 36.7608 294.404 36.2316 293.9 35.7559M290.685 43.8459C290.358 43.5012 290.264 42.9781 290.25 42.3459M290.25 42.3459C290.236 41.7557 290.292 41.0702 290.292 40.3459C290.292 38.3459 289.292 34.3459 285.792 32.3459C288.012 32.3459 291.389 33.3863 293.9 35.7559M290.25 42.3459C293.292 40.8459 294.364 37.2859 293.9 35.7559" stroke="black" stroke-width="0.5"/>
<path d="M290.292 40.3459C285.792 40.3459 283.792 36.3459 282.792 33.8459" stroke="black" stroke-width="0.5"/>
<path d="M132.29 12.4459C118.79 16.4459 106.79 22.3459 92.79 35.3459C99.79 23.3459 115.29 13.8459 130.79 8.84595L132.29 12.4459Z" fill="#E0426F" stroke="black" stroke-width="0.5"/>
<path d="M130.79 8.84595C110.79 14.52 92.79 31.8459 84.79 29.8459C97.79 20.3459 113.79 11.8459 130.29 7.34595L130.79 8.84595Z" fill="#E0426F" stroke="black" stroke-width="0.5"/>
<path d="M9.79071 47.846H3.79071C1.29004 51.8459 1.29004 61.8459 1.79071 65.3459C0.290039 66.3459 0.290637 70.8459 1.29071 72.3459L5.29071 72.8459V74.3459L1.29071 76.3459V78.3459C5.29071 79.3459 13.7907 81.3459 21.7907 80.8459V79.3459H39.2907C38.624 70.8459 40.2907 60.3459 49.2907 53.3459C46.7907 49.3459 39.7907 44.8459 36.7907 44.346C26.7907 43.3459 11.7907 45.846 9.79071 47.846Z" fill="#E0426F" stroke="black" stroke-width="0.5"/>
<path d="M92.7915 35.3459C74.9582 36.1793 43.2915 41.0459 32.7915 44.0459L36.7915 44.3459C41.7915 45.8459 47.2915 50.1793 49.2915 53.3459C62.2905 43.8459 87.7905 50.8459 86.2905 78.3459H96.2905C89.2905 67.3459 90.2905 45.3459 92.7915 35.3459Z" fill="#E0426F" stroke="black" stroke-width="0.5"/>
<path d="M9.79004 47.846H3.79004C36.2902 28.3459 58.2903 34.3459 84.29 29.8459L93.2903 35.3459C76.2903 36.3459 47.29 39.8459 33.29 44.046C25.29 43.8459 11.29 45.8459 9.79004 47.846Z" fill="#E0426F" stroke="black" stroke-width="0.5"/>
<path d="M36.7915 44.346C29.2915 43.3459 12.2915 45.3459 9.79149 47.846C8.99149 50.246 12.1248 53.1793 13.7915 54.3459C23.2915 55.8459 36.7915 49.8459 36.7915 44.346Z" fill="#E0426F" stroke="black" stroke-width="0.5"/>
<path d="M3.79073 47.8459C10.7907 48.8459 4.79073 59.3459 1.79073 64.3459C1.29066 57.3459 1.79053 51.8459 3.79073 47.8459Z" fill="#E0426F" stroke="black" stroke-width="0.5"/>
<path d="M21.79 83.8459V79.3459H39.29L39.79 83.8459H21.79Z" fill="#E0426F" stroke="black" stroke-width="0.5"/>
<path d="M2.29199 65.3459C3.79199 67.8459 5.79199 71.0126 5.29199 72.8459M21.792 79.3459C11.292 79.8459 6.79199 75.8459 7.79199 72.3459C8.29199 71.8459 9.79199 70.3459 10.792 70.3459" stroke="black" stroke-width="0.5"/>
<path d="M31.792 74.3459C29.292 70.3459 23.792 65.346 20.792 63.846C19.0419 63.346 16.4169 63.471 13.6668 63.846C12.0419 65.1793 10.792 68.3459 11.292 71.3459C11.292 72.5126 12.5994 74.8459 15.292 74.8459C19.792 74.8459 26.792 75.3459 31.792 74.3459Z" fill="#E0426F"/>
<path d="M5.79199 65.346C8.04193 64.846 10.9168 64.221 13.6668 63.846M13.6668 63.846C16.4169 63.471 19.0419 63.346 20.792 63.846C23.792 65.346 29.292 70.3459 31.792 74.3459C26.792 75.3459 19.792 74.8459 15.292 74.8459C12.5994 74.8459 11.292 72.5126 11.292 71.3459C10.792 68.3459 12.0418 65.1793 13.6668 63.846Z" stroke="black" stroke-width="0.5"/>
<path d="M11.292 70.846C19.292 69.3461 22.792 71.9745 25.792 73.4745M12.792 73.8461L30.292 73.3461" stroke="black" stroke-width="0.5"/>
<path d="M21.79 82.3459H31.29C33.29 82.3459 34.79 80.3459 34.29 79.3459M37.79 79.3459V83.8459" stroke="black" stroke-width="0.5"/>
<path d="M21.7915 80.8462C17.2915 80.8462 12.7915 81.3462 1.29145 78.3462V76.3462L5.29145 74.3462V72.8462L1.29145 72.3462C0.790527 70.8459 -0.209277 67.8459 1.79072 65.3459C1.29096 57.3459 1.79096 50.8459 3.79145 47.8457C36.2915 28.3461 58.2914 34.3461 84.2914 29.8461C162.291 -25.154 244.291 11.8459 281.291 26.3461L294.791 28.3459L295.291 35.3459V38.3459C296.79 43.3459 298.125 47.8459 296.791 49.8459C299.291 50.8459 301.791 54.0126 301.791 55.8459L299.791 65.8459C300.243 76.6939 297.835 76.9181 288.504 77.2306C287.513 77.2638 285.444 77.2979 284.291 77.3459V78.8459L259.291 79.277M21.7915 80.8462V83.8462H39.7898L39.2915 79.3462M21.7915 80.8462V79.3462H39.2915M39.2915 79.3462C36.2915 37.8462 89.7914 40.8462 86.2914 79.8462V82.3459H212.791C206.791 38.8459 261.291 38.8459 259.291 79.277M258.79 79.277H259.291" stroke="black"/>
</svg>
