<svg width="303" height="96" viewBox="0 0 303 96" fill="none" xmlns="http://www.w3.org/2000/svg">
<circle cx="62.4473" cy="74.1843" r="20.5" fill="#E0426F" stroke="black"/>
<circle cx="235.447" cy="74.1843" r="20.5" fill="#E0426F" stroke="black"/>
<path d="M132.445 12.6842L130.945 9.18418C170.945 1.18429 192.445 1.68433 231.445 13.1843L227.945 17.6843C207.945 9.68424 189.945 8.68423 173.945 8.1843C171.445 7.6843 167.445 7.68427 164.945 8.18418C154.945 8.1843 142.945 9.6843 132.445 12.6842Z" fill="#EFC7D3" stroke="black" stroke-width="0.5"/>
<path d="M130.945 9.18437L130.445 7.68437C166.445 -3.31567 198.945 0.6842 234.445 9.68437L231.445 13.1844C191.445 0.684326 165.445 2.18433 130.945 9.18437Z" fill="#EFC7D3" stroke="black" stroke-width="0.5"/>
<path d="M130.945 9.18431C182.445 -2.31571 210.945 7.68433 231.445 13.1843" stroke="black" stroke-width="0.5"/>
<path d="M170.447 30.1843L173.947 8.18433C207.447 9.18433 218.947 14.6843 223.447 16.1843L225.93 28.1843C198.94 28.185 181.445 29.6844 170.447 30.1843Z" fill="#EFC7D3"/>
<path d="M226.447 30.6843L223.447 16.1843C218.947 14.6843 207.447 9.18433 173.947 8.18433L170.447 30.1843C181.447 29.6843 198.947 28.1843 225.947 28.1843" stroke="black" stroke-width="0.5"/>
<path d="M164.947 8.18433C131.947 9.18433 111.947 18.1843 92.9473 35.6843L95.4473 33.6843L159.447 30.6843L164.947 8.18433Z" fill="#EFC7D3" stroke="black" stroke-width="0.5"/>
<path d="M239.445 22.6843C235.779 20.0177 229.945 17.6843 223.445 16.1843L225.945 28.1843H232.445C235.445 26.6843 238.445 24.4531 239.445 22.6843Z" fill="#EFC7D3" stroke="black" stroke-width="0.5"/>
<path d="M96.4473 78.6843H163.447L197.947 77.1843H212.447L212.947 82.6843H198.947H97.9473H86.4473V78.6843H96.4473Z" fill="#EFC7D3"/>
<path d="M96.4473 78.6843H163.447L197.947 77.1843M96.4473 78.6843C96.4473 80.1843 96.9473 81.1843 97.9473 82.6843M96.4473 78.6843H86.4473V82.6843H97.9473M197.947 77.1843L198.947 82.6843M197.947 77.1843H212.447L212.947 82.6843H198.947M198.947 82.6843H97.9473" stroke="black" stroke-width="0.5"/>
<path d="M96.4464 78.6843C91.9473 74.1843 88.9473 52.1843 92.9464 35.6843L164.947 31.6843C160.947 36.6843 159.947 70.6843 163.447 78.6843H96.4464Z" fill="#EFC7D3" stroke="black" stroke-width="0.5"/>
<path d="M228.447 30.6843L164.947 31.6843C160.947 36.6843 159.948 70.6843 163.447 78.6843L197.947 77.1843C202.447 75.6843 208.947 70.1843 228.447 30.6843Z" fill="#EFC7D3" stroke="black" stroke-width="0.5"/>
<path d="M170.447 30.1844C165.947 30.6844 162.447 30.6844 159.447 30.6844L164.947 8.1844C167.947 7.68433 170.947 7.68433 173.947 8.1844L170.447 30.1844Z" fill="#EFC7D3" stroke="black" stroke-width="0.5"/>
<path d="M98.9473 32.1845C103.447 37.6845 110.447 34.1845 114.447 32.6845C115.447 17.1843 102.447 25.1843 98.9473 32.1845Z" fill="#EFC7D3" stroke="black" stroke-width="0.5"/>
<path d="M234.445 9.68433L231.445 13.1843C248.445 18.6843 258.945 21.6843 271.445 28.1843H272.945L280.945 26.6843C265.945 20.1843 258.445 17.6843 234.445 9.68433Z" fill="#E0426F" stroke="black" stroke-width="0.5"/>
<path d="M271.445 28.1843C260.945 22.6843 241.945 16.1843 231.445 13.1843L229.445 15.6843L244.445 23.1843C242.945 25.6843 238.945 27.6843 232.945 30.3843C244.945 29.6843 261.945 28.6843 271.445 28.1843Z" fill="#E0426F" stroke="black" stroke-width="0.5"/>
<path d="M276.947 34.4843L282.946 32.1843L272.446 28.1843L228.446 30.6843C220.946 45.6843 205.946 76.1843 197.946 77.1843H212.446C210.946 66.1843 220.446 42.6843 245.447 51.6843C255.947 46.1843 265.947 40.6843 276.947 34.4843Z" fill="#E0426F" stroke="black" stroke-width="0.5"/>
<path d="M277.945 34.1844C265.945 40.6844 255.945 46.1844 245.445 51.6844C249.945 54.6843 260.445 60.6843 259.445 79.6843L284.445 79.1843V77.6843C292.945 76.6843 301.445 80.1843 299.945 66.1843L301.945 56.1843C301.945 54.6843 299.445 50.6843 296.945 50.1843C298.445 47.6843 295.445 38.6843 295.445 38.6843V37.1843L291.445 34.1843L286.445 32.6843L282.945 32.1843L277.945 34.1844Z" fill="#E0426F" stroke="black" stroke-width="0.5"/>
<path d="M280.945 26.6843L272.445 28.1843L282.945 32.1843C292.445 33.1843 291.444 34.6843 295.439 37.1045L294.945 28.6843L280.945 26.6843Z" fill="#E0426F"/>
<path d="M295.445 37.1843L295.439 37.1045M295.439 37.1045L294.945 28.6843L280.945 26.6843L272.445 28.1843L282.945 32.1843C292.445 33.1843 291.444 34.6843 295.439 37.1045Z" stroke="black" stroke-width="0.5"/>
<path d="M293.947 36.6845C293.447 34.1844 282.447 33.9843 276.947 34.4843" stroke="black" stroke-width="0.5"/>
<path d="M299.947 66.6843L260.447 68.6843C259.947 63.6843 257.781 59.5177 255.947 57.6843L301.947 55.1843M300.447 52.6843C289.447 51.1843 278.447 46.3843 266.447 40.3843M228.447 30.6843L272.447 28.1843L280.947 26.6843" stroke="black" stroke-width="0.5"/>
<path d="M290.447 40.6843C290.447 38.6843 289.447 34.6843 285.947 32.6843C288.168 32.6843 291.545 33.7247 294.056 36.0943C294.52 37.6243 293.447 41.1843 290.405 42.6843C290.392 42.094 290.447 41.4086 290.447 40.6843Z" fill="#E0426F"/>
<path d="M272.447 43.1843C279.443 43.5341 285.46 43.6392 290.84 44.1843M297.447 45.1843C295.344 44.7337 293.151 44.4184 290.84 44.1843M295.447 37.6843C295.029 37.0992 294.56 36.57 294.056 36.0943M290.84 44.1843C290.514 43.8396 290.42 43.3165 290.405 42.6843M290.405 42.6843C290.392 42.094 290.447 41.4086 290.447 40.6843C290.447 38.6843 289.447 34.6843 285.947 32.6843C288.168 32.6843 291.545 33.7247 294.056 36.0943M290.405 42.6843C293.447 41.1843 294.52 37.6243 294.056 36.0943" stroke="black" stroke-width="0.5"/>
<path d="M290.447 40.6843C285.947 40.6843 283.947 36.6843 282.947 34.1843" stroke="black" stroke-width="0.5"/>
<path d="M132.445 12.7843C118.945 16.7843 106.945 22.6843 92.9453 35.6843C99.9453 23.6843 115.445 14.1843 130.945 9.18433L132.445 12.7843Z" fill="#EFC7D3" stroke="black" stroke-width="0.5"/>
<path d="M130.945 9.18433C110.945 14.8584 92.9453 32.1843 84.9453 30.1843C97.9453 20.6843 113.945 12.1843 130.445 7.68433L130.945 9.18433Z" fill="#EFC7D3" stroke="black" stroke-width="0.5"/>
<path d="M9.94598 48.1843H3.94598C1.44531 52.1843 1.44531 62.1843 1.94598 65.6843C0.445312 66.6843 0.44591 71.1843 1.44598 72.6843L5.44598 73.1843V74.6843L1.44598 76.6843V78.6843C5.44598 79.6843 13.946 81.6843 21.946 81.1843V79.6843H39.446C38.7793 71.1843 40.446 60.6843 49.446 53.6843C46.946 49.6843 39.946 45.1843 36.946 44.6843C26.946 43.6843 11.946 46.1843 9.94598 48.1843Z" fill="#EFC7D3" stroke="black" stroke-width="0.5"/>
<path d="M92.9473 35.6843C75.1139 36.5177 43.4473 41.3843 32.9473 44.3843L36.9473 44.6843C41.9473 46.1843 47.4473 50.5177 49.4473 53.6843C62.4463 44.1843 87.9463 51.1843 86.4463 78.6843H96.4463C89.4463 67.6843 90.4463 45.6843 92.9473 35.6843Z" fill="#EFC7D3" stroke="black" stroke-width="0.5"/>
<path d="M9.94531 48.1844H3.94531C36.4455 28.6843 58.4456 34.6843 84.4453 30.1843L93.4456 35.6843C76.4456 36.6843 47.4453 40.1843 33.4453 44.3843C25.4453 44.1843 11.4453 46.1843 9.94531 48.1844Z" fill="#EFC7D3" stroke="black" stroke-width="0.5"/>
<path d="M36.9468 44.6844C29.4468 43.6843 12.4468 45.6843 9.94677 48.1844C9.14677 50.5843 12.2801 53.5177 13.9468 54.6843C23.4468 56.1843 36.9468 50.1843 36.9468 44.6844Z" fill="#EFC7D3" stroke="black" stroke-width="0.5"/>
<path d="M3.94601 48.1843C10.946 49.1843 4.94601 59.6843 1.94601 64.6843C1.44594 57.6843 1.9458 52.1843 3.94601 48.1843Z" fill="#EFC7D3" stroke="black" stroke-width="0.5"/>
<path d="M21.9453 84.1843V79.6843H39.4453L39.9453 84.1843H21.9453Z" fill="#EFC7D3" stroke="black" stroke-width="0.5"/>
<path d="M2.44727 65.6843C3.94727 68.1843 5.94727 71.351 5.44727 73.1843M21.9473 79.6843C11.4473 80.1843 6.94727 76.1843 7.94727 72.6843C8.44727 72.1843 9.94727 70.6843 10.9473 70.6843" stroke="black" stroke-width="0.5"/>
<path d="M31.9473 74.6843C29.4473 70.6843 23.9473 65.6844 20.9473 64.1844C19.1972 63.6844 16.5721 63.8094 13.8221 64.1844C12.1971 65.5177 10.9473 68.6843 11.4473 71.6843C11.4473 72.851 12.7547 75.1843 15.4473 75.1843C19.9473 75.1843 26.9473 75.6843 31.9473 74.6843Z" fill="#EFC7D3"/>
<path d="M5.94727 65.6844C8.19721 65.1844 11.0721 64.5594 13.8221 64.1844M13.8221 64.1844C16.5721 63.8094 19.1972 63.6844 20.9473 64.1844C23.9473 65.6844 29.4473 70.6843 31.9473 74.6843C26.9473 75.6843 19.9473 75.1843 15.4473 75.1843C12.7547 75.1843 11.4473 72.851 11.4473 71.6843C10.9473 68.6843 12.1971 65.5177 13.8221 64.1844Z" stroke="black" stroke-width="0.5"/>
<path d="M11.4473 71.1844C19.4473 69.6844 22.9473 72.3129 25.9473 73.8129M12.9473 74.1844L30.4473 73.6844" stroke="black" stroke-width="0.5"/>
<path d="M21.9453 82.6843H31.4453C33.4453 82.6843 34.9453 80.6843 34.4453 79.6843M37.9453 79.6843V84.1843" stroke="black" stroke-width="0.5"/>
<path d="M21.9472 81.1846C17.4472 81.1846 12.9472 81.6846 1.44721 78.6846V76.6846L5.44721 74.6846V73.1846L1.44721 72.6846C0.946289 71.1843 -0.0535151 68.1843 1.94648 65.6843C1.44672 57.6843 1.94672 51.1843 3.94721 48.1841C36.4472 28.6845 58.4472 34.6845 84.4472 30.1845C162.447 -24.8156 244.447 12.1843 281.447 26.6845L294.947 28.6843L295.447 35.6843V38.6843C296.946 43.6843 298.281 48.1843 296.947 50.1843C299.447 51.1843 301.947 54.351 301.947 56.1843L299.947 66.1843C300.399 77.0322 297.991 77.2565 288.66 77.569C287.668 77.6021 285.599 77.6363 284.447 77.6843V79.1843L259.447 79.6154M21.9472 81.1846V84.1846H39.9456L39.4472 79.6846M21.9472 81.1846V79.6846H39.4472M39.4472 79.6846C36.4472 38.1846 89.9472 41.1846 86.4472 80.1846V82.6843H212.947C206.947 39.1843 261.447 39.1843 259.447 79.6154M258.946 79.6154H259.447" stroke="black"/>
</svg>
