<svg width="303" height="95" viewBox="0 0 303 95" fill="none" xmlns="http://www.w3.org/2000/svg">
<circle cx="62.4897" cy="73.8762" r="20.5" fill="#E0426F" stroke="black"/>
<circle cx="235.49" cy="73.8762" r="20.5" fill="#E0426F" stroke="black"/>
<path d="M132.488 12.3761L130.988 8.87608C170.988 0.876188 192.488 1.37622 231.488 12.8762L227.988 17.3762C207.988 9.37613 189.988 8.37613 173.988 7.8762C171.488 7.3762 167.488 7.37616 164.988 7.87608C154.988 7.8762 142.988 9.3762 132.488 12.3761Z" fill="#E56E90" stroke="black" stroke-width="0.5"/>
<path d="M130.988 8.87627L130.488 7.37626C166.488 -3.62378 198.988 0.376095 234.488 9.37627L231.488 12.8763C191.488 0.376221 165.488 1.87622 130.988 8.87627Z" fill="#E56E90" stroke="black" stroke-width="0.5"/>
<path d="M130.988 8.87609C182.488 -2.62394 210.988 7.3761 231.488 12.8761" stroke="black" stroke-width="0.5"/>
<path d="M170.49 29.8762L173.99 7.87622C207.49 8.87622 218.99 14.3762 223.49 15.8762L225.973 27.8762C198.982 27.8769 181.487 29.3763 170.49 29.8762Z" fill="#E56E90"/>
<path d="M226.49 30.3762L223.49 15.8762C218.99 14.3762 207.49 8.87622 173.99 7.87622L170.49 29.8762C181.49 29.3762 198.99 27.8762 225.99 27.8762" stroke="black" stroke-width="0.5"/>
<path d="M164.99 7.87622C131.99 8.87622 111.99 17.8762 92.9897 35.3762L95.4897 33.3762L159.49 30.3762L164.99 7.87622Z" fill="#E56E90" stroke="black" stroke-width="0.5"/>
<path d="M239.488 22.3762C235.822 19.7096 229.988 17.3762 223.488 15.8762L225.988 27.8762H232.488C235.488 26.3762 238.488 24.145 239.488 22.3762Z" fill="#E56E90" stroke="black" stroke-width="0.5"/>
<path d="M96.4897 78.3762H163.49L197.99 76.8762H212.49L212.99 82.3762H198.99H97.9897H86.4897V78.3762H96.4897Z" fill="#E56E90"/>
<path d="M96.4897 78.3762H163.49L197.99 76.8762M96.4897 78.3762C96.4897 79.8762 96.9897 80.8762 97.9897 82.3762M96.4897 78.3762H86.4897V82.3762H97.9897M197.99 76.8762L198.99 82.3762M197.99 76.8762H212.49L212.99 82.3762H198.99M198.99 82.3762H97.9897" stroke="black" stroke-width="0.5"/>
<path d="M96.4889 78.3762C91.9897 73.8762 88.9898 51.8762 92.9889 35.3762L164.99 31.3762C160.99 36.3762 159.99 70.3762 163.49 78.3762H96.4889Z" fill="#E56E90" stroke="black" stroke-width="0.5"/>
<path d="M228.489 30.3762L164.989 31.3762C160.989 36.3762 159.99 70.3762 163.489 78.3762L197.989 76.8762C202.489 75.3762 208.989 69.8762 228.489 30.3762Z" fill="#E56E90" stroke="black" stroke-width="0.5"/>
<path d="M170.49 29.8763C165.99 30.3763 162.49 30.3763 159.49 30.3763L164.99 7.87629C167.99 7.37622 170.99 7.37622 173.99 7.87629L170.49 29.8763Z" fill="#E56E90" stroke="black" stroke-width="0.5"/>
<path d="M98.9897 31.8762C103.49 37.3762 110.49 33.8762 114.49 32.3762C115.49 16.8761 102.49 24.8761 98.9897 31.8762Z" fill="#E56E90" stroke="black" stroke-width="0.5"/>
<path d="M234.488 9.37622L231.488 12.8762C248.488 18.3762 258.988 21.3762 271.488 27.8762H272.988L280.988 26.3762C265.988 19.8762 258.488 17.3762 234.488 9.37622Z" stroke="black" stroke-width="0.5"/>
<path d="M271.488 27.8762C260.988 22.3762 241.988 15.8762 231.488 12.8762L229.488 15.3762L244.488 22.8762C242.988 25.3762 238.988 27.3762 232.988 30.0762C244.988 29.3762 261.988 28.3762 271.488 27.8762Z" stroke="black" stroke-width="0.5"/>
<path d="M276.99 34.1762L282.988 31.8762L272.489 27.8762L228.489 30.3762C220.989 45.3762 205.989 75.8762 197.989 76.8762H212.489C210.989 65.8762 220.489 42.3762 245.49 51.3762C255.99 45.8762 265.99 40.3762 276.99 34.1762Z" stroke="black" stroke-width="0.5"/>
<path d="M277.988 33.8762C265.988 40.3762 255.988 45.8762 245.488 51.3762C249.988 54.3762 260.488 60.3762 259.488 79.3762L284.488 78.8762V77.3762C292.988 76.3762 301.488 79.8762 299.988 65.8762L301.988 55.8762C301.988 54.3762 299.488 50.3762 296.988 49.8762C298.488 47.3762 295.488 38.3762 295.488 38.3762V36.8762L291.488 33.8762L286.488 32.3762L282.988 31.8762L277.988 33.8762Z" stroke="black" stroke-width="0.5"/>
<path d="M295.488 36.8762L295.482 36.7964M295.482 36.7964L294.988 28.3762L280.988 26.3762L272.488 27.8762L282.988 31.8762C292.488 32.8762 291.487 34.3762 295.482 36.7964Z" stroke="black" stroke-width="0.5"/>
<path d="M293.99 36.3764C293.49 33.8763 282.49 33.6762 276.99 34.1762" stroke="black" stroke-width="0.5"/>
<path d="M299.99 66.3762L260.49 68.3762C259.99 63.3762 257.823 59.2096 255.99 57.3762L301.99 54.8762M300.49 52.3762C289.49 50.8762 278.49 46.0762 266.49 40.0762M228.49 30.3762L272.49 27.8762L280.99 26.3762" stroke="black" stroke-width="0.5"/>
<path d="M272.49 42.8762C279.485 43.226 285.502 43.3311 290.883 43.8762M297.49 44.8762C295.387 44.4256 293.194 44.1103 290.883 43.8762M295.49 37.3762C295.072 36.7911 294.603 36.2619 294.099 35.7862M290.883 43.8762C290.557 43.5315 290.463 43.0084 290.448 42.3762M290.448 42.3762C290.434 41.7859 290.49 41.1005 290.49 40.3762C290.49 38.3762 289.49 34.3762 285.99 32.3762C288.211 32.3762 291.587 33.4166 294.099 35.7862M290.448 42.3762C293.49 40.8762 294.562 37.3162 294.099 35.7862" stroke="black" stroke-width="0.5"/>
<path d="M290.49 40.3762C285.99 40.3762 283.99 36.3762 282.99 33.8762" stroke="black" stroke-width="0.5"/>
<path d="M132.488 12.4762C118.988 16.4762 106.988 22.3762 92.9883 35.3762C99.9883 23.3762 115.488 13.8762 130.988 8.87622L132.488 12.4762Z" fill="#EFC7D3" stroke="black" stroke-width="0.5"/>
<path d="M130.988 8.87622C110.988 14.5503 92.9883 31.8762 84.9883 29.8762C97.9883 20.3762 113.988 11.8762 130.488 7.37622L130.988 8.87622Z" fill="#EFC7D3" stroke="black" stroke-width="0.5"/>
<path d="M9.98895 47.8761H3.98895C1.48828 51.8761 1.48828 61.8761 1.98895 65.3761C0.488281 66.3761 0.488879 70.8761 1.48895 72.3761L5.48895 72.8761V74.3761L1.48895 76.3761V78.3761C5.48895 79.3761 13.9889 81.3761 21.9889 80.8761V79.3761H39.4889C38.8223 70.8761 40.4889 60.3761 49.4889 53.3761C46.9889 49.3761 39.9889 44.8761 36.9889 44.3761C26.9889 43.3761 11.9889 45.8761 9.98895 47.8761Z" fill="#EFC7D3" stroke="black" stroke-width="0.5"/>
<path d="M92.9897 35.3762C75.1564 36.2096 43.4897 41.0762 32.9897 44.0762L36.9897 44.3762C41.9897 45.8762 47.4897 50.2096 49.4897 53.3762C62.4888 43.8762 87.9888 50.8762 86.4888 78.3762H96.4888C89.4888 67.3762 90.4888 45.3762 92.9897 35.3762Z" fill="#EFC7D3" stroke="black" stroke-width="0.5"/>
<path d="M9.98828 47.8763H3.98828C36.4885 28.3762 58.4885 34.3762 84.4883 29.8762L93.4885 35.3762C76.4885 36.3762 47.4883 39.8762 33.4883 44.0762C25.4883 43.8762 11.4883 45.8762 9.98828 47.8763Z" fill="#EFC7D3" stroke="black" stroke-width="0.5"/>
<path d="M36.9897 44.3763C29.4897 43.3762 12.4897 45.3762 9.98974 47.8763C9.18974 50.2762 12.3231 53.2096 13.9897 54.3762C23.4897 55.8762 36.9897 49.8762 36.9897 44.3763Z" fill="#EFC7D3" stroke="black" stroke-width="0.5"/>
<path d="M3.98898 47.8762C10.989 48.8762 4.98898 59.3762 1.98898 64.3762C1.48891 57.3762 1.98877 51.8762 3.98898 47.8762Z" fill="#EFC7D3" stroke="black" stroke-width="0.5"/>
<path d="M21.9883 83.8762V79.3762H39.4883L39.9883 83.8762H21.9883Z" fill="#EFC7D3" stroke="black" stroke-width="0.5"/>
<path d="M2.49023 65.376C3.99023 67.876 5.99023 71.0426 5.49023 72.876M21.9902 79.376C11.4902 79.876 6.99023 75.876 7.99023 72.376C8.49023 71.876 9.99023 70.376 10.9902 70.376" stroke="black" stroke-width="0.5"/>
<path d="M31.9902 74.3761C29.4902 70.3761 23.9902 65.3762 20.9902 63.8762C19.2402 63.3762 16.6151 63.5012 13.865 63.8762C12.2401 65.2095 10.9902 68.3761 11.4902 71.3761C11.4902 72.5428 12.7977 74.8761 15.4902 74.8761C19.9902 74.8761 26.9902 75.3761 31.9902 74.3761Z" fill="#EFC7D3"/>
<path d="M5.99023 65.3762C8.24018 64.8762 11.1151 64.2512 13.865 63.8762M13.865 63.8762C16.6151 63.5012 19.2402 63.3762 20.9902 63.8762C23.9902 65.3762 29.4902 70.3761 31.9902 74.3761C26.9902 75.3761 19.9902 74.8761 15.4902 74.8761C12.7977 74.8761 11.4902 72.5428 11.4902 71.3761C10.9902 68.3761 12.2401 65.2095 13.865 63.8762Z" stroke="black" stroke-width="0.5"/>
<path d="M11.4902 70.8762C19.4902 69.3762 22.9902 72.0047 25.9902 73.5047M12.9902 73.8762L30.4902 73.3762" stroke="black" stroke-width="0.5"/>
<path d="M21.9883 82.376H31.4883C33.4883 82.376 34.9883 80.376 34.4883 79.376M37.9883 79.376V83.876" stroke="black" stroke-width="0.5"/>
<path d="M21.9897 80.8765C17.4897 80.8765 12.9897 81.3765 1.48969 78.3765V76.3765L5.48969 74.3765V72.8765L1.48969 72.3765C0.98877 70.8762 -0.0110346 67.8762 1.98896 65.3762C1.4892 57.3762 1.9892 50.8762 3.98969 47.876C36.4897 28.3764 58.4897 34.3764 84.4897 29.8764C162.49 -25.1237 244.49 11.8762 281.49 26.3764L294.99 28.3762L295.49 35.3762V38.3762C296.988 43.3762 298.323 47.8762 296.99 49.8762C299.49 50.8762 301.99 54.0429 301.99 55.8762L299.99 65.8762C300.442 76.7241 298.034 76.9484 288.702 77.2609C287.711 77.294 285.642 77.3282 284.49 77.3762V78.8762L259.49 79.3073M21.9897 80.8765V83.8765H39.988L39.4897 79.3765M21.9897 80.8765V79.3765H39.4897M39.4897 79.3765C36.4897 37.8765 89.9897 40.8765 86.4897 79.8765V82.3762H212.99C206.99 38.8762 261.49 38.8762 259.49 79.3073M258.988 79.3073H259.49" stroke="black"/>
</svg>
