<svg width="303" height="95" viewBox="0 0 303 95" fill="none" xmlns="http://www.w3.org/2000/svg">
<circle cx="62.249" cy="73.8762" r="20.5" fill="#E56E90" stroke="black"/>
<circle cx="235.249" cy="73.8762" r="20.5" fill="#E56E90" stroke="black"/>
<path d="M132.247 12.3761L130.747 8.87608C170.747 0.876188 192.247 1.37622 231.247 12.8762L227.747 17.3762C207.747 9.37613 189.747 8.37613 173.747 7.8762C171.247 7.3762 167.247 7.37616 164.747 7.87608C154.747 7.8762 142.747 9.3762 132.247 12.3761Z" fill="#E56E90" stroke="black" stroke-width="0.5"/>
<path d="M130.747 8.87627L130.247 7.37626C166.247 -3.62378 198.747 0.376095 234.247 9.37627L231.247 12.8763C191.247 0.376221 165.247 1.87622 130.747 8.87627Z" fill="#E56E90" stroke="black" stroke-width="0.5"/>
<path d="M130.747 8.87609C182.247 -2.62394 210.747 7.3761 231.247 12.8761" stroke="black" stroke-width="0.5"/>
<path d="M170.249 29.8762L173.749 7.87622C207.249 8.87622 218.749 14.3762 223.249 15.8762L225.732 27.8762C198.742 27.8769 181.247 29.3763 170.249 29.8762Z" fill="#E56E90"/>
<path d="M226.249 30.3762L223.249 15.8762C218.749 14.3762 207.249 8.87622 173.749 7.87622L170.249 29.8762C181.249 29.3762 198.749 27.8762 225.749 27.8762" stroke="black" stroke-width="0.5"/>
<path d="M164.749 7.87622C131.749 8.87622 111.749 17.8762 92.749 35.3762L95.249 33.3762L159.249 30.3762L164.749 7.87622Z" fill="#E56E90" stroke="black" stroke-width="0.5"/>
<path d="M239.247 22.3762C235.58 19.7096 229.747 17.3762 223.247 15.8762L225.747 27.8762H232.247C235.247 26.3762 238.247 24.145 239.247 22.3762Z" fill="#E56E90" stroke="black" stroke-width="0.5"/>
<path d="M96.249 78.3762H163.249L197.749 76.8762H212.249L212.749 82.3762H198.749H97.749H86.249V78.3762H96.249Z" fill="#E56E90"/>
<path d="M96.249 78.3762H163.249L197.749 76.8762M96.249 78.3762C96.249 79.8762 96.749 80.8762 97.749 82.3762M96.249 78.3762H86.249V82.3762H97.749M197.749 76.8762L198.749 82.3762M197.749 76.8762H212.249L212.749 82.3762H198.749M198.749 82.3762H97.749" stroke="black" stroke-width="0.5"/>
<path d="M96.2482 78.3762C91.749 73.8762 88.7491 51.8762 92.7482 35.3762L164.749 31.3762C160.749 36.3762 159.749 70.3762 163.249 78.3762H96.2482Z" fill="#E56E90" stroke="black" stroke-width="0.5"/>
<path d="M228.249 30.3762L164.749 31.3762C160.749 36.3762 159.749 70.3762 163.249 78.3762L197.749 76.8762C202.249 75.3762 208.749 69.8762 228.249 30.3762Z" fill="#E56E90" stroke="black" stroke-width="0.5"/>
<path d="M170.249 29.8763C165.749 30.3763 162.249 30.3763 159.249 30.3763L164.749 7.87629C167.749 7.37622 170.749 7.37622 173.749 7.87629L170.249 29.8763Z" fill="#E56E90" stroke="black" stroke-width="0.5"/>
<path d="M98.749 31.8762C103.249 37.3762 110.249 33.8762 114.249 32.3762C115.249 16.8761 102.249 24.8761 98.749 31.8762Z" fill="#E56E90" stroke="black" stroke-width="0.5"/>
<path d="M234.247 9.37622L231.247 12.8762C248.247 18.3762 258.747 21.3762 271.247 27.8762H272.747L280.747 26.3762C265.747 19.8762 258.247 17.3762 234.247 9.37622Z" fill="#E0426F" stroke="black" stroke-width="0.5"/>
<path d="M271.247 27.8762C260.747 22.3762 241.747 15.8762 231.247 12.8762L229.247 15.3762L244.247 22.8762C242.747 25.3762 238.747 27.3762 232.747 30.0762C244.747 29.3762 261.747 28.3762 271.247 27.8762Z" fill="#E0426F" stroke="black" stroke-width="0.5"/>
<path d="M276.749 34.1762L282.747 31.8762L272.248 27.8762L228.248 30.3762C220.748 45.3762 205.748 75.8762 197.748 76.8762H212.248C210.748 65.8762 220.248 42.3762 245.249 51.3762C255.749 45.8762 265.749 40.3762 276.749 34.1762Z" fill="#E0426F" stroke="black" stroke-width="0.5"/>
<path d="M277.747 33.8762C265.747 40.3762 255.747 45.8762 245.247 51.3762C249.747 54.3762 260.247 60.3762 259.247 79.3762L284.247 78.8762V77.3762C292.747 76.3762 301.247 79.8762 299.747 65.8762L301.747 55.8762C301.747 54.3762 299.247 50.3762 296.747 49.8762C298.247 47.3762 295.247 38.3762 295.247 38.3762V36.8762L291.247 33.8762L286.247 32.3762L282.747 31.8762L277.747 33.8762Z" fill="#E0426F" stroke="black" stroke-width="0.5"/>
<path d="M280.747 26.3762L272.247 27.8762L282.747 31.8762C292.247 32.8762 291.246 34.3762 295.241 36.7964L294.747 28.3762L280.747 26.3762Z" fill="#E0426F"/>
<path d="M295.247 36.8762L295.241 36.7964M295.241 36.7964L294.747 28.3762L280.747 26.3762L272.247 27.8762L282.747 31.8762C292.247 32.8762 291.246 34.3762 295.241 36.7964Z" stroke="black" stroke-width="0.5"/>
<path d="M293.749 36.3764C293.249 33.8763 282.249 33.6762 276.749 34.1762" stroke="black" stroke-width="0.5"/>
<path d="M299.749 66.3762L260.249 68.3762C259.749 63.3762 257.582 59.2096 255.749 57.3762L301.749 54.8762M300.249 52.3762C289.249 50.8762 278.249 46.0762 266.249 40.0762M228.249 30.3762L272.249 27.8762L280.749 26.3762" stroke="black" stroke-width="0.5"/>
<path d="M290.249 40.3762C290.249 38.3762 289.249 34.3762 285.749 32.3762C287.97 32.3762 291.347 33.4166 293.858 35.7862C294.322 37.3162 293.249 40.8762 290.207 42.3762C290.194 41.7859 290.249 41.1005 290.249 40.3762Z" fill="#E0426F"/>
<path d="M272.249 42.8762C279.245 43.226 285.262 43.3311 290.642 43.8762M297.249 44.8762C295.146 44.4256 292.953 44.1103 290.642 43.8762M295.249 37.3762C294.831 36.7911 294.362 36.2619 293.858 35.7862M290.642 43.8762C290.316 43.5315 290.222 43.0084 290.207 42.3762M290.207 42.3762C290.194 41.7859 290.249 41.1005 290.249 40.3762C290.249 38.3762 289.249 34.3762 285.749 32.3762C287.97 32.3762 291.347 33.4166 293.858 35.7862M290.207 42.3762C293.249 40.8762 294.322 37.3162 293.858 35.7862" stroke="black" stroke-width="0.5"/>
<path d="M290.249 40.3762C285.749 40.3762 283.749 36.3762 282.749 33.8762" stroke="black" stroke-width="0.5"/>
<path d="M132.247 12.4762C118.747 16.4762 106.747 22.3762 92.7471 35.3762C99.7471 23.3762 115.247 13.8762 130.747 8.87622L132.247 12.4762Z" fill="#EFC7D3" stroke="black" stroke-width="0.5"/>
<path d="M130.747 8.87622C110.747 14.5503 92.7471 31.8762 84.7471 29.8762C97.7471 20.3762 113.747 11.8762 130.247 7.37622L130.747 8.87622Z" fill="#EFC7D3" stroke="black" stroke-width="0.5"/>
<path d="M9.74774 47.8761H3.74774C1.24707 51.8761 1.24707 61.8761 1.74774 65.3761C0.24707 66.3761 0.247668 70.8761 1.24774 72.3761L5.24774 72.8761V74.3761L1.24774 76.3761V78.3761C5.24774 79.3761 13.7477 81.3761 21.7477 80.8761V79.3761H39.2477C38.5811 70.8761 40.2477 60.3761 49.2477 53.3761C46.7477 49.3761 39.7477 44.8761 36.7477 44.3761C26.7477 43.3761 11.7477 45.8761 9.74774 47.8761Z" fill="#EFC7D3" stroke="black" stroke-width="0.5"/>
<path d="M92.749 35.3762C74.9157 36.2096 43.249 41.0762 32.749 44.0762L36.749 44.3762C41.749 45.8762 47.249 50.2096 49.249 53.3762C62.248 43.8762 87.748 50.8762 86.248 78.3762H96.248C89.248 67.3762 90.248 45.3762 92.749 35.3762Z" fill="#EFC7D3" stroke="black" stroke-width="0.5"/>
<path d="M9.74707 47.8763H3.74707C36.2473 28.3762 58.2473 34.3762 84.2471 29.8762L93.2473 35.3762C76.2473 36.3762 47.2471 39.8762 33.2471 44.0762C25.2471 43.8762 11.2471 45.8762 9.74707 47.8763Z" fill="#EFC7D3" stroke="black" stroke-width="0.5"/>
<path d="M36.7485 44.3763C29.2485 43.3762 12.2485 45.3762 9.74852 47.8763C8.94852 50.2762 12.0819 53.2096 13.7485 54.3762C23.2485 55.8762 36.7485 49.8762 36.7485 44.3763Z" fill="#EFC7D3" stroke="black" stroke-width="0.5"/>
<path d="M3.74777 47.8762C10.7478 48.8762 4.74777 59.3762 1.74777 64.3762C1.2477 57.3762 1.74756 51.8762 3.74777 47.8762Z" fill="#EFC7D3" stroke="black" stroke-width="0.5"/>
<path d="M21.7471 83.8762V79.3762H39.2471L39.7471 83.8762H21.7471Z" fill="#EFC7D3" stroke="black" stroke-width="0.5"/>
<path d="M2.24902 65.376C3.74902 67.876 5.74902 71.0426 5.24902 72.876M21.749 79.376C11.249 79.876 6.74902 75.876 7.74902 72.376C8.24902 71.876 9.74902 70.376 10.749 70.376" stroke="black" stroke-width="0.5"/>
<path d="M31.749 74.3761C29.249 70.3761 23.749 65.3762 20.749 63.8762C18.999 63.3762 16.3739 63.5012 13.6238 63.8762C11.9989 65.2095 10.749 68.3761 11.249 71.3761C11.249 72.5428 12.5564 74.8761 15.249 74.8761C19.749 74.8761 26.749 75.3761 31.749 74.3761Z" fill="#EFC7D3"/>
<path d="M5.74902 65.3762C7.99897 64.8762 10.8739 64.2512 13.6238 63.8762M13.6238 63.8762C16.3739 63.5012 18.999 63.3762 20.749 63.8762C23.749 65.3762 29.249 70.3761 31.749 74.3761C26.749 75.3761 19.749 74.8761 15.249 74.8761C12.5564 74.8761 11.249 72.5428 11.249 71.3761C10.749 68.3761 11.9989 65.2095 13.6238 63.8762Z" stroke="black" stroke-width="0.5"/>
<path d="M11.249 70.8762C19.249 69.3762 22.749 72.0047 25.749 73.5047M12.749 73.8762L30.249 73.3762" stroke="black" stroke-width="0.5"/>
<path d="M21.7471 82.376H31.2471C33.2471 82.376 34.7471 80.376 34.2471 79.376M37.7471 79.376V83.876" stroke="black" stroke-width="0.5"/>
<path d="M21.749 80.8765C17.249 80.8765 12.749 81.3765 1.24897 78.3765V76.3765L5.24897 74.3765V72.8765L1.24897 72.3765C0.748047 70.8762 -0.251757 67.8762 1.74824 65.3762C1.24848 57.3762 1.74848 50.8762 3.74897 47.876C36.249 28.3764 58.249 34.3764 84.249 29.8764C162.249 -25.1237 244.249 11.8762 281.249 26.3764L294.749 28.3762L295.249 35.3762V38.3762C296.747 43.3762 298.082 47.8762 296.749 49.8762C299.249 50.8762 301.749 54.0429 301.749 55.8762L299.749 65.8762C300.201 76.7241 297.793 76.9484 288.461 77.2609C287.47 77.294 285.401 77.3282 284.249 77.3762V78.8762L259.249 79.3073M21.749 80.8765V83.8765H39.7473L39.249 79.3765M21.749 80.8765V79.3765H39.249M39.249 79.3765C36.249 37.8765 89.749 40.8765 86.249 79.8765V82.3762H212.749C206.749 38.8762 261.249 38.8762 259.249 79.3073M258.747 79.3073H259.249" stroke="black"/>
</svg>
