<svg width="304" height="96" viewBox="0 0 304 96" fill="none" xmlns="http://www.w3.org/2000/svg">
<circle cx="63.0518" cy="74.5076" r="20.5" fill="#EDADBF" stroke="black"/>
<circle cx="236.052" cy="74.5076" r="20.5" fill="#EDADBF" stroke="black"/>
<path d="M133.05 13.0074L131.55 9.50742C171.55 1.50754 193.05 2.00757 232.05 13.5075L228.55 18.0075C208.55 10.0075 190.55 9.00748 174.55 8.50755C172.05 8.00755 168.05 8.00751 165.55 8.50742C155.55 8.50755 143.55 10.0075 133.05 13.0074Z" stroke="black" stroke-width="0.5"/>
<path d="M131.55 9.50761L131.05 8.00761C167.05 -2.99243 199.55 1.00744 235.05 10.0076L232.05 13.5076C192.05 1.00757 166.05 2.50757 131.55 9.50761Z" stroke="black" stroke-width="0.5"/>
<path d="M131.55 9.50756C183.05 -1.99247 211.55 8.00757 232.05 13.5076" stroke="black" stroke-width="0.5"/>
<path d="M227.052 31.0076L224.052 16.5076C219.552 15.0076 208.052 9.50757 174.552 8.50757L171.052 30.5076C182.052 30.0076 199.552 28.5076 226.552 28.5076" stroke="black" stroke-width="0.5"/>
<path d="M165.552 8.50757C132.552 9.50757 112.552 18.5076 93.5518 36.0076L96.0518 34.0076L160.052 31.0076L165.552 8.50757Z" stroke="black" stroke-width="0.5"/>
<path d="M240.05 23.0076C236.383 20.3409 230.55 18.0076 224.05 16.5076L226.55 28.5076H233.05C236.05 27.0076 239.05 24.7763 240.05 23.0076Z" stroke="black" stroke-width="0.5"/>
<path d="M97.0518 79.0076H164.052L198.552 77.5076M97.0518 79.0076C97.0518 80.5076 97.5518 81.5076 98.5518 83.0076M97.0518 79.0076H87.0518V83.0076H98.5518M198.552 77.5076L199.552 83.0076M198.552 77.5076H213.052L213.552 83.0076H199.552M199.552 83.0076H98.5518" stroke="black" stroke-width="0.5"/>
<path d="M97.0509 79.0076C92.5518 74.5076 89.5518 52.5076 93.5509 36.0076L165.552 32.0076C161.552 37.0076 160.552 71.0076 164.052 79.0076H97.0509Z" stroke="black" stroke-width="0.5"/>
<path d="M229.052 31.0076L165.552 32.0076C161.552 37.0076 160.552 71.0076 164.052 79.0076L198.552 77.5076C203.052 76.0076 209.552 70.5076 229.052 31.0076Z" stroke="black" stroke-width="0.5"/>
<path d="M171.052 30.5076C166.552 31.0076 163.052 31.0076 160.052 31.0076L165.552 8.50764C168.552 8.00757 171.552 8.00757 174.552 8.50764L171.052 30.5076Z" stroke="black" stroke-width="0.5"/>
<path d="M99.5518 32.5077C104.052 38.0077 111.052 34.5077 115.052 33.0077C116.052 17.5076 103.052 25.5076 99.5518 32.5077Z" stroke="black" stroke-width="0.5"/>
<path d="M235.05 10.0076L232.05 13.5076C249.05 19.0076 259.55 22.0076 272.05 28.5076H273.55L281.55 27.0076C266.55 20.5076 259.05 18.0076 235.05 10.0076Z" fill="#E0426F" stroke="black" stroke-width="0.5"/>
<path d="M272.05 28.5076C261.55 23.0076 242.55 16.5076 232.05 13.5076L230.05 16.0076L245.05 23.5076C243.55 26.0076 239.55 28.0076 233.55 30.7076C245.55 30.0076 262.55 29.0076 272.05 28.5076Z" fill="#E0426F" stroke="black" stroke-width="0.5"/>
<path d="M277.552 34.8076L283.55 32.5076L273.051 28.5076L229.051 31.0076C221.551 46.0076 206.551 76.5076 198.551 77.5076H213.051C211.551 66.5076 221.051 43.0076 246.052 52.0076C256.552 46.5076 266.552 41.0076 277.552 34.8076Z" fill="#E0426F" stroke="black" stroke-width="0.5"/>
<path d="M278.55 34.5076C266.55 41.0076 256.55 46.5076 246.05 52.0076C250.55 55.0076 261.05 61.0076 260.05 80.0076L285.05 79.5076V78.0076C293.55 77.0076 302.05 80.5076 300.55 66.5076L302.55 56.5076C302.55 55.0076 300.05 51.0076 297.55 50.5076C299.05 48.0076 296.05 39.0076 296.05 39.0076V37.5076L292.05 34.5076L287.05 33.0076L283.55 32.5076L278.55 34.5076Z" fill="#E0426F" stroke="black" stroke-width="0.5"/>
<path d="M281.55 27.0076L273.05 28.5076L283.55 32.5076C293.05 33.5076 292.049 35.0076 296.044 37.4277L295.55 29.0076L281.55 27.0076Z" fill="#E0426F"/>
<path d="M296.05 37.5076L296.044 37.4277M296.044 37.4277L295.55 29.0076L281.55 27.0076L273.05 28.5076L283.55 32.5076C293.05 33.5076 292.049 35.0076 296.044 37.4277Z" stroke="black" stroke-width="0.5"/>
<path d="M294.552 37.0078C294.052 34.5077 283.052 34.3076 277.552 34.8076" stroke="black" stroke-width="0.5"/>
<path d="M300.552 67.0076L261.052 69.0076C260.552 64.0076 258.385 59.8409 256.552 58.0076L302.552 55.5076M301.052 53.0076C290.052 51.5076 279.052 46.7076 267.052 40.7076M229.052 31.0076L273.052 28.5076L281.552 27.0076" stroke="black" stroke-width="0.5"/>
<path d="M291.052 41.0076C291.052 39.0076 290.052 35.0076 286.552 33.0076C288.773 33.0076 292.149 34.048 294.661 36.4176C295.124 37.9476 294.052 41.5076 291.01 43.0076C290.996 42.4173 291.052 41.7319 291.052 41.0076Z" fill="#E0426F"/>
<path d="M273.052 43.5076C280.047 43.8574 286.064 43.9624 291.445 44.5076M298.052 45.5076C295.949 45.0569 293.756 44.7417 291.445 44.5076M296.052 38.0076C295.634 37.4224 295.165 36.8932 294.661 36.4176M291.445 44.5076C291.119 44.1628 291.025 43.6398 291.01 43.0076M291.01 43.0076C290.996 42.4173 291.052 41.7319 291.052 41.0076C291.052 39.0076 290.052 35.0076 286.552 33.0076C288.773 33.0076 292.149 34.048 294.661 36.4176M291.01 43.0076C294.052 41.5076 295.124 37.9476 294.661 36.4176" stroke="black" stroke-width="0.5"/>
<path d="M291.052 41.0076C286.552 41.0076 284.552 37.0076 283.552 34.5076" stroke="black" stroke-width="0.5"/>
<path d="M133.05 13.1075C119.55 17.1075 107.55 23.0076 93.5498 36.0076C100.55 24.0076 116.05 14.5076 131.55 9.50757L133.05 13.1075Z" fill="#EDADBF" stroke="black" stroke-width="0.5"/>
<path d="M131.55 9.50757C111.55 15.1816 93.5498 32.5076 85.5498 30.5076C98.5498 21.0076 114.55 12.5076 131.05 8.00757L131.55 9.50757Z" fill="#EDADBF" stroke="black" stroke-width="0.5"/>
<path d="M10.5505 48.5076H4.55047C2.0498 52.5076 2.0498 62.5076 2.55047 66.0076C1.0498 67.0076 1.0504 71.5076 2.05047 73.0076L6.05047 73.5076V75.0076L2.05047 77.0076V79.0076C6.05047 80.0076 14.5505 82.0076 22.5505 81.5076V80.0076H40.0505C39.3838 71.5076 41.0505 61.0076 50.0505 54.0076C47.5505 50.0076 40.5505 45.5076 37.5505 45.0076C27.5505 44.0076 12.5505 46.5076 10.5505 48.5076Z" fill="#EDADBF" stroke="black" stroke-width="0.5"/>
<path d="M93.5518 36.0076C75.7184 36.8409 44.0518 41.7076 33.5518 44.7076L37.5518 45.0076C42.5518 46.5076 48.0518 50.8409 50.0518 54.0076C63.0508 44.5076 88.5508 51.5076 87.0508 79.0076H97.0508C90.0508 68.0076 91.0508 46.0076 93.5518 36.0076Z" fill="#EDADBF" stroke="black" stroke-width="0.5"/>
<path d="M10.5498 48.5076H4.5498C37.05 29.0075 59.05 35.0076 85.0498 30.5076L94.05 36.0076C77.05 37.0076 48.0498 40.5076 34.0498 44.7076C26.0498 44.5076 12.0498 46.5076 10.5498 48.5076Z" fill="#EDADBF" stroke="black" stroke-width="0.5"/>
<path d="M37.5513 45.0076C30.0513 44.0076 13.0513 46.0076 10.5513 48.5076C9.75126 50.9076 12.8846 53.8409 14.5513 55.0076C24.0513 56.5076 37.5513 50.5076 37.5513 45.0076Z" fill="#EDADBF" stroke="black" stroke-width="0.5"/>
<path d="M4.5505 48.5076C11.5505 49.5076 5.5505 60.0076 2.5505 65.0076C2.05043 58.0076 2.55029 52.5076 4.5505 48.5076Z" fill="#EDADBF" stroke="black" stroke-width="0.5"/>
<path d="M22.5498 84.5076V80.0076H40.0498L40.5498 84.5076H22.5498Z" fill="#EDADBF" stroke="black" stroke-width="0.5"/>
<path d="M3.05176 66.0076C4.55176 68.5076 6.55176 71.6742 6.05176 73.5076M22.5518 80.0076C12.0518 80.5076 7.55176 76.5076 8.55176 73.0076C9.05176 72.5076 10.5518 71.0076 11.5518 71.0076" stroke="black" stroke-width="0.5"/>
<path d="M32.5518 75.0076C30.0518 71.0076 24.5518 66.0076 21.5518 64.5076C19.8017 64.0076 17.1766 64.1326 14.4265 64.5076C12.8016 65.841 11.5518 69.0076 12.0518 72.0076C12.0518 73.1742 13.3592 75.5076 16.0518 75.5076C20.5518 75.5076 27.5518 76.0076 32.5518 75.0076Z" fill="#EDADBF"/>
<path d="M6.55176 66.0076C8.8017 65.5076 11.6766 64.8826 14.4265 64.5076M14.4265 64.5076C17.1766 64.1326 19.8017 64.0076 21.5518 64.5076C24.5518 66.0076 30.0518 71.0076 32.5518 75.0076C27.5518 76.0076 20.5518 75.5076 16.0518 75.5076C13.3592 75.5076 12.0518 73.1742 12.0518 72.0076C11.5518 69.0076 12.8016 65.841 14.4265 64.5076Z" stroke="black" stroke-width="0.5"/>
<path d="M12.0518 71.5076C20.0518 70.0077 23.5518 72.6362 26.5518 74.1362M13.5518 74.5077L31.0518 74.0077" stroke="black" stroke-width="0.5"/>
<path d="M22.5498 83.0076H32.0498C34.0498 83.0076 35.5498 81.0076 35.0498 80.0076M38.5498 80.0076V84.5076" stroke="black" stroke-width="0.5"/>
<path d="M22.5517 81.5078C18.0517 81.5078 13.5517 82.0078 2.0517 79.0078V77.0078L6.0517 75.0078V73.5078L2.0517 73.0078C1.55078 71.5076 0.550977 68.5076 2.55097 66.0076C2.05122 58.0076 2.55122 51.5076 4.5517 48.5073C37.0517 29.0077 59.0517 35.0078 85.0517 30.5078C163.052 -24.4924 245.052 12.5076 282.052 27.0077L295.552 29.0076L296.052 36.0076V39.0076C297.55 44.0076 298.885 48.5076 297.552 50.5076C300.052 51.5076 302.552 54.6742 302.552 56.5076L300.552 66.5076C301.004 77.3555 298.596 77.5798 289.264 77.8922C288.273 77.9254 286.204 77.9596 285.052 78.0076V79.5076L260.052 79.9386M22.5517 81.5078V84.5078H40.55L40.0517 80.0078M22.5517 81.5078V80.0078H40.0517M40.0517 80.0078C37.0517 38.5078 90.5517 41.5078 87.0517 80.5078V83.0076H213.552C207.552 39.5076 262.052 39.5076 260.052 79.9386M259.55 79.9386H260.052" stroke="black"/>
</svg>
