<svg width="303" height="96" viewBox="0 0 303 96" fill="none" xmlns="http://www.w3.org/2000/svg">
<circle cx="62.6875" cy="74.0454" r="20.5" stroke="black"/>
<circle cx="235.688" cy="74.0454" r="20.5" stroke="black"/>
<path d="M132.686 12.5453L131.186 9.04527C171.186 1.04538 192.686 1.54541 231.686 13.0454L228.186 17.5454C208.186 9.54532 190.186 8.54532 174.186 8.04539C171.686 7.54539 167.686 7.54535 165.186 8.04527C155.186 8.04539 143.186 9.54539 132.686 12.5453Z" fill="#E56E90" stroke="black" stroke-width="0.5"/>
<path d="M131.186 9.04545L130.686 7.54545C166.686 -3.45459 199.186 0.545284 234.686 9.54546L231.686 13.0455C191.686 0.54541 165.686 2.04541 131.186 9.04545Z" fill="#E56E90" stroke="black" stroke-width="0.5"/>
<path d="M131.186 9.04552C182.686 -2.4545 211.186 7.54553 231.686 13.0455" stroke="black" stroke-width="0.5"/>
<path d="M170.688 30.0454L174.188 8.04541C207.688 9.04541 219.188 14.5454 223.688 16.0454L226.17 28.0454C199.18 28.046 181.685 29.5455 170.688 30.0454Z" fill="#E56E90"/>
<path d="M226.688 30.5454L223.688 16.0454C219.188 14.5454 207.688 9.04541 174.188 8.04541L170.688 30.0454C181.688 29.5454 199.188 28.0454 226.188 28.0454" stroke="black" stroke-width="0.5"/>
<path d="M165.188 8.04541C132.188 9.04541 112.188 18.0454 93.1875 35.5454L95.6875 33.5454L159.688 30.5454L165.188 8.04541Z" fill="#E56E90" stroke="black" stroke-width="0.5"/>
<path d="M239.686 22.5454C236.019 19.8787 230.186 17.5454 223.686 16.0454L226.186 28.0454H232.686C235.686 26.5454 238.686 24.3141 239.686 22.5454Z" fill="#E56E90" stroke="black" stroke-width="0.5"/>
<path d="M96.6875 78.5454H163.688L198.188 77.0454H212.688L213.188 82.5454H199.188H98.1875H86.6875V78.5454H96.6875Z" fill="#E56E90"/>
<path d="M96.6875 78.5454H163.688L198.188 77.0454M96.6875 78.5454C96.6875 80.0454 97.1875 81.0454 98.1875 82.5454M96.6875 78.5454H86.6875V82.5454H98.1875M198.188 77.0454L199.188 82.5454M198.188 77.0454H212.688L213.188 82.5454H199.188M199.188 82.5454H98.1875" stroke="black" stroke-width="0.5"/>
<path d="M96.6866 78.5454C92.1875 74.0454 89.1875 52.0454 93.1866 35.5454L165.188 31.5454C161.188 36.5454 160.188 70.5454 163.687 78.5454H96.6866Z" fill="#E56E90" stroke="black" stroke-width="0.5"/>
<path d="M228.687 30.5454L165.187 31.5454C161.188 36.5454 160.188 70.5454 163.687 78.5454L198.187 77.0454C202.687 75.5454 209.187 70.0454 228.687 30.5454Z" fill="#E56E90" stroke="black" stroke-width="0.5"/>
<path d="M170.688 30.0455C166.188 30.5455 162.688 30.5455 159.688 30.5455L165.188 8.04548C168.188 7.54541 171.188 7.54541 174.188 8.04548L170.688 30.0455Z" fill="#E56E90" stroke="black" stroke-width="0.5"/>
<path d="M99.1875 32.0457C103.688 37.5457 110.688 34.0457 114.688 32.5457C115.688 17.0455 102.688 25.0455 99.1875 32.0457Z" fill="#E56E90" stroke="black" stroke-width="0.5"/>
<path d="M234.686 9.54541L231.686 13.0454C248.686 18.5454 259.186 21.5454 271.686 28.0454H273.186L281.186 26.5454C266.186 20.0454 258.686 17.5454 234.686 9.54541Z" fill="#EFC7D3" stroke="black" stroke-width="0.5"/>
<path d="M271.686 28.0454C261.186 22.5454 242.186 16.0454 231.686 13.0454L229.686 15.5454L244.686 23.0454C243.186 25.5454 239.186 27.5454 233.186 30.2454C245.186 29.5454 262.186 28.5454 271.686 28.0454Z" fill="#EFC7D3" stroke="black" stroke-width="0.5"/>
<path d="M277.188 34.3454L283.186 32.0454L272.687 28.0454L228.687 30.5454C221.187 45.5454 206.187 76.0454 198.187 77.0454H212.687C211.187 66.0454 220.687 42.5454 245.688 51.5454C256.188 46.0454 266.188 40.5454 277.188 34.3454Z" fill="#EFC7D3" stroke="black" stroke-width="0.5"/>
<path d="M278.186 34.0454C266.186 40.5454 256.186 46.0454 245.686 51.5454C250.186 54.5454 260.686 60.5454 259.686 79.5454L284.686 79.0454V77.5454C293.186 76.5454 301.686 80.0454 300.186 66.0454L302.186 56.0454C302.186 54.5454 299.686 50.5454 297.186 50.0454C298.686 47.5454 295.686 38.5454 295.686 38.5454V37.0454L291.686 34.0454L286.686 32.5454L283.186 32.0454L278.186 34.0454Z" fill="#EFC7D3" stroke="black" stroke-width="0.5"/>
<path d="M281.186 26.5454L272.686 28.0454L283.186 32.0454C292.686 33.0454 291.684 34.5454 295.68 36.9656L295.186 28.5454L281.186 26.5454Z" fill="#EFC7D3"/>
<path d="M295.686 37.0454L295.68 36.9656M295.68 36.9656L295.186 28.5454L281.186 26.5454L272.686 28.0454L283.186 32.0454C292.686 33.0454 291.684 34.5454 295.68 36.9656Z" stroke="black" stroke-width="0.5"/>
<path d="M294.188 36.5456C293.688 34.0455 282.688 33.8454 277.188 34.3454" stroke="black" stroke-width="0.5"/>
<path d="M300.188 66.5454L260.688 68.5454C260.188 63.5454 258.021 59.3787 256.188 57.5454L302.188 55.0454M300.688 52.5454C289.688 51.0454 278.688 46.2454 266.688 40.2454M228.688 30.5454L272.688 28.0454L281.188 26.5454" stroke="black" stroke-width="0.5"/>
<path d="M290.688 40.5454C290.688 38.5454 289.688 34.5454 286.188 32.5454C288.408 32.5454 291.785 33.5858 294.296 35.9554C294.76 37.4854 293.688 41.0454 290.646 42.5454C290.632 41.9551 290.688 41.2697 290.688 40.5454Z" fill="#EFC7D3"/>
<path d="M272.688 43.0454C279.683 43.3952 285.7 43.5003 291.081 44.0454M297.688 45.0454C295.585 44.5948 293.391 44.2795 291.081 44.0454M295.688 37.5454C295.27 36.9603 294.8 36.4311 294.296 35.9554M291.081 44.0454C290.754 43.7006 290.66 43.1776 290.646 42.5454M290.646 42.5454C290.632 41.9551 290.688 41.2697 290.688 40.5454C290.688 38.5454 289.688 34.5454 286.188 32.5454C288.408 32.5454 291.785 33.5858 294.296 35.9554M290.646 42.5454C293.688 41.0454 294.76 37.4854 294.296 35.9554" stroke="black" stroke-width="0.5"/>
<path d="M290.688 40.5454C286.188 40.5454 284.188 36.5454 283.188 34.0454" stroke="black" stroke-width="0.5"/>
<path d="M132.686 12.6454C119.186 16.6454 107.186 22.5454 93.186 35.5454C100.186 23.5454 115.686 14.0454 131.186 9.04541L132.686 12.6454Z" fill="#EDADBF" stroke="black" stroke-width="0.5"/>
<path d="M131.186 9.04541C111.186 14.7194 93.186 32.0454 85.186 30.0454C98.186 20.5454 114.186 12.0454 130.686 7.54541L131.186 9.04541Z" fill="#EDADBF" stroke="black" stroke-width="0.5"/>
<path d="M10.1867 48.0453H4.1867C1.68604 52.0453 1.68604 62.0453 2.1867 65.5453C0.686035 66.5453 0.686633 71.0453 1.6867 72.5453L5.6867 73.0453V74.5453L1.6867 76.5453V78.5453C5.6867 79.5453 14.1867 81.5453 22.1867 81.0453V79.5453H39.6867C39.02 71.0453 40.6867 60.5453 49.6867 53.5453C47.1867 49.5453 40.1867 45.0453 37.1867 44.5453C27.1867 43.5453 12.1867 46.0453 10.1867 48.0453Z" fill="#EDADBF" stroke="black" stroke-width="0.5"/>
<path d="M93.1875 35.5454C75.3542 36.3787 43.6875 41.2454 33.1875 44.2454L37.1875 44.5454C42.1875 46.0454 47.6875 50.3787 49.6875 53.5454C62.6865 44.0454 88.1865 51.0454 86.6865 78.5454H96.6865C89.6865 67.5454 90.6865 45.5454 93.1875 35.5454Z" fill="#EDADBF" stroke="black" stroke-width="0.5"/>
<path d="M10.1855 48.0455H4.18555C36.6857 28.5454 58.6858 34.5454 84.6855 30.0454L93.6858 35.5454C76.6858 36.5454 47.6855 40.0454 33.6855 44.2454C25.6855 44.0454 11.6855 46.0454 10.1855 48.0455Z" fill="#EDADBF" stroke="black" stroke-width="0.5"/>
<path d="M37.1875 44.5455C29.6875 43.5454 12.6875 45.5454 10.1875 48.0455C9.38749 50.4454 12.5208 53.3787 14.1875 54.5454C23.6875 56.0454 37.1875 50.0454 37.1875 44.5455Z" fill="#EDADBF" stroke="black" stroke-width="0.5"/>
<path d="M4.18673 48.0454C11.1867 49.0454 5.18673 59.5454 2.18673 64.5454C1.68666 57.5454 2.18652 52.0454 4.18673 48.0454Z" fill="#EDADBF" stroke="black" stroke-width="0.5"/>
<path d="M22.186 84.0454V79.5454H39.686L40.186 84.0454H22.186Z" fill="#EDADBF" stroke="black" stroke-width="0.5"/>
<path d="M2.6875 65.5454C4.1875 68.0454 6.1875 71.2121 5.6875 73.0454M22.1875 79.5454C11.6875 80.0454 7.1875 76.0454 8.1875 72.5454C8.6875 72.0454 10.1875 70.5454 11.1875 70.5454" stroke="black" stroke-width="0.5"/>
<path d="M32.1875 74.5455C29.6875 70.5455 24.1875 65.5456 21.1875 64.0456C19.4375 63.5456 16.8124 63.6706 14.0623 64.0456C12.4374 65.3789 11.1875 68.5455 11.6875 71.5455C11.6875 72.7122 12.9949 75.0455 15.6875 75.0455C20.1875 75.0455 27.1875 75.5455 32.1875 74.5455Z" fill="#EDADBF"/>
<path d="M6.1875 65.5456C8.43744 65.0456 11.3124 64.4206 14.0623 64.0456M14.0623 64.0456C16.8124 63.6706 19.4375 63.5456 21.1875 64.0456C24.1875 65.5456 29.6875 70.5455 32.1875 74.5455C27.1875 75.5455 20.1875 75.0455 15.6875 75.0455C12.9949 75.0455 11.6875 72.7122 11.6875 71.5455C11.1875 68.5455 12.4374 65.3789 14.0623 64.0456Z" stroke="black" stroke-width="0.5"/>
<path d="M11.6875 71.0456C19.6875 69.5457 23.1875 72.1741 26.1875 73.6741M13.1875 74.0457L30.6875 73.5457" stroke="black" stroke-width="0.5"/>
<path d="M22.1855 82.5454H31.6855C33.6855 82.5454 35.1855 80.5454 34.6855 79.5454M38.1855 79.5454V84.0454" stroke="black" stroke-width="0.5"/>
<path d="M22.1874 81.0457C17.6874 81.0457 13.1874 81.5457 1.68745 78.5457V76.5457L5.68745 74.5456V73.0457L1.68745 72.5457C1.18652 71.0454 0.186719 68.0454 2.18671 65.5454C1.68696 57.5454 2.18696 51.0454 4.18745 48.0452C36.6874 28.5455 58.6874 34.5456 84.6874 30.0456C162.687 -24.9545 244.687 12.0454 281.687 26.5456L295.187 28.5454L295.687 35.5454V38.5454C297.186 43.5454 298.521 48.0454 297.187 50.0454C299.687 51.0454 302.187 54.2121 302.187 56.0454L300.187 66.0454C300.639 76.8933 298.231 77.1176 288.9 77.43C287.909 77.4632 285.84 77.4974 284.687 77.5454V79.0454L259.687 79.4764M22.1874 81.0457V84.0457H40.1858L39.6875 79.5457M22.1874 81.0457V79.5457H39.6875M39.6875 79.5457C36.6875 38.0457 90.1874 41.0457 86.6874 80.0457V82.5454H213.187C207.187 39.0454 261.687 39.0454 259.687 79.4764M259.186 79.4764H259.687" stroke="black"/>
</svg>
