<svg width="303" height="96" viewBox="0 0 303 96" fill="none" xmlns="http://www.w3.org/2000/svg">
<circle cx="62.667" cy="74.553" r="20.5" stroke="black"/>
<circle cx="235.667" cy="74.553" r="20.5" stroke="black"/>
<path d="M132.665 13.0528L131.165 9.55283C171.165 1.55295 192.665 2.05298 231.665 13.5529L228.165 18.0529C208.165 10.0529 190.165 9.05289 174.165 8.55296C171.665 8.05296 167.665 8.05292 165.165 8.55283C155.165 8.55296 143.165 10.053 132.665 13.0528Z" fill="#E0426F" stroke="black" stroke-width="0.5"/>
<path d="M131.165 9.55302L130.665 8.05302C166.665 -2.94702 199.165 1.05285 234.665 10.053L231.665 13.553C191.665 1.05298 165.665 2.55298 131.165 9.55302Z" fill="#E0426F" stroke="black" stroke-width="0.5"/>
<path d="M131.165 9.55284C182.665 -1.94718 211.165 8.05286 231.665 13.5528" stroke="black" stroke-width="0.5"/>
<path d="M170.667 30.553L174.167 8.55298C207.667 9.55298 219.167 15.053 223.667 16.553L226.15 28.553C199.16 28.5536 181.665 30.0531 170.667 30.553Z" fill="#E0426F"/>
<path d="M226.667 31.053L223.667 16.553C219.167 15.053 207.667 9.55298 174.167 8.55298L170.667 30.553C181.667 30.053 199.167 28.553 226.167 28.553" stroke="black" stroke-width="0.5"/>
<path d="M165.167 8.55298C132.167 9.55298 112.167 18.553 93.167 36.053L95.667 34.053L159.667 31.053L165.167 8.55298Z" fill="#E0426F" stroke="black" stroke-width="0.5"/>
<path d="M239.665 23.053C235.998 20.3863 230.165 18.053 223.665 16.553L226.165 28.553H232.665C235.665 27.053 238.665 24.8217 239.665 23.053Z" fill="#E0426F" stroke="black" stroke-width="0.5"/>
<path d="M96.667 79.053H163.667L198.167 77.553H212.667L213.167 83.053H199.167H98.167H86.667V79.053H96.667Z" fill="#E0426F"/>
<path d="M96.667 79.053H163.667L198.167 77.553M96.667 79.053C96.667 80.553 97.167 81.553 98.167 83.053M96.667 79.053H86.667V83.053H98.167M198.167 77.553L199.167 83.053M198.167 77.553H212.667L213.167 83.053H199.167M199.167 83.053H98.167" stroke="black" stroke-width="0.5"/>
<path d="M96.6661 79.053C92.167 74.553 89.167 52.553 93.1661 36.053L165.167 32.053C161.167 37.053 160.167 71.053 163.667 79.053H96.6661Z" fill="#E0426F" stroke="black" stroke-width="0.5"/>
<path d="M228.667 31.053L165.167 32.053C161.167 37.053 160.167 71.053 163.667 79.053L198.167 77.553C202.667 76.053 209.167 70.553 228.667 31.053Z" fill="#E0426F" stroke="black" stroke-width="0.5"/>
<path d="M170.667 30.5531C166.167 31.0531 162.667 31.0531 159.667 31.0531L165.167 8.55305C168.167 8.05298 171.167 8.05298 174.167 8.55305L170.667 30.5531Z" fill="#E0426F" stroke="black" stroke-width="0.5"/>
<path d="M99.167 32.553C103.667 38.053 110.667 34.553 114.667 33.053C115.667 17.5529 102.667 25.5529 99.167 32.553Z" fill="#E0426F" stroke="black" stroke-width="0.5"/>
<path d="M234.665 10.053L231.665 13.553C248.665 19.053 259.165 22.053 271.665 28.553H273.165L281.165 27.053C266.165 20.553 258.665 18.053 234.665 10.053Z" fill="#E56E90" stroke="black" stroke-width="0.5"/>
<path d="M271.665 28.553C261.165 23.053 242.165 16.553 231.665 13.553L229.665 16.053L244.665 23.553C243.165 26.053 239.165 28.053 233.165 30.753C245.165 30.053 262.165 29.053 271.665 28.553Z" fill="#E56E90" stroke="black" stroke-width="0.5"/>
<path d="M277.167 34.853L283.165 32.553L272.666 28.553L228.666 31.053C221.166 46.053 206.166 76.553 198.166 77.553H212.666C211.166 66.553 220.666 43.053 245.667 52.053C256.167 46.553 266.167 41.053 277.167 34.853Z" fill="#E56E90" stroke="black" stroke-width="0.5"/>
<path d="M278.165 34.553C266.165 41.053 256.165 46.553 245.665 52.053C250.165 55.053 260.665 61.053 259.665 80.053L284.665 79.553V78.053C293.165 77.053 301.665 80.553 300.165 66.553L302.165 56.553C302.165 55.053 299.665 51.053 297.165 50.553C298.665 48.053 295.665 39.053 295.665 39.053V37.553L291.665 34.553L286.665 33.053L283.165 32.553L278.165 34.553Z" fill="#E56E90" stroke="black" stroke-width="0.5"/>
<path d="M281.165 27.053L272.665 28.553L283.165 32.553C292.665 33.553 291.664 35.053 295.659 37.4732L295.165 29.053L281.165 27.053Z" fill="#E56E90"/>
<path d="M295.665 37.553L295.659 37.4732M295.659 37.4732L295.165 29.053L281.165 27.053L272.665 28.553L283.165 32.553C292.665 33.553 291.664 35.053 295.659 37.4732Z" stroke="black" stroke-width="0.5"/>
<path d="M294.167 37.0532C293.667 34.5531 282.667 34.353 277.167 34.853" stroke="black" stroke-width="0.5"/>
<path d="M300.167 67.053L260.667 69.053C260.167 64.053 258 59.8863 256.167 58.053L302.167 55.553M300.667 53.053C289.667 51.553 278.667 46.753 266.667 40.753M228.667 31.053L272.667 28.553L281.167 27.053" stroke="black" stroke-width="0.5"/>
<path d="M290.667 41.053C290.667 39.053 289.667 35.053 286.167 33.053C288.388 33.053 291.765 34.0934 294.276 36.463C294.74 37.993 293.667 41.553 290.625 43.053C290.612 42.4627 290.667 41.7773 290.667 41.053Z" fill="#E56E90"/>
<path d="M272.667 43.553C279.663 43.9028 285.68 44.0079 291.06 44.553M297.667 45.553C295.564 45.1023 293.371 44.7871 291.06 44.553M295.667 38.053C295.249 37.4679 294.78 36.9386 294.276 36.463M291.06 44.553C290.734 44.2082 290.64 43.6852 290.625 43.053M290.625 43.053C290.612 42.4627 290.667 41.7773 290.667 41.053C290.667 39.053 289.667 35.053 286.167 33.053C288.388 33.053 291.765 34.0934 294.276 36.463M290.625 43.053C293.667 41.553 294.74 37.993 294.276 36.463" stroke="black" stroke-width="0.5"/>
<path d="M290.667 41.053C286.167 41.053 284.167 37.053 283.167 34.553" stroke="black" stroke-width="0.5"/>
<path d="M132.665 13.153C119.165 17.153 107.165 23.053 93.165 36.053C100.165 24.053 115.665 14.553 131.165 9.55298L132.665 13.153Z" stroke="black" stroke-width="0.5"/>
<path d="M131.165 9.55298C111.165 15.227 93.165 32.553 85.165 30.553C98.165 21.053 114.165 12.553 130.665 8.05298L131.165 9.55298Z" stroke="black" stroke-width="0.5"/>
<path d="M10.1657 48.5529H4.16571C1.66504 52.5529 1.66504 62.5529 2.16571 66.0529C0.665039 67.0529 0.665637 71.5529 1.66571 73.0529L5.66571 73.5529V75.0529L1.66571 77.0529V79.0529C5.66571 80.0529 14.1657 82.0529 22.1657 81.5529V80.0529H39.6657C38.999 71.5529 40.6657 61.0529 49.6657 54.0529C47.1657 50.0529 40.1657 45.5529 37.1657 45.0529C27.1657 44.0529 12.1657 46.5529 10.1657 48.5529Z" stroke="black" stroke-width="0.5"/>
<path d="M93.167 36.053C75.3337 36.8863 43.667 41.753 33.167 44.753L37.167 45.053C42.167 46.553 47.667 50.8863 49.667 54.053C62.666 44.553 88.166 51.553 86.666 79.053H96.666C89.666 68.053 90.666 46.053 93.167 36.053Z" stroke="black" stroke-width="0.5"/>
<path d="M10.165 48.553H4.16504C36.6652 29.0529 58.6653 35.053 84.665 30.553L93.6653 36.053C76.6653 37.053 47.665 40.553 33.665 44.753C25.665 44.553 11.665 46.553 10.165 48.553Z" stroke="black" stroke-width="0.5"/>
<path d="M37.1665 45.0531C29.6665 44.053 12.6665 46.053 10.1665 48.5531C9.36649 50.953 12.4998 53.8863 14.1665 55.053C23.6665 56.553 37.1665 50.553 37.1665 45.0531Z" stroke="black" stroke-width="0.5"/>
<path d="M4.16573 48.553C11.1657 49.553 5.16573 60.053 2.16573 65.053C1.66566 58.053 2.16553 52.553 4.16573 48.553Z" stroke="black" stroke-width="0.5"/>
<path d="M22.165 84.553V80.053H39.665L40.165 84.553H22.165Z" stroke="black" stroke-width="0.5"/>
<path d="M2.66699 66.0527C4.16699 68.5527 6.16699 71.7194 5.66699 73.5527M22.167 80.0527C11.667 80.5527 7.16699 76.5527 8.16699 73.0527C8.66699 72.5527 10.167 71.0527 11.167 71.0527" stroke="black" stroke-width="0.5"/>
<path d="M6.16699 66.0529C8.41693 65.5529 11.2918 64.9279 14.0418 64.5529M14.0418 64.5529C16.7919 64.1779 19.4169 64.0529 21.167 64.5529C24.167 66.0529 29.667 71.0529 32.167 75.0529C27.167 76.0529 20.167 75.5529 15.667 75.5529C12.9744 75.5529 11.667 73.2195 11.667 72.0529C11.167 69.0529 12.4168 65.8862 14.0418 64.5529Z" stroke="black" stroke-width="0.5"/>
<path d="M11.667 71.5529C19.667 70.053 23.167 72.6815 26.167 74.1815M13.167 74.553L30.667 74.053" stroke="black" stroke-width="0.5"/>
<path d="M22.165 83.0527H31.665C33.665 83.0527 35.165 81.0527 34.665 80.0527M38.165 80.0527V84.5527" stroke="black" stroke-width="0.5"/>
<path d="M22.1669 81.5532C17.6669 81.5532 13.1669 82.0532 1.66694 79.0532V77.0532L5.66694 75.0532V73.5532L1.66694 73.0532C1.16602 71.553 0.166211 68.553 2.16621 66.053C1.66645 58.053 2.16645 51.553 4.16694 48.5527C36.6669 29.0531 58.6669 35.0532 84.6669 30.5532C162.667 -24.4469 244.667 12.553 281.667 27.0532L295.167 29.053L295.667 36.053V39.053C297.165 44.053 298.5 48.553 297.167 50.553C299.667 51.553 302.167 54.7196 302.167 56.553L300.167 66.553C300.619 77.4009 298.211 77.6252 288.879 77.9376C287.888 77.9708 285.819 78.005 284.667 78.053V79.553L259.667 79.984M22.1669 81.5532V84.5532H40.1653L39.6669 80.0532M22.1669 81.5532V80.0532H39.6669M39.6669 80.0532C36.6669 38.5532 90.1669 41.5532 86.6669 80.5532V83.053H213.167C207.167 39.553 261.667 39.553 259.667 79.984M259.165 79.984H259.667" stroke="black"/>
</svg>
