<svg width="303" height="95" viewBox="0 0 303 95" fill="none" xmlns="http://www.w3.org/2000/svg">
<circle cx="62.249" cy="73.7222" r="20.5" fill="#E56E90" stroke="black"/>
<circle cx="235.249" cy="73.7222" r="20.5" fill="#E56E90" stroke="black"/>
<path d="M132.247 12.222L130.747 8.72202C170.747 0.722136 192.247 1.22217 231.247 12.7221L227.747 17.2221C207.747 9.22208 189.747 8.22208 173.747 7.72215C171.247 7.22215 167.247 7.22211 164.747 7.72202C154.747 7.72215 142.747 9.22215 132.247 12.222Z" fill="#E0426F" stroke="black" stroke-width="0.5"/>
<path d="M130.747 8.72221L130.247 7.22221C166.247 -3.77783 198.747 0.222042 234.247 9.22221L231.247 12.7222C191.247 0.222168 165.247 1.72217 130.747 8.72221Z" fill="#E0426F" stroke="black" stroke-width="0.5"/>
<path d="M130.747 8.72228C182.247 -2.77775 210.747 7.22229 231.247 12.7223" stroke="black" stroke-width="0.5"/>
<path d="M170.249 29.7222L173.749 7.72217C207.249 8.72217 218.749 14.2222 223.249 15.7222L225.732 27.7222C198.742 27.7228 181.247 29.2223 170.249 29.7222Z" fill="#E0426F"/>
<path d="M226.249 30.2222L223.249 15.7222C218.749 14.2222 207.249 8.72217 173.749 7.72217L170.249 29.7222C181.249 29.2222 198.749 27.7222 225.749 27.7222" stroke="black" stroke-width="0.5"/>
<path d="M164.749 7.72217C131.749 8.72217 111.749 17.7222 92.749 35.2222L95.249 33.2222L159.249 30.2222L164.749 7.72217Z" fill="#E0426F" stroke="black" stroke-width="0.5"/>
<path d="M239.247 22.2222C235.58 19.5555 229.747 17.2222 223.247 15.7222L225.747 27.7222H232.247C235.247 26.2222 238.247 23.9909 239.247 22.2222Z" fill="#E0426F" stroke="black" stroke-width="0.5"/>
<path d="M96.249 78.2222H163.249L197.749 76.7222H212.249L212.749 82.2222H198.749H97.749H86.249V78.2222H96.249Z" fill="#E0426F"/>
<path d="M96.249 78.2222H163.249L197.749 76.7222M96.249 78.2222C96.249 79.7222 96.749 80.7222 97.749 82.2222M96.249 78.2222H86.249V82.2222H97.749M197.749 76.7222L198.749 82.2222M197.749 76.7222H212.249L212.749 82.2222H198.749M198.749 82.2222H97.749" stroke="black" stroke-width="0.5"/>
<path d="M96.2482 78.2222C91.749 73.7222 88.7491 51.7222 92.7482 35.2222L164.749 31.2222C160.749 36.2222 159.749 70.2222 163.249 78.2222H96.2482Z" fill="#E0426F" stroke="black" stroke-width="0.5"/>
<path d="M228.249 30.2222L164.749 31.2222C160.749 36.2222 159.749 70.2222 163.249 78.2222L197.749 76.7222C202.249 75.2222 208.749 69.7222 228.249 30.2222Z" fill="#E0426F" stroke="black" stroke-width="0.5"/>
<path d="M170.249 29.7222C165.749 30.2222 162.249 30.2222 159.249 30.2222L164.749 7.72224C167.749 7.22217 170.749 7.22217 173.749 7.72224L170.249 29.7222Z" fill="#E0426F" stroke="black" stroke-width="0.5"/>
<path d="M98.749 31.7224C103.249 37.2224 110.249 33.7224 114.249 32.2224C115.249 16.7223 102.249 24.7223 98.749 31.7224Z" fill="#E0426F" stroke="black" stroke-width="0.5"/>
<path d="M234.247 9.22217L231.247 12.7222C248.247 18.2222 258.747 21.2222 271.247 27.7222H272.747L280.747 26.2222C265.747 19.7222 258.247 17.2222 234.247 9.22217Z" fill="#E0426F" stroke="black" stroke-width="0.5"/>
<path d="M271.247 27.7222C260.747 22.2222 241.747 15.7222 231.247 12.7222L229.247 15.2222L244.247 22.7222C242.747 25.2222 238.747 27.2222 232.747 29.9222C244.747 29.2222 261.747 28.2222 271.247 27.7222Z" fill="#E0426F" stroke="black" stroke-width="0.5"/>
<path d="M276.749 34.0222L282.747 31.7222L272.248 27.7222L228.248 30.2222C220.748 45.2222 205.748 75.7222 197.748 76.7222H212.248C210.748 65.7222 220.248 42.2222 245.249 51.2222C255.749 45.7222 265.749 40.2222 276.749 34.0222Z" fill="#E0426F" stroke="black" stroke-width="0.5"/>
<path d="M277.747 33.7222C265.747 40.2222 255.747 45.7222 245.247 51.2222C249.747 54.2222 260.247 60.2222 259.247 79.2222L284.247 78.7222V77.2222C292.747 76.2222 301.247 79.7222 299.747 65.7222L301.747 55.7222C301.747 54.2222 299.247 50.2222 296.747 49.7222C298.247 47.2222 295.247 38.2222 295.247 38.2222V36.7222L291.247 33.7222L286.247 32.2222L282.747 31.7222L277.747 33.7222Z" fill="#E0426F" stroke="black" stroke-width="0.5"/>
<path d="M280.747 26.2222L272.247 27.7222L282.747 31.7222C292.247 32.7222 291.246 34.2222 295.241 36.6423L294.747 28.2222L280.747 26.2222Z" fill="#E0426F"/>
<path d="M295.247 36.7222L295.241 36.6423M295.241 36.6423L294.747 28.2222L280.747 26.2222L272.247 27.7222L282.747 31.7222C292.247 32.7222 291.246 34.2222 295.241 36.6423Z" stroke="black" stroke-width="0.5"/>
<path d="M293.749 36.2224C293.249 33.7223 282.249 33.5222 276.749 34.0222" stroke="black" stroke-width="0.5"/>
<path d="M299.749 66.2222L260.249 68.2222C259.749 63.2222 257.582 59.0555 255.749 57.2222L301.749 54.7222M300.249 52.2222C289.249 50.7222 278.249 45.9222 266.249 39.9222M228.249 30.2222L272.249 27.7222L280.749 26.2222" stroke="black" stroke-width="0.5"/>
<path d="M290.249 40.2222C290.249 38.2222 289.249 34.2222 285.749 32.2222C287.97 32.2222 291.347 33.2626 293.858 35.6322C294.322 37.1622 293.249 40.7222 290.207 42.2222C290.194 41.6319 290.249 40.9465 290.249 40.2222Z" fill="#E0426F"/>
<path d="M272.249 42.7222C279.245 43.072 285.262 43.177 290.642 43.7222M297.249 44.7222C295.146 44.2715 292.953 43.9563 290.642 43.7222M295.249 37.2222C294.831 36.637 294.362 36.1078 293.858 35.6322M290.642 43.7222C290.316 43.3774 290.222 42.8544 290.207 42.2222M290.207 42.2222C290.194 41.6319 290.249 40.9465 290.249 40.2222C290.249 38.2222 289.249 34.2222 285.749 32.2222C287.97 32.2222 291.347 33.2626 293.858 35.6322M290.207 42.2222C293.249 40.7222 294.322 37.1622 293.858 35.6322" stroke="black" stroke-width="0.5"/>
<path d="M290.249 40.2222C285.749 40.2222 283.749 36.2222 282.749 33.7222" stroke="black" stroke-width="0.5"/>
<path d="M132.247 12.3221C118.747 16.3221 106.747 22.2222 92.7471 35.2222C99.7471 23.2222 115.247 13.7222 130.747 8.72217L132.247 12.3221Z" fill="#EFC7D3" stroke="black" stroke-width="0.5"/>
<path d="M130.747 8.72217C110.747 14.3962 92.7471 31.7222 84.7471 29.7222C97.7471 20.2222 113.747 11.7222 130.247 7.22217L130.747 8.72217Z" fill="#EFC7D3" stroke="black" stroke-width="0.5"/>
<path d="M9.74774 47.7221H3.74774C1.24707 51.722 1.24707 61.722 1.74774 65.222C0.24707 66.222 0.247668 70.722 1.24774 72.222L5.24774 72.722V74.222L1.24774 76.222V78.222C5.24774 79.222 13.7477 81.222 21.7477 80.722V79.222H39.2477C38.5811 70.722 40.2477 60.222 49.2477 53.222C46.7477 49.222 39.7477 44.722 36.7477 44.2221C26.7477 43.222 11.7477 45.7221 9.74774 47.7221Z" fill="#EFC7D3" stroke="black" stroke-width="0.5"/>
<path d="M92.749 35.2222C74.9157 36.0555 43.249 40.9222 32.749 43.9222L36.749 44.2222C41.749 45.7222 47.249 50.0555 49.249 53.2222C62.248 43.7222 87.748 50.7222 86.248 78.2222H96.248C89.248 67.2222 90.248 45.2222 92.749 35.2222Z" fill="#EFC7D3" stroke="black" stroke-width="0.5"/>
<path d="M9.74707 47.7222H3.74707C36.2473 28.2221 58.2473 34.2222 84.2471 29.7222L93.2473 35.2222C76.2473 36.2222 47.2471 39.7222 33.2471 43.9222C25.2471 43.7222 11.2471 45.7222 9.74707 47.7222Z" fill="#EFC7D3" stroke="black" stroke-width="0.5"/>
<path d="M36.7485 44.2222C29.2485 43.2222 12.2485 45.2222 9.74852 47.7222C8.94852 50.1222 12.0819 53.0555 13.7485 54.2222C23.2485 55.7222 36.7485 49.7222 36.7485 44.2222Z" fill="#EFC7D3" stroke="black" stroke-width="0.5"/>
<path d="M3.74777 47.7222C10.7478 48.7222 4.74777 59.2222 1.74777 64.2222C1.2477 57.2222 1.74756 51.7222 3.74777 47.7222Z" fill="#EFC7D3" stroke="black" stroke-width="0.5"/>
<path d="M21.7471 83.7222V79.2222H39.2471L39.7471 83.7222H21.7471Z" fill="#EFC7D3" stroke="black" stroke-width="0.5"/>
<path d="M2.24902 65.2222C3.74902 67.7222 5.74902 70.8888 5.24902 72.7222M21.749 79.2222C11.249 79.7222 6.74902 75.7222 7.74902 72.2222C8.24902 71.7222 9.74902 70.2222 10.749 70.2222" stroke="black" stroke-width="0.5"/>
<path d="M31.749 74.2223C29.249 70.2223 23.749 65.2224 20.749 63.7224C18.999 63.2224 16.3739 63.3474 13.6238 63.7224C11.9989 65.0557 10.749 68.2223 11.249 71.2223C11.249 72.389 12.5564 74.7223 15.249 74.7223C19.749 74.7223 26.749 75.2223 31.749 74.2223Z" fill="#EFC7D3"/>
<path d="M5.74902 65.2224C7.99897 64.7223 10.8739 64.0974 13.6238 63.7224M13.6238 63.7224C16.3739 63.3474 18.999 63.2224 20.749 63.7224C23.749 65.2224 29.249 70.2223 31.749 74.2223C26.749 75.2223 19.749 74.7223 15.249 74.7223C12.5564 74.7223 11.249 72.389 11.249 71.2223C10.749 68.2223 11.9989 65.0557 13.6238 63.7224Z" stroke="black" stroke-width="0.5"/>
<path d="M11.249 70.7224C19.249 69.2224 22.749 71.8509 25.749 73.3509M12.749 73.7224L30.249 73.2224" stroke="black" stroke-width="0.5"/>
<path d="M21.7471 82.2222H31.2471C33.2471 82.2222 34.7471 80.2222 34.2471 79.2222M37.7471 79.2222V83.7222" stroke="black" stroke-width="0.5"/>
<path d="M3.74897 47.7219C36.249 28.2223 58.249 34.2224 84.249 29.7224C162.249 -25.2778 244.249 11.7222 281.249 26.2223L294.749 28.2222L295.249 35.2222V38.2222C296.747 43.2222 298.082 47.7222 296.749 49.7222C299.249 50.7222 301.749 53.8888 301.749 55.7222L299.749 65.7222C300.201 76.5701 297.793 76.7944 288.461 77.1068C287.47 77.14 285.401 77.1742 284.249 77.2222V78.7222L259.249 79.1532C261.249 38.7222 206.749 38.7222 212.749 82.2222H86.249V79.7224C89.749 40.7224 36.249 37.7224 39.249 79.2224L39.7473 83.7224H21.749V80.7224C17.249 80.7224 12.749 81.2224 1.24897 78.2224V76.2224L5.24897 74.2224V72.7224L1.24897 72.2224C0.748047 70.7222 -0.251757 67.7222 1.74824 65.2222C1.24848 57.2222 1.74848 50.7222 3.74897 47.7219Z" fill="#E56E90"/>
<path d="M21.749 80.7224C17.249 80.7224 12.749 81.2224 1.24897 78.2224V76.2224L5.24897 74.2224V72.7224L1.24897 72.2224C0.748047 70.7222 -0.251757 67.7222 1.74824 65.2222C1.24848 57.2222 1.74848 50.7222 3.74897 47.7219C36.249 28.2223 58.249 34.2224 84.249 29.7224C162.249 -25.2778 244.249 11.7222 281.249 26.2223L294.749 28.2222L295.249 35.2222V38.2222C296.747 43.2222 298.082 47.7222 296.749 49.7222C299.249 50.7222 301.749 53.8888 301.749 55.7222L299.749 65.7222C300.201 76.5701 297.793 76.7944 288.461 77.1068C287.47 77.14 285.401 77.1742 284.249 77.2222V78.7222L259.249 79.1532M21.749 80.7224V83.7224H39.7473L39.249 79.2224M21.749 80.7224V79.2224H39.249M39.249 79.2224C36.249 37.7224 89.749 40.7224 86.249 79.7224V82.2222H212.749C206.749 38.7222 261.249 38.7222 259.249 79.1532M258.747 79.1532H259.249" stroke="black"/>
</svg>
