<svg width="303" height="95" viewBox="0 0 303 95" fill="none" xmlns="http://www.w3.org/2000/svg">
<circle cx="62.2725" cy="73.707" r="20.5" fill="#E56E90" stroke="black"/>
<circle cx="235.272" cy="73.707" r="20.5" fill="#E56E90" stroke="black"/>
<path d="M132.271 12.2069L130.771 8.70689C170.771 0.706999 192.271 1.20703 231.271 12.707L227.771 17.207C207.771 9.20694 189.771 8.20694 173.771 7.70701C171.271 7.20701 167.271 7.20697 164.771 7.70689C154.771 7.70701 142.771 9.20701 132.271 12.2069Z" fill="#E56E90" stroke="black" stroke-width="0.5"/>
<path d="M130.771 8.70708L130.271 7.20708C166.271 -3.79297 198.771 0.206905 234.271 9.20708L231.271 12.7071C191.271 0.207031 165.271 1.70703 130.771 8.70708Z" fill="#E56E90" stroke="black" stroke-width="0.5"/>
<path d="M130.771 8.70714C182.271 -2.79288 210.771 7.20715 231.271 12.7071" stroke="black" stroke-width="0.5"/>
<path d="M170.272 29.707L173.772 7.70703C207.272 8.70703 218.772 14.207 223.272 15.707L225.755 27.707C198.765 27.7077 181.27 29.2071 170.272 29.707Z" fill="#E56E90"/>
<path d="M226.272 30.207L223.272 15.707C218.772 14.207 207.272 8.70703 173.772 7.70703L170.272 29.707C181.272 29.207 198.772 27.707 225.772 27.707" stroke="black" stroke-width="0.5"/>
<path d="M164.772 7.70703C131.772 8.70703 111.772 17.707 92.7725 35.207L95.2725 33.207L159.272 30.207L164.772 7.70703Z" fill="#E56E90" stroke="black" stroke-width="0.5"/>
<path d="M239.271 22.207C235.604 19.5404 229.771 17.207 223.271 15.707L225.771 27.707H232.271C235.271 26.207 238.271 23.9758 239.271 22.207Z" fill="#E56E90" stroke="black" stroke-width="0.5"/>
<path d="M96.2725 78.207H163.272L197.772 76.707H212.272L212.772 82.207H198.772H97.7725H86.2725V78.207H96.2725Z" fill="#E56E90"/>
<path d="M96.2725 78.207H163.272L197.772 76.707M96.2725 78.207C96.2725 79.707 96.7725 80.707 97.7725 82.207M96.2725 78.207H86.2725V82.207H97.7725M197.772 76.707L198.772 82.207M197.772 76.707H212.272L212.772 82.207H198.772M198.772 82.207H97.7725" stroke="black" stroke-width="0.5"/>
<path d="M96.2716 78.207C91.7725 73.707 88.7725 51.707 92.7716 35.207L164.772 31.207C160.772 36.207 159.772 70.207 163.272 78.207H96.2716Z" fill="#E56E90" stroke="black" stroke-width="0.5"/>
<path d="M228.272 30.207L164.772 31.207C160.773 36.207 159.773 70.207 163.272 78.207L197.772 76.707C202.272 75.207 208.772 69.707 228.272 30.207Z" fill="#E56E90" stroke="black" stroke-width="0.5"/>
<path d="M170.272 29.7071C165.772 30.2071 162.272 30.2071 159.272 30.2071L164.772 7.70711C167.772 7.20703 170.772 7.20703 173.772 7.70711L170.272 29.7071Z" fill="#E56E90" stroke="black" stroke-width="0.5"/>
<path d="M98.7725 31.7073C103.272 37.2073 110.272 33.7073 114.272 32.2073C115.272 16.7072 102.272 24.7072 98.7725 31.7073Z" fill="#E56E90" stroke="black" stroke-width="0.5"/>
<path d="M234.271 9.20703L231.271 12.707C248.271 18.207 258.771 21.207 271.271 27.707H272.771L280.771 26.207C265.771 19.707 258.271 17.207 234.271 9.20703Z" fill="#EDADBF" stroke="black" stroke-width="0.5"/>
<path d="M271.271 27.707C260.771 22.207 241.771 15.707 231.271 12.707L229.271 15.207L244.271 22.707C242.771 25.207 238.771 27.207 232.771 29.907C244.771 29.207 261.771 28.207 271.271 27.707Z" fill="#EDADBF" stroke="black" stroke-width="0.5"/>
<path d="M276.772 34.007L282.771 31.707L272.271 27.707L228.271 30.207C220.771 45.207 205.771 75.707 197.771 76.707H212.271C210.771 65.707 220.271 42.207 245.272 51.207C255.772 45.707 265.772 40.207 276.772 34.007Z" fill="#EDADBF" stroke="black" stroke-width="0.5"/>
<path d="M277.771 33.7071C265.771 40.2071 255.771 45.7071 245.271 51.2071C249.771 54.207 260.271 60.207 259.271 79.207L284.271 78.707V77.207C292.771 76.207 301.271 79.707 299.771 65.707L301.771 55.707C301.771 54.207 299.271 50.207 296.771 49.707C298.271 47.207 295.271 38.207 295.271 38.207V36.707L291.271 33.707L286.271 32.207L282.771 31.707L277.771 33.7071Z" fill="#EDADBF" stroke="black" stroke-width="0.5"/>
<path d="M280.771 26.207L272.271 27.707L282.771 31.707C292.271 32.707 291.269 34.207 295.265 36.6272L294.771 28.207L280.771 26.207Z" fill="#EDADBF"/>
<path d="M295.271 36.707L295.265 36.6272M295.265 36.6272L294.771 28.207L280.771 26.207L272.271 27.707L282.771 31.707C292.271 32.707 291.269 34.207 295.265 36.6272Z" stroke="black" stroke-width="0.5"/>
<path d="M293.772 36.2072C293.272 33.7071 282.272 33.507 276.772 34.007" stroke="black" stroke-width="0.5"/>
<path d="M299.772 66.207L260.272 68.207C259.772 63.207 257.606 59.0404 255.772 57.207L301.772 54.707M300.272 52.207C289.272 50.707 278.272 45.907 266.272 39.907M228.272 30.207L272.272 27.707L280.772 26.207" stroke="black" stroke-width="0.5"/>
<path d="M290.272 40.207C290.272 38.207 289.272 34.207 285.772 32.207C287.993 32.207 291.37 33.2474 293.881 35.617C294.345 37.147 293.272 40.707 290.231 42.207C290.217 41.6167 290.272 40.9313 290.272 40.207Z" fill="#EDADBF"/>
<path d="M272.272 42.707C279.268 43.0568 285.285 43.1619 290.666 43.707M297.272 44.707C295.169 44.2564 292.976 43.9411 290.666 43.707M295.272 37.207C294.855 36.6219 294.385 36.0927 293.881 35.617M290.666 43.707C290.339 43.3623 290.245 42.8392 290.231 42.207M290.231 42.207C290.217 41.6168 290.272 40.9313 290.272 40.207C290.272 38.207 289.272 34.207 285.772 32.207C287.993 32.207 291.37 33.2474 293.881 35.617M290.231 42.207C293.272 40.707 294.345 37.147 293.881 35.617" stroke="black" stroke-width="0.5"/>
<path d="M290.272 40.207C285.772 40.207 283.772 36.207 282.772 33.707" stroke="black" stroke-width="0.5"/>
<path d="M132.271 12.307C118.771 16.307 106.771 22.207 92.7705 35.207C99.7705 23.207 115.271 13.707 130.771 8.70703L132.271 12.307Z" stroke="black" stroke-width="0.5"/>
<path d="M130.771 8.70703C110.771 14.3811 92.7705 31.707 84.7705 29.707C97.7705 20.207 113.771 11.707 130.271 7.20703L130.771 8.70703Z" stroke="black" stroke-width="0.5"/>
<path d="M9.77118 47.7069H3.77118C1.27051 51.7069 1.27051 61.7069 1.77118 65.2069C0.270508 66.2069 0.271105 70.7069 1.27118 72.2069L5.27118 72.7069V74.2069L1.27118 76.2069V78.2069C5.27118 79.2069 13.7712 81.2069 21.7712 80.7069V79.2069H39.2712C38.6045 70.7069 40.2712 60.2069 49.2712 53.2069C46.7712 49.2069 39.7712 44.7069 36.7712 44.2069C26.7712 43.2069 11.7712 45.7069 9.77118 47.7069Z" stroke="black" stroke-width="0.5"/>
<path d="M92.7725 35.207C74.9391 36.0404 43.2725 40.907 32.7725 43.907L36.7725 44.207C41.7725 45.707 47.2725 50.0404 49.2725 53.207C62.2715 43.707 87.7715 50.707 86.2715 78.207H96.2715C89.2715 67.207 90.2715 45.207 92.7725 35.207Z" stroke="black" stroke-width="0.5"/>
<path d="M9.77051 47.7071H3.77051C36.2707 28.207 58.2708 34.207 84.2705 29.707L93.2708 35.207C76.2708 36.207 47.2705 39.707 33.2705 43.907C25.2705 43.707 11.2705 45.707 9.77051 47.7071Z" stroke="black" stroke-width="0.5"/>
<path d="M36.772 44.2071C29.272 43.207 12.272 45.207 9.77196 47.7071C8.97196 50.107 12.1053 53.0404 13.772 54.207C23.272 55.707 36.772 49.707 36.772 44.2071Z" stroke="black" stroke-width="0.5"/>
<path d="M3.7712 47.707C10.7712 48.707 4.7712 59.207 1.7712 64.207C1.27113 57.207 1.771 51.707 3.7712 47.707Z" stroke="black" stroke-width="0.5"/>
<path d="M21.7705 83.707V79.207H39.2705L39.7705 83.707H21.7705Z" stroke="black" stroke-width="0.5"/>
<path d="M2.27246 65.207C3.77246 67.707 5.77246 70.8737 5.27246 72.707M21.7725 79.207C11.2725 79.707 6.77246 75.707 7.77246 72.207C8.27246 71.707 9.77246 70.207 10.7725 70.207" stroke="black" stroke-width="0.5"/>
<path d="M5.77246 65.2072C8.0224 64.7072 10.8973 64.0822 13.6472 63.7072M13.6472 63.7072C16.3973 63.3322 19.0224 63.2072 20.7725 63.7072C23.7725 65.2072 29.2725 70.2072 31.7725 74.2072C26.7725 75.2072 19.7725 74.7072 15.2725 74.7072C12.5799 74.7072 11.2725 72.3738 11.2725 71.2072C10.7725 68.2072 12.0223 65.0405 13.6472 63.7072Z" stroke="black" stroke-width="0.5"/>
<path d="M11.2725 70.7072C19.2725 69.2073 22.7725 71.8358 25.7725 73.3358M12.7725 73.7073L30.2725 73.2073" stroke="black" stroke-width="0.5"/>
<path d="M21.7705 82.207H31.2705C33.2705 82.207 34.7705 80.207 34.2705 79.207M37.7705 79.207V83.707" stroke="black" stroke-width="0.5"/>
<path d="M21.7724 80.7073C17.2724 80.7073 12.7724 81.2073 1.27241 78.2073V76.2073L5.27241 74.2073V72.7073L1.27241 72.2073C0.771484 70.707 -0.22832 67.707 1.77168 65.207C1.27192 57.207 1.77192 50.707 3.77241 47.7068C36.2724 28.2072 58.2724 34.2072 84.2724 29.7072C162.272 -25.2929 244.272 11.707 281.272 26.2072L294.772 28.207L295.272 35.207V38.207C296.771 43.207 298.106 47.707 296.772 49.707C299.272 50.707 301.772 53.8737 301.772 55.707L299.772 65.707C300.224 76.5549 297.816 76.7792 288.485 77.0917C287.494 77.1249 285.425 77.159 284.272 77.207V78.707L259.272 79.1381M21.7724 80.7073V83.7073H39.7708L39.2724 79.2073M21.7724 80.7073V79.2073H39.2724M39.2724 79.2073C36.2724 37.7073 89.7724 40.7073 86.2724 79.7073V82.207H212.772C206.772 38.707 261.272 38.707 259.272 79.1381M258.771 79.1381H259.272" stroke="black"/>
</svg>
