<svg width="303" height="95" viewBox="0 0 303 95" fill="none" xmlns="http://www.w3.org/2000/svg">
<circle cx="62.4795" cy="73.6768" r="20.5" fill="#E0426F" stroke="black"/>
<circle cx="235.479" cy="73.6768" r="20.5" fill="#E0426F" stroke="black"/>
<path d="M132.478 12.1766L130.978 8.67661C170.978 0.676725 192.478 1.17676 231.478 12.6767L227.978 17.1767C207.978 9.17667 189.978 8.17667 173.978 7.67673C171.478 7.17673 167.478 7.1767 164.978 7.67661C154.978 7.67673 142.978 9.17674 132.478 12.1766Z" stroke="black" stroke-width="0.5"/>
<path d="M130.978 8.6768L130.478 7.1768C166.478 -3.82324 198.978 0.176632 234.478 9.1768L231.478 12.6768C191.478 0.176758 165.478 1.67676 130.978 8.6768Z" stroke="black" stroke-width="0.5"/>
<path d="M130.978 8.67675C182.478 -2.82328 210.978 7.17676 231.478 12.6767" stroke="black" stroke-width="0.5"/>
<path d="M226.479 30.1768L223.479 15.6768C218.979 14.1768 207.479 8.67676 173.979 7.67676L170.479 29.6768C181.479 29.1768 198.979 27.6768 225.979 27.6768" stroke="black" stroke-width="0.5"/>
<path d="M164.979 7.67676C131.979 8.67676 111.979 17.6768 92.9795 35.1768L95.4795 33.1768L159.479 30.1768L164.979 7.67676Z" stroke="black" stroke-width="0.5"/>
<path d="M239.478 22.1768C235.811 19.5101 229.978 17.1768 223.478 15.6768L225.978 27.6768H232.478C235.478 26.1768 238.478 23.9455 239.478 22.1768Z" stroke="black" stroke-width="0.5"/>
<path d="M96.4795 78.1768H163.479L197.979 76.6768M96.4795 78.1768C96.4795 79.6768 96.9795 80.6768 97.9795 82.1768M96.4795 78.1768H86.4795V82.1768H97.9795M197.979 76.6768L198.979 82.1768M197.979 76.6768H212.479L212.979 82.1768H198.979M198.979 82.1768H97.9795" stroke="black" stroke-width="0.5"/>
<path d="M96.4786 78.1768C91.9795 73.6768 88.9795 51.6768 92.9786 35.1768L164.979 31.1768C160.979 36.1768 159.979 70.1768 163.479 78.1768H96.4786Z" stroke="black" stroke-width="0.5"/>
<path d="M228.479 30.1768L164.979 31.1768C160.98 36.1768 159.98 70.1768 163.479 78.1768L197.979 76.6768C202.479 75.1768 208.979 69.6768 228.479 30.1768Z" stroke="black" stroke-width="0.5"/>
<path d="M170.479 29.6768C165.979 30.1768 162.479 30.1768 159.479 30.1768L164.979 7.67683C167.979 7.17676 170.979 7.17676 173.979 7.67683L170.479 29.6768Z" stroke="black" stroke-width="0.5"/>
<path d="M98.9795 31.6769C103.479 37.1769 110.479 33.6769 114.479 32.1769C115.479 16.6768 102.479 24.6768 98.9795 31.6769Z" stroke="black" stroke-width="0.5"/>
<path d="M234.478 9.17676L231.478 12.6768C248.478 18.1768 258.978 21.1768 271.478 27.6768H272.978L280.978 26.1768C265.978 19.6768 258.478 17.1768 234.478 9.17676Z" fill="#EFC7D3" stroke="black" stroke-width="0.5"/>
<path d="M271.478 27.6768C260.978 22.1768 241.978 15.6768 231.478 12.6768L229.478 15.1768L244.478 22.6768C242.978 25.1768 238.978 27.1768 232.978 29.8768C244.978 29.1768 261.978 28.1768 271.478 27.6768Z" fill="#EFC7D3" stroke="black" stroke-width="0.5"/>
<path d="M276.979 33.9768L282.978 31.6768L272.479 27.6768L228.479 30.1768C220.979 45.1768 205.979 75.6768 197.979 76.6768H212.479C210.979 65.6768 220.479 42.1768 245.479 51.1768C255.979 45.6768 265.979 40.1768 276.979 33.9768Z" fill="#EFC7D3" stroke="black" stroke-width="0.5"/>
<path d="M277.978 33.6768C265.978 40.1768 255.978 45.6768 245.478 51.1768C249.978 54.1768 260.478 60.1768 259.478 79.1768L284.478 78.6768V77.1768C292.978 76.1768 301.478 79.6768 299.978 65.6768L301.978 55.6768C301.978 54.1768 299.478 50.1768 296.978 49.6768C298.478 47.1768 295.478 38.1768 295.478 38.1768V36.6768L291.478 33.6768L286.478 32.1768L282.978 31.6768L277.978 33.6768Z" fill="#EFC7D3" stroke="black" stroke-width="0.5"/>
<path d="M280.978 26.1768L272.478 27.6768L282.978 31.6768C292.478 32.6768 291.476 34.1768 295.472 36.5969L294.978 28.1768L280.978 26.1768Z" fill="#EFC7D3"/>
<path d="M295.478 36.6768L295.472 36.5969M295.472 36.5969L294.978 28.1768L280.978 26.1768L272.478 27.6768L282.978 31.6768C292.478 32.6768 291.476 34.1768 295.472 36.5969Z" stroke="black" stroke-width="0.5"/>
<path d="M293.979 36.177C293.479 33.6768 282.479 33.4768 276.979 33.9768" stroke="black" stroke-width="0.5"/>
<path d="M299.979 66.1768L260.479 68.1768C259.979 63.1768 257.813 59.0101 255.979 57.1768L301.979 54.6768M300.479 52.1768C289.479 50.6768 278.479 45.8768 266.479 39.8768M228.479 30.1768L272.479 27.6768L280.979 26.1768" stroke="black" stroke-width="0.5"/>
<path d="M290.479 40.1768C290.479 38.1768 289.479 34.1768 285.979 32.1768C288.2 32.1768 291.577 33.2171 294.088 35.5867C294.552 37.1167 293.479 40.6768 290.438 42.1768C290.424 41.5865 290.479 40.901 290.479 40.1768Z" fill="#EFC7D3"/>
<path d="M272.479 42.6768C279.475 43.0265 285.492 43.1316 290.873 43.6768M297.479 44.6768C295.376 44.2261 293.183 43.9109 290.873 43.6768M295.479 37.1768C295.062 36.5916 294.592 36.0624 294.088 35.5867M290.873 43.6768C290.546 43.332 290.452 42.8089 290.438 42.1768M290.438 42.1768C290.424 41.5865 290.479 40.901 290.479 40.1768C290.479 38.1768 289.479 34.1768 285.979 32.1768C288.2 32.1768 291.577 33.2171 294.088 35.5867M290.438 42.1768C293.479 40.6768 294.552 37.1167 294.088 35.5867" stroke="black" stroke-width="0.5"/>
<path d="M290.479 40.1768C285.979 40.1768 283.979 36.1768 282.979 33.6768" stroke="black" stroke-width="0.5"/>
<path d="M132.478 12.2767C118.978 16.2767 106.978 22.1768 92.978 35.1768C99.978 23.1768 115.478 13.6768 130.978 8.67676L132.478 12.2767Z" fill="#E56E90" stroke="black" stroke-width="0.5"/>
<path d="M130.978 8.67676C110.978 14.3508 92.978 31.6768 84.978 29.6768C97.978 20.1768 113.978 11.6768 130.478 7.17676L130.978 8.67676Z" fill="#E56E90" stroke="black" stroke-width="0.5"/>
<path d="M9.97869 47.6768H3.97869C1.47803 51.6768 1.47803 61.6768 1.97869 65.1768C0.478027 66.1768 0.478625 70.6768 1.47869 72.1768L5.47869 72.6768V74.1768L1.47869 76.1768V78.1768C5.47869 79.1768 13.9787 81.1768 21.9787 80.6768V79.1768H39.4787C38.812 70.6768 40.4787 60.1768 49.4787 53.1768C46.9787 49.1768 39.9787 44.6768 36.9787 44.1768C26.9787 43.1768 11.9787 45.6768 9.97869 47.6768Z" fill="#E56E90" stroke="black" stroke-width="0.5"/>
<path d="M92.9795 35.1768C75.1462 36.0101 43.4795 40.8768 32.9795 43.8768L36.9795 44.1768C41.9795 45.6768 47.4795 50.0101 49.4795 53.1768C62.4785 43.6768 87.9785 50.6768 86.4785 78.1768H96.4785C89.4785 67.1768 90.4785 45.1768 92.9795 35.1768Z" fill="#E56E90" stroke="black" stroke-width="0.5"/>
<path d="M9.97754 47.6768H3.97754C36.4777 28.1767 58.4778 34.1768 84.4775 29.6768L93.4778 35.1768C76.4778 36.1768 47.4775 39.6768 33.4775 43.8768C25.4775 43.6767 11.4775 45.6768 9.97754 47.6768Z" fill="#E56E90" stroke="black" stroke-width="0.5"/>
<path d="M36.9795 44.1768C29.4795 43.1768 12.4795 45.1768 9.97948 47.6768C9.17948 50.0768 12.3128 53.0101 13.9795 54.1768C23.4795 55.6768 36.9795 49.6768 36.9795 44.1768Z" fill="#E56E90" stroke="black" stroke-width="0.5"/>
<path d="M3.97872 47.6768C10.9787 48.6768 4.97872 59.1768 1.97872 64.1768C1.47865 57.1768 1.97852 51.6768 3.97872 47.6768Z" fill="#E56E90" stroke="black" stroke-width="0.5"/>
<path d="M21.978 83.6768V79.1768H39.478L39.978 83.6768H21.978Z" fill="#E56E90" stroke="black" stroke-width="0.5"/>
<path d="M2.47949 65.1768C3.97949 67.6768 5.97949 70.8434 5.47949 72.6768M21.9795 79.1768C11.4795 79.6768 6.97949 75.6768 7.97949 72.1768C8.47949 71.6768 9.97949 70.1768 10.9795 70.1768" stroke="black" stroke-width="0.5"/>
<path d="M31.9795 74.1768C29.4795 70.1768 23.9795 65.1768 20.9795 63.6768C19.2294 63.1768 16.6044 63.3018 13.8543 63.6768C12.2294 65.0101 10.9795 68.1768 11.4795 71.1768C11.4795 72.3434 12.7869 74.6768 15.4795 74.6768C19.9795 74.6768 26.9795 75.1768 31.9795 74.1768Z" fill="#E56E90"/>
<path d="M5.97949 65.1768C8.22943 64.6768 11.1043 64.0518 13.8543 63.6768M13.8543 63.6768C16.6044 63.3018 19.2294 63.1768 20.9795 63.6768C23.9795 65.1768 29.4795 70.1768 31.9795 74.1768C26.9795 75.1768 19.9795 74.6768 15.4795 74.6768C12.7869 74.6768 11.4795 72.3434 11.4795 71.1768C10.9795 68.1768 12.2293 65.0101 13.8543 63.6768Z" stroke="black" stroke-width="0.5"/>
<path d="M11.4795 70.6768C19.4795 69.1769 22.9795 71.8054 25.9795 73.3054M12.9795 73.6769L30.4795 73.1769" stroke="black" stroke-width="0.5"/>
<path d="M21.9775 82.1768H31.4775C33.4775 82.1768 34.9775 80.1768 34.4775 79.1768M37.9775 79.1768V83.6768" stroke="black" stroke-width="0.5"/>
<path d="M21.9794 80.677C17.4794 80.677 12.9794 81.177 1.47944 78.177V76.177L5.47944 74.177V72.677L1.47944 72.177C0.978516 70.6768 -0.0212885 67.6768 1.97871 65.1768C1.47895 57.1768 1.97895 50.6768 3.97944 47.6765C36.4794 28.1769 58.4794 34.1769 84.4794 29.6769C162.479 -25.3232 244.479 11.6767 281.479 26.1769L294.979 28.1768L295.479 35.1768V38.1768C296.978 43.1768 298.313 47.6768 296.979 49.6768C299.479 50.6768 301.979 53.8434 301.979 55.6768L299.979 65.6768C300.431 76.5247 298.023 76.7489 288.692 77.0614C287.701 77.0946 285.632 77.1288 284.479 77.1768V78.6768L259.479 79.1078M21.9794 80.677V83.677H39.9778L39.4794 79.177M21.9794 80.677V79.177H39.4794M39.4794 79.177C36.4794 37.677 89.9794 40.677 86.4794 79.677V82.1768H212.979C206.979 38.6768 261.479 38.6768 259.479 79.1078M258.978 79.1078H259.479" stroke="black"/>
</svg>
