<svg width="303" height="96" viewBox="0 0 303 96" fill="none" xmlns="http://www.w3.org/2000/svg">
<circle cx="62.4897" cy="74.3838" r="20.5" fill="#E0426F" stroke="black"/>
<circle cx="235.49" cy="74.3838" r="20.5" fill="#E0426F" stroke="black"/>
<path d="M132.488 12.8836L130.988 9.38364C170.988 1.38376 192.488 1.88379 231.488 13.3837L227.988 17.8837C207.988 9.8837 189.988 8.8837 173.988 8.38377C171.488 7.88377 167.488 7.88373 164.988 8.38364C154.988 8.38377 142.988 9.88377 132.488 12.8836Z" fill="#E56E90" stroke="black" stroke-width="0.5"/>
<path d="M130.988 9.38383L130.488 7.88383C166.488 -3.11621 198.988 0.883663 234.488 9.88383L231.488 13.3838C191.488 0.883789 165.488 2.38379 130.988 9.38383Z" fill="#E56E90" stroke="black" stroke-width="0.5"/>
<path d="M130.988 9.3839C182.488 -2.11613 210.988 7.88391 231.488 13.3839" stroke="black" stroke-width="0.5"/>
<path d="M170.49 30.3838L173.99 8.38379C207.49 9.38379 218.99 14.8838 223.49 16.3838L225.973 28.3838C198.982 28.3844 181.487 29.8839 170.49 30.3838Z" fill="#E56E90"/>
<path d="M226.49 30.8838L223.49 16.3838C218.99 14.8838 207.49 9.38379 173.99 8.38379L170.49 30.3838C181.49 29.8838 198.99 28.3838 225.99 28.3838" stroke="black" stroke-width="0.5"/>
<path d="M164.99 8.38379C131.99 9.38379 111.99 18.3838 92.9897 35.8838L95.4897 33.8838L159.49 30.8838L164.99 8.38379Z" fill="#E56E90" stroke="black" stroke-width="0.5"/>
<path d="M239.488 22.8838C235.822 20.2171 229.988 17.8838 223.488 16.3838L225.988 28.3838H232.488C235.488 26.8838 238.488 24.6525 239.488 22.8838Z" fill="#E56E90" stroke="black" stroke-width="0.5"/>
<path d="M96.4897 78.8838H163.49L197.99 77.3838H212.49L212.99 82.8838H198.99H97.9897H86.4897V78.8838H96.4897Z" fill="#E56E90"/>
<path d="M96.4897 78.8838H163.49L197.99 77.3838M96.4897 78.8838C96.4897 80.3838 96.9897 81.3838 97.9897 82.8838M96.4897 78.8838H86.4897V82.8838H97.9897M197.99 77.3838L198.99 82.8838M197.99 77.3838H212.49L212.99 82.8838H198.99M198.99 82.8838H97.9897" stroke="black" stroke-width="0.5"/>
<path d="M96.4889 78.8838C91.9897 74.3838 88.9898 52.3838 92.9889 35.8838L164.99 31.8838C160.99 36.8838 159.99 70.8838 163.49 78.8838H96.4889Z" fill="#E56E90" stroke="black" stroke-width="0.5"/>
<path d="M228.489 30.8838L164.989 31.8838C160.989 36.8838 159.99 70.8838 163.489 78.8838L197.989 77.3838C202.489 75.8838 208.989 70.3838 228.489 30.8838Z" fill="#E56E90" stroke="black" stroke-width="0.5"/>
<path d="M170.49 30.3839C165.99 30.8839 162.49 30.8839 159.49 30.8839L164.99 8.38386C167.99 7.88379 170.99 7.88379 173.99 8.38386L170.49 30.3839Z" fill="#E56E90" stroke="black" stroke-width="0.5"/>
<path d="M98.9897 32.384C103.49 37.884 110.49 34.384 114.49 32.884C115.49 17.3839 102.49 25.3839 98.9897 32.384Z" fill="#E56E90" stroke="black" stroke-width="0.5"/>
<path d="M234.488 9.88379L231.488 13.3838C248.488 18.8838 258.988 21.8838 271.488 28.3838H272.988L280.988 26.8838C265.988 20.3838 258.488 17.8838 234.488 9.88379Z" stroke="black" stroke-width="0.5"/>
<path d="M271.488 28.3838C260.988 22.8838 241.988 16.3838 231.488 13.3838L229.488 15.8838L244.488 23.3838C242.988 25.8838 238.988 27.8838 232.988 30.5838C244.988 29.8838 261.988 28.8838 271.488 28.3838Z" stroke="black" stroke-width="0.5"/>
<path d="M276.99 34.6838L282.988 32.3838L272.489 28.3838L228.489 30.8838C220.989 45.8838 205.989 76.3838 197.989 77.3838H212.489C210.989 66.3838 220.489 42.8838 245.49 51.8838C255.99 46.3838 265.99 40.8838 276.99 34.6838Z" stroke="black" stroke-width="0.5"/>
<path d="M277.988 34.3838C265.988 40.8838 255.988 46.3838 245.488 51.8838C249.988 54.8838 260.488 60.8838 259.488 79.8838L284.488 79.3838V77.8838C292.988 76.8838 301.488 80.3838 299.988 66.3838L301.988 56.3838C301.988 54.8838 299.488 50.8838 296.988 50.3838C298.488 47.8838 295.488 38.8838 295.488 38.8838V37.3838L291.488 34.3838L286.488 32.8838L282.988 32.3838L277.988 34.3838Z" stroke="black" stroke-width="0.5"/>
<path d="M295.488 37.3838L295.482 37.304M295.482 37.304L294.988 28.8838L280.988 26.8838L272.488 28.3838L282.988 32.3838C292.488 33.3838 291.487 34.8838 295.482 37.304Z" stroke="black" stroke-width="0.5"/>
<path d="M293.99 36.884C293.49 34.3839 282.49 34.1838 276.99 34.6838" stroke="black" stroke-width="0.5"/>
<path d="M299.99 66.8838L260.49 68.8838C259.99 63.8838 257.823 59.7171 255.99 57.8838L301.99 55.3838M300.49 52.8838C289.49 51.3838 278.49 46.5838 266.49 40.5838M228.49 30.8838L272.49 28.3838L280.99 26.8838" stroke="black" stroke-width="0.5"/>
<path d="M272.49 43.3838C279.485 43.7336 285.502 43.8387 290.883 44.3838M297.49 45.3838C295.387 44.9331 293.194 44.6179 290.883 44.3838M295.49 37.8838C295.072 37.2987 294.603 36.7694 294.099 36.2938M290.883 44.3838C290.557 44.039 290.463 43.516 290.448 42.8838M290.448 42.8838C290.434 42.2935 290.49 41.6081 290.49 40.8838C290.49 38.8838 289.49 34.8838 285.99 32.8838C288.211 32.8838 291.587 33.9242 294.099 36.2938M290.448 42.8838C293.49 41.3838 294.562 37.8238 294.099 36.2938" stroke="black" stroke-width="0.5"/>
<path d="M290.49 40.8838C285.99 40.8838 283.99 36.8838 282.99 34.3838" stroke="black" stroke-width="0.5"/>
<path d="M132.488 12.9838C118.988 16.9838 106.988 22.8838 92.9883 35.8838C99.9883 23.8838 115.488 14.3838 130.988 9.38379L132.488 12.9838Z" fill="#E0426F" stroke="black" stroke-width="0.5"/>
<path d="M130.988 9.38379C110.988 15.0578 92.9883 32.3838 84.9883 30.3838C97.9883 20.8838 113.988 12.3838 130.488 7.88379L130.988 9.38379Z" fill="#E0426F" stroke="black" stroke-width="0.5"/>
<path d="M9.98895 48.3837H3.98895C1.48828 52.3837 1.48828 62.3837 1.98895 65.8837C0.488281 66.8837 0.488879 71.3837 1.48895 72.8837L5.48895 73.3837V74.8837L1.48895 76.8837V78.8837C5.48895 79.8837 13.9889 81.8837 21.9889 81.3837V79.8837H39.4889C38.8223 71.3837 40.4889 60.8837 49.4889 53.8837C46.9889 49.8837 39.9889 45.3837 36.9889 44.8837C26.9889 43.8837 11.9889 46.3837 9.98895 48.3837Z" fill="#E0426F" stroke="black" stroke-width="0.5"/>
<path d="M92.9897 35.8838C75.1564 36.7171 43.4897 41.5838 32.9897 44.5838L36.9897 44.8838C41.9897 46.3838 47.4897 50.7171 49.4897 53.8838C62.4888 44.3838 87.9888 51.3838 86.4888 78.8838H96.4888C89.4888 67.8838 90.4888 45.8838 92.9897 35.8838Z" fill="#E0426F" stroke="black" stroke-width="0.5"/>
<path d="M9.98828 48.3838H3.98828C36.4885 28.8837 58.4885 34.8838 84.4883 30.3838L93.4885 35.8838C76.4885 36.8838 47.4883 40.3838 33.4883 44.5838C25.4883 44.3838 11.4883 46.3838 9.98828 48.3838Z" fill="#E0426F" stroke="black" stroke-width="0.5"/>
<path d="M36.9897 44.8839C29.4897 43.8838 12.4897 45.8838 9.98974 48.3839C9.18974 50.7838 12.3231 53.7171 13.9897 54.8838C23.4897 56.3838 36.9897 50.3838 36.9897 44.8839Z" fill="#E0426F" stroke="black" stroke-width="0.5"/>
<path d="M3.98898 48.3838C10.989 49.3838 4.98898 59.8838 1.98898 64.8838C1.48891 57.8838 1.98877 52.3838 3.98898 48.3838Z" fill="#E0426F" stroke="black" stroke-width="0.5"/>
<path d="M21.9883 84.3838V79.8838H39.4883L39.9883 84.3838H21.9883Z" fill="#E0426F" stroke="black" stroke-width="0.5"/>
<path d="M2.49023 65.8838C3.99023 68.3838 5.99023 71.5505 5.49023 73.3838M21.9902 79.8838C11.4902 80.3838 6.99023 76.3838 7.99023 72.8838C8.49023 72.3838 9.99023 70.8838 10.9902 70.8838" stroke="black" stroke-width="0.5"/>
<path d="M31.9902 74.8839C29.4902 70.8839 23.9902 65.884 20.9902 64.384C19.2402 63.884 16.6151 64.009 13.865 64.384C12.2401 65.7173 10.9902 68.8839 11.4902 71.8839C11.4902 73.0506 12.7977 75.3839 15.4902 75.3839C19.9902 75.3839 26.9902 75.8839 31.9902 74.8839Z" fill="#E0426F"/>
<path d="M5.99023 65.884C8.24018 65.384 11.1151 64.759 13.865 64.384M13.865 64.384C16.6151 64.009 19.2402 63.884 20.9902 64.384C23.9902 65.884 29.4902 70.8839 31.9902 74.8839C26.9902 75.8839 19.9902 75.3839 15.4902 75.3839C12.7977 75.3839 11.4902 73.0506 11.4902 71.8839C10.9902 68.8839 12.2401 65.7173 13.865 64.384Z" stroke="black" stroke-width="0.5"/>
<path d="M11.4902 71.384C19.4902 69.884 22.9902 72.5125 25.9902 74.0125M12.9902 74.384L30.4902 73.884" stroke="black" stroke-width="0.5"/>
<path d="M21.9883 82.8838H31.4883C33.4883 82.8838 34.9883 80.8838 34.4883 79.8838M37.9883 79.8838V84.3838" stroke="black" stroke-width="0.5"/>
<path d="M21.9897 81.384C17.4897 81.384 12.9897 81.884 1.48969 78.884V76.884L5.48969 74.884V73.384L1.48969 72.884C0.98877 71.3838 -0.0110346 68.3838 1.98896 65.8838C1.4892 57.8838 1.9892 51.3838 3.98969 48.3835C36.4897 28.8839 58.4897 34.884 84.4897 30.384C162.49 -24.6161 244.49 12.3838 281.49 26.884L294.99 28.8838L295.49 35.8838V38.8838C296.988 43.8838 298.323 48.3838 296.99 50.3838C299.49 51.3838 301.99 54.5505 301.99 56.3838L299.99 66.3838C300.442 77.2317 298.034 77.456 288.702 77.7684C287.711 77.8016 285.642 77.8358 284.49 77.8838V79.3838L259.49 79.8148M21.9897 81.384V84.384H39.988L39.4897 79.884M21.9897 81.384V79.884H39.4897M39.4897 79.884C36.4897 38.384 89.9897 41.384 86.4897 80.384V82.8838H212.99C206.99 39.3838 261.49 39.3838 259.49 79.8148M258.988 79.8148H259.49" stroke="black"/>
</svg>
