<svg width="303" height="96" viewBox="0 0 303 96" fill="none" xmlns="http://www.w3.org/2000/svg">
<circle cx="62.8955" cy="74.0303" r="20.5" fill="#EFC7D3" stroke="black"/>
<circle cx="235.896" cy="74.0303" r="20.5" fill="#EFC7D3" stroke="black"/>
<path d="M132.894 12.5301L131.394 9.03013C171.394 1.03024 192.894 1.53027 231.894 13.0302L228.394 17.5302C208.394 9.53018 190.394 8.53018 174.394 8.03025C171.894 7.53025 167.894 7.53021 165.394 8.03013C155.394 8.03025 143.394 9.53025 132.894 12.5301Z" fill="#EDADBF" stroke="black" stroke-width="0.5"/>
<path d="M131.394 9.03032L130.894 7.53032C166.894 -3.46973 199.394 0.530148 234.894 9.53032L231.894 13.0303C191.894 0.530273 165.894 2.03027 131.394 9.03032Z" fill="#EDADBF" stroke="black" stroke-width="0.5"/>
<path d="M131.394 9.03038C182.894 -2.46964 211.394 7.5304 231.894 13.0304" stroke="black" stroke-width="0.5"/>
<path d="M170.896 30.0303L174.396 8.03027C207.896 9.03027 219.396 14.5303 223.896 16.0303L226.378 28.0303C199.388 28.0309 181.893 29.5304 170.896 30.0303Z" fill="#EDADBF"/>
<path d="M226.896 30.5303L223.896 16.0303C219.396 14.5303 207.896 9.03027 174.396 8.03027L170.896 30.0303C181.896 29.5303 199.396 28.0303 226.396 28.0303" stroke="black" stroke-width="0.5"/>
<path d="M165.396 8.03027C132.396 9.03027 112.396 18.0303 93.3955 35.5303L95.8955 33.5303L159.896 30.5303L165.396 8.03027Z" fill="#EDADBF" stroke="black" stroke-width="0.5"/>
<path d="M239.894 22.5303C236.227 19.8636 230.394 17.5303 223.894 16.0303L226.394 28.0303H232.894C235.894 26.5303 238.894 24.299 239.894 22.5303Z" fill="#EDADBF" stroke="black" stroke-width="0.5"/>
<path d="M96.8955 78.5303H163.896L198.396 77.0303H212.896L213.396 82.5303H199.396H98.3955H86.8955V78.5303H96.8955Z" fill="#EDADBF"/>
<path d="M96.8955 78.5303H163.896L198.396 77.0303M96.8955 78.5303C96.8955 80.0303 97.3955 81.0303 98.3955 82.5303M96.8955 78.5303H86.8955V82.5303H98.3955M198.396 77.0303L199.396 82.5303M198.396 77.0303H212.896L213.396 82.5303H199.396M199.396 82.5303H98.3955" stroke="black" stroke-width="0.5"/>
<path d="M96.8946 78.5303C92.3955 74.0303 89.3956 52.0303 93.3946 35.5303L165.396 31.5303C161.396 36.5303 160.396 70.5303 163.896 78.5303H96.8946Z" fill="#EDADBF" stroke="black" stroke-width="0.5"/>
<path d="M228.895 30.5303L165.395 31.5303C161.396 36.5303 160.396 70.5303 163.895 78.5303L198.395 77.0303C202.895 75.5303 209.395 70.0303 228.895 30.5303Z" fill="#EDADBF" stroke="black" stroke-width="0.5"/>
<path d="M170.896 30.0303C166.396 30.5303 162.896 30.5303 159.896 30.5303L165.396 8.03035C168.396 7.53027 171.396 7.53027 174.396 8.03035L170.896 30.0303Z" fill="#EDADBF" stroke="black" stroke-width="0.5"/>
<path d="M99.3955 32.0305C103.896 37.5305 110.896 34.0305 114.896 32.5305C115.896 17.0304 102.896 25.0304 99.3955 32.0305Z" fill="#EDADBF" stroke="black" stroke-width="0.5"/>
<path d="M234.894 9.53027L231.894 13.0303C248.894 18.5303 259.394 21.5303 271.894 28.0303H273.394L281.394 26.5303C266.394 20.0303 258.894 17.5303 234.894 9.53027Z" stroke="black" stroke-width="0.5"/>
<path d="M271.894 28.0303C261.394 22.5303 242.394 16.0303 231.894 13.0303L229.894 15.5303L244.894 23.0303C243.394 25.5303 239.394 27.5303 233.394 30.2303C245.394 29.5303 262.394 28.5303 271.894 28.0303Z" stroke="black" stroke-width="0.5"/>
<path d="M277.396 34.3303L283.394 32.0303L272.895 28.0303L228.895 30.5303C221.395 45.5303 206.395 76.0303 198.395 77.0303H212.895C211.395 66.0303 220.895 42.5303 245.896 51.5303C256.396 46.0303 266.396 40.5303 277.396 34.3303Z" stroke="black" stroke-width="0.5"/>
<path d="M278.394 34.0303C266.394 40.5303 256.394 46.0303 245.894 51.5303C250.394 54.5303 260.894 60.5303 259.894 79.5303L284.894 79.0303V77.5303C293.394 76.5303 301.894 80.0303 300.394 66.0303L302.394 56.0303C302.394 54.5303 299.894 50.5303 297.394 50.0303C298.894 47.5303 295.894 38.5303 295.894 38.5303V37.0303L291.894 34.0303L286.894 32.5303L283.394 32.0303L278.394 34.0303Z" stroke="black" stroke-width="0.5"/>
<path d="M295.894 37.0303L295.888 36.9505M295.888 36.9505L295.394 28.5303L281.394 26.5303L272.894 28.0303L283.394 32.0303C292.894 33.0303 291.892 34.5303 295.888 36.9505Z" stroke="black" stroke-width="0.5"/>
<path d="M294.396 36.5305C293.896 34.0304 282.896 33.8303 277.396 34.3303" stroke="black" stroke-width="0.5"/>
<path d="M300.396 66.5303L260.896 68.5303C260.396 63.5303 258.229 59.3636 256.396 57.5303L302.396 55.0303M300.896 52.5303C289.896 51.0303 278.896 46.2303 266.896 40.2303M228.896 30.5303L272.896 28.0303L281.396 26.5303" stroke="black" stroke-width="0.5"/>
<path d="M272.896 43.0303C279.891 43.3801 285.908 43.4851 291.289 44.0303M297.896 45.0303C295.793 44.5796 293.599 44.2644 291.289 44.0303M295.896 37.5303C295.478 36.9451 295.008 36.4159 294.504 35.9403M291.289 44.0303C290.962 43.6855 290.868 43.1625 290.854 42.5303M290.854 42.5303C290.84 41.94 290.896 41.2546 290.896 40.5303C290.896 38.5303 289.896 34.5303 286.396 32.5303C288.616 32.5303 291.993 33.5707 294.504 35.9403M290.854 42.5303C293.896 41.0303 294.968 37.4703 294.504 35.9403" stroke="black" stroke-width="0.5"/>
<path d="M290.896 40.5303C286.396 40.5303 284.396 36.5303 283.396 34.0303" stroke="black" stroke-width="0.5"/>
<path d="M132.894 12.6302C119.394 16.6302 107.394 22.5303 93.394 35.5303C100.394 23.5303 115.894 14.0303 131.394 9.03027L132.894 12.6302Z" fill="#EFC7D3" stroke="black" stroke-width="0.5"/>
<path d="M131.394 9.03027C111.394 14.7043 93.394 32.0303 85.394 30.0303C98.394 20.5303 114.394 12.0303 130.894 7.53027L131.394 9.03027Z" fill="#EFC7D3" stroke="black" stroke-width="0.5"/>
<path d="M10.3947 48.0302H4.39471C1.89404 52.0302 1.89404 62.0302 2.39471 65.5302C0.894043 66.5302 0.89464 71.0302 1.89471 72.5302L5.89471 73.0302V74.5302L1.89471 76.5302V78.5302C5.89471 79.5302 14.3947 81.5302 22.3947 81.0302V79.5302H39.8947C39.228 71.0302 40.8947 60.5302 49.8947 53.5302C47.3947 49.5302 40.3947 45.0302 37.3947 44.5302C27.3947 43.5302 12.3947 46.0302 10.3947 48.0302Z" fill="#EFC7D3" stroke="black" stroke-width="0.5"/>
<path d="M93.3955 35.5303C75.5622 36.3636 43.8955 41.2303 33.3955 44.2303L37.3955 44.5303C42.3955 46.0303 47.8955 50.3636 49.8955 53.5303C62.8945 44.0303 88.3945 51.0303 86.8945 78.5303H96.8945C89.8945 67.5303 90.8945 45.5303 93.3955 35.5303Z" fill="#EFC7D3" stroke="black" stroke-width="0.5"/>
<path d="M10.3936 48.0303H4.39355C36.8937 28.5302 58.8938 34.5303 84.8936 30.0303L93.8938 35.5303C76.8938 36.5303 47.8936 40.0303 33.8936 44.2303C25.8936 44.0303 11.8936 46.0303 10.3936 48.0303Z" fill="#EFC7D3" stroke="black" stroke-width="0.5"/>
<path d="M37.3955 44.5303C29.8955 43.5303 12.8955 45.5303 10.3955 48.0303C9.5955 50.4303 12.7288 53.3636 14.3955 54.5303C23.8955 56.0303 37.3955 50.0303 37.3955 44.5303Z" fill="#EFC7D3" stroke="black" stroke-width="0.5"/>
<path d="M4.39474 48.0303C11.3947 49.0303 5.39474 59.5303 2.39474 64.5303C1.89467 57.5303 2.39453 52.0303 4.39474 48.0303Z" fill="#EFC7D3" stroke="black" stroke-width="0.5"/>
<path d="M22.394 84.0303V79.5303H39.894L40.394 84.0303H22.394Z" fill="#EFC7D3" stroke="black" stroke-width="0.5"/>
<path d="M2.89551 65.5303C4.39551 68.0303 6.39551 71.1969 5.89551 73.0303M22.3955 79.5303C11.8955 80.0303 7.39551 76.0303 8.39551 72.5303C8.89551 72.0303 10.3955 70.5303 11.3955 70.5303" stroke="black" stroke-width="0.5"/>
<path d="M32.3955 74.5304C29.8955 70.5304 24.3955 65.5305 21.3955 64.0305C19.6455 63.5305 17.0204 63.6555 14.2703 64.0305C12.6454 65.3638 11.3955 68.5304 11.8955 71.5304C11.8955 72.6971 13.2029 75.0304 15.8955 75.0304C20.3955 75.0304 27.3955 75.5304 32.3955 74.5304Z" fill="#EFC7D3"/>
<path d="M6.39551 65.5305C8.64545 65.0304 11.5204 64.4055 14.2703 64.0305M14.2703 64.0305C17.0204 63.6555 19.6455 63.5305 21.3955 64.0305C24.3955 65.5305 29.8955 70.5304 32.3955 74.5304C27.3955 75.5304 20.3955 75.0304 15.8955 75.0304C13.2029 75.0304 11.8955 72.6971 11.8955 71.5304C11.3955 68.5304 12.6454 65.3638 14.2703 64.0305Z" stroke="black" stroke-width="0.5"/>
<path d="M11.8955 71.0305C19.8955 69.5305 23.3955 72.159 26.3955 73.659M13.3955 74.0305L30.8955 73.5305" stroke="black" stroke-width="0.5"/>
<path d="M22.3936 82.5303H31.8936C33.8936 82.5303 35.3936 80.5303 34.8936 79.5303M38.3936 79.5303V84.0303" stroke="black" stroke-width="0.5"/>
<path d="M22.3955 81.0305C17.8955 81.0305 13.3955 81.5305 1.89545 78.5305V76.5305L5.89545 74.5305V73.0305L1.89545 72.5305C1.39453 71.0303 0.394727 68.0303 2.39472 65.5303C1.89497 57.5303 2.39497 51.0303 4.39545 48.03C36.8955 28.5304 58.8954 34.5305 84.8954 30.0305C162.895 -24.9697 244.895 12.0303 281.895 26.5305L295.395 28.5303L295.895 35.5303V38.5303C297.394 43.5303 298.729 48.0303 297.395 50.0303C299.895 51.0303 302.395 54.1969 302.395 56.0303L300.395 66.0303C300.847 76.8782 298.439 77.1025 289.108 77.4149C288.117 77.4481 286.048 77.4823 284.895 77.5303V79.0303L259.895 79.4613M22.3955 81.0305V84.0305H40.3938L39.8955 79.5305M22.3955 81.0305V79.5305H39.8955M39.8955 79.5305C36.8955 38.0305 90.3954 41.0305 86.8954 80.0305V82.5303H213.395C207.395 39.0303 261.895 39.0303 259.895 79.4613M259.394 79.4613H259.895" stroke="black"/>
</svg>
