<svg width="303" height="95" viewBox="0 0 303 95" fill="none" xmlns="http://www.w3.org/2000/svg">
<circle cx="62.6562" cy="73.8914" r="20.5" stroke="black"/>
<circle cx="235.656" cy="73.8914" r="20.5" stroke="black"/>
<path d="M132.654 12.3912L131.154 8.89121C171.154 0.891325 192.654 1.39136 231.654 12.8913L228.154 17.3913C208.154 9.39127 190.154 8.39127 174.154 7.89133C171.654 7.39133 167.654 7.3913 165.154 7.89121C155.154 7.89133 143.154 9.39134 132.654 12.3912Z" fill="#E0426F" stroke="black" stroke-width="0.5"/>
<path d="M131.154 8.8914L130.654 7.3914C166.654 -3.60864 199.154 0.391232 234.654 9.3914L231.654 12.8914C191.654 0.391357 165.654 1.89136 131.154 8.8914Z" fill="#E0426F" stroke="black" stroke-width="0.5"/>
<path d="M131.154 8.89122C182.654 -2.6088 211.154 7.39124 231.654 12.8912" stroke="black" stroke-width="0.5"/>
<path d="M170.656 29.8914L174.156 7.89136C207.656 8.89136 219.156 14.3914 223.656 15.8914L226.139 27.8914C199.149 27.892 181.654 29.3915 170.656 29.8914Z" fill="#E0426F"/>
<path d="M226.656 30.3914L223.656 15.8914C219.156 14.3914 207.656 8.89136 174.156 7.89136L170.656 29.8914C181.656 29.3914 199.156 27.8914 226.156 27.8914" stroke="black" stroke-width="0.5"/>
<path d="M165.156 7.89136C132.156 8.89136 112.156 17.8914 93.1562 35.3914L95.6562 33.3914L159.656 30.3914L165.156 7.89136Z" fill="#E0426F" stroke="black" stroke-width="0.5"/>
<path d="M239.654 22.3914C235.988 19.7247 230.154 17.3914 223.654 15.8914L226.154 27.8914H232.654C235.654 26.3914 238.654 24.1601 239.654 22.3914Z" fill="#E0426F" stroke="black" stroke-width="0.5"/>
<path d="M96.6562 78.3914H163.656L198.156 76.8914H212.656L213.156 82.3914H199.156H98.1562H86.6562V78.3914H96.6562Z" fill="#E0426F"/>
<path d="M96.6562 78.3914H163.656L198.156 76.8914M96.6562 78.3914C96.6562 79.8914 97.1562 80.8914 98.1562 82.3914M96.6562 78.3914H86.6562V82.3914H98.1562M198.156 76.8914L199.156 82.3914M198.156 76.8914H212.656L213.156 82.3914H199.156M199.156 82.3914H98.1562" stroke="black" stroke-width="0.5"/>
<path d="M96.6554 78.3914C92.1562 73.8914 89.1563 51.8914 93.1554 35.3914L165.156 31.3914C161.156 36.3914 160.156 70.3914 163.656 78.3914H96.6554Z" fill="#E0426F" stroke="black" stroke-width="0.5"/>
<path d="M228.656 30.3914L165.156 31.3914C161.156 36.3914 160.156 70.3914 163.656 78.3914L198.156 76.8914C202.656 75.3914 209.156 69.8914 228.656 30.3914Z" fill="#E0426F" stroke="black" stroke-width="0.5"/>
<path d="M170.656 29.8914C166.156 30.3914 162.656 30.3914 159.656 30.3914L165.156 7.89143C168.156 7.39136 171.156 7.39136 174.156 7.89143L170.656 29.8914Z" fill="#E0426F" stroke="black" stroke-width="0.5"/>
<path d="M99.1562 31.8914C103.656 37.3914 110.656 33.8914 114.656 32.3914C115.656 16.8913 102.656 24.8912 99.1562 31.8914Z" fill="#E0426F" stroke="black" stroke-width="0.5"/>
<path d="M234.654 9.39136L231.654 12.8914C248.654 18.3914 259.154 21.3914 271.654 27.8914H273.154L281.154 26.3914C266.154 19.8914 258.654 17.3914 234.654 9.39136Z" fill="#E0426F" stroke="black" stroke-width="0.5"/>
<path d="M271.654 27.8914C261.154 22.3914 242.154 15.8914 231.654 12.8914L229.654 15.3914L244.654 22.8914C243.154 25.3914 239.154 27.3914 233.154 30.0914C245.154 29.3914 262.154 28.3914 271.654 27.8914Z" fill="#E0426F" stroke="black" stroke-width="0.5"/>
<path d="M277.156 34.1914L283.155 31.8914L272.655 27.8914L228.655 30.3914C221.155 45.3914 206.155 75.8914 198.155 76.8914H212.655C211.155 65.8914 220.655 42.3914 245.656 51.3914C256.156 45.8914 266.156 40.3914 277.156 34.1914Z" fill="#E0426F" stroke="black" stroke-width="0.5"/>
<path d="M278.154 33.8914C266.154 40.3914 256.154 45.8914 245.654 51.3914C250.154 54.3914 260.654 60.3914 259.654 79.3914L284.654 78.8914V77.3914C293.154 76.3914 301.654 79.8914 300.154 65.8914L302.154 55.8914C302.154 54.3914 299.654 50.3914 297.154 49.8914C298.654 47.3914 295.654 38.3914 295.654 38.3914V36.8914L291.654 33.8914L286.654 32.3914L283.154 31.8914L278.154 33.8914Z" fill="#E0426F" stroke="black" stroke-width="0.5"/>
<path d="M281.154 26.3914L272.654 27.8914L283.154 31.8914C292.654 32.8914 291.653 34.3914 295.648 36.8115L295.154 28.3914L281.154 26.3914Z" fill="#E0426F"/>
<path d="M295.654 36.8914L295.648 36.8115M295.648 36.8115L295.154 28.3914L281.154 26.3914L272.654 27.8914L283.154 31.8914C292.654 32.8914 291.653 34.3914 295.648 36.8115Z" stroke="black" stroke-width="0.5"/>
<path d="M294.156 36.3916C293.656 33.8914 282.656 33.6914 277.156 34.1914" stroke="black" stroke-width="0.5"/>
<path d="M300.156 66.3914L260.656 68.3914C260.156 63.3914 257.99 59.2247 256.156 57.3914L302.156 54.8914M300.656 52.3914C289.656 50.8914 278.656 46.0914 266.656 40.0914M228.656 30.3914L272.656 27.8914L281.156 26.3914" stroke="black" stroke-width="0.5"/>
<path d="M290.656 40.3914C290.656 38.3914 289.656 34.3914 286.156 32.3914C288.377 32.3914 291.754 33.4317 294.265 35.8013C294.729 37.3313 293.656 40.8914 290.614 42.3914C290.601 41.8011 290.656 41.1156 290.656 40.3914Z" fill="#E0426F"/>
<path d="M272.656 42.8914C279.652 43.2411 285.669 43.3462 291.049 43.8914M297.656 44.8914C295.553 44.4407 293.36 44.1255 291.049 43.8914M295.656 37.3914C295.238 36.8062 294.769 36.277 294.265 35.8013M291.049 43.8914C290.723 43.5466 290.629 43.0235 290.614 42.3914M290.614 42.3914C290.601 41.8011 290.656 41.1156 290.656 40.3914C290.656 38.3914 289.656 34.3914 286.156 32.3914C288.377 32.3914 291.754 33.4317 294.265 35.8013M290.614 42.3914C293.656 40.8914 294.729 37.3313 294.265 35.8013" stroke="black" stroke-width="0.5"/>
<path d="M290.656 40.3914C286.156 40.3914 284.156 36.3914 283.156 33.8914" stroke="black" stroke-width="0.5"/>
<path d="M132.654 12.4913C119.154 16.4913 107.154 22.3914 93.1543 35.3914C100.154 23.3914 115.654 13.8914 131.154 8.89136L132.654 12.4913Z" fill="#EDADBF" stroke="black" stroke-width="0.5"/>
<path d="M131.154 8.89136C111.154 14.5654 93.1543 31.8914 85.1543 29.8914C98.1543 20.3914 114.154 11.8914 130.654 7.39136L131.154 8.89136Z" fill="#EDADBF" stroke="black" stroke-width="0.5"/>
<path d="M10.155 47.8912H4.15496C1.6543 51.8912 1.6543 61.8912 2.15496 65.3912C0.654297 66.3912 0.654894 70.8912 1.65496 72.3912L5.65496 72.8912V74.3912L1.65496 76.3912V78.3912C5.65496 79.3912 14.155 81.3912 22.155 80.8912V79.3912H39.655C38.9883 70.8912 40.655 60.3912 49.655 53.3912C47.155 49.3912 40.155 44.8912 37.155 44.3912C27.155 43.3912 12.155 45.8912 10.155 47.8912Z" fill="#EDADBF" stroke="black" stroke-width="0.5"/>
<path d="M93.1562 35.3914C75.3229 36.2247 43.6562 41.0914 33.1562 44.0914L37.1562 44.3914C42.1562 45.8914 47.6562 50.2247 49.6562 53.3914C62.6553 43.8914 88.1553 50.8914 86.6553 78.3914H96.6553C89.6553 67.3914 90.6553 45.3914 93.1562 35.3914Z" fill="#EDADBF" stroke="black" stroke-width="0.5"/>
<path d="M10.1543 47.8914H4.1543C36.6545 28.3913 58.6545 34.3914 84.6543 29.8914L93.6545 35.3914C76.6545 36.3914 47.6543 39.8914 33.6543 44.0914C25.6543 43.8913 11.6543 45.8914 10.1543 47.8914Z" fill="#EDADBF" stroke="black" stroke-width="0.5"/>
<path d="M37.1558 44.3914C29.6558 43.3914 12.6558 45.3914 10.1558 47.8914C9.35575 50.2914 12.4891 53.2247 14.1558 54.3914C23.6558 55.8914 37.1558 49.8914 37.1558 44.3914Z" fill="#EDADBF" stroke="black" stroke-width="0.5"/>
<path d="M4.15499 47.8914C11.155 48.8914 5.15499 59.3914 2.15499 64.3914C1.65492 57.3914 2.15479 51.8914 4.15499 47.8914Z" fill="#EDADBF" stroke="black" stroke-width="0.5"/>
<path d="M22.1543 83.8914V79.3914H39.6543L40.1543 83.8914H22.1543Z" fill="#EDADBF" stroke="black" stroke-width="0.5"/>
<path d="M2.65625 65.3911C4.15625 67.8911 6.15625 71.0578 5.65625 72.8911M22.1562 79.3911C11.6562 79.8911 7.15625 75.8911 8.15625 72.3911C8.65625 71.8911 10.1562 70.3911 11.1562 70.3911" stroke="black" stroke-width="0.5"/>
<path d="M32.1562 74.3912C29.6562 70.3912 24.1562 65.3913 21.1562 63.8913C19.4062 63.3913 16.7811 63.5163 14.031 63.8913C12.4061 65.2246 11.1562 68.3912 11.6562 71.3912C11.6562 72.5579 12.9637 74.8912 15.6562 74.8912C20.1562 74.8912 27.1562 75.3912 32.1562 74.3912Z" fill="#EDADBF"/>
<path d="M6.15625 65.3913C8.40619 64.8913 11.2811 64.2663 14.031 63.8913M14.031 63.8913C16.7811 63.5163 19.4062 63.3913 21.1562 63.8913C24.1562 65.3913 29.6562 70.3912 32.1562 74.3912C27.1562 75.3912 20.1562 74.8912 15.6562 74.8912C12.9637 74.8912 11.6562 72.5579 11.6562 71.3912C11.1562 68.3912 12.4061 65.2246 14.031 63.8913Z" stroke="black" stroke-width="0.5"/>
<path d="M11.6562 70.8913C19.6562 69.3914 23.1562 72.0198 26.1562 73.5198M13.1562 73.8914L30.6562 73.3914" stroke="black" stroke-width="0.5"/>
<path d="M22.1543 82.3911H31.6543C33.6543 82.3911 35.1543 80.3911 34.6543 79.3911M38.1543 79.3911V83.8911" stroke="black" stroke-width="0.5"/>
<path d="M22.1562 80.8916C17.6562 80.8916 13.1562 81.3916 1.6562 78.3916V76.3916L5.6562 74.3916V72.8916L1.6562 72.3916C1.15527 70.8914 0.155469 67.8914 2.15546 65.3914C1.65571 57.3914 2.15571 50.8914 4.1562 47.8911C36.6562 28.3915 58.6562 34.3915 84.6562 29.8915C162.656 -25.1086 244.656 11.8913 281.656 26.3915L295.156 28.3914L295.656 35.3914V38.3914C297.155 43.3914 298.49 47.8914 297.156 49.8914C299.656 50.8914 302.156 54.058 302.156 55.8914L300.156 65.8914C300.608 76.7393 298.2 76.9635 288.868 77.276C287.877 77.3092 285.808 77.3434 284.656 77.3914V78.8914L259.656 79.3224M22.1562 80.8916V83.8916H40.1545L39.6562 79.3916M22.1562 80.8916V79.3916H39.6562M39.6562 79.3916C36.6562 37.8916 90.1562 40.8916 86.6562 79.8916V82.3914H213.156C207.156 38.8914 261.656 38.8914 259.656 79.3224M259.155 79.3224H259.656" stroke="black"/>
</svg>
