<svg width="303" height="95" viewBox="0 0 303 95" fill="none" xmlns="http://www.w3.org/2000/svg">
<circle cx="62.6772" cy="73.6768" r="20.5" stroke="black"/>
<circle cx="235.678" cy="73.6768" r="20.5" stroke="black"/>
<path d="M132.676 12.1766L131.176 8.67661C171.176 0.676725 192.676 1.17676 231.676 12.6767L228.176 17.1767C208.176 9.17667 190.176 8.17667 174.176 7.67673C171.676 7.17673 167.676 7.1767 165.176 7.67661C155.176 7.67673 143.176 9.17674 132.676 12.1766Z" stroke="black" stroke-width="0.5"/>
<path d="M131.176 8.6768L130.676 7.1768C166.676 -3.82324 199.176 0.176632 234.676 9.1768L231.676 12.6768C191.676 0.176758 165.676 1.67676 131.176 8.6768Z" stroke="black" stroke-width="0.5"/>
<path d="M131.176 8.67675C182.676 -2.82328 211.176 7.17676 231.676 12.6767" stroke="black" stroke-width="0.5"/>
<path d="M226.677 30.1768L223.677 15.6768C219.177 14.1768 207.677 8.67676 174.177 7.67676L170.677 29.6768C181.677 29.1768 199.177 27.6768 226.177 27.6768" stroke="black" stroke-width="0.5"/>
<path d="M165.177 7.67676C132.177 8.67676 112.177 17.6768 93.1772 35.1768L95.6772 33.1768L159.677 30.1768L165.177 7.67676Z" stroke="black" stroke-width="0.5"/>
<path d="M239.676 22.1768C236.009 19.5101 230.176 17.1768 223.676 15.6768L226.176 27.6768H232.676C235.676 26.1768 238.676 23.9455 239.676 22.1768Z" stroke="black" stroke-width="0.5"/>
<path d="M96.6772 78.1768H163.677L198.177 76.6768M96.6772 78.1768C96.6772 79.6768 97.1772 80.6768 98.1772 82.1768M96.6772 78.1768H86.6772V82.1768H98.1772M198.177 76.6768L199.177 82.1768M198.177 76.6768H212.677L213.177 82.1768H199.177M199.177 82.1768H98.1772" stroke="black" stroke-width="0.5"/>
<path d="M96.6764 78.1768C92.1772 73.6768 89.1773 51.6768 93.1764 35.1768L165.177 31.1768C161.177 36.1768 160.177 70.1768 163.677 78.1768H96.6764Z" stroke="black" stroke-width="0.5"/>
<path d="M228.677 30.1768L165.177 31.1768C161.177 36.1768 160.177 70.1768 163.677 78.1768L198.177 76.6768C202.677 75.1768 209.177 69.6768 228.677 30.1768Z" stroke="black" stroke-width="0.5"/>
<path d="M170.677 29.6768C166.177 30.1768 162.677 30.1768 159.677 30.1768L165.177 7.67683C168.177 7.17676 171.177 7.17676 174.177 7.67683L170.677 29.6768Z" stroke="black" stroke-width="0.5"/>
<path d="M99.1772 31.6769C103.677 37.1769 110.677 33.6769 114.677 32.1769C115.677 16.6768 102.677 24.6768 99.1772 31.6769Z" stroke="black" stroke-width="0.5"/>
<path d="M234.676 9.17676L231.676 12.6768C248.676 18.1768 259.176 21.1768 271.676 27.6768H273.176L281.176 26.1768C266.176 19.6768 258.676 17.1768 234.676 9.17676Z" fill="#EDADBF" stroke="black" stroke-width="0.5"/>
<path d="M271.676 27.6768C261.176 22.1768 242.176 15.6768 231.676 12.6768L229.676 15.1768L244.676 22.6768C243.176 25.1768 239.176 27.1768 233.176 29.8768C245.176 29.1768 262.176 28.1768 271.676 27.6768Z" fill="#EDADBF" stroke="black" stroke-width="0.5"/>
<path d="M277.178 33.9768L283.176 31.6768L272.677 27.6768L228.677 30.1768C221.177 45.1768 206.177 75.6768 198.177 76.6768H212.677C211.177 65.6768 220.677 42.1768 245.678 51.1768C256.178 45.6768 266.178 40.1768 277.178 33.9768Z" fill="#EDADBF" stroke="black" stroke-width="0.5"/>
<path d="M278.176 33.6768C266.176 40.1768 256.176 45.6768 245.676 51.1768C250.176 54.1768 260.676 60.1768 259.676 79.1768L284.676 78.6768V77.1768C293.176 76.1768 301.676 79.6768 300.176 65.6768L302.176 55.6768C302.176 54.1768 299.676 50.1768 297.176 49.6768C298.676 47.1768 295.676 38.1768 295.676 38.1768V36.6768L291.676 33.6768L286.676 32.1768L283.176 31.6768L278.176 33.6768Z" fill="#EDADBF" stroke="black" stroke-width="0.5"/>
<path d="M281.176 26.1768L272.676 27.6768L283.176 31.6768C292.676 32.6768 291.675 34.1768 295.67 36.5969L295.176 28.1768L281.176 26.1768Z" fill="#EDADBF"/>
<path d="M295.676 36.6768L295.67 36.5969M295.67 36.5969L295.176 28.1768L281.176 26.1768L272.676 27.6768L283.176 31.6768C292.676 32.6768 291.675 34.1768 295.67 36.5969Z" stroke="black" stroke-width="0.5"/>
<path d="M294.178 36.177C293.678 33.6768 282.678 33.4768 277.178 33.9768" stroke="black" stroke-width="0.5"/>
<path d="M300.178 66.1768L260.678 68.1768C260.178 63.1768 258.011 59.0101 256.178 57.1768L302.178 54.6768M300.678 52.1768C289.678 50.6768 278.678 45.8768 266.678 39.8768M228.678 30.1768L272.678 27.6768L281.178 26.1768" stroke="black" stroke-width="0.5"/>
<path d="M290.678 40.1768C290.678 38.1768 289.678 34.1768 286.178 32.1768C288.399 32.1768 291.775 33.2171 294.287 35.5867C294.75 37.1167 293.678 40.6768 290.636 42.1768C290.622 41.5865 290.678 40.901 290.678 40.1768Z" fill="#EDADBF"/>
<path d="M272.678 42.6768C279.673 43.0265 285.69 43.1316 291.071 43.6768M297.678 44.6768C295.575 44.2261 293.381 43.9109 291.071 43.6768M295.678 37.1768C295.26 36.5916 294.791 36.0624 294.287 35.5867M291.071 43.6768C290.745 43.332 290.651 42.8089 290.636 42.1768M290.636 42.1768C290.622 41.5865 290.678 40.901 290.678 40.1768C290.678 38.1768 289.678 34.1768 286.178 32.1768C288.399 32.1768 291.775 33.2171 294.287 35.5867M290.636 42.1768C293.678 40.6768 294.75 37.1167 294.287 35.5867" stroke="black" stroke-width="0.5"/>
<path d="M290.678 40.1768C286.178 40.1768 284.178 36.1768 283.178 33.6768" stroke="black" stroke-width="0.5"/>
<path d="M132.676 12.2767C119.176 16.2767 107.176 22.1768 93.1758 35.1768C100.176 23.1768 115.676 13.6768 131.176 8.67676L132.676 12.2767Z" fill="#E56E90" stroke="black" stroke-width="0.5"/>
<path d="M131.176 8.67676C111.176 14.3508 93.1758 31.6768 85.1758 29.6768C98.1758 20.1768 114.176 11.6768 130.676 7.17676L131.176 8.67676Z" fill="#E56E90" stroke="black" stroke-width="0.5"/>
<path d="M10.1764 47.6768H4.17645C1.67578 51.6768 1.67578 61.6768 2.17645 65.1768C0.675781 66.1768 0.676379 70.6768 1.67645 72.1768L5.67645 72.6768V74.1768L1.67645 76.1768V78.1768C5.67645 79.1768 14.1764 81.1768 22.1764 80.6768V79.1768H39.6764C39.0098 70.6768 40.6764 60.1768 49.6764 53.1768C47.1764 49.1768 40.1764 44.6768 37.1764 44.1768C27.1764 43.1768 12.1764 45.6768 10.1764 47.6768Z" fill="#E56E90" stroke="black" stroke-width="0.5"/>
<path d="M93.1772 35.1768C75.3439 36.0101 43.6772 40.8768 33.1772 43.8768L37.1772 44.1768C42.1772 45.6768 47.6772 50.0101 49.6772 53.1768C62.6763 43.6768 88.1763 50.6768 86.6763 78.1768H96.6763C89.6763 67.1768 90.6763 45.1768 93.1772 35.1768Z" fill="#E56E90" stroke="black" stroke-width="0.5"/>
<path d="M10.1758 47.6768H4.17578C36.676 28.1767 58.676 34.1768 84.6758 29.6768L93.676 35.1768C76.676 36.1768 47.6758 39.6768 33.6758 43.8768C25.6758 43.6767 11.6758 45.6768 10.1758 47.6768Z" fill="#E56E90" stroke="black" stroke-width="0.5"/>
<path d="M37.1772 44.1768C29.6772 43.1768 12.6772 45.1768 10.1772 47.6768C9.37724 50.0768 12.5106 53.0101 14.1772 54.1768C23.6772 55.6768 37.1772 49.6768 37.1772 44.1768Z" fill="#E56E90" stroke="black" stroke-width="0.5"/>
<path d="M4.17648 47.6768C11.1765 48.6768 5.17648 59.1768 2.17648 64.1768C1.67641 57.1768 2.17627 51.6768 4.17648 47.6768Z" fill="#E56E90" stroke="black" stroke-width="0.5"/>
<path d="M22.1758 83.6768V79.1768H39.6758L40.1758 83.6768H22.1758Z" fill="#E56E90" stroke="black" stroke-width="0.5"/>
<path d="M2.67773 65.1768C4.17773 67.6768 6.17773 70.8434 5.67773 72.6768M22.1777 79.1768C11.6777 79.6768 7.17773 75.6768 8.17773 72.1768C8.67773 71.6768 10.1777 70.1768 11.1777 70.1768" stroke="black" stroke-width="0.5"/>
<path d="M32.1777 74.1768C29.6777 70.1768 24.1777 65.1768 21.1777 63.6768C19.4277 63.1768 16.8026 63.3018 14.0525 63.6768C12.4276 65.0101 11.1777 68.1768 11.6777 71.1768C11.6777 72.3434 12.9852 74.6768 15.6777 74.6768C20.1777 74.6768 27.1777 75.1768 32.1777 74.1768Z" fill="#E56E90"/>
<path d="M6.17773 65.1768C8.42768 64.6768 11.3026 64.0518 14.0525 63.6768M14.0525 63.6768C16.8026 63.3018 19.4277 63.1768 21.1777 63.6768C24.1777 65.1768 29.6777 70.1768 32.1777 74.1768C27.1777 75.1768 20.1777 74.6768 15.6777 74.6768C12.9852 74.6768 11.6777 72.3434 11.6777 71.1768C11.1777 68.1768 12.4276 65.0101 14.0525 63.6768Z" stroke="black" stroke-width="0.5"/>
<path d="M11.6777 70.6768C19.6777 69.1769 23.1777 71.8054 26.1777 73.3054M13.1777 73.6769L30.6777 73.1769" stroke="black" stroke-width="0.5"/>
<path d="M22.1758 82.1768H31.6758C33.6758 82.1768 35.1758 80.1768 34.6758 79.1768M38.1758 79.1768V83.6768" stroke="black" stroke-width="0.5"/>
<path d="M22.1772 80.677C17.6772 80.677 13.1772 81.177 1.67719 78.177V76.177L5.67719 74.177V72.677L1.67719 72.177C1.17627 70.6768 0.176465 67.6768 2.17646 65.1768C1.6767 57.1768 2.1767 50.6768 4.17719 47.6765C36.6772 28.1769 58.6772 34.1769 84.6772 29.6769C162.677 -25.3232 244.677 11.6767 281.677 26.1769L295.177 28.1768L295.677 35.1768V38.1768C297.176 43.1768 298.511 47.6768 297.177 49.6768C299.677 50.6768 302.177 53.8434 302.177 55.6768L300.177 65.6768C300.629 76.5247 298.221 76.7489 288.889 77.0614C287.898 77.0946 285.829 77.1288 284.677 77.1768V78.6768L259.677 79.1078M22.1772 80.677V83.677H40.1755L39.6772 79.177M22.1772 80.677V79.177H39.6772M39.6772 79.177C36.6772 37.677 90.1772 40.677 86.6772 79.677V82.1768H213.177C207.177 38.6768 261.677 38.6768 259.677 79.1078M259.176 79.1078H259.677" stroke="black"/>
</svg>
