<svg width="303" height="95" viewBox="0 0 303 95" fill="none" xmlns="http://www.w3.org/2000/svg">
<circle cx="62.8545" cy="73.6768" r="20.5" fill="#EFC7D3" stroke="black"/>
<circle cx="235.854" cy="73.6768" r="20.5" fill="#EFC7D3" stroke="black"/>
<path d="M132.853 12.1766L131.353 8.67661C171.353 0.676725 192.853 1.17676 231.853 12.6767L228.353 17.1767C208.353 9.17667 190.353 8.17667 174.353 7.67673C171.853 7.17673 167.853 7.1767 165.353 7.67661C155.353 7.67673 143.353 9.17674 132.853 12.1766Z" stroke="black" stroke-width="0.5"/>
<path d="M131.353 8.6768L130.853 7.1768C166.853 -3.82324 199.353 0.176632 234.853 9.1768L231.853 12.6768C191.853 0.176758 165.853 1.67676 131.353 8.6768Z" stroke="black" stroke-width="0.5"/>
<path d="M131.353 8.67675C182.853 -2.82328 211.353 7.17676 231.853 12.6767" stroke="black" stroke-width="0.5"/>
<path d="M226.854 30.1768L223.854 15.6768C219.354 14.1768 207.854 8.67676 174.354 7.67676L170.854 29.6768C181.854 29.1768 199.354 27.6768 226.354 27.6768" stroke="black" stroke-width="0.5"/>
<path d="M165.354 7.67676C132.354 8.67676 112.354 17.6768 93.3545 35.1768L95.8545 33.1768L159.854 30.1768L165.354 7.67676Z" stroke="black" stroke-width="0.5"/>
<path d="M239.853 22.1768C236.186 19.5101 230.353 17.1768 223.853 15.6768L226.353 27.6768H232.853C235.853 26.1768 238.853 23.9455 239.853 22.1768Z" stroke="black" stroke-width="0.5"/>
<path d="M96.8545 78.1768H163.854L198.354 76.6768M96.8545 78.1768C96.8545 79.6768 97.3545 80.6768 98.3545 82.1768M96.8545 78.1768H86.8545V82.1768H98.3545M198.354 76.6768L199.354 82.1768M198.354 76.6768H212.854L213.354 82.1768H199.354M199.354 82.1768H98.3545" stroke="black" stroke-width="0.5"/>
<path d="M96.8536 78.1768C92.3545 73.6768 89.3545 51.6768 93.3536 35.1768L165.354 31.1768C161.354 36.1768 160.354 70.1768 163.854 78.1768H96.8536Z" stroke="black" stroke-width="0.5"/>
<path d="M228.854 30.1768L165.354 31.1768C161.355 36.1768 160.355 70.1768 163.854 78.1768L198.354 76.6768C202.854 75.1768 209.354 69.6768 228.854 30.1768Z" stroke="black" stroke-width="0.5"/>
<path d="M170.854 29.6768C166.354 30.1768 162.854 30.1768 159.854 30.1768L165.354 7.67683C168.354 7.17676 171.354 7.17676 174.354 7.67683L170.854 29.6768Z" stroke="black" stroke-width="0.5"/>
<path d="M99.3545 31.6769C103.854 37.1769 110.854 33.6769 114.854 32.1769C115.854 16.6768 102.854 24.6768 99.3545 31.6769Z" stroke="black" stroke-width="0.5"/>
<path d="M234.853 9.17676L231.853 12.6768C248.853 18.1768 259.353 21.1768 271.853 27.6768H273.353L281.353 26.1768C266.353 19.6768 258.853 17.1768 234.853 9.17676Z" fill="#E0426F" stroke="black" stroke-width="0.5"/>
<path d="M271.853 27.6768C261.353 22.1768 242.353 15.6768 231.853 12.6768L229.853 15.1768L244.853 22.6768C243.353 25.1768 239.353 27.1768 233.353 29.8768C245.353 29.1768 262.353 28.1768 271.853 27.6768Z" fill="#E0426F" stroke="black" stroke-width="0.5"/>
<path d="M277.354 33.9768L283.353 31.6768L272.854 27.6768L228.854 30.1768C221.354 45.1768 206.354 75.6768 198.354 76.6768H212.854C211.354 65.6768 220.854 42.1768 245.854 51.1768C256.354 45.6768 266.354 40.1768 277.354 33.9768Z" fill="#E0426F" stroke="black" stroke-width="0.5"/>
<path d="M278.353 33.6768C266.353 40.1768 256.353 45.6768 245.853 51.1768C250.353 54.1768 260.853 60.1768 259.853 79.1768L284.853 78.6768V77.1768C293.353 76.1768 301.853 79.6768 300.353 65.6768L302.353 55.6768C302.353 54.1768 299.853 50.1768 297.353 49.6768C298.853 47.1768 295.853 38.1768 295.853 38.1768V36.6768L291.853 33.6768L286.853 32.1768L283.353 31.6768L278.353 33.6768Z" fill="#E0426F" stroke="black" stroke-width="0.5"/>
<path d="M281.353 26.1768L272.853 27.6768L283.353 31.6768C292.853 32.6768 291.851 34.1768 295.847 36.5969L295.353 28.1768L281.353 26.1768Z" fill="#E0426F"/>
<path d="M295.853 36.6768L295.847 36.5969M295.847 36.5969L295.353 28.1768L281.353 26.1768L272.853 27.6768L283.353 31.6768C292.853 32.6768 291.851 34.1768 295.847 36.5969Z" stroke="black" stroke-width="0.5"/>
<path d="M294.354 36.177C293.854 33.6768 282.854 33.4768 277.354 33.9768" stroke="black" stroke-width="0.5"/>
<path d="M300.354 66.1768L260.854 68.1768C260.354 63.1768 258.188 59.0101 256.354 57.1768L302.354 54.6768M300.854 52.1768C289.854 50.6768 278.854 45.8768 266.854 39.8768M228.854 30.1768L272.854 27.6768L281.354 26.1768" stroke="black" stroke-width="0.5"/>
<path d="M290.854 40.1768C290.854 38.1768 289.854 34.1768 286.354 32.1768C288.575 32.1768 291.952 33.2171 294.463 35.5867C294.927 37.1167 293.854 40.6768 290.813 42.1768C290.799 41.5865 290.854 40.901 290.854 40.1768Z" fill="#E0426F"/>
<path d="M272.854 42.6768C279.85 43.0265 285.867 43.1316 291.248 43.6768M297.854 44.6768C295.751 44.2261 293.558 43.9109 291.248 43.6768M295.854 37.1768C295.437 36.5916 294.967 36.0624 294.463 35.5867M291.248 43.6768C290.921 43.332 290.827 42.8089 290.813 42.1768M290.813 42.1768C290.799 41.5865 290.854 40.901 290.854 40.1768C290.854 38.1768 289.854 34.1768 286.354 32.1768C288.575 32.1768 291.952 33.2171 294.463 35.5867M290.813 42.1768C293.854 40.6768 294.927 37.1167 294.463 35.5867" stroke="black" stroke-width="0.5"/>
<path d="M290.854 40.1768C286.354 40.1768 284.354 36.1768 283.354 33.6768" stroke="black" stroke-width="0.5"/>
<path d="M132.853 12.2767C119.353 16.2767 107.353 22.1768 93.3525 35.1768C100.353 23.1768 115.853 13.6768 131.353 8.67676L132.853 12.2767Z" fill="#E56E90" stroke="black" stroke-width="0.5"/>
<path d="M131.353 8.67676C111.353 14.3508 93.3525 31.6768 85.3525 29.6768C98.3525 20.1768 114.353 11.6768 130.853 7.17676L131.353 8.67676Z" fill="#E56E90" stroke="black" stroke-width="0.5"/>
<path d="M10.3532 47.6768H4.35321C1.85254 51.6768 1.85254 61.6768 2.35321 65.1768C0.852539 66.1768 0.853137 70.6768 1.85321 72.1768L5.85321 72.6768V74.1768L1.85321 76.1768V78.1768C5.85321 79.1768 14.3532 81.1768 22.3532 80.6768V79.1768H39.8532C39.1865 70.6768 40.8532 60.1768 49.8532 53.1768C47.3532 49.1768 40.3532 44.6768 37.3532 44.1768C27.3532 43.1768 12.3532 45.6768 10.3532 47.6768Z" fill="#E56E90" stroke="black" stroke-width="0.5"/>
<path d="M93.3545 35.1768C75.5212 36.0101 43.8545 40.8768 33.3545 43.8768L37.3545 44.1768C42.3545 45.6768 47.8545 50.0101 49.8545 53.1768C62.8535 43.6768 88.3535 50.6768 86.8535 78.1768H96.8535C89.8535 67.1768 90.8535 45.1768 93.3545 35.1768Z" fill="#E56E90" stroke="black" stroke-width="0.5"/>
<path d="M10.3525 47.6768H4.35254C36.8527 28.1767 58.8528 34.1768 84.8525 29.6768L93.8528 35.1768C76.8528 36.1768 47.8525 39.6768 33.8525 43.8768C25.8525 43.6767 11.8525 45.6768 10.3525 47.6768Z" fill="#E56E90" stroke="black" stroke-width="0.5"/>
<path d="M37.354 44.1768C29.854 43.1768 12.854 45.1768 10.354 47.6768C9.55399 50.0768 12.6873 53.0101 14.354 54.1768C23.854 55.6768 37.354 49.6768 37.354 44.1768Z" fill="#E56E90" stroke="black" stroke-width="0.5"/>
<path d="M4.35323 47.6768C11.3532 48.6768 5.35323 59.1768 2.35323 64.1768C1.85316 57.1768 2.35303 51.6768 4.35323 47.6768Z" fill="#E56E90" stroke="black" stroke-width="0.5"/>
<path d="M22.3525 83.6768V79.1768H39.8525L40.3525 83.6768H22.3525Z" fill="#E56E90" stroke="black" stroke-width="0.5"/>
<path d="M2.85449 65.1768C4.35449 67.6768 6.35449 70.8434 5.85449 72.6768M22.3545 79.1768C11.8545 79.6768 7.35449 75.6768 8.35449 72.1768C8.85449 71.6768 10.3545 70.1768 11.3545 70.1768" stroke="black" stroke-width="0.5"/>
<path d="M32.3545 74.1768C29.8545 70.1768 24.3545 65.1768 21.3545 63.6768C19.6044 63.1768 16.9794 63.3018 14.2293 63.6768C12.6044 65.0101 11.3545 68.1768 11.8545 71.1768C11.8545 72.3434 13.1619 74.6768 15.8545 74.6768C20.3545 74.6768 27.3545 75.1768 32.3545 74.1768Z" fill="#E56E90"/>
<path d="M6.35449 65.1768C8.60443 64.6768 11.4793 64.0518 14.2293 63.6768M14.2293 63.6768C16.9794 63.3018 19.6044 63.1768 21.3545 63.6768C24.3545 65.1768 29.8545 70.1768 32.3545 74.1768C27.3545 75.1768 20.3545 74.6768 15.8545 74.6768C13.1619 74.6768 11.8545 72.3434 11.8545 71.1768C11.3545 68.1768 12.6043 65.0101 14.2293 63.6768Z" stroke="black" stroke-width="0.5"/>
<path d="M11.8545 70.6768C19.8545 69.1769 23.3545 71.8054 26.3545 73.3054M13.3545 73.6769L30.8545 73.1769" stroke="black" stroke-width="0.5"/>
<path d="M22.3525 82.1768H31.8525C33.8525 82.1768 35.3525 80.1768 34.8525 79.1768M38.3525 79.1768V83.6768" stroke="black" stroke-width="0.5"/>
<path d="M22.3544 80.677C17.8544 80.677 13.3544 81.177 1.85444 78.177V76.177L5.85444 74.177V72.677L1.85444 72.177C1.35352 70.6768 0.353711 67.6768 2.35371 65.1768C1.85395 57.1768 2.35395 50.6768 4.35444 47.6765C36.8544 28.1769 58.8544 34.1769 84.8544 29.6769C162.854 -25.3232 244.854 11.6767 281.854 26.1769L295.354 28.1768L295.854 35.1768V38.1768C297.353 43.1768 298.688 47.6768 297.354 49.6768C299.854 50.6768 302.354 53.8434 302.354 55.6768L300.354 65.6768C300.806 76.5247 298.398 76.7489 289.067 77.0614C288.076 77.0946 286.007 77.1288 284.854 77.1768V78.6768L259.854 79.1078M22.3544 80.677V83.677H40.3528L39.8544 79.177M22.3544 80.677V79.177H39.8544M39.8544 79.177C36.8544 37.677 90.3544 40.677 86.8544 79.677V82.1768H213.354C207.354 38.6768 261.854 38.6768 259.854 79.1078M259.353 79.1078H259.854" stroke="black"/>
</svg>
