<svg width="303" height="95" viewBox="0 0 303 95" fill="none" xmlns="http://www.w3.org/2000/svg">
<circle cx="62.2915" cy="73.8914" r="20.5" fill="#E56E90" stroke="black"/>
<circle cx="235.292" cy="73.8914" r="20.5" fill="#E56E90" stroke="black"/>
<path d="M132.29 12.3912L130.79 8.89121C170.79 0.891325 192.29 1.39136 231.29 12.8913L227.79 17.3913C207.79 9.39127 189.79 8.39127 173.79 7.89133C171.29 7.39133 167.29 7.3913 164.79 7.89121C154.79 7.89133 142.79 9.39134 132.29 12.3912Z" fill="#E0426F" stroke="black" stroke-width="0.5"/>
<path d="M130.79 8.8914L130.29 7.3914C166.29 -3.60864 198.79 0.391232 234.29 9.3914L231.29 12.8914C191.29 0.391357 165.29 1.89136 130.79 8.8914Z" fill="#E0426F" stroke="black" stroke-width="0.5"/>
<path d="M130.79 8.89122C182.29 -2.6088 210.79 7.39124 231.29 12.8912" stroke="black" stroke-width="0.5"/>
<path d="M170.292 29.8914L173.792 7.89136C207.292 8.89136 218.792 14.3914 223.292 15.8914L225.774 27.8914C198.784 27.892 181.289 29.3915 170.292 29.8914Z" fill="#E0426F"/>
<path d="M226.292 30.3914L223.292 15.8914C218.792 14.3914 207.292 8.89136 173.792 7.89136L170.292 29.8914C181.292 29.3914 198.792 27.8914 225.792 27.8914" stroke="black" stroke-width="0.5"/>
<path d="M164.792 7.89136C131.792 8.89136 111.792 17.8914 92.7915 35.3914L95.2915 33.3914L159.292 30.3914L164.792 7.89136Z" fill="#E0426F" stroke="black" stroke-width="0.5"/>
<path d="M239.29 22.3914C235.623 19.7247 229.79 17.3914 223.29 15.8914L225.79 27.8914H232.29C235.29 26.3914 238.29 24.1601 239.29 22.3914Z" fill="#E0426F" stroke="black" stroke-width="0.5"/>
<path d="M96.2915 78.3914H163.292L197.792 76.8914H212.292L212.792 82.3914H198.792H97.7915H86.2915V78.3914H96.2915Z" fill="#E0426F"/>
<path d="M96.2915 78.3914H163.292L197.792 76.8914M96.2915 78.3914C96.2915 79.8914 96.7915 80.8914 97.7915 82.3914M96.2915 78.3914H86.2915V82.3914H97.7915M197.792 76.8914L198.792 82.3914M197.792 76.8914H212.292L212.792 82.3914H198.792M198.792 82.3914H97.7915" stroke="black" stroke-width="0.5"/>
<path d="M96.2906 78.3914C91.7915 73.8914 88.7915 51.8914 92.7906 35.3914L164.792 31.3914C160.792 36.3914 159.792 70.3914 163.291 78.3914H96.2906Z" fill="#E0426F" stroke="black" stroke-width="0.5"/>
<path d="M228.291 30.3914L164.791 31.3914C160.791 36.3914 159.791 70.3914 163.291 78.3914L197.791 76.8914C202.291 75.3914 208.791 69.8914 228.291 30.3914Z" fill="#E0426F" stroke="black" stroke-width="0.5"/>
<path d="M170.292 29.8914C165.792 30.3914 162.292 30.3914 159.292 30.3914L164.792 7.89143C167.792 7.39136 170.792 7.39136 173.792 7.89143L170.292 29.8914Z" fill="#E0426F" stroke="black" stroke-width="0.5"/>
<path d="M98.7915 31.8914C103.292 37.3914 110.292 33.8914 114.292 32.3914C115.292 16.8913 102.292 24.8912 98.7915 31.8914Z" fill="#E0426F" stroke="black" stroke-width="0.5"/>
<path d="M234.29 9.39136L231.29 12.8914C248.29 18.3914 258.79 21.3914 271.29 27.8914H272.79L280.79 26.3914C265.79 19.8914 258.29 17.3914 234.29 9.39136Z" stroke="black" stroke-width="0.5"/>
<path d="M271.29 27.8914C260.79 22.3914 241.79 15.8914 231.29 12.8914L229.29 15.3914L244.29 22.8914C242.79 25.3914 238.79 27.3914 232.79 30.0914C244.79 29.3914 261.79 28.3914 271.29 27.8914Z" stroke="black" stroke-width="0.5"/>
<path d="M276.792 34.1914L282.79 31.8914L272.291 27.8914L228.291 30.3914C220.791 45.3914 205.791 75.8914 197.791 76.8914H212.291C210.791 65.8914 220.291 42.3914 245.292 51.3914C255.792 45.8914 265.792 40.3914 276.792 34.1914Z" stroke="black" stroke-width="0.5"/>
<path d="M277.79 33.8914C265.79 40.3914 255.79 45.8914 245.29 51.3914C249.79 54.3914 260.29 60.3914 259.29 79.3914L284.29 78.8914V77.3914C292.79 76.3914 301.29 79.8914 299.79 65.8914L301.79 55.8914C301.79 54.3914 299.29 50.3914 296.79 49.8914C298.29 47.3914 295.29 38.3914 295.29 38.3914V36.8914L291.29 33.8914L286.29 32.3914L282.79 31.8914L277.79 33.8914Z" stroke="black" stroke-width="0.5"/>
<path d="M295.29 36.8914L295.284 36.8115M295.284 36.8115L294.79 28.3914L280.79 26.3914L272.29 27.8914L282.79 31.8914C292.29 32.8914 291.289 34.3914 295.284 36.8115Z" stroke="black" stroke-width="0.5"/>
<path d="M293.792 36.3916C293.292 33.8914 282.292 33.6914 276.792 34.1914" stroke="black" stroke-width="0.5"/>
<path d="M299.792 66.3914L260.292 68.3914C259.792 63.3914 257.625 59.2247 255.792 57.3914L301.792 54.8914M300.292 52.3914C289.292 50.8914 278.292 46.0914 266.292 40.0914M228.292 30.3914L272.292 27.8914L280.792 26.3914" stroke="black" stroke-width="0.5"/>
<path d="M272.292 42.8914C279.287 43.2411 285.304 43.3462 290.685 43.8914M297.292 44.8914C295.189 44.4407 292.995 44.1255 290.685 43.8914M295.292 37.3914C294.874 36.8062 294.404 36.277 293.9 35.8013M290.685 43.8914C290.358 43.5466 290.264 43.0235 290.25 42.3914M290.25 42.3914C290.236 41.8011 290.292 41.1156 290.292 40.3914C290.292 38.3914 289.292 34.3914 285.792 32.3914C288.012 32.3914 291.389 33.4317 293.9 35.8013M290.25 42.3914C293.292 40.8914 294.364 37.3313 293.9 35.8013" stroke="black" stroke-width="0.5"/>
<path d="M290.292 40.3914C285.792 40.3914 283.792 36.3914 282.792 33.8914" stroke="black" stroke-width="0.5"/>
<path d="M132.29 12.4913C118.79 16.4913 106.79 22.3914 92.79 35.3914C99.79 23.3914 115.29 13.8914 130.79 8.89136L132.29 12.4913Z" fill="#EDADBF" stroke="black" stroke-width="0.5"/>
<path d="M130.79 8.89136C110.79 14.5654 92.79 31.8914 84.79 29.8914C97.79 20.3914 113.79 11.8914 130.29 7.39136L130.79 8.89136Z" fill="#EDADBF" stroke="black" stroke-width="0.5"/>
<path d="M9.79071 47.8912H3.79071C1.29004 51.8912 1.29004 61.8912 1.79071 65.3912C0.290039 66.3912 0.290637 70.8912 1.29071 72.3912L5.29071 72.8912V74.3912L1.29071 76.3912V78.3912C5.29071 79.3912 13.7907 81.3912 21.7907 80.8912V79.3912H39.2907C38.624 70.8912 40.2907 60.3912 49.2907 53.3912C46.7907 49.3912 39.7907 44.8912 36.7907 44.3912C26.7907 43.3912 11.7907 45.8912 9.79071 47.8912Z" fill="#EDADBF" stroke="black" stroke-width="0.5"/>
<path d="M92.7915 35.3914C74.9582 36.2247 43.2915 41.0914 32.7915 44.0914L36.7915 44.3914C41.7915 45.8914 47.2915 50.2247 49.2915 53.3914C62.2905 43.8914 87.7905 50.8914 86.2905 78.3914H96.2905C89.2905 67.3914 90.2905 45.3914 92.7915 35.3914Z" fill="#EDADBF" stroke="black" stroke-width="0.5"/>
<path d="M9.79004 47.8914H3.79004C36.2902 28.3913 58.2903 34.3914 84.29 29.8914L93.2903 35.3914C76.2903 36.3914 47.29 39.8914 33.29 44.0914C25.29 43.8913 11.29 45.8914 9.79004 47.8914Z" fill="#EDADBF" stroke="black" stroke-width="0.5"/>
<path d="M36.7915 44.3914C29.2915 43.3914 12.2915 45.3914 9.79149 47.8914C8.99149 50.2914 12.1248 53.2247 13.7915 54.3914C23.2915 55.8914 36.7915 49.8914 36.7915 44.3914Z" fill="#EDADBF" stroke="black" stroke-width="0.5"/>
<path d="M3.79073 47.8914C10.7907 48.8914 4.79073 59.3914 1.79073 64.3914C1.29066 57.3914 1.79053 51.8914 3.79073 47.8914Z" fill="#EDADBF" stroke="black" stroke-width="0.5"/>
<path d="M21.79 83.8914V79.3914H39.29L39.79 83.8914H21.79Z" fill="#EDADBF" stroke="black" stroke-width="0.5"/>
<path d="M2.29199 65.3911C3.79199 67.8911 5.79199 71.0578 5.29199 72.8911M21.792 79.3911C11.292 79.8911 6.79199 75.8911 7.79199 72.3911C8.29199 71.8911 9.79199 70.3911 10.792 70.3911" stroke="black" stroke-width="0.5"/>
<path d="M31.792 74.3912C29.292 70.3912 23.792 65.3913 20.792 63.8913C19.0419 63.3913 16.4169 63.5163 13.6668 63.8913C12.0419 65.2246 10.792 68.3912 11.292 71.3912C11.292 72.5579 12.5994 74.8912 15.292 74.8912C19.792 74.8912 26.792 75.3912 31.792 74.3912Z" fill="#EDADBF"/>
<path d="M5.79199 65.3913C8.04193 64.8913 10.9168 64.2663 13.6668 63.8913M13.6668 63.8913C16.4169 63.5163 19.0419 63.3913 20.792 63.8913C23.792 65.3913 29.292 70.3912 31.792 74.3912C26.792 75.3912 19.792 74.8912 15.292 74.8912C12.5994 74.8912 11.292 72.5579 11.292 71.3912C10.792 68.3912 12.0418 65.2246 13.6668 63.8913Z" stroke="black" stroke-width="0.5"/>
<path d="M11.292 70.8913C19.292 69.3914 22.792 72.0198 25.792 73.5198M12.792 73.8914L30.292 73.3914" stroke="black" stroke-width="0.5"/>
<path d="M21.79 82.3911H31.29C33.29 82.3911 34.79 80.3911 34.29 79.3911M37.79 79.3911V83.8911" stroke="black" stroke-width="0.5"/>
<path d="M21.7915 80.8916C17.2915 80.8916 12.7915 81.3916 1.29145 78.3916V76.3916L5.29145 74.3916V72.8916L1.29145 72.3916C0.790527 70.8914 -0.209277 67.8914 1.79072 65.3914C1.29096 57.3914 1.79096 50.8914 3.79145 47.8911C36.2915 28.3915 58.2914 34.3915 84.2914 29.8915C162.291 -25.1086 244.291 11.8913 281.291 26.3915L294.791 28.3914L295.291 35.3914V38.3914C296.79 43.3914 298.125 47.8914 296.791 49.8914C299.291 50.8914 301.791 54.058 301.791 55.8914L299.791 65.8914C300.243 76.7393 297.835 76.9635 288.504 77.276C287.513 77.3092 285.444 77.3434 284.291 77.3914V78.8914L259.291 79.3224M21.7915 80.8916V83.8916H39.7898L39.2915 79.3916M21.7915 80.8916V79.3916H39.2915M39.2915 79.3916C36.2915 37.8916 89.7914 40.8916 86.2914 79.8916V82.3914H212.791C206.791 38.8914 261.291 38.8914 259.291 79.3224M258.79 79.3224H259.291" stroke="black"/>
</svg>
