<svg width="303" height="96" viewBox="0 0 303 96" fill="none" xmlns="http://www.w3.org/2000/svg">
<circle cx="62.4473" cy="74.553" r="20.5" fill="#E0426F" stroke="black"/>
<circle cx="235.447" cy="74.553" r="20.5" fill="#E0426F" stroke="black"/>
<path d="M132.445 13.0528L130.945 9.55283C170.945 1.55295 192.445 2.05298 231.445 13.5529L227.945 18.0529C207.945 10.0529 189.945 9.05289 173.945 8.55296C171.445 8.05296 167.445 8.05292 164.945 8.55283C154.945 8.55296 142.945 10.053 132.445 13.0528Z" fill="#E0426F" stroke="black" stroke-width="0.5"/>
<path d="M130.945 9.55302L130.445 8.05302C166.445 -2.94702 198.945 1.05285 234.445 10.053L231.445 13.553C191.445 1.05298 165.445 2.55298 130.945 9.55302Z" fill="#E0426F" stroke="black" stroke-width="0.5"/>
<path d="M130.945 9.55284C182.445 -1.94718 210.945 8.05286 231.445 13.5528" stroke="black" stroke-width="0.5"/>
<path d="M170.447 30.553L173.947 8.55298C207.447 9.55298 218.947 15.053 223.447 16.553L225.93 28.553C198.94 28.5536 181.445 30.0531 170.447 30.553Z" fill="#E0426F"/>
<path d="M226.447 31.053L223.447 16.553C218.947 15.053 207.447 9.55298 173.947 8.55298L170.447 30.553C181.447 30.053 198.947 28.553 225.947 28.553" stroke="black" stroke-width="0.5"/>
<path d="M164.947 8.55298C131.947 9.55298 111.947 18.553 92.9473 36.053L95.4473 34.053L159.447 31.053L164.947 8.55298Z" fill="#E0426F" stroke="black" stroke-width="0.5"/>
<path d="M239.445 23.053C235.779 20.3863 229.945 18.053 223.445 16.553L225.945 28.553H232.445C235.445 27.053 238.445 24.8217 239.445 23.053Z" fill="#E0426F" stroke="black" stroke-width="0.5"/>
<path d="M96.4473 79.053H163.447L197.947 77.553H212.447L212.947 83.053H198.947H97.9473H86.4473V79.053H96.4473Z" fill="#E0426F"/>
<path d="M96.4473 79.053H163.447L197.947 77.553M96.4473 79.053C96.4473 80.553 96.9473 81.553 97.9473 83.053M96.4473 79.053H86.4473V83.053H97.9473M197.947 77.553L198.947 83.053M197.947 77.553H212.447L212.947 83.053H198.947M198.947 83.053H97.9473" stroke="black" stroke-width="0.5"/>
<path d="M96.4464 79.053C91.9473 74.553 88.9473 52.553 92.9464 36.053L164.947 32.053C160.947 37.053 159.947 71.053 163.447 79.053H96.4464Z" fill="#E0426F" stroke="black" stroke-width="0.5"/>
<path d="M228.447 31.053L164.947 32.053C160.947 37.053 159.948 71.053 163.447 79.053L197.947 77.553C202.447 76.053 208.947 70.553 228.447 31.053Z" fill="#E0426F" stroke="black" stroke-width="0.5"/>
<path d="M170.447 30.5531C165.947 31.0531 162.447 31.0531 159.447 31.0531L164.947 8.55305C167.947 8.05298 170.947 8.05298 173.947 8.55305L170.447 30.5531Z" fill="#E0426F" stroke="black" stroke-width="0.5"/>
<path d="M98.9473 32.553C103.447 38.053 110.447 34.553 114.447 33.053C115.447 17.5529 102.447 25.5529 98.9473 32.553Z" fill="#E0426F" stroke="black" stroke-width="0.5"/>
<path d="M234.445 10.053L231.445 13.553C248.445 19.053 258.945 22.053 271.445 28.553H272.945L280.945 27.053C265.945 20.553 258.445 18.053 234.445 10.053Z" fill="#E0426F" stroke="black" stroke-width="0.5"/>
<path d="M271.445 28.553C260.945 23.053 241.945 16.553 231.445 13.553L229.445 16.053L244.445 23.553C242.945 26.053 238.945 28.053 232.945 30.753C244.945 30.053 261.945 29.053 271.445 28.553Z" fill="#E0426F" stroke="black" stroke-width="0.5"/>
<path d="M276.947 34.853L282.946 32.553L272.446 28.553L228.446 31.053C220.946 46.053 205.946 76.553 197.946 77.553H212.446C210.946 66.553 220.446 43.053 245.447 52.053C255.947 46.553 265.947 41.053 276.947 34.853Z" fill="#E0426F" stroke="black" stroke-width="0.5"/>
<path d="M277.945 34.553C265.945 41.053 255.945 46.553 245.445 52.053C249.945 55.053 260.445 61.053 259.445 80.053L284.445 79.553V78.053C292.945 77.053 301.445 80.553 299.945 66.553L301.945 56.553C301.945 55.053 299.445 51.053 296.945 50.553C298.445 48.053 295.445 39.053 295.445 39.053V37.553L291.445 34.553L286.445 33.053L282.945 32.553L277.945 34.553Z" fill="#E0426F" stroke="black" stroke-width="0.5"/>
<path d="M280.945 27.053L272.445 28.553L282.945 32.553C292.445 33.553 291.444 35.053 295.439 37.4732L294.945 29.053L280.945 27.053Z" fill="#E0426F"/>
<path d="M295.445 37.553L295.439 37.4732M295.439 37.4732L294.945 29.053L280.945 27.053L272.445 28.553L282.945 32.553C292.445 33.553 291.444 35.053 295.439 37.4732Z" stroke="black" stroke-width="0.5"/>
<path d="M293.947 37.0532C293.447 34.5531 282.447 34.353 276.947 34.853" stroke="black" stroke-width="0.5"/>
<path d="M299.947 67.053L260.447 69.053C259.947 64.053 257.781 59.8863 255.947 58.053L301.947 55.553M300.447 53.053C289.447 51.553 278.447 46.753 266.447 40.753M228.447 31.053L272.447 28.553L280.947 27.053" stroke="black" stroke-width="0.5"/>
<path d="M290.447 41.053C290.447 39.053 289.447 35.053 285.947 33.053C288.168 33.053 291.545 34.0934 294.056 36.463C294.52 37.993 293.447 41.553 290.405 43.053C290.392 42.4627 290.447 41.7773 290.447 41.053Z" fill="#E0426F"/>
<path d="M272.447 43.553C279.443 43.9028 285.46 44.0079 290.84 44.553M297.447 45.553C295.344 45.1023 293.151 44.7871 290.84 44.553M295.447 38.053C295.029 37.4679 294.56 36.9386 294.056 36.463M290.84 44.553C290.514 44.2082 290.42 43.6852 290.405 43.053M290.405 43.053C290.392 42.4627 290.447 41.7773 290.447 41.053C290.447 39.053 289.447 35.053 285.947 33.053C288.168 33.053 291.545 34.0934 294.056 36.463M290.405 43.053C293.447 41.553 294.52 37.993 294.056 36.463" stroke="black" stroke-width="0.5"/>
<path d="M290.447 41.053C285.947 41.053 283.947 37.053 282.947 34.553" stroke="black" stroke-width="0.5"/>
<path d="M132.445 13.153C118.945 17.153 106.945 23.053 92.9453 36.053C99.9453 24.053 115.445 14.553 130.945 9.55298L132.445 13.153Z" stroke="black" stroke-width="0.5"/>
<path d="M130.945 9.55298C110.945 15.227 92.9453 32.553 84.9453 30.553C97.9453 21.053 113.945 12.553 130.445 8.05298L130.945 9.55298Z" stroke="black" stroke-width="0.5"/>
<path d="M9.94598 48.5529H3.94598C1.44531 52.5529 1.44531 62.5529 1.94598 66.0529C0.445312 67.0529 0.44591 71.5529 1.44598 73.0529L5.44598 73.5529V75.0529L1.44598 77.0529V79.0529C5.44598 80.0529 13.946 82.0529 21.946 81.5529V80.0529H39.446C38.7793 71.5529 40.446 61.0529 49.446 54.0529C46.946 50.0529 39.946 45.5529 36.946 45.0529C26.946 44.0529 11.946 46.5529 9.94598 48.5529Z" stroke="black" stroke-width="0.5"/>
<path d="M92.9473 36.053C75.1139 36.8863 43.4473 41.753 32.9473 44.753L36.9473 45.053C41.9473 46.553 47.4473 50.8863 49.4473 54.053C62.4463 44.553 87.9463 51.553 86.4463 79.053H96.4463C89.4463 68.053 90.4463 46.053 92.9473 36.053Z" stroke="black" stroke-width="0.5"/>
<path d="M9.94531 48.553H3.94531C36.4455 29.0529 58.4456 35.053 84.4453 30.553L93.4456 36.053C76.4456 37.053 47.4453 40.553 33.4453 44.753C25.4453 44.553 11.4453 46.553 9.94531 48.553Z" stroke="black" stroke-width="0.5"/>
<path d="M36.9468 45.0531C29.4468 44.053 12.4468 46.053 9.94677 48.5531C9.14677 50.953 12.2801 53.8863 13.9468 55.053C23.4468 56.553 36.9468 50.553 36.9468 45.0531Z" stroke="black" stroke-width="0.5"/>
<path d="M3.94601 48.553C10.946 49.553 4.94601 60.053 1.94601 65.053C1.44594 58.053 1.9458 52.553 3.94601 48.553Z" stroke="black" stroke-width="0.5"/>
<path d="M21.9453 84.553V80.053H39.4453L39.9453 84.553H21.9453Z" stroke="black" stroke-width="0.5"/>
<path d="M2.44727 66.0527C3.94727 68.5527 5.94727 71.7194 5.44727 73.5527M21.9473 80.0527C11.4473 80.5527 6.94727 76.5527 7.94727 73.0527C8.44727 72.5527 9.94727 71.0527 10.9473 71.0527" stroke="black" stroke-width="0.5"/>
<path d="M5.94727 66.0529C8.19721 65.5529 11.0721 64.9279 13.8221 64.5529M13.8221 64.5529C16.5721 64.1779 19.1972 64.0529 20.9473 64.5529C23.9473 66.0529 29.4473 71.0529 31.9473 75.0529C26.9473 76.0529 19.9473 75.5529 15.4473 75.5529C12.7547 75.5529 11.4473 73.2195 11.4473 72.0529C10.9473 69.0529 12.1971 65.8862 13.8221 64.5529Z" stroke="black" stroke-width="0.5"/>
<path d="M11.4473 71.5529C19.4473 70.053 22.9473 72.6815 25.9473 74.1815M12.9473 74.553L30.4473 74.053" stroke="black" stroke-width="0.5"/>
<path d="M21.9453 83.0527H31.4453C33.4453 83.0527 34.9453 81.0527 34.4453 80.0527M37.9453 80.0527V84.5527" stroke="black" stroke-width="0.5"/>
<path d="M21.9472 81.5532C17.4472 81.5532 12.9472 82.0532 1.44721 79.0532V77.0532L5.44721 75.0532V73.5532L1.44721 73.0532C0.946289 71.553 -0.0535151 68.553 1.94648 66.053C1.44672 58.053 1.94672 51.553 3.94721 48.5527C36.4472 29.0531 58.4472 35.0532 84.4472 30.5532C162.447 -24.4469 244.447 12.553 281.447 27.0532L294.947 29.053L295.447 36.053V39.053C296.946 44.053 298.281 48.553 296.947 50.553C299.447 51.553 301.947 54.7196 301.947 56.553L299.947 66.553C300.399 77.4009 297.991 77.6252 288.66 77.9376C287.668 77.9708 285.599 78.005 284.447 78.053V79.553L259.447 79.984M21.9472 81.5532V84.5532H39.9456L39.4472 80.0532M21.9472 81.5532V80.0532H39.4472M39.4472 80.0532C36.4472 38.5532 89.9472 41.5532 86.4472 80.5532V83.053H212.947C206.947 39.553 261.447 39.553 259.447 79.984M258.946 79.984H259.447" stroke="black"/>
</svg>
