<svg width="303" height="96" viewBox="0 0 303 96" fill="none" xmlns="http://www.w3.org/2000/svg">
<circle cx="62.876" cy="74.0151" r="20.5" fill="#EFC7D3" stroke="black"/>
<circle cx="235.876" cy="74.0151" r="20.5" fill="#EFC7D3" stroke="black"/>
<path d="M132.874 12.515L131.374 9.01499C171.374 1.0151 192.874 1.51514 231.874 13.0151L228.374 17.5151C208.374 9.51505 190.374 8.51505 174.374 8.01511C171.874 7.51511 167.874 7.51508 165.374 8.01499C155.374 8.01511 143.374 9.51511 132.874 12.515Z" fill="#EFC7D3" stroke="black" stroke-width="0.5"/>
<path d="M131.374 9.01518L130.874 7.51518C166.874 -3.48486 199.374 0.515011 234.874 9.51518L231.874 13.0152C191.874 0.515137 165.874 2.01514 131.374 9.01518Z" fill="#EFC7D3" stroke="black" stroke-width="0.5"/>
<path d="M131.374 9.01512C182.874 -2.4849 211.374 7.51514 231.874 13.0151" stroke="black" stroke-width="0.5"/>
<path d="M170.876 30.0151L174.376 8.01514C207.876 9.01514 219.376 14.5151 223.876 16.0151L226.359 28.0151C199.369 28.0158 181.874 29.5152 170.876 30.0151Z" fill="#EFC7D3"/>
<path d="M226.876 30.5151L223.876 16.0151C219.376 14.5151 207.876 9.01514 174.376 8.01514L170.876 30.0151C181.876 29.5151 199.376 28.0151 226.376 28.0151" stroke="black" stroke-width="0.5"/>
<path d="M165.376 8.01514C132.376 9.01514 112.376 18.0151 93.376 35.5151L95.876 33.5151L159.876 30.5151L165.376 8.01514Z" fill="#EFC7D3" stroke="black" stroke-width="0.5"/>
<path d="M239.874 22.5151C236.207 19.8485 230.374 17.5151 223.874 16.0151L226.374 28.0151H232.874C235.874 26.5151 238.874 24.2839 239.874 22.5151Z" fill="#EFC7D3" stroke="black" stroke-width="0.5"/>
<path d="M96.876 78.5151H163.876L198.376 77.0151H212.876L213.376 82.5151H199.376H98.376H86.876V78.5151H96.876Z" fill="#EFC7D3"/>
<path d="M96.876 78.5151H163.876L198.376 77.0151M96.876 78.5151C96.876 80.0151 97.376 81.0151 98.376 82.5151M96.876 78.5151H86.876V82.5151H98.376M198.376 77.0151L199.376 82.5151M198.376 77.0151H212.876L213.376 82.5151H199.376M199.376 82.5151H98.376" stroke="black" stroke-width="0.5"/>
<path d="M96.8751 78.5151C92.376 74.0151 89.376 52.0151 93.3751 35.5151L165.376 31.5151C161.376 36.5151 160.376 70.5151 163.876 78.5151H96.8751Z" fill="#EFC7D3" stroke="black" stroke-width="0.5"/>
<path d="M228.876 30.5151L165.376 31.5151C161.376 36.5151 160.376 70.5151 163.876 78.5151L198.376 77.0151C202.876 75.5151 209.376 70.0151 228.876 30.5151Z" fill="#EFC7D3" stroke="black" stroke-width="0.5"/>
<path d="M170.876 30.0152C166.376 30.5152 162.876 30.5152 159.876 30.5152L165.376 8.01521C168.376 7.51514 171.376 7.51514 174.376 8.01521L170.876 30.0152Z" fill="#EFC7D3" stroke="black" stroke-width="0.5"/>
<path d="M99.376 32.0153C103.876 37.5153 110.876 34.0153 114.876 32.5153C115.876 17.0152 102.876 25.0151 99.376 32.0153Z" fill="#EFC7D3" stroke="black" stroke-width="0.5"/>
<path d="M234.874 9.51514L231.874 13.0151C248.874 18.5151 259.374 21.5151 271.874 28.0151H273.374L281.374 26.5151C266.374 20.0151 258.874 17.5151 234.874 9.51514Z" fill="#EDADBF" stroke="black" stroke-width="0.5"/>
<path d="M271.874 28.0151C261.374 22.5151 242.374 16.0151 231.874 13.0151L229.874 15.5151L244.874 23.0151C243.374 25.5151 239.374 27.5151 233.374 30.2151C245.374 29.5151 262.374 28.5151 271.874 28.0151Z" fill="#EDADBF" stroke="black" stroke-width="0.5"/>
<path d="M277.376 34.3151L283.374 32.0151L272.875 28.0151L228.875 30.5151C221.375 45.5151 206.375 76.0151 198.375 77.0151H212.875C211.375 66.0151 220.875 42.5151 245.876 51.5151C256.376 46.0151 266.376 40.5151 277.376 34.3151Z" fill="#EDADBF" stroke="black" stroke-width="0.5"/>
<path d="M278.374 34.0152C266.374 40.5152 256.374 46.0152 245.874 51.5152C250.374 54.5151 260.874 60.5151 259.874 79.5151L284.874 79.0151V77.5151C293.374 76.5151 301.874 80.0151 300.374 66.0151L302.374 56.0151C302.374 54.5151 299.874 50.5151 297.374 50.0151C298.874 47.5151 295.874 38.5151 295.874 38.5151V37.0151L291.874 34.0151L286.874 32.5151L283.374 32.0151L278.374 34.0152Z" fill="#EDADBF" stroke="black" stroke-width="0.5"/>
<path d="M281.374 26.5151L272.874 28.0151L283.374 32.0151C292.874 33.0151 291.873 34.5151 295.868 36.9353L295.374 28.5151L281.374 26.5151Z" fill="#EDADBF"/>
<path d="M295.874 37.0151L295.868 36.9353M295.868 36.9353L295.374 28.5151L281.374 26.5151L272.874 28.0151L283.374 32.0151C292.874 33.0151 291.873 34.5151 295.868 36.9353Z" stroke="black" stroke-width="0.5"/>
<path d="M294.376 36.5153C293.876 34.0152 282.876 33.8151 277.376 34.3151" stroke="black" stroke-width="0.5"/>
<path d="M300.376 66.5151L260.876 68.5151C260.376 63.5151 258.209 59.3485 256.376 57.5151L302.376 55.0151M300.876 52.5151C289.876 51.0151 278.876 46.2151 266.876 40.2151M228.876 30.5151L272.876 28.0151L281.376 26.5151" stroke="black" stroke-width="0.5"/>
<path d="M290.876 40.5151C290.876 38.5151 289.876 34.5151 286.376 32.5151C288.597 32.5151 291.974 33.5555 294.485 35.9251C294.949 37.4551 293.876 41.0151 290.834 42.5151C290.821 41.9249 290.876 41.2394 290.876 40.5151Z" fill="#EDADBF"/>
<path d="M272.876 43.0151C279.872 43.3649 285.889 43.47 291.269 44.0151M297.876 45.0151C295.773 44.5645 293.58 44.2492 291.269 44.0151M295.876 37.5151C295.458 36.93 294.989 36.4008 294.485 35.9251M291.269 44.0151C290.943 43.6704 290.849 43.1473 290.834 42.5151M290.834 42.5151C290.821 41.9249 290.876 41.2394 290.876 40.5151C290.876 38.5151 289.876 34.5151 286.376 32.5151C288.597 32.5151 291.974 33.5555 294.485 35.9251M290.834 42.5151C293.876 41.0151 294.949 37.4551 294.485 35.9251" stroke="black" stroke-width="0.5"/>
<path d="M290.876 40.5151C286.376 40.5151 284.376 36.5151 283.376 34.0151" stroke="black" stroke-width="0.5"/>
<path d="M132.874 12.6151C119.374 16.6151 107.374 22.5151 93.374 35.5151C100.374 23.5151 115.874 14.0151 131.374 9.01514L132.874 12.6151Z" stroke="black" stroke-width="0.5"/>
<path d="M131.374 9.01514C111.374 14.6892 93.374 32.0151 85.374 30.0151C98.374 20.5151 114.374 12.0151 130.874 7.51514L131.374 9.01514Z" stroke="black" stroke-width="0.5"/>
<path d="M10.3747 48.0151H4.37469C1.87402 52.0151 1.87402 62.0151 2.37469 65.5151C0.874023 66.5151 0.874621 71.0151 1.87469 72.5151L5.87469 73.0151V74.5151L1.87469 76.5151V78.5151C5.87469 79.5151 14.3747 81.5151 22.3747 81.0151V79.5151H39.8747C39.208 71.0151 40.8747 60.5151 49.8747 53.5151C47.3747 49.5151 40.3747 45.0151 37.3747 44.5151C27.3747 43.5151 12.3747 46.0151 10.3747 48.0151Z" stroke="black" stroke-width="0.5"/>
<path d="M93.376 35.5151C75.5426 36.3485 43.876 41.2151 33.376 44.2151L37.376 44.5151C42.376 46.0151 47.876 50.3485 49.876 53.5151C62.875 44.0151 88.375 51.0151 86.875 78.5151H96.875C89.875 67.5151 90.875 45.5151 93.376 35.5151Z" stroke="black" stroke-width="0.5"/>
<path d="M10.374 48.0152H4.37402C36.8742 28.5151 58.8743 34.5151 84.874 30.0151L93.8743 35.5151C76.8743 36.5151 47.874 40.0151 33.874 44.2151C25.874 44.0151 11.874 46.0151 10.374 48.0152Z" stroke="black" stroke-width="0.5"/>
<path d="M37.3755 44.5152C29.8755 43.5151 12.8755 45.5151 10.3755 48.0152C9.57548 50.4152 12.7088 53.3485 14.3755 54.5151C23.8755 56.0151 37.3755 50.0151 37.3755 44.5152Z" stroke="black" stroke-width="0.5"/>
<path d="M4.37472 48.0151C11.3747 49.0151 5.37472 59.5151 2.37472 64.5151C1.87465 57.5151 2.37451 52.0151 4.37472 48.0151Z" stroke="black" stroke-width="0.5"/>
<path d="M22.374 84.0151V79.5151H39.874L40.374 84.0151H22.374Z" stroke="black" stroke-width="0.5"/>
<path d="M2.87598 65.5151C4.37598 68.0151 6.37598 71.1818 5.87598 73.0151M22.376 79.5151C11.876 80.0151 7.37598 76.0151 8.37598 72.5151C8.87598 72.0151 10.376 70.5151 11.376 70.5151" stroke="black" stroke-width="0.5"/>
<path d="M6.37598 65.5152C8.62592 65.0152 11.5008 64.3902 14.2508 64.0152M14.2508 64.0152C17.0008 63.6402 19.6259 63.5152 21.376 64.0152C24.376 65.5152 29.876 70.5151 32.376 74.5151C27.376 75.5151 20.376 75.0151 15.876 75.0151C13.1834 75.0151 11.876 72.6818 11.876 71.5151C11.376 68.5151 12.6258 65.3485 14.2508 64.0152Z" stroke="black" stroke-width="0.5"/>
<path d="M11.876 71.0152C19.876 69.5153 23.376 72.1437 26.376 73.6437M13.376 74.0153L30.876 73.5153" stroke="black" stroke-width="0.5"/>
<path d="M22.374 82.5151H31.874C33.874 82.5151 35.374 80.5151 34.874 79.5151M38.374 79.5151V84.0151" stroke="black" stroke-width="0.5"/>
<path d="M22.3759 81.0154C17.8759 81.0154 13.3759 81.5154 1.87592 78.5154V76.5154L5.87592 74.5154V73.0154L1.87592 72.5154C1.375 71.0151 0.375196 68.0151 2.37519 65.5151C1.87543 57.5151 2.37543 51.0151 4.37592 48.0149C36.8759 28.5153 58.8759 34.5153 84.8759 30.0153C162.876 -24.9848 244.876 12.0151 281.876 26.5153L295.376 28.5151L295.876 35.5151V38.5151C297.374 43.5151 298.709 48.0151 297.376 50.0151C299.876 51.0151 302.376 54.1818 302.376 56.0151L300.376 66.0151C300.828 76.863 298.42 77.0873 289.088 77.3998C288.097 77.433 286.028 77.4671 284.876 77.5151V79.0151L259.876 79.4462M22.3759 81.0154V84.0154H40.3743L39.8759 79.5154M22.3759 81.0154V79.5154H39.8759M39.8759 79.5154C36.8759 38.0154 90.3759 41.0154 86.8759 80.0154V82.5151H213.376C207.376 39.0151 261.876 39.0151 259.876 79.4462M259.374 79.4462H259.876" stroke="black"/>
</svg>
