<svg width="303" height="96" viewBox="0 0 303 96" fill="none" xmlns="http://www.w3.org/2000/svg">
<circle cx="62.6772" cy="74.553" r="20.5" stroke="black"/>
<circle cx="235.678" cy="74.553" r="20.5" stroke="black"/>
<path d="M132.676 13.0528L131.176 9.55283C171.176 1.55295 192.676 2.05298 231.676 13.5529L228.176 18.0529C208.176 10.0529 190.176 9.05289 174.176 8.55296C171.676 8.05296 167.676 8.05292 165.176 8.55283C155.176 8.55296 143.176 10.053 132.676 13.0528Z" fill="#E0426F" stroke="black" stroke-width="0.5"/>
<path d="M131.176 9.55302L130.676 8.05302C166.676 -2.94702 199.176 1.05285 234.676 10.053L231.676 13.553C191.676 1.05298 165.676 2.55298 131.176 9.55302Z" fill="#E0426F" stroke="black" stroke-width="0.5"/>
<path d="M131.176 9.55284C182.676 -1.94718 211.176 8.05286 231.676 13.5528" stroke="black" stroke-width="0.5"/>
<path d="M170.677 30.553L174.177 8.55298C207.677 9.55298 219.177 15.053 223.677 16.553L226.16 28.553C199.17 28.5536 181.675 30.0531 170.677 30.553Z" fill="#E0426F"/>
<path d="M226.677 31.053L223.677 16.553C219.177 15.053 207.677 9.55298 174.177 8.55298L170.677 30.553C181.677 30.053 199.177 28.553 226.177 28.553" stroke="black" stroke-width="0.5"/>
<path d="M165.177 8.55298C132.177 9.55298 112.177 18.553 93.1772 36.053L95.6772 34.053L159.677 31.053L165.177 8.55298Z" fill="#E0426F" stroke="black" stroke-width="0.5"/>
<path d="M239.676 23.053C236.009 20.3863 230.176 18.053 223.676 16.553L226.176 28.553H232.676C235.676 27.053 238.676 24.8217 239.676 23.053Z" fill="#E0426F" stroke="black" stroke-width="0.5"/>
<path d="M96.6772 79.053H163.677L198.177 77.553H212.677L213.177 83.053H199.177H98.1772H86.6772V79.053H96.6772Z" fill="#E0426F"/>
<path d="M96.6772 79.053H163.677L198.177 77.553M96.6772 79.053C96.6772 80.553 97.1772 81.553 98.1772 83.053M96.6772 79.053H86.6772V83.053H98.1772M198.177 77.553L199.177 83.053M198.177 77.553H212.677L213.177 83.053H199.177M199.177 83.053H98.1772" stroke="black" stroke-width="0.5"/>
<path d="M96.6764 79.053C92.1772 74.553 89.1773 52.553 93.1764 36.053L165.177 32.053C161.177 37.053 160.177 71.053 163.677 79.053H96.6764Z" fill="#E0426F" stroke="black" stroke-width="0.5"/>
<path d="M228.677 31.053L165.177 32.053C161.177 37.053 160.177 71.053 163.677 79.053L198.177 77.553C202.677 76.053 209.177 70.553 228.677 31.053Z" fill="#E0426F" stroke="black" stroke-width="0.5"/>
<path d="M170.677 30.5531C166.177 31.0531 162.677 31.0531 159.677 31.0531L165.177 8.55305C168.177 8.05298 171.177 8.05298 174.177 8.55305L170.677 30.5531Z" fill="#E0426F" stroke="black" stroke-width="0.5"/>
<path d="M99.1772 32.553C103.677 38.053 110.677 34.553 114.677 33.053C115.677 17.5529 102.677 25.5529 99.1772 32.553Z" fill="#E0426F" stroke="black" stroke-width="0.5"/>
<path d="M234.676 10.053L231.676 13.553C248.676 19.053 259.176 22.053 271.676 28.553H273.176L281.176 27.053C266.176 20.553 258.676 18.053 234.676 10.053Z" fill="#EDADBF" stroke="black" stroke-width="0.5"/>
<path d="M271.676 28.553C261.176 23.053 242.176 16.553 231.676 13.553L229.676 16.053L244.676 23.553C243.176 26.053 239.176 28.053 233.176 30.753C245.176 30.053 262.176 29.053 271.676 28.553Z" fill="#EDADBF" stroke="black" stroke-width="0.5"/>
<path d="M277.178 34.853L283.176 32.553L272.677 28.553L228.677 31.053C221.177 46.053 206.177 76.553 198.177 77.553H212.677C211.177 66.553 220.677 43.053 245.678 52.053C256.178 46.553 266.178 41.053 277.178 34.853Z" fill="#EDADBF" stroke="black" stroke-width="0.5"/>
<path d="M278.176 34.553C266.176 41.053 256.176 46.553 245.676 52.053C250.176 55.053 260.676 61.053 259.676 80.053L284.676 79.553V78.053C293.176 77.053 301.676 80.553 300.176 66.553L302.176 56.553C302.176 55.053 299.676 51.053 297.176 50.553C298.676 48.053 295.676 39.053 295.676 39.053V37.553L291.676 34.553L286.676 33.053L283.176 32.553L278.176 34.553Z" fill="#EDADBF" stroke="black" stroke-width="0.5"/>
<path d="M281.176 27.053L272.676 28.553L283.176 32.553C292.676 33.553 291.675 35.053 295.67 37.4732L295.176 29.053L281.176 27.053Z" fill="#EDADBF"/>
<path d="M295.676 37.553L295.67 37.4732M295.67 37.4732L295.176 29.053L281.176 27.053L272.676 28.553L283.176 32.553C292.676 33.553 291.675 35.053 295.67 37.4732Z" stroke="black" stroke-width="0.5"/>
<path d="M294.178 37.0532C293.678 34.5531 282.678 34.353 277.178 34.853" stroke="black" stroke-width="0.5"/>
<path d="M300.178 67.053L260.678 69.053C260.178 64.053 258.011 59.8863 256.178 58.053L302.178 55.553M300.678 53.053C289.678 51.553 278.678 46.753 266.678 40.753M228.678 31.053L272.678 28.553L281.178 27.053" stroke="black" stroke-width="0.5"/>
<path d="M290.678 41.053C290.678 39.053 289.678 35.053 286.178 33.053C288.399 33.053 291.775 34.0934 294.287 36.463C294.75 37.993 293.678 41.553 290.636 43.053C290.622 42.4627 290.678 41.7773 290.678 41.053Z" fill="#EDADBF"/>
<path d="M272.678 43.553C279.673 43.9028 285.69 44.0079 291.071 44.553M297.678 45.553C295.575 45.1023 293.381 44.7871 291.071 44.553M295.678 38.053C295.26 37.4679 294.791 36.9386 294.287 36.463M291.071 44.553C290.745 44.2082 290.651 43.6852 290.636 43.053M290.636 43.053C290.622 42.4627 290.678 41.7773 290.678 41.053C290.678 39.053 289.678 35.053 286.178 33.053C288.399 33.053 291.775 34.0934 294.287 36.463M290.636 43.053C293.678 41.553 294.75 37.993 294.287 36.463" stroke="black" stroke-width="0.5"/>
<path d="M290.678 41.053C286.178 41.053 284.178 37.053 283.178 34.553" stroke="black" stroke-width="0.5"/>
<path d="M132.676 13.153C119.176 17.153 107.176 23.053 93.1758 36.053C100.176 24.053 115.676 14.553 131.176 9.55298L132.676 13.153Z" stroke="black" stroke-width="0.5"/>
<path d="M131.176 9.55298C111.176 15.227 93.1758 32.553 85.1758 30.553C98.1758 21.053 114.176 12.553 130.676 8.05298L131.176 9.55298Z" stroke="black" stroke-width="0.5"/>
<path d="M10.1764 48.5529H4.17645C1.67578 52.5529 1.67578 62.5529 2.17645 66.0529C0.675781 67.0529 0.676379 71.5529 1.67645 73.0529L5.67645 73.5529V75.0529L1.67645 77.0529V79.0529C5.67645 80.0529 14.1764 82.0529 22.1764 81.5529V80.0529H39.6764C39.0098 71.5529 40.6764 61.0529 49.6764 54.0529C47.1764 50.0529 40.1764 45.5529 37.1764 45.0529C27.1764 44.0529 12.1764 46.5529 10.1764 48.5529Z" stroke="black" stroke-width="0.5"/>
<path d="M93.1772 36.053C75.3439 36.8863 43.6772 41.753 33.1772 44.753L37.1772 45.053C42.1772 46.553 47.6772 50.8863 49.6772 54.053C62.6763 44.553 88.1763 51.553 86.6763 79.053H96.6763C89.6763 68.053 90.6763 46.053 93.1772 36.053Z" stroke="black" stroke-width="0.5"/>
<path d="M10.1758 48.553H4.17578C36.676 29.0529 58.676 35.053 84.6758 30.553L93.676 36.053C76.676 37.053 47.6758 40.553 33.6758 44.753C25.6758 44.553 11.6758 46.553 10.1758 48.553Z" stroke="black" stroke-width="0.5"/>
<path d="M37.1772 45.0531C29.6772 44.053 12.6772 46.053 10.1772 48.5531C9.37724 50.953 12.5106 53.8863 14.1772 55.053C23.6772 56.553 37.1772 50.553 37.1772 45.0531Z" stroke="black" stroke-width="0.5"/>
<path d="M4.17648 48.553C11.1765 49.553 5.17648 60.053 2.17648 65.053C1.67641 58.053 2.17627 52.553 4.17648 48.553Z" stroke="black" stroke-width="0.5"/>
<path d="M22.1758 84.553V80.053H39.6758L40.1758 84.553H22.1758Z" stroke="black" stroke-width="0.5"/>
<path d="M2.67773 66.0527C4.17773 68.5527 6.17773 71.7194 5.67773 73.5527M22.1777 80.0527C11.6777 80.5527 7.17773 76.5527 8.17773 73.0527C8.67773 72.5527 10.1777 71.0527 11.1777 71.0527" stroke="black" stroke-width="0.5"/>
<path d="M6.17773 66.0529C8.42768 65.5529 11.3026 64.9279 14.0525 64.5529M14.0525 64.5529C16.8026 64.1779 19.4277 64.0529 21.1777 64.5529C24.1777 66.0529 29.6777 71.0529 32.1777 75.0529C27.1777 76.0529 20.1777 75.5529 15.6777 75.5529C12.9852 75.5529 11.6777 73.2195 11.6777 72.0529C11.1777 69.0529 12.4276 65.8862 14.0525 64.5529Z" stroke="black" stroke-width="0.5"/>
<path d="M11.6777 71.5529C19.6777 70.053 23.1777 72.6815 26.1777 74.1815M13.1777 74.553L30.6777 74.053" stroke="black" stroke-width="0.5"/>
<path d="M22.1758 83.0527H31.6758C33.6758 83.0527 35.1758 81.0527 34.6758 80.0527M38.1758 80.0527V84.5527" stroke="black" stroke-width="0.5"/>
<path d="M22.1772 81.5532C17.6772 81.5532 13.1772 82.0532 1.67719 79.0532V77.0532L5.67719 75.0532V73.5532L1.67719 73.0532C1.17627 71.553 0.176465 68.553 2.17646 66.053C1.6767 58.053 2.1767 51.553 4.17719 48.5527C36.6772 29.0531 58.6772 35.0532 84.6772 30.5532C162.677 -24.4469 244.677 12.553 281.677 27.0532L295.177 29.053L295.677 36.053V39.053C297.176 44.053 298.511 48.553 297.177 50.553C299.677 51.553 302.177 54.7196 302.177 56.553L300.177 66.553C300.629 77.4009 298.221 77.6252 288.889 77.9376C287.898 77.9708 285.829 78.005 284.677 78.053V79.553L259.677 79.984M22.1772 81.5532V84.5532H40.1755L39.6772 80.0532M22.1772 81.5532V80.0532H39.6772M39.6772 80.0532C36.6772 38.5532 90.1772 41.5532 86.6772 80.5532V83.053H213.177C207.177 39.553 261.677 39.553 259.677 79.984M259.176 79.984H259.677" stroke="black"/>
</svg>
