<svg width="303" height="95" viewBox="0 0 303 95" fill="none" xmlns="http://www.w3.org/2000/svg">
<circle cx="62.8545" cy="73.8914" r="20.5" fill="#EFC7D3" stroke="black"/>
<circle cx="235.854" cy="73.8914" r="20.5" fill="#EFC7D3" stroke="black"/>
<path d="M132.853 12.3912L131.353 8.89121C171.353 0.891325 192.853 1.39136 231.853 12.8913L228.353 17.3913C208.353 9.39127 190.353 8.39127 174.353 7.89133C171.853 7.39133 167.853 7.3913 165.353 7.89121C155.353 7.89133 143.353 9.39134 132.853 12.3912Z" fill="#E0426F" stroke="black" stroke-width="0.5"/>
<path d="M131.353 8.8914L130.853 7.3914C166.853 -3.60864 199.353 0.391232 234.853 9.3914L231.853 12.8914C191.853 0.391357 165.853 1.89136 131.353 8.8914Z" fill="#E0426F" stroke="black" stroke-width="0.5"/>
<path d="M131.353 8.89122C182.853 -2.6088 211.353 7.39124 231.853 12.8912" stroke="black" stroke-width="0.5"/>
<path d="M170.854 29.8914L174.354 7.89136C207.854 8.89136 219.354 14.3914 223.854 15.8914L226.337 27.8914C199.347 27.892 181.852 29.3915 170.854 29.8914Z" fill="#E0426F"/>
<path d="M226.854 30.3914L223.854 15.8914C219.354 14.3914 207.854 8.89136 174.354 7.89136L170.854 29.8914C181.854 29.3914 199.354 27.8914 226.354 27.8914" stroke="black" stroke-width="0.5"/>
<path d="M165.354 7.89136C132.354 8.89136 112.354 17.8914 93.3545 35.3914L95.8545 33.3914L159.854 30.3914L165.354 7.89136Z" fill="#E0426F" stroke="black" stroke-width="0.5"/>
<path d="M239.853 22.3914C236.186 19.7247 230.353 17.3914 223.853 15.8914L226.353 27.8914H232.853C235.853 26.3914 238.853 24.1601 239.853 22.3914Z" fill="#E0426F" stroke="black" stroke-width="0.5"/>
<path d="M96.8545 78.3914H163.854L198.354 76.8914H212.854L213.354 82.3914H199.354H98.3545H86.8545V78.3914H96.8545Z" fill="#E0426F"/>
<path d="M96.8545 78.3914H163.854L198.354 76.8914M96.8545 78.3914C96.8545 79.8914 97.3545 80.8914 98.3545 82.3914M96.8545 78.3914H86.8545V82.3914H98.3545M198.354 76.8914L199.354 82.3914M198.354 76.8914H212.854L213.354 82.3914H199.354M199.354 82.3914H98.3545" stroke="black" stroke-width="0.5"/>
<path d="M96.8536 78.3914C92.3545 73.8914 89.3545 51.8914 93.3536 35.3914L165.354 31.3914C161.354 36.3914 160.354 70.3914 163.854 78.3914H96.8536Z" fill="#E0426F" stroke="black" stroke-width="0.5"/>
<path d="M228.854 30.3914L165.354 31.3914C161.355 36.3914 160.355 70.3914 163.854 78.3914L198.354 76.8914C202.854 75.3914 209.354 69.8914 228.854 30.3914Z" fill="#E0426F" stroke="black" stroke-width="0.5"/>
<path d="M170.854 29.8914C166.354 30.3914 162.854 30.3914 159.854 30.3914L165.354 7.89143C168.354 7.39136 171.354 7.39136 174.354 7.89143L170.854 29.8914Z" fill="#E0426F" stroke="black" stroke-width="0.5"/>
<path d="M99.3545 31.8914C103.854 37.3914 110.854 33.8914 114.854 32.3914C115.854 16.8913 102.854 24.8912 99.3545 31.8914Z" fill="#E0426F" stroke="black" stroke-width="0.5"/>
<path d="M234.853 9.39136L231.853 12.8914C248.853 18.3914 259.353 21.3914 271.853 27.8914H273.353L281.353 26.3914C266.353 19.8914 258.853 17.3914 234.853 9.39136Z" fill="#E0426F" stroke="black" stroke-width="0.5"/>
<path d="M271.853 27.8914C261.353 22.3914 242.353 15.8914 231.853 12.8914L229.853 15.3914L244.853 22.8914C243.353 25.3914 239.353 27.3914 233.353 30.0914C245.353 29.3914 262.353 28.3914 271.853 27.8914Z" fill="#E0426F" stroke="black" stroke-width="0.5"/>
<path d="M277.354 34.1914L283.353 31.8914L272.854 27.8914L228.854 30.3914C221.354 45.3914 206.354 75.8914 198.354 76.8914H212.854C211.354 65.8914 220.854 42.3914 245.854 51.3914C256.354 45.8914 266.354 40.3914 277.354 34.1914Z" fill="#E0426F" stroke="black" stroke-width="0.5"/>
<path d="M278.353 33.8914C266.353 40.3914 256.353 45.8914 245.853 51.3914C250.353 54.3914 260.853 60.3914 259.853 79.3914L284.853 78.8914V77.3914C293.353 76.3914 301.853 79.8914 300.353 65.8914L302.353 55.8914C302.353 54.3914 299.853 50.3914 297.353 49.8914C298.853 47.3914 295.853 38.3914 295.853 38.3914V36.8914L291.853 33.8914L286.853 32.3914L283.353 31.8914L278.353 33.8914Z" fill="#E0426F" stroke="black" stroke-width="0.5"/>
<path d="M281.353 26.3914L272.853 27.8914L283.353 31.8914C292.853 32.8914 291.851 34.3914 295.847 36.8115L295.353 28.3914L281.353 26.3914Z" fill="#E0426F"/>
<path d="M295.853 36.8914L295.847 36.8115M295.847 36.8115L295.353 28.3914L281.353 26.3914L272.853 27.8914L283.353 31.8914C292.853 32.8914 291.851 34.3914 295.847 36.8115Z" stroke="black" stroke-width="0.5"/>
<path d="M294.354 36.3916C293.854 33.8914 282.854 33.6914 277.354 34.1914" stroke="black" stroke-width="0.5"/>
<path d="M300.354 66.3914L260.854 68.3914C260.354 63.3914 258.188 59.2247 256.354 57.3914L302.354 54.8914M300.854 52.3914C289.854 50.8914 278.854 46.0914 266.854 40.0914M228.854 30.3914L272.854 27.8914L281.354 26.3914" stroke="black" stroke-width="0.5"/>
<path d="M290.854 40.3914C290.854 38.3914 289.854 34.3914 286.354 32.3914C288.575 32.3914 291.952 33.4317 294.463 35.8013C294.927 37.3313 293.854 40.8914 290.813 42.3914C290.799 41.8011 290.854 41.1156 290.854 40.3914Z" fill="#E0426F"/>
<path d="M272.854 42.8914C279.85 43.2411 285.867 43.3462 291.248 43.8914M297.854 44.8914C295.751 44.4407 293.558 44.1255 291.248 43.8914M295.854 37.3914C295.437 36.8062 294.967 36.277 294.463 35.8013M291.248 43.8914C290.921 43.5466 290.827 43.0235 290.813 42.3914M290.813 42.3914C290.799 41.8011 290.854 41.1156 290.854 40.3914C290.854 38.3914 289.854 34.3914 286.354 32.3914C288.575 32.3914 291.952 33.4317 294.463 35.8013M290.813 42.3914C293.854 40.8914 294.927 37.3313 294.463 35.8013" stroke="black" stroke-width="0.5"/>
<path d="M290.854 40.3914C286.354 40.3914 284.354 36.3914 283.354 33.8914" stroke="black" stroke-width="0.5"/>
<path d="M132.853 12.4913C119.353 16.4913 107.353 22.3914 93.3525 35.3914C100.353 23.3914 115.853 13.8914 131.353 8.89136L132.853 12.4913Z" fill="#EDADBF" stroke="black" stroke-width="0.5"/>
<path d="M131.353 8.89136C111.353 14.5654 93.3525 31.8914 85.3525 29.8914C98.3525 20.3914 114.353 11.8914 130.853 7.39136L131.353 8.89136Z" fill="#EDADBF" stroke="black" stroke-width="0.5"/>
<path d="M10.3532 47.8912H4.35321C1.85254 51.8912 1.85254 61.8912 2.35321 65.3912C0.852539 66.3912 0.853137 70.8912 1.85321 72.3912L5.85321 72.8912V74.3912L1.85321 76.3912V78.3912C5.85321 79.3912 14.3532 81.3912 22.3532 80.8912V79.3912H39.8532C39.1865 70.8912 40.8532 60.3912 49.8532 53.3912C47.3532 49.3912 40.3532 44.8912 37.3532 44.3912C27.3532 43.3912 12.3532 45.8912 10.3532 47.8912Z" fill="#EDADBF" stroke="black" stroke-width="0.5"/>
<path d="M93.3545 35.3914C75.5212 36.2247 43.8545 41.0914 33.3545 44.0914L37.3545 44.3914C42.3545 45.8914 47.8545 50.2247 49.8545 53.3914C62.8535 43.8914 88.3535 50.8914 86.8535 78.3914H96.8535C89.8535 67.3914 90.8535 45.3914 93.3545 35.3914Z" fill="#EDADBF" stroke="black" stroke-width="0.5"/>
<path d="M10.3525 47.8914H4.35254C36.8527 28.3913 58.8528 34.3914 84.8525 29.8914L93.8528 35.3914C76.8528 36.3914 47.8525 39.8914 33.8525 44.0914C25.8525 43.8913 11.8525 45.8914 10.3525 47.8914Z" fill="#EDADBF" stroke="black" stroke-width="0.5"/>
<path d="M37.354 44.3914C29.854 43.3914 12.854 45.3914 10.354 47.8914C9.55399 50.2914 12.6873 53.2247 14.354 54.3914C23.854 55.8914 37.354 49.8914 37.354 44.3914Z" fill="#EDADBF" stroke="black" stroke-width="0.5"/>
<path d="M4.35323 47.8914C11.3532 48.8914 5.35323 59.3914 2.35323 64.3914C1.85316 57.3914 2.35303 51.8914 4.35323 47.8914Z" fill="#EDADBF" stroke="black" stroke-width="0.5"/>
<path d="M22.3525 83.8914V79.3914H39.8525L40.3525 83.8914H22.3525Z" fill="#EDADBF" stroke="black" stroke-width="0.5"/>
<path d="M2.85449 65.3911C4.35449 67.8911 6.35449 71.0578 5.85449 72.8911M22.3545 79.3911C11.8545 79.8911 7.35449 75.8911 8.35449 72.3911C8.85449 71.8911 10.3545 70.3911 11.3545 70.3911" stroke="black" stroke-width="0.5"/>
<path d="M32.3545 74.3912C29.8545 70.3912 24.3545 65.3913 21.3545 63.8913C19.6044 63.3913 16.9794 63.5163 14.2293 63.8913C12.6044 65.2246 11.3545 68.3912 11.8545 71.3912C11.8545 72.5579 13.1619 74.8912 15.8545 74.8912C20.3545 74.8912 27.3545 75.3912 32.3545 74.3912Z" fill="#EDADBF"/>
<path d="M6.35449 65.3913C8.60443 64.8913 11.4793 64.2663 14.2293 63.8913M14.2293 63.8913C16.9794 63.5163 19.6044 63.3913 21.3545 63.8913C24.3545 65.3913 29.8545 70.3912 32.3545 74.3912C27.3545 75.3912 20.3545 74.8912 15.8545 74.8912C13.1619 74.8912 11.8545 72.5579 11.8545 71.3912C11.3545 68.3912 12.6043 65.2246 14.2293 63.8913Z" stroke="black" stroke-width="0.5"/>
<path d="M11.8545 70.8913C19.8545 69.3914 23.3545 72.0198 26.3545 73.5198M13.3545 73.8914L30.8545 73.3914" stroke="black" stroke-width="0.5"/>
<path d="M22.3525 82.3911H31.8525C33.8525 82.3911 35.3525 80.3911 34.8525 79.3911M38.3525 79.3911V83.8911" stroke="black" stroke-width="0.5"/>
<path d="M22.3544 80.8916C17.8544 80.8916 13.3544 81.3916 1.85444 78.3916V76.3916L5.85444 74.3916V72.8916L1.85444 72.3916C1.35352 70.8914 0.353711 67.8914 2.35371 65.3914C1.85395 57.3914 2.35395 50.8914 4.35444 47.8911C36.8544 28.3915 58.8544 34.3915 84.8544 29.8915C162.854 -25.1086 244.854 11.8913 281.854 26.3915L295.354 28.3914L295.854 35.3914V38.3914C297.353 43.3914 298.688 47.8914 297.354 49.8914C299.854 50.8914 302.354 54.058 302.354 55.8914L300.354 65.8914C300.806 76.7393 298.398 76.9635 289.067 77.276C288.076 77.3092 286.007 77.3434 284.854 77.3914V78.8914L259.854 79.3224M22.3544 80.8916V83.8916H40.3528L39.8544 79.3916M22.3544 80.8916V79.3916H39.8544M39.8544 79.3916C36.8544 37.8916 90.3544 40.8916 86.8544 79.8916V82.3914H213.354C207.354 38.8914 261.854 38.8914 259.854 79.3224M259.353 79.3224H259.854" stroke="black"/>
</svg>
