<svg width="303" height="95" viewBox="0 0 303 95" fill="none" xmlns="http://www.w3.org/2000/svg">
<circle cx="62.667" cy="73.7222" r="20.5" stroke="black"/>
<circle cx="235.667" cy="73.7222" r="20.5" stroke="black"/>
<path d="M132.665 12.222L131.165 8.72202C171.165 0.722136 192.665 1.22217 231.665 12.7221L228.165 17.2221C208.165 9.22208 190.165 8.22208 174.165 7.72215C171.665 7.22215 167.665 7.22211 165.165 7.72202C155.165 7.72215 143.165 9.22215 132.665 12.222Z" fill="#E0426F" stroke="black" stroke-width="0.5"/>
<path d="M131.165 8.72221L130.665 7.22221C166.665 -3.77783 199.165 0.222042 234.665 9.22221L231.665 12.7222C191.665 0.222168 165.665 1.72217 131.165 8.72221Z" fill="#E0426F" stroke="black" stroke-width="0.5"/>
<path d="M131.165 8.72228C182.665 -2.77775 211.165 7.22229 231.665 12.7223" stroke="black" stroke-width="0.5"/>
<path d="M170.667 29.7222L174.167 7.72217C207.667 8.72217 219.167 14.2222 223.667 15.7222L226.15 27.7222C199.16 27.7228 181.665 29.2223 170.667 29.7222Z" fill="#E0426F"/>
<path d="M226.667 30.2222L223.667 15.7222C219.167 14.2222 207.667 8.72217 174.167 7.72217L170.667 29.7222C181.667 29.2222 199.167 27.7222 226.167 27.7222" stroke="black" stroke-width="0.5"/>
<path d="M165.167 7.72217C132.167 8.72217 112.167 17.7222 93.167 35.2222L95.667 33.2222L159.667 30.2222L165.167 7.72217Z" fill="#E0426F" stroke="black" stroke-width="0.5"/>
<path d="M239.665 22.2222C235.998 19.5555 230.165 17.2222 223.665 15.7222L226.165 27.7222H232.665C235.665 26.2222 238.665 23.9909 239.665 22.2222Z" fill="#E0426F" stroke="black" stroke-width="0.5"/>
<path d="M96.667 78.2222H163.667L198.167 76.7222H212.667L213.167 82.2222H199.167H98.167H86.667V78.2222H96.667Z" fill="#E0426F"/>
<path d="M96.667 78.2222H163.667L198.167 76.7222M96.667 78.2222C96.667 79.7222 97.167 80.7222 98.167 82.2222M96.667 78.2222H86.667V82.2222H98.167M198.167 76.7222L199.167 82.2222M198.167 76.7222H212.667L213.167 82.2222H199.167M199.167 82.2222H98.167" stroke="black" stroke-width="0.5"/>
<path d="M96.6661 78.2222C92.167 73.7222 89.167 51.7222 93.1661 35.2222L165.167 31.2222C161.167 36.2222 160.167 70.2222 163.667 78.2222H96.6661Z" fill="#E0426F" stroke="black" stroke-width="0.5"/>
<path d="M228.667 30.2222L165.167 31.2222C161.167 36.2222 160.167 70.2222 163.667 78.2222L198.167 76.7222C202.667 75.2222 209.167 69.7222 228.667 30.2222Z" fill="#E0426F" stroke="black" stroke-width="0.5"/>
<path d="M170.667 29.7222C166.167 30.2222 162.667 30.2222 159.667 30.2222L165.167 7.72224C168.167 7.22217 171.167 7.22217 174.167 7.72224L170.667 29.7222Z" fill="#E0426F" stroke="black" stroke-width="0.5"/>
<path d="M99.167 31.7224C103.667 37.2224 110.667 33.7224 114.667 32.2224C115.667 16.7223 102.667 24.7223 99.167 31.7224Z" fill="#E0426F" stroke="black" stroke-width="0.5"/>
<path d="M234.665 9.22217L231.665 12.7222C248.665 18.2222 259.165 21.2222 271.665 27.7222H273.165L281.165 26.2222C266.165 19.7222 258.665 17.2222 234.665 9.22217Z" fill="#E56E90" stroke="black" stroke-width="0.5"/>
<path d="M271.665 27.7222C261.165 22.2222 242.165 15.7222 231.665 12.7222L229.665 15.2222L244.665 22.7222C243.165 25.2222 239.165 27.2222 233.165 29.9222C245.165 29.2222 262.165 28.2222 271.665 27.7222Z" fill="#E56E90" stroke="black" stroke-width="0.5"/>
<path d="M277.167 34.0222L283.165 31.7222L272.666 27.7222L228.666 30.2222C221.166 45.2222 206.166 75.7222 198.166 76.7222H212.666C211.166 65.7222 220.666 42.2222 245.667 51.2222C256.167 45.7222 266.167 40.2222 277.167 34.0222Z" fill="#E56E90" stroke="black" stroke-width="0.5"/>
<path d="M278.165 33.7222C266.165 40.2222 256.165 45.7222 245.665 51.2222C250.165 54.2222 260.665 60.2222 259.665 79.2222L284.665 78.7222V77.2222C293.165 76.2222 301.665 79.7222 300.165 65.7222L302.165 55.7222C302.165 54.2222 299.665 50.2222 297.165 49.7222C298.665 47.2222 295.665 38.2222 295.665 38.2222V36.7222L291.665 33.7222L286.665 32.2222L283.165 31.7222L278.165 33.7222Z" fill="#E56E90" stroke="black" stroke-width="0.5"/>
<path d="M281.165 26.2222L272.665 27.7222L283.165 31.7222C292.665 32.7222 291.664 34.2222 295.659 36.6423L295.165 28.2222L281.165 26.2222Z" fill="#E56E90"/>
<path d="M295.665 36.7222L295.659 36.6423M295.659 36.6423L295.165 28.2222L281.165 26.2222L272.665 27.7222L283.165 31.7222C292.665 32.7222 291.664 34.2222 295.659 36.6423Z" stroke="black" stroke-width="0.5"/>
<path d="M294.167 36.2224C293.667 33.7223 282.667 33.5222 277.167 34.0222" stroke="black" stroke-width="0.5"/>
<path d="M300.167 66.2222L260.667 68.2222C260.167 63.2222 258 59.0555 256.167 57.2222L302.167 54.7222M300.667 52.2222C289.667 50.7222 278.667 45.9222 266.667 39.9222M228.667 30.2222L272.667 27.7222L281.167 26.2222" stroke="black" stroke-width="0.5"/>
<path d="M290.667 40.2222C290.667 38.2222 289.667 34.2222 286.167 32.2222C288.388 32.2222 291.765 33.2626 294.276 35.6322C294.74 37.1622 293.667 40.7222 290.625 42.2222C290.612 41.6319 290.667 40.9465 290.667 40.2222Z" fill="#E56E90"/>
<path d="M272.667 42.7222C279.663 43.072 285.68 43.177 291.06 43.7222M297.667 44.7222C295.564 44.2715 293.371 43.9563 291.06 43.7222M295.667 37.2222C295.249 36.637 294.78 36.1078 294.276 35.6322M291.06 43.7222C290.734 43.3774 290.64 42.8544 290.625 42.2222M290.625 42.2222C290.612 41.6319 290.667 40.9465 290.667 40.2222C290.667 38.2222 289.667 34.2222 286.167 32.2222C288.388 32.2222 291.765 33.2626 294.276 35.6322M290.625 42.2222C293.667 40.7222 294.74 37.1622 294.276 35.6322" stroke="black" stroke-width="0.5"/>
<path d="M290.667 40.2222C286.167 40.2222 284.167 36.2222 283.167 33.7222" stroke="black" stroke-width="0.5"/>
<path d="M132.665 12.3221C119.165 16.3221 107.165 22.2222 93.165 35.2222C100.165 23.2222 115.665 13.7222 131.165 8.72217L132.665 12.3221Z" fill="#EFC7D3" stroke="black" stroke-width="0.5"/>
<path d="M131.165 8.72217C111.165 14.3962 93.165 31.7222 85.165 29.7222C98.165 20.2222 114.165 11.7222 130.665 7.22217L131.165 8.72217Z" fill="#EFC7D3" stroke="black" stroke-width="0.5"/>
<path d="M10.1657 47.7221H4.16571C1.66504 51.722 1.66504 61.722 2.16571 65.222C0.665039 66.222 0.665637 70.722 1.66571 72.222L5.66571 72.722V74.222L1.66571 76.222V78.222C5.66571 79.222 14.1657 81.222 22.1657 80.722V79.222H39.6657C38.999 70.722 40.6657 60.222 49.6657 53.222C47.1657 49.222 40.1657 44.722 37.1657 44.2221C27.1657 43.222 12.1657 45.7221 10.1657 47.7221Z" fill="#EFC7D3" stroke="black" stroke-width="0.5"/>
<path d="M93.167 35.2222C75.3337 36.0555 43.667 40.9222 33.167 43.9222L37.167 44.2222C42.167 45.7222 47.667 50.0555 49.667 53.2222C62.666 43.7222 88.166 50.7222 86.666 78.2222H96.666C89.666 67.2222 90.666 45.2222 93.167 35.2222Z" fill="#EFC7D3" stroke="black" stroke-width="0.5"/>
<path d="M10.165 47.7222H4.16504C36.6652 28.2221 58.6653 34.2222 84.665 29.7222L93.6653 35.2222C76.6653 36.2222 47.665 39.7222 33.665 43.9222C25.665 43.7222 11.665 45.7222 10.165 47.7222Z" fill="#EFC7D3" stroke="black" stroke-width="0.5"/>
<path d="M37.1665 44.2222C29.6665 43.2222 12.6665 45.2222 10.1665 47.7222C9.36649 50.1222 12.4998 53.0555 14.1665 54.2222C23.6665 55.7222 37.1665 49.7222 37.1665 44.2222Z" fill="#EFC7D3" stroke="black" stroke-width="0.5"/>
<path d="M4.16573 47.7222C11.1657 48.7222 5.16573 59.2222 2.16573 64.2222C1.66566 57.2222 2.16553 51.7222 4.16573 47.7222Z" fill="#EFC7D3" stroke="black" stroke-width="0.5"/>
<path d="M22.165 83.7222V79.2222H39.665L40.165 83.7222H22.165Z" fill="#EFC7D3" stroke="black" stroke-width="0.5"/>
<path d="M2.66699 65.2222C4.16699 67.7222 6.16699 70.8888 5.66699 72.7222M22.167 79.2222C11.667 79.7222 7.16699 75.7222 8.16699 72.2222C8.66699 71.7222 10.167 70.2222 11.167 70.2222" stroke="black" stroke-width="0.5"/>
<path d="M32.167 74.2223C29.667 70.2223 24.167 65.2224 21.167 63.7224C19.4169 63.2224 16.7919 63.3474 14.0418 63.7224C12.4169 65.0557 11.167 68.2223 11.667 71.2223C11.667 72.389 12.9744 74.7223 15.667 74.7223C20.167 74.7223 27.167 75.2223 32.167 74.2223Z" fill="#EFC7D3"/>
<path d="M6.16699 65.2224C8.41693 64.7223 11.2918 64.0974 14.0418 63.7224M14.0418 63.7224C16.7919 63.3474 19.4169 63.2224 21.167 63.7224C24.167 65.2224 29.667 70.2223 32.167 74.2223C27.167 75.2223 20.167 74.7223 15.667 74.7223C12.9744 74.7223 11.667 72.389 11.667 71.2223C11.167 68.2223 12.4168 65.0557 14.0418 63.7224Z" stroke="black" stroke-width="0.5"/>
<path d="M11.667 70.7224C19.667 69.2224 23.167 71.8509 26.167 73.3509M13.167 73.7224L30.667 73.2224" stroke="black" stroke-width="0.5"/>
<path d="M22.165 82.2222H31.665C33.665 82.2222 35.165 80.2222 34.665 79.2222M38.165 79.2222V83.7222" stroke="black" stroke-width="0.5"/>
<path d="M22.1669 80.7224C17.6669 80.7224 13.1669 81.2224 1.66694 78.2224V76.2224L5.66694 74.2224V72.7224L1.66694 72.2224C1.16602 70.7222 0.166211 67.7222 2.16621 65.2222C1.66645 57.2222 2.16645 50.7222 4.16694 47.7219C36.6669 28.2223 58.6669 34.2224 84.6669 29.7224C162.667 -25.2778 244.667 11.7222 281.667 26.2223L295.167 28.2222L295.667 35.2222V38.2222C297.165 43.2222 298.5 47.7222 297.167 49.7222C299.667 50.7222 302.167 53.8888 302.167 55.7222L300.167 65.7222C300.619 76.5701 298.211 76.7944 288.879 77.1068C287.888 77.14 285.819 77.1742 284.667 77.2222V78.7222L259.667 79.1532M22.1669 80.7224V83.7224H40.1653L39.6669 79.2224M22.1669 80.7224V79.2224H39.6669M39.6669 79.2224C36.6669 37.7224 90.1669 40.7224 86.6669 79.7224V82.2222H213.167C207.167 38.7222 261.667 38.7222 259.667 79.1532M259.165 79.1532H259.667" stroke="black"/>
</svg>
