<svg width="303" height="96" viewBox="0 0 303 96" fill="none" xmlns="http://www.w3.org/2000/svg">
<circle cx="62.8652" cy="74.3687" r="20.5" fill="#EFC7D3" stroke="black"/>
<circle cx="235.865" cy="74.3687" r="20.5" fill="#EFC7D3" stroke="black"/>
<path d="M132.863 12.8685L131.363 9.36851C171.363 1.36862 192.863 1.86865 231.863 13.3686L228.363 17.8686C208.363 9.86856 190.363 8.86856 174.363 8.36863C171.863 7.86863 167.863 7.86859 165.363 8.36851C155.363 8.36863 143.363 9.86863 132.863 12.8685Z" fill="#EDADBF" stroke="black" stroke-width="0.5"/>
<path d="M131.363 9.3687L130.863 7.8687C166.863 -3.13135 199.363 0.868526 234.863 9.8687L231.863 13.3687C191.863 0.868652 165.863 2.36865 131.363 9.3687Z" fill="#EDADBF" stroke="black" stroke-width="0.5"/>
<path d="M131.363 9.36876C182.863 -2.13126 211.363 7.86877 231.863 13.3688" stroke="black" stroke-width="0.5"/>
<path d="M170.865 30.3687L174.365 8.36865C207.865 9.36865 219.365 14.8687 223.865 16.3687L226.348 28.3687C199.358 28.3693 181.863 29.8688 170.865 30.3687Z" fill="#EDADBF"/>
<path d="M226.865 30.8687L223.865 16.3687C219.365 14.8687 207.865 9.36865 174.365 8.36865L170.865 30.3687C181.865 29.8687 199.365 28.3687 226.365 28.3687" stroke="black" stroke-width="0.5"/>
<path d="M165.365 8.36865C132.365 9.36865 112.365 18.3687 93.3652 35.8687L95.8652 33.8687L159.865 30.8687L165.365 8.36865Z" fill="#EDADBF" stroke="black" stroke-width="0.5"/>
<path d="M239.863 22.8687C236.197 20.202 230.363 17.8687 223.863 16.3687L226.363 28.3687H232.863C235.863 26.8687 238.863 24.6374 239.863 22.8687Z" fill="#EDADBF" stroke="black" stroke-width="0.5"/>
<path d="M96.8652 78.8687H163.865L198.365 77.3687H212.865L213.365 82.8687H199.365H98.3652H86.8652V78.8687H96.8652Z" fill="#EDADBF"/>
<path d="M96.8652 78.8687H163.865L198.365 77.3687M96.8652 78.8687C96.8652 80.3687 97.3652 81.3687 98.3652 82.8687M96.8652 78.8687H86.8652V82.8687H98.3652M198.365 77.3687L199.365 82.8687M198.365 77.3687H212.865L213.365 82.8687H199.365M199.365 82.8687H98.3652" stroke="black" stroke-width="0.5"/>
<path d="M96.8644 78.8687C92.3652 74.3687 89.3653 52.3687 93.3644 35.8687L165.365 31.8687C161.365 36.8687 160.365 70.8687 163.865 78.8687H96.8644Z" fill="#EDADBF" stroke="black" stroke-width="0.5"/>
<path d="M228.865 30.8687L165.365 31.8687C161.365 36.8687 160.365 70.8687 163.865 78.8687L198.365 77.3687C202.865 75.8687 209.365 70.3687 228.865 30.8687Z" fill="#EDADBF" stroke="black" stroke-width="0.5"/>
<path d="M170.865 30.3687C166.365 30.8687 162.865 30.8687 159.865 30.8687L165.365 8.36873C168.365 7.86865 171.365 7.86865 174.365 8.36873L170.865 30.3687Z" fill="#EDADBF" stroke="black" stroke-width="0.5"/>
<path d="M99.3652 32.3689C103.865 37.8689 110.865 34.3689 114.865 32.8689C115.865 17.3688 102.865 25.3688 99.3652 32.3689Z" fill="#EDADBF" stroke="black" stroke-width="0.5"/>
<path d="M234.863 9.86865L231.863 13.3687C248.863 18.8687 259.363 21.8687 271.863 28.3687H273.363L281.363 26.8687C266.363 20.3687 258.863 17.8687 234.863 9.86865Z" fill="#E56E90" stroke="black" stroke-width="0.5"/>
<path d="M271.863 28.3687C261.363 22.8687 242.363 16.3687 231.863 13.3687L229.863 15.8687L244.863 23.3687C243.363 25.8687 239.363 27.8687 233.363 30.5687C245.363 29.8687 262.363 28.8687 271.863 28.3687Z" fill="#E56E90" stroke="black" stroke-width="0.5"/>
<path d="M277.365 34.6687L283.364 32.3687L272.864 28.3687L228.864 30.8687C221.364 45.8687 206.364 76.3687 198.364 77.3687H212.864C211.364 66.3687 220.864 42.8687 245.865 51.8687C256.365 46.3687 266.365 40.8687 277.365 34.6687Z" fill="#E56E90" stroke="black" stroke-width="0.5"/>
<path d="M278.363 34.3687C266.363 40.8687 256.363 46.3687 245.863 51.8687C250.363 54.8687 260.863 60.8687 259.863 79.8687L284.863 79.3687V77.8687C293.363 76.8687 301.863 80.3687 300.363 66.3687L302.363 56.3687C302.363 54.8687 299.863 50.8687 297.363 50.3687C298.863 47.8687 295.863 38.8687 295.863 38.8687V37.3687L291.863 34.3687L286.863 32.8687L283.363 32.3687L278.363 34.3687Z" fill="#E56E90" stroke="black" stroke-width="0.5"/>
<path d="M281.363 26.8687L272.863 28.3687L283.363 32.3687C292.863 33.3687 291.862 34.8687 295.857 37.2888L295.363 28.8687L281.363 26.8687Z" fill="#E56E90"/>
<path d="M295.863 37.3687L295.857 37.2888M295.857 37.2888L295.363 28.8687L281.363 26.8687L272.863 28.3687L283.363 32.3687C292.863 33.3687 291.862 34.8687 295.857 37.2888Z" stroke="black" stroke-width="0.5"/>
<path d="M294.365 36.8689C293.865 34.3687 282.865 34.1687 277.365 34.6687" stroke="black" stroke-width="0.5"/>
<path d="M300.365 66.8687L260.865 68.8687C260.365 63.8687 258.199 59.702 256.365 57.8687L302.365 55.3687M300.865 52.8687C289.865 51.3687 278.865 46.5687 266.865 40.5687M228.865 30.8687L272.865 28.3687L281.365 26.8687" stroke="black" stroke-width="0.5"/>
<path d="M290.865 40.8687C290.865 38.8687 289.865 34.8687 286.365 32.8687C288.586 32.8687 291.963 33.909 294.474 36.2786C294.938 37.8086 293.865 41.3687 290.823 42.8687C290.81 42.2784 290.865 41.5929 290.865 40.8687Z" fill="#E56E90"/>
<path d="M272.865 43.3687C279.861 43.7184 285.878 43.8235 291.258 44.3687M297.865 45.3687C295.762 44.918 293.569 44.6028 291.258 44.3687M295.865 37.8687C295.447 37.2835 294.978 36.7543 294.474 36.2786M291.258 44.3687C290.932 44.0239 290.838 43.5008 290.823 42.8687M290.823 42.8687C290.81 42.2784 290.865 41.5929 290.865 40.8687C290.865 38.8687 289.865 34.8687 286.365 32.8687C288.586 32.8687 291.963 33.909 294.474 36.2786M290.823 42.8687C293.865 41.3687 294.938 37.8086 294.474 36.2786" stroke="black" stroke-width="0.5"/>
<path d="M290.865 40.8687C286.365 40.8687 284.365 36.8687 283.365 34.3687" stroke="black" stroke-width="0.5"/>
<path d="M132.863 12.9686C119.363 16.9686 107.363 22.8687 93.3633 35.8687C100.363 23.8687 115.863 14.3687 131.363 9.36865L132.863 12.9686Z" fill="#E56E90" stroke="black" stroke-width="0.5"/>
<path d="M131.363 9.36865C111.363 15.0427 93.3633 32.3687 85.3633 30.3687C98.3633 20.8687 114.363 12.3687 130.863 7.86865L131.363 9.36865Z" fill="#E56E90" stroke="black" stroke-width="0.5"/>
<path d="M10.3639 48.3685H4.36395C1.86328 52.3685 1.86328 62.3685 2.36395 65.8685C0.863281 66.8685 0.863879 71.3685 1.86395 72.8685L5.86395 73.3685V74.8685L1.86395 76.8685V78.8685C5.86395 79.8685 14.3639 81.8685 22.3639 81.3685V79.8685H39.8639C39.1973 71.3685 40.8639 60.8685 49.8639 53.8685C47.3639 49.8685 40.3639 45.3685 37.3639 44.8685C27.3639 43.8685 12.3639 46.3685 10.3639 48.3685Z" fill="#E56E90" stroke="black" stroke-width="0.5"/>
<path d="M93.3652 35.8687C75.5319 36.702 43.8652 41.5687 33.3652 44.5687L37.3652 44.8687C42.3652 46.3687 47.8652 50.702 49.8652 53.8687C62.8643 44.3687 88.3643 51.3687 86.8643 78.8687H96.8643C89.8643 67.8687 90.8643 45.8687 93.3652 35.8687Z" fill="#E56E90" stroke="black" stroke-width="0.5"/>
<path d="M10.3633 48.3687H4.36328C36.8635 28.8686 58.8635 34.8687 84.8633 30.3687L93.8635 35.8687C76.8635 36.8687 47.8633 40.3686 33.8633 44.5687C25.8633 44.3686 11.8633 46.3686 10.3633 48.3687Z" fill="#E56E90" stroke="black" stroke-width="0.5"/>
<path d="M37.3647 44.8687C29.8647 43.8687 12.8647 45.8687 10.3647 48.3687C9.56474 50.7687 12.6981 53.702 14.3647 54.8687C23.8647 56.3687 37.3647 50.3687 37.3647 44.8687Z" fill="#E56E90" stroke="black" stroke-width="0.5"/>
<path d="M4.36398 48.3687C11.364 49.3687 5.36398 59.8687 2.36398 64.8687C1.86391 57.8687 2.36377 52.3687 4.36398 48.3687Z" fill="#E56E90" stroke="black" stroke-width="0.5"/>
<path d="M22.3633 84.3687V79.8687H39.8633L40.3633 84.3687H22.3633Z" fill="#E56E90" stroke="black" stroke-width="0.5"/>
<path d="M2.86523 65.8687C4.36523 68.3687 6.36523 71.5353 5.86523 73.3687M22.3652 79.8687C11.8652 80.3687 7.36523 76.3687 8.36523 72.8687C8.86523 72.3687 10.3652 70.8687 11.3652 70.8687" stroke="black" stroke-width="0.5"/>
<path d="M32.3652 74.8688C29.8652 70.8688 24.3652 65.8689 21.3652 64.3689C19.6152 63.8688 16.9901 63.9938 14.24 64.3689C12.6151 65.7022 11.3652 68.8688 11.8652 71.8688C11.8652 73.0354 13.1727 75.3688 15.8652 75.3688C20.3652 75.3688 27.3652 75.8688 32.3652 74.8688Z" fill="#E56E90"/>
<path d="M6.36523 65.8689C8.61518 65.3688 11.4901 64.7438 14.24 64.3689M14.24 64.3689C16.9901 63.9938 19.6152 63.8688 21.3652 64.3689C24.3652 65.8689 29.8652 70.8688 32.3652 74.8688C27.3652 75.8688 20.3652 75.3688 15.8652 75.3688C13.1727 75.3688 11.8652 73.0354 11.8652 71.8688C11.3652 68.8688 12.6151 65.7022 14.24 64.3689Z" stroke="black" stroke-width="0.5"/>
<path d="M11.8652 71.3688C19.8652 69.8689 23.3652 72.4974 26.3652 73.9974M13.3652 74.3689L30.8652 73.8689" stroke="black" stroke-width="0.5"/>
<path d="M22.3633 82.8687H31.8633C33.8633 82.8687 35.3633 80.8687 34.8633 79.8687M38.3633 79.8687V84.3687" stroke="black" stroke-width="0.5"/>
<path d="M22.3652 81.3689C17.8652 81.3689 13.3652 81.8689 1.86518 78.8689V76.8689L5.86518 74.8689V73.3689L1.86518 72.8689C1.36426 71.3687 0.364454 68.3687 2.36445 65.8687C1.86469 57.8687 2.36469 51.3687 4.36518 48.3684C36.8652 28.8688 58.8652 34.8688 84.8652 30.3688C162.865 -24.6313 244.865 12.3686 281.865 26.8688L295.365 28.8687L295.865 35.8687V38.8687C297.364 43.8687 298.699 48.3687 297.365 50.3687C299.865 51.3687 302.365 54.5353 302.365 56.3687L300.365 66.3687C300.817 77.2166 298.409 77.4408 289.077 77.7533C288.086 77.7865 286.017 77.8206 284.865 77.8687V79.3687L259.865 79.7997M22.3652 81.3689V84.3689H40.3635L39.8652 79.8689M22.3652 81.3689V79.8689H39.8652M39.8652 79.8689C36.8652 38.3689 90.3652 41.3689 86.8652 80.3689V82.8687H213.365C207.365 39.3687 261.865 39.3687 259.865 79.7997M259.364 79.7997H259.865" stroke="black"/>
</svg>
