<svg width="303" height="96" viewBox="0 0 303 96" fill="none" xmlns="http://www.w3.org/2000/svg">
<circle cx="62.4795" cy="74.553" r="20.5" fill="#E0426F" stroke="black"/>
<circle cx="235.479" cy="74.553" r="20.5" fill="#E0426F" stroke="black"/>
<path d="M132.478 13.0528L130.978 9.55283C170.978 1.55295 192.478 2.05298 231.478 13.5529L227.978 18.0529C207.978 10.0529 189.978 9.05289 173.978 8.55296C171.478 8.05296 167.478 8.05292 164.978 8.55283C154.978 8.55296 142.978 10.053 132.478 13.0528Z" fill="#E0426F" stroke="black" stroke-width="0.5"/>
<path d="M130.978 9.55302L130.478 8.05302C166.478 -2.94702 198.978 1.05285 234.478 10.053L231.478 13.553C191.478 1.05298 165.478 2.55298 130.978 9.55302Z" fill="#E0426F" stroke="black" stroke-width="0.5"/>
<path d="M130.978 9.55284C182.478 -1.94718 210.978 8.05286 231.478 13.5528" stroke="black" stroke-width="0.5"/>
<path d="M170.479 30.553L173.979 8.55298C207.479 9.55298 218.979 15.053 223.479 16.553L225.962 28.553C198.972 28.5536 181.477 30.0531 170.479 30.553Z" fill="#E0426F"/>
<path d="M226.479 31.053L223.479 16.553C218.979 15.053 207.479 9.55298 173.979 8.55298L170.479 30.553C181.479 30.053 198.979 28.553 225.979 28.553" stroke="black" stroke-width="0.5"/>
<path d="M164.979 8.55298C131.979 9.55298 111.979 18.553 92.9795 36.053L95.4795 34.053L159.479 31.053L164.979 8.55298Z" fill="#E0426F" stroke="black" stroke-width="0.5"/>
<path d="M239.478 23.053C235.811 20.3863 229.978 18.053 223.478 16.553L225.978 28.553H232.478C235.478 27.053 238.478 24.8217 239.478 23.053Z" fill="#E0426F" stroke="black" stroke-width="0.5"/>
<path d="M96.4795 79.053H163.479L197.979 77.553H212.479L212.979 83.053H198.979H97.9795H86.4795V79.053H96.4795Z" fill="#E0426F"/>
<path d="M96.4795 79.053H163.479L197.979 77.553M96.4795 79.053C96.4795 80.553 96.9795 81.553 97.9795 83.053M96.4795 79.053H86.4795V83.053H97.9795M197.979 77.553L198.979 83.053M197.979 77.553H212.479L212.979 83.053H198.979M198.979 83.053H97.9795" stroke="black" stroke-width="0.5"/>
<path d="M96.4786 79.053C91.9795 74.553 88.9795 52.553 92.9786 36.053L164.979 32.053C160.979 37.053 159.979 71.053 163.479 79.053H96.4786Z" fill="#E0426F" stroke="black" stroke-width="0.5"/>
<path d="M228.479 31.053L164.979 32.053C160.98 37.053 159.98 71.053 163.479 79.053L197.979 77.553C202.479 76.053 208.979 70.553 228.479 31.053Z" fill="#E0426F" stroke="black" stroke-width="0.5"/>
<path d="M170.479 30.5531C165.979 31.0531 162.479 31.0531 159.479 31.0531L164.979 8.55305C167.979 8.05298 170.979 8.05298 173.979 8.55305L170.479 30.5531Z" fill="#E0426F" stroke="black" stroke-width="0.5"/>
<path d="M98.9795 32.553C103.479 38.053 110.479 34.553 114.479 33.053C115.479 17.5529 102.479 25.5529 98.9795 32.553Z" fill="#E0426F" stroke="black" stroke-width="0.5"/>
<path d="M234.478 10.053L231.478 13.553C248.478 19.053 258.978 22.053 271.478 28.553H272.978L280.978 27.053C265.978 20.553 258.478 18.053 234.478 10.053Z" fill="#EFC7D3" stroke="black" stroke-width="0.5"/>
<path d="M271.478 28.553C260.978 23.053 241.978 16.553 231.478 13.553L229.478 16.053L244.478 23.553C242.978 26.053 238.978 28.053 232.978 30.753C244.978 30.053 261.978 29.053 271.478 28.553Z" fill="#EFC7D3" stroke="black" stroke-width="0.5"/>
<path d="M276.979 34.853L282.978 32.553L272.479 28.553L228.479 31.053C220.979 46.053 205.979 76.553 197.979 77.553H212.479C210.979 66.553 220.479 43.053 245.479 52.053C255.979 46.553 265.979 41.053 276.979 34.853Z" fill="#EFC7D3" stroke="black" stroke-width="0.5"/>
<path d="M277.978 34.553C265.978 41.053 255.978 46.553 245.478 52.053C249.978 55.053 260.478 61.053 259.478 80.053L284.478 79.553V78.053C292.978 77.053 301.478 80.553 299.978 66.553L301.978 56.553C301.978 55.053 299.478 51.053 296.978 50.553C298.478 48.053 295.478 39.053 295.478 39.053V37.553L291.478 34.553L286.478 33.053L282.978 32.553L277.978 34.553Z" fill="#EFC7D3" stroke="black" stroke-width="0.5"/>
<path d="M280.978 27.053L272.478 28.553L282.978 32.553C292.478 33.553 291.476 35.053 295.472 37.4732L294.978 29.053L280.978 27.053Z" fill="#EFC7D3"/>
<path d="M295.478 37.553L295.472 37.4732M295.472 37.4732L294.978 29.053L280.978 27.053L272.478 28.553L282.978 32.553C292.478 33.553 291.476 35.053 295.472 37.4732Z" stroke="black" stroke-width="0.5"/>
<path d="M293.979 37.0532C293.479 34.5531 282.479 34.353 276.979 34.853" stroke="black" stroke-width="0.5"/>
<path d="M299.979 67.053L260.479 69.053C259.979 64.053 257.813 59.8863 255.979 58.053L301.979 55.553M300.479 53.053C289.479 51.553 278.479 46.753 266.479 40.753M228.479 31.053L272.479 28.553L280.979 27.053" stroke="black" stroke-width="0.5"/>
<path d="M290.479 41.053C290.479 39.053 289.479 35.053 285.979 33.053C288.2 33.053 291.577 34.0934 294.088 36.463C294.552 37.993 293.479 41.553 290.438 43.053C290.424 42.4627 290.479 41.7773 290.479 41.053Z" fill="#EFC7D3"/>
<path d="M272.479 43.553C279.475 43.9028 285.492 44.0079 290.873 44.553M297.479 45.553C295.376 45.1023 293.183 44.7871 290.873 44.553M295.479 38.053C295.062 37.4679 294.592 36.9386 294.088 36.463M290.873 44.553C290.546 44.2082 290.452 43.6852 290.438 43.053M290.438 43.053C290.424 42.4627 290.479 41.7773 290.479 41.053C290.479 39.053 289.479 35.053 285.979 33.053C288.2 33.053 291.577 34.0934 294.088 36.463M290.438 43.053C293.479 41.553 294.552 37.993 294.088 36.463" stroke="black" stroke-width="0.5"/>
<path d="M290.479 41.053C285.979 41.053 283.979 37.053 282.979 34.553" stroke="black" stroke-width="0.5"/>
<path d="M132.478 13.153C118.978 17.153 106.978 23.053 92.978 36.053C99.978 24.053 115.478 14.553 130.978 9.55298L132.478 13.153Z" stroke="black" stroke-width="0.5"/>
<path d="M130.978 9.55298C110.978 15.227 92.978 32.553 84.978 30.553C97.978 21.053 113.978 12.553 130.478 8.05298L130.978 9.55298Z" stroke="black" stroke-width="0.5"/>
<path d="M9.97869 48.5529H3.97869C1.47803 52.5529 1.47803 62.5529 1.97869 66.0529C0.478027 67.0529 0.478625 71.5529 1.47869 73.0529L5.47869 73.5529V75.0529L1.47869 77.0529V79.0529C5.47869 80.0529 13.9787 82.0529 21.9787 81.5529V80.0529H39.4787C38.812 71.5529 40.4787 61.0529 49.4787 54.0529C46.9787 50.0529 39.9787 45.5529 36.9787 45.0529C26.9787 44.0529 11.9787 46.5529 9.97869 48.5529Z" stroke="black" stroke-width="0.5"/>
<path d="M92.9795 36.053C75.1462 36.8863 43.4795 41.753 32.9795 44.753L36.9795 45.053C41.9795 46.553 47.4795 50.8863 49.4795 54.053C62.4785 44.553 87.9785 51.553 86.4785 79.053H96.4785C89.4785 68.053 90.4785 46.053 92.9795 36.053Z" stroke="black" stroke-width="0.5"/>
<path d="M9.97754 48.553H3.97754C36.4777 29.0529 58.4778 35.053 84.4775 30.553L93.4778 36.053C76.4778 37.053 47.4775 40.553 33.4775 44.753C25.4775 44.553 11.4775 46.553 9.97754 48.553Z" stroke="black" stroke-width="0.5"/>
<path d="M36.9795 45.0531C29.4795 44.053 12.4795 46.053 9.97948 48.5531C9.17948 50.953 12.3128 53.8863 13.9795 55.053C23.4795 56.553 36.9795 50.553 36.9795 45.0531Z" stroke="black" stroke-width="0.5"/>
<path d="M3.97872 48.553C10.9787 49.553 4.97872 60.053 1.97872 65.053C1.47865 58.053 1.97852 52.553 3.97872 48.553Z" stroke="black" stroke-width="0.5"/>
<path d="M21.978 84.553V80.053H39.478L39.978 84.553H21.978Z" stroke="black" stroke-width="0.5"/>
<path d="M2.47949 66.0527C3.97949 68.5527 5.97949 71.7194 5.47949 73.5527M21.9795 80.0527C11.4795 80.5527 6.97949 76.5527 7.97949 73.0527C8.47949 72.5527 9.97949 71.0527 10.9795 71.0527" stroke="black" stroke-width="0.5"/>
<path d="M5.97949 66.0529C8.22943 65.5529 11.1043 64.9279 13.8543 64.5529M13.8543 64.5529C16.6044 64.1779 19.2294 64.0529 20.9795 64.5529C23.9795 66.0529 29.4795 71.0529 31.9795 75.0529C26.9795 76.0529 19.9795 75.5529 15.4795 75.5529C12.7869 75.5529 11.4795 73.2195 11.4795 72.0529C10.9795 69.0529 12.2293 65.8862 13.8543 64.5529Z" stroke="black" stroke-width="0.5"/>
<path d="M11.4795 71.5529C19.4795 70.053 22.9795 72.6815 25.9795 74.1815M12.9795 74.553L30.4795 74.053" stroke="black" stroke-width="0.5"/>
<path d="M21.9775 83.0527H31.4775C33.4775 83.0527 34.9775 81.0527 34.4775 80.0527M37.9775 80.0527V84.5527" stroke="black" stroke-width="0.5"/>
<path d="M21.9794 81.5532C17.4794 81.5532 12.9794 82.0532 1.47944 79.0532V77.0532L5.47944 75.0532V73.5532L1.47944 73.0532C0.978516 71.553 -0.0212885 68.553 1.97871 66.053C1.47895 58.053 1.97895 51.553 3.97944 48.5527C36.4794 29.0531 58.4794 35.0532 84.4794 30.5532C162.479 -24.4469 244.479 12.553 281.479 27.0532L294.979 29.053L295.479 36.053V39.053C296.978 44.053 298.313 48.553 296.979 50.553C299.479 51.553 301.979 54.7196 301.979 56.553L299.979 66.553C300.431 77.4009 298.023 77.6252 288.692 77.9376C287.701 77.9708 285.632 78.005 284.479 78.053V79.553L259.479 79.984M21.9794 81.5532V84.5532H39.9778L39.4794 80.0532M21.9794 81.5532V80.0532H39.4794M39.4794 80.0532C36.4794 38.5532 89.9794 41.5532 86.4794 80.5532V83.053H212.979C206.979 39.553 261.479 39.553 259.479 79.984M258.978 79.984H259.479" stroke="black"/>
</svg>
