<svg width="303" height="96" viewBox="0 0 303 96" fill="none" xmlns="http://www.w3.org/2000/svg">
<circle cx="62.2915" cy="74.5378" r="20.5" fill="#E56E90" stroke="black"/>
<circle cx="235.292" cy="74.5378" r="20.5" fill="#E56E90" stroke="black"/>
<path d="M132.29 13.0377L130.79 9.5377C170.79 1.53781 192.29 2.03784 231.29 13.5378L227.79 18.0378C207.79 10.0378 189.79 9.03775 173.79 8.53782C171.29 8.03782 167.29 8.03778 164.79 8.5377C154.79 8.53782 142.79 10.0378 132.29 13.0377Z" fill="#EDADBF" stroke="black" stroke-width="0.5"/>
<path d="M130.79 9.53789L130.29 8.03789C166.29 -2.96216 198.79 1.03772 234.29 10.0379L231.29 13.5379C191.29 1.03784 165.29 2.53784 130.79 9.53789Z" fill="#EDADBF" stroke="black" stroke-width="0.5"/>
<path d="M130.79 9.53771C182.29 -1.96232 210.79 8.03772 231.29 13.5377" stroke="black" stroke-width="0.5"/>
<path d="M170.292 30.5378L173.792 8.53784C207.292 9.53784 218.792 15.0378 223.292 16.5378L225.774 28.5378C198.784 28.5385 181.289 30.0379 170.292 30.5378Z" fill="#EDADBF"/>
<path d="M226.292 31.0378L223.292 16.5378C218.792 15.0378 207.292 9.53784 173.792 8.53784L170.292 30.5378C181.292 30.0378 198.792 28.5378 225.792 28.5378" stroke="black" stroke-width="0.5"/>
<path d="M164.792 8.53784C131.792 9.53784 111.792 18.5378 92.7915 36.0378L95.2915 34.0378L159.292 31.0378L164.792 8.53784Z" fill="#EDADBF" stroke="black" stroke-width="0.5"/>
<path d="M239.29 23.0378C235.623 20.3712 229.79 18.0378 223.29 16.5378L225.79 28.5378H232.29C235.29 27.0378 238.29 24.8066 239.29 23.0378Z" fill="#EDADBF" stroke="black" stroke-width="0.5"/>
<path d="M96.2915 79.0378H163.292L197.792 77.5378H212.292L212.792 83.0378H198.792H97.7915H86.2915V79.0378H96.2915Z" fill="#EDADBF"/>
<path d="M96.2915 79.0378H163.292L197.792 77.5378M96.2915 79.0378C96.2915 80.5378 96.7915 81.5378 97.7915 83.0378M96.2915 79.0378H86.2915V83.0378H97.7915M197.792 77.5378L198.792 83.0378M197.792 77.5378H212.292L212.792 83.0378H198.792M198.792 83.0378H97.7915" stroke="black" stroke-width="0.5"/>
<path d="M96.2906 79.0378C91.7915 74.5378 88.7915 52.5378 92.7906 36.0378L164.792 32.0378C160.792 37.0378 159.792 71.0378 163.291 79.0378H96.2906Z" fill="#EDADBF" stroke="black" stroke-width="0.5"/>
<path d="M228.291 31.0378L164.791 32.0378C160.791 37.0378 159.791 71.0378 163.291 79.0378L197.791 77.5378C202.291 76.0378 208.791 70.5378 228.291 31.0378Z" fill="#EDADBF" stroke="black" stroke-width="0.5"/>
<path d="M170.292 30.5379C165.792 31.0379 162.292 31.0379 159.292 31.0379L164.792 8.53792C167.792 8.03784 170.792 8.03784 173.792 8.53792L170.292 30.5379Z" fill="#EDADBF" stroke="black" stroke-width="0.5"/>
<path d="M98.7915 32.5379C103.292 38.0379 110.292 34.5379 114.292 33.0379C115.292 17.5377 102.292 25.5377 98.7915 32.5379Z" fill="#EDADBF" stroke="black" stroke-width="0.5"/>
<path d="M234.29 10.0378L231.29 13.5378C248.29 19.0378 258.79 22.0378 271.29 28.5378H272.79L280.79 27.0378C265.79 20.5378 258.29 18.0378 234.29 10.0378Z" stroke="black" stroke-width="0.5"/>
<path d="M271.29 28.5378C260.79 23.0378 241.79 16.5378 231.29 13.5378L229.29 16.0378L244.29 23.5378C242.79 26.0378 238.79 28.0378 232.79 30.7378C244.79 30.0378 261.79 29.0378 271.29 28.5378Z" stroke="black" stroke-width="0.5"/>
<path d="M276.792 34.8378L282.79 32.5378L272.291 28.5378L228.291 31.0378C220.791 46.0378 205.791 76.5378 197.791 77.5378H212.291C210.791 66.5378 220.291 43.0378 245.292 52.0378C255.792 46.5378 265.792 41.0378 276.792 34.8378Z" stroke="black" stroke-width="0.5"/>
<path d="M277.79 34.5379C265.79 41.0379 255.79 46.5379 245.29 52.0379C249.79 55.0378 260.29 61.0378 259.29 80.0378L284.29 79.5378V78.0378C292.79 77.0378 301.29 80.5378 299.79 66.5378L301.79 56.5378C301.79 55.0378 299.29 51.0378 296.79 50.5378C298.29 48.0378 295.29 39.0378 295.29 39.0378V37.5378L291.29 34.5378L286.29 33.0378L282.79 32.5378L277.79 34.5379Z" stroke="black" stroke-width="0.5"/>
<path d="M295.29 37.5378L295.284 37.458M295.284 37.458L294.79 29.0378L280.79 27.0378L272.29 28.5378L282.79 32.5378C292.29 33.5378 291.289 35.0378 295.284 37.458Z" stroke="black" stroke-width="0.5"/>
<path d="M293.792 37.038C293.292 34.5379 282.292 34.3379 276.792 34.8379" stroke="black" stroke-width="0.5"/>
<path d="M299.792 67.0378L260.292 69.0378C259.792 64.0378 257.625 59.8712 255.792 58.0378L301.792 55.5378M300.292 53.0378C289.292 51.5378 278.292 46.7378 266.292 40.7378M228.292 31.0378L272.292 28.5378L280.792 27.0378" stroke="black" stroke-width="0.5"/>
<path d="M272.292 43.5378C279.287 43.8876 285.304 43.9927 290.685 44.5378M297.292 45.5378C295.189 45.0872 292.995 44.7719 290.685 44.5378M295.292 38.0378C294.874 37.4527 294.404 36.9235 293.9 36.4478M290.685 44.5378C290.358 44.1931 290.264 43.67 290.25 43.0378M290.25 43.0378C290.236 42.4476 290.292 41.7621 290.292 41.0378C290.292 39.0378 289.292 35.0378 285.792 33.0378C288.012 33.0378 291.389 34.0782 293.9 36.4478M290.25 43.0378C293.292 41.5378 294.364 37.9778 293.9 36.4478" stroke="black" stroke-width="0.5"/>
<path d="M290.292 41.0378C285.792 41.0378 283.792 37.0378 282.792 34.5378" stroke="black" stroke-width="0.5"/>
<path d="M132.29 13.1378C118.79 17.1378 106.79 23.0378 92.79 36.0378C99.79 24.0378 115.29 14.5378 130.79 9.53784L132.29 13.1378Z" fill="#E0426F" stroke="black" stroke-width="0.5"/>
<path d="M130.79 9.53784C110.79 15.2119 92.79 32.5378 84.79 30.5378C97.79 21.0378 113.79 12.5378 130.29 8.03784L130.79 9.53784Z" fill="#E0426F" stroke="black" stroke-width="0.5"/>
<path d="M9.79071 48.5377H3.79071C1.29004 52.5377 1.29004 62.5377 1.79071 66.0377C0.290039 67.0377 0.290637 71.5377 1.29071 73.0377L5.29071 73.5377V75.0377L1.29071 77.0377V79.0377C5.29071 80.0377 13.7907 82.0377 21.7907 81.5377V80.0377H39.2907C38.624 71.5377 40.2907 61.0377 49.2907 54.0377C46.7907 50.0377 39.7907 45.5377 36.7907 45.0377C26.7907 44.0377 11.7907 46.5377 9.79071 48.5377Z" fill="#E0426F" stroke="black" stroke-width="0.5"/>
<path d="M92.7915 36.0378C74.9582 36.8712 43.2915 41.7378 32.7915 44.7378L36.7915 45.0378C41.7915 46.5378 47.2915 50.8712 49.2915 54.0378C62.2905 44.5378 87.7905 51.5378 86.2905 79.0378H96.2905C89.2905 68.0378 90.2905 46.0378 92.7915 36.0378Z" fill="#E0426F" stroke="black" stroke-width="0.5"/>
<path d="M9.79004 48.5379H3.79004C36.2902 29.0378 58.2903 35.0378 84.29 30.5378L93.2903 36.0378C76.2903 37.0378 47.29 40.5378 33.29 44.7378C25.29 44.5378 11.29 46.5378 9.79004 48.5379Z" fill="#E0426F" stroke="black" stroke-width="0.5"/>
<path d="M36.7915 45.0379C29.2915 44.0378 12.2915 46.0378 9.79149 48.5379C8.99149 50.9379 12.1248 53.8712 13.7915 55.0378C23.2915 56.5378 36.7915 50.5378 36.7915 45.0379Z" fill="#E0426F" stroke="black" stroke-width="0.5"/>
<path d="M3.79073 48.5378C10.7907 49.5378 4.79073 60.0378 1.79073 65.0378C1.29066 58.0378 1.79053 52.5378 3.79073 48.5378Z" fill="#E0426F" stroke="black" stroke-width="0.5"/>
<path d="M21.79 84.5378V80.0378H39.29L39.79 84.5378H21.79Z" fill="#E0426F" stroke="black" stroke-width="0.5"/>
<path d="M2.29199 66.0376C3.79199 68.5376 5.79199 71.7043 5.29199 73.5376M21.792 80.0376C11.292 80.5376 6.79199 76.5376 7.79199 73.0376C8.29199 72.5376 9.79199 71.0376 10.792 71.0376" stroke="black" stroke-width="0.5"/>
<path d="M31.792 75.0377C29.292 71.0377 23.792 66.0378 20.792 64.5378C19.0419 64.0378 16.4169 64.1628 13.6668 64.5378C12.0419 65.8711 10.792 69.0377 11.292 72.0377C11.292 73.2044 12.5994 75.5377 15.292 75.5377C19.792 75.5377 26.792 76.0377 31.792 75.0377Z" fill="#E0426F"/>
<path d="M5.79199 66.0378C8.04193 65.5378 10.9168 64.9128 13.6668 64.5378M13.6668 64.5378C16.4169 64.1628 19.0419 64.0378 20.792 64.5378C23.792 66.0378 29.292 71.0377 31.792 75.0377C26.792 76.0377 19.792 75.5377 15.292 75.5377C12.5994 75.5377 11.292 73.2044 11.292 72.0377C10.792 69.0377 12.0418 65.8711 13.6668 64.5378Z" stroke="black" stroke-width="0.5"/>
<path d="M11.292 71.5378C19.292 70.0378 22.792 72.6663 25.792 74.1663M12.792 74.5378L30.292 74.0378" stroke="black" stroke-width="0.5"/>
<path d="M21.79 83.0376H31.29C33.29 83.0376 34.79 81.0376 34.29 80.0376M37.79 80.0376V84.5376" stroke="black" stroke-width="0.5"/>
<path d="M21.7915 81.5381C17.2915 81.5381 12.7915 82.0381 1.29145 79.0381V77.0381L5.29145 75.0381V73.5381L1.29145 73.0381C0.790527 71.5378 -0.209277 68.5378 1.79072 66.0378C1.29096 58.0378 1.79096 51.5378 3.79145 48.5376C36.2915 29.038 58.2914 35.038 84.2914 30.538C162.291 -24.4621 244.291 12.5378 281.291 27.038L294.791 29.0378L295.291 36.0378V39.0378C296.79 44.0378 298.125 48.5378 296.791 50.5378C299.291 51.5378 301.791 54.7045 301.791 56.5378L299.791 66.5378C300.243 77.3858 297.835 77.61 288.504 77.9225C287.513 77.9557 285.444 77.9898 284.291 78.0378V79.5378L259.291 79.9689M21.7915 81.5381V84.5381H39.7898L39.2915 80.0381M21.7915 81.5381V80.0381H39.2915M39.2915 80.0381C36.2915 38.5381 89.7914 41.5381 86.2914 80.5381V83.0378H212.791C206.791 39.5378 261.291 39.5378 259.291 79.9689M258.79 79.9689H259.291" stroke="black"/>
</svg>
