<svg width="303" height="96" viewBox="0 0 303 96" fill="none" xmlns="http://www.w3.org/2000/svg">
<circle cx="62.2725" cy="74.3535" r="20.5" fill="#E56E90" stroke="black"/>
<circle cx="235.272" cy="74.3535" r="20.5" fill="#E56E90" stroke="black"/>
<path d="M132.271 12.8534L130.771 9.35337C170.771 1.35348 192.271 1.85352 231.271 13.3535L227.771 17.8535C207.771 9.85343 189.771 8.85342 173.771 8.35349C171.271 7.85349 167.271 7.85345 164.771 8.35337C154.771 8.35349 142.771 9.85349 132.271 12.8534Z" fill="#EFC7D3" stroke="black" stroke-width="0.5"/>
<path d="M130.771 9.35356L130.271 7.85356C166.271 -3.14648 198.771 0.85339 234.271 9.85356L231.271 13.3536C191.271 0.853516 165.271 2.35352 130.771 9.35356Z" fill="#EFC7D3" stroke="black" stroke-width="0.5"/>
<path d="M130.771 9.3535C182.271 -2.14652 210.771 7.85352 231.271 13.3535" stroke="black" stroke-width="0.5"/>
<path d="M170.272 30.3535L173.772 8.35352C207.272 9.35352 218.772 14.8535 223.272 16.3535L225.755 28.3535C198.765 28.3542 181.27 29.8536 170.272 30.3535Z" fill="#EFC7D3"/>
<path d="M226.272 30.8535L223.272 16.3535C218.772 14.8535 207.272 9.35352 173.772 8.35352L170.272 30.3535C181.272 29.8535 198.772 28.3535 225.772 28.3535" stroke="black" stroke-width="0.5"/>
<path d="M164.772 8.35352C131.772 9.35352 111.772 18.3535 92.7725 35.8535L95.2725 33.8535L159.272 30.8535L164.772 8.35352Z" fill="#EFC7D3" stroke="black" stroke-width="0.5"/>
<path d="M239.271 22.8535C235.604 20.1868 229.771 17.8535 223.271 16.3535L225.771 28.3535H232.271C235.271 26.8535 238.271 24.6223 239.271 22.8535Z" fill="#EFC7D3" stroke="black" stroke-width="0.5"/>
<path d="M96.2725 78.8535H163.272L197.772 77.3535H212.272L212.772 82.8535H198.772H97.7725H86.2725V78.8535H96.2725Z" fill="#EFC7D3"/>
<path d="M96.2725 78.8535H163.272L197.772 77.3535M96.2725 78.8535C96.2725 80.3535 96.7725 81.3535 97.7725 82.8535M96.2725 78.8535H86.2725V82.8535H97.7725M197.772 77.3535L198.772 82.8535M197.772 77.3535H212.272L212.772 82.8535H198.772M198.772 82.8535H97.7725" stroke="black" stroke-width="0.5"/>
<path d="M96.2716 78.8535C91.7725 74.3535 88.7725 52.3535 92.7716 35.8535L164.772 31.8535C160.772 36.8535 159.772 70.8535 163.272 78.8535H96.2716Z" fill="#EFC7D3" stroke="black" stroke-width="0.5"/>
<path d="M228.272 30.8535L164.772 31.8535C160.773 36.8535 159.773 70.8535 163.272 78.8535L197.772 77.3535C202.272 75.8535 208.772 70.3535 228.272 30.8535Z" fill="#EFC7D3" stroke="black" stroke-width="0.5"/>
<path d="M170.272 30.3536C165.772 30.8536 162.272 30.8536 159.272 30.8536L164.772 8.35359C167.772 7.85352 170.772 7.85352 173.772 8.35359L170.272 30.3536Z" fill="#EFC7D3" stroke="black" stroke-width="0.5"/>
<path d="M98.7725 32.3537C103.272 37.8537 110.272 34.3537 114.272 32.8537C115.272 17.3535 102.272 25.3535 98.7725 32.3537Z" fill="#EFC7D3" stroke="black" stroke-width="0.5"/>
<path d="M234.271 9.85352L231.271 13.3535C248.271 18.8535 258.771 21.8535 271.271 28.3535H272.771L280.771 26.8535C265.771 20.3535 258.271 17.8535 234.271 9.85352Z" fill="#EDADBF" stroke="black" stroke-width="0.5"/>
<path d="M271.271 28.3535C260.771 22.8535 241.771 16.3535 231.271 13.3535L229.271 15.8535L244.271 23.3535C242.771 25.8535 238.771 27.8535 232.771 30.5535C244.771 29.8535 261.771 28.8535 271.271 28.3535Z" fill="#EDADBF" stroke="black" stroke-width="0.5"/>
<path d="M276.772 34.6535L282.771 32.3535L272.271 28.3535L228.271 30.8535C220.771 45.8535 205.771 76.3535 197.771 77.3535H212.271C210.771 66.3535 220.271 42.8535 245.272 51.8535C255.772 46.3535 265.772 40.8535 276.772 34.6535Z" fill="#EDADBF" stroke="black" stroke-width="0.5"/>
<path d="M277.771 34.3535C265.771 40.8535 255.771 46.3535 245.271 51.8535C249.771 54.8535 260.271 60.8535 259.271 79.8535L284.271 79.3535V77.8535C292.771 76.8535 301.271 80.3535 299.771 66.3535L301.771 56.3535C301.771 54.8535 299.271 50.8535 296.771 50.3535C298.271 47.8535 295.271 38.8535 295.271 38.8535V37.3535L291.271 34.3535L286.271 32.8535L282.771 32.3535L277.771 34.3535Z" fill="#EDADBF" stroke="black" stroke-width="0.5"/>
<path d="M280.771 26.8535L272.271 28.3535L282.771 32.3535C292.271 33.3535 291.269 34.8535 295.265 37.2737L294.771 28.8535L280.771 26.8535Z" fill="#EDADBF"/>
<path d="M295.271 37.3535L295.265 37.2737M295.265 37.2737L294.771 28.8535L280.771 26.8535L272.271 28.3535L282.771 32.3535C292.271 33.3535 291.269 34.8535 295.265 37.2737Z" stroke="black" stroke-width="0.5"/>
<path d="M293.772 36.8537C293.272 34.3536 282.272 34.1535 276.772 34.6535" stroke="black" stroke-width="0.5"/>
<path d="M299.772 66.8535L260.272 68.8535C259.772 63.8535 257.606 59.6868 255.772 57.8535L301.772 55.3535M300.272 52.8535C289.272 51.3535 278.272 46.5535 266.272 40.5535M228.272 30.8535L272.272 28.3535L280.772 26.8535" stroke="black" stroke-width="0.5"/>
<path d="M290.272 40.8535C290.272 38.8535 289.272 34.8535 285.772 32.8535C287.993 32.8535 291.37 33.8939 293.881 36.2635C294.345 37.7935 293.272 41.3535 290.231 42.8535C290.217 42.2632 290.272 41.5778 290.272 40.8535Z" fill="#EDADBF"/>
<path d="M272.272 43.3535C279.268 43.7033 285.285 43.8084 290.666 44.3535M297.272 45.3535C295.169 44.9029 292.976 44.5876 290.666 44.3535M295.272 37.8535C294.855 37.2684 294.385 36.7392 293.881 36.2635M290.666 44.3535C290.339 44.0088 290.245 43.4857 290.231 42.8535M290.231 42.8535C290.217 42.2632 290.272 41.5778 290.272 40.8535C290.272 38.8535 289.272 34.8535 285.772 32.8535C287.993 32.8535 291.37 33.8939 293.881 36.2635M290.231 42.8535C293.272 41.3535 294.345 37.7935 293.881 36.2635" stroke="black" stroke-width="0.5"/>
<path d="M290.272 40.8535C285.772 40.8535 283.772 36.8535 282.772 34.3535" stroke="black" stroke-width="0.5"/>
<path d="M132.271 12.9535C118.771 16.9535 106.771 22.8535 92.7705 35.8535C99.7705 23.8535 115.271 14.3535 130.771 9.35352L132.271 12.9535Z" fill="#EDADBF" stroke="black" stroke-width="0.5"/>
<path d="M130.771 9.35352C110.771 15.0276 92.7705 32.3535 84.7705 30.3535C97.7705 20.8535 113.771 12.3535 130.271 7.85352L130.771 9.35352Z" fill="#EDADBF" stroke="black" stroke-width="0.5"/>
<path d="M9.77118 48.3535H3.77118C1.27051 52.3535 1.27051 62.3535 1.77118 65.8535C0.270508 66.8535 0.271105 71.3535 1.27118 72.8535L5.27118 73.3535V74.8535L1.27118 76.8535V78.8535C5.27118 79.8535 13.7712 81.8535 21.7712 81.3535V79.8535H39.2712C38.6045 71.3535 40.2712 60.8535 49.2712 53.8535C46.7712 49.8535 39.7712 45.3535 36.7712 44.8535C26.7712 43.8535 11.7712 46.3535 9.77118 48.3535Z" fill="#EDADBF" stroke="black" stroke-width="0.5"/>
<path d="M92.7725 35.8535C74.9391 36.6868 43.2725 41.5535 32.7725 44.5535L36.7725 44.8535C41.7725 46.3535 47.2725 50.6868 49.2725 53.8535C62.2715 44.3535 87.7715 51.3535 86.2715 78.8535H96.2715C89.2715 67.8535 90.2715 45.8535 92.7725 35.8535Z" fill="#EDADBF" stroke="black" stroke-width="0.5"/>
<path d="M9.77051 48.3536H3.77051C36.2707 28.8535 58.2708 34.8535 84.2705 30.3535L93.2708 35.8535C76.2708 36.8535 47.2705 40.3535 33.2705 44.5535C25.2705 44.3535 11.2705 46.3535 9.77051 48.3536Z" fill="#EDADBF" stroke="black" stroke-width="0.5"/>
<path d="M36.772 44.8536C29.272 43.8535 12.272 45.8535 9.77196 48.3536C8.97196 50.7535 12.1053 53.6868 13.772 54.8535C23.272 56.3535 36.772 50.3535 36.772 44.8536Z" fill="#EDADBF" stroke="black" stroke-width="0.5"/>
<path d="M3.7712 48.3535C10.7712 49.3535 4.7712 59.8535 1.7712 64.8535C1.27113 57.8535 1.771 52.3535 3.7712 48.3535Z" fill="#EDADBF" stroke="black" stroke-width="0.5"/>
<path d="M21.7705 84.3535V79.8535H39.2705L39.7705 84.3535H21.7705Z" fill="#EDADBF" stroke="black" stroke-width="0.5"/>
<path d="M2.27246 65.8535C3.77246 68.3535 5.77246 71.5202 5.27246 73.3535M21.7725 79.8535C11.2725 80.3535 6.77246 76.3535 7.77246 72.8535C8.27246 72.3535 9.77246 70.8535 10.7725 70.8535" stroke="black" stroke-width="0.5"/>
<path d="M31.7725 74.8535C29.2725 70.8535 23.7725 65.8536 20.7725 64.3536C19.0224 63.8536 16.3973 63.9786 13.6472 64.3536C12.0223 65.6869 10.7725 68.8535 11.2725 71.8535C11.2725 73.0202 12.5799 75.3535 15.2725 75.3535C19.7725 75.3535 26.7725 75.8535 31.7725 74.8535Z" fill="#EDADBF"/>
<path d="M5.77246 65.8536C8.0224 65.3536 10.8973 64.7286 13.6472 64.3536M13.6472 64.3536C16.3973 63.9786 19.0224 63.8536 20.7725 64.3536C23.7725 65.8536 29.2725 70.8535 31.7725 74.8535C26.7725 75.8535 19.7725 75.3535 15.2725 75.3535C12.5799 75.3535 11.2725 73.0202 11.2725 71.8535C10.7725 68.8535 12.0223 65.6869 13.6472 64.3536Z" stroke="black" stroke-width="0.5"/>
<path d="M11.2725 71.3536C19.2725 69.8536 22.7725 72.4821 25.7725 73.9821M12.7725 74.3536L30.2725 73.8536" stroke="black" stroke-width="0.5"/>
<path d="M21.7705 82.8535H31.2705C33.2705 82.8535 34.7705 80.8535 34.2705 79.8535M37.7705 79.8535V84.3535" stroke="black" stroke-width="0.5"/>
<path d="M21.7724 81.3538C17.2724 81.3538 12.7724 81.8538 1.27241 78.8538V76.8538L5.27241 74.8538V73.3538L1.27241 72.8538C0.771484 71.3535 -0.22832 68.3535 1.77168 65.8535C1.27192 57.8535 1.77192 51.3535 3.77241 48.3533C36.2724 28.8537 58.2724 34.8537 84.2724 30.3537C162.272 -24.6464 244.272 12.3535 281.272 26.8537L294.772 28.8535L295.272 35.8535V38.8535C296.771 43.8535 298.106 48.3535 296.772 50.3535C299.272 51.3535 301.772 54.5202 301.772 56.3535L299.772 66.3535C300.224 77.2014 297.816 77.4257 288.485 77.7382C287.494 77.7713 285.425 77.8055 284.272 77.8535V79.3535L259.272 79.7846M21.7724 81.3538V84.3538H39.7708L39.2724 79.8538M21.7724 81.3538V79.8538H39.2724M39.2724 79.8538C36.2724 38.3538 89.7724 41.3538 86.2724 80.3538V82.8535H212.772C206.772 39.3535 261.272 39.3535 259.272 79.7846M258.771 79.7846H259.272" stroke="black"/>
</svg>
