<svg width="303" height="96" viewBox="0 0 303 96" fill="none" xmlns="http://www.w3.org/2000/svg">
<circle cx="62.876" cy="74.0605" r="20.5" fill="#EFC7D3" stroke="black"/>
<circle cx="235.876" cy="74.0605" r="20.5" fill="#EFC7D3" stroke="black"/>
<path d="M132.874 12.5604L131.374 9.0604C171.374 1.06051 192.874 1.56055 231.874 13.0605L228.374 17.5605C208.374 9.56046 190.374 8.56046 174.374 8.06052C171.874 7.56052 167.874 7.56049 165.374 8.0604C155.374 8.06052 143.374 9.56052 132.874 12.5604Z" fill="#E0426F" stroke="black" stroke-width="0.5"/>
<path d="M131.374 9.06059L130.874 7.56059C166.874 -3.43945 199.374 0.560421 234.874 9.56059L231.874 13.0606C191.874 0.560547 165.874 2.06055 131.374 9.06059Z" fill="#E0426F" stroke="black" stroke-width="0.5"/>
<path d="M131.374 9.06066C182.874 -2.43937 211.374 7.56067 231.874 13.0607" stroke="black" stroke-width="0.5"/>
<path d="M170.876 30.0605L174.376 8.06055C207.876 9.06055 219.376 14.5605 223.876 16.0605L226.359 28.0605C199.369 28.0612 181.874 29.5607 170.876 30.0605Z" fill="#E0426F"/>
<path d="M226.876 30.5605L223.876 16.0605C219.376 14.5605 207.876 9.06055 174.376 8.06055L170.876 30.0605C181.876 29.5605 199.376 28.0605 226.376 28.0605" stroke="black" stroke-width="0.5"/>
<path d="M165.376 8.06055C132.376 9.06055 112.376 18.0605 93.376 35.5605L95.876 33.5605L159.876 30.5605L165.376 8.06055Z" fill="#E0426F" stroke="black" stroke-width="0.5"/>
<path d="M239.874 22.5605C236.207 19.8939 230.374 17.5605 223.874 16.0605L226.374 28.0605H232.874C235.874 26.5605 238.874 24.3293 239.874 22.5605Z" fill="#E0426F" stroke="black" stroke-width="0.5"/>
<path d="M96.876 78.5605H163.876L198.376 77.0605H212.876L213.376 82.5605H199.376H98.376H86.876V78.5605H96.876Z" fill="#E0426F"/>
<path d="M96.876 78.5605H163.876L198.376 77.0605M96.876 78.5605C96.876 80.0605 97.376 81.0605 98.376 82.5605M96.876 78.5605H86.876V82.5605H98.376M198.376 77.0605L199.376 82.5605M198.376 77.0605H212.876L213.376 82.5605H199.376M199.376 82.5605H98.376" stroke="black" stroke-width="0.5"/>
<path d="M96.8751 78.5605C92.376 74.0605 89.376 52.0605 93.3751 35.5605L165.376 31.5605C161.376 36.5605 160.376 70.5605 163.876 78.5605H96.8751Z" fill="#E0426F" stroke="black" stroke-width="0.5"/>
<path d="M228.876 30.5605L165.376 31.5605C161.376 36.5605 160.376 70.5605 163.876 78.5605L198.376 77.0605C202.876 75.5605 209.376 70.0605 228.876 30.5605Z" fill="#E0426F" stroke="black" stroke-width="0.5"/>
<path d="M170.876 30.0606C166.376 30.5606 162.876 30.5606 159.876 30.5606L165.376 8.06062C168.376 7.56055 171.376 7.56055 174.376 8.06062L170.876 30.0606Z" fill="#E0426F" stroke="black" stroke-width="0.5"/>
<path d="M99.376 32.0608C103.876 37.5608 110.876 34.0608 114.876 32.5608C115.876 17.0607 102.876 25.0607 99.376 32.0608Z" fill="#E0426F" stroke="black" stroke-width="0.5"/>
<path d="M234.874 9.56055L231.874 13.0605C248.874 18.5605 259.374 21.5605 271.874 28.0605H273.374L281.374 26.5605C266.374 20.0605 258.874 17.5605 234.874 9.56055Z" fill="#EDADBF" stroke="black" stroke-width="0.5"/>
<path d="M271.874 28.0605C261.374 22.5605 242.374 16.0605 231.874 13.0605L229.874 15.5605L244.874 23.0605C243.374 25.5605 239.374 27.5605 233.374 30.2605C245.374 29.5605 262.374 28.5605 271.874 28.0605Z" fill="#EDADBF" stroke="black" stroke-width="0.5"/>
<path d="M277.376 34.3605L283.374 32.0605L272.875 28.0605L228.875 30.5605C221.375 45.5605 206.375 76.0605 198.375 77.0605H212.875C211.375 66.0605 220.875 42.5605 245.876 51.5605C256.376 46.0605 266.376 40.5605 277.376 34.3605Z" fill="#EDADBF" stroke="black" stroke-width="0.5"/>
<path d="M278.374 34.0606C266.374 40.5606 256.374 46.0606 245.874 51.5606C250.374 54.5605 260.874 60.5605 259.874 79.5605L284.874 79.0605V77.5605C293.374 76.5605 301.874 80.0605 300.374 66.0605L302.374 56.0605C302.374 54.5605 299.874 50.5605 297.374 50.0605C298.874 47.5605 295.874 38.5605 295.874 38.5605V37.0605L291.874 34.0605L286.874 32.5605L283.374 32.0605L278.374 34.0606Z" fill="#EDADBF" stroke="black" stroke-width="0.5"/>
<path d="M281.374 26.5605L272.874 28.0605L283.374 32.0605C292.874 33.0605 291.873 34.5605 295.868 36.9807L295.374 28.5605L281.374 26.5605Z" fill="#EDADBF"/>
<path d="M295.874 37.0605L295.868 36.9807M295.868 36.9807L295.374 28.5605L281.374 26.5605L272.874 28.0605L283.374 32.0605C292.874 33.0605 291.873 34.5605 295.868 36.9807Z" stroke="black" stroke-width="0.5"/>
<path d="M294.376 36.5607C293.876 34.0606 282.876 33.8606 277.376 34.3606" stroke="black" stroke-width="0.5"/>
<path d="M300.376 66.5605L260.876 68.5605C260.376 63.5605 258.209 59.3939 256.376 57.5605L302.376 55.0605M300.876 52.5605C289.876 51.0605 278.876 46.2605 266.876 40.2605M228.876 30.5605L272.876 28.0605L281.376 26.5605" stroke="black" stroke-width="0.5"/>
<path d="M290.876 40.5605C290.876 38.5605 289.876 34.5605 286.376 32.5605C288.597 32.5605 291.974 33.6009 294.485 35.9705C294.949 37.5005 293.876 41.0605 290.834 42.5605C290.821 41.9703 290.876 41.2848 290.876 40.5605Z" fill="#EDADBF"/>
<path d="M272.876 43.0605C279.872 43.4103 285.889 43.5154 291.269 44.0605M297.876 45.0605C295.773 44.6099 293.58 44.2946 291.269 44.0605M295.876 37.5605C295.458 36.9754 294.989 36.4462 294.485 35.9705M291.269 44.0605C290.943 43.7158 290.849 43.1927 290.834 42.5605M290.834 42.5605C290.821 41.9703 290.876 41.2848 290.876 40.5605C290.876 38.5605 289.876 34.5605 286.376 32.5605C288.597 32.5605 291.974 33.6009 294.485 35.9705M290.834 42.5605C293.876 41.0605 294.949 37.5005 294.485 35.9705" stroke="black" stroke-width="0.5"/>
<path d="M290.876 40.5605C286.376 40.5605 284.376 36.5605 283.376 34.0605" stroke="black" stroke-width="0.5"/>
<path d="M132.874 12.6605C119.374 16.6605 107.374 22.5605 93.374 35.5605C100.374 23.5605 115.874 14.0605 131.374 9.06055L132.874 12.6605Z" fill="#E56E90" stroke="black" stroke-width="0.5"/>
<path d="M131.374 9.06055C111.374 14.7346 93.374 32.0605 85.374 30.0605C98.374 20.5605 114.374 12.0605 130.874 7.56055L131.374 9.06055Z" fill="#E56E90" stroke="black" stroke-width="0.5"/>
<path d="M10.3747 48.0604H4.37469C1.87402 52.0604 1.87402 62.0604 2.37469 65.5604C0.874023 66.5604 0.874621 71.0604 1.87469 72.5604L5.87469 73.0604V74.5604L1.87469 76.5604V78.5604C5.87469 79.5604 14.3747 81.5604 22.3747 81.0604V79.5604H39.8747C39.208 71.0604 40.8747 60.5604 49.8747 53.5604C47.3747 49.5604 40.3747 45.0604 37.3747 44.5604C27.3747 43.5604 12.3747 46.0604 10.3747 48.0604Z" fill="#E56E90" stroke="black" stroke-width="0.5"/>
<path d="M93.376 35.5605C75.5426 36.3939 43.876 41.2605 33.376 44.2605L37.376 44.5605C42.376 46.0605 47.876 50.3939 49.876 53.5605C62.875 44.0605 88.375 51.0605 86.875 78.5605H96.875C89.875 67.5605 90.875 45.5605 93.376 35.5605Z" fill="#E56E90" stroke="black" stroke-width="0.5"/>
<path d="M10.374 48.0606H4.37402C36.8742 28.5605 58.8743 34.5605 84.874 30.0605L93.8743 35.5605C76.8743 36.5605 47.874 40.0605 33.874 44.2606C25.874 44.0605 11.874 46.0605 10.374 48.0606Z" fill="#E56E90" stroke="black" stroke-width="0.5"/>
<path d="M37.3755 44.5606C29.8755 43.5605 12.8755 45.5605 10.3755 48.0606C9.57548 50.4606 12.7088 53.3939 14.3755 54.5605C23.8755 56.0605 37.3755 50.0605 37.3755 44.5606Z" fill="#E56E90" stroke="black" stroke-width="0.5"/>
<path d="M4.37472 48.0605C11.3747 49.0605 5.37472 59.5605 2.37472 64.5605C1.87465 57.5605 2.37451 52.0605 4.37472 48.0605Z" fill="#E56E90" stroke="black" stroke-width="0.5"/>
<path d="M22.374 84.0605V79.5605H39.874L40.374 84.0605H22.374Z" fill="#E56E90" stroke="black" stroke-width="0.5"/>
<path d="M2.87598 65.5605C4.37598 68.0605 6.37598 71.2272 5.87598 73.0605M22.376 79.5605C11.876 80.0605 7.37598 76.0605 8.37598 72.5605C8.87598 72.0605 10.376 70.5605 11.376 70.5605" stroke="black" stroke-width="0.5"/>
<path d="M32.376 74.5607C29.876 70.5607 24.376 65.5607 21.376 64.0607C19.6259 63.5607 17.0008 63.6857 14.2508 64.0607C12.6258 65.3941 11.376 68.5607 11.876 71.5607C11.876 72.7273 13.1834 75.0607 15.876 75.0607C20.376 75.0607 27.376 75.5607 32.376 74.5607Z" fill="#E56E90"/>
<path d="M6.37598 65.5607C8.62592 65.0607 11.5008 64.4357 14.2508 64.0607M14.2508 64.0607C17.0008 63.6857 19.6259 63.5607 21.376 64.0607C24.376 65.5607 29.876 70.5607 32.376 74.5607C27.376 75.5607 20.376 75.0607 15.876 75.0607C13.1834 75.0607 11.876 72.7273 11.876 71.5607C11.376 68.5607 12.6258 65.3941 14.2508 64.0607Z" stroke="black" stroke-width="0.5"/>
<path d="M11.876 71.0607C19.876 69.5608 23.376 72.1893 26.376 73.6893M13.376 74.0608L30.876 73.5608" stroke="black" stroke-width="0.5"/>
<path d="M22.374 82.5605H31.874C33.874 82.5605 35.374 80.5605 34.874 79.5605M38.374 79.5605V84.0605" stroke="black" stroke-width="0.5"/>
<path d="M22.3759 81.0608C17.8759 81.0608 13.3759 81.5608 1.87592 78.5608V76.5608L5.87592 74.5608V73.0608L1.87592 72.5608C1.375 71.0605 0.375196 68.0605 2.37519 65.5605C1.87543 57.5605 2.37543 51.0605 4.37592 48.0603C36.8759 28.5607 58.8759 34.5607 84.8759 30.0607C162.876 -24.9394 244.876 12.0605 281.876 26.5607L295.376 28.5605L295.876 35.5605V38.5605C297.374 43.5605 298.709 48.0605 297.376 50.0605C299.876 51.0605 302.376 54.2272 302.376 56.0605L300.376 66.0605C300.828 76.9085 298.42 77.1327 289.088 77.4452C288.097 77.4784 286.028 77.5125 284.876 77.5605V79.0605L259.876 79.4916M22.3759 81.0608V84.0608H40.3743L39.8759 79.5608M22.3759 81.0608V79.5608H39.8759M39.8759 79.5608C36.8759 38.0608 90.3759 41.0608 86.8759 80.0608V82.5605H213.376C207.376 39.0605 261.876 39.0605 259.876 79.4916M259.374 79.4916H259.876" stroke="black"/>
</svg>
