<svg width="303" height="96" viewBox="0 0 303 96" fill="none" xmlns="http://www.w3.org/2000/svg">
<circle cx="62.4795" cy="74.0303" r="20.5" fill="#E0426F" stroke="black"/>
<circle cx="235.479" cy="74.0303" r="20.5" fill="#E0426F" stroke="black"/>
<path d="M132.478 12.5301L130.978 9.03013C170.978 1.03024 192.478 1.53027 231.478 13.0302L227.978 17.5302C207.978 9.53018 189.978 8.53018 173.978 8.03025C171.478 7.53025 167.478 7.53021 164.978 8.03013C154.978 8.03025 142.978 9.53025 132.478 12.5301Z" fill="#EDADBF" stroke="black" stroke-width="0.5"/>
<path d="M130.978 9.03032L130.478 7.53032C166.478 -3.46973 198.978 0.530148 234.478 9.53032L231.478 13.0303C191.478 0.530273 165.478 2.03027 130.978 9.03032Z" fill="#EDADBF" stroke="black" stroke-width="0.5"/>
<path d="M130.978 9.03038C182.478 -2.46964 210.978 7.5304 231.478 13.0304" stroke="black" stroke-width="0.5"/>
<path d="M170.479 30.0303L173.979 8.03027C207.479 9.03027 218.979 14.5303 223.479 16.0303L225.962 28.0303C198.972 28.0309 181.477 29.5304 170.479 30.0303Z" fill="#EDADBF"/>
<path d="M226.479 30.5303L223.479 16.0303C218.979 14.5303 207.479 9.03027 173.979 8.03027L170.479 30.0303C181.479 29.5303 198.979 28.0303 225.979 28.0303" stroke="black" stroke-width="0.5"/>
<path d="M164.979 8.03027C131.979 9.03027 111.979 18.0303 92.9795 35.5303L95.4795 33.5303L159.479 30.5303L164.979 8.03027Z" fill="#EDADBF" stroke="black" stroke-width="0.5"/>
<path d="M239.478 22.5303C235.811 19.8636 229.978 17.5303 223.478 16.0303L225.978 28.0303H232.478C235.478 26.5303 238.478 24.299 239.478 22.5303Z" fill="#EDADBF" stroke="black" stroke-width="0.5"/>
<path d="M96.4795 78.5303H163.479L197.979 77.0303H212.479L212.979 82.5303H198.979H97.9795H86.4795V78.5303H96.4795Z" fill="#EDADBF"/>
<path d="M96.4795 78.5303H163.479L197.979 77.0303M96.4795 78.5303C96.4795 80.0303 96.9795 81.0303 97.9795 82.5303M96.4795 78.5303H86.4795V82.5303H97.9795M197.979 77.0303L198.979 82.5303M197.979 77.0303H212.479L212.979 82.5303H198.979M198.979 82.5303H97.9795" stroke="black" stroke-width="0.5"/>
<path d="M96.4786 78.5303C91.9795 74.0303 88.9795 52.0303 92.9786 35.5303L164.979 31.5303C160.979 36.5303 159.979 70.5303 163.479 78.5303H96.4786Z" fill="#EDADBF" stroke="black" stroke-width="0.5"/>
<path d="M228.479 30.5303L164.979 31.5303C160.98 36.5303 159.98 70.5303 163.479 78.5303L197.979 77.0303C202.479 75.5303 208.979 70.0303 228.479 30.5303Z" fill="#EDADBF" stroke="black" stroke-width="0.5"/>
<path d="M170.479 30.0303C165.979 30.5303 162.479 30.5303 159.479 30.5303L164.979 8.03035C167.979 7.53027 170.979 7.53027 173.979 8.03035L170.479 30.0303Z" fill="#EDADBF" stroke="black" stroke-width="0.5"/>
<path d="M98.9795 32.0305C103.479 37.5305 110.479 34.0305 114.479 32.5305C115.479 17.0304 102.479 25.0304 98.9795 32.0305Z" fill="#EDADBF" stroke="black" stroke-width="0.5"/>
<path d="M234.478 9.53027L231.478 13.0303C248.478 18.5303 258.978 21.5303 271.478 28.0303H272.978L280.978 26.5303C265.978 20.0303 258.478 17.5303 234.478 9.53027Z" fill="#EFC7D3" stroke="black" stroke-width="0.5"/>
<path d="M271.478 28.0303C260.978 22.5303 241.978 16.0303 231.478 13.0303L229.478 15.5303L244.478 23.0303C242.978 25.5303 238.978 27.5303 232.978 30.2303C244.978 29.5303 261.978 28.5303 271.478 28.0303Z" fill="#EFC7D3" stroke="black" stroke-width="0.5"/>
<path d="M276.979 34.3303L282.978 32.0303L272.479 28.0303L228.479 30.5303C220.979 45.5303 205.979 76.0303 197.979 77.0303H212.479C210.979 66.0303 220.479 42.5303 245.479 51.5303C255.979 46.0303 265.979 40.5303 276.979 34.3303Z" fill="#EFC7D3" stroke="black" stroke-width="0.5"/>
<path d="M277.978 34.0303C265.978 40.5303 255.978 46.0303 245.478 51.5303C249.978 54.5303 260.478 60.5303 259.478 79.5303L284.478 79.0303V77.5303C292.978 76.5303 301.478 80.0303 299.978 66.0303L301.978 56.0303C301.978 54.5303 299.478 50.5303 296.978 50.0303C298.478 47.5303 295.478 38.5303 295.478 38.5303V37.0303L291.478 34.0303L286.478 32.5303L282.978 32.0303L277.978 34.0303Z" fill="#EFC7D3" stroke="black" stroke-width="0.5"/>
<path d="M280.978 26.5303L272.478 28.0303L282.978 32.0303C292.478 33.0303 291.476 34.5303 295.472 36.9505L294.978 28.5303L280.978 26.5303Z" fill="#EFC7D3"/>
<path d="M295.478 37.0303L295.472 36.9505M295.472 36.9505L294.978 28.5303L280.978 26.5303L272.478 28.0303L282.978 32.0303C292.478 33.0303 291.476 34.5303 295.472 36.9505Z" stroke="black" stroke-width="0.5"/>
<path d="M293.979 36.5305C293.479 34.0304 282.479 33.8303 276.979 34.3303" stroke="black" stroke-width="0.5"/>
<path d="M299.979 66.5303L260.479 68.5303C259.979 63.5303 257.813 59.3636 255.979 57.5303L301.979 55.0303M300.479 52.5303C289.479 51.0303 278.479 46.2303 266.479 40.2303M228.479 30.5303L272.479 28.0303L280.979 26.5303" stroke="black" stroke-width="0.5"/>
<path d="M290.479 40.5303C290.479 38.5303 289.479 34.5303 285.979 32.5303C288.2 32.5303 291.577 33.5707 294.088 35.9403C294.552 37.4703 293.479 41.0303 290.438 42.5303C290.424 41.94 290.479 41.2546 290.479 40.5303Z" fill="#EFC7D3"/>
<path d="M272.479 43.0303C279.475 43.3801 285.492 43.4851 290.873 44.0303M297.479 45.0303C295.376 44.5796 293.183 44.2644 290.873 44.0303M295.479 37.5303C295.062 36.9451 294.592 36.4159 294.088 35.9403M290.873 44.0303C290.546 43.6855 290.452 43.1625 290.438 42.5303M290.438 42.5303C290.424 41.94 290.479 41.2546 290.479 40.5303C290.479 38.5303 289.479 34.5303 285.979 32.5303C288.2 32.5303 291.577 33.5707 294.088 35.9403M290.438 42.5303C293.479 41.0303 294.552 37.4703 294.088 35.9403" stroke="black" stroke-width="0.5"/>
<path d="M290.479 40.5303C285.979 40.5303 283.979 36.5303 282.979 34.0303" stroke="black" stroke-width="0.5"/>
<path d="M132.478 12.6302C118.978 16.6302 106.978 22.5303 92.978 35.5303C99.978 23.5303 115.478 14.0303 130.978 9.03027L132.478 12.6302Z" fill="#EFC7D3" stroke="black" stroke-width="0.5"/>
<path d="M130.978 9.03027C110.978 14.7043 92.978 32.0303 84.978 30.0303C97.978 20.5303 113.978 12.0303 130.478 7.53027L130.978 9.03027Z" fill="#EFC7D3" stroke="black" stroke-width="0.5"/>
<path d="M9.97869 48.0302H3.97869C1.47803 52.0302 1.47803 62.0302 1.97869 65.5302C0.478027 66.5302 0.478625 71.0302 1.47869 72.5302L5.47869 73.0302V74.5302L1.47869 76.5302V78.5302C5.47869 79.5302 13.9787 81.5302 21.9787 81.0302V79.5302H39.4787C38.812 71.0302 40.4787 60.5302 49.4787 53.5302C46.9787 49.5302 39.9787 45.0302 36.9787 44.5302C26.9787 43.5302 11.9787 46.0302 9.97869 48.0302Z" fill="#EFC7D3" stroke="black" stroke-width="0.5"/>
<path d="M92.9795 35.5303C75.1462 36.3636 43.4795 41.2303 32.9795 44.2303L36.9795 44.5303C41.9795 46.0303 47.4795 50.3636 49.4795 53.5303C62.4785 44.0303 87.9785 51.0303 86.4785 78.5303H96.4785C89.4785 67.5303 90.4785 45.5303 92.9795 35.5303Z" fill="#EFC7D3" stroke="black" stroke-width="0.5"/>
<path d="M9.97754 48.0303H3.97754C36.4777 28.5302 58.4778 34.5303 84.4775 30.0303L93.4778 35.5303C76.4778 36.5303 47.4775 40.0303 33.4775 44.2303C25.4775 44.0303 11.4775 46.0303 9.97754 48.0303Z" fill="#EFC7D3" stroke="black" stroke-width="0.5"/>
<path d="M36.9795 44.5303C29.4795 43.5303 12.4795 45.5303 9.97948 48.0303C9.17948 50.4303 12.3128 53.3636 13.9795 54.5303C23.4795 56.0303 36.9795 50.0303 36.9795 44.5303Z" fill="#EFC7D3" stroke="black" stroke-width="0.5"/>
<path d="M3.97872 48.0303C10.9787 49.0303 4.97872 59.5303 1.97872 64.5303C1.47865 57.5303 1.97852 52.0303 3.97872 48.0303Z" fill="#EFC7D3" stroke="black" stroke-width="0.5"/>
<path d="M21.978 84.0303V79.5303H39.478L39.978 84.0303H21.978Z" fill="#EFC7D3" stroke="black" stroke-width="0.5"/>
<path d="M2.47949 65.5303C3.97949 68.0303 5.97949 71.1969 5.47949 73.0303M21.9795 79.5303C11.4795 80.0303 6.97949 76.0303 7.97949 72.5303C8.47949 72.0303 9.97949 70.5303 10.9795 70.5303" stroke="black" stroke-width="0.5"/>
<path d="M31.9795 74.5304C29.4795 70.5304 23.9795 65.5305 20.9795 64.0305C19.2294 63.5305 16.6044 63.6555 13.8543 64.0305C12.2294 65.3638 10.9795 68.5304 11.4795 71.5304C11.4795 72.6971 12.7869 75.0304 15.4795 75.0304C19.9795 75.0304 26.9795 75.5304 31.9795 74.5304Z" fill="#EFC7D3"/>
<path d="M5.97949 65.5305C8.22943 65.0304 11.1043 64.4055 13.8543 64.0305M13.8543 64.0305C16.6044 63.6555 19.2294 63.5305 20.9795 64.0305C23.9795 65.5305 29.4795 70.5304 31.9795 74.5304C26.9795 75.5304 19.9795 75.0304 15.4795 75.0304C12.7869 75.0304 11.4795 72.6971 11.4795 71.5304C10.9795 68.5304 12.2293 65.3638 13.8543 64.0305Z" stroke="black" stroke-width="0.5"/>
<path d="M11.4795 71.0305C19.4795 69.5305 22.9795 72.159 25.9795 73.659M12.9795 74.0305L30.4795 73.5305" stroke="black" stroke-width="0.5"/>
<path d="M21.9775 82.5303H31.4775C33.4775 82.5303 34.9775 80.5303 34.4775 79.5303M37.9775 79.5303V84.0303" stroke="black" stroke-width="0.5"/>
<path d="M21.9794 81.0305C17.4794 81.0305 12.9794 81.5305 1.47944 78.5305V76.5305L5.47944 74.5305V73.0305L1.47944 72.5305C0.978516 71.0303 -0.0212885 68.0303 1.97871 65.5303C1.47895 57.5303 1.97895 51.0303 3.97944 48.03C36.4794 28.5304 58.4794 34.5305 84.4794 30.0305C162.479 -24.9697 244.479 12.0303 281.479 26.5305L294.979 28.5303L295.479 35.5303V38.5303C296.978 43.5303 298.313 48.0303 296.979 50.0303C299.479 51.0303 301.979 54.1969 301.979 56.0303L299.979 66.0303C300.431 76.8782 298.023 77.1025 288.692 77.4149C287.701 77.4481 285.632 77.4823 284.479 77.5303V79.0303L259.479 79.4613M21.9794 81.0305V84.0305H39.9778L39.4794 79.5305M21.9794 81.0305V79.5305H39.4794M39.4794 79.5305C36.4794 38.0305 89.9794 41.0305 86.4794 80.0305V82.5303H212.979C206.979 39.0303 261.479 39.0303 259.479 79.4613M258.978 79.4613H259.479" stroke="black"/>
</svg>
