<svg width="303" height="96" viewBox="0 0 303 96" fill="none" xmlns="http://www.w3.org/2000/svg">
<circle cx="62.458" cy="74.1692" r="20.5" fill="#E0426F" stroke="black"/>
<circle cx="235.458" cy="74.1692" r="20.5" fill="#E0426F" stroke="black"/>
<path d="M132.456 12.669L130.956 9.16904C170.956 1.16916 192.456 1.66919 231.456 13.1691L227.956 17.6691C207.956 9.6691 189.956 8.6691 173.956 8.16917C171.456 7.66917 167.456 7.66913 164.956 8.16904C154.956 8.16917 142.956 9.66917 132.456 12.669Z" stroke="black" stroke-width="0.5"/>
<path d="M130.956 9.16923L130.456 7.66923C166.456 -3.33081 198.956 0.669064 234.456 9.66924L231.456 13.1692C191.456 0.669189 165.456 2.16919 130.956 9.16923Z" stroke="black" stroke-width="0.5"/>
<path d="M130.956 9.16918C182.456 -2.33085 210.956 7.66919 231.456 13.1692" stroke="black" stroke-width="0.5"/>
<path d="M226.458 30.6692L223.458 16.1692C218.958 14.6692 207.458 9.16919 173.958 8.16919L170.458 30.1692C181.458 29.6692 198.958 28.1692 225.958 28.1692" stroke="black" stroke-width="0.5"/>
<path d="M164.958 8.16919C131.958 9.16919 111.958 18.1692 92.958 35.6692L95.458 33.6692L159.458 30.6692L164.958 8.16919Z" stroke="black" stroke-width="0.5"/>
<path d="M239.456 22.6692C235.789 20.0025 229.956 17.6692 223.456 16.1692L225.956 28.1692H232.456C235.456 26.6692 238.456 24.4379 239.456 22.6692Z" stroke="black" stroke-width="0.5"/>
<path d="M96.458 78.6692H163.458L197.958 77.1692M96.458 78.6692C96.458 80.1692 96.958 81.1692 97.958 82.6692M96.458 78.6692H86.458V82.6692H97.958M197.958 77.1692L198.958 82.6692M197.958 77.1692H212.458L212.958 82.6692H198.958M198.958 82.6692H97.958" stroke="black" stroke-width="0.5"/>
<path d="M96.4571 78.6692C91.958 74.1692 88.9581 52.1692 92.9571 35.6692L164.958 31.6692C160.958 36.6692 159.958 70.6692 163.458 78.6692H96.4571Z" stroke="black" stroke-width="0.5"/>
<path d="M228.458 30.6692L164.958 31.6692C160.958 36.6692 159.958 70.6692 163.458 78.6692L197.958 77.1692C202.458 75.6692 208.958 70.1692 228.458 30.6692Z" stroke="black" stroke-width="0.5"/>
<path d="M170.458 30.1693C165.958 30.6693 162.458 30.6693 159.458 30.6693L164.958 8.16926C167.958 7.66919 170.958 7.66919 173.958 8.16926L170.458 30.1693Z" stroke="black" stroke-width="0.5"/>
<path d="M98.958 32.1693C103.458 37.6693 110.458 34.1693 114.458 32.6693C115.458 17.1692 102.458 25.1692 98.958 32.1693Z" stroke="black" stroke-width="0.5"/>
<path d="M234.456 9.66919L231.456 13.1692C248.456 18.6692 258.956 21.6692 271.456 28.1692H272.956L280.956 26.6692C265.956 20.1692 258.456 17.6692 234.456 9.66919Z" fill="#E56E90" stroke="black" stroke-width="0.5"/>
<path d="M271.456 28.1692C260.956 22.6692 241.956 16.1692 231.456 13.1692L229.456 15.6692L244.456 23.1692C242.956 25.6692 238.956 27.6692 232.956 30.3692C244.956 29.6692 261.956 28.6692 271.456 28.1692Z" fill="#E56E90" stroke="black" stroke-width="0.5"/>
<path d="M276.958 34.4692L282.956 32.1692L272.457 28.1692L228.457 30.6692C220.957 45.6692 205.957 76.1692 197.957 77.1692H212.457C210.957 66.1692 220.457 42.6692 245.458 51.6692C255.958 46.1692 265.958 40.6692 276.958 34.4692Z" fill="#E56E90" stroke="black" stroke-width="0.5"/>
<path d="M277.956 34.1692C265.956 40.6692 255.956 46.1692 245.456 51.6692C249.956 54.6692 260.456 60.6692 259.456 79.6692L284.456 79.1692V77.6692C292.956 76.6692 301.456 80.1692 299.956 66.1692L301.956 56.1692C301.956 54.6692 299.456 50.6692 296.956 50.1692C298.456 47.6692 295.456 38.6692 295.456 38.6692V37.1692L291.456 34.1692L286.456 32.6692L282.956 32.1692L277.956 34.1692Z" fill="#E56E90" stroke="black" stroke-width="0.5"/>
<path d="M280.956 26.6692L272.456 28.1692L282.956 32.1692C292.456 33.1692 291.455 34.6692 295.45 37.0894L294.956 28.6692L280.956 26.6692Z" fill="#E56E90"/>
<path d="M295.456 37.1692L295.45 37.0894M295.45 37.0894L294.956 28.6692L280.956 26.6692L272.456 28.1692L282.956 32.1692C292.456 33.1692 291.455 34.6692 295.45 37.0894Z" stroke="black" stroke-width="0.5"/>
<path d="M293.958 36.6694C293.458 34.1693 282.458 33.9692 276.958 34.4692" stroke="black" stroke-width="0.5"/>
<path d="M299.958 66.6692L260.458 68.6692C259.958 63.6692 257.791 59.5025 255.958 57.6692L301.958 55.1692M300.458 52.6692C289.458 51.1692 278.458 46.3692 266.458 40.3692M228.458 30.6692L272.458 28.1692L280.958 26.6692" stroke="black" stroke-width="0.5"/>
<path d="M290.458 40.6692C290.458 38.6692 289.458 34.6692 285.958 32.6692C288.179 32.6692 291.556 33.7096 294.067 36.0792C294.531 37.6092 293.458 41.1692 290.416 42.6692C290.403 42.0789 290.458 41.3935 290.458 40.6692Z" fill="#E56E90"/>
<path d="M272.458 43.1692C279.454 43.519 285.471 43.6241 290.851 44.1692M297.458 45.1692C295.355 44.7185 293.162 44.4033 290.851 44.1692M295.458 37.6692C295.04 37.0841 294.571 36.5548 294.067 36.0792M290.851 44.1692C290.525 43.8244 290.431 43.3014 290.416 42.6692M290.416 42.6692C290.403 42.0789 290.458 41.3935 290.458 40.6692C290.458 38.6692 289.458 34.6692 285.958 32.6692C288.179 32.6692 291.556 33.7096 294.067 36.0792M290.416 42.6692C293.458 41.1692 294.531 37.6092 294.067 36.0792" stroke="black" stroke-width="0.5"/>
<path d="M290.458 40.6692C285.958 40.6692 283.958 36.6692 282.958 34.1692" stroke="black" stroke-width="0.5"/>
<path d="M132.456 12.7692C118.956 16.7692 106.956 22.6692 92.9561 35.6692C99.9561 23.6692 115.456 14.1692 130.956 9.16919L132.456 12.7692Z" stroke="black" stroke-width="0.5"/>
<path d="M130.956 9.16919C110.956 14.8432 92.9561 32.1692 84.9561 30.1692C97.9561 20.6692 113.956 12.1692 130.456 7.66919L130.956 9.16919Z" stroke="black" stroke-width="0.5"/>
<path d="M9.95672 48.1692H3.95672C1.45605 52.1692 1.45605 62.1692 1.95672 65.6692C0.456055 66.6692 0.456652 71.1692 1.45672 72.6692L5.45672 73.1692V74.6692L1.45672 76.6692V78.6692C5.45672 79.6692 13.9567 81.6692 21.9567 81.1692V79.6692H39.4567C38.7901 71.1692 40.4567 60.6692 49.4567 53.6692C46.9567 49.6692 39.9567 45.1692 36.9567 44.6692C26.9567 43.6692 11.9567 46.1692 9.95672 48.1692Z" stroke="black" stroke-width="0.5"/>
<path d="M92.958 35.6692C75.1247 36.5025 43.458 41.3692 32.958 44.3692L36.958 44.6692C41.958 46.1692 47.458 50.5025 49.458 53.6692C62.457 44.1692 87.957 51.1692 86.457 78.6692H96.457C89.457 67.6692 90.457 45.6692 92.958 35.6692Z" stroke="black" stroke-width="0.5"/>
<path d="M9.95606 48.1692H3.95605C36.4562 28.6691 58.4563 34.6692 84.4561 30.1692L93.4563 35.6692C76.4563 36.6692 47.4561 40.1692 33.4561 44.3692C25.4561 44.1692 11.4561 46.1692 9.95606 48.1692Z" stroke="black" stroke-width="0.5"/>
<path d="M36.9575 44.6693C29.4575 43.6692 12.4575 45.6692 9.95751 48.1693C9.15751 50.5692 12.2908 53.5025 13.9575 54.6692C23.4575 56.1692 36.9575 50.1692 36.9575 44.6693Z" stroke="black" stroke-width="0.5"/>
<path d="M3.95675 48.1692C10.9568 49.1692 4.95675 59.6692 1.95675 64.6692C1.45668 57.6692 1.95654 52.1692 3.95675 48.1692Z" stroke="black" stroke-width="0.5"/>
<path d="M21.9561 84.1692V79.6692H39.4561L39.9561 84.1692H21.9561Z" stroke="black" stroke-width="0.5"/>
<path d="M2.45801 65.6692C3.95801 68.1692 5.95801 71.3359 5.45801 73.1692M21.958 79.6692C11.458 80.1692 6.95801 76.1692 7.95801 72.6692C8.45801 72.1692 9.95801 70.6692 10.958 70.6692" stroke="black" stroke-width="0.5"/>
<path d="M5.95801 65.6693C8.20795 65.1692 11.0829 64.5443 13.8328 64.1693M13.8328 64.1693C16.5829 63.7943 19.208 63.6693 20.958 64.1693C23.958 65.6693 29.458 70.6692 31.958 74.6692C26.958 75.6692 19.958 75.1692 15.458 75.1692C12.7654 75.1692 11.458 72.8359 11.458 71.6692C10.958 68.6692 12.2079 65.5026 13.8328 64.1693Z" stroke="black" stroke-width="0.5"/>
<path d="M11.458 71.1693C19.458 69.6693 22.958 72.2978 25.958 73.7978M12.958 74.1693L30.458 73.6693" stroke="black" stroke-width="0.5"/>
<path d="M21.9561 82.6692H31.4561C33.4561 82.6692 34.9561 80.6692 34.4561 79.6692M37.9561 79.6692V84.1692" stroke="black" stroke-width="0.5"/>
<path d="M21.958 81.1694C17.458 81.1694 12.958 81.6694 1.45795 78.6694V76.6694L5.45795 74.6694V73.1694L1.45795 72.6694C0.957031 71.1692 -0.0427729 68.1692 1.95722 65.6692C1.45747 57.6692 1.95747 51.1692 3.95795 48.1689C36.458 28.6693 58.4579 34.6694 84.4579 30.1694C162.458 -24.8307 244.458 12.1692 281.458 26.6694L294.958 28.6692L295.458 35.6692V38.6692C296.956 43.6692 298.291 48.1692 296.958 50.1692C299.458 51.1692 301.958 54.3359 301.958 56.1692L299.958 66.1692C300.41 77.0171 298.002 77.2414 288.67 77.5538C287.679 77.587 285.61 77.6212 284.458 77.6692V79.1692L259.458 79.6002M21.958 81.1694V84.1694H39.9563L39.458 79.6694M21.958 81.1694V79.6694H39.458M39.458 79.6694C36.458 38.1694 89.9579 41.1694 86.4579 80.1694V82.6692H212.958C206.958 39.1692 261.458 39.1692 259.458 79.6002M258.956 79.6002H259.458" stroke="black"/>
</svg>
