<svg width="303" height="96" viewBox="0 0 303 96" fill="none" xmlns="http://www.w3.org/2000/svg">
<circle cx="62.8652" cy="74.3838" r="20.5" fill="#EFC7D3" stroke="black"/>
<circle cx="235.865" cy="74.3838" r="20.5" fill="#EFC7D3" stroke="black"/>
<path d="M132.863 12.8836L131.363 9.38364C171.363 1.38376 192.863 1.88379 231.863 13.3837L228.363 17.8837C208.363 9.8837 190.363 8.8837 174.363 8.38377C171.863 7.88377 167.863 7.88373 165.363 8.38364C155.363 8.38377 143.363 9.88377 132.863 12.8836Z" fill="#E56E90" stroke="black" stroke-width="0.5"/>
<path d="M131.363 9.38383L130.863 7.88383C166.863 -3.11621 199.363 0.883663 234.863 9.88383L231.863 13.3838C191.863 0.883789 165.863 2.38379 131.363 9.38383Z" fill="#E56E90" stroke="black" stroke-width="0.5"/>
<path d="M131.363 9.3839C182.863 -2.11613 211.363 7.88391 231.863 13.3839" stroke="black" stroke-width="0.5"/>
<path d="M170.865 30.3838L174.365 8.38379C207.865 9.38379 219.365 14.8838 223.865 16.3838L226.348 28.3838C199.358 28.3844 181.863 29.8839 170.865 30.3838Z" fill="#E56E90"/>
<path d="M226.865 30.8838L223.865 16.3838C219.365 14.8838 207.865 9.38379 174.365 8.38379L170.865 30.3838C181.865 29.8838 199.365 28.3838 226.365 28.3838" stroke="black" stroke-width="0.5"/>
<path d="M165.365 8.38379C132.365 9.38379 112.365 18.3838 93.3652 35.8838L95.8652 33.8838L159.865 30.8838L165.365 8.38379Z" fill="#E56E90" stroke="black" stroke-width="0.5"/>
<path d="M239.863 22.8838C236.197 20.2171 230.363 17.8838 223.863 16.3838L226.363 28.3838H232.863C235.863 26.8838 238.863 24.6525 239.863 22.8838Z" fill="#E56E90" stroke="black" stroke-width="0.5"/>
<path d="M96.8652 78.8838H163.865L198.365 77.3838H212.865L213.365 82.8838H199.365H98.3652H86.8652V78.8838H96.8652Z" fill="#E56E90"/>
<path d="M96.8652 78.8838H163.865L198.365 77.3838M96.8652 78.8838C96.8652 80.3838 97.3652 81.3838 98.3652 82.8838M96.8652 78.8838H86.8652V82.8838H98.3652M198.365 77.3838L199.365 82.8838M198.365 77.3838H212.865L213.365 82.8838H199.365M199.365 82.8838H98.3652" stroke="black" stroke-width="0.5"/>
<path d="M96.8644 78.8838C92.3652 74.3838 89.3653 52.3838 93.3644 35.8838L165.365 31.8838C161.365 36.8838 160.365 70.8838 163.865 78.8838H96.8644Z" fill="#E56E90" stroke="black" stroke-width="0.5"/>
<path d="M228.865 30.8838L165.365 31.8838C161.365 36.8838 160.365 70.8838 163.865 78.8838L198.365 77.3838C202.865 75.8838 209.365 70.3838 228.865 30.8838Z" fill="#E56E90" stroke="black" stroke-width="0.5"/>
<path d="M170.865 30.3839C166.365 30.8839 162.865 30.8839 159.865 30.8839L165.365 8.38386C168.365 7.88379 171.365 7.88379 174.365 8.38386L170.865 30.3839Z" fill="#E56E90" stroke="black" stroke-width="0.5"/>
<path d="M99.3652 32.384C103.865 37.884 110.865 34.384 114.865 32.884C115.865 17.3839 102.865 25.3839 99.3652 32.384Z" fill="#E56E90" stroke="black" stroke-width="0.5"/>
<path d="M234.863 9.88379L231.863 13.3838C248.863 18.8838 259.363 21.8838 271.863 28.3838H273.363L281.363 26.8838C266.363 20.3838 258.863 17.8838 234.863 9.88379Z" fill="#E56E90" stroke="black" stroke-width="0.5"/>
<path d="M271.863 28.3838C261.363 22.8838 242.363 16.3838 231.863 13.3838L229.863 15.8838L244.863 23.3838C243.363 25.8838 239.363 27.8838 233.363 30.5838C245.363 29.8838 262.363 28.8838 271.863 28.3838Z" fill="#E56E90" stroke="black" stroke-width="0.5"/>
<path d="M277.365 34.6838L283.364 32.3838L272.864 28.3838L228.864 30.8838C221.364 45.8838 206.364 76.3838 198.364 77.3838H212.864C211.364 66.3838 220.864 42.8838 245.865 51.8838C256.365 46.3838 266.365 40.8838 277.365 34.6838Z" fill="#E56E90" stroke="black" stroke-width="0.5"/>
<path d="M278.363 34.3838C266.363 40.8838 256.363 46.3838 245.863 51.8838C250.363 54.8838 260.863 60.8838 259.863 79.8838L284.863 79.3838V77.8838C293.363 76.8838 301.863 80.3838 300.363 66.3838L302.363 56.3838C302.363 54.8838 299.863 50.8838 297.363 50.3838C298.863 47.8838 295.863 38.8838 295.863 38.8838V37.3838L291.863 34.3838L286.863 32.8838L283.363 32.3838L278.363 34.3838Z" fill="#E56E90" stroke="black" stroke-width="0.5"/>
<path d="M281.363 26.8838L272.863 28.3838L283.363 32.3838C292.863 33.3838 291.862 34.8838 295.857 37.304L295.363 28.8838L281.363 26.8838Z" fill="#E56E90"/>
<path d="M295.863 37.3838L295.857 37.304M295.857 37.304L295.363 28.8838L281.363 26.8838L272.863 28.3838L283.363 32.3838C292.863 33.3838 291.862 34.8838 295.857 37.304Z" stroke="black" stroke-width="0.5"/>
<path d="M294.365 36.884C293.865 34.3839 282.865 34.1838 277.365 34.6838" stroke="black" stroke-width="0.5"/>
<path d="M300.365 66.8838L260.865 68.8838C260.365 63.8838 258.199 59.7171 256.365 57.8838L302.365 55.3838M300.865 52.8838C289.865 51.3838 278.865 46.5838 266.865 40.5838M228.865 30.8838L272.865 28.3838L281.365 26.8838" stroke="black" stroke-width="0.5"/>
<path d="M290.865 40.8838C290.865 38.8838 289.865 34.8838 286.365 32.8838C288.586 32.8838 291.963 33.9242 294.474 36.2938C294.938 37.8238 293.865 41.3838 290.823 42.8838C290.81 42.2935 290.865 41.6081 290.865 40.8838Z" fill="#E56E90"/>
<path d="M272.865 43.3838C279.861 43.7336 285.878 43.8387 291.258 44.3838M297.865 45.3838C295.762 44.9331 293.569 44.6179 291.258 44.3838M295.865 37.8838C295.447 37.2987 294.978 36.7694 294.474 36.2938M291.258 44.3838C290.932 44.039 290.838 43.516 290.823 42.8838M290.823 42.8838C290.81 42.2935 290.865 41.6081 290.865 40.8838C290.865 38.8838 289.865 34.8838 286.365 32.8838C288.586 32.8838 291.963 33.9242 294.474 36.2938M290.823 42.8838C293.865 41.3838 294.938 37.8238 294.474 36.2938" stroke="black" stroke-width="0.5"/>
<path d="M290.865 40.8838C286.365 40.8838 284.365 36.8838 283.365 34.3838" stroke="black" stroke-width="0.5"/>
<path d="M132.863 12.9838C119.363 16.9838 107.363 22.8838 93.3633 35.8838C100.363 23.8838 115.863 14.3838 131.363 9.38379L132.863 12.9838Z" fill="#E0426F" stroke="black" stroke-width="0.5"/>
<path d="M131.363 9.38379C111.363 15.0578 93.3633 32.3838 85.3633 30.3838C98.3633 20.8838 114.363 12.3838 130.863 7.88379L131.363 9.38379Z" fill="#E0426F" stroke="black" stroke-width="0.5"/>
<path d="M10.3639 48.3837H4.36395C1.86328 52.3837 1.86328 62.3837 2.36395 65.8837C0.863281 66.8837 0.863879 71.3837 1.86395 72.8837L5.86395 73.3837V74.8837L1.86395 76.8837V78.8837C5.86395 79.8837 14.3639 81.8837 22.3639 81.3837V79.8837H39.8639C39.1973 71.3837 40.8639 60.8837 49.8639 53.8837C47.3639 49.8837 40.3639 45.3837 37.3639 44.8837C27.3639 43.8837 12.3639 46.3837 10.3639 48.3837Z" fill="#E0426F" stroke="black" stroke-width="0.5"/>
<path d="M93.3652 35.8838C75.5319 36.7171 43.8652 41.5838 33.3652 44.5838L37.3652 44.8838C42.3652 46.3838 47.8652 50.7171 49.8652 53.8838C62.8643 44.3838 88.3643 51.3838 86.8643 78.8838H96.8643C89.8643 67.8838 90.8643 45.8838 93.3652 35.8838Z" fill="#E0426F" stroke="black" stroke-width="0.5"/>
<path d="M10.3633 48.3838H4.36328C36.8635 28.8837 58.8635 34.8838 84.8633 30.3838L93.8635 35.8838C76.8635 36.8838 47.8633 40.3838 33.8633 44.5838C25.8633 44.3838 11.8633 46.3838 10.3633 48.3838Z" fill="#E0426F" stroke="black" stroke-width="0.5"/>
<path d="M37.3647 44.8839C29.8647 43.8838 12.8647 45.8838 10.3647 48.3839C9.56474 50.7838 12.6981 53.7171 14.3647 54.8838C23.8647 56.3838 37.3647 50.3838 37.3647 44.8839Z" fill="#E0426F" stroke="black" stroke-width="0.5"/>
<path d="M4.36398 48.3838C11.364 49.3838 5.36398 59.8838 2.36398 64.8838C1.86391 57.8838 2.36377 52.3838 4.36398 48.3838Z" fill="#E0426F" stroke="black" stroke-width="0.5"/>
<path d="M22.3633 84.3838V79.8838H39.8633L40.3633 84.3838H22.3633Z" fill="#E0426F" stroke="black" stroke-width="0.5"/>
<path d="M2.86523 65.8838C4.36523 68.3838 6.36523 71.5505 5.86523 73.3838M22.3652 79.8838C11.8652 80.3838 7.36523 76.3838 8.36523 72.8838C8.86523 72.3838 10.3652 70.8838 11.3652 70.8838" stroke="black" stroke-width="0.5"/>
<path d="M32.3652 74.8839C29.8652 70.8839 24.3652 65.884 21.3652 64.384C19.6152 63.884 16.9901 64.009 14.24 64.384C12.6151 65.7173 11.3652 68.8839 11.8652 71.8839C11.8652 73.0506 13.1727 75.3839 15.8652 75.3839C20.3652 75.3839 27.3652 75.8839 32.3652 74.8839Z" fill="#E0426F"/>
<path d="M6.36523 65.884C8.61518 65.384 11.4901 64.759 14.24 64.384M14.24 64.384C16.9901 64.009 19.6152 63.884 21.3652 64.384C24.3652 65.884 29.8652 70.8839 32.3652 74.8839C27.3652 75.8839 20.3652 75.3839 15.8652 75.3839C13.1727 75.3839 11.8652 73.0506 11.8652 71.8839C11.3652 68.8839 12.6151 65.7173 14.24 64.384Z" stroke="black" stroke-width="0.5"/>
<path d="M11.8652 71.384C19.8652 69.884 23.3652 72.5125 26.3652 74.0125M13.3652 74.384L30.8652 73.884" stroke="black" stroke-width="0.5"/>
<path d="M22.3633 82.8838H31.8633C33.8633 82.8838 35.3633 80.8838 34.8633 79.8838M38.3633 79.8838V84.3838" stroke="black" stroke-width="0.5"/>
<path d="M22.3652 81.384C17.8652 81.384 13.3652 81.884 1.86518 78.884V76.884L5.86518 74.884V73.384L1.86518 72.884C1.36426 71.3838 0.364454 68.3838 2.36445 65.8838C1.86469 57.8838 2.36469 51.3838 4.36518 48.3835C36.8652 28.8839 58.8652 34.884 84.8652 30.384C162.865 -24.6161 244.865 12.3838 281.865 26.884L295.365 28.8838L295.865 35.8838V38.8838C297.364 43.8838 298.699 48.3838 297.365 50.3838C299.865 51.3838 302.365 54.5505 302.365 56.3838L300.365 66.3838C300.817 77.2317 298.409 77.456 289.077 77.7684C288.086 77.8016 286.017 77.8358 284.865 77.8838V79.3838L259.865 79.8148M22.3652 81.384V84.384H40.3635L39.8652 79.884M22.3652 81.384V79.884H39.8652M39.8652 79.884C36.8652 38.384 90.3652 41.384 86.8652 80.384V82.8838H213.365C207.365 39.3838 261.865 39.3838 259.865 79.8148M259.364 79.8148H259.865" stroke="black"/>
</svg>
