<svg width="303" height="95" viewBox="0 0 303 95" fill="none" xmlns="http://www.w3.org/2000/svg">
<circle cx="62.8853" cy="73.8611" r="20.5" fill="#EFC7D3" stroke="black"/>
<circle cx="235.885" cy="73.8611" r="20.5" fill="#EFC7D3" stroke="black"/>
<path d="M132.884 12.3609L131.384 8.86094C171.384 0.861052 192.884 1.36108 231.884 12.861L228.384 17.361C208.384 9.36099 190.384 8.36099 174.384 7.86106C171.884 7.36106 167.884 7.36102 165.384 7.86094C155.384 7.86106 143.384 9.36106 132.884 12.3609Z" fill="#EDADBF" stroke="black" stroke-width="0.5"/>
<path d="M131.384 8.86113L130.884 7.36113C166.884 -3.63892 199.384 0.360958 234.884 9.36113L231.884 12.8611C191.884 0.361084 165.884 1.86108 131.384 8.86113Z" fill="#EDADBF" stroke="black" stroke-width="0.5"/>
<path d="M131.384 8.86095C182.884 -2.63908 211.384 7.36096 231.884 12.8609" stroke="black" stroke-width="0.5"/>
<path d="M170.885 29.8611L174.385 7.86108C207.885 8.86108 219.385 14.3611 223.885 15.8611L226.368 27.8611C199.378 27.8617 181.883 29.3612 170.885 29.8611Z" fill="#EDADBF"/>
<path d="M226.885 30.3611L223.885 15.8611C219.385 14.3611 207.885 8.86108 174.385 7.86108L170.885 29.8611C181.885 29.3611 199.385 27.8611 226.385 27.8611" stroke="black" stroke-width="0.5"/>
<path d="M165.385 7.86108C132.385 8.86108 112.385 17.8611 93.3853 35.3611L95.8853 33.3611L159.885 30.3611L165.385 7.86108Z" fill="#EDADBF" stroke="black" stroke-width="0.5"/>
<path d="M239.884 22.3611C236.217 19.6944 230.384 17.3611 223.884 15.8611L226.384 27.8611H232.884C235.884 26.3611 238.884 24.1298 239.884 22.3611Z" fill="#EDADBF" stroke="black" stroke-width="0.5"/>
<path d="M96.8853 78.3611H163.885L198.385 76.8611H212.885L213.385 82.3611H199.385H98.3853H86.8853V78.3611H96.8853Z" fill="#EDADBF"/>
<path d="M96.8853 78.3611H163.885L198.385 76.8611M96.8853 78.3611C96.8853 79.8611 97.3853 80.8611 98.3853 82.3611M96.8853 78.3611H86.8853V82.3611H98.3853M198.385 76.8611L199.385 82.3611M198.385 76.8611H212.885L213.385 82.3611H199.385M199.385 82.3611H98.3853" stroke="black" stroke-width="0.5"/>
<path d="M96.8844 78.3611C92.3852 73.8611 89.3853 51.8611 93.3844 35.3611L165.385 31.3611C161.385 36.3611 160.385 70.3611 163.885 78.3611H96.8844Z" fill="#EDADBF" stroke="black" stroke-width="0.5"/>
<path d="M228.885 30.3611L165.385 31.3611C161.385 36.3611 160.385 70.3611 163.885 78.3611L198.385 76.8611C202.885 75.3611 209.385 69.8611 228.885 30.3611Z" fill="#EDADBF" stroke="black" stroke-width="0.5"/>
<path d="M170.885 29.8612C166.385 30.3612 162.885 30.3612 159.885 30.3612L165.385 7.86116C168.385 7.36108 171.385 7.36108 174.385 7.86116L170.885 29.8612Z" fill="#EDADBF" stroke="black" stroke-width="0.5"/>
<path d="M99.3853 31.8611C103.885 37.3611 110.885 33.8611 114.885 32.3611C115.885 16.861 102.885 24.861 99.3853 31.8611Z" fill="#EDADBF" stroke="black" stroke-width="0.5"/>
<path d="M234.884 9.36108L231.884 12.8611C248.884 18.3611 259.384 21.3611 271.884 27.8611H273.384L281.384 26.3611C266.384 19.8611 258.884 17.3611 234.884 9.36108Z" fill="#EFC7D3" stroke="black" stroke-width="0.5"/>
<path d="M271.884 27.8611C261.384 22.3611 242.384 15.8611 231.884 12.8611L229.884 15.3611L244.884 22.8611C243.384 25.3611 239.384 27.3611 233.384 30.0611C245.384 29.3611 262.384 28.3611 271.884 27.8611Z" fill="#EFC7D3" stroke="black" stroke-width="0.5"/>
<path d="M277.385 34.1611L283.384 31.8611L272.884 27.8611L228.884 30.3611C221.384 45.3611 206.384 75.8611 198.384 76.8611H212.884C211.384 65.8611 220.884 42.3611 245.885 51.3611C256.385 45.8611 266.385 40.3611 277.385 34.1611Z" fill="#EFC7D3" stroke="black" stroke-width="0.5"/>
<path d="M278.384 33.8611C266.384 40.3611 256.384 45.8611 245.884 51.3611C250.384 54.3611 260.884 60.3611 259.884 79.3611L284.884 78.8611V77.3611C293.384 76.3611 301.884 79.8611 300.384 65.8611L302.384 55.8611C302.384 54.3611 299.884 50.3611 297.384 49.8611C298.884 47.3611 295.884 38.3611 295.884 38.3611V36.8611L291.884 33.8611L286.884 32.3611L283.384 31.8611L278.384 33.8611Z" fill="#EFC7D3" stroke="black" stroke-width="0.5"/>
<path d="M281.384 26.3611L272.884 27.8611L283.384 31.8611C292.884 32.8611 291.883 34.3611 295.878 36.7813L295.384 28.3611L281.384 26.3611Z" fill="#EFC7D3"/>
<path d="M295.884 36.8611L295.878 36.7813M295.878 36.7813L295.384 28.3611L281.384 26.3611L272.884 27.8611L283.384 31.8611C292.884 32.8611 291.883 34.3611 295.878 36.7813Z" stroke="black" stroke-width="0.5"/>
<path d="M294.385 36.3613C293.885 33.8612 282.885 33.6611 277.385 34.1611" stroke="black" stroke-width="0.5"/>
<path d="M300.385 66.3611L260.885 68.3611C260.385 63.3611 258.219 59.1944 256.385 57.3611L302.385 54.8611M300.885 52.3611C289.885 50.8611 278.885 46.0611 266.885 40.0611M228.885 30.3611L272.885 27.8611L281.385 26.3611" stroke="black" stroke-width="0.5"/>
<path d="M290.885 40.3611C290.885 38.3611 289.885 34.3611 286.385 32.3611C288.606 32.3611 291.983 33.4015 294.494 35.7711C294.958 37.3011 293.885 40.8611 290.843 42.3611C290.83 41.7708 290.885 41.0854 290.885 40.3611Z" fill="#EFC7D3"/>
<path d="M272.885 42.8611C279.881 43.2109 285.898 43.316 291.278 43.8611M297.885 44.8611C295.782 44.4104 293.589 44.0952 291.278 43.8611M295.885 37.3611C295.467 36.776 294.998 36.2467 294.494 35.7711M291.278 43.8611C290.952 43.5163 290.858 42.9933 290.843 42.3611M290.843 42.3611C290.83 41.7708 290.885 41.0854 290.885 40.3611C290.885 38.3611 289.885 34.3611 286.385 32.3611C288.606 32.3611 291.983 33.4015 294.494 35.7711M290.843 42.3611C293.885 40.8611 294.958 37.3011 294.494 35.7711" stroke="black" stroke-width="0.5"/>
<path d="M290.885 40.3611C286.385 40.3611 284.385 36.3611 283.385 33.8611" stroke="black" stroke-width="0.5"/>
<path d="M132.884 12.4611C119.384 16.4611 107.384 22.3611 93.3838 35.3611C100.384 23.3611 115.884 13.8611 131.384 8.86108L132.884 12.4611Z" stroke="black" stroke-width="0.5"/>
<path d="M131.384 8.86108C111.384 14.5351 93.3838 31.8611 85.3838 29.8611C98.3838 20.3611 114.384 11.8611 130.884 7.36108L131.384 8.86108Z" stroke="black" stroke-width="0.5"/>
<path d="M10.3845 47.861H4.38446C1.88379 51.861 1.88379 61.861 2.38446 65.361C0.883789 66.361 0.884387 70.861 1.88446 72.361L5.88446 72.861V74.361L1.88446 76.361V78.361C5.88446 79.361 14.3845 81.361 22.3845 80.861V79.361H39.8845C39.2178 70.861 40.8845 60.361 49.8845 53.361C47.3845 49.361 40.3845 44.861 37.3845 44.361C27.3845 43.361 12.3845 45.861 10.3845 47.861Z" stroke="black" stroke-width="0.5"/>
<path d="M93.3853 35.3611C75.5519 36.1944 43.8853 41.0611 33.3853 44.0611L37.3853 44.3611C42.3853 45.8611 47.8853 50.1944 49.8853 53.3611C62.8843 43.8611 88.3843 50.8611 86.8843 78.3611H96.8843C89.8843 67.3611 90.8843 45.3611 93.3853 35.3611Z" stroke="black" stroke-width="0.5"/>
<path d="M10.3838 47.8611H4.38379C36.884 28.361 58.884 34.3611 84.8838 29.8611L93.884 35.3611C76.884 36.3611 47.8838 39.8611 33.8838 44.0611C25.8838 43.8611 11.8838 45.8611 10.3838 47.8611Z" stroke="black" stroke-width="0.5"/>
<path d="M37.3852 44.3612C29.8852 43.3611 12.8852 45.3611 10.3852 47.8612C9.58524 50.2611 12.7186 53.1944 14.3852 54.3611C23.8853 55.8611 37.3852 49.8611 37.3852 44.3612Z" stroke="black" stroke-width="0.5"/>
<path d="M4.38448 47.8611C11.3845 48.8611 5.38448 59.3611 2.38448 64.3611C1.88441 57.3611 2.38428 51.8611 4.38448 47.8611Z" stroke="black" stroke-width="0.5"/>
<path d="M22.3838 83.8611V79.3611H39.8838L40.3838 83.8611H22.3838Z" stroke="black" stroke-width="0.5"/>
<path d="M2.88574 65.3608C4.38574 67.8608 6.38574 71.0275 5.88574 72.8608M22.3857 79.3608C11.8857 79.8608 7.38574 75.8608 8.38574 72.3608C8.88574 71.8608 10.3857 70.3608 11.3857 70.3608" stroke="black" stroke-width="0.5"/>
<path d="M6.38574 65.361C8.63568 64.861 11.5106 64.236 14.2605 63.861M14.2605 63.861C17.0106 63.486 19.6357 63.361 21.3857 63.861C24.3857 65.361 29.8857 70.361 32.3857 74.361C27.3857 75.361 20.3857 74.861 15.8857 74.861C13.1932 74.861 11.8857 72.5276 11.8857 71.361C11.3857 68.361 12.6356 65.1943 14.2605 63.861Z" stroke="black" stroke-width="0.5"/>
<path d="M11.8857 70.861C19.8857 69.3611 23.3857 71.9896 26.3857 73.4896M13.3857 73.8611L30.8857 73.3611" stroke="black" stroke-width="0.5"/>
<path d="M22.3838 82.3608H31.8838C33.8838 82.3608 35.3838 80.3608 34.8838 79.3608M38.3838 79.3608V83.8608" stroke="black" stroke-width="0.5"/>
<path d="M22.3852 80.8613C17.8852 80.8613 13.3852 81.3613 1.8852 78.3613V76.3613L5.8852 74.3613V72.8613L1.8852 72.3613C1.38428 70.8611 0.384473 67.8611 2.38447 65.3611C1.88471 57.3611 2.38471 50.8611 4.3852 47.8608C36.8852 28.3612 58.8852 34.3613 84.8852 29.8613C162.885 -25.1388 244.885 11.8611 281.885 26.3613L295.385 28.3611L295.885 35.3611V38.3611C297.384 43.3611 298.719 47.8611 297.385 49.8611C299.885 50.8611 302.385 54.0278 302.385 55.8611L300.385 65.8611C300.837 76.709 298.429 76.9333 289.098 77.2457C288.106 77.2789 286.037 77.3131 284.885 77.3611V78.8611L259.885 79.2921M22.3852 80.8613V83.8613H40.3835L39.8852 79.3613M22.3852 80.8613V79.3613H39.8852M39.8852 79.3613C36.8852 37.8613 90.3852 40.8613 86.8852 79.8613V82.3611H213.385C207.385 38.8611 261.885 38.8611 259.885 79.2921M259.384 79.2921H259.885" stroke="black"/>
</svg>
