<svg width="303" height="95" viewBox="0 0 303 95" fill="none" xmlns="http://www.w3.org/2000/svg">
<circle cx="62.6772" cy="73.8762" r="20.5" stroke="black"/>
<circle cx="235.678" cy="73.8762" r="20.5" stroke="black"/>
<path d="M132.676 12.3761L131.176 8.87608C171.176 0.876188 192.676 1.37622 231.676 12.8762L228.176 17.3762C208.176 9.37613 190.176 8.37613 174.176 7.8762C171.676 7.3762 167.676 7.37616 165.176 7.87608C155.176 7.8762 143.176 9.3762 132.676 12.3761Z" fill="#E56E90" stroke="black" stroke-width="0.5"/>
<path d="M131.176 8.87627L130.676 7.37626C166.676 -3.62378 199.176 0.376095 234.676 9.37627L231.676 12.8763C191.676 0.376221 165.676 1.87622 131.176 8.87627Z" fill="#E56E90" stroke="black" stroke-width="0.5"/>
<path d="M131.176 8.87609C182.676 -2.62394 211.176 7.3761 231.676 12.8761" stroke="black" stroke-width="0.5"/>
<path d="M170.677 29.8762L174.177 7.87622C207.677 8.87622 219.177 14.3762 223.677 15.8762L226.16 27.8762C199.17 27.8769 181.675 29.3763 170.677 29.8762Z" fill="#E56E90"/>
<path d="M226.677 30.3762L223.677 15.8762C219.177 14.3762 207.677 8.87622 174.177 7.87622L170.677 29.8762C181.677 29.3762 199.177 27.8762 226.177 27.8762" stroke="black" stroke-width="0.5"/>
<path d="M165.177 7.87622C132.177 8.87622 112.177 17.8762 93.1772 35.3762L95.6772 33.3762L159.677 30.3762L165.177 7.87622Z" fill="#E56E90" stroke="black" stroke-width="0.5"/>
<path d="M239.676 22.3762C236.009 19.7096 230.176 17.3762 223.676 15.8762L226.176 27.8762H232.676C235.676 26.3762 238.676 24.145 239.676 22.3762Z" fill="#E56E90" stroke="black" stroke-width="0.5"/>
<path d="M96.6772 78.3762H163.677L198.177 76.8762H212.677L213.177 82.3762H199.177H98.1772H86.6772V78.3762H96.6772Z" fill="#E56E90"/>
<path d="M96.6772 78.3762H163.677L198.177 76.8762M96.6772 78.3762C96.6772 79.8762 97.1772 80.8762 98.1772 82.3762M96.6772 78.3762H86.6772V82.3762H98.1772M198.177 76.8762L199.177 82.3762M198.177 76.8762H212.677L213.177 82.3762H199.177M199.177 82.3762H98.1772" stroke="black" stroke-width="0.5"/>
<path d="M96.6764 78.3762C92.1772 73.8762 89.1773 51.8762 93.1764 35.3762L165.177 31.3762C161.177 36.3762 160.177 70.3762 163.677 78.3762H96.6764Z" fill="#E56E90" stroke="black" stroke-width="0.5"/>
<path d="M228.677 30.3762L165.177 31.3762C161.177 36.3762 160.177 70.3762 163.677 78.3762L198.177 76.8762C202.677 75.3762 209.177 69.8762 228.677 30.3762Z" fill="#E56E90" stroke="black" stroke-width="0.5"/>
<path d="M170.677 29.8763C166.177 30.3763 162.677 30.3763 159.677 30.3763L165.177 7.87629C168.177 7.37622 171.177 7.37622 174.177 7.87629L170.677 29.8763Z" fill="#E56E90" stroke="black" stroke-width="0.5"/>
<path d="M99.1772 31.8762C103.677 37.3762 110.677 33.8762 114.677 32.3762C115.677 16.8761 102.677 24.8761 99.1772 31.8762Z" fill="#E56E90" stroke="black" stroke-width="0.5"/>
<path d="M234.676 9.37622L231.676 12.8762C248.676 18.3762 259.176 21.3762 271.676 27.8762H273.176L281.176 26.3762C266.176 19.8762 258.676 17.3762 234.676 9.37622Z" fill="#EDADBF" stroke="black" stroke-width="0.5"/>
<path d="M271.676 27.8762C261.176 22.3762 242.176 15.8762 231.676 12.8762L229.676 15.3762L244.676 22.8762C243.176 25.3762 239.176 27.3762 233.176 30.0762C245.176 29.3762 262.176 28.3762 271.676 27.8762Z" fill="#EDADBF" stroke="black" stroke-width="0.5"/>
<path d="M277.178 34.1762L283.176 31.8762L272.677 27.8762L228.677 30.3762C221.177 45.3762 206.177 75.8762 198.177 76.8762H212.677C211.177 65.8762 220.677 42.3762 245.678 51.3762C256.178 45.8762 266.178 40.3762 277.178 34.1762Z" fill="#EDADBF" stroke="black" stroke-width="0.5"/>
<path d="M278.176 33.8762C266.176 40.3762 256.176 45.8762 245.676 51.3762C250.176 54.3762 260.676 60.3762 259.676 79.3762L284.676 78.8762V77.3762C293.176 76.3762 301.676 79.8762 300.176 65.8762L302.176 55.8762C302.176 54.3762 299.676 50.3762 297.176 49.8762C298.676 47.3762 295.676 38.3762 295.676 38.3762V36.8762L291.676 33.8762L286.676 32.3762L283.176 31.8762L278.176 33.8762Z" fill="#EDADBF" stroke="black" stroke-width="0.5"/>
<path d="M281.176 26.3762L272.676 27.8762L283.176 31.8762C292.676 32.8762 291.675 34.3762 295.67 36.7964L295.176 28.3762L281.176 26.3762Z" fill="#EDADBF"/>
<path d="M295.676 36.8762L295.67 36.7964M295.67 36.7964L295.176 28.3762L281.176 26.3762L272.676 27.8762L283.176 31.8762C292.676 32.8762 291.675 34.3762 295.67 36.7964Z" stroke="black" stroke-width="0.5"/>
<path d="M294.178 36.3764C293.678 33.8763 282.678 33.6762 277.178 34.1762" stroke="black" stroke-width="0.5"/>
<path d="M300.178 66.3762L260.678 68.3762C260.178 63.3762 258.011 59.2096 256.178 57.3762L302.178 54.8762M300.678 52.3762C289.678 50.8762 278.678 46.0762 266.678 40.0762M228.678 30.3762L272.678 27.8762L281.178 26.3762" stroke="black" stroke-width="0.5"/>
<path d="M290.678 40.3762C290.678 38.3762 289.678 34.3762 286.178 32.3762C288.399 32.3762 291.775 33.4166 294.287 35.7862C294.75 37.3162 293.678 40.8762 290.636 42.3762C290.622 41.7859 290.678 41.1005 290.678 40.3762Z" fill="#EDADBF"/>
<path d="M272.678 42.8762C279.673 43.226 285.69 43.3311 291.071 43.8762M297.678 44.8762C295.575 44.4256 293.381 44.1103 291.071 43.8762M295.678 37.3762C295.26 36.7911 294.791 36.2619 294.287 35.7862M291.071 43.8762C290.745 43.5315 290.651 43.0084 290.636 42.3762M290.636 42.3762C290.622 41.7859 290.678 41.1005 290.678 40.3762C290.678 38.3762 289.678 34.3762 286.178 32.3762C288.399 32.3762 291.775 33.4166 294.287 35.7862M290.636 42.3762C293.678 40.8762 294.75 37.3162 294.287 35.7862" stroke="black" stroke-width="0.5"/>
<path d="M290.678 40.3762C286.178 40.3762 284.178 36.3762 283.178 33.8762" stroke="black" stroke-width="0.5"/>
<path d="M132.676 12.4762C119.176 16.4762 107.176 22.3762 93.1758 35.3762C100.176 23.3762 115.676 13.8762 131.176 8.87622L132.676 12.4762Z" fill="#EFC7D3" stroke="black" stroke-width="0.5"/>
<path d="M131.176 8.87622C111.176 14.5503 93.1758 31.8762 85.1758 29.8762C98.1758 20.3762 114.176 11.8762 130.676 7.37622L131.176 8.87622Z" fill="#EFC7D3" stroke="black" stroke-width="0.5"/>
<path d="M10.1764 47.8761H4.17645C1.67578 51.8761 1.67578 61.8761 2.17645 65.3761C0.675781 66.3761 0.676379 70.8761 1.67645 72.3761L5.67645 72.8761V74.3761L1.67645 76.3761V78.3761C5.67645 79.3761 14.1764 81.3761 22.1764 80.8761V79.3761H39.6764C39.0098 70.8761 40.6764 60.3761 49.6764 53.3761C47.1764 49.3761 40.1764 44.8761 37.1764 44.3761C27.1764 43.3761 12.1764 45.8761 10.1764 47.8761Z" fill="#EFC7D3" stroke="black" stroke-width="0.5"/>
<path d="M93.1772 35.3762C75.3439 36.2096 43.6772 41.0762 33.1772 44.0762L37.1772 44.3762C42.1772 45.8762 47.6772 50.2096 49.6772 53.3762C62.6763 43.8762 88.1763 50.8762 86.6763 78.3762H96.6763C89.6763 67.3762 90.6763 45.3762 93.1772 35.3762Z" fill="#EFC7D3" stroke="black" stroke-width="0.5"/>
<path d="M10.1758 47.8763H4.17578C36.676 28.3762 58.676 34.3762 84.6758 29.8762L93.676 35.3762C76.676 36.3762 47.6758 39.8762 33.6758 44.0762C25.6758 43.8762 11.6758 45.8762 10.1758 47.8763Z" fill="#EFC7D3" stroke="black" stroke-width="0.5"/>
<path d="M37.1772 44.3763C29.6772 43.3762 12.6772 45.3762 10.1772 47.8763C9.37724 50.2762 12.5106 53.2096 14.1772 54.3762C23.6772 55.8762 37.1772 49.8762 37.1772 44.3763Z" fill="#EFC7D3" stroke="black" stroke-width="0.5"/>
<path d="M4.17648 47.8762C11.1765 48.8762 5.17648 59.3762 2.17648 64.3762C1.67641 57.3762 2.17627 51.8762 4.17648 47.8762Z" fill="#EFC7D3" stroke="black" stroke-width="0.5"/>
<path d="M22.1758 83.8762V79.3762H39.6758L40.1758 83.8762H22.1758Z" fill="#EFC7D3" stroke="black" stroke-width="0.5"/>
<path d="M2.67773 65.376C4.17773 67.876 6.17773 71.0426 5.67773 72.876M22.1777 79.376C11.6777 79.876 7.17773 75.876 8.17773 72.376C8.67773 71.876 10.1777 70.376 11.1777 70.376" stroke="black" stroke-width="0.5"/>
<path d="M32.1777 74.3761C29.6777 70.3761 24.1777 65.3762 21.1777 63.8762C19.4277 63.3762 16.8026 63.5012 14.0525 63.8762C12.4276 65.2095 11.1777 68.3761 11.6777 71.3761C11.6777 72.5428 12.9852 74.8761 15.6777 74.8761C20.1777 74.8761 27.1777 75.3761 32.1777 74.3761Z" fill="#EFC7D3"/>
<path d="M6.17773 65.3762C8.42768 64.8762 11.3026 64.2512 14.0525 63.8762M14.0525 63.8762C16.8026 63.5012 19.4277 63.3762 21.1777 63.8762C24.1777 65.3762 29.6777 70.3761 32.1777 74.3761C27.1777 75.3761 20.1777 74.8761 15.6777 74.8761C12.9852 74.8761 11.6777 72.5428 11.6777 71.3761C11.1777 68.3761 12.4276 65.2095 14.0525 63.8762Z" stroke="black" stroke-width="0.5"/>
<path d="M11.6777 70.8762C19.6777 69.3762 23.1777 72.0047 26.1777 73.5047M13.1777 73.8762L30.6777 73.3762" stroke="black" stroke-width="0.5"/>
<path d="M22.1758 82.376H31.6758C33.6758 82.376 35.1758 80.376 34.6758 79.376M38.1758 79.376V83.876" stroke="black" stroke-width="0.5"/>
<path d="M22.1772 80.8765C17.6772 80.8765 13.1772 81.3765 1.67719 78.3765V76.3765L5.67719 74.3765V72.8765L1.67719 72.3765C1.17627 70.8762 0.176465 67.8762 2.17646 65.3762C1.6767 57.3762 2.1767 50.8762 4.17719 47.876C36.6772 28.3764 58.6772 34.3764 84.6772 29.8764C162.677 -25.1237 244.677 11.8762 281.677 26.3764L295.177 28.3762L295.677 35.3762V38.3762C297.176 43.3762 298.511 47.8762 297.177 49.8762C299.677 50.8762 302.177 54.0429 302.177 55.8762L300.177 65.8762C300.629 76.7241 298.221 76.9484 288.889 77.2609C287.898 77.294 285.829 77.3282 284.677 77.3762V78.8762L259.677 79.3073M22.1772 80.8765V83.8765H40.1755L39.6772 79.3765M22.1772 80.8765V79.3765H39.6772M39.6772 79.3765C36.6772 37.8765 90.1772 40.8765 86.6772 79.8765V82.3762H213.177C207.177 38.8762 261.677 38.8762 259.677 79.3073M259.176 79.3073H259.677" stroke="black"/>
</svg>
