<svg width="303" height="96" viewBox="0 0 303 96" fill="none" xmlns="http://www.w3.org/2000/svg">
<circle cx="62.8652" cy="74.1692" r="20.5" fill="#EFC7D3" stroke="black"/>
<circle cx="235.865" cy="74.1692" r="20.5" fill="#EFC7D3" stroke="black"/>
<path d="M132.863 12.669L131.363 9.16904C171.363 1.16916 192.863 1.66919 231.863 13.1691L228.363 17.6691C208.363 9.6691 190.363 8.6691 174.363 8.16917C171.863 7.66917 167.863 7.66913 165.363 8.16904C155.363 8.16917 143.363 9.66917 132.863 12.669Z" stroke="black" stroke-width="0.5"/>
<path d="M131.363 9.16923L130.863 7.66923C166.863 -3.33081 199.363 0.669064 234.863 9.66924L231.863 13.1692C191.863 0.669189 165.863 2.16919 131.363 9.16923Z" stroke="black" stroke-width="0.5"/>
<path d="M131.363 9.16918C182.863 -2.33085 211.363 7.66919 231.863 13.1692" stroke="black" stroke-width="0.5"/>
<path d="M226.865 30.6692L223.865 16.1692C219.365 14.6692 207.865 9.16919 174.365 8.16919L170.865 30.1692C181.865 29.6692 199.365 28.1692 226.365 28.1692" stroke="black" stroke-width="0.5"/>
<path d="M165.365 8.16919C132.365 9.16919 112.365 18.1692 93.3652 35.6692L95.8652 33.6692L159.865 30.6692L165.365 8.16919Z" stroke="black" stroke-width="0.5"/>
<path d="M239.863 22.6692C236.197 20.0025 230.363 17.6692 223.863 16.1692L226.363 28.1692H232.863C235.863 26.6692 238.863 24.4379 239.863 22.6692Z" stroke="black" stroke-width="0.5"/>
<path d="M96.8652 78.6692H163.865L198.365 77.1692M96.8652 78.6692C96.8652 80.1692 97.3652 81.1692 98.3652 82.6692M96.8652 78.6692H86.8652V82.6692H98.3652M198.365 77.1692L199.365 82.6692M198.365 77.1692H212.865L213.365 82.6692H199.365M199.365 82.6692H98.3652" stroke="black" stroke-width="0.5"/>
<path d="M96.8644 78.6692C92.3652 74.1692 89.3653 52.1692 93.3644 35.6692L165.365 31.6692C161.365 36.6692 160.365 70.6692 163.865 78.6692H96.8644Z" stroke="black" stroke-width="0.5"/>
<path d="M228.865 30.6692L165.365 31.6692C161.365 36.6692 160.365 70.6692 163.865 78.6692L198.365 77.1692C202.865 75.6692 209.365 70.1692 228.865 30.6692Z" stroke="black" stroke-width="0.5"/>
<path d="M170.865 30.1693C166.365 30.6693 162.865 30.6693 159.865 30.6693L165.365 8.16926C168.365 7.66919 171.365 7.66919 174.365 8.16926L170.865 30.1693Z" stroke="black" stroke-width="0.5"/>
<path d="M99.3652 32.1693C103.865 37.6693 110.865 34.1693 114.865 32.6693C115.865 17.1692 102.865 25.1692 99.3652 32.1693Z" stroke="black" stroke-width="0.5"/>
<path d="M234.863 9.66919L231.863 13.1692C248.863 18.6692 259.363 21.6692 271.863 28.1692H273.363L281.363 26.6692C266.363 20.1692 258.863 17.6692 234.863 9.66919Z" fill="#E56E90" stroke="black" stroke-width="0.5"/>
<path d="M271.863 28.1692C261.363 22.6692 242.363 16.1692 231.863 13.1692L229.863 15.6692L244.863 23.1692C243.363 25.6692 239.363 27.6692 233.363 30.3692C245.363 29.6692 262.363 28.6692 271.863 28.1692Z" fill="#E56E90" stroke="black" stroke-width="0.5"/>
<path d="M277.365 34.4692L283.364 32.1692L272.864 28.1692L228.864 30.6692C221.364 45.6692 206.364 76.1692 198.364 77.1692H212.864C211.364 66.1692 220.864 42.6692 245.865 51.6692C256.365 46.1692 266.365 40.6692 277.365 34.4692Z" fill="#E56E90" stroke="black" stroke-width="0.5"/>
<path d="M278.363 34.1692C266.363 40.6692 256.363 46.1692 245.863 51.6692C250.363 54.6692 260.863 60.6692 259.863 79.6692L284.863 79.1692V77.6692C293.363 76.6692 301.863 80.1692 300.363 66.1692L302.363 56.1692C302.363 54.6692 299.863 50.6692 297.363 50.1692C298.863 47.6692 295.863 38.6692 295.863 38.6692V37.1692L291.863 34.1692L286.863 32.6692L283.363 32.1692L278.363 34.1692Z" fill="#E56E90" stroke="black" stroke-width="0.5"/>
<path d="M281.363 26.6692L272.863 28.1692L283.363 32.1692C292.863 33.1692 291.862 34.6692 295.857 37.0894L295.363 28.6692L281.363 26.6692Z" fill="#E56E90"/>
<path d="M295.863 37.1692L295.857 37.0894M295.857 37.0894L295.363 28.6692L281.363 26.6692L272.863 28.1692L283.363 32.1692C292.863 33.1692 291.862 34.6692 295.857 37.0894Z" stroke="black" stroke-width="0.5"/>
<path d="M294.365 36.6694C293.865 34.1693 282.865 33.9692 277.365 34.4692" stroke="black" stroke-width="0.5"/>
<path d="M300.365 66.6692L260.865 68.6692C260.365 63.6692 258.199 59.5025 256.365 57.6692L302.365 55.1692M300.865 52.6692C289.865 51.1692 278.865 46.3692 266.865 40.3692M228.865 30.6692L272.865 28.1692L281.365 26.6692" stroke="black" stroke-width="0.5"/>
<path d="M290.865 40.6692C290.865 38.6692 289.865 34.6692 286.365 32.6692C288.586 32.6692 291.963 33.7096 294.474 36.0792C294.938 37.6092 293.865 41.1692 290.823 42.6692C290.81 42.0789 290.865 41.3935 290.865 40.6692Z" fill="#E56E90"/>
<path d="M272.865 43.1692C279.861 43.519 285.878 43.6241 291.258 44.1692M297.865 45.1692C295.762 44.7185 293.569 44.4033 291.258 44.1692M295.865 37.6692C295.447 37.0841 294.978 36.5548 294.474 36.0792M291.258 44.1692C290.932 43.8244 290.838 43.3014 290.823 42.6692M290.823 42.6692C290.81 42.0789 290.865 41.3935 290.865 40.6692C290.865 38.6692 289.865 34.6692 286.365 32.6692C288.586 32.6692 291.963 33.7096 294.474 36.0792M290.823 42.6692C293.865 41.1692 294.938 37.6092 294.474 36.0792" stroke="black" stroke-width="0.5"/>
<path d="M290.865 40.6692C286.365 40.6692 284.365 36.6692 283.365 34.1692" stroke="black" stroke-width="0.5"/>
<path d="M132.863 12.7692C119.363 16.7692 107.363 22.6692 93.3633 35.6692C100.363 23.6692 115.863 14.1692 131.363 9.16919L132.863 12.7692Z" stroke="black" stroke-width="0.5"/>
<path d="M131.363 9.16919C111.363 14.8432 93.3633 32.1692 85.3633 30.1692C98.3633 20.6692 114.363 12.1692 130.863 7.66919L131.363 9.16919Z" stroke="black" stroke-width="0.5"/>
<path d="M10.3639 48.1692H4.36395C1.86328 52.1692 1.86328 62.1692 2.36395 65.6692C0.863281 66.6692 0.863879 71.1692 1.86395 72.6692L5.86395 73.1692V74.6692L1.86395 76.6692V78.6692C5.86395 79.6692 14.3639 81.6692 22.3639 81.1692V79.6692H39.8639C39.1973 71.1692 40.8639 60.6692 49.8639 53.6692C47.3639 49.6692 40.3639 45.1692 37.3639 44.6692C27.3639 43.6692 12.3639 46.1692 10.3639 48.1692Z" stroke="black" stroke-width="0.5"/>
<path d="M93.3652 35.6692C75.5319 36.5025 43.8652 41.3692 33.3652 44.3692L37.3652 44.6692C42.3652 46.1692 47.8652 50.5025 49.8652 53.6692C62.8643 44.1692 88.3643 51.1692 86.8643 78.6692H96.8643C89.8643 67.6692 90.8643 45.6692 93.3652 35.6692Z" stroke="black" stroke-width="0.5"/>
<path d="M10.3633 48.1692H4.36328C36.8635 28.6691 58.8635 34.6692 84.8633 30.1692L93.8635 35.6692C76.8635 36.6692 47.8633 40.1692 33.8633 44.3692C25.8633 44.1692 11.8633 46.1692 10.3633 48.1692Z" stroke="black" stroke-width="0.5"/>
<path d="M37.3647 44.6693C29.8647 43.6692 12.8647 45.6692 10.3647 48.1693C9.56474 50.5692 12.6981 53.5025 14.3647 54.6692C23.8647 56.1692 37.3647 50.1692 37.3647 44.6693Z" stroke="black" stroke-width="0.5"/>
<path d="M4.36398 48.1692C11.364 49.1692 5.36398 59.6692 2.36398 64.6692C1.86391 57.6692 2.36377 52.1692 4.36398 48.1692Z" stroke="black" stroke-width="0.5"/>
<path d="M22.3633 84.1692V79.6692H39.8633L40.3633 84.1692H22.3633Z" stroke="black" stroke-width="0.5"/>
<path d="M2.86523 65.6692C4.36523 68.1692 6.36523 71.3359 5.86523 73.1692M22.3652 79.6692C11.8652 80.1692 7.36523 76.1692 8.36523 72.6692C8.86523 72.1692 10.3652 70.6692 11.3652 70.6692" stroke="black" stroke-width="0.5"/>
<path d="M6.36523 65.6693C8.61518 65.1692 11.4901 64.5443 14.24 64.1693M14.24 64.1693C16.9901 63.7943 19.6152 63.6693 21.3652 64.1693C24.3652 65.6693 29.8652 70.6692 32.3652 74.6692C27.3652 75.6692 20.3652 75.1692 15.8652 75.1692C13.1727 75.1692 11.8652 72.8359 11.8652 71.6692C11.3652 68.6692 12.6151 65.5026 14.24 64.1693Z" stroke="black" stroke-width="0.5"/>
<path d="M11.8652 71.1693C19.8652 69.6693 23.3652 72.2978 26.3652 73.7978M13.3652 74.1693L30.8652 73.6693" stroke="black" stroke-width="0.5"/>
<path d="M22.3633 82.6692H31.8633C33.8633 82.6692 35.3633 80.6692 34.8633 79.6692M38.3633 79.6692V84.1692" stroke="black" stroke-width="0.5"/>
<path d="M22.3652 81.1694C17.8652 81.1694 13.3652 81.6694 1.86518 78.6694V76.6694L5.86518 74.6694V73.1694L1.86518 72.6694C1.36426 71.1692 0.364454 68.1692 2.36445 65.6692C1.86469 57.6692 2.36469 51.1692 4.36518 48.1689C36.8652 28.6693 58.8652 34.6694 84.8652 30.1694C162.865 -24.8307 244.865 12.1692 281.865 26.6694L295.365 28.6692L295.865 35.6692V38.6692C297.364 43.6692 298.699 48.1692 297.365 50.1692C299.865 51.1692 302.365 54.3359 302.365 56.1692L300.365 66.1692C300.817 77.0171 298.409 77.2414 289.077 77.5538C288.086 77.587 286.017 77.6212 284.865 77.6692V79.1692L259.865 79.6002M22.3652 81.1694V84.1694H40.3635L39.8652 79.6694M22.3652 81.1694V79.6694H39.8652M39.8652 79.6694C36.8652 38.1694 90.3652 41.1694 86.8652 80.1694V82.6692H213.365C207.365 39.1692 261.865 39.1692 259.865 79.6002M259.364 79.6002H259.865" stroke="black"/>
</svg>
