<svg width="303" height="96" viewBox="0 0 303 96" fill="none" xmlns="http://www.w3.org/2000/svg">
<circle cx="62.249" cy="74.0151" r="20.5" fill="#E56E90" stroke="black"/>
<circle cx="235.249" cy="74.0151" r="20.5" fill="#E56E90" stroke="black"/>
<path d="M132.247 12.515L130.747 9.01499C170.747 1.0151 192.247 1.51514 231.247 13.0151L227.747 17.5151C207.747 9.51505 189.747 8.51505 173.747 8.01511C171.247 7.51511 167.247 7.51508 164.747 8.01499C154.747 8.01511 142.747 9.51511 132.247 12.515Z" fill="#EFC7D3" stroke="black" stroke-width="0.5"/>
<path d="M130.747 9.01518L130.247 7.51518C166.247 -3.48486 198.747 0.515011 234.247 9.51518L231.247 13.0152C191.247 0.515137 165.247 2.01514 130.747 9.01518Z" fill="#EFC7D3" stroke="black" stroke-width="0.5"/>
<path d="M130.747 9.01512C182.247 -2.4849 210.747 7.51514 231.247 13.0151" stroke="black" stroke-width="0.5"/>
<path d="M170.249 30.0151L173.749 8.01514C207.249 9.01514 218.749 14.5151 223.249 16.0151L225.732 28.0151C198.742 28.0158 181.247 29.5152 170.249 30.0151Z" fill="#EFC7D3"/>
<path d="M226.249 30.5151L223.249 16.0151C218.749 14.5151 207.249 9.01514 173.749 8.01514L170.249 30.0151C181.249 29.5151 198.749 28.0151 225.749 28.0151" stroke="black" stroke-width="0.5"/>
<path d="M164.749 8.01514C131.749 9.01514 111.749 18.0151 92.749 35.5151L95.249 33.5151L159.249 30.5151L164.749 8.01514Z" fill="#EFC7D3" stroke="black" stroke-width="0.5"/>
<path d="M239.247 22.5151C235.58 19.8485 229.747 17.5151 223.247 16.0151L225.747 28.0151H232.247C235.247 26.5151 238.247 24.2839 239.247 22.5151Z" fill="#EFC7D3" stroke="black" stroke-width="0.5"/>
<path d="M96.249 78.5151H163.249L197.749 77.0151H212.249L212.749 82.5151H198.749H97.749H86.249V78.5151H96.249Z" fill="#EFC7D3"/>
<path d="M96.249 78.5151H163.249L197.749 77.0151M96.249 78.5151C96.249 80.0151 96.749 81.0151 97.749 82.5151M96.249 78.5151H86.249V82.5151H97.749M197.749 77.0151L198.749 82.5151M197.749 77.0151H212.249L212.749 82.5151H198.749M198.749 82.5151H97.749" stroke="black" stroke-width="0.5"/>
<path d="M96.2482 78.5151C91.749 74.0151 88.7491 52.0151 92.7482 35.5151L164.749 31.5151C160.749 36.5151 159.749 70.5151 163.249 78.5151H96.2482Z" fill="#EFC7D3" stroke="black" stroke-width="0.5"/>
<path d="M228.249 30.5151L164.749 31.5151C160.749 36.5151 159.749 70.5151 163.249 78.5151L197.749 77.0151C202.249 75.5151 208.749 70.0151 228.249 30.5151Z" fill="#EFC7D3" stroke="black" stroke-width="0.5"/>
<path d="M170.249 30.0152C165.749 30.5152 162.249 30.5152 159.249 30.5152L164.749 8.01521C167.749 7.51514 170.749 7.51514 173.749 8.01521L170.249 30.0152Z" fill="#EFC7D3" stroke="black" stroke-width="0.5"/>
<path d="M98.749 32.0153C103.249 37.5153 110.249 34.0153 114.249 32.5153C115.249 17.0152 102.249 25.0151 98.749 32.0153Z" fill="#EFC7D3" stroke="black" stroke-width="0.5"/>
<path d="M234.247 9.51514L231.247 13.0151C248.247 18.5151 258.747 21.5151 271.247 28.0151H272.747L280.747 26.5151C265.747 20.0151 258.247 17.5151 234.247 9.51514Z" fill="#E0426F" stroke="black" stroke-width="0.5"/>
<path d="M271.247 28.0151C260.747 22.5151 241.747 16.0151 231.247 13.0151L229.247 15.5151L244.247 23.0151C242.747 25.5151 238.747 27.5151 232.747 30.2151C244.747 29.5151 261.747 28.5151 271.247 28.0151Z" fill="#E0426F" stroke="black" stroke-width="0.5"/>
<path d="M276.749 34.3151L282.747 32.0151L272.248 28.0151L228.248 30.5151C220.748 45.5151 205.748 76.0151 197.748 77.0151H212.248C210.748 66.0151 220.248 42.5151 245.249 51.5151C255.749 46.0151 265.749 40.5151 276.749 34.3151Z" fill="#E0426F" stroke="black" stroke-width="0.5"/>
<path d="M277.747 34.0152C265.747 40.5152 255.747 46.0152 245.247 51.5152C249.747 54.5151 260.247 60.5151 259.247 79.5151L284.247 79.0151V77.5151C292.747 76.5151 301.247 80.0151 299.747 66.0151L301.747 56.0151C301.747 54.5151 299.247 50.5151 296.747 50.0151C298.247 47.5151 295.247 38.5151 295.247 38.5151V37.0151L291.247 34.0151L286.247 32.5151L282.747 32.0151L277.747 34.0152Z" fill="#E0426F" stroke="black" stroke-width="0.5"/>
<path d="M280.747 26.5151L272.247 28.0151L282.747 32.0151C292.247 33.0151 291.246 34.5151 295.241 36.9353L294.747 28.5151L280.747 26.5151Z" fill="#E0426F"/>
<path d="M295.247 37.0151L295.241 36.9353M295.241 36.9353L294.747 28.5151L280.747 26.5151L272.247 28.0151L282.747 32.0151C292.247 33.0151 291.246 34.5151 295.241 36.9353Z" stroke="black" stroke-width="0.5"/>
<path d="M293.749 36.5153C293.249 34.0152 282.249 33.8151 276.749 34.3151" stroke="black" stroke-width="0.5"/>
<path d="M299.749 66.5151L260.249 68.5151C259.749 63.5151 257.582 59.3485 255.749 57.5151L301.749 55.0151M300.249 52.5151C289.249 51.0151 278.249 46.2151 266.249 40.2151M228.249 30.5151L272.249 28.0151L280.749 26.5151" stroke="black" stroke-width="0.5"/>
<path d="M290.249 40.5151C290.249 38.5151 289.249 34.5151 285.749 32.5151C287.97 32.5151 291.347 33.5555 293.858 35.9251C294.322 37.4551 293.249 41.0151 290.207 42.5151C290.194 41.9249 290.249 41.2394 290.249 40.5151Z" fill="#E0426F"/>
<path d="M272.249 43.0151C279.245 43.3649 285.262 43.47 290.642 44.0151M297.249 45.0151C295.146 44.5645 292.953 44.2492 290.642 44.0151M295.249 37.5151C294.831 36.93 294.362 36.4008 293.858 35.9251M290.642 44.0151C290.316 43.6704 290.222 43.1473 290.207 42.5151M290.207 42.5151C290.194 41.9249 290.249 41.2394 290.249 40.5151C290.249 38.5151 289.249 34.5151 285.749 32.5151C287.97 32.5151 291.347 33.5555 293.858 35.9251M290.207 42.5151C293.249 41.0151 294.322 37.4551 293.858 35.9251" stroke="black" stroke-width="0.5"/>
<path d="M290.249 40.5151C285.749 40.5151 283.749 36.5151 282.749 34.0151" stroke="black" stroke-width="0.5"/>
<path d="M132.247 12.6151C118.747 16.6151 106.747 22.5151 92.7471 35.5151C99.7471 23.5151 115.247 14.0151 130.747 9.01514L132.247 12.6151Z" stroke="black" stroke-width="0.5"/>
<path d="M130.747 9.01514C110.747 14.6892 92.7471 32.0151 84.7471 30.0151C97.7471 20.5151 113.747 12.0151 130.247 7.51514L130.747 9.01514Z" stroke="black" stroke-width="0.5"/>
<path d="M9.74774 48.0151H3.74774C1.24707 52.0151 1.24707 62.0151 1.74774 65.5151C0.24707 66.5151 0.247668 71.0151 1.24774 72.5151L5.24774 73.0151V74.5151L1.24774 76.5151V78.5151C5.24774 79.5151 13.7477 81.5151 21.7477 81.0151V79.5151H39.2477C38.5811 71.0151 40.2477 60.5151 49.2477 53.5151C46.7477 49.5151 39.7477 45.0151 36.7477 44.5151C26.7477 43.5151 11.7477 46.0151 9.74774 48.0151Z" stroke="black" stroke-width="0.5"/>
<path d="M92.749 35.5151C74.9157 36.3485 43.249 41.2151 32.749 44.2151L36.749 44.5151C41.749 46.0151 47.249 50.3485 49.249 53.5151C62.248 44.0151 87.748 51.0151 86.248 78.5151H96.248C89.248 67.5151 90.248 45.5151 92.749 35.5151Z" stroke="black" stroke-width="0.5"/>
<path d="M9.74707 48.0152H3.74707C36.2473 28.5151 58.2473 34.5151 84.2471 30.0151L93.2473 35.5151C76.2473 36.5151 47.2471 40.0151 33.2471 44.2151C25.2471 44.0151 11.2471 46.0151 9.74707 48.0152Z" stroke="black" stroke-width="0.5"/>
<path d="M36.7485 44.5152C29.2485 43.5151 12.2485 45.5151 9.74852 48.0152C8.94852 50.4152 12.0819 53.3485 13.7485 54.5151C23.2485 56.0151 36.7485 50.0151 36.7485 44.5152Z" stroke="black" stroke-width="0.5"/>
<path d="M3.74777 48.0151C10.7478 49.0151 4.74777 59.5151 1.74777 64.5151C1.2477 57.5151 1.74756 52.0151 3.74777 48.0151Z" stroke="black" stroke-width="0.5"/>
<path d="M21.7471 84.0151V79.5151H39.2471L39.7471 84.0151H21.7471Z" stroke="black" stroke-width="0.5"/>
<path d="M2.24902 65.5151C3.74902 68.0151 5.74902 71.1818 5.24902 73.0151M21.749 79.5151C11.249 80.0151 6.74902 76.0151 7.74902 72.5151C8.24902 72.0151 9.74902 70.5151 10.749 70.5151" stroke="black" stroke-width="0.5"/>
<path d="M5.74902 65.5152C7.99897 65.0152 10.8739 64.3902 13.6238 64.0152M13.6238 64.0152C16.3739 63.6402 18.999 63.5152 20.749 64.0152C23.749 65.5152 29.249 70.5151 31.749 74.5151C26.749 75.5151 19.749 75.0151 15.249 75.0151C12.5564 75.0151 11.249 72.6818 11.249 71.5151C10.749 68.5151 11.9989 65.3485 13.6238 64.0152Z" stroke="black" stroke-width="0.5"/>
<path d="M11.249 71.0152C19.249 69.5153 22.749 72.1437 25.749 73.6437M12.749 74.0153L30.249 73.5153" stroke="black" stroke-width="0.5"/>
<path d="M21.7471 82.5151H31.2471C33.2471 82.5151 34.7471 80.5151 34.2471 79.5151M37.7471 79.5151V84.0151" stroke="black" stroke-width="0.5"/>
<path d="M21.749 81.0154C17.249 81.0154 12.749 81.5154 1.24897 78.5154V76.5154L5.24897 74.5154V73.0154L1.24897 72.5154C0.748047 71.0151 -0.251757 68.0151 1.74824 65.5151C1.24848 57.5151 1.74848 51.0151 3.74897 48.0149C36.249 28.5153 58.249 34.5153 84.249 30.0153C162.249 -24.9848 244.249 12.0151 281.249 26.5153L294.749 28.5151L295.249 35.5151V38.5151C296.747 43.5151 298.082 48.0151 296.749 50.0151C299.249 51.0151 301.749 54.1818 301.749 56.0151L299.749 66.0151C300.201 76.863 297.793 77.0873 288.461 77.3998C287.47 77.433 285.401 77.4671 284.249 77.5151V79.0151L259.249 79.4462M21.749 81.0154V84.0154H39.7473L39.249 79.5154M21.749 81.0154V79.5154H39.249M39.249 79.5154C36.249 38.0154 89.749 41.0154 86.249 80.0154V82.5151H212.749C206.749 39.0151 261.249 39.0151 259.249 79.4462M258.747 79.4462H259.249" stroke="black"/>
</svg>
