<svg width="303" height="95" viewBox="0 0 303 95" fill="none" xmlns="http://www.w3.org/2000/svg">
<circle cx="62.2817" cy="73.8459" r="20.5" fill="#E56E90" stroke="black"/>
<circle cx="235.282" cy="73.8459" r="20.5" fill="#E56E90" stroke="black"/>
<path d="M132.28 12.3458L130.78 8.8458C170.78 0.845915 192.28 1.34595 231.28 12.8459L227.78 17.3459C207.78 9.34586 189.78 8.34586 173.78 7.84592C171.28 7.34592 167.28 7.34589 164.78 7.8458C154.78 7.84592 142.78 9.34592 132.28 12.3458Z" stroke="black" stroke-width="0.5"/>
<path d="M130.78 8.84599L130.28 7.34599C166.28 -3.65405 198.78 0.345821 234.28 9.34599L231.28 12.846C191.28 0.345947 165.28 1.84595 130.78 8.84599Z" stroke="black" stroke-width="0.5"/>
<path d="M130.78 8.84593C182.28 -2.65409 210.78 7.34595 231.28 12.8459" stroke="black" stroke-width="0.5"/>
<path d="M226.282 30.3459L223.282 15.8459C218.782 14.3459 207.282 8.84595 173.782 7.84595L170.282 29.8459C181.282 29.3459 198.782 27.8459 225.782 27.8459" stroke="black" stroke-width="0.5"/>
<path d="M164.782 7.84595C131.782 8.84595 111.782 17.8459 92.7817 35.3459L95.2817 33.3459L159.282 30.3459L164.782 7.84595Z" stroke="black" stroke-width="0.5"/>
<path d="M239.28 22.3459C235.614 19.6793 229.78 17.3459 223.28 15.8459L225.78 27.8459H232.28C235.28 26.3459 238.28 24.1147 239.28 22.3459Z" stroke="black" stroke-width="0.5"/>
<path d="M96.2817 78.3459H163.282L197.782 76.8459M96.2817 78.3459C96.2817 79.8459 96.7817 80.8459 97.7817 82.3459M96.2817 78.3459H86.2817V82.3459H97.7817M197.782 76.8459L198.782 82.3459M197.782 76.8459H212.282L212.782 82.3459H198.782M198.782 82.3459H97.7817" stroke="black" stroke-width="0.5"/>
<path d="M96.2809 78.3459C91.7817 73.8459 88.7818 51.8459 92.7809 35.3459L164.782 31.3459C160.782 36.3459 159.782 70.3459 163.282 78.3459H96.2809Z" stroke="black" stroke-width="0.5"/>
<path d="M228.281 30.3459L164.781 31.3459C160.781 36.3459 159.781 70.3459 163.281 78.3459L197.781 76.8459C202.281 75.3459 208.781 69.8459 228.281 30.3459Z" stroke="black" stroke-width="0.5"/>
<path d="M170.282 29.846C165.782 30.346 162.282 30.346 159.282 30.346L164.782 7.84602C167.782 7.34595 170.782 7.34595 173.782 7.84602L170.282 29.846Z" stroke="black" stroke-width="0.5"/>
<path d="M98.7817 31.8461C103.282 37.3461 110.282 33.8461 114.282 32.3461C115.282 16.846 102.282 24.8459 98.7817 31.8461Z" stroke="black" stroke-width="0.5"/>
<path d="M234.28 9.34595L231.28 12.8459C248.28 18.3459 258.78 21.3459 271.28 27.8459H272.78L280.78 26.3459C265.78 19.8459 258.28 17.3459 234.28 9.34595Z" fill="#EFC7D3" stroke="black" stroke-width="0.5"/>
<path d="M271.28 27.8459C260.78 22.3459 241.78 15.8459 231.28 12.8459L229.28 15.3459L244.28 22.8459C242.78 25.3459 238.78 27.3459 232.78 30.0459C244.78 29.3459 261.78 28.3459 271.28 27.8459Z" fill="#EFC7D3" stroke="black" stroke-width="0.5"/>
<path d="M276.782 34.1459L282.78 31.8459L272.281 27.8459L228.281 30.3459C220.781 45.3459 205.781 75.8459 197.781 76.8459H212.281C210.781 65.8459 220.281 42.3459 245.282 51.3459C255.782 45.8459 265.782 40.3459 276.782 34.1459Z" fill="#EFC7D3" stroke="black" stroke-width="0.5"/>
<path d="M277.78 33.846C265.78 40.346 255.78 45.846 245.28 51.346C249.78 54.3459 260.28 60.3459 259.28 79.3459L284.28 78.8459V77.3459C292.78 76.3459 301.28 79.8459 299.78 65.8459L301.78 55.8459C301.78 54.3459 299.28 50.3459 296.78 49.8459C298.28 47.3459 295.28 38.3459 295.28 38.3459V36.8459L291.28 33.8459L286.28 32.3459L282.78 31.8459L277.78 33.846Z" fill="#EFC7D3" stroke="black" stroke-width="0.5"/>
<path d="M280.78 26.3459L272.28 27.8459L282.78 31.8459C292.28 32.8459 291.279 34.3459 295.274 36.7661L294.78 28.3459L280.78 26.3459Z" fill="#EFC7D3"/>
<path d="M295.28 36.8459L295.274 36.7661M295.274 36.7661L294.78 28.3459L280.78 26.3459L272.28 27.8459L282.78 31.8459C292.28 32.8459 291.279 34.3459 295.274 36.7661Z" stroke="black" stroke-width="0.5"/>
<path d="M293.782 36.3461C293.282 33.846 282.282 33.646 276.782 34.146" stroke="black" stroke-width="0.5"/>
<path d="M299.782 66.3459L260.282 68.3459C259.782 63.3459 257.615 59.1793 255.782 57.3459L301.782 54.8459M300.282 52.3459C289.282 50.8459 278.282 46.0459 266.282 40.0459M228.282 30.3459L272.282 27.8459L280.782 26.3459" stroke="black" stroke-width="0.5"/>
<path d="M290.282 40.3459C290.282 38.3459 289.282 34.3459 285.782 32.3459C288.003 32.3459 291.379 33.3863 293.891 35.7559C294.354 37.2859 293.282 40.8459 290.24 42.3459C290.226 41.7557 290.282 41.0702 290.282 40.3459Z" fill="#EFC7D3"/>
<path d="M272.282 42.8459C279.277 43.1957 285.294 43.3008 290.675 43.8459M297.282 44.8459C295.179 44.3953 292.985 44.08 290.675 43.8459M295.282 37.3459C294.864 36.7608 294.395 36.2316 293.891 35.7559M290.675 43.8459C290.349 43.5012 290.255 42.9781 290.24 42.3459M290.24 42.3459C290.226 41.7557 290.282 41.0702 290.282 40.3459C290.282 38.3459 289.282 34.3459 285.782 32.3459C288.003 32.3459 291.379 33.3863 293.891 35.7559M290.24 42.3459C293.282 40.8459 294.354 37.2859 293.891 35.7559" stroke="black" stroke-width="0.5"/>
<path d="M290.282 40.3459C285.782 40.3459 283.782 36.3459 282.782 33.8459" stroke="black" stroke-width="0.5"/>
<path d="M132.28 12.4459C118.78 16.4459 106.78 22.3459 92.7803 35.3459C99.7803 23.3459 115.28 13.8459 130.78 8.84595L132.28 12.4459Z" fill="#E0426F" stroke="black" stroke-width="0.5"/>
<path d="M130.78 8.84595C110.78 14.52 92.7803 31.8459 84.7803 29.8459C97.7803 20.3459 113.78 11.8459 130.28 7.34595L130.78 8.84595Z" fill="#E0426F" stroke="black" stroke-width="0.5"/>
<path d="M9.78094 47.846H3.78094C1.28027 51.8459 1.28027 61.8459 1.78094 65.3459C0.280273 66.3459 0.280871 70.8459 1.28094 72.3459L5.28094 72.8459V74.3459L1.28094 76.3459V78.3459C5.28094 79.3459 13.7809 81.3459 21.7809 80.8459V79.3459H39.2809C38.6143 70.8459 40.2809 60.3459 49.2809 53.3459C46.7809 49.3459 39.7809 44.8459 36.7809 44.346C26.7809 43.3459 11.7809 45.846 9.78094 47.846Z" fill="#E0426F" stroke="black" stroke-width="0.5"/>
<path d="M92.7817 35.3459C74.9484 36.1793 43.2817 41.0459 32.7817 44.0459L36.7817 44.3459C41.7817 45.8459 47.2817 50.1793 49.2817 53.3459C62.2808 43.8459 87.7808 50.8459 86.2808 78.3459H96.2808C89.2808 67.3459 90.2808 45.3459 92.7817 35.3459Z" fill="#E0426F" stroke="black" stroke-width="0.5"/>
<path d="M9.78027 47.846H3.78027C36.2805 28.3459 58.2805 34.3459 84.2803 29.8459L93.2805 35.3459C76.2805 36.3459 47.2803 39.8459 33.2803 44.046C25.2803 43.8459 11.2803 45.8459 9.78027 47.846Z" fill="#E0426F" stroke="black" stroke-width="0.5"/>
<path d="M36.7817 44.346C29.2817 43.3459 12.2817 45.3459 9.78173 47.846C8.98173 50.246 12.1151 53.1793 13.7817 54.3459C23.2817 55.8459 36.7817 49.8459 36.7817 44.346Z" fill="#E0426F" stroke="black" stroke-width="0.5"/>
<path d="M3.78097 47.8459C10.781 48.8459 4.78097 59.3459 1.78097 64.3459C1.2809 57.3459 1.78076 51.8459 3.78097 47.8459Z" fill="#E0426F" stroke="black" stroke-width="0.5"/>
<path d="M21.7803 83.8459V79.3459H39.2803L39.7803 83.8459H21.7803Z" fill="#E0426F" stroke="black" stroke-width="0.5"/>
<path d="M2.28223 65.3459C3.78223 67.8459 5.78223 71.0126 5.28223 72.8459M21.7822 79.3459C11.2822 79.8459 6.78223 75.8459 7.78223 72.3459C8.28223 71.8459 9.78223 70.3459 10.7822 70.3459" stroke="black" stroke-width="0.5"/>
<path d="M31.7822 74.3459C29.2822 70.3459 23.7822 65.346 20.7822 63.846C19.0322 63.346 16.4071 63.471 13.657 63.846C12.0321 65.1793 10.7822 68.3459 11.2822 71.3459C11.2822 72.5126 12.5896 74.8459 15.2822 74.8459C19.7822 74.8459 26.7822 75.3459 31.7822 74.3459Z" fill="#E0426F"/>
<path d="M5.78223 65.346C8.03217 64.846 10.9071 64.221 13.657 63.846M13.657 63.846C16.4071 63.471 19.0322 63.346 20.7822 63.846C23.7822 65.346 29.2822 70.3459 31.7822 74.3459C26.7822 75.3459 19.7822 74.8459 15.2822 74.8459C12.5896 74.8459 11.2822 72.5126 11.2822 71.3459C10.7822 68.3459 12.0321 65.1793 13.657 63.846Z" stroke="black" stroke-width="0.5"/>
<path d="M11.2822 70.846C19.2822 69.3461 22.7822 71.9745 25.7822 73.4745M12.7822 73.8461L30.2822 73.3461" stroke="black" stroke-width="0.5"/>
<path d="M21.7803 82.3459H31.2803C33.2803 82.3459 34.7803 80.3459 34.2803 79.3459M37.7803 79.3459V83.8459" stroke="black" stroke-width="0.5"/>
<path d="M21.7817 80.8462C17.2817 80.8462 12.7817 81.3462 1.28168 78.3462V76.3462L5.28168 74.3462V72.8462L1.28168 72.3462C0.780762 70.8459 -0.219042 67.8459 1.78095 65.3459C1.2812 57.3459 1.7812 50.8459 3.78168 47.8457C36.2817 28.3461 58.2817 34.3461 84.2817 29.8461C162.282 -25.154 244.282 11.8459 281.282 26.3461L294.782 28.3459L295.282 35.3459V38.3459C296.78 43.3459 298.115 47.8459 296.782 49.8459C299.282 50.8459 301.782 54.0126 301.782 55.8459L299.782 65.8459C300.234 76.6939 297.826 76.9181 288.494 77.2306C287.503 77.2638 285.434 77.2979 284.282 77.3459V78.8459L259.282 79.277M21.7817 80.8462V83.8462H39.78L39.2817 79.3462M21.7817 80.8462V79.3462H39.2817M39.2817 79.3462C36.2817 37.8462 89.7817 40.8462 86.2817 79.8462V82.3459H212.782C206.782 38.8459 261.282 38.8459 259.282 79.277M258.78 79.277H259.282" stroke="black"/>
</svg>
