<svg width="303" height="95" viewBox="0 0 303 95" fill="none" xmlns="http://www.w3.org/2000/svg">
<circle cx="62.8652" cy="73.8611" r="20.5" fill="#EFC7D3" stroke="black"/>
<circle cx="235.865" cy="73.8611" r="20.5" fill="#EFC7D3" stroke="black"/>
<path d="M132.863 12.3609L131.363 8.86094C171.363 0.861052 192.863 1.36108 231.863 12.861L228.363 17.361C208.363 9.36099 190.363 8.36099 174.363 7.86106C171.863 7.36106 167.863 7.36102 165.363 7.86094C155.363 7.86106 143.363 9.36106 132.863 12.3609Z" fill="#EDADBF" stroke="black" stroke-width="0.5"/>
<path d="M131.363 8.86113L130.863 7.36113C166.863 -3.63892 199.363 0.360958 234.863 9.36113L231.863 12.8611C191.863 0.361084 165.863 1.86108 131.363 8.86113Z" fill="#EDADBF" stroke="black" stroke-width="0.5"/>
<path d="M131.363 8.86095C182.863 -2.63908 211.363 7.36096 231.863 12.8609" stroke="black" stroke-width="0.5"/>
<path d="M170.865 29.8611L174.365 7.86108C207.865 8.86108 219.365 14.3611 223.865 15.8611L226.348 27.8611C199.358 27.8617 181.863 29.3612 170.865 29.8611Z" fill="#EDADBF"/>
<path d="M226.865 30.3611L223.865 15.8611C219.365 14.3611 207.865 8.86108 174.365 7.86108L170.865 29.8611C181.865 29.3611 199.365 27.8611 226.365 27.8611" stroke="black" stroke-width="0.5"/>
<path d="M165.365 7.86108C132.365 8.86108 112.365 17.8611 93.3652 35.3611L95.8652 33.3611L159.865 30.3611L165.365 7.86108Z" fill="#EDADBF" stroke="black" stroke-width="0.5"/>
<path d="M239.863 22.3611C236.197 19.6944 230.363 17.3611 223.863 15.8611L226.363 27.8611H232.863C235.863 26.3611 238.863 24.1298 239.863 22.3611Z" fill="#EDADBF" stroke="black" stroke-width="0.5"/>
<path d="M96.8652 78.3611H163.865L198.365 76.8611H212.865L213.365 82.3611H199.365H98.3652H86.8652V78.3611H96.8652Z" fill="#EDADBF"/>
<path d="M96.8652 78.3611H163.865L198.365 76.8611M96.8652 78.3611C96.8652 79.8611 97.3652 80.8611 98.3652 82.3611M96.8652 78.3611H86.8652V82.3611H98.3652M198.365 76.8611L199.365 82.3611M198.365 76.8611H212.865L213.365 82.3611H199.365M199.365 82.3611H98.3652" stroke="black" stroke-width="0.5"/>
<path d="M96.8644 78.3611C92.3652 73.8611 89.3653 51.8611 93.3644 35.3611L165.365 31.3611C161.365 36.3611 160.365 70.3611 163.865 78.3611H96.8644Z" fill="#EDADBF" stroke="black" stroke-width="0.5"/>
<path d="M228.865 30.3611L165.365 31.3611C161.365 36.3611 160.365 70.3611 163.865 78.3611L198.365 76.8611C202.865 75.3611 209.365 69.8611 228.865 30.3611Z" fill="#EDADBF" stroke="black" stroke-width="0.5"/>
<path d="M170.865 29.8612C166.365 30.3612 162.865 30.3612 159.865 30.3612L165.365 7.86116C168.365 7.36108 171.365 7.36108 174.365 7.86116L170.865 29.8612Z" fill="#EDADBF" stroke="black" stroke-width="0.5"/>
<path d="M99.3652 31.8611C103.865 37.3611 110.865 33.8611 114.865 32.3611C115.865 16.861 102.865 24.861 99.3652 31.8611Z" fill="#EDADBF" stroke="black" stroke-width="0.5"/>
<path d="M234.863 9.36108L231.863 12.8611C248.863 18.3611 259.363 21.3611 271.863 27.8611H273.363L281.363 26.3611C266.363 19.8611 258.863 17.3611 234.863 9.36108Z" fill="#E56E90" stroke="black" stroke-width="0.5"/>
<path d="M271.863 27.8611C261.363 22.3611 242.363 15.8611 231.863 12.8611L229.863 15.3611L244.863 22.8611C243.363 25.3611 239.363 27.3611 233.363 30.0611C245.363 29.3611 262.363 28.3611 271.863 27.8611Z" fill="#E56E90" stroke="black" stroke-width="0.5"/>
<path d="M277.365 34.1611L283.364 31.8611L272.864 27.8611L228.864 30.3611C221.364 45.3611 206.364 75.8611 198.364 76.8611H212.864C211.364 65.8611 220.864 42.3611 245.865 51.3611C256.365 45.8611 266.365 40.3611 277.365 34.1611Z" fill="#E56E90" stroke="black" stroke-width="0.5"/>
<path d="M278.363 33.8611C266.363 40.3611 256.363 45.8611 245.863 51.3611C250.363 54.3611 260.863 60.3611 259.863 79.3611L284.863 78.8611V77.3611C293.363 76.3611 301.863 79.8611 300.363 65.8611L302.363 55.8611C302.363 54.3611 299.863 50.3611 297.363 49.8611C298.863 47.3611 295.863 38.3611 295.863 38.3611V36.8611L291.863 33.8611L286.863 32.3611L283.363 31.8611L278.363 33.8611Z" fill="#E56E90" stroke="black" stroke-width="0.5"/>
<path d="M281.363 26.3611L272.863 27.8611L283.363 31.8611C292.863 32.8611 291.862 34.3611 295.857 36.7813L295.363 28.3611L281.363 26.3611Z" fill="#E56E90"/>
<path d="M295.863 36.8611L295.857 36.7813M295.857 36.7813L295.363 28.3611L281.363 26.3611L272.863 27.8611L283.363 31.8611C292.863 32.8611 291.862 34.3611 295.857 36.7813Z" stroke="black" stroke-width="0.5"/>
<path d="M294.365 36.3613C293.865 33.8612 282.865 33.6611 277.365 34.1611" stroke="black" stroke-width="0.5"/>
<path d="M300.365 66.3611L260.865 68.3611C260.365 63.3611 258.199 59.1944 256.365 57.3611L302.365 54.8611M300.865 52.3611C289.865 50.8611 278.865 46.0611 266.865 40.0611M228.865 30.3611L272.865 27.8611L281.365 26.3611" stroke="black" stroke-width="0.5"/>
<path d="M290.865 40.3611C290.865 38.3611 289.865 34.3611 286.365 32.3611C288.586 32.3611 291.963 33.4015 294.474 35.7711C294.938 37.3011 293.865 40.8611 290.823 42.3611C290.81 41.7708 290.865 41.0854 290.865 40.3611Z" fill="#E56E90"/>
<path d="M272.865 42.8611C279.861 43.2109 285.878 43.316 291.258 43.8611M297.865 44.8611C295.762 44.4104 293.569 44.0952 291.258 43.8611M295.865 37.3611C295.447 36.776 294.978 36.2467 294.474 35.7711M291.258 43.8611C290.932 43.5163 290.838 42.9933 290.823 42.3611M290.823 42.3611C290.81 41.7708 290.865 41.0854 290.865 40.3611C290.865 38.3611 289.865 34.3611 286.365 32.3611C288.586 32.3611 291.963 33.4015 294.474 35.7711M290.823 42.3611C293.865 40.8611 294.938 37.3011 294.474 35.7711" stroke="black" stroke-width="0.5"/>
<path d="M290.865 40.3611C286.365 40.3611 284.365 36.3611 283.365 33.8611" stroke="black" stroke-width="0.5"/>
<path d="M132.863 12.4611C119.363 16.4611 107.363 22.3611 93.3633 35.3611C100.363 23.3611 115.863 13.8611 131.363 8.86108L132.863 12.4611Z" stroke="black" stroke-width="0.5"/>
<path d="M131.363 8.86108C111.363 14.5351 93.3633 31.8611 85.3633 29.8611C98.3633 20.3611 114.363 11.8611 130.863 7.36108L131.363 8.86108Z" stroke="black" stroke-width="0.5"/>
<path d="M10.3639 47.861H4.36395C1.86328 51.861 1.86328 61.861 2.36395 65.361C0.863281 66.361 0.863879 70.861 1.86395 72.361L5.86395 72.861V74.361L1.86395 76.361V78.361C5.86395 79.361 14.3639 81.361 22.3639 80.861V79.361H39.8639C39.1973 70.861 40.8639 60.361 49.8639 53.361C47.3639 49.361 40.3639 44.861 37.3639 44.361C27.3639 43.361 12.3639 45.861 10.3639 47.861Z" stroke="black" stroke-width="0.5"/>
<path d="M93.3652 35.3611C75.5319 36.1944 43.8652 41.0611 33.3652 44.0611L37.3652 44.3611C42.3652 45.8611 47.8652 50.1944 49.8652 53.3611C62.8643 43.8611 88.3643 50.8611 86.8643 78.3611H96.8643C89.8643 67.3611 90.8643 45.3611 93.3652 35.3611Z" stroke="black" stroke-width="0.5"/>
<path d="M10.3633 47.8611H4.36328C36.8635 28.361 58.8635 34.3611 84.8633 29.8611L93.8635 35.3611C76.8635 36.3611 47.8633 39.8611 33.8633 44.0611C25.8633 43.8611 11.8633 45.8611 10.3633 47.8611Z" stroke="black" stroke-width="0.5"/>
<path d="M37.3647 44.3612C29.8647 43.3611 12.8647 45.3611 10.3647 47.8612C9.56474 50.2611 12.6981 53.1944 14.3647 54.3611C23.8647 55.8611 37.3647 49.8611 37.3647 44.3612Z" stroke="black" stroke-width="0.5"/>
<path d="M4.36398 47.8611C11.364 48.8611 5.36398 59.3611 2.36398 64.3611C1.86391 57.3611 2.36377 51.8611 4.36398 47.8611Z" stroke="black" stroke-width="0.5"/>
<path d="M22.3633 83.8611V79.3611H39.8633L40.3633 83.8611H22.3633Z" stroke="black" stroke-width="0.5"/>
<path d="M2.86523 65.3608C4.36523 67.8608 6.36523 71.0275 5.86523 72.8608M22.3652 79.3608C11.8652 79.8608 7.36523 75.8608 8.36523 72.3608C8.86523 71.8608 10.3652 70.3608 11.3652 70.3608" stroke="black" stroke-width="0.5"/>
<path d="M6.36523 65.361C8.61518 64.861 11.4901 64.236 14.24 63.861M14.24 63.861C16.9901 63.486 19.6152 63.361 21.3652 63.861C24.3652 65.361 29.8652 70.361 32.3652 74.361C27.3652 75.361 20.3652 74.861 15.8652 74.861C13.1727 74.861 11.8652 72.5276 11.8652 71.361C11.3652 68.361 12.6151 65.1943 14.24 63.861Z" stroke="black" stroke-width="0.5"/>
<path d="M11.8652 70.861C19.8652 69.3611 23.3652 71.9896 26.3652 73.4896M13.3652 73.8611L30.8652 73.3611" stroke="black" stroke-width="0.5"/>
<path d="M22.3633 82.3608H31.8633C33.8633 82.3608 35.3633 80.3608 34.8633 79.3608M38.3633 79.3608V83.8608" stroke="black" stroke-width="0.5"/>
<path d="M22.3652 80.8613C17.8652 80.8613 13.3652 81.3613 1.86518 78.3613V76.3613L5.86518 74.3613V72.8613L1.86518 72.3613C1.36426 70.8611 0.364454 67.8611 2.36445 65.3611C1.86469 57.3611 2.36469 50.8611 4.36518 47.8608C36.8652 28.3612 58.8652 34.3613 84.8652 29.8613C162.865 -25.1388 244.865 11.8611 281.865 26.3613L295.365 28.3611L295.865 35.3611V38.3611C297.364 43.3611 298.699 47.8611 297.365 49.8611C299.865 50.8611 302.365 54.0278 302.365 55.8611L300.365 65.8611C300.817 76.709 298.409 76.9333 289.077 77.2457C288.086 77.2789 286.017 77.3131 284.865 77.3611V78.8611L259.865 79.2921M22.3652 80.8613V83.8613H40.3635L39.8652 79.3613M22.3652 80.8613V79.3613H39.8652M39.8652 79.3613C36.8652 37.8613 90.3652 40.8613 86.8652 79.8613V82.3611H213.365C207.365 38.8611 261.865 38.8611 259.865 79.2921M259.364 79.2921H259.865" stroke="black"/>
</svg>
