<svg width="303" height="96" viewBox="0 0 303 96" fill="none" xmlns="http://www.w3.org/2000/svg">
<circle cx="62.876" cy="74.1995" r="20.5" fill="#EFC7D3" stroke="black"/>
<circle cx="235.876" cy="74.1995" r="20.5" fill="#EFC7D3" stroke="black"/>
<path d="M132.874 12.6993L131.374 9.19932C171.374 1.19943 192.874 1.69946 231.874 13.1994L228.374 17.6994C208.374 9.69937 190.374 8.69937 174.374 8.19944C171.874 7.69944 167.874 7.6994 165.374 8.19932C155.374 8.19944 143.374 9.69944 132.874 12.6993Z" fill="#EDADBF" stroke="black" stroke-width="0.5"/>
<path d="M131.374 9.19951L130.874 7.69951C166.874 -3.30054 199.374 0.699337 234.874 9.69951L231.874 13.1995C191.874 0.699463 165.874 2.19946 131.374 9.19951Z" fill="#EDADBF" stroke="black" stroke-width="0.5"/>
<path d="M131.374 9.19933C182.874 -2.3007 211.374 7.69934 231.874 13.1993" stroke="black" stroke-width="0.5"/>
<path d="M170.876 30.1995L174.376 8.19946C207.876 9.19946 219.376 14.6995 223.876 16.1995L226.359 28.1995C199.369 28.2001 181.874 29.6996 170.876 30.1995Z" fill="#EDADBF"/>
<path d="M226.876 30.6995L223.876 16.1995C219.376 14.6995 207.876 9.19946 174.376 8.19946L170.876 30.1995C181.876 29.6995 199.376 28.1995 226.376 28.1995" stroke="black" stroke-width="0.5"/>
<path d="M165.376 8.19946C132.376 9.19946 112.376 18.1995 93.376 35.6995L95.876 33.6995L159.876 30.6995L165.376 8.19946Z" fill="#EDADBF" stroke="black" stroke-width="0.5"/>
<path d="M239.874 22.6995C236.207 20.0328 230.374 17.6995 223.874 16.1995L226.374 28.1995H232.874C235.874 26.6995 238.874 24.4682 239.874 22.6995Z" fill="#EDADBF" stroke="black" stroke-width="0.5"/>
<path d="M96.876 78.6995H163.876L198.376 77.1995H212.876L213.376 82.6995H199.376H98.376H86.876V78.6995H96.876Z" fill="#EDADBF"/>
<path d="M96.876 78.6995H163.876L198.376 77.1995M96.876 78.6995C96.876 80.1995 97.376 81.1995 98.376 82.6995M96.876 78.6995H86.876V82.6995H98.376M198.376 77.1995L199.376 82.6995M198.376 77.1995H212.876L213.376 82.6995H199.376M199.376 82.6995H98.376" stroke="black" stroke-width="0.5"/>
<path d="M96.8751 78.6995C92.376 74.1995 89.376 52.1995 93.3751 35.6995L165.376 31.6995C161.376 36.6995 160.376 70.6995 163.876 78.6995H96.8751Z" fill="#EDADBF" stroke="black" stroke-width="0.5"/>
<path d="M228.876 30.6995L165.376 31.6995C161.376 36.6995 160.376 70.6995 163.876 78.6995L198.376 77.1995C202.876 75.6995 209.376 70.1995 228.876 30.6995Z" fill="#EDADBF" stroke="black" stroke-width="0.5"/>
<path d="M170.876 30.1995C166.376 30.6995 162.876 30.6995 159.876 30.6995L165.376 8.19954C168.376 7.69946 171.376 7.69946 174.376 8.19954L170.876 30.1995Z" fill="#EDADBF" stroke="black" stroke-width="0.5"/>
<path d="M99.376 32.1995C103.876 37.6995 110.876 34.1995 114.876 32.6995C115.876 17.1994 102.876 25.1993 99.376 32.1995Z" fill="#EDADBF" stroke="black" stroke-width="0.5"/>
<path d="M234.874 9.69946L231.874 13.1995C248.874 18.6995 259.374 21.6995 271.874 28.1995H273.374L281.374 26.6995C266.374 20.1995 258.874 17.6995 234.874 9.69946Z" fill="#EDADBF" stroke="black" stroke-width="0.5"/>
<path d="M271.874 28.1995C261.374 22.6995 242.374 16.1995 231.874 13.1995L229.874 15.6995L244.874 23.1995C243.374 25.6995 239.374 27.6995 233.374 30.3995C245.374 29.6995 262.374 28.6995 271.874 28.1995Z" fill="#EDADBF" stroke="black" stroke-width="0.5"/>
<path d="M277.376 34.4995L283.374 32.1995L272.875 28.1995L228.875 30.6995C221.375 45.6995 206.375 76.1995 198.375 77.1995H212.875C211.375 66.1995 220.875 42.6995 245.876 51.6995C256.376 46.1995 266.376 40.6995 277.376 34.4995Z" fill="#EDADBF" stroke="black" stroke-width="0.5"/>
<path d="M278.374 34.1995C266.374 40.6995 256.374 46.1995 245.874 51.6995C250.374 54.6995 260.874 60.6995 259.874 79.6995L284.874 79.1995V77.6995C293.374 76.6995 301.874 80.1995 300.374 66.1995L302.374 56.1995C302.374 54.6995 299.874 50.6995 297.374 50.1995C298.874 47.6995 295.874 38.6995 295.874 38.6995V37.1995L291.874 34.1995L286.874 32.6995L283.374 32.1995L278.374 34.1995Z" fill="#EDADBF" stroke="black" stroke-width="0.5"/>
<path d="M281.374 26.6995L272.874 28.1995L283.374 32.1995C292.874 33.1995 291.873 34.6995 295.868 37.1196L295.374 28.6995L281.374 26.6995Z" fill="#EDADBF"/>
<path d="M295.874 37.1995L295.868 37.1196M295.868 37.1196L295.374 28.6995L281.374 26.6995L272.874 28.1995L283.374 32.1995C292.874 33.1995 291.873 34.6995 295.868 37.1196Z" stroke="black" stroke-width="0.5"/>
<path d="M294.376 36.6997C293.876 34.1996 282.876 33.9995 277.376 34.4995" stroke="black" stroke-width="0.5"/>
<path d="M300.376 66.6995L260.876 68.6995C260.376 63.6995 258.209 59.5328 256.376 57.6995L302.376 55.1995M300.876 52.6995C289.876 51.1995 278.876 46.3995 266.876 40.3995M228.876 30.6995L272.876 28.1995L281.376 26.6995" stroke="black" stroke-width="0.5"/>
<path d="M290.876 40.6995C290.876 38.6995 289.876 34.6995 286.376 32.6995C288.597 32.6995 291.974 33.7399 294.485 36.1094C294.949 37.6395 293.876 41.1995 290.834 42.6995C290.821 42.1092 290.876 41.4238 290.876 40.6995Z" fill="#EDADBF"/>
<path d="M272.876 43.1995C279.872 43.5492 285.889 43.6543 291.269 44.1995M297.876 45.1995C295.773 44.7488 293.58 44.4336 291.269 44.1995M295.876 37.6995C295.458 37.1143 294.989 36.5851 294.485 36.1094M291.269 44.1995C290.943 43.8547 290.849 43.3317 290.834 42.6995M290.834 42.6995C290.821 42.1092 290.876 41.4238 290.876 40.6995C290.876 38.6995 289.876 34.6995 286.376 32.6995C288.597 32.6995 291.974 33.7399 294.485 36.1094M290.834 42.6995C293.876 41.1995 294.949 37.6395 294.485 36.1094" stroke="black" stroke-width="0.5"/>
<path d="M290.876 40.6995C286.376 40.6995 284.376 36.6995 283.376 34.1995" stroke="black" stroke-width="0.5"/>
<path d="M132.874 12.7994C119.374 16.7994 107.374 22.6995 93.374 35.6995C100.374 23.6995 115.874 14.1995 131.374 9.19946L132.874 12.7994Z" fill="#EDADBF" stroke="black" stroke-width="0.5"/>
<path d="M131.374 9.19946C111.374 14.8735 93.374 32.1995 85.374 30.1995C98.374 20.6995 114.374 12.1995 130.874 7.69946L131.374 9.19946Z" fill="#EDADBF" stroke="black" stroke-width="0.5"/>
<path d="M10.3747 48.1993H4.37469C1.87402 52.1993 1.87402 62.1993 2.37469 65.6993C0.874023 66.6993 0.874621 71.1993 1.87469 72.6993L5.87469 73.1993V74.6993L1.87469 76.6993V78.6993C5.87469 79.6993 14.3747 81.6993 22.3747 81.1993V79.6993H39.8747C39.208 71.1993 40.8747 60.6993 49.8747 53.6993C47.3747 49.6993 40.3747 45.1993 37.3747 44.6993C27.3747 43.6993 12.3747 46.1993 10.3747 48.1993Z" fill="#EDADBF" stroke="black" stroke-width="0.5"/>
<path d="M93.376 35.6995C75.5426 36.5328 43.876 41.3995 33.376 44.3995L37.376 44.6995C42.376 46.1995 47.876 50.5328 49.876 53.6995C62.875 44.1995 88.375 51.1995 86.875 78.6995H96.875C89.875 67.6995 90.875 45.6995 93.376 35.6995Z" fill="#EDADBF" stroke="black" stroke-width="0.5"/>
<path d="M10.374 48.1995H4.37402C36.8742 28.6994 58.8743 34.6995 84.874 30.1995L93.8743 35.6995C76.8743 36.6995 47.874 40.1995 33.874 44.3995C25.874 44.1995 11.874 46.1995 10.374 48.1995Z" fill="#EDADBF" stroke="black" stroke-width="0.5"/>
<path d="M37.3755 44.6995C29.8755 43.6995 12.8755 45.6995 10.3755 48.1995C9.57548 50.5995 12.7088 53.5328 14.3755 54.6995C23.8755 56.1995 37.3755 50.1995 37.3755 44.6995Z" fill="#EDADBF" stroke="black" stroke-width="0.5"/>
<path d="M4.37472 48.1995C11.3747 49.1995 5.37472 59.6995 2.37472 64.6995C1.87465 57.6995 2.37451 52.1995 4.37472 48.1995Z" fill="#EDADBF" stroke="black" stroke-width="0.5"/>
<path d="M22.374 84.1995V79.6995H39.874L40.374 84.1995H22.374Z" fill="#EDADBF" stroke="black" stroke-width="0.5"/>
<path d="M2.87598 65.6992C4.37598 68.1992 6.37598 71.3659 5.87598 73.1992M22.376 79.6992C11.876 80.1992 7.37598 76.1992 8.37598 72.6992C8.87598 72.1992 10.376 70.6992 11.376 70.6992" stroke="black" stroke-width="0.5"/>
<path d="M32.376 74.6993C29.876 70.6993 24.376 65.6994 21.376 64.1994C19.6259 63.6994 17.0008 63.8244 14.2508 64.1994C12.6258 65.5327 11.376 68.6993 11.876 71.6993C11.876 72.866 13.1834 75.1993 15.876 75.1993C20.376 75.1993 27.376 75.6993 32.376 74.6993Z" fill="#EDADBF"/>
<path d="M6.37598 65.6994C8.62592 65.1994 11.5008 64.5744 14.2508 64.1994M14.2508 64.1994C17.0008 63.8244 19.6259 63.6994 21.376 64.1994C24.376 65.6994 29.876 70.6993 32.376 74.6993C27.376 75.6993 20.376 75.1993 15.876 75.1993C13.1834 75.1993 11.876 72.866 11.876 71.6993C11.376 68.6993 12.6258 65.5327 14.2508 64.1994Z" stroke="black" stroke-width="0.5"/>
<path d="M11.876 71.1994C19.876 69.6995 23.376 72.3279 26.376 73.8279M13.376 74.1995L30.876 73.6995" stroke="black" stroke-width="0.5"/>
<path d="M22.374 82.6992H31.874C33.874 82.6992 35.374 80.6992 34.874 79.6992M38.374 79.6992V84.1992" stroke="black" stroke-width="0.5"/>
<path d="M22.3759 81.1997C17.8759 81.1997 13.3759 81.6997 1.87592 78.6997V76.6997L5.87592 74.6997V73.1997L1.87592 72.6997C1.375 71.1995 0.375196 68.1995 2.37519 65.6995C1.87543 57.6995 2.37543 51.1995 4.37592 48.1992C36.8759 28.6996 58.8759 34.6997 84.8759 30.1997C162.876 -24.8005 244.876 12.1994 281.876 26.6996L295.376 28.6995L295.876 35.6995V38.6995C297.374 43.6995 298.709 48.1995 297.376 50.1995C299.876 51.1995 302.376 54.3661 302.376 56.1995L300.376 66.1995C300.828 77.0474 298.42 77.2717 289.088 77.5841C288.097 77.6173 286.028 77.6515 284.876 77.6995V79.1995L259.876 79.6305M22.3759 81.1997V84.1997H40.3743L39.8759 79.6997M22.3759 81.1997V79.6997H39.8759M39.8759 79.6997C36.8759 38.1997 90.3759 41.1997 86.8759 80.1997V82.6995H213.376C207.376 39.1995 261.876 39.1995 259.876 79.6305M259.374 79.6305H259.876" stroke="black"/>
</svg>
