<svg width="303" height="95" viewBox="0 0 303 95" fill="none" xmlns="http://www.w3.org/2000/svg">
<circle cx="62.8955" cy="73.8611" r="20.5" fill="#EFC7D3" stroke="black"/>
<circle cx="235.896" cy="73.8611" r="20.5" fill="#EFC7D3" stroke="black"/>
<path d="M132.894 12.3609L131.394 8.86094C171.394 0.861052 192.894 1.36108 231.894 12.861L228.394 17.361C208.394 9.36099 190.394 8.36099 174.394 7.86106C171.894 7.36106 167.894 7.36102 165.394 7.86094C155.394 7.86106 143.394 9.36106 132.894 12.3609Z" fill="#EDADBF" stroke="black" stroke-width="0.5"/>
<path d="M131.394 8.86113L130.894 7.36113C166.894 -3.63892 199.394 0.360958 234.894 9.36113L231.894 12.8611C191.894 0.361084 165.894 1.86108 131.394 8.86113Z" fill="#EDADBF" stroke="black" stroke-width="0.5"/>
<path d="M131.394 8.86095C182.894 -2.63908 211.394 7.36096 231.894 12.8609" stroke="black" stroke-width="0.5"/>
<path d="M170.896 29.8611L174.396 7.86108C207.896 8.86108 219.396 14.3611 223.896 15.8611L226.378 27.8611C199.388 27.8617 181.893 29.3612 170.896 29.8611Z" fill="#EDADBF"/>
<path d="M226.896 30.3611L223.896 15.8611C219.396 14.3611 207.896 8.86108 174.396 7.86108L170.896 29.8611C181.896 29.3611 199.396 27.8611 226.396 27.8611" stroke="black" stroke-width="0.5"/>
<path d="M165.396 7.86108C132.396 8.86108 112.396 17.8611 93.3955 35.3611L95.8955 33.3611L159.896 30.3611L165.396 7.86108Z" fill="#EDADBF" stroke="black" stroke-width="0.5"/>
<path d="M239.894 22.3611C236.227 19.6944 230.394 17.3611 223.894 15.8611L226.394 27.8611H232.894C235.894 26.3611 238.894 24.1298 239.894 22.3611Z" fill="#EDADBF" stroke="black" stroke-width="0.5"/>
<path d="M96.8955 78.3611H163.896L198.396 76.8611H212.896L213.396 82.3611H199.396H98.3955H86.8955V78.3611H96.8955Z" fill="#EDADBF"/>
<path d="M96.8955 78.3611H163.896L198.396 76.8611M96.8955 78.3611C96.8955 79.8611 97.3955 80.8611 98.3955 82.3611M96.8955 78.3611H86.8955V82.3611H98.3955M198.396 76.8611L199.396 82.3611M198.396 76.8611H212.896L213.396 82.3611H199.396M199.396 82.3611H98.3955" stroke="black" stroke-width="0.5"/>
<path d="M96.8946 78.3611C92.3955 73.8611 89.3956 51.8611 93.3946 35.3611L165.396 31.3611C161.396 36.3611 160.396 70.3611 163.896 78.3611H96.8946Z" fill="#EDADBF" stroke="black" stroke-width="0.5"/>
<path d="M228.895 30.3611L165.395 31.3611C161.396 36.3611 160.396 70.3611 163.895 78.3611L198.395 76.8611C202.895 75.3611 209.395 69.8611 228.895 30.3611Z" fill="#EDADBF" stroke="black" stroke-width="0.5"/>
<path d="M170.896 29.8612C166.396 30.3612 162.896 30.3612 159.896 30.3612L165.396 7.86116C168.396 7.36108 171.396 7.36108 174.396 7.86116L170.896 29.8612Z" fill="#EDADBF" stroke="black" stroke-width="0.5"/>
<path d="M99.3955 31.8611C103.896 37.3611 110.896 33.8611 114.896 32.3611C115.896 16.861 102.896 24.861 99.3955 31.8611Z" fill="#EDADBF" stroke="black" stroke-width="0.5"/>
<path d="M234.894 9.36108L231.894 12.8611C248.894 18.3611 259.394 21.3611 271.894 27.8611H273.394L281.394 26.3611C266.394 19.8611 258.894 17.3611 234.894 9.36108Z" stroke="black" stroke-width="0.5"/>
<path d="M271.894 27.8611C261.394 22.3611 242.394 15.8611 231.894 12.8611L229.894 15.3611L244.894 22.8611C243.394 25.3611 239.394 27.3611 233.394 30.0611C245.394 29.3611 262.394 28.3611 271.894 27.8611Z" stroke="black" stroke-width="0.5"/>
<path d="M277.396 34.1611L283.394 31.8611L272.895 27.8611L228.895 30.3611C221.395 45.3611 206.395 75.8611 198.395 76.8611H212.895C211.395 65.8611 220.895 42.3611 245.896 51.3611C256.396 45.8611 266.396 40.3611 277.396 34.1611Z" stroke="black" stroke-width="0.5"/>
<path d="M278.394 33.8611C266.394 40.3611 256.394 45.8611 245.894 51.3611C250.394 54.3611 260.894 60.3611 259.894 79.3611L284.894 78.8611V77.3611C293.394 76.3611 301.894 79.8611 300.394 65.8611L302.394 55.8611C302.394 54.3611 299.894 50.3611 297.394 49.8611C298.894 47.3611 295.894 38.3611 295.894 38.3611V36.8611L291.894 33.8611L286.894 32.3611L283.394 31.8611L278.394 33.8611Z" stroke="black" stroke-width="0.5"/>
<path d="M295.894 36.8611L295.888 36.7813M295.888 36.7813L295.394 28.3611L281.394 26.3611L272.894 27.8611L283.394 31.8611C292.894 32.8611 291.892 34.3611 295.888 36.7813Z" stroke="black" stroke-width="0.5"/>
<path d="M294.396 36.3613C293.896 33.8612 282.896 33.6611 277.396 34.1611" stroke="black" stroke-width="0.5"/>
<path d="M300.396 66.3611L260.896 68.3611C260.396 63.3611 258.229 59.1944 256.396 57.3611L302.396 54.8611M300.896 52.3611C289.896 50.8611 278.896 46.0611 266.896 40.0611M228.896 30.3611L272.896 27.8611L281.396 26.3611" stroke="black" stroke-width="0.5"/>
<path d="M272.896 42.8611C279.891 43.2109 285.908 43.316 291.289 43.8611M297.896 44.8611C295.793 44.4104 293.599 44.0952 291.289 43.8611M295.896 37.3611C295.478 36.776 295.008 36.2467 294.504 35.7711M291.289 43.8611C290.962 43.5163 290.868 42.9933 290.854 42.3611M290.854 42.3611C290.84 41.7708 290.896 41.0854 290.896 40.3611C290.896 38.3611 289.896 34.3611 286.396 32.3611C288.616 32.3611 291.993 33.4015 294.504 35.7711M290.854 42.3611C293.896 40.8611 294.968 37.3011 294.504 35.7711" stroke="black" stroke-width="0.5"/>
<path d="M290.896 40.3611C286.396 40.3611 284.396 36.3611 283.396 33.8611" stroke="black" stroke-width="0.5"/>
<path d="M132.894 12.4611C119.394 16.4611 107.394 22.3611 93.394 35.3611C100.394 23.3611 115.894 13.8611 131.394 8.86108L132.894 12.4611Z" stroke="black" stroke-width="0.5"/>
<path d="M131.394 8.86108C111.394 14.5351 93.394 31.8611 85.394 29.8611C98.394 20.3611 114.394 11.8611 130.894 7.36108L131.394 8.86108Z" stroke="black" stroke-width="0.5"/>
<path d="M10.3947 47.861H4.39471C1.89404 51.861 1.89404 61.861 2.39471 65.361C0.894043 66.361 0.89464 70.861 1.89471 72.361L5.89471 72.861V74.361L1.89471 76.361V78.361C5.89471 79.361 14.3947 81.361 22.3947 80.861V79.361H39.8947C39.228 70.861 40.8947 60.361 49.8947 53.361C47.3947 49.361 40.3947 44.861 37.3947 44.361C27.3947 43.361 12.3947 45.861 10.3947 47.861Z" stroke="black" stroke-width="0.5"/>
<path d="M93.3955 35.3611C75.5622 36.1944 43.8955 41.0611 33.3955 44.0611L37.3955 44.3611C42.3955 45.8611 47.8955 50.1944 49.8955 53.3611C62.8945 43.8611 88.3945 50.8611 86.8945 78.3611H96.8945C89.8945 67.3611 90.8945 45.3611 93.3955 35.3611Z" stroke="black" stroke-width="0.5"/>
<path d="M10.3936 47.8611H4.39355C36.8937 28.361 58.8938 34.3611 84.8936 29.8611L93.8938 35.3611C76.8938 36.3611 47.8936 39.8611 33.8936 44.0611C25.8936 43.8611 11.8936 45.8611 10.3936 47.8611Z" stroke="black" stroke-width="0.5"/>
<path d="M37.3955 44.3612C29.8955 43.3611 12.8955 45.3611 10.3955 47.8612C9.5955 50.2611 12.7288 53.1944 14.3955 54.3611C23.8955 55.8611 37.3955 49.8611 37.3955 44.3612Z" stroke="black" stroke-width="0.5"/>
<path d="M4.39474 47.8611C11.3947 48.8611 5.39474 59.3611 2.39474 64.3611C1.89467 57.3611 2.39453 51.8611 4.39474 47.8611Z" stroke="black" stroke-width="0.5"/>
<path d="M22.394 83.8611V79.3611H39.894L40.394 83.8611H22.394Z" stroke="black" stroke-width="0.5"/>
<path d="M2.89551 65.3608C4.39551 67.8608 6.39551 71.0275 5.89551 72.8608M22.3955 79.3608C11.8955 79.8608 7.39551 75.8608 8.39551 72.3608C8.89551 71.8608 10.3955 70.3608 11.3955 70.3608" stroke="black" stroke-width="0.5"/>
<path d="M6.39551 65.361C8.64545 64.861 11.5204 64.236 14.2703 63.861M14.2703 63.861C17.0204 63.486 19.6455 63.361 21.3955 63.861C24.3955 65.361 29.8955 70.361 32.3955 74.361C27.3955 75.361 20.3955 74.861 15.8955 74.861C13.2029 74.861 11.8955 72.5276 11.8955 71.361C11.3955 68.361 12.6454 65.1943 14.2703 63.861Z" stroke="black" stroke-width="0.5"/>
<path d="M11.8955 70.861C19.8955 69.3611 23.3955 71.9896 26.3955 73.4896M13.3955 73.8611L30.8955 73.3611" stroke="black" stroke-width="0.5"/>
<path d="M22.3936 82.3608H31.8936C33.8936 82.3608 35.3936 80.3608 34.8936 79.3608M38.3936 79.3608V83.8608" stroke="black" stroke-width="0.5"/>
<path d="M22.3955 80.8613C17.8955 80.8613 13.3955 81.3613 1.89545 78.3613V76.3613L5.89545 74.3613V72.8613L1.89545 72.3613C1.39453 70.8611 0.394727 67.8611 2.39472 65.3611C1.89497 57.3611 2.39497 50.8611 4.39545 47.8608C36.8955 28.3612 58.8954 34.3613 84.8954 29.8613C162.895 -25.1388 244.895 11.8611 281.895 26.3613L295.395 28.3611L295.895 35.3611V38.3611C297.394 43.3611 298.729 47.8611 297.395 49.8611C299.895 50.8611 302.395 54.0278 302.395 55.8611L300.395 65.8611C300.847 76.709 298.439 76.9333 289.108 77.2457C288.117 77.2789 286.048 77.3131 284.895 77.3611V78.8611L259.895 79.2921M22.3955 80.8613V83.8613H40.3938L39.8955 79.3613M22.3955 80.8613V79.3613H39.8955M39.8955 79.3613C36.8955 37.8613 90.3954 40.8613 86.8954 79.8613V82.3611H213.395C207.395 38.8611 261.895 38.8611 259.895 79.2921M259.394 79.2921H259.895" stroke="black"/>
</svg>
