<svg width="303" height="96" viewBox="0 0 303 96" fill="none" xmlns="http://www.w3.org/2000/svg">
<circle cx="62.6978" cy="74.3687" r="20.5" stroke="black"/>
<circle cx="235.698" cy="74.3687" r="20.5" stroke="black"/>
<path d="M132.696 12.8685L131.196 9.36851C171.196 1.36862 192.696 1.86865 231.696 13.3686L228.196 17.8686C208.196 9.86856 190.196 8.86856 174.196 8.36863C171.696 7.86863 167.696 7.86859 165.196 8.36851C155.196 8.36863 143.196 9.86863 132.696 12.8685Z" fill="#EDADBF" stroke="black" stroke-width="0.5"/>
<path d="M131.196 9.3687L130.696 7.8687C166.696 -3.13135 199.196 0.868526 234.696 9.8687L231.696 13.3687C191.696 0.868652 165.696 2.36865 131.196 9.3687Z" fill="#EDADBF" stroke="black" stroke-width="0.5"/>
<path d="M131.196 9.36876C182.696 -2.13126 211.196 7.86877 231.696 13.3688" stroke="black" stroke-width="0.5"/>
<path d="M170.698 30.3687L174.198 8.36865C207.698 9.36865 219.198 14.8687 223.698 16.3687L226.181 28.3687C199.19 28.3693 181.695 29.8688 170.698 30.3687Z" fill="#EDADBF"/>
<path d="M226.698 30.8687L223.698 16.3687C219.198 14.8687 207.698 9.36865 174.198 8.36865L170.698 30.3687C181.698 29.8687 199.198 28.3687 226.198 28.3687" stroke="black" stroke-width="0.5"/>
<path d="M165.198 8.36865C132.198 9.36865 112.198 18.3687 93.1978 35.8687L95.6978 33.8687L159.698 30.8687L165.198 8.36865Z" fill="#EDADBF" stroke="black" stroke-width="0.5"/>
<path d="M239.696 22.8687C236.03 20.202 230.196 17.8687 223.696 16.3687L226.196 28.3687H232.696C235.696 26.8687 238.696 24.6374 239.696 22.8687Z" fill="#EDADBF" stroke="black" stroke-width="0.5"/>
<path d="M96.6978 78.8687H163.698L198.198 77.3687H212.698L213.198 82.8687H199.198H98.1978H86.6978V78.8687H96.6978Z" fill="#EDADBF"/>
<path d="M96.6978 78.8687H163.698L198.198 77.3687M96.6978 78.8687C96.6978 80.3687 97.1978 81.3687 98.1978 82.8687M96.6978 78.8687H86.6978V82.8687H98.1978M198.198 77.3687L199.198 82.8687M198.198 77.3687H212.698L213.198 82.8687H199.198M199.198 82.8687H98.1978" stroke="black" stroke-width="0.5"/>
<path d="M96.6969 78.8687C92.1977 74.3687 89.1978 52.3687 93.1969 35.8687L165.198 31.8687C161.198 36.8687 160.198 70.8687 163.698 78.8687H96.6969Z" fill="#EDADBF" stroke="black" stroke-width="0.5"/>
<path d="M228.697 30.8687L165.197 31.8687C161.197 36.8687 160.198 70.8687 163.697 78.8687L198.197 77.3687C202.697 75.8687 209.197 70.3687 228.697 30.8687Z" fill="#EDADBF" stroke="black" stroke-width="0.5"/>
<path d="M170.698 30.3687C166.198 30.8687 162.698 30.8687 159.698 30.8687L165.198 8.36873C168.198 7.86865 171.198 7.86865 174.198 8.36873L170.698 30.3687Z" fill="#EDADBF" stroke="black" stroke-width="0.5"/>
<path d="M99.1978 32.3689C103.698 37.8689 110.698 34.3689 114.698 32.8689C115.698 17.3688 102.698 25.3688 99.1978 32.3689Z" fill="#EDADBF" stroke="black" stroke-width="0.5"/>
<path d="M234.696 9.86865L231.696 13.3687C248.696 18.8687 259.196 21.8687 271.696 28.3687H273.196L281.196 26.8687C266.196 20.3687 258.696 17.8687 234.696 9.86865Z" stroke="black" stroke-width="0.5"/>
<path d="M271.696 28.3687C261.196 22.8687 242.196 16.3687 231.696 13.3687L229.696 15.8687L244.696 23.3687C243.196 25.8687 239.196 27.8687 233.196 30.5687C245.196 29.8687 262.196 28.8687 271.696 28.3687Z" stroke="black" stroke-width="0.5"/>
<path d="M277.198 34.6687L283.196 32.3687L272.697 28.3687L228.697 30.8687C221.197 45.8687 206.197 76.3687 198.197 77.3687H212.697C211.197 66.3687 220.697 42.8687 245.698 51.8687C256.198 46.3687 266.198 40.8687 277.198 34.6687Z" stroke="black" stroke-width="0.5"/>
<path d="M278.196 34.3687C266.196 40.8687 256.196 46.3687 245.696 51.8687C250.196 54.8687 260.696 60.8687 259.696 79.8687L284.696 79.3687V77.8687C293.196 76.8687 301.696 80.3687 300.196 66.3687L302.196 56.3687C302.196 54.8687 299.696 50.8687 297.196 50.3687C298.696 47.8687 295.696 38.8687 295.696 38.8687V37.3687L291.696 34.3687L286.696 32.8687L283.196 32.3687L278.196 34.3687Z" stroke="black" stroke-width="0.5"/>
<path d="M295.696 37.3687L295.69 37.2888M295.69 37.2888L295.196 28.8687L281.196 26.8687L272.696 28.3687L283.196 32.3687C292.696 33.3687 291.695 34.8687 295.69 37.2888Z" stroke="black" stroke-width="0.5"/>
<path d="M294.198 36.8689C293.698 34.3687 282.698 34.1687 277.198 34.6687" stroke="black" stroke-width="0.5"/>
<path d="M300.198 66.8687L260.698 68.8687C260.198 63.8687 258.031 59.702 256.198 57.8687L302.198 55.3687M300.698 52.8687C289.698 51.3687 278.698 46.5687 266.698 40.5687M228.698 30.8687L272.698 28.3687L281.198 26.8687" stroke="black" stroke-width="0.5"/>
<path d="M272.698 43.3687C279.693 43.7184 285.71 43.8235 291.091 44.3687M297.698 45.3687C295.595 44.918 293.402 44.6028 291.091 44.3687M295.698 37.8687C295.28 37.2835 294.811 36.7543 294.307 36.2786M291.091 44.3687C290.765 44.0239 290.671 43.5008 290.656 42.8687M290.656 42.8687C290.642 42.2784 290.698 41.5929 290.698 40.8687C290.698 38.8687 289.698 34.8687 286.198 32.8687C288.419 32.8687 291.795 33.909 294.307 36.2786M290.656 42.8687C293.698 41.3687 294.77 37.8086 294.307 36.2786" stroke="black" stroke-width="0.5"/>
<path d="M290.698 40.8687C286.198 40.8687 284.198 36.8687 283.198 34.3687" stroke="black" stroke-width="0.5"/>
<path d="M132.696 12.9686C119.196 16.9686 107.196 22.8687 93.1963 35.8687C100.196 23.8687 115.696 14.3687 131.196 9.36865L132.696 12.9686Z" fill="#E56E90" stroke="black" stroke-width="0.5"/>
<path d="M131.196 9.36865C111.196 15.0427 93.1963 32.3687 85.1963 30.3687C98.1963 20.8687 114.196 12.3687 130.696 7.86865L131.196 9.36865Z" fill="#E56E90" stroke="black" stroke-width="0.5"/>
<path d="M10.197 48.3685H4.19696C1.69629 52.3685 1.69629 62.3685 2.19696 65.8685C0.696289 66.8685 0.696887 71.3685 1.69696 72.8685L5.69696 73.3685V74.8685L1.69696 76.8685V78.8685C5.69696 79.8685 14.197 81.8685 22.197 81.3685V79.8685H39.697C39.0303 71.3685 40.697 60.8685 49.697 53.8685C47.197 49.8685 40.197 45.3685 37.197 44.8685C27.197 43.8685 12.197 46.3685 10.197 48.3685Z" fill="#E56E90" stroke="black" stroke-width="0.5"/>
<path d="M93.1978 35.8687C75.3644 36.702 43.6978 41.5687 33.1978 44.5687L37.1978 44.8687C42.1978 46.3687 47.6978 50.702 49.6978 53.8687C62.6968 44.3687 88.1968 51.3687 86.6968 78.8687H96.6968C89.6968 67.8687 90.6968 45.8687 93.1978 35.8687Z" fill="#E56E90" stroke="black" stroke-width="0.5"/>
<path d="M10.1963 48.3687H4.19629C36.6965 28.8686 58.6965 34.8687 84.6963 30.3687L93.6965 35.8687C76.6965 36.8687 47.6963 40.3686 33.6963 44.5687C25.6963 44.3686 11.6963 46.3686 10.1963 48.3687Z" fill="#E56E90" stroke="black" stroke-width="0.5"/>
<path d="M37.1977 44.8687C29.6977 43.8687 12.6977 45.8687 10.1977 48.3687C9.39774 50.7687 12.5311 53.702 14.1977 54.8687C23.6978 56.3687 37.1977 50.3687 37.1977 44.8687Z" fill="#E56E90" stroke="black" stroke-width="0.5"/>
<path d="M4.19698 48.3687C11.197 49.3687 5.19698 59.8687 2.19698 64.8687C1.69691 57.8687 2.19678 52.3687 4.19698 48.3687Z" fill="#E56E90" stroke="black" stroke-width="0.5"/>
<path d="M22.1963 84.3687V79.8687H39.6963L40.1963 84.3687H22.1963Z" fill="#E56E90" stroke="black" stroke-width="0.5"/>
<path d="M2.69824 65.8687C4.19824 68.3687 6.19824 71.5353 5.69824 73.3687M22.1982 79.8687C11.6982 80.3687 7.19824 76.3687 8.19824 72.8687C8.69824 72.3687 10.1982 70.8687 11.1982 70.8687" stroke="black" stroke-width="0.5"/>
<path d="M32.1982 74.8688C29.6982 70.8688 24.1982 65.8689 21.1982 64.3689C19.4482 63.8688 16.8231 63.9938 14.073 64.3689C12.4481 65.7022 11.1982 68.8688 11.6982 71.8688C11.6982 73.0354 13.0057 75.3688 15.6982 75.3688C20.1982 75.3688 27.1982 75.8688 32.1982 74.8688Z" fill="#E56E90"/>
<path d="M6.19824 65.8689C8.44818 65.3688 11.3231 64.7438 14.073 64.3689M14.073 64.3689C16.8231 63.9938 19.4482 63.8688 21.1982 64.3689C24.1982 65.8689 29.6982 70.8688 32.1982 74.8688C27.1982 75.8688 20.1982 75.3688 15.6982 75.3688C13.0057 75.3688 11.6982 73.0354 11.6982 71.8688C11.1982 68.8688 12.4481 65.7022 14.073 64.3689Z" stroke="black" stroke-width="0.5"/>
<path d="M11.6982 71.3688C19.6982 69.8689 23.1982 72.4974 26.1982 73.9974M13.1982 74.3689L30.6982 73.8689" stroke="black" stroke-width="0.5"/>
<path d="M22.1963 82.8687H31.6963C33.6963 82.8687 35.1963 80.8687 34.6963 79.8687M38.1963 79.8687V84.3687" stroke="black" stroke-width="0.5"/>
<path d="M22.1977 81.3689C17.6977 81.3689 13.1977 81.8689 1.6977 78.8689V76.8689L5.6977 74.8689V73.3689L1.6977 72.8689C1.19678 71.3687 0.196973 68.3687 2.19697 65.8687C1.69721 57.8687 2.19721 51.3687 4.1977 48.3684C36.6977 28.8688 58.6977 34.8688 84.6977 30.3688C162.698 -24.6313 244.698 12.3686 281.698 26.8688L295.198 28.8687L295.698 35.8687V38.8687C297.196 43.8687 298.531 48.3687 297.198 50.3687C299.698 51.3687 302.198 54.5353 302.198 56.3687L300.198 66.3687C300.65 77.2166 298.242 77.4408 288.91 77.7533C287.919 77.7865 285.85 77.8206 284.698 77.8687V79.3687L259.698 79.7997M22.1977 81.3689V84.3689H40.196L39.6977 79.8689M22.1977 81.3689V79.8689H39.6977M39.6977 79.8689C36.6977 38.3689 90.1977 41.3689 86.6977 80.3689V82.8687H213.198C207.198 39.3687 261.698 39.3687 259.698 79.7997M259.196 79.7997H259.698" stroke="black"/>
</svg>
