<svg width="303" height="96" viewBox="0 0 303 96" fill="none" xmlns="http://www.w3.org/2000/svg">
<circle cx="62.8652" cy="74.5076" r="20.5" fill="#EFC7D3" stroke="black"/>
<circle cx="235.865" cy="74.5076" r="20.5" fill="#EFC7D3" stroke="black"/>
<path d="M132.863 13.0074L131.363 9.50742C171.363 1.50754 192.863 2.00757 231.863 13.5075L228.363 18.0075C208.363 10.0075 190.363 9.00748 174.363 8.50755C171.863 8.00755 167.863 8.00751 165.363 8.50742C155.363 8.50755 143.363 10.0075 132.863 13.0074Z" stroke="black" stroke-width="0.5"/>
<path d="M131.363 9.50761L130.863 8.00761C166.863 -2.99243 199.363 1.00744 234.863 10.0076L231.863 13.5076C191.863 1.00757 165.863 2.50757 131.363 9.50761Z" stroke="black" stroke-width="0.5"/>
<path d="M131.363 9.50756C182.863 -1.99247 211.363 8.00757 231.863 13.5076" stroke="black" stroke-width="0.5"/>
<path d="M226.865 31.0076L223.865 16.5076C219.365 15.0076 207.865 9.50757 174.365 8.50757L170.865 30.5076C181.865 30.0076 199.365 28.5076 226.365 28.5076" stroke="black" stroke-width="0.5"/>
<path d="M165.365 8.50757C132.365 9.50757 112.365 18.5076 93.3652 36.0076L95.8652 34.0076L159.865 31.0076L165.365 8.50757Z" stroke="black" stroke-width="0.5"/>
<path d="M239.863 23.0076C236.197 20.3409 230.363 18.0076 223.863 16.5076L226.363 28.5076H232.863C235.863 27.0076 238.863 24.7763 239.863 23.0076Z" stroke="black" stroke-width="0.5"/>
<path d="M96.8652 79.0076H163.865L198.365 77.5076M96.8652 79.0076C96.8652 80.5076 97.3652 81.5076 98.3652 83.0076M96.8652 79.0076H86.8652V83.0076H98.3652M198.365 77.5076L199.365 83.0076M198.365 77.5076H212.865L213.365 83.0076H199.365M199.365 83.0076H98.3652" stroke="black" stroke-width="0.5"/>
<path d="M96.8644 79.0076C92.3652 74.5076 89.3653 52.5076 93.3644 36.0076L165.365 32.0076C161.365 37.0076 160.365 71.0076 163.865 79.0076H96.8644Z" stroke="black" stroke-width="0.5"/>
<path d="M228.865 31.0076L165.365 32.0076C161.365 37.0076 160.365 71.0076 163.865 79.0076L198.365 77.5076C202.865 76.0076 209.365 70.5076 228.865 31.0076Z" stroke="black" stroke-width="0.5"/>
<path d="M170.865 30.5076C166.365 31.0076 162.865 31.0076 159.865 31.0076L165.365 8.50764C168.365 8.00757 171.365 8.00757 174.365 8.50764L170.865 30.5076Z" stroke="black" stroke-width="0.5"/>
<path d="M99.3652 32.5077C103.865 38.0077 110.865 34.5077 114.865 33.0077C115.865 17.5076 102.865 25.5076 99.3652 32.5077Z" stroke="black" stroke-width="0.5"/>
<path d="M234.863 10.0076L231.863 13.5076C248.863 19.0076 259.363 22.0076 271.863 28.5076H273.363L281.363 27.0076C266.363 20.5076 258.863 18.0076 234.863 10.0076Z" fill="#E56E90" stroke="black" stroke-width="0.5"/>
<path d="M271.863 28.5076C261.363 23.0076 242.363 16.5076 231.863 13.5076L229.863 16.0076L244.863 23.5076C243.363 26.0076 239.363 28.0076 233.363 30.7076C245.363 30.0076 262.363 29.0076 271.863 28.5076Z" fill="#E56E90" stroke="black" stroke-width="0.5"/>
<path d="M277.365 34.8076L283.364 32.5076L272.864 28.5076L228.864 31.0076C221.364 46.0076 206.364 76.5076 198.364 77.5076H212.864C211.364 66.5076 220.864 43.0076 245.865 52.0076C256.365 46.5076 266.365 41.0076 277.365 34.8076Z" fill="#E56E90" stroke="black" stroke-width="0.5"/>
<path d="M278.363 34.5076C266.363 41.0076 256.363 46.5076 245.863 52.0076C250.363 55.0076 260.863 61.0076 259.863 80.0076L284.863 79.5076V78.0076C293.363 77.0076 301.863 80.5076 300.363 66.5076L302.363 56.5076C302.363 55.0076 299.863 51.0076 297.363 50.5076C298.863 48.0076 295.863 39.0076 295.863 39.0076V37.5076L291.863 34.5076L286.863 33.0076L283.363 32.5076L278.363 34.5076Z" fill="#E56E90" stroke="black" stroke-width="0.5"/>
<path d="M281.363 27.0076L272.863 28.5076L283.363 32.5076C292.863 33.5076 291.862 35.0076 295.857 37.4277L295.363 29.0076L281.363 27.0076Z" fill="#E56E90"/>
<path d="M295.863 37.5076L295.857 37.4277M295.857 37.4277L295.363 29.0076L281.363 27.0076L272.863 28.5076L283.363 32.5076C292.863 33.5076 291.862 35.0076 295.857 37.4277Z" stroke="black" stroke-width="0.5"/>
<path d="M294.365 37.0078C293.865 34.5077 282.865 34.3076 277.365 34.8076" stroke="black" stroke-width="0.5"/>
<path d="M300.365 67.0076L260.865 69.0076C260.365 64.0076 258.199 59.8409 256.365 58.0076L302.365 55.5076M300.865 53.0076C289.865 51.5076 278.865 46.7076 266.865 40.7076M228.865 31.0076L272.865 28.5076L281.365 27.0076" stroke="black" stroke-width="0.5"/>
<path d="M290.865 41.0076C290.865 39.0076 289.865 35.0076 286.365 33.0076C288.586 33.0076 291.963 34.048 294.474 36.4176C294.938 37.9476 293.865 41.5076 290.823 43.0076C290.81 42.4173 290.865 41.7319 290.865 41.0076Z" fill="#E56E90"/>
<path d="M272.865 43.5076C279.861 43.8574 285.878 43.9624 291.258 44.5076M297.865 45.5076C295.762 45.0569 293.569 44.7417 291.258 44.5076M295.865 38.0076C295.447 37.4224 294.978 36.8932 294.474 36.4176M291.258 44.5076C290.932 44.1628 290.838 43.6398 290.823 43.0076M290.823 43.0076C290.81 42.4173 290.865 41.7319 290.865 41.0076C290.865 39.0076 289.865 35.0076 286.365 33.0076C288.586 33.0076 291.963 34.048 294.474 36.4176M290.823 43.0076C293.865 41.5076 294.938 37.9476 294.474 36.4176" stroke="black" stroke-width="0.5"/>
<path d="M290.865 41.0076C286.365 41.0076 284.365 37.0076 283.365 34.5076" stroke="black" stroke-width="0.5"/>
<path d="M132.863 13.1075C119.363 17.1075 107.363 23.0076 93.3633 36.0076C100.363 24.0076 115.863 14.5076 131.363 9.50757L132.863 13.1075Z" fill="#EDADBF" stroke="black" stroke-width="0.5"/>
<path d="M131.363 9.50757C111.363 15.1816 93.3633 32.5076 85.3633 30.5076C98.3633 21.0076 114.363 12.5076 130.863 8.00757L131.363 9.50757Z" fill="#EDADBF" stroke="black" stroke-width="0.5"/>
<path d="M10.3639 48.5076H4.36395C1.86328 52.5076 1.86328 62.5076 2.36395 66.0076C0.863281 67.0076 0.863879 71.5076 1.86395 73.0076L5.86395 73.5076V75.0076L1.86395 77.0076V79.0076C5.86395 80.0076 14.3639 82.0076 22.3639 81.5076V80.0076H39.8639C39.1973 71.5076 40.8639 61.0076 49.8639 54.0076C47.3639 50.0076 40.3639 45.5076 37.3639 45.0076C27.3639 44.0076 12.3639 46.5076 10.3639 48.5076Z" fill="#EDADBF" stroke="black" stroke-width="0.5"/>
<path d="M93.3652 36.0076C75.5319 36.8409 43.8652 41.7076 33.3652 44.7076L37.3652 45.0076C42.3652 46.5076 47.8652 50.8409 49.8652 54.0076C62.8643 44.5076 88.3643 51.5076 86.8643 79.0076H96.8643C89.8643 68.0076 90.8643 46.0076 93.3652 36.0076Z" fill="#EDADBF" stroke="black" stroke-width="0.5"/>
<path d="M10.3633 48.5076H4.36328C36.8635 29.0075 58.8635 35.0076 84.8633 30.5076L93.8635 36.0076C76.8635 37.0076 47.8633 40.5076 33.8633 44.7076C25.8633 44.5076 11.8633 46.5076 10.3633 48.5076Z" fill="#EDADBF" stroke="black" stroke-width="0.5"/>
<path d="M37.3647 45.0076C29.8647 44.0076 12.8647 46.0076 10.3647 48.5076C9.56474 50.9076 12.6981 53.8409 14.3647 55.0076C23.8647 56.5076 37.3647 50.5076 37.3647 45.0076Z" fill="#EDADBF" stroke="black" stroke-width="0.5"/>
<path d="M4.36398 48.5076C11.364 49.5076 5.36398 60.0076 2.36398 65.0076C1.86391 58.0076 2.36377 52.5076 4.36398 48.5076Z" fill="#EDADBF" stroke="black" stroke-width="0.5"/>
<path d="M22.3633 84.5076V80.0076H39.8633L40.3633 84.5076H22.3633Z" fill="#EDADBF" stroke="black" stroke-width="0.5"/>
<path d="M2.86523 66.0076C4.36523 68.5076 6.36523 71.6742 5.86523 73.5076M22.3652 80.0076C11.8652 80.5076 7.36523 76.5076 8.36523 73.0076C8.86523 72.5076 10.3652 71.0076 11.3652 71.0076" stroke="black" stroke-width="0.5"/>
<path d="M32.3652 75.0076C29.8652 71.0076 24.3652 66.0076 21.3652 64.5076C19.6152 64.0076 16.9901 64.1326 14.24 64.5076C12.6151 65.841 11.3652 69.0076 11.8652 72.0076C11.8652 73.1742 13.1727 75.5076 15.8652 75.5076C20.3652 75.5076 27.3652 76.0076 32.3652 75.0076Z" fill="#EDADBF"/>
<path d="M6.36523 66.0076C8.61518 65.5076 11.4901 64.8826 14.24 64.5076M14.24 64.5076C16.9901 64.1326 19.6152 64.0076 21.3652 64.5076C24.3652 66.0076 29.8652 71.0076 32.3652 75.0076C27.3652 76.0076 20.3652 75.5076 15.8652 75.5076C13.1727 75.5076 11.8652 73.1742 11.8652 72.0076C11.3652 69.0076 12.6151 65.841 14.24 64.5076Z" stroke="black" stroke-width="0.5"/>
<path d="M11.8652 71.5076C19.8652 70.0077 23.3652 72.6362 26.3652 74.1362M13.3652 74.5077L30.8652 74.0077" stroke="black" stroke-width="0.5"/>
<path d="M22.3633 83.0076H31.8633C33.8633 83.0076 35.3633 81.0076 34.8633 80.0076M38.3633 80.0076V84.5076" stroke="black" stroke-width="0.5"/>
<path d="M22.3652 81.5078C17.8652 81.5078 13.3652 82.0078 1.86518 79.0078V77.0078L5.86518 75.0078V73.5078L1.86518 73.0078C1.36426 71.5076 0.364454 68.5076 2.36445 66.0076C1.86469 58.0076 2.36469 51.5076 4.36518 48.5073C36.8652 29.0077 58.8652 35.0078 84.8652 30.5078C162.865 -24.4924 244.865 12.5076 281.865 27.0077L295.365 29.0076L295.865 36.0076V39.0076C297.364 44.0076 298.699 48.5076 297.365 50.5076C299.865 51.5076 302.365 54.6742 302.365 56.5076L300.365 66.5076C300.817 77.3555 298.409 77.5798 289.077 77.8922C288.086 77.9254 286.017 77.9596 284.865 78.0076V79.5076L259.865 79.9386M22.3652 81.5078V84.5078H40.3635L39.8652 80.0078M22.3652 81.5078V80.0078H39.8652M39.8652 80.0078C36.8652 38.5078 90.3652 41.5078 86.8652 80.5078V83.0076H213.365C207.365 39.5076 261.865 39.5076 259.865 79.9386M259.364 79.9386H259.865" stroke="black"/>
</svg>
