<svg width="303" height="95" viewBox="0 0 303 95" fill="none" xmlns="http://www.w3.org/2000/svg">
<circle cx="62.6562" cy="73.7222" r="20.5" stroke="black"/>
<circle cx="235.656" cy="73.7222" r="20.5" stroke="black"/>
<path d="M132.654 12.222L131.154 8.72202C171.154 0.722136 192.654 1.22217 231.654 12.7221L228.154 17.2221C208.154 9.22208 190.154 8.22208 174.154 7.72215C171.654 7.22215 167.654 7.22211 165.154 7.72202C155.154 7.72215 143.154 9.22215 132.654 12.222Z" fill="#E0426F" stroke="black" stroke-width="0.5"/>
<path d="M131.154 8.72221L130.654 7.22221C166.654 -3.77783 199.154 0.222042 234.654 9.22221L231.654 12.7222C191.654 0.222168 165.654 1.72217 131.154 8.72221Z" fill="#E0426F" stroke="black" stroke-width="0.5"/>
<path d="M131.154 8.72228C182.654 -2.77775 211.154 7.22229 231.654 12.7223" stroke="black" stroke-width="0.5"/>
<path d="M170.656 29.7222L174.156 7.72217C207.656 8.72217 219.156 14.2222 223.656 15.7222L226.139 27.7222C199.149 27.7228 181.654 29.2223 170.656 29.7222Z" fill="#E0426F"/>
<path d="M226.656 30.2222L223.656 15.7222C219.156 14.2222 207.656 8.72217 174.156 7.72217L170.656 29.7222C181.656 29.2222 199.156 27.7222 226.156 27.7222" stroke="black" stroke-width="0.5"/>
<path d="M165.156 7.72217C132.156 8.72217 112.156 17.7222 93.1562 35.2222L95.6562 33.2222L159.656 30.2222L165.156 7.72217Z" fill="#E0426F" stroke="black" stroke-width="0.5"/>
<path d="M239.654 22.2222C235.988 19.5555 230.154 17.2222 223.654 15.7222L226.154 27.7222H232.654C235.654 26.2222 238.654 23.9909 239.654 22.2222Z" fill="#E0426F" stroke="black" stroke-width="0.5"/>
<path d="M96.6562 78.2222H163.656L198.156 76.7222H212.656L213.156 82.2222H199.156H98.1562H86.6562V78.2222H96.6562Z" fill="#E0426F"/>
<path d="M96.6562 78.2222H163.656L198.156 76.7222M96.6562 78.2222C96.6562 79.7222 97.1562 80.7222 98.1562 82.2222M96.6562 78.2222H86.6562V82.2222H98.1562M198.156 76.7222L199.156 82.2222M198.156 76.7222H212.656L213.156 82.2222H199.156M199.156 82.2222H98.1562" stroke="black" stroke-width="0.5"/>
<path d="M96.6554 78.2222C92.1562 73.7222 89.1563 51.7222 93.1554 35.2222L165.156 31.2222C161.156 36.2222 160.156 70.2222 163.656 78.2222H96.6554Z" fill="#E0426F" stroke="black" stroke-width="0.5"/>
<path d="M228.656 30.2222L165.156 31.2222C161.156 36.2222 160.156 70.2222 163.656 78.2222L198.156 76.7222C202.656 75.2222 209.156 69.7222 228.656 30.2222Z" fill="#E0426F" stroke="black" stroke-width="0.5"/>
<path d="M170.656 29.7222C166.156 30.2222 162.656 30.2222 159.656 30.2222L165.156 7.72224C168.156 7.22217 171.156 7.22217 174.156 7.72224L170.656 29.7222Z" fill="#E0426F" stroke="black" stroke-width="0.5"/>
<path d="M99.1562 31.7224C103.656 37.2224 110.656 33.7224 114.656 32.2224C115.656 16.7223 102.656 24.7223 99.1562 31.7224Z" fill="#E0426F" stroke="black" stroke-width="0.5"/>
<path d="M234.654 9.22217L231.654 12.7222C248.654 18.2222 259.154 21.2222 271.654 27.7222H273.154L281.154 26.2222C266.154 19.7222 258.654 17.2222 234.654 9.22217Z" fill="#E0426F" stroke="black" stroke-width="0.5"/>
<path d="M271.654 27.7222C261.154 22.2222 242.154 15.7222 231.654 12.7222L229.654 15.2222L244.654 22.7222C243.154 25.2222 239.154 27.2222 233.154 29.9222C245.154 29.2222 262.154 28.2222 271.654 27.7222Z" fill="#E0426F" stroke="black" stroke-width="0.5"/>
<path d="M277.156 34.0222L283.155 31.7222L272.655 27.7222L228.655 30.2222C221.155 45.2222 206.155 75.7222 198.155 76.7222H212.655C211.155 65.7222 220.655 42.2222 245.656 51.2222C256.156 45.7222 266.156 40.2222 277.156 34.0222Z" fill="#E0426F" stroke="black" stroke-width="0.5"/>
<path d="M278.154 33.7222C266.154 40.2222 256.154 45.7222 245.654 51.2222C250.154 54.2222 260.654 60.2222 259.654 79.2222L284.654 78.7222V77.2222C293.154 76.2222 301.654 79.7222 300.154 65.7222L302.154 55.7222C302.154 54.2222 299.654 50.2222 297.154 49.7222C298.654 47.2222 295.654 38.2222 295.654 38.2222V36.7222L291.654 33.7222L286.654 32.2222L283.154 31.7222L278.154 33.7222Z" fill="#E0426F" stroke="black" stroke-width="0.5"/>
<path d="M281.154 26.2222L272.654 27.7222L283.154 31.7222C292.654 32.7222 291.653 34.2222 295.648 36.6423L295.154 28.2222L281.154 26.2222Z" fill="#E0426F"/>
<path d="M295.654 36.7222L295.648 36.6423M295.648 36.6423L295.154 28.2222L281.154 26.2222L272.654 27.7222L283.154 31.7222C292.654 32.7222 291.653 34.2222 295.648 36.6423Z" stroke="black" stroke-width="0.5"/>
<path d="M294.156 36.2224C293.656 33.7223 282.656 33.5222 277.156 34.0222" stroke="black" stroke-width="0.5"/>
<path d="M300.156 66.2222L260.656 68.2222C260.156 63.2222 257.99 59.0555 256.156 57.2222L302.156 54.7222M300.656 52.2222C289.656 50.7222 278.656 45.9222 266.656 39.9222M228.656 30.2222L272.656 27.7222L281.156 26.2222" stroke="black" stroke-width="0.5"/>
<path d="M290.656 40.2222C290.656 38.2222 289.656 34.2222 286.156 32.2222C288.377 32.2222 291.754 33.2626 294.265 35.6322C294.729 37.1622 293.656 40.7222 290.614 42.2222C290.601 41.6319 290.656 40.9465 290.656 40.2222Z" fill="#E0426F"/>
<path d="M272.656 42.7222C279.652 43.072 285.669 43.177 291.049 43.7222M297.656 44.7222C295.553 44.2715 293.36 43.9563 291.049 43.7222M295.656 37.2222C295.238 36.637 294.769 36.1078 294.265 35.6322M291.049 43.7222C290.723 43.3774 290.629 42.8544 290.614 42.2222M290.614 42.2222C290.601 41.6319 290.656 40.9465 290.656 40.2222C290.656 38.2222 289.656 34.2222 286.156 32.2222C288.377 32.2222 291.754 33.2626 294.265 35.6322M290.614 42.2222C293.656 40.7222 294.729 37.1622 294.265 35.6322" stroke="black" stroke-width="0.5"/>
<path d="M290.656 40.2222C286.156 40.2222 284.156 36.2222 283.156 33.7222" stroke="black" stroke-width="0.5"/>
<path d="M132.654 12.3221C119.154 16.3221 107.154 22.2222 93.1543 35.2222C100.154 23.2222 115.654 13.7222 131.154 8.72217L132.654 12.3221Z" fill="#EFC7D3" stroke="black" stroke-width="0.5"/>
<path d="M131.154 8.72217C111.154 14.3962 93.1543 31.7222 85.1543 29.7222C98.1543 20.2222 114.154 11.7222 130.654 7.22217L131.154 8.72217Z" fill="#EFC7D3" stroke="black" stroke-width="0.5"/>
<path d="M10.155 47.7221H4.15496C1.6543 51.722 1.6543 61.722 2.15496 65.222C0.654297 66.222 0.654894 70.722 1.65496 72.222L5.65496 72.722V74.222L1.65496 76.222V78.222C5.65496 79.222 14.155 81.222 22.155 80.722V79.222H39.655C38.9883 70.722 40.655 60.222 49.655 53.222C47.155 49.222 40.155 44.722 37.155 44.2221C27.155 43.222 12.155 45.7221 10.155 47.7221Z" fill="#EFC7D3" stroke="black" stroke-width="0.5"/>
<path d="M93.1562 35.2222C75.3229 36.0555 43.6562 40.9222 33.1562 43.9222L37.1562 44.2222C42.1562 45.7222 47.6562 50.0555 49.6562 53.2222C62.6553 43.7222 88.1553 50.7222 86.6553 78.2222H96.6553C89.6553 67.2222 90.6553 45.2222 93.1562 35.2222Z" fill="#EFC7D3" stroke="black" stroke-width="0.5"/>
<path d="M10.1543 47.7222H4.1543C36.6545 28.2221 58.6545 34.2222 84.6543 29.7222L93.6545 35.2222C76.6545 36.2222 47.6543 39.7222 33.6543 43.9222C25.6543 43.7222 11.6543 45.7222 10.1543 47.7222Z" fill="#EFC7D3" stroke="black" stroke-width="0.5"/>
<path d="M37.1558 44.2222C29.6558 43.2222 12.6558 45.2222 10.1558 47.7222C9.35575 50.1222 12.4891 53.0555 14.1558 54.2222C23.6558 55.7222 37.1558 49.7222 37.1558 44.2222Z" fill="#EFC7D3" stroke="black" stroke-width="0.5"/>
<path d="M4.15499 47.7222C11.155 48.7222 5.15499 59.2222 2.15499 64.2222C1.65492 57.2222 2.15479 51.7222 4.15499 47.7222Z" fill="#EFC7D3" stroke="black" stroke-width="0.5"/>
<path d="M22.1543 83.7222V79.2222H39.6543L40.1543 83.7222H22.1543Z" fill="#EFC7D3" stroke="black" stroke-width="0.5"/>
<path d="M2.65625 65.2222C4.15625 67.7222 6.15625 70.8888 5.65625 72.7222M22.1562 79.2222C11.6562 79.7222 7.15625 75.7222 8.15625 72.2222C8.65625 71.7222 10.1562 70.2222 11.1562 70.2222" stroke="black" stroke-width="0.5"/>
<path d="M32.1562 74.2223C29.6562 70.2223 24.1562 65.2224 21.1562 63.7224C19.4062 63.2224 16.7811 63.3474 14.031 63.7224C12.4061 65.0557 11.1562 68.2223 11.6562 71.2223C11.6562 72.389 12.9637 74.7223 15.6562 74.7223C20.1562 74.7223 27.1562 75.2223 32.1562 74.2223Z" fill="#EFC7D3"/>
<path d="M6.15625 65.2224C8.40619 64.7223 11.2811 64.0974 14.031 63.7224M14.031 63.7224C16.7811 63.3474 19.4062 63.2224 21.1562 63.7224C24.1562 65.2224 29.6562 70.2223 32.1562 74.2223C27.1562 75.2223 20.1562 74.7223 15.6562 74.7223C12.9637 74.7223 11.6562 72.389 11.6562 71.2223C11.1562 68.2223 12.4061 65.0557 14.031 63.7224Z" stroke="black" stroke-width="0.5"/>
<path d="M11.6562 70.7224C19.6562 69.2224 23.1562 71.8509 26.1562 73.3509M13.1562 73.7224L30.6562 73.2224" stroke="black" stroke-width="0.5"/>
<path d="M22.1543 82.2222H31.6543C33.6543 82.2222 35.1543 80.2222 34.6543 79.2222M38.1543 79.2222V83.7222" stroke="black" stroke-width="0.5"/>
<path d="M22.1562 80.7224C17.6562 80.7224 13.1562 81.2224 1.6562 78.2224V76.2224L5.6562 74.2224V72.7224L1.6562 72.2224C1.15527 70.7222 0.155469 67.7222 2.15546 65.2222C1.65571 57.2222 2.15571 50.7222 4.1562 47.7219C36.6562 28.2223 58.6562 34.2224 84.6562 29.7224C162.656 -25.2778 244.656 11.7222 281.656 26.2223L295.156 28.2222L295.656 35.2222V38.2222C297.155 43.2222 298.49 47.7222 297.156 49.7222C299.656 50.7222 302.156 53.8888 302.156 55.7222L300.156 65.7222C300.608 76.5701 298.2 76.7944 288.868 77.1068C287.877 77.14 285.808 77.1742 284.656 77.2222V78.7222L259.656 79.1532M22.1562 80.7224V83.7224H40.1545L39.6562 79.2224M22.1562 80.7224V79.2224H39.6562M39.6562 79.2224C36.6562 37.7224 90.1562 40.7224 86.6562 79.7224V82.2222H213.156C207.156 38.7222 261.656 38.7222 259.656 79.1532M259.155 79.1532H259.656" stroke="black"/>
</svg>
