<svg width="303" height="96" viewBox="0 0 303 96" fill="none" xmlns="http://www.w3.org/2000/svg">
<circle cx="62.4897" cy="74.3687" r="20.5" fill="#E0426F" stroke="black"/>
<circle cx="235.49" cy="74.3687" r="20.5" fill="#E0426F" stroke="black"/>
<path d="M132.488 12.8685L130.988 9.36851C170.988 1.36862 192.488 1.86865 231.488 13.3686L227.988 17.8686C207.988 9.86856 189.988 8.86856 173.988 8.36863C171.488 7.86863 167.488 7.86859 164.988 8.36851C154.988 8.36863 142.988 9.86863 132.488 12.8685Z" fill="#EDADBF" stroke="black" stroke-width="0.5"/>
<path d="M130.988 9.3687L130.488 7.8687C166.488 -3.13135 198.988 0.868526 234.488 9.8687L231.488 13.3687C191.488 0.868652 165.488 2.36865 130.988 9.3687Z" fill="#EDADBF" stroke="black" stroke-width="0.5"/>
<path d="M130.988 9.36876C182.488 -2.13126 210.988 7.86877 231.488 13.3688" stroke="black" stroke-width="0.5"/>
<path d="M170.49 30.3687L173.99 8.36865C207.49 9.36865 218.99 14.8687 223.49 16.3687L225.973 28.3687C198.982 28.3693 181.487 29.8688 170.49 30.3687Z" fill="#EDADBF"/>
<path d="M226.49 30.8687L223.49 16.3687C218.99 14.8687 207.49 9.36865 173.99 8.36865L170.49 30.3687C181.49 29.8687 198.99 28.3687 225.99 28.3687" stroke="black" stroke-width="0.5"/>
<path d="M164.99 8.36865C131.99 9.36865 111.99 18.3687 92.9897 35.8687L95.4897 33.8687L159.49 30.8687L164.99 8.36865Z" fill="#EDADBF" stroke="black" stroke-width="0.5"/>
<path d="M239.488 22.8687C235.822 20.202 229.988 17.8687 223.488 16.3687L225.988 28.3687H232.488C235.488 26.8687 238.488 24.6374 239.488 22.8687Z" fill="#EDADBF" stroke="black" stroke-width="0.5"/>
<path d="M96.4897 78.8687H163.49L197.99 77.3687H212.49L212.99 82.8687H198.99H97.9897H86.4897V78.8687H96.4897Z" fill="#EDADBF"/>
<path d="M96.4897 78.8687H163.49L197.99 77.3687M96.4897 78.8687C96.4897 80.3687 96.9897 81.3687 97.9897 82.8687M96.4897 78.8687H86.4897V82.8687H97.9897M197.99 77.3687L198.99 82.8687M197.99 77.3687H212.49L212.99 82.8687H198.99M198.99 82.8687H97.9897" stroke="black" stroke-width="0.5"/>
<path d="M96.4889 78.8687C91.9897 74.3687 88.9898 52.3687 92.9889 35.8687L164.99 31.8687C160.99 36.8687 159.99 70.8687 163.49 78.8687H96.4889Z" fill="#EDADBF" stroke="black" stroke-width="0.5"/>
<path d="M228.489 30.8687L164.989 31.8687C160.989 36.8687 159.99 70.8687 163.489 78.8687L197.989 77.3687C202.489 75.8687 208.989 70.3687 228.489 30.8687Z" fill="#EDADBF" stroke="black" stroke-width="0.5"/>
<path d="M170.49 30.3687C165.99 30.8687 162.49 30.8687 159.49 30.8687L164.99 8.36873C167.99 7.86865 170.99 7.86865 173.99 8.36873L170.49 30.3687Z" fill="#EDADBF" stroke="black" stroke-width="0.5"/>
<path d="M98.9897 32.3689C103.49 37.8689 110.49 34.3689 114.49 32.8689C115.49 17.3688 102.49 25.3688 98.9897 32.3689Z" fill="#EDADBF" stroke="black" stroke-width="0.5"/>
<path d="M234.488 9.86865L231.488 13.3687C248.488 18.8687 258.988 21.8687 271.488 28.3687H272.988L280.988 26.8687C265.988 20.3687 258.488 17.8687 234.488 9.86865Z" stroke="black" stroke-width="0.5"/>
<path d="M271.488 28.3687C260.988 22.8687 241.988 16.3687 231.488 13.3687L229.488 15.8687L244.488 23.3687C242.988 25.8687 238.988 27.8687 232.988 30.5687C244.988 29.8687 261.988 28.8687 271.488 28.3687Z" stroke="black" stroke-width="0.5"/>
<path d="M276.99 34.6687L282.988 32.3687L272.489 28.3687L228.489 30.8687C220.989 45.8687 205.989 76.3687 197.989 77.3687H212.489C210.989 66.3687 220.489 42.8687 245.49 51.8687C255.99 46.3687 265.99 40.8687 276.99 34.6687Z" stroke="black" stroke-width="0.5"/>
<path d="M277.988 34.3687C265.988 40.8687 255.988 46.3687 245.488 51.8687C249.988 54.8687 260.488 60.8687 259.488 79.8687L284.488 79.3687V77.8687C292.988 76.8687 301.488 80.3687 299.988 66.3687L301.988 56.3687C301.988 54.8687 299.488 50.8687 296.988 50.3687C298.488 47.8687 295.488 38.8687 295.488 38.8687V37.3687L291.488 34.3687L286.488 32.8687L282.988 32.3687L277.988 34.3687Z" stroke="black" stroke-width="0.5"/>
<path d="M295.488 37.3687L295.482 37.2888M295.482 37.2888L294.988 28.8687L280.988 26.8687L272.488 28.3687L282.988 32.3687C292.488 33.3687 291.487 34.8687 295.482 37.2888Z" stroke="black" stroke-width="0.5"/>
<path d="M293.99 36.8689C293.49 34.3687 282.49 34.1687 276.99 34.6687" stroke="black" stroke-width="0.5"/>
<path d="M299.99 66.8687L260.49 68.8687C259.99 63.8687 257.823 59.702 255.99 57.8687L301.99 55.3687M300.49 52.8687C289.49 51.3687 278.49 46.5687 266.49 40.5687M228.49 30.8687L272.49 28.3687L280.99 26.8687" stroke="black" stroke-width="0.5"/>
<path d="M272.49 43.3687C279.485 43.7184 285.502 43.8235 290.883 44.3687M297.49 45.3687C295.387 44.918 293.194 44.6028 290.883 44.3687M295.49 37.8687C295.072 37.2835 294.603 36.7543 294.099 36.2786M290.883 44.3687C290.557 44.0239 290.463 43.5008 290.448 42.8687M290.448 42.8687C290.434 42.2784 290.49 41.5929 290.49 40.8687C290.49 38.8687 289.49 34.8687 285.99 32.8687C288.211 32.8687 291.587 33.909 294.099 36.2786M290.448 42.8687C293.49 41.3687 294.562 37.8086 294.099 36.2786" stroke="black" stroke-width="0.5"/>
<path d="M290.49 40.8687C285.99 40.8687 283.99 36.8687 282.99 34.3687" stroke="black" stroke-width="0.5"/>
<path d="M132.488 12.9686C118.988 16.9686 106.988 22.8687 92.9883 35.8687C99.9883 23.8687 115.488 14.3687 130.988 9.36865L132.488 12.9686Z" fill="#E56E90" stroke="black" stroke-width="0.5"/>
<path d="M130.988 9.36865C110.988 15.0427 92.9883 32.3687 84.9883 30.3687C97.9883 20.8687 113.988 12.3687 130.488 7.86865L130.988 9.36865Z" fill="#E56E90" stroke="black" stroke-width="0.5"/>
<path d="M9.98895 48.3685H3.98895C1.48828 52.3685 1.48828 62.3685 1.98895 65.8685C0.488281 66.8685 0.488879 71.3685 1.48895 72.8685L5.48895 73.3685V74.8685L1.48895 76.8685V78.8685C5.48895 79.8685 13.9889 81.8685 21.9889 81.3685V79.8685H39.4889C38.8223 71.3685 40.4889 60.8685 49.4889 53.8685C46.9889 49.8685 39.9889 45.3685 36.9889 44.8685C26.9889 43.8685 11.9889 46.3685 9.98895 48.3685Z" fill="#E56E90" stroke="black" stroke-width="0.5"/>
<path d="M92.9897 35.8687C75.1564 36.702 43.4897 41.5687 32.9897 44.5687L36.9897 44.8687C41.9897 46.3687 47.4897 50.702 49.4897 53.8687C62.4888 44.3687 87.9888 51.3687 86.4888 78.8687H96.4888C89.4888 67.8687 90.4888 45.8687 92.9897 35.8687Z" fill="#E56E90" stroke="black" stroke-width="0.5"/>
<path d="M9.98828 48.3687H3.98828C36.4885 28.8686 58.4885 34.8687 84.4883 30.3687L93.4885 35.8687C76.4885 36.8687 47.4883 40.3686 33.4883 44.5687C25.4883 44.3686 11.4883 46.3686 9.98828 48.3687Z" fill="#E56E90" stroke="black" stroke-width="0.5"/>
<path d="M36.9897 44.8687C29.4897 43.8687 12.4897 45.8687 9.98974 48.3687C9.18974 50.7687 12.3231 53.702 13.9897 54.8687C23.4897 56.3687 36.9897 50.3687 36.9897 44.8687Z" fill="#E56E90" stroke="black" stroke-width="0.5"/>
<path d="M3.98898 48.3687C10.989 49.3687 4.98898 59.8687 1.98898 64.8687C1.48891 57.8687 1.98877 52.3687 3.98898 48.3687Z" fill="#E56E90" stroke="black" stroke-width="0.5"/>
<path d="M21.9883 84.3687V79.8687H39.4883L39.9883 84.3687H21.9883Z" fill="#E56E90" stroke="black" stroke-width="0.5"/>
<path d="M2.49023 65.8687C3.99023 68.3687 5.99023 71.5353 5.49023 73.3687M21.9902 79.8687C11.4902 80.3687 6.99023 76.3687 7.99023 72.8687C8.49023 72.3687 9.99023 70.8687 10.9902 70.8687" stroke="black" stroke-width="0.5"/>
<path d="M31.9902 74.8688C29.4902 70.8688 23.9902 65.8689 20.9902 64.3689C19.2402 63.8688 16.6151 63.9938 13.865 64.3689C12.2401 65.7022 10.9902 68.8688 11.4902 71.8688C11.4902 73.0354 12.7977 75.3688 15.4902 75.3688C19.9902 75.3688 26.9902 75.8688 31.9902 74.8688Z" fill="#E56E90"/>
<path d="M5.99023 65.8689C8.24018 65.3688 11.1151 64.7438 13.865 64.3689M13.865 64.3689C16.6151 63.9938 19.2402 63.8688 20.9902 64.3689C23.9902 65.8689 29.4902 70.8688 31.9902 74.8688C26.9902 75.8688 19.9902 75.3688 15.4902 75.3688C12.7977 75.3688 11.4902 73.0354 11.4902 71.8688C10.9902 68.8688 12.2401 65.7022 13.865 64.3689Z" stroke="black" stroke-width="0.5"/>
<path d="M11.4902 71.3688C19.4902 69.8689 22.9902 72.4974 25.9902 73.9974M12.9902 74.3689L30.4902 73.8689" stroke="black" stroke-width="0.5"/>
<path d="M21.9883 82.8687H31.4883C33.4883 82.8687 34.9883 80.8687 34.4883 79.8687M37.9883 79.8687V84.3687" stroke="black" stroke-width="0.5"/>
<path d="M21.9897 81.3689C17.4897 81.3689 12.9897 81.8689 1.48969 78.8689V76.8689L5.48969 74.8689V73.3689L1.48969 72.8689C0.98877 71.3687 -0.0110346 68.3687 1.98896 65.8687C1.4892 57.8687 1.9892 51.3687 3.98969 48.3684C36.4897 28.8688 58.4897 34.8688 84.4897 30.3688C162.49 -24.6313 244.49 12.3686 281.49 26.8688L294.99 28.8687L295.49 35.8687V38.8687C296.988 43.8687 298.323 48.3687 296.99 50.3687C299.49 51.3687 301.99 54.5353 301.99 56.3687L299.99 66.3687C300.442 77.2166 298.034 77.4408 288.702 77.7533C287.711 77.7865 285.642 77.8206 284.49 77.8687V79.3687L259.49 79.7997M21.9897 81.3689V84.3689H39.988L39.4897 79.8689M21.9897 81.3689V79.8689H39.4897M39.4897 79.8689C36.4897 38.3689 89.9897 41.3689 86.4897 80.3689V82.8687H212.99C206.99 39.3687 261.49 39.3687 259.49 79.7997M258.988 79.7997H259.49" stroke="black"/>
</svg>
