<svg width="303" height="96" viewBox="0 0 303 96" fill="none" xmlns="http://www.w3.org/2000/svg">
<circle cx="62.8652" cy="74.2297" r="20.5" fill="#EFC7D3" stroke="black"/>
<circle cx="235.865" cy="74.2297" r="20.5" fill="#EFC7D3" stroke="black"/>
<path d="M132.863 12.7296L131.363 9.22959C171.363 1.2297 192.863 1.72974 231.863 13.2297L228.363 17.7297C208.363 9.72965 190.363 8.72964 174.363 8.22971C171.863 7.72971 167.863 7.72968 165.363 8.22959C155.363 8.22971 143.363 9.72971 132.863 12.7296Z" fill="#E0426F" stroke="black" stroke-width="0.5"/>
<path d="M131.363 9.22978L130.863 7.72978C166.863 -3.27026 199.363 0.72961 234.863 9.72978L231.863 13.2298C191.863 0.729736 165.863 2.22974 131.363 9.22978Z" fill="#E0426F" stroke="black" stroke-width="0.5"/>
<path d="M131.363 9.2296C182.863 -2.27042 211.363 7.72961 231.863 13.2296" stroke="black" stroke-width="0.5"/>
<path d="M170.865 30.2297L174.365 8.22974C207.865 9.22974 219.365 14.7297 223.865 16.2297L226.348 28.2297C199.358 28.2304 181.863 29.7298 170.865 30.2297Z" fill="#E0426F"/>
<path d="M226.865 30.7297L223.865 16.2297C219.365 14.7297 207.865 9.22974 174.365 8.22974L170.865 30.2297C181.865 29.7297 199.365 28.2297 226.365 28.2297" stroke="black" stroke-width="0.5"/>
<path d="M165.365 8.22974C132.365 9.22974 112.365 18.2297 93.3652 35.7297L95.8652 33.7297L159.865 30.7297L165.365 8.22974Z" fill="#E0426F" stroke="black" stroke-width="0.5"/>
<path d="M239.863 22.7297C236.197 20.0631 230.363 17.7297 223.863 16.2297L226.363 28.2297H232.863C235.863 26.7297 238.863 24.4985 239.863 22.7297Z" fill="#E0426F" stroke="black" stroke-width="0.5"/>
<path d="M96.8652 78.7297H163.865L198.365 77.2297H212.865L213.365 82.7297H199.365H98.3652H86.8652V78.7297H96.8652Z" fill="#E0426F"/>
<path d="M96.8652 78.7297H163.865L198.365 77.2297M96.8652 78.7297C96.8652 80.2297 97.3652 81.2297 98.3652 82.7297M96.8652 78.7297H86.8652V82.7297H98.3652M198.365 77.2297L199.365 82.7297M198.365 77.2297H212.865L213.365 82.7297H199.365M199.365 82.7297H98.3652" stroke="black" stroke-width="0.5"/>
<path d="M96.8644 78.7297C92.3652 74.2297 89.3653 52.2297 93.3644 35.7297L165.365 31.7297C161.365 36.7297 160.365 70.7297 163.865 78.7297H96.8644Z" fill="#E0426F" stroke="black" stroke-width="0.5"/>
<path d="M228.865 30.7297L165.365 31.7297C161.365 36.7297 160.365 70.7297 163.865 78.7297L198.365 77.2297C202.865 75.7297 209.365 70.2297 228.865 30.7297Z" fill="#E0426F" stroke="black" stroke-width="0.5"/>
<path d="M170.865 30.2298C166.365 30.7298 162.865 30.7298 159.865 30.7298L165.365 8.22981C168.365 7.72974 171.365 7.72974 174.365 8.22981L170.865 30.2298Z" fill="#E0426F" stroke="black" stroke-width="0.5"/>
<path d="M99.3652 32.2297C103.865 37.7297 110.865 34.2297 114.865 32.7297C115.865 17.2296 102.865 25.2296 99.3652 32.2297Z" fill="#E0426F" stroke="black" stroke-width="0.5"/>
<path d="M234.863 9.72974L231.863 13.2297C248.863 18.7297 259.363 21.7297 271.863 28.2297H273.363L281.363 26.7297C266.363 20.2297 258.863 17.7297 234.863 9.72974Z" fill="#E56E90" stroke="black" stroke-width="0.5"/>
<path d="M271.863 28.2297C261.363 22.7297 242.363 16.2297 231.863 13.2297L229.863 15.7297L244.863 23.2297C243.363 25.7297 239.363 27.7297 233.363 30.4297C245.363 29.7297 262.363 28.7297 271.863 28.2297Z" fill="#E56E90" stroke="black" stroke-width="0.5"/>
<path d="M277.365 34.5297L283.364 32.2297L272.864 28.2297L228.864 30.7297C221.364 45.7297 206.364 76.2297 198.364 77.2297H212.864C211.364 66.2297 220.864 42.7297 245.865 51.7297C256.365 46.2297 266.365 40.7297 277.365 34.5297Z" fill="#E56E90" stroke="black" stroke-width="0.5"/>
<path d="M278.363 34.2298C266.363 40.7298 256.363 46.2298 245.863 51.7298C250.363 54.7297 260.863 60.7297 259.863 79.7297L284.863 79.2297V77.7297C293.363 76.7297 301.863 80.2297 300.363 66.2297L302.363 56.2297C302.363 54.7297 299.863 50.7297 297.363 50.2297C298.863 47.7297 295.863 38.7297 295.863 38.7297V37.2297L291.863 34.2297L286.863 32.7297L283.363 32.2297L278.363 34.2298Z" fill="#E56E90" stroke="black" stroke-width="0.5"/>
<path d="M281.363 26.7297L272.863 28.2297L283.363 32.2297C292.863 33.2297 291.862 34.7297 295.857 37.1499L295.363 28.7297L281.363 26.7297Z" fill="#E56E90"/>
<path d="M295.863 37.2297L295.857 37.1499M295.857 37.1499L295.363 28.7297L281.363 26.7297L272.863 28.2297L283.363 32.2297C292.863 33.2297 291.862 34.7297 295.857 37.1499Z" stroke="black" stroke-width="0.5"/>
<path d="M294.365 36.7299C293.865 34.2298 282.865 34.0297 277.365 34.5297" stroke="black" stroke-width="0.5"/>
<path d="M300.365 66.7297L260.865 68.7297C260.365 63.7297 258.199 59.5631 256.365 57.7297L302.365 55.2297M300.865 52.7297C289.865 51.2297 278.865 46.4297 266.865 40.4297M228.865 30.7297L272.865 28.2297L281.365 26.7297" stroke="black" stroke-width="0.5"/>
<path d="M290.865 40.7297C290.865 38.7297 289.865 34.7297 286.365 32.7297C288.586 32.7297 291.963 33.7701 294.474 36.1397C294.938 37.6697 293.865 41.2297 290.823 42.7297C290.81 42.1395 290.865 41.454 290.865 40.7297Z" fill="#E56E90"/>
<path d="M272.865 43.2297C279.861 43.5795 285.878 43.6846 291.258 44.2297M297.865 45.2297C295.762 44.7791 293.569 44.4638 291.258 44.2297M295.865 37.7297C295.447 37.1446 294.978 36.6154 294.474 36.1397M291.258 44.2297C290.932 43.885 290.838 43.3619 290.823 42.7297M290.823 42.7297C290.81 42.1395 290.865 41.454 290.865 40.7297C290.865 38.7297 289.865 34.7297 286.365 32.7297C288.586 32.7297 291.963 33.7701 294.474 36.1397M290.823 42.7297C293.865 41.2297 294.938 37.6697 294.474 36.1397" stroke="black" stroke-width="0.5"/>
<path d="M290.865 40.7297C286.365 40.7297 284.365 36.7297 283.365 34.2297" stroke="black" stroke-width="0.5"/>
<path d="M132.863 12.8297C119.363 16.8297 107.363 22.7297 93.3633 35.7297C100.363 23.7297 115.863 14.2297 131.363 9.22974L132.863 12.8297Z" fill="#E0426F" stroke="black" stroke-width="0.5"/>
<path d="M131.363 9.22974C111.363 14.9038 93.3633 32.2297 85.3633 30.2297C98.3633 20.7297 114.363 12.2297 130.863 7.72974L131.363 9.22974Z" fill="#E0426F" stroke="black" stroke-width="0.5"/>
<path d="M10.3639 48.2296H4.36395C1.86328 52.2296 1.86328 62.2296 2.36395 65.7296C0.863281 66.7296 0.863879 71.2296 1.86395 72.7296L5.86395 73.2296V74.7296L1.86395 76.7296V78.7296C5.86395 79.7296 14.3639 81.7296 22.3639 81.2296V79.7296H39.8639C39.1973 71.2296 40.8639 60.7296 49.8639 53.7296C47.3639 49.7296 40.3639 45.2296 37.3639 44.7296C27.3639 43.7296 12.3639 46.2296 10.3639 48.2296Z" fill="#E0426F" stroke="black" stroke-width="0.5"/>
<path d="M93.3652 35.7297C75.5319 36.5631 43.8652 41.4297 33.3652 44.4297L37.3652 44.7297C42.3652 46.2297 47.8652 50.5631 49.8652 53.7297C62.8643 44.2297 88.3643 51.2297 86.8643 78.7297H96.8643C89.8643 67.7297 90.8643 45.7297 93.3652 35.7297Z" fill="#E0426F" stroke="black" stroke-width="0.5"/>
<path d="M10.3633 48.2298H4.36328C36.8635 28.7297 58.8635 34.7297 84.8633 30.2297L93.8635 35.7297C76.8635 36.7297 47.8633 40.2297 33.8633 44.4297C25.8633 44.2297 11.8633 46.2297 10.3633 48.2298Z" fill="#E0426F" stroke="black" stroke-width="0.5"/>
<path d="M37.3647 44.7298C29.8647 43.7297 12.8647 45.7297 10.3647 48.2298C9.56474 50.6298 12.6981 53.5631 14.3647 54.7297C23.8647 56.2297 37.3647 50.2297 37.3647 44.7298Z" fill="#E0426F" stroke="black" stroke-width="0.5"/>
<path d="M4.36398 48.2297C11.364 49.2297 5.36398 59.7297 2.36398 64.7297C1.86391 57.7297 2.36377 52.2297 4.36398 48.2297Z" fill="#E0426F" stroke="black" stroke-width="0.5"/>
<path d="M22.3633 84.2297V79.7297H39.8633L40.3633 84.2297H22.3633Z" fill="#E0426F" stroke="black" stroke-width="0.5"/>
<path d="M2.86523 65.7295C4.36523 68.2295 6.36523 71.3962 5.86523 73.2295M22.3652 79.7295C11.8652 80.2295 7.36523 76.2295 8.36523 72.7295C8.86523 72.2295 10.3652 70.7295 11.3652 70.7295" stroke="black" stroke-width="0.5"/>
<path d="M32.3652 74.7296C29.8652 70.7296 24.3652 65.7297 21.3652 64.2297C19.6152 63.7297 16.9901 63.8547 14.24 64.2297C12.6151 65.563 11.3652 68.7296 11.8652 71.7296C11.8652 72.8963 13.1727 75.2296 15.8652 75.2296C20.3652 75.2296 27.3652 75.7296 32.3652 74.7296Z" fill="#E0426F"/>
<path d="M6.36523 65.7297C8.61518 65.2297 11.4901 64.6047 14.24 64.2297M14.24 64.2297C16.9901 63.8547 19.6152 63.7297 21.3652 64.2297C24.3652 65.7297 29.8652 70.7296 32.3652 74.7296C27.3652 75.7296 20.3652 75.2296 15.8652 75.2296C13.1727 75.2296 11.8652 72.8963 11.8652 71.7296C11.3652 68.7296 12.6151 65.563 14.24 64.2297Z" stroke="black" stroke-width="0.5"/>
<path d="M11.8652 71.2297C19.8652 69.7297 23.3652 72.3582 26.3652 73.8582M13.3652 74.2297L30.8652 73.7297" stroke="black" stroke-width="0.5"/>
<path d="M22.3633 82.7295H31.8633C33.8633 82.7295 35.3633 80.7295 34.8633 79.7295M38.3633 79.7295V84.2295" stroke="black" stroke-width="0.5"/>
<path d="M22.3652 81.23C17.8652 81.23 13.3652 81.73 1.86518 78.73V76.73L5.86518 74.73V73.23L1.86518 72.73C1.36426 71.2297 0.364454 68.2297 2.36445 65.7297C1.86469 57.7297 2.36469 51.2297 4.36518 48.2295C36.8652 28.7299 58.8652 34.7299 84.8652 30.2299C162.865 -24.7702 244.865 12.2297 281.865 26.7299L295.365 28.7297L295.865 35.7297V38.7297C297.364 43.7297 298.699 48.2297 297.365 50.2297C299.865 51.2297 302.365 54.3964 302.365 56.2297L300.365 66.2297C300.817 77.0776 298.409 77.3019 289.077 77.6144C288.086 77.6476 286.017 77.6817 284.865 77.7297V79.2297L259.865 79.6608M22.3652 81.23V84.23H40.3635L39.8652 79.73M22.3652 81.23V79.73H39.8652M39.8652 79.73C36.8652 38.23 90.3652 41.23 86.8652 80.23V82.7297H213.365C207.365 39.2297 261.865 39.2297 259.865 79.6608M259.364 79.6608H259.865" stroke="black"/>
</svg>
