<svg width="303" height="96" viewBox="0 0 303 96" fill="none" xmlns="http://www.w3.org/2000/svg">
<circle cx="62.8652" cy="74.5378" r="20.5" fill="#EFC7D3" stroke="black"/>
<circle cx="235.865" cy="74.5378" r="20.5" fill="#EFC7D3" stroke="black"/>
<path d="M132.863 13.0377L131.363 9.5377C171.363 1.53781 192.863 2.03784 231.863 13.5378L228.363 18.0378C208.363 10.0378 190.363 9.03775 174.363 8.53782C171.863 8.03782 167.863 8.03778 165.363 8.5377C155.363 8.53782 143.363 10.0378 132.863 13.0377Z" fill="#EDADBF" stroke="black" stroke-width="0.5"/>
<path d="M131.363 9.53789L130.863 8.03789C166.863 -2.96216 199.363 1.03772 234.863 10.0379L231.863 13.5379C191.863 1.03784 165.863 2.53784 131.363 9.53789Z" fill="#EDADBF" stroke="black" stroke-width="0.5"/>
<path d="M131.363 9.53771C182.863 -1.96232 211.363 8.03772 231.863 13.5377" stroke="black" stroke-width="0.5"/>
<path d="M170.865 30.5378L174.365 8.53784C207.865 9.53784 219.365 15.0378 223.865 16.5378L226.348 28.5378C199.358 28.5385 181.863 30.0379 170.865 30.5378Z" fill="#EDADBF"/>
<path d="M226.865 31.0378L223.865 16.5378C219.365 15.0378 207.865 9.53784 174.365 8.53784L170.865 30.5378C181.865 30.0378 199.365 28.5378 226.365 28.5378" stroke="black" stroke-width="0.5"/>
<path d="M165.365 8.53784C132.365 9.53784 112.365 18.5378 93.3652 36.0378L95.8652 34.0378L159.865 31.0378L165.365 8.53784Z" fill="#EDADBF" stroke="black" stroke-width="0.5"/>
<path d="M239.863 23.0378C236.197 20.3712 230.363 18.0378 223.863 16.5378L226.363 28.5378H232.863C235.863 27.0378 238.863 24.8066 239.863 23.0378Z" fill="#EDADBF" stroke="black" stroke-width="0.5"/>
<path d="M96.8652 79.0378H163.865L198.365 77.5378H212.865L213.365 83.0378H199.365H98.3652H86.8652V79.0378H96.8652Z" fill="#EDADBF"/>
<path d="M96.8652 79.0378H163.865L198.365 77.5378M96.8652 79.0378C96.8652 80.5378 97.3652 81.5378 98.3652 83.0378M96.8652 79.0378H86.8652V83.0378H98.3652M198.365 77.5378L199.365 83.0378M198.365 77.5378H212.865L213.365 83.0378H199.365M199.365 83.0378H98.3652" stroke="black" stroke-width="0.5"/>
<path d="M96.8644 79.0378C92.3652 74.5378 89.3653 52.5378 93.3644 36.0378L165.365 32.0378C161.365 37.0378 160.365 71.0378 163.865 79.0378H96.8644Z" fill="#EDADBF" stroke="black" stroke-width="0.5"/>
<path d="M228.865 31.0378L165.365 32.0378C161.365 37.0378 160.365 71.0378 163.865 79.0378L198.365 77.5378C202.865 76.0378 209.365 70.5378 228.865 31.0378Z" fill="#EDADBF" stroke="black" stroke-width="0.5"/>
<path d="M170.865 30.5379C166.365 31.0379 162.865 31.0379 159.865 31.0379L165.365 8.53792C168.365 8.03784 171.365 8.03784 174.365 8.53792L170.865 30.5379Z" fill="#EDADBF" stroke="black" stroke-width="0.5"/>
<path d="M99.3652 32.5379C103.865 38.0379 110.865 34.5379 114.865 33.0379C115.865 17.5377 102.865 25.5377 99.3652 32.5379Z" fill="#EDADBF" stroke="black" stroke-width="0.5"/>
<path d="M234.863 10.0378L231.863 13.5378C248.863 19.0378 259.363 22.0378 271.863 28.5378H273.363L281.363 27.0378C266.363 20.5378 258.863 18.0378 234.863 10.0378Z" fill="#E56E90" stroke="black" stroke-width="0.5"/>
<path d="M271.863 28.5378C261.363 23.0378 242.363 16.5378 231.863 13.5378L229.863 16.0378L244.863 23.5378C243.363 26.0378 239.363 28.0378 233.363 30.7378C245.363 30.0378 262.363 29.0378 271.863 28.5378Z" fill="#E56E90" stroke="black" stroke-width="0.5"/>
<path d="M277.365 34.8378L283.364 32.5378L272.864 28.5378L228.864 31.0378C221.364 46.0378 206.364 76.5378 198.364 77.5378H212.864C211.364 66.5378 220.864 43.0378 245.865 52.0378C256.365 46.5378 266.365 41.0378 277.365 34.8378Z" fill="#E56E90" stroke="black" stroke-width="0.5"/>
<path d="M278.363 34.5379C266.363 41.0379 256.363 46.5379 245.863 52.0379C250.363 55.0378 260.863 61.0378 259.863 80.0378L284.863 79.5378V78.0378C293.363 77.0378 301.863 80.5378 300.363 66.5378L302.363 56.5378C302.363 55.0378 299.863 51.0378 297.363 50.5378C298.863 48.0378 295.863 39.0378 295.863 39.0378V37.5378L291.863 34.5378L286.863 33.0378L283.363 32.5378L278.363 34.5379Z" fill="#E56E90" stroke="black" stroke-width="0.5"/>
<path d="M281.363 27.0378L272.863 28.5378L283.363 32.5378C292.863 33.5378 291.862 35.0378 295.857 37.458L295.363 29.0378L281.363 27.0378Z" fill="#E56E90"/>
<path d="M295.863 37.5378L295.857 37.458M295.857 37.458L295.363 29.0378L281.363 27.0378L272.863 28.5378L283.363 32.5378C292.863 33.5378 291.862 35.0378 295.857 37.458Z" stroke="black" stroke-width="0.5"/>
<path d="M294.365 37.038C293.865 34.5379 282.865 34.3379 277.365 34.8379" stroke="black" stroke-width="0.5"/>
<path d="M300.365 67.0378L260.865 69.0378C260.365 64.0378 258.199 59.8712 256.365 58.0378L302.365 55.5378M300.865 53.0378C289.865 51.5378 278.865 46.7378 266.865 40.7378M228.865 31.0378L272.865 28.5378L281.365 27.0378" stroke="black" stroke-width="0.5"/>
<path d="M290.865 41.0378C290.865 39.0378 289.865 35.0378 286.365 33.0378C288.586 33.0378 291.963 34.0782 294.474 36.4478C294.938 37.9778 293.865 41.5378 290.823 43.0378C290.81 42.4476 290.865 41.7621 290.865 41.0378Z" fill="#E56E90"/>
<path d="M272.865 43.5378C279.861 43.8876 285.878 43.9927 291.258 44.5378M297.865 45.5378C295.762 45.0872 293.569 44.7719 291.258 44.5378M295.865 38.0378C295.447 37.4527 294.978 36.9235 294.474 36.4478M291.258 44.5378C290.932 44.1931 290.838 43.67 290.823 43.0378M290.823 43.0378C290.81 42.4476 290.865 41.7621 290.865 41.0378C290.865 39.0378 289.865 35.0378 286.365 33.0378C288.586 33.0378 291.963 34.0782 294.474 36.4478M290.823 43.0378C293.865 41.5378 294.938 37.9778 294.474 36.4478" stroke="black" stroke-width="0.5"/>
<path d="M290.865 41.0378C286.365 41.0378 284.365 37.0378 283.365 34.5378" stroke="black" stroke-width="0.5"/>
<path d="M132.863 13.1378C119.363 17.1378 107.363 23.0378 93.3633 36.0378C100.363 24.0378 115.863 14.5378 131.363 9.53784L132.863 13.1378Z" fill="#E0426F" stroke="black" stroke-width="0.5"/>
<path d="M131.363 9.53784C111.363 15.2119 93.3633 32.5378 85.3633 30.5378C98.3633 21.0378 114.363 12.5378 130.863 8.03784L131.363 9.53784Z" fill="#E0426F" stroke="black" stroke-width="0.5"/>
<path d="M10.3639 48.5377H4.36395C1.86328 52.5377 1.86328 62.5377 2.36395 66.0377C0.863281 67.0377 0.863879 71.5377 1.86395 73.0377L5.86395 73.5377V75.0377L1.86395 77.0377V79.0377C5.86395 80.0377 14.3639 82.0377 22.3639 81.5377V80.0377H39.8639C39.1973 71.5377 40.8639 61.0377 49.8639 54.0377C47.3639 50.0377 40.3639 45.5377 37.3639 45.0377C27.3639 44.0377 12.3639 46.5377 10.3639 48.5377Z" fill="#E0426F" stroke="black" stroke-width="0.5"/>
<path d="M93.3652 36.0378C75.5319 36.8712 43.8652 41.7378 33.3652 44.7378L37.3652 45.0378C42.3652 46.5378 47.8652 50.8712 49.8652 54.0378C62.8643 44.5378 88.3643 51.5378 86.8643 79.0378H96.8643C89.8643 68.0378 90.8643 46.0378 93.3652 36.0378Z" fill="#E0426F" stroke="black" stroke-width="0.5"/>
<path d="M10.3633 48.5379H4.36328C36.8635 29.0378 58.8635 35.0378 84.8633 30.5378L93.8635 36.0378C76.8635 37.0378 47.8633 40.5378 33.8633 44.7378C25.8633 44.5378 11.8633 46.5378 10.3633 48.5379Z" fill="#E0426F" stroke="black" stroke-width="0.5"/>
<path d="M37.3647 45.0379C29.8647 44.0378 12.8647 46.0378 10.3647 48.5379C9.56474 50.9379 12.6981 53.8712 14.3647 55.0378C23.8647 56.5378 37.3647 50.5378 37.3647 45.0379Z" fill="#E0426F" stroke="black" stroke-width="0.5"/>
<path d="M4.36398 48.5378C11.364 49.5378 5.36398 60.0378 2.36398 65.0378C1.86391 58.0378 2.36377 52.5378 4.36398 48.5378Z" fill="#E0426F" stroke="black" stroke-width="0.5"/>
<path d="M22.3633 84.5378V80.0378H39.8633L40.3633 84.5378H22.3633Z" fill="#E0426F" stroke="black" stroke-width="0.5"/>
<path d="M2.86523 66.0376C4.36523 68.5376 6.36523 71.7043 5.86523 73.5376M22.3652 80.0376C11.8652 80.5376 7.36523 76.5376 8.36523 73.0376C8.86523 72.5376 10.3652 71.0376 11.3652 71.0376" stroke="black" stroke-width="0.5"/>
<path d="M32.3652 75.0377C29.8652 71.0377 24.3652 66.0378 21.3652 64.5378C19.6152 64.0378 16.9901 64.1628 14.24 64.5378C12.6151 65.8711 11.3652 69.0377 11.8652 72.0377C11.8652 73.2044 13.1727 75.5377 15.8652 75.5377C20.3652 75.5377 27.3652 76.0377 32.3652 75.0377Z" fill="#E0426F"/>
<path d="M6.36523 66.0378C8.61518 65.5378 11.4901 64.9128 14.24 64.5378M14.24 64.5378C16.9901 64.1628 19.6152 64.0378 21.3652 64.5378C24.3652 66.0378 29.8652 71.0377 32.3652 75.0377C27.3652 76.0377 20.3652 75.5377 15.8652 75.5377C13.1727 75.5377 11.8652 73.2044 11.8652 72.0377C11.3652 69.0377 12.6151 65.8711 14.24 64.5378Z" stroke="black" stroke-width="0.5"/>
<path d="M11.8652 71.5378C19.8652 70.0378 23.3652 72.6663 26.3652 74.1663M13.3652 74.5378L30.8652 74.0378" stroke="black" stroke-width="0.5"/>
<path d="M22.3633 83.0376H31.8633C33.8633 83.0376 35.3633 81.0376 34.8633 80.0376M38.3633 80.0376V84.5376" stroke="black" stroke-width="0.5"/>
<path d="M22.3652 81.5381C17.8652 81.5381 13.3652 82.0381 1.86518 79.0381V77.0381L5.86518 75.0381V73.5381L1.86518 73.0381C1.36426 71.5378 0.364454 68.5378 2.36445 66.0378C1.86469 58.0378 2.36469 51.5378 4.36518 48.5376C36.8652 29.038 58.8652 35.038 84.8652 30.538C162.865 -24.4621 244.865 12.5378 281.865 27.038L295.365 29.0378L295.865 36.0378V39.0378C297.364 44.0378 298.699 48.5378 297.365 50.5378C299.865 51.5378 302.365 54.7045 302.365 56.5378L300.365 66.5378C300.817 77.3858 298.409 77.61 289.077 77.9225C288.086 77.9557 286.017 77.9898 284.865 78.0378V79.5378L259.865 79.9689M22.3652 81.5381V84.5381H40.3635L39.8652 80.0381M22.3652 81.5381V80.0381H39.8652M39.8652 80.0381C36.8652 38.5381 90.3652 41.5381 86.8652 80.5381V83.0378H213.365C207.365 39.5378 261.865 39.5378 259.865 79.9689M259.364 79.9689H259.865" stroke="black"/>
</svg>
