<svg width="303" height="96" viewBox="0 0 303 96" fill="none" xmlns="http://www.w3.org/2000/svg">
<circle cx="62.6772" cy="74.3687" r="20.5" stroke="black"/>
<circle cx="235.678" cy="74.3687" r="20.5" stroke="black"/>
<path d="M132.676 12.8685L131.176 9.36851C171.176 1.36862 192.676 1.86865 231.676 13.3686L228.176 17.8686C208.176 9.86856 190.176 8.86856 174.176 8.36863C171.676 7.86863 167.676 7.86859 165.176 8.36851C155.176 8.36863 143.176 9.86863 132.676 12.8685Z" fill="#EDADBF" stroke="black" stroke-width="0.5"/>
<path d="M131.176 9.3687L130.676 7.8687C166.676 -3.13135 199.176 0.868526 234.676 9.8687L231.676 13.3687C191.676 0.868652 165.676 2.36865 131.176 9.3687Z" fill="#EDADBF" stroke="black" stroke-width="0.5"/>
<path d="M131.176 9.36876C182.676 -2.13126 211.176 7.86877 231.676 13.3688" stroke="black" stroke-width="0.5"/>
<path d="M170.677 30.3687L174.177 8.36865C207.677 9.36865 219.177 14.8687 223.677 16.3687L226.16 28.3687C199.17 28.3693 181.675 29.8688 170.677 30.3687Z" fill="#EDADBF"/>
<path d="M226.677 30.8687L223.677 16.3687C219.177 14.8687 207.677 9.36865 174.177 8.36865L170.677 30.3687C181.677 29.8687 199.177 28.3687 226.177 28.3687" stroke="black" stroke-width="0.5"/>
<path d="M165.177 8.36865C132.177 9.36865 112.177 18.3687 93.1772 35.8687L95.6772 33.8687L159.677 30.8687L165.177 8.36865Z" fill="#EDADBF" stroke="black" stroke-width="0.5"/>
<path d="M239.676 22.8687C236.009 20.202 230.176 17.8687 223.676 16.3687L226.176 28.3687H232.676C235.676 26.8687 238.676 24.6374 239.676 22.8687Z" fill="#EDADBF" stroke="black" stroke-width="0.5"/>
<path d="M96.6772 78.8687H163.677L198.177 77.3687H212.677L213.177 82.8687H199.177H98.1772H86.6772V78.8687H96.6772Z" fill="#EDADBF"/>
<path d="M96.6772 78.8687H163.677L198.177 77.3687M96.6772 78.8687C96.6772 80.3687 97.1772 81.3687 98.1772 82.8687M96.6772 78.8687H86.6772V82.8687H98.1772M198.177 77.3687L199.177 82.8687M198.177 77.3687H212.677L213.177 82.8687H199.177M199.177 82.8687H98.1772" stroke="black" stroke-width="0.5"/>
<path d="M96.6764 78.8687C92.1772 74.3687 89.1773 52.3687 93.1764 35.8687L165.177 31.8687C161.177 36.8687 160.177 70.8687 163.677 78.8687H96.6764Z" fill="#EDADBF" stroke="black" stroke-width="0.5"/>
<path d="M228.677 30.8687L165.177 31.8687C161.177 36.8687 160.177 70.8687 163.677 78.8687L198.177 77.3687C202.677 75.8687 209.177 70.3687 228.677 30.8687Z" fill="#EDADBF" stroke="black" stroke-width="0.5"/>
<path d="M170.677 30.3687C166.177 30.8687 162.677 30.8687 159.677 30.8687L165.177 8.36873C168.177 7.86865 171.177 7.86865 174.177 8.36873L170.677 30.3687Z" fill="#EDADBF" stroke="black" stroke-width="0.5"/>
<path d="M99.1772 32.3689C103.677 37.8689 110.677 34.3689 114.677 32.8689C115.677 17.3688 102.677 25.3688 99.1772 32.3689Z" fill="#EDADBF" stroke="black" stroke-width="0.5"/>
<path d="M234.676 9.86865L231.676 13.3687C248.676 18.8687 259.176 21.8687 271.676 28.3687H273.176L281.176 26.8687C266.176 20.3687 258.676 17.8687 234.676 9.86865Z" fill="#EDADBF" stroke="black" stroke-width="0.5"/>
<path d="M271.676 28.3687C261.176 22.8687 242.176 16.3687 231.676 13.3687L229.676 15.8687L244.676 23.3687C243.176 25.8687 239.176 27.8687 233.176 30.5687C245.176 29.8687 262.176 28.8687 271.676 28.3687Z" fill="#EDADBF" stroke="black" stroke-width="0.5"/>
<path d="M277.178 34.6687L283.176 32.3687L272.677 28.3687L228.677 30.8687C221.177 45.8687 206.177 76.3687 198.177 77.3687H212.677C211.177 66.3687 220.677 42.8687 245.678 51.8687C256.178 46.3687 266.178 40.8687 277.178 34.6687Z" fill="#EDADBF" stroke="black" stroke-width="0.5"/>
<path d="M278.176 34.3687C266.176 40.8687 256.176 46.3687 245.676 51.8687C250.176 54.8687 260.676 60.8687 259.676 79.8687L284.676 79.3687V77.8687C293.176 76.8687 301.676 80.3687 300.176 66.3687L302.176 56.3687C302.176 54.8687 299.676 50.8687 297.176 50.3687C298.676 47.8687 295.676 38.8687 295.676 38.8687V37.3687L291.676 34.3687L286.676 32.8687L283.176 32.3687L278.176 34.3687Z" fill="#EDADBF" stroke="black" stroke-width="0.5"/>
<path d="M281.176 26.8687L272.676 28.3687L283.176 32.3687C292.676 33.3687 291.675 34.8687 295.67 37.2888L295.176 28.8687L281.176 26.8687Z" fill="#EDADBF"/>
<path d="M295.676 37.3687L295.67 37.2888M295.67 37.2888L295.176 28.8687L281.176 26.8687L272.676 28.3687L283.176 32.3687C292.676 33.3687 291.675 34.8687 295.67 37.2888Z" stroke="black" stroke-width="0.5"/>
<path d="M294.178 36.8689C293.678 34.3687 282.678 34.1687 277.178 34.6687" stroke="black" stroke-width="0.5"/>
<path d="M300.178 66.8687L260.678 68.8687C260.178 63.8687 258.011 59.702 256.178 57.8687L302.178 55.3687M300.678 52.8687C289.678 51.3687 278.678 46.5687 266.678 40.5687M228.678 30.8687L272.678 28.3687L281.178 26.8687" stroke="black" stroke-width="0.5"/>
<path d="M290.678 40.8687C290.678 38.8687 289.678 34.8687 286.178 32.8687C288.399 32.8687 291.775 33.909 294.287 36.2786C294.75 37.8086 293.678 41.3687 290.636 42.8687C290.622 42.2784 290.678 41.5929 290.678 40.8687Z" fill="#EDADBF"/>
<path d="M272.678 43.3687C279.673 43.7184 285.69 43.8235 291.071 44.3687M297.678 45.3687C295.575 44.918 293.381 44.6028 291.071 44.3687M295.678 37.8687C295.26 37.2835 294.791 36.7543 294.287 36.2786M291.071 44.3687C290.745 44.0239 290.651 43.5008 290.636 42.8687M290.636 42.8687C290.622 42.2784 290.678 41.5929 290.678 40.8687C290.678 38.8687 289.678 34.8687 286.178 32.8687C288.399 32.8687 291.775 33.909 294.287 36.2786M290.636 42.8687C293.678 41.3687 294.75 37.8086 294.287 36.2786" stroke="black" stroke-width="0.5"/>
<path d="M290.678 40.8687C286.178 40.8687 284.178 36.8687 283.178 34.3687" stroke="black" stroke-width="0.5"/>
<path d="M132.676 12.9686C119.176 16.9686 107.176 22.8687 93.1758 35.8687C100.176 23.8687 115.676 14.3687 131.176 9.36865L132.676 12.9686Z" fill="#E56E90" stroke="black" stroke-width="0.5"/>
<path d="M131.176 9.36865C111.176 15.0427 93.1758 32.3687 85.1758 30.3687C98.1758 20.8687 114.176 12.3687 130.676 7.86865L131.176 9.36865Z" fill="#E56E90" stroke="black" stroke-width="0.5"/>
<path d="M10.1764 48.3685H4.17645C1.67578 52.3685 1.67578 62.3685 2.17645 65.8685C0.675781 66.8685 0.676379 71.3685 1.67645 72.8685L5.67645 73.3685V74.8685L1.67645 76.8685V78.8685C5.67645 79.8685 14.1764 81.8685 22.1764 81.3685V79.8685H39.6764C39.0098 71.3685 40.6764 60.8685 49.6764 53.8685C47.1764 49.8685 40.1764 45.3685 37.1764 44.8685C27.1764 43.8685 12.1764 46.3685 10.1764 48.3685Z" fill="#E56E90" stroke="black" stroke-width="0.5"/>
<path d="M93.1772 35.8687C75.3439 36.702 43.6772 41.5687 33.1772 44.5687L37.1772 44.8687C42.1772 46.3687 47.6772 50.702 49.6772 53.8687C62.6763 44.3687 88.1763 51.3687 86.6763 78.8687H96.6763C89.6763 67.8687 90.6763 45.8687 93.1772 35.8687Z" fill="#E56E90" stroke="black" stroke-width="0.5"/>
<path d="M10.1758 48.3687H4.17578C36.676 28.8686 58.676 34.8687 84.6758 30.3687L93.676 35.8687C76.676 36.8687 47.6758 40.3686 33.6758 44.5687C25.6758 44.3686 11.6758 46.3686 10.1758 48.3687Z" fill="#E56E90" stroke="black" stroke-width="0.5"/>
<path d="M37.1772 44.8687C29.6772 43.8687 12.6772 45.8687 10.1772 48.3687C9.37724 50.7687 12.5106 53.702 14.1772 54.8687C23.6772 56.3687 37.1772 50.3687 37.1772 44.8687Z" fill="#E56E90" stroke="black" stroke-width="0.5"/>
<path d="M4.17648 48.3687C11.1765 49.3687 5.17648 59.8687 2.17648 64.8687C1.67641 57.8687 2.17627 52.3687 4.17648 48.3687Z" fill="#E56E90" stroke="black" stroke-width="0.5"/>
<path d="M22.1758 84.3687V79.8687H39.6758L40.1758 84.3687H22.1758Z" fill="#E56E90" stroke="black" stroke-width="0.5"/>
<path d="M2.67773 65.8687C4.17773 68.3687 6.17773 71.5353 5.67773 73.3687M22.1777 79.8687C11.6777 80.3687 7.17773 76.3687 8.17773 72.8687C8.67773 72.3687 10.1777 70.8687 11.1777 70.8687" stroke="black" stroke-width="0.5"/>
<path d="M32.1777 74.8688C29.6777 70.8688 24.1777 65.8689 21.1777 64.3689C19.4277 63.8688 16.8026 63.9938 14.0525 64.3689C12.4276 65.7022 11.1777 68.8688 11.6777 71.8688C11.6777 73.0354 12.9852 75.3688 15.6777 75.3688C20.1777 75.3688 27.1777 75.8688 32.1777 74.8688Z" fill="#E56E90"/>
<path d="M6.17773 65.8689C8.42768 65.3688 11.3026 64.7438 14.0525 64.3689M14.0525 64.3689C16.8026 63.9938 19.4277 63.8688 21.1777 64.3689C24.1777 65.8689 29.6777 70.8688 32.1777 74.8688C27.1777 75.8688 20.1777 75.3688 15.6777 75.3688C12.9852 75.3688 11.6777 73.0354 11.6777 71.8688C11.1777 68.8688 12.4276 65.7022 14.0525 64.3689Z" stroke="black" stroke-width="0.5"/>
<path d="M11.6777 71.3688C19.6777 69.8689 23.1777 72.4974 26.1777 73.9974M13.1777 74.3689L30.6777 73.8689" stroke="black" stroke-width="0.5"/>
<path d="M22.1758 82.8687H31.6758C33.6758 82.8687 35.1758 80.8687 34.6758 79.8687M38.1758 79.8687V84.3687" stroke="black" stroke-width="0.5"/>
<path d="M22.1772 81.3689C17.6772 81.3689 13.1772 81.8689 1.67719 78.8689V76.8689L5.67719 74.8689V73.3689L1.67719 72.8689C1.17627 71.3687 0.176465 68.3687 2.17646 65.8687C1.6767 57.8687 2.1767 51.3687 4.17719 48.3684C36.6772 28.8688 58.6772 34.8688 84.6772 30.3688C162.677 -24.6313 244.677 12.3686 281.677 26.8688L295.177 28.8687L295.677 35.8687V38.8687C297.176 43.8687 298.511 48.3687 297.177 50.3687C299.677 51.3687 302.177 54.5353 302.177 56.3687L300.177 66.3687C300.629 77.2166 298.221 77.4408 288.889 77.7533C287.898 77.7865 285.829 77.8206 284.677 77.8687V79.3687L259.677 79.7997M22.1772 81.3689V84.3689H40.1755L39.6772 79.8689M22.1772 81.3689V79.8689H39.6772M39.6772 79.8689C36.6772 38.3689 90.1772 41.3689 86.6772 80.3689V82.8687H213.177C207.177 39.3687 261.677 39.3687 259.677 79.7997M259.176 79.7997H259.677" stroke="black"/>
</svg>
