<svg width="303" height="96" viewBox="0 0 303 96" fill="none" xmlns="http://www.w3.org/2000/svg">
<circle cx="62.8853" cy="74.553" r="20.5" fill="#EFC7D3" stroke="black"/>
<circle cx="235.885" cy="74.553" r="20.5" fill="#EFC7D3" stroke="black"/>
<path d="M132.884 13.0528L131.384 9.55283C171.384 1.55295 192.884 2.05298 231.884 13.5529L228.384 18.0529C208.384 10.0529 190.384 9.05289 174.384 8.55296C171.884 8.05296 167.884 8.05292 165.384 8.55283C155.384 8.55296 143.384 10.053 132.884 13.0528Z" fill="#E0426F" stroke="black" stroke-width="0.5"/>
<path d="M131.384 9.55302L130.884 8.05302C166.884 -2.94702 199.384 1.05285 234.884 10.053L231.884 13.553C191.884 1.05298 165.884 2.55298 131.384 9.55302Z" fill="#E0426F" stroke="black" stroke-width="0.5"/>
<path d="M131.384 9.55284C182.884 -1.94718 211.384 8.05286 231.884 13.5528" stroke="black" stroke-width="0.5"/>
<path d="M170.885 30.553L174.385 8.55298C207.885 9.55298 219.385 15.053 223.885 16.553L226.368 28.553C199.378 28.5536 181.883 30.0531 170.885 30.553Z" fill="#E0426F"/>
<path d="M226.885 31.053L223.885 16.553C219.385 15.053 207.885 9.55298 174.385 8.55298L170.885 30.553C181.885 30.053 199.385 28.553 226.385 28.553" stroke="black" stroke-width="0.5"/>
<path d="M165.385 8.55298C132.385 9.55298 112.385 18.553 93.3853 36.053L95.8853 34.053L159.885 31.053L165.385 8.55298Z" fill="#E0426F" stroke="black" stroke-width="0.5"/>
<path d="M239.884 23.053C236.217 20.3863 230.384 18.053 223.884 16.553L226.384 28.553H232.884C235.884 27.053 238.884 24.8217 239.884 23.053Z" fill="#E0426F" stroke="black" stroke-width="0.5"/>
<path d="M96.8853 79.053H163.885L198.385 77.553H212.885L213.385 83.053H199.385H98.3853H86.8853V79.053H96.8853Z" fill="#E0426F"/>
<path d="M96.8853 79.053H163.885L198.385 77.553M96.8853 79.053C96.8853 80.553 97.3853 81.553 98.3853 83.053M96.8853 79.053H86.8853V83.053H98.3853M198.385 77.553L199.385 83.053M198.385 77.553H212.885L213.385 83.053H199.385M199.385 83.053H98.3853" stroke="black" stroke-width="0.5"/>
<path d="M96.8844 79.053C92.3852 74.553 89.3853 52.553 93.3844 36.053L165.385 32.053C161.385 37.053 160.385 71.053 163.885 79.053H96.8844Z" fill="#E0426F" stroke="black" stroke-width="0.5"/>
<path d="M228.885 31.053L165.385 32.053C161.385 37.053 160.385 71.053 163.885 79.053L198.385 77.553C202.885 76.053 209.385 70.553 228.885 31.053Z" fill="#E0426F" stroke="black" stroke-width="0.5"/>
<path d="M170.885 30.5531C166.385 31.0531 162.885 31.0531 159.885 31.0531L165.385 8.55305C168.385 8.05298 171.385 8.05298 174.385 8.55305L170.885 30.5531Z" fill="#E0426F" stroke="black" stroke-width="0.5"/>
<path d="M99.3853 32.553C103.885 38.053 110.885 34.553 114.885 33.053C115.885 17.5529 102.885 25.5529 99.3853 32.553Z" fill="#E0426F" stroke="black" stroke-width="0.5"/>
<path d="M234.884 10.053L231.884 13.553C248.884 19.053 259.384 22.053 271.884 28.553H273.384L281.384 27.053C266.384 20.553 258.884 18.053 234.884 10.053Z" fill="#EFC7D3" stroke="black" stroke-width="0.5"/>
<path d="M271.884 28.553C261.384 23.053 242.384 16.553 231.884 13.553L229.884 16.053L244.884 23.553C243.384 26.053 239.384 28.053 233.384 30.753C245.384 30.053 262.384 29.053 271.884 28.553Z" fill="#EFC7D3" stroke="black" stroke-width="0.5"/>
<path d="M277.385 34.853L283.384 32.553L272.884 28.553L228.884 31.053C221.384 46.053 206.384 76.553 198.384 77.553H212.884C211.384 66.553 220.884 43.053 245.885 52.053C256.385 46.553 266.385 41.053 277.385 34.853Z" fill="#EFC7D3" stroke="black" stroke-width="0.5"/>
<path d="M278.384 34.553C266.384 41.053 256.384 46.553 245.884 52.053C250.384 55.053 260.884 61.053 259.884 80.053L284.884 79.553V78.053C293.384 77.053 301.884 80.553 300.384 66.553L302.384 56.553C302.384 55.053 299.884 51.053 297.384 50.553C298.884 48.053 295.884 39.053 295.884 39.053V37.553L291.884 34.553L286.884 33.053L283.384 32.553L278.384 34.553Z" fill="#EFC7D3" stroke="black" stroke-width="0.5"/>
<path d="M281.384 27.053L272.884 28.553L283.384 32.553C292.884 33.553 291.883 35.053 295.878 37.4732L295.384 29.053L281.384 27.053Z" fill="#EFC7D3"/>
<path d="M295.884 37.553L295.878 37.4732M295.878 37.4732L295.384 29.053L281.384 27.053L272.884 28.553L283.384 32.553C292.884 33.553 291.883 35.053 295.878 37.4732Z" stroke="black" stroke-width="0.5"/>
<path d="M294.385 37.0532C293.885 34.5531 282.885 34.353 277.385 34.853" stroke="black" stroke-width="0.5"/>
<path d="M300.385 67.053L260.885 69.053C260.385 64.053 258.219 59.8863 256.385 58.053L302.385 55.553M300.885 53.053C289.885 51.553 278.885 46.753 266.885 40.753M228.885 31.053L272.885 28.553L281.385 27.053" stroke="black" stroke-width="0.5"/>
<path d="M290.885 41.053C290.885 39.053 289.885 35.053 286.385 33.053C288.606 33.053 291.983 34.0934 294.494 36.463C294.958 37.993 293.885 41.553 290.843 43.053C290.83 42.4627 290.885 41.7773 290.885 41.053Z" fill="#EFC7D3"/>
<path d="M272.885 43.553C279.881 43.9028 285.898 44.0079 291.278 44.553M297.885 45.553C295.782 45.1023 293.589 44.7871 291.278 44.553M295.885 38.053C295.467 37.4679 294.998 36.9386 294.494 36.463M291.278 44.553C290.952 44.2082 290.858 43.6852 290.843 43.053M290.843 43.053C290.83 42.4627 290.885 41.7773 290.885 41.053C290.885 39.053 289.885 35.053 286.385 33.053C288.606 33.053 291.983 34.0934 294.494 36.463M290.843 43.053C293.885 41.553 294.958 37.993 294.494 36.463" stroke="black" stroke-width="0.5"/>
<path d="M290.885 41.053C286.385 41.053 284.385 37.053 283.385 34.553" stroke="black" stroke-width="0.5"/>
<path d="M132.884 13.153C119.384 17.153 107.384 23.053 93.3838 36.053C100.384 24.053 115.884 14.553 131.384 9.55298L132.884 13.153Z" stroke="black" stroke-width="0.5"/>
<path d="M131.384 9.55298C111.384 15.227 93.3838 32.553 85.3838 30.553C98.3838 21.053 114.384 12.553 130.884 8.05298L131.384 9.55298Z" stroke="black" stroke-width="0.5"/>
<path d="M10.3845 48.5529H4.38446C1.88379 52.5529 1.88379 62.5529 2.38446 66.0529C0.883789 67.0529 0.884387 71.5529 1.88446 73.0529L5.88446 73.5529V75.0529L1.88446 77.0529V79.0529C5.88446 80.0529 14.3845 82.0529 22.3845 81.5529V80.0529H39.8845C39.2178 71.5529 40.8845 61.0529 49.8845 54.0529C47.3845 50.0529 40.3845 45.5529 37.3845 45.0529C27.3845 44.0529 12.3845 46.5529 10.3845 48.5529Z" stroke="black" stroke-width="0.5"/>
<path d="M93.3853 36.053C75.5519 36.8863 43.8853 41.753 33.3853 44.753L37.3853 45.053C42.3853 46.553 47.8853 50.8863 49.8853 54.053C62.8843 44.553 88.3843 51.553 86.8843 79.053H96.8843C89.8843 68.053 90.8843 46.053 93.3853 36.053Z" stroke="black" stroke-width="0.5"/>
<path d="M10.3838 48.553H4.38379C36.884 29.0529 58.884 35.053 84.8838 30.553L93.884 36.053C76.884 37.053 47.8838 40.553 33.8838 44.753C25.8838 44.553 11.8838 46.553 10.3838 48.553Z" stroke="black" stroke-width="0.5"/>
<path d="M37.3852 45.0531C29.8852 44.053 12.8852 46.053 10.3852 48.5531C9.58524 50.953 12.7186 53.8863 14.3852 55.053C23.8853 56.553 37.3852 50.553 37.3852 45.0531Z" stroke="black" stroke-width="0.5"/>
<path d="M4.38448 48.553C11.3845 49.553 5.38448 60.053 2.38448 65.053C1.88441 58.053 2.38428 52.553 4.38448 48.553Z" stroke="black" stroke-width="0.5"/>
<path d="M22.3838 84.553V80.053H39.8838L40.3838 84.553H22.3838Z" stroke="black" stroke-width="0.5"/>
<path d="M2.88574 66.0527C4.38574 68.5527 6.38574 71.7194 5.88574 73.5527M22.3857 80.0527C11.8857 80.5527 7.38574 76.5527 8.38574 73.0527C8.88574 72.5527 10.3857 71.0527 11.3857 71.0527" stroke="black" stroke-width="0.5"/>
<path d="M6.38574 66.0529C8.63568 65.5529 11.5106 64.9279 14.2605 64.5529M14.2605 64.5529C17.0106 64.1779 19.6357 64.0529 21.3857 64.5529C24.3857 66.0529 29.8857 71.0529 32.3857 75.0529C27.3857 76.0529 20.3857 75.5529 15.8857 75.5529C13.1932 75.5529 11.8857 73.2195 11.8857 72.0529C11.3857 69.0529 12.6356 65.8862 14.2605 64.5529Z" stroke="black" stroke-width="0.5"/>
<path d="M11.8857 71.5529C19.8857 70.053 23.3857 72.6815 26.3857 74.1815M13.3857 74.553L30.8857 74.053" stroke="black" stroke-width="0.5"/>
<path d="M22.3838 83.0527H31.8838C33.8838 83.0527 35.3838 81.0527 34.8838 80.0527M38.3838 80.0527V84.5527" stroke="black" stroke-width="0.5"/>
<path d="M22.3852 81.5532C17.8852 81.5532 13.3852 82.0532 1.8852 79.0532V77.0532L5.8852 75.0532V73.5532L1.8852 73.0532C1.38428 71.553 0.384473 68.553 2.38447 66.053C1.88471 58.053 2.38471 51.553 4.3852 48.5527C36.8852 29.0531 58.8852 35.0532 84.8852 30.5532C162.885 -24.4469 244.885 12.553 281.885 27.0532L295.385 29.053L295.885 36.053V39.053C297.384 44.053 298.719 48.553 297.385 50.553C299.885 51.553 302.385 54.7196 302.385 56.553L300.385 66.553C300.837 77.4009 298.429 77.6252 289.098 77.9376C288.106 77.9708 286.037 78.005 284.885 78.053V79.553L259.885 79.984M22.3852 81.5532V84.5532H40.3835L39.8852 80.0532M22.3852 81.5532V80.0532H39.8852M39.8852 80.0532C36.8852 38.5532 90.3852 41.5532 86.8852 80.5532V83.053H213.385C207.385 39.553 261.885 39.553 259.885 79.984M259.384 79.984H259.885" stroke="black"/>
</svg>
