<svg width="303" height="96" viewBox="0 0 303 96" fill="none" xmlns="http://www.w3.org/2000/svg">
<circle cx="62.6875" cy="74.3687" r="20.5" stroke="black"/>
<circle cx="235.688" cy="74.3687" r="20.5" stroke="black"/>
<path d="M132.686 12.8685L131.186 9.36851C171.186 1.36862 192.686 1.86865 231.686 13.3686L228.186 17.8686C208.186 9.86856 190.186 8.86856 174.186 8.36863C171.686 7.86863 167.686 7.86859 165.186 8.36851C155.186 8.36863 143.186 9.86863 132.686 12.8685Z" fill="#EDADBF" stroke="black" stroke-width="0.5"/>
<path d="M131.186 9.3687L130.686 7.8687C166.686 -3.13135 199.186 0.868526 234.686 9.8687L231.686 13.3687C191.686 0.868652 165.686 2.36865 131.186 9.3687Z" fill="#EDADBF" stroke="black" stroke-width="0.5"/>
<path d="M131.186 9.36876C182.686 -2.13126 211.186 7.86877 231.686 13.3688" stroke="black" stroke-width="0.5"/>
<path d="M170.688 30.3687L174.188 8.36865C207.688 9.36865 219.188 14.8687 223.688 16.3687L226.17 28.3687C199.18 28.3693 181.685 29.8688 170.688 30.3687Z" fill="#EDADBF"/>
<path d="M226.688 30.8687L223.688 16.3687C219.188 14.8687 207.688 9.36865 174.188 8.36865L170.688 30.3687C181.688 29.8687 199.188 28.3687 226.188 28.3687" stroke="black" stroke-width="0.5"/>
<path d="M165.188 8.36865C132.188 9.36865 112.188 18.3687 93.1875 35.8687L95.6875 33.8687L159.688 30.8687L165.188 8.36865Z" fill="#EDADBF" stroke="black" stroke-width="0.5"/>
<path d="M239.686 22.8687C236.019 20.202 230.186 17.8687 223.686 16.3687L226.186 28.3687H232.686C235.686 26.8687 238.686 24.6374 239.686 22.8687Z" fill="#EDADBF" stroke="black" stroke-width="0.5"/>
<path d="M96.6875 78.8687H163.688L198.188 77.3687H212.688L213.188 82.8687H199.188H98.1875H86.6875V78.8687H96.6875Z" fill="#EDADBF"/>
<path d="M96.6875 78.8687H163.688L198.188 77.3687M96.6875 78.8687C96.6875 80.3687 97.1875 81.3687 98.1875 82.8687M96.6875 78.8687H86.6875V82.8687H98.1875M198.188 77.3687L199.188 82.8687M198.188 77.3687H212.688L213.188 82.8687H199.188M199.188 82.8687H98.1875" stroke="black" stroke-width="0.5"/>
<path d="M96.6866 78.8687C92.1875 74.3687 89.1875 52.3687 93.1866 35.8687L165.188 31.8687C161.188 36.8687 160.188 70.8687 163.687 78.8687H96.6866Z" fill="#EDADBF" stroke="black" stroke-width="0.5"/>
<path d="M228.687 30.8687L165.187 31.8687C161.188 36.8687 160.188 70.8687 163.687 78.8687L198.187 77.3687C202.687 75.8687 209.187 70.3687 228.687 30.8687Z" fill="#EDADBF" stroke="black" stroke-width="0.5"/>
<path d="M170.688 30.3687C166.188 30.8687 162.688 30.8687 159.688 30.8687L165.188 8.36873C168.188 7.86865 171.188 7.86865 174.188 8.36873L170.688 30.3687Z" fill="#EDADBF" stroke="black" stroke-width="0.5"/>
<path d="M99.1875 32.3689C103.688 37.8689 110.688 34.3689 114.688 32.8689C115.688 17.3688 102.688 25.3688 99.1875 32.3689Z" fill="#EDADBF" stroke="black" stroke-width="0.5"/>
<path d="M234.686 9.86865L231.686 13.3687C248.686 18.8687 259.186 21.8687 271.686 28.3687H273.186L281.186 26.8687C266.186 20.3687 258.686 17.8687 234.686 9.86865Z" fill="#EFC7D3" stroke="black" stroke-width="0.5"/>
<path d="M271.686 28.3687C261.186 22.8687 242.186 16.3687 231.686 13.3687L229.686 15.8687L244.686 23.3687C243.186 25.8687 239.186 27.8687 233.186 30.5687C245.186 29.8687 262.186 28.8687 271.686 28.3687Z" fill="#EFC7D3" stroke="black" stroke-width="0.5"/>
<path d="M277.188 34.6687L283.186 32.3687L272.687 28.3687L228.687 30.8687C221.187 45.8687 206.187 76.3687 198.187 77.3687H212.687C211.187 66.3687 220.687 42.8687 245.688 51.8687C256.188 46.3687 266.188 40.8687 277.188 34.6687Z" fill="#EFC7D3" stroke="black" stroke-width="0.5"/>
<path d="M278.186 34.3687C266.186 40.8687 256.186 46.3687 245.686 51.8687C250.186 54.8687 260.686 60.8687 259.686 79.8687L284.686 79.3687V77.8687C293.186 76.8687 301.686 80.3687 300.186 66.3687L302.186 56.3687C302.186 54.8687 299.686 50.8687 297.186 50.3687C298.686 47.8687 295.686 38.8687 295.686 38.8687V37.3687L291.686 34.3687L286.686 32.8687L283.186 32.3687L278.186 34.3687Z" fill="#EFC7D3" stroke="black" stroke-width="0.5"/>
<path d="M281.186 26.8687L272.686 28.3687L283.186 32.3687C292.686 33.3687 291.684 34.8687 295.68 37.2888L295.186 28.8687L281.186 26.8687Z" fill="#EFC7D3"/>
<path d="M295.686 37.3687L295.68 37.2888M295.68 37.2888L295.186 28.8687L281.186 26.8687L272.686 28.3687L283.186 32.3687C292.686 33.3687 291.684 34.8687 295.68 37.2888Z" stroke="black" stroke-width="0.5"/>
<path d="M294.188 36.8689C293.688 34.3687 282.688 34.1687 277.188 34.6687" stroke="black" stroke-width="0.5"/>
<path d="M300.188 66.8687L260.688 68.8687C260.188 63.8687 258.021 59.702 256.188 57.8687L302.188 55.3687M300.688 52.8687C289.688 51.3687 278.688 46.5687 266.688 40.5687M228.688 30.8687L272.688 28.3687L281.188 26.8687" stroke="black" stroke-width="0.5"/>
<path d="M290.688 40.8687C290.688 38.8687 289.688 34.8687 286.188 32.8687C288.408 32.8687 291.785 33.909 294.296 36.2786C294.76 37.8086 293.688 41.3687 290.646 42.8687C290.632 42.2784 290.688 41.5929 290.688 40.8687Z" fill="#EFC7D3"/>
<path d="M272.688 43.3687C279.683 43.7184 285.7 43.8235 291.081 44.3687M297.688 45.3687C295.585 44.918 293.391 44.6028 291.081 44.3687M295.688 37.8687C295.27 37.2835 294.8 36.7543 294.296 36.2786M291.081 44.3687C290.754 44.0239 290.66 43.5008 290.646 42.8687M290.646 42.8687C290.632 42.2784 290.688 41.5929 290.688 40.8687C290.688 38.8687 289.688 34.8687 286.188 32.8687C288.408 32.8687 291.785 33.909 294.296 36.2786M290.646 42.8687C293.688 41.3687 294.76 37.8086 294.296 36.2786" stroke="black" stroke-width="0.5"/>
<path d="M290.688 40.8687C286.188 40.8687 284.188 36.8687 283.188 34.3687" stroke="black" stroke-width="0.5"/>
<path d="M132.686 12.9686C119.186 16.9686 107.186 22.8687 93.186 35.8687C100.186 23.8687 115.686 14.3687 131.186 9.36865L132.686 12.9686Z" fill="#E56E90" stroke="black" stroke-width="0.5"/>
<path d="M131.186 9.36865C111.186 15.0427 93.186 32.3687 85.186 30.3687C98.186 20.8687 114.186 12.3687 130.686 7.86865L131.186 9.36865Z" fill="#E56E90" stroke="black" stroke-width="0.5"/>
<path d="M10.1867 48.3685H4.1867C1.68604 52.3685 1.68604 62.3685 2.1867 65.8685C0.686035 66.8685 0.686633 71.3685 1.6867 72.8685L5.6867 73.3685V74.8685L1.6867 76.8685V78.8685C5.6867 79.8685 14.1867 81.8685 22.1867 81.3685V79.8685H39.6867C39.02 71.3685 40.6867 60.8685 49.6867 53.8685C47.1867 49.8685 40.1867 45.3685 37.1867 44.8685C27.1867 43.8685 12.1867 46.3685 10.1867 48.3685Z" fill="#E56E90" stroke="black" stroke-width="0.5"/>
<path d="M93.1875 35.8687C75.3542 36.702 43.6875 41.5687 33.1875 44.5687L37.1875 44.8687C42.1875 46.3687 47.6875 50.702 49.6875 53.8687C62.6865 44.3687 88.1865 51.3687 86.6865 78.8687H96.6865C89.6865 67.8687 90.6865 45.8687 93.1875 35.8687Z" fill="#E56E90" stroke="black" stroke-width="0.5"/>
<path d="M10.1855 48.3687H4.18555C36.6857 28.8686 58.6858 34.8687 84.6855 30.3687L93.6858 35.8687C76.6858 36.8687 47.6855 40.3686 33.6855 44.5687C25.6855 44.3686 11.6855 46.3686 10.1855 48.3687Z" fill="#E56E90" stroke="black" stroke-width="0.5"/>
<path d="M37.1875 44.8687C29.6875 43.8687 12.6875 45.8687 10.1875 48.3687C9.38749 50.7687 12.5208 53.702 14.1875 54.8687C23.6875 56.3687 37.1875 50.3687 37.1875 44.8687Z" fill="#E56E90" stroke="black" stroke-width="0.5"/>
<path d="M4.18673 48.3687C11.1867 49.3687 5.18673 59.8687 2.18673 64.8687C1.68666 57.8687 2.18652 52.3687 4.18673 48.3687Z" fill="#E56E90" stroke="black" stroke-width="0.5"/>
<path d="M22.186 84.3687V79.8687H39.686L40.186 84.3687H22.186Z" fill="#E56E90" stroke="black" stroke-width="0.5"/>
<path d="M2.6875 65.8687C4.1875 68.3687 6.1875 71.5353 5.6875 73.3687M22.1875 79.8687C11.6875 80.3687 7.1875 76.3687 8.1875 72.8687C8.6875 72.3687 10.1875 70.8687 11.1875 70.8687" stroke="black" stroke-width="0.5"/>
<path d="M32.1875 74.8688C29.6875 70.8688 24.1875 65.8689 21.1875 64.3689C19.4375 63.8688 16.8124 63.9938 14.0623 64.3689C12.4374 65.7022 11.1875 68.8688 11.6875 71.8688C11.6875 73.0354 12.9949 75.3688 15.6875 75.3688C20.1875 75.3688 27.1875 75.8688 32.1875 74.8688Z" fill="#E56E90"/>
<path d="M6.1875 65.8689C8.43744 65.3688 11.3124 64.7438 14.0623 64.3689M14.0623 64.3689C16.8124 63.9938 19.4375 63.8688 21.1875 64.3689C24.1875 65.8689 29.6875 70.8688 32.1875 74.8688C27.1875 75.8688 20.1875 75.3688 15.6875 75.3688C12.9949 75.3688 11.6875 73.0354 11.6875 71.8688C11.1875 68.8688 12.4374 65.7022 14.0623 64.3689Z" stroke="black" stroke-width="0.5"/>
<path d="M11.6875 71.3688C19.6875 69.8689 23.1875 72.4974 26.1875 73.9974M13.1875 74.3689L30.6875 73.8689" stroke="black" stroke-width="0.5"/>
<path d="M22.1855 82.8687H31.6855C33.6855 82.8687 35.1855 80.8687 34.6855 79.8687M38.1855 79.8687V84.3687" stroke="black" stroke-width="0.5"/>
<path d="M22.1874 81.3689C17.6874 81.3689 13.1874 81.8689 1.68745 78.8689V76.8689L5.68745 74.8689V73.3689L1.68745 72.8689C1.18652 71.3687 0.186719 68.3687 2.18671 65.8687C1.68696 57.8687 2.18696 51.3687 4.18745 48.3684C36.6874 28.8688 58.6874 34.8688 84.6874 30.3688C162.687 -24.6313 244.687 12.3686 281.687 26.8688L295.187 28.8687L295.687 35.8687V38.8687C297.186 43.8687 298.521 48.3687 297.187 50.3687C299.687 51.3687 302.187 54.5353 302.187 56.3687L300.187 66.3687C300.639 77.2166 298.231 77.4408 288.9 77.7533C287.909 77.7865 285.84 77.8206 284.687 77.8687V79.3687L259.687 79.7997M22.1874 81.3689V84.3689H40.1858L39.6875 79.8689M22.1874 81.3689V79.8689H39.6875M39.6875 79.8689C36.6875 38.3689 90.1874 41.3689 86.6874 80.3689V82.8687H213.187C207.187 39.3687 261.687 39.3687 259.687 79.7997M259.186 79.7997H259.687" stroke="black"/>
</svg>
