<svg width="304" height="96" viewBox="0 0 304 96" fill="none" xmlns="http://www.w3.org/2000/svg">
<circle cx="63.0518" cy="74.0605" r="20.5" fill="#EDADBF" stroke="black"/>
<circle cx="236.052" cy="74.0605" r="20.5" fill="#EDADBF" stroke="black"/>
<path d="M133.05 12.5604L131.55 9.0604C171.55 1.06051 193.05 1.56055 232.05 13.0605L228.55 17.5605C208.55 9.56046 190.55 8.56046 174.55 8.06052C172.05 7.56052 168.05 7.56049 165.55 8.0604C155.55 8.06052 143.55 9.56052 133.05 12.5604Z" fill="#E0426F" stroke="black" stroke-width="0.5"/>
<path d="M131.55 9.06059L131.05 7.56059C167.05 -3.43945 199.55 0.560421 235.05 9.56059L232.05 13.0606C192.05 0.560547 166.05 2.06055 131.55 9.06059Z" fill="#E0426F" stroke="black" stroke-width="0.5"/>
<path d="M131.55 9.06066C183.05 -2.43937 211.55 7.56067 232.05 13.0607" stroke="black" stroke-width="0.5"/>
<path d="M171.052 30.0605L174.552 8.06055C208.052 9.06055 219.552 14.5605 224.052 16.0605L226.535 28.0605C199.544 28.0612 182.049 29.5607 171.052 30.0605Z" fill="#E0426F"/>
<path d="M227.052 30.5605L224.052 16.0605C219.552 14.5605 208.052 9.06055 174.552 8.06055L171.052 30.0605C182.052 29.5605 199.552 28.0605 226.552 28.0605" stroke="black" stroke-width="0.5"/>
<path d="M165.552 8.06055C132.552 9.06055 112.552 18.0605 93.5518 35.5605L96.0518 33.5605L160.052 30.5605L165.552 8.06055Z" fill="#E0426F" stroke="black" stroke-width="0.5"/>
<path d="M240.05 22.5605C236.383 19.8939 230.55 17.5605 224.05 16.0605L226.55 28.0605H233.05C236.05 26.5605 239.05 24.3293 240.05 22.5605Z" fill="#E0426F" stroke="black" stroke-width="0.5"/>
<path d="M97.0518 78.5605H164.052L198.552 77.0605H213.052L213.552 82.5605H199.552H98.5518H87.0518V78.5605H97.0518Z" fill="#E0426F"/>
<path d="M97.0518 78.5605H164.052L198.552 77.0605M97.0518 78.5605C97.0518 80.0605 97.5518 81.0605 98.5518 82.5605M97.0518 78.5605H87.0518V82.5605H98.5518M198.552 77.0605L199.552 82.5605M198.552 77.0605H213.052L213.552 82.5605H199.552M199.552 82.5605H98.5518" stroke="black" stroke-width="0.5"/>
<path d="M97.0509 78.5605C92.5518 74.0605 89.5518 52.0605 93.5509 35.5605L165.552 31.5605C161.552 36.5605 160.552 70.5605 164.052 78.5605H97.0509Z" fill="#E0426F" stroke="black" stroke-width="0.5"/>
<path d="M229.052 30.5605L165.552 31.5605C161.552 36.5605 160.552 70.5605 164.052 78.5605L198.552 77.0605C203.052 75.5605 209.552 70.0605 229.052 30.5605Z" fill="#E0426F" stroke="black" stroke-width="0.5"/>
<path d="M171.052 30.0606C166.552 30.5606 163.052 30.5606 160.052 30.5606L165.552 8.06062C168.552 7.56055 171.552 7.56055 174.552 8.06062L171.052 30.0606Z" fill="#E0426F" stroke="black" stroke-width="0.5"/>
<path d="M99.5518 32.0608C104.052 37.5608 111.052 34.0608 115.052 32.5608C116.052 17.0607 103.052 25.0607 99.5518 32.0608Z" fill="#E0426F" stroke="black" stroke-width="0.5"/>
<path d="M235.05 9.56055L232.05 13.0605C249.05 18.5605 259.55 21.5605 272.05 28.0605H273.55L281.55 26.5605C266.55 20.0605 259.05 17.5605 235.05 9.56055Z" fill="#E0426F" stroke="black" stroke-width="0.5"/>
<path d="M272.05 28.0605C261.55 22.5605 242.55 16.0605 232.05 13.0605L230.05 15.5605L245.05 23.0605C243.55 25.5605 239.55 27.5605 233.55 30.2605C245.55 29.5605 262.55 28.5605 272.05 28.0605Z" fill="#E0426F" stroke="black" stroke-width="0.5"/>
<path d="M277.552 34.3605L283.55 32.0605L273.051 28.0605L229.051 30.5605C221.551 45.5605 206.551 76.0605 198.551 77.0605H213.051C211.551 66.0605 221.051 42.5605 246.052 51.5605C256.552 46.0605 266.552 40.5605 277.552 34.3605Z" fill="#E0426F" stroke="black" stroke-width="0.5"/>
<path d="M278.55 34.0606C266.55 40.5606 256.55 46.0606 246.05 51.5606C250.55 54.5605 261.05 60.5605 260.05 79.5605L285.05 79.0605V77.5605C293.55 76.5605 302.05 80.0605 300.55 66.0605L302.55 56.0605C302.55 54.5605 300.05 50.5605 297.55 50.0605C299.05 47.5605 296.05 38.5605 296.05 38.5605V37.0605L292.05 34.0605L287.05 32.5605L283.55 32.0605L278.55 34.0606Z" fill="#E0426F" stroke="black" stroke-width="0.5"/>
<path d="M281.55 26.5605L273.05 28.0605L283.55 32.0605C293.05 33.0605 292.049 34.5605 296.044 36.9807L295.55 28.5605L281.55 26.5605Z" fill="#E0426F"/>
<path d="M296.05 37.0605L296.044 36.9807M296.044 36.9807L295.55 28.5605L281.55 26.5605L273.05 28.0605L283.55 32.0605C293.05 33.0605 292.049 34.5605 296.044 36.9807Z" stroke="black" stroke-width="0.5"/>
<path d="M294.552 36.5607C294.052 34.0606 283.052 33.8606 277.552 34.3606" stroke="black" stroke-width="0.5"/>
<path d="M300.552 66.5605L261.052 68.5605C260.552 63.5605 258.385 59.3939 256.552 57.5605L302.552 55.0605M301.052 52.5605C290.052 51.0605 279.052 46.2605 267.052 40.2605M229.052 30.5605L273.052 28.0605L281.552 26.5605" stroke="black" stroke-width="0.5"/>
<path d="M291.052 40.5605C291.052 38.5605 290.052 34.5605 286.552 32.5605C288.773 32.5605 292.149 33.6009 294.661 35.9705C295.124 37.5005 294.052 41.0605 291.01 42.5605C290.996 41.9703 291.052 41.2848 291.052 40.5605Z" fill="#E0426F"/>
<path d="M273.052 43.0605C280.047 43.4103 286.064 43.5154 291.445 44.0605M298.052 45.0605C295.949 44.6099 293.756 44.2946 291.445 44.0605M296.052 37.5605C295.634 36.9754 295.165 36.4462 294.661 35.9705M291.445 44.0605C291.119 43.7158 291.025 43.1927 291.01 42.5605M291.01 42.5605C290.996 41.9703 291.052 41.2848 291.052 40.5605C291.052 38.5605 290.052 34.5605 286.552 32.5605C288.773 32.5605 292.149 33.6009 294.661 35.9705M291.01 42.5605C294.052 41.0605 295.124 37.5005 294.661 35.9705" stroke="black" stroke-width="0.5"/>
<path d="M291.052 40.5605C286.552 40.5605 284.552 36.5605 283.552 34.0605" stroke="black" stroke-width="0.5"/>
<path d="M133.05 12.6605C119.55 16.6605 107.55 22.5605 93.5498 35.5605C100.55 23.5605 116.05 14.0605 131.55 9.06055L133.05 12.6605Z" fill="#E56E90" stroke="black" stroke-width="0.5"/>
<path d="M131.55 9.06055C111.55 14.7346 93.5498 32.0605 85.5498 30.0605C98.5498 20.5605 114.55 12.0605 131.05 7.56055L131.55 9.06055Z" fill="#E56E90" stroke="black" stroke-width="0.5"/>
<path d="M10.5505 48.0604H4.55047C2.0498 52.0604 2.0498 62.0604 2.55047 65.5604C1.0498 66.5604 1.0504 71.0604 2.05047 72.5604L6.05047 73.0604V74.5604L2.05047 76.5604V78.5604C6.05047 79.5604 14.5505 81.5604 22.5505 81.0604V79.5604H40.0505C39.3838 71.0604 41.0505 60.5604 50.0505 53.5604C47.5505 49.5604 40.5505 45.0604 37.5505 44.5604C27.5505 43.5604 12.5505 46.0604 10.5505 48.0604Z" fill="#E56E90" stroke="black" stroke-width="0.5"/>
<path d="M93.5518 35.5605C75.7184 36.3939 44.0518 41.2605 33.5518 44.2605L37.5518 44.5605C42.5518 46.0605 48.0518 50.3939 50.0518 53.5605C63.0508 44.0605 88.5508 51.0605 87.0508 78.5605H97.0508C90.0508 67.5605 91.0508 45.5605 93.5518 35.5605Z" fill="#E56E90" stroke="black" stroke-width="0.5"/>
<path d="M10.5498 48.0606H4.5498C37.05 28.5605 59.05 34.5605 85.0498 30.0605L94.05 35.5605C77.05 36.5605 48.0498 40.0605 34.0498 44.2606C26.0498 44.0605 12.0498 46.0605 10.5498 48.0606Z" fill="#E56E90" stroke="black" stroke-width="0.5"/>
<path d="M37.5513 44.5606C30.0513 43.5605 13.0513 45.5605 10.5513 48.0606C9.75126 50.4606 12.8846 53.3939 14.5513 54.5605C24.0513 56.0605 37.5513 50.0605 37.5513 44.5606Z" fill="#E56E90" stroke="black" stroke-width="0.5"/>
<path d="M4.5505 48.0605C11.5505 49.0605 5.5505 59.5605 2.5505 64.5605C2.05043 57.5605 2.55029 52.0605 4.5505 48.0605Z" fill="#E56E90" stroke="black" stroke-width="0.5"/>
<path d="M22.5498 84.0605V79.5605H40.0498L40.5498 84.0605H22.5498Z" fill="#E56E90" stroke="black" stroke-width="0.5"/>
<path d="M3.05176 65.5605C4.55176 68.0605 6.55176 71.2272 6.05176 73.0605M22.5518 79.5605C12.0518 80.0605 7.55176 76.0605 8.55176 72.5605C9.05176 72.0605 10.5518 70.5605 11.5518 70.5605" stroke="black" stroke-width="0.5"/>
<path d="M32.5518 74.5607C30.0518 70.5607 24.5518 65.5607 21.5518 64.0607C19.8017 63.5607 17.1766 63.6857 14.4265 64.0607C12.8016 65.3941 11.5518 68.5607 12.0518 71.5607C12.0518 72.7273 13.3592 75.0607 16.0518 75.0607C20.5518 75.0607 27.5518 75.5607 32.5518 74.5607Z" fill="#E56E90"/>
<path d="M6.55176 65.5607C8.8017 65.0607 11.6766 64.4357 14.4265 64.0607M14.4265 64.0607C17.1766 63.6857 19.8017 63.5607 21.5518 64.0607C24.5518 65.5607 30.0518 70.5607 32.5518 74.5607C27.5518 75.5607 20.5518 75.0607 16.0518 75.0607C13.3592 75.0607 12.0518 72.7273 12.0518 71.5607C11.5518 68.5607 12.8016 65.3941 14.4265 64.0607Z" stroke="black" stroke-width="0.5"/>
<path d="M12.0518 71.0607C20.0518 69.5608 23.5518 72.1893 26.5518 73.6893M13.5518 74.0608L31.0518 73.5608" stroke="black" stroke-width="0.5"/>
<path d="M22.5498 82.5605H32.0498C34.0498 82.5605 35.5498 80.5605 35.0498 79.5605M38.5498 79.5605V84.0605" stroke="black" stroke-width="0.5"/>
<path d="M22.5517 81.0608C18.0517 81.0608 13.5517 81.5608 2.0517 78.5608V76.5608L6.0517 74.5608V73.0608L2.0517 72.5608C1.55078 71.0605 0.550977 68.0605 2.55097 65.5605C2.05122 57.5605 2.55122 51.0605 4.5517 48.0603C37.0517 28.5607 59.0517 34.5607 85.0517 30.0607C163.052 -24.9394 245.052 12.0605 282.052 26.5607L295.552 28.5605L296.052 35.5605V38.5605C297.55 43.5605 298.885 48.0605 297.552 50.0605C300.052 51.0605 302.552 54.2272 302.552 56.0605L300.552 66.0605C301.004 76.9085 298.596 77.1327 289.264 77.4452C288.273 77.4784 286.204 77.5125 285.052 77.5605V79.0605L260.052 79.4916M22.5517 81.0608V84.0608H40.55L40.0517 79.5608M22.5517 81.0608V79.5608H40.0517M40.0517 79.5608C37.0517 38.0608 90.5517 41.0608 87.0517 80.0608V82.5605H213.552C207.552 39.0605 262.052 39.0605 260.052 79.4916M259.55 79.4916H260.052" stroke="black"/>
</svg>
