<svg width="303" height="96" viewBox="0 0 303 96" fill="none" xmlns="http://www.w3.org/2000/svg">
<circle cx="62.667" cy="74.3384" r="20.5" stroke="black"/>
<circle cx="235.667" cy="74.3384" r="20.5" stroke="black"/>
<path d="M132.665 12.8382L131.165 9.33823C171.165 1.33835 192.665 1.83838 231.665 13.3383L228.165 17.8383C208.165 9.83829 190.165 8.83829 174.165 8.33836C171.665 7.83836 167.665 7.83832 165.165 8.33823C155.165 8.33836 143.165 9.83836 132.665 12.8382Z" stroke="black" stroke-width="0.5"/>
<path d="M131.165 9.33842L130.665 7.83842C166.665 -3.16162 199.165 0.838253 234.665 9.83842L231.665 13.3384C191.665 0.838379 165.665 2.33838 131.165 9.33842Z" stroke="black" stroke-width="0.5"/>
<path d="M131.165 9.33837C182.665 -2.16166 211.165 7.83838 231.665 13.3384" stroke="black" stroke-width="0.5"/>
<path d="M226.667 30.8384L223.667 16.3384C219.167 14.8384 207.667 9.33838 174.167 8.33838L170.667 30.3384C181.667 29.8384 199.167 28.3384 226.167 28.3384" stroke="black" stroke-width="0.5"/>
<path d="M165.167 8.33838C132.167 9.33838 112.167 18.3384 93.167 35.8384L95.667 33.8384L159.667 30.8384L165.167 8.33838Z" stroke="black" stroke-width="0.5"/>
<path d="M239.665 22.8384C235.998 20.1717 230.165 17.8384 223.665 16.3384L226.165 28.3384H232.665C235.665 26.8384 238.665 24.6071 239.665 22.8384Z" stroke="black" stroke-width="0.5"/>
<path d="M96.667 78.8384H163.667L198.167 77.3384M96.667 78.8384C96.667 80.3384 97.167 81.3384 98.167 82.8384M96.667 78.8384H86.667V82.8384H98.167M198.167 77.3384L199.167 82.8384M198.167 77.3384H212.667L213.167 82.8384H199.167M199.167 82.8384H98.167" stroke="black" stroke-width="0.5"/>
<path d="M96.6661 78.8384C92.167 74.3384 89.167 52.3384 93.1661 35.8384L165.167 31.8384C161.167 36.8384 160.167 70.8384 163.667 78.8384H96.6661Z" stroke="black" stroke-width="0.5"/>
<path d="M228.667 30.8384L165.167 31.8384C161.167 36.8384 160.167 70.8384 163.667 78.8384L198.167 77.3384C202.667 75.8384 209.167 70.3384 228.667 30.8384Z" stroke="black" stroke-width="0.5"/>
<path d="M170.667 30.3385C166.167 30.8385 162.667 30.8385 159.667 30.8385L165.167 8.33845C168.167 7.83838 171.167 7.83838 174.167 8.33845L170.667 30.3385Z" stroke="black" stroke-width="0.5"/>
<path d="M99.167 32.3385C103.667 37.8385 110.667 34.3385 114.667 32.8385C115.667 17.3384 102.667 25.3384 99.167 32.3385Z" stroke="black" stroke-width="0.5"/>
<path d="M234.665 9.83838L231.665 13.3384C248.665 18.8384 259.165 21.8384 271.665 28.3384H273.165L281.165 26.8384C266.165 20.3384 258.665 17.8384 234.665 9.83838Z" fill="#E56E90" stroke="black" stroke-width="0.5"/>
<path d="M271.665 28.3384C261.165 22.8384 242.165 16.3384 231.665 13.3384L229.665 15.8384L244.665 23.3384C243.165 25.8384 239.165 27.8384 233.165 30.5384C245.165 29.8384 262.165 28.8384 271.665 28.3384Z" fill="#E56E90" stroke="black" stroke-width="0.5"/>
<path d="M277.167 34.6384L283.165 32.3384L272.666 28.3384L228.666 30.8384C221.166 45.8384 206.166 76.3384 198.166 77.3384H212.666C211.166 66.3384 220.666 42.8384 245.667 51.8384C256.167 46.3384 266.167 40.8384 277.167 34.6384Z" fill="#E56E90" stroke="black" stroke-width="0.5"/>
<path d="M278.165 34.3384C266.165 40.8384 256.165 46.3384 245.665 51.8384C250.165 54.8384 260.665 60.8384 259.665 79.8384L284.665 79.3384V77.8384C293.165 76.8384 301.665 80.3384 300.165 66.3384L302.165 56.3384C302.165 54.8384 299.665 50.8384 297.165 50.3384C298.665 47.8384 295.665 38.8384 295.665 38.8384V37.3384L291.665 34.3384L286.665 32.8384L283.165 32.3384L278.165 34.3384Z" fill="#E56E90" stroke="black" stroke-width="0.5"/>
<path d="M281.165 26.8384L272.665 28.3384L283.165 32.3384C292.665 33.3384 291.664 34.8384 295.659 37.2586L295.165 28.8384L281.165 26.8384Z" fill="#E56E90"/>
<path d="M295.665 37.3384L295.659 37.2586M295.659 37.2586L295.165 28.8384L281.165 26.8384L272.665 28.3384L283.165 32.3384C292.665 33.3384 291.664 34.8384 295.659 37.2586Z" stroke="black" stroke-width="0.5"/>
<path d="M294.167 36.8386C293.667 34.3385 282.667 34.1384 277.167 34.6384" stroke="black" stroke-width="0.5"/>
<path d="M300.167 66.8384L260.667 68.8384C260.167 63.8384 258 59.6717 256.167 57.8384L302.167 55.3384M300.667 52.8384C289.667 51.3384 278.667 46.5384 266.667 40.5384M228.667 30.8384L272.667 28.3384L281.167 26.8384" stroke="black" stroke-width="0.5"/>
<path d="M290.667 40.8384C290.667 38.8384 289.667 34.8384 286.167 32.8384C288.388 32.8384 291.765 33.8788 294.276 36.2484C294.74 37.7784 293.667 41.3384 290.625 42.8384C290.612 42.2481 290.667 41.5627 290.667 40.8384Z" fill="#E56E90"/>
<path d="M272.667 43.3384C279.663 43.6882 285.68 43.7933 291.06 44.3384M297.667 45.3384C295.564 44.8877 293.371 44.5725 291.06 44.3384M295.667 37.8384C295.249 37.2533 294.78 36.724 294.276 36.2484M291.06 44.3384C290.734 43.9936 290.64 43.4706 290.625 42.8384M290.625 42.8384C290.612 42.2481 290.667 41.5627 290.667 40.8384C290.667 38.8384 289.667 34.8384 286.167 32.8384C288.388 32.8384 291.765 33.8788 294.276 36.2484M290.625 42.8384C293.667 41.3384 294.74 37.7784 294.276 36.2484" stroke="black" stroke-width="0.5"/>
<path d="M290.667 40.8384C286.167 40.8384 284.167 36.8384 283.167 34.3384" stroke="black" stroke-width="0.5"/>
<path d="M132.665 12.9384C119.165 16.9384 107.165 22.8384 93.165 35.8384C100.165 23.8384 115.665 14.3384 131.165 9.33838L132.665 12.9384Z" fill="#EFC7D3" stroke="black" stroke-width="0.5"/>
<path d="M131.165 9.33838C111.165 15.0124 93.165 32.3384 85.165 30.3384C98.165 20.8384 114.165 12.3384 130.665 7.83838L131.165 9.33838Z" fill="#EFC7D3" stroke="black" stroke-width="0.5"/>
<path d="M10.1657 48.3384H4.16571C1.66504 52.3384 1.66504 62.3384 2.16571 65.8384C0.665039 66.8384 0.665637 71.3384 1.66571 72.8384L5.66571 73.3384V74.8384L1.66571 76.8384V78.8384C5.66571 79.8384 14.1657 81.8384 22.1657 81.3384V79.8384H39.6657C38.999 71.3384 40.6657 60.8384 49.6657 53.8384C47.1657 49.8384 40.1657 45.3384 37.1657 44.8384C27.1657 43.8384 12.1657 46.3384 10.1657 48.3384Z" fill="#EFC7D3" stroke="black" stroke-width="0.5"/>
<path d="M93.167 35.8384C75.3337 36.6717 43.667 41.5384 33.167 44.5384L37.167 44.8384C42.167 46.3384 47.667 50.6717 49.667 53.8384C62.666 44.3384 88.166 51.3384 86.666 78.8384H96.666C89.666 67.8384 90.666 45.8384 93.167 35.8384Z" fill="#EFC7D3" stroke="black" stroke-width="0.5"/>
<path d="M10.165 48.3384H4.16504C36.6652 28.8383 58.6653 34.8384 84.665 30.3384L93.6653 35.8384C76.6653 36.8384 47.665 40.3384 33.665 44.5384C25.665 44.3384 11.665 46.3384 10.165 48.3384Z" fill="#EFC7D3" stroke="black" stroke-width="0.5"/>
<path d="M37.1665 44.8385C29.6665 43.8384 12.6665 45.8384 10.1665 48.3385C9.36649 50.7384 12.4998 53.6717 14.1665 54.8384C23.6665 56.3384 37.1665 50.3384 37.1665 44.8385Z" fill="#EFC7D3" stroke="black" stroke-width="0.5"/>
<path d="M4.16573 48.3384C11.1657 49.3384 5.16573 59.8384 2.16573 64.8384C1.66566 57.8384 2.16553 52.3384 4.16573 48.3384Z" fill="#EFC7D3" stroke="black" stroke-width="0.5"/>
<path d="M22.165 84.3384V79.8384H39.665L40.165 84.3384H22.165Z" fill="#EFC7D3" stroke="black" stroke-width="0.5"/>
<path d="M2.66699 65.8384C4.16699 68.3384 6.16699 71.505 5.66699 73.3384M22.167 79.8384C11.667 80.3384 7.16699 76.3384 8.16699 72.8384C8.66699 72.3384 10.167 70.8384 11.167 70.8384" stroke="black" stroke-width="0.5"/>
<path d="M32.167 74.8384C29.667 70.8384 24.167 65.8385 21.167 64.3385C19.4169 63.8384 16.7919 63.9634 14.0418 64.3385C12.4169 65.6718 11.167 68.8384 11.667 71.8384C11.667 73.005 12.9744 75.3384 15.667 75.3384C20.167 75.3384 27.167 75.8384 32.167 74.8384Z" fill="#EFC7D3"/>
<path d="M6.16699 65.8385C8.41693 65.3384 11.2918 64.7135 14.0418 64.3385M14.0418 64.3385C16.7919 63.9634 19.4169 63.8384 21.167 64.3385C24.167 65.8385 29.667 70.8384 32.167 74.8384C27.167 75.8384 20.167 75.3384 15.667 75.3384C12.9744 75.3384 11.667 73.005 11.667 71.8384C11.167 68.8384 12.4168 65.6718 14.0418 64.3385Z" stroke="black" stroke-width="0.5"/>
<path d="M11.667 71.3385C19.667 69.8385 23.167 72.467 26.167 73.967M13.167 74.3385L30.667 73.8385" stroke="black" stroke-width="0.5"/>
<path d="M22.165 82.8384H31.665C33.665 82.8384 35.165 80.8384 34.665 79.8384M38.165 79.8384V84.3384" stroke="black" stroke-width="0.5"/>
<path d="M22.1669 81.3386C17.6669 81.3386 13.1669 81.8386 1.66694 78.8386V76.8386L5.66694 74.8386V73.3386L1.66694 72.8386C1.16602 71.3384 0.166211 68.3384 2.16621 65.8384C1.66645 57.8384 2.16645 51.3384 4.16694 48.3381C36.6669 28.8385 58.6669 34.8386 84.6669 30.3386C162.667 -24.6615 244.667 12.3384 281.667 26.8386L295.167 28.8384L295.667 35.8384V38.8384C297.165 43.8384 298.5 48.3384 297.167 50.3384C299.667 51.3384 302.167 54.505 302.167 56.3384L300.167 66.3384C300.619 77.1863 298.211 77.4106 288.879 77.723C287.888 77.7562 285.819 77.7904 284.667 77.8384V79.3384L259.667 79.7694M22.1669 81.3386V84.3386H40.1653L39.6669 79.8386M22.1669 81.3386V79.8386H39.6669M39.6669 79.8386C36.6669 38.3386 90.1669 41.3386 86.6669 80.3386V82.8384H213.167C207.167 39.3384 261.667 39.3384 259.667 79.7694M259.165 79.7694H259.667" stroke="black"/>
</svg>
