<svg width="303" height="96" viewBox="0 0 303 96" fill="none" xmlns="http://www.w3.org/2000/svg">
<circle cx="62.6772" cy="74.0151" r="20.5" stroke="black"/>
<circle cx="235.678" cy="74.0151" r="20.5" stroke="black"/>
<path d="M132.676 12.515L131.176 9.01499C171.176 1.0151 192.676 1.51514 231.676 13.0151L228.176 17.5151C208.176 9.51505 190.176 8.51505 174.176 8.01511C171.676 7.51511 167.676 7.51508 165.176 8.01499C155.176 8.01511 143.176 9.51511 132.676 12.515Z" fill="#EFC7D3" stroke="black" stroke-width="0.5"/>
<path d="M131.176 9.01518L130.676 7.51518C166.676 -3.48486 199.176 0.515011 234.676 9.51518L231.676 13.0152C191.676 0.515137 165.676 2.01514 131.176 9.01518Z" fill="#EFC7D3" stroke="black" stroke-width="0.5"/>
<path d="M131.176 9.01512C182.676 -2.4849 211.176 7.51514 231.676 13.0151" stroke="black" stroke-width="0.5"/>
<path d="M170.677 30.0151L174.177 8.01514C207.677 9.01514 219.177 14.5151 223.677 16.0151L226.16 28.0151C199.17 28.0158 181.675 29.5152 170.677 30.0151Z" fill="#EFC7D3"/>
<path d="M226.677 30.5151L223.677 16.0151C219.177 14.5151 207.677 9.01514 174.177 8.01514L170.677 30.0151C181.677 29.5151 199.177 28.0151 226.177 28.0151" stroke="black" stroke-width="0.5"/>
<path d="M165.177 8.01514C132.177 9.01514 112.177 18.0151 93.1772 35.5151L95.6772 33.5151L159.677 30.5151L165.177 8.01514Z" fill="#EFC7D3" stroke="black" stroke-width="0.5"/>
<path d="M239.676 22.5151C236.009 19.8485 230.176 17.5151 223.676 16.0151L226.176 28.0151H232.676C235.676 26.5151 238.676 24.2839 239.676 22.5151Z" fill="#EFC7D3" stroke="black" stroke-width="0.5"/>
<path d="M96.6772 78.5151H163.677L198.177 77.0151H212.677L213.177 82.5151H199.177H98.1772H86.6772V78.5151H96.6772Z" fill="#EFC7D3"/>
<path d="M96.6772 78.5151H163.677L198.177 77.0151M96.6772 78.5151C96.6772 80.0151 97.1772 81.0151 98.1772 82.5151M96.6772 78.5151H86.6772V82.5151H98.1772M198.177 77.0151L199.177 82.5151M198.177 77.0151H212.677L213.177 82.5151H199.177M199.177 82.5151H98.1772" stroke="black" stroke-width="0.5"/>
<path d="M96.6764 78.5151C92.1772 74.0151 89.1773 52.0151 93.1764 35.5151L165.177 31.5151C161.177 36.5151 160.177 70.5151 163.677 78.5151H96.6764Z" fill="#EFC7D3" stroke="black" stroke-width="0.5"/>
<path d="M228.677 30.5151L165.177 31.5151C161.177 36.5151 160.177 70.5151 163.677 78.5151L198.177 77.0151C202.677 75.5151 209.177 70.0151 228.677 30.5151Z" fill="#EFC7D3" stroke="black" stroke-width="0.5"/>
<path d="M170.677 30.0152C166.177 30.5152 162.677 30.5152 159.677 30.5152L165.177 8.01521C168.177 7.51514 171.177 7.51514 174.177 8.01521L170.677 30.0152Z" fill="#EFC7D3" stroke="black" stroke-width="0.5"/>
<path d="M99.1772 32.0153C103.677 37.5153 110.677 34.0153 114.677 32.5153C115.677 17.0152 102.677 25.0151 99.1772 32.0153Z" fill="#EFC7D3" stroke="black" stroke-width="0.5"/>
<path d="M234.676 9.51514L231.676 13.0151C248.676 18.5151 259.176 21.5151 271.676 28.0151H273.176L281.176 26.5151C266.176 20.0151 258.676 17.5151 234.676 9.51514Z" fill="#EDADBF" stroke="black" stroke-width="0.5"/>
<path d="M271.676 28.0151C261.176 22.5151 242.176 16.0151 231.676 13.0151L229.676 15.5151L244.676 23.0151C243.176 25.5151 239.176 27.5151 233.176 30.2151C245.176 29.5151 262.176 28.5151 271.676 28.0151Z" fill="#EDADBF" stroke="black" stroke-width="0.5"/>
<path d="M277.178 34.3151L283.176 32.0151L272.677 28.0151L228.677 30.5151C221.177 45.5151 206.177 76.0151 198.177 77.0151H212.677C211.177 66.0151 220.677 42.5151 245.678 51.5151C256.178 46.0151 266.178 40.5151 277.178 34.3151Z" fill="#EDADBF" stroke="black" stroke-width="0.5"/>
<path d="M278.176 34.0152C266.176 40.5152 256.176 46.0152 245.676 51.5152C250.176 54.5151 260.676 60.5151 259.676 79.5151L284.676 79.0151V77.5151C293.176 76.5151 301.676 80.0151 300.176 66.0151L302.176 56.0151C302.176 54.5151 299.676 50.5151 297.176 50.0151C298.676 47.5151 295.676 38.5151 295.676 38.5151V37.0151L291.676 34.0151L286.676 32.5151L283.176 32.0151L278.176 34.0152Z" fill="#EDADBF" stroke="black" stroke-width="0.5"/>
<path d="M281.176 26.5151L272.676 28.0151L283.176 32.0151C292.676 33.0151 291.675 34.5151 295.67 36.9353L295.176 28.5151L281.176 26.5151Z" fill="#EDADBF"/>
<path d="M295.676 37.0151L295.67 36.9353M295.67 36.9353L295.176 28.5151L281.176 26.5151L272.676 28.0151L283.176 32.0151C292.676 33.0151 291.675 34.5151 295.67 36.9353Z" stroke="black" stroke-width="0.5"/>
<path d="M294.178 36.5153C293.678 34.0152 282.678 33.8151 277.178 34.3151" stroke="black" stroke-width="0.5"/>
<path d="M300.178 66.5151L260.678 68.5151C260.178 63.5151 258.011 59.3485 256.178 57.5151L302.178 55.0151M300.678 52.5151C289.678 51.0151 278.678 46.2151 266.678 40.2151M228.678 30.5151L272.678 28.0151L281.178 26.5151" stroke="black" stroke-width="0.5"/>
<path d="M290.678 40.5151C290.678 38.5151 289.678 34.5151 286.178 32.5151C288.399 32.5151 291.775 33.5555 294.287 35.9251C294.75 37.4551 293.678 41.0151 290.636 42.5151C290.622 41.9249 290.678 41.2394 290.678 40.5151Z" fill="#EDADBF"/>
<path d="M272.678 43.0151C279.673 43.3649 285.69 43.47 291.071 44.0151M297.678 45.0151C295.575 44.5645 293.381 44.2492 291.071 44.0151M295.678 37.5151C295.26 36.93 294.791 36.4008 294.287 35.9251M291.071 44.0151C290.745 43.6704 290.651 43.1473 290.636 42.5151M290.636 42.5151C290.622 41.9249 290.678 41.2394 290.678 40.5151C290.678 38.5151 289.678 34.5151 286.178 32.5151C288.399 32.5151 291.775 33.5555 294.287 35.9251M290.636 42.5151C293.678 41.0151 294.75 37.4551 294.287 35.9251" stroke="black" stroke-width="0.5"/>
<path d="M290.678 40.5151C286.178 40.5151 284.178 36.5151 283.178 34.0151" stroke="black" stroke-width="0.5"/>
<path d="M132.676 12.6151C119.176 16.6151 107.176 22.5151 93.1758 35.5151C100.176 23.5151 115.676 14.0151 131.176 9.01514L132.676 12.6151Z" stroke="black" stroke-width="0.5"/>
<path d="M131.176 9.01514C111.176 14.6892 93.1758 32.0151 85.1758 30.0151C98.1758 20.5151 114.176 12.0151 130.676 7.51514L131.176 9.01514Z" stroke="black" stroke-width="0.5"/>
<path d="M10.1764 48.0151H4.17645C1.67578 52.0151 1.67578 62.0151 2.17645 65.5151C0.675781 66.5151 0.676379 71.0151 1.67645 72.5151L5.67645 73.0151V74.5151L1.67645 76.5151V78.5151C5.67645 79.5151 14.1764 81.5151 22.1764 81.0151V79.5151H39.6764C39.0098 71.0151 40.6764 60.5151 49.6764 53.5151C47.1764 49.5151 40.1764 45.0151 37.1764 44.5151C27.1764 43.5151 12.1764 46.0151 10.1764 48.0151Z" stroke="black" stroke-width="0.5"/>
<path d="M93.1772 35.5151C75.3439 36.3485 43.6772 41.2151 33.1772 44.2151L37.1772 44.5151C42.1772 46.0151 47.6772 50.3485 49.6772 53.5151C62.6763 44.0151 88.1763 51.0151 86.6763 78.5151H96.6763C89.6763 67.5151 90.6763 45.5151 93.1772 35.5151Z" stroke="black" stroke-width="0.5"/>
<path d="M10.1758 48.0152H4.17578C36.676 28.5151 58.676 34.5151 84.6758 30.0151L93.676 35.5151C76.676 36.5151 47.6758 40.0151 33.6758 44.2151C25.6758 44.0151 11.6758 46.0151 10.1758 48.0152Z" stroke="black" stroke-width="0.5"/>
<path d="M37.1772 44.5152C29.6772 43.5151 12.6772 45.5151 10.1772 48.0152C9.37724 50.4152 12.5106 53.3485 14.1772 54.5151C23.6772 56.0151 37.1772 50.0151 37.1772 44.5152Z" stroke="black" stroke-width="0.5"/>
<path d="M4.17648 48.0151C11.1765 49.0151 5.17648 59.5151 2.17648 64.5151C1.67641 57.5151 2.17627 52.0151 4.17648 48.0151Z" stroke="black" stroke-width="0.5"/>
<path d="M22.1758 84.0151V79.5151H39.6758L40.1758 84.0151H22.1758Z" stroke="black" stroke-width="0.5"/>
<path d="M2.67773 65.5151C4.17773 68.0151 6.17773 71.1818 5.67773 73.0151M22.1777 79.5151C11.6777 80.0151 7.17773 76.0151 8.17773 72.5151C8.67773 72.0151 10.1777 70.5151 11.1777 70.5151" stroke="black" stroke-width="0.5"/>
<path d="M6.17773 65.5152C8.42768 65.0152 11.3026 64.3902 14.0525 64.0152M14.0525 64.0152C16.8026 63.6402 19.4277 63.5152 21.1777 64.0152C24.1777 65.5152 29.6777 70.5151 32.1777 74.5151C27.1777 75.5151 20.1777 75.0151 15.6777 75.0151C12.9852 75.0151 11.6777 72.6818 11.6777 71.5151C11.1777 68.5151 12.4276 65.3485 14.0525 64.0152Z" stroke="black" stroke-width="0.5"/>
<path d="M11.6777 71.0152C19.6777 69.5153 23.1777 72.1437 26.1777 73.6437M13.1777 74.0153L30.6777 73.5153" stroke="black" stroke-width="0.5"/>
<path d="M22.1758 82.5151H31.6758C33.6758 82.5151 35.1758 80.5151 34.6758 79.5151M38.1758 79.5151V84.0151" stroke="black" stroke-width="0.5"/>
<path d="M22.1772 81.0154C17.6772 81.0154 13.1772 81.5154 1.67719 78.5154V76.5154L5.67719 74.5154V73.0154L1.67719 72.5154C1.17627 71.0151 0.176465 68.0151 2.17646 65.5151C1.6767 57.5151 2.1767 51.0151 4.17719 48.0149C36.6772 28.5153 58.6772 34.5153 84.6772 30.0153C162.677 -24.9848 244.677 12.0151 281.677 26.5153L295.177 28.5151L295.677 35.5151V38.5151C297.176 43.5151 298.511 48.0151 297.177 50.0151C299.677 51.0151 302.177 54.1818 302.177 56.0151L300.177 66.0151C300.629 76.863 298.221 77.0873 288.889 77.3998C287.898 77.433 285.829 77.4671 284.677 77.5151V79.0151L259.677 79.4462M22.1772 81.0154V84.0154H40.1755L39.6772 79.5154M22.1772 81.0154V79.5154H39.6772M39.6772 79.5154C36.6772 38.0154 90.1772 41.0154 86.6772 80.0154V82.5151H213.177C207.177 39.0151 261.677 39.0151 259.677 79.4462M259.176 79.4462H259.677" stroke="black"/>
</svg>
