<svg width="303" height="96" viewBox="0 0 303 96" fill="none" xmlns="http://www.w3.org/2000/svg">
<circle cx="62.8853" cy="74.0303" r="20.5" fill="#EFC7D3" stroke="black"/>
<circle cx="235.885" cy="74.0303" r="20.5" fill="#EFC7D3" stroke="black"/>
<path d="M132.884 12.5301L131.384 9.03013C171.384 1.03024 192.884 1.53027 231.884 13.0302L228.384 17.5302C208.384 9.53018 190.384 8.53018 174.384 8.03025C171.884 7.53025 167.884 7.53021 165.384 8.03013C155.384 8.03025 143.384 9.53025 132.884 12.5301Z" fill="#EDADBF" stroke="black" stroke-width="0.5"/>
<path d="M131.384 9.03032L130.884 7.53032C166.884 -3.46973 199.384 0.530148 234.884 9.53032L231.884 13.0303C191.884 0.530273 165.884 2.03027 131.384 9.03032Z" fill="#EDADBF" stroke="black" stroke-width="0.5"/>
<path d="M131.384 9.03038C182.884 -2.46964 211.384 7.5304 231.884 13.0304" stroke="black" stroke-width="0.5"/>
<path d="M170.885 30.0303L174.385 8.03027C207.885 9.03027 219.385 14.5303 223.885 16.0303L226.368 28.0303C199.378 28.0309 181.883 29.5304 170.885 30.0303Z" fill="#EDADBF"/>
<path d="M226.885 30.5303L223.885 16.0303C219.385 14.5303 207.885 9.03027 174.385 8.03027L170.885 30.0303C181.885 29.5303 199.385 28.0303 226.385 28.0303" stroke="black" stroke-width="0.5"/>
<path d="M165.385 8.03027C132.385 9.03027 112.385 18.0303 93.3853 35.5303L95.8853 33.5303L159.885 30.5303L165.385 8.03027Z" fill="#EDADBF" stroke="black" stroke-width="0.5"/>
<path d="M239.884 22.5303C236.217 19.8636 230.384 17.5303 223.884 16.0303L226.384 28.0303H232.884C235.884 26.5303 238.884 24.299 239.884 22.5303Z" fill="#EDADBF" stroke="black" stroke-width="0.5"/>
<path d="M96.8853 78.5303H163.885L198.385 77.0303H212.885L213.385 82.5303H199.385H98.3853H86.8853V78.5303H96.8853Z" fill="#EDADBF"/>
<path d="M96.8853 78.5303H163.885L198.385 77.0303M96.8853 78.5303C96.8853 80.0303 97.3853 81.0303 98.3853 82.5303M96.8853 78.5303H86.8853V82.5303H98.3853M198.385 77.0303L199.385 82.5303M198.385 77.0303H212.885L213.385 82.5303H199.385M199.385 82.5303H98.3853" stroke="black" stroke-width="0.5"/>
<path d="M96.8844 78.5303C92.3852 74.0303 89.3853 52.0303 93.3844 35.5303L165.385 31.5303C161.385 36.5303 160.385 70.5303 163.885 78.5303H96.8844Z" fill="#EDADBF" stroke="black" stroke-width="0.5"/>
<path d="M228.885 30.5303L165.385 31.5303C161.385 36.5303 160.385 70.5303 163.885 78.5303L198.385 77.0303C202.885 75.5303 209.385 70.0303 228.885 30.5303Z" fill="#EDADBF" stroke="black" stroke-width="0.5"/>
<path d="M170.885 30.0303C166.385 30.5303 162.885 30.5303 159.885 30.5303L165.385 8.03035C168.385 7.53027 171.385 7.53027 174.385 8.03035L170.885 30.0303Z" fill="#EDADBF" stroke="black" stroke-width="0.5"/>
<path d="M99.3853 32.0305C103.885 37.5305 110.885 34.0305 114.885 32.5305C115.885 17.0304 102.885 25.0304 99.3853 32.0305Z" fill="#EDADBF" stroke="black" stroke-width="0.5"/>
<path d="M234.884 9.53027L231.884 13.0303C248.884 18.5303 259.384 21.5303 271.884 28.0303H273.384L281.384 26.5303C266.384 20.0303 258.884 17.5303 234.884 9.53027Z" fill="#EFC7D3" stroke="black" stroke-width="0.5"/>
<path d="M271.884 28.0303C261.384 22.5303 242.384 16.0303 231.884 13.0303L229.884 15.5303L244.884 23.0303C243.384 25.5303 239.384 27.5303 233.384 30.2303C245.384 29.5303 262.384 28.5303 271.884 28.0303Z" fill="#EFC7D3" stroke="black" stroke-width="0.5"/>
<path d="M277.385 34.3303L283.384 32.0303L272.884 28.0303L228.884 30.5303C221.384 45.5303 206.384 76.0303 198.384 77.0303H212.884C211.384 66.0303 220.884 42.5303 245.885 51.5303C256.385 46.0303 266.385 40.5303 277.385 34.3303Z" fill="#EFC7D3" stroke="black" stroke-width="0.5"/>
<path d="M278.384 34.0303C266.384 40.5303 256.384 46.0303 245.884 51.5303C250.384 54.5303 260.884 60.5303 259.884 79.5303L284.884 79.0303V77.5303C293.384 76.5303 301.884 80.0303 300.384 66.0303L302.384 56.0303C302.384 54.5303 299.884 50.5303 297.384 50.0303C298.884 47.5303 295.884 38.5303 295.884 38.5303V37.0303L291.884 34.0303L286.884 32.5303L283.384 32.0303L278.384 34.0303Z" fill="#EFC7D3" stroke="black" stroke-width="0.5"/>
<path d="M281.384 26.5303L272.884 28.0303L283.384 32.0303C292.884 33.0303 291.883 34.5303 295.878 36.9505L295.384 28.5303L281.384 26.5303Z" fill="#EFC7D3"/>
<path d="M295.884 37.0303L295.878 36.9505M295.878 36.9505L295.384 28.5303L281.384 26.5303L272.884 28.0303L283.384 32.0303C292.884 33.0303 291.883 34.5303 295.878 36.9505Z" stroke="black" stroke-width="0.5"/>
<path d="M294.385 36.5305C293.885 34.0304 282.885 33.8303 277.385 34.3303" stroke="black" stroke-width="0.5"/>
<path d="M300.385 66.5303L260.885 68.5303C260.385 63.5303 258.219 59.3636 256.385 57.5303L302.385 55.0303M300.885 52.5303C289.885 51.0303 278.885 46.2303 266.885 40.2303M228.885 30.5303L272.885 28.0303L281.385 26.5303" stroke="black" stroke-width="0.5"/>
<path d="M290.885 40.5303C290.885 38.5303 289.885 34.5303 286.385 32.5303C288.606 32.5303 291.983 33.5707 294.494 35.9403C294.958 37.4703 293.885 41.0303 290.843 42.5303C290.83 41.94 290.885 41.2546 290.885 40.5303Z" fill="#EFC7D3"/>
<path d="M272.885 43.0303C279.881 43.3801 285.898 43.4851 291.278 44.0303M297.885 45.0303C295.782 44.5796 293.589 44.2644 291.278 44.0303M295.885 37.5303C295.467 36.9451 294.998 36.4159 294.494 35.9403M291.278 44.0303C290.952 43.6855 290.858 43.1625 290.843 42.5303M290.843 42.5303C290.83 41.94 290.885 41.2546 290.885 40.5303C290.885 38.5303 289.885 34.5303 286.385 32.5303C288.606 32.5303 291.983 33.5707 294.494 35.9403M290.843 42.5303C293.885 41.0303 294.958 37.4703 294.494 35.9403" stroke="black" stroke-width="0.5"/>
<path d="M290.885 40.5303C286.385 40.5303 284.385 36.5303 283.385 34.0303" stroke="black" stroke-width="0.5"/>
<path d="M132.884 12.6302C119.384 16.6302 107.384 22.5303 93.3838 35.5303C100.384 23.5303 115.884 14.0303 131.384 9.03027L132.884 12.6302Z" fill="#EFC7D3" stroke="black" stroke-width="0.5"/>
<path d="M131.384 9.03027C111.384 14.7043 93.3838 32.0303 85.3838 30.0303C98.3838 20.5303 114.384 12.0303 130.884 7.53027L131.384 9.03027Z" fill="#EFC7D3" stroke="black" stroke-width="0.5"/>
<path d="M10.3845 48.0302H4.38446C1.88379 52.0302 1.88379 62.0302 2.38446 65.5302C0.883789 66.5302 0.884387 71.0302 1.88446 72.5302L5.88446 73.0302V74.5302L1.88446 76.5302V78.5302C5.88446 79.5302 14.3845 81.5302 22.3845 81.0302V79.5302H39.8845C39.2178 71.0302 40.8845 60.5302 49.8845 53.5302C47.3845 49.5302 40.3845 45.0302 37.3845 44.5302C27.3845 43.5302 12.3845 46.0302 10.3845 48.0302Z" fill="#EFC7D3" stroke="black" stroke-width="0.5"/>
<path d="M93.3853 35.5303C75.5519 36.3636 43.8853 41.2303 33.3853 44.2303L37.3853 44.5303C42.3853 46.0303 47.8853 50.3636 49.8853 53.5303C62.8843 44.0303 88.3843 51.0303 86.8843 78.5303H96.8843C89.8843 67.5303 90.8843 45.5303 93.3853 35.5303Z" fill="#EFC7D3" stroke="black" stroke-width="0.5"/>
<path d="M10.3838 48.0303H4.38379C36.884 28.5302 58.884 34.5303 84.8838 30.0303L93.884 35.5303C76.884 36.5303 47.8838 40.0303 33.8838 44.2303C25.8838 44.0303 11.8838 46.0303 10.3838 48.0303Z" fill="#EFC7D3" stroke="black" stroke-width="0.5"/>
<path d="M37.3852 44.5303C29.8852 43.5303 12.8852 45.5303 10.3852 48.0303C9.58524 50.4303 12.7186 53.3636 14.3852 54.5303C23.8853 56.0303 37.3852 50.0303 37.3852 44.5303Z" fill="#EFC7D3" stroke="black" stroke-width="0.5"/>
<path d="M4.38448 48.0303C11.3845 49.0303 5.38448 59.5303 2.38448 64.5303C1.88441 57.5303 2.38428 52.0303 4.38448 48.0303Z" fill="#EFC7D3" stroke="black" stroke-width="0.5"/>
<path d="M22.3838 84.0303V79.5303H39.8838L40.3838 84.0303H22.3838Z" fill="#EFC7D3" stroke="black" stroke-width="0.5"/>
<path d="M2.88574 65.5303C4.38574 68.0303 6.38574 71.1969 5.88574 73.0303M22.3857 79.5303C11.8857 80.0303 7.38574 76.0303 8.38574 72.5303C8.88574 72.0303 10.3857 70.5303 11.3857 70.5303" stroke="black" stroke-width="0.5"/>
<path d="M32.3857 74.5304C29.8857 70.5304 24.3857 65.5305 21.3857 64.0305C19.6357 63.5305 17.0106 63.6555 14.2605 64.0305C12.6356 65.3638 11.3857 68.5304 11.8857 71.5304C11.8857 72.6971 13.1932 75.0304 15.8857 75.0304C20.3857 75.0304 27.3857 75.5304 32.3857 74.5304Z" fill="#EFC7D3"/>
<path d="M6.38574 65.5305C8.63568 65.0304 11.5106 64.4055 14.2605 64.0305M14.2605 64.0305C17.0106 63.6555 19.6357 63.5305 21.3857 64.0305C24.3857 65.5305 29.8857 70.5304 32.3857 74.5304C27.3857 75.5304 20.3857 75.0304 15.8857 75.0304C13.1932 75.0304 11.8857 72.6971 11.8857 71.5304C11.3857 68.5304 12.6356 65.3638 14.2605 64.0305Z" stroke="black" stroke-width="0.5"/>
<path d="M11.8857 71.0305C19.8857 69.5305 23.3857 72.159 26.3857 73.659M13.3857 74.0305L30.8857 73.5305" stroke="black" stroke-width="0.5"/>
<path d="M22.3838 82.5303H31.8838C33.8838 82.5303 35.3838 80.5303 34.8838 79.5303M38.3838 79.5303V84.0303" stroke="black" stroke-width="0.5"/>
<path d="M22.3852 81.0305C17.8852 81.0305 13.3852 81.5305 1.8852 78.5305V76.5305L5.8852 74.5305V73.0305L1.8852 72.5305C1.38428 71.0303 0.384473 68.0303 2.38447 65.5303C1.88471 57.5303 2.38471 51.0303 4.3852 48.03C36.8852 28.5304 58.8852 34.5305 84.8852 30.0305C162.885 -24.9697 244.885 12.0303 281.885 26.5305L295.385 28.5303L295.885 35.5303V38.5303C297.384 43.5303 298.719 48.0303 297.385 50.0303C299.885 51.0303 302.385 54.1969 302.385 56.0303L300.385 66.0303C300.837 76.8782 298.429 77.1025 289.098 77.4149C288.106 77.4481 286.037 77.4823 284.885 77.5303V79.0303L259.885 79.4613M22.3852 81.0305V84.0305H40.3835L39.8852 79.5305M22.3852 81.0305V79.5305H39.8852M39.8852 79.5305C36.8852 38.0305 90.3852 41.0305 86.8852 80.0305V82.5303H213.385C207.385 39.0303 261.885 39.0303 259.885 79.4613M259.384 79.4613H259.885" stroke="black"/>
</svg>
