<svg width="304" height="96" viewBox="0 0 304 96" fill="none" xmlns="http://www.w3.org/2000/svg">
<circle cx="63.0938" cy="74.3384" r="20.5" fill="#EDADBF" stroke="black"/>
<circle cx="236.094" cy="74.3384" r="20.5" fill="#EDADBF" stroke="black"/>
<path d="M133.092 12.8382L131.592 9.33823C171.592 1.33835 193.092 1.83838 232.092 13.3383L228.592 17.8383C208.592 9.83829 190.592 8.83829 174.592 8.33836C172.092 7.83836 168.092 7.83832 165.592 8.33823C155.592 8.33836 143.592 9.83836 133.092 12.8382Z" stroke="black" stroke-width="0.5"/>
<path d="M131.592 9.33842L131.092 7.83842C167.092 -3.16162 199.592 0.838253 235.092 9.83842L232.092 13.3384C192.092 0.838379 166.092 2.33838 131.592 9.33842Z" stroke="black" stroke-width="0.5"/>
<path d="M131.592 9.33837C183.092 -2.16166 211.592 7.83838 232.092 13.3384" stroke="black" stroke-width="0.5"/>
<path d="M227.094 30.8384L224.094 16.3384C219.594 14.8384 208.094 9.33838 174.594 8.33838L171.094 30.3384C182.094 29.8384 199.594 28.3384 226.594 28.3384" stroke="black" stroke-width="0.5"/>
<path d="M165.594 8.33838C132.594 9.33838 112.594 18.3384 93.5938 35.8384L96.0938 33.8384L160.094 30.8384L165.594 8.33838Z" stroke="black" stroke-width="0.5"/>
<path d="M240.092 22.8384C236.425 20.1717 230.592 17.8384 224.092 16.3384L226.592 28.3384H233.092C236.092 26.8384 239.092 24.6071 240.092 22.8384Z" stroke="black" stroke-width="0.5"/>
<path d="M97.0938 78.8384H164.094L198.594 77.3384M97.0938 78.8384C97.0938 80.3384 97.5938 81.3384 98.5938 82.8384M97.0938 78.8384H87.0938V82.8384H98.5938M198.594 77.3384L199.594 82.8384M198.594 77.3384H213.094L213.594 82.8384H199.594M199.594 82.8384H98.5938" stroke="black" stroke-width="0.5"/>
<path d="M97.0929 78.8384C92.5937 74.3384 89.5938 52.3384 93.5929 35.8384L165.594 31.8384C161.594 36.8384 160.594 70.8384 164.094 78.8384H97.0929Z" stroke="black" stroke-width="0.5"/>
<path d="M229.094 30.8384L165.594 31.8384C161.594 36.8384 160.594 70.8384 164.094 78.8384L198.594 77.3384C203.094 75.8384 209.594 70.3384 229.094 30.8384Z" stroke="black" stroke-width="0.5"/>
<path d="M171.094 30.3385C166.594 30.8385 163.094 30.8385 160.094 30.8385L165.594 8.33845C168.594 7.83838 171.594 7.83838 174.594 8.33845L171.094 30.3385Z" stroke="black" stroke-width="0.5"/>
<path d="M99.5938 32.3385C104.094 37.8385 111.094 34.3385 115.094 32.8385C116.094 17.3384 103.094 25.3384 99.5938 32.3385Z" stroke="black" stroke-width="0.5"/>
<path d="M235.092 9.83838L232.092 13.3384C249.092 18.8384 259.592 21.8384 272.092 28.3384H273.592L281.592 26.8384C266.592 20.3384 259.092 17.8384 235.092 9.83838Z" stroke="black" stroke-width="0.5"/>
<path d="M272.092 28.3384C261.592 22.8384 242.592 16.3384 232.092 13.3384L230.092 15.8384L245.092 23.3384C243.592 25.8384 239.592 27.8384 233.592 30.5384C245.592 29.8384 262.592 28.8384 272.092 28.3384Z" stroke="black" stroke-width="0.5"/>
<path d="M277.594 34.6384L283.592 32.3384L273.093 28.3384L229.093 30.8384C221.593 45.8384 206.593 76.3384 198.593 77.3384H213.093C211.593 66.3384 221.093 42.8384 246.094 51.8384C256.594 46.3384 266.594 40.8384 277.594 34.6384Z" stroke="black" stroke-width="0.5"/>
<path d="M278.592 34.3384C266.592 40.8384 256.592 46.3384 246.092 51.8384C250.592 54.8384 261.092 60.8384 260.092 79.8384L285.092 79.3384V77.8384C293.592 76.8384 302.092 80.3384 300.592 66.3384L302.592 56.3384C302.592 54.8384 300.092 50.8384 297.592 50.3384C299.092 47.8384 296.092 38.8384 296.092 38.8384V37.3384L292.092 34.3384L287.092 32.8384L283.592 32.3384L278.592 34.3384Z" stroke="black" stroke-width="0.5"/>
<path d="M296.092 37.3384L296.086 37.2586M296.086 37.2586L295.592 28.8384L281.592 26.8384L273.092 28.3384L283.592 32.3384C293.092 33.3384 292.091 34.8384 296.086 37.2586Z" stroke="black" stroke-width="0.5"/>
<path d="M294.594 36.8386C294.094 34.3385 283.094 34.1384 277.594 34.6384" stroke="black" stroke-width="0.5"/>
<path d="M300.594 66.8384L261.094 68.8384C260.594 63.8384 258.427 59.6717 256.594 57.8384L302.594 55.3384M301.094 52.8384C290.094 51.3384 279.094 46.5384 267.094 40.5384M229.094 30.8384L273.094 28.3384L281.594 26.8384" stroke="black" stroke-width="0.5"/>
<path d="M273.094 43.3384C280.089 43.6882 286.106 43.7933 291.487 44.3384M298.094 45.3384C295.991 44.8877 293.798 44.5725 291.487 44.3384M296.094 37.8384C295.676 37.2533 295.207 36.724 294.703 36.2484M291.487 44.3384C291.161 43.9936 291.067 43.4706 291.052 42.8384M291.052 42.8384C291.038 42.2481 291.094 41.5627 291.094 40.8384C291.094 38.8384 290.094 34.8384 286.594 32.8384C288.815 32.8384 292.191 33.8788 294.703 36.2484M291.052 42.8384C294.094 41.3384 295.166 37.7784 294.703 36.2484" stroke="black" stroke-width="0.5"/>
<path d="M291.094 40.8384C286.594 40.8384 284.594 36.8384 283.594 34.3384" stroke="black" stroke-width="0.5"/>
<path d="M133.092 12.9384C119.592 16.9384 107.592 22.8384 93.5923 35.8384C100.592 23.8384 116.092 14.3384 131.592 9.33838L133.092 12.9384Z" fill="#EFC7D3" stroke="black" stroke-width="0.5"/>
<path d="M131.592 9.33838C111.592 15.0124 93.5923 32.3384 85.5923 30.3384C98.5923 20.8384 114.592 12.3384 131.092 7.83838L131.592 9.33838Z" fill="#EFC7D3" stroke="black" stroke-width="0.5"/>
<path d="M10.593 48.3384H4.59295C2.09229 52.3384 2.09229 62.3384 2.59295 65.8384C1.09229 66.8384 1.09288 71.3384 2.09295 72.8384L6.09295 73.3384V74.8384L2.09295 76.8384V78.8384C6.09295 79.8384 14.593 81.8384 22.593 81.3384V79.8384H40.0929C39.4263 71.3384 41.0929 60.8384 50.0929 53.8384C47.5929 49.8384 40.5929 45.3384 37.5929 44.8384C27.5929 43.8384 12.593 46.3384 10.593 48.3384Z" fill="#EFC7D3" stroke="black" stroke-width="0.5"/>
<path d="M93.5938 35.8384C75.7604 36.6717 44.0938 41.5384 33.5938 44.5384L37.5938 44.8384C42.5938 46.3384 48.0938 50.6717 50.0938 53.8384C63.0928 44.3384 88.5928 51.3384 87.0928 78.8384H97.0928C90.0928 67.8384 91.0928 45.8384 93.5938 35.8384Z" fill="#EFC7D3" stroke="black" stroke-width="0.5"/>
<path d="M10.5918 48.3384H4.5918C37.092 28.8383 59.092 34.8384 85.0918 30.3384L94.092 35.8384C77.092 36.8384 48.0918 40.3384 34.0918 44.5384C26.0918 44.3384 12.0918 46.3384 10.5918 48.3384Z" fill="#EFC7D3" stroke="black" stroke-width="0.5"/>
<path d="M37.5937 44.8385C30.0937 43.8384 13.0937 45.8384 10.5937 48.3385C9.79374 50.7384 12.9271 53.6717 14.5937 54.8384C24.0938 56.3384 37.5937 50.3384 37.5937 44.8385Z" fill="#EFC7D3" stroke="black" stroke-width="0.5"/>
<path d="M4.59298 48.3384C11.593 49.3384 5.59298 59.8384 2.59298 64.8384C2.09291 57.8384 2.59277 52.3384 4.59298 48.3384Z" fill="#EFC7D3" stroke="black" stroke-width="0.5"/>
<path d="M22.5923 84.3384V79.8384H40.0923L40.5923 84.3384H22.5923Z" fill="#EFC7D3" stroke="black" stroke-width="0.5"/>
<path d="M3.09375 65.8384C4.59375 68.3384 6.59375 71.505 6.09375 73.3384M22.5938 79.8384C12.0938 80.3384 7.59375 76.3384 8.59375 72.8384C9.09375 72.3384 10.5938 70.8384 11.5938 70.8384" stroke="black" stroke-width="0.5"/>
<path d="M32.5938 74.8384C30.0938 70.8384 24.5938 65.8385 21.5938 64.3385C19.8437 63.8384 17.2186 63.9634 14.4685 64.3385C12.8436 65.6718 11.5938 68.8384 12.0938 71.8384C12.0938 73.005 13.4012 75.3384 16.0938 75.3384C20.5938 75.3384 27.5938 75.8384 32.5938 74.8384Z" fill="#EFC7D3"/>
<path d="M6.59375 65.8385C8.84369 65.3384 11.7186 64.7135 14.4685 64.3385M14.4685 64.3385C17.2186 63.9634 19.8437 63.8384 21.5938 64.3385C24.5938 65.8385 30.0938 70.8384 32.5938 74.8384C27.5938 75.8384 20.5938 75.3384 16.0938 75.3384C13.4012 75.3384 12.0938 73.005 12.0938 71.8384C11.5938 68.8384 12.8436 65.6718 14.4685 64.3385Z" stroke="black" stroke-width="0.5"/>
<path d="M12.0938 71.3385C20.0938 69.8385 23.5938 72.467 26.5938 73.967M13.5938 74.3385L31.0938 73.8385" stroke="black" stroke-width="0.5"/>
<path d="M22.5918 82.8384H32.0918C34.0918 82.8384 35.5918 80.8384 35.0918 79.8384M38.5918 79.8384V84.3384" stroke="black" stroke-width="0.5"/>
<path d="M22.5937 81.3386C18.0937 81.3386 13.5937 81.8386 2.0937 78.8386V76.8386L6.0937 74.8386V73.3386L2.0937 72.8386C1.59277 71.3384 0.592969 68.3384 2.59296 65.8384C2.09321 57.8384 2.59321 51.3384 4.5937 48.3381C37.0937 28.8385 59.0937 34.8386 85.0937 30.3386C163.094 -24.6615 245.094 12.3384 282.094 26.8386L295.594 28.8384L296.094 35.8384V38.8384C297.592 43.8384 298.927 48.3384 297.594 50.3384C300.094 51.3384 302.594 54.505 302.594 56.3384L300.594 66.3384C301.046 77.1863 298.638 77.4106 289.306 77.723C288.315 77.7562 286.246 77.7904 285.094 77.8384V79.3384L260.094 79.7694M22.5937 81.3386V84.3386H40.592L40.0937 79.8386M22.5937 81.3386V79.8386H40.0937M40.0937 79.8386C37.0937 38.3386 90.5937 41.3386 87.0937 80.3386V82.8384H213.594C207.594 39.3384 262.094 39.3384 260.094 79.7694M259.592 79.7694H260.094" stroke="black"/>
</svg>
