<svg width="303" height="96" viewBox="0 0 303 96" fill="none" xmlns="http://www.w3.org/2000/svg">
<circle cx="62.8545" cy="74.0151" r="20.5" fill="#EFC7D3" stroke="black"/>
<circle cx="235.854" cy="74.0151" r="20.5" fill="#EFC7D3" stroke="black"/>
<path d="M132.853 12.515L131.353 9.01499C171.353 1.0151 192.853 1.51514 231.853 13.0151L228.353 17.5151C208.353 9.51505 190.353 8.51505 174.353 8.01511C171.853 7.51511 167.853 7.51508 165.353 8.01499C155.353 8.01511 143.353 9.51511 132.853 12.515Z" fill="#EFC7D3" stroke="black" stroke-width="0.5"/>
<path d="M131.353 9.01518L130.853 7.51518C166.853 -3.48486 199.353 0.515011 234.853 9.51518L231.853 13.0152C191.853 0.515137 165.853 2.01514 131.353 9.01518Z" fill="#EFC7D3" stroke="black" stroke-width="0.5"/>
<path d="M131.353 9.01512C182.853 -2.4849 211.353 7.51514 231.853 13.0151" stroke="black" stroke-width="0.5"/>
<path d="M170.854 30.0151L174.354 8.01514C207.854 9.01514 219.354 14.5151 223.854 16.0151L226.337 28.0151C199.347 28.0158 181.852 29.5152 170.854 30.0151Z" fill="#EFC7D3"/>
<path d="M226.854 30.5151L223.854 16.0151C219.354 14.5151 207.854 9.01514 174.354 8.01514L170.854 30.0151C181.854 29.5151 199.354 28.0151 226.354 28.0151" stroke="black" stroke-width="0.5"/>
<path d="M165.354 8.01514C132.354 9.01514 112.354 18.0151 93.3545 35.5151L95.8545 33.5151L159.854 30.5151L165.354 8.01514Z" fill="#EFC7D3" stroke="black" stroke-width="0.5"/>
<path d="M239.853 22.5151C236.186 19.8485 230.353 17.5151 223.853 16.0151L226.353 28.0151H232.853C235.853 26.5151 238.853 24.2839 239.853 22.5151Z" fill="#EFC7D3" stroke="black" stroke-width="0.5"/>
<path d="M96.8545 78.5151H163.854L198.354 77.0151H212.854L213.354 82.5151H199.354H98.3545H86.8545V78.5151H96.8545Z" fill="#EFC7D3"/>
<path d="M96.8545 78.5151H163.854L198.354 77.0151M96.8545 78.5151C96.8545 80.0151 97.3545 81.0151 98.3545 82.5151M96.8545 78.5151H86.8545V82.5151H98.3545M198.354 77.0151L199.354 82.5151M198.354 77.0151H212.854L213.354 82.5151H199.354M199.354 82.5151H98.3545" stroke="black" stroke-width="0.5"/>
<path d="M96.8536 78.5151C92.3545 74.0151 89.3545 52.0151 93.3536 35.5151L165.354 31.5151C161.354 36.5151 160.354 70.5151 163.854 78.5151H96.8536Z" fill="#EFC7D3" stroke="black" stroke-width="0.5"/>
<path d="M228.854 30.5151L165.354 31.5151C161.355 36.5151 160.355 70.5151 163.854 78.5151L198.354 77.0151C202.854 75.5151 209.354 70.0151 228.854 30.5151Z" fill="#EFC7D3" stroke="black" stroke-width="0.5"/>
<path d="M170.854 30.0152C166.354 30.5152 162.854 30.5152 159.854 30.5152L165.354 8.01521C168.354 7.51514 171.354 7.51514 174.354 8.01521L170.854 30.0152Z" fill="#EFC7D3" stroke="black" stroke-width="0.5"/>
<path d="M99.3545 32.0153C103.854 37.5153 110.854 34.0153 114.854 32.5153C115.854 17.0152 102.854 25.0151 99.3545 32.0153Z" fill="#EFC7D3" stroke="black" stroke-width="0.5"/>
<path d="M234.853 9.51514L231.853 13.0151C248.853 18.5151 259.353 21.5151 271.853 28.0151H273.353L281.353 26.5151C266.353 20.0151 258.853 17.5151 234.853 9.51514Z" fill="#E0426F" stroke="black" stroke-width="0.5"/>
<path d="M271.853 28.0151C261.353 22.5151 242.353 16.0151 231.853 13.0151L229.853 15.5151L244.853 23.0151C243.353 25.5151 239.353 27.5151 233.353 30.2151C245.353 29.5151 262.353 28.5151 271.853 28.0151Z" fill="#E0426F" stroke="black" stroke-width="0.5"/>
<path d="M277.354 34.3151L283.353 32.0151L272.854 28.0151L228.854 30.5151C221.354 45.5151 206.354 76.0151 198.354 77.0151H212.854C211.354 66.0151 220.854 42.5151 245.854 51.5151C256.354 46.0151 266.354 40.5151 277.354 34.3151Z" fill="#E0426F" stroke="black" stroke-width="0.5"/>
<path d="M278.353 34.0152C266.353 40.5152 256.353 46.0152 245.853 51.5152C250.353 54.5151 260.853 60.5151 259.853 79.5151L284.853 79.0151V77.5151C293.353 76.5151 301.853 80.0151 300.353 66.0151L302.353 56.0151C302.353 54.5151 299.853 50.5151 297.353 50.0151C298.853 47.5151 295.853 38.5151 295.853 38.5151V37.0151L291.853 34.0151L286.853 32.5151L283.353 32.0151L278.353 34.0152Z" fill="#E0426F" stroke="black" stroke-width="0.5"/>
<path d="M281.353 26.5151L272.853 28.0151L283.353 32.0151C292.853 33.0151 291.851 34.5151 295.847 36.9353L295.353 28.5151L281.353 26.5151Z" fill="#E0426F"/>
<path d="M295.853 37.0151L295.847 36.9353M295.847 36.9353L295.353 28.5151L281.353 26.5151L272.853 28.0151L283.353 32.0151C292.853 33.0151 291.851 34.5151 295.847 36.9353Z" stroke="black" stroke-width="0.5"/>
<path d="M294.354 36.5153C293.854 34.0152 282.854 33.8151 277.354 34.3151" stroke="black" stroke-width="0.5"/>
<path d="M300.354 66.5151L260.854 68.5151C260.354 63.5151 258.188 59.3485 256.354 57.5151L302.354 55.0151M300.854 52.5151C289.854 51.0151 278.854 46.2151 266.854 40.2151M228.854 30.5151L272.854 28.0151L281.354 26.5151" stroke="black" stroke-width="0.5"/>
<path d="M290.854 40.5151C290.854 38.5151 289.854 34.5151 286.354 32.5151C288.575 32.5151 291.952 33.5555 294.463 35.9251C294.927 37.4551 293.854 41.0151 290.813 42.5151C290.799 41.9249 290.854 41.2394 290.854 40.5151Z" fill="#E0426F"/>
<path d="M272.854 43.0151C279.85 43.3649 285.867 43.47 291.248 44.0151M297.854 45.0151C295.751 44.5645 293.558 44.2492 291.248 44.0151M295.854 37.5151C295.437 36.93 294.967 36.4008 294.463 35.9251M291.248 44.0151C290.921 43.6704 290.827 43.1473 290.813 42.5151M290.813 42.5151C290.799 41.9249 290.854 41.2394 290.854 40.5151C290.854 38.5151 289.854 34.5151 286.354 32.5151C288.575 32.5151 291.952 33.5555 294.463 35.9251M290.813 42.5151C293.854 41.0151 294.927 37.4551 294.463 35.9251" stroke="black" stroke-width="0.5"/>
<path d="M290.854 40.5151C286.354 40.5151 284.354 36.5151 283.354 34.0151" stroke="black" stroke-width="0.5"/>
<path d="M132.853 12.6151C119.353 16.6151 107.353 22.5151 93.3525 35.5151C100.353 23.5151 115.853 14.0151 131.353 9.01514L132.853 12.6151Z" stroke="black" stroke-width="0.5"/>
<path d="M131.353 9.01514C111.353 14.6892 93.3525 32.0151 85.3525 30.0151C98.3525 20.5151 114.353 12.0151 130.853 7.51514L131.353 9.01514Z" stroke="black" stroke-width="0.5"/>
<path d="M10.3532 48.0151H4.35321C1.85254 52.0151 1.85254 62.0151 2.35321 65.5151C0.852539 66.5151 0.853137 71.0151 1.85321 72.5151L5.85321 73.0151V74.5151L1.85321 76.5151V78.5151C5.85321 79.5151 14.3532 81.5151 22.3532 81.0151V79.5151H39.8532C39.1865 71.0151 40.8532 60.5151 49.8532 53.5151C47.3532 49.5151 40.3532 45.0151 37.3532 44.5151C27.3532 43.5151 12.3532 46.0151 10.3532 48.0151Z" stroke="black" stroke-width="0.5"/>
<path d="M93.3545 35.5151C75.5212 36.3485 43.8545 41.2151 33.3545 44.2151L37.3545 44.5151C42.3545 46.0151 47.8545 50.3485 49.8545 53.5151C62.8535 44.0151 88.3535 51.0151 86.8535 78.5151H96.8535C89.8535 67.5151 90.8535 45.5151 93.3545 35.5151Z" stroke="black" stroke-width="0.5"/>
<path d="M10.3525 48.0152H4.35254C36.8527 28.5151 58.8528 34.5151 84.8525 30.0151L93.8528 35.5151C76.8528 36.5151 47.8525 40.0151 33.8525 44.2151C25.8525 44.0151 11.8525 46.0151 10.3525 48.0152Z" stroke="black" stroke-width="0.5"/>
<path d="M37.354 44.5152C29.854 43.5151 12.854 45.5151 10.354 48.0152C9.55399 50.4152 12.6873 53.3485 14.354 54.5151C23.854 56.0151 37.354 50.0151 37.354 44.5152Z" stroke="black" stroke-width="0.5"/>
<path d="M4.35323 48.0151C11.3532 49.0151 5.35323 59.5151 2.35323 64.5151C1.85316 57.5151 2.35303 52.0151 4.35323 48.0151Z" stroke="black" stroke-width="0.5"/>
<path d="M22.3525 84.0151V79.5151H39.8525L40.3525 84.0151H22.3525Z" stroke="black" stroke-width="0.5"/>
<path d="M2.85449 65.5151C4.35449 68.0151 6.35449 71.1818 5.85449 73.0151M22.3545 79.5151C11.8545 80.0151 7.35449 76.0151 8.35449 72.5151C8.85449 72.0151 10.3545 70.5151 11.3545 70.5151" stroke="black" stroke-width="0.5"/>
<path d="M6.35449 65.5152C8.60443 65.0152 11.4793 64.3902 14.2293 64.0152M14.2293 64.0152C16.9794 63.6402 19.6044 63.5152 21.3545 64.0152C24.3545 65.5152 29.8545 70.5151 32.3545 74.5151C27.3545 75.5151 20.3545 75.0151 15.8545 75.0151C13.1619 75.0151 11.8545 72.6818 11.8545 71.5151C11.3545 68.5151 12.6043 65.3485 14.2293 64.0152Z" stroke="black" stroke-width="0.5"/>
<path d="M11.8545 71.0152C19.8545 69.5153 23.3545 72.1437 26.3545 73.6437M13.3545 74.0153L30.8545 73.5153" stroke="black" stroke-width="0.5"/>
<path d="M22.3525 82.5151H31.8525C33.8525 82.5151 35.3525 80.5151 34.8525 79.5151M38.3525 79.5151V84.0151" stroke="black" stroke-width="0.5"/>
<path d="M22.3544 81.0154C17.8544 81.0154 13.3544 81.5154 1.85444 78.5154V76.5154L5.85444 74.5154V73.0154L1.85444 72.5154C1.35352 71.0151 0.353711 68.0151 2.35371 65.5151C1.85395 57.5151 2.35395 51.0151 4.35444 48.0149C36.8544 28.5153 58.8544 34.5153 84.8544 30.0153C162.854 -24.9848 244.854 12.0151 281.854 26.5153L295.354 28.5151L295.854 35.5151V38.5151C297.353 43.5151 298.688 48.0151 297.354 50.0151C299.854 51.0151 302.354 54.1818 302.354 56.0151L300.354 66.0151C300.806 76.863 298.398 77.0873 289.067 77.3998C288.076 77.433 286.007 77.4671 284.854 77.5151V79.0151L259.854 79.4462M22.3544 81.0154V84.0154H40.3528L39.8544 79.5154M22.3544 81.0154V79.5154H39.8544M39.8544 79.5154C36.8544 38.0154 90.3544 41.0154 86.8544 80.0154V82.5151H213.354C207.354 39.0151 261.854 39.0151 259.854 79.4462M259.353 79.4462H259.854" stroke="black"/>
</svg>
