<svg width="303" height="96" viewBox="0 0 303 96" fill="none" xmlns="http://www.w3.org/2000/svg">
<circle cx="62.6562" cy="74.3687" r="20.5" stroke="black"/>
<circle cx="235.656" cy="74.3687" r="20.5" stroke="black"/>
<path d="M132.654 12.8685L131.154 9.36851C171.154 1.36862 192.654 1.86865 231.654 13.3686L228.154 17.8686C208.154 9.86856 190.154 8.86856 174.154 8.36863C171.654 7.86863 167.654 7.86859 165.154 8.36851C155.154 8.36863 143.154 9.86863 132.654 12.8685Z" fill="#EDADBF" stroke="black" stroke-width="0.5"/>
<path d="M131.154 9.3687L130.654 7.8687C166.654 -3.13135 199.154 0.868526 234.654 9.8687L231.654 13.3687C191.654 0.868652 165.654 2.36865 131.154 9.3687Z" fill="#EDADBF" stroke="black" stroke-width="0.5"/>
<path d="M131.154 9.36876C182.654 -2.13126 211.154 7.86877 231.654 13.3688" stroke="black" stroke-width="0.5"/>
<path d="M170.656 30.3687L174.156 8.36865C207.656 9.36865 219.156 14.8687 223.656 16.3687L226.139 28.3687C199.149 28.3693 181.654 29.8688 170.656 30.3687Z" fill="#EDADBF"/>
<path d="M226.656 30.8687L223.656 16.3687C219.156 14.8687 207.656 9.36865 174.156 8.36865L170.656 30.3687C181.656 29.8687 199.156 28.3687 226.156 28.3687" stroke="black" stroke-width="0.5"/>
<path d="M165.156 8.36865C132.156 9.36865 112.156 18.3687 93.1562 35.8687L95.6562 33.8687L159.656 30.8687L165.156 8.36865Z" fill="#EDADBF" stroke="black" stroke-width="0.5"/>
<path d="M239.654 22.8687C235.988 20.202 230.154 17.8687 223.654 16.3687L226.154 28.3687H232.654C235.654 26.8687 238.654 24.6374 239.654 22.8687Z" fill="#EDADBF" stroke="black" stroke-width="0.5"/>
<path d="M96.6562 78.8687H163.656L198.156 77.3687H212.656L213.156 82.8687H199.156H98.1562H86.6562V78.8687H96.6562Z" fill="#EDADBF"/>
<path d="M96.6562 78.8687H163.656L198.156 77.3687M96.6562 78.8687C96.6562 80.3687 97.1562 81.3687 98.1562 82.8687M96.6562 78.8687H86.6562V82.8687H98.1562M198.156 77.3687L199.156 82.8687M198.156 77.3687H212.656L213.156 82.8687H199.156M199.156 82.8687H98.1562" stroke="black" stroke-width="0.5"/>
<path d="M96.6554 78.8687C92.1562 74.3687 89.1563 52.3687 93.1554 35.8687L165.156 31.8687C161.156 36.8687 160.156 70.8687 163.656 78.8687H96.6554Z" fill="#EDADBF" stroke="black" stroke-width="0.5"/>
<path d="M228.656 30.8687L165.156 31.8687C161.156 36.8687 160.156 70.8687 163.656 78.8687L198.156 77.3687C202.656 75.8687 209.156 70.3687 228.656 30.8687Z" fill="#EDADBF" stroke="black" stroke-width="0.5"/>
<path d="M170.656 30.3687C166.156 30.8687 162.656 30.8687 159.656 30.8687L165.156 8.36873C168.156 7.86865 171.156 7.86865 174.156 8.36873L170.656 30.3687Z" fill="#EDADBF" stroke="black" stroke-width="0.5"/>
<path d="M99.1562 32.3689C103.656 37.8689 110.656 34.3689 114.656 32.8689C115.656 17.3688 102.656 25.3688 99.1562 32.3689Z" fill="#EDADBF" stroke="black" stroke-width="0.5"/>
<path d="M234.654 9.86865L231.654 13.3687C248.654 18.8687 259.154 21.8687 271.654 28.3687H273.154L281.154 26.8687C266.154 20.3687 258.654 17.8687 234.654 9.86865Z" fill="#E0426F" stroke="black" stroke-width="0.5"/>
<path d="M271.654 28.3687C261.154 22.8687 242.154 16.3687 231.654 13.3687L229.654 15.8687L244.654 23.3687C243.154 25.8687 239.154 27.8687 233.154 30.5687C245.154 29.8687 262.154 28.8687 271.654 28.3687Z" fill="#E0426F" stroke="black" stroke-width="0.5"/>
<path d="M277.156 34.6687L283.155 32.3687L272.655 28.3687L228.655 30.8687C221.155 45.8687 206.155 76.3687 198.155 77.3687H212.655C211.155 66.3687 220.655 42.8687 245.656 51.8687C256.156 46.3687 266.156 40.8687 277.156 34.6687Z" fill="#E0426F" stroke="black" stroke-width="0.5"/>
<path d="M278.154 34.3687C266.154 40.8687 256.154 46.3687 245.654 51.8687C250.154 54.8687 260.654 60.8687 259.654 79.8687L284.654 79.3687V77.8687C293.154 76.8687 301.654 80.3687 300.154 66.3687L302.154 56.3687C302.154 54.8687 299.654 50.8687 297.154 50.3687C298.654 47.8687 295.654 38.8687 295.654 38.8687V37.3687L291.654 34.3687L286.654 32.8687L283.154 32.3687L278.154 34.3687Z" fill="#E0426F" stroke="black" stroke-width="0.5"/>
<path d="M281.154 26.8687L272.654 28.3687L283.154 32.3687C292.654 33.3687 291.653 34.8687 295.648 37.2888L295.154 28.8687L281.154 26.8687Z" fill="#E0426F"/>
<path d="M295.654 37.3687L295.648 37.2888M295.648 37.2888L295.154 28.8687L281.154 26.8687L272.654 28.3687L283.154 32.3687C292.654 33.3687 291.653 34.8687 295.648 37.2888Z" stroke="black" stroke-width="0.5"/>
<path d="M294.156 36.8689C293.656 34.3687 282.656 34.1687 277.156 34.6687" stroke="black" stroke-width="0.5"/>
<path d="M300.156 66.8687L260.656 68.8687C260.156 63.8687 257.99 59.702 256.156 57.8687L302.156 55.3687M300.656 52.8687C289.656 51.3687 278.656 46.5687 266.656 40.5687M228.656 30.8687L272.656 28.3687L281.156 26.8687" stroke="black" stroke-width="0.5"/>
<path d="M290.656 40.8687C290.656 38.8687 289.656 34.8687 286.156 32.8687C288.377 32.8687 291.754 33.909 294.265 36.2786C294.729 37.8086 293.656 41.3687 290.614 42.8687C290.601 42.2784 290.656 41.5929 290.656 40.8687Z" fill="#E0426F"/>
<path d="M272.656 43.3687C279.652 43.7184 285.669 43.8235 291.049 44.3687M297.656 45.3687C295.553 44.918 293.36 44.6028 291.049 44.3687M295.656 37.8687C295.238 37.2835 294.769 36.7543 294.265 36.2786M291.049 44.3687C290.723 44.0239 290.629 43.5008 290.614 42.8687M290.614 42.8687C290.601 42.2784 290.656 41.5929 290.656 40.8687C290.656 38.8687 289.656 34.8687 286.156 32.8687C288.377 32.8687 291.754 33.909 294.265 36.2786M290.614 42.8687C293.656 41.3687 294.729 37.8086 294.265 36.2786" stroke="black" stroke-width="0.5"/>
<path d="M290.656 40.8687C286.156 40.8687 284.156 36.8687 283.156 34.3687" stroke="black" stroke-width="0.5"/>
<path d="M132.654 12.9686C119.154 16.9686 107.154 22.8687 93.1543 35.8687C100.154 23.8687 115.654 14.3687 131.154 9.36865L132.654 12.9686Z" fill="#E56E90" stroke="black" stroke-width="0.5"/>
<path d="M131.154 9.36865C111.154 15.0427 93.1543 32.3687 85.1543 30.3687C98.1543 20.8687 114.154 12.3687 130.654 7.86865L131.154 9.36865Z" fill="#E56E90" stroke="black" stroke-width="0.5"/>
<path d="M10.155 48.3685H4.15496C1.6543 52.3685 1.6543 62.3685 2.15496 65.8685C0.654297 66.8685 0.654894 71.3685 1.65496 72.8685L5.65496 73.3685V74.8685L1.65496 76.8685V78.8685C5.65496 79.8685 14.155 81.8685 22.155 81.3685V79.8685H39.655C38.9883 71.3685 40.655 60.8685 49.655 53.8685C47.155 49.8685 40.155 45.3685 37.155 44.8685C27.155 43.8685 12.155 46.3685 10.155 48.3685Z" fill="#E56E90" stroke="black" stroke-width="0.5"/>
<path d="M93.1562 35.8687C75.3229 36.702 43.6562 41.5687 33.1562 44.5687L37.1562 44.8687C42.1562 46.3687 47.6562 50.702 49.6562 53.8687C62.6553 44.3687 88.1553 51.3687 86.6553 78.8687H96.6553C89.6553 67.8687 90.6553 45.8687 93.1562 35.8687Z" fill="#E56E90" stroke="black" stroke-width="0.5"/>
<path d="M10.1543 48.3687H4.1543C36.6545 28.8686 58.6545 34.8687 84.6543 30.3687L93.6545 35.8687C76.6545 36.8687 47.6543 40.3686 33.6543 44.5687C25.6543 44.3686 11.6543 46.3686 10.1543 48.3687Z" fill="#E56E90" stroke="black" stroke-width="0.5"/>
<path d="M37.1558 44.8687C29.6558 43.8687 12.6558 45.8687 10.1558 48.3687C9.35575 50.7687 12.4891 53.702 14.1558 54.8687C23.6558 56.3687 37.1558 50.3687 37.1558 44.8687Z" fill="#E56E90" stroke="black" stroke-width="0.5"/>
<path d="M4.15499 48.3687C11.155 49.3687 5.15499 59.8687 2.15499 64.8687C1.65492 57.8687 2.15479 52.3687 4.15499 48.3687Z" fill="#E56E90" stroke="black" stroke-width="0.5"/>
<path d="M22.1543 84.3687V79.8687H39.6543L40.1543 84.3687H22.1543Z" fill="#E56E90" stroke="black" stroke-width="0.5"/>
<path d="M2.65625 65.8687C4.15625 68.3687 6.15625 71.5353 5.65625 73.3687M22.1562 79.8687C11.6562 80.3687 7.15625 76.3687 8.15625 72.8687C8.65625 72.3687 10.1562 70.8687 11.1562 70.8687" stroke="black" stroke-width="0.5"/>
<path d="M32.1562 74.8688C29.6562 70.8688 24.1562 65.8689 21.1562 64.3689C19.4062 63.8688 16.7811 63.9938 14.031 64.3689C12.4061 65.7022 11.1562 68.8688 11.6562 71.8688C11.6562 73.0354 12.9637 75.3688 15.6562 75.3688C20.1562 75.3688 27.1562 75.8688 32.1562 74.8688Z" fill="#E56E90"/>
<path d="M6.15625 65.8689C8.40619 65.3688 11.2811 64.7438 14.031 64.3689M14.031 64.3689C16.7811 63.9938 19.4062 63.8688 21.1562 64.3689C24.1562 65.8689 29.6562 70.8688 32.1562 74.8688C27.1562 75.8688 20.1562 75.3688 15.6562 75.3688C12.9637 75.3688 11.6562 73.0354 11.6562 71.8688C11.1562 68.8688 12.4061 65.7022 14.031 64.3689Z" stroke="black" stroke-width="0.5"/>
<path d="M11.6562 71.3688C19.6562 69.8689 23.1562 72.4974 26.1562 73.9974M13.1562 74.3689L30.6562 73.8689" stroke="black" stroke-width="0.5"/>
<path d="M22.1543 82.8687H31.6543C33.6543 82.8687 35.1543 80.8687 34.6543 79.8687M38.1543 79.8687V84.3687" stroke="black" stroke-width="0.5"/>
<path d="M22.1562 81.3689C17.6562 81.3689 13.1562 81.8689 1.6562 78.8689V76.8689L5.6562 74.8689V73.3689L1.6562 72.8689C1.15527 71.3687 0.155469 68.3687 2.15546 65.8687C1.65571 57.8687 2.15571 51.3687 4.1562 48.3684C36.6562 28.8688 58.6562 34.8688 84.6562 30.3688C162.656 -24.6313 244.656 12.3686 281.656 26.8688L295.156 28.8687L295.656 35.8687V38.8687C297.155 43.8687 298.49 48.3687 297.156 50.3687C299.656 51.3687 302.156 54.5353 302.156 56.3687L300.156 66.3687C300.608 77.2166 298.2 77.4408 288.868 77.7533C287.877 77.7865 285.808 77.8206 284.656 77.8687V79.3687L259.656 79.7997M22.1562 81.3689V84.3689H40.1545L39.6562 79.8689M22.1562 81.3689V79.8689H39.6562M39.6562 79.8689C36.6562 38.3689 90.1562 41.3689 86.6562 80.3689V82.8687H213.156C207.156 39.3687 261.656 39.3687 259.656 79.7997M259.155 79.7997H259.656" stroke="black"/>
</svg>
