<svg width="303" height="96" viewBox="0 0 303 96" fill="none" xmlns="http://www.w3.org/2000/svg">
<circle cx="62.2725" cy="74.553" r="20.5" fill="#E56E90" stroke="black"/>
<circle cx="235.272" cy="74.553" r="20.5" fill="#E56E90" stroke="black"/>
<path d="M132.271 13.0528L130.771 9.55283C170.771 1.55295 192.271 2.05298 231.271 13.5529L227.771 18.0529C207.771 10.0529 189.771 9.05289 173.771 8.55296C171.271 8.05296 167.271 8.05292 164.771 8.55283C154.771 8.55296 142.771 10.053 132.271 13.0528Z" fill="#E0426F" stroke="black" stroke-width="0.5"/>
<path d="M130.771 9.55302L130.271 8.05302C166.271 -2.94702 198.771 1.05285 234.271 10.053L231.271 13.553C191.271 1.05298 165.271 2.55298 130.771 9.55302Z" fill="#E0426F" stroke="black" stroke-width="0.5"/>
<path d="M130.771 9.55284C182.271 -1.94718 210.771 8.05286 231.271 13.5528" stroke="black" stroke-width="0.5"/>
<path d="M170.272 30.553L173.772 8.55298C207.272 9.55298 218.772 15.053 223.272 16.553L225.755 28.553C198.765 28.5536 181.27 30.0531 170.272 30.553Z" fill="#E0426F"/>
<path d="M226.272 31.053L223.272 16.553C218.772 15.053 207.272 9.55298 173.772 8.55298L170.272 30.553C181.272 30.053 198.772 28.553 225.772 28.553" stroke="black" stroke-width="0.5"/>
<path d="M164.772 8.55298C131.772 9.55298 111.772 18.553 92.7725 36.053L95.2725 34.053L159.272 31.053L164.772 8.55298Z" fill="#E0426F" stroke="black" stroke-width="0.5"/>
<path d="M239.271 23.053C235.604 20.3863 229.771 18.053 223.271 16.553L225.771 28.553H232.271C235.271 27.053 238.271 24.8217 239.271 23.053Z" fill="#E0426F" stroke="black" stroke-width="0.5"/>
<path d="M96.2725 79.053H163.272L197.772 77.553H212.272L212.772 83.053H198.772H97.7725H86.2725V79.053H96.2725Z" fill="#E0426F"/>
<path d="M96.2725 79.053H163.272L197.772 77.553M96.2725 79.053C96.2725 80.553 96.7725 81.553 97.7725 83.053M96.2725 79.053H86.2725V83.053H97.7725M197.772 77.553L198.772 83.053M197.772 77.553H212.272L212.772 83.053H198.772M198.772 83.053H97.7725" stroke="black" stroke-width="0.5"/>
<path d="M96.2716 79.053C91.7725 74.553 88.7725 52.553 92.7716 36.053L164.772 32.053C160.772 37.053 159.772 71.053 163.272 79.053H96.2716Z" fill="#E0426F" stroke="black" stroke-width="0.5"/>
<path d="M228.272 31.053L164.772 32.053C160.773 37.053 159.773 71.053 163.272 79.053L197.772 77.553C202.272 76.053 208.772 70.553 228.272 31.053Z" fill="#E0426F" stroke="black" stroke-width="0.5"/>
<path d="M170.272 30.5531C165.772 31.0531 162.272 31.0531 159.272 31.0531L164.772 8.55305C167.772 8.05298 170.772 8.05298 173.772 8.55305L170.272 30.5531Z" fill="#E0426F" stroke="black" stroke-width="0.5"/>
<path d="M98.7725 32.553C103.272 38.053 110.272 34.553 114.272 33.053C115.272 17.5529 102.272 25.5529 98.7725 32.553Z" fill="#E0426F" stroke="black" stroke-width="0.5"/>
<path d="M234.271 10.053L231.271 13.553C248.271 19.053 258.771 22.053 271.271 28.553H272.771L280.771 27.053C265.771 20.553 258.271 18.053 234.271 10.053Z" fill="#EDADBF" stroke="black" stroke-width="0.5"/>
<path d="M271.271 28.553C260.771 23.053 241.771 16.553 231.271 13.553L229.271 16.053L244.271 23.553C242.771 26.053 238.771 28.053 232.771 30.753C244.771 30.053 261.771 29.053 271.271 28.553Z" fill="#EDADBF" stroke="black" stroke-width="0.5"/>
<path d="M276.772 34.853L282.771 32.553L272.271 28.553L228.271 31.053C220.771 46.053 205.771 76.553 197.771 77.553H212.271C210.771 66.553 220.271 43.053 245.272 52.053C255.772 46.553 265.772 41.053 276.772 34.853Z" fill="#EDADBF" stroke="black" stroke-width="0.5"/>
<path d="M277.771 34.553C265.771 41.053 255.771 46.553 245.271 52.053C249.771 55.053 260.271 61.053 259.271 80.053L284.271 79.553V78.053C292.771 77.053 301.271 80.553 299.771 66.553L301.771 56.553C301.771 55.053 299.271 51.053 296.771 50.553C298.271 48.053 295.271 39.053 295.271 39.053V37.553L291.271 34.553L286.271 33.053L282.771 32.553L277.771 34.553Z" fill="#EDADBF" stroke="black" stroke-width="0.5"/>
<path d="M280.771 27.053L272.271 28.553L282.771 32.553C292.271 33.553 291.269 35.053 295.265 37.4732L294.771 29.053L280.771 27.053Z" fill="#EDADBF"/>
<path d="M295.271 37.553L295.265 37.4732M295.265 37.4732L294.771 29.053L280.771 27.053L272.271 28.553L282.771 32.553C292.271 33.553 291.269 35.053 295.265 37.4732Z" stroke="black" stroke-width="0.5"/>
<path d="M293.772 37.0532C293.272 34.5531 282.272 34.353 276.772 34.853" stroke="black" stroke-width="0.5"/>
<path d="M299.772 67.053L260.272 69.053C259.772 64.053 257.606 59.8863 255.772 58.053L301.772 55.553M300.272 53.053C289.272 51.553 278.272 46.753 266.272 40.753M228.272 31.053L272.272 28.553L280.772 27.053" stroke="black" stroke-width="0.5"/>
<path d="M290.272 41.053C290.272 39.053 289.272 35.053 285.772 33.053C287.993 33.053 291.37 34.0934 293.881 36.463C294.345 37.993 293.272 41.553 290.231 43.053C290.217 42.4627 290.272 41.7773 290.272 41.053Z" fill="#EDADBF"/>
<path d="M272.272 43.553C279.268 43.9028 285.285 44.0079 290.666 44.553M297.272 45.553C295.169 45.1023 292.976 44.7871 290.666 44.553M295.272 38.053C294.855 37.4679 294.385 36.9386 293.881 36.463M290.666 44.553C290.339 44.2082 290.245 43.6852 290.231 43.053M290.231 43.053C290.217 42.4627 290.272 41.7773 290.272 41.053C290.272 39.053 289.272 35.053 285.772 33.053C287.993 33.053 291.37 34.0934 293.881 36.463M290.231 43.053C293.272 41.553 294.345 37.993 293.881 36.463" stroke="black" stroke-width="0.5"/>
<path d="M290.272 41.053C285.772 41.053 283.772 37.053 282.772 34.553" stroke="black" stroke-width="0.5"/>
<path d="M132.271 13.153C118.771 17.153 106.771 23.053 92.7705 36.053C99.7705 24.053 115.271 14.553 130.771 9.55298L132.271 13.153Z" stroke="black" stroke-width="0.5"/>
<path d="M130.771 9.55298C110.771 15.227 92.7705 32.553 84.7705 30.553C97.7705 21.053 113.771 12.553 130.271 8.05298L130.771 9.55298Z" stroke="black" stroke-width="0.5"/>
<path d="M9.77118 48.5529H3.77118C1.27051 52.5529 1.27051 62.5529 1.77118 66.0529C0.270508 67.0529 0.271105 71.5529 1.27118 73.0529L5.27118 73.5529V75.0529L1.27118 77.0529V79.0529C5.27118 80.0529 13.7712 82.0529 21.7712 81.5529V80.0529H39.2712C38.6045 71.5529 40.2712 61.0529 49.2712 54.0529C46.7712 50.0529 39.7712 45.5529 36.7712 45.0529C26.7712 44.0529 11.7712 46.5529 9.77118 48.5529Z" stroke="black" stroke-width="0.5"/>
<path d="M92.7725 36.053C74.9391 36.8863 43.2725 41.753 32.7725 44.753L36.7725 45.053C41.7725 46.553 47.2725 50.8863 49.2725 54.053C62.2715 44.553 87.7715 51.553 86.2715 79.053H96.2715C89.2715 68.053 90.2715 46.053 92.7725 36.053Z" stroke="black" stroke-width="0.5"/>
<path d="M9.77051 48.553H3.77051C36.2707 29.0529 58.2708 35.053 84.2705 30.553L93.2708 36.053C76.2708 37.053 47.2705 40.553 33.2705 44.753C25.2705 44.553 11.2705 46.553 9.77051 48.553Z" stroke="black" stroke-width="0.5"/>
<path d="M36.772 45.0531C29.272 44.053 12.272 46.053 9.77196 48.5531C8.97196 50.953 12.1053 53.8863 13.772 55.053C23.272 56.553 36.772 50.553 36.772 45.0531Z" stroke="black" stroke-width="0.5"/>
<path d="M3.7712 48.553C10.7712 49.553 4.7712 60.053 1.7712 65.053C1.27113 58.053 1.771 52.553 3.7712 48.553Z" stroke="black" stroke-width="0.5"/>
<path d="M21.7705 84.553V80.053H39.2705L39.7705 84.553H21.7705Z" stroke="black" stroke-width="0.5"/>
<path d="M2.27246 66.0527C3.77246 68.5527 5.77246 71.7194 5.27246 73.5527M21.7725 80.0527C11.2725 80.5527 6.77246 76.5527 7.77246 73.0527C8.27246 72.5527 9.77246 71.0527 10.7725 71.0527" stroke="black" stroke-width="0.5"/>
<path d="M5.77246 66.0529C8.0224 65.5529 10.8973 64.9279 13.6472 64.5529M13.6472 64.5529C16.3973 64.1779 19.0224 64.0529 20.7725 64.5529C23.7725 66.0529 29.2725 71.0529 31.7725 75.0529C26.7725 76.0529 19.7725 75.5529 15.2725 75.5529C12.5799 75.5529 11.2725 73.2195 11.2725 72.0529C10.7725 69.0529 12.0223 65.8862 13.6472 64.5529Z" stroke="black" stroke-width="0.5"/>
<path d="M11.2725 71.5529C19.2725 70.053 22.7725 72.6815 25.7725 74.1815M12.7725 74.553L30.2725 74.053" stroke="black" stroke-width="0.5"/>
<path d="M21.7705 83.0527H31.2705C33.2705 83.0527 34.7705 81.0527 34.2705 80.0527M37.7705 80.0527V84.5527" stroke="black" stroke-width="0.5"/>
<path d="M21.7724 81.5532C17.2724 81.5532 12.7724 82.0532 1.27241 79.0532V77.0532L5.27241 75.0532V73.5532L1.27241 73.0532C0.771484 71.553 -0.22832 68.553 1.77168 66.053C1.27192 58.053 1.77192 51.553 3.77241 48.5527C36.2724 29.0531 58.2724 35.0532 84.2724 30.5532C162.272 -24.4469 244.272 12.553 281.272 27.0532L294.772 29.053L295.272 36.053V39.053C296.771 44.053 298.106 48.553 296.772 50.553C299.272 51.553 301.772 54.7196 301.772 56.553L299.772 66.553C300.224 77.4009 297.816 77.6252 288.485 77.9376C287.494 77.9708 285.425 78.005 284.272 78.053V79.553L259.272 79.984M21.7724 81.5532V84.5532H39.7708L39.2724 80.0532M21.7724 81.5532V80.0532H39.2724M39.2724 80.0532C36.2724 38.5532 89.7724 41.5532 86.2724 80.5532V83.053H212.772C206.772 39.553 261.272 39.553 259.272 79.984M258.771 79.984H259.272" stroke="black"/>
</svg>
