<svg width="304" height="96" viewBox="0 0 304 96" fill="none" xmlns="http://www.w3.org/2000/svg">
<circle cx="63.0938" cy="74.5227" r="20.5" fill="#EDADBF" stroke="black"/>
<circle cx="236.094" cy="74.5227" r="20.5" fill="#EDADBF" stroke="black"/>
<path d="M133.092 13.0226L131.592 9.52256C171.592 1.52267 193.092 2.02271 232.092 13.5227L228.592 18.0226C208.592 10.0226 190.592 9.02261 174.592 8.52268C172.092 8.02268 168.092 8.02264 165.592 8.52256C155.592 8.52268 143.592 10.0227 133.092 13.0226Z" fill="#EFC7D3" stroke="black" stroke-width="0.5"/>
<path d="M131.592 9.52275L131.092 8.02275C167.092 -2.97729 199.592 1.02258 235.092 10.0228L232.092 13.5228C192.092 1.02271 166.092 2.52271 131.592 9.52275Z" fill="#EFC7D3" stroke="black" stroke-width="0.5"/>
<path d="M131.592 9.52269C183.092 -1.97733 211.592 8.02271 232.092 13.5227" stroke="black" stroke-width="0.5"/>
<path d="M171.094 30.5227L174.594 8.52271C208.094 9.52271 219.594 15.0227 224.094 16.5227L226.577 28.5227C199.586 28.5233 182.091 30.0228 171.094 30.5227Z" fill="#EFC7D3"/>
<path d="M227.094 31.0227L224.094 16.5227C219.594 15.0227 208.094 9.52271 174.594 8.52271L171.094 30.5227C182.094 30.0227 199.594 28.5227 226.594 28.5227" stroke="black" stroke-width="0.5"/>
<path d="M165.594 8.52271C132.594 9.52271 112.594 18.5227 93.5938 36.0227L96.0938 34.0227L160.094 31.0227L165.594 8.52271Z" fill="#EFC7D3" stroke="black" stroke-width="0.5"/>
<path d="M240.092 23.0227C236.425 20.356 230.592 18.0227 224.092 16.5227L226.592 28.5227H233.092C236.092 27.0227 239.092 24.7914 240.092 23.0227Z" fill="#EFC7D3" stroke="black" stroke-width="0.5"/>
<path d="M97.0938 79.0227H164.094L198.594 77.5227H213.094L213.594 83.0227H199.594H98.5938H87.0938V79.0227H97.0938Z" fill="#EFC7D3"/>
<path d="M97.0938 79.0227H164.094L198.594 77.5227M97.0938 79.0227C97.0938 80.5227 97.5938 81.5227 98.5938 83.0227M97.0938 79.0227H87.0938V83.0227H98.5938M198.594 77.5227L199.594 83.0227M198.594 77.5227H213.094L213.594 83.0227H199.594M199.594 83.0227H98.5938" stroke="black" stroke-width="0.5"/>
<path d="M97.0929 79.0227C92.5937 74.5227 89.5938 52.5227 93.5929 36.0227L165.594 32.0227C161.594 37.0227 160.594 71.0227 164.094 79.0227H97.0929Z" fill="#EFC7D3" stroke="black" stroke-width="0.5"/>
<path d="M229.094 31.0227L165.594 32.0227C161.594 37.0227 160.594 71.0227 164.094 79.0227L198.594 77.5227C203.094 76.0227 209.594 70.5227 229.094 31.0227Z" fill="#EFC7D3" stroke="black" stroke-width="0.5"/>
<path d="M171.094 30.5228C166.594 31.0228 163.094 31.0228 160.094 31.0228L165.594 8.52278C168.594 8.02271 171.594 8.02271 174.594 8.52278L171.094 30.5228Z" fill="#EFC7D3" stroke="black" stroke-width="0.5"/>
<path d="M99.5938 32.5228C104.094 38.0228 111.094 34.5228 115.094 33.0228C116.094 17.5227 103.094 25.5227 99.5938 32.5228Z" fill="#EFC7D3" stroke="black" stroke-width="0.5"/>
<path d="M235.092 10.0227L232.092 13.5227C249.092 19.0227 259.592 22.0227 272.092 28.5227H273.592L281.592 27.0227C266.592 20.5227 259.092 18.0227 235.092 10.0227Z" stroke="black" stroke-width="0.5"/>
<path d="M272.092 28.5227C261.592 23.0227 242.592 16.5227 232.092 13.5227L230.092 16.0227L245.092 23.5227C243.592 26.0227 239.592 28.0227 233.592 30.7227C245.592 30.0227 262.592 29.0227 272.092 28.5227Z" stroke="black" stroke-width="0.5"/>
<path d="M277.594 34.8227L283.592 32.5227L273.093 28.5227L229.093 31.0227C221.593 46.0227 206.593 76.5227 198.593 77.5227H213.093C211.593 66.5227 221.093 43.0227 246.094 52.0227C256.594 46.5227 266.594 41.0227 277.594 34.8227Z" stroke="black" stroke-width="0.5"/>
<path d="M278.592 34.5227C266.592 41.0227 256.592 46.5227 246.092 52.0227C250.592 55.0227 261.092 61.0227 260.092 80.0227L285.092 79.5227V78.0227C293.592 77.0227 302.092 80.5227 300.592 66.5227L302.592 56.5227C302.592 55.0227 300.092 51.0227 297.592 50.5227C299.092 48.0227 296.092 39.0227 296.092 39.0227V37.5227L292.092 34.5227L287.092 33.0227L283.592 32.5227L278.592 34.5227Z" stroke="black" stroke-width="0.5"/>
<path d="M296.092 37.5227L296.086 37.4429M296.086 37.4429L295.592 29.0227L281.592 27.0227L273.092 28.5227L283.592 32.5227C293.092 33.5227 292.091 35.0227 296.086 37.4429Z" stroke="black" stroke-width="0.5"/>
<path d="M294.594 37.0229C294.094 34.5228 283.094 34.3227 277.594 34.8227" stroke="black" stroke-width="0.5"/>
<path d="M300.594 67.0227L261.094 69.0227C260.594 64.0227 258.427 59.856 256.594 58.0227L302.594 55.5227M301.094 53.0227C290.094 51.5227 279.094 46.7227 267.094 40.7227M229.094 31.0227L273.094 28.5227L281.594 27.0227" stroke="black" stroke-width="0.5"/>
<path d="M273.094 43.5227C280.089 43.8725 286.106 43.9776 291.487 44.5227M298.094 45.5227C295.991 45.0721 293.798 44.7568 291.487 44.5227M296.094 38.0227C295.676 37.4376 295.207 36.9084 294.703 36.4327M291.487 44.5227C291.161 44.1779 291.067 43.6549 291.052 43.0227M291.052 43.0227C291.038 42.4324 291.094 41.747 291.094 41.0227C291.094 39.0227 290.094 35.0227 286.594 33.0227C288.815 33.0227 292.191 34.0631 294.703 36.4327M291.052 43.0227C294.094 41.5227 295.166 37.9627 294.703 36.4327" stroke="black" stroke-width="0.5"/>
<path d="M291.094 41.0227C286.594 41.0227 284.594 37.0227 283.594 34.5227" stroke="black" stroke-width="0.5"/>
<path d="M133.092 13.1227C119.592 17.1227 107.592 23.0227 93.5923 36.0227C100.592 24.0227 116.092 14.5227 131.592 9.52271L133.092 13.1227Z" fill="#E56E90" stroke="black" stroke-width="0.5"/>
<path d="M131.592 9.52271C111.592 15.1967 93.5923 32.5227 85.5923 30.5227C98.5923 21.0227 114.592 12.5227 131.092 8.02271L131.592 9.52271Z" fill="#E56E90" stroke="black" stroke-width="0.5"/>
<path d="M10.593 48.5227H4.59295C2.09229 52.5227 2.09229 62.5227 2.59295 66.0227C1.09229 67.0227 1.09288 71.5227 2.09295 73.0227L6.09295 73.5227V75.0227L2.09295 77.0227V79.0227C6.09295 80.0227 14.593 82.0227 22.593 81.5227V80.0227H40.0929C39.4263 71.5227 41.0929 61.0227 50.0929 54.0227C47.5929 50.0227 40.5929 45.5227 37.5929 45.0227C27.5929 44.0227 12.593 46.5227 10.593 48.5227Z" fill="#E56E90" stroke="black" stroke-width="0.5"/>
<path d="M93.5938 36.0227C75.7604 36.856 44.0938 41.7227 33.5938 44.7227L37.5938 45.0227C42.5938 46.5227 48.0938 50.856 50.0938 54.0227C63.0928 44.5227 88.5928 51.5227 87.0928 79.0227H97.0928C90.0928 68.0227 91.0928 46.0227 93.5938 36.0227Z" fill="#E56E90" stroke="black" stroke-width="0.5"/>
<path d="M10.5918 48.5228H4.5918C37.092 29.0227 59.092 35.0227 85.0918 30.5227L94.092 36.0227C77.092 37.0227 48.0918 40.5227 34.0918 44.7227C26.0918 44.5227 12.0918 46.5227 10.5918 48.5228Z" fill="#E56E90" stroke="black" stroke-width="0.5"/>
<path d="M37.5937 45.0228C30.0937 44.0227 13.0937 46.0227 10.5937 48.5228C9.79374 50.9227 12.9271 53.856 14.5937 55.0227C24.0938 56.5227 37.5937 50.5227 37.5937 45.0228Z" fill="#E56E90" stroke="black" stroke-width="0.5"/>
<path d="M4.59298 48.5227C11.593 49.5227 5.59298 60.0227 2.59298 65.0227C2.09291 58.0227 2.59277 52.5227 4.59298 48.5227Z" fill="#E56E90" stroke="black" stroke-width="0.5"/>
<path d="M22.5923 84.5227V80.0227H40.0923L40.5923 84.5227H22.5923Z" fill="#E56E90" stroke="black" stroke-width="0.5"/>
<path d="M3.09375 66.0225C4.59375 68.5225 6.59375 71.6891 6.09375 73.5225M22.5938 80.0225C12.0938 80.5225 7.59375 76.5225 8.59375 73.0225C9.09375 72.5225 10.5938 71.0225 11.5938 71.0225" stroke="black" stroke-width="0.5"/>
<path d="M32.5938 75.0226C30.0938 71.0226 24.5938 66.0227 21.5938 64.5227C19.8437 64.0227 17.2186 64.1477 14.4685 64.5227C12.8436 65.856 11.5938 69.0226 12.0938 72.0226C12.0938 73.1892 13.4012 75.5226 16.0938 75.5226C20.5938 75.5226 27.5938 76.0226 32.5938 75.0226Z" fill="#E56E90"/>
<path d="M6.59375 66.0227C8.84369 65.5226 11.7186 64.8977 14.4685 64.5227M14.4685 64.5227C17.2186 64.1477 19.8437 64.0227 21.5938 64.5227C24.5938 66.0227 30.0938 71.0226 32.5938 75.0226C27.5938 76.0226 20.5938 75.5226 16.0938 75.5226C13.4012 75.5226 12.0938 73.1892 12.0938 72.0226C11.5938 69.0226 12.8436 65.856 14.4685 64.5227Z" stroke="black" stroke-width="0.5"/>
<path d="M12.0938 71.5227C20.0938 70.0227 23.5938 72.6512 26.5938 74.1512M13.5938 74.5227L31.0938 74.0227" stroke="black" stroke-width="0.5"/>
<path d="M22.5918 83.0225H32.0918C34.0918 83.0225 35.5918 81.0225 35.0918 80.0225M38.5918 80.0225V84.5225" stroke="black" stroke-width="0.5"/>
<path d="M22.5937 81.5229C18.0937 81.5229 13.5937 82.0229 2.0937 79.0229V77.0229L6.0937 75.0229V73.5229L2.0937 73.023C1.59277 71.5227 0.592969 68.5227 2.59296 66.0227C2.09321 58.0227 2.59321 51.5227 4.5937 48.5224C37.0937 29.0228 59.0937 35.0229 85.0937 30.5229C163.094 -24.4772 245.094 12.5227 282.094 27.0229L295.594 29.0227L296.094 36.0227V39.0227C297.592 44.0227 298.927 48.5227 297.594 50.5227C300.094 51.5227 302.594 54.6894 302.594 56.5227L300.594 66.5227C301.046 77.3706 298.638 77.5949 289.306 77.9073C288.315 77.9405 286.246 77.9747 285.094 78.0227V79.5227L260.094 79.9537M22.5937 81.5229V84.5229H40.592L40.0937 80.0229M22.5937 81.5229V80.0229H40.0937M40.0937 80.0229C37.0937 38.5229 90.5937 41.5229 87.0937 80.5229V83.0227H213.594C207.594 39.5227 262.094 39.5227 260.094 79.9537M259.592 79.9537H260.094" stroke="black"/>
</svg>
