<svg width="303" height="96" viewBox="0 0 303 96" fill="none" xmlns="http://www.w3.org/2000/svg">
<circle cx="62.8652" cy="74.2146" r="20.5" fill="#EFC7D3" stroke="black"/>
<circle cx="235.865" cy="74.2146" r="20.5" fill="#EFC7D3" stroke="black"/>
<path d="M132.863 12.7145L131.363 9.21445C171.363 1.21457 192.863 1.7146 231.863 13.2145L228.363 17.7145C208.363 9.71451 190.363 8.71451 174.363 8.21458C171.863 7.71458 167.863 7.71454 165.363 8.21445C155.363 8.21458 143.363 9.71458 132.863 12.7145Z" fill="#E56E90" stroke="black" stroke-width="0.5"/>
<path d="M131.363 9.21464L130.863 7.71464C166.863 -3.2854 199.363 0.714474 234.863 9.71465L231.863 13.2146C191.863 0.7146 165.863 2.2146 131.363 9.21464Z" fill="#E56E90" stroke="black" stroke-width="0.5"/>
<path d="M131.363 9.21447C182.863 -2.28556 211.363 7.71448 231.863 13.2145" stroke="black" stroke-width="0.5"/>
<path d="M170.865 30.2146L174.365 8.2146C207.865 9.2146 219.365 14.7146 223.865 16.2146L226.348 28.2146C199.358 28.2152 181.863 29.7147 170.865 30.2146Z" fill="#E56E90"/>
<path d="M226.865 30.7146L223.865 16.2146C219.365 14.7146 207.865 9.2146 174.365 8.2146L170.865 30.2146C181.865 29.7146 199.365 28.2146 226.365 28.2146" stroke="black" stroke-width="0.5"/>
<path d="M165.365 8.2146C132.365 9.2146 112.365 18.2146 93.3652 35.7146L95.8652 33.7146L159.865 30.7146L165.365 8.2146Z" fill="#E56E90" stroke="black" stroke-width="0.5"/>
<path d="M239.863 22.7146C236.197 20.0479 230.363 17.7146 223.863 16.2146L226.363 28.2146H232.863C235.863 26.7146 238.863 24.4833 239.863 22.7146Z" fill="#E56E90" stroke="black" stroke-width="0.5"/>
<path d="M96.8652 78.7146H163.865L198.365 77.2146H212.865L213.365 82.7146H199.365H98.3652H86.8652V78.7146H96.8652Z" fill="#E56E90"/>
<path d="M96.8652 78.7146H163.865L198.365 77.2146M96.8652 78.7146C96.8652 80.2146 97.3652 81.2146 98.3652 82.7146M96.8652 78.7146H86.8652V82.7146H98.3652M198.365 77.2146L199.365 82.7146M198.365 77.2146H212.865L213.365 82.7146H199.365M199.365 82.7146H98.3652" stroke="black" stroke-width="0.5"/>
<path d="M96.8644 78.7146C92.3652 74.2146 89.3653 52.2146 93.3644 35.7146L165.365 31.7146C161.365 36.7146 160.365 70.7146 163.865 78.7146H96.8644Z" fill="#E56E90" stroke="black" stroke-width="0.5"/>
<path d="M228.865 30.7146L165.365 31.7146C161.365 36.7146 160.365 70.7146 163.865 78.7146L198.365 77.2146C202.865 75.7146 209.365 70.2146 228.865 30.7146Z" fill="#E56E90" stroke="black" stroke-width="0.5"/>
<path d="M170.865 30.2147C166.365 30.7147 162.865 30.7147 159.865 30.7147L165.365 8.21467C168.365 7.7146 171.365 7.7146 174.365 8.21467L170.865 30.2147Z" fill="#E56E90" stroke="black" stroke-width="0.5"/>
<path d="M99.3652 32.2146C103.865 37.7146 110.865 34.2146 114.865 32.7146C115.865 17.2145 102.865 25.2145 99.3652 32.2146Z" fill="#E56E90" stroke="black" stroke-width="0.5"/>
<path d="M234.863 9.7146L231.863 13.2146C248.863 18.7146 259.363 21.7146 271.863 28.2146H273.363L281.363 26.7146C266.363 20.2146 258.863 17.7146 234.863 9.7146Z" fill="#E56E90" stroke="black" stroke-width="0.5"/>
<path d="M271.863 28.2146C261.363 22.7146 242.363 16.2146 231.863 13.2146L229.863 15.7146L244.863 23.2146C243.363 25.7146 239.363 27.7146 233.363 30.4146C245.363 29.7146 262.363 28.7146 271.863 28.2146Z" fill="#E56E90" stroke="black" stroke-width="0.5"/>
<path d="M277.365 34.5146L283.364 32.2146L272.864 28.2146L228.864 30.7146C221.364 45.7146 206.364 76.2146 198.364 77.2146H212.864C211.364 66.2146 220.864 42.7146 245.865 51.7146C256.365 46.2146 266.365 40.7146 277.365 34.5146Z" fill="#E56E90" stroke="black" stroke-width="0.5"/>
<path d="M278.363 34.2146C266.363 40.7146 256.363 46.2146 245.863 51.7146C250.363 54.7146 260.863 60.7146 259.863 79.7146L284.863 79.2146V77.7146C293.363 76.7146 301.863 80.2146 300.363 66.2146L302.363 56.2146C302.363 54.7146 299.863 50.7146 297.363 50.2146C298.863 47.7146 295.863 38.7146 295.863 38.7146V37.2146L291.863 34.2146L286.863 32.7146L283.363 32.2146L278.363 34.2146Z" fill="#E56E90" stroke="black" stroke-width="0.5"/>
<path d="M281.363 26.7146L272.863 28.2146L283.363 32.2146C292.863 33.2146 291.862 34.7146 295.857 37.1348L295.363 28.7146L281.363 26.7146Z" fill="#E56E90"/>
<path d="M295.863 37.2146L295.857 37.1348M295.857 37.1348L295.363 28.7146L281.363 26.7146L272.863 28.2146L283.363 32.2146C292.863 33.2146 291.862 34.7146 295.857 37.1348Z" stroke="black" stroke-width="0.5"/>
<path d="M294.365 36.7148C293.865 34.2147 282.865 34.0146 277.365 34.5146" stroke="black" stroke-width="0.5"/>
<path d="M300.365 66.7146L260.865 68.7146C260.365 63.7146 258.199 59.5479 256.365 57.7146L302.365 55.2146M300.865 52.7146C289.865 51.2146 278.865 46.4146 266.865 40.4146M228.865 30.7146L272.865 28.2146L281.365 26.7146" stroke="black" stroke-width="0.5"/>
<path d="M290.865 40.7146C290.865 38.7146 289.865 34.7146 286.365 32.7146C288.586 32.7146 291.963 33.755 294.474 36.1246C294.938 37.6546 293.865 41.2146 290.823 42.7146C290.81 42.1243 290.865 41.4389 290.865 40.7146Z" fill="#E56E90"/>
<path d="M272.865 43.2146C279.861 43.5644 285.878 43.6695 291.258 44.2146M297.865 45.2146C295.762 44.764 293.569 44.4487 291.258 44.2146M295.865 37.7146C295.447 37.1295 294.978 36.6002 294.474 36.1246M291.258 44.2146C290.932 43.8698 290.838 43.3468 290.823 42.7146M290.823 42.7146C290.81 42.1243 290.865 41.4389 290.865 40.7146C290.865 38.7146 289.865 34.7146 286.365 32.7146C288.586 32.7146 291.963 33.755 294.474 36.1246M290.823 42.7146C293.865 41.2146 294.938 37.6546 294.474 36.1246" stroke="black" stroke-width="0.5"/>
<path d="M290.865 40.7146C286.365 40.7146 284.365 36.7146 283.365 34.2146" stroke="black" stroke-width="0.5"/>
<path d="M132.863 12.8146C119.363 16.8146 107.363 22.7146 93.3633 35.7146C100.363 23.7146 115.863 14.2146 131.363 9.2146L132.863 12.8146Z" fill="#E56E90" stroke="black" stroke-width="0.5"/>
<path d="M131.363 9.2146C111.363 14.8886 93.3633 32.2146 85.3633 30.2146C98.3633 20.7146 114.363 12.2146 130.863 7.7146L131.363 9.2146Z" fill="#E56E90" stroke="black" stroke-width="0.5"/>
<path d="M10.3639 48.2145H4.36395C1.86328 52.2145 1.86328 62.2145 2.36395 65.7145C0.863281 66.7145 0.863879 71.2145 1.86395 72.7145L5.86395 73.2145V74.7145L1.86395 76.7145V78.7145C5.86395 79.7145 14.3639 81.7145 22.3639 81.2145V79.7145H39.8639C39.1973 71.2145 40.8639 60.7145 49.8639 53.7145C47.3639 49.7145 40.3639 45.2145 37.3639 44.7145C27.3639 43.7145 12.3639 46.2145 10.3639 48.2145Z" fill="#E56E90" stroke="black" stroke-width="0.5"/>
<path d="M93.3652 35.7146C75.5319 36.5479 43.8652 41.4146 33.3652 44.4146L37.3652 44.7146C42.3652 46.2146 47.8652 50.5479 49.8652 53.7146C62.8643 44.2146 88.3643 51.2146 86.8643 78.7146H96.8643C89.8643 67.7146 90.8643 45.7146 93.3652 35.7146Z" fill="#E56E90" stroke="black" stroke-width="0.5"/>
<path d="M10.3633 48.2147H4.36328C36.8635 28.7146 58.8635 34.7146 84.8633 30.2146L93.8635 35.7146C76.8635 36.7146 47.8633 40.2146 33.8633 44.4146C25.8633 44.2146 11.8633 46.2146 10.3633 48.2147Z" fill="#E56E90" stroke="black" stroke-width="0.5"/>
<path d="M37.3647 44.7147C29.8647 43.7146 12.8647 45.7146 10.3647 48.2147C9.56474 50.6146 12.6981 53.5479 14.3647 54.7146C23.8647 56.2146 37.3647 50.2146 37.3647 44.7147Z" fill="#E56E90" stroke="black" stroke-width="0.5"/>
<path d="M4.36398 48.2146C11.364 49.2146 5.36398 59.7146 2.36398 64.7146C1.86391 57.7146 2.36377 52.2146 4.36398 48.2146Z" fill="#E56E90" stroke="black" stroke-width="0.5"/>
<path d="M22.3633 84.2146V79.7146H39.8633L40.3633 84.2146H22.3633Z" fill="#E56E90" stroke="black" stroke-width="0.5"/>
<path d="M2.86523 65.7144C4.36523 68.2144 6.36523 71.381 5.86523 73.2144M22.3652 79.7144C11.8652 80.2144 7.36523 76.2144 8.36523 72.7144C8.86523 72.2144 10.3652 70.7144 11.3652 70.7144" stroke="black" stroke-width="0.5"/>
<path d="M32.3652 74.7145C29.8652 70.7145 24.3652 65.7146 21.3652 64.2146C19.6152 63.7145 16.9901 63.8395 14.24 64.2146C12.6151 65.5479 11.3652 68.7145 11.8652 71.7145C11.8652 72.8811 13.1727 75.2145 15.8652 75.2145C20.3652 75.2145 27.3652 75.7145 32.3652 74.7145Z" fill="#E56E90"/>
<path d="M6.36523 65.7146C8.61518 65.2145 11.4901 64.5896 14.24 64.2146M14.24 64.2146C16.9901 63.8395 19.6152 63.7145 21.3652 64.2146C24.3652 65.7146 29.8652 70.7145 32.3652 74.7145C27.3652 75.7145 20.3652 75.2145 15.8652 75.2145C13.1727 75.2145 11.8652 72.8811 11.8652 71.7145C11.3652 68.7145 12.6151 65.5479 14.24 64.2146Z" stroke="black" stroke-width="0.5"/>
<path d="M11.8652 71.2146C19.8652 69.7146 23.3652 72.3431 26.3652 73.8431M13.3652 74.2146L30.8652 73.7146" stroke="black" stroke-width="0.5"/>
<path d="M22.3633 82.7144H31.8633C33.8633 82.7144 35.3633 80.7144 34.8633 79.7144M38.3633 79.7144V84.2144" stroke="black" stroke-width="0.5"/>
<path d="M22.3652 81.2148C17.8652 81.2148 13.3652 81.7148 1.86518 78.7148V76.7148L5.86518 74.7148V73.2148L1.86518 72.7149C1.36426 71.2146 0.364454 68.2146 2.36445 65.7146C1.86469 57.7146 2.36469 51.2146 4.36518 48.2143C36.8652 28.7147 58.8652 34.7148 84.8652 30.2148C162.865 -24.7853 244.865 12.2146 281.865 26.7148L295.365 28.7146L295.865 35.7146V38.7146C297.364 43.7146 298.699 48.2146 297.365 50.2146C299.865 51.2146 302.365 54.3813 302.365 56.2146L300.365 66.2146C300.817 77.0625 298.409 77.2868 289.077 77.5992C288.086 77.6324 286.017 77.6666 284.865 77.7146V79.2146L259.865 79.6456M22.3652 81.2148V84.2148H40.3635L39.8652 79.7148M22.3652 81.2148V79.7148H39.8652M39.8652 79.7148C36.8652 38.2148 90.3652 41.2148 86.8652 80.2148V82.7146H213.365C207.365 39.2146 261.865 39.2146 259.865 79.6456M259.364 79.6456H259.865" stroke="black"/>
</svg>
