<svg width="303" height="95" viewBox="0 0 303 95" fill="none" xmlns="http://www.w3.org/2000/svg">
<circle cx="62.6562" cy="73.8762" r="20.5" stroke="black"/>
<circle cx="235.656" cy="73.8762" r="20.5" stroke="black"/>
<path d="M132.654 12.3761L131.154 8.87608C171.154 0.876188 192.654 1.37622 231.654 12.8762L228.154 17.3762C208.154 9.37613 190.154 8.37613 174.154 7.8762C171.654 7.3762 167.654 7.37616 165.154 7.87608C155.154 7.8762 143.154 9.3762 132.654 12.3761Z" fill="#E56E90" stroke="black" stroke-width="0.5"/>
<path d="M131.154 8.87627L130.654 7.37626C166.654 -3.62378 199.154 0.376095 234.654 9.37627L231.654 12.8763C191.654 0.376221 165.654 1.87622 131.154 8.87627Z" fill="#E56E90" stroke="black" stroke-width="0.5"/>
<path d="M131.154 8.87609C182.654 -2.62394 211.154 7.3761 231.654 12.8761" stroke="black" stroke-width="0.5"/>
<path d="M170.656 29.8762L174.156 7.87622C207.656 8.87622 219.156 14.3762 223.656 15.8762L226.139 27.8762C199.149 27.8769 181.654 29.3763 170.656 29.8762Z" fill="#E56E90"/>
<path d="M226.656 30.3762L223.656 15.8762C219.156 14.3762 207.656 8.87622 174.156 7.87622L170.656 29.8762C181.656 29.3762 199.156 27.8762 226.156 27.8762" stroke="black" stroke-width="0.5"/>
<path d="M165.156 7.87622C132.156 8.87622 112.156 17.8762 93.1562 35.3762L95.6562 33.3762L159.656 30.3762L165.156 7.87622Z" fill="#E56E90" stroke="black" stroke-width="0.5"/>
<path d="M239.654 22.3762C235.988 19.7096 230.154 17.3762 223.654 15.8762L226.154 27.8762H232.654C235.654 26.3762 238.654 24.145 239.654 22.3762Z" fill="#E56E90" stroke="black" stroke-width="0.5"/>
<path d="M96.6562 78.3762H163.656L198.156 76.8762H212.656L213.156 82.3762H199.156H98.1562H86.6562V78.3762H96.6562Z" fill="#E56E90"/>
<path d="M96.6562 78.3762H163.656L198.156 76.8762M96.6562 78.3762C96.6562 79.8762 97.1562 80.8762 98.1562 82.3762M96.6562 78.3762H86.6562V82.3762H98.1562M198.156 76.8762L199.156 82.3762M198.156 76.8762H212.656L213.156 82.3762H199.156M199.156 82.3762H98.1562" stroke="black" stroke-width="0.5"/>
<path d="M96.6554 78.3762C92.1562 73.8762 89.1563 51.8762 93.1554 35.3762L165.156 31.3762C161.156 36.3762 160.156 70.3762 163.656 78.3762H96.6554Z" fill="#E56E90" stroke="black" stroke-width="0.5"/>
<path d="M228.656 30.3762L165.156 31.3762C161.156 36.3762 160.156 70.3762 163.656 78.3762L198.156 76.8762C202.656 75.3762 209.156 69.8762 228.656 30.3762Z" fill="#E56E90" stroke="black" stroke-width="0.5"/>
<path d="M170.656 29.8763C166.156 30.3763 162.656 30.3763 159.656 30.3763L165.156 7.87629C168.156 7.37622 171.156 7.37622 174.156 7.87629L170.656 29.8763Z" fill="#E56E90" stroke="black" stroke-width="0.5"/>
<path d="M99.1562 31.8762C103.656 37.3762 110.656 33.8762 114.656 32.3762C115.656 16.8761 102.656 24.8761 99.1562 31.8762Z" fill="#E56E90" stroke="black" stroke-width="0.5"/>
<path d="M234.654 9.37622L231.654 12.8762C248.654 18.3762 259.154 21.3762 271.654 27.8762H273.154L281.154 26.3762C266.154 19.8762 258.654 17.3762 234.654 9.37622Z" fill="#E0426F" stroke="black" stroke-width="0.5"/>
<path d="M271.654 27.8762C261.154 22.3762 242.154 15.8762 231.654 12.8762L229.654 15.3762L244.654 22.8762C243.154 25.3762 239.154 27.3762 233.154 30.0762C245.154 29.3762 262.154 28.3762 271.654 27.8762Z" fill="#E0426F" stroke="black" stroke-width="0.5"/>
<path d="M277.156 34.1762L283.155 31.8762L272.655 27.8762L228.655 30.3762C221.155 45.3762 206.155 75.8762 198.155 76.8762H212.655C211.155 65.8762 220.655 42.3762 245.656 51.3762C256.156 45.8762 266.156 40.3762 277.156 34.1762Z" fill="#E0426F" stroke="black" stroke-width="0.5"/>
<path d="M278.154 33.8762C266.154 40.3762 256.154 45.8762 245.654 51.3762C250.154 54.3762 260.654 60.3762 259.654 79.3762L284.654 78.8762V77.3762C293.154 76.3762 301.654 79.8762 300.154 65.8762L302.154 55.8762C302.154 54.3762 299.654 50.3762 297.154 49.8762C298.654 47.3762 295.654 38.3762 295.654 38.3762V36.8762L291.654 33.8762L286.654 32.3762L283.154 31.8762L278.154 33.8762Z" fill="#E0426F" stroke="black" stroke-width="0.5"/>
<path d="M281.154 26.3762L272.654 27.8762L283.154 31.8762C292.654 32.8762 291.653 34.3762 295.648 36.7964L295.154 28.3762L281.154 26.3762Z" fill="#E0426F"/>
<path d="M295.654 36.8762L295.648 36.7964M295.648 36.7964L295.154 28.3762L281.154 26.3762L272.654 27.8762L283.154 31.8762C292.654 32.8762 291.653 34.3762 295.648 36.7964Z" stroke="black" stroke-width="0.5"/>
<path d="M294.156 36.3764C293.656 33.8763 282.656 33.6762 277.156 34.1762" stroke="black" stroke-width="0.5"/>
<path d="M300.156 66.3762L260.656 68.3762C260.156 63.3762 257.99 59.2096 256.156 57.3762L302.156 54.8762M300.656 52.3762C289.656 50.8762 278.656 46.0762 266.656 40.0762M228.656 30.3762L272.656 27.8762L281.156 26.3762" stroke="black" stroke-width="0.5"/>
<path d="M290.656 40.3762C290.656 38.3762 289.656 34.3762 286.156 32.3762C288.377 32.3762 291.754 33.4166 294.265 35.7862C294.729 37.3162 293.656 40.8762 290.614 42.3762C290.601 41.7859 290.656 41.1005 290.656 40.3762Z" fill="#E0426F"/>
<path d="M272.656 42.8762C279.652 43.226 285.669 43.3311 291.049 43.8762M297.656 44.8762C295.553 44.4256 293.36 44.1103 291.049 43.8762M295.656 37.3762C295.238 36.7911 294.769 36.2619 294.265 35.7862M291.049 43.8762C290.723 43.5315 290.629 43.0084 290.614 42.3762M290.614 42.3762C290.601 41.7859 290.656 41.1005 290.656 40.3762C290.656 38.3762 289.656 34.3762 286.156 32.3762C288.377 32.3762 291.754 33.4166 294.265 35.7862M290.614 42.3762C293.656 40.8762 294.729 37.3162 294.265 35.7862" stroke="black" stroke-width="0.5"/>
<path d="M290.656 40.3762C286.156 40.3762 284.156 36.3762 283.156 33.8762" stroke="black" stroke-width="0.5"/>
<path d="M132.654 12.4762C119.154 16.4762 107.154 22.3762 93.1543 35.3762C100.154 23.3762 115.654 13.8762 131.154 8.87622L132.654 12.4762Z" fill="#EFC7D3" stroke="black" stroke-width="0.5"/>
<path d="M131.154 8.87622C111.154 14.5503 93.1543 31.8762 85.1543 29.8762C98.1543 20.3762 114.154 11.8762 130.654 7.37622L131.154 8.87622Z" fill="#EFC7D3" stroke="black" stroke-width="0.5"/>
<path d="M10.155 47.8761H4.15496C1.6543 51.8761 1.6543 61.8761 2.15496 65.3761C0.654297 66.3761 0.654894 70.8761 1.65496 72.3761L5.65496 72.8761V74.3761L1.65496 76.3761V78.3761C5.65496 79.3761 14.155 81.3761 22.155 80.8761V79.3761H39.655C38.9883 70.8761 40.655 60.3761 49.655 53.3761C47.155 49.3761 40.155 44.8761 37.155 44.3761C27.155 43.3761 12.155 45.8761 10.155 47.8761Z" fill="#EFC7D3" stroke="black" stroke-width="0.5"/>
<path d="M93.1562 35.3762C75.3229 36.2096 43.6562 41.0762 33.1562 44.0762L37.1562 44.3762C42.1562 45.8762 47.6562 50.2096 49.6562 53.3762C62.6553 43.8762 88.1553 50.8762 86.6553 78.3762H96.6553C89.6553 67.3762 90.6553 45.3762 93.1562 35.3762Z" fill="#EFC7D3" stroke="black" stroke-width="0.5"/>
<path d="M10.1543 47.8763H4.1543C36.6545 28.3762 58.6545 34.3762 84.6543 29.8762L93.6545 35.3762C76.6545 36.3762 47.6543 39.8762 33.6543 44.0762C25.6543 43.8762 11.6543 45.8762 10.1543 47.8763Z" fill="#EFC7D3" stroke="black" stroke-width="0.5"/>
<path d="M37.1558 44.3763C29.6558 43.3762 12.6558 45.3762 10.1558 47.8763C9.35575 50.2762 12.4891 53.2096 14.1558 54.3762C23.6558 55.8762 37.1558 49.8762 37.1558 44.3763Z" fill="#EFC7D3" stroke="black" stroke-width="0.5"/>
<path d="M4.15499 47.8762C11.155 48.8762 5.15499 59.3762 2.15499 64.3762C1.65492 57.3762 2.15479 51.8762 4.15499 47.8762Z" fill="#EFC7D3" stroke="black" stroke-width="0.5"/>
<path d="M22.1543 83.8762V79.3762H39.6543L40.1543 83.8762H22.1543Z" fill="#EFC7D3" stroke="black" stroke-width="0.5"/>
<path d="M2.65625 65.376C4.15625 67.876 6.15625 71.0426 5.65625 72.876M22.1562 79.376C11.6562 79.876 7.15625 75.876 8.15625 72.376C8.65625 71.876 10.1562 70.376 11.1562 70.376" stroke="black" stroke-width="0.5"/>
<path d="M32.1562 74.3761C29.6562 70.3761 24.1562 65.3762 21.1562 63.8762C19.4062 63.3762 16.7811 63.5012 14.031 63.8762C12.4061 65.2095 11.1562 68.3761 11.6562 71.3761C11.6562 72.5428 12.9637 74.8761 15.6562 74.8761C20.1562 74.8761 27.1562 75.3761 32.1562 74.3761Z" fill="#EFC7D3"/>
<path d="M6.15625 65.3762C8.40619 64.8762 11.2811 64.2512 14.031 63.8762M14.031 63.8762C16.7811 63.5012 19.4062 63.3762 21.1562 63.8762C24.1562 65.3762 29.6562 70.3761 32.1562 74.3761C27.1562 75.3761 20.1562 74.8761 15.6562 74.8761C12.9637 74.8761 11.6562 72.5428 11.6562 71.3761C11.1562 68.3761 12.4061 65.2095 14.031 63.8762Z" stroke="black" stroke-width="0.5"/>
<path d="M11.6562 70.8762C19.6562 69.3762 23.1562 72.0047 26.1562 73.5047M13.1562 73.8762L30.6562 73.3762" stroke="black" stroke-width="0.5"/>
<path d="M22.1543 82.376H31.6543C33.6543 82.376 35.1543 80.376 34.6543 79.376M38.1543 79.376V83.876" stroke="black" stroke-width="0.5"/>
<path d="M22.1562 80.8765C17.6562 80.8765 13.1562 81.3765 1.6562 78.3765V76.3765L5.6562 74.3765V72.8765L1.6562 72.3765C1.15527 70.8762 0.155469 67.8762 2.15546 65.3762C1.65571 57.3762 2.15571 50.8762 4.1562 47.876C36.6562 28.3764 58.6562 34.3764 84.6562 29.8764C162.656 -25.1237 244.656 11.8762 281.656 26.3764L295.156 28.3762L295.656 35.3762V38.3762C297.155 43.3762 298.49 47.8762 297.156 49.8762C299.656 50.8762 302.156 54.0429 302.156 55.8762L300.156 65.8762C300.608 76.7241 298.2 76.9484 288.868 77.2609C287.877 77.294 285.808 77.3282 284.656 77.3762V78.8762L259.656 79.3073M22.1562 80.8765V83.8765H40.1545L39.6562 79.3765M22.1562 80.8765V79.3765H39.6562M39.6562 79.3765C36.6562 37.8765 90.1562 40.8765 86.6562 79.8765V82.3762H213.156C207.156 38.8762 261.656 38.8762 259.656 79.3073M259.155 79.3073H259.656" stroke="black"/>
</svg>
