<svg width="303" height="96" viewBox="0 0 303 96" fill="none" xmlns="http://www.w3.org/2000/svg">
<circle cx="62.2915" cy="74.2297" r="20.5" fill="#E56E90" stroke="black"/>
<circle cx="235.292" cy="74.2297" r="20.5" fill="#E56E90" stroke="black"/>
<path d="M132.29 12.7296L130.79 9.22959C170.79 1.2297 192.29 1.72974 231.29 13.2297L227.79 17.7297C207.79 9.72965 189.79 8.72964 173.79 8.22971C171.29 7.72971 167.29 7.72968 164.79 8.22959C154.79 8.22971 142.79 9.72971 132.29 12.7296Z" fill="#E0426F" stroke="black" stroke-width="0.5"/>
<path d="M130.79 9.22978L130.29 7.72978C166.29 -3.27026 198.79 0.72961 234.29 9.72978L231.29 13.2298C191.29 0.729736 165.29 2.22974 130.79 9.22978Z" fill="#E0426F" stroke="black" stroke-width="0.5"/>
<path d="M130.79 9.2296C182.29 -2.27042 210.79 7.72961 231.29 13.2296" stroke="black" stroke-width="0.5"/>
<path d="M170.292 30.2297L173.792 8.22974C207.292 9.22974 218.792 14.7297 223.292 16.2297L225.774 28.2297C198.784 28.2304 181.289 29.7298 170.292 30.2297Z" fill="#E0426F"/>
<path d="M226.292 30.7297L223.292 16.2297C218.792 14.7297 207.292 9.22974 173.792 8.22974L170.292 30.2297C181.292 29.7297 198.792 28.2297 225.792 28.2297" stroke="black" stroke-width="0.5"/>
<path d="M164.792 8.22974C131.792 9.22974 111.792 18.2297 92.7915 35.7297L95.2915 33.7297L159.292 30.7297L164.792 8.22974Z" fill="#E0426F" stroke="black" stroke-width="0.5"/>
<path d="M239.29 22.7297C235.623 20.0631 229.79 17.7297 223.29 16.2297L225.79 28.2297H232.29C235.29 26.7297 238.29 24.4985 239.29 22.7297Z" fill="#E0426F" stroke="black" stroke-width="0.5"/>
<path d="M96.2915 78.7297H163.292L197.792 77.2297H212.292L212.792 82.7297H198.792H97.7915H86.2915V78.7297H96.2915Z" fill="#E0426F"/>
<path d="M96.2915 78.7297H163.292L197.792 77.2297M96.2915 78.7297C96.2915 80.2297 96.7915 81.2297 97.7915 82.7297M96.2915 78.7297H86.2915V82.7297H97.7915M197.792 77.2297L198.792 82.7297M197.792 77.2297H212.292L212.792 82.7297H198.792M198.792 82.7297H97.7915" stroke="black" stroke-width="0.5"/>
<path d="M96.2906 78.7297C91.7915 74.2297 88.7915 52.2297 92.7906 35.7297L164.792 31.7297C160.792 36.7297 159.792 70.7297 163.291 78.7297H96.2906Z" fill="#E0426F" stroke="black" stroke-width="0.5"/>
<path d="M228.291 30.7297L164.791 31.7297C160.791 36.7297 159.791 70.7297 163.291 78.7297L197.791 77.2297C202.291 75.7297 208.791 70.2297 228.291 30.7297Z" fill="#E0426F" stroke="black" stroke-width="0.5"/>
<path d="M170.292 30.2298C165.792 30.7298 162.292 30.7298 159.292 30.7298L164.792 8.22981C167.792 7.72974 170.792 7.72974 173.792 8.22981L170.292 30.2298Z" fill="#E0426F" stroke="black" stroke-width="0.5"/>
<path d="M98.7915 32.2297C103.292 37.7297 110.292 34.2297 114.292 32.7297C115.292 17.2296 102.292 25.2296 98.7915 32.2297Z" fill="#E0426F" stroke="black" stroke-width="0.5"/>
<path d="M234.29 9.72974L231.29 13.2297C248.29 18.7297 258.79 21.7297 271.29 28.2297H272.79L280.79 26.7297C265.79 20.2297 258.29 17.7297 234.29 9.72974Z" stroke="black" stroke-width="0.5"/>
<path d="M271.29 28.2297C260.79 22.7297 241.79 16.2297 231.29 13.2297L229.29 15.7297L244.29 23.2297C242.79 25.7297 238.79 27.7297 232.79 30.4297C244.79 29.7297 261.79 28.7297 271.29 28.2297Z" stroke="black" stroke-width="0.5"/>
<path d="M276.792 34.5297L282.79 32.2297L272.291 28.2297L228.291 30.7297C220.791 45.7297 205.791 76.2297 197.791 77.2297H212.291C210.791 66.2297 220.291 42.7297 245.292 51.7297C255.792 46.2297 265.792 40.7297 276.792 34.5297Z" stroke="black" stroke-width="0.5"/>
<path d="M277.79 34.2298C265.79 40.7298 255.79 46.2298 245.29 51.7298C249.79 54.7297 260.29 60.7297 259.29 79.7297L284.29 79.2297V77.7297C292.79 76.7297 301.29 80.2297 299.79 66.2297L301.79 56.2297C301.79 54.7297 299.29 50.7297 296.79 50.2297C298.29 47.7297 295.29 38.7297 295.29 38.7297V37.2297L291.29 34.2297L286.29 32.7297L282.79 32.2297L277.79 34.2298Z" stroke="black" stroke-width="0.5"/>
<path d="M295.29 37.2297L295.284 37.1499M295.284 37.1499L294.79 28.7297L280.79 26.7297L272.29 28.2297L282.79 32.2297C292.29 33.2297 291.289 34.7297 295.284 37.1499Z" stroke="black" stroke-width="0.5"/>
<path d="M293.792 36.7299C293.292 34.2298 282.292 34.0297 276.792 34.5297" stroke="black" stroke-width="0.5"/>
<path d="M299.792 66.7297L260.292 68.7297C259.792 63.7297 257.625 59.5631 255.792 57.7297L301.792 55.2297M300.292 52.7297C289.292 51.2297 278.292 46.4297 266.292 40.4297M228.292 30.7297L272.292 28.2297L280.792 26.7297" stroke="black" stroke-width="0.5"/>
<path d="M272.292 43.2297C279.287 43.5795 285.304 43.6846 290.685 44.2297M297.292 45.2297C295.189 44.7791 292.995 44.4638 290.685 44.2297M295.292 37.7297C294.874 37.1446 294.404 36.6154 293.9 36.1397M290.685 44.2297C290.358 43.885 290.264 43.3619 290.25 42.7297M290.25 42.7297C290.236 42.1395 290.292 41.454 290.292 40.7297C290.292 38.7297 289.292 34.7297 285.792 32.7297C288.012 32.7297 291.389 33.7701 293.9 36.1397M290.25 42.7297C293.292 41.2297 294.364 37.6697 293.9 36.1397" stroke="black" stroke-width="0.5"/>
<path d="M290.292 40.7297C285.792 40.7297 283.792 36.7297 282.792 34.2297" stroke="black" stroke-width="0.5"/>
<path d="M132.29 12.8297C118.79 16.8297 106.79 22.7297 92.79 35.7297C99.79 23.7297 115.29 14.2297 130.79 9.22974L132.29 12.8297Z" fill="#E0426F" stroke="black" stroke-width="0.5"/>
<path d="M130.79 9.22974C110.79 14.9038 92.79 32.2297 84.79 30.2297C97.79 20.7297 113.79 12.2297 130.29 7.72974L130.79 9.22974Z" fill="#E0426F" stroke="black" stroke-width="0.5"/>
<path d="M9.79071 48.2296H3.79071C1.29004 52.2296 1.29004 62.2296 1.79071 65.7296C0.290039 66.7296 0.290637 71.2296 1.29071 72.7296L5.29071 73.2296V74.7296L1.29071 76.7296V78.7296C5.29071 79.7296 13.7907 81.7296 21.7907 81.2296V79.7296H39.2907C38.624 71.2296 40.2907 60.7296 49.2907 53.7296C46.7907 49.7296 39.7907 45.2296 36.7907 44.7296C26.7907 43.7296 11.7907 46.2296 9.79071 48.2296Z" fill="#E0426F" stroke="black" stroke-width="0.5"/>
<path d="M92.7915 35.7297C74.9582 36.5631 43.2915 41.4297 32.7915 44.4297L36.7915 44.7297C41.7915 46.2297 47.2915 50.5631 49.2915 53.7297C62.2905 44.2297 87.7905 51.2297 86.2905 78.7297H96.2905C89.2905 67.7297 90.2905 45.7297 92.7915 35.7297Z" fill="#E0426F" stroke="black" stroke-width="0.5"/>
<path d="M9.79004 48.2298H3.79004C36.2902 28.7297 58.2903 34.7297 84.29 30.2297L93.2903 35.7297C76.2903 36.7297 47.29 40.2297 33.29 44.4297C25.29 44.2297 11.29 46.2297 9.79004 48.2298Z" fill="#E0426F" stroke="black" stroke-width="0.5"/>
<path d="M36.7915 44.7298C29.2915 43.7297 12.2915 45.7297 9.79149 48.2298C8.99149 50.6298 12.1248 53.5631 13.7915 54.7297C23.2915 56.2297 36.7915 50.2297 36.7915 44.7298Z" fill="#E0426F" stroke="black" stroke-width="0.5"/>
<path d="M3.79073 48.2297C10.7907 49.2297 4.79073 59.7297 1.79073 64.7297C1.29066 57.7297 1.79053 52.2297 3.79073 48.2297Z" fill="#E0426F" stroke="black" stroke-width="0.5"/>
<path d="M21.79 84.2297V79.7297H39.29L39.79 84.2297H21.79Z" fill="#E0426F" stroke="black" stroke-width="0.5"/>
<path d="M2.29199 65.7295C3.79199 68.2295 5.79199 71.3962 5.29199 73.2295M21.792 79.7295C11.292 80.2295 6.79199 76.2295 7.79199 72.7295C8.29199 72.2295 9.79199 70.7295 10.792 70.7295" stroke="black" stroke-width="0.5"/>
<path d="M31.792 74.7296C29.292 70.7296 23.792 65.7297 20.792 64.2297C19.0419 63.7297 16.4169 63.8547 13.6668 64.2297C12.0419 65.563 10.792 68.7296 11.292 71.7296C11.292 72.8963 12.5994 75.2296 15.292 75.2296C19.792 75.2296 26.792 75.7296 31.792 74.7296Z" fill="#E0426F"/>
<path d="M5.79199 65.7297C8.04193 65.2297 10.9168 64.6047 13.6668 64.2297M13.6668 64.2297C16.4169 63.8547 19.0419 63.7297 20.792 64.2297C23.792 65.7297 29.292 70.7296 31.792 74.7296C26.792 75.7296 19.792 75.2296 15.292 75.2296C12.5994 75.2296 11.292 72.8963 11.292 71.7296C10.792 68.7296 12.0418 65.563 13.6668 64.2297Z" stroke="black" stroke-width="0.5"/>
<path d="M11.292 71.2297C19.292 69.7297 22.792 72.3582 25.792 73.8582M12.792 74.2297L30.292 73.7297" stroke="black" stroke-width="0.5"/>
<path d="M21.79 82.7295H31.29C33.29 82.7295 34.79 80.7295 34.29 79.7295M37.79 79.7295V84.2295" stroke="black" stroke-width="0.5"/>
<path d="M21.7915 81.23C17.2915 81.23 12.7915 81.73 1.29145 78.73V76.73L5.29145 74.73V73.23L1.29145 72.73C0.790527 71.2297 -0.209277 68.2297 1.79072 65.7297C1.29096 57.7297 1.79096 51.2297 3.79145 48.2295C36.2915 28.7299 58.2914 34.7299 84.2914 30.2299C162.291 -24.7702 244.291 12.2297 281.291 26.7299L294.791 28.7297L295.291 35.7297V38.7297C296.79 43.7297 298.125 48.2297 296.791 50.2297C299.291 51.2297 301.791 54.3964 301.791 56.2297L299.791 66.2297C300.243 77.0776 297.835 77.3019 288.504 77.6144C287.513 77.6476 285.444 77.6817 284.291 77.7297V79.2297L259.291 79.6608M21.7915 81.23V84.23H39.7898L39.2915 79.73M21.7915 81.23V79.73H39.2915M39.2915 79.73C36.2915 38.23 89.7914 41.23 86.2914 80.23V82.7297H212.791C206.791 39.2297 261.291 39.2297 259.291 79.6608M258.79 79.6608H259.291" stroke="black"/>
</svg>
