<svg width="303" height="96" viewBox="0 0 303 96" fill="none" xmlns="http://www.w3.org/2000/svg">
<circle cx="62.6875" cy="74.5227" r="20.5" stroke="black"/>
<circle cx="235.688" cy="74.5227" r="20.5" stroke="black"/>
<path d="M132.686 13.0226L131.186 9.52256C171.186 1.52267 192.686 2.02271 231.686 13.5227L228.186 18.0226C208.186 10.0226 190.186 9.02261 174.186 8.52268C171.686 8.02268 167.686 8.02264 165.186 8.52256C155.186 8.52268 143.186 10.0227 132.686 13.0226Z" fill="#EFC7D3" stroke="black" stroke-width="0.5"/>
<path d="M131.186 9.52275L130.686 8.02275C166.686 -2.97729 199.186 1.02258 234.686 10.0228L231.686 13.5228C191.686 1.02271 165.686 2.52271 131.186 9.52275Z" fill="#EFC7D3" stroke="black" stroke-width="0.5"/>
<path d="M131.186 9.52269C182.686 -1.97733 211.186 8.02271 231.686 13.5227" stroke="black" stroke-width="0.5"/>
<path d="M170.688 30.5227L174.188 8.52271C207.688 9.52271 219.188 15.0227 223.688 16.5227L226.17 28.5227C199.18 28.5233 181.685 30.0228 170.688 30.5227Z" fill="#EFC7D3"/>
<path d="M226.688 31.0227L223.688 16.5227C219.188 15.0227 207.688 9.52271 174.188 8.52271L170.688 30.5227C181.688 30.0227 199.188 28.5227 226.188 28.5227" stroke="black" stroke-width="0.5"/>
<path d="M165.188 8.52271C132.188 9.52271 112.188 18.5227 93.1875 36.0227L95.6875 34.0227L159.688 31.0227L165.188 8.52271Z" fill="#EFC7D3" stroke="black" stroke-width="0.5"/>
<path d="M239.686 23.0227C236.019 20.356 230.186 18.0227 223.686 16.5227L226.186 28.5227H232.686C235.686 27.0227 238.686 24.7914 239.686 23.0227Z" fill="#EFC7D3" stroke="black" stroke-width="0.5"/>
<path d="M96.6875 79.0227H163.688L198.188 77.5227H212.688L213.188 83.0227H199.188H98.1875H86.6875V79.0227H96.6875Z" fill="#EFC7D3"/>
<path d="M96.6875 79.0227H163.688L198.188 77.5227M96.6875 79.0227C96.6875 80.5227 97.1875 81.5227 98.1875 83.0227M96.6875 79.0227H86.6875V83.0227H98.1875M198.188 77.5227L199.188 83.0227M198.188 77.5227H212.688L213.188 83.0227H199.188M199.188 83.0227H98.1875" stroke="black" stroke-width="0.5"/>
<path d="M96.6866 79.0227C92.1875 74.5227 89.1875 52.5227 93.1866 36.0227L165.188 32.0227C161.188 37.0227 160.188 71.0227 163.687 79.0227H96.6866Z" fill="#EFC7D3" stroke="black" stroke-width="0.5"/>
<path d="M228.687 31.0227L165.187 32.0227C161.188 37.0227 160.188 71.0227 163.687 79.0227L198.187 77.5227C202.687 76.0227 209.187 70.5227 228.687 31.0227Z" fill="#EFC7D3" stroke="black" stroke-width="0.5"/>
<path d="M170.688 30.5228C166.188 31.0228 162.688 31.0228 159.688 31.0228L165.188 8.52278C168.188 8.02271 171.188 8.02271 174.188 8.52278L170.688 30.5228Z" fill="#EFC7D3" stroke="black" stroke-width="0.5"/>
<path d="M99.1875 32.5228C103.688 38.0228 110.688 34.5228 114.688 33.0228C115.688 17.5227 102.688 25.5227 99.1875 32.5228Z" fill="#EFC7D3" stroke="black" stroke-width="0.5"/>
<path d="M234.686 10.0227L231.686 13.5227C248.686 19.0227 259.186 22.0227 271.686 28.5227H273.186L281.186 27.0227C266.186 20.5227 258.686 18.0227 234.686 10.0227Z" fill="#EFC7D3" stroke="black" stroke-width="0.5"/>
<path d="M271.686 28.5227C261.186 23.0227 242.186 16.5227 231.686 13.5227L229.686 16.0227L244.686 23.5227C243.186 26.0227 239.186 28.0227 233.186 30.7227C245.186 30.0227 262.186 29.0227 271.686 28.5227Z" fill="#EFC7D3" stroke="black" stroke-width="0.5"/>
<path d="M277.188 34.8227L283.186 32.5227L272.687 28.5227L228.687 31.0227C221.187 46.0227 206.187 76.5227 198.187 77.5227H212.687C211.187 66.5227 220.687 43.0227 245.688 52.0227C256.188 46.5227 266.188 41.0227 277.188 34.8227Z" fill="#EFC7D3" stroke="black" stroke-width="0.5"/>
<path d="M278.186 34.5227C266.186 41.0227 256.186 46.5227 245.686 52.0227C250.186 55.0227 260.686 61.0227 259.686 80.0227L284.686 79.5227V78.0227C293.186 77.0227 301.686 80.5227 300.186 66.5227L302.186 56.5227C302.186 55.0227 299.686 51.0227 297.186 50.5227C298.686 48.0227 295.686 39.0227 295.686 39.0227V37.5227L291.686 34.5227L286.686 33.0227L283.186 32.5227L278.186 34.5227Z" fill="#EFC7D3" stroke="black" stroke-width="0.5"/>
<path d="M281.186 27.0227L272.686 28.5227L283.186 32.5227C292.686 33.5227 291.684 35.0227 295.68 37.4429L295.186 29.0227L281.186 27.0227Z" fill="#EFC7D3"/>
<path d="M295.686 37.5227L295.68 37.4429M295.68 37.4429L295.186 29.0227L281.186 27.0227L272.686 28.5227L283.186 32.5227C292.686 33.5227 291.684 35.0227 295.68 37.4429Z" stroke="black" stroke-width="0.5"/>
<path d="M294.188 37.0229C293.688 34.5228 282.688 34.3227 277.188 34.8227" stroke="black" stroke-width="0.5"/>
<path d="M300.188 67.0227L260.688 69.0227C260.188 64.0227 258.021 59.856 256.188 58.0227L302.188 55.5227M300.688 53.0227C289.688 51.5227 278.688 46.7227 266.688 40.7227M228.688 31.0227L272.688 28.5227L281.188 27.0227" stroke="black" stroke-width="0.5"/>
<path d="M290.688 41.0227C290.688 39.0227 289.688 35.0227 286.188 33.0227C288.408 33.0227 291.785 34.0631 294.296 36.4327C294.76 37.9627 293.688 41.5227 290.646 43.0227C290.632 42.4324 290.688 41.747 290.688 41.0227Z" fill="#EFC7D3"/>
<path d="M272.688 43.5227C279.683 43.8725 285.7 43.9776 291.081 44.5227M297.688 45.5227C295.585 45.0721 293.391 44.7568 291.081 44.5227M295.688 38.0227C295.27 37.4376 294.8 36.9084 294.296 36.4327M291.081 44.5227C290.754 44.1779 290.66 43.6549 290.646 43.0227M290.646 43.0227C290.632 42.4324 290.688 41.747 290.688 41.0227C290.688 39.0227 289.688 35.0227 286.188 33.0227C288.408 33.0227 291.785 34.0631 294.296 36.4327M290.646 43.0227C293.688 41.5227 294.76 37.9627 294.296 36.4327" stroke="black" stroke-width="0.5"/>
<path d="M290.688 41.0227C286.188 41.0227 284.188 37.0227 283.188 34.5227" stroke="black" stroke-width="0.5"/>
<path d="M132.686 13.1227C119.186 17.1227 107.186 23.0227 93.186 36.0227C100.186 24.0227 115.686 14.5227 131.186 9.52271L132.686 13.1227Z" fill="#E56E90" stroke="black" stroke-width="0.5"/>
<path d="M131.186 9.52271C111.186 15.1967 93.186 32.5227 85.186 30.5227C98.186 21.0227 114.186 12.5227 130.686 8.02271L131.186 9.52271Z" fill="#E56E90" stroke="black" stroke-width="0.5"/>
<path d="M10.1867 48.5227H4.1867C1.68604 52.5227 1.68604 62.5227 2.1867 66.0227C0.686035 67.0227 0.686633 71.5227 1.6867 73.0227L5.6867 73.5227V75.0227L1.6867 77.0227V79.0227C5.6867 80.0227 14.1867 82.0227 22.1867 81.5227V80.0227H39.6867C39.02 71.5227 40.6867 61.0227 49.6867 54.0227C47.1867 50.0227 40.1867 45.5227 37.1867 45.0227C27.1867 44.0227 12.1867 46.5227 10.1867 48.5227Z" fill="#E56E90" stroke="black" stroke-width="0.5"/>
<path d="M93.1875 36.0227C75.3542 36.856 43.6875 41.7227 33.1875 44.7227L37.1875 45.0227C42.1875 46.5227 47.6875 50.856 49.6875 54.0227C62.6865 44.5227 88.1865 51.5227 86.6865 79.0227H96.6865C89.6865 68.0227 90.6865 46.0227 93.1875 36.0227Z" fill="#E56E90" stroke="black" stroke-width="0.5"/>
<path d="M10.1855 48.5228H4.18555C36.6857 29.0227 58.6858 35.0227 84.6855 30.5227L93.6858 36.0227C76.6858 37.0227 47.6855 40.5227 33.6855 44.7227C25.6855 44.5227 11.6855 46.5227 10.1855 48.5228Z" fill="#E56E90" stroke="black" stroke-width="0.5"/>
<path d="M37.1875 45.0228C29.6875 44.0227 12.6875 46.0227 10.1875 48.5228C9.38749 50.9227 12.5208 53.856 14.1875 55.0227C23.6875 56.5227 37.1875 50.5227 37.1875 45.0228Z" fill="#E56E90" stroke="black" stroke-width="0.5"/>
<path d="M4.18673 48.5227C11.1867 49.5227 5.18673 60.0227 2.18673 65.0227C1.68666 58.0227 2.18652 52.5227 4.18673 48.5227Z" fill="#E56E90" stroke="black" stroke-width="0.5"/>
<path d="M22.186 84.5227V80.0227H39.686L40.186 84.5227H22.186Z" fill="#E56E90" stroke="black" stroke-width="0.5"/>
<path d="M2.6875 66.0225C4.1875 68.5225 6.1875 71.6891 5.6875 73.5225M22.1875 80.0225C11.6875 80.5225 7.1875 76.5225 8.1875 73.0225C8.6875 72.5225 10.1875 71.0225 11.1875 71.0225" stroke="black" stroke-width="0.5"/>
<path d="M32.1875 75.0226C29.6875 71.0226 24.1875 66.0227 21.1875 64.5227C19.4375 64.0227 16.8124 64.1477 14.0623 64.5227C12.4374 65.856 11.1875 69.0226 11.6875 72.0226C11.6875 73.1892 12.9949 75.5226 15.6875 75.5226C20.1875 75.5226 27.1875 76.0226 32.1875 75.0226Z" fill="#E56E90"/>
<path d="M6.1875 66.0227C8.43744 65.5226 11.3124 64.8977 14.0623 64.5227M14.0623 64.5227C16.8124 64.1477 19.4375 64.0227 21.1875 64.5227C24.1875 66.0227 29.6875 71.0226 32.1875 75.0226C27.1875 76.0226 20.1875 75.5226 15.6875 75.5226C12.9949 75.5226 11.6875 73.1892 11.6875 72.0226C11.1875 69.0226 12.4374 65.856 14.0623 64.5227Z" stroke="black" stroke-width="0.5"/>
<path d="M11.6875 71.5227C19.6875 70.0227 23.1875 72.6512 26.1875 74.1512M13.1875 74.5227L30.6875 74.0227" stroke="black" stroke-width="0.5"/>
<path d="M22.1855 83.0225H31.6855C33.6855 83.0225 35.1855 81.0225 34.6855 80.0225M38.1855 80.0225V84.5225" stroke="black" stroke-width="0.5"/>
<path d="M22.1874 81.5229C17.6874 81.5229 13.1874 82.0229 1.68745 79.0229V77.0229L5.68745 75.0229V73.5229L1.68745 73.023C1.18652 71.5227 0.186719 68.5227 2.18671 66.0227C1.68696 58.0227 2.18696 51.5227 4.18745 48.5224C36.6874 29.0228 58.6874 35.0229 84.6874 30.5229C162.687 -24.4772 244.687 12.5227 281.687 27.0229L295.187 29.0227L295.687 36.0227V39.0227C297.186 44.0227 298.521 48.5227 297.187 50.5227C299.687 51.5227 302.187 54.6894 302.187 56.5227L300.187 66.5227C300.639 77.3706 298.231 77.5949 288.9 77.9073C287.909 77.9405 285.84 77.9747 284.687 78.0227V79.5227L259.687 79.9537M22.1874 81.5229V84.5229H40.1858L39.6875 80.0229M22.1874 81.5229V80.0229H39.6875M39.6875 80.0229C36.6875 38.5229 90.1874 41.5229 86.6874 80.5229V83.0227H213.187C207.187 39.5227 261.687 39.5227 259.687 79.9537M259.186 79.9537H259.687" stroke="black"/>
</svg>
