<svg width="303" height="95" viewBox="0 0 303 95" fill="none" xmlns="http://www.w3.org/2000/svg">
<circle cx="62.4697" cy="73.6919" r="20.5" fill="#E0426F" stroke="black"/>
<circle cx="235.47" cy="73.6919" r="20.5" fill="#E0426F" stroke="black"/>
<path d="M132.468 12.1918L130.968 8.69175C170.968 0.691862 192.468 1.19189 231.468 12.6918L227.968 17.1918C207.968 9.1918 189.968 8.1918 173.968 7.69187C171.468 7.19187 167.468 7.19183 164.968 7.69175C154.968 7.69187 142.968 9.19187 132.468 12.1918Z" fill="#EFC7D3" stroke="black" stroke-width="0.5"/>
<path d="M130.968 8.69194L130.468 7.19194C166.468 -3.80811 198.968 0.191769 234.468 9.19194L231.468 12.6919C191.468 0.191895 165.468 1.69189 130.968 8.69194Z" fill="#EFC7D3" stroke="black" stroke-width="0.5"/>
<path d="M130.968 8.692C182.468 -2.80802 210.968 7.19202 231.468 12.692" stroke="black" stroke-width="0.5"/>
<path d="M170.47 29.6919L173.97 7.69189C207.47 8.69189 218.97 14.1919 223.47 15.6919L225.952 27.6919C198.962 27.6925 181.467 29.192 170.47 29.6919Z" fill="#EFC7D3"/>
<path d="M226.47 30.1919L223.47 15.6919C218.97 14.1919 207.47 8.69189 173.97 7.69189L170.47 29.6919C181.47 29.1919 198.97 27.6919 225.97 27.6919" stroke="black" stroke-width="0.5"/>
<path d="M164.97 7.69189C131.97 8.69189 111.97 17.6919 92.9697 35.1919L95.4697 33.1919L159.47 30.1919L164.97 7.69189Z" fill="#EFC7D3" stroke="black" stroke-width="0.5"/>
<path d="M239.468 22.1919C235.801 19.5252 229.968 17.1919 223.468 15.6919L225.968 27.6919H232.468C235.468 26.1919 238.468 23.9606 239.468 22.1919Z" fill="#EFC7D3" stroke="black" stroke-width="0.5"/>
<path d="M96.4697 78.1919H163.47L197.97 76.6919H212.47L212.97 82.1919H198.97H97.9697H86.4697V78.1919H96.4697Z" fill="#EFC7D3"/>
<path d="M96.4697 78.1919H163.47L197.97 76.6919M96.4697 78.1919C96.4697 79.6919 96.9697 80.6919 97.9697 82.1919M96.4697 78.1919H86.4697V82.1919H97.9697M197.97 76.6919L198.97 82.1919M197.97 76.6919H212.47L212.97 82.1919H198.97M198.97 82.1919H97.9697" stroke="black" stroke-width="0.5"/>
<path d="M96.4689 78.1919C91.9697 73.6919 88.9698 51.6919 92.9689 35.1919L164.97 31.1919C160.97 36.1919 159.97 70.1919 163.47 78.1919H96.4689Z" fill="#EFC7D3" stroke="black" stroke-width="0.5"/>
<path d="M228.47 30.1919L164.97 31.1919C160.97 36.1919 159.97 70.1919 163.47 78.1919L197.97 76.6919C202.47 75.1919 208.97 69.6919 228.47 30.1919Z" fill="#EFC7D3" stroke="black" stroke-width="0.5"/>
<path d="M170.47 29.692C165.97 30.192 162.47 30.192 159.47 30.192L164.97 7.69197C167.97 7.19189 170.97 7.19189 173.97 7.69197L170.47 29.692Z" fill="#EFC7D3" stroke="black" stroke-width="0.5"/>
<path d="M98.9697 31.6922C103.47 37.1922 110.47 33.6922 114.47 32.1922C115.47 16.692 102.47 24.692 98.9697 31.6922Z" fill="#EFC7D3" stroke="black" stroke-width="0.5"/>
<path d="M234.468 9.19189L231.468 12.6919C248.468 18.1919 258.968 21.1919 271.468 27.6919H272.968L280.968 26.1919C265.968 19.6919 258.468 17.1919 234.468 9.19189Z" fill="#EDADBF" stroke="black" stroke-width="0.5"/>
<path d="M271.468 27.6919C260.968 22.1919 241.968 15.6919 231.468 12.6919L229.468 15.1919L244.468 22.6919C242.968 25.1919 238.968 27.1919 232.968 29.8919C244.968 29.1919 261.968 28.1919 271.468 27.6919Z" fill="#EDADBF" stroke="black" stroke-width="0.5"/>
<path d="M276.97 33.9919L282.968 31.6919L272.469 27.6919L228.469 30.1919C220.969 45.1919 205.969 75.6919 197.969 76.6919H212.469C210.969 65.6919 220.469 42.1919 245.47 51.1919C255.97 45.6919 265.97 40.1919 276.97 33.9919Z" fill="#EDADBF" stroke="black" stroke-width="0.5"/>
<path d="M277.968 33.6919C265.968 40.1919 255.968 45.6919 245.468 51.1919C249.968 54.1919 260.468 60.1919 259.468 79.1919L284.468 78.6919V77.1919C292.968 76.1919 301.468 79.6919 299.968 65.6919L301.968 55.6919C301.968 54.1919 299.468 50.1919 296.968 49.6919C298.468 47.1919 295.468 38.1919 295.468 38.1919V36.6919L291.468 33.6919L286.468 32.1919L282.968 31.6919L277.968 33.6919Z" fill="#EDADBF" stroke="black" stroke-width="0.5"/>
<path d="M280.968 26.1919L272.468 27.6919L282.968 31.6919C292.468 32.6919 291.467 34.1919 295.462 36.6121L294.968 28.1919L280.968 26.1919Z" fill="#EDADBF"/>
<path d="M295.468 36.6919L295.462 36.6121M295.462 36.6121L294.968 28.1919L280.968 26.1919L272.468 27.6919L282.968 31.6919C292.468 32.6919 291.467 34.1919 295.462 36.6121Z" stroke="black" stroke-width="0.5"/>
<path d="M293.97 36.1921C293.47 33.692 282.47 33.4919 276.97 33.9919" stroke="black" stroke-width="0.5"/>
<path d="M299.97 66.1919L260.47 68.1919C259.97 63.1919 257.803 59.0252 255.97 57.1919L301.97 54.6919M300.47 52.1919C289.47 50.6919 278.47 45.8919 266.47 39.8919M228.47 30.1919L272.47 27.6919L280.97 26.1919" stroke="black" stroke-width="0.5"/>
<path d="M290.47 40.1919C290.47 38.1919 289.47 34.1919 285.97 32.1919C288.191 32.1919 291.567 33.2323 294.079 35.6019C294.542 37.1319 293.47 40.6919 290.428 42.1919C290.414 41.6016 290.47 40.9162 290.47 40.1919Z" fill="#EDADBF"/>
<path d="M272.47 42.6919C279.465 43.0417 285.482 43.1468 290.863 43.6919M297.47 44.6919C295.367 44.2413 293.173 43.926 290.863 43.6919M295.47 37.1919C295.052 36.6068 294.583 36.0775 294.079 35.6019M290.863 43.6919C290.537 43.3471 290.443 42.8241 290.428 42.1919M290.428 42.1919C290.414 41.6016 290.47 40.9162 290.47 40.1919C290.47 38.1919 289.47 34.1919 285.97 32.1919C288.191 32.1919 291.567 33.2323 294.079 35.6019M290.428 42.1919C293.47 40.6919 294.542 37.1319 294.079 35.6019" stroke="black" stroke-width="0.5"/>
<path d="M290.47 40.1919C285.97 40.1919 283.97 36.1919 282.97 33.6919" stroke="black" stroke-width="0.5"/>
<path d="M132.468 12.2919C118.968 16.2919 106.968 22.1919 92.9678 35.1919C99.9678 23.1919 115.468 13.6919 130.968 8.69189L132.468 12.2919Z" fill="#E0426F" stroke="black" stroke-width="0.5"/>
<path d="M130.968 8.69189C110.968 14.3659 92.9678 31.6919 84.9678 29.6919C97.9678 20.1919 113.968 11.6919 130.468 7.19189L130.968 8.69189Z" fill="#E0426F" stroke="black" stroke-width="0.5"/>
<path d="M9.96844 47.6918H3.96844C1.46777 51.6918 1.46777 61.6918 1.96844 65.1918C0.467773 66.1918 0.468371 70.6918 1.46844 72.1918L5.46844 72.6918V74.1918L1.46844 76.1918V78.1918C5.46844 79.1918 13.9684 81.1918 21.9684 80.6918V79.1918H39.4684C38.8018 70.6918 40.4684 60.1918 49.4684 53.1918C46.9684 49.1918 39.9684 44.6918 36.9684 44.1918C26.9684 43.1918 11.9684 45.6918 9.96844 47.6918Z" fill="#E0426F" stroke="black" stroke-width="0.5"/>
<path d="M92.9697 35.1919C75.1364 36.0252 43.4697 40.8919 32.9697 43.8919L36.9697 44.1919C41.9697 45.6919 47.4697 50.0252 49.4697 53.1919C62.4688 43.6919 87.9688 50.6919 86.4688 78.1919H96.4688C89.4688 67.1919 90.4688 45.1919 92.9697 35.1919Z" fill="#E0426F" stroke="black" stroke-width="0.5"/>
<path d="M9.96777 47.6919H3.96777C36.468 28.1918 58.468 34.1919 84.4678 29.6919L93.468 35.1919C76.468 36.1919 47.4678 39.6919 33.4678 43.8919C25.4678 43.6919 11.4678 45.6919 9.96777 47.6919Z" fill="#E0426F" stroke="black" stroke-width="0.5"/>
<path d="M36.9692 44.192C29.4692 43.1919 12.4692 45.1919 9.96923 47.692C9.16923 50.0919 12.3026 53.0252 13.9692 54.1919C23.4692 55.6919 36.9692 49.6919 36.9692 44.192Z" fill="#E0426F" stroke="black" stroke-width="0.5"/>
<path d="M3.96847 47.6919C10.9685 48.6919 4.96847 59.1919 1.96847 64.1919C1.4684 57.1919 1.96826 51.6919 3.96847 47.6919Z" fill="#E0426F" stroke="black" stroke-width="0.5"/>
<path d="M21.9678 83.6919V79.1919H39.4678L39.9678 83.6919H21.9678Z" fill="#E0426F" stroke="black" stroke-width="0.5"/>
<path d="M2.46973 65.1919C3.96973 67.6919 5.96973 70.8586 5.46973 72.6919M21.9697 79.1919C11.4697 79.6919 6.96973 75.6919 7.96973 72.1919C8.46973 71.6919 9.96973 70.1919 10.9697 70.1919" stroke="black" stroke-width="0.5"/>
<path d="M31.9697 74.192C29.4697 70.192 23.9697 65.1921 20.9697 63.6921C19.2197 63.1921 16.5946 63.3171 13.8445 63.6921C12.2196 65.0254 10.9697 68.192 11.4697 71.192C11.4697 72.3587 12.7771 74.692 15.4697 74.692C19.9697 74.692 26.9697 75.192 31.9697 74.192Z" fill="#E0426F"/>
<path d="M5.96973 65.1921C8.21967 64.6921 11.0946 64.0671 13.8445 63.6921M13.8445 63.6921C16.5946 63.3171 19.2197 63.1921 20.9697 63.6921C23.9697 65.1921 29.4697 70.192 31.9697 74.192C26.9697 75.192 19.9697 74.692 15.4697 74.692C12.7771 74.692 11.4697 72.3587 11.4697 71.192C10.9697 68.192 12.2196 65.0254 13.8445 63.6921Z" stroke="black" stroke-width="0.5"/>
<path d="M11.4697 70.6921C19.4697 69.1921 22.9697 71.8206 25.9697 73.3206M12.9697 73.6921L30.4697 73.1921" stroke="black" stroke-width="0.5"/>
<path d="M21.9678 82.1919H31.4678C33.4678 82.1919 34.9678 80.1919 34.4678 79.1919M37.9678 79.1919V83.6919" stroke="black" stroke-width="0.5"/>
<path d="M21.9697 80.6921C17.4697 80.6921 12.9697 81.1921 1.46967 78.1921V76.1921L5.46967 74.1921V72.6921L1.46967 72.1921C0.96875 70.6919 -0.0310541 67.6919 1.96894 65.1919C1.46918 57.1919 1.96918 50.6919 3.96967 47.6916C36.4697 28.192 58.4697 34.1921 84.4697 29.6921C162.47 -25.308 244.47 11.6919 281.47 26.1921L294.97 28.1919L295.47 35.1919V38.1919C296.968 43.1919 298.303 47.6919 296.97 49.6919C299.47 50.6919 301.97 53.8586 301.97 55.6919L299.97 65.6919C300.422 76.5398 298.013 76.7641 288.682 77.0765C287.691 77.1097 285.622 77.1439 284.47 77.1919V78.6919L259.47 79.1229M21.9697 80.6921V83.6921H39.968L39.4697 79.1921M21.9697 80.6921V79.1921H39.4697M39.4697 79.1921C36.4697 37.6921 89.9697 40.6921 86.4697 79.6921V82.1919H212.97C206.97 38.6919 261.47 38.6919 259.47 79.1229M258.968 79.1229H259.47" stroke="black"/>
</svg>
