<svg width="304" height="96" viewBox="0 0 304 96" fill="none" xmlns="http://www.w3.org/2000/svg">
<circle cx="63.0742" cy="74.3687" r="20.5" fill="#EDADBF" stroke="black"/>
<circle cx="236.074" cy="74.3687" r="20.5" fill="#EDADBF" stroke="black"/>
<path d="M133.072 12.8685L131.572 9.36851C171.572 1.36862 193.072 1.86865 232.072 13.3686L228.572 17.8686C208.572 9.86856 190.572 8.86856 174.572 8.36863C172.072 7.86863 168.072 7.86859 165.572 8.36851C155.572 8.36863 143.572 9.86863 133.072 12.8685Z" fill="#EDADBF" stroke="black" stroke-width="0.5"/>
<path d="M131.572 9.3687L131.072 7.8687C167.072 -3.13135 199.572 0.868526 235.072 9.8687L232.072 13.3687C192.072 0.868652 166.072 2.36865 131.572 9.3687Z" fill="#EDADBF" stroke="black" stroke-width="0.5"/>
<path d="M131.572 9.36876C183.072 -2.13126 211.572 7.86877 232.072 13.3688" stroke="black" stroke-width="0.5"/>
<path d="M171.074 30.3687L174.574 8.36865C208.074 9.36865 219.574 14.8687 224.074 16.3687L226.557 28.3687C199.567 28.3693 182.072 29.8688 171.074 30.3687Z" fill="#EDADBF"/>
<path d="M227.074 30.8687L224.074 16.3687C219.574 14.8687 208.074 9.36865 174.574 8.36865L171.074 30.3687C182.074 29.8687 199.574 28.3687 226.574 28.3687" stroke="black" stroke-width="0.5"/>
<path d="M165.574 8.36865C132.574 9.36865 112.574 18.3687 93.5742 35.8687L96.0742 33.8687L160.074 30.8687L165.574 8.36865Z" fill="#EDADBF" stroke="black" stroke-width="0.5"/>
<path d="M240.072 22.8687C236.406 20.202 230.572 17.8687 224.072 16.3687L226.572 28.3687H233.072C236.072 26.8687 239.072 24.6374 240.072 22.8687Z" fill="#EDADBF" stroke="black" stroke-width="0.5"/>
<path d="M97.0742 78.8687H164.074L198.574 77.3687H213.074L213.574 82.8687H199.574H98.5742H87.0742V78.8687H97.0742Z" fill="#EDADBF"/>
<path d="M97.0742 78.8687H164.074L198.574 77.3687M97.0742 78.8687C97.0742 80.3687 97.5742 81.3687 98.5742 82.8687M97.0742 78.8687H87.0742V82.8687H98.5742M198.574 77.3687L199.574 82.8687M198.574 77.3687H213.074L213.574 82.8687H199.574M199.574 82.8687H98.5742" stroke="black" stroke-width="0.5"/>
<path d="M97.0733 78.8687C92.5742 74.3687 89.5743 52.3687 93.5733 35.8687L165.574 31.8687C161.574 36.8687 160.574 70.8687 164.074 78.8687H97.0733Z" fill="#EDADBF" stroke="black" stroke-width="0.5"/>
<path d="M229.074 30.8687L165.574 31.8687C161.574 36.8687 160.574 70.8687 164.074 78.8687L198.574 77.3687C203.074 75.8687 209.574 70.3687 229.074 30.8687Z" fill="#EDADBF" stroke="black" stroke-width="0.5"/>
<path d="M171.074 30.3687C166.574 30.8687 163.074 30.8687 160.074 30.8687L165.574 8.36873C168.574 7.86865 171.574 7.86865 174.574 8.36873L171.074 30.3687Z" fill="#EDADBF" stroke="black" stroke-width="0.5"/>
<path d="M99.5742 32.3689C104.074 37.8689 111.074 34.3689 115.074 32.8689C116.074 17.3688 103.074 25.3688 99.5742 32.3689Z" fill="#EDADBF" stroke="black" stroke-width="0.5"/>
<path d="M235.072 9.86865L232.072 13.3687C249.072 18.8687 259.572 21.8687 272.072 28.3687H273.572L281.572 26.8687C266.572 20.3687 259.072 17.8687 235.072 9.86865Z" fill="#EDADBF" stroke="black" stroke-width="0.5"/>
<path d="M272.072 28.3687C261.572 22.8687 242.572 16.3687 232.072 13.3687L230.072 15.8687L245.072 23.3687C243.572 25.8687 239.572 27.8687 233.572 30.5687C245.572 29.8687 262.572 28.8687 272.072 28.3687Z" fill="#EDADBF" stroke="black" stroke-width="0.5"/>
<path d="M277.574 34.6687L283.573 32.3687L273.073 28.3687L229.073 30.8687C221.573 45.8687 206.573 76.3687 198.573 77.3687H213.073C211.573 66.3687 221.073 42.8687 246.074 51.8687C256.574 46.3687 266.574 40.8687 277.574 34.6687Z" fill="#EDADBF" stroke="black" stroke-width="0.5"/>
<path d="M278.572 34.3687C266.572 40.8687 256.572 46.3687 246.072 51.8687C250.572 54.8687 261.072 60.8687 260.072 79.8687L285.072 79.3687V77.8687C293.572 76.8687 302.072 80.3687 300.572 66.3687L302.572 56.3687C302.572 54.8687 300.072 50.8687 297.572 50.3687C299.072 47.8687 296.072 38.8687 296.072 38.8687V37.3687L292.072 34.3687L287.072 32.8687L283.572 32.3687L278.572 34.3687Z" fill="#EDADBF" stroke="black" stroke-width="0.5"/>
<path d="M281.572 26.8687L273.072 28.3687L283.572 32.3687C293.072 33.3687 292.071 34.8687 296.066 37.2888L295.572 28.8687L281.572 26.8687Z" fill="#EDADBF"/>
<path d="M296.072 37.3687L296.066 37.2888M296.066 37.2888L295.572 28.8687L281.572 26.8687L273.072 28.3687L283.572 32.3687C293.072 33.3687 292.071 34.8687 296.066 37.2888Z" stroke="black" stroke-width="0.5"/>
<path d="M294.574 36.8689C294.074 34.3687 283.074 34.1687 277.574 34.6687" stroke="black" stroke-width="0.5"/>
<path d="M300.574 66.8687L261.074 68.8687C260.574 63.8687 258.408 59.702 256.574 57.8687L302.574 55.3687M301.074 52.8687C290.074 51.3687 279.074 46.5687 267.074 40.5687M229.074 30.8687L273.074 28.3687L281.574 26.8687" stroke="black" stroke-width="0.5"/>
<path d="M291.074 40.8687C291.074 38.8687 290.074 34.8687 286.574 32.8687C288.795 32.8687 292.172 33.909 294.683 36.2786C295.147 37.8086 294.074 41.3687 291.032 42.8687C291.019 42.2784 291.074 41.5929 291.074 40.8687Z" fill="#EDADBF"/>
<path d="M273.074 43.3687C280.07 43.7184 286.087 43.8235 291.467 44.3687M298.074 45.3687C295.971 44.918 293.778 44.6028 291.467 44.3687M296.074 37.8687C295.656 37.2835 295.187 36.7543 294.683 36.2786M291.467 44.3687C291.141 44.0239 291.047 43.5008 291.032 42.8687M291.032 42.8687C291.019 42.2784 291.074 41.5929 291.074 40.8687C291.074 38.8687 290.074 34.8687 286.574 32.8687C288.795 32.8687 292.172 33.909 294.683 36.2786M291.032 42.8687C294.074 41.3687 295.147 37.8086 294.683 36.2786" stroke="black" stroke-width="0.5"/>
<path d="M291.074 40.8687C286.574 40.8687 284.574 36.8687 283.574 34.3687" stroke="black" stroke-width="0.5"/>
<path d="M133.072 12.9686C119.572 16.9686 107.572 22.8687 93.5723 35.8687C100.572 23.8687 116.072 14.3687 131.572 9.36865L133.072 12.9686Z" fill="#E56E90" stroke="black" stroke-width="0.5"/>
<path d="M131.572 9.36865C111.572 15.0427 93.5723 32.3687 85.5723 30.3687C98.5723 20.8687 114.572 12.3687 131.072 7.86865L131.572 9.36865Z" fill="#E56E90" stroke="black" stroke-width="0.5"/>
<path d="M10.5729 48.3685H4.57293C2.07227 52.3685 2.07227 62.3685 2.57293 65.8685C1.07227 66.8685 1.07286 71.3685 2.07293 72.8685L6.07293 73.3685V74.8685L2.07293 76.8685V78.8685C6.07293 79.8685 14.5729 81.8685 22.5729 81.3685V79.8685H40.0729C39.4063 71.3685 41.0729 60.8685 50.0729 53.8685C47.5729 49.8685 40.5729 45.3685 37.5729 44.8685C27.5729 43.8685 12.5729 46.3685 10.5729 48.3685Z" fill="#E56E90" stroke="black" stroke-width="0.5"/>
<path d="M93.5742 35.8687C75.7409 36.702 44.0742 41.5687 33.5742 44.5687L37.5742 44.8687C42.5742 46.3687 48.0742 50.702 50.0742 53.8687C63.0732 44.3687 88.5732 51.3687 87.0732 78.8687H97.0732C90.0732 67.8687 91.0732 45.8687 93.5742 35.8687Z" fill="#E56E90" stroke="black" stroke-width="0.5"/>
<path d="M10.5723 48.3687H4.57227C37.0724 28.8686 59.0725 34.8687 85.0723 30.3687L94.0725 35.8687C77.0725 36.8687 48.0723 40.3686 34.0723 44.5687C26.0723 44.3686 12.0723 46.3686 10.5723 48.3687Z" fill="#E56E90" stroke="black" stroke-width="0.5"/>
<path d="M37.5737 44.8687C30.0737 43.8687 13.0737 45.8687 10.5737 48.3687C9.77372 50.7687 12.9071 53.702 14.5737 54.8687C24.0737 56.3687 37.5737 50.3687 37.5737 44.8687Z" fill="#E56E90" stroke="black" stroke-width="0.5"/>
<path d="M4.57296 48.3687C11.573 49.3687 5.57296 59.8687 2.57296 64.8687C2.07289 57.8687 2.57275 52.3687 4.57296 48.3687Z" fill="#E56E90" stroke="black" stroke-width="0.5"/>
<path d="M22.5723 84.3687V79.8687H40.0723L40.5723 84.3687H22.5723Z" fill="#E56E90" stroke="black" stroke-width="0.5"/>
<path d="M3.07422 65.8687C4.57422 68.3687 6.57422 71.5353 6.07422 73.3687M22.5742 79.8687C12.0742 80.3687 7.57422 76.3687 8.57422 72.8687C9.07422 72.3687 10.5742 70.8687 11.5742 70.8687" stroke="black" stroke-width="0.5"/>
<path d="M32.5742 74.8688C30.0742 70.8688 24.5742 65.8689 21.5742 64.3689C19.8242 63.8688 17.1991 63.9938 14.449 64.3689C12.8241 65.7022 11.5742 68.8688 12.0742 71.8688C12.0742 73.0354 13.3816 75.3688 16.0742 75.3688C20.5742 75.3688 27.5742 75.8688 32.5742 74.8688Z" fill="#E56E90"/>
<path d="M6.57422 65.8689C8.82416 65.3688 11.6991 64.7438 14.449 64.3689M14.449 64.3689C17.1991 63.9938 19.8242 63.8688 21.5742 64.3689C24.5742 65.8689 30.0742 70.8688 32.5742 74.8688C27.5742 75.8688 20.5742 75.3688 16.0742 75.3688C13.3816 75.3688 12.0742 73.0354 12.0742 71.8688C11.5742 68.8688 12.8241 65.7022 14.449 64.3689Z" stroke="black" stroke-width="0.5"/>
<path d="M12.0742 71.3688C20.0742 69.8689 23.5742 72.4974 26.5742 73.9974M13.5742 74.3689L31.0742 73.8689" stroke="black" stroke-width="0.5"/>
<path d="M22.5723 82.8687H32.0723C34.0723 82.8687 35.5723 80.8687 35.0723 79.8687M38.5723 79.8687V84.3687" stroke="black" stroke-width="0.5"/>
<path d="M22.5742 81.3689C18.0742 81.3689 13.5742 81.8689 2.07416 78.8689V76.8689L6.07417 74.8689V73.3689L2.07416 72.8689C1.57324 71.3687 0.573438 68.3687 2.57343 65.8687C2.07368 57.8687 2.57368 51.3687 4.57417 48.3684C37.0742 28.8688 59.0742 34.8688 85.0742 30.3688C163.074 -24.6313 245.074 12.3686 282.074 26.8688L295.574 28.8687L296.074 35.8687V38.8687C297.573 43.8687 298.908 48.3687 297.574 50.3687C300.074 51.3687 302.574 54.5353 302.574 56.3687L300.574 66.3687C301.026 77.2166 298.618 77.4408 289.286 77.7533C288.295 77.7865 286.226 77.8206 285.074 77.8687V79.3687L260.074 79.7997M22.5742 81.3689V84.3689H40.5725L40.0742 79.8689M22.5742 81.3689V79.8689H40.0742M40.0742 79.8689C37.0742 38.3689 90.5742 41.3689 87.0742 80.3689V82.8687H213.574C207.574 39.3687 262.074 39.3687 260.074 79.7997M259.573 79.7997H260.074" stroke="black"/>
</svg>
