<svg width="304" height="96" viewBox="0 0 304 96" fill="none" xmlns="http://www.w3.org/2000/svg">
<circle cx="63.0518" cy="74.0454" r="20.5" fill="#EDADBF" stroke="black"/>
<circle cx="236.052" cy="74.0454" r="20.5" fill="#EDADBF" stroke="black"/>
<path d="M133.05 12.5453L131.55 9.04527C171.55 1.04538 193.05 1.54541 232.05 13.0454L228.55 17.5454C208.55 9.54532 190.55 8.54532 174.55 8.04539C172.05 7.54539 168.05 7.54535 165.55 8.04527C155.55 8.04539 143.55 9.54539 133.05 12.5453Z" fill="#E56E90" stroke="black" stroke-width="0.5"/>
<path d="M131.55 9.04545L131.05 7.54545C167.05 -3.45459 199.55 0.545284 235.05 9.54546L232.05 13.0455C192.05 0.54541 166.05 2.04541 131.55 9.04545Z" fill="#E56E90" stroke="black" stroke-width="0.5"/>
<path d="M131.55 9.04552C183.05 -2.4545 211.55 7.54553 232.05 13.0455" stroke="black" stroke-width="0.5"/>
<path d="M171.052 30.0454L174.552 8.04541C208.052 9.04541 219.552 14.5454 224.052 16.0454L226.535 28.0454C199.544 28.046 182.049 29.5455 171.052 30.0454Z" fill="#E56E90"/>
<path d="M227.052 30.5454L224.052 16.0454C219.552 14.5454 208.052 9.04541 174.552 8.04541L171.052 30.0454C182.052 29.5454 199.552 28.0454 226.552 28.0454" stroke="black" stroke-width="0.5"/>
<path d="M165.552 8.04541C132.552 9.04541 112.552 18.0454 93.5518 35.5454L96.0518 33.5454L160.052 30.5454L165.552 8.04541Z" fill="#E56E90" stroke="black" stroke-width="0.5"/>
<path d="M240.05 22.5454C236.383 19.8787 230.55 17.5454 224.05 16.0454L226.55 28.0454H233.05C236.05 26.5454 239.05 24.3141 240.05 22.5454Z" fill="#E56E90" stroke="black" stroke-width="0.5"/>
<path d="M97.0518 78.5454H164.052L198.552 77.0454H213.052L213.552 82.5454H199.552H98.5518H87.0518V78.5454H97.0518Z" fill="#E56E90"/>
<path d="M97.0518 78.5454H164.052L198.552 77.0454M97.0518 78.5454C97.0518 80.0454 97.5518 81.0454 98.5518 82.5454M97.0518 78.5454H87.0518V82.5454H98.5518M198.552 77.0454L199.552 82.5454M198.552 77.0454H213.052L213.552 82.5454H199.552M199.552 82.5454H98.5518" stroke="black" stroke-width="0.5"/>
<path d="M97.0509 78.5454C92.5518 74.0454 89.5518 52.0454 93.5509 35.5454L165.552 31.5454C161.552 36.5454 160.552 70.5454 164.052 78.5454H97.0509Z" fill="#E56E90" stroke="black" stroke-width="0.5"/>
<path d="M229.052 30.5454L165.552 31.5454C161.552 36.5454 160.552 70.5454 164.052 78.5454L198.552 77.0454C203.052 75.5454 209.552 70.0454 229.052 30.5454Z" fill="#E56E90" stroke="black" stroke-width="0.5"/>
<path d="M171.052 30.0455C166.552 30.5455 163.052 30.5455 160.052 30.5455L165.552 8.04548C168.552 7.54541 171.552 7.54541 174.552 8.04548L171.052 30.0455Z" fill="#E56E90" stroke="black" stroke-width="0.5"/>
<path d="M99.5518 32.0457C104.052 37.5457 111.052 34.0457 115.052 32.5457C116.052 17.0455 103.052 25.0455 99.5518 32.0457Z" fill="#E56E90" stroke="black" stroke-width="0.5"/>
<path d="M235.05 9.54541L232.05 13.0454C249.05 18.5454 259.55 21.5454 272.05 28.0454H273.55L281.55 26.5454C266.55 20.0454 259.05 17.5454 235.05 9.54541Z" fill="#E0426F" stroke="black" stroke-width="0.5"/>
<path d="M272.05 28.0454C261.55 22.5454 242.55 16.0454 232.05 13.0454L230.05 15.5454L245.05 23.0454C243.55 25.5454 239.55 27.5454 233.55 30.2454C245.55 29.5454 262.55 28.5454 272.05 28.0454Z" fill="#E0426F" stroke="black" stroke-width="0.5"/>
<path d="M277.552 34.3454L283.55 32.0454L273.051 28.0454L229.051 30.5454C221.551 45.5454 206.551 76.0454 198.551 77.0454H213.051C211.551 66.0454 221.051 42.5454 246.052 51.5454C256.552 46.0454 266.552 40.5454 277.552 34.3454Z" fill="#E0426F" stroke="black" stroke-width="0.5"/>
<path d="M278.55 34.0454C266.55 40.5454 256.55 46.0454 246.05 51.5454C250.55 54.5454 261.05 60.5454 260.05 79.5454L285.05 79.0454V77.5454C293.55 76.5454 302.05 80.0454 300.55 66.0454L302.55 56.0454C302.55 54.5454 300.05 50.5454 297.55 50.0454C299.05 47.5454 296.05 38.5454 296.05 38.5454V37.0454L292.05 34.0454L287.05 32.5454L283.55 32.0454L278.55 34.0454Z" fill="#E0426F" stroke="black" stroke-width="0.5"/>
<path d="M281.55 26.5454L273.05 28.0454L283.55 32.0454C293.05 33.0454 292.049 34.5454 296.044 36.9656L295.55 28.5454L281.55 26.5454Z" fill="#E0426F"/>
<path d="M296.05 37.0454L296.044 36.9656M296.044 36.9656L295.55 28.5454L281.55 26.5454L273.05 28.0454L283.55 32.0454C293.05 33.0454 292.049 34.5454 296.044 36.9656Z" stroke="black" stroke-width="0.5"/>
<path d="M294.552 36.5456C294.052 34.0455 283.052 33.8454 277.552 34.3454" stroke="black" stroke-width="0.5"/>
<path d="M300.552 66.5454L261.052 68.5454C260.552 63.5454 258.385 59.3787 256.552 57.5454L302.552 55.0454M301.052 52.5454C290.052 51.0454 279.052 46.2454 267.052 40.2454M229.052 30.5454L273.052 28.0454L281.552 26.5454" stroke="black" stroke-width="0.5"/>
<path d="M291.052 40.5454C291.052 38.5454 290.052 34.5454 286.552 32.5454C288.773 32.5454 292.149 33.5858 294.661 35.9554C295.124 37.4854 294.052 41.0454 291.01 42.5454C290.996 41.9551 291.052 41.2697 291.052 40.5454Z" fill="#E0426F"/>
<path d="M273.052 43.0454C280.047 43.3952 286.064 43.5003 291.445 44.0454M298.052 45.0454C295.949 44.5948 293.756 44.2795 291.445 44.0454M296.052 37.5454C295.634 36.9603 295.165 36.4311 294.661 35.9554M291.445 44.0454C291.119 43.7006 291.025 43.1776 291.01 42.5454M291.01 42.5454C290.996 41.9551 291.052 41.2697 291.052 40.5454C291.052 38.5454 290.052 34.5454 286.552 32.5454C288.773 32.5454 292.149 33.5858 294.661 35.9554M291.01 42.5454C294.052 41.0454 295.124 37.4854 294.661 35.9554" stroke="black" stroke-width="0.5"/>
<path d="M291.052 40.5454C286.552 40.5454 284.552 36.5454 283.552 34.0454" stroke="black" stroke-width="0.5"/>
<path d="M133.05 12.6454C119.55 16.6454 107.55 22.5454 93.5498 35.5454C100.55 23.5454 116.05 14.0454 131.55 9.04541L133.05 12.6454Z" fill="#EDADBF" stroke="black" stroke-width="0.5"/>
<path d="M131.55 9.04541C111.55 14.7194 93.5498 32.0454 85.5498 30.0454C98.5498 20.5454 114.55 12.0454 131.05 7.54541L131.55 9.04541Z" fill="#EDADBF" stroke="black" stroke-width="0.5"/>
<path d="M10.5505 48.0453H4.55047C2.0498 52.0453 2.0498 62.0453 2.55047 65.5453C1.0498 66.5453 1.0504 71.0453 2.05047 72.5453L6.05047 73.0453V74.5453L2.05047 76.5453V78.5453C6.05047 79.5453 14.5505 81.5453 22.5505 81.0453V79.5453H40.0505C39.3838 71.0453 41.0505 60.5453 50.0505 53.5453C47.5505 49.5453 40.5505 45.0453 37.5505 44.5453C27.5505 43.5453 12.5505 46.0453 10.5505 48.0453Z" fill="#EDADBF" stroke="black" stroke-width="0.5"/>
<path d="M93.5518 35.5454C75.7184 36.3787 44.0518 41.2454 33.5518 44.2454L37.5518 44.5454C42.5518 46.0454 48.0518 50.3787 50.0518 53.5454C63.0508 44.0454 88.5508 51.0454 87.0508 78.5454H97.0508C90.0508 67.5454 91.0508 45.5454 93.5518 35.5454Z" fill="#EDADBF" stroke="black" stroke-width="0.5"/>
<path d="M10.5498 48.0455H4.5498C37.05 28.5454 59.05 34.5454 85.0498 30.0454L94.05 35.5454C77.05 36.5454 48.0498 40.0454 34.0498 44.2454C26.0498 44.0454 12.0498 46.0454 10.5498 48.0455Z" fill="#EDADBF" stroke="black" stroke-width="0.5"/>
<path d="M37.5513 44.5455C30.0513 43.5454 13.0513 45.5454 10.5513 48.0455C9.75126 50.4454 12.8846 53.3787 14.5513 54.5454C24.0513 56.0454 37.5513 50.0454 37.5513 44.5455Z" fill="#EDADBF" stroke="black" stroke-width="0.5"/>
<path d="M4.5505 48.0454C11.5505 49.0454 5.5505 59.5454 2.5505 64.5454C2.05043 57.5454 2.55029 52.0454 4.5505 48.0454Z" fill="#EDADBF" stroke="black" stroke-width="0.5"/>
<path d="M22.5498 84.0454V79.5454H40.0498L40.5498 84.0454H22.5498Z" fill="#EDADBF" stroke="black" stroke-width="0.5"/>
<path d="M3.05176 65.5454C4.55176 68.0454 6.55176 71.2121 6.05176 73.0454M22.5518 79.5454C12.0518 80.0454 7.55176 76.0454 8.55176 72.5454C9.05176 72.0454 10.5518 70.5454 11.5518 70.5454" stroke="black" stroke-width="0.5"/>
<path d="M32.5518 74.5455C30.0518 70.5455 24.5518 65.5456 21.5518 64.0456C19.8017 63.5456 17.1766 63.6706 14.4265 64.0456C12.8016 65.3789 11.5518 68.5455 12.0518 71.5455C12.0518 72.7122 13.3592 75.0455 16.0518 75.0455C20.5518 75.0455 27.5518 75.5455 32.5518 74.5455Z" fill="#EDADBF"/>
<path d="M6.55176 65.5456C8.8017 65.0456 11.6766 64.4206 14.4265 64.0456M14.4265 64.0456C17.1766 63.6706 19.8017 63.5456 21.5518 64.0456C24.5518 65.5456 30.0518 70.5455 32.5518 74.5455C27.5518 75.5455 20.5518 75.0455 16.0518 75.0455C13.3592 75.0455 12.0518 72.7122 12.0518 71.5455C11.5518 68.5455 12.8016 65.3789 14.4265 64.0456Z" stroke="black" stroke-width="0.5"/>
<path d="M12.0518 71.0456C20.0518 69.5457 23.5518 72.1741 26.5518 73.6741M13.5518 74.0457L31.0518 73.5457" stroke="black" stroke-width="0.5"/>
<path d="M22.5498 82.5454H32.0498C34.0498 82.5454 35.5498 80.5454 35.0498 79.5454M38.5498 79.5454V84.0454" stroke="black" stroke-width="0.5"/>
<path d="M22.5517 81.0457C18.0517 81.0457 13.5517 81.5457 2.0517 78.5457V76.5457L6.0517 74.5456V73.0457L2.0517 72.5457C1.55078 71.0454 0.550977 68.0454 2.55097 65.5454C2.05122 57.5454 2.55122 51.0454 4.5517 48.0452C37.0517 28.5455 59.0517 34.5456 85.0517 30.0456C163.052 -24.9545 245.052 12.0454 282.052 26.5456L295.552 28.5454L296.052 35.5454V38.5454C297.55 43.5454 298.885 48.0454 297.552 50.0454C300.052 51.0454 302.552 54.2121 302.552 56.0454L300.552 66.0454C301.004 76.8933 298.596 77.1176 289.264 77.43C288.273 77.4632 286.204 77.4974 285.052 77.5454V79.0454L260.052 79.4764M22.5517 81.0457V84.0457H40.55L40.0517 79.5457M22.5517 81.0457V79.5457H40.0517M40.0517 79.5457C37.0517 38.0457 90.5517 41.0457 87.0517 80.0457V82.5454H213.552C207.552 39.0454 262.052 39.0454 260.052 79.4764M259.55 79.4764H260.052" stroke="black"/>
</svg>
