<svg width="303" height="95" viewBox="0 0 303 95" fill="none" xmlns="http://www.w3.org/2000/svg">
<circle cx="62.458" cy="73.8914" r="20.5" fill="#E0426F" stroke="black"/>
<circle cx="235.458" cy="73.8914" r="20.5" fill="#E0426F" stroke="black"/>
<path d="M132.456 12.3912L130.956 8.89121C170.956 0.891325 192.456 1.39136 231.456 12.8913L227.956 17.3913C207.956 9.39127 189.956 8.39127 173.956 7.89133C171.456 7.39133 167.456 7.3913 164.956 7.89121C154.956 7.89133 142.956 9.39134 132.456 12.3912Z" fill="#E0426F" stroke="black" stroke-width="0.5"/>
<path d="M130.956 8.8914L130.456 7.3914C166.456 -3.60864 198.956 0.391232 234.456 9.3914L231.456 12.8914C191.456 0.391357 165.456 1.89136 130.956 8.8914Z" fill="#E0426F" stroke="black" stroke-width="0.5"/>
<path d="M130.956 8.89122C182.456 -2.6088 210.956 7.39124 231.456 12.8912" stroke="black" stroke-width="0.5"/>
<path d="M170.458 29.8914L173.958 7.89136C207.458 8.89136 218.958 14.3914 223.458 15.8914L225.941 27.8914C198.951 27.892 181.456 29.3915 170.458 29.8914Z" fill="#E0426F"/>
<path d="M226.458 30.3914L223.458 15.8914C218.958 14.3914 207.458 8.89136 173.958 7.89136L170.458 29.8914C181.458 29.3914 198.958 27.8914 225.958 27.8914" stroke="black" stroke-width="0.5"/>
<path d="M164.958 7.89136C131.958 8.89136 111.958 17.8914 92.958 35.3914L95.458 33.3914L159.458 30.3914L164.958 7.89136Z" fill="#E0426F" stroke="black" stroke-width="0.5"/>
<path d="M239.456 22.3914C235.789 19.7247 229.956 17.3914 223.456 15.8914L225.956 27.8914H232.456C235.456 26.3914 238.456 24.1601 239.456 22.3914Z" fill="#E0426F" stroke="black" stroke-width="0.5"/>
<path d="M96.458 78.3914H163.458L197.958 76.8914H212.458L212.958 82.3914H198.958H97.958H86.458V78.3914H96.458Z" fill="#E0426F"/>
<path d="M96.458 78.3914H163.458L197.958 76.8914M96.458 78.3914C96.458 79.8914 96.958 80.8914 97.958 82.3914M96.458 78.3914H86.458V82.3914H97.958M197.958 76.8914L198.958 82.3914M197.958 76.8914H212.458L212.958 82.3914H198.958M198.958 82.3914H97.958" stroke="black" stroke-width="0.5"/>
<path d="M96.4571 78.3914C91.958 73.8914 88.9581 51.8914 92.9571 35.3914L164.958 31.3914C160.958 36.3914 159.958 70.3914 163.458 78.3914H96.4571Z" fill="#E0426F" stroke="black" stroke-width="0.5"/>
<path d="M228.458 30.3914L164.958 31.3914C160.958 36.3914 159.958 70.3914 163.458 78.3914L197.958 76.8914C202.458 75.3914 208.958 69.8914 228.458 30.3914Z" fill="#E0426F" stroke="black" stroke-width="0.5"/>
<path d="M170.458 29.8914C165.958 30.3914 162.458 30.3914 159.458 30.3914L164.958 7.89143C167.958 7.39136 170.958 7.39136 173.958 7.89143L170.458 29.8914Z" fill="#E0426F" stroke="black" stroke-width="0.5"/>
<path d="M98.958 31.8914C103.458 37.3914 110.458 33.8914 114.458 32.3914C115.458 16.8913 102.458 24.8912 98.958 31.8914Z" fill="#E0426F" stroke="black" stroke-width="0.5"/>
<path d="M234.456 9.39136L231.456 12.8914C248.456 18.3914 258.956 21.3914 271.456 27.8914H272.956L280.956 26.3914C265.956 19.8914 258.456 17.3914 234.456 9.39136Z" fill="#E56E90" stroke="black" stroke-width="0.5"/>
<path d="M271.456 27.8914C260.956 22.3914 241.956 15.8914 231.456 12.8914L229.456 15.3914L244.456 22.8914C242.956 25.3914 238.956 27.3914 232.956 30.0914C244.956 29.3914 261.956 28.3914 271.456 27.8914Z" fill="#E56E90" stroke="black" stroke-width="0.5"/>
<path d="M276.958 34.1914L282.956 31.8914L272.457 27.8914L228.457 30.3914C220.957 45.3914 205.957 75.8914 197.957 76.8914H212.457C210.957 65.8914 220.457 42.3914 245.458 51.3914C255.958 45.8914 265.958 40.3914 276.958 34.1914Z" fill="#E56E90" stroke="black" stroke-width="0.5"/>
<path d="M277.956 33.8914C265.956 40.3914 255.956 45.8914 245.456 51.3914C249.956 54.3914 260.456 60.3914 259.456 79.3914L284.456 78.8914V77.3914C292.956 76.3914 301.456 79.8914 299.956 65.8914L301.956 55.8914C301.956 54.3914 299.456 50.3914 296.956 49.8914C298.456 47.3914 295.456 38.3914 295.456 38.3914V36.8914L291.456 33.8914L286.456 32.3914L282.956 31.8914L277.956 33.8914Z" fill="#E56E90" stroke="black" stroke-width="0.5"/>
<path d="M280.956 26.3914L272.456 27.8914L282.956 31.8914C292.456 32.8914 291.455 34.3914 295.45 36.8115L294.956 28.3914L280.956 26.3914Z" fill="#E56E90"/>
<path d="M295.456 36.8914L295.45 36.8115M295.45 36.8115L294.956 28.3914L280.956 26.3914L272.456 27.8914L282.956 31.8914C292.456 32.8914 291.455 34.3914 295.45 36.8115Z" stroke="black" stroke-width="0.5"/>
<path d="M293.958 36.3916C293.458 33.8914 282.458 33.6914 276.958 34.1914" stroke="black" stroke-width="0.5"/>
<path d="M299.958 66.3914L260.458 68.3914C259.958 63.3914 257.791 59.2247 255.958 57.3914L301.958 54.8914M300.458 52.3914C289.458 50.8914 278.458 46.0914 266.458 40.0914M228.458 30.3914L272.458 27.8914L280.958 26.3914" stroke="black" stroke-width="0.5"/>
<path d="M290.458 40.3914C290.458 38.3914 289.458 34.3914 285.958 32.3914C288.179 32.3914 291.556 33.4317 294.067 35.8013C294.531 37.3313 293.458 40.8914 290.416 42.3914C290.403 41.8011 290.458 41.1156 290.458 40.3914Z" fill="#E56E90"/>
<path d="M272.458 42.8914C279.454 43.2411 285.471 43.3462 290.851 43.8914M297.458 44.8914C295.355 44.4407 293.162 44.1255 290.851 43.8914M295.458 37.3914C295.04 36.8062 294.571 36.277 294.067 35.8013M290.851 43.8914C290.525 43.5466 290.431 43.0235 290.416 42.3914M290.416 42.3914C290.403 41.8011 290.458 41.1156 290.458 40.3914C290.458 38.3914 289.458 34.3914 285.958 32.3914C288.179 32.3914 291.556 33.4317 294.067 35.8013M290.416 42.3914C293.458 40.8914 294.531 37.3313 294.067 35.8013" stroke="black" stroke-width="0.5"/>
<path d="M290.458 40.3914C285.958 40.3914 283.958 36.3914 282.958 33.8914" stroke="black" stroke-width="0.5"/>
<path d="M132.456 12.4913C118.956 16.4913 106.956 22.3914 92.9561 35.3914C99.9561 23.3914 115.456 13.8914 130.956 8.89136L132.456 12.4913Z" fill="#EDADBF" stroke="black" stroke-width="0.5"/>
<path d="M130.956 8.89136C110.956 14.5654 92.9561 31.8914 84.9561 29.8914C97.9561 20.3914 113.956 11.8914 130.456 7.39136L130.956 8.89136Z" fill="#EDADBF" stroke="black" stroke-width="0.5"/>
<path d="M9.95672 47.8912H3.95672C1.45605 51.8912 1.45605 61.8912 1.95672 65.3912C0.456055 66.3912 0.456652 70.8912 1.45672 72.3912L5.45672 72.8912V74.3912L1.45672 76.3912V78.3912C5.45672 79.3912 13.9567 81.3912 21.9567 80.8912V79.3912H39.4567C38.7901 70.8912 40.4567 60.3912 49.4567 53.3912C46.9567 49.3912 39.9567 44.8912 36.9567 44.3912C26.9567 43.3912 11.9567 45.8912 9.95672 47.8912Z" fill="#EDADBF" stroke="black" stroke-width="0.5"/>
<path d="M92.958 35.3914C75.1247 36.2247 43.458 41.0914 32.958 44.0914L36.958 44.3914C41.958 45.8914 47.458 50.2247 49.458 53.3914C62.457 43.8914 87.957 50.8914 86.457 78.3914H96.457C89.457 67.3914 90.457 45.3914 92.958 35.3914Z" fill="#EDADBF" stroke="black" stroke-width="0.5"/>
<path d="M9.95606 47.8914H3.95605C36.4562 28.3913 58.4563 34.3914 84.4561 29.8914L93.4563 35.3914C76.4563 36.3914 47.4561 39.8914 33.4561 44.0914C25.4561 43.8913 11.4561 45.8914 9.95606 47.8914Z" fill="#EDADBF" stroke="black" stroke-width="0.5"/>
<path d="M36.9575 44.3914C29.4575 43.3914 12.4575 45.3914 9.95751 47.8914C9.15751 50.2914 12.2908 53.2247 13.9575 54.3914C23.4575 55.8914 36.9575 49.8914 36.9575 44.3914Z" fill="#EDADBF" stroke="black" stroke-width="0.5"/>
<path d="M3.95675 47.8914C10.9568 48.8914 4.95675 59.3914 1.95675 64.3914C1.45668 57.3914 1.95654 51.8914 3.95675 47.8914Z" fill="#EDADBF" stroke="black" stroke-width="0.5"/>
<path d="M21.9561 83.8914V79.3914H39.4561L39.9561 83.8914H21.9561Z" fill="#EDADBF" stroke="black" stroke-width="0.5"/>
<path d="M2.45801 65.3911C3.95801 67.8911 5.95801 71.0578 5.45801 72.8911M21.958 79.3911C11.458 79.8911 6.95801 75.8911 7.95801 72.3911C8.45801 71.8911 9.95801 70.3911 10.958 70.3911" stroke="black" stroke-width="0.5"/>
<path d="M31.958 74.3912C29.458 70.3912 23.958 65.3913 20.958 63.8913C19.208 63.3913 16.5829 63.5163 13.8328 63.8913C12.2079 65.2246 10.958 68.3912 11.458 71.3912C11.458 72.5579 12.7654 74.8912 15.458 74.8912C19.958 74.8912 26.958 75.3912 31.958 74.3912Z" fill="#EDADBF"/>
<path d="M5.95801 65.3913C8.20795 64.8913 11.0829 64.2663 13.8328 63.8913M13.8328 63.8913C16.5829 63.5163 19.208 63.3913 20.958 63.8913C23.958 65.3913 29.458 70.3912 31.958 74.3912C26.958 75.3912 19.958 74.8912 15.458 74.8912C12.7654 74.8912 11.458 72.5579 11.458 71.3912C10.958 68.3912 12.2079 65.2246 13.8328 63.8913Z" stroke="black" stroke-width="0.5"/>
<path d="M11.458 70.8913C19.458 69.3914 22.958 72.0198 25.958 73.5198M12.958 73.8914L30.458 73.3914" stroke="black" stroke-width="0.5"/>
<path d="M21.9561 82.3911H31.4561C33.4561 82.3911 34.9561 80.3911 34.4561 79.3911M37.9561 79.3911V83.8911" stroke="black" stroke-width="0.5"/>
<path d="M21.958 80.8916C17.458 80.8916 12.958 81.3916 1.45795 78.3916V76.3916L5.45795 74.3916V72.8916L1.45795 72.3916C0.957031 70.8914 -0.0427729 67.8914 1.95722 65.3914C1.45747 57.3914 1.95747 50.8914 3.95795 47.8911C36.458 28.3915 58.4579 34.3915 84.4579 29.8915C162.458 -25.1086 244.458 11.8913 281.458 26.3915L294.958 28.3914L295.458 35.3914V38.3914C296.956 43.3914 298.291 47.8914 296.958 49.8914C299.458 50.8914 301.958 54.058 301.958 55.8914L299.958 65.8914C300.41 76.7393 298.002 76.9635 288.67 77.276C287.679 77.3092 285.61 77.3434 284.458 77.3914V78.8914L259.458 79.3224M21.958 80.8916V83.8916H39.9563L39.458 79.3916M21.958 80.8916V79.3916H39.458M39.458 79.3916C36.458 37.8916 89.9579 40.8916 86.4579 79.8916V82.3914H212.958C206.958 38.8914 261.458 38.8914 259.458 79.3224M258.956 79.3224H259.458" stroke="black"/>
</svg>
