<svg width="303" height="96" viewBox="0 0 303 96" fill="none" xmlns="http://www.w3.org/2000/svg">
<circle cx="62.4473" cy="74.3535" r="20.5" fill="#E0426F" stroke="black"/>
<circle cx="235.447" cy="74.3535" r="20.5" fill="#E0426F" stroke="black"/>
<path d="M132.445 12.8534L130.945 9.35337C170.945 1.35348 192.445 1.85352 231.445 13.3535L227.945 17.8535C207.945 9.85343 189.945 8.85342 173.945 8.35349C171.445 7.85349 167.445 7.85345 164.945 8.35337C154.945 8.35349 142.945 9.85349 132.445 12.8534Z" fill="#EFC7D3" stroke="black" stroke-width="0.5"/>
<path d="M130.945 9.35356L130.445 7.85356C166.445 -3.14648 198.945 0.85339 234.445 9.85356L231.445 13.3536C191.445 0.853516 165.445 2.35352 130.945 9.35356Z" fill="#EFC7D3" stroke="black" stroke-width="0.5"/>
<path d="M130.945 9.3535C182.445 -2.14652 210.945 7.85352 231.445 13.3535" stroke="black" stroke-width="0.5"/>
<path d="M170.447 30.3535L173.947 8.35352C207.447 9.35352 218.947 14.8535 223.447 16.3535L225.93 28.3535C198.94 28.3542 181.445 29.8536 170.447 30.3535Z" fill="#EFC7D3"/>
<path d="M226.447 30.8535L223.447 16.3535C218.947 14.8535 207.447 9.35352 173.947 8.35352L170.447 30.3535C181.447 29.8535 198.947 28.3535 225.947 28.3535" stroke="black" stroke-width="0.5"/>
<path d="M164.947 8.35352C131.947 9.35352 111.947 18.3535 92.9473 35.8535L95.4473 33.8535L159.447 30.8535L164.947 8.35352Z" fill="#EFC7D3" stroke="black" stroke-width="0.5"/>
<path d="M239.445 22.8535C235.779 20.1868 229.945 17.8535 223.445 16.3535L225.945 28.3535H232.445C235.445 26.8535 238.445 24.6223 239.445 22.8535Z" fill="#EFC7D3" stroke="black" stroke-width="0.5"/>
<path d="M96.4473 78.8535H163.447L197.947 77.3535H212.447L212.947 82.8535H198.947H97.9473H86.4473V78.8535H96.4473Z" fill="#EFC7D3"/>
<path d="M96.4473 78.8535H163.447L197.947 77.3535M96.4473 78.8535C96.4473 80.3535 96.9473 81.3535 97.9473 82.8535M96.4473 78.8535H86.4473V82.8535H97.9473M197.947 77.3535L198.947 82.8535M197.947 77.3535H212.447L212.947 82.8535H198.947M198.947 82.8535H97.9473" stroke="black" stroke-width="0.5"/>
<path d="M96.4464 78.8535C91.9473 74.3535 88.9473 52.3535 92.9464 35.8535L164.947 31.8535C160.947 36.8535 159.947 70.8535 163.447 78.8535H96.4464Z" fill="#EFC7D3" stroke="black" stroke-width="0.5"/>
<path d="M228.447 30.8535L164.947 31.8535C160.947 36.8535 159.948 70.8535 163.447 78.8535L197.947 77.3535C202.447 75.8535 208.947 70.3535 228.447 30.8535Z" fill="#EFC7D3" stroke="black" stroke-width="0.5"/>
<path d="M170.447 30.3536C165.947 30.8536 162.447 30.8536 159.447 30.8536L164.947 8.35359C167.947 7.85352 170.947 7.85352 173.947 8.35359L170.447 30.3536Z" fill="#EFC7D3" stroke="black" stroke-width="0.5"/>
<path d="M98.9473 32.3537C103.447 37.8537 110.447 34.3537 114.447 32.8537C115.447 17.3535 102.447 25.3535 98.9473 32.3537Z" fill="#EFC7D3" stroke="black" stroke-width="0.5"/>
<path d="M234.445 9.85352L231.445 13.3535C248.445 18.8535 258.945 21.8535 271.445 28.3535H272.945L280.945 26.8535C265.945 20.3535 258.445 17.8535 234.445 9.85352Z" fill="#E0426F" stroke="black" stroke-width="0.5"/>
<path d="M271.445 28.3535C260.945 22.8535 241.945 16.3535 231.445 13.3535L229.445 15.8535L244.445 23.3535C242.945 25.8535 238.945 27.8535 232.945 30.5535C244.945 29.8535 261.945 28.8535 271.445 28.3535Z" fill="#E0426F" stroke="black" stroke-width="0.5"/>
<path d="M276.947 34.6535L282.946 32.3535L272.446 28.3535L228.446 30.8535C220.946 45.8535 205.946 76.3535 197.946 77.3535H212.446C210.946 66.3535 220.446 42.8535 245.447 51.8535C255.947 46.3535 265.947 40.8535 276.947 34.6535Z" fill="#E0426F" stroke="black" stroke-width="0.5"/>
<path d="M277.945 34.3535C265.945 40.8535 255.945 46.3535 245.445 51.8535C249.945 54.8535 260.445 60.8535 259.445 79.8535L284.445 79.3535V77.8535C292.945 76.8535 301.445 80.3535 299.945 66.3535L301.945 56.3535C301.945 54.8535 299.445 50.8535 296.945 50.3535C298.445 47.8535 295.445 38.8535 295.445 38.8535V37.3535L291.445 34.3535L286.445 32.8535L282.945 32.3535L277.945 34.3535Z" fill="#E0426F" stroke="black" stroke-width="0.5"/>
<path d="M280.945 26.8535L272.445 28.3535L282.945 32.3535C292.445 33.3535 291.444 34.8535 295.439 37.2737L294.945 28.8535L280.945 26.8535Z" fill="#E0426F"/>
<path d="M295.445 37.3535L295.439 37.2737M295.439 37.2737L294.945 28.8535L280.945 26.8535L272.445 28.3535L282.945 32.3535C292.445 33.3535 291.444 34.8535 295.439 37.2737Z" stroke="black" stroke-width="0.5"/>
<path d="M293.947 36.8537C293.447 34.3536 282.447 34.1535 276.947 34.6535" stroke="black" stroke-width="0.5"/>
<path d="M299.947 66.8535L260.447 68.8535C259.947 63.8535 257.781 59.6868 255.947 57.8535L301.947 55.3535M300.447 52.8535C289.447 51.3535 278.447 46.5535 266.447 40.5535M228.447 30.8535L272.447 28.3535L280.947 26.8535" stroke="black" stroke-width="0.5"/>
<path d="M290.447 40.8535C290.447 38.8535 289.447 34.8535 285.947 32.8535C288.168 32.8535 291.545 33.8939 294.056 36.2635C294.52 37.7935 293.447 41.3535 290.405 42.8535C290.392 42.2632 290.447 41.5778 290.447 40.8535Z" fill="#E0426F"/>
<path d="M272.447 43.3535C279.443 43.7033 285.46 43.8084 290.84 44.3535M297.447 45.3535C295.344 44.9029 293.151 44.5876 290.84 44.3535M295.447 37.8535C295.029 37.2684 294.56 36.7392 294.056 36.2635M290.84 44.3535C290.514 44.0088 290.42 43.4857 290.405 42.8535M290.405 42.8535C290.392 42.2632 290.447 41.5778 290.447 40.8535C290.447 38.8535 289.447 34.8535 285.947 32.8535C288.168 32.8535 291.545 33.8939 294.056 36.2635M290.405 42.8535C293.447 41.3535 294.52 37.7935 294.056 36.2635" stroke="black" stroke-width="0.5"/>
<path d="M290.447 40.8535C285.947 40.8535 283.947 36.8535 282.947 34.3535" stroke="black" stroke-width="0.5"/>
<path d="M132.445 12.9535C118.945 16.9535 106.945 22.8535 92.9453 35.8535C99.9453 23.8535 115.445 14.3535 130.945 9.35352L132.445 12.9535Z" fill="#EDADBF" stroke="black" stroke-width="0.5"/>
<path d="M130.945 9.35352C110.945 15.0276 92.9453 32.3535 84.9453 30.3535C97.9453 20.8535 113.945 12.3535 130.445 7.85352L130.945 9.35352Z" fill="#EDADBF" stroke="black" stroke-width="0.5"/>
<path d="M9.94598 48.3535H3.94598C1.44531 52.3535 1.44531 62.3535 1.94598 65.8535C0.445312 66.8535 0.44591 71.3535 1.44598 72.8535L5.44598 73.3535V74.8535L1.44598 76.8535V78.8535C5.44598 79.8535 13.946 81.8535 21.946 81.3535V79.8535H39.446C38.7793 71.3535 40.446 60.8535 49.446 53.8535C46.946 49.8535 39.946 45.3535 36.946 44.8535C26.946 43.8535 11.946 46.3535 9.94598 48.3535Z" fill="#EDADBF" stroke="black" stroke-width="0.5"/>
<path d="M92.9473 35.8535C75.1139 36.6868 43.4473 41.5535 32.9473 44.5535L36.9473 44.8535C41.9473 46.3535 47.4473 50.6868 49.4473 53.8535C62.4463 44.3535 87.9463 51.3535 86.4463 78.8535H96.4463C89.4463 67.8535 90.4463 45.8535 92.9473 35.8535Z" fill="#EDADBF" stroke="black" stroke-width="0.5"/>
<path d="M9.94531 48.3536H3.94531C36.4455 28.8535 58.4456 34.8535 84.4453 30.3535L93.4456 35.8535C76.4456 36.8535 47.4453 40.3535 33.4453 44.5535C25.4453 44.3535 11.4453 46.3535 9.94531 48.3536Z" fill="#EDADBF" stroke="black" stroke-width="0.5"/>
<path d="M36.9468 44.8536C29.4468 43.8535 12.4468 45.8535 9.94677 48.3536C9.14677 50.7535 12.2801 53.6868 13.9468 54.8535C23.4468 56.3535 36.9468 50.3535 36.9468 44.8536Z" fill="#EDADBF" stroke="black" stroke-width="0.5"/>
<path d="M3.94601 48.3535C10.946 49.3535 4.94601 59.8535 1.94601 64.8535C1.44594 57.8535 1.9458 52.3535 3.94601 48.3535Z" fill="#EDADBF" stroke="black" stroke-width="0.5"/>
<path d="M21.9453 84.3535V79.8535H39.4453L39.9453 84.3535H21.9453Z" fill="#EDADBF" stroke="black" stroke-width="0.5"/>
<path d="M2.44727 65.8535C3.94727 68.3535 5.94727 71.5202 5.44727 73.3535M21.9473 79.8535C11.4473 80.3535 6.94727 76.3535 7.94727 72.8535C8.44727 72.3535 9.94727 70.8535 10.9473 70.8535" stroke="black" stroke-width="0.5"/>
<path d="M31.9473 74.8535C29.4473 70.8535 23.9473 65.8536 20.9473 64.3536C19.1972 63.8536 16.5721 63.9786 13.8221 64.3536C12.1971 65.6869 10.9473 68.8535 11.4473 71.8535C11.4473 73.0202 12.7547 75.3535 15.4473 75.3535C19.9473 75.3535 26.9473 75.8535 31.9473 74.8535Z" fill="#EDADBF"/>
<path d="M5.94727 65.8536C8.19721 65.3536 11.0721 64.7286 13.8221 64.3536M13.8221 64.3536C16.5721 63.9786 19.1972 63.8536 20.9473 64.3536C23.9473 65.8536 29.4473 70.8535 31.9473 74.8535C26.9473 75.8535 19.9473 75.3535 15.4473 75.3535C12.7547 75.3535 11.4473 73.0202 11.4473 71.8535C10.9473 68.8535 12.1971 65.6869 13.8221 64.3536Z" stroke="black" stroke-width="0.5"/>
<path d="M11.4473 71.3536C19.4473 69.8536 22.9473 72.4821 25.9473 73.9821M12.9473 74.3536L30.4473 73.8536" stroke="black" stroke-width="0.5"/>
<path d="M21.9453 82.8535H31.4453C33.4453 82.8535 34.9453 80.8535 34.4453 79.8535M37.9453 79.8535V84.3535" stroke="black" stroke-width="0.5"/>
<path d="M21.9472 81.3538C17.4472 81.3538 12.9472 81.8538 1.44721 78.8538V76.8538L5.44721 74.8538V73.3538L1.44721 72.8538C0.946289 71.3535 -0.0535151 68.3535 1.94648 65.8535C1.44672 57.8535 1.94672 51.3535 3.94721 48.3533C36.4472 28.8537 58.4472 34.8537 84.4472 30.3537C162.447 -24.6464 244.447 12.3535 281.447 26.8537L294.947 28.8535L295.447 35.8535V38.8535C296.946 43.8535 298.281 48.3535 296.947 50.3535C299.447 51.3535 301.947 54.5202 301.947 56.3535L299.947 66.3535C300.399 77.2014 297.991 77.4257 288.66 77.7382C287.668 77.7713 285.599 77.8055 284.447 77.8535V79.3535L259.447 79.7846M21.9472 81.3538V84.3538H39.9456L39.4472 79.8538M21.9472 81.3538V79.8538H39.4472M39.4472 79.8538C36.4472 38.3538 89.9472 41.3538 86.4472 80.3538V82.8535H212.947C206.947 39.3535 261.447 39.3535 259.447 79.7846M258.946 79.7846H259.447" stroke="black"/>
</svg>
