<svg width="303" height="96" viewBox="0 0 303 96" fill="none" xmlns="http://www.w3.org/2000/svg">
<circle cx="62.8955" cy="74.5378" r="20.5" fill="#EFC7D3" stroke="black"/>
<circle cx="235.896" cy="74.5378" r="20.5" fill="#EFC7D3" stroke="black"/>
<path d="M132.894 13.0377L131.394 9.5377C171.394 1.53781 192.894 2.03784 231.894 13.5378L228.394 18.0378C208.394 10.0378 190.394 9.03775 174.394 8.53782C171.894 8.03782 167.894 8.03778 165.394 8.5377C155.394 8.53782 143.394 10.0378 132.894 13.0377Z" fill="#EDADBF" stroke="black" stroke-width="0.5"/>
<path d="M131.394 9.53789L130.894 8.03789C166.894 -2.96216 199.394 1.03772 234.894 10.0379L231.894 13.5379C191.894 1.03784 165.894 2.53784 131.394 9.53789Z" fill="#EDADBF" stroke="black" stroke-width="0.5"/>
<path d="M131.394 9.53771C182.894 -1.96232 211.394 8.03772 231.894 13.5377" stroke="black" stroke-width="0.5"/>
<path d="M170.896 30.5378L174.396 8.53784C207.896 9.53784 219.396 15.0378 223.896 16.5378L226.378 28.5378C199.388 28.5385 181.893 30.0379 170.896 30.5378Z" fill="#EDADBF"/>
<path d="M226.896 31.0378L223.896 16.5378C219.396 15.0378 207.896 9.53784 174.396 8.53784L170.896 30.5378C181.896 30.0378 199.396 28.5378 226.396 28.5378" stroke="black" stroke-width="0.5"/>
<path d="M165.396 8.53784C132.396 9.53784 112.396 18.5378 93.3955 36.0378L95.8955 34.0378L159.896 31.0378L165.396 8.53784Z" fill="#EDADBF" stroke="black" stroke-width="0.5"/>
<path d="M239.894 23.0378C236.227 20.3712 230.394 18.0378 223.894 16.5378L226.394 28.5378H232.894C235.894 27.0378 238.894 24.8066 239.894 23.0378Z" fill="#EDADBF" stroke="black" stroke-width="0.5"/>
<path d="M96.8955 79.0378H163.896L198.396 77.5378H212.896L213.396 83.0378H199.396H98.3955H86.8955V79.0378H96.8955Z" fill="#EDADBF"/>
<path d="M96.8955 79.0378H163.896L198.396 77.5378M96.8955 79.0378C96.8955 80.5378 97.3955 81.5378 98.3955 83.0378M96.8955 79.0378H86.8955V83.0378H98.3955M198.396 77.5378L199.396 83.0378M198.396 77.5378H212.896L213.396 83.0378H199.396M199.396 83.0378H98.3955" stroke="black" stroke-width="0.5"/>
<path d="M96.8946 79.0378C92.3955 74.5378 89.3956 52.5378 93.3946 36.0378L165.396 32.0378C161.396 37.0378 160.396 71.0378 163.896 79.0378H96.8946Z" fill="#EDADBF" stroke="black" stroke-width="0.5"/>
<path d="M228.895 31.0378L165.395 32.0378C161.396 37.0378 160.396 71.0378 163.895 79.0378L198.395 77.5378C202.895 76.0378 209.395 70.5378 228.895 31.0378Z" fill="#EDADBF" stroke="black" stroke-width="0.5"/>
<path d="M170.896 30.5379C166.396 31.0379 162.896 31.0379 159.896 31.0379L165.396 8.53792C168.396 8.03784 171.396 8.03784 174.396 8.53792L170.896 30.5379Z" fill="#EDADBF" stroke="black" stroke-width="0.5"/>
<path d="M99.3955 32.5379C103.896 38.0379 110.896 34.5379 114.896 33.0379C115.896 17.5377 102.896 25.5377 99.3955 32.5379Z" fill="#EDADBF" stroke="black" stroke-width="0.5"/>
<path d="M234.894 10.0378L231.894 13.5378C248.894 19.0378 259.394 22.0378 271.894 28.5378H273.394L281.394 27.0378C266.394 20.5378 258.894 18.0378 234.894 10.0378Z" stroke="black" stroke-width="0.5"/>
<path d="M271.894 28.5378C261.394 23.0378 242.394 16.5378 231.894 13.5378L229.894 16.0378L244.894 23.5378C243.394 26.0378 239.394 28.0378 233.394 30.7378C245.394 30.0378 262.394 29.0378 271.894 28.5378Z" stroke="black" stroke-width="0.5"/>
<path d="M277.396 34.8378L283.394 32.5378L272.895 28.5378L228.895 31.0378C221.395 46.0378 206.395 76.5378 198.395 77.5378H212.895C211.395 66.5378 220.895 43.0378 245.896 52.0378C256.396 46.5378 266.396 41.0378 277.396 34.8378Z" stroke="black" stroke-width="0.5"/>
<path d="M278.394 34.5379C266.394 41.0379 256.394 46.5379 245.894 52.0379C250.394 55.0378 260.894 61.0378 259.894 80.0378L284.894 79.5378V78.0378C293.394 77.0378 301.894 80.5378 300.394 66.5378L302.394 56.5378C302.394 55.0378 299.894 51.0378 297.394 50.5378C298.894 48.0378 295.894 39.0378 295.894 39.0378V37.5378L291.894 34.5378L286.894 33.0378L283.394 32.5378L278.394 34.5379Z" stroke="black" stroke-width="0.5"/>
<path d="M295.894 37.5378L295.888 37.458M295.888 37.458L295.394 29.0378L281.394 27.0378L272.894 28.5378L283.394 32.5378C292.894 33.5378 291.892 35.0378 295.888 37.458Z" stroke="black" stroke-width="0.5"/>
<path d="M294.396 37.038C293.896 34.5379 282.896 34.3379 277.396 34.8379" stroke="black" stroke-width="0.5"/>
<path d="M300.396 67.0378L260.896 69.0378C260.396 64.0378 258.229 59.8712 256.396 58.0378L302.396 55.5378M300.896 53.0378C289.896 51.5378 278.896 46.7378 266.896 40.7378M228.896 31.0378L272.896 28.5378L281.396 27.0378" stroke="black" stroke-width="0.5"/>
<path d="M272.896 43.5378C279.891 43.8876 285.908 43.9927 291.289 44.5378M297.896 45.5378C295.793 45.0872 293.599 44.7719 291.289 44.5378M295.896 38.0378C295.478 37.4527 295.008 36.9235 294.504 36.4478M291.289 44.5378C290.962 44.1931 290.868 43.67 290.854 43.0378M290.854 43.0378C290.84 42.4476 290.896 41.7621 290.896 41.0378C290.896 39.0378 289.896 35.0378 286.396 33.0378C288.616 33.0378 291.993 34.0782 294.504 36.4478M290.854 43.0378C293.896 41.5378 294.968 37.9778 294.504 36.4478" stroke="black" stroke-width="0.5"/>
<path d="M290.896 41.0378C286.396 41.0378 284.396 37.0378 283.396 34.5378" stroke="black" stroke-width="0.5"/>
<path d="M132.894 13.1378C119.394 17.1378 107.394 23.0378 93.394 36.0378C100.394 24.0378 115.894 14.5378 131.394 9.53784L132.894 13.1378Z" fill="#E0426F" stroke="black" stroke-width="0.5"/>
<path d="M131.394 9.53784C111.394 15.2119 93.394 32.5378 85.394 30.5378C98.394 21.0378 114.394 12.5378 130.894 8.03784L131.394 9.53784Z" fill="#E0426F" stroke="black" stroke-width="0.5"/>
<path d="M10.3947 48.5377H4.39471C1.89404 52.5377 1.89404 62.5377 2.39471 66.0377C0.894043 67.0377 0.89464 71.5377 1.89471 73.0377L5.89471 73.5377V75.0377L1.89471 77.0377V79.0377C5.89471 80.0377 14.3947 82.0377 22.3947 81.5377V80.0377H39.8947C39.228 71.5377 40.8947 61.0377 49.8947 54.0377C47.3947 50.0377 40.3947 45.5377 37.3947 45.0377C27.3947 44.0377 12.3947 46.5377 10.3947 48.5377Z" fill="#E0426F" stroke="black" stroke-width="0.5"/>
<path d="M93.3955 36.0378C75.5622 36.8712 43.8955 41.7378 33.3955 44.7378L37.3955 45.0378C42.3955 46.5378 47.8955 50.8712 49.8955 54.0378C62.8945 44.5378 88.3945 51.5378 86.8945 79.0378H96.8945C89.8945 68.0378 90.8945 46.0378 93.3955 36.0378Z" fill="#E0426F" stroke="black" stroke-width="0.5"/>
<path d="M10.3936 48.5379H4.39355C36.8937 29.0378 58.8938 35.0378 84.8936 30.5378L93.8938 36.0378C76.8938 37.0378 47.8936 40.5378 33.8936 44.7378C25.8936 44.5378 11.8936 46.5378 10.3936 48.5379Z" fill="#E0426F" stroke="black" stroke-width="0.5"/>
<path d="M37.3955 45.0379C29.8955 44.0378 12.8955 46.0378 10.3955 48.5379C9.5955 50.9379 12.7288 53.8712 14.3955 55.0378C23.8955 56.5378 37.3955 50.5378 37.3955 45.0379Z" fill="#E0426F" stroke="black" stroke-width="0.5"/>
<path d="M4.39474 48.5378C11.3947 49.5378 5.39474 60.0378 2.39474 65.0378C1.89467 58.0378 2.39453 52.5378 4.39474 48.5378Z" fill="#E0426F" stroke="black" stroke-width="0.5"/>
<path d="M22.394 84.5378V80.0378H39.894L40.394 84.5378H22.394Z" fill="#E0426F" stroke="black" stroke-width="0.5"/>
<path d="M2.89551 66.0376C4.39551 68.5376 6.39551 71.7043 5.89551 73.5376M22.3955 80.0376C11.8955 80.5376 7.39551 76.5376 8.39551 73.0376C8.89551 72.5376 10.3955 71.0376 11.3955 71.0376" stroke="black" stroke-width="0.5"/>
<path d="M32.3955 75.0377C29.8955 71.0377 24.3955 66.0378 21.3955 64.5378C19.6455 64.0378 17.0204 64.1628 14.2703 64.5378C12.6454 65.8711 11.3955 69.0377 11.8955 72.0377C11.8955 73.2044 13.2029 75.5377 15.8955 75.5377C20.3955 75.5377 27.3955 76.0377 32.3955 75.0377Z" fill="#E0426F"/>
<path d="M6.39551 66.0378C8.64545 65.5378 11.5204 64.9128 14.2703 64.5378M14.2703 64.5378C17.0204 64.1628 19.6455 64.0378 21.3955 64.5378C24.3955 66.0378 29.8955 71.0377 32.3955 75.0377C27.3955 76.0377 20.3955 75.5377 15.8955 75.5377C13.2029 75.5377 11.8955 73.2044 11.8955 72.0377C11.3955 69.0377 12.6454 65.8711 14.2703 64.5378Z" stroke="black" stroke-width="0.5"/>
<path d="M11.8955 71.5378C19.8955 70.0378 23.3955 72.6663 26.3955 74.1663M13.3955 74.5378L30.8955 74.0378" stroke="black" stroke-width="0.5"/>
<path d="M22.3936 83.0376H31.8936C33.8936 83.0376 35.3936 81.0376 34.8936 80.0376M38.3936 80.0376V84.5376" stroke="black" stroke-width="0.5"/>
<path d="M22.3955 81.5381C17.8955 81.5381 13.3955 82.0381 1.89545 79.0381V77.0381L5.89545 75.0381V73.5381L1.89545 73.0381C1.39453 71.5378 0.394727 68.5378 2.39472 66.0378C1.89497 58.0378 2.39497 51.5378 4.39545 48.5376C36.8955 29.038 58.8954 35.038 84.8954 30.538C162.895 -24.4621 244.895 12.5378 281.895 27.038L295.395 29.0378L295.895 36.0378V39.0378C297.394 44.0378 298.729 48.5378 297.395 50.5378C299.895 51.5378 302.395 54.7045 302.395 56.5378L300.395 66.5378C300.847 77.3858 298.439 77.61 289.108 77.9225C288.117 77.9557 286.048 77.9898 284.895 78.0378V79.5378L259.895 79.9689M22.3955 81.5381V84.5381H40.3938L39.8955 80.0381M22.3955 81.5381V80.0381H39.8955M39.8955 80.0381C36.8955 38.5381 90.3954 41.5381 86.8954 80.5381V83.0378H213.395C207.395 39.5378 261.895 39.5378 259.895 79.9689M259.394 79.9689H259.895" stroke="black"/>
</svg>
