<svg width="303" height="96" viewBox="0 0 303 96" fill="none" xmlns="http://www.w3.org/2000/svg">
<circle cx="62.8853" cy="74.3687" r="20.5" fill="#EFC7D3" stroke="black"/>
<circle cx="235.885" cy="74.3687" r="20.5" fill="#EFC7D3" stroke="black"/>
<path d="M132.884 12.8685L131.384 9.36851C171.384 1.36862 192.884 1.86865 231.884 13.3686L228.384 17.8686C208.384 9.86856 190.384 8.86856 174.384 8.36863C171.884 7.86863 167.884 7.86859 165.384 8.36851C155.384 8.36863 143.384 9.86863 132.884 12.8685Z" fill="#EDADBF" stroke="black" stroke-width="0.5"/>
<path d="M131.384 9.3687L130.884 7.8687C166.884 -3.13135 199.384 0.868526 234.884 9.8687L231.884 13.3687C191.884 0.868652 165.884 2.36865 131.384 9.3687Z" fill="#EDADBF" stroke="black" stroke-width="0.5"/>
<path d="M131.384 9.36876C182.884 -2.13126 211.384 7.86877 231.884 13.3688" stroke="black" stroke-width="0.5"/>
<path d="M170.885 30.3687L174.385 8.36865C207.885 9.36865 219.385 14.8687 223.885 16.3687L226.368 28.3687C199.378 28.3693 181.883 29.8688 170.885 30.3687Z" fill="#EDADBF"/>
<path d="M226.885 30.8687L223.885 16.3687C219.385 14.8687 207.885 9.36865 174.385 8.36865L170.885 30.3687C181.885 29.8687 199.385 28.3687 226.385 28.3687" stroke="black" stroke-width="0.5"/>
<path d="M165.385 8.36865C132.385 9.36865 112.385 18.3687 93.3853 35.8687L95.8853 33.8687L159.885 30.8687L165.385 8.36865Z" fill="#EDADBF" stroke="black" stroke-width="0.5"/>
<path d="M239.884 22.8687C236.217 20.202 230.384 17.8687 223.884 16.3687L226.384 28.3687H232.884C235.884 26.8687 238.884 24.6374 239.884 22.8687Z" fill="#EDADBF" stroke="black" stroke-width="0.5"/>
<path d="M96.8853 78.8687H163.885L198.385 77.3687H212.885L213.385 82.8687H199.385H98.3853H86.8853V78.8687H96.8853Z" fill="#EDADBF"/>
<path d="M96.8853 78.8687H163.885L198.385 77.3687M96.8853 78.8687C96.8853 80.3687 97.3853 81.3687 98.3853 82.8687M96.8853 78.8687H86.8853V82.8687H98.3853M198.385 77.3687L199.385 82.8687M198.385 77.3687H212.885L213.385 82.8687H199.385M199.385 82.8687H98.3853" stroke="black" stroke-width="0.5"/>
<path d="M96.8844 78.8687C92.3852 74.3687 89.3853 52.3687 93.3844 35.8687L165.385 31.8687C161.385 36.8687 160.385 70.8687 163.885 78.8687H96.8844Z" fill="#EDADBF" stroke="black" stroke-width="0.5"/>
<path d="M228.885 30.8687L165.385 31.8687C161.385 36.8687 160.385 70.8687 163.885 78.8687L198.385 77.3687C202.885 75.8687 209.385 70.3687 228.885 30.8687Z" fill="#EDADBF" stroke="black" stroke-width="0.5"/>
<path d="M170.885 30.3687C166.385 30.8687 162.885 30.8687 159.885 30.8687L165.385 8.36873C168.385 7.86865 171.385 7.86865 174.385 8.36873L170.885 30.3687Z" fill="#EDADBF" stroke="black" stroke-width="0.5"/>
<path d="M99.3853 32.3689C103.885 37.8689 110.885 34.3689 114.885 32.8689C115.885 17.3688 102.885 25.3688 99.3853 32.3689Z" fill="#EDADBF" stroke="black" stroke-width="0.5"/>
<path d="M234.884 9.86865L231.884 13.3687C248.884 18.8687 259.384 21.8687 271.884 28.3687H273.384L281.384 26.8687C266.384 20.3687 258.884 17.8687 234.884 9.86865Z" fill="#EFC7D3" stroke="black" stroke-width="0.5"/>
<path d="M271.884 28.3687C261.384 22.8687 242.384 16.3687 231.884 13.3687L229.884 15.8687L244.884 23.3687C243.384 25.8687 239.384 27.8687 233.384 30.5687C245.384 29.8687 262.384 28.8687 271.884 28.3687Z" fill="#EFC7D3" stroke="black" stroke-width="0.5"/>
<path d="M277.385 34.6687L283.384 32.3687L272.884 28.3687L228.884 30.8687C221.384 45.8687 206.384 76.3687 198.384 77.3687H212.884C211.384 66.3687 220.884 42.8687 245.885 51.8687C256.385 46.3687 266.385 40.8687 277.385 34.6687Z" fill="#EFC7D3" stroke="black" stroke-width="0.5"/>
<path d="M278.384 34.3687C266.384 40.8687 256.384 46.3687 245.884 51.8687C250.384 54.8687 260.884 60.8687 259.884 79.8687L284.884 79.3687V77.8687C293.384 76.8687 301.884 80.3687 300.384 66.3687L302.384 56.3687C302.384 54.8687 299.884 50.8687 297.384 50.3687C298.884 47.8687 295.884 38.8687 295.884 38.8687V37.3687L291.884 34.3687L286.884 32.8687L283.384 32.3687L278.384 34.3687Z" fill="#EFC7D3" stroke="black" stroke-width="0.5"/>
<path d="M281.384 26.8687L272.884 28.3687L283.384 32.3687C292.884 33.3687 291.883 34.8687 295.878 37.2888L295.384 28.8687L281.384 26.8687Z" fill="#EFC7D3"/>
<path d="M295.884 37.3687L295.878 37.2888M295.878 37.2888L295.384 28.8687L281.384 26.8687L272.884 28.3687L283.384 32.3687C292.884 33.3687 291.883 34.8687 295.878 37.2888Z" stroke="black" stroke-width="0.5"/>
<path d="M294.385 36.8689C293.885 34.3687 282.885 34.1687 277.385 34.6687" stroke="black" stroke-width="0.5"/>
<path d="M300.385 66.8687L260.885 68.8687C260.385 63.8687 258.219 59.702 256.385 57.8687L302.385 55.3687M300.885 52.8687C289.885 51.3687 278.885 46.5687 266.885 40.5687M228.885 30.8687L272.885 28.3687L281.385 26.8687" stroke="black" stroke-width="0.5"/>
<path d="M290.885 40.8687C290.885 38.8687 289.885 34.8687 286.385 32.8687C288.606 32.8687 291.983 33.909 294.494 36.2786C294.958 37.8086 293.885 41.3687 290.843 42.8687C290.83 42.2784 290.885 41.5929 290.885 40.8687Z" fill="#EFC7D3"/>
<path d="M272.885 43.3687C279.881 43.7184 285.898 43.8235 291.278 44.3687M297.885 45.3687C295.782 44.918 293.589 44.6028 291.278 44.3687M295.885 37.8687C295.467 37.2835 294.998 36.7543 294.494 36.2786M291.278 44.3687C290.952 44.0239 290.858 43.5008 290.843 42.8687M290.843 42.8687C290.83 42.2784 290.885 41.5929 290.885 40.8687C290.885 38.8687 289.885 34.8687 286.385 32.8687C288.606 32.8687 291.983 33.909 294.494 36.2786M290.843 42.8687C293.885 41.3687 294.958 37.8086 294.494 36.2786" stroke="black" stroke-width="0.5"/>
<path d="M290.885 40.8687C286.385 40.8687 284.385 36.8687 283.385 34.3687" stroke="black" stroke-width="0.5"/>
<path d="M132.884 12.9686C119.384 16.9686 107.384 22.8687 93.3838 35.8687C100.384 23.8687 115.884 14.3687 131.384 9.36865L132.884 12.9686Z" fill="#E56E90" stroke="black" stroke-width="0.5"/>
<path d="M131.384 9.36865C111.384 15.0427 93.3838 32.3687 85.3838 30.3687C98.3838 20.8687 114.384 12.3687 130.884 7.86865L131.384 9.36865Z" fill="#E56E90" stroke="black" stroke-width="0.5"/>
<path d="M10.3845 48.3685H4.38446C1.88379 52.3685 1.88379 62.3685 2.38446 65.8685C0.883789 66.8685 0.884387 71.3685 1.88446 72.8685L5.88446 73.3685V74.8685L1.88446 76.8685V78.8685C5.88446 79.8685 14.3845 81.8685 22.3845 81.3685V79.8685H39.8845C39.2178 71.3685 40.8845 60.8685 49.8845 53.8685C47.3845 49.8685 40.3845 45.3685 37.3845 44.8685C27.3845 43.8685 12.3845 46.3685 10.3845 48.3685Z" fill="#E56E90" stroke="black" stroke-width="0.5"/>
<path d="M93.3853 35.8687C75.5519 36.702 43.8853 41.5687 33.3853 44.5687L37.3853 44.8687C42.3853 46.3687 47.8853 50.702 49.8853 53.8687C62.8843 44.3687 88.3843 51.3687 86.8843 78.8687H96.8843C89.8843 67.8687 90.8843 45.8687 93.3853 35.8687Z" fill="#E56E90" stroke="black" stroke-width="0.5"/>
<path d="M10.3838 48.3687H4.38379C36.884 28.8686 58.884 34.8687 84.8838 30.3687L93.884 35.8687C76.884 36.8687 47.8838 40.3686 33.8838 44.5687C25.8838 44.3686 11.8838 46.3686 10.3838 48.3687Z" fill="#E56E90" stroke="black" stroke-width="0.5"/>
<path d="M37.3852 44.8687C29.8852 43.8687 12.8852 45.8687 10.3852 48.3687C9.58524 50.7687 12.7186 53.702 14.3852 54.8687C23.8853 56.3687 37.3852 50.3687 37.3852 44.8687Z" fill="#E56E90" stroke="black" stroke-width="0.5"/>
<path d="M4.38448 48.3687C11.3845 49.3687 5.38448 59.8687 2.38448 64.8687C1.88441 57.8687 2.38428 52.3687 4.38448 48.3687Z" fill="#E56E90" stroke="black" stroke-width="0.5"/>
<path d="M22.3838 84.3687V79.8687H39.8838L40.3838 84.3687H22.3838Z" fill="#E56E90" stroke="black" stroke-width="0.5"/>
<path d="M2.88574 65.8687C4.38574 68.3687 6.38574 71.5353 5.88574 73.3687M22.3857 79.8687C11.8857 80.3687 7.38574 76.3687 8.38574 72.8687C8.88574 72.3687 10.3857 70.8687 11.3857 70.8687" stroke="black" stroke-width="0.5"/>
<path d="M32.3857 74.8688C29.8857 70.8688 24.3857 65.8689 21.3857 64.3689C19.6357 63.8688 17.0106 63.9938 14.2605 64.3689C12.6356 65.7022 11.3857 68.8688 11.8857 71.8688C11.8857 73.0354 13.1932 75.3688 15.8857 75.3688C20.3857 75.3688 27.3857 75.8688 32.3857 74.8688Z" fill="#E56E90"/>
<path d="M6.38574 65.8689C8.63568 65.3688 11.5106 64.7438 14.2605 64.3689M14.2605 64.3689C17.0106 63.9938 19.6357 63.8688 21.3857 64.3689C24.3857 65.8689 29.8857 70.8688 32.3857 74.8688C27.3857 75.8688 20.3857 75.3688 15.8857 75.3688C13.1932 75.3688 11.8857 73.0354 11.8857 71.8688C11.3857 68.8688 12.6356 65.7022 14.2605 64.3689Z" stroke="black" stroke-width="0.5"/>
<path d="M11.8857 71.3688C19.8857 69.8689 23.3857 72.4974 26.3857 73.9974M13.3857 74.3689L30.8857 73.8689" stroke="black" stroke-width="0.5"/>
<path d="M22.3838 82.8687H31.8838C33.8838 82.8687 35.3838 80.8687 34.8838 79.8687M38.3838 79.8687V84.3687" stroke="black" stroke-width="0.5"/>
<path d="M22.3852 81.3689C17.8852 81.3689 13.3852 81.8689 1.8852 78.8689V76.8689L5.8852 74.8689V73.3689L1.8852 72.8689C1.38428 71.3687 0.384473 68.3687 2.38447 65.8687C1.88471 57.8687 2.38471 51.3687 4.3852 48.3684C36.8852 28.8688 58.8852 34.8688 84.8852 30.3688C162.885 -24.6313 244.885 12.3686 281.885 26.8688L295.385 28.8687L295.885 35.8687V38.8687C297.384 43.8687 298.719 48.3687 297.385 50.3687C299.885 51.3687 302.385 54.5353 302.385 56.3687L300.385 66.3687C300.837 77.2166 298.429 77.4408 289.098 77.7533C288.106 77.7865 286.037 77.8206 284.885 77.8687V79.3687L259.885 79.7997M22.3852 81.3689V84.3689H40.3835L39.8852 79.8689M22.3852 81.3689V79.8689H39.8852M39.8852 79.8689C36.8852 38.3689 90.3852 41.3689 86.8852 80.3689V82.8687H213.385C207.385 39.3687 261.885 39.3687 259.885 79.7997M259.384 79.7997H259.885" stroke="black"/>
</svg>
