<svg width="303" height="95" viewBox="0 0 303 95" fill="none" xmlns="http://www.w3.org/2000/svg">
<circle cx="62.4473" cy="73.8459" r="20.5" fill="#E0426F" stroke="black"/>
<circle cx="235.447" cy="73.8459" r="20.5" fill="#E0426F" stroke="black"/>
<path d="M132.445 12.3458L130.945 8.8458C170.945 0.845915 192.445 1.34595 231.445 12.8459L227.945 17.3459C207.945 9.34586 189.945 8.34586 173.945 7.84592C171.445 7.34592 167.445 7.34589 164.945 7.8458C154.945 7.84592 142.945 9.34592 132.445 12.3458Z" stroke="black" stroke-width="0.5"/>
<path d="M130.945 8.84599L130.445 7.34599C166.445 -3.65405 198.945 0.345821 234.445 9.34599L231.445 12.846C191.445 0.345947 165.445 1.84595 130.945 8.84599Z" stroke="black" stroke-width="0.5"/>
<path d="M130.945 8.84593C182.445 -2.65409 210.945 7.34595 231.445 12.8459" stroke="black" stroke-width="0.5"/>
<path d="M226.447 30.3459L223.447 15.8459C218.947 14.3459 207.447 8.84595 173.947 7.84595L170.447 29.8459C181.447 29.3459 198.947 27.8459 225.947 27.8459" stroke="black" stroke-width="0.5"/>
<path d="M164.947 7.84595C131.947 8.84595 111.947 17.8459 92.9473 35.3459L95.4473 33.3459L159.447 30.3459L164.947 7.84595Z" stroke="black" stroke-width="0.5"/>
<path d="M239.445 22.3459C235.779 19.6793 229.945 17.3459 223.445 15.8459L225.945 27.8459H232.445C235.445 26.3459 238.445 24.1147 239.445 22.3459Z" stroke="black" stroke-width="0.5"/>
<path d="M96.4473 78.3459H163.447L197.947 76.8459M96.4473 78.3459C96.4473 79.8459 96.9473 80.8459 97.9473 82.3459M96.4473 78.3459H86.4473V82.3459H97.9473M197.947 76.8459L198.947 82.3459M197.947 76.8459H212.447L212.947 82.3459H198.947M198.947 82.3459H97.9473" stroke="black" stroke-width="0.5"/>
<path d="M96.4464 78.3459C91.9473 73.8459 88.9473 51.8459 92.9464 35.3459L164.947 31.3459C160.947 36.3459 159.947 70.3459 163.447 78.3459H96.4464Z" stroke="black" stroke-width="0.5"/>
<path d="M228.447 30.3459L164.947 31.3459C160.947 36.3459 159.948 70.3459 163.447 78.3459L197.947 76.8459C202.447 75.3459 208.947 69.8459 228.447 30.3459Z" stroke="black" stroke-width="0.5"/>
<path d="M170.447 29.846C165.947 30.346 162.447 30.346 159.447 30.346L164.947 7.84602C167.947 7.34595 170.947 7.34595 173.947 7.84602L170.447 29.846Z" stroke="black" stroke-width="0.5"/>
<path d="M98.9473 31.8461C103.447 37.3461 110.447 33.8461 114.447 32.3461C115.447 16.846 102.447 24.8459 98.9473 31.8461Z" stroke="black" stroke-width="0.5"/>
<path d="M234.445 9.34595L231.445 12.8459C248.445 18.3459 258.945 21.3459 271.445 27.8459H272.945L280.945 26.3459C265.945 19.8459 258.445 17.3459 234.445 9.34595Z" fill="#E0426F" stroke="black" stroke-width="0.5"/>
<path d="M271.445 27.8459C260.945 22.3459 241.945 15.8459 231.445 12.8459L229.445 15.3459L244.445 22.8459C242.945 25.3459 238.945 27.3459 232.945 30.0459C244.945 29.3459 261.945 28.3459 271.445 27.8459Z" fill="#E0426F" stroke="black" stroke-width="0.5"/>
<path d="M276.947 34.1459L282.946 31.8459L272.446 27.8459L228.446 30.3459C220.946 45.3459 205.946 75.8459 197.946 76.8459H212.446C210.946 65.8459 220.446 42.3459 245.447 51.3459C255.947 45.8459 265.947 40.3459 276.947 34.1459Z" fill="#E0426F" stroke="black" stroke-width="0.5"/>
<path d="M277.945 33.846C265.945 40.346 255.945 45.846 245.445 51.346C249.945 54.3459 260.445 60.3459 259.445 79.3459L284.445 78.8459V77.3459C292.945 76.3459 301.445 79.8459 299.945 65.8459L301.945 55.8459C301.945 54.3459 299.445 50.3459 296.945 49.8459C298.445 47.3459 295.445 38.3459 295.445 38.3459V36.8459L291.445 33.8459L286.445 32.3459L282.945 31.8459L277.945 33.846Z" fill="#E0426F" stroke="black" stroke-width="0.5"/>
<path d="M280.945 26.3459L272.445 27.8459L282.945 31.8459C292.445 32.8459 291.444 34.3459 295.439 36.7661L294.945 28.3459L280.945 26.3459Z" fill="#E0426F"/>
<path d="M295.445 36.8459L295.439 36.7661M295.439 36.7661L294.945 28.3459L280.945 26.3459L272.445 27.8459L282.945 31.8459C292.445 32.8459 291.444 34.3459 295.439 36.7661Z" stroke="black" stroke-width="0.5"/>
<path d="M293.947 36.3461C293.447 33.846 282.447 33.646 276.947 34.146" stroke="black" stroke-width="0.5"/>
<path d="M299.947 66.3459L260.447 68.3459C259.947 63.3459 257.781 59.1793 255.947 57.3459L301.947 54.8459M300.447 52.3459C289.447 50.8459 278.447 46.0459 266.447 40.0459M228.447 30.3459L272.447 27.8459L280.947 26.3459" stroke="black" stroke-width="0.5"/>
<path d="M290.447 40.3459C290.447 38.3459 289.447 34.3459 285.947 32.3459C288.168 32.3459 291.545 33.3863 294.056 35.7559C294.52 37.2859 293.447 40.8459 290.405 42.3459C290.392 41.7557 290.447 41.0702 290.447 40.3459Z" fill="#E0426F"/>
<path d="M272.447 42.8459C279.443 43.1957 285.46 43.3008 290.84 43.8459M297.447 44.8459C295.344 44.3953 293.151 44.08 290.84 43.8459M295.447 37.3459C295.029 36.7608 294.56 36.2316 294.056 35.7559M290.84 43.8459C290.514 43.5012 290.42 42.9781 290.405 42.3459M290.405 42.3459C290.392 41.7557 290.447 41.0702 290.447 40.3459C290.447 38.3459 289.447 34.3459 285.947 32.3459C288.168 32.3459 291.545 33.3863 294.056 35.7559M290.405 42.3459C293.447 40.8459 294.52 37.2859 294.056 35.7559" stroke="black" stroke-width="0.5"/>
<path d="M290.447 40.3459C285.947 40.3459 283.947 36.3459 282.947 33.8459" stroke="black" stroke-width="0.5"/>
<path d="M132.445 12.4459C118.945 16.4459 106.945 22.3459 92.9453 35.3459C99.9453 23.3459 115.445 13.8459 130.945 8.84595L132.445 12.4459Z" fill="#E0426F" stroke="black" stroke-width="0.5"/>
<path d="M130.945 8.84595C110.945 14.52 92.9453 31.8459 84.9453 29.8459C97.9453 20.3459 113.945 11.8459 130.445 7.34595L130.945 8.84595Z" fill="#E0426F" stroke="black" stroke-width="0.5"/>
<path d="M9.94598 47.846H3.94598C1.44531 51.8459 1.44531 61.8459 1.94598 65.3459C0.445312 66.3459 0.44591 70.8459 1.44598 72.3459L5.44598 72.8459V74.3459L1.44598 76.3459V78.3459C5.44598 79.3459 13.946 81.3459 21.946 80.8459V79.3459H39.446C38.7793 70.8459 40.446 60.3459 49.446 53.3459C46.946 49.3459 39.946 44.8459 36.946 44.346C26.946 43.3459 11.946 45.846 9.94598 47.846Z" fill="#E0426F" stroke="black" stroke-width="0.5"/>
<path d="M92.9473 35.3459C75.1139 36.1793 43.4473 41.0459 32.9473 44.0459L36.9473 44.3459C41.9473 45.8459 47.4473 50.1793 49.4473 53.3459C62.4463 43.8459 87.9463 50.8459 86.4463 78.3459H96.4463C89.4463 67.3459 90.4463 45.3459 92.9473 35.3459Z" fill="#E0426F" stroke="black" stroke-width="0.5"/>
<path d="M9.94531 47.846H3.94531C36.4455 28.3459 58.4456 34.3459 84.4453 29.8459L93.4456 35.3459C76.4456 36.3459 47.4453 39.8459 33.4453 44.046C25.4453 43.8459 11.4453 45.8459 9.94531 47.846Z" fill="#E0426F" stroke="black" stroke-width="0.5"/>
<path d="M36.9468 44.346C29.4468 43.3459 12.4468 45.3459 9.94677 47.846C9.14677 50.246 12.2801 53.1793 13.9468 54.3459C23.4468 55.8459 36.9468 49.8459 36.9468 44.346Z" fill="#E0426F" stroke="black" stroke-width="0.5"/>
<path d="M3.94601 47.8459C10.946 48.8459 4.94601 59.3459 1.94601 64.3459C1.44594 57.3459 1.9458 51.8459 3.94601 47.8459Z" fill="#E0426F" stroke="black" stroke-width="0.5"/>
<path d="M21.9453 83.8459V79.3459H39.4453L39.9453 83.8459H21.9453Z" fill="#E0426F" stroke="black" stroke-width="0.5"/>
<path d="M2.44727 65.3459C3.94727 67.8459 5.94727 71.0126 5.44727 72.8459M21.9473 79.3459C11.4473 79.8459 6.94727 75.8459 7.94727 72.3459C8.44727 71.8459 9.94727 70.3459 10.9473 70.3459" stroke="black" stroke-width="0.5"/>
<path d="M31.9473 74.3459C29.4473 70.3459 23.9473 65.346 20.9473 63.846C19.1972 63.346 16.5721 63.471 13.8221 63.846C12.1971 65.1793 10.9473 68.3459 11.4473 71.3459C11.4473 72.5126 12.7547 74.8459 15.4473 74.8459C19.9473 74.8459 26.9473 75.3459 31.9473 74.3459Z" fill="#E0426F"/>
<path d="M5.94727 65.346C8.19721 64.846 11.0721 64.221 13.8221 63.846M13.8221 63.846C16.5721 63.471 19.1972 63.346 20.9473 63.846C23.9473 65.346 29.4473 70.3459 31.9473 74.3459C26.9473 75.3459 19.9473 74.8459 15.4473 74.8459C12.7547 74.8459 11.4473 72.5126 11.4473 71.3459C10.9473 68.3459 12.1971 65.1793 13.8221 63.846Z" stroke="black" stroke-width="0.5"/>
<path d="M11.4473 70.846C19.4473 69.3461 22.9473 71.9745 25.9473 73.4745M12.9473 73.8461L30.4473 73.3461" stroke="black" stroke-width="0.5"/>
<path d="M21.9453 82.3459H31.4453C33.4453 82.3459 34.9453 80.3459 34.4453 79.3459M37.9453 79.3459V83.8459" stroke="black" stroke-width="0.5"/>
<path d="M21.9472 80.8462C17.4472 80.8462 12.9472 81.3462 1.44721 78.3462V76.3462L5.44721 74.3462V72.8462L1.44721 72.3462C0.946289 70.8459 -0.0535151 67.8459 1.94648 65.3459C1.44672 57.3459 1.94672 50.8459 3.94721 47.8457C36.4472 28.3461 58.4472 34.3461 84.4472 29.8461C162.447 -25.154 244.447 11.8459 281.447 26.3461L294.947 28.3459L295.447 35.3459V38.3459C296.946 43.3459 298.281 47.8459 296.947 49.8459C299.447 50.8459 301.947 54.0126 301.947 55.8459L299.947 65.8459C300.399 76.6939 297.991 76.9181 288.66 77.2306C287.668 77.2638 285.599 77.2979 284.447 77.3459V78.8459L259.447 79.277M21.9472 80.8462V83.8462H39.9456L39.4472 79.3462M21.9472 80.8462V79.3462H39.4472M39.4472 79.3462C36.4472 37.8462 89.9472 40.8462 86.4472 79.8462V82.3459H212.947C206.947 38.8459 261.447 38.8459 259.447 79.277M258.946 79.277H259.447" stroke="black"/>
</svg>
