<svg width="303" height="96" viewBox="0 0 303 96" fill="none" xmlns="http://www.w3.org/2000/svg">
<circle cx="62.6978" cy="74.0303" r="20.5" stroke="black"/>
<circle cx="235.698" cy="74.0303" r="20.5" stroke="black"/>
<path d="M132.696 12.5301L131.196 9.03013C171.196 1.03024 192.696 1.53027 231.696 13.0302L228.196 17.5302C208.196 9.53018 190.196 8.53018 174.196 8.03025C171.696 7.53025 167.696 7.53021 165.196 8.03013C155.196 8.03025 143.196 9.53025 132.696 12.5301Z" fill="#EDADBF" stroke="black" stroke-width="0.5"/>
<path d="M131.196 9.03032L130.696 7.53032C166.696 -3.46973 199.196 0.530148 234.696 9.53032L231.696 13.0303C191.696 0.530273 165.696 2.03027 131.196 9.03032Z" fill="#EDADBF" stroke="black" stroke-width="0.5"/>
<path d="M131.196 9.03038C182.696 -2.46964 211.196 7.5304 231.696 13.0304" stroke="black" stroke-width="0.5"/>
<path d="M170.698 30.0303L174.198 8.03027C207.698 9.03027 219.198 14.5303 223.698 16.0303L226.181 28.0303C199.19 28.0309 181.695 29.5304 170.698 30.0303Z" fill="#EDADBF"/>
<path d="M226.698 30.5303L223.698 16.0303C219.198 14.5303 207.698 9.03027 174.198 8.03027L170.698 30.0303C181.698 29.5303 199.198 28.0303 226.198 28.0303" stroke="black" stroke-width="0.5"/>
<path d="M165.198 8.03027C132.198 9.03027 112.198 18.0303 93.1978 35.5303L95.6978 33.5303L159.698 30.5303L165.198 8.03027Z" fill="#EDADBF" stroke="black" stroke-width="0.5"/>
<path d="M239.696 22.5303C236.03 19.8636 230.196 17.5303 223.696 16.0303L226.196 28.0303H232.696C235.696 26.5303 238.696 24.299 239.696 22.5303Z" fill="#EDADBF" stroke="black" stroke-width="0.5"/>
<path d="M96.6978 78.5303H163.698L198.198 77.0303H212.698L213.198 82.5303H199.198H98.1978H86.6978V78.5303H96.6978Z" fill="#EDADBF"/>
<path d="M96.6978 78.5303H163.698L198.198 77.0303M96.6978 78.5303C96.6978 80.0303 97.1978 81.0303 98.1978 82.5303M96.6978 78.5303H86.6978V82.5303H98.1978M198.198 77.0303L199.198 82.5303M198.198 77.0303H212.698L213.198 82.5303H199.198M199.198 82.5303H98.1978" stroke="black" stroke-width="0.5"/>
<path d="M96.6969 78.5303C92.1977 74.0303 89.1978 52.0303 93.1969 35.5303L165.198 31.5303C161.198 36.5303 160.198 70.5303 163.698 78.5303H96.6969Z" fill="#EDADBF" stroke="black" stroke-width="0.5"/>
<path d="M228.697 30.5303L165.197 31.5303C161.197 36.5303 160.198 70.5303 163.697 78.5303L198.197 77.0303C202.697 75.5303 209.197 70.0303 228.697 30.5303Z" fill="#EDADBF" stroke="black" stroke-width="0.5"/>
<path d="M170.698 30.0303C166.198 30.5303 162.698 30.5303 159.698 30.5303L165.198 8.03035C168.198 7.53027 171.198 7.53027 174.198 8.03035L170.698 30.0303Z" fill="#EDADBF" stroke="black" stroke-width="0.5"/>
<path d="M99.1978 32.0305C103.698 37.5305 110.698 34.0305 114.698 32.5305C115.698 17.0304 102.698 25.0304 99.1978 32.0305Z" fill="#EDADBF" stroke="black" stroke-width="0.5"/>
<path d="M234.696 9.53027L231.696 13.0303C248.696 18.5303 259.196 21.5303 271.696 28.0303H273.196L281.196 26.5303C266.196 20.0303 258.696 17.5303 234.696 9.53027Z" stroke="black" stroke-width="0.5"/>
<path d="M271.696 28.0303C261.196 22.5303 242.196 16.0303 231.696 13.0303L229.696 15.5303L244.696 23.0303C243.196 25.5303 239.196 27.5303 233.196 30.2303C245.196 29.5303 262.196 28.5303 271.696 28.0303Z" stroke="black" stroke-width="0.5"/>
<path d="M277.198 34.3303L283.196 32.0303L272.697 28.0303L228.697 30.5303C221.197 45.5303 206.197 76.0303 198.197 77.0303H212.697C211.197 66.0303 220.697 42.5303 245.698 51.5303C256.198 46.0303 266.198 40.5303 277.198 34.3303Z" stroke="black" stroke-width="0.5"/>
<path d="M278.196 34.0303C266.196 40.5303 256.196 46.0303 245.696 51.5303C250.196 54.5303 260.696 60.5303 259.696 79.5303L284.696 79.0303V77.5303C293.196 76.5303 301.696 80.0303 300.196 66.0303L302.196 56.0303C302.196 54.5303 299.696 50.5303 297.196 50.0303C298.696 47.5303 295.696 38.5303 295.696 38.5303V37.0303L291.696 34.0303L286.696 32.5303L283.196 32.0303L278.196 34.0303Z" stroke="black" stroke-width="0.5"/>
<path d="M295.696 37.0303L295.69 36.9505M295.69 36.9505L295.196 28.5303L281.196 26.5303L272.696 28.0303L283.196 32.0303C292.696 33.0303 291.695 34.5303 295.69 36.9505Z" stroke="black" stroke-width="0.5"/>
<path d="M294.198 36.5305C293.698 34.0304 282.698 33.8303 277.198 34.3303" stroke="black" stroke-width="0.5"/>
<path d="M300.198 66.5303L260.698 68.5303C260.198 63.5303 258.031 59.3636 256.198 57.5303L302.198 55.0303M300.698 52.5303C289.698 51.0303 278.698 46.2303 266.698 40.2303M228.698 30.5303L272.698 28.0303L281.198 26.5303" stroke="black" stroke-width="0.5"/>
<path d="M272.698 43.0303C279.693 43.3801 285.71 43.4851 291.091 44.0303M297.698 45.0303C295.595 44.5796 293.402 44.2644 291.091 44.0303M295.698 37.5303C295.28 36.9451 294.811 36.4159 294.307 35.9403M291.091 44.0303C290.765 43.6855 290.671 43.1625 290.656 42.5303M290.656 42.5303C290.642 41.94 290.698 41.2546 290.698 40.5303C290.698 38.5303 289.698 34.5303 286.198 32.5303C288.419 32.5303 291.795 33.5707 294.307 35.9403M290.656 42.5303C293.698 41.0303 294.77 37.4703 294.307 35.9403" stroke="black" stroke-width="0.5"/>
<path d="M290.698 40.5303C286.198 40.5303 284.198 36.5303 283.198 34.0303" stroke="black" stroke-width="0.5"/>
<path d="M132.696 12.6302C119.196 16.6302 107.196 22.5303 93.1963 35.5303C100.196 23.5303 115.696 14.0303 131.196 9.03027L132.696 12.6302Z" fill="#EFC7D3" stroke="black" stroke-width="0.5"/>
<path d="M131.196 9.03027C111.196 14.7043 93.1963 32.0303 85.1963 30.0303C98.1963 20.5303 114.196 12.0303 130.696 7.53027L131.196 9.03027Z" fill="#EFC7D3" stroke="black" stroke-width="0.5"/>
<path d="M10.197 48.0302H4.19696C1.69629 52.0302 1.69629 62.0302 2.19696 65.5302C0.696289 66.5302 0.696887 71.0302 1.69696 72.5302L5.69696 73.0302V74.5302L1.69696 76.5302V78.5302C5.69696 79.5302 14.197 81.5302 22.197 81.0302V79.5302H39.697C39.0303 71.0302 40.697 60.5302 49.697 53.5302C47.197 49.5302 40.197 45.0302 37.197 44.5302C27.197 43.5302 12.197 46.0302 10.197 48.0302Z" fill="#EFC7D3" stroke="black" stroke-width="0.5"/>
<path d="M93.1978 35.5303C75.3644 36.3636 43.6978 41.2303 33.1978 44.2303L37.1978 44.5303C42.1978 46.0303 47.6978 50.3636 49.6978 53.5303C62.6968 44.0303 88.1968 51.0303 86.6968 78.5303H96.6968C89.6968 67.5303 90.6968 45.5303 93.1978 35.5303Z" fill="#EFC7D3" stroke="black" stroke-width="0.5"/>
<path d="M10.1963 48.0303H4.19629C36.6965 28.5302 58.6965 34.5303 84.6963 30.0303L93.6965 35.5303C76.6965 36.5303 47.6963 40.0303 33.6963 44.2303C25.6963 44.0303 11.6963 46.0303 10.1963 48.0303Z" fill="#EFC7D3" stroke="black" stroke-width="0.5"/>
<path d="M37.1977 44.5303C29.6977 43.5303 12.6977 45.5303 10.1977 48.0303C9.39774 50.4303 12.5311 53.3636 14.1977 54.5303C23.6978 56.0303 37.1977 50.0303 37.1977 44.5303Z" fill="#EFC7D3" stroke="black" stroke-width="0.5"/>
<path d="M4.19698 48.0303C11.197 49.0303 5.19698 59.5303 2.19698 64.5303C1.69691 57.5303 2.19678 52.0303 4.19698 48.0303Z" fill="#EFC7D3" stroke="black" stroke-width="0.5"/>
<path d="M22.1963 84.0303V79.5303H39.6963L40.1963 84.0303H22.1963Z" fill="#EFC7D3" stroke="black" stroke-width="0.5"/>
<path d="M2.69824 65.5303C4.19824 68.0303 6.19824 71.1969 5.69824 73.0303M22.1982 79.5303C11.6982 80.0303 7.19824 76.0303 8.19824 72.5303C8.69824 72.0303 10.1982 70.5303 11.1982 70.5303" stroke="black" stroke-width="0.5"/>
<path d="M32.1982 74.5304C29.6982 70.5304 24.1982 65.5305 21.1982 64.0305C19.4482 63.5305 16.8231 63.6555 14.073 64.0305C12.4481 65.3638 11.1982 68.5304 11.6982 71.5304C11.6982 72.6971 13.0057 75.0304 15.6982 75.0304C20.1982 75.0304 27.1982 75.5304 32.1982 74.5304Z" fill="#EFC7D3"/>
<path d="M6.19824 65.5305C8.44818 65.0304 11.3231 64.4055 14.073 64.0305M14.073 64.0305C16.8231 63.6555 19.4482 63.5305 21.1982 64.0305C24.1982 65.5305 29.6982 70.5304 32.1982 74.5304C27.1982 75.5304 20.1982 75.0304 15.6982 75.0304C13.0057 75.0304 11.6982 72.6971 11.6982 71.5304C11.1982 68.5304 12.4481 65.3638 14.073 64.0305Z" stroke="black" stroke-width="0.5"/>
<path d="M11.6982 71.0305C19.6982 69.5305 23.1982 72.159 26.1982 73.659M13.1982 74.0305L30.6982 73.5305" stroke="black" stroke-width="0.5"/>
<path d="M22.1963 82.5303H31.6963C33.6963 82.5303 35.1963 80.5303 34.6963 79.5303M38.1963 79.5303V84.0303" stroke="black" stroke-width="0.5"/>
<path d="M22.1977 81.0305C17.6977 81.0305 13.1977 81.5305 1.6977 78.5305V76.5305L5.6977 74.5305V73.0305L1.6977 72.5305C1.19678 71.0303 0.196973 68.0303 2.19697 65.5303C1.69721 57.5303 2.19721 51.0303 4.1977 48.03C36.6977 28.5304 58.6977 34.5305 84.6977 30.0305C162.698 -24.9697 244.698 12.0303 281.698 26.5305L295.198 28.5303L295.698 35.5303V38.5303C297.196 43.5303 298.531 48.0303 297.198 50.0303C299.698 51.0303 302.198 54.1969 302.198 56.0303L300.198 66.0303C300.65 76.8782 298.242 77.1025 288.91 77.4149C287.919 77.4481 285.85 77.4823 284.698 77.5303V79.0303L259.698 79.4613M22.1977 81.0305V84.0305H40.196L39.6977 79.5305M22.1977 81.0305V79.5305H39.6977M39.6977 79.5305C36.6977 38.0305 90.1977 41.0305 86.6977 80.0305V82.5303H213.198C207.198 39.0303 261.698 39.0303 259.698 79.4613M259.196 79.4613H259.698" stroke="black"/>
</svg>
