<svg width="303" height="96" viewBox="0 0 303 96" fill="none" xmlns="http://www.w3.org/2000/svg">
<circle cx="62.2607" cy="74.2146" r="20.5" fill="#E56E90" stroke="black"/>
<circle cx="235.261" cy="74.2146" r="20.5" fill="#E56E90" stroke="black"/>
<path d="M132.259 12.7145L130.759 9.21445C170.759 1.21457 192.259 1.7146 231.259 13.2145L227.759 17.7145C207.759 9.71451 189.759 8.71451 173.759 8.21458C171.259 7.71458 167.259 7.71454 164.759 8.21445C154.759 8.21458 142.759 9.71458 132.259 12.7145Z" fill="#E56E90" stroke="black" stroke-width="0.5"/>
<path d="M130.759 9.21464L130.259 7.71464C166.259 -3.2854 198.759 0.714474 234.259 9.71465L231.259 13.2146C191.259 0.7146 165.259 2.2146 130.759 9.21464Z" fill="#E56E90" stroke="black" stroke-width="0.5"/>
<path d="M130.759 9.21447C182.259 -2.28556 210.759 7.71448 231.259 13.2145" stroke="black" stroke-width="0.5"/>
<path d="M170.261 30.2146L173.761 8.2146C207.261 9.2146 218.761 14.7146 223.261 16.2146L225.743 28.2146C198.753 28.2152 181.258 29.7147 170.261 30.2146Z" fill="#E56E90"/>
<path d="M226.261 30.7146L223.261 16.2146C218.761 14.7146 207.261 9.2146 173.761 8.2146L170.261 30.2146C181.261 29.7146 198.761 28.2146 225.761 28.2146" stroke="black" stroke-width="0.5"/>
<path d="M164.761 8.2146C131.761 9.2146 111.761 18.2146 92.7607 35.7146L95.2607 33.7146L159.261 30.7146L164.761 8.2146Z" fill="#E56E90" stroke="black" stroke-width="0.5"/>
<path d="M239.259 22.7146C235.592 20.0479 229.759 17.7146 223.259 16.2146L225.759 28.2146H232.259C235.259 26.7146 238.259 24.4833 239.259 22.7146Z" fill="#E56E90" stroke="black" stroke-width="0.5"/>
<path d="M96.2607 78.7146H163.261L197.761 77.2146H212.261L212.761 82.7146H198.761H97.7607H86.2607V78.7146H96.2607Z" fill="#E56E90"/>
<path d="M96.2607 78.7146H163.261L197.761 77.2146M96.2607 78.7146C96.2607 80.2146 96.7607 81.2146 97.7607 82.7146M96.2607 78.7146H86.2607V82.7146H97.7607M197.761 77.2146L198.761 82.7146M197.761 77.2146H212.261L212.761 82.7146H198.761M198.761 82.7146H97.7607" stroke="black" stroke-width="0.5"/>
<path d="M96.2599 78.7146C91.7607 74.2146 88.7608 52.2146 92.7599 35.7146L164.761 31.7146C160.761 36.7146 159.761 70.7146 163.261 78.7146H96.2599Z" fill="#E56E90" stroke="black" stroke-width="0.5"/>
<path d="M228.261 30.7146L164.761 31.7146C160.761 36.7146 159.761 70.7146 163.261 78.7146L197.761 77.2146C202.261 75.7146 208.761 70.2146 228.261 30.7146Z" fill="#E56E90" stroke="black" stroke-width="0.5"/>
<path d="M170.261 30.2147C165.761 30.7147 162.261 30.7147 159.261 30.7147L164.761 8.21467C167.761 7.7146 170.761 7.7146 173.761 8.21467L170.261 30.2147Z" fill="#E56E90" stroke="black" stroke-width="0.5"/>
<path d="M98.7607 32.2146C103.261 37.7146 110.261 34.2146 114.261 32.7146C115.261 17.2145 102.261 25.2145 98.7607 32.2146Z" fill="#E56E90" stroke="black" stroke-width="0.5"/>
<path d="M234.259 9.7146L231.259 13.2146C248.259 18.7146 258.759 21.7146 271.259 28.2146H272.759L280.759 26.7146C265.759 20.2146 258.259 17.7146 234.259 9.7146Z" fill="#E56E90" stroke="black" stroke-width="0.5"/>
<path d="M271.259 28.2146C260.759 22.7146 241.759 16.2146 231.259 13.2146L229.259 15.7146L244.259 23.2146C242.759 25.7146 238.759 27.7146 232.759 30.4146C244.759 29.7146 261.759 28.7146 271.259 28.2146Z" fill="#E56E90" stroke="black" stroke-width="0.5"/>
<path d="M276.761 34.5146L282.759 32.2146L272.26 28.2146L228.26 30.7146C220.76 45.7146 205.76 76.2146 197.76 77.2146H212.26C210.76 66.2146 220.26 42.7146 245.261 51.7146C255.761 46.2146 265.761 40.7146 276.761 34.5146Z" fill="#E56E90" stroke="black" stroke-width="0.5"/>
<path d="M277.759 34.2146C265.759 40.7146 255.759 46.2146 245.259 51.7146C249.759 54.7146 260.259 60.7146 259.259 79.7146L284.259 79.2146V77.7146C292.759 76.7146 301.259 80.2146 299.759 66.2146L301.759 56.2146C301.759 54.7146 299.259 50.7146 296.759 50.2146C298.259 47.7146 295.259 38.7146 295.259 38.7146V37.2146L291.259 34.2146L286.259 32.7146L282.759 32.2146L277.759 34.2146Z" fill="#E56E90" stroke="black" stroke-width="0.5"/>
<path d="M280.759 26.7146L272.259 28.2146L282.759 32.2146C292.259 33.2146 291.258 34.7146 295.253 37.1348L294.759 28.7146L280.759 26.7146Z" fill="#E56E90"/>
<path d="M295.259 37.2146L295.253 37.1348M295.253 37.1348L294.759 28.7146L280.759 26.7146L272.259 28.2146L282.759 32.2146C292.259 33.2146 291.258 34.7146 295.253 37.1348Z" stroke="black" stroke-width="0.5"/>
<path d="M293.761 36.7148C293.261 34.2147 282.261 34.0146 276.761 34.5146" stroke="black" stroke-width="0.5"/>
<path d="M299.761 66.7146L260.261 68.7146C259.761 63.7146 257.594 59.5479 255.761 57.7146L301.761 55.2146M300.261 52.7146C289.261 51.2146 278.261 46.4146 266.261 40.4146M228.261 30.7146L272.261 28.2146L280.761 26.7146" stroke="black" stroke-width="0.5"/>
<path d="M290.261 40.7146C290.261 38.7146 289.261 34.7146 285.761 32.7146C287.982 32.7146 291.358 33.755 293.87 36.1246C294.333 37.6546 293.261 41.2146 290.219 42.7146C290.205 42.1243 290.261 41.4389 290.261 40.7146Z" fill="#E56E90"/>
<path d="M272.261 43.2146C279.256 43.5644 285.273 43.6695 290.654 44.2146M297.261 45.2146C295.158 44.764 292.964 44.4487 290.654 44.2146M295.261 37.7146C294.843 37.1295 294.374 36.6002 293.87 36.1246M290.654 44.2146C290.328 43.8698 290.234 43.3468 290.219 42.7146M290.219 42.7146C290.205 42.1243 290.261 41.4389 290.261 40.7146C290.261 38.7146 289.261 34.7146 285.761 32.7146C287.982 32.7146 291.358 33.755 293.87 36.1246M290.219 42.7146C293.261 41.2146 294.333 37.6546 293.87 36.1246" stroke="black" stroke-width="0.5"/>
<path d="M290.261 40.7146C285.761 40.7146 283.761 36.7146 282.761 34.2146" stroke="black" stroke-width="0.5"/>
<path d="M132.259 12.8146C118.759 16.8146 106.759 22.7146 92.7588 35.7146C99.7588 23.7146 115.259 14.2146 130.759 9.2146L132.259 12.8146Z" fill="#E56E90" stroke="black" stroke-width="0.5"/>
<path d="M130.759 9.2146C110.759 14.8886 92.7588 32.2146 84.7588 30.2146C97.7588 20.7146 113.759 12.2146 130.259 7.7146L130.759 9.2146Z" fill="#E56E90" stroke="black" stroke-width="0.5"/>
<path d="M9.75946 48.2145H3.75946C1.25879 52.2145 1.25879 62.2145 1.75946 65.7145C0.258789 66.7145 0.259387 71.2145 1.25946 72.7145L5.25946 73.2145V74.7145L1.25946 76.7145V78.7145C5.25946 79.7145 13.7595 81.7145 21.7595 81.2145V79.7145H39.2595C38.5928 71.2145 40.2595 60.7145 49.2595 53.7145C46.7595 49.7145 39.7595 45.2145 36.7595 44.7145C26.7595 43.7145 11.7595 46.2145 9.75946 48.2145Z" fill="#E56E90" stroke="black" stroke-width="0.5"/>
<path d="M92.7607 35.7146C74.9274 36.5479 43.2607 41.4146 32.7607 44.4146L36.7607 44.7146C41.7607 46.2146 47.2607 50.5479 49.2607 53.7146C62.2598 44.2146 87.7598 51.2146 86.2598 78.7146H96.2598C89.2598 67.7146 90.2598 45.7146 92.7607 35.7146Z" fill="#E56E90" stroke="black" stroke-width="0.5"/>
<path d="M9.75879 48.2147H3.75879C36.259 28.7146 58.259 34.7146 84.2588 30.2146L93.259 35.7146C76.259 36.7146 47.2588 40.2146 33.2588 44.4146C25.2588 44.2146 11.2588 46.2146 9.75879 48.2147Z" fill="#E56E90" stroke="black" stroke-width="0.5"/>
<path d="M36.7602 44.7147C29.2602 43.7146 12.2602 45.7146 9.76024 48.2147C8.96024 50.6146 12.0936 53.5479 13.7602 54.7146C23.2603 56.2146 36.7602 50.2146 36.7602 44.7147Z" fill="#E56E90" stroke="black" stroke-width="0.5"/>
<path d="M3.75948 48.2146C10.7595 49.2146 4.75948 59.7146 1.75948 64.7146C1.25941 57.7146 1.75928 52.2146 3.75948 48.2146Z" fill="#E56E90" stroke="black" stroke-width="0.5"/>
<path d="M21.7588 84.2146V79.7146H39.2588L39.7588 84.2146H21.7588Z" fill="#E56E90" stroke="black" stroke-width="0.5"/>
<path d="M2.26074 65.7144C3.76074 68.2144 5.76074 71.381 5.26074 73.2144M21.7607 79.7144C11.2607 80.2144 6.76074 76.2144 7.76074 72.7144C8.26074 72.2144 9.76074 70.7144 10.7607 70.7144" stroke="black" stroke-width="0.5"/>
<path d="M31.7607 74.7145C29.2607 70.7145 23.7607 65.7146 20.7607 64.2146C19.0107 63.7145 16.3856 63.8395 13.6355 64.2146C12.0106 65.5479 10.7607 68.7145 11.2607 71.7145C11.2607 72.8811 12.5682 75.2145 15.2607 75.2145C19.7607 75.2145 26.7607 75.7145 31.7607 74.7145Z" fill="#E56E90"/>
<path d="M5.76074 65.7146C8.01068 65.2145 10.8856 64.5896 13.6355 64.2146M13.6355 64.2146C16.3856 63.8395 19.0107 63.7145 20.7607 64.2146C23.7607 65.7146 29.2607 70.7145 31.7607 74.7145C26.7607 75.7145 19.7607 75.2145 15.2607 75.2145C12.5682 75.2145 11.2607 72.8811 11.2607 71.7145C10.7607 68.7145 12.0106 65.5479 13.6355 64.2146Z" stroke="black" stroke-width="0.5"/>
<path d="M11.2607 71.2146C19.2607 69.7146 22.7607 72.3431 25.7607 73.8431M12.7607 74.2146L30.2607 73.7146" stroke="black" stroke-width="0.5"/>
<path d="M21.7588 82.7144H31.2588C33.2588 82.7144 34.7588 80.7144 34.2588 79.7144M37.7588 79.7144V84.2144" stroke="black" stroke-width="0.5"/>
<path d="M21.7607 81.2148C17.2607 81.2148 12.7607 81.7148 1.26069 78.7148V76.7148L5.26069 74.7148V73.2148L1.26069 72.7149C0.759766 71.2146 -0.240039 68.2146 1.75996 65.7146C1.2602 57.7146 1.7602 51.2146 3.76069 48.2143C36.2607 28.7147 58.2607 34.7148 84.2607 30.2148C162.261 -24.7853 244.261 12.2146 281.261 26.7148L294.761 28.7146L295.261 35.7146V38.7146C296.759 43.7146 298.094 48.2146 296.761 50.2146C299.261 51.2146 301.761 54.3813 301.761 56.2146L299.761 66.2146C300.213 77.0625 297.805 77.2868 288.473 77.5992C287.482 77.6324 285.413 77.6666 284.261 77.7146V79.2146L259.261 79.6456M21.7607 81.2148V84.2148H39.759L39.2607 79.7148M21.7607 81.2148V79.7148H39.2607M39.2607 79.7148C36.2607 38.2148 89.7607 41.2148 86.2607 80.2148V82.7146H212.761C206.761 39.2146 261.261 39.2146 259.261 79.6456M258.759 79.6456H259.261" stroke="black"/>
</svg>
