<svg width="304" height="96" viewBox="0 0 304 96" fill="none" xmlns="http://www.w3.org/2000/svg">
<circle cx="63.0518" cy="74.0303" r="20.5" fill="#EDADBF" stroke="black"/>
<circle cx="236.052" cy="74.0303" r="20.5" fill="#EDADBF" stroke="black"/>
<path d="M133.05 12.5301L131.55 9.03013C171.55 1.03024 193.05 1.53027 232.05 13.0302L228.55 17.5302C208.55 9.53018 190.55 8.53018 174.55 8.03025C172.05 7.53025 168.05 7.53021 165.55 8.03013C155.55 8.03025 143.55 9.53025 133.05 12.5301Z" fill="#EDADBF" stroke="black" stroke-width="0.5"/>
<path d="M131.55 9.03032L131.05 7.53032C167.05 -3.46973 199.55 0.530148 235.05 9.53032L232.05 13.0303C192.05 0.530273 166.05 2.03027 131.55 9.03032Z" fill="#EDADBF" stroke="black" stroke-width="0.5"/>
<path d="M131.55 9.03038C183.05 -2.46964 211.55 7.5304 232.05 13.0304" stroke="black" stroke-width="0.5"/>
<path d="M171.052 30.0303L174.552 8.03027C208.052 9.03027 219.552 14.5303 224.052 16.0303L226.535 28.0303C199.544 28.0309 182.049 29.5304 171.052 30.0303Z" fill="#EDADBF"/>
<path d="M227.052 30.5303L224.052 16.0303C219.552 14.5303 208.052 9.03027 174.552 8.03027L171.052 30.0303C182.052 29.5303 199.552 28.0303 226.552 28.0303" stroke="black" stroke-width="0.5"/>
<path d="M165.552 8.03027C132.552 9.03027 112.552 18.0303 93.5518 35.5303L96.0518 33.5303L160.052 30.5303L165.552 8.03027Z" fill="#EDADBF" stroke="black" stroke-width="0.5"/>
<path d="M240.05 22.5303C236.383 19.8636 230.55 17.5303 224.05 16.0303L226.55 28.0303H233.05C236.05 26.5303 239.05 24.299 240.05 22.5303Z" fill="#EDADBF" stroke="black" stroke-width="0.5"/>
<path d="M97.0518 78.5303H164.052L198.552 77.0303H213.052L213.552 82.5303H199.552H98.5518H87.0518V78.5303H97.0518Z" fill="#EDADBF"/>
<path d="M97.0518 78.5303H164.052L198.552 77.0303M97.0518 78.5303C97.0518 80.0303 97.5518 81.0303 98.5518 82.5303M97.0518 78.5303H87.0518V82.5303H98.5518M198.552 77.0303L199.552 82.5303M198.552 77.0303H213.052L213.552 82.5303H199.552M199.552 82.5303H98.5518" stroke="black" stroke-width="0.5"/>
<path d="M97.0509 78.5303C92.5518 74.0303 89.5518 52.0303 93.5509 35.5303L165.552 31.5303C161.552 36.5303 160.552 70.5303 164.052 78.5303H97.0509Z" fill="#EDADBF" stroke="black" stroke-width="0.5"/>
<path d="M229.052 30.5303L165.552 31.5303C161.552 36.5303 160.552 70.5303 164.052 78.5303L198.552 77.0303C203.052 75.5303 209.552 70.0303 229.052 30.5303Z" fill="#EDADBF" stroke="black" stroke-width="0.5"/>
<path d="M171.052 30.0303C166.552 30.5303 163.052 30.5303 160.052 30.5303L165.552 8.03035C168.552 7.53027 171.552 7.53027 174.552 8.03035L171.052 30.0303Z" fill="#EDADBF" stroke="black" stroke-width="0.5"/>
<path d="M99.5518 32.0305C104.052 37.5305 111.052 34.0305 115.052 32.5305C116.052 17.0304 103.052 25.0304 99.5518 32.0305Z" fill="#EDADBF" stroke="black" stroke-width="0.5"/>
<path d="M235.05 9.53027L232.05 13.0303C249.05 18.5303 259.55 21.5303 272.05 28.0303H273.55L281.55 26.5303C266.55 20.0303 259.05 17.5303 235.05 9.53027Z" fill="#E0426F" stroke="black" stroke-width="0.5"/>
<path d="M272.05 28.0303C261.55 22.5303 242.55 16.0303 232.05 13.0303L230.05 15.5303L245.05 23.0303C243.55 25.5303 239.55 27.5303 233.55 30.2303C245.55 29.5303 262.55 28.5303 272.05 28.0303Z" fill="#E0426F" stroke="black" stroke-width="0.5"/>
<path d="M277.552 34.3303L283.55 32.0303L273.051 28.0303L229.051 30.5303C221.551 45.5303 206.551 76.0303 198.551 77.0303H213.051C211.551 66.0303 221.051 42.5303 246.052 51.5303C256.552 46.0303 266.552 40.5303 277.552 34.3303Z" fill="#E0426F" stroke="black" stroke-width="0.5"/>
<path d="M278.55 34.0303C266.55 40.5303 256.55 46.0303 246.05 51.5303C250.55 54.5303 261.05 60.5303 260.05 79.5303L285.05 79.0303V77.5303C293.55 76.5303 302.05 80.0303 300.55 66.0303L302.55 56.0303C302.55 54.5303 300.05 50.5303 297.55 50.0303C299.05 47.5303 296.05 38.5303 296.05 38.5303V37.0303L292.05 34.0303L287.05 32.5303L283.55 32.0303L278.55 34.0303Z" fill="#E0426F" stroke="black" stroke-width="0.5"/>
<path d="M281.55 26.5303L273.05 28.0303L283.55 32.0303C293.05 33.0303 292.049 34.5303 296.044 36.9505L295.55 28.5303L281.55 26.5303Z" fill="#E0426F"/>
<path d="M296.05 37.0303L296.044 36.9505M296.044 36.9505L295.55 28.5303L281.55 26.5303L273.05 28.0303L283.55 32.0303C293.05 33.0303 292.049 34.5303 296.044 36.9505Z" stroke="black" stroke-width="0.5"/>
<path d="M294.552 36.5305C294.052 34.0304 283.052 33.8303 277.552 34.3303" stroke="black" stroke-width="0.5"/>
<path d="M300.552 66.5303L261.052 68.5303C260.552 63.5303 258.385 59.3636 256.552 57.5303L302.552 55.0303M301.052 52.5303C290.052 51.0303 279.052 46.2303 267.052 40.2303M229.052 30.5303L273.052 28.0303L281.552 26.5303" stroke="black" stroke-width="0.5"/>
<path d="M291.052 40.5303C291.052 38.5303 290.052 34.5303 286.552 32.5303C288.773 32.5303 292.149 33.5707 294.661 35.9403C295.124 37.4703 294.052 41.0303 291.01 42.5303C290.996 41.94 291.052 41.2546 291.052 40.5303Z" fill="#E0426F"/>
<path d="M273.052 43.0303C280.047 43.3801 286.064 43.4851 291.445 44.0303M298.052 45.0303C295.949 44.5796 293.756 44.2644 291.445 44.0303M296.052 37.5303C295.634 36.9451 295.165 36.4159 294.661 35.9403M291.445 44.0303C291.119 43.6855 291.025 43.1625 291.01 42.5303M291.01 42.5303C290.996 41.94 291.052 41.2546 291.052 40.5303C291.052 38.5303 290.052 34.5303 286.552 32.5303C288.773 32.5303 292.149 33.5707 294.661 35.9403M291.01 42.5303C294.052 41.0303 295.124 37.4703 294.661 35.9403" stroke="black" stroke-width="0.5"/>
<path d="M291.052 40.5303C286.552 40.5303 284.552 36.5303 283.552 34.0303" stroke="black" stroke-width="0.5"/>
<path d="M133.05 12.6302C119.55 16.6302 107.55 22.5303 93.5498 35.5303C100.55 23.5303 116.05 14.0303 131.55 9.03027L133.05 12.6302Z" fill="#EFC7D3" stroke="black" stroke-width="0.5"/>
<path d="M131.55 9.03027C111.55 14.7043 93.5498 32.0303 85.5498 30.0303C98.5498 20.5303 114.55 12.0303 131.05 7.53027L131.55 9.03027Z" fill="#EFC7D3" stroke="black" stroke-width="0.5"/>
<path d="M10.5505 48.0302H4.55047C2.0498 52.0302 2.0498 62.0302 2.55047 65.5302C1.0498 66.5302 1.0504 71.0302 2.05047 72.5302L6.05047 73.0302V74.5302L2.05047 76.5302V78.5302C6.05047 79.5302 14.5505 81.5302 22.5505 81.0302V79.5302H40.0505C39.3838 71.0302 41.0505 60.5302 50.0505 53.5302C47.5505 49.5302 40.5505 45.0302 37.5505 44.5302C27.5505 43.5302 12.5505 46.0302 10.5505 48.0302Z" fill="#EFC7D3" stroke="black" stroke-width="0.5"/>
<path d="M93.5518 35.5303C75.7184 36.3636 44.0518 41.2303 33.5518 44.2303L37.5518 44.5303C42.5518 46.0303 48.0518 50.3636 50.0518 53.5303C63.0508 44.0303 88.5508 51.0303 87.0508 78.5303H97.0508C90.0508 67.5303 91.0508 45.5303 93.5518 35.5303Z" fill="#EFC7D3" stroke="black" stroke-width="0.5"/>
<path d="M10.5498 48.0303H4.5498C37.05 28.5302 59.05 34.5303 85.0498 30.0303L94.05 35.5303C77.05 36.5303 48.0498 40.0303 34.0498 44.2303C26.0498 44.0303 12.0498 46.0303 10.5498 48.0303Z" fill="#EFC7D3" stroke="black" stroke-width="0.5"/>
<path d="M37.5513 44.5303C30.0513 43.5303 13.0513 45.5303 10.5513 48.0303C9.75126 50.4303 12.8846 53.3636 14.5513 54.5303C24.0513 56.0303 37.5513 50.0303 37.5513 44.5303Z" fill="#EFC7D3" stroke="black" stroke-width="0.5"/>
<path d="M4.5505 48.0303C11.5505 49.0303 5.5505 59.5303 2.5505 64.5303C2.05043 57.5303 2.55029 52.0303 4.5505 48.0303Z" fill="#EFC7D3" stroke="black" stroke-width="0.5"/>
<path d="M22.5498 84.0303V79.5303H40.0498L40.5498 84.0303H22.5498Z" fill="#EFC7D3" stroke="black" stroke-width="0.5"/>
<path d="M3.05176 65.5303C4.55176 68.0303 6.55176 71.1969 6.05176 73.0303M22.5518 79.5303C12.0518 80.0303 7.55176 76.0303 8.55176 72.5303C9.05176 72.0303 10.5518 70.5303 11.5518 70.5303" stroke="black" stroke-width="0.5"/>
<path d="M32.5518 74.5304C30.0518 70.5304 24.5518 65.5305 21.5518 64.0305C19.8017 63.5305 17.1766 63.6555 14.4265 64.0305C12.8016 65.3638 11.5518 68.5304 12.0518 71.5304C12.0518 72.6971 13.3592 75.0304 16.0518 75.0304C20.5518 75.0304 27.5518 75.5304 32.5518 74.5304Z" fill="#EFC7D3"/>
<path d="M6.55176 65.5305C8.8017 65.0304 11.6766 64.4055 14.4265 64.0305M14.4265 64.0305C17.1766 63.6555 19.8017 63.5305 21.5518 64.0305C24.5518 65.5305 30.0518 70.5304 32.5518 74.5304C27.5518 75.5304 20.5518 75.0304 16.0518 75.0304C13.3592 75.0304 12.0518 72.6971 12.0518 71.5304C11.5518 68.5304 12.8016 65.3638 14.4265 64.0305Z" stroke="black" stroke-width="0.5"/>
<path d="M12.0518 71.0305C20.0518 69.5305 23.5518 72.159 26.5518 73.659M13.5518 74.0305L31.0518 73.5305" stroke="black" stroke-width="0.5"/>
<path d="M22.5498 82.5303H32.0498C34.0498 82.5303 35.5498 80.5303 35.0498 79.5303M38.5498 79.5303V84.0303" stroke="black" stroke-width="0.5"/>
<path d="M22.5517 81.0305C18.0517 81.0305 13.5517 81.5305 2.0517 78.5305V76.5305L6.0517 74.5305V73.0305L2.0517 72.5305C1.55078 71.0303 0.550977 68.0303 2.55097 65.5303C2.05122 57.5303 2.55122 51.0303 4.5517 48.03C37.0517 28.5304 59.0517 34.5305 85.0517 30.0305C163.052 -24.9697 245.052 12.0303 282.052 26.5305L295.552 28.5303L296.052 35.5303V38.5303C297.55 43.5303 298.885 48.0303 297.552 50.0303C300.052 51.0303 302.552 54.1969 302.552 56.0303L300.552 66.0303C301.004 76.8782 298.596 77.1025 289.264 77.4149C288.273 77.4481 286.204 77.4823 285.052 77.5303V79.0303L260.052 79.4613M22.5517 81.0305V84.0305H40.55L40.0517 79.5305M22.5517 81.0305V79.5305H40.0517M40.0517 79.5305C37.0517 38.0305 90.5517 41.0305 87.0517 80.0305V82.5303H213.552C207.552 39.0303 262.052 39.0303 260.052 79.4613M259.55 79.4613H260.052" stroke="black"/>
</svg>
