<svg width="303" height="96" viewBox="0 0 303 96" fill="none" xmlns="http://www.w3.org/2000/svg">
<circle cx="62.6562" cy="74.553" r="20.5" stroke="black"/>
<circle cx="235.656" cy="74.553" r="20.5" stroke="black"/>
<path d="M132.654 13.0528L131.154 9.55283C171.154 1.55295 192.654 2.05298 231.654 13.5529L228.154 18.0529C208.154 10.0529 190.154 9.05289 174.154 8.55296C171.654 8.05296 167.654 8.05292 165.154 8.55283C155.154 8.55296 143.154 10.053 132.654 13.0528Z" fill="#E0426F" stroke="black" stroke-width="0.5"/>
<path d="M131.154 9.55302L130.654 8.05302C166.654 -2.94702 199.154 1.05285 234.654 10.053L231.654 13.553C191.654 1.05298 165.654 2.55298 131.154 9.55302Z" fill="#E0426F" stroke="black" stroke-width="0.5"/>
<path d="M131.154 9.55284C182.654 -1.94718 211.154 8.05286 231.654 13.5528" stroke="black" stroke-width="0.5"/>
<path d="M170.656 30.553L174.156 8.55298C207.656 9.55298 219.156 15.053 223.656 16.553L226.139 28.553C199.149 28.5536 181.654 30.0531 170.656 30.553Z" fill="#E0426F"/>
<path d="M226.656 31.053L223.656 16.553C219.156 15.053 207.656 9.55298 174.156 8.55298L170.656 30.553C181.656 30.053 199.156 28.553 226.156 28.553" stroke="black" stroke-width="0.5"/>
<path d="M165.156 8.55298C132.156 9.55298 112.156 18.553 93.1562 36.053L95.6562 34.053L159.656 31.053L165.156 8.55298Z" fill="#E0426F" stroke="black" stroke-width="0.5"/>
<path d="M239.654 23.053C235.988 20.3863 230.154 18.053 223.654 16.553L226.154 28.553H232.654C235.654 27.053 238.654 24.8217 239.654 23.053Z" fill="#E0426F" stroke="black" stroke-width="0.5"/>
<path d="M96.6562 79.053H163.656L198.156 77.553H212.656L213.156 83.053H199.156H98.1562H86.6562V79.053H96.6562Z" fill="#E0426F"/>
<path d="M96.6562 79.053H163.656L198.156 77.553M96.6562 79.053C96.6562 80.553 97.1562 81.553 98.1562 83.053M96.6562 79.053H86.6562V83.053H98.1562M198.156 77.553L199.156 83.053M198.156 77.553H212.656L213.156 83.053H199.156M199.156 83.053H98.1562" stroke="black" stroke-width="0.5"/>
<path d="M96.6554 79.053C92.1562 74.553 89.1563 52.553 93.1554 36.053L165.156 32.053C161.156 37.053 160.156 71.053 163.656 79.053H96.6554Z" fill="#E0426F" stroke="black" stroke-width="0.5"/>
<path d="M228.656 31.053L165.156 32.053C161.156 37.053 160.156 71.053 163.656 79.053L198.156 77.553C202.656 76.053 209.156 70.553 228.656 31.053Z" fill="#E0426F" stroke="black" stroke-width="0.5"/>
<path d="M170.656 30.5531C166.156 31.0531 162.656 31.0531 159.656 31.0531L165.156 8.55305C168.156 8.05298 171.156 8.05298 174.156 8.55305L170.656 30.5531Z" fill="#E0426F" stroke="black" stroke-width="0.5"/>
<path d="M99.1562 32.553C103.656 38.053 110.656 34.553 114.656 33.053C115.656 17.5529 102.656 25.5529 99.1562 32.553Z" fill="#E0426F" stroke="black" stroke-width="0.5"/>
<path d="M234.654 10.053L231.654 13.553C248.654 19.053 259.154 22.053 271.654 28.553H273.154L281.154 27.053C266.154 20.553 258.654 18.053 234.654 10.053Z" fill="#E0426F" stroke="black" stroke-width="0.5"/>
<path d="M271.654 28.553C261.154 23.053 242.154 16.553 231.654 13.553L229.654 16.053L244.654 23.553C243.154 26.053 239.154 28.053 233.154 30.753C245.154 30.053 262.154 29.053 271.654 28.553Z" fill="#E0426F" stroke="black" stroke-width="0.5"/>
<path d="M277.156 34.853L283.155 32.553L272.655 28.553L228.655 31.053C221.155 46.053 206.155 76.553 198.155 77.553H212.655C211.155 66.553 220.655 43.053 245.656 52.053C256.156 46.553 266.156 41.053 277.156 34.853Z" fill="#E0426F" stroke="black" stroke-width="0.5"/>
<path d="M278.154 34.553C266.154 41.053 256.154 46.553 245.654 52.053C250.154 55.053 260.654 61.053 259.654 80.053L284.654 79.553V78.053C293.154 77.053 301.654 80.553 300.154 66.553L302.154 56.553C302.154 55.053 299.654 51.053 297.154 50.553C298.654 48.053 295.654 39.053 295.654 39.053V37.553L291.654 34.553L286.654 33.053L283.154 32.553L278.154 34.553Z" fill="#E0426F" stroke="black" stroke-width="0.5"/>
<path d="M281.154 27.053L272.654 28.553L283.154 32.553C292.654 33.553 291.653 35.053 295.648 37.4732L295.154 29.053L281.154 27.053Z" fill="#E0426F"/>
<path d="M295.654 37.553L295.648 37.4732M295.648 37.4732L295.154 29.053L281.154 27.053L272.654 28.553L283.154 32.553C292.654 33.553 291.653 35.053 295.648 37.4732Z" stroke="black" stroke-width="0.5"/>
<path d="M294.156 37.0532C293.656 34.5531 282.656 34.353 277.156 34.853" stroke="black" stroke-width="0.5"/>
<path d="M300.156 67.053L260.656 69.053C260.156 64.053 257.99 59.8863 256.156 58.053L302.156 55.553M300.656 53.053C289.656 51.553 278.656 46.753 266.656 40.753M228.656 31.053L272.656 28.553L281.156 27.053" stroke="black" stroke-width="0.5"/>
<path d="M290.656 41.053C290.656 39.053 289.656 35.053 286.156 33.053C288.377 33.053 291.754 34.0934 294.265 36.463C294.729 37.993 293.656 41.553 290.614 43.053C290.601 42.4627 290.656 41.7773 290.656 41.053Z" fill="#E0426F"/>
<path d="M272.656 43.553C279.652 43.9028 285.669 44.0079 291.049 44.553M297.656 45.553C295.553 45.1023 293.36 44.7871 291.049 44.553M295.656 38.053C295.238 37.4679 294.769 36.9386 294.265 36.463M291.049 44.553C290.723 44.2082 290.629 43.6852 290.614 43.053M290.614 43.053C290.601 42.4627 290.656 41.7773 290.656 41.053C290.656 39.053 289.656 35.053 286.156 33.053C288.377 33.053 291.754 34.0934 294.265 36.463M290.614 43.053C293.656 41.553 294.729 37.993 294.265 36.463" stroke="black" stroke-width="0.5"/>
<path d="M290.656 41.053C286.156 41.053 284.156 37.053 283.156 34.553" stroke="black" stroke-width="0.5"/>
<path d="M132.654 13.153C119.154 17.153 107.154 23.053 93.1543 36.053C100.154 24.053 115.654 14.553 131.154 9.55298L132.654 13.153Z" stroke="black" stroke-width="0.5"/>
<path d="M131.154 9.55298C111.154 15.227 93.1543 32.553 85.1543 30.553C98.1543 21.053 114.154 12.553 130.654 8.05298L131.154 9.55298Z" stroke="black" stroke-width="0.5"/>
<path d="M10.155 48.5529H4.15496C1.6543 52.5529 1.6543 62.5529 2.15496 66.0529C0.654297 67.0529 0.654894 71.5529 1.65496 73.0529L5.65496 73.5529V75.0529L1.65496 77.0529V79.0529C5.65496 80.0529 14.155 82.0529 22.155 81.5529V80.0529H39.655C38.9883 71.5529 40.655 61.0529 49.655 54.0529C47.155 50.0529 40.155 45.5529 37.155 45.0529C27.155 44.0529 12.155 46.5529 10.155 48.5529Z" stroke="black" stroke-width="0.5"/>
<path d="M93.1562 36.053C75.3229 36.8863 43.6562 41.753 33.1562 44.753L37.1562 45.053C42.1562 46.553 47.6562 50.8863 49.6562 54.053C62.6553 44.553 88.1553 51.553 86.6553 79.053H96.6553C89.6553 68.053 90.6553 46.053 93.1562 36.053Z" stroke="black" stroke-width="0.5"/>
<path d="M10.1543 48.553H4.1543C36.6545 29.0529 58.6545 35.053 84.6543 30.553L93.6545 36.053C76.6545 37.053 47.6543 40.553 33.6543 44.753C25.6543 44.553 11.6543 46.553 10.1543 48.553Z" stroke="black" stroke-width="0.5"/>
<path d="M37.1558 45.0531C29.6558 44.053 12.6558 46.053 10.1558 48.5531C9.35575 50.953 12.4891 53.8863 14.1558 55.053C23.6558 56.553 37.1558 50.553 37.1558 45.0531Z" stroke="black" stroke-width="0.5"/>
<path d="M4.15499 48.553C11.155 49.553 5.15499 60.053 2.15499 65.053C1.65492 58.053 2.15479 52.553 4.15499 48.553Z" stroke="black" stroke-width="0.5"/>
<path d="M22.1543 84.553V80.053H39.6543L40.1543 84.553H22.1543Z" stroke="black" stroke-width="0.5"/>
<path d="M2.65625 66.0527C4.15625 68.5527 6.15625 71.7194 5.65625 73.5527M22.1562 80.0527C11.6562 80.5527 7.15625 76.5527 8.15625 73.0527C8.65625 72.5527 10.1562 71.0527 11.1562 71.0527" stroke="black" stroke-width="0.5"/>
<path d="M6.15625 66.0529C8.40619 65.5529 11.2811 64.9279 14.031 64.5529M14.031 64.5529C16.7811 64.1779 19.4062 64.0529 21.1562 64.5529C24.1562 66.0529 29.6562 71.0529 32.1562 75.0529C27.1562 76.0529 20.1562 75.5529 15.6562 75.5529C12.9637 75.5529 11.6562 73.2195 11.6562 72.0529C11.1562 69.0529 12.4061 65.8862 14.031 64.5529Z" stroke="black" stroke-width="0.5"/>
<path d="M11.6562 71.5529C19.6562 70.053 23.1562 72.6815 26.1562 74.1815M13.1562 74.553L30.6562 74.053" stroke="black" stroke-width="0.5"/>
<path d="M22.1543 83.0527H31.6543C33.6543 83.0527 35.1543 81.0527 34.6543 80.0527M38.1543 80.0527V84.5527" stroke="black" stroke-width="0.5"/>
<path d="M22.1562 81.5532C17.6562 81.5532 13.1562 82.0532 1.6562 79.0532V77.0532L5.6562 75.0532V73.5532L1.6562 73.0532C1.15527 71.553 0.155469 68.553 2.15546 66.053C1.65571 58.053 2.15571 51.553 4.1562 48.5527C36.6562 29.0531 58.6562 35.0532 84.6562 30.5532C162.656 -24.4469 244.656 12.553 281.656 27.0532L295.156 29.053L295.656 36.053V39.053C297.155 44.053 298.49 48.553 297.156 50.553C299.656 51.553 302.156 54.7196 302.156 56.553L300.156 66.553C300.608 77.4009 298.2 77.6252 288.868 77.9376C287.877 77.9708 285.808 78.005 284.656 78.053V79.553L259.656 79.984M22.1562 81.5532V84.5532H40.1545L39.6562 80.0532M22.1562 81.5532V80.0532H39.6562M39.6562 80.0532C36.6562 38.5532 90.1562 41.5532 86.6562 80.5532V83.053H213.156C207.156 39.553 261.656 39.553 259.656 79.984M259.155 79.984H259.656" stroke="black"/>
</svg>
