<svg width="303" height="96" viewBox="0 0 303 96" fill="none" xmlns="http://www.w3.org/2000/svg">
<circle cx="62.667" cy="74.5378" r="20.5" stroke="black"/>
<circle cx="235.667" cy="74.5378" r="20.5" stroke="black"/>
<path d="M132.665 13.0377L131.165 9.5377C171.165 1.53781 192.665 2.03784 231.665 13.5378L228.165 18.0378C208.165 10.0378 190.165 9.03775 174.165 8.53782C171.665 8.03782 167.665 8.03778 165.165 8.5377C155.165 8.53782 143.165 10.0378 132.665 13.0377Z" fill="#EDADBF" stroke="black" stroke-width="0.5"/>
<path d="M131.165 9.53789L130.665 8.03789C166.665 -2.96216 199.165 1.03772 234.665 10.0379L231.665 13.5379C191.665 1.03784 165.665 2.53784 131.165 9.53789Z" fill="#EDADBF" stroke="black" stroke-width="0.5"/>
<path d="M131.165 9.53771C182.665 -1.96232 211.165 8.03772 231.665 13.5377" stroke="black" stroke-width="0.5"/>
<path d="M170.667 30.5378L174.167 8.53784C207.667 9.53784 219.167 15.0378 223.667 16.5378L226.15 28.5378C199.16 28.5385 181.665 30.0379 170.667 30.5378Z" fill="#EDADBF"/>
<path d="M226.667 31.0378L223.667 16.5378C219.167 15.0378 207.667 9.53784 174.167 8.53784L170.667 30.5378C181.667 30.0378 199.167 28.5378 226.167 28.5378" stroke="black" stroke-width="0.5"/>
<path d="M165.167 8.53784C132.167 9.53784 112.167 18.5378 93.167 36.0378L95.667 34.0378L159.667 31.0378L165.167 8.53784Z" fill="#EDADBF" stroke="black" stroke-width="0.5"/>
<path d="M239.665 23.0378C235.998 20.3712 230.165 18.0378 223.665 16.5378L226.165 28.5378H232.665C235.665 27.0378 238.665 24.8066 239.665 23.0378Z" fill="#EDADBF" stroke="black" stroke-width="0.5"/>
<path d="M96.667 79.0378H163.667L198.167 77.5378H212.667L213.167 83.0378H199.167H98.167H86.667V79.0378H96.667Z" fill="#EDADBF"/>
<path d="M96.667 79.0378H163.667L198.167 77.5378M96.667 79.0378C96.667 80.5378 97.167 81.5378 98.167 83.0378M96.667 79.0378H86.667V83.0378H98.167M198.167 77.5378L199.167 83.0378M198.167 77.5378H212.667L213.167 83.0378H199.167M199.167 83.0378H98.167" stroke="black" stroke-width="0.5"/>
<path d="M96.6661 79.0378C92.167 74.5378 89.167 52.5378 93.1661 36.0378L165.167 32.0378C161.167 37.0378 160.167 71.0378 163.667 79.0378H96.6661Z" fill="#EDADBF" stroke="black" stroke-width="0.5"/>
<path d="M228.667 31.0378L165.167 32.0378C161.167 37.0378 160.167 71.0378 163.667 79.0378L198.167 77.5378C202.667 76.0378 209.167 70.5378 228.667 31.0378Z" fill="#EDADBF" stroke="black" stroke-width="0.5"/>
<path d="M170.667 30.5379C166.167 31.0379 162.667 31.0379 159.667 31.0379L165.167 8.53792C168.167 8.03784 171.167 8.03784 174.167 8.53792L170.667 30.5379Z" fill="#EDADBF" stroke="black" stroke-width="0.5"/>
<path d="M99.167 32.5379C103.667 38.0379 110.667 34.5379 114.667 33.0379C115.667 17.5377 102.667 25.5377 99.167 32.5379Z" fill="#EDADBF" stroke="black" stroke-width="0.5"/>
<path d="M234.665 10.0378L231.665 13.5378C248.665 19.0378 259.165 22.0378 271.665 28.5378H273.165L281.165 27.0378C266.165 20.5378 258.665 18.0378 234.665 10.0378Z" fill="#E56E90" stroke="black" stroke-width="0.5"/>
<path d="M271.665 28.5378C261.165 23.0378 242.165 16.5378 231.665 13.5378L229.665 16.0378L244.665 23.5378C243.165 26.0378 239.165 28.0378 233.165 30.7378C245.165 30.0378 262.165 29.0378 271.665 28.5378Z" fill="#E56E90" stroke="black" stroke-width="0.5"/>
<path d="M277.167 34.8378L283.165 32.5378L272.666 28.5378L228.666 31.0378C221.166 46.0378 206.166 76.5378 198.166 77.5378H212.666C211.166 66.5378 220.666 43.0378 245.667 52.0378C256.167 46.5378 266.167 41.0378 277.167 34.8378Z" fill="#E56E90" stroke="black" stroke-width="0.5"/>
<path d="M278.165 34.5379C266.165 41.0379 256.165 46.5379 245.665 52.0379C250.165 55.0378 260.665 61.0378 259.665 80.0378L284.665 79.5378V78.0378C293.165 77.0378 301.665 80.5378 300.165 66.5378L302.165 56.5378C302.165 55.0378 299.665 51.0378 297.165 50.5378C298.665 48.0378 295.665 39.0378 295.665 39.0378V37.5378L291.665 34.5378L286.665 33.0378L283.165 32.5378L278.165 34.5379Z" fill="#E56E90" stroke="black" stroke-width="0.5"/>
<path d="M281.165 27.0378L272.665 28.5378L283.165 32.5378C292.665 33.5378 291.664 35.0378 295.659 37.458L295.165 29.0378L281.165 27.0378Z" fill="#E56E90"/>
<path d="M295.665 37.5378L295.659 37.458M295.659 37.458L295.165 29.0378L281.165 27.0378L272.665 28.5378L283.165 32.5378C292.665 33.5378 291.664 35.0378 295.659 37.458Z" stroke="black" stroke-width="0.5"/>
<path d="M294.167 37.038C293.667 34.5379 282.667 34.3379 277.167 34.8379" stroke="black" stroke-width="0.5"/>
<path d="M300.167 67.0378L260.667 69.0378C260.167 64.0378 258 59.8712 256.167 58.0378L302.167 55.5378M300.667 53.0378C289.667 51.5378 278.667 46.7378 266.667 40.7378M228.667 31.0378L272.667 28.5378L281.167 27.0378" stroke="black" stroke-width="0.5"/>
<path d="M290.667 41.0378C290.667 39.0378 289.667 35.0378 286.167 33.0378C288.388 33.0378 291.765 34.0782 294.276 36.4478C294.74 37.9778 293.667 41.5378 290.625 43.0378C290.612 42.4476 290.667 41.7621 290.667 41.0378Z" fill="#E56E90"/>
<path d="M272.667 43.5378C279.663 43.8876 285.68 43.9927 291.06 44.5378M297.667 45.5378C295.564 45.0872 293.371 44.7719 291.06 44.5378M295.667 38.0378C295.249 37.4527 294.78 36.9235 294.276 36.4478M291.06 44.5378C290.734 44.1931 290.64 43.67 290.625 43.0378M290.625 43.0378C290.612 42.4476 290.667 41.7621 290.667 41.0378C290.667 39.0378 289.667 35.0378 286.167 33.0378C288.388 33.0378 291.765 34.0782 294.276 36.4478M290.625 43.0378C293.667 41.5378 294.74 37.9778 294.276 36.4478" stroke="black" stroke-width="0.5"/>
<path d="M290.667 41.0378C286.167 41.0378 284.167 37.0378 283.167 34.5378" stroke="black" stroke-width="0.5"/>
<path d="M132.665 13.1378C119.165 17.1378 107.165 23.0378 93.165 36.0378C100.165 24.0378 115.665 14.5378 131.165 9.53784L132.665 13.1378Z" fill="#E0426F" stroke="black" stroke-width="0.5"/>
<path d="M131.165 9.53784C111.165 15.2119 93.165 32.5378 85.165 30.5378C98.165 21.0378 114.165 12.5378 130.665 8.03784L131.165 9.53784Z" fill="#E0426F" stroke="black" stroke-width="0.5"/>
<path d="M10.1657 48.5377H4.16571C1.66504 52.5377 1.66504 62.5377 2.16571 66.0377C0.665039 67.0377 0.665637 71.5377 1.66571 73.0377L5.66571 73.5377V75.0377L1.66571 77.0377V79.0377C5.66571 80.0377 14.1657 82.0377 22.1657 81.5377V80.0377H39.6657C38.999 71.5377 40.6657 61.0377 49.6657 54.0377C47.1657 50.0377 40.1657 45.5377 37.1657 45.0377C27.1657 44.0377 12.1657 46.5377 10.1657 48.5377Z" fill="#E0426F" stroke="black" stroke-width="0.5"/>
<path d="M93.167 36.0378C75.3337 36.8712 43.667 41.7378 33.167 44.7378L37.167 45.0378C42.167 46.5378 47.667 50.8712 49.667 54.0378C62.666 44.5378 88.166 51.5378 86.666 79.0378H96.666C89.666 68.0378 90.666 46.0378 93.167 36.0378Z" fill="#E0426F" stroke="black" stroke-width="0.5"/>
<path d="M10.165 48.5379H4.16504C36.6652 29.0378 58.6653 35.0378 84.665 30.5378L93.6653 36.0378C76.6653 37.0378 47.665 40.5378 33.665 44.7378C25.665 44.5378 11.665 46.5378 10.165 48.5379Z" fill="#E0426F" stroke="black" stroke-width="0.5"/>
<path d="M37.1665 45.0379C29.6665 44.0378 12.6665 46.0378 10.1665 48.5379C9.36649 50.9379 12.4998 53.8712 14.1665 55.0378C23.6665 56.5378 37.1665 50.5378 37.1665 45.0379Z" fill="#E0426F" stroke="black" stroke-width="0.5"/>
<path d="M4.16573 48.5378C11.1657 49.5378 5.16573 60.0378 2.16573 65.0378C1.66566 58.0378 2.16553 52.5378 4.16573 48.5378Z" fill="#E0426F" stroke="black" stroke-width="0.5"/>
<path d="M22.165 84.5378V80.0378H39.665L40.165 84.5378H22.165Z" fill="#E0426F" stroke="black" stroke-width="0.5"/>
<path d="M2.66699 66.0376C4.16699 68.5376 6.16699 71.7043 5.66699 73.5376M22.167 80.0376C11.667 80.5376 7.16699 76.5376 8.16699 73.0376C8.66699 72.5376 10.167 71.0376 11.167 71.0376" stroke="black" stroke-width="0.5"/>
<path d="M32.167 75.0377C29.667 71.0377 24.167 66.0378 21.167 64.5378C19.4169 64.0378 16.7919 64.1628 14.0418 64.5378C12.4169 65.8711 11.167 69.0377 11.667 72.0377C11.667 73.2044 12.9744 75.5377 15.667 75.5377C20.167 75.5377 27.167 76.0377 32.167 75.0377Z" fill="#E0426F"/>
<path d="M6.16699 66.0378C8.41693 65.5378 11.2918 64.9128 14.0418 64.5378M14.0418 64.5378C16.7919 64.1628 19.4169 64.0378 21.167 64.5378C24.167 66.0378 29.667 71.0377 32.167 75.0377C27.167 76.0377 20.167 75.5377 15.667 75.5377C12.9744 75.5377 11.667 73.2044 11.667 72.0377C11.167 69.0377 12.4168 65.8711 14.0418 64.5378Z" stroke="black" stroke-width="0.5"/>
<path d="M11.667 71.5378C19.667 70.0378 23.167 72.6663 26.167 74.1663M13.167 74.5378L30.667 74.0378" stroke="black" stroke-width="0.5"/>
<path d="M22.165 83.0376H31.665C33.665 83.0376 35.165 81.0376 34.665 80.0376M38.165 80.0376V84.5376" stroke="black" stroke-width="0.5"/>
<path d="M22.1669 81.5381C17.6669 81.5381 13.1669 82.0381 1.66694 79.0381V77.0381L5.66694 75.0381V73.5381L1.66694 73.0381C1.16602 71.5378 0.166211 68.5378 2.16621 66.0378C1.66645 58.0378 2.16645 51.5378 4.16694 48.5376C36.6669 29.038 58.6669 35.038 84.6669 30.538C162.667 -24.4621 244.667 12.5378 281.667 27.038L295.167 29.0378L295.667 36.0378V39.0378C297.165 44.0378 298.5 48.5378 297.167 50.5378C299.667 51.5378 302.167 54.7045 302.167 56.5378L300.167 66.5378C300.619 77.3858 298.211 77.61 288.879 77.9225C287.888 77.9557 285.819 77.9898 284.667 78.0378V79.5378L259.667 79.9689M22.1669 81.5381V84.5381H40.1653L39.6669 80.0381M22.1669 81.5381V80.0381H39.6669M39.6669 80.0381C36.6669 38.5381 90.1669 41.5381 86.6669 80.5381V83.0378H213.167C207.167 39.5378 261.667 39.5378 259.667 79.9689M259.165 79.9689H259.667" stroke="black"/>
</svg>
