<svg width="304" height="95" viewBox="0 0 304 95" fill="none" xmlns="http://www.w3.org/2000/svg">
<circle cx="63.0835" cy="73.8762" r="20.5" fill="#EDADBF" stroke="black"/>
<circle cx="236.083" cy="73.8762" r="20.5" fill="#EDADBF" stroke="black"/>
<path d="M133.082 12.3761L131.582 8.87608C171.582 0.876188 193.082 1.37622 232.082 12.8762L228.582 17.3762C208.582 9.37613 190.582 8.37613 174.582 7.8762C172.082 7.3762 168.082 7.37616 165.582 7.87608C155.582 7.8762 143.582 9.3762 133.082 12.3761Z" fill="#E56E90" stroke="black" stroke-width="0.5"/>
<path d="M131.582 8.87627L131.082 7.37626C167.082 -3.62378 199.582 0.376095 235.082 9.37627L232.082 12.8763C192.082 0.376221 166.082 1.87622 131.582 8.87627Z" fill="#E56E90" stroke="black" stroke-width="0.5"/>
<path d="M131.582 8.87609C183.082 -2.62394 211.582 7.3761 232.082 12.8761" stroke="black" stroke-width="0.5"/>
<path d="M171.083 29.8762L174.583 7.87622C208.083 8.87622 219.583 14.3762 224.083 15.8762L226.566 27.8762C199.576 27.8769 182.081 29.3763 171.083 29.8762Z" fill="#E56E90"/>
<path d="M227.083 30.3762L224.083 15.8762C219.583 14.3762 208.083 8.87622 174.583 7.87622L171.083 29.8762C182.083 29.3762 199.583 27.8762 226.583 27.8762" stroke="black" stroke-width="0.5"/>
<path d="M165.583 7.87622C132.583 8.87622 112.583 17.8762 93.5835 35.3762L96.0835 33.3762L160.083 30.3762L165.583 7.87622Z" fill="#E56E90" stroke="black" stroke-width="0.5"/>
<path d="M240.082 22.3762C236.415 19.7096 230.582 17.3762 224.082 15.8762L226.582 27.8762H233.082C236.082 26.3762 239.082 24.145 240.082 22.3762Z" fill="#E56E90" stroke="black" stroke-width="0.5"/>
<path d="M97.0835 78.3762H164.083L198.583 76.8762H213.083L213.583 82.3762H199.583H98.5835H87.0835V78.3762H97.0835Z" fill="#E56E90"/>
<path d="M97.0835 78.3762H164.083L198.583 76.8762M97.0835 78.3762C97.0835 79.8762 97.5835 80.8762 98.5835 82.3762M97.0835 78.3762H87.0835V82.3762H98.5835M198.583 76.8762L199.583 82.3762M198.583 76.8762H213.083L213.583 82.3762H199.583M199.583 82.3762H98.5835" stroke="black" stroke-width="0.5"/>
<path d="M97.0826 78.3762C92.5835 73.8762 89.5835 51.8762 93.5826 35.3762L165.583 31.3762C161.583 36.3762 160.583 70.3762 164.083 78.3762H97.0826Z" fill="#E56E90" stroke="black" stroke-width="0.5"/>
<path d="M229.083 30.3762L165.583 31.3762C161.583 36.3762 160.583 70.3762 164.083 78.3762L198.583 76.8762C203.083 75.3762 209.583 69.8762 229.083 30.3762Z" fill="#E56E90" stroke="black" stroke-width="0.5"/>
<path d="M171.083 29.8763C166.583 30.3763 163.083 30.3763 160.083 30.3763L165.583 7.87629C168.583 7.37622 171.583 7.37622 174.583 7.87629L171.083 29.8763Z" fill="#E56E90" stroke="black" stroke-width="0.5"/>
<path d="M99.5835 31.8762C104.083 37.3762 111.083 33.8762 115.083 32.3762C116.083 16.8761 103.083 24.8761 99.5835 31.8762Z" fill="#E56E90" stroke="black" stroke-width="0.5"/>
<path d="M235.082 9.37622L232.082 12.8762C249.082 18.3762 259.582 21.3762 272.082 27.8762H273.582L281.582 26.3762C266.582 19.8762 259.082 17.3762 235.082 9.37622Z" fill="#EFC7D3" stroke="black" stroke-width="0.5"/>
<path d="M272.082 27.8762C261.582 22.3762 242.582 15.8762 232.082 12.8762L230.082 15.3762L245.082 22.8762C243.582 25.3762 239.582 27.3762 233.582 30.0762C245.582 29.3762 262.582 28.3762 272.082 27.8762Z" fill="#EFC7D3" stroke="black" stroke-width="0.5"/>
<path d="M277.583 34.1762L283.582 31.8762L273.083 27.8762L229.083 30.3762C221.583 45.3762 206.583 75.8762 198.583 76.8762H213.083C211.583 65.8762 221.083 42.3762 246.083 51.3762C256.583 45.8762 266.583 40.3762 277.583 34.1762Z" fill="#EFC7D3" stroke="black" stroke-width="0.5"/>
<path d="M278.582 33.8762C266.582 40.3762 256.582 45.8762 246.082 51.3762C250.582 54.3762 261.082 60.3762 260.082 79.3762L285.082 78.8762V77.3762C293.582 76.3762 302.082 79.8762 300.582 65.8762L302.582 55.8762C302.582 54.3762 300.082 50.3762 297.582 49.8762C299.082 47.3762 296.082 38.3762 296.082 38.3762V36.8762L292.082 33.8762L287.082 32.3762L283.582 31.8762L278.582 33.8762Z" fill="#EFC7D3" stroke="black" stroke-width="0.5"/>
<path d="M281.582 26.3762L273.082 27.8762L283.582 31.8762C293.082 32.8762 292.081 34.3762 296.076 36.7964L295.582 28.3762L281.582 26.3762Z" fill="#EFC7D3"/>
<path d="M296.082 36.8762L296.076 36.7964M296.076 36.7964L295.582 28.3762L281.582 26.3762L273.082 27.8762L283.582 31.8762C293.082 32.8762 292.081 34.3762 296.076 36.7964Z" stroke="black" stroke-width="0.5"/>
<path d="M294.583 36.3764C294.083 33.8763 283.083 33.6762 277.583 34.1762" stroke="black" stroke-width="0.5"/>
<path d="M300.583 66.3762L261.083 68.3762C260.583 63.3762 258.417 59.2096 256.583 57.3762L302.583 54.8762M301.083 52.3762C290.083 50.8762 279.083 46.0762 267.083 40.0762M229.083 30.3762L273.083 27.8762L281.583 26.3762" stroke="black" stroke-width="0.5"/>
<path d="M291.083 40.3762C291.083 38.3762 290.083 34.3762 286.583 32.3762C288.804 32.3762 292.181 33.4166 294.692 35.7862C295.156 37.3162 294.083 40.8762 291.042 42.3762C291.028 41.7859 291.083 41.1005 291.083 40.3762Z" fill="#EFC7D3"/>
<path d="M273.083 42.8762C280.079 43.226 286.096 43.3311 291.477 43.8762M298.083 44.8762C295.981 44.4256 293.787 44.1103 291.477 43.8762M296.083 37.3762C295.666 36.7911 295.196 36.2619 294.692 35.7862M291.477 43.8762C291.15 43.5315 291.056 43.0084 291.042 42.3762M291.042 42.3762C291.028 41.7859 291.083 41.1005 291.083 40.3762C291.083 38.3762 290.083 34.3762 286.583 32.3762C288.804 32.3762 292.181 33.4166 294.692 35.7862M291.042 42.3762C294.083 40.8762 295.156 37.3162 294.692 35.7862" stroke="black" stroke-width="0.5"/>
<path d="M291.083 40.3762C286.583 40.3762 284.583 36.3762 283.583 33.8762" stroke="black" stroke-width="0.5"/>
<path d="M133.082 12.4762C119.582 16.4762 107.582 22.3762 93.582 35.3762C100.582 23.3762 116.082 13.8762 131.582 8.87622L133.082 12.4762Z" fill="#EFC7D3" stroke="black" stroke-width="0.5"/>
<path d="M131.582 8.87622C111.582 14.5503 93.582 31.8762 85.582 29.8762C98.582 20.3762 114.582 11.8762 131.082 7.37622L131.582 8.87622Z" fill="#EFC7D3" stroke="black" stroke-width="0.5"/>
<path d="M10.5827 47.8761H4.5827C2.08203 51.8761 2.08203 61.8761 2.5827 65.3761C1.08203 66.3761 1.08263 70.8761 2.0827 72.3761L6.0827 72.8761V74.3761L2.0827 76.3761V78.3761C6.0827 79.3761 14.5827 81.3761 22.5827 80.8761V79.3761H40.0827C39.416 70.8761 41.0827 60.3761 50.0827 53.3761C47.5827 49.3761 40.5827 44.8761 37.5827 44.3761C27.5827 43.3761 12.5827 45.8761 10.5827 47.8761Z" fill="#EFC7D3" stroke="black" stroke-width="0.5"/>
<path d="M93.5835 35.3762C75.7502 36.2096 44.0835 41.0762 33.5835 44.0762L37.5835 44.3762C42.5835 45.8762 48.0835 50.2096 50.0835 53.3762C63.0825 43.8762 88.5825 50.8762 87.0825 78.3762H97.0825C90.0825 67.3762 91.0825 45.3762 93.5835 35.3762Z" fill="#EFC7D3" stroke="black" stroke-width="0.5"/>
<path d="M10.582 47.8763H4.58203C37.0822 28.3762 59.0823 34.3762 85.082 29.8762L94.0823 35.3762C77.0823 36.3762 48.082 39.8762 34.082 44.0762C26.082 43.8762 12.082 45.8762 10.582 47.8763Z" fill="#EFC7D3" stroke="black" stroke-width="0.5"/>
<path d="M37.5835 44.3763C30.0835 43.3762 13.0835 45.3762 10.5835 47.8763C9.78349 50.2762 12.9168 53.2096 14.5835 54.3762C24.0835 55.8762 37.5835 49.8762 37.5835 44.3763Z" fill="#EFC7D3" stroke="black" stroke-width="0.5"/>
<path d="M4.58273 47.8762C11.5827 48.8762 5.58273 59.3762 2.58273 64.3762C2.08266 57.3762 2.58252 51.8762 4.58273 47.8762Z" fill="#EFC7D3" stroke="black" stroke-width="0.5"/>
<path d="M22.582 83.8762V79.3762H40.082L40.582 83.8762H22.582Z" fill="#EFC7D3" stroke="black" stroke-width="0.5"/>
<path d="M3.08398 65.376C4.58398 67.876 6.58398 71.0426 6.08398 72.876M22.584 79.376C12.084 79.876 7.58398 75.876 8.58398 72.376C9.08398 71.876 10.584 70.376 11.584 70.376" stroke="black" stroke-width="0.5"/>
<path d="M32.584 74.3761C30.084 70.3761 24.584 65.3762 21.584 63.8762C19.8339 63.3762 17.2088 63.5012 14.4588 63.8762C12.8338 65.2095 11.584 68.3761 12.084 71.3761C12.084 72.5428 13.3914 74.8761 16.084 74.8761C20.584 74.8761 27.584 75.3761 32.584 74.3761Z" fill="#EFC7D3"/>
<path d="M6.58398 65.3762C8.83393 64.8762 11.7088 64.2512 14.4588 63.8762M14.4588 63.8762C17.2088 63.5012 19.8339 63.3762 21.584 63.8762C24.584 65.3762 30.084 70.3761 32.584 74.3761C27.584 75.3761 20.584 74.8761 16.084 74.8761C13.3914 74.8761 12.084 72.5428 12.084 71.3761C11.584 68.3761 12.8338 65.2095 14.4588 63.8762Z" stroke="black" stroke-width="0.5"/>
<path d="M12.084 70.8762C20.084 69.3762 23.584 72.0047 26.584 73.5047M13.584 73.8762L31.084 73.3762" stroke="black" stroke-width="0.5"/>
<path d="M22.582 82.376H32.082C34.082 82.376 35.582 80.376 35.082 79.376M38.582 79.376V83.876" stroke="black" stroke-width="0.5"/>
<path d="M22.5834 80.8765C18.0834 80.8765 13.5834 81.3765 2.08344 78.3765V76.3765L6.08344 74.3765V72.8765L2.08344 72.3765C1.58252 70.8762 0.582715 67.8762 2.58271 65.3762C2.08295 57.3762 2.58295 50.8762 4.58344 47.876C37.0834 28.3764 59.0834 34.3764 85.0834 29.8764C163.083 -25.1237 245.083 11.8762 282.083 26.3764L295.583 28.3762L296.083 35.3762V38.3762C297.582 43.3762 298.917 47.8762 297.583 49.8762C300.083 50.8762 302.583 54.0429 302.583 55.8762L300.583 65.8762C301.035 76.7241 298.627 76.9484 289.296 77.2609C288.305 77.294 286.236 77.3282 285.083 77.3762V78.8762L260.083 79.3073M22.5834 80.8765V83.8765H40.5818L40.0835 79.3765M22.5834 80.8765V79.3765H40.0835M40.0835 79.3765C37.0835 37.8765 90.5834 40.8765 87.0834 79.8765V82.3762H213.583C207.583 38.8762 262.083 38.8762 260.083 79.3073M259.582 79.3073H260.083" stroke="black"/>
</svg>
