<svg width="303" height="96" viewBox="0 0 303 96" fill="none" xmlns="http://www.w3.org/2000/svg">
<circle cx="62.2725" cy="74.0605" r="20.5" fill="#E56E90" stroke="black"/>
<circle cx="235.272" cy="74.0605" r="20.5" fill="#E56E90" stroke="black"/>
<path d="M132.271 12.5604L130.771 9.0604C170.771 1.06051 192.271 1.56055 231.271 13.0605L227.771 17.5605C207.771 9.56046 189.771 8.56046 173.771 8.06052C171.271 7.56052 167.271 7.56049 164.771 8.0604C154.771 8.06052 142.771 9.56052 132.271 12.5604Z" fill="#E0426F" stroke="black" stroke-width="0.5"/>
<path d="M130.771 9.06059L130.271 7.56059C166.271 -3.43945 198.771 0.560421 234.271 9.56059L231.271 13.0606C191.271 0.560547 165.271 2.06055 130.771 9.06059Z" fill="#E0426F" stroke="black" stroke-width="0.5"/>
<path d="M130.771 9.06066C182.271 -2.43937 210.771 7.56067 231.271 13.0607" stroke="black" stroke-width="0.5"/>
<path d="M170.272 30.0605L173.772 8.06055C207.272 9.06055 218.772 14.5605 223.272 16.0605L225.755 28.0605C198.765 28.0612 181.27 29.5607 170.272 30.0605Z" fill="#E0426F"/>
<path d="M226.272 30.5605L223.272 16.0605C218.772 14.5605 207.272 9.06055 173.772 8.06055L170.272 30.0605C181.272 29.5605 198.772 28.0605 225.772 28.0605" stroke="black" stroke-width="0.5"/>
<path d="M164.772 8.06055C131.772 9.06055 111.772 18.0605 92.7725 35.5605L95.2725 33.5605L159.272 30.5605L164.772 8.06055Z" fill="#E0426F" stroke="black" stroke-width="0.5"/>
<path d="M239.271 22.5605C235.604 19.8939 229.771 17.5605 223.271 16.0605L225.771 28.0605H232.271C235.271 26.5605 238.271 24.3293 239.271 22.5605Z" fill="#E0426F" stroke="black" stroke-width="0.5"/>
<path d="M96.2725 78.5605H163.272L197.772 77.0605H212.272L212.772 82.5605H198.772H97.7725H86.2725V78.5605H96.2725Z" fill="#E0426F"/>
<path d="M96.2725 78.5605H163.272L197.772 77.0605M96.2725 78.5605C96.2725 80.0605 96.7725 81.0605 97.7725 82.5605M96.2725 78.5605H86.2725V82.5605H97.7725M197.772 77.0605L198.772 82.5605M197.772 77.0605H212.272L212.772 82.5605H198.772M198.772 82.5605H97.7725" stroke="black" stroke-width="0.5"/>
<path d="M96.2716 78.5605C91.7725 74.0605 88.7725 52.0605 92.7716 35.5605L164.772 31.5605C160.772 36.5605 159.772 70.5605 163.272 78.5605H96.2716Z" fill="#E0426F" stroke="black" stroke-width="0.5"/>
<path d="M228.272 30.5605L164.772 31.5605C160.773 36.5605 159.773 70.5605 163.272 78.5605L197.772 77.0605C202.272 75.5605 208.772 70.0605 228.272 30.5605Z" fill="#E0426F" stroke="black" stroke-width="0.5"/>
<path d="M170.272 30.0606C165.772 30.5606 162.272 30.5606 159.272 30.5606L164.772 8.06062C167.772 7.56055 170.772 7.56055 173.772 8.06062L170.272 30.0606Z" fill="#E0426F" stroke="black" stroke-width="0.5"/>
<path d="M98.7725 32.0608C103.272 37.5608 110.272 34.0608 114.272 32.5608C115.272 17.0607 102.272 25.0607 98.7725 32.0608Z" fill="#E0426F" stroke="black" stroke-width="0.5"/>
<path d="M234.271 9.56055L231.271 13.0605C248.271 18.5605 258.771 21.5605 271.271 28.0605H272.771L280.771 26.5605C265.771 20.0605 258.271 17.5605 234.271 9.56055Z" fill="#EDADBF" stroke="black" stroke-width="0.5"/>
<path d="M271.271 28.0605C260.771 22.5605 241.771 16.0605 231.271 13.0605L229.271 15.5605L244.271 23.0605C242.771 25.5605 238.771 27.5605 232.771 30.2605C244.771 29.5605 261.771 28.5605 271.271 28.0605Z" fill="#EDADBF" stroke="black" stroke-width="0.5"/>
<path d="M276.772 34.3605L282.771 32.0605L272.271 28.0605L228.271 30.5605C220.771 45.5605 205.771 76.0605 197.771 77.0605H212.271C210.771 66.0605 220.271 42.5605 245.272 51.5605C255.772 46.0605 265.772 40.5605 276.772 34.3605Z" fill="#EDADBF" stroke="black" stroke-width="0.5"/>
<path d="M277.771 34.0606C265.771 40.5606 255.771 46.0606 245.271 51.5606C249.771 54.5605 260.271 60.5605 259.271 79.5605L284.271 79.0605V77.5605C292.771 76.5605 301.271 80.0605 299.771 66.0605L301.771 56.0605C301.771 54.5605 299.271 50.5605 296.771 50.0605C298.271 47.5605 295.271 38.5605 295.271 38.5605V37.0605L291.271 34.0605L286.271 32.5605L282.771 32.0605L277.771 34.0606Z" fill="#EDADBF" stroke="black" stroke-width="0.5"/>
<path d="M280.771 26.5605L272.271 28.0605L282.771 32.0605C292.271 33.0605 291.269 34.5605 295.265 36.9807L294.771 28.5605L280.771 26.5605Z" fill="#EDADBF"/>
<path d="M295.271 37.0605L295.265 36.9807M295.265 36.9807L294.771 28.5605L280.771 26.5605L272.271 28.0605L282.771 32.0605C292.271 33.0605 291.269 34.5605 295.265 36.9807Z" stroke="black" stroke-width="0.5"/>
<path d="M293.772 36.5607C293.272 34.0606 282.272 33.8606 276.772 34.3606" stroke="black" stroke-width="0.5"/>
<path d="M299.772 66.5605L260.272 68.5605C259.772 63.5605 257.606 59.3939 255.772 57.5605L301.772 55.0605M300.272 52.5605C289.272 51.0605 278.272 46.2605 266.272 40.2605M228.272 30.5605L272.272 28.0605L280.772 26.5605" stroke="black" stroke-width="0.5"/>
<path d="M290.272 40.5605C290.272 38.5605 289.272 34.5605 285.772 32.5605C287.993 32.5605 291.37 33.6009 293.881 35.9705C294.345 37.5005 293.272 41.0605 290.231 42.5605C290.217 41.9703 290.272 41.2848 290.272 40.5605Z" fill="#EDADBF"/>
<path d="M272.272 43.0605C279.268 43.4103 285.285 43.5154 290.666 44.0605M297.272 45.0605C295.169 44.6099 292.976 44.2946 290.666 44.0605M295.272 37.5605C294.855 36.9754 294.385 36.4462 293.881 35.9705M290.666 44.0605C290.339 43.7158 290.245 43.1927 290.231 42.5605M290.231 42.5605C290.217 41.9703 290.272 41.2848 290.272 40.5605C290.272 38.5605 289.272 34.5605 285.772 32.5605C287.993 32.5605 291.37 33.6009 293.881 35.9705M290.231 42.5605C293.272 41.0605 294.345 37.5005 293.881 35.9705" stroke="black" stroke-width="0.5"/>
<path d="M290.272 40.5605C285.772 40.5605 283.772 36.5605 282.772 34.0605" stroke="black" stroke-width="0.5"/>
<path d="M132.271 12.6605C118.771 16.6605 106.771 22.5605 92.7705 35.5605C99.7705 23.5605 115.271 14.0605 130.771 9.06055L132.271 12.6605Z" fill="#E56E90" stroke="black" stroke-width="0.5"/>
<path d="M130.771 9.06055C110.771 14.7346 92.7705 32.0605 84.7705 30.0605C97.7705 20.5605 113.771 12.0605 130.271 7.56055L130.771 9.06055Z" fill="#E56E90" stroke="black" stroke-width="0.5"/>
<path d="M9.77118 48.0604H3.77118C1.27051 52.0604 1.27051 62.0604 1.77118 65.5604C0.270508 66.5604 0.271105 71.0604 1.27118 72.5604L5.27118 73.0604V74.5604L1.27118 76.5604V78.5604C5.27118 79.5604 13.7712 81.5604 21.7712 81.0604V79.5604H39.2712C38.6045 71.0604 40.2712 60.5604 49.2712 53.5604C46.7712 49.5604 39.7712 45.0604 36.7712 44.5604C26.7712 43.5604 11.7712 46.0604 9.77118 48.0604Z" fill="#E56E90" stroke="black" stroke-width="0.5"/>
<path d="M92.7725 35.5605C74.9391 36.3939 43.2725 41.2605 32.7725 44.2605L36.7725 44.5605C41.7725 46.0605 47.2725 50.3939 49.2725 53.5605C62.2715 44.0605 87.7715 51.0605 86.2715 78.5605H96.2715C89.2715 67.5605 90.2715 45.5605 92.7725 35.5605Z" fill="#E56E90" stroke="black" stroke-width="0.5"/>
<path d="M9.77051 48.0606H3.77051C36.2707 28.5605 58.2708 34.5605 84.2705 30.0605L93.2708 35.5605C76.2708 36.5605 47.2705 40.0605 33.2705 44.2606C25.2705 44.0605 11.2705 46.0605 9.77051 48.0606Z" fill="#E56E90" stroke="black" stroke-width="0.5"/>
<path d="M36.772 44.5606C29.272 43.5605 12.272 45.5605 9.77196 48.0606C8.97196 50.4606 12.1053 53.3939 13.772 54.5605C23.272 56.0605 36.772 50.0605 36.772 44.5606Z" fill="#E56E90" stroke="black" stroke-width="0.5"/>
<path d="M3.7712 48.0605C10.7712 49.0605 4.7712 59.5605 1.7712 64.5605C1.27113 57.5605 1.771 52.0605 3.7712 48.0605Z" fill="#E56E90" stroke="black" stroke-width="0.5"/>
<path d="M21.7705 84.0605V79.5605H39.2705L39.7705 84.0605H21.7705Z" fill="#E56E90" stroke="black" stroke-width="0.5"/>
<path d="M2.27246 65.5605C3.77246 68.0605 5.77246 71.2272 5.27246 73.0605M21.7725 79.5605C11.2725 80.0605 6.77246 76.0605 7.77246 72.5605C8.27246 72.0605 9.77246 70.5605 10.7725 70.5605" stroke="black" stroke-width="0.5"/>
<path d="M31.7725 74.5607C29.2725 70.5607 23.7725 65.5607 20.7725 64.0607C19.0224 63.5607 16.3973 63.6857 13.6472 64.0607C12.0223 65.3941 10.7725 68.5607 11.2725 71.5607C11.2725 72.7273 12.5799 75.0607 15.2725 75.0607C19.7725 75.0607 26.7725 75.5607 31.7725 74.5607Z" fill="#E56E90"/>
<path d="M5.77246 65.5607C8.0224 65.0607 10.8973 64.4357 13.6472 64.0607M13.6472 64.0607C16.3973 63.6857 19.0224 63.5607 20.7725 64.0607C23.7725 65.5607 29.2725 70.5607 31.7725 74.5607C26.7725 75.5607 19.7725 75.0607 15.2725 75.0607C12.5799 75.0607 11.2725 72.7273 11.2725 71.5607C10.7725 68.5607 12.0223 65.3941 13.6472 64.0607Z" stroke="black" stroke-width="0.5"/>
<path d="M11.2725 71.0607C19.2725 69.5608 22.7725 72.1893 25.7725 73.6893M12.7725 74.0608L30.2725 73.5608" stroke="black" stroke-width="0.5"/>
<path d="M21.7705 82.5605H31.2705C33.2705 82.5605 34.7705 80.5605 34.2705 79.5605M37.7705 79.5605V84.0605" stroke="black" stroke-width="0.5"/>
<path d="M21.7724 81.0608C17.2724 81.0608 12.7724 81.5608 1.27241 78.5608V76.5608L5.27241 74.5608V73.0608L1.27241 72.5608C0.771484 71.0605 -0.22832 68.0605 1.77168 65.5605C1.27192 57.5605 1.77192 51.0605 3.77241 48.0603C36.2724 28.5607 58.2724 34.5607 84.2724 30.0607C162.272 -24.9394 244.272 12.0605 281.272 26.5607L294.772 28.5605L295.272 35.5605V38.5605C296.771 43.5605 298.106 48.0605 296.772 50.0605C299.272 51.0605 301.772 54.2272 301.772 56.0605L299.772 66.0605C300.224 76.9085 297.816 77.1327 288.485 77.4452C287.494 77.4784 285.425 77.5125 284.272 77.5605V79.0605L259.272 79.4916M21.7724 81.0608V84.0608H39.7708L39.2724 79.5608M21.7724 81.0608V79.5608H39.2724M39.2724 79.5608C36.2724 38.0608 89.7724 41.0608 86.2724 80.0608V82.5605H212.772C206.772 39.0605 261.272 39.0605 259.272 79.4916M258.771 79.4916H259.272" stroke="black"/>
</svg>
