<svg width="303" height="96" viewBox="0 0 303 96" fill="none" xmlns="http://www.w3.org/2000/svg">
<circle cx="62.2817" cy="74.0151" r="20.5" fill="#E56E90" stroke="black"/>
<circle cx="235.282" cy="74.0151" r="20.5" fill="#E56E90" stroke="black"/>
<path d="M132.28 12.515L130.78 9.01499C170.78 1.0151 192.28 1.51514 231.28 13.0151L227.78 17.5151C207.78 9.51505 189.78 8.51505 173.78 8.01511C171.28 7.51511 167.28 7.51508 164.78 8.01499C154.78 8.01511 142.78 9.51511 132.28 12.515Z" fill="#EFC7D3" stroke="black" stroke-width="0.5"/>
<path d="M130.78 9.01518L130.28 7.51518C166.28 -3.48486 198.78 0.515011 234.28 9.51518L231.28 13.0152C191.28 0.515137 165.28 2.01514 130.78 9.01518Z" fill="#EFC7D3" stroke="black" stroke-width="0.5"/>
<path d="M130.78 9.01512C182.28 -2.4849 210.78 7.51514 231.28 13.0151" stroke="black" stroke-width="0.5"/>
<path d="M170.282 30.0151L173.782 8.01514C207.282 9.01514 218.782 14.5151 223.282 16.0151L225.764 28.0151C198.774 28.0158 181.279 29.5152 170.282 30.0151Z" fill="#EFC7D3"/>
<path d="M226.282 30.5151L223.282 16.0151C218.782 14.5151 207.282 9.01514 173.782 8.01514L170.282 30.0151C181.282 29.5151 198.782 28.0151 225.782 28.0151" stroke="black" stroke-width="0.5"/>
<path d="M164.782 8.01514C131.782 9.01514 111.782 18.0151 92.7817 35.5151L95.2817 33.5151L159.282 30.5151L164.782 8.01514Z" fill="#EFC7D3" stroke="black" stroke-width="0.5"/>
<path d="M239.28 22.5151C235.614 19.8485 229.78 17.5151 223.28 16.0151L225.78 28.0151H232.28C235.28 26.5151 238.28 24.2839 239.28 22.5151Z" fill="#EFC7D3" stroke="black" stroke-width="0.5"/>
<path d="M96.2817 78.5151H163.282L197.782 77.0151H212.282L212.782 82.5151H198.782H97.7817H86.2817V78.5151H96.2817Z" fill="#EFC7D3"/>
<path d="M96.2817 78.5151H163.282L197.782 77.0151M96.2817 78.5151C96.2817 80.0151 96.7817 81.0151 97.7817 82.5151M96.2817 78.5151H86.2817V82.5151H97.7817M197.782 77.0151L198.782 82.5151M197.782 77.0151H212.282L212.782 82.5151H198.782M198.782 82.5151H97.7817" stroke="black" stroke-width="0.5"/>
<path d="M96.2809 78.5151C91.7817 74.0151 88.7818 52.0151 92.7809 35.5151L164.782 31.5151C160.782 36.5151 159.782 70.5151 163.282 78.5151H96.2809Z" fill="#EFC7D3" stroke="black" stroke-width="0.5"/>
<path d="M228.281 30.5151L164.781 31.5151C160.781 36.5151 159.781 70.5151 163.281 78.5151L197.781 77.0151C202.281 75.5151 208.781 70.0151 228.281 30.5151Z" fill="#EFC7D3" stroke="black" stroke-width="0.5"/>
<path d="M170.282 30.0152C165.782 30.5152 162.282 30.5152 159.282 30.5152L164.782 8.01521C167.782 7.51514 170.782 7.51514 173.782 8.01521L170.282 30.0152Z" fill="#EFC7D3" stroke="black" stroke-width="0.5"/>
<path d="M98.7817 32.0153C103.282 37.5153 110.282 34.0153 114.282 32.5153C115.282 17.0152 102.282 25.0151 98.7817 32.0153Z" fill="#EFC7D3" stroke="black" stroke-width="0.5"/>
<path d="M234.28 9.51514L231.28 13.0151C248.28 18.5151 258.78 21.5151 271.28 28.0151H272.78L280.78 26.5151C265.78 20.0151 258.28 17.5151 234.28 9.51514Z" fill="#EFC7D3" stroke="black" stroke-width="0.5"/>
<path d="M271.28 28.0151C260.78 22.5151 241.78 16.0151 231.28 13.0151L229.28 15.5151L244.28 23.0151C242.78 25.5151 238.78 27.5151 232.78 30.2151C244.78 29.5151 261.78 28.5151 271.28 28.0151Z" fill="#EFC7D3" stroke="black" stroke-width="0.5"/>
<path d="M276.782 34.3151L282.78 32.0151L272.281 28.0151L228.281 30.5151C220.781 45.5151 205.781 76.0151 197.781 77.0151H212.281C210.781 66.0151 220.281 42.5151 245.282 51.5151C255.782 46.0151 265.782 40.5151 276.782 34.3151Z" fill="#EFC7D3" stroke="black" stroke-width="0.5"/>
<path d="M277.78 34.0152C265.78 40.5152 255.78 46.0152 245.28 51.5152C249.78 54.5151 260.28 60.5151 259.28 79.5151L284.28 79.0151V77.5151C292.78 76.5151 301.28 80.0151 299.78 66.0151L301.78 56.0151C301.78 54.5151 299.28 50.5151 296.78 50.0151C298.28 47.5151 295.28 38.5151 295.28 38.5151V37.0151L291.28 34.0151L286.28 32.5151L282.78 32.0151L277.78 34.0152Z" fill="#EFC7D3" stroke="black" stroke-width="0.5"/>
<path d="M280.78 26.5151L272.28 28.0151L282.78 32.0151C292.28 33.0151 291.279 34.5151 295.274 36.9353L294.78 28.5151L280.78 26.5151Z" fill="#EFC7D3"/>
<path d="M295.28 37.0151L295.274 36.9353M295.274 36.9353L294.78 28.5151L280.78 26.5151L272.28 28.0151L282.78 32.0151C292.28 33.0151 291.279 34.5151 295.274 36.9353Z" stroke="black" stroke-width="0.5"/>
<path d="M293.782 36.5153C293.282 34.0152 282.282 33.8151 276.782 34.3151" stroke="black" stroke-width="0.5"/>
<path d="M299.782 66.5151L260.282 68.5151C259.782 63.5151 257.615 59.3485 255.782 57.5151L301.782 55.0151M300.282 52.5151C289.282 51.0151 278.282 46.2151 266.282 40.2151M228.282 30.5151L272.282 28.0151L280.782 26.5151" stroke="black" stroke-width="0.5"/>
<path d="M290.282 40.5151C290.282 38.5151 289.282 34.5151 285.782 32.5151C288.003 32.5151 291.379 33.5555 293.891 35.9251C294.354 37.4551 293.282 41.0151 290.24 42.5151C290.226 41.9249 290.282 41.2394 290.282 40.5151Z" fill="#EFC7D3"/>
<path d="M272.282 43.0151C279.277 43.3649 285.294 43.47 290.675 44.0151M297.282 45.0151C295.179 44.5645 292.985 44.2492 290.675 44.0151M295.282 37.5151C294.864 36.93 294.395 36.4008 293.891 35.9251M290.675 44.0151C290.349 43.6704 290.255 43.1473 290.24 42.5151M290.24 42.5151C290.226 41.9249 290.282 41.2394 290.282 40.5151C290.282 38.5151 289.282 34.5151 285.782 32.5151C288.003 32.5151 291.379 33.5555 293.891 35.9251M290.24 42.5151C293.282 41.0151 294.354 37.4551 293.891 35.9251" stroke="black" stroke-width="0.5"/>
<path d="M290.282 40.5151C285.782 40.5151 283.782 36.5151 282.782 34.0151" stroke="black" stroke-width="0.5"/>
<path d="M132.28 12.6151C118.78 16.6151 106.78 22.5151 92.7803 35.5151C99.7803 23.5151 115.28 14.0151 130.78 9.01514L132.28 12.6151Z" stroke="black" stroke-width="0.5"/>
<path d="M130.78 9.01514C110.78 14.6892 92.7803 32.0151 84.7803 30.0151C97.7803 20.5151 113.78 12.0151 130.28 7.51514L130.78 9.01514Z" stroke="black" stroke-width="0.5"/>
<path d="M9.78094 48.0151H3.78094C1.28027 52.0151 1.28027 62.0151 1.78094 65.5151C0.280273 66.5151 0.280871 71.0151 1.28094 72.5151L5.28094 73.0151V74.5151L1.28094 76.5151V78.5151C5.28094 79.5151 13.7809 81.5151 21.7809 81.0151V79.5151H39.2809C38.6143 71.0151 40.2809 60.5151 49.2809 53.5151C46.7809 49.5151 39.7809 45.0151 36.7809 44.5151C26.7809 43.5151 11.7809 46.0151 9.78094 48.0151Z" stroke="black" stroke-width="0.5"/>
<path d="M92.7817 35.5151C74.9484 36.3485 43.2817 41.2151 32.7817 44.2151L36.7817 44.5151C41.7817 46.0151 47.2817 50.3485 49.2817 53.5151C62.2808 44.0151 87.7808 51.0151 86.2808 78.5151H96.2808C89.2808 67.5151 90.2808 45.5151 92.7817 35.5151Z" stroke="black" stroke-width="0.5"/>
<path d="M9.78027 48.0152H3.78027C36.2805 28.5151 58.2805 34.5151 84.2803 30.0151L93.2805 35.5151C76.2805 36.5151 47.2803 40.0151 33.2803 44.2151C25.2803 44.0151 11.2803 46.0151 9.78027 48.0152Z" stroke="black" stroke-width="0.5"/>
<path d="M36.7817 44.5152C29.2817 43.5151 12.2817 45.5151 9.78173 48.0152C8.98173 50.4152 12.1151 53.3485 13.7817 54.5151C23.2817 56.0151 36.7817 50.0151 36.7817 44.5152Z" stroke="black" stroke-width="0.5"/>
<path d="M3.78097 48.0151C10.781 49.0151 4.78097 59.5151 1.78097 64.5151C1.2809 57.5151 1.78076 52.0151 3.78097 48.0151Z" stroke="black" stroke-width="0.5"/>
<path d="M21.7803 84.0151V79.5151H39.2803L39.7803 84.0151H21.7803Z" stroke="black" stroke-width="0.5"/>
<path d="M2.28223 65.5151C3.78223 68.0151 5.78223 71.1818 5.28223 73.0151M21.7822 79.5151C11.2822 80.0151 6.78223 76.0151 7.78223 72.5151C8.28223 72.0151 9.78223 70.5151 10.7822 70.5151" stroke="black" stroke-width="0.5"/>
<path d="M5.78223 65.5152C8.03217 65.0152 10.9071 64.3902 13.657 64.0152M13.657 64.0152C16.4071 63.6402 19.0322 63.5152 20.7822 64.0152C23.7822 65.5152 29.2822 70.5151 31.7822 74.5151C26.7822 75.5151 19.7822 75.0151 15.2822 75.0151C12.5896 75.0151 11.2822 72.6818 11.2822 71.5151C10.7822 68.5151 12.0321 65.3485 13.657 64.0152Z" stroke="black" stroke-width="0.5"/>
<path d="M11.2822 71.0152C19.2822 69.5153 22.7822 72.1437 25.7822 73.6437M12.7822 74.0153L30.2822 73.5153" stroke="black" stroke-width="0.5"/>
<path d="M21.7803 82.5151H31.2803C33.2803 82.5151 34.7803 80.5151 34.2803 79.5151M37.7803 79.5151V84.0151" stroke="black" stroke-width="0.5"/>
<path d="M21.7817 81.0154C17.2817 81.0154 12.7817 81.5154 1.28168 78.5154V76.5154L5.28168 74.5154V73.0154L1.28168 72.5154C0.780762 71.0151 -0.219042 68.0151 1.78095 65.5151C1.2812 57.5151 1.7812 51.0151 3.78168 48.0149C36.2817 28.5153 58.2817 34.5153 84.2817 30.0153C162.282 -24.9848 244.282 12.0151 281.282 26.5153L294.782 28.5151L295.282 35.5151V38.5151C296.78 43.5151 298.115 48.0151 296.782 50.0151C299.282 51.0151 301.782 54.1818 301.782 56.0151L299.782 66.0151C300.234 76.863 297.826 77.0873 288.494 77.3998C287.503 77.433 285.434 77.4671 284.282 77.5151V79.0151L259.282 79.4462M21.7817 81.0154V84.0154H39.78L39.2817 79.5154M21.7817 81.0154V79.5154H39.2817M39.2817 79.5154C36.2817 38.0154 89.7817 41.0154 86.2817 80.0154V82.5151H212.782C206.782 39.0151 261.282 39.0151 259.282 79.4462M258.78 79.4462H259.282" stroke="black"/>
</svg>
