<svg width="304" height="96" viewBox="0 0 304 96" fill="none" xmlns="http://www.w3.org/2000/svg">
<circle cx="63.0835" cy="74.5227" r="20.5" fill="#EDADBF" stroke="black"/>
<circle cx="236.083" cy="74.5227" r="20.5" fill="#EDADBF" stroke="black"/>
<path d="M133.082 13.0226L131.582 9.52256C171.582 1.52267 193.082 2.02271 232.082 13.5227L228.582 18.0226C208.582 10.0226 190.582 9.02261 174.582 8.52268C172.082 8.02268 168.082 8.02264 165.582 8.52256C155.582 8.52268 143.582 10.0227 133.082 13.0226Z" fill="#EFC7D3" stroke="black" stroke-width="0.5"/>
<path d="M131.582 9.52275L131.082 8.02275C167.082 -2.97729 199.582 1.02258 235.082 10.0228L232.082 13.5228C192.082 1.02271 166.082 2.52271 131.582 9.52275Z" fill="#EFC7D3" stroke="black" stroke-width="0.5"/>
<path d="M131.582 9.52269C183.082 -1.97733 211.582 8.02271 232.082 13.5227" stroke="black" stroke-width="0.5"/>
<path d="M171.083 30.5227L174.583 8.52271C208.083 9.52271 219.583 15.0227 224.083 16.5227L226.566 28.5227C199.576 28.5233 182.081 30.0228 171.083 30.5227Z" fill="#EFC7D3"/>
<path d="M227.083 31.0227L224.083 16.5227C219.583 15.0227 208.083 9.52271 174.583 8.52271L171.083 30.5227C182.083 30.0227 199.583 28.5227 226.583 28.5227" stroke="black" stroke-width="0.5"/>
<path d="M165.583 8.52271C132.583 9.52271 112.583 18.5227 93.5835 36.0227L96.0835 34.0227L160.083 31.0227L165.583 8.52271Z" fill="#EFC7D3" stroke="black" stroke-width="0.5"/>
<path d="M240.082 23.0227C236.415 20.356 230.582 18.0227 224.082 16.5227L226.582 28.5227H233.082C236.082 27.0227 239.082 24.7914 240.082 23.0227Z" fill="#EFC7D3" stroke="black" stroke-width="0.5"/>
<path d="M97.0835 79.0227H164.083L198.583 77.5227H213.083L213.583 83.0227H199.583H98.5835H87.0835V79.0227H97.0835Z" fill="#EFC7D3"/>
<path d="M97.0835 79.0227H164.083L198.583 77.5227M97.0835 79.0227C97.0835 80.5227 97.5835 81.5227 98.5835 83.0227M97.0835 79.0227H87.0835V83.0227H98.5835M198.583 77.5227L199.583 83.0227M198.583 77.5227H213.083L213.583 83.0227H199.583M199.583 83.0227H98.5835" stroke="black" stroke-width="0.5"/>
<path d="M97.0826 79.0227C92.5835 74.5227 89.5835 52.5227 93.5826 36.0227L165.583 32.0227C161.583 37.0227 160.583 71.0227 164.083 79.0227H97.0826Z" fill="#EFC7D3" stroke="black" stroke-width="0.5"/>
<path d="M229.083 31.0227L165.583 32.0227C161.583 37.0227 160.583 71.0227 164.083 79.0227L198.583 77.5227C203.083 76.0227 209.583 70.5227 229.083 31.0227Z" fill="#EFC7D3" stroke="black" stroke-width="0.5"/>
<path d="M171.083 30.5228C166.583 31.0228 163.083 31.0228 160.083 31.0228L165.583 8.52278C168.583 8.02271 171.583 8.02271 174.583 8.52278L171.083 30.5228Z" fill="#EFC7D3" stroke="black" stroke-width="0.5"/>
<path d="M99.5835 32.5228C104.083 38.0228 111.083 34.5228 115.083 33.0228C116.083 17.5227 103.083 25.5227 99.5835 32.5228Z" fill="#EFC7D3" stroke="black" stroke-width="0.5"/>
<path d="M235.082 10.0227L232.082 13.5227C249.082 19.0227 259.582 22.0227 272.082 28.5227H273.582L281.582 27.0227C266.582 20.5227 259.082 18.0227 235.082 10.0227Z" fill="#EFC7D3" stroke="black" stroke-width="0.5"/>
<path d="M272.082 28.5227C261.582 23.0227 242.582 16.5227 232.082 13.5227L230.082 16.0227L245.082 23.5227C243.582 26.0227 239.582 28.0227 233.582 30.7227C245.582 30.0227 262.582 29.0227 272.082 28.5227Z" fill="#EFC7D3" stroke="black" stroke-width="0.5"/>
<path d="M277.583 34.8227L283.582 32.5227L273.083 28.5227L229.083 31.0227C221.583 46.0227 206.583 76.5227 198.583 77.5227H213.083C211.583 66.5227 221.083 43.0227 246.083 52.0227C256.583 46.5227 266.583 41.0227 277.583 34.8227Z" fill="#EFC7D3" stroke="black" stroke-width="0.5"/>
<path d="M278.582 34.5227C266.582 41.0227 256.582 46.5227 246.082 52.0227C250.582 55.0227 261.082 61.0227 260.082 80.0227L285.082 79.5227V78.0227C293.582 77.0227 302.082 80.5227 300.582 66.5227L302.582 56.5227C302.582 55.0227 300.082 51.0227 297.582 50.5227C299.082 48.0227 296.082 39.0227 296.082 39.0227V37.5227L292.082 34.5227L287.082 33.0227L283.582 32.5227L278.582 34.5227Z" fill="#EFC7D3" stroke="black" stroke-width="0.5"/>
<path d="M281.582 27.0227L273.082 28.5227L283.582 32.5227C293.082 33.5227 292.081 35.0227 296.076 37.4429L295.582 29.0227L281.582 27.0227Z" fill="#EFC7D3"/>
<path d="M296.082 37.5227L296.076 37.4429M296.076 37.4429L295.582 29.0227L281.582 27.0227L273.082 28.5227L283.582 32.5227C293.082 33.5227 292.081 35.0227 296.076 37.4429Z" stroke="black" stroke-width="0.5"/>
<path d="M294.583 37.0229C294.083 34.5228 283.083 34.3227 277.583 34.8227" stroke="black" stroke-width="0.5"/>
<path d="M300.583 67.0227L261.083 69.0227C260.583 64.0227 258.417 59.856 256.583 58.0227L302.583 55.5227M301.083 53.0227C290.083 51.5227 279.083 46.7227 267.083 40.7227M229.083 31.0227L273.083 28.5227L281.583 27.0227" stroke="black" stroke-width="0.5"/>
<path d="M291.083 41.0227C291.083 39.0227 290.083 35.0227 286.583 33.0227C288.804 33.0227 292.181 34.0631 294.692 36.4327C295.156 37.9627 294.083 41.5227 291.042 43.0227C291.028 42.4324 291.083 41.747 291.083 41.0227Z" fill="#EFC7D3"/>
<path d="M273.083 43.5227C280.079 43.8725 286.096 43.9776 291.477 44.5227M298.083 45.5227C295.981 45.0721 293.787 44.7568 291.477 44.5227M296.083 38.0227C295.666 37.4376 295.196 36.9084 294.692 36.4327M291.477 44.5227C291.15 44.1779 291.056 43.6549 291.042 43.0227M291.042 43.0227C291.028 42.4324 291.083 41.747 291.083 41.0227C291.083 39.0227 290.083 35.0227 286.583 33.0227C288.804 33.0227 292.181 34.0631 294.692 36.4327M291.042 43.0227C294.083 41.5227 295.156 37.9627 294.692 36.4327" stroke="black" stroke-width="0.5"/>
<path d="M291.083 41.0227C286.583 41.0227 284.583 37.0227 283.583 34.5227" stroke="black" stroke-width="0.5"/>
<path d="M133.082 13.1227C119.582 17.1227 107.582 23.0227 93.582 36.0227C100.582 24.0227 116.082 14.5227 131.582 9.52271L133.082 13.1227Z" fill="#E56E90" stroke="black" stroke-width="0.5"/>
<path d="M131.582 9.52271C111.582 15.1967 93.582 32.5227 85.582 30.5227C98.582 21.0227 114.582 12.5227 131.082 8.02271L131.582 9.52271Z" fill="#E56E90" stroke="black" stroke-width="0.5"/>
<path d="M10.5827 48.5227H4.5827C2.08203 52.5227 2.08203 62.5227 2.5827 66.0227C1.08203 67.0227 1.08263 71.5227 2.0827 73.0227L6.0827 73.5227V75.0227L2.0827 77.0227V79.0227C6.0827 80.0227 14.5827 82.0227 22.5827 81.5227V80.0227H40.0827C39.416 71.5227 41.0827 61.0227 50.0827 54.0227C47.5827 50.0227 40.5827 45.5227 37.5827 45.0227C27.5827 44.0227 12.5827 46.5227 10.5827 48.5227Z" fill="#E56E90" stroke="black" stroke-width="0.5"/>
<path d="M93.5835 36.0227C75.7502 36.856 44.0835 41.7227 33.5835 44.7227L37.5835 45.0227C42.5835 46.5227 48.0835 50.856 50.0835 54.0227C63.0825 44.5227 88.5825 51.5227 87.0825 79.0227H97.0825C90.0825 68.0227 91.0825 46.0227 93.5835 36.0227Z" fill="#E56E90" stroke="black" stroke-width="0.5"/>
<path d="M10.582 48.5228H4.58203C37.0822 29.0227 59.0823 35.0227 85.082 30.5227L94.0823 36.0227C77.0823 37.0227 48.082 40.5227 34.082 44.7227C26.082 44.5227 12.082 46.5227 10.582 48.5228Z" fill="#E56E90" stroke="black" stroke-width="0.5"/>
<path d="M37.5835 45.0228C30.0835 44.0227 13.0835 46.0227 10.5835 48.5228C9.78349 50.9227 12.9168 53.856 14.5835 55.0227C24.0835 56.5227 37.5835 50.5227 37.5835 45.0228Z" fill="#E56E90" stroke="black" stroke-width="0.5"/>
<path d="M4.58273 48.5227C11.5827 49.5227 5.58273 60.0227 2.58273 65.0227C2.08266 58.0227 2.58252 52.5227 4.58273 48.5227Z" fill="#E56E90" stroke="black" stroke-width="0.5"/>
<path d="M22.582 84.5227V80.0227H40.082L40.582 84.5227H22.582Z" fill="#E56E90" stroke="black" stroke-width="0.5"/>
<path d="M3.08398 66.0225C4.58398 68.5225 6.58398 71.6891 6.08398 73.5225M22.584 80.0225C12.084 80.5225 7.58398 76.5225 8.58398 73.0225C9.08398 72.5225 10.584 71.0225 11.584 71.0225" stroke="black" stroke-width="0.5"/>
<path d="M32.584 75.0226C30.084 71.0226 24.584 66.0227 21.584 64.5227C19.8339 64.0227 17.2088 64.1477 14.4588 64.5227C12.8338 65.856 11.584 69.0226 12.084 72.0226C12.084 73.1892 13.3914 75.5226 16.084 75.5226C20.584 75.5226 27.584 76.0226 32.584 75.0226Z" fill="#E56E90"/>
<path d="M6.58398 66.0227C8.83393 65.5226 11.7088 64.8977 14.4588 64.5227M14.4588 64.5227C17.2088 64.1477 19.8339 64.0227 21.584 64.5227C24.584 66.0227 30.084 71.0226 32.584 75.0226C27.584 76.0226 20.584 75.5226 16.084 75.5226C13.3914 75.5226 12.084 73.1892 12.084 72.0226C11.584 69.0226 12.8338 65.856 14.4588 64.5227Z" stroke="black" stroke-width="0.5"/>
<path d="M12.084 71.5227C20.084 70.0227 23.584 72.6512 26.584 74.1512M13.584 74.5227L31.084 74.0227" stroke="black" stroke-width="0.5"/>
<path d="M22.582 83.0225H32.082C34.082 83.0225 35.582 81.0225 35.082 80.0225M38.582 80.0225V84.5225" stroke="black" stroke-width="0.5"/>
<path d="M22.5834 81.5229C18.0834 81.5229 13.5834 82.0229 2.08344 79.0229V77.0229L6.08344 75.0229V73.5229L2.08344 73.023C1.58252 71.5227 0.582715 68.5227 2.58271 66.0227C2.08295 58.0227 2.58295 51.5227 4.58344 48.5224C37.0834 29.0228 59.0834 35.0229 85.0834 30.5229C163.083 -24.4772 245.083 12.5227 282.083 27.0229L295.583 29.0227L296.083 36.0227V39.0227C297.582 44.0227 298.917 48.5227 297.583 50.5227C300.083 51.5227 302.583 54.6894 302.583 56.5227L300.583 66.5227C301.035 77.3706 298.627 77.5949 289.296 77.9073C288.305 77.9405 286.236 77.9747 285.083 78.0227V79.5227L260.083 79.9537M22.5834 81.5229V84.5229H40.5818L40.0835 80.0229M22.5834 81.5229V80.0229H40.0835M40.0835 80.0229C37.0835 38.5229 90.5834 41.5229 87.0834 80.5229V83.0227H213.583C207.583 39.5227 262.083 39.5227 260.083 79.9537M259.582 79.9537H260.083" stroke="black"/>
</svg>
