<svg width="303" height="96" viewBox="0 0 303 96" fill="none" xmlns="http://www.w3.org/2000/svg">
<circle cx="62.6772" cy="74.1692" r="20.5" stroke="black"/>
<circle cx="235.678" cy="74.1692" r="20.5" stroke="black"/>
<path d="M132.676 12.669L131.176 9.16904C171.176 1.16916 192.676 1.66919 231.676 13.1691L228.176 17.6691C208.176 9.6691 190.176 8.6691 174.176 8.16917C171.676 7.66917 167.676 7.66913 165.176 8.16904C155.176 8.16917 143.176 9.66917 132.676 12.669Z" stroke="black" stroke-width="0.5"/>
<path d="M131.176 9.16923L130.676 7.66923C166.676 -3.33081 199.176 0.669064 234.676 9.66924L231.676 13.1692C191.676 0.669189 165.676 2.16919 131.176 9.16923Z" stroke="black" stroke-width="0.5"/>
<path d="M131.176 9.16918C182.676 -2.33085 211.176 7.66919 231.676 13.1692" stroke="black" stroke-width="0.5"/>
<path d="M226.677 30.6692L223.677 16.1692C219.177 14.6692 207.677 9.16919 174.177 8.16919L170.677 30.1692C181.677 29.6692 199.177 28.1692 226.177 28.1692" stroke="black" stroke-width="0.5"/>
<path d="M165.177 8.16919C132.177 9.16919 112.177 18.1692 93.1772 35.6692L95.6772 33.6692L159.677 30.6692L165.177 8.16919Z" stroke="black" stroke-width="0.5"/>
<path d="M239.676 22.6692C236.009 20.0025 230.176 17.6692 223.676 16.1692L226.176 28.1692H232.676C235.676 26.6692 238.676 24.4379 239.676 22.6692Z" stroke="black" stroke-width="0.5"/>
<path d="M96.6772 78.6692H163.677L198.177 77.1692M96.6772 78.6692C96.6772 80.1692 97.1772 81.1692 98.1772 82.6692M96.6772 78.6692H86.6772V82.6692H98.1772M198.177 77.1692L199.177 82.6692M198.177 77.1692H212.677L213.177 82.6692H199.177M199.177 82.6692H98.1772" stroke="black" stroke-width="0.5"/>
<path d="M96.6764 78.6692C92.1772 74.1692 89.1773 52.1692 93.1764 35.6692L165.177 31.6692C161.177 36.6692 160.177 70.6692 163.677 78.6692H96.6764Z" stroke="black" stroke-width="0.5"/>
<path d="M228.677 30.6692L165.177 31.6692C161.177 36.6692 160.177 70.6692 163.677 78.6692L198.177 77.1692C202.677 75.6692 209.177 70.1692 228.677 30.6692Z" stroke="black" stroke-width="0.5"/>
<path d="M170.677 30.1693C166.177 30.6693 162.677 30.6693 159.677 30.6693L165.177 8.16926C168.177 7.66919 171.177 7.66919 174.177 8.16926L170.677 30.1693Z" stroke="black" stroke-width="0.5"/>
<path d="M99.1772 32.1693C103.677 37.6693 110.677 34.1693 114.677 32.6693C115.677 17.1692 102.677 25.1692 99.1772 32.1693Z" stroke="black" stroke-width="0.5"/>
<path d="M234.676 9.66919L231.676 13.1692C248.676 18.6692 259.176 21.6692 271.676 28.1692H273.176L281.176 26.6692C266.176 20.1692 258.676 17.6692 234.676 9.66919Z" fill="#EDADBF" stroke="black" stroke-width="0.5"/>
<path d="M271.676 28.1692C261.176 22.6692 242.176 16.1692 231.676 13.1692L229.676 15.6692L244.676 23.1692C243.176 25.6692 239.176 27.6692 233.176 30.3692C245.176 29.6692 262.176 28.6692 271.676 28.1692Z" fill="#EDADBF" stroke="black" stroke-width="0.5"/>
<path d="M277.178 34.4692L283.176 32.1692L272.677 28.1692L228.677 30.6692C221.177 45.6692 206.177 76.1692 198.177 77.1692H212.677C211.177 66.1692 220.677 42.6692 245.678 51.6692C256.178 46.1692 266.178 40.6692 277.178 34.4692Z" fill="#EDADBF" stroke="black" stroke-width="0.5"/>
<path d="M278.176 34.1692C266.176 40.6692 256.176 46.1692 245.676 51.6692C250.176 54.6692 260.676 60.6692 259.676 79.6692L284.676 79.1692V77.6692C293.176 76.6692 301.676 80.1692 300.176 66.1692L302.176 56.1692C302.176 54.6692 299.676 50.6692 297.176 50.1692C298.676 47.6692 295.676 38.6692 295.676 38.6692V37.1692L291.676 34.1692L286.676 32.6692L283.176 32.1692L278.176 34.1692Z" fill="#EDADBF" stroke="black" stroke-width="0.5"/>
<path d="M281.176 26.6692L272.676 28.1692L283.176 32.1692C292.676 33.1692 291.675 34.6692 295.67 37.0894L295.176 28.6692L281.176 26.6692Z" fill="#EDADBF"/>
<path d="M295.676 37.1692L295.67 37.0894M295.67 37.0894L295.176 28.6692L281.176 26.6692L272.676 28.1692L283.176 32.1692C292.676 33.1692 291.675 34.6692 295.67 37.0894Z" stroke="black" stroke-width="0.5"/>
<path d="M294.178 36.6694C293.678 34.1693 282.678 33.9692 277.178 34.4692" stroke="black" stroke-width="0.5"/>
<path d="M300.178 66.6692L260.678 68.6692C260.178 63.6692 258.011 59.5025 256.178 57.6692L302.178 55.1692M300.678 52.6692C289.678 51.1692 278.678 46.3692 266.678 40.3692M228.678 30.6692L272.678 28.1692L281.178 26.6692" stroke="black" stroke-width="0.5"/>
<path d="M290.678 40.6692C290.678 38.6692 289.678 34.6692 286.178 32.6692C288.399 32.6692 291.775 33.7096 294.287 36.0792C294.75 37.6092 293.678 41.1692 290.636 42.6692C290.622 42.0789 290.678 41.3935 290.678 40.6692Z" fill="#EDADBF"/>
<path d="M272.678 43.1692C279.673 43.519 285.69 43.6241 291.071 44.1692M297.678 45.1692C295.575 44.7185 293.381 44.4033 291.071 44.1692M295.678 37.6692C295.26 37.0841 294.791 36.5548 294.287 36.0792M291.071 44.1692C290.745 43.8244 290.651 43.3014 290.636 42.6692M290.636 42.6692C290.622 42.0789 290.678 41.3935 290.678 40.6692C290.678 38.6692 289.678 34.6692 286.178 32.6692C288.399 32.6692 291.775 33.7096 294.287 36.0792M290.636 42.6692C293.678 41.1692 294.75 37.6092 294.287 36.0792" stroke="black" stroke-width="0.5"/>
<path d="M290.678 40.6692C286.178 40.6692 284.178 36.6692 283.178 34.1692" stroke="black" stroke-width="0.5"/>
<path d="M132.676 12.7692C119.176 16.7692 107.176 22.6692 93.1758 35.6692C100.176 23.6692 115.676 14.1692 131.176 9.16919L132.676 12.7692Z" stroke="black" stroke-width="0.5"/>
<path d="M131.176 9.16919C111.176 14.8432 93.1758 32.1692 85.1758 30.1692C98.1758 20.6692 114.176 12.1692 130.676 7.66919L131.176 9.16919Z" stroke="black" stroke-width="0.5"/>
<path d="M10.1764 48.1692H4.17645C1.67578 52.1692 1.67578 62.1692 2.17645 65.6692C0.675781 66.6692 0.676379 71.1692 1.67645 72.6692L5.67645 73.1692V74.6692L1.67645 76.6692V78.6692C5.67645 79.6692 14.1764 81.6692 22.1764 81.1692V79.6692H39.6764C39.0098 71.1692 40.6764 60.6692 49.6764 53.6692C47.1764 49.6692 40.1764 45.1692 37.1764 44.6692C27.1764 43.6692 12.1764 46.1692 10.1764 48.1692Z" stroke="black" stroke-width="0.5"/>
<path d="M93.1772 35.6692C75.3439 36.5025 43.6772 41.3692 33.1772 44.3692L37.1772 44.6692C42.1772 46.1692 47.6772 50.5025 49.6772 53.6692C62.6763 44.1692 88.1763 51.1692 86.6763 78.6692H96.6763C89.6763 67.6692 90.6763 45.6692 93.1772 35.6692Z" stroke="black" stroke-width="0.5"/>
<path d="M10.1758 48.1692H4.17578C36.676 28.6691 58.676 34.6692 84.6758 30.1692L93.676 35.6692C76.676 36.6692 47.6758 40.1692 33.6758 44.3692C25.6758 44.1692 11.6758 46.1692 10.1758 48.1692Z" stroke="black" stroke-width="0.5"/>
<path d="M37.1772 44.6693C29.6772 43.6692 12.6772 45.6692 10.1772 48.1693C9.37724 50.5692 12.5106 53.5025 14.1772 54.6692C23.6772 56.1692 37.1772 50.1692 37.1772 44.6693Z" stroke="black" stroke-width="0.5"/>
<path d="M4.17648 48.1692C11.1765 49.1692 5.17648 59.6692 2.17648 64.6692C1.67641 57.6692 2.17627 52.1692 4.17648 48.1692Z" stroke="black" stroke-width="0.5"/>
<path d="M22.1758 84.1692V79.6692H39.6758L40.1758 84.1692H22.1758Z" stroke="black" stroke-width="0.5"/>
<path d="M2.67773 65.6692C4.17773 68.1692 6.17773 71.3359 5.67773 73.1692M22.1777 79.6692C11.6777 80.1692 7.17773 76.1692 8.17773 72.6692C8.67773 72.1692 10.1777 70.6692 11.1777 70.6692" stroke="black" stroke-width="0.5"/>
<path d="M6.17773 65.6693C8.42768 65.1692 11.3026 64.5443 14.0525 64.1693M14.0525 64.1693C16.8026 63.7943 19.4277 63.6693 21.1777 64.1693C24.1777 65.6693 29.6777 70.6692 32.1777 74.6692C27.1777 75.6692 20.1777 75.1692 15.6777 75.1692C12.9852 75.1692 11.6777 72.8359 11.6777 71.6692C11.1777 68.6692 12.4276 65.5026 14.0525 64.1693Z" stroke="black" stroke-width="0.5"/>
<path d="M11.6777 71.1693C19.6777 69.6693 23.1777 72.2978 26.1777 73.7978M13.1777 74.1693L30.6777 73.6693" stroke="black" stroke-width="0.5"/>
<path d="M22.1758 82.6692H31.6758C33.6758 82.6692 35.1758 80.6692 34.6758 79.6692M38.1758 79.6692V84.1692" stroke="black" stroke-width="0.5"/>
<path d="M22.1772 81.1694C17.6772 81.1694 13.1772 81.6694 1.67719 78.6694V76.6694L5.67719 74.6694V73.1694L1.67719 72.6694C1.17627 71.1692 0.176465 68.1692 2.17646 65.6692C1.6767 57.6692 2.1767 51.1692 4.17719 48.1689C36.6772 28.6693 58.6772 34.6694 84.6772 30.1694C162.677 -24.8307 244.677 12.1692 281.677 26.6694L295.177 28.6692L295.677 35.6692V38.6692C297.176 43.6692 298.511 48.1692 297.177 50.1692C299.677 51.1692 302.177 54.3359 302.177 56.1692L300.177 66.1692C300.629 77.0171 298.221 77.2414 288.889 77.5538C287.898 77.587 285.829 77.6212 284.677 77.6692V79.1692L259.677 79.6002M22.1772 81.1694V84.1694H40.1755L39.6772 79.6694M22.1772 81.1694V79.6694H39.6772M39.6772 79.6694C36.6772 38.1694 90.1772 41.1694 86.6772 80.1694V82.6692H213.177C207.177 39.1692 261.677 39.1692 259.677 79.6002M259.176 79.6002H259.677" stroke="black"/>
</svg>
