<svg width="303" height="95" viewBox="0 0 303 95" fill="none" xmlns="http://www.w3.org/2000/svg">
<circle cx="62.2607" cy="73.6919" r="20.5" fill="#E56E90" stroke="black"/>
<circle cx="235.261" cy="73.6919" r="20.5" fill="#E56E90" stroke="black"/>
<path d="M132.259 12.1918L130.759 8.69175C170.759 0.691862 192.259 1.19189 231.259 12.6918L227.759 17.1918C207.759 9.1918 189.759 8.1918 173.759 7.69187C171.259 7.19187 167.259 7.19183 164.759 7.69175C154.759 7.69187 142.759 9.19187 132.259 12.1918Z" fill="#EFC7D3" stroke="black" stroke-width="0.5"/>
<path d="M130.759 8.69194L130.259 7.19194C166.259 -3.80811 198.759 0.191769 234.259 9.19194L231.259 12.6919C191.259 0.191895 165.259 1.69189 130.759 8.69194Z" fill="#EFC7D3" stroke="black" stroke-width="0.5"/>
<path d="M130.759 8.692C182.259 -2.80802 210.759 7.19202 231.259 12.692" stroke="black" stroke-width="0.5"/>
<path d="M170.261 29.6919L173.761 7.69189C207.261 8.69189 218.761 14.1919 223.261 15.6919L225.743 27.6919C198.753 27.6925 181.258 29.192 170.261 29.6919Z" fill="#EFC7D3"/>
<path d="M226.261 30.1919L223.261 15.6919C218.761 14.1919 207.261 8.69189 173.761 7.69189L170.261 29.6919C181.261 29.1919 198.761 27.6919 225.761 27.6919" stroke="black" stroke-width="0.5"/>
<path d="M164.761 7.69189C131.761 8.69189 111.761 17.6919 92.7607 35.1919L95.2607 33.1919L159.261 30.1919L164.761 7.69189Z" fill="#EFC7D3" stroke="black" stroke-width="0.5"/>
<path d="M239.259 22.1919C235.592 19.5252 229.759 17.1919 223.259 15.6919L225.759 27.6919H232.259C235.259 26.1919 238.259 23.9606 239.259 22.1919Z" fill="#EFC7D3" stroke="black" stroke-width="0.5"/>
<path d="M96.2607 78.1919H163.261L197.761 76.6919H212.261L212.761 82.1919H198.761H97.7607H86.2607V78.1919H96.2607Z" fill="#EFC7D3"/>
<path d="M96.2607 78.1919H163.261L197.761 76.6919M96.2607 78.1919C96.2607 79.6919 96.7607 80.6919 97.7607 82.1919M96.2607 78.1919H86.2607V82.1919H97.7607M197.761 76.6919L198.761 82.1919M197.761 76.6919H212.261L212.761 82.1919H198.761M198.761 82.1919H97.7607" stroke="black" stroke-width="0.5"/>
<path d="M96.2599 78.1919C91.7607 73.6919 88.7608 51.6919 92.7599 35.1919L164.761 31.1919C160.761 36.1919 159.761 70.1919 163.261 78.1919H96.2599Z" fill="#EFC7D3" stroke="black" stroke-width="0.5"/>
<path d="M228.261 30.1919L164.761 31.1919C160.761 36.1919 159.761 70.1919 163.261 78.1919L197.761 76.6919C202.261 75.1919 208.761 69.6919 228.261 30.1919Z" fill="#EFC7D3" stroke="black" stroke-width="0.5"/>
<path d="M170.261 29.692C165.761 30.192 162.261 30.192 159.261 30.192L164.761 7.69197C167.761 7.19189 170.761 7.19189 173.761 7.69197L170.261 29.692Z" fill="#EFC7D3" stroke="black" stroke-width="0.5"/>
<path d="M98.7607 31.6922C103.261 37.1922 110.261 33.6922 114.261 32.1922C115.261 16.692 102.261 24.692 98.7607 31.6922Z" fill="#EFC7D3" stroke="black" stroke-width="0.5"/>
<path d="M234.259 9.19189L231.259 12.6919C248.259 18.1919 258.759 21.1919 271.259 27.6919H272.759L280.759 26.1919C265.759 19.6919 258.259 17.1919 234.259 9.19189Z" fill="#E56E90" stroke="black" stroke-width="0.5"/>
<path d="M271.259 27.6919C260.759 22.1919 241.759 15.6919 231.259 12.6919L229.259 15.1919L244.259 22.6919C242.759 25.1919 238.759 27.1919 232.759 29.8919C244.759 29.1919 261.759 28.1919 271.259 27.6919Z" fill="#E56E90" stroke="black" stroke-width="0.5"/>
<path d="M276.761 33.9919L282.759 31.6919L272.26 27.6919L228.26 30.1919C220.76 45.1919 205.76 75.6919 197.76 76.6919H212.26C210.76 65.6919 220.26 42.1919 245.261 51.1919C255.761 45.6919 265.761 40.1919 276.761 33.9919Z" fill="#E56E90" stroke="black" stroke-width="0.5"/>
<path d="M277.759 33.6919C265.759 40.1919 255.759 45.6919 245.259 51.1919C249.759 54.1919 260.259 60.1919 259.259 79.1919L284.259 78.6919V77.1919C292.759 76.1919 301.259 79.6919 299.759 65.6919L301.759 55.6919C301.759 54.1919 299.259 50.1919 296.759 49.6919C298.259 47.1919 295.259 38.1919 295.259 38.1919V36.6919L291.259 33.6919L286.259 32.1919L282.759 31.6919L277.759 33.6919Z" fill="#E56E90" stroke="black" stroke-width="0.5"/>
<path d="M280.759 26.1919L272.259 27.6919L282.759 31.6919C292.259 32.6919 291.258 34.1919 295.253 36.6121L294.759 28.1919L280.759 26.1919Z" fill="#E56E90"/>
<path d="M295.259 36.6919L295.253 36.6121M295.253 36.6121L294.759 28.1919L280.759 26.1919L272.259 27.6919L282.759 31.6919C292.259 32.6919 291.258 34.1919 295.253 36.6121Z" stroke="black" stroke-width="0.5"/>
<path d="M293.761 36.1921C293.261 33.692 282.261 33.4919 276.761 33.9919" stroke="black" stroke-width="0.5"/>
<path d="M299.761 66.1919L260.261 68.1919C259.761 63.1919 257.594 59.0252 255.761 57.1919L301.761 54.6919M300.261 52.1919C289.261 50.6919 278.261 45.8919 266.261 39.8919M228.261 30.1919L272.261 27.6919L280.761 26.1919" stroke="black" stroke-width="0.5"/>
<path d="M290.261 40.1919C290.261 38.1919 289.261 34.1919 285.761 32.1919C287.982 32.1919 291.358 33.2323 293.87 35.6019C294.333 37.1319 293.261 40.6919 290.219 42.1919C290.205 41.6016 290.261 40.9162 290.261 40.1919Z" fill="#E56E90"/>
<path d="M272.261 42.6919C279.256 43.0417 285.273 43.1468 290.654 43.6919M297.261 44.6919C295.158 44.2413 292.964 43.926 290.654 43.6919M295.261 37.1919C294.843 36.6068 294.374 36.0775 293.87 35.6019M290.654 43.6919C290.328 43.3471 290.234 42.8241 290.219 42.1919M290.219 42.1919C290.205 41.6016 290.261 40.9162 290.261 40.1919C290.261 38.1919 289.261 34.1919 285.761 32.1919C287.982 32.1919 291.358 33.2323 293.87 35.6019M290.219 42.1919C293.261 40.6919 294.333 37.1319 293.87 35.6019" stroke="black" stroke-width="0.5"/>
<path d="M290.261 40.1919C285.761 40.1919 283.761 36.1919 282.761 33.6919" stroke="black" stroke-width="0.5"/>
<path d="M132.259 12.2919C118.759 16.2919 106.759 22.1919 92.7588 35.1919C99.7588 23.1919 115.259 13.6919 130.759 8.69189L132.259 12.2919Z" fill="#E0426F" stroke="black" stroke-width="0.5"/>
<path d="M130.759 8.69189C110.759 14.3659 92.7588 31.6919 84.7588 29.6919C97.7588 20.1919 113.759 11.6919 130.259 7.19189L130.759 8.69189Z" fill="#E0426F" stroke="black" stroke-width="0.5"/>
<path d="M9.75946 47.6918H3.75946C1.25879 51.6918 1.25879 61.6918 1.75946 65.1918C0.258789 66.1918 0.259387 70.6918 1.25946 72.1918L5.25946 72.6918V74.1918L1.25946 76.1918V78.1918C5.25946 79.1918 13.7595 81.1918 21.7595 80.6918V79.1918H39.2595C38.5928 70.6918 40.2595 60.1918 49.2595 53.1918C46.7595 49.1918 39.7595 44.6918 36.7595 44.1918C26.7595 43.1918 11.7595 45.6918 9.75946 47.6918Z" fill="#E0426F" stroke="black" stroke-width="0.5"/>
<path d="M92.7607 35.1919C74.9274 36.0252 43.2607 40.8919 32.7607 43.8919L36.7607 44.1919C41.7607 45.6919 47.2607 50.0252 49.2607 53.1919C62.2598 43.6919 87.7598 50.6919 86.2598 78.1919H96.2598C89.2598 67.1919 90.2598 45.1919 92.7607 35.1919Z" fill="#E0426F" stroke="black" stroke-width="0.5"/>
<path d="M9.75879 47.6919H3.75879C36.259 28.1918 58.259 34.1919 84.2588 29.6919L93.259 35.1919C76.259 36.1919 47.2588 39.6919 33.2588 43.8919C25.2588 43.6919 11.2588 45.6919 9.75879 47.6919Z" fill="#E0426F" stroke="black" stroke-width="0.5"/>
<path d="M36.7602 44.192C29.2602 43.1919 12.2602 45.1919 9.76024 47.692C8.96024 50.0919 12.0936 53.0252 13.7602 54.1919C23.2603 55.6919 36.7602 49.6919 36.7602 44.192Z" fill="#E0426F" stroke="black" stroke-width="0.5"/>
<path d="M3.75948 47.6919C10.7595 48.6919 4.75948 59.1919 1.75948 64.1919C1.25941 57.1919 1.75928 51.6919 3.75948 47.6919Z" fill="#E0426F" stroke="black" stroke-width="0.5"/>
<path d="M21.7588 83.6919V79.1919H39.2588L39.7588 83.6919H21.7588Z" fill="#E0426F" stroke="black" stroke-width="0.5"/>
<path d="M2.26074 65.1919C3.76074 67.6919 5.76074 70.8586 5.26074 72.6919M21.7607 79.1919C11.2607 79.6919 6.76074 75.6919 7.76074 72.1919C8.26074 71.6919 9.76074 70.1919 10.7607 70.1919" stroke="black" stroke-width="0.5"/>
<path d="M31.7607 74.192C29.2607 70.192 23.7607 65.1921 20.7607 63.6921C19.0107 63.1921 16.3856 63.3171 13.6355 63.6921C12.0106 65.0254 10.7607 68.192 11.2607 71.192C11.2607 72.3587 12.5682 74.692 15.2607 74.692C19.7607 74.692 26.7607 75.192 31.7607 74.192Z" fill="#E0426F"/>
<path d="M5.76074 65.1921C8.01068 64.6921 10.8856 64.0671 13.6355 63.6921M13.6355 63.6921C16.3856 63.3171 19.0107 63.1921 20.7607 63.6921C23.7607 65.1921 29.2607 70.192 31.7607 74.192C26.7607 75.192 19.7607 74.692 15.2607 74.692C12.5682 74.692 11.2607 72.3587 11.2607 71.192C10.7607 68.192 12.0106 65.0254 13.6355 63.6921Z" stroke="black" stroke-width="0.5"/>
<path d="M11.2607 70.6921C19.2607 69.1921 22.7607 71.8206 25.7607 73.3206M12.7607 73.6921L30.2607 73.1921" stroke="black" stroke-width="0.5"/>
<path d="M21.7588 82.1919H31.2588C33.2588 82.1919 34.7588 80.1919 34.2588 79.1919M37.7588 79.1919V83.6919" stroke="black" stroke-width="0.5"/>
<path d="M21.7607 80.6921C17.2607 80.6921 12.7607 81.1921 1.26069 78.1921V76.1921L5.26069 74.1921V72.6921L1.26069 72.1921C0.759766 70.6919 -0.240039 67.6919 1.75996 65.1919C1.2602 57.1919 1.7602 50.6919 3.76069 47.6916C36.2607 28.192 58.2607 34.1921 84.2607 29.6921C162.261 -25.308 244.261 11.6919 281.261 26.1921L294.761 28.1919L295.261 35.1919V38.1919C296.759 43.1919 298.094 47.6919 296.761 49.6919C299.261 50.6919 301.761 53.8586 301.761 55.6919L299.761 65.6919C300.213 76.5398 297.805 76.7641 288.473 77.0765C287.482 77.1097 285.413 77.1439 284.261 77.1919V78.6919L259.261 79.1229M21.7607 80.6921V83.6921H39.759L39.2607 79.1921M21.7607 80.6921V79.1921H39.2607M39.2607 79.1921C36.2607 37.6921 89.7607 40.6921 86.2607 79.6921V82.1919H212.761C206.761 38.6919 261.261 38.6919 259.261 79.1229M258.759 79.1229H259.261" stroke="black"/>
</svg>
