<svg width="303" height="96" viewBox="0 0 303 96" fill="none" xmlns="http://www.w3.org/2000/svg">
<circle cx="62.4697" cy="74.0454" r="20.5" fill="#E0426F" stroke="black"/>
<circle cx="235.47" cy="74.0454" r="20.5" fill="#E0426F" stroke="black"/>
<path d="M132.468 12.5453L130.968 9.04527C170.968 1.04538 192.468 1.54541 231.468 13.0454L227.968 17.5454C207.968 9.54532 189.968 8.54532 173.968 8.04539C171.468 7.54539 167.468 7.54535 164.968 8.04527C154.968 8.04539 142.968 9.54539 132.468 12.5453Z" fill="#E56E90" stroke="black" stroke-width="0.5"/>
<path d="M130.968 9.04545L130.468 7.54545C166.468 -3.45459 198.968 0.545284 234.468 9.54546L231.468 13.0455C191.468 0.54541 165.468 2.04541 130.968 9.04545Z" fill="#E56E90" stroke="black" stroke-width="0.5"/>
<path d="M130.968 9.04552C182.468 -2.4545 210.968 7.54553 231.468 13.0455" stroke="black" stroke-width="0.5"/>
<path d="M170.47 30.0454L173.97 8.04541C207.47 9.04541 218.97 14.5454 223.47 16.0454L225.952 28.0454C198.962 28.046 181.467 29.5455 170.47 30.0454Z" fill="#E56E90"/>
<path d="M226.47 30.5454L223.47 16.0454C218.97 14.5454 207.47 9.04541 173.97 8.04541L170.47 30.0454C181.47 29.5454 198.97 28.0454 225.97 28.0454" stroke="black" stroke-width="0.5"/>
<path d="M164.97 8.04541C131.97 9.04541 111.97 18.0454 92.9697 35.5454L95.4697 33.5454L159.47 30.5454L164.97 8.04541Z" fill="#E56E90" stroke="black" stroke-width="0.5"/>
<path d="M239.468 22.5454C235.801 19.8787 229.968 17.5454 223.468 16.0454L225.968 28.0454H232.468C235.468 26.5454 238.468 24.3141 239.468 22.5454Z" fill="#E56E90" stroke="black" stroke-width="0.5"/>
<path d="M96.4697 78.5454H163.47L197.97 77.0454H212.47L212.97 82.5454H198.97H97.9697H86.4697V78.5454H96.4697Z" fill="#E56E90"/>
<path d="M96.4697 78.5454H163.47L197.97 77.0454M96.4697 78.5454C96.4697 80.0454 96.9697 81.0454 97.9697 82.5454M96.4697 78.5454H86.4697V82.5454H97.9697M197.97 77.0454L198.97 82.5454M197.97 77.0454H212.47L212.97 82.5454H198.97M198.97 82.5454H97.9697" stroke="black" stroke-width="0.5"/>
<path d="M96.4689 78.5454C91.9697 74.0454 88.9698 52.0454 92.9689 35.5454L164.97 31.5454C160.97 36.5454 159.97 70.5454 163.47 78.5454H96.4689Z" fill="#E56E90" stroke="black" stroke-width="0.5"/>
<path d="M228.47 30.5454L164.97 31.5454C160.97 36.5454 159.97 70.5454 163.47 78.5454L197.97 77.0454C202.47 75.5454 208.97 70.0454 228.47 30.5454Z" fill="#E56E90" stroke="black" stroke-width="0.5"/>
<path d="M170.47 30.0455C165.97 30.5455 162.47 30.5455 159.47 30.5455L164.97 8.04548C167.97 7.54541 170.97 7.54541 173.97 8.04548L170.47 30.0455Z" fill="#E56E90" stroke="black" stroke-width="0.5"/>
<path d="M98.9697 32.0457C103.47 37.5457 110.47 34.0457 114.47 32.5457C115.47 17.0455 102.47 25.0455 98.9697 32.0457Z" fill="#E56E90" stroke="black" stroke-width="0.5"/>
<path d="M234.468 9.54541L231.468 13.0454C248.468 18.5454 258.968 21.5454 271.468 28.0454H272.968L280.968 26.5454C265.968 20.0454 258.468 17.5454 234.468 9.54541Z" fill="#EDADBF" stroke="black" stroke-width="0.5"/>
<path d="M271.468 28.0454C260.968 22.5454 241.968 16.0454 231.468 13.0454L229.468 15.5454L244.468 23.0454C242.968 25.5454 238.968 27.5454 232.968 30.2454C244.968 29.5454 261.968 28.5454 271.468 28.0454Z" fill="#EDADBF" stroke="black" stroke-width="0.5"/>
<path d="M276.97 34.3454L282.968 32.0454L272.469 28.0454L228.469 30.5454C220.969 45.5454 205.969 76.0454 197.969 77.0454H212.469C210.969 66.0454 220.469 42.5454 245.47 51.5454C255.97 46.0454 265.97 40.5454 276.97 34.3454Z" fill="#EDADBF" stroke="black" stroke-width="0.5"/>
<path d="M277.968 34.0454C265.968 40.5454 255.968 46.0454 245.468 51.5454C249.968 54.5454 260.468 60.5454 259.468 79.5454L284.468 79.0454V77.5454C292.968 76.5454 301.468 80.0454 299.968 66.0454L301.968 56.0454C301.968 54.5454 299.468 50.5454 296.968 50.0454C298.468 47.5454 295.468 38.5454 295.468 38.5454V37.0454L291.468 34.0454L286.468 32.5454L282.968 32.0454L277.968 34.0454Z" fill="#EDADBF" stroke="black" stroke-width="0.5"/>
<path d="M280.968 26.5454L272.468 28.0454L282.968 32.0454C292.468 33.0454 291.467 34.5454 295.462 36.9656L294.968 28.5454L280.968 26.5454Z" fill="#EDADBF"/>
<path d="M295.468 37.0454L295.462 36.9656M295.462 36.9656L294.968 28.5454L280.968 26.5454L272.468 28.0454L282.968 32.0454C292.468 33.0454 291.467 34.5454 295.462 36.9656Z" stroke="black" stroke-width="0.5"/>
<path d="M293.97 36.5456C293.47 34.0455 282.47 33.8454 276.97 34.3454" stroke="black" stroke-width="0.5"/>
<path d="M299.97 66.5454L260.47 68.5454C259.97 63.5454 257.803 59.3787 255.97 57.5454L301.97 55.0454M300.47 52.5454C289.47 51.0454 278.47 46.2454 266.47 40.2454M228.47 30.5454L272.47 28.0454L280.97 26.5454" stroke="black" stroke-width="0.5"/>
<path d="M290.47 40.5454C290.47 38.5454 289.47 34.5454 285.97 32.5454C288.191 32.5454 291.567 33.5858 294.079 35.9554C294.542 37.4854 293.47 41.0454 290.428 42.5454C290.414 41.9551 290.47 41.2697 290.47 40.5454Z" fill="#EDADBF"/>
<path d="M272.47 43.0454C279.465 43.3952 285.482 43.5003 290.863 44.0454M297.47 45.0454C295.367 44.5948 293.173 44.2795 290.863 44.0454M295.47 37.5454C295.052 36.9603 294.583 36.4311 294.079 35.9554M290.863 44.0454C290.537 43.7006 290.443 43.1776 290.428 42.5454M290.428 42.5454C290.414 41.9551 290.47 41.2697 290.47 40.5454C290.47 38.5454 289.47 34.5454 285.97 32.5454C288.191 32.5454 291.567 33.5858 294.079 35.9554M290.428 42.5454C293.47 41.0454 294.542 37.4854 294.079 35.9554" stroke="black" stroke-width="0.5"/>
<path d="M290.47 40.5454C285.97 40.5454 283.97 36.5454 282.97 34.0454" stroke="black" stroke-width="0.5"/>
<path d="M132.468 12.6454C118.968 16.6454 106.968 22.5454 92.9678 35.5454C99.9678 23.5454 115.468 14.0454 130.968 9.04541L132.468 12.6454Z" fill="#EDADBF" stroke="black" stroke-width="0.5"/>
<path d="M130.968 9.04541C110.968 14.7194 92.9678 32.0454 84.9678 30.0454C97.9678 20.5454 113.968 12.0454 130.468 7.54541L130.968 9.04541Z" fill="#EDADBF" stroke="black" stroke-width="0.5"/>
<path d="M9.96844 48.0453H3.96844C1.46777 52.0453 1.46777 62.0453 1.96844 65.5453C0.467773 66.5453 0.468371 71.0453 1.46844 72.5453L5.46844 73.0453V74.5453L1.46844 76.5453V78.5453C5.46844 79.5453 13.9684 81.5453 21.9684 81.0453V79.5453H39.4684C38.8018 71.0453 40.4684 60.5453 49.4684 53.5453C46.9684 49.5453 39.9684 45.0453 36.9684 44.5453C26.9684 43.5453 11.9684 46.0453 9.96844 48.0453Z" fill="#EDADBF" stroke="black" stroke-width="0.5"/>
<path d="M92.9697 35.5454C75.1364 36.3787 43.4697 41.2454 32.9697 44.2454L36.9697 44.5454C41.9697 46.0454 47.4697 50.3787 49.4697 53.5454C62.4688 44.0454 87.9688 51.0454 86.4688 78.5454H96.4688C89.4688 67.5454 90.4688 45.5454 92.9697 35.5454Z" fill="#EDADBF" stroke="black" stroke-width="0.5"/>
<path d="M9.96777 48.0455H3.96777C36.468 28.5454 58.468 34.5454 84.4678 30.0454L93.468 35.5454C76.468 36.5454 47.4678 40.0454 33.4678 44.2454C25.4678 44.0454 11.4678 46.0454 9.96777 48.0455Z" fill="#EDADBF" stroke="black" stroke-width="0.5"/>
<path d="M36.9692 44.5455C29.4692 43.5454 12.4692 45.5454 9.96923 48.0455C9.16923 50.4454 12.3026 53.3787 13.9692 54.5454C23.4692 56.0454 36.9692 50.0454 36.9692 44.5455Z" fill="#EDADBF" stroke="black" stroke-width="0.5"/>
<path d="M3.96847 48.0454C10.9685 49.0454 4.96847 59.5454 1.96847 64.5454C1.4684 57.5454 1.96826 52.0454 3.96847 48.0454Z" fill="#EDADBF" stroke="black" stroke-width="0.5"/>
<path d="M21.9678 84.0454V79.5454H39.4678L39.9678 84.0454H21.9678Z" fill="#EDADBF" stroke="black" stroke-width="0.5"/>
<path d="M2.46973 65.5454C3.96973 68.0454 5.96973 71.2121 5.46973 73.0454M21.9697 79.5454C11.4697 80.0454 6.96973 76.0454 7.96973 72.5454C8.46973 72.0454 9.96973 70.5454 10.9697 70.5454" stroke="black" stroke-width="0.5"/>
<path d="M31.9697 74.5455C29.4697 70.5455 23.9697 65.5456 20.9697 64.0456C19.2197 63.5456 16.5946 63.6706 13.8445 64.0456C12.2196 65.3789 10.9697 68.5455 11.4697 71.5455C11.4697 72.7122 12.7771 75.0455 15.4697 75.0455C19.9697 75.0455 26.9697 75.5455 31.9697 74.5455Z" fill="#EDADBF"/>
<path d="M5.96973 65.5456C8.21967 65.0456 11.0946 64.4206 13.8445 64.0456M13.8445 64.0456C16.5946 63.6706 19.2197 63.5456 20.9697 64.0456C23.9697 65.5456 29.4697 70.5455 31.9697 74.5455C26.9697 75.5455 19.9697 75.0455 15.4697 75.0455C12.7771 75.0455 11.4697 72.7122 11.4697 71.5455C10.9697 68.5455 12.2196 65.3789 13.8445 64.0456Z" stroke="black" stroke-width="0.5"/>
<path d="M11.4697 71.0456C19.4697 69.5457 22.9697 72.1741 25.9697 73.6741M12.9697 74.0457L30.4697 73.5457" stroke="black" stroke-width="0.5"/>
<path d="M21.9678 82.5454H31.4678C33.4678 82.5454 34.9678 80.5454 34.4678 79.5454M37.9678 79.5454V84.0454" stroke="black" stroke-width="0.5"/>
<path d="M21.9697 81.0457C17.4697 81.0457 12.9697 81.5457 1.46967 78.5457V76.5457L5.46967 74.5456V73.0457L1.46967 72.5457C0.96875 71.0454 -0.0310541 68.0454 1.96894 65.5454C1.46918 57.5454 1.96918 51.0454 3.96967 48.0452C36.4697 28.5455 58.4697 34.5456 84.4697 30.0456C162.47 -24.9545 244.47 12.0454 281.47 26.5456L294.97 28.5454L295.47 35.5454V38.5454C296.968 43.5454 298.303 48.0454 296.97 50.0454C299.47 51.0454 301.97 54.2121 301.97 56.0454L299.97 66.0454C300.422 76.8933 298.013 77.1176 288.682 77.43C287.691 77.4632 285.622 77.4974 284.47 77.5454V79.0454L259.47 79.4764M21.9697 81.0457V84.0457H39.968L39.4697 79.5457M21.9697 81.0457V79.5457H39.4697M39.4697 79.5457C36.4697 38.0457 89.9697 41.0457 86.4697 80.0457V82.5454H212.97C206.97 39.0454 261.47 39.0454 259.47 79.4764M258.968 79.4764H259.47" stroke="black"/>
</svg>
