<svg width="303" height="95" viewBox="0 0 303 95" fill="none" xmlns="http://www.w3.org/2000/svg">
<circle cx="62.8652" cy="73.8762" r="20.5" fill="#EFC7D3" stroke="black"/>
<circle cx="235.865" cy="73.8762" r="20.5" fill="#EFC7D3" stroke="black"/>
<path d="M132.863 12.3761L131.363 8.87608C171.363 0.876188 192.863 1.37622 231.863 12.8762L228.363 17.3762C208.363 9.37613 190.363 8.37613 174.363 7.8762C171.863 7.3762 167.863 7.37616 165.363 7.87608C155.363 7.8762 143.363 9.3762 132.863 12.3761Z" fill="#E56E90" stroke="black" stroke-width="0.5"/>
<path d="M131.363 8.87627L130.863 7.37626C166.863 -3.62378 199.363 0.376095 234.863 9.37627L231.863 12.8763C191.863 0.376221 165.863 1.87622 131.363 8.87627Z" fill="#E56E90" stroke="black" stroke-width="0.5"/>
<path d="M131.363 8.87609C182.863 -2.62394 211.363 7.3761 231.863 12.8761" stroke="black" stroke-width="0.5"/>
<path d="M170.865 29.8762L174.365 7.87622C207.865 8.87622 219.365 14.3762 223.865 15.8762L226.348 27.8762C199.358 27.8769 181.863 29.3763 170.865 29.8762Z" fill="#E56E90"/>
<path d="M226.865 30.3762L223.865 15.8762C219.365 14.3762 207.865 8.87622 174.365 7.87622L170.865 29.8762C181.865 29.3762 199.365 27.8762 226.365 27.8762" stroke="black" stroke-width="0.5"/>
<path d="M165.365 7.87622C132.365 8.87622 112.365 17.8762 93.3652 35.3762L95.8652 33.3762L159.865 30.3762L165.365 7.87622Z" fill="#E56E90" stroke="black" stroke-width="0.5"/>
<path d="M239.863 22.3762C236.197 19.7096 230.363 17.3762 223.863 15.8762L226.363 27.8762H232.863C235.863 26.3762 238.863 24.145 239.863 22.3762Z" fill="#E56E90" stroke="black" stroke-width="0.5"/>
<path d="M96.8652 78.3762H163.865L198.365 76.8762H212.865L213.365 82.3762H199.365H98.3652H86.8652V78.3762H96.8652Z" fill="#E56E90"/>
<path d="M96.8652 78.3762H163.865L198.365 76.8762M96.8652 78.3762C96.8652 79.8762 97.3652 80.8762 98.3652 82.3762M96.8652 78.3762H86.8652V82.3762H98.3652M198.365 76.8762L199.365 82.3762M198.365 76.8762H212.865L213.365 82.3762H199.365M199.365 82.3762H98.3652" stroke="black" stroke-width="0.5"/>
<path d="M96.8644 78.3762C92.3652 73.8762 89.3653 51.8762 93.3644 35.3762L165.365 31.3762C161.365 36.3762 160.365 70.3762 163.865 78.3762H96.8644Z" fill="#E56E90" stroke="black" stroke-width="0.5"/>
<path d="M228.865 30.3762L165.365 31.3762C161.365 36.3762 160.365 70.3762 163.865 78.3762L198.365 76.8762C202.865 75.3762 209.365 69.8762 228.865 30.3762Z" fill="#E56E90" stroke="black" stroke-width="0.5"/>
<path d="M170.865 29.8763C166.365 30.3763 162.865 30.3763 159.865 30.3763L165.365 7.87629C168.365 7.37622 171.365 7.37622 174.365 7.87629L170.865 29.8763Z" fill="#E56E90" stroke="black" stroke-width="0.5"/>
<path d="M99.3652 31.8762C103.865 37.3762 110.865 33.8762 114.865 32.3762C115.865 16.8761 102.865 24.8761 99.3652 31.8762Z" fill="#E56E90" stroke="black" stroke-width="0.5"/>
<path d="M234.863 9.37622L231.863 12.8762C248.863 18.3762 259.363 21.3762 271.863 27.8762H273.363L281.363 26.3762C266.363 19.8762 258.863 17.3762 234.863 9.37622Z" fill="#E56E90" stroke="black" stroke-width="0.5"/>
<path d="M271.863 27.8762C261.363 22.3762 242.363 15.8762 231.863 12.8762L229.863 15.3762L244.863 22.8762C243.363 25.3762 239.363 27.3762 233.363 30.0762C245.363 29.3762 262.363 28.3762 271.863 27.8762Z" fill="#E56E90" stroke="black" stroke-width="0.5"/>
<path d="M277.365 34.1762L283.364 31.8762L272.864 27.8762L228.864 30.3762C221.364 45.3762 206.364 75.8762 198.364 76.8762H212.864C211.364 65.8762 220.864 42.3762 245.865 51.3762C256.365 45.8762 266.365 40.3762 277.365 34.1762Z" fill="#E56E90" stroke="black" stroke-width="0.5"/>
<path d="M278.363 33.8762C266.363 40.3762 256.363 45.8762 245.863 51.3762C250.363 54.3762 260.863 60.3762 259.863 79.3762L284.863 78.8762V77.3762C293.363 76.3762 301.863 79.8762 300.363 65.8762L302.363 55.8762C302.363 54.3762 299.863 50.3762 297.363 49.8762C298.863 47.3762 295.863 38.3762 295.863 38.3762V36.8762L291.863 33.8762L286.863 32.3762L283.363 31.8762L278.363 33.8762Z" fill="#E56E90" stroke="black" stroke-width="0.5"/>
<path d="M281.363 26.3762L272.863 27.8762L283.363 31.8762C292.863 32.8762 291.862 34.3762 295.857 36.7964L295.363 28.3762L281.363 26.3762Z" fill="#E56E90"/>
<path d="M295.863 36.8762L295.857 36.7964M295.857 36.7964L295.363 28.3762L281.363 26.3762L272.863 27.8762L283.363 31.8762C292.863 32.8762 291.862 34.3762 295.857 36.7964Z" stroke="black" stroke-width="0.5"/>
<path d="M294.365 36.3764C293.865 33.8763 282.865 33.6762 277.365 34.1762" stroke="black" stroke-width="0.5"/>
<path d="M300.365 66.3762L260.865 68.3762C260.365 63.3762 258.199 59.2096 256.365 57.3762L302.365 54.8762M300.865 52.3762C289.865 50.8762 278.865 46.0762 266.865 40.0762M228.865 30.3762L272.865 27.8762L281.365 26.3762" stroke="black" stroke-width="0.5"/>
<path d="M290.865 40.3762C290.865 38.3762 289.865 34.3762 286.365 32.3762C288.586 32.3762 291.963 33.4166 294.474 35.7862C294.938 37.3162 293.865 40.8762 290.823 42.3762C290.81 41.7859 290.865 41.1005 290.865 40.3762Z" fill="#E56E90"/>
<path d="M272.865 42.8762C279.861 43.226 285.878 43.3311 291.258 43.8762M297.865 44.8762C295.762 44.4256 293.569 44.1103 291.258 43.8762M295.865 37.3762C295.447 36.7911 294.978 36.2619 294.474 35.7862M291.258 43.8762C290.932 43.5315 290.838 43.0084 290.823 42.3762M290.823 42.3762C290.81 41.7859 290.865 41.1005 290.865 40.3762C290.865 38.3762 289.865 34.3762 286.365 32.3762C288.586 32.3762 291.963 33.4166 294.474 35.7862M290.823 42.3762C293.865 40.8762 294.938 37.3162 294.474 35.7862" stroke="black" stroke-width="0.5"/>
<path d="M290.865 40.3762C286.365 40.3762 284.365 36.3762 283.365 33.8762" stroke="black" stroke-width="0.5"/>
<path d="M132.863 12.4762C119.363 16.4762 107.363 22.3762 93.3633 35.3762C100.363 23.3762 115.863 13.8762 131.363 8.87622L132.863 12.4762Z" fill="#EFC7D3" stroke="black" stroke-width="0.5"/>
<path d="M131.363 8.87622C111.363 14.5503 93.3633 31.8762 85.3633 29.8762C98.3633 20.3762 114.363 11.8762 130.863 7.37622L131.363 8.87622Z" fill="#EFC7D3" stroke="black" stroke-width="0.5"/>
<path d="M10.3639 47.8761H4.36395C1.86328 51.8761 1.86328 61.8761 2.36395 65.3761C0.863281 66.3761 0.863879 70.8761 1.86395 72.3761L5.86395 72.8761V74.3761L1.86395 76.3761V78.3761C5.86395 79.3761 14.3639 81.3761 22.3639 80.8761V79.3761H39.8639C39.1973 70.8761 40.8639 60.3761 49.8639 53.3761C47.3639 49.3761 40.3639 44.8761 37.3639 44.3761C27.3639 43.3761 12.3639 45.8761 10.3639 47.8761Z" fill="#EFC7D3" stroke="black" stroke-width="0.5"/>
<path d="M93.3652 35.3762C75.5319 36.2096 43.8652 41.0762 33.3652 44.0762L37.3652 44.3762C42.3652 45.8762 47.8652 50.2096 49.8652 53.3762C62.8643 43.8762 88.3643 50.8762 86.8643 78.3762H96.8643C89.8643 67.3762 90.8643 45.3762 93.3652 35.3762Z" fill="#EFC7D3" stroke="black" stroke-width="0.5"/>
<path d="M10.3633 47.8763H4.36328C36.8635 28.3762 58.8635 34.3762 84.8633 29.8762L93.8635 35.3762C76.8635 36.3762 47.8633 39.8762 33.8633 44.0762C25.8633 43.8762 11.8633 45.8762 10.3633 47.8763Z" fill="#EFC7D3" stroke="black" stroke-width="0.5"/>
<path d="M37.3647 44.3763C29.8647 43.3762 12.8647 45.3762 10.3647 47.8763C9.56474 50.2762 12.6981 53.2096 14.3647 54.3762C23.8647 55.8762 37.3647 49.8762 37.3647 44.3763Z" fill="#EFC7D3" stroke="black" stroke-width="0.5"/>
<path d="M4.36398 47.8762C11.364 48.8762 5.36398 59.3762 2.36398 64.3762C1.86391 57.3762 2.36377 51.8762 4.36398 47.8762Z" fill="#EFC7D3" stroke="black" stroke-width="0.5"/>
<path d="M22.3633 83.8762V79.3762H39.8633L40.3633 83.8762H22.3633Z" fill="#EFC7D3" stroke="black" stroke-width="0.5"/>
<path d="M2.86523 65.376C4.36523 67.876 6.36523 71.0426 5.86523 72.876M22.3652 79.376C11.8652 79.876 7.36523 75.876 8.36523 72.376C8.86523 71.876 10.3652 70.376 11.3652 70.376" stroke="black" stroke-width="0.5"/>
<path d="M32.3652 74.3761C29.8652 70.3761 24.3652 65.3762 21.3652 63.8762C19.6152 63.3762 16.9901 63.5012 14.24 63.8762C12.6151 65.2095 11.3652 68.3761 11.8652 71.3761C11.8652 72.5428 13.1727 74.8761 15.8652 74.8761C20.3652 74.8761 27.3652 75.3761 32.3652 74.3761Z" fill="#EFC7D3"/>
<path d="M6.36523 65.3762C8.61518 64.8762 11.4901 64.2512 14.24 63.8762M14.24 63.8762C16.9901 63.5012 19.6152 63.3762 21.3652 63.8762C24.3652 65.3762 29.8652 70.3761 32.3652 74.3761C27.3652 75.3761 20.3652 74.8761 15.8652 74.8761C13.1727 74.8761 11.8652 72.5428 11.8652 71.3761C11.3652 68.3761 12.6151 65.2095 14.24 63.8762Z" stroke="black" stroke-width="0.5"/>
<path d="M11.8652 70.8762C19.8652 69.3762 23.3652 72.0047 26.3652 73.5047M13.3652 73.8762L30.8652 73.3762" stroke="black" stroke-width="0.5"/>
<path d="M22.3633 82.376H31.8633C33.8633 82.376 35.3633 80.376 34.8633 79.376M38.3633 79.376V83.876" stroke="black" stroke-width="0.5"/>
<path d="M22.3652 80.8765C17.8652 80.8765 13.3652 81.3765 1.86518 78.3765V76.3765L5.86518 74.3765V72.8765L1.86518 72.3765C1.36426 70.8762 0.364454 67.8762 2.36445 65.3762C1.86469 57.3762 2.36469 50.8762 4.36518 47.876C36.8652 28.3764 58.8652 34.3764 84.8652 29.8764C162.865 -25.1237 244.865 11.8762 281.865 26.3764L295.365 28.3762L295.865 35.3762V38.3762C297.364 43.3762 298.699 47.8762 297.365 49.8762C299.865 50.8762 302.365 54.0429 302.365 55.8762L300.365 65.8762C300.817 76.7241 298.409 76.9484 289.077 77.2609C288.086 77.294 286.017 77.3282 284.865 77.3762V78.8762L259.865 79.3073M22.3652 80.8765V83.8765H40.3635L39.8652 79.3765M22.3652 80.8765V79.3765H39.8652M39.8652 79.3765C36.8652 37.8765 90.3652 40.8765 86.8652 79.8765V82.3762H213.365C207.365 38.8762 261.865 38.8762 259.865 79.3073M259.364 79.3073H259.865" stroke="black"/>
</svg>
