<svg width="303" height="96" viewBox="0 0 303 96" fill="none" xmlns="http://www.w3.org/2000/svg">
<circle cx="62.667" cy="74.1995" r="20.5" stroke="black"/>
<circle cx="235.667" cy="74.1995" r="20.5" stroke="black"/>
<path d="M132.665 12.6993L131.165 9.19932C171.165 1.19943 192.665 1.69946 231.665 13.1994L228.165 17.6994C208.165 9.69937 190.165 8.69937 174.165 8.19944C171.665 7.69944 167.665 7.6994 165.165 8.19932C155.165 8.19944 143.165 9.69944 132.665 12.6993Z" fill="#EDADBF" stroke="black" stroke-width="0.5"/>
<path d="M131.165 9.19951L130.665 7.69951C166.665 -3.30054 199.165 0.699337 234.665 9.69951L231.665 13.1995C191.665 0.699463 165.665 2.19946 131.165 9.19951Z" fill="#EDADBF" stroke="black" stroke-width="0.5"/>
<path d="M131.165 9.19933C182.665 -2.3007 211.165 7.69934 231.665 13.1993" stroke="black" stroke-width="0.5"/>
<path d="M170.667 30.1995L174.167 8.19946C207.667 9.19946 219.167 14.6995 223.667 16.1995L226.15 28.1995C199.16 28.2001 181.665 29.6996 170.667 30.1995Z" fill="#EDADBF"/>
<path d="M226.667 30.6995L223.667 16.1995C219.167 14.6995 207.667 9.19946 174.167 8.19946L170.667 30.1995C181.667 29.6995 199.167 28.1995 226.167 28.1995" stroke="black" stroke-width="0.5"/>
<path d="M165.167 8.19946C132.167 9.19946 112.167 18.1995 93.167 35.6995L95.667 33.6995L159.667 30.6995L165.167 8.19946Z" fill="#EDADBF" stroke="black" stroke-width="0.5"/>
<path d="M239.665 22.6995C235.998 20.0328 230.165 17.6995 223.665 16.1995L226.165 28.1995H232.665C235.665 26.6995 238.665 24.4682 239.665 22.6995Z" fill="#EDADBF" stroke="black" stroke-width="0.5"/>
<path d="M96.667 78.6995H163.667L198.167 77.1995H212.667L213.167 82.6995H199.167H98.167H86.667V78.6995H96.667Z" fill="#EDADBF"/>
<path d="M96.667 78.6995H163.667L198.167 77.1995M96.667 78.6995C96.667 80.1995 97.167 81.1995 98.167 82.6995M96.667 78.6995H86.667V82.6995H98.167M198.167 77.1995L199.167 82.6995M198.167 77.1995H212.667L213.167 82.6995H199.167M199.167 82.6995H98.167" stroke="black" stroke-width="0.5"/>
<path d="M96.6661 78.6995C92.167 74.1995 89.167 52.1995 93.1661 35.6995L165.167 31.6995C161.167 36.6995 160.167 70.6995 163.667 78.6995H96.6661Z" fill="#EDADBF" stroke="black" stroke-width="0.5"/>
<path d="M228.667 30.6995L165.167 31.6995C161.167 36.6995 160.167 70.6995 163.667 78.6995L198.167 77.1995C202.667 75.6995 209.167 70.1995 228.667 30.6995Z" fill="#EDADBF" stroke="black" stroke-width="0.5"/>
<path d="M170.667 30.1995C166.167 30.6995 162.667 30.6995 159.667 30.6995L165.167 8.19954C168.167 7.69946 171.167 7.69946 174.167 8.19954L170.667 30.1995Z" fill="#EDADBF" stroke="black" stroke-width="0.5"/>
<path d="M99.167 32.1995C103.667 37.6995 110.667 34.1995 114.667 32.6995C115.667 17.1994 102.667 25.1993 99.167 32.1995Z" fill="#EDADBF" stroke="black" stroke-width="0.5"/>
<path d="M234.665 9.69946L231.665 13.1995C248.665 18.6995 259.165 21.6995 271.665 28.1995H273.165L281.165 26.6995C266.165 20.1995 258.665 17.6995 234.665 9.69946Z" fill="#E56E90" stroke="black" stroke-width="0.5"/>
<path d="M271.665 28.1995C261.165 22.6995 242.165 16.1995 231.665 13.1995L229.665 15.6995L244.665 23.1995C243.165 25.6995 239.165 27.6995 233.165 30.3995C245.165 29.6995 262.165 28.6995 271.665 28.1995Z" fill="#E56E90" stroke="black" stroke-width="0.5"/>
<path d="M277.167 34.4995L283.165 32.1995L272.666 28.1995L228.666 30.6995C221.166 45.6995 206.166 76.1995 198.166 77.1995H212.666C211.166 66.1995 220.666 42.6995 245.667 51.6995C256.167 46.1995 266.167 40.6995 277.167 34.4995Z" fill="#E56E90" stroke="black" stroke-width="0.5"/>
<path d="M278.165 34.1995C266.165 40.6995 256.165 46.1995 245.665 51.6995C250.165 54.6995 260.665 60.6995 259.665 79.6995L284.665 79.1995V77.6995C293.165 76.6995 301.665 80.1995 300.165 66.1995L302.165 56.1995C302.165 54.6995 299.665 50.6995 297.165 50.1995C298.665 47.6995 295.665 38.6995 295.665 38.6995V37.1995L291.665 34.1995L286.665 32.6995L283.165 32.1995L278.165 34.1995Z" fill="#E56E90" stroke="black" stroke-width="0.5"/>
<path d="M281.165 26.6995L272.665 28.1995L283.165 32.1995C292.665 33.1995 291.664 34.6995 295.659 37.1196L295.165 28.6995L281.165 26.6995Z" fill="#E56E90"/>
<path d="M295.665 37.1995L295.659 37.1196M295.659 37.1196L295.165 28.6995L281.165 26.6995L272.665 28.1995L283.165 32.1995C292.665 33.1995 291.664 34.6995 295.659 37.1196Z" stroke="black" stroke-width="0.5"/>
<path d="M294.167 36.6997C293.667 34.1996 282.667 33.9995 277.167 34.4995" stroke="black" stroke-width="0.5"/>
<path d="M300.167 66.6995L260.667 68.6995C260.167 63.6995 258 59.5328 256.167 57.6995L302.167 55.1995M300.667 52.6995C289.667 51.1995 278.667 46.3995 266.667 40.3995M228.667 30.6995L272.667 28.1995L281.167 26.6995" stroke="black" stroke-width="0.5"/>
<path d="M290.667 40.6995C290.667 38.6995 289.667 34.6995 286.167 32.6995C288.388 32.6995 291.765 33.7399 294.276 36.1094C294.74 37.6395 293.667 41.1995 290.625 42.6995C290.612 42.1092 290.667 41.4238 290.667 40.6995Z" fill="#E56E90"/>
<path d="M272.667 43.1995C279.663 43.5492 285.68 43.6543 291.06 44.1995M297.667 45.1995C295.564 44.7488 293.371 44.4336 291.06 44.1995M295.667 37.6995C295.249 37.1143 294.78 36.5851 294.276 36.1094M291.06 44.1995C290.734 43.8547 290.64 43.3317 290.625 42.6995M290.625 42.6995C290.612 42.1092 290.667 41.4238 290.667 40.6995C290.667 38.6995 289.667 34.6995 286.167 32.6995C288.388 32.6995 291.765 33.7399 294.276 36.1094M290.625 42.6995C293.667 41.1995 294.74 37.6395 294.276 36.1094" stroke="black" stroke-width="0.5"/>
<path d="M290.667 40.6995C286.167 40.6995 284.167 36.6995 283.167 34.1995" stroke="black" stroke-width="0.5"/>
<path d="M132.665 12.7994C119.165 16.7994 107.165 22.6995 93.165 35.6995C100.165 23.6995 115.665 14.1995 131.165 9.19946L132.665 12.7994Z" fill="#EDADBF" stroke="black" stroke-width="0.5"/>
<path d="M131.165 9.19946C111.165 14.8735 93.165 32.1995 85.165 30.1995C98.165 20.6995 114.165 12.1995 130.665 7.69946L131.165 9.19946Z" fill="#EDADBF" stroke="black" stroke-width="0.5"/>
<path d="M10.1657 48.1993H4.16571C1.66504 52.1993 1.66504 62.1993 2.16571 65.6993C0.665039 66.6993 0.665637 71.1993 1.66571 72.6993L5.66571 73.1993V74.6993L1.66571 76.6993V78.6993C5.66571 79.6993 14.1657 81.6993 22.1657 81.1993V79.6993H39.6657C38.999 71.1993 40.6657 60.6993 49.6657 53.6993C47.1657 49.6993 40.1657 45.1993 37.1657 44.6993C27.1657 43.6993 12.1657 46.1993 10.1657 48.1993Z" fill="#EDADBF" stroke="black" stroke-width="0.5"/>
<path d="M93.167 35.6995C75.3337 36.5328 43.667 41.3995 33.167 44.3995L37.167 44.6995C42.167 46.1995 47.667 50.5328 49.667 53.6995C62.666 44.1995 88.166 51.1995 86.666 78.6995H96.666C89.666 67.6995 90.666 45.6995 93.167 35.6995Z" fill="#EDADBF" stroke="black" stroke-width="0.5"/>
<path d="M10.165 48.1995H4.16504C36.6652 28.6994 58.6653 34.6995 84.665 30.1995L93.6653 35.6995C76.6653 36.6995 47.665 40.1995 33.665 44.3995C25.665 44.1995 11.665 46.1995 10.165 48.1995Z" fill="#EDADBF" stroke="black" stroke-width="0.5"/>
<path d="M37.1665 44.6995C29.6665 43.6995 12.6665 45.6995 10.1665 48.1995C9.36649 50.5995 12.4998 53.5328 14.1665 54.6995C23.6665 56.1995 37.1665 50.1995 37.1665 44.6995Z" fill="#EDADBF" stroke="black" stroke-width="0.5"/>
<path d="M4.16573 48.1995C11.1657 49.1995 5.16573 59.6995 2.16573 64.6995C1.66566 57.6995 2.16553 52.1995 4.16573 48.1995Z" fill="#EDADBF" stroke="black" stroke-width="0.5"/>
<path d="M22.165 84.1995V79.6995H39.665L40.165 84.1995H22.165Z" fill="#EDADBF" stroke="black" stroke-width="0.5"/>
<path d="M2.66699 65.6992C4.16699 68.1992 6.16699 71.3659 5.66699 73.1992M22.167 79.6992C11.667 80.1992 7.16699 76.1992 8.16699 72.6992C8.66699 72.1992 10.167 70.6992 11.167 70.6992" stroke="black" stroke-width="0.5"/>
<path d="M32.167 74.6993C29.667 70.6993 24.167 65.6994 21.167 64.1994C19.4169 63.6994 16.7919 63.8244 14.0418 64.1994C12.4169 65.5327 11.167 68.6993 11.667 71.6993C11.667 72.866 12.9744 75.1993 15.667 75.1993C20.167 75.1993 27.167 75.6993 32.167 74.6993Z" fill="#EDADBF"/>
<path d="M6.16699 65.6994C8.41693 65.1994 11.2918 64.5744 14.0418 64.1994M14.0418 64.1994C16.7919 63.8244 19.4169 63.6994 21.167 64.1994C24.167 65.6994 29.667 70.6993 32.167 74.6993C27.167 75.6993 20.167 75.1993 15.667 75.1993C12.9744 75.1993 11.667 72.866 11.667 71.6993C11.167 68.6993 12.4168 65.5327 14.0418 64.1994Z" stroke="black" stroke-width="0.5"/>
<path d="M11.667 71.1994C19.667 69.6995 23.167 72.3279 26.167 73.8279M13.167 74.1995L30.667 73.6995" stroke="black" stroke-width="0.5"/>
<path d="M22.165 82.6992H31.665C33.665 82.6992 35.165 80.6992 34.665 79.6992M38.165 79.6992V84.1992" stroke="black" stroke-width="0.5"/>
<path d="M22.1669 81.1997C17.6669 81.1997 13.1669 81.6997 1.66694 78.6997V76.6997L5.66694 74.6997V73.1997L1.66694 72.6997C1.16602 71.1995 0.166211 68.1995 2.16621 65.6995C1.66645 57.6995 2.16645 51.1995 4.16694 48.1992C36.6669 28.6996 58.6669 34.6997 84.6669 30.1997C162.667 -24.8005 244.667 12.1994 281.667 26.6996L295.167 28.6995L295.667 35.6995V38.6995C297.165 43.6995 298.5 48.1995 297.167 50.1995C299.667 51.1995 302.167 54.3661 302.167 56.1995L300.167 66.1995C300.619 77.0474 298.211 77.2717 288.879 77.5841C287.888 77.6173 285.819 77.6515 284.667 77.6995V79.1995L259.667 79.6305M22.1669 81.1997V84.1997H40.1653L39.6669 79.6997M22.1669 81.1997V79.6997H39.6669M39.6669 79.6997C36.6669 38.1997 90.1669 41.1997 86.6669 80.1997V82.6995H213.167C207.167 39.1995 261.667 39.1995 259.667 79.6305M259.165 79.6305H259.667" stroke="black"/>
</svg>
