<svg width="303" height="96" viewBox="0 0 303 96" fill="none" xmlns="http://www.w3.org/2000/svg">
<circle cx="62.667" cy="74.3535" r="20.5" stroke="black"/>
<circle cx="235.667" cy="74.3535" r="20.5" stroke="black"/>
<path d="M132.665 12.8534L131.165 9.35337C171.165 1.35348 192.665 1.85352 231.665 13.3535L228.165 17.8535C208.165 9.85343 190.165 8.85342 174.165 8.35349C171.665 7.85349 167.665 7.85345 165.165 8.35337C155.165 8.35349 143.165 9.85349 132.665 12.8534Z" fill="#EFC7D3" stroke="black" stroke-width="0.5"/>
<path d="M131.165 9.35356L130.665 7.85356C166.665 -3.14648 199.165 0.85339 234.665 9.85356L231.665 13.3536C191.665 0.853516 165.665 2.35352 131.165 9.35356Z" fill="#EFC7D3" stroke="black" stroke-width="0.5"/>
<path d="M131.165 9.3535C182.665 -2.14652 211.165 7.85352 231.665 13.3535" stroke="black" stroke-width="0.5"/>
<path d="M170.667 30.3535L174.167 8.35352C207.667 9.35352 219.167 14.8535 223.667 16.3535L226.15 28.3535C199.16 28.3542 181.665 29.8536 170.667 30.3535Z" fill="#EFC7D3"/>
<path d="M226.667 30.8535L223.667 16.3535C219.167 14.8535 207.667 9.35352 174.167 8.35352L170.667 30.3535C181.667 29.8535 199.167 28.3535 226.167 28.3535" stroke="black" stroke-width="0.5"/>
<path d="M165.167 8.35352C132.167 9.35352 112.167 18.3535 93.167 35.8535L95.667 33.8535L159.667 30.8535L165.167 8.35352Z" fill="#EFC7D3" stroke="black" stroke-width="0.5"/>
<path d="M239.665 22.8535C235.998 20.1868 230.165 17.8535 223.665 16.3535L226.165 28.3535H232.665C235.665 26.8535 238.665 24.6223 239.665 22.8535Z" fill="#EFC7D3" stroke="black" stroke-width="0.5"/>
<path d="M96.667 78.8535H163.667L198.167 77.3535H212.667L213.167 82.8535H199.167H98.167H86.667V78.8535H96.667Z" fill="#EFC7D3"/>
<path d="M96.667 78.8535H163.667L198.167 77.3535M96.667 78.8535C96.667 80.3535 97.167 81.3535 98.167 82.8535M96.667 78.8535H86.667V82.8535H98.167M198.167 77.3535L199.167 82.8535M198.167 77.3535H212.667L213.167 82.8535H199.167M199.167 82.8535H98.167" stroke="black" stroke-width="0.5"/>
<path d="M96.6661 78.8535C92.167 74.3535 89.167 52.3535 93.1661 35.8535L165.167 31.8535C161.167 36.8535 160.167 70.8535 163.667 78.8535H96.6661Z" fill="#EFC7D3" stroke="black" stroke-width="0.5"/>
<path d="M228.667 30.8535L165.167 31.8535C161.167 36.8535 160.167 70.8535 163.667 78.8535L198.167 77.3535C202.667 75.8535 209.167 70.3535 228.667 30.8535Z" fill="#EFC7D3" stroke="black" stroke-width="0.5"/>
<path d="M170.667 30.3536C166.167 30.8536 162.667 30.8536 159.667 30.8536L165.167 8.35359C168.167 7.85352 171.167 7.85352 174.167 8.35359L170.667 30.3536Z" fill="#EFC7D3" stroke="black" stroke-width="0.5"/>
<path d="M99.167 32.3537C103.667 37.8537 110.667 34.3537 114.667 32.8537C115.667 17.3535 102.667 25.3535 99.167 32.3537Z" fill="#EFC7D3" stroke="black" stroke-width="0.5"/>
<path d="M234.665 9.85352L231.665 13.3535C248.665 18.8535 259.165 21.8535 271.665 28.3535H273.165L281.165 26.8535C266.165 20.3535 258.665 17.8535 234.665 9.85352Z" fill="#E56E90" stroke="black" stroke-width="0.5"/>
<path d="M271.665 28.3535C261.165 22.8535 242.165 16.3535 231.665 13.3535L229.665 15.8535L244.665 23.3535C243.165 25.8535 239.165 27.8535 233.165 30.5535C245.165 29.8535 262.165 28.8535 271.665 28.3535Z" fill="#E56E90" stroke="black" stroke-width="0.5"/>
<path d="M277.167 34.6535L283.165 32.3535L272.666 28.3535L228.666 30.8535C221.166 45.8535 206.166 76.3535 198.166 77.3535H212.666C211.166 66.3535 220.666 42.8535 245.667 51.8535C256.167 46.3535 266.167 40.8535 277.167 34.6535Z" fill="#E56E90" stroke="black" stroke-width="0.5"/>
<path d="M278.165 34.3535C266.165 40.8535 256.165 46.3535 245.665 51.8535C250.165 54.8535 260.665 60.8535 259.665 79.8535L284.665 79.3535V77.8535C293.165 76.8535 301.665 80.3535 300.165 66.3535L302.165 56.3535C302.165 54.8535 299.665 50.8535 297.165 50.3535C298.665 47.8535 295.665 38.8535 295.665 38.8535V37.3535L291.665 34.3535L286.665 32.8535L283.165 32.3535L278.165 34.3535Z" fill="#E56E90" stroke="black" stroke-width="0.5"/>
<path d="M281.165 26.8535L272.665 28.3535L283.165 32.3535C292.665 33.3535 291.664 34.8535 295.659 37.2737L295.165 28.8535L281.165 26.8535Z" fill="#E56E90"/>
<path d="M295.665 37.3535L295.659 37.2737M295.659 37.2737L295.165 28.8535L281.165 26.8535L272.665 28.3535L283.165 32.3535C292.665 33.3535 291.664 34.8535 295.659 37.2737Z" stroke="black" stroke-width="0.5"/>
<path d="M294.167 36.8537C293.667 34.3536 282.667 34.1535 277.167 34.6535" stroke="black" stroke-width="0.5"/>
<path d="M300.167 66.8535L260.667 68.8535C260.167 63.8535 258 59.6868 256.167 57.8535L302.167 55.3535M300.667 52.8535C289.667 51.3535 278.667 46.5535 266.667 40.5535M228.667 30.8535L272.667 28.3535L281.167 26.8535" stroke="black" stroke-width="0.5"/>
<path d="M290.667 40.8535C290.667 38.8535 289.667 34.8535 286.167 32.8535C288.388 32.8535 291.765 33.8939 294.276 36.2635C294.74 37.7935 293.667 41.3535 290.625 42.8535C290.612 42.2632 290.667 41.5778 290.667 40.8535Z" fill="#E56E90"/>
<path d="M272.667 43.3535C279.663 43.7033 285.68 43.8084 291.06 44.3535M297.667 45.3535C295.564 44.9029 293.371 44.5876 291.06 44.3535M295.667 37.8535C295.249 37.2684 294.78 36.7392 294.276 36.2635M291.06 44.3535C290.734 44.0088 290.64 43.4857 290.625 42.8535M290.625 42.8535C290.612 42.2632 290.667 41.5778 290.667 40.8535C290.667 38.8535 289.667 34.8535 286.167 32.8535C288.388 32.8535 291.765 33.8939 294.276 36.2635M290.625 42.8535C293.667 41.3535 294.74 37.7935 294.276 36.2635" stroke="black" stroke-width="0.5"/>
<path d="M290.667 40.8535C286.167 40.8535 284.167 36.8535 283.167 34.3535" stroke="black" stroke-width="0.5"/>
<path d="M132.665 12.9535C119.165 16.9535 107.165 22.8535 93.165 35.8535C100.165 23.8535 115.665 14.3535 131.165 9.35352L132.665 12.9535Z" fill="#EDADBF" stroke="black" stroke-width="0.5"/>
<path d="M131.165 9.35352C111.165 15.0276 93.165 32.3535 85.165 30.3535C98.165 20.8535 114.165 12.3535 130.665 7.85352L131.165 9.35352Z" fill="#EDADBF" stroke="black" stroke-width="0.5"/>
<path d="M10.1657 48.3535H4.16571C1.66504 52.3535 1.66504 62.3535 2.16571 65.8535C0.665039 66.8535 0.665637 71.3535 1.66571 72.8535L5.66571 73.3535V74.8535L1.66571 76.8535V78.8535C5.66571 79.8535 14.1657 81.8535 22.1657 81.3535V79.8535H39.6657C38.999 71.3535 40.6657 60.8535 49.6657 53.8535C47.1657 49.8535 40.1657 45.3535 37.1657 44.8535C27.1657 43.8535 12.1657 46.3535 10.1657 48.3535Z" fill="#EDADBF" stroke="black" stroke-width="0.5"/>
<path d="M93.167 35.8535C75.3337 36.6868 43.667 41.5535 33.167 44.5535L37.167 44.8535C42.167 46.3535 47.667 50.6868 49.667 53.8535C62.666 44.3535 88.166 51.3535 86.666 78.8535H96.666C89.666 67.8535 90.666 45.8535 93.167 35.8535Z" fill="#EDADBF" stroke="black" stroke-width="0.5"/>
<path d="M10.165 48.3536H4.16504C36.6652 28.8535 58.6653 34.8535 84.665 30.3535L93.6653 35.8535C76.6653 36.8535 47.665 40.3535 33.665 44.5535C25.665 44.3535 11.665 46.3535 10.165 48.3536Z" fill="#EDADBF" stroke="black" stroke-width="0.5"/>
<path d="M37.1665 44.8536C29.6665 43.8535 12.6665 45.8535 10.1665 48.3536C9.36649 50.7535 12.4998 53.6868 14.1665 54.8535C23.6665 56.3535 37.1665 50.3535 37.1665 44.8536Z" fill="#EDADBF" stroke="black" stroke-width="0.5"/>
<path d="M4.16573 48.3535C11.1657 49.3535 5.16573 59.8535 2.16573 64.8535C1.66566 57.8535 2.16553 52.3535 4.16573 48.3535Z" fill="#EDADBF" stroke="black" stroke-width="0.5"/>
<path d="M22.165 84.3535V79.8535H39.665L40.165 84.3535H22.165Z" fill="#EDADBF" stroke="black" stroke-width="0.5"/>
<path d="M2.66699 65.8535C4.16699 68.3535 6.16699 71.5202 5.66699 73.3535M22.167 79.8535C11.667 80.3535 7.16699 76.3535 8.16699 72.8535C8.66699 72.3535 10.167 70.8535 11.167 70.8535" stroke="black" stroke-width="0.5"/>
<path d="M32.167 74.8535C29.667 70.8535 24.167 65.8536 21.167 64.3536C19.4169 63.8536 16.7919 63.9786 14.0418 64.3536C12.4169 65.6869 11.167 68.8535 11.667 71.8535C11.667 73.0202 12.9744 75.3535 15.667 75.3535C20.167 75.3535 27.167 75.8535 32.167 74.8535Z" fill="#EDADBF"/>
<path d="M6.16699 65.8536C8.41693 65.3536 11.2918 64.7286 14.0418 64.3536M14.0418 64.3536C16.7919 63.9786 19.4169 63.8536 21.167 64.3536C24.167 65.8536 29.667 70.8535 32.167 74.8535C27.167 75.8535 20.167 75.3535 15.667 75.3535C12.9744 75.3535 11.667 73.0202 11.667 71.8535C11.167 68.8535 12.4168 65.6869 14.0418 64.3536Z" stroke="black" stroke-width="0.5"/>
<path d="M11.667 71.3536C19.667 69.8536 23.167 72.4821 26.167 73.9821M13.167 74.3536L30.667 73.8536" stroke="black" stroke-width="0.5"/>
<path d="M22.165 82.8535H31.665C33.665 82.8535 35.165 80.8535 34.665 79.8535M38.165 79.8535V84.3535" stroke="black" stroke-width="0.5"/>
<path d="M22.1669 81.3538C17.6669 81.3538 13.1669 81.8538 1.66694 78.8538V76.8538L5.66694 74.8538V73.3538L1.66694 72.8538C1.16602 71.3535 0.166211 68.3535 2.16621 65.8535C1.66645 57.8535 2.16645 51.3535 4.16694 48.3533C36.6669 28.8537 58.6669 34.8537 84.6669 30.3537C162.667 -24.6464 244.667 12.3535 281.667 26.8537L295.167 28.8535L295.667 35.8535V38.8535C297.165 43.8535 298.5 48.3535 297.167 50.3535C299.667 51.3535 302.167 54.5202 302.167 56.3535L300.167 66.3535C300.619 77.2014 298.211 77.4257 288.879 77.7382C287.888 77.7713 285.819 77.8055 284.667 77.8535V79.3535L259.667 79.7846M22.1669 81.3538V84.3538H40.1653L39.6669 79.8538M22.1669 81.3538V79.8538H39.6669M39.6669 79.8538C36.6669 38.3538 90.1669 41.3538 86.6669 80.3538V82.8535H213.167C207.167 39.3535 261.667 39.3535 259.667 79.7846M259.165 79.7846H259.667" stroke="black"/>
</svg>
