<svg width="304" height="95" viewBox="0 0 304 95" fill="none" xmlns="http://www.w3.org/2000/svg">
<circle cx="63.0742" cy="73.6919" r="20.5" fill="#EDADBF" stroke="black"/>
<circle cx="236.074" cy="73.6919" r="20.5" fill="#EDADBF" stroke="black"/>
<path d="M133.072 12.1918L131.572 8.69175C171.572 0.691862 193.072 1.19189 232.072 12.6918L228.572 17.1918C208.572 9.1918 190.572 8.1918 174.572 7.69187C172.072 7.19187 168.072 7.19183 165.572 7.69175C155.572 7.69187 143.572 9.19187 133.072 12.1918Z" fill="#EFC7D3" stroke="black" stroke-width="0.5"/>
<path d="M131.572 8.69194L131.072 7.19194C167.072 -3.80811 199.572 0.191769 235.072 9.19194L232.072 12.6919C192.072 0.191895 166.072 1.69189 131.572 8.69194Z" fill="#EFC7D3" stroke="black" stroke-width="0.5"/>
<path d="M131.572 8.692C183.072 -2.80802 211.572 7.19202 232.072 12.692" stroke="black" stroke-width="0.5"/>
<path d="M171.074 29.6919L174.574 7.69189C208.074 8.69189 219.574 14.1919 224.074 15.6919L226.557 27.6919C199.567 27.6925 182.072 29.192 171.074 29.6919Z" fill="#EFC7D3"/>
<path d="M227.074 30.1919L224.074 15.6919C219.574 14.1919 208.074 8.69189 174.574 7.69189L171.074 29.6919C182.074 29.1919 199.574 27.6919 226.574 27.6919" stroke="black" stroke-width="0.5"/>
<path d="M165.574 7.69189C132.574 8.69189 112.574 17.6919 93.5742 35.1919L96.0742 33.1919L160.074 30.1919L165.574 7.69189Z" fill="#EFC7D3" stroke="black" stroke-width="0.5"/>
<path d="M240.072 22.1919C236.406 19.5252 230.572 17.1919 224.072 15.6919L226.572 27.6919H233.072C236.072 26.1919 239.072 23.9606 240.072 22.1919Z" fill="#EFC7D3" stroke="black" stroke-width="0.5"/>
<path d="M97.0742 78.1919H164.074L198.574 76.6919H213.074L213.574 82.1919H199.574H98.5742H87.0742V78.1919H97.0742Z" fill="#EFC7D3"/>
<path d="M97.0742 78.1919H164.074L198.574 76.6919M97.0742 78.1919C97.0742 79.6919 97.5742 80.6919 98.5742 82.1919M97.0742 78.1919H87.0742V82.1919H98.5742M198.574 76.6919L199.574 82.1919M198.574 76.6919H213.074L213.574 82.1919H199.574M199.574 82.1919H98.5742" stroke="black" stroke-width="0.5"/>
<path d="M97.0733 78.1919C92.5742 73.6919 89.5743 51.6919 93.5733 35.1919L165.574 31.1919C161.574 36.1919 160.574 70.1919 164.074 78.1919H97.0733Z" fill="#EFC7D3" stroke="black" stroke-width="0.5"/>
<path d="M229.074 30.1919L165.574 31.1919C161.574 36.1919 160.574 70.1919 164.074 78.1919L198.574 76.6919C203.074 75.1919 209.574 69.6919 229.074 30.1919Z" fill="#EFC7D3" stroke="black" stroke-width="0.5"/>
<path d="M171.074 29.692C166.574 30.192 163.074 30.192 160.074 30.192L165.574 7.69197C168.574 7.19189 171.574 7.19189 174.574 7.69197L171.074 29.692Z" fill="#EFC7D3" stroke="black" stroke-width="0.5"/>
<path d="M99.5742 31.6922C104.074 37.1922 111.074 33.6922 115.074 32.1922C116.074 16.692 103.074 24.692 99.5742 31.6922Z" fill="#EFC7D3" stroke="black" stroke-width="0.5"/>
<path d="M235.072 9.19189L232.072 12.6919C249.072 18.1919 259.572 21.1919 272.072 27.6919H273.572L281.572 26.1919C266.572 19.6919 259.072 17.1919 235.072 9.19189Z" fill="#EDADBF" stroke="black" stroke-width="0.5"/>
<path d="M272.072 27.6919C261.572 22.1919 242.572 15.6919 232.072 12.6919L230.072 15.1919L245.072 22.6919C243.572 25.1919 239.572 27.1919 233.572 29.8919C245.572 29.1919 262.572 28.1919 272.072 27.6919Z" fill="#EDADBF" stroke="black" stroke-width="0.5"/>
<path d="M277.574 33.9919L283.573 31.6919L273.073 27.6919L229.073 30.1919C221.573 45.1919 206.573 75.6919 198.573 76.6919H213.073C211.573 65.6919 221.073 42.1919 246.074 51.1919C256.574 45.6919 266.574 40.1919 277.574 33.9919Z" fill="#EDADBF" stroke="black" stroke-width="0.5"/>
<path d="M278.572 33.6919C266.572 40.1919 256.572 45.6919 246.072 51.1919C250.572 54.1919 261.072 60.1919 260.072 79.1919L285.072 78.6919V77.1919C293.572 76.1919 302.072 79.6919 300.572 65.6919L302.572 55.6919C302.572 54.1919 300.072 50.1919 297.572 49.6919C299.072 47.1919 296.072 38.1919 296.072 38.1919V36.6919L292.072 33.6919L287.072 32.1919L283.572 31.6919L278.572 33.6919Z" fill="#EDADBF" stroke="black" stroke-width="0.5"/>
<path d="M281.572 26.1919L273.072 27.6919L283.572 31.6919C293.072 32.6919 292.071 34.1919 296.066 36.6121L295.572 28.1919L281.572 26.1919Z" fill="#EDADBF"/>
<path d="M296.072 36.6919L296.066 36.6121M296.066 36.6121L295.572 28.1919L281.572 26.1919L273.072 27.6919L283.572 31.6919C293.072 32.6919 292.071 34.1919 296.066 36.6121Z" stroke="black" stroke-width="0.5"/>
<path d="M294.574 36.1921C294.074 33.692 283.074 33.4919 277.574 33.9919" stroke="black" stroke-width="0.5"/>
<path d="M300.574 66.1919L261.074 68.1919C260.574 63.1919 258.408 59.0252 256.574 57.1919L302.574 54.6919M301.074 52.1919C290.074 50.6919 279.074 45.8919 267.074 39.8919M229.074 30.1919L273.074 27.6919L281.574 26.1919" stroke="black" stroke-width="0.5"/>
<path d="M291.074 40.1919C291.074 38.1919 290.074 34.1919 286.574 32.1919C288.795 32.1919 292.172 33.2323 294.683 35.6019C295.147 37.1319 294.074 40.6919 291.032 42.1919C291.019 41.6016 291.074 40.9162 291.074 40.1919Z" fill="#EDADBF"/>
<path d="M273.074 42.6919C280.07 43.0417 286.087 43.1468 291.467 43.6919M298.074 44.6919C295.971 44.2413 293.778 43.926 291.467 43.6919M296.074 37.1919C295.656 36.6068 295.187 36.0775 294.683 35.6019M291.467 43.6919C291.141 43.3471 291.047 42.8241 291.032 42.1919M291.032 42.1919C291.019 41.6016 291.074 40.9162 291.074 40.1919C291.074 38.1919 290.074 34.1919 286.574 32.1919C288.795 32.1919 292.172 33.2323 294.683 35.6019M291.032 42.1919C294.074 40.6919 295.147 37.1319 294.683 35.6019" stroke="black" stroke-width="0.5"/>
<path d="M291.074 40.1919C286.574 40.1919 284.574 36.1919 283.574 33.6919" stroke="black" stroke-width="0.5"/>
<path d="M133.072 12.2919C119.572 16.2919 107.572 22.1919 93.5723 35.1919C100.572 23.1919 116.072 13.6919 131.572 8.69189L133.072 12.2919Z" fill="#E0426F" stroke="black" stroke-width="0.5"/>
<path d="M131.572 8.69189C111.572 14.3659 93.5723 31.6919 85.5723 29.6919C98.5723 20.1919 114.572 11.6919 131.072 7.19189L131.572 8.69189Z" fill="#E0426F" stroke="black" stroke-width="0.5"/>
<path d="M10.5729 47.6918H4.57293C2.07227 51.6918 2.07227 61.6918 2.57293 65.1918C1.07227 66.1918 1.07286 70.6918 2.07293 72.1918L6.07293 72.6918V74.1918L2.07293 76.1918V78.1918C6.07293 79.1918 14.5729 81.1918 22.5729 80.6918V79.1918H40.0729C39.4063 70.6918 41.0729 60.1918 50.0729 53.1918C47.5729 49.1918 40.5729 44.6918 37.5729 44.1918C27.5729 43.1918 12.5729 45.6918 10.5729 47.6918Z" fill="#E0426F" stroke="black" stroke-width="0.5"/>
<path d="M93.5742 35.1919C75.7409 36.0252 44.0742 40.8919 33.5742 43.8919L37.5742 44.1919C42.5742 45.6919 48.0742 50.0252 50.0742 53.1919C63.0732 43.6919 88.5732 50.6919 87.0732 78.1919H97.0732C90.0732 67.1919 91.0732 45.1919 93.5742 35.1919Z" fill="#E0426F" stroke="black" stroke-width="0.5"/>
<path d="M10.5723 47.6919H4.57227C37.0724 28.1918 59.0725 34.1919 85.0723 29.6919L94.0725 35.1919C77.0725 36.1919 48.0723 39.6919 34.0723 43.8919C26.0723 43.6919 12.0723 45.6919 10.5723 47.6919Z" fill="#E0426F" stroke="black" stroke-width="0.5"/>
<path d="M37.5737 44.192C30.0737 43.1919 13.0737 45.1919 10.5737 47.692C9.77372 50.0919 12.9071 53.0252 14.5737 54.1919C24.0737 55.6919 37.5737 49.6919 37.5737 44.192Z" fill="#E0426F" stroke="black" stroke-width="0.5"/>
<path d="M4.57296 47.6919C11.573 48.6919 5.57296 59.1919 2.57296 64.1919C2.07289 57.1919 2.57275 51.6919 4.57296 47.6919Z" fill="#E0426F" stroke="black" stroke-width="0.5"/>
<path d="M22.5723 83.6919V79.1919H40.0723L40.5723 83.6919H22.5723Z" fill="#E0426F" stroke="black" stroke-width="0.5"/>
<path d="M3.07422 65.1919C4.57422 67.6919 6.57422 70.8586 6.07422 72.6919M22.5742 79.1919C12.0742 79.6919 7.57422 75.6919 8.57422 72.1919C9.07422 71.6919 10.5742 70.1919 11.5742 70.1919" stroke="black" stroke-width="0.5"/>
<path d="M32.5742 74.192C30.0742 70.192 24.5742 65.1921 21.5742 63.6921C19.8242 63.1921 17.1991 63.3171 14.449 63.6921C12.8241 65.0254 11.5742 68.192 12.0742 71.192C12.0742 72.3587 13.3816 74.692 16.0742 74.692C20.5742 74.692 27.5742 75.192 32.5742 74.192Z" fill="#E0426F"/>
<path d="M6.57422 65.1921C8.82416 64.6921 11.6991 64.0671 14.449 63.6921M14.449 63.6921C17.1991 63.3171 19.8242 63.1921 21.5742 63.6921C24.5742 65.1921 30.0742 70.192 32.5742 74.192C27.5742 75.192 20.5742 74.692 16.0742 74.692C13.3816 74.692 12.0742 72.3587 12.0742 71.192C11.5742 68.192 12.8241 65.0254 14.449 63.6921Z" stroke="black" stroke-width="0.5"/>
<path d="M12.0742 70.6921C20.0742 69.1921 23.5742 71.8206 26.5742 73.3206M13.5742 73.6921L31.0742 73.1921" stroke="black" stroke-width="0.5"/>
<path d="M22.5723 82.1919H32.0723C34.0723 82.1919 35.5723 80.1919 35.0723 79.1919M38.5723 79.1919V83.6919" stroke="black" stroke-width="0.5"/>
<path d="M22.5742 80.6921C18.0742 80.6921 13.5742 81.1921 2.07416 78.1921V76.1921L6.07417 74.1921V72.6921L2.07416 72.1921C1.57324 70.6919 0.573438 67.6919 2.57343 65.1919C2.07368 57.1919 2.57368 50.6919 4.57417 47.6916C37.0742 28.192 59.0742 34.1921 85.0742 29.6921C163.074 -25.308 245.074 11.6919 282.074 26.1921L295.574 28.1919L296.074 35.1919V38.1919C297.573 43.1919 298.908 47.6919 297.574 49.6919C300.074 50.6919 302.574 53.8586 302.574 55.6919L300.574 65.6919C301.026 76.5398 298.618 76.7641 289.286 77.0765C288.295 77.1097 286.226 77.1439 285.074 77.1919V78.6919L260.074 79.1229M22.5742 80.6921V83.6921H40.5725L40.0742 79.1921M22.5742 80.6921V79.1921H40.0742M40.0742 79.1921C37.0742 37.6921 90.5742 40.6921 87.0742 79.6921V82.1919H213.574C207.574 38.6919 262.074 38.6919 260.074 79.1229M259.573 79.1229H260.074" stroke="black"/>
</svg>
