<svg width="303" height="96" viewBox="0 0 303 96" fill="none" xmlns="http://www.w3.org/2000/svg">
<circle cx="62.8955" cy="74.0454" r="20.5" fill="#EFC7D3" stroke="black"/>
<circle cx="235.896" cy="74.0454" r="20.5" fill="#EFC7D3" stroke="black"/>
<path d="M132.894 12.5453L131.394 9.04527C171.394 1.04538 192.894 1.54541 231.894 13.0454L228.394 17.5454C208.394 9.54532 190.394 8.54532 174.394 8.04539C171.894 7.54539 167.894 7.54535 165.394 8.04527C155.394 8.04539 143.394 9.54539 132.894 12.5453Z" fill="#E56E90" stroke="black" stroke-width="0.5"/>
<path d="M131.394 9.04545L130.894 7.54545C166.894 -3.45459 199.394 0.545284 234.894 9.54546L231.894 13.0455C191.894 0.54541 165.894 2.04541 131.394 9.04545Z" fill="#E56E90" stroke="black" stroke-width="0.5"/>
<path d="M131.394 9.04552C182.894 -2.4545 211.394 7.54553 231.894 13.0455" stroke="black" stroke-width="0.5"/>
<path d="M170.896 30.0454L174.396 8.04541C207.896 9.04541 219.396 14.5454 223.896 16.0454L226.378 28.0454C199.388 28.046 181.893 29.5455 170.896 30.0454Z" fill="#E56E90"/>
<path d="M226.896 30.5454L223.896 16.0454C219.396 14.5454 207.896 9.04541 174.396 8.04541L170.896 30.0454C181.896 29.5454 199.396 28.0454 226.396 28.0454" stroke="black" stroke-width="0.5"/>
<path d="M165.396 8.04541C132.396 9.04541 112.396 18.0454 93.3955 35.5454L95.8955 33.5454L159.896 30.5454L165.396 8.04541Z" fill="#E56E90" stroke="black" stroke-width="0.5"/>
<path d="M239.894 22.5454C236.227 19.8787 230.394 17.5454 223.894 16.0454L226.394 28.0454H232.894C235.894 26.5454 238.894 24.3141 239.894 22.5454Z" fill="#E56E90" stroke="black" stroke-width="0.5"/>
<path d="M96.8955 78.5454H163.896L198.396 77.0454H212.896L213.396 82.5454H199.396H98.3955H86.8955V78.5454H96.8955Z" fill="#E56E90"/>
<path d="M96.8955 78.5454H163.896L198.396 77.0454M96.8955 78.5454C96.8955 80.0454 97.3955 81.0454 98.3955 82.5454M96.8955 78.5454H86.8955V82.5454H98.3955M198.396 77.0454L199.396 82.5454M198.396 77.0454H212.896L213.396 82.5454H199.396M199.396 82.5454H98.3955" stroke="black" stroke-width="0.5"/>
<path d="M96.8946 78.5454C92.3955 74.0454 89.3956 52.0454 93.3946 35.5454L165.396 31.5454C161.396 36.5454 160.396 70.5454 163.896 78.5454H96.8946Z" fill="#E56E90" stroke="black" stroke-width="0.5"/>
<path d="M228.895 30.5454L165.395 31.5454C161.396 36.5454 160.396 70.5454 163.895 78.5454L198.395 77.0454C202.895 75.5454 209.395 70.0454 228.895 30.5454Z" fill="#E56E90" stroke="black" stroke-width="0.5"/>
<path d="M170.896 30.0455C166.396 30.5455 162.896 30.5455 159.896 30.5455L165.396 8.04548C168.396 7.54541 171.396 7.54541 174.396 8.04548L170.896 30.0455Z" fill="#E56E90" stroke="black" stroke-width="0.5"/>
<path d="M99.3955 32.0457C103.896 37.5457 110.896 34.0457 114.896 32.5457C115.896 17.0455 102.896 25.0455 99.3955 32.0457Z" fill="#E56E90" stroke="black" stroke-width="0.5"/>
<path d="M234.894 9.54541L231.894 13.0454C248.894 18.5454 259.394 21.5454 271.894 28.0454H273.394L281.394 26.5454C266.394 20.0454 258.894 17.5454 234.894 9.54541Z" stroke="black" stroke-width="0.5"/>
<path d="M271.894 28.0454C261.394 22.5454 242.394 16.0454 231.894 13.0454L229.894 15.5454L244.894 23.0454C243.394 25.5454 239.394 27.5454 233.394 30.2454C245.394 29.5454 262.394 28.5454 271.894 28.0454Z" stroke="black" stroke-width="0.5"/>
<path d="M277.396 34.3454L283.394 32.0454L272.895 28.0454L228.895 30.5454C221.395 45.5454 206.395 76.0454 198.395 77.0454H212.895C211.395 66.0454 220.895 42.5454 245.896 51.5454C256.396 46.0454 266.396 40.5454 277.396 34.3454Z" stroke="black" stroke-width="0.5"/>
<path d="M278.394 34.0454C266.394 40.5454 256.394 46.0454 245.894 51.5454C250.394 54.5454 260.894 60.5454 259.894 79.5454L284.894 79.0454V77.5454C293.394 76.5454 301.894 80.0454 300.394 66.0454L302.394 56.0454C302.394 54.5454 299.894 50.5454 297.394 50.0454C298.894 47.5454 295.894 38.5454 295.894 38.5454V37.0454L291.894 34.0454L286.894 32.5454L283.394 32.0454L278.394 34.0454Z" stroke="black" stroke-width="0.5"/>
<path d="M295.894 37.0454L295.888 36.9656M295.888 36.9656L295.394 28.5454L281.394 26.5454L272.894 28.0454L283.394 32.0454C292.894 33.0454 291.892 34.5454 295.888 36.9656Z" stroke="black" stroke-width="0.5"/>
<path d="M294.396 36.5456C293.896 34.0455 282.896 33.8454 277.396 34.3454" stroke="black" stroke-width="0.5"/>
<path d="M300.396 66.5454L260.896 68.5454C260.396 63.5454 258.229 59.3787 256.396 57.5454L302.396 55.0454M300.896 52.5454C289.896 51.0454 278.896 46.2454 266.896 40.2454M228.896 30.5454L272.896 28.0454L281.396 26.5454" stroke="black" stroke-width="0.5"/>
<path d="M272.896 43.0454C279.891 43.3952 285.908 43.5003 291.289 44.0454M297.896 45.0454C295.793 44.5948 293.599 44.2795 291.289 44.0454M295.896 37.5454C295.478 36.9603 295.008 36.4311 294.504 35.9554M291.289 44.0454C290.962 43.7006 290.868 43.1776 290.854 42.5454M290.854 42.5454C290.84 41.9551 290.896 41.2697 290.896 40.5454C290.896 38.5454 289.896 34.5454 286.396 32.5454C288.616 32.5454 291.993 33.5858 294.504 35.9554M290.854 42.5454C293.896 41.0454 294.968 37.4854 294.504 35.9554" stroke="black" stroke-width="0.5"/>
<path d="M290.896 40.5454C286.396 40.5454 284.396 36.5454 283.396 34.0454" stroke="black" stroke-width="0.5"/>
<path d="M132.894 12.6454C119.394 16.6454 107.394 22.5454 93.394 35.5454C100.394 23.5454 115.894 14.0454 131.394 9.04541L132.894 12.6454Z" fill="#EDADBF" stroke="black" stroke-width="0.5"/>
<path d="M131.394 9.04541C111.394 14.7194 93.394 32.0454 85.394 30.0454C98.394 20.5454 114.394 12.0454 130.894 7.54541L131.394 9.04541Z" fill="#EDADBF" stroke="black" stroke-width="0.5"/>
<path d="M10.3947 48.0453H4.39471C1.89404 52.0453 1.89404 62.0453 2.39471 65.5453C0.894043 66.5453 0.89464 71.0453 1.89471 72.5453L5.89471 73.0453V74.5453L1.89471 76.5453V78.5453C5.89471 79.5453 14.3947 81.5453 22.3947 81.0453V79.5453H39.8947C39.228 71.0453 40.8947 60.5453 49.8947 53.5453C47.3947 49.5453 40.3947 45.0453 37.3947 44.5453C27.3947 43.5453 12.3947 46.0453 10.3947 48.0453Z" fill="#EDADBF" stroke="black" stroke-width="0.5"/>
<path d="M93.3955 35.5454C75.5622 36.3787 43.8955 41.2454 33.3955 44.2454L37.3955 44.5454C42.3955 46.0454 47.8955 50.3787 49.8955 53.5454C62.8945 44.0454 88.3945 51.0454 86.8945 78.5454H96.8945C89.8945 67.5454 90.8945 45.5454 93.3955 35.5454Z" fill="#EDADBF" stroke="black" stroke-width="0.5"/>
<path d="M10.3936 48.0455H4.39355C36.8937 28.5454 58.8938 34.5454 84.8936 30.0454L93.8938 35.5454C76.8938 36.5454 47.8936 40.0454 33.8936 44.2454C25.8936 44.0454 11.8936 46.0454 10.3936 48.0455Z" fill="#EDADBF" stroke="black" stroke-width="0.5"/>
<path d="M37.3955 44.5455C29.8955 43.5454 12.8955 45.5454 10.3955 48.0455C9.5955 50.4454 12.7288 53.3787 14.3955 54.5454C23.8955 56.0454 37.3955 50.0454 37.3955 44.5455Z" fill="#EDADBF" stroke="black" stroke-width="0.5"/>
<path d="M4.39474 48.0454C11.3947 49.0454 5.39474 59.5454 2.39474 64.5454C1.89467 57.5454 2.39453 52.0454 4.39474 48.0454Z" fill="#EDADBF" stroke="black" stroke-width="0.5"/>
<path d="M22.394 84.0454V79.5454H39.894L40.394 84.0454H22.394Z" fill="#EDADBF" stroke="black" stroke-width="0.5"/>
<path d="M2.89551 65.5454C4.39551 68.0454 6.39551 71.2121 5.89551 73.0454M22.3955 79.5454C11.8955 80.0454 7.39551 76.0454 8.39551 72.5454C8.89551 72.0454 10.3955 70.5454 11.3955 70.5454" stroke="black" stroke-width="0.5"/>
<path d="M32.3955 74.5455C29.8955 70.5455 24.3955 65.5456 21.3955 64.0456C19.6455 63.5456 17.0204 63.6706 14.2703 64.0456C12.6454 65.3789 11.3955 68.5455 11.8955 71.5455C11.8955 72.7122 13.2029 75.0455 15.8955 75.0455C20.3955 75.0455 27.3955 75.5455 32.3955 74.5455Z" fill="#EDADBF"/>
<path d="M6.39551 65.5456C8.64545 65.0456 11.5204 64.4206 14.2703 64.0456M14.2703 64.0456C17.0204 63.6706 19.6455 63.5456 21.3955 64.0456C24.3955 65.5456 29.8955 70.5455 32.3955 74.5455C27.3955 75.5455 20.3955 75.0455 15.8955 75.0455C13.2029 75.0455 11.8955 72.7122 11.8955 71.5455C11.3955 68.5455 12.6454 65.3789 14.2703 64.0456Z" stroke="black" stroke-width="0.5"/>
<path d="M11.8955 71.0456C19.8955 69.5457 23.3955 72.1741 26.3955 73.6741M13.3955 74.0457L30.8955 73.5457" stroke="black" stroke-width="0.5"/>
<path d="M22.3936 82.5454H31.8936C33.8936 82.5454 35.3936 80.5454 34.8936 79.5454M38.3936 79.5454V84.0454" stroke="black" stroke-width="0.5"/>
<path d="M22.3955 81.0457C17.8955 81.0457 13.3955 81.5457 1.89545 78.5457V76.5457L5.89545 74.5456V73.0457L1.89545 72.5457C1.39453 71.0454 0.394727 68.0454 2.39472 65.5454C1.89497 57.5454 2.39497 51.0454 4.39545 48.0452C36.8955 28.5455 58.8954 34.5456 84.8954 30.0456C162.895 -24.9545 244.895 12.0454 281.895 26.5456L295.395 28.5454L295.895 35.5454V38.5454C297.394 43.5454 298.729 48.0454 297.395 50.0454C299.895 51.0454 302.395 54.2121 302.395 56.0454L300.395 66.0454C300.847 76.8933 298.439 77.1176 289.108 77.43C288.117 77.4632 286.048 77.4974 284.895 77.5454V79.0454L259.895 79.4764M22.3955 81.0457V84.0457H40.3938L39.8955 79.5457M22.3955 81.0457V79.5457H39.8955M39.8955 79.5457C36.8955 38.0457 90.3954 41.0457 86.8954 80.0457V82.5454H213.395C207.395 39.0454 261.895 39.0454 259.895 79.4764M259.394 79.4764H259.895" stroke="black"/>
</svg>
