<svg width="303" height="95" viewBox="0 0 303 95" fill="none" xmlns="http://www.w3.org/2000/svg">
<circle cx="62.2817" cy="73.6768" r="20.5" fill="#E56E90" stroke="black"/>
<circle cx="235.282" cy="73.6768" r="20.5" fill="#E56E90" stroke="black"/>
<path d="M132.28 12.1766L130.78 8.67661C170.78 0.676725 192.28 1.17676 231.28 12.6767L227.78 17.1767C207.78 9.17667 189.78 8.17667 173.78 7.67673C171.28 7.17673 167.28 7.1767 164.78 7.67661C154.78 7.67673 142.78 9.17674 132.28 12.1766Z" stroke="black" stroke-width="0.5"/>
<path d="M130.78 8.6768L130.28 7.1768C166.28 -3.82324 198.78 0.176632 234.28 9.1768L231.28 12.6768C191.28 0.176758 165.28 1.67676 130.78 8.6768Z" stroke="black" stroke-width="0.5"/>
<path d="M130.78 8.67675C182.28 -2.82328 210.78 7.17676 231.28 12.6767" stroke="black" stroke-width="0.5"/>
<path d="M226.282 30.1768L223.282 15.6768C218.782 14.1768 207.282 8.67676 173.782 7.67676L170.282 29.6768C181.282 29.1768 198.782 27.6768 225.782 27.6768" stroke="black" stroke-width="0.5"/>
<path d="M164.782 7.67676C131.782 8.67676 111.782 17.6768 92.7817 35.1768L95.2817 33.1768L159.282 30.1768L164.782 7.67676Z" stroke="black" stroke-width="0.5"/>
<path d="M239.28 22.1768C235.614 19.5101 229.78 17.1768 223.28 15.6768L225.78 27.6768H232.28C235.28 26.1768 238.28 23.9455 239.28 22.1768Z" stroke="black" stroke-width="0.5"/>
<path d="M96.2817 78.1768H163.282L197.782 76.6768M96.2817 78.1768C96.2817 79.6768 96.7817 80.6768 97.7817 82.1768M96.2817 78.1768H86.2817V82.1768H97.7817M197.782 76.6768L198.782 82.1768M197.782 76.6768H212.282L212.782 82.1768H198.782M198.782 82.1768H97.7817" stroke="black" stroke-width="0.5"/>
<path d="M96.2809 78.1768C91.7817 73.6768 88.7818 51.6768 92.7809 35.1768L164.782 31.1768C160.782 36.1768 159.782 70.1768 163.282 78.1768H96.2809Z" stroke="black" stroke-width="0.5"/>
<path d="M228.281 30.1768L164.781 31.1768C160.781 36.1768 159.781 70.1768 163.281 78.1768L197.781 76.6768C202.281 75.1768 208.781 69.6768 228.281 30.1768Z" stroke="black" stroke-width="0.5"/>
<path d="M170.282 29.6768C165.782 30.1768 162.282 30.1768 159.282 30.1768L164.782 7.67683C167.782 7.17676 170.782 7.17676 173.782 7.67683L170.282 29.6768Z" stroke="black" stroke-width="0.5"/>
<path d="M98.7817 31.6769C103.282 37.1769 110.282 33.6769 114.282 32.1769C115.282 16.6768 102.282 24.6768 98.7817 31.6769Z" stroke="black" stroke-width="0.5"/>
<path d="M234.28 9.17676L231.28 12.6768C248.28 18.1768 258.78 21.1768 271.28 27.6768H272.78L280.78 26.1768C265.78 19.6768 258.28 17.1768 234.28 9.17676Z" fill="#EFC7D3" stroke="black" stroke-width="0.5"/>
<path d="M271.28 27.6768C260.78 22.1768 241.78 15.6768 231.28 12.6768L229.28 15.1768L244.28 22.6768C242.78 25.1768 238.78 27.1768 232.78 29.8768C244.78 29.1768 261.78 28.1768 271.28 27.6768Z" fill="#EFC7D3" stroke="black" stroke-width="0.5"/>
<path d="M276.782 33.9768L282.78 31.6768L272.281 27.6768L228.281 30.1768C220.781 45.1768 205.781 75.6768 197.781 76.6768H212.281C210.781 65.6768 220.281 42.1768 245.282 51.1768C255.782 45.6768 265.782 40.1768 276.782 33.9768Z" fill="#EFC7D3" stroke="black" stroke-width="0.5"/>
<path d="M277.78 33.6768C265.78 40.1768 255.78 45.6768 245.28 51.1768C249.78 54.1768 260.28 60.1768 259.28 79.1768L284.28 78.6768V77.1768C292.78 76.1768 301.28 79.6768 299.78 65.6768L301.78 55.6768C301.78 54.1768 299.28 50.1768 296.78 49.6768C298.28 47.1768 295.28 38.1768 295.28 38.1768V36.6768L291.28 33.6768L286.28 32.1768L282.78 31.6768L277.78 33.6768Z" fill="#EFC7D3" stroke="black" stroke-width="0.5"/>
<path d="M280.78 26.1768L272.28 27.6768L282.78 31.6768C292.28 32.6768 291.279 34.1768 295.274 36.5969L294.78 28.1768L280.78 26.1768Z" fill="#EFC7D3"/>
<path d="M295.28 36.6768L295.274 36.5969M295.274 36.5969L294.78 28.1768L280.78 26.1768L272.28 27.6768L282.78 31.6768C292.28 32.6768 291.279 34.1768 295.274 36.5969Z" stroke="black" stroke-width="0.5"/>
<path d="M293.782 36.177C293.282 33.6768 282.282 33.4768 276.782 33.9768" stroke="black" stroke-width="0.5"/>
<path d="M299.782 66.1768L260.282 68.1768C259.782 63.1768 257.615 59.0101 255.782 57.1768L301.782 54.6768M300.282 52.1768C289.282 50.6768 278.282 45.8768 266.282 39.8768M228.282 30.1768L272.282 27.6768L280.782 26.1768" stroke="black" stroke-width="0.5"/>
<path d="M290.282 40.1768C290.282 38.1768 289.282 34.1768 285.782 32.1768C288.003 32.1768 291.379 33.2171 293.891 35.5867C294.354 37.1167 293.282 40.6768 290.24 42.1768C290.226 41.5865 290.282 40.901 290.282 40.1768Z" fill="#EFC7D3"/>
<path d="M272.282 42.6768C279.277 43.0265 285.294 43.1316 290.675 43.6768M297.282 44.6768C295.179 44.2261 292.985 43.9109 290.675 43.6768M295.282 37.1768C294.864 36.5916 294.395 36.0624 293.891 35.5867M290.675 43.6768C290.349 43.332 290.255 42.8089 290.24 42.1768M290.24 42.1768C290.226 41.5865 290.282 40.901 290.282 40.1768C290.282 38.1768 289.282 34.1768 285.782 32.1768C288.003 32.1768 291.379 33.2171 293.891 35.5867M290.24 42.1768C293.282 40.6768 294.354 37.1167 293.891 35.5867" stroke="black" stroke-width="0.5"/>
<path d="M290.282 40.1768C285.782 40.1768 283.782 36.1768 282.782 33.6768" stroke="black" stroke-width="0.5"/>
<path d="M132.28 12.2767C118.78 16.2767 106.78 22.1768 92.7803 35.1768C99.7803 23.1768 115.28 13.6768 130.78 8.67676L132.28 12.2767Z" fill="#E56E90" stroke="black" stroke-width="0.5"/>
<path d="M130.78 8.67676C110.78 14.3508 92.7803 31.6768 84.7803 29.6768C97.7803 20.1768 113.78 11.6768 130.28 7.17676L130.78 8.67676Z" fill="#E56E90" stroke="black" stroke-width="0.5"/>
<path d="M9.78094 47.6768H3.78094C1.28027 51.6768 1.28027 61.6768 1.78094 65.1768C0.280273 66.1768 0.280871 70.6768 1.28094 72.1768L5.28094 72.6768V74.1768L1.28094 76.1768V78.1768C5.28094 79.1768 13.7809 81.1768 21.7809 80.6768V79.1768H39.2809C38.6143 70.6768 40.2809 60.1768 49.2809 53.1768C46.7809 49.1768 39.7809 44.6768 36.7809 44.1768C26.7809 43.1768 11.7809 45.6768 9.78094 47.6768Z" fill="#E56E90" stroke="black" stroke-width="0.5"/>
<path d="M92.7817 35.1768C74.9484 36.0101 43.2817 40.8768 32.7817 43.8768L36.7817 44.1768C41.7817 45.6768 47.2817 50.0101 49.2817 53.1768C62.2808 43.6768 87.7808 50.6768 86.2808 78.1768H96.2808C89.2808 67.1768 90.2808 45.1768 92.7817 35.1768Z" fill="#E56E90" stroke="black" stroke-width="0.5"/>
<path d="M9.78027 47.6768H3.78027C36.2805 28.1767 58.2805 34.1768 84.2803 29.6768L93.2805 35.1768C76.2805 36.1768 47.2803 39.6768 33.2803 43.8768C25.2803 43.6767 11.2803 45.6768 9.78027 47.6768Z" fill="#E56E90" stroke="black" stroke-width="0.5"/>
<path d="M36.7817 44.1768C29.2817 43.1768 12.2817 45.1768 9.78173 47.6768C8.98173 50.0768 12.1151 53.0101 13.7817 54.1768C23.2817 55.6768 36.7817 49.6768 36.7817 44.1768Z" fill="#E56E90" stroke="black" stroke-width="0.5"/>
<path d="M3.78097 47.6768C10.781 48.6768 4.78097 59.1768 1.78097 64.1768C1.2809 57.1768 1.78076 51.6768 3.78097 47.6768Z" fill="#E56E90" stroke="black" stroke-width="0.5"/>
<path d="M21.7803 83.6768V79.1768H39.2803L39.7803 83.6768H21.7803Z" fill="#E56E90" stroke="black" stroke-width="0.5"/>
<path d="M2.28223 65.1768C3.78223 67.6768 5.78223 70.8434 5.28223 72.6768M21.7822 79.1768C11.2822 79.6768 6.78223 75.6768 7.78223 72.1768C8.28223 71.6768 9.78223 70.1768 10.7822 70.1768" stroke="black" stroke-width="0.5"/>
<path d="M31.7822 74.1768C29.2822 70.1768 23.7822 65.1768 20.7822 63.6768C19.0322 63.1768 16.4071 63.3018 13.657 63.6768C12.0321 65.0101 10.7822 68.1768 11.2822 71.1768C11.2822 72.3434 12.5896 74.6768 15.2822 74.6768C19.7822 74.6768 26.7822 75.1768 31.7822 74.1768Z" fill="#E56E90"/>
<path d="M5.78223 65.1768C8.03217 64.6768 10.9071 64.0518 13.657 63.6768M13.657 63.6768C16.4071 63.3018 19.0322 63.1768 20.7822 63.6768C23.7822 65.1768 29.2822 70.1768 31.7822 74.1768C26.7822 75.1768 19.7822 74.6768 15.2822 74.6768C12.5896 74.6768 11.2822 72.3434 11.2822 71.1768C10.7822 68.1768 12.0321 65.0101 13.657 63.6768Z" stroke="black" stroke-width="0.5"/>
<path d="M11.2822 70.6768C19.2822 69.1769 22.7822 71.8054 25.7822 73.3054M12.7822 73.6769L30.2822 73.1769" stroke="black" stroke-width="0.5"/>
<path d="M21.7803 82.1768H31.2803C33.2803 82.1768 34.7803 80.1768 34.2803 79.1768M37.7803 79.1768V83.6768" stroke="black" stroke-width="0.5"/>
<path d="M21.7817 80.677C17.2817 80.677 12.7817 81.177 1.28168 78.177V76.177L5.28168 74.177V72.677L1.28168 72.177C0.780762 70.6768 -0.219042 67.6768 1.78095 65.1768C1.2812 57.1768 1.7812 50.6768 3.78168 47.6765C36.2817 28.1769 58.2817 34.1769 84.2817 29.6769C162.282 -25.3232 244.282 11.6767 281.282 26.1769L294.782 28.1768L295.282 35.1768V38.1768C296.78 43.1768 298.115 47.6768 296.782 49.6768C299.282 50.6768 301.782 53.8434 301.782 55.6768L299.782 65.6768C300.234 76.5247 297.826 76.7489 288.494 77.0614C287.503 77.0946 285.434 77.1288 284.282 77.1768V78.6768L259.282 79.1078M21.7817 80.677V83.677H39.78L39.2817 79.177M21.7817 80.677V79.177H39.2817M39.2817 79.177C36.2817 37.677 89.7817 40.677 86.2817 79.677V82.1768H212.782C206.782 38.6768 261.282 38.6768 259.282 79.1078M258.78 79.1078H259.282" stroke="black"/>
</svg>
