<svg width="303" height="96" viewBox="0 0 303 96" fill="none" xmlns="http://www.w3.org/2000/svg">
<circle cx="62.249" cy="74.1843" r="20.5" fill="#E56E90" stroke="black"/>
<circle cx="235.249" cy="74.1843" r="20.5" fill="#E56E90" stroke="black"/>
<path d="M132.247 12.6842L130.747 9.18418C170.747 1.18429 192.247 1.68433 231.247 13.1843L227.747 17.6843C207.747 9.68424 189.747 8.68423 173.747 8.1843C171.247 7.6843 167.247 7.68427 164.747 8.18418C154.747 8.1843 142.747 9.6843 132.247 12.6842Z" fill="#EFC7D3" stroke="black" stroke-width="0.5"/>
<path d="M130.747 9.18437L130.247 7.68437C166.247 -3.31567 198.747 0.6842 234.247 9.68437L231.247 13.1844C191.247 0.684326 165.247 2.18433 130.747 9.18437Z" fill="#EFC7D3" stroke="black" stroke-width="0.5"/>
<path d="M130.747 9.18431C182.247 -2.31571 210.747 7.68433 231.247 13.1843" stroke="black" stroke-width="0.5"/>
<path d="M170.249 30.1843L173.749 8.18433C207.249 9.18433 218.749 14.6843 223.249 16.1843L225.732 28.1843C198.742 28.185 181.247 29.6844 170.249 30.1843Z" fill="#EFC7D3"/>
<path d="M226.249 30.6843L223.249 16.1843C218.749 14.6843 207.249 9.18433 173.749 8.18433L170.249 30.1843C181.249 29.6843 198.749 28.1843 225.749 28.1843" stroke="black" stroke-width="0.5"/>
<path d="M164.749 8.18433C131.749 9.18433 111.749 18.1843 92.749 35.6843L95.249 33.6843L159.249 30.6843L164.749 8.18433Z" fill="#EFC7D3" stroke="black" stroke-width="0.5"/>
<path d="M239.247 22.6843C235.58 20.0177 229.747 17.6843 223.247 16.1843L225.747 28.1843H232.247C235.247 26.6843 238.247 24.4531 239.247 22.6843Z" fill="#EFC7D3" stroke="black" stroke-width="0.5"/>
<path d="M96.249 78.6843H163.249L197.749 77.1843H212.249L212.749 82.6843H198.749H97.749H86.249V78.6843H96.249Z" fill="#EFC7D3"/>
<path d="M96.249 78.6843H163.249L197.749 77.1843M96.249 78.6843C96.249 80.1843 96.749 81.1843 97.749 82.6843M96.249 78.6843H86.249V82.6843H97.749M197.749 77.1843L198.749 82.6843M197.749 77.1843H212.249L212.749 82.6843H198.749M198.749 82.6843H97.749" stroke="black" stroke-width="0.5"/>
<path d="M96.2482 78.6843C91.749 74.1843 88.7491 52.1843 92.7482 35.6843L164.749 31.6843C160.749 36.6843 159.749 70.6843 163.249 78.6843H96.2482Z" fill="#EFC7D3" stroke="black" stroke-width="0.5"/>
<path d="M228.249 30.6843L164.749 31.6843C160.749 36.6843 159.749 70.6843 163.249 78.6843L197.749 77.1843C202.249 75.6843 208.749 70.1843 228.249 30.6843Z" fill="#EFC7D3" stroke="black" stroke-width="0.5"/>
<path d="M170.249 30.1844C165.749 30.6844 162.249 30.6844 159.249 30.6844L164.749 8.1844C167.749 7.68433 170.749 7.68433 173.749 8.1844L170.249 30.1844Z" fill="#EFC7D3" stroke="black" stroke-width="0.5"/>
<path d="M98.749 32.1845C103.249 37.6845 110.249 34.1845 114.249 32.6845C115.249 17.1843 102.249 25.1843 98.749 32.1845Z" fill="#EFC7D3" stroke="black" stroke-width="0.5"/>
<path d="M234.247 9.68433L231.247 13.1843C248.247 18.6843 258.747 21.6843 271.247 28.1843H272.747L280.747 26.6843C265.747 20.1843 258.247 17.6843 234.247 9.68433Z" fill="#E0426F" stroke="black" stroke-width="0.5"/>
<path d="M271.247 28.1843C260.747 22.6843 241.747 16.1843 231.247 13.1843L229.247 15.6843L244.247 23.1843C242.747 25.6843 238.747 27.6843 232.747 30.3843C244.747 29.6843 261.747 28.6843 271.247 28.1843Z" fill="#E0426F" stroke="black" stroke-width="0.5"/>
<path d="M276.749 34.4843L282.747 32.1843L272.248 28.1843L228.248 30.6843C220.748 45.6843 205.748 76.1843 197.748 77.1843H212.248C210.748 66.1843 220.248 42.6843 245.249 51.6843C255.749 46.1843 265.749 40.6843 276.749 34.4843Z" fill="#E0426F" stroke="black" stroke-width="0.5"/>
<path d="M277.747 34.1844C265.747 40.6844 255.747 46.1844 245.247 51.6844C249.747 54.6843 260.247 60.6843 259.247 79.6843L284.247 79.1843V77.6843C292.747 76.6843 301.247 80.1843 299.747 66.1843L301.747 56.1843C301.747 54.6843 299.247 50.6843 296.747 50.1843C298.247 47.6843 295.247 38.6843 295.247 38.6843V37.1843L291.247 34.1843L286.247 32.6843L282.747 32.1843L277.747 34.1844Z" fill="#E0426F" stroke="black" stroke-width="0.5"/>
<path d="M280.747 26.6843L272.247 28.1843L282.747 32.1843C292.247 33.1843 291.246 34.6843 295.241 37.1045L294.747 28.6843L280.747 26.6843Z" fill="#E0426F"/>
<path d="M295.247 37.1843L295.241 37.1045M295.241 37.1045L294.747 28.6843L280.747 26.6843L272.247 28.1843L282.747 32.1843C292.247 33.1843 291.246 34.6843 295.241 37.1045Z" stroke="black" stroke-width="0.5"/>
<path d="M293.749 36.6845C293.249 34.1844 282.249 33.9843 276.749 34.4843" stroke="black" stroke-width="0.5"/>
<path d="M299.749 66.6843L260.249 68.6843C259.749 63.6843 257.582 59.5177 255.749 57.6843L301.749 55.1843M300.249 52.6843C289.249 51.1843 278.249 46.3843 266.249 40.3843M228.249 30.6843L272.249 28.1843L280.749 26.6843" stroke="black" stroke-width="0.5"/>
<path d="M290.249 40.6843C290.249 38.6843 289.249 34.6843 285.749 32.6843C287.97 32.6843 291.347 33.7247 293.858 36.0943C294.322 37.6243 293.249 41.1843 290.207 42.6843C290.194 42.094 290.249 41.4086 290.249 40.6843Z" fill="#E0426F"/>
<path d="M272.249 43.1843C279.245 43.5341 285.262 43.6392 290.642 44.1843M297.249 45.1843C295.146 44.7337 292.953 44.4184 290.642 44.1843M295.249 37.6843C294.831 37.0992 294.362 36.57 293.858 36.0943M290.642 44.1843C290.316 43.8396 290.222 43.3165 290.207 42.6843M290.207 42.6843C290.194 42.094 290.249 41.4086 290.249 40.6843C290.249 38.6843 289.249 34.6843 285.749 32.6843C287.97 32.6843 291.347 33.7247 293.858 36.0943M290.207 42.6843C293.249 41.1843 294.322 37.6243 293.858 36.0943" stroke="black" stroke-width="0.5"/>
<path d="M290.249 40.6843C285.749 40.6843 283.749 36.6843 282.749 34.1843" stroke="black" stroke-width="0.5"/>
<path d="M132.247 12.7843C118.747 16.7843 106.747 22.6843 92.7471 35.6843C99.7471 23.6843 115.247 14.1843 130.747 9.18433L132.247 12.7843Z" fill="#EFC7D3" stroke="black" stroke-width="0.5"/>
<path d="M130.747 9.18433C110.747 14.8584 92.7471 32.1843 84.7471 30.1843C97.7471 20.6843 113.747 12.1843 130.247 7.68433L130.747 9.18433Z" fill="#EFC7D3" stroke="black" stroke-width="0.5"/>
<path d="M9.74774 48.1843H3.74774C1.24707 52.1843 1.24707 62.1843 1.74774 65.6843C0.24707 66.6843 0.247668 71.1843 1.24774 72.6843L5.24774 73.1843V74.6843L1.24774 76.6843V78.6843C5.24774 79.6843 13.7477 81.6843 21.7477 81.1843V79.6843H39.2477C38.5811 71.1843 40.2477 60.6843 49.2477 53.6843C46.7477 49.6843 39.7477 45.1843 36.7477 44.6843C26.7477 43.6843 11.7477 46.1843 9.74774 48.1843Z" fill="#EFC7D3" stroke="black" stroke-width="0.5"/>
<path d="M92.749 35.6843C74.9157 36.5177 43.249 41.3843 32.749 44.3843L36.749 44.6843C41.749 46.1843 47.249 50.5177 49.249 53.6843C62.248 44.1843 87.748 51.1843 86.248 78.6843H96.248C89.248 67.6843 90.248 45.6843 92.749 35.6843Z" fill="#EFC7D3" stroke="black" stroke-width="0.5"/>
<path d="M9.74707 48.1844H3.74707C36.2473 28.6843 58.2473 34.6843 84.2471 30.1843L93.2473 35.6843C76.2473 36.6843 47.2471 40.1843 33.2471 44.3843C25.2471 44.1843 11.2471 46.1843 9.74707 48.1844Z" fill="#EFC7D3" stroke="black" stroke-width="0.5"/>
<path d="M36.7485 44.6844C29.2485 43.6843 12.2485 45.6843 9.74852 48.1844C8.94852 50.5843 12.0819 53.5177 13.7485 54.6843C23.2485 56.1843 36.7485 50.1843 36.7485 44.6844Z" fill="#EFC7D3" stroke="black" stroke-width="0.5"/>
<path d="M3.74777 48.1843C10.7478 49.1843 4.74777 59.6843 1.74777 64.6843C1.2477 57.6843 1.74756 52.1843 3.74777 48.1843Z" fill="#EFC7D3" stroke="black" stroke-width="0.5"/>
<path d="M21.7471 84.1843V79.6843H39.2471L39.7471 84.1843H21.7471Z" fill="#EFC7D3" stroke="black" stroke-width="0.5"/>
<path d="M2.24902 65.6843C3.74902 68.1843 5.74902 71.351 5.24902 73.1843M21.749 79.6843C11.249 80.1843 6.74902 76.1843 7.74902 72.6843C8.24902 72.1843 9.74902 70.6843 10.749 70.6843" stroke="black" stroke-width="0.5"/>
<path d="M31.749 74.6843C29.249 70.6843 23.749 65.6844 20.749 64.1844C18.999 63.6844 16.3739 63.8094 13.6238 64.1844C11.9989 65.5177 10.749 68.6843 11.249 71.6843C11.249 72.851 12.5564 75.1843 15.249 75.1843C19.749 75.1843 26.749 75.6843 31.749 74.6843Z" fill="#EFC7D3"/>
<path d="M5.74902 65.6844C7.99897 65.1844 10.8739 64.5594 13.6238 64.1844M13.6238 64.1844C16.3739 63.8094 18.999 63.6844 20.749 64.1844C23.749 65.6844 29.249 70.6843 31.749 74.6843C26.749 75.6843 19.749 75.1843 15.249 75.1843C12.5564 75.1843 11.249 72.851 11.249 71.6843C10.749 68.6843 11.9989 65.5177 13.6238 64.1844Z" stroke="black" stroke-width="0.5"/>
<path d="M11.249 71.1844C19.249 69.6844 22.749 72.3129 25.749 73.8129M12.749 74.1844L30.249 73.6844" stroke="black" stroke-width="0.5"/>
<path d="M21.7471 82.6843H31.2471C33.2471 82.6843 34.7471 80.6843 34.2471 79.6843M37.7471 79.6843V84.1843" stroke="black" stroke-width="0.5"/>
<path d="M21.749 81.1846C17.249 81.1846 12.749 81.6846 1.24897 78.6846V76.6846L5.24897 74.6846V73.1846L1.24897 72.6846C0.748047 71.1843 -0.251757 68.1843 1.74824 65.6843C1.24848 57.6843 1.74848 51.1843 3.74897 48.1841C36.249 28.6845 58.249 34.6845 84.249 30.1845C162.249 -24.8156 244.249 12.1843 281.249 26.6845L294.749 28.6843L295.249 35.6843V38.6843C296.747 43.6843 298.082 48.1843 296.749 50.1843C299.249 51.1843 301.749 54.351 301.749 56.1843L299.749 66.1843C300.201 77.0322 297.793 77.2565 288.461 77.569C287.47 77.6021 285.401 77.6363 284.249 77.6843V79.1843L259.249 79.6154M21.749 81.1846V84.1846H39.7473L39.249 79.6846M21.749 81.1846V79.6846H39.249M39.249 79.6846C36.249 38.1846 89.749 41.1846 86.249 80.1846V82.6843H212.749C206.749 39.1843 261.249 39.1843 259.249 79.6154M258.747 79.6154H259.249" stroke="black"/>
</svg>
