<svg width="303" height="96" viewBox="0 0 303 96" fill="none" xmlns="http://www.w3.org/2000/svg">
<circle cx="62.8652" cy="74.3535" r="20.5" fill="#EFC7D3" stroke="black"/>
<circle cx="235.865" cy="74.3535" r="20.5" fill="#EFC7D3" stroke="black"/>
<path d="M132.863 12.8534L131.363 9.35337C171.363 1.35348 192.863 1.85352 231.863 13.3535L228.363 17.8535C208.363 9.85343 190.363 8.85342 174.363 8.35349C171.863 7.85349 167.863 7.85345 165.363 8.35337C155.363 8.35349 143.363 9.85349 132.863 12.8534Z" fill="#EFC7D3" stroke="black" stroke-width="0.5"/>
<path d="M131.363 9.35356L130.863 7.85356C166.863 -3.14648 199.363 0.85339 234.863 9.85356L231.863 13.3536C191.863 0.853516 165.863 2.35352 131.363 9.35356Z" fill="#EFC7D3" stroke="black" stroke-width="0.5"/>
<path d="M131.363 9.3535C182.863 -2.14652 211.363 7.85352 231.863 13.3535" stroke="black" stroke-width="0.5"/>
<path d="M170.865 30.3535L174.365 8.35352C207.865 9.35352 219.365 14.8535 223.865 16.3535L226.348 28.3535C199.358 28.3542 181.863 29.8536 170.865 30.3535Z" fill="#EFC7D3"/>
<path d="M226.865 30.8535L223.865 16.3535C219.365 14.8535 207.865 9.35352 174.365 8.35352L170.865 30.3535C181.865 29.8535 199.365 28.3535 226.365 28.3535" stroke="black" stroke-width="0.5"/>
<path d="M165.365 8.35352C132.365 9.35352 112.365 18.3535 93.3652 35.8535L95.8652 33.8535L159.865 30.8535L165.365 8.35352Z" fill="#EFC7D3" stroke="black" stroke-width="0.5"/>
<path d="M239.863 22.8535C236.197 20.1868 230.363 17.8535 223.863 16.3535L226.363 28.3535H232.863C235.863 26.8535 238.863 24.6223 239.863 22.8535Z" fill="#EFC7D3" stroke="black" stroke-width="0.5"/>
<path d="M96.8652 78.8535H163.865L198.365 77.3535H212.865L213.365 82.8535H199.365H98.3652H86.8652V78.8535H96.8652Z" fill="#EFC7D3"/>
<path d="M96.8652 78.8535H163.865L198.365 77.3535M96.8652 78.8535C96.8652 80.3535 97.3652 81.3535 98.3652 82.8535M96.8652 78.8535H86.8652V82.8535H98.3652M198.365 77.3535L199.365 82.8535M198.365 77.3535H212.865L213.365 82.8535H199.365M199.365 82.8535H98.3652" stroke="black" stroke-width="0.5"/>
<path d="M96.8644 78.8535C92.3652 74.3535 89.3653 52.3535 93.3644 35.8535L165.365 31.8535C161.365 36.8535 160.365 70.8535 163.865 78.8535H96.8644Z" fill="#EFC7D3" stroke="black" stroke-width="0.5"/>
<path d="M228.865 30.8535L165.365 31.8535C161.365 36.8535 160.365 70.8535 163.865 78.8535L198.365 77.3535C202.865 75.8535 209.365 70.3535 228.865 30.8535Z" fill="#EFC7D3" stroke="black" stroke-width="0.5"/>
<path d="M170.865 30.3536C166.365 30.8536 162.865 30.8536 159.865 30.8536L165.365 8.35359C168.365 7.85352 171.365 7.85352 174.365 8.35359L170.865 30.3536Z" fill="#EFC7D3" stroke="black" stroke-width="0.5"/>
<path d="M99.3652 32.3537C103.865 37.8537 110.865 34.3537 114.865 32.8537C115.865 17.3535 102.865 25.3535 99.3652 32.3537Z" fill="#EFC7D3" stroke="black" stroke-width="0.5"/>
<path d="M234.863 9.85352L231.863 13.3535C248.863 18.8535 259.363 21.8535 271.863 28.3535H273.363L281.363 26.8535C266.363 20.3535 258.863 17.8535 234.863 9.85352Z" fill="#E56E90" stroke="black" stroke-width="0.5"/>
<path d="M271.863 28.3535C261.363 22.8535 242.363 16.3535 231.863 13.3535L229.863 15.8535L244.863 23.3535C243.363 25.8535 239.363 27.8535 233.363 30.5535C245.363 29.8535 262.363 28.8535 271.863 28.3535Z" fill="#E56E90" stroke="black" stroke-width="0.5"/>
<path d="M277.365 34.6535L283.364 32.3535L272.864 28.3535L228.864 30.8535C221.364 45.8535 206.364 76.3535 198.364 77.3535H212.864C211.364 66.3535 220.864 42.8535 245.865 51.8535C256.365 46.3535 266.365 40.8535 277.365 34.6535Z" fill="#E56E90" stroke="black" stroke-width="0.5"/>
<path d="M278.363 34.3535C266.363 40.8535 256.363 46.3535 245.863 51.8535C250.363 54.8535 260.863 60.8535 259.863 79.8535L284.863 79.3535V77.8535C293.363 76.8535 301.863 80.3535 300.363 66.3535L302.363 56.3535C302.363 54.8535 299.863 50.8535 297.363 50.3535C298.863 47.8535 295.863 38.8535 295.863 38.8535V37.3535L291.863 34.3535L286.863 32.8535L283.363 32.3535L278.363 34.3535Z" fill="#E56E90" stroke="black" stroke-width="0.5"/>
<path d="M281.363 26.8535L272.863 28.3535L283.363 32.3535C292.863 33.3535 291.862 34.8535 295.857 37.2737L295.363 28.8535L281.363 26.8535Z" fill="#E56E90"/>
<path d="M295.863 37.3535L295.857 37.2737M295.857 37.2737L295.363 28.8535L281.363 26.8535L272.863 28.3535L283.363 32.3535C292.863 33.3535 291.862 34.8535 295.857 37.2737Z" stroke="black" stroke-width="0.5"/>
<path d="M294.365 36.8537C293.865 34.3536 282.865 34.1535 277.365 34.6535" stroke="black" stroke-width="0.5"/>
<path d="M300.365 66.8535L260.865 68.8535C260.365 63.8535 258.199 59.6868 256.365 57.8535L302.365 55.3535M300.865 52.8535C289.865 51.3535 278.865 46.5535 266.865 40.5535M228.865 30.8535L272.865 28.3535L281.365 26.8535" stroke="black" stroke-width="0.5"/>
<path d="M290.865 40.8535C290.865 38.8535 289.865 34.8535 286.365 32.8535C288.586 32.8535 291.963 33.8939 294.474 36.2635C294.938 37.7935 293.865 41.3535 290.823 42.8535C290.81 42.2632 290.865 41.5778 290.865 40.8535Z" fill="#E56E90"/>
<path d="M272.865 43.3535C279.861 43.7033 285.878 43.8084 291.258 44.3535M297.865 45.3535C295.762 44.9029 293.569 44.5876 291.258 44.3535M295.865 37.8535C295.447 37.2684 294.978 36.7392 294.474 36.2635M291.258 44.3535C290.932 44.0088 290.838 43.4857 290.823 42.8535M290.823 42.8535C290.81 42.2632 290.865 41.5778 290.865 40.8535C290.865 38.8535 289.865 34.8535 286.365 32.8535C288.586 32.8535 291.963 33.8939 294.474 36.2635M290.823 42.8535C293.865 41.3535 294.938 37.7935 294.474 36.2635" stroke="black" stroke-width="0.5"/>
<path d="M290.865 40.8535C286.365 40.8535 284.365 36.8535 283.365 34.3535" stroke="black" stroke-width="0.5"/>
<path d="M132.863 12.9535C119.363 16.9535 107.363 22.8535 93.3633 35.8535C100.363 23.8535 115.863 14.3535 131.363 9.35352L132.863 12.9535Z" fill="#EDADBF" stroke="black" stroke-width="0.5"/>
<path d="M131.363 9.35352C111.363 15.0276 93.3633 32.3535 85.3633 30.3535C98.3633 20.8535 114.363 12.3535 130.863 7.85352L131.363 9.35352Z" fill="#EDADBF" stroke="black" stroke-width="0.5"/>
<path d="M10.3639 48.3535H4.36395C1.86328 52.3535 1.86328 62.3535 2.36395 65.8535C0.863281 66.8535 0.863879 71.3535 1.86395 72.8535L5.86395 73.3535V74.8535L1.86395 76.8535V78.8535C5.86395 79.8535 14.3639 81.8535 22.3639 81.3535V79.8535H39.8639C39.1973 71.3535 40.8639 60.8535 49.8639 53.8535C47.3639 49.8535 40.3639 45.3535 37.3639 44.8535C27.3639 43.8535 12.3639 46.3535 10.3639 48.3535Z" fill="#EDADBF" stroke="black" stroke-width="0.5"/>
<path d="M93.3652 35.8535C75.5319 36.6868 43.8652 41.5535 33.3652 44.5535L37.3652 44.8535C42.3652 46.3535 47.8652 50.6868 49.8652 53.8535C62.8643 44.3535 88.3643 51.3535 86.8643 78.8535H96.8643C89.8643 67.8535 90.8643 45.8535 93.3652 35.8535Z" fill="#EDADBF" stroke="black" stroke-width="0.5"/>
<path d="M10.3633 48.3536H4.36328C36.8635 28.8535 58.8635 34.8535 84.8633 30.3535L93.8635 35.8535C76.8635 36.8535 47.8633 40.3535 33.8633 44.5535C25.8633 44.3535 11.8633 46.3535 10.3633 48.3536Z" fill="#EDADBF" stroke="black" stroke-width="0.5"/>
<path d="M37.3647 44.8536C29.8647 43.8535 12.8647 45.8535 10.3647 48.3536C9.56474 50.7535 12.6981 53.6868 14.3647 54.8535C23.8647 56.3535 37.3647 50.3535 37.3647 44.8536Z" fill="#EDADBF" stroke="black" stroke-width="0.5"/>
<path d="M4.36398 48.3535C11.364 49.3535 5.36398 59.8535 2.36398 64.8535C1.86391 57.8535 2.36377 52.3535 4.36398 48.3535Z" fill="#EDADBF" stroke="black" stroke-width="0.5"/>
<path d="M22.3633 84.3535V79.8535H39.8633L40.3633 84.3535H22.3633Z" fill="#EDADBF" stroke="black" stroke-width="0.5"/>
<path d="M2.86523 65.8535C4.36523 68.3535 6.36523 71.5202 5.86523 73.3535M22.3652 79.8535C11.8652 80.3535 7.36523 76.3535 8.36523 72.8535C8.86523 72.3535 10.3652 70.8535 11.3652 70.8535" stroke="black" stroke-width="0.5"/>
<path d="M32.3652 74.8535C29.8652 70.8535 24.3652 65.8536 21.3652 64.3536C19.6152 63.8536 16.9901 63.9786 14.24 64.3536C12.6151 65.6869 11.3652 68.8535 11.8652 71.8535C11.8652 73.0202 13.1727 75.3535 15.8652 75.3535C20.3652 75.3535 27.3652 75.8535 32.3652 74.8535Z" fill="#EDADBF"/>
<path d="M6.36523 65.8536C8.61518 65.3536 11.4901 64.7286 14.24 64.3536M14.24 64.3536C16.9901 63.9786 19.6152 63.8536 21.3652 64.3536C24.3652 65.8536 29.8652 70.8535 32.3652 74.8535C27.3652 75.8535 20.3652 75.3535 15.8652 75.3535C13.1727 75.3535 11.8652 73.0202 11.8652 71.8535C11.3652 68.8535 12.6151 65.6869 14.24 64.3536Z" stroke="black" stroke-width="0.5"/>
<path d="M11.8652 71.3536C19.8652 69.8536 23.3652 72.4821 26.3652 73.9821M13.3652 74.3536L30.8652 73.8536" stroke="black" stroke-width="0.5"/>
<path d="M22.3633 82.8535H31.8633C33.8633 82.8535 35.3633 80.8535 34.8633 79.8535M38.3633 79.8535V84.3535" stroke="black" stroke-width="0.5"/>
<path d="M22.3652 81.3538C17.8652 81.3538 13.3652 81.8538 1.86518 78.8538V76.8538L5.86518 74.8538V73.3538L1.86518 72.8538C1.36426 71.3535 0.364454 68.3535 2.36445 65.8535C1.86469 57.8535 2.36469 51.3535 4.36518 48.3533C36.8652 28.8537 58.8652 34.8537 84.8652 30.3537C162.865 -24.6464 244.865 12.3535 281.865 26.8537L295.365 28.8535L295.865 35.8535V38.8535C297.364 43.8535 298.699 48.3535 297.365 50.3535C299.865 51.3535 302.365 54.5202 302.365 56.3535L300.365 66.3535C300.817 77.2014 298.409 77.4257 289.077 77.7382C288.086 77.7713 286.017 77.8055 284.865 77.8535V79.3535L259.865 79.7846M22.3652 81.3538V84.3538H40.3635L39.8652 79.8538M22.3652 81.3538V79.8538H39.8652M39.8652 79.8538C36.8652 38.3538 90.3652 41.3538 86.8652 80.3538V82.8535H213.365C207.365 39.3535 261.865 39.3535 259.865 79.7846M259.364 79.7846H259.865" stroke="black"/>
</svg>
