<svg width="303" height="95" viewBox="0 0 303 95" fill="none" xmlns="http://www.w3.org/2000/svg">
<circle cx="62.8545" cy="73.7222" r="20.5" fill="#EFC7D3" stroke="black"/>
<circle cx="235.854" cy="73.7222" r="20.5" fill="#EFC7D3" stroke="black"/>
<path d="M132.853 12.222L131.353 8.72202C171.353 0.722136 192.853 1.22217 231.853 12.7221L228.353 17.2221C208.353 9.22208 190.353 8.22208 174.353 7.72215C171.853 7.22215 167.853 7.22211 165.353 7.72202C155.353 7.72215 143.353 9.22215 132.853 12.222Z" fill="#E0426F" stroke="black" stroke-width="0.5"/>
<path d="M131.353 8.72221L130.853 7.22221C166.853 -3.77783 199.353 0.222042 234.853 9.22221L231.853 12.7222C191.853 0.222168 165.853 1.72217 131.353 8.72221Z" fill="#E0426F" stroke="black" stroke-width="0.5"/>
<path d="M131.353 8.72228C182.853 -2.77775 211.353 7.22229 231.853 12.7223" stroke="black" stroke-width="0.5"/>
<path d="M170.854 29.7222L174.354 7.72217C207.854 8.72217 219.354 14.2222 223.854 15.7222L226.337 27.7222C199.347 27.7228 181.852 29.2223 170.854 29.7222Z" fill="#E0426F"/>
<path d="M226.854 30.2222L223.854 15.7222C219.354 14.2222 207.854 8.72217 174.354 7.72217L170.854 29.7222C181.854 29.2222 199.354 27.7222 226.354 27.7222" stroke="black" stroke-width="0.5"/>
<path d="M165.354 7.72217C132.354 8.72217 112.354 17.7222 93.3545 35.2222L95.8545 33.2222L159.854 30.2222L165.354 7.72217Z" fill="#E0426F" stroke="black" stroke-width="0.5"/>
<path d="M239.853 22.2222C236.186 19.5555 230.353 17.2222 223.853 15.7222L226.353 27.7222H232.853C235.853 26.2222 238.853 23.9909 239.853 22.2222Z" fill="#E0426F" stroke="black" stroke-width="0.5"/>
<path d="M96.8545 78.2222H163.854L198.354 76.7222H212.854L213.354 82.2222H199.354H98.3545H86.8545V78.2222H96.8545Z" fill="#E0426F"/>
<path d="M96.8545 78.2222H163.854L198.354 76.7222M96.8545 78.2222C96.8545 79.7222 97.3545 80.7222 98.3545 82.2222M96.8545 78.2222H86.8545V82.2222H98.3545M198.354 76.7222L199.354 82.2222M198.354 76.7222H212.854L213.354 82.2222H199.354M199.354 82.2222H98.3545" stroke="black" stroke-width="0.5"/>
<path d="M96.8536 78.2222C92.3545 73.7222 89.3545 51.7222 93.3536 35.2222L165.354 31.2222C161.354 36.2222 160.354 70.2222 163.854 78.2222H96.8536Z" fill="#E0426F" stroke="black" stroke-width="0.5"/>
<path d="M228.854 30.2222L165.354 31.2222C161.355 36.2222 160.355 70.2222 163.854 78.2222L198.354 76.7222C202.854 75.2222 209.354 69.7222 228.854 30.2222Z" fill="#E0426F" stroke="black" stroke-width="0.5"/>
<path d="M170.854 29.7222C166.354 30.2222 162.854 30.2222 159.854 30.2222L165.354 7.72224C168.354 7.22217 171.354 7.22217 174.354 7.72224L170.854 29.7222Z" fill="#E0426F" stroke="black" stroke-width="0.5"/>
<path d="M99.3545 31.7224C103.854 37.2224 110.854 33.7224 114.854 32.2224C115.854 16.7223 102.854 24.7223 99.3545 31.7224Z" fill="#E0426F" stroke="black" stroke-width="0.5"/>
<path d="M234.853 9.22217L231.853 12.7222C248.853 18.2222 259.353 21.2222 271.853 27.7222H273.353L281.353 26.2222C266.353 19.7222 258.853 17.2222 234.853 9.22217Z" fill="#E0426F" stroke="black" stroke-width="0.5"/>
<path d="M271.853 27.7222C261.353 22.2222 242.353 15.7222 231.853 12.7222L229.853 15.2222L244.853 22.7222C243.353 25.2222 239.353 27.2222 233.353 29.9222C245.353 29.2222 262.353 28.2222 271.853 27.7222Z" fill="#E0426F" stroke="black" stroke-width="0.5"/>
<path d="M277.354 34.0222L283.353 31.7222L272.854 27.7222L228.854 30.2222C221.354 45.2222 206.354 75.7222 198.354 76.7222H212.854C211.354 65.7222 220.854 42.2222 245.854 51.2222C256.354 45.7222 266.354 40.2222 277.354 34.0222Z" fill="#E0426F" stroke="black" stroke-width="0.5"/>
<path d="M278.353 33.7222C266.353 40.2222 256.353 45.7222 245.853 51.2222C250.353 54.2222 260.853 60.2222 259.853 79.2222L284.853 78.7222V77.2222C293.353 76.2222 301.853 79.7222 300.353 65.7222L302.353 55.7222C302.353 54.2222 299.853 50.2222 297.353 49.7222C298.853 47.2222 295.853 38.2222 295.853 38.2222V36.7222L291.853 33.7222L286.853 32.2222L283.353 31.7222L278.353 33.7222Z" fill="#E0426F" stroke="black" stroke-width="0.5"/>
<path d="M281.353 26.2222L272.853 27.7222L283.353 31.7222C292.853 32.7222 291.851 34.2222 295.847 36.6423L295.353 28.2222L281.353 26.2222Z" fill="#E0426F"/>
<path d="M295.853 36.7222L295.847 36.6423M295.847 36.6423L295.353 28.2222L281.353 26.2222L272.853 27.7222L283.353 31.7222C292.853 32.7222 291.851 34.2222 295.847 36.6423Z" stroke="black" stroke-width="0.5"/>
<path d="M294.354 36.2224C293.854 33.7223 282.854 33.5222 277.354 34.0222" stroke="black" stroke-width="0.5"/>
<path d="M300.354 66.2222L260.854 68.2222C260.354 63.2222 258.188 59.0555 256.354 57.2222L302.354 54.7222M300.854 52.2222C289.854 50.7222 278.854 45.9222 266.854 39.9222M228.854 30.2222L272.854 27.7222L281.354 26.2222" stroke="black" stroke-width="0.5"/>
<path d="M290.854 40.2222C290.854 38.2222 289.854 34.2222 286.354 32.2222C288.575 32.2222 291.952 33.2626 294.463 35.6322C294.927 37.1622 293.854 40.7222 290.813 42.2222C290.799 41.6319 290.854 40.9465 290.854 40.2222Z" fill="#E0426F"/>
<path d="M272.854 42.7222C279.85 43.072 285.867 43.177 291.248 43.7222M297.854 44.7222C295.751 44.2715 293.558 43.9563 291.248 43.7222M295.854 37.2222C295.437 36.637 294.967 36.1078 294.463 35.6322M291.248 43.7222C290.921 43.3774 290.827 42.8544 290.813 42.2222M290.813 42.2222C290.799 41.6319 290.854 40.9465 290.854 40.2222C290.854 38.2222 289.854 34.2222 286.354 32.2222C288.575 32.2222 291.952 33.2626 294.463 35.6322M290.813 42.2222C293.854 40.7222 294.927 37.1622 294.463 35.6322" stroke="black" stroke-width="0.5"/>
<path d="M290.854 40.2222C286.354 40.2222 284.354 36.2222 283.354 33.7222" stroke="black" stroke-width="0.5"/>
<path d="M132.853 12.3221C119.353 16.3221 107.353 22.2222 93.3525 35.2222C100.353 23.2222 115.853 13.7222 131.353 8.72217L132.853 12.3221Z" fill="#EFC7D3" stroke="black" stroke-width="0.5"/>
<path d="M131.353 8.72217C111.353 14.3962 93.3525 31.7222 85.3525 29.7222C98.3525 20.2222 114.353 11.7222 130.853 7.22217L131.353 8.72217Z" fill="#EFC7D3" stroke="black" stroke-width="0.5"/>
<path d="M10.3532 47.7221H4.35321C1.85254 51.722 1.85254 61.722 2.35321 65.222C0.852539 66.222 0.853137 70.722 1.85321 72.222L5.85321 72.722V74.222L1.85321 76.222V78.222C5.85321 79.222 14.3532 81.222 22.3532 80.722V79.222H39.8532C39.1865 70.722 40.8532 60.222 49.8532 53.222C47.3532 49.222 40.3532 44.722 37.3532 44.2221C27.3532 43.222 12.3532 45.7221 10.3532 47.7221Z" fill="#EFC7D3" stroke="black" stroke-width="0.5"/>
<path d="M93.3545 35.2222C75.5212 36.0555 43.8545 40.9222 33.3545 43.9222L37.3545 44.2222C42.3545 45.7222 47.8545 50.0555 49.8545 53.2222C62.8535 43.7222 88.3535 50.7222 86.8535 78.2222H96.8535C89.8535 67.2222 90.8535 45.2222 93.3545 35.2222Z" fill="#EFC7D3" stroke="black" stroke-width="0.5"/>
<path d="M10.3525 47.7222H4.35254C36.8527 28.2221 58.8528 34.2222 84.8525 29.7222L93.8528 35.2222C76.8528 36.2222 47.8525 39.7222 33.8525 43.9222C25.8525 43.7222 11.8525 45.7222 10.3525 47.7222Z" fill="#EFC7D3" stroke="black" stroke-width="0.5"/>
<path d="M37.354 44.2222C29.854 43.2222 12.854 45.2222 10.354 47.7222C9.55399 50.1222 12.6873 53.0555 14.354 54.2222C23.854 55.7222 37.354 49.7222 37.354 44.2222Z" fill="#EFC7D3" stroke="black" stroke-width="0.5"/>
<path d="M4.35323 47.7222C11.3532 48.7222 5.35323 59.2222 2.35323 64.2222C1.85316 57.2222 2.35303 51.7222 4.35323 47.7222Z" fill="#EFC7D3" stroke="black" stroke-width="0.5"/>
<path d="M22.3525 83.7222V79.2222H39.8525L40.3525 83.7222H22.3525Z" fill="#EFC7D3" stroke="black" stroke-width="0.5"/>
<path d="M2.85449 65.2222C4.35449 67.7222 6.35449 70.8888 5.85449 72.7222M22.3545 79.2222C11.8545 79.7222 7.35449 75.7222 8.35449 72.2222C8.85449 71.7222 10.3545 70.2222 11.3545 70.2222" stroke="black" stroke-width="0.5"/>
<path d="M32.3545 74.2223C29.8545 70.2223 24.3545 65.2224 21.3545 63.7224C19.6044 63.2224 16.9794 63.3474 14.2293 63.7224C12.6044 65.0557 11.3545 68.2223 11.8545 71.2223C11.8545 72.389 13.1619 74.7223 15.8545 74.7223C20.3545 74.7223 27.3545 75.2223 32.3545 74.2223Z" fill="#EFC7D3"/>
<path d="M6.35449 65.2224C8.60443 64.7223 11.4793 64.0974 14.2293 63.7224M14.2293 63.7224C16.9794 63.3474 19.6044 63.2224 21.3545 63.7224C24.3545 65.2224 29.8545 70.2223 32.3545 74.2223C27.3545 75.2223 20.3545 74.7223 15.8545 74.7223C13.1619 74.7223 11.8545 72.389 11.8545 71.2223C11.3545 68.2223 12.6043 65.0557 14.2293 63.7224Z" stroke="black" stroke-width="0.5"/>
<path d="M11.8545 70.7224C19.8545 69.2224 23.3545 71.8509 26.3545 73.3509M13.3545 73.7224L30.8545 73.2224" stroke="black" stroke-width="0.5"/>
<path d="M22.3525 82.2222H31.8525C33.8525 82.2222 35.3525 80.2222 34.8525 79.2222M38.3525 79.2222V83.7222" stroke="black" stroke-width="0.5"/>
<path d="M22.3544 80.7224C17.8544 80.7224 13.3544 81.2224 1.85444 78.2224V76.2224L5.85444 74.2224V72.7224L1.85444 72.2224C1.35352 70.7222 0.353711 67.7222 2.35371 65.2222C1.85395 57.2222 2.35395 50.7222 4.35444 47.7219C36.8544 28.2223 58.8544 34.2224 84.8544 29.7224C162.854 -25.2778 244.854 11.7222 281.854 26.2223L295.354 28.2222L295.854 35.2222V38.2222C297.353 43.2222 298.688 47.7222 297.354 49.7222C299.854 50.7222 302.354 53.8888 302.354 55.7222L300.354 65.7222C300.806 76.5701 298.398 76.7944 289.067 77.1068C288.076 77.14 286.007 77.1742 284.854 77.2222V78.7222L259.854 79.1532M22.3544 80.7224V83.7224H40.3528L39.8544 79.2224M22.3544 80.7224V79.2224H39.8544M39.8544 79.2224C36.8544 37.7224 90.3544 40.7224 86.8544 79.7224V82.2222H213.354C207.354 38.7222 261.854 38.7222 259.854 79.1532M259.353 79.1532H259.854" stroke="black"/>
</svg>
