<svg width="303" height="96" viewBox="0 0 303 96" fill="none" xmlns="http://www.w3.org/2000/svg">
<circle cx="62.4697" cy="74.5378" r="20.5" fill="#E0426F" stroke="black"/>
<circle cx="235.47" cy="74.5378" r="20.5" fill="#E0426F" stroke="black"/>
<path d="M132.468 13.0377L130.968 9.5377C170.968 1.53781 192.468 2.03784 231.468 13.5378L227.968 18.0378C207.968 10.0378 189.968 9.03775 173.968 8.53782C171.468 8.03782 167.468 8.03778 164.968 8.5377C154.968 8.53782 142.968 10.0378 132.468 13.0377Z" fill="#EDADBF" stroke="black" stroke-width="0.5"/>
<path d="M130.968 9.53789L130.468 8.03789C166.468 -2.96216 198.968 1.03772 234.468 10.0379L231.468 13.5379C191.468 1.03784 165.468 2.53784 130.968 9.53789Z" fill="#EDADBF" stroke="black" stroke-width="0.5"/>
<path d="M130.968 9.53771C182.468 -1.96232 210.968 8.03772 231.468 13.5377" stroke="black" stroke-width="0.5"/>
<path d="M170.47 30.5378L173.97 8.53784C207.47 9.53784 218.97 15.0378 223.47 16.5378L225.952 28.5378C198.962 28.5385 181.467 30.0379 170.47 30.5378Z" fill="#EDADBF"/>
<path d="M226.47 31.0378L223.47 16.5378C218.97 15.0378 207.47 9.53784 173.97 8.53784L170.47 30.5378C181.47 30.0378 198.97 28.5378 225.97 28.5378" stroke="black" stroke-width="0.5"/>
<path d="M164.97 8.53784C131.97 9.53784 111.97 18.5378 92.9697 36.0378L95.4697 34.0378L159.47 31.0378L164.97 8.53784Z" fill="#EDADBF" stroke="black" stroke-width="0.5"/>
<path d="M239.468 23.0378C235.801 20.3712 229.968 18.0378 223.468 16.5378L225.968 28.5378H232.468C235.468 27.0378 238.468 24.8066 239.468 23.0378Z" fill="#EDADBF" stroke="black" stroke-width="0.5"/>
<path d="M96.4697 79.0378H163.47L197.97 77.5378H212.47L212.97 83.0378H198.97H97.9697H86.4697V79.0378H96.4697Z" fill="#EDADBF"/>
<path d="M96.4697 79.0378H163.47L197.97 77.5378M96.4697 79.0378C96.4697 80.5378 96.9697 81.5378 97.9697 83.0378M96.4697 79.0378H86.4697V83.0378H97.9697M197.97 77.5378L198.97 83.0378M197.97 77.5378H212.47L212.97 83.0378H198.97M198.97 83.0378H97.9697" stroke="black" stroke-width="0.5"/>
<path d="M96.4689 79.0378C91.9697 74.5378 88.9698 52.5378 92.9689 36.0378L164.97 32.0378C160.97 37.0378 159.97 71.0378 163.47 79.0378H96.4689Z" fill="#EDADBF" stroke="black" stroke-width="0.5"/>
<path d="M228.47 31.0378L164.97 32.0378C160.97 37.0378 159.97 71.0378 163.47 79.0378L197.97 77.5378C202.47 76.0378 208.97 70.5378 228.47 31.0378Z" fill="#EDADBF" stroke="black" stroke-width="0.5"/>
<path d="M170.47 30.5379C165.97 31.0379 162.47 31.0379 159.47 31.0379L164.97 8.53792C167.97 8.03784 170.97 8.03784 173.97 8.53792L170.47 30.5379Z" fill="#EDADBF" stroke="black" stroke-width="0.5"/>
<path d="M98.9697 32.5379C103.47 38.0379 110.47 34.5379 114.47 33.0379C115.47 17.5377 102.47 25.5377 98.9697 32.5379Z" fill="#EDADBF" stroke="black" stroke-width="0.5"/>
<path d="M234.468 10.0378L231.468 13.5378C248.468 19.0378 258.968 22.0378 271.468 28.5378H272.968L280.968 27.0378C265.968 20.5378 258.468 18.0378 234.468 10.0378Z" fill="#EDADBF" stroke="black" stroke-width="0.5"/>
<path d="M271.468 28.5378C260.968 23.0378 241.968 16.5378 231.468 13.5378L229.468 16.0378L244.468 23.5378C242.968 26.0378 238.968 28.0378 232.968 30.7378C244.968 30.0378 261.968 29.0378 271.468 28.5378Z" fill="#EDADBF" stroke="black" stroke-width="0.5"/>
<path d="M276.97 34.8378L282.968 32.5378L272.469 28.5378L228.469 31.0378C220.969 46.0378 205.969 76.5378 197.969 77.5378H212.469C210.969 66.5378 220.469 43.0378 245.47 52.0378C255.97 46.5378 265.97 41.0378 276.97 34.8378Z" fill="#EDADBF" stroke="black" stroke-width="0.5"/>
<path d="M277.968 34.5379C265.968 41.0379 255.968 46.5379 245.468 52.0379C249.968 55.0378 260.468 61.0378 259.468 80.0378L284.468 79.5378V78.0378C292.968 77.0378 301.468 80.5378 299.968 66.5378L301.968 56.5378C301.968 55.0378 299.468 51.0378 296.968 50.5378C298.468 48.0378 295.468 39.0378 295.468 39.0378V37.5378L291.468 34.5378L286.468 33.0378L282.968 32.5378L277.968 34.5379Z" fill="#EDADBF" stroke="black" stroke-width="0.5"/>
<path d="M280.968 27.0378L272.468 28.5378L282.968 32.5378C292.468 33.5378 291.467 35.0378 295.462 37.458L294.968 29.0378L280.968 27.0378Z" fill="#EDADBF"/>
<path d="M295.468 37.5378L295.462 37.458M295.462 37.458L294.968 29.0378L280.968 27.0378L272.468 28.5378L282.968 32.5378C292.468 33.5378 291.467 35.0378 295.462 37.458Z" stroke="black" stroke-width="0.5"/>
<path d="M293.97 37.038C293.47 34.5379 282.47 34.3379 276.97 34.8379" stroke="black" stroke-width="0.5"/>
<path d="M299.97 67.0378L260.47 69.0378C259.97 64.0378 257.803 59.8712 255.97 58.0378L301.97 55.5378M300.47 53.0378C289.47 51.5378 278.47 46.7378 266.47 40.7378M228.47 31.0378L272.47 28.5378L280.97 27.0378" stroke="black" stroke-width="0.5"/>
<path d="M290.47 41.0378C290.47 39.0378 289.47 35.0378 285.97 33.0378C288.191 33.0378 291.567 34.0782 294.079 36.4478C294.542 37.9778 293.47 41.5378 290.428 43.0378C290.414 42.4476 290.47 41.7621 290.47 41.0378Z" fill="#EDADBF"/>
<path d="M272.47 43.5378C279.465 43.8876 285.482 43.9927 290.863 44.5378M297.47 45.5378C295.367 45.0872 293.173 44.7719 290.863 44.5378M295.47 38.0378C295.052 37.4527 294.583 36.9235 294.079 36.4478M290.863 44.5378C290.537 44.1931 290.443 43.67 290.428 43.0378M290.428 43.0378C290.414 42.4476 290.47 41.7621 290.47 41.0378C290.47 39.0378 289.47 35.0378 285.97 33.0378C288.191 33.0378 291.567 34.0782 294.079 36.4478M290.428 43.0378C293.47 41.5378 294.542 37.9778 294.079 36.4478" stroke="black" stroke-width="0.5"/>
<path d="M290.47 41.0378C285.97 41.0378 283.97 37.0378 282.97 34.5378" stroke="black" stroke-width="0.5"/>
<path d="M132.468 13.1378C118.968 17.1378 106.968 23.0378 92.9678 36.0378C99.9678 24.0378 115.468 14.5378 130.968 9.53784L132.468 13.1378Z" fill="#E0426F" stroke="black" stroke-width="0.5"/>
<path d="M130.968 9.53784C110.968 15.2119 92.9678 32.5378 84.9678 30.5378C97.9678 21.0378 113.968 12.5378 130.468 8.03784L130.968 9.53784Z" fill="#E0426F" stroke="black" stroke-width="0.5"/>
<path d="M9.96844 48.5377H3.96844C1.46777 52.5377 1.46777 62.5377 1.96844 66.0377C0.467773 67.0377 0.468371 71.5377 1.46844 73.0377L5.46844 73.5377V75.0377L1.46844 77.0377V79.0377C5.46844 80.0377 13.9684 82.0377 21.9684 81.5377V80.0377H39.4684C38.8018 71.5377 40.4684 61.0377 49.4684 54.0377C46.9684 50.0377 39.9684 45.5377 36.9684 45.0377C26.9684 44.0377 11.9684 46.5377 9.96844 48.5377Z" fill="#E0426F" stroke="black" stroke-width="0.5"/>
<path d="M92.9697 36.0378C75.1364 36.8712 43.4697 41.7378 32.9697 44.7378L36.9697 45.0378C41.9697 46.5378 47.4697 50.8712 49.4697 54.0378C62.4688 44.5378 87.9688 51.5378 86.4688 79.0378H96.4688C89.4688 68.0378 90.4688 46.0378 92.9697 36.0378Z" fill="#E0426F" stroke="black" stroke-width="0.5"/>
<path d="M9.96777 48.5379H3.96777C36.468 29.0378 58.468 35.0378 84.4678 30.5378L93.468 36.0378C76.468 37.0378 47.4678 40.5378 33.4678 44.7378C25.4678 44.5378 11.4678 46.5378 9.96777 48.5379Z" fill="#E0426F" stroke="black" stroke-width="0.5"/>
<path d="M36.9692 45.0379C29.4692 44.0378 12.4692 46.0378 9.96923 48.5379C9.16923 50.9379 12.3026 53.8712 13.9692 55.0378C23.4692 56.5378 36.9692 50.5378 36.9692 45.0379Z" fill="#E0426F" stroke="black" stroke-width="0.5"/>
<path d="M3.96847 48.5378C10.9685 49.5378 4.96847 60.0378 1.96847 65.0378C1.4684 58.0378 1.96826 52.5378 3.96847 48.5378Z" fill="#E0426F" stroke="black" stroke-width="0.5"/>
<path d="M21.9678 84.5378V80.0378H39.4678L39.9678 84.5378H21.9678Z" fill="#E0426F" stroke="black" stroke-width="0.5"/>
<path d="M2.46973 66.0376C3.96973 68.5376 5.96973 71.7043 5.46973 73.5376M21.9697 80.0376C11.4697 80.5376 6.96973 76.5376 7.96973 73.0376C8.46973 72.5376 9.96973 71.0376 10.9697 71.0376" stroke="black" stroke-width="0.5"/>
<path d="M31.9697 75.0377C29.4697 71.0377 23.9697 66.0378 20.9697 64.5378C19.2197 64.0378 16.5946 64.1628 13.8445 64.5378C12.2196 65.8711 10.9697 69.0377 11.4697 72.0377C11.4697 73.2044 12.7771 75.5377 15.4697 75.5377C19.9697 75.5377 26.9697 76.0377 31.9697 75.0377Z" fill="#E0426F"/>
<path d="M5.96973 66.0378C8.21967 65.5378 11.0946 64.9128 13.8445 64.5378M13.8445 64.5378C16.5946 64.1628 19.2197 64.0378 20.9697 64.5378C23.9697 66.0378 29.4697 71.0377 31.9697 75.0377C26.9697 76.0377 19.9697 75.5377 15.4697 75.5377C12.7771 75.5377 11.4697 73.2044 11.4697 72.0377C10.9697 69.0377 12.2196 65.8711 13.8445 64.5378Z" stroke="black" stroke-width="0.5"/>
<path d="M11.4697 71.5378C19.4697 70.0378 22.9697 72.6663 25.9697 74.1663M12.9697 74.5378L30.4697 74.0378" stroke="black" stroke-width="0.5"/>
<path d="M21.9678 83.0376H31.4678C33.4678 83.0376 34.9678 81.0376 34.4678 80.0376M37.9678 80.0376V84.5376" stroke="black" stroke-width="0.5"/>
<path d="M21.9697 81.5381C17.4697 81.5381 12.9697 82.0381 1.46967 79.0381V77.0381L5.46967 75.0381V73.5381L1.46967 73.0381C0.96875 71.5378 -0.0310541 68.5378 1.96894 66.0378C1.46918 58.0378 1.96918 51.5378 3.96967 48.5376C36.4697 29.038 58.4697 35.038 84.4697 30.538C162.47 -24.4621 244.47 12.5378 281.47 27.038L294.97 29.0378L295.47 36.0378V39.0378C296.968 44.0378 298.303 48.5378 296.97 50.5378C299.47 51.5378 301.97 54.7045 301.97 56.5378L299.97 66.5378C300.422 77.3858 298.013 77.61 288.682 77.9225C287.691 77.9557 285.622 77.9898 284.47 78.0378V79.5378L259.47 79.9689M21.9697 81.5381V84.5381H39.968L39.4697 80.0381M21.9697 81.5381V80.0381H39.4697M39.4697 80.0381C36.4697 38.5381 89.9697 41.5381 86.4697 80.5381V83.0378H212.97C206.97 39.5378 261.47 39.5378 259.47 79.9689M258.968 79.9689H259.47" stroke="black"/>
</svg>
