<svg width="303" height="96" viewBox="0 0 303 96" fill="none" xmlns="http://www.w3.org/2000/svg">
<circle cx="62.876" cy="74.553" r="20.5" fill="#EFC7D3" stroke="black"/>
<circle cx="235.876" cy="74.553" r="20.5" fill="#EFC7D3" stroke="black"/>
<path d="M132.874 13.0528L131.374 9.55283C171.374 1.55295 192.874 2.05298 231.874 13.5529L228.374 18.0529C208.374 10.0529 190.374 9.05289 174.374 8.55296C171.874 8.05296 167.874 8.05292 165.374 8.55283C155.374 8.55296 143.374 10.053 132.874 13.0528Z" fill="#E0426F" stroke="black" stroke-width="0.5"/>
<path d="M131.374 9.55302L130.874 8.05302C166.874 -2.94702 199.374 1.05285 234.874 10.053L231.874 13.553C191.874 1.05298 165.874 2.55298 131.374 9.55302Z" fill="#E0426F" stroke="black" stroke-width="0.5"/>
<path d="M131.374 9.55284C182.874 -1.94718 211.374 8.05286 231.874 13.5528" stroke="black" stroke-width="0.5"/>
<path d="M170.876 30.553L174.376 8.55298C207.876 9.55298 219.376 15.053 223.876 16.553L226.359 28.553C199.369 28.5536 181.874 30.0531 170.876 30.553Z" fill="#E0426F"/>
<path d="M226.876 31.053L223.876 16.553C219.376 15.053 207.876 9.55298 174.376 8.55298L170.876 30.553C181.876 30.053 199.376 28.553 226.376 28.553" stroke="black" stroke-width="0.5"/>
<path d="M165.376 8.55298C132.376 9.55298 112.376 18.553 93.376 36.053L95.876 34.053L159.876 31.053L165.376 8.55298Z" fill="#E0426F" stroke="black" stroke-width="0.5"/>
<path d="M239.874 23.053C236.207 20.3863 230.374 18.053 223.874 16.553L226.374 28.553H232.874C235.874 27.053 238.874 24.8217 239.874 23.053Z" fill="#E0426F" stroke="black" stroke-width="0.5"/>
<path d="M96.876 79.053H163.876L198.376 77.553H212.876L213.376 83.053H199.376H98.376H86.876V79.053H96.876Z" fill="#E0426F"/>
<path d="M96.876 79.053H163.876L198.376 77.553M96.876 79.053C96.876 80.553 97.376 81.553 98.376 83.053M96.876 79.053H86.876V83.053H98.376M198.376 77.553L199.376 83.053M198.376 77.553H212.876L213.376 83.053H199.376M199.376 83.053H98.376" stroke="black" stroke-width="0.5"/>
<path d="M96.8751 79.053C92.376 74.553 89.376 52.553 93.3751 36.053L165.376 32.053C161.376 37.053 160.376 71.053 163.876 79.053H96.8751Z" fill="#E0426F" stroke="black" stroke-width="0.5"/>
<path d="M228.876 31.053L165.376 32.053C161.376 37.053 160.376 71.053 163.876 79.053L198.376 77.553C202.876 76.053 209.376 70.553 228.876 31.053Z" fill="#E0426F" stroke="black" stroke-width="0.5"/>
<path d="M170.876 30.5531C166.376 31.0531 162.876 31.0531 159.876 31.0531L165.376 8.55305C168.376 8.05298 171.376 8.05298 174.376 8.55305L170.876 30.5531Z" fill="#E0426F" stroke="black" stroke-width="0.5"/>
<path d="M99.376 32.553C103.876 38.053 110.876 34.553 114.876 33.053C115.876 17.5529 102.876 25.5529 99.376 32.553Z" fill="#E0426F" stroke="black" stroke-width="0.5"/>
<path d="M234.874 10.053L231.874 13.553C248.874 19.053 259.374 22.053 271.874 28.553H273.374L281.374 27.053C266.374 20.553 258.874 18.053 234.874 10.053Z" fill="#EDADBF" stroke="black" stroke-width="0.5"/>
<path d="M271.874 28.553C261.374 23.053 242.374 16.553 231.874 13.553L229.874 16.053L244.874 23.553C243.374 26.053 239.374 28.053 233.374 30.753C245.374 30.053 262.374 29.053 271.874 28.553Z" fill="#EDADBF" stroke="black" stroke-width="0.5"/>
<path d="M277.376 34.853L283.374 32.553L272.875 28.553L228.875 31.053C221.375 46.053 206.375 76.553 198.375 77.553H212.875C211.375 66.553 220.875 43.053 245.876 52.053C256.376 46.553 266.376 41.053 277.376 34.853Z" fill="#EDADBF" stroke="black" stroke-width="0.5"/>
<path d="M278.374 34.553C266.374 41.053 256.374 46.553 245.874 52.053C250.374 55.053 260.874 61.053 259.874 80.053L284.874 79.553V78.053C293.374 77.053 301.874 80.553 300.374 66.553L302.374 56.553C302.374 55.053 299.874 51.053 297.374 50.553C298.874 48.053 295.874 39.053 295.874 39.053V37.553L291.874 34.553L286.874 33.053L283.374 32.553L278.374 34.553Z" fill="#EDADBF" stroke="black" stroke-width="0.5"/>
<path d="M281.374 27.053L272.874 28.553L283.374 32.553C292.874 33.553 291.873 35.053 295.868 37.4732L295.374 29.053L281.374 27.053Z" fill="#EDADBF"/>
<path d="M295.874 37.553L295.868 37.4732M295.868 37.4732L295.374 29.053L281.374 27.053L272.874 28.553L283.374 32.553C292.874 33.553 291.873 35.053 295.868 37.4732Z" stroke="black" stroke-width="0.5"/>
<path d="M294.376 37.0532C293.876 34.5531 282.876 34.353 277.376 34.853" stroke="black" stroke-width="0.5"/>
<path d="M300.376 67.053L260.876 69.053C260.376 64.053 258.209 59.8863 256.376 58.053L302.376 55.553M300.876 53.053C289.876 51.553 278.876 46.753 266.876 40.753M228.876 31.053L272.876 28.553L281.376 27.053" stroke="black" stroke-width="0.5"/>
<path d="M290.876 41.053C290.876 39.053 289.876 35.053 286.376 33.053C288.597 33.053 291.974 34.0934 294.485 36.463C294.949 37.993 293.876 41.553 290.834 43.053C290.821 42.4627 290.876 41.7773 290.876 41.053Z" fill="#EDADBF"/>
<path d="M272.876 43.553C279.872 43.9028 285.889 44.0079 291.269 44.553M297.876 45.553C295.773 45.1023 293.58 44.7871 291.269 44.553M295.876 38.053C295.458 37.4679 294.989 36.9386 294.485 36.463M291.269 44.553C290.943 44.2082 290.849 43.6852 290.834 43.053M290.834 43.053C290.821 42.4627 290.876 41.7773 290.876 41.053C290.876 39.053 289.876 35.053 286.376 33.053C288.597 33.053 291.974 34.0934 294.485 36.463M290.834 43.053C293.876 41.553 294.949 37.993 294.485 36.463" stroke="black" stroke-width="0.5"/>
<path d="M290.876 41.053C286.376 41.053 284.376 37.053 283.376 34.553" stroke="black" stroke-width="0.5"/>
<path d="M132.874 13.153C119.374 17.153 107.374 23.053 93.374 36.053C100.374 24.053 115.874 14.553 131.374 9.55298L132.874 13.153Z" stroke="black" stroke-width="0.5"/>
<path d="M131.374 9.55298C111.374 15.227 93.374 32.553 85.374 30.553C98.374 21.053 114.374 12.553 130.874 8.05298L131.374 9.55298Z" stroke="black" stroke-width="0.5"/>
<path d="M10.3747 48.5529H4.37469C1.87402 52.5529 1.87402 62.5529 2.37469 66.0529C0.874023 67.0529 0.874621 71.5529 1.87469 73.0529L5.87469 73.5529V75.0529L1.87469 77.0529V79.0529C5.87469 80.0529 14.3747 82.0529 22.3747 81.5529V80.0529H39.8747C39.208 71.5529 40.8747 61.0529 49.8747 54.0529C47.3747 50.0529 40.3747 45.5529 37.3747 45.0529C27.3747 44.0529 12.3747 46.5529 10.3747 48.5529Z" stroke="black" stroke-width="0.5"/>
<path d="M93.376 36.053C75.5426 36.8863 43.876 41.753 33.376 44.753L37.376 45.053C42.376 46.553 47.876 50.8863 49.876 54.053C62.875 44.553 88.375 51.553 86.875 79.053H96.875C89.875 68.053 90.875 46.053 93.376 36.053Z" stroke="black" stroke-width="0.5"/>
<path d="M10.374 48.553H4.37402C36.8742 29.0529 58.8743 35.053 84.874 30.553L93.8743 36.053C76.8743 37.053 47.874 40.553 33.874 44.753C25.874 44.553 11.874 46.553 10.374 48.553Z" stroke="black" stroke-width="0.5"/>
<path d="M37.3755 45.0531C29.8755 44.053 12.8755 46.053 10.3755 48.5531C9.57548 50.953 12.7088 53.8863 14.3755 55.053C23.8755 56.553 37.3755 50.553 37.3755 45.0531Z" stroke="black" stroke-width="0.5"/>
<path d="M4.37472 48.553C11.3747 49.553 5.37472 60.053 2.37472 65.053C1.87465 58.053 2.37451 52.553 4.37472 48.553Z" stroke="black" stroke-width="0.5"/>
<path d="M22.374 84.553V80.053H39.874L40.374 84.553H22.374Z" stroke="black" stroke-width="0.5"/>
<path d="M2.87598 66.0527C4.37598 68.5527 6.37598 71.7194 5.87598 73.5527M22.376 80.0527C11.876 80.5527 7.37598 76.5527 8.37598 73.0527C8.87598 72.5527 10.376 71.0527 11.376 71.0527" stroke="black" stroke-width="0.5"/>
<path d="M6.37598 66.0529C8.62592 65.5529 11.5008 64.9279 14.2508 64.5529M14.2508 64.5529C17.0008 64.1779 19.6259 64.0529 21.376 64.5529C24.376 66.0529 29.876 71.0529 32.376 75.0529C27.376 76.0529 20.376 75.5529 15.876 75.5529C13.1834 75.5529 11.876 73.2195 11.876 72.0529C11.376 69.0529 12.6258 65.8862 14.2508 64.5529Z" stroke="black" stroke-width="0.5"/>
<path d="M11.876 71.5529C19.876 70.053 23.376 72.6815 26.376 74.1815M13.376 74.553L30.876 74.053" stroke="black" stroke-width="0.5"/>
<path d="M22.374 83.0527H31.874C33.874 83.0527 35.374 81.0527 34.874 80.0527M38.374 80.0527V84.5527" stroke="black" stroke-width="0.5"/>
<path d="M22.3759 81.5532C17.8759 81.5532 13.3759 82.0532 1.87592 79.0532V77.0532L5.87592 75.0532V73.5532L1.87592 73.0532C1.375 71.553 0.375196 68.553 2.37519 66.053C1.87543 58.053 2.37543 51.553 4.37592 48.5527C36.8759 29.0531 58.8759 35.0532 84.8759 30.5532C162.876 -24.4469 244.876 12.553 281.876 27.0532L295.376 29.053L295.876 36.053V39.053C297.374 44.053 298.709 48.553 297.376 50.553C299.876 51.553 302.376 54.7196 302.376 56.553L300.376 66.553C300.828 77.4009 298.42 77.6252 289.088 77.9376C288.097 77.9708 286.028 78.005 284.876 78.053V79.553L259.876 79.984M22.3759 81.5532V84.5532H40.3743L39.8759 80.0532M22.3759 81.5532V80.0532H39.8759M39.8759 80.0532C36.8759 38.5532 90.3759 41.5532 86.8759 80.5532V83.053H213.376C207.376 39.553 261.876 39.553 259.876 79.984M259.374 79.984H259.876" stroke="black"/>
</svg>
