<svg width="304" height="95" viewBox="0 0 304 95" fill="none" xmlns="http://www.w3.org/2000/svg">
<circle cx="63.0835" cy="73.6768" r="20.5" fill="#EDADBF" stroke="black"/>
<circle cx="236.083" cy="73.6768" r="20.5" fill="#EDADBF" stroke="black"/>
<path d="M133.082 12.1766L131.582 8.67661C171.582 0.676725 193.082 1.17676 232.082 12.6767L228.582 17.1767C208.582 9.17667 190.582 8.17667 174.582 7.67673C172.082 7.17673 168.082 7.1767 165.582 7.67661C155.582 7.67673 143.582 9.17674 133.082 12.1766Z" stroke="black" stroke-width="0.5"/>
<path d="M131.582 8.6768L131.082 7.1768C167.082 -3.82324 199.582 0.176632 235.082 9.1768L232.082 12.6768C192.082 0.176758 166.082 1.67676 131.582 8.6768Z" stroke="black" stroke-width="0.5"/>
<path d="M131.582 8.67675C183.082 -2.82328 211.582 7.17676 232.082 12.6767" stroke="black" stroke-width="0.5"/>
<path d="M227.083 30.1768L224.083 15.6768C219.583 14.1768 208.083 8.67676 174.583 7.67676L171.083 29.6768C182.083 29.1768 199.583 27.6768 226.583 27.6768" stroke="black" stroke-width="0.5"/>
<path d="M165.583 7.67676C132.583 8.67676 112.583 17.6768 93.5835 35.1768L96.0835 33.1768L160.083 30.1768L165.583 7.67676Z" stroke="black" stroke-width="0.5"/>
<path d="M240.082 22.1768C236.415 19.5101 230.582 17.1768 224.082 15.6768L226.582 27.6768H233.082C236.082 26.1768 239.082 23.9455 240.082 22.1768Z" stroke="black" stroke-width="0.5"/>
<path d="M97.0835 78.1768H164.083L198.583 76.6768M97.0835 78.1768C97.0835 79.6768 97.5835 80.6768 98.5835 82.1768M97.0835 78.1768H87.0835V82.1768H98.5835M198.583 76.6768L199.583 82.1768M198.583 76.6768H213.083L213.583 82.1768H199.583M199.583 82.1768H98.5835" stroke="black" stroke-width="0.5"/>
<path d="M97.0826 78.1768C92.5835 73.6768 89.5835 51.6768 93.5826 35.1768L165.583 31.1768C161.583 36.1768 160.583 70.1768 164.083 78.1768H97.0826Z" stroke="black" stroke-width="0.5"/>
<path d="M229.083 30.1768L165.583 31.1768C161.583 36.1768 160.583 70.1768 164.083 78.1768L198.583 76.6768C203.083 75.1768 209.583 69.6768 229.083 30.1768Z" stroke="black" stroke-width="0.5"/>
<path d="M171.083 29.6768C166.583 30.1768 163.083 30.1768 160.083 30.1768L165.583 7.67683C168.583 7.17676 171.583 7.17676 174.583 7.67683L171.083 29.6768Z" stroke="black" stroke-width="0.5"/>
<path d="M99.5835 31.6769C104.083 37.1769 111.083 33.6769 115.083 32.1769C116.083 16.6768 103.083 24.6768 99.5835 31.6769Z" stroke="black" stroke-width="0.5"/>
<path d="M235.082 9.17676L232.082 12.6768C249.082 18.1768 259.582 21.1768 272.082 27.6768H273.582L281.582 26.1768C266.582 19.6768 259.082 17.1768 235.082 9.17676Z" fill="#EFC7D3" stroke="black" stroke-width="0.5"/>
<path d="M272.082 27.6768C261.582 22.1768 242.582 15.6768 232.082 12.6768L230.082 15.1768L245.082 22.6768C243.582 25.1768 239.582 27.1768 233.582 29.8768C245.582 29.1768 262.582 28.1768 272.082 27.6768Z" fill="#EFC7D3" stroke="black" stroke-width="0.5"/>
<path d="M277.583 33.9768L283.582 31.6768L273.083 27.6768L229.083 30.1768C221.583 45.1768 206.583 75.6768 198.583 76.6768H213.083C211.583 65.6768 221.083 42.1768 246.083 51.1768C256.583 45.6768 266.583 40.1768 277.583 33.9768Z" fill="#EFC7D3" stroke="black" stroke-width="0.5"/>
<path d="M278.582 33.6768C266.582 40.1768 256.582 45.6768 246.082 51.1768C250.582 54.1768 261.082 60.1768 260.082 79.1768L285.082 78.6768V77.1768C293.582 76.1768 302.082 79.6768 300.582 65.6768L302.582 55.6768C302.582 54.1768 300.082 50.1768 297.582 49.6768C299.082 47.1768 296.082 38.1768 296.082 38.1768V36.6768L292.082 33.6768L287.082 32.1768L283.582 31.6768L278.582 33.6768Z" fill="#EFC7D3" stroke="black" stroke-width="0.5"/>
<path d="M281.582 26.1768L273.082 27.6768L283.582 31.6768C293.082 32.6768 292.081 34.1768 296.076 36.5969L295.582 28.1768L281.582 26.1768Z" fill="#EFC7D3"/>
<path d="M296.082 36.6768L296.076 36.5969M296.076 36.5969L295.582 28.1768L281.582 26.1768L273.082 27.6768L283.582 31.6768C293.082 32.6768 292.081 34.1768 296.076 36.5969Z" stroke="black" stroke-width="0.5"/>
<path d="M294.583 36.177C294.083 33.6768 283.083 33.4768 277.583 33.9768" stroke="black" stroke-width="0.5"/>
<path d="M300.583 66.1768L261.083 68.1768C260.583 63.1768 258.417 59.0101 256.583 57.1768L302.583 54.6768M301.083 52.1768C290.083 50.6768 279.083 45.8768 267.083 39.8768M229.083 30.1768L273.083 27.6768L281.583 26.1768" stroke="black" stroke-width="0.5"/>
<path d="M291.083 40.1768C291.083 38.1768 290.083 34.1768 286.583 32.1768C288.804 32.1768 292.181 33.2171 294.692 35.5867C295.156 37.1167 294.083 40.6768 291.042 42.1768C291.028 41.5865 291.083 40.901 291.083 40.1768Z" fill="#EFC7D3"/>
<path d="M273.083 42.6768C280.079 43.0265 286.096 43.1316 291.477 43.6768M298.083 44.6768C295.981 44.2261 293.787 43.9109 291.477 43.6768M296.083 37.1768C295.666 36.5916 295.196 36.0624 294.692 35.5867M291.477 43.6768C291.15 43.332 291.056 42.8089 291.042 42.1768M291.042 42.1768C291.028 41.5865 291.083 40.901 291.083 40.1768C291.083 38.1768 290.083 34.1768 286.583 32.1768C288.804 32.1768 292.181 33.2171 294.692 35.5867M291.042 42.1768C294.083 40.6768 295.156 37.1167 294.692 35.5867" stroke="black" stroke-width="0.5"/>
<path d="M291.083 40.1768C286.583 40.1768 284.583 36.1768 283.583 33.6768" stroke="black" stroke-width="0.5"/>
<path d="M133.082 12.2767C119.582 16.2767 107.582 22.1768 93.582 35.1768C100.582 23.1768 116.082 13.6768 131.582 8.67676L133.082 12.2767Z" fill="#E56E90" stroke="black" stroke-width="0.5"/>
<path d="M131.582 8.67676C111.582 14.3508 93.582 31.6768 85.582 29.6768C98.582 20.1768 114.582 11.6768 131.082 7.17676L131.582 8.67676Z" fill="#E56E90" stroke="black" stroke-width="0.5"/>
<path d="M10.5827 47.6768H4.5827C2.08203 51.6768 2.08203 61.6768 2.5827 65.1768C1.08203 66.1768 1.08263 70.6768 2.0827 72.1768L6.0827 72.6768V74.1768L2.0827 76.1768V78.1768C6.0827 79.1768 14.5827 81.1768 22.5827 80.6768V79.1768H40.0827C39.416 70.6768 41.0827 60.1768 50.0827 53.1768C47.5827 49.1768 40.5827 44.6768 37.5827 44.1768C27.5827 43.1768 12.5827 45.6768 10.5827 47.6768Z" fill="#E56E90" stroke="black" stroke-width="0.5"/>
<path d="M93.5835 35.1768C75.7502 36.0101 44.0835 40.8768 33.5835 43.8768L37.5835 44.1768C42.5835 45.6768 48.0835 50.0101 50.0835 53.1768C63.0825 43.6768 88.5825 50.6768 87.0825 78.1768H97.0825C90.0825 67.1768 91.0825 45.1768 93.5835 35.1768Z" fill="#E56E90" stroke="black" stroke-width="0.5"/>
<path d="M10.582 47.6768H4.58203C37.0822 28.1767 59.0823 34.1768 85.082 29.6768L94.0823 35.1768C77.0823 36.1768 48.082 39.6768 34.082 43.8768C26.082 43.6767 12.082 45.6768 10.582 47.6768Z" fill="#E56E90" stroke="black" stroke-width="0.5"/>
<path d="M37.5835 44.1768C30.0835 43.1768 13.0835 45.1768 10.5835 47.6768C9.78349 50.0768 12.9168 53.0101 14.5835 54.1768C24.0835 55.6768 37.5835 49.6768 37.5835 44.1768Z" fill="#E56E90" stroke="black" stroke-width="0.5"/>
<path d="M4.58273 47.6768C11.5827 48.6768 5.58273 59.1768 2.58273 64.1768C2.08266 57.1768 2.58252 51.6768 4.58273 47.6768Z" fill="#E56E90" stroke="black" stroke-width="0.5"/>
<path d="M22.582 83.6768V79.1768H40.082L40.582 83.6768H22.582Z" fill="#E56E90" stroke="black" stroke-width="0.5"/>
<path d="M3.08398 65.1768C4.58398 67.6768 6.58398 70.8434 6.08398 72.6768M22.584 79.1768C12.084 79.6768 7.58398 75.6768 8.58398 72.1768C9.08398 71.6768 10.584 70.1768 11.584 70.1768" stroke="black" stroke-width="0.5"/>
<path d="M32.584 74.1768C30.084 70.1768 24.584 65.1768 21.584 63.6768C19.8339 63.1768 17.2088 63.3018 14.4588 63.6768C12.8338 65.0101 11.584 68.1768 12.084 71.1768C12.084 72.3434 13.3914 74.6768 16.084 74.6768C20.584 74.6768 27.584 75.1768 32.584 74.1768Z" fill="#E56E90"/>
<path d="M6.58398 65.1768C8.83393 64.6768 11.7088 64.0518 14.4588 63.6768M14.4588 63.6768C17.2088 63.3018 19.8339 63.1768 21.584 63.6768C24.584 65.1768 30.084 70.1768 32.584 74.1768C27.584 75.1768 20.584 74.6768 16.084 74.6768C13.3914 74.6768 12.084 72.3434 12.084 71.1768C11.584 68.1768 12.8338 65.0101 14.4588 63.6768Z" stroke="black" stroke-width="0.5"/>
<path d="M12.084 70.6768C20.084 69.1769 23.584 71.8054 26.584 73.3054M13.584 73.6769L31.084 73.1769" stroke="black" stroke-width="0.5"/>
<path d="M22.582 82.1768H32.082C34.082 82.1768 35.582 80.1768 35.082 79.1768M38.582 79.1768V83.6768" stroke="black" stroke-width="0.5"/>
<path d="M22.5834 80.677C18.0834 80.677 13.5834 81.177 2.08344 78.177V76.177L6.08344 74.177V72.677L2.08344 72.177C1.58252 70.6768 0.582715 67.6768 2.58271 65.1768C2.08295 57.1768 2.58295 50.6768 4.58344 47.6765C37.0834 28.1769 59.0834 34.1769 85.0834 29.6769C163.083 -25.3232 245.083 11.6767 282.083 26.1769L295.583 28.1768L296.083 35.1768V38.1768C297.582 43.1768 298.917 47.6768 297.583 49.6768C300.083 50.6768 302.583 53.8434 302.583 55.6768L300.583 65.6768C301.035 76.5247 298.627 76.7489 289.296 77.0614C288.305 77.0946 286.236 77.1288 285.083 77.1768V78.6768L260.083 79.1078M22.5834 80.677V83.677H40.5818L40.0835 79.177M22.5834 80.677V79.177H40.0835M40.0835 79.177C37.0835 37.677 90.5834 40.677 87.0834 79.677V82.1768H213.583C207.583 38.6768 262.083 38.6768 260.083 79.1078M259.582 79.1078H260.083" stroke="black"/>
</svg>
