<svg width="304" height="96" viewBox="0 0 304 96" fill="none" xmlns="http://www.w3.org/2000/svg">
<circle cx="63.0938" cy="74.3687" r="20.5" fill="#EDADBF" stroke="black"/>
<circle cx="236.094" cy="74.3687" r="20.5" fill="#EDADBF" stroke="black"/>
<path d="M133.092 12.8685L131.592 9.36851C171.592 1.36862 193.092 1.86865 232.092 13.3686L228.592 17.8686C208.592 9.86856 190.592 8.86856 174.592 8.36863C172.092 7.86863 168.092 7.86859 165.592 8.36851C155.592 8.36863 143.592 9.86863 133.092 12.8685Z" fill="#EDADBF" stroke="black" stroke-width="0.5"/>
<path d="M131.592 9.3687L131.092 7.8687C167.092 -3.13135 199.592 0.868526 235.092 9.8687L232.092 13.3687C192.092 0.868652 166.092 2.36865 131.592 9.3687Z" fill="#EDADBF" stroke="black" stroke-width="0.5"/>
<path d="M131.592 9.36876C183.092 -2.13126 211.592 7.86877 232.092 13.3688" stroke="black" stroke-width="0.5"/>
<path d="M171.094 30.3687L174.594 8.36865C208.094 9.36865 219.594 14.8687 224.094 16.3687L226.577 28.3687C199.586 28.3693 182.091 29.8688 171.094 30.3687Z" fill="#EDADBF"/>
<path d="M227.094 30.8687L224.094 16.3687C219.594 14.8687 208.094 9.36865 174.594 8.36865L171.094 30.3687C182.094 29.8687 199.594 28.3687 226.594 28.3687" stroke="black" stroke-width="0.5"/>
<path d="M165.594 8.36865C132.594 9.36865 112.594 18.3687 93.5938 35.8687L96.0938 33.8687L160.094 30.8687L165.594 8.36865Z" fill="#EDADBF" stroke="black" stroke-width="0.5"/>
<path d="M240.092 22.8687C236.425 20.202 230.592 17.8687 224.092 16.3687L226.592 28.3687H233.092C236.092 26.8687 239.092 24.6374 240.092 22.8687Z" fill="#EDADBF" stroke="black" stroke-width="0.5"/>
<path d="M97.0938 78.8687H164.094L198.594 77.3687H213.094L213.594 82.8687H199.594H98.5938H87.0938V78.8687H97.0938Z" fill="#EDADBF"/>
<path d="M97.0938 78.8687H164.094L198.594 77.3687M97.0938 78.8687C97.0938 80.3687 97.5938 81.3687 98.5938 82.8687M97.0938 78.8687H87.0938V82.8687H98.5938M198.594 77.3687L199.594 82.8687M198.594 77.3687H213.094L213.594 82.8687H199.594M199.594 82.8687H98.5938" stroke="black" stroke-width="0.5"/>
<path d="M97.0929 78.8687C92.5937 74.3687 89.5938 52.3687 93.5929 35.8687L165.594 31.8687C161.594 36.8687 160.594 70.8687 164.094 78.8687H97.0929Z" fill="#EDADBF" stroke="black" stroke-width="0.5"/>
<path d="M229.094 30.8687L165.594 31.8687C161.594 36.8687 160.594 70.8687 164.094 78.8687L198.594 77.3687C203.094 75.8687 209.594 70.3687 229.094 30.8687Z" fill="#EDADBF" stroke="black" stroke-width="0.5"/>
<path d="M171.094 30.3687C166.594 30.8687 163.094 30.8687 160.094 30.8687L165.594 8.36873C168.594 7.86865 171.594 7.86865 174.594 8.36873L171.094 30.3687Z" fill="#EDADBF" stroke="black" stroke-width="0.5"/>
<path d="M99.5938 32.3689C104.094 37.8689 111.094 34.3689 115.094 32.8689C116.094 17.3688 103.094 25.3688 99.5938 32.3689Z" fill="#EDADBF" stroke="black" stroke-width="0.5"/>
<path d="M235.092 9.86865L232.092 13.3687C249.092 18.8687 259.592 21.8687 272.092 28.3687H273.592L281.592 26.8687C266.592 20.3687 259.092 17.8687 235.092 9.86865Z" stroke="black" stroke-width="0.5"/>
<path d="M272.092 28.3687C261.592 22.8687 242.592 16.3687 232.092 13.3687L230.092 15.8687L245.092 23.3687C243.592 25.8687 239.592 27.8687 233.592 30.5687C245.592 29.8687 262.592 28.8687 272.092 28.3687Z" stroke="black" stroke-width="0.5"/>
<path d="M277.594 34.6687L283.592 32.3687L273.093 28.3687L229.093 30.8687C221.593 45.8687 206.593 76.3687 198.593 77.3687H213.093C211.593 66.3687 221.093 42.8687 246.094 51.8687C256.594 46.3687 266.594 40.8687 277.594 34.6687Z" stroke="black" stroke-width="0.5"/>
<path d="M278.592 34.3687C266.592 40.8687 256.592 46.3687 246.092 51.8687C250.592 54.8687 261.092 60.8687 260.092 79.8687L285.092 79.3687V77.8687C293.592 76.8687 302.092 80.3687 300.592 66.3687L302.592 56.3687C302.592 54.8687 300.092 50.8687 297.592 50.3687C299.092 47.8687 296.092 38.8687 296.092 38.8687V37.3687L292.092 34.3687L287.092 32.8687L283.592 32.3687L278.592 34.3687Z" stroke="black" stroke-width="0.5"/>
<path d="M296.092 37.3687L296.086 37.2888M296.086 37.2888L295.592 28.8687L281.592 26.8687L273.092 28.3687L283.592 32.3687C293.092 33.3687 292.091 34.8687 296.086 37.2888Z" stroke="black" stroke-width="0.5"/>
<path d="M294.594 36.8689C294.094 34.3687 283.094 34.1687 277.594 34.6687" stroke="black" stroke-width="0.5"/>
<path d="M300.594 66.8687L261.094 68.8687C260.594 63.8687 258.427 59.702 256.594 57.8687L302.594 55.3687M301.094 52.8687C290.094 51.3687 279.094 46.5687 267.094 40.5687M229.094 30.8687L273.094 28.3687L281.594 26.8687" stroke="black" stroke-width="0.5"/>
<path d="M273.094 43.3687C280.089 43.7184 286.106 43.8235 291.487 44.3687M298.094 45.3687C295.991 44.918 293.798 44.6028 291.487 44.3687M296.094 37.8687C295.676 37.2835 295.207 36.7543 294.703 36.2786M291.487 44.3687C291.161 44.0239 291.067 43.5008 291.052 42.8687M291.052 42.8687C291.038 42.2784 291.094 41.5929 291.094 40.8687C291.094 38.8687 290.094 34.8687 286.594 32.8687C288.815 32.8687 292.191 33.909 294.703 36.2786M291.052 42.8687C294.094 41.3687 295.166 37.8086 294.703 36.2786" stroke="black" stroke-width="0.5"/>
<path d="M291.094 40.8687C286.594 40.8687 284.594 36.8687 283.594 34.3687" stroke="black" stroke-width="0.5"/>
<path d="M133.092 12.9686C119.592 16.9686 107.592 22.8687 93.5923 35.8687C100.592 23.8687 116.092 14.3687 131.592 9.36865L133.092 12.9686Z" fill="#E56E90" stroke="black" stroke-width="0.5"/>
<path d="M131.592 9.36865C111.592 15.0427 93.5923 32.3687 85.5923 30.3687C98.5923 20.8687 114.592 12.3687 131.092 7.86865L131.592 9.36865Z" fill="#E56E90" stroke="black" stroke-width="0.5"/>
<path d="M10.593 48.3685H4.59295C2.09229 52.3685 2.09229 62.3685 2.59295 65.8685C1.09229 66.8685 1.09288 71.3685 2.09295 72.8685L6.09295 73.3685V74.8685L2.09295 76.8685V78.8685C6.09295 79.8685 14.593 81.8685 22.593 81.3685V79.8685H40.0929C39.4263 71.3685 41.0929 60.8685 50.0929 53.8685C47.5929 49.8685 40.5929 45.3685 37.5929 44.8685C27.5929 43.8685 12.593 46.3685 10.593 48.3685Z" fill="#E56E90" stroke="black" stroke-width="0.5"/>
<path d="M93.5938 35.8687C75.7604 36.702 44.0938 41.5687 33.5938 44.5687L37.5938 44.8687C42.5938 46.3687 48.0938 50.702 50.0938 53.8687C63.0928 44.3687 88.5928 51.3687 87.0928 78.8687H97.0928C90.0928 67.8687 91.0928 45.8687 93.5938 35.8687Z" fill="#E56E90" stroke="black" stroke-width="0.5"/>
<path d="M10.5918 48.3687H4.5918C37.092 28.8686 59.092 34.8687 85.0918 30.3687L94.092 35.8687C77.092 36.8687 48.0918 40.3686 34.0918 44.5687C26.0918 44.3686 12.0918 46.3686 10.5918 48.3687Z" fill="#E56E90" stroke="black" stroke-width="0.5"/>
<path d="M37.5937 44.8687C30.0937 43.8687 13.0937 45.8687 10.5937 48.3687C9.79374 50.7687 12.9271 53.702 14.5937 54.8687C24.0938 56.3687 37.5937 50.3687 37.5937 44.8687Z" fill="#E56E90" stroke="black" stroke-width="0.5"/>
<path d="M4.59298 48.3687C11.593 49.3687 5.59298 59.8687 2.59298 64.8687C2.09291 57.8687 2.59277 52.3687 4.59298 48.3687Z" fill="#E56E90" stroke="black" stroke-width="0.5"/>
<path d="M22.5923 84.3687V79.8687H40.0923L40.5923 84.3687H22.5923Z" fill="#E56E90" stroke="black" stroke-width="0.5"/>
<path d="M3.09375 65.8687C4.59375 68.3687 6.59375 71.5353 6.09375 73.3687M22.5938 79.8687C12.0938 80.3687 7.59375 76.3687 8.59375 72.8687C9.09375 72.3687 10.5938 70.8687 11.5938 70.8687" stroke="black" stroke-width="0.5"/>
<path d="M32.5938 74.8688C30.0938 70.8688 24.5938 65.8689 21.5938 64.3689C19.8437 63.8688 17.2186 63.9938 14.4685 64.3689C12.8436 65.7022 11.5938 68.8688 12.0938 71.8688C12.0938 73.0354 13.4012 75.3688 16.0938 75.3688C20.5938 75.3688 27.5938 75.8688 32.5938 74.8688Z" fill="#E56E90"/>
<path d="M6.59375 65.8689C8.84369 65.3688 11.7186 64.7438 14.4685 64.3689M14.4685 64.3689C17.2186 63.9938 19.8437 63.8688 21.5938 64.3689C24.5938 65.8689 30.0938 70.8688 32.5938 74.8688C27.5938 75.8688 20.5938 75.3688 16.0938 75.3688C13.4012 75.3688 12.0938 73.0354 12.0938 71.8688C11.5938 68.8688 12.8436 65.7022 14.4685 64.3689Z" stroke="black" stroke-width="0.5"/>
<path d="M12.0938 71.3688C20.0938 69.8689 23.5938 72.4974 26.5938 73.9974M13.5938 74.3689L31.0938 73.8689" stroke="black" stroke-width="0.5"/>
<path d="M22.5918 82.8687H32.0918C34.0918 82.8687 35.5918 80.8687 35.0918 79.8687M38.5918 79.8687V84.3687" stroke="black" stroke-width="0.5"/>
<path d="M22.5937 81.3689C18.0937 81.3689 13.5937 81.8689 2.0937 78.8689V76.8689L6.0937 74.8689V73.3689L2.0937 72.8689C1.59277 71.3687 0.592969 68.3687 2.59296 65.8687C2.09321 57.8687 2.59321 51.3687 4.5937 48.3684C37.0937 28.8688 59.0937 34.8688 85.0937 30.3688C163.094 -24.6313 245.094 12.3686 282.094 26.8688L295.594 28.8687L296.094 35.8687V38.8687C297.592 43.8687 298.927 48.3687 297.594 50.3687C300.094 51.3687 302.594 54.5353 302.594 56.3687L300.594 66.3687C301.046 77.2166 298.638 77.4408 289.306 77.7533C288.315 77.7865 286.246 77.8206 285.094 77.8687V79.3687L260.094 79.7997M22.5937 81.3689V84.3689H40.592L40.0937 79.8689M22.5937 81.3689V79.8689H40.0937M40.0937 79.8689C37.0937 38.3689 90.5937 41.3689 87.0937 80.3689V82.8687H213.594C207.594 39.3687 262.094 39.3687 260.094 79.7997M259.592 79.7997H260.094" stroke="black"/>
</svg>
