<svg width="304" height="95" viewBox="0 0 304 95" fill="none" xmlns="http://www.w3.org/2000/svg">
<circle cx="63.0518" cy="73.8459" r="20.5" fill="#EDADBF" stroke="black"/>
<circle cx="236.052" cy="73.8459" r="20.5" fill="#EDADBF" stroke="black"/>
<path d="M133.05 12.3458L131.55 8.8458C171.55 0.845915 193.05 1.34595 232.05 12.8459L228.55 17.3459C208.55 9.34586 190.55 8.34586 174.55 7.84592C172.05 7.34592 168.05 7.34589 165.55 7.8458C155.55 7.84592 143.55 9.34592 133.05 12.3458Z" stroke="black" stroke-width="0.5"/>
<path d="M131.55 8.84599L131.05 7.34599C167.05 -3.65405 199.55 0.345821 235.05 9.34599L232.05 12.846C192.05 0.345947 166.05 1.84595 131.55 8.84599Z" stroke="black" stroke-width="0.5"/>
<path d="M131.55 8.84593C183.05 -2.65409 211.55 7.34595 232.05 12.8459" stroke="black" stroke-width="0.5"/>
<path d="M227.052 30.3459L224.052 15.8459C219.552 14.3459 208.052 8.84595 174.552 7.84595L171.052 29.8459C182.052 29.3459 199.552 27.8459 226.552 27.8459" stroke="black" stroke-width="0.5"/>
<path d="M165.552 7.84595C132.552 8.84595 112.552 17.8459 93.5518 35.3459L96.0518 33.3459L160.052 30.3459L165.552 7.84595Z" stroke="black" stroke-width="0.5"/>
<path d="M240.05 22.3459C236.383 19.6793 230.55 17.3459 224.05 15.8459L226.55 27.8459H233.05C236.05 26.3459 239.05 24.1147 240.05 22.3459Z" stroke="black" stroke-width="0.5"/>
<path d="M97.0518 78.3459H164.052L198.552 76.8459M97.0518 78.3459C97.0518 79.8459 97.5518 80.8459 98.5518 82.3459M97.0518 78.3459H87.0518V82.3459H98.5518M198.552 76.8459L199.552 82.3459M198.552 76.8459H213.052L213.552 82.3459H199.552M199.552 82.3459H98.5518" stroke="black" stroke-width="0.5"/>
<path d="M97.0509 78.3459C92.5518 73.8459 89.5518 51.8459 93.5509 35.3459L165.552 31.3459C161.552 36.3459 160.552 70.3459 164.052 78.3459H97.0509Z" stroke="black" stroke-width="0.5"/>
<path d="M229.052 30.3459L165.552 31.3459C161.552 36.3459 160.552 70.3459 164.052 78.3459L198.552 76.8459C203.052 75.3459 209.552 69.8459 229.052 30.3459Z" stroke="black" stroke-width="0.5"/>
<path d="M171.052 29.846C166.552 30.346 163.052 30.346 160.052 30.346L165.552 7.84602C168.552 7.34595 171.552 7.34595 174.552 7.84602L171.052 29.846Z" stroke="black" stroke-width="0.5"/>
<path d="M99.5518 31.8461C104.052 37.3461 111.052 33.8461 115.052 32.3461C116.052 16.846 103.052 24.8459 99.5518 31.8461Z" stroke="black" stroke-width="0.5"/>
<path d="M235.05 9.34595L232.05 12.8459C249.05 18.3459 259.55 21.3459 272.05 27.8459H273.55L281.55 26.3459C266.55 19.8459 259.05 17.3459 235.05 9.34595Z" fill="#E0426F" stroke="black" stroke-width="0.5"/>
<path d="M272.05 27.8459C261.55 22.3459 242.55 15.8459 232.05 12.8459L230.05 15.3459L245.05 22.8459C243.55 25.3459 239.55 27.3459 233.55 30.0459C245.55 29.3459 262.55 28.3459 272.05 27.8459Z" fill="#E0426F" stroke="black" stroke-width="0.5"/>
<path d="M277.552 34.1459L283.55 31.8459L273.051 27.8459L229.051 30.3459C221.551 45.3459 206.551 75.8459 198.551 76.8459H213.051C211.551 65.8459 221.051 42.3459 246.052 51.3459C256.552 45.8459 266.552 40.3459 277.552 34.1459Z" fill="#E0426F" stroke="black" stroke-width="0.5"/>
<path d="M278.55 33.846C266.55 40.346 256.55 45.846 246.05 51.346C250.55 54.3459 261.05 60.3459 260.05 79.3459L285.05 78.8459V77.3459C293.55 76.3459 302.05 79.8459 300.55 65.8459L302.55 55.8459C302.55 54.3459 300.05 50.3459 297.55 49.8459C299.05 47.3459 296.05 38.3459 296.05 38.3459V36.8459L292.05 33.8459L287.05 32.3459L283.55 31.8459L278.55 33.846Z" fill="#E0426F" stroke="black" stroke-width="0.5"/>
<path d="M281.55 26.3459L273.05 27.8459L283.55 31.8459C293.05 32.8459 292.049 34.3459 296.044 36.7661L295.55 28.3459L281.55 26.3459Z" fill="#E0426F"/>
<path d="M296.05 36.8459L296.044 36.7661M296.044 36.7661L295.55 28.3459L281.55 26.3459L273.05 27.8459L283.55 31.8459C293.05 32.8459 292.049 34.3459 296.044 36.7661Z" stroke="black" stroke-width="0.5"/>
<path d="M294.552 36.3461C294.052 33.846 283.052 33.646 277.552 34.146" stroke="black" stroke-width="0.5"/>
<path d="M300.552 66.3459L261.052 68.3459C260.552 63.3459 258.385 59.1793 256.552 57.3459L302.552 54.8459M301.052 52.3459C290.052 50.8459 279.052 46.0459 267.052 40.0459M229.052 30.3459L273.052 27.8459L281.552 26.3459" stroke="black" stroke-width="0.5"/>
<path d="M291.052 40.3459C291.052 38.3459 290.052 34.3459 286.552 32.3459C288.773 32.3459 292.149 33.3863 294.661 35.7559C295.124 37.2859 294.052 40.8459 291.01 42.3459C290.996 41.7557 291.052 41.0702 291.052 40.3459Z" fill="#E0426F"/>
<path d="M273.052 42.8459C280.047 43.1957 286.064 43.3008 291.445 43.8459M298.052 44.8459C295.949 44.3953 293.756 44.08 291.445 43.8459M296.052 37.3459C295.634 36.7608 295.165 36.2316 294.661 35.7559M291.445 43.8459C291.119 43.5012 291.025 42.9781 291.01 42.3459M291.01 42.3459C290.996 41.7557 291.052 41.0702 291.052 40.3459C291.052 38.3459 290.052 34.3459 286.552 32.3459C288.773 32.3459 292.149 33.3863 294.661 35.7559M291.01 42.3459C294.052 40.8459 295.124 37.2859 294.661 35.7559" stroke="black" stroke-width="0.5"/>
<path d="M291.052 40.3459C286.552 40.3459 284.552 36.3459 283.552 33.8459" stroke="black" stroke-width="0.5"/>
<path d="M133.05 12.4459C119.55 16.4459 107.55 22.3459 93.5498 35.3459C100.55 23.3459 116.05 13.8459 131.55 8.84595L133.05 12.4459Z" fill="#E0426F" stroke="black" stroke-width="0.5"/>
<path d="M131.55 8.84595C111.55 14.52 93.5498 31.8459 85.5498 29.8459C98.5498 20.3459 114.55 11.8459 131.05 7.34595L131.55 8.84595Z" fill="#E0426F" stroke="black" stroke-width="0.5"/>
<path d="M10.5505 47.846H4.55047C2.0498 51.8459 2.0498 61.8459 2.55047 65.3459C1.0498 66.3459 1.0504 70.8459 2.05047 72.3459L6.05047 72.8459V74.3459L2.05047 76.3459V78.3459C6.05047 79.3459 14.5505 81.3459 22.5505 80.8459V79.3459H40.0505C39.3838 70.8459 41.0505 60.3459 50.0505 53.3459C47.5505 49.3459 40.5505 44.8459 37.5505 44.346C27.5505 43.3459 12.5505 45.846 10.5505 47.846Z" fill="#E0426F" stroke="black" stroke-width="0.5"/>
<path d="M93.5518 35.3459C75.7184 36.1793 44.0518 41.0459 33.5518 44.0459L37.5518 44.3459C42.5518 45.8459 48.0518 50.1793 50.0518 53.3459C63.0508 43.8459 88.5508 50.8459 87.0508 78.3459H97.0508C90.0508 67.3459 91.0508 45.3459 93.5518 35.3459Z" fill="#E0426F" stroke="black" stroke-width="0.5"/>
<path d="M10.5498 47.846H4.5498C37.05 28.3459 59.05 34.3459 85.0498 29.8459L94.05 35.3459C77.05 36.3459 48.0498 39.8459 34.0498 44.046C26.0498 43.8459 12.0498 45.8459 10.5498 47.846Z" fill="#E0426F" stroke="black" stroke-width="0.5"/>
<path d="M37.5513 44.346C30.0513 43.3459 13.0513 45.3459 10.5513 47.846C9.75126 50.246 12.8846 53.1793 14.5513 54.3459C24.0513 55.8459 37.5513 49.8459 37.5513 44.346Z" fill="#E0426F" stroke="black" stroke-width="0.5"/>
<path d="M4.5505 47.8459C11.5505 48.8459 5.5505 59.3459 2.5505 64.3459C2.05043 57.3459 2.55029 51.8459 4.5505 47.8459Z" fill="#E0426F" stroke="black" stroke-width="0.5"/>
<path d="M22.5498 83.8459V79.3459H40.0498L40.5498 83.8459H22.5498Z" fill="#E0426F" stroke="black" stroke-width="0.5"/>
<path d="M3.05176 65.3459C4.55176 67.8459 6.55176 71.0126 6.05176 72.8459M22.5518 79.3459C12.0518 79.8459 7.55176 75.8459 8.55176 72.3459C9.05176 71.8459 10.5518 70.3459 11.5518 70.3459" stroke="black" stroke-width="0.5"/>
<path d="M32.5518 74.3459C30.0518 70.3459 24.5518 65.346 21.5518 63.846C19.8017 63.346 17.1766 63.471 14.4265 63.846C12.8016 65.1793 11.5518 68.3459 12.0518 71.3459C12.0518 72.5126 13.3592 74.8459 16.0518 74.8459C20.5518 74.8459 27.5518 75.3459 32.5518 74.3459Z" fill="#E0426F"/>
<path d="M6.55176 65.346C8.8017 64.846 11.6766 64.221 14.4265 63.846M14.4265 63.846C17.1766 63.471 19.8017 63.346 21.5518 63.846C24.5518 65.346 30.0518 70.3459 32.5518 74.3459C27.5518 75.3459 20.5518 74.8459 16.0518 74.8459C13.3592 74.8459 12.0518 72.5126 12.0518 71.3459C11.5518 68.3459 12.8016 65.1793 14.4265 63.846Z" stroke="black" stroke-width="0.5"/>
<path d="M12.0518 70.846C20.0518 69.3461 23.5518 71.9745 26.5518 73.4745M13.5518 73.8461L31.0518 73.3461" stroke="black" stroke-width="0.5"/>
<path d="M22.5498 82.3459H32.0498C34.0498 82.3459 35.5498 80.3459 35.0498 79.3459M38.5498 79.3459V83.8459" stroke="black" stroke-width="0.5"/>
<path d="M22.5517 80.8462C18.0517 80.8462 13.5517 81.3462 2.0517 78.3462V76.3462L6.0517 74.3462V72.8462L2.0517 72.3462C1.55078 70.8459 0.550977 67.8459 2.55097 65.3459C2.05122 57.3459 2.55122 50.8459 4.5517 47.8457C37.0517 28.3461 59.0517 34.3461 85.0517 29.8461C163.052 -25.154 245.052 11.8459 282.052 26.3461L295.552 28.3459L296.052 35.3459V38.3459C297.55 43.3459 298.885 47.8459 297.552 49.8459C300.052 50.8459 302.552 54.0126 302.552 55.8459L300.552 65.8459C301.004 76.6939 298.596 76.9181 289.264 77.2306C288.273 77.2638 286.204 77.2979 285.052 77.3459V78.8459L260.052 79.277M22.5517 80.8462V83.8462H40.55L40.0517 79.3462M22.5517 80.8462V79.3462H40.0517M40.0517 79.3462C37.0517 37.8462 90.5517 40.8462 87.0517 79.8462V82.3459H213.552C207.552 38.8459 262.052 38.8459 260.052 79.277M259.55 79.277H260.052" stroke="black"/>
</svg>
