<svg width="303" height="96" viewBox="0 0 303 96" fill="none" xmlns="http://www.w3.org/2000/svg">
<circle cx="62.2607" cy="74.553" r="20.5" fill="#E56E90" stroke="black"/>
<circle cx="235.261" cy="74.553" r="20.5" fill="#E56E90" stroke="black"/>
<path d="M132.259 13.0528L130.759 9.55283C170.759 1.55295 192.259 2.05298 231.259 13.5529L227.759 18.0529C207.759 10.0529 189.759 9.05289 173.759 8.55296C171.259 8.05296 167.259 8.05292 164.759 8.55283C154.759 8.55296 142.759 10.053 132.259 13.0528Z" fill="#E0426F" stroke="black" stroke-width="0.5"/>
<path d="M130.759 9.55302L130.259 8.05302C166.259 -2.94702 198.759 1.05285 234.259 10.053L231.259 13.553C191.259 1.05298 165.259 2.55298 130.759 9.55302Z" fill="#E0426F" stroke="black" stroke-width="0.5"/>
<path d="M130.759 9.55284C182.259 -1.94718 210.759 8.05286 231.259 13.5528" stroke="black" stroke-width="0.5"/>
<path d="M170.261 30.553L173.761 8.55298C207.261 9.55298 218.761 15.053 223.261 16.553L225.743 28.553C198.753 28.5536 181.258 30.0531 170.261 30.553Z" fill="#E0426F"/>
<path d="M226.261 31.053L223.261 16.553C218.761 15.053 207.261 9.55298 173.761 8.55298L170.261 30.553C181.261 30.053 198.761 28.553 225.761 28.553" stroke="black" stroke-width="0.5"/>
<path d="M164.761 8.55298C131.761 9.55298 111.761 18.553 92.7607 36.053L95.2607 34.053L159.261 31.053L164.761 8.55298Z" fill="#E0426F" stroke="black" stroke-width="0.5"/>
<path d="M239.259 23.053C235.592 20.3863 229.759 18.053 223.259 16.553L225.759 28.553H232.259C235.259 27.053 238.259 24.8217 239.259 23.053Z" fill="#E0426F" stroke="black" stroke-width="0.5"/>
<path d="M96.2607 79.053H163.261L197.761 77.553H212.261L212.761 83.053H198.761H97.7607H86.2607V79.053H96.2607Z" fill="#E0426F"/>
<path d="M96.2607 79.053H163.261L197.761 77.553M96.2607 79.053C96.2607 80.553 96.7607 81.553 97.7607 83.053M96.2607 79.053H86.2607V83.053H97.7607M197.761 77.553L198.761 83.053M197.761 77.553H212.261L212.761 83.053H198.761M198.761 83.053H97.7607" stroke="black" stroke-width="0.5"/>
<path d="M96.2599 79.053C91.7607 74.553 88.7608 52.553 92.7599 36.053L164.761 32.053C160.761 37.053 159.761 71.053 163.261 79.053H96.2599Z" fill="#E0426F" stroke="black" stroke-width="0.5"/>
<path d="M228.261 31.053L164.761 32.053C160.761 37.053 159.761 71.053 163.261 79.053L197.761 77.553C202.261 76.053 208.761 70.553 228.261 31.053Z" fill="#E0426F" stroke="black" stroke-width="0.5"/>
<path d="M170.261 30.5531C165.761 31.0531 162.261 31.0531 159.261 31.0531L164.761 8.55305C167.761 8.05298 170.761 8.05298 173.761 8.55305L170.261 30.5531Z" fill="#E0426F" stroke="black" stroke-width="0.5"/>
<path d="M98.7607 32.553C103.261 38.053 110.261 34.553 114.261 33.053C115.261 17.5529 102.261 25.5529 98.7607 32.553Z" fill="#E0426F" stroke="black" stroke-width="0.5"/>
<path d="M234.259 10.053L231.259 13.553C248.259 19.053 258.759 22.053 271.259 28.553H272.759L280.759 27.053C265.759 20.553 258.259 18.053 234.259 10.053Z" fill="#E56E90" stroke="black" stroke-width="0.5"/>
<path d="M271.259 28.553C260.759 23.053 241.759 16.553 231.259 13.553L229.259 16.053L244.259 23.553C242.759 26.053 238.759 28.053 232.759 30.753C244.759 30.053 261.759 29.053 271.259 28.553Z" fill="#E56E90" stroke="black" stroke-width="0.5"/>
<path d="M276.761 34.853L282.759 32.553L272.26 28.553L228.26 31.053C220.76 46.053 205.76 76.553 197.76 77.553H212.26C210.76 66.553 220.26 43.053 245.261 52.053C255.761 46.553 265.761 41.053 276.761 34.853Z" fill="#E56E90" stroke="black" stroke-width="0.5"/>
<path d="M277.759 34.553C265.759 41.053 255.759 46.553 245.259 52.053C249.759 55.053 260.259 61.053 259.259 80.053L284.259 79.553V78.053C292.759 77.053 301.259 80.553 299.759 66.553L301.759 56.553C301.759 55.053 299.259 51.053 296.759 50.553C298.259 48.053 295.259 39.053 295.259 39.053V37.553L291.259 34.553L286.259 33.053L282.759 32.553L277.759 34.553Z" fill="#E56E90" stroke="black" stroke-width="0.5"/>
<path d="M280.759 27.053L272.259 28.553L282.759 32.553C292.259 33.553 291.258 35.053 295.253 37.4732L294.759 29.053L280.759 27.053Z" fill="#E56E90"/>
<path d="M295.259 37.553L295.253 37.4732M295.253 37.4732L294.759 29.053L280.759 27.053L272.259 28.553L282.759 32.553C292.259 33.553 291.258 35.053 295.253 37.4732Z" stroke="black" stroke-width="0.5"/>
<path d="M293.761 37.0532C293.261 34.5531 282.261 34.353 276.761 34.853" stroke="black" stroke-width="0.5"/>
<path d="M299.761 67.053L260.261 69.053C259.761 64.053 257.594 59.8863 255.761 58.053L301.761 55.553M300.261 53.053C289.261 51.553 278.261 46.753 266.261 40.753M228.261 31.053L272.261 28.553L280.761 27.053" stroke="black" stroke-width="0.5"/>
<path d="M290.261 41.053C290.261 39.053 289.261 35.053 285.761 33.053C287.982 33.053 291.358 34.0934 293.87 36.463C294.333 37.993 293.261 41.553 290.219 43.053C290.205 42.4627 290.261 41.7773 290.261 41.053Z" fill="#E56E90"/>
<path d="M272.261 43.553C279.256 43.9028 285.273 44.0079 290.654 44.553M297.261 45.553C295.158 45.1023 292.964 44.7871 290.654 44.553M295.261 38.053C294.843 37.4679 294.374 36.9386 293.87 36.463M290.654 44.553C290.328 44.2082 290.234 43.6852 290.219 43.053M290.219 43.053C290.205 42.4627 290.261 41.7773 290.261 41.053C290.261 39.053 289.261 35.053 285.761 33.053C287.982 33.053 291.358 34.0934 293.87 36.463M290.219 43.053C293.261 41.553 294.333 37.993 293.87 36.463" stroke="black" stroke-width="0.5"/>
<path d="M290.261 41.053C285.761 41.053 283.761 37.053 282.761 34.553" stroke="black" stroke-width="0.5"/>
<path d="M132.259 13.153C118.759 17.153 106.759 23.053 92.7588 36.053C99.7588 24.053 115.259 14.553 130.759 9.55298L132.259 13.153Z" stroke="black" stroke-width="0.5"/>
<path d="M130.759 9.55298C110.759 15.227 92.7588 32.553 84.7588 30.553C97.7588 21.053 113.759 12.553 130.259 8.05298L130.759 9.55298Z" stroke="black" stroke-width="0.5"/>
<path d="M9.75946 48.5529H3.75946C1.25879 52.5529 1.25879 62.5529 1.75946 66.0529C0.258789 67.0529 0.259387 71.5529 1.25946 73.0529L5.25946 73.5529V75.0529L1.25946 77.0529V79.0529C5.25946 80.0529 13.7595 82.0529 21.7595 81.5529V80.0529H39.2595C38.5928 71.5529 40.2595 61.0529 49.2595 54.0529C46.7595 50.0529 39.7595 45.5529 36.7595 45.0529C26.7595 44.0529 11.7595 46.5529 9.75946 48.5529Z" stroke="black" stroke-width="0.5"/>
<path d="M92.7607 36.053C74.9274 36.8863 43.2607 41.753 32.7607 44.753L36.7607 45.053C41.7607 46.553 47.2607 50.8863 49.2607 54.053C62.2598 44.553 87.7598 51.553 86.2598 79.053H96.2598C89.2598 68.053 90.2598 46.053 92.7607 36.053Z" stroke="black" stroke-width="0.5"/>
<path d="M9.75879 48.553H3.75879C36.259 29.0529 58.259 35.053 84.2588 30.553L93.259 36.053C76.259 37.053 47.2588 40.553 33.2588 44.753C25.2588 44.553 11.2588 46.553 9.75879 48.553Z" stroke="black" stroke-width="0.5"/>
<path d="M36.7602 45.0531C29.2602 44.053 12.2602 46.053 9.76024 48.5531C8.96024 50.953 12.0936 53.8863 13.7602 55.053C23.2603 56.553 36.7602 50.553 36.7602 45.0531Z" stroke="black" stroke-width="0.5"/>
<path d="M3.75948 48.553C10.7595 49.553 4.75948 60.053 1.75948 65.053C1.25941 58.053 1.75928 52.553 3.75948 48.553Z" stroke="black" stroke-width="0.5"/>
<path d="M21.7588 84.553V80.053H39.2588L39.7588 84.553H21.7588Z" stroke="black" stroke-width="0.5"/>
<path d="M2.26074 66.0527C3.76074 68.5527 5.76074 71.7194 5.26074 73.5527M21.7607 80.0527C11.2607 80.5527 6.76074 76.5527 7.76074 73.0527C8.26074 72.5527 9.76074 71.0527 10.7607 71.0527" stroke="black" stroke-width="0.5"/>
<path d="M5.76074 66.0529C8.01068 65.5529 10.8856 64.9279 13.6355 64.5529M13.6355 64.5529C16.3856 64.1779 19.0107 64.0529 20.7607 64.5529C23.7607 66.0529 29.2607 71.0529 31.7607 75.0529C26.7607 76.0529 19.7607 75.5529 15.2607 75.5529C12.5682 75.5529 11.2607 73.2195 11.2607 72.0529C10.7607 69.0529 12.0106 65.8862 13.6355 64.5529Z" stroke="black" stroke-width="0.5"/>
<path d="M11.2607 71.5529C19.2607 70.053 22.7607 72.6815 25.7607 74.1815M12.7607 74.553L30.2607 74.053" stroke="black" stroke-width="0.5"/>
<path d="M21.7588 83.0527H31.2588C33.2588 83.0527 34.7588 81.0527 34.2588 80.0527M37.7588 80.0527V84.5527" stroke="black" stroke-width="0.5"/>
<path d="M21.7607 81.5532C17.2607 81.5532 12.7607 82.0532 1.26069 79.0532V77.0532L5.26069 75.0532V73.5532L1.26069 73.0532C0.759766 71.553 -0.240039 68.553 1.75996 66.053C1.2602 58.053 1.7602 51.553 3.76069 48.5527C36.2607 29.0531 58.2607 35.0532 84.2607 30.5532C162.261 -24.4469 244.261 12.553 281.261 27.0532L294.761 29.053L295.261 36.053V39.053C296.759 44.053 298.094 48.553 296.761 50.553C299.261 51.553 301.761 54.7196 301.761 56.553L299.761 66.553C300.213 77.4009 297.805 77.6252 288.473 77.9376C287.482 77.9708 285.413 78.005 284.261 78.053V79.553L259.261 79.984M21.7607 81.5532V84.5532H39.759L39.2607 80.0532M21.7607 81.5532V80.0532H39.2607M39.2607 80.0532C36.2607 38.5532 89.7607 41.5532 86.2607 80.5532V83.053H212.761C206.761 39.553 261.261 39.553 259.261 79.984M258.759 79.984H259.261" stroke="black"/>
</svg>
