<svg width="303" height="95" viewBox="0 0 303 95" fill="none" xmlns="http://www.w3.org/2000/svg">
<circle cx="62.458" cy="73.6919" r="20.5" fill="#E0426F" stroke="black"/>
<circle cx="235.458" cy="73.6919" r="20.5" fill="#E0426F" stroke="black"/>
<path d="M132.456 12.1918L130.956 8.69175C170.956 0.691862 192.456 1.19189 231.456 12.6918L227.956 17.1918C207.956 9.1918 189.956 8.1918 173.956 7.69187C171.456 7.19187 167.456 7.19183 164.956 7.69175C154.956 7.69187 142.956 9.19187 132.456 12.1918Z" fill="#EFC7D3" stroke="black" stroke-width="0.5"/>
<path d="M130.956 8.69194L130.456 7.19194C166.456 -3.80811 198.956 0.191769 234.456 9.19194L231.456 12.6919C191.456 0.191895 165.456 1.69189 130.956 8.69194Z" fill="#EFC7D3" stroke="black" stroke-width="0.5"/>
<path d="M130.956 8.692C182.456 -2.80802 210.956 7.19202 231.456 12.692" stroke="black" stroke-width="0.5"/>
<path d="M170.458 29.6919L173.958 7.69189C207.458 8.69189 218.958 14.1919 223.458 15.6919L225.941 27.6919C198.951 27.6925 181.456 29.192 170.458 29.6919Z" fill="#EFC7D3"/>
<path d="M226.458 30.1919L223.458 15.6919C218.958 14.1919 207.458 8.69189 173.958 7.69189L170.458 29.6919C181.458 29.1919 198.958 27.6919 225.958 27.6919" stroke="black" stroke-width="0.5"/>
<path d="M164.958 7.69189C131.958 8.69189 111.958 17.6919 92.958 35.1919L95.458 33.1919L159.458 30.1919L164.958 7.69189Z" fill="#EFC7D3" stroke="black" stroke-width="0.5"/>
<path d="M239.456 22.1919C235.789 19.5252 229.956 17.1919 223.456 15.6919L225.956 27.6919H232.456C235.456 26.1919 238.456 23.9606 239.456 22.1919Z" fill="#EFC7D3" stroke="black" stroke-width="0.5"/>
<path d="M96.458 78.1919H163.458L197.958 76.6919H212.458L212.958 82.1919H198.958H97.958H86.458V78.1919H96.458Z" fill="#EFC7D3"/>
<path d="M96.458 78.1919H163.458L197.958 76.6919M96.458 78.1919C96.458 79.6919 96.958 80.6919 97.958 82.1919M96.458 78.1919H86.458V82.1919H97.958M197.958 76.6919L198.958 82.1919M197.958 76.6919H212.458L212.958 82.1919H198.958M198.958 82.1919H97.958" stroke="black" stroke-width="0.5"/>
<path d="M96.4571 78.1919C91.958 73.6919 88.9581 51.6919 92.9571 35.1919L164.958 31.1919C160.958 36.1919 159.958 70.1919 163.458 78.1919H96.4571Z" fill="#EFC7D3" stroke="black" stroke-width="0.5"/>
<path d="M228.458 30.1919L164.958 31.1919C160.958 36.1919 159.958 70.1919 163.458 78.1919L197.958 76.6919C202.458 75.1919 208.958 69.6919 228.458 30.1919Z" fill="#EFC7D3" stroke="black" stroke-width="0.5"/>
<path d="M170.458 29.692C165.958 30.192 162.458 30.192 159.458 30.192L164.958 7.69197C167.958 7.19189 170.958 7.19189 173.958 7.69197L170.458 29.692Z" fill="#EFC7D3" stroke="black" stroke-width="0.5"/>
<path d="M98.958 31.6922C103.458 37.1922 110.458 33.6922 114.458 32.1922C115.458 16.692 102.458 24.692 98.958 31.6922Z" fill="#EFC7D3" stroke="black" stroke-width="0.5"/>
<path d="M234.456 9.19189L231.456 12.6919C248.456 18.1919 258.956 21.1919 271.456 27.6919H272.956L280.956 26.1919C265.956 19.6919 258.456 17.1919 234.456 9.19189Z" fill="#E56E90" stroke="black" stroke-width="0.5"/>
<path d="M271.456 27.6919C260.956 22.1919 241.956 15.6919 231.456 12.6919L229.456 15.1919L244.456 22.6919C242.956 25.1919 238.956 27.1919 232.956 29.8919C244.956 29.1919 261.956 28.1919 271.456 27.6919Z" fill="#E56E90" stroke="black" stroke-width="0.5"/>
<path d="M276.958 33.9919L282.956 31.6919L272.457 27.6919L228.457 30.1919C220.957 45.1919 205.957 75.6919 197.957 76.6919H212.457C210.957 65.6919 220.457 42.1919 245.458 51.1919C255.958 45.6919 265.958 40.1919 276.958 33.9919Z" fill="#E56E90" stroke="black" stroke-width="0.5"/>
<path d="M277.956 33.6919C265.956 40.1919 255.956 45.6919 245.456 51.1919C249.956 54.1919 260.456 60.1919 259.456 79.1919L284.456 78.6919V77.1919C292.956 76.1919 301.456 79.6919 299.956 65.6919L301.956 55.6919C301.956 54.1919 299.456 50.1919 296.956 49.6919C298.456 47.1919 295.456 38.1919 295.456 38.1919V36.6919L291.456 33.6919L286.456 32.1919L282.956 31.6919L277.956 33.6919Z" fill="#E56E90" stroke="black" stroke-width="0.5"/>
<path d="M280.956 26.1919L272.456 27.6919L282.956 31.6919C292.456 32.6919 291.455 34.1919 295.45 36.6121L294.956 28.1919L280.956 26.1919Z" fill="#E56E90"/>
<path d="M295.456 36.6919L295.45 36.6121M295.45 36.6121L294.956 28.1919L280.956 26.1919L272.456 27.6919L282.956 31.6919C292.456 32.6919 291.455 34.1919 295.45 36.6121Z" stroke="black" stroke-width="0.5"/>
<path d="M293.958 36.1921C293.458 33.692 282.458 33.4919 276.958 33.9919" stroke="black" stroke-width="0.5"/>
<path d="M299.958 66.1919L260.458 68.1919C259.958 63.1919 257.791 59.0252 255.958 57.1919L301.958 54.6919M300.458 52.1919C289.458 50.6919 278.458 45.8919 266.458 39.8919M228.458 30.1919L272.458 27.6919L280.958 26.1919" stroke="black" stroke-width="0.5"/>
<path d="M290.458 40.1919C290.458 38.1919 289.458 34.1919 285.958 32.1919C288.179 32.1919 291.556 33.2323 294.067 35.6019C294.531 37.1319 293.458 40.6919 290.416 42.1919C290.403 41.6016 290.458 40.9162 290.458 40.1919Z" fill="#E56E90"/>
<path d="M272.458 42.6919C279.454 43.0417 285.471 43.1468 290.851 43.6919M297.458 44.6919C295.355 44.2413 293.162 43.926 290.851 43.6919M295.458 37.1919C295.04 36.6068 294.571 36.0775 294.067 35.6019M290.851 43.6919C290.525 43.3471 290.431 42.8241 290.416 42.1919M290.416 42.1919C290.403 41.6016 290.458 40.9162 290.458 40.1919C290.458 38.1919 289.458 34.1919 285.958 32.1919C288.179 32.1919 291.556 33.2323 294.067 35.6019M290.416 42.1919C293.458 40.6919 294.531 37.1319 294.067 35.6019" stroke="black" stroke-width="0.5"/>
<path d="M290.458 40.1919C285.958 40.1919 283.958 36.1919 282.958 33.6919" stroke="black" stroke-width="0.5"/>
<path d="M132.456 12.2919C118.956 16.2919 106.956 22.1919 92.9561 35.1919C99.9561 23.1919 115.456 13.6919 130.956 8.69189L132.456 12.2919Z" fill="#E0426F" stroke="black" stroke-width="0.5"/>
<path d="M130.956 8.69189C110.956 14.3659 92.9561 31.6919 84.9561 29.6919C97.9561 20.1919 113.956 11.6919 130.456 7.19189L130.956 8.69189Z" fill="#E0426F" stroke="black" stroke-width="0.5"/>
<path d="M9.95672 47.6918H3.95672C1.45605 51.6918 1.45605 61.6918 1.95672 65.1918C0.456055 66.1918 0.456652 70.6918 1.45672 72.1918L5.45672 72.6918V74.1918L1.45672 76.1918V78.1918C5.45672 79.1918 13.9567 81.1918 21.9567 80.6918V79.1918H39.4567C38.7901 70.6918 40.4567 60.1918 49.4567 53.1918C46.9567 49.1918 39.9567 44.6918 36.9567 44.1918C26.9567 43.1918 11.9567 45.6918 9.95672 47.6918Z" fill="#E0426F" stroke="black" stroke-width="0.5"/>
<path d="M92.958 35.1919C75.1247 36.0252 43.458 40.8919 32.958 43.8919L36.958 44.1919C41.958 45.6919 47.458 50.0252 49.458 53.1919C62.457 43.6919 87.957 50.6919 86.457 78.1919H96.457C89.457 67.1919 90.457 45.1919 92.958 35.1919Z" fill="#E0426F" stroke="black" stroke-width="0.5"/>
<path d="M9.95606 47.6919H3.95605C36.4562 28.1918 58.4563 34.1919 84.4561 29.6919L93.4563 35.1919C76.4563 36.1919 47.4561 39.6919 33.4561 43.8919C25.4561 43.6919 11.4561 45.6919 9.95606 47.6919Z" fill="#E0426F" stroke="black" stroke-width="0.5"/>
<path d="M36.9575 44.192C29.4575 43.1919 12.4575 45.1919 9.95751 47.692C9.15751 50.0919 12.2908 53.0252 13.9575 54.1919C23.4575 55.6919 36.9575 49.6919 36.9575 44.192Z" fill="#E0426F" stroke="black" stroke-width="0.5"/>
<path d="M3.95675 47.6919C10.9568 48.6919 4.95675 59.1919 1.95675 64.1919C1.45668 57.1919 1.95654 51.6919 3.95675 47.6919Z" fill="#E0426F" stroke="black" stroke-width="0.5"/>
<path d="M21.9561 83.6919V79.1919H39.4561L39.9561 83.6919H21.9561Z" fill="#E0426F" stroke="black" stroke-width="0.5"/>
<path d="M2.45801 65.1919C3.95801 67.6919 5.95801 70.8586 5.45801 72.6919M21.958 79.1919C11.458 79.6919 6.95801 75.6919 7.95801 72.1919C8.45801 71.6919 9.95801 70.1919 10.958 70.1919" stroke="black" stroke-width="0.5"/>
<path d="M31.958 74.192C29.458 70.192 23.958 65.1921 20.958 63.6921C19.208 63.1921 16.5829 63.3171 13.8328 63.6921C12.2079 65.0254 10.958 68.192 11.458 71.192C11.458 72.3587 12.7654 74.692 15.458 74.692C19.958 74.692 26.958 75.192 31.958 74.192Z" fill="#E0426F"/>
<path d="M5.95801 65.1921C8.20795 64.6921 11.0829 64.0671 13.8328 63.6921M13.8328 63.6921C16.5829 63.3171 19.208 63.1921 20.958 63.6921C23.958 65.1921 29.458 70.192 31.958 74.192C26.958 75.192 19.958 74.692 15.458 74.692C12.7654 74.692 11.458 72.3587 11.458 71.192C10.958 68.192 12.2079 65.0254 13.8328 63.6921Z" stroke="black" stroke-width="0.5"/>
<path d="M11.458 70.6921C19.458 69.1921 22.958 71.8206 25.958 73.3206M12.958 73.6921L30.458 73.1921" stroke="black" stroke-width="0.5"/>
<path d="M21.9561 82.1919H31.4561C33.4561 82.1919 34.9561 80.1919 34.4561 79.1919M37.9561 79.1919V83.6919" stroke="black" stroke-width="0.5"/>
<path d="M21.958 80.6921C17.458 80.6921 12.958 81.1921 1.45795 78.1921V76.1921L5.45795 74.1921V72.6921L1.45795 72.1921C0.957031 70.6919 -0.0427729 67.6919 1.95722 65.1919C1.45747 57.1919 1.95747 50.6919 3.95795 47.6916C36.458 28.192 58.4579 34.1921 84.4579 29.6921C162.458 -25.308 244.458 11.6919 281.458 26.1921L294.958 28.1919L295.458 35.1919V38.1919C296.956 43.1919 298.291 47.6919 296.958 49.6919C299.458 50.6919 301.958 53.8586 301.958 55.6919L299.958 65.6919C300.41 76.5398 298.002 76.7641 288.67 77.0765C287.679 77.1097 285.61 77.1439 284.458 77.1919V78.6919L259.458 79.1229M21.958 80.6921V83.6921H39.9563L39.458 79.1921M21.958 80.6921V79.1921H39.458M39.458 79.1921C36.458 37.6921 89.9579 40.6921 86.4579 79.6921V82.1919H212.958C206.958 38.6919 261.458 38.6919 259.458 79.1229M258.956 79.1229H259.458" stroke="black"/>
</svg>
