<svg width="303" height="96" viewBox="0 0 303 96" fill="none" xmlns="http://www.w3.org/2000/svg">
<circle cx="62.4697" cy="74.553" r="20.5" fill="#E0426F" stroke="black"/>
<circle cx="235.47" cy="74.553" r="20.5" fill="#E0426F" stroke="black"/>
<path d="M132.468 13.0528L130.968 9.55283C170.968 1.55295 192.468 2.05298 231.468 13.5529L227.968 18.0529C207.968 10.0529 189.968 9.05289 173.968 8.55296C171.468 8.05296 167.468 8.05292 164.968 8.55283C154.968 8.55296 142.968 10.053 132.468 13.0528Z" fill="#E0426F" stroke="black" stroke-width="0.5"/>
<path d="M130.968 9.55302L130.468 8.05302C166.468 -2.94702 198.968 1.05285 234.468 10.053L231.468 13.553C191.468 1.05298 165.468 2.55298 130.968 9.55302Z" fill="#E0426F" stroke="black" stroke-width="0.5"/>
<path d="M130.968 9.55284C182.468 -1.94718 210.968 8.05286 231.468 13.5528" stroke="black" stroke-width="0.5"/>
<path d="M170.47 30.553L173.97 8.55298C207.47 9.55298 218.97 15.053 223.47 16.553L225.952 28.553C198.962 28.5536 181.467 30.0531 170.47 30.553Z" fill="#E0426F"/>
<path d="M226.47 31.053L223.47 16.553C218.97 15.053 207.47 9.55298 173.97 8.55298L170.47 30.553C181.47 30.053 198.97 28.553 225.97 28.553" stroke="black" stroke-width="0.5"/>
<path d="M164.97 8.55298C131.97 9.55298 111.97 18.553 92.9697 36.053L95.4697 34.053L159.47 31.053L164.97 8.55298Z" fill="#E0426F" stroke="black" stroke-width="0.5"/>
<path d="M239.468 23.053C235.801 20.3863 229.968 18.053 223.468 16.553L225.968 28.553H232.468C235.468 27.053 238.468 24.8217 239.468 23.053Z" fill="#E0426F" stroke="black" stroke-width="0.5"/>
<path d="M96.4697 79.053H163.47L197.97 77.553H212.47L212.97 83.053H198.97H97.9697H86.4697V79.053H96.4697Z" fill="#E0426F"/>
<path d="M96.4697 79.053H163.47L197.97 77.553M96.4697 79.053C96.4697 80.553 96.9697 81.553 97.9697 83.053M96.4697 79.053H86.4697V83.053H97.9697M197.97 77.553L198.97 83.053M197.97 77.553H212.47L212.97 83.053H198.97M198.97 83.053H97.9697" stroke="black" stroke-width="0.5"/>
<path d="M96.4689 79.053C91.9697 74.553 88.9698 52.553 92.9689 36.053L164.97 32.053C160.97 37.053 159.97 71.053 163.47 79.053H96.4689Z" fill="#E0426F" stroke="black" stroke-width="0.5"/>
<path d="M228.47 31.053L164.97 32.053C160.97 37.053 159.97 71.053 163.47 79.053L197.97 77.553C202.47 76.053 208.97 70.553 228.47 31.053Z" fill="#E0426F" stroke="black" stroke-width="0.5"/>
<path d="M170.47 30.5531C165.97 31.0531 162.47 31.0531 159.47 31.0531L164.97 8.55305C167.97 8.05298 170.97 8.05298 173.97 8.55305L170.47 30.5531Z" fill="#E0426F" stroke="black" stroke-width="0.5"/>
<path d="M98.9697 32.553C103.47 38.053 110.47 34.553 114.47 33.053C115.47 17.5529 102.47 25.5529 98.9697 32.553Z" fill="#E0426F" stroke="black" stroke-width="0.5"/>
<path d="M234.468 10.053L231.468 13.553C248.468 19.053 258.968 22.053 271.468 28.553H272.968L280.968 27.053C265.968 20.553 258.468 18.053 234.468 10.053Z" fill="#EDADBF" stroke="black" stroke-width="0.5"/>
<path d="M271.468 28.553C260.968 23.053 241.968 16.553 231.468 13.553L229.468 16.053L244.468 23.553C242.968 26.053 238.968 28.053 232.968 30.753C244.968 30.053 261.968 29.053 271.468 28.553Z" fill="#EDADBF" stroke="black" stroke-width="0.5"/>
<path d="M276.97 34.853L282.968 32.553L272.469 28.553L228.469 31.053C220.969 46.053 205.969 76.553 197.969 77.553H212.469C210.969 66.553 220.469 43.053 245.47 52.053C255.97 46.553 265.97 41.053 276.97 34.853Z" fill="#EDADBF" stroke="black" stroke-width="0.5"/>
<path d="M277.968 34.553C265.968 41.053 255.968 46.553 245.468 52.053C249.968 55.053 260.468 61.053 259.468 80.053L284.468 79.553V78.053C292.968 77.053 301.468 80.553 299.968 66.553L301.968 56.553C301.968 55.053 299.468 51.053 296.968 50.553C298.468 48.053 295.468 39.053 295.468 39.053V37.553L291.468 34.553L286.468 33.053L282.968 32.553L277.968 34.553Z" fill="#EDADBF" stroke="black" stroke-width="0.5"/>
<path d="M280.968 27.053L272.468 28.553L282.968 32.553C292.468 33.553 291.467 35.053 295.462 37.4732L294.968 29.053L280.968 27.053Z" fill="#EDADBF"/>
<path d="M295.468 37.553L295.462 37.4732M295.462 37.4732L294.968 29.053L280.968 27.053L272.468 28.553L282.968 32.553C292.468 33.553 291.467 35.053 295.462 37.4732Z" stroke="black" stroke-width="0.5"/>
<path d="M293.97 37.0532C293.47 34.5531 282.47 34.353 276.97 34.853" stroke="black" stroke-width="0.5"/>
<path d="M299.97 67.053L260.47 69.053C259.97 64.053 257.803 59.8863 255.97 58.053L301.97 55.553M300.47 53.053C289.47 51.553 278.47 46.753 266.47 40.753M228.47 31.053L272.47 28.553L280.97 27.053" stroke="black" stroke-width="0.5"/>
<path d="M290.47 41.053C290.47 39.053 289.47 35.053 285.97 33.053C288.191 33.053 291.567 34.0934 294.079 36.463C294.542 37.993 293.47 41.553 290.428 43.053C290.414 42.4627 290.47 41.7773 290.47 41.053Z" fill="#EDADBF"/>
<path d="M272.47 43.553C279.465 43.9028 285.482 44.0079 290.863 44.553M297.47 45.553C295.367 45.1023 293.173 44.7871 290.863 44.553M295.47 38.053C295.052 37.4679 294.583 36.9386 294.079 36.463M290.863 44.553C290.537 44.2082 290.443 43.6852 290.428 43.053M290.428 43.053C290.414 42.4627 290.47 41.7773 290.47 41.053C290.47 39.053 289.47 35.053 285.97 33.053C288.191 33.053 291.567 34.0934 294.079 36.463M290.428 43.053C293.47 41.553 294.542 37.993 294.079 36.463" stroke="black" stroke-width="0.5"/>
<path d="M290.47 41.053C285.97 41.053 283.97 37.053 282.97 34.553" stroke="black" stroke-width="0.5"/>
<path d="M132.468 13.153C118.968 17.153 106.968 23.053 92.9678 36.053C99.9678 24.053 115.468 14.553 130.968 9.55298L132.468 13.153Z" stroke="black" stroke-width="0.5"/>
<path d="M130.968 9.55298C110.968 15.227 92.9678 32.553 84.9678 30.553C97.9678 21.053 113.968 12.553 130.468 8.05298L130.968 9.55298Z" stroke="black" stroke-width="0.5"/>
<path d="M9.96844 48.5529H3.96844C1.46777 52.5529 1.46777 62.5529 1.96844 66.0529C0.467773 67.0529 0.468371 71.5529 1.46844 73.0529L5.46844 73.5529V75.0529L1.46844 77.0529V79.0529C5.46844 80.0529 13.9684 82.0529 21.9684 81.5529V80.0529H39.4684C38.8018 71.5529 40.4684 61.0529 49.4684 54.0529C46.9684 50.0529 39.9684 45.5529 36.9684 45.0529C26.9684 44.0529 11.9684 46.5529 9.96844 48.5529Z" stroke="black" stroke-width="0.5"/>
<path d="M92.9697 36.053C75.1364 36.8863 43.4697 41.753 32.9697 44.753L36.9697 45.053C41.9697 46.553 47.4697 50.8863 49.4697 54.053C62.4688 44.553 87.9688 51.553 86.4688 79.053H96.4688C89.4688 68.053 90.4688 46.053 92.9697 36.053Z" stroke="black" stroke-width="0.5"/>
<path d="M9.96777 48.553H3.96777C36.468 29.0529 58.468 35.053 84.4678 30.553L93.468 36.053C76.468 37.053 47.4678 40.553 33.4678 44.753C25.4678 44.553 11.4678 46.553 9.96777 48.553Z" stroke="black" stroke-width="0.5"/>
<path d="M36.9692 45.0531C29.4692 44.053 12.4692 46.053 9.96923 48.5531C9.16923 50.953 12.3026 53.8863 13.9692 55.053C23.4692 56.553 36.9692 50.553 36.9692 45.0531Z" stroke="black" stroke-width="0.5"/>
<path d="M3.96847 48.553C10.9685 49.553 4.96847 60.053 1.96847 65.053C1.4684 58.053 1.96826 52.553 3.96847 48.553Z" stroke="black" stroke-width="0.5"/>
<path d="M21.9678 84.553V80.053H39.4678L39.9678 84.553H21.9678Z" stroke="black" stroke-width="0.5"/>
<path d="M2.46973 66.0527C3.96973 68.5527 5.96973 71.7194 5.46973 73.5527M21.9697 80.0527C11.4697 80.5527 6.96973 76.5527 7.96973 73.0527C8.46973 72.5527 9.96973 71.0527 10.9697 71.0527" stroke="black" stroke-width="0.5"/>
<path d="M5.96973 66.0529C8.21967 65.5529 11.0946 64.9279 13.8445 64.5529M13.8445 64.5529C16.5946 64.1779 19.2197 64.0529 20.9697 64.5529C23.9697 66.0529 29.4697 71.0529 31.9697 75.0529C26.9697 76.0529 19.9697 75.5529 15.4697 75.5529C12.7771 75.5529 11.4697 73.2195 11.4697 72.0529C10.9697 69.0529 12.2196 65.8862 13.8445 64.5529Z" stroke="black" stroke-width="0.5"/>
<path d="M11.4697 71.5529C19.4697 70.053 22.9697 72.6815 25.9697 74.1815M12.9697 74.553L30.4697 74.053" stroke="black" stroke-width="0.5"/>
<path d="M21.9678 83.0527H31.4678C33.4678 83.0527 34.9678 81.0527 34.4678 80.0527M37.9678 80.0527V84.5527" stroke="black" stroke-width="0.5"/>
<path d="M21.9697 81.5532C17.4697 81.5532 12.9697 82.0532 1.46967 79.0532V77.0532L5.46967 75.0532V73.5532L1.46967 73.0532C0.96875 71.553 -0.0310541 68.553 1.96894 66.053C1.46918 58.053 1.96918 51.553 3.96967 48.5527C36.4697 29.0531 58.4697 35.0532 84.4697 30.5532C162.47 -24.4469 244.47 12.553 281.47 27.0532L294.97 29.053L295.47 36.053V39.053C296.968 44.053 298.303 48.553 296.97 50.553C299.47 51.553 301.97 54.7196 301.97 56.553L299.97 66.553C300.422 77.4009 298.013 77.6252 288.682 77.9376C287.691 77.9708 285.622 78.005 284.47 78.053V79.553L259.47 79.984M21.9697 81.5532V84.5532H39.968L39.4697 80.0532M21.9697 81.5532V80.0532H39.4697M39.4697 80.0532C36.4697 38.5532 89.9697 41.5532 86.4697 80.5532V83.053H212.97C206.97 39.553 261.47 39.553 259.47 79.984M258.968 79.984H259.47" stroke="black"/>
</svg>
