<svg width="303" height="95" viewBox="0 0 303 95" fill="none" xmlns="http://www.w3.org/2000/svg">
<circle cx="62.6772" cy="73.6919" r="20.5" stroke="black"/>
<circle cx="235.678" cy="73.6919" r="20.5" stroke="black"/>
<path d="M132.676 12.1918L131.176 8.69175C171.176 0.691862 192.676 1.19189 231.676 12.6918L228.176 17.1918C208.176 9.1918 190.176 8.1918 174.176 7.69187C171.676 7.19187 167.676 7.19183 165.176 7.69175C155.176 7.69187 143.176 9.19187 132.676 12.1918Z" fill="#EFC7D3" stroke="black" stroke-width="0.5"/>
<path d="M131.176 8.69194L130.676 7.19194C166.676 -3.80811 199.176 0.191769 234.676 9.19194L231.676 12.6919C191.676 0.191895 165.676 1.69189 131.176 8.69194Z" fill="#EFC7D3" stroke="black" stroke-width="0.5"/>
<path d="M131.176 8.692C182.676 -2.80802 211.176 7.19202 231.676 12.692" stroke="black" stroke-width="0.5"/>
<path d="M170.677 29.6919L174.177 7.69189C207.677 8.69189 219.177 14.1919 223.677 15.6919L226.16 27.6919C199.17 27.6925 181.675 29.192 170.677 29.6919Z" fill="#EFC7D3"/>
<path d="M226.677 30.1919L223.677 15.6919C219.177 14.1919 207.677 8.69189 174.177 7.69189L170.677 29.6919C181.677 29.1919 199.177 27.6919 226.177 27.6919" stroke="black" stroke-width="0.5"/>
<path d="M165.177 7.69189C132.177 8.69189 112.177 17.6919 93.1772 35.1919L95.6772 33.1919L159.677 30.1919L165.177 7.69189Z" fill="#EFC7D3" stroke="black" stroke-width="0.5"/>
<path d="M239.676 22.1919C236.009 19.5252 230.176 17.1919 223.676 15.6919L226.176 27.6919H232.676C235.676 26.1919 238.676 23.9606 239.676 22.1919Z" fill="#EFC7D3" stroke="black" stroke-width="0.5"/>
<path d="M96.6772 78.1919H163.677L198.177 76.6919H212.677L213.177 82.1919H199.177H98.1772H86.6772V78.1919H96.6772Z" fill="#EFC7D3"/>
<path d="M96.6772 78.1919H163.677L198.177 76.6919M96.6772 78.1919C96.6772 79.6919 97.1772 80.6919 98.1772 82.1919M96.6772 78.1919H86.6772V82.1919H98.1772M198.177 76.6919L199.177 82.1919M198.177 76.6919H212.677L213.177 82.1919H199.177M199.177 82.1919H98.1772" stroke="black" stroke-width="0.5"/>
<path d="M96.6764 78.1919C92.1772 73.6919 89.1773 51.6919 93.1764 35.1919L165.177 31.1919C161.177 36.1919 160.177 70.1919 163.677 78.1919H96.6764Z" fill="#EFC7D3" stroke="black" stroke-width="0.5"/>
<path d="M228.677 30.1919L165.177 31.1919C161.177 36.1919 160.177 70.1919 163.677 78.1919L198.177 76.6919C202.677 75.1919 209.177 69.6919 228.677 30.1919Z" fill="#EFC7D3" stroke="black" stroke-width="0.5"/>
<path d="M170.677 29.692C166.177 30.192 162.677 30.192 159.677 30.192L165.177 7.69197C168.177 7.19189 171.177 7.19189 174.177 7.69197L170.677 29.692Z" fill="#EFC7D3" stroke="black" stroke-width="0.5"/>
<path d="M99.1772 31.6922C103.677 37.1922 110.677 33.6922 114.677 32.1922C115.677 16.692 102.677 24.692 99.1772 31.6922Z" fill="#EFC7D3" stroke="black" stroke-width="0.5"/>
<path d="M234.676 9.19189L231.676 12.6919C248.676 18.1919 259.176 21.1919 271.676 27.6919H273.176L281.176 26.1919C266.176 19.6919 258.676 17.1919 234.676 9.19189Z" fill="#EDADBF" stroke="black" stroke-width="0.5"/>
<path d="M271.676 27.6919C261.176 22.1919 242.176 15.6919 231.676 12.6919L229.676 15.1919L244.676 22.6919C243.176 25.1919 239.176 27.1919 233.176 29.8919C245.176 29.1919 262.176 28.1919 271.676 27.6919Z" fill="#EDADBF" stroke="black" stroke-width="0.5"/>
<path d="M277.178 33.9919L283.176 31.6919L272.677 27.6919L228.677 30.1919C221.177 45.1919 206.177 75.6919 198.177 76.6919H212.677C211.177 65.6919 220.677 42.1919 245.678 51.1919C256.178 45.6919 266.178 40.1919 277.178 33.9919Z" fill="#EDADBF" stroke="black" stroke-width="0.5"/>
<path d="M278.176 33.6919C266.176 40.1919 256.176 45.6919 245.676 51.1919C250.176 54.1919 260.676 60.1919 259.676 79.1919L284.676 78.6919V77.1919C293.176 76.1919 301.676 79.6919 300.176 65.6919L302.176 55.6919C302.176 54.1919 299.676 50.1919 297.176 49.6919C298.676 47.1919 295.676 38.1919 295.676 38.1919V36.6919L291.676 33.6919L286.676 32.1919L283.176 31.6919L278.176 33.6919Z" fill="#EDADBF" stroke="black" stroke-width="0.5"/>
<path d="M281.176 26.1919L272.676 27.6919L283.176 31.6919C292.676 32.6919 291.675 34.1919 295.67 36.6121L295.176 28.1919L281.176 26.1919Z" fill="#EDADBF"/>
<path d="M295.676 36.6919L295.67 36.6121M295.67 36.6121L295.176 28.1919L281.176 26.1919L272.676 27.6919L283.176 31.6919C292.676 32.6919 291.675 34.1919 295.67 36.6121Z" stroke="black" stroke-width="0.5"/>
<path d="M294.178 36.1921C293.678 33.692 282.678 33.4919 277.178 33.9919" stroke="black" stroke-width="0.5"/>
<path d="M300.178 66.1919L260.678 68.1919C260.178 63.1919 258.011 59.0252 256.178 57.1919L302.178 54.6919M300.678 52.1919C289.678 50.6919 278.678 45.8919 266.678 39.8919M228.678 30.1919L272.678 27.6919L281.178 26.1919" stroke="black" stroke-width="0.5"/>
<path d="M290.678 40.1919C290.678 38.1919 289.678 34.1919 286.178 32.1919C288.399 32.1919 291.775 33.2323 294.287 35.6019C294.75 37.1319 293.678 40.6919 290.636 42.1919C290.622 41.6016 290.678 40.9162 290.678 40.1919Z" fill="#EDADBF"/>
<path d="M272.678 42.6919C279.673 43.0417 285.69 43.1468 291.071 43.6919M297.678 44.6919C295.575 44.2413 293.381 43.926 291.071 43.6919M295.678 37.1919C295.26 36.6068 294.791 36.0775 294.287 35.6019M291.071 43.6919C290.745 43.3471 290.651 42.8241 290.636 42.1919M290.636 42.1919C290.622 41.6016 290.678 40.9162 290.678 40.1919C290.678 38.1919 289.678 34.1919 286.178 32.1919C288.399 32.1919 291.775 33.2323 294.287 35.6019M290.636 42.1919C293.678 40.6919 294.75 37.1319 294.287 35.6019" stroke="black" stroke-width="0.5"/>
<path d="M290.678 40.1919C286.178 40.1919 284.178 36.1919 283.178 33.6919" stroke="black" stroke-width="0.5"/>
<path d="M132.676 12.2919C119.176 16.2919 107.176 22.1919 93.1758 35.1919C100.176 23.1919 115.676 13.6919 131.176 8.69189L132.676 12.2919Z" fill="#E0426F" stroke="black" stroke-width="0.5"/>
<path d="M131.176 8.69189C111.176 14.3659 93.1758 31.6919 85.1758 29.6919C98.1758 20.1919 114.176 11.6919 130.676 7.19189L131.176 8.69189Z" fill="#E0426F" stroke="black" stroke-width="0.5"/>
<path d="M10.1764 47.6918H4.17645C1.67578 51.6918 1.67578 61.6918 2.17645 65.1918C0.675781 66.1918 0.676379 70.6918 1.67645 72.1918L5.67645 72.6918V74.1918L1.67645 76.1918V78.1918C5.67645 79.1918 14.1764 81.1918 22.1764 80.6918V79.1918H39.6764C39.0098 70.6918 40.6764 60.1918 49.6764 53.1918C47.1764 49.1918 40.1764 44.6918 37.1764 44.1918C27.1764 43.1918 12.1764 45.6918 10.1764 47.6918Z" fill="#E0426F" stroke="black" stroke-width="0.5"/>
<path d="M93.1772 35.1919C75.3439 36.0252 43.6772 40.8919 33.1772 43.8919L37.1772 44.1919C42.1772 45.6919 47.6772 50.0252 49.6772 53.1919C62.6763 43.6919 88.1763 50.6919 86.6763 78.1919H96.6763C89.6763 67.1919 90.6763 45.1919 93.1772 35.1919Z" fill="#E0426F" stroke="black" stroke-width="0.5"/>
<path d="M10.1758 47.6919H4.17578C36.676 28.1918 58.676 34.1919 84.6758 29.6919L93.676 35.1919C76.676 36.1919 47.6758 39.6919 33.6758 43.8919C25.6758 43.6919 11.6758 45.6919 10.1758 47.6919Z" fill="#E0426F" stroke="black" stroke-width="0.5"/>
<path d="M37.1772 44.192C29.6772 43.1919 12.6772 45.1919 10.1772 47.692C9.37724 50.0919 12.5106 53.0252 14.1772 54.1919C23.6772 55.6919 37.1772 49.6919 37.1772 44.192Z" fill="#E0426F" stroke="black" stroke-width="0.5"/>
<path d="M4.17648 47.6919C11.1765 48.6919 5.17648 59.1919 2.17648 64.1919C1.67641 57.1919 2.17627 51.6919 4.17648 47.6919Z" fill="#E0426F" stroke="black" stroke-width="0.5"/>
<path d="M22.1758 83.6919V79.1919H39.6758L40.1758 83.6919H22.1758Z" fill="#E0426F" stroke="black" stroke-width="0.5"/>
<path d="M2.67773 65.1919C4.17773 67.6919 6.17773 70.8586 5.67773 72.6919M22.1777 79.1919C11.6777 79.6919 7.17773 75.6919 8.17773 72.1919C8.67773 71.6919 10.1777 70.1919 11.1777 70.1919" stroke="black" stroke-width="0.5"/>
<path d="M32.1777 74.192C29.6777 70.192 24.1777 65.1921 21.1777 63.6921C19.4277 63.1921 16.8026 63.3171 14.0525 63.6921C12.4276 65.0254 11.1777 68.192 11.6777 71.192C11.6777 72.3587 12.9852 74.692 15.6777 74.692C20.1777 74.692 27.1777 75.192 32.1777 74.192Z" fill="#E0426F"/>
<path d="M6.17773 65.1921C8.42768 64.6921 11.3026 64.0671 14.0525 63.6921M14.0525 63.6921C16.8026 63.3171 19.4277 63.1921 21.1777 63.6921C24.1777 65.1921 29.6777 70.192 32.1777 74.192C27.1777 75.192 20.1777 74.692 15.6777 74.692C12.9852 74.692 11.6777 72.3587 11.6777 71.192C11.1777 68.192 12.4276 65.0254 14.0525 63.6921Z" stroke="black" stroke-width="0.5"/>
<path d="M11.6777 70.6921C19.6777 69.1921 23.1777 71.8206 26.1777 73.3206M13.1777 73.6921L30.6777 73.1921" stroke="black" stroke-width="0.5"/>
<path d="M22.1758 82.1919H31.6758C33.6758 82.1919 35.1758 80.1919 34.6758 79.1919M38.1758 79.1919V83.6919" stroke="black" stroke-width="0.5"/>
<path d="M22.1772 80.6921C17.6772 80.6921 13.1772 81.1921 1.67719 78.1921V76.1921L5.67719 74.1921V72.6921L1.67719 72.1921C1.17627 70.6919 0.176465 67.6919 2.17646 65.1919C1.6767 57.1919 2.1767 50.6919 4.17719 47.6916C36.6772 28.192 58.6772 34.1921 84.6772 29.6921C162.677 -25.308 244.677 11.6919 281.677 26.1921L295.177 28.1919L295.677 35.1919V38.1919C297.176 43.1919 298.511 47.6919 297.177 49.6919C299.677 50.6919 302.177 53.8586 302.177 55.6919L300.177 65.6919C300.629 76.5398 298.221 76.7641 288.889 77.0765C287.898 77.1097 285.829 77.1439 284.677 77.1919V78.6919L259.677 79.1229M22.1772 80.6921V83.6921H40.1755L39.6772 79.1921M22.1772 80.6921V79.1921H39.6772M39.6772 79.1921C36.6772 37.6921 90.1772 40.6921 86.6772 79.6921V82.1919H213.177C207.177 38.6919 261.677 38.6919 259.677 79.1229M259.176 79.1229H259.677" stroke="black"/>
</svg>
