<svg width="304" height="96" viewBox="0 0 304 96" fill="none" xmlns="http://www.w3.org/2000/svg">
<circle cx="63.0742" cy="74.5076" r="20.5" fill="#EDADBF" stroke="black"/>
<circle cx="236.074" cy="74.5076" r="20.5" fill="#EDADBF" stroke="black"/>
<path d="M133.072 13.0074L131.572 9.50742C171.572 1.50754 193.072 2.00757 232.072 13.5075L228.572 18.0075C208.572 10.0075 190.572 9.00748 174.572 8.50755C172.072 8.00755 168.072 8.00751 165.572 8.50742C155.572 8.50755 143.572 10.0075 133.072 13.0074Z" stroke="black" stroke-width="0.5"/>
<path d="M131.572 9.50761L131.072 8.00761C167.072 -2.99243 199.572 1.00744 235.072 10.0076L232.072 13.5076C192.072 1.00757 166.072 2.50757 131.572 9.50761Z" stroke="black" stroke-width="0.5"/>
<path d="M131.572 9.50756C183.072 -1.99247 211.572 8.00757 232.072 13.5076" stroke="black" stroke-width="0.5"/>
<path d="M227.074 31.0076L224.074 16.5076C219.574 15.0076 208.074 9.50757 174.574 8.50757L171.074 30.5076C182.074 30.0076 199.574 28.5076 226.574 28.5076" stroke="black" stroke-width="0.5"/>
<path d="M165.574 8.50757C132.574 9.50757 112.574 18.5076 93.5742 36.0076L96.0742 34.0076L160.074 31.0076L165.574 8.50757Z" stroke="black" stroke-width="0.5"/>
<path d="M240.072 23.0076C236.406 20.3409 230.572 18.0076 224.072 16.5076L226.572 28.5076H233.072C236.072 27.0076 239.072 24.7763 240.072 23.0076Z" stroke="black" stroke-width="0.5"/>
<path d="M97.0742 79.0076H164.074L198.574 77.5076M97.0742 79.0076C97.0742 80.5076 97.5742 81.5076 98.5742 83.0076M97.0742 79.0076H87.0742V83.0076H98.5742M198.574 77.5076L199.574 83.0076M198.574 77.5076H213.074L213.574 83.0076H199.574M199.574 83.0076H98.5742" stroke="black" stroke-width="0.5"/>
<path d="M97.0733 79.0076C92.5742 74.5076 89.5743 52.5076 93.5733 36.0076L165.574 32.0076C161.574 37.0076 160.574 71.0076 164.074 79.0076H97.0733Z" stroke="black" stroke-width="0.5"/>
<path d="M229.074 31.0076L165.574 32.0076C161.574 37.0076 160.574 71.0076 164.074 79.0076L198.574 77.5076C203.074 76.0076 209.574 70.5076 229.074 31.0076Z" stroke="black" stroke-width="0.5"/>
<path d="M171.074 30.5076C166.574 31.0076 163.074 31.0076 160.074 31.0076L165.574 8.50764C168.574 8.00757 171.574 8.00757 174.574 8.50764L171.074 30.5076Z" stroke="black" stroke-width="0.5"/>
<path d="M99.5742 32.5077C104.074 38.0077 111.074 34.5077 115.074 33.0077C116.074 17.5076 103.074 25.5076 99.5742 32.5077Z" stroke="black" stroke-width="0.5"/>
<path d="M235.072 10.0076L232.072 13.5076C249.072 19.0076 259.572 22.0076 272.072 28.5076H273.572L281.572 27.0076C266.572 20.5076 259.072 18.0076 235.072 10.0076Z" fill="#EDADBF" stroke="black" stroke-width="0.5"/>
<path d="M272.072 28.5076C261.572 23.0076 242.572 16.5076 232.072 13.5076L230.072 16.0076L245.072 23.5076C243.572 26.0076 239.572 28.0076 233.572 30.7076C245.572 30.0076 262.572 29.0076 272.072 28.5076Z" fill="#EDADBF" stroke="black" stroke-width="0.5"/>
<path d="M277.574 34.8076L283.573 32.5076L273.073 28.5076L229.073 31.0076C221.573 46.0076 206.573 76.5076 198.573 77.5076H213.073C211.573 66.5076 221.073 43.0076 246.074 52.0076C256.574 46.5076 266.574 41.0076 277.574 34.8076Z" fill="#EDADBF" stroke="black" stroke-width="0.5"/>
<path d="M278.572 34.5076C266.572 41.0076 256.572 46.5076 246.072 52.0076C250.572 55.0076 261.072 61.0076 260.072 80.0076L285.072 79.5076V78.0076C293.572 77.0076 302.072 80.5076 300.572 66.5076L302.572 56.5076C302.572 55.0076 300.072 51.0076 297.572 50.5076C299.072 48.0076 296.072 39.0076 296.072 39.0076V37.5076L292.072 34.5076L287.072 33.0076L283.572 32.5076L278.572 34.5076Z" fill="#EDADBF" stroke="black" stroke-width="0.5"/>
<path d="M281.572 27.0076L273.072 28.5076L283.572 32.5076C293.072 33.5076 292.071 35.0076 296.066 37.4277L295.572 29.0076L281.572 27.0076Z" fill="#EDADBF"/>
<path d="M296.072 37.5076L296.066 37.4277M296.066 37.4277L295.572 29.0076L281.572 27.0076L273.072 28.5076L283.572 32.5076C293.072 33.5076 292.071 35.0076 296.066 37.4277Z" stroke="black" stroke-width="0.5"/>
<path d="M294.574 37.0078C294.074 34.5077 283.074 34.3076 277.574 34.8076" stroke="black" stroke-width="0.5"/>
<path d="M300.574 67.0076L261.074 69.0076C260.574 64.0076 258.408 59.8409 256.574 58.0076L302.574 55.5076M301.074 53.0076C290.074 51.5076 279.074 46.7076 267.074 40.7076M229.074 31.0076L273.074 28.5076L281.574 27.0076" stroke="black" stroke-width="0.5"/>
<path d="M291.074 41.0076C291.074 39.0076 290.074 35.0076 286.574 33.0076C288.795 33.0076 292.172 34.048 294.683 36.4176C295.147 37.9476 294.074 41.5076 291.032 43.0076C291.019 42.4173 291.074 41.7319 291.074 41.0076Z" fill="#EDADBF"/>
<path d="M273.074 43.5076C280.07 43.8574 286.087 43.9624 291.467 44.5076M298.074 45.5076C295.971 45.0569 293.778 44.7417 291.467 44.5076M296.074 38.0076C295.656 37.4224 295.187 36.8932 294.683 36.4176M291.467 44.5076C291.141 44.1628 291.047 43.6398 291.032 43.0076M291.032 43.0076C291.019 42.4173 291.074 41.7319 291.074 41.0076C291.074 39.0076 290.074 35.0076 286.574 33.0076C288.795 33.0076 292.172 34.048 294.683 36.4176M291.032 43.0076C294.074 41.5076 295.147 37.9476 294.683 36.4176" stroke="black" stroke-width="0.5"/>
<path d="M291.074 41.0076C286.574 41.0076 284.574 37.0076 283.574 34.5076" stroke="black" stroke-width="0.5"/>
<path d="M133.072 13.1075C119.572 17.1075 107.572 23.0076 93.5723 36.0076C100.572 24.0076 116.072 14.5076 131.572 9.50757L133.072 13.1075Z" fill="#EDADBF" stroke="black" stroke-width="0.5"/>
<path d="M131.572 9.50757C111.572 15.1816 93.5723 32.5076 85.5723 30.5076C98.5723 21.0076 114.572 12.5076 131.072 8.00757L131.572 9.50757Z" fill="#EDADBF" stroke="black" stroke-width="0.5"/>
<path d="M10.5729 48.5076H4.57293C2.07227 52.5076 2.07227 62.5076 2.57293 66.0076C1.07227 67.0076 1.07286 71.5076 2.07293 73.0076L6.07293 73.5076V75.0076L2.07293 77.0076V79.0076C6.07293 80.0076 14.5729 82.0076 22.5729 81.5076V80.0076H40.0729C39.4063 71.5076 41.0729 61.0076 50.0729 54.0076C47.5729 50.0076 40.5729 45.5076 37.5729 45.0076C27.5729 44.0076 12.5729 46.5076 10.5729 48.5076Z" fill="#EDADBF" stroke="black" stroke-width="0.5"/>
<path d="M93.5742 36.0076C75.7409 36.8409 44.0742 41.7076 33.5742 44.7076L37.5742 45.0076C42.5742 46.5076 48.0742 50.8409 50.0742 54.0076C63.0732 44.5076 88.5732 51.5076 87.0732 79.0076H97.0732C90.0732 68.0076 91.0732 46.0076 93.5742 36.0076Z" fill="#EDADBF" stroke="black" stroke-width="0.5"/>
<path d="M10.5723 48.5076H4.57227C37.0724 29.0075 59.0725 35.0076 85.0723 30.5076L94.0725 36.0076C77.0725 37.0076 48.0723 40.5076 34.0723 44.7076C26.0723 44.5076 12.0723 46.5076 10.5723 48.5076Z" fill="#EDADBF" stroke="black" stroke-width="0.5"/>
<path d="M37.5737 45.0076C30.0737 44.0076 13.0737 46.0076 10.5737 48.5076C9.77372 50.9076 12.9071 53.8409 14.5737 55.0076C24.0737 56.5076 37.5737 50.5076 37.5737 45.0076Z" fill="#EDADBF" stroke="black" stroke-width="0.5"/>
<path d="M4.57296 48.5076C11.573 49.5076 5.57296 60.0076 2.57296 65.0076C2.07289 58.0076 2.57275 52.5076 4.57296 48.5076Z" fill="#EDADBF" stroke="black" stroke-width="0.5"/>
<path d="M22.5723 84.5076V80.0076H40.0723L40.5723 84.5076H22.5723Z" fill="#EDADBF" stroke="black" stroke-width="0.5"/>
<path d="M3.07422 66.0076C4.57422 68.5076 6.57422 71.6742 6.07422 73.5076M22.5742 80.0076C12.0742 80.5076 7.57422 76.5076 8.57422 73.0076C9.07422 72.5076 10.5742 71.0076 11.5742 71.0076" stroke="black" stroke-width="0.5"/>
<path d="M32.5742 75.0076C30.0742 71.0076 24.5742 66.0076 21.5742 64.5076C19.8242 64.0076 17.1991 64.1326 14.449 64.5076C12.8241 65.841 11.5742 69.0076 12.0742 72.0076C12.0742 73.1742 13.3816 75.5076 16.0742 75.5076C20.5742 75.5076 27.5742 76.0076 32.5742 75.0076Z" fill="#EDADBF"/>
<path d="M6.57422 66.0076C8.82416 65.5076 11.6991 64.8826 14.449 64.5076M14.449 64.5076C17.1991 64.1326 19.8242 64.0076 21.5742 64.5076C24.5742 66.0076 30.0742 71.0076 32.5742 75.0076C27.5742 76.0076 20.5742 75.5076 16.0742 75.5076C13.3816 75.5076 12.0742 73.1742 12.0742 72.0076C11.5742 69.0076 12.8241 65.841 14.449 64.5076Z" stroke="black" stroke-width="0.5"/>
<path d="M12.0742 71.5076C20.0742 70.0077 23.5742 72.6362 26.5742 74.1362M13.5742 74.5077L31.0742 74.0077" stroke="black" stroke-width="0.5"/>
<path d="M22.5723 83.0076H32.0723C34.0723 83.0076 35.5723 81.0076 35.0723 80.0076M38.5723 80.0076V84.5076" stroke="black" stroke-width="0.5"/>
<path d="M22.5742 81.5078C18.0742 81.5078 13.5742 82.0078 2.07416 79.0078V77.0078L6.07417 75.0078V73.5078L2.07416 73.0078C1.57324 71.5076 0.573438 68.5076 2.57343 66.0076C2.07368 58.0076 2.57368 51.5076 4.57417 48.5073C37.0742 29.0077 59.0742 35.0078 85.0742 30.5078C163.074 -24.4924 245.074 12.5076 282.074 27.0077L295.574 29.0076L296.074 36.0076V39.0076C297.573 44.0076 298.908 48.5076 297.574 50.5076C300.074 51.5076 302.574 54.6742 302.574 56.5076L300.574 66.5076C301.026 77.3555 298.618 77.5798 289.286 77.8922C288.295 77.9254 286.226 77.9596 285.074 78.0076V79.5076L260.074 79.9386M22.5742 81.5078V84.5078H40.5725L40.0742 80.0078M22.5742 81.5078V80.0078H40.0742M40.0742 80.0078C37.0742 38.5078 90.5742 41.5078 87.0742 80.5078V83.0076H213.574C207.574 39.5076 262.074 39.5076 260.074 79.9386M259.573 79.9386H260.074" stroke="black"/>
</svg>
