<svg width="303" height="95" viewBox="0 0 303 95" fill="none" xmlns="http://www.w3.org/2000/svg">
<circle cx="62.2915" cy="73.707" r="20.5" fill="#E56E90" stroke="black"/>
<circle cx="235.292" cy="73.707" r="20.5" fill="#E56E90" stroke="black"/>
<path d="M132.29 12.2069L130.79 8.70689C170.79 0.706999 192.29 1.20703 231.29 12.707L227.79 17.207C207.79 9.20694 189.79 8.20694 173.79 7.70701C171.29 7.20701 167.29 7.20697 164.79 7.70689C154.79 7.70701 142.79 9.20701 132.29 12.2069Z" fill="#E56E90" stroke="black" stroke-width="0.5"/>
<path d="M130.79 8.70708L130.29 7.20708C166.29 -3.79297 198.79 0.206905 234.29 9.20708L231.29 12.7071C191.29 0.207031 165.29 1.70703 130.79 8.70708Z" fill="#E56E90" stroke="black" stroke-width="0.5"/>
<path d="M130.79 8.70714C182.29 -2.79288 210.79 7.20715 231.29 12.7071" stroke="black" stroke-width="0.5"/>
<path d="M170.292 29.707L173.792 7.70703C207.292 8.70703 218.792 14.207 223.292 15.707L225.774 27.707C198.784 27.7077 181.289 29.2071 170.292 29.707Z" fill="#E56E90"/>
<path d="M226.292 30.207L223.292 15.707C218.792 14.207 207.292 8.70703 173.792 7.70703L170.292 29.707C181.292 29.207 198.792 27.707 225.792 27.707" stroke="black" stroke-width="0.5"/>
<path d="M164.792 7.70703C131.792 8.70703 111.792 17.707 92.7915 35.207L95.2915 33.207L159.292 30.207L164.792 7.70703Z" fill="#E56E90" stroke="black" stroke-width="0.5"/>
<path d="M239.29 22.207C235.623 19.5404 229.79 17.207 223.29 15.707L225.79 27.707H232.29C235.29 26.207 238.29 23.9758 239.29 22.207Z" fill="#E56E90" stroke="black" stroke-width="0.5"/>
<path d="M96.2915 78.207H163.292L197.792 76.707H212.292L212.792 82.207H198.792H97.7915H86.2915V78.207H96.2915Z" fill="#E56E90"/>
<path d="M96.2915 78.207H163.292L197.792 76.707M96.2915 78.207C96.2915 79.707 96.7915 80.707 97.7915 82.207M96.2915 78.207H86.2915V82.207H97.7915M197.792 76.707L198.792 82.207M197.792 76.707H212.292L212.792 82.207H198.792M198.792 82.207H97.7915" stroke="black" stroke-width="0.5"/>
<path d="M96.2906 78.207C91.7915 73.707 88.7915 51.707 92.7906 35.207L164.792 31.207C160.792 36.207 159.792 70.207 163.291 78.207H96.2906Z" fill="#E56E90" stroke="black" stroke-width="0.5"/>
<path d="M228.291 30.207L164.791 31.207C160.791 36.207 159.791 70.207 163.291 78.207L197.791 76.707C202.291 75.207 208.791 69.707 228.291 30.207Z" fill="#E56E90" stroke="black" stroke-width="0.5"/>
<path d="M170.292 29.7071C165.792 30.2071 162.292 30.2071 159.292 30.2071L164.792 7.70711C167.792 7.20703 170.792 7.20703 173.792 7.70711L170.292 29.7071Z" fill="#E56E90" stroke="black" stroke-width="0.5"/>
<path d="M98.7915 31.7073C103.292 37.2073 110.292 33.7073 114.292 32.2073C115.292 16.7072 102.292 24.7072 98.7915 31.7073Z" fill="#E56E90" stroke="black" stroke-width="0.5"/>
<path d="M234.29 9.20703L231.29 12.707C248.29 18.207 258.79 21.207 271.29 27.707H272.79L280.79 26.207C265.79 19.707 258.29 17.207 234.29 9.20703Z" stroke="black" stroke-width="0.5"/>
<path d="M271.29 27.707C260.79 22.207 241.79 15.707 231.29 12.707L229.29 15.207L244.29 22.707C242.79 25.207 238.79 27.207 232.79 29.907C244.79 29.207 261.79 28.207 271.29 27.707Z" stroke="black" stroke-width="0.5"/>
<path d="M276.792 34.007L282.79 31.707L272.291 27.707L228.291 30.207C220.791 45.207 205.791 75.707 197.791 76.707H212.291C210.791 65.707 220.291 42.207 245.292 51.207C255.792 45.707 265.792 40.207 276.792 34.007Z" stroke="black" stroke-width="0.5"/>
<path d="M277.79 33.7071C265.79 40.2071 255.79 45.7071 245.29 51.2071C249.79 54.207 260.29 60.207 259.29 79.207L284.29 78.707V77.207C292.79 76.207 301.29 79.707 299.79 65.707L301.79 55.707C301.79 54.207 299.29 50.207 296.79 49.707C298.29 47.207 295.29 38.207 295.29 38.207V36.707L291.29 33.707L286.29 32.207L282.79 31.707L277.79 33.7071Z" stroke="black" stroke-width="0.5"/>
<path d="M295.29 36.707L295.284 36.6272M295.284 36.6272L294.79 28.207L280.79 26.207L272.29 27.707L282.79 31.707C292.29 32.707 291.289 34.207 295.284 36.6272Z" stroke="black" stroke-width="0.5"/>
<path d="M293.792 36.2072C293.292 33.7071 282.292 33.507 276.792 34.007" stroke="black" stroke-width="0.5"/>
<path d="M299.792 66.207L260.292 68.207C259.792 63.207 257.625 59.0404 255.792 57.207L301.792 54.707M300.292 52.207C289.292 50.707 278.292 45.907 266.292 39.907M228.292 30.207L272.292 27.707L280.792 26.207" stroke="black" stroke-width="0.5"/>
<path d="M272.292 42.707C279.287 43.0568 285.304 43.1619 290.685 43.707M297.292 44.707C295.189 44.2564 292.995 43.9411 290.685 43.707M295.292 37.207C294.874 36.6219 294.404 36.0927 293.9 35.617M290.685 43.707C290.358 43.3623 290.264 42.8392 290.25 42.207M290.25 42.207C290.236 41.6168 290.292 40.9313 290.292 40.207C290.292 38.207 289.292 34.207 285.792 32.207C288.012 32.207 291.389 33.2474 293.9 35.617M290.25 42.207C293.292 40.707 294.364 37.147 293.9 35.617" stroke="black" stroke-width="0.5"/>
<path d="M290.292 40.207C285.792 40.207 283.792 36.207 282.792 33.707" stroke="black" stroke-width="0.5"/>
<path d="M132.29 12.307C118.79 16.307 106.79 22.207 92.79 35.207C99.79 23.207 115.29 13.707 130.79 8.70703L132.29 12.307Z" stroke="black" stroke-width="0.5"/>
<path d="M130.79 8.70703C110.79 14.3811 92.79 31.707 84.79 29.707C97.79 20.207 113.79 11.707 130.29 7.20703L130.79 8.70703Z" stroke="black" stroke-width="0.5"/>
<path d="M9.79071 47.7069H3.79071C1.29004 51.7069 1.29004 61.7069 1.79071 65.2069C0.290039 66.2069 0.290637 70.7069 1.29071 72.2069L5.29071 72.7069V74.2069L1.29071 76.2069V78.2069C5.29071 79.2069 13.7907 81.2069 21.7907 80.7069V79.2069H39.2907C38.624 70.7069 40.2907 60.2069 49.2907 53.2069C46.7907 49.2069 39.7907 44.7069 36.7907 44.2069C26.7907 43.2069 11.7907 45.7069 9.79071 47.7069Z" stroke="black" stroke-width="0.5"/>
<path d="M92.7915 35.207C74.9582 36.0404 43.2915 40.907 32.7915 43.907L36.7915 44.207C41.7915 45.707 47.2915 50.0404 49.2915 53.207C62.2905 43.707 87.7905 50.707 86.2905 78.207H96.2905C89.2905 67.207 90.2905 45.207 92.7915 35.207Z" stroke="black" stroke-width="0.5"/>
<path d="M9.79004 47.7071H3.79004C36.2902 28.207 58.2903 34.207 84.29 29.707L93.2903 35.207C76.2903 36.207 47.29 39.707 33.29 43.907C25.29 43.707 11.29 45.707 9.79004 47.7071Z" stroke="black" stroke-width="0.5"/>
<path d="M36.7915 44.2071C29.2915 43.207 12.2915 45.207 9.79149 47.7071C8.99149 50.107 12.1248 53.0404 13.7915 54.207C23.2915 55.707 36.7915 49.707 36.7915 44.2071Z" stroke="black" stroke-width="0.5"/>
<path d="M3.79073 47.707C10.7907 48.707 4.79073 59.207 1.79073 64.207C1.29066 57.207 1.79053 51.707 3.79073 47.707Z" stroke="black" stroke-width="0.5"/>
<path d="M21.79 83.707V79.207H39.29L39.79 83.707H21.79Z" stroke="black" stroke-width="0.5"/>
<path d="M2.29199 65.207C3.79199 67.707 5.79199 70.8737 5.29199 72.707M21.792 79.207C11.292 79.707 6.79199 75.707 7.79199 72.207C8.29199 71.707 9.79199 70.207 10.792 70.207" stroke="black" stroke-width="0.5"/>
<path d="M5.79199 65.2072C8.04193 64.7072 10.9168 64.0822 13.6668 63.7072M13.6668 63.7072C16.4169 63.3322 19.0419 63.2072 20.792 63.7072C23.792 65.2072 29.292 70.2072 31.792 74.2072C26.792 75.2072 19.792 74.7072 15.292 74.7072C12.5994 74.7072 11.292 72.3738 11.292 71.2072C10.792 68.2072 12.0418 65.0405 13.6668 63.7072Z" stroke="black" stroke-width="0.5"/>
<path d="M11.292 70.7072C19.292 69.2073 22.792 71.8358 25.792 73.3358M12.792 73.7073L30.292 73.2073" stroke="black" stroke-width="0.5"/>
<path d="M21.79 82.207H31.29C33.29 82.207 34.79 80.207 34.29 79.207M37.79 79.207V83.707" stroke="black" stroke-width="0.5"/>
<path d="M21.7915 80.7073C17.2915 80.7073 12.7915 81.2073 1.29145 78.2073V76.2073L5.29145 74.2073V72.7073L1.29145 72.2073C0.790527 70.707 -0.209277 67.707 1.79072 65.207C1.29096 57.207 1.79096 50.707 3.79145 47.7068C36.2915 28.2072 58.2914 34.2072 84.2914 29.7072C162.291 -25.2929 244.291 11.707 281.291 26.2072L294.791 28.207L295.291 35.207V38.207C296.79 43.207 298.125 47.707 296.791 49.707C299.291 50.707 301.791 53.8737 301.791 55.707L299.791 65.707C300.243 76.5549 297.835 76.7792 288.504 77.0917C287.513 77.1249 285.444 77.159 284.291 77.207V78.707L259.291 79.1381M21.7915 80.7073V83.7073H39.7898L39.2915 79.2073M21.7915 80.7073V79.2073H39.2915M39.2915 79.2073C36.2915 37.7073 89.7914 40.7073 86.2914 79.7073V82.207H212.791C206.791 38.707 261.291 38.707 259.291 79.1381M258.79 79.1381H259.291" stroke="black"/>
</svg>
