<svg width="303" height="95" viewBox="0 0 303 95" fill="none" xmlns="http://www.w3.org/2000/svg">
<circle cx="62.4697" cy="73.7222" r="20.5" fill="#E0426F" stroke="black"/>
<circle cx="235.47" cy="73.7222" r="20.5" fill="#E0426F" stroke="black"/>
<path d="M132.468 12.222L130.968 8.72202C170.968 0.722136 192.468 1.22217 231.468 12.7221L227.968 17.2221C207.968 9.22208 189.968 8.22208 173.968 7.72215C171.468 7.22215 167.468 7.22211 164.968 7.72202C154.968 7.72215 142.968 9.22215 132.468 12.222Z" fill="#E0426F" stroke="black" stroke-width="0.5"/>
<path d="M130.968 8.72221L130.468 7.22221C166.468 -3.77783 198.968 0.222042 234.468 9.22221L231.468 12.7222C191.468 0.222168 165.468 1.72217 130.968 8.72221Z" fill="#E0426F" stroke="black" stroke-width="0.5"/>
<path d="M130.968 8.72228C182.468 -2.77775 210.968 7.22229 231.468 12.7223" stroke="black" stroke-width="0.5"/>
<path d="M170.47 29.7222L173.97 7.72217C207.47 8.72217 218.97 14.2222 223.47 15.7222L225.952 27.7222C198.962 27.7228 181.467 29.2223 170.47 29.7222Z" fill="#E0426F"/>
<path d="M226.47 30.2222L223.47 15.7222C218.97 14.2222 207.47 8.72217 173.97 7.72217L170.47 29.7222C181.47 29.2222 198.97 27.7222 225.97 27.7222" stroke="black" stroke-width="0.5"/>
<path d="M164.97 7.72217C131.97 8.72217 111.97 17.7222 92.9697 35.2222L95.4697 33.2222L159.47 30.2222L164.97 7.72217Z" fill="#E0426F" stroke="black" stroke-width="0.5"/>
<path d="M239.468 22.2222C235.801 19.5555 229.968 17.2222 223.468 15.7222L225.968 27.7222H232.468C235.468 26.2222 238.468 23.9909 239.468 22.2222Z" fill="#E0426F" stroke="black" stroke-width="0.5"/>
<path d="M96.4697 78.2222H163.47L197.97 76.7222H212.47L212.97 82.2222H198.97H97.9697H86.4697V78.2222H96.4697Z" fill="#E0426F"/>
<path d="M96.4697 78.2222H163.47L197.97 76.7222M96.4697 78.2222C96.4697 79.7222 96.9697 80.7222 97.9697 82.2222M96.4697 78.2222H86.4697V82.2222H97.9697M197.97 76.7222L198.97 82.2222M197.97 76.7222H212.47L212.97 82.2222H198.97M198.97 82.2222H97.9697" stroke="black" stroke-width="0.5"/>
<path d="M96.4689 78.2222C91.9697 73.7222 88.9698 51.7222 92.9689 35.2222L164.97 31.2222C160.97 36.2222 159.97 70.2222 163.47 78.2222H96.4689Z" fill="#E0426F" stroke="black" stroke-width="0.5"/>
<path d="M228.47 30.2222L164.97 31.2222C160.97 36.2222 159.97 70.2222 163.47 78.2222L197.97 76.7222C202.47 75.2222 208.97 69.7222 228.47 30.2222Z" fill="#E0426F" stroke="black" stroke-width="0.5"/>
<path d="M170.47 29.7222C165.97 30.2222 162.47 30.2222 159.47 30.2222L164.97 7.72224C167.97 7.22217 170.97 7.22217 173.97 7.72224L170.47 29.7222Z" fill="#E0426F" stroke="black" stroke-width="0.5"/>
<path d="M98.9697 31.7224C103.47 37.2224 110.47 33.7224 114.47 32.2224C115.47 16.7223 102.47 24.7223 98.9697 31.7224Z" fill="#E0426F" stroke="black" stroke-width="0.5"/>
<path d="M234.468 9.22217L231.468 12.7222C248.468 18.2222 258.968 21.2222 271.468 27.7222H272.968L280.968 26.2222C265.968 19.7222 258.468 17.2222 234.468 9.22217Z" fill="#EDADBF" stroke="black" stroke-width="0.5"/>
<path d="M271.468 27.7222C260.968 22.2222 241.968 15.7222 231.468 12.7222L229.468 15.2222L244.468 22.7222C242.968 25.2222 238.968 27.2222 232.968 29.9222C244.968 29.2222 261.968 28.2222 271.468 27.7222Z" fill="#EDADBF" stroke="black" stroke-width="0.5"/>
<path d="M276.97 34.0222L282.968 31.7222L272.469 27.7222L228.469 30.2222C220.969 45.2222 205.969 75.7222 197.969 76.7222H212.469C210.969 65.7222 220.469 42.2222 245.47 51.2222C255.97 45.7222 265.97 40.2222 276.97 34.0222Z" fill="#EDADBF" stroke="black" stroke-width="0.5"/>
<path d="M277.968 33.7222C265.968 40.2222 255.968 45.7222 245.468 51.2222C249.968 54.2222 260.468 60.2222 259.468 79.2222L284.468 78.7222V77.2222C292.968 76.2222 301.468 79.7222 299.968 65.7222L301.968 55.7222C301.968 54.2222 299.468 50.2222 296.968 49.7222C298.468 47.2222 295.468 38.2222 295.468 38.2222V36.7222L291.468 33.7222L286.468 32.2222L282.968 31.7222L277.968 33.7222Z" fill="#EDADBF" stroke="black" stroke-width="0.5"/>
<path d="M280.968 26.2222L272.468 27.7222L282.968 31.7222C292.468 32.7222 291.467 34.2222 295.462 36.6423L294.968 28.2222L280.968 26.2222Z" fill="#EDADBF"/>
<path d="M295.468 36.7222L295.462 36.6423M295.462 36.6423L294.968 28.2222L280.968 26.2222L272.468 27.7222L282.968 31.7222C292.468 32.7222 291.467 34.2222 295.462 36.6423Z" stroke="black" stroke-width="0.5"/>
<path d="M293.97 36.2224C293.47 33.7223 282.47 33.5222 276.97 34.0222" stroke="black" stroke-width="0.5"/>
<path d="M299.97 66.2222L260.47 68.2222C259.97 63.2222 257.803 59.0555 255.97 57.2222L301.97 54.7222M300.47 52.2222C289.47 50.7222 278.47 45.9222 266.47 39.9222M228.47 30.2222L272.47 27.7222L280.97 26.2222" stroke="black" stroke-width="0.5"/>
<path d="M290.47 40.2222C290.47 38.2222 289.47 34.2222 285.97 32.2222C288.191 32.2222 291.567 33.2626 294.079 35.6322C294.542 37.1622 293.47 40.7222 290.428 42.2222C290.414 41.6319 290.47 40.9465 290.47 40.2222Z" fill="#EDADBF"/>
<path d="M272.47 42.7222C279.465 43.072 285.482 43.177 290.863 43.7222M297.47 44.7222C295.367 44.2715 293.173 43.9563 290.863 43.7222M295.47 37.2222C295.052 36.637 294.583 36.1078 294.079 35.6322M290.863 43.7222C290.537 43.3774 290.443 42.8544 290.428 42.2222M290.428 42.2222C290.414 41.6319 290.47 40.9465 290.47 40.2222C290.47 38.2222 289.47 34.2222 285.97 32.2222C288.191 32.2222 291.567 33.2626 294.079 35.6322M290.428 42.2222C293.47 40.7222 294.542 37.1622 294.079 35.6322" stroke="black" stroke-width="0.5"/>
<path d="M290.47 40.2222C285.97 40.2222 283.97 36.2222 282.97 33.7222" stroke="black" stroke-width="0.5"/>
<path d="M132.468 12.3221C118.968 16.3221 106.968 22.2222 92.9678 35.2222C99.9678 23.2222 115.468 13.7222 130.968 8.72217L132.468 12.3221Z" fill="#EFC7D3" stroke="black" stroke-width="0.5"/>
<path d="M130.968 8.72217C110.968 14.3962 92.9678 31.7222 84.9678 29.7222C97.9678 20.2222 113.968 11.7222 130.468 7.22217L130.968 8.72217Z" fill="#EFC7D3" stroke="black" stroke-width="0.5"/>
<path d="M9.96844 47.7221H3.96844C1.46777 51.722 1.46777 61.722 1.96844 65.222C0.467773 66.222 0.468371 70.722 1.46844 72.222L5.46844 72.722V74.222L1.46844 76.222V78.222C5.46844 79.222 13.9684 81.222 21.9684 80.722V79.222H39.4684C38.8018 70.722 40.4684 60.222 49.4684 53.222C46.9684 49.222 39.9684 44.722 36.9684 44.2221C26.9684 43.222 11.9684 45.7221 9.96844 47.7221Z" fill="#EFC7D3" stroke="black" stroke-width="0.5"/>
<path d="M92.9697 35.2222C75.1364 36.0555 43.4697 40.9222 32.9697 43.9222L36.9697 44.2222C41.9697 45.7222 47.4697 50.0555 49.4697 53.2222C62.4688 43.7222 87.9688 50.7222 86.4688 78.2222H96.4688C89.4688 67.2222 90.4688 45.2222 92.9697 35.2222Z" fill="#EFC7D3" stroke="black" stroke-width="0.5"/>
<path d="M9.96777 47.7222H3.96777C36.468 28.2221 58.468 34.2222 84.4678 29.7222L93.468 35.2222C76.468 36.2222 47.4678 39.7222 33.4678 43.9222C25.4678 43.7222 11.4678 45.7222 9.96777 47.7222Z" fill="#EFC7D3" stroke="black" stroke-width="0.5"/>
<path d="M36.9692 44.2222C29.4692 43.2222 12.4692 45.2222 9.96923 47.7222C9.16923 50.1222 12.3026 53.0555 13.9692 54.2222C23.4692 55.7222 36.9692 49.7222 36.9692 44.2222Z" fill="#EFC7D3" stroke="black" stroke-width="0.5"/>
<path d="M3.96847 47.7222C10.9685 48.7222 4.96847 59.2222 1.96847 64.2222C1.4684 57.2222 1.96826 51.7222 3.96847 47.7222Z" fill="#EFC7D3" stroke="black" stroke-width="0.5"/>
<path d="M21.9678 83.7222V79.2222H39.4678L39.9678 83.7222H21.9678Z" fill="#EFC7D3" stroke="black" stroke-width="0.5"/>
<path d="M2.46973 65.2222C3.96973 67.7222 5.96973 70.8888 5.46973 72.7222M21.9697 79.2222C11.4697 79.7222 6.96973 75.7222 7.96973 72.2222C8.46973 71.7222 9.96973 70.2222 10.9697 70.2222" stroke="black" stroke-width="0.5"/>
<path d="M31.9697 74.2223C29.4697 70.2223 23.9697 65.2224 20.9697 63.7224C19.2197 63.2224 16.5946 63.3474 13.8445 63.7224C12.2196 65.0557 10.9697 68.2223 11.4697 71.2223C11.4697 72.389 12.7771 74.7223 15.4697 74.7223C19.9697 74.7223 26.9697 75.2223 31.9697 74.2223Z" fill="#EFC7D3"/>
<path d="M5.96973 65.2224C8.21967 64.7223 11.0946 64.0974 13.8445 63.7224M13.8445 63.7224C16.5946 63.3474 19.2197 63.2224 20.9697 63.7224C23.9697 65.2224 29.4697 70.2223 31.9697 74.2223C26.9697 75.2223 19.9697 74.7223 15.4697 74.7223C12.7771 74.7223 11.4697 72.389 11.4697 71.2223C10.9697 68.2223 12.2196 65.0557 13.8445 63.7224Z" stroke="black" stroke-width="0.5"/>
<path d="M11.4697 70.7224C19.4697 69.2224 22.9697 71.8509 25.9697 73.3509M12.9697 73.7224L30.4697 73.2224" stroke="black" stroke-width="0.5"/>
<path d="M21.9678 82.2222H31.4678C33.4678 82.2222 34.9678 80.2222 34.4678 79.2222M37.9678 79.2222V83.7222" stroke="black" stroke-width="0.5"/>
<path d="M21.9697 80.7224C17.4697 80.7224 12.9697 81.2224 1.46967 78.2224V76.2224L5.46967 74.2224V72.7224L1.46967 72.2224C0.96875 70.7222 -0.0310541 67.7222 1.96894 65.2222C1.46918 57.2222 1.96918 50.7222 3.96967 47.7219C36.4697 28.2223 58.4697 34.2224 84.4697 29.7224C162.47 -25.2778 244.47 11.7222 281.47 26.2223L294.97 28.2222L295.47 35.2222V38.2222C296.968 43.2222 298.303 47.7222 296.97 49.7222C299.47 50.7222 301.97 53.8888 301.97 55.7222L299.97 65.7222C300.422 76.5701 298.013 76.7944 288.682 77.1068C287.691 77.14 285.622 77.1742 284.47 77.2222V78.7222L259.47 79.1532M21.9697 80.7224V83.7224H39.968L39.4697 79.2224M21.9697 80.7224V79.2224H39.4697M39.4697 79.2224C36.4697 37.7224 89.9697 40.7224 86.4697 79.7224V82.2222H212.97C206.97 38.7222 261.47 38.7222 259.47 79.1532M258.968 79.1532H259.47" stroke="black"/>
</svg>
