<svg width="303" height="96" viewBox="0 0 303 96" fill="none" xmlns="http://www.w3.org/2000/svg">
<circle cx="62.2607" cy="74.5227" r="20.5" fill="#E56E90" stroke="black"/>
<circle cx="235.261" cy="74.5227" r="20.5" fill="#E56E90" stroke="black"/>
<path d="M132.259 13.0226L130.759 9.52256C170.759 1.52267 192.259 2.02271 231.259 13.5227L227.759 18.0226C207.759 10.0226 189.759 9.02261 173.759 8.52268C171.259 8.02268 167.259 8.02264 164.759 8.52256C154.759 8.52268 142.759 10.0227 132.259 13.0226Z" fill="#EFC7D3" stroke="black" stroke-width="0.5"/>
<path d="M130.759 9.52275L130.259 8.02275C166.259 -2.97729 198.759 1.02258 234.259 10.0228L231.259 13.5228C191.259 1.02271 165.259 2.52271 130.759 9.52275Z" fill="#EFC7D3" stroke="black" stroke-width="0.5"/>
<path d="M130.759 9.52269C182.259 -1.97733 210.759 8.02271 231.259 13.5227" stroke="black" stroke-width="0.5"/>
<path d="M170.261 30.5227L173.761 8.52271C207.261 9.52271 218.761 15.0227 223.261 16.5227L225.743 28.5227C198.753 28.5233 181.258 30.0228 170.261 30.5227Z" fill="#EFC7D3"/>
<path d="M226.261 31.0227L223.261 16.5227C218.761 15.0227 207.261 9.52271 173.761 8.52271L170.261 30.5227C181.261 30.0227 198.761 28.5227 225.761 28.5227" stroke="black" stroke-width="0.5"/>
<path d="M164.761 8.52271C131.761 9.52271 111.761 18.5227 92.7607 36.0227L95.2607 34.0227L159.261 31.0227L164.761 8.52271Z" fill="#EFC7D3" stroke="black" stroke-width="0.5"/>
<path d="M239.259 23.0227C235.592 20.356 229.759 18.0227 223.259 16.5227L225.759 28.5227H232.259C235.259 27.0227 238.259 24.7914 239.259 23.0227Z" fill="#EFC7D3" stroke="black" stroke-width="0.5"/>
<path d="M96.2607 79.0227H163.261L197.761 77.5227H212.261L212.761 83.0227H198.761H97.7607H86.2607V79.0227H96.2607Z" fill="#EFC7D3"/>
<path d="M96.2607 79.0227H163.261L197.761 77.5227M96.2607 79.0227C96.2607 80.5227 96.7607 81.5227 97.7607 83.0227M96.2607 79.0227H86.2607V83.0227H97.7607M197.761 77.5227L198.761 83.0227M197.761 77.5227H212.261L212.761 83.0227H198.761M198.761 83.0227H97.7607" stroke="black" stroke-width="0.5"/>
<path d="M96.2599 79.0227C91.7607 74.5227 88.7608 52.5227 92.7599 36.0227L164.761 32.0227C160.761 37.0227 159.761 71.0227 163.261 79.0227H96.2599Z" fill="#EFC7D3" stroke="black" stroke-width="0.5"/>
<path d="M228.261 31.0227L164.761 32.0227C160.761 37.0227 159.761 71.0227 163.261 79.0227L197.761 77.5227C202.261 76.0227 208.761 70.5227 228.261 31.0227Z" fill="#EFC7D3" stroke="black" stroke-width="0.5"/>
<path d="M170.261 30.5228C165.761 31.0228 162.261 31.0228 159.261 31.0228L164.761 8.52278C167.761 8.02271 170.761 8.02271 173.761 8.52278L170.261 30.5228Z" fill="#EFC7D3" stroke="black" stroke-width="0.5"/>
<path d="M98.7607 32.5228C103.261 38.0228 110.261 34.5228 114.261 33.0228C115.261 17.5227 102.261 25.5227 98.7607 32.5228Z" fill="#EFC7D3" stroke="black" stroke-width="0.5"/>
<path d="M234.259 10.0227L231.259 13.5227C248.259 19.0227 258.759 22.0227 271.259 28.5227H272.759L280.759 27.0227C265.759 20.5227 258.259 18.0227 234.259 10.0227Z" fill="#E56E90" stroke="black" stroke-width="0.5"/>
<path d="M271.259 28.5227C260.759 23.0227 241.759 16.5227 231.259 13.5227L229.259 16.0227L244.259 23.5227C242.759 26.0227 238.759 28.0227 232.759 30.7227C244.759 30.0227 261.759 29.0227 271.259 28.5227Z" fill="#E56E90" stroke="black" stroke-width="0.5"/>
<path d="M276.761 34.8227L282.759 32.5227L272.26 28.5227L228.26 31.0227C220.76 46.0227 205.76 76.5227 197.76 77.5227H212.26C210.76 66.5227 220.26 43.0227 245.261 52.0227C255.761 46.5227 265.761 41.0227 276.761 34.8227Z" fill="#E56E90" stroke="black" stroke-width="0.5"/>
<path d="M277.759 34.5227C265.759 41.0227 255.759 46.5227 245.259 52.0227C249.759 55.0227 260.259 61.0227 259.259 80.0227L284.259 79.5227V78.0227C292.759 77.0227 301.259 80.5227 299.759 66.5227L301.759 56.5227C301.759 55.0227 299.259 51.0227 296.759 50.5227C298.259 48.0227 295.259 39.0227 295.259 39.0227V37.5227L291.259 34.5227L286.259 33.0227L282.759 32.5227L277.759 34.5227Z" fill="#E56E90" stroke="black" stroke-width="0.5"/>
<path d="M280.759 27.0227L272.259 28.5227L282.759 32.5227C292.259 33.5227 291.258 35.0227 295.253 37.4429L294.759 29.0227L280.759 27.0227Z" fill="#E56E90"/>
<path d="M295.259 37.5227L295.253 37.4429M295.253 37.4429L294.759 29.0227L280.759 27.0227L272.259 28.5227L282.759 32.5227C292.259 33.5227 291.258 35.0227 295.253 37.4429Z" stroke="black" stroke-width="0.5"/>
<path d="M293.761 37.0229C293.261 34.5228 282.261 34.3227 276.761 34.8227" stroke="black" stroke-width="0.5"/>
<path d="M299.761 67.0227L260.261 69.0227C259.761 64.0227 257.594 59.856 255.761 58.0227L301.761 55.5227M300.261 53.0227C289.261 51.5227 278.261 46.7227 266.261 40.7227M228.261 31.0227L272.261 28.5227L280.761 27.0227" stroke="black" stroke-width="0.5"/>
<path d="M290.261 41.0227C290.261 39.0227 289.261 35.0227 285.761 33.0227C287.982 33.0227 291.358 34.0631 293.87 36.4327C294.333 37.9627 293.261 41.5227 290.219 43.0227C290.205 42.4324 290.261 41.747 290.261 41.0227Z" fill="#E56E90"/>
<path d="M272.261 43.5227C279.256 43.8725 285.273 43.9776 290.654 44.5227M297.261 45.5227C295.158 45.0721 292.964 44.7568 290.654 44.5227M295.261 38.0227C294.843 37.4376 294.374 36.9084 293.87 36.4327M290.654 44.5227C290.328 44.1779 290.234 43.6549 290.219 43.0227M290.219 43.0227C290.205 42.4324 290.261 41.747 290.261 41.0227C290.261 39.0227 289.261 35.0227 285.761 33.0227C287.982 33.0227 291.358 34.0631 293.87 36.4327M290.219 43.0227C293.261 41.5227 294.333 37.9627 293.87 36.4327" stroke="black" stroke-width="0.5"/>
<path d="M290.261 41.0227C285.761 41.0227 283.761 37.0227 282.761 34.5227" stroke="black" stroke-width="0.5"/>
<path d="M132.259 13.1227C118.759 17.1227 106.759 23.0227 92.7588 36.0227C99.7588 24.0227 115.259 14.5227 130.759 9.52271L132.259 13.1227Z" fill="#E56E90" stroke="black" stroke-width="0.5"/>
<path d="M130.759 9.52271C110.759 15.1967 92.7588 32.5227 84.7588 30.5227C97.7588 21.0227 113.759 12.5227 130.259 8.02271L130.759 9.52271Z" fill="#E56E90" stroke="black" stroke-width="0.5"/>
<path d="M9.75946 48.5227H3.75946C1.25879 52.5227 1.25879 62.5227 1.75946 66.0227C0.258789 67.0227 0.259387 71.5227 1.25946 73.0227L5.25946 73.5227V75.0227L1.25946 77.0227V79.0227C5.25946 80.0227 13.7595 82.0227 21.7595 81.5227V80.0227H39.2595C38.5928 71.5227 40.2595 61.0227 49.2595 54.0227C46.7595 50.0227 39.7595 45.5227 36.7595 45.0227C26.7595 44.0227 11.7595 46.5227 9.75946 48.5227Z" fill="#E56E90" stroke="black" stroke-width="0.5"/>
<path d="M92.7607 36.0227C74.9274 36.856 43.2607 41.7227 32.7607 44.7227L36.7607 45.0227C41.7607 46.5227 47.2607 50.856 49.2607 54.0227C62.2598 44.5227 87.7598 51.5227 86.2598 79.0227H96.2598C89.2598 68.0227 90.2598 46.0227 92.7607 36.0227Z" fill="#E56E90" stroke="black" stroke-width="0.5"/>
<path d="M9.75879 48.5228H3.75879C36.259 29.0227 58.259 35.0227 84.2588 30.5227L93.259 36.0227C76.259 37.0227 47.2588 40.5227 33.2588 44.7227C25.2588 44.5227 11.2588 46.5227 9.75879 48.5228Z" fill="#E56E90" stroke="black" stroke-width="0.5"/>
<path d="M36.7602 45.0228C29.2602 44.0227 12.2602 46.0227 9.76024 48.5228C8.96024 50.9227 12.0936 53.856 13.7602 55.0227C23.2603 56.5227 36.7602 50.5227 36.7602 45.0228Z" fill="#E56E90" stroke="black" stroke-width="0.5"/>
<path d="M3.75948 48.5227C10.7595 49.5227 4.75948 60.0227 1.75948 65.0227C1.25941 58.0227 1.75928 52.5227 3.75948 48.5227Z" fill="#E56E90" stroke="black" stroke-width="0.5"/>
<path d="M21.7588 84.5227V80.0227H39.2588L39.7588 84.5227H21.7588Z" fill="#E56E90" stroke="black" stroke-width="0.5"/>
<path d="M2.26074 66.0225C3.76074 68.5225 5.76074 71.6891 5.26074 73.5225M21.7607 80.0225C11.2607 80.5225 6.76074 76.5225 7.76074 73.0225C8.26074 72.5225 9.76074 71.0225 10.7607 71.0225" stroke="black" stroke-width="0.5"/>
<path d="M31.7607 75.0226C29.2607 71.0226 23.7607 66.0227 20.7607 64.5227C19.0107 64.0227 16.3856 64.1477 13.6355 64.5227C12.0106 65.856 10.7607 69.0226 11.2607 72.0226C11.2607 73.1892 12.5682 75.5226 15.2607 75.5226C19.7607 75.5226 26.7607 76.0226 31.7607 75.0226Z" fill="#E56E90"/>
<path d="M5.76074 66.0227C8.01068 65.5226 10.8856 64.8977 13.6355 64.5227M13.6355 64.5227C16.3856 64.1477 19.0107 64.0227 20.7607 64.5227C23.7607 66.0227 29.2607 71.0226 31.7607 75.0226C26.7607 76.0226 19.7607 75.5226 15.2607 75.5226C12.5682 75.5226 11.2607 73.1892 11.2607 72.0226C10.7607 69.0226 12.0106 65.856 13.6355 64.5227Z" stroke="black" stroke-width="0.5"/>
<path d="M11.2607 71.5227C19.2607 70.0227 22.7607 72.6512 25.7607 74.1512M12.7607 74.5227L30.2607 74.0227" stroke="black" stroke-width="0.5"/>
<path d="M21.7588 83.0225H31.2588C33.2588 83.0225 34.7588 81.0225 34.2588 80.0225M37.7588 80.0225V84.5225" stroke="black" stroke-width="0.5"/>
<path d="M21.7607 81.5229C17.2607 81.5229 12.7607 82.0229 1.26069 79.0229V77.0229L5.26069 75.0229V73.5229L1.26069 73.023C0.759766 71.5227 -0.240039 68.5227 1.75996 66.0227C1.2602 58.0227 1.7602 51.5227 3.76069 48.5224C36.2607 29.0228 58.2607 35.0229 84.2607 30.5229C162.261 -24.4772 244.261 12.5227 281.261 27.0229L294.761 29.0227L295.261 36.0227V39.0227C296.759 44.0227 298.094 48.5227 296.761 50.5227C299.261 51.5227 301.761 54.6894 301.761 56.5227L299.761 66.5227C300.213 77.3706 297.805 77.5949 288.473 77.9073C287.482 77.9405 285.413 77.9747 284.261 78.0227V79.5227L259.261 79.9537M21.7607 81.5229V84.5229H39.759L39.2607 80.0229M21.7607 81.5229V80.0229H39.2607M39.2607 80.0229C36.2607 38.5229 89.7607 41.5229 86.2607 80.5229V83.0227H212.761C206.761 39.5227 261.261 39.5227 259.261 79.9537M258.759 79.9537H259.261" stroke="black"/>
</svg>
