<svg width="303" height="96" viewBox="0 0 303 96" fill="none" xmlns="http://www.w3.org/2000/svg">
<circle cx="62.8853" cy="74.0151" r="20.5" fill="#EFC7D3" stroke="black"/>
<circle cx="235.885" cy="74.0151" r="20.5" fill="#EFC7D3" stroke="black"/>
<path d="M132.884 12.515L131.384 9.01499C171.384 1.0151 192.884 1.51514 231.884 13.0151L228.384 17.5151C208.384 9.51505 190.384 8.51505 174.384 8.01511C171.884 7.51511 167.884 7.51508 165.384 8.01499C155.384 8.01511 143.384 9.51511 132.884 12.515Z" fill="#EFC7D3" stroke="black" stroke-width="0.5"/>
<path d="M131.384 9.01518L130.884 7.51518C166.884 -3.48486 199.384 0.515011 234.884 9.51518L231.884 13.0152C191.884 0.515137 165.884 2.01514 131.384 9.01518Z" fill="#EFC7D3" stroke="black" stroke-width="0.5"/>
<path d="M131.384 9.01512C182.884 -2.4849 211.384 7.51514 231.884 13.0151" stroke="black" stroke-width="0.5"/>
<path d="M170.885 30.0151L174.385 8.01514C207.885 9.01514 219.385 14.5151 223.885 16.0151L226.368 28.0151C199.378 28.0158 181.883 29.5152 170.885 30.0151Z" fill="#EFC7D3"/>
<path d="M226.885 30.5151L223.885 16.0151C219.385 14.5151 207.885 9.01514 174.385 8.01514L170.885 30.0151C181.885 29.5151 199.385 28.0151 226.385 28.0151" stroke="black" stroke-width="0.5"/>
<path d="M165.385 8.01514C132.385 9.01514 112.385 18.0151 93.3853 35.5151L95.8853 33.5151L159.885 30.5151L165.385 8.01514Z" fill="#EFC7D3" stroke="black" stroke-width="0.5"/>
<path d="M239.884 22.5151C236.217 19.8485 230.384 17.5151 223.884 16.0151L226.384 28.0151H232.884C235.884 26.5151 238.884 24.2839 239.884 22.5151Z" fill="#EFC7D3" stroke="black" stroke-width="0.5"/>
<path d="M96.8853 78.5151H163.885L198.385 77.0151H212.885L213.385 82.5151H199.385H98.3853H86.8853V78.5151H96.8853Z" fill="#EFC7D3"/>
<path d="M96.8853 78.5151H163.885L198.385 77.0151M96.8853 78.5151C96.8853 80.0151 97.3853 81.0151 98.3853 82.5151M96.8853 78.5151H86.8853V82.5151H98.3853M198.385 77.0151L199.385 82.5151M198.385 77.0151H212.885L213.385 82.5151H199.385M199.385 82.5151H98.3853" stroke="black" stroke-width="0.5"/>
<path d="M96.8844 78.5151C92.3852 74.0151 89.3853 52.0151 93.3844 35.5151L165.385 31.5151C161.385 36.5151 160.385 70.5151 163.885 78.5151H96.8844Z" fill="#EFC7D3" stroke="black" stroke-width="0.5"/>
<path d="M228.885 30.5151L165.385 31.5151C161.385 36.5151 160.385 70.5151 163.885 78.5151L198.385 77.0151C202.885 75.5151 209.385 70.0151 228.885 30.5151Z" fill="#EFC7D3" stroke="black" stroke-width="0.5"/>
<path d="M170.885 30.0152C166.385 30.5152 162.885 30.5152 159.885 30.5152L165.385 8.01521C168.385 7.51514 171.385 7.51514 174.385 8.01521L170.885 30.0152Z" fill="#EFC7D3" stroke="black" stroke-width="0.5"/>
<path d="M99.3853 32.0153C103.885 37.5153 110.885 34.0153 114.885 32.5153C115.885 17.0152 102.885 25.0151 99.3853 32.0153Z" fill="#EFC7D3" stroke="black" stroke-width="0.5"/>
<path d="M234.884 9.51514L231.884 13.0151C248.884 18.5151 259.384 21.5151 271.884 28.0151H273.384L281.384 26.5151C266.384 20.0151 258.884 17.5151 234.884 9.51514Z" fill="#EFC7D3" stroke="black" stroke-width="0.5"/>
<path d="M271.884 28.0151C261.384 22.5151 242.384 16.0151 231.884 13.0151L229.884 15.5151L244.884 23.0151C243.384 25.5151 239.384 27.5151 233.384 30.2151C245.384 29.5151 262.384 28.5151 271.884 28.0151Z" fill="#EFC7D3" stroke="black" stroke-width="0.5"/>
<path d="M277.385 34.3151L283.384 32.0151L272.884 28.0151L228.884 30.5151C221.384 45.5151 206.384 76.0151 198.384 77.0151H212.884C211.384 66.0151 220.884 42.5151 245.885 51.5151C256.385 46.0151 266.385 40.5151 277.385 34.3151Z" fill="#EFC7D3" stroke="black" stroke-width="0.5"/>
<path d="M278.384 34.0152C266.384 40.5152 256.384 46.0152 245.884 51.5152C250.384 54.5151 260.884 60.5151 259.884 79.5151L284.884 79.0151V77.5151C293.384 76.5151 301.884 80.0151 300.384 66.0151L302.384 56.0151C302.384 54.5151 299.884 50.5151 297.384 50.0151C298.884 47.5151 295.884 38.5151 295.884 38.5151V37.0151L291.884 34.0151L286.884 32.5151L283.384 32.0151L278.384 34.0152Z" fill="#EFC7D3" stroke="black" stroke-width="0.5"/>
<path d="M281.384 26.5151L272.884 28.0151L283.384 32.0151C292.884 33.0151 291.883 34.5151 295.878 36.9353L295.384 28.5151L281.384 26.5151Z" fill="#EFC7D3"/>
<path d="M295.884 37.0151L295.878 36.9353M295.878 36.9353L295.384 28.5151L281.384 26.5151L272.884 28.0151L283.384 32.0151C292.884 33.0151 291.883 34.5151 295.878 36.9353Z" stroke="black" stroke-width="0.5"/>
<path d="M294.385 36.5153C293.885 34.0152 282.885 33.8151 277.385 34.3151" stroke="black" stroke-width="0.5"/>
<path d="M300.385 66.5151L260.885 68.5151C260.385 63.5151 258.219 59.3485 256.385 57.5151L302.385 55.0151M300.885 52.5151C289.885 51.0151 278.885 46.2151 266.885 40.2151M228.885 30.5151L272.885 28.0151L281.385 26.5151" stroke="black" stroke-width="0.5"/>
<path d="M290.885 40.5151C290.885 38.5151 289.885 34.5151 286.385 32.5151C288.606 32.5151 291.983 33.5555 294.494 35.9251C294.958 37.4551 293.885 41.0151 290.843 42.5151C290.83 41.9249 290.885 41.2394 290.885 40.5151Z" fill="#EFC7D3"/>
<path d="M272.885 43.0151C279.881 43.3649 285.898 43.47 291.278 44.0151M297.885 45.0151C295.782 44.5645 293.589 44.2492 291.278 44.0151M295.885 37.5151C295.467 36.93 294.998 36.4008 294.494 35.9251M291.278 44.0151C290.952 43.6704 290.858 43.1473 290.843 42.5151M290.843 42.5151C290.83 41.9249 290.885 41.2394 290.885 40.5151C290.885 38.5151 289.885 34.5151 286.385 32.5151C288.606 32.5151 291.983 33.5555 294.494 35.9251M290.843 42.5151C293.885 41.0151 294.958 37.4551 294.494 35.9251" stroke="black" stroke-width="0.5"/>
<path d="M290.885 40.5151C286.385 40.5151 284.385 36.5151 283.385 34.0151" stroke="black" stroke-width="0.5"/>
<path d="M132.884 12.6151C119.384 16.6151 107.384 22.5151 93.3838 35.5151C100.384 23.5151 115.884 14.0151 131.384 9.01514L132.884 12.6151Z" stroke="black" stroke-width="0.5"/>
<path d="M131.384 9.01514C111.384 14.6892 93.3838 32.0151 85.3838 30.0151C98.3838 20.5151 114.384 12.0151 130.884 7.51514L131.384 9.01514Z" stroke="black" stroke-width="0.5"/>
<path d="M10.3845 48.0151H4.38446C1.88379 52.0151 1.88379 62.0151 2.38446 65.5151C0.883789 66.5151 0.884387 71.0151 1.88446 72.5151L5.88446 73.0151V74.5151L1.88446 76.5151V78.5151C5.88446 79.5151 14.3845 81.5151 22.3845 81.0151V79.5151H39.8845C39.2178 71.0151 40.8845 60.5151 49.8845 53.5151C47.3845 49.5151 40.3845 45.0151 37.3845 44.5151C27.3845 43.5151 12.3845 46.0151 10.3845 48.0151Z" stroke="black" stroke-width="0.5"/>
<path d="M93.3853 35.5151C75.5519 36.3485 43.8853 41.2151 33.3853 44.2151L37.3853 44.5151C42.3853 46.0151 47.8853 50.3485 49.8853 53.5151C62.8843 44.0151 88.3843 51.0151 86.8843 78.5151H96.8843C89.8843 67.5151 90.8843 45.5151 93.3853 35.5151Z" stroke="black" stroke-width="0.5"/>
<path d="M10.3838 48.0152H4.38379C36.884 28.5151 58.884 34.5151 84.8838 30.0151L93.884 35.5151C76.884 36.5151 47.8838 40.0151 33.8838 44.2151C25.8838 44.0151 11.8838 46.0151 10.3838 48.0152Z" stroke="black" stroke-width="0.5"/>
<path d="M37.3852 44.5152C29.8852 43.5151 12.8852 45.5151 10.3852 48.0152C9.58524 50.4152 12.7186 53.3485 14.3852 54.5151C23.8853 56.0151 37.3852 50.0151 37.3852 44.5152Z" stroke="black" stroke-width="0.5"/>
<path d="M4.38448 48.0151C11.3845 49.0151 5.38448 59.5151 2.38448 64.5151C1.88441 57.5151 2.38428 52.0151 4.38448 48.0151Z" stroke="black" stroke-width="0.5"/>
<path d="M22.3838 84.0151V79.5151H39.8838L40.3838 84.0151H22.3838Z" stroke="black" stroke-width="0.5"/>
<path d="M2.88574 65.5151C4.38574 68.0151 6.38574 71.1818 5.88574 73.0151M22.3857 79.5151C11.8857 80.0151 7.38574 76.0151 8.38574 72.5151C8.88574 72.0151 10.3857 70.5151 11.3857 70.5151" stroke="black" stroke-width="0.5"/>
<path d="M6.38574 65.5152C8.63568 65.0152 11.5106 64.3902 14.2605 64.0152M14.2605 64.0152C17.0106 63.6402 19.6357 63.5152 21.3857 64.0152C24.3857 65.5152 29.8857 70.5151 32.3857 74.5151C27.3857 75.5151 20.3857 75.0151 15.8857 75.0151C13.1932 75.0151 11.8857 72.6818 11.8857 71.5151C11.3857 68.5151 12.6356 65.3485 14.2605 64.0152Z" stroke="black" stroke-width="0.5"/>
<path d="M11.8857 71.0152C19.8857 69.5153 23.3857 72.1437 26.3857 73.6437M13.3857 74.0153L30.8857 73.5153" stroke="black" stroke-width="0.5"/>
<path d="M22.3838 82.5151H31.8838C33.8838 82.5151 35.3838 80.5151 34.8838 79.5151M38.3838 79.5151V84.0151" stroke="black" stroke-width="0.5"/>
<path d="M22.3852 81.0154C17.8852 81.0154 13.3852 81.5154 1.8852 78.5154V76.5154L5.8852 74.5154V73.0154L1.8852 72.5154C1.38428 71.0151 0.384473 68.0151 2.38447 65.5151C1.88471 57.5151 2.38471 51.0151 4.3852 48.0149C36.8852 28.5153 58.8852 34.5153 84.8852 30.0153C162.885 -24.9848 244.885 12.0151 281.885 26.5153L295.385 28.5151L295.885 35.5151V38.5151C297.384 43.5151 298.719 48.0151 297.385 50.0151C299.885 51.0151 302.385 54.1818 302.385 56.0151L300.385 66.0151C300.837 76.863 298.429 77.0873 289.098 77.3998C288.106 77.433 286.037 77.4671 284.885 77.5151V79.0151L259.885 79.4462M22.3852 81.0154V84.0154H40.3835L39.8852 79.5154M22.3852 81.0154V79.5154H39.8852M39.8852 79.5154C36.8852 38.0154 90.3852 41.0154 86.8852 80.0154V82.5151H213.385C207.385 39.0151 261.885 39.0151 259.885 79.4462M259.384 79.4462H259.885" stroke="black"/>
</svg>
