<svg width="303" height="96" viewBox="0 0 303 96" fill="none" xmlns="http://www.w3.org/2000/svg">
<circle cx="62.8545" cy="74.5378" r="20.5" fill="#EFC7D3" stroke="black"/>
<circle cx="235.854" cy="74.5378" r="20.5" fill="#EFC7D3" stroke="black"/>
<path d="M132.853 13.0377L131.353 9.5377C171.353 1.53781 192.853 2.03784 231.853 13.5378L228.353 18.0378C208.353 10.0378 190.353 9.03775 174.353 8.53782C171.853 8.03782 167.853 8.03778 165.353 8.5377C155.353 8.53782 143.353 10.0378 132.853 13.0377Z" fill="#EDADBF" stroke="black" stroke-width="0.5"/>
<path d="M131.353 9.53789L130.853 8.03789C166.853 -2.96216 199.353 1.03772 234.853 10.0379L231.853 13.5379C191.853 1.03784 165.853 2.53784 131.353 9.53789Z" fill="#EDADBF" stroke="black" stroke-width="0.5"/>
<path d="M131.353 9.53771C182.853 -1.96232 211.353 8.03772 231.853 13.5377" stroke="black" stroke-width="0.5"/>
<path d="M170.854 30.5378L174.354 8.53784C207.854 9.53784 219.354 15.0378 223.854 16.5378L226.337 28.5378C199.347 28.5385 181.852 30.0379 170.854 30.5378Z" fill="#EDADBF"/>
<path d="M226.854 31.0378L223.854 16.5378C219.354 15.0378 207.854 9.53784 174.354 8.53784L170.854 30.5378C181.854 30.0378 199.354 28.5378 226.354 28.5378" stroke="black" stroke-width="0.5"/>
<path d="M165.354 8.53784C132.354 9.53784 112.354 18.5378 93.3545 36.0378L95.8545 34.0378L159.854 31.0378L165.354 8.53784Z" fill="#EDADBF" stroke="black" stroke-width="0.5"/>
<path d="M239.853 23.0378C236.186 20.3712 230.353 18.0378 223.853 16.5378L226.353 28.5378H232.853C235.853 27.0378 238.853 24.8066 239.853 23.0378Z" fill="#EDADBF" stroke="black" stroke-width="0.5"/>
<path d="M96.8545 79.0378H163.854L198.354 77.5378H212.854L213.354 83.0378H199.354H98.3545H86.8545V79.0378H96.8545Z" fill="#EDADBF"/>
<path d="M96.8545 79.0378H163.854L198.354 77.5378M96.8545 79.0378C96.8545 80.5378 97.3545 81.5378 98.3545 83.0378M96.8545 79.0378H86.8545V83.0378H98.3545M198.354 77.5378L199.354 83.0378M198.354 77.5378H212.854L213.354 83.0378H199.354M199.354 83.0378H98.3545" stroke="black" stroke-width="0.5"/>
<path d="M96.8536 79.0378C92.3545 74.5378 89.3545 52.5378 93.3536 36.0378L165.354 32.0378C161.354 37.0378 160.354 71.0378 163.854 79.0378H96.8536Z" fill="#EDADBF" stroke="black" stroke-width="0.5"/>
<path d="M228.854 31.0378L165.354 32.0378C161.355 37.0378 160.355 71.0378 163.854 79.0378L198.354 77.5378C202.854 76.0378 209.354 70.5378 228.854 31.0378Z" fill="#EDADBF" stroke="black" stroke-width="0.5"/>
<path d="M170.854 30.5379C166.354 31.0379 162.854 31.0379 159.854 31.0379L165.354 8.53792C168.354 8.03784 171.354 8.03784 174.354 8.53792L170.854 30.5379Z" fill="#EDADBF" stroke="black" stroke-width="0.5"/>
<path d="M99.3545 32.5379C103.854 38.0379 110.854 34.5379 114.854 33.0379C115.854 17.5377 102.854 25.5377 99.3545 32.5379Z" fill="#EDADBF" stroke="black" stroke-width="0.5"/>
<path d="M234.853 10.0378L231.853 13.5378C248.853 19.0378 259.353 22.0378 271.853 28.5378H273.353L281.353 27.0378C266.353 20.5378 258.853 18.0378 234.853 10.0378Z" fill="#E0426F" stroke="black" stroke-width="0.5"/>
<path d="M271.853 28.5378C261.353 23.0378 242.353 16.5378 231.853 13.5378L229.853 16.0378L244.853 23.5378C243.353 26.0378 239.353 28.0378 233.353 30.7378C245.353 30.0378 262.353 29.0378 271.853 28.5378Z" fill="#E0426F" stroke="black" stroke-width="0.5"/>
<path d="M277.354 34.8378L283.353 32.5378L272.854 28.5378L228.854 31.0378C221.354 46.0378 206.354 76.5378 198.354 77.5378H212.854C211.354 66.5378 220.854 43.0378 245.854 52.0378C256.354 46.5378 266.354 41.0378 277.354 34.8378Z" fill="#E0426F" stroke="black" stroke-width="0.5"/>
<path d="M278.353 34.5379C266.353 41.0379 256.353 46.5379 245.853 52.0379C250.353 55.0378 260.853 61.0378 259.853 80.0378L284.853 79.5378V78.0378C293.353 77.0378 301.853 80.5378 300.353 66.5378L302.353 56.5378C302.353 55.0378 299.853 51.0378 297.353 50.5378C298.853 48.0378 295.853 39.0378 295.853 39.0378V37.5378L291.853 34.5378L286.853 33.0378L283.353 32.5378L278.353 34.5379Z" fill="#E0426F" stroke="black" stroke-width="0.5"/>
<path d="M281.353 27.0378L272.853 28.5378L283.353 32.5378C292.853 33.5378 291.851 35.0378 295.847 37.458L295.353 29.0378L281.353 27.0378Z" fill="#E0426F"/>
<path d="M295.853 37.5378L295.847 37.458M295.847 37.458L295.353 29.0378L281.353 27.0378L272.853 28.5378L283.353 32.5378C292.853 33.5378 291.851 35.0378 295.847 37.458Z" stroke="black" stroke-width="0.5"/>
<path d="M294.354 37.038C293.854 34.5379 282.854 34.3379 277.354 34.8379" stroke="black" stroke-width="0.5"/>
<path d="M300.354 67.0378L260.854 69.0378C260.354 64.0378 258.188 59.8712 256.354 58.0378L302.354 55.5378M300.854 53.0378C289.854 51.5378 278.854 46.7378 266.854 40.7378M228.854 31.0378L272.854 28.5378L281.354 27.0378" stroke="black" stroke-width="0.5"/>
<path d="M290.854 41.0378C290.854 39.0378 289.854 35.0378 286.354 33.0378C288.575 33.0378 291.952 34.0782 294.463 36.4478C294.927 37.9778 293.854 41.5378 290.813 43.0378C290.799 42.4476 290.854 41.7621 290.854 41.0378Z" fill="#E0426F"/>
<path d="M272.854 43.5378C279.85 43.8876 285.867 43.9927 291.248 44.5378M297.854 45.5378C295.751 45.0872 293.558 44.7719 291.248 44.5378M295.854 38.0378C295.437 37.4527 294.967 36.9235 294.463 36.4478M291.248 44.5378C290.921 44.1931 290.827 43.67 290.813 43.0378M290.813 43.0378C290.799 42.4476 290.854 41.7621 290.854 41.0378C290.854 39.0378 289.854 35.0378 286.354 33.0378C288.575 33.0378 291.952 34.0782 294.463 36.4478M290.813 43.0378C293.854 41.5378 294.927 37.9778 294.463 36.4478" stroke="black" stroke-width="0.5"/>
<path d="M290.854 41.0378C286.354 41.0378 284.354 37.0378 283.354 34.5378" stroke="black" stroke-width="0.5"/>
<path d="M132.853 13.1378C119.353 17.1378 107.353 23.0378 93.3525 36.0378C100.353 24.0378 115.853 14.5378 131.353 9.53784L132.853 13.1378Z" fill="#E0426F" stroke="black" stroke-width="0.5"/>
<path d="M131.353 9.53784C111.353 15.2119 93.3525 32.5378 85.3525 30.5378C98.3525 21.0378 114.353 12.5378 130.853 8.03784L131.353 9.53784Z" fill="#E0426F" stroke="black" stroke-width="0.5"/>
<path d="M10.3532 48.5377H4.35321C1.85254 52.5377 1.85254 62.5377 2.35321 66.0377C0.852539 67.0377 0.853137 71.5377 1.85321 73.0377L5.85321 73.5377V75.0377L1.85321 77.0377V79.0377C5.85321 80.0377 14.3532 82.0377 22.3532 81.5377V80.0377H39.8532C39.1865 71.5377 40.8532 61.0377 49.8532 54.0377C47.3532 50.0377 40.3532 45.5377 37.3532 45.0377C27.3532 44.0377 12.3532 46.5377 10.3532 48.5377Z" fill="#E0426F" stroke="black" stroke-width="0.5"/>
<path d="M93.3545 36.0378C75.5212 36.8712 43.8545 41.7378 33.3545 44.7378L37.3545 45.0378C42.3545 46.5378 47.8545 50.8712 49.8545 54.0378C62.8535 44.5378 88.3535 51.5378 86.8535 79.0378H96.8535C89.8535 68.0378 90.8535 46.0378 93.3545 36.0378Z" fill="#E0426F" stroke="black" stroke-width="0.5"/>
<path d="M10.3525 48.5379H4.35254C36.8527 29.0378 58.8528 35.0378 84.8525 30.5378L93.8528 36.0378C76.8528 37.0378 47.8525 40.5378 33.8525 44.7378C25.8525 44.5378 11.8525 46.5378 10.3525 48.5379Z" fill="#E0426F" stroke="black" stroke-width="0.5"/>
<path d="M37.354 45.0379C29.854 44.0378 12.854 46.0378 10.354 48.5379C9.55399 50.9379 12.6873 53.8712 14.354 55.0378C23.854 56.5378 37.354 50.5378 37.354 45.0379Z" fill="#E0426F" stroke="black" stroke-width="0.5"/>
<path d="M4.35323 48.5378C11.3532 49.5378 5.35323 60.0378 2.35323 65.0378C1.85316 58.0378 2.35303 52.5378 4.35323 48.5378Z" fill="#E0426F" stroke="black" stroke-width="0.5"/>
<path d="M22.3525 84.5378V80.0378H39.8525L40.3525 84.5378H22.3525Z" fill="#E0426F" stroke="black" stroke-width="0.5"/>
<path d="M2.85449 66.0376C4.35449 68.5376 6.35449 71.7043 5.85449 73.5376M22.3545 80.0376C11.8545 80.5376 7.35449 76.5376 8.35449 73.0376C8.85449 72.5376 10.3545 71.0376 11.3545 71.0376" stroke="black" stroke-width="0.5"/>
<path d="M32.3545 75.0377C29.8545 71.0377 24.3545 66.0378 21.3545 64.5378C19.6044 64.0378 16.9794 64.1628 14.2293 64.5378C12.6044 65.8711 11.3545 69.0377 11.8545 72.0377C11.8545 73.2044 13.1619 75.5377 15.8545 75.5377C20.3545 75.5377 27.3545 76.0377 32.3545 75.0377Z" fill="#E0426F"/>
<path d="M6.35449 66.0378C8.60443 65.5378 11.4793 64.9128 14.2293 64.5378M14.2293 64.5378C16.9794 64.1628 19.6044 64.0378 21.3545 64.5378C24.3545 66.0378 29.8545 71.0377 32.3545 75.0377C27.3545 76.0377 20.3545 75.5377 15.8545 75.5377C13.1619 75.5377 11.8545 73.2044 11.8545 72.0377C11.3545 69.0377 12.6043 65.8711 14.2293 64.5378Z" stroke="black" stroke-width="0.5"/>
<path d="M11.8545 71.5378C19.8545 70.0378 23.3545 72.6663 26.3545 74.1663M13.3545 74.5378L30.8545 74.0378" stroke="black" stroke-width="0.5"/>
<path d="M22.3525 83.0376H31.8525C33.8525 83.0376 35.3525 81.0376 34.8525 80.0376M38.3525 80.0376V84.5376" stroke="black" stroke-width="0.5"/>
<path d="M22.3544 81.5381C17.8544 81.5381 13.3544 82.0381 1.85444 79.0381V77.0381L5.85444 75.0381V73.5381L1.85444 73.0381C1.35352 71.5378 0.353711 68.5378 2.35371 66.0378C1.85395 58.0378 2.35395 51.5378 4.35444 48.5376C36.8544 29.038 58.8544 35.038 84.8544 30.538C162.854 -24.4621 244.854 12.5378 281.854 27.038L295.354 29.0378L295.854 36.0378V39.0378C297.353 44.0378 298.688 48.5378 297.354 50.5378C299.854 51.5378 302.354 54.7045 302.354 56.5378L300.354 66.5378C300.806 77.3858 298.398 77.61 289.067 77.9225C288.076 77.9557 286.007 77.9898 284.854 78.0378V79.5378L259.854 79.9689M22.3544 81.5381V84.5381H40.3528L39.8544 80.0381M22.3544 81.5381V80.0381H39.8544M39.8544 80.0381C36.8544 38.5381 90.3544 41.5381 86.8544 80.5381V83.0378H213.354C207.354 39.5378 261.854 39.5378 259.854 79.9689M259.353 79.9689H259.854" stroke="black"/>
</svg>
