<svg width="303" height="96" viewBox="0 0 303 96" fill="none" xmlns="http://www.w3.org/2000/svg">
<circle cx="62.6875" cy="74.5076" r="20.5" stroke="black"/>
<circle cx="235.688" cy="74.5076" r="20.5" stroke="black"/>
<path d="M132.686 13.0074L131.186 9.50742C171.186 1.50754 192.686 2.00757 231.686 13.5075L228.186 18.0075C208.186 10.0075 190.186 9.00748 174.186 8.50755C171.686 8.00755 167.686 8.00751 165.186 8.50742C155.186 8.50755 143.186 10.0075 132.686 13.0074Z" stroke="black" stroke-width="0.5"/>
<path d="M131.186 9.50761L130.686 8.00761C166.686 -2.99243 199.186 1.00744 234.686 10.0076L231.686 13.5076C191.686 1.00757 165.686 2.50757 131.186 9.50761Z" stroke="black" stroke-width="0.5"/>
<path d="M131.186 9.50756C182.686 -1.99247 211.186 8.00757 231.686 13.5076" stroke="black" stroke-width="0.5"/>
<path d="M226.688 31.0076L223.688 16.5076C219.188 15.0076 207.688 9.50757 174.188 8.50757L170.688 30.5076C181.688 30.0076 199.188 28.5076 226.188 28.5076" stroke="black" stroke-width="0.5"/>
<path d="M165.188 8.50757C132.188 9.50757 112.188 18.5076 93.1875 36.0076L95.6875 34.0076L159.688 31.0076L165.188 8.50757Z" stroke="black" stroke-width="0.5"/>
<path d="M239.686 23.0076C236.019 20.3409 230.186 18.0076 223.686 16.5076L226.186 28.5076H232.686C235.686 27.0076 238.686 24.7763 239.686 23.0076Z" stroke="black" stroke-width="0.5"/>
<path d="M96.6875 79.0076H163.688L198.188 77.5076M96.6875 79.0076C96.6875 80.5076 97.1875 81.5076 98.1875 83.0076M96.6875 79.0076H86.6875V83.0076H98.1875M198.188 77.5076L199.188 83.0076M198.188 77.5076H212.688L213.188 83.0076H199.188M199.188 83.0076H98.1875" stroke="black" stroke-width="0.5"/>
<path d="M96.6866 79.0076C92.1875 74.5076 89.1875 52.5076 93.1866 36.0076L165.188 32.0076C161.188 37.0076 160.188 71.0076 163.687 79.0076H96.6866Z" stroke="black" stroke-width="0.5"/>
<path d="M228.687 31.0076L165.187 32.0076C161.188 37.0076 160.188 71.0076 163.687 79.0076L198.187 77.5076C202.687 76.0076 209.187 70.5076 228.687 31.0076Z" stroke="black" stroke-width="0.5"/>
<path d="M170.688 30.5076C166.188 31.0076 162.688 31.0076 159.688 31.0076L165.188 8.50764C168.188 8.00757 171.188 8.00757 174.188 8.50764L170.688 30.5076Z" stroke="black" stroke-width="0.5"/>
<path d="M99.1875 32.5077C103.688 38.0077 110.688 34.5077 114.688 33.0077C115.688 17.5076 102.688 25.5076 99.1875 32.5077Z" stroke="black" stroke-width="0.5"/>
<path d="M234.686 10.0076L231.686 13.5076C248.686 19.0076 259.186 22.0076 271.686 28.5076H273.186L281.186 27.0076C266.186 20.5076 258.686 18.0076 234.686 10.0076Z" fill="#EFC7D3" stroke="black" stroke-width="0.5"/>
<path d="M271.686 28.5076C261.186 23.0076 242.186 16.5076 231.686 13.5076L229.686 16.0076L244.686 23.5076C243.186 26.0076 239.186 28.0076 233.186 30.7076C245.186 30.0076 262.186 29.0076 271.686 28.5076Z" fill="#EFC7D3" stroke="black" stroke-width="0.5"/>
<path d="M277.188 34.8076L283.186 32.5076L272.687 28.5076L228.687 31.0076C221.187 46.0076 206.187 76.5076 198.187 77.5076H212.687C211.187 66.5076 220.687 43.0076 245.688 52.0076C256.188 46.5076 266.188 41.0076 277.188 34.8076Z" fill="#EFC7D3" stroke="black" stroke-width="0.5"/>
<path d="M278.186 34.5076C266.186 41.0076 256.186 46.5076 245.686 52.0076C250.186 55.0076 260.686 61.0076 259.686 80.0076L284.686 79.5076V78.0076C293.186 77.0076 301.686 80.5076 300.186 66.5076L302.186 56.5076C302.186 55.0076 299.686 51.0076 297.186 50.5076C298.686 48.0076 295.686 39.0076 295.686 39.0076V37.5076L291.686 34.5076L286.686 33.0076L283.186 32.5076L278.186 34.5076Z" fill="#EFC7D3" stroke="black" stroke-width="0.5"/>
<path d="M281.186 27.0076L272.686 28.5076L283.186 32.5076C292.686 33.5076 291.684 35.0076 295.68 37.4277L295.186 29.0076L281.186 27.0076Z" fill="#EFC7D3"/>
<path d="M295.686 37.5076L295.68 37.4277M295.68 37.4277L295.186 29.0076L281.186 27.0076L272.686 28.5076L283.186 32.5076C292.686 33.5076 291.684 35.0076 295.68 37.4277Z" stroke="black" stroke-width="0.5"/>
<path d="M294.188 37.0078C293.688 34.5077 282.688 34.3076 277.188 34.8076" stroke="black" stroke-width="0.5"/>
<path d="M300.188 67.0076L260.688 69.0076C260.188 64.0076 258.021 59.8409 256.188 58.0076L302.188 55.5076M300.688 53.0076C289.688 51.5076 278.688 46.7076 266.688 40.7076M228.688 31.0076L272.688 28.5076L281.188 27.0076" stroke="black" stroke-width="0.5"/>
<path d="M290.688 41.0076C290.688 39.0076 289.688 35.0076 286.188 33.0076C288.408 33.0076 291.785 34.048 294.296 36.4176C294.76 37.9476 293.688 41.5076 290.646 43.0076C290.632 42.4173 290.688 41.7319 290.688 41.0076Z" fill="#EFC7D3"/>
<path d="M272.688 43.5076C279.683 43.8574 285.7 43.9624 291.081 44.5076M297.688 45.5076C295.585 45.0569 293.391 44.7417 291.081 44.5076M295.688 38.0076C295.27 37.4224 294.8 36.8932 294.296 36.4176M291.081 44.5076C290.754 44.1628 290.66 43.6398 290.646 43.0076M290.646 43.0076C290.632 42.4173 290.688 41.7319 290.688 41.0076C290.688 39.0076 289.688 35.0076 286.188 33.0076C288.408 33.0076 291.785 34.048 294.296 36.4176M290.646 43.0076C293.688 41.5076 294.76 37.9476 294.296 36.4176" stroke="black" stroke-width="0.5"/>
<path d="M290.688 41.0076C286.188 41.0076 284.188 37.0076 283.188 34.5076" stroke="black" stroke-width="0.5"/>
<path d="M132.686 13.1075C119.186 17.1075 107.186 23.0076 93.186 36.0076C100.186 24.0076 115.686 14.5076 131.186 9.50757L132.686 13.1075Z" fill="#EDADBF" stroke="black" stroke-width="0.5"/>
<path d="M131.186 9.50757C111.186 15.1816 93.186 32.5076 85.186 30.5076C98.186 21.0076 114.186 12.5076 130.686 8.00757L131.186 9.50757Z" fill="#EDADBF" stroke="black" stroke-width="0.5"/>
<path d="M10.1867 48.5076H4.1867C1.68604 52.5076 1.68604 62.5076 2.1867 66.0076C0.686035 67.0076 0.686633 71.5076 1.6867 73.0076L5.6867 73.5076V75.0076L1.6867 77.0076V79.0076C5.6867 80.0076 14.1867 82.0076 22.1867 81.5076V80.0076H39.6867C39.02 71.5076 40.6867 61.0076 49.6867 54.0076C47.1867 50.0076 40.1867 45.5076 37.1867 45.0076C27.1867 44.0076 12.1867 46.5076 10.1867 48.5076Z" fill="#EDADBF" stroke="black" stroke-width="0.5"/>
<path d="M93.1875 36.0076C75.3542 36.8409 43.6875 41.7076 33.1875 44.7076L37.1875 45.0076C42.1875 46.5076 47.6875 50.8409 49.6875 54.0076C62.6865 44.5076 88.1865 51.5076 86.6865 79.0076H96.6865C89.6865 68.0076 90.6865 46.0076 93.1875 36.0076Z" fill="#EDADBF" stroke="black" stroke-width="0.5"/>
<path d="M10.1855 48.5076H4.18555C36.6857 29.0075 58.6858 35.0076 84.6855 30.5076L93.6858 36.0076C76.6858 37.0076 47.6855 40.5076 33.6855 44.7076C25.6855 44.5076 11.6855 46.5076 10.1855 48.5076Z" fill="#EDADBF" stroke="black" stroke-width="0.5"/>
<path d="M37.1875 45.0076C29.6875 44.0076 12.6875 46.0076 10.1875 48.5076C9.38749 50.9076 12.5208 53.8409 14.1875 55.0076C23.6875 56.5076 37.1875 50.5076 37.1875 45.0076Z" fill="#EDADBF" stroke="black" stroke-width="0.5"/>
<path d="M4.18673 48.5076C11.1867 49.5076 5.18673 60.0076 2.18673 65.0076C1.68666 58.0076 2.18652 52.5076 4.18673 48.5076Z" fill="#EDADBF" stroke="black" stroke-width="0.5"/>
<path d="M22.186 84.5076V80.0076H39.686L40.186 84.5076H22.186Z" fill="#EDADBF" stroke="black" stroke-width="0.5"/>
<path d="M2.6875 66.0076C4.1875 68.5076 6.1875 71.6742 5.6875 73.5076M22.1875 80.0076C11.6875 80.5076 7.1875 76.5076 8.1875 73.0076C8.6875 72.5076 10.1875 71.0076 11.1875 71.0076" stroke="black" stroke-width="0.5"/>
<path d="M32.1875 75.0076C29.6875 71.0076 24.1875 66.0076 21.1875 64.5076C19.4375 64.0076 16.8124 64.1326 14.0623 64.5076C12.4374 65.841 11.1875 69.0076 11.6875 72.0076C11.6875 73.1742 12.9949 75.5076 15.6875 75.5076C20.1875 75.5076 27.1875 76.0076 32.1875 75.0076Z" fill="#EDADBF"/>
<path d="M6.1875 66.0076C8.43744 65.5076 11.3124 64.8826 14.0623 64.5076M14.0623 64.5076C16.8124 64.1326 19.4375 64.0076 21.1875 64.5076C24.1875 66.0076 29.6875 71.0076 32.1875 75.0076C27.1875 76.0076 20.1875 75.5076 15.6875 75.5076C12.9949 75.5076 11.6875 73.1742 11.6875 72.0076C11.1875 69.0076 12.4374 65.841 14.0623 64.5076Z" stroke="black" stroke-width="0.5"/>
<path d="M11.6875 71.5076C19.6875 70.0077 23.1875 72.6362 26.1875 74.1362M13.1875 74.5077L30.6875 74.0077" stroke="black" stroke-width="0.5"/>
<path d="M22.1855 83.0076H31.6855C33.6855 83.0076 35.1855 81.0076 34.6855 80.0076M38.1855 80.0076V84.5076" stroke="black" stroke-width="0.5"/>
<path d="M22.1874 81.5078C17.6874 81.5078 13.1874 82.0078 1.68745 79.0078V77.0078L5.68745 75.0078V73.5078L1.68745 73.0078C1.18652 71.5076 0.186719 68.5076 2.18671 66.0076C1.68696 58.0076 2.18696 51.5076 4.18745 48.5073C36.6874 29.0077 58.6874 35.0078 84.6874 30.5078C162.687 -24.4924 244.687 12.5076 281.687 27.0077L295.187 29.0076L295.687 36.0076V39.0076C297.186 44.0076 298.521 48.5076 297.187 50.5076C299.687 51.5076 302.187 54.6742 302.187 56.5076L300.187 66.5076C300.639 77.3555 298.231 77.5798 288.9 77.8922C287.909 77.9254 285.84 77.9596 284.687 78.0076V79.5076L259.687 79.9386M22.1874 81.5078V84.5078H40.1858L39.6875 80.0078M22.1874 81.5078V80.0078H39.6875M39.6875 80.0078C36.6875 38.5078 90.1874 41.5078 86.6874 80.5078V83.0076H213.187C207.187 39.5076 261.687 39.5076 259.687 79.9386M259.186 79.9386H259.687" stroke="black"/>
</svg>
