<svg width="303" height="95" viewBox="0 0 303 95" fill="none" xmlns="http://www.w3.org/2000/svg">
<circle cx="62.6772" cy="73.8914" r="20.5" stroke="black"/>
<circle cx="235.678" cy="73.8914" r="20.5" stroke="black"/>
<path d="M132.676 12.3912L131.176 8.89121C171.176 0.891325 192.676 1.39136 231.676 12.8913L228.176 17.3913C208.176 9.39127 190.176 8.39127 174.176 7.89133C171.676 7.39133 167.676 7.3913 165.176 7.89121C155.176 7.89133 143.176 9.39134 132.676 12.3912Z" fill="#E0426F" stroke="black" stroke-width="0.5"/>
<path d="M131.176 8.8914L130.676 7.3914C166.676 -3.60864 199.176 0.391232 234.676 9.3914L231.676 12.8914C191.676 0.391357 165.676 1.89136 131.176 8.8914Z" fill="#E0426F" stroke="black" stroke-width="0.5"/>
<path d="M131.176 8.89122C182.676 -2.6088 211.176 7.39124 231.676 12.8912" stroke="black" stroke-width="0.5"/>
<path d="M170.677 29.8914L174.177 7.89136C207.677 8.89136 219.177 14.3914 223.677 15.8914L226.16 27.8914C199.17 27.892 181.675 29.3915 170.677 29.8914Z" fill="#E0426F"/>
<path d="M226.677 30.3914L223.677 15.8914C219.177 14.3914 207.677 8.89136 174.177 7.89136L170.677 29.8914C181.677 29.3914 199.177 27.8914 226.177 27.8914" stroke="black" stroke-width="0.5"/>
<path d="M165.177 7.89136C132.177 8.89136 112.177 17.8914 93.1772 35.3914L95.6772 33.3914L159.677 30.3914L165.177 7.89136Z" fill="#E0426F" stroke="black" stroke-width="0.5"/>
<path d="M239.676 22.3914C236.009 19.7247 230.176 17.3914 223.676 15.8914L226.176 27.8914H232.676C235.676 26.3914 238.676 24.1601 239.676 22.3914Z" fill="#E0426F" stroke="black" stroke-width="0.5"/>
<path d="M96.6772 78.3914H163.677L198.177 76.8914H212.677L213.177 82.3914H199.177H98.1772H86.6772V78.3914H96.6772Z" fill="#E0426F"/>
<path d="M96.6772 78.3914H163.677L198.177 76.8914M96.6772 78.3914C96.6772 79.8914 97.1772 80.8914 98.1772 82.3914M96.6772 78.3914H86.6772V82.3914H98.1772M198.177 76.8914L199.177 82.3914M198.177 76.8914H212.677L213.177 82.3914H199.177M199.177 82.3914H98.1772" stroke="black" stroke-width="0.5"/>
<path d="M96.6764 78.3914C92.1772 73.8914 89.1773 51.8914 93.1764 35.3914L165.177 31.3914C161.177 36.3914 160.177 70.3914 163.677 78.3914H96.6764Z" fill="#E0426F" stroke="black" stroke-width="0.5"/>
<path d="M228.677 30.3914L165.177 31.3914C161.177 36.3914 160.177 70.3914 163.677 78.3914L198.177 76.8914C202.677 75.3914 209.177 69.8914 228.677 30.3914Z" fill="#E0426F" stroke="black" stroke-width="0.5"/>
<path d="M170.677 29.8914C166.177 30.3914 162.677 30.3914 159.677 30.3914L165.177 7.89143C168.177 7.39136 171.177 7.39136 174.177 7.89143L170.677 29.8914Z" fill="#E0426F" stroke="black" stroke-width="0.5"/>
<path d="M99.1772 31.8914C103.677 37.3914 110.677 33.8914 114.677 32.3914C115.677 16.8913 102.677 24.8912 99.1772 31.8914Z" fill="#E0426F" stroke="black" stroke-width="0.5"/>
<path d="M234.676 9.39136L231.676 12.8914C248.676 18.3914 259.176 21.3914 271.676 27.8914H273.176L281.176 26.3914C266.176 19.8914 258.676 17.3914 234.676 9.39136Z" fill="#EDADBF" stroke="black" stroke-width="0.5"/>
<path d="M271.676 27.8914C261.176 22.3914 242.176 15.8914 231.676 12.8914L229.676 15.3914L244.676 22.8914C243.176 25.3914 239.176 27.3914 233.176 30.0914C245.176 29.3914 262.176 28.3914 271.676 27.8914Z" fill="#EDADBF" stroke="black" stroke-width="0.5"/>
<path d="M277.178 34.1914L283.176 31.8914L272.677 27.8914L228.677 30.3914C221.177 45.3914 206.177 75.8914 198.177 76.8914H212.677C211.177 65.8914 220.677 42.3914 245.678 51.3914C256.178 45.8914 266.178 40.3914 277.178 34.1914Z" fill="#EDADBF" stroke="black" stroke-width="0.5"/>
<path d="M278.176 33.8914C266.176 40.3914 256.176 45.8914 245.676 51.3914C250.176 54.3914 260.676 60.3914 259.676 79.3914L284.676 78.8914V77.3914C293.176 76.3914 301.676 79.8914 300.176 65.8914L302.176 55.8914C302.176 54.3914 299.676 50.3914 297.176 49.8914C298.676 47.3914 295.676 38.3914 295.676 38.3914V36.8914L291.676 33.8914L286.676 32.3914L283.176 31.8914L278.176 33.8914Z" fill="#EDADBF" stroke="black" stroke-width="0.5"/>
<path d="M281.176 26.3914L272.676 27.8914L283.176 31.8914C292.676 32.8914 291.675 34.3914 295.67 36.8115L295.176 28.3914L281.176 26.3914Z" fill="#EDADBF"/>
<path d="M295.676 36.8914L295.67 36.8115M295.67 36.8115L295.176 28.3914L281.176 26.3914L272.676 27.8914L283.176 31.8914C292.676 32.8914 291.675 34.3914 295.67 36.8115Z" stroke="black" stroke-width="0.5"/>
<path d="M294.178 36.3916C293.678 33.8914 282.678 33.6914 277.178 34.1914" stroke="black" stroke-width="0.5"/>
<path d="M300.178 66.3914L260.678 68.3914C260.178 63.3914 258.011 59.2247 256.178 57.3914L302.178 54.8914M300.678 52.3914C289.678 50.8914 278.678 46.0914 266.678 40.0914M228.678 30.3914L272.678 27.8914L281.178 26.3914" stroke="black" stroke-width="0.5"/>
<path d="M290.678 40.3914C290.678 38.3914 289.678 34.3914 286.178 32.3914C288.399 32.3914 291.775 33.4317 294.287 35.8013C294.75 37.3313 293.678 40.8914 290.636 42.3914C290.622 41.8011 290.678 41.1156 290.678 40.3914Z" fill="#EDADBF"/>
<path d="M272.678 42.8914C279.673 43.2411 285.69 43.3462 291.071 43.8914M297.678 44.8914C295.575 44.4407 293.381 44.1255 291.071 43.8914M295.678 37.3914C295.26 36.8062 294.791 36.277 294.287 35.8013M291.071 43.8914C290.745 43.5466 290.651 43.0235 290.636 42.3914M290.636 42.3914C290.622 41.8011 290.678 41.1156 290.678 40.3914C290.678 38.3914 289.678 34.3914 286.178 32.3914C288.399 32.3914 291.775 33.4317 294.287 35.8013M290.636 42.3914C293.678 40.8914 294.75 37.3313 294.287 35.8013" stroke="black" stroke-width="0.5"/>
<path d="M290.678 40.3914C286.178 40.3914 284.178 36.3914 283.178 33.8914" stroke="black" stroke-width="0.5"/>
<path d="M132.676 12.4913C119.176 16.4913 107.176 22.3914 93.1758 35.3914C100.176 23.3914 115.676 13.8914 131.176 8.89136L132.676 12.4913Z" fill="#EDADBF" stroke="black" stroke-width="0.5"/>
<path d="M131.176 8.89136C111.176 14.5654 93.1758 31.8914 85.1758 29.8914C98.1758 20.3914 114.176 11.8914 130.676 7.39136L131.176 8.89136Z" fill="#EDADBF" stroke="black" stroke-width="0.5"/>
<path d="M10.1764 47.8912H4.17645C1.67578 51.8912 1.67578 61.8912 2.17645 65.3912C0.675781 66.3912 0.676379 70.8912 1.67645 72.3912L5.67645 72.8912V74.3912L1.67645 76.3912V78.3912C5.67645 79.3912 14.1764 81.3912 22.1764 80.8912V79.3912H39.6764C39.0098 70.8912 40.6764 60.3912 49.6764 53.3912C47.1764 49.3912 40.1764 44.8912 37.1764 44.3912C27.1764 43.3912 12.1764 45.8912 10.1764 47.8912Z" fill="#EDADBF" stroke="black" stroke-width="0.5"/>
<path d="M93.1772 35.3914C75.3439 36.2247 43.6772 41.0914 33.1772 44.0914L37.1772 44.3914C42.1772 45.8914 47.6772 50.2247 49.6772 53.3914C62.6763 43.8914 88.1763 50.8914 86.6763 78.3914H96.6763C89.6763 67.3914 90.6763 45.3914 93.1772 35.3914Z" fill="#EDADBF" stroke="black" stroke-width="0.5"/>
<path d="M10.1758 47.8914H4.17578C36.676 28.3913 58.676 34.3914 84.6758 29.8914L93.676 35.3914C76.676 36.3914 47.6758 39.8914 33.6758 44.0914C25.6758 43.8913 11.6758 45.8914 10.1758 47.8914Z" fill="#EDADBF" stroke="black" stroke-width="0.5"/>
<path d="M37.1772 44.3914C29.6772 43.3914 12.6772 45.3914 10.1772 47.8914C9.37724 50.2914 12.5106 53.2247 14.1772 54.3914C23.6772 55.8914 37.1772 49.8914 37.1772 44.3914Z" fill="#EDADBF" stroke="black" stroke-width="0.5"/>
<path d="M4.17648 47.8914C11.1765 48.8914 5.17648 59.3914 2.17648 64.3914C1.67641 57.3914 2.17627 51.8914 4.17648 47.8914Z" fill="#EDADBF" stroke="black" stroke-width="0.5"/>
<path d="M22.1758 83.8914V79.3914H39.6758L40.1758 83.8914H22.1758Z" fill="#EDADBF" stroke="black" stroke-width="0.5"/>
<path d="M2.67773 65.3911C4.17773 67.8911 6.17773 71.0578 5.67773 72.8911M22.1777 79.3911C11.6777 79.8911 7.17773 75.8911 8.17773 72.3911C8.67773 71.8911 10.1777 70.3911 11.1777 70.3911" stroke="black" stroke-width="0.5"/>
<path d="M32.1777 74.3912C29.6777 70.3912 24.1777 65.3913 21.1777 63.8913C19.4277 63.3913 16.8026 63.5163 14.0525 63.8913C12.4276 65.2246 11.1777 68.3912 11.6777 71.3912C11.6777 72.5579 12.9852 74.8912 15.6777 74.8912C20.1777 74.8912 27.1777 75.3912 32.1777 74.3912Z" fill="#EDADBF"/>
<path d="M6.17773 65.3913C8.42768 64.8913 11.3026 64.2663 14.0525 63.8913M14.0525 63.8913C16.8026 63.5163 19.4277 63.3913 21.1777 63.8913C24.1777 65.3913 29.6777 70.3912 32.1777 74.3912C27.1777 75.3912 20.1777 74.8912 15.6777 74.8912C12.9852 74.8912 11.6777 72.5579 11.6777 71.3912C11.1777 68.3912 12.4276 65.2246 14.0525 63.8913Z" stroke="black" stroke-width="0.5"/>
<path d="M11.6777 70.8913C19.6777 69.3914 23.1777 72.0198 26.1777 73.5198M13.1777 73.8914L30.6777 73.3914" stroke="black" stroke-width="0.5"/>
<path d="M22.1758 82.3911H31.6758C33.6758 82.3911 35.1758 80.3911 34.6758 79.3911M38.1758 79.3911V83.8911" stroke="black" stroke-width="0.5"/>
<path d="M22.1772 80.8916C17.6772 80.8916 13.1772 81.3916 1.67719 78.3916V76.3916L5.67719 74.3916V72.8916L1.67719 72.3916C1.17627 70.8914 0.176465 67.8914 2.17646 65.3914C1.6767 57.3914 2.1767 50.8914 4.17719 47.8911C36.6772 28.3915 58.6772 34.3915 84.6772 29.8915C162.677 -25.1086 244.677 11.8913 281.677 26.3915L295.177 28.3914L295.677 35.3914V38.3914C297.176 43.3914 298.511 47.8914 297.177 49.8914C299.677 50.8914 302.177 54.058 302.177 55.8914L300.177 65.8914C300.629 76.7393 298.221 76.9635 288.889 77.276C287.898 77.3092 285.829 77.3434 284.677 77.3914V78.8914L259.677 79.3224M22.1772 80.8916V83.8916H40.1755L39.6772 79.3916M22.1772 80.8916V79.3916H39.6772M39.6772 79.3916C36.6772 37.8916 90.1772 40.8916 86.6772 79.8916V82.3914H213.177C207.177 38.8914 261.677 38.8914 259.677 79.3224M259.176 79.3224H259.677" stroke="black"/>
</svg>
