<svg width="303" height="96" viewBox="0 0 303 96" fill="none" xmlns="http://www.w3.org/2000/svg">
<circle cx="62.458" cy="74.3384" r="20.5" fill="#E0426F" stroke="black"/>
<circle cx="235.458" cy="74.3384" r="20.5" fill="#E0426F" stroke="black"/>
<path d="M132.456 12.8382L130.956 9.33823C170.956 1.33835 192.456 1.83838 231.456 13.3383L227.956 17.8383C207.956 9.83829 189.956 8.83829 173.956 8.33836C171.456 7.83836 167.456 7.83832 164.956 8.33823C154.956 8.33836 142.956 9.83836 132.456 12.8382Z" stroke="black" stroke-width="0.5"/>
<path d="M130.956 9.33842L130.456 7.83842C166.456 -3.16162 198.956 0.838253 234.456 9.83842L231.456 13.3384C191.456 0.838379 165.456 2.33838 130.956 9.33842Z" stroke="black" stroke-width="0.5"/>
<path d="M130.956 9.33837C182.456 -2.16166 210.956 7.83838 231.456 13.3384" stroke="black" stroke-width="0.5"/>
<path d="M226.458 30.8384L223.458 16.3384C218.958 14.8384 207.458 9.33838 173.958 8.33838L170.458 30.3384C181.458 29.8384 198.958 28.3384 225.958 28.3384" stroke="black" stroke-width="0.5"/>
<path d="M164.958 8.33838C131.958 9.33838 111.958 18.3384 92.958 35.8384L95.458 33.8384L159.458 30.8384L164.958 8.33838Z" stroke="black" stroke-width="0.5"/>
<path d="M239.456 22.8384C235.789 20.1717 229.956 17.8384 223.456 16.3384L225.956 28.3384H232.456C235.456 26.8384 238.456 24.6071 239.456 22.8384Z" stroke="black" stroke-width="0.5"/>
<path d="M96.458 78.8384H163.458L197.958 77.3384M96.458 78.8384C96.458 80.3384 96.958 81.3384 97.958 82.8384M96.458 78.8384H86.458V82.8384H97.958M197.958 77.3384L198.958 82.8384M197.958 77.3384H212.458L212.958 82.8384H198.958M198.958 82.8384H97.958" stroke="black" stroke-width="0.5"/>
<path d="M96.4571 78.8384C91.958 74.3384 88.9581 52.3384 92.9571 35.8384L164.958 31.8384C160.958 36.8384 159.958 70.8384 163.458 78.8384H96.4571Z" stroke="black" stroke-width="0.5"/>
<path d="M228.458 30.8384L164.958 31.8384C160.958 36.8384 159.958 70.8384 163.458 78.8384L197.958 77.3384C202.458 75.8384 208.958 70.3384 228.458 30.8384Z" stroke="black" stroke-width="0.5"/>
<path d="M170.458 30.3385C165.958 30.8385 162.458 30.8385 159.458 30.8385L164.958 8.33845C167.958 7.83838 170.958 7.83838 173.958 8.33845L170.458 30.3385Z" stroke="black" stroke-width="0.5"/>
<path d="M98.958 32.3385C103.458 37.8385 110.458 34.3385 114.458 32.8385C115.458 17.3384 102.458 25.3384 98.958 32.3385Z" stroke="black" stroke-width="0.5"/>
<path d="M234.456 9.83838L231.456 13.3384C248.456 18.8384 258.956 21.8384 271.456 28.3384H272.956L280.956 26.8384C265.956 20.3384 258.456 17.8384 234.456 9.83838Z" fill="#E56E90" stroke="black" stroke-width="0.5"/>
<path d="M271.456 28.3384C260.956 22.8384 241.956 16.3384 231.456 13.3384L229.456 15.8384L244.456 23.3384C242.956 25.8384 238.956 27.8384 232.956 30.5384C244.956 29.8384 261.956 28.8384 271.456 28.3384Z" fill="#E56E90" stroke="black" stroke-width="0.5"/>
<path d="M276.958 34.6384L282.956 32.3384L272.457 28.3384L228.457 30.8384C220.957 45.8384 205.957 76.3384 197.957 77.3384H212.457C210.957 66.3384 220.457 42.8384 245.458 51.8384C255.958 46.3384 265.958 40.8384 276.958 34.6384Z" fill="#E56E90" stroke="black" stroke-width="0.5"/>
<path d="M277.956 34.3384C265.956 40.8384 255.956 46.3384 245.456 51.8384C249.956 54.8384 260.456 60.8384 259.456 79.8384L284.456 79.3384V77.8384C292.956 76.8384 301.456 80.3384 299.956 66.3384L301.956 56.3384C301.956 54.8384 299.456 50.8384 296.956 50.3384C298.456 47.8384 295.456 38.8384 295.456 38.8384V37.3384L291.456 34.3384L286.456 32.8384L282.956 32.3384L277.956 34.3384Z" fill="#E56E90" stroke="black" stroke-width="0.5"/>
<path d="M280.956 26.8384L272.456 28.3384L282.956 32.3384C292.456 33.3384 291.455 34.8384 295.45 37.2586L294.956 28.8384L280.956 26.8384Z" fill="#E56E90"/>
<path d="M295.456 37.3384L295.45 37.2586M295.45 37.2586L294.956 28.8384L280.956 26.8384L272.456 28.3384L282.956 32.3384C292.456 33.3384 291.455 34.8384 295.45 37.2586Z" stroke="black" stroke-width="0.5"/>
<path d="M293.958 36.8386C293.458 34.3385 282.458 34.1384 276.958 34.6384" stroke="black" stroke-width="0.5"/>
<path d="M299.958 66.8384L260.458 68.8384C259.958 63.8384 257.791 59.6717 255.958 57.8384L301.958 55.3384M300.458 52.8384C289.458 51.3384 278.458 46.5384 266.458 40.5384M228.458 30.8384L272.458 28.3384L280.958 26.8384" stroke="black" stroke-width="0.5"/>
<path d="M290.458 40.8384C290.458 38.8384 289.458 34.8384 285.958 32.8384C288.179 32.8384 291.556 33.8788 294.067 36.2484C294.531 37.7784 293.458 41.3384 290.416 42.8384C290.403 42.2481 290.458 41.5627 290.458 40.8384Z" fill="#E56E90"/>
<path d="M272.458 43.3384C279.454 43.6882 285.471 43.7933 290.851 44.3384M297.458 45.3384C295.355 44.8877 293.162 44.5725 290.851 44.3384M295.458 37.8384C295.04 37.2533 294.571 36.724 294.067 36.2484M290.851 44.3384C290.525 43.9936 290.431 43.4706 290.416 42.8384M290.416 42.8384C290.403 42.2481 290.458 41.5627 290.458 40.8384C290.458 38.8384 289.458 34.8384 285.958 32.8384C288.179 32.8384 291.556 33.8788 294.067 36.2484M290.416 42.8384C293.458 41.3384 294.531 37.7784 294.067 36.2484" stroke="black" stroke-width="0.5"/>
<path d="M290.458 40.8384C285.958 40.8384 283.958 36.8384 282.958 34.3384" stroke="black" stroke-width="0.5"/>
<path d="M132.456 12.9384C118.956 16.9384 106.956 22.8384 92.9561 35.8384C99.9561 23.8384 115.456 14.3384 130.956 9.33838L132.456 12.9384Z" fill="#EFC7D3" stroke="black" stroke-width="0.5"/>
<path d="M130.956 9.33838C110.956 15.0124 92.9561 32.3384 84.9561 30.3384C97.9561 20.8384 113.956 12.3384 130.456 7.83838L130.956 9.33838Z" fill="#EFC7D3" stroke="black" stroke-width="0.5"/>
<path d="M9.95672 48.3384H3.95672C1.45605 52.3384 1.45605 62.3384 1.95672 65.8384C0.456055 66.8384 0.456652 71.3384 1.45672 72.8384L5.45672 73.3384V74.8384L1.45672 76.8384V78.8384C5.45672 79.8384 13.9567 81.8384 21.9567 81.3384V79.8384H39.4567C38.7901 71.3384 40.4567 60.8384 49.4567 53.8384C46.9567 49.8384 39.9567 45.3384 36.9567 44.8384C26.9567 43.8384 11.9567 46.3384 9.95672 48.3384Z" fill="#EFC7D3" stroke="black" stroke-width="0.5"/>
<path d="M92.958 35.8384C75.1247 36.6717 43.458 41.5384 32.958 44.5384L36.958 44.8384C41.958 46.3384 47.458 50.6717 49.458 53.8384C62.457 44.3384 87.957 51.3384 86.457 78.8384H96.457C89.457 67.8384 90.457 45.8384 92.958 35.8384Z" fill="#EFC7D3" stroke="black" stroke-width="0.5"/>
<path d="M9.95606 48.3384H3.95605C36.4562 28.8383 58.4563 34.8384 84.4561 30.3384L93.4563 35.8384C76.4563 36.8384 47.4561 40.3384 33.4561 44.5384C25.4561 44.3384 11.4561 46.3384 9.95606 48.3384Z" fill="#EFC7D3" stroke="black" stroke-width="0.5"/>
<path d="M36.9575 44.8385C29.4575 43.8384 12.4575 45.8384 9.95751 48.3385C9.15751 50.7384 12.2908 53.6717 13.9575 54.8384C23.4575 56.3384 36.9575 50.3384 36.9575 44.8385Z" fill="#EFC7D3" stroke="black" stroke-width="0.5"/>
<path d="M3.95675 48.3384C10.9568 49.3384 4.95675 59.8384 1.95675 64.8384C1.45668 57.8384 1.95654 52.3384 3.95675 48.3384Z" fill="#EFC7D3" stroke="black" stroke-width="0.5"/>
<path d="M21.9561 84.3384V79.8384H39.4561L39.9561 84.3384H21.9561Z" fill="#EFC7D3" stroke="black" stroke-width="0.5"/>
<path d="M2.45801 65.8384C3.95801 68.3384 5.95801 71.505 5.45801 73.3384M21.958 79.8384C11.458 80.3384 6.95801 76.3384 7.95801 72.8384C8.45801 72.3384 9.95801 70.8384 10.958 70.8384" stroke="black" stroke-width="0.5"/>
<path d="M31.958 74.8384C29.458 70.8384 23.958 65.8385 20.958 64.3385C19.208 63.8384 16.5829 63.9634 13.8328 64.3385C12.2079 65.6718 10.958 68.8384 11.458 71.8384C11.458 73.005 12.7654 75.3384 15.458 75.3384C19.958 75.3384 26.958 75.8384 31.958 74.8384Z" fill="#EFC7D3"/>
<path d="M5.95801 65.8385C8.20795 65.3384 11.0829 64.7135 13.8328 64.3385M13.8328 64.3385C16.5829 63.9634 19.208 63.8384 20.958 64.3385C23.958 65.8385 29.458 70.8384 31.958 74.8384C26.958 75.8384 19.958 75.3384 15.458 75.3384C12.7654 75.3384 11.458 73.005 11.458 71.8384C10.958 68.8384 12.2079 65.6718 13.8328 64.3385Z" stroke="black" stroke-width="0.5"/>
<path d="M11.458 71.3385C19.458 69.8385 22.958 72.467 25.958 73.967M12.958 74.3385L30.458 73.8385" stroke="black" stroke-width="0.5"/>
<path d="M21.9561 82.8384H31.4561C33.4561 82.8384 34.9561 80.8384 34.4561 79.8384M37.9561 79.8384V84.3384" stroke="black" stroke-width="0.5"/>
<path d="M21.958 81.3386C17.458 81.3386 12.958 81.8386 1.45795 78.8386V76.8386L5.45795 74.8386V73.3386L1.45795 72.8386C0.957031 71.3384 -0.0427729 68.3384 1.95722 65.8384C1.45747 57.8384 1.95747 51.3384 3.95795 48.3381C36.458 28.8385 58.4579 34.8386 84.4579 30.3386C162.458 -24.6615 244.458 12.3384 281.458 26.8386L294.958 28.8384L295.458 35.8384V38.8384C296.956 43.8384 298.291 48.3384 296.958 50.3384C299.458 51.3384 301.958 54.505 301.958 56.3384L299.958 66.3384C300.41 77.1863 298.002 77.4106 288.67 77.723C287.679 77.7562 285.61 77.7904 284.458 77.8384V79.3384L259.458 79.7694M21.958 81.3386V84.3386H39.9563L39.458 79.8386M21.958 81.3386V79.8386H39.458M39.458 79.8386C36.458 38.3386 89.9579 41.3386 86.4579 80.3386V82.8384H212.958C206.958 39.3384 261.458 39.3384 259.458 79.7694M258.956 79.7694H259.458" stroke="black"/>
</svg>
