<svg width="303" height="95" viewBox="0 0 303 95" fill="none" xmlns="http://www.w3.org/2000/svg">
<circle cx="62.6978" cy="73.6768" r="20.5" stroke="black"/>
<circle cx="235.698" cy="73.6768" r="20.5" stroke="black"/>
<path d="M132.696 12.1766L131.196 8.67661C171.196 0.676725 192.696 1.17676 231.696 12.6767L228.196 17.1767C208.196 9.17667 190.196 8.17667 174.196 7.67673C171.696 7.17673 167.696 7.1767 165.196 7.67661C155.196 7.67673 143.196 9.17674 132.696 12.1766Z" stroke="black" stroke-width="0.5"/>
<path d="M131.196 8.6768L130.696 7.1768C166.696 -3.82324 199.196 0.176632 234.696 9.1768L231.696 12.6768C191.696 0.176758 165.696 1.67676 131.196 8.6768Z" stroke="black" stroke-width="0.5"/>
<path d="M131.196 8.67675C182.696 -2.82328 211.196 7.17676 231.696 12.6767" stroke="black" stroke-width="0.5"/>
<path d="M226.698 30.1768L223.698 15.6768C219.198 14.1768 207.698 8.67676 174.198 7.67676L170.698 29.6768C181.698 29.1768 199.198 27.6768 226.198 27.6768" stroke="black" stroke-width="0.5"/>
<path d="M165.198 7.67676C132.198 8.67676 112.198 17.6768 93.1978 35.1768L95.6978 33.1768L159.698 30.1768L165.198 7.67676Z" stroke="black" stroke-width="0.5"/>
<path d="M239.696 22.1768C236.03 19.5101 230.196 17.1768 223.696 15.6768L226.196 27.6768H232.696C235.696 26.1768 238.696 23.9455 239.696 22.1768Z" stroke="black" stroke-width="0.5"/>
<path d="M96.6978 78.1768H163.698L198.198 76.6768M96.6978 78.1768C96.6978 79.6768 97.1978 80.6768 98.1978 82.1768M96.6978 78.1768H86.6978V82.1768H98.1978M198.198 76.6768L199.198 82.1768M198.198 76.6768H212.698L213.198 82.1768H199.198M199.198 82.1768H98.1978" stroke="black" stroke-width="0.5"/>
<path d="M96.6969 78.1768C92.1977 73.6768 89.1978 51.6768 93.1969 35.1768L165.198 31.1768C161.198 36.1768 160.198 70.1768 163.698 78.1768H96.6969Z" stroke="black" stroke-width="0.5"/>
<path d="M228.697 30.1768L165.197 31.1768C161.197 36.1768 160.198 70.1768 163.697 78.1768L198.197 76.6768C202.697 75.1768 209.197 69.6768 228.697 30.1768Z" stroke="black" stroke-width="0.5"/>
<path d="M170.698 29.6768C166.198 30.1768 162.698 30.1768 159.698 30.1768L165.198 7.67683C168.198 7.17676 171.198 7.17676 174.198 7.67683L170.698 29.6768Z" stroke="black" stroke-width="0.5"/>
<path d="M99.1978 31.6769C103.698 37.1769 110.698 33.6769 114.698 32.1769C115.698 16.6768 102.698 24.6768 99.1978 31.6769Z" stroke="black" stroke-width="0.5"/>
<path d="M234.696 9.17676L231.696 12.6768C248.696 18.1768 259.196 21.1768 271.696 27.6768H273.196L281.196 26.1768C266.196 19.6768 258.696 17.1768 234.696 9.17676Z" stroke="black" stroke-width="0.5"/>
<path d="M271.696 27.6768C261.196 22.1768 242.196 15.6768 231.696 12.6768L229.696 15.1768L244.696 22.6768C243.196 25.1768 239.196 27.1768 233.196 29.8768C245.196 29.1768 262.196 28.1768 271.696 27.6768Z" stroke="black" stroke-width="0.5"/>
<path d="M277.198 33.9768L283.196 31.6768L272.697 27.6768L228.697 30.1768C221.197 45.1768 206.197 75.6768 198.197 76.6768H212.697C211.197 65.6768 220.697 42.1768 245.698 51.1768C256.198 45.6768 266.198 40.1768 277.198 33.9768Z" stroke="black" stroke-width="0.5"/>
<path d="M278.196 33.6768C266.196 40.1768 256.196 45.6768 245.696 51.1768C250.196 54.1768 260.696 60.1768 259.696 79.1768L284.696 78.6768V77.1768C293.196 76.1768 301.696 79.6768 300.196 65.6768L302.196 55.6768C302.196 54.1768 299.696 50.1768 297.196 49.6768C298.696 47.1768 295.696 38.1768 295.696 38.1768V36.6768L291.696 33.6768L286.696 32.1768L283.196 31.6768L278.196 33.6768Z" stroke="black" stroke-width="0.5"/>
<path d="M295.696 36.6768L295.69 36.5969M295.69 36.5969L295.196 28.1768L281.196 26.1768L272.696 27.6768L283.196 31.6768C292.696 32.6768 291.695 34.1768 295.69 36.5969Z" stroke="black" stroke-width="0.5"/>
<path d="M294.198 36.177C293.698 33.6768 282.698 33.4768 277.198 33.9768" stroke="black" stroke-width="0.5"/>
<path d="M300.198 66.1768L260.698 68.1768C260.198 63.1768 258.031 59.0101 256.198 57.1768L302.198 54.6768M300.698 52.1768C289.698 50.6768 278.698 45.8768 266.698 39.8768M228.698 30.1768L272.698 27.6768L281.198 26.1768" stroke="black" stroke-width="0.5"/>
<path d="M272.698 42.6768C279.693 43.0265 285.71 43.1316 291.091 43.6768M297.698 44.6768C295.595 44.2261 293.402 43.9109 291.091 43.6768M295.698 37.1768C295.28 36.5916 294.811 36.0624 294.307 35.5867M291.091 43.6768C290.765 43.332 290.671 42.8089 290.656 42.1768M290.656 42.1768C290.642 41.5865 290.698 40.901 290.698 40.1768C290.698 38.1768 289.698 34.1768 286.198 32.1768C288.419 32.1768 291.795 33.2171 294.307 35.5867M290.656 42.1768C293.698 40.6768 294.77 37.1167 294.307 35.5867" stroke="black" stroke-width="0.5"/>
<path d="M290.698 40.1768C286.198 40.1768 284.198 36.1768 283.198 33.6768" stroke="black" stroke-width="0.5"/>
<path d="M132.696 12.2767C119.196 16.2767 107.196 22.1768 93.1963 35.1768C100.196 23.1768 115.696 13.6768 131.196 8.67676L132.696 12.2767Z" fill="#E56E90" stroke="black" stroke-width="0.5"/>
<path d="M131.196 8.67676C111.196 14.3508 93.1963 31.6768 85.1963 29.6768C98.1963 20.1768 114.196 11.6768 130.696 7.17676L131.196 8.67676Z" fill="#E56E90" stroke="black" stroke-width="0.5"/>
<path d="M10.197 47.6768H4.19696C1.69629 51.6768 1.69629 61.6768 2.19696 65.1768C0.696289 66.1768 0.696887 70.6768 1.69696 72.1768L5.69696 72.6768V74.1768L1.69696 76.1768V78.1768C5.69696 79.1768 14.197 81.1768 22.197 80.6768V79.1768H39.697C39.0303 70.6768 40.697 60.1768 49.697 53.1768C47.197 49.1768 40.197 44.6768 37.197 44.1768C27.197 43.1768 12.197 45.6768 10.197 47.6768Z" fill="#E56E90" stroke="black" stroke-width="0.5"/>
<path d="M93.1978 35.1768C75.3644 36.0101 43.6978 40.8768 33.1978 43.8768L37.1978 44.1768C42.1978 45.6768 47.6978 50.0101 49.6978 53.1768C62.6968 43.6768 88.1968 50.6768 86.6968 78.1768H96.6968C89.6968 67.1768 90.6968 45.1768 93.1978 35.1768Z" fill="#E56E90" stroke="black" stroke-width="0.5"/>
<path d="M10.1963 47.6768H4.19629C36.6965 28.1767 58.6965 34.1768 84.6963 29.6768L93.6965 35.1768C76.6965 36.1768 47.6963 39.6768 33.6963 43.8768C25.6963 43.6767 11.6963 45.6768 10.1963 47.6768Z" fill="#E56E90" stroke="black" stroke-width="0.5"/>
<path d="M37.1977 44.1768C29.6977 43.1768 12.6977 45.1768 10.1977 47.6768C9.39774 50.0768 12.5311 53.0101 14.1977 54.1768C23.6978 55.6768 37.1977 49.6768 37.1977 44.1768Z" fill="#E56E90" stroke="black" stroke-width="0.5"/>
<path d="M4.19698 47.6768C11.197 48.6768 5.19698 59.1768 2.19698 64.1768C1.69691 57.1768 2.19678 51.6768 4.19698 47.6768Z" fill="#E56E90" stroke="black" stroke-width="0.5"/>
<path d="M22.1963 83.6768V79.1768H39.6963L40.1963 83.6768H22.1963Z" fill="#E56E90" stroke="black" stroke-width="0.5"/>
<path d="M2.69824 65.1768C4.19824 67.6768 6.19824 70.8434 5.69824 72.6768M22.1982 79.1768C11.6982 79.6768 7.19824 75.6768 8.19824 72.1768C8.69824 71.6768 10.1982 70.1768 11.1982 70.1768" stroke="black" stroke-width="0.5"/>
<path d="M32.1982 74.1768C29.6982 70.1768 24.1982 65.1768 21.1982 63.6768C19.4482 63.1768 16.8231 63.3018 14.073 63.6768C12.4481 65.0101 11.1982 68.1768 11.6982 71.1768C11.6982 72.3434 13.0057 74.6768 15.6982 74.6768C20.1982 74.6768 27.1982 75.1768 32.1982 74.1768Z" fill="#E56E90"/>
<path d="M6.19824 65.1768C8.44818 64.6768 11.3231 64.0518 14.073 63.6768M14.073 63.6768C16.8231 63.3018 19.4482 63.1768 21.1982 63.6768C24.1982 65.1768 29.6982 70.1768 32.1982 74.1768C27.1982 75.1768 20.1982 74.6768 15.6982 74.6768C13.0057 74.6768 11.6982 72.3434 11.6982 71.1768C11.1982 68.1768 12.4481 65.0101 14.073 63.6768Z" stroke="black" stroke-width="0.5"/>
<path d="M11.6982 70.6768C19.6982 69.1769 23.1982 71.8054 26.1982 73.3054M13.1982 73.6769L30.6982 73.1769" stroke="black" stroke-width="0.5"/>
<path d="M22.1963 82.1768H31.6963C33.6963 82.1768 35.1963 80.1768 34.6963 79.1768M38.1963 79.1768V83.6768" stroke="black" stroke-width="0.5"/>
<path d="M22.1977 80.677C17.6977 80.677 13.1977 81.177 1.6977 78.177V76.177L5.6977 74.177V72.677L1.6977 72.177C1.19678 70.6768 0.196973 67.6768 2.19697 65.1768C1.69721 57.1768 2.19721 50.6768 4.1977 47.6765C36.6977 28.1769 58.6977 34.1769 84.6977 29.6769C162.698 -25.3232 244.698 11.6767 281.698 26.1769L295.198 28.1768L295.698 35.1768V38.1768C297.196 43.1768 298.531 47.6768 297.198 49.6768C299.698 50.6768 302.198 53.8434 302.198 55.6768L300.198 65.6768C300.65 76.5247 298.242 76.7489 288.91 77.0614C287.919 77.0946 285.85 77.1288 284.698 77.1768V78.6768L259.698 79.1078M22.1977 80.677V83.677H40.196L39.6977 79.177M22.1977 80.677V79.177H39.6977M39.6977 79.177C36.6977 37.677 90.1977 40.677 86.6977 79.677V82.1768H213.198C207.198 38.6768 261.698 38.6768 259.698 79.1078M259.196 79.1078H259.698" stroke="black"/>
</svg>
