<svg width="303" height="96" viewBox="0 0 303 96" fill="none" xmlns="http://www.w3.org/2000/svg">
<circle cx="62.876" cy="74.5378" r="20.5" fill="#EFC7D3" stroke="black"/>
<circle cx="235.876" cy="74.5378" r="20.5" fill="#EFC7D3" stroke="black"/>
<path d="M132.874 13.0377L131.374 9.5377C171.374 1.53781 192.874 2.03784 231.874 13.5378L228.374 18.0378C208.374 10.0378 190.374 9.03775 174.374 8.53782C171.874 8.03782 167.874 8.03778 165.374 8.5377C155.374 8.53782 143.374 10.0378 132.874 13.0377Z" fill="#EDADBF" stroke="black" stroke-width="0.5"/>
<path d="M131.374 9.53789L130.874 8.03789C166.874 -2.96216 199.374 1.03772 234.874 10.0379L231.874 13.5379C191.874 1.03784 165.874 2.53784 131.374 9.53789Z" fill="#EDADBF" stroke="black" stroke-width="0.5"/>
<path d="M131.374 9.53771C182.874 -1.96232 211.374 8.03772 231.874 13.5377" stroke="black" stroke-width="0.5"/>
<path d="M170.876 30.5378L174.376 8.53784C207.876 9.53784 219.376 15.0378 223.876 16.5378L226.359 28.5378C199.369 28.5385 181.874 30.0379 170.876 30.5378Z" fill="#EDADBF"/>
<path d="M226.876 31.0378L223.876 16.5378C219.376 15.0378 207.876 9.53784 174.376 8.53784L170.876 30.5378C181.876 30.0378 199.376 28.5378 226.376 28.5378" stroke="black" stroke-width="0.5"/>
<path d="M165.376 8.53784C132.376 9.53784 112.376 18.5378 93.376 36.0378L95.876 34.0378L159.876 31.0378L165.376 8.53784Z" fill="#EDADBF" stroke="black" stroke-width="0.5"/>
<path d="M239.874 23.0378C236.207 20.3712 230.374 18.0378 223.874 16.5378L226.374 28.5378H232.874C235.874 27.0378 238.874 24.8066 239.874 23.0378Z" fill="#EDADBF" stroke="black" stroke-width="0.5"/>
<path d="M96.876 79.0378H163.876L198.376 77.5378H212.876L213.376 83.0378H199.376H98.376H86.876V79.0378H96.876Z" fill="#EDADBF"/>
<path d="M96.876 79.0378H163.876L198.376 77.5378M96.876 79.0378C96.876 80.5378 97.376 81.5378 98.376 83.0378M96.876 79.0378H86.876V83.0378H98.376M198.376 77.5378L199.376 83.0378M198.376 77.5378H212.876L213.376 83.0378H199.376M199.376 83.0378H98.376" stroke="black" stroke-width="0.5"/>
<path d="M96.8751 79.0378C92.376 74.5378 89.376 52.5378 93.3751 36.0378L165.376 32.0378C161.376 37.0378 160.376 71.0378 163.876 79.0378H96.8751Z" fill="#EDADBF" stroke="black" stroke-width="0.5"/>
<path d="M228.876 31.0378L165.376 32.0378C161.376 37.0378 160.376 71.0378 163.876 79.0378L198.376 77.5378C202.876 76.0378 209.376 70.5378 228.876 31.0378Z" fill="#EDADBF" stroke="black" stroke-width="0.5"/>
<path d="M170.876 30.5379C166.376 31.0379 162.876 31.0379 159.876 31.0379L165.376 8.53792C168.376 8.03784 171.376 8.03784 174.376 8.53792L170.876 30.5379Z" fill="#EDADBF" stroke="black" stroke-width="0.5"/>
<path d="M99.376 32.5379C103.876 38.0379 110.876 34.5379 114.876 33.0379C115.876 17.5377 102.876 25.5377 99.376 32.5379Z" fill="#EDADBF" stroke="black" stroke-width="0.5"/>
<path d="M234.874 10.0378L231.874 13.5378C248.874 19.0378 259.374 22.0378 271.874 28.5378H273.374L281.374 27.0378C266.374 20.5378 258.874 18.0378 234.874 10.0378Z" fill="#EDADBF" stroke="black" stroke-width="0.5"/>
<path d="M271.874 28.5378C261.374 23.0378 242.374 16.5378 231.874 13.5378L229.874 16.0378L244.874 23.5378C243.374 26.0378 239.374 28.0378 233.374 30.7378C245.374 30.0378 262.374 29.0378 271.874 28.5378Z" fill="#EDADBF" stroke="black" stroke-width="0.5"/>
<path d="M277.376 34.8378L283.374 32.5378L272.875 28.5378L228.875 31.0378C221.375 46.0378 206.375 76.5378 198.375 77.5378H212.875C211.375 66.5378 220.875 43.0378 245.876 52.0378C256.376 46.5378 266.376 41.0378 277.376 34.8378Z" fill="#EDADBF" stroke="black" stroke-width="0.5"/>
<path d="M278.374 34.5379C266.374 41.0379 256.374 46.5379 245.874 52.0379C250.374 55.0378 260.874 61.0378 259.874 80.0378L284.874 79.5378V78.0378C293.374 77.0378 301.874 80.5378 300.374 66.5378L302.374 56.5378C302.374 55.0378 299.874 51.0378 297.374 50.5378C298.874 48.0378 295.874 39.0378 295.874 39.0378V37.5378L291.874 34.5378L286.874 33.0378L283.374 32.5378L278.374 34.5379Z" fill="#EDADBF" stroke="black" stroke-width="0.5"/>
<path d="M281.374 27.0378L272.874 28.5378L283.374 32.5378C292.874 33.5378 291.873 35.0378 295.868 37.458L295.374 29.0378L281.374 27.0378Z" fill="#EDADBF"/>
<path d="M295.874 37.5378L295.868 37.458M295.868 37.458L295.374 29.0378L281.374 27.0378L272.874 28.5378L283.374 32.5378C292.874 33.5378 291.873 35.0378 295.868 37.458Z" stroke="black" stroke-width="0.5"/>
<path d="M294.376 37.038C293.876 34.5379 282.876 34.3379 277.376 34.8379" stroke="black" stroke-width="0.5"/>
<path d="M300.376 67.0378L260.876 69.0378C260.376 64.0378 258.209 59.8712 256.376 58.0378L302.376 55.5378M300.876 53.0378C289.876 51.5378 278.876 46.7378 266.876 40.7378M228.876 31.0378L272.876 28.5378L281.376 27.0378" stroke="black" stroke-width="0.5"/>
<path d="M290.876 41.0378C290.876 39.0378 289.876 35.0378 286.376 33.0378C288.597 33.0378 291.974 34.0782 294.485 36.4478C294.949 37.9778 293.876 41.5378 290.834 43.0378C290.821 42.4476 290.876 41.7621 290.876 41.0378Z" fill="#EDADBF"/>
<path d="M272.876 43.5378C279.872 43.8876 285.889 43.9927 291.269 44.5378M297.876 45.5378C295.773 45.0872 293.58 44.7719 291.269 44.5378M295.876 38.0378C295.458 37.4527 294.989 36.9235 294.485 36.4478M291.269 44.5378C290.943 44.1931 290.849 43.67 290.834 43.0378M290.834 43.0378C290.821 42.4476 290.876 41.7621 290.876 41.0378C290.876 39.0378 289.876 35.0378 286.376 33.0378C288.597 33.0378 291.974 34.0782 294.485 36.4478M290.834 43.0378C293.876 41.5378 294.949 37.9778 294.485 36.4478" stroke="black" stroke-width="0.5"/>
<path d="M290.876 41.0378C286.376 41.0378 284.376 37.0378 283.376 34.5378" stroke="black" stroke-width="0.5"/>
<path d="M132.874 13.1378C119.374 17.1378 107.374 23.0378 93.374 36.0378C100.374 24.0378 115.874 14.5378 131.374 9.53784L132.874 13.1378Z" fill="#E0426F" stroke="black" stroke-width="0.5"/>
<path d="M131.374 9.53784C111.374 15.2119 93.374 32.5378 85.374 30.5378C98.374 21.0378 114.374 12.5378 130.874 8.03784L131.374 9.53784Z" fill="#E0426F" stroke="black" stroke-width="0.5"/>
<path d="M10.3747 48.5377H4.37469C1.87402 52.5377 1.87402 62.5377 2.37469 66.0377C0.874023 67.0377 0.874621 71.5377 1.87469 73.0377L5.87469 73.5377V75.0377L1.87469 77.0377V79.0377C5.87469 80.0377 14.3747 82.0377 22.3747 81.5377V80.0377H39.8747C39.208 71.5377 40.8747 61.0377 49.8747 54.0377C47.3747 50.0377 40.3747 45.5377 37.3747 45.0377C27.3747 44.0377 12.3747 46.5377 10.3747 48.5377Z" fill="#E0426F" stroke="black" stroke-width="0.5"/>
<path d="M93.376 36.0378C75.5426 36.8712 43.876 41.7378 33.376 44.7378L37.376 45.0378C42.376 46.5378 47.876 50.8712 49.876 54.0378C62.875 44.5378 88.375 51.5378 86.875 79.0378H96.875C89.875 68.0378 90.875 46.0378 93.376 36.0378Z" fill="#E0426F" stroke="black" stroke-width="0.5"/>
<path d="M10.374 48.5379H4.37402C36.8742 29.0378 58.8743 35.0378 84.874 30.5378L93.8743 36.0378C76.8743 37.0378 47.874 40.5378 33.874 44.7378C25.874 44.5378 11.874 46.5378 10.374 48.5379Z" fill="#E0426F" stroke="black" stroke-width="0.5"/>
<path d="M37.3755 45.0379C29.8755 44.0378 12.8755 46.0378 10.3755 48.5379C9.57548 50.9379 12.7088 53.8712 14.3755 55.0378C23.8755 56.5378 37.3755 50.5378 37.3755 45.0379Z" fill="#E0426F" stroke="black" stroke-width="0.5"/>
<path d="M4.37472 48.5378C11.3747 49.5378 5.37472 60.0378 2.37472 65.0378C1.87465 58.0378 2.37451 52.5378 4.37472 48.5378Z" fill="#E0426F" stroke="black" stroke-width="0.5"/>
<path d="M22.374 84.5378V80.0378H39.874L40.374 84.5378H22.374Z" fill="#E0426F" stroke="black" stroke-width="0.5"/>
<path d="M2.87598 66.0376C4.37598 68.5376 6.37598 71.7043 5.87598 73.5376M22.376 80.0376C11.876 80.5376 7.37598 76.5376 8.37598 73.0376C8.87598 72.5376 10.376 71.0376 11.376 71.0376" stroke="black" stroke-width="0.5"/>
<path d="M32.376 75.0377C29.876 71.0377 24.376 66.0378 21.376 64.5378C19.6259 64.0378 17.0008 64.1628 14.2508 64.5378C12.6258 65.8711 11.376 69.0377 11.876 72.0377C11.876 73.2044 13.1834 75.5377 15.876 75.5377C20.376 75.5377 27.376 76.0377 32.376 75.0377Z" fill="#E0426F"/>
<path d="M6.37598 66.0378C8.62592 65.5378 11.5008 64.9128 14.2508 64.5378M14.2508 64.5378C17.0008 64.1628 19.6259 64.0378 21.376 64.5378C24.376 66.0378 29.876 71.0377 32.376 75.0377C27.376 76.0377 20.376 75.5377 15.876 75.5377C13.1834 75.5377 11.876 73.2044 11.876 72.0377C11.376 69.0377 12.6258 65.8711 14.2508 64.5378Z" stroke="black" stroke-width="0.5"/>
<path d="M11.876 71.5378C19.876 70.0378 23.376 72.6663 26.376 74.1663M13.376 74.5378L30.876 74.0378" stroke="black" stroke-width="0.5"/>
<path d="M22.374 83.0376H31.874C33.874 83.0376 35.374 81.0376 34.874 80.0376M38.374 80.0376V84.5376" stroke="black" stroke-width="0.5"/>
<path d="M22.3759 81.5381C17.8759 81.5381 13.3759 82.0381 1.87592 79.0381V77.0381L5.87592 75.0381V73.5381L1.87592 73.0381C1.375 71.5378 0.375196 68.5378 2.37519 66.0378C1.87543 58.0378 2.37543 51.5378 4.37592 48.5376C36.8759 29.038 58.8759 35.038 84.8759 30.538C162.876 -24.4621 244.876 12.5378 281.876 27.038L295.376 29.0378L295.876 36.0378V39.0378C297.374 44.0378 298.709 48.5378 297.376 50.5378C299.876 51.5378 302.376 54.7045 302.376 56.5378L300.376 66.5378C300.828 77.3858 298.42 77.61 289.088 77.9225C288.097 77.9557 286.028 77.9898 284.876 78.0378V79.5378L259.876 79.9689M22.3759 81.5381V84.5381H40.3743L39.8759 80.0381M22.3759 81.5381V80.0381H39.8759M39.8759 80.0381C36.8759 38.5381 90.3759 41.5381 86.8759 80.5381V83.0378H213.376C207.376 39.5378 261.876 39.5378 259.876 79.9689M259.374 79.9689H259.876" stroke="black"/>
</svg>
