<svg width="303" height="95" viewBox="0 0 303 95" fill="none" xmlns="http://www.w3.org/2000/svg">
<circle cx="62.6978" cy="73.7222" r="20.5" stroke="black"/>
<circle cx="235.698" cy="73.7222" r="20.5" stroke="black"/>
<path d="M132.696 12.222L131.196 8.72202C171.196 0.722136 192.696 1.22217 231.696 12.7221L228.196 17.2221C208.196 9.22208 190.196 8.22208 174.196 7.72215C171.696 7.22215 167.696 7.22211 165.196 7.72202C155.196 7.72215 143.196 9.22215 132.696 12.222Z" fill="#E0426F" stroke="black" stroke-width="0.5"/>
<path d="M131.196 8.72221L130.696 7.22221C166.696 -3.77783 199.196 0.222042 234.696 9.22221L231.696 12.7222C191.696 0.222168 165.696 1.72217 131.196 8.72221Z" fill="#E0426F" stroke="black" stroke-width="0.5"/>
<path d="M131.196 8.72228C182.696 -2.77775 211.196 7.22229 231.696 12.7223" stroke="black" stroke-width="0.5"/>
<path d="M170.698 29.7222L174.198 7.72217C207.698 8.72217 219.198 14.2222 223.698 15.7222L226.181 27.7222C199.19 27.7228 181.695 29.2223 170.698 29.7222Z" fill="#E0426F"/>
<path d="M226.698 30.2222L223.698 15.7222C219.198 14.2222 207.698 8.72217 174.198 7.72217L170.698 29.7222C181.698 29.2222 199.198 27.7222 226.198 27.7222" stroke="black" stroke-width="0.5"/>
<path d="M165.198 7.72217C132.198 8.72217 112.198 17.7222 93.1978 35.2222L95.6978 33.2222L159.698 30.2222L165.198 7.72217Z" fill="#E0426F" stroke="black" stroke-width="0.5"/>
<path d="M239.696 22.2222C236.03 19.5555 230.196 17.2222 223.696 15.7222L226.196 27.7222H232.696C235.696 26.2222 238.696 23.9909 239.696 22.2222Z" fill="#E0426F" stroke="black" stroke-width="0.5"/>
<path d="M96.6978 78.2222H163.698L198.198 76.7222H212.698L213.198 82.2222H199.198H98.1978H86.6978V78.2222H96.6978Z" fill="#E0426F"/>
<path d="M96.6978 78.2222H163.698L198.198 76.7222M96.6978 78.2222C96.6978 79.7222 97.1978 80.7222 98.1978 82.2222M96.6978 78.2222H86.6978V82.2222H98.1978M198.198 76.7222L199.198 82.2222M198.198 76.7222H212.698L213.198 82.2222H199.198M199.198 82.2222H98.1978" stroke="black" stroke-width="0.5"/>
<path d="M96.6969 78.2222C92.1977 73.7222 89.1978 51.7222 93.1969 35.2222L165.198 31.2222C161.198 36.2222 160.198 70.2222 163.698 78.2222H96.6969Z" fill="#E0426F" stroke="black" stroke-width="0.5"/>
<path d="M228.697 30.2222L165.197 31.2222C161.197 36.2222 160.198 70.2222 163.697 78.2222L198.197 76.7222C202.697 75.2222 209.197 69.7222 228.697 30.2222Z" fill="#E0426F" stroke="black" stroke-width="0.5"/>
<path d="M170.698 29.7222C166.198 30.2222 162.698 30.2222 159.698 30.2222L165.198 7.72224C168.198 7.22217 171.198 7.22217 174.198 7.72224L170.698 29.7222Z" fill="#E0426F" stroke="black" stroke-width="0.5"/>
<path d="M99.1978 31.7224C103.698 37.2224 110.698 33.7224 114.698 32.2224C115.698 16.7223 102.698 24.7223 99.1978 31.7224Z" fill="#E0426F" stroke="black" stroke-width="0.5"/>
<path d="M234.696 9.22217L231.696 12.7222C248.696 18.2222 259.196 21.2222 271.696 27.7222H273.196L281.196 26.2222C266.196 19.7222 258.696 17.2222 234.696 9.22217Z" stroke="black" stroke-width="0.5"/>
<path d="M271.696 27.7222C261.196 22.2222 242.196 15.7222 231.696 12.7222L229.696 15.2222L244.696 22.7222C243.196 25.2222 239.196 27.2222 233.196 29.9222C245.196 29.2222 262.196 28.2222 271.696 27.7222Z" stroke="black" stroke-width="0.5"/>
<path d="M277.198 34.0222L283.196 31.7222L272.697 27.7222L228.697 30.2222C221.197 45.2222 206.197 75.7222 198.197 76.7222H212.697C211.197 65.7222 220.697 42.2222 245.698 51.2222C256.198 45.7222 266.198 40.2222 277.198 34.0222Z" stroke="black" stroke-width="0.5"/>
<path d="M278.196 33.7222C266.196 40.2222 256.196 45.7222 245.696 51.2222C250.196 54.2222 260.696 60.2222 259.696 79.2222L284.696 78.7222V77.2222C293.196 76.2222 301.696 79.7222 300.196 65.7222L302.196 55.7222C302.196 54.2222 299.696 50.2222 297.196 49.7222C298.696 47.2222 295.696 38.2222 295.696 38.2222V36.7222L291.696 33.7222L286.696 32.2222L283.196 31.7222L278.196 33.7222Z" stroke="black" stroke-width="0.5"/>
<path d="M295.696 36.7222L295.69 36.6423M295.69 36.6423L295.196 28.2222L281.196 26.2222L272.696 27.7222L283.196 31.7222C292.696 32.7222 291.695 34.2222 295.69 36.6423Z" stroke="black" stroke-width="0.5"/>
<path d="M294.198 36.2224C293.698 33.7223 282.698 33.5222 277.198 34.0222" stroke="black" stroke-width="0.5"/>
<path d="M300.198 66.2222L260.698 68.2222C260.198 63.2222 258.031 59.0555 256.198 57.2222L302.198 54.7222M300.698 52.2222C289.698 50.7222 278.698 45.9222 266.698 39.9222M228.698 30.2222L272.698 27.7222L281.198 26.2222" stroke="black" stroke-width="0.5"/>
<path d="M272.698 42.7222C279.693 43.072 285.71 43.177 291.091 43.7222M297.698 44.7222C295.595 44.2715 293.402 43.9563 291.091 43.7222M295.698 37.2222C295.28 36.637 294.811 36.1078 294.307 35.6322M291.091 43.7222C290.765 43.3774 290.671 42.8544 290.656 42.2222M290.656 42.2222C290.642 41.6319 290.698 40.9465 290.698 40.2222C290.698 38.2222 289.698 34.2222 286.198 32.2222C288.419 32.2222 291.795 33.2626 294.307 35.6322M290.656 42.2222C293.698 40.7222 294.77 37.1622 294.307 35.6322" stroke="black" stroke-width="0.5"/>
<path d="M290.698 40.2222C286.198 40.2222 284.198 36.2222 283.198 33.7222" stroke="black" stroke-width="0.5"/>
<path d="M132.696 12.3221C119.196 16.3221 107.196 22.2222 93.1963 35.2222C100.196 23.2222 115.696 13.7222 131.196 8.72217L132.696 12.3221Z" fill="#EFC7D3" stroke="black" stroke-width="0.5"/>
<path d="M131.196 8.72217C111.196 14.3962 93.1963 31.7222 85.1963 29.7222C98.1963 20.2222 114.196 11.7222 130.696 7.22217L131.196 8.72217Z" fill="#EFC7D3" stroke="black" stroke-width="0.5"/>
<path d="M10.197 47.7221H4.19696C1.69629 51.722 1.69629 61.722 2.19696 65.222C0.696289 66.222 0.696887 70.722 1.69696 72.222L5.69696 72.722V74.222L1.69696 76.222V78.222C5.69696 79.222 14.197 81.222 22.197 80.722V79.222H39.697C39.0303 70.722 40.697 60.222 49.697 53.222C47.197 49.222 40.197 44.722 37.197 44.2221C27.197 43.222 12.197 45.7221 10.197 47.7221Z" fill="#EFC7D3" stroke="black" stroke-width="0.5"/>
<path d="M93.1978 35.2222C75.3644 36.0555 43.6978 40.9222 33.1978 43.9222L37.1978 44.2222C42.1978 45.7222 47.6978 50.0555 49.6978 53.2222C62.6968 43.7222 88.1968 50.7222 86.6968 78.2222H96.6968C89.6968 67.2222 90.6968 45.2222 93.1978 35.2222Z" fill="#EFC7D3" stroke="black" stroke-width="0.5"/>
<path d="M10.1963 47.7222H4.19629C36.6965 28.2221 58.6965 34.2222 84.6963 29.7222L93.6965 35.2222C76.6965 36.2222 47.6963 39.7222 33.6963 43.9222C25.6963 43.7222 11.6963 45.7222 10.1963 47.7222Z" fill="#EFC7D3" stroke="black" stroke-width="0.5"/>
<path d="M37.1977 44.2222C29.6977 43.2222 12.6977 45.2222 10.1977 47.7222C9.39774 50.1222 12.5311 53.0555 14.1977 54.2222C23.6978 55.7222 37.1977 49.7222 37.1977 44.2222Z" fill="#EFC7D3" stroke="black" stroke-width="0.5"/>
<path d="M4.19698 47.7222C11.197 48.7222 5.19698 59.2222 2.19698 64.2222C1.69691 57.2222 2.19678 51.7222 4.19698 47.7222Z" fill="#EFC7D3" stroke="black" stroke-width="0.5"/>
<path d="M22.1963 83.7222V79.2222H39.6963L40.1963 83.7222H22.1963Z" fill="#EFC7D3" stroke="black" stroke-width="0.5"/>
<path d="M2.69824 65.2222C4.19824 67.7222 6.19824 70.8888 5.69824 72.7222M22.1982 79.2222C11.6982 79.7222 7.19824 75.7222 8.19824 72.2222C8.69824 71.7222 10.1982 70.2222 11.1982 70.2222" stroke="black" stroke-width="0.5"/>
<path d="M32.1982 74.2223C29.6982 70.2223 24.1982 65.2224 21.1982 63.7224C19.4482 63.2224 16.8231 63.3474 14.073 63.7224C12.4481 65.0557 11.1982 68.2223 11.6982 71.2223C11.6982 72.389 13.0057 74.7223 15.6982 74.7223C20.1982 74.7223 27.1982 75.2223 32.1982 74.2223Z" fill="#EFC7D3"/>
<path d="M6.19824 65.2224C8.44818 64.7223 11.3231 64.0974 14.073 63.7224M14.073 63.7224C16.8231 63.3474 19.4482 63.2224 21.1982 63.7224C24.1982 65.2224 29.6982 70.2223 32.1982 74.2223C27.1982 75.2223 20.1982 74.7223 15.6982 74.7223C13.0057 74.7223 11.6982 72.389 11.6982 71.2223C11.1982 68.2223 12.4481 65.0557 14.073 63.7224Z" stroke="black" stroke-width="0.5"/>
<path d="M11.6982 70.7224C19.6982 69.2224 23.1982 71.8509 26.1982 73.3509M13.1982 73.7224L30.6982 73.2224" stroke="black" stroke-width="0.5"/>
<path d="M22.1963 82.2222H31.6963C33.6963 82.2222 35.1963 80.2222 34.6963 79.2222M38.1963 79.2222V83.7222" stroke="black" stroke-width="0.5"/>
<path d="M22.1977 80.7224C17.6977 80.7224 13.1977 81.2224 1.6977 78.2224V76.2224L5.6977 74.2224V72.7224L1.6977 72.2224C1.19678 70.7222 0.196973 67.7222 2.19697 65.2222C1.69721 57.2222 2.19721 50.7222 4.1977 47.7219C36.6977 28.2223 58.6977 34.2224 84.6977 29.7224C162.698 -25.2778 244.698 11.7222 281.698 26.2223L295.198 28.2222L295.698 35.2222V38.2222C297.196 43.2222 298.531 47.7222 297.198 49.7222C299.698 50.7222 302.198 53.8888 302.198 55.7222L300.198 65.7222C300.65 76.5701 298.242 76.7944 288.91 77.1068C287.919 77.14 285.85 77.1742 284.698 77.2222V78.7222L259.698 79.1532M22.1977 80.7224V83.7224H40.196L39.6977 79.2224M22.1977 80.7224V79.2224H39.6977M39.6977 79.2224C36.6977 37.7224 90.1977 40.7224 86.6977 79.7224V82.2222H213.198C207.198 38.7222 261.698 38.7222 259.698 79.1532M259.196 79.1532H259.698" stroke="black"/>
</svg>
