<svg width="303" height="96" viewBox="0 0 303 96" fill="none" xmlns="http://www.w3.org/2000/svg">
<circle cx="62.249" cy="74.1995" r="20.5" fill="#E56E90" stroke="black"/>
<circle cx="235.249" cy="74.1995" r="20.5" fill="#E56E90" stroke="black"/>
<path d="M132.247 12.6993L130.747 9.19932C170.747 1.19943 192.247 1.69946 231.247 13.1994L227.747 17.6994C207.747 9.69937 189.747 8.69937 173.747 8.19944C171.247 7.69944 167.247 7.6994 164.747 8.19932C154.747 8.19944 142.747 9.69944 132.247 12.6993Z" fill="#EDADBF" stroke="black" stroke-width="0.5"/>
<path d="M130.747 9.19951L130.247 7.69951C166.247 -3.30054 198.747 0.699337 234.247 9.69951L231.247 13.1995C191.247 0.699463 165.247 2.19946 130.747 9.19951Z" fill="#EDADBF" stroke="black" stroke-width="0.5"/>
<path d="M130.747 9.19933C182.247 -2.3007 210.747 7.69934 231.247 13.1993" stroke="black" stroke-width="0.5"/>
<path d="M170.249 30.1995L173.749 8.19946C207.249 9.19946 218.749 14.6995 223.249 16.1995L225.732 28.1995C198.742 28.2001 181.247 29.6996 170.249 30.1995Z" fill="#EDADBF"/>
<path d="M226.249 30.6995L223.249 16.1995C218.749 14.6995 207.249 9.19946 173.749 8.19946L170.249 30.1995C181.249 29.6995 198.749 28.1995 225.749 28.1995" stroke="black" stroke-width="0.5"/>
<path d="M164.749 8.19946C131.749 9.19946 111.749 18.1995 92.749 35.6995L95.249 33.6995L159.249 30.6995L164.749 8.19946Z" fill="#EDADBF" stroke="black" stroke-width="0.5"/>
<path d="M239.247 22.6995C235.58 20.0328 229.747 17.6995 223.247 16.1995L225.747 28.1995H232.247C235.247 26.6995 238.247 24.4682 239.247 22.6995Z" fill="#EDADBF" stroke="black" stroke-width="0.5"/>
<path d="M96.249 78.6995H163.249L197.749 77.1995H212.249L212.749 82.6995H198.749H97.749H86.249V78.6995H96.249Z" fill="#EDADBF"/>
<path d="M96.249 78.6995H163.249L197.749 77.1995M96.249 78.6995C96.249 80.1995 96.749 81.1995 97.749 82.6995M96.249 78.6995H86.249V82.6995H97.749M197.749 77.1995L198.749 82.6995M197.749 77.1995H212.249L212.749 82.6995H198.749M198.749 82.6995H97.749" stroke="black" stroke-width="0.5"/>
<path d="M96.2482 78.6995C91.749 74.1995 88.7491 52.1995 92.7482 35.6995L164.749 31.6995C160.749 36.6995 159.749 70.6995 163.249 78.6995H96.2482Z" fill="#EDADBF" stroke="black" stroke-width="0.5"/>
<path d="M228.249 30.6995L164.749 31.6995C160.749 36.6995 159.749 70.6995 163.249 78.6995L197.749 77.1995C202.249 75.6995 208.749 70.1995 228.249 30.6995Z" fill="#EDADBF" stroke="black" stroke-width="0.5"/>
<path d="M170.249 30.1995C165.749 30.6995 162.249 30.6995 159.249 30.6995L164.749 8.19954C167.749 7.69946 170.749 7.69946 173.749 8.19954L170.249 30.1995Z" fill="#EDADBF" stroke="black" stroke-width="0.5"/>
<path d="M98.749 32.1995C103.249 37.6995 110.249 34.1995 114.249 32.6995C115.249 17.1994 102.249 25.1993 98.749 32.1995Z" fill="#EDADBF" stroke="black" stroke-width="0.5"/>
<path d="M234.247 9.69946L231.247 13.1995C248.247 18.6995 258.747 21.6995 271.247 28.1995H272.747L280.747 26.6995C265.747 20.1995 258.247 17.6995 234.247 9.69946Z" fill="#E0426F" stroke="black" stroke-width="0.5"/>
<path d="M271.247 28.1995C260.747 22.6995 241.747 16.1995 231.247 13.1995L229.247 15.6995L244.247 23.1995C242.747 25.6995 238.747 27.6995 232.747 30.3995C244.747 29.6995 261.747 28.6995 271.247 28.1995Z" fill="#E0426F" stroke="black" stroke-width="0.5"/>
<path d="M276.749 34.4995L282.747 32.1995L272.248 28.1995L228.248 30.6995C220.748 45.6995 205.748 76.1995 197.748 77.1995H212.248C210.748 66.1995 220.248 42.6995 245.249 51.6995C255.749 46.1995 265.749 40.6995 276.749 34.4995Z" fill="#E0426F" stroke="black" stroke-width="0.5"/>
<path d="M277.747 34.1995C265.747 40.6995 255.747 46.1995 245.247 51.6995C249.747 54.6995 260.247 60.6995 259.247 79.6995L284.247 79.1995V77.6995C292.747 76.6995 301.247 80.1995 299.747 66.1995L301.747 56.1995C301.747 54.6995 299.247 50.6995 296.747 50.1995C298.247 47.6995 295.247 38.6995 295.247 38.6995V37.1995L291.247 34.1995L286.247 32.6995L282.747 32.1995L277.747 34.1995Z" fill="#E0426F" stroke="black" stroke-width="0.5"/>
<path d="M280.747 26.6995L272.247 28.1995L282.747 32.1995C292.247 33.1995 291.246 34.6995 295.241 37.1196L294.747 28.6995L280.747 26.6995Z" fill="#E0426F"/>
<path d="M295.247 37.1995L295.241 37.1196M295.241 37.1196L294.747 28.6995L280.747 26.6995L272.247 28.1995L282.747 32.1995C292.247 33.1995 291.246 34.6995 295.241 37.1196Z" stroke="black" stroke-width="0.5"/>
<path d="M293.749 36.6997C293.249 34.1996 282.249 33.9995 276.749 34.4995" stroke="black" stroke-width="0.5"/>
<path d="M299.749 66.6995L260.249 68.6995C259.749 63.6995 257.582 59.5328 255.749 57.6995L301.749 55.1995M300.249 52.6995C289.249 51.1995 278.249 46.3995 266.249 40.3995M228.249 30.6995L272.249 28.1995L280.749 26.6995" stroke="black" stroke-width="0.5"/>
<path d="M290.249 40.6995C290.249 38.6995 289.249 34.6995 285.749 32.6995C287.97 32.6995 291.347 33.7399 293.858 36.1094C294.322 37.6395 293.249 41.1995 290.207 42.6995C290.194 42.1092 290.249 41.4238 290.249 40.6995Z" fill="#E0426F"/>
<path d="M272.249 43.1995C279.245 43.5492 285.262 43.6543 290.642 44.1995M297.249 45.1995C295.146 44.7488 292.953 44.4336 290.642 44.1995M295.249 37.6995C294.831 37.1143 294.362 36.5851 293.858 36.1094M290.642 44.1995C290.316 43.8547 290.222 43.3317 290.207 42.6995M290.207 42.6995C290.194 42.1092 290.249 41.4238 290.249 40.6995C290.249 38.6995 289.249 34.6995 285.749 32.6995C287.97 32.6995 291.347 33.7399 293.858 36.1094M290.207 42.6995C293.249 41.1995 294.322 37.6395 293.858 36.1094" stroke="black" stroke-width="0.5"/>
<path d="M290.249 40.6995C285.749 40.6995 283.749 36.6995 282.749 34.1995" stroke="black" stroke-width="0.5"/>
<path d="M132.247 12.7994C118.747 16.7994 106.747 22.6995 92.7471 35.6995C99.7471 23.6995 115.247 14.1995 130.747 9.19946L132.247 12.7994Z" fill="#EDADBF" stroke="black" stroke-width="0.5"/>
<path d="M130.747 9.19946C110.747 14.8735 92.7471 32.1995 84.7471 30.1995C97.7471 20.6995 113.747 12.1995 130.247 7.69946L130.747 9.19946Z" fill="#EDADBF" stroke="black" stroke-width="0.5"/>
<path d="M9.74774 48.1993H3.74774C1.24707 52.1993 1.24707 62.1993 1.74774 65.6993C0.24707 66.6993 0.247668 71.1993 1.24774 72.6993L5.24774 73.1993V74.6993L1.24774 76.6993V78.6993C5.24774 79.6993 13.7477 81.6993 21.7477 81.1993V79.6993H39.2477C38.5811 71.1993 40.2477 60.6993 49.2477 53.6993C46.7477 49.6993 39.7477 45.1993 36.7477 44.6993C26.7477 43.6993 11.7477 46.1993 9.74774 48.1993Z" fill="#EDADBF" stroke="black" stroke-width="0.5"/>
<path d="M92.749 35.6995C74.9157 36.5328 43.249 41.3995 32.749 44.3995L36.749 44.6995C41.749 46.1995 47.249 50.5328 49.249 53.6995C62.248 44.1995 87.748 51.1995 86.248 78.6995H96.248C89.248 67.6995 90.248 45.6995 92.749 35.6995Z" fill="#EDADBF" stroke="black" stroke-width="0.5"/>
<path d="M9.74707 48.1995H3.74707C36.2473 28.6994 58.2473 34.6995 84.2471 30.1995L93.2473 35.6995C76.2473 36.6995 47.2471 40.1995 33.2471 44.3995C25.2471 44.1995 11.2471 46.1995 9.74707 48.1995Z" fill="#EDADBF" stroke="black" stroke-width="0.5"/>
<path d="M36.7485 44.6995C29.2485 43.6995 12.2485 45.6995 9.74852 48.1995C8.94852 50.5995 12.0819 53.5328 13.7485 54.6995C23.2485 56.1995 36.7485 50.1995 36.7485 44.6995Z" fill="#EDADBF" stroke="black" stroke-width="0.5"/>
<path d="M3.74777 48.1995C10.7478 49.1995 4.74777 59.6995 1.74777 64.6995C1.2477 57.6995 1.74756 52.1995 3.74777 48.1995Z" fill="#EDADBF" stroke="black" stroke-width="0.5"/>
<path d="M21.7471 84.1995V79.6995H39.2471L39.7471 84.1995H21.7471Z" fill="#EDADBF" stroke="black" stroke-width="0.5"/>
<path d="M2.24902 65.6992C3.74902 68.1992 5.74902 71.3659 5.24902 73.1992M21.749 79.6992C11.249 80.1992 6.74902 76.1992 7.74902 72.6992C8.24902 72.1992 9.74902 70.6992 10.749 70.6992" stroke="black" stroke-width="0.5"/>
<path d="M31.749 74.6993C29.249 70.6993 23.749 65.6994 20.749 64.1994C18.999 63.6994 16.3739 63.8244 13.6238 64.1994C11.9989 65.5327 10.749 68.6993 11.249 71.6993C11.249 72.866 12.5564 75.1993 15.249 75.1993C19.749 75.1993 26.749 75.6993 31.749 74.6993Z" fill="#EDADBF"/>
<path d="M5.74902 65.6994C7.99897 65.1994 10.8739 64.5744 13.6238 64.1994M13.6238 64.1994C16.3739 63.8244 18.999 63.6994 20.749 64.1994C23.749 65.6994 29.249 70.6993 31.749 74.6993C26.749 75.6993 19.749 75.1993 15.249 75.1993C12.5564 75.1993 11.249 72.866 11.249 71.6993C10.749 68.6993 11.9989 65.5327 13.6238 64.1994Z" stroke="black" stroke-width="0.5"/>
<path d="M11.249 71.1994C19.249 69.6995 22.749 72.3279 25.749 73.8279M12.749 74.1995L30.249 73.6995" stroke="black" stroke-width="0.5"/>
<path d="M21.7471 82.6992H31.2471C33.2471 82.6992 34.7471 80.6992 34.2471 79.6992M37.7471 79.6992V84.1992" stroke="black" stroke-width="0.5"/>
<path d="M21.749 81.1997C17.249 81.1997 12.749 81.6997 1.24897 78.6997V76.6997L5.24897 74.6997V73.1997L1.24897 72.6997C0.748047 71.1995 -0.251757 68.1995 1.74824 65.6995C1.24848 57.6995 1.74848 51.1995 3.74897 48.1992C36.249 28.6996 58.249 34.6997 84.249 30.1997C162.249 -24.8005 244.249 12.1994 281.249 26.6996L294.749 28.6995L295.249 35.6995V38.6995C296.747 43.6995 298.082 48.1995 296.749 50.1995C299.249 51.1995 301.749 54.3661 301.749 56.1995L299.749 66.1995C300.201 77.0474 297.793 77.2717 288.461 77.5841C287.47 77.6173 285.401 77.6515 284.249 77.6995V79.1995L259.249 79.6305M21.749 81.1997V84.1997H39.7473L39.249 79.6997M21.749 81.1997V79.6997H39.249M39.249 79.6997C36.249 38.1997 89.749 41.1997 86.249 80.1997V82.6995H212.749C206.749 39.1995 261.249 39.1995 259.249 79.6305M258.747 79.6305H259.249" stroke="black"/>
</svg>
