<svg width="303" height="96" viewBox="0 0 303 96" fill="none" xmlns="http://www.w3.org/2000/svg">
<circle cx="62.4697" cy="74.2297" r="20.5" fill="#E0426F" stroke="black"/>
<circle cx="235.47" cy="74.2297" r="20.5" fill="#E0426F" stroke="black"/>
<path d="M132.468 12.7296L130.968 9.22959C170.968 1.2297 192.468 1.72974 231.468 13.2297L227.968 17.7297C207.968 9.72965 189.968 8.72964 173.968 8.22971C171.468 7.72971 167.468 7.72968 164.968 8.22959C154.968 8.22971 142.968 9.72971 132.468 12.7296Z" fill="#E0426F" stroke="black" stroke-width="0.5"/>
<path d="M130.968 9.22978L130.468 7.72978C166.468 -3.27026 198.968 0.72961 234.468 9.72978L231.468 13.2298C191.468 0.729736 165.468 2.22974 130.968 9.22978Z" fill="#E0426F" stroke="black" stroke-width="0.5"/>
<path d="M130.968 9.2296C182.468 -2.27042 210.968 7.72961 231.468 13.2296" stroke="black" stroke-width="0.5"/>
<path d="M170.47 30.2297L173.97 8.22974C207.47 9.22974 218.97 14.7297 223.47 16.2297L225.952 28.2297C198.962 28.2304 181.467 29.7298 170.47 30.2297Z" fill="#E0426F"/>
<path d="M226.47 30.7297L223.47 16.2297C218.97 14.7297 207.47 9.22974 173.97 8.22974L170.47 30.2297C181.47 29.7297 198.97 28.2297 225.97 28.2297" stroke="black" stroke-width="0.5"/>
<path d="M164.97 8.22974C131.97 9.22974 111.97 18.2297 92.9697 35.7297L95.4697 33.7297L159.47 30.7297L164.97 8.22974Z" fill="#E0426F" stroke="black" stroke-width="0.5"/>
<path d="M239.468 22.7297C235.801 20.0631 229.968 17.7297 223.468 16.2297L225.968 28.2297H232.468C235.468 26.7297 238.468 24.4985 239.468 22.7297Z" fill="#E0426F" stroke="black" stroke-width="0.5"/>
<path d="M96.4697 78.7297H163.47L197.97 77.2297H212.47L212.97 82.7297H198.97H97.9697H86.4697V78.7297H96.4697Z" fill="#E0426F"/>
<path d="M96.4697 78.7297H163.47L197.97 77.2297M96.4697 78.7297C96.4697 80.2297 96.9697 81.2297 97.9697 82.7297M96.4697 78.7297H86.4697V82.7297H97.9697M197.97 77.2297L198.97 82.7297M197.97 77.2297H212.47L212.97 82.7297H198.97M198.97 82.7297H97.9697" stroke="black" stroke-width="0.5"/>
<path d="M96.4689 78.7297C91.9697 74.2297 88.9698 52.2297 92.9689 35.7297L164.97 31.7297C160.97 36.7297 159.97 70.7297 163.47 78.7297H96.4689Z" fill="#E0426F" stroke="black" stroke-width="0.5"/>
<path d="M228.47 30.7297L164.97 31.7297C160.97 36.7297 159.97 70.7297 163.47 78.7297L197.97 77.2297C202.47 75.7297 208.97 70.2297 228.47 30.7297Z" fill="#E0426F" stroke="black" stroke-width="0.5"/>
<path d="M170.47 30.2298C165.97 30.7298 162.47 30.7298 159.47 30.7298L164.97 8.22981C167.97 7.72974 170.97 7.72974 173.97 8.22981L170.47 30.2298Z" fill="#E0426F" stroke="black" stroke-width="0.5"/>
<path d="M98.9697 32.2297C103.47 37.7297 110.47 34.2297 114.47 32.7297C115.47 17.2296 102.47 25.2296 98.9697 32.2297Z" fill="#E0426F" stroke="black" stroke-width="0.5"/>
<path d="M234.468 9.72974L231.468 13.2297C248.468 18.7297 258.968 21.7297 271.468 28.2297H272.968L280.968 26.7297C265.968 20.2297 258.468 17.7297 234.468 9.72974Z" fill="#EDADBF" stroke="black" stroke-width="0.5"/>
<path d="M271.468 28.2297C260.968 22.7297 241.968 16.2297 231.468 13.2297L229.468 15.7297L244.468 23.2297C242.968 25.7297 238.968 27.7297 232.968 30.4297C244.968 29.7297 261.968 28.7297 271.468 28.2297Z" fill="#EDADBF" stroke="black" stroke-width="0.5"/>
<path d="M276.97 34.5297L282.968 32.2297L272.469 28.2297L228.469 30.7297C220.969 45.7297 205.969 76.2297 197.969 77.2297H212.469C210.969 66.2297 220.469 42.7297 245.47 51.7297C255.97 46.2297 265.97 40.7297 276.97 34.5297Z" fill="#EDADBF" stroke="black" stroke-width="0.5"/>
<path d="M277.968 34.2298C265.968 40.7298 255.968 46.2298 245.468 51.7298C249.968 54.7297 260.468 60.7297 259.468 79.7297L284.468 79.2297V77.7297C292.968 76.7297 301.468 80.2297 299.968 66.2297L301.968 56.2297C301.968 54.7297 299.468 50.7297 296.968 50.2297C298.468 47.7297 295.468 38.7297 295.468 38.7297V37.2297L291.468 34.2297L286.468 32.7297L282.968 32.2297L277.968 34.2298Z" fill="#EDADBF" stroke="black" stroke-width="0.5"/>
<path d="M280.968 26.7297L272.468 28.2297L282.968 32.2297C292.468 33.2297 291.467 34.7297 295.462 37.1499L294.968 28.7297L280.968 26.7297Z" fill="#EDADBF"/>
<path d="M295.468 37.2297L295.462 37.1499M295.462 37.1499L294.968 28.7297L280.968 26.7297L272.468 28.2297L282.968 32.2297C292.468 33.2297 291.467 34.7297 295.462 37.1499Z" stroke="black" stroke-width="0.5"/>
<path d="M293.97 36.7299C293.47 34.2298 282.47 34.0297 276.97 34.5297" stroke="black" stroke-width="0.5"/>
<path d="M299.97 66.7297L260.47 68.7297C259.97 63.7297 257.803 59.5631 255.97 57.7297L301.97 55.2297M300.47 52.7297C289.47 51.2297 278.47 46.4297 266.47 40.4297M228.47 30.7297L272.47 28.2297L280.97 26.7297" stroke="black" stroke-width="0.5"/>
<path d="M290.47 40.7297C290.47 38.7297 289.47 34.7297 285.97 32.7297C288.191 32.7297 291.567 33.7701 294.079 36.1397C294.542 37.6697 293.47 41.2297 290.428 42.7297C290.414 42.1395 290.47 41.454 290.47 40.7297Z" fill="#EDADBF"/>
<path d="M272.47 43.2297C279.465 43.5795 285.482 43.6846 290.863 44.2297M297.47 45.2297C295.367 44.7791 293.173 44.4638 290.863 44.2297M295.47 37.7297C295.052 37.1446 294.583 36.6154 294.079 36.1397M290.863 44.2297C290.537 43.885 290.443 43.3619 290.428 42.7297M290.428 42.7297C290.414 42.1395 290.47 41.454 290.47 40.7297C290.47 38.7297 289.47 34.7297 285.97 32.7297C288.191 32.7297 291.567 33.7701 294.079 36.1397M290.428 42.7297C293.47 41.2297 294.542 37.6697 294.079 36.1397" stroke="black" stroke-width="0.5"/>
<path d="M290.47 40.7297C285.97 40.7297 283.97 36.7297 282.97 34.2297" stroke="black" stroke-width="0.5"/>
<path d="M132.468 12.8297C118.968 16.8297 106.968 22.7297 92.9678 35.7297C99.9678 23.7297 115.468 14.2297 130.968 9.22974L132.468 12.8297Z" fill="#E0426F" stroke="black" stroke-width="0.5"/>
<path d="M130.968 9.22974C110.968 14.9038 92.9678 32.2297 84.9678 30.2297C97.9678 20.7297 113.968 12.2297 130.468 7.72974L130.968 9.22974Z" fill="#E0426F" stroke="black" stroke-width="0.5"/>
<path d="M9.96844 48.2296H3.96844C1.46777 52.2296 1.46777 62.2296 1.96844 65.7296C0.467773 66.7296 0.468371 71.2296 1.46844 72.7296L5.46844 73.2296V74.7296L1.46844 76.7296V78.7296C5.46844 79.7296 13.9684 81.7296 21.9684 81.2296V79.7296H39.4684C38.8018 71.2296 40.4684 60.7296 49.4684 53.7296C46.9684 49.7296 39.9684 45.2296 36.9684 44.7296C26.9684 43.7296 11.9684 46.2296 9.96844 48.2296Z" fill="#E0426F" stroke="black" stroke-width="0.5"/>
<path d="M92.9697 35.7297C75.1364 36.5631 43.4697 41.4297 32.9697 44.4297L36.9697 44.7297C41.9697 46.2297 47.4697 50.5631 49.4697 53.7297C62.4688 44.2297 87.9688 51.2297 86.4688 78.7297H96.4688C89.4688 67.7297 90.4688 45.7297 92.9697 35.7297Z" fill="#E0426F" stroke="black" stroke-width="0.5"/>
<path d="M9.96777 48.2298H3.96777C36.468 28.7297 58.468 34.7297 84.4678 30.2297L93.468 35.7297C76.468 36.7297 47.4678 40.2297 33.4678 44.4297C25.4678 44.2297 11.4678 46.2297 9.96777 48.2298Z" fill="#E0426F" stroke="black" stroke-width="0.5"/>
<path d="M36.9692 44.7298C29.4692 43.7297 12.4692 45.7297 9.96923 48.2298C9.16923 50.6298 12.3026 53.5631 13.9692 54.7297C23.4692 56.2297 36.9692 50.2297 36.9692 44.7298Z" fill="#E0426F" stroke="black" stroke-width="0.5"/>
<path d="M3.96847 48.2297C10.9685 49.2297 4.96847 59.7297 1.96847 64.7297C1.4684 57.7297 1.96826 52.2297 3.96847 48.2297Z" fill="#E0426F" stroke="black" stroke-width="0.5"/>
<path d="M21.9678 84.2297V79.7297H39.4678L39.9678 84.2297H21.9678Z" fill="#E0426F" stroke="black" stroke-width="0.5"/>
<path d="M2.46973 65.7295C3.96973 68.2295 5.96973 71.3962 5.46973 73.2295M21.9697 79.7295C11.4697 80.2295 6.96973 76.2295 7.96973 72.7295C8.46973 72.2295 9.96973 70.7295 10.9697 70.7295" stroke="black" stroke-width="0.5"/>
<path d="M31.9697 74.7296C29.4697 70.7296 23.9697 65.7297 20.9697 64.2297C19.2197 63.7297 16.5946 63.8547 13.8445 64.2297C12.2196 65.563 10.9697 68.7296 11.4697 71.7296C11.4697 72.8963 12.7771 75.2296 15.4697 75.2296C19.9697 75.2296 26.9697 75.7296 31.9697 74.7296Z" fill="#E0426F"/>
<path d="M5.96973 65.7297C8.21967 65.2297 11.0946 64.6047 13.8445 64.2297M13.8445 64.2297C16.5946 63.8547 19.2197 63.7297 20.9697 64.2297C23.9697 65.7297 29.4697 70.7296 31.9697 74.7296C26.9697 75.7296 19.9697 75.2296 15.4697 75.2296C12.7771 75.2296 11.4697 72.8963 11.4697 71.7296C10.9697 68.7296 12.2196 65.563 13.8445 64.2297Z" stroke="black" stroke-width="0.5"/>
<path d="M11.4697 71.2297C19.4697 69.7297 22.9697 72.3582 25.9697 73.8582M12.9697 74.2297L30.4697 73.7297" stroke="black" stroke-width="0.5"/>
<path d="M21.9678 82.7295H31.4678C33.4678 82.7295 34.9678 80.7295 34.4678 79.7295M37.9678 79.7295V84.2295" stroke="black" stroke-width="0.5"/>
<path d="M21.9697 81.23C17.4697 81.23 12.9697 81.73 1.46967 78.73V76.73L5.46967 74.73V73.23L1.46967 72.73C0.96875 71.2297 -0.0310541 68.2297 1.96894 65.7297C1.46918 57.7297 1.96918 51.2297 3.96967 48.2295C36.4697 28.7299 58.4697 34.7299 84.4697 30.2299C162.47 -24.7702 244.47 12.2297 281.47 26.7299L294.97 28.7297L295.47 35.7297V38.7297C296.968 43.7297 298.303 48.2297 296.97 50.2297C299.47 51.2297 301.97 54.3964 301.97 56.2297L299.97 66.2297C300.422 77.0776 298.013 77.3019 288.682 77.6144C287.691 77.6476 285.622 77.6817 284.47 77.7297V79.2297L259.47 79.6608M21.9697 81.23V84.23H39.968L39.4697 79.73M21.9697 81.23V79.73H39.4697M39.4697 79.73C36.4697 38.23 89.9697 41.23 86.4697 80.23V82.7297H212.97C206.97 39.2297 261.47 39.2297 259.47 79.6608M258.968 79.6608H259.47" stroke="black"/>
</svg>
