<svg width="304" height="96" viewBox="0 0 304 96" fill="none" xmlns="http://www.w3.org/2000/svg">
<circle cx="63.0635" cy="74.1692" r="20.5" fill="#EDADBF" stroke="black"/>
<circle cx="236.063" cy="74.1692" r="20.5" fill="#EDADBF" stroke="black"/>
<path d="M133.062 12.669L131.562 9.16904C171.562 1.16916 193.062 1.66919 232.062 13.1691L228.562 17.6691C208.562 9.6691 190.562 8.6691 174.562 8.16917C172.062 7.66917 168.062 7.66913 165.562 8.16904C155.562 8.16917 143.562 9.66917 133.062 12.669Z" stroke="black" stroke-width="0.5"/>
<path d="M131.562 9.16923L131.062 7.66923C167.062 -3.33081 199.562 0.669064 235.062 9.66924L232.062 13.1692C192.062 0.669189 166.062 2.16919 131.562 9.16923Z" stroke="black" stroke-width="0.5"/>
<path d="M131.562 9.16918C183.062 -2.33085 211.562 7.66919 232.062 13.1692" stroke="black" stroke-width="0.5"/>
<path d="M227.063 30.6692L224.063 16.1692C219.563 14.6692 208.063 9.16919 174.563 8.16919L171.063 30.1692C182.063 29.6692 199.563 28.1692 226.563 28.1692" stroke="black" stroke-width="0.5"/>
<path d="M165.563 8.16919C132.563 9.16919 112.563 18.1692 93.5635 35.6692L96.0635 33.6692L160.063 30.6692L165.563 8.16919Z" stroke="black" stroke-width="0.5"/>
<path d="M240.062 22.6692C236.395 20.0025 230.562 17.6692 224.062 16.1692L226.562 28.1692H233.062C236.062 26.6692 239.062 24.4379 240.062 22.6692Z" stroke="black" stroke-width="0.5"/>
<path d="M97.0635 78.6692H164.063L198.563 77.1692M97.0635 78.6692C97.0635 80.1692 97.5635 81.1692 98.5635 82.6692M97.0635 78.6692H87.0635V82.6692H98.5635M198.563 77.1692L199.563 82.6692M198.563 77.1692H213.063L213.563 82.6692H199.563M199.563 82.6692H98.5635" stroke="black" stroke-width="0.5"/>
<path d="M97.0626 78.6692C92.5635 74.1692 89.5635 52.1692 93.5626 35.6692L165.563 31.6692C161.563 36.6692 160.563 70.6692 164.063 78.6692H97.0626Z" stroke="black" stroke-width="0.5"/>
<path d="M229.063 30.6692L165.563 31.6692C161.564 36.6692 160.564 70.6692 164.063 78.6692L198.563 77.1692C203.063 75.6692 209.563 70.1692 229.063 30.6692Z" stroke="black" stroke-width="0.5"/>
<path d="M171.063 30.1693C166.563 30.6693 163.063 30.6693 160.063 30.6693L165.563 8.16926C168.563 7.66919 171.563 7.66919 174.563 8.16926L171.063 30.1693Z" stroke="black" stroke-width="0.5"/>
<path d="M99.5635 32.1693C104.063 37.6693 111.063 34.1693 115.063 32.6693C116.063 17.1692 103.063 25.1692 99.5635 32.1693Z" stroke="black" stroke-width="0.5"/>
<path d="M235.062 9.66919L232.062 13.1692C249.062 18.6692 259.562 21.6692 272.062 28.1692H273.562L281.562 26.6692C266.562 20.1692 259.062 17.6692 235.062 9.66919Z" fill="#E56E90" stroke="black" stroke-width="0.5"/>
<path d="M272.062 28.1692C261.562 22.6692 242.562 16.1692 232.062 13.1692L230.062 15.6692L245.062 23.1692C243.562 25.6692 239.562 27.6692 233.562 30.3692C245.562 29.6692 262.562 28.6692 272.062 28.1692Z" fill="#E56E90" stroke="black" stroke-width="0.5"/>
<path d="M277.563 34.4692L283.562 32.1692L273.062 28.1692L229.062 30.6692C221.562 45.6692 206.562 76.1692 198.562 77.1692H213.062C211.562 66.1692 221.062 42.6692 246.063 51.6692C256.563 46.1692 266.563 40.6692 277.563 34.4692Z" fill="#E56E90" stroke="black" stroke-width="0.5"/>
<path d="M278.562 34.1692C266.562 40.6692 256.562 46.1692 246.062 51.6692C250.562 54.6692 261.062 60.6692 260.062 79.6692L285.062 79.1692V77.6692C293.562 76.6692 302.062 80.1692 300.562 66.1692L302.562 56.1692C302.562 54.6692 300.062 50.6692 297.562 50.1692C299.062 47.6692 296.062 38.6692 296.062 38.6692V37.1692L292.062 34.1692L287.062 32.6692L283.562 32.1692L278.562 34.1692Z" fill="#E56E90" stroke="black" stroke-width="0.5"/>
<path d="M281.562 26.6692L273.062 28.1692L283.562 32.1692C293.062 33.1692 292.06 34.6692 296.056 37.0894L295.562 28.6692L281.562 26.6692Z" fill="#E56E90"/>
<path d="M296.062 37.1692L296.056 37.0894M296.056 37.0894L295.562 28.6692L281.562 26.6692L273.062 28.1692L283.562 32.1692C293.062 33.1692 292.06 34.6692 296.056 37.0894Z" stroke="black" stroke-width="0.5"/>
<path d="M294.563 36.6694C294.063 34.1693 283.063 33.9692 277.563 34.4692" stroke="black" stroke-width="0.5"/>
<path d="M300.563 66.6692L261.063 68.6692C260.563 63.6692 258.397 59.5025 256.563 57.6692L302.563 55.1692M301.063 52.6692C290.063 51.1692 279.063 46.3692 267.063 40.3692M229.063 30.6692L273.063 28.1692L281.563 26.6692" stroke="black" stroke-width="0.5"/>
<path d="M291.063 40.6692C291.063 38.6692 290.063 34.6692 286.563 32.6692C288.784 32.6692 292.161 33.7096 294.672 36.0792C295.136 37.6092 294.063 41.1692 291.022 42.6692C291.008 42.0789 291.063 41.3935 291.063 40.6692Z" fill="#E56E90"/>
<path d="M273.063 43.1692C280.059 43.519 286.076 43.6241 291.457 44.1692M298.063 45.1692C295.96 44.7185 293.767 44.4033 291.457 44.1692M296.063 37.6692C295.646 37.0841 295.176 36.5548 294.672 36.0792M291.457 44.1692C291.13 43.8244 291.036 43.3014 291.022 42.6692M291.022 42.6692C291.008 42.0789 291.063 41.3935 291.063 40.6692C291.063 38.6692 290.063 34.6692 286.563 32.6692C288.784 32.6692 292.161 33.7096 294.672 36.0792M291.022 42.6692C294.063 41.1692 295.136 37.6092 294.672 36.0792" stroke="black" stroke-width="0.5"/>
<path d="M291.063 40.6692C286.563 40.6692 284.563 36.6692 283.563 34.1692" stroke="black" stroke-width="0.5"/>
<path d="M133.062 12.7692C119.562 16.7692 107.562 22.6692 93.5615 35.6692C100.562 23.6692 116.062 14.1692 131.562 9.16919L133.062 12.7692Z" stroke="black" stroke-width="0.5"/>
<path d="M131.562 9.16919C111.562 14.8432 93.5615 32.1692 85.5615 30.1692C98.5615 20.6692 114.562 12.1692 131.062 7.66919L131.562 9.16919Z" stroke="black" stroke-width="0.5"/>
<path d="M10.5622 48.1692H4.56219C2.06152 52.1692 2.06152 62.1692 2.56219 65.6692C1.06152 66.6692 1.06212 71.1692 2.06219 72.6692L6.06219 73.1692V74.6692L2.06219 76.6692V78.6692C6.06219 79.6692 14.5622 81.6692 22.5622 81.1692V79.6692H40.0622C39.3955 71.1692 41.0622 60.6692 50.0622 53.6692C47.5622 49.6692 40.5622 45.1692 37.5622 44.6692C27.5622 43.6692 12.5622 46.1692 10.5622 48.1692Z" stroke="black" stroke-width="0.5"/>
<path d="M93.5635 35.6692C75.7301 36.5025 44.0635 41.3692 33.5635 44.3692L37.5635 44.6692C42.5635 46.1692 48.0635 50.5025 50.0635 53.6692C63.0625 44.1692 88.5625 51.1692 87.0625 78.6692H97.0625C90.0625 67.6692 91.0625 45.6692 93.5635 35.6692Z" stroke="black" stroke-width="0.5"/>
<path d="M10.5615 48.1692H4.56152C37.0617 28.6691 59.0618 34.6692 85.0615 30.1692L94.0618 35.6692C77.0618 36.6692 48.0615 40.1692 34.0615 44.3692C26.0615 44.1692 12.0615 46.1692 10.5615 48.1692Z" stroke="black" stroke-width="0.5"/>
<path d="M37.563 44.6693C30.063 43.6692 13.063 45.6692 10.563 48.1693C9.76298 50.5692 12.8963 53.5025 14.563 54.6692C24.063 56.1692 37.563 50.1692 37.563 44.6693Z" stroke="black" stroke-width="0.5"/>
<path d="M4.56222 48.1692C11.5622 49.1692 5.56222 59.6692 2.56222 64.6692C2.06215 57.6692 2.56201 52.1692 4.56222 48.1692Z" stroke="black" stroke-width="0.5"/>
<path d="M22.5615 84.1692V79.6692H40.0615L40.5615 84.1692H22.5615Z" stroke="black" stroke-width="0.5"/>
<path d="M3.06348 65.6692C4.56348 68.1692 6.56348 71.3359 6.06348 73.1692M22.5635 79.6692C12.0635 80.1692 7.56348 76.1692 8.56348 72.6692C9.06348 72.1692 10.5635 70.6692 11.5635 70.6692" stroke="black" stroke-width="0.5"/>
<path d="M6.56348 65.6693C8.81342 65.1692 11.6883 64.5443 14.4383 64.1693M14.4383 64.1693C17.1883 63.7943 19.8134 63.6693 21.5635 64.1693C24.5635 65.6693 30.0635 70.6692 32.5635 74.6692C27.5635 75.6692 20.5635 75.1692 16.0635 75.1692C13.3709 75.1692 12.0635 72.8359 12.0635 71.6692C11.5635 68.6692 12.8133 65.5026 14.4383 64.1693Z" stroke="black" stroke-width="0.5"/>
<path d="M12.0635 71.1693C20.0635 69.6693 23.5635 72.2978 26.5635 73.7978M13.5635 74.1693L31.0635 73.6693" stroke="black" stroke-width="0.5"/>
<path d="M22.5615 82.6692H32.0615C34.0615 82.6692 35.5615 80.6692 35.0615 79.6692M38.5615 79.6692V84.1692" stroke="black" stroke-width="0.5"/>
<path d="M22.5634 81.1694C18.0634 81.1694 13.5634 81.6694 2.06342 78.6694V76.6694L6.06342 74.6694V73.1694L2.06342 72.6694C1.5625 71.1692 0.562696 68.1692 2.56269 65.6692C2.06293 57.6692 2.56293 51.1692 4.56342 48.1689C37.0634 28.6693 59.0634 34.6694 85.0634 30.1694C163.063 -24.8307 245.063 12.1692 282.063 26.6694L295.563 28.6692L296.063 35.6692V38.6692C297.562 43.6692 298.897 48.1692 297.563 50.1692C300.063 51.1692 302.563 54.3359 302.563 56.1692L300.563 66.1692C301.015 77.0171 298.607 77.2414 289.276 77.5538C288.285 77.587 286.216 77.6212 285.063 77.6692V79.1692L260.063 79.6002M22.5634 81.1694V84.1694H40.5618L40.0634 79.6694M22.5634 81.1694V79.6694H40.0634M40.0634 79.6694C37.0634 38.1694 90.5634 41.1694 87.0634 80.1694V82.6692H213.563C207.563 39.1692 262.063 39.1692 260.063 79.6002M259.562 79.6002H260.063" stroke="black"/>
</svg>
