<svg width="303" height="95" viewBox="0 0 303 95" fill="none" xmlns="http://www.w3.org/2000/svg">
<circle cx="62.876" cy="73.8762" r="20.5" fill="#EFC7D3" stroke="black"/>
<circle cx="235.876" cy="73.8762" r="20.5" fill="#EFC7D3" stroke="black"/>
<path d="M132.874 12.3761L131.374 8.87608C171.374 0.876188 192.874 1.37622 231.874 12.8762L228.374 17.3762C208.374 9.37613 190.374 8.37613 174.374 7.8762C171.874 7.3762 167.874 7.37616 165.374 7.87608C155.374 7.8762 143.374 9.3762 132.874 12.3761Z" fill="#E56E90" stroke="black" stroke-width="0.5"/>
<path d="M131.374 8.87627L130.874 7.37626C166.874 -3.62378 199.374 0.376095 234.874 9.37627L231.874 12.8763C191.874 0.376221 165.874 1.87622 131.374 8.87627Z" fill="#E56E90" stroke="black" stroke-width="0.5"/>
<path d="M131.374 8.87609C182.874 -2.62394 211.374 7.3761 231.874 12.8761" stroke="black" stroke-width="0.5"/>
<path d="M170.876 29.8762L174.376 7.87622C207.876 8.87622 219.376 14.3762 223.876 15.8762L226.359 27.8762C199.369 27.8769 181.874 29.3763 170.876 29.8762Z" fill="#E56E90"/>
<path d="M226.876 30.3762L223.876 15.8762C219.376 14.3762 207.876 8.87622 174.376 7.87622L170.876 29.8762C181.876 29.3762 199.376 27.8762 226.376 27.8762" stroke="black" stroke-width="0.5"/>
<path d="M165.376 7.87622C132.376 8.87622 112.376 17.8762 93.376 35.3762L95.876 33.3762L159.876 30.3762L165.376 7.87622Z" fill="#E56E90" stroke="black" stroke-width="0.5"/>
<path d="M239.874 22.3762C236.207 19.7096 230.374 17.3762 223.874 15.8762L226.374 27.8762H232.874C235.874 26.3762 238.874 24.145 239.874 22.3762Z" fill="#E56E90" stroke="black" stroke-width="0.5"/>
<path d="M96.876 78.3762H163.876L198.376 76.8762H212.876L213.376 82.3762H199.376H98.376H86.876V78.3762H96.876Z" fill="#E56E90"/>
<path d="M96.876 78.3762H163.876L198.376 76.8762M96.876 78.3762C96.876 79.8762 97.376 80.8762 98.376 82.3762M96.876 78.3762H86.876V82.3762H98.376M198.376 76.8762L199.376 82.3762M198.376 76.8762H212.876L213.376 82.3762H199.376M199.376 82.3762H98.376" stroke="black" stroke-width="0.5"/>
<path d="M96.8751 78.3762C92.376 73.8762 89.376 51.8762 93.3751 35.3762L165.376 31.3762C161.376 36.3762 160.376 70.3762 163.876 78.3762H96.8751Z" fill="#E56E90" stroke="black" stroke-width="0.5"/>
<path d="M228.876 30.3762L165.376 31.3762C161.376 36.3762 160.376 70.3762 163.876 78.3762L198.376 76.8762C202.876 75.3762 209.376 69.8762 228.876 30.3762Z" fill="#E56E90" stroke="black" stroke-width="0.5"/>
<path d="M170.876 29.8763C166.376 30.3763 162.876 30.3763 159.876 30.3763L165.376 7.87629C168.376 7.37622 171.376 7.37622 174.376 7.87629L170.876 29.8763Z" fill="#E56E90" stroke="black" stroke-width="0.5"/>
<path d="M99.376 31.8762C103.876 37.3762 110.876 33.8762 114.876 32.3762C115.876 16.8761 102.876 24.8761 99.376 31.8762Z" fill="#E56E90" stroke="black" stroke-width="0.5"/>
<path d="M234.874 9.37622L231.874 12.8762C248.874 18.3762 259.374 21.3762 271.874 27.8762H273.374L281.374 26.3762C266.374 19.8762 258.874 17.3762 234.874 9.37622Z" fill="#EDADBF" stroke="black" stroke-width="0.5"/>
<path d="M271.874 27.8762C261.374 22.3762 242.374 15.8762 231.874 12.8762L229.874 15.3762L244.874 22.8762C243.374 25.3762 239.374 27.3762 233.374 30.0762C245.374 29.3762 262.374 28.3762 271.874 27.8762Z" fill="#EDADBF" stroke="black" stroke-width="0.5"/>
<path d="M277.376 34.1762L283.374 31.8762L272.875 27.8762L228.875 30.3762C221.375 45.3762 206.375 75.8762 198.375 76.8762H212.875C211.375 65.8762 220.875 42.3762 245.876 51.3762C256.376 45.8762 266.376 40.3762 277.376 34.1762Z" fill="#EDADBF" stroke="black" stroke-width="0.5"/>
<path d="M278.374 33.8762C266.374 40.3762 256.374 45.8762 245.874 51.3762C250.374 54.3762 260.874 60.3762 259.874 79.3762L284.874 78.8762V77.3762C293.374 76.3762 301.874 79.8762 300.374 65.8762L302.374 55.8762C302.374 54.3762 299.874 50.3762 297.374 49.8762C298.874 47.3762 295.874 38.3762 295.874 38.3762V36.8762L291.874 33.8762L286.874 32.3762L283.374 31.8762L278.374 33.8762Z" fill="#EDADBF" stroke="black" stroke-width="0.5"/>
<path d="M281.374 26.3762L272.874 27.8762L283.374 31.8762C292.874 32.8762 291.873 34.3762 295.868 36.7964L295.374 28.3762L281.374 26.3762Z" fill="#EDADBF"/>
<path d="M295.874 36.8762L295.868 36.7964M295.868 36.7964L295.374 28.3762L281.374 26.3762L272.874 27.8762L283.374 31.8762C292.874 32.8762 291.873 34.3762 295.868 36.7964Z" stroke="black" stroke-width="0.5"/>
<path d="M294.376 36.3764C293.876 33.8763 282.876 33.6762 277.376 34.1762" stroke="black" stroke-width="0.5"/>
<path d="M300.376 66.3762L260.876 68.3762C260.376 63.3762 258.209 59.2096 256.376 57.3762L302.376 54.8762M300.876 52.3762C289.876 50.8762 278.876 46.0762 266.876 40.0762M228.876 30.3762L272.876 27.8762L281.376 26.3762" stroke="black" stroke-width="0.5"/>
<path d="M290.876 40.3762C290.876 38.3762 289.876 34.3762 286.376 32.3762C288.597 32.3762 291.974 33.4166 294.485 35.7862C294.949 37.3162 293.876 40.8762 290.834 42.3762C290.821 41.7859 290.876 41.1005 290.876 40.3762Z" fill="#EDADBF"/>
<path d="M272.876 42.8762C279.872 43.226 285.889 43.3311 291.269 43.8762M297.876 44.8762C295.773 44.4256 293.58 44.1103 291.269 43.8762M295.876 37.3762C295.458 36.7911 294.989 36.2619 294.485 35.7862M291.269 43.8762C290.943 43.5315 290.849 43.0084 290.834 42.3762M290.834 42.3762C290.821 41.7859 290.876 41.1005 290.876 40.3762C290.876 38.3762 289.876 34.3762 286.376 32.3762C288.597 32.3762 291.974 33.4166 294.485 35.7862M290.834 42.3762C293.876 40.8762 294.949 37.3162 294.485 35.7862" stroke="black" stroke-width="0.5"/>
<path d="M290.876 40.3762C286.376 40.3762 284.376 36.3762 283.376 33.8762" stroke="black" stroke-width="0.5"/>
<path d="M132.874 12.4762C119.374 16.4762 107.374 22.3762 93.374 35.3762C100.374 23.3762 115.874 13.8762 131.374 8.87622L132.874 12.4762Z" fill="#EFC7D3" stroke="black" stroke-width="0.5"/>
<path d="M131.374 8.87622C111.374 14.5503 93.374 31.8762 85.374 29.8762C98.374 20.3762 114.374 11.8762 130.874 7.37622L131.374 8.87622Z" fill="#EFC7D3" stroke="black" stroke-width="0.5"/>
<path d="M10.3747 47.8761H4.37469C1.87402 51.8761 1.87402 61.8761 2.37469 65.3761C0.874023 66.3761 0.874621 70.8761 1.87469 72.3761L5.87469 72.8761V74.3761L1.87469 76.3761V78.3761C5.87469 79.3761 14.3747 81.3761 22.3747 80.8761V79.3761H39.8747C39.208 70.8761 40.8747 60.3761 49.8747 53.3761C47.3747 49.3761 40.3747 44.8761 37.3747 44.3761C27.3747 43.3761 12.3747 45.8761 10.3747 47.8761Z" fill="#EFC7D3" stroke="black" stroke-width="0.5"/>
<path d="M93.376 35.3762C75.5426 36.2096 43.876 41.0762 33.376 44.0762L37.376 44.3762C42.376 45.8762 47.876 50.2096 49.876 53.3762C62.875 43.8762 88.375 50.8762 86.875 78.3762H96.875C89.875 67.3762 90.875 45.3762 93.376 35.3762Z" fill="#EFC7D3" stroke="black" stroke-width="0.5"/>
<path d="M10.374 47.8763H4.37402C36.8742 28.3762 58.8743 34.3762 84.874 29.8762L93.8743 35.3762C76.8743 36.3762 47.874 39.8762 33.874 44.0762C25.874 43.8762 11.874 45.8762 10.374 47.8763Z" fill="#EFC7D3" stroke="black" stroke-width="0.5"/>
<path d="M37.3755 44.3763C29.8755 43.3762 12.8755 45.3762 10.3755 47.8763C9.57548 50.2762 12.7088 53.2096 14.3755 54.3762C23.8755 55.8762 37.3755 49.8762 37.3755 44.3763Z" fill="#EFC7D3" stroke="black" stroke-width="0.5"/>
<path d="M4.37472 47.8762C11.3747 48.8762 5.37472 59.3762 2.37472 64.3762C1.87465 57.3762 2.37451 51.8762 4.37472 47.8762Z" fill="#EFC7D3" stroke="black" stroke-width="0.5"/>
<path d="M22.374 83.8762V79.3762H39.874L40.374 83.8762H22.374Z" fill="#EFC7D3" stroke="black" stroke-width="0.5"/>
<path d="M2.87598 65.376C4.37598 67.876 6.37598 71.0426 5.87598 72.876M22.376 79.376C11.876 79.876 7.37598 75.876 8.37598 72.376C8.87598 71.876 10.376 70.376 11.376 70.376" stroke="black" stroke-width="0.5"/>
<path d="M32.376 74.3761C29.876 70.3761 24.376 65.3762 21.376 63.8762C19.6259 63.3762 17.0008 63.5012 14.2508 63.8762C12.6258 65.2095 11.376 68.3761 11.876 71.3761C11.876 72.5428 13.1834 74.8761 15.876 74.8761C20.376 74.8761 27.376 75.3761 32.376 74.3761Z" fill="#EFC7D3"/>
<path d="M6.37598 65.3762C8.62592 64.8762 11.5008 64.2512 14.2508 63.8762M14.2508 63.8762C17.0008 63.5012 19.6259 63.3762 21.376 63.8762C24.376 65.3762 29.876 70.3761 32.376 74.3761C27.376 75.3761 20.376 74.8761 15.876 74.8761C13.1834 74.8761 11.876 72.5428 11.876 71.3761C11.376 68.3761 12.6258 65.2095 14.2508 63.8762Z" stroke="black" stroke-width="0.5"/>
<path d="M11.876 70.8762C19.876 69.3762 23.376 72.0047 26.376 73.5047M13.376 73.8762L30.876 73.3762" stroke="black" stroke-width="0.5"/>
<path d="M22.374 82.376H31.874C33.874 82.376 35.374 80.376 34.874 79.376M38.374 79.376V83.876" stroke="black" stroke-width="0.5"/>
<path d="M22.3759 80.8765C17.8759 80.8765 13.3759 81.3765 1.87592 78.3765V76.3765L5.87592 74.3765V72.8765L1.87592 72.3765C1.375 70.8762 0.375196 67.8762 2.37519 65.3762C1.87543 57.3762 2.37543 50.8762 4.37592 47.876C36.8759 28.3764 58.8759 34.3764 84.8759 29.8764C162.876 -25.1237 244.876 11.8762 281.876 26.3764L295.376 28.3762L295.876 35.3762V38.3762C297.374 43.3762 298.709 47.8762 297.376 49.8762C299.876 50.8762 302.376 54.0429 302.376 55.8762L300.376 65.8762C300.828 76.7241 298.42 76.9484 289.088 77.2609C288.097 77.294 286.028 77.3282 284.876 77.3762V78.8762L259.876 79.3073M22.3759 80.8765V83.8765H40.3743L39.8759 79.3765M22.3759 80.8765V79.3765H39.8759M39.8759 79.3765C36.8759 37.8765 90.3759 40.8765 86.8759 79.8765V82.3762H213.376C207.376 38.8762 261.876 38.8762 259.876 79.3073M259.374 79.3073H259.876" stroke="black"/>
</svg>
