<svg width="304" height="95" viewBox="0 0 304 95" fill="none" xmlns="http://www.w3.org/2000/svg">
<circle cx="63.0938" cy="73.707" r="20.5" fill="#EDADBF" stroke="black"/>
<circle cx="236.094" cy="73.707" r="20.5" fill="#EDADBF" stroke="black"/>
<path d="M133.092 12.2069L131.592 8.70689C171.592 0.706999 193.092 1.20703 232.092 12.707L228.592 17.207C208.592 9.20694 190.592 8.20694 174.592 7.70701C172.092 7.20701 168.092 7.20697 165.592 7.70689C155.592 7.70701 143.592 9.20701 133.092 12.2069Z" fill="#E56E90" stroke="black" stroke-width="0.5"/>
<path d="M131.592 8.70708L131.092 7.20708C167.092 -3.79297 199.592 0.206905 235.092 9.20708L232.092 12.7071C192.092 0.207031 166.092 1.70703 131.592 8.70708Z" fill="#E56E90" stroke="black" stroke-width="0.5"/>
<path d="M131.592 8.70714C183.092 -2.79288 211.592 7.20715 232.092 12.7071" stroke="black" stroke-width="0.5"/>
<path d="M171.094 29.707L174.594 7.70703C208.094 8.70703 219.594 14.207 224.094 15.707L226.577 27.707C199.586 27.7077 182.091 29.2071 171.094 29.707Z" fill="#E56E90"/>
<path d="M227.094 30.207L224.094 15.707C219.594 14.207 208.094 8.70703 174.594 7.70703L171.094 29.707C182.094 29.207 199.594 27.707 226.594 27.707" stroke="black" stroke-width="0.5"/>
<path d="M165.594 7.70703C132.594 8.70703 112.594 17.707 93.5938 35.207L96.0938 33.207L160.094 30.207L165.594 7.70703Z" fill="#E56E90" stroke="black" stroke-width="0.5"/>
<path d="M240.092 22.207C236.425 19.5404 230.592 17.207 224.092 15.707L226.592 27.707H233.092C236.092 26.207 239.092 23.9758 240.092 22.207Z" fill="#E56E90" stroke="black" stroke-width="0.5"/>
<path d="M97.0938 78.207H164.094L198.594 76.707H213.094L213.594 82.207H199.594H98.5938H87.0938V78.207H97.0938Z" fill="#E56E90"/>
<path d="M97.0938 78.207H164.094L198.594 76.707M97.0938 78.207C97.0938 79.707 97.5938 80.707 98.5938 82.207M97.0938 78.207H87.0938V82.207H98.5938M198.594 76.707L199.594 82.207M198.594 76.707H213.094L213.594 82.207H199.594M199.594 82.207H98.5938" stroke="black" stroke-width="0.5"/>
<path d="M97.0929 78.207C92.5937 73.707 89.5938 51.707 93.5929 35.207L165.594 31.207C161.594 36.207 160.594 70.207 164.094 78.207H97.0929Z" fill="#E56E90" stroke="black" stroke-width="0.5"/>
<path d="M229.094 30.207L165.594 31.207C161.594 36.207 160.594 70.207 164.094 78.207L198.594 76.707C203.094 75.207 209.594 69.707 229.094 30.207Z" fill="#E56E90" stroke="black" stroke-width="0.5"/>
<path d="M171.094 29.7071C166.594 30.2071 163.094 30.2071 160.094 30.2071L165.594 7.70711C168.594 7.20703 171.594 7.20703 174.594 7.70711L171.094 29.7071Z" fill="#E56E90" stroke="black" stroke-width="0.5"/>
<path d="M99.5938 31.7073C104.094 37.2073 111.094 33.7073 115.094 32.2073C116.094 16.7072 103.094 24.7072 99.5938 31.7073Z" fill="#E56E90" stroke="black" stroke-width="0.5"/>
<path d="M235.092 9.20703L232.092 12.707C249.092 18.207 259.592 21.207 272.092 27.707H273.592L281.592 26.207C266.592 19.707 259.092 17.207 235.092 9.20703Z" stroke="black" stroke-width="0.5"/>
<path d="M272.092 27.707C261.592 22.207 242.592 15.707 232.092 12.707L230.092 15.207L245.092 22.707C243.592 25.207 239.592 27.207 233.592 29.907C245.592 29.207 262.592 28.207 272.092 27.707Z" stroke="black" stroke-width="0.5"/>
<path d="M277.594 34.007L283.592 31.707L273.093 27.707L229.093 30.207C221.593 45.207 206.593 75.707 198.593 76.707H213.093C211.593 65.707 221.093 42.207 246.094 51.207C256.594 45.707 266.594 40.207 277.594 34.007Z" stroke="black" stroke-width="0.5"/>
<path d="M278.592 33.7071C266.592 40.2071 256.592 45.7071 246.092 51.2071C250.592 54.207 261.092 60.207 260.092 79.207L285.092 78.707V77.207C293.592 76.207 302.092 79.707 300.592 65.707L302.592 55.707C302.592 54.207 300.092 50.207 297.592 49.707C299.092 47.207 296.092 38.207 296.092 38.207V36.707L292.092 33.707L287.092 32.207L283.592 31.707L278.592 33.7071Z" stroke="black" stroke-width="0.5"/>
<path d="M296.092 36.707L296.086 36.6272M296.086 36.6272L295.592 28.207L281.592 26.207L273.092 27.707L283.592 31.707C293.092 32.707 292.091 34.207 296.086 36.6272Z" stroke="black" stroke-width="0.5"/>
<path d="M294.594 36.2072C294.094 33.7071 283.094 33.507 277.594 34.007" stroke="black" stroke-width="0.5"/>
<path d="M300.594 66.207L261.094 68.207C260.594 63.207 258.427 59.0404 256.594 57.207L302.594 54.707M301.094 52.207C290.094 50.707 279.094 45.907 267.094 39.907M229.094 30.207L273.094 27.707L281.594 26.207" stroke="black" stroke-width="0.5"/>
<path d="M273.094 42.707C280.089 43.0568 286.106 43.1619 291.487 43.707M298.094 44.707C295.991 44.2564 293.798 43.9411 291.487 43.707M296.094 37.207C295.676 36.6219 295.207 36.0927 294.703 35.617M291.487 43.707C291.161 43.3623 291.067 42.8392 291.052 42.207M291.052 42.207C291.038 41.6168 291.094 40.9313 291.094 40.207C291.094 38.207 290.094 34.207 286.594 32.207C288.815 32.207 292.191 33.2474 294.703 35.617M291.052 42.207C294.094 40.707 295.166 37.147 294.703 35.617" stroke="black" stroke-width="0.5"/>
<path d="M291.094 40.207C286.594 40.207 284.594 36.207 283.594 33.707" stroke="black" stroke-width="0.5"/>
<path d="M133.092 12.307C119.592 16.307 107.592 22.207 93.5923 35.207C100.592 23.207 116.092 13.707 131.592 8.70703L133.092 12.307Z" stroke="black" stroke-width="0.5"/>
<path d="M131.592 8.70703C111.592 14.3811 93.5923 31.707 85.5923 29.707C98.5923 20.207 114.592 11.707 131.092 7.20703L131.592 8.70703Z" stroke="black" stroke-width="0.5"/>
<path d="M10.593 47.7069H4.59295C2.09229 51.7069 2.09229 61.7069 2.59295 65.2069C1.09229 66.2069 1.09288 70.7069 2.09295 72.2069L6.09295 72.7069V74.2069L2.09295 76.2069V78.2069C6.09295 79.2069 14.593 81.2069 22.593 80.7069V79.2069H40.0929C39.4263 70.7069 41.0929 60.2069 50.0929 53.2069C47.5929 49.2069 40.5929 44.7069 37.5929 44.2069C27.5929 43.2069 12.593 45.7069 10.593 47.7069Z" stroke="black" stroke-width="0.5"/>
<path d="M93.5938 35.207C75.7604 36.0404 44.0938 40.907 33.5938 43.907L37.5938 44.207C42.5938 45.707 48.0938 50.0404 50.0938 53.207C63.0928 43.707 88.5928 50.707 87.0928 78.207H97.0928C90.0928 67.207 91.0928 45.207 93.5938 35.207Z" stroke="black" stroke-width="0.5"/>
<path d="M10.5918 47.7071H4.5918C37.092 28.207 59.092 34.207 85.0918 29.707L94.092 35.207C77.092 36.207 48.0918 39.707 34.0918 43.907C26.0918 43.707 12.0918 45.707 10.5918 47.7071Z" stroke="black" stroke-width="0.5"/>
<path d="M37.5937 44.2071C30.0937 43.207 13.0937 45.207 10.5937 47.7071C9.79374 50.107 12.9271 53.0404 14.5937 54.207C24.0938 55.707 37.5937 49.707 37.5937 44.2071Z" stroke="black" stroke-width="0.5"/>
<path d="M4.59298 47.707C11.593 48.707 5.59298 59.207 2.59298 64.207C2.09291 57.207 2.59277 51.707 4.59298 47.707Z" stroke="black" stroke-width="0.5"/>
<path d="M22.5923 83.707V79.207H40.0923L40.5923 83.707H22.5923Z" stroke="black" stroke-width="0.5"/>
<path d="M3.09375 65.207C4.59375 67.707 6.59375 70.8737 6.09375 72.707M22.5938 79.207C12.0938 79.707 7.59375 75.707 8.59375 72.207C9.09375 71.707 10.5938 70.207 11.5938 70.207" stroke="black" stroke-width="0.5"/>
<path d="M6.59375 65.2072C8.84369 64.7072 11.7186 64.0822 14.4685 63.7072M14.4685 63.7072C17.2186 63.3322 19.8437 63.2072 21.5938 63.7072C24.5938 65.2072 30.0938 70.2072 32.5938 74.2072C27.5938 75.2072 20.5938 74.7072 16.0938 74.7072C13.4012 74.7072 12.0938 72.3738 12.0938 71.2072C11.5938 68.2072 12.8436 65.0405 14.4685 63.7072Z" stroke="black" stroke-width="0.5"/>
<path d="M12.0938 70.7072C20.0938 69.2073 23.5938 71.8358 26.5938 73.3358M13.5938 73.7073L31.0938 73.2073" stroke="black" stroke-width="0.5"/>
<path d="M22.5918 82.207H32.0918C34.0918 82.207 35.5918 80.207 35.0918 79.207M38.5918 79.207V83.707" stroke="black" stroke-width="0.5"/>
<path d="M22.5937 80.7073C18.0937 80.7073 13.5937 81.2073 2.0937 78.2073V76.2073L6.0937 74.2073V72.7073L2.0937 72.2073C1.59277 70.707 0.592969 67.707 2.59296 65.207C2.09321 57.207 2.59321 50.707 4.5937 47.7068C37.0937 28.2072 59.0937 34.2072 85.0937 29.7072C163.094 -25.2929 245.094 11.707 282.094 26.2072L295.594 28.207L296.094 35.207V38.207C297.592 43.207 298.927 47.707 297.594 49.707C300.094 50.707 302.594 53.8737 302.594 55.707L300.594 65.707C301.046 76.5549 298.638 76.7792 289.306 77.0917C288.315 77.1249 286.246 77.159 285.094 77.207V78.707L260.094 79.1381M22.5937 80.7073V83.7073H40.592L40.0937 79.2073M22.5937 80.7073V79.2073H40.0937M40.0937 79.2073C37.0937 37.7073 90.5937 40.7073 87.0937 79.7073V82.207H213.594C207.594 38.707 262.094 38.707 260.094 79.1381M259.592 79.1381H260.094" stroke="black"/>
</svg>
