<svg width="303" height="96" viewBox="0 0 303 96" fill="none" xmlns="http://www.w3.org/2000/svg">
<circle cx="62.4795" cy="74.3384" r="20.5" fill="#E0426F" stroke="black"/>
<circle cx="235.479" cy="74.3384" r="20.5" fill="#E0426F" stroke="black"/>
<path d="M132.478 12.8382L130.978 9.33823C170.978 1.33835 192.478 1.83838 231.478 13.3383L227.978 17.8383C207.978 9.83829 189.978 8.83829 173.978 8.33836C171.478 7.83836 167.478 7.83832 164.978 8.33823C154.978 8.33836 142.978 9.83836 132.478 12.8382Z" stroke="black" stroke-width="0.5"/>
<path d="M130.978 9.33842L130.478 7.83842C166.478 -3.16162 198.978 0.838253 234.478 9.83842L231.478 13.3384C191.478 0.838379 165.478 2.33838 130.978 9.33842Z" stroke="black" stroke-width="0.5"/>
<path d="M130.978 9.33837C182.478 -2.16166 210.978 7.83838 231.478 13.3384" stroke="black" stroke-width="0.5"/>
<path d="M226.479 30.8384L223.479 16.3384C218.979 14.8384 207.479 9.33838 173.979 8.33838L170.479 30.3384C181.479 29.8384 198.979 28.3384 225.979 28.3384" stroke="black" stroke-width="0.5"/>
<path d="M164.979 8.33838C131.979 9.33838 111.979 18.3384 92.9795 35.8384L95.4795 33.8384L159.479 30.8384L164.979 8.33838Z" stroke="black" stroke-width="0.5"/>
<path d="M239.478 22.8384C235.811 20.1717 229.978 17.8384 223.478 16.3384L225.978 28.3384H232.478C235.478 26.8384 238.478 24.6071 239.478 22.8384Z" stroke="black" stroke-width="0.5"/>
<path d="M96.4795 78.8384H163.479L197.979 77.3384M96.4795 78.8384C96.4795 80.3384 96.9795 81.3384 97.9795 82.8384M96.4795 78.8384H86.4795V82.8384H97.9795M197.979 77.3384L198.979 82.8384M197.979 77.3384H212.479L212.979 82.8384H198.979M198.979 82.8384H97.9795" stroke="black" stroke-width="0.5"/>
<path d="M96.4786 78.8384C91.9795 74.3384 88.9795 52.3384 92.9786 35.8384L164.979 31.8384C160.979 36.8384 159.979 70.8384 163.479 78.8384H96.4786Z" stroke="black" stroke-width="0.5"/>
<path d="M228.479 30.8384L164.979 31.8384C160.98 36.8384 159.98 70.8384 163.479 78.8384L197.979 77.3384C202.479 75.8384 208.979 70.3384 228.479 30.8384Z" stroke="black" stroke-width="0.5"/>
<path d="M170.479 30.3385C165.979 30.8385 162.479 30.8385 159.479 30.8385L164.979 8.33845C167.979 7.83838 170.979 7.83838 173.979 8.33845L170.479 30.3385Z" stroke="black" stroke-width="0.5"/>
<path d="M98.9795 32.3385C103.479 37.8385 110.479 34.3385 114.479 32.8385C115.479 17.3384 102.479 25.3384 98.9795 32.3385Z" stroke="black" stroke-width="0.5"/>
<path d="M234.478 9.83838L231.478 13.3384C248.478 18.8384 258.978 21.8384 271.478 28.3384H272.978L280.978 26.8384C265.978 20.3384 258.478 17.8384 234.478 9.83838Z" fill="#EFC7D3" stroke="black" stroke-width="0.5"/>
<path d="M271.478 28.3384C260.978 22.8384 241.978 16.3384 231.478 13.3384L229.478 15.8384L244.478 23.3384C242.978 25.8384 238.978 27.8384 232.978 30.5384C244.978 29.8384 261.978 28.8384 271.478 28.3384Z" fill="#EFC7D3" stroke="black" stroke-width="0.5"/>
<path d="M276.979 34.6384L282.978 32.3384L272.479 28.3384L228.479 30.8384C220.979 45.8384 205.979 76.3384 197.979 77.3384H212.479C210.979 66.3384 220.479 42.8384 245.479 51.8384C255.979 46.3384 265.979 40.8384 276.979 34.6384Z" fill="#EFC7D3" stroke="black" stroke-width="0.5"/>
<path d="M277.978 34.3384C265.978 40.8384 255.978 46.3384 245.478 51.8384C249.978 54.8384 260.478 60.8384 259.478 79.8384L284.478 79.3384V77.8384C292.978 76.8384 301.478 80.3384 299.978 66.3384L301.978 56.3384C301.978 54.8384 299.478 50.8384 296.978 50.3384C298.478 47.8384 295.478 38.8384 295.478 38.8384V37.3384L291.478 34.3384L286.478 32.8384L282.978 32.3384L277.978 34.3384Z" fill="#EFC7D3" stroke="black" stroke-width="0.5"/>
<path d="M280.978 26.8384L272.478 28.3384L282.978 32.3384C292.478 33.3384 291.476 34.8384 295.472 37.2586L294.978 28.8384L280.978 26.8384Z" fill="#EFC7D3"/>
<path d="M295.478 37.3384L295.472 37.2586M295.472 37.2586L294.978 28.8384L280.978 26.8384L272.478 28.3384L282.978 32.3384C292.478 33.3384 291.476 34.8384 295.472 37.2586Z" stroke="black" stroke-width="0.5"/>
<path d="M293.979 36.8386C293.479 34.3385 282.479 34.1384 276.979 34.6384" stroke="black" stroke-width="0.5"/>
<path d="M299.979 66.8384L260.479 68.8384C259.979 63.8384 257.813 59.6717 255.979 57.8384L301.979 55.3384M300.479 52.8384C289.479 51.3384 278.479 46.5384 266.479 40.5384M228.479 30.8384L272.479 28.3384L280.979 26.8384" stroke="black" stroke-width="0.5"/>
<path d="M290.479 40.8384C290.479 38.8384 289.479 34.8384 285.979 32.8384C288.2 32.8384 291.577 33.8788 294.088 36.2484C294.552 37.7784 293.479 41.3384 290.438 42.8384C290.424 42.2481 290.479 41.5627 290.479 40.8384Z" fill="#EFC7D3"/>
<path d="M272.479 43.3384C279.475 43.6882 285.492 43.7933 290.873 44.3384M297.479 45.3384C295.376 44.8877 293.183 44.5725 290.873 44.3384M295.479 37.8384C295.062 37.2533 294.592 36.724 294.088 36.2484M290.873 44.3384C290.546 43.9936 290.452 43.4706 290.438 42.8384M290.438 42.8384C290.424 42.2481 290.479 41.5627 290.479 40.8384C290.479 38.8384 289.479 34.8384 285.979 32.8384C288.2 32.8384 291.577 33.8788 294.088 36.2484M290.438 42.8384C293.479 41.3384 294.552 37.7784 294.088 36.2484" stroke="black" stroke-width="0.5"/>
<path d="M290.479 40.8384C285.979 40.8384 283.979 36.8384 282.979 34.3384" stroke="black" stroke-width="0.5"/>
<path d="M132.478 12.9384C118.978 16.9384 106.978 22.8384 92.978 35.8384C99.978 23.8384 115.478 14.3384 130.978 9.33838L132.478 12.9384Z" fill="#EFC7D3" stroke="black" stroke-width="0.5"/>
<path d="M130.978 9.33838C110.978 15.0124 92.978 32.3384 84.978 30.3384C97.978 20.8384 113.978 12.3384 130.478 7.83838L130.978 9.33838Z" fill="#EFC7D3" stroke="black" stroke-width="0.5"/>
<path d="M9.97869 48.3384H3.97869C1.47803 52.3384 1.47803 62.3384 1.97869 65.8384C0.478027 66.8384 0.478625 71.3384 1.47869 72.8384L5.47869 73.3384V74.8384L1.47869 76.8384V78.8384C5.47869 79.8384 13.9787 81.8384 21.9787 81.3384V79.8384H39.4787C38.812 71.3384 40.4787 60.8384 49.4787 53.8384C46.9787 49.8384 39.9787 45.3384 36.9787 44.8384C26.9787 43.8384 11.9787 46.3384 9.97869 48.3384Z" fill="#EFC7D3" stroke="black" stroke-width="0.5"/>
<path d="M92.9795 35.8384C75.1462 36.6717 43.4795 41.5384 32.9795 44.5384L36.9795 44.8384C41.9795 46.3384 47.4795 50.6717 49.4795 53.8384C62.4785 44.3384 87.9785 51.3384 86.4785 78.8384H96.4785C89.4785 67.8384 90.4785 45.8384 92.9795 35.8384Z" fill="#EFC7D3" stroke="black" stroke-width="0.5"/>
<path d="M9.97754 48.3384H3.97754C36.4777 28.8383 58.4778 34.8384 84.4775 30.3384L93.4778 35.8384C76.4778 36.8384 47.4775 40.3384 33.4775 44.5384C25.4775 44.3384 11.4775 46.3384 9.97754 48.3384Z" fill="#EFC7D3" stroke="black" stroke-width="0.5"/>
<path d="M36.9795 44.8385C29.4795 43.8384 12.4795 45.8384 9.97948 48.3385C9.17948 50.7384 12.3128 53.6717 13.9795 54.8384C23.4795 56.3384 36.9795 50.3384 36.9795 44.8385Z" fill="#EFC7D3" stroke="black" stroke-width="0.5"/>
<path d="M3.97872 48.3384C10.9787 49.3384 4.97872 59.8384 1.97872 64.8384C1.47865 57.8384 1.97852 52.3384 3.97872 48.3384Z" fill="#EFC7D3" stroke="black" stroke-width="0.5"/>
<path d="M21.978 84.3384V79.8384H39.478L39.978 84.3384H21.978Z" fill="#EFC7D3" stroke="black" stroke-width="0.5"/>
<path d="M2.47949 65.8384C3.97949 68.3384 5.97949 71.505 5.47949 73.3384M21.9795 79.8384C11.4795 80.3384 6.97949 76.3384 7.97949 72.8384C8.47949 72.3384 9.97949 70.8384 10.9795 70.8384" stroke="black" stroke-width="0.5"/>
<path d="M31.9795 74.8384C29.4795 70.8384 23.9795 65.8385 20.9795 64.3385C19.2294 63.8384 16.6044 63.9634 13.8543 64.3385C12.2294 65.6718 10.9795 68.8384 11.4795 71.8384C11.4795 73.005 12.7869 75.3384 15.4795 75.3384C19.9795 75.3384 26.9795 75.8384 31.9795 74.8384Z" fill="#EFC7D3"/>
<path d="M5.97949 65.8385C8.22943 65.3384 11.1043 64.7135 13.8543 64.3385M13.8543 64.3385C16.6044 63.9634 19.2294 63.8384 20.9795 64.3385C23.9795 65.8385 29.4795 70.8384 31.9795 74.8384C26.9795 75.8384 19.9795 75.3384 15.4795 75.3384C12.7869 75.3384 11.4795 73.005 11.4795 71.8384C10.9795 68.8384 12.2293 65.6718 13.8543 64.3385Z" stroke="black" stroke-width="0.5"/>
<path d="M11.4795 71.3385C19.4795 69.8385 22.9795 72.467 25.9795 73.967M12.9795 74.3385L30.4795 73.8385" stroke="black" stroke-width="0.5"/>
<path d="M21.9775 82.8384H31.4775C33.4775 82.8384 34.9775 80.8384 34.4775 79.8384M37.9775 79.8384V84.3384" stroke="black" stroke-width="0.5"/>
<path d="M21.9794 81.3386C17.4794 81.3386 12.9794 81.8386 1.47944 78.8386V76.8386L5.47944 74.8386V73.3386L1.47944 72.8386C0.978516 71.3384 -0.0212885 68.3384 1.97871 65.8384C1.47895 57.8384 1.97895 51.3384 3.97944 48.3381C36.4794 28.8385 58.4794 34.8386 84.4794 30.3386C162.479 -24.6615 244.479 12.3384 281.479 26.8386L294.979 28.8384L295.479 35.8384V38.8384C296.978 43.8384 298.313 48.3384 296.979 50.3384C299.479 51.3384 301.979 54.505 301.979 56.3384L299.979 66.3384C300.431 77.1863 298.023 77.4106 288.692 77.723C287.701 77.7562 285.632 77.7904 284.479 77.8384V79.3384L259.479 79.7694M21.9794 81.3386V84.3386H39.9778L39.4794 79.8386M21.9794 81.3386V79.8386H39.4794M39.4794 79.8386C36.4794 38.3386 89.9794 41.3386 86.4794 80.3386V82.8384H212.979C206.979 39.3384 261.479 39.3384 259.479 79.7694M258.978 79.7694H259.479" stroke="black"/>
</svg>
