<svg width="303" height="96" viewBox="0 0 303 96" fill="none" xmlns="http://www.w3.org/2000/svg">
<circle cx="62.6875" cy="74.0605" r="20.5" stroke="black"/>
<circle cx="235.688" cy="74.0605" r="20.5" stroke="black"/>
<path d="M132.686 12.5604L131.186 9.0604C171.186 1.06051 192.686 1.56055 231.686 13.0605L228.186 17.5605C208.186 9.56046 190.186 8.56046 174.186 8.06052C171.686 7.56052 167.686 7.56049 165.186 8.0604C155.186 8.06052 143.186 9.56052 132.686 12.5604Z" fill="#E0426F" stroke="black" stroke-width="0.5"/>
<path d="M131.186 9.06059L130.686 7.56059C166.686 -3.43945 199.186 0.560421 234.686 9.56059L231.686 13.0606C191.686 0.560547 165.686 2.06055 131.186 9.06059Z" fill="#E0426F" stroke="black" stroke-width="0.5"/>
<path d="M131.186 9.06066C182.686 -2.43937 211.186 7.56067 231.686 13.0607" stroke="black" stroke-width="0.5"/>
<path d="M170.688 30.0605L174.188 8.06055C207.688 9.06055 219.188 14.5605 223.688 16.0605L226.17 28.0605C199.18 28.0612 181.685 29.5607 170.688 30.0605Z" fill="#E0426F"/>
<path d="M226.688 30.5605L223.688 16.0605C219.188 14.5605 207.688 9.06055 174.188 8.06055L170.688 30.0605C181.688 29.5605 199.188 28.0605 226.188 28.0605" stroke="black" stroke-width="0.5"/>
<path d="M165.188 8.06055C132.188 9.06055 112.188 18.0605 93.1875 35.5605L95.6875 33.5605L159.688 30.5605L165.188 8.06055Z" fill="#E0426F" stroke="black" stroke-width="0.5"/>
<path d="M239.686 22.5605C236.019 19.8939 230.186 17.5605 223.686 16.0605L226.186 28.0605H232.686C235.686 26.5605 238.686 24.3293 239.686 22.5605Z" fill="#E0426F" stroke="black" stroke-width="0.5"/>
<path d="M96.6875 78.5605H163.688L198.188 77.0605H212.688L213.188 82.5605H199.188H98.1875H86.6875V78.5605H96.6875Z" fill="#E0426F"/>
<path d="M96.6875 78.5605H163.688L198.188 77.0605M96.6875 78.5605C96.6875 80.0605 97.1875 81.0605 98.1875 82.5605M96.6875 78.5605H86.6875V82.5605H98.1875M198.188 77.0605L199.188 82.5605M198.188 77.0605H212.688L213.188 82.5605H199.188M199.188 82.5605H98.1875" stroke="black" stroke-width="0.5"/>
<path d="M96.6866 78.5605C92.1875 74.0605 89.1875 52.0605 93.1866 35.5605L165.188 31.5605C161.188 36.5605 160.188 70.5605 163.687 78.5605H96.6866Z" fill="#E0426F" stroke="black" stroke-width="0.5"/>
<path d="M228.687 30.5605L165.187 31.5605C161.188 36.5605 160.188 70.5605 163.687 78.5605L198.187 77.0605C202.687 75.5605 209.187 70.0605 228.687 30.5605Z" fill="#E0426F" stroke="black" stroke-width="0.5"/>
<path d="M170.688 30.0606C166.188 30.5606 162.688 30.5606 159.688 30.5606L165.188 8.06062C168.188 7.56055 171.188 7.56055 174.188 8.06062L170.688 30.0606Z" fill="#E0426F" stroke="black" stroke-width="0.5"/>
<path d="M99.1875 32.0608C103.688 37.5608 110.688 34.0608 114.688 32.5608C115.688 17.0607 102.688 25.0607 99.1875 32.0608Z" fill="#E0426F" stroke="black" stroke-width="0.5"/>
<path d="M234.686 9.56055L231.686 13.0605C248.686 18.5605 259.186 21.5605 271.686 28.0605H273.186L281.186 26.5605C266.186 20.0605 258.686 17.5605 234.686 9.56055Z" fill="#EFC7D3" stroke="black" stroke-width="0.5"/>
<path d="M271.686 28.0605C261.186 22.5605 242.186 16.0605 231.686 13.0605L229.686 15.5605L244.686 23.0605C243.186 25.5605 239.186 27.5605 233.186 30.2605C245.186 29.5605 262.186 28.5605 271.686 28.0605Z" fill="#EFC7D3" stroke="black" stroke-width="0.5"/>
<path d="M277.188 34.3605L283.186 32.0605L272.687 28.0605L228.687 30.5605C221.187 45.5605 206.187 76.0605 198.187 77.0605H212.687C211.187 66.0605 220.687 42.5605 245.688 51.5605C256.188 46.0605 266.188 40.5605 277.188 34.3605Z" fill="#EFC7D3" stroke="black" stroke-width="0.5"/>
<path d="M278.186 34.0606C266.186 40.5606 256.186 46.0606 245.686 51.5606C250.186 54.5605 260.686 60.5605 259.686 79.5605L284.686 79.0605V77.5605C293.186 76.5605 301.686 80.0605 300.186 66.0605L302.186 56.0605C302.186 54.5605 299.686 50.5605 297.186 50.0605C298.686 47.5605 295.686 38.5605 295.686 38.5605V37.0605L291.686 34.0605L286.686 32.5605L283.186 32.0605L278.186 34.0606Z" fill="#EFC7D3" stroke="black" stroke-width="0.5"/>
<path d="M281.186 26.5605L272.686 28.0605L283.186 32.0605C292.686 33.0605 291.684 34.5605 295.68 36.9807L295.186 28.5605L281.186 26.5605Z" fill="#EFC7D3"/>
<path d="M295.686 37.0605L295.68 36.9807M295.68 36.9807L295.186 28.5605L281.186 26.5605L272.686 28.0605L283.186 32.0605C292.686 33.0605 291.684 34.5605 295.68 36.9807Z" stroke="black" stroke-width="0.5"/>
<path d="M294.188 36.5607C293.688 34.0606 282.688 33.8606 277.188 34.3606" stroke="black" stroke-width="0.5"/>
<path d="M300.188 66.5605L260.688 68.5605C260.188 63.5605 258.021 59.3939 256.188 57.5605L302.188 55.0605M300.688 52.5605C289.688 51.0605 278.688 46.2605 266.688 40.2605M228.688 30.5605L272.688 28.0605L281.188 26.5605" stroke="black" stroke-width="0.5"/>
<path d="M290.688 40.5605C290.688 38.5605 289.688 34.5605 286.188 32.5605C288.408 32.5605 291.785 33.6009 294.296 35.9705C294.76 37.5005 293.688 41.0605 290.646 42.5605C290.632 41.9703 290.688 41.2848 290.688 40.5605Z" fill="#EFC7D3"/>
<path d="M272.688 43.0605C279.683 43.4103 285.7 43.5154 291.081 44.0605M297.688 45.0605C295.585 44.6099 293.391 44.2946 291.081 44.0605M295.688 37.5605C295.27 36.9754 294.8 36.4462 294.296 35.9705M291.081 44.0605C290.754 43.7158 290.66 43.1927 290.646 42.5605M290.646 42.5605C290.632 41.9703 290.688 41.2848 290.688 40.5605C290.688 38.5605 289.688 34.5605 286.188 32.5605C288.408 32.5605 291.785 33.6009 294.296 35.9705M290.646 42.5605C293.688 41.0605 294.76 37.5005 294.296 35.9705" stroke="black" stroke-width="0.5"/>
<path d="M290.688 40.5605C286.188 40.5605 284.188 36.5605 283.188 34.0605" stroke="black" stroke-width="0.5"/>
<path d="M132.686 12.6605C119.186 16.6605 107.186 22.5605 93.186 35.5605C100.186 23.5605 115.686 14.0605 131.186 9.06055L132.686 12.6605Z" fill="#E56E90" stroke="black" stroke-width="0.5"/>
<path d="M131.186 9.06055C111.186 14.7346 93.186 32.0605 85.186 30.0605C98.186 20.5605 114.186 12.0605 130.686 7.56055L131.186 9.06055Z" fill="#E56E90" stroke="black" stroke-width="0.5"/>
<path d="M10.1867 48.0604H4.1867C1.68604 52.0604 1.68604 62.0604 2.1867 65.5604C0.686035 66.5604 0.686633 71.0604 1.6867 72.5604L5.6867 73.0604V74.5604L1.6867 76.5604V78.5604C5.6867 79.5604 14.1867 81.5604 22.1867 81.0604V79.5604H39.6867C39.02 71.0604 40.6867 60.5604 49.6867 53.5604C47.1867 49.5604 40.1867 45.0604 37.1867 44.5604C27.1867 43.5604 12.1867 46.0604 10.1867 48.0604Z" fill="#E56E90" stroke="black" stroke-width="0.5"/>
<path d="M93.1875 35.5605C75.3542 36.3939 43.6875 41.2605 33.1875 44.2605L37.1875 44.5605C42.1875 46.0605 47.6875 50.3939 49.6875 53.5605C62.6865 44.0605 88.1865 51.0605 86.6865 78.5605H96.6865C89.6865 67.5605 90.6865 45.5605 93.1875 35.5605Z" fill="#E56E90" stroke="black" stroke-width="0.5"/>
<path d="M10.1855 48.0606H4.18555C36.6857 28.5605 58.6858 34.5605 84.6855 30.0605L93.6858 35.5605C76.6858 36.5605 47.6855 40.0605 33.6855 44.2606C25.6855 44.0605 11.6855 46.0605 10.1855 48.0606Z" fill="#E56E90" stroke="black" stroke-width="0.5"/>
<path d="M37.1875 44.5606C29.6875 43.5605 12.6875 45.5605 10.1875 48.0606C9.38749 50.4606 12.5208 53.3939 14.1875 54.5605C23.6875 56.0605 37.1875 50.0605 37.1875 44.5606Z" fill="#E56E90" stroke="black" stroke-width="0.5"/>
<path d="M4.18673 48.0605C11.1867 49.0605 5.18673 59.5605 2.18673 64.5605C1.68666 57.5605 2.18652 52.0605 4.18673 48.0605Z" fill="#E56E90" stroke="black" stroke-width="0.5"/>
<path d="M22.186 84.0605V79.5605H39.686L40.186 84.0605H22.186Z" fill="#E56E90" stroke="black" stroke-width="0.5"/>
<path d="M2.6875 65.5605C4.1875 68.0605 6.1875 71.2272 5.6875 73.0605M22.1875 79.5605C11.6875 80.0605 7.1875 76.0605 8.1875 72.5605C8.6875 72.0605 10.1875 70.5605 11.1875 70.5605" stroke="black" stroke-width="0.5"/>
<path d="M32.1875 74.5607C29.6875 70.5607 24.1875 65.5607 21.1875 64.0607C19.4375 63.5607 16.8124 63.6857 14.0623 64.0607C12.4374 65.3941 11.1875 68.5607 11.6875 71.5607C11.6875 72.7273 12.9949 75.0607 15.6875 75.0607C20.1875 75.0607 27.1875 75.5607 32.1875 74.5607Z" fill="#E56E90"/>
<path d="M6.1875 65.5607C8.43744 65.0607 11.3124 64.4357 14.0623 64.0607M14.0623 64.0607C16.8124 63.6857 19.4375 63.5607 21.1875 64.0607C24.1875 65.5607 29.6875 70.5607 32.1875 74.5607C27.1875 75.5607 20.1875 75.0607 15.6875 75.0607C12.9949 75.0607 11.6875 72.7273 11.6875 71.5607C11.1875 68.5607 12.4374 65.3941 14.0623 64.0607Z" stroke="black" stroke-width="0.5"/>
<path d="M11.6875 71.0607C19.6875 69.5608 23.1875 72.1893 26.1875 73.6893M13.1875 74.0608L30.6875 73.5608" stroke="black" stroke-width="0.5"/>
<path d="M22.1855 82.5605H31.6855C33.6855 82.5605 35.1855 80.5605 34.6855 79.5605M38.1855 79.5605V84.0605" stroke="black" stroke-width="0.5"/>
<path d="M22.1874 81.0608C17.6874 81.0608 13.1874 81.5608 1.68745 78.5608V76.5608L5.68745 74.5608V73.0608L1.68745 72.5608C1.18652 71.0605 0.186719 68.0605 2.18671 65.5605C1.68696 57.5605 2.18696 51.0605 4.18745 48.0603C36.6874 28.5607 58.6874 34.5607 84.6874 30.0607C162.687 -24.9394 244.687 12.0605 281.687 26.5607L295.187 28.5605L295.687 35.5605V38.5605C297.186 43.5605 298.521 48.0605 297.187 50.0605C299.687 51.0605 302.187 54.2272 302.187 56.0605L300.187 66.0605C300.639 76.9085 298.231 77.1327 288.9 77.4452C287.909 77.4784 285.84 77.5125 284.687 77.5605V79.0605L259.687 79.4916M22.1874 81.0608V84.0608H40.1858L39.6875 79.5608M22.1874 81.0608V79.5608H39.6875M39.6875 79.5608C36.6875 38.0608 90.1874 41.0608 86.6874 80.0608V82.5605H213.187C207.187 39.0605 261.687 39.0605 259.687 79.4916M259.186 79.4916H259.687" stroke="black"/>
</svg>
