<svg width="303" height="95" viewBox="0 0 303 95" fill="none" xmlns="http://www.w3.org/2000/svg">
<circle cx="62.2607" cy="73.8762" r="20.5" fill="#E56E90" stroke="black"/>
<circle cx="235.261" cy="73.8762" r="20.5" fill="#E56E90" stroke="black"/>
<path d="M132.259 12.3761L130.759 8.87608C170.759 0.876188 192.259 1.37622 231.259 12.8762L227.759 17.3762C207.759 9.37613 189.759 8.37613 173.759 7.8762C171.259 7.3762 167.259 7.37616 164.759 7.87608C154.759 7.8762 142.759 9.3762 132.259 12.3761Z" fill="#E56E90" stroke="black" stroke-width="0.5"/>
<path d="M130.759 8.87627L130.259 7.37626C166.259 -3.62378 198.759 0.376095 234.259 9.37627L231.259 12.8763C191.259 0.376221 165.259 1.87622 130.759 8.87627Z" fill="#E56E90" stroke="black" stroke-width="0.5"/>
<path d="M130.759 8.87609C182.259 -2.62394 210.759 7.3761 231.259 12.8761" stroke="black" stroke-width="0.5"/>
<path d="M170.261 29.8762L173.761 7.87622C207.261 8.87622 218.761 14.3762 223.261 15.8762L225.743 27.8762C198.753 27.8769 181.258 29.3763 170.261 29.8762Z" fill="#E56E90"/>
<path d="M226.261 30.3762L223.261 15.8762C218.761 14.3762 207.261 8.87622 173.761 7.87622L170.261 29.8762C181.261 29.3762 198.761 27.8762 225.761 27.8762" stroke="black" stroke-width="0.5"/>
<path d="M164.761 7.87622C131.761 8.87622 111.761 17.8762 92.7607 35.3762L95.2607 33.3762L159.261 30.3762L164.761 7.87622Z" fill="#E56E90" stroke="black" stroke-width="0.5"/>
<path d="M239.259 22.3762C235.592 19.7096 229.759 17.3762 223.259 15.8762L225.759 27.8762H232.259C235.259 26.3762 238.259 24.145 239.259 22.3762Z" fill="#E56E90" stroke="black" stroke-width="0.5"/>
<path d="M96.2607 78.3762H163.261L197.761 76.8762H212.261L212.761 82.3762H198.761H97.7607H86.2607V78.3762H96.2607Z" fill="#E56E90"/>
<path d="M96.2607 78.3762H163.261L197.761 76.8762M96.2607 78.3762C96.2607 79.8762 96.7607 80.8762 97.7607 82.3762M96.2607 78.3762H86.2607V82.3762H97.7607M197.761 76.8762L198.761 82.3762M197.761 76.8762H212.261L212.761 82.3762H198.761M198.761 82.3762H97.7607" stroke="black" stroke-width="0.5"/>
<path d="M96.2599 78.3762C91.7607 73.8762 88.7608 51.8762 92.7599 35.3762L164.761 31.3762C160.761 36.3762 159.761 70.3762 163.261 78.3762H96.2599Z" fill="#E56E90" stroke="black" stroke-width="0.5"/>
<path d="M228.261 30.3762L164.761 31.3762C160.761 36.3762 159.761 70.3762 163.261 78.3762L197.761 76.8762C202.261 75.3762 208.761 69.8762 228.261 30.3762Z" fill="#E56E90" stroke="black" stroke-width="0.5"/>
<path d="M170.261 29.8763C165.761 30.3763 162.261 30.3763 159.261 30.3763L164.761 7.87629C167.761 7.37622 170.761 7.37622 173.761 7.87629L170.261 29.8763Z" fill="#E56E90" stroke="black" stroke-width="0.5"/>
<path d="M98.7607 31.8762C103.261 37.3762 110.261 33.8762 114.261 32.3762C115.261 16.8761 102.261 24.8761 98.7607 31.8762Z" fill="#E56E90" stroke="black" stroke-width="0.5"/>
<path d="M234.259 9.37622L231.259 12.8762C248.259 18.3762 258.759 21.3762 271.259 27.8762H272.759L280.759 26.3762C265.759 19.8762 258.259 17.3762 234.259 9.37622Z" fill="#E56E90" stroke="black" stroke-width="0.5"/>
<path d="M271.259 27.8762C260.759 22.3762 241.759 15.8762 231.259 12.8762L229.259 15.3762L244.259 22.8762C242.759 25.3762 238.759 27.3762 232.759 30.0762C244.759 29.3762 261.759 28.3762 271.259 27.8762Z" fill="#E56E90" stroke="black" stroke-width="0.5"/>
<path d="M276.761 34.1762L282.759 31.8762L272.26 27.8762L228.26 30.3762C220.76 45.3762 205.76 75.8762 197.76 76.8762H212.26C210.76 65.8762 220.26 42.3762 245.261 51.3762C255.761 45.8762 265.761 40.3762 276.761 34.1762Z" fill="#E56E90" stroke="black" stroke-width="0.5"/>
<path d="M277.759 33.8762C265.759 40.3762 255.759 45.8762 245.259 51.3762C249.759 54.3762 260.259 60.3762 259.259 79.3762L284.259 78.8762V77.3762C292.759 76.3762 301.259 79.8762 299.759 65.8762L301.759 55.8762C301.759 54.3762 299.259 50.3762 296.759 49.8762C298.259 47.3762 295.259 38.3762 295.259 38.3762V36.8762L291.259 33.8762L286.259 32.3762L282.759 31.8762L277.759 33.8762Z" fill="#E56E90" stroke="black" stroke-width="0.5"/>
<path d="M280.759 26.3762L272.259 27.8762L282.759 31.8762C292.259 32.8762 291.258 34.3762 295.253 36.7964L294.759 28.3762L280.759 26.3762Z" fill="#E56E90"/>
<path d="M295.259 36.8762L295.253 36.7964M295.253 36.7964L294.759 28.3762L280.759 26.3762L272.259 27.8762L282.759 31.8762C292.259 32.8762 291.258 34.3762 295.253 36.7964Z" stroke="black" stroke-width="0.5"/>
<path d="M293.761 36.3764C293.261 33.8763 282.261 33.6762 276.761 34.1762" stroke="black" stroke-width="0.5"/>
<path d="M299.761 66.3762L260.261 68.3762C259.761 63.3762 257.594 59.2096 255.761 57.3762L301.761 54.8762M300.261 52.3762C289.261 50.8762 278.261 46.0762 266.261 40.0762M228.261 30.3762L272.261 27.8762L280.761 26.3762" stroke="black" stroke-width="0.5"/>
<path d="M290.261 40.3762C290.261 38.3762 289.261 34.3762 285.761 32.3762C287.982 32.3762 291.358 33.4166 293.87 35.7862C294.333 37.3162 293.261 40.8762 290.219 42.3762C290.205 41.7859 290.261 41.1005 290.261 40.3762Z" fill="#E56E90"/>
<path d="M272.261 42.8762C279.256 43.226 285.273 43.3311 290.654 43.8762M297.261 44.8762C295.158 44.4256 292.964 44.1103 290.654 43.8762M295.261 37.3762C294.843 36.7911 294.374 36.2619 293.87 35.7862M290.654 43.8762C290.328 43.5315 290.234 43.0084 290.219 42.3762M290.219 42.3762C290.205 41.7859 290.261 41.1005 290.261 40.3762C290.261 38.3762 289.261 34.3762 285.761 32.3762C287.982 32.3762 291.358 33.4166 293.87 35.7862M290.219 42.3762C293.261 40.8762 294.333 37.3162 293.87 35.7862" stroke="black" stroke-width="0.5"/>
<path d="M290.261 40.3762C285.761 40.3762 283.761 36.3762 282.761 33.8762" stroke="black" stroke-width="0.5"/>
<path d="M132.259 12.4762C118.759 16.4762 106.759 22.3762 92.7588 35.3762C99.7588 23.3762 115.259 13.8762 130.759 8.87622L132.259 12.4762Z" fill="#EFC7D3" stroke="black" stroke-width="0.5"/>
<path d="M130.759 8.87622C110.759 14.5503 92.7588 31.8762 84.7588 29.8762C97.7588 20.3762 113.759 11.8762 130.259 7.37622L130.759 8.87622Z" fill="#EFC7D3" stroke="black" stroke-width="0.5"/>
<path d="M9.75946 47.8761H3.75946C1.25879 51.8761 1.25879 61.8761 1.75946 65.3761C0.258789 66.3761 0.259387 70.8761 1.25946 72.3761L5.25946 72.8761V74.3761L1.25946 76.3761V78.3761C5.25946 79.3761 13.7595 81.3761 21.7595 80.8761V79.3761H39.2595C38.5928 70.8761 40.2595 60.3761 49.2595 53.3761C46.7595 49.3761 39.7595 44.8761 36.7595 44.3761C26.7595 43.3761 11.7595 45.8761 9.75946 47.8761Z" fill="#EFC7D3" stroke="black" stroke-width="0.5"/>
<path d="M92.7607 35.3762C74.9274 36.2096 43.2607 41.0762 32.7607 44.0762L36.7607 44.3762C41.7607 45.8762 47.2607 50.2096 49.2607 53.3762C62.2598 43.8762 87.7598 50.8762 86.2598 78.3762H96.2598C89.2598 67.3762 90.2598 45.3762 92.7607 35.3762Z" fill="#EFC7D3" stroke="black" stroke-width="0.5"/>
<path d="M9.75879 47.8763H3.75879C36.259 28.3762 58.259 34.3762 84.2588 29.8762L93.259 35.3762C76.259 36.3762 47.2588 39.8762 33.2588 44.0762C25.2588 43.8762 11.2588 45.8762 9.75879 47.8763Z" fill="#EFC7D3" stroke="black" stroke-width="0.5"/>
<path d="M36.7602 44.3763C29.2602 43.3762 12.2602 45.3762 9.76024 47.8763C8.96024 50.2762 12.0936 53.2096 13.7602 54.3762C23.2603 55.8762 36.7602 49.8762 36.7602 44.3763Z" fill="#EFC7D3" stroke="black" stroke-width="0.5"/>
<path d="M3.75948 47.8762C10.7595 48.8762 4.75948 59.3762 1.75948 64.3762C1.25941 57.3762 1.75928 51.8762 3.75948 47.8762Z" fill="#EFC7D3" stroke="black" stroke-width="0.5"/>
<path d="M21.7588 83.8762V79.3762H39.2588L39.7588 83.8762H21.7588Z" fill="#EFC7D3" stroke="black" stroke-width="0.5"/>
<path d="M2.26074 65.376C3.76074 67.876 5.76074 71.0426 5.26074 72.876M21.7607 79.376C11.2607 79.876 6.76074 75.876 7.76074 72.376C8.26074 71.876 9.76074 70.376 10.7607 70.376" stroke="black" stroke-width="0.5"/>
<path d="M31.7607 74.3761C29.2607 70.3761 23.7607 65.3762 20.7607 63.8762C19.0107 63.3762 16.3856 63.5012 13.6355 63.8762C12.0106 65.2095 10.7607 68.3761 11.2607 71.3761C11.2607 72.5428 12.5682 74.8761 15.2607 74.8761C19.7607 74.8761 26.7607 75.3761 31.7607 74.3761Z" fill="#EFC7D3"/>
<path d="M5.76074 65.3762C8.01068 64.8762 10.8856 64.2512 13.6355 63.8762M13.6355 63.8762C16.3856 63.5012 19.0107 63.3762 20.7607 63.8762C23.7607 65.3762 29.2607 70.3761 31.7607 74.3761C26.7607 75.3761 19.7607 74.8761 15.2607 74.8761C12.5682 74.8761 11.2607 72.5428 11.2607 71.3761C10.7607 68.3761 12.0106 65.2095 13.6355 63.8762Z" stroke="black" stroke-width="0.5"/>
<path d="M11.2607 70.8762C19.2607 69.3762 22.7607 72.0047 25.7607 73.5047M12.7607 73.8762L30.2607 73.3762" stroke="black" stroke-width="0.5"/>
<path d="M21.7588 82.376H31.2588C33.2588 82.376 34.7588 80.376 34.2588 79.376M37.7588 79.376V83.876" stroke="black" stroke-width="0.5"/>
<path d="M21.7607 80.8765C17.2607 80.8765 12.7607 81.3765 1.26069 78.3765V76.3765L5.26069 74.3765V72.8765L1.26069 72.3765C0.759766 70.8762 -0.240039 67.8762 1.75996 65.3762C1.2602 57.3762 1.7602 50.8762 3.76069 47.876C36.2607 28.3764 58.2607 34.3764 84.2607 29.8764C162.261 -25.1237 244.261 11.8762 281.261 26.3764L294.761 28.3762L295.261 35.3762V38.3762C296.759 43.3762 298.094 47.8762 296.761 49.8762C299.261 50.8762 301.761 54.0429 301.761 55.8762L299.761 65.8762C300.213 76.7241 297.805 76.9484 288.473 77.2609C287.482 77.294 285.413 77.3282 284.261 77.3762V78.8762L259.261 79.3073M21.7607 80.8765V83.8765H39.759L39.2607 79.3765M21.7607 80.8765V79.3765H39.2607M39.2607 79.3765C36.2607 37.8765 89.7607 40.8765 86.2607 79.8765V82.3762H212.761C206.761 38.8762 261.261 38.8762 259.261 79.3073M258.759 79.3073H259.261" stroke="black"/>
</svg>
