<svg width="303" height="96" viewBox="0 0 303 96" fill="none" xmlns="http://www.w3.org/2000/svg">
<circle cx="62.6562" cy="74.1843" r="20.5" stroke="black"/>
<circle cx="235.656" cy="74.1843" r="20.5" stroke="black"/>
<path d="M132.654 12.6842L131.154 9.18418C171.154 1.18429 192.654 1.68433 231.654 13.1843L228.154 17.6843C208.154 9.68424 190.154 8.68423 174.154 8.1843C171.654 7.6843 167.654 7.68427 165.154 8.18418C155.154 8.1843 143.154 9.6843 132.654 12.6842Z" fill="#EFC7D3" stroke="black" stroke-width="0.5"/>
<path d="M131.154 9.18437L130.654 7.68437C166.654 -3.31567 199.154 0.6842 234.654 9.68437L231.654 13.1844C191.654 0.684326 165.654 2.18433 131.154 9.18437Z" fill="#EFC7D3" stroke="black" stroke-width="0.5"/>
<path d="M131.154 9.18431C182.654 -2.31571 211.154 7.68433 231.654 13.1843" stroke="black" stroke-width="0.5"/>
<path d="M170.656 30.1843L174.156 8.18433C207.656 9.18433 219.156 14.6843 223.656 16.1843L226.139 28.1843C199.149 28.185 181.654 29.6844 170.656 30.1843Z" fill="#EFC7D3"/>
<path d="M226.656 30.6843L223.656 16.1843C219.156 14.6843 207.656 9.18433 174.156 8.18433L170.656 30.1843C181.656 29.6843 199.156 28.1843 226.156 28.1843" stroke="black" stroke-width="0.5"/>
<path d="M165.156 8.18433C132.156 9.18433 112.156 18.1843 93.1562 35.6843L95.6562 33.6843L159.656 30.6843L165.156 8.18433Z" fill="#EFC7D3" stroke="black" stroke-width="0.5"/>
<path d="M239.654 22.6843C235.988 20.0177 230.154 17.6843 223.654 16.1843L226.154 28.1843H232.654C235.654 26.6843 238.654 24.4531 239.654 22.6843Z" fill="#EFC7D3" stroke="black" stroke-width="0.5"/>
<path d="M96.6562 78.6843H163.656L198.156 77.1843H212.656L213.156 82.6843H199.156H98.1562H86.6562V78.6843H96.6562Z" fill="#EFC7D3"/>
<path d="M96.6562 78.6843H163.656L198.156 77.1843M96.6562 78.6843C96.6562 80.1843 97.1562 81.1843 98.1562 82.6843M96.6562 78.6843H86.6562V82.6843H98.1562M198.156 77.1843L199.156 82.6843M198.156 77.1843H212.656L213.156 82.6843H199.156M199.156 82.6843H98.1562" stroke="black" stroke-width="0.5"/>
<path d="M96.6554 78.6843C92.1562 74.1843 89.1563 52.1843 93.1554 35.6843L165.156 31.6843C161.156 36.6843 160.156 70.6843 163.656 78.6843H96.6554Z" fill="#EFC7D3" stroke="black" stroke-width="0.5"/>
<path d="M228.656 30.6843L165.156 31.6843C161.156 36.6843 160.156 70.6843 163.656 78.6843L198.156 77.1843C202.656 75.6843 209.156 70.1843 228.656 30.6843Z" fill="#EFC7D3" stroke="black" stroke-width="0.5"/>
<path d="M170.656 30.1844C166.156 30.6844 162.656 30.6844 159.656 30.6844L165.156 8.1844C168.156 7.68433 171.156 7.68433 174.156 8.1844L170.656 30.1844Z" fill="#EFC7D3" stroke="black" stroke-width="0.5"/>
<path d="M99.1562 32.1845C103.656 37.6845 110.656 34.1845 114.656 32.6845C115.656 17.1843 102.656 25.1843 99.1562 32.1845Z" fill="#EFC7D3" stroke="black" stroke-width="0.5"/>
<path d="M234.654 9.68433L231.654 13.1843C248.654 18.6843 259.154 21.6843 271.654 28.1843H273.154L281.154 26.6843C266.154 20.1843 258.654 17.6843 234.654 9.68433Z" fill="#E0426F" stroke="black" stroke-width="0.5"/>
<path d="M271.654 28.1843C261.154 22.6843 242.154 16.1843 231.654 13.1843L229.654 15.6843L244.654 23.1843C243.154 25.6843 239.154 27.6843 233.154 30.3843C245.154 29.6843 262.154 28.6843 271.654 28.1843Z" fill="#E0426F" stroke="black" stroke-width="0.5"/>
<path d="M277.156 34.4843L283.155 32.1843L272.655 28.1843L228.655 30.6843C221.155 45.6843 206.155 76.1843 198.155 77.1843H212.655C211.155 66.1843 220.655 42.6843 245.656 51.6843C256.156 46.1843 266.156 40.6843 277.156 34.4843Z" fill="#E0426F" stroke="black" stroke-width="0.5"/>
<path d="M278.154 34.1844C266.154 40.6844 256.154 46.1844 245.654 51.6844C250.154 54.6843 260.654 60.6843 259.654 79.6843L284.654 79.1843V77.6843C293.154 76.6843 301.654 80.1843 300.154 66.1843L302.154 56.1843C302.154 54.6843 299.654 50.6843 297.154 50.1843C298.654 47.6843 295.654 38.6843 295.654 38.6843V37.1843L291.654 34.1843L286.654 32.6843L283.154 32.1843L278.154 34.1844Z" fill="#E0426F" stroke="black" stroke-width="0.5"/>
<path d="M281.154 26.6843L272.654 28.1843L283.154 32.1843C292.654 33.1843 291.653 34.6843 295.648 37.1045L295.154 28.6843L281.154 26.6843Z" fill="#E0426F"/>
<path d="M295.654 37.1843L295.648 37.1045M295.648 37.1045L295.154 28.6843L281.154 26.6843L272.654 28.1843L283.154 32.1843C292.654 33.1843 291.653 34.6843 295.648 37.1045Z" stroke="black" stroke-width="0.5"/>
<path d="M294.156 36.6845C293.656 34.1844 282.656 33.9843 277.156 34.4843" stroke="black" stroke-width="0.5"/>
<path d="M300.156 66.6843L260.656 68.6843C260.156 63.6843 257.99 59.5177 256.156 57.6843L302.156 55.1843M300.656 52.6843C289.656 51.1843 278.656 46.3843 266.656 40.3843M228.656 30.6843L272.656 28.1843L281.156 26.6843" stroke="black" stroke-width="0.5"/>
<path d="M290.656 40.6843C290.656 38.6843 289.656 34.6843 286.156 32.6843C288.377 32.6843 291.754 33.7247 294.265 36.0943C294.729 37.6243 293.656 41.1843 290.614 42.6843C290.601 42.094 290.656 41.4086 290.656 40.6843Z" fill="#E0426F"/>
<path d="M272.656 43.1843C279.652 43.5341 285.669 43.6392 291.049 44.1843M297.656 45.1843C295.553 44.7337 293.36 44.4184 291.049 44.1843M295.656 37.6843C295.238 37.0992 294.769 36.57 294.265 36.0943M291.049 44.1843C290.723 43.8396 290.629 43.3165 290.614 42.6843M290.614 42.6843C290.601 42.094 290.656 41.4086 290.656 40.6843C290.656 38.6843 289.656 34.6843 286.156 32.6843C288.377 32.6843 291.754 33.7247 294.265 36.0943M290.614 42.6843C293.656 41.1843 294.729 37.6243 294.265 36.0943" stroke="black" stroke-width="0.5"/>
<path d="M290.656 40.6843C286.156 40.6843 284.156 36.6843 283.156 34.1843" stroke="black" stroke-width="0.5"/>
<path d="M132.654 12.7843C119.154 16.7843 107.154 22.6843 93.1543 35.6843C100.154 23.6843 115.654 14.1843 131.154 9.18433L132.654 12.7843Z" fill="#EFC7D3" stroke="black" stroke-width="0.5"/>
<path d="M131.154 9.18433C111.154 14.8584 93.1543 32.1843 85.1543 30.1843C98.1543 20.6843 114.154 12.1843 130.654 7.68433L131.154 9.18433Z" fill="#EFC7D3" stroke="black" stroke-width="0.5"/>
<path d="M10.155 48.1843H4.15496C1.6543 52.1843 1.6543 62.1843 2.15496 65.6843C0.654297 66.6843 0.654894 71.1843 1.65496 72.6843L5.65496 73.1843V74.6843L1.65496 76.6843V78.6843C5.65496 79.6843 14.155 81.6843 22.155 81.1843V79.6843H39.655C38.9883 71.1843 40.655 60.6843 49.655 53.6843C47.155 49.6843 40.155 45.1843 37.155 44.6843C27.155 43.6843 12.155 46.1843 10.155 48.1843Z" fill="#EFC7D3" stroke="black" stroke-width="0.5"/>
<path d="M93.1562 35.6843C75.3229 36.5177 43.6562 41.3843 33.1562 44.3843L37.1562 44.6843C42.1562 46.1843 47.6562 50.5177 49.6562 53.6843C62.6553 44.1843 88.1553 51.1843 86.6553 78.6843H96.6553C89.6553 67.6843 90.6553 45.6843 93.1562 35.6843Z" fill="#EFC7D3" stroke="black" stroke-width="0.5"/>
<path d="M10.1543 48.1844H4.1543C36.6545 28.6843 58.6545 34.6843 84.6543 30.1843L93.6545 35.6843C76.6545 36.6843 47.6543 40.1843 33.6543 44.3843C25.6543 44.1843 11.6543 46.1843 10.1543 48.1844Z" fill="#EFC7D3" stroke="black" stroke-width="0.5"/>
<path d="M37.1558 44.6844C29.6558 43.6843 12.6558 45.6843 10.1558 48.1844C9.35575 50.5843 12.4891 53.5177 14.1558 54.6843C23.6558 56.1843 37.1558 50.1843 37.1558 44.6844Z" fill="#EFC7D3" stroke="black" stroke-width="0.5"/>
<path d="M4.15499 48.1843C11.155 49.1843 5.15499 59.6843 2.15499 64.6843C1.65492 57.6843 2.15479 52.1843 4.15499 48.1843Z" fill="#EFC7D3" stroke="black" stroke-width="0.5"/>
<path d="M22.1543 84.1843V79.6843H39.6543L40.1543 84.1843H22.1543Z" fill="#EFC7D3" stroke="black" stroke-width="0.5"/>
<path d="M2.65625 65.6843C4.15625 68.1843 6.15625 71.351 5.65625 73.1843M22.1562 79.6843C11.6562 80.1843 7.15625 76.1843 8.15625 72.6843C8.65625 72.1843 10.1562 70.6843 11.1562 70.6843" stroke="black" stroke-width="0.5"/>
<path d="M32.1562 74.6843C29.6562 70.6843 24.1562 65.6844 21.1562 64.1844C19.4062 63.6844 16.7811 63.8094 14.031 64.1844C12.4061 65.5177 11.1562 68.6843 11.6562 71.6843C11.6562 72.851 12.9637 75.1843 15.6562 75.1843C20.1562 75.1843 27.1562 75.6843 32.1562 74.6843Z" fill="#EFC7D3"/>
<path d="M6.15625 65.6844C8.40619 65.1844 11.2811 64.5594 14.031 64.1844M14.031 64.1844C16.7811 63.8094 19.4062 63.6844 21.1562 64.1844C24.1562 65.6844 29.6562 70.6843 32.1562 74.6843C27.1562 75.6843 20.1562 75.1843 15.6562 75.1843C12.9637 75.1843 11.6562 72.851 11.6562 71.6843C11.1562 68.6843 12.4061 65.5177 14.031 64.1844Z" stroke="black" stroke-width="0.5"/>
<path d="M11.6562 71.1844C19.6562 69.6844 23.1562 72.3129 26.1562 73.8129M13.1562 74.1844L30.6562 73.6844" stroke="black" stroke-width="0.5"/>
<path d="M22.1543 82.6843H31.6543C33.6543 82.6843 35.1543 80.6843 34.6543 79.6843M38.1543 79.6843V84.1843" stroke="black" stroke-width="0.5"/>
<path d="M22.1562 81.1846C17.6562 81.1846 13.1562 81.6846 1.6562 78.6846V76.6846L5.6562 74.6846V73.1846L1.6562 72.6846C1.15527 71.1843 0.155469 68.1843 2.15546 65.6843C1.65571 57.6843 2.15571 51.1843 4.1562 48.1841C36.6562 28.6845 58.6562 34.6845 84.6562 30.1845C162.656 -24.8156 244.656 12.1843 281.656 26.6845L295.156 28.6843L295.656 35.6843V38.6843C297.155 43.6843 298.49 48.1843 297.156 50.1843C299.656 51.1843 302.156 54.351 302.156 56.1843L300.156 66.1843C300.608 77.0322 298.2 77.2565 288.868 77.569C287.877 77.6021 285.808 77.6363 284.656 77.6843V79.1843L259.656 79.6154M22.1562 81.1846V84.1846H40.1545L39.6562 79.6846M22.1562 81.1846V79.6846H39.6562M39.6562 79.6846C36.6562 38.1846 90.1562 41.1846 86.6562 80.1846V82.6843H213.156C207.156 39.1843 261.656 39.1843 259.656 79.6154M259.155 79.6154H259.656" stroke="black"/>
</svg>
