<svg width="304" height="96" viewBox="0 0 304 96" fill="none" xmlns="http://www.w3.org/2000/svg">
<circle cx="63.0835" cy="74.3687" r="20.5" fill="#EDADBF" stroke="black"/>
<circle cx="236.083" cy="74.3687" r="20.5" fill="#EDADBF" stroke="black"/>
<path d="M133.082 12.8685L131.582 9.36851C171.582 1.36862 193.082 1.86865 232.082 13.3686L228.582 17.8686C208.582 9.86856 190.582 8.86856 174.582 8.36863C172.082 7.86863 168.082 7.86859 165.582 8.36851C155.582 8.36863 143.582 9.86863 133.082 12.8685Z" fill="#EDADBF" stroke="black" stroke-width="0.5"/>
<path d="M131.582 9.3687L131.082 7.8687C167.082 -3.13135 199.582 0.868526 235.082 9.8687L232.082 13.3687C192.082 0.868652 166.082 2.36865 131.582 9.3687Z" fill="#EDADBF" stroke="black" stroke-width="0.5"/>
<path d="M131.582 9.36876C183.082 -2.13126 211.582 7.86877 232.082 13.3688" stroke="black" stroke-width="0.5"/>
<path d="M171.083 30.3687L174.583 8.36865C208.083 9.36865 219.583 14.8687 224.083 16.3687L226.566 28.3687C199.576 28.3693 182.081 29.8688 171.083 30.3687Z" fill="#EDADBF"/>
<path d="M227.083 30.8687L224.083 16.3687C219.583 14.8687 208.083 9.36865 174.583 8.36865L171.083 30.3687C182.083 29.8687 199.583 28.3687 226.583 28.3687" stroke="black" stroke-width="0.5"/>
<path d="M165.583 8.36865C132.583 9.36865 112.583 18.3687 93.5835 35.8687L96.0835 33.8687L160.083 30.8687L165.583 8.36865Z" fill="#EDADBF" stroke="black" stroke-width="0.5"/>
<path d="M240.082 22.8687C236.415 20.202 230.582 17.8687 224.082 16.3687L226.582 28.3687H233.082C236.082 26.8687 239.082 24.6374 240.082 22.8687Z" fill="#EDADBF" stroke="black" stroke-width="0.5"/>
<path d="M97.0835 78.8687H164.083L198.583 77.3687H213.083L213.583 82.8687H199.583H98.5835H87.0835V78.8687H97.0835Z" fill="#EDADBF"/>
<path d="M97.0835 78.8687H164.083L198.583 77.3687M97.0835 78.8687C97.0835 80.3687 97.5835 81.3687 98.5835 82.8687M97.0835 78.8687H87.0835V82.8687H98.5835M198.583 77.3687L199.583 82.8687M198.583 77.3687H213.083L213.583 82.8687H199.583M199.583 82.8687H98.5835" stroke="black" stroke-width="0.5"/>
<path d="M97.0826 78.8687C92.5835 74.3687 89.5835 52.3687 93.5826 35.8687L165.583 31.8687C161.583 36.8687 160.583 70.8687 164.083 78.8687H97.0826Z" fill="#EDADBF" stroke="black" stroke-width="0.5"/>
<path d="M229.083 30.8687L165.583 31.8687C161.583 36.8687 160.583 70.8687 164.083 78.8687L198.583 77.3687C203.083 75.8687 209.583 70.3687 229.083 30.8687Z" fill="#EDADBF" stroke="black" stroke-width="0.5"/>
<path d="M171.083 30.3687C166.583 30.8687 163.083 30.8687 160.083 30.8687L165.583 8.36873C168.583 7.86865 171.583 7.86865 174.583 8.36873L171.083 30.3687Z" fill="#EDADBF" stroke="black" stroke-width="0.5"/>
<path d="M99.5835 32.3689C104.083 37.8689 111.083 34.3689 115.083 32.8689C116.083 17.3688 103.083 25.3688 99.5835 32.3689Z" fill="#EDADBF" stroke="black" stroke-width="0.5"/>
<path d="M235.082 9.86865L232.082 13.3687C249.082 18.8687 259.582 21.8687 272.082 28.3687H273.582L281.582 26.8687C266.582 20.3687 259.082 17.8687 235.082 9.86865Z" fill="#EFC7D3" stroke="black" stroke-width="0.5"/>
<path d="M272.082 28.3687C261.582 22.8687 242.582 16.3687 232.082 13.3687L230.082 15.8687L245.082 23.3687C243.582 25.8687 239.582 27.8687 233.582 30.5687C245.582 29.8687 262.582 28.8687 272.082 28.3687Z" fill="#EFC7D3" stroke="black" stroke-width="0.5"/>
<path d="M277.583 34.6687L283.582 32.3687L273.083 28.3687L229.083 30.8687C221.583 45.8687 206.583 76.3687 198.583 77.3687H213.083C211.583 66.3687 221.083 42.8687 246.083 51.8687C256.583 46.3687 266.583 40.8687 277.583 34.6687Z" fill="#EFC7D3" stroke="black" stroke-width="0.5"/>
<path d="M278.582 34.3687C266.582 40.8687 256.582 46.3687 246.082 51.8687C250.582 54.8687 261.082 60.8687 260.082 79.8687L285.082 79.3687V77.8687C293.582 76.8687 302.082 80.3687 300.582 66.3687L302.582 56.3687C302.582 54.8687 300.082 50.8687 297.582 50.3687C299.082 47.8687 296.082 38.8687 296.082 38.8687V37.3687L292.082 34.3687L287.082 32.8687L283.582 32.3687L278.582 34.3687Z" fill="#EFC7D3" stroke="black" stroke-width="0.5"/>
<path d="M281.582 26.8687L273.082 28.3687L283.582 32.3687C293.082 33.3687 292.081 34.8687 296.076 37.2888L295.582 28.8687L281.582 26.8687Z" fill="#EFC7D3"/>
<path d="M296.082 37.3687L296.076 37.2888M296.076 37.2888L295.582 28.8687L281.582 26.8687L273.082 28.3687L283.582 32.3687C293.082 33.3687 292.081 34.8687 296.076 37.2888Z" stroke="black" stroke-width="0.5"/>
<path d="M294.583 36.8689C294.083 34.3687 283.083 34.1687 277.583 34.6687" stroke="black" stroke-width="0.5"/>
<path d="M300.583 66.8687L261.083 68.8687C260.583 63.8687 258.417 59.702 256.583 57.8687L302.583 55.3687M301.083 52.8687C290.083 51.3687 279.083 46.5687 267.083 40.5687M229.083 30.8687L273.083 28.3687L281.583 26.8687" stroke="black" stroke-width="0.5"/>
<path d="M291.083 40.8687C291.083 38.8687 290.083 34.8687 286.583 32.8687C288.804 32.8687 292.181 33.909 294.692 36.2786C295.156 37.8086 294.083 41.3687 291.042 42.8687C291.028 42.2784 291.083 41.5929 291.083 40.8687Z" fill="#EFC7D3"/>
<path d="M273.083 43.3687C280.079 43.7184 286.096 43.8235 291.477 44.3687M298.083 45.3687C295.981 44.918 293.787 44.6028 291.477 44.3687M296.083 37.8687C295.666 37.2835 295.196 36.7543 294.692 36.2786M291.477 44.3687C291.15 44.0239 291.056 43.5008 291.042 42.8687M291.042 42.8687C291.028 42.2784 291.083 41.5929 291.083 40.8687C291.083 38.8687 290.083 34.8687 286.583 32.8687C288.804 32.8687 292.181 33.909 294.692 36.2786M291.042 42.8687C294.083 41.3687 295.156 37.8086 294.692 36.2786" stroke="black" stroke-width="0.5"/>
<path d="M291.083 40.8687C286.583 40.8687 284.583 36.8687 283.583 34.3687" stroke="black" stroke-width="0.5"/>
<path d="M133.082 12.9686C119.582 16.9686 107.582 22.8687 93.582 35.8687C100.582 23.8687 116.082 14.3687 131.582 9.36865L133.082 12.9686Z" fill="#E56E90" stroke="black" stroke-width="0.5"/>
<path d="M131.582 9.36865C111.582 15.0427 93.582 32.3687 85.582 30.3687C98.582 20.8687 114.582 12.3687 131.082 7.86865L131.582 9.36865Z" fill="#E56E90" stroke="black" stroke-width="0.5"/>
<path d="M10.5827 48.3685H4.5827C2.08203 52.3685 2.08203 62.3685 2.5827 65.8685C1.08203 66.8685 1.08263 71.3685 2.0827 72.8685L6.0827 73.3685V74.8685L2.0827 76.8685V78.8685C6.0827 79.8685 14.5827 81.8685 22.5827 81.3685V79.8685H40.0827C39.416 71.3685 41.0827 60.8685 50.0827 53.8685C47.5827 49.8685 40.5827 45.3685 37.5827 44.8685C27.5827 43.8685 12.5827 46.3685 10.5827 48.3685Z" fill="#E56E90" stroke="black" stroke-width="0.5"/>
<path d="M93.5835 35.8687C75.7502 36.702 44.0835 41.5687 33.5835 44.5687L37.5835 44.8687C42.5835 46.3687 48.0835 50.702 50.0835 53.8687C63.0825 44.3687 88.5825 51.3687 87.0825 78.8687H97.0825C90.0825 67.8687 91.0825 45.8687 93.5835 35.8687Z" fill="#E56E90" stroke="black" stroke-width="0.5"/>
<path d="M10.582 48.3687H4.58203C37.0822 28.8686 59.0823 34.8687 85.082 30.3687L94.0823 35.8687C77.0823 36.8687 48.082 40.3686 34.082 44.5687C26.082 44.3686 12.082 46.3686 10.582 48.3687Z" fill="#E56E90" stroke="black" stroke-width="0.5"/>
<path d="M37.5835 44.8687C30.0835 43.8687 13.0835 45.8687 10.5835 48.3687C9.78349 50.7687 12.9168 53.702 14.5835 54.8687C24.0835 56.3687 37.5835 50.3687 37.5835 44.8687Z" fill="#E56E90" stroke="black" stroke-width="0.5"/>
<path d="M4.58273 48.3687C11.5827 49.3687 5.58273 59.8687 2.58273 64.8687C2.08266 57.8687 2.58252 52.3687 4.58273 48.3687Z" fill="#E56E90" stroke="black" stroke-width="0.5"/>
<path d="M22.582 84.3687V79.8687H40.082L40.582 84.3687H22.582Z" fill="#E56E90" stroke="black" stroke-width="0.5"/>
<path d="M3.08398 65.8687C4.58398 68.3687 6.58398 71.5353 6.08398 73.3687M22.584 79.8687C12.084 80.3687 7.58398 76.3687 8.58398 72.8687C9.08398 72.3687 10.584 70.8687 11.584 70.8687" stroke="black" stroke-width="0.5"/>
<path d="M32.584 74.8688C30.084 70.8688 24.584 65.8689 21.584 64.3689C19.8339 63.8688 17.2088 63.9938 14.4588 64.3689C12.8338 65.7022 11.584 68.8688 12.084 71.8688C12.084 73.0354 13.3914 75.3688 16.084 75.3688C20.584 75.3688 27.584 75.8688 32.584 74.8688Z" fill="#E56E90"/>
<path d="M6.58398 65.8689C8.83393 65.3688 11.7088 64.7438 14.4588 64.3689M14.4588 64.3689C17.2088 63.9938 19.8339 63.8688 21.584 64.3689C24.584 65.8689 30.084 70.8688 32.584 74.8688C27.584 75.8688 20.584 75.3688 16.084 75.3688C13.3914 75.3688 12.084 73.0354 12.084 71.8688C11.584 68.8688 12.8338 65.7022 14.4588 64.3689Z" stroke="black" stroke-width="0.5"/>
<path d="M12.084 71.3688C20.084 69.8689 23.584 72.4974 26.584 73.9974M13.584 74.3689L31.084 73.8689" stroke="black" stroke-width="0.5"/>
<path d="M22.582 82.8687H32.082C34.082 82.8687 35.582 80.8687 35.082 79.8687M38.582 79.8687V84.3687" stroke="black" stroke-width="0.5"/>
<path d="M22.5834 81.3689C18.0834 81.3689 13.5834 81.8689 2.08344 78.8689V76.8689L6.08344 74.8689V73.3689L2.08344 72.8689C1.58252 71.3687 0.582715 68.3687 2.58271 65.8687C2.08295 57.8687 2.58295 51.3687 4.58344 48.3684C37.0834 28.8688 59.0834 34.8688 85.0834 30.3688C163.083 -24.6313 245.083 12.3686 282.083 26.8688L295.583 28.8687L296.083 35.8687V38.8687C297.582 43.8687 298.917 48.3687 297.583 50.3687C300.083 51.3687 302.583 54.5353 302.583 56.3687L300.583 66.3687C301.035 77.2166 298.627 77.4408 289.296 77.7533C288.305 77.7865 286.236 77.8206 285.083 77.8687V79.3687L260.083 79.7997M22.5834 81.3689V84.3689H40.5818L40.0835 79.8689M22.5834 81.3689V79.8689H40.0835M40.0835 79.8689C37.0835 38.3689 90.5834 41.3689 87.0834 80.3689V82.8687H213.583C207.583 39.3687 262.083 39.3687 260.083 79.7997M259.582 79.7997H260.083" stroke="black"/>
</svg>
