<svg width="303" height="95" viewBox="0 0 303 95" fill="none" xmlns="http://www.w3.org/2000/svg">
<circle cx="62.458" cy="73.8611" r="20.5" fill="#E0426F" stroke="black"/>
<circle cx="235.458" cy="73.8611" r="20.5" fill="#E0426F" stroke="black"/>
<path d="M132.456 12.3609L130.956 8.86094C170.956 0.861052 192.456 1.36108 231.456 12.861L227.956 17.361C207.956 9.36099 189.956 8.36099 173.956 7.86106C171.456 7.36106 167.456 7.36102 164.956 7.86094C154.956 7.86106 142.956 9.36106 132.456 12.3609Z" fill="#EDADBF" stroke="black" stroke-width="0.5"/>
<path d="M130.956 8.86113L130.456 7.36113C166.456 -3.63892 198.956 0.360958 234.456 9.36113L231.456 12.8611C191.456 0.361084 165.456 1.86108 130.956 8.86113Z" fill="#EDADBF" stroke="black" stroke-width="0.5"/>
<path d="M130.956 8.86095C182.456 -2.63908 210.956 7.36096 231.456 12.8609" stroke="black" stroke-width="0.5"/>
<path d="M170.458 29.8611L173.958 7.86108C207.458 8.86108 218.958 14.3611 223.458 15.8611L225.941 27.8611C198.951 27.8617 181.456 29.3612 170.458 29.8611Z" fill="#EDADBF"/>
<path d="M226.458 30.3611L223.458 15.8611C218.958 14.3611 207.458 8.86108 173.958 7.86108L170.458 29.8611C181.458 29.3611 198.958 27.8611 225.958 27.8611" stroke="black" stroke-width="0.5"/>
<path d="M164.958 7.86108C131.958 8.86108 111.958 17.8611 92.958 35.3611L95.458 33.3611L159.458 30.3611L164.958 7.86108Z" fill="#EDADBF" stroke="black" stroke-width="0.5"/>
<path d="M239.456 22.3611C235.789 19.6944 229.956 17.3611 223.456 15.8611L225.956 27.8611H232.456C235.456 26.3611 238.456 24.1298 239.456 22.3611Z" fill="#EDADBF" stroke="black" stroke-width="0.5"/>
<path d="M96.458 78.3611H163.458L197.958 76.8611H212.458L212.958 82.3611H198.958H97.958H86.458V78.3611H96.458Z" fill="#EDADBF"/>
<path d="M96.458 78.3611H163.458L197.958 76.8611M96.458 78.3611C96.458 79.8611 96.958 80.8611 97.958 82.3611M96.458 78.3611H86.458V82.3611H97.958M197.958 76.8611L198.958 82.3611M197.958 76.8611H212.458L212.958 82.3611H198.958M198.958 82.3611H97.958" stroke="black" stroke-width="0.5"/>
<path d="M96.4571 78.3611C91.958 73.8611 88.9581 51.8611 92.9571 35.3611L164.958 31.3611C160.958 36.3611 159.958 70.3611 163.458 78.3611H96.4571Z" fill="#EDADBF" stroke="black" stroke-width="0.5"/>
<path d="M228.458 30.3611L164.958 31.3611C160.958 36.3611 159.958 70.3611 163.458 78.3611L197.958 76.8611C202.458 75.3611 208.958 69.8611 228.458 30.3611Z" fill="#EDADBF" stroke="black" stroke-width="0.5"/>
<path d="M170.458 29.8612C165.958 30.3612 162.458 30.3612 159.458 30.3612L164.958 7.86116C167.958 7.36108 170.958 7.36108 173.958 7.86116L170.458 29.8612Z" fill="#EDADBF" stroke="black" stroke-width="0.5"/>
<path d="M98.958 31.8611C103.458 37.3611 110.458 33.8611 114.458 32.3611C115.458 16.861 102.458 24.861 98.958 31.8611Z" fill="#EDADBF" stroke="black" stroke-width="0.5"/>
<path d="M234.456 9.36108L231.456 12.8611C248.456 18.3611 258.956 21.3611 271.456 27.8611H272.956L280.956 26.3611C265.956 19.8611 258.456 17.3611 234.456 9.36108Z" fill="#E56E90" stroke="black" stroke-width="0.5"/>
<path d="M271.456 27.8611C260.956 22.3611 241.956 15.8611 231.456 12.8611L229.456 15.3611L244.456 22.8611C242.956 25.3611 238.956 27.3611 232.956 30.0611C244.956 29.3611 261.956 28.3611 271.456 27.8611Z" fill="#E56E90" stroke="black" stroke-width="0.5"/>
<path d="M276.958 34.1611L282.956 31.8611L272.457 27.8611L228.457 30.3611C220.957 45.3611 205.957 75.8611 197.957 76.8611H212.457C210.957 65.8611 220.457 42.3611 245.458 51.3611C255.958 45.8611 265.958 40.3611 276.958 34.1611Z" fill="#E56E90" stroke="black" stroke-width="0.5"/>
<path d="M277.956 33.8611C265.956 40.3611 255.956 45.8611 245.456 51.3611C249.956 54.3611 260.456 60.3611 259.456 79.3611L284.456 78.8611V77.3611C292.956 76.3611 301.456 79.8611 299.956 65.8611L301.956 55.8611C301.956 54.3611 299.456 50.3611 296.956 49.8611C298.456 47.3611 295.456 38.3611 295.456 38.3611V36.8611L291.456 33.8611L286.456 32.3611L282.956 31.8611L277.956 33.8611Z" fill="#E56E90" stroke="black" stroke-width="0.5"/>
<path d="M280.956 26.3611L272.456 27.8611L282.956 31.8611C292.456 32.8611 291.455 34.3611 295.45 36.7813L294.956 28.3611L280.956 26.3611Z" fill="#E56E90"/>
<path d="M295.456 36.8611L295.45 36.7813M295.45 36.7813L294.956 28.3611L280.956 26.3611L272.456 27.8611L282.956 31.8611C292.456 32.8611 291.455 34.3611 295.45 36.7813Z" stroke="black" stroke-width="0.5"/>
<path d="M293.958 36.3613C293.458 33.8612 282.458 33.6611 276.958 34.1611" stroke="black" stroke-width="0.5"/>
<path d="M299.958 66.3611L260.458 68.3611C259.958 63.3611 257.791 59.1944 255.958 57.3611L301.958 54.8611M300.458 52.3611C289.458 50.8611 278.458 46.0611 266.458 40.0611M228.458 30.3611L272.458 27.8611L280.958 26.3611" stroke="black" stroke-width="0.5"/>
<path d="M290.458 40.3611C290.458 38.3611 289.458 34.3611 285.958 32.3611C288.179 32.3611 291.556 33.4015 294.067 35.7711C294.531 37.3011 293.458 40.8611 290.416 42.3611C290.403 41.7708 290.458 41.0854 290.458 40.3611Z" fill="#E56E90"/>
<path d="M272.458 42.8611C279.454 43.2109 285.471 43.316 290.851 43.8611M297.458 44.8611C295.355 44.4104 293.162 44.0952 290.851 43.8611M295.458 37.3611C295.04 36.776 294.571 36.2467 294.067 35.7711M290.851 43.8611C290.525 43.5163 290.431 42.9933 290.416 42.3611M290.416 42.3611C290.403 41.7708 290.458 41.0854 290.458 40.3611C290.458 38.3611 289.458 34.3611 285.958 32.3611C288.179 32.3611 291.556 33.4015 294.067 35.7711M290.416 42.3611C293.458 40.8611 294.531 37.3011 294.067 35.7711" stroke="black" stroke-width="0.5"/>
<path d="M290.458 40.3611C285.958 40.3611 283.958 36.3611 282.958 33.8611" stroke="black" stroke-width="0.5"/>
<path d="M132.456 12.4611C118.956 16.4611 106.956 22.3611 92.9561 35.3611C99.9561 23.3611 115.456 13.8611 130.956 8.86108L132.456 12.4611Z" stroke="black" stroke-width="0.5"/>
<path d="M130.956 8.86108C110.956 14.5351 92.9561 31.8611 84.9561 29.8611C97.9561 20.3611 113.956 11.8611 130.456 7.36108L130.956 8.86108Z" stroke="black" stroke-width="0.5"/>
<path d="M9.95672 47.861H3.95672C1.45605 51.861 1.45605 61.861 1.95672 65.361C0.456055 66.361 0.456652 70.861 1.45672 72.361L5.45672 72.861V74.361L1.45672 76.361V78.361C5.45672 79.361 13.9567 81.361 21.9567 80.861V79.361H39.4567C38.7901 70.861 40.4567 60.361 49.4567 53.361C46.9567 49.361 39.9567 44.861 36.9567 44.361C26.9567 43.361 11.9567 45.861 9.95672 47.861Z" stroke="black" stroke-width="0.5"/>
<path d="M92.958 35.3611C75.1247 36.1944 43.458 41.0611 32.958 44.0611L36.958 44.3611C41.958 45.8611 47.458 50.1944 49.458 53.3611C62.457 43.8611 87.957 50.8611 86.457 78.3611H96.457C89.457 67.3611 90.457 45.3611 92.958 35.3611Z" stroke="black" stroke-width="0.5"/>
<path d="M9.95606 47.8611H3.95605C36.4562 28.361 58.4563 34.3611 84.4561 29.8611L93.4563 35.3611C76.4563 36.3611 47.4561 39.8611 33.4561 44.0611C25.4561 43.8611 11.4561 45.8611 9.95606 47.8611Z" stroke="black" stroke-width="0.5"/>
<path d="M36.9575 44.3612C29.4575 43.3611 12.4575 45.3611 9.95751 47.8612C9.15751 50.2611 12.2908 53.1944 13.9575 54.3611C23.4575 55.8611 36.9575 49.8611 36.9575 44.3612Z" stroke="black" stroke-width="0.5"/>
<path d="M3.95675 47.8611C10.9568 48.8611 4.95675 59.3611 1.95675 64.3611C1.45668 57.3611 1.95654 51.8611 3.95675 47.8611Z" stroke="black" stroke-width="0.5"/>
<path d="M21.9561 83.8611V79.3611H39.4561L39.9561 83.8611H21.9561Z" stroke="black" stroke-width="0.5"/>
<path d="M2.45801 65.3608C3.95801 67.8608 5.95801 71.0275 5.45801 72.8608M21.958 79.3608C11.458 79.8608 6.95801 75.8608 7.95801 72.3608C8.45801 71.8608 9.95801 70.3608 10.958 70.3608" stroke="black" stroke-width="0.5"/>
<path d="M5.95801 65.361C8.20795 64.861 11.0829 64.236 13.8328 63.861M13.8328 63.861C16.5829 63.486 19.208 63.361 20.958 63.861C23.958 65.361 29.458 70.361 31.958 74.361C26.958 75.361 19.958 74.861 15.458 74.861C12.7654 74.861 11.458 72.5276 11.458 71.361C10.958 68.361 12.2079 65.1943 13.8328 63.861Z" stroke="black" stroke-width="0.5"/>
<path d="M11.458 70.861C19.458 69.3611 22.958 71.9896 25.958 73.4896M12.958 73.8611L30.458 73.3611" stroke="black" stroke-width="0.5"/>
<path d="M21.9561 82.3608H31.4561C33.4561 82.3608 34.9561 80.3608 34.4561 79.3608M37.9561 79.3608V83.8608" stroke="black" stroke-width="0.5"/>
<path d="M21.958 80.8613C17.458 80.8613 12.958 81.3613 1.45795 78.3613V76.3613L5.45795 74.3613V72.8613L1.45795 72.3613C0.957031 70.8611 -0.0427729 67.8611 1.95722 65.3611C1.45747 57.3611 1.95747 50.8611 3.95795 47.8608C36.458 28.3612 58.4579 34.3613 84.4579 29.8613C162.458 -25.1388 244.458 11.8611 281.458 26.3613L294.958 28.3611L295.458 35.3611V38.3611C296.956 43.3611 298.291 47.8611 296.958 49.8611C299.458 50.8611 301.958 54.0278 301.958 55.8611L299.958 65.8611C300.41 76.709 298.002 76.9333 288.67 77.2457C287.679 77.2789 285.61 77.3131 284.458 77.3611V78.8611L259.458 79.2921M21.958 80.8613V83.8613H39.9563L39.458 79.3613M21.958 80.8613V79.3613H39.458M39.458 79.3613C36.458 37.8613 89.9579 40.8613 86.4579 79.8613V82.3611H212.958C206.958 38.8611 261.458 38.8611 259.458 79.2921M258.956 79.2921H259.458" stroke="black"/>
</svg>
