<svg width="303" height="95" viewBox="0 0 303 95" fill="none" xmlns="http://www.w3.org/2000/svg">
<circle cx="62.6772" cy="73.7222" r="20.5" stroke="black"/>
<circle cx="235.678" cy="73.7222" r="20.5" stroke="black"/>
<path d="M132.676 12.222L131.176 8.72202C171.176 0.722136 192.676 1.22217 231.676 12.7221L228.176 17.2221C208.176 9.22208 190.176 8.22208 174.176 7.72215C171.676 7.22215 167.676 7.22211 165.176 7.72202C155.176 7.72215 143.176 9.22215 132.676 12.222Z" fill="#E0426F" stroke="black" stroke-width="0.5"/>
<path d="M131.176 8.72221L130.676 7.22221C166.676 -3.77783 199.176 0.222042 234.676 9.22221L231.676 12.7222C191.676 0.222168 165.676 1.72217 131.176 8.72221Z" fill="#E0426F" stroke="black" stroke-width="0.5"/>
<path d="M131.176 8.72228C182.676 -2.77775 211.176 7.22229 231.676 12.7223" stroke="black" stroke-width="0.5"/>
<path d="M170.677 29.7222L174.177 7.72217C207.677 8.72217 219.177 14.2222 223.677 15.7222L226.16 27.7222C199.17 27.7228 181.675 29.2223 170.677 29.7222Z" fill="#E0426F"/>
<path d="M226.677 30.2222L223.677 15.7222C219.177 14.2222 207.677 8.72217 174.177 7.72217L170.677 29.7222C181.677 29.2222 199.177 27.7222 226.177 27.7222" stroke="black" stroke-width="0.5"/>
<path d="M165.177 7.72217C132.177 8.72217 112.177 17.7222 93.1772 35.2222L95.6772 33.2222L159.677 30.2222L165.177 7.72217Z" fill="#E0426F" stroke="black" stroke-width="0.5"/>
<path d="M239.676 22.2222C236.009 19.5555 230.176 17.2222 223.676 15.7222L226.176 27.7222H232.676C235.676 26.2222 238.676 23.9909 239.676 22.2222Z" fill="#E0426F" stroke="black" stroke-width="0.5"/>
<path d="M96.6772 78.2222H163.677L198.177 76.7222H212.677L213.177 82.2222H199.177H98.1772H86.6772V78.2222H96.6772Z" fill="#E0426F"/>
<path d="M96.6772 78.2222H163.677L198.177 76.7222M96.6772 78.2222C96.6772 79.7222 97.1772 80.7222 98.1772 82.2222M96.6772 78.2222H86.6772V82.2222H98.1772M198.177 76.7222L199.177 82.2222M198.177 76.7222H212.677L213.177 82.2222H199.177M199.177 82.2222H98.1772" stroke="black" stroke-width="0.5"/>
<path d="M96.6764 78.2222C92.1772 73.7222 89.1773 51.7222 93.1764 35.2222L165.177 31.2222C161.177 36.2222 160.177 70.2222 163.677 78.2222H96.6764Z" fill="#E0426F" stroke="black" stroke-width="0.5"/>
<path d="M228.677 30.2222L165.177 31.2222C161.177 36.2222 160.177 70.2222 163.677 78.2222L198.177 76.7222C202.677 75.2222 209.177 69.7222 228.677 30.2222Z" fill="#E0426F" stroke="black" stroke-width="0.5"/>
<path d="M170.677 29.7222C166.177 30.2222 162.677 30.2222 159.677 30.2222L165.177 7.72224C168.177 7.22217 171.177 7.22217 174.177 7.72224L170.677 29.7222Z" fill="#E0426F" stroke="black" stroke-width="0.5"/>
<path d="M99.1772 31.7224C103.677 37.2224 110.677 33.7224 114.677 32.2224C115.677 16.7223 102.677 24.7223 99.1772 31.7224Z" fill="#E0426F" stroke="black" stroke-width="0.5"/>
<path d="M234.676 9.22217L231.676 12.7222C248.676 18.2222 259.176 21.2222 271.676 27.7222H273.176L281.176 26.2222C266.176 19.7222 258.676 17.2222 234.676 9.22217Z" fill="#EDADBF" stroke="black" stroke-width="0.5"/>
<path d="M271.676 27.7222C261.176 22.2222 242.176 15.7222 231.676 12.7222L229.676 15.2222L244.676 22.7222C243.176 25.2222 239.176 27.2222 233.176 29.9222C245.176 29.2222 262.176 28.2222 271.676 27.7222Z" fill="#EDADBF" stroke="black" stroke-width="0.5"/>
<path d="M277.178 34.0222L283.176 31.7222L272.677 27.7222L228.677 30.2222C221.177 45.2222 206.177 75.7222 198.177 76.7222H212.677C211.177 65.7222 220.677 42.2222 245.678 51.2222C256.178 45.7222 266.178 40.2222 277.178 34.0222Z" fill="#EDADBF" stroke="black" stroke-width="0.5"/>
<path d="M278.176 33.7222C266.176 40.2222 256.176 45.7222 245.676 51.2222C250.176 54.2222 260.676 60.2222 259.676 79.2222L284.676 78.7222V77.2222C293.176 76.2222 301.676 79.7222 300.176 65.7222L302.176 55.7222C302.176 54.2222 299.676 50.2222 297.176 49.7222C298.676 47.2222 295.676 38.2222 295.676 38.2222V36.7222L291.676 33.7222L286.676 32.2222L283.176 31.7222L278.176 33.7222Z" fill="#EDADBF" stroke="black" stroke-width="0.5"/>
<path d="M281.176 26.2222L272.676 27.7222L283.176 31.7222C292.676 32.7222 291.675 34.2222 295.67 36.6423L295.176 28.2222L281.176 26.2222Z" fill="#EDADBF"/>
<path d="M295.676 36.7222L295.67 36.6423M295.67 36.6423L295.176 28.2222L281.176 26.2222L272.676 27.7222L283.176 31.7222C292.676 32.7222 291.675 34.2222 295.67 36.6423Z" stroke="black" stroke-width="0.5"/>
<path d="M294.178 36.2224C293.678 33.7223 282.678 33.5222 277.178 34.0222" stroke="black" stroke-width="0.5"/>
<path d="M300.178 66.2222L260.678 68.2222C260.178 63.2222 258.011 59.0555 256.178 57.2222L302.178 54.7222M300.678 52.2222C289.678 50.7222 278.678 45.9222 266.678 39.9222M228.678 30.2222L272.678 27.7222L281.178 26.2222" stroke="black" stroke-width="0.5"/>
<path d="M290.678 40.2222C290.678 38.2222 289.678 34.2222 286.178 32.2222C288.399 32.2222 291.775 33.2626 294.287 35.6322C294.75 37.1622 293.678 40.7222 290.636 42.2222C290.622 41.6319 290.678 40.9465 290.678 40.2222Z" fill="#EDADBF"/>
<path d="M272.678 42.7222C279.673 43.072 285.69 43.177 291.071 43.7222M297.678 44.7222C295.575 44.2715 293.381 43.9563 291.071 43.7222M295.678 37.2222C295.26 36.637 294.791 36.1078 294.287 35.6322M291.071 43.7222C290.745 43.3774 290.651 42.8544 290.636 42.2222M290.636 42.2222C290.622 41.6319 290.678 40.9465 290.678 40.2222C290.678 38.2222 289.678 34.2222 286.178 32.2222C288.399 32.2222 291.775 33.2626 294.287 35.6322M290.636 42.2222C293.678 40.7222 294.75 37.1622 294.287 35.6322" stroke="black" stroke-width="0.5"/>
<path d="M290.678 40.2222C286.178 40.2222 284.178 36.2222 283.178 33.7222" stroke="black" stroke-width="0.5"/>
<path d="M132.676 12.3221C119.176 16.3221 107.176 22.2222 93.1758 35.2222C100.176 23.2222 115.676 13.7222 131.176 8.72217L132.676 12.3221Z" fill="#EFC7D3" stroke="black" stroke-width="0.5"/>
<path d="M131.176 8.72217C111.176 14.3962 93.1758 31.7222 85.1758 29.7222C98.1758 20.2222 114.176 11.7222 130.676 7.22217L131.176 8.72217Z" fill="#EFC7D3" stroke="black" stroke-width="0.5"/>
<path d="M10.1764 47.7221H4.17645C1.67578 51.722 1.67578 61.722 2.17645 65.222C0.675781 66.222 0.676379 70.722 1.67645 72.222L5.67645 72.722V74.222L1.67645 76.222V78.222C5.67645 79.222 14.1764 81.222 22.1764 80.722V79.222H39.6764C39.0098 70.722 40.6764 60.222 49.6764 53.222C47.1764 49.222 40.1764 44.722 37.1764 44.2221C27.1764 43.222 12.1764 45.7221 10.1764 47.7221Z" fill="#EFC7D3" stroke="black" stroke-width="0.5"/>
<path d="M93.1772 35.2222C75.3439 36.0555 43.6772 40.9222 33.1772 43.9222L37.1772 44.2222C42.1772 45.7222 47.6772 50.0555 49.6772 53.2222C62.6763 43.7222 88.1763 50.7222 86.6763 78.2222H96.6763C89.6763 67.2222 90.6763 45.2222 93.1772 35.2222Z" fill="#EFC7D3" stroke="black" stroke-width="0.5"/>
<path d="M10.1758 47.7222H4.17578C36.676 28.2221 58.676 34.2222 84.6758 29.7222L93.676 35.2222C76.676 36.2222 47.6758 39.7222 33.6758 43.9222C25.6758 43.7222 11.6758 45.7222 10.1758 47.7222Z" fill="#EFC7D3" stroke="black" stroke-width="0.5"/>
<path d="M37.1772 44.2222C29.6772 43.2222 12.6772 45.2222 10.1772 47.7222C9.37724 50.1222 12.5106 53.0555 14.1772 54.2222C23.6772 55.7222 37.1772 49.7222 37.1772 44.2222Z" fill="#EFC7D3" stroke="black" stroke-width="0.5"/>
<path d="M4.17648 47.7222C11.1765 48.7222 5.17648 59.2222 2.17648 64.2222C1.67641 57.2222 2.17627 51.7222 4.17648 47.7222Z" fill="#EFC7D3" stroke="black" stroke-width="0.5"/>
<path d="M22.1758 83.7222V79.2222H39.6758L40.1758 83.7222H22.1758Z" fill="#EFC7D3" stroke="black" stroke-width="0.5"/>
<path d="M2.67773 65.2222C4.17773 67.7222 6.17773 70.8888 5.67773 72.7222M22.1777 79.2222C11.6777 79.7222 7.17773 75.7222 8.17773 72.2222C8.67773 71.7222 10.1777 70.2222 11.1777 70.2222" stroke="black" stroke-width="0.5"/>
<path d="M32.1777 74.2223C29.6777 70.2223 24.1777 65.2224 21.1777 63.7224C19.4277 63.2224 16.8026 63.3474 14.0525 63.7224C12.4276 65.0557 11.1777 68.2223 11.6777 71.2223C11.6777 72.389 12.9852 74.7223 15.6777 74.7223C20.1777 74.7223 27.1777 75.2223 32.1777 74.2223Z" fill="#EFC7D3"/>
<path d="M6.17773 65.2224C8.42768 64.7223 11.3026 64.0974 14.0525 63.7224M14.0525 63.7224C16.8026 63.3474 19.4277 63.2224 21.1777 63.7224C24.1777 65.2224 29.6777 70.2223 32.1777 74.2223C27.1777 75.2223 20.1777 74.7223 15.6777 74.7223C12.9852 74.7223 11.6777 72.389 11.6777 71.2223C11.1777 68.2223 12.4276 65.0557 14.0525 63.7224Z" stroke="black" stroke-width="0.5"/>
<path d="M11.6777 70.7224C19.6777 69.2224 23.1777 71.8509 26.1777 73.3509M13.1777 73.7224L30.6777 73.2224" stroke="black" stroke-width="0.5"/>
<path d="M22.1758 82.2222H31.6758C33.6758 82.2222 35.1758 80.2222 34.6758 79.2222M38.1758 79.2222V83.7222" stroke="black" stroke-width="0.5"/>
<path d="M22.1772 80.7224C17.6772 80.7224 13.1772 81.2224 1.67719 78.2224V76.2224L5.67719 74.2224V72.7224L1.67719 72.2224C1.17627 70.7222 0.176465 67.7222 2.17646 65.2222C1.6767 57.2222 2.1767 50.7222 4.17719 47.7219C36.6772 28.2223 58.6772 34.2224 84.6772 29.7224C162.677 -25.2778 244.677 11.7222 281.677 26.2223L295.177 28.2222L295.677 35.2222V38.2222C297.176 43.2222 298.511 47.7222 297.177 49.7222C299.677 50.7222 302.177 53.8888 302.177 55.7222L300.177 65.7222C300.629 76.5701 298.221 76.7944 288.889 77.1068C287.898 77.14 285.829 77.1742 284.677 77.2222V78.7222L259.677 79.1532M22.1772 80.7224V83.7224H40.1755L39.6772 79.2224M22.1772 80.7224V79.2224H39.6772M39.6772 79.2224C36.6772 37.7224 90.1772 40.7224 86.6772 79.7224V82.2222H213.177C207.177 38.7222 261.677 38.7222 259.677 79.1532M259.176 79.1532H259.677" stroke="black"/>
</svg>
