<svg width="303" height="96" viewBox="0 0 303 96" fill="none" xmlns="http://www.w3.org/2000/svg">
<circle cx="62.6978" cy="74.1995" r="20.5" stroke="black"/>
<circle cx="235.698" cy="74.1995" r="20.5" stroke="black"/>
<path d="M132.696 12.6993L131.196 9.19932C171.196 1.19943 192.696 1.69946 231.696 13.1994L228.196 17.6994C208.196 9.69937 190.196 8.69937 174.196 8.19944C171.696 7.69944 167.696 7.6994 165.196 8.19932C155.196 8.19944 143.196 9.69944 132.696 12.6993Z" fill="#EDADBF" stroke="black" stroke-width="0.5"/>
<path d="M131.196 9.19951L130.696 7.69951C166.696 -3.30054 199.196 0.699337 234.696 9.69951L231.696 13.1995C191.696 0.699463 165.696 2.19946 131.196 9.19951Z" fill="#EDADBF" stroke="black" stroke-width="0.5"/>
<path d="M131.196 9.19933C182.696 -2.3007 211.196 7.69934 231.696 13.1993" stroke="black" stroke-width="0.5"/>
<path d="M170.698 30.1995L174.198 8.19946C207.698 9.19946 219.198 14.6995 223.698 16.1995L226.181 28.1995C199.19 28.2001 181.695 29.6996 170.698 30.1995Z" fill="#EDADBF"/>
<path d="M226.698 30.6995L223.698 16.1995C219.198 14.6995 207.698 9.19946 174.198 8.19946L170.698 30.1995C181.698 29.6995 199.198 28.1995 226.198 28.1995" stroke="black" stroke-width="0.5"/>
<path d="M165.198 8.19946C132.198 9.19946 112.198 18.1995 93.1978 35.6995L95.6978 33.6995L159.698 30.6995L165.198 8.19946Z" fill="#EDADBF" stroke="black" stroke-width="0.5"/>
<path d="M239.696 22.6995C236.03 20.0328 230.196 17.6995 223.696 16.1995L226.196 28.1995H232.696C235.696 26.6995 238.696 24.4682 239.696 22.6995Z" fill="#EDADBF" stroke="black" stroke-width="0.5"/>
<path d="M96.6978 78.6995H163.698L198.198 77.1995H212.698L213.198 82.6995H199.198H98.1978H86.6978V78.6995H96.6978Z" fill="#EDADBF"/>
<path d="M96.6978 78.6995H163.698L198.198 77.1995M96.6978 78.6995C96.6978 80.1995 97.1978 81.1995 98.1978 82.6995M96.6978 78.6995H86.6978V82.6995H98.1978M198.198 77.1995L199.198 82.6995M198.198 77.1995H212.698L213.198 82.6995H199.198M199.198 82.6995H98.1978" stroke="black" stroke-width="0.5"/>
<path d="M96.6969 78.6995C92.1977 74.1995 89.1978 52.1995 93.1969 35.6995L165.198 31.6995C161.198 36.6995 160.198 70.6995 163.698 78.6995H96.6969Z" fill="#EDADBF" stroke="black" stroke-width="0.5"/>
<path d="M228.697 30.6995L165.197 31.6995C161.197 36.6995 160.198 70.6995 163.697 78.6995L198.197 77.1995C202.697 75.6995 209.197 70.1995 228.697 30.6995Z" fill="#EDADBF" stroke="black" stroke-width="0.5"/>
<path d="M170.698 30.1995C166.198 30.6995 162.698 30.6995 159.698 30.6995L165.198 8.19954C168.198 7.69946 171.198 7.69946 174.198 8.19954L170.698 30.1995Z" fill="#EDADBF" stroke="black" stroke-width="0.5"/>
<path d="M99.1978 32.1995C103.698 37.6995 110.698 34.1995 114.698 32.6995C115.698 17.1994 102.698 25.1993 99.1978 32.1995Z" fill="#EDADBF" stroke="black" stroke-width="0.5"/>
<path d="M234.696 9.69946L231.696 13.1995C248.696 18.6995 259.196 21.6995 271.696 28.1995H273.196L281.196 26.6995C266.196 20.1995 258.696 17.6995 234.696 9.69946Z" stroke="black" stroke-width="0.5"/>
<path d="M271.696 28.1995C261.196 22.6995 242.196 16.1995 231.696 13.1995L229.696 15.6995L244.696 23.1995C243.196 25.6995 239.196 27.6995 233.196 30.3995C245.196 29.6995 262.196 28.6995 271.696 28.1995Z" stroke="black" stroke-width="0.5"/>
<path d="M277.198 34.4995L283.196 32.1995L272.697 28.1995L228.697 30.6995C221.197 45.6995 206.197 76.1995 198.197 77.1995H212.697C211.197 66.1995 220.697 42.6995 245.698 51.6995C256.198 46.1995 266.198 40.6995 277.198 34.4995Z" stroke="black" stroke-width="0.5"/>
<path d="M278.196 34.1995C266.196 40.6995 256.196 46.1995 245.696 51.6995C250.196 54.6995 260.696 60.6995 259.696 79.6995L284.696 79.1995V77.6995C293.196 76.6995 301.696 80.1995 300.196 66.1995L302.196 56.1995C302.196 54.6995 299.696 50.6995 297.196 50.1995C298.696 47.6995 295.696 38.6995 295.696 38.6995V37.1995L291.696 34.1995L286.696 32.6995L283.196 32.1995L278.196 34.1995Z" stroke="black" stroke-width="0.5"/>
<path d="M295.696 37.1995L295.69 37.1196M295.69 37.1196L295.196 28.6995L281.196 26.6995L272.696 28.1995L283.196 32.1995C292.696 33.1995 291.695 34.6995 295.69 37.1196Z" stroke="black" stroke-width="0.5"/>
<path d="M294.198 36.6997C293.698 34.1996 282.698 33.9995 277.198 34.4995" stroke="black" stroke-width="0.5"/>
<path d="M300.198 66.6995L260.698 68.6995C260.198 63.6995 258.031 59.5328 256.198 57.6995L302.198 55.1995M300.698 52.6995C289.698 51.1995 278.698 46.3995 266.698 40.3995M228.698 30.6995L272.698 28.1995L281.198 26.6995" stroke="black" stroke-width="0.5"/>
<path d="M272.698 43.1995C279.693 43.5492 285.71 43.6543 291.091 44.1995M297.698 45.1995C295.595 44.7488 293.402 44.4336 291.091 44.1995M295.698 37.6995C295.28 37.1143 294.811 36.5851 294.307 36.1094M291.091 44.1995C290.765 43.8547 290.671 43.3317 290.656 42.6995M290.656 42.6995C290.642 42.1092 290.698 41.4238 290.698 40.6995C290.698 38.6995 289.698 34.6995 286.198 32.6995C288.419 32.6995 291.795 33.7399 294.307 36.1094M290.656 42.6995C293.698 41.1995 294.77 37.6395 294.307 36.1094" stroke="black" stroke-width="0.5"/>
<path d="M290.698 40.6995C286.198 40.6995 284.198 36.6995 283.198 34.1995" stroke="black" stroke-width="0.5"/>
<path d="M132.696 12.7994C119.196 16.7994 107.196 22.6995 93.1963 35.6995C100.196 23.6995 115.696 14.1995 131.196 9.19946L132.696 12.7994Z" fill="#EDADBF" stroke="black" stroke-width="0.5"/>
<path d="M131.196 9.19946C111.196 14.8735 93.1963 32.1995 85.1963 30.1995C98.1963 20.6995 114.196 12.1995 130.696 7.69946L131.196 9.19946Z" fill="#EDADBF" stroke="black" stroke-width="0.5"/>
<path d="M10.197 48.1993H4.19696C1.69629 52.1993 1.69629 62.1993 2.19696 65.6993C0.696289 66.6993 0.696887 71.1993 1.69696 72.6993L5.69696 73.1993V74.6993L1.69696 76.6993V78.6993C5.69696 79.6993 14.197 81.6993 22.197 81.1993V79.6993H39.697C39.0303 71.1993 40.697 60.6993 49.697 53.6993C47.197 49.6993 40.197 45.1993 37.197 44.6993C27.197 43.6993 12.197 46.1993 10.197 48.1993Z" fill="#EDADBF" stroke="black" stroke-width="0.5"/>
<path d="M93.1978 35.6995C75.3644 36.5328 43.6978 41.3995 33.1978 44.3995L37.1978 44.6995C42.1978 46.1995 47.6978 50.5328 49.6978 53.6995C62.6968 44.1995 88.1968 51.1995 86.6968 78.6995H96.6968C89.6968 67.6995 90.6968 45.6995 93.1978 35.6995Z" fill="#EDADBF" stroke="black" stroke-width="0.5"/>
<path d="M10.1963 48.1995H4.19629C36.6965 28.6994 58.6965 34.6995 84.6963 30.1995L93.6965 35.6995C76.6965 36.6995 47.6963 40.1995 33.6963 44.3995C25.6963 44.1995 11.6963 46.1995 10.1963 48.1995Z" fill="#EDADBF" stroke="black" stroke-width="0.5"/>
<path d="M37.1977 44.6995C29.6977 43.6995 12.6977 45.6995 10.1977 48.1995C9.39774 50.5995 12.5311 53.5328 14.1977 54.6995C23.6978 56.1995 37.1977 50.1995 37.1977 44.6995Z" fill="#EDADBF" stroke="black" stroke-width="0.5"/>
<path d="M4.19698 48.1995C11.197 49.1995 5.19698 59.6995 2.19698 64.6995C1.69691 57.6995 2.19678 52.1995 4.19698 48.1995Z" fill="#EDADBF" stroke="black" stroke-width="0.5"/>
<path d="M22.1963 84.1995V79.6995H39.6963L40.1963 84.1995H22.1963Z" fill="#EDADBF" stroke="black" stroke-width="0.5"/>
<path d="M2.69824 65.6992C4.19824 68.1992 6.19824 71.3659 5.69824 73.1992M22.1982 79.6992C11.6982 80.1992 7.19824 76.1992 8.19824 72.6992C8.69824 72.1992 10.1982 70.6992 11.1982 70.6992" stroke="black" stroke-width="0.5"/>
<path d="M32.1982 74.6993C29.6982 70.6993 24.1982 65.6994 21.1982 64.1994C19.4482 63.6994 16.8231 63.8244 14.073 64.1994C12.4481 65.5327 11.1982 68.6993 11.6982 71.6993C11.6982 72.866 13.0057 75.1993 15.6982 75.1993C20.1982 75.1993 27.1982 75.6993 32.1982 74.6993Z" fill="#EDADBF"/>
<path d="M6.19824 65.6994C8.44818 65.1994 11.3231 64.5744 14.073 64.1994M14.073 64.1994C16.8231 63.8244 19.4482 63.6994 21.1982 64.1994C24.1982 65.6994 29.6982 70.6993 32.1982 74.6993C27.1982 75.6993 20.1982 75.1993 15.6982 75.1993C13.0057 75.1993 11.6982 72.866 11.6982 71.6993C11.1982 68.6993 12.4481 65.5327 14.073 64.1994Z" stroke="black" stroke-width="0.5"/>
<path d="M11.6982 71.1994C19.6982 69.6995 23.1982 72.3279 26.1982 73.8279M13.1982 74.1995L30.6982 73.6995" stroke="black" stroke-width="0.5"/>
<path d="M22.1963 82.6992H31.6963C33.6963 82.6992 35.1963 80.6992 34.6963 79.6992M38.1963 79.6992V84.1992" stroke="black" stroke-width="0.5"/>
<path d="M22.1977 81.1997C17.6977 81.1997 13.1977 81.6997 1.6977 78.6997V76.6997L5.6977 74.6997V73.1997L1.6977 72.6997C1.19678 71.1995 0.196973 68.1995 2.19697 65.6995C1.69721 57.6995 2.19721 51.1995 4.1977 48.1992C36.6977 28.6996 58.6977 34.6997 84.6977 30.1997C162.698 -24.8005 244.698 12.1994 281.698 26.6996L295.198 28.6995L295.698 35.6995V38.6995C297.196 43.6995 298.531 48.1995 297.198 50.1995C299.698 51.1995 302.198 54.3661 302.198 56.1995L300.198 66.1995C300.65 77.0474 298.242 77.2717 288.91 77.5841C287.919 77.6173 285.85 77.6515 284.698 77.6995V79.1995L259.698 79.6305M22.1977 81.1997V84.1997H40.196L39.6977 79.6997M22.1977 81.1997V79.6997H39.6977M39.6977 79.6997C36.6977 38.1997 90.1977 41.1997 86.6977 80.1997V82.6995H213.198C207.198 39.1995 261.698 39.1995 259.698 79.6305M259.196 79.6305H259.698" stroke="black"/>
</svg>
