<svg width="303" height="96" viewBox="0 0 303 96" fill="none" xmlns="http://www.w3.org/2000/svg">
<circle cx="62.6562" cy="74.0454" r="20.5" stroke="black"/>
<circle cx="235.656" cy="74.0454" r="20.5" stroke="black"/>
<path d="M132.654 12.5453L131.154 9.04527C171.154 1.04538 192.654 1.54541 231.654 13.0454L228.154 17.5454C208.154 9.54532 190.154 8.54532 174.154 8.04539C171.654 7.54539 167.654 7.54535 165.154 8.04527C155.154 8.04539 143.154 9.54539 132.654 12.5453Z" fill="#E56E90" stroke="black" stroke-width="0.5"/>
<path d="M131.154 9.04545L130.654 7.54545C166.654 -3.45459 199.154 0.545284 234.654 9.54546L231.654 13.0455C191.654 0.54541 165.654 2.04541 131.154 9.04545Z" fill="#E56E90" stroke="black" stroke-width="0.5"/>
<path d="M131.154 9.04552C182.654 -2.4545 211.154 7.54553 231.654 13.0455" stroke="black" stroke-width="0.5"/>
<path d="M170.656 30.0454L174.156 8.04541C207.656 9.04541 219.156 14.5454 223.656 16.0454L226.139 28.0454C199.149 28.046 181.654 29.5455 170.656 30.0454Z" fill="#E56E90"/>
<path d="M226.656 30.5454L223.656 16.0454C219.156 14.5454 207.656 9.04541 174.156 8.04541L170.656 30.0454C181.656 29.5454 199.156 28.0454 226.156 28.0454" stroke="black" stroke-width="0.5"/>
<path d="M165.156 8.04541C132.156 9.04541 112.156 18.0454 93.1562 35.5454L95.6562 33.5454L159.656 30.5454L165.156 8.04541Z" fill="#E56E90" stroke="black" stroke-width="0.5"/>
<path d="M239.654 22.5454C235.988 19.8787 230.154 17.5454 223.654 16.0454L226.154 28.0454H232.654C235.654 26.5454 238.654 24.3141 239.654 22.5454Z" fill="#E56E90" stroke="black" stroke-width="0.5"/>
<path d="M96.6562 78.5454H163.656L198.156 77.0454H212.656L213.156 82.5454H199.156H98.1562H86.6562V78.5454H96.6562Z" fill="#E56E90"/>
<path d="M96.6562 78.5454H163.656L198.156 77.0454M96.6562 78.5454C96.6562 80.0454 97.1562 81.0454 98.1562 82.5454M96.6562 78.5454H86.6562V82.5454H98.1562M198.156 77.0454L199.156 82.5454M198.156 77.0454H212.656L213.156 82.5454H199.156M199.156 82.5454H98.1562" stroke="black" stroke-width="0.5"/>
<path d="M96.6554 78.5454C92.1562 74.0454 89.1563 52.0454 93.1554 35.5454L165.156 31.5454C161.156 36.5454 160.156 70.5454 163.656 78.5454H96.6554Z" fill="#E56E90" stroke="black" stroke-width="0.5"/>
<path d="M228.656 30.5454L165.156 31.5454C161.156 36.5454 160.156 70.5454 163.656 78.5454L198.156 77.0454C202.656 75.5454 209.156 70.0454 228.656 30.5454Z" fill="#E56E90" stroke="black" stroke-width="0.5"/>
<path d="M170.656 30.0455C166.156 30.5455 162.656 30.5455 159.656 30.5455L165.156 8.04548C168.156 7.54541 171.156 7.54541 174.156 8.04548L170.656 30.0455Z" fill="#E56E90" stroke="black" stroke-width="0.5"/>
<path d="M99.1562 32.0457C103.656 37.5457 110.656 34.0457 114.656 32.5457C115.656 17.0455 102.656 25.0455 99.1562 32.0457Z" fill="#E56E90" stroke="black" stroke-width="0.5"/>
<path d="M234.654 9.54541L231.654 13.0454C248.654 18.5454 259.154 21.5454 271.654 28.0454H273.154L281.154 26.5454C266.154 20.0454 258.654 17.5454 234.654 9.54541Z" fill="#E0426F" stroke="black" stroke-width="0.5"/>
<path d="M271.654 28.0454C261.154 22.5454 242.154 16.0454 231.654 13.0454L229.654 15.5454L244.654 23.0454C243.154 25.5454 239.154 27.5454 233.154 30.2454C245.154 29.5454 262.154 28.5454 271.654 28.0454Z" fill="#E0426F" stroke="black" stroke-width="0.5"/>
<path d="M277.156 34.3454L283.155 32.0454L272.655 28.0454L228.655 30.5454C221.155 45.5454 206.155 76.0454 198.155 77.0454H212.655C211.155 66.0454 220.655 42.5454 245.656 51.5454C256.156 46.0454 266.156 40.5454 277.156 34.3454Z" fill="#E0426F" stroke="black" stroke-width="0.5"/>
<path d="M278.154 34.0454C266.154 40.5454 256.154 46.0454 245.654 51.5454C250.154 54.5454 260.654 60.5454 259.654 79.5454L284.654 79.0454V77.5454C293.154 76.5454 301.654 80.0454 300.154 66.0454L302.154 56.0454C302.154 54.5454 299.654 50.5454 297.154 50.0454C298.654 47.5454 295.654 38.5454 295.654 38.5454V37.0454L291.654 34.0454L286.654 32.5454L283.154 32.0454L278.154 34.0454Z" fill="#E0426F" stroke="black" stroke-width="0.5"/>
<path d="M281.154 26.5454L272.654 28.0454L283.154 32.0454C292.654 33.0454 291.653 34.5454 295.648 36.9656L295.154 28.5454L281.154 26.5454Z" fill="#E0426F"/>
<path d="M295.654 37.0454L295.648 36.9656M295.648 36.9656L295.154 28.5454L281.154 26.5454L272.654 28.0454L283.154 32.0454C292.654 33.0454 291.653 34.5454 295.648 36.9656Z" stroke="black" stroke-width="0.5"/>
<path d="M294.156 36.5456C293.656 34.0455 282.656 33.8454 277.156 34.3454" stroke="black" stroke-width="0.5"/>
<path d="M300.156 66.5454L260.656 68.5454C260.156 63.5454 257.99 59.3787 256.156 57.5454L302.156 55.0454M300.656 52.5454C289.656 51.0454 278.656 46.2454 266.656 40.2454M228.656 30.5454L272.656 28.0454L281.156 26.5454" stroke="black" stroke-width="0.5"/>
<path d="M290.656 40.5454C290.656 38.5454 289.656 34.5454 286.156 32.5454C288.377 32.5454 291.754 33.5858 294.265 35.9554C294.729 37.4854 293.656 41.0454 290.614 42.5454C290.601 41.9551 290.656 41.2697 290.656 40.5454Z" fill="#E0426F"/>
<path d="M272.656 43.0454C279.652 43.3952 285.669 43.5003 291.049 44.0454M297.656 45.0454C295.553 44.5948 293.36 44.2795 291.049 44.0454M295.656 37.5454C295.238 36.9603 294.769 36.4311 294.265 35.9554M291.049 44.0454C290.723 43.7006 290.629 43.1776 290.614 42.5454M290.614 42.5454C290.601 41.9551 290.656 41.2697 290.656 40.5454C290.656 38.5454 289.656 34.5454 286.156 32.5454C288.377 32.5454 291.754 33.5858 294.265 35.9554M290.614 42.5454C293.656 41.0454 294.729 37.4854 294.265 35.9554" stroke="black" stroke-width="0.5"/>
<path d="M290.656 40.5454C286.156 40.5454 284.156 36.5454 283.156 34.0454" stroke="black" stroke-width="0.5"/>
<path d="M132.654 12.6454C119.154 16.6454 107.154 22.5454 93.1543 35.5454C100.154 23.5454 115.654 14.0454 131.154 9.04541L132.654 12.6454Z" fill="#EDADBF" stroke="black" stroke-width="0.5"/>
<path d="M131.154 9.04541C111.154 14.7194 93.1543 32.0454 85.1543 30.0454C98.1543 20.5454 114.154 12.0454 130.654 7.54541L131.154 9.04541Z" fill="#EDADBF" stroke="black" stroke-width="0.5"/>
<path d="M10.155 48.0453H4.15496C1.6543 52.0453 1.6543 62.0453 2.15496 65.5453C0.654297 66.5453 0.654894 71.0453 1.65496 72.5453L5.65496 73.0453V74.5453L1.65496 76.5453V78.5453C5.65496 79.5453 14.155 81.5453 22.155 81.0453V79.5453H39.655C38.9883 71.0453 40.655 60.5453 49.655 53.5453C47.155 49.5453 40.155 45.0453 37.155 44.5453C27.155 43.5453 12.155 46.0453 10.155 48.0453Z" fill="#EDADBF" stroke="black" stroke-width="0.5"/>
<path d="M93.1562 35.5454C75.3229 36.3787 43.6562 41.2454 33.1562 44.2454L37.1562 44.5454C42.1562 46.0454 47.6562 50.3787 49.6562 53.5454C62.6553 44.0454 88.1553 51.0454 86.6553 78.5454H96.6553C89.6553 67.5454 90.6553 45.5454 93.1562 35.5454Z" fill="#EDADBF" stroke="black" stroke-width="0.5"/>
<path d="M10.1543 48.0455H4.1543C36.6545 28.5454 58.6545 34.5454 84.6543 30.0454L93.6545 35.5454C76.6545 36.5454 47.6543 40.0454 33.6543 44.2454C25.6543 44.0454 11.6543 46.0454 10.1543 48.0455Z" fill="#EDADBF" stroke="black" stroke-width="0.5"/>
<path d="M37.1558 44.5455C29.6558 43.5454 12.6558 45.5454 10.1558 48.0455C9.35575 50.4454 12.4891 53.3787 14.1558 54.5454C23.6558 56.0454 37.1558 50.0454 37.1558 44.5455Z" fill="#EDADBF" stroke="black" stroke-width="0.5"/>
<path d="M4.15499 48.0454C11.155 49.0454 5.15499 59.5454 2.15499 64.5454C1.65492 57.5454 2.15479 52.0454 4.15499 48.0454Z" fill="#EDADBF" stroke="black" stroke-width="0.5"/>
<path d="M22.1543 84.0454V79.5454H39.6543L40.1543 84.0454H22.1543Z" fill="#EDADBF" stroke="black" stroke-width="0.5"/>
<path d="M2.65625 65.5454C4.15625 68.0454 6.15625 71.2121 5.65625 73.0454M22.1562 79.5454C11.6562 80.0454 7.15625 76.0454 8.15625 72.5454C8.65625 72.0454 10.1562 70.5454 11.1562 70.5454" stroke="black" stroke-width="0.5"/>
<path d="M32.1562 74.5455C29.6562 70.5455 24.1562 65.5456 21.1562 64.0456C19.4062 63.5456 16.7811 63.6706 14.031 64.0456C12.4061 65.3789 11.1562 68.5455 11.6562 71.5455C11.6562 72.7122 12.9637 75.0455 15.6562 75.0455C20.1562 75.0455 27.1562 75.5455 32.1562 74.5455Z" fill="#EDADBF"/>
<path d="M6.15625 65.5456C8.40619 65.0456 11.2811 64.4206 14.031 64.0456M14.031 64.0456C16.7811 63.6706 19.4062 63.5456 21.1562 64.0456C24.1562 65.5456 29.6562 70.5455 32.1562 74.5455C27.1562 75.5455 20.1562 75.0455 15.6562 75.0455C12.9637 75.0455 11.6562 72.7122 11.6562 71.5455C11.1562 68.5455 12.4061 65.3789 14.031 64.0456Z" stroke="black" stroke-width="0.5"/>
<path d="M11.6562 71.0456C19.6562 69.5457 23.1562 72.1741 26.1562 73.6741M13.1562 74.0457L30.6562 73.5457" stroke="black" stroke-width="0.5"/>
<path d="M22.1543 82.5454H31.6543C33.6543 82.5454 35.1543 80.5454 34.6543 79.5454M38.1543 79.5454V84.0454" stroke="black" stroke-width="0.5"/>
<path d="M22.1562 81.0457C17.6562 81.0457 13.1562 81.5457 1.6562 78.5457V76.5457L5.6562 74.5456V73.0457L1.6562 72.5457C1.15527 71.0454 0.155469 68.0454 2.15546 65.5454C1.65571 57.5454 2.15571 51.0454 4.1562 48.0452C36.6562 28.5455 58.6562 34.5456 84.6562 30.0456C162.656 -24.9545 244.656 12.0454 281.656 26.5456L295.156 28.5454L295.656 35.5454V38.5454C297.155 43.5454 298.49 48.0454 297.156 50.0454C299.656 51.0454 302.156 54.2121 302.156 56.0454L300.156 66.0454C300.608 76.8933 298.2 77.1176 288.868 77.43C287.877 77.4632 285.808 77.4974 284.656 77.5454V79.0454L259.656 79.4764M22.1562 81.0457V84.0457H40.1545L39.6562 79.5457M22.1562 81.0457V79.5457H39.6562M39.6562 79.5457C36.6562 38.0457 90.1562 41.0457 86.6562 80.0457V82.5454H213.156C207.156 39.0454 261.656 39.0454 259.656 79.4764M259.155 79.4764H259.656" stroke="black"/>
</svg>
