<svg width="303" height="95" viewBox="0 0 303 95" fill="none" xmlns="http://www.w3.org/2000/svg">
<circle cx="62.667" cy="73.6919" r="20.5" stroke="black"/>
<circle cx="235.667" cy="73.6919" r="20.5" stroke="black"/>
<path d="M132.665 12.1918L131.165 8.69175C171.165 0.691862 192.665 1.19189 231.665 12.6918L228.165 17.1918C208.165 9.1918 190.165 8.1918 174.165 7.69187C171.665 7.19187 167.665 7.19183 165.165 7.69175C155.165 7.69187 143.165 9.19187 132.665 12.1918Z" fill="#EFC7D3" stroke="black" stroke-width="0.5"/>
<path d="M131.165 8.69194L130.665 7.19194C166.665 -3.80811 199.165 0.191769 234.665 9.19194L231.665 12.6919C191.665 0.191895 165.665 1.69189 131.165 8.69194Z" fill="#EFC7D3" stroke="black" stroke-width="0.5"/>
<path d="M131.165 8.692C182.665 -2.80802 211.165 7.19202 231.665 12.692" stroke="black" stroke-width="0.5"/>
<path d="M170.667 29.6919L174.167 7.69189C207.667 8.69189 219.167 14.1919 223.667 15.6919L226.15 27.6919C199.16 27.6925 181.665 29.192 170.667 29.6919Z" fill="#EFC7D3"/>
<path d="M226.667 30.1919L223.667 15.6919C219.167 14.1919 207.667 8.69189 174.167 7.69189L170.667 29.6919C181.667 29.1919 199.167 27.6919 226.167 27.6919" stroke="black" stroke-width="0.5"/>
<path d="M165.167 7.69189C132.167 8.69189 112.167 17.6919 93.167 35.1919L95.667 33.1919L159.667 30.1919L165.167 7.69189Z" fill="#EFC7D3" stroke="black" stroke-width="0.5"/>
<path d="M239.665 22.1919C235.998 19.5252 230.165 17.1919 223.665 15.6919L226.165 27.6919H232.665C235.665 26.1919 238.665 23.9606 239.665 22.1919Z" fill="#EFC7D3" stroke="black" stroke-width="0.5"/>
<path d="M96.667 78.1919H163.667L198.167 76.6919H212.667L213.167 82.1919H199.167H98.167H86.667V78.1919H96.667Z" fill="#EFC7D3"/>
<path d="M96.667 78.1919H163.667L198.167 76.6919M96.667 78.1919C96.667 79.6919 97.167 80.6919 98.167 82.1919M96.667 78.1919H86.667V82.1919H98.167M198.167 76.6919L199.167 82.1919M198.167 76.6919H212.667L213.167 82.1919H199.167M199.167 82.1919H98.167" stroke="black" stroke-width="0.5"/>
<path d="M96.6661 78.1919C92.167 73.6919 89.167 51.6919 93.1661 35.1919L165.167 31.1919C161.167 36.1919 160.167 70.1919 163.667 78.1919H96.6661Z" fill="#EFC7D3" stroke="black" stroke-width="0.5"/>
<path d="M228.667 30.1919L165.167 31.1919C161.167 36.1919 160.167 70.1919 163.667 78.1919L198.167 76.6919C202.667 75.1919 209.167 69.6919 228.667 30.1919Z" fill="#EFC7D3" stroke="black" stroke-width="0.5"/>
<path d="M170.667 29.692C166.167 30.192 162.667 30.192 159.667 30.192L165.167 7.69197C168.167 7.19189 171.167 7.19189 174.167 7.69197L170.667 29.692Z" fill="#EFC7D3" stroke="black" stroke-width="0.5"/>
<path d="M99.167 31.6922C103.667 37.1922 110.667 33.6922 114.667 32.1922C115.667 16.692 102.667 24.692 99.167 31.6922Z" fill="#EFC7D3" stroke="black" stroke-width="0.5"/>
<path d="M234.665 9.19189L231.665 12.6919C248.665 18.1919 259.165 21.1919 271.665 27.6919H273.165L281.165 26.1919C266.165 19.6919 258.665 17.1919 234.665 9.19189Z" fill="#E56E90" stroke="black" stroke-width="0.5"/>
<path d="M271.665 27.6919C261.165 22.1919 242.165 15.6919 231.665 12.6919L229.665 15.1919L244.665 22.6919C243.165 25.1919 239.165 27.1919 233.165 29.8919C245.165 29.1919 262.165 28.1919 271.665 27.6919Z" fill="#E56E90" stroke="black" stroke-width="0.5"/>
<path d="M277.167 33.9919L283.165 31.6919L272.666 27.6919L228.666 30.1919C221.166 45.1919 206.166 75.6919 198.166 76.6919H212.666C211.166 65.6919 220.666 42.1919 245.667 51.1919C256.167 45.6919 266.167 40.1919 277.167 33.9919Z" fill="#E56E90" stroke="black" stroke-width="0.5"/>
<path d="M278.165 33.6919C266.165 40.1919 256.165 45.6919 245.665 51.1919C250.165 54.1919 260.665 60.1919 259.665 79.1919L284.665 78.6919V77.1919C293.165 76.1919 301.665 79.6919 300.165 65.6919L302.165 55.6919C302.165 54.1919 299.665 50.1919 297.165 49.6919C298.665 47.1919 295.665 38.1919 295.665 38.1919V36.6919L291.665 33.6919L286.665 32.1919L283.165 31.6919L278.165 33.6919Z" fill="#E56E90" stroke="black" stroke-width="0.5"/>
<path d="M281.165 26.1919L272.665 27.6919L283.165 31.6919C292.665 32.6919 291.664 34.1919 295.659 36.6121L295.165 28.1919L281.165 26.1919Z" fill="#E56E90"/>
<path d="M295.665 36.6919L295.659 36.6121M295.659 36.6121L295.165 28.1919L281.165 26.1919L272.665 27.6919L283.165 31.6919C292.665 32.6919 291.664 34.1919 295.659 36.6121Z" stroke="black" stroke-width="0.5"/>
<path d="M294.167 36.1921C293.667 33.692 282.667 33.4919 277.167 33.9919" stroke="black" stroke-width="0.5"/>
<path d="M300.167 66.1919L260.667 68.1919C260.167 63.1919 258 59.0252 256.167 57.1919L302.167 54.6919M300.667 52.1919C289.667 50.6919 278.667 45.8919 266.667 39.8919M228.667 30.1919L272.667 27.6919L281.167 26.1919" stroke="black" stroke-width="0.5"/>
<path d="M290.667 40.1919C290.667 38.1919 289.667 34.1919 286.167 32.1919C288.388 32.1919 291.765 33.2323 294.276 35.6019C294.74 37.1319 293.667 40.6919 290.625 42.1919C290.612 41.6016 290.667 40.9162 290.667 40.1919Z" fill="#E56E90"/>
<path d="M272.667 42.6919C279.663 43.0417 285.68 43.1468 291.06 43.6919M297.667 44.6919C295.564 44.2413 293.371 43.926 291.06 43.6919M295.667 37.1919C295.249 36.6068 294.78 36.0775 294.276 35.6019M291.06 43.6919C290.734 43.3471 290.64 42.8241 290.625 42.1919M290.625 42.1919C290.612 41.6016 290.667 40.9162 290.667 40.1919C290.667 38.1919 289.667 34.1919 286.167 32.1919C288.388 32.1919 291.765 33.2323 294.276 35.6019M290.625 42.1919C293.667 40.6919 294.74 37.1319 294.276 35.6019" stroke="black" stroke-width="0.5"/>
<path d="M290.667 40.1919C286.167 40.1919 284.167 36.1919 283.167 33.6919" stroke="black" stroke-width="0.5"/>
<path d="M132.665 12.2919C119.165 16.2919 107.165 22.1919 93.165 35.1919C100.165 23.1919 115.665 13.6919 131.165 8.69189L132.665 12.2919Z" fill="#E0426F" stroke="black" stroke-width="0.5"/>
<path d="M131.165 8.69189C111.165 14.3659 93.165 31.6919 85.165 29.6919C98.165 20.1919 114.165 11.6919 130.665 7.19189L131.165 8.69189Z" fill="#E0426F" stroke="black" stroke-width="0.5"/>
<path d="M10.1657 47.6918H4.16571C1.66504 51.6918 1.66504 61.6918 2.16571 65.1918C0.665039 66.1918 0.665637 70.6918 1.66571 72.1918L5.66571 72.6918V74.1918L1.66571 76.1918V78.1918C5.66571 79.1918 14.1657 81.1918 22.1657 80.6918V79.1918H39.6657C38.999 70.6918 40.6657 60.1918 49.6657 53.1918C47.1657 49.1918 40.1657 44.6918 37.1657 44.1918C27.1657 43.1918 12.1657 45.6918 10.1657 47.6918Z" fill="#E0426F" stroke="black" stroke-width="0.5"/>
<path d="M93.167 35.1919C75.3337 36.0252 43.667 40.8919 33.167 43.8919L37.167 44.1919C42.167 45.6919 47.667 50.0252 49.667 53.1919C62.666 43.6919 88.166 50.6919 86.666 78.1919H96.666C89.666 67.1919 90.666 45.1919 93.167 35.1919Z" fill="#E0426F" stroke="black" stroke-width="0.5"/>
<path d="M10.165 47.6919H4.16504C36.6652 28.1918 58.6653 34.1919 84.665 29.6919L93.6653 35.1919C76.6653 36.1919 47.665 39.6919 33.665 43.8919C25.665 43.6919 11.665 45.6919 10.165 47.6919Z" fill="#E0426F" stroke="black" stroke-width="0.5"/>
<path d="M37.1665 44.192C29.6665 43.1919 12.6665 45.1919 10.1665 47.692C9.36649 50.0919 12.4998 53.0252 14.1665 54.1919C23.6665 55.6919 37.1665 49.6919 37.1665 44.192Z" fill="#E0426F" stroke="black" stroke-width="0.5"/>
<path d="M4.16573 47.6919C11.1657 48.6919 5.16573 59.1919 2.16573 64.1919C1.66566 57.1919 2.16553 51.6919 4.16573 47.6919Z" fill="#E0426F" stroke="black" stroke-width="0.5"/>
<path d="M22.165 83.6919V79.1919H39.665L40.165 83.6919H22.165Z" fill="#E0426F" stroke="black" stroke-width="0.5"/>
<path d="M2.66699 65.1919C4.16699 67.6919 6.16699 70.8586 5.66699 72.6919M22.167 79.1919C11.667 79.6919 7.16699 75.6919 8.16699 72.1919C8.66699 71.6919 10.167 70.1919 11.167 70.1919" stroke="black" stroke-width="0.5"/>
<path d="M32.167 74.192C29.667 70.192 24.167 65.1921 21.167 63.6921C19.4169 63.1921 16.7919 63.3171 14.0418 63.6921C12.4169 65.0254 11.167 68.192 11.667 71.192C11.667 72.3587 12.9744 74.692 15.667 74.692C20.167 74.692 27.167 75.192 32.167 74.192Z" fill="#E0426F"/>
<path d="M6.16699 65.1921C8.41693 64.6921 11.2918 64.0671 14.0418 63.6921M14.0418 63.6921C16.7919 63.3171 19.4169 63.1921 21.167 63.6921C24.167 65.1921 29.667 70.192 32.167 74.192C27.167 75.192 20.167 74.692 15.667 74.692C12.9744 74.692 11.667 72.3587 11.667 71.192C11.167 68.192 12.4168 65.0254 14.0418 63.6921Z" stroke="black" stroke-width="0.5"/>
<path d="M11.667 70.6921C19.667 69.1921 23.167 71.8206 26.167 73.3206M13.167 73.6921L30.667 73.1921" stroke="black" stroke-width="0.5"/>
<path d="M22.165 82.1919H31.665C33.665 82.1919 35.165 80.1919 34.665 79.1919M38.165 79.1919V83.6919" stroke="black" stroke-width="0.5"/>
<path d="M22.1669 80.6921C17.6669 80.6921 13.1669 81.1921 1.66694 78.1921V76.1921L5.66694 74.1921V72.6921L1.66694 72.1921C1.16602 70.6919 0.166211 67.6919 2.16621 65.1919C1.66645 57.1919 2.16645 50.6919 4.16694 47.6916C36.6669 28.192 58.6669 34.1921 84.6669 29.6921C162.667 -25.308 244.667 11.6919 281.667 26.1921L295.167 28.1919L295.667 35.1919V38.1919C297.165 43.1919 298.5 47.6919 297.167 49.6919C299.667 50.6919 302.167 53.8586 302.167 55.6919L300.167 65.6919C300.619 76.5398 298.211 76.7641 288.879 77.0765C287.888 77.1097 285.819 77.1439 284.667 77.1919V78.6919L259.667 79.1229M22.1669 80.6921V83.6921H40.1653L39.6669 79.1921M22.1669 80.6921V79.1921H39.6669M39.6669 79.1921C36.6669 37.6921 90.1669 40.6921 86.6669 79.6921V82.1919H213.167C207.167 38.6919 261.667 38.6919 259.667 79.1229M259.165 79.1229H259.667" stroke="black"/>
</svg>
