<svg width="303" height="96" viewBox="0 0 303 96" fill="none" xmlns="http://www.w3.org/2000/svg">
<circle cx="62.876" cy="74.3535" r="20.5" fill="#EFC7D3" stroke="black"/>
<circle cx="235.876" cy="74.3535" r="20.5" fill="#EFC7D3" stroke="black"/>
<path d="M132.874 12.8534L131.374 9.35337C171.374 1.35348 192.874 1.85352 231.874 13.3535L228.374 17.8535C208.374 9.85343 190.374 8.85342 174.374 8.35349C171.874 7.85349 167.874 7.85345 165.374 8.35337C155.374 8.35349 143.374 9.85349 132.874 12.8534Z" fill="#EFC7D3" stroke="black" stroke-width="0.5"/>
<path d="M131.374 9.35356L130.874 7.85356C166.874 -3.14648 199.374 0.85339 234.874 9.85356L231.874 13.3536C191.874 0.853516 165.874 2.35352 131.374 9.35356Z" fill="#EFC7D3" stroke="black" stroke-width="0.5"/>
<path d="M131.374 9.3535C182.874 -2.14652 211.374 7.85352 231.874 13.3535" stroke="black" stroke-width="0.5"/>
<path d="M170.876 30.3535L174.376 8.35352C207.876 9.35352 219.376 14.8535 223.876 16.3535L226.359 28.3535C199.369 28.3542 181.874 29.8536 170.876 30.3535Z" fill="#EFC7D3"/>
<path d="M226.876 30.8535L223.876 16.3535C219.376 14.8535 207.876 9.35352 174.376 8.35352L170.876 30.3535C181.876 29.8535 199.376 28.3535 226.376 28.3535" stroke="black" stroke-width="0.5"/>
<path d="M165.376 8.35352C132.376 9.35352 112.376 18.3535 93.376 35.8535L95.876 33.8535L159.876 30.8535L165.376 8.35352Z" fill="#EFC7D3" stroke="black" stroke-width="0.5"/>
<path d="M239.874 22.8535C236.207 20.1868 230.374 17.8535 223.874 16.3535L226.374 28.3535H232.874C235.874 26.8535 238.874 24.6223 239.874 22.8535Z" fill="#EFC7D3" stroke="black" stroke-width="0.5"/>
<path d="M96.876 78.8535H163.876L198.376 77.3535H212.876L213.376 82.8535H199.376H98.376H86.876V78.8535H96.876Z" fill="#EFC7D3"/>
<path d="M96.876 78.8535H163.876L198.376 77.3535M96.876 78.8535C96.876 80.3535 97.376 81.3535 98.376 82.8535M96.876 78.8535H86.876V82.8535H98.376M198.376 77.3535L199.376 82.8535M198.376 77.3535H212.876L213.376 82.8535H199.376M199.376 82.8535H98.376" stroke="black" stroke-width="0.5"/>
<path d="M96.8751 78.8535C92.376 74.3535 89.376 52.3535 93.3751 35.8535L165.376 31.8535C161.376 36.8535 160.376 70.8535 163.876 78.8535H96.8751Z" fill="#EFC7D3" stroke="black" stroke-width="0.5"/>
<path d="M228.876 30.8535L165.376 31.8535C161.376 36.8535 160.376 70.8535 163.876 78.8535L198.376 77.3535C202.876 75.8535 209.376 70.3535 228.876 30.8535Z" fill="#EFC7D3" stroke="black" stroke-width="0.5"/>
<path d="M170.876 30.3536C166.376 30.8536 162.876 30.8536 159.876 30.8536L165.376 8.35359C168.376 7.85352 171.376 7.85352 174.376 8.35359L170.876 30.3536Z" fill="#EFC7D3" stroke="black" stroke-width="0.5"/>
<path d="M99.376 32.3537C103.876 37.8537 110.876 34.3537 114.876 32.8537C115.876 17.3535 102.876 25.3535 99.376 32.3537Z" fill="#EFC7D3" stroke="black" stroke-width="0.5"/>
<path d="M234.874 9.85352L231.874 13.3535C248.874 18.8535 259.374 21.8535 271.874 28.3535H273.374L281.374 26.8535C266.374 20.3535 258.874 17.8535 234.874 9.85352Z" fill="#EDADBF" stroke="black" stroke-width="0.5"/>
<path d="M271.874 28.3535C261.374 22.8535 242.374 16.3535 231.874 13.3535L229.874 15.8535L244.874 23.3535C243.374 25.8535 239.374 27.8535 233.374 30.5535C245.374 29.8535 262.374 28.8535 271.874 28.3535Z" fill="#EDADBF" stroke="black" stroke-width="0.5"/>
<path d="M277.376 34.6535L283.374 32.3535L272.875 28.3535L228.875 30.8535C221.375 45.8535 206.375 76.3535 198.375 77.3535H212.875C211.375 66.3535 220.875 42.8535 245.876 51.8535C256.376 46.3535 266.376 40.8535 277.376 34.6535Z" fill="#EDADBF" stroke="black" stroke-width="0.5"/>
<path d="M278.374 34.3535C266.374 40.8535 256.374 46.3535 245.874 51.8535C250.374 54.8535 260.874 60.8535 259.874 79.8535L284.874 79.3535V77.8535C293.374 76.8535 301.874 80.3535 300.374 66.3535L302.374 56.3535C302.374 54.8535 299.874 50.8535 297.374 50.3535C298.874 47.8535 295.874 38.8535 295.874 38.8535V37.3535L291.874 34.3535L286.874 32.8535L283.374 32.3535L278.374 34.3535Z" fill="#EDADBF" stroke="black" stroke-width="0.5"/>
<path d="M281.374 26.8535L272.874 28.3535L283.374 32.3535C292.874 33.3535 291.873 34.8535 295.868 37.2737L295.374 28.8535L281.374 26.8535Z" fill="#EDADBF"/>
<path d="M295.874 37.3535L295.868 37.2737M295.868 37.2737L295.374 28.8535L281.374 26.8535L272.874 28.3535L283.374 32.3535C292.874 33.3535 291.873 34.8535 295.868 37.2737Z" stroke="black" stroke-width="0.5"/>
<path d="M294.376 36.8537C293.876 34.3536 282.876 34.1535 277.376 34.6535" stroke="black" stroke-width="0.5"/>
<path d="M300.376 66.8535L260.876 68.8535C260.376 63.8535 258.209 59.6868 256.376 57.8535L302.376 55.3535M300.876 52.8535C289.876 51.3535 278.876 46.5535 266.876 40.5535M228.876 30.8535L272.876 28.3535L281.376 26.8535" stroke="black" stroke-width="0.5"/>
<path d="M290.876 40.8535C290.876 38.8535 289.876 34.8535 286.376 32.8535C288.597 32.8535 291.974 33.8939 294.485 36.2635C294.949 37.7935 293.876 41.3535 290.834 42.8535C290.821 42.2632 290.876 41.5778 290.876 40.8535Z" fill="#EDADBF"/>
<path d="M272.876 43.3535C279.872 43.7033 285.889 43.8084 291.269 44.3535M297.876 45.3535C295.773 44.9029 293.58 44.5876 291.269 44.3535M295.876 37.8535C295.458 37.2684 294.989 36.7392 294.485 36.2635M291.269 44.3535C290.943 44.0088 290.849 43.4857 290.834 42.8535M290.834 42.8535C290.821 42.2632 290.876 41.5778 290.876 40.8535C290.876 38.8535 289.876 34.8535 286.376 32.8535C288.597 32.8535 291.974 33.8939 294.485 36.2635M290.834 42.8535C293.876 41.3535 294.949 37.7935 294.485 36.2635" stroke="black" stroke-width="0.5"/>
<path d="M290.876 40.8535C286.376 40.8535 284.376 36.8535 283.376 34.3535" stroke="black" stroke-width="0.5"/>
<path d="M132.874 12.9535C119.374 16.9535 107.374 22.8535 93.374 35.8535C100.374 23.8535 115.874 14.3535 131.374 9.35352L132.874 12.9535Z" fill="#EDADBF" stroke="black" stroke-width="0.5"/>
<path d="M131.374 9.35352C111.374 15.0276 93.374 32.3535 85.374 30.3535C98.374 20.8535 114.374 12.3535 130.874 7.85352L131.374 9.35352Z" fill="#EDADBF" stroke="black" stroke-width="0.5"/>
<path d="M10.3747 48.3535H4.37469C1.87402 52.3535 1.87402 62.3535 2.37469 65.8535C0.874023 66.8535 0.874621 71.3535 1.87469 72.8535L5.87469 73.3535V74.8535L1.87469 76.8535V78.8535C5.87469 79.8535 14.3747 81.8535 22.3747 81.3535V79.8535H39.8747C39.208 71.3535 40.8747 60.8535 49.8747 53.8535C47.3747 49.8535 40.3747 45.3535 37.3747 44.8535C27.3747 43.8535 12.3747 46.3535 10.3747 48.3535Z" fill="#EDADBF" stroke="black" stroke-width="0.5"/>
<path d="M93.376 35.8535C75.5426 36.6868 43.876 41.5535 33.376 44.5535L37.376 44.8535C42.376 46.3535 47.876 50.6868 49.876 53.8535C62.875 44.3535 88.375 51.3535 86.875 78.8535H96.875C89.875 67.8535 90.875 45.8535 93.376 35.8535Z" fill="#EDADBF" stroke="black" stroke-width="0.5"/>
<path d="M10.374 48.3536H4.37402C36.8742 28.8535 58.8743 34.8535 84.874 30.3535L93.8743 35.8535C76.8743 36.8535 47.874 40.3535 33.874 44.5535C25.874 44.3535 11.874 46.3535 10.374 48.3536Z" fill="#EDADBF" stroke="black" stroke-width="0.5"/>
<path d="M37.3755 44.8536C29.8755 43.8535 12.8755 45.8535 10.3755 48.3536C9.57548 50.7535 12.7088 53.6868 14.3755 54.8535C23.8755 56.3535 37.3755 50.3535 37.3755 44.8536Z" fill="#EDADBF" stroke="black" stroke-width="0.5"/>
<path d="M4.37472 48.3535C11.3747 49.3535 5.37472 59.8535 2.37472 64.8535C1.87465 57.8535 2.37451 52.3535 4.37472 48.3535Z" fill="#EDADBF" stroke="black" stroke-width="0.5"/>
<path d="M22.374 84.3535V79.8535H39.874L40.374 84.3535H22.374Z" fill="#EDADBF" stroke="black" stroke-width="0.5"/>
<path d="M2.87598 65.8535C4.37598 68.3535 6.37598 71.5202 5.87598 73.3535M22.376 79.8535C11.876 80.3535 7.37598 76.3535 8.37598 72.8535C8.87598 72.3535 10.376 70.8535 11.376 70.8535" stroke="black" stroke-width="0.5"/>
<path d="M32.376 74.8535C29.876 70.8535 24.376 65.8536 21.376 64.3536C19.6259 63.8536 17.0008 63.9786 14.2508 64.3536C12.6258 65.6869 11.376 68.8535 11.876 71.8535C11.876 73.0202 13.1834 75.3535 15.876 75.3535C20.376 75.3535 27.376 75.8535 32.376 74.8535Z" fill="#EDADBF"/>
<path d="M6.37598 65.8536C8.62592 65.3536 11.5008 64.7286 14.2508 64.3536M14.2508 64.3536C17.0008 63.9786 19.6259 63.8536 21.376 64.3536C24.376 65.8536 29.876 70.8535 32.376 74.8535C27.376 75.8535 20.376 75.3535 15.876 75.3535C13.1834 75.3535 11.876 73.0202 11.876 71.8535C11.376 68.8535 12.6258 65.6869 14.2508 64.3536Z" stroke="black" stroke-width="0.5"/>
<path d="M11.876 71.3536C19.876 69.8536 23.376 72.4821 26.376 73.9821M13.376 74.3536L30.876 73.8536" stroke="black" stroke-width="0.5"/>
<path d="M22.374 82.8535H31.874C33.874 82.8535 35.374 80.8535 34.874 79.8535M38.374 79.8535V84.3535" stroke="black" stroke-width="0.5"/>
<path d="M22.3759 81.3538C17.8759 81.3538 13.3759 81.8538 1.87592 78.8538V76.8538L5.87592 74.8538V73.3538L1.87592 72.8538C1.375 71.3535 0.375196 68.3535 2.37519 65.8535C1.87543 57.8535 2.37543 51.3535 4.37592 48.3533C36.8759 28.8537 58.8759 34.8537 84.8759 30.3537C162.876 -24.6464 244.876 12.3535 281.876 26.8537L295.376 28.8535L295.876 35.8535V38.8535C297.374 43.8535 298.709 48.3535 297.376 50.3535C299.876 51.3535 302.376 54.5202 302.376 56.3535L300.376 66.3535C300.828 77.2014 298.42 77.4257 289.088 77.7382C288.097 77.7713 286.028 77.8055 284.876 77.8535V79.3535L259.876 79.7846M22.3759 81.3538V84.3538H40.3743L39.8759 79.8538M22.3759 81.3538V79.8538H39.8759M39.8759 79.8538C36.8759 38.3538 90.3759 41.3538 86.8759 80.3538V82.8535H213.376C207.376 39.3535 261.876 39.3535 259.876 79.7846M259.374 79.7846H259.876" stroke="black"/>
</svg>
