<svg width="303" height="96" viewBox="0 0 303 96" fill="none" xmlns="http://www.w3.org/2000/svg">
<circle cx="62.4697" cy="74.0151" r="20.5" fill="#E0426F" stroke="black"/>
<circle cx="235.47" cy="74.0151" r="20.5" fill="#E0426F" stroke="black"/>
<path d="M132.468 12.515L130.968 9.01499C170.968 1.0151 192.468 1.51514 231.468 13.0151L227.968 17.5151C207.968 9.51505 189.968 8.51505 173.968 8.01511C171.468 7.51511 167.468 7.51508 164.968 8.01499C154.968 8.01511 142.968 9.51511 132.468 12.515Z" fill="#EFC7D3" stroke="black" stroke-width="0.5"/>
<path d="M130.968 9.01518L130.468 7.51518C166.468 -3.48486 198.968 0.515011 234.468 9.51518L231.468 13.0152C191.468 0.515137 165.468 2.01514 130.968 9.01518Z" fill="#EFC7D3" stroke="black" stroke-width="0.5"/>
<path d="M130.968 9.01512C182.468 -2.4849 210.968 7.51514 231.468 13.0151" stroke="black" stroke-width="0.5"/>
<path d="M170.47 30.0151L173.97 8.01514C207.47 9.01514 218.97 14.5151 223.47 16.0151L225.952 28.0151C198.962 28.0158 181.467 29.5152 170.47 30.0151Z" fill="#EFC7D3"/>
<path d="M226.47 30.5151L223.47 16.0151C218.97 14.5151 207.47 9.01514 173.97 8.01514L170.47 30.0151C181.47 29.5151 198.97 28.0151 225.97 28.0151" stroke="black" stroke-width="0.5"/>
<path d="M164.97 8.01514C131.97 9.01514 111.97 18.0151 92.9697 35.5151L95.4697 33.5151L159.47 30.5151L164.97 8.01514Z" fill="#EFC7D3" stroke="black" stroke-width="0.5"/>
<path d="M239.468 22.5151C235.801 19.8485 229.968 17.5151 223.468 16.0151L225.968 28.0151H232.468C235.468 26.5151 238.468 24.2839 239.468 22.5151Z" fill="#EFC7D3" stroke="black" stroke-width="0.5"/>
<path d="M96.4697 78.5151H163.47L197.97 77.0151H212.47L212.97 82.5151H198.97H97.9697H86.4697V78.5151H96.4697Z" fill="#EFC7D3"/>
<path d="M96.4697 78.5151H163.47L197.97 77.0151M96.4697 78.5151C96.4697 80.0151 96.9697 81.0151 97.9697 82.5151M96.4697 78.5151H86.4697V82.5151H97.9697M197.97 77.0151L198.97 82.5151M197.97 77.0151H212.47L212.97 82.5151H198.97M198.97 82.5151H97.9697" stroke="black" stroke-width="0.5"/>
<path d="M96.4689 78.5151C91.9697 74.0151 88.9698 52.0151 92.9689 35.5151L164.97 31.5151C160.97 36.5151 159.97 70.5151 163.47 78.5151H96.4689Z" fill="#EFC7D3" stroke="black" stroke-width="0.5"/>
<path d="M228.47 30.5151L164.97 31.5151C160.97 36.5151 159.97 70.5151 163.47 78.5151L197.97 77.0151C202.47 75.5151 208.97 70.0151 228.47 30.5151Z" fill="#EFC7D3" stroke="black" stroke-width="0.5"/>
<path d="M170.47 30.0152C165.97 30.5152 162.47 30.5152 159.47 30.5152L164.97 8.01521C167.97 7.51514 170.97 7.51514 173.97 8.01521L170.47 30.0152Z" fill="#EFC7D3" stroke="black" stroke-width="0.5"/>
<path d="M98.9697 32.0153C103.47 37.5153 110.47 34.0153 114.47 32.5153C115.47 17.0152 102.47 25.0151 98.9697 32.0153Z" fill="#EFC7D3" stroke="black" stroke-width="0.5"/>
<path d="M234.468 9.51514L231.468 13.0151C248.468 18.5151 258.968 21.5151 271.468 28.0151H272.968L280.968 26.5151C265.968 20.0151 258.468 17.5151 234.468 9.51514Z" fill="#EDADBF" stroke="black" stroke-width="0.5"/>
<path d="M271.468 28.0151C260.968 22.5151 241.968 16.0151 231.468 13.0151L229.468 15.5151L244.468 23.0151C242.968 25.5151 238.968 27.5151 232.968 30.2151C244.968 29.5151 261.968 28.5151 271.468 28.0151Z" fill="#EDADBF" stroke="black" stroke-width="0.5"/>
<path d="M276.97 34.3151L282.968 32.0151L272.469 28.0151L228.469 30.5151C220.969 45.5151 205.969 76.0151 197.969 77.0151H212.469C210.969 66.0151 220.469 42.5151 245.47 51.5151C255.97 46.0151 265.97 40.5151 276.97 34.3151Z" fill="#EDADBF" stroke="black" stroke-width="0.5"/>
<path d="M277.968 34.0152C265.968 40.5152 255.968 46.0152 245.468 51.5152C249.968 54.5151 260.468 60.5151 259.468 79.5151L284.468 79.0151V77.5151C292.968 76.5151 301.468 80.0151 299.968 66.0151L301.968 56.0151C301.968 54.5151 299.468 50.5151 296.968 50.0151C298.468 47.5151 295.468 38.5151 295.468 38.5151V37.0151L291.468 34.0151L286.468 32.5151L282.968 32.0151L277.968 34.0152Z" fill="#EDADBF" stroke="black" stroke-width="0.5"/>
<path d="M280.968 26.5151L272.468 28.0151L282.968 32.0151C292.468 33.0151 291.467 34.5151 295.462 36.9353L294.968 28.5151L280.968 26.5151Z" fill="#EDADBF"/>
<path d="M295.468 37.0151L295.462 36.9353M295.462 36.9353L294.968 28.5151L280.968 26.5151L272.468 28.0151L282.968 32.0151C292.468 33.0151 291.467 34.5151 295.462 36.9353Z" stroke="black" stroke-width="0.5"/>
<path d="M293.97 36.5153C293.47 34.0152 282.47 33.8151 276.97 34.3151" stroke="black" stroke-width="0.5"/>
<path d="M299.97 66.5151L260.47 68.5151C259.97 63.5151 257.803 59.3485 255.97 57.5151L301.97 55.0151M300.47 52.5151C289.47 51.0151 278.47 46.2151 266.47 40.2151M228.47 30.5151L272.47 28.0151L280.97 26.5151" stroke="black" stroke-width="0.5"/>
<path d="M290.47 40.5151C290.47 38.5151 289.47 34.5151 285.97 32.5151C288.191 32.5151 291.567 33.5555 294.079 35.9251C294.542 37.4551 293.47 41.0151 290.428 42.5151C290.414 41.9249 290.47 41.2394 290.47 40.5151Z" fill="#EDADBF"/>
<path d="M272.47 43.0151C279.465 43.3649 285.482 43.47 290.863 44.0151M297.47 45.0151C295.367 44.5645 293.173 44.2492 290.863 44.0151M295.47 37.5151C295.052 36.93 294.583 36.4008 294.079 35.9251M290.863 44.0151C290.537 43.6704 290.443 43.1473 290.428 42.5151M290.428 42.5151C290.414 41.9249 290.47 41.2394 290.47 40.5151C290.47 38.5151 289.47 34.5151 285.97 32.5151C288.191 32.5151 291.567 33.5555 294.079 35.9251M290.428 42.5151C293.47 41.0151 294.542 37.4551 294.079 35.9251" stroke="black" stroke-width="0.5"/>
<path d="M290.47 40.5151C285.97 40.5151 283.97 36.5151 282.97 34.0151" stroke="black" stroke-width="0.5"/>
<path d="M132.468 12.6151C118.968 16.6151 106.968 22.5151 92.9678 35.5151C99.9678 23.5151 115.468 14.0151 130.968 9.01514L132.468 12.6151Z" stroke="black" stroke-width="0.5"/>
<path d="M130.968 9.01514C110.968 14.6892 92.9678 32.0151 84.9678 30.0151C97.9678 20.5151 113.968 12.0151 130.468 7.51514L130.968 9.01514Z" stroke="black" stroke-width="0.5"/>
<path d="M9.96844 48.0151H3.96844C1.46777 52.0151 1.46777 62.0151 1.96844 65.5151C0.467773 66.5151 0.468371 71.0151 1.46844 72.5151L5.46844 73.0151V74.5151L1.46844 76.5151V78.5151C5.46844 79.5151 13.9684 81.5151 21.9684 81.0151V79.5151H39.4684C38.8018 71.0151 40.4684 60.5151 49.4684 53.5151C46.9684 49.5151 39.9684 45.0151 36.9684 44.5151C26.9684 43.5151 11.9684 46.0151 9.96844 48.0151Z" stroke="black" stroke-width="0.5"/>
<path d="M92.9697 35.5151C75.1364 36.3485 43.4697 41.2151 32.9697 44.2151L36.9697 44.5151C41.9697 46.0151 47.4697 50.3485 49.4697 53.5151C62.4688 44.0151 87.9688 51.0151 86.4688 78.5151H96.4688C89.4688 67.5151 90.4688 45.5151 92.9697 35.5151Z" stroke="black" stroke-width="0.5"/>
<path d="M9.96777 48.0152H3.96777C36.468 28.5151 58.468 34.5151 84.4678 30.0151L93.468 35.5151C76.468 36.5151 47.4678 40.0151 33.4678 44.2151C25.4678 44.0151 11.4678 46.0151 9.96777 48.0152Z" stroke="black" stroke-width="0.5"/>
<path d="M36.9692 44.5152C29.4692 43.5151 12.4692 45.5151 9.96923 48.0152C9.16923 50.4152 12.3026 53.3485 13.9692 54.5151C23.4692 56.0151 36.9692 50.0151 36.9692 44.5152Z" stroke="black" stroke-width="0.5"/>
<path d="M3.96847 48.0151C10.9685 49.0151 4.96847 59.5151 1.96847 64.5151C1.4684 57.5151 1.96826 52.0151 3.96847 48.0151Z" stroke="black" stroke-width="0.5"/>
<path d="M21.9678 84.0151V79.5151H39.4678L39.9678 84.0151H21.9678Z" stroke="black" stroke-width="0.5"/>
<path d="M2.46973 65.5151C3.96973 68.0151 5.96973 71.1818 5.46973 73.0151M21.9697 79.5151C11.4697 80.0151 6.96973 76.0151 7.96973 72.5151C8.46973 72.0151 9.96973 70.5151 10.9697 70.5151" stroke="black" stroke-width="0.5"/>
<path d="M5.96973 65.5152C8.21967 65.0152 11.0946 64.3902 13.8445 64.0152M13.8445 64.0152C16.5946 63.6402 19.2197 63.5152 20.9697 64.0152C23.9697 65.5152 29.4697 70.5151 31.9697 74.5151C26.9697 75.5151 19.9697 75.0151 15.4697 75.0151C12.7771 75.0151 11.4697 72.6818 11.4697 71.5151C10.9697 68.5151 12.2196 65.3485 13.8445 64.0152Z" stroke="black" stroke-width="0.5"/>
<path d="M11.4697 71.0152C19.4697 69.5153 22.9697 72.1437 25.9697 73.6437M12.9697 74.0153L30.4697 73.5153" stroke="black" stroke-width="0.5"/>
<path d="M21.9678 82.5151H31.4678C33.4678 82.5151 34.9678 80.5151 34.4678 79.5151M37.9678 79.5151V84.0151" stroke="black" stroke-width="0.5"/>
<path d="M21.9697 81.0154C17.4697 81.0154 12.9697 81.5154 1.46967 78.5154V76.5154L5.46967 74.5154V73.0154L1.46967 72.5154C0.96875 71.0151 -0.0310541 68.0151 1.96894 65.5151C1.46918 57.5151 1.96918 51.0151 3.96967 48.0149C36.4697 28.5153 58.4697 34.5153 84.4697 30.0153C162.47 -24.9848 244.47 12.0151 281.47 26.5153L294.97 28.5151L295.47 35.5151V38.5151C296.968 43.5151 298.303 48.0151 296.97 50.0151C299.47 51.0151 301.97 54.1818 301.97 56.0151L299.97 66.0151C300.422 76.863 298.013 77.0873 288.682 77.3998C287.691 77.433 285.622 77.4671 284.47 77.5151V79.0151L259.47 79.4462M21.9697 81.0154V84.0154H39.968L39.4697 79.5154M21.9697 81.0154V79.5154H39.4697M39.4697 79.5154C36.4697 38.0154 89.9697 41.0154 86.4697 80.0154V82.5151H212.97C206.97 39.0151 261.47 39.0151 259.47 79.4462M258.968 79.4462H259.47" stroke="black"/>
</svg>
