<svg width="303" height="96" viewBox="0 0 303 96" fill="none" xmlns="http://www.w3.org/2000/svg">
<circle cx="62.4473" cy="74.0151" r="20.5" fill="#E0426F" stroke="black"/>
<circle cx="235.447" cy="74.0151" r="20.5" fill="#E0426F" stroke="black"/>
<path d="M132.445 12.515L130.945 9.01499C170.945 1.0151 192.445 1.51514 231.445 13.0151L227.945 17.5151C207.945 9.51505 189.945 8.51505 173.945 8.01511C171.445 7.51511 167.445 7.51508 164.945 8.01499C154.945 8.01511 142.945 9.51511 132.445 12.515Z" fill="#EFC7D3" stroke="black" stroke-width="0.5"/>
<path d="M130.945 9.01518L130.445 7.51518C166.445 -3.48486 198.945 0.515011 234.445 9.51518L231.445 13.0152C191.445 0.515137 165.445 2.01514 130.945 9.01518Z" fill="#EFC7D3" stroke="black" stroke-width="0.5"/>
<path d="M130.945 9.01512C182.445 -2.4849 210.945 7.51514 231.445 13.0151" stroke="black" stroke-width="0.5"/>
<path d="M170.447 30.0151L173.947 8.01514C207.447 9.01514 218.947 14.5151 223.447 16.0151L225.93 28.0151C198.94 28.0158 181.445 29.5152 170.447 30.0151Z" fill="#EFC7D3"/>
<path d="M226.447 30.5151L223.447 16.0151C218.947 14.5151 207.447 9.01514 173.947 8.01514L170.447 30.0151C181.447 29.5151 198.947 28.0151 225.947 28.0151" stroke="black" stroke-width="0.5"/>
<path d="M164.947 8.01514C131.947 9.01514 111.947 18.0151 92.9473 35.5151L95.4473 33.5151L159.447 30.5151L164.947 8.01514Z" fill="#EFC7D3" stroke="black" stroke-width="0.5"/>
<path d="M239.445 22.5151C235.779 19.8485 229.945 17.5151 223.445 16.0151L225.945 28.0151H232.445C235.445 26.5151 238.445 24.2839 239.445 22.5151Z" fill="#EFC7D3" stroke="black" stroke-width="0.5"/>
<path d="M96.4473 78.5151H163.447L197.947 77.0151H212.447L212.947 82.5151H198.947H97.9473H86.4473V78.5151H96.4473Z" fill="#EFC7D3"/>
<path d="M96.4473 78.5151H163.447L197.947 77.0151M96.4473 78.5151C96.4473 80.0151 96.9473 81.0151 97.9473 82.5151M96.4473 78.5151H86.4473V82.5151H97.9473M197.947 77.0151L198.947 82.5151M197.947 77.0151H212.447L212.947 82.5151H198.947M198.947 82.5151H97.9473" stroke="black" stroke-width="0.5"/>
<path d="M96.4464 78.5151C91.9473 74.0151 88.9473 52.0151 92.9464 35.5151L164.947 31.5151C160.947 36.5151 159.947 70.5151 163.447 78.5151H96.4464Z" fill="#EFC7D3" stroke="black" stroke-width="0.5"/>
<path d="M228.447 30.5151L164.947 31.5151C160.947 36.5151 159.948 70.5151 163.447 78.5151L197.947 77.0151C202.447 75.5151 208.947 70.0151 228.447 30.5151Z" fill="#EFC7D3" stroke="black" stroke-width="0.5"/>
<path d="M170.447 30.0152C165.947 30.5152 162.447 30.5152 159.447 30.5152L164.947 8.01521C167.947 7.51514 170.947 7.51514 173.947 8.01521L170.447 30.0152Z" fill="#EFC7D3" stroke="black" stroke-width="0.5"/>
<path d="M98.9473 32.0153C103.447 37.5153 110.447 34.0153 114.447 32.5153C115.447 17.0152 102.447 25.0151 98.9473 32.0153Z" fill="#EFC7D3" stroke="black" stroke-width="0.5"/>
<path d="M234.445 9.51514L231.445 13.0151C248.445 18.5151 258.945 21.5151 271.445 28.0151H272.945L280.945 26.5151C265.945 20.0151 258.445 17.5151 234.445 9.51514Z" fill="#E0426F" stroke="black" stroke-width="0.5"/>
<path d="M271.445 28.0151C260.945 22.5151 241.945 16.0151 231.445 13.0151L229.445 15.5151L244.445 23.0151C242.945 25.5151 238.945 27.5151 232.945 30.2151C244.945 29.5151 261.945 28.5151 271.445 28.0151Z" fill="#E0426F" stroke="black" stroke-width="0.5"/>
<path d="M276.947 34.3151L282.946 32.0151L272.446 28.0151L228.446 30.5151C220.946 45.5151 205.946 76.0151 197.946 77.0151H212.446C210.946 66.0151 220.446 42.5151 245.447 51.5151C255.947 46.0151 265.947 40.5151 276.947 34.3151Z" fill="#E0426F" stroke="black" stroke-width="0.5"/>
<path d="M277.945 34.0152C265.945 40.5152 255.945 46.0152 245.445 51.5152C249.945 54.5151 260.445 60.5151 259.445 79.5151L284.445 79.0151V77.5151C292.945 76.5151 301.445 80.0151 299.945 66.0151L301.945 56.0151C301.945 54.5151 299.445 50.5151 296.945 50.0151C298.445 47.5151 295.445 38.5151 295.445 38.5151V37.0151L291.445 34.0151L286.445 32.5151L282.945 32.0151L277.945 34.0152Z" fill="#E0426F" stroke="black" stroke-width="0.5"/>
<path d="M280.945 26.5151L272.445 28.0151L282.945 32.0151C292.445 33.0151 291.444 34.5151 295.439 36.9353L294.945 28.5151L280.945 26.5151Z" fill="#E0426F"/>
<path d="M295.445 37.0151L295.439 36.9353M295.439 36.9353L294.945 28.5151L280.945 26.5151L272.445 28.0151L282.945 32.0151C292.445 33.0151 291.444 34.5151 295.439 36.9353Z" stroke="black" stroke-width="0.5"/>
<path d="M293.947 36.5153C293.447 34.0152 282.447 33.8151 276.947 34.3151" stroke="black" stroke-width="0.5"/>
<path d="M299.947 66.5151L260.447 68.5151C259.947 63.5151 257.781 59.3485 255.947 57.5151L301.947 55.0151M300.447 52.5151C289.447 51.0151 278.447 46.2151 266.447 40.2151M228.447 30.5151L272.447 28.0151L280.947 26.5151" stroke="black" stroke-width="0.5"/>
<path d="M290.447 40.5151C290.447 38.5151 289.447 34.5151 285.947 32.5151C288.168 32.5151 291.545 33.5555 294.056 35.9251C294.52 37.4551 293.447 41.0151 290.405 42.5151C290.392 41.9249 290.447 41.2394 290.447 40.5151Z" fill="#E0426F"/>
<path d="M272.447 43.0151C279.443 43.3649 285.46 43.47 290.84 44.0151M297.447 45.0151C295.344 44.5645 293.151 44.2492 290.84 44.0151M295.447 37.5151C295.029 36.93 294.56 36.4008 294.056 35.9251M290.84 44.0151C290.514 43.6704 290.42 43.1473 290.405 42.5151M290.405 42.5151C290.392 41.9249 290.447 41.2394 290.447 40.5151C290.447 38.5151 289.447 34.5151 285.947 32.5151C288.168 32.5151 291.545 33.5555 294.056 35.9251M290.405 42.5151C293.447 41.0151 294.52 37.4551 294.056 35.9251" stroke="black" stroke-width="0.5"/>
<path d="M290.447 40.5151C285.947 40.5151 283.947 36.5151 282.947 34.0151" stroke="black" stroke-width="0.5"/>
<path d="M132.445 12.6151C118.945 16.6151 106.945 22.5151 92.9453 35.5151C99.9453 23.5151 115.445 14.0151 130.945 9.01514L132.445 12.6151Z" stroke="black" stroke-width="0.5"/>
<path d="M130.945 9.01514C110.945 14.6892 92.9453 32.0151 84.9453 30.0151C97.9453 20.5151 113.945 12.0151 130.445 7.51514L130.945 9.01514Z" stroke="black" stroke-width="0.5"/>
<path d="M9.94598 48.0151H3.94598C1.44531 52.0151 1.44531 62.0151 1.94598 65.5151C0.445312 66.5151 0.44591 71.0151 1.44598 72.5151L5.44598 73.0151V74.5151L1.44598 76.5151V78.5151C5.44598 79.5151 13.946 81.5151 21.946 81.0151V79.5151H39.446C38.7793 71.0151 40.446 60.5151 49.446 53.5151C46.946 49.5151 39.946 45.0151 36.946 44.5151C26.946 43.5151 11.946 46.0151 9.94598 48.0151Z" stroke="black" stroke-width="0.5"/>
<path d="M92.9473 35.5151C75.1139 36.3485 43.4473 41.2151 32.9473 44.2151L36.9473 44.5151C41.9473 46.0151 47.4473 50.3485 49.4473 53.5151C62.4463 44.0151 87.9463 51.0151 86.4463 78.5151H96.4463C89.4463 67.5151 90.4463 45.5151 92.9473 35.5151Z" stroke="black" stroke-width="0.5"/>
<path d="M9.94531 48.0152H3.94531C36.4455 28.5151 58.4456 34.5151 84.4453 30.0151L93.4456 35.5151C76.4456 36.5151 47.4453 40.0151 33.4453 44.2151C25.4453 44.0151 11.4453 46.0151 9.94531 48.0152Z" stroke="black" stroke-width="0.5"/>
<path d="M36.9468 44.5152C29.4468 43.5151 12.4468 45.5151 9.94677 48.0152C9.14677 50.4152 12.2801 53.3485 13.9468 54.5151C23.4468 56.0151 36.9468 50.0151 36.9468 44.5152Z" stroke="black" stroke-width="0.5"/>
<path d="M3.94601 48.0151C10.946 49.0151 4.94601 59.5151 1.94601 64.5151C1.44594 57.5151 1.9458 52.0151 3.94601 48.0151Z" stroke="black" stroke-width="0.5"/>
<path d="M21.9453 84.0151V79.5151H39.4453L39.9453 84.0151H21.9453Z" stroke="black" stroke-width="0.5"/>
<path d="M2.44727 65.5151C3.94727 68.0151 5.94727 71.1818 5.44727 73.0151M21.9473 79.5151C11.4473 80.0151 6.94727 76.0151 7.94727 72.5151C8.44727 72.0151 9.94727 70.5151 10.9473 70.5151" stroke="black" stroke-width="0.5"/>
<path d="M5.94727 65.5152C8.19721 65.0152 11.0721 64.3902 13.8221 64.0152M13.8221 64.0152C16.5721 63.6402 19.1972 63.5152 20.9473 64.0152C23.9473 65.5152 29.4473 70.5151 31.9473 74.5151C26.9473 75.5151 19.9473 75.0151 15.4473 75.0151C12.7547 75.0151 11.4473 72.6818 11.4473 71.5151C10.9473 68.5151 12.1971 65.3485 13.8221 64.0152Z" stroke="black" stroke-width="0.5"/>
<path d="M11.4473 71.0152C19.4473 69.5153 22.9473 72.1437 25.9473 73.6437M12.9473 74.0153L30.4473 73.5153" stroke="black" stroke-width="0.5"/>
<path d="M21.9453 82.5151H31.4453C33.4453 82.5151 34.9453 80.5151 34.4453 79.5151M37.9453 79.5151V84.0151" stroke="black" stroke-width="0.5"/>
<path d="M21.9472 81.0154C17.4472 81.0154 12.9472 81.5154 1.44721 78.5154V76.5154L5.44721 74.5154V73.0154L1.44721 72.5154C0.946289 71.0151 -0.0535151 68.0151 1.94648 65.5151C1.44672 57.5151 1.94672 51.0151 3.94721 48.0149C36.4472 28.5153 58.4472 34.5153 84.4472 30.0153C162.447 -24.9848 244.447 12.0151 281.447 26.5153L294.947 28.5151L295.447 35.5151V38.5151C296.946 43.5151 298.281 48.0151 296.947 50.0151C299.447 51.0151 301.947 54.1818 301.947 56.0151L299.947 66.0151C300.399 76.863 297.991 77.0873 288.66 77.3998C287.668 77.433 285.599 77.4671 284.447 77.5151V79.0151L259.447 79.4462M21.9472 81.0154V84.0154H39.9456L39.4472 79.5154M21.9472 81.0154V79.5154H39.4472M39.4472 79.5154C36.4472 38.0154 89.9472 41.0154 86.4472 80.0154V82.5151H212.947C206.947 39.0151 261.447 39.0151 259.447 79.4462M258.946 79.4462H259.447" stroke="black"/>
</svg>
