<svg width="303" height="95" viewBox="0 0 303 95" fill="none" xmlns="http://www.w3.org/2000/svg">
<circle cx="62.6978" cy="73.707" r="20.5" stroke="black"/>
<circle cx="235.698" cy="73.707" r="20.5" stroke="black"/>
<path d="M132.696 12.2069L131.196 8.70689C171.196 0.706999 192.696 1.20703 231.696 12.707L228.196 17.207C208.196 9.20694 190.196 8.20694 174.196 7.70701C171.696 7.20701 167.696 7.20697 165.196 7.70689C155.196 7.70701 143.196 9.20701 132.696 12.2069Z" fill="#E56E90" stroke="black" stroke-width="0.5"/>
<path d="M131.196 8.70708L130.696 7.20708C166.696 -3.79297 199.196 0.206905 234.696 9.20708L231.696 12.7071C191.696 0.207031 165.696 1.70703 131.196 8.70708Z" fill="#E56E90" stroke="black" stroke-width="0.5"/>
<path d="M131.196 8.70714C182.696 -2.79288 211.196 7.20715 231.696 12.7071" stroke="black" stroke-width="0.5"/>
<path d="M170.698 29.707L174.198 7.70703C207.698 8.70703 219.198 14.207 223.698 15.707L226.181 27.707C199.19 27.7077 181.695 29.2071 170.698 29.707Z" fill="#E56E90"/>
<path d="M226.698 30.207L223.698 15.707C219.198 14.207 207.698 8.70703 174.198 7.70703L170.698 29.707C181.698 29.207 199.198 27.707 226.198 27.707" stroke="black" stroke-width="0.5"/>
<path d="M165.198 7.70703C132.198 8.70703 112.198 17.707 93.1978 35.207L95.6978 33.207L159.698 30.207L165.198 7.70703Z" fill="#E56E90" stroke="black" stroke-width="0.5"/>
<path d="M239.696 22.207C236.03 19.5404 230.196 17.207 223.696 15.707L226.196 27.707H232.696C235.696 26.207 238.696 23.9758 239.696 22.207Z" fill="#E56E90" stroke="black" stroke-width="0.5"/>
<path d="M96.6978 78.207H163.698L198.198 76.707H212.698L213.198 82.207H199.198H98.1978H86.6978V78.207H96.6978Z" fill="#E56E90"/>
<path d="M96.6978 78.207H163.698L198.198 76.707M96.6978 78.207C96.6978 79.707 97.1978 80.707 98.1978 82.207M96.6978 78.207H86.6978V82.207H98.1978M198.198 76.707L199.198 82.207M198.198 76.707H212.698L213.198 82.207H199.198M199.198 82.207H98.1978" stroke="black" stroke-width="0.5"/>
<path d="M96.6969 78.207C92.1977 73.707 89.1978 51.707 93.1969 35.207L165.198 31.207C161.198 36.207 160.198 70.207 163.698 78.207H96.6969Z" fill="#E56E90" stroke="black" stroke-width="0.5"/>
<path d="M228.697 30.207L165.197 31.207C161.197 36.207 160.198 70.207 163.697 78.207L198.197 76.707C202.697 75.207 209.197 69.707 228.697 30.207Z" fill="#E56E90" stroke="black" stroke-width="0.5"/>
<path d="M170.698 29.7071C166.198 30.2071 162.698 30.2071 159.698 30.2071L165.198 7.70711C168.198 7.20703 171.198 7.20703 174.198 7.70711L170.698 29.7071Z" fill="#E56E90" stroke="black" stroke-width="0.5"/>
<path d="M99.1978 31.7073C103.698 37.2073 110.698 33.7073 114.698 32.2073C115.698 16.7072 102.698 24.7072 99.1978 31.7073Z" fill="#E56E90" stroke="black" stroke-width="0.5"/>
<path d="M234.696 9.20703L231.696 12.707C248.696 18.207 259.196 21.207 271.696 27.707H273.196L281.196 26.207C266.196 19.707 258.696 17.207 234.696 9.20703Z" stroke="black" stroke-width="0.5"/>
<path d="M271.696 27.707C261.196 22.207 242.196 15.707 231.696 12.707L229.696 15.207L244.696 22.707C243.196 25.207 239.196 27.207 233.196 29.907C245.196 29.207 262.196 28.207 271.696 27.707Z" stroke="black" stroke-width="0.5"/>
<path d="M277.198 34.007L283.196 31.707L272.697 27.707L228.697 30.207C221.197 45.207 206.197 75.707 198.197 76.707H212.697C211.197 65.707 220.697 42.207 245.698 51.207C256.198 45.707 266.198 40.207 277.198 34.007Z" stroke="black" stroke-width="0.5"/>
<path d="M278.196 33.7071C266.196 40.2071 256.196 45.7071 245.696 51.2071C250.196 54.207 260.696 60.207 259.696 79.207L284.696 78.707V77.207C293.196 76.207 301.696 79.707 300.196 65.707L302.196 55.707C302.196 54.207 299.696 50.207 297.196 49.707C298.696 47.207 295.696 38.207 295.696 38.207V36.707L291.696 33.707L286.696 32.207L283.196 31.707L278.196 33.7071Z" stroke="black" stroke-width="0.5"/>
<path d="M295.696 36.707L295.69 36.6272M295.69 36.6272L295.196 28.207L281.196 26.207L272.696 27.707L283.196 31.707C292.696 32.707 291.695 34.207 295.69 36.6272Z" stroke="black" stroke-width="0.5"/>
<path d="M294.198 36.2072C293.698 33.7071 282.698 33.507 277.198 34.007" stroke="black" stroke-width="0.5"/>
<path d="M300.198 66.207L260.698 68.207C260.198 63.207 258.031 59.0404 256.198 57.207L302.198 54.707M300.698 52.207C289.698 50.707 278.698 45.907 266.698 39.907M228.698 30.207L272.698 27.707L281.198 26.207" stroke="black" stroke-width="0.5"/>
<path d="M272.698 42.707C279.693 43.0568 285.71 43.1619 291.091 43.707M297.698 44.707C295.595 44.2564 293.402 43.9411 291.091 43.707M295.698 37.207C295.28 36.6219 294.811 36.0927 294.307 35.617M291.091 43.707C290.765 43.3623 290.671 42.8392 290.656 42.207M290.656 42.207C290.642 41.6168 290.698 40.9313 290.698 40.207C290.698 38.207 289.698 34.207 286.198 32.207C288.419 32.207 291.795 33.2474 294.307 35.617M290.656 42.207C293.698 40.707 294.77 37.147 294.307 35.617" stroke="black" stroke-width="0.5"/>
<path d="M290.698 40.207C286.198 40.207 284.198 36.207 283.198 33.707" stroke="black" stroke-width="0.5"/>
<path d="M132.696 12.307C119.196 16.307 107.196 22.207 93.1963 35.207C100.196 23.207 115.696 13.707 131.196 8.70703L132.696 12.307Z" stroke="black" stroke-width="0.5"/>
<path d="M131.196 8.70703C111.196 14.3811 93.1963 31.707 85.1963 29.707C98.1963 20.207 114.196 11.707 130.696 7.20703L131.196 8.70703Z" stroke="black" stroke-width="0.5"/>
<path d="M10.197 47.7069H4.19696C1.69629 51.7069 1.69629 61.7069 2.19696 65.2069C0.696289 66.2069 0.696887 70.7069 1.69696 72.2069L5.69696 72.7069V74.2069L1.69696 76.2069V78.2069C5.69696 79.2069 14.197 81.2069 22.197 80.7069V79.2069H39.697C39.0303 70.7069 40.697 60.2069 49.697 53.2069C47.197 49.2069 40.197 44.7069 37.197 44.2069C27.197 43.2069 12.197 45.7069 10.197 47.7069Z" stroke="black" stroke-width="0.5"/>
<path d="M93.1978 35.207C75.3644 36.0404 43.6978 40.907 33.1978 43.907L37.1978 44.207C42.1978 45.707 47.6978 50.0404 49.6978 53.207C62.6968 43.707 88.1968 50.707 86.6968 78.207H96.6968C89.6968 67.207 90.6968 45.207 93.1978 35.207Z" stroke="black" stroke-width="0.5"/>
<path d="M10.1963 47.7071H4.19629C36.6965 28.207 58.6965 34.207 84.6963 29.707L93.6965 35.207C76.6965 36.207 47.6963 39.707 33.6963 43.907C25.6963 43.707 11.6963 45.707 10.1963 47.7071Z" stroke="black" stroke-width="0.5"/>
<path d="M37.1977 44.2071C29.6977 43.207 12.6977 45.207 10.1977 47.7071C9.39774 50.107 12.5311 53.0404 14.1977 54.207C23.6978 55.707 37.1977 49.707 37.1977 44.2071Z" stroke="black" stroke-width="0.5"/>
<path d="M4.19698 47.707C11.197 48.707 5.19698 59.207 2.19698 64.207C1.69691 57.207 2.19678 51.707 4.19698 47.707Z" stroke="black" stroke-width="0.5"/>
<path d="M22.1963 83.707V79.207H39.6963L40.1963 83.707H22.1963Z" stroke="black" stroke-width="0.5"/>
<path d="M2.69824 65.207C4.19824 67.707 6.19824 70.8737 5.69824 72.707M22.1982 79.207C11.6982 79.707 7.19824 75.707 8.19824 72.207C8.69824 71.707 10.1982 70.207 11.1982 70.207" stroke="black" stroke-width="0.5"/>
<path d="M6.19824 65.2072C8.44818 64.7072 11.3231 64.0822 14.073 63.7072M14.073 63.7072C16.8231 63.3322 19.4482 63.2072 21.1982 63.7072C24.1982 65.2072 29.6982 70.2072 32.1982 74.2072C27.1982 75.2072 20.1982 74.7072 15.6982 74.7072C13.0057 74.7072 11.6982 72.3738 11.6982 71.2072C11.1982 68.2072 12.4481 65.0405 14.073 63.7072Z" stroke="black" stroke-width="0.5"/>
<path d="M11.6982 70.7072C19.6982 69.2073 23.1982 71.8358 26.1982 73.3358M13.1982 73.7073L30.6982 73.2073" stroke="black" stroke-width="0.5"/>
<path d="M22.1963 82.207H31.6963C33.6963 82.207 35.1963 80.207 34.6963 79.207M38.1963 79.207V83.707" stroke="black" stroke-width="0.5"/>
<path d="M22.1977 80.7073C17.6977 80.7073 13.1977 81.2073 1.6977 78.2073V76.2073L5.6977 74.2073V72.7073L1.6977 72.2073C1.19678 70.707 0.196973 67.707 2.19697 65.207C1.69721 57.207 2.19721 50.707 4.1977 47.7068C36.6977 28.2072 58.6977 34.2072 84.6977 29.7072C162.698 -25.2929 244.698 11.707 281.698 26.2072L295.198 28.207L295.698 35.207V38.207C297.196 43.207 298.531 47.707 297.198 49.707C299.698 50.707 302.198 53.8737 302.198 55.707L300.198 65.707C300.65 76.5549 298.242 76.7792 288.91 77.0917C287.919 77.1249 285.85 77.159 284.698 77.207V78.707L259.698 79.1381M22.1977 80.7073V83.7073H40.196L39.6977 79.2073M22.1977 80.7073V79.2073H39.6977M39.6977 79.2073C36.6977 37.7073 90.1977 40.7073 86.6977 79.7073V82.207H213.198C207.198 38.707 261.698 38.707 259.698 79.1381M259.196 79.1381H259.698" stroke="black"/>
</svg>
