<svg width="303" height="96" viewBox="0 0 303 96" fill="none" xmlns="http://www.w3.org/2000/svg">
<circle cx="62.8545" cy="74.1692" r="20.5" fill="#EFC7D3" stroke="black"/>
<circle cx="235.854" cy="74.1692" r="20.5" fill="#EFC7D3" stroke="black"/>
<path d="M132.853 12.669L131.353 9.16904C171.353 1.16916 192.853 1.66919 231.853 13.1691L228.353 17.6691C208.353 9.6691 190.353 8.6691 174.353 8.16917C171.853 7.66917 167.853 7.66913 165.353 8.16904C155.353 8.16917 143.353 9.66917 132.853 12.669Z" stroke="black" stroke-width="0.5"/>
<path d="M131.353 9.16923L130.853 7.66923C166.853 -3.33081 199.353 0.669064 234.853 9.66924L231.853 13.1692C191.853 0.669189 165.853 2.16919 131.353 9.16923Z" stroke="black" stroke-width="0.5"/>
<path d="M131.353 9.16918C182.853 -2.33085 211.353 7.66919 231.853 13.1692" stroke="black" stroke-width="0.5"/>
<path d="M226.854 30.6692L223.854 16.1692C219.354 14.6692 207.854 9.16919 174.354 8.16919L170.854 30.1692C181.854 29.6692 199.354 28.1692 226.354 28.1692" stroke="black" stroke-width="0.5"/>
<path d="M165.354 8.16919C132.354 9.16919 112.354 18.1692 93.3545 35.6692L95.8545 33.6692L159.854 30.6692L165.354 8.16919Z" stroke="black" stroke-width="0.5"/>
<path d="M239.853 22.6692C236.186 20.0025 230.353 17.6692 223.853 16.1692L226.353 28.1692H232.853C235.853 26.6692 238.853 24.4379 239.853 22.6692Z" stroke="black" stroke-width="0.5"/>
<path d="M96.8545 78.6692H163.854L198.354 77.1692M96.8545 78.6692C96.8545 80.1692 97.3545 81.1692 98.3545 82.6692M96.8545 78.6692H86.8545V82.6692H98.3545M198.354 77.1692L199.354 82.6692M198.354 77.1692H212.854L213.354 82.6692H199.354M199.354 82.6692H98.3545" stroke="black" stroke-width="0.5"/>
<path d="M96.8536 78.6692C92.3545 74.1692 89.3545 52.1692 93.3536 35.6692L165.354 31.6692C161.354 36.6692 160.354 70.6692 163.854 78.6692H96.8536Z" stroke="black" stroke-width="0.5"/>
<path d="M228.854 30.6692L165.354 31.6692C161.355 36.6692 160.355 70.6692 163.854 78.6692L198.354 77.1692C202.854 75.6692 209.354 70.1692 228.854 30.6692Z" stroke="black" stroke-width="0.5"/>
<path d="M170.854 30.1693C166.354 30.6693 162.854 30.6693 159.854 30.6693L165.354 8.16926C168.354 7.66919 171.354 7.66919 174.354 8.16926L170.854 30.1693Z" stroke="black" stroke-width="0.5"/>
<path d="M99.3545 32.1693C103.854 37.6693 110.854 34.1693 114.854 32.6693C115.854 17.1692 102.854 25.1692 99.3545 32.1693Z" stroke="black" stroke-width="0.5"/>
<path d="M234.853 9.66919L231.853 13.1692C248.853 18.6692 259.353 21.6692 271.853 28.1692H273.353L281.353 26.6692C266.353 20.1692 258.853 17.6692 234.853 9.66919Z" fill="#E0426F" stroke="black" stroke-width="0.5"/>
<path d="M271.853 28.1692C261.353 22.6692 242.353 16.1692 231.853 13.1692L229.853 15.6692L244.853 23.1692C243.353 25.6692 239.353 27.6692 233.353 30.3692C245.353 29.6692 262.353 28.6692 271.853 28.1692Z" fill="#E0426F" stroke="black" stroke-width="0.5"/>
<path d="M277.354 34.4692L283.353 32.1692L272.854 28.1692L228.854 30.6692C221.354 45.6692 206.354 76.1692 198.354 77.1692H212.854C211.354 66.1692 220.854 42.6692 245.854 51.6692C256.354 46.1692 266.354 40.6692 277.354 34.4692Z" fill="#E0426F" stroke="black" stroke-width="0.5"/>
<path d="M278.353 34.1692C266.353 40.6692 256.353 46.1692 245.853 51.6692C250.353 54.6692 260.853 60.6692 259.853 79.6692L284.853 79.1692V77.6692C293.353 76.6692 301.853 80.1692 300.353 66.1692L302.353 56.1692C302.353 54.6692 299.853 50.6692 297.353 50.1692C298.853 47.6692 295.853 38.6692 295.853 38.6692V37.1692L291.853 34.1692L286.853 32.6692L283.353 32.1692L278.353 34.1692Z" fill="#E0426F" stroke="black" stroke-width="0.5"/>
<path d="M281.353 26.6692L272.853 28.1692L283.353 32.1692C292.853 33.1692 291.851 34.6692 295.847 37.0894L295.353 28.6692L281.353 26.6692Z" fill="#E0426F"/>
<path d="M295.853 37.1692L295.847 37.0894M295.847 37.0894L295.353 28.6692L281.353 26.6692L272.853 28.1692L283.353 32.1692C292.853 33.1692 291.851 34.6692 295.847 37.0894Z" stroke="black" stroke-width="0.5"/>
<path d="M294.354 36.6694C293.854 34.1693 282.854 33.9692 277.354 34.4692" stroke="black" stroke-width="0.5"/>
<path d="M300.354 66.6692L260.854 68.6692C260.354 63.6692 258.188 59.5025 256.354 57.6692L302.354 55.1692M300.854 52.6692C289.854 51.1692 278.854 46.3692 266.854 40.3692M228.854 30.6692L272.854 28.1692L281.354 26.6692" stroke="black" stroke-width="0.5"/>
<path d="M290.854 40.6692C290.854 38.6692 289.854 34.6692 286.354 32.6692C288.575 32.6692 291.952 33.7096 294.463 36.0792C294.927 37.6092 293.854 41.1692 290.813 42.6692C290.799 42.0789 290.854 41.3935 290.854 40.6692Z" fill="#E0426F"/>
<path d="M272.854 43.1692C279.85 43.519 285.867 43.6241 291.248 44.1692M297.854 45.1692C295.751 44.7185 293.558 44.4033 291.248 44.1692M295.854 37.6692C295.437 37.0841 294.967 36.5548 294.463 36.0792M291.248 44.1692C290.921 43.8244 290.827 43.3014 290.813 42.6692M290.813 42.6692C290.799 42.0789 290.854 41.3935 290.854 40.6692C290.854 38.6692 289.854 34.6692 286.354 32.6692C288.575 32.6692 291.952 33.7096 294.463 36.0792M290.813 42.6692C293.854 41.1692 294.927 37.6092 294.463 36.0792" stroke="black" stroke-width="0.5"/>
<path d="M290.854 40.6692C286.354 40.6692 284.354 36.6692 283.354 34.1692" stroke="black" stroke-width="0.5"/>
<path d="M132.853 12.7692C119.353 16.7692 107.353 22.6692 93.3525 35.6692C100.353 23.6692 115.853 14.1692 131.353 9.16919L132.853 12.7692Z" stroke="black" stroke-width="0.5"/>
<path d="M131.353 9.16919C111.353 14.8432 93.3525 32.1692 85.3525 30.1692C98.3525 20.6692 114.353 12.1692 130.853 7.66919L131.353 9.16919Z" stroke="black" stroke-width="0.5"/>
<path d="M10.3532 48.1692H4.35321C1.85254 52.1692 1.85254 62.1692 2.35321 65.6692C0.852539 66.6692 0.853137 71.1692 1.85321 72.6692L5.85321 73.1692V74.6692L1.85321 76.6692V78.6692C5.85321 79.6692 14.3532 81.6692 22.3532 81.1692V79.6692H39.8532C39.1865 71.1692 40.8532 60.6692 49.8532 53.6692C47.3532 49.6692 40.3532 45.1692 37.3532 44.6692C27.3532 43.6692 12.3532 46.1692 10.3532 48.1692Z" stroke="black" stroke-width="0.5"/>
<path d="M93.3545 35.6692C75.5212 36.5025 43.8545 41.3692 33.3545 44.3692L37.3545 44.6692C42.3545 46.1692 47.8545 50.5025 49.8545 53.6692C62.8535 44.1692 88.3535 51.1692 86.8535 78.6692H96.8535C89.8535 67.6692 90.8535 45.6692 93.3545 35.6692Z" stroke="black" stroke-width="0.5"/>
<path d="M10.3525 48.1692H4.35254C36.8527 28.6691 58.8528 34.6692 84.8525 30.1692L93.8528 35.6692C76.8528 36.6692 47.8525 40.1692 33.8525 44.3692C25.8525 44.1692 11.8525 46.1692 10.3525 48.1692Z" stroke="black" stroke-width="0.5"/>
<path d="M37.354 44.6693C29.854 43.6692 12.854 45.6692 10.354 48.1693C9.55399 50.5692 12.6873 53.5025 14.354 54.6692C23.854 56.1692 37.354 50.1692 37.354 44.6693Z" stroke="black" stroke-width="0.5"/>
<path d="M4.35323 48.1692C11.3532 49.1692 5.35323 59.6692 2.35323 64.6692C1.85316 57.6692 2.35303 52.1692 4.35323 48.1692Z" stroke="black" stroke-width="0.5"/>
<path d="M22.3525 84.1692V79.6692H39.8525L40.3525 84.1692H22.3525Z" stroke="black" stroke-width="0.5"/>
<path d="M2.85449 65.6692C4.35449 68.1692 6.35449 71.3359 5.85449 73.1692M22.3545 79.6692C11.8545 80.1692 7.35449 76.1692 8.35449 72.6692C8.85449 72.1692 10.3545 70.6692 11.3545 70.6692" stroke="black" stroke-width="0.5"/>
<path d="M6.35449 65.6693C8.60443 65.1692 11.4793 64.5443 14.2293 64.1693M14.2293 64.1693C16.9794 63.7943 19.6044 63.6693 21.3545 64.1693C24.3545 65.6693 29.8545 70.6692 32.3545 74.6692C27.3545 75.6692 20.3545 75.1692 15.8545 75.1692C13.1619 75.1692 11.8545 72.8359 11.8545 71.6692C11.3545 68.6692 12.6043 65.5026 14.2293 64.1693Z" stroke="black" stroke-width="0.5"/>
<path d="M11.8545 71.1693C19.8545 69.6693 23.3545 72.2978 26.3545 73.7978M13.3545 74.1693L30.8545 73.6693" stroke="black" stroke-width="0.5"/>
<path d="M22.3525 82.6692H31.8525C33.8525 82.6692 35.3525 80.6692 34.8525 79.6692M38.3525 79.6692V84.1692" stroke="black" stroke-width="0.5"/>
<path d="M22.3544 81.1694C17.8544 81.1694 13.3544 81.6694 1.85444 78.6694V76.6694L5.85444 74.6694V73.1694L1.85444 72.6694C1.35352 71.1692 0.353711 68.1692 2.35371 65.6692C1.85395 57.6692 2.35395 51.1692 4.35444 48.1689C36.8544 28.6693 58.8544 34.6694 84.8544 30.1694C162.854 -24.8307 244.854 12.1692 281.854 26.6694L295.354 28.6692L295.854 35.6692V38.6692C297.353 43.6692 298.688 48.1692 297.354 50.1692C299.854 51.1692 302.354 54.3359 302.354 56.1692L300.354 66.1692C300.806 77.0171 298.398 77.2414 289.067 77.5538C288.076 77.587 286.007 77.6212 284.854 77.6692V79.1692L259.854 79.6002M22.3544 81.1694V84.1694H40.3528L39.8544 79.6694M22.3544 81.1694V79.6694H39.8544M39.8544 79.6694C36.8544 38.1694 90.3544 41.1694 86.8544 80.1694V82.6692H213.354C207.354 39.1692 261.854 39.1692 259.854 79.6002M259.353 79.6002H259.854" stroke="black"/>
</svg>
