<svg width="303" height="95" viewBox="0 0 303 95" fill="none" xmlns="http://www.w3.org/2000/svg">
<circle cx="62.667" cy="73.707" r="20.5" stroke="black"/>
<circle cx="235.667" cy="73.707" r="20.5" stroke="black"/>
<path d="M132.665 12.2069L131.165 8.70689C171.165 0.706999 192.665 1.20703 231.665 12.707L228.165 17.207C208.165 9.20694 190.165 8.20694 174.165 7.70701C171.665 7.20701 167.665 7.20697 165.165 7.70689C155.165 7.70701 143.165 9.20701 132.665 12.2069Z" fill="#E56E90" stroke="black" stroke-width="0.5"/>
<path d="M131.165 8.70708L130.665 7.20708C166.665 -3.79297 199.165 0.206905 234.665 9.20708L231.665 12.7071C191.665 0.207031 165.665 1.70703 131.165 8.70708Z" fill="#E56E90" stroke="black" stroke-width="0.5"/>
<path d="M131.165 8.70714C182.665 -2.79288 211.165 7.20715 231.665 12.7071" stroke="black" stroke-width="0.5"/>
<path d="M170.667 29.707L174.167 7.70703C207.667 8.70703 219.167 14.207 223.667 15.707L226.15 27.707C199.16 27.7077 181.665 29.2071 170.667 29.707Z" fill="#E56E90"/>
<path d="M226.667 30.207L223.667 15.707C219.167 14.207 207.667 8.70703 174.167 7.70703L170.667 29.707C181.667 29.207 199.167 27.707 226.167 27.707" stroke="black" stroke-width="0.5"/>
<path d="M165.167 7.70703C132.167 8.70703 112.167 17.707 93.167 35.207L95.667 33.207L159.667 30.207L165.167 7.70703Z" fill="#E56E90" stroke="black" stroke-width="0.5"/>
<path d="M239.665 22.207C235.998 19.5404 230.165 17.207 223.665 15.707L226.165 27.707H232.665C235.665 26.207 238.665 23.9758 239.665 22.207Z" fill="#E56E90" stroke="black" stroke-width="0.5"/>
<path d="M96.667 78.207H163.667L198.167 76.707H212.667L213.167 82.207H199.167H98.167H86.667V78.207H96.667Z" fill="#E56E90"/>
<path d="M96.667 78.207H163.667L198.167 76.707M96.667 78.207C96.667 79.707 97.167 80.707 98.167 82.207M96.667 78.207H86.667V82.207H98.167M198.167 76.707L199.167 82.207M198.167 76.707H212.667L213.167 82.207H199.167M199.167 82.207H98.167" stroke="black" stroke-width="0.5"/>
<path d="M96.6661 78.207C92.167 73.707 89.167 51.707 93.1661 35.207L165.167 31.207C161.167 36.207 160.167 70.207 163.667 78.207H96.6661Z" fill="#E56E90" stroke="black" stroke-width="0.5"/>
<path d="M228.667 30.207L165.167 31.207C161.167 36.207 160.167 70.207 163.667 78.207L198.167 76.707C202.667 75.207 209.167 69.707 228.667 30.207Z" fill="#E56E90" stroke="black" stroke-width="0.5"/>
<path d="M170.667 29.7071C166.167 30.2071 162.667 30.2071 159.667 30.2071L165.167 7.70711C168.167 7.20703 171.167 7.20703 174.167 7.70711L170.667 29.7071Z" fill="#E56E90" stroke="black" stroke-width="0.5"/>
<path d="M99.167 31.7073C103.667 37.2073 110.667 33.7073 114.667 32.2073C115.667 16.7072 102.667 24.7072 99.167 31.7073Z" fill="#E56E90" stroke="black" stroke-width="0.5"/>
<path d="M234.665 9.20703L231.665 12.707C248.665 18.207 259.165 21.207 271.665 27.707H273.165L281.165 26.207C266.165 19.707 258.665 17.207 234.665 9.20703Z" fill="#E56E90" stroke="black" stroke-width="0.5"/>
<path d="M271.665 27.707C261.165 22.207 242.165 15.707 231.665 12.707L229.665 15.207L244.665 22.707C243.165 25.207 239.165 27.207 233.165 29.907C245.165 29.207 262.165 28.207 271.665 27.707Z" fill="#E56E90" stroke="black" stroke-width="0.5"/>
<path d="M277.167 34.007L283.165 31.707L272.666 27.707L228.666 30.207C221.166 45.207 206.166 75.707 198.166 76.707H212.666C211.166 65.707 220.666 42.207 245.667 51.207C256.167 45.707 266.167 40.207 277.167 34.007Z" fill="#E56E90" stroke="black" stroke-width="0.5"/>
<path d="M278.165 33.7071C266.165 40.2071 256.165 45.7071 245.665 51.2071C250.165 54.207 260.665 60.207 259.665 79.207L284.665 78.707V77.207C293.165 76.207 301.665 79.707 300.165 65.707L302.165 55.707C302.165 54.207 299.665 50.207 297.165 49.707C298.665 47.207 295.665 38.207 295.665 38.207V36.707L291.665 33.707L286.665 32.207L283.165 31.707L278.165 33.7071Z" fill="#E56E90" stroke="black" stroke-width="0.5"/>
<path d="M281.165 26.207L272.665 27.707L283.165 31.707C292.665 32.707 291.664 34.207 295.659 36.6272L295.165 28.207L281.165 26.207Z" fill="#E56E90"/>
<path d="M295.665 36.707L295.659 36.6272M295.659 36.6272L295.165 28.207L281.165 26.207L272.665 27.707L283.165 31.707C292.665 32.707 291.664 34.207 295.659 36.6272Z" stroke="black" stroke-width="0.5"/>
<path d="M294.167 36.2072C293.667 33.7071 282.667 33.507 277.167 34.007" stroke="black" stroke-width="0.5"/>
<path d="M300.167 66.207L260.667 68.207C260.167 63.207 258 59.0404 256.167 57.207L302.167 54.707M300.667 52.207C289.667 50.707 278.667 45.907 266.667 39.907M228.667 30.207L272.667 27.707L281.167 26.207" stroke="black" stroke-width="0.5"/>
<path d="M290.667 40.207C290.667 38.207 289.667 34.207 286.167 32.207C288.388 32.207 291.765 33.2474 294.276 35.617C294.74 37.147 293.667 40.707 290.625 42.207C290.612 41.6167 290.667 40.9313 290.667 40.207Z" fill="#E56E90"/>
<path d="M272.667 42.707C279.663 43.0568 285.68 43.1619 291.06 43.707M297.667 44.707C295.564 44.2564 293.371 43.9411 291.06 43.707M295.667 37.207C295.249 36.6219 294.78 36.0927 294.276 35.617M291.06 43.707C290.734 43.3623 290.64 42.8392 290.625 42.207M290.625 42.207C290.612 41.6168 290.667 40.9313 290.667 40.207C290.667 38.207 289.667 34.207 286.167 32.207C288.388 32.207 291.765 33.2474 294.276 35.617M290.625 42.207C293.667 40.707 294.74 37.147 294.276 35.617" stroke="black" stroke-width="0.5"/>
<path d="M290.667 40.207C286.167 40.207 284.167 36.207 283.167 33.707" stroke="black" stroke-width="0.5"/>
<path d="M132.665 12.307C119.165 16.307 107.165 22.207 93.165 35.207C100.165 23.207 115.665 13.707 131.165 8.70703L132.665 12.307Z" stroke="black" stroke-width="0.5"/>
<path d="M131.165 8.70703C111.165 14.3811 93.165 31.707 85.165 29.707C98.165 20.207 114.165 11.707 130.665 7.20703L131.165 8.70703Z" stroke="black" stroke-width="0.5"/>
<path d="M10.1657 47.7069H4.16571C1.66504 51.7069 1.66504 61.7069 2.16571 65.2069C0.665039 66.2069 0.665637 70.7069 1.66571 72.2069L5.66571 72.7069V74.2069L1.66571 76.2069V78.2069C5.66571 79.2069 14.1657 81.2069 22.1657 80.7069V79.2069H39.6657C38.999 70.7069 40.6657 60.2069 49.6657 53.2069C47.1657 49.2069 40.1657 44.7069 37.1657 44.2069C27.1657 43.2069 12.1657 45.7069 10.1657 47.7069Z" stroke="black" stroke-width="0.5"/>
<path d="M93.167 35.207C75.3337 36.0404 43.667 40.907 33.167 43.907L37.167 44.207C42.167 45.707 47.667 50.0404 49.667 53.207C62.666 43.707 88.166 50.707 86.666 78.207H96.666C89.666 67.207 90.666 45.207 93.167 35.207Z" stroke="black" stroke-width="0.5"/>
<path d="M10.165 47.7071H4.16504C36.6652 28.207 58.6653 34.207 84.665 29.707L93.6653 35.207C76.6653 36.207 47.665 39.707 33.665 43.907C25.665 43.707 11.665 45.707 10.165 47.7071Z" stroke="black" stroke-width="0.5"/>
<path d="M37.1665 44.2071C29.6665 43.207 12.6665 45.207 10.1665 47.7071C9.36649 50.107 12.4998 53.0404 14.1665 54.207C23.6665 55.707 37.1665 49.707 37.1665 44.2071Z" stroke="black" stroke-width="0.5"/>
<path d="M4.16573 47.707C11.1657 48.707 5.16573 59.207 2.16573 64.207C1.66566 57.207 2.16553 51.707 4.16573 47.707Z" stroke="black" stroke-width="0.5"/>
<path d="M22.165 83.707V79.207H39.665L40.165 83.707H22.165Z" stroke="black" stroke-width="0.5"/>
<path d="M2.66699 65.207C4.16699 67.707 6.16699 70.8737 5.66699 72.707M22.167 79.207C11.667 79.707 7.16699 75.707 8.16699 72.207C8.66699 71.707 10.167 70.207 11.167 70.207" stroke="black" stroke-width="0.5"/>
<path d="M6.16699 65.2072C8.41693 64.7072 11.2918 64.0822 14.0418 63.7072M14.0418 63.7072C16.7919 63.3322 19.4169 63.2072 21.167 63.7072C24.167 65.2072 29.667 70.2072 32.167 74.2072C27.167 75.2072 20.167 74.7072 15.667 74.7072C12.9744 74.7072 11.667 72.3738 11.667 71.2072C11.167 68.2072 12.4168 65.0405 14.0418 63.7072Z" stroke="black" stroke-width="0.5"/>
<path d="M11.667 70.7072C19.667 69.2073 23.167 71.8358 26.167 73.3358M13.167 73.7073L30.667 73.2073" stroke="black" stroke-width="0.5"/>
<path d="M22.165 82.207H31.665C33.665 82.207 35.165 80.207 34.665 79.207M38.165 79.207V83.707" stroke="black" stroke-width="0.5"/>
<path d="M22.1669 80.7073C17.6669 80.7073 13.1669 81.2073 1.66694 78.2073V76.2073L5.66694 74.2073V72.7073L1.66694 72.2073C1.16602 70.707 0.166211 67.707 2.16621 65.207C1.66645 57.207 2.16645 50.707 4.16694 47.7068C36.6669 28.2072 58.6669 34.2072 84.6669 29.7072C162.667 -25.2929 244.667 11.707 281.667 26.2072L295.167 28.207L295.667 35.207V38.207C297.165 43.207 298.5 47.707 297.167 49.707C299.667 50.707 302.167 53.8737 302.167 55.707L300.167 65.707C300.619 76.5549 298.211 76.7792 288.879 77.0917C287.888 77.1249 285.819 77.159 284.667 77.207V78.707L259.667 79.1381M22.1669 80.7073V83.7073H40.1653L39.6669 79.2073M22.1669 80.7073V79.2073H39.6669M39.6669 79.2073C36.6669 37.7073 90.1669 40.7073 86.6669 79.7073V82.207H213.167C207.167 38.707 261.667 38.707 259.667 79.1381M259.165 79.1381H259.667" stroke="black"/>
</svg>
