<svg width="303" height="96" viewBox="0 0 303 96" fill="none" xmlns="http://www.w3.org/2000/svg">
<circle cx="62.8955" cy="74.0151" r="20.5" fill="#EFC7D3" stroke="black"/>
<circle cx="235.896" cy="74.0151" r="20.5" fill="#EFC7D3" stroke="black"/>
<path d="M132.894 12.515L131.394 9.01499C171.394 1.0151 192.894 1.51514 231.894 13.0151L228.394 17.5151C208.394 9.51505 190.394 8.51505 174.394 8.01511C171.894 7.51511 167.894 7.51508 165.394 8.01499C155.394 8.01511 143.394 9.51511 132.894 12.515Z" fill="#EFC7D3" stroke="black" stroke-width="0.5"/>
<path d="M131.394 9.01518L130.894 7.51518C166.894 -3.48486 199.394 0.515011 234.894 9.51518L231.894 13.0152C191.894 0.515137 165.894 2.01514 131.394 9.01518Z" fill="#EFC7D3" stroke="black" stroke-width="0.5"/>
<path d="M131.394 9.01512C182.894 -2.4849 211.394 7.51514 231.894 13.0151" stroke="black" stroke-width="0.5"/>
<path d="M170.896 30.0151L174.396 8.01514C207.896 9.01514 219.396 14.5151 223.896 16.0151L226.378 28.0151C199.388 28.0158 181.893 29.5152 170.896 30.0151Z" fill="#EFC7D3"/>
<path d="M226.896 30.5151L223.896 16.0151C219.396 14.5151 207.896 9.01514 174.396 8.01514L170.896 30.0151C181.896 29.5151 199.396 28.0151 226.396 28.0151" stroke="black" stroke-width="0.5"/>
<path d="M165.396 8.01514C132.396 9.01514 112.396 18.0151 93.3955 35.5151L95.8955 33.5151L159.896 30.5151L165.396 8.01514Z" fill="#EFC7D3" stroke="black" stroke-width="0.5"/>
<path d="M239.894 22.5151C236.227 19.8485 230.394 17.5151 223.894 16.0151L226.394 28.0151H232.894C235.894 26.5151 238.894 24.2839 239.894 22.5151Z" fill="#EFC7D3" stroke="black" stroke-width="0.5"/>
<path d="M96.8955 78.5151H163.896L198.396 77.0151H212.896L213.396 82.5151H199.396H98.3955H86.8955V78.5151H96.8955Z" fill="#EFC7D3"/>
<path d="M96.8955 78.5151H163.896L198.396 77.0151M96.8955 78.5151C96.8955 80.0151 97.3955 81.0151 98.3955 82.5151M96.8955 78.5151H86.8955V82.5151H98.3955M198.396 77.0151L199.396 82.5151M198.396 77.0151H212.896L213.396 82.5151H199.396M199.396 82.5151H98.3955" stroke="black" stroke-width="0.5"/>
<path d="M96.8946 78.5151C92.3955 74.0151 89.3956 52.0151 93.3946 35.5151L165.396 31.5151C161.396 36.5151 160.396 70.5151 163.896 78.5151H96.8946Z" fill="#EFC7D3" stroke="black" stroke-width="0.5"/>
<path d="M228.895 30.5151L165.395 31.5151C161.396 36.5151 160.396 70.5151 163.895 78.5151L198.395 77.0151C202.895 75.5151 209.395 70.0151 228.895 30.5151Z" fill="#EFC7D3" stroke="black" stroke-width="0.5"/>
<path d="M170.896 30.0152C166.396 30.5152 162.896 30.5152 159.896 30.5152L165.396 8.01521C168.396 7.51514 171.396 7.51514 174.396 8.01521L170.896 30.0152Z" fill="#EFC7D3" stroke="black" stroke-width="0.5"/>
<path d="M99.3955 32.0153C103.896 37.5153 110.896 34.0153 114.896 32.5153C115.896 17.0152 102.896 25.0151 99.3955 32.0153Z" fill="#EFC7D3" stroke="black" stroke-width="0.5"/>
<path d="M234.894 9.51514L231.894 13.0151C248.894 18.5151 259.394 21.5151 271.894 28.0151H273.394L281.394 26.5151C266.394 20.0151 258.894 17.5151 234.894 9.51514Z" stroke="black" stroke-width="0.5"/>
<path d="M271.894 28.0151C261.394 22.5151 242.394 16.0151 231.894 13.0151L229.894 15.5151L244.894 23.0151C243.394 25.5151 239.394 27.5151 233.394 30.2151C245.394 29.5151 262.394 28.5151 271.894 28.0151Z" stroke="black" stroke-width="0.5"/>
<path d="M277.396 34.3151L283.394 32.0151L272.895 28.0151L228.895 30.5151C221.395 45.5151 206.395 76.0151 198.395 77.0151H212.895C211.395 66.0151 220.895 42.5151 245.896 51.5151C256.396 46.0151 266.396 40.5151 277.396 34.3151Z" stroke="black" stroke-width="0.5"/>
<path d="M278.394 34.0152C266.394 40.5152 256.394 46.0152 245.894 51.5152C250.394 54.5151 260.894 60.5151 259.894 79.5151L284.894 79.0151V77.5151C293.394 76.5151 301.894 80.0151 300.394 66.0151L302.394 56.0151C302.394 54.5151 299.894 50.5151 297.394 50.0151C298.894 47.5151 295.894 38.5151 295.894 38.5151V37.0151L291.894 34.0151L286.894 32.5151L283.394 32.0151L278.394 34.0152Z" stroke="black" stroke-width="0.5"/>
<path d="M295.894 37.0151L295.888 36.9353M295.888 36.9353L295.394 28.5151L281.394 26.5151L272.894 28.0151L283.394 32.0151C292.894 33.0151 291.892 34.5151 295.888 36.9353Z" stroke="black" stroke-width="0.5"/>
<path d="M294.396 36.5153C293.896 34.0152 282.896 33.8151 277.396 34.3151" stroke="black" stroke-width="0.5"/>
<path d="M300.396 66.5151L260.896 68.5151C260.396 63.5151 258.229 59.3485 256.396 57.5151L302.396 55.0151M300.896 52.5151C289.896 51.0151 278.896 46.2151 266.896 40.2151M228.896 30.5151L272.896 28.0151L281.396 26.5151" stroke="black" stroke-width="0.5"/>
<path d="M272.896 43.0151C279.891 43.3649 285.908 43.47 291.289 44.0151M297.896 45.0151C295.793 44.5645 293.599 44.2492 291.289 44.0151M295.896 37.5151C295.478 36.93 295.008 36.4008 294.504 35.9251M291.289 44.0151C290.962 43.6704 290.868 43.1473 290.854 42.5151M290.854 42.5151C290.84 41.9249 290.896 41.2394 290.896 40.5151C290.896 38.5151 289.896 34.5151 286.396 32.5151C288.616 32.5151 291.993 33.5555 294.504 35.9251M290.854 42.5151C293.896 41.0151 294.968 37.4551 294.504 35.9251" stroke="black" stroke-width="0.5"/>
<path d="M290.896 40.5151C286.396 40.5151 284.396 36.5151 283.396 34.0151" stroke="black" stroke-width="0.5"/>
<path d="M132.894 12.6151C119.394 16.6151 107.394 22.5151 93.394 35.5151C100.394 23.5151 115.894 14.0151 131.394 9.01514L132.894 12.6151Z" stroke="black" stroke-width="0.5"/>
<path d="M131.394 9.01514C111.394 14.6892 93.394 32.0151 85.394 30.0151C98.394 20.5151 114.394 12.0151 130.894 7.51514L131.394 9.01514Z" stroke="black" stroke-width="0.5"/>
<path d="M10.3947 48.0151H4.39471C1.89404 52.0151 1.89404 62.0151 2.39471 65.5151C0.894043 66.5151 0.89464 71.0151 1.89471 72.5151L5.89471 73.0151V74.5151L1.89471 76.5151V78.5151C5.89471 79.5151 14.3947 81.5151 22.3947 81.0151V79.5151H39.8947C39.228 71.0151 40.8947 60.5151 49.8947 53.5151C47.3947 49.5151 40.3947 45.0151 37.3947 44.5151C27.3947 43.5151 12.3947 46.0151 10.3947 48.0151Z" stroke="black" stroke-width="0.5"/>
<path d="M93.3955 35.5151C75.5622 36.3485 43.8955 41.2151 33.3955 44.2151L37.3955 44.5151C42.3955 46.0151 47.8955 50.3485 49.8955 53.5151C62.8945 44.0151 88.3945 51.0151 86.8945 78.5151H96.8945C89.8945 67.5151 90.8945 45.5151 93.3955 35.5151Z" stroke="black" stroke-width="0.5"/>
<path d="M10.3936 48.0152H4.39355C36.8937 28.5151 58.8938 34.5151 84.8936 30.0151L93.8938 35.5151C76.8938 36.5151 47.8936 40.0151 33.8936 44.2151C25.8936 44.0151 11.8936 46.0151 10.3936 48.0152Z" stroke="black" stroke-width="0.5"/>
<path d="M37.3955 44.5152C29.8955 43.5151 12.8955 45.5151 10.3955 48.0152C9.5955 50.4152 12.7288 53.3485 14.3955 54.5151C23.8955 56.0151 37.3955 50.0151 37.3955 44.5152Z" stroke="black" stroke-width="0.5"/>
<path d="M4.39474 48.0151C11.3947 49.0151 5.39474 59.5151 2.39474 64.5151C1.89467 57.5151 2.39453 52.0151 4.39474 48.0151Z" stroke="black" stroke-width="0.5"/>
<path d="M22.394 84.0151V79.5151H39.894L40.394 84.0151H22.394Z" stroke="black" stroke-width="0.5"/>
<path d="M2.89551 65.5151C4.39551 68.0151 6.39551 71.1818 5.89551 73.0151M22.3955 79.5151C11.8955 80.0151 7.39551 76.0151 8.39551 72.5151C8.89551 72.0151 10.3955 70.5151 11.3955 70.5151" stroke="black" stroke-width="0.5"/>
<path d="M6.39551 65.5152C8.64545 65.0152 11.5204 64.3902 14.2703 64.0152M14.2703 64.0152C17.0204 63.6402 19.6455 63.5152 21.3955 64.0152C24.3955 65.5152 29.8955 70.5151 32.3955 74.5151C27.3955 75.5151 20.3955 75.0151 15.8955 75.0151C13.2029 75.0151 11.8955 72.6818 11.8955 71.5151C11.3955 68.5151 12.6454 65.3485 14.2703 64.0152Z" stroke="black" stroke-width="0.5"/>
<path d="M11.8955 71.0152C19.8955 69.5153 23.3955 72.1437 26.3955 73.6437M13.3955 74.0153L30.8955 73.5153" stroke="black" stroke-width="0.5"/>
<path d="M22.3936 82.5151H31.8936C33.8936 82.5151 35.3936 80.5151 34.8936 79.5151M38.3936 79.5151V84.0151" stroke="black" stroke-width="0.5"/>
<path d="M22.3955 81.0154C17.8955 81.0154 13.3955 81.5154 1.89545 78.5154V76.5154L5.89545 74.5154V73.0154L1.89545 72.5154C1.39453 71.0151 0.394727 68.0151 2.39472 65.5151C1.89497 57.5151 2.39497 51.0151 4.39545 48.0149C36.8955 28.5153 58.8954 34.5153 84.8954 30.0153C162.895 -24.9848 244.895 12.0151 281.895 26.5153L295.395 28.5151L295.895 35.5151V38.5151C297.394 43.5151 298.729 48.0151 297.395 50.0151C299.895 51.0151 302.395 54.1818 302.395 56.0151L300.395 66.0151C300.847 76.863 298.439 77.0873 289.108 77.3998C288.117 77.433 286.048 77.4671 284.895 77.5151V79.0151L259.895 79.4462M22.3955 81.0154V84.0154H40.3938L39.8955 79.5154M22.3955 81.0154V79.5154H39.8955M39.8955 79.5154C36.8955 38.0154 90.3954 41.0154 86.8954 80.0154V82.5151H213.395C207.395 39.0151 261.895 39.0151 259.895 79.4462M259.394 79.4462H259.895" stroke="black"/>
</svg>
