<svg width="304" height="96" viewBox="0 0 304 96" fill="none" xmlns="http://www.w3.org/2000/svg">
<circle cx="63.0938" cy="74.0605" r="20.5" fill="#EDADBF" stroke="black"/>
<circle cx="236.094" cy="74.0605" r="20.5" fill="#EDADBF" stroke="black"/>
<path d="M133.092 12.5604L131.592 9.0604C171.592 1.06051 193.092 1.56055 232.092 13.0605L228.592 17.5605C208.592 9.56046 190.592 8.56046 174.592 8.06052C172.092 7.56052 168.092 7.56049 165.592 8.0604C155.592 8.06052 143.592 9.56052 133.092 12.5604Z" fill="#E0426F" stroke="black" stroke-width="0.5"/>
<path d="M131.592 9.06059L131.092 7.56059C167.092 -3.43945 199.592 0.560421 235.092 9.56059L232.092 13.0606C192.092 0.560547 166.092 2.06055 131.592 9.06059Z" fill="#E0426F" stroke="black" stroke-width="0.5"/>
<path d="M131.592 9.06066C183.092 -2.43937 211.592 7.56067 232.092 13.0607" stroke="black" stroke-width="0.5"/>
<path d="M171.094 30.0605L174.594 8.06055C208.094 9.06055 219.594 14.5605 224.094 16.0605L226.577 28.0605C199.586 28.0612 182.091 29.5607 171.094 30.0605Z" fill="#E0426F"/>
<path d="M227.094 30.5605L224.094 16.0605C219.594 14.5605 208.094 9.06055 174.594 8.06055L171.094 30.0605C182.094 29.5605 199.594 28.0605 226.594 28.0605" stroke="black" stroke-width="0.5"/>
<path d="M165.594 8.06055C132.594 9.06055 112.594 18.0605 93.5938 35.5605L96.0938 33.5605L160.094 30.5605L165.594 8.06055Z" fill="#E0426F" stroke="black" stroke-width="0.5"/>
<path d="M240.092 22.5605C236.425 19.8939 230.592 17.5605 224.092 16.0605L226.592 28.0605H233.092C236.092 26.5605 239.092 24.3293 240.092 22.5605Z" fill="#E0426F" stroke="black" stroke-width="0.5"/>
<path d="M97.0938 78.5605H164.094L198.594 77.0605H213.094L213.594 82.5605H199.594H98.5938H87.0938V78.5605H97.0938Z" fill="#E0426F"/>
<path d="M97.0938 78.5605H164.094L198.594 77.0605M97.0938 78.5605C97.0938 80.0605 97.5938 81.0605 98.5938 82.5605M97.0938 78.5605H87.0938V82.5605H98.5938M198.594 77.0605L199.594 82.5605M198.594 77.0605H213.094L213.594 82.5605H199.594M199.594 82.5605H98.5938" stroke="black" stroke-width="0.5"/>
<path d="M97.0929 78.5605C92.5937 74.0605 89.5938 52.0605 93.5929 35.5605L165.594 31.5605C161.594 36.5605 160.594 70.5605 164.094 78.5605H97.0929Z" fill="#E0426F" stroke="black" stroke-width="0.5"/>
<path d="M229.094 30.5605L165.594 31.5605C161.594 36.5605 160.594 70.5605 164.094 78.5605L198.594 77.0605C203.094 75.5605 209.594 70.0605 229.094 30.5605Z" fill="#E0426F" stroke="black" stroke-width="0.5"/>
<path d="M171.094 30.0606C166.594 30.5606 163.094 30.5606 160.094 30.5606L165.594 8.06062C168.594 7.56055 171.594 7.56055 174.594 8.06062L171.094 30.0606Z" fill="#E0426F" stroke="black" stroke-width="0.5"/>
<path d="M99.5938 32.0608C104.094 37.5608 111.094 34.0608 115.094 32.5608C116.094 17.0607 103.094 25.0607 99.5938 32.0608Z" fill="#E0426F" stroke="black" stroke-width="0.5"/>
<path d="M235.092 9.56055L232.092 13.0605C249.092 18.5605 259.592 21.5605 272.092 28.0605H273.592L281.592 26.5605C266.592 20.0605 259.092 17.5605 235.092 9.56055Z" stroke="black" stroke-width="0.5"/>
<path d="M272.092 28.0605C261.592 22.5605 242.592 16.0605 232.092 13.0605L230.092 15.5605L245.092 23.0605C243.592 25.5605 239.592 27.5605 233.592 30.2605C245.592 29.5605 262.592 28.5605 272.092 28.0605Z" stroke="black" stroke-width="0.5"/>
<path d="M277.594 34.3605L283.592 32.0605L273.093 28.0605L229.093 30.5605C221.593 45.5605 206.593 76.0605 198.593 77.0605H213.093C211.593 66.0605 221.093 42.5605 246.094 51.5605C256.594 46.0605 266.594 40.5605 277.594 34.3605Z" stroke="black" stroke-width="0.5"/>
<path d="M278.592 34.0606C266.592 40.5606 256.592 46.0606 246.092 51.5606C250.592 54.5605 261.092 60.5605 260.092 79.5605L285.092 79.0605V77.5605C293.592 76.5605 302.092 80.0605 300.592 66.0605L302.592 56.0605C302.592 54.5605 300.092 50.5605 297.592 50.0605C299.092 47.5605 296.092 38.5605 296.092 38.5605V37.0605L292.092 34.0605L287.092 32.5605L283.592 32.0605L278.592 34.0606Z" stroke="black" stroke-width="0.5"/>
<path d="M296.092 37.0605L296.086 36.9807M296.086 36.9807L295.592 28.5605L281.592 26.5605L273.092 28.0605L283.592 32.0605C293.092 33.0605 292.091 34.5605 296.086 36.9807Z" stroke="black" stroke-width="0.5"/>
<path d="M294.594 36.5607C294.094 34.0606 283.094 33.8606 277.594 34.3606" stroke="black" stroke-width="0.5"/>
<path d="M300.594 66.5605L261.094 68.5605C260.594 63.5605 258.427 59.3939 256.594 57.5605L302.594 55.0605M301.094 52.5605C290.094 51.0605 279.094 46.2605 267.094 40.2605M229.094 30.5605L273.094 28.0605L281.594 26.5605" stroke="black" stroke-width="0.5"/>
<path d="M273.094 43.0605C280.089 43.4103 286.106 43.5154 291.487 44.0605M298.094 45.0605C295.991 44.6099 293.798 44.2946 291.487 44.0605M296.094 37.5605C295.676 36.9754 295.207 36.4462 294.703 35.9705M291.487 44.0605C291.161 43.7158 291.067 43.1927 291.052 42.5605M291.052 42.5605C291.038 41.9703 291.094 41.2848 291.094 40.5605C291.094 38.5605 290.094 34.5605 286.594 32.5605C288.815 32.5605 292.191 33.6009 294.703 35.9705M291.052 42.5605C294.094 41.0605 295.166 37.5005 294.703 35.9705" stroke="black" stroke-width="0.5"/>
<path d="M291.094 40.5605C286.594 40.5605 284.594 36.5605 283.594 34.0605" stroke="black" stroke-width="0.5"/>
<path d="M133.092 12.6605C119.592 16.6605 107.592 22.5605 93.5923 35.5605C100.592 23.5605 116.092 14.0605 131.592 9.06055L133.092 12.6605Z" fill="#E56E90" stroke="black" stroke-width="0.5"/>
<path d="M131.592 9.06055C111.592 14.7346 93.5923 32.0605 85.5923 30.0605C98.5923 20.5605 114.592 12.0605 131.092 7.56055L131.592 9.06055Z" fill="#E56E90" stroke="black" stroke-width="0.5"/>
<path d="M10.593 48.0604H4.59295C2.09229 52.0604 2.09229 62.0604 2.59295 65.5604C1.09229 66.5604 1.09288 71.0604 2.09295 72.5604L6.09295 73.0604V74.5604L2.09295 76.5604V78.5604C6.09295 79.5604 14.593 81.5604 22.593 81.0604V79.5604H40.0929C39.4263 71.0604 41.0929 60.5604 50.0929 53.5604C47.5929 49.5604 40.5929 45.0604 37.5929 44.5604C27.5929 43.5604 12.593 46.0604 10.593 48.0604Z" fill="#E56E90" stroke="black" stroke-width="0.5"/>
<path d="M93.5938 35.5605C75.7604 36.3939 44.0938 41.2605 33.5938 44.2605L37.5938 44.5605C42.5938 46.0605 48.0938 50.3939 50.0938 53.5605C63.0928 44.0605 88.5928 51.0605 87.0928 78.5605H97.0928C90.0928 67.5605 91.0928 45.5605 93.5938 35.5605Z" fill="#E56E90" stroke="black" stroke-width="0.5"/>
<path d="M10.5918 48.0606H4.5918C37.092 28.5605 59.092 34.5605 85.0918 30.0605L94.092 35.5605C77.092 36.5605 48.0918 40.0605 34.0918 44.2606C26.0918 44.0605 12.0918 46.0605 10.5918 48.0606Z" fill="#E56E90" stroke="black" stroke-width="0.5"/>
<path d="M37.5937 44.5606C30.0937 43.5605 13.0937 45.5605 10.5937 48.0606C9.79374 50.4606 12.9271 53.3939 14.5937 54.5605C24.0938 56.0605 37.5937 50.0605 37.5937 44.5606Z" fill="#E56E90" stroke="black" stroke-width="0.5"/>
<path d="M4.59298 48.0605C11.593 49.0605 5.59298 59.5605 2.59298 64.5605C2.09291 57.5605 2.59277 52.0605 4.59298 48.0605Z" fill="#E56E90" stroke="black" stroke-width="0.5"/>
<path d="M22.5923 84.0605V79.5605H40.0923L40.5923 84.0605H22.5923Z" fill="#E56E90" stroke="black" stroke-width="0.5"/>
<path d="M3.09375 65.5605C4.59375 68.0605 6.59375 71.2272 6.09375 73.0605M22.5938 79.5605C12.0938 80.0605 7.59375 76.0605 8.59375 72.5605C9.09375 72.0605 10.5938 70.5605 11.5938 70.5605" stroke="black" stroke-width="0.5"/>
<path d="M32.5938 74.5607C30.0938 70.5607 24.5938 65.5607 21.5938 64.0607C19.8437 63.5607 17.2186 63.6857 14.4685 64.0607C12.8436 65.3941 11.5938 68.5607 12.0938 71.5607C12.0938 72.7273 13.4012 75.0607 16.0938 75.0607C20.5938 75.0607 27.5938 75.5607 32.5938 74.5607Z" fill="#E56E90"/>
<path d="M6.59375 65.5607C8.84369 65.0607 11.7186 64.4357 14.4685 64.0607M14.4685 64.0607C17.2186 63.6857 19.8437 63.5607 21.5938 64.0607C24.5938 65.5607 30.0938 70.5607 32.5938 74.5607C27.5938 75.5607 20.5938 75.0607 16.0938 75.0607C13.4012 75.0607 12.0938 72.7273 12.0938 71.5607C11.5938 68.5607 12.8436 65.3941 14.4685 64.0607Z" stroke="black" stroke-width="0.5"/>
<path d="M12.0938 71.0607C20.0938 69.5608 23.5938 72.1893 26.5938 73.6893M13.5938 74.0608L31.0938 73.5608" stroke="black" stroke-width="0.5"/>
<path d="M22.5918 82.5605H32.0918C34.0918 82.5605 35.5918 80.5605 35.0918 79.5605M38.5918 79.5605V84.0605" stroke="black" stroke-width="0.5"/>
<path d="M22.5937 81.0608C18.0937 81.0608 13.5937 81.5608 2.0937 78.5608V76.5608L6.0937 74.5608V73.0608L2.0937 72.5608C1.59277 71.0605 0.592969 68.0605 2.59296 65.5605C2.09321 57.5605 2.59321 51.0605 4.5937 48.0603C37.0937 28.5607 59.0937 34.5607 85.0937 30.0607C163.094 -24.9394 245.094 12.0605 282.094 26.5607L295.594 28.5605L296.094 35.5605V38.5605C297.592 43.5605 298.927 48.0605 297.594 50.0605C300.094 51.0605 302.594 54.2272 302.594 56.0605L300.594 66.0605C301.046 76.9085 298.638 77.1327 289.306 77.4452C288.315 77.4784 286.246 77.5125 285.094 77.5605V79.0605L260.094 79.4916M22.5937 81.0608V84.0608H40.592L40.0937 79.5608M22.5937 81.0608V79.5608H40.0937M40.0937 79.5608C37.0937 38.0608 90.5937 41.0608 87.0937 80.0608V82.5605H213.594C207.594 39.0605 262.094 39.0605 260.094 79.4916M259.592 79.4916H260.094" stroke="black"/>
</svg>
