<svg width="303" height="96" viewBox="0 0 303 96" fill="none" xmlns="http://www.w3.org/2000/svg">
<circle cx="62.4795" cy="74.2146" r="20.5" fill="#E0426F" stroke="black"/>
<circle cx="235.479" cy="74.2146" r="20.5" fill="#E0426F" stroke="black"/>
<path d="M132.478 12.7145L130.978 9.21445C170.978 1.21457 192.478 1.7146 231.478 13.2145L227.978 17.7145C207.978 9.71451 189.978 8.71451 173.978 8.21458C171.478 7.71458 167.478 7.71454 164.978 8.21445C154.978 8.21458 142.978 9.71458 132.478 12.7145Z" fill="#E56E90" stroke="black" stroke-width="0.5"/>
<path d="M130.978 9.21464L130.478 7.71464C166.478 -3.2854 198.978 0.714474 234.478 9.71465L231.478 13.2146C191.478 0.7146 165.478 2.2146 130.978 9.21464Z" fill="#E56E90" stroke="black" stroke-width="0.5"/>
<path d="M130.978 9.21447C182.478 -2.28556 210.978 7.71448 231.478 13.2145" stroke="black" stroke-width="0.5"/>
<path d="M170.479 30.2146L173.979 8.2146C207.479 9.2146 218.979 14.7146 223.479 16.2146L225.962 28.2146C198.972 28.2152 181.477 29.7147 170.479 30.2146Z" fill="#E56E90"/>
<path d="M226.479 30.7146L223.479 16.2146C218.979 14.7146 207.479 9.2146 173.979 8.2146L170.479 30.2146C181.479 29.7146 198.979 28.2146 225.979 28.2146" stroke="black" stroke-width="0.5"/>
<path d="M164.979 8.2146C131.979 9.2146 111.979 18.2146 92.9795 35.7146L95.4795 33.7146L159.479 30.7146L164.979 8.2146Z" fill="#E56E90" stroke="black" stroke-width="0.5"/>
<path d="M239.478 22.7146C235.811 20.0479 229.978 17.7146 223.478 16.2146L225.978 28.2146H232.478C235.478 26.7146 238.478 24.4833 239.478 22.7146Z" fill="#E56E90" stroke="black" stroke-width="0.5"/>
<path d="M96.4795 78.7146H163.479L197.979 77.2146H212.479L212.979 82.7146H198.979H97.9795H86.4795V78.7146H96.4795Z" fill="#E56E90"/>
<path d="M96.4795 78.7146H163.479L197.979 77.2146M96.4795 78.7146C96.4795 80.2146 96.9795 81.2146 97.9795 82.7146M96.4795 78.7146H86.4795V82.7146H97.9795M197.979 77.2146L198.979 82.7146M197.979 77.2146H212.479L212.979 82.7146H198.979M198.979 82.7146H97.9795" stroke="black" stroke-width="0.5"/>
<path d="M96.4786 78.7146C91.9795 74.2146 88.9795 52.2146 92.9786 35.7146L164.979 31.7146C160.979 36.7146 159.979 70.7146 163.479 78.7146H96.4786Z" fill="#E56E90" stroke="black" stroke-width="0.5"/>
<path d="M228.479 30.7146L164.979 31.7146C160.98 36.7146 159.98 70.7146 163.479 78.7146L197.979 77.2146C202.479 75.7146 208.979 70.2146 228.479 30.7146Z" fill="#E56E90" stroke="black" stroke-width="0.5"/>
<path d="M170.479 30.2147C165.979 30.7147 162.479 30.7147 159.479 30.7147L164.979 8.21467C167.979 7.7146 170.979 7.7146 173.979 8.21467L170.479 30.2147Z" fill="#E56E90" stroke="black" stroke-width="0.5"/>
<path d="M98.9795 32.2146C103.479 37.7146 110.479 34.2146 114.479 32.7146C115.479 17.2145 102.479 25.2145 98.9795 32.2146Z" fill="#E56E90" stroke="black" stroke-width="0.5"/>
<path d="M234.478 9.7146L231.478 13.2146C248.478 18.7146 258.978 21.7146 271.478 28.2146H272.978L280.978 26.7146C265.978 20.2146 258.478 17.7146 234.478 9.7146Z" fill="#EFC7D3" stroke="black" stroke-width="0.5"/>
<path d="M271.478 28.2146C260.978 22.7146 241.978 16.2146 231.478 13.2146L229.478 15.7146L244.478 23.2146C242.978 25.7146 238.978 27.7146 232.978 30.4146C244.978 29.7146 261.978 28.7146 271.478 28.2146Z" fill="#EFC7D3" stroke="black" stroke-width="0.5"/>
<path d="M276.979 34.5146L282.978 32.2146L272.479 28.2146L228.479 30.7146C220.979 45.7146 205.979 76.2146 197.979 77.2146H212.479C210.979 66.2146 220.479 42.7146 245.479 51.7146C255.979 46.2146 265.979 40.7146 276.979 34.5146Z" fill="#EFC7D3" stroke="black" stroke-width="0.5"/>
<path d="M277.978 34.2146C265.978 40.7146 255.978 46.2146 245.478 51.7146C249.978 54.7146 260.478 60.7146 259.478 79.7146L284.478 79.2146V77.7146C292.978 76.7146 301.478 80.2146 299.978 66.2146L301.978 56.2146C301.978 54.7146 299.478 50.7146 296.978 50.2146C298.478 47.7146 295.478 38.7146 295.478 38.7146V37.2146L291.478 34.2146L286.478 32.7146L282.978 32.2146L277.978 34.2146Z" fill="#EFC7D3" stroke="black" stroke-width="0.5"/>
<path d="M280.978 26.7146L272.478 28.2146L282.978 32.2146C292.478 33.2146 291.476 34.7146 295.472 37.1348L294.978 28.7146L280.978 26.7146Z" fill="#EFC7D3"/>
<path d="M295.478 37.2146L295.472 37.1348M295.472 37.1348L294.978 28.7146L280.978 26.7146L272.478 28.2146L282.978 32.2146C292.478 33.2146 291.476 34.7146 295.472 37.1348Z" stroke="black" stroke-width="0.5"/>
<path d="M293.979 36.7148C293.479 34.2147 282.479 34.0146 276.979 34.5146" stroke="black" stroke-width="0.5"/>
<path d="M299.979 66.7146L260.479 68.7146C259.979 63.7146 257.813 59.5479 255.979 57.7146L301.979 55.2146M300.479 52.7146C289.479 51.2146 278.479 46.4146 266.479 40.4146M228.479 30.7146L272.479 28.2146L280.979 26.7146" stroke="black" stroke-width="0.5"/>
<path d="M290.479 40.7146C290.479 38.7146 289.479 34.7146 285.979 32.7146C288.2 32.7146 291.577 33.755 294.088 36.1246C294.552 37.6546 293.479 41.2146 290.438 42.7146C290.424 42.1243 290.479 41.4389 290.479 40.7146Z" fill="#EFC7D3"/>
<path d="M272.479 43.2146C279.475 43.5644 285.492 43.6695 290.873 44.2146M297.479 45.2146C295.376 44.764 293.183 44.4487 290.873 44.2146M295.479 37.7146C295.062 37.1295 294.592 36.6002 294.088 36.1246M290.873 44.2146C290.546 43.8698 290.452 43.3468 290.438 42.7146M290.438 42.7146C290.424 42.1243 290.479 41.4389 290.479 40.7146C290.479 38.7146 289.479 34.7146 285.979 32.7146C288.2 32.7146 291.577 33.755 294.088 36.1246M290.438 42.7146C293.479 41.2146 294.552 37.6546 294.088 36.1246" stroke="black" stroke-width="0.5"/>
<path d="M290.479 40.7146C285.979 40.7146 283.979 36.7146 282.979 34.2146" stroke="black" stroke-width="0.5"/>
<path d="M132.478 12.8146C118.978 16.8146 106.978 22.7146 92.978 35.7146C99.978 23.7146 115.478 14.2146 130.978 9.2146L132.478 12.8146Z" fill="#E56E90" stroke="black" stroke-width="0.5"/>
<path d="M130.978 9.2146C110.978 14.8886 92.978 32.2146 84.978 30.2146C97.978 20.7146 113.978 12.2146 130.478 7.7146L130.978 9.2146Z" fill="#E56E90" stroke="black" stroke-width="0.5"/>
<path d="M9.97869 48.2145H3.97869C1.47803 52.2145 1.47803 62.2145 1.97869 65.7145C0.478027 66.7145 0.478625 71.2145 1.47869 72.7145L5.47869 73.2145V74.7145L1.47869 76.7145V78.7145C5.47869 79.7145 13.9787 81.7145 21.9787 81.2145V79.7145H39.4787C38.812 71.2145 40.4787 60.7145 49.4787 53.7145C46.9787 49.7145 39.9787 45.2145 36.9787 44.7145C26.9787 43.7145 11.9787 46.2145 9.97869 48.2145Z" fill="#E56E90" stroke="black" stroke-width="0.5"/>
<path d="M92.9795 35.7146C75.1462 36.5479 43.4795 41.4146 32.9795 44.4146L36.9795 44.7146C41.9795 46.2146 47.4795 50.5479 49.4795 53.7146C62.4785 44.2146 87.9785 51.2146 86.4785 78.7146H96.4785C89.4785 67.7146 90.4785 45.7146 92.9795 35.7146Z" fill="#E56E90" stroke="black" stroke-width="0.5"/>
<path d="M9.97754 48.2147H3.97754C36.4777 28.7146 58.4778 34.7146 84.4775 30.2146L93.4778 35.7146C76.4778 36.7146 47.4775 40.2146 33.4775 44.4146C25.4775 44.2146 11.4775 46.2146 9.97754 48.2147Z" fill="#E56E90" stroke="black" stroke-width="0.5"/>
<path d="M36.9795 44.7147C29.4795 43.7146 12.4795 45.7146 9.97948 48.2147C9.17948 50.6146 12.3128 53.5479 13.9795 54.7146C23.4795 56.2146 36.9795 50.2146 36.9795 44.7147Z" fill="#E56E90" stroke="black" stroke-width="0.5"/>
<path d="M3.97872 48.2146C10.9787 49.2146 4.97872 59.7146 1.97872 64.7146C1.47865 57.7146 1.97852 52.2146 3.97872 48.2146Z" fill="#E56E90" stroke="black" stroke-width="0.5"/>
<path d="M21.978 84.2146V79.7146H39.478L39.978 84.2146H21.978Z" fill="#E56E90" stroke="black" stroke-width="0.5"/>
<path d="M2.47949 65.7144C3.97949 68.2144 5.97949 71.381 5.47949 73.2144M21.9795 79.7144C11.4795 80.2144 6.97949 76.2144 7.97949 72.7144C8.47949 72.2144 9.97949 70.7144 10.9795 70.7144" stroke="black" stroke-width="0.5"/>
<path d="M31.9795 74.7145C29.4795 70.7145 23.9795 65.7146 20.9795 64.2146C19.2294 63.7145 16.6044 63.8395 13.8543 64.2146C12.2294 65.5479 10.9795 68.7145 11.4795 71.7145C11.4795 72.8811 12.7869 75.2145 15.4795 75.2145C19.9795 75.2145 26.9795 75.7145 31.9795 74.7145Z" fill="#E56E90"/>
<path d="M5.97949 65.7146C8.22943 65.2145 11.1043 64.5896 13.8543 64.2146M13.8543 64.2146C16.6044 63.8395 19.2294 63.7145 20.9795 64.2146C23.9795 65.7146 29.4795 70.7145 31.9795 74.7145C26.9795 75.7145 19.9795 75.2145 15.4795 75.2145C12.7869 75.2145 11.4795 72.8811 11.4795 71.7145C10.9795 68.7145 12.2293 65.5479 13.8543 64.2146Z" stroke="black" stroke-width="0.5"/>
<path d="M11.4795 71.2146C19.4795 69.7146 22.9795 72.3431 25.9795 73.8431M12.9795 74.2146L30.4795 73.7146" stroke="black" stroke-width="0.5"/>
<path d="M21.9775 82.7144H31.4775C33.4775 82.7144 34.9775 80.7144 34.4775 79.7144M37.9775 79.7144V84.2144" stroke="black" stroke-width="0.5"/>
<path d="M21.9794 81.2148C17.4794 81.2148 12.9794 81.7148 1.47944 78.7148V76.7148L5.47944 74.7148V73.2148L1.47944 72.7149C0.978516 71.2146 -0.0212885 68.2146 1.97871 65.7146C1.47895 57.7146 1.97895 51.2146 3.97944 48.2143C36.4794 28.7147 58.4794 34.7148 84.4794 30.2148C162.479 -24.7853 244.479 12.2146 281.479 26.7148L294.979 28.7146L295.479 35.7146V38.7146C296.978 43.7146 298.313 48.2146 296.979 50.2146C299.479 51.2146 301.979 54.3813 301.979 56.2146L299.979 66.2146C300.431 77.0625 298.023 77.2868 288.692 77.5992C287.701 77.6324 285.632 77.6666 284.479 77.7146V79.2146L259.479 79.6456M21.9794 81.2148V84.2148H39.9778L39.4794 79.7148M21.9794 81.2148V79.7148H39.4794M39.4794 79.7148C36.4794 38.2148 89.9794 41.2148 86.4794 80.2148V82.7146H212.979C206.979 39.2146 261.479 39.2146 259.479 79.6456M258.978 79.6456H259.479" stroke="black"/>
</svg>
