<svg width="303" height="95" viewBox="0 0 303 95" fill="none" xmlns="http://www.w3.org/2000/svg">
<circle cx="62.876" cy="73.707" r="20.5" fill="#EFC7D3" stroke="black"/>
<circle cx="235.876" cy="73.707" r="20.5" fill="#EFC7D3" stroke="black"/>
<path d="M132.874 12.2069L131.374 8.70689C171.374 0.706999 192.874 1.20703 231.874 12.707L228.374 17.207C208.374 9.20694 190.374 8.20694 174.374 7.70701C171.874 7.20701 167.874 7.20697 165.374 7.70689C155.374 7.70701 143.374 9.20701 132.874 12.2069Z" fill="#E56E90" stroke="black" stroke-width="0.5"/>
<path d="M131.374 8.70708L130.874 7.20708C166.874 -3.79297 199.374 0.206905 234.874 9.20708L231.874 12.7071C191.874 0.207031 165.874 1.70703 131.374 8.70708Z" fill="#E56E90" stroke="black" stroke-width="0.5"/>
<path d="M131.374 8.70714C182.874 -2.79288 211.374 7.20715 231.874 12.7071" stroke="black" stroke-width="0.5"/>
<path d="M170.876 29.707L174.376 7.70703C207.876 8.70703 219.376 14.207 223.876 15.707L226.359 27.707C199.369 27.7077 181.874 29.2071 170.876 29.707Z" fill="#E56E90"/>
<path d="M226.876 30.207L223.876 15.707C219.376 14.207 207.876 8.70703 174.376 7.70703L170.876 29.707C181.876 29.207 199.376 27.707 226.376 27.707" stroke="black" stroke-width="0.5"/>
<path d="M165.376 7.70703C132.376 8.70703 112.376 17.707 93.376 35.207L95.876 33.207L159.876 30.207L165.376 7.70703Z" fill="#E56E90" stroke="black" stroke-width="0.5"/>
<path d="M239.874 22.207C236.207 19.5404 230.374 17.207 223.874 15.707L226.374 27.707H232.874C235.874 26.207 238.874 23.9758 239.874 22.207Z" fill="#E56E90" stroke="black" stroke-width="0.5"/>
<path d="M96.876 78.207H163.876L198.376 76.707H212.876L213.376 82.207H199.376H98.376H86.876V78.207H96.876Z" fill="#E56E90"/>
<path d="M96.876 78.207H163.876L198.376 76.707M96.876 78.207C96.876 79.707 97.376 80.707 98.376 82.207M96.876 78.207H86.876V82.207H98.376M198.376 76.707L199.376 82.207M198.376 76.707H212.876L213.376 82.207H199.376M199.376 82.207H98.376" stroke="black" stroke-width="0.5"/>
<path d="M96.8751 78.207C92.376 73.707 89.376 51.707 93.3751 35.207L165.376 31.207C161.376 36.207 160.376 70.207 163.876 78.207H96.8751Z" fill="#E56E90" stroke="black" stroke-width="0.5"/>
<path d="M228.876 30.207L165.376 31.207C161.376 36.207 160.376 70.207 163.876 78.207L198.376 76.707C202.876 75.207 209.376 69.707 228.876 30.207Z" fill="#E56E90" stroke="black" stroke-width="0.5"/>
<path d="M170.876 29.7071C166.376 30.2071 162.876 30.2071 159.876 30.2071L165.376 7.70711C168.376 7.20703 171.376 7.20703 174.376 7.70711L170.876 29.7071Z" fill="#E56E90" stroke="black" stroke-width="0.5"/>
<path d="M99.376 31.7073C103.876 37.2073 110.876 33.7073 114.876 32.2073C115.876 16.7072 102.876 24.7072 99.376 31.7073Z" fill="#E56E90" stroke="black" stroke-width="0.5"/>
<path d="M234.874 9.20703L231.874 12.707C248.874 18.207 259.374 21.207 271.874 27.707H273.374L281.374 26.207C266.374 19.707 258.874 17.207 234.874 9.20703Z" fill="#EDADBF" stroke="black" stroke-width="0.5"/>
<path d="M271.874 27.707C261.374 22.207 242.374 15.707 231.874 12.707L229.874 15.207L244.874 22.707C243.374 25.207 239.374 27.207 233.374 29.907C245.374 29.207 262.374 28.207 271.874 27.707Z" fill="#EDADBF" stroke="black" stroke-width="0.5"/>
<path d="M277.376 34.007L283.374 31.707L272.875 27.707L228.875 30.207C221.375 45.207 206.375 75.707 198.375 76.707H212.875C211.375 65.707 220.875 42.207 245.876 51.207C256.376 45.707 266.376 40.207 277.376 34.007Z" fill="#EDADBF" stroke="black" stroke-width="0.5"/>
<path d="M278.374 33.7071C266.374 40.2071 256.374 45.7071 245.874 51.2071C250.374 54.207 260.874 60.207 259.874 79.207L284.874 78.707V77.207C293.374 76.207 301.874 79.707 300.374 65.707L302.374 55.707C302.374 54.207 299.874 50.207 297.374 49.707C298.874 47.207 295.874 38.207 295.874 38.207V36.707L291.874 33.707L286.874 32.207L283.374 31.707L278.374 33.7071Z" fill="#EDADBF" stroke="black" stroke-width="0.5"/>
<path d="M281.374 26.207L272.874 27.707L283.374 31.707C292.874 32.707 291.873 34.207 295.868 36.6272L295.374 28.207L281.374 26.207Z" fill="#EDADBF"/>
<path d="M295.874 36.707L295.868 36.6272M295.868 36.6272L295.374 28.207L281.374 26.207L272.874 27.707L283.374 31.707C292.874 32.707 291.873 34.207 295.868 36.6272Z" stroke="black" stroke-width="0.5"/>
<path d="M294.376 36.2072C293.876 33.7071 282.876 33.507 277.376 34.007" stroke="black" stroke-width="0.5"/>
<path d="M300.376 66.207L260.876 68.207C260.376 63.207 258.209 59.0404 256.376 57.207L302.376 54.707M300.876 52.207C289.876 50.707 278.876 45.907 266.876 39.907M228.876 30.207L272.876 27.707L281.376 26.207" stroke="black" stroke-width="0.5"/>
<path d="M290.876 40.207C290.876 38.207 289.876 34.207 286.376 32.207C288.597 32.207 291.974 33.2474 294.485 35.617C294.949 37.147 293.876 40.707 290.834 42.207C290.821 41.6167 290.876 40.9313 290.876 40.207Z" fill="#EDADBF"/>
<path d="M272.876 42.707C279.872 43.0568 285.889 43.1619 291.269 43.707M297.876 44.707C295.773 44.2564 293.58 43.9411 291.269 43.707M295.876 37.207C295.458 36.6219 294.989 36.0927 294.485 35.617M291.269 43.707C290.943 43.3623 290.849 42.8392 290.834 42.207M290.834 42.207C290.821 41.6168 290.876 40.9313 290.876 40.207C290.876 38.207 289.876 34.207 286.376 32.207C288.597 32.207 291.974 33.2474 294.485 35.617M290.834 42.207C293.876 40.707 294.949 37.147 294.485 35.617" stroke="black" stroke-width="0.5"/>
<path d="M290.876 40.207C286.376 40.207 284.376 36.207 283.376 33.707" stroke="black" stroke-width="0.5"/>
<path d="M132.874 12.307C119.374 16.307 107.374 22.207 93.374 35.207C100.374 23.207 115.874 13.707 131.374 8.70703L132.874 12.307Z" stroke="black" stroke-width="0.5"/>
<path d="M131.374 8.70703C111.374 14.3811 93.374 31.707 85.374 29.707C98.374 20.207 114.374 11.707 130.874 7.20703L131.374 8.70703Z" stroke="black" stroke-width="0.5"/>
<path d="M10.3747 47.7069H4.37469C1.87402 51.7069 1.87402 61.7069 2.37469 65.2069C0.874023 66.2069 0.874621 70.7069 1.87469 72.2069L5.87469 72.7069V74.2069L1.87469 76.2069V78.2069C5.87469 79.2069 14.3747 81.2069 22.3747 80.7069V79.2069H39.8747C39.208 70.7069 40.8747 60.2069 49.8747 53.2069C47.3747 49.2069 40.3747 44.7069 37.3747 44.2069C27.3747 43.2069 12.3747 45.7069 10.3747 47.7069Z" stroke="black" stroke-width="0.5"/>
<path d="M93.376 35.207C75.5426 36.0404 43.876 40.907 33.376 43.907L37.376 44.207C42.376 45.707 47.876 50.0404 49.876 53.207C62.875 43.707 88.375 50.707 86.875 78.207H96.875C89.875 67.207 90.875 45.207 93.376 35.207Z" stroke="black" stroke-width="0.5"/>
<path d="M10.374 47.7071H4.37402C36.8742 28.207 58.8743 34.207 84.874 29.707L93.8743 35.207C76.8743 36.207 47.874 39.707 33.874 43.907C25.874 43.707 11.874 45.707 10.374 47.7071Z" stroke="black" stroke-width="0.5"/>
<path d="M37.3755 44.2071C29.8755 43.207 12.8755 45.207 10.3755 47.7071C9.57548 50.107 12.7088 53.0404 14.3755 54.207C23.8755 55.707 37.3755 49.707 37.3755 44.2071Z" stroke="black" stroke-width="0.5"/>
<path d="M4.37472 47.707C11.3747 48.707 5.37472 59.207 2.37472 64.207C1.87465 57.207 2.37451 51.707 4.37472 47.707Z" stroke="black" stroke-width="0.5"/>
<path d="M22.374 83.707V79.207H39.874L40.374 83.707H22.374Z" stroke="black" stroke-width="0.5"/>
<path d="M2.87598 65.207C4.37598 67.707 6.37598 70.8737 5.87598 72.707M22.376 79.207C11.876 79.707 7.37598 75.707 8.37598 72.207C8.87598 71.707 10.376 70.207 11.376 70.207" stroke="black" stroke-width="0.5"/>
<path d="M6.37598 65.2072C8.62592 64.7072 11.5008 64.0822 14.2508 63.7072M14.2508 63.7072C17.0008 63.3322 19.6259 63.2072 21.376 63.7072C24.376 65.2072 29.876 70.2072 32.376 74.2072C27.376 75.2072 20.376 74.7072 15.876 74.7072C13.1834 74.7072 11.876 72.3738 11.876 71.2072C11.376 68.2072 12.6258 65.0405 14.2508 63.7072Z" stroke="black" stroke-width="0.5"/>
<path d="M11.876 70.7072C19.876 69.2073 23.376 71.8358 26.376 73.3358M13.376 73.7073L30.876 73.2073" stroke="black" stroke-width="0.5"/>
<path d="M22.374 82.207H31.874C33.874 82.207 35.374 80.207 34.874 79.207M38.374 79.207V83.707" stroke="black" stroke-width="0.5"/>
<path d="M22.3759 80.7073C17.8759 80.7073 13.3759 81.2073 1.87592 78.2073V76.2073L5.87592 74.2073V72.7073L1.87592 72.2073C1.375 70.707 0.375196 67.707 2.37519 65.207C1.87543 57.207 2.37543 50.707 4.37592 47.7068C36.8759 28.2072 58.8759 34.2072 84.8759 29.7072C162.876 -25.2929 244.876 11.707 281.876 26.2072L295.376 28.207L295.876 35.207V38.207C297.374 43.207 298.709 47.707 297.376 49.707C299.876 50.707 302.376 53.8737 302.376 55.707L300.376 65.707C300.828 76.5549 298.42 76.7792 289.088 77.0917C288.097 77.1249 286.028 77.159 284.876 77.207V78.707L259.876 79.1381M22.3759 80.7073V83.7073H40.3743L39.8759 79.2073M22.3759 80.7073V79.2073H39.8759M39.8759 79.2073C36.8759 37.7073 90.3759 40.7073 86.8759 79.7073V82.207H213.376C207.376 38.707 261.876 38.707 259.876 79.1381M259.374 79.1381H259.876" stroke="black"/>
</svg>
