<svg width="303" height="96" viewBox="0 0 303 96" fill="none" xmlns="http://www.w3.org/2000/svg">
<circle cx="62.2607" cy="74.2297" r="20.5" fill="#E56E90" stroke="black"/>
<circle cx="235.261" cy="74.2297" r="20.5" fill="#E56E90" stroke="black"/>
<path d="M132.259 12.7296L130.759 9.22959C170.759 1.2297 192.259 1.72974 231.259 13.2297L227.759 17.7297C207.759 9.72965 189.759 8.72964 173.759 8.22971C171.259 7.72971 167.259 7.72968 164.759 8.22959C154.759 8.22971 142.759 9.72971 132.259 12.7296Z" fill="#E0426F" stroke="black" stroke-width="0.5"/>
<path d="M130.759 9.22978L130.259 7.72978C166.259 -3.27026 198.759 0.72961 234.259 9.72978L231.259 13.2298C191.259 0.729736 165.259 2.22974 130.759 9.22978Z" fill="#E0426F" stroke="black" stroke-width="0.5"/>
<path d="M130.759 9.2296C182.259 -2.27042 210.759 7.72961 231.259 13.2296" stroke="black" stroke-width="0.5"/>
<path d="M170.261 30.2297L173.761 8.22974C207.261 9.22974 218.761 14.7297 223.261 16.2297L225.743 28.2297C198.753 28.2304 181.258 29.7298 170.261 30.2297Z" fill="#E0426F"/>
<path d="M226.261 30.7297L223.261 16.2297C218.761 14.7297 207.261 9.22974 173.761 8.22974L170.261 30.2297C181.261 29.7297 198.761 28.2297 225.761 28.2297" stroke="black" stroke-width="0.5"/>
<path d="M164.761 8.22974C131.761 9.22974 111.761 18.2297 92.7607 35.7297L95.2607 33.7297L159.261 30.7297L164.761 8.22974Z" fill="#E0426F" stroke="black" stroke-width="0.5"/>
<path d="M239.259 22.7297C235.592 20.0631 229.759 17.7297 223.259 16.2297L225.759 28.2297H232.259C235.259 26.7297 238.259 24.4985 239.259 22.7297Z" fill="#E0426F" stroke="black" stroke-width="0.5"/>
<path d="M96.2607 78.7297H163.261L197.761 77.2297H212.261L212.761 82.7297H198.761H97.7607H86.2607V78.7297H96.2607Z" fill="#E0426F"/>
<path d="M96.2607 78.7297H163.261L197.761 77.2297M96.2607 78.7297C96.2607 80.2297 96.7607 81.2297 97.7607 82.7297M96.2607 78.7297H86.2607V82.7297H97.7607M197.761 77.2297L198.761 82.7297M197.761 77.2297H212.261L212.761 82.7297H198.761M198.761 82.7297H97.7607" stroke="black" stroke-width="0.5"/>
<path d="M96.2599 78.7297C91.7607 74.2297 88.7608 52.2297 92.7599 35.7297L164.761 31.7297C160.761 36.7297 159.761 70.7297 163.261 78.7297H96.2599Z" fill="#E0426F" stroke="black" stroke-width="0.5"/>
<path d="M228.261 30.7297L164.761 31.7297C160.761 36.7297 159.761 70.7297 163.261 78.7297L197.761 77.2297C202.261 75.7297 208.761 70.2297 228.261 30.7297Z" fill="#E0426F" stroke="black" stroke-width="0.5"/>
<path d="M170.261 30.2298C165.761 30.7298 162.261 30.7298 159.261 30.7298L164.761 8.22981C167.761 7.72974 170.761 7.72974 173.761 8.22981L170.261 30.2298Z" fill="#E0426F" stroke="black" stroke-width="0.5"/>
<path d="M98.7607 32.2297C103.261 37.7297 110.261 34.2297 114.261 32.7297C115.261 17.2296 102.261 25.2296 98.7607 32.2297Z" fill="#E0426F" stroke="black" stroke-width="0.5"/>
<path d="M234.259 9.72974L231.259 13.2297C248.259 18.7297 258.759 21.7297 271.259 28.2297H272.759L280.759 26.7297C265.759 20.2297 258.259 17.7297 234.259 9.72974Z" fill="#E56E90" stroke="black" stroke-width="0.5"/>
<path d="M271.259 28.2297C260.759 22.7297 241.759 16.2297 231.259 13.2297L229.259 15.7297L244.259 23.2297C242.759 25.7297 238.759 27.7297 232.759 30.4297C244.759 29.7297 261.759 28.7297 271.259 28.2297Z" fill="#E56E90" stroke="black" stroke-width="0.5"/>
<path d="M276.761 34.5297L282.759 32.2297L272.26 28.2297L228.26 30.7297C220.76 45.7297 205.76 76.2297 197.76 77.2297H212.26C210.76 66.2297 220.26 42.7297 245.261 51.7297C255.761 46.2297 265.761 40.7297 276.761 34.5297Z" fill="#E56E90" stroke="black" stroke-width="0.5"/>
<path d="M277.759 34.2298C265.759 40.7298 255.759 46.2298 245.259 51.7298C249.759 54.7297 260.259 60.7297 259.259 79.7297L284.259 79.2297V77.7297C292.759 76.7297 301.259 80.2297 299.759 66.2297L301.759 56.2297C301.759 54.7297 299.259 50.7297 296.759 50.2297C298.259 47.7297 295.259 38.7297 295.259 38.7297V37.2297L291.259 34.2297L286.259 32.7297L282.759 32.2297L277.759 34.2298Z" fill="#E56E90" stroke="black" stroke-width="0.5"/>
<path d="M280.759 26.7297L272.259 28.2297L282.759 32.2297C292.259 33.2297 291.258 34.7297 295.253 37.1499L294.759 28.7297L280.759 26.7297Z" fill="#E56E90"/>
<path d="M295.259 37.2297L295.253 37.1499M295.253 37.1499L294.759 28.7297L280.759 26.7297L272.259 28.2297L282.759 32.2297C292.259 33.2297 291.258 34.7297 295.253 37.1499Z" stroke="black" stroke-width="0.5"/>
<path d="M293.761 36.7299C293.261 34.2298 282.261 34.0297 276.761 34.5297" stroke="black" stroke-width="0.5"/>
<path d="M299.761 66.7297L260.261 68.7297C259.761 63.7297 257.594 59.5631 255.761 57.7297L301.761 55.2297M300.261 52.7297C289.261 51.2297 278.261 46.4297 266.261 40.4297M228.261 30.7297L272.261 28.2297L280.761 26.7297" stroke="black" stroke-width="0.5"/>
<path d="M290.261 40.7297C290.261 38.7297 289.261 34.7297 285.761 32.7297C287.982 32.7297 291.358 33.7701 293.87 36.1397C294.333 37.6697 293.261 41.2297 290.219 42.7297C290.205 42.1395 290.261 41.454 290.261 40.7297Z" fill="#E56E90"/>
<path d="M272.261 43.2297C279.256 43.5795 285.273 43.6846 290.654 44.2297M297.261 45.2297C295.158 44.7791 292.964 44.4638 290.654 44.2297M295.261 37.7297C294.843 37.1446 294.374 36.6154 293.87 36.1397M290.654 44.2297C290.328 43.885 290.234 43.3619 290.219 42.7297M290.219 42.7297C290.205 42.1395 290.261 41.454 290.261 40.7297C290.261 38.7297 289.261 34.7297 285.761 32.7297C287.982 32.7297 291.358 33.7701 293.87 36.1397M290.219 42.7297C293.261 41.2297 294.333 37.6697 293.87 36.1397" stroke="black" stroke-width="0.5"/>
<path d="M290.261 40.7297C285.761 40.7297 283.761 36.7297 282.761 34.2297" stroke="black" stroke-width="0.5"/>
<path d="M132.259 12.8297C118.759 16.8297 106.759 22.7297 92.7588 35.7297C99.7588 23.7297 115.259 14.2297 130.759 9.22974L132.259 12.8297Z" fill="#E0426F" stroke="black" stroke-width="0.5"/>
<path d="M130.759 9.22974C110.759 14.9038 92.7588 32.2297 84.7588 30.2297C97.7588 20.7297 113.759 12.2297 130.259 7.72974L130.759 9.22974Z" fill="#E0426F" stroke="black" stroke-width="0.5"/>
<path d="M9.75946 48.2296H3.75946C1.25879 52.2296 1.25879 62.2296 1.75946 65.7296C0.258789 66.7296 0.259387 71.2296 1.25946 72.7296L5.25946 73.2296V74.7296L1.25946 76.7296V78.7296C5.25946 79.7296 13.7595 81.7296 21.7595 81.2296V79.7296H39.2595C38.5928 71.2296 40.2595 60.7296 49.2595 53.7296C46.7595 49.7296 39.7595 45.2296 36.7595 44.7296C26.7595 43.7296 11.7595 46.2296 9.75946 48.2296Z" fill="#E0426F" stroke="black" stroke-width="0.5"/>
<path d="M92.7607 35.7297C74.9274 36.5631 43.2607 41.4297 32.7607 44.4297L36.7607 44.7297C41.7607 46.2297 47.2607 50.5631 49.2607 53.7297C62.2598 44.2297 87.7598 51.2297 86.2598 78.7297H96.2598C89.2598 67.7297 90.2598 45.7297 92.7607 35.7297Z" fill="#E0426F" stroke="black" stroke-width="0.5"/>
<path d="M9.75879 48.2298H3.75879C36.259 28.7297 58.259 34.7297 84.2588 30.2297L93.259 35.7297C76.259 36.7297 47.2588 40.2297 33.2588 44.4297C25.2588 44.2297 11.2588 46.2297 9.75879 48.2298Z" fill="#E0426F" stroke="black" stroke-width="0.5"/>
<path d="M36.7602 44.7298C29.2602 43.7297 12.2602 45.7297 9.76024 48.2298C8.96024 50.6298 12.0936 53.5631 13.7602 54.7297C23.2603 56.2297 36.7602 50.2297 36.7602 44.7298Z" fill="#E0426F" stroke="black" stroke-width="0.5"/>
<path d="M3.75948 48.2297C10.7595 49.2297 4.75948 59.7297 1.75948 64.7297C1.25941 57.7297 1.75928 52.2297 3.75948 48.2297Z" fill="#E0426F" stroke="black" stroke-width="0.5"/>
<path d="M21.7588 84.2297V79.7297H39.2588L39.7588 84.2297H21.7588Z" fill="#E0426F" stroke="black" stroke-width="0.5"/>
<path d="M2.26074 65.7295C3.76074 68.2295 5.76074 71.3962 5.26074 73.2295M21.7607 79.7295C11.2607 80.2295 6.76074 76.2295 7.76074 72.7295C8.26074 72.2295 9.76074 70.7295 10.7607 70.7295" stroke="black" stroke-width="0.5"/>
<path d="M31.7607 74.7296C29.2607 70.7296 23.7607 65.7297 20.7607 64.2297C19.0107 63.7297 16.3856 63.8547 13.6355 64.2297C12.0106 65.563 10.7607 68.7296 11.2607 71.7296C11.2607 72.8963 12.5682 75.2296 15.2607 75.2296C19.7607 75.2296 26.7607 75.7296 31.7607 74.7296Z" fill="#E0426F"/>
<path d="M5.76074 65.7297C8.01068 65.2297 10.8856 64.6047 13.6355 64.2297M13.6355 64.2297C16.3856 63.8547 19.0107 63.7297 20.7607 64.2297C23.7607 65.7297 29.2607 70.7296 31.7607 74.7296C26.7607 75.7296 19.7607 75.2296 15.2607 75.2296C12.5682 75.2296 11.2607 72.8963 11.2607 71.7296C10.7607 68.7296 12.0106 65.563 13.6355 64.2297Z" stroke="black" stroke-width="0.5"/>
<path d="M11.2607 71.2297C19.2607 69.7297 22.7607 72.3582 25.7607 73.8582M12.7607 74.2297L30.2607 73.7297" stroke="black" stroke-width="0.5"/>
<path d="M21.7588 82.7295H31.2588C33.2588 82.7295 34.7588 80.7295 34.2588 79.7295M37.7588 79.7295V84.2295" stroke="black" stroke-width="0.5"/>
<path d="M21.7607 81.23C17.2607 81.23 12.7607 81.73 1.26069 78.73V76.73L5.26069 74.73V73.23L1.26069 72.73C0.759766 71.2297 -0.240039 68.2297 1.75996 65.7297C1.2602 57.7297 1.7602 51.2297 3.76069 48.2295C36.2607 28.7299 58.2607 34.7299 84.2607 30.2299C162.261 -24.7702 244.261 12.2297 281.261 26.7299L294.761 28.7297L295.261 35.7297V38.7297C296.759 43.7297 298.094 48.2297 296.761 50.2297C299.261 51.2297 301.761 54.3964 301.761 56.2297L299.761 66.2297C300.213 77.0776 297.805 77.3019 288.473 77.6144C287.482 77.6476 285.413 77.6817 284.261 77.7297V79.2297L259.261 79.6608M21.7607 81.23V84.23H39.759L39.2607 79.73M21.7607 81.23V79.73H39.2607M39.2607 79.73C36.2607 38.23 89.7607 41.23 86.2607 80.23V82.7297H212.761C206.761 39.2297 261.261 39.2297 259.261 79.6608M258.759 79.6608H259.261" stroke="black"/>
</svg>
