<svg width="303" height="95" viewBox="0 0 303 95" fill="none" xmlns="http://www.w3.org/2000/svg">
<circle cx="62.458" cy="73.707" r="20.5" fill="#E0426F" stroke="black"/>
<circle cx="235.458" cy="73.707" r="20.5" fill="#E0426F" stroke="black"/>
<path d="M132.456 12.2069L130.956 8.70689C170.956 0.706999 192.456 1.20703 231.456 12.707L227.956 17.207C207.956 9.20694 189.956 8.20694 173.956 7.70701C171.456 7.20701 167.456 7.20697 164.956 7.70689C154.956 7.70701 142.956 9.20701 132.456 12.2069Z" fill="#E56E90" stroke="black" stroke-width="0.5"/>
<path d="M130.956 8.70708L130.456 7.20708C166.456 -3.79297 198.956 0.206905 234.456 9.20708L231.456 12.7071C191.456 0.207031 165.456 1.70703 130.956 8.70708Z" fill="#E56E90" stroke="black" stroke-width="0.5"/>
<path d="M130.956 8.70714C182.456 -2.79288 210.956 7.20715 231.456 12.7071" stroke="black" stroke-width="0.5"/>
<path d="M170.458 29.707L173.958 7.70703C207.458 8.70703 218.958 14.207 223.458 15.707L225.941 27.707C198.951 27.7077 181.456 29.2071 170.458 29.707Z" fill="#E56E90"/>
<path d="M226.458 30.207L223.458 15.707C218.958 14.207 207.458 8.70703 173.958 7.70703L170.458 29.707C181.458 29.207 198.958 27.707 225.958 27.707" stroke="black" stroke-width="0.5"/>
<path d="M164.958 7.70703C131.958 8.70703 111.958 17.707 92.958 35.207L95.458 33.207L159.458 30.207L164.958 7.70703Z" fill="#E56E90" stroke="black" stroke-width="0.5"/>
<path d="M239.456 22.207C235.789 19.5404 229.956 17.207 223.456 15.707L225.956 27.707H232.456C235.456 26.207 238.456 23.9758 239.456 22.207Z" fill="#E56E90" stroke="black" stroke-width="0.5"/>
<path d="M96.458 78.207H163.458L197.958 76.707H212.458L212.958 82.207H198.958H97.958H86.458V78.207H96.458Z" fill="#E56E90"/>
<path d="M96.458 78.207H163.458L197.958 76.707M96.458 78.207C96.458 79.707 96.958 80.707 97.958 82.207M96.458 78.207H86.458V82.207H97.958M197.958 76.707L198.958 82.207M197.958 76.707H212.458L212.958 82.207H198.958M198.958 82.207H97.958" stroke="black" stroke-width="0.5"/>
<path d="M96.4571 78.207C91.958 73.707 88.9581 51.707 92.9571 35.207L164.958 31.207C160.958 36.207 159.958 70.207 163.458 78.207H96.4571Z" fill="#E56E90" stroke="black" stroke-width="0.5"/>
<path d="M228.458 30.207L164.958 31.207C160.958 36.207 159.958 70.207 163.458 78.207L197.958 76.707C202.458 75.207 208.958 69.707 228.458 30.207Z" fill="#E56E90" stroke="black" stroke-width="0.5"/>
<path d="M170.458 29.7071C165.958 30.2071 162.458 30.2071 159.458 30.2071L164.958 7.70711C167.958 7.20703 170.958 7.20703 173.958 7.70711L170.458 29.7071Z" fill="#E56E90" stroke="black" stroke-width="0.5"/>
<path d="M98.958 31.7073C103.458 37.2073 110.458 33.7073 114.458 32.2073C115.458 16.7072 102.458 24.7072 98.958 31.7073Z" fill="#E56E90" stroke="black" stroke-width="0.5"/>
<path d="M234.456 9.20703L231.456 12.707C248.456 18.207 258.956 21.207 271.456 27.707H272.956L280.956 26.207C265.956 19.707 258.456 17.207 234.456 9.20703Z" fill="#E56E90" stroke="black" stroke-width="0.5"/>
<path d="M271.456 27.707C260.956 22.207 241.956 15.707 231.456 12.707L229.456 15.207L244.456 22.707C242.956 25.207 238.956 27.207 232.956 29.907C244.956 29.207 261.956 28.207 271.456 27.707Z" fill="#E56E90" stroke="black" stroke-width="0.5"/>
<path d="M276.958 34.007L282.956 31.707L272.457 27.707L228.457 30.207C220.957 45.207 205.957 75.707 197.957 76.707H212.457C210.957 65.707 220.457 42.207 245.458 51.207C255.958 45.707 265.958 40.207 276.958 34.007Z" fill="#E56E90" stroke="black" stroke-width="0.5"/>
<path d="M277.956 33.7071C265.956 40.2071 255.956 45.7071 245.456 51.2071C249.956 54.207 260.456 60.207 259.456 79.207L284.456 78.707V77.207C292.956 76.207 301.456 79.707 299.956 65.707L301.956 55.707C301.956 54.207 299.456 50.207 296.956 49.707C298.456 47.207 295.456 38.207 295.456 38.207V36.707L291.456 33.707L286.456 32.207L282.956 31.707L277.956 33.7071Z" fill="#E56E90" stroke="black" stroke-width="0.5"/>
<path d="M280.956 26.207L272.456 27.707L282.956 31.707C292.456 32.707 291.455 34.207 295.45 36.6272L294.956 28.207L280.956 26.207Z" fill="#E56E90"/>
<path d="M295.456 36.707L295.45 36.6272M295.45 36.6272L294.956 28.207L280.956 26.207L272.456 27.707L282.956 31.707C292.456 32.707 291.455 34.207 295.45 36.6272Z" stroke="black" stroke-width="0.5"/>
<path d="M293.958 36.2072C293.458 33.7071 282.458 33.507 276.958 34.007" stroke="black" stroke-width="0.5"/>
<path d="M299.958 66.207L260.458 68.207C259.958 63.207 257.791 59.0404 255.958 57.207L301.958 54.707M300.458 52.207C289.458 50.707 278.458 45.907 266.458 39.907M228.458 30.207L272.458 27.707L280.958 26.207" stroke="black" stroke-width="0.5"/>
<path d="M290.458 40.207C290.458 38.207 289.458 34.207 285.958 32.207C288.179 32.207 291.556 33.2474 294.067 35.617C294.531 37.147 293.458 40.707 290.416 42.207C290.403 41.6167 290.458 40.9313 290.458 40.207Z" fill="#E56E90"/>
<path d="M272.458 42.707C279.454 43.0568 285.471 43.1619 290.851 43.707M297.458 44.707C295.355 44.2564 293.162 43.9411 290.851 43.707M295.458 37.207C295.04 36.6219 294.571 36.0927 294.067 35.617M290.851 43.707C290.525 43.3623 290.431 42.8392 290.416 42.207M290.416 42.207C290.403 41.6168 290.458 40.9313 290.458 40.207C290.458 38.207 289.458 34.207 285.958 32.207C288.179 32.207 291.556 33.2474 294.067 35.617M290.416 42.207C293.458 40.707 294.531 37.147 294.067 35.617" stroke="black" stroke-width="0.5"/>
<path d="M290.458 40.207C285.958 40.207 283.958 36.207 282.958 33.707" stroke="black" stroke-width="0.5"/>
<path d="M132.456 12.307C118.956 16.307 106.956 22.207 92.9561 35.207C99.9561 23.207 115.456 13.707 130.956 8.70703L132.456 12.307Z" stroke="black" stroke-width="0.5"/>
<path d="M130.956 8.70703C110.956 14.3811 92.9561 31.707 84.9561 29.707C97.9561 20.207 113.956 11.707 130.456 7.20703L130.956 8.70703Z" stroke="black" stroke-width="0.5"/>
<path d="M9.95672 47.7069H3.95672C1.45605 51.7069 1.45605 61.7069 1.95672 65.2069C0.456055 66.2069 0.456652 70.7069 1.45672 72.2069L5.45672 72.7069V74.2069L1.45672 76.2069V78.2069C5.45672 79.2069 13.9567 81.2069 21.9567 80.7069V79.2069H39.4567C38.7901 70.7069 40.4567 60.2069 49.4567 53.2069C46.9567 49.2069 39.9567 44.7069 36.9567 44.2069C26.9567 43.2069 11.9567 45.7069 9.95672 47.7069Z" stroke="black" stroke-width="0.5"/>
<path d="M92.958 35.207C75.1247 36.0404 43.458 40.907 32.958 43.907L36.958 44.207C41.958 45.707 47.458 50.0404 49.458 53.207C62.457 43.707 87.957 50.707 86.457 78.207H96.457C89.457 67.207 90.457 45.207 92.958 35.207Z" stroke="black" stroke-width="0.5"/>
<path d="M9.95606 47.7071H3.95605C36.4562 28.207 58.4563 34.207 84.4561 29.707L93.4563 35.207C76.4563 36.207 47.4561 39.707 33.4561 43.907C25.4561 43.707 11.4561 45.707 9.95606 47.7071Z" stroke="black" stroke-width="0.5"/>
<path d="M36.9575 44.2071C29.4575 43.207 12.4575 45.207 9.95751 47.7071C9.15751 50.107 12.2908 53.0404 13.9575 54.207C23.4575 55.707 36.9575 49.707 36.9575 44.2071Z" stroke="black" stroke-width="0.5"/>
<path d="M3.95675 47.707C10.9568 48.707 4.95675 59.207 1.95675 64.207C1.45668 57.207 1.95654 51.707 3.95675 47.707Z" stroke="black" stroke-width="0.5"/>
<path d="M21.9561 83.707V79.207H39.4561L39.9561 83.707H21.9561Z" stroke="black" stroke-width="0.5"/>
<path d="M2.45801 65.207C3.95801 67.707 5.95801 70.8737 5.45801 72.707M21.958 79.207C11.458 79.707 6.95801 75.707 7.95801 72.207C8.45801 71.707 9.95801 70.207 10.958 70.207" stroke="black" stroke-width="0.5"/>
<path d="M5.95801 65.2072C8.20795 64.7072 11.0829 64.0822 13.8328 63.7072M13.8328 63.7072C16.5829 63.3322 19.208 63.2072 20.958 63.7072C23.958 65.2072 29.458 70.2072 31.958 74.2072C26.958 75.2072 19.958 74.7072 15.458 74.7072C12.7654 74.7072 11.458 72.3738 11.458 71.2072C10.958 68.2072 12.2079 65.0405 13.8328 63.7072Z" stroke="black" stroke-width="0.5"/>
<path d="M11.458 70.7072C19.458 69.2073 22.958 71.8358 25.958 73.3358M12.958 73.7073L30.458 73.2073" stroke="black" stroke-width="0.5"/>
<path d="M21.9561 82.207H31.4561C33.4561 82.207 34.9561 80.207 34.4561 79.207M37.9561 79.207V83.707" stroke="black" stroke-width="0.5"/>
<path d="M21.958 80.7073C17.458 80.7073 12.958 81.2073 1.45795 78.2073V76.2073L5.45795 74.2073V72.7073L1.45795 72.2073C0.957031 70.707 -0.0427729 67.707 1.95722 65.207C1.45747 57.207 1.95747 50.707 3.95795 47.7068C36.458 28.2072 58.4579 34.2072 84.4579 29.7072C162.458 -25.2929 244.458 11.707 281.458 26.2072L294.958 28.207L295.458 35.207V38.207C296.956 43.207 298.291 47.707 296.958 49.707C299.458 50.707 301.958 53.8737 301.958 55.707L299.958 65.707C300.41 76.5549 298.002 76.7792 288.67 77.0917C287.679 77.1249 285.61 77.159 284.458 77.207V78.707L259.458 79.1381M21.958 80.7073V83.7073H39.9563L39.458 79.2073M21.958 80.7073V79.2073H39.458M39.458 79.2073C36.458 37.7073 89.9579 40.7073 86.4579 79.7073V82.207H212.958C206.958 38.707 261.458 38.707 259.458 79.1381M258.956 79.1381H259.458" stroke="black"/>
</svg>
