<svg width="303" height="96" viewBox="0 0 303 96" fill="none" xmlns="http://www.w3.org/2000/svg">
<circle cx="62.667" cy="74.0605" r="20.5" stroke="black"/>
<circle cx="235.667" cy="74.0605" r="20.5" stroke="black"/>
<path d="M132.665 12.5604L131.165 9.0604C171.165 1.06051 192.665 1.56055 231.665 13.0605L228.165 17.5605C208.165 9.56046 190.165 8.56046 174.165 8.06052C171.665 7.56052 167.665 7.56049 165.165 8.0604C155.165 8.06052 143.165 9.56052 132.665 12.5604Z" fill="#E0426F" stroke="black" stroke-width="0.5"/>
<path d="M131.165 9.06059L130.665 7.56059C166.665 -3.43945 199.165 0.560421 234.665 9.56059L231.665 13.0606C191.665 0.560547 165.665 2.06055 131.165 9.06059Z" fill="#E0426F" stroke="black" stroke-width="0.5"/>
<path d="M131.165 9.06066C182.665 -2.43937 211.165 7.56067 231.665 13.0607" stroke="black" stroke-width="0.5"/>
<path d="M170.667 30.0605L174.167 8.06055C207.667 9.06055 219.167 14.5605 223.667 16.0605L226.15 28.0605C199.16 28.0612 181.665 29.5607 170.667 30.0605Z" fill="#E0426F"/>
<path d="M226.667 30.5605L223.667 16.0605C219.167 14.5605 207.667 9.06055 174.167 8.06055L170.667 30.0605C181.667 29.5605 199.167 28.0605 226.167 28.0605" stroke="black" stroke-width="0.5"/>
<path d="M165.167 8.06055C132.167 9.06055 112.167 18.0605 93.167 35.5605L95.667 33.5605L159.667 30.5605L165.167 8.06055Z" fill="#E0426F" stroke="black" stroke-width="0.5"/>
<path d="M239.665 22.5605C235.998 19.8939 230.165 17.5605 223.665 16.0605L226.165 28.0605H232.665C235.665 26.5605 238.665 24.3293 239.665 22.5605Z" fill="#E0426F" stroke="black" stroke-width="0.5"/>
<path d="M96.667 78.5605H163.667L198.167 77.0605H212.667L213.167 82.5605H199.167H98.167H86.667V78.5605H96.667Z" fill="#E0426F"/>
<path d="M96.667 78.5605H163.667L198.167 77.0605M96.667 78.5605C96.667 80.0605 97.167 81.0605 98.167 82.5605M96.667 78.5605H86.667V82.5605H98.167M198.167 77.0605L199.167 82.5605M198.167 77.0605H212.667L213.167 82.5605H199.167M199.167 82.5605H98.167" stroke="black" stroke-width="0.5"/>
<path d="M96.6661 78.5605C92.167 74.0605 89.167 52.0605 93.1661 35.5605L165.167 31.5605C161.167 36.5605 160.167 70.5605 163.667 78.5605H96.6661Z" fill="#E0426F" stroke="black" stroke-width="0.5"/>
<path d="M228.667 30.5605L165.167 31.5605C161.167 36.5605 160.167 70.5605 163.667 78.5605L198.167 77.0605C202.667 75.5605 209.167 70.0605 228.667 30.5605Z" fill="#E0426F" stroke="black" stroke-width="0.5"/>
<path d="M170.667 30.0606C166.167 30.5606 162.667 30.5606 159.667 30.5606L165.167 8.06062C168.167 7.56055 171.167 7.56055 174.167 8.06062L170.667 30.0606Z" fill="#E0426F" stroke="black" stroke-width="0.5"/>
<path d="M99.167 32.0608C103.667 37.5608 110.667 34.0608 114.667 32.5608C115.667 17.0607 102.667 25.0607 99.167 32.0608Z" fill="#E0426F" stroke="black" stroke-width="0.5"/>
<path d="M234.665 9.56055L231.665 13.0605C248.665 18.5605 259.165 21.5605 271.665 28.0605H273.165L281.165 26.5605C266.165 20.0605 258.665 17.5605 234.665 9.56055Z" fill="#E56E90" stroke="black" stroke-width="0.5"/>
<path d="M271.665 28.0605C261.165 22.5605 242.165 16.0605 231.665 13.0605L229.665 15.5605L244.665 23.0605C243.165 25.5605 239.165 27.5605 233.165 30.2605C245.165 29.5605 262.165 28.5605 271.665 28.0605Z" fill="#E56E90" stroke="black" stroke-width="0.5"/>
<path d="M277.167 34.3605L283.165 32.0605L272.666 28.0605L228.666 30.5605C221.166 45.5605 206.166 76.0605 198.166 77.0605H212.666C211.166 66.0605 220.666 42.5605 245.667 51.5605C256.167 46.0605 266.167 40.5605 277.167 34.3605Z" fill="#E56E90" stroke="black" stroke-width="0.5"/>
<path d="M278.165 34.0606C266.165 40.5606 256.165 46.0606 245.665 51.5606C250.165 54.5605 260.665 60.5605 259.665 79.5605L284.665 79.0605V77.5605C293.165 76.5605 301.665 80.0605 300.165 66.0605L302.165 56.0605C302.165 54.5605 299.665 50.5605 297.165 50.0605C298.665 47.5605 295.665 38.5605 295.665 38.5605V37.0605L291.665 34.0605L286.665 32.5605L283.165 32.0605L278.165 34.0606Z" fill="#E56E90" stroke="black" stroke-width="0.5"/>
<path d="M281.165 26.5605L272.665 28.0605L283.165 32.0605C292.665 33.0605 291.664 34.5605 295.659 36.9807L295.165 28.5605L281.165 26.5605Z" fill="#E56E90"/>
<path d="M295.665 37.0605L295.659 36.9807M295.659 36.9807L295.165 28.5605L281.165 26.5605L272.665 28.0605L283.165 32.0605C292.665 33.0605 291.664 34.5605 295.659 36.9807Z" stroke="black" stroke-width="0.5"/>
<path d="M294.167 36.5607C293.667 34.0606 282.667 33.8606 277.167 34.3606" stroke="black" stroke-width="0.5"/>
<path d="M300.167 66.5605L260.667 68.5605C260.167 63.5605 258 59.3939 256.167 57.5605L302.167 55.0605M300.667 52.5605C289.667 51.0605 278.667 46.2605 266.667 40.2605M228.667 30.5605L272.667 28.0605L281.167 26.5605" stroke="black" stroke-width="0.5"/>
<path d="M290.667 40.5605C290.667 38.5605 289.667 34.5605 286.167 32.5605C288.388 32.5605 291.765 33.6009 294.276 35.9705C294.74 37.5005 293.667 41.0605 290.625 42.5605C290.612 41.9703 290.667 41.2848 290.667 40.5605Z" fill="#E56E90"/>
<path d="M272.667 43.0605C279.663 43.4103 285.68 43.5154 291.06 44.0605M297.667 45.0605C295.564 44.6099 293.371 44.2946 291.06 44.0605M295.667 37.5605C295.249 36.9754 294.78 36.4462 294.276 35.9705M291.06 44.0605C290.734 43.7158 290.64 43.1927 290.625 42.5605M290.625 42.5605C290.612 41.9703 290.667 41.2848 290.667 40.5605C290.667 38.5605 289.667 34.5605 286.167 32.5605C288.388 32.5605 291.765 33.6009 294.276 35.9705M290.625 42.5605C293.667 41.0605 294.74 37.5005 294.276 35.9705" stroke="black" stroke-width="0.5"/>
<path d="M290.667 40.5605C286.167 40.5605 284.167 36.5605 283.167 34.0605" stroke="black" stroke-width="0.5"/>
<path d="M132.665 12.6605C119.165 16.6605 107.165 22.5605 93.165 35.5605C100.165 23.5605 115.665 14.0605 131.165 9.06055L132.665 12.6605Z" fill="#E56E90" stroke="black" stroke-width="0.5"/>
<path d="M131.165 9.06055C111.165 14.7346 93.165 32.0605 85.165 30.0605C98.165 20.5605 114.165 12.0605 130.665 7.56055L131.165 9.06055Z" fill="#E56E90" stroke="black" stroke-width="0.5"/>
<path d="M10.1657 48.0604H4.16571C1.66504 52.0604 1.66504 62.0604 2.16571 65.5604C0.665039 66.5604 0.665637 71.0604 1.66571 72.5604L5.66571 73.0604V74.5604L1.66571 76.5604V78.5604C5.66571 79.5604 14.1657 81.5604 22.1657 81.0604V79.5604H39.6657C38.999 71.0604 40.6657 60.5604 49.6657 53.5604C47.1657 49.5604 40.1657 45.0604 37.1657 44.5604C27.1657 43.5604 12.1657 46.0604 10.1657 48.0604Z" fill="#E56E90" stroke="black" stroke-width="0.5"/>
<path d="M93.167 35.5605C75.3337 36.3939 43.667 41.2605 33.167 44.2605L37.167 44.5605C42.167 46.0605 47.667 50.3939 49.667 53.5605C62.666 44.0605 88.166 51.0605 86.666 78.5605H96.666C89.666 67.5605 90.666 45.5605 93.167 35.5605Z" fill="#E56E90" stroke="black" stroke-width="0.5"/>
<path d="M10.165 48.0606H4.16504C36.6652 28.5605 58.6653 34.5605 84.665 30.0605L93.6653 35.5605C76.6653 36.5605 47.665 40.0605 33.665 44.2606C25.665 44.0605 11.665 46.0605 10.165 48.0606Z" fill="#E56E90" stroke="black" stroke-width="0.5"/>
<path d="M37.1665 44.5606C29.6665 43.5605 12.6665 45.5605 10.1665 48.0606C9.36649 50.4606 12.4998 53.3939 14.1665 54.5605C23.6665 56.0605 37.1665 50.0605 37.1665 44.5606Z" fill="#E56E90" stroke="black" stroke-width="0.5"/>
<path d="M4.16573 48.0605C11.1657 49.0605 5.16573 59.5605 2.16573 64.5605C1.66566 57.5605 2.16553 52.0605 4.16573 48.0605Z" fill="#E56E90" stroke="black" stroke-width="0.5"/>
<path d="M22.165 84.0605V79.5605H39.665L40.165 84.0605H22.165Z" fill="#E56E90" stroke="black" stroke-width="0.5"/>
<path d="M2.66699 65.5605C4.16699 68.0605 6.16699 71.2272 5.66699 73.0605M22.167 79.5605C11.667 80.0605 7.16699 76.0605 8.16699 72.5605C8.66699 72.0605 10.167 70.5605 11.167 70.5605" stroke="black" stroke-width="0.5"/>
<path d="M32.167 74.5607C29.667 70.5607 24.167 65.5607 21.167 64.0607C19.4169 63.5607 16.7919 63.6857 14.0418 64.0607C12.4169 65.3941 11.167 68.5607 11.667 71.5607C11.667 72.7273 12.9744 75.0607 15.667 75.0607C20.167 75.0607 27.167 75.5607 32.167 74.5607Z" fill="#E56E90"/>
<path d="M6.16699 65.5607C8.41693 65.0607 11.2918 64.4357 14.0418 64.0607M14.0418 64.0607C16.7919 63.6857 19.4169 63.5607 21.167 64.0607C24.167 65.5607 29.667 70.5607 32.167 74.5607C27.167 75.5607 20.167 75.0607 15.667 75.0607C12.9744 75.0607 11.667 72.7273 11.667 71.5607C11.167 68.5607 12.4168 65.3941 14.0418 64.0607Z" stroke="black" stroke-width="0.5"/>
<path d="M11.667 71.0607C19.667 69.5608 23.167 72.1893 26.167 73.6893M13.167 74.0608L30.667 73.5608" stroke="black" stroke-width="0.5"/>
<path d="M22.165 82.5605H31.665C33.665 82.5605 35.165 80.5605 34.665 79.5605M38.165 79.5605V84.0605" stroke="black" stroke-width="0.5"/>
<path d="M22.1669 81.0608C17.6669 81.0608 13.1669 81.5608 1.66694 78.5608V76.5608L5.66694 74.5608V73.0608L1.66694 72.5608C1.16602 71.0605 0.166211 68.0605 2.16621 65.5605C1.66645 57.5605 2.16645 51.0605 4.16694 48.0603C36.6669 28.5607 58.6669 34.5607 84.6669 30.0607C162.667 -24.9394 244.667 12.0605 281.667 26.5607L295.167 28.5605L295.667 35.5605V38.5605C297.165 43.5605 298.5 48.0605 297.167 50.0605C299.667 51.0605 302.167 54.2272 302.167 56.0605L300.167 66.0605C300.619 76.9085 298.211 77.1327 288.879 77.4452C287.888 77.4784 285.819 77.5125 284.667 77.5605V79.0605L259.667 79.4916M22.1669 81.0608V84.0608H40.1653L39.6669 79.5608M22.1669 81.0608V79.5608H39.6669M39.6669 79.5608C36.6669 38.0608 90.1669 41.0608 86.6669 80.0608V82.5605H213.167C207.167 39.0605 261.667 39.0605 259.667 79.4916M259.165 79.4916H259.667" stroke="black"/>
</svg>
