<svg width="303" height="95" viewBox="0 0 303 95" fill="none" xmlns="http://www.w3.org/2000/svg">
<circle cx="62.2915" cy="73.7222" r="20.5" fill="#E56E90" stroke="black"/>
<circle cx="235.292" cy="73.7222" r="20.5" fill="#E56E90" stroke="black"/>
<path d="M132.29 12.222L130.79 8.72202C170.79 0.722136 192.29 1.22217 231.29 12.7221L227.79 17.2221C207.79 9.22208 189.79 8.22208 173.79 7.72215C171.29 7.22215 167.29 7.22211 164.79 7.72202C154.79 7.72215 142.79 9.22215 132.29 12.222Z" fill="#E0426F" stroke="black" stroke-width="0.5"/>
<path d="M130.79 8.72221L130.29 7.22221C166.29 -3.77783 198.79 0.222042 234.29 9.22221L231.29 12.7222C191.29 0.222168 165.29 1.72217 130.79 8.72221Z" fill="#E0426F" stroke="black" stroke-width="0.5"/>
<path d="M130.79 8.72228C182.29 -2.77775 210.79 7.22229 231.29 12.7223" stroke="black" stroke-width="0.5"/>
<path d="M170.292 29.7222L173.792 7.72217C207.292 8.72217 218.792 14.2222 223.292 15.7222L225.774 27.7222C198.784 27.7228 181.289 29.2223 170.292 29.7222Z" fill="#E0426F"/>
<path d="M226.292 30.2222L223.292 15.7222C218.792 14.2222 207.292 8.72217 173.792 7.72217L170.292 29.7222C181.292 29.2222 198.792 27.7222 225.792 27.7222" stroke="black" stroke-width="0.5"/>
<path d="M164.792 7.72217C131.792 8.72217 111.792 17.7222 92.7915 35.2222L95.2915 33.2222L159.292 30.2222L164.792 7.72217Z" fill="#E0426F" stroke="black" stroke-width="0.5"/>
<path d="M239.29 22.2222C235.623 19.5555 229.79 17.2222 223.29 15.7222L225.79 27.7222H232.29C235.29 26.2222 238.29 23.9909 239.29 22.2222Z" fill="#E0426F" stroke="black" stroke-width="0.5"/>
<path d="M96.2915 78.2222H163.292L197.792 76.7222H212.292L212.792 82.2222H198.792H97.7915H86.2915V78.2222H96.2915Z" fill="#E0426F"/>
<path d="M96.2915 78.2222H163.292L197.792 76.7222M96.2915 78.2222C96.2915 79.7222 96.7915 80.7222 97.7915 82.2222M96.2915 78.2222H86.2915V82.2222H97.7915M197.792 76.7222L198.792 82.2222M197.792 76.7222H212.292L212.792 82.2222H198.792M198.792 82.2222H97.7915" stroke="black" stroke-width="0.5"/>
<path d="M96.2906 78.2222C91.7915 73.7222 88.7915 51.7222 92.7906 35.2222L164.792 31.2222C160.792 36.2222 159.792 70.2222 163.291 78.2222H96.2906Z" fill="#E0426F" stroke="black" stroke-width="0.5"/>
<path d="M228.291 30.2222L164.791 31.2222C160.791 36.2222 159.791 70.2222 163.291 78.2222L197.791 76.7222C202.291 75.2222 208.791 69.7222 228.291 30.2222Z" fill="#E0426F" stroke="black" stroke-width="0.5"/>
<path d="M170.292 29.7222C165.792 30.2222 162.292 30.2222 159.292 30.2222L164.792 7.72224C167.792 7.22217 170.792 7.22217 173.792 7.72224L170.292 29.7222Z" fill="#E0426F" stroke="black" stroke-width="0.5"/>
<path d="M98.7915 31.7224C103.292 37.2224 110.292 33.7224 114.292 32.2224C115.292 16.7223 102.292 24.7223 98.7915 31.7224Z" fill="#E0426F" stroke="black" stroke-width="0.5"/>
<path d="M234.29 9.22217L231.29 12.7222C248.29 18.2222 258.79 21.2222 271.29 27.7222H272.79L280.79 26.2222C265.79 19.7222 258.29 17.2222 234.29 9.22217Z" stroke="black" stroke-width="0.5"/>
<path d="M271.29 27.7222C260.79 22.2222 241.79 15.7222 231.29 12.7222L229.29 15.2222L244.29 22.7222C242.79 25.2222 238.79 27.2222 232.79 29.9222C244.79 29.2222 261.79 28.2222 271.29 27.7222Z" stroke="black" stroke-width="0.5"/>
<path d="M276.792 34.0222L282.79 31.7222L272.291 27.7222L228.291 30.2222C220.791 45.2222 205.791 75.7222 197.791 76.7222H212.291C210.791 65.7222 220.291 42.2222 245.292 51.2222C255.792 45.7222 265.792 40.2222 276.792 34.0222Z" stroke="black" stroke-width="0.5"/>
<path d="M277.79 33.7222C265.79 40.2222 255.79 45.7222 245.29 51.2222C249.79 54.2222 260.29 60.2222 259.29 79.2222L284.29 78.7222V77.2222C292.79 76.2222 301.29 79.7222 299.79 65.7222L301.79 55.7222C301.79 54.2222 299.29 50.2222 296.79 49.7222C298.29 47.2222 295.29 38.2222 295.29 38.2222V36.7222L291.29 33.7222L286.29 32.2222L282.79 31.7222L277.79 33.7222Z" stroke="black" stroke-width="0.5"/>
<path d="M295.29 36.7222L295.284 36.6423M295.284 36.6423L294.79 28.2222L280.79 26.2222L272.29 27.7222L282.79 31.7222C292.29 32.7222 291.289 34.2222 295.284 36.6423Z" stroke="black" stroke-width="0.5"/>
<path d="M293.792 36.2224C293.292 33.7223 282.292 33.5222 276.792 34.0222" stroke="black" stroke-width="0.5"/>
<path d="M299.792 66.2222L260.292 68.2222C259.792 63.2222 257.625 59.0555 255.792 57.2222L301.792 54.7222M300.292 52.2222C289.292 50.7222 278.292 45.9222 266.292 39.9222M228.292 30.2222L272.292 27.7222L280.792 26.2222" stroke="black" stroke-width="0.5"/>
<path d="M272.292 42.7222C279.287 43.072 285.304 43.177 290.685 43.7222M297.292 44.7222C295.189 44.2715 292.995 43.9563 290.685 43.7222M295.292 37.2222C294.874 36.637 294.404 36.1078 293.9 35.6322M290.685 43.7222C290.358 43.3774 290.264 42.8544 290.25 42.2222M290.25 42.2222C290.236 41.6319 290.292 40.9465 290.292 40.2222C290.292 38.2222 289.292 34.2222 285.792 32.2222C288.012 32.2222 291.389 33.2626 293.9 35.6322M290.25 42.2222C293.292 40.7222 294.364 37.1622 293.9 35.6322" stroke="black" stroke-width="0.5"/>
<path d="M290.292 40.2222C285.792 40.2222 283.792 36.2222 282.792 33.7222" stroke="black" stroke-width="0.5"/>
<path d="M132.29 12.3221C118.79 16.3221 106.79 22.2222 92.79 35.2222C99.79 23.2222 115.29 13.7222 130.79 8.72217L132.29 12.3221Z" fill="#EFC7D3" stroke="black" stroke-width="0.5"/>
<path d="M130.79 8.72217C110.79 14.3962 92.79 31.7222 84.79 29.7222C97.79 20.2222 113.79 11.7222 130.29 7.22217L130.79 8.72217Z" fill="#EFC7D3" stroke="black" stroke-width="0.5"/>
<path d="M9.79071 47.7221H3.79071C1.29004 51.722 1.29004 61.722 1.79071 65.222C0.290039 66.222 0.290637 70.722 1.29071 72.222L5.29071 72.722V74.222L1.29071 76.222V78.222C5.29071 79.222 13.7907 81.222 21.7907 80.722V79.222H39.2907C38.624 70.722 40.2907 60.222 49.2907 53.222C46.7907 49.222 39.7907 44.722 36.7907 44.2221C26.7907 43.222 11.7907 45.7221 9.79071 47.7221Z" fill="#EFC7D3" stroke="black" stroke-width="0.5"/>
<path d="M92.7915 35.2222C74.9582 36.0555 43.2915 40.9222 32.7915 43.9222L36.7915 44.2222C41.7915 45.7222 47.2915 50.0555 49.2915 53.2222C62.2905 43.7222 87.7905 50.7222 86.2905 78.2222H96.2905C89.2905 67.2222 90.2905 45.2222 92.7915 35.2222Z" fill="#EFC7D3" stroke="black" stroke-width="0.5"/>
<path d="M9.79004 47.7222H3.79004C36.2902 28.2221 58.2903 34.2222 84.29 29.7222L93.2903 35.2222C76.2903 36.2222 47.29 39.7222 33.29 43.9222C25.29 43.7222 11.29 45.7222 9.79004 47.7222Z" fill="#EFC7D3" stroke="black" stroke-width="0.5"/>
<path d="M36.7915 44.2222C29.2915 43.2222 12.2915 45.2222 9.79149 47.7222C8.99149 50.1222 12.1248 53.0555 13.7915 54.2222C23.2915 55.7222 36.7915 49.7222 36.7915 44.2222Z" fill="#EFC7D3" stroke="black" stroke-width="0.5"/>
<path d="M3.79073 47.7222C10.7907 48.7222 4.79073 59.2222 1.79073 64.2222C1.29066 57.2222 1.79053 51.7222 3.79073 47.7222Z" fill="#EFC7D3" stroke="black" stroke-width="0.5"/>
<path d="M21.79 83.7222V79.2222H39.29L39.79 83.7222H21.79Z" fill="#EFC7D3" stroke="black" stroke-width="0.5"/>
<path d="M2.29199 65.2222C3.79199 67.7222 5.79199 70.8888 5.29199 72.7222M21.792 79.2222C11.292 79.7222 6.79199 75.7222 7.79199 72.2222C8.29199 71.7222 9.79199 70.2222 10.792 70.2222" stroke="black" stroke-width="0.5"/>
<path d="M31.792 74.2223C29.292 70.2223 23.792 65.2224 20.792 63.7224C19.0419 63.2224 16.4169 63.3474 13.6668 63.7224C12.0419 65.0557 10.792 68.2223 11.292 71.2223C11.292 72.389 12.5994 74.7223 15.292 74.7223C19.792 74.7223 26.792 75.2223 31.792 74.2223Z" fill="#EFC7D3"/>
<path d="M5.79199 65.2224C8.04193 64.7223 10.9168 64.0974 13.6668 63.7224M13.6668 63.7224C16.4169 63.3474 19.0419 63.2224 20.792 63.7224C23.792 65.2224 29.292 70.2223 31.792 74.2223C26.792 75.2223 19.792 74.7223 15.292 74.7223C12.5994 74.7223 11.292 72.389 11.292 71.2223C10.792 68.2223 12.0418 65.0557 13.6668 63.7224Z" stroke="black" stroke-width="0.5"/>
<path d="M11.292 70.7224C19.292 69.2224 22.792 71.8509 25.792 73.3509M12.792 73.7224L30.292 73.2224" stroke="black" stroke-width="0.5"/>
<path d="M21.79 82.2222H31.29C33.29 82.2222 34.79 80.2222 34.29 79.2222M37.79 79.2222V83.7222" stroke="black" stroke-width="0.5"/>
<path d="M21.7915 80.7224C17.2915 80.7224 12.7915 81.2224 1.29145 78.2224V76.2224L5.29145 74.2224V72.7224L1.29145 72.2224C0.790527 70.7222 -0.209277 67.7222 1.79072 65.2222C1.29096 57.2222 1.79096 50.7222 3.79145 47.7219C36.2915 28.2223 58.2914 34.2224 84.2914 29.7224C162.291 -25.2778 244.291 11.7222 281.291 26.2223L294.791 28.2222L295.291 35.2222V38.2222C296.79 43.2222 298.125 47.7222 296.791 49.7222C299.291 50.7222 301.791 53.8888 301.791 55.7222L299.791 65.7222C300.243 76.5701 297.835 76.7944 288.504 77.1068C287.513 77.14 285.444 77.1742 284.291 77.2222V78.7222L259.291 79.1532M21.7915 80.7224V83.7224H39.7898L39.2915 79.2224M21.7915 80.7224V79.2224H39.2915M39.2915 79.2224C36.2915 37.7224 89.7914 40.7224 86.2914 79.7224V82.2222H212.791C206.791 38.7222 261.291 38.7222 259.291 79.1532M258.79 79.1532H259.291" stroke="black"/>
</svg>
