<svg width="303" height="96" viewBox="0 0 303 96" fill="none" xmlns="http://www.w3.org/2000/svg">
<circle cx="62.249" cy="74.3384" r="20.5" fill="#E56E90" stroke="black"/>
<circle cx="235.249" cy="74.3384" r="20.5" fill="#E56E90" stroke="black"/>
<path d="M132.247 12.8382L130.747 9.33823C170.747 1.33835 192.247 1.83838 231.247 13.3383L227.747 17.8383C207.747 9.83829 189.747 8.83829 173.747 8.33836C171.247 7.83836 167.247 7.83832 164.747 8.33823C154.747 8.33836 142.747 9.83836 132.247 12.8382Z" stroke="black" stroke-width="0.5"/>
<path d="M130.747 9.33842L130.247 7.83842C166.247 -3.16162 198.747 0.838253 234.247 9.83842L231.247 13.3384C191.247 0.838379 165.247 2.33838 130.747 9.33842Z" stroke="black" stroke-width="0.5"/>
<path d="M130.747 9.33837C182.247 -2.16166 210.747 7.83838 231.247 13.3384" stroke="black" stroke-width="0.5"/>
<path d="M226.249 30.8384L223.249 16.3384C218.749 14.8384 207.249 9.33838 173.749 8.33838L170.249 30.3384C181.249 29.8384 198.749 28.3384 225.749 28.3384" stroke="black" stroke-width="0.5"/>
<path d="M164.749 8.33838C131.749 9.33838 111.749 18.3384 92.749 35.8384L95.249 33.8384L159.249 30.8384L164.749 8.33838Z" stroke="black" stroke-width="0.5"/>
<path d="M239.247 22.8384C235.58 20.1717 229.747 17.8384 223.247 16.3384L225.747 28.3384H232.247C235.247 26.8384 238.247 24.6071 239.247 22.8384Z" stroke="black" stroke-width="0.5"/>
<path d="M96.249 78.8384H163.249L197.749 77.3384M96.249 78.8384C96.249 80.3384 96.749 81.3384 97.749 82.8384M96.249 78.8384H86.249V82.8384H97.749M197.749 77.3384L198.749 82.8384M197.749 77.3384H212.249L212.749 82.8384H198.749M198.749 82.8384H97.749" stroke="black" stroke-width="0.5"/>
<path d="M96.2482 78.8384C91.749 74.3384 88.7491 52.3384 92.7482 35.8384L164.749 31.8384C160.749 36.8384 159.749 70.8384 163.249 78.8384H96.2482Z" stroke="black" stroke-width="0.5"/>
<path d="M228.249 30.8384L164.749 31.8384C160.749 36.8384 159.749 70.8384 163.249 78.8384L197.749 77.3384C202.249 75.8384 208.749 70.3384 228.249 30.8384Z" stroke="black" stroke-width="0.5"/>
<path d="M170.249 30.3385C165.749 30.8385 162.249 30.8385 159.249 30.8385L164.749 8.33845C167.749 7.83838 170.749 7.83838 173.749 8.33845L170.249 30.3385Z" stroke="black" stroke-width="0.5"/>
<path d="M98.749 32.3385C103.249 37.8385 110.249 34.3385 114.249 32.8385C115.249 17.3384 102.249 25.3384 98.749 32.3385Z" stroke="black" stroke-width="0.5"/>
<path d="M234.247 9.83838L231.247 13.3384C248.247 18.8384 258.747 21.8384 271.247 28.3384H272.747L280.747 26.8384C265.747 20.3384 258.247 17.8384 234.247 9.83838Z" fill="#E0426F" stroke="black" stroke-width="0.5"/>
<path d="M271.247 28.3384C260.747 22.8384 241.747 16.3384 231.247 13.3384L229.247 15.8384L244.247 23.3384C242.747 25.8384 238.747 27.8384 232.747 30.5384C244.747 29.8384 261.747 28.8384 271.247 28.3384Z" fill="#E0426F" stroke="black" stroke-width="0.5"/>
<path d="M276.749 34.6384L282.747 32.3384L272.248 28.3384L228.248 30.8384C220.748 45.8384 205.748 76.3384 197.748 77.3384H212.248C210.748 66.3384 220.248 42.8384 245.249 51.8384C255.749 46.3384 265.749 40.8384 276.749 34.6384Z" fill="#E0426F" stroke="black" stroke-width="0.5"/>
<path d="M277.747 34.3384C265.747 40.8384 255.747 46.3384 245.247 51.8384C249.747 54.8384 260.247 60.8384 259.247 79.8384L284.247 79.3384V77.8384C292.747 76.8384 301.247 80.3384 299.747 66.3384L301.747 56.3384C301.747 54.8384 299.247 50.8384 296.747 50.3384C298.247 47.8384 295.247 38.8384 295.247 38.8384V37.3384L291.247 34.3384L286.247 32.8384L282.747 32.3384L277.747 34.3384Z" fill="#E0426F" stroke="black" stroke-width="0.5"/>
<path d="M280.747 26.8384L272.247 28.3384L282.747 32.3384C292.247 33.3384 291.246 34.8384 295.241 37.2586L294.747 28.8384L280.747 26.8384Z" fill="#E0426F"/>
<path d="M295.247 37.3384L295.241 37.2586M295.241 37.2586L294.747 28.8384L280.747 26.8384L272.247 28.3384L282.747 32.3384C292.247 33.3384 291.246 34.8384 295.241 37.2586Z" stroke="black" stroke-width="0.5"/>
<path d="M293.749 36.8386C293.249 34.3385 282.249 34.1384 276.749 34.6384" stroke="black" stroke-width="0.5"/>
<path d="M299.749 66.8384L260.249 68.8384C259.749 63.8384 257.582 59.6717 255.749 57.8384L301.749 55.3384M300.249 52.8384C289.249 51.3384 278.249 46.5384 266.249 40.5384M228.249 30.8384L272.249 28.3384L280.749 26.8384" stroke="black" stroke-width="0.5"/>
<path d="M290.249 40.8384C290.249 38.8384 289.249 34.8384 285.749 32.8384C287.97 32.8384 291.347 33.8788 293.858 36.2484C294.322 37.7784 293.249 41.3384 290.207 42.8384C290.194 42.2481 290.249 41.5627 290.249 40.8384Z" fill="#E0426F"/>
<path d="M272.249 43.3384C279.245 43.6882 285.262 43.7933 290.642 44.3384M297.249 45.3384C295.146 44.8877 292.953 44.5725 290.642 44.3384M295.249 37.8384C294.831 37.2533 294.362 36.724 293.858 36.2484M290.642 44.3384C290.316 43.9936 290.222 43.4706 290.207 42.8384M290.207 42.8384C290.194 42.2481 290.249 41.5627 290.249 40.8384C290.249 38.8384 289.249 34.8384 285.749 32.8384C287.97 32.8384 291.347 33.8788 293.858 36.2484M290.207 42.8384C293.249 41.3384 294.322 37.7784 293.858 36.2484" stroke="black" stroke-width="0.5"/>
<path d="M290.249 40.8384C285.749 40.8384 283.749 36.8384 282.749 34.3384" stroke="black" stroke-width="0.5"/>
<path d="M132.247 12.9384C118.747 16.9384 106.747 22.8384 92.7471 35.8384C99.7471 23.8384 115.247 14.3384 130.747 9.33838L132.247 12.9384Z" fill="#EFC7D3" stroke="black" stroke-width="0.5"/>
<path d="M130.747 9.33838C110.747 15.0124 92.7471 32.3384 84.7471 30.3384C97.7471 20.8384 113.747 12.3384 130.247 7.83838L130.747 9.33838Z" fill="#EFC7D3" stroke="black" stroke-width="0.5"/>
<path d="M9.74774 48.3384H3.74774C1.24707 52.3384 1.24707 62.3384 1.74774 65.8384C0.24707 66.8384 0.247668 71.3384 1.24774 72.8384L5.24774 73.3384V74.8384L1.24774 76.8384V78.8384C5.24774 79.8384 13.7477 81.8384 21.7477 81.3384V79.8384H39.2477C38.5811 71.3384 40.2477 60.8384 49.2477 53.8384C46.7477 49.8384 39.7477 45.3384 36.7477 44.8384C26.7477 43.8384 11.7477 46.3384 9.74774 48.3384Z" fill="#EFC7D3" stroke="black" stroke-width="0.5"/>
<path d="M92.749 35.8384C74.9157 36.6717 43.249 41.5384 32.749 44.5384L36.749 44.8384C41.749 46.3384 47.249 50.6717 49.249 53.8384C62.248 44.3384 87.748 51.3384 86.248 78.8384H96.248C89.248 67.8384 90.248 45.8384 92.749 35.8384Z" fill="#EFC7D3" stroke="black" stroke-width="0.5"/>
<path d="M9.74707 48.3384H3.74707C36.2473 28.8383 58.2473 34.8384 84.2471 30.3384L93.2473 35.8384C76.2473 36.8384 47.2471 40.3384 33.2471 44.5384C25.2471 44.3384 11.2471 46.3384 9.74707 48.3384Z" fill="#EFC7D3" stroke="black" stroke-width="0.5"/>
<path d="M36.7485 44.8385C29.2485 43.8384 12.2485 45.8384 9.74852 48.3385C8.94852 50.7384 12.0819 53.6717 13.7485 54.8384C23.2485 56.3384 36.7485 50.3384 36.7485 44.8385Z" fill="#EFC7D3" stroke="black" stroke-width="0.5"/>
<path d="M3.74777 48.3384C10.7478 49.3384 4.74777 59.8384 1.74777 64.8384C1.2477 57.8384 1.74756 52.3384 3.74777 48.3384Z" fill="#EFC7D3" stroke="black" stroke-width="0.5"/>
<path d="M21.7471 84.3384V79.8384H39.2471L39.7471 84.3384H21.7471Z" fill="#EFC7D3" stroke="black" stroke-width="0.5"/>
<path d="M2.24902 65.8384C3.74902 68.3384 5.74902 71.505 5.24902 73.3384M21.749 79.8384C11.249 80.3384 6.74902 76.3384 7.74902 72.8384C8.24902 72.3384 9.74902 70.8384 10.749 70.8384" stroke="black" stroke-width="0.5"/>
<path d="M31.749 74.8384C29.249 70.8384 23.749 65.8385 20.749 64.3385C18.999 63.8384 16.3739 63.9634 13.6238 64.3385C11.9989 65.6718 10.749 68.8384 11.249 71.8384C11.249 73.005 12.5564 75.3384 15.249 75.3384C19.749 75.3384 26.749 75.8384 31.749 74.8384Z" fill="#EFC7D3"/>
<path d="M5.74902 65.8385C7.99897 65.3384 10.8739 64.7135 13.6238 64.3385M13.6238 64.3385C16.3739 63.9634 18.999 63.8384 20.749 64.3385C23.749 65.8385 29.249 70.8384 31.749 74.8384C26.749 75.8384 19.749 75.3384 15.249 75.3384C12.5564 75.3384 11.249 73.005 11.249 71.8384C10.749 68.8384 11.9989 65.6718 13.6238 64.3385Z" stroke="black" stroke-width="0.5"/>
<path d="M11.249 71.3385C19.249 69.8385 22.749 72.467 25.749 73.967M12.749 74.3385L30.249 73.8385" stroke="black" stroke-width="0.5"/>
<path d="M21.7471 82.8384H31.2471C33.2471 82.8384 34.7471 80.8384 34.2471 79.8384M37.7471 79.8384V84.3384" stroke="black" stroke-width="0.5"/>
<path d="M21.749 81.3386C17.249 81.3386 12.749 81.8386 1.24897 78.8386V76.8386L5.24897 74.8386V73.3386L1.24897 72.8386C0.748047 71.3384 -0.251757 68.3384 1.74824 65.8384C1.24848 57.8384 1.74848 51.3384 3.74897 48.3381C36.249 28.8385 58.249 34.8386 84.249 30.3386C162.249 -24.6615 244.249 12.3384 281.249 26.8386L294.749 28.8384L295.249 35.8384V38.8384C296.747 43.8384 298.082 48.3384 296.749 50.3384C299.249 51.3384 301.749 54.505 301.749 56.3384L299.749 66.3384C300.201 77.1863 297.793 77.4106 288.461 77.723C287.47 77.7562 285.401 77.7904 284.249 77.8384V79.3384L259.249 79.7694M21.749 81.3386V84.3386H39.7473L39.249 79.8386M21.749 81.3386V79.8386H39.249M39.249 79.8386C36.249 38.3386 89.749 41.3386 86.249 80.3386V82.8384H212.749C206.749 39.3384 261.249 39.3384 259.249 79.7694M258.747 79.7694H259.249" stroke="black"/>
</svg>
