<svg width="303" height="96" viewBox="0 0 303 96" fill="none" xmlns="http://www.w3.org/2000/svg">
<circle cx="62.8545" cy="74.0454" r="20.5" fill="#EFC7D3" stroke="black"/>
<circle cx="235.854" cy="74.0454" r="20.5" fill="#EFC7D3" stroke="black"/>
<path d="M132.853 12.5453L131.353 9.04527C171.353 1.04538 192.853 1.54541 231.853 13.0454L228.353 17.5454C208.353 9.54532 190.353 8.54532 174.353 8.04539C171.853 7.54539 167.853 7.54535 165.353 8.04527C155.353 8.04539 143.353 9.54539 132.853 12.5453Z" fill="#E56E90" stroke="black" stroke-width="0.5"/>
<path d="M131.353 9.04545L130.853 7.54545C166.853 -3.45459 199.353 0.545284 234.853 9.54546L231.853 13.0455C191.853 0.54541 165.853 2.04541 131.353 9.04545Z" fill="#E56E90" stroke="black" stroke-width="0.5"/>
<path d="M131.353 9.04552C182.853 -2.4545 211.353 7.54553 231.853 13.0455" stroke="black" stroke-width="0.5"/>
<path d="M170.854 30.0454L174.354 8.04541C207.854 9.04541 219.354 14.5454 223.854 16.0454L226.337 28.0454C199.347 28.046 181.852 29.5455 170.854 30.0454Z" fill="#E56E90"/>
<path d="M226.854 30.5454L223.854 16.0454C219.354 14.5454 207.854 9.04541 174.354 8.04541L170.854 30.0454C181.854 29.5454 199.354 28.0454 226.354 28.0454" stroke="black" stroke-width="0.5"/>
<path d="M165.354 8.04541C132.354 9.04541 112.354 18.0454 93.3545 35.5454L95.8545 33.5454L159.854 30.5454L165.354 8.04541Z" fill="#E56E90" stroke="black" stroke-width="0.5"/>
<path d="M239.853 22.5454C236.186 19.8787 230.353 17.5454 223.853 16.0454L226.353 28.0454H232.853C235.853 26.5454 238.853 24.3141 239.853 22.5454Z" fill="#E56E90" stroke="black" stroke-width="0.5"/>
<path d="M96.8545 78.5454H163.854L198.354 77.0454H212.854L213.354 82.5454H199.354H98.3545H86.8545V78.5454H96.8545Z" fill="#E56E90"/>
<path d="M96.8545 78.5454H163.854L198.354 77.0454M96.8545 78.5454C96.8545 80.0454 97.3545 81.0454 98.3545 82.5454M96.8545 78.5454H86.8545V82.5454H98.3545M198.354 77.0454L199.354 82.5454M198.354 77.0454H212.854L213.354 82.5454H199.354M199.354 82.5454H98.3545" stroke="black" stroke-width="0.5"/>
<path d="M96.8536 78.5454C92.3545 74.0454 89.3545 52.0454 93.3536 35.5454L165.354 31.5454C161.354 36.5454 160.354 70.5454 163.854 78.5454H96.8536Z" fill="#E56E90" stroke="black" stroke-width="0.5"/>
<path d="M228.854 30.5454L165.354 31.5454C161.355 36.5454 160.355 70.5454 163.854 78.5454L198.354 77.0454C202.854 75.5454 209.354 70.0454 228.854 30.5454Z" fill="#E56E90" stroke="black" stroke-width="0.5"/>
<path d="M170.854 30.0455C166.354 30.5455 162.854 30.5455 159.854 30.5455L165.354 8.04548C168.354 7.54541 171.354 7.54541 174.354 8.04548L170.854 30.0455Z" fill="#E56E90" stroke="black" stroke-width="0.5"/>
<path d="M99.3545 32.0457C103.854 37.5457 110.854 34.0457 114.854 32.5457C115.854 17.0455 102.854 25.0455 99.3545 32.0457Z" fill="#E56E90" stroke="black" stroke-width="0.5"/>
<path d="M234.853 9.54541L231.853 13.0454C248.853 18.5454 259.353 21.5454 271.853 28.0454H273.353L281.353 26.5454C266.353 20.0454 258.853 17.5454 234.853 9.54541Z" fill="#E0426F" stroke="black" stroke-width="0.5"/>
<path d="M271.853 28.0454C261.353 22.5454 242.353 16.0454 231.853 13.0454L229.853 15.5454L244.853 23.0454C243.353 25.5454 239.353 27.5454 233.353 30.2454C245.353 29.5454 262.353 28.5454 271.853 28.0454Z" fill="#E0426F" stroke="black" stroke-width="0.5"/>
<path d="M277.354 34.3454L283.353 32.0454L272.854 28.0454L228.854 30.5454C221.354 45.5454 206.354 76.0454 198.354 77.0454H212.854C211.354 66.0454 220.854 42.5454 245.854 51.5454C256.354 46.0454 266.354 40.5454 277.354 34.3454Z" fill="#E0426F" stroke="black" stroke-width="0.5"/>
<path d="M278.353 34.0454C266.353 40.5454 256.353 46.0454 245.853 51.5454C250.353 54.5454 260.853 60.5454 259.853 79.5454L284.853 79.0454V77.5454C293.353 76.5454 301.853 80.0454 300.353 66.0454L302.353 56.0454C302.353 54.5454 299.853 50.5454 297.353 50.0454C298.853 47.5454 295.853 38.5454 295.853 38.5454V37.0454L291.853 34.0454L286.853 32.5454L283.353 32.0454L278.353 34.0454Z" fill="#E0426F" stroke="black" stroke-width="0.5"/>
<path d="M281.353 26.5454L272.853 28.0454L283.353 32.0454C292.853 33.0454 291.851 34.5454 295.847 36.9656L295.353 28.5454L281.353 26.5454Z" fill="#E0426F"/>
<path d="M295.853 37.0454L295.847 36.9656M295.847 36.9656L295.353 28.5454L281.353 26.5454L272.853 28.0454L283.353 32.0454C292.853 33.0454 291.851 34.5454 295.847 36.9656Z" stroke="black" stroke-width="0.5"/>
<path d="M294.354 36.5456C293.854 34.0455 282.854 33.8454 277.354 34.3454" stroke="black" stroke-width="0.5"/>
<path d="M300.354 66.5454L260.854 68.5454C260.354 63.5454 258.188 59.3787 256.354 57.5454L302.354 55.0454M300.854 52.5454C289.854 51.0454 278.854 46.2454 266.854 40.2454M228.854 30.5454L272.854 28.0454L281.354 26.5454" stroke="black" stroke-width="0.5"/>
<path d="M290.854 40.5454C290.854 38.5454 289.854 34.5454 286.354 32.5454C288.575 32.5454 291.952 33.5858 294.463 35.9554C294.927 37.4854 293.854 41.0454 290.813 42.5454C290.799 41.9551 290.854 41.2697 290.854 40.5454Z" fill="#E0426F"/>
<path d="M272.854 43.0454C279.85 43.3952 285.867 43.5003 291.248 44.0454M297.854 45.0454C295.751 44.5948 293.558 44.2795 291.248 44.0454M295.854 37.5454C295.437 36.9603 294.967 36.4311 294.463 35.9554M291.248 44.0454C290.921 43.7006 290.827 43.1776 290.813 42.5454M290.813 42.5454C290.799 41.9551 290.854 41.2697 290.854 40.5454C290.854 38.5454 289.854 34.5454 286.354 32.5454C288.575 32.5454 291.952 33.5858 294.463 35.9554M290.813 42.5454C293.854 41.0454 294.927 37.4854 294.463 35.9554" stroke="black" stroke-width="0.5"/>
<path d="M290.854 40.5454C286.354 40.5454 284.354 36.5454 283.354 34.0454" stroke="black" stroke-width="0.5"/>
<path d="M132.853 12.6454C119.353 16.6454 107.353 22.5454 93.3525 35.5454C100.353 23.5454 115.853 14.0454 131.353 9.04541L132.853 12.6454Z" fill="#EDADBF" stroke="black" stroke-width="0.5"/>
<path d="M131.353 9.04541C111.353 14.7194 93.3525 32.0454 85.3525 30.0454C98.3525 20.5454 114.353 12.0454 130.853 7.54541L131.353 9.04541Z" fill="#EDADBF" stroke="black" stroke-width="0.5"/>
<path d="M10.3532 48.0453H4.35321C1.85254 52.0453 1.85254 62.0453 2.35321 65.5453C0.852539 66.5453 0.853137 71.0453 1.85321 72.5453L5.85321 73.0453V74.5453L1.85321 76.5453V78.5453C5.85321 79.5453 14.3532 81.5453 22.3532 81.0453V79.5453H39.8532C39.1865 71.0453 40.8532 60.5453 49.8532 53.5453C47.3532 49.5453 40.3532 45.0453 37.3532 44.5453C27.3532 43.5453 12.3532 46.0453 10.3532 48.0453Z" fill="#EDADBF" stroke="black" stroke-width="0.5"/>
<path d="M93.3545 35.5454C75.5212 36.3787 43.8545 41.2454 33.3545 44.2454L37.3545 44.5454C42.3545 46.0454 47.8545 50.3787 49.8545 53.5454C62.8535 44.0454 88.3535 51.0454 86.8535 78.5454H96.8535C89.8535 67.5454 90.8535 45.5454 93.3545 35.5454Z" fill="#EDADBF" stroke="black" stroke-width="0.5"/>
<path d="M10.3525 48.0455H4.35254C36.8527 28.5454 58.8528 34.5454 84.8525 30.0454L93.8528 35.5454C76.8528 36.5454 47.8525 40.0454 33.8525 44.2454C25.8525 44.0454 11.8525 46.0454 10.3525 48.0455Z" fill="#EDADBF" stroke="black" stroke-width="0.5"/>
<path d="M37.354 44.5455C29.854 43.5454 12.854 45.5454 10.354 48.0455C9.55399 50.4454 12.6873 53.3787 14.354 54.5454C23.854 56.0454 37.354 50.0454 37.354 44.5455Z" fill="#EDADBF" stroke="black" stroke-width="0.5"/>
<path d="M4.35323 48.0454C11.3532 49.0454 5.35323 59.5454 2.35323 64.5454C1.85316 57.5454 2.35303 52.0454 4.35323 48.0454Z" fill="#EDADBF" stroke="black" stroke-width="0.5"/>
<path d="M22.3525 84.0454V79.5454H39.8525L40.3525 84.0454H22.3525Z" fill="#EDADBF" stroke="black" stroke-width="0.5"/>
<path d="M2.85449 65.5454C4.35449 68.0454 6.35449 71.2121 5.85449 73.0454M22.3545 79.5454C11.8545 80.0454 7.35449 76.0454 8.35449 72.5454C8.85449 72.0454 10.3545 70.5454 11.3545 70.5454" stroke="black" stroke-width="0.5"/>
<path d="M32.3545 74.5455C29.8545 70.5455 24.3545 65.5456 21.3545 64.0456C19.6044 63.5456 16.9794 63.6706 14.2293 64.0456C12.6044 65.3789 11.3545 68.5455 11.8545 71.5455C11.8545 72.7122 13.1619 75.0455 15.8545 75.0455C20.3545 75.0455 27.3545 75.5455 32.3545 74.5455Z" fill="#EDADBF"/>
<path d="M6.35449 65.5456C8.60443 65.0456 11.4793 64.4206 14.2293 64.0456M14.2293 64.0456C16.9794 63.6706 19.6044 63.5456 21.3545 64.0456C24.3545 65.5456 29.8545 70.5455 32.3545 74.5455C27.3545 75.5455 20.3545 75.0455 15.8545 75.0455C13.1619 75.0455 11.8545 72.7122 11.8545 71.5455C11.3545 68.5455 12.6043 65.3789 14.2293 64.0456Z" stroke="black" stroke-width="0.5"/>
<path d="M11.8545 71.0456C19.8545 69.5457 23.3545 72.1741 26.3545 73.6741M13.3545 74.0457L30.8545 73.5457" stroke="black" stroke-width="0.5"/>
<path d="M22.3525 82.5454H31.8525C33.8525 82.5454 35.3525 80.5454 34.8525 79.5454M38.3525 79.5454V84.0454" stroke="black" stroke-width="0.5"/>
<path d="M22.3544 81.0457C17.8544 81.0457 13.3544 81.5457 1.85444 78.5457V76.5457L5.85444 74.5456V73.0457L1.85444 72.5457C1.35352 71.0454 0.353711 68.0454 2.35371 65.5454C1.85395 57.5454 2.35395 51.0454 4.35444 48.0452C36.8544 28.5455 58.8544 34.5456 84.8544 30.0456C162.854 -24.9545 244.854 12.0454 281.854 26.5456L295.354 28.5454L295.854 35.5454V38.5454C297.353 43.5454 298.688 48.0454 297.354 50.0454C299.854 51.0454 302.354 54.2121 302.354 56.0454L300.354 66.0454C300.806 76.8933 298.398 77.1176 289.067 77.43C288.076 77.4632 286.007 77.4974 284.854 77.5454V79.0454L259.854 79.4764M22.3544 81.0457V84.0457H40.3528L39.8544 79.5457M22.3544 81.0457V79.5457H39.8544M39.8544 79.5457C36.8544 38.0457 90.3544 41.0457 86.8544 80.0457V82.5454H213.354C207.354 39.0454 261.854 39.0454 259.854 79.4764M259.353 79.4764H259.854" stroke="black"/>
</svg>
