<svg width="304" height="96" viewBox="0 0 304 96" fill="none" xmlns="http://www.w3.org/2000/svg">
<circle cx="63.0835" cy="74.1692" r="20.5" fill="#EDADBF" stroke="black"/>
<circle cx="236.083" cy="74.1692" r="20.5" fill="#EDADBF" stroke="black"/>
<path d="M133.082 12.669L131.582 9.16904C171.582 1.16916 193.082 1.66919 232.082 13.1691L228.582 17.6691C208.582 9.6691 190.582 8.6691 174.582 8.16917C172.082 7.66917 168.082 7.66913 165.582 8.16904C155.582 8.16917 143.582 9.66917 133.082 12.669Z" stroke="black" stroke-width="0.5"/>
<path d="M131.582 9.16923L131.082 7.66923C167.082 -3.33081 199.582 0.669064 235.082 9.66924L232.082 13.1692C192.082 0.669189 166.082 2.16919 131.582 9.16923Z" stroke="black" stroke-width="0.5"/>
<path d="M131.582 9.16918C183.082 -2.33085 211.582 7.66919 232.082 13.1692" stroke="black" stroke-width="0.5"/>
<path d="M227.083 30.6692L224.083 16.1692C219.583 14.6692 208.083 9.16919 174.583 8.16919L171.083 30.1692C182.083 29.6692 199.583 28.1692 226.583 28.1692" stroke="black" stroke-width="0.5"/>
<path d="M165.583 8.16919C132.583 9.16919 112.583 18.1692 93.5835 35.6692L96.0835 33.6692L160.083 30.6692L165.583 8.16919Z" stroke="black" stroke-width="0.5"/>
<path d="M240.082 22.6692C236.415 20.0025 230.582 17.6692 224.082 16.1692L226.582 28.1692H233.082C236.082 26.6692 239.082 24.4379 240.082 22.6692Z" stroke="black" stroke-width="0.5"/>
<path d="M97.0835 78.6692H164.083L198.583 77.1692M97.0835 78.6692C97.0835 80.1692 97.5835 81.1692 98.5835 82.6692M97.0835 78.6692H87.0835V82.6692H98.5835M198.583 77.1692L199.583 82.6692M198.583 77.1692H213.083L213.583 82.6692H199.583M199.583 82.6692H98.5835" stroke="black" stroke-width="0.5"/>
<path d="M97.0826 78.6692C92.5835 74.1692 89.5835 52.1692 93.5826 35.6692L165.583 31.6692C161.583 36.6692 160.583 70.6692 164.083 78.6692H97.0826Z" stroke="black" stroke-width="0.5"/>
<path d="M229.083 30.6692L165.583 31.6692C161.583 36.6692 160.583 70.6692 164.083 78.6692L198.583 77.1692C203.083 75.6692 209.583 70.1692 229.083 30.6692Z" stroke="black" stroke-width="0.5"/>
<path d="M171.083 30.1693C166.583 30.6693 163.083 30.6693 160.083 30.6693L165.583 8.16926C168.583 7.66919 171.583 7.66919 174.583 8.16926L171.083 30.1693Z" stroke="black" stroke-width="0.5"/>
<path d="M99.5835 32.1693C104.083 37.6693 111.083 34.1693 115.083 32.6693C116.083 17.1692 103.083 25.1692 99.5835 32.1693Z" stroke="black" stroke-width="0.5"/>
<path d="M235.082 9.66919L232.082 13.1692C249.082 18.6692 259.582 21.6692 272.082 28.1692H273.582L281.582 26.6692C266.582 20.1692 259.082 17.6692 235.082 9.66919Z" fill="#EFC7D3" stroke="black" stroke-width="0.5"/>
<path d="M272.082 28.1692C261.582 22.6692 242.582 16.1692 232.082 13.1692L230.082 15.6692L245.082 23.1692C243.582 25.6692 239.582 27.6692 233.582 30.3692C245.582 29.6692 262.582 28.6692 272.082 28.1692Z" fill="#EFC7D3" stroke="black" stroke-width="0.5"/>
<path d="M277.583 34.4692L283.582 32.1692L273.083 28.1692L229.083 30.6692C221.583 45.6692 206.583 76.1692 198.583 77.1692H213.083C211.583 66.1692 221.083 42.6692 246.083 51.6692C256.583 46.1692 266.583 40.6692 277.583 34.4692Z" fill="#EFC7D3" stroke="black" stroke-width="0.5"/>
<path d="M278.582 34.1692C266.582 40.6692 256.582 46.1692 246.082 51.6692C250.582 54.6692 261.082 60.6692 260.082 79.6692L285.082 79.1692V77.6692C293.582 76.6692 302.082 80.1692 300.582 66.1692L302.582 56.1692C302.582 54.6692 300.082 50.6692 297.582 50.1692C299.082 47.6692 296.082 38.6692 296.082 38.6692V37.1692L292.082 34.1692L287.082 32.6692L283.582 32.1692L278.582 34.1692Z" fill="#EFC7D3" stroke="black" stroke-width="0.5"/>
<path d="M281.582 26.6692L273.082 28.1692L283.582 32.1692C293.082 33.1692 292.081 34.6692 296.076 37.0894L295.582 28.6692L281.582 26.6692Z" fill="#EFC7D3"/>
<path d="M296.082 37.1692L296.076 37.0894M296.076 37.0894L295.582 28.6692L281.582 26.6692L273.082 28.1692L283.582 32.1692C293.082 33.1692 292.081 34.6692 296.076 37.0894Z" stroke="black" stroke-width="0.5"/>
<path d="M294.583 36.6694C294.083 34.1693 283.083 33.9692 277.583 34.4692" stroke="black" stroke-width="0.5"/>
<path d="M300.583 66.6692L261.083 68.6692C260.583 63.6692 258.417 59.5025 256.583 57.6692L302.583 55.1692M301.083 52.6692C290.083 51.1692 279.083 46.3692 267.083 40.3692M229.083 30.6692L273.083 28.1692L281.583 26.6692" stroke="black" stroke-width="0.5"/>
<path d="M291.083 40.6692C291.083 38.6692 290.083 34.6692 286.583 32.6692C288.804 32.6692 292.181 33.7096 294.692 36.0792C295.156 37.6092 294.083 41.1692 291.042 42.6692C291.028 42.0789 291.083 41.3935 291.083 40.6692Z" fill="#EFC7D3"/>
<path d="M273.083 43.1692C280.079 43.519 286.096 43.6241 291.477 44.1692M298.083 45.1692C295.981 44.7185 293.787 44.4033 291.477 44.1692M296.083 37.6692C295.666 37.0841 295.196 36.5548 294.692 36.0792M291.477 44.1692C291.15 43.8244 291.056 43.3014 291.042 42.6692M291.042 42.6692C291.028 42.0789 291.083 41.3935 291.083 40.6692C291.083 38.6692 290.083 34.6692 286.583 32.6692C288.804 32.6692 292.181 33.7096 294.692 36.0792M291.042 42.6692C294.083 41.1692 295.156 37.6092 294.692 36.0792" stroke="black" stroke-width="0.5"/>
<path d="M291.083 40.6692C286.583 40.6692 284.583 36.6692 283.583 34.1692" stroke="black" stroke-width="0.5"/>
<path d="M133.082 12.7692C119.582 16.7692 107.582 22.6692 93.582 35.6692C100.582 23.6692 116.082 14.1692 131.582 9.16919L133.082 12.7692Z" stroke="black" stroke-width="0.5"/>
<path d="M131.582 9.16919C111.582 14.8432 93.582 32.1692 85.582 30.1692C98.582 20.6692 114.582 12.1692 131.082 7.66919L131.582 9.16919Z" stroke="black" stroke-width="0.5"/>
<path d="M10.5827 48.1692H4.5827C2.08203 52.1692 2.08203 62.1692 2.5827 65.6692C1.08203 66.6692 1.08263 71.1692 2.0827 72.6692L6.0827 73.1692V74.6692L2.0827 76.6692V78.6692C6.0827 79.6692 14.5827 81.6692 22.5827 81.1692V79.6692H40.0827C39.416 71.1692 41.0827 60.6692 50.0827 53.6692C47.5827 49.6692 40.5827 45.1692 37.5827 44.6692C27.5827 43.6692 12.5827 46.1692 10.5827 48.1692Z" stroke="black" stroke-width="0.5"/>
<path d="M93.5835 35.6692C75.7502 36.5025 44.0835 41.3692 33.5835 44.3692L37.5835 44.6692C42.5835 46.1692 48.0835 50.5025 50.0835 53.6692C63.0825 44.1692 88.5825 51.1692 87.0825 78.6692H97.0825C90.0825 67.6692 91.0825 45.6692 93.5835 35.6692Z" stroke="black" stroke-width="0.5"/>
<path d="M10.582 48.1692H4.58203C37.0822 28.6691 59.0823 34.6692 85.082 30.1692L94.0823 35.6692C77.0823 36.6692 48.082 40.1692 34.082 44.3692C26.082 44.1692 12.082 46.1692 10.582 48.1692Z" stroke="black" stroke-width="0.5"/>
<path d="M37.5835 44.6693C30.0835 43.6692 13.0835 45.6692 10.5835 48.1693C9.78349 50.5692 12.9168 53.5025 14.5835 54.6692C24.0835 56.1692 37.5835 50.1692 37.5835 44.6693Z" stroke="black" stroke-width="0.5"/>
<path d="M4.58273 48.1692C11.5827 49.1692 5.58273 59.6692 2.58273 64.6692C2.08266 57.6692 2.58252 52.1692 4.58273 48.1692Z" stroke="black" stroke-width="0.5"/>
<path d="M22.582 84.1692V79.6692H40.082L40.582 84.1692H22.582Z" stroke="black" stroke-width="0.5"/>
<path d="M3.08398 65.6692C4.58398 68.1692 6.58398 71.3359 6.08398 73.1692M22.584 79.6692C12.084 80.1692 7.58398 76.1692 8.58398 72.6692C9.08398 72.1692 10.584 70.6692 11.584 70.6692" stroke="black" stroke-width="0.5"/>
<path d="M6.58398 65.6693C8.83393 65.1692 11.7088 64.5443 14.4588 64.1693M14.4588 64.1693C17.2088 63.7943 19.8339 63.6693 21.584 64.1693C24.584 65.6693 30.084 70.6692 32.584 74.6692C27.584 75.6692 20.584 75.1692 16.084 75.1692C13.3914 75.1692 12.084 72.8359 12.084 71.6692C11.584 68.6692 12.8338 65.5026 14.4588 64.1693Z" stroke="black" stroke-width="0.5"/>
<path d="M12.084 71.1693C20.084 69.6693 23.584 72.2978 26.584 73.7978M13.584 74.1693L31.084 73.6693" stroke="black" stroke-width="0.5"/>
<path d="M22.582 82.6692H32.082C34.082 82.6692 35.582 80.6692 35.082 79.6692M38.582 79.6692V84.1692" stroke="black" stroke-width="0.5"/>
<path d="M22.5834 81.1694C18.0834 81.1694 13.5834 81.6694 2.08344 78.6694V76.6694L6.08344 74.6694V73.1694L2.08344 72.6694C1.58252 71.1692 0.582715 68.1692 2.58271 65.6692C2.08295 57.6692 2.58295 51.1692 4.58344 48.1689C37.0834 28.6693 59.0834 34.6694 85.0834 30.1694C163.083 -24.8307 245.083 12.1692 282.083 26.6694L295.583 28.6692L296.083 35.6692V38.6692C297.582 43.6692 298.917 48.1692 297.583 50.1692C300.083 51.1692 302.583 54.3359 302.583 56.1692L300.583 66.1692C301.035 77.0171 298.627 77.2414 289.296 77.5538C288.305 77.587 286.236 77.6212 285.083 77.6692V79.1692L260.083 79.6002M22.5834 81.1694V84.1694H40.5818L40.0835 79.6694M22.5834 81.1694V79.6694H40.0835M40.0835 79.6694C37.0835 38.1694 90.5834 41.1694 87.0834 80.1694V82.6692H213.583C207.583 39.1692 262.083 39.1692 260.083 79.6002M259.582 79.6002H260.083" stroke="black"/>
</svg>
