<svg width="303" height="96" viewBox="0 0 303 96" fill="none" xmlns="http://www.w3.org/2000/svg">
<circle cx="62.667" cy="74.1692" r="20.5" stroke="black"/>
<circle cx="235.667" cy="74.1692" r="20.5" stroke="black"/>
<path d="M132.665 12.669L131.165 9.16904C171.165 1.16916 192.665 1.66919 231.665 13.1691L228.165 17.6691C208.165 9.6691 190.165 8.6691 174.165 8.16917C171.665 7.66917 167.665 7.66913 165.165 8.16904C155.165 8.16917 143.165 9.66917 132.665 12.669Z" stroke="black" stroke-width="0.5"/>
<path d="M131.165 9.16923L130.665 7.66923C166.665 -3.33081 199.165 0.669064 234.665 9.66924L231.665 13.1692C191.665 0.669189 165.665 2.16919 131.165 9.16923Z" stroke="black" stroke-width="0.5"/>
<path d="M131.165 9.16918C182.665 -2.33085 211.165 7.66919 231.665 13.1692" stroke="black" stroke-width="0.5"/>
<path d="M226.667 30.6692L223.667 16.1692C219.167 14.6692 207.667 9.16919 174.167 8.16919L170.667 30.1692C181.667 29.6692 199.167 28.1692 226.167 28.1692" stroke="black" stroke-width="0.5"/>
<path d="M165.167 8.16919C132.167 9.16919 112.167 18.1692 93.167 35.6692L95.667 33.6692L159.667 30.6692L165.167 8.16919Z" stroke="black" stroke-width="0.5"/>
<path d="M239.665 22.6692C235.998 20.0025 230.165 17.6692 223.665 16.1692L226.165 28.1692H232.665C235.665 26.6692 238.665 24.4379 239.665 22.6692Z" stroke="black" stroke-width="0.5"/>
<path d="M96.667 78.6692H163.667L198.167 77.1692M96.667 78.6692C96.667 80.1692 97.167 81.1692 98.167 82.6692M96.667 78.6692H86.667V82.6692H98.167M198.167 77.1692L199.167 82.6692M198.167 77.1692H212.667L213.167 82.6692H199.167M199.167 82.6692H98.167" stroke="black" stroke-width="0.5"/>
<path d="M96.6661 78.6692C92.167 74.1692 89.167 52.1692 93.1661 35.6692L165.167 31.6692C161.167 36.6692 160.167 70.6692 163.667 78.6692H96.6661Z" stroke="black" stroke-width="0.5"/>
<path d="M228.667 30.6692L165.167 31.6692C161.167 36.6692 160.167 70.6692 163.667 78.6692L198.167 77.1692C202.667 75.6692 209.167 70.1692 228.667 30.6692Z" stroke="black" stroke-width="0.5"/>
<path d="M170.667 30.1693C166.167 30.6693 162.667 30.6693 159.667 30.6693L165.167 8.16926C168.167 7.66919 171.167 7.66919 174.167 8.16926L170.667 30.1693Z" stroke="black" stroke-width="0.5"/>
<path d="M99.167 32.1693C103.667 37.6693 110.667 34.1693 114.667 32.6693C115.667 17.1692 102.667 25.1692 99.167 32.1693Z" stroke="black" stroke-width="0.5"/>
<path d="M234.665 9.66919L231.665 13.1692C248.665 18.6692 259.165 21.6692 271.665 28.1692H273.165L281.165 26.6692C266.165 20.1692 258.665 17.6692 234.665 9.66919Z" fill="#E56E90" stroke="black" stroke-width="0.5"/>
<path d="M271.665 28.1692C261.165 22.6692 242.165 16.1692 231.665 13.1692L229.665 15.6692L244.665 23.1692C243.165 25.6692 239.165 27.6692 233.165 30.3692C245.165 29.6692 262.165 28.6692 271.665 28.1692Z" fill="#E56E90" stroke="black" stroke-width="0.5"/>
<path d="M277.167 34.4692L283.165 32.1692L272.666 28.1692L228.666 30.6692C221.166 45.6692 206.166 76.1692 198.166 77.1692H212.666C211.166 66.1692 220.666 42.6692 245.667 51.6692C256.167 46.1692 266.167 40.6692 277.167 34.4692Z" fill="#E56E90" stroke="black" stroke-width="0.5"/>
<path d="M278.165 34.1692C266.165 40.6692 256.165 46.1692 245.665 51.6692C250.165 54.6692 260.665 60.6692 259.665 79.6692L284.665 79.1692V77.6692C293.165 76.6692 301.665 80.1692 300.165 66.1692L302.165 56.1692C302.165 54.6692 299.665 50.6692 297.165 50.1692C298.665 47.6692 295.665 38.6692 295.665 38.6692V37.1692L291.665 34.1692L286.665 32.6692L283.165 32.1692L278.165 34.1692Z" fill="#E56E90" stroke="black" stroke-width="0.5"/>
<path d="M281.165 26.6692L272.665 28.1692L283.165 32.1692C292.665 33.1692 291.664 34.6692 295.659 37.0894L295.165 28.6692L281.165 26.6692Z" fill="#E56E90"/>
<path d="M295.665 37.1692L295.659 37.0894M295.659 37.0894L295.165 28.6692L281.165 26.6692L272.665 28.1692L283.165 32.1692C292.665 33.1692 291.664 34.6692 295.659 37.0894Z" stroke="black" stroke-width="0.5"/>
<path d="M294.167 36.6694C293.667 34.1693 282.667 33.9692 277.167 34.4692" stroke="black" stroke-width="0.5"/>
<path d="M300.167 66.6692L260.667 68.6692C260.167 63.6692 258 59.5025 256.167 57.6692L302.167 55.1692M300.667 52.6692C289.667 51.1692 278.667 46.3692 266.667 40.3692M228.667 30.6692L272.667 28.1692L281.167 26.6692" stroke="black" stroke-width="0.5"/>
<path d="M290.667 40.6692C290.667 38.6692 289.667 34.6692 286.167 32.6692C288.388 32.6692 291.765 33.7096 294.276 36.0792C294.74 37.6092 293.667 41.1692 290.625 42.6692C290.612 42.0789 290.667 41.3935 290.667 40.6692Z" fill="#E56E90"/>
<path d="M272.667 43.1692C279.663 43.519 285.68 43.6241 291.06 44.1692M297.667 45.1692C295.564 44.7185 293.371 44.4033 291.06 44.1692M295.667 37.6692C295.249 37.0841 294.78 36.5548 294.276 36.0792M291.06 44.1692C290.734 43.8244 290.64 43.3014 290.625 42.6692M290.625 42.6692C290.612 42.0789 290.667 41.3935 290.667 40.6692C290.667 38.6692 289.667 34.6692 286.167 32.6692C288.388 32.6692 291.765 33.7096 294.276 36.0792M290.625 42.6692C293.667 41.1692 294.74 37.6092 294.276 36.0792" stroke="black" stroke-width="0.5"/>
<path d="M290.667 40.6692C286.167 40.6692 284.167 36.6692 283.167 34.1692" stroke="black" stroke-width="0.5"/>
<path d="M132.665 12.7692C119.165 16.7692 107.165 22.6692 93.165 35.6692C100.165 23.6692 115.665 14.1692 131.165 9.16919L132.665 12.7692Z" stroke="black" stroke-width="0.5"/>
<path d="M131.165 9.16919C111.165 14.8432 93.165 32.1692 85.165 30.1692C98.165 20.6692 114.165 12.1692 130.665 7.66919L131.165 9.16919Z" stroke="black" stroke-width="0.5"/>
<path d="M10.1657 48.1692H4.16571C1.66504 52.1692 1.66504 62.1692 2.16571 65.6692C0.665039 66.6692 0.665637 71.1692 1.66571 72.6692L5.66571 73.1692V74.6692L1.66571 76.6692V78.6692C5.66571 79.6692 14.1657 81.6692 22.1657 81.1692V79.6692H39.6657C38.999 71.1692 40.6657 60.6692 49.6657 53.6692C47.1657 49.6692 40.1657 45.1692 37.1657 44.6692C27.1657 43.6692 12.1657 46.1692 10.1657 48.1692Z" stroke="black" stroke-width="0.5"/>
<path d="M93.167 35.6692C75.3337 36.5025 43.667 41.3692 33.167 44.3692L37.167 44.6692C42.167 46.1692 47.667 50.5025 49.667 53.6692C62.666 44.1692 88.166 51.1692 86.666 78.6692H96.666C89.666 67.6692 90.666 45.6692 93.167 35.6692Z" stroke="black" stroke-width="0.5"/>
<path d="M10.165 48.1692H4.16504C36.6652 28.6691 58.6653 34.6692 84.665 30.1692L93.6653 35.6692C76.6653 36.6692 47.665 40.1692 33.665 44.3692C25.665 44.1692 11.665 46.1692 10.165 48.1692Z" stroke="black" stroke-width="0.5"/>
<path d="M37.1665 44.6693C29.6665 43.6692 12.6665 45.6692 10.1665 48.1693C9.36649 50.5692 12.4998 53.5025 14.1665 54.6692C23.6665 56.1692 37.1665 50.1692 37.1665 44.6693Z" stroke="black" stroke-width="0.5"/>
<path d="M4.16573 48.1692C11.1657 49.1692 5.16573 59.6692 2.16573 64.6692C1.66566 57.6692 2.16553 52.1692 4.16573 48.1692Z" stroke="black" stroke-width="0.5"/>
<path d="M22.165 84.1692V79.6692H39.665L40.165 84.1692H22.165Z" stroke="black" stroke-width="0.5"/>
<path d="M2.66699 65.6692C4.16699 68.1692 6.16699 71.3359 5.66699 73.1692M22.167 79.6692C11.667 80.1692 7.16699 76.1692 8.16699 72.6692C8.66699 72.1692 10.167 70.6692 11.167 70.6692" stroke="black" stroke-width="0.5"/>
<path d="M6.16699 65.6693C8.41693 65.1692 11.2918 64.5443 14.0418 64.1693M14.0418 64.1693C16.7919 63.7943 19.4169 63.6693 21.167 64.1693C24.167 65.6693 29.667 70.6692 32.167 74.6692C27.167 75.6692 20.167 75.1692 15.667 75.1692C12.9744 75.1692 11.667 72.8359 11.667 71.6692C11.167 68.6692 12.4168 65.5026 14.0418 64.1693Z" stroke="black" stroke-width="0.5"/>
<path d="M11.667 71.1693C19.667 69.6693 23.167 72.2978 26.167 73.7978M13.167 74.1693L30.667 73.6693" stroke="black" stroke-width="0.5"/>
<path d="M22.165 82.6692H31.665C33.665 82.6692 35.165 80.6692 34.665 79.6692M38.165 79.6692V84.1692" stroke="black" stroke-width="0.5"/>
<path d="M22.1669 81.1694C17.6669 81.1694 13.1669 81.6694 1.66694 78.6694V76.6694L5.66694 74.6694V73.1694L1.66694 72.6694C1.16602 71.1692 0.166211 68.1692 2.16621 65.6692C1.66645 57.6692 2.16645 51.1692 4.16694 48.1689C36.6669 28.6693 58.6669 34.6694 84.6669 30.1694C162.667 -24.8307 244.667 12.1692 281.667 26.6694L295.167 28.6692L295.667 35.6692V38.6692C297.165 43.6692 298.5 48.1692 297.167 50.1692C299.667 51.1692 302.167 54.3359 302.167 56.1692L300.167 66.1692C300.619 77.0171 298.211 77.2414 288.879 77.5538C287.888 77.587 285.819 77.6212 284.667 77.6692V79.1692L259.667 79.6002M22.1669 81.1694V84.1694H40.1653L39.6669 79.6694M22.1669 81.1694V79.6694H39.6669M39.6669 79.6694C36.6669 38.1694 90.1669 41.1694 86.6669 80.1694V82.6692H213.167C207.167 39.1692 261.667 39.1692 259.667 79.6002M259.165 79.6002H259.667" stroke="black"/>
</svg>
