<svg width="303" height="96" viewBox="0 0 303 96" fill="none" xmlns="http://www.w3.org/2000/svg">
<circle cx="62.2915" cy="74.2146" r="20.5" fill="#E56E90" stroke="black"/>
<circle cx="235.292" cy="74.2146" r="20.5" fill="#E56E90" stroke="black"/>
<path d="M132.29 12.7145L130.79 9.21445C170.79 1.21457 192.29 1.7146 231.29 13.2145L227.79 17.7145C207.79 9.71451 189.79 8.71451 173.79 8.21458C171.29 7.71458 167.29 7.71454 164.79 8.21445C154.79 8.21458 142.79 9.71458 132.29 12.7145Z" fill="#E56E90" stroke="black" stroke-width="0.5"/>
<path d="M130.79 9.21464L130.29 7.71464C166.29 -3.2854 198.79 0.714474 234.29 9.71465L231.29 13.2146C191.29 0.7146 165.29 2.2146 130.79 9.21464Z" fill="#E56E90" stroke="black" stroke-width="0.5"/>
<path d="M130.79 9.21447C182.29 -2.28556 210.79 7.71448 231.29 13.2145" stroke="black" stroke-width="0.5"/>
<path d="M170.292 30.2146L173.792 8.2146C207.292 9.2146 218.792 14.7146 223.292 16.2146L225.774 28.2146C198.784 28.2152 181.289 29.7147 170.292 30.2146Z" fill="#E56E90"/>
<path d="M226.292 30.7146L223.292 16.2146C218.792 14.7146 207.292 9.2146 173.792 8.2146L170.292 30.2146C181.292 29.7146 198.792 28.2146 225.792 28.2146" stroke="black" stroke-width="0.5"/>
<path d="M164.792 8.2146C131.792 9.2146 111.792 18.2146 92.7915 35.7146L95.2915 33.7146L159.292 30.7146L164.792 8.2146Z" fill="#E56E90" stroke="black" stroke-width="0.5"/>
<path d="M239.29 22.7146C235.623 20.0479 229.79 17.7146 223.29 16.2146L225.79 28.2146H232.29C235.29 26.7146 238.29 24.4833 239.29 22.7146Z" fill="#E56E90" stroke="black" stroke-width="0.5"/>
<path d="M96.2915 78.7146H163.292L197.792 77.2146H212.292L212.792 82.7146H198.792H97.7915H86.2915V78.7146H96.2915Z" fill="#E56E90"/>
<path d="M96.2915 78.7146H163.292L197.792 77.2146M96.2915 78.7146C96.2915 80.2146 96.7915 81.2146 97.7915 82.7146M96.2915 78.7146H86.2915V82.7146H97.7915M197.792 77.2146L198.792 82.7146M197.792 77.2146H212.292L212.792 82.7146H198.792M198.792 82.7146H97.7915" stroke="black" stroke-width="0.5"/>
<path d="M96.2906 78.7146C91.7915 74.2146 88.7915 52.2146 92.7906 35.7146L164.792 31.7146C160.792 36.7146 159.792 70.7146 163.291 78.7146H96.2906Z" fill="#E56E90" stroke="black" stroke-width="0.5"/>
<path d="M228.291 30.7146L164.791 31.7146C160.791 36.7146 159.791 70.7146 163.291 78.7146L197.791 77.2146C202.291 75.7146 208.791 70.2146 228.291 30.7146Z" fill="#E56E90" stroke="black" stroke-width="0.5"/>
<path d="M170.292 30.2147C165.792 30.7147 162.292 30.7147 159.292 30.7147L164.792 8.21467C167.792 7.7146 170.792 7.7146 173.792 8.21467L170.292 30.2147Z" fill="#E56E90" stroke="black" stroke-width="0.5"/>
<path d="M98.7915 32.2146C103.292 37.7146 110.292 34.2146 114.292 32.7146C115.292 17.2145 102.292 25.2145 98.7915 32.2146Z" fill="#E56E90" stroke="black" stroke-width="0.5"/>
<path d="M234.29 9.7146L231.29 13.2146C248.29 18.7146 258.79 21.7146 271.29 28.2146H272.79L280.79 26.7146C265.79 20.2146 258.29 17.7146 234.29 9.7146Z" stroke="black" stroke-width="0.5"/>
<path d="M271.29 28.2146C260.79 22.7146 241.79 16.2146 231.29 13.2146L229.29 15.7146L244.29 23.2146C242.79 25.7146 238.79 27.7146 232.79 30.4146C244.79 29.7146 261.79 28.7146 271.29 28.2146Z" stroke="black" stroke-width="0.5"/>
<path d="M276.792 34.5146L282.79 32.2146L272.291 28.2146L228.291 30.7146C220.791 45.7146 205.791 76.2146 197.791 77.2146H212.291C210.791 66.2146 220.291 42.7146 245.292 51.7146C255.792 46.2146 265.792 40.7146 276.792 34.5146Z" stroke="black" stroke-width="0.5"/>
<path d="M277.79 34.2146C265.79 40.7146 255.79 46.2146 245.29 51.7146C249.79 54.7146 260.29 60.7146 259.29 79.7146L284.29 79.2146V77.7146C292.79 76.7146 301.29 80.2146 299.79 66.2146L301.79 56.2146C301.79 54.7146 299.29 50.7146 296.79 50.2146C298.29 47.7146 295.29 38.7146 295.29 38.7146V37.2146L291.29 34.2146L286.29 32.7146L282.79 32.2146L277.79 34.2146Z" stroke="black" stroke-width="0.5"/>
<path d="M295.29 37.2146L295.284 37.1348M295.284 37.1348L294.79 28.7146L280.79 26.7146L272.29 28.2146L282.79 32.2146C292.29 33.2146 291.289 34.7146 295.284 37.1348Z" stroke="black" stroke-width="0.5"/>
<path d="M293.792 36.7148C293.292 34.2147 282.292 34.0146 276.792 34.5146" stroke="black" stroke-width="0.5"/>
<path d="M299.792 66.7146L260.292 68.7146C259.792 63.7146 257.625 59.5479 255.792 57.7146L301.792 55.2146M300.292 52.7146C289.292 51.2146 278.292 46.4146 266.292 40.4146M228.292 30.7146L272.292 28.2146L280.792 26.7146" stroke="black" stroke-width="0.5"/>
<path d="M272.292 43.2146C279.287 43.5644 285.304 43.6695 290.685 44.2146M297.292 45.2146C295.189 44.764 292.995 44.4487 290.685 44.2146M295.292 37.7146C294.874 37.1295 294.404 36.6002 293.9 36.1246M290.685 44.2146C290.358 43.8698 290.264 43.3468 290.25 42.7146M290.25 42.7146C290.236 42.1243 290.292 41.4389 290.292 40.7146C290.292 38.7146 289.292 34.7146 285.792 32.7146C288.012 32.7146 291.389 33.755 293.9 36.1246M290.25 42.7146C293.292 41.2146 294.364 37.6546 293.9 36.1246" stroke="black" stroke-width="0.5"/>
<path d="M290.292 40.7146C285.792 40.7146 283.792 36.7146 282.792 34.2146" stroke="black" stroke-width="0.5"/>
<path d="M132.29 12.8146C118.79 16.8146 106.79 22.7146 92.79 35.7146C99.79 23.7146 115.29 14.2146 130.79 9.2146L132.29 12.8146Z" fill="#E56E90" stroke="black" stroke-width="0.5"/>
<path d="M130.79 9.2146C110.79 14.8886 92.79 32.2146 84.79 30.2146C97.79 20.7146 113.79 12.2146 130.29 7.7146L130.79 9.2146Z" fill="#E56E90" stroke="black" stroke-width="0.5"/>
<path d="M9.79071 48.2145H3.79071C1.29004 52.2145 1.29004 62.2145 1.79071 65.7145C0.290039 66.7145 0.290637 71.2145 1.29071 72.7145L5.29071 73.2145V74.7145L1.29071 76.7145V78.7145C5.29071 79.7145 13.7907 81.7145 21.7907 81.2145V79.7145H39.2907C38.624 71.2145 40.2907 60.7145 49.2907 53.7145C46.7907 49.7145 39.7907 45.2145 36.7907 44.7145C26.7907 43.7145 11.7907 46.2145 9.79071 48.2145Z" fill="#E56E90" stroke="black" stroke-width="0.5"/>
<path d="M92.7915 35.7146C74.9582 36.5479 43.2915 41.4146 32.7915 44.4146L36.7915 44.7146C41.7915 46.2146 47.2915 50.5479 49.2915 53.7146C62.2905 44.2146 87.7905 51.2146 86.2905 78.7146H96.2905C89.2905 67.7146 90.2905 45.7146 92.7915 35.7146Z" fill="#E56E90" stroke="black" stroke-width="0.5"/>
<path d="M9.79004 48.2147H3.79004C36.2902 28.7146 58.2903 34.7146 84.29 30.2146L93.2903 35.7146C76.2903 36.7146 47.29 40.2146 33.29 44.4146C25.29 44.2146 11.29 46.2146 9.79004 48.2147Z" fill="#E56E90" stroke="black" stroke-width="0.5"/>
<path d="M36.7915 44.7147C29.2915 43.7146 12.2915 45.7146 9.79149 48.2147C8.99149 50.6146 12.1248 53.5479 13.7915 54.7146C23.2915 56.2146 36.7915 50.2146 36.7915 44.7147Z" fill="#E56E90" stroke="black" stroke-width="0.5"/>
<path d="M3.79073 48.2146C10.7907 49.2146 4.79073 59.7146 1.79073 64.7146C1.29066 57.7146 1.79053 52.2146 3.79073 48.2146Z" fill="#E56E90" stroke="black" stroke-width="0.5"/>
<path d="M21.79 84.2146V79.7146H39.29L39.79 84.2146H21.79Z" fill="#E56E90" stroke="black" stroke-width="0.5"/>
<path d="M2.29199 65.7144C3.79199 68.2144 5.79199 71.381 5.29199 73.2144M21.792 79.7144C11.292 80.2144 6.79199 76.2144 7.79199 72.7144C8.29199 72.2144 9.79199 70.7144 10.792 70.7144" stroke="black" stroke-width="0.5"/>
<path d="M31.792 74.7145C29.292 70.7145 23.792 65.7146 20.792 64.2146C19.0419 63.7145 16.4169 63.8395 13.6668 64.2146C12.0419 65.5479 10.792 68.7145 11.292 71.7145C11.292 72.8811 12.5994 75.2145 15.292 75.2145C19.792 75.2145 26.792 75.7145 31.792 74.7145Z" fill="#E56E90"/>
<path d="M5.79199 65.7146C8.04193 65.2145 10.9168 64.5896 13.6668 64.2146M13.6668 64.2146C16.4169 63.8395 19.0419 63.7145 20.792 64.2146C23.792 65.7146 29.292 70.7145 31.792 74.7145C26.792 75.7145 19.792 75.2145 15.292 75.2145C12.5994 75.2145 11.292 72.8811 11.292 71.7145C10.792 68.7145 12.0418 65.5479 13.6668 64.2146Z" stroke="black" stroke-width="0.5"/>
<path d="M11.292 71.2146C19.292 69.7146 22.792 72.3431 25.792 73.8431M12.792 74.2146L30.292 73.7146" stroke="black" stroke-width="0.5"/>
<path d="M21.79 82.7144H31.29C33.29 82.7144 34.79 80.7144 34.29 79.7144M37.79 79.7144V84.2144" stroke="black" stroke-width="0.5"/>
<path d="M21.7915 81.2148C17.2915 81.2148 12.7915 81.7148 1.29145 78.7148V76.7148L5.29145 74.7148V73.2148L1.29145 72.7149C0.790527 71.2146 -0.209277 68.2146 1.79072 65.7146C1.29096 57.7146 1.79096 51.2146 3.79145 48.2143C36.2915 28.7147 58.2914 34.7148 84.2914 30.2148C162.291 -24.7853 244.291 12.2146 281.291 26.7148L294.791 28.7146L295.291 35.7146V38.7146C296.79 43.7146 298.125 48.2146 296.791 50.2146C299.291 51.2146 301.791 54.3813 301.791 56.2146L299.791 66.2146C300.243 77.0625 297.835 77.2868 288.504 77.5992C287.513 77.6324 285.444 77.6666 284.291 77.7146V79.2146L259.291 79.6456M21.7915 81.2148V84.2148H39.7898L39.2915 79.7148M21.7915 81.2148V79.7148H39.2915M39.2915 79.7148C36.2915 38.2148 89.7914 41.2148 86.2914 80.2148V82.7146H212.791C206.791 39.2146 261.291 39.2146 259.291 79.6456M258.79 79.6456H259.291" stroke="black"/>
</svg>
