<svg width="303" height="96" viewBox="0 0 303 96" fill="none" xmlns="http://www.w3.org/2000/svg">
<circle cx="62.876" cy="74.1692" r="20.5" fill="#EFC7D3" stroke="black"/>
<circle cx="235.876" cy="74.1692" r="20.5" fill="#EFC7D3" stroke="black"/>
<path d="M132.874 12.669L131.374 9.16904C171.374 1.16916 192.874 1.66919 231.874 13.1691L228.374 17.6691C208.374 9.6691 190.374 8.6691 174.374 8.16917C171.874 7.66917 167.874 7.66913 165.374 8.16904C155.374 8.16917 143.374 9.66917 132.874 12.669Z" stroke="black" stroke-width="0.5"/>
<path d="M131.374 9.16923L130.874 7.66923C166.874 -3.33081 199.374 0.669064 234.874 9.66924L231.874 13.1692C191.874 0.669189 165.874 2.16919 131.374 9.16923Z" stroke="black" stroke-width="0.5"/>
<path d="M131.374 9.16918C182.874 -2.33085 211.374 7.66919 231.874 13.1692" stroke="black" stroke-width="0.5"/>
<path d="M226.876 30.6692L223.876 16.1692C219.376 14.6692 207.876 9.16919 174.376 8.16919L170.876 30.1692C181.876 29.6692 199.376 28.1692 226.376 28.1692" stroke="black" stroke-width="0.5"/>
<path d="M165.376 8.16919C132.376 9.16919 112.376 18.1692 93.376 35.6692L95.876 33.6692L159.876 30.6692L165.376 8.16919Z" stroke="black" stroke-width="0.5"/>
<path d="M239.874 22.6692C236.207 20.0025 230.374 17.6692 223.874 16.1692L226.374 28.1692H232.874C235.874 26.6692 238.874 24.4379 239.874 22.6692Z" stroke="black" stroke-width="0.5"/>
<path d="M96.876 78.6692H163.876L198.376 77.1692M96.876 78.6692C96.876 80.1692 97.376 81.1692 98.376 82.6692M96.876 78.6692H86.876V82.6692H98.376M198.376 77.1692L199.376 82.6692M198.376 77.1692H212.876L213.376 82.6692H199.376M199.376 82.6692H98.376" stroke="black" stroke-width="0.5"/>
<path d="M96.8751 78.6692C92.376 74.1692 89.376 52.1692 93.3751 35.6692L165.376 31.6692C161.376 36.6692 160.376 70.6692 163.876 78.6692H96.8751Z" stroke="black" stroke-width="0.5"/>
<path d="M228.876 30.6692L165.376 31.6692C161.376 36.6692 160.376 70.6692 163.876 78.6692L198.376 77.1692C202.876 75.6692 209.376 70.1692 228.876 30.6692Z" stroke="black" stroke-width="0.5"/>
<path d="M170.876 30.1693C166.376 30.6693 162.876 30.6693 159.876 30.6693L165.376 8.16926C168.376 7.66919 171.376 7.66919 174.376 8.16926L170.876 30.1693Z" stroke="black" stroke-width="0.5"/>
<path d="M99.376 32.1693C103.876 37.6693 110.876 34.1693 114.876 32.6693C115.876 17.1692 102.876 25.1692 99.376 32.1693Z" stroke="black" stroke-width="0.5"/>
<path d="M234.874 9.66919L231.874 13.1692C248.874 18.6692 259.374 21.6692 271.874 28.1692H273.374L281.374 26.6692C266.374 20.1692 258.874 17.6692 234.874 9.66919Z" fill="#EDADBF" stroke="black" stroke-width="0.5"/>
<path d="M271.874 28.1692C261.374 22.6692 242.374 16.1692 231.874 13.1692L229.874 15.6692L244.874 23.1692C243.374 25.6692 239.374 27.6692 233.374 30.3692C245.374 29.6692 262.374 28.6692 271.874 28.1692Z" fill="#EDADBF" stroke="black" stroke-width="0.5"/>
<path d="M277.376 34.4692L283.374 32.1692L272.875 28.1692L228.875 30.6692C221.375 45.6692 206.375 76.1692 198.375 77.1692H212.875C211.375 66.1692 220.875 42.6692 245.876 51.6692C256.376 46.1692 266.376 40.6692 277.376 34.4692Z" fill="#EDADBF" stroke="black" stroke-width="0.5"/>
<path d="M278.374 34.1692C266.374 40.6692 256.374 46.1692 245.874 51.6692C250.374 54.6692 260.874 60.6692 259.874 79.6692L284.874 79.1692V77.6692C293.374 76.6692 301.874 80.1692 300.374 66.1692L302.374 56.1692C302.374 54.6692 299.874 50.6692 297.374 50.1692C298.874 47.6692 295.874 38.6692 295.874 38.6692V37.1692L291.874 34.1692L286.874 32.6692L283.374 32.1692L278.374 34.1692Z" fill="#EDADBF" stroke="black" stroke-width="0.5"/>
<path d="M281.374 26.6692L272.874 28.1692L283.374 32.1692C292.874 33.1692 291.873 34.6692 295.868 37.0894L295.374 28.6692L281.374 26.6692Z" fill="#EDADBF"/>
<path d="M295.874 37.1692L295.868 37.0894M295.868 37.0894L295.374 28.6692L281.374 26.6692L272.874 28.1692L283.374 32.1692C292.874 33.1692 291.873 34.6692 295.868 37.0894Z" stroke="black" stroke-width="0.5"/>
<path d="M294.376 36.6694C293.876 34.1693 282.876 33.9692 277.376 34.4692" stroke="black" stroke-width="0.5"/>
<path d="M300.376 66.6692L260.876 68.6692C260.376 63.6692 258.209 59.5025 256.376 57.6692L302.376 55.1692M300.876 52.6692C289.876 51.1692 278.876 46.3692 266.876 40.3692M228.876 30.6692L272.876 28.1692L281.376 26.6692" stroke="black" stroke-width="0.5"/>
<path d="M290.876 40.6692C290.876 38.6692 289.876 34.6692 286.376 32.6692C288.597 32.6692 291.974 33.7096 294.485 36.0792C294.949 37.6092 293.876 41.1692 290.834 42.6692C290.821 42.0789 290.876 41.3935 290.876 40.6692Z" fill="#EDADBF"/>
<path d="M272.876 43.1692C279.872 43.519 285.889 43.6241 291.269 44.1692M297.876 45.1692C295.773 44.7185 293.58 44.4033 291.269 44.1692M295.876 37.6692C295.458 37.0841 294.989 36.5548 294.485 36.0792M291.269 44.1692C290.943 43.8244 290.849 43.3014 290.834 42.6692M290.834 42.6692C290.821 42.0789 290.876 41.3935 290.876 40.6692C290.876 38.6692 289.876 34.6692 286.376 32.6692C288.597 32.6692 291.974 33.7096 294.485 36.0792M290.834 42.6692C293.876 41.1692 294.949 37.6092 294.485 36.0792" stroke="black" stroke-width="0.5"/>
<path d="M290.876 40.6692C286.376 40.6692 284.376 36.6692 283.376 34.1692" stroke="black" stroke-width="0.5"/>
<path d="M132.874 12.7692C119.374 16.7692 107.374 22.6692 93.374 35.6692C100.374 23.6692 115.874 14.1692 131.374 9.16919L132.874 12.7692Z" stroke="black" stroke-width="0.5"/>
<path d="M131.374 9.16919C111.374 14.8432 93.374 32.1692 85.374 30.1692C98.374 20.6692 114.374 12.1692 130.874 7.66919L131.374 9.16919Z" stroke="black" stroke-width="0.5"/>
<path d="M10.3747 48.1692H4.37469C1.87402 52.1692 1.87402 62.1692 2.37469 65.6692C0.874023 66.6692 0.874621 71.1692 1.87469 72.6692L5.87469 73.1692V74.6692L1.87469 76.6692V78.6692C5.87469 79.6692 14.3747 81.6692 22.3747 81.1692V79.6692H39.8747C39.208 71.1692 40.8747 60.6692 49.8747 53.6692C47.3747 49.6692 40.3747 45.1692 37.3747 44.6692C27.3747 43.6692 12.3747 46.1692 10.3747 48.1692Z" stroke="black" stroke-width="0.5"/>
<path d="M93.376 35.6692C75.5426 36.5025 43.876 41.3692 33.376 44.3692L37.376 44.6692C42.376 46.1692 47.876 50.5025 49.876 53.6692C62.875 44.1692 88.375 51.1692 86.875 78.6692H96.875C89.875 67.6692 90.875 45.6692 93.376 35.6692Z" stroke="black" stroke-width="0.5"/>
<path d="M10.374 48.1692H4.37402C36.8742 28.6691 58.8743 34.6692 84.874 30.1692L93.8743 35.6692C76.8743 36.6692 47.874 40.1692 33.874 44.3692C25.874 44.1692 11.874 46.1692 10.374 48.1692Z" stroke="black" stroke-width="0.5"/>
<path d="M37.3755 44.6693C29.8755 43.6692 12.8755 45.6692 10.3755 48.1693C9.57548 50.5692 12.7088 53.5025 14.3755 54.6692C23.8755 56.1692 37.3755 50.1692 37.3755 44.6693Z" stroke="black" stroke-width="0.5"/>
<path d="M4.37472 48.1692C11.3747 49.1692 5.37472 59.6692 2.37472 64.6692C1.87465 57.6692 2.37451 52.1692 4.37472 48.1692Z" stroke="black" stroke-width="0.5"/>
<path d="M22.374 84.1692V79.6692H39.874L40.374 84.1692H22.374Z" stroke="black" stroke-width="0.5"/>
<path d="M2.87598 65.6692C4.37598 68.1692 6.37598 71.3359 5.87598 73.1692M22.376 79.6692C11.876 80.1692 7.37598 76.1692 8.37598 72.6692C8.87598 72.1692 10.376 70.6692 11.376 70.6692" stroke="black" stroke-width="0.5"/>
<path d="M6.37598 65.6693C8.62592 65.1692 11.5008 64.5443 14.2508 64.1693M14.2508 64.1693C17.0008 63.7943 19.6259 63.6693 21.376 64.1693C24.376 65.6693 29.876 70.6692 32.376 74.6692C27.376 75.6692 20.376 75.1692 15.876 75.1692C13.1834 75.1692 11.876 72.8359 11.876 71.6692C11.376 68.6692 12.6258 65.5026 14.2508 64.1693Z" stroke="black" stroke-width="0.5"/>
<path d="M11.876 71.1693C19.876 69.6693 23.376 72.2978 26.376 73.7978M13.376 74.1693L30.876 73.6693" stroke="black" stroke-width="0.5"/>
<path d="M22.374 82.6692H31.874C33.874 82.6692 35.374 80.6692 34.874 79.6692M38.374 79.6692V84.1692" stroke="black" stroke-width="0.5"/>
<path d="M22.3759 81.1694C17.8759 81.1694 13.3759 81.6694 1.87592 78.6694V76.6694L5.87592 74.6694V73.1694L1.87592 72.6694C1.375 71.1692 0.375196 68.1692 2.37519 65.6692C1.87543 57.6692 2.37543 51.1692 4.37592 48.1689C36.8759 28.6693 58.8759 34.6694 84.8759 30.1694C162.876 -24.8307 244.876 12.1692 281.876 26.6694L295.376 28.6692L295.876 35.6692V38.6692C297.374 43.6692 298.709 48.1692 297.376 50.1692C299.876 51.1692 302.376 54.3359 302.376 56.1692L300.376 66.1692C300.828 77.0171 298.42 77.2414 289.088 77.5538C288.097 77.587 286.028 77.6212 284.876 77.6692V79.1692L259.876 79.6002M22.3759 81.1694V84.1694H40.3743L39.8759 79.6694M22.3759 81.1694V79.6694H39.8759M39.8759 79.6694C36.8759 38.1694 90.3759 41.1694 86.8759 80.1694V82.6692H213.376C207.376 39.1692 261.876 39.1692 259.876 79.6002M259.374 79.6002H259.876" stroke="black"/>
</svg>
