<svg width="304" height="96" viewBox="0 0 304 96" fill="none" xmlns="http://www.w3.org/2000/svg">
<circle cx="63.0635" cy="74.3687" r="20.5" fill="#EDADBF" stroke="black"/>
<circle cx="236.063" cy="74.3687" r="20.5" fill="#EDADBF" stroke="black"/>
<path d="M133.062 12.8685L131.562 9.36851C171.562 1.36862 193.062 1.86865 232.062 13.3686L228.562 17.8686C208.562 9.86856 190.562 8.86856 174.562 8.36863C172.062 7.86863 168.062 7.86859 165.562 8.36851C155.562 8.36863 143.562 9.86863 133.062 12.8685Z" fill="#EDADBF" stroke="black" stroke-width="0.5"/>
<path d="M131.562 9.3687L131.062 7.8687C167.062 -3.13135 199.562 0.868526 235.062 9.8687L232.062 13.3687C192.062 0.868652 166.062 2.36865 131.562 9.3687Z" fill="#EDADBF" stroke="black" stroke-width="0.5"/>
<path d="M131.562 9.36876C183.062 -2.13126 211.562 7.86877 232.062 13.3688" stroke="black" stroke-width="0.5"/>
<path d="M171.063 30.3687L174.563 8.36865C208.063 9.36865 219.563 14.8687 224.063 16.3687L226.546 28.3687C199.556 28.3693 182.061 29.8688 171.063 30.3687Z" fill="#EDADBF"/>
<path d="M227.063 30.8687L224.063 16.3687C219.563 14.8687 208.063 9.36865 174.563 8.36865L171.063 30.3687C182.063 29.8687 199.563 28.3687 226.563 28.3687" stroke="black" stroke-width="0.5"/>
<path d="M165.563 8.36865C132.563 9.36865 112.563 18.3687 93.5635 35.8687L96.0635 33.8687L160.063 30.8687L165.563 8.36865Z" fill="#EDADBF" stroke="black" stroke-width="0.5"/>
<path d="M240.062 22.8687C236.395 20.202 230.562 17.8687 224.062 16.3687L226.562 28.3687H233.062C236.062 26.8687 239.062 24.6374 240.062 22.8687Z" fill="#EDADBF" stroke="black" stroke-width="0.5"/>
<path d="M97.0635 78.8687H164.063L198.563 77.3687H213.063L213.563 82.8687H199.563H98.5635H87.0635V78.8687H97.0635Z" fill="#EDADBF"/>
<path d="M97.0635 78.8687H164.063L198.563 77.3687M97.0635 78.8687C97.0635 80.3687 97.5635 81.3687 98.5635 82.8687M97.0635 78.8687H87.0635V82.8687H98.5635M198.563 77.3687L199.563 82.8687M198.563 77.3687H213.063L213.563 82.8687H199.563M199.563 82.8687H98.5635" stroke="black" stroke-width="0.5"/>
<path d="M97.0626 78.8687C92.5635 74.3687 89.5635 52.3687 93.5626 35.8687L165.563 31.8687C161.563 36.8687 160.563 70.8687 164.063 78.8687H97.0626Z" fill="#EDADBF" stroke="black" stroke-width="0.5"/>
<path d="M229.063 30.8687L165.563 31.8687C161.564 36.8687 160.564 70.8687 164.063 78.8687L198.563 77.3687C203.063 75.8687 209.563 70.3687 229.063 30.8687Z" fill="#EDADBF" stroke="black" stroke-width="0.5"/>
<path d="M171.063 30.3687C166.563 30.8687 163.063 30.8687 160.063 30.8687L165.563 8.36873C168.563 7.86865 171.563 7.86865 174.563 8.36873L171.063 30.3687Z" fill="#EDADBF" stroke="black" stroke-width="0.5"/>
<path d="M99.5635 32.3689C104.063 37.8689 111.063 34.3689 115.063 32.8689C116.063 17.3688 103.063 25.3688 99.5635 32.3689Z" fill="#EDADBF" stroke="black" stroke-width="0.5"/>
<path d="M235.062 9.86865L232.062 13.3687C249.062 18.8687 259.562 21.8687 272.062 28.3687H273.562L281.562 26.8687C266.562 20.3687 259.062 17.8687 235.062 9.86865Z" fill="#E56E90" stroke="black" stroke-width="0.5"/>
<path d="M272.062 28.3687C261.562 22.8687 242.562 16.3687 232.062 13.3687L230.062 15.8687L245.062 23.3687C243.562 25.8687 239.562 27.8687 233.562 30.5687C245.562 29.8687 262.562 28.8687 272.062 28.3687Z" fill="#E56E90" stroke="black" stroke-width="0.5"/>
<path d="M277.563 34.6687L283.562 32.3687L273.062 28.3687L229.062 30.8687C221.562 45.8687 206.562 76.3687 198.562 77.3687H213.062C211.562 66.3687 221.062 42.8687 246.063 51.8687C256.563 46.3687 266.563 40.8687 277.563 34.6687Z" fill="#E56E90" stroke="black" stroke-width="0.5"/>
<path d="M278.562 34.3687C266.562 40.8687 256.562 46.3687 246.062 51.8687C250.562 54.8687 261.062 60.8687 260.062 79.8687L285.062 79.3687V77.8687C293.562 76.8687 302.062 80.3687 300.562 66.3687L302.562 56.3687C302.562 54.8687 300.062 50.8687 297.562 50.3687C299.062 47.8687 296.062 38.8687 296.062 38.8687V37.3687L292.062 34.3687L287.062 32.8687L283.562 32.3687L278.562 34.3687Z" fill="#E56E90" stroke="black" stroke-width="0.5"/>
<path d="M281.562 26.8687L273.062 28.3687L283.562 32.3687C293.062 33.3687 292.06 34.8687 296.056 37.2888L295.562 28.8687L281.562 26.8687Z" fill="#E56E90"/>
<path d="M296.062 37.3687L296.056 37.2888M296.056 37.2888L295.562 28.8687L281.562 26.8687L273.062 28.3687L283.562 32.3687C293.062 33.3687 292.06 34.8687 296.056 37.2888Z" stroke="black" stroke-width="0.5"/>
<path d="M294.563 36.8689C294.063 34.3687 283.063 34.1687 277.563 34.6687" stroke="black" stroke-width="0.5"/>
<path d="M300.563 66.8687L261.063 68.8687C260.563 63.8687 258.397 59.702 256.563 57.8687L302.563 55.3687M301.063 52.8687C290.063 51.3687 279.063 46.5687 267.063 40.5687M229.063 30.8687L273.063 28.3687L281.563 26.8687" stroke="black" stroke-width="0.5"/>
<path d="M291.063 40.8687C291.063 38.8687 290.063 34.8687 286.563 32.8687C288.784 32.8687 292.161 33.909 294.672 36.2786C295.136 37.8086 294.063 41.3687 291.022 42.8687C291.008 42.2784 291.063 41.5929 291.063 40.8687Z" fill="#E56E90"/>
<path d="M273.063 43.3687C280.059 43.7184 286.076 43.8235 291.457 44.3687M298.063 45.3687C295.96 44.918 293.767 44.6028 291.457 44.3687M296.063 37.8687C295.646 37.2835 295.176 36.7543 294.672 36.2786M291.457 44.3687C291.13 44.0239 291.036 43.5008 291.022 42.8687M291.022 42.8687C291.008 42.2784 291.063 41.5929 291.063 40.8687C291.063 38.8687 290.063 34.8687 286.563 32.8687C288.784 32.8687 292.161 33.909 294.672 36.2786M291.022 42.8687C294.063 41.3687 295.136 37.8086 294.672 36.2786" stroke="black" stroke-width="0.5"/>
<path d="M291.063 40.8687C286.563 40.8687 284.563 36.8687 283.563 34.3687" stroke="black" stroke-width="0.5"/>
<path d="M133.062 12.9686C119.562 16.9686 107.562 22.8687 93.5615 35.8687C100.562 23.8687 116.062 14.3687 131.562 9.36865L133.062 12.9686Z" fill="#E56E90" stroke="black" stroke-width="0.5"/>
<path d="M131.562 9.36865C111.562 15.0427 93.5615 32.3687 85.5615 30.3687C98.5615 20.8687 114.562 12.3687 131.062 7.86865L131.562 9.36865Z" fill="#E56E90" stroke="black" stroke-width="0.5"/>
<path d="M10.5622 48.3685H4.56219C2.06152 52.3685 2.06152 62.3685 2.56219 65.8685C1.06152 66.8685 1.06212 71.3685 2.06219 72.8685L6.06219 73.3685V74.8685L2.06219 76.8685V78.8685C6.06219 79.8685 14.5622 81.8685 22.5622 81.3685V79.8685H40.0622C39.3955 71.3685 41.0622 60.8685 50.0622 53.8685C47.5622 49.8685 40.5622 45.3685 37.5622 44.8685C27.5622 43.8685 12.5622 46.3685 10.5622 48.3685Z" fill="#E56E90" stroke="black" stroke-width="0.5"/>
<path d="M93.5635 35.8687C75.7301 36.702 44.0635 41.5687 33.5635 44.5687L37.5635 44.8687C42.5635 46.3687 48.0635 50.702 50.0635 53.8687C63.0625 44.3687 88.5625 51.3687 87.0625 78.8687H97.0625C90.0625 67.8687 91.0625 45.8687 93.5635 35.8687Z" fill="#E56E90" stroke="black" stroke-width="0.5"/>
<path d="M10.5615 48.3687H4.56152C37.0617 28.8686 59.0618 34.8687 85.0615 30.3687L94.0618 35.8687C77.0618 36.8687 48.0615 40.3686 34.0615 44.5687C26.0615 44.3686 12.0615 46.3686 10.5615 48.3687Z" fill="#E56E90" stroke="black" stroke-width="0.5"/>
<path d="M37.563 44.8687C30.063 43.8687 13.063 45.8687 10.563 48.3687C9.76298 50.7687 12.8963 53.702 14.563 54.8687C24.063 56.3687 37.563 50.3687 37.563 44.8687Z" fill="#E56E90" stroke="black" stroke-width="0.5"/>
<path d="M4.56222 48.3687C11.5622 49.3687 5.56222 59.8687 2.56222 64.8687C2.06215 57.8687 2.56201 52.3687 4.56222 48.3687Z" fill="#E56E90" stroke="black" stroke-width="0.5"/>
<path d="M22.5615 84.3687V79.8687H40.0615L40.5615 84.3687H22.5615Z" fill="#E56E90" stroke="black" stroke-width="0.5"/>
<path d="M3.06348 65.8687C4.56348 68.3687 6.56348 71.5353 6.06348 73.3687M22.5635 79.8687C12.0635 80.3687 7.56348 76.3687 8.56348 72.8687C9.06348 72.3687 10.5635 70.8687 11.5635 70.8687" stroke="black" stroke-width="0.5"/>
<path d="M32.5635 74.8688C30.0635 70.8688 24.5635 65.8689 21.5635 64.3689C19.8134 63.8688 17.1883 63.9938 14.4383 64.3689C12.8133 65.7022 11.5635 68.8688 12.0635 71.8688C12.0635 73.0354 13.3709 75.3688 16.0635 75.3688C20.5635 75.3688 27.5635 75.8688 32.5635 74.8688Z" fill="#E56E90"/>
<path d="M6.56348 65.8689C8.81342 65.3688 11.6883 64.7438 14.4383 64.3689M14.4383 64.3689C17.1883 63.9938 19.8134 63.8688 21.5635 64.3689C24.5635 65.8689 30.0635 70.8688 32.5635 74.8688C27.5635 75.8688 20.5635 75.3688 16.0635 75.3688C13.3709 75.3688 12.0635 73.0354 12.0635 71.8688C11.5635 68.8688 12.8133 65.7022 14.4383 64.3689Z" stroke="black" stroke-width="0.5"/>
<path d="M12.0635 71.3688C20.0635 69.8689 23.5635 72.4974 26.5635 73.9974M13.5635 74.3689L31.0635 73.8689" stroke="black" stroke-width="0.5"/>
<path d="M22.5615 82.8687H32.0615C34.0615 82.8687 35.5615 80.8687 35.0615 79.8687M38.5615 79.8687V84.3687" stroke="black" stroke-width="0.5"/>
<path d="M22.5634 81.3689C18.0634 81.3689 13.5634 81.8689 2.06342 78.8689V76.8689L6.06342 74.8689V73.3689L2.06342 72.8689C1.5625 71.3687 0.562696 68.3687 2.56269 65.8687C2.06293 57.8687 2.56293 51.3687 4.56342 48.3684C37.0634 28.8688 59.0634 34.8688 85.0634 30.3688C163.063 -24.6313 245.063 12.3686 282.063 26.8688L295.563 28.8687L296.063 35.8687V38.8687C297.562 43.8687 298.897 48.3687 297.563 50.3687C300.063 51.3687 302.563 54.5353 302.563 56.3687L300.563 66.3687C301.015 77.2166 298.607 77.4408 289.276 77.7533C288.285 77.7865 286.216 77.8206 285.063 77.8687V79.3687L260.063 79.7997M22.5634 81.3689V84.3689H40.5618L40.0634 79.8689M22.5634 81.3689V79.8689H40.0634M40.0634 79.8689C37.0634 38.3689 90.5634 41.3689 87.0634 80.3689V82.8687H213.563C207.563 39.3687 262.063 39.3687 260.063 79.7997M259.562 79.7997H260.063" stroke="black"/>
</svg>
