<svg width="303" height="96" viewBox="0 0 303 96" fill="none" xmlns="http://www.w3.org/2000/svg">
<circle cx="62.6562" cy="74.0605" r="20.5" stroke="black"/>
<circle cx="235.656" cy="74.0605" r="20.5" stroke="black"/>
<path d="M132.654 12.5604L131.154 9.0604C171.154 1.06051 192.654 1.56055 231.654 13.0605L228.154 17.5605C208.154 9.56046 190.154 8.56046 174.154 8.06052C171.654 7.56052 167.654 7.56049 165.154 8.0604C155.154 8.06052 143.154 9.56052 132.654 12.5604Z" fill="#E0426F" stroke="black" stroke-width="0.5"/>
<path d="M131.154 9.06059L130.654 7.56059C166.654 -3.43945 199.154 0.560421 234.654 9.56059L231.654 13.0606C191.654 0.560547 165.654 2.06055 131.154 9.06059Z" fill="#E0426F" stroke="black" stroke-width="0.5"/>
<path d="M131.154 9.06066C182.654 -2.43937 211.154 7.56067 231.654 13.0607" stroke="black" stroke-width="0.5"/>
<path d="M170.656 30.0605L174.156 8.06055C207.656 9.06055 219.156 14.5605 223.656 16.0605L226.139 28.0605C199.149 28.0612 181.654 29.5607 170.656 30.0605Z" fill="#E0426F"/>
<path d="M226.656 30.5605L223.656 16.0605C219.156 14.5605 207.656 9.06055 174.156 8.06055L170.656 30.0605C181.656 29.5605 199.156 28.0605 226.156 28.0605" stroke="black" stroke-width="0.5"/>
<path d="M165.156 8.06055C132.156 9.06055 112.156 18.0605 93.1562 35.5605L95.6562 33.5605L159.656 30.5605L165.156 8.06055Z" fill="#E0426F" stroke="black" stroke-width="0.5"/>
<path d="M239.654 22.5605C235.988 19.8939 230.154 17.5605 223.654 16.0605L226.154 28.0605H232.654C235.654 26.5605 238.654 24.3293 239.654 22.5605Z" fill="#E0426F" stroke="black" stroke-width="0.5"/>
<path d="M96.6562 78.5605H163.656L198.156 77.0605H212.656L213.156 82.5605H199.156H98.1562H86.6562V78.5605H96.6562Z" fill="#E0426F"/>
<path d="M96.6562 78.5605H163.656L198.156 77.0605M96.6562 78.5605C96.6562 80.0605 97.1562 81.0605 98.1562 82.5605M96.6562 78.5605H86.6562V82.5605H98.1562M198.156 77.0605L199.156 82.5605M198.156 77.0605H212.656L213.156 82.5605H199.156M199.156 82.5605H98.1562" stroke="black" stroke-width="0.5"/>
<path d="M96.6554 78.5605C92.1562 74.0605 89.1563 52.0605 93.1554 35.5605L165.156 31.5605C161.156 36.5605 160.156 70.5605 163.656 78.5605H96.6554Z" fill="#E0426F" stroke="black" stroke-width="0.5"/>
<path d="M228.656 30.5605L165.156 31.5605C161.156 36.5605 160.156 70.5605 163.656 78.5605L198.156 77.0605C202.656 75.5605 209.156 70.0605 228.656 30.5605Z" fill="#E0426F" stroke="black" stroke-width="0.5"/>
<path d="M170.656 30.0606C166.156 30.5606 162.656 30.5606 159.656 30.5606L165.156 8.06062C168.156 7.56055 171.156 7.56055 174.156 8.06062L170.656 30.0606Z" fill="#E0426F" stroke="black" stroke-width="0.5"/>
<path d="M99.1562 32.0608C103.656 37.5608 110.656 34.0608 114.656 32.5608C115.656 17.0607 102.656 25.0607 99.1562 32.0608Z" fill="#E0426F" stroke="black" stroke-width="0.5"/>
<path d="M234.654 9.56055L231.654 13.0605C248.654 18.5605 259.154 21.5605 271.654 28.0605H273.154L281.154 26.5605C266.154 20.0605 258.654 17.5605 234.654 9.56055Z" fill="#E0426F" stroke="black" stroke-width="0.5"/>
<path d="M271.654 28.0605C261.154 22.5605 242.154 16.0605 231.654 13.0605L229.654 15.5605L244.654 23.0605C243.154 25.5605 239.154 27.5605 233.154 30.2605C245.154 29.5605 262.154 28.5605 271.654 28.0605Z" fill="#E0426F" stroke="black" stroke-width="0.5"/>
<path d="M277.156 34.3605L283.155 32.0605L272.655 28.0605L228.655 30.5605C221.155 45.5605 206.155 76.0605 198.155 77.0605H212.655C211.155 66.0605 220.655 42.5605 245.656 51.5605C256.156 46.0605 266.156 40.5605 277.156 34.3605Z" fill="#E0426F" stroke="black" stroke-width="0.5"/>
<path d="M278.154 34.0606C266.154 40.5606 256.154 46.0606 245.654 51.5606C250.154 54.5605 260.654 60.5605 259.654 79.5605L284.654 79.0605V77.5605C293.154 76.5605 301.654 80.0605 300.154 66.0605L302.154 56.0605C302.154 54.5605 299.654 50.5605 297.154 50.0605C298.654 47.5605 295.654 38.5605 295.654 38.5605V37.0605L291.654 34.0605L286.654 32.5605L283.154 32.0605L278.154 34.0606Z" fill="#E0426F" stroke="black" stroke-width="0.5"/>
<path d="M281.154 26.5605L272.654 28.0605L283.154 32.0605C292.654 33.0605 291.653 34.5605 295.648 36.9807L295.154 28.5605L281.154 26.5605Z" fill="#E0426F"/>
<path d="M295.654 37.0605L295.648 36.9807M295.648 36.9807L295.154 28.5605L281.154 26.5605L272.654 28.0605L283.154 32.0605C292.654 33.0605 291.653 34.5605 295.648 36.9807Z" stroke="black" stroke-width="0.5"/>
<path d="M294.156 36.5607C293.656 34.0606 282.656 33.8606 277.156 34.3606" stroke="black" stroke-width="0.5"/>
<path d="M300.156 66.5605L260.656 68.5605C260.156 63.5605 257.99 59.3939 256.156 57.5605L302.156 55.0605M300.656 52.5605C289.656 51.0605 278.656 46.2605 266.656 40.2605M228.656 30.5605L272.656 28.0605L281.156 26.5605" stroke="black" stroke-width="0.5"/>
<path d="M290.656 40.5605C290.656 38.5605 289.656 34.5605 286.156 32.5605C288.377 32.5605 291.754 33.6009 294.265 35.9705C294.729 37.5005 293.656 41.0605 290.614 42.5605C290.601 41.9703 290.656 41.2848 290.656 40.5605Z" fill="#E0426F"/>
<path d="M272.656 43.0605C279.652 43.4103 285.669 43.5154 291.049 44.0605M297.656 45.0605C295.553 44.6099 293.36 44.2946 291.049 44.0605M295.656 37.5605C295.238 36.9754 294.769 36.4462 294.265 35.9705M291.049 44.0605C290.723 43.7158 290.629 43.1927 290.614 42.5605M290.614 42.5605C290.601 41.9703 290.656 41.2848 290.656 40.5605C290.656 38.5605 289.656 34.5605 286.156 32.5605C288.377 32.5605 291.754 33.6009 294.265 35.9705M290.614 42.5605C293.656 41.0605 294.729 37.5005 294.265 35.9705" stroke="black" stroke-width="0.5"/>
<path d="M290.656 40.5605C286.156 40.5605 284.156 36.5605 283.156 34.0605" stroke="black" stroke-width="0.5"/>
<path d="M132.654 12.6605C119.154 16.6605 107.154 22.5605 93.1543 35.5605C100.154 23.5605 115.654 14.0605 131.154 9.06055L132.654 12.6605Z" fill="#E56E90" stroke="black" stroke-width="0.5"/>
<path d="M131.154 9.06055C111.154 14.7346 93.1543 32.0605 85.1543 30.0605C98.1543 20.5605 114.154 12.0605 130.654 7.56055L131.154 9.06055Z" fill="#E56E90" stroke="black" stroke-width="0.5"/>
<path d="M10.155 48.0604H4.15496C1.6543 52.0604 1.6543 62.0604 2.15496 65.5604C0.654297 66.5604 0.654894 71.0604 1.65496 72.5604L5.65496 73.0604V74.5604L1.65496 76.5604V78.5604C5.65496 79.5604 14.155 81.5604 22.155 81.0604V79.5604H39.655C38.9883 71.0604 40.655 60.5604 49.655 53.5604C47.155 49.5604 40.155 45.0604 37.155 44.5604C27.155 43.5604 12.155 46.0604 10.155 48.0604Z" fill="#E56E90" stroke="black" stroke-width="0.5"/>
<path d="M93.1562 35.5605C75.3229 36.3939 43.6562 41.2605 33.1562 44.2605L37.1562 44.5605C42.1562 46.0605 47.6562 50.3939 49.6562 53.5605C62.6553 44.0605 88.1553 51.0605 86.6553 78.5605H96.6553C89.6553 67.5605 90.6553 45.5605 93.1562 35.5605Z" fill="#E56E90" stroke="black" stroke-width="0.5"/>
<path d="M10.1543 48.0606H4.1543C36.6545 28.5605 58.6545 34.5605 84.6543 30.0605L93.6545 35.5605C76.6545 36.5605 47.6543 40.0605 33.6543 44.2606C25.6543 44.0605 11.6543 46.0605 10.1543 48.0606Z" fill="#E56E90" stroke="black" stroke-width="0.5"/>
<path d="M37.1558 44.5606C29.6558 43.5605 12.6558 45.5605 10.1558 48.0606C9.35575 50.4606 12.4891 53.3939 14.1558 54.5605C23.6558 56.0605 37.1558 50.0605 37.1558 44.5606Z" fill="#E56E90" stroke="black" stroke-width="0.5"/>
<path d="M4.15499 48.0605C11.155 49.0605 5.15499 59.5605 2.15499 64.5605C1.65492 57.5605 2.15479 52.0605 4.15499 48.0605Z" fill="#E56E90" stroke="black" stroke-width="0.5"/>
<path d="M22.1543 84.0605V79.5605H39.6543L40.1543 84.0605H22.1543Z" fill="#E56E90" stroke="black" stroke-width="0.5"/>
<path d="M2.65625 65.5605C4.15625 68.0605 6.15625 71.2272 5.65625 73.0605M22.1562 79.5605C11.6562 80.0605 7.15625 76.0605 8.15625 72.5605C8.65625 72.0605 10.1562 70.5605 11.1562 70.5605" stroke="black" stroke-width="0.5"/>
<path d="M32.1562 74.5607C29.6562 70.5607 24.1562 65.5607 21.1562 64.0607C19.4062 63.5607 16.7811 63.6857 14.031 64.0607C12.4061 65.3941 11.1562 68.5607 11.6562 71.5607C11.6562 72.7273 12.9637 75.0607 15.6562 75.0607C20.1562 75.0607 27.1562 75.5607 32.1562 74.5607Z" fill="#E56E90"/>
<path d="M6.15625 65.5607C8.40619 65.0607 11.2811 64.4357 14.031 64.0607M14.031 64.0607C16.7811 63.6857 19.4062 63.5607 21.1562 64.0607C24.1562 65.5607 29.6562 70.5607 32.1562 74.5607C27.1562 75.5607 20.1562 75.0607 15.6562 75.0607C12.9637 75.0607 11.6562 72.7273 11.6562 71.5607C11.1562 68.5607 12.4061 65.3941 14.031 64.0607Z" stroke="black" stroke-width="0.5"/>
<path d="M11.6562 71.0607C19.6562 69.5608 23.1562 72.1893 26.1562 73.6893M13.1562 74.0608L30.6562 73.5608" stroke="black" stroke-width="0.5"/>
<path d="M22.1543 82.5605H31.6543C33.6543 82.5605 35.1543 80.5605 34.6543 79.5605M38.1543 79.5605V84.0605" stroke="black" stroke-width="0.5"/>
<path d="M22.1562 81.0608C17.6562 81.0608 13.1562 81.5608 1.6562 78.5608V76.5608L5.6562 74.5608V73.0608L1.6562 72.5608C1.15527 71.0605 0.155469 68.0605 2.15546 65.5605C1.65571 57.5605 2.15571 51.0605 4.1562 48.0603C36.6562 28.5607 58.6562 34.5607 84.6562 30.0607C162.656 -24.9394 244.656 12.0605 281.656 26.5607L295.156 28.5605L295.656 35.5605V38.5605C297.155 43.5605 298.49 48.0605 297.156 50.0605C299.656 51.0605 302.156 54.2272 302.156 56.0605L300.156 66.0605C300.608 76.9085 298.2 77.1327 288.868 77.4452C287.877 77.4784 285.808 77.5125 284.656 77.5605V79.0605L259.656 79.4916M22.1562 81.0608V84.0608H40.1545L39.6562 79.5608M22.1562 81.0608V79.5608H39.6562M39.6562 79.5608C36.6562 38.0608 90.1562 41.0608 86.6562 80.0608V82.5605H213.156C207.156 39.0605 261.656 39.0605 259.656 79.4916M259.155 79.4916H259.656" stroke="black"/>
</svg>
