<svg width="303" height="96" viewBox="0 0 303 96" fill="none" xmlns="http://www.w3.org/2000/svg">
<circle cx="62.667" cy="74.5227" r="20.5" stroke="black"/>
<circle cx="235.667" cy="74.5227" r="20.5" stroke="black"/>
<path d="M132.665 13.0226L131.165 9.52256C171.165 1.52267 192.665 2.02271 231.665 13.5227L228.165 18.0226C208.165 10.0226 190.165 9.02261 174.165 8.52268C171.665 8.02268 167.665 8.02264 165.165 8.52256C155.165 8.52268 143.165 10.0227 132.665 13.0226Z" fill="#EFC7D3" stroke="black" stroke-width="0.5"/>
<path d="M131.165 9.52275L130.665 8.02275C166.665 -2.97729 199.165 1.02258 234.665 10.0228L231.665 13.5228C191.665 1.02271 165.665 2.52271 131.165 9.52275Z" fill="#EFC7D3" stroke="black" stroke-width="0.5"/>
<path d="M131.165 9.52269C182.665 -1.97733 211.165 8.02271 231.665 13.5227" stroke="black" stroke-width="0.5"/>
<path d="M170.667 30.5227L174.167 8.52271C207.667 9.52271 219.167 15.0227 223.667 16.5227L226.15 28.5227C199.16 28.5233 181.665 30.0228 170.667 30.5227Z" fill="#EFC7D3"/>
<path d="M226.667 31.0227L223.667 16.5227C219.167 15.0227 207.667 9.52271 174.167 8.52271L170.667 30.5227C181.667 30.0227 199.167 28.5227 226.167 28.5227" stroke="black" stroke-width="0.5"/>
<path d="M165.167 8.52271C132.167 9.52271 112.167 18.5227 93.167 36.0227L95.667 34.0227L159.667 31.0227L165.167 8.52271Z" fill="#EFC7D3" stroke="black" stroke-width="0.5"/>
<path d="M239.665 23.0227C235.998 20.356 230.165 18.0227 223.665 16.5227L226.165 28.5227H232.665C235.665 27.0227 238.665 24.7914 239.665 23.0227Z" fill="#EFC7D3" stroke="black" stroke-width="0.5"/>
<path d="M96.667 79.0227H163.667L198.167 77.5227H212.667L213.167 83.0227H199.167H98.167H86.667V79.0227H96.667Z" fill="#EFC7D3"/>
<path d="M96.667 79.0227H163.667L198.167 77.5227M96.667 79.0227C96.667 80.5227 97.167 81.5227 98.167 83.0227M96.667 79.0227H86.667V83.0227H98.167M198.167 77.5227L199.167 83.0227M198.167 77.5227H212.667L213.167 83.0227H199.167M199.167 83.0227H98.167" stroke="black" stroke-width="0.5"/>
<path d="M96.6661 79.0227C92.167 74.5227 89.167 52.5227 93.1661 36.0227L165.167 32.0227C161.167 37.0227 160.167 71.0227 163.667 79.0227H96.6661Z" fill="#EFC7D3" stroke="black" stroke-width="0.5"/>
<path d="M228.667 31.0227L165.167 32.0227C161.167 37.0227 160.167 71.0227 163.667 79.0227L198.167 77.5227C202.667 76.0227 209.167 70.5227 228.667 31.0227Z" fill="#EFC7D3" stroke="black" stroke-width="0.5"/>
<path d="M170.667 30.5228C166.167 31.0228 162.667 31.0228 159.667 31.0228L165.167 8.52278C168.167 8.02271 171.167 8.02271 174.167 8.52278L170.667 30.5228Z" fill="#EFC7D3" stroke="black" stroke-width="0.5"/>
<path d="M99.167 32.5228C103.667 38.0228 110.667 34.5228 114.667 33.0228C115.667 17.5227 102.667 25.5227 99.167 32.5228Z" fill="#EFC7D3" stroke="black" stroke-width="0.5"/>
<path d="M234.665 10.0227L231.665 13.5227C248.665 19.0227 259.165 22.0227 271.665 28.5227H273.165L281.165 27.0227C266.165 20.5227 258.665 18.0227 234.665 10.0227Z" fill="#E56E90" stroke="black" stroke-width="0.5"/>
<path d="M271.665 28.5227C261.165 23.0227 242.165 16.5227 231.665 13.5227L229.665 16.0227L244.665 23.5227C243.165 26.0227 239.165 28.0227 233.165 30.7227C245.165 30.0227 262.165 29.0227 271.665 28.5227Z" fill="#E56E90" stroke="black" stroke-width="0.5"/>
<path d="M277.167 34.8227L283.165 32.5227L272.666 28.5227L228.666 31.0227C221.166 46.0227 206.166 76.5227 198.166 77.5227H212.666C211.166 66.5227 220.666 43.0227 245.667 52.0227C256.167 46.5227 266.167 41.0227 277.167 34.8227Z" fill="#E56E90" stroke="black" stroke-width="0.5"/>
<path d="M278.165 34.5227C266.165 41.0227 256.165 46.5227 245.665 52.0227C250.165 55.0227 260.665 61.0227 259.665 80.0227L284.665 79.5227V78.0227C293.165 77.0227 301.665 80.5227 300.165 66.5227L302.165 56.5227C302.165 55.0227 299.665 51.0227 297.165 50.5227C298.665 48.0227 295.665 39.0227 295.665 39.0227V37.5227L291.665 34.5227L286.665 33.0227L283.165 32.5227L278.165 34.5227Z" fill="#E56E90" stroke="black" stroke-width="0.5"/>
<path d="M281.165 27.0227L272.665 28.5227L283.165 32.5227C292.665 33.5227 291.664 35.0227 295.659 37.4429L295.165 29.0227L281.165 27.0227Z" fill="#E56E90"/>
<path d="M295.665 37.5227L295.659 37.4429M295.659 37.4429L295.165 29.0227L281.165 27.0227L272.665 28.5227L283.165 32.5227C292.665 33.5227 291.664 35.0227 295.659 37.4429Z" stroke="black" stroke-width="0.5"/>
<path d="M294.167 37.0229C293.667 34.5228 282.667 34.3227 277.167 34.8227" stroke="black" stroke-width="0.5"/>
<path d="M300.167 67.0227L260.667 69.0227C260.167 64.0227 258 59.856 256.167 58.0227L302.167 55.5227M300.667 53.0227C289.667 51.5227 278.667 46.7227 266.667 40.7227M228.667 31.0227L272.667 28.5227L281.167 27.0227" stroke="black" stroke-width="0.5"/>
<path d="M290.667 41.0227C290.667 39.0227 289.667 35.0227 286.167 33.0227C288.388 33.0227 291.765 34.0631 294.276 36.4327C294.74 37.9627 293.667 41.5227 290.625 43.0227C290.612 42.4324 290.667 41.747 290.667 41.0227Z" fill="#E56E90"/>
<path d="M272.667 43.5227C279.663 43.8725 285.68 43.9776 291.06 44.5227M297.667 45.5227C295.564 45.0721 293.371 44.7568 291.06 44.5227M295.667 38.0227C295.249 37.4376 294.78 36.9084 294.276 36.4327M291.06 44.5227C290.734 44.1779 290.64 43.6549 290.625 43.0227M290.625 43.0227C290.612 42.4324 290.667 41.747 290.667 41.0227C290.667 39.0227 289.667 35.0227 286.167 33.0227C288.388 33.0227 291.765 34.0631 294.276 36.4327M290.625 43.0227C293.667 41.5227 294.74 37.9627 294.276 36.4327" stroke="black" stroke-width="0.5"/>
<path d="M290.667 41.0227C286.167 41.0227 284.167 37.0227 283.167 34.5227" stroke="black" stroke-width="0.5"/>
<path d="M132.665 13.1227C119.165 17.1227 107.165 23.0227 93.165 36.0227C100.165 24.0227 115.665 14.5227 131.165 9.52271L132.665 13.1227Z" fill="#E56E90" stroke="black" stroke-width="0.5"/>
<path d="M131.165 9.52271C111.165 15.1967 93.165 32.5227 85.165 30.5227C98.165 21.0227 114.165 12.5227 130.665 8.02271L131.165 9.52271Z" fill="#E56E90" stroke="black" stroke-width="0.5"/>
<path d="M10.1657 48.5227H4.16571C1.66504 52.5227 1.66504 62.5227 2.16571 66.0227C0.665039 67.0227 0.665637 71.5227 1.66571 73.0227L5.66571 73.5227V75.0227L1.66571 77.0227V79.0227C5.66571 80.0227 14.1657 82.0227 22.1657 81.5227V80.0227H39.6657C38.999 71.5227 40.6657 61.0227 49.6657 54.0227C47.1657 50.0227 40.1657 45.5227 37.1657 45.0227C27.1657 44.0227 12.1657 46.5227 10.1657 48.5227Z" fill="#E56E90" stroke="black" stroke-width="0.5"/>
<path d="M93.167 36.0227C75.3337 36.856 43.667 41.7227 33.167 44.7227L37.167 45.0227C42.167 46.5227 47.667 50.856 49.667 54.0227C62.666 44.5227 88.166 51.5227 86.666 79.0227H96.666C89.666 68.0227 90.666 46.0227 93.167 36.0227Z" fill="#E56E90" stroke="black" stroke-width="0.5"/>
<path d="M10.165 48.5228H4.16504C36.6652 29.0227 58.6653 35.0227 84.665 30.5227L93.6653 36.0227C76.6653 37.0227 47.665 40.5227 33.665 44.7227C25.665 44.5227 11.665 46.5227 10.165 48.5228Z" fill="#E56E90" stroke="black" stroke-width="0.5"/>
<path d="M37.1665 45.0228C29.6665 44.0227 12.6665 46.0227 10.1665 48.5228C9.36649 50.9227 12.4998 53.856 14.1665 55.0227C23.6665 56.5227 37.1665 50.5227 37.1665 45.0228Z" fill="#E56E90" stroke="black" stroke-width="0.5"/>
<path d="M4.16573 48.5227C11.1657 49.5227 5.16573 60.0227 2.16573 65.0227C1.66566 58.0227 2.16553 52.5227 4.16573 48.5227Z" fill="#E56E90" stroke="black" stroke-width="0.5"/>
<path d="M22.165 84.5227V80.0227H39.665L40.165 84.5227H22.165Z" fill="#E56E90" stroke="black" stroke-width="0.5"/>
<path d="M2.66699 66.0225C4.16699 68.5225 6.16699 71.6891 5.66699 73.5225M22.167 80.0225C11.667 80.5225 7.16699 76.5225 8.16699 73.0225C8.66699 72.5225 10.167 71.0225 11.167 71.0225" stroke="black" stroke-width="0.5"/>
<path d="M32.167 75.0226C29.667 71.0226 24.167 66.0227 21.167 64.5227C19.4169 64.0227 16.7919 64.1477 14.0418 64.5227C12.4169 65.856 11.167 69.0226 11.667 72.0226C11.667 73.1892 12.9744 75.5226 15.667 75.5226C20.167 75.5226 27.167 76.0226 32.167 75.0226Z" fill="#E56E90"/>
<path d="M6.16699 66.0227C8.41693 65.5226 11.2918 64.8977 14.0418 64.5227M14.0418 64.5227C16.7919 64.1477 19.4169 64.0227 21.167 64.5227C24.167 66.0227 29.667 71.0226 32.167 75.0226C27.167 76.0226 20.167 75.5226 15.667 75.5226C12.9744 75.5226 11.667 73.1892 11.667 72.0226C11.167 69.0226 12.4168 65.856 14.0418 64.5227Z" stroke="black" stroke-width="0.5"/>
<path d="M11.667 71.5227C19.667 70.0227 23.167 72.6512 26.167 74.1512M13.167 74.5227L30.667 74.0227" stroke="black" stroke-width="0.5"/>
<path d="M22.165 83.0225H31.665C33.665 83.0225 35.165 81.0225 34.665 80.0225M38.165 80.0225V84.5225" stroke="black" stroke-width="0.5"/>
<path d="M22.1669 81.5229C17.6669 81.5229 13.1669 82.0229 1.66694 79.0229V77.0229L5.66694 75.0229V73.5229L1.66694 73.023C1.16602 71.5227 0.166211 68.5227 2.16621 66.0227C1.66645 58.0227 2.16645 51.5227 4.16694 48.5224C36.6669 29.0228 58.6669 35.0229 84.6669 30.5229C162.667 -24.4772 244.667 12.5227 281.667 27.0229L295.167 29.0227L295.667 36.0227V39.0227C297.165 44.0227 298.5 48.5227 297.167 50.5227C299.667 51.5227 302.167 54.6894 302.167 56.5227L300.167 66.5227C300.619 77.3706 298.211 77.5949 288.879 77.9073C287.888 77.9405 285.819 77.9747 284.667 78.0227V79.5227L259.667 79.9537M22.1669 81.5229V84.5229H40.1653L39.6669 80.0229M22.1669 81.5229V80.0229H39.6669M39.6669 80.0229C36.6669 38.5229 90.1669 41.5229 86.6669 80.5229V83.0227H213.167C207.167 39.5227 261.667 39.5227 259.667 79.9537M259.165 79.9537H259.667" stroke="black"/>
</svg>
