<svg width="303" height="96" viewBox="0 0 303 96" fill="none" xmlns="http://www.w3.org/2000/svg">
<circle cx="62.2725" cy="74.0303" r="20.5" fill="#E56E90" stroke="black"/>
<circle cx="235.272" cy="74.0303" r="20.5" fill="#E56E90" stroke="black"/>
<path d="M132.271 12.5301L130.771 9.03013C170.771 1.03024 192.271 1.53027 231.271 13.0302L227.771 17.5302C207.771 9.53018 189.771 8.53018 173.771 8.03025C171.271 7.53025 167.271 7.53021 164.771 8.03013C154.771 8.03025 142.771 9.53025 132.271 12.5301Z" fill="#EDADBF" stroke="black" stroke-width="0.5"/>
<path d="M130.771 9.03032L130.271 7.53032C166.271 -3.46973 198.771 0.530148 234.271 9.53032L231.271 13.0303C191.271 0.530273 165.271 2.03027 130.771 9.03032Z" fill="#EDADBF" stroke="black" stroke-width="0.5"/>
<path d="M130.771 9.03038C182.271 -2.46964 210.771 7.5304 231.271 13.0304" stroke="black" stroke-width="0.5"/>
<path d="M170.272 30.0303L173.772 8.03027C207.272 9.03027 218.772 14.5303 223.272 16.0303L225.755 28.0303C198.765 28.0309 181.27 29.5304 170.272 30.0303Z" fill="#EDADBF"/>
<path d="M226.272 30.5303L223.272 16.0303C218.772 14.5303 207.272 9.03027 173.772 8.03027L170.272 30.0303C181.272 29.5303 198.772 28.0303 225.772 28.0303" stroke="black" stroke-width="0.5"/>
<path d="M164.772 8.03027C131.772 9.03027 111.772 18.0303 92.7725 35.5303L95.2725 33.5303L159.272 30.5303L164.772 8.03027Z" fill="#EDADBF" stroke="black" stroke-width="0.5"/>
<path d="M239.271 22.5303C235.604 19.8636 229.771 17.5303 223.271 16.0303L225.771 28.0303H232.271C235.271 26.5303 238.271 24.299 239.271 22.5303Z" fill="#EDADBF" stroke="black" stroke-width="0.5"/>
<path d="M96.2725 78.5303H163.272L197.772 77.0303H212.272L212.772 82.5303H198.772H97.7725H86.2725V78.5303H96.2725Z" fill="#EDADBF"/>
<path d="M96.2725 78.5303H163.272L197.772 77.0303M96.2725 78.5303C96.2725 80.0303 96.7725 81.0303 97.7725 82.5303M96.2725 78.5303H86.2725V82.5303H97.7725M197.772 77.0303L198.772 82.5303M197.772 77.0303H212.272L212.772 82.5303H198.772M198.772 82.5303H97.7725" stroke="black" stroke-width="0.5"/>
<path d="M96.2716 78.5303C91.7725 74.0303 88.7725 52.0303 92.7716 35.5303L164.772 31.5303C160.772 36.5303 159.772 70.5303 163.272 78.5303H96.2716Z" fill="#EDADBF" stroke="black" stroke-width="0.5"/>
<path d="M228.272 30.5303L164.772 31.5303C160.773 36.5303 159.773 70.5303 163.272 78.5303L197.772 77.0303C202.272 75.5303 208.772 70.0303 228.272 30.5303Z" fill="#EDADBF" stroke="black" stroke-width="0.5"/>
<path d="M170.272 30.0303C165.772 30.5303 162.272 30.5303 159.272 30.5303L164.772 8.03035C167.772 7.53027 170.772 7.53027 173.772 8.03035L170.272 30.0303Z" fill="#EDADBF" stroke="black" stroke-width="0.5"/>
<path d="M98.7725 32.0305C103.272 37.5305 110.272 34.0305 114.272 32.5305C115.272 17.0304 102.272 25.0304 98.7725 32.0305Z" fill="#EDADBF" stroke="black" stroke-width="0.5"/>
<path d="M234.271 9.53027L231.271 13.0303C248.271 18.5303 258.771 21.5303 271.271 28.0303H272.771L280.771 26.5303C265.771 20.0303 258.271 17.5303 234.271 9.53027Z" fill="#EDADBF" stroke="black" stroke-width="0.5"/>
<path d="M271.271 28.0303C260.771 22.5303 241.771 16.0303 231.271 13.0303L229.271 15.5303L244.271 23.0303C242.771 25.5303 238.771 27.5303 232.771 30.2303C244.771 29.5303 261.771 28.5303 271.271 28.0303Z" fill="#EDADBF" stroke="black" stroke-width="0.5"/>
<path d="M276.772 34.3303L282.771 32.0303L272.271 28.0303L228.271 30.5303C220.771 45.5303 205.771 76.0303 197.771 77.0303H212.271C210.771 66.0303 220.271 42.5303 245.272 51.5303C255.772 46.0303 265.772 40.5303 276.772 34.3303Z" fill="#EDADBF" stroke="black" stroke-width="0.5"/>
<path d="M277.771 34.0303C265.771 40.5303 255.771 46.0303 245.271 51.5303C249.771 54.5303 260.271 60.5303 259.271 79.5303L284.271 79.0303V77.5303C292.771 76.5303 301.271 80.0303 299.771 66.0303L301.771 56.0303C301.771 54.5303 299.271 50.5303 296.771 50.0303C298.271 47.5303 295.271 38.5303 295.271 38.5303V37.0303L291.271 34.0303L286.271 32.5303L282.771 32.0303L277.771 34.0303Z" fill="#EDADBF" stroke="black" stroke-width="0.5"/>
<path d="M280.771 26.5303L272.271 28.0303L282.771 32.0303C292.271 33.0303 291.269 34.5303 295.265 36.9505L294.771 28.5303L280.771 26.5303Z" fill="#EDADBF"/>
<path d="M295.271 37.0303L295.265 36.9505M295.265 36.9505L294.771 28.5303L280.771 26.5303L272.271 28.0303L282.771 32.0303C292.271 33.0303 291.269 34.5303 295.265 36.9505Z" stroke="black" stroke-width="0.5"/>
<path d="M293.772 36.5305C293.272 34.0304 282.272 33.8303 276.772 34.3303" stroke="black" stroke-width="0.5"/>
<path d="M299.772 66.5303L260.272 68.5303C259.772 63.5303 257.606 59.3636 255.772 57.5303L301.772 55.0303M300.272 52.5303C289.272 51.0303 278.272 46.2303 266.272 40.2303M228.272 30.5303L272.272 28.0303L280.772 26.5303" stroke="black" stroke-width="0.5"/>
<path d="M290.272 40.5303C290.272 38.5303 289.272 34.5303 285.772 32.5303C287.993 32.5303 291.37 33.5707 293.881 35.9403C294.345 37.4703 293.272 41.0303 290.231 42.5303C290.217 41.94 290.272 41.2546 290.272 40.5303Z" fill="#EDADBF"/>
<path d="M272.272 43.0303C279.268 43.3801 285.285 43.4851 290.666 44.0303M297.272 45.0303C295.169 44.5796 292.976 44.2644 290.666 44.0303M295.272 37.5303C294.855 36.9451 294.385 36.4159 293.881 35.9403M290.666 44.0303C290.339 43.6855 290.245 43.1625 290.231 42.5303M290.231 42.5303C290.217 41.94 290.272 41.2546 290.272 40.5303C290.272 38.5303 289.272 34.5303 285.772 32.5303C287.993 32.5303 291.37 33.5707 293.881 35.9403M290.231 42.5303C293.272 41.0303 294.345 37.4703 293.881 35.9403" stroke="black" stroke-width="0.5"/>
<path d="M290.272 40.5303C285.772 40.5303 283.772 36.5303 282.772 34.0303" stroke="black" stroke-width="0.5"/>
<path d="M132.271 12.6302C118.771 16.6302 106.771 22.5303 92.7705 35.5303C99.7705 23.5303 115.271 14.0303 130.771 9.03027L132.271 12.6302Z" fill="#EFC7D3" stroke="black" stroke-width="0.5"/>
<path d="M130.771 9.03027C110.771 14.7043 92.7705 32.0303 84.7705 30.0303C97.7705 20.5303 113.771 12.0303 130.271 7.53027L130.771 9.03027Z" fill="#EFC7D3" stroke="black" stroke-width="0.5"/>
<path d="M9.77118 48.0302H3.77118C1.27051 52.0302 1.27051 62.0302 1.77118 65.5302C0.270508 66.5302 0.271105 71.0302 1.27118 72.5302L5.27118 73.0302V74.5302L1.27118 76.5302V78.5302C5.27118 79.5302 13.7712 81.5302 21.7712 81.0302V79.5302H39.2712C38.6045 71.0302 40.2712 60.5302 49.2712 53.5302C46.7712 49.5302 39.7712 45.0302 36.7712 44.5302C26.7712 43.5302 11.7712 46.0302 9.77118 48.0302Z" fill="#EFC7D3" stroke="black" stroke-width="0.5"/>
<path d="M92.7725 35.5303C74.9391 36.3636 43.2725 41.2303 32.7725 44.2303L36.7725 44.5303C41.7725 46.0303 47.2725 50.3636 49.2725 53.5303C62.2715 44.0303 87.7715 51.0303 86.2715 78.5303H96.2715C89.2715 67.5303 90.2715 45.5303 92.7725 35.5303Z" fill="#EFC7D3" stroke="black" stroke-width="0.5"/>
<path d="M9.77051 48.0303H3.77051C36.2707 28.5302 58.2708 34.5303 84.2705 30.0303L93.2708 35.5303C76.2708 36.5303 47.2705 40.0303 33.2705 44.2303C25.2705 44.0303 11.2705 46.0303 9.77051 48.0303Z" fill="#EFC7D3" stroke="black" stroke-width="0.5"/>
<path d="M36.772 44.5303C29.272 43.5303 12.272 45.5303 9.77196 48.0303C8.97196 50.4303 12.1053 53.3636 13.772 54.5303C23.272 56.0303 36.772 50.0303 36.772 44.5303Z" fill="#EFC7D3" stroke="black" stroke-width="0.5"/>
<path d="M3.7712 48.0303C10.7712 49.0303 4.7712 59.5303 1.7712 64.5303C1.27113 57.5303 1.771 52.0303 3.7712 48.0303Z" fill="#EFC7D3" stroke="black" stroke-width="0.5"/>
<path d="M21.7705 84.0303V79.5303H39.2705L39.7705 84.0303H21.7705Z" fill="#EFC7D3" stroke="black" stroke-width="0.5"/>
<path d="M2.27246 65.5303C3.77246 68.0303 5.77246 71.1969 5.27246 73.0303M21.7725 79.5303C11.2725 80.0303 6.77246 76.0303 7.77246 72.5303C8.27246 72.0303 9.77246 70.5303 10.7725 70.5303" stroke="black" stroke-width="0.5"/>
<path d="M31.7725 74.5304C29.2725 70.5304 23.7725 65.5305 20.7725 64.0305C19.0224 63.5305 16.3973 63.6555 13.6472 64.0305C12.0223 65.3638 10.7725 68.5304 11.2725 71.5304C11.2725 72.6971 12.5799 75.0304 15.2725 75.0304C19.7725 75.0304 26.7725 75.5304 31.7725 74.5304Z" fill="#EFC7D3"/>
<path d="M5.77246 65.5305C8.0224 65.0304 10.8973 64.4055 13.6472 64.0305M13.6472 64.0305C16.3973 63.6555 19.0224 63.5305 20.7725 64.0305C23.7725 65.5305 29.2725 70.5304 31.7725 74.5304C26.7725 75.5304 19.7725 75.0304 15.2725 75.0304C12.5799 75.0304 11.2725 72.6971 11.2725 71.5304C10.7725 68.5304 12.0223 65.3638 13.6472 64.0305Z" stroke="black" stroke-width="0.5"/>
<path d="M11.2725 71.0305C19.2725 69.5305 22.7725 72.159 25.7725 73.659M12.7725 74.0305L30.2725 73.5305" stroke="black" stroke-width="0.5"/>
<path d="M21.7705 82.5303H31.2705C33.2705 82.5303 34.7705 80.5303 34.2705 79.5303M37.7705 79.5303V84.0303" stroke="black" stroke-width="0.5"/>
<path d="M21.7724 81.0305C17.2724 81.0305 12.7724 81.5305 1.27241 78.5305V76.5305L5.27241 74.5305V73.0305L1.27241 72.5305C0.771484 71.0303 -0.22832 68.0303 1.77168 65.5303C1.27192 57.5303 1.77192 51.0303 3.77241 48.03C36.2724 28.5304 58.2724 34.5305 84.2724 30.0305C162.272 -24.9697 244.272 12.0303 281.272 26.5305L294.772 28.5303L295.272 35.5303V38.5303C296.771 43.5303 298.106 48.0303 296.772 50.0303C299.272 51.0303 301.772 54.1969 301.772 56.0303L299.772 66.0303C300.224 76.8782 297.816 77.1025 288.485 77.4149C287.494 77.4481 285.425 77.4823 284.272 77.5303V79.0303L259.272 79.4613M21.7724 81.0305V84.0305H39.7708L39.2724 79.5305M21.7724 81.0305V79.5305H39.2724M39.2724 79.5305C36.2724 38.0305 89.7724 41.0305 86.2724 80.0305V82.5303H212.772C206.772 39.0303 261.272 39.0303 259.272 79.4613M258.771 79.4613H259.272" stroke="black"/>
</svg>
