<svg width="303" height="96" viewBox="0 0 303 96" fill="none" xmlns="http://www.w3.org/2000/svg">
<circle cx="62.2725" cy="74.0151" r="20.5" fill="#E56E90" stroke="black"/>
<circle cx="235.272" cy="74.0151" r="20.5" fill="#E56E90" stroke="black"/>
<path d="M132.271 12.515L130.771 9.01499C170.771 1.0151 192.271 1.51514 231.271 13.0151L227.771 17.5151C207.771 9.51505 189.771 8.51505 173.771 8.01511C171.271 7.51511 167.271 7.51508 164.771 8.01499C154.771 8.01511 142.771 9.51511 132.271 12.515Z" fill="#EFC7D3" stroke="black" stroke-width="0.5"/>
<path d="M130.771 9.01518L130.271 7.51518C166.271 -3.48486 198.771 0.515011 234.271 9.51518L231.271 13.0152C191.271 0.515137 165.271 2.01514 130.771 9.01518Z" fill="#EFC7D3" stroke="black" stroke-width="0.5"/>
<path d="M130.771 9.01512C182.271 -2.4849 210.771 7.51514 231.271 13.0151" stroke="black" stroke-width="0.5"/>
<path d="M170.272 30.0151L173.772 8.01514C207.272 9.01514 218.772 14.5151 223.272 16.0151L225.755 28.0151C198.765 28.0158 181.27 29.5152 170.272 30.0151Z" fill="#EFC7D3"/>
<path d="M226.272 30.5151L223.272 16.0151C218.772 14.5151 207.272 9.01514 173.772 8.01514L170.272 30.0151C181.272 29.5151 198.772 28.0151 225.772 28.0151" stroke="black" stroke-width="0.5"/>
<path d="M164.772 8.01514C131.772 9.01514 111.772 18.0151 92.7725 35.5151L95.2725 33.5151L159.272 30.5151L164.772 8.01514Z" fill="#EFC7D3" stroke="black" stroke-width="0.5"/>
<path d="M239.271 22.5151C235.604 19.8485 229.771 17.5151 223.271 16.0151L225.771 28.0151H232.271C235.271 26.5151 238.271 24.2839 239.271 22.5151Z" fill="#EFC7D3" stroke="black" stroke-width="0.5"/>
<path d="M96.2725 78.5151H163.272L197.772 77.0151H212.272L212.772 82.5151H198.772H97.7725H86.2725V78.5151H96.2725Z" fill="#EFC7D3"/>
<path d="M96.2725 78.5151H163.272L197.772 77.0151M96.2725 78.5151C96.2725 80.0151 96.7725 81.0151 97.7725 82.5151M96.2725 78.5151H86.2725V82.5151H97.7725M197.772 77.0151L198.772 82.5151M197.772 77.0151H212.272L212.772 82.5151H198.772M198.772 82.5151H97.7725" stroke="black" stroke-width="0.5"/>
<path d="M96.2716 78.5151C91.7725 74.0151 88.7725 52.0151 92.7716 35.5151L164.772 31.5151C160.772 36.5151 159.772 70.5151 163.272 78.5151H96.2716Z" fill="#EFC7D3" stroke="black" stroke-width="0.5"/>
<path d="M228.272 30.5151L164.772 31.5151C160.773 36.5151 159.773 70.5151 163.272 78.5151L197.772 77.0151C202.272 75.5151 208.772 70.0151 228.272 30.5151Z" fill="#EFC7D3" stroke="black" stroke-width="0.5"/>
<path d="M170.272 30.0152C165.772 30.5152 162.272 30.5152 159.272 30.5152L164.772 8.01521C167.772 7.51514 170.772 7.51514 173.772 8.01521L170.272 30.0152Z" fill="#EFC7D3" stroke="black" stroke-width="0.5"/>
<path d="M98.7725 32.0153C103.272 37.5153 110.272 34.0153 114.272 32.5153C115.272 17.0152 102.272 25.0151 98.7725 32.0153Z" fill="#EFC7D3" stroke="black" stroke-width="0.5"/>
<path d="M234.271 9.51514L231.271 13.0151C248.271 18.5151 258.771 21.5151 271.271 28.0151H272.771L280.771 26.5151C265.771 20.0151 258.271 17.5151 234.271 9.51514Z" fill="#EDADBF" stroke="black" stroke-width="0.5"/>
<path d="M271.271 28.0151C260.771 22.5151 241.771 16.0151 231.271 13.0151L229.271 15.5151L244.271 23.0151C242.771 25.5151 238.771 27.5151 232.771 30.2151C244.771 29.5151 261.771 28.5151 271.271 28.0151Z" fill="#EDADBF" stroke="black" stroke-width="0.5"/>
<path d="M276.772 34.3151L282.771 32.0151L272.271 28.0151L228.271 30.5151C220.771 45.5151 205.771 76.0151 197.771 77.0151H212.271C210.771 66.0151 220.271 42.5151 245.272 51.5151C255.772 46.0151 265.772 40.5151 276.772 34.3151Z" fill="#EDADBF" stroke="black" stroke-width="0.5"/>
<path d="M277.771 34.0152C265.771 40.5152 255.771 46.0152 245.271 51.5152C249.771 54.5151 260.271 60.5151 259.271 79.5151L284.271 79.0151V77.5151C292.771 76.5151 301.271 80.0151 299.771 66.0151L301.771 56.0151C301.771 54.5151 299.271 50.5151 296.771 50.0151C298.271 47.5151 295.271 38.5151 295.271 38.5151V37.0151L291.271 34.0151L286.271 32.5151L282.771 32.0151L277.771 34.0152Z" fill="#EDADBF" stroke="black" stroke-width="0.5"/>
<path d="M280.771 26.5151L272.271 28.0151L282.771 32.0151C292.271 33.0151 291.269 34.5151 295.265 36.9353L294.771 28.5151L280.771 26.5151Z" fill="#EDADBF"/>
<path d="M295.271 37.0151L295.265 36.9353M295.265 36.9353L294.771 28.5151L280.771 26.5151L272.271 28.0151L282.771 32.0151C292.271 33.0151 291.269 34.5151 295.265 36.9353Z" stroke="black" stroke-width="0.5"/>
<path d="M293.772 36.5153C293.272 34.0152 282.272 33.8151 276.772 34.3151" stroke="black" stroke-width="0.5"/>
<path d="M299.772 66.5151L260.272 68.5151C259.772 63.5151 257.606 59.3485 255.772 57.5151L301.772 55.0151M300.272 52.5151C289.272 51.0151 278.272 46.2151 266.272 40.2151M228.272 30.5151L272.272 28.0151L280.772 26.5151" stroke="black" stroke-width="0.5"/>
<path d="M290.272 40.5151C290.272 38.5151 289.272 34.5151 285.772 32.5151C287.993 32.5151 291.37 33.5555 293.881 35.9251C294.345 37.4551 293.272 41.0151 290.231 42.5151C290.217 41.9249 290.272 41.2394 290.272 40.5151Z" fill="#EDADBF"/>
<path d="M272.272 43.0151C279.268 43.3649 285.285 43.47 290.666 44.0151M297.272 45.0151C295.169 44.5645 292.976 44.2492 290.666 44.0151M295.272 37.5151C294.855 36.93 294.385 36.4008 293.881 35.9251M290.666 44.0151C290.339 43.6704 290.245 43.1473 290.231 42.5151M290.231 42.5151C290.217 41.9249 290.272 41.2394 290.272 40.5151C290.272 38.5151 289.272 34.5151 285.772 32.5151C287.993 32.5151 291.37 33.5555 293.881 35.9251M290.231 42.5151C293.272 41.0151 294.345 37.4551 293.881 35.9251" stroke="black" stroke-width="0.5"/>
<path d="M290.272 40.5151C285.772 40.5151 283.772 36.5151 282.772 34.0151" stroke="black" stroke-width="0.5"/>
<path d="M132.271 12.6151C118.771 16.6151 106.771 22.5151 92.7705 35.5151C99.7705 23.5151 115.271 14.0151 130.771 9.01514L132.271 12.6151Z" stroke="black" stroke-width="0.5"/>
<path d="M130.771 9.01514C110.771 14.6892 92.7705 32.0151 84.7705 30.0151C97.7705 20.5151 113.771 12.0151 130.271 7.51514L130.771 9.01514Z" stroke="black" stroke-width="0.5"/>
<path d="M9.77118 48.0151H3.77118C1.27051 52.0151 1.27051 62.0151 1.77118 65.5151C0.270508 66.5151 0.271105 71.0151 1.27118 72.5151L5.27118 73.0151V74.5151L1.27118 76.5151V78.5151C5.27118 79.5151 13.7712 81.5151 21.7712 81.0151V79.5151H39.2712C38.6045 71.0151 40.2712 60.5151 49.2712 53.5151C46.7712 49.5151 39.7712 45.0151 36.7712 44.5151C26.7712 43.5151 11.7712 46.0151 9.77118 48.0151Z" stroke="black" stroke-width="0.5"/>
<path d="M92.7725 35.5151C74.9391 36.3485 43.2725 41.2151 32.7725 44.2151L36.7725 44.5151C41.7725 46.0151 47.2725 50.3485 49.2725 53.5151C62.2715 44.0151 87.7715 51.0151 86.2715 78.5151H96.2715C89.2715 67.5151 90.2715 45.5151 92.7725 35.5151Z" stroke="black" stroke-width="0.5"/>
<path d="M9.77051 48.0152H3.77051C36.2707 28.5151 58.2708 34.5151 84.2705 30.0151L93.2708 35.5151C76.2708 36.5151 47.2705 40.0151 33.2705 44.2151C25.2705 44.0151 11.2705 46.0151 9.77051 48.0152Z" stroke="black" stroke-width="0.5"/>
<path d="M36.772 44.5152C29.272 43.5151 12.272 45.5151 9.77196 48.0152C8.97196 50.4152 12.1053 53.3485 13.772 54.5151C23.272 56.0151 36.772 50.0151 36.772 44.5152Z" stroke="black" stroke-width="0.5"/>
<path d="M3.7712 48.0151C10.7712 49.0151 4.7712 59.5151 1.7712 64.5151C1.27113 57.5151 1.771 52.0151 3.7712 48.0151Z" stroke="black" stroke-width="0.5"/>
<path d="M21.7705 84.0151V79.5151H39.2705L39.7705 84.0151H21.7705Z" stroke="black" stroke-width="0.5"/>
<path d="M2.27246 65.5151C3.77246 68.0151 5.77246 71.1818 5.27246 73.0151M21.7725 79.5151C11.2725 80.0151 6.77246 76.0151 7.77246 72.5151C8.27246 72.0151 9.77246 70.5151 10.7725 70.5151" stroke="black" stroke-width="0.5"/>
<path d="M5.77246 65.5152C8.0224 65.0152 10.8973 64.3902 13.6472 64.0152M13.6472 64.0152C16.3973 63.6402 19.0224 63.5152 20.7725 64.0152C23.7725 65.5152 29.2725 70.5151 31.7725 74.5151C26.7725 75.5151 19.7725 75.0151 15.2725 75.0151C12.5799 75.0151 11.2725 72.6818 11.2725 71.5151C10.7725 68.5151 12.0223 65.3485 13.6472 64.0152Z" stroke="black" stroke-width="0.5"/>
<path d="M11.2725 71.0152C19.2725 69.5153 22.7725 72.1437 25.7725 73.6437M12.7725 74.0153L30.2725 73.5153" stroke="black" stroke-width="0.5"/>
<path d="M21.7705 82.5151H31.2705C33.2705 82.5151 34.7705 80.5151 34.2705 79.5151M37.7705 79.5151V84.0151" stroke="black" stroke-width="0.5"/>
<path d="M21.7724 81.0154C17.2724 81.0154 12.7724 81.5154 1.27241 78.5154V76.5154L5.27241 74.5154V73.0154L1.27241 72.5154C0.771484 71.0151 -0.22832 68.0151 1.77168 65.5151C1.27192 57.5151 1.77192 51.0151 3.77241 48.0149C36.2724 28.5153 58.2724 34.5153 84.2724 30.0153C162.272 -24.9848 244.272 12.0151 281.272 26.5153L294.772 28.5151L295.272 35.5151V38.5151C296.771 43.5151 298.106 48.0151 296.772 50.0151C299.272 51.0151 301.772 54.1818 301.772 56.0151L299.772 66.0151C300.224 76.863 297.816 77.0873 288.485 77.3998C287.494 77.433 285.425 77.4671 284.272 77.5151V79.0151L259.272 79.4462M21.7724 81.0154V84.0154H39.7708L39.2724 79.5154M21.7724 81.0154V79.5154H39.2724M39.2724 79.5154C36.2724 38.0154 89.7724 41.0154 86.2724 80.0154V82.5151H212.772C206.772 39.0151 261.272 39.0151 259.272 79.4462M258.771 79.4462H259.272" stroke="black"/>
</svg>
