<svg width="304" height="96" viewBox="0 0 304 96" fill="none" xmlns="http://www.w3.org/2000/svg">
<circle cx="63.0938" cy="74.3535" r="20.5" fill="#EDADBF" stroke="black"/>
<circle cx="236.094" cy="74.3535" r="20.5" fill="#EDADBF" stroke="black"/>
<path d="M133.092 12.8534L131.592 9.35337C171.592 1.35348 193.092 1.85352 232.092 13.3535L228.592 17.8535C208.592 9.85343 190.592 8.85342 174.592 8.35349C172.092 7.85349 168.092 7.85345 165.592 8.35337C155.592 8.35349 143.592 9.85349 133.092 12.8534Z" fill="#EFC7D3" stroke="black" stroke-width="0.5"/>
<path d="M131.592 9.35356L131.092 7.85356C167.092 -3.14648 199.592 0.85339 235.092 9.85356L232.092 13.3536C192.092 0.853516 166.092 2.35352 131.592 9.35356Z" fill="#EFC7D3" stroke="black" stroke-width="0.5"/>
<path d="M131.592 9.3535C183.092 -2.14652 211.592 7.85352 232.092 13.3535" stroke="black" stroke-width="0.5"/>
<path d="M171.094 30.3535L174.594 8.35352C208.094 9.35352 219.594 14.8535 224.094 16.3535L226.577 28.3535C199.586 28.3542 182.091 29.8536 171.094 30.3535Z" fill="#EFC7D3"/>
<path d="M227.094 30.8535L224.094 16.3535C219.594 14.8535 208.094 9.35352 174.594 8.35352L171.094 30.3535C182.094 29.8535 199.594 28.3535 226.594 28.3535" stroke="black" stroke-width="0.5"/>
<path d="M165.594 8.35352C132.594 9.35352 112.594 18.3535 93.5938 35.8535L96.0938 33.8535L160.094 30.8535L165.594 8.35352Z" fill="#EFC7D3" stroke="black" stroke-width="0.5"/>
<path d="M240.092 22.8535C236.425 20.1868 230.592 17.8535 224.092 16.3535L226.592 28.3535H233.092C236.092 26.8535 239.092 24.6223 240.092 22.8535Z" fill="#EFC7D3" stroke="black" stroke-width="0.5"/>
<path d="M97.0938 78.8535H164.094L198.594 77.3535H213.094L213.594 82.8535H199.594H98.5938H87.0938V78.8535H97.0938Z" fill="#EFC7D3"/>
<path d="M97.0938 78.8535H164.094L198.594 77.3535M97.0938 78.8535C97.0938 80.3535 97.5938 81.3535 98.5938 82.8535M97.0938 78.8535H87.0938V82.8535H98.5938M198.594 77.3535L199.594 82.8535M198.594 77.3535H213.094L213.594 82.8535H199.594M199.594 82.8535H98.5938" stroke="black" stroke-width="0.5"/>
<path d="M97.0929 78.8535C92.5937 74.3535 89.5938 52.3535 93.5929 35.8535L165.594 31.8535C161.594 36.8535 160.594 70.8535 164.094 78.8535H97.0929Z" fill="#EFC7D3" stroke="black" stroke-width="0.5"/>
<path d="M229.094 30.8535L165.594 31.8535C161.594 36.8535 160.594 70.8535 164.094 78.8535L198.594 77.3535C203.094 75.8535 209.594 70.3535 229.094 30.8535Z" fill="#EFC7D3" stroke="black" stroke-width="0.5"/>
<path d="M171.094 30.3536C166.594 30.8536 163.094 30.8536 160.094 30.8536L165.594 8.35359C168.594 7.85352 171.594 7.85352 174.594 8.35359L171.094 30.3536Z" fill="#EFC7D3" stroke="black" stroke-width="0.5"/>
<path d="M99.5938 32.3537C104.094 37.8537 111.094 34.3537 115.094 32.8537C116.094 17.3535 103.094 25.3535 99.5938 32.3537Z" fill="#EFC7D3" stroke="black" stroke-width="0.5"/>
<path d="M235.092 9.85352L232.092 13.3535C249.092 18.8535 259.592 21.8535 272.092 28.3535H273.592L281.592 26.8535C266.592 20.3535 259.092 17.8535 235.092 9.85352Z" stroke="black" stroke-width="0.5"/>
<path d="M272.092 28.3535C261.592 22.8535 242.592 16.3535 232.092 13.3535L230.092 15.8535L245.092 23.3535C243.592 25.8535 239.592 27.8535 233.592 30.5535C245.592 29.8535 262.592 28.8535 272.092 28.3535Z" stroke="black" stroke-width="0.5"/>
<path d="M277.594 34.6535L283.592 32.3535L273.093 28.3535L229.093 30.8535C221.593 45.8535 206.593 76.3535 198.593 77.3535H213.093C211.593 66.3535 221.093 42.8535 246.094 51.8535C256.594 46.3535 266.594 40.8535 277.594 34.6535Z" stroke="black" stroke-width="0.5"/>
<path d="M278.592 34.3535C266.592 40.8535 256.592 46.3535 246.092 51.8535C250.592 54.8535 261.092 60.8535 260.092 79.8535L285.092 79.3535V77.8535C293.592 76.8535 302.092 80.3535 300.592 66.3535L302.592 56.3535C302.592 54.8535 300.092 50.8535 297.592 50.3535C299.092 47.8535 296.092 38.8535 296.092 38.8535V37.3535L292.092 34.3535L287.092 32.8535L283.592 32.3535L278.592 34.3535Z" stroke="black" stroke-width="0.5"/>
<path d="M296.092 37.3535L296.086 37.2737M296.086 37.2737L295.592 28.8535L281.592 26.8535L273.092 28.3535L283.592 32.3535C293.092 33.3535 292.091 34.8535 296.086 37.2737Z" stroke="black" stroke-width="0.5"/>
<path d="M294.594 36.8537C294.094 34.3536 283.094 34.1535 277.594 34.6535" stroke="black" stroke-width="0.5"/>
<path d="M300.594 66.8535L261.094 68.8535C260.594 63.8535 258.427 59.6868 256.594 57.8535L302.594 55.3535M301.094 52.8535C290.094 51.3535 279.094 46.5535 267.094 40.5535M229.094 30.8535L273.094 28.3535L281.594 26.8535" stroke="black" stroke-width="0.5"/>
<path d="M273.094 43.3535C280.089 43.7033 286.106 43.8084 291.487 44.3535M298.094 45.3535C295.991 44.9029 293.798 44.5876 291.487 44.3535M296.094 37.8535C295.676 37.2684 295.207 36.7392 294.703 36.2635M291.487 44.3535C291.161 44.0088 291.067 43.4857 291.052 42.8535M291.052 42.8535C291.038 42.2632 291.094 41.5778 291.094 40.8535C291.094 38.8535 290.094 34.8535 286.594 32.8535C288.815 32.8535 292.191 33.8939 294.703 36.2635M291.052 42.8535C294.094 41.3535 295.166 37.7935 294.703 36.2635" stroke="black" stroke-width="0.5"/>
<path d="M291.094 40.8535C286.594 40.8535 284.594 36.8535 283.594 34.3535" stroke="black" stroke-width="0.5"/>
<path d="M133.092 12.9535C119.592 16.9535 107.592 22.8535 93.5923 35.8535C100.592 23.8535 116.092 14.3535 131.592 9.35352L133.092 12.9535Z" fill="#EDADBF" stroke="black" stroke-width="0.5"/>
<path d="M131.592 9.35352C111.592 15.0276 93.5923 32.3535 85.5923 30.3535C98.5923 20.8535 114.592 12.3535 131.092 7.85352L131.592 9.35352Z" fill="#EDADBF" stroke="black" stroke-width="0.5"/>
<path d="M10.593 48.3535H4.59295C2.09229 52.3535 2.09229 62.3535 2.59295 65.8535C1.09229 66.8535 1.09288 71.3535 2.09295 72.8535L6.09295 73.3535V74.8535L2.09295 76.8535V78.8535C6.09295 79.8535 14.593 81.8535 22.593 81.3535V79.8535H40.0929C39.4263 71.3535 41.0929 60.8535 50.0929 53.8535C47.5929 49.8535 40.5929 45.3535 37.5929 44.8535C27.5929 43.8535 12.593 46.3535 10.593 48.3535Z" fill="#EDADBF" stroke="black" stroke-width="0.5"/>
<path d="M93.5938 35.8535C75.7604 36.6868 44.0938 41.5535 33.5938 44.5535L37.5938 44.8535C42.5938 46.3535 48.0938 50.6868 50.0938 53.8535C63.0928 44.3535 88.5928 51.3535 87.0928 78.8535H97.0928C90.0928 67.8535 91.0928 45.8535 93.5938 35.8535Z" fill="#EDADBF" stroke="black" stroke-width="0.5"/>
<path d="M10.5918 48.3536H4.5918C37.092 28.8535 59.092 34.8535 85.0918 30.3535L94.092 35.8535C77.092 36.8535 48.0918 40.3535 34.0918 44.5535C26.0918 44.3535 12.0918 46.3535 10.5918 48.3536Z" fill="#EDADBF" stroke="black" stroke-width="0.5"/>
<path d="M37.5937 44.8536C30.0937 43.8535 13.0937 45.8535 10.5937 48.3536C9.79374 50.7535 12.9271 53.6868 14.5937 54.8535C24.0938 56.3535 37.5937 50.3535 37.5937 44.8536Z" fill="#EDADBF" stroke="black" stroke-width="0.5"/>
<path d="M4.59298 48.3535C11.593 49.3535 5.59298 59.8535 2.59298 64.8535C2.09291 57.8535 2.59277 52.3535 4.59298 48.3535Z" fill="#EDADBF" stroke="black" stroke-width="0.5"/>
<path d="M22.5923 84.3535V79.8535H40.0923L40.5923 84.3535H22.5923Z" fill="#EDADBF" stroke="black" stroke-width="0.5"/>
<path d="M3.09375 65.8535C4.59375 68.3535 6.59375 71.5202 6.09375 73.3535M22.5938 79.8535C12.0938 80.3535 7.59375 76.3535 8.59375 72.8535C9.09375 72.3535 10.5938 70.8535 11.5938 70.8535" stroke="black" stroke-width="0.5"/>
<path d="M32.5938 74.8535C30.0938 70.8535 24.5938 65.8536 21.5938 64.3536C19.8437 63.8536 17.2186 63.9786 14.4685 64.3536C12.8436 65.6869 11.5938 68.8535 12.0938 71.8535C12.0938 73.0202 13.4012 75.3535 16.0938 75.3535C20.5938 75.3535 27.5938 75.8535 32.5938 74.8535Z" fill="#EDADBF"/>
<path d="M6.59375 65.8536C8.84369 65.3536 11.7186 64.7286 14.4685 64.3536M14.4685 64.3536C17.2186 63.9786 19.8437 63.8536 21.5938 64.3536C24.5938 65.8536 30.0938 70.8535 32.5938 74.8535C27.5938 75.8535 20.5938 75.3535 16.0938 75.3535C13.4012 75.3535 12.0938 73.0202 12.0938 71.8535C11.5938 68.8535 12.8436 65.6869 14.4685 64.3536Z" stroke="black" stroke-width="0.5"/>
<path d="M12.0938 71.3536C20.0938 69.8536 23.5938 72.4821 26.5938 73.9821M13.5938 74.3536L31.0938 73.8536" stroke="black" stroke-width="0.5"/>
<path d="M22.5918 82.8535H32.0918C34.0918 82.8535 35.5918 80.8535 35.0918 79.8535M38.5918 79.8535V84.3535" stroke="black" stroke-width="0.5"/>
<path d="M22.5937 81.3538C18.0937 81.3538 13.5937 81.8538 2.0937 78.8538V76.8538L6.0937 74.8538V73.3538L2.0937 72.8538C1.59277 71.3535 0.592969 68.3535 2.59296 65.8535C2.09321 57.8535 2.59321 51.3535 4.5937 48.3533C37.0937 28.8537 59.0937 34.8537 85.0937 30.3537C163.094 -24.6464 245.094 12.3535 282.094 26.8537L295.594 28.8535L296.094 35.8535V38.8535C297.592 43.8535 298.927 48.3535 297.594 50.3535C300.094 51.3535 302.594 54.5202 302.594 56.3535L300.594 66.3535C301.046 77.2014 298.638 77.4257 289.306 77.7382C288.315 77.7713 286.246 77.8055 285.094 77.8535V79.3535L260.094 79.7846M22.5937 81.3538V84.3538H40.592L40.0937 79.8538M22.5937 81.3538V79.8538H40.0937M40.0937 79.8538C37.0937 38.3538 90.5937 41.3538 87.0937 80.3538V82.8535H213.594C207.594 39.3535 262.094 39.3535 260.094 79.7846M259.592 79.7846H260.094" stroke="black"/>
</svg>
