<svg width="304" height="95" viewBox="0 0 304 95" fill="none" xmlns="http://www.w3.org/2000/svg">
<circle cx="63.0518" cy="73.6919" r="20.5" fill="#EDADBF" stroke="black"/>
<circle cx="236.052" cy="73.6919" r="20.5" fill="#EDADBF" stroke="black"/>
<path d="M133.05 12.1918L131.55 8.69175C171.55 0.691862 193.05 1.19189 232.05 12.6918L228.55 17.1918C208.55 9.1918 190.55 8.1918 174.55 7.69187C172.05 7.19187 168.05 7.19183 165.55 7.69175C155.55 7.69187 143.55 9.19187 133.05 12.1918Z" fill="#EFC7D3" stroke="black" stroke-width="0.5"/>
<path d="M131.55 8.69194L131.05 7.19194C167.05 -3.80811 199.55 0.191769 235.05 9.19194L232.05 12.6919C192.05 0.191895 166.05 1.69189 131.55 8.69194Z" fill="#EFC7D3" stroke="black" stroke-width="0.5"/>
<path d="M131.55 8.692C183.05 -2.80802 211.55 7.19202 232.05 12.692" stroke="black" stroke-width="0.5"/>
<path d="M171.052 29.6919L174.552 7.69189C208.052 8.69189 219.552 14.1919 224.052 15.6919L226.535 27.6919C199.544 27.6925 182.049 29.192 171.052 29.6919Z" fill="#EFC7D3"/>
<path d="M227.052 30.1919L224.052 15.6919C219.552 14.1919 208.052 8.69189 174.552 7.69189L171.052 29.6919C182.052 29.1919 199.552 27.6919 226.552 27.6919" stroke="black" stroke-width="0.5"/>
<path d="M165.552 7.69189C132.552 8.69189 112.552 17.6919 93.5518 35.1919L96.0518 33.1919L160.052 30.1919L165.552 7.69189Z" fill="#EFC7D3" stroke="black" stroke-width="0.5"/>
<path d="M240.05 22.1919C236.383 19.5252 230.55 17.1919 224.05 15.6919L226.55 27.6919H233.05C236.05 26.1919 239.05 23.9606 240.05 22.1919Z" fill="#EFC7D3" stroke="black" stroke-width="0.5"/>
<path d="M97.0518 78.1919H164.052L198.552 76.6919H213.052L213.552 82.1919H199.552H98.5518H87.0518V78.1919H97.0518Z" fill="#EFC7D3"/>
<path d="M97.0518 78.1919H164.052L198.552 76.6919M97.0518 78.1919C97.0518 79.6919 97.5518 80.6919 98.5518 82.1919M97.0518 78.1919H87.0518V82.1919H98.5518M198.552 76.6919L199.552 82.1919M198.552 76.6919H213.052L213.552 82.1919H199.552M199.552 82.1919H98.5518" stroke="black" stroke-width="0.5"/>
<path d="M97.0509 78.1919C92.5518 73.6919 89.5518 51.6919 93.5509 35.1919L165.552 31.1919C161.552 36.1919 160.552 70.1919 164.052 78.1919H97.0509Z" fill="#EFC7D3" stroke="black" stroke-width="0.5"/>
<path d="M229.052 30.1919L165.552 31.1919C161.552 36.1919 160.552 70.1919 164.052 78.1919L198.552 76.6919C203.052 75.1919 209.552 69.6919 229.052 30.1919Z" fill="#EFC7D3" stroke="black" stroke-width="0.5"/>
<path d="M171.052 29.692C166.552 30.192 163.052 30.192 160.052 30.192L165.552 7.69197C168.552 7.19189 171.552 7.19189 174.552 7.69197L171.052 29.692Z" fill="#EFC7D3" stroke="black" stroke-width="0.5"/>
<path d="M99.5518 31.6922C104.052 37.1922 111.052 33.6922 115.052 32.1922C116.052 16.692 103.052 24.692 99.5518 31.6922Z" fill="#EFC7D3" stroke="black" stroke-width="0.5"/>
<path d="M235.05 9.19189L232.05 12.6919C249.05 18.1919 259.55 21.1919 272.05 27.6919H273.55L281.55 26.1919C266.55 19.6919 259.05 17.1919 235.05 9.19189Z" fill="#E0426F" stroke="black" stroke-width="0.5"/>
<path d="M272.05 27.6919C261.55 22.1919 242.55 15.6919 232.05 12.6919L230.05 15.1919L245.05 22.6919C243.55 25.1919 239.55 27.1919 233.55 29.8919C245.55 29.1919 262.55 28.1919 272.05 27.6919Z" fill="#E0426F" stroke="black" stroke-width="0.5"/>
<path d="M277.552 33.9919L283.55 31.6919L273.051 27.6919L229.051 30.1919C221.551 45.1919 206.551 75.6919 198.551 76.6919H213.051C211.551 65.6919 221.051 42.1919 246.052 51.1919C256.552 45.6919 266.552 40.1919 277.552 33.9919Z" fill="#E0426F" stroke="black" stroke-width="0.5"/>
<path d="M278.55 33.6919C266.55 40.1919 256.55 45.6919 246.05 51.1919C250.55 54.1919 261.05 60.1919 260.05 79.1919L285.05 78.6919V77.1919C293.55 76.1919 302.05 79.6919 300.55 65.6919L302.55 55.6919C302.55 54.1919 300.05 50.1919 297.55 49.6919C299.05 47.1919 296.05 38.1919 296.05 38.1919V36.6919L292.05 33.6919L287.05 32.1919L283.55 31.6919L278.55 33.6919Z" fill="#E0426F" stroke="black" stroke-width="0.5"/>
<path d="M281.55 26.1919L273.05 27.6919L283.55 31.6919C293.05 32.6919 292.049 34.1919 296.044 36.6121L295.55 28.1919L281.55 26.1919Z" fill="#E0426F"/>
<path d="M296.05 36.6919L296.044 36.6121M296.044 36.6121L295.55 28.1919L281.55 26.1919L273.05 27.6919L283.55 31.6919C293.05 32.6919 292.049 34.1919 296.044 36.6121Z" stroke="black" stroke-width="0.5"/>
<path d="M294.552 36.1921C294.052 33.692 283.052 33.4919 277.552 33.9919" stroke="black" stroke-width="0.5"/>
<path d="M300.552 66.1919L261.052 68.1919C260.552 63.1919 258.385 59.0252 256.552 57.1919L302.552 54.6919M301.052 52.1919C290.052 50.6919 279.052 45.8919 267.052 39.8919M229.052 30.1919L273.052 27.6919L281.552 26.1919" stroke="black" stroke-width="0.5"/>
<path d="M291.052 40.1919C291.052 38.1919 290.052 34.1919 286.552 32.1919C288.773 32.1919 292.149 33.2323 294.661 35.6019C295.124 37.1319 294.052 40.6919 291.01 42.1919C290.996 41.6016 291.052 40.9162 291.052 40.1919Z" fill="#E0426F"/>
<path d="M273.052 42.6919C280.047 43.0417 286.064 43.1468 291.445 43.6919M298.052 44.6919C295.949 44.2413 293.756 43.926 291.445 43.6919M296.052 37.1919C295.634 36.6068 295.165 36.0775 294.661 35.6019M291.445 43.6919C291.119 43.3471 291.025 42.8241 291.01 42.1919M291.01 42.1919C290.996 41.6016 291.052 40.9162 291.052 40.1919C291.052 38.1919 290.052 34.1919 286.552 32.1919C288.773 32.1919 292.149 33.2323 294.661 35.6019M291.01 42.1919C294.052 40.6919 295.124 37.1319 294.661 35.6019" stroke="black" stroke-width="0.5"/>
<path d="M291.052 40.1919C286.552 40.1919 284.552 36.1919 283.552 33.6919" stroke="black" stroke-width="0.5"/>
<path d="M133.05 12.2919C119.55 16.2919 107.55 22.1919 93.5498 35.1919C100.55 23.1919 116.05 13.6919 131.55 8.69189L133.05 12.2919Z" fill="#E0426F" stroke="black" stroke-width="0.5"/>
<path d="M131.55 8.69189C111.55 14.3659 93.5498 31.6919 85.5498 29.6919C98.5498 20.1919 114.55 11.6919 131.05 7.19189L131.55 8.69189Z" fill="#E0426F" stroke="black" stroke-width="0.5"/>
<path d="M10.5505 47.6918H4.55047C2.0498 51.6918 2.0498 61.6918 2.55047 65.1918C1.0498 66.1918 1.0504 70.6918 2.05047 72.1918L6.05047 72.6918V74.1918L2.05047 76.1918V78.1918C6.05047 79.1918 14.5505 81.1918 22.5505 80.6918V79.1918H40.0505C39.3838 70.6918 41.0505 60.1918 50.0505 53.1918C47.5505 49.1918 40.5505 44.6918 37.5505 44.1918C27.5505 43.1918 12.5505 45.6918 10.5505 47.6918Z" fill="#E0426F" stroke="black" stroke-width="0.5"/>
<path d="M93.5518 35.1919C75.7184 36.0252 44.0518 40.8919 33.5518 43.8919L37.5518 44.1919C42.5518 45.6919 48.0518 50.0252 50.0518 53.1919C63.0508 43.6919 88.5508 50.6919 87.0508 78.1919H97.0508C90.0508 67.1919 91.0508 45.1919 93.5518 35.1919Z" fill="#E0426F" stroke="black" stroke-width="0.5"/>
<path d="M10.5498 47.6919H4.5498C37.05 28.1918 59.05 34.1919 85.0498 29.6919L94.05 35.1919C77.05 36.1919 48.0498 39.6919 34.0498 43.8919C26.0498 43.6919 12.0498 45.6919 10.5498 47.6919Z" fill="#E0426F" stroke="black" stroke-width="0.5"/>
<path d="M37.5513 44.192C30.0513 43.1919 13.0513 45.1919 10.5513 47.692C9.75126 50.0919 12.8846 53.0252 14.5513 54.1919C24.0513 55.6919 37.5513 49.6919 37.5513 44.192Z" fill="#E0426F" stroke="black" stroke-width="0.5"/>
<path d="M4.5505 47.6919C11.5505 48.6919 5.5505 59.1919 2.5505 64.1919C2.05043 57.1919 2.55029 51.6919 4.5505 47.6919Z" fill="#E0426F" stroke="black" stroke-width="0.5"/>
<path d="M22.5498 83.6919V79.1919H40.0498L40.5498 83.6919H22.5498Z" fill="#E0426F" stroke="black" stroke-width="0.5"/>
<path d="M3.05176 65.1919C4.55176 67.6919 6.55176 70.8586 6.05176 72.6919M22.5518 79.1919C12.0518 79.6919 7.55176 75.6919 8.55176 72.1919C9.05176 71.6919 10.5518 70.1919 11.5518 70.1919" stroke="black" stroke-width="0.5"/>
<path d="M32.5518 74.192C30.0518 70.192 24.5518 65.1921 21.5518 63.6921C19.8017 63.1921 17.1766 63.3171 14.4265 63.6921C12.8016 65.0254 11.5518 68.192 12.0518 71.192C12.0518 72.3587 13.3592 74.692 16.0518 74.692C20.5518 74.692 27.5518 75.192 32.5518 74.192Z" fill="#E0426F"/>
<path d="M6.55176 65.1921C8.8017 64.6921 11.6766 64.0671 14.4265 63.6921M14.4265 63.6921C17.1766 63.3171 19.8017 63.1921 21.5518 63.6921C24.5518 65.1921 30.0518 70.192 32.5518 74.192C27.5518 75.192 20.5518 74.692 16.0518 74.692C13.3592 74.692 12.0518 72.3587 12.0518 71.192C11.5518 68.192 12.8016 65.0254 14.4265 63.6921Z" stroke="black" stroke-width="0.5"/>
<path d="M12.0518 70.6921C20.0518 69.1921 23.5518 71.8206 26.5518 73.3206M13.5518 73.6921L31.0518 73.1921" stroke="black" stroke-width="0.5"/>
<path d="M22.5498 82.1919H32.0498C34.0498 82.1919 35.5498 80.1919 35.0498 79.1919M38.5498 79.1919V83.6919" stroke="black" stroke-width="0.5"/>
<path d="M22.5517 80.6921C18.0517 80.6921 13.5517 81.1921 2.0517 78.1921V76.1921L6.0517 74.1921V72.6921L2.0517 72.1921C1.55078 70.6919 0.550977 67.6919 2.55097 65.1919C2.05122 57.1919 2.55122 50.6919 4.5517 47.6916C37.0517 28.192 59.0517 34.1921 85.0517 29.6921C163.052 -25.308 245.052 11.6919 282.052 26.1921L295.552 28.1919L296.052 35.1919V38.1919C297.55 43.1919 298.885 47.6919 297.552 49.6919C300.052 50.6919 302.552 53.8586 302.552 55.6919L300.552 65.6919C301.004 76.5398 298.596 76.7641 289.264 77.0765C288.273 77.1097 286.204 77.1439 285.052 77.1919V78.6919L260.052 79.1229M22.5517 80.6921V83.6921H40.55L40.0517 79.1921M22.5517 80.6921V79.1921H40.0517M40.0517 79.1921C37.0517 37.6921 90.5517 40.6921 87.0517 79.6921V82.1919H213.552C207.552 38.6919 262.052 38.6919 260.052 79.1229M259.55 79.1229H260.052" stroke="black"/>
</svg>
