<svg width="304" height="95" viewBox="0 0 304 95" fill="none" xmlns="http://www.w3.org/2000/svg">
<circle cx="63.0518" cy="73.707" r="20.5" fill="#EDADBF" stroke="black"/>
<circle cx="236.052" cy="73.707" r="20.5" fill="#EDADBF" stroke="black"/>
<path d="M133.05 12.2069L131.55 8.70689C171.55 0.706999 193.05 1.20703 232.05 12.707L228.55 17.207C208.55 9.20694 190.55 8.20694 174.55 7.70701C172.05 7.20701 168.05 7.20697 165.55 7.70689C155.55 7.70701 143.55 9.20701 133.05 12.2069Z" fill="#E56E90" stroke="black" stroke-width="0.5"/>
<path d="M131.55 8.70708L131.05 7.20708C167.05 -3.79297 199.55 0.206905 235.05 9.20708L232.05 12.7071C192.05 0.207031 166.05 1.70703 131.55 8.70708Z" fill="#E56E90" stroke="black" stroke-width="0.5"/>
<path d="M131.55 8.70714C183.05 -2.79288 211.55 7.20715 232.05 12.7071" stroke="black" stroke-width="0.5"/>
<path d="M171.052 29.707L174.552 7.70703C208.052 8.70703 219.552 14.207 224.052 15.707L226.535 27.707C199.544 27.7077 182.049 29.2071 171.052 29.707Z" fill="#E56E90"/>
<path d="M227.052 30.207L224.052 15.707C219.552 14.207 208.052 8.70703 174.552 7.70703L171.052 29.707C182.052 29.207 199.552 27.707 226.552 27.707" stroke="black" stroke-width="0.5"/>
<path d="M165.552 7.70703C132.552 8.70703 112.552 17.707 93.5518 35.207L96.0518 33.207L160.052 30.207L165.552 7.70703Z" fill="#E56E90" stroke="black" stroke-width="0.5"/>
<path d="M240.05 22.207C236.383 19.5404 230.55 17.207 224.05 15.707L226.55 27.707H233.05C236.05 26.207 239.05 23.9758 240.05 22.207Z" fill="#E56E90" stroke="black" stroke-width="0.5"/>
<path d="M97.0518 78.207H164.052L198.552 76.707H213.052L213.552 82.207H199.552H98.5518H87.0518V78.207H97.0518Z" fill="#E56E90"/>
<path d="M97.0518 78.207H164.052L198.552 76.707M97.0518 78.207C97.0518 79.707 97.5518 80.707 98.5518 82.207M97.0518 78.207H87.0518V82.207H98.5518M198.552 76.707L199.552 82.207M198.552 76.707H213.052L213.552 82.207H199.552M199.552 82.207H98.5518" stroke="black" stroke-width="0.5"/>
<path d="M97.0509 78.207C92.5518 73.707 89.5518 51.707 93.5509 35.207L165.552 31.207C161.552 36.207 160.552 70.207 164.052 78.207H97.0509Z" fill="#E56E90" stroke="black" stroke-width="0.5"/>
<path d="M229.052 30.207L165.552 31.207C161.552 36.207 160.552 70.207 164.052 78.207L198.552 76.707C203.052 75.207 209.552 69.707 229.052 30.207Z" fill="#E56E90" stroke="black" stroke-width="0.5"/>
<path d="M171.052 29.7071C166.552 30.2071 163.052 30.2071 160.052 30.2071L165.552 7.70711C168.552 7.20703 171.552 7.20703 174.552 7.70711L171.052 29.7071Z" fill="#E56E90" stroke="black" stroke-width="0.5"/>
<path d="M99.5518 31.7073C104.052 37.2073 111.052 33.7073 115.052 32.2073C116.052 16.7072 103.052 24.7072 99.5518 31.7073Z" fill="#E56E90" stroke="black" stroke-width="0.5"/>
<path d="M235.05 9.20703L232.05 12.707C249.05 18.207 259.55 21.207 272.05 27.707H273.55L281.55 26.207C266.55 19.707 259.05 17.207 235.05 9.20703Z" fill="#E0426F" stroke="black" stroke-width="0.5"/>
<path d="M272.05 27.707C261.55 22.207 242.55 15.707 232.05 12.707L230.05 15.207L245.05 22.707C243.55 25.207 239.55 27.207 233.55 29.907C245.55 29.207 262.55 28.207 272.05 27.707Z" fill="#E0426F" stroke="black" stroke-width="0.5"/>
<path d="M277.552 34.007L283.55 31.707L273.051 27.707L229.051 30.207C221.551 45.207 206.551 75.707 198.551 76.707H213.051C211.551 65.707 221.051 42.207 246.052 51.207C256.552 45.707 266.552 40.207 277.552 34.007Z" fill="#E0426F" stroke="black" stroke-width="0.5"/>
<path d="M278.55 33.7071C266.55 40.2071 256.55 45.7071 246.05 51.2071C250.55 54.207 261.05 60.207 260.05 79.207L285.05 78.707V77.207C293.55 76.207 302.05 79.707 300.55 65.707L302.55 55.707C302.55 54.207 300.05 50.207 297.55 49.707C299.05 47.207 296.05 38.207 296.05 38.207V36.707L292.05 33.707L287.05 32.207L283.55 31.707L278.55 33.7071Z" fill="#E0426F" stroke="black" stroke-width="0.5"/>
<path d="M281.55 26.207L273.05 27.707L283.55 31.707C293.05 32.707 292.049 34.207 296.044 36.6272L295.55 28.207L281.55 26.207Z" fill="#E0426F"/>
<path d="M296.05 36.707L296.044 36.6272M296.044 36.6272L295.55 28.207L281.55 26.207L273.05 27.707L283.55 31.707C293.05 32.707 292.049 34.207 296.044 36.6272Z" stroke="black" stroke-width="0.5"/>
<path d="M294.552 36.2072C294.052 33.7071 283.052 33.507 277.552 34.007" stroke="black" stroke-width="0.5"/>
<path d="M300.552 66.207L261.052 68.207C260.552 63.207 258.385 59.0404 256.552 57.207L302.552 54.707M301.052 52.207C290.052 50.707 279.052 45.907 267.052 39.907M229.052 30.207L273.052 27.707L281.552 26.207" stroke="black" stroke-width="0.5"/>
<path d="M291.052 40.207C291.052 38.207 290.052 34.207 286.552 32.207C288.773 32.207 292.149 33.2474 294.661 35.617C295.124 37.147 294.052 40.707 291.01 42.207C290.996 41.6167 291.052 40.9313 291.052 40.207Z" fill="#E0426F"/>
<path d="M273.052 42.707C280.047 43.0568 286.064 43.1619 291.445 43.707M298.052 44.707C295.949 44.2564 293.756 43.9411 291.445 43.707M296.052 37.207C295.634 36.6219 295.165 36.0927 294.661 35.617M291.445 43.707C291.119 43.3623 291.025 42.8392 291.01 42.207M291.01 42.207C290.996 41.6168 291.052 40.9313 291.052 40.207C291.052 38.207 290.052 34.207 286.552 32.207C288.773 32.207 292.149 33.2474 294.661 35.617M291.01 42.207C294.052 40.707 295.124 37.147 294.661 35.617" stroke="black" stroke-width="0.5"/>
<path d="M291.052 40.207C286.552 40.207 284.552 36.207 283.552 33.707" stroke="black" stroke-width="0.5"/>
<path d="M133.05 12.307C119.55 16.307 107.55 22.207 93.5498 35.207C100.55 23.207 116.05 13.707 131.55 8.70703L133.05 12.307Z" stroke="black" stroke-width="0.5"/>
<path d="M131.55 8.70703C111.55 14.3811 93.5498 31.707 85.5498 29.707C98.5498 20.207 114.55 11.707 131.05 7.20703L131.55 8.70703Z" stroke="black" stroke-width="0.5"/>
<path d="M10.5505 47.7069H4.55047C2.0498 51.7069 2.0498 61.7069 2.55047 65.2069C1.0498 66.2069 1.0504 70.7069 2.05047 72.2069L6.05047 72.7069V74.2069L2.05047 76.2069V78.2069C6.05047 79.2069 14.5505 81.2069 22.5505 80.7069V79.2069H40.0505C39.3838 70.7069 41.0505 60.2069 50.0505 53.2069C47.5505 49.2069 40.5505 44.7069 37.5505 44.2069C27.5505 43.2069 12.5505 45.7069 10.5505 47.7069Z" stroke="black" stroke-width="0.5"/>
<path d="M93.5518 35.207C75.7184 36.0404 44.0518 40.907 33.5518 43.907L37.5518 44.207C42.5518 45.707 48.0518 50.0404 50.0518 53.207C63.0508 43.707 88.5508 50.707 87.0508 78.207H97.0508C90.0508 67.207 91.0508 45.207 93.5518 35.207Z" stroke="black" stroke-width="0.5"/>
<path d="M10.5498 47.7071H4.5498C37.05 28.207 59.05 34.207 85.0498 29.707L94.05 35.207C77.05 36.207 48.0498 39.707 34.0498 43.907C26.0498 43.707 12.0498 45.707 10.5498 47.7071Z" stroke="black" stroke-width="0.5"/>
<path d="M37.5513 44.2071C30.0513 43.207 13.0513 45.207 10.5513 47.7071C9.75126 50.107 12.8846 53.0404 14.5513 54.207C24.0513 55.707 37.5513 49.707 37.5513 44.2071Z" stroke="black" stroke-width="0.5"/>
<path d="M4.5505 47.707C11.5505 48.707 5.5505 59.207 2.5505 64.207C2.05043 57.207 2.55029 51.707 4.5505 47.707Z" stroke="black" stroke-width="0.5"/>
<path d="M22.5498 83.707V79.207H40.0498L40.5498 83.707H22.5498Z" stroke="black" stroke-width="0.5"/>
<path d="M3.05176 65.207C4.55176 67.707 6.55176 70.8737 6.05176 72.707M22.5518 79.207C12.0518 79.707 7.55176 75.707 8.55176 72.207C9.05176 71.707 10.5518 70.207 11.5518 70.207" stroke="black" stroke-width="0.5"/>
<path d="M6.55176 65.2072C8.8017 64.7072 11.6766 64.0822 14.4265 63.7072M14.4265 63.7072C17.1766 63.3322 19.8017 63.2072 21.5518 63.7072C24.5518 65.2072 30.0518 70.2072 32.5518 74.2072C27.5518 75.2072 20.5518 74.7072 16.0518 74.7072C13.3592 74.7072 12.0518 72.3738 12.0518 71.2072C11.5518 68.2072 12.8016 65.0405 14.4265 63.7072Z" stroke="black" stroke-width="0.5"/>
<path d="M12.0518 70.7072C20.0518 69.2073 23.5518 71.8358 26.5518 73.3358M13.5518 73.7073L31.0518 73.2073" stroke="black" stroke-width="0.5"/>
<path d="M22.5498 82.207H32.0498C34.0498 82.207 35.5498 80.207 35.0498 79.207M38.5498 79.207V83.707" stroke="black" stroke-width="0.5"/>
<path d="M22.5517 80.7073C18.0517 80.7073 13.5517 81.2073 2.0517 78.2073V76.2073L6.0517 74.2073V72.7073L2.0517 72.2073C1.55078 70.707 0.550977 67.707 2.55097 65.207C2.05122 57.207 2.55122 50.707 4.5517 47.7068C37.0517 28.2072 59.0517 34.2072 85.0517 29.7072C163.052 -25.2929 245.052 11.707 282.052 26.2072L295.552 28.207L296.052 35.207V38.207C297.55 43.207 298.885 47.707 297.552 49.707C300.052 50.707 302.552 53.8737 302.552 55.707L300.552 65.707C301.004 76.5549 298.596 76.7792 289.264 77.0917C288.273 77.1249 286.204 77.159 285.052 77.207V78.707L260.052 79.1381M22.5517 80.7073V83.7073H40.55L40.0517 79.2073M22.5517 80.7073V79.2073H40.0517M40.0517 79.2073C37.0517 37.7073 90.5517 40.7073 87.0517 79.7073V82.207H213.552C207.552 38.707 262.052 38.707 260.052 79.1381M259.55 79.1381H260.052" stroke="black"/>
</svg>
