<svg width="303" height="96" viewBox="0 0 303 96" fill="none" xmlns="http://www.w3.org/2000/svg">
<circle cx="62.2817" cy="74.0605" r="20.5" fill="#E56E90" stroke="black"/>
<circle cx="235.282" cy="74.0605" r="20.5" fill="#E56E90" stroke="black"/>
<path d="M132.28 12.5604L130.78 9.0604C170.78 1.06051 192.28 1.56055 231.28 13.0605L227.78 17.5605C207.78 9.56046 189.78 8.56046 173.78 8.06052C171.28 7.56052 167.28 7.56049 164.78 8.0604C154.78 8.06052 142.78 9.56052 132.28 12.5604Z" fill="#E0426F" stroke="black" stroke-width="0.5"/>
<path d="M130.78 9.06059L130.28 7.56059C166.28 -3.43945 198.78 0.560421 234.28 9.56059L231.28 13.0606C191.28 0.560547 165.28 2.06055 130.78 9.06059Z" fill="#E0426F" stroke="black" stroke-width="0.5"/>
<path d="M130.78 9.06066C182.28 -2.43937 210.78 7.56067 231.28 13.0607" stroke="black" stroke-width="0.5"/>
<path d="M170.282 30.0605L173.782 8.06055C207.282 9.06055 218.782 14.5605 223.282 16.0605L225.764 28.0605C198.774 28.0612 181.279 29.5607 170.282 30.0605Z" fill="#E0426F"/>
<path d="M226.282 30.5605L223.282 16.0605C218.782 14.5605 207.282 9.06055 173.782 8.06055L170.282 30.0605C181.282 29.5605 198.782 28.0605 225.782 28.0605" stroke="black" stroke-width="0.5"/>
<path d="M164.782 8.06055C131.782 9.06055 111.782 18.0605 92.7817 35.5605L95.2817 33.5605L159.282 30.5605L164.782 8.06055Z" fill="#E0426F" stroke="black" stroke-width="0.5"/>
<path d="M239.28 22.5605C235.614 19.8939 229.78 17.5605 223.28 16.0605L225.78 28.0605H232.28C235.28 26.5605 238.28 24.3293 239.28 22.5605Z" fill="#E0426F" stroke="black" stroke-width="0.5"/>
<path d="M96.2817 78.5605H163.282L197.782 77.0605H212.282L212.782 82.5605H198.782H97.7817H86.2817V78.5605H96.2817Z" fill="#E0426F"/>
<path d="M96.2817 78.5605H163.282L197.782 77.0605M96.2817 78.5605C96.2817 80.0605 96.7817 81.0605 97.7817 82.5605M96.2817 78.5605H86.2817V82.5605H97.7817M197.782 77.0605L198.782 82.5605M197.782 77.0605H212.282L212.782 82.5605H198.782M198.782 82.5605H97.7817" stroke="black" stroke-width="0.5"/>
<path d="M96.2809 78.5605C91.7817 74.0605 88.7818 52.0605 92.7809 35.5605L164.782 31.5605C160.782 36.5605 159.782 70.5605 163.282 78.5605H96.2809Z" fill="#E0426F" stroke="black" stroke-width="0.5"/>
<path d="M228.281 30.5605L164.781 31.5605C160.781 36.5605 159.781 70.5605 163.281 78.5605L197.781 77.0605C202.281 75.5605 208.781 70.0605 228.281 30.5605Z" fill="#E0426F" stroke="black" stroke-width="0.5"/>
<path d="M170.282 30.0606C165.782 30.5606 162.282 30.5606 159.282 30.5606L164.782 8.06062C167.782 7.56055 170.782 7.56055 173.782 8.06062L170.282 30.0606Z" fill="#E0426F" stroke="black" stroke-width="0.5"/>
<path d="M98.7817 32.0608C103.282 37.5608 110.282 34.0608 114.282 32.5608C115.282 17.0607 102.282 25.0607 98.7817 32.0608Z" fill="#E0426F" stroke="black" stroke-width="0.5"/>
<path d="M234.28 9.56055L231.28 13.0605C248.28 18.5605 258.78 21.5605 271.28 28.0605H272.78L280.78 26.5605C265.78 20.0605 258.28 17.5605 234.28 9.56055Z" fill="#EFC7D3" stroke="black" stroke-width="0.5"/>
<path d="M271.28 28.0605C260.78 22.5605 241.78 16.0605 231.28 13.0605L229.28 15.5605L244.28 23.0605C242.78 25.5605 238.78 27.5605 232.78 30.2605C244.78 29.5605 261.78 28.5605 271.28 28.0605Z" fill="#EFC7D3" stroke="black" stroke-width="0.5"/>
<path d="M276.782 34.3605L282.78 32.0605L272.281 28.0605L228.281 30.5605C220.781 45.5605 205.781 76.0605 197.781 77.0605H212.281C210.781 66.0605 220.281 42.5605 245.282 51.5605C255.782 46.0605 265.782 40.5605 276.782 34.3605Z" fill="#EFC7D3" stroke="black" stroke-width="0.5"/>
<path d="M277.78 34.0606C265.78 40.5606 255.78 46.0606 245.28 51.5606C249.78 54.5605 260.28 60.5605 259.28 79.5605L284.28 79.0605V77.5605C292.78 76.5605 301.28 80.0605 299.78 66.0605L301.78 56.0605C301.78 54.5605 299.28 50.5605 296.78 50.0605C298.28 47.5605 295.28 38.5605 295.28 38.5605V37.0605L291.28 34.0605L286.28 32.5605L282.78 32.0605L277.78 34.0606Z" fill="#EFC7D3" stroke="black" stroke-width="0.5"/>
<path d="M280.78 26.5605L272.28 28.0605L282.78 32.0605C292.28 33.0605 291.279 34.5605 295.274 36.9807L294.78 28.5605L280.78 26.5605Z" fill="#EFC7D3"/>
<path d="M295.28 37.0605L295.274 36.9807M295.274 36.9807L294.78 28.5605L280.78 26.5605L272.28 28.0605L282.78 32.0605C292.28 33.0605 291.279 34.5605 295.274 36.9807Z" stroke="black" stroke-width="0.5"/>
<path d="M293.782 36.5607C293.282 34.0606 282.282 33.8606 276.782 34.3606" stroke="black" stroke-width="0.5"/>
<path d="M299.782 66.5605L260.282 68.5605C259.782 63.5605 257.615 59.3939 255.782 57.5605L301.782 55.0605M300.282 52.5605C289.282 51.0605 278.282 46.2605 266.282 40.2605M228.282 30.5605L272.282 28.0605L280.782 26.5605" stroke="black" stroke-width="0.5"/>
<path d="M290.282 40.5605C290.282 38.5605 289.282 34.5605 285.782 32.5605C288.003 32.5605 291.379 33.6009 293.891 35.9705C294.354 37.5005 293.282 41.0605 290.24 42.5605C290.226 41.9703 290.282 41.2848 290.282 40.5605Z" fill="#EFC7D3"/>
<path d="M272.282 43.0605C279.277 43.4103 285.294 43.5154 290.675 44.0605M297.282 45.0605C295.179 44.6099 292.985 44.2946 290.675 44.0605M295.282 37.5605C294.864 36.9754 294.395 36.4462 293.891 35.9705M290.675 44.0605C290.349 43.7158 290.255 43.1927 290.24 42.5605M290.24 42.5605C290.226 41.9703 290.282 41.2848 290.282 40.5605C290.282 38.5605 289.282 34.5605 285.782 32.5605C288.003 32.5605 291.379 33.6009 293.891 35.9705M290.24 42.5605C293.282 41.0605 294.354 37.5005 293.891 35.9705" stroke="black" stroke-width="0.5"/>
<path d="M290.282 40.5605C285.782 40.5605 283.782 36.5605 282.782 34.0605" stroke="black" stroke-width="0.5"/>
<path d="M132.28 12.6605C118.78 16.6605 106.78 22.5605 92.7803 35.5605C99.7803 23.5605 115.28 14.0605 130.78 9.06055L132.28 12.6605Z" fill="#E56E90" stroke="black" stroke-width="0.5"/>
<path d="M130.78 9.06055C110.78 14.7346 92.7803 32.0605 84.7803 30.0605C97.7803 20.5605 113.78 12.0605 130.28 7.56055L130.78 9.06055Z" fill="#E56E90" stroke="black" stroke-width="0.5"/>
<path d="M9.78094 48.0604H3.78094C1.28027 52.0604 1.28027 62.0604 1.78094 65.5604C0.280273 66.5604 0.280871 71.0604 1.28094 72.5604L5.28094 73.0604V74.5604L1.28094 76.5604V78.5604C5.28094 79.5604 13.7809 81.5604 21.7809 81.0604V79.5604H39.2809C38.6143 71.0604 40.2809 60.5604 49.2809 53.5604C46.7809 49.5604 39.7809 45.0604 36.7809 44.5604C26.7809 43.5604 11.7809 46.0604 9.78094 48.0604Z" fill="#E56E90" stroke="black" stroke-width="0.5"/>
<path d="M92.7817 35.5605C74.9484 36.3939 43.2817 41.2605 32.7817 44.2605L36.7817 44.5605C41.7817 46.0605 47.2817 50.3939 49.2817 53.5605C62.2808 44.0605 87.7808 51.0605 86.2808 78.5605H96.2808C89.2808 67.5605 90.2808 45.5605 92.7817 35.5605Z" fill="#E56E90" stroke="black" stroke-width="0.5"/>
<path d="M9.78027 48.0606H3.78027C36.2805 28.5605 58.2805 34.5605 84.2803 30.0605L93.2805 35.5605C76.2805 36.5605 47.2803 40.0605 33.2803 44.2606C25.2803 44.0605 11.2803 46.0605 9.78027 48.0606Z" fill="#E56E90" stroke="black" stroke-width="0.5"/>
<path d="M36.7817 44.5606C29.2817 43.5605 12.2817 45.5605 9.78173 48.0606C8.98173 50.4606 12.1151 53.3939 13.7817 54.5605C23.2817 56.0605 36.7817 50.0605 36.7817 44.5606Z" fill="#E56E90" stroke="black" stroke-width="0.5"/>
<path d="M3.78097 48.0605C10.781 49.0605 4.78097 59.5605 1.78097 64.5605C1.2809 57.5605 1.78076 52.0605 3.78097 48.0605Z" fill="#E56E90" stroke="black" stroke-width="0.5"/>
<path d="M21.7803 84.0605V79.5605H39.2803L39.7803 84.0605H21.7803Z" fill="#E56E90" stroke="black" stroke-width="0.5"/>
<path d="M2.28223 65.5605C3.78223 68.0605 5.78223 71.2272 5.28223 73.0605M21.7822 79.5605C11.2822 80.0605 6.78223 76.0605 7.78223 72.5605C8.28223 72.0605 9.78223 70.5605 10.7822 70.5605" stroke="black" stroke-width="0.5"/>
<path d="M31.7822 74.5607C29.2822 70.5607 23.7822 65.5607 20.7822 64.0607C19.0322 63.5607 16.4071 63.6857 13.657 64.0607C12.0321 65.3941 10.7822 68.5607 11.2822 71.5607C11.2822 72.7273 12.5896 75.0607 15.2822 75.0607C19.7822 75.0607 26.7822 75.5607 31.7822 74.5607Z" fill="#E56E90"/>
<path d="M5.78223 65.5607C8.03217 65.0607 10.9071 64.4357 13.657 64.0607M13.657 64.0607C16.4071 63.6857 19.0322 63.5607 20.7822 64.0607C23.7822 65.5607 29.2822 70.5607 31.7822 74.5607C26.7822 75.5607 19.7822 75.0607 15.2822 75.0607C12.5896 75.0607 11.2822 72.7273 11.2822 71.5607C10.7822 68.5607 12.0321 65.3941 13.657 64.0607Z" stroke="black" stroke-width="0.5"/>
<path d="M11.2822 71.0607C19.2822 69.5608 22.7822 72.1893 25.7822 73.6893M12.7822 74.0608L30.2822 73.5608" stroke="black" stroke-width="0.5"/>
<path d="M21.7803 82.5605H31.2803C33.2803 82.5605 34.7803 80.5605 34.2803 79.5605M37.7803 79.5605V84.0605" stroke="black" stroke-width="0.5"/>
<path d="M21.7817 81.0608C17.2817 81.0608 12.7817 81.5608 1.28168 78.5608V76.5608L5.28168 74.5608V73.0608L1.28168 72.5608C0.780762 71.0605 -0.219042 68.0605 1.78095 65.5605C1.2812 57.5605 1.7812 51.0605 3.78168 48.0603C36.2817 28.5607 58.2817 34.5607 84.2817 30.0607C162.282 -24.9394 244.282 12.0605 281.282 26.5607L294.782 28.5605L295.282 35.5605V38.5605C296.78 43.5605 298.115 48.0605 296.782 50.0605C299.282 51.0605 301.782 54.2272 301.782 56.0605L299.782 66.0605C300.234 76.9085 297.826 77.1327 288.494 77.4452C287.503 77.4784 285.434 77.5125 284.282 77.5605V79.0605L259.282 79.4916M21.7817 81.0608V84.0608H39.78L39.2817 79.5608M21.7817 81.0608V79.5608H39.2817M39.2817 79.5608C36.2817 38.0608 89.7817 41.0608 86.2817 80.0608V82.5605H212.782C206.782 39.0605 261.282 39.0605 259.282 79.4916M258.78 79.4916H259.282" stroke="black"/>
</svg>
