<svg width="303" height="95" viewBox="0 0 303 95" fill="none" xmlns="http://www.w3.org/2000/svg">
<circle cx="62.458" cy="73.6768" r="20.5" fill="#E0426F" stroke="black"/>
<circle cx="235.458" cy="73.6768" r="20.5" fill="#E0426F" stroke="black"/>
<path d="M132.456 12.1766L130.956 8.67661C170.956 0.676725 192.456 1.17676 231.456 12.6767L227.956 17.1767C207.956 9.17667 189.956 8.17667 173.956 7.67673C171.456 7.17673 167.456 7.1767 164.956 7.67661C154.956 7.67673 142.956 9.17674 132.456 12.1766Z" stroke="black" stroke-width="0.5"/>
<path d="M130.956 8.6768L130.456 7.1768C166.456 -3.82324 198.956 0.176632 234.456 9.1768L231.456 12.6768C191.456 0.176758 165.456 1.67676 130.956 8.6768Z" stroke="black" stroke-width="0.5"/>
<path d="M130.956 8.67675C182.456 -2.82328 210.956 7.17676 231.456 12.6767" stroke="black" stroke-width="0.5"/>
<path d="M226.458 30.1768L223.458 15.6768C218.958 14.1768 207.458 8.67676 173.958 7.67676L170.458 29.6768C181.458 29.1768 198.958 27.6768 225.958 27.6768" stroke="black" stroke-width="0.5"/>
<path d="M164.958 7.67676C131.958 8.67676 111.958 17.6768 92.958 35.1768L95.458 33.1768L159.458 30.1768L164.958 7.67676Z" stroke="black" stroke-width="0.5"/>
<path d="M239.456 22.1768C235.789 19.5101 229.956 17.1768 223.456 15.6768L225.956 27.6768H232.456C235.456 26.1768 238.456 23.9455 239.456 22.1768Z" stroke="black" stroke-width="0.5"/>
<path d="M96.458 78.1768H163.458L197.958 76.6768M96.458 78.1768C96.458 79.6768 96.958 80.6768 97.958 82.1768M96.458 78.1768H86.458V82.1768H97.958M197.958 76.6768L198.958 82.1768M197.958 76.6768H212.458L212.958 82.1768H198.958M198.958 82.1768H97.958" stroke="black" stroke-width="0.5"/>
<path d="M96.4571 78.1768C91.958 73.6768 88.9581 51.6768 92.9571 35.1768L164.958 31.1768C160.958 36.1768 159.958 70.1768 163.458 78.1768H96.4571Z" stroke="black" stroke-width="0.5"/>
<path d="M228.458 30.1768L164.958 31.1768C160.958 36.1768 159.958 70.1768 163.458 78.1768L197.958 76.6768C202.458 75.1768 208.958 69.6768 228.458 30.1768Z" stroke="black" stroke-width="0.5"/>
<path d="M170.458 29.6768C165.958 30.1768 162.458 30.1768 159.458 30.1768L164.958 7.67683C167.958 7.17676 170.958 7.17676 173.958 7.67683L170.458 29.6768Z" stroke="black" stroke-width="0.5"/>
<path d="M98.958 31.6769C103.458 37.1769 110.458 33.6769 114.458 32.1769C115.458 16.6768 102.458 24.6768 98.958 31.6769Z" stroke="black" stroke-width="0.5"/>
<path d="M234.456 9.17676L231.456 12.6768C248.456 18.1768 258.956 21.1768 271.456 27.6768H272.956L280.956 26.1768C265.956 19.6768 258.456 17.1768 234.456 9.17676Z" fill="#E56E90" stroke="black" stroke-width="0.5"/>
<path d="M271.456 27.6768C260.956 22.1768 241.956 15.6768 231.456 12.6768L229.456 15.1768L244.456 22.6768C242.956 25.1768 238.956 27.1768 232.956 29.8768C244.956 29.1768 261.956 28.1768 271.456 27.6768Z" fill="#E56E90" stroke="black" stroke-width="0.5"/>
<path d="M276.958 33.9768L282.956 31.6768L272.457 27.6768L228.457 30.1768C220.957 45.1768 205.957 75.6768 197.957 76.6768H212.457C210.957 65.6768 220.457 42.1768 245.458 51.1768C255.958 45.6768 265.958 40.1768 276.958 33.9768Z" fill="#E56E90" stroke="black" stroke-width="0.5"/>
<path d="M277.956 33.6768C265.956 40.1768 255.956 45.6768 245.456 51.1768C249.956 54.1768 260.456 60.1768 259.456 79.1768L284.456 78.6768V77.1768C292.956 76.1768 301.456 79.6768 299.956 65.6768L301.956 55.6768C301.956 54.1768 299.456 50.1768 296.956 49.6768C298.456 47.1768 295.456 38.1768 295.456 38.1768V36.6768L291.456 33.6768L286.456 32.1768L282.956 31.6768L277.956 33.6768Z" fill="#E56E90" stroke="black" stroke-width="0.5"/>
<path d="M280.956 26.1768L272.456 27.6768L282.956 31.6768C292.456 32.6768 291.455 34.1768 295.45 36.5969L294.956 28.1768L280.956 26.1768Z" fill="#E56E90"/>
<path d="M295.456 36.6768L295.45 36.5969M295.45 36.5969L294.956 28.1768L280.956 26.1768L272.456 27.6768L282.956 31.6768C292.456 32.6768 291.455 34.1768 295.45 36.5969Z" stroke="black" stroke-width="0.5"/>
<path d="M293.958 36.177C293.458 33.6768 282.458 33.4768 276.958 33.9768" stroke="black" stroke-width="0.5"/>
<path d="M299.958 66.1768L260.458 68.1768C259.958 63.1768 257.791 59.0101 255.958 57.1768L301.958 54.6768M300.458 52.1768C289.458 50.6768 278.458 45.8768 266.458 39.8768M228.458 30.1768L272.458 27.6768L280.958 26.1768" stroke="black" stroke-width="0.5"/>
<path d="M290.458 40.1768C290.458 38.1768 289.458 34.1768 285.958 32.1768C288.179 32.1768 291.556 33.2171 294.067 35.5867C294.531 37.1167 293.458 40.6768 290.416 42.1768C290.403 41.5865 290.458 40.901 290.458 40.1768Z" fill="#E56E90"/>
<path d="M272.458 42.6768C279.454 43.0265 285.471 43.1316 290.851 43.6768M297.458 44.6768C295.355 44.2261 293.162 43.9109 290.851 43.6768M295.458 37.1768C295.04 36.5916 294.571 36.0624 294.067 35.5867M290.851 43.6768C290.525 43.332 290.431 42.8089 290.416 42.1768M290.416 42.1768C290.403 41.5865 290.458 40.901 290.458 40.1768C290.458 38.1768 289.458 34.1768 285.958 32.1768C288.179 32.1768 291.556 33.2171 294.067 35.5867M290.416 42.1768C293.458 40.6768 294.531 37.1167 294.067 35.5867" stroke="black" stroke-width="0.5"/>
<path d="M290.458 40.1768C285.958 40.1768 283.958 36.1768 282.958 33.6768" stroke="black" stroke-width="0.5"/>
<path d="M132.456 12.2767C118.956 16.2767 106.956 22.1768 92.9561 35.1768C99.9561 23.1768 115.456 13.6768 130.956 8.67676L132.456 12.2767Z" fill="#E56E90" stroke="black" stroke-width="0.5"/>
<path d="M130.956 8.67676C110.956 14.3508 92.9561 31.6768 84.9561 29.6768C97.9561 20.1768 113.956 11.6768 130.456 7.17676L130.956 8.67676Z" fill="#E56E90" stroke="black" stroke-width="0.5"/>
<path d="M9.95672 47.6768H3.95672C1.45605 51.6768 1.45605 61.6768 1.95672 65.1768C0.456055 66.1768 0.456652 70.6768 1.45672 72.1768L5.45672 72.6768V74.1768L1.45672 76.1768V78.1768C5.45672 79.1768 13.9567 81.1768 21.9567 80.6768V79.1768H39.4567C38.7901 70.6768 40.4567 60.1768 49.4567 53.1768C46.9567 49.1768 39.9567 44.6768 36.9567 44.1768C26.9567 43.1768 11.9567 45.6768 9.95672 47.6768Z" fill="#E56E90" stroke="black" stroke-width="0.5"/>
<path d="M92.958 35.1768C75.1247 36.0101 43.458 40.8768 32.958 43.8768L36.958 44.1768C41.958 45.6768 47.458 50.0101 49.458 53.1768C62.457 43.6768 87.957 50.6768 86.457 78.1768H96.457C89.457 67.1768 90.457 45.1768 92.958 35.1768Z" fill="#E56E90" stroke="black" stroke-width="0.5"/>
<path d="M9.95606 47.6768H3.95605C36.4562 28.1767 58.4563 34.1768 84.4561 29.6768L93.4563 35.1768C76.4563 36.1768 47.4561 39.6768 33.4561 43.8768C25.4561 43.6767 11.4561 45.6768 9.95606 47.6768Z" fill="#E56E90" stroke="black" stroke-width="0.5"/>
<path d="M36.9575 44.1768C29.4575 43.1768 12.4575 45.1768 9.95751 47.6768C9.15751 50.0768 12.2908 53.0101 13.9575 54.1768C23.4575 55.6768 36.9575 49.6768 36.9575 44.1768Z" fill="#E56E90" stroke="black" stroke-width="0.5"/>
<path d="M3.95675 47.6768C10.9568 48.6768 4.95675 59.1768 1.95675 64.1768C1.45668 57.1768 1.95654 51.6768 3.95675 47.6768Z" fill="#E56E90" stroke="black" stroke-width="0.5"/>
<path d="M21.9561 83.6768V79.1768H39.4561L39.9561 83.6768H21.9561Z" fill="#E56E90" stroke="black" stroke-width="0.5"/>
<path d="M2.45801 65.1768C3.95801 67.6768 5.95801 70.8434 5.45801 72.6768M21.958 79.1768C11.458 79.6768 6.95801 75.6768 7.95801 72.1768C8.45801 71.6768 9.95801 70.1768 10.958 70.1768" stroke="black" stroke-width="0.5"/>
<path d="M31.958 74.1768C29.458 70.1768 23.958 65.1768 20.958 63.6768C19.208 63.1768 16.5829 63.3018 13.8328 63.6768C12.2079 65.0101 10.958 68.1768 11.458 71.1768C11.458 72.3434 12.7654 74.6768 15.458 74.6768C19.958 74.6768 26.958 75.1768 31.958 74.1768Z" fill="#E56E90"/>
<path d="M5.95801 65.1768C8.20795 64.6768 11.0829 64.0518 13.8328 63.6768M13.8328 63.6768C16.5829 63.3018 19.208 63.1768 20.958 63.6768C23.958 65.1768 29.458 70.1768 31.958 74.1768C26.958 75.1768 19.958 74.6768 15.458 74.6768C12.7654 74.6768 11.458 72.3434 11.458 71.1768C10.958 68.1768 12.2079 65.0101 13.8328 63.6768Z" stroke="black" stroke-width="0.5"/>
<path d="M11.458 70.6768C19.458 69.1769 22.958 71.8054 25.958 73.3054M12.958 73.6769L30.458 73.1769" stroke="black" stroke-width="0.5"/>
<path d="M21.9561 82.1768H31.4561C33.4561 82.1768 34.9561 80.1768 34.4561 79.1768M37.9561 79.1768V83.6768" stroke="black" stroke-width="0.5"/>
<path d="M21.958 80.677C17.458 80.677 12.958 81.177 1.45795 78.177V76.177L5.45795 74.177V72.677L1.45795 72.177C0.957031 70.6768 -0.0427729 67.6768 1.95722 65.1768C1.45747 57.1768 1.95747 50.6768 3.95795 47.6765C36.458 28.1769 58.4579 34.1769 84.4579 29.6769C162.458 -25.3232 244.458 11.6767 281.458 26.1769L294.958 28.1768L295.458 35.1768V38.1768C296.956 43.1768 298.291 47.6768 296.958 49.6768C299.458 50.6768 301.958 53.8434 301.958 55.6768L299.958 65.6768C300.41 76.5247 298.002 76.7489 288.67 77.0614C287.679 77.0946 285.61 77.1288 284.458 77.1768V78.6768L259.458 79.1078M21.958 80.677V83.677H39.9563L39.458 79.177M21.958 80.677V79.177H39.458M39.458 79.177C36.458 37.677 89.9579 40.677 86.4579 79.677V82.1768H212.958C206.958 38.6768 261.458 38.6768 259.458 79.1078M258.956 79.1078H259.458" stroke="black"/>
</svg>
