<svg width="303" height="96" viewBox="0 0 303 96" fill="none" xmlns="http://www.w3.org/2000/svg">
<circle cx="62.458" cy="74.5076" r="20.5" fill="#E0426F" stroke="black"/>
<circle cx="235.458" cy="74.5076" r="20.5" fill="#E0426F" stroke="black"/>
<path d="M132.456 13.0074L130.956 9.50742C170.956 1.50754 192.456 2.00757 231.456 13.5075L227.956 18.0075C207.956 10.0075 189.956 9.00748 173.956 8.50755C171.456 8.00755 167.456 8.00751 164.956 8.50742C154.956 8.50755 142.956 10.0075 132.456 13.0074Z" stroke="black" stroke-width="0.5"/>
<path d="M130.956 9.50761L130.456 8.00761C166.456 -2.99243 198.956 1.00744 234.456 10.0076L231.456 13.5076C191.456 1.00757 165.456 2.50757 130.956 9.50761Z" stroke="black" stroke-width="0.5"/>
<path d="M130.956 9.50756C182.456 -1.99247 210.956 8.00757 231.456 13.5076" stroke="black" stroke-width="0.5"/>
<path d="M226.458 31.0076L223.458 16.5076C218.958 15.0076 207.458 9.50757 173.958 8.50757L170.458 30.5076C181.458 30.0076 198.958 28.5076 225.958 28.5076" stroke="black" stroke-width="0.5"/>
<path d="M164.958 8.50757C131.958 9.50757 111.958 18.5076 92.958 36.0076L95.458 34.0076L159.458 31.0076L164.958 8.50757Z" stroke="black" stroke-width="0.5"/>
<path d="M239.456 23.0076C235.789 20.3409 229.956 18.0076 223.456 16.5076L225.956 28.5076H232.456C235.456 27.0076 238.456 24.7763 239.456 23.0076Z" stroke="black" stroke-width="0.5"/>
<path d="M96.458 79.0076H163.458L197.958 77.5076M96.458 79.0076C96.458 80.5076 96.958 81.5076 97.958 83.0076M96.458 79.0076H86.458V83.0076H97.958M197.958 77.5076L198.958 83.0076M197.958 77.5076H212.458L212.958 83.0076H198.958M198.958 83.0076H97.958" stroke="black" stroke-width="0.5"/>
<path d="M96.4571 79.0076C91.958 74.5076 88.9581 52.5076 92.9571 36.0076L164.958 32.0076C160.958 37.0076 159.958 71.0076 163.458 79.0076H96.4571Z" stroke="black" stroke-width="0.5"/>
<path d="M228.458 31.0076L164.958 32.0076C160.958 37.0076 159.958 71.0076 163.458 79.0076L197.958 77.5076C202.458 76.0076 208.958 70.5076 228.458 31.0076Z" stroke="black" stroke-width="0.5"/>
<path d="M170.458 30.5076C165.958 31.0076 162.458 31.0076 159.458 31.0076L164.958 8.50764C167.958 8.00757 170.958 8.00757 173.958 8.50764L170.458 30.5076Z" stroke="black" stroke-width="0.5"/>
<path d="M98.958 32.5077C103.458 38.0077 110.458 34.5077 114.458 33.0077C115.458 17.5076 102.458 25.5076 98.958 32.5077Z" stroke="black" stroke-width="0.5"/>
<path d="M234.456 10.0076L231.456 13.5076C248.456 19.0076 258.956 22.0076 271.456 28.5076H272.956L280.956 27.0076C265.956 20.5076 258.456 18.0076 234.456 10.0076Z" fill="#E56E90" stroke="black" stroke-width="0.5"/>
<path d="M271.456 28.5076C260.956 23.0076 241.956 16.5076 231.456 13.5076L229.456 16.0076L244.456 23.5076C242.956 26.0076 238.956 28.0076 232.956 30.7076C244.956 30.0076 261.956 29.0076 271.456 28.5076Z" fill="#E56E90" stroke="black" stroke-width="0.5"/>
<path d="M276.958 34.8076L282.956 32.5076L272.457 28.5076L228.457 31.0076C220.957 46.0076 205.957 76.5076 197.957 77.5076H212.457C210.957 66.5076 220.457 43.0076 245.458 52.0076C255.958 46.5076 265.958 41.0076 276.958 34.8076Z" fill="#E56E90" stroke="black" stroke-width="0.5"/>
<path d="M277.956 34.5076C265.956 41.0076 255.956 46.5076 245.456 52.0076C249.956 55.0076 260.456 61.0076 259.456 80.0076L284.456 79.5076V78.0076C292.956 77.0076 301.456 80.5076 299.956 66.5076L301.956 56.5076C301.956 55.0076 299.456 51.0076 296.956 50.5076C298.456 48.0076 295.456 39.0076 295.456 39.0076V37.5076L291.456 34.5076L286.456 33.0076L282.956 32.5076L277.956 34.5076Z" fill="#E56E90" stroke="black" stroke-width="0.5"/>
<path d="M280.956 27.0076L272.456 28.5076L282.956 32.5076C292.456 33.5076 291.455 35.0076 295.45 37.4277L294.956 29.0076L280.956 27.0076Z" fill="#E56E90"/>
<path d="M295.456 37.5076L295.45 37.4277M295.45 37.4277L294.956 29.0076L280.956 27.0076L272.456 28.5076L282.956 32.5076C292.456 33.5076 291.455 35.0076 295.45 37.4277Z" stroke="black" stroke-width="0.5"/>
<path d="M293.958 37.0078C293.458 34.5077 282.458 34.3076 276.958 34.8076" stroke="black" stroke-width="0.5"/>
<path d="M299.958 67.0076L260.458 69.0076C259.958 64.0076 257.791 59.8409 255.958 58.0076L301.958 55.5076M300.458 53.0076C289.458 51.5076 278.458 46.7076 266.458 40.7076M228.458 31.0076L272.458 28.5076L280.958 27.0076" stroke="black" stroke-width="0.5"/>
<path d="M290.458 41.0076C290.458 39.0076 289.458 35.0076 285.958 33.0076C288.179 33.0076 291.556 34.048 294.067 36.4176C294.531 37.9476 293.458 41.5076 290.416 43.0076C290.403 42.4173 290.458 41.7319 290.458 41.0076Z" fill="#E56E90"/>
<path d="M272.458 43.5076C279.454 43.8574 285.471 43.9624 290.851 44.5076M297.458 45.5076C295.355 45.0569 293.162 44.7417 290.851 44.5076M295.458 38.0076C295.04 37.4224 294.571 36.8932 294.067 36.4176M290.851 44.5076C290.525 44.1628 290.431 43.6398 290.416 43.0076M290.416 43.0076C290.403 42.4173 290.458 41.7319 290.458 41.0076C290.458 39.0076 289.458 35.0076 285.958 33.0076C288.179 33.0076 291.556 34.048 294.067 36.4176M290.416 43.0076C293.458 41.5076 294.531 37.9476 294.067 36.4176" stroke="black" stroke-width="0.5"/>
<path d="M290.458 41.0076C285.958 41.0076 283.958 37.0076 282.958 34.5076" stroke="black" stroke-width="0.5"/>
<path d="M132.456 13.1075C118.956 17.1075 106.956 23.0076 92.9561 36.0076C99.9561 24.0076 115.456 14.5076 130.956 9.50757L132.456 13.1075Z" fill="#EDADBF" stroke="black" stroke-width="0.5"/>
<path d="M130.956 9.50757C110.956 15.1816 92.9561 32.5076 84.9561 30.5076C97.9561 21.0076 113.956 12.5076 130.456 8.00757L130.956 9.50757Z" fill="#EDADBF" stroke="black" stroke-width="0.5"/>
<path d="M9.95672 48.5076H3.95672C1.45605 52.5076 1.45605 62.5076 1.95672 66.0076C0.456055 67.0076 0.456652 71.5076 1.45672 73.0076L5.45672 73.5076V75.0076L1.45672 77.0076V79.0076C5.45672 80.0076 13.9567 82.0076 21.9567 81.5076V80.0076H39.4567C38.7901 71.5076 40.4567 61.0076 49.4567 54.0076C46.9567 50.0076 39.9567 45.5076 36.9567 45.0076C26.9567 44.0076 11.9567 46.5076 9.95672 48.5076Z" fill="#EDADBF" stroke="black" stroke-width="0.5"/>
<path d="M92.958 36.0076C75.1247 36.8409 43.458 41.7076 32.958 44.7076L36.958 45.0076C41.958 46.5076 47.458 50.8409 49.458 54.0076C62.457 44.5076 87.957 51.5076 86.457 79.0076H96.457C89.457 68.0076 90.457 46.0076 92.958 36.0076Z" fill="#EDADBF" stroke="black" stroke-width="0.5"/>
<path d="M9.95606 48.5076H3.95605C36.4562 29.0075 58.4563 35.0076 84.4561 30.5076L93.4563 36.0076C76.4563 37.0076 47.4561 40.5076 33.4561 44.7076C25.4561 44.5076 11.4561 46.5076 9.95606 48.5076Z" fill="#EDADBF" stroke="black" stroke-width="0.5"/>
<path d="M36.9575 45.0076C29.4575 44.0076 12.4575 46.0076 9.95751 48.5076C9.15751 50.9076 12.2908 53.8409 13.9575 55.0076C23.4575 56.5076 36.9575 50.5076 36.9575 45.0076Z" fill="#EDADBF" stroke="black" stroke-width="0.5"/>
<path d="M3.95675 48.5076C10.9568 49.5076 4.95675 60.0076 1.95675 65.0076C1.45668 58.0076 1.95654 52.5076 3.95675 48.5076Z" fill="#EDADBF" stroke="black" stroke-width="0.5"/>
<path d="M21.9561 84.5076V80.0076H39.4561L39.9561 84.5076H21.9561Z" fill="#EDADBF" stroke="black" stroke-width="0.5"/>
<path d="M2.45801 66.0076C3.95801 68.5076 5.95801 71.6742 5.45801 73.5076M21.958 80.0076C11.458 80.5076 6.95801 76.5076 7.95801 73.0076C8.45801 72.5076 9.95801 71.0076 10.958 71.0076" stroke="black" stroke-width="0.5"/>
<path d="M31.958 75.0076C29.458 71.0076 23.958 66.0076 20.958 64.5076C19.208 64.0076 16.5829 64.1326 13.8328 64.5076C12.2079 65.841 10.958 69.0076 11.458 72.0076C11.458 73.1742 12.7654 75.5076 15.458 75.5076C19.958 75.5076 26.958 76.0076 31.958 75.0076Z" fill="#EDADBF"/>
<path d="M5.95801 66.0076C8.20795 65.5076 11.0829 64.8826 13.8328 64.5076M13.8328 64.5076C16.5829 64.1326 19.208 64.0076 20.958 64.5076C23.958 66.0076 29.458 71.0076 31.958 75.0076C26.958 76.0076 19.958 75.5076 15.458 75.5076C12.7654 75.5076 11.458 73.1742 11.458 72.0076C10.958 69.0076 12.2079 65.841 13.8328 64.5076Z" stroke="black" stroke-width="0.5"/>
<path d="M11.458 71.5076C19.458 70.0077 22.958 72.6362 25.958 74.1362M12.958 74.5077L30.458 74.0077" stroke="black" stroke-width="0.5"/>
<path d="M21.9561 83.0076H31.4561C33.4561 83.0076 34.9561 81.0076 34.4561 80.0076M37.9561 80.0076V84.5076" stroke="black" stroke-width="0.5"/>
<path d="M21.958 81.5078C17.458 81.5078 12.958 82.0078 1.45795 79.0078V77.0078L5.45795 75.0078V73.5078L1.45795 73.0078C0.957031 71.5076 -0.0427729 68.5076 1.95722 66.0076C1.45747 58.0076 1.95747 51.5076 3.95795 48.5073C36.458 29.0077 58.4579 35.0078 84.4579 30.5078C162.458 -24.4924 244.458 12.5076 281.458 27.0077L294.958 29.0076L295.458 36.0076V39.0076C296.956 44.0076 298.291 48.5076 296.958 50.5076C299.458 51.5076 301.958 54.6742 301.958 56.5076L299.958 66.5076C300.41 77.3555 298.002 77.5798 288.67 77.8922C287.679 77.9254 285.61 77.9596 284.458 78.0076V79.5076L259.458 79.9386M21.958 81.5078V84.5078H39.9563L39.458 80.0078M21.958 81.5078V80.0078H39.458M39.458 80.0078C36.458 38.5078 89.9579 41.5078 86.4579 80.5078V83.0076H212.958C206.958 39.5076 261.458 39.5076 259.458 79.9386M258.956 79.9386H259.458" stroke="black"/>
</svg>
