<svg width="303" height="96" viewBox="0 0 303 96" fill="none" xmlns="http://www.w3.org/2000/svg">
<circle cx="62.4795" cy="74.0454" r="20.5" fill="#E0426F" stroke="black"/>
<circle cx="235.479" cy="74.0454" r="20.5" fill="#E0426F" stroke="black"/>
<path d="M132.478 12.5453L130.978 9.04527C170.978 1.04538 192.478 1.54541 231.478 13.0454L227.978 17.5454C207.978 9.54532 189.978 8.54532 173.978 8.04539C171.478 7.54539 167.478 7.54535 164.978 8.04527C154.978 8.04539 142.978 9.54539 132.478 12.5453Z" fill="#E56E90" stroke="black" stroke-width="0.5"/>
<path d="M130.978 9.04545L130.478 7.54545C166.478 -3.45459 198.978 0.545284 234.478 9.54546L231.478 13.0455C191.478 0.54541 165.478 2.04541 130.978 9.04545Z" fill="#E56E90" stroke="black" stroke-width="0.5"/>
<path d="M130.978 9.04552C182.478 -2.4545 210.978 7.54553 231.478 13.0455" stroke="black" stroke-width="0.5"/>
<path d="M170.479 30.0454L173.979 8.04541C207.479 9.04541 218.979 14.5454 223.479 16.0454L225.962 28.0454C198.972 28.046 181.477 29.5455 170.479 30.0454Z" fill="#E56E90"/>
<path d="M226.479 30.5454L223.479 16.0454C218.979 14.5454 207.479 9.04541 173.979 8.04541L170.479 30.0454C181.479 29.5454 198.979 28.0454 225.979 28.0454" stroke="black" stroke-width="0.5"/>
<path d="M164.979 8.04541C131.979 9.04541 111.979 18.0454 92.9795 35.5454L95.4795 33.5454L159.479 30.5454L164.979 8.04541Z" fill="#E56E90" stroke="black" stroke-width="0.5"/>
<path d="M239.478 22.5454C235.811 19.8787 229.978 17.5454 223.478 16.0454L225.978 28.0454H232.478C235.478 26.5454 238.478 24.3141 239.478 22.5454Z" fill="#E56E90" stroke="black" stroke-width="0.5"/>
<path d="M96.4795 78.5454H163.479L197.979 77.0454H212.479L212.979 82.5454H198.979H97.9795H86.4795V78.5454H96.4795Z" fill="#E56E90"/>
<path d="M96.4795 78.5454H163.479L197.979 77.0454M96.4795 78.5454C96.4795 80.0454 96.9795 81.0454 97.9795 82.5454M96.4795 78.5454H86.4795V82.5454H97.9795M197.979 77.0454L198.979 82.5454M197.979 77.0454H212.479L212.979 82.5454H198.979M198.979 82.5454H97.9795" stroke="black" stroke-width="0.5"/>
<path d="M96.4786 78.5454C91.9795 74.0454 88.9795 52.0454 92.9786 35.5454L164.979 31.5454C160.979 36.5454 159.979 70.5454 163.479 78.5454H96.4786Z" fill="#E56E90" stroke="black" stroke-width="0.5"/>
<path d="M228.479 30.5454L164.979 31.5454C160.98 36.5454 159.98 70.5454 163.479 78.5454L197.979 77.0454C202.479 75.5454 208.979 70.0454 228.479 30.5454Z" fill="#E56E90" stroke="black" stroke-width="0.5"/>
<path d="M170.479 30.0455C165.979 30.5455 162.479 30.5455 159.479 30.5455L164.979 8.04548C167.979 7.54541 170.979 7.54541 173.979 8.04548L170.479 30.0455Z" fill="#E56E90" stroke="black" stroke-width="0.5"/>
<path d="M98.9795 32.0457C103.479 37.5457 110.479 34.0457 114.479 32.5457C115.479 17.0455 102.479 25.0455 98.9795 32.0457Z" fill="#E56E90" stroke="black" stroke-width="0.5"/>
<path d="M234.478 9.54541L231.478 13.0454C248.478 18.5454 258.978 21.5454 271.478 28.0454H272.978L280.978 26.5454C265.978 20.0454 258.478 17.5454 234.478 9.54541Z" fill="#EFC7D3" stroke="black" stroke-width="0.5"/>
<path d="M271.478 28.0454C260.978 22.5454 241.978 16.0454 231.478 13.0454L229.478 15.5454L244.478 23.0454C242.978 25.5454 238.978 27.5454 232.978 30.2454C244.978 29.5454 261.978 28.5454 271.478 28.0454Z" fill="#EFC7D3" stroke="black" stroke-width="0.5"/>
<path d="M276.979 34.3454L282.978 32.0454L272.479 28.0454L228.479 30.5454C220.979 45.5454 205.979 76.0454 197.979 77.0454H212.479C210.979 66.0454 220.479 42.5454 245.479 51.5454C255.979 46.0454 265.979 40.5454 276.979 34.3454Z" fill="#EFC7D3" stroke="black" stroke-width="0.5"/>
<path d="M277.978 34.0454C265.978 40.5454 255.978 46.0454 245.478 51.5454C249.978 54.5454 260.478 60.5454 259.478 79.5454L284.478 79.0454V77.5454C292.978 76.5454 301.478 80.0454 299.978 66.0454L301.978 56.0454C301.978 54.5454 299.478 50.5454 296.978 50.0454C298.478 47.5454 295.478 38.5454 295.478 38.5454V37.0454L291.478 34.0454L286.478 32.5454L282.978 32.0454L277.978 34.0454Z" fill="#EFC7D3" stroke="black" stroke-width="0.5"/>
<path d="M280.978 26.5454L272.478 28.0454L282.978 32.0454C292.478 33.0454 291.476 34.5454 295.472 36.9656L294.978 28.5454L280.978 26.5454Z" fill="#EFC7D3"/>
<path d="M295.478 37.0454L295.472 36.9656M295.472 36.9656L294.978 28.5454L280.978 26.5454L272.478 28.0454L282.978 32.0454C292.478 33.0454 291.476 34.5454 295.472 36.9656Z" stroke="black" stroke-width="0.5"/>
<path d="M293.979 36.5456C293.479 34.0455 282.479 33.8454 276.979 34.3454" stroke="black" stroke-width="0.5"/>
<path d="M299.979 66.5454L260.479 68.5454C259.979 63.5454 257.813 59.3787 255.979 57.5454L301.979 55.0454M300.479 52.5454C289.479 51.0454 278.479 46.2454 266.479 40.2454M228.479 30.5454L272.479 28.0454L280.979 26.5454" stroke="black" stroke-width="0.5"/>
<path d="M290.479 40.5454C290.479 38.5454 289.479 34.5454 285.979 32.5454C288.2 32.5454 291.577 33.5858 294.088 35.9554C294.552 37.4854 293.479 41.0454 290.438 42.5454C290.424 41.9551 290.479 41.2697 290.479 40.5454Z" fill="#EFC7D3"/>
<path d="M272.479 43.0454C279.475 43.3952 285.492 43.5003 290.873 44.0454M297.479 45.0454C295.376 44.5948 293.183 44.2795 290.873 44.0454M295.479 37.5454C295.062 36.9603 294.592 36.4311 294.088 35.9554M290.873 44.0454C290.546 43.7006 290.452 43.1776 290.438 42.5454M290.438 42.5454C290.424 41.9551 290.479 41.2697 290.479 40.5454C290.479 38.5454 289.479 34.5454 285.979 32.5454C288.2 32.5454 291.577 33.5858 294.088 35.9554M290.438 42.5454C293.479 41.0454 294.552 37.4854 294.088 35.9554" stroke="black" stroke-width="0.5"/>
<path d="M290.479 40.5454C285.979 40.5454 283.979 36.5454 282.979 34.0454" stroke="black" stroke-width="0.5"/>
<path d="M132.478 12.6454C118.978 16.6454 106.978 22.5454 92.978 35.5454C99.978 23.5454 115.478 14.0454 130.978 9.04541L132.478 12.6454Z" fill="#EDADBF" stroke="black" stroke-width="0.5"/>
<path d="M130.978 9.04541C110.978 14.7194 92.978 32.0454 84.978 30.0454C97.978 20.5454 113.978 12.0454 130.478 7.54541L130.978 9.04541Z" fill="#EDADBF" stroke="black" stroke-width="0.5"/>
<path d="M9.97869 48.0453H3.97869C1.47803 52.0453 1.47803 62.0453 1.97869 65.5453C0.478027 66.5453 0.478625 71.0453 1.47869 72.5453L5.47869 73.0453V74.5453L1.47869 76.5453V78.5453C5.47869 79.5453 13.9787 81.5453 21.9787 81.0453V79.5453H39.4787C38.812 71.0453 40.4787 60.5453 49.4787 53.5453C46.9787 49.5453 39.9787 45.0453 36.9787 44.5453C26.9787 43.5453 11.9787 46.0453 9.97869 48.0453Z" fill="#EDADBF" stroke="black" stroke-width="0.5"/>
<path d="M92.9795 35.5454C75.1462 36.3787 43.4795 41.2454 32.9795 44.2454L36.9795 44.5454C41.9795 46.0454 47.4795 50.3787 49.4795 53.5454C62.4785 44.0454 87.9785 51.0454 86.4785 78.5454H96.4785C89.4785 67.5454 90.4785 45.5454 92.9795 35.5454Z" fill="#EDADBF" stroke="black" stroke-width="0.5"/>
<path d="M9.97754 48.0455H3.97754C36.4777 28.5454 58.4778 34.5454 84.4775 30.0454L93.4778 35.5454C76.4778 36.5454 47.4775 40.0454 33.4775 44.2454C25.4775 44.0454 11.4775 46.0454 9.97754 48.0455Z" fill="#EDADBF" stroke="black" stroke-width="0.5"/>
<path d="M36.9795 44.5455C29.4795 43.5454 12.4795 45.5454 9.97948 48.0455C9.17948 50.4454 12.3128 53.3787 13.9795 54.5454C23.4795 56.0454 36.9795 50.0454 36.9795 44.5455Z" fill="#EDADBF" stroke="black" stroke-width="0.5"/>
<path d="M3.97872 48.0454C10.9787 49.0454 4.97872 59.5454 1.97872 64.5454C1.47865 57.5454 1.97852 52.0454 3.97872 48.0454Z" fill="#EDADBF" stroke="black" stroke-width="0.5"/>
<path d="M21.978 84.0454V79.5454H39.478L39.978 84.0454H21.978Z" fill="#EDADBF" stroke="black" stroke-width="0.5"/>
<path d="M2.47949 65.5454C3.97949 68.0454 5.97949 71.2121 5.47949 73.0454M21.9795 79.5454C11.4795 80.0454 6.97949 76.0454 7.97949 72.5454C8.47949 72.0454 9.97949 70.5454 10.9795 70.5454" stroke="black" stroke-width="0.5"/>
<path d="M31.9795 74.5455C29.4795 70.5455 23.9795 65.5456 20.9795 64.0456C19.2294 63.5456 16.6044 63.6706 13.8543 64.0456C12.2294 65.3789 10.9795 68.5455 11.4795 71.5455C11.4795 72.7122 12.7869 75.0455 15.4795 75.0455C19.9795 75.0455 26.9795 75.5455 31.9795 74.5455Z" fill="#EDADBF"/>
<path d="M5.97949 65.5456C8.22943 65.0456 11.1043 64.4206 13.8543 64.0456M13.8543 64.0456C16.6044 63.6706 19.2294 63.5456 20.9795 64.0456C23.9795 65.5456 29.4795 70.5455 31.9795 74.5455C26.9795 75.5455 19.9795 75.0455 15.4795 75.0455C12.7869 75.0455 11.4795 72.7122 11.4795 71.5455C10.9795 68.5455 12.2293 65.3789 13.8543 64.0456Z" stroke="black" stroke-width="0.5"/>
<path d="M11.4795 71.0456C19.4795 69.5457 22.9795 72.1741 25.9795 73.6741M12.9795 74.0457L30.4795 73.5457" stroke="black" stroke-width="0.5"/>
<path d="M21.9775 82.5454H31.4775C33.4775 82.5454 34.9775 80.5454 34.4775 79.5454M37.9775 79.5454V84.0454" stroke="black" stroke-width="0.5"/>
<path d="M21.9794 81.0457C17.4794 81.0457 12.9794 81.5457 1.47944 78.5457V76.5457L5.47944 74.5456V73.0457L1.47944 72.5457C0.978516 71.0454 -0.0212885 68.0454 1.97871 65.5454C1.47895 57.5454 1.97895 51.0454 3.97944 48.0452C36.4794 28.5455 58.4794 34.5456 84.4794 30.0456C162.479 -24.9545 244.479 12.0454 281.479 26.5456L294.979 28.5454L295.479 35.5454V38.5454C296.978 43.5454 298.313 48.0454 296.979 50.0454C299.479 51.0454 301.979 54.2121 301.979 56.0454L299.979 66.0454C300.431 76.8933 298.023 77.1176 288.692 77.43C287.701 77.4632 285.632 77.4974 284.479 77.5454V79.0454L259.479 79.4764M21.9794 81.0457V84.0457H39.9778L39.4794 79.5457M21.9794 81.0457V79.5457H39.4794M39.4794 79.5457C36.4794 38.0457 89.9794 41.0457 86.4794 80.0457V82.5454H212.979C206.979 39.0454 261.479 39.0454 259.479 79.4764M258.978 79.4764H259.479" stroke="black"/>
</svg>
