<svg width="304" height="95" viewBox="0 0 304 95" fill="none" xmlns="http://www.w3.org/2000/svg">
<circle cx="63.0742" cy="73.8611" r="20.5" fill="#EDADBF" stroke="black"/>
<circle cx="236.074" cy="73.8611" r="20.5" fill="#EDADBF" stroke="black"/>
<path d="M133.072 12.3609L131.572 8.86094C171.572 0.861052 193.072 1.36108 232.072 12.861L228.572 17.361C208.572 9.36099 190.572 8.36099 174.572 7.86106C172.072 7.36106 168.072 7.36102 165.572 7.86094C155.572 7.86106 143.572 9.36106 133.072 12.3609Z" fill="#EDADBF" stroke="black" stroke-width="0.5"/>
<path d="M131.572 8.86113L131.072 7.36113C167.072 -3.63892 199.572 0.360958 235.072 9.36113L232.072 12.8611C192.072 0.361084 166.072 1.86108 131.572 8.86113Z" fill="#EDADBF" stroke="black" stroke-width="0.5"/>
<path d="M131.572 8.86095C183.072 -2.63908 211.572 7.36096 232.072 12.8609" stroke="black" stroke-width="0.5"/>
<path d="M171.074 29.8611L174.574 7.86108C208.074 8.86108 219.574 14.3611 224.074 15.8611L226.557 27.8611C199.567 27.8617 182.072 29.3612 171.074 29.8611Z" fill="#EDADBF"/>
<path d="M227.074 30.3611L224.074 15.8611C219.574 14.3611 208.074 8.86108 174.574 7.86108L171.074 29.8611C182.074 29.3611 199.574 27.8611 226.574 27.8611" stroke="black" stroke-width="0.5"/>
<path d="M165.574 7.86108C132.574 8.86108 112.574 17.8611 93.5742 35.3611L96.0742 33.3611L160.074 30.3611L165.574 7.86108Z" fill="#EDADBF" stroke="black" stroke-width="0.5"/>
<path d="M240.072 22.3611C236.406 19.6944 230.572 17.3611 224.072 15.8611L226.572 27.8611H233.072C236.072 26.3611 239.072 24.1298 240.072 22.3611Z" fill="#EDADBF" stroke="black" stroke-width="0.5"/>
<path d="M97.0742 78.3611H164.074L198.574 76.8611H213.074L213.574 82.3611H199.574H98.5742H87.0742V78.3611H97.0742Z" fill="#EDADBF"/>
<path d="M97.0742 78.3611H164.074L198.574 76.8611M97.0742 78.3611C97.0742 79.8611 97.5742 80.8611 98.5742 82.3611M97.0742 78.3611H87.0742V82.3611H98.5742M198.574 76.8611L199.574 82.3611M198.574 76.8611H213.074L213.574 82.3611H199.574M199.574 82.3611H98.5742" stroke="black" stroke-width="0.5"/>
<path d="M97.0733 78.3611C92.5742 73.8611 89.5743 51.8611 93.5733 35.3611L165.574 31.3611C161.574 36.3611 160.574 70.3611 164.074 78.3611H97.0733Z" fill="#EDADBF" stroke="black" stroke-width="0.5"/>
<path d="M229.074 30.3611L165.574 31.3611C161.574 36.3611 160.574 70.3611 164.074 78.3611L198.574 76.8611C203.074 75.3611 209.574 69.8611 229.074 30.3611Z" fill="#EDADBF" stroke="black" stroke-width="0.5"/>
<path d="M171.074 29.8612C166.574 30.3612 163.074 30.3612 160.074 30.3612L165.574 7.86116C168.574 7.36108 171.574 7.36108 174.574 7.86116L171.074 29.8612Z" fill="#EDADBF" stroke="black" stroke-width="0.5"/>
<path d="M99.5742 31.8611C104.074 37.3611 111.074 33.8611 115.074 32.3611C116.074 16.861 103.074 24.861 99.5742 31.8611Z" fill="#EDADBF" stroke="black" stroke-width="0.5"/>
<path d="M235.072 9.36108L232.072 12.8611C249.072 18.3611 259.572 21.3611 272.072 27.8611H273.572L281.572 26.3611C266.572 19.8611 259.072 17.3611 235.072 9.36108Z" fill="#EDADBF" stroke="black" stroke-width="0.5"/>
<path d="M272.072 27.8611C261.572 22.3611 242.572 15.8611 232.072 12.8611L230.072 15.3611L245.072 22.8611C243.572 25.3611 239.572 27.3611 233.572 30.0611C245.572 29.3611 262.572 28.3611 272.072 27.8611Z" fill="#EDADBF" stroke="black" stroke-width="0.5"/>
<path d="M277.574 34.1611L283.573 31.8611L273.073 27.8611L229.073 30.3611C221.573 45.3611 206.573 75.8611 198.573 76.8611H213.073C211.573 65.8611 221.073 42.3611 246.074 51.3611C256.574 45.8611 266.574 40.3611 277.574 34.1611Z" fill="#EDADBF" stroke="black" stroke-width="0.5"/>
<path d="M278.572 33.8611C266.572 40.3611 256.572 45.8611 246.072 51.3611C250.572 54.3611 261.072 60.3611 260.072 79.3611L285.072 78.8611V77.3611C293.572 76.3611 302.072 79.8611 300.572 65.8611L302.572 55.8611C302.572 54.3611 300.072 50.3611 297.572 49.8611C299.072 47.3611 296.072 38.3611 296.072 38.3611V36.8611L292.072 33.8611L287.072 32.3611L283.572 31.8611L278.572 33.8611Z" fill="#EDADBF" stroke="black" stroke-width="0.5"/>
<path d="M281.572 26.3611L273.072 27.8611L283.572 31.8611C293.072 32.8611 292.071 34.3611 296.066 36.7813L295.572 28.3611L281.572 26.3611Z" fill="#EDADBF"/>
<path d="M296.072 36.8611L296.066 36.7813M296.066 36.7813L295.572 28.3611L281.572 26.3611L273.072 27.8611L283.572 31.8611C293.072 32.8611 292.071 34.3611 296.066 36.7813Z" stroke="black" stroke-width="0.5"/>
<path d="M294.574 36.3613C294.074 33.8612 283.074 33.6611 277.574 34.1611" stroke="black" stroke-width="0.5"/>
<path d="M300.574 66.3611L261.074 68.3611C260.574 63.3611 258.408 59.1944 256.574 57.3611L302.574 54.8611M301.074 52.3611C290.074 50.8611 279.074 46.0611 267.074 40.0611M229.074 30.3611L273.074 27.8611L281.574 26.3611" stroke="black" stroke-width="0.5"/>
<path d="M291.074 40.3611C291.074 38.3611 290.074 34.3611 286.574 32.3611C288.795 32.3611 292.172 33.4015 294.683 35.7711C295.147 37.3011 294.074 40.8611 291.032 42.3611C291.019 41.7708 291.074 41.0854 291.074 40.3611Z" fill="#EDADBF"/>
<path d="M273.074 42.8611C280.07 43.2109 286.087 43.316 291.467 43.8611M298.074 44.8611C295.971 44.4104 293.778 44.0952 291.467 43.8611M296.074 37.3611C295.656 36.776 295.187 36.2467 294.683 35.7711M291.467 43.8611C291.141 43.5163 291.047 42.9933 291.032 42.3611M291.032 42.3611C291.019 41.7708 291.074 41.0854 291.074 40.3611C291.074 38.3611 290.074 34.3611 286.574 32.3611C288.795 32.3611 292.172 33.4015 294.683 35.7711M291.032 42.3611C294.074 40.8611 295.147 37.3011 294.683 35.7711" stroke="black" stroke-width="0.5"/>
<path d="M291.074 40.3611C286.574 40.3611 284.574 36.3611 283.574 33.8611" stroke="black" stroke-width="0.5"/>
<path d="M133.072 12.4611C119.572 16.4611 107.572 22.3611 93.5723 35.3611C100.572 23.3611 116.072 13.8611 131.572 8.86108L133.072 12.4611Z" stroke="black" stroke-width="0.5"/>
<path d="M131.572 8.86108C111.572 14.5351 93.5723 31.8611 85.5723 29.8611C98.5723 20.3611 114.572 11.8611 131.072 7.36108L131.572 8.86108Z" stroke="black" stroke-width="0.5"/>
<path d="M10.5729 47.861H4.57293C2.07227 51.861 2.07227 61.861 2.57293 65.361C1.07227 66.361 1.07286 70.861 2.07293 72.361L6.07293 72.861V74.361L2.07293 76.361V78.361C6.07293 79.361 14.5729 81.361 22.5729 80.861V79.361H40.0729C39.4063 70.861 41.0729 60.361 50.0729 53.361C47.5729 49.361 40.5729 44.861 37.5729 44.361C27.5729 43.361 12.5729 45.861 10.5729 47.861Z" stroke="black" stroke-width="0.5"/>
<path d="M93.5742 35.3611C75.7409 36.1944 44.0742 41.0611 33.5742 44.0611L37.5742 44.3611C42.5742 45.8611 48.0742 50.1944 50.0742 53.3611C63.0732 43.8611 88.5732 50.8611 87.0732 78.3611H97.0732C90.0732 67.3611 91.0732 45.3611 93.5742 35.3611Z" stroke="black" stroke-width="0.5"/>
<path d="M10.5723 47.8611H4.57227C37.0724 28.361 59.0725 34.3611 85.0723 29.8611L94.0725 35.3611C77.0725 36.3611 48.0723 39.8611 34.0723 44.0611C26.0723 43.8611 12.0723 45.8611 10.5723 47.8611Z" stroke="black" stroke-width="0.5"/>
<path d="M37.5737 44.3612C30.0737 43.3611 13.0737 45.3611 10.5737 47.8612C9.77372 50.2611 12.9071 53.1944 14.5737 54.3611C24.0737 55.8611 37.5737 49.8611 37.5737 44.3612Z" stroke="black" stroke-width="0.5"/>
<path d="M4.57296 47.8611C11.573 48.8611 5.57296 59.3611 2.57296 64.3611C2.07289 57.3611 2.57275 51.8611 4.57296 47.8611Z" stroke="black" stroke-width="0.5"/>
<path d="M22.5723 83.8611V79.3611H40.0723L40.5723 83.8611H22.5723Z" stroke="black" stroke-width="0.5"/>
<path d="M3.07422 65.3608C4.57422 67.8608 6.57422 71.0275 6.07422 72.8608M22.5742 79.3608C12.0742 79.8608 7.57422 75.8608 8.57422 72.3608C9.07422 71.8608 10.5742 70.3608 11.5742 70.3608" stroke="black" stroke-width="0.5"/>
<path d="M6.57422 65.361C8.82416 64.861 11.6991 64.236 14.449 63.861M14.449 63.861C17.1991 63.486 19.8242 63.361 21.5742 63.861C24.5742 65.361 30.0742 70.361 32.5742 74.361C27.5742 75.361 20.5742 74.861 16.0742 74.861C13.3816 74.861 12.0742 72.5276 12.0742 71.361C11.5742 68.361 12.8241 65.1943 14.449 63.861Z" stroke="black" stroke-width="0.5"/>
<path d="M12.0742 70.861C20.0742 69.3611 23.5742 71.9896 26.5742 73.4896M13.5742 73.8611L31.0742 73.3611" stroke="black" stroke-width="0.5"/>
<path d="M22.5723 82.3608H32.0723C34.0723 82.3608 35.5723 80.3608 35.0723 79.3608M38.5723 79.3608V83.8608" stroke="black" stroke-width="0.5"/>
<path d="M22.5742 80.8613C18.0742 80.8613 13.5742 81.3613 2.07416 78.3613V76.3613L6.07417 74.3613V72.8613L2.07416 72.3613C1.57324 70.8611 0.573438 67.8611 2.57343 65.3611C2.07368 57.3611 2.57368 50.8611 4.57417 47.8608C37.0742 28.3612 59.0742 34.3613 85.0742 29.8613C163.074 -25.1388 245.074 11.8611 282.074 26.3613L295.574 28.3611L296.074 35.3611V38.3611C297.573 43.3611 298.908 47.8611 297.574 49.8611C300.074 50.8611 302.574 54.0278 302.574 55.8611L300.574 65.8611C301.026 76.709 298.618 76.9333 289.286 77.2457C288.295 77.2789 286.226 77.3131 285.074 77.3611V78.8611L260.074 79.2921M22.5742 80.8613V83.8613H40.5725L40.0742 79.3613M22.5742 80.8613V79.3613H40.0742M40.0742 79.3613C37.0742 37.8613 90.5742 40.8613 87.0742 79.8613V82.3611H213.574C207.574 38.8611 262.074 38.8611 260.074 79.2921M259.573 79.2921H260.074" stroke="black"/>
</svg>
