<svg width="304" height="96" viewBox="0 0 304 96" fill="none" xmlns="http://www.w3.org/2000/svg">
<circle cx="63.0835" cy="74.0151" r="20.5" fill="#EDADBF" stroke="black"/>
<circle cx="236.083" cy="74.0151" r="20.5" fill="#EDADBF" stroke="black"/>
<path d="M133.082 12.515L131.582 9.01499C171.582 1.0151 193.082 1.51514 232.082 13.0151L228.582 17.5151C208.582 9.51505 190.582 8.51505 174.582 8.01511C172.082 7.51511 168.082 7.51508 165.582 8.01499C155.582 8.01511 143.582 9.51511 133.082 12.515Z" fill="#EFC7D3" stroke="black" stroke-width="0.5"/>
<path d="M131.582 9.01518L131.082 7.51518C167.082 -3.48486 199.582 0.515011 235.082 9.51518L232.082 13.0152C192.082 0.515137 166.082 2.01514 131.582 9.01518Z" fill="#EFC7D3" stroke="black" stroke-width="0.5"/>
<path d="M131.582 9.01512C183.082 -2.4849 211.582 7.51514 232.082 13.0151" stroke="black" stroke-width="0.5"/>
<path d="M171.083 30.0151L174.583 8.01514C208.083 9.01514 219.583 14.5151 224.083 16.0151L226.566 28.0151C199.576 28.0158 182.081 29.5152 171.083 30.0151Z" fill="#EFC7D3"/>
<path d="M227.083 30.5151L224.083 16.0151C219.583 14.5151 208.083 9.01514 174.583 8.01514L171.083 30.0151C182.083 29.5151 199.583 28.0151 226.583 28.0151" stroke="black" stroke-width="0.5"/>
<path d="M165.583 8.01514C132.583 9.01514 112.583 18.0151 93.5835 35.5151L96.0835 33.5151L160.083 30.5151L165.583 8.01514Z" fill="#EFC7D3" stroke="black" stroke-width="0.5"/>
<path d="M240.082 22.5151C236.415 19.8485 230.582 17.5151 224.082 16.0151L226.582 28.0151H233.082C236.082 26.5151 239.082 24.2839 240.082 22.5151Z" fill="#EFC7D3" stroke="black" stroke-width="0.5"/>
<path d="M97.0835 78.5151H164.083L198.583 77.0151H213.083L213.583 82.5151H199.583H98.5835H87.0835V78.5151H97.0835Z" fill="#EFC7D3"/>
<path d="M97.0835 78.5151H164.083L198.583 77.0151M97.0835 78.5151C97.0835 80.0151 97.5835 81.0151 98.5835 82.5151M97.0835 78.5151H87.0835V82.5151H98.5835M198.583 77.0151L199.583 82.5151M198.583 77.0151H213.083L213.583 82.5151H199.583M199.583 82.5151H98.5835" stroke="black" stroke-width="0.5"/>
<path d="M97.0826 78.5151C92.5835 74.0151 89.5835 52.0151 93.5826 35.5151L165.583 31.5151C161.583 36.5151 160.583 70.5151 164.083 78.5151H97.0826Z" fill="#EFC7D3" stroke="black" stroke-width="0.5"/>
<path d="M229.083 30.5151L165.583 31.5151C161.583 36.5151 160.583 70.5151 164.083 78.5151L198.583 77.0151C203.083 75.5151 209.583 70.0151 229.083 30.5151Z" fill="#EFC7D3" stroke="black" stroke-width="0.5"/>
<path d="M171.083 30.0152C166.583 30.5152 163.083 30.5152 160.083 30.5152L165.583 8.01521C168.583 7.51514 171.583 7.51514 174.583 8.01521L171.083 30.0152Z" fill="#EFC7D3" stroke="black" stroke-width="0.5"/>
<path d="M99.5835 32.0153C104.083 37.5153 111.083 34.0153 115.083 32.5153C116.083 17.0152 103.083 25.0151 99.5835 32.0153Z" fill="#EFC7D3" stroke="black" stroke-width="0.5"/>
<path d="M235.082 9.51514L232.082 13.0151C249.082 18.5151 259.582 21.5151 272.082 28.0151H273.582L281.582 26.5151C266.582 20.0151 259.082 17.5151 235.082 9.51514Z" fill="#EFC7D3" stroke="black" stroke-width="0.5"/>
<path d="M272.082 28.0151C261.582 22.5151 242.582 16.0151 232.082 13.0151L230.082 15.5151L245.082 23.0151C243.582 25.5151 239.582 27.5151 233.582 30.2151C245.582 29.5151 262.582 28.5151 272.082 28.0151Z" fill="#EFC7D3" stroke="black" stroke-width="0.5"/>
<path d="M277.583 34.3151L283.582 32.0151L273.083 28.0151L229.083 30.5151C221.583 45.5151 206.583 76.0151 198.583 77.0151H213.083C211.583 66.0151 221.083 42.5151 246.083 51.5151C256.583 46.0151 266.583 40.5151 277.583 34.3151Z" fill="#EFC7D3" stroke="black" stroke-width="0.5"/>
<path d="M278.582 34.0152C266.582 40.5152 256.582 46.0152 246.082 51.5152C250.582 54.5151 261.082 60.5151 260.082 79.5151L285.082 79.0151V77.5151C293.582 76.5151 302.082 80.0151 300.582 66.0151L302.582 56.0151C302.582 54.5151 300.082 50.5151 297.582 50.0151C299.082 47.5151 296.082 38.5151 296.082 38.5151V37.0151L292.082 34.0151L287.082 32.5151L283.582 32.0151L278.582 34.0152Z" fill="#EFC7D3" stroke="black" stroke-width="0.5"/>
<path d="M281.582 26.5151L273.082 28.0151L283.582 32.0151C293.082 33.0151 292.081 34.5151 296.076 36.9353L295.582 28.5151L281.582 26.5151Z" fill="#EFC7D3"/>
<path d="M296.082 37.0151L296.076 36.9353M296.076 36.9353L295.582 28.5151L281.582 26.5151L273.082 28.0151L283.582 32.0151C293.082 33.0151 292.081 34.5151 296.076 36.9353Z" stroke="black" stroke-width="0.5"/>
<path d="M294.583 36.5153C294.083 34.0152 283.083 33.8151 277.583 34.3151" stroke="black" stroke-width="0.5"/>
<path d="M300.583 66.5151L261.083 68.5151C260.583 63.5151 258.417 59.3485 256.583 57.5151L302.583 55.0151M301.083 52.5151C290.083 51.0151 279.083 46.2151 267.083 40.2151M229.083 30.5151L273.083 28.0151L281.583 26.5151" stroke="black" stroke-width="0.5"/>
<path d="M291.083 40.5151C291.083 38.5151 290.083 34.5151 286.583 32.5151C288.804 32.5151 292.181 33.5555 294.692 35.9251C295.156 37.4551 294.083 41.0151 291.042 42.5151C291.028 41.9249 291.083 41.2394 291.083 40.5151Z" fill="#EFC7D3"/>
<path d="M273.083 43.0151C280.079 43.3649 286.096 43.47 291.477 44.0151M298.083 45.0151C295.981 44.5645 293.787 44.2492 291.477 44.0151M296.083 37.5151C295.666 36.93 295.196 36.4008 294.692 35.9251M291.477 44.0151C291.15 43.6704 291.056 43.1473 291.042 42.5151M291.042 42.5151C291.028 41.9249 291.083 41.2394 291.083 40.5151C291.083 38.5151 290.083 34.5151 286.583 32.5151C288.804 32.5151 292.181 33.5555 294.692 35.9251M291.042 42.5151C294.083 41.0151 295.156 37.4551 294.692 35.9251" stroke="black" stroke-width="0.5"/>
<path d="M291.083 40.5151C286.583 40.5151 284.583 36.5151 283.583 34.0151" stroke="black" stroke-width="0.5"/>
<path d="M133.082 12.6151C119.582 16.6151 107.582 22.5151 93.582 35.5151C100.582 23.5151 116.082 14.0151 131.582 9.01514L133.082 12.6151Z" stroke="black" stroke-width="0.5"/>
<path d="M131.582 9.01514C111.582 14.6892 93.582 32.0151 85.582 30.0151C98.582 20.5151 114.582 12.0151 131.082 7.51514L131.582 9.01514Z" stroke="black" stroke-width="0.5"/>
<path d="M10.5827 48.0151H4.5827C2.08203 52.0151 2.08203 62.0151 2.5827 65.5151C1.08203 66.5151 1.08263 71.0151 2.0827 72.5151L6.0827 73.0151V74.5151L2.0827 76.5151V78.5151C6.0827 79.5151 14.5827 81.5151 22.5827 81.0151V79.5151H40.0827C39.416 71.0151 41.0827 60.5151 50.0827 53.5151C47.5827 49.5151 40.5827 45.0151 37.5827 44.5151C27.5827 43.5151 12.5827 46.0151 10.5827 48.0151Z" stroke="black" stroke-width="0.5"/>
<path d="M93.5835 35.5151C75.7502 36.3485 44.0835 41.2151 33.5835 44.2151L37.5835 44.5151C42.5835 46.0151 48.0835 50.3485 50.0835 53.5151C63.0825 44.0151 88.5825 51.0151 87.0825 78.5151H97.0825C90.0825 67.5151 91.0825 45.5151 93.5835 35.5151Z" stroke="black" stroke-width="0.5"/>
<path d="M10.582 48.0152H4.58203C37.0822 28.5151 59.0823 34.5151 85.082 30.0151L94.0823 35.5151C77.0823 36.5151 48.082 40.0151 34.082 44.2151C26.082 44.0151 12.082 46.0151 10.582 48.0152Z" stroke="black" stroke-width="0.5"/>
<path d="M37.5835 44.5152C30.0835 43.5151 13.0835 45.5151 10.5835 48.0152C9.78349 50.4152 12.9168 53.3485 14.5835 54.5151C24.0835 56.0151 37.5835 50.0151 37.5835 44.5152Z" stroke="black" stroke-width="0.5"/>
<path d="M4.58273 48.0151C11.5827 49.0151 5.58273 59.5151 2.58273 64.5151C2.08266 57.5151 2.58252 52.0151 4.58273 48.0151Z" stroke="black" stroke-width="0.5"/>
<path d="M22.582 84.0151V79.5151H40.082L40.582 84.0151H22.582Z" stroke="black" stroke-width="0.5"/>
<path d="M3.08398 65.5151C4.58398 68.0151 6.58398 71.1818 6.08398 73.0151M22.584 79.5151C12.084 80.0151 7.58398 76.0151 8.58398 72.5151C9.08398 72.0151 10.584 70.5151 11.584 70.5151" stroke="black" stroke-width="0.5"/>
<path d="M6.58398 65.5152C8.83393 65.0152 11.7088 64.3902 14.4588 64.0152M14.4588 64.0152C17.2088 63.6402 19.8339 63.5152 21.584 64.0152C24.584 65.5152 30.084 70.5151 32.584 74.5151C27.584 75.5151 20.584 75.0151 16.084 75.0151C13.3914 75.0151 12.084 72.6818 12.084 71.5151C11.584 68.5151 12.8338 65.3485 14.4588 64.0152Z" stroke="black" stroke-width="0.5"/>
<path d="M12.084 71.0152C20.084 69.5153 23.584 72.1437 26.584 73.6437M13.584 74.0153L31.084 73.5153" stroke="black" stroke-width="0.5"/>
<path d="M22.582 82.5151H32.082C34.082 82.5151 35.582 80.5151 35.082 79.5151M38.582 79.5151V84.0151" stroke="black" stroke-width="0.5"/>
<path d="M22.5834 81.0154C18.0834 81.0154 13.5834 81.5154 2.08344 78.5154V76.5154L6.08344 74.5154V73.0154L2.08344 72.5154C1.58252 71.0151 0.582715 68.0151 2.58271 65.5151C2.08295 57.5151 2.58295 51.0151 4.58344 48.0149C37.0834 28.5153 59.0834 34.5153 85.0834 30.0153C163.083 -24.9848 245.083 12.0151 282.083 26.5153L295.583 28.5151L296.083 35.5151V38.5151C297.582 43.5151 298.917 48.0151 297.583 50.0151C300.083 51.0151 302.583 54.1818 302.583 56.0151L300.583 66.0151C301.035 76.863 298.627 77.0873 289.296 77.3998C288.305 77.433 286.236 77.4671 285.083 77.5151V79.0151L260.083 79.4462M22.5834 81.0154V84.0154H40.5818L40.0835 79.5154M22.5834 81.0154V79.5154H40.0835M40.0835 79.5154C37.0835 38.0154 90.5834 41.0154 87.0834 80.0154V82.5151H213.583C207.583 39.0151 262.083 39.0151 260.083 79.4462M259.582 79.4462H260.083" stroke="black"/>
</svg>
