<svg width="304" height="95" viewBox="0 0 304 95" fill="none" xmlns="http://www.w3.org/2000/svg">
<circle cx="63.0742" cy="73.6768" r="20.5" fill="#EDADBF" stroke="black"/>
<circle cx="236.074" cy="73.6768" r="20.5" fill="#EDADBF" stroke="black"/>
<path d="M133.072 12.1766L131.572 8.67661C171.572 0.676725 193.072 1.17676 232.072 12.6767L228.572 17.1767C208.572 9.17667 190.572 8.17667 174.572 7.67673C172.072 7.17673 168.072 7.1767 165.572 7.67661C155.572 7.67673 143.572 9.17674 133.072 12.1766Z" stroke="black" stroke-width="0.5"/>
<path d="M131.572 8.6768L131.072 7.1768C167.072 -3.82324 199.572 0.176632 235.072 9.1768L232.072 12.6768C192.072 0.176758 166.072 1.67676 131.572 8.6768Z" stroke="black" stroke-width="0.5"/>
<path d="M131.572 8.67675C183.072 -2.82328 211.572 7.17676 232.072 12.6767" stroke="black" stroke-width="0.5"/>
<path d="M227.074 30.1768L224.074 15.6768C219.574 14.1768 208.074 8.67676 174.574 7.67676L171.074 29.6768C182.074 29.1768 199.574 27.6768 226.574 27.6768" stroke="black" stroke-width="0.5"/>
<path d="M165.574 7.67676C132.574 8.67676 112.574 17.6768 93.5742 35.1768L96.0742 33.1768L160.074 30.1768L165.574 7.67676Z" stroke="black" stroke-width="0.5"/>
<path d="M240.072 22.1768C236.406 19.5101 230.572 17.1768 224.072 15.6768L226.572 27.6768H233.072C236.072 26.1768 239.072 23.9455 240.072 22.1768Z" stroke="black" stroke-width="0.5"/>
<path d="M97.0742 78.1768H164.074L198.574 76.6768M97.0742 78.1768C97.0742 79.6768 97.5742 80.6768 98.5742 82.1768M97.0742 78.1768H87.0742V82.1768H98.5742M198.574 76.6768L199.574 82.1768M198.574 76.6768H213.074L213.574 82.1768H199.574M199.574 82.1768H98.5742" stroke="black" stroke-width="0.5"/>
<path d="M97.0733 78.1768C92.5742 73.6768 89.5743 51.6768 93.5733 35.1768L165.574 31.1768C161.574 36.1768 160.574 70.1768 164.074 78.1768H97.0733Z" stroke="black" stroke-width="0.5"/>
<path d="M229.074 30.1768L165.574 31.1768C161.574 36.1768 160.574 70.1768 164.074 78.1768L198.574 76.6768C203.074 75.1768 209.574 69.6768 229.074 30.1768Z" stroke="black" stroke-width="0.5"/>
<path d="M171.074 29.6768C166.574 30.1768 163.074 30.1768 160.074 30.1768L165.574 7.67683C168.574 7.17676 171.574 7.17676 174.574 7.67683L171.074 29.6768Z" stroke="black" stroke-width="0.5"/>
<path d="M99.5742 31.6769C104.074 37.1769 111.074 33.6769 115.074 32.1769C116.074 16.6768 103.074 24.6768 99.5742 31.6769Z" stroke="black" stroke-width="0.5"/>
<path d="M235.072 9.17676L232.072 12.6768C249.072 18.1768 259.572 21.1768 272.072 27.6768H273.572L281.572 26.1768C266.572 19.6768 259.072 17.1768 235.072 9.17676Z" fill="#EDADBF" stroke="black" stroke-width="0.5"/>
<path d="M272.072 27.6768C261.572 22.1768 242.572 15.6768 232.072 12.6768L230.072 15.1768L245.072 22.6768C243.572 25.1768 239.572 27.1768 233.572 29.8768C245.572 29.1768 262.572 28.1768 272.072 27.6768Z" fill="#EDADBF" stroke="black" stroke-width="0.5"/>
<path d="M277.574 33.9768L283.573 31.6768L273.073 27.6768L229.073 30.1768C221.573 45.1768 206.573 75.6768 198.573 76.6768H213.073C211.573 65.6768 221.073 42.1768 246.074 51.1768C256.574 45.6768 266.574 40.1768 277.574 33.9768Z" fill="#EDADBF" stroke="black" stroke-width="0.5"/>
<path d="M278.572 33.6768C266.572 40.1768 256.572 45.6768 246.072 51.1768C250.572 54.1768 261.072 60.1768 260.072 79.1768L285.072 78.6768V77.1768C293.572 76.1768 302.072 79.6768 300.572 65.6768L302.572 55.6768C302.572 54.1768 300.072 50.1768 297.572 49.6768C299.072 47.1768 296.072 38.1768 296.072 38.1768V36.6768L292.072 33.6768L287.072 32.1768L283.572 31.6768L278.572 33.6768Z" fill="#EDADBF" stroke="black" stroke-width="0.5"/>
<path d="M281.572 26.1768L273.072 27.6768L283.572 31.6768C293.072 32.6768 292.071 34.1768 296.066 36.5969L295.572 28.1768L281.572 26.1768Z" fill="#EDADBF"/>
<path d="M296.072 36.6768L296.066 36.5969M296.066 36.5969L295.572 28.1768L281.572 26.1768L273.072 27.6768L283.572 31.6768C293.072 32.6768 292.071 34.1768 296.066 36.5969Z" stroke="black" stroke-width="0.5"/>
<path d="M294.574 36.177C294.074 33.6768 283.074 33.4768 277.574 33.9768" stroke="black" stroke-width="0.5"/>
<path d="M300.574 66.1768L261.074 68.1768C260.574 63.1768 258.408 59.0101 256.574 57.1768L302.574 54.6768M301.074 52.1768C290.074 50.6768 279.074 45.8768 267.074 39.8768M229.074 30.1768L273.074 27.6768L281.574 26.1768" stroke="black" stroke-width="0.5"/>
<path d="M291.074 40.1768C291.074 38.1768 290.074 34.1768 286.574 32.1768C288.795 32.1768 292.172 33.2171 294.683 35.5867C295.147 37.1167 294.074 40.6768 291.032 42.1768C291.019 41.5865 291.074 40.901 291.074 40.1768Z" fill="#EDADBF"/>
<path d="M273.074 42.6768C280.07 43.0265 286.087 43.1316 291.467 43.6768M298.074 44.6768C295.971 44.2261 293.778 43.9109 291.467 43.6768M296.074 37.1768C295.656 36.5916 295.187 36.0624 294.683 35.5867M291.467 43.6768C291.141 43.332 291.047 42.8089 291.032 42.1768M291.032 42.1768C291.019 41.5865 291.074 40.901 291.074 40.1768C291.074 38.1768 290.074 34.1768 286.574 32.1768C288.795 32.1768 292.172 33.2171 294.683 35.5867M291.032 42.1768C294.074 40.6768 295.147 37.1167 294.683 35.5867" stroke="black" stroke-width="0.5"/>
<path d="M291.074 40.1768C286.574 40.1768 284.574 36.1768 283.574 33.6768" stroke="black" stroke-width="0.5"/>
<path d="M133.072 12.2767C119.572 16.2767 107.572 22.1768 93.5723 35.1768C100.572 23.1768 116.072 13.6768 131.572 8.67676L133.072 12.2767Z" fill="#E56E90" stroke="black" stroke-width="0.5"/>
<path d="M131.572 8.67676C111.572 14.3508 93.5723 31.6768 85.5723 29.6768C98.5723 20.1768 114.572 11.6768 131.072 7.17676L131.572 8.67676Z" fill="#E56E90" stroke="black" stroke-width="0.5"/>
<path d="M10.5729 47.6768H4.57293C2.07227 51.6768 2.07227 61.6768 2.57293 65.1768C1.07227 66.1768 1.07286 70.6768 2.07293 72.1768L6.07293 72.6768V74.1768L2.07293 76.1768V78.1768C6.07293 79.1768 14.5729 81.1768 22.5729 80.6768V79.1768H40.0729C39.4063 70.6768 41.0729 60.1768 50.0729 53.1768C47.5729 49.1768 40.5729 44.6768 37.5729 44.1768C27.5729 43.1768 12.5729 45.6768 10.5729 47.6768Z" fill="#E56E90" stroke="black" stroke-width="0.5"/>
<path d="M93.5742 35.1768C75.7409 36.0101 44.0742 40.8768 33.5742 43.8768L37.5742 44.1768C42.5742 45.6768 48.0742 50.0101 50.0742 53.1768C63.0732 43.6768 88.5732 50.6768 87.0732 78.1768H97.0732C90.0732 67.1768 91.0732 45.1768 93.5742 35.1768Z" fill="#E56E90" stroke="black" stroke-width="0.5"/>
<path d="M10.5723 47.6768H4.57227C37.0724 28.1767 59.0725 34.1768 85.0723 29.6768L94.0725 35.1768C77.0725 36.1768 48.0723 39.6768 34.0723 43.8768C26.0723 43.6767 12.0723 45.6768 10.5723 47.6768Z" fill="#E56E90" stroke="black" stroke-width="0.5"/>
<path d="M37.5737 44.1768C30.0737 43.1768 13.0737 45.1768 10.5737 47.6768C9.77372 50.0768 12.9071 53.0101 14.5737 54.1768C24.0737 55.6768 37.5737 49.6768 37.5737 44.1768Z" fill="#E56E90" stroke="black" stroke-width="0.5"/>
<path d="M4.57296 47.6768C11.573 48.6768 5.57296 59.1768 2.57296 64.1768C2.07289 57.1768 2.57275 51.6768 4.57296 47.6768Z" fill="#E56E90" stroke="black" stroke-width="0.5"/>
<path d="M22.5723 83.6768V79.1768H40.0723L40.5723 83.6768H22.5723Z" fill="#E56E90" stroke="black" stroke-width="0.5"/>
<path d="M3.07422 65.1768C4.57422 67.6768 6.57422 70.8434 6.07422 72.6768M22.5742 79.1768C12.0742 79.6768 7.57422 75.6768 8.57422 72.1768C9.07422 71.6768 10.5742 70.1768 11.5742 70.1768" stroke="black" stroke-width="0.5"/>
<path d="M32.5742 74.1768C30.0742 70.1768 24.5742 65.1768 21.5742 63.6768C19.8242 63.1768 17.1991 63.3018 14.449 63.6768C12.8241 65.0101 11.5742 68.1768 12.0742 71.1768C12.0742 72.3434 13.3816 74.6768 16.0742 74.6768C20.5742 74.6768 27.5742 75.1768 32.5742 74.1768Z" fill="#E56E90"/>
<path d="M6.57422 65.1768C8.82416 64.6768 11.6991 64.0518 14.449 63.6768M14.449 63.6768C17.1991 63.3018 19.8242 63.1768 21.5742 63.6768C24.5742 65.1768 30.0742 70.1768 32.5742 74.1768C27.5742 75.1768 20.5742 74.6768 16.0742 74.6768C13.3816 74.6768 12.0742 72.3434 12.0742 71.1768C11.5742 68.1768 12.8241 65.0101 14.449 63.6768Z" stroke="black" stroke-width="0.5"/>
<path d="M12.0742 70.6768C20.0742 69.1769 23.5742 71.8054 26.5742 73.3054M13.5742 73.6769L31.0742 73.1769" stroke="black" stroke-width="0.5"/>
<path d="M22.5723 82.1768H32.0723C34.0723 82.1768 35.5723 80.1768 35.0723 79.1768M38.5723 79.1768V83.6768" stroke="black" stroke-width="0.5"/>
<path d="M22.5742 80.677C18.0742 80.677 13.5742 81.177 2.07416 78.177V76.177L6.07417 74.177V72.677L2.07416 72.177C1.57324 70.6768 0.573438 67.6768 2.57343 65.1768C2.07368 57.1768 2.57368 50.6768 4.57417 47.6765C37.0742 28.1769 59.0742 34.1769 85.0742 29.6769C163.074 -25.3232 245.074 11.6767 282.074 26.1769L295.574 28.1768L296.074 35.1768V38.1768C297.573 43.1768 298.908 47.6768 297.574 49.6768C300.074 50.6768 302.574 53.8434 302.574 55.6768L300.574 65.6768C301.026 76.5247 298.618 76.7489 289.286 77.0614C288.295 77.0946 286.226 77.1288 285.074 77.1768V78.6768L260.074 79.1078M22.5742 80.677V83.677H40.5725L40.0742 79.177M22.5742 80.677V79.177H40.0742M40.0742 79.177C37.0742 37.677 90.5742 40.677 87.0742 79.677V82.1768H213.574C207.574 38.6768 262.074 38.6768 260.074 79.1078M259.573 79.1078H260.074" stroke="black"/>
</svg>
