<svg width="304" height="95" viewBox="0 0 304 95" fill="none" xmlns="http://www.w3.org/2000/svg">
<circle cx="63.0835" cy="73.707" r="20.5" fill="#EDADBF" stroke="black"/>
<circle cx="236.083" cy="73.707" r="20.5" fill="#EDADBF" stroke="black"/>
<path d="M133.082 12.2069L131.582 8.70689C171.582 0.706999 193.082 1.20703 232.082 12.707L228.582 17.207C208.582 9.20694 190.582 8.20694 174.582 7.70701C172.082 7.20701 168.082 7.20697 165.582 7.70689C155.582 7.70701 143.582 9.20701 133.082 12.2069Z" fill="#E56E90" stroke="black" stroke-width="0.5"/>
<path d="M131.582 8.70708L131.082 7.20708C167.082 -3.79297 199.582 0.206905 235.082 9.20708L232.082 12.7071C192.082 0.207031 166.082 1.70703 131.582 8.70708Z" fill="#E56E90" stroke="black" stroke-width="0.5"/>
<path d="M131.582 8.70714C183.082 -2.79288 211.582 7.20715 232.082 12.7071" stroke="black" stroke-width="0.5"/>
<path d="M171.083 29.707L174.583 7.70703C208.083 8.70703 219.583 14.207 224.083 15.707L226.566 27.707C199.576 27.7077 182.081 29.2071 171.083 29.707Z" fill="#E56E90"/>
<path d="M227.083 30.207L224.083 15.707C219.583 14.207 208.083 8.70703 174.583 7.70703L171.083 29.707C182.083 29.207 199.583 27.707 226.583 27.707" stroke="black" stroke-width="0.5"/>
<path d="M165.583 7.70703C132.583 8.70703 112.583 17.707 93.5835 35.207L96.0835 33.207L160.083 30.207L165.583 7.70703Z" fill="#E56E90" stroke="black" stroke-width="0.5"/>
<path d="M240.082 22.207C236.415 19.5404 230.582 17.207 224.082 15.707L226.582 27.707H233.082C236.082 26.207 239.082 23.9758 240.082 22.207Z" fill="#E56E90" stroke="black" stroke-width="0.5"/>
<path d="M97.0835 78.207H164.083L198.583 76.707H213.083L213.583 82.207H199.583H98.5835H87.0835V78.207H97.0835Z" fill="#E56E90"/>
<path d="M97.0835 78.207H164.083L198.583 76.707M97.0835 78.207C97.0835 79.707 97.5835 80.707 98.5835 82.207M97.0835 78.207H87.0835V82.207H98.5835M198.583 76.707L199.583 82.207M198.583 76.707H213.083L213.583 82.207H199.583M199.583 82.207H98.5835" stroke="black" stroke-width="0.5"/>
<path d="M97.0826 78.207C92.5835 73.707 89.5835 51.707 93.5826 35.207L165.583 31.207C161.583 36.207 160.583 70.207 164.083 78.207H97.0826Z" fill="#E56E90" stroke="black" stroke-width="0.5"/>
<path d="M229.083 30.207L165.583 31.207C161.583 36.207 160.583 70.207 164.083 78.207L198.583 76.707C203.083 75.207 209.583 69.707 229.083 30.207Z" fill="#E56E90" stroke="black" stroke-width="0.5"/>
<path d="M171.083 29.7071C166.583 30.2071 163.083 30.2071 160.083 30.2071L165.583 7.70711C168.583 7.20703 171.583 7.20703 174.583 7.70711L171.083 29.7071Z" fill="#E56E90" stroke="black" stroke-width="0.5"/>
<path d="M99.5835 31.7073C104.083 37.2073 111.083 33.7073 115.083 32.2073C116.083 16.7072 103.083 24.7072 99.5835 31.7073Z" fill="#E56E90" stroke="black" stroke-width="0.5"/>
<path d="M235.082 9.20703L232.082 12.707C249.082 18.207 259.582 21.207 272.082 27.707H273.582L281.582 26.207C266.582 19.707 259.082 17.207 235.082 9.20703Z" fill="#EFC7D3" stroke="black" stroke-width="0.5"/>
<path d="M272.082 27.707C261.582 22.207 242.582 15.707 232.082 12.707L230.082 15.207L245.082 22.707C243.582 25.207 239.582 27.207 233.582 29.907C245.582 29.207 262.582 28.207 272.082 27.707Z" fill="#EFC7D3" stroke="black" stroke-width="0.5"/>
<path d="M277.583 34.007L283.582 31.707L273.083 27.707L229.083 30.207C221.583 45.207 206.583 75.707 198.583 76.707H213.083C211.583 65.707 221.083 42.207 246.083 51.207C256.583 45.707 266.583 40.207 277.583 34.007Z" fill="#EFC7D3" stroke="black" stroke-width="0.5"/>
<path d="M278.582 33.7071C266.582 40.2071 256.582 45.7071 246.082 51.2071C250.582 54.207 261.082 60.207 260.082 79.207L285.082 78.707V77.207C293.582 76.207 302.082 79.707 300.582 65.707L302.582 55.707C302.582 54.207 300.082 50.207 297.582 49.707C299.082 47.207 296.082 38.207 296.082 38.207V36.707L292.082 33.707L287.082 32.207L283.582 31.707L278.582 33.7071Z" fill="#EFC7D3" stroke="black" stroke-width="0.5"/>
<path d="M281.582 26.207L273.082 27.707L283.582 31.707C293.082 32.707 292.081 34.207 296.076 36.6272L295.582 28.207L281.582 26.207Z" fill="#EFC7D3"/>
<path d="M296.082 36.707L296.076 36.6272M296.076 36.6272L295.582 28.207L281.582 26.207L273.082 27.707L283.582 31.707C293.082 32.707 292.081 34.207 296.076 36.6272Z" stroke="black" stroke-width="0.5"/>
<path d="M294.583 36.2072C294.083 33.7071 283.083 33.507 277.583 34.007" stroke="black" stroke-width="0.5"/>
<path d="M300.583 66.207L261.083 68.207C260.583 63.207 258.417 59.0404 256.583 57.207L302.583 54.707M301.083 52.207C290.083 50.707 279.083 45.907 267.083 39.907M229.083 30.207L273.083 27.707L281.583 26.207" stroke="black" stroke-width="0.5"/>
<path d="M291.083 40.207C291.083 38.207 290.083 34.207 286.583 32.207C288.804 32.207 292.181 33.2474 294.692 35.617C295.156 37.147 294.083 40.707 291.042 42.207C291.028 41.6167 291.083 40.9313 291.083 40.207Z" fill="#EFC7D3"/>
<path d="M273.083 42.707C280.079 43.0568 286.096 43.1619 291.477 43.707M298.083 44.707C295.981 44.2564 293.787 43.9411 291.477 43.707M296.083 37.207C295.666 36.6219 295.196 36.0927 294.692 35.617M291.477 43.707C291.15 43.3623 291.056 42.8392 291.042 42.207M291.042 42.207C291.028 41.6168 291.083 40.9313 291.083 40.207C291.083 38.207 290.083 34.207 286.583 32.207C288.804 32.207 292.181 33.2474 294.692 35.617M291.042 42.207C294.083 40.707 295.156 37.147 294.692 35.617" stroke="black" stroke-width="0.5"/>
<path d="M291.083 40.207C286.583 40.207 284.583 36.207 283.583 33.707" stroke="black" stroke-width="0.5"/>
<path d="M133.082 12.307C119.582 16.307 107.582 22.207 93.582 35.207C100.582 23.207 116.082 13.707 131.582 8.70703L133.082 12.307Z" stroke="black" stroke-width="0.5"/>
<path d="M131.582 8.70703C111.582 14.3811 93.582 31.707 85.582 29.707C98.582 20.207 114.582 11.707 131.082 7.20703L131.582 8.70703Z" stroke="black" stroke-width="0.5"/>
<path d="M10.5827 47.7069H4.5827C2.08203 51.7069 2.08203 61.7069 2.5827 65.2069C1.08203 66.2069 1.08263 70.7069 2.0827 72.2069L6.0827 72.7069V74.2069L2.0827 76.2069V78.2069C6.0827 79.2069 14.5827 81.2069 22.5827 80.7069V79.2069H40.0827C39.416 70.7069 41.0827 60.2069 50.0827 53.2069C47.5827 49.2069 40.5827 44.7069 37.5827 44.2069C27.5827 43.2069 12.5827 45.7069 10.5827 47.7069Z" stroke="black" stroke-width="0.5"/>
<path d="M93.5835 35.207C75.7502 36.0404 44.0835 40.907 33.5835 43.907L37.5835 44.207C42.5835 45.707 48.0835 50.0404 50.0835 53.207C63.0825 43.707 88.5825 50.707 87.0825 78.207H97.0825C90.0825 67.207 91.0825 45.207 93.5835 35.207Z" stroke="black" stroke-width="0.5"/>
<path d="M10.582 47.7071H4.58203C37.0822 28.207 59.0823 34.207 85.082 29.707L94.0823 35.207C77.0823 36.207 48.082 39.707 34.082 43.907C26.082 43.707 12.082 45.707 10.582 47.7071Z" stroke="black" stroke-width="0.5"/>
<path d="M37.5835 44.2071C30.0835 43.207 13.0835 45.207 10.5835 47.7071C9.78349 50.107 12.9168 53.0404 14.5835 54.207C24.0835 55.707 37.5835 49.707 37.5835 44.2071Z" stroke="black" stroke-width="0.5"/>
<path d="M4.58273 47.707C11.5827 48.707 5.58273 59.207 2.58273 64.207C2.08266 57.207 2.58252 51.707 4.58273 47.707Z" stroke="black" stroke-width="0.5"/>
<path d="M22.582 83.707V79.207H40.082L40.582 83.707H22.582Z" stroke="black" stroke-width="0.5"/>
<path d="M3.08398 65.207C4.58398 67.707 6.58398 70.8737 6.08398 72.707M22.584 79.207C12.084 79.707 7.58398 75.707 8.58398 72.207C9.08398 71.707 10.584 70.207 11.584 70.207" stroke="black" stroke-width="0.5"/>
<path d="M6.58398 65.2072C8.83393 64.7072 11.7088 64.0822 14.4588 63.7072M14.4588 63.7072C17.2088 63.3322 19.8339 63.2072 21.584 63.7072C24.584 65.2072 30.084 70.2072 32.584 74.2072C27.584 75.2072 20.584 74.7072 16.084 74.7072C13.3914 74.7072 12.084 72.3738 12.084 71.2072C11.584 68.2072 12.8338 65.0405 14.4588 63.7072Z" stroke="black" stroke-width="0.5"/>
<path d="M12.084 70.7072C20.084 69.2073 23.584 71.8358 26.584 73.3358M13.584 73.7073L31.084 73.2073" stroke="black" stroke-width="0.5"/>
<path d="M22.582 82.207H32.082C34.082 82.207 35.582 80.207 35.082 79.207M38.582 79.207V83.707" stroke="black" stroke-width="0.5"/>
<path d="M22.5834 80.7073C18.0834 80.7073 13.5834 81.2073 2.08344 78.2073V76.2073L6.08344 74.2073V72.7073L2.08344 72.2073C1.58252 70.707 0.582715 67.707 2.58271 65.207C2.08295 57.207 2.58295 50.707 4.58344 47.7068C37.0834 28.2072 59.0834 34.2072 85.0834 29.7072C163.083 -25.2929 245.083 11.707 282.083 26.2072L295.583 28.207L296.083 35.207V38.207C297.582 43.207 298.917 47.707 297.583 49.707C300.083 50.707 302.583 53.8737 302.583 55.707L300.583 65.707C301.035 76.5549 298.627 76.7792 289.296 77.0917C288.305 77.1249 286.236 77.159 285.083 77.207V78.707L260.083 79.1381M22.5834 80.7073V83.7073H40.5818L40.0835 79.2073M22.5834 80.7073V79.2073H40.0835M40.0835 79.2073C37.0835 37.7073 90.5834 40.7073 87.0834 79.7073V82.207H213.583C207.583 38.707 262.083 38.707 260.083 79.1381M259.582 79.1381H260.083" stroke="black"/>
</svg>
