<svg width="303" height="96" viewBox="0 0 303 96" fill="none" xmlns="http://www.w3.org/2000/svg">
<circle cx="62.6875" cy="74.3838" r="20.5" stroke="black"/>
<circle cx="235.688" cy="74.3838" r="20.5" stroke="black"/>
<path d="M132.686 12.8836L131.186 9.38364C171.186 1.38376 192.686 1.88379 231.686 13.3837L228.186 17.8837C208.186 9.8837 190.186 8.8837 174.186 8.38377C171.686 7.88377 167.686 7.88373 165.186 8.38364C155.186 8.38377 143.186 9.88377 132.686 12.8836Z" fill="#E56E90" stroke="black" stroke-width="0.5"/>
<path d="M131.186 9.38383L130.686 7.88383C166.686 -3.11621 199.186 0.883663 234.686 9.88383L231.686 13.3838C191.686 0.883789 165.686 2.38379 131.186 9.38383Z" fill="#E56E90" stroke="black" stroke-width="0.5"/>
<path d="M131.186 9.3839C182.686 -2.11613 211.186 7.88391 231.686 13.3839" stroke="black" stroke-width="0.5"/>
<path d="M170.688 30.3838L174.188 8.38379C207.688 9.38379 219.188 14.8838 223.688 16.3838L226.17 28.3838C199.18 28.3844 181.685 29.8839 170.688 30.3838Z" fill="#E56E90"/>
<path d="M226.688 30.8838L223.688 16.3838C219.188 14.8838 207.688 9.38379 174.188 8.38379L170.688 30.3838C181.688 29.8838 199.188 28.3838 226.188 28.3838" stroke="black" stroke-width="0.5"/>
<path d="M165.188 8.38379C132.188 9.38379 112.188 18.3838 93.1875 35.8838L95.6875 33.8838L159.688 30.8838L165.188 8.38379Z" fill="#E56E90" stroke="black" stroke-width="0.5"/>
<path d="M239.686 22.8838C236.019 20.2171 230.186 17.8838 223.686 16.3838L226.186 28.3838H232.686C235.686 26.8838 238.686 24.6525 239.686 22.8838Z" fill="#E56E90" stroke="black" stroke-width="0.5"/>
<path d="M96.6875 78.8838H163.688L198.188 77.3838H212.688L213.188 82.8838H199.188H98.1875H86.6875V78.8838H96.6875Z" fill="#E56E90"/>
<path d="M96.6875 78.8838H163.688L198.188 77.3838M96.6875 78.8838C96.6875 80.3838 97.1875 81.3838 98.1875 82.8838M96.6875 78.8838H86.6875V82.8838H98.1875M198.188 77.3838L199.188 82.8838M198.188 77.3838H212.688L213.188 82.8838H199.188M199.188 82.8838H98.1875" stroke="black" stroke-width="0.5"/>
<path d="M96.6866 78.8838C92.1875 74.3838 89.1875 52.3838 93.1866 35.8838L165.188 31.8838C161.188 36.8838 160.188 70.8838 163.687 78.8838H96.6866Z" fill="#E56E90" stroke="black" stroke-width="0.5"/>
<path d="M228.687 30.8838L165.187 31.8838C161.188 36.8838 160.188 70.8838 163.687 78.8838L198.187 77.3838C202.687 75.8838 209.187 70.3838 228.687 30.8838Z" fill="#E56E90" stroke="black" stroke-width="0.5"/>
<path d="M170.688 30.3839C166.188 30.8839 162.688 30.8839 159.688 30.8839L165.188 8.38386C168.188 7.88379 171.188 7.88379 174.188 8.38386L170.688 30.3839Z" fill="#E56E90" stroke="black" stroke-width="0.5"/>
<path d="M99.1875 32.384C103.688 37.884 110.688 34.384 114.688 32.884C115.688 17.3839 102.688 25.3839 99.1875 32.384Z" fill="#E56E90" stroke="black" stroke-width="0.5"/>
<path d="M234.686 9.88379L231.686 13.3838C248.686 18.8838 259.186 21.8838 271.686 28.3838H273.186L281.186 26.8838C266.186 20.3838 258.686 17.8838 234.686 9.88379Z" fill="#EFC7D3" stroke="black" stroke-width="0.5"/>
<path d="M271.686 28.3838C261.186 22.8838 242.186 16.3838 231.686 13.3838L229.686 15.8838L244.686 23.3838C243.186 25.8838 239.186 27.8838 233.186 30.5838C245.186 29.8838 262.186 28.8838 271.686 28.3838Z" fill="#EFC7D3" stroke="black" stroke-width="0.5"/>
<path d="M277.188 34.6838L283.186 32.3838L272.687 28.3838L228.687 30.8838C221.187 45.8838 206.187 76.3838 198.187 77.3838H212.687C211.187 66.3838 220.687 42.8838 245.688 51.8838C256.188 46.3838 266.188 40.8838 277.188 34.6838Z" fill="#EFC7D3" stroke="black" stroke-width="0.5"/>
<path d="M278.186 34.3838C266.186 40.8838 256.186 46.3838 245.686 51.8838C250.186 54.8838 260.686 60.8838 259.686 79.8838L284.686 79.3838V77.8838C293.186 76.8838 301.686 80.3838 300.186 66.3838L302.186 56.3838C302.186 54.8838 299.686 50.8838 297.186 50.3838C298.686 47.8838 295.686 38.8838 295.686 38.8838V37.3838L291.686 34.3838L286.686 32.8838L283.186 32.3838L278.186 34.3838Z" fill="#EFC7D3" stroke="black" stroke-width="0.5"/>
<path d="M281.186 26.8838L272.686 28.3838L283.186 32.3838C292.686 33.3838 291.684 34.8838 295.68 37.304L295.186 28.8838L281.186 26.8838Z" fill="#EFC7D3"/>
<path d="M295.686 37.3838L295.68 37.304M295.68 37.304L295.186 28.8838L281.186 26.8838L272.686 28.3838L283.186 32.3838C292.686 33.3838 291.684 34.8838 295.68 37.304Z" stroke="black" stroke-width="0.5"/>
<path d="M294.188 36.884C293.688 34.3839 282.688 34.1838 277.188 34.6838" stroke="black" stroke-width="0.5"/>
<path d="M300.188 66.8838L260.688 68.8838C260.188 63.8838 258.021 59.7171 256.188 57.8838L302.188 55.3838M300.688 52.8838C289.688 51.3838 278.688 46.5838 266.688 40.5838M228.688 30.8838L272.688 28.3838L281.188 26.8838" stroke="black" stroke-width="0.5"/>
<path d="M290.688 40.8838C290.688 38.8838 289.688 34.8838 286.188 32.8838C288.408 32.8838 291.785 33.9242 294.296 36.2938C294.76 37.8238 293.688 41.3838 290.646 42.8838C290.632 42.2935 290.688 41.6081 290.688 40.8838Z" fill="#EFC7D3"/>
<path d="M272.688 43.3838C279.683 43.7336 285.7 43.8387 291.081 44.3838M297.688 45.3838C295.585 44.9331 293.391 44.6179 291.081 44.3838M295.688 37.8838C295.27 37.2987 294.8 36.7694 294.296 36.2938M291.081 44.3838C290.754 44.039 290.66 43.516 290.646 42.8838M290.646 42.8838C290.632 42.2935 290.688 41.6081 290.688 40.8838C290.688 38.8838 289.688 34.8838 286.188 32.8838C288.408 32.8838 291.785 33.9242 294.296 36.2938M290.646 42.8838C293.688 41.3838 294.76 37.8238 294.296 36.2938" stroke="black" stroke-width="0.5"/>
<path d="M290.688 40.8838C286.188 40.8838 284.188 36.8838 283.188 34.3838" stroke="black" stroke-width="0.5"/>
<path d="M132.686 12.9838C119.186 16.9838 107.186 22.8838 93.186 35.8838C100.186 23.8838 115.686 14.3838 131.186 9.38379L132.686 12.9838Z" fill="#E0426F" stroke="black" stroke-width="0.5"/>
<path d="M131.186 9.38379C111.186 15.0578 93.186 32.3838 85.186 30.3838C98.186 20.8838 114.186 12.3838 130.686 7.88379L131.186 9.38379Z" fill="#E0426F" stroke="black" stroke-width="0.5"/>
<path d="M10.1867 48.3837H4.1867C1.68604 52.3837 1.68604 62.3837 2.1867 65.8837C0.686035 66.8837 0.686633 71.3837 1.6867 72.8837L5.6867 73.3837V74.8837L1.6867 76.8837V78.8837C5.6867 79.8837 14.1867 81.8837 22.1867 81.3837V79.8837H39.6867C39.02 71.3837 40.6867 60.8837 49.6867 53.8837C47.1867 49.8837 40.1867 45.3837 37.1867 44.8837C27.1867 43.8837 12.1867 46.3837 10.1867 48.3837Z" fill="#E0426F" stroke="black" stroke-width="0.5"/>
<path d="M93.1875 35.8838C75.3542 36.7171 43.6875 41.5838 33.1875 44.5838L37.1875 44.8838C42.1875 46.3838 47.6875 50.7171 49.6875 53.8838C62.6865 44.3838 88.1865 51.3838 86.6865 78.8838H96.6865C89.6865 67.8838 90.6865 45.8838 93.1875 35.8838Z" fill="#E0426F" stroke="black" stroke-width="0.5"/>
<path d="M10.1855 48.3838H4.18555C36.6857 28.8837 58.6858 34.8838 84.6855 30.3838L93.6858 35.8838C76.6858 36.8838 47.6855 40.3838 33.6855 44.5838C25.6855 44.3838 11.6855 46.3838 10.1855 48.3838Z" fill="#E0426F" stroke="black" stroke-width="0.5"/>
<path d="M37.1875 44.8839C29.6875 43.8838 12.6875 45.8838 10.1875 48.3839C9.38749 50.7838 12.5208 53.7171 14.1875 54.8838C23.6875 56.3838 37.1875 50.3838 37.1875 44.8839Z" fill="#E0426F" stroke="black" stroke-width="0.5"/>
<path d="M4.18673 48.3838C11.1867 49.3838 5.18673 59.8838 2.18673 64.8838C1.68666 57.8838 2.18652 52.3838 4.18673 48.3838Z" fill="#E0426F" stroke="black" stroke-width="0.5"/>
<path d="M22.186 84.3838V79.8838H39.686L40.186 84.3838H22.186Z" fill="#E0426F" stroke="black" stroke-width="0.5"/>
<path d="M2.6875 65.8838C4.1875 68.3838 6.1875 71.5505 5.6875 73.3838M22.1875 79.8838C11.6875 80.3838 7.1875 76.3838 8.1875 72.8838C8.6875 72.3838 10.1875 70.8838 11.1875 70.8838" stroke="black" stroke-width="0.5"/>
<path d="M32.1875 74.8839C29.6875 70.8839 24.1875 65.884 21.1875 64.384C19.4375 63.884 16.8124 64.009 14.0623 64.384C12.4374 65.7173 11.1875 68.8839 11.6875 71.8839C11.6875 73.0506 12.9949 75.3839 15.6875 75.3839C20.1875 75.3839 27.1875 75.8839 32.1875 74.8839Z" fill="#E0426F"/>
<path d="M6.1875 65.884C8.43744 65.384 11.3124 64.759 14.0623 64.384M14.0623 64.384C16.8124 64.009 19.4375 63.884 21.1875 64.384C24.1875 65.884 29.6875 70.8839 32.1875 74.8839C27.1875 75.8839 20.1875 75.3839 15.6875 75.3839C12.9949 75.3839 11.6875 73.0506 11.6875 71.8839C11.1875 68.8839 12.4374 65.7173 14.0623 64.384Z" stroke="black" stroke-width="0.5"/>
<path d="M11.6875 71.384C19.6875 69.884 23.1875 72.5125 26.1875 74.0125M13.1875 74.384L30.6875 73.884" stroke="black" stroke-width="0.5"/>
<path d="M22.1855 82.8838H31.6855C33.6855 82.8838 35.1855 80.8838 34.6855 79.8838M38.1855 79.8838V84.3838" stroke="black" stroke-width="0.5"/>
<path d="M22.1874 81.384C17.6874 81.384 13.1874 81.884 1.68745 78.884V76.884L5.68745 74.884V73.384L1.68745 72.884C1.18652 71.3838 0.186719 68.3838 2.18671 65.8838C1.68696 57.8838 2.18696 51.3838 4.18745 48.3835C36.6874 28.8839 58.6874 34.884 84.6874 30.384C162.687 -24.6161 244.687 12.3838 281.687 26.884L295.187 28.8838L295.687 35.8838V38.8838C297.186 43.8838 298.521 48.3838 297.187 50.3838C299.687 51.3838 302.187 54.5505 302.187 56.3838L300.187 66.3838C300.639 77.2317 298.231 77.456 288.9 77.7684C287.909 77.8016 285.84 77.8358 284.687 77.8838V79.3838L259.687 79.8148M22.1874 81.384V84.384H40.1858L39.6875 79.884M22.1874 81.384V79.884H39.6875M39.6875 79.884C36.6875 38.384 90.1874 41.384 86.6874 80.384V82.8838H213.187C207.187 39.3838 261.687 39.3838 259.687 79.8148M259.186 79.8148H259.687" stroke="black"/>
</svg>
