<svg width="303" height="96" viewBox="0 0 303 96" fill="none" xmlns="http://www.w3.org/2000/svg">
<circle cx="62.6772" cy="74.0303" r="20.5" stroke="black"/>
<circle cx="235.678" cy="74.0303" r="20.5" stroke="black"/>
<path d="M132.676 12.5301L131.176 9.03013C171.176 1.03024 192.676 1.53027 231.676 13.0302L228.176 17.5302C208.176 9.53018 190.176 8.53018 174.176 8.03025C171.676 7.53025 167.676 7.53021 165.176 8.03013C155.176 8.03025 143.176 9.53025 132.676 12.5301Z" fill="#EDADBF" stroke="black" stroke-width="0.5"/>
<path d="M131.176 9.03032L130.676 7.53032C166.676 -3.46973 199.176 0.530148 234.676 9.53032L231.676 13.0303C191.676 0.530273 165.676 2.03027 131.176 9.03032Z" fill="#EDADBF" stroke="black" stroke-width="0.5"/>
<path d="M131.176 9.03038C182.676 -2.46964 211.176 7.5304 231.676 13.0304" stroke="black" stroke-width="0.5"/>
<path d="M170.677 30.0303L174.177 8.03027C207.677 9.03027 219.177 14.5303 223.677 16.0303L226.16 28.0303C199.17 28.0309 181.675 29.5304 170.677 30.0303Z" fill="#EDADBF"/>
<path d="M226.677 30.5303L223.677 16.0303C219.177 14.5303 207.677 9.03027 174.177 8.03027L170.677 30.0303C181.677 29.5303 199.177 28.0303 226.177 28.0303" stroke="black" stroke-width="0.5"/>
<path d="M165.177 8.03027C132.177 9.03027 112.177 18.0303 93.1772 35.5303L95.6772 33.5303L159.677 30.5303L165.177 8.03027Z" fill="#EDADBF" stroke="black" stroke-width="0.5"/>
<path d="M239.676 22.5303C236.009 19.8636 230.176 17.5303 223.676 16.0303L226.176 28.0303H232.676C235.676 26.5303 238.676 24.299 239.676 22.5303Z" fill="#EDADBF" stroke="black" stroke-width="0.5"/>
<path d="M96.6772 78.5303H163.677L198.177 77.0303H212.677L213.177 82.5303H199.177H98.1772H86.6772V78.5303H96.6772Z" fill="#EDADBF"/>
<path d="M96.6772 78.5303H163.677L198.177 77.0303M96.6772 78.5303C96.6772 80.0303 97.1772 81.0303 98.1772 82.5303M96.6772 78.5303H86.6772V82.5303H98.1772M198.177 77.0303L199.177 82.5303M198.177 77.0303H212.677L213.177 82.5303H199.177M199.177 82.5303H98.1772" stroke="black" stroke-width="0.5"/>
<path d="M96.6764 78.5303C92.1772 74.0303 89.1773 52.0303 93.1764 35.5303L165.177 31.5303C161.177 36.5303 160.177 70.5303 163.677 78.5303H96.6764Z" fill="#EDADBF" stroke="black" stroke-width="0.5"/>
<path d="M228.677 30.5303L165.177 31.5303C161.177 36.5303 160.177 70.5303 163.677 78.5303L198.177 77.0303C202.677 75.5303 209.177 70.0303 228.677 30.5303Z" fill="#EDADBF" stroke="black" stroke-width="0.5"/>
<path d="M170.677 30.0303C166.177 30.5303 162.677 30.5303 159.677 30.5303L165.177 8.03035C168.177 7.53027 171.177 7.53027 174.177 8.03035L170.677 30.0303Z" fill="#EDADBF" stroke="black" stroke-width="0.5"/>
<path d="M99.1772 32.0305C103.677 37.5305 110.677 34.0305 114.677 32.5305C115.677 17.0304 102.677 25.0304 99.1772 32.0305Z" fill="#EDADBF" stroke="black" stroke-width="0.5"/>
<path d="M234.676 9.53027L231.676 13.0303C248.676 18.5303 259.176 21.5303 271.676 28.0303H273.176L281.176 26.5303C266.176 20.0303 258.676 17.5303 234.676 9.53027Z" fill="#EDADBF" stroke="black" stroke-width="0.5"/>
<path d="M271.676 28.0303C261.176 22.5303 242.176 16.0303 231.676 13.0303L229.676 15.5303L244.676 23.0303C243.176 25.5303 239.176 27.5303 233.176 30.2303C245.176 29.5303 262.176 28.5303 271.676 28.0303Z" fill="#EDADBF" stroke="black" stroke-width="0.5"/>
<path d="M277.178 34.3303L283.176 32.0303L272.677 28.0303L228.677 30.5303C221.177 45.5303 206.177 76.0303 198.177 77.0303H212.677C211.177 66.0303 220.677 42.5303 245.678 51.5303C256.178 46.0303 266.178 40.5303 277.178 34.3303Z" fill="#EDADBF" stroke="black" stroke-width="0.5"/>
<path d="M278.176 34.0303C266.176 40.5303 256.176 46.0303 245.676 51.5303C250.176 54.5303 260.676 60.5303 259.676 79.5303L284.676 79.0303V77.5303C293.176 76.5303 301.676 80.0303 300.176 66.0303L302.176 56.0303C302.176 54.5303 299.676 50.5303 297.176 50.0303C298.676 47.5303 295.676 38.5303 295.676 38.5303V37.0303L291.676 34.0303L286.676 32.5303L283.176 32.0303L278.176 34.0303Z" fill="#EDADBF" stroke="black" stroke-width="0.5"/>
<path d="M281.176 26.5303L272.676 28.0303L283.176 32.0303C292.676 33.0303 291.675 34.5303 295.67 36.9505L295.176 28.5303L281.176 26.5303Z" fill="#EDADBF"/>
<path d="M295.676 37.0303L295.67 36.9505M295.67 36.9505L295.176 28.5303L281.176 26.5303L272.676 28.0303L283.176 32.0303C292.676 33.0303 291.675 34.5303 295.67 36.9505Z" stroke="black" stroke-width="0.5"/>
<path d="M294.178 36.5305C293.678 34.0304 282.678 33.8303 277.178 34.3303" stroke="black" stroke-width="0.5"/>
<path d="M300.178 66.5303L260.678 68.5303C260.178 63.5303 258.011 59.3636 256.178 57.5303L302.178 55.0303M300.678 52.5303C289.678 51.0303 278.678 46.2303 266.678 40.2303M228.678 30.5303L272.678 28.0303L281.178 26.5303" stroke="black" stroke-width="0.5"/>
<path d="M290.678 40.5303C290.678 38.5303 289.678 34.5303 286.178 32.5303C288.399 32.5303 291.775 33.5707 294.287 35.9403C294.75 37.4703 293.678 41.0303 290.636 42.5303C290.622 41.94 290.678 41.2546 290.678 40.5303Z" fill="#EDADBF"/>
<path d="M272.678 43.0303C279.673 43.3801 285.69 43.4851 291.071 44.0303M297.678 45.0303C295.575 44.5796 293.381 44.2644 291.071 44.0303M295.678 37.5303C295.26 36.9451 294.791 36.4159 294.287 35.9403M291.071 44.0303C290.745 43.6855 290.651 43.1625 290.636 42.5303M290.636 42.5303C290.622 41.94 290.678 41.2546 290.678 40.5303C290.678 38.5303 289.678 34.5303 286.178 32.5303C288.399 32.5303 291.775 33.5707 294.287 35.9403M290.636 42.5303C293.678 41.0303 294.75 37.4703 294.287 35.9403" stroke="black" stroke-width="0.5"/>
<path d="M290.678 40.5303C286.178 40.5303 284.178 36.5303 283.178 34.0303" stroke="black" stroke-width="0.5"/>
<path d="M132.676 12.6302C119.176 16.6302 107.176 22.5303 93.1758 35.5303C100.176 23.5303 115.676 14.0303 131.176 9.03027L132.676 12.6302Z" fill="#EFC7D3" stroke="black" stroke-width="0.5"/>
<path d="M131.176 9.03027C111.176 14.7043 93.1758 32.0303 85.1758 30.0303C98.1758 20.5303 114.176 12.0303 130.676 7.53027L131.176 9.03027Z" fill="#EFC7D3" stroke="black" stroke-width="0.5"/>
<path d="M10.1764 48.0302H4.17645C1.67578 52.0302 1.67578 62.0302 2.17645 65.5302C0.675781 66.5302 0.676379 71.0302 1.67645 72.5302L5.67645 73.0302V74.5302L1.67645 76.5302V78.5302C5.67645 79.5302 14.1764 81.5302 22.1764 81.0302V79.5302H39.6764C39.0098 71.0302 40.6764 60.5302 49.6764 53.5302C47.1764 49.5302 40.1764 45.0302 37.1764 44.5302C27.1764 43.5302 12.1764 46.0302 10.1764 48.0302Z" fill="#EFC7D3" stroke="black" stroke-width="0.5"/>
<path d="M93.1772 35.5303C75.3439 36.3636 43.6772 41.2303 33.1772 44.2303L37.1772 44.5303C42.1772 46.0303 47.6772 50.3636 49.6772 53.5303C62.6763 44.0303 88.1763 51.0303 86.6763 78.5303H96.6763C89.6763 67.5303 90.6763 45.5303 93.1772 35.5303Z" fill="#EFC7D3" stroke="black" stroke-width="0.5"/>
<path d="M10.1758 48.0303H4.17578C36.676 28.5302 58.676 34.5303 84.6758 30.0303L93.676 35.5303C76.676 36.5303 47.6758 40.0303 33.6758 44.2303C25.6758 44.0303 11.6758 46.0303 10.1758 48.0303Z" fill="#EFC7D3" stroke="black" stroke-width="0.5"/>
<path d="M37.1772 44.5303C29.6772 43.5303 12.6772 45.5303 10.1772 48.0303C9.37724 50.4303 12.5106 53.3636 14.1772 54.5303C23.6772 56.0303 37.1772 50.0303 37.1772 44.5303Z" fill="#EFC7D3" stroke="black" stroke-width="0.5"/>
<path d="M4.17648 48.0303C11.1765 49.0303 5.17648 59.5303 2.17648 64.5303C1.67641 57.5303 2.17627 52.0303 4.17648 48.0303Z" fill="#EFC7D3" stroke="black" stroke-width="0.5"/>
<path d="M22.1758 84.0303V79.5303H39.6758L40.1758 84.0303H22.1758Z" fill="#EFC7D3" stroke="black" stroke-width="0.5"/>
<path d="M2.67773 65.5303C4.17773 68.0303 6.17773 71.1969 5.67773 73.0303M22.1777 79.5303C11.6777 80.0303 7.17773 76.0303 8.17773 72.5303C8.67773 72.0303 10.1777 70.5303 11.1777 70.5303" stroke="black" stroke-width="0.5"/>
<path d="M32.1777 74.5304C29.6777 70.5304 24.1777 65.5305 21.1777 64.0305C19.4277 63.5305 16.8026 63.6555 14.0525 64.0305C12.4276 65.3638 11.1777 68.5304 11.6777 71.5304C11.6777 72.6971 12.9852 75.0304 15.6777 75.0304C20.1777 75.0304 27.1777 75.5304 32.1777 74.5304Z" fill="#EFC7D3"/>
<path d="M6.17773 65.5305C8.42768 65.0304 11.3026 64.4055 14.0525 64.0305M14.0525 64.0305C16.8026 63.6555 19.4277 63.5305 21.1777 64.0305C24.1777 65.5305 29.6777 70.5304 32.1777 74.5304C27.1777 75.5304 20.1777 75.0304 15.6777 75.0304C12.9852 75.0304 11.6777 72.6971 11.6777 71.5304C11.1777 68.5304 12.4276 65.3638 14.0525 64.0305Z" stroke="black" stroke-width="0.5"/>
<path d="M11.6777 71.0305C19.6777 69.5305 23.1777 72.159 26.1777 73.659M13.1777 74.0305L30.6777 73.5305" stroke="black" stroke-width="0.5"/>
<path d="M22.1758 82.5303H31.6758C33.6758 82.5303 35.1758 80.5303 34.6758 79.5303M38.1758 79.5303V84.0303" stroke="black" stroke-width="0.5"/>
<path d="M22.1772 81.0305C17.6772 81.0305 13.1772 81.5305 1.67719 78.5305V76.5305L5.67719 74.5305V73.0305L1.67719 72.5305C1.17627 71.0303 0.176465 68.0303 2.17646 65.5303C1.6767 57.5303 2.1767 51.0303 4.17719 48.03C36.6772 28.5304 58.6772 34.5305 84.6772 30.0305C162.677 -24.9697 244.677 12.0303 281.677 26.5305L295.177 28.5303L295.677 35.5303V38.5303C297.176 43.5303 298.511 48.0303 297.177 50.0303C299.677 51.0303 302.177 54.1969 302.177 56.0303L300.177 66.0303C300.629 76.8782 298.221 77.1025 288.889 77.4149C287.898 77.4481 285.829 77.4823 284.677 77.5303V79.0303L259.677 79.4613M22.1772 81.0305V84.0305H40.1755L39.6772 79.5305M22.1772 81.0305V79.5305H39.6772M39.6772 79.5305C36.6772 38.0305 90.1772 41.0305 86.6772 80.0305V82.5303H213.177C207.177 39.0303 261.677 39.0303 259.677 79.4613M259.176 79.4613H259.677" stroke="black"/>
</svg>
