<svg width="303" height="96" viewBox="0 0 303 96" fill="none" xmlns="http://www.w3.org/2000/svg">
<circle cx="62.4697" cy="74.1995" r="20.5" fill="#E0426F" stroke="black"/>
<circle cx="235.47" cy="74.1995" r="20.5" fill="#E0426F" stroke="black"/>
<path d="M132.468 12.6993L130.968 9.19932C170.968 1.19943 192.468 1.69946 231.468 13.1994L227.968 17.6994C207.968 9.69937 189.968 8.69937 173.968 8.19944C171.468 7.69944 167.468 7.6994 164.968 8.19932C154.968 8.19944 142.968 9.69944 132.468 12.6993Z" fill="#EDADBF" stroke="black" stroke-width="0.5"/>
<path d="M130.968 9.19951L130.468 7.69951C166.468 -3.30054 198.968 0.699337 234.468 9.69951L231.468 13.1995C191.468 0.699463 165.468 2.19946 130.968 9.19951Z" fill="#EDADBF" stroke="black" stroke-width="0.5"/>
<path d="M130.968 9.19933C182.468 -2.3007 210.968 7.69934 231.468 13.1993" stroke="black" stroke-width="0.5"/>
<path d="M170.47 30.1995L173.97 8.19946C207.47 9.19946 218.97 14.6995 223.47 16.1995L225.952 28.1995C198.962 28.2001 181.467 29.6996 170.47 30.1995Z" fill="#EDADBF"/>
<path d="M226.47 30.6995L223.47 16.1995C218.97 14.6995 207.47 9.19946 173.97 8.19946L170.47 30.1995C181.47 29.6995 198.97 28.1995 225.97 28.1995" stroke="black" stroke-width="0.5"/>
<path d="M164.97 8.19946C131.97 9.19946 111.97 18.1995 92.9697 35.6995L95.4697 33.6995L159.47 30.6995L164.97 8.19946Z" fill="#EDADBF" stroke="black" stroke-width="0.5"/>
<path d="M239.468 22.6995C235.801 20.0328 229.968 17.6995 223.468 16.1995L225.968 28.1995H232.468C235.468 26.6995 238.468 24.4682 239.468 22.6995Z" fill="#EDADBF" stroke="black" stroke-width="0.5"/>
<path d="M96.4697 78.6995H163.47L197.97 77.1995H212.47L212.97 82.6995H198.97H97.9697H86.4697V78.6995H96.4697Z" fill="#EDADBF"/>
<path d="M96.4697 78.6995H163.47L197.97 77.1995M96.4697 78.6995C96.4697 80.1995 96.9697 81.1995 97.9697 82.6995M96.4697 78.6995H86.4697V82.6995H97.9697M197.97 77.1995L198.97 82.6995M197.97 77.1995H212.47L212.97 82.6995H198.97M198.97 82.6995H97.9697" stroke="black" stroke-width="0.5"/>
<path d="M96.4689 78.6995C91.9697 74.1995 88.9698 52.1995 92.9689 35.6995L164.97 31.6995C160.97 36.6995 159.97 70.6995 163.47 78.6995H96.4689Z" fill="#EDADBF" stroke="black" stroke-width="0.5"/>
<path d="M228.47 30.6995L164.97 31.6995C160.97 36.6995 159.97 70.6995 163.47 78.6995L197.97 77.1995C202.47 75.6995 208.97 70.1995 228.47 30.6995Z" fill="#EDADBF" stroke="black" stroke-width="0.5"/>
<path d="M170.47 30.1995C165.97 30.6995 162.47 30.6995 159.47 30.6995L164.97 8.19954C167.97 7.69946 170.97 7.69946 173.97 8.19954L170.47 30.1995Z" fill="#EDADBF" stroke="black" stroke-width="0.5"/>
<path d="M98.9697 32.1995C103.47 37.6995 110.47 34.1995 114.47 32.6995C115.47 17.1994 102.47 25.1993 98.9697 32.1995Z" fill="#EDADBF" stroke="black" stroke-width="0.5"/>
<path d="M234.468 9.69946L231.468 13.1995C248.468 18.6995 258.968 21.6995 271.468 28.1995H272.968L280.968 26.6995C265.968 20.1995 258.468 17.6995 234.468 9.69946Z" fill="#EDADBF" stroke="black" stroke-width="0.5"/>
<path d="M271.468 28.1995C260.968 22.6995 241.968 16.1995 231.468 13.1995L229.468 15.6995L244.468 23.1995C242.968 25.6995 238.968 27.6995 232.968 30.3995C244.968 29.6995 261.968 28.6995 271.468 28.1995Z" fill="#EDADBF" stroke="black" stroke-width="0.5"/>
<path d="M276.97 34.4995L282.968 32.1995L272.469 28.1995L228.469 30.6995C220.969 45.6995 205.969 76.1995 197.969 77.1995H212.469C210.969 66.1995 220.469 42.6995 245.47 51.6995C255.97 46.1995 265.97 40.6995 276.97 34.4995Z" fill="#EDADBF" stroke="black" stroke-width="0.5"/>
<path d="M277.968 34.1995C265.968 40.6995 255.968 46.1995 245.468 51.6995C249.968 54.6995 260.468 60.6995 259.468 79.6995L284.468 79.1995V77.6995C292.968 76.6995 301.468 80.1995 299.968 66.1995L301.968 56.1995C301.968 54.6995 299.468 50.6995 296.968 50.1995C298.468 47.6995 295.468 38.6995 295.468 38.6995V37.1995L291.468 34.1995L286.468 32.6995L282.968 32.1995L277.968 34.1995Z" fill="#EDADBF" stroke="black" stroke-width="0.5"/>
<path d="M280.968 26.6995L272.468 28.1995L282.968 32.1995C292.468 33.1995 291.467 34.6995 295.462 37.1196L294.968 28.6995L280.968 26.6995Z" fill="#EDADBF"/>
<path d="M295.468 37.1995L295.462 37.1196M295.462 37.1196L294.968 28.6995L280.968 26.6995L272.468 28.1995L282.968 32.1995C292.468 33.1995 291.467 34.6995 295.462 37.1196Z" stroke="black" stroke-width="0.5"/>
<path d="M293.97 36.6997C293.47 34.1996 282.47 33.9995 276.97 34.4995" stroke="black" stroke-width="0.5"/>
<path d="M299.97 66.6995L260.47 68.6995C259.97 63.6995 257.803 59.5328 255.97 57.6995L301.97 55.1995M300.47 52.6995C289.47 51.1995 278.47 46.3995 266.47 40.3995M228.47 30.6995L272.47 28.1995L280.97 26.6995" stroke="black" stroke-width="0.5"/>
<path d="M290.47 40.6995C290.47 38.6995 289.47 34.6995 285.97 32.6995C288.191 32.6995 291.567 33.7399 294.079 36.1094C294.542 37.6395 293.47 41.1995 290.428 42.6995C290.414 42.1092 290.47 41.4238 290.47 40.6995Z" fill="#EDADBF"/>
<path d="M272.47 43.1995C279.465 43.5492 285.482 43.6543 290.863 44.1995M297.47 45.1995C295.367 44.7488 293.173 44.4336 290.863 44.1995M295.47 37.6995C295.052 37.1143 294.583 36.5851 294.079 36.1094M290.863 44.1995C290.537 43.8547 290.443 43.3317 290.428 42.6995M290.428 42.6995C290.414 42.1092 290.47 41.4238 290.47 40.6995C290.47 38.6995 289.47 34.6995 285.97 32.6995C288.191 32.6995 291.567 33.7399 294.079 36.1094M290.428 42.6995C293.47 41.1995 294.542 37.6395 294.079 36.1094" stroke="black" stroke-width="0.5"/>
<path d="M290.47 40.6995C285.97 40.6995 283.97 36.6995 282.97 34.1995" stroke="black" stroke-width="0.5"/>
<path d="M132.468 12.7994C118.968 16.7994 106.968 22.6995 92.9678 35.6995C99.9678 23.6995 115.468 14.1995 130.968 9.19946L132.468 12.7994Z" fill="#EDADBF" stroke="black" stroke-width="0.5"/>
<path d="M130.968 9.19946C110.968 14.8735 92.9678 32.1995 84.9678 30.1995C97.9678 20.6995 113.968 12.1995 130.468 7.69946L130.968 9.19946Z" fill="#EDADBF" stroke="black" stroke-width="0.5"/>
<path d="M9.96844 48.1993H3.96844C1.46777 52.1993 1.46777 62.1993 1.96844 65.6993C0.467773 66.6993 0.468371 71.1993 1.46844 72.6993L5.46844 73.1993V74.6993L1.46844 76.6993V78.6993C5.46844 79.6993 13.9684 81.6993 21.9684 81.1993V79.6993H39.4684C38.8018 71.1993 40.4684 60.6993 49.4684 53.6993C46.9684 49.6993 39.9684 45.1993 36.9684 44.6993C26.9684 43.6993 11.9684 46.1993 9.96844 48.1993Z" fill="#EDADBF" stroke="black" stroke-width="0.5"/>
<path d="M92.9697 35.6995C75.1364 36.5328 43.4697 41.3995 32.9697 44.3995L36.9697 44.6995C41.9697 46.1995 47.4697 50.5328 49.4697 53.6995C62.4688 44.1995 87.9688 51.1995 86.4688 78.6995H96.4688C89.4688 67.6995 90.4688 45.6995 92.9697 35.6995Z" fill="#EDADBF" stroke="black" stroke-width="0.5"/>
<path d="M9.96777 48.1995H3.96777C36.468 28.6994 58.468 34.6995 84.4678 30.1995L93.468 35.6995C76.468 36.6995 47.4678 40.1995 33.4678 44.3995C25.4678 44.1995 11.4678 46.1995 9.96777 48.1995Z" fill="#EDADBF" stroke="black" stroke-width="0.5"/>
<path d="M36.9692 44.6995C29.4692 43.6995 12.4692 45.6995 9.96923 48.1995C9.16923 50.5995 12.3026 53.5328 13.9692 54.6995C23.4692 56.1995 36.9692 50.1995 36.9692 44.6995Z" fill="#EDADBF" stroke="black" stroke-width="0.5"/>
<path d="M3.96847 48.1995C10.9685 49.1995 4.96847 59.6995 1.96847 64.6995C1.4684 57.6995 1.96826 52.1995 3.96847 48.1995Z" fill="#EDADBF" stroke="black" stroke-width="0.5"/>
<path d="M21.9678 84.1995V79.6995H39.4678L39.9678 84.1995H21.9678Z" fill="#EDADBF" stroke="black" stroke-width="0.5"/>
<path d="M2.46973 65.6992C3.96973 68.1992 5.96973 71.3659 5.46973 73.1992M21.9697 79.6992C11.4697 80.1992 6.96973 76.1992 7.96973 72.6992C8.46973 72.1992 9.96973 70.6992 10.9697 70.6992" stroke="black" stroke-width="0.5"/>
<path d="M31.9697 74.6993C29.4697 70.6993 23.9697 65.6994 20.9697 64.1994C19.2197 63.6994 16.5946 63.8244 13.8445 64.1994C12.2196 65.5327 10.9697 68.6993 11.4697 71.6993C11.4697 72.866 12.7771 75.1993 15.4697 75.1993C19.9697 75.1993 26.9697 75.6993 31.9697 74.6993Z" fill="#EDADBF"/>
<path d="M5.96973 65.6994C8.21967 65.1994 11.0946 64.5744 13.8445 64.1994M13.8445 64.1994C16.5946 63.8244 19.2197 63.6994 20.9697 64.1994C23.9697 65.6994 29.4697 70.6993 31.9697 74.6993C26.9697 75.6993 19.9697 75.1993 15.4697 75.1993C12.7771 75.1993 11.4697 72.866 11.4697 71.6993C10.9697 68.6993 12.2196 65.5327 13.8445 64.1994Z" stroke="black" stroke-width="0.5"/>
<path d="M11.4697 71.1994C19.4697 69.6995 22.9697 72.3279 25.9697 73.8279M12.9697 74.1995L30.4697 73.6995" stroke="black" stroke-width="0.5"/>
<path d="M21.9678 82.6992H31.4678C33.4678 82.6992 34.9678 80.6992 34.4678 79.6992M37.9678 79.6992V84.1992" stroke="black" stroke-width="0.5"/>
<path d="M21.9697 81.1997C17.4697 81.1997 12.9697 81.6997 1.46967 78.6997V76.6997L5.46967 74.6997V73.1997L1.46967 72.6997C0.96875 71.1995 -0.0310541 68.1995 1.96894 65.6995C1.46918 57.6995 1.96918 51.1995 3.96967 48.1992C36.4697 28.6996 58.4697 34.6997 84.4697 30.1997C162.47 -24.8005 244.47 12.1994 281.47 26.6996L294.97 28.6995L295.47 35.6995V38.6995C296.968 43.6995 298.303 48.1995 296.97 50.1995C299.47 51.1995 301.97 54.3661 301.97 56.1995L299.97 66.1995C300.422 77.0474 298.013 77.2717 288.682 77.5841C287.691 77.6173 285.622 77.6515 284.47 77.6995V79.1995L259.47 79.6305M21.9697 81.1997V84.1997H39.968L39.4697 79.6997M21.9697 81.1997V79.6997H39.4697M39.4697 79.6997C36.4697 38.1997 89.9697 41.1997 86.4697 80.1997V82.6995H212.97C206.97 39.1995 261.47 39.1995 259.47 79.6305M258.968 79.6305H259.47" stroke="black"/>
</svg>
