<svg width="303" height="96" viewBox="0 0 303 96" fill="none" xmlns="http://www.w3.org/2000/svg">
<circle cx="62.4697" cy="74.5076" r="20.5" fill="#E0426F" stroke="black"/>
<circle cx="235.47" cy="74.5076" r="20.5" fill="#E0426F" stroke="black"/>
<path d="M132.468 13.0074L130.968 9.50742C170.968 1.50754 192.468 2.00757 231.468 13.5075L227.968 18.0075C207.968 10.0075 189.968 9.00748 173.968 8.50755C171.468 8.00755 167.468 8.00751 164.968 8.50742C154.968 8.50755 142.968 10.0075 132.468 13.0074Z" stroke="black" stroke-width="0.5"/>
<path d="M130.968 9.50761L130.468 8.00761C166.468 -2.99243 198.968 1.00744 234.468 10.0076L231.468 13.5076C191.468 1.00757 165.468 2.50757 130.968 9.50761Z" stroke="black" stroke-width="0.5"/>
<path d="M130.968 9.50756C182.468 -1.99247 210.968 8.00757 231.468 13.5076" stroke="black" stroke-width="0.5"/>
<path d="M226.47 31.0076L223.47 16.5076C218.97 15.0076 207.47 9.50757 173.97 8.50757L170.47 30.5076C181.47 30.0076 198.97 28.5076 225.97 28.5076" stroke="black" stroke-width="0.5"/>
<path d="M164.97 8.50757C131.97 9.50757 111.97 18.5076 92.9697 36.0076L95.4697 34.0076L159.47 31.0076L164.97 8.50757Z" stroke="black" stroke-width="0.5"/>
<path d="M239.468 23.0076C235.801 20.3409 229.968 18.0076 223.468 16.5076L225.968 28.5076H232.468C235.468 27.0076 238.468 24.7763 239.468 23.0076Z" stroke="black" stroke-width="0.5"/>
<path d="M96.4697 79.0076H163.47L197.97 77.5076M96.4697 79.0076C96.4697 80.5076 96.9697 81.5076 97.9697 83.0076M96.4697 79.0076H86.4697V83.0076H97.9697M197.97 77.5076L198.97 83.0076M197.97 77.5076H212.47L212.97 83.0076H198.97M198.97 83.0076H97.9697" stroke="black" stroke-width="0.5"/>
<path d="M96.4689 79.0076C91.9697 74.5076 88.9698 52.5076 92.9689 36.0076L164.97 32.0076C160.97 37.0076 159.97 71.0076 163.47 79.0076H96.4689Z" stroke="black" stroke-width="0.5"/>
<path d="M228.47 31.0076L164.97 32.0076C160.97 37.0076 159.97 71.0076 163.47 79.0076L197.97 77.5076C202.47 76.0076 208.97 70.5076 228.47 31.0076Z" stroke="black" stroke-width="0.5"/>
<path d="M170.47 30.5076C165.97 31.0076 162.47 31.0076 159.47 31.0076L164.97 8.50764C167.97 8.00757 170.97 8.00757 173.97 8.50764L170.47 30.5076Z" stroke="black" stroke-width="0.5"/>
<path d="M98.9697 32.5077C103.47 38.0077 110.47 34.5077 114.47 33.0077C115.47 17.5076 102.47 25.5076 98.9697 32.5077Z" stroke="black" stroke-width="0.5"/>
<path d="M234.468 10.0076L231.468 13.5076C248.468 19.0076 258.968 22.0076 271.468 28.5076H272.968L280.968 27.0076C265.968 20.5076 258.468 18.0076 234.468 10.0076Z" fill="#EDADBF" stroke="black" stroke-width="0.5"/>
<path d="M271.468 28.5076C260.968 23.0076 241.968 16.5076 231.468 13.5076L229.468 16.0076L244.468 23.5076C242.968 26.0076 238.968 28.0076 232.968 30.7076C244.968 30.0076 261.968 29.0076 271.468 28.5076Z" fill="#EDADBF" stroke="black" stroke-width="0.5"/>
<path d="M276.97 34.8076L282.968 32.5076L272.469 28.5076L228.469 31.0076C220.969 46.0076 205.969 76.5076 197.969 77.5076H212.469C210.969 66.5076 220.469 43.0076 245.47 52.0076C255.97 46.5076 265.97 41.0076 276.97 34.8076Z" fill="#EDADBF" stroke="black" stroke-width="0.5"/>
<path d="M277.968 34.5076C265.968 41.0076 255.968 46.5076 245.468 52.0076C249.968 55.0076 260.468 61.0076 259.468 80.0076L284.468 79.5076V78.0076C292.968 77.0076 301.468 80.5076 299.968 66.5076L301.968 56.5076C301.968 55.0076 299.468 51.0076 296.968 50.5076C298.468 48.0076 295.468 39.0076 295.468 39.0076V37.5076L291.468 34.5076L286.468 33.0076L282.968 32.5076L277.968 34.5076Z" fill="#EDADBF" stroke="black" stroke-width="0.5"/>
<path d="M280.968 27.0076L272.468 28.5076L282.968 32.5076C292.468 33.5076 291.467 35.0076 295.462 37.4277L294.968 29.0076L280.968 27.0076Z" fill="#EDADBF"/>
<path d="M295.468 37.5076L295.462 37.4277M295.462 37.4277L294.968 29.0076L280.968 27.0076L272.468 28.5076L282.968 32.5076C292.468 33.5076 291.467 35.0076 295.462 37.4277Z" stroke="black" stroke-width="0.5"/>
<path d="M293.97 37.0078C293.47 34.5077 282.47 34.3076 276.97 34.8076" stroke="black" stroke-width="0.5"/>
<path d="M299.97 67.0076L260.47 69.0076C259.97 64.0076 257.803 59.8409 255.97 58.0076L301.97 55.5076M300.47 53.0076C289.47 51.5076 278.47 46.7076 266.47 40.7076M228.47 31.0076L272.47 28.5076L280.97 27.0076" stroke="black" stroke-width="0.5"/>
<path d="M290.47 41.0076C290.47 39.0076 289.47 35.0076 285.97 33.0076C288.191 33.0076 291.567 34.048 294.079 36.4176C294.542 37.9476 293.47 41.5076 290.428 43.0076C290.414 42.4173 290.47 41.7319 290.47 41.0076Z" fill="#EDADBF"/>
<path d="M272.47 43.5076C279.465 43.8574 285.482 43.9624 290.863 44.5076M297.47 45.5076C295.367 45.0569 293.173 44.7417 290.863 44.5076M295.47 38.0076C295.052 37.4224 294.583 36.8932 294.079 36.4176M290.863 44.5076C290.537 44.1628 290.443 43.6398 290.428 43.0076M290.428 43.0076C290.414 42.4173 290.47 41.7319 290.47 41.0076C290.47 39.0076 289.47 35.0076 285.97 33.0076C288.191 33.0076 291.567 34.048 294.079 36.4176M290.428 43.0076C293.47 41.5076 294.542 37.9476 294.079 36.4176" stroke="black" stroke-width="0.5"/>
<path d="M290.47 41.0076C285.97 41.0076 283.97 37.0076 282.97 34.5076" stroke="black" stroke-width="0.5"/>
<path d="M132.468 13.1075C118.968 17.1075 106.968 23.0076 92.9678 36.0076C99.9678 24.0076 115.468 14.5076 130.968 9.50757L132.468 13.1075Z" fill="#EDADBF" stroke="black" stroke-width="0.5"/>
<path d="M130.968 9.50757C110.968 15.1816 92.9678 32.5076 84.9678 30.5076C97.9678 21.0076 113.968 12.5076 130.468 8.00757L130.968 9.50757Z" fill="#EDADBF" stroke="black" stroke-width="0.5"/>
<path d="M9.96844 48.5076H3.96844C1.46777 52.5076 1.46777 62.5076 1.96844 66.0076C0.467773 67.0076 0.468371 71.5076 1.46844 73.0076L5.46844 73.5076V75.0076L1.46844 77.0076V79.0076C5.46844 80.0076 13.9684 82.0076 21.9684 81.5076V80.0076H39.4684C38.8018 71.5076 40.4684 61.0076 49.4684 54.0076C46.9684 50.0076 39.9684 45.5076 36.9684 45.0076C26.9684 44.0076 11.9684 46.5076 9.96844 48.5076Z" fill="#EDADBF" stroke="black" stroke-width="0.5"/>
<path d="M92.9697 36.0076C75.1364 36.8409 43.4697 41.7076 32.9697 44.7076L36.9697 45.0076C41.9697 46.5076 47.4697 50.8409 49.4697 54.0076C62.4688 44.5076 87.9688 51.5076 86.4688 79.0076H96.4688C89.4688 68.0076 90.4688 46.0076 92.9697 36.0076Z" fill="#EDADBF" stroke="black" stroke-width="0.5"/>
<path d="M9.96777 48.5076H3.96777C36.468 29.0075 58.468 35.0076 84.4678 30.5076L93.468 36.0076C76.468 37.0076 47.4678 40.5076 33.4678 44.7076C25.4678 44.5076 11.4678 46.5076 9.96777 48.5076Z" fill="#EDADBF" stroke="black" stroke-width="0.5"/>
<path d="M36.9692 45.0076C29.4692 44.0076 12.4692 46.0076 9.96923 48.5076C9.16923 50.9076 12.3026 53.8409 13.9692 55.0076C23.4692 56.5076 36.9692 50.5076 36.9692 45.0076Z" fill="#EDADBF" stroke="black" stroke-width="0.5"/>
<path d="M3.96847 48.5076C10.9685 49.5076 4.96847 60.0076 1.96847 65.0076C1.4684 58.0076 1.96826 52.5076 3.96847 48.5076Z" fill="#EDADBF" stroke="black" stroke-width="0.5"/>
<path d="M21.9678 84.5076V80.0076H39.4678L39.9678 84.5076H21.9678Z" fill="#EDADBF" stroke="black" stroke-width="0.5"/>
<path d="M2.46973 66.0076C3.96973 68.5076 5.96973 71.6742 5.46973 73.5076M21.9697 80.0076C11.4697 80.5076 6.96973 76.5076 7.96973 73.0076C8.46973 72.5076 9.96973 71.0076 10.9697 71.0076" stroke="black" stroke-width="0.5"/>
<path d="M31.9697 75.0076C29.4697 71.0076 23.9697 66.0076 20.9697 64.5076C19.2197 64.0076 16.5946 64.1326 13.8445 64.5076C12.2196 65.841 10.9697 69.0076 11.4697 72.0076C11.4697 73.1742 12.7771 75.5076 15.4697 75.5076C19.9697 75.5076 26.9697 76.0076 31.9697 75.0076Z" fill="#EDADBF"/>
<path d="M5.96973 66.0076C8.21967 65.5076 11.0946 64.8826 13.8445 64.5076M13.8445 64.5076C16.5946 64.1326 19.2197 64.0076 20.9697 64.5076C23.9697 66.0076 29.4697 71.0076 31.9697 75.0076C26.9697 76.0076 19.9697 75.5076 15.4697 75.5076C12.7771 75.5076 11.4697 73.1742 11.4697 72.0076C10.9697 69.0076 12.2196 65.841 13.8445 64.5076Z" stroke="black" stroke-width="0.5"/>
<path d="M11.4697 71.5076C19.4697 70.0077 22.9697 72.6362 25.9697 74.1362M12.9697 74.5077L30.4697 74.0077" stroke="black" stroke-width="0.5"/>
<path d="M21.9678 83.0076H31.4678C33.4678 83.0076 34.9678 81.0076 34.4678 80.0076M37.9678 80.0076V84.5076" stroke="black" stroke-width="0.5"/>
<path d="M21.9697 81.5078C17.4697 81.5078 12.9697 82.0078 1.46967 79.0078V77.0078L5.46967 75.0078V73.5078L1.46967 73.0078C0.96875 71.5076 -0.0310541 68.5076 1.96894 66.0076C1.46918 58.0076 1.96918 51.5076 3.96967 48.5073C36.4697 29.0077 58.4697 35.0078 84.4697 30.5078C162.47 -24.4924 244.47 12.5076 281.47 27.0077L294.97 29.0076L295.47 36.0076V39.0076C296.968 44.0076 298.303 48.5076 296.97 50.5076C299.47 51.5076 301.97 54.6742 301.97 56.5076L299.97 66.5076C300.422 77.3555 298.013 77.5798 288.682 77.8922C287.691 77.9254 285.622 77.9596 284.47 78.0076V79.5076L259.47 79.9386M21.9697 81.5078V84.5078H39.968L39.4697 80.0078M21.9697 81.5078V80.0078H39.4697M39.4697 80.0078C36.4697 38.5078 89.9697 41.5078 86.4697 80.5078V83.0076H212.97C206.97 39.5076 261.47 39.5076 259.47 79.9386M258.968 79.9386H259.47" stroke="black"/>
</svg>
