<svg width="303" height="96" viewBox="0 0 303 96" fill="none" xmlns="http://www.w3.org/2000/svg">
<circle cx="62.2915" cy="74.0303" r="20.5" fill="#E56E90" stroke="black"/>
<circle cx="235.292" cy="74.0303" r="20.5" fill="#E56E90" stroke="black"/>
<path d="M132.29 12.5301L130.79 9.03013C170.79 1.03024 192.29 1.53027 231.29 13.0302L227.79 17.5302C207.79 9.53018 189.79 8.53018 173.79 8.03025C171.29 7.53025 167.29 7.53021 164.79 8.03013C154.79 8.03025 142.79 9.53025 132.29 12.5301Z" fill="#EDADBF" stroke="black" stroke-width="0.5"/>
<path d="M130.79 9.03032L130.29 7.53032C166.29 -3.46973 198.79 0.530148 234.29 9.53032L231.29 13.0303C191.29 0.530273 165.29 2.03027 130.79 9.03032Z" fill="#EDADBF" stroke="black" stroke-width="0.5"/>
<path d="M130.79 9.03038C182.29 -2.46964 210.79 7.5304 231.29 13.0304" stroke="black" stroke-width="0.5"/>
<path d="M170.292 30.0303L173.792 8.03027C207.292 9.03027 218.792 14.5303 223.292 16.0303L225.774 28.0303C198.784 28.0309 181.289 29.5304 170.292 30.0303Z" fill="#EDADBF"/>
<path d="M226.292 30.5303L223.292 16.0303C218.792 14.5303 207.292 9.03027 173.792 8.03027L170.292 30.0303C181.292 29.5303 198.792 28.0303 225.792 28.0303" stroke="black" stroke-width="0.5"/>
<path d="M164.792 8.03027C131.792 9.03027 111.792 18.0303 92.7915 35.5303L95.2915 33.5303L159.292 30.5303L164.792 8.03027Z" fill="#EDADBF" stroke="black" stroke-width="0.5"/>
<path d="M239.29 22.5303C235.623 19.8636 229.79 17.5303 223.29 16.0303L225.79 28.0303H232.29C235.29 26.5303 238.29 24.299 239.29 22.5303Z" fill="#EDADBF" stroke="black" stroke-width="0.5"/>
<path d="M96.2915 78.5303H163.292L197.792 77.0303H212.292L212.792 82.5303H198.792H97.7915H86.2915V78.5303H96.2915Z" fill="#EDADBF"/>
<path d="M96.2915 78.5303H163.292L197.792 77.0303M96.2915 78.5303C96.2915 80.0303 96.7915 81.0303 97.7915 82.5303M96.2915 78.5303H86.2915V82.5303H97.7915M197.792 77.0303L198.792 82.5303M197.792 77.0303H212.292L212.792 82.5303H198.792M198.792 82.5303H97.7915" stroke="black" stroke-width="0.5"/>
<path d="M96.2906 78.5303C91.7915 74.0303 88.7915 52.0303 92.7906 35.5303L164.792 31.5303C160.792 36.5303 159.792 70.5303 163.291 78.5303H96.2906Z" fill="#EDADBF" stroke="black" stroke-width="0.5"/>
<path d="M228.291 30.5303L164.791 31.5303C160.791 36.5303 159.791 70.5303 163.291 78.5303L197.791 77.0303C202.291 75.5303 208.791 70.0303 228.291 30.5303Z" fill="#EDADBF" stroke="black" stroke-width="0.5"/>
<path d="M170.292 30.0303C165.792 30.5303 162.292 30.5303 159.292 30.5303L164.792 8.03035C167.792 7.53027 170.792 7.53027 173.792 8.03035L170.292 30.0303Z" fill="#EDADBF" stroke="black" stroke-width="0.5"/>
<path d="M98.7915 32.0305C103.292 37.5305 110.292 34.0305 114.292 32.5305C115.292 17.0304 102.292 25.0304 98.7915 32.0305Z" fill="#EDADBF" stroke="black" stroke-width="0.5"/>
<path d="M234.29 9.53027L231.29 13.0303C248.29 18.5303 258.79 21.5303 271.29 28.0303H272.79L280.79 26.5303C265.79 20.0303 258.29 17.5303 234.29 9.53027Z" stroke="black" stroke-width="0.5"/>
<path d="M271.29 28.0303C260.79 22.5303 241.79 16.0303 231.29 13.0303L229.29 15.5303L244.29 23.0303C242.79 25.5303 238.79 27.5303 232.79 30.2303C244.79 29.5303 261.79 28.5303 271.29 28.0303Z" stroke="black" stroke-width="0.5"/>
<path d="M276.792 34.3303L282.79 32.0303L272.291 28.0303L228.291 30.5303C220.791 45.5303 205.791 76.0303 197.791 77.0303H212.291C210.791 66.0303 220.291 42.5303 245.292 51.5303C255.792 46.0303 265.792 40.5303 276.792 34.3303Z" stroke="black" stroke-width="0.5"/>
<path d="M277.79 34.0303C265.79 40.5303 255.79 46.0303 245.29 51.5303C249.79 54.5303 260.29 60.5303 259.29 79.5303L284.29 79.0303V77.5303C292.79 76.5303 301.29 80.0303 299.79 66.0303L301.79 56.0303C301.79 54.5303 299.29 50.5303 296.79 50.0303C298.29 47.5303 295.29 38.5303 295.29 38.5303V37.0303L291.29 34.0303L286.29 32.5303L282.79 32.0303L277.79 34.0303Z" stroke="black" stroke-width="0.5"/>
<path d="M295.29 37.0303L295.284 36.9505M295.284 36.9505L294.79 28.5303L280.79 26.5303L272.29 28.0303L282.79 32.0303C292.29 33.0303 291.289 34.5303 295.284 36.9505Z" stroke="black" stroke-width="0.5"/>
<path d="M293.792 36.5305C293.292 34.0304 282.292 33.8303 276.792 34.3303" stroke="black" stroke-width="0.5"/>
<path d="M299.792 66.5303L260.292 68.5303C259.792 63.5303 257.625 59.3636 255.792 57.5303L301.792 55.0303M300.292 52.5303C289.292 51.0303 278.292 46.2303 266.292 40.2303M228.292 30.5303L272.292 28.0303L280.792 26.5303" stroke="black" stroke-width="0.5"/>
<path d="M272.292 43.0303C279.287 43.3801 285.304 43.4851 290.685 44.0303M297.292 45.0303C295.189 44.5796 292.995 44.2644 290.685 44.0303M295.292 37.5303C294.874 36.9451 294.404 36.4159 293.9 35.9403M290.685 44.0303C290.358 43.6855 290.264 43.1625 290.25 42.5303M290.25 42.5303C290.236 41.94 290.292 41.2546 290.292 40.5303C290.292 38.5303 289.292 34.5303 285.792 32.5303C288.012 32.5303 291.389 33.5707 293.9 35.9403M290.25 42.5303C293.292 41.0303 294.364 37.4703 293.9 35.9403" stroke="black" stroke-width="0.5"/>
<path d="M290.292 40.5303C285.792 40.5303 283.792 36.5303 282.792 34.0303" stroke="black" stroke-width="0.5"/>
<path d="M132.29 12.6302C118.79 16.6302 106.79 22.5303 92.79 35.5303C99.79 23.5303 115.29 14.0303 130.79 9.03027L132.29 12.6302Z" fill="#EFC7D3" stroke="black" stroke-width="0.5"/>
<path d="M130.79 9.03027C110.79 14.7043 92.79 32.0303 84.79 30.0303C97.79 20.5303 113.79 12.0303 130.29 7.53027L130.79 9.03027Z" fill="#EFC7D3" stroke="black" stroke-width="0.5"/>
<path d="M9.79071 48.0302H3.79071C1.29004 52.0302 1.29004 62.0302 1.79071 65.5302C0.290039 66.5302 0.290637 71.0302 1.29071 72.5302L5.29071 73.0302V74.5302L1.29071 76.5302V78.5302C5.29071 79.5302 13.7907 81.5302 21.7907 81.0302V79.5302H39.2907C38.624 71.0302 40.2907 60.5302 49.2907 53.5302C46.7907 49.5302 39.7907 45.0302 36.7907 44.5302C26.7907 43.5302 11.7907 46.0302 9.79071 48.0302Z" fill="#EFC7D3" stroke="black" stroke-width="0.5"/>
<path d="M92.7915 35.5303C74.9582 36.3636 43.2915 41.2303 32.7915 44.2303L36.7915 44.5303C41.7915 46.0303 47.2915 50.3636 49.2915 53.5303C62.2905 44.0303 87.7905 51.0303 86.2905 78.5303H96.2905C89.2905 67.5303 90.2905 45.5303 92.7915 35.5303Z" fill="#EFC7D3" stroke="black" stroke-width="0.5"/>
<path d="M9.79004 48.0303H3.79004C36.2902 28.5302 58.2903 34.5303 84.29 30.0303L93.2903 35.5303C76.2903 36.5303 47.29 40.0303 33.29 44.2303C25.29 44.0303 11.29 46.0303 9.79004 48.0303Z" fill="#EFC7D3" stroke="black" stroke-width="0.5"/>
<path d="M36.7915 44.5303C29.2915 43.5303 12.2915 45.5303 9.79149 48.0303C8.99149 50.4303 12.1248 53.3636 13.7915 54.5303C23.2915 56.0303 36.7915 50.0303 36.7915 44.5303Z" fill="#EFC7D3" stroke="black" stroke-width="0.5"/>
<path d="M3.79073 48.0303C10.7907 49.0303 4.79073 59.5303 1.79073 64.5303C1.29066 57.5303 1.79053 52.0303 3.79073 48.0303Z" fill="#EFC7D3" stroke="black" stroke-width="0.5"/>
<path d="M21.79 84.0303V79.5303H39.29L39.79 84.0303H21.79Z" fill="#EFC7D3" stroke="black" stroke-width="0.5"/>
<path d="M2.29199 65.5303C3.79199 68.0303 5.79199 71.1969 5.29199 73.0303M21.792 79.5303C11.292 80.0303 6.79199 76.0303 7.79199 72.5303C8.29199 72.0303 9.79199 70.5303 10.792 70.5303" stroke="black" stroke-width="0.5"/>
<path d="M31.792 74.5304C29.292 70.5304 23.792 65.5305 20.792 64.0305C19.0419 63.5305 16.4169 63.6555 13.6668 64.0305C12.0419 65.3638 10.792 68.5304 11.292 71.5304C11.292 72.6971 12.5994 75.0304 15.292 75.0304C19.792 75.0304 26.792 75.5304 31.792 74.5304Z" fill="#EFC7D3"/>
<path d="M5.79199 65.5305C8.04193 65.0304 10.9168 64.4055 13.6668 64.0305M13.6668 64.0305C16.4169 63.6555 19.0419 63.5305 20.792 64.0305C23.792 65.5305 29.292 70.5304 31.792 74.5304C26.792 75.5304 19.792 75.0304 15.292 75.0304C12.5994 75.0304 11.292 72.6971 11.292 71.5304C10.792 68.5304 12.0418 65.3638 13.6668 64.0305Z" stroke="black" stroke-width="0.5"/>
<path d="M11.292 71.0305C19.292 69.5305 22.792 72.159 25.792 73.659M12.792 74.0305L30.292 73.5305" stroke="black" stroke-width="0.5"/>
<path d="M21.79 82.5303H31.29C33.29 82.5303 34.79 80.5303 34.29 79.5303M37.79 79.5303V84.0303" stroke="black" stroke-width="0.5"/>
<path d="M21.7915 81.0305C17.2915 81.0305 12.7915 81.5305 1.29145 78.5305V76.5305L5.29145 74.5305V73.0305L1.29145 72.5305C0.790527 71.0303 -0.209277 68.0303 1.79072 65.5303C1.29096 57.5303 1.79096 51.0303 3.79145 48.03C36.2915 28.5304 58.2914 34.5305 84.2914 30.0305C162.291 -24.9697 244.291 12.0303 281.291 26.5305L294.791 28.5303L295.291 35.5303V38.5303C296.79 43.5303 298.125 48.0303 296.791 50.0303C299.291 51.0303 301.791 54.1969 301.791 56.0303L299.791 66.0303C300.243 76.8782 297.835 77.1025 288.504 77.4149C287.513 77.4481 285.444 77.4823 284.291 77.5303V79.0303L259.291 79.4613M21.7915 81.0305V84.0305H39.7898L39.2915 79.5305M21.7915 81.0305V79.5305H39.2915M39.2915 79.5305C36.2915 38.0305 89.7914 41.0305 86.2914 80.0305V82.5303H212.791C206.791 39.0303 261.291 39.0303 259.291 79.4613M258.79 79.4613H259.291" stroke="black"/>
</svg>
