<svg width="303" height="95" viewBox="0 0 303 95" fill="none" xmlns="http://www.w3.org/2000/svg">
<circle cx="62.8955" cy="73.8459" r="20.5" fill="#EFC7D3" stroke="black"/>
<circle cx="235.896" cy="73.8459" r="20.5" fill="#EFC7D3" stroke="black"/>
<path d="M132.894 12.3458L131.394 8.8458C171.394 0.845915 192.894 1.34595 231.894 12.8459L228.394 17.3459C208.394 9.34586 190.394 8.34586 174.394 7.84592C171.894 7.34592 167.894 7.34589 165.394 7.8458C155.394 7.84592 143.394 9.34592 132.894 12.3458Z" stroke="black" stroke-width="0.5"/>
<path d="M131.394 8.84599L130.894 7.34599C166.894 -3.65405 199.394 0.345821 234.894 9.34599L231.894 12.846C191.894 0.345947 165.894 1.84595 131.394 8.84599Z" stroke="black" stroke-width="0.5"/>
<path d="M131.394 8.84593C182.894 -2.65409 211.394 7.34595 231.894 12.8459" stroke="black" stroke-width="0.5"/>
<path d="M226.896 30.3459L223.896 15.8459C219.396 14.3459 207.896 8.84595 174.396 7.84595L170.896 29.8459C181.896 29.3459 199.396 27.8459 226.396 27.8459" stroke="black" stroke-width="0.5"/>
<path d="M165.396 7.84595C132.396 8.84595 112.396 17.8459 93.3955 35.3459L95.8955 33.3459L159.896 30.3459L165.396 7.84595Z" stroke="black" stroke-width="0.5"/>
<path d="M239.894 22.3459C236.227 19.6793 230.394 17.3459 223.894 15.8459L226.394 27.8459H232.894C235.894 26.3459 238.894 24.1147 239.894 22.3459Z" stroke="black" stroke-width="0.5"/>
<path d="M96.8955 78.3459H163.896L198.396 76.8459M96.8955 78.3459C96.8955 79.8459 97.3955 80.8459 98.3955 82.3459M96.8955 78.3459H86.8955V82.3459H98.3955M198.396 76.8459L199.396 82.3459M198.396 76.8459H212.896L213.396 82.3459H199.396M199.396 82.3459H98.3955" stroke="black" stroke-width="0.5"/>
<path d="M96.8946 78.3459C92.3955 73.8459 89.3956 51.8459 93.3946 35.3459L165.396 31.3459C161.396 36.3459 160.396 70.3459 163.896 78.3459H96.8946Z" stroke="black" stroke-width="0.5"/>
<path d="M228.895 30.3459L165.395 31.3459C161.396 36.3459 160.396 70.3459 163.895 78.3459L198.395 76.8459C202.895 75.3459 209.395 69.8459 228.895 30.3459Z" stroke="black" stroke-width="0.5"/>
<path d="M170.896 29.846C166.396 30.346 162.896 30.346 159.896 30.346L165.396 7.84602C168.396 7.34595 171.396 7.34595 174.396 7.84602L170.896 29.846Z" stroke="black" stroke-width="0.5"/>
<path d="M99.3955 31.8461C103.896 37.3461 110.896 33.8461 114.896 32.3461C115.896 16.846 102.896 24.8459 99.3955 31.8461Z" stroke="black" stroke-width="0.5"/>
<path d="M234.894 9.34595L231.894 12.8459C248.894 18.3459 259.394 21.3459 271.894 27.8459H273.394L281.394 26.3459C266.394 19.8459 258.894 17.3459 234.894 9.34595Z" stroke="black" stroke-width="0.5"/>
<path d="M271.894 27.8459C261.394 22.3459 242.394 15.8459 231.894 12.8459L229.894 15.3459L244.894 22.8459C243.394 25.3459 239.394 27.3459 233.394 30.0459C245.394 29.3459 262.394 28.3459 271.894 27.8459Z" stroke="black" stroke-width="0.5"/>
<path d="M277.396 34.1459L283.394 31.8459L272.895 27.8459L228.895 30.3459C221.395 45.3459 206.395 75.8459 198.395 76.8459H212.895C211.395 65.8459 220.895 42.3459 245.896 51.3459C256.396 45.8459 266.396 40.3459 277.396 34.1459Z" stroke="black" stroke-width="0.5"/>
<path d="M278.394 33.846C266.394 40.346 256.394 45.846 245.894 51.346C250.394 54.3459 260.894 60.3459 259.894 79.3459L284.894 78.8459V77.3459C293.394 76.3459 301.894 79.8459 300.394 65.8459L302.394 55.8459C302.394 54.3459 299.894 50.3459 297.394 49.8459C298.894 47.3459 295.894 38.3459 295.894 38.3459V36.8459L291.894 33.8459L286.894 32.3459L283.394 31.8459L278.394 33.846Z" stroke="black" stroke-width="0.5"/>
<path d="M295.894 36.8459L295.888 36.7661M295.888 36.7661L295.394 28.3459L281.394 26.3459L272.894 27.8459L283.394 31.8459C292.894 32.8459 291.892 34.3459 295.888 36.7661Z" stroke="black" stroke-width="0.5"/>
<path d="M294.396 36.3461C293.896 33.846 282.896 33.646 277.396 34.146" stroke="black" stroke-width="0.5"/>
<path d="M300.396 66.3459L260.896 68.3459C260.396 63.3459 258.229 59.1793 256.396 57.3459L302.396 54.8459M300.896 52.3459C289.896 50.8459 278.896 46.0459 266.896 40.0459M228.896 30.3459L272.896 27.8459L281.396 26.3459" stroke="black" stroke-width="0.5"/>
<path d="M272.896 42.8459C279.891 43.1957 285.908 43.3008 291.289 43.8459M297.896 44.8459C295.793 44.3953 293.599 44.08 291.289 43.8459M295.896 37.3459C295.478 36.7608 295.008 36.2316 294.504 35.7559M291.289 43.8459C290.962 43.5012 290.868 42.9781 290.854 42.3459M290.854 42.3459C290.84 41.7557 290.896 41.0702 290.896 40.3459C290.896 38.3459 289.896 34.3459 286.396 32.3459C288.616 32.3459 291.993 33.3863 294.504 35.7559M290.854 42.3459C293.896 40.8459 294.968 37.2859 294.504 35.7559" stroke="black" stroke-width="0.5"/>
<path d="M290.896 40.3459C286.396 40.3459 284.396 36.3459 283.396 33.8459" stroke="black" stroke-width="0.5"/>
<path d="M132.894 12.4459C119.394 16.4459 107.394 22.3459 93.394 35.3459C100.394 23.3459 115.894 13.8459 131.394 8.84595L132.894 12.4459Z" fill="#E0426F" stroke="black" stroke-width="0.5"/>
<path d="M131.394 8.84595C111.394 14.52 93.394 31.8459 85.394 29.8459C98.394 20.3459 114.394 11.8459 130.894 7.34595L131.394 8.84595Z" fill="#E0426F" stroke="black" stroke-width="0.5"/>
<path d="M10.3947 47.846H4.39471C1.89404 51.8459 1.89404 61.8459 2.39471 65.3459C0.894043 66.3459 0.89464 70.8459 1.89471 72.3459L5.89471 72.8459V74.3459L1.89471 76.3459V78.3459C5.89471 79.3459 14.3947 81.3459 22.3947 80.8459V79.3459H39.8947C39.228 70.8459 40.8947 60.3459 49.8947 53.3459C47.3947 49.3459 40.3947 44.8459 37.3947 44.346C27.3947 43.3459 12.3947 45.846 10.3947 47.846Z" fill="#E0426F" stroke="black" stroke-width="0.5"/>
<path d="M93.3955 35.3459C75.5622 36.1793 43.8955 41.0459 33.3955 44.0459L37.3955 44.3459C42.3955 45.8459 47.8955 50.1793 49.8955 53.3459C62.8945 43.8459 88.3945 50.8459 86.8945 78.3459H96.8945C89.8945 67.3459 90.8945 45.3459 93.3955 35.3459Z" fill="#E0426F" stroke="black" stroke-width="0.5"/>
<path d="M10.3936 47.846H4.39355C36.8937 28.3459 58.8938 34.3459 84.8936 29.8459L93.8938 35.3459C76.8938 36.3459 47.8936 39.8459 33.8936 44.046C25.8936 43.8459 11.8936 45.8459 10.3936 47.846Z" fill="#E0426F" stroke="black" stroke-width="0.5"/>
<path d="M37.3955 44.346C29.8955 43.3459 12.8955 45.3459 10.3955 47.846C9.5955 50.246 12.7288 53.1793 14.3955 54.3459C23.8955 55.8459 37.3955 49.8459 37.3955 44.346Z" fill="#E0426F" stroke="black" stroke-width="0.5"/>
<path d="M4.39474 47.8459C11.3947 48.8459 5.39474 59.3459 2.39474 64.3459C1.89467 57.3459 2.39453 51.8459 4.39474 47.8459Z" fill="#E0426F" stroke="black" stroke-width="0.5"/>
<path d="M22.394 83.8459V79.3459H39.894L40.394 83.8459H22.394Z" fill="#E0426F" stroke="black" stroke-width="0.5"/>
<path d="M2.89551 65.3459C4.39551 67.8459 6.39551 71.0126 5.89551 72.8459M22.3955 79.3459C11.8955 79.8459 7.39551 75.8459 8.39551 72.3459C8.89551 71.8459 10.3955 70.3459 11.3955 70.3459" stroke="black" stroke-width="0.5"/>
<path d="M32.3955 74.3459C29.8955 70.3459 24.3955 65.346 21.3955 63.846C19.6455 63.346 17.0204 63.471 14.2703 63.846C12.6454 65.1793 11.3955 68.3459 11.8955 71.3459C11.8955 72.5126 13.2029 74.8459 15.8955 74.8459C20.3955 74.8459 27.3955 75.3459 32.3955 74.3459Z" fill="#E0426F"/>
<path d="M6.39551 65.346C8.64545 64.846 11.5204 64.221 14.2703 63.846M14.2703 63.846C17.0204 63.471 19.6455 63.346 21.3955 63.846C24.3955 65.346 29.8955 70.3459 32.3955 74.3459C27.3955 75.3459 20.3955 74.8459 15.8955 74.8459C13.2029 74.8459 11.8955 72.5126 11.8955 71.3459C11.3955 68.3459 12.6454 65.1793 14.2703 63.846Z" stroke="black" stroke-width="0.5"/>
<path d="M11.8955 70.846C19.8955 69.3461 23.3955 71.9745 26.3955 73.4745M13.3955 73.8461L30.8955 73.3461" stroke="black" stroke-width="0.5"/>
<path d="M22.3936 82.3459H31.8936C33.8936 82.3459 35.3936 80.3459 34.8936 79.3459M38.3936 79.3459V83.8459" stroke="black" stroke-width="0.5"/>
<path d="M22.3955 80.8462C17.8955 80.8462 13.3955 81.3462 1.89545 78.3462V76.3462L5.89545 74.3462V72.8462L1.89545 72.3462C1.39453 70.8459 0.394727 67.8459 2.39472 65.3459C1.89497 57.3459 2.39497 50.8459 4.39545 47.8457C36.8955 28.3461 58.8954 34.3461 84.8954 29.8461C162.895 -25.154 244.895 11.8459 281.895 26.3461L295.395 28.3459L295.895 35.3459V38.3459C297.394 43.3459 298.729 47.8459 297.395 49.8459C299.895 50.8459 302.395 54.0126 302.395 55.8459L300.395 65.8459C300.847 76.6939 298.439 76.9181 289.108 77.2306C288.117 77.2638 286.048 77.2979 284.895 77.3459V78.8459L259.895 79.277M22.3955 80.8462V83.8462H40.3938L39.8955 79.3462M22.3955 80.8462V79.3462H39.8955M39.8955 79.3462C36.8955 37.8462 90.3954 40.8462 86.8954 79.8462V82.3459H213.395C207.395 38.8459 261.895 38.8459 259.895 79.277M259.394 79.277H259.895" stroke="black"/>
</svg>
