<svg width="303" height="96" viewBox="0 0 303 96" fill="none" xmlns="http://www.w3.org/2000/svg">
<circle cx="62.2607" cy="74.3687" r="20.5" fill="#E56E90" stroke="black"/>
<circle cx="235.261" cy="74.3687" r="20.5" fill="#E56E90" stroke="black"/>
<path d="M132.259 12.8685L130.759 9.36851C170.759 1.36862 192.259 1.86865 231.259 13.3686L227.759 17.8686C207.759 9.86856 189.759 8.86856 173.759 8.36863C171.259 7.86863 167.259 7.86859 164.759 8.36851C154.759 8.36863 142.759 9.86863 132.259 12.8685Z" fill="#EDADBF" stroke="black" stroke-width="0.5"/>
<path d="M130.759 9.3687L130.259 7.8687C166.259 -3.13135 198.759 0.868526 234.259 9.8687L231.259 13.3687C191.259 0.868652 165.259 2.36865 130.759 9.3687Z" fill="#EDADBF" stroke="black" stroke-width="0.5"/>
<path d="M130.759 9.36876C182.259 -2.13126 210.759 7.86877 231.259 13.3688" stroke="black" stroke-width="0.5"/>
<path d="M170.261 30.3687L173.761 8.36865C207.261 9.36865 218.761 14.8687 223.261 16.3687L225.743 28.3687C198.753 28.3693 181.258 29.8688 170.261 30.3687Z" fill="#EDADBF"/>
<path d="M226.261 30.8687L223.261 16.3687C218.761 14.8687 207.261 9.36865 173.761 8.36865L170.261 30.3687C181.261 29.8687 198.761 28.3687 225.761 28.3687" stroke="black" stroke-width="0.5"/>
<path d="M164.761 8.36865C131.761 9.36865 111.761 18.3687 92.7607 35.8687L95.2607 33.8687L159.261 30.8687L164.761 8.36865Z" fill="#EDADBF" stroke="black" stroke-width="0.5"/>
<path d="M239.259 22.8687C235.592 20.202 229.759 17.8687 223.259 16.3687L225.759 28.3687H232.259C235.259 26.8687 238.259 24.6374 239.259 22.8687Z" fill="#EDADBF" stroke="black" stroke-width="0.5"/>
<path d="M96.2607 78.8687H163.261L197.761 77.3687H212.261L212.761 82.8687H198.761H97.7607H86.2607V78.8687H96.2607Z" fill="#EDADBF"/>
<path d="M96.2607 78.8687H163.261L197.761 77.3687M96.2607 78.8687C96.2607 80.3687 96.7607 81.3687 97.7607 82.8687M96.2607 78.8687H86.2607V82.8687H97.7607M197.761 77.3687L198.761 82.8687M197.761 77.3687H212.261L212.761 82.8687H198.761M198.761 82.8687H97.7607" stroke="black" stroke-width="0.5"/>
<path d="M96.2599 78.8687C91.7607 74.3687 88.7608 52.3687 92.7599 35.8687L164.761 31.8687C160.761 36.8687 159.761 70.8687 163.261 78.8687H96.2599Z" fill="#EDADBF" stroke="black" stroke-width="0.5"/>
<path d="M228.261 30.8687L164.761 31.8687C160.761 36.8687 159.761 70.8687 163.261 78.8687L197.761 77.3687C202.261 75.8687 208.761 70.3687 228.261 30.8687Z" fill="#EDADBF" stroke="black" stroke-width="0.5"/>
<path d="M170.261 30.3687C165.761 30.8687 162.261 30.8687 159.261 30.8687L164.761 8.36873C167.761 7.86865 170.761 7.86865 173.761 8.36873L170.261 30.3687Z" fill="#EDADBF" stroke="black" stroke-width="0.5"/>
<path d="M98.7607 32.3689C103.261 37.8689 110.261 34.3689 114.261 32.8689C115.261 17.3688 102.261 25.3688 98.7607 32.3689Z" fill="#EDADBF" stroke="black" stroke-width="0.5"/>
<path d="M234.259 9.86865L231.259 13.3687C248.259 18.8687 258.759 21.8687 271.259 28.3687H272.759L280.759 26.8687C265.759 20.3687 258.259 17.8687 234.259 9.86865Z" fill="#E56E90" stroke="black" stroke-width="0.5"/>
<path d="M271.259 28.3687C260.759 22.8687 241.759 16.3687 231.259 13.3687L229.259 15.8687L244.259 23.3687C242.759 25.8687 238.759 27.8687 232.759 30.5687C244.759 29.8687 261.759 28.8687 271.259 28.3687Z" fill="#E56E90" stroke="black" stroke-width="0.5"/>
<path d="M276.761 34.6687L282.759 32.3687L272.26 28.3687L228.26 30.8687C220.76 45.8687 205.76 76.3687 197.76 77.3687H212.26C210.76 66.3687 220.26 42.8687 245.261 51.8687C255.761 46.3687 265.761 40.8687 276.761 34.6687Z" fill="#E56E90" stroke="black" stroke-width="0.5"/>
<path d="M277.759 34.3687C265.759 40.8687 255.759 46.3687 245.259 51.8687C249.759 54.8687 260.259 60.8687 259.259 79.8687L284.259 79.3687V77.8687C292.759 76.8687 301.259 80.3687 299.759 66.3687L301.759 56.3687C301.759 54.8687 299.259 50.8687 296.759 50.3687C298.259 47.8687 295.259 38.8687 295.259 38.8687V37.3687L291.259 34.3687L286.259 32.8687L282.759 32.3687L277.759 34.3687Z" fill="#E56E90" stroke="black" stroke-width="0.5"/>
<path d="M280.759 26.8687L272.259 28.3687L282.759 32.3687C292.259 33.3687 291.258 34.8687 295.253 37.2888L294.759 28.8687L280.759 26.8687Z" fill="#E56E90"/>
<path d="M295.259 37.3687L295.253 37.2888M295.253 37.2888L294.759 28.8687L280.759 26.8687L272.259 28.3687L282.759 32.3687C292.259 33.3687 291.258 34.8687 295.253 37.2888Z" stroke="black" stroke-width="0.5"/>
<path d="M293.761 36.8689C293.261 34.3687 282.261 34.1687 276.761 34.6687" stroke="black" stroke-width="0.5"/>
<path d="M299.761 66.8687L260.261 68.8687C259.761 63.8687 257.594 59.702 255.761 57.8687L301.761 55.3687M300.261 52.8687C289.261 51.3687 278.261 46.5687 266.261 40.5687M228.261 30.8687L272.261 28.3687L280.761 26.8687" stroke="black" stroke-width="0.5"/>
<path d="M290.261 40.8687C290.261 38.8687 289.261 34.8687 285.761 32.8687C287.982 32.8687 291.358 33.909 293.87 36.2786C294.333 37.8086 293.261 41.3687 290.219 42.8687C290.205 42.2784 290.261 41.5929 290.261 40.8687Z" fill="#E56E90"/>
<path d="M272.261 43.3687C279.256 43.7184 285.273 43.8235 290.654 44.3687M297.261 45.3687C295.158 44.918 292.964 44.6028 290.654 44.3687M295.261 37.8687C294.843 37.2835 294.374 36.7543 293.87 36.2786M290.654 44.3687C290.328 44.0239 290.234 43.5008 290.219 42.8687M290.219 42.8687C290.205 42.2784 290.261 41.5929 290.261 40.8687C290.261 38.8687 289.261 34.8687 285.761 32.8687C287.982 32.8687 291.358 33.909 293.87 36.2786M290.219 42.8687C293.261 41.3687 294.333 37.8086 293.87 36.2786" stroke="black" stroke-width="0.5"/>
<path d="M290.261 40.8687C285.761 40.8687 283.761 36.8687 282.761 34.3687" stroke="black" stroke-width="0.5"/>
<path d="M132.259 12.9686C118.759 16.9686 106.759 22.8687 92.7588 35.8687C99.7588 23.8687 115.259 14.3687 130.759 9.36865L132.259 12.9686Z" fill="#E56E90" stroke="black" stroke-width="0.5"/>
<path d="M130.759 9.36865C110.759 15.0427 92.7588 32.3687 84.7588 30.3687C97.7588 20.8687 113.759 12.3687 130.259 7.86865L130.759 9.36865Z" fill="#E56E90" stroke="black" stroke-width="0.5"/>
<path d="M9.75946 48.3685H3.75946C1.25879 52.3685 1.25879 62.3685 1.75946 65.8685C0.258789 66.8685 0.259387 71.3685 1.25946 72.8685L5.25946 73.3685V74.8685L1.25946 76.8685V78.8685C5.25946 79.8685 13.7595 81.8685 21.7595 81.3685V79.8685H39.2595C38.5928 71.3685 40.2595 60.8685 49.2595 53.8685C46.7595 49.8685 39.7595 45.3685 36.7595 44.8685C26.7595 43.8685 11.7595 46.3685 9.75946 48.3685Z" fill="#E56E90" stroke="black" stroke-width="0.5"/>
<path d="M92.7607 35.8687C74.9274 36.702 43.2607 41.5687 32.7607 44.5687L36.7607 44.8687C41.7607 46.3687 47.2607 50.702 49.2607 53.8687C62.2598 44.3687 87.7598 51.3687 86.2598 78.8687H96.2598C89.2598 67.8687 90.2598 45.8687 92.7607 35.8687Z" fill="#E56E90" stroke="black" stroke-width="0.5"/>
<path d="M9.75879 48.3687H3.75879C36.259 28.8686 58.259 34.8687 84.2588 30.3687L93.259 35.8687C76.259 36.8687 47.2588 40.3686 33.2588 44.5687C25.2588 44.3686 11.2588 46.3686 9.75879 48.3687Z" fill="#E56E90" stroke="black" stroke-width="0.5"/>
<path d="M36.7602 44.8687C29.2602 43.8687 12.2602 45.8687 9.76024 48.3687C8.96024 50.7687 12.0936 53.702 13.7602 54.8687C23.2603 56.3687 36.7602 50.3687 36.7602 44.8687Z" fill="#E56E90" stroke="black" stroke-width="0.5"/>
<path d="M3.75948 48.3687C10.7595 49.3687 4.75948 59.8687 1.75948 64.8687C1.25941 57.8687 1.75928 52.3687 3.75948 48.3687Z" fill="#E56E90" stroke="black" stroke-width="0.5"/>
<path d="M21.7588 84.3687V79.8687H39.2588L39.7588 84.3687H21.7588Z" fill="#E56E90" stroke="black" stroke-width="0.5"/>
<path d="M2.26074 65.8687C3.76074 68.3687 5.76074 71.5353 5.26074 73.3687M21.7607 79.8687C11.2607 80.3687 6.76074 76.3687 7.76074 72.8687C8.26074 72.3687 9.76074 70.8687 10.7607 70.8687" stroke="black" stroke-width="0.5"/>
<path d="M31.7607 74.8688C29.2607 70.8688 23.7607 65.8689 20.7607 64.3689C19.0107 63.8688 16.3856 63.9938 13.6355 64.3689C12.0106 65.7022 10.7607 68.8688 11.2607 71.8688C11.2607 73.0354 12.5682 75.3688 15.2607 75.3688C19.7607 75.3688 26.7607 75.8688 31.7607 74.8688Z" fill="#E56E90"/>
<path d="M5.76074 65.8689C8.01068 65.3688 10.8856 64.7438 13.6355 64.3689M13.6355 64.3689C16.3856 63.9938 19.0107 63.8688 20.7607 64.3689C23.7607 65.8689 29.2607 70.8688 31.7607 74.8688C26.7607 75.8688 19.7607 75.3688 15.2607 75.3688C12.5682 75.3688 11.2607 73.0354 11.2607 71.8688C10.7607 68.8688 12.0106 65.7022 13.6355 64.3689Z" stroke="black" stroke-width="0.5"/>
<path d="M11.2607 71.3688C19.2607 69.8689 22.7607 72.4974 25.7607 73.9974M12.7607 74.3689L30.2607 73.8689" stroke="black" stroke-width="0.5"/>
<path d="M21.7588 82.8687H31.2588C33.2588 82.8687 34.7588 80.8687 34.2588 79.8687M37.7588 79.8687V84.3687" stroke="black" stroke-width="0.5"/>
<path d="M21.7607 81.3689C17.2607 81.3689 12.7607 81.8689 1.26069 78.8689V76.8689L5.26069 74.8689V73.3689L1.26069 72.8689C0.759766 71.3687 -0.240039 68.3687 1.75996 65.8687C1.2602 57.8687 1.7602 51.3687 3.76069 48.3684C36.2607 28.8688 58.2607 34.8688 84.2607 30.3688C162.261 -24.6313 244.261 12.3686 281.261 26.8688L294.761 28.8687L295.261 35.8687V38.8687C296.759 43.8687 298.094 48.3687 296.761 50.3687C299.261 51.3687 301.761 54.5353 301.761 56.3687L299.761 66.3687C300.213 77.2166 297.805 77.4408 288.473 77.7533C287.482 77.7865 285.413 77.8206 284.261 77.8687V79.3687L259.261 79.7997M21.7607 81.3689V84.3689H39.759L39.2607 79.8689M21.7607 81.3689V79.8689H39.2607M39.2607 79.8689C36.2607 38.3689 89.7607 41.3689 86.2607 80.3689V82.8687H212.761C206.761 39.3687 261.261 39.3687 259.261 79.7997M258.759 79.7997H259.261" stroke="black"/>
</svg>
