<svg width="303" height="96" viewBox="0 0 303 96" fill="none" xmlns="http://www.w3.org/2000/svg">
<circle cx="62.2607" cy="74.1843" r="20.5" fill="#E56E90" stroke="black"/>
<circle cx="235.261" cy="74.1843" r="20.5" fill="#E56E90" stroke="black"/>
<path d="M132.259 12.6842L130.759 9.18418C170.759 1.18429 192.259 1.68433 231.259 13.1843L227.759 17.6843C207.759 9.68424 189.759 8.68423 173.759 8.1843C171.259 7.6843 167.259 7.68427 164.759 8.18418C154.759 8.1843 142.759 9.6843 132.259 12.6842Z" fill="#EFC7D3" stroke="black" stroke-width="0.5"/>
<path d="M130.759 9.18437L130.259 7.68437C166.259 -3.31567 198.759 0.6842 234.259 9.68437L231.259 13.1844C191.259 0.684326 165.259 2.18433 130.759 9.18437Z" fill="#EFC7D3" stroke="black" stroke-width="0.5"/>
<path d="M130.759 9.18431C182.259 -2.31571 210.759 7.68433 231.259 13.1843" stroke="black" stroke-width="0.5"/>
<path d="M170.261 30.1843L173.761 8.18433C207.261 9.18433 218.761 14.6843 223.261 16.1843L225.743 28.1843C198.753 28.185 181.258 29.6844 170.261 30.1843Z" fill="#EFC7D3"/>
<path d="M226.261 30.6843L223.261 16.1843C218.761 14.6843 207.261 9.18433 173.761 8.18433L170.261 30.1843C181.261 29.6843 198.761 28.1843 225.761 28.1843" stroke="black" stroke-width="0.5"/>
<path d="M164.761 8.18433C131.761 9.18433 111.761 18.1843 92.7607 35.6843L95.2607 33.6843L159.261 30.6843L164.761 8.18433Z" fill="#EFC7D3" stroke="black" stroke-width="0.5"/>
<path d="M239.259 22.6843C235.592 20.0177 229.759 17.6843 223.259 16.1843L225.759 28.1843H232.259C235.259 26.6843 238.259 24.4531 239.259 22.6843Z" fill="#EFC7D3" stroke="black" stroke-width="0.5"/>
<path d="M96.2607 78.6843H163.261L197.761 77.1843H212.261L212.761 82.6843H198.761H97.7607H86.2607V78.6843H96.2607Z" fill="#EFC7D3"/>
<path d="M96.2607 78.6843H163.261L197.761 77.1843M96.2607 78.6843C96.2607 80.1843 96.7607 81.1843 97.7607 82.6843M96.2607 78.6843H86.2607V82.6843H97.7607M197.761 77.1843L198.761 82.6843M197.761 77.1843H212.261L212.761 82.6843H198.761M198.761 82.6843H97.7607" stroke="black" stroke-width="0.5"/>
<path d="M96.2599 78.6843C91.7607 74.1843 88.7608 52.1843 92.7599 35.6843L164.761 31.6843C160.761 36.6843 159.761 70.6843 163.261 78.6843H96.2599Z" fill="#EFC7D3" stroke="black" stroke-width="0.5"/>
<path d="M228.261 30.6843L164.761 31.6843C160.761 36.6843 159.761 70.6843 163.261 78.6843L197.761 77.1843C202.261 75.6843 208.761 70.1843 228.261 30.6843Z" fill="#EFC7D3" stroke="black" stroke-width="0.5"/>
<path d="M170.261 30.1844C165.761 30.6844 162.261 30.6844 159.261 30.6844L164.761 8.1844C167.761 7.68433 170.761 7.68433 173.761 8.1844L170.261 30.1844Z" fill="#EFC7D3" stroke="black" stroke-width="0.5"/>
<path d="M98.7607 32.1845C103.261 37.6845 110.261 34.1845 114.261 32.6845C115.261 17.1843 102.261 25.1843 98.7607 32.1845Z" fill="#EFC7D3" stroke="black" stroke-width="0.5"/>
<path d="M234.259 9.68433L231.259 13.1843C248.259 18.6843 258.759 21.6843 271.259 28.1843H272.759L280.759 26.6843C265.759 20.1843 258.259 17.6843 234.259 9.68433Z" fill="#E56E90" stroke="black" stroke-width="0.5"/>
<path d="M271.259 28.1843C260.759 22.6843 241.759 16.1843 231.259 13.1843L229.259 15.6843L244.259 23.1843C242.759 25.6843 238.759 27.6843 232.759 30.3843C244.759 29.6843 261.759 28.6843 271.259 28.1843Z" fill="#E56E90" stroke="black" stroke-width="0.5"/>
<path d="M276.761 34.4843L282.759 32.1843L272.26 28.1843L228.26 30.6843C220.76 45.6843 205.76 76.1843 197.76 77.1843H212.26C210.76 66.1843 220.26 42.6843 245.261 51.6843C255.761 46.1843 265.761 40.6843 276.761 34.4843Z" fill="#E56E90" stroke="black" stroke-width="0.5"/>
<path d="M277.759 34.1844C265.759 40.6844 255.759 46.1844 245.259 51.6844C249.759 54.6843 260.259 60.6843 259.259 79.6843L284.259 79.1843V77.6843C292.759 76.6843 301.259 80.1843 299.759 66.1843L301.759 56.1843C301.759 54.6843 299.259 50.6843 296.759 50.1843C298.259 47.6843 295.259 38.6843 295.259 38.6843V37.1843L291.259 34.1843L286.259 32.6843L282.759 32.1843L277.759 34.1844Z" fill="#E56E90" stroke="black" stroke-width="0.5"/>
<path d="M280.759 26.6843L272.259 28.1843L282.759 32.1843C292.259 33.1843 291.258 34.6843 295.253 37.1045L294.759 28.6843L280.759 26.6843Z" fill="#E56E90"/>
<path d="M295.259 37.1843L295.253 37.1045M295.253 37.1045L294.759 28.6843L280.759 26.6843L272.259 28.1843L282.759 32.1843C292.259 33.1843 291.258 34.6843 295.253 37.1045Z" stroke="black" stroke-width="0.5"/>
<path d="M293.761 36.6845C293.261 34.1844 282.261 33.9843 276.761 34.4843" stroke="black" stroke-width="0.5"/>
<path d="M299.761 66.6843L260.261 68.6843C259.761 63.6843 257.594 59.5177 255.761 57.6843L301.761 55.1843M300.261 52.6843C289.261 51.1843 278.261 46.3843 266.261 40.3843M228.261 30.6843L272.261 28.1843L280.761 26.6843" stroke="black" stroke-width="0.5"/>
<path d="M290.261 40.6843C290.261 38.6843 289.261 34.6843 285.761 32.6843C287.982 32.6843 291.358 33.7247 293.87 36.0943C294.333 37.6243 293.261 41.1843 290.219 42.6843C290.205 42.094 290.261 41.4086 290.261 40.6843Z" fill="#E56E90"/>
<path d="M272.261 43.1843C279.256 43.5341 285.273 43.6392 290.654 44.1843M297.261 45.1843C295.158 44.7337 292.964 44.4184 290.654 44.1843M295.261 37.6843C294.843 37.0992 294.374 36.57 293.87 36.0943M290.654 44.1843C290.328 43.8396 290.234 43.3165 290.219 42.6843M290.219 42.6843C290.205 42.094 290.261 41.4086 290.261 40.6843C290.261 38.6843 289.261 34.6843 285.761 32.6843C287.982 32.6843 291.358 33.7247 293.87 36.0943M290.219 42.6843C293.261 41.1843 294.333 37.6243 293.87 36.0943" stroke="black" stroke-width="0.5"/>
<path d="M290.261 40.6843C285.761 40.6843 283.761 36.6843 282.761 34.1843" stroke="black" stroke-width="0.5"/>
<path d="M132.259 12.7843C118.759 16.7843 106.759 22.6843 92.7588 35.6843C99.7588 23.6843 115.259 14.1843 130.759 9.18433L132.259 12.7843Z" fill="#EFC7D3" stroke="black" stroke-width="0.5"/>
<path d="M130.759 9.18433C110.759 14.8584 92.7588 32.1843 84.7588 30.1843C97.7588 20.6843 113.759 12.1843 130.259 7.68433L130.759 9.18433Z" fill="#EFC7D3" stroke="black" stroke-width="0.5"/>
<path d="M9.75946 48.1843H3.75946C1.25879 52.1843 1.25879 62.1843 1.75946 65.6843C0.258789 66.6843 0.259387 71.1843 1.25946 72.6843L5.25946 73.1843V74.6843L1.25946 76.6843V78.6843C5.25946 79.6843 13.7595 81.6843 21.7595 81.1843V79.6843H39.2595C38.5928 71.1843 40.2595 60.6843 49.2595 53.6843C46.7595 49.6843 39.7595 45.1843 36.7595 44.6843C26.7595 43.6843 11.7595 46.1843 9.75946 48.1843Z" fill="#EFC7D3" stroke="black" stroke-width="0.5"/>
<path d="M92.7607 35.6843C74.9274 36.5177 43.2607 41.3843 32.7607 44.3843L36.7607 44.6843C41.7607 46.1843 47.2607 50.5177 49.2607 53.6843C62.2598 44.1843 87.7598 51.1843 86.2598 78.6843H96.2598C89.2598 67.6843 90.2598 45.6843 92.7607 35.6843Z" fill="#EFC7D3" stroke="black" stroke-width="0.5"/>
<path d="M9.75879 48.1844H3.75879C36.259 28.6843 58.259 34.6843 84.2588 30.1843L93.259 35.6843C76.259 36.6843 47.2588 40.1843 33.2588 44.3843C25.2588 44.1843 11.2588 46.1843 9.75879 48.1844Z" fill="#EFC7D3" stroke="black" stroke-width="0.5"/>
<path d="M36.7602 44.6844C29.2602 43.6843 12.2602 45.6843 9.76024 48.1844C8.96024 50.5843 12.0936 53.5177 13.7602 54.6843C23.2603 56.1843 36.7602 50.1843 36.7602 44.6844Z" fill="#EFC7D3" stroke="black" stroke-width="0.5"/>
<path d="M3.75948 48.1843C10.7595 49.1843 4.75948 59.6843 1.75948 64.6843C1.25941 57.6843 1.75928 52.1843 3.75948 48.1843Z" fill="#EFC7D3" stroke="black" stroke-width="0.5"/>
<path d="M21.7588 84.1843V79.6843H39.2588L39.7588 84.1843H21.7588Z" fill="#EFC7D3" stroke="black" stroke-width="0.5"/>
<path d="M2.26074 65.6843C3.76074 68.1843 5.76074 71.351 5.26074 73.1843M21.7607 79.6843C11.2607 80.1843 6.76074 76.1843 7.76074 72.6843C8.26074 72.1843 9.76074 70.6843 10.7607 70.6843" stroke="black" stroke-width="0.5"/>
<path d="M31.7607 74.6843C29.2607 70.6843 23.7607 65.6844 20.7607 64.1844C19.0107 63.6844 16.3856 63.8094 13.6355 64.1844C12.0106 65.5177 10.7607 68.6843 11.2607 71.6843C11.2607 72.851 12.5682 75.1843 15.2607 75.1843C19.7607 75.1843 26.7607 75.6843 31.7607 74.6843Z" fill="#EFC7D3"/>
<path d="M5.76074 65.6844C8.01068 65.1844 10.8856 64.5594 13.6355 64.1844M13.6355 64.1844C16.3856 63.8094 19.0107 63.6844 20.7607 64.1844C23.7607 65.6844 29.2607 70.6843 31.7607 74.6843C26.7607 75.6843 19.7607 75.1843 15.2607 75.1843C12.5682 75.1843 11.2607 72.851 11.2607 71.6843C10.7607 68.6843 12.0106 65.5177 13.6355 64.1844Z" stroke="black" stroke-width="0.5"/>
<path d="M11.2607 71.1844C19.2607 69.6844 22.7607 72.3129 25.7607 73.8129M12.7607 74.1844L30.2607 73.6844" stroke="black" stroke-width="0.5"/>
<path d="M21.7588 82.6843H31.2588C33.2588 82.6843 34.7588 80.6843 34.2588 79.6843M37.7588 79.6843V84.1843" stroke="black" stroke-width="0.5"/>
<path d="M21.7607 81.1846C17.2607 81.1846 12.7607 81.6846 1.26069 78.6846V76.6846L5.26069 74.6846V73.1846L1.26069 72.6846C0.759766 71.1843 -0.240039 68.1843 1.75996 65.6843C1.2602 57.6843 1.7602 51.1843 3.76069 48.1841C36.2607 28.6845 58.2607 34.6845 84.2607 30.1845C162.261 -24.8156 244.261 12.1843 281.261 26.6845L294.761 28.6843L295.261 35.6843V38.6843C296.759 43.6843 298.094 48.1843 296.761 50.1843C299.261 51.1843 301.761 54.351 301.761 56.1843L299.761 66.1843C300.213 77.0322 297.805 77.2565 288.473 77.569C287.482 77.6021 285.413 77.6363 284.261 77.6843V79.1843L259.261 79.6154M21.7607 81.1846V84.1846H39.759L39.2607 79.6846M21.7607 81.1846V79.6846H39.2607M39.2607 79.6846C36.2607 38.1846 89.7607 41.1846 86.2607 80.1846V82.6843H212.761C206.761 39.1843 261.261 39.1843 259.261 79.6154M258.759 79.6154H259.261" stroke="black"/>
</svg>
