<svg width="303" height="96" viewBox="0 0 303 96" fill="none" xmlns="http://www.w3.org/2000/svg">
<circle cx="62.8853" cy="74.3838" r="20.5" fill="#EFC7D3" stroke="black"/>
<circle cx="235.885" cy="74.3838" r="20.5" fill="#EFC7D3" stroke="black"/>
<path d="M132.884 12.8836L131.384 9.38364C171.384 1.38376 192.884 1.88379 231.884 13.3837L228.384 17.8837C208.384 9.8837 190.384 8.8837 174.384 8.38377C171.884 7.88377 167.884 7.88373 165.384 8.38364C155.384 8.38377 143.384 9.88377 132.884 12.8836Z" fill="#E56E90" stroke="black" stroke-width="0.5"/>
<path d="M131.384 9.38383L130.884 7.88383C166.884 -3.11621 199.384 0.883663 234.884 9.88383L231.884 13.3838C191.884 0.883789 165.884 2.38379 131.384 9.38383Z" fill="#E56E90" stroke="black" stroke-width="0.5"/>
<path d="M131.384 9.3839C182.884 -2.11613 211.384 7.88391 231.884 13.3839" stroke="black" stroke-width="0.5"/>
<path d="M170.885 30.3838L174.385 8.38379C207.885 9.38379 219.385 14.8838 223.885 16.3838L226.368 28.3838C199.378 28.3844 181.883 29.8839 170.885 30.3838Z" fill="#E56E90"/>
<path d="M226.885 30.8838L223.885 16.3838C219.385 14.8838 207.885 9.38379 174.385 8.38379L170.885 30.3838C181.885 29.8838 199.385 28.3838 226.385 28.3838" stroke="black" stroke-width="0.5"/>
<path d="M165.385 8.38379C132.385 9.38379 112.385 18.3838 93.3853 35.8838L95.8853 33.8838L159.885 30.8838L165.385 8.38379Z" fill="#E56E90" stroke="black" stroke-width="0.5"/>
<path d="M239.884 22.8838C236.217 20.2171 230.384 17.8838 223.884 16.3838L226.384 28.3838H232.884C235.884 26.8838 238.884 24.6525 239.884 22.8838Z" fill="#E56E90" stroke="black" stroke-width="0.5"/>
<path d="M96.8853 78.8838H163.885L198.385 77.3838H212.885L213.385 82.8838H199.385H98.3853H86.8853V78.8838H96.8853Z" fill="#E56E90"/>
<path d="M96.8853 78.8838H163.885L198.385 77.3838M96.8853 78.8838C96.8853 80.3838 97.3853 81.3838 98.3853 82.8838M96.8853 78.8838H86.8853V82.8838H98.3853M198.385 77.3838L199.385 82.8838M198.385 77.3838H212.885L213.385 82.8838H199.385M199.385 82.8838H98.3853" stroke="black" stroke-width="0.5"/>
<path d="M96.8844 78.8838C92.3852 74.3838 89.3853 52.3838 93.3844 35.8838L165.385 31.8838C161.385 36.8838 160.385 70.8838 163.885 78.8838H96.8844Z" fill="#E56E90" stroke="black" stroke-width="0.5"/>
<path d="M228.885 30.8838L165.385 31.8838C161.385 36.8838 160.385 70.8838 163.885 78.8838L198.385 77.3838C202.885 75.8838 209.385 70.3838 228.885 30.8838Z" fill="#E56E90" stroke="black" stroke-width="0.5"/>
<path d="M170.885 30.3839C166.385 30.8839 162.885 30.8839 159.885 30.8839L165.385 8.38386C168.385 7.88379 171.385 7.88379 174.385 8.38386L170.885 30.3839Z" fill="#E56E90" stroke="black" stroke-width="0.5"/>
<path d="M99.3853 32.384C103.885 37.884 110.885 34.384 114.885 32.884C115.885 17.3839 102.885 25.3839 99.3853 32.384Z" fill="#E56E90" stroke="black" stroke-width="0.5"/>
<path d="M234.884 9.88379L231.884 13.3838C248.884 18.8838 259.384 21.8838 271.884 28.3838H273.384L281.384 26.8838C266.384 20.3838 258.884 17.8838 234.884 9.88379Z" fill="#EFC7D3" stroke="black" stroke-width="0.5"/>
<path d="M271.884 28.3838C261.384 22.8838 242.384 16.3838 231.884 13.3838L229.884 15.8838L244.884 23.3838C243.384 25.8838 239.384 27.8838 233.384 30.5838C245.384 29.8838 262.384 28.8838 271.884 28.3838Z" fill="#EFC7D3" stroke="black" stroke-width="0.5"/>
<path d="M277.385 34.6838L283.384 32.3838L272.884 28.3838L228.884 30.8838C221.384 45.8838 206.384 76.3838 198.384 77.3838H212.884C211.384 66.3838 220.884 42.8838 245.885 51.8838C256.385 46.3838 266.385 40.8838 277.385 34.6838Z" fill="#EFC7D3" stroke="black" stroke-width="0.5"/>
<path d="M278.384 34.3838C266.384 40.8838 256.384 46.3838 245.884 51.8838C250.384 54.8838 260.884 60.8838 259.884 79.8838L284.884 79.3838V77.8838C293.384 76.8838 301.884 80.3838 300.384 66.3838L302.384 56.3838C302.384 54.8838 299.884 50.8838 297.384 50.3838C298.884 47.8838 295.884 38.8838 295.884 38.8838V37.3838L291.884 34.3838L286.884 32.8838L283.384 32.3838L278.384 34.3838Z" fill="#EFC7D3" stroke="black" stroke-width="0.5"/>
<path d="M281.384 26.8838L272.884 28.3838L283.384 32.3838C292.884 33.3838 291.883 34.8838 295.878 37.304L295.384 28.8838L281.384 26.8838Z" fill="#EFC7D3"/>
<path d="M295.884 37.3838L295.878 37.304M295.878 37.304L295.384 28.8838L281.384 26.8838L272.884 28.3838L283.384 32.3838C292.884 33.3838 291.883 34.8838 295.878 37.304Z" stroke="black" stroke-width="0.5"/>
<path d="M294.385 36.884C293.885 34.3839 282.885 34.1838 277.385 34.6838" stroke="black" stroke-width="0.5"/>
<path d="M300.385 66.8838L260.885 68.8838C260.385 63.8838 258.219 59.7171 256.385 57.8838L302.385 55.3838M300.885 52.8838C289.885 51.3838 278.885 46.5838 266.885 40.5838M228.885 30.8838L272.885 28.3838L281.385 26.8838" stroke="black" stroke-width="0.5"/>
<path d="M290.885 40.8838C290.885 38.8838 289.885 34.8838 286.385 32.8838C288.606 32.8838 291.983 33.9242 294.494 36.2938C294.958 37.8238 293.885 41.3838 290.843 42.8838C290.83 42.2935 290.885 41.6081 290.885 40.8838Z" fill="#EFC7D3"/>
<path d="M272.885 43.3838C279.881 43.7336 285.898 43.8387 291.278 44.3838M297.885 45.3838C295.782 44.9331 293.589 44.6179 291.278 44.3838M295.885 37.8838C295.467 37.2987 294.998 36.7694 294.494 36.2938M291.278 44.3838C290.952 44.039 290.858 43.516 290.843 42.8838M290.843 42.8838C290.83 42.2935 290.885 41.6081 290.885 40.8838C290.885 38.8838 289.885 34.8838 286.385 32.8838C288.606 32.8838 291.983 33.9242 294.494 36.2938M290.843 42.8838C293.885 41.3838 294.958 37.8238 294.494 36.2938" stroke="black" stroke-width="0.5"/>
<path d="M290.885 40.8838C286.385 40.8838 284.385 36.8838 283.385 34.3838" stroke="black" stroke-width="0.5"/>
<path d="M132.884 12.9838C119.384 16.9838 107.384 22.8838 93.3838 35.8838C100.384 23.8838 115.884 14.3838 131.384 9.38379L132.884 12.9838Z" fill="#E0426F" stroke="black" stroke-width="0.5"/>
<path d="M131.384 9.38379C111.384 15.0578 93.3838 32.3838 85.3838 30.3838C98.3838 20.8838 114.384 12.3838 130.884 7.88379L131.384 9.38379Z" fill="#E0426F" stroke="black" stroke-width="0.5"/>
<path d="M10.3845 48.3837H4.38446C1.88379 52.3837 1.88379 62.3837 2.38446 65.8837C0.883789 66.8837 0.884387 71.3837 1.88446 72.8837L5.88446 73.3837V74.8837L1.88446 76.8837V78.8837C5.88446 79.8837 14.3845 81.8837 22.3845 81.3837V79.8837H39.8845C39.2178 71.3837 40.8845 60.8837 49.8845 53.8837C47.3845 49.8837 40.3845 45.3837 37.3845 44.8837C27.3845 43.8837 12.3845 46.3837 10.3845 48.3837Z" fill="#E0426F" stroke="black" stroke-width="0.5"/>
<path d="M93.3853 35.8838C75.5519 36.7171 43.8853 41.5838 33.3853 44.5838L37.3853 44.8838C42.3853 46.3838 47.8853 50.7171 49.8853 53.8838C62.8843 44.3838 88.3843 51.3838 86.8843 78.8838H96.8843C89.8843 67.8838 90.8843 45.8838 93.3853 35.8838Z" fill="#E0426F" stroke="black" stroke-width="0.5"/>
<path d="M10.3838 48.3838H4.38379C36.884 28.8837 58.884 34.8838 84.8838 30.3838L93.884 35.8838C76.884 36.8838 47.8838 40.3838 33.8838 44.5838C25.8838 44.3838 11.8838 46.3838 10.3838 48.3838Z" fill="#E0426F" stroke="black" stroke-width="0.5"/>
<path d="M37.3852 44.8839C29.8852 43.8838 12.8852 45.8838 10.3852 48.3839C9.58524 50.7838 12.7186 53.7171 14.3852 54.8838C23.8853 56.3838 37.3852 50.3838 37.3852 44.8839Z" fill="#E0426F" stroke="black" stroke-width="0.5"/>
<path d="M4.38448 48.3838C11.3845 49.3838 5.38448 59.8838 2.38448 64.8838C1.88441 57.8838 2.38428 52.3838 4.38448 48.3838Z" fill="#E0426F" stroke="black" stroke-width="0.5"/>
<path d="M22.3838 84.3838V79.8838H39.8838L40.3838 84.3838H22.3838Z" fill="#E0426F" stroke="black" stroke-width="0.5"/>
<path d="M2.88574 65.8838C4.38574 68.3838 6.38574 71.5505 5.88574 73.3838M22.3857 79.8838C11.8857 80.3838 7.38574 76.3838 8.38574 72.8838C8.88574 72.3838 10.3857 70.8838 11.3857 70.8838" stroke="black" stroke-width="0.5"/>
<path d="M32.3857 74.8839C29.8857 70.8839 24.3857 65.884 21.3857 64.384C19.6357 63.884 17.0106 64.009 14.2605 64.384C12.6356 65.7173 11.3857 68.8839 11.8857 71.8839C11.8857 73.0506 13.1932 75.3839 15.8857 75.3839C20.3857 75.3839 27.3857 75.8839 32.3857 74.8839Z" fill="#E0426F"/>
<path d="M6.38574 65.884C8.63568 65.384 11.5106 64.759 14.2605 64.384M14.2605 64.384C17.0106 64.009 19.6357 63.884 21.3857 64.384C24.3857 65.884 29.8857 70.8839 32.3857 74.8839C27.3857 75.8839 20.3857 75.3839 15.8857 75.3839C13.1932 75.3839 11.8857 73.0506 11.8857 71.8839C11.3857 68.8839 12.6356 65.7173 14.2605 64.384Z" stroke="black" stroke-width="0.5"/>
<path d="M11.8857 71.384C19.8857 69.884 23.3857 72.5125 26.3857 74.0125M13.3857 74.384L30.8857 73.884" stroke="black" stroke-width="0.5"/>
<path d="M22.3838 82.8838H31.8838C33.8838 82.8838 35.3838 80.8838 34.8838 79.8838M38.3838 79.8838V84.3838" stroke="black" stroke-width="0.5"/>
<path d="M22.3852 81.384C17.8852 81.384 13.3852 81.884 1.8852 78.884V76.884L5.8852 74.884V73.384L1.8852 72.884C1.38428 71.3838 0.384473 68.3838 2.38447 65.8838C1.88471 57.8838 2.38471 51.3838 4.3852 48.3835C36.8852 28.8839 58.8852 34.884 84.8852 30.384C162.885 -24.6161 244.885 12.3838 281.885 26.884L295.385 28.8838L295.885 35.8838V38.8838C297.384 43.8838 298.719 48.3838 297.385 50.3838C299.885 51.3838 302.385 54.5505 302.385 56.3838L300.385 66.3838C300.837 77.2317 298.429 77.456 289.098 77.7684C288.106 77.8016 286.037 77.8358 284.885 77.8838V79.3838L259.885 79.8148M22.3852 81.384V84.384H40.3835L39.8852 79.884M22.3852 81.384V79.884H39.8852M39.8852 79.884C36.8852 38.384 90.3852 41.384 86.8852 80.384V82.8838H213.385C207.385 39.3838 261.885 39.3838 259.885 79.8148M259.384 79.8148H259.885" stroke="black"/>
</svg>
