<svg width="304" height="96" viewBox="0 0 304 96" fill="none" xmlns="http://www.w3.org/2000/svg">
<circle cx="63.0742" cy="74.3535" r="20.5" fill="#EDADBF" stroke="black"/>
<circle cx="236.074" cy="74.3535" r="20.5" fill="#EDADBF" stroke="black"/>
<path d="M133.072 12.8534L131.572 9.35337C171.572 1.35348 193.072 1.85352 232.072 13.3535L228.572 17.8535C208.572 9.85343 190.572 8.85342 174.572 8.35349C172.072 7.85349 168.072 7.85345 165.572 8.35337C155.572 8.35349 143.572 9.85349 133.072 12.8534Z" fill="#EFC7D3" stroke="black" stroke-width="0.5"/>
<path d="M131.572 9.35356L131.072 7.85356C167.072 -3.14648 199.572 0.85339 235.072 9.85356L232.072 13.3536C192.072 0.853516 166.072 2.35352 131.572 9.35356Z" fill="#EFC7D3" stroke="black" stroke-width="0.5"/>
<path d="M131.572 9.3535C183.072 -2.14652 211.572 7.85352 232.072 13.3535" stroke="black" stroke-width="0.5"/>
<path d="M171.074 30.3535L174.574 8.35352C208.074 9.35352 219.574 14.8535 224.074 16.3535L226.557 28.3535C199.567 28.3542 182.072 29.8536 171.074 30.3535Z" fill="#EFC7D3"/>
<path d="M227.074 30.8535L224.074 16.3535C219.574 14.8535 208.074 9.35352 174.574 8.35352L171.074 30.3535C182.074 29.8535 199.574 28.3535 226.574 28.3535" stroke="black" stroke-width="0.5"/>
<path d="M165.574 8.35352C132.574 9.35352 112.574 18.3535 93.5742 35.8535L96.0742 33.8535L160.074 30.8535L165.574 8.35352Z" fill="#EFC7D3" stroke="black" stroke-width="0.5"/>
<path d="M240.072 22.8535C236.406 20.1868 230.572 17.8535 224.072 16.3535L226.572 28.3535H233.072C236.072 26.8535 239.072 24.6223 240.072 22.8535Z" fill="#EFC7D3" stroke="black" stroke-width="0.5"/>
<path d="M97.0742 78.8535H164.074L198.574 77.3535H213.074L213.574 82.8535H199.574H98.5742H87.0742V78.8535H97.0742Z" fill="#EFC7D3"/>
<path d="M97.0742 78.8535H164.074L198.574 77.3535M97.0742 78.8535C97.0742 80.3535 97.5742 81.3535 98.5742 82.8535M97.0742 78.8535H87.0742V82.8535H98.5742M198.574 77.3535L199.574 82.8535M198.574 77.3535H213.074L213.574 82.8535H199.574M199.574 82.8535H98.5742" stroke="black" stroke-width="0.5"/>
<path d="M97.0733 78.8535C92.5742 74.3535 89.5743 52.3535 93.5733 35.8535L165.574 31.8535C161.574 36.8535 160.574 70.8535 164.074 78.8535H97.0733Z" fill="#EFC7D3" stroke="black" stroke-width="0.5"/>
<path d="M229.074 30.8535L165.574 31.8535C161.574 36.8535 160.574 70.8535 164.074 78.8535L198.574 77.3535C203.074 75.8535 209.574 70.3535 229.074 30.8535Z" fill="#EFC7D3" stroke="black" stroke-width="0.5"/>
<path d="M171.074 30.3536C166.574 30.8536 163.074 30.8536 160.074 30.8536L165.574 8.35359C168.574 7.85352 171.574 7.85352 174.574 8.35359L171.074 30.3536Z" fill="#EFC7D3" stroke="black" stroke-width="0.5"/>
<path d="M99.5742 32.3537C104.074 37.8537 111.074 34.3537 115.074 32.8537C116.074 17.3535 103.074 25.3535 99.5742 32.3537Z" fill="#EFC7D3" stroke="black" stroke-width="0.5"/>
<path d="M235.072 9.85352L232.072 13.3535C249.072 18.8535 259.572 21.8535 272.072 28.3535H273.572L281.572 26.8535C266.572 20.3535 259.072 17.8535 235.072 9.85352Z" fill="#EDADBF" stroke="black" stroke-width="0.5"/>
<path d="M272.072 28.3535C261.572 22.8535 242.572 16.3535 232.072 13.3535L230.072 15.8535L245.072 23.3535C243.572 25.8535 239.572 27.8535 233.572 30.5535C245.572 29.8535 262.572 28.8535 272.072 28.3535Z" fill="#EDADBF" stroke="black" stroke-width="0.5"/>
<path d="M277.574 34.6535L283.573 32.3535L273.073 28.3535L229.073 30.8535C221.573 45.8535 206.573 76.3535 198.573 77.3535H213.073C211.573 66.3535 221.073 42.8535 246.074 51.8535C256.574 46.3535 266.574 40.8535 277.574 34.6535Z" fill="#EDADBF" stroke="black" stroke-width="0.5"/>
<path d="M278.572 34.3535C266.572 40.8535 256.572 46.3535 246.072 51.8535C250.572 54.8535 261.072 60.8535 260.072 79.8535L285.072 79.3535V77.8535C293.572 76.8535 302.072 80.3535 300.572 66.3535L302.572 56.3535C302.572 54.8535 300.072 50.8535 297.572 50.3535C299.072 47.8535 296.072 38.8535 296.072 38.8535V37.3535L292.072 34.3535L287.072 32.8535L283.572 32.3535L278.572 34.3535Z" fill="#EDADBF" stroke="black" stroke-width="0.5"/>
<path d="M281.572 26.8535L273.072 28.3535L283.572 32.3535C293.072 33.3535 292.071 34.8535 296.066 37.2737L295.572 28.8535L281.572 26.8535Z" fill="#EDADBF"/>
<path d="M296.072 37.3535L296.066 37.2737M296.066 37.2737L295.572 28.8535L281.572 26.8535L273.072 28.3535L283.572 32.3535C293.072 33.3535 292.071 34.8535 296.066 37.2737Z" stroke="black" stroke-width="0.5"/>
<path d="M294.574 36.8537C294.074 34.3536 283.074 34.1535 277.574 34.6535" stroke="black" stroke-width="0.5"/>
<path d="M300.574 66.8535L261.074 68.8535C260.574 63.8535 258.408 59.6868 256.574 57.8535L302.574 55.3535M301.074 52.8535C290.074 51.3535 279.074 46.5535 267.074 40.5535M229.074 30.8535L273.074 28.3535L281.574 26.8535" stroke="black" stroke-width="0.5"/>
<path d="M291.074 40.8535C291.074 38.8535 290.074 34.8535 286.574 32.8535C288.795 32.8535 292.172 33.8939 294.683 36.2635C295.147 37.7935 294.074 41.3535 291.032 42.8535C291.019 42.2632 291.074 41.5778 291.074 40.8535Z" fill="#EDADBF"/>
<path d="M273.074 43.3535C280.07 43.7033 286.087 43.8084 291.467 44.3535M298.074 45.3535C295.971 44.9029 293.778 44.5876 291.467 44.3535M296.074 37.8535C295.656 37.2684 295.187 36.7392 294.683 36.2635M291.467 44.3535C291.141 44.0088 291.047 43.4857 291.032 42.8535M291.032 42.8535C291.019 42.2632 291.074 41.5778 291.074 40.8535C291.074 38.8535 290.074 34.8535 286.574 32.8535C288.795 32.8535 292.172 33.8939 294.683 36.2635M291.032 42.8535C294.074 41.3535 295.147 37.7935 294.683 36.2635" stroke="black" stroke-width="0.5"/>
<path d="M291.074 40.8535C286.574 40.8535 284.574 36.8535 283.574 34.3535" stroke="black" stroke-width="0.5"/>
<path d="M133.072 12.9535C119.572 16.9535 107.572 22.8535 93.5723 35.8535C100.572 23.8535 116.072 14.3535 131.572 9.35352L133.072 12.9535Z" fill="#EDADBF" stroke="black" stroke-width="0.5"/>
<path d="M131.572 9.35352C111.572 15.0276 93.5723 32.3535 85.5723 30.3535C98.5723 20.8535 114.572 12.3535 131.072 7.85352L131.572 9.35352Z" fill="#EDADBF" stroke="black" stroke-width="0.5"/>
<path d="M10.5729 48.3535H4.57293C2.07227 52.3535 2.07227 62.3535 2.57293 65.8535C1.07227 66.8535 1.07286 71.3535 2.07293 72.8535L6.07293 73.3535V74.8535L2.07293 76.8535V78.8535C6.07293 79.8535 14.5729 81.8535 22.5729 81.3535V79.8535H40.0729C39.4063 71.3535 41.0729 60.8535 50.0729 53.8535C47.5729 49.8535 40.5729 45.3535 37.5729 44.8535C27.5729 43.8535 12.5729 46.3535 10.5729 48.3535Z" fill="#EDADBF" stroke="black" stroke-width="0.5"/>
<path d="M93.5742 35.8535C75.7409 36.6868 44.0742 41.5535 33.5742 44.5535L37.5742 44.8535C42.5742 46.3535 48.0742 50.6868 50.0742 53.8535C63.0732 44.3535 88.5732 51.3535 87.0732 78.8535H97.0732C90.0732 67.8535 91.0732 45.8535 93.5742 35.8535Z" fill="#EDADBF" stroke="black" stroke-width="0.5"/>
<path d="M10.5723 48.3536H4.57227C37.0724 28.8535 59.0725 34.8535 85.0723 30.3535L94.0725 35.8535C77.0725 36.8535 48.0723 40.3535 34.0723 44.5535C26.0723 44.3535 12.0723 46.3535 10.5723 48.3536Z" fill="#EDADBF" stroke="black" stroke-width="0.5"/>
<path d="M37.5737 44.8536C30.0737 43.8535 13.0737 45.8535 10.5737 48.3536C9.77372 50.7535 12.9071 53.6868 14.5737 54.8535C24.0737 56.3535 37.5737 50.3535 37.5737 44.8536Z" fill="#EDADBF" stroke="black" stroke-width="0.5"/>
<path d="M4.57296 48.3535C11.573 49.3535 5.57296 59.8535 2.57296 64.8535C2.07289 57.8535 2.57275 52.3535 4.57296 48.3535Z" fill="#EDADBF" stroke="black" stroke-width="0.5"/>
<path d="M22.5723 84.3535V79.8535H40.0723L40.5723 84.3535H22.5723Z" fill="#EDADBF" stroke="black" stroke-width="0.5"/>
<path d="M3.07422 65.8535C4.57422 68.3535 6.57422 71.5202 6.07422 73.3535M22.5742 79.8535C12.0742 80.3535 7.57422 76.3535 8.57422 72.8535C9.07422 72.3535 10.5742 70.8535 11.5742 70.8535" stroke="black" stroke-width="0.5"/>
<path d="M32.5742 74.8535C30.0742 70.8535 24.5742 65.8536 21.5742 64.3536C19.8242 63.8536 17.1991 63.9786 14.449 64.3536C12.8241 65.6869 11.5742 68.8535 12.0742 71.8535C12.0742 73.0202 13.3816 75.3535 16.0742 75.3535C20.5742 75.3535 27.5742 75.8535 32.5742 74.8535Z" fill="#EDADBF"/>
<path d="M6.57422 65.8536C8.82416 65.3536 11.6991 64.7286 14.449 64.3536M14.449 64.3536C17.1991 63.9786 19.8242 63.8536 21.5742 64.3536C24.5742 65.8536 30.0742 70.8535 32.5742 74.8535C27.5742 75.8535 20.5742 75.3535 16.0742 75.3535C13.3816 75.3535 12.0742 73.0202 12.0742 71.8535C11.5742 68.8535 12.8241 65.6869 14.449 64.3536Z" stroke="black" stroke-width="0.5"/>
<path d="M12.0742 71.3536C20.0742 69.8536 23.5742 72.4821 26.5742 73.9821M13.5742 74.3536L31.0742 73.8536" stroke="black" stroke-width="0.5"/>
<path d="M22.5723 82.8535H32.0723C34.0723 82.8535 35.5723 80.8535 35.0723 79.8535M38.5723 79.8535V84.3535" stroke="black" stroke-width="0.5"/>
<path d="M22.5742 81.3538C18.0742 81.3538 13.5742 81.8538 2.07416 78.8538V76.8538L6.07417 74.8538V73.3538L2.07416 72.8538C1.57324 71.3535 0.573438 68.3535 2.57343 65.8535C2.07368 57.8535 2.57368 51.3535 4.57417 48.3533C37.0742 28.8537 59.0742 34.8537 85.0742 30.3537C163.074 -24.6464 245.074 12.3535 282.074 26.8537L295.574 28.8535L296.074 35.8535V38.8535C297.573 43.8535 298.908 48.3535 297.574 50.3535C300.074 51.3535 302.574 54.5202 302.574 56.3535L300.574 66.3535C301.026 77.2014 298.618 77.4257 289.286 77.7382C288.295 77.7713 286.226 77.8055 285.074 77.8535V79.3535L260.074 79.7846M22.5742 81.3538V84.3538H40.5725L40.0742 79.8538M22.5742 81.3538V79.8538H40.0742M40.0742 79.8538C37.0742 38.3538 90.5742 41.3538 87.0742 80.3538V82.8535H213.574C207.574 39.3535 262.074 39.3535 260.074 79.7846M259.573 79.7846H260.074" stroke="black"/>
</svg>
