<svg width="304" height="96" viewBox="0 0 304 96" fill="none" xmlns="http://www.w3.org/2000/svg">
<circle cx="63.0518" cy="74.2297" r="20.5" fill="#EDADBF" stroke="black"/>
<circle cx="236.052" cy="74.2297" r="20.5" fill="#EDADBF" stroke="black"/>
<path d="M133.05 12.7296L131.55 9.22959C171.55 1.2297 193.05 1.72974 232.05 13.2297L228.55 17.7297C208.55 9.72965 190.55 8.72964 174.55 8.22971C172.05 7.72971 168.05 7.72968 165.55 8.22959C155.55 8.22971 143.55 9.72971 133.05 12.7296Z" fill="#E0426F" stroke="black" stroke-width="0.5"/>
<path d="M131.55 9.22978L131.05 7.72978C167.05 -3.27026 199.55 0.72961 235.05 9.72978L232.05 13.2298C192.05 0.729736 166.05 2.22974 131.55 9.22978Z" fill="#E0426F" stroke="black" stroke-width="0.5"/>
<path d="M131.55 9.2296C183.05 -2.27042 211.55 7.72961 232.05 13.2296" stroke="black" stroke-width="0.5"/>
<path d="M171.052 30.2297L174.552 8.22974C208.052 9.22974 219.552 14.7297 224.052 16.2297L226.535 28.2297C199.544 28.2304 182.049 29.7298 171.052 30.2297Z" fill="#E0426F"/>
<path d="M227.052 30.7297L224.052 16.2297C219.552 14.7297 208.052 9.22974 174.552 8.22974L171.052 30.2297C182.052 29.7297 199.552 28.2297 226.552 28.2297" stroke="black" stroke-width="0.5"/>
<path d="M165.552 8.22974C132.552 9.22974 112.552 18.2297 93.5518 35.7297L96.0518 33.7297L160.052 30.7297L165.552 8.22974Z" fill="#E0426F" stroke="black" stroke-width="0.5"/>
<path d="M240.05 22.7297C236.383 20.0631 230.55 17.7297 224.05 16.2297L226.55 28.2297H233.05C236.05 26.7297 239.05 24.4985 240.05 22.7297Z" fill="#E0426F" stroke="black" stroke-width="0.5"/>
<path d="M97.0518 78.7297H164.052L198.552 77.2297H213.052L213.552 82.7297H199.552H98.5518H87.0518V78.7297H97.0518Z" fill="#E0426F"/>
<path d="M97.0518 78.7297H164.052L198.552 77.2297M97.0518 78.7297C97.0518 80.2297 97.5518 81.2297 98.5518 82.7297M97.0518 78.7297H87.0518V82.7297H98.5518M198.552 77.2297L199.552 82.7297M198.552 77.2297H213.052L213.552 82.7297H199.552M199.552 82.7297H98.5518" stroke="black" stroke-width="0.5"/>
<path d="M97.0509 78.7297C92.5518 74.2297 89.5518 52.2297 93.5509 35.7297L165.552 31.7297C161.552 36.7297 160.552 70.7297 164.052 78.7297H97.0509Z" fill="#E0426F" stroke="black" stroke-width="0.5"/>
<path d="M229.052 30.7297L165.552 31.7297C161.552 36.7297 160.552 70.7297 164.052 78.7297L198.552 77.2297C203.052 75.7297 209.552 70.2297 229.052 30.7297Z" fill="#E0426F" stroke="black" stroke-width="0.5"/>
<path d="M171.052 30.2298C166.552 30.7298 163.052 30.7298 160.052 30.7298L165.552 8.22981C168.552 7.72974 171.552 7.72974 174.552 8.22981L171.052 30.2298Z" fill="#E0426F" stroke="black" stroke-width="0.5"/>
<path d="M99.5518 32.2297C104.052 37.7297 111.052 34.2297 115.052 32.7297C116.052 17.2296 103.052 25.2296 99.5518 32.2297Z" fill="#E0426F" stroke="black" stroke-width="0.5"/>
<path d="M235.05 9.72974L232.05 13.2297C249.05 18.7297 259.55 21.7297 272.05 28.2297H273.55L281.55 26.7297C266.55 20.2297 259.05 17.7297 235.05 9.72974Z" fill="#E0426F" stroke="black" stroke-width="0.5"/>
<path d="M272.05 28.2297C261.55 22.7297 242.55 16.2297 232.05 13.2297L230.05 15.7297L245.05 23.2297C243.55 25.7297 239.55 27.7297 233.55 30.4297C245.55 29.7297 262.55 28.7297 272.05 28.2297Z" fill="#E0426F" stroke="black" stroke-width="0.5"/>
<path d="M277.552 34.5297L283.55 32.2297L273.051 28.2297L229.051 30.7297C221.551 45.7297 206.551 76.2297 198.551 77.2297H213.051C211.551 66.2297 221.051 42.7297 246.052 51.7297C256.552 46.2297 266.552 40.7297 277.552 34.5297Z" fill="#E0426F" stroke="black" stroke-width="0.5"/>
<path d="M278.55 34.2298C266.55 40.7298 256.55 46.2298 246.05 51.7298C250.55 54.7297 261.05 60.7297 260.05 79.7297L285.05 79.2297V77.7297C293.55 76.7297 302.05 80.2297 300.55 66.2297L302.55 56.2297C302.55 54.7297 300.05 50.7297 297.55 50.2297C299.05 47.7297 296.05 38.7297 296.05 38.7297V37.2297L292.05 34.2297L287.05 32.7297L283.55 32.2297L278.55 34.2298Z" fill="#E0426F" stroke="black" stroke-width="0.5"/>
<path d="M281.55 26.7297L273.05 28.2297L283.55 32.2297C293.05 33.2297 292.049 34.7297 296.044 37.1499L295.55 28.7297L281.55 26.7297Z" fill="#E0426F"/>
<path d="M296.05 37.2297L296.044 37.1499M296.044 37.1499L295.55 28.7297L281.55 26.7297L273.05 28.2297L283.55 32.2297C293.05 33.2297 292.049 34.7297 296.044 37.1499Z" stroke="black" stroke-width="0.5"/>
<path d="M294.552 36.7299C294.052 34.2298 283.052 34.0297 277.552 34.5297" stroke="black" stroke-width="0.5"/>
<path d="M300.552 66.7297L261.052 68.7297C260.552 63.7297 258.385 59.5631 256.552 57.7297L302.552 55.2297M301.052 52.7297C290.052 51.2297 279.052 46.4297 267.052 40.4297M229.052 30.7297L273.052 28.2297L281.552 26.7297" stroke="black" stroke-width="0.5"/>
<path d="M291.052 40.7297C291.052 38.7297 290.052 34.7297 286.552 32.7297C288.773 32.7297 292.149 33.7701 294.661 36.1397C295.124 37.6697 294.052 41.2297 291.01 42.7297C290.996 42.1395 291.052 41.454 291.052 40.7297Z" fill="#E0426F"/>
<path d="M273.052 43.2297C280.047 43.5795 286.064 43.6846 291.445 44.2297M298.052 45.2297C295.949 44.7791 293.756 44.4638 291.445 44.2297M296.052 37.7297C295.634 37.1446 295.165 36.6154 294.661 36.1397M291.445 44.2297C291.119 43.885 291.025 43.3619 291.01 42.7297M291.01 42.7297C290.996 42.1395 291.052 41.454 291.052 40.7297C291.052 38.7297 290.052 34.7297 286.552 32.7297C288.773 32.7297 292.149 33.7701 294.661 36.1397M291.01 42.7297C294.052 41.2297 295.124 37.6697 294.661 36.1397" stroke="black" stroke-width="0.5"/>
<path d="M291.052 40.7297C286.552 40.7297 284.552 36.7297 283.552 34.2297" stroke="black" stroke-width="0.5"/>
<path d="M133.05 12.8297C119.55 16.8297 107.55 22.7297 93.5498 35.7297C100.55 23.7297 116.05 14.2297 131.55 9.22974L133.05 12.8297Z" fill="#E0426F" stroke="black" stroke-width="0.5"/>
<path d="M131.55 9.22974C111.55 14.9038 93.5498 32.2297 85.5498 30.2297C98.5498 20.7297 114.55 12.2297 131.05 7.72974L131.55 9.22974Z" fill="#E0426F" stroke="black" stroke-width="0.5"/>
<path d="M10.5505 48.2296H4.55047C2.0498 52.2296 2.0498 62.2296 2.55047 65.7296C1.0498 66.7296 1.0504 71.2296 2.05047 72.7296L6.05047 73.2296V74.7296L2.05047 76.7296V78.7296C6.05047 79.7296 14.5505 81.7296 22.5505 81.2296V79.7296H40.0505C39.3838 71.2296 41.0505 60.7296 50.0505 53.7296C47.5505 49.7296 40.5505 45.2296 37.5505 44.7296C27.5505 43.7296 12.5505 46.2296 10.5505 48.2296Z" fill="#E0426F" stroke="black" stroke-width="0.5"/>
<path d="M93.5518 35.7297C75.7184 36.5631 44.0518 41.4297 33.5518 44.4297L37.5518 44.7297C42.5518 46.2297 48.0518 50.5631 50.0518 53.7297C63.0508 44.2297 88.5508 51.2297 87.0508 78.7297H97.0508C90.0508 67.7297 91.0508 45.7297 93.5518 35.7297Z" fill="#E0426F" stroke="black" stroke-width="0.5"/>
<path d="M10.5498 48.2298H4.5498C37.05 28.7297 59.05 34.7297 85.0498 30.2297L94.05 35.7297C77.05 36.7297 48.0498 40.2297 34.0498 44.4297C26.0498 44.2297 12.0498 46.2297 10.5498 48.2298Z" fill="#E0426F" stroke="black" stroke-width="0.5"/>
<path d="M37.5513 44.7298C30.0513 43.7297 13.0513 45.7297 10.5513 48.2298C9.75126 50.6298 12.8846 53.5631 14.5513 54.7297C24.0513 56.2297 37.5513 50.2297 37.5513 44.7298Z" fill="#E0426F" stroke="black" stroke-width="0.5"/>
<path d="M4.5505 48.2297C11.5505 49.2297 5.5505 59.7297 2.5505 64.7297C2.05043 57.7297 2.55029 52.2297 4.5505 48.2297Z" fill="#E0426F" stroke="black" stroke-width="0.5"/>
<path d="M22.5498 84.2297V79.7297H40.0498L40.5498 84.2297H22.5498Z" fill="#E0426F" stroke="black" stroke-width="0.5"/>
<path d="M3.05176 65.7295C4.55176 68.2295 6.55176 71.3962 6.05176 73.2295M22.5518 79.7295C12.0518 80.2295 7.55176 76.2295 8.55176 72.7295C9.05176 72.2295 10.5518 70.7295 11.5518 70.7295" stroke="black" stroke-width="0.5"/>
<path d="M32.5518 74.7296C30.0518 70.7296 24.5518 65.7297 21.5518 64.2297C19.8017 63.7297 17.1766 63.8547 14.4265 64.2297C12.8016 65.563 11.5518 68.7296 12.0518 71.7296C12.0518 72.8963 13.3592 75.2296 16.0518 75.2296C20.5518 75.2296 27.5518 75.7296 32.5518 74.7296Z" fill="#E0426F"/>
<path d="M6.55176 65.7297C8.8017 65.2297 11.6766 64.6047 14.4265 64.2297M14.4265 64.2297C17.1766 63.8547 19.8017 63.7297 21.5518 64.2297C24.5518 65.7297 30.0518 70.7296 32.5518 74.7296C27.5518 75.7296 20.5518 75.2296 16.0518 75.2296C13.3592 75.2296 12.0518 72.8963 12.0518 71.7296C11.5518 68.7296 12.8016 65.563 14.4265 64.2297Z" stroke="black" stroke-width="0.5"/>
<path d="M12.0518 71.2297C20.0518 69.7297 23.5518 72.3582 26.5518 73.8582M13.5518 74.2297L31.0518 73.7297" stroke="black" stroke-width="0.5"/>
<path d="M22.5498 82.7295H32.0498C34.0498 82.7295 35.5498 80.7295 35.0498 79.7295M38.5498 79.7295V84.2295" stroke="black" stroke-width="0.5"/>
<path d="M22.5517 81.23C18.0517 81.23 13.5517 81.73 2.0517 78.73V76.73L6.0517 74.73V73.23L2.0517 72.73C1.55078 71.2297 0.550977 68.2297 2.55097 65.7297C2.05122 57.7297 2.55122 51.2297 4.5517 48.2295C37.0517 28.7299 59.0517 34.7299 85.0517 30.2299C163.052 -24.7702 245.052 12.2297 282.052 26.7299L295.552 28.7297L296.052 35.7297V38.7297C297.55 43.7297 298.885 48.2297 297.552 50.2297C300.052 51.2297 302.552 54.3964 302.552 56.2297L300.552 66.2297C301.004 77.0776 298.596 77.3019 289.264 77.6144C288.273 77.6476 286.204 77.6817 285.052 77.7297V79.2297L260.052 79.6608M22.5517 81.23V84.23H40.55L40.0517 79.73M22.5517 81.23V79.73H40.0517M40.0517 79.73C37.0517 38.23 90.5517 41.23 87.0517 80.23V82.7297H213.552C207.552 39.2297 262.052 39.2297 260.052 79.6608M259.55 79.6608H260.052" stroke="black"/>
</svg>
