<svg width="303" height="95" viewBox="0 0 303 95" fill="none" xmlns="http://www.w3.org/2000/svg">
<circle cx="62.667" cy="73.8459" r="20.5" stroke="black"/>
<circle cx="235.667" cy="73.8459" r="20.5" stroke="black"/>
<path d="M132.665 12.3458L131.165 8.8458C171.165 0.845915 192.665 1.34595 231.665 12.8459L228.165 17.3459C208.165 9.34586 190.165 8.34586 174.165 7.84592C171.665 7.34592 167.665 7.34589 165.165 7.8458C155.165 7.84592 143.165 9.34592 132.665 12.3458Z" stroke="black" stroke-width="0.5"/>
<path d="M131.165 8.84599L130.665 7.34599C166.665 -3.65405 199.165 0.345821 234.665 9.34599L231.665 12.846C191.665 0.345947 165.665 1.84595 131.165 8.84599Z" stroke="black" stroke-width="0.5"/>
<path d="M131.165 8.84593C182.665 -2.65409 211.165 7.34595 231.665 12.8459" stroke="black" stroke-width="0.5"/>
<path d="M226.667 30.3459L223.667 15.8459C219.167 14.3459 207.667 8.84595 174.167 7.84595L170.667 29.8459C181.667 29.3459 199.167 27.8459 226.167 27.8459" stroke="black" stroke-width="0.5"/>
<path d="M165.167 7.84595C132.167 8.84595 112.167 17.8459 93.167 35.3459L95.667 33.3459L159.667 30.3459L165.167 7.84595Z" stroke="black" stroke-width="0.5"/>
<path d="M239.665 22.3459C235.998 19.6793 230.165 17.3459 223.665 15.8459L226.165 27.8459H232.665C235.665 26.3459 238.665 24.1147 239.665 22.3459Z" stroke="black" stroke-width="0.5"/>
<path d="M96.667 78.3459H163.667L198.167 76.8459M96.667 78.3459C96.667 79.8459 97.167 80.8459 98.167 82.3459M96.667 78.3459H86.667V82.3459H98.167M198.167 76.8459L199.167 82.3459M198.167 76.8459H212.667L213.167 82.3459H199.167M199.167 82.3459H98.167" stroke="black" stroke-width="0.5"/>
<path d="M96.6661 78.3459C92.167 73.8459 89.167 51.8459 93.1661 35.3459L165.167 31.3459C161.167 36.3459 160.167 70.3459 163.667 78.3459H96.6661Z" stroke="black" stroke-width="0.5"/>
<path d="M228.667 30.3459L165.167 31.3459C161.167 36.3459 160.167 70.3459 163.667 78.3459L198.167 76.8459C202.667 75.3459 209.167 69.8459 228.667 30.3459Z" stroke="black" stroke-width="0.5"/>
<path d="M170.667 29.846C166.167 30.346 162.667 30.346 159.667 30.346L165.167 7.84602C168.167 7.34595 171.167 7.34595 174.167 7.84602L170.667 29.846Z" stroke="black" stroke-width="0.5"/>
<path d="M99.167 31.8461C103.667 37.3461 110.667 33.8461 114.667 32.3461C115.667 16.846 102.667 24.8459 99.167 31.8461Z" stroke="black" stroke-width="0.5"/>
<path d="M234.665 9.34595L231.665 12.8459C248.665 18.3459 259.165 21.3459 271.665 27.8459H273.165L281.165 26.3459C266.165 19.8459 258.665 17.3459 234.665 9.34595Z" fill="#E56E90" stroke="black" stroke-width="0.5"/>
<path d="M271.665 27.8459C261.165 22.3459 242.165 15.8459 231.665 12.8459L229.665 15.3459L244.665 22.8459C243.165 25.3459 239.165 27.3459 233.165 30.0459C245.165 29.3459 262.165 28.3459 271.665 27.8459Z" fill="#E56E90" stroke="black" stroke-width="0.5"/>
<path d="M277.167 34.1459L283.165 31.8459L272.666 27.8459L228.666 30.3459C221.166 45.3459 206.166 75.8459 198.166 76.8459H212.666C211.166 65.8459 220.666 42.3459 245.667 51.3459C256.167 45.8459 266.167 40.3459 277.167 34.1459Z" fill="#E56E90" stroke="black" stroke-width="0.5"/>
<path d="M278.165 33.846C266.165 40.346 256.165 45.846 245.665 51.346C250.165 54.3459 260.665 60.3459 259.665 79.3459L284.665 78.8459V77.3459C293.165 76.3459 301.665 79.8459 300.165 65.8459L302.165 55.8459C302.165 54.3459 299.665 50.3459 297.165 49.8459C298.665 47.3459 295.665 38.3459 295.665 38.3459V36.8459L291.665 33.8459L286.665 32.3459L283.165 31.8459L278.165 33.846Z" fill="#E56E90" stroke="black" stroke-width="0.5"/>
<path d="M281.165 26.3459L272.665 27.8459L283.165 31.8459C292.665 32.8459 291.664 34.3459 295.659 36.7661L295.165 28.3459L281.165 26.3459Z" fill="#E56E90"/>
<path d="M295.665 36.8459L295.659 36.7661M295.659 36.7661L295.165 28.3459L281.165 26.3459L272.665 27.8459L283.165 31.8459C292.665 32.8459 291.664 34.3459 295.659 36.7661Z" stroke="black" stroke-width="0.5"/>
<path d="M294.167 36.3461C293.667 33.846 282.667 33.646 277.167 34.146" stroke="black" stroke-width="0.5"/>
<path d="M300.167 66.3459L260.667 68.3459C260.167 63.3459 258 59.1793 256.167 57.3459L302.167 54.8459M300.667 52.3459C289.667 50.8459 278.667 46.0459 266.667 40.0459M228.667 30.3459L272.667 27.8459L281.167 26.3459" stroke="black" stroke-width="0.5"/>
<path d="M290.667 40.3459C290.667 38.3459 289.667 34.3459 286.167 32.3459C288.388 32.3459 291.765 33.3863 294.276 35.7559C294.74 37.2859 293.667 40.8459 290.625 42.3459C290.612 41.7557 290.667 41.0702 290.667 40.3459Z" fill="#E56E90"/>
<path d="M272.667 42.8459C279.663 43.1957 285.68 43.3008 291.06 43.8459M297.667 44.8459C295.564 44.3953 293.371 44.08 291.06 43.8459M295.667 37.3459C295.249 36.7608 294.78 36.2316 294.276 35.7559M291.06 43.8459C290.734 43.5012 290.64 42.9781 290.625 42.3459M290.625 42.3459C290.612 41.7557 290.667 41.0702 290.667 40.3459C290.667 38.3459 289.667 34.3459 286.167 32.3459C288.388 32.3459 291.765 33.3863 294.276 35.7559M290.625 42.3459C293.667 40.8459 294.74 37.2859 294.276 35.7559" stroke="black" stroke-width="0.5"/>
<path d="M290.667 40.3459C286.167 40.3459 284.167 36.3459 283.167 33.8459" stroke="black" stroke-width="0.5"/>
<path d="M132.665 12.4459C119.165 16.4459 107.165 22.3459 93.165 35.3459C100.165 23.3459 115.665 13.8459 131.165 8.84595L132.665 12.4459Z" fill="#E0426F" stroke="black" stroke-width="0.5"/>
<path d="M131.165 8.84595C111.165 14.52 93.165 31.8459 85.165 29.8459C98.165 20.3459 114.165 11.8459 130.665 7.34595L131.165 8.84595Z" fill="#E0426F" stroke="black" stroke-width="0.5"/>
<path d="M10.1657 47.846H4.16571C1.66504 51.8459 1.66504 61.8459 2.16571 65.3459C0.665039 66.3459 0.665637 70.8459 1.66571 72.3459L5.66571 72.8459V74.3459L1.66571 76.3459V78.3459C5.66571 79.3459 14.1657 81.3459 22.1657 80.8459V79.3459H39.6657C38.999 70.8459 40.6657 60.3459 49.6657 53.3459C47.1657 49.3459 40.1657 44.8459 37.1657 44.346C27.1657 43.3459 12.1657 45.846 10.1657 47.846Z" fill="#E0426F" stroke="black" stroke-width="0.5"/>
<path d="M93.167 35.3459C75.3337 36.1793 43.667 41.0459 33.167 44.0459L37.167 44.3459C42.167 45.8459 47.667 50.1793 49.667 53.3459C62.666 43.8459 88.166 50.8459 86.666 78.3459H96.666C89.666 67.3459 90.666 45.3459 93.167 35.3459Z" fill="#E0426F" stroke="black" stroke-width="0.5"/>
<path d="M10.165 47.846H4.16504C36.6652 28.3459 58.6653 34.3459 84.665 29.8459L93.6653 35.3459C76.6653 36.3459 47.665 39.8459 33.665 44.046C25.665 43.8459 11.665 45.8459 10.165 47.846Z" fill="#E0426F" stroke="black" stroke-width="0.5"/>
<path d="M37.1665 44.346C29.6665 43.3459 12.6665 45.3459 10.1665 47.846C9.36649 50.246 12.4998 53.1793 14.1665 54.3459C23.6665 55.8459 37.1665 49.8459 37.1665 44.346Z" fill="#E0426F" stroke="black" stroke-width="0.5"/>
<path d="M4.16573 47.8459C11.1657 48.8459 5.16573 59.3459 2.16573 64.3459C1.66566 57.3459 2.16553 51.8459 4.16573 47.8459Z" fill="#E0426F" stroke="black" stroke-width="0.5"/>
<path d="M22.165 83.8459V79.3459H39.665L40.165 83.8459H22.165Z" fill="#E0426F" stroke="black" stroke-width="0.5"/>
<path d="M2.66699 65.3459C4.16699 67.8459 6.16699 71.0126 5.66699 72.8459M22.167 79.3459C11.667 79.8459 7.16699 75.8459 8.16699 72.3459C8.66699 71.8459 10.167 70.3459 11.167 70.3459" stroke="black" stroke-width="0.5"/>
<path d="M32.167 74.3459C29.667 70.3459 24.167 65.346 21.167 63.846C19.4169 63.346 16.7919 63.471 14.0418 63.846C12.4169 65.1793 11.167 68.3459 11.667 71.3459C11.667 72.5126 12.9744 74.8459 15.667 74.8459C20.167 74.8459 27.167 75.3459 32.167 74.3459Z" fill="#E0426F"/>
<path d="M6.16699 65.346C8.41693 64.846 11.2918 64.221 14.0418 63.846M14.0418 63.846C16.7919 63.471 19.4169 63.346 21.167 63.846C24.167 65.346 29.667 70.3459 32.167 74.3459C27.167 75.3459 20.167 74.8459 15.667 74.8459C12.9744 74.8459 11.667 72.5126 11.667 71.3459C11.167 68.3459 12.4168 65.1793 14.0418 63.846Z" stroke="black" stroke-width="0.5"/>
<path d="M11.667 70.846C19.667 69.3461 23.167 71.9745 26.167 73.4745M13.167 73.8461L30.667 73.3461" stroke="black" stroke-width="0.5"/>
<path d="M22.165 82.3459H31.665C33.665 82.3459 35.165 80.3459 34.665 79.3459M38.165 79.3459V83.8459" stroke="black" stroke-width="0.5"/>
<path d="M22.1669 80.8462C17.6669 80.8462 13.1669 81.3462 1.66694 78.3462V76.3462L5.66694 74.3462V72.8462L1.66694 72.3462C1.16602 70.8459 0.166211 67.8459 2.16621 65.3459C1.66645 57.3459 2.16645 50.8459 4.16694 47.8457C36.6669 28.3461 58.6669 34.3461 84.6669 29.8461C162.667 -25.154 244.667 11.8459 281.667 26.3461L295.167 28.3459L295.667 35.3459V38.3459C297.165 43.3459 298.5 47.8459 297.167 49.8459C299.667 50.8459 302.167 54.0126 302.167 55.8459L300.167 65.8459C300.619 76.6939 298.211 76.9181 288.879 77.2306C287.888 77.2638 285.819 77.2979 284.667 77.3459V78.8459L259.667 79.277M22.1669 80.8462V83.8462H40.1653L39.6669 79.3462M22.1669 80.8462V79.3462H39.6669M39.6669 79.3462C36.6669 37.8462 90.1669 40.8462 86.6669 79.8462V82.3459H213.167C207.167 38.8459 261.667 38.8459 259.667 79.277M259.165 79.277H259.667" stroke="black"/>
</svg>
