<svg width="303" height="95" viewBox="0 0 303 95" fill="none" xmlns="http://www.w3.org/2000/svg">
<circle cx="62.8853" cy="73.8914" r="20.5" fill="#EFC7D3" stroke="black"/>
<circle cx="235.885" cy="73.8914" r="20.5" fill="#EFC7D3" stroke="black"/>
<path d="M132.884 12.3912L131.384 8.89121C171.384 0.891325 192.884 1.39136 231.884 12.8913L228.384 17.3913C208.384 9.39127 190.384 8.39127 174.384 7.89133C171.884 7.39133 167.884 7.3913 165.384 7.89121C155.384 7.89133 143.384 9.39134 132.884 12.3912Z" fill="#E0426F" stroke="black" stroke-width="0.5"/>
<path d="M131.384 8.8914L130.884 7.3914C166.884 -3.60864 199.384 0.391232 234.884 9.3914L231.884 12.8914C191.884 0.391357 165.884 1.89136 131.384 8.8914Z" fill="#E0426F" stroke="black" stroke-width="0.5"/>
<path d="M131.384 8.89122C182.884 -2.6088 211.384 7.39124 231.884 12.8912" stroke="black" stroke-width="0.5"/>
<path d="M170.885 29.8914L174.385 7.89136C207.885 8.89136 219.385 14.3914 223.885 15.8914L226.368 27.8914C199.378 27.892 181.883 29.3915 170.885 29.8914Z" fill="#E0426F"/>
<path d="M226.885 30.3914L223.885 15.8914C219.385 14.3914 207.885 8.89136 174.385 7.89136L170.885 29.8914C181.885 29.3914 199.385 27.8914 226.385 27.8914" stroke="black" stroke-width="0.5"/>
<path d="M165.385 7.89136C132.385 8.89136 112.385 17.8914 93.3853 35.3914L95.8853 33.3914L159.885 30.3914L165.385 7.89136Z" fill="#E0426F" stroke="black" stroke-width="0.5"/>
<path d="M239.884 22.3914C236.217 19.7247 230.384 17.3914 223.884 15.8914L226.384 27.8914H232.884C235.884 26.3914 238.884 24.1601 239.884 22.3914Z" fill="#E0426F" stroke="black" stroke-width="0.5"/>
<path d="M96.8853 78.3914H163.885L198.385 76.8914H212.885L213.385 82.3914H199.385H98.3853H86.8853V78.3914H96.8853Z" fill="#E0426F"/>
<path d="M96.8853 78.3914H163.885L198.385 76.8914M96.8853 78.3914C96.8853 79.8914 97.3853 80.8914 98.3853 82.3914M96.8853 78.3914H86.8853V82.3914H98.3853M198.385 76.8914L199.385 82.3914M198.385 76.8914H212.885L213.385 82.3914H199.385M199.385 82.3914H98.3853" stroke="black" stroke-width="0.5"/>
<path d="M96.8844 78.3914C92.3852 73.8914 89.3853 51.8914 93.3844 35.3914L165.385 31.3914C161.385 36.3914 160.385 70.3914 163.885 78.3914H96.8844Z" fill="#E0426F" stroke="black" stroke-width="0.5"/>
<path d="M228.885 30.3914L165.385 31.3914C161.385 36.3914 160.385 70.3914 163.885 78.3914L198.385 76.8914C202.885 75.3914 209.385 69.8914 228.885 30.3914Z" fill="#E0426F" stroke="black" stroke-width="0.5"/>
<path d="M170.885 29.8914C166.385 30.3914 162.885 30.3914 159.885 30.3914L165.385 7.89143C168.385 7.39136 171.385 7.39136 174.385 7.89143L170.885 29.8914Z" fill="#E0426F" stroke="black" stroke-width="0.5"/>
<path d="M99.3853 31.8914C103.885 37.3914 110.885 33.8914 114.885 32.3914C115.885 16.8913 102.885 24.8912 99.3853 31.8914Z" fill="#E0426F" stroke="black" stroke-width="0.5"/>
<path d="M234.884 9.39136L231.884 12.8914C248.884 18.3914 259.384 21.3914 271.884 27.8914H273.384L281.384 26.3914C266.384 19.8914 258.884 17.3914 234.884 9.39136Z" fill="#EFC7D3" stroke="black" stroke-width="0.5"/>
<path d="M271.884 27.8914C261.384 22.3914 242.384 15.8914 231.884 12.8914L229.884 15.3914L244.884 22.8914C243.384 25.3914 239.384 27.3914 233.384 30.0914C245.384 29.3914 262.384 28.3914 271.884 27.8914Z" fill="#EFC7D3" stroke="black" stroke-width="0.5"/>
<path d="M277.385 34.1914L283.384 31.8914L272.884 27.8914L228.884 30.3914C221.384 45.3914 206.384 75.8914 198.384 76.8914H212.884C211.384 65.8914 220.884 42.3914 245.885 51.3914C256.385 45.8914 266.385 40.3914 277.385 34.1914Z" fill="#EFC7D3" stroke="black" stroke-width="0.5"/>
<path d="M278.384 33.8914C266.384 40.3914 256.384 45.8914 245.884 51.3914C250.384 54.3914 260.884 60.3914 259.884 79.3914L284.884 78.8914V77.3914C293.384 76.3914 301.884 79.8914 300.384 65.8914L302.384 55.8914C302.384 54.3914 299.884 50.3914 297.384 49.8914C298.884 47.3914 295.884 38.3914 295.884 38.3914V36.8914L291.884 33.8914L286.884 32.3914L283.384 31.8914L278.384 33.8914Z" fill="#EFC7D3" stroke="black" stroke-width="0.5"/>
<path d="M281.384 26.3914L272.884 27.8914L283.384 31.8914C292.884 32.8914 291.883 34.3914 295.878 36.8115L295.384 28.3914L281.384 26.3914Z" fill="#EFC7D3"/>
<path d="M295.884 36.8914L295.878 36.8115M295.878 36.8115L295.384 28.3914L281.384 26.3914L272.884 27.8914L283.384 31.8914C292.884 32.8914 291.883 34.3914 295.878 36.8115Z" stroke="black" stroke-width="0.5"/>
<path d="M294.385 36.3916C293.885 33.8914 282.885 33.6914 277.385 34.1914" stroke="black" stroke-width="0.5"/>
<path d="M300.385 66.3914L260.885 68.3914C260.385 63.3914 258.219 59.2247 256.385 57.3914L302.385 54.8914M300.885 52.3914C289.885 50.8914 278.885 46.0914 266.885 40.0914M228.885 30.3914L272.885 27.8914L281.385 26.3914" stroke="black" stroke-width="0.5"/>
<path d="M290.885 40.3914C290.885 38.3914 289.885 34.3914 286.385 32.3914C288.606 32.3914 291.983 33.4317 294.494 35.8013C294.958 37.3313 293.885 40.8914 290.843 42.3914C290.83 41.8011 290.885 41.1156 290.885 40.3914Z" fill="#EFC7D3"/>
<path d="M272.885 42.8914C279.881 43.2411 285.898 43.3462 291.278 43.8914M297.885 44.8914C295.782 44.4407 293.589 44.1255 291.278 43.8914M295.885 37.3914C295.467 36.8062 294.998 36.277 294.494 35.8013M291.278 43.8914C290.952 43.5466 290.858 43.0235 290.843 42.3914M290.843 42.3914C290.83 41.8011 290.885 41.1156 290.885 40.3914C290.885 38.3914 289.885 34.3914 286.385 32.3914C288.606 32.3914 291.983 33.4317 294.494 35.8013M290.843 42.3914C293.885 40.8914 294.958 37.3313 294.494 35.8013" stroke="black" stroke-width="0.5"/>
<path d="M290.885 40.3914C286.385 40.3914 284.385 36.3914 283.385 33.8914" stroke="black" stroke-width="0.5"/>
<path d="M132.884 12.4913C119.384 16.4913 107.384 22.3914 93.3838 35.3914C100.384 23.3914 115.884 13.8914 131.384 8.89136L132.884 12.4913Z" fill="#EFC7D3" stroke="black" stroke-width="0.5"/>
<path d="M131.384 8.89136C111.384 14.5654 93.3838 31.8914 85.3838 29.8914C98.3838 20.3914 114.384 11.8914 130.884 7.39136L131.384 8.89136Z" fill="#EFC7D3" stroke="black" stroke-width="0.5"/>
<path d="M10.3845 47.8912H4.38446C1.88379 51.8912 1.88379 61.8912 2.38446 65.3912C0.883789 66.3912 0.884387 70.8912 1.88446 72.3912L5.88446 72.8912V74.3912L1.88446 76.3912V78.3912C5.88446 79.3912 14.3845 81.3912 22.3845 80.8912V79.3912H39.8845C39.2178 70.8912 40.8845 60.3912 49.8845 53.3912C47.3845 49.3912 40.3845 44.8912 37.3845 44.3912C27.3845 43.3912 12.3845 45.8912 10.3845 47.8912Z" fill="#EFC7D3" stroke="black" stroke-width="0.5"/>
<path d="M93.3853 35.3914C75.5519 36.2247 43.8853 41.0914 33.3853 44.0914L37.3853 44.3914C42.3853 45.8914 47.8853 50.2247 49.8853 53.3914C62.8843 43.8914 88.3843 50.8914 86.8843 78.3914H96.8843C89.8843 67.3914 90.8843 45.3914 93.3853 35.3914Z" fill="#EFC7D3" stroke="black" stroke-width="0.5"/>
<path d="M10.3838 47.8914H4.38379C36.884 28.3913 58.884 34.3914 84.8838 29.8914L93.884 35.3914C76.884 36.3914 47.8838 39.8914 33.8838 44.0914C25.8838 43.8913 11.8838 45.8914 10.3838 47.8914Z" fill="#EFC7D3" stroke="black" stroke-width="0.5"/>
<path d="M37.3852 44.3914C29.8852 43.3914 12.8852 45.3914 10.3852 47.8914C9.58524 50.2914 12.7186 53.2247 14.3852 54.3914C23.8853 55.8914 37.3852 49.8914 37.3852 44.3914Z" fill="#EFC7D3" stroke="black" stroke-width="0.5"/>
<path d="M4.38448 47.8914C11.3845 48.8914 5.38448 59.3914 2.38448 64.3914C1.88441 57.3914 2.38428 51.8914 4.38448 47.8914Z" fill="#EFC7D3" stroke="black" stroke-width="0.5"/>
<path d="M22.3838 83.8914V79.3914H39.8838L40.3838 83.8914H22.3838Z" fill="#EFC7D3" stroke="black" stroke-width="0.5"/>
<path d="M2.88574 65.3911C4.38574 67.8911 6.38574 71.0578 5.88574 72.8911M22.3857 79.3911C11.8857 79.8911 7.38574 75.8911 8.38574 72.3911C8.88574 71.8911 10.3857 70.3911 11.3857 70.3911" stroke="black" stroke-width="0.5"/>
<path d="M32.3857 74.3912C29.8857 70.3912 24.3857 65.3913 21.3857 63.8913C19.6357 63.3913 17.0106 63.5163 14.2605 63.8913C12.6356 65.2246 11.3857 68.3912 11.8857 71.3912C11.8857 72.5579 13.1932 74.8912 15.8857 74.8912C20.3857 74.8912 27.3857 75.3912 32.3857 74.3912Z" fill="#EFC7D3"/>
<path d="M6.38574 65.3913C8.63568 64.8913 11.5106 64.2663 14.2605 63.8913M14.2605 63.8913C17.0106 63.5163 19.6357 63.3913 21.3857 63.8913C24.3857 65.3913 29.8857 70.3912 32.3857 74.3912C27.3857 75.3912 20.3857 74.8912 15.8857 74.8912C13.1932 74.8912 11.8857 72.5579 11.8857 71.3912C11.3857 68.3912 12.6356 65.2246 14.2605 63.8913Z" stroke="black" stroke-width="0.5"/>
<path d="M11.8857 70.8913C19.8857 69.3914 23.3857 72.0198 26.3857 73.5198M13.3857 73.8914L30.8857 73.3914" stroke="black" stroke-width="0.5"/>
<path d="M22.3838 82.3911H31.8838C33.8838 82.3911 35.3838 80.3911 34.8838 79.3911M38.3838 79.3911V83.8911" stroke="black" stroke-width="0.5"/>
<path d="M22.3852 80.8916C17.8852 80.8916 13.3852 81.3916 1.8852 78.3916V76.3916L5.8852 74.3916V72.8916L1.8852 72.3916C1.38428 70.8914 0.384473 67.8914 2.38447 65.3914C1.88471 57.3914 2.38471 50.8914 4.3852 47.8911C36.8852 28.3915 58.8852 34.3915 84.8852 29.8915C162.885 -25.1086 244.885 11.8913 281.885 26.3915L295.385 28.3914L295.885 35.3914V38.3914C297.384 43.3914 298.719 47.8914 297.385 49.8914C299.885 50.8914 302.385 54.058 302.385 55.8914L300.385 65.8914C300.837 76.7393 298.429 76.9635 289.098 77.276C288.106 77.3092 286.037 77.3434 284.885 77.3914V78.8914L259.885 79.3224M22.3852 80.8916V83.8916H40.3835L39.8852 79.3916M22.3852 80.8916V79.3916H39.8852M39.8852 79.3916C36.8852 37.8916 90.3852 40.8916 86.8852 79.8916V82.3914H213.385C207.385 38.8914 261.885 38.8914 259.885 79.3224M259.384 79.3224H259.885" stroke="black"/>
</svg>
