<svg width="303" height="96" viewBox="0 0 303 96" fill="none" xmlns="http://www.w3.org/2000/svg">
<circle cx="62.458" cy="74.2297" r="20.5" fill="#E0426F" stroke="black"/>
<circle cx="235.458" cy="74.2297" r="20.5" fill="#E0426F" stroke="black"/>
<path d="M132.456 12.7296L130.956 9.22959C170.956 1.2297 192.456 1.72974 231.456 13.2297L227.956 17.7297C207.956 9.72965 189.956 8.72964 173.956 8.22971C171.456 7.72971 167.456 7.72968 164.956 8.22959C154.956 8.22971 142.956 9.72971 132.456 12.7296Z" fill="#E0426F" stroke="black" stroke-width="0.5"/>
<path d="M130.956 9.22978L130.456 7.72978C166.456 -3.27026 198.956 0.72961 234.456 9.72978L231.456 13.2298C191.456 0.729736 165.456 2.22974 130.956 9.22978Z" fill="#E0426F" stroke="black" stroke-width="0.5"/>
<path d="M130.956 9.2296C182.456 -2.27042 210.956 7.72961 231.456 13.2296" stroke="black" stroke-width="0.5"/>
<path d="M170.458 30.2297L173.958 8.22974C207.458 9.22974 218.958 14.7297 223.458 16.2297L225.941 28.2297C198.951 28.2304 181.456 29.7298 170.458 30.2297Z" fill="#E0426F"/>
<path d="M226.458 30.7297L223.458 16.2297C218.958 14.7297 207.458 9.22974 173.958 8.22974L170.458 30.2297C181.458 29.7297 198.958 28.2297 225.958 28.2297" stroke="black" stroke-width="0.5"/>
<path d="M164.958 8.22974C131.958 9.22974 111.958 18.2297 92.958 35.7297L95.458 33.7297L159.458 30.7297L164.958 8.22974Z" fill="#E0426F" stroke="black" stroke-width="0.5"/>
<path d="M239.456 22.7297C235.789 20.0631 229.956 17.7297 223.456 16.2297L225.956 28.2297H232.456C235.456 26.7297 238.456 24.4985 239.456 22.7297Z" fill="#E0426F" stroke="black" stroke-width="0.5"/>
<path d="M96.458 78.7297H163.458L197.958 77.2297H212.458L212.958 82.7297H198.958H97.958H86.458V78.7297H96.458Z" fill="#E0426F"/>
<path d="M96.458 78.7297H163.458L197.958 77.2297M96.458 78.7297C96.458 80.2297 96.958 81.2297 97.958 82.7297M96.458 78.7297H86.458V82.7297H97.958M197.958 77.2297L198.958 82.7297M197.958 77.2297H212.458L212.958 82.7297H198.958M198.958 82.7297H97.958" stroke="black" stroke-width="0.5"/>
<path d="M96.4571 78.7297C91.958 74.2297 88.9581 52.2297 92.9571 35.7297L164.958 31.7297C160.958 36.7297 159.958 70.7297 163.458 78.7297H96.4571Z" fill="#E0426F" stroke="black" stroke-width="0.5"/>
<path d="M228.458 30.7297L164.958 31.7297C160.958 36.7297 159.958 70.7297 163.458 78.7297L197.958 77.2297C202.458 75.7297 208.958 70.2297 228.458 30.7297Z" fill="#E0426F" stroke="black" stroke-width="0.5"/>
<path d="M170.458 30.2298C165.958 30.7298 162.458 30.7298 159.458 30.7298L164.958 8.22981C167.958 7.72974 170.958 7.72974 173.958 8.22981L170.458 30.2298Z" fill="#E0426F" stroke="black" stroke-width="0.5"/>
<path d="M98.958 32.2297C103.458 37.7297 110.458 34.2297 114.458 32.7297C115.458 17.2296 102.458 25.2296 98.958 32.2297Z" fill="#E0426F" stroke="black" stroke-width="0.5"/>
<path d="M234.456 9.72974L231.456 13.2297C248.456 18.7297 258.956 21.7297 271.456 28.2297H272.956L280.956 26.7297C265.956 20.2297 258.456 17.7297 234.456 9.72974Z" fill="#E56E90" stroke="black" stroke-width="0.5"/>
<path d="M271.456 28.2297C260.956 22.7297 241.956 16.2297 231.456 13.2297L229.456 15.7297L244.456 23.2297C242.956 25.7297 238.956 27.7297 232.956 30.4297C244.956 29.7297 261.956 28.7297 271.456 28.2297Z" fill="#E56E90" stroke="black" stroke-width="0.5"/>
<path d="M276.958 34.5297L282.956 32.2297L272.457 28.2297L228.457 30.7297C220.957 45.7297 205.957 76.2297 197.957 77.2297H212.457C210.957 66.2297 220.457 42.7297 245.458 51.7297C255.958 46.2297 265.958 40.7297 276.958 34.5297Z" fill="#E56E90" stroke="black" stroke-width="0.5"/>
<path d="M277.956 34.2298C265.956 40.7298 255.956 46.2298 245.456 51.7298C249.956 54.7297 260.456 60.7297 259.456 79.7297L284.456 79.2297V77.7297C292.956 76.7297 301.456 80.2297 299.956 66.2297L301.956 56.2297C301.956 54.7297 299.456 50.7297 296.956 50.2297C298.456 47.7297 295.456 38.7297 295.456 38.7297V37.2297L291.456 34.2297L286.456 32.7297L282.956 32.2297L277.956 34.2298Z" fill="#E56E90" stroke="black" stroke-width="0.5"/>
<path d="M280.956 26.7297L272.456 28.2297L282.956 32.2297C292.456 33.2297 291.455 34.7297 295.45 37.1499L294.956 28.7297L280.956 26.7297Z" fill="#E56E90"/>
<path d="M295.456 37.2297L295.45 37.1499M295.45 37.1499L294.956 28.7297L280.956 26.7297L272.456 28.2297L282.956 32.2297C292.456 33.2297 291.455 34.7297 295.45 37.1499Z" stroke="black" stroke-width="0.5"/>
<path d="M293.958 36.7299C293.458 34.2298 282.458 34.0297 276.958 34.5297" stroke="black" stroke-width="0.5"/>
<path d="M299.958 66.7297L260.458 68.7297C259.958 63.7297 257.791 59.5631 255.958 57.7297L301.958 55.2297M300.458 52.7297C289.458 51.2297 278.458 46.4297 266.458 40.4297M228.458 30.7297L272.458 28.2297L280.958 26.7297" stroke="black" stroke-width="0.5"/>
<path d="M290.458 40.7297C290.458 38.7297 289.458 34.7297 285.958 32.7297C288.179 32.7297 291.556 33.7701 294.067 36.1397C294.531 37.6697 293.458 41.2297 290.416 42.7297C290.403 42.1395 290.458 41.454 290.458 40.7297Z" fill="#E56E90"/>
<path d="M272.458 43.2297C279.454 43.5795 285.471 43.6846 290.851 44.2297M297.458 45.2297C295.355 44.7791 293.162 44.4638 290.851 44.2297M295.458 37.7297C295.04 37.1446 294.571 36.6154 294.067 36.1397M290.851 44.2297C290.525 43.885 290.431 43.3619 290.416 42.7297M290.416 42.7297C290.403 42.1395 290.458 41.454 290.458 40.7297C290.458 38.7297 289.458 34.7297 285.958 32.7297C288.179 32.7297 291.556 33.7701 294.067 36.1397M290.416 42.7297C293.458 41.2297 294.531 37.6697 294.067 36.1397" stroke="black" stroke-width="0.5"/>
<path d="M290.458 40.7297C285.958 40.7297 283.958 36.7297 282.958 34.2297" stroke="black" stroke-width="0.5"/>
<path d="M132.456 12.8297C118.956 16.8297 106.956 22.7297 92.9561 35.7297C99.9561 23.7297 115.456 14.2297 130.956 9.22974L132.456 12.8297Z" fill="#E0426F" stroke="black" stroke-width="0.5"/>
<path d="M130.956 9.22974C110.956 14.9038 92.9561 32.2297 84.9561 30.2297C97.9561 20.7297 113.956 12.2297 130.456 7.72974L130.956 9.22974Z" fill="#E0426F" stroke="black" stroke-width="0.5"/>
<path d="M9.95672 48.2296H3.95672C1.45605 52.2296 1.45605 62.2296 1.95672 65.7296C0.456055 66.7296 0.456652 71.2296 1.45672 72.7296L5.45672 73.2296V74.7296L1.45672 76.7296V78.7296C5.45672 79.7296 13.9567 81.7296 21.9567 81.2296V79.7296H39.4567C38.7901 71.2296 40.4567 60.7296 49.4567 53.7296C46.9567 49.7296 39.9567 45.2296 36.9567 44.7296C26.9567 43.7296 11.9567 46.2296 9.95672 48.2296Z" fill="#E0426F" stroke="black" stroke-width="0.5"/>
<path d="M92.958 35.7297C75.1247 36.5631 43.458 41.4297 32.958 44.4297L36.958 44.7297C41.958 46.2297 47.458 50.5631 49.458 53.7297C62.457 44.2297 87.957 51.2297 86.457 78.7297H96.457C89.457 67.7297 90.457 45.7297 92.958 35.7297Z" fill="#E0426F" stroke="black" stroke-width="0.5"/>
<path d="M9.95606 48.2298H3.95605C36.4562 28.7297 58.4563 34.7297 84.4561 30.2297L93.4563 35.7297C76.4563 36.7297 47.4561 40.2297 33.4561 44.4297C25.4561 44.2297 11.4561 46.2297 9.95606 48.2298Z" fill="#E0426F" stroke="black" stroke-width="0.5"/>
<path d="M36.9575 44.7298C29.4575 43.7297 12.4575 45.7297 9.95751 48.2298C9.15751 50.6298 12.2908 53.5631 13.9575 54.7297C23.4575 56.2297 36.9575 50.2297 36.9575 44.7298Z" fill="#E0426F" stroke="black" stroke-width="0.5"/>
<path d="M3.95675 48.2297C10.9568 49.2297 4.95675 59.7297 1.95675 64.7297C1.45668 57.7297 1.95654 52.2297 3.95675 48.2297Z" fill="#E0426F" stroke="black" stroke-width="0.5"/>
<path d="M21.9561 84.2297V79.7297H39.4561L39.9561 84.2297H21.9561Z" fill="#E0426F" stroke="black" stroke-width="0.5"/>
<path d="M2.45801 65.7295C3.95801 68.2295 5.95801 71.3962 5.45801 73.2295M21.958 79.7295C11.458 80.2295 6.95801 76.2295 7.95801 72.7295C8.45801 72.2295 9.95801 70.7295 10.958 70.7295" stroke="black" stroke-width="0.5"/>
<path d="M31.958 74.7296C29.458 70.7296 23.958 65.7297 20.958 64.2297C19.208 63.7297 16.5829 63.8547 13.8328 64.2297C12.2079 65.563 10.958 68.7296 11.458 71.7296C11.458 72.8963 12.7654 75.2296 15.458 75.2296C19.958 75.2296 26.958 75.7296 31.958 74.7296Z" fill="#E0426F"/>
<path d="M5.95801 65.7297C8.20795 65.2297 11.0829 64.6047 13.8328 64.2297M13.8328 64.2297C16.5829 63.8547 19.208 63.7297 20.958 64.2297C23.958 65.7297 29.458 70.7296 31.958 74.7296C26.958 75.7296 19.958 75.2296 15.458 75.2296C12.7654 75.2296 11.458 72.8963 11.458 71.7296C10.958 68.7296 12.2079 65.563 13.8328 64.2297Z" stroke="black" stroke-width="0.5"/>
<path d="M11.458 71.2297C19.458 69.7297 22.958 72.3582 25.958 73.8582M12.958 74.2297L30.458 73.7297" stroke="black" stroke-width="0.5"/>
<path d="M21.9561 82.7295H31.4561C33.4561 82.7295 34.9561 80.7295 34.4561 79.7295M37.9561 79.7295V84.2295" stroke="black" stroke-width="0.5"/>
<path d="M21.958 81.23C17.458 81.23 12.958 81.73 1.45795 78.73V76.73L5.45795 74.73V73.23L1.45795 72.73C0.957031 71.2297 -0.0427729 68.2297 1.95722 65.7297C1.45747 57.7297 1.95747 51.2297 3.95795 48.2295C36.458 28.7299 58.4579 34.7299 84.4579 30.2299C162.458 -24.7702 244.458 12.2297 281.458 26.7299L294.958 28.7297L295.458 35.7297V38.7297C296.956 43.7297 298.291 48.2297 296.958 50.2297C299.458 51.2297 301.958 54.3964 301.958 56.2297L299.958 66.2297C300.41 77.0776 298.002 77.3019 288.67 77.6144C287.679 77.6476 285.61 77.6817 284.458 77.7297V79.2297L259.458 79.6608M21.958 81.23V84.23H39.9563L39.458 79.73M21.958 81.23V79.73H39.458M39.458 79.73C36.458 38.23 89.9579 41.23 86.4579 80.23V82.7297H212.958C206.958 39.2297 261.458 39.2297 259.458 79.6608M258.956 79.6608H259.458" stroke="black"/>
</svg>
