<svg width="303" height="96" viewBox="0 0 303 96" fill="none" xmlns="http://www.w3.org/2000/svg">
<circle cx="62.2817" cy="74.1692" r="20.5" fill="#E56E90" stroke="black"/>
<circle cx="235.282" cy="74.1692" r="20.5" fill="#E56E90" stroke="black"/>
<path d="M132.28 12.669L130.78 9.16904C170.78 1.16916 192.28 1.66919 231.28 13.1691L227.78 17.6691C207.78 9.6691 189.78 8.6691 173.78 8.16917C171.28 7.66917 167.28 7.66913 164.78 8.16904C154.78 8.16917 142.78 9.66917 132.28 12.669Z" stroke="black" stroke-width="0.5"/>
<path d="M130.78 9.16923L130.28 7.66923C166.28 -3.33081 198.78 0.669064 234.28 9.66924L231.28 13.1692C191.28 0.669189 165.28 2.16919 130.78 9.16923Z" stroke="black" stroke-width="0.5"/>
<path d="M130.78 9.16918C182.28 -2.33085 210.78 7.66919 231.28 13.1692" stroke="black" stroke-width="0.5"/>
<path d="M226.282 30.6692L223.282 16.1692C218.782 14.6692 207.282 9.16919 173.782 8.16919L170.282 30.1692C181.282 29.6692 198.782 28.1692 225.782 28.1692" stroke="black" stroke-width="0.5"/>
<path d="M164.782 8.16919C131.782 9.16919 111.782 18.1692 92.7817 35.6692L95.2817 33.6692L159.282 30.6692L164.782 8.16919Z" stroke="black" stroke-width="0.5"/>
<path d="M239.28 22.6692C235.614 20.0025 229.78 17.6692 223.28 16.1692L225.78 28.1692H232.28C235.28 26.6692 238.28 24.4379 239.28 22.6692Z" stroke="black" stroke-width="0.5"/>
<path d="M96.2817 78.6692H163.282L197.782 77.1692M96.2817 78.6692C96.2817 80.1692 96.7817 81.1692 97.7817 82.6692M96.2817 78.6692H86.2817V82.6692H97.7817M197.782 77.1692L198.782 82.6692M197.782 77.1692H212.282L212.782 82.6692H198.782M198.782 82.6692H97.7817" stroke="black" stroke-width="0.5"/>
<path d="M96.2809 78.6692C91.7817 74.1692 88.7818 52.1692 92.7809 35.6692L164.782 31.6692C160.782 36.6692 159.782 70.6692 163.282 78.6692H96.2809Z" stroke="black" stroke-width="0.5"/>
<path d="M228.281 30.6692L164.781 31.6692C160.781 36.6692 159.781 70.6692 163.281 78.6692L197.781 77.1692C202.281 75.6692 208.781 70.1692 228.281 30.6692Z" stroke="black" stroke-width="0.5"/>
<path d="M170.282 30.1693C165.782 30.6693 162.282 30.6693 159.282 30.6693L164.782 8.16926C167.782 7.66919 170.782 7.66919 173.782 8.16926L170.282 30.1693Z" stroke="black" stroke-width="0.5"/>
<path d="M98.7817 32.1693C103.282 37.6693 110.282 34.1693 114.282 32.6693C115.282 17.1692 102.282 25.1692 98.7817 32.1693Z" stroke="black" stroke-width="0.5"/>
<path d="M234.28 9.66919L231.28 13.1692C248.28 18.6692 258.78 21.6692 271.28 28.1692H272.78L280.78 26.6692C265.78 20.1692 258.28 17.6692 234.28 9.66919Z" fill="#EFC7D3" stroke="black" stroke-width="0.5"/>
<path d="M271.28 28.1692C260.78 22.6692 241.78 16.1692 231.28 13.1692L229.28 15.6692L244.28 23.1692C242.78 25.6692 238.78 27.6692 232.78 30.3692C244.78 29.6692 261.78 28.6692 271.28 28.1692Z" fill="#EFC7D3" stroke="black" stroke-width="0.5"/>
<path d="M276.782 34.4692L282.78 32.1692L272.281 28.1692L228.281 30.6692C220.781 45.6692 205.781 76.1692 197.781 77.1692H212.281C210.781 66.1692 220.281 42.6692 245.282 51.6692C255.782 46.1692 265.782 40.6692 276.782 34.4692Z" fill="#EFC7D3" stroke="black" stroke-width="0.5"/>
<path d="M277.78 34.1692C265.78 40.6692 255.78 46.1692 245.28 51.6692C249.78 54.6692 260.28 60.6692 259.28 79.6692L284.28 79.1692V77.6692C292.78 76.6692 301.28 80.1692 299.78 66.1692L301.78 56.1692C301.78 54.6692 299.28 50.6692 296.78 50.1692C298.28 47.6692 295.28 38.6692 295.28 38.6692V37.1692L291.28 34.1692L286.28 32.6692L282.78 32.1692L277.78 34.1692Z" fill="#EFC7D3" stroke="black" stroke-width="0.5"/>
<path d="M280.78 26.6692L272.28 28.1692L282.78 32.1692C292.28 33.1692 291.279 34.6692 295.274 37.0894L294.78 28.6692L280.78 26.6692Z" fill="#EFC7D3"/>
<path d="M295.28 37.1692L295.274 37.0894M295.274 37.0894L294.78 28.6692L280.78 26.6692L272.28 28.1692L282.78 32.1692C292.28 33.1692 291.279 34.6692 295.274 37.0894Z" stroke="black" stroke-width="0.5"/>
<path d="M293.782 36.6694C293.282 34.1693 282.282 33.9692 276.782 34.4692" stroke="black" stroke-width="0.5"/>
<path d="M299.782 66.6692L260.282 68.6692C259.782 63.6692 257.615 59.5025 255.782 57.6692L301.782 55.1692M300.282 52.6692C289.282 51.1692 278.282 46.3692 266.282 40.3692M228.282 30.6692L272.282 28.1692L280.782 26.6692" stroke="black" stroke-width="0.5"/>
<path d="M290.282 40.6692C290.282 38.6692 289.282 34.6692 285.782 32.6692C288.003 32.6692 291.379 33.7096 293.891 36.0792C294.354 37.6092 293.282 41.1692 290.24 42.6692C290.226 42.0789 290.282 41.3935 290.282 40.6692Z" fill="#EFC7D3"/>
<path d="M272.282 43.1692C279.277 43.519 285.294 43.6241 290.675 44.1692M297.282 45.1692C295.179 44.7185 292.985 44.4033 290.675 44.1692M295.282 37.6692C294.864 37.0841 294.395 36.5548 293.891 36.0792M290.675 44.1692C290.349 43.8244 290.255 43.3014 290.24 42.6692M290.24 42.6692C290.226 42.0789 290.282 41.3935 290.282 40.6692C290.282 38.6692 289.282 34.6692 285.782 32.6692C288.003 32.6692 291.379 33.7096 293.891 36.0792M290.24 42.6692C293.282 41.1692 294.354 37.6092 293.891 36.0792" stroke="black" stroke-width="0.5"/>
<path d="M290.282 40.6692C285.782 40.6692 283.782 36.6692 282.782 34.1692" stroke="black" stroke-width="0.5"/>
<path d="M132.28 12.7692C118.78 16.7692 106.78 22.6692 92.7803 35.6692C99.7803 23.6692 115.28 14.1692 130.78 9.16919L132.28 12.7692Z" stroke="black" stroke-width="0.5"/>
<path d="M130.78 9.16919C110.78 14.8432 92.7803 32.1692 84.7803 30.1692C97.7803 20.6692 113.78 12.1692 130.28 7.66919L130.78 9.16919Z" stroke="black" stroke-width="0.5"/>
<path d="M9.78094 48.1692H3.78094C1.28027 52.1692 1.28027 62.1692 1.78094 65.6692C0.280273 66.6692 0.280871 71.1692 1.28094 72.6692L5.28094 73.1692V74.6692L1.28094 76.6692V78.6692C5.28094 79.6692 13.7809 81.6692 21.7809 81.1692V79.6692H39.2809C38.6143 71.1692 40.2809 60.6692 49.2809 53.6692C46.7809 49.6692 39.7809 45.1692 36.7809 44.6692C26.7809 43.6692 11.7809 46.1692 9.78094 48.1692Z" stroke="black" stroke-width="0.5"/>
<path d="M92.7817 35.6692C74.9484 36.5025 43.2817 41.3692 32.7817 44.3692L36.7817 44.6692C41.7817 46.1692 47.2817 50.5025 49.2817 53.6692C62.2808 44.1692 87.7808 51.1692 86.2808 78.6692H96.2808C89.2808 67.6692 90.2808 45.6692 92.7817 35.6692Z" stroke="black" stroke-width="0.5"/>
<path d="M9.78027 48.1692H3.78027C36.2805 28.6691 58.2805 34.6692 84.2803 30.1692L93.2805 35.6692C76.2805 36.6692 47.2803 40.1692 33.2803 44.3692C25.2803 44.1692 11.2803 46.1692 9.78027 48.1692Z" stroke="black" stroke-width="0.5"/>
<path d="M36.7817 44.6693C29.2817 43.6692 12.2817 45.6692 9.78173 48.1693C8.98173 50.5692 12.1151 53.5025 13.7817 54.6692C23.2817 56.1692 36.7817 50.1692 36.7817 44.6693Z" stroke="black" stroke-width="0.5"/>
<path d="M3.78097 48.1692C10.781 49.1692 4.78097 59.6692 1.78097 64.6692C1.2809 57.6692 1.78076 52.1692 3.78097 48.1692Z" stroke="black" stroke-width="0.5"/>
<path d="M21.7803 84.1692V79.6692H39.2803L39.7803 84.1692H21.7803Z" stroke="black" stroke-width="0.5"/>
<path d="M2.28223 65.6692C3.78223 68.1692 5.78223 71.3359 5.28223 73.1692M21.7822 79.6692C11.2822 80.1692 6.78223 76.1692 7.78223 72.6692C8.28223 72.1692 9.78223 70.6692 10.7822 70.6692" stroke="black" stroke-width="0.5"/>
<path d="M5.78223 65.6693C8.03217 65.1692 10.9071 64.5443 13.657 64.1693M13.657 64.1693C16.4071 63.7943 19.0322 63.6693 20.7822 64.1693C23.7822 65.6693 29.2822 70.6692 31.7822 74.6692C26.7822 75.6692 19.7822 75.1692 15.2822 75.1692C12.5896 75.1692 11.2822 72.8359 11.2822 71.6692C10.7822 68.6692 12.0321 65.5026 13.657 64.1693Z" stroke="black" stroke-width="0.5"/>
<path d="M11.2822 71.1693C19.2822 69.6693 22.7822 72.2978 25.7822 73.7978M12.7822 74.1693L30.2822 73.6693" stroke="black" stroke-width="0.5"/>
<path d="M21.7803 82.6692H31.2803C33.2803 82.6692 34.7803 80.6692 34.2803 79.6692M37.7803 79.6692V84.1692" stroke="black" stroke-width="0.5"/>
<path d="M21.7817 81.1694C17.2817 81.1694 12.7817 81.6694 1.28168 78.6694V76.6694L5.28168 74.6694V73.1694L1.28168 72.6694C0.780762 71.1692 -0.219042 68.1692 1.78095 65.6692C1.2812 57.6692 1.7812 51.1692 3.78168 48.1689C36.2817 28.6693 58.2817 34.6694 84.2817 30.1694C162.282 -24.8307 244.282 12.1692 281.282 26.6694L294.782 28.6692L295.282 35.6692V38.6692C296.78 43.6692 298.115 48.1692 296.782 50.1692C299.282 51.1692 301.782 54.3359 301.782 56.1692L299.782 66.1692C300.234 77.0171 297.826 77.2414 288.494 77.5538C287.503 77.587 285.434 77.6212 284.282 77.6692V79.1692L259.282 79.6002M21.7817 81.1694V84.1694H39.78L39.2817 79.6694M21.7817 81.1694V79.6694H39.2817M39.2817 79.6694C36.2817 38.1694 89.7817 41.1694 86.2817 80.1694V82.6692H212.782C206.782 39.1692 261.282 39.1692 259.282 79.6002M258.78 79.6002H259.282" stroke="black"/>
</svg>
