<svg width="303" height="96" viewBox="0 0 303 96" fill="none" xmlns="http://www.w3.org/2000/svg">
<circle cx="62.667" cy="74.5076" r="20.5" stroke="black"/>
<circle cx="235.667" cy="74.5076" r="20.5" stroke="black"/>
<path d="M132.665 13.0074L131.165 9.50742C171.165 1.50754 192.665 2.00757 231.665 13.5075L228.165 18.0075C208.165 10.0075 190.165 9.00748 174.165 8.50755C171.665 8.00755 167.665 8.00751 165.165 8.50742C155.165 8.50755 143.165 10.0075 132.665 13.0074Z" stroke="black" stroke-width="0.5"/>
<path d="M131.165 9.50761L130.665 8.00761C166.665 -2.99243 199.165 1.00744 234.665 10.0076L231.665 13.5076C191.665 1.00757 165.665 2.50757 131.165 9.50761Z" stroke="black" stroke-width="0.5"/>
<path d="M131.165 9.50756C182.665 -1.99247 211.165 8.00757 231.665 13.5076" stroke="black" stroke-width="0.5"/>
<path d="M226.667 31.0076L223.667 16.5076C219.167 15.0076 207.667 9.50757 174.167 8.50757L170.667 30.5076C181.667 30.0076 199.167 28.5076 226.167 28.5076" stroke="black" stroke-width="0.5"/>
<path d="M165.167 8.50757C132.167 9.50757 112.167 18.5076 93.167 36.0076L95.667 34.0076L159.667 31.0076L165.167 8.50757Z" stroke="black" stroke-width="0.5"/>
<path d="M239.665 23.0076C235.998 20.3409 230.165 18.0076 223.665 16.5076L226.165 28.5076H232.665C235.665 27.0076 238.665 24.7763 239.665 23.0076Z" stroke="black" stroke-width="0.5"/>
<path d="M96.667 79.0076H163.667L198.167 77.5076M96.667 79.0076C96.667 80.5076 97.167 81.5076 98.167 83.0076M96.667 79.0076H86.667V83.0076H98.167M198.167 77.5076L199.167 83.0076M198.167 77.5076H212.667L213.167 83.0076H199.167M199.167 83.0076H98.167" stroke="black" stroke-width="0.5"/>
<path d="M96.6661 79.0076C92.167 74.5076 89.167 52.5076 93.1661 36.0076L165.167 32.0076C161.167 37.0076 160.167 71.0076 163.667 79.0076H96.6661Z" stroke="black" stroke-width="0.5"/>
<path d="M228.667 31.0076L165.167 32.0076C161.167 37.0076 160.167 71.0076 163.667 79.0076L198.167 77.5076C202.667 76.0076 209.167 70.5076 228.667 31.0076Z" stroke="black" stroke-width="0.5"/>
<path d="M170.667 30.5076C166.167 31.0076 162.667 31.0076 159.667 31.0076L165.167 8.50764C168.167 8.00757 171.167 8.00757 174.167 8.50764L170.667 30.5076Z" stroke="black" stroke-width="0.5"/>
<path d="M99.167 32.5077C103.667 38.0077 110.667 34.5077 114.667 33.0077C115.667 17.5076 102.667 25.5076 99.167 32.5077Z" stroke="black" stroke-width="0.5"/>
<path d="M234.665 10.0076L231.665 13.5076C248.665 19.0076 259.165 22.0076 271.665 28.5076H273.165L281.165 27.0076C266.165 20.5076 258.665 18.0076 234.665 10.0076Z" fill="#E56E90" stroke="black" stroke-width="0.5"/>
<path d="M271.665 28.5076C261.165 23.0076 242.165 16.5076 231.665 13.5076L229.665 16.0076L244.665 23.5076C243.165 26.0076 239.165 28.0076 233.165 30.7076C245.165 30.0076 262.165 29.0076 271.665 28.5076Z" fill="#E56E90" stroke="black" stroke-width="0.5"/>
<path d="M277.167 34.8076L283.165 32.5076L272.666 28.5076L228.666 31.0076C221.166 46.0076 206.166 76.5076 198.166 77.5076H212.666C211.166 66.5076 220.666 43.0076 245.667 52.0076C256.167 46.5076 266.167 41.0076 277.167 34.8076Z" fill="#E56E90" stroke="black" stroke-width="0.5"/>
<path d="M278.165 34.5076C266.165 41.0076 256.165 46.5076 245.665 52.0076C250.165 55.0076 260.665 61.0076 259.665 80.0076L284.665 79.5076V78.0076C293.165 77.0076 301.665 80.5076 300.165 66.5076L302.165 56.5076C302.165 55.0076 299.665 51.0076 297.165 50.5076C298.665 48.0076 295.665 39.0076 295.665 39.0076V37.5076L291.665 34.5076L286.665 33.0076L283.165 32.5076L278.165 34.5076Z" fill="#E56E90" stroke="black" stroke-width="0.5"/>
<path d="M281.165 27.0076L272.665 28.5076L283.165 32.5076C292.665 33.5076 291.664 35.0076 295.659 37.4277L295.165 29.0076L281.165 27.0076Z" fill="#E56E90"/>
<path d="M295.665 37.5076L295.659 37.4277M295.659 37.4277L295.165 29.0076L281.165 27.0076L272.665 28.5076L283.165 32.5076C292.665 33.5076 291.664 35.0076 295.659 37.4277Z" stroke="black" stroke-width="0.5"/>
<path d="M294.167 37.0078C293.667 34.5077 282.667 34.3076 277.167 34.8076" stroke="black" stroke-width="0.5"/>
<path d="M300.167 67.0076L260.667 69.0076C260.167 64.0076 258 59.8409 256.167 58.0076L302.167 55.5076M300.667 53.0076C289.667 51.5076 278.667 46.7076 266.667 40.7076M228.667 31.0076L272.667 28.5076L281.167 27.0076" stroke="black" stroke-width="0.5"/>
<path d="M290.667 41.0076C290.667 39.0076 289.667 35.0076 286.167 33.0076C288.388 33.0076 291.765 34.048 294.276 36.4176C294.74 37.9476 293.667 41.5076 290.625 43.0076C290.612 42.4173 290.667 41.7319 290.667 41.0076Z" fill="#E56E90"/>
<path d="M272.667 43.5076C279.663 43.8574 285.68 43.9624 291.06 44.5076M297.667 45.5076C295.564 45.0569 293.371 44.7417 291.06 44.5076M295.667 38.0076C295.249 37.4224 294.78 36.8932 294.276 36.4176M291.06 44.5076C290.734 44.1628 290.64 43.6398 290.625 43.0076M290.625 43.0076C290.612 42.4173 290.667 41.7319 290.667 41.0076C290.667 39.0076 289.667 35.0076 286.167 33.0076C288.388 33.0076 291.765 34.048 294.276 36.4176M290.625 43.0076C293.667 41.5076 294.74 37.9476 294.276 36.4176" stroke="black" stroke-width="0.5"/>
<path d="M290.667 41.0076C286.167 41.0076 284.167 37.0076 283.167 34.5076" stroke="black" stroke-width="0.5"/>
<path d="M132.665 13.1075C119.165 17.1075 107.165 23.0076 93.165 36.0076C100.165 24.0076 115.665 14.5076 131.165 9.50757L132.665 13.1075Z" fill="#EDADBF" stroke="black" stroke-width="0.5"/>
<path d="M131.165 9.50757C111.165 15.1816 93.165 32.5076 85.165 30.5076C98.165 21.0076 114.165 12.5076 130.665 8.00757L131.165 9.50757Z" fill="#EDADBF" stroke="black" stroke-width="0.5"/>
<path d="M10.1657 48.5076H4.16571C1.66504 52.5076 1.66504 62.5076 2.16571 66.0076C0.665039 67.0076 0.665637 71.5076 1.66571 73.0076L5.66571 73.5076V75.0076L1.66571 77.0076V79.0076C5.66571 80.0076 14.1657 82.0076 22.1657 81.5076V80.0076H39.6657C38.999 71.5076 40.6657 61.0076 49.6657 54.0076C47.1657 50.0076 40.1657 45.5076 37.1657 45.0076C27.1657 44.0076 12.1657 46.5076 10.1657 48.5076Z" fill="#EDADBF" stroke="black" stroke-width="0.5"/>
<path d="M93.167 36.0076C75.3337 36.8409 43.667 41.7076 33.167 44.7076L37.167 45.0076C42.167 46.5076 47.667 50.8409 49.667 54.0076C62.666 44.5076 88.166 51.5076 86.666 79.0076H96.666C89.666 68.0076 90.666 46.0076 93.167 36.0076Z" fill="#EDADBF" stroke="black" stroke-width="0.5"/>
<path d="M10.165 48.5076H4.16504C36.6652 29.0075 58.6653 35.0076 84.665 30.5076L93.6653 36.0076C76.6653 37.0076 47.665 40.5076 33.665 44.7076C25.665 44.5076 11.665 46.5076 10.165 48.5076Z" fill="#EDADBF" stroke="black" stroke-width="0.5"/>
<path d="M37.1665 45.0076C29.6665 44.0076 12.6665 46.0076 10.1665 48.5076C9.36649 50.9076 12.4998 53.8409 14.1665 55.0076C23.6665 56.5076 37.1665 50.5076 37.1665 45.0076Z" fill="#EDADBF" stroke="black" stroke-width="0.5"/>
<path d="M4.16573 48.5076C11.1657 49.5076 5.16573 60.0076 2.16573 65.0076C1.66566 58.0076 2.16553 52.5076 4.16573 48.5076Z" fill="#EDADBF" stroke="black" stroke-width="0.5"/>
<path d="M22.165 84.5076V80.0076H39.665L40.165 84.5076H22.165Z" fill="#EDADBF" stroke="black" stroke-width="0.5"/>
<path d="M2.66699 66.0076C4.16699 68.5076 6.16699 71.6742 5.66699 73.5076M22.167 80.0076C11.667 80.5076 7.16699 76.5076 8.16699 73.0076C8.66699 72.5076 10.167 71.0076 11.167 71.0076" stroke="black" stroke-width="0.5"/>
<path d="M32.167 75.0076C29.667 71.0076 24.167 66.0076 21.167 64.5076C19.4169 64.0076 16.7919 64.1326 14.0418 64.5076C12.4169 65.841 11.167 69.0076 11.667 72.0076C11.667 73.1742 12.9744 75.5076 15.667 75.5076C20.167 75.5076 27.167 76.0076 32.167 75.0076Z" fill="#EDADBF"/>
<path d="M6.16699 66.0076C8.41693 65.5076 11.2918 64.8826 14.0418 64.5076M14.0418 64.5076C16.7919 64.1326 19.4169 64.0076 21.167 64.5076C24.167 66.0076 29.667 71.0076 32.167 75.0076C27.167 76.0076 20.167 75.5076 15.667 75.5076C12.9744 75.5076 11.667 73.1742 11.667 72.0076C11.167 69.0076 12.4168 65.841 14.0418 64.5076Z" stroke="black" stroke-width="0.5"/>
<path d="M11.667 71.5076C19.667 70.0077 23.167 72.6362 26.167 74.1362M13.167 74.5077L30.667 74.0077" stroke="black" stroke-width="0.5"/>
<path d="M22.165 83.0076H31.665C33.665 83.0076 35.165 81.0076 34.665 80.0076M38.165 80.0076V84.5076" stroke="black" stroke-width="0.5"/>
<path d="M22.1669 81.5078C17.6669 81.5078 13.1669 82.0078 1.66694 79.0078V77.0078L5.66694 75.0078V73.5078L1.66694 73.0078C1.16602 71.5076 0.166211 68.5076 2.16621 66.0076C1.66645 58.0076 2.16645 51.5076 4.16694 48.5073C36.6669 29.0077 58.6669 35.0078 84.6669 30.5078C162.667 -24.4924 244.667 12.5076 281.667 27.0077L295.167 29.0076L295.667 36.0076V39.0076C297.165 44.0076 298.5 48.5076 297.167 50.5076C299.667 51.5076 302.167 54.6742 302.167 56.5076L300.167 66.5076C300.619 77.3555 298.211 77.5798 288.879 77.8922C287.888 77.9254 285.819 77.9596 284.667 78.0076V79.5076L259.667 79.9386M22.1669 81.5078V84.5078H40.1653L39.6669 80.0078M22.1669 81.5078V80.0078H39.6669M39.6669 80.0078C36.6669 38.5078 90.1669 41.5078 86.6669 80.5078V83.0076H213.167C207.167 39.5076 261.667 39.5076 259.667 79.9386M259.165 79.9386H259.667" stroke="black"/>
</svg>
