<svg width="303" height="95" viewBox="0 0 303 95" fill="none" xmlns="http://www.w3.org/2000/svg">
<circle cx="62.8853" cy="73.6919" r="20.5" fill="#EFC7D3" stroke="black"/>
<circle cx="235.885" cy="73.6919" r="20.5" fill="#EFC7D3" stroke="black"/>
<path d="M132.884 12.1918L131.384 8.69175C171.384 0.691862 192.884 1.19189 231.884 12.6918L228.384 17.1918C208.384 9.1918 190.384 8.1918 174.384 7.69187C171.884 7.19187 167.884 7.19183 165.384 7.69175C155.384 7.69187 143.384 9.19187 132.884 12.1918Z" fill="#EFC7D3" stroke="black" stroke-width="0.5"/>
<path d="M131.384 8.69194L130.884 7.19194C166.884 -3.80811 199.384 0.191769 234.884 9.19194L231.884 12.6919C191.884 0.191895 165.884 1.69189 131.384 8.69194Z" fill="#EFC7D3" stroke="black" stroke-width="0.5"/>
<path d="M131.384 8.692C182.884 -2.80802 211.384 7.19202 231.884 12.692" stroke="black" stroke-width="0.5"/>
<path d="M170.885 29.6919L174.385 7.69189C207.885 8.69189 219.385 14.1919 223.885 15.6919L226.368 27.6919C199.378 27.6925 181.883 29.192 170.885 29.6919Z" fill="#EFC7D3"/>
<path d="M226.885 30.1919L223.885 15.6919C219.385 14.1919 207.885 8.69189 174.385 7.69189L170.885 29.6919C181.885 29.1919 199.385 27.6919 226.385 27.6919" stroke="black" stroke-width="0.5"/>
<path d="M165.385 7.69189C132.385 8.69189 112.385 17.6919 93.3853 35.1919L95.8853 33.1919L159.885 30.1919L165.385 7.69189Z" fill="#EFC7D3" stroke="black" stroke-width="0.5"/>
<path d="M239.884 22.1919C236.217 19.5252 230.384 17.1919 223.884 15.6919L226.384 27.6919H232.884C235.884 26.1919 238.884 23.9606 239.884 22.1919Z" fill="#EFC7D3" stroke="black" stroke-width="0.5"/>
<path d="M96.8853 78.1919H163.885L198.385 76.6919H212.885L213.385 82.1919H199.385H98.3853H86.8853V78.1919H96.8853Z" fill="#EFC7D3"/>
<path d="M96.8853 78.1919H163.885L198.385 76.6919M96.8853 78.1919C96.8853 79.6919 97.3853 80.6919 98.3853 82.1919M96.8853 78.1919H86.8853V82.1919H98.3853M198.385 76.6919L199.385 82.1919M198.385 76.6919H212.885L213.385 82.1919H199.385M199.385 82.1919H98.3853" stroke="black" stroke-width="0.5"/>
<path d="M96.8844 78.1919C92.3852 73.6919 89.3853 51.6919 93.3844 35.1919L165.385 31.1919C161.385 36.1919 160.385 70.1919 163.885 78.1919H96.8844Z" fill="#EFC7D3" stroke="black" stroke-width="0.5"/>
<path d="M228.885 30.1919L165.385 31.1919C161.385 36.1919 160.385 70.1919 163.885 78.1919L198.385 76.6919C202.885 75.1919 209.385 69.6919 228.885 30.1919Z" fill="#EFC7D3" stroke="black" stroke-width="0.5"/>
<path d="M170.885 29.692C166.385 30.192 162.885 30.192 159.885 30.192L165.385 7.69197C168.385 7.19189 171.385 7.19189 174.385 7.69197L170.885 29.692Z" fill="#EFC7D3" stroke="black" stroke-width="0.5"/>
<path d="M99.3853 31.6922C103.885 37.1922 110.885 33.6922 114.885 32.1922C115.885 16.692 102.885 24.692 99.3853 31.6922Z" fill="#EFC7D3" stroke="black" stroke-width="0.5"/>
<path d="M234.884 9.19189L231.884 12.6919C248.884 18.1919 259.384 21.1919 271.884 27.6919H273.384L281.384 26.1919C266.384 19.6919 258.884 17.1919 234.884 9.19189Z" fill="#EFC7D3" stroke="black" stroke-width="0.5"/>
<path d="M271.884 27.6919C261.384 22.1919 242.384 15.6919 231.884 12.6919L229.884 15.1919L244.884 22.6919C243.384 25.1919 239.384 27.1919 233.384 29.8919C245.384 29.1919 262.384 28.1919 271.884 27.6919Z" fill="#EFC7D3" stroke="black" stroke-width="0.5"/>
<path d="M277.385 33.9919L283.384 31.6919L272.884 27.6919L228.884 30.1919C221.384 45.1919 206.384 75.6919 198.384 76.6919H212.884C211.384 65.6919 220.884 42.1919 245.885 51.1919C256.385 45.6919 266.385 40.1919 277.385 33.9919Z" fill="#EFC7D3" stroke="black" stroke-width="0.5"/>
<path d="M278.384 33.6919C266.384 40.1919 256.384 45.6919 245.884 51.1919C250.384 54.1919 260.884 60.1919 259.884 79.1919L284.884 78.6919V77.1919C293.384 76.1919 301.884 79.6919 300.384 65.6919L302.384 55.6919C302.384 54.1919 299.884 50.1919 297.384 49.6919C298.884 47.1919 295.884 38.1919 295.884 38.1919V36.6919L291.884 33.6919L286.884 32.1919L283.384 31.6919L278.384 33.6919Z" fill="#EFC7D3" stroke="black" stroke-width="0.5"/>
<path d="M281.384 26.1919L272.884 27.6919L283.384 31.6919C292.884 32.6919 291.883 34.1919 295.878 36.6121L295.384 28.1919L281.384 26.1919Z" fill="#EFC7D3"/>
<path d="M295.884 36.6919L295.878 36.6121M295.878 36.6121L295.384 28.1919L281.384 26.1919L272.884 27.6919L283.384 31.6919C292.884 32.6919 291.883 34.1919 295.878 36.6121Z" stroke="black" stroke-width="0.5"/>
<path d="M294.385 36.1921C293.885 33.692 282.885 33.4919 277.385 33.9919" stroke="black" stroke-width="0.5"/>
<path d="M300.385 66.1919L260.885 68.1919C260.385 63.1919 258.219 59.0252 256.385 57.1919L302.385 54.6919M300.885 52.1919C289.885 50.6919 278.885 45.8919 266.885 39.8919M228.885 30.1919L272.885 27.6919L281.385 26.1919" stroke="black" stroke-width="0.5"/>
<path d="M290.885 40.1919C290.885 38.1919 289.885 34.1919 286.385 32.1919C288.606 32.1919 291.983 33.2323 294.494 35.6019C294.958 37.1319 293.885 40.6919 290.843 42.1919C290.83 41.6016 290.885 40.9162 290.885 40.1919Z" fill="#EFC7D3"/>
<path d="M272.885 42.6919C279.881 43.0417 285.898 43.1468 291.278 43.6919M297.885 44.6919C295.782 44.2413 293.589 43.926 291.278 43.6919M295.885 37.1919C295.467 36.6068 294.998 36.0775 294.494 35.6019M291.278 43.6919C290.952 43.3471 290.858 42.8241 290.843 42.1919M290.843 42.1919C290.83 41.6016 290.885 40.9162 290.885 40.1919C290.885 38.1919 289.885 34.1919 286.385 32.1919C288.606 32.1919 291.983 33.2323 294.494 35.6019M290.843 42.1919C293.885 40.6919 294.958 37.1319 294.494 35.6019" stroke="black" stroke-width="0.5"/>
<path d="M290.885 40.1919C286.385 40.1919 284.385 36.1919 283.385 33.6919" stroke="black" stroke-width="0.5"/>
<path d="M132.884 12.2919C119.384 16.2919 107.384 22.1919 93.3838 35.1919C100.384 23.1919 115.884 13.6919 131.384 8.69189L132.884 12.2919Z" fill="#E0426F" stroke="black" stroke-width="0.5"/>
<path d="M131.384 8.69189C111.384 14.3659 93.3838 31.6919 85.3838 29.6919C98.3838 20.1919 114.384 11.6919 130.884 7.19189L131.384 8.69189Z" fill="#E0426F" stroke="black" stroke-width="0.5"/>
<path d="M10.3845 47.6918H4.38446C1.88379 51.6918 1.88379 61.6918 2.38446 65.1918C0.883789 66.1918 0.884387 70.6918 1.88446 72.1918L5.88446 72.6918V74.1918L1.88446 76.1918V78.1918C5.88446 79.1918 14.3845 81.1918 22.3845 80.6918V79.1918H39.8845C39.2178 70.6918 40.8845 60.1918 49.8845 53.1918C47.3845 49.1918 40.3845 44.6918 37.3845 44.1918C27.3845 43.1918 12.3845 45.6918 10.3845 47.6918Z" fill="#E0426F" stroke="black" stroke-width="0.5"/>
<path d="M93.3853 35.1919C75.5519 36.0252 43.8853 40.8919 33.3853 43.8919L37.3853 44.1919C42.3853 45.6919 47.8853 50.0252 49.8853 53.1919C62.8843 43.6919 88.3843 50.6919 86.8843 78.1919H96.8843C89.8843 67.1919 90.8843 45.1919 93.3853 35.1919Z" fill="#E0426F" stroke="black" stroke-width="0.5"/>
<path d="M10.3838 47.6919H4.38379C36.884 28.1918 58.884 34.1919 84.8838 29.6919L93.884 35.1919C76.884 36.1919 47.8838 39.6919 33.8838 43.8919C25.8838 43.6919 11.8838 45.6919 10.3838 47.6919Z" fill="#E0426F" stroke="black" stroke-width="0.5"/>
<path d="M37.3852 44.192C29.8852 43.1919 12.8852 45.1919 10.3852 47.692C9.58524 50.0919 12.7186 53.0252 14.3852 54.1919C23.8853 55.6919 37.3852 49.6919 37.3852 44.192Z" fill="#E0426F" stroke="black" stroke-width="0.5"/>
<path d="M4.38448 47.6919C11.3845 48.6919 5.38448 59.1919 2.38448 64.1919C1.88441 57.1919 2.38428 51.6919 4.38448 47.6919Z" fill="#E0426F" stroke="black" stroke-width="0.5"/>
<path d="M22.3838 83.6919V79.1919H39.8838L40.3838 83.6919H22.3838Z" fill="#E0426F" stroke="black" stroke-width="0.5"/>
<path d="M2.88574 65.1919C4.38574 67.6919 6.38574 70.8586 5.88574 72.6919M22.3857 79.1919C11.8857 79.6919 7.38574 75.6919 8.38574 72.1919C8.88574 71.6919 10.3857 70.1919 11.3857 70.1919" stroke="black" stroke-width="0.5"/>
<path d="M32.3857 74.192C29.8857 70.192 24.3857 65.1921 21.3857 63.6921C19.6357 63.1921 17.0106 63.3171 14.2605 63.6921C12.6356 65.0254 11.3857 68.192 11.8857 71.192C11.8857 72.3587 13.1932 74.692 15.8857 74.692C20.3857 74.692 27.3857 75.192 32.3857 74.192Z" fill="#E0426F"/>
<path d="M6.38574 65.1921C8.63568 64.6921 11.5106 64.0671 14.2605 63.6921M14.2605 63.6921C17.0106 63.3171 19.6357 63.1921 21.3857 63.6921C24.3857 65.1921 29.8857 70.192 32.3857 74.192C27.3857 75.192 20.3857 74.692 15.8857 74.692C13.1932 74.692 11.8857 72.3587 11.8857 71.192C11.3857 68.192 12.6356 65.0254 14.2605 63.6921Z" stroke="black" stroke-width="0.5"/>
<path d="M11.8857 70.6921C19.8857 69.1921 23.3857 71.8206 26.3857 73.3206M13.3857 73.6921L30.8857 73.1921" stroke="black" stroke-width="0.5"/>
<path d="M22.3838 82.1919H31.8838C33.8838 82.1919 35.3838 80.1919 34.8838 79.1919M38.3838 79.1919V83.6919" stroke="black" stroke-width="0.5"/>
<path d="M22.3852 80.6921C17.8852 80.6921 13.3852 81.1921 1.8852 78.1921V76.1921L5.8852 74.1921V72.6921L1.8852 72.1921C1.38428 70.6919 0.384473 67.6919 2.38447 65.1919C1.88471 57.1919 2.38471 50.6919 4.3852 47.6916C36.8852 28.192 58.8852 34.1921 84.8852 29.6921C162.885 -25.308 244.885 11.6919 281.885 26.1921L295.385 28.1919L295.885 35.1919V38.1919C297.384 43.1919 298.719 47.6919 297.385 49.6919C299.885 50.6919 302.385 53.8586 302.385 55.6919L300.385 65.6919C300.837 76.5398 298.429 76.7641 289.098 77.0765C288.106 77.1097 286.037 77.1439 284.885 77.1919V78.6919L259.885 79.1229M22.3852 80.6921V83.6921H40.3835L39.8852 79.1921M22.3852 80.6921V79.1921H39.8852M39.8852 79.1921C36.8852 37.6921 90.3852 40.6921 86.8852 79.6921V82.1919H213.385C207.385 38.6919 261.885 38.6919 259.885 79.1229M259.384 79.1229H259.885" stroke="black"/>
</svg>
