<svg width="303" height="96" viewBox="0 0 303 96" fill="none" xmlns="http://www.w3.org/2000/svg">
<circle cx="62.8545" cy="74.1995" r="20.5" fill="#EFC7D3" stroke="black"/>
<circle cx="235.854" cy="74.1995" r="20.5" fill="#EFC7D3" stroke="black"/>
<path d="M132.853 12.6993L131.353 9.19932C171.353 1.19943 192.853 1.69946 231.853 13.1994L228.353 17.6994C208.353 9.69937 190.353 8.69937 174.353 8.19944C171.853 7.69944 167.853 7.6994 165.353 8.19932C155.353 8.19944 143.353 9.69944 132.853 12.6993Z" fill="#EDADBF" stroke="black" stroke-width="0.5"/>
<path d="M131.353 9.19951L130.853 7.69951C166.853 -3.30054 199.353 0.699337 234.853 9.69951L231.853 13.1995C191.853 0.699463 165.853 2.19946 131.353 9.19951Z" fill="#EDADBF" stroke="black" stroke-width="0.5"/>
<path d="M131.353 9.19933C182.853 -2.3007 211.353 7.69934 231.853 13.1993" stroke="black" stroke-width="0.5"/>
<path d="M170.854 30.1995L174.354 8.19946C207.854 9.19946 219.354 14.6995 223.854 16.1995L226.337 28.1995C199.347 28.2001 181.852 29.6996 170.854 30.1995Z" fill="#EDADBF"/>
<path d="M226.854 30.6995L223.854 16.1995C219.354 14.6995 207.854 9.19946 174.354 8.19946L170.854 30.1995C181.854 29.6995 199.354 28.1995 226.354 28.1995" stroke="black" stroke-width="0.5"/>
<path d="M165.354 8.19946C132.354 9.19946 112.354 18.1995 93.3545 35.6995L95.8545 33.6995L159.854 30.6995L165.354 8.19946Z" fill="#EDADBF" stroke="black" stroke-width="0.5"/>
<path d="M239.853 22.6995C236.186 20.0328 230.353 17.6995 223.853 16.1995L226.353 28.1995H232.853C235.853 26.6995 238.853 24.4682 239.853 22.6995Z" fill="#EDADBF" stroke="black" stroke-width="0.5"/>
<path d="M96.8545 78.6995H163.854L198.354 77.1995H212.854L213.354 82.6995H199.354H98.3545H86.8545V78.6995H96.8545Z" fill="#EDADBF"/>
<path d="M96.8545 78.6995H163.854L198.354 77.1995M96.8545 78.6995C96.8545 80.1995 97.3545 81.1995 98.3545 82.6995M96.8545 78.6995H86.8545V82.6995H98.3545M198.354 77.1995L199.354 82.6995M198.354 77.1995H212.854L213.354 82.6995H199.354M199.354 82.6995H98.3545" stroke="black" stroke-width="0.5"/>
<path d="M96.8536 78.6995C92.3545 74.1995 89.3545 52.1995 93.3536 35.6995L165.354 31.6995C161.354 36.6995 160.354 70.6995 163.854 78.6995H96.8536Z" fill="#EDADBF" stroke="black" stroke-width="0.5"/>
<path d="M228.854 30.6995L165.354 31.6995C161.355 36.6995 160.355 70.6995 163.854 78.6995L198.354 77.1995C202.854 75.6995 209.354 70.1995 228.854 30.6995Z" fill="#EDADBF" stroke="black" stroke-width="0.5"/>
<path d="M170.854 30.1995C166.354 30.6995 162.854 30.6995 159.854 30.6995L165.354 8.19954C168.354 7.69946 171.354 7.69946 174.354 8.19954L170.854 30.1995Z" fill="#EDADBF" stroke="black" stroke-width="0.5"/>
<path d="M99.3545 32.1995C103.854 37.6995 110.854 34.1995 114.854 32.6995C115.854 17.1994 102.854 25.1993 99.3545 32.1995Z" fill="#EDADBF" stroke="black" stroke-width="0.5"/>
<path d="M234.853 9.69946L231.853 13.1995C248.853 18.6995 259.353 21.6995 271.853 28.1995H273.353L281.353 26.6995C266.353 20.1995 258.853 17.6995 234.853 9.69946Z" fill="#E0426F" stroke="black" stroke-width="0.5"/>
<path d="M271.853 28.1995C261.353 22.6995 242.353 16.1995 231.853 13.1995L229.853 15.6995L244.853 23.1995C243.353 25.6995 239.353 27.6995 233.353 30.3995C245.353 29.6995 262.353 28.6995 271.853 28.1995Z" fill="#E0426F" stroke="black" stroke-width="0.5"/>
<path d="M277.354 34.4995L283.353 32.1995L272.854 28.1995L228.854 30.6995C221.354 45.6995 206.354 76.1995 198.354 77.1995H212.854C211.354 66.1995 220.854 42.6995 245.854 51.6995C256.354 46.1995 266.354 40.6995 277.354 34.4995Z" fill="#E0426F" stroke="black" stroke-width="0.5"/>
<path d="M278.353 34.1995C266.353 40.6995 256.353 46.1995 245.853 51.6995C250.353 54.6995 260.853 60.6995 259.853 79.6995L284.853 79.1995V77.6995C293.353 76.6995 301.853 80.1995 300.353 66.1995L302.353 56.1995C302.353 54.6995 299.853 50.6995 297.353 50.1995C298.853 47.6995 295.853 38.6995 295.853 38.6995V37.1995L291.853 34.1995L286.853 32.6995L283.353 32.1995L278.353 34.1995Z" fill="#E0426F" stroke="black" stroke-width="0.5"/>
<path d="M281.353 26.6995L272.853 28.1995L283.353 32.1995C292.853 33.1995 291.851 34.6995 295.847 37.1196L295.353 28.6995L281.353 26.6995Z" fill="#E0426F"/>
<path d="M295.853 37.1995L295.847 37.1196M295.847 37.1196L295.353 28.6995L281.353 26.6995L272.853 28.1995L283.353 32.1995C292.853 33.1995 291.851 34.6995 295.847 37.1196Z" stroke="black" stroke-width="0.5"/>
<path d="M294.354 36.6997C293.854 34.1996 282.854 33.9995 277.354 34.4995" stroke="black" stroke-width="0.5"/>
<path d="M300.354 66.6995L260.854 68.6995C260.354 63.6995 258.188 59.5328 256.354 57.6995L302.354 55.1995M300.854 52.6995C289.854 51.1995 278.854 46.3995 266.854 40.3995M228.854 30.6995L272.854 28.1995L281.354 26.6995" stroke="black" stroke-width="0.5"/>
<path d="M290.854 40.6995C290.854 38.6995 289.854 34.6995 286.354 32.6995C288.575 32.6995 291.952 33.7399 294.463 36.1094C294.927 37.6395 293.854 41.1995 290.813 42.6995C290.799 42.1092 290.854 41.4238 290.854 40.6995Z" fill="#E0426F"/>
<path d="M272.854 43.1995C279.85 43.5492 285.867 43.6543 291.248 44.1995M297.854 45.1995C295.751 44.7488 293.558 44.4336 291.248 44.1995M295.854 37.6995C295.437 37.1143 294.967 36.5851 294.463 36.1094M291.248 44.1995C290.921 43.8547 290.827 43.3317 290.813 42.6995M290.813 42.6995C290.799 42.1092 290.854 41.4238 290.854 40.6995C290.854 38.6995 289.854 34.6995 286.354 32.6995C288.575 32.6995 291.952 33.7399 294.463 36.1094M290.813 42.6995C293.854 41.1995 294.927 37.6395 294.463 36.1094" stroke="black" stroke-width="0.5"/>
<path d="M290.854 40.6995C286.354 40.6995 284.354 36.6995 283.354 34.1995" stroke="black" stroke-width="0.5"/>
<path d="M132.853 12.7994C119.353 16.7994 107.353 22.6995 93.3525 35.6995C100.353 23.6995 115.853 14.1995 131.353 9.19946L132.853 12.7994Z" fill="#EDADBF" stroke="black" stroke-width="0.5"/>
<path d="M131.353 9.19946C111.353 14.8735 93.3525 32.1995 85.3525 30.1995C98.3525 20.6995 114.353 12.1995 130.853 7.69946L131.353 9.19946Z" fill="#EDADBF" stroke="black" stroke-width="0.5"/>
<path d="M10.3532 48.1993H4.35321C1.85254 52.1993 1.85254 62.1993 2.35321 65.6993C0.852539 66.6993 0.853137 71.1993 1.85321 72.6993L5.85321 73.1993V74.6993L1.85321 76.6993V78.6993C5.85321 79.6993 14.3532 81.6993 22.3532 81.1993V79.6993H39.8532C39.1865 71.1993 40.8532 60.6993 49.8532 53.6993C47.3532 49.6993 40.3532 45.1993 37.3532 44.6993C27.3532 43.6993 12.3532 46.1993 10.3532 48.1993Z" fill="#EDADBF" stroke="black" stroke-width="0.5"/>
<path d="M93.3545 35.6995C75.5212 36.5328 43.8545 41.3995 33.3545 44.3995L37.3545 44.6995C42.3545 46.1995 47.8545 50.5328 49.8545 53.6995C62.8535 44.1995 88.3535 51.1995 86.8535 78.6995H96.8535C89.8535 67.6995 90.8535 45.6995 93.3545 35.6995Z" fill="#EDADBF" stroke="black" stroke-width="0.5"/>
<path d="M10.3525 48.1995H4.35254C36.8527 28.6994 58.8528 34.6995 84.8525 30.1995L93.8528 35.6995C76.8528 36.6995 47.8525 40.1995 33.8525 44.3995C25.8525 44.1995 11.8525 46.1995 10.3525 48.1995Z" fill="#EDADBF" stroke="black" stroke-width="0.5"/>
<path d="M37.354 44.6995C29.854 43.6995 12.854 45.6995 10.354 48.1995C9.55399 50.5995 12.6873 53.5328 14.354 54.6995C23.854 56.1995 37.354 50.1995 37.354 44.6995Z" fill="#EDADBF" stroke="black" stroke-width="0.5"/>
<path d="M4.35323 48.1995C11.3532 49.1995 5.35323 59.6995 2.35323 64.6995C1.85316 57.6995 2.35303 52.1995 4.35323 48.1995Z" fill="#EDADBF" stroke="black" stroke-width="0.5"/>
<path d="M22.3525 84.1995V79.6995H39.8525L40.3525 84.1995H22.3525Z" fill="#EDADBF" stroke="black" stroke-width="0.5"/>
<path d="M2.85449 65.6992C4.35449 68.1992 6.35449 71.3659 5.85449 73.1992M22.3545 79.6992C11.8545 80.1992 7.35449 76.1992 8.35449 72.6992C8.85449 72.1992 10.3545 70.6992 11.3545 70.6992" stroke="black" stroke-width="0.5"/>
<path d="M32.3545 74.6993C29.8545 70.6993 24.3545 65.6994 21.3545 64.1994C19.6044 63.6994 16.9794 63.8244 14.2293 64.1994C12.6044 65.5327 11.3545 68.6993 11.8545 71.6993C11.8545 72.866 13.1619 75.1993 15.8545 75.1993C20.3545 75.1993 27.3545 75.6993 32.3545 74.6993Z" fill="#EDADBF"/>
<path d="M6.35449 65.6994C8.60443 65.1994 11.4793 64.5744 14.2293 64.1994M14.2293 64.1994C16.9794 63.8244 19.6044 63.6994 21.3545 64.1994C24.3545 65.6994 29.8545 70.6993 32.3545 74.6993C27.3545 75.6993 20.3545 75.1993 15.8545 75.1993C13.1619 75.1993 11.8545 72.866 11.8545 71.6993C11.3545 68.6993 12.6043 65.5327 14.2293 64.1994Z" stroke="black" stroke-width="0.5"/>
<path d="M11.8545 71.1994C19.8545 69.6995 23.3545 72.3279 26.3545 73.8279M13.3545 74.1995L30.8545 73.6995" stroke="black" stroke-width="0.5"/>
<path d="M22.3525 82.6992H31.8525C33.8525 82.6992 35.3525 80.6992 34.8525 79.6992M38.3525 79.6992V84.1992" stroke="black" stroke-width="0.5"/>
<path d="M22.3544 81.1997C17.8544 81.1997 13.3544 81.6997 1.85444 78.6997V76.6997L5.85444 74.6997V73.1997L1.85444 72.6997C1.35352 71.1995 0.353711 68.1995 2.35371 65.6995C1.85395 57.6995 2.35395 51.1995 4.35444 48.1992C36.8544 28.6996 58.8544 34.6997 84.8544 30.1997C162.854 -24.8005 244.854 12.1994 281.854 26.6996L295.354 28.6995L295.854 35.6995V38.6995C297.353 43.6995 298.688 48.1995 297.354 50.1995C299.854 51.1995 302.354 54.3661 302.354 56.1995L300.354 66.1995C300.806 77.0474 298.398 77.2717 289.067 77.5841C288.076 77.6173 286.007 77.6515 284.854 77.6995V79.1995L259.854 79.6305M22.3544 81.1997V84.1997H40.3528L39.8544 79.6997M22.3544 81.1997V79.6997H39.8544M39.8544 79.6997C36.8544 38.1997 90.3544 41.1997 86.8544 80.1997V82.6995H213.354C207.354 39.1995 261.854 39.1995 259.854 79.6305M259.353 79.6305H259.854" stroke="black"/>
</svg>
