<svg width="303" height="95" viewBox="0 0 303 95" fill="none" xmlns="http://www.w3.org/2000/svg">
<circle cx="62.4897" cy="73.7222" r="20.5" fill="#E0426F" stroke="black"/>
<circle cx="235.49" cy="73.7222" r="20.5" fill="#E0426F" stroke="black"/>
<path d="M132.488 12.222L130.988 8.72202C170.988 0.722136 192.488 1.22217 231.488 12.7221L227.988 17.2221C207.988 9.22208 189.988 8.22208 173.988 7.72215C171.488 7.22215 167.488 7.22211 164.988 7.72202C154.988 7.72215 142.988 9.22215 132.488 12.222Z" fill="#E0426F" stroke="black" stroke-width="0.5"/>
<path d="M130.988 8.72221L130.488 7.22221C166.488 -3.77783 198.988 0.222042 234.488 9.22221L231.488 12.7222C191.488 0.222168 165.488 1.72217 130.988 8.72221Z" fill="#E0426F" stroke="black" stroke-width="0.5"/>
<path d="M130.988 8.72228C182.488 -2.77775 210.988 7.22229 231.488 12.7223" stroke="black" stroke-width="0.5"/>
<path d="M170.49 29.7222L173.99 7.72217C207.49 8.72217 218.99 14.2222 223.49 15.7222L225.973 27.7222C198.982 27.7228 181.487 29.2223 170.49 29.7222Z" fill="#E0426F"/>
<path d="M226.49 30.2222L223.49 15.7222C218.99 14.2222 207.49 8.72217 173.99 7.72217L170.49 29.7222C181.49 29.2222 198.99 27.7222 225.99 27.7222" stroke="black" stroke-width="0.5"/>
<path d="M164.99 7.72217C131.99 8.72217 111.99 17.7222 92.9897 35.2222L95.4897 33.2222L159.49 30.2222L164.99 7.72217Z" fill="#E0426F" stroke="black" stroke-width="0.5"/>
<path d="M239.488 22.2222C235.822 19.5555 229.988 17.2222 223.488 15.7222L225.988 27.7222H232.488C235.488 26.2222 238.488 23.9909 239.488 22.2222Z" fill="#E0426F" stroke="black" stroke-width="0.5"/>
<path d="M96.4897 78.2222H163.49L197.99 76.7222H212.49L212.99 82.2222H198.99H97.9897H86.4897V78.2222H96.4897Z" fill="#E0426F"/>
<path d="M96.4897 78.2222H163.49L197.99 76.7222M96.4897 78.2222C96.4897 79.7222 96.9897 80.7222 97.9897 82.2222M96.4897 78.2222H86.4897V82.2222H97.9897M197.99 76.7222L198.99 82.2222M197.99 76.7222H212.49L212.99 82.2222H198.99M198.99 82.2222H97.9897" stroke="black" stroke-width="0.5"/>
<path d="M96.4889 78.2222C91.9897 73.7222 88.9898 51.7222 92.9889 35.2222L164.99 31.2222C160.99 36.2222 159.99 70.2222 163.49 78.2222H96.4889Z" fill="#E0426F" stroke="black" stroke-width="0.5"/>
<path d="M228.489 30.2222L164.989 31.2222C160.989 36.2222 159.99 70.2222 163.489 78.2222L197.989 76.7222C202.489 75.2222 208.989 69.7222 228.489 30.2222Z" fill="#E0426F" stroke="black" stroke-width="0.5"/>
<path d="M170.49 29.7222C165.99 30.2222 162.49 30.2222 159.49 30.2222L164.99 7.72224C167.99 7.22217 170.99 7.22217 173.99 7.72224L170.49 29.7222Z" fill="#E0426F" stroke="black" stroke-width="0.5"/>
<path d="M98.9897 31.7224C103.49 37.2224 110.49 33.7224 114.49 32.2224C115.49 16.7223 102.49 24.7223 98.9897 31.7224Z" fill="#E0426F" stroke="black" stroke-width="0.5"/>
<path d="M234.488 9.22217L231.488 12.7222C248.488 18.2222 258.988 21.2222 271.488 27.7222H272.988L280.988 26.2222C265.988 19.7222 258.488 17.2222 234.488 9.22217Z" stroke="black" stroke-width="0.5"/>
<path d="M271.488 27.7222C260.988 22.2222 241.988 15.7222 231.488 12.7222L229.488 15.2222L244.488 22.7222C242.988 25.2222 238.988 27.2222 232.988 29.9222C244.988 29.2222 261.988 28.2222 271.488 27.7222Z" stroke="black" stroke-width="0.5"/>
<path d="M276.99 34.0222L282.988 31.7222L272.489 27.7222L228.489 30.2222C220.989 45.2222 205.989 75.7222 197.989 76.7222H212.489C210.989 65.7222 220.489 42.2222 245.49 51.2222C255.99 45.7222 265.99 40.2222 276.99 34.0222Z" stroke="black" stroke-width="0.5"/>
<path d="M277.988 33.7222C265.988 40.2222 255.988 45.7222 245.488 51.2222C249.988 54.2222 260.488 60.2222 259.488 79.2222L284.488 78.7222V77.2222C292.988 76.2222 301.488 79.7222 299.988 65.7222L301.988 55.7222C301.988 54.2222 299.488 50.2222 296.988 49.7222C298.488 47.2222 295.488 38.2222 295.488 38.2222V36.7222L291.488 33.7222L286.488 32.2222L282.988 31.7222L277.988 33.7222Z" stroke="black" stroke-width="0.5"/>
<path d="M295.488 36.7222L295.482 36.6423M295.482 36.6423L294.988 28.2222L280.988 26.2222L272.488 27.7222L282.988 31.7222C292.488 32.7222 291.487 34.2222 295.482 36.6423Z" stroke="black" stroke-width="0.5"/>
<path d="M293.99 36.2224C293.49 33.7223 282.49 33.5222 276.99 34.0222" stroke="black" stroke-width="0.5"/>
<path d="M299.99 66.2222L260.49 68.2222C259.99 63.2222 257.823 59.0555 255.99 57.2222L301.99 54.7222M300.49 52.2222C289.49 50.7222 278.49 45.9222 266.49 39.9222M228.49 30.2222L272.49 27.7222L280.99 26.2222" stroke="black" stroke-width="0.5"/>
<path d="M272.49 42.7222C279.485 43.072 285.502 43.177 290.883 43.7222M297.49 44.7222C295.387 44.2715 293.194 43.9563 290.883 43.7222M295.49 37.2222C295.072 36.637 294.603 36.1078 294.099 35.6322M290.883 43.7222C290.557 43.3774 290.463 42.8544 290.448 42.2222M290.448 42.2222C290.434 41.6319 290.49 40.9465 290.49 40.2222C290.49 38.2222 289.49 34.2222 285.99 32.2222C288.211 32.2222 291.587 33.2626 294.099 35.6322M290.448 42.2222C293.49 40.7222 294.562 37.1622 294.099 35.6322" stroke="black" stroke-width="0.5"/>
<path d="M290.49 40.2222C285.99 40.2222 283.99 36.2222 282.99 33.7222" stroke="black" stroke-width="0.5"/>
<path d="M132.488 12.3221C118.988 16.3221 106.988 22.2222 92.9883 35.2222C99.9883 23.2222 115.488 13.7222 130.988 8.72217L132.488 12.3221Z" fill="#EFC7D3" stroke="black" stroke-width="0.5"/>
<path d="M130.988 8.72217C110.988 14.3962 92.9883 31.7222 84.9883 29.7222C97.9883 20.2222 113.988 11.7222 130.488 7.22217L130.988 8.72217Z" fill="#EFC7D3" stroke="black" stroke-width="0.5"/>
<path d="M9.98895 47.7221H3.98895C1.48828 51.722 1.48828 61.722 1.98895 65.222C0.488281 66.222 0.488879 70.722 1.48895 72.222L5.48895 72.722V74.222L1.48895 76.222V78.222C5.48895 79.222 13.9889 81.222 21.9889 80.722V79.222H39.4889C38.8223 70.722 40.4889 60.222 49.4889 53.222C46.9889 49.222 39.9889 44.722 36.9889 44.2221C26.9889 43.222 11.9889 45.7221 9.98895 47.7221Z" fill="#EFC7D3" stroke="black" stroke-width="0.5"/>
<path d="M92.9897 35.2222C75.1564 36.0555 43.4897 40.9222 32.9897 43.9222L36.9897 44.2222C41.9897 45.7222 47.4897 50.0555 49.4897 53.2222C62.4888 43.7222 87.9888 50.7222 86.4888 78.2222H96.4888C89.4888 67.2222 90.4888 45.2222 92.9897 35.2222Z" fill="#EFC7D3" stroke="black" stroke-width="0.5"/>
<path d="M9.98828 47.7222H3.98828C36.4885 28.2221 58.4885 34.2222 84.4883 29.7222L93.4885 35.2222C76.4885 36.2222 47.4883 39.7222 33.4883 43.9222C25.4883 43.7222 11.4883 45.7222 9.98828 47.7222Z" fill="#EFC7D3" stroke="black" stroke-width="0.5"/>
<path d="M36.9897 44.2222C29.4897 43.2222 12.4897 45.2222 9.98974 47.7222C9.18974 50.1222 12.3231 53.0555 13.9897 54.2222C23.4897 55.7222 36.9897 49.7222 36.9897 44.2222Z" fill="#EFC7D3" stroke="black" stroke-width="0.5"/>
<path d="M3.98898 47.7222C10.989 48.7222 4.98898 59.2222 1.98898 64.2222C1.48891 57.2222 1.98877 51.7222 3.98898 47.7222Z" fill="#EFC7D3" stroke="black" stroke-width="0.5"/>
<path d="M21.9883 83.7222V79.2222H39.4883L39.9883 83.7222H21.9883Z" fill="#EFC7D3" stroke="black" stroke-width="0.5"/>
<path d="M2.49023 65.2222C3.99023 67.7222 5.99023 70.8888 5.49023 72.7222M21.9902 79.2222C11.4902 79.7222 6.99023 75.7222 7.99023 72.2222C8.49023 71.7222 9.99023 70.2222 10.9902 70.2222" stroke="black" stroke-width="0.5"/>
<path d="M31.9902 74.2223C29.4902 70.2223 23.9902 65.2224 20.9902 63.7224C19.2402 63.2224 16.6151 63.3474 13.865 63.7224C12.2401 65.0557 10.9902 68.2223 11.4902 71.2223C11.4902 72.389 12.7977 74.7223 15.4902 74.7223C19.9902 74.7223 26.9902 75.2223 31.9902 74.2223Z" fill="#EFC7D3"/>
<path d="M5.99023 65.2224C8.24018 64.7223 11.1151 64.0974 13.865 63.7224M13.865 63.7224C16.6151 63.3474 19.2402 63.2224 20.9902 63.7224C23.9902 65.2224 29.4902 70.2223 31.9902 74.2223C26.9902 75.2223 19.9902 74.7223 15.4902 74.7223C12.7977 74.7223 11.4902 72.389 11.4902 71.2223C10.9902 68.2223 12.2401 65.0557 13.865 63.7224Z" stroke="black" stroke-width="0.5"/>
<path d="M11.4902 70.7224C19.4902 69.2224 22.9902 71.8509 25.9902 73.3509M12.9902 73.7224L30.4902 73.2224" stroke="black" stroke-width="0.5"/>
<path d="M21.9883 82.2222H31.4883C33.4883 82.2222 34.9883 80.2222 34.4883 79.2222M37.9883 79.2222V83.7222" stroke="black" stroke-width="0.5"/>
<path d="M21.9897 80.7224C17.4897 80.7224 12.9897 81.2224 1.48969 78.2224V76.2224L5.48969 74.2224V72.7224L1.48969 72.2224C0.98877 70.7222 -0.0110346 67.7222 1.98896 65.2222C1.4892 57.2222 1.9892 50.7222 3.98969 47.7219C36.4897 28.2223 58.4897 34.2224 84.4897 29.7224C162.49 -25.2778 244.49 11.7222 281.49 26.2223L294.99 28.2222L295.49 35.2222V38.2222C296.988 43.2222 298.323 47.7222 296.99 49.7222C299.49 50.7222 301.99 53.8888 301.99 55.7222L299.99 65.7222C300.442 76.5701 298.034 76.7944 288.702 77.1068C287.711 77.14 285.642 77.1742 284.49 77.2222V78.7222L259.49 79.1532M21.9897 80.7224V83.7224H39.988L39.4897 79.2224M21.9897 80.7224V79.2224H39.4897M39.4897 79.2224C36.4897 37.7224 89.9897 40.7224 86.4897 79.7224V82.2222H212.99C206.99 38.7222 261.49 38.7222 259.49 79.1532M258.988 79.1532H259.49" stroke="black"/>
</svg>
