<svg width="303" height="96" viewBox="0 0 303 96" fill="none" xmlns="http://www.w3.org/2000/svg">
<circle cx="62.2607" cy="74.3535" r="20.5" fill="#E56E90" stroke="black"/>
<circle cx="235.261" cy="74.3535" r="20.5" fill="#E56E90" stroke="black"/>
<path d="M132.259 12.8534L130.759 9.35337C170.759 1.35348 192.259 1.85352 231.259 13.3535L227.759 17.8535C207.759 9.85343 189.759 8.85342 173.759 8.35349C171.259 7.85349 167.259 7.85345 164.759 8.35337C154.759 8.35349 142.759 9.85349 132.259 12.8534Z" fill="#EFC7D3" stroke="black" stroke-width="0.5"/>
<path d="M130.759 9.35356L130.259 7.85356C166.259 -3.14648 198.759 0.85339 234.259 9.85356L231.259 13.3536C191.259 0.853516 165.259 2.35352 130.759 9.35356Z" fill="#EFC7D3" stroke="black" stroke-width="0.5"/>
<path d="M130.759 9.3535C182.259 -2.14652 210.759 7.85352 231.259 13.3535" stroke="black" stroke-width="0.5"/>
<path d="M170.261 30.3535L173.761 8.35352C207.261 9.35352 218.761 14.8535 223.261 16.3535L225.743 28.3535C198.753 28.3542 181.258 29.8536 170.261 30.3535Z" fill="#EFC7D3"/>
<path d="M226.261 30.8535L223.261 16.3535C218.761 14.8535 207.261 9.35352 173.761 8.35352L170.261 30.3535C181.261 29.8535 198.761 28.3535 225.761 28.3535" stroke="black" stroke-width="0.5"/>
<path d="M164.761 8.35352C131.761 9.35352 111.761 18.3535 92.7607 35.8535L95.2607 33.8535L159.261 30.8535L164.761 8.35352Z" fill="#EFC7D3" stroke="black" stroke-width="0.5"/>
<path d="M239.259 22.8535C235.592 20.1868 229.759 17.8535 223.259 16.3535L225.759 28.3535H232.259C235.259 26.8535 238.259 24.6223 239.259 22.8535Z" fill="#EFC7D3" stroke="black" stroke-width="0.5"/>
<path d="M96.2607 78.8535H163.261L197.761 77.3535H212.261L212.761 82.8535H198.761H97.7607H86.2607V78.8535H96.2607Z" fill="#EFC7D3"/>
<path d="M96.2607 78.8535H163.261L197.761 77.3535M96.2607 78.8535C96.2607 80.3535 96.7607 81.3535 97.7607 82.8535M96.2607 78.8535H86.2607V82.8535H97.7607M197.761 77.3535L198.761 82.8535M197.761 77.3535H212.261L212.761 82.8535H198.761M198.761 82.8535H97.7607" stroke="black" stroke-width="0.5"/>
<path d="M96.2599 78.8535C91.7607 74.3535 88.7608 52.3535 92.7599 35.8535L164.761 31.8535C160.761 36.8535 159.761 70.8535 163.261 78.8535H96.2599Z" fill="#EFC7D3" stroke="black" stroke-width="0.5"/>
<path d="M228.261 30.8535L164.761 31.8535C160.761 36.8535 159.761 70.8535 163.261 78.8535L197.761 77.3535C202.261 75.8535 208.761 70.3535 228.261 30.8535Z" fill="#EFC7D3" stroke="black" stroke-width="0.5"/>
<path d="M170.261 30.3536C165.761 30.8536 162.261 30.8536 159.261 30.8536L164.761 8.35359C167.761 7.85352 170.761 7.85352 173.761 8.35359L170.261 30.3536Z" fill="#EFC7D3" stroke="black" stroke-width="0.5"/>
<path d="M98.7607 32.3537C103.261 37.8537 110.261 34.3537 114.261 32.8537C115.261 17.3535 102.261 25.3535 98.7607 32.3537Z" fill="#EFC7D3" stroke="black" stroke-width="0.5"/>
<path d="M234.259 9.85352L231.259 13.3535C248.259 18.8535 258.759 21.8535 271.259 28.3535H272.759L280.759 26.8535C265.759 20.3535 258.259 17.8535 234.259 9.85352Z" fill="#E56E90" stroke="black" stroke-width="0.5"/>
<path d="M271.259 28.3535C260.759 22.8535 241.759 16.3535 231.259 13.3535L229.259 15.8535L244.259 23.3535C242.759 25.8535 238.759 27.8535 232.759 30.5535C244.759 29.8535 261.759 28.8535 271.259 28.3535Z" fill="#E56E90" stroke="black" stroke-width="0.5"/>
<path d="M276.761 34.6535L282.759 32.3535L272.26 28.3535L228.26 30.8535C220.76 45.8535 205.76 76.3535 197.76 77.3535H212.26C210.76 66.3535 220.26 42.8535 245.261 51.8535C255.761 46.3535 265.761 40.8535 276.761 34.6535Z" fill="#E56E90" stroke="black" stroke-width="0.5"/>
<path d="M277.759 34.3535C265.759 40.8535 255.759 46.3535 245.259 51.8535C249.759 54.8535 260.259 60.8535 259.259 79.8535L284.259 79.3535V77.8535C292.759 76.8535 301.259 80.3535 299.759 66.3535L301.759 56.3535C301.759 54.8535 299.259 50.8535 296.759 50.3535C298.259 47.8535 295.259 38.8535 295.259 38.8535V37.3535L291.259 34.3535L286.259 32.8535L282.759 32.3535L277.759 34.3535Z" fill="#E56E90" stroke="black" stroke-width="0.5"/>
<path d="M280.759 26.8535L272.259 28.3535L282.759 32.3535C292.259 33.3535 291.258 34.8535 295.253 37.2737L294.759 28.8535L280.759 26.8535Z" fill="#E56E90"/>
<path d="M295.259 37.3535L295.253 37.2737M295.253 37.2737L294.759 28.8535L280.759 26.8535L272.259 28.3535L282.759 32.3535C292.259 33.3535 291.258 34.8535 295.253 37.2737Z" stroke="black" stroke-width="0.5"/>
<path d="M293.761 36.8537C293.261 34.3536 282.261 34.1535 276.761 34.6535" stroke="black" stroke-width="0.5"/>
<path d="M299.761 66.8535L260.261 68.8535C259.761 63.8535 257.594 59.6868 255.761 57.8535L301.761 55.3535M300.261 52.8535C289.261 51.3535 278.261 46.5535 266.261 40.5535M228.261 30.8535L272.261 28.3535L280.761 26.8535" stroke="black" stroke-width="0.5"/>
<path d="M290.261 40.8535C290.261 38.8535 289.261 34.8535 285.761 32.8535C287.982 32.8535 291.358 33.8939 293.87 36.2635C294.333 37.7935 293.261 41.3535 290.219 42.8535C290.205 42.2632 290.261 41.5778 290.261 40.8535Z" fill="#E56E90"/>
<path d="M272.261 43.3535C279.256 43.7033 285.273 43.8084 290.654 44.3535M297.261 45.3535C295.158 44.9029 292.964 44.5876 290.654 44.3535M295.261 37.8535C294.843 37.2684 294.374 36.7392 293.87 36.2635M290.654 44.3535C290.328 44.0088 290.234 43.4857 290.219 42.8535M290.219 42.8535C290.205 42.2632 290.261 41.5778 290.261 40.8535C290.261 38.8535 289.261 34.8535 285.761 32.8535C287.982 32.8535 291.358 33.8939 293.87 36.2635M290.219 42.8535C293.261 41.3535 294.333 37.7935 293.87 36.2635" stroke="black" stroke-width="0.5"/>
<path d="M290.261 40.8535C285.761 40.8535 283.761 36.8535 282.761 34.3535" stroke="black" stroke-width="0.5"/>
<path d="M132.259 12.9535C118.759 16.9535 106.759 22.8535 92.7588 35.8535C99.7588 23.8535 115.259 14.3535 130.759 9.35352L132.259 12.9535Z" fill="#EDADBF" stroke="black" stroke-width="0.5"/>
<path d="M130.759 9.35352C110.759 15.0276 92.7588 32.3535 84.7588 30.3535C97.7588 20.8535 113.759 12.3535 130.259 7.85352L130.759 9.35352Z" fill="#EDADBF" stroke="black" stroke-width="0.5"/>
<path d="M9.75946 48.3535H3.75946C1.25879 52.3535 1.25879 62.3535 1.75946 65.8535C0.258789 66.8535 0.259387 71.3535 1.25946 72.8535L5.25946 73.3535V74.8535L1.25946 76.8535V78.8535C5.25946 79.8535 13.7595 81.8535 21.7595 81.3535V79.8535H39.2595C38.5928 71.3535 40.2595 60.8535 49.2595 53.8535C46.7595 49.8535 39.7595 45.3535 36.7595 44.8535C26.7595 43.8535 11.7595 46.3535 9.75946 48.3535Z" fill="#EDADBF" stroke="black" stroke-width="0.5"/>
<path d="M92.7607 35.8535C74.9274 36.6868 43.2607 41.5535 32.7607 44.5535L36.7607 44.8535C41.7607 46.3535 47.2607 50.6868 49.2607 53.8535C62.2598 44.3535 87.7598 51.3535 86.2598 78.8535H96.2598C89.2598 67.8535 90.2598 45.8535 92.7607 35.8535Z" fill="#EDADBF" stroke="black" stroke-width="0.5"/>
<path d="M9.75879 48.3536H3.75879C36.259 28.8535 58.259 34.8535 84.2588 30.3535L93.259 35.8535C76.259 36.8535 47.2588 40.3535 33.2588 44.5535C25.2588 44.3535 11.2588 46.3535 9.75879 48.3536Z" fill="#EDADBF" stroke="black" stroke-width="0.5"/>
<path d="M36.7602 44.8536C29.2602 43.8535 12.2602 45.8535 9.76024 48.3536C8.96024 50.7535 12.0936 53.6868 13.7602 54.8535C23.2603 56.3535 36.7602 50.3535 36.7602 44.8536Z" fill="#EDADBF" stroke="black" stroke-width="0.5"/>
<path d="M3.75948 48.3535C10.7595 49.3535 4.75948 59.8535 1.75948 64.8535C1.25941 57.8535 1.75928 52.3535 3.75948 48.3535Z" fill="#EDADBF" stroke="black" stroke-width="0.5"/>
<path d="M21.7588 84.3535V79.8535H39.2588L39.7588 84.3535H21.7588Z" fill="#EDADBF" stroke="black" stroke-width="0.5"/>
<path d="M2.26074 65.8535C3.76074 68.3535 5.76074 71.5202 5.26074 73.3535M21.7607 79.8535C11.2607 80.3535 6.76074 76.3535 7.76074 72.8535C8.26074 72.3535 9.76074 70.8535 10.7607 70.8535" stroke="black" stroke-width="0.5"/>
<path d="M31.7607 74.8535C29.2607 70.8535 23.7607 65.8536 20.7607 64.3536C19.0107 63.8536 16.3856 63.9786 13.6355 64.3536C12.0106 65.6869 10.7607 68.8535 11.2607 71.8535C11.2607 73.0202 12.5682 75.3535 15.2607 75.3535C19.7607 75.3535 26.7607 75.8535 31.7607 74.8535Z" fill="#EDADBF"/>
<path d="M5.76074 65.8536C8.01068 65.3536 10.8856 64.7286 13.6355 64.3536M13.6355 64.3536C16.3856 63.9786 19.0107 63.8536 20.7607 64.3536C23.7607 65.8536 29.2607 70.8535 31.7607 74.8535C26.7607 75.8535 19.7607 75.3535 15.2607 75.3535C12.5682 75.3535 11.2607 73.0202 11.2607 71.8535C10.7607 68.8535 12.0106 65.6869 13.6355 64.3536Z" stroke="black" stroke-width="0.5"/>
<path d="M11.2607 71.3536C19.2607 69.8536 22.7607 72.4821 25.7607 73.9821M12.7607 74.3536L30.2607 73.8536" stroke="black" stroke-width="0.5"/>
<path d="M21.7588 82.8535H31.2588C33.2588 82.8535 34.7588 80.8535 34.2588 79.8535M37.7588 79.8535V84.3535" stroke="black" stroke-width="0.5"/>
<path d="M21.7607 81.3538C17.2607 81.3538 12.7607 81.8538 1.26069 78.8538V76.8538L5.26069 74.8538V73.3538L1.26069 72.8538C0.759766 71.3535 -0.240039 68.3535 1.75996 65.8535C1.2602 57.8535 1.7602 51.3535 3.76069 48.3533C36.2607 28.8537 58.2607 34.8537 84.2607 30.3537C162.261 -24.6464 244.261 12.3535 281.261 26.8537L294.761 28.8535L295.261 35.8535V38.8535C296.759 43.8535 298.094 48.3535 296.761 50.3535C299.261 51.3535 301.761 54.5202 301.761 56.3535L299.761 66.3535C300.213 77.2014 297.805 77.4257 288.473 77.7382C287.482 77.7713 285.413 77.8055 284.261 77.8535V79.3535L259.261 79.7846M21.7607 81.3538V84.3538H39.759L39.2607 79.8538M21.7607 81.3538V79.8538H39.2607M39.2607 79.8538C36.2607 38.3538 89.7607 41.3538 86.2607 80.3538V82.8535H212.761C206.761 39.3535 261.261 39.3535 259.261 79.7846M258.759 79.7846H259.261" stroke="black"/>
</svg>
