<svg width="304" height="95" viewBox="0 0 304 95" fill="none" xmlns="http://www.w3.org/2000/svg">
<circle cx="63.0518" cy="73.8914" r="20.5" fill="#EDADBF" stroke="black"/>
<circle cx="236.052" cy="73.8914" r="20.5" fill="#EDADBF" stroke="black"/>
<path d="M133.05 12.3912L131.55 8.89121C171.55 0.891325 193.05 1.39136 232.05 12.8913L228.55 17.3913C208.55 9.39127 190.55 8.39127 174.55 7.89133C172.05 7.39133 168.05 7.3913 165.55 7.89121C155.55 7.89133 143.55 9.39134 133.05 12.3912Z" fill="#E0426F" stroke="black" stroke-width="0.5"/>
<path d="M131.55 8.8914L131.05 7.3914C167.05 -3.60864 199.55 0.391232 235.05 9.3914L232.05 12.8914C192.05 0.391357 166.05 1.89136 131.55 8.8914Z" fill="#E0426F" stroke="black" stroke-width="0.5"/>
<path d="M131.55 8.89122C183.05 -2.6088 211.55 7.39124 232.05 12.8912" stroke="black" stroke-width="0.5"/>
<path d="M171.052 29.8914L174.552 7.89136C208.052 8.89136 219.552 14.3914 224.052 15.8914L226.535 27.8914C199.544 27.892 182.049 29.3915 171.052 29.8914Z" fill="#E0426F"/>
<path d="M227.052 30.3914L224.052 15.8914C219.552 14.3914 208.052 8.89136 174.552 7.89136L171.052 29.8914C182.052 29.3914 199.552 27.8914 226.552 27.8914" stroke="black" stroke-width="0.5"/>
<path d="M165.552 7.89136C132.552 8.89136 112.552 17.8914 93.5518 35.3914L96.0518 33.3914L160.052 30.3914L165.552 7.89136Z" fill="#E0426F" stroke="black" stroke-width="0.5"/>
<path d="M240.05 22.3914C236.383 19.7247 230.55 17.3914 224.05 15.8914L226.55 27.8914H233.05C236.05 26.3914 239.05 24.1601 240.05 22.3914Z" fill="#E0426F" stroke="black" stroke-width="0.5"/>
<path d="M97.0518 78.3914H164.052L198.552 76.8914H213.052L213.552 82.3914H199.552H98.5518H87.0518V78.3914H97.0518Z" fill="#E0426F"/>
<path d="M97.0518 78.3914H164.052L198.552 76.8914M97.0518 78.3914C97.0518 79.8914 97.5518 80.8914 98.5518 82.3914M97.0518 78.3914H87.0518V82.3914H98.5518M198.552 76.8914L199.552 82.3914M198.552 76.8914H213.052L213.552 82.3914H199.552M199.552 82.3914H98.5518" stroke="black" stroke-width="0.5"/>
<path d="M97.0509 78.3914C92.5518 73.8914 89.5518 51.8914 93.5509 35.3914L165.552 31.3914C161.552 36.3914 160.552 70.3914 164.052 78.3914H97.0509Z" fill="#E0426F" stroke="black" stroke-width="0.5"/>
<path d="M229.052 30.3914L165.552 31.3914C161.552 36.3914 160.552 70.3914 164.052 78.3914L198.552 76.8914C203.052 75.3914 209.552 69.8914 229.052 30.3914Z" fill="#E0426F" stroke="black" stroke-width="0.5"/>
<path d="M171.052 29.8914C166.552 30.3914 163.052 30.3914 160.052 30.3914L165.552 7.89143C168.552 7.39136 171.552 7.39136 174.552 7.89143L171.052 29.8914Z" fill="#E0426F" stroke="black" stroke-width="0.5"/>
<path d="M99.5518 31.8914C104.052 37.3914 111.052 33.8914 115.052 32.3914C116.052 16.8913 103.052 24.8912 99.5518 31.8914Z" fill="#E0426F" stroke="black" stroke-width="0.5"/>
<path d="M235.05 9.39136L232.05 12.8914C249.05 18.3914 259.55 21.3914 272.05 27.8914H273.55L281.55 26.3914C266.55 19.8914 259.05 17.3914 235.05 9.39136Z" fill="#E0426F" stroke="black" stroke-width="0.5"/>
<path d="M272.05 27.8914C261.55 22.3914 242.55 15.8914 232.05 12.8914L230.05 15.3914L245.05 22.8914C243.55 25.3914 239.55 27.3914 233.55 30.0914C245.55 29.3914 262.55 28.3914 272.05 27.8914Z" fill="#E0426F" stroke="black" stroke-width="0.5"/>
<path d="M277.552 34.1914L283.55 31.8914L273.051 27.8914L229.051 30.3914C221.551 45.3914 206.551 75.8914 198.551 76.8914H213.051C211.551 65.8914 221.051 42.3914 246.052 51.3914C256.552 45.8914 266.552 40.3914 277.552 34.1914Z" fill="#E0426F" stroke="black" stroke-width="0.5"/>
<path d="M278.55 33.8914C266.55 40.3914 256.55 45.8914 246.05 51.3914C250.55 54.3914 261.05 60.3914 260.05 79.3914L285.05 78.8914V77.3914C293.55 76.3914 302.05 79.8914 300.55 65.8914L302.55 55.8914C302.55 54.3914 300.05 50.3914 297.55 49.8914C299.05 47.3914 296.05 38.3914 296.05 38.3914V36.8914L292.05 33.8914L287.05 32.3914L283.55 31.8914L278.55 33.8914Z" fill="#E0426F" stroke="black" stroke-width="0.5"/>
<path d="M281.55 26.3914L273.05 27.8914L283.55 31.8914C293.05 32.8914 292.049 34.3914 296.044 36.8115L295.55 28.3914L281.55 26.3914Z" fill="#E0426F"/>
<path d="M296.05 36.8914L296.044 36.8115M296.044 36.8115L295.55 28.3914L281.55 26.3914L273.05 27.8914L283.55 31.8914C293.05 32.8914 292.049 34.3914 296.044 36.8115Z" stroke="black" stroke-width="0.5"/>
<path d="M294.552 36.3916C294.052 33.8914 283.052 33.6914 277.552 34.1914" stroke="black" stroke-width="0.5"/>
<path d="M300.552 66.3914L261.052 68.3914C260.552 63.3914 258.385 59.2247 256.552 57.3914L302.552 54.8914M301.052 52.3914C290.052 50.8914 279.052 46.0914 267.052 40.0914M229.052 30.3914L273.052 27.8914L281.552 26.3914" stroke="black" stroke-width="0.5"/>
<path d="M291.052 40.3914C291.052 38.3914 290.052 34.3914 286.552 32.3914C288.773 32.3914 292.149 33.4317 294.661 35.8013C295.124 37.3313 294.052 40.8914 291.01 42.3914C290.996 41.8011 291.052 41.1156 291.052 40.3914Z" fill="#E0426F"/>
<path d="M273.052 42.8914C280.047 43.2411 286.064 43.3462 291.445 43.8914M298.052 44.8914C295.949 44.4407 293.756 44.1255 291.445 43.8914M296.052 37.3914C295.634 36.8062 295.165 36.277 294.661 35.8013M291.445 43.8914C291.119 43.5466 291.025 43.0235 291.01 42.3914M291.01 42.3914C290.996 41.8011 291.052 41.1156 291.052 40.3914C291.052 38.3914 290.052 34.3914 286.552 32.3914C288.773 32.3914 292.149 33.4317 294.661 35.8013M291.01 42.3914C294.052 40.8914 295.124 37.3313 294.661 35.8013" stroke="black" stroke-width="0.5"/>
<path d="M291.052 40.3914C286.552 40.3914 284.552 36.3914 283.552 33.8914" stroke="black" stroke-width="0.5"/>
<path d="M133.05 12.4913C119.55 16.4913 107.55 22.3914 93.5498 35.3914C100.55 23.3914 116.05 13.8914 131.55 8.89136L133.05 12.4913Z" fill="#EDADBF" stroke="black" stroke-width="0.5"/>
<path d="M131.55 8.89136C111.55 14.5654 93.5498 31.8914 85.5498 29.8914C98.5498 20.3914 114.55 11.8914 131.05 7.39136L131.55 8.89136Z" fill="#EDADBF" stroke="black" stroke-width="0.5"/>
<path d="M10.5505 47.8912H4.55047C2.0498 51.8912 2.0498 61.8912 2.55047 65.3912C1.0498 66.3912 1.0504 70.8912 2.05047 72.3912L6.05047 72.8912V74.3912L2.05047 76.3912V78.3912C6.05047 79.3912 14.5505 81.3912 22.5505 80.8912V79.3912H40.0505C39.3838 70.8912 41.0505 60.3912 50.0505 53.3912C47.5505 49.3912 40.5505 44.8912 37.5505 44.3912C27.5505 43.3912 12.5505 45.8912 10.5505 47.8912Z" fill="#EDADBF" stroke="black" stroke-width="0.5"/>
<path d="M93.5518 35.3914C75.7184 36.2247 44.0518 41.0914 33.5518 44.0914L37.5518 44.3914C42.5518 45.8914 48.0518 50.2247 50.0518 53.3914C63.0508 43.8914 88.5508 50.8914 87.0508 78.3914H97.0508C90.0508 67.3914 91.0508 45.3914 93.5518 35.3914Z" fill="#EDADBF" stroke="black" stroke-width="0.5"/>
<path d="M10.5498 47.8914H4.5498C37.05 28.3913 59.05 34.3914 85.0498 29.8914L94.05 35.3914C77.05 36.3914 48.0498 39.8914 34.0498 44.0914C26.0498 43.8913 12.0498 45.8914 10.5498 47.8914Z" fill="#EDADBF" stroke="black" stroke-width="0.5"/>
<path d="M37.5513 44.3914C30.0513 43.3914 13.0513 45.3914 10.5513 47.8914C9.75126 50.2914 12.8846 53.2247 14.5513 54.3914C24.0513 55.8914 37.5513 49.8914 37.5513 44.3914Z" fill="#EDADBF" stroke="black" stroke-width="0.5"/>
<path d="M4.5505 47.8914C11.5505 48.8914 5.5505 59.3914 2.5505 64.3914C2.05043 57.3914 2.55029 51.8914 4.5505 47.8914Z" fill="#EDADBF" stroke="black" stroke-width="0.5"/>
<path d="M22.5498 83.8914V79.3914H40.0498L40.5498 83.8914H22.5498Z" fill="#EDADBF" stroke="black" stroke-width="0.5"/>
<path d="M3.05176 65.3911C4.55176 67.8911 6.55176 71.0578 6.05176 72.8911M22.5518 79.3911C12.0518 79.8911 7.55176 75.8911 8.55176 72.3911C9.05176 71.8911 10.5518 70.3911 11.5518 70.3911" stroke="black" stroke-width="0.5"/>
<path d="M32.5518 74.3912C30.0518 70.3912 24.5518 65.3913 21.5518 63.8913C19.8017 63.3913 17.1766 63.5163 14.4265 63.8913C12.8016 65.2246 11.5518 68.3912 12.0518 71.3912C12.0518 72.5579 13.3592 74.8912 16.0518 74.8912C20.5518 74.8912 27.5518 75.3912 32.5518 74.3912Z" fill="#EDADBF"/>
<path d="M6.55176 65.3913C8.8017 64.8913 11.6766 64.2663 14.4265 63.8913M14.4265 63.8913C17.1766 63.5163 19.8017 63.3913 21.5518 63.8913C24.5518 65.3913 30.0518 70.3912 32.5518 74.3912C27.5518 75.3912 20.5518 74.8912 16.0518 74.8912C13.3592 74.8912 12.0518 72.5579 12.0518 71.3912C11.5518 68.3912 12.8016 65.2246 14.4265 63.8913Z" stroke="black" stroke-width="0.5"/>
<path d="M12.0518 70.8913C20.0518 69.3914 23.5518 72.0198 26.5518 73.5198M13.5518 73.8914L31.0518 73.3914" stroke="black" stroke-width="0.5"/>
<path d="M22.5498 82.3911H32.0498C34.0498 82.3911 35.5498 80.3911 35.0498 79.3911M38.5498 79.3911V83.8911" stroke="black" stroke-width="0.5"/>
<path d="M22.5517 80.8916C18.0517 80.8916 13.5517 81.3916 2.0517 78.3916V76.3916L6.0517 74.3916V72.8916L2.0517 72.3916C1.55078 70.8914 0.550977 67.8914 2.55097 65.3914C2.05122 57.3914 2.55122 50.8914 4.5517 47.8911C37.0517 28.3915 59.0517 34.3915 85.0517 29.8915C163.052 -25.1086 245.052 11.8913 282.052 26.3915L295.552 28.3914L296.052 35.3914V38.3914C297.55 43.3914 298.885 47.8914 297.552 49.8914C300.052 50.8914 302.552 54.058 302.552 55.8914L300.552 65.8914C301.004 76.7393 298.596 76.9635 289.264 77.276C288.273 77.3092 286.204 77.3434 285.052 77.3914V78.8914L260.052 79.3224M22.5517 80.8916V83.8916H40.55L40.0517 79.3916M22.5517 80.8916V79.3916H40.0517M40.0517 79.3916C37.0517 37.8916 90.5517 40.8916 87.0517 79.8916V82.3914H213.552C207.552 38.8914 262.052 38.8914 260.052 79.3224M259.55 79.3224H260.052" stroke="black"/>
</svg>
