<svg width="303" height="95" viewBox="0 0 303 95" fill="none" xmlns="http://www.w3.org/2000/svg">
<circle cx="62.4795" cy="73.707" r="20.5" fill="#E0426F" stroke="black"/>
<circle cx="235.479" cy="73.707" r="20.5" fill="#E0426F" stroke="black"/>
<path d="M132.478 12.2069L130.978 8.70689C170.978 0.706999 192.478 1.20703 231.478 12.707L227.978 17.207C207.978 9.20694 189.978 8.20694 173.978 7.70701C171.478 7.20701 167.478 7.20697 164.978 7.70689C154.978 7.70701 142.978 9.20701 132.478 12.2069Z" fill="#E56E90" stroke="black" stroke-width="0.5"/>
<path d="M130.978 8.70708L130.478 7.20708C166.478 -3.79297 198.978 0.206905 234.478 9.20708L231.478 12.7071C191.478 0.207031 165.478 1.70703 130.978 8.70708Z" fill="#E56E90" stroke="black" stroke-width="0.5"/>
<path d="M130.978 8.70714C182.478 -2.79288 210.978 7.20715 231.478 12.7071" stroke="black" stroke-width="0.5"/>
<path d="M170.479 29.707L173.979 7.70703C207.479 8.70703 218.979 14.207 223.479 15.707L225.962 27.707C198.972 27.7077 181.477 29.2071 170.479 29.707Z" fill="#E56E90"/>
<path d="M226.479 30.207L223.479 15.707C218.979 14.207 207.479 8.70703 173.979 7.70703L170.479 29.707C181.479 29.207 198.979 27.707 225.979 27.707" stroke="black" stroke-width="0.5"/>
<path d="M164.979 7.70703C131.979 8.70703 111.979 17.707 92.9795 35.207L95.4795 33.207L159.479 30.207L164.979 7.70703Z" fill="#E56E90" stroke="black" stroke-width="0.5"/>
<path d="M239.478 22.207C235.811 19.5404 229.978 17.207 223.478 15.707L225.978 27.707H232.478C235.478 26.207 238.478 23.9758 239.478 22.207Z" fill="#E56E90" stroke="black" stroke-width="0.5"/>
<path d="M96.4795 78.207H163.479L197.979 76.707H212.479L212.979 82.207H198.979H97.9795H86.4795V78.207H96.4795Z" fill="#E56E90"/>
<path d="M96.4795 78.207H163.479L197.979 76.707M96.4795 78.207C96.4795 79.707 96.9795 80.707 97.9795 82.207M96.4795 78.207H86.4795V82.207H97.9795M197.979 76.707L198.979 82.207M197.979 76.707H212.479L212.979 82.207H198.979M198.979 82.207H97.9795" stroke="black" stroke-width="0.5"/>
<path d="M96.4786 78.207C91.9795 73.707 88.9795 51.707 92.9786 35.207L164.979 31.207C160.979 36.207 159.979 70.207 163.479 78.207H96.4786Z" fill="#E56E90" stroke="black" stroke-width="0.5"/>
<path d="M228.479 30.207L164.979 31.207C160.98 36.207 159.98 70.207 163.479 78.207L197.979 76.707C202.479 75.207 208.979 69.707 228.479 30.207Z" fill="#E56E90" stroke="black" stroke-width="0.5"/>
<path d="M170.479 29.7071C165.979 30.2071 162.479 30.2071 159.479 30.2071L164.979 7.70711C167.979 7.20703 170.979 7.20703 173.979 7.70711L170.479 29.7071Z" fill="#E56E90" stroke="black" stroke-width="0.5"/>
<path d="M98.9795 31.7073C103.479 37.2073 110.479 33.7073 114.479 32.2073C115.479 16.7072 102.479 24.7072 98.9795 31.7073Z" fill="#E56E90" stroke="black" stroke-width="0.5"/>
<path d="M234.478 9.20703L231.478 12.707C248.478 18.207 258.978 21.207 271.478 27.707H272.978L280.978 26.207C265.978 19.707 258.478 17.207 234.478 9.20703Z" fill="#EFC7D3" stroke="black" stroke-width="0.5"/>
<path d="M271.478 27.707C260.978 22.207 241.978 15.707 231.478 12.707L229.478 15.207L244.478 22.707C242.978 25.207 238.978 27.207 232.978 29.907C244.978 29.207 261.978 28.207 271.478 27.707Z" fill="#EFC7D3" stroke="black" stroke-width="0.5"/>
<path d="M276.979 34.007L282.978 31.707L272.479 27.707L228.479 30.207C220.979 45.207 205.979 75.707 197.979 76.707H212.479C210.979 65.707 220.479 42.207 245.479 51.207C255.979 45.707 265.979 40.207 276.979 34.007Z" fill="#EFC7D3" stroke="black" stroke-width="0.5"/>
<path d="M277.978 33.7071C265.978 40.2071 255.978 45.7071 245.478 51.2071C249.978 54.207 260.478 60.207 259.478 79.207L284.478 78.707V77.207C292.978 76.207 301.478 79.707 299.978 65.707L301.978 55.707C301.978 54.207 299.478 50.207 296.978 49.707C298.478 47.207 295.478 38.207 295.478 38.207V36.707L291.478 33.707L286.478 32.207L282.978 31.707L277.978 33.7071Z" fill="#EFC7D3" stroke="black" stroke-width="0.5"/>
<path d="M280.978 26.207L272.478 27.707L282.978 31.707C292.478 32.707 291.476 34.207 295.472 36.6272L294.978 28.207L280.978 26.207Z" fill="#EFC7D3"/>
<path d="M295.478 36.707L295.472 36.6272M295.472 36.6272L294.978 28.207L280.978 26.207L272.478 27.707L282.978 31.707C292.478 32.707 291.476 34.207 295.472 36.6272Z" stroke="black" stroke-width="0.5"/>
<path d="M293.979 36.2072C293.479 33.7071 282.479 33.507 276.979 34.007" stroke="black" stroke-width="0.5"/>
<path d="M299.979 66.207L260.479 68.207C259.979 63.207 257.813 59.0404 255.979 57.207L301.979 54.707M300.479 52.207C289.479 50.707 278.479 45.907 266.479 39.907M228.479 30.207L272.479 27.707L280.979 26.207" stroke="black" stroke-width="0.5"/>
<path d="M290.479 40.207C290.479 38.207 289.479 34.207 285.979 32.207C288.2 32.207 291.577 33.2474 294.088 35.617C294.552 37.147 293.479 40.707 290.438 42.207C290.424 41.6167 290.479 40.9313 290.479 40.207Z" fill="#EFC7D3"/>
<path d="M272.479 42.707C279.475 43.0568 285.492 43.1619 290.873 43.707M297.479 44.707C295.376 44.2564 293.183 43.9411 290.873 43.707M295.479 37.207C295.062 36.6219 294.592 36.0927 294.088 35.617M290.873 43.707C290.546 43.3623 290.452 42.8392 290.438 42.207M290.438 42.207C290.424 41.6168 290.479 40.9313 290.479 40.207C290.479 38.207 289.479 34.207 285.979 32.207C288.2 32.207 291.577 33.2474 294.088 35.617M290.438 42.207C293.479 40.707 294.552 37.147 294.088 35.617" stroke="black" stroke-width="0.5"/>
<path d="M290.479 40.207C285.979 40.207 283.979 36.207 282.979 33.707" stroke="black" stroke-width="0.5"/>
<path d="M132.478 12.307C118.978 16.307 106.978 22.207 92.978 35.207C99.978 23.207 115.478 13.707 130.978 8.70703L132.478 12.307Z" stroke="black" stroke-width="0.5"/>
<path d="M130.978 8.70703C110.978 14.3811 92.978 31.707 84.978 29.707C97.978 20.207 113.978 11.707 130.478 7.20703L130.978 8.70703Z" stroke="black" stroke-width="0.5"/>
<path d="M9.97869 47.7069H3.97869C1.47803 51.7069 1.47803 61.7069 1.97869 65.2069C0.478027 66.2069 0.478625 70.7069 1.47869 72.2069L5.47869 72.7069V74.2069L1.47869 76.2069V78.2069C5.47869 79.2069 13.9787 81.2069 21.9787 80.7069V79.2069H39.4787C38.812 70.7069 40.4787 60.2069 49.4787 53.2069C46.9787 49.2069 39.9787 44.7069 36.9787 44.2069C26.9787 43.2069 11.9787 45.7069 9.97869 47.7069Z" stroke="black" stroke-width="0.5"/>
<path d="M92.9795 35.207C75.1462 36.0404 43.4795 40.907 32.9795 43.907L36.9795 44.207C41.9795 45.707 47.4795 50.0404 49.4795 53.207C62.4785 43.707 87.9785 50.707 86.4785 78.207H96.4785C89.4785 67.207 90.4785 45.207 92.9795 35.207Z" stroke="black" stroke-width="0.5"/>
<path d="M9.97754 47.7071H3.97754C36.4777 28.207 58.4778 34.207 84.4775 29.707L93.4778 35.207C76.4778 36.207 47.4775 39.707 33.4775 43.907C25.4775 43.707 11.4775 45.707 9.97754 47.7071Z" stroke="black" stroke-width="0.5"/>
<path d="M36.9795 44.2071C29.4795 43.207 12.4795 45.207 9.97948 47.7071C9.17948 50.107 12.3128 53.0404 13.9795 54.207C23.4795 55.707 36.9795 49.707 36.9795 44.2071Z" stroke="black" stroke-width="0.5"/>
<path d="M3.97872 47.707C10.9787 48.707 4.97872 59.207 1.97872 64.207C1.47865 57.207 1.97852 51.707 3.97872 47.707Z" stroke="black" stroke-width="0.5"/>
<path d="M21.978 83.707V79.207H39.478L39.978 83.707H21.978Z" stroke="black" stroke-width="0.5"/>
<path d="M2.47949 65.207C3.97949 67.707 5.97949 70.8737 5.47949 72.707M21.9795 79.207C11.4795 79.707 6.97949 75.707 7.97949 72.207C8.47949 71.707 9.97949 70.207 10.9795 70.207" stroke="black" stroke-width="0.5"/>
<path d="M5.97949 65.2072C8.22943 64.7072 11.1043 64.0822 13.8543 63.7072M13.8543 63.7072C16.6044 63.3322 19.2294 63.2072 20.9795 63.7072C23.9795 65.2072 29.4795 70.2072 31.9795 74.2072C26.9795 75.2072 19.9795 74.7072 15.4795 74.7072C12.7869 74.7072 11.4795 72.3738 11.4795 71.2072C10.9795 68.2072 12.2293 65.0405 13.8543 63.7072Z" stroke="black" stroke-width="0.5"/>
<path d="M11.4795 70.7072C19.4795 69.2073 22.9795 71.8358 25.9795 73.3358M12.9795 73.7073L30.4795 73.2073" stroke="black" stroke-width="0.5"/>
<path d="M21.9775 82.207H31.4775C33.4775 82.207 34.9775 80.207 34.4775 79.207M37.9775 79.207V83.707" stroke="black" stroke-width="0.5"/>
<path d="M21.9794 80.7073C17.4794 80.7073 12.9794 81.2073 1.47944 78.2073V76.2073L5.47944 74.2073V72.7073L1.47944 72.2073C0.978516 70.707 -0.0212885 67.707 1.97871 65.207C1.47895 57.207 1.97895 50.707 3.97944 47.7068C36.4794 28.2072 58.4794 34.2072 84.4794 29.7072C162.479 -25.2929 244.479 11.707 281.479 26.2072L294.979 28.207L295.479 35.207V38.207C296.978 43.207 298.313 47.707 296.979 49.707C299.479 50.707 301.979 53.8737 301.979 55.707L299.979 65.707C300.431 76.5549 298.023 76.7792 288.692 77.0917C287.701 77.1249 285.632 77.159 284.479 77.207V78.707L259.479 79.1381M21.9794 80.7073V83.7073H39.9778L39.4794 79.2073M21.9794 80.7073V79.2073H39.4794M39.4794 79.2073C36.4794 37.7073 89.9794 40.7073 86.4794 79.7073V82.207H212.979C206.979 38.707 261.479 38.707 259.479 79.1381M258.978 79.1381H259.479" stroke="black"/>
</svg>
