<svg width="303" height="96" viewBox="0 0 303 96" fill="none" xmlns="http://www.w3.org/2000/svg">
<circle cx="62.4897" cy="74.2146" r="20.5" fill="#E0426F" stroke="black"/>
<circle cx="235.49" cy="74.2146" r="20.5" fill="#E0426F" stroke="black"/>
<path d="M132.488 12.7145L130.988 9.21445C170.988 1.21457 192.488 1.7146 231.488 13.2145L227.988 17.7145C207.988 9.71451 189.988 8.71451 173.988 8.21458C171.488 7.71458 167.488 7.71454 164.988 8.21445C154.988 8.21458 142.988 9.71458 132.488 12.7145Z" fill="#E56E90" stroke="black" stroke-width="0.5"/>
<path d="M130.988 9.21464L130.488 7.71464C166.488 -3.2854 198.988 0.714474 234.488 9.71465L231.488 13.2146C191.488 0.7146 165.488 2.2146 130.988 9.21464Z" fill="#E56E90" stroke="black" stroke-width="0.5"/>
<path d="M130.988 9.21447C182.488 -2.28556 210.988 7.71448 231.488 13.2145" stroke="black" stroke-width="0.5"/>
<path d="M170.49 30.2146L173.99 8.2146C207.49 9.2146 218.99 14.7146 223.49 16.2146L225.973 28.2146C198.982 28.2152 181.487 29.7147 170.49 30.2146Z" fill="#E56E90"/>
<path d="M226.49 30.7146L223.49 16.2146C218.99 14.7146 207.49 9.2146 173.99 8.2146L170.49 30.2146C181.49 29.7146 198.99 28.2146 225.99 28.2146" stroke="black" stroke-width="0.5"/>
<path d="M164.99 8.2146C131.99 9.2146 111.99 18.2146 92.9897 35.7146L95.4897 33.7146L159.49 30.7146L164.99 8.2146Z" fill="#E56E90" stroke="black" stroke-width="0.5"/>
<path d="M239.488 22.7146C235.822 20.0479 229.988 17.7146 223.488 16.2146L225.988 28.2146H232.488C235.488 26.7146 238.488 24.4833 239.488 22.7146Z" fill="#E56E90" stroke="black" stroke-width="0.5"/>
<path d="M96.4897 78.7146H163.49L197.99 77.2146H212.49L212.99 82.7146H198.99H97.9897H86.4897V78.7146H96.4897Z" fill="#E56E90"/>
<path d="M96.4897 78.7146H163.49L197.99 77.2146M96.4897 78.7146C96.4897 80.2146 96.9897 81.2146 97.9897 82.7146M96.4897 78.7146H86.4897V82.7146H97.9897M197.99 77.2146L198.99 82.7146M197.99 77.2146H212.49L212.99 82.7146H198.99M198.99 82.7146H97.9897" stroke="black" stroke-width="0.5"/>
<path d="M96.4889 78.7146C91.9897 74.2146 88.9898 52.2146 92.9889 35.7146L164.99 31.7146C160.99 36.7146 159.99 70.7146 163.49 78.7146H96.4889Z" fill="#E56E90" stroke="black" stroke-width="0.5"/>
<path d="M228.489 30.7146L164.989 31.7146C160.989 36.7146 159.99 70.7146 163.489 78.7146L197.989 77.2146C202.489 75.7146 208.989 70.2146 228.489 30.7146Z" fill="#E56E90" stroke="black" stroke-width="0.5"/>
<path d="M170.49 30.2147C165.99 30.7147 162.49 30.7147 159.49 30.7147L164.99 8.21467C167.99 7.7146 170.99 7.7146 173.99 8.21467L170.49 30.2147Z" fill="#E56E90" stroke="black" stroke-width="0.5"/>
<path d="M98.9897 32.2146C103.49 37.7146 110.49 34.2146 114.49 32.7146C115.49 17.2145 102.49 25.2145 98.9897 32.2146Z" fill="#E56E90" stroke="black" stroke-width="0.5"/>
<path d="M234.488 9.7146L231.488 13.2146C248.488 18.7146 258.988 21.7146 271.488 28.2146H272.988L280.988 26.7146C265.988 20.2146 258.488 17.7146 234.488 9.7146Z" stroke="black" stroke-width="0.5"/>
<path d="M271.488 28.2146C260.988 22.7146 241.988 16.2146 231.488 13.2146L229.488 15.7146L244.488 23.2146C242.988 25.7146 238.988 27.7146 232.988 30.4146C244.988 29.7146 261.988 28.7146 271.488 28.2146Z" stroke="black" stroke-width="0.5"/>
<path d="M276.99 34.5146L282.988 32.2146L272.489 28.2146L228.489 30.7146C220.989 45.7146 205.989 76.2146 197.989 77.2146H212.489C210.989 66.2146 220.489 42.7146 245.49 51.7146C255.99 46.2146 265.99 40.7146 276.99 34.5146Z" stroke="black" stroke-width="0.5"/>
<path d="M277.988 34.2146C265.988 40.7146 255.988 46.2146 245.488 51.7146C249.988 54.7146 260.488 60.7146 259.488 79.7146L284.488 79.2146V77.7146C292.988 76.7146 301.488 80.2146 299.988 66.2146L301.988 56.2146C301.988 54.7146 299.488 50.7146 296.988 50.2146C298.488 47.7146 295.488 38.7146 295.488 38.7146V37.2146L291.488 34.2146L286.488 32.7146L282.988 32.2146L277.988 34.2146Z" stroke="black" stroke-width="0.5"/>
<path d="M295.488 37.2146L295.482 37.1348M295.482 37.1348L294.988 28.7146L280.988 26.7146L272.488 28.2146L282.988 32.2146C292.488 33.2146 291.487 34.7146 295.482 37.1348Z" stroke="black" stroke-width="0.5"/>
<path d="M293.99 36.7148C293.49 34.2147 282.49 34.0146 276.99 34.5146" stroke="black" stroke-width="0.5"/>
<path d="M299.99 66.7146L260.49 68.7146C259.99 63.7146 257.823 59.5479 255.99 57.7146L301.99 55.2146M300.49 52.7146C289.49 51.2146 278.49 46.4146 266.49 40.4146M228.49 30.7146L272.49 28.2146L280.99 26.7146" stroke="black" stroke-width="0.5"/>
<path d="M272.49 43.2146C279.485 43.5644 285.502 43.6695 290.883 44.2146M297.49 45.2146C295.387 44.764 293.194 44.4487 290.883 44.2146M295.49 37.7146C295.072 37.1295 294.603 36.6002 294.099 36.1246M290.883 44.2146C290.557 43.8698 290.463 43.3468 290.448 42.7146M290.448 42.7146C290.434 42.1243 290.49 41.4389 290.49 40.7146C290.49 38.7146 289.49 34.7146 285.99 32.7146C288.211 32.7146 291.587 33.755 294.099 36.1246M290.448 42.7146C293.49 41.2146 294.562 37.6546 294.099 36.1246" stroke="black" stroke-width="0.5"/>
<path d="M290.49 40.7146C285.99 40.7146 283.99 36.7146 282.99 34.2146" stroke="black" stroke-width="0.5"/>
<path d="M132.488 12.8146C118.988 16.8146 106.988 22.7146 92.9883 35.7146C99.9883 23.7146 115.488 14.2146 130.988 9.2146L132.488 12.8146Z" fill="#E56E90" stroke="black" stroke-width="0.5"/>
<path d="M130.988 9.2146C110.988 14.8886 92.9883 32.2146 84.9883 30.2146C97.9883 20.7146 113.988 12.2146 130.488 7.7146L130.988 9.2146Z" fill="#E56E90" stroke="black" stroke-width="0.5"/>
<path d="M9.98895 48.2145H3.98895C1.48828 52.2145 1.48828 62.2145 1.98895 65.7145C0.488281 66.7145 0.488879 71.2145 1.48895 72.7145L5.48895 73.2145V74.7145L1.48895 76.7145V78.7145C5.48895 79.7145 13.9889 81.7145 21.9889 81.2145V79.7145H39.4889C38.8223 71.2145 40.4889 60.7145 49.4889 53.7145C46.9889 49.7145 39.9889 45.2145 36.9889 44.7145C26.9889 43.7145 11.9889 46.2145 9.98895 48.2145Z" fill="#E56E90" stroke="black" stroke-width="0.5"/>
<path d="M92.9897 35.7146C75.1564 36.5479 43.4897 41.4146 32.9897 44.4146L36.9897 44.7146C41.9897 46.2146 47.4897 50.5479 49.4897 53.7146C62.4888 44.2146 87.9888 51.2146 86.4888 78.7146H96.4888C89.4888 67.7146 90.4888 45.7146 92.9897 35.7146Z" fill="#E56E90" stroke="black" stroke-width="0.5"/>
<path d="M9.98828 48.2147H3.98828C36.4885 28.7146 58.4885 34.7146 84.4883 30.2146L93.4885 35.7146C76.4885 36.7146 47.4883 40.2146 33.4883 44.4146C25.4883 44.2146 11.4883 46.2146 9.98828 48.2147Z" fill="#E56E90" stroke="black" stroke-width="0.5"/>
<path d="M36.9897 44.7147C29.4897 43.7146 12.4897 45.7146 9.98974 48.2147C9.18974 50.6146 12.3231 53.5479 13.9897 54.7146C23.4897 56.2146 36.9897 50.2146 36.9897 44.7147Z" fill="#E56E90" stroke="black" stroke-width="0.5"/>
<path d="M3.98898 48.2146C10.989 49.2146 4.98898 59.7146 1.98898 64.7146C1.48891 57.7146 1.98877 52.2146 3.98898 48.2146Z" fill="#E56E90" stroke="black" stroke-width="0.5"/>
<path d="M21.9883 84.2146V79.7146H39.4883L39.9883 84.2146H21.9883Z" fill="#E56E90" stroke="black" stroke-width="0.5"/>
<path d="M2.49023 65.7144C3.99023 68.2144 5.99023 71.381 5.49023 73.2144M21.9902 79.7144C11.4902 80.2144 6.99023 76.2144 7.99023 72.7144C8.49023 72.2144 9.99023 70.7144 10.9902 70.7144" stroke="black" stroke-width="0.5"/>
<path d="M31.9902 74.7145C29.4902 70.7145 23.9902 65.7146 20.9902 64.2146C19.2402 63.7145 16.6151 63.8395 13.865 64.2146C12.2401 65.5479 10.9902 68.7145 11.4902 71.7145C11.4902 72.8811 12.7977 75.2145 15.4902 75.2145C19.9902 75.2145 26.9902 75.7145 31.9902 74.7145Z" fill="#E56E90"/>
<path d="M5.99023 65.7146C8.24018 65.2145 11.1151 64.5896 13.865 64.2146M13.865 64.2146C16.6151 63.8395 19.2402 63.7145 20.9902 64.2146C23.9902 65.7146 29.4902 70.7145 31.9902 74.7145C26.9902 75.7145 19.9902 75.2145 15.4902 75.2145C12.7977 75.2145 11.4902 72.8811 11.4902 71.7145C10.9902 68.7145 12.2401 65.5479 13.865 64.2146Z" stroke="black" stroke-width="0.5"/>
<path d="M11.4902 71.2146C19.4902 69.7146 22.9902 72.3431 25.9902 73.8431M12.9902 74.2146L30.4902 73.7146" stroke="black" stroke-width="0.5"/>
<path d="M21.9883 82.7144H31.4883C33.4883 82.7144 34.9883 80.7144 34.4883 79.7144M37.9883 79.7144V84.2144" stroke="black" stroke-width="0.5"/>
<path d="M21.9897 81.2148C17.4897 81.2148 12.9897 81.7148 1.48969 78.7148V76.7148L5.48969 74.7148V73.2148L1.48969 72.7149C0.98877 71.2146 -0.0110346 68.2146 1.98896 65.7146C1.4892 57.7146 1.9892 51.2146 3.98969 48.2143C36.4897 28.7147 58.4897 34.7148 84.4897 30.2148C162.49 -24.7853 244.49 12.2146 281.49 26.7148L294.99 28.7146L295.49 35.7146V38.7146C296.988 43.7146 298.323 48.2146 296.99 50.2146C299.49 51.2146 301.99 54.3813 301.99 56.2146L299.99 66.2146C300.442 77.0625 298.034 77.2868 288.702 77.5992C287.711 77.6324 285.642 77.6666 284.49 77.7146V79.2146L259.49 79.6456M21.9897 81.2148V84.2148H39.988L39.4897 79.7148M21.9897 81.2148V79.7148H39.4897M39.4897 79.7148C36.4897 38.2148 89.9897 41.2148 86.4897 80.2148V82.7146H212.99C206.99 39.2146 261.49 39.2146 259.49 79.6456M258.988 79.6456H259.49" stroke="black"/>
</svg>
