<svg width="303" height="96" viewBox="0 0 303 96" fill="none" xmlns="http://www.w3.org/2000/svg">
<circle cx="62.4473" cy="74.0605" r="20.5" fill="#E0426F" stroke="black"/>
<circle cx="235.447" cy="74.0605" r="20.5" fill="#E0426F" stroke="black"/>
<path d="M132.445 12.5604L130.945 9.0604C170.945 1.06051 192.445 1.56055 231.445 13.0605L227.945 17.5605C207.945 9.56046 189.945 8.56046 173.945 8.06052C171.445 7.56052 167.445 7.56049 164.945 8.0604C154.945 8.06052 142.945 9.56052 132.445 12.5604Z" fill="#E0426F" stroke="black" stroke-width="0.5"/>
<path d="M130.945 9.06059L130.445 7.56059C166.445 -3.43945 198.945 0.560421 234.445 9.56059L231.445 13.0606C191.445 0.560547 165.445 2.06055 130.945 9.06059Z" fill="#E0426F" stroke="black" stroke-width="0.5"/>
<path d="M130.945 9.06066C182.445 -2.43937 210.945 7.56067 231.445 13.0607" stroke="black" stroke-width="0.5"/>
<path d="M170.447 30.0605L173.947 8.06055C207.447 9.06055 218.947 14.5605 223.447 16.0605L225.93 28.0605C198.94 28.0612 181.445 29.5607 170.447 30.0605Z" fill="#E0426F"/>
<path d="M226.447 30.5605L223.447 16.0605C218.947 14.5605 207.447 9.06055 173.947 8.06055L170.447 30.0605C181.447 29.5605 198.947 28.0605 225.947 28.0605" stroke="black" stroke-width="0.5"/>
<path d="M164.947 8.06055C131.947 9.06055 111.947 18.0605 92.9473 35.5605L95.4473 33.5605L159.447 30.5605L164.947 8.06055Z" fill="#E0426F" stroke="black" stroke-width="0.5"/>
<path d="M239.445 22.5605C235.779 19.8939 229.945 17.5605 223.445 16.0605L225.945 28.0605H232.445C235.445 26.5605 238.445 24.3293 239.445 22.5605Z" fill="#E0426F" stroke="black" stroke-width="0.5"/>
<path d="M96.4473 78.5605H163.447L197.947 77.0605H212.447L212.947 82.5605H198.947H97.9473H86.4473V78.5605H96.4473Z" fill="#E0426F"/>
<path d="M96.4473 78.5605H163.447L197.947 77.0605M96.4473 78.5605C96.4473 80.0605 96.9473 81.0605 97.9473 82.5605M96.4473 78.5605H86.4473V82.5605H97.9473M197.947 77.0605L198.947 82.5605M197.947 77.0605H212.447L212.947 82.5605H198.947M198.947 82.5605H97.9473" stroke="black" stroke-width="0.5"/>
<path d="M96.4464 78.5605C91.9473 74.0605 88.9473 52.0605 92.9464 35.5605L164.947 31.5605C160.947 36.5605 159.947 70.5605 163.447 78.5605H96.4464Z" fill="#E0426F" stroke="black" stroke-width="0.5"/>
<path d="M228.447 30.5605L164.947 31.5605C160.947 36.5605 159.948 70.5605 163.447 78.5605L197.947 77.0605C202.447 75.5605 208.947 70.0605 228.447 30.5605Z" fill="#E0426F" stroke="black" stroke-width="0.5"/>
<path d="M170.447 30.0606C165.947 30.5606 162.447 30.5606 159.447 30.5606L164.947 8.06062C167.947 7.56055 170.947 7.56055 173.947 8.06062L170.447 30.0606Z" fill="#E0426F" stroke="black" stroke-width="0.5"/>
<path d="M98.9473 32.0608C103.447 37.5608 110.447 34.0608 114.447 32.5608C115.447 17.0607 102.447 25.0607 98.9473 32.0608Z" fill="#E0426F" stroke="black" stroke-width="0.5"/>
<path d="M234.445 9.56055L231.445 13.0605C248.445 18.5605 258.945 21.5605 271.445 28.0605H272.945L280.945 26.5605C265.945 20.0605 258.445 17.5605 234.445 9.56055Z" fill="#E0426F" stroke="black" stroke-width="0.5"/>
<path d="M271.445 28.0605C260.945 22.5605 241.945 16.0605 231.445 13.0605L229.445 15.5605L244.445 23.0605C242.945 25.5605 238.945 27.5605 232.945 30.2605C244.945 29.5605 261.945 28.5605 271.445 28.0605Z" fill="#E0426F" stroke="black" stroke-width="0.5"/>
<path d="M276.947 34.3605L282.946 32.0605L272.446 28.0605L228.446 30.5605C220.946 45.5605 205.946 76.0605 197.946 77.0605H212.446C210.946 66.0605 220.446 42.5605 245.447 51.5605C255.947 46.0605 265.947 40.5605 276.947 34.3605Z" fill="#E0426F" stroke="black" stroke-width="0.5"/>
<path d="M277.945 34.0606C265.945 40.5606 255.945 46.0606 245.445 51.5606C249.945 54.5605 260.445 60.5605 259.445 79.5605L284.445 79.0605V77.5605C292.945 76.5605 301.445 80.0605 299.945 66.0605L301.945 56.0605C301.945 54.5605 299.445 50.5605 296.945 50.0605C298.445 47.5605 295.445 38.5605 295.445 38.5605V37.0605L291.445 34.0605L286.445 32.5605L282.945 32.0605L277.945 34.0606Z" fill="#E0426F" stroke="black" stroke-width="0.5"/>
<path d="M280.945 26.5605L272.445 28.0605L282.945 32.0605C292.445 33.0605 291.444 34.5605 295.439 36.9807L294.945 28.5605L280.945 26.5605Z" fill="#E0426F"/>
<path d="M295.445 37.0605L295.439 36.9807M295.439 36.9807L294.945 28.5605L280.945 26.5605L272.445 28.0605L282.945 32.0605C292.445 33.0605 291.444 34.5605 295.439 36.9807Z" stroke="black" stroke-width="0.5"/>
<path d="M293.947 36.5607C293.447 34.0606 282.447 33.8606 276.947 34.3606" stroke="black" stroke-width="0.5"/>
<path d="M299.947 66.5605L260.447 68.5605C259.947 63.5605 257.781 59.3939 255.947 57.5605L301.947 55.0605M300.447 52.5605C289.447 51.0605 278.447 46.2605 266.447 40.2605M228.447 30.5605L272.447 28.0605L280.947 26.5605" stroke="black" stroke-width="0.5"/>
<path d="M290.447 40.5605C290.447 38.5605 289.447 34.5605 285.947 32.5605C288.168 32.5605 291.545 33.6009 294.056 35.9705C294.52 37.5005 293.447 41.0605 290.405 42.5605C290.392 41.9703 290.447 41.2848 290.447 40.5605Z" fill="#E0426F"/>
<path d="M272.447 43.0605C279.443 43.4103 285.46 43.5154 290.84 44.0605M297.447 45.0605C295.344 44.6099 293.151 44.2946 290.84 44.0605M295.447 37.5605C295.029 36.9754 294.56 36.4462 294.056 35.9705M290.84 44.0605C290.514 43.7158 290.42 43.1927 290.405 42.5605M290.405 42.5605C290.392 41.9703 290.447 41.2848 290.447 40.5605C290.447 38.5605 289.447 34.5605 285.947 32.5605C288.168 32.5605 291.545 33.6009 294.056 35.9705M290.405 42.5605C293.447 41.0605 294.52 37.5005 294.056 35.9705" stroke="black" stroke-width="0.5"/>
<path d="M290.447 40.5605C285.947 40.5605 283.947 36.5605 282.947 34.0605" stroke="black" stroke-width="0.5"/>
<path d="M132.445 12.6605C118.945 16.6605 106.945 22.5605 92.9453 35.5605C99.9453 23.5605 115.445 14.0605 130.945 9.06055L132.445 12.6605Z" fill="#E56E90" stroke="black" stroke-width="0.5"/>
<path d="M130.945 9.06055C110.945 14.7346 92.9453 32.0605 84.9453 30.0605C97.9453 20.5605 113.945 12.0605 130.445 7.56055L130.945 9.06055Z" fill="#E56E90" stroke="black" stroke-width="0.5"/>
<path d="M9.94598 48.0604H3.94598C1.44531 52.0604 1.44531 62.0604 1.94598 65.5604C0.445312 66.5604 0.44591 71.0604 1.44598 72.5604L5.44598 73.0604V74.5604L1.44598 76.5604V78.5604C5.44598 79.5604 13.946 81.5604 21.946 81.0604V79.5604H39.446C38.7793 71.0604 40.446 60.5604 49.446 53.5604C46.946 49.5604 39.946 45.0604 36.946 44.5604C26.946 43.5604 11.946 46.0604 9.94598 48.0604Z" fill="#E56E90" stroke="black" stroke-width="0.5"/>
<path d="M92.9473 35.5605C75.1139 36.3939 43.4473 41.2605 32.9473 44.2605L36.9473 44.5605C41.9473 46.0605 47.4473 50.3939 49.4473 53.5605C62.4463 44.0605 87.9463 51.0605 86.4463 78.5605H96.4463C89.4463 67.5605 90.4463 45.5605 92.9473 35.5605Z" fill="#E56E90" stroke="black" stroke-width="0.5"/>
<path d="M9.94531 48.0606H3.94531C36.4455 28.5605 58.4456 34.5605 84.4453 30.0605L93.4456 35.5605C76.4456 36.5605 47.4453 40.0605 33.4453 44.2606C25.4453 44.0605 11.4453 46.0605 9.94531 48.0606Z" fill="#E56E90" stroke="black" stroke-width="0.5"/>
<path d="M36.9468 44.5606C29.4468 43.5605 12.4468 45.5605 9.94677 48.0606C9.14677 50.4606 12.2801 53.3939 13.9468 54.5605C23.4468 56.0605 36.9468 50.0605 36.9468 44.5606Z" fill="#E56E90" stroke="black" stroke-width="0.5"/>
<path d="M3.94601 48.0605C10.946 49.0605 4.94601 59.5605 1.94601 64.5605C1.44594 57.5605 1.9458 52.0605 3.94601 48.0605Z" fill="#E56E90" stroke="black" stroke-width="0.5"/>
<path d="M21.9453 84.0605V79.5605H39.4453L39.9453 84.0605H21.9453Z" fill="#E56E90" stroke="black" stroke-width="0.5"/>
<path d="M2.44727 65.5605C3.94727 68.0605 5.94727 71.2272 5.44727 73.0605M21.9473 79.5605C11.4473 80.0605 6.94727 76.0605 7.94727 72.5605C8.44727 72.0605 9.94727 70.5605 10.9473 70.5605" stroke="black" stroke-width="0.5"/>
<path d="M31.9473 74.5607C29.4473 70.5607 23.9473 65.5607 20.9473 64.0607C19.1972 63.5607 16.5721 63.6857 13.8221 64.0607C12.1971 65.3941 10.9473 68.5607 11.4473 71.5607C11.4473 72.7273 12.7547 75.0607 15.4473 75.0607C19.9473 75.0607 26.9473 75.5607 31.9473 74.5607Z" fill="#E56E90"/>
<path d="M5.94727 65.5607C8.19721 65.0607 11.0721 64.4357 13.8221 64.0607M13.8221 64.0607C16.5721 63.6857 19.1972 63.5607 20.9473 64.0607C23.9473 65.5607 29.4473 70.5607 31.9473 74.5607C26.9473 75.5607 19.9473 75.0607 15.4473 75.0607C12.7547 75.0607 11.4473 72.7273 11.4473 71.5607C10.9473 68.5607 12.1971 65.3941 13.8221 64.0607Z" stroke="black" stroke-width="0.5"/>
<path d="M11.4473 71.0607C19.4473 69.5608 22.9473 72.1893 25.9473 73.6893M12.9473 74.0608L30.4473 73.5608" stroke="black" stroke-width="0.5"/>
<path d="M21.9453 82.5605H31.4453C33.4453 82.5605 34.9453 80.5605 34.4453 79.5605M37.9453 79.5605V84.0605" stroke="black" stroke-width="0.5"/>
<path d="M21.9472 81.0608C17.4472 81.0608 12.9472 81.5608 1.44721 78.5608V76.5608L5.44721 74.5608V73.0608L1.44721 72.5608C0.946289 71.0605 -0.0535151 68.0605 1.94648 65.5605C1.44672 57.5605 1.94672 51.0605 3.94721 48.0603C36.4472 28.5607 58.4472 34.5607 84.4472 30.0607C162.447 -24.9394 244.447 12.0605 281.447 26.5607L294.947 28.5605L295.447 35.5605V38.5605C296.946 43.5605 298.281 48.0605 296.947 50.0605C299.447 51.0605 301.947 54.2272 301.947 56.0605L299.947 66.0605C300.399 76.9085 297.991 77.1327 288.66 77.4452C287.668 77.4784 285.599 77.5125 284.447 77.5605V79.0605L259.447 79.4916M21.9472 81.0608V84.0608H39.9456L39.4472 79.5608M21.9472 81.0608V79.5608H39.4472M39.4472 79.5608C36.4472 38.0608 89.9472 41.0608 86.4472 80.0608V82.5605H212.947C206.947 39.0605 261.447 39.0605 259.447 79.4916M258.946 79.4916H259.447" stroke="black"/>
</svg>
