<svg width="303" height="96" viewBox="0 0 303 96" fill="none" xmlns="http://www.w3.org/2000/svg">
<circle cx="62.2607" cy="74.3384" r="20.5" fill="#E56E90" stroke="black"/>
<circle cx="235.261" cy="74.3384" r="20.5" fill="#E56E90" stroke="black"/>
<path d="M132.259 12.8382L130.759 9.33823C170.759 1.33835 192.259 1.83838 231.259 13.3383L227.759 17.8383C207.759 9.83829 189.759 8.83829 173.759 8.33836C171.259 7.83836 167.259 7.83832 164.759 8.33823C154.759 8.33836 142.759 9.83836 132.259 12.8382Z" stroke="black" stroke-width="0.5"/>
<path d="M130.759 9.33842L130.259 7.83842C166.259 -3.16162 198.759 0.838253 234.259 9.83842L231.259 13.3384C191.259 0.838379 165.259 2.33838 130.759 9.33842Z" stroke="black" stroke-width="0.5"/>
<path d="M130.759 9.33837C182.259 -2.16166 210.759 7.83838 231.259 13.3384" stroke="black" stroke-width="0.5"/>
<path d="M226.261 30.8384L223.261 16.3384C218.761 14.8384 207.261 9.33838 173.761 8.33838L170.261 30.3384C181.261 29.8384 198.761 28.3384 225.761 28.3384" stroke="black" stroke-width="0.5"/>
<path d="M164.761 8.33838C131.761 9.33838 111.761 18.3384 92.7607 35.8384L95.2607 33.8384L159.261 30.8384L164.761 8.33838Z" stroke="black" stroke-width="0.5"/>
<path d="M239.259 22.8384C235.592 20.1717 229.759 17.8384 223.259 16.3384L225.759 28.3384H232.259C235.259 26.8384 238.259 24.6071 239.259 22.8384Z" stroke="black" stroke-width="0.5"/>
<path d="M96.2607 78.8384H163.261L197.761 77.3384M96.2607 78.8384C96.2607 80.3384 96.7607 81.3384 97.7607 82.8384M96.2607 78.8384H86.2607V82.8384H97.7607M197.761 77.3384L198.761 82.8384M197.761 77.3384H212.261L212.761 82.8384H198.761M198.761 82.8384H97.7607" stroke="black" stroke-width="0.5"/>
<path d="M96.2599 78.8384C91.7607 74.3384 88.7608 52.3384 92.7599 35.8384L164.761 31.8384C160.761 36.8384 159.761 70.8384 163.261 78.8384H96.2599Z" stroke="black" stroke-width="0.5"/>
<path d="M228.261 30.8384L164.761 31.8384C160.761 36.8384 159.761 70.8384 163.261 78.8384L197.761 77.3384C202.261 75.8384 208.761 70.3384 228.261 30.8384Z" stroke="black" stroke-width="0.5"/>
<path d="M170.261 30.3385C165.761 30.8385 162.261 30.8385 159.261 30.8385L164.761 8.33845C167.761 7.83838 170.761 7.83838 173.761 8.33845L170.261 30.3385Z" stroke="black" stroke-width="0.5"/>
<path d="M98.7607 32.3385C103.261 37.8385 110.261 34.3385 114.261 32.8385C115.261 17.3384 102.261 25.3384 98.7607 32.3385Z" stroke="black" stroke-width="0.5"/>
<path d="M234.259 9.83838L231.259 13.3384C248.259 18.8384 258.759 21.8384 271.259 28.3384H272.759L280.759 26.8384C265.759 20.3384 258.259 17.8384 234.259 9.83838Z" fill="#E56E90" stroke="black" stroke-width="0.5"/>
<path d="M271.259 28.3384C260.759 22.8384 241.759 16.3384 231.259 13.3384L229.259 15.8384L244.259 23.3384C242.759 25.8384 238.759 27.8384 232.759 30.5384C244.759 29.8384 261.759 28.8384 271.259 28.3384Z" fill="#E56E90" stroke="black" stroke-width="0.5"/>
<path d="M276.761 34.6384L282.759 32.3384L272.26 28.3384L228.26 30.8384C220.76 45.8384 205.76 76.3384 197.76 77.3384H212.26C210.76 66.3384 220.26 42.8384 245.261 51.8384C255.761 46.3384 265.761 40.8384 276.761 34.6384Z" fill="#E56E90" stroke="black" stroke-width="0.5"/>
<path d="M277.759 34.3384C265.759 40.8384 255.759 46.3384 245.259 51.8384C249.759 54.8384 260.259 60.8384 259.259 79.8384L284.259 79.3384V77.8384C292.759 76.8384 301.259 80.3384 299.759 66.3384L301.759 56.3384C301.759 54.8384 299.259 50.8384 296.759 50.3384C298.259 47.8384 295.259 38.8384 295.259 38.8384V37.3384L291.259 34.3384L286.259 32.8384L282.759 32.3384L277.759 34.3384Z" fill="#E56E90" stroke="black" stroke-width="0.5"/>
<path d="M280.759 26.8384L272.259 28.3384L282.759 32.3384C292.259 33.3384 291.258 34.8384 295.253 37.2586L294.759 28.8384L280.759 26.8384Z" fill="#E56E90"/>
<path d="M295.259 37.3384L295.253 37.2586M295.253 37.2586L294.759 28.8384L280.759 26.8384L272.259 28.3384L282.759 32.3384C292.259 33.3384 291.258 34.8384 295.253 37.2586Z" stroke="black" stroke-width="0.5"/>
<path d="M293.761 36.8386C293.261 34.3385 282.261 34.1384 276.761 34.6384" stroke="black" stroke-width="0.5"/>
<path d="M299.761 66.8384L260.261 68.8384C259.761 63.8384 257.594 59.6717 255.761 57.8384L301.761 55.3384M300.261 52.8384C289.261 51.3384 278.261 46.5384 266.261 40.5384M228.261 30.8384L272.261 28.3384L280.761 26.8384" stroke="black" stroke-width="0.5"/>
<path d="M290.261 40.8384C290.261 38.8384 289.261 34.8384 285.761 32.8384C287.982 32.8384 291.358 33.8788 293.87 36.2484C294.333 37.7784 293.261 41.3384 290.219 42.8384C290.205 42.2481 290.261 41.5627 290.261 40.8384Z" fill="#E56E90"/>
<path d="M272.261 43.3384C279.256 43.6882 285.273 43.7933 290.654 44.3384M297.261 45.3384C295.158 44.8877 292.964 44.5725 290.654 44.3384M295.261 37.8384C294.843 37.2533 294.374 36.724 293.87 36.2484M290.654 44.3384C290.328 43.9936 290.234 43.4706 290.219 42.8384M290.219 42.8384C290.205 42.2481 290.261 41.5627 290.261 40.8384C290.261 38.8384 289.261 34.8384 285.761 32.8384C287.982 32.8384 291.358 33.8788 293.87 36.2484M290.219 42.8384C293.261 41.3384 294.333 37.7784 293.87 36.2484" stroke="black" stroke-width="0.5"/>
<path d="M290.261 40.8384C285.761 40.8384 283.761 36.8384 282.761 34.3384" stroke="black" stroke-width="0.5"/>
<path d="M132.259 12.9384C118.759 16.9384 106.759 22.8384 92.7588 35.8384C99.7588 23.8384 115.259 14.3384 130.759 9.33838L132.259 12.9384Z" fill="#EFC7D3" stroke="black" stroke-width="0.5"/>
<path d="M130.759 9.33838C110.759 15.0124 92.7588 32.3384 84.7588 30.3384C97.7588 20.8384 113.759 12.3384 130.259 7.83838L130.759 9.33838Z" fill="#EFC7D3" stroke="black" stroke-width="0.5"/>
<path d="M9.75946 48.3384H3.75946C1.25879 52.3384 1.25879 62.3384 1.75946 65.8384C0.258789 66.8384 0.259387 71.3384 1.25946 72.8384L5.25946 73.3384V74.8384L1.25946 76.8384V78.8384C5.25946 79.8384 13.7595 81.8384 21.7595 81.3384V79.8384H39.2595C38.5928 71.3384 40.2595 60.8384 49.2595 53.8384C46.7595 49.8384 39.7595 45.3384 36.7595 44.8384C26.7595 43.8384 11.7595 46.3384 9.75946 48.3384Z" fill="#EFC7D3" stroke="black" stroke-width="0.5"/>
<path d="M92.7607 35.8384C74.9274 36.6717 43.2607 41.5384 32.7607 44.5384L36.7607 44.8384C41.7607 46.3384 47.2607 50.6717 49.2607 53.8384C62.2598 44.3384 87.7598 51.3384 86.2598 78.8384H96.2598C89.2598 67.8384 90.2598 45.8384 92.7607 35.8384Z" fill="#EFC7D3" stroke="black" stroke-width="0.5"/>
<path d="M9.75879 48.3384H3.75879C36.259 28.8383 58.259 34.8384 84.2588 30.3384L93.259 35.8384C76.259 36.8384 47.2588 40.3384 33.2588 44.5384C25.2588 44.3384 11.2588 46.3384 9.75879 48.3384Z" fill="#EFC7D3" stroke="black" stroke-width="0.5"/>
<path d="M36.7602 44.8385C29.2602 43.8384 12.2602 45.8384 9.76024 48.3385C8.96024 50.7384 12.0936 53.6717 13.7602 54.8384C23.2603 56.3384 36.7602 50.3384 36.7602 44.8385Z" fill="#EFC7D3" stroke="black" stroke-width="0.5"/>
<path d="M3.75948 48.3384C10.7595 49.3384 4.75948 59.8384 1.75948 64.8384C1.25941 57.8384 1.75928 52.3384 3.75948 48.3384Z" fill="#EFC7D3" stroke="black" stroke-width="0.5"/>
<path d="M21.7588 84.3384V79.8384H39.2588L39.7588 84.3384H21.7588Z" fill="#EFC7D3" stroke="black" stroke-width="0.5"/>
<path d="M2.26074 65.8384C3.76074 68.3384 5.76074 71.505 5.26074 73.3384M21.7607 79.8384C11.2607 80.3384 6.76074 76.3384 7.76074 72.8384C8.26074 72.3384 9.76074 70.8384 10.7607 70.8384" stroke="black" stroke-width="0.5"/>
<path d="M31.7607 74.8384C29.2607 70.8384 23.7607 65.8385 20.7607 64.3385C19.0107 63.8384 16.3856 63.9634 13.6355 64.3385C12.0106 65.6718 10.7607 68.8384 11.2607 71.8384C11.2607 73.005 12.5682 75.3384 15.2607 75.3384C19.7607 75.3384 26.7607 75.8384 31.7607 74.8384Z" fill="#EFC7D3"/>
<path d="M5.76074 65.8385C8.01068 65.3384 10.8856 64.7135 13.6355 64.3385M13.6355 64.3385C16.3856 63.9634 19.0107 63.8384 20.7607 64.3385C23.7607 65.8385 29.2607 70.8384 31.7607 74.8384C26.7607 75.8384 19.7607 75.3384 15.2607 75.3384C12.5682 75.3384 11.2607 73.005 11.2607 71.8384C10.7607 68.8384 12.0106 65.6718 13.6355 64.3385Z" stroke="black" stroke-width="0.5"/>
<path d="M11.2607 71.3385C19.2607 69.8385 22.7607 72.467 25.7607 73.967M12.7607 74.3385L30.2607 73.8385" stroke="black" stroke-width="0.5"/>
<path d="M21.7588 82.8384H31.2588C33.2588 82.8384 34.7588 80.8384 34.2588 79.8384M37.7588 79.8384V84.3384" stroke="black" stroke-width="0.5"/>
<path d="M21.7607 81.3386C17.2607 81.3386 12.7607 81.8386 1.26069 78.8386V76.8386L5.26069 74.8386V73.3386L1.26069 72.8386C0.759766 71.3384 -0.240039 68.3384 1.75996 65.8384C1.2602 57.8384 1.7602 51.3384 3.76069 48.3381C36.2607 28.8385 58.2607 34.8386 84.2607 30.3386C162.261 -24.6615 244.261 12.3384 281.261 26.8386L294.761 28.8384L295.261 35.8384V38.8384C296.759 43.8384 298.094 48.3384 296.761 50.3384C299.261 51.3384 301.761 54.505 301.761 56.3384L299.761 66.3384C300.213 77.1863 297.805 77.4106 288.473 77.723C287.482 77.7562 285.413 77.7904 284.261 77.8384V79.3384L259.261 79.7694M21.7607 81.3386V84.3386H39.759L39.2607 79.8386M21.7607 81.3386V79.8386H39.2607M39.2607 79.8386C36.2607 38.3386 89.7607 41.3386 86.2607 80.3386V82.8384H212.761C206.761 39.3384 261.261 39.3384 259.261 79.7694M258.759 79.7694H259.261" stroke="black"/>
</svg>
