<svg width="303" height="96" viewBox="0 0 303 96" fill="none" xmlns="http://www.w3.org/2000/svg">
<circle cx="62.6875" cy="74.1995" r="20.5" stroke="black"/>
<circle cx="235.688" cy="74.1995" r="20.5" stroke="black"/>
<path d="M132.686 12.6993L131.186 9.19932C171.186 1.19943 192.686 1.69946 231.686 13.1994L228.186 17.6994C208.186 9.69937 190.186 8.69937 174.186 8.19944C171.686 7.69944 167.686 7.6994 165.186 8.19932C155.186 8.19944 143.186 9.69944 132.686 12.6993Z" fill="#EDADBF" stroke="black" stroke-width="0.5"/>
<path d="M131.186 9.19951L130.686 7.69951C166.686 -3.30054 199.186 0.699337 234.686 9.69951L231.686 13.1995C191.686 0.699463 165.686 2.19946 131.186 9.19951Z" fill="#EDADBF" stroke="black" stroke-width="0.5"/>
<path d="M131.186 9.19933C182.686 -2.3007 211.186 7.69934 231.686 13.1993" stroke="black" stroke-width="0.5"/>
<path d="M170.688 30.1995L174.188 8.19946C207.688 9.19946 219.188 14.6995 223.688 16.1995L226.17 28.1995C199.18 28.2001 181.685 29.6996 170.688 30.1995Z" fill="#EDADBF"/>
<path d="M226.688 30.6995L223.688 16.1995C219.188 14.6995 207.688 9.19946 174.188 8.19946L170.688 30.1995C181.688 29.6995 199.188 28.1995 226.188 28.1995" stroke="black" stroke-width="0.5"/>
<path d="M165.188 8.19946C132.188 9.19946 112.188 18.1995 93.1875 35.6995L95.6875 33.6995L159.688 30.6995L165.188 8.19946Z" fill="#EDADBF" stroke="black" stroke-width="0.5"/>
<path d="M239.686 22.6995C236.019 20.0328 230.186 17.6995 223.686 16.1995L226.186 28.1995H232.686C235.686 26.6995 238.686 24.4682 239.686 22.6995Z" fill="#EDADBF" stroke="black" stroke-width="0.5"/>
<path d="M96.6875 78.6995H163.688L198.188 77.1995H212.688L213.188 82.6995H199.188H98.1875H86.6875V78.6995H96.6875Z" fill="#EDADBF"/>
<path d="M96.6875 78.6995H163.688L198.188 77.1995M96.6875 78.6995C96.6875 80.1995 97.1875 81.1995 98.1875 82.6995M96.6875 78.6995H86.6875V82.6995H98.1875M198.188 77.1995L199.188 82.6995M198.188 77.1995H212.688L213.188 82.6995H199.188M199.188 82.6995H98.1875" stroke="black" stroke-width="0.5"/>
<path d="M96.6866 78.6995C92.1875 74.1995 89.1875 52.1995 93.1866 35.6995L165.188 31.6995C161.188 36.6995 160.188 70.6995 163.687 78.6995H96.6866Z" fill="#EDADBF" stroke="black" stroke-width="0.5"/>
<path d="M228.687 30.6995L165.187 31.6995C161.188 36.6995 160.188 70.6995 163.687 78.6995L198.187 77.1995C202.687 75.6995 209.187 70.1995 228.687 30.6995Z" fill="#EDADBF" stroke="black" stroke-width="0.5"/>
<path d="M170.688 30.1995C166.188 30.6995 162.688 30.6995 159.688 30.6995L165.188 8.19954C168.188 7.69946 171.188 7.69946 174.188 8.19954L170.688 30.1995Z" fill="#EDADBF" stroke="black" stroke-width="0.5"/>
<path d="M99.1875 32.1995C103.688 37.6995 110.688 34.1995 114.688 32.6995C115.688 17.1994 102.688 25.1993 99.1875 32.1995Z" fill="#EDADBF" stroke="black" stroke-width="0.5"/>
<path d="M234.686 9.69946L231.686 13.1995C248.686 18.6995 259.186 21.6995 271.686 28.1995H273.186L281.186 26.6995C266.186 20.1995 258.686 17.6995 234.686 9.69946Z" fill="#EFC7D3" stroke="black" stroke-width="0.5"/>
<path d="M271.686 28.1995C261.186 22.6995 242.186 16.1995 231.686 13.1995L229.686 15.6995L244.686 23.1995C243.186 25.6995 239.186 27.6995 233.186 30.3995C245.186 29.6995 262.186 28.6995 271.686 28.1995Z" fill="#EFC7D3" stroke="black" stroke-width="0.5"/>
<path d="M277.188 34.4995L283.186 32.1995L272.687 28.1995L228.687 30.6995C221.187 45.6995 206.187 76.1995 198.187 77.1995H212.687C211.187 66.1995 220.687 42.6995 245.688 51.6995C256.188 46.1995 266.188 40.6995 277.188 34.4995Z" fill="#EFC7D3" stroke="black" stroke-width="0.5"/>
<path d="M278.186 34.1995C266.186 40.6995 256.186 46.1995 245.686 51.6995C250.186 54.6995 260.686 60.6995 259.686 79.6995L284.686 79.1995V77.6995C293.186 76.6995 301.686 80.1995 300.186 66.1995L302.186 56.1995C302.186 54.6995 299.686 50.6995 297.186 50.1995C298.686 47.6995 295.686 38.6995 295.686 38.6995V37.1995L291.686 34.1995L286.686 32.6995L283.186 32.1995L278.186 34.1995Z" fill="#EFC7D3" stroke="black" stroke-width="0.5"/>
<path d="M281.186 26.6995L272.686 28.1995L283.186 32.1995C292.686 33.1995 291.684 34.6995 295.68 37.1196L295.186 28.6995L281.186 26.6995Z" fill="#EFC7D3"/>
<path d="M295.686 37.1995L295.68 37.1196M295.68 37.1196L295.186 28.6995L281.186 26.6995L272.686 28.1995L283.186 32.1995C292.686 33.1995 291.684 34.6995 295.68 37.1196Z" stroke="black" stroke-width="0.5"/>
<path d="M294.188 36.6997C293.688 34.1996 282.688 33.9995 277.188 34.4995" stroke="black" stroke-width="0.5"/>
<path d="M300.188 66.6995L260.688 68.6995C260.188 63.6995 258.021 59.5328 256.188 57.6995L302.188 55.1995M300.688 52.6995C289.688 51.1995 278.688 46.3995 266.688 40.3995M228.688 30.6995L272.688 28.1995L281.188 26.6995" stroke="black" stroke-width="0.5"/>
<path d="M290.688 40.6995C290.688 38.6995 289.688 34.6995 286.188 32.6995C288.408 32.6995 291.785 33.7399 294.296 36.1094C294.76 37.6395 293.688 41.1995 290.646 42.6995C290.632 42.1092 290.688 41.4238 290.688 40.6995Z" fill="#EFC7D3"/>
<path d="M272.688 43.1995C279.683 43.5492 285.7 43.6543 291.081 44.1995M297.688 45.1995C295.585 44.7488 293.391 44.4336 291.081 44.1995M295.688 37.6995C295.27 37.1143 294.8 36.5851 294.296 36.1094M291.081 44.1995C290.754 43.8547 290.66 43.3317 290.646 42.6995M290.646 42.6995C290.632 42.1092 290.688 41.4238 290.688 40.6995C290.688 38.6995 289.688 34.6995 286.188 32.6995C288.408 32.6995 291.785 33.7399 294.296 36.1094M290.646 42.6995C293.688 41.1995 294.76 37.6395 294.296 36.1094" stroke="black" stroke-width="0.5"/>
<path d="M290.688 40.6995C286.188 40.6995 284.188 36.6995 283.188 34.1995" stroke="black" stroke-width="0.5"/>
<path d="M132.686 12.7994C119.186 16.7994 107.186 22.6995 93.186 35.6995C100.186 23.6995 115.686 14.1995 131.186 9.19946L132.686 12.7994Z" fill="#EDADBF" stroke="black" stroke-width="0.5"/>
<path d="M131.186 9.19946C111.186 14.8735 93.186 32.1995 85.186 30.1995C98.186 20.6995 114.186 12.1995 130.686 7.69946L131.186 9.19946Z" fill="#EDADBF" stroke="black" stroke-width="0.5"/>
<path d="M10.1867 48.1993H4.1867C1.68604 52.1993 1.68604 62.1993 2.1867 65.6993C0.686035 66.6993 0.686633 71.1993 1.6867 72.6993L5.6867 73.1993V74.6993L1.6867 76.6993V78.6993C5.6867 79.6993 14.1867 81.6993 22.1867 81.1993V79.6993H39.6867C39.02 71.1993 40.6867 60.6993 49.6867 53.6993C47.1867 49.6993 40.1867 45.1993 37.1867 44.6993C27.1867 43.6993 12.1867 46.1993 10.1867 48.1993Z" fill="#EDADBF" stroke="black" stroke-width="0.5"/>
<path d="M93.1875 35.6995C75.3542 36.5328 43.6875 41.3995 33.1875 44.3995L37.1875 44.6995C42.1875 46.1995 47.6875 50.5328 49.6875 53.6995C62.6865 44.1995 88.1865 51.1995 86.6865 78.6995H96.6865C89.6865 67.6995 90.6865 45.6995 93.1875 35.6995Z" fill="#EDADBF" stroke="black" stroke-width="0.5"/>
<path d="M10.1855 48.1995H4.18555C36.6857 28.6994 58.6858 34.6995 84.6855 30.1995L93.6858 35.6995C76.6858 36.6995 47.6855 40.1995 33.6855 44.3995C25.6855 44.1995 11.6855 46.1995 10.1855 48.1995Z" fill="#EDADBF" stroke="black" stroke-width="0.5"/>
<path d="M37.1875 44.6995C29.6875 43.6995 12.6875 45.6995 10.1875 48.1995C9.38749 50.5995 12.5208 53.5328 14.1875 54.6995C23.6875 56.1995 37.1875 50.1995 37.1875 44.6995Z" fill="#EDADBF" stroke="black" stroke-width="0.5"/>
<path d="M4.18673 48.1995C11.1867 49.1995 5.18673 59.6995 2.18673 64.6995C1.68666 57.6995 2.18652 52.1995 4.18673 48.1995Z" fill="#EDADBF" stroke="black" stroke-width="0.5"/>
<path d="M22.186 84.1995V79.6995H39.686L40.186 84.1995H22.186Z" fill="#EDADBF" stroke="black" stroke-width="0.5"/>
<path d="M2.6875 65.6992C4.1875 68.1992 6.1875 71.3659 5.6875 73.1992M22.1875 79.6992C11.6875 80.1992 7.1875 76.1992 8.1875 72.6992C8.6875 72.1992 10.1875 70.6992 11.1875 70.6992" stroke="black" stroke-width="0.5"/>
<path d="M32.1875 74.6993C29.6875 70.6993 24.1875 65.6994 21.1875 64.1994C19.4375 63.6994 16.8124 63.8244 14.0623 64.1994C12.4374 65.5327 11.1875 68.6993 11.6875 71.6993C11.6875 72.866 12.9949 75.1993 15.6875 75.1993C20.1875 75.1993 27.1875 75.6993 32.1875 74.6993Z" fill="#EDADBF"/>
<path d="M6.1875 65.6994C8.43744 65.1994 11.3124 64.5744 14.0623 64.1994M14.0623 64.1994C16.8124 63.8244 19.4375 63.6994 21.1875 64.1994C24.1875 65.6994 29.6875 70.6993 32.1875 74.6993C27.1875 75.6993 20.1875 75.1993 15.6875 75.1993C12.9949 75.1993 11.6875 72.866 11.6875 71.6993C11.1875 68.6993 12.4374 65.5327 14.0623 64.1994Z" stroke="black" stroke-width="0.5"/>
<path d="M11.6875 71.1994C19.6875 69.6995 23.1875 72.3279 26.1875 73.8279M13.1875 74.1995L30.6875 73.6995" stroke="black" stroke-width="0.5"/>
<path d="M22.1855 82.6992H31.6855C33.6855 82.6992 35.1855 80.6992 34.6855 79.6992M38.1855 79.6992V84.1992" stroke="black" stroke-width="0.5"/>
<path d="M22.1874 81.1997C17.6874 81.1997 13.1874 81.6997 1.68745 78.6997V76.6997L5.68745 74.6997V73.1997L1.68745 72.6997C1.18652 71.1995 0.186719 68.1995 2.18671 65.6995C1.68696 57.6995 2.18696 51.1995 4.18745 48.1992C36.6874 28.6996 58.6874 34.6997 84.6874 30.1997C162.687 -24.8005 244.687 12.1994 281.687 26.6996L295.187 28.6995L295.687 35.6995V38.6995C297.186 43.6995 298.521 48.1995 297.187 50.1995C299.687 51.1995 302.187 54.3661 302.187 56.1995L300.187 66.1995C300.639 77.0474 298.231 77.2717 288.9 77.5841C287.909 77.6173 285.84 77.6515 284.687 77.6995V79.1995L259.687 79.6305M22.1874 81.1997V84.1997H40.1858L39.6875 79.6997M22.1874 81.1997V79.6997H39.6875M39.6875 79.6997C36.6875 38.1997 90.1874 41.1997 86.6874 80.1997V82.6995H213.187C207.187 39.1995 261.687 39.1995 259.687 79.6305M259.186 79.6305H259.687" stroke="black"/>
</svg>
