<svg width="303" height="95" viewBox="0 0 303 95" fill="none" xmlns="http://www.w3.org/2000/svg">
<circle cx="62.249" cy="73.707" r="20.5" fill="#E56E90" stroke="black"/>
<circle cx="235.249" cy="73.707" r="20.5" fill="#E56E90" stroke="black"/>
<path d="M132.247 12.2069L130.747 8.70689C170.747 0.706999 192.247 1.20703 231.247 12.707L227.747 17.207C207.747 9.20694 189.747 8.20694 173.747 7.70701C171.247 7.20701 167.247 7.20697 164.747 7.70689C154.747 7.70701 142.747 9.20701 132.247 12.2069Z" fill="#E56E90" stroke="black" stroke-width="0.5"/>
<path d="M130.747 8.70708L130.247 7.20708C166.247 -3.79297 198.747 0.206905 234.247 9.20708L231.247 12.7071C191.247 0.207031 165.247 1.70703 130.747 8.70708Z" fill="#E56E90" stroke="black" stroke-width="0.5"/>
<path d="M130.747 8.70714C182.247 -2.79288 210.747 7.20715 231.247 12.7071" stroke="black" stroke-width="0.5"/>
<path d="M170.249 29.707L173.749 7.70703C207.249 8.70703 218.749 14.207 223.249 15.707L225.732 27.707C198.742 27.7077 181.247 29.2071 170.249 29.707Z" fill="#E56E90"/>
<path d="M226.249 30.207L223.249 15.707C218.749 14.207 207.249 8.70703 173.749 7.70703L170.249 29.707C181.249 29.207 198.749 27.707 225.749 27.707" stroke="black" stroke-width="0.5"/>
<path d="M164.749 7.70703C131.749 8.70703 111.749 17.707 92.749 35.207L95.249 33.207L159.249 30.207L164.749 7.70703Z" fill="#E56E90" stroke="black" stroke-width="0.5"/>
<path d="M239.247 22.207C235.58 19.5404 229.747 17.207 223.247 15.707L225.747 27.707H232.247C235.247 26.207 238.247 23.9758 239.247 22.207Z" fill="#E56E90" stroke="black" stroke-width="0.5"/>
<path d="M96.249 78.207H163.249L197.749 76.707H212.249L212.749 82.207H198.749H97.749H86.249V78.207H96.249Z" fill="#E56E90"/>
<path d="M96.249 78.207H163.249L197.749 76.707M96.249 78.207C96.249 79.707 96.749 80.707 97.749 82.207M96.249 78.207H86.249V82.207H97.749M197.749 76.707L198.749 82.207M197.749 76.707H212.249L212.749 82.207H198.749M198.749 82.207H97.749" stroke="black" stroke-width="0.5"/>
<path d="M96.2482 78.207C91.749 73.707 88.7491 51.707 92.7482 35.207L164.749 31.207C160.749 36.207 159.749 70.207 163.249 78.207H96.2482Z" fill="#E56E90" stroke="black" stroke-width="0.5"/>
<path d="M228.249 30.207L164.749 31.207C160.749 36.207 159.749 70.207 163.249 78.207L197.749 76.707C202.249 75.207 208.749 69.707 228.249 30.207Z" fill="#E56E90" stroke="black" stroke-width="0.5"/>
<path d="M170.249 29.7071C165.749 30.2071 162.249 30.2071 159.249 30.2071L164.749 7.70711C167.749 7.20703 170.749 7.20703 173.749 7.70711L170.249 29.7071Z" fill="#E56E90" stroke="black" stroke-width="0.5"/>
<path d="M98.749 31.7073C103.249 37.2073 110.249 33.7073 114.249 32.2073C115.249 16.7072 102.249 24.7072 98.749 31.7073Z" fill="#E56E90" stroke="black" stroke-width="0.5"/>
<path d="M234.247 9.20703L231.247 12.707C248.247 18.207 258.747 21.207 271.247 27.707H272.747L280.747 26.207C265.747 19.707 258.247 17.207 234.247 9.20703Z" fill="#E0426F" stroke="black" stroke-width="0.5"/>
<path d="M271.247 27.707C260.747 22.207 241.747 15.707 231.247 12.707L229.247 15.207L244.247 22.707C242.747 25.207 238.747 27.207 232.747 29.907C244.747 29.207 261.747 28.207 271.247 27.707Z" fill="#E0426F" stroke="black" stroke-width="0.5"/>
<path d="M276.749 34.007L282.747 31.707L272.248 27.707L228.248 30.207C220.748 45.207 205.748 75.707 197.748 76.707H212.248C210.748 65.707 220.248 42.207 245.249 51.207C255.749 45.707 265.749 40.207 276.749 34.007Z" fill="#E0426F" stroke="black" stroke-width="0.5"/>
<path d="M277.747 33.7071C265.747 40.2071 255.747 45.7071 245.247 51.2071C249.747 54.207 260.247 60.207 259.247 79.207L284.247 78.707V77.207C292.747 76.207 301.247 79.707 299.747 65.707L301.747 55.707C301.747 54.207 299.247 50.207 296.747 49.707C298.247 47.207 295.247 38.207 295.247 38.207V36.707L291.247 33.707L286.247 32.207L282.747 31.707L277.747 33.7071Z" fill="#E0426F" stroke="black" stroke-width="0.5"/>
<path d="M280.747 26.207L272.247 27.707L282.747 31.707C292.247 32.707 291.246 34.207 295.241 36.6272L294.747 28.207L280.747 26.207Z" fill="#E0426F"/>
<path d="M295.247 36.707L295.241 36.6272M295.241 36.6272L294.747 28.207L280.747 26.207L272.247 27.707L282.747 31.707C292.247 32.707 291.246 34.207 295.241 36.6272Z" stroke="black" stroke-width="0.5"/>
<path d="M293.749 36.2072C293.249 33.7071 282.249 33.507 276.749 34.007" stroke="black" stroke-width="0.5"/>
<path d="M299.749 66.207L260.249 68.207C259.749 63.207 257.582 59.0404 255.749 57.207L301.749 54.707M300.249 52.207C289.249 50.707 278.249 45.907 266.249 39.907M228.249 30.207L272.249 27.707L280.749 26.207" stroke="black" stroke-width="0.5"/>
<path d="M290.249 40.207C290.249 38.207 289.249 34.207 285.749 32.207C287.97 32.207 291.347 33.2474 293.858 35.617C294.322 37.147 293.249 40.707 290.207 42.207C290.194 41.6167 290.249 40.9313 290.249 40.207Z" fill="#E0426F"/>
<path d="M272.249 42.707C279.245 43.0568 285.262 43.1619 290.642 43.707M297.249 44.707C295.146 44.2564 292.953 43.9411 290.642 43.707M295.249 37.207C294.831 36.6219 294.362 36.0927 293.858 35.617M290.642 43.707C290.316 43.3623 290.222 42.8392 290.207 42.207M290.207 42.207C290.194 41.6168 290.249 40.9313 290.249 40.207C290.249 38.207 289.249 34.207 285.749 32.207C287.97 32.207 291.347 33.2474 293.858 35.617M290.207 42.207C293.249 40.707 294.322 37.147 293.858 35.617" stroke="black" stroke-width="0.5"/>
<path d="M290.249 40.207C285.749 40.207 283.749 36.207 282.749 33.707" stroke="black" stroke-width="0.5"/>
<path d="M132.247 12.307C118.747 16.307 106.747 22.207 92.7471 35.207C99.7471 23.207 115.247 13.707 130.747 8.70703L132.247 12.307Z" stroke="black" stroke-width="0.5"/>
<path d="M130.747 8.70703C110.747 14.3811 92.7471 31.707 84.7471 29.707C97.7471 20.207 113.747 11.707 130.247 7.20703L130.747 8.70703Z" stroke="black" stroke-width="0.5"/>
<path d="M9.74774 47.7069H3.74774C1.24707 51.7069 1.24707 61.7069 1.74774 65.2069C0.24707 66.2069 0.247668 70.7069 1.24774 72.2069L5.24774 72.7069V74.2069L1.24774 76.2069V78.2069C5.24774 79.2069 13.7477 81.2069 21.7477 80.7069V79.2069H39.2477C38.5811 70.7069 40.2477 60.2069 49.2477 53.2069C46.7477 49.2069 39.7477 44.7069 36.7477 44.2069C26.7477 43.2069 11.7477 45.7069 9.74774 47.7069Z" stroke="black" stroke-width="0.5"/>
<path d="M92.749 35.207C74.9157 36.0404 43.249 40.907 32.749 43.907L36.749 44.207C41.749 45.707 47.249 50.0404 49.249 53.207C62.248 43.707 87.748 50.707 86.248 78.207H96.248C89.248 67.207 90.248 45.207 92.749 35.207Z" stroke="black" stroke-width="0.5"/>
<path d="M9.74707 47.7071H3.74707C36.2473 28.207 58.2473 34.207 84.2471 29.707L93.2473 35.207C76.2473 36.207 47.2471 39.707 33.2471 43.907C25.2471 43.707 11.2471 45.707 9.74707 47.7071Z" stroke="black" stroke-width="0.5"/>
<path d="M36.7485 44.2071C29.2485 43.207 12.2485 45.207 9.74852 47.7071C8.94852 50.107 12.0819 53.0404 13.7485 54.207C23.2485 55.707 36.7485 49.707 36.7485 44.2071Z" stroke="black" stroke-width="0.5"/>
<path d="M3.74777 47.707C10.7478 48.707 4.74777 59.207 1.74777 64.207C1.2477 57.207 1.74756 51.707 3.74777 47.707Z" stroke="black" stroke-width="0.5"/>
<path d="M21.7471 83.707V79.207H39.2471L39.7471 83.707H21.7471Z" stroke="black" stroke-width="0.5"/>
<path d="M2.24902 65.207C3.74902 67.707 5.74902 70.8737 5.24902 72.707M21.749 79.207C11.249 79.707 6.74902 75.707 7.74902 72.207C8.24902 71.707 9.74902 70.207 10.749 70.207" stroke="black" stroke-width="0.5"/>
<path d="M5.74902 65.2072C7.99897 64.7072 10.8739 64.0822 13.6238 63.7072M13.6238 63.7072C16.3739 63.3322 18.999 63.2072 20.749 63.7072C23.749 65.2072 29.249 70.2072 31.749 74.2072C26.749 75.2072 19.749 74.7072 15.249 74.7072C12.5564 74.7072 11.249 72.3738 11.249 71.2072C10.749 68.2072 11.9989 65.0405 13.6238 63.7072Z" stroke="black" stroke-width="0.5"/>
<path d="M11.249 70.7072C19.249 69.2073 22.749 71.8358 25.749 73.3358M12.749 73.7073L30.249 73.2073" stroke="black" stroke-width="0.5"/>
<path d="M21.7471 82.207H31.2471C33.2471 82.207 34.7471 80.207 34.2471 79.207M37.7471 79.207V83.707" stroke="black" stroke-width="0.5"/>
<path d="M21.749 80.7073C17.249 80.7073 12.749 81.2073 1.24897 78.2073V76.2073L5.24897 74.2073V72.7073L1.24897 72.2073C0.748047 70.707 -0.251757 67.707 1.74824 65.207C1.24848 57.207 1.74848 50.707 3.74897 47.7068C36.249 28.2072 58.249 34.2072 84.249 29.7072C162.249 -25.2929 244.249 11.707 281.249 26.2072L294.749 28.207L295.249 35.207V38.207C296.747 43.207 298.082 47.707 296.749 49.707C299.249 50.707 301.749 53.8737 301.749 55.707L299.749 65.707C300.201 76.5549 297.793 76.7792 288.461 77.0917C287.47 77.1249 285.401 77.159 284.249 77.207V78.707L259.249 79.1381M21.749 80.7073V83.7073H39.7473L39.249 79.2073M21.749 80.7073V79.2073H39.249M39.249 79.2073C36.249 37.7073 89.749 40.7073 86.249 79.7073V82.207H212.749C206.749 38.707 261.249 38.707 259.249 79.1381M258.747 79.1381H259.249" stroke="black"/>
</svg>
