<svg width="304" height="96" viewBox="0 0 304 96" fill="none" xmlns="http://www.w3.org/2000/svg">
<circle cx="63.0835" cy="74.2146" r="20.5" fill="#EDADBF" stroke="black"/>
<circle cx="236.083" cy="74.2146" r="20.5" fill="#EDADBF" stroke="black"/>
<path d="M133.082 12.7145L131.582 9.21445C171.582 1.21457 193.082 1.7146 232.082 13.2145L228.582 17.7145C208.582 9.71451 190.582 8.71451 174.582 8.21458C172.082 7.71458 168.082 7.71454 165.582 8.21445C155.582 8.21458 143.582 9.71458 133.082 12.7145Z" fill="#E56E90" stroke="black" stroke-width="0.5"/>
<path d="M131.582 9.21464L131.082 7.71464C167.082 -3.2854 199.582 0.714474 235.082 9.71465L232.082 13.2146C192.082 0.7146 166.082 2.2146 131.582 9.21464Z" fill="#E56E90" stroke="black" stroke-width="0.5"/>
<path d="M131.582 9.21447C183.082 -2.28556 211.582 7.71448 232.082 13.2145" stroke="black" stroke-width="0.5"/>
<path d="M171.083 30.2146L174.583 8.2146C208.083 9.2146 219.583 14.7146 224.083 16.2146L226.566 28.2146C199.576 28.2152 182.081 29.7147 171.083 30.2146Z" fill="#E56E90"/>
<path d="M227.083 30.7146L224.083 16.2146C219.583 14.7146 208.083 9.2146 174.583 8.2146L171.083 30.2146C182.083 29.7146 199.583 28.2146 226.583 28.2146" stroke="black" stroke-width="0.5"/>
<path d="M165.583 8.2146C132.583 9.2146 112.583 18.2146 93.5835 35.7146L96.0835 33.7146L160.083 30.7146L165.583 8.2146Z" fill="#E56E90" stroke="black" stroke-width="0.5"/>
<path d="M240.082 22.7146C236.415 20.0479 230.582 17.7146 224.082 16.2146L226.582 28.2146H233.082C236.082 26.7146 239.082 24.4833 240.082 22.7146Z" fill="#E56E90" stroke="black" stroke-width="0.5"/>
<path d="M97.0835 78.7146H164.083L198.583 77.2146H213.083L213.583 82.7146H199.583H98.5835H87.0835V78.7146H97.0835Z" fill="#E56E90"/>
<path d="M97.0835 78.7146H164.083L198.583 77.2146M97.0835 78.7146C97.0835 80.2146 97.5835 81.2146 98.5835 82.7146M97.0835 78.7146H87.0835V82.7146H98.5835M198.583 77.2146L199.583 82.7146M198.583 77.2146H213.083L213.583 82.7146H199.583M199.583 82.7146H98.5835" stroke="black" stroke-width="0.5"/>
<path d="M97.0826 78.7146C92.5835 74.2146 89.5835 52.2146 93.5826 35.7146L165.583 31.7146C161.583 36.7146 160.583 70.7146 164.083 78.7146H97.0826Z" fill="#E56E90" stroke="black" stroke-width="0.5"/>
<path d="M229.083 30.7146L165.583 31.7146C161.583 36.7146 160.583 70.7146 164.083 78.7146L198.583 77.2146C203.083 75.7146 209.583 70.2146 229.083 30.7146Z" fill="#E56E90" stroke="black" stroke-width="0.5"/>
<path d="M171.083 30.2147C166.583 30.7147 163.083 30.7147 160.083 30.7147L165.583 8.21467C168.583 7.7146 171.583 7.7146 174.583 8.21467L171.083 30.2147Z" fill="#E56E90" stroke="black" stroke-width="0.5"/>
<path d="M99.5835 32.2146C104.083 37.7146 111.083 34.2146 115.083 32.7146C116.083 17.2145 103.083 25.2145 99.5835 32.2146Z" fill="#E56E90" stroke="black" stroke-width="0.5"/>
<path d="M235.082 9.7146L232.082 13.2146C249.082 18.7146 259.582 21.7146 272.082 28.2146H273.582L281.582 26.7146C266.582 20.2146 259.082 17.7146 235.082 9.7146Z" fill="#EFC7D3" stroke="black" stroke-width="0.5"/>
<path d="M272.082 28.2146C261.582 22.7146 242.582 16.2146 232.082 13.2146L230.082 15.7146L245.082 23.2146C243.582 25.7146 239.582 27.7146 233.582 30.4146C245.582 29.7146 262.582 28.7146 272.082 28.2146Z" fill="#EFC7D3" stroke="black" stroke-width="0.5"/>
<path d="M277.583 34.5146L283.582 32.2146L273.083 28.2146L229.083 30.7146C221.583 45.7146 206.583 76.2146 198.583 77.2146H213.083C211.583 66.2146 221.083 42.7146 246.083 51.7146C256.583 46.2146 266.583 40.7146 277.583 34.5146Z" fill="#EFC7D3" stroke="black" stroke-width="0.5"/>
<path d="M278.582 34.2146C266.582 40.7146 256.582 46.2146 246.082 51.7146C250.582 54.7146 261.082 60.7146 260.082 79.7146L285.082 79.2146V77.7146C293.582 76.7146 302.082 80.2146 300.582 66.2146L302.582 56.2146C302.582 54.7146 300.082 50.7146 297.582 50.2146C299.082 47.7146 296.082 38.7146 296.082 38.7146V37.2146L292.082 34.2146L287.082 32.7146L283.582 32.2146L278.582 34.2146Z" fill="#EFC7D3" stroke="black" stroke-width="0.5"/>
<path d="M281.582 26.7146L273.082 28.2146L283.582 32.2146C293.082 33.2146 292.081 34.7146 296.076 37.1348L295.582 28.7146L281.582 26.7146Z" fill="#EFC7D3"/>
<path d="M296.082 37.2146L296.076 37.1348M296.076 37.1348L295.582 28.7146L281.582 26.7146L273.082 28.2146L283.582 32.2146C293.082 33.2146 292.081 34.7146 296.076 37.1348Z" stroke="black" stroke-width="0.5"/>
<path d="M294.583 36.7148C294.083 34.2147 283.083 34.0146 277.583 34.5146" stroke="black" stroke-width="0.5"/>
<path d="M300.583 66.7146L261.083 68.7146C260.583 63.7146 258.417 59.5479 256.583 57.7146L302.583 55.2146M301.083 52.7146C290.083 51.2146 279.083 46.4146 267.083 40.4146M229.083 30.7146L273.083 28.2146L281.583 26.7146" stroke="black" stroke-width="0.5"/>
<path d="M291.083 40.7146C291.083 38.7146 290.083 34.7146 286.583 32.7146C288.804 32.7146 292.181 33.755 294.692 36.1246C295.156 37.6546 294.083 41.2146 291.042 42.7146C291.028 42.1243 291.083 41.4389 291.083 40.7146Z" fill="#EFC7D3"/>
<path d="M273.083 43.2146C280.079 43.5644 286.096 43.6695 291.477 44.2146M298.083 45.2146C295.981 44.764 293.787 44.4487 291.477 44.2146M296.083 37.7146C295.666 37.1295 295.196 36.6002 294.692 36.1246M291.477 44.2146C291.15 43.8698 291.056 43.3468 291.042 42.7146M291.042 42.7146C291.028 42.1243 291.083 41.4389 291.083 40.7146C291.083 38.7146 290.083 34.7146 286.583 32.7146C288.804 32.7146 292.181 33.755 294.692 36.1246M291.042 42.7146C294.083 41.2146 295.156 37.6546 294.692 36.1246" stroke="black" stroke-width="0.5"/>
<path d="M291.083 40.7146C286.583 40.7146 284.583 36.7146 283.583 34.2146" stroke="black" stroke-width="0.5"/>
<path d="M133.082 12.8146C119.582 16.8146 107.582 22.7146 93.582 35.7146C100.582 23.7146 116.082 14.2146 131.582 9.2146L133.082 12.8146Z" fill="#E56E90" stroke="black" stroke-width="0.5"/>
<path d="M131.582 9.2146C111.582 14.8886 93.582 32.2146 85.582 30.2146C98.582 20.7146 114.582 12.2146 131.082 7.7146L131.582 9.2146Z" fill="#E56E90" stroke="black" stroke-width="0.5"/>
<path d="M10.5827 48.2145H4.5827C2.08203 52.2145 2.08203 62.2145 2.5827 65.7145C1.08203 66.7145 1.08263 71.2145 2.0827 72.7145L6.0827 73.2145V74.7145L2.0827 76.7145V78.7145C6.0827 79.7145 14.5827 81.7145 22.5827 81.2145V79.7145H40.0827C39.416 71.2145 41.0827 60.7145 50.0827 53.7145C47.5827 49.7145 40.5827 45.2145 37.5827 44.7145C27.5827 43.7145 12.5827 46.2145 10.5827 48.2145Z" fill="#E56E90" stroke="black" stroke-width="0.5"/>
<path d="M93.5835 35.7146C75.7502 36.5479 44.0835 41.4146 33.5835 44.4146L37.5835 44.7146C42.5835 46.2146 48.0835 50.5479 50.0835 53.7146C63.0825 44.2146 88.5825 51.2146 87.0825 78.7146H97.0825C90.0825 67.7146 91.0825 45.7146 93.5835 35.7146Z" fill="#E56E90" stroke="black" stroke-width="0.5"/>
<path d="M10.582 48.2147H4.58203C37.0822 28.7146 59.0823 34.7146 85.082 30.2146L94.0823 35.7146C77.0823 36.7146 48.082 40.2146 34.082 44.4146C26.082 44.2146 12.082 46.2146 10.582 48.2147Z" fill="#E56E90" stroke="black" stroke-width="0.5"/>
<path d="M37.5835 44.7147C30.0835 43.7146 13.0835 45.7146 10.5835 48.2147C9.78349 50.6146 12.9168 53.5479 14.5835 54.7146C24.0835 56.2146 37.5835 50.2146 37.5835 44.7147Z" fill="#E56E90" stroke="black" stroke-width="0.5"/>
<path d="M4.58273 48.2146C11.5827 49.2146 5.58273 59.7146 2.58273 64.7146C2.08266 57.7146 2.58252 52.2146 4.58273 48.2146Z" fill="#E56E90" stroke="black" stroke-width="0.5"/>
<path d="M22.582 84.2146V79.7146H40.082L40.582 84.2146H22.582Z" fill="#E56E90" stroke="black" stroke-width="0.5"/>
<path d="M3.08398 65.7144C4.58398 68.2144 6.58398 71.381 6.08398 73.2144M22.584 79.7144C12.084 80.2144 7.58398 76.2144 8.58398 72.7144C9.08398 72.2144 10.584 70.7144 11.584 70.7144" stroke="black" stroke-width="0.5"/>
<path d="M32.584 74.7145C30.084 70.7145 24.584 65.7146 21.584 64.2146C19.8339 63.7145 17.2088 63.8395 14.4588 64.2146C12.8338 65.5479 11.584 68.7145 12.084 71.7145C12.084 72.8811 13.3914 75.2145 16.084 75.2145C20.584 75.2145 27.584 75.7145 32.584 74.7145Z" fill="#E56E90"/>
<path d="M6.58398 65.7146C8.83393 65.2145 11.7088 64.5896 14.4588 64.2146M14.4588 64.2146C17.2088 63.8395 19.8339 63.7145 21.584 64.2146C24.584 65.7146 30.084 70.7145 32.584 74.7145C27.584 75.7145 20.584 75.2145 16.084 75.2145C13.3914 75.2145 12.084 72.8811 12.084 71.7145C11.584 68.7145 12.8338 65.5479 14.4588 64.2146Z" stroke="black" stroke-width="0.5"/>
<path d="M12.084 71.2146C20.084 69.7146 23.584 72.3431 26.584 73.8431M13.584 74.2146L31.084 73.7146" stroke="black" stroke-width="0.5"/>
<path d="M22.582 82.7144H32.082C34.082 82.7144 35.582 80.7144 35.082 79.7144M38.582 79.7144V84.2144" stroke="black" stroke-width="0.5"/>
<path d="M22.5834 81.2148C18.0834 81.2148 13.5834 81.7148 2.08344 78.7148V76.7148L6.08344 74.7148V73.2148L2.08344 72.7149C1.58252 71.2146 0.582715 68.2146 2.58271 65.7146C2.08295 57.7146 2.58295 51.2146 4.58344 48.2143C37.0834 28.7147 59.0834 34.7148 85.0834 30.2148C163.083 -24.7853 245.083 12.2146 282.083 26.7148L295.583 28.7146L296.083 35.7146V38.7146C297.582 43.7146 298.917 48.2146 297.583 50.2146C300.083 51.2146 302.583 54.3813 302.583 56.2146L300.583 66.2146C301.035 77.0625 298.627 77.2868 289.296 77.5992C288.305 77.6324 286.236 77.6666 285.083 77.7146V79.2146L260.083 79.6456M22.5834 81.2148V84.2148H40.5818L40.0835 79.7148M22.5834 81.2148V79.7148H40.0835M40.0835 79.7148C37.0835 38.2148 90.5834 41.2148 87.0834 80.2148V82.7146H213.583C207.583 39.2146 262.083 39.2146 260.083 79.6456M259.582 79.6456H260.083" stroke="black"/>
</svg>
