<svg width="304" height="96" viewBox="0 0 304 96" fill="none" xmlns="http://www.w3.org/2000/svg">
<circle cx="63.0938" cy="74.3838" r="20.5" fill="#EDADBF" stroke="black"/>
<circle cx="236.094" cy="74.3838" r="20.5" fill="#EDADBF" stroke="black"/>
<path d="M133.092 12.8836L131.592 9.38364C171.592 1.38376 193.092 1.88379 232.092 13.3837L228.592 17.8837C208.592 9.8837 190.592 8.8837 174.592 8.38377C172.092 7.88377 168.092 7.88373 165.592 8.38364C155.592 8.38377 143.592 9.88377 133.092 12.8836Z" fill="#E56E90" stroke="black" stroke-width="0.5"/>
<path d="M131.592 9.38383L131.092 7.88383C167.092 -3.11621 199.592 0.883663 235.092 9.88383L232.092 13.3838C192.092 0.883789 166.092 2.38379 131.592 9.38383Z" fill="#E56E90" stroke="black" stroke-width="0.5"/>
<path d="M131.592 9.3839C183.092 -2.11613 211.592 7.88391 232.092 13.3839" stroke="black" stroke-width="0.5"/>
<path d="M171.094 30.3838L174.594 8.38379C208.094 9.38379 219.594 14.8838 224.094 16.3838L226.577 28.3838C199.586 28.3844 182.091 29.8839 171.094 30.3838Z" fill="#E56E90"/>
<path d="M227.094 30.8838L224.094 16.3838C219.594 14.8838 208.094 9.38379 174.594 8.38379L171.094 30.3838C182.094 29.8838 199.594 28.3838 226.594 28.3838" stroke="black" stroke-width="0.5"/>
<path d="M165.594 8.38379C132.594 9.38379 112.594 18.3838 93.5938 35.8838L96.0938 33.8838L160.094 30.8838L165.594 8.38379Z" fill="#E56E90" stroke="black" stroke-width="0.5"/>
<path d="M240.092 22.8838C236.425 20.2171 230.592 17.8838 224.092 16.3838L226.592 28.3838H233.092C236.092 26.8838 239.092 24.6525 240.092 22.8838Z" fill="#E56E90" stroke="black" stroke-width="0.5"/>
<path d="M97.0938 78.8838H164.094L198.594 77.3838H213.094L213.594 82.8838H199.594H98.5938H87.0938V78.8838H97.0938Z" fill="#E56E90"/>
<path d="M97.0938 78.8838H164.094L198.594 77.3838M97.0938 78.8838C97.0938 80.3838 97.5938 81.3838 98.5938 82.8838M97.0938 78.8838H87.0938V82.8838H98.5938M198.594 77.3838L199.594 82.8838M198.594 77.3838H213.094L213.594 82.8838H199.594M199.594 82.8838H98.5938" stroke="black" stroke-width="0.5"/>
<path d="M97.0929 78.8838C92.5937 74.3838 89.5938 52.3838 93.5929 35.8838L165.594 31.8838C161.594 36.8838 160.594 70.8838 164.094 78.8838H97.0929Z" fill="#E56E90" stroke="black" stroke-width="0.5"/>
<path d="M229.094 30.8838L165.594 31.8838C161.594 36.8838 160.594 70.8838 164.094 78.8838L198.594 77.3838C203.094 75.8838 209.594 70.3838 229.094 30.8838Z" fill="#E56E90" stroke="black" stroke-width="0.5"/>
<path d="M171.094 30.3839C166.594 30.8839 163.094 30.8839 160.094 30.8839L165.594 8.38386C168.594 7.88379 171.594 7.88379 174.594 8.38386L171.094 30.3839Z" fill="#E56E90" stroke="black" stroke-width="0.5"/>
<path d="M99.5938 32.384C104.094 37.884 111.094 34.384 115.094 32.884C116.094 17.3839 103.094 25.3839 99.5938 32.384Z" fill="#E56E90" stroke="black" stroke-width="0.5"/>
<path d="M235.092 9.88379L232.092 13.3838C249.092 18.8838 259.592 21.8838 272.092 28.3838H273.592L281.592 26.8838C266.592 20.3838 259.092 17.8838 235.092 9.88379Z" stroke="black" stroke-width="0.5"/>
<path d="M272.092 28.3838C261.592 22.8838 242.592 16.3838 232.092 13.3838L230.092 15.8838L245.092 23.3838C243.592 25.8838 239.592 27.8838 233.592 30.5838C245.592 29.8838 262.592 28.8838 272.092 28.3838Z" stroke="black" stroke-width="0.5"/>
<path d="M277.594 34.6838L283.592 32.3838L273.093 28.3838L229.093 30.8838C221.593 45.8838 206.593 76.3838 198.593 77.3838H213.093C211.593 66.3838 221.093 42.8838 246.094 51.8838C256.594 46.3838 266.594 40.8838 277.594 34.6838Z" stroke="black" stroke-width="0.5"/>
<path d="M278.592 34.3838C266.592 40.8838 256.592 46.3838 246.092 51.8838C250.592 54.8838 261.092 60.8838 260.092 79.8838L285.092 79.3838V77.8838C293.592 76.8838 302.092 80.3838 300.592 66.3838L302.592 56.3838C302.592 54.8838 300.092 50.8838 297.592 50.3838C299.092 47.8838 296.092 38.8838 296.092 38.8838V37.3838L292.092 34.3838L287.092 32.8838L283.592 32.3838L278.592 34.3838Z" stroke="black" stroke-width="0.5"/>
<path d="M296.092 37.3838L296.086 37.304M296.086 37.304L295.592 28.8838L281.592 26.8838L273.092 28.3838L283.592 32.3838C293.092 33.3838 292.091 34.8838 296.086 37.304Z" stroke="black" stroke-width="0.5"/>
<path d="M294.594 36.884C294.094 34.3839 283.094 34.1838 277.594 34.6838" stroke="black" stroke-width="0.5"/>
<path d="M300.594 66.8838L261.094 68.8838C260.594 63.8838 258.427 59.7171 256.594 57.8838L302.594 55.3838M301.094 52.8838C290.094 51.3838 279.094 46.5838 267.094 40.5838M229.094 30.8838L273.094 28.3838L281.594 26.8838" stroke="black" stroke-width="0.5"/>
<path d="M273.094 43.3838C280.089 43.7336 286.106 43.8387 291.487 44.3838M298.094 45.3838C295.991 44.9331 293.798 44.6179 291.487 44.3838M296.094 37.8838C295.676 37.2987 295.207 36.7694 294.703 36.2938M291.487 44.3838C291.161 44.039 291.067 43.516 291.052 42.8838M291.052 42.8838C291.038 42.2935 291.094 41.6081 291.094 40.8838C291.094 38.8838 290.094 34.8838 286.594 32.8838C288.815 32.8838 292.191 33.9242 294.703 36.2938M291.052 42.8838C294.094 41.3838 295.166 37.8238 294.703 36.2938" stroke="black" stroke-width="0.5"/>
<path d="M291.094 40.8838C286.594 40.8838 284.594 36.8838 283.594 34.3838" stroke="black" stroke-width="0.5"/>
<path d="M133.092 12.9838C119.592 16.9838 107.592 22.8838 93.5923 35.8838C100.592 23.8838 116.092 14.3838 131.592 9.38379L133.092 12.9838Z" fill="#E0426F" stroke="black" stroke-width="0.5"/>
<path d="M131.592 9.38379C111.592 15.0578 93.5923 32.3838 85.5923 30.3838C98.5923 20.8838 114.592 12.3838 131.092 7.88379L131.592 9.38379Z" fill="#E0426F" stroke="black" stroke-width="0.5"/>
<path d="M10.593 48.3837H4.59295C2.09229 52.3837 2.09229 62.3837 2.59295 65.8837C1.09229 66.8837 1.09288 71.3837 2.09295 72.8837L6.09295 73.3837V74.8837L2.09295 76.8837V78.8837C6.09295 79.8837 14.593 81.8837 22.593 81.3837V79.8837H40.0929C39.4263 71.3837 41.0929 60.8837 50.0929 53.8837C47.5929 49.8837 40.5929 45.3837 37.5929 44.8837C27.5929 43.8837 12.593 46.3837 10.593 48.3837Z" fill="#E0426F" stroke="black" stroke-width="0.5"/>
<path d="M93.5938 35.8838C75.7604 36.7171 44.0938 41.5838 33.5938 44.5838L37.5938 44.8838C42.5938 46.3838 48.0938 50.7171 50.0938 53.8838C63.0928 44.3838 88.5928 51.3838 87.0928 78.8838H97.0928C90.0928 67.8838 91.0928 45.8838 93.5938 35.8838Z" fill="#E0426F" stroke="black" stroke-width="0.5"/>
<path d="M10.5918 48.3838H4.5918C37.092 28.8837 59.092 34.8838 85.0918 30.3838L94.092 35.8838C77.092 36.8838 48.0918 40.3838 34.0918 44.5838C26.0918 44.3838 12.0918 46.3838 10.5918 48.3838Z" fill="#E0426F" stroke="black" stroke-width="0.5"/>
<path d="M37.5937 44.8839C30.0937 43.8838 13.0937 45.8838 10.5937 48.3839C9.79374 50.7838 12.9271 53.7171 14.5937 54.8838C24.0938 56.3838 37.5937 50.3838 37.5937 44.8839Z" fill="#E0426F" stroke="black" stroke-width="0.5"/>
<path d="M4.59298 48.3838C11.593 49.3838 5.59298 59.8838 2.59298 64.8838C2.09291 57.8838 2.59277 52.3838 4.59298 48.3838Z" fill="#E0426F" stroke="black" stroke-width="0.5"/>
<path d="M22.5923 84.3838V79.8838H40.0923L40.5923 84.3838H22.5923Z" fill="#E0426F" stroke="black" stroke-width="0.5"/>
<path d="M3.09375 65.8838C4.59375 68.3838 6.59375 71.5505 6.09375 73.3838M22.5938 79.8838C12.0938 80.3838 7.59375 76.3838 8.59375 72.8838C9.09375 72.3838 10.5938 70.8838 11.5938 70.8838" stroke="black" stroke-width="0.5"/>
<path d="M32.5938 74.8839C30.0938 70.8839 24.5938 65.884 21.5938 64.384C19.8437 63.884 17.2186 64.009 14.4685 64.384C12.8436 65.7173 11.5938 68.8839 12.0938 71.8839C12.0938 73.0506 13.4012 75.3839 16.0938 75.3839C20.5938 75.3839 27.5938 75.8839 32.5938 74.8839Z" fill="#E0426F"/>
<path d="M6.59375 65.884C8.84369 65.384 11.7186 64.759 14.4685 64.384M14.4685 64.384C17.2186 64.009 19.8437 63.884 21.5938 64.384C24.5938 65.884 30.0938 70.8839 32.5938 74.8839C27.5938 75.8839 20.5938 75.3839 16.0938 75.3839C13.4012 75.3839 12.0938 73.0506 12.0938 71.8839C11.5938 68.8839 12.8436 65.7173 14.4685 64.384Z" stroke="black" stroke-width="0.5"/>
<path d="M12.0938 71.384C20.0938 69.884 23.5938 72.5125 26.5938 74.0125M13.5938 74.384L31.0938 73.884" stroke="black" stroke-width="0.5"/>
<path d="M22.5918 82.8838H32.0918C34.0918 82.8838 35.5918 80.8838 35.0918 79.8838M38.5918 79.8838V84.3838" stroke="black" stroke-width="0.5"/>
<path d="M22.5937 81.384C18.0937 81.384 13.5937 81.884 2.0937 78.884V76.884L6.0937 74.884V73.384L2.0937 72.884C1.59277 71.3838 0.592969 68.3838 2.59296 65.8838C2.09321 57.8838 2.59321 51.3838 4.5937 48.3835C37.0937 28.8839 59.0937 34.884 85.0937 30.384C163.094 -24.6161 245.094 12.3838 282.094 26.884L295.594 28.8838L296.094 35.8838V38.8838C297.592 43.8838 298.927 48.3838 297.594 50.3838C300.094 51.3838 302.594 54.5505 302.594 56.3838L300.594 66.3838C301.046 77.2317 298.638 77.456 289.306 77.7684C288.315 77.8016 286.246 77.8358 285.094 77.8838V79.3838L260.094 79.8148M22.5937 81.384V84.384H40.592L40.0937 79.884M22.5937 81.384V79.884H40.0937M40.0937 79.884C37.0937 38.384 90.5937 41.384 87.0937 80.384V82.8838H213.594C207.594 39.3838 262.094 39.3838 260.094 79.8148M259.592 79.8148H260.094" stroke="black"/>
</svg>
