<svg width="303" height="96" viewBox="0 0 303 96" fill="none" xmlns="http://www.w3.org/2000/svg">
<circle cx="62.458" cy="74.1995" r="20.5" fill="#E0426F" stroke="black"/>
<circle cx="235.458" cy="74.1995" r="20.5" fill="#E0426F" stroke="black"/>
<path d="M132.456 12.6993L130.956 9.19932C170.956 1.19943 192.456 1.69946 231.456 13.1994L227.956 17.6994C207.956 9.69937 189.956 8.69937 173.956 8.19944C171.456 7.69944 167.456 7.6994 164.956 8.19932C154.956 8.19944 142.956 9.69944 132.456 12.6993Z" fill="#EDADBF" stroke="black" stroke-width="0.5"/>
<path d="M130.956 9.19951L130.456 7.69951C166.456 -3.30054 198.956 0.699337 234.456 9.69951L231.456 13.1995C191.456 0.699463 165.456 2.19946 130.956 9.19951Z" fill="#EDADBF" stroke="black" stroke-width="0.5"/>
<path d="M130.956 9.19933C182.456 -2.3007 210.956 7.69934 231.456 13.1993" stroke="black" stroke-width="0.5"/>
<path d="M170.458 30.1995L173.958 8.19946C207.458 9.19946 218.958 14.6995 223.458 16.1995L225.941 28.1995C198.951 28.2001 181.456 29.6996 170.458 30.1995Z" fill="#EDADBF"/>
<path d="M226.458 30.6995L223.458 16.1995C218.958 14.6995 207.458 9.19946 173.958 8.19946L170.458 30.1995C181.458 29.6995 198.958 28.1995 225.958 28.1995" stroke="black" stroke-width="0.5"/>
<path d="M164.958 8.19946C131.958 9.19946 111.958 18.1995 92.958 35.6995L95.458 33.6995L159.458 30.6995L164.958 8.19946Z" fill="#EDADBF" stroke="black" stroke-width="0.5"/>
<path d="M239.456 22.6995C235.789 20.0328 229.956 17.6995 223.456 16.1995L225.956 28.1995H232.456C235.456 26.6995 238.456 24.4682 239.456 22.6995Z" fill="#EDADBF" stroke="black" stroke-width="0.5"/>
<path d="M96.458 78.6995H163.458L197.958 77.1995H212.458L212.958 82.6995H198.958H97.958H86.458V78.6995H96.458Z" fill="#EDADBF"/>
<path d="M96.458 78.6995H163.458L197.958 77.1995M96.458 78.6995C96.458 80.1995 96.958 81.1995 97.958 82.6995M96.458 78.6995H86.458V82.6995H97.958M197.958 77.1995L198.958 82.6995M197.958 77.1995H212.458L212.958 82.6995H198.958M198.958 82.6995H97.958" stroke="black" stroke-width="0.5"/>
<path d="M96.4571 78.6995C91.958 74.1995 88.9581 52.1995 92.9571 35.6995L164.958 31.6995C160.958 36.6995 159.958 70.6995 163.458 78.6995H96.4571Z" fill="#EDADBF" stroke="black" stroke-width="0.5"/>
<path d="M228.458 30.6995L164.958 31.6995C160.958 36.6995 159.958 70.6995 163.458 78.6995L197.958 77.1995C202.458 75.6995 208.958 70.1995 228.458 30.6995Z" fill="#EDADBF" stroke="black" stroke-width="0.5"/>
<path d="M170.458 30.1995C165.958 30.6995 162.458 30.6995 159.458 30.6995L164.958 8.19954C167.958 7.69946 170.958 7.69946 173.958 8.19954L170.458 30.1995Z" fill="#EDADBF" stroke="black" stroke-width="0.5"/>
<path d="M98.958 32.1995C103.458 37.6995 110.458 34.1995 114.458 32.6995C115.458 17.1994 102.458 25.1993 98.958 32.1995Z" fill="#EDADBF" stroke="black" stroke-width="0.5"/>
<path d="M234.456 9.69946L231.456 13.1995C248.456 18.6995 258.956 21.6995 271.456 28.1995H272.956L280.956 26.6995C265.956 20.1995 258.456 17.6995 234.456 9.69946Z" fill="#E56E90" stroke="black" stroke-width="0.5"/>
<path d="M271.456 28.1995C260.956 22.6995 241.956 16.1995 231.456 13.1995L229.456 15.6995L244.456 23.1995C242.956 25.6995 238.956 27.6995 232.956 30.3995C244.956 29.6995 261.956 28.6995 271.456 28.1995Z" fill="#E56E90" stroke="black" stroke-width="0.5"/>
<path d="M276.958 34.4995L282.956 32.1995L272.457 28.1995L228.457 30.6995C220.957 45.6995 205.957 76.1995 197.957 77.1995H212.457C210.957 66.1995 220.457 42.6995 245.458 51.6995C255.958 46.1995 265.958 40.6995 276.958 34.4995Z" fill="#E56E90" stroke="black" stroke-width="0.5"/>
<path d="M277.956 34.1995C265.956 40.6995 255.956 46.1995 245.456 51.6995C249.956 54.6995 260.456 60.6995 259.456 79.6995L284.456 79.1995V77.6995C292.956 76.6995 301.456 80.1995 299.956 66.1995L301.956 56.1995C301.956 54.6995 299.456 50.6995 296.956 50.1995C298.456 47.6995 295.456 38.6995 295.456 38.6995V37.1995L291.456 34.1995L286.456 32.6995L282.956 32.1995L277.956 34.1995Z" fill="#E56E90" stroke="black" stroke-width="0.5"/>
<path d="M280.956 26.6995L272.456 28.1995L282.956 32.1995C292.456 33.1995 291.455 34.6995 295.45 37.1196L294.956 28.6995L280.956 26.6995Z" fill="#E56E90"/>
<path d="M295.456 37.1995L295.45 37.1196M295.45 37.1196L294.956 28.6995L280.956 26.6995L272.456 28.1995L282.956 32.1995C292.456 33.1995 291.455 34.6995 295.45 37.1196Z" stroke="black" stroke-width="0.5"/>
<path d="M293.958 36.6997C293.458 34.1996 282.458 33.9995 276.958 34.4995" stroke="black" stroke-width="0.5"/>
<path d="M299.958 66.6995L260.458 68.6995C259.958 63.6995 257.791 59.5328 255.958 57.6995L301.958 55.1995M300.458 52.6995C289.458 51.1995 278.458 46.3995 266.458 40.3995M228.458 30.6995L272.458 28.1995L280.958 26.6995" stroke="black" stroke-width="0.5"/>
<path d="M290.458 40.6995C290.458 38.6995 289.458 34.6995 285.958 32.6995C288.179 32.6995 291.556 33.7399 294.067 36.1094C294.531 37.6395 293.458 41.1995 290.416 42.6995C290.403 42.1092 290.458 41.4238 290.458 40.6995Z" fill="#E56E90"/>
<path d="M272.458 43.1995C279.454 43.5492 285.471 43.6543 290.851 44.1995M297.458 45.1995C295.355 44.7488 293.162 44.4336 290.851 44.1995M295.458 37.6995C295.04 37.1143 294.571 36.5851 294.067 36.1094M290.851 44.1995C290.525 43.8547 290.431 43.3317 290.416 42.6995M290.416 42.6995C290.403 42.1092 290.458 41.4238 290.458 40.6995C290.458 38.6995 289.458 34.6995 285.958 32.6995C288.179 32.6995 291.556 33.7399 294.067 36.1094M290.416 42.6995C293.458 41.1995 294.531 37.6395 294.067 36.1094" stroke="black" stroke-width="0.5"/>
<path d="M290.458 40.6995C285.958 40.6995 283.958 36.6995 282.958 34.1995" stroke="black" stroke-width="0.5"/>
<path d="M132.456 12.7994C118.956 16.7994 106.956 22.6995 92.9561 35.6995C99.9561 23.6995 115.456 14.1995 130.956 9.19946L132.456 12.7994Z" fill="#EDADBF" stroke="black" stroke-width="0.5"/>
<path d="M130.956 9.19946C110.956 14.8735 92.9561 32.1995 84.9561 30.1995C97.9561 20.6995 113.956 12.1995 130.456 7.69946L130.956 9.19946Z" fill="#EDADBF" stroke="black" stroke-width="0.5"/>
<path d="M9.95672 48.1993H3.95672C1.45605 52.1993 1.45605 62.1993 1.95672 65.6993C0.456055 66.6993 0.456652 71.1993 1.45672 72.6993L5.45672 73.1993V74.6993L1.45672 76.6993V78.6993C5.45672 79.6993 13.9567 81.6993 21.9567 81.1993V79.6993H39.4567C38.7901 71.1993 40.4567 60.6993 49.4567 53.6993C46.9567 49.6993 39.9567 45.1993 36.9567 44.6993C26.9567 43.6993 11.9567 46.1993 9.95672 48.1993Z" fill="#EDADBF" stroke="black" stroke-width="0.5"/>
<path d="M92.958 35.6995C75.1247 36.5328 43.458 41.3995 32.958 44.3995L36.958 44.6995C41.958 46.1995 47.458 50.5328 49.458 53.6995C62.457 44.1995 87.957 51.1995 86.457 78.6995H96.457C89.457 67.6995 90.457 45.6995 92.958 35.6995Z" fill="#EDADBF" stroke="black" stroke-width="0.5"/>
<path d="M9.95606 48.1995H3.95605C36.4562 28.6994 58.4563 34.6995 84.4561 30.1995L93.4563 35.6995C76.4563 36.6995 47.4561 40.1995 33.4561 44.3995C25.4561 44.1995 11.4561 46.1995 9.95606 48.1995Z" fill="#EDADBF" stroke="black" stroke-width="0.5"/>
<path d="M36.9575 44.6995C29.4575 43.6995 12.4575 45.6995 9.95751 48.1995C9.15751 50.5995 12.2908 53.5328 13.9575 54.6995C23.4575 56.1995 36.9575 50.1995 36.9575 44.6995Z" fill="#EDADBF" stroke="black" stroke-width="0.5"/>
<path d="M3.95675 48.1995C10.9568 49.1995 4.95675 59.6995 1.95675 64.6995C1.45668 57.6995 1.95654 52.1995 3.95675 48.1995Z" fill="#EDADBF" stroke="black" stroke-width="0.5"/>
<path d="M21.9561 84.1995V79.6995H39.4561L39.9561 84.1995H21.9561Z" fill="#EDADBF" stroke="black" stroke-width="0.5"/>
<path d="M2.45801 65.6992C3.95801 68.1992 5.95801 71.3659 5.45801 73.1992M21.958 79.6992C11.458 80.1992 6.95801 76.1992 7.95801 72.6992C8.45801 72.1992 9.95801 70.6992 10.958 70.6992" stroke="black" stroke-width="0.5"/>
<path d="M31.958 74.6993C29.458 70.6993 23.958 65.6994 20.958 64.1994C19.208 63.6994 16.5829 63.8244 13.8328 64.1994C12.2079 65.5327 10.958 68.6993 11.458 71.6993C11.458 72.866 12.7654 75.1993 15.458 75.1993C19.958 75.1993 26.958 75.6993 31.958 74.6993Z" fill="#EDADBF"/>
<path d="M5.95801 65.6994C8.20795 65.1994 11.0829 64.5744 13.8328 64.1994M13.8328 64.1994C16.5829 63.8244 19.208 63.6994 20.958 64.1994C23.958 65.6994 29.458 70.6993 31.958 74.6993C26.958 75.6993 19.958 75.1993 15.458 75.1993C12.7654 75.1993 11.458 72.866 11.458 71.6993C10.958 68.6993 12.2079 65.5327 13.8328 64.1994Z" stroke="black" stroke-width="0.5"/>
<path d="M11.458 71.1994C19.458 69.6995 22.958 72.3279 25.958 73.8279M12.958 74.1995L30.458 73.6995" stroke="black" stroke-width="0.5"/>
<path d="M21.9561 82.6992H31.4561C33.4561 82.6992 34.9561 80.6992 34.4561 79.6992M37.9561 79.6992V84.1992" stroke="black" stroke-width="0.5"/>
<path d="M21.958 81.1997C17.458 81.1997 12.958 81.6997 1.45795 78.6997V76.6997L5.45795 74.6997V73.1997L1.45795 72.6997C0.957031 71.1995 -0.0427729 68.1995 1.95722 65.6995C1.45747 57.6995 1.95747 51.1995 3.95795 48.1992C36.458 28.6996 58.4579 34.6997 84.4579 30.1997C162.458 -24.8005 244.458 12.1994 281.458 26.6996L294.958 28.6995L295.458 35.6995V38.6995C296.956 43.6995 298.291 48.1995 296.958 50.1995C299.458 51.1995 301.958 54.3661 301.958 56.1995L299.958 66.1995C300.41 77.0474 298.002 77.2717 288.67 77.5841C287.679 77.6173 285.61 77.6515 284.458 77.6995V79.1995L259.458 79.6305M21.958 81.1997V84.1997H39.9563L39.458 79.6997M21.958 81.1997V79.6997H39.458M39.458 79.6997C36.458 38.1997 89.9579 41.1997 86.4579 80.1997V82.6995H212.958C206.958 39.1995 261.458 39.1995 259.458 79.6305M258.956 79.6305H259.458" stroke="black"/>
</svg>
