<svg width="303" height="95" viewBox="0 0 303 95" fill="none" xmlns="http://www.w3.org/2000/svg">
<circle cx="62.2607" cy="73.707" r="20.5" fill="#E56E90" stroke="black"/>
<circle cx="235.261" cy="73.707" r="20.5" fill="#E56E90" stroke="black"/>
<path d="M132.259 12.2069L130.759 8.70689C170.759 0.706999 192.259 1.20703 231.259 12.707L227.759 17.207C207.759 9.20694 189.759 8.20694 173.759 7.70701C171.259 7.20701 167.259 7.20697 164.759 7.70689C154.759 7.70701 142.759 9.20701 132.259 12.2069Z" fill="#E56E90" stroke="black" stroke-width="0.5"/>
<path d="M130.759 8.70708L130.259 7.20708C166.259 -3.79297 198.759 0.206905 234.259 9.20708L231.259 12.7071C191.259 0.207031 165.259 1.70703 130.759 8.70708Z" fill="#E56E90" stroke="black" stroke-width="0.5"/>
<path d="M130.759 8.70714C182.259 -2.79288 210.759 7.20715 231.259 12.7071" stroke="black" stroke-width="0.5"/>
<path d="M170.261 29.707L173.761 7.70703C207.261 8.70703 218.761 14.207 223.261 15.707L225.743 27.707C198.753 27.7077 181.258 29.2071 170.261 29.707Z" fill="#E56E90"/>
<path d="M226.261 30.207L223.261 15.707C218.761 14.207 207.261 8.70703 173.761 7.70703L170.261 29.707C181.261 29.207 198.761 27.707 225.761 27.707" stroke="black" stroke-width="0.5"/>
<path d="M164.761 7.70703C131.761 8.70703 111.761 17.707 92.7607 35.207L95.2607 33.207L159.261 30.207L164.761 7.70703Z" fill="#E56E90" stroke="black" stroke-width="0.5"/>
<path d="M239.259 22.207C235.592 19.5404 229.759 17.207 223.259 15.707L225.759 27.707H232.259C235.259 26.207 238.259 23.9758 239.259 22.207Z" fill="#E56E90" stroke="black" stroke-width="0.5"/>
<path d="M96.2607 78.207H163.261L197.761 76.707H212.261L212.761 82.207H198.761H97.7607H86.2607V78.207H96.2607Z" fill="#E56E90"/>
<path d="M96.2607 78.207H163.261L197.761 76.707M96.2607 78.207C96.2607 79.707 96.7607 80.707 97.7607 82.207M96.2607 78.207H86.2607V82.207H97.7607M197.761 76.707L198.761 82.207M197.761 76.707H212.261L212.761 82.207H198.761M198.761 82.207H97.7607" stroke="black" stroke-width="0.5"/>
<path d="M96.2599 78.207C91.7607 73.707 88.7608 51.707 92.7599 35.207L164.761 31.207C160.761 36.207 159.761 70.207 163.261 78.207H96.2599Z" fill="#E56E90" stroke="black" stroke-width="0.5"/>
<path d="M228.261 30.207L164.761 31.207C160.761 36.207 159.761 70.207 163.261 78.207L197.761 76.707C202.261 75.207 208.761 69.707 228.261 30.207Z" fill="#E56E90" stroke="black" stroke-width="0.5"/>
<path d="M170.261 29.7071C165.761 30.2071 162.261 30.2071 159.261 30.2071L164.761 7.70711C167.761 7.20703 170.761 7.20703 173.761 7.70711L170.261 29.7071Z" fill="#E56E90" stroke="black" stroke-width="0.5"/>
<path d="M98.7607 31.7073C103.261 37.2073 110.261 33.7073 114.261 32.2073C115.261 16.7072 102.261 24.7072 98.7607 31.7073Z" fill="#E56E90" stroke="black" stroke-width="0.5"/>
<path d="M234.259 9.20703L231.259 12.707C248.259 18.207 258.759 21.207 271.259 27.707H272.759L280.759 26.207C265.759 19.707 258.259 17.207 234.259 9.20703Z" fill="#E56E90" stroke="black" stroke-width="0.5"/>
<path d="M271.259 27.707C260.759 22.207 241.759 15.707 231.259 12.707L229.259 15.207L244.259 22.707C242.759 25.207 238.759 27.207 232.759 29.907C244.759 29.207 261.759 28.207 271.259 27.707Z" fill="#E56E90" stroke="black" stroke-width="0.5"/>
<path d="M276.761 34.007L282.759 31.707L272.26 27.707L228.26 30.207C220.76 45.207 205.76 75.707 197.76 76.707H212.26C210.76 65.707 220.26 42.207 245.261 51.207C255.761 45.707 265.761 40.207 276.761 34.007Z" fill="#E56E90" stroke="black" stroke-width="0.5"/>
<path d="M277.759 33.7071C265.759 40.2071 255.759 45.7071 245.259 51.2071C249.759 54.207 260.259 60.207 259.259 79.207L284.259 78.707V77.207C292.759 76.207 301.259 79.707 299.759 65.707L301.759 55.707C301.759 54.207 299.259 50.207 296.759 49.707C298.259 47.207 295.259 38.207 295.259 38.207V36.707L291.259 33.707L286.259 32.207L282.759 31.707L277.759 33.7071Z" fill="#E56E90" stroke="black" stroke-width="0.5"/>
<path d="M280.759 26.207L272.259 27.707L282.759 31.707C292.259 32.707 291.258 34.207 295.253 36.6272L294.759 28.207L280.759 26.207Z" fill="#E56E90"/>
<path d="M295.259 36.707L295.253 36.6272M295.253 36.6272L294.759 28.207L280.759 26.207L272.259 27.707L282.759 31.707C292.259 32.707 291.258 34.207 295.253 36.6272Z" stroke="black" stroke-width="0.5"/>
<path d="M293.761 36.2072C293.261 33.7071 282.261 33.507 276.761 34.007" stroke="black" stroke-width="0.5"/>
<path d="M299.761 66.207L260.261 68.207C259.761 63.207 257.594 59.0404 255.761 57.207L301.761 54.707M300.261 52.207C289.261 50.707 278.261 45.907 266.261 39.907M228.261 30.207L272.261 27.707L280.761 26.207" stroke="black" stroke-width="0.5"/>
<path d="M290.261 40.207C290.261 38.207 289.261 34.207 285.761 32.207C287.982 32.207 291.358 33.2474 293.87 35.617C294.333 37.147 293.261 40.707 290.219 42.207C290.205 41.6167 290.261 40.9313 290.261 40.207Z" fill="#E56E90"/>
<path d="M272.261 42.707C279.256 43.0568 285.273 43.1619 290.654 43.707M297.261 44.707C295.158 44.2564 292.964 43.9411 290.654 43.707M295.261 37.207C294.843 36.6219 294.374 36.0927 293.87 35.617M290.654 43.707C290.328 43.3623 290.234 42.8392 290.219 42.207M290.219 42.207C290.205 41.6168 290.261 40.9313 290.261 40.207C290.261 38.207 289.261 34.207 285.761 32.207C287.982 32.207 291.358 33.2474 293.87 35.617M290.219 42.207C293.261 40.707 294.333 37.147 293.87 35.617" stroke="black" stroke-width="0.5"/>
<path d="M290.261 40.207C285.761 40.207 283.761 36.207 282.761 33.707" stroke="black" stroke-width="0.5"/>
<path d="M132.259 12.307C118.759 16.307 106.759 22.207 92.7588 35.207C99.7588 23.207 115.259 13.707 130.759 8.70703L132.259 12.307Z" stroke="black" stroke-width="0.5"/>
<path d="M130.759 8.70703C110.759 14.3811 92.7588 31.707 84.7588 29.707C97.7588 20.207 113.759 11.707 130.259 7.20703L130.759 8.70703Z" stroke="black" stroke-width="0.5"/>
<path d="M9.75946 47.7069H3.75946C1.25879 51.7069 1.25879 61.7069 1.75946 65.2069C0.258789 66.2069 0.259387 70.7069 1.25946 72.2069L5.25946 72.7069V74.2069L1.25946 76.2069V78.2069C5.25946 79.2069 13.7595 81.2069 21.7595 80.7069V79.2069H39.2595C38.5928 70.7069 40.2595 60.2069 49.2595 53.2069C46.7595 49.2069 39.7595 44.7069 36.7595 44.2069C26.7595 43.2069 11.7595 45.7069 9.75946 47.7069Z" stroke="black" stroke-width="0.5"/>
<path d="M92.7607 35.207C74.9274 36.0404 43.2607 40.907 32.7607 43.907L36.7607 44.207C41.7607 45.707 47.2607 50.0404 49.2607 53.207C62.2598 43.707 87.7598 50.707 86.2598 78.207H96.2598C89.2598 67.207 90.2598 45.207 92.7607 35.207Z" stroke="black" stroke-width="0.5"/>
<path d="M9.75879 47.7071H3.75879C36.259 28.207 58.259 34.207 84.2588 29.707L93.259 35.207C76.259 36.207 47.2588 39.707 33.2588 43.907C25.2588 43.707 11.2588 45.707 9.75879 47.7071Z" stroke="black" stroke-width="0.5"/>
<path d="M36.7602 44.2071C29.2602 43.207 12.2602 45.207 9.76024 47.7071C8.96024 50.107 12.0936 53.0404 13.7602 54.207C23.2603 55.707 36.7602 49.707 36.7602 44.2071Z" stroke="black" stroke-width="0.5"/>
<path d="M3.75948 47.707C10.7595 48.707 4.75948 59.207 1.75948 64.207C1.25941 57.207 1.75928 51.707 3.75948 47.707Z" stroke="black" stroke-width="0.5"/>
<path d="M21.7588 83.707V79.207H39.2588L39.7588 83.707H21.7588Z" stroke="black" stroke-width="0.5"/>
<path d="M2.26074 65.207C3.76074 67.707 5.76074 70.8737 5.26074 72.707M21.7607 79.207C11.2607 79.707 6.76074 75.707 7.76074 72.207C8.26074 71.707 9.76074 70.207 10.7607 70.207" stroke="black" stroke-width="0.5"/>
<path d="M5.76074 65.2072C8.01068 64.7072 10.8856 64.0822 13.6355 63.7072M13.6355 63.7072C16.3856 63.3322 19.0107 63.2072 20.7607 63.7072C23.7607 65.2072 29.2607 70.2072 31.7607 74.2072C26.7607 75.2072 19.7607 74.7072 15.2607 74.7072C12.5682 74.7072 11.2607 72.3738 11.2607 71.2072C10.7607 68.2072 12.0106 65.0405 13.6355 63.7072Z" stroke="black" stroke-width="0.5"/>
<path d="M11.2607 70.7072C19.2607 69.2073 22.7607 71.8358 25.7607 73.3358M12.7607 73.7073L30.2607 73.2073" stroke="black" stroke-width="0.5"/>
<path d="M21.7588 82.207H31.2588C33.2588 82.207 34.7588 80.207 34.2588 79.207M37.7588 79.207V83.707" stroke="black" stroke-width="0.5"/>
<path d="M21.7607 80.7073C17.2607 80.7073 12.7607 81.2073 1.26069 78.2073V76.2073L5.26069 74.2073V72.7073L1.26069 72.2073C0.759766 70.707 -0.240039 67.707 1.75996 65.207C1.2602 57.207 1.7602 50.707 3.76069 47.7068C36.2607 28.2072 58.2607 34.2072 84.2607 29.7072C162.261 -25.2929 244.261 11.707 281.261 26.2072L294.761 28.207L295.261 35.207V38.207C296.759 43.207 298.094 47.707 296.761 49.707C299.261 50.707 301.761 53.8737 301.761 55.707L299.761 65.707C300.213 76.5549 297.805 76.7792 288.473 77.0917C287.482 77.1249 285.413 77.159 284.261 77.207V78.707L259.261 79.1381M21.7607 80.7073V83.7073H39.759L39.2607 79.2073M21.7607 80.7073V79.2073H39.2607M39.2607 79.2073C36.2607 37.7073 89.7607 40.7073 86.2607 79.7073V82.207H212.761C206.761 38.707 261.261 38.707 259.261 79.1381M258.759 79.1381H259.261" stroke="black"/>
</svg>
