<svg width="303" height="96" viewBox="0 0 303 96" fill="none" xmlns="http://www.w3.org/2000/svg">
<circle cx="62.6875" cy="74.3384" r="20.5" stroke="black"/>
<circle cx="235.688" cy="74.3384" r="20.5" stroke="black"/>
<path d="M132.686 12.8382L131.186 9.33823C171.186 1.33835 192.686 1.83838 231.686 13.3383L228.186 17.8383C208.186 9.83829 190.186 8.83829 174.186 8.33836C171.686 7.83836 167.686 7.83832 165.186 8.33823C155.186 8.33836 143.186 9.83836 132.686 12.8382Z" stroke="black" stroke-width="0.5"/>
<path d="M131.186 9.33842L130.686 7.83842C166.686 -3.16162 199.186 0.838253 234.686 9.83842L231.686 13.3384C191.686 0.838379 165.686 2.33838 131.186 9.33842Z" stroke="black" stroke-width="0.5"/>
<path d="M131.186 9.33837C182.686 -2.16166 211.186 7.83838 231.686 13.3384" stroke="black" stroke-width="0.5"/>
<path d="M226.688 30.8384L223.688 16.3384C219.188 14.8384 207.688 9.33838 174.188 8.33838L170.688 30.3384C181.688 29.8384 199.188 28.3384 226.188 28.3384" stroke="black" stroke-width="0.5"/>
<path d="M165.188 8.33838C132.188 9.33838 112.188 18.3384 93.1875 35.8384L95.6875 33.8384L159.688 30.8384L165.188 8.33838Z" stroke="black" stroke-width="0.5"/>
<path d="M239.686 22.8384C236.019 20.1717 230.186 17.8384 223.686 16.3384L226.186 28.3384H232.686C235.686 26.8384 238.686 24.6071 239.686 22.8384Z" stroke="black" stroke-width="0.5"/>
<path d="M96.6875 78.8384H163.688L198.188 77.3384M96.6875 78.8384C96.6875 80.3384 97.1875 81.3384 98.1875 82.8384M96.6875 78.8384H86.6875V82.8384H98.1875M198.188 77.3384L199.188 82.8384M198.188 77.3384H212.688L213.188 82.8384H199.188M199.188 82.8384H98.1875" stroke="black" stroke-width="0.5"/>
<path d="M96.6866 78.8384C92.1875 74.3384 89.1875 52.3384 93.1866 35.8384L165.188 31.8384C161.188 36.8384 160.188 70.8384 163.687 78.8384H96.6866Z" stroke="black" stroke-width="0.5"/>
<path d="M228.687 30.8384L165.187 31.8384C161.188 36.8384 160.188 70.8384 163.687 78.8384L198.187 77.3384C202.687 75.8384 209.187 70.3384 228.687 30.8384Z" stroke="black" stroke-width="0.5"/>
<path d="M170.688 30.3385C166.188 30.8385 162.688 30.8385 159.688 30.8385L165.188 8.33845C168.188 7.83838 171.188 7.83838 174.188 8.33845L170.688 30.3385Z" stroke="black" stroke-width="0.5"/>
<path d="M99.1875 32.3385C103.688 37.8385 110.688 34.3385 114.688 32.8385C115.688 17.3384 102.688 25.3384 99.1875 32.3385Z" stroke="black" stroke-width="0.5"/>
<path d="M234.686 9.83838L231.686 13.3384C248.686 18.8384 259.186 21.8384 271.686 28.3384H273.186L281.186 26.8384C266.186 20.3384 258.686 17.8384 234.686 9.83838Z" fill="#EFC7D3" stroke="black" stroke-width="0.5"/>
<path d="M271.686 28.3384C261.186 22.8384 242.186 16.3384 231.686 13.3384L229.686 15.8384L244.686 23.3384C243.186 25.8384 239.186 27.8384 233.186 30.5384C245.186 29.8384 262.186 28.8384 271.686 28.3384Z" fill="#EFC7D3" stroke="black" stroke-width="0.5"/>
<path d="M277.188 34.6384L283.186 32.3384L272.687 28.3384L228.687 30.8384C221.187 45.8384 206.187 76.3384 198.187 77.3384H212.687C211.187 66.3384 220.687 42.8384 245.688 51.8384C256.188 46.3384 266.188 40.8384 277.188 34.6384Z" fill="#EFC7D3" stroke="black" stroke-width="0.5"/>
<path d="M278.186 34.3384C266.186 40.8384 256.186 46.3384 245.686 51.8384C250.186 54.8384 260.686 60.8384 259.686 79.8384L284.686 79.3384V77.8384C293.186 76.8384 301.686 80.3384 300.186 66.3384L302.186 56.3384C302.186 54.8384 299.686 50.8384 297.186 50.3384C298.686 47.8384 295.686 38.8384 295.686 38.8384V37.3384L291.686 34.3384L286.686 32.8384L283.186 32.3384L278.186 34.3384Z" fill="#EFC7D3" stroke="black" stroke-width="0.5"/>
<path d="M281.186 26.8384L272.686 28.3384L283.186 32.3384C292.686 33.3384 291.684 34.8384 295.68 37.2586L295.186 28.8384L281.186 26.8384Z" fill="#EFC7D3"/>
<path d="M295.686 37.3384L295.68 37.2586M295.68 37.2586L295.186 28.8384L281.186 26.8384L272.686 28.3384L283.186 32.3384C292.686 33.3384 291.684 34.8384 295.68 37.2586Z" stroke="black" stroke-width="0.5"/>
<path d="M294.188 36.8386C293.688 34.3385 282.688 34.1384 277.188 34.6384" stroke="black" stroke-width="0.5"/>
<path d="M300.188 66.8384L260.688 68.8384C260.188 63.8384 258.021 59.6717 256.188 57.8384L302.188 55.3384M300.688 52.8384C289.688 51.3384 278.688 46.5384 266.688 40.5384M228.688 30.8384L272.688 28.3384L281.188 26.8384" stroke="black" stroke-width="0.5"/>
<path d="M290.688 40.8384C290.688 38.8384 289.688 34.8384 286.188 32.8384C288.408 32.8384 291.785 33.8788 294.296 36.2484C294.76 37.7784 293.688 41.3384 290.646 42.8384C290.632 42.2481 290.688 41.5627 290.688 40.8384Z" fill="#EFC7D3"/>
<path d="M272.688 43.3384C279.683 43.6882 285.7 43.7933 291.081 44.3384M297.688 45.3384C295.585 44.8877 293.391 44.5725 291.081 44.3384M295.688 37.8384C295.27 37.2533 294.8 36.724 294.296 36.2484M291.081 44.3384C290.754 43.9936 290.66 43.4706 290.646 42.8384M290.646 42.8384C290.632 42.2481 290.688 41.5627 290.688 40.8384C290.688 38.8384 289.688 34.8384 286.188 32.8384C288.408 32.8384 291.785 33.8788 294.296 36.2484M290.646 42.8384C293.688 41.3384 294.76 37.7784 294.296 36.2484" stroke="black" stroke-width="0.5"/>
<path d="M290.688 40.8384C286.188 40.8384 284.188 36.8384 283.188 34.3384" stroke="black" stroke-width="0.5"/>
<path d="M132.686 12.9384C119.186 16.9384 107.186 22.8384 93.186 35.8384C100.186 23.8384 115.686 14.3384 131.186 9.33838L132.686 12.9384Z" fill="#EFC7D3" stroke="black" stroke-width="0.5"/>
<path d="M131.186 9.33838C111.186 15.0124 93.186 32.3384 85.186 30.3384C98.186 20.8384 114.186 12.3384 130.686 7.83838L131.186 9.33838Z" fill="#EFC7D3" stroke="black" stroke-width="0.5"/>
<path d="M10.1867 48.3384H4.1867C1.68604 52.3384 1.68604 62.3384 2.1867 65.8384C0.686035 66.8384 0.686633 71.3384 1.6867 72.8384L5.6867 73.3384V74.8384L1.6867 76.8384V78.8384C5.6867 79.8384 14.1867 81.8384 22.1867 81.3384V79.8384H39.6867C39.02 71.3384 40.6867 60.8384 49.6867 53.8384C47.1867 49.8384 40.1867 45.3384 37.1867 44.8384C27.1867 43.8384 12.1867 46.3384 10.1867 48.3384Z" fill="#EFC7D3" stroke="black" stroke-width="0.5"/>
<path d="M93.1875 35.8384C75.3542 36.6717 43.6875 41.5384 33.1875 44.5384L37.1875 44.8384C42.1875 46.3384 47.6875 50.6717 49.6875 53.8384C62.6865 44.3384 88.1865 51.3384 86.6865 78.8384H96.6865C89.6865 67.8384 90.6865 45.8384 93.1875 35.8384Z" fill="#EFC7D3" stroke="black" stroke-width="0.5"/>
<path d="M10.1855 48.3384H4.18555C36.6857 28.8383 58.6858 34.8384 84.6855 30.3384L93.6858 35.8384C76.6858 36.8384 47.6855 40.3384 33.6855 44.5384C25.6855 44.3384 11.6855 46.3384 10.1855 48.3384Z" fill="#EFC7D3" stroke="black" stroke-width="0.5"/>
<path d="M37.1875 44.8385C29.6875 43.8384 12.6875 45.8384 10.1875 48.3385C9.38749 50.7384 12.5208 53.6717 14.1875 54.8384C23.6875 56.3384 37.1875 50.3384 37.1875 44.8385Z" fill="#EFC7D3" stroke="black" stroke-width="0.5"/>
<path d="M4.18673 48.3384C11.1867 49.3384 5.18673 59.8384 2.18673 64.8384C1.68666 57.8384 2.18652 52.3384 4.18673 48.3384Z" fill="#EFC7D3" stroke="black" stroke-width="0.5"/>
<path d="M22.186 84.3384V79.8384H39.686L40.186 84.3384H22.186Z" fill="#EFC7D3" stroke="black" stroke-width="0.5"/>
<path d="M2.6875 65.8384C4.1875 68.3384 6.1875 71.505 5.6875 73.3384M22.1875 79.8384C11.6875 80.3384 7.1875 76.3384 8.1875 72.8384C8.6875 72.3384 10.1875 70.8384 11.1875 70.8384" stroke="black" stroke-width="0.5"/>
<path d="M32.1875 74.8384C29.6875 70.8384 24.1875 65.8385 21.1875 64.3385C19.4375 63.8384 16.8124 63.9634 14.0623 64.3385C12.4374 65.6718 11.1875 68.8384 11.6875 71.8384C11.6875 73.005 12.9949 75.3384 15.6875 75.3384C20.1875 75.3384 27.1875 75.8384 32.1875 74.8384Z" fill="#EFC7D3"/>
<path d="M6.1875 65.8385C8.43744 65.3384 11.3124 64.7135 14.0623 64.3385M14.0623 64.3385C16.8124 63.9634 19.4375 63.8384 21.1875 64.3385C24.1875 65.8385 29.6875 70.8384 32.1875 74.8384C27.1875 75.8384 20.1875 75.3384 15.6875 75.3384C12.9949 75.3384 11.6875 73.005 11.6875 71.8384C11.1875 68.8384 12.4374 65.6718 14.0623 64.3385Z" stroke="black" stroke-width="0.5"/>
<path d="M11.6875 71.3385C19.6875 69.8385 23.1875 72.467 26.1875 73.967M13.1875 74.3385L30.6875 73.8385" stroke="black" stroke-width="0.5"/>
<path d="M22.1855 82.8384H31.6855C33.6855 82.8384 35.1855 80.8384 34.6855 79.8384M38.1855 79.8384V84.3384" stroke="black" stroke-width="0.5"/>
<path d="M22.1874 81.3386C17.6874 81.3386 13.1874 81.8386 1.68745 78.8386V76.8386L5.68745 74.8386V73.3386L1.68745 72.8386C1.18652 71.3384 0.186719 68.3384 2.18671 65.8384C1.68696 57.8384 2.18696 51.3384 4.18745 48.3381C36.6874 28.8385 58.6874 34.8386 84.6874 30.3386C162.687 -24.6615 244.687 12.3384 281.687 26.8386L295.187 28.8384L295.687 35.8384V38.8384C297.186 43.8384 298.521 48.3384 297.187 50.3384C299.687 51.3384 302.187 54.505 302.187 56.3384L300.187 66.3384C300.639 77.1863 298.231 77.4106 288.9 77.723C287.909 77.7562 285.84 77.7904 284.687 77.8384V79.3384L259.687 79.7694M22.1874 81.3386V84.3386H40.1858L39.6875 79.8386M22.1874 81.3386V79.8386H39.6875M39.6875 79.8386C36.6875 38.3386 90.1874 41.3386 86.6874 80.3386V82.8384H213.187C207.187 39.3384 261.687 39.3384 259.687 79.7694M259.186 79.7694H259.687" stroke="black"/>
</svg>
