<svg width="303" height="96" viewBox="0 0 303 96" fill="none" xmlns="http://www.w3.org/2000/svg">
<circle cx="62.8545" cy="74.5076" r="20.5" fill="#EFC7D3" stroke="black"/>
<circle cx="235.854" cy="74.5076" r="20.5" fill="#EFC7D3" stroke="black"/>
<path d="M132.853 13.0074L131.353 9.50742C171.353 1.50754 192.853 2.00757 231.853 13.5075L228.353 18.0075C208.353 10.0075 190.353 9.00748 174.353 8.50755C171.853 8.00755 167.853 8.00751 165.353 8.50742C155.353 8.50755 143.353 10.0075 132.853 13.0074Z" stroke="black" stroke-width="0.5"/>
<path d="M131.353 9.50761L130.853 8.00761C166.853 -2.99243 199.353 1.00744 234.853 10.0076L231.853 13.5076C191.853 1.00757 165.853 2.50757 131.353 9.50761Z" stroke="black" stroke-width="0.5"/>
<path d="M131.353 9.50756C182.853 -1.99247 211.353 8.00757 231.853 13.5076" stroke="black" stroke-width="0.5"/>
<path d="M226.854 31.0076L223.854 16.5076C219.354 15.0076 207.854 9.50757 174.354 8.50757L170.854 30.5076C181.854 30.0076 199.354 28.5076 226.354 28.5076" stroke="black" stroke-width="0.5"/>
<path d="M165.354 8.50757C132.354 9.50757 112.354 18.5076 93.3545 36.0076L95.8545 34.0076L159.854 31.0076L165.354 8.50757Z" stroke="black" stroke-width="0.5"/>
<path d="M239.853 23.0076C236.186 20.3409 230.353 18.0076 223.853 16.5076L226.353 28.5076H232.853C235.853 27.0076 238.853 24.7763 239.853 23.0076Z" stroke="black" stroke-width="0.5"/>
<path d="M96.8545 79.0076H163.854L198.354 77.5076M96.8545 79.0076C96.8545 80.5076 97.3545 81.5076 98.3545 83.0076M96.8545 79.0076H86.8545V83.0076H98.3545M198.354 77.5076L199.354 83.0076M198.354 77.5076H212.854L213.354 83.0076H199.354M199.354 83.0076H98.3545" stroke="black" stroke-width="0.5"/>
<path d="M96.8536 79.0076C92.3545 74.5076 89.3545 52.5076 93.3536 36.0076L165.354 32.0076C161.354 37.0076 160.354 71.0076 163.854 79.0076H96.8536Z" stroke="black" stroke-width="0.5"/>
<path d="M228.854 31.0076L165.354 32.0076C161.355 37.0076 160.355 71.0076 163.854 79.0076L198.354 77.5076C202.854 76.0076 209.354 70.5076 228.854 31.0076Z" stroke="black" stroke-width="0.5"/>
<path d="M170.854 30.5076C166.354 31.0076 162.854 31.0076 159.854 31.0076L165.354 8.50764C168.354 8.00757 171.354 8.00757 174.354 8.50764L170.854 30.5076Z" stroke="black" stroke-width="0.5"/>
<path d="M99.3545 32.5077C103.854 38.0077 110.854 34.5077 114.854 33.0077C115.854 17.5076 102.854 25.5076 99.3545 32.5077Z" stroke="black" stroke-width="0.5"/>
<path d="M234.853 10.0076L231.853 13.5076C248.853 19.0076 259.353 22.0076 271.853 28.5076H273.353L281.353 27.0076C266.353 20.5076 258.853 18.0076 234.853 10.0076Z" fill="#E0426F" stroke="black" stroke-width="0.5"/>
<path d="M271.853 28.5076C261.353 23.0076 242.353 16.5076 231.853 13.5076L229.853 16.0076L244.853 23.5076C243.353 26.0076 239.353 28.0076 233.353 30.7076C245.353 30.0076 262.353 29.0076 271.853 28.5076Z" fill="#E0426F" stroke="black" stroke-width="0.5"/>
<path d="M277.354 34.8076L283.353 32.5076L272.854 28.5076L228.854 31.0076C221.354 46.0076 206.354 76.5076 198.354 77.5076H212.854C211.354 66.5076 220.854 43.0076 245.854 52.0076C256.354 46.5076 266.354 41.0076 277.354 34.8076Z" fill="#E0426F" stroke="black" stroke-width="0.5"/>
<path d="M278.353 34.5076C266.353 41.0076 256.353 46.5076 245.853 52.0076C250.353 55.0076 260.853 61.0076 259.853 80.0076L284.853 79.5076V78.0076C293.353 77.0076 301.853 80.5076 300.353 66.5076L302.353 56.5076C302.353 55.0076 299.853 51.0076 297.353 50.5076C298.853 48.0076 295.853 39.0076 295.853 39.0076V37.5076L291.853 34.5076L286.853 33.0076L283.353 32.5076L278.353 34.5076Z" fill="#E0426F" stroke="black" stroke-width="0.5"/>
<path d="M281.353 27.0076L272.853 28.5076L283.353 32.5076C292.853 33.5076 291.851 35.0076 295.847 37.4277L295.353 29.0076L281.353 27.0076Z" fill="#E0426F"/>
<path d="M295.853 37.5076L295.847 37.4277M295.847 37.4277L295.353 29.0076L281.353 27.0076L272.853 28.5076L283.353 32.5076C292.853 33.5076 291.851 35.0076 295.847 37.4277Z" stroke="black" stroke-width="0.5"/>
<path d="M294.354 37.0078C293.854 34.5077 282.854 34.3076 277.354 34.8076" stroke="black" stroke-width="0.5"/>
<path d="M300.354 67.0076L260.854 69.0076C260.354 64.0076 258.188 59.8409 256.354 58.0076L302.354 55.5076M300.854 53.0076C289.854 51.5076 278.854 46.7076 266.854 40.7076M228.854 31.0076L272.854 28.5076L281.354 27.0076" stroke="black" stroke-width="0.5"/>
<path d="M290.854 41.0076C290.854 39.0076 289.854 35.0076 286.354 33.0076C288.575 33.0076 291.952 34.048 294.463 36.4176C294.927 37.9476 293.854 41.5076 290.813 43.0076C290.799 42.4173 290.854 41.7319 290.854 41.0076Z" fill="#E0426F"/>
<path d="M272.854 43.5076C279.85 43.8574 285.867 43.9624 291.248 44.5076M297.854 45.5076C295.751 45.0569 293.558 44.7417 291.248 44.5076M295.854 38.0076C295.437 37.4224 294.967 36.8932 294.463 36.4176M291.248 44.5076C290.921 44.1628 290.827 43.6398 290.813 43.0076M290.813 43.0076C290.799 42.4173 290.854 41.7319 290.854 41.0076C290.854 39.0076 289.854 35.0076 286.354 33.0076C288.575 33.0076 291.952 34.048 294.463 36.4176M290.813 43.0076C293.854 41.5076 294.927 37.9476 294.463 36.4176" stroke="black" stroke-width="0.5"/>
<path d="M290.854 41.0076C286.354 41.0076 284.354 37.0076 283.354 34.5076" stroke="black" stroke-width="0.5"/>
<path d="M132.853 13.1075C119.353 17.1075 107.353 23.0076 93.3525 36.0076C100.353 24.0076 115.853 14.5076 131.353 9.50757L132.853 13.1075Z" fill="#EDADBF" stroke="black" stroke-width="0.5"/>
<path d="M131.353 9.50757C111.353 15.1816 93.3525 32.5076 85.3525 30.5076C98.3525 21.0076 114.353 12.5076 130.853 8.00757L131.353 9.50757Z" fill="#EDADBF" stroke="black" stroke-width="0.5"/>
<path d="M10.3532 48.5076H4.35321C1.85254 52.5076 1.85254 62.5076 2.35321 66.0076C0.852539 67.0076 0.853137 71.5076 1.85321 73.0076L5.85321 73.5076V75.0076L1.85321 77.0076V79.0076C5.85321 80.0076 14.3532 82.0076 22.3532 81.5076V80.0076H39.8532C39.1865 71.5076 40.8532 61.0076 49.8532 54.0076C47.3532 50.0076 40.3532 45.5076 37.3532 45.0076C27.3532 44.0076 12.3532 46.5076 10.3532 48.5076Z" fill="#EDADBF" stroke="black" stroke-width="0.5"/>
<path d="M93.3545 36.0076C75.5212 36.8409 43.8545 41.7076 33.3545 44.7076L37.3545 45.0076C42.3545 46.5076 47.8545 50.8409 49.8545 54.0076C62.8535 44.5076 88.3535 51.5076 86.8535 79.0076H96.8535C89.8535 68.0076 90.8535 46.0076 93.3545 36.0076Z" fill="#EDADBF" stroke="black" stroke-width="0.5"/>
<path d="M10.3525 48.5076H4.35254C36.8527 29.0075 58.8528 35.0076 84.8525 30.5076L93.8528 36.0076C76.8528 37.0076 47.8525 40.5076 33.8525 44.7076C25.8525 44.5076 11.8525 46.5076 10.3525 48.5076Z" fill="#EDADBF" stroke="black" stroke-width="0.5"/>
<path d="M37.354 45.0076C29.854 44.0076 12.854 46.0076 10.354 48.5076C9.55399 50.9076 12.6873 53.8409 14.354 55.0076C23.854 56.5076 37.354 50.5076 37.354 45.0076Z" fill="#EDADBF" stroke="black" stroke-width="0.5"/>
<path d="M4.35323 48.5076C11.3532 49.5076 5.35323 60.0076 2.35323 65.0076C1.85316 58.0076 2.35303 52.5076 4.35323 48.5076Z" fill="#EDADBF" stroke="black" stroke-width="0.5"/>
<path d="M22.3525 84.5076V80.0076H39.8525L40.3525 84.5076H22.3525Z" fill="#EDADBF" stroke="black" stroke-width="0.5"/>
<path d="M2.85449 66.0076C4.35449 68.5076 6.35449 71.6742 5.85449 73.5076M22.3545 80.0076C11.8545 80.5076 7.35449 76.5076 8.35449 73.0076C8.85449 72.5076 10.3545 71.0076 11.3545 71.0076" stroke="black" stroke-width="0.5"/>
<path d="M32.3545 75.0076C29.8545 71.0076 24.3545 66.0076 21.3545 64.5076C19.6044 64.0076 16.9794 64.1326 14.2293 64.5076C12.6044 65.841 11.3545 69.0076 11.8545 72.0076C11.8545 73.1742 13.1619 75.5076 15.8545 75.5076C20.3545 75.5076 27.3545 76.0076 32.3545 75.0076Z" fill="#EDADBF"/>
<path d="M6.35449 66.0076C8.60443 65.5076 11.4793 64.8826 14.2293 64.5076M14.2293 64.5076C16.9794 64.1326 19.6044 64.0076 21.3545 64.5076C24.3545 66.0076 29.8545 71.0076 32.3545 75.0076C27.3545 76.0076 20.3545 75.5076 15.8545 75.5076C13.1619 75.5076 11.8545 73.1742 11.8545 72.0076C11.3545 69.0076 12.6043 65.841 14.2293 64.5076Z" stroke="black" stroke-width="0.5"/>
<path d="M11.8545 71.5076C19.8545 70.0077 23.3545 72.6362 26.3545 74.1362M13.3545 74.5077L30.8545 74.0077" stroke="black" stroke-width="0.5"/>
<path d="M22.3525 83.0076H31.8525C33.8525 83.0076 35.3525 81.0076 34.8525 80.0076M38.3525 80.0076V84.5076" stroke="black" stroke-width="0.5"/>
<path d="M22.3544 81.5078C17.8544 81.5078 13.3544 82.0078 1.85444 79.0078V77.0078L5.85444 75.0078V73.5078L1.85444 73.0078C1.35352 71.5076 0.353711 68.5076 2.35371 66.0076C1.85395 58.0076 2.35395 51.5076 4.35444 48.5073C36.8544 29.0077 58.8544 35.0078 84.8544 30.5078C162.854 -24.4924 244.854 12.5076 281.854 27.0077L295.354 29.0076L295.854 36.0076V39.0076C297.353 44.0076 298.688 48.5076 297.354 50.5076C299.854 51.5076 302.354 54.6742 302.354 56.5076L300.354 66.5076C300.806 77.3555 298.398 77.5798 289.067 77.8922C288.076 77.9254 286.007 77.9596 284.854 78.0076V79.5076L259.854 79.9386M22.3544 81.5078V84.5078H40.3528L39.8544 80.0078M22.3544 81.5078V80.0078H39.8544M39.8544 80.0078C36.8544 38.5078 90.3544 41.5078 86.8544 80.5078V83.0076H213.354C207.354 39.5076 261.854 39.5076 259.854 79.9386M259.353 79.9386H259.854" stroke="black"/>
</svg>
