<svg width="303" height="95" viewBox="0 0 303 95" fill="none" xmlns="http://www.w3.org/2000/svg">
<circle cx="62.8545" cy="73.8459" r="20.5" fill="#EFC7D3" stroke="black"/>
<circle cx="235.854" cy="73.8459" r="20.5" fill="#EFC7D3" stroke="black"/>
<path d="M132.853 12.3458L131.353 8.8458C171.353 0.845915 192.853 1.34595 231.853 12.8459L228.353 17.3459C208.353 9.34586 190.353 8.34586 174.353 7.84592C171.853 7.34592 167.853 7.34589 165.353 7.8458C155.353 7.84592 143.353 9.34592 132.853 12.3458Z" stroke="black" stroke-width="0.5"/>
<path d="M131.353 8.84599L130.853 7.34599C166.853 -3.65405 199.353 0.345821 234.853 9.34599L231.853 12.846C191.853 0.345947 165.853 1.84595 131.353 8.84599Z" stroke="black" stroke-width="0.5"/>
<path d="M131.353 8.84593C182.853 -2.65409 211.353 7.34595 231.853 12.8459" stroke="black" stroke-width="0.5"/>
<path d="M226.854 30.3459L223.854 15.8459C219.354 14.3459 207.854 8.84595 174.354 7.84595L170.854 29.8459C181.854 29.3459 199.354 27.8459 226.354 27.8459" stroke="black" stroke-width="0.5"/>
<path d="M165.354 7.84595C132.354 8.84595 112.354 17.8459 93.3545 35.3459L95.8545 33.3459L159.854 30.3459L165.354 7.84595Z" stroke="black" stroke-width="0.5"/>
<path d="M239.853 22.3459C236.186 19.6793 230.353 17.3459 223.853 15.8459L226.353 27.8459H232.853C235.853 26.3459 238.853 24.1147 239.853 22.3459Z" stroke="black" stroke-width="0.5"/>
<path d="M96.8545 78.3459H163.854L198.354 76.8459M96.8545 78.3459C96.8545 79.8459 97.3545 80.8459 98.3545 82.3459M96.8545 78.3459H86.8545V82.3459H98.3545M198.354 76.8459L199.354 82.3459M198.354 76.8459H212.854L213.354 82.3459H199.354M199.354 82.3459H98.3545" stroke="black" stroke-width="0.5"/>
<path d="M96.8536 78.3459C92.3545 73.8459 89.3545 51.8459 93.3536 35.3459L165.354 31.3459C161.354 36.3459 160.354 70.3459 163.854 78.3459H96.8536Z" stroke="black" stroke-width="0.5"/>
<path d="M228.854 30.3459L165.354 31.3459C161.355 36.3459 160.355 70.3459 163.854 78.3459L198.354 76.8459C202.854 75.3459 209.354 69.8459 228.854 30.3459Z" stroke="black" stroke-width="0.5"/>
<path d="M170.854 29.846C166.354 30.346 162.854 30.346 159.854 30.346L165.354 7.84602C168.354 7.34595 171.354 7.34595 174.354 7.84602L170.854 29.846Z" stroke="black" stroke-width="0.5"/>
<path d="M99.3545 31.8461C103.854 37.3461 110.854 33.8461 114.854 32.3461C115.854 16.846 102.854 24.8459 99.3545 31.8461Z" stroke="black" stroke-width="0.5"/>
<path d="M234.853 9.34595L231.853 12.8459C248.853 18.3459 259.353 21.3459 271.853 27.8459H273.353L281.353 26.3459C266.353 19.8459 258.853 17.3459 234.853 9.34595Z" fill="#E0426F" stroke="black" stroke-width="0.5"/>
<path d="M271.853 27.8459C261.353 22.3459 242.353 15.8459 231.853 12.8459L229.853 15.3459L244.853 22.8459C243.353 25.3459 239.353 27.3459 233.353 30.0459C245.353 29.3459 262.353 28.3459 271.853 27.8459Z" fill="#E0426F" stroke="black" stroke-width="0.5"/>
<path d="M277.354 34.1459L283.353 31.8459L272.854 27.8459L228.854 30.3459C221.354 45.3459 206.354 75.8459 198.354 76.8459H212.854C211.354 65.8459 220.854 42.3459 245.854 51.3459C256.354 45.8459 266.354 40.3459 277.354 34.1459Z" fill="#E0426F" stroke="black" stroke-width="0.5"/>
<path d="M278.353 33.846C266.353 40.346 256.353 45.846 245.853 51.346C250.353 54.3459 260.853 60.3459 259.853 79.3459L284.853 78.8459V77.3459C293.353 76.3459 301.853 79.8459 300.353 65.8459L302.353 55.8459C302.353 54.3459 299.853 50.3459 297.353 49.8459C298.853 47.3459 295.853 38.3459 295.853 38.3459V36.8459L291.853 33.8459L286.853 32.3459L283.353 31.8459L278.353 33.846Z" fill="#E0426F" stroke="black" stroke-width="0.5"/>
<path d="M281.353 26.3459L272.853 27.8459L283.353 31.8459C292.853 32.8459 291.851 34.3459 295.847 36.7661L295.353 28.3459L281.353 26.3459Z" fill="#E0426F"/>
<path d="M295.853 36.8459L295.847 36.7661M295.847 36.7661L295.353 28.3459L281.353 26.3459L272.853 27.8459L283.353 31.8459C292.853 32.8459 291.851 34.3459 295.847 36.7661Z" stroke="black" stroke-width="0.5"/>
<path d="M294.354 36.3461C293.854 33.846 282.854 33.646 277.354 34.146" stroke="black" stroke-width="0.5"/>
<path d="M300.354 66.3459L260.854 68.3459C260.354 63.3459 258.188 59.1793 256.354 57.3459L302.354 54.8459M300.854 52.3459C289.854 50.8459 278.854 46.0459 266.854 40.0459M228.854 30.3459L272.854 27.8459L281.354 26.3459" stroke="black" stroke-width="0.5"/>
<path d="M290.854 40.3459C290.854 38.3459 289.854 34.3459 286.354 32.3459C288.575 32.3459 291.952 33.3863 294.463 35.7559C294.927 37.2859 293.854 40.8459 290.813 42.3459C290.799 41.7557 290.854 41.0702 290.854 40.3459Z" fill="#E0426F"/>
<path d="M272.854 42.8459C279.85 43.1957 285.867 43.3008 291.248 43.8459M297.854 44.8459C295.751 44.3953 293.558 44.08 291.248 43.8459M295.854 37.3459C295.437 36.7608 294.967 36.2316 294.463 35.7559M291.248 43.8459C290.921 43.5012 290.827 42.9781 290.813 42.3459M290.813 42.3459C290.799 41.7557 290.854 41.0702 290.854 40.3459C290.854 38.3459 289.854 34.3459 286.354 32.3459C288.575 32.3459 291.952 33.3863 294.463 35.7559M290.813 42.3459C293.854 40.8459 294.927 37.2859 294.463 35.7559" stroke="black" stroke-width="0.5"/>
<path d="M290.854 40.3459C286.354 40.3459 284.354 36.3459 283.354 33.8459" stroke="black" stroke-width="0.5"/>
<path d="M132.853 12.4459C119.353 16.4459 107.353 22.3459 93.3525 35.3459C100.353 23.3459 115.853 13.8459 131.353 8.84595L132.853 12.4459Z" fill="#E0426F" stroke="black" stroke-width="0.5"/>
<path d="M131.353 8.84595C111.353 14.52 93.3525 31.8459 85.3525 29.8459C98.3525 20.3459 114.353 11.8459 130.853 7.34595L131.353 8.84595Z" fill="#E0426F" stroke="black" stroke-width="0.5"/>
<path d="M10.3532 47.846H4.35321C1.85254 51.8459 1.85254 61.8459 2.35321 65.3459C0.852539 66.3459 0.853137 70.8459 1.85321 72.3459L5.85321 72.8459V74.3459L1.85321 76.3459V78.3459C5.85321 79.3459 14.3532 81.3459 22.3532 80.8459V79.3459H39.8532C39.1865 70.8459 40.8532 60.3459 49.8532 53.3459C47.3532 49.3459 40.3532 44.8459 37.3532 44.346C27.3532 43.3459 12.3532 45.846 10.3532 47.846Z" fill="#E0426F" stroke="black" stroke-width="0.5"/>
<path d="M93.3545 35.3459C75.5212 36.1793 43.8545 41.0459 33.3545 44.0459L37.3545 44.3459C42.3545 45.8459 47.8545 50.1793 49.8545 53.3459C62.8535 43.8459 88.3535 50.8459 86.8535 78.3459H96.8535C89.8535 67.3459 90.8535 45.3459 93.3545 35.3459Z" fill="#E0426F" stroke="black" stroke-width="0.5"/>
<path d="M10.3525 47.846H4.35254C36.8527 28.3459 58.8528 34.3459 84.8525 29.8459L93.8528 35.3459C76.8528 36.3459 47.8525 39.8459 33.8525 44.046C25.8525 43.8459 11.8525 45.8459 10.3525 47.846Z" fill="#E0426F" stroke="black" stroke-width="0.5"/>
<path d="M37.354 44.346C29.854 43.3459 12.854 45.3459 10.354 47.846C9.55399 50.246 12.6873 53.1793 14.354 54.3459C23.854 55.8459 37.354 49.8459 37.354 44.346Z" fill="#E0426F" stroke="black" stroke-width="0.5"/>
<path d="M4.35323 47.8459C11.3532 48.8459 5.35323 59.3459 2.35323 64.3459C1.85316 57.3459 2.35303 51.8459 4.35323 47.8459Z" fill="#E0426F" stroke="black" stroke-width="0.5"/>
<path d="M22.3525 83.8459V79.3459H39.8525L40.3525 83.8459H22.3525Z" fill="#E0426F" stroke="black" stroke-width="0.5"/>
<path d="M2.85449 65.3459C4.35449 67.8459 6.35449 71.0126 5.85449 72.8459M22.3545 79.3459C11.8545 79.8459 7.35449 75.8459 8.35449 72.3459C8.85449 71.8459 10.3545 70.3459 11.3545 70.3459" stroke="black" stroke-width="0.5"/>
<path d="M32.3545 74.3459C29.8545 70.3459 24.3545 65.346 21.3545 63.846C19.6044 63.346 16.9794 63.471 14.2293 63.846C12.6044 65.1793 11.3545 68.3459 11.8545 71.3459C11.8545 72.5126 13.1619 74.8459 15.8545 74.8459C20.3545 74.8459 27.3545 75.3459 32.3545 74.3459Z" fill="#E0426F"/>
<path d="M6.35449 65.346C8.60443 64.846 11.4793 64.221 14.2293 63.846M14.2293 63.846C16.9794 63.471 19.6044 63.346 21.3545 63.846C24.3545 65.346 29.8545 70.3459 32.3545 74.3459C27.3545 75.3459 20.3545 74.8459 15.8545 74.8459C13.1619 74.8459 11.8545 72.5126 11.8545 71.3459C11.3545 68.3459 12.6043 65.1793 14.2293 63.846Z" stroke="black" stroke-width="0.5"/>
<path d="M11.8545 70.846C19.8545 69.3461 23.3545 71.9745 26.3545 73.4745M13.3545 73.8461L30.8545 73.3461" stroke="black" stroke-width="0.5"/>
<path d="M22.3525 82.3459H31.8525C33.8525 82.3459 35.3525 80.3459 34.8525 79.3459M38.3525 79.3459V83.8459" stroke="black" stroke-width="0.5"/>
<path d="M22.3544 80.8462C17.8544 80.8462 13.3544 81.3462 1.85444 78.3462V76.3462L5.85444 74.3462V72.8462L1.85444 72.3462C1.35352 70.8459 0.353711 67.8459 2.35371 65.3459C1.85395 57.3459 2.35395 50.8459 4.35444 47.8457C36.8544 28.3461 58.8544 34.3461 84.8544 29.8461C162.854 -25.154 244.854 11.8459 281.854 26.3461L295.354 28.3459L295.854 35.3459V38.3459C297.353 43.3459 298.688 47.8459 297.354 49.8459C299.854 50.8459 302.354 54.0126 302.354 55.8459L300.354 65.8459C300.806 76.6939 298.398 76.9181 289.067 77.2306C288.076 77.2638 286.007 77.2979 284.854 77.3459V78.8459L259.854 79.277M22.3544 80.8462V83.8462H40.3528L39.8544 79.3462M22.3544 80.8462V79.3462H39.8544M39.8544 79.3462C36.8544 37.8462 90.3544 40.8462 86.8544 79.8462V82.3459H213.354C207.354 38.8459 261.854 38.8459 259.854 79.277M259.353 79.277H259.854" stroke="black"/>
</svg>
