<svg width="304" height="95" viewBox="0 0 304 95" fill="none" xmlns="http://www.w3.org/2000/svg">
<circle cx="63.0635" cy="73.7222" r="20.5" fill="#EDADBF" stroke="black"/>
<circle cx="236.063" cy="73.7222" r="20.5" fill="#EDADBF" stroke="black"/>
<path d="M133.062 12.222L131.562 8.72202C171.562 0.722136 193.062 1.22217 232.062 12.7221L228.562 17.2221C208.562 9.22208 190.562 8.22208 174.562 7.72215C172.062 7.22215 168.062 7.22211 165.562 7.72202C155.562 7.72215 143.562 9.22215 133.062 12.222Z" fill="#E0426F" stroke="black" stroke-width="0.5"/>
<path d="M131.562 8.72221L131.062 7.22221C167.062 -3.77783 199.562 0.222042 235.062 9.22221L232.062 12.7222C192.062 0.222168 166.062 1.72217 131.562 8.72221Z" fill="#E0426F" stroke="black" stroke-width="0.5"/>
<path d="M131.562 8.72228C183.062 -2.77775 211.562 7.22229 232.062 12.7223" stroke="black" stroke-width="0.5"/>
<path d="M171.063 29.7222L174.563 7.72217C208.063 8.72217 219.563 14.2222 224.063 15.7222L226.546 27.7222C199.556 27.7228 182.061 29.2223 171.063 29.7222Z" fill="#E0426F"/>
<path d="M227.063 30.2222L224.063 15.7222C219.563 14.2222 208.063 8.72217 174.563 7.72217L171.063 29.7222C182.063 29.2222 199.563 27.7222 226.563 27.7222" stroke="black" stroke-width="0.5"/>
<path d="M165.563 7.72217C132.563 8.72217 112.563 17.7222 93.5635 35.2222L96.0635 33.2222L160.063 30.2222L165.563 7.72217Z" fill="#E0426F" stroke="black" stroke-width="0.5"/>
<path d="M240.062 22.2222C236.395 19.5555 230.562 17.2222 224.062 15.7222L226.562 27.7222H233.062C236.062 26.2222 239.062 23.9909 240.062 22.2222Z" fill="#E0426F" stroke="black" stroke-width="0.5"/>
<path d="M97.0635 78.2222H164.063L198.563 76.7222H213.063L213.563 82.2222H199.563H98.5635H87.0635V78.2222H97.0635Z" fill="#E0426F"/>
<path d="M97.0635 78.2222H164.063L198.563 76.7222M97.0635 78.2222C97.0635 79.7222 97.5635 80.7222 98.5635 82.2222M97.0635 78.2222H87.0635V82.2222H98.5635M198.563 76.7222L199.563 82.2222M198.563 76.7222H213.063L213.563 82.2222H199.563M199.563 82.2222H98.5635" stroke="black" stroke-width="0.5"/>
<path d="M97.0626 78.2222C92.5635 73.7222 89.5635 51.7222 93.5626 35.2222L165.563 31.2222C161.563 36.2222 160.563 70.2222 164.063 78.2222H97.0626Z" fill="#E0426F" stroke="black" stroke-width="0.5"/>
<path d="M229.063 30.2222L165.563 31.2222C161.564 36.2222 160.564 70.2222 164.063 78.2222L198.563 76.7222C203.063 75.2222 209.563 69.7222 229.063 30.2222Z" fill="#E0426F" stroke="black" stroke-width="0.5"/>
<path d="M171.063 29.7222C166.563 30.2222 163.063 30.2222 160.063 30.2222L165.563 7.72224C168.563 7.22217 171.563 7.22217 174.563 7.72224L171.063 29.7222Z" fill="#E0426F" stroke="black" stroke-width="0.5"/>
<path d="M99.5635 31.7224C104.063 37.2224 111.063 33.7224 115.063 32.2224C116.063 16.7223 103.063 24.7223 99.5635 31.7224Z" fill="#E0426F" stroke="black" stroke-width="0.5"/>
<path d="M235.062 9.22217L232.062 12.7222C249.062 18.2222 259.562 21.2222 272.062 27.7222H273.562L281.562 26.2222C266.562 19.7222 259.062 17.2222 235.062 9.22217Z" fill="#E56E90" stroke="black" stroke-width="0.5"/>
<path d="M272.062 27.7222C261.562 22.2222 242.562 15.7222 232.062 12.7222L230.062 15.2222L245.062 22.7222C243.562 25.2222 239.562 27.2222 233.562 29.9222C245.562 29.2222 262.562 28.2222 272.062 27.7222Z" fill="#E56E90" stroke="black" stroke-width="0.5"/>
<path d="M277.563 34.0222L283.562 31.7222L273.062 27.7222L229.062 30.2222C221.562 45.2222 206.562 75.7222 198.562 76.7222H213.062C211.562 65.7222 221.062 42.2222 246.063 51.2222C256.563 45.7222 266.563 40.2222 277.563 34.0222Z" fill="#E56E90" stroke="black" stroke-width="0.5"/>
<path d="M278.562 33.7222C266.562 40.2222 256.562 45.7222 246.062 51.2222C250.562 54.2222 261.062 60.2222 260.062 79.2222L285.062 78.7222V77.2222C293.562 76.2222 302.062 79.7222 300.562 65.7222L302.562 55.7222C302.562 54.2222 300.062 50.2222 297.562 49.7222C299.062 47.2222 296.062 38.2222 296.062 38.2222V36.7222L292.062 33.7222L287.062 32.2222L283.562 31.7222L278.562 33.7222Z" fill="#E56E90" stroke="black" stroke-width="0.5"/>
<path d="M281.562 26.2222L273.062 27.7222L283.562 31.7222C293.062 32.7222 292.06 34.2222 296.056 36.6423L295.562 28.2222L281.562 26.2222Z" fill="#E56E90"/>
<path d="M296.062 36.7222L296.056 36.6423M296.056 36.6423L295.562 28.2222L281.562 26.2222L273.062 27.7222L283.562 31.7222C293.062 32.7222 292.06 34.2222 296.056 36.6423Z" stroke="black" stroke-width="0.5"/>
<path d="M294.563 36.2224C294.063 33.7223 283.063 33.5222 277.563 34.0222" stroke="black" stroke-width="0.5"/>
<path d="M300.563 66.2222L261.063 68.2222C260.563 63.2222 258.397 59.0555 256.563 57.2222L302.563 54.7222M301.063 52.2222C290.063 50.7222 279.063 45.9222 267.063 39.9222M229.063 30.2222L273.063 27.7222L281.563 26.2222" stroke="black" stroke-width="0.5"/>
<path d="M291.063 40.2222C291.063 38.2222 290.063 34.2222 286.563 32.2222C288.784 32.2222 292.161 33.2626 294.672 35.6322C295.136 37.1622 294.063 40.7222 291.022 42.2222C291.008 41.6319 291.063 40.9465 291.063 40.2222Z" fill="#E56E90"/>
<path d="M273.063 42.7222C280.059 43.072 286.076 43.177 291.457 43.7222M298.063 44.7222C295.96 44.2715 293.767 43.9563 291.457 43.7222M296.063 37.2222C295.646 36.637 295.176 36.1078 294.672 35.6322M291.457 43.7222C291.13 43.3774 291.036 42.8544 291.022 42.2222M291.022 42.2222C291.008 41.6319 291.063 40.9465 291.063 40.2222C291.063 38.2222 290.063 34.2222 286.563 32.2222C288.784 32.2222 292.161 33.2626 294.672 35.6322M291.022 42.2222C294.063 40.7222 295.136 37.1622 294.672 35.6322" stroke="black" stroke-width="0.5"/>
<path d="M291.063 40.2222C286.563 40.2222 284.563 36.2222 283.563 33.7222" stroke="black" stroke-width="0.5"/>
<path d="M133.062 12.3221C119.562 16.3221 107.562 22.2222 93.5615 35.2222C100.562 23.2222 116.062 13.7222 131.562 8.72217L133.062 12.3221Z" fill="#EFC7D3" stroke="black" stroke-width="0.5"/>
<path d="M131.562 8.72217C111.562 14.3962 93.5615 31.7222 85.5615 29.7222C98.5615 20.2222 114.562 11.7222 131.062 7.22217L131.562 8.72217Z" fill="#EFC7D3" stroke="black" stroke-width="0.5"/>
<path d="M10.5622 47.7221H4.56219C2.06152 51.722 2.06152 61.722 2.56219 65.222C1.06152 66.222 1.06212 70.722 2.06219 72.222L6.06219 72.722V74.222L2.06219 76.222V78.222C6.06219 79.222 14.5622 81.222 22.5622 80.722V79.222H40.0622C39.3955 70.722 41.0622 60.222 50.0622 53.222C47.5622 49.222 40.5622 44.722 37.5622 44.2221C27.5622 43.222 12.5622 45.7221 10.5622 47.7221Z" fill="#EFC7D3" stroke="black" stroke-width="0.5"/>
<path d="M93.5635 35.2222C75.7301 36.0555 44.0635 40.9222 33.5635 43.9222L37.5635 44.2222C42.5635 45.7222 48.0635 50.0555 50.0635 53.2222C63.0625 43.7222 88.5625 50.7222 87.0625 78.2222H97.0625C90.0625 67.2222 91.0625 45.2222 93.5635 35.2222Z" fill="#EFC7D3" stroke="black" stroke-width="0.5"/>
<path d="M10.5615 47.7222H4.56152C37.0617 28.2221 59.0618 34.2222 85.0615 29.7222L94.0618 35.2222C77.0618 36.2222 48.0615 39.7222 34.0615 43.9222C26.0615 43.7222 12.0615 45.7222 10.5615 47.7222Z" fill="#EFC7D3" stroke="black" stroke-width="0.5"/>
<path d="M37.563 44.2222C30.063 43.2222 13.063 45.2222 10.563 47.7222C9.76298 50.1222 12.8963 53.0555 14.563 54.2222C24.063 55.7222 37.563 49.7222 37.563 44.2222Z" fill="#EFC7D3" stroke="black" stroke-width="0.5"/>
<path d="M4.56222 47.7222C11.5622 48.7222 5.56222 59.2222 2.56222 64.2222C2.06215 57.2222 2.56201 51.7222 4.56222 47.7222Z" fill="#EFC7D3" stroke="black" stroke-width="0.5"/>
<path d="M22.5615 83.7222V79.2222H40.0615L40.5615 83.7222H22.5615Z" fill="#EFC7D3" stroke="black" stroke-width="0.5"/>
<path d="M3.06348 65.2222C4.56348 67.7222 6.56348 70.8888 6.06348 72.7222M22.5635 79.2222C12.0635 79.7222 7.56348 75.7222 8.56348 72.2222C9.06348 71.7222 10.5635 70.2222 11.5635 70.2222" stroke="black" stroke-width="0.5"/>
<path d="M32.5635 74.2223C30.0635 70.2223 24.5635 65.2224 21.5635 63.7224C19.8134 63.2224 17.1883 63.3474 14.4383 63.7224C12.8133 65.0557 11.5635 68.2223 12.0635 71.2223C12.0635 72.389 13.3709 74.7223 16.0635 74.7223C20.5635 74.7223 27.5635 75.2223 32.5635 74.2223Z" fill="#EFC7D3"/>
<path d="M6.56348 65.2224C8.81342 64.7223 11.6883 64.0974 14.4383 63.7224M14.4383 63.7224C17.1883 63.3474 19.8134 63.2224 21.5635 63.7224C24.5635 65.2224 30.0635 70.2223 32.5635 74.2223C27.5635 75.2223 20.5635 74.7223 16.0635 74.7223C13.3709 74.7223 12.0635 72.389 12.0635 71.2223C11.5635 68.2223 12.8133 65.0557 14.4383 63.7224Z" stroke="black" stroke-width="0.5"/>
<path d="M12.0635 70.7224C20.0635 69.2224 23.5635 71.8509 26.5635 73.3509M13.5635 73.7224L31.0635 73.2224" stroke="black" stroke-width="0.5"/>
<path d="M22.5615 82.2222H32.0615C34.0615 82.2222 35.5615 80.2222 35.0615 79.2222M38.5615 79.2222V83.7222" stroke="black" stroke-width="0.5"/>
<path d="M22.5634 80.7224C18.0634 80.7224 13.5634 81.2224 2.06342 78.2224V76.2224L6.06342 74.2224V72.7224L2.06342 72.2224C1.5625 70.7222 0.562696 67.7222 2.56269 65.2222C2.06293 57.2222 2.56293 50.7222 4.56342 47.7219C37.0634 28.2223 59.0634 34.2224 85.0634 29.7224C163.063 -25.2778 245.063 11.7222 282.063 26.2223L295.563 28.2222L296.063 35.2222V38.2222C297.562 43.2222 298.897 47.7222 297.563 49.7222C300.063 50.7222 302.563 53.8888 302.563 55.7222L300.563 65.7222C301.015 76.5701 298.607 76.7944 289.276 77.1068C288.285 77.14 286.216 77.1742 285.063 77.2222V78.7222L260.063 79.1532M22.5634 80.7224V83.7224H40.5618L40.0634 79.2224M22.5634 80.7224V79.2224H40.0634M40.0634 79.2224C37.0634 37.7224 90.5634 40.7224 87.0634 79.7224V82.2222H213.563C207.563 38.7222 262.063 38.7222 260.063 79.1532M259.562 79.1532H260.063" stroke="black"/>
</svg>
