<svg width="303" height="96" viewBox="0 0 303 96" fill="none" xmlns="http://www.w3.org/2000/svg">
<circle cx="62.8955" cy="74.2297" r="20.5" fill="#EFC7D3" stroke="black"/>
<circle cx="235.896" cy="74.2297" r="20.5" fill="#EFC7D3" stroke="black"/>
<path d="M132.894 12.7296L131.394 9.22959C171.394 1.2297 192.894 1.72974 231.894 13.2297L228.394 17.7297C208.394 9.72965 190.394 8.72964 174.394 8.22971C171.894 7.72971 167.894 7.72968 165.394 8.22959C155.394 8.22971 143.394 9.72971 132.894 12.7296Z" fill="#E0426F" stroke="black" stroke-width="0.5"/>
<path d="M131.394 9.22978L130.894 7.72978C166.894 -3.27026 199.394 0.72961 234.894 9.72978L231.894 13.2298C191.894 0.729736 165.894 2.22974 131.394 9.22978Z" fill="#E0426F" stroke="black" stroke-width="0.5"/>
<path d="M131.394 9.2296C182.894 -2.27042 211.394 7.72961 231.894 13.2296" stroke="black" stroke-width="0.5"/>
<path d="M170.896 30.2297L174.396 8.22974C207.896 9.22974 219.396 14.7297 223.896 16.2297L226.378 28.2297C199.388 28.2304 181.893 29.7298 170.896 30.2297Z" fill="#E0426F"/>
<path d="M226.896 30.7297L223.896 16.2297C219.396 14.7297 207.896 9.22974 174.396 8.22974L170.896 30.2297C181.896 29.7297 199.396 28.2297 226.396 28.2297" stroke="black" stroke-width="0.5"/>
<path d="M165.396 8.22974C132.396 9.22974 112.396 18.2297 93.3955 35.7297L95.8955 33.7297L159.896 30.7297L165.396 8.22974Z" fill="#E0426F" stroke="black" stroke-width="0.5"/>
<path d="M239.894 22.7297C236.227 20.0631 230.394 17.7297 223.894 16.2297L226.394 28.2297H232.894C235.894 26.7297 238.894 24.4985 239.894 22.7297Z" fill="#E0426F" stroke="black" stroke-width="0.5"/>
<path d="M96.8955 78.7297H163.896L198.396 77.2297H212.896L213.396 82.7297H199.396H98.3955H86.8955V78.7297H96.8955Z" fill="#E0426F"/>
<path d="M96.8955 78.7297H163.896L198.396 77.2297M96.8955 78.7297C96.8955 80.2297 97.3955 81.2297 98.3955 82.7297M96.8955 78.7297H86.8955V82.7297H98.3955M198.396 77.2297L199.396 82.7297M198.396 77.2297H212.896L213.396 82.7297H199.396M199.396 82.7297H98.3955" stroke="black" stroke-width="0.5"/>
<path d="M96.8946 78.7297C92.3955 74.2297 89.3956 52.2297 93.3946 35.7297L165.396 31.7297C161.396 36.7297 160.396 70.7297 163.896 78.7297H96.8946Z" fill="#E0426F" stroke="black" stroke-width="0.5"/>
<path d="M228.895 30.7297L165.395 31.7297C161.396 36.7297 160.396 70.7297 163.895 78.7297L198.395 77.2297C202.895 75.7297 209.395 70.2297 228.895 30.7297Z" fill="#E0426F" stroke="black" stroke-width="0.5"/>
<path d="M170.896 30.2298C166.396 30.7298 162.896 30.7298 159.896 30.7298L165.396 8.22981C168.396 7.72974 171.396 7.72974 174.396 8.22981L170.896 30.2298Z" fill="#E0426F" stroke="black" stroke-width="0.5"/>
<path d="M99.3955 32.2297C103.896 37.7297 110.896 34.2297 114.896 32.7297C115.896 17.2296 102.896 25.2296 99.3955 32.2297Z" fill="#E0426F" stroke="black" stroke-width="0.5"/>
<path d="M234.894 9.72974L231.894 13.2297C248.894 18.7297 259.394 21.7297 271.894 28.2297H273.394L281.394 26.7297C266.394 20.2297 258.894 17.7297 234.894 9.72974Z" stroke="black" stroke-width="0.5"/>
<path d="M271.894 28.2297C261.394 22.7297 242.394 16.2297 231.894 13.2297L229.894 15.7297L244.894 23.2297C243.394 25.7297 239.394 27.7297 233.394 30.4297C245.394 29.7297 262.394 28.7297 271.894 28.2297Z" stroke="black" stroke-width="0.5"/>
<path d="M277.396 34.5297L283.394 32.2297L272.895 28.2297L228.895 30.7297C221.395 45.7297 206.395 76.2297 198.395 77.2297H212.895C211.395 66.2297 220.895 42.7297 245.896 51.7297C256.396 46.2297 266.396 40.7297 277.396 34.5297Z" stroke="black" stroke-width="0.5"/>
<path d="M278.394 34.2298C266.394 40.7298 256.394 46.2298 245.894 51.7298C250.394 54.7297 260.894 60.7297 259.894 79.7297L284.894 79.2297V77.7297C293.394 76.7297 301.894 80.2297 300.394 66.2297L302.394 56.2297C302.394 54.7297 299.894 50.7297 297.394 50.2297C298.894 47.7297 295.894 38.7297 295.894 38.7297V37.2297L291.894 34.2297L286.894 32.7297L283.394 32.2297L278.394 34.2298Z" stroke="black" stroke-width="0.5"/>
<path d="M295.894 37.2297L295.888 37.1499M295.888 37.1499L295.394 28.7297L281.394 26.7297L272.894 28.2297L283.394 32.2297C292.894 33.2297 291.892 34.7297 295.888 37.1499Z" stroke="black" stroke-width="0.5"/>
<path d="M294.396 36.7299C293.896 34.2298 282.896 34.0297 277.396 34.5297" stroke="black" stroke-width="0.5"/>
<path d="M300.396 66.7297L260.896 68.7297C260.396 63.7297 258.229 59.5631 256.396 57.7297L302.396 55.2297M300.896 52.7297C289.896 51.2297 278.896 46.4297 266.896 40.4297M228.896 30.7297L272.896 28.2297L281.396 26.7297" stroke="black" stroke-width="0.5"/>
<path d="M272.896 43.2297C279.891 43.5795 285.908 43.6846 291.289 44.2297M297.896 45.2297C295.793 44.7791 293.599 44.4638 291.289 44.2297M295.896 37.7297C295.478 37.1446 295.008 36.6154 294.504 36.1397M291.289 44.2297C290.962 43.885 290.868 43.3619 290.854 42.7297M290.854 42.7297C290.84 42.1395 290.896 41.454 290.896 40.7297C290.896 38.7297 289.896 34.7297 286.396 32.7297C288.616 32.7297 291.993 33.7701 294.504 36.1397M290.854 42.7297C293.896 41.2297 294.968 37.6697 294.504 36.1397" stroke="black" stroke-width="0.5"/>
<path d="M290.896 40.7297C286.396 40.7297 284.396 36.7297 283.396 34.2297" stroke="black" stroke-width="0.5"/>
<path d="M132.894 12.8297C119.394 16.8297 107.394 22.7297 93.394 35.7297C100.394 23.7297 115.894 14.2297 131.394 9.22974L132.894 12.8297Z" fill="#E0426F" stroke="black" stroke-width="0.5"/>
<path d="M131.394 9.22974C111.394 14.9038 93.394 32.2297 85.394 30.2297C98.394 20.7297 114.394 12.2297 130.894 7.72974L131.394 9.22974Z" fill="#E0426F" stroke="black" stroke-width="0.5"/>
<path d="M10.3947 48.2296H4.39471C1.89404 52.2296 1.89404 62.2296 2.39471 65.7296C0.894043 66.7296 0.89464 71.2296 1.89471 72.7296L5.89471 73.2296V74.7296L1.89471 76.7296V78.7296C5.89471 79.7296 14.3947 81.7296 22.3947 81.2296V79.7296H39.8947C39.228 71.2296 40.8947 60.7296 49.8947 53.7296C47.3947 49.7296 40.3947 45.2296 37.3947 44.7296C27.3947 43.7296 12.3947 46.2296 10.3947 48.2296Z" fill="#E0426F" stroke="black" stroke-width="0.5"/>
<path d="M93.3955 35.7297C75.5622 36.5631 43.8955 41.4297 33.3955 44.4297L37.3955 44.7297C42.3955 46.2297 47.8955 50.5631 49.8955 53.7297C62.8945 44.2297 88.3945 51.2297 86.8945 78.7297H96.8945C89.8945 67.7297 90.8945 45.7297 93.3955 35.7297Z" fill="#E0426F" stroke="black" stroke-width="0.5"/>
<path d="M10.3936 48.2298H4.39355C36.8937 28.7297 58.8938 34.7297 84.8936 30.2297L93.8938 35.7297C76.8938 36.7297 47.8936 40.2297 33.8936 44.4297C25.8936 44.2297 11.8936 46.2297 10.3936 48.2298Z" fill="#E0426F" stroke="black" stroke-width="0.5"/>
<path d="M37.3955 44.7298C29.8955 43.7297 12.8955 45.7297 10.3955 48.2298C9.5955 50.6298 12.7288 53.5631 14.3955 54.7297C23.8955 56.2297 37.3955 50.2297 37.3955 44.7298Z" fill="#E0426F" stroke="black" stroke-width="0.5"/>
<path d="M4.39474 48.2297C11.3947 49.2297 5.39474 59.7297 2.39474 64.7297C1.89467 57.7297 2.39453 52.2297 4.39474 48.2297Z" fill="#E0426F" stroke="black" stroke-width="0.5"/>
<path d="M22.394 84.2297V79.7297H39.894L40.394 84.2297H22.394Z" fill="#E0426F" stroke="black" stroke-width="0.5"/>
<path d="M2.89551 65.7295C4.39551 68.2295 6.39551 71.3962 5.89551 73.2295M22.3955 79.7295C11.8955 80.2295 7.39551 76.2295 8.39551 72.7295C8.89551 72.2295 10.3955 70.7295 11.3955 70.7295" stroke="black" stroke-width="0.5"/>
<path d="M32.3955 74.7296C29.8955 70.7296 24.3955 65.7297 21.3955 64.2297C19.6455 63.7297 17.0204 63.8547 14.2703 64.2297C12.6454 65.563 11.3955 68.7296 11.8955 71.7296C11.8955 72.8963 13.2029 75.2296 15.8955 75.2296C20.3955 75.2296 27.3955 75.7296 32.3955 74.7296Z" fill="#E0426F"/>
<path d="M6.39551 65.7297C8.64545 65.2297 11.5204 64.6047 14.2703 64.2297M14.2703 64.2297C17.0204 63.8547 19.6455 63.7297 21.3955 64.2297C24.3955 65.7297 29.8955 70.7296 32.3955 74.7296C27.3955 75.7296 20.3955 75.2296 15.8955 75.2296C13.2029 75.2296 11.8955 72.8963 11.8955 71.7296C11.3955 68.7296 12.6454 65.563 14.2703 64.2297Z" stroke="black" stroke-width="0.5"/>
<path d="M11.8955 71.2297C19.8955 69.7297 23.3955 72.3582 26.3955 73.8582M13.3955 74.2297L30.8955 73.7297" stroke="black" stroke-width="0.5"/>
<path d="M22.3936 82.7295H31.8936C33.8936 82.7295 35.3936 80.7295 34.8936 79.7295M38.3936 79.7295V84.2295" stroke="black" stroke-width="0.5"/>
<path d="M22.3955 81.23C17.8955 81.23 13.3955 81.73 1.89545 78.73V76.73L5.89545 74.73V73.23L1.89545 72.73C1.39453 71.2297 0.394727 68.2297 2.39472 65.7297C1.89497 57.7297 2.39497 51.2297 4.39545 48.2295C36.8955 28.7299 58.8954 34.7299 84.8954 30.2299C162.895 -24.7702 244.895 12.2297 281.895 26.7299L295.395 28.7297L295.895 35.7297V38.7297C297.394 43.7297 298.729 48.2297 297.395 50.2297C299.895 51.2297 302.395 54.3964 302.395 56.2297L300.395 66.2297C300.847 77.0776 298.439 77.3019 289.108 77.6144C288.117 77.6476 286.048 77.6817 284.895 77.7297V79.2297L259.895 79.6608M22.3955 81.23V84.23H40.3938L39.8955 79.73M22.3955 81.23V79.73H39.8955M39.8955 79.73C36.8955 38.23 90.3954 41.23 86.8954 80.23V82.7297H213.395C207.395 39.2297 261.895 39.2297 259.895 79.6608M259.394 79.6608H259.895" stroke="black"/>
</svg>
