<svg width="303" height="96" viewBox="0 0 303 96" fill="none" xmlns="http://www.w3.org/2000/svg">
<circle cx="62.8955" cy="74.1995" r="20.5" fill="#EFC7D3" stroke="black"/>
<circle cx="235.896" cy="74.1995" r="20.5" fill="#EFC7D3" stroke="black"/>
<path d="M132.894 12.6993L131.394 9.19932C171.394 1.19943 192.894 1.69946 231.894 13.1994L228.394 17.6994C208.394 9.69937 190.394 8.69937 174.394 8.19944C171.894 7.69944 167.894 7.6994 165.394 8.19932C155.394 8.19944 143.394 9.69944 132.894 12.6993Z" fill="#EDADBF" stroke="black" stroke-width="0.5"/>
<path d="M131.394 9.19951L130.894 7.69951C166.894 -3.30054 199.394 0.699337 234.894 9.69951L231.894 13.1995C191.894 0.699463 165.894 2.19946 131.394 9.19951Z" fill="#EDADBF" stroke="black" stroke-width="0.5"/>
<path d="M131.394 9.19933C182.894 -2.3007 211.394 7.69934 231.894 13.1993" stroke="black" stroke-width="0.5"/>
<path d="M170.896 30.1995L174.396 8.19946C207.896 9.19946 219.396 14.6995 223.896 16.1995L226.378 28.1995C199.388 28.2001 181.893 29.6996 170.896 30.1995Z" fill="#EDADBF"/>
<path d="M226.896 30.6995L223.896 16.1995C219.396 14.6995 207.896 9.19946 174.396 8.19946L170.896 30.1995C181.896 29.6995 199.396 28.1995 226.396 28.1995" stroke="black" stroke-width="0.5"/>
<path d="M165.396 8.19946C132.396 9.19946 112.396 18.1995 93.3955 35.6995L95.8955 33.6995L159.896 30.6995L165.396 8.19946Z" fill="#EDADBF" stroke="black" stroke-width="0.5"/>
<path d="M239.894 22.6995C236.227 20.0328 230.394 17.6995 223.894 16.1995L226.394 28.1995H232.894C235.894 26.6995 238.894 24.4682 239.894 22.6995Z" fill="#EDADBF" stroke="black" stroke-width="0.5"/>
<path d="M96.8955 78.6995H163.896L198.396 77.1995H212.896L213.396 82.6995H199.396H98.3955H86.8955V78.6995H96.8955Z" fill="#EDADBF"/>
<path d="M96.8955 78.6995H163.896L198.396 77.1995M96.8955 78.6995C96.8955 80.1995 97.3955 81.1995 98.3955 82.6995M96.8955 78.6995H86.8955V82.6995H98.3955M198.396 77.1995L199.396 82.6995M198.396 77.1995H212.896L213.396 82.6995H199.396M199.396 82.6995H98.3955" stroke="black" stroke-width="0.5"/>
<path d="M96.8946 78.6995C92.3955 74.1995 89.3956 52.1995 93.3946 35.6995L165.396 31.6995C161.396 36.6995 160.396 70.6995 163.896 78.6995H96.8946Z" fill="#EDADBF" stroke="black" stroke-width="0.5"/>
<path d="M228.895 30.6995L165.395 31.6995C161.396 36.6995 160.396 70.6995 163.895 78.6995L198.395 77.1995C202.895 75.6995 209.395 70.1995 228.895 30.6995Z" fill="#EDADBF" stroke="black" stroke-width="0.5"/>
<path d="M170.896 30.1995C166.396 30.6995 162.896 30.6995 159.896 30.6995L165.396 8.19954C168.396 7.69946 171.396 7.69946 174.396 8.19954L170.896 30.1995Z" fill="#EDADBF" stroke="black" stroke-width="0.5"/>
<path d="M99.3955 32.1995C103.896 37.6995 110.896 34.1995 114.896 32.6995C115.896 17.1994 102.896 25.1993 99.3955 32.1995Z" fill="#EDADBF" stroke="black" stroke-width="0.5"/>
<path d="M234.894 9.69946L231.894 13.1995C248.894 18.6995 259.394 21.6995 271.894 28.1995H273.394L281.394 26.6995C266.394 20.1995 258.894 17.6995 234.894 9.69946Z" stroke="black" stroke-width="0.5"/>
<path d="M271.894 28.1995C261.394 22.6995 242.394 16.1995 231.894 13.1995L229.894 15.6995L244.894 23.1995C243.394 25.6995 239.394 27.6995 233.394 30.3995C245.394 29.6995 262.394 28.6995 271.894 28.1995Z" stroke="black" stroke-width="0.5"/>
<path d="M277.396 34.4995L283.394 32.1995L272.895 28.1995L228.895 30.6995C221.395 45.6995 206.395 76.1995 198.395 77.1995H212.895C211.395 66.1995 220.895 42.6995 245.896 51.6995C256.396 46.1995 266.396 40.6995 277.396 34.4995Z" stroke="black" stroke-width="0.5"/>
<path d="M278.394 34.1995C266.394 40.6995 256.394 46.1995 245.894 51.6995C250.394 54.6995 260.894 60.6995 259.894 79.6995L284.894 79.1995V77.6995C293.394 76.6995 301.894 80.1995 300.394 66.1995L302.394 56.1995C302.394 54.6995 299.894 50.6995 297.394 50.1995C298.894 47.6995 295.894 38.6995 295.894 38.6995V37.1995L291.894 34.1995L286.894 32.6995L283.394 32.1995L278.394 34.1995Z" stroke="black" stroke-width="0.5"/>
<path d="M295.894 37.1995L295.888 37.1196M295.888 37.1196L295.394 28.6995L281.394 26.6995L272.894 28.1995L283.394 32.1995C292.894 33.1995 291.892 34.6995 295.888 37.1196Z" stroke="black" stroke-width="0.5"/>
<path d="M294.396 36.6997C293.896 34.1996 282.896 33.9995 277.396 34.4995" stroke="black" stroke-width="0.5"/>
<path d="M300.396 66.6995L260.896 68.6995C260.396 63.6995 258.229 59.5328 256.396 57.6995L302.396 55.1995M300.896 52.6995C289.896 51.1995 278.896 46.3995 266.896 40.3995M228.896 30.6995L272.896 28.1995L281.396 26.6995" stroke="black" stroke-width="0.5"/>
<path d="M272.896 43.1995C279.891 43.5492 285.908 43.6543 291.289 44.1995M297.896 45.1995C295.793 44.7488 293.599 44.4336 291.289 44.1995M295.896 37.6995C295.478 37.1143 295.008 36.5851 294.504 36.1094M291.289 44.1995C290.962 43.8547 290.868 43.3317 290.854 42.6995M290.854 42.6995C290.84 42.1092 290.896 41.4238 290.896 40.6995C290.896 38.6995 289.896 34.6995 286.396 32.6995C288.616 32.6995 291.993 33.7399 294.504 36.1094M290.854 42.6995C293.896 41.1995 294.968 37.6395 294.504 36.1094" stroke="black" stroke-width="0.5"/>
<path d="M290.896 40.6995C286.396 40.6995 284.396 36.6995 283.396 34.1995" stroke="black" stroke-width="0.5"/>
<path d="M132.894 12.7994C119.394 16.7994 107.394 22.6995 93.394 35.6995C100.394 23.6995 115.894 14.1995 131.394 9.19946L132.894 12.7994Z" fill="#EDADBF" stroke="black" stroke-width="0.5"/>
<path d="M131.394 9.19946C111.394 14.8735 93.394 32.1995 85.394 30.1995C98.394 20.6995 114.394 12.1995 130.894 7.69946L131.394 9.19946Z" fill="#EDADBF" stroke="black" stroke-width="0.5"/>
<path d="M10.3947 48.1993H4.39471C1.89404 52.1993 1.89404 62.1993 2.39471 65.6993C0.894043 66.6993 0.89464 71.1993 1.89471 72.6993L5.89471 73.1993V74.6993L1.89471 76.6993V78.6993C5.89471 79.6993 14.3947 81.6993 22.3947 81.1993V79.6993H39.8947C39.228 71.1993 40.8947 60.6993 49.8947 53.6993C47.3947 49.6993 40.3947 45.1993 37.3947 44.6993C27.3947 43.6993 12.3947 46.1993 10.3947 48.1993Z" fill="#EDADBF" stroke="black" stroke-width="0.5"/>
<path d="M93.3955 35.6995C75.5622 36.5328 43.8955 41.3995 33.3955 44.3995L37.3955 44.6995C42.3955 46.1995 47.8955 50.5328 49.8955 53.6995C62.8945 44.1995 88.3945 51.1995 86.8945 78.6995H96.8945C89.8945 67.6995 90.8945 45.6995 93.3955 35.6995Z" fill="#EDADBF" stroke="black" stroke-width="0.5"/>
<path d="M10.3936 48.1995H4.39355C36.8937 28.6994 58.8938 34.6995 84.8936 30.1995L93.8938 35.6995C76.8938 36.6995 47.8936 40.1995 33.8936 44.3995C25.8936 44.1995 11.8936 46.1995 10.3936 48.1995Z" fill="#EDADBF" stroke="black" stroke-width="0.5"/>
<path d="M37.3955 44.6995C29.8955 43.6995 12.8955 45.6995 10.3955 48.1995C9.5955 50.5995 12.7288 53.5328 14.3955 54.6995C23.8955 56.1995 37.3955 50.1995 37.3955 44.6995Z" fill="#EDADBF" stroke="black" stroke-width="0.5"/>
<path d="M4.39474 48.1995C11.3947 49.1995 5.39474 59.6995 2.39474 64.6995C1.89467 57.6995 2.39453 52.1995 4.39474 48.1995Z" fill="#EDADBF" stroke="black" stroke-width="0.5"/>
<path d="M22.394 84.1995V79.6995H39.894L40.394 84.1995H22.394Z" fill="#EDADBF" stroke="black" stroke-width="0.5"/>
<path d="M2.89551 65.6992C4.39551 68.1992 6.39551 71.3659 5.89551 73.1992M22.3955 79.6992C11.8955 80.1992 7.39551 76.1992 8.39551 72.6992C8.89551 72.1992 10.3955 70.6992 11.3955 70.6992" stroke="black" stroke-width="0.5"/>
<path d="M32.3955 74.6993C29.8955 70.6993 24.3955 65.6994 21.3955 64.1994C19.6455 63.6994 17.0204 63.8244 14.2703 64.1994C12.6454 65.5327 11.3955 68.6993 11.8955 71.6993C11.8955 72.866 13.2029 75.1993 15.8955 75.1993C20.3955 75.1993 27.3955 75.6993 32.3955 74.6993Z" fill="#EDADBF"/>
<path d="M6.39551 65.6994C8.64545 65.1994 11.5204 64.5744 14.2703 64.1994M14.2703 64.1994C17.0204 63.8244 19.6455 63.6994 21.3955 64.1994C24.3955 65.6994 29.8955 70.6993 32.3955 74.6993C27.3955 75.6993 20.3955 75.1993 15.8955 75.1993C13.2029 75.1993 11.8955 72.866 11.8955 71.6993C11.3955 68.6993 12.6454 65.5327 14.2703 64.1994Z" stroke="black" stroke-width="0.5"/>
<path d="M11.8955 71.1994C19.8955 69.6995 23.3955 72.3279 26.3955 73.8279M13.3955 74.1995L30.8955 73.6995" stroke="black" stroke-width="0.5"/>
<path d="M22.3936 82.6992H31.8936C33.8936 82.6992 35.3936 80.6992 34.8936 79.6992M38.3936 79.6992V84.1992" stroke="black" stroke-width="0.5"/>
<path d="M22.3955 81.1997C17.8955 81.1997 13.3955 81.6997 1.89545 78.6997V76.6997L5.89545 74.6997V73.1997L1.89545 72.6997C1.39453 71.1995 0.394727 68.1995 2.39472 65.6995C1.89497 57.6995 2.39497 51.1995 4.39545 48.1992C36.8955 28.6996 58.8954 34.6997 84.8954 30.1997C162.895 -24.8005 244.895 12.1994 281.895 26.6996L295.395 28.6995L295.895 35.6995V38.6995C297.394 43.6995 298.729 48.1995 297.395 50.1995C299.895 51.1995 302.395 54.3661 302.395 56.1995L300.395 66.1995C300.847 77.0474 298.439 77.2717 289.108 77.5841C288.117 77.6173 286.048 77.6515 284.895 77.6995V79.1995L259.895 79.6305M22.3955 81.1997V84.1997H40.3938L39.8955 79.6997M22.3955 81.1997V79.6997H39.8955M39.8955 79.6997C36.8955 38.1997 90.3954 41.1997 86.8954 80.1997V82.6995H213.395C207.395 39.1995 261.895 39.1995 259.895 79.6305M259.394 79.6305H259.895" stroke="black"/>
</svg>
