<svg width="303" height="96" viewBox="0 0 303 96" fill="none" xmlns="http://www.w3.org/2000/svg">
<circle cx="62.4697" cy="74.0605" r="20.5" fill="#E0426F" stroke="black"/>
<circle cx="235.47" cy="74.0605" r="20.5" fill="#E0426F" stroke="black"/>
<path d="M132.468 12.5604L130.968 9.0604C170.968 1.06051 192.468 1.56055 231.468 13.0605L227.968 17.5605C207.968 9.56046 189.968 8.56046 173.968 8.06052C171.468 7.56052 167.468 7.56049 164.968 8.0604C154.968 8.06052 142.968 9.56052 132.468 12.5604Z" fill="#E0426F" stroke="black" stroke-width="0.5"/>
<path d="M130.968 9.06059L130.468 7.56059C166.468 -3.43945 198.968 0.560421 234.468 9.56059L231.468 13.0606C191.468 0.560547 165.468 2.06055 130.968 9.06059Z" fill="#E0426F" stroke="black" stroke-width="0.5"/>
<path d="M130.968 9.06066C182.468 -2.43937 210.968 7.56067 231.468 13.0607" stroke="black" stroke-width="0.5"/>
<path d="M170.47 30.0605L173.97 8.06055C207.47 9.06055 218.97 14.5605 223.47 16.0605L225.952 28.0605C198.962 28.0612 181.467 29.5607 170.47 30.0605Z" fill="#E0426F"/>
<path d="M226.47 30.5605L223.47 16.0605C218.97 14.5605 207.47 9.06055 173.97 8.06055L170.47 30.0605C181.47 29.5605 198.97 28.0605 225.97 28.0605" stroke="black" stroke-width="0.5"/>
<path d="M164.97 8.06055C131.97 9.06055 111.97 18.0605 92.9697 35.5605L95.4697 33.5605L159.47 30.5605L164.97 8.06055Z" fill="#E0426F" stroke="black" stroke-width="0.5"/>
<path d="M239.468 22.5605C235.801 19.8939 229.968 17.5605 223.468 16.0605L225.968 28.0605H232.468C235.468 26.5605 238.468 24.3293 239.468 22.5605Z" fill="#E0426F" stroke="black" stroke-width="0.5"/>
<path d="M96.4697 78.5605H163.47L197.97 77.0605H212.47L212.97 82.5605H198.97H97.9697H86.4697V78.5605H96.4697Z" fill="#E0426F"/>
<path d="M96.4697 78.5605H163.47L197.97 77.0605M96.4697 78.5605C96.4697 80.0605 96.9697 81.0605 97.9697 82.5605M96.4697 78.5605H86.4697V82.5605H97.9697M197.97 77.0605L198.97 82.5605M197.97 77.0605H212.47L212.97 82.5605H198.97M198.97 82.5605H97.9697" stroke="black" stroke-width="0.5"/>
<path d="M96.4689 78.5605C91.9697 74.0605 88.9698 52.0605 92.9689 35.5605L164.97 31.5605C160.97 36.5605 159.97 70.5605 163.47 78.5605H96.4689Z" fill="#E0426F" stroke="black" stroke-width="0.5"/>
<path d="M228.47 30.5605L164.97 31.5605C160.97 36.5605 159.97 70.5605 163.47 78.5605L197.97 77.0605C202.47 75.5605 208.97 70.0605 228.47 30.5605Z" fill="#E0426F" stroke="black" stroke-width="0.5"/>
<path d="M170.47 30.0606C165.97 30.5606 162.47 30.5606 159.47 30.5606L164.97 8.06062C167.97 7.56055 170.97 7.56055 173.97 8.06062L170.47 30.0606Z" fill="#E0426F" stroke="black" stroke-width="0.5"/>
<path d="M98.9697 32.0608C103.47 37.5608 110.47 34.0608 114.47 32.5608C115.47 17.0607 102.47 25.0607 98.9697 32.0608Z" fill="#E0426F" stroke="black" stroke-width="0.5"/>
<path d="M234.468 9.56055L231.468 13.0605C248.468 18.5605 258.968 21.5605 271.468 28.0605H272.968L280.968 26.5605C265.968 20.0605 258.468 17.5605 234.468 9.56055Z" fill="#EDADBF" stroke="black" stroke-width="0.5"/>
<path d="M271.468 28.0605C260.968 22.5605 241.968 16.0605 231.468 13.0605L229.468 15.5605L244.468 23.0605C242.968 25.5605 238.968 27.5605 232.968 30.2605C244.968 29.5605 261.968 28.5605 271.468 28.0605Z" fill="#EDADBF" stroke="black" stroke-width="0.5"/>
<path d="M276.97 34.3605L282.968 32.0605L272.469 28.0605L228.469 30.5605C220.969 45.5605 205.969 76.0605 197.969 77.0605H212.469C210.969 66.0605 220.469 42.5605 245.47 51.5605C255.97 46.0605 265.97 40.5605 276.97 34.3605Z" fill="#EDADBF" stroke="black" stroke-width="0.5"/>
<path d="M277.968 34.0606C265.968 40.5606 255.968 46.0606 245.468 51.5606C249.968 54.5605 260.468 60.5605 259.468 79.5605L284.468 79.0605V77.5605C292.968 76.5605 301.468 80.0605 299.968 66.0605L301.968 56.0605C301.968 54.5605 299.468 50.5605 296.968 50.0605C298.468 47.5605 295.468 38.5605 295.468 38.5605V37.0605L291.468 34.0605L286.468 32.5605L282.968 32.0605L277.968 34.0606Z" fill="#EDADBF" stroke="black" stroke-width="0.5"/>
<path d="M280.968 26.5605L272.468 28.0605L282.968 32.0605C292.468 33.0605 291.467 34.5605 295.462 36.9807L294.968 28.5605L280.968 26.5605Z" fill="#EDADBF"/>
<path d="M295.468 37.0605L295.462 36.9807M295.462 36.9807L294.968 28.5605L280.968 26.5605L272.468 28.0605L282.968 32.0605C292.468 33.0605 291.467 34.5605 295.462 36.9807Z" stroke="black" stroke-width="0.5"/>
<path d="M293.97 36.5607C293.47 34.0606 282.47 33.8606 276.97 34.3606" stroke="black" stroke-width="0.5"/>
<path d="M299.97 66.5605L260.47 68.5605C259.97 63.5605 257.803 59.3939 255.97 57.5605L301.97 55.0605M300.47 52.5605C289.47 51.0605 278.47 46.2605 266.47 40.2605M228.47 30.5605L272.47 28.0605L280.97 26.5605" stroke="black" stroke-width="0.5"/>
<path d="M290.47 40.5605C290.47 38.5605 289.47 34.5605 285.97 32.5605C288.191 32.5605 291.567 33.6009 294.079 35.9705C294.542 37.5005 293.47 41.0605 290.428 42.5605C290.414 41.9703 290.47 41.2848 290.47 40.5605Z" fill="#EDADBF"/>
<path d="M272.47 43.0605C279.465 43.4103 285.482 43.5154 290.863 44.0605M297.47 45.0605C295.367 44.6099 293.173 44.2946 290.863 44.0605M295.47 37.5605C295.052 36.9754 294.583 36.4462 294.079 35.9705M290.863 44.0605C290.537 43.7158 290.443 43.1927 290.428 42.5605M290.428 42.5605C290.414 41.9703 290.47 41.2848 290.47 40.5605C290.47 38.5605 289.47 34.5605 285.97 32.5605C288.191 32.5605 291.567 33.6009 294.079 35.9705M290.428 42.5605C293.47 41.0605 294.542 37.5005 294.079 35.9705" stroke="black" stroke-width="0.5"/>
<path d="M290.47 40.5605C285.97 40.5605 283.97 36.5605 282.97 34.0605" stroke="black" stroke-width="0.5"/>
<path d="M132.468 12.6605C118.968 16.6605 106.968 22.5605 92.9678 35.5605C99.9678 23.5605 115.468 14.0605 130.968 9.06055L132.468 12.6605Z" fill="#E56E90" stroke="black" stroke-width="0.5"/>
<path d="M130.968 9.06055C110.968 14.7346 92.9678 32.0605 84.9678 30.0605C97.9678 20.5605 113.968 12.0605 130.468 7.56055L130.968 9.06055Z" fill="#E56E90" stroke="black" stroke-width="0.5"/>
<path d="M9.96844 48.0604H3.96844C1.46777 52.0604 1.46777 62.0604 1.96844 65.5604C0.467773 66.5604 0.468371 71.0604 1.46844 72.5604L5.46844 73.0604V74.5604L1.46844 76.5604V78.5604C5.46844 79.5604 13.9684 81.5604 21.9684 81.0604V79.5604H39.4684C38.8018 71.0604 40.4684 60.5604 49.4684 53.5604C46.9684 49.5604 39.9684 45.0604 36.9684 44.5604C26.9684 43.5604 11.9684 46.0604 9.96844 48.0604Z" fill="#E56E90" stroke="black" stroke-width="0.5"/>
<path d="M92.9697 35.5605C75.1364 36.3939 43.4697 41.2605 32.9697 44.2605L36.9697 44.5605C41.9697 46.0605 47.4697 50.3939 49.4697 53.5605C62.4688 44.0605 87.9688 51.0605 86.4688 78.5605H96.4688C89.4688 67.5605 90.4688 45.5605 92.9697 35.5605Z" fill="#E56E90" stroke="black" stroke-width="0.5"/>
<path d="M9.96777 48.0606H3.96777C36.468 28.5605 58.468 34.5605 84.4678 30.0605L93.468 35.5605C76.468 36.5605 47.4678 40.0605 33.4678 44.2606C25.4678 44.0605 11.4678 46.0605 9.96777 48.0606Z" fill="#E56E90" stroke="black" stroke-width="0.5"/>
<path d="M36.9692 44.5606C29.4692 43.5605 12.4692 45.5605 9.96923 48.0606C9.16923 50.4606 12.3026 53.3939 13.9692 54.5605C23.4692 56.0605 36.9692 50.0605 36.9692 44.5606Z" fill="#E56E90" stroke="black" stroke-width="0.5"/>
<path d="M3.96847 48.0605C10.9685 49.0605 4.96847 59.5605 1.96847 64.5605C1.4684 57.5605 1.96826 52.0605 3.96847 48.0605Z" fill="#E56E90" stroke="black" stroke-width="0.5"/>
<path d="M21.9678 84.0605V79.5605H39.4678L39.9678 84.0605H21.9678Z" fill="#E56E90" stroke="black" stroke-width="0.5"/>
<path d="M2.46973 65.5605C3.96973 68.0605 5.96973 71.2272 5.46973 73.0605M21.9697 79.5605C11.4697 80.0605 6.96973 76.0605 7.96973 72.5605C8.46973 72.0605 9.96973 70.5605 10.9697 70.5605" stroke="black" stroke-width="0.5"/>
<path d="M31.9697 74.5607C29.4697 70.5607 23.9697 65.5607 20.9697 64.0607C19.2197 63.5607 16.5946 63.6857 13.8445 64.0607C12.2196 65.3941 10.9697 68.5607 11.4697 71.5607C11.4697 72.7273 12.7771 75.0607 15.4697 75.0607C19.9697 75.0607 26.9697 75.5607 31.9697 74.5607Z" fill="#E56E90"/>
<path d="M5.96973 65.5607C8.21967 65.0607 11.0946 64.4357 13.8445 64.0607M13.8445 64.0607C16.5946 63.6857 19.2197 63.5607 20.9697 64.0607C23.9697 65.5607 29.4697 70.5607 31.9697 74.5607C26.9697 75.5607 19.9697 75.0607 15.4697 75.0607C12.7771 75.0607 11.4697 72.7273 11.4697 71.5607C10.9697 68.5607 12.2196 65.3941 13.8445 64.0607Z" stroke="black" stroke-width="0.5"/>
<path d="M11.4697 71.0607C19.4697 69.5608 22.9697 72.1893 25.9697 73.6893M12.9697 74.0608L30.4697 73.5608" stroke="black" stroke-width="0.5"/>
<path d="M21.9678 82.5605H31.4678C33.4678 82.5605 34.9678 80.5605 34.4678 79.5605M37.9678 79.5605V84.0605" stroke="black" stroke-width="0.5"/>
<path d="M21.9697 81.0608C17.4697 81.0608 12.9697 81.5608 1.46967 78.5608V76.5608L5.46967 74.5608V73.0608L1.46967 72.5608C0.96875 71.0605 -0.0310541 68.0605 1.96894 65.5605C1.46918 57.5605 1.96918 51.0605 3.96967 48.0603C36.4697 28.5607 58.4697 34.5607 84.4697 30.0607C162.47 -24.9394 244.47 12.0605 281.47 26.5607L294.97 28.5605L295.47 35.5605V38.5605C296.968 43.5605 298.303 48.0605 296.97 50.0605C299.47 51.0605 301.97 54.2272 301.97 56.0605L299.97 66.0605C300.422 76.9085 298.013 77.1327 288.682 77.4452C287.691 77.4784 285.622 77.5125 284.47 77.5605V79.0605L259.47 79.4916M21.9697 81.0608V84.0608H39.968L39.4697 79.5608M21.9697 81.0608V79.5608H39.4697M39.4697 79.5608C36.4697 38.0608 89.9697 41.0608 86.4697 80.0608V82.5605H212.97C206.97 39.0605 261.47 39.0605 259.47 79.4916M258.968 79.4916H259.47" stroke="black"/>
</svg>
