<svg width="303" height="96" viewBox="0 0 303 96" fill="none" xmlns="http://www.w3.org/2000/svg">
<circle cx="62.8853" cy="74.5227" r="20.5" fill="#EFC7D3" stroke="black"/>
<circle cx="235.885" cy="74.5227" r="20.5" fill="#EFC7D3" stroke="black"/>
<path d="M132.884 13.0226L131.384 9.52256C171.384 1.52267 192.884 2.02271 231.884 13.5227L228.384 18.0226C208.384 10.0226 190.384 9.02261 174.384 8.52268C171.884 8.02268 167.884 8.02264 165.384 8.52256C155.384 8.52268 143.384 10.0227 132.884 13.0226Z" fill="#EFC7D3" stroke="black" stroke-width="0.5"/>
<path d="M131.384 9.52275L130.884 8.02275C166.884 -2.97729 199.384 1.02258 234.884 10.0228L231.884 13.5228C191.884 1.02271 165.884 2.52271 131.384 9.52275Z" fill="#EFC7D3" stroke="black" stroke-width="0.5"/>
<path d="M131.384 9.52269C182.884 -1.97733 211.384 8.02271 231.884 13.5227" stroke="black" stroke-width="0.5"/>
<path d="M170.885 30.5227L174.385 8.52271C207.885 9.52271 219.385 15.0227 223.885 16.5227L226.368 28.5227C199.378 28.5233 181.883 30.0228 170.885 30.5227Z" fill="#EFC7D3"/>
<path d="M226.885 31.0227L223.885 16.5227C219.385 15.0227 207.885 9.52271 174.385 8.52271L170.885 30.5227C181.885 30.0227 199.385 28.5227 226.385 28.5227" stroke="black" stroke-width="0.5"/>
<path d="M165.385 8.52271C132.385 9.52271 112.385 18.5227 93.3853 36.0227L95.8853 34.0227L159.885 31.0227L165.385 8.52271Z" fill="#EFC7D3" stroke="black" stroke-width="0.5"/>
<path d="M239.884 23.0227C236.217 20.356 230.384 18.0227 223.884 16.5227L226.384 28.5227H232.884C235.884 27.0227 238.884 24.7914 239.884 23.0227Z" fill="#EFC7D3" stroke="black" stroke-width="0.5"/>
<path d="M96.8853 79.0227H163.885L198.385 77.5227H212.885L213.385 83.0227H199.385H98.3853H86.8853V79.0227H96.8853Z" fill="#EFC7D3"/>
<path d="M96.8853 79.0227H163.885L198.385 77.5227M96.8853 79.0227C96.8853 80.5227 97.3853 81.5227 98.3853 83.0227M96.8853 79.0227H86.8853V83.0227H98.3853M198.385 77.5227L199.385 83.0227M198.385 77.5227H212.885L213.385 83.0227H199.385M199.385 83.0227H98.3853" stroke="black" stroke-width="0.5"/>
<path d="M96.8844 79.0227C92.3852 74.5227 89.3853 52.5227 93.3844 36.0227L165.385 32.0227C161.385 37.0227 160.385 71.0227 163.885 79.0227H96.8844Z" fill="#EFC7D3" stroke="black" stroke-width="0.5"/>
<path d="M228.885 31.0227L165.385 32.0227C161.385 37.0227 160.385 71.0227 163.885 79.0227L198.385 77.5227C202.885 76.0227 209.385 70.5227 228.885 31.0227Z" fill="#EFC7D3" stroke="black" stroke-width="0.5"/>
<path d="M170.885 30.5228C166.385 31.0228 162.885 31.0228 159.885 31.0228L165.385 8.52278C168.385 8.02271 171.385 8.02271 174.385 8.52278L170.885 30.5228Z" fill="#EFC7D3" stroke="black" stroke-width="0.5"/>
<path d="M99.3853 32.5228C103.885 38.0228 110.885 34.5228 114.885 33.0228C115.885 17.5227 102.885 25.5227 99.3853 32.5228Z" fill="#EFC7D3" stroke="black" stroke-width="0.5"/>
<path d="M234.884 10.0227L231.884 13.5227C248.884 19.0227 259.384 22.0227 271.884 28.5227H273.384L281.384 27.0227C266.384 20.5227 258.884 18.0227 234.884 10.0227Z" fill="#EFC7D3" stroke="black" stroke-width="0.5"/>
<path d="M271.884 28.5227C261.384 23.0227 242.384 16.5227 231.884 13.5227L229.884 16.0227L244.884 23.5227C243.384 26.0227 239.384 28.0227 233.384 30.7227C245.384 30.0227 262.384 29.0227 271.884 28.5227Z" fill="#EFC7D3" stroke="black" stroke-width="0.5"/>
<path d="M277.385 34.8227L283.384 32.5227L272.884 28.5227L228.884 31.0227C221.384 46.0227 206.384 76.5227 198.384 77.5227H212.884C211.384 66.5227 220.884 43.0227 245.885 52.0227C256.385 46.5227 266.385 41.0227 277.385 34.8227Z" fill="#EFC7D3" stroke="black" stroke-width="0.5"/>
<path d="M278.384 34.5227C266.384 41.0227 256.384 46.5227 245.884 52.0227C250.384 55.0227 260.884 61.0227 259.884 80.0227L284.884 79.5227V78.0227C293.384 77.0227 301.884 80.5227 300.384 66.5227L302.384 56.5227C302.384 55.0227 299.884 51.0227 297.384 50.5227C298.884 48.0227 295.884 39.0227 295.884 39.0227V37.5227L291.884 34.5227L286.884 33.0227L283.384 32.5227L278.384 34.5227Z" fill="#EFC7D3" stroke="black" stroke-width="0.5"/>
<path d="M281.384 27.0227L272.884 28.5227L283.384 32.5227C292.884 33.5227 291.883 35.0227 295.878 37.4429L295.384 29.0227L281.384 27.0227Z" fill="#EFC7D3"/>
<path d="M295.884 37.5227L295.878 37.4429M295.878 37.4429L295.384 29.0227L281.384 27.0227L272.884 28.5227L283.384 32.5227C292.884 33.5227 291.883 35.0227 295.878 37.4429Z" stroke="black" stroke-width="0.5"/>
<path d="M294.385 37.0229C293.885 34.5228 282.885 34.3227 277.385 34.8227" stroke="black" stroke-width="0.5"/>
<path d="M300.385 67.0227L260.885 69.0227C260.385 64.0227 258.219 59.856 256.385 58.0227L302.385 55.5227M300.885 53.0227C289.885 51.5227 278.885 46.7227 266.885 40.7227M228.885 31.0227L272.885 28.5227L281.385 27.0227" stroke="black" stroke-width="0.5"/>
<path d="M290.885 41.0227C290.885 39.0227 289.885 35.0227 286.385 33.0227C288.606 33.0227 291.983 34.0631 294.494 36.4327C294.958 37.9627 293.885 41.5227 290.843 43.0227C290.83 42.4324 290.885 41.747 290.885 41.0227Z" fill="#EFC7D3"/>
<path d="M272.885 43.5227C279.881 43.8725 285.898 43.9776 291.278 44.5227M297.885 45.5227C295.782 45.0721 293.589 44.7568 291.278 44.5227M295.885 38.0227C295.467 37.4376 294.998 36.9084 294.494 36.4327M291.278 44.5227C290.952 44.1779 290.858 43.6549 290.843 43.0227M290.843 43.0227C290.83 42.4324 290.885 41.747 290.885 41.0227C290.885 39.0227 289.885 35.0227 286.385 33.0227C288.606 33.0227 291.983 34.0631 294.494 36.4327M290.843 43.0227C293.885 41.5227 294.958 37.9627 294.494 36.4327" stroke="black" stroke-width="0.5"/>
<path d="M290.885 41.0227C286.385 41.0227 284.385 37.0227 283.385 34.5227" stroke="black" stroke-width="0.5"/>
<path d="M132.884 13.1227C119.384 17.1227 107.384 23.0227 93.3838 36.0227C100.384 24.0227 115.884 14.5227 131.384 9.52271L132.884 13.1227Z" fill="#E56E90" stroke="black" stroke-width="0.5"/>
<path d="M131.384 9.52271C111.384 15.1967 93.3838 32.5227 85.3838 30.5227C98.3838 21.0227 114.384 12.5227 130.884 8.02271L131.384 9.52271Z" fill="#E56E90" stroke="black" stroke-width="0.5"/>
<path d="M10.3845 48.5227H4.38446C1.88379 52.5227 1.88379 62.5227 2.38446 66.0227C0.883789 67.0227 0.884387 71.5227 1.88446 73.0227L5.88446 73.5227V75.0227L1.88446 77.0227V79.0227C5.88446 80.0227 14.3845 82.0227 22.3845 81.5227V80.0227H39.8845C39.2178 71.5227 40.8845 61.0227 49.8845 54.0227C47.3845 50.0227 40.3845 45.5227 37.3845 45.0227C27.3845 44.0227 12.3845 46.5227 10.3845 48.5227Z" fill="#E56E90" stroke="black" stroke-width="0.5"/>
<path d="M93.3853 36.0227C75.5519 36.856 43.8853 41.7227 33.3853 44.7227L37.3853 45.0227C42.3853 46.5227 47.8853 50.856 49.8853 54.0227C62.8843 44.5227 88.3843 51.5227 86.8843 79.0227H96.8843C89.8843 68.0227 90.8843 46.0227 93.3853 36.0227Z" fill="#E56E90" stroke="black" stroke-width="0.5"/>
<path d="M10.3838 48.5228H4.38379C36.884 29.0227 58.884 35.0227 84.8838 30.5227L93.884 36.0227C76.884 37.0227 47.8838 40.5227 33.8838 44.7227C25.8838 44.5227 11.8838 46.5227 10.3838 48.5228Z" fill="#E56E90" stroke="black" stroke-width="0.5"/>
<path d="M37.3852 45.0228C29.8852 44.0227 12.8852 46.0227 10.3852 48.5228C9.58524 50.9227 12.7186 53.856 14.3852 55.0227C23.8853 56.5227 37.3852 50.5227 37.3852 45.0228Z" fill="#E56E90" stroke="black" stroke-width="0.5"/>
<path d="M4.38448 48.5227C11.3845 49.5227 5.38448 60.0227 2.38448 65.0227C1.88441 58.0227 2.38428 52.5227 4.38448 48.5227Z" fill="#E56E90" stroke="black" stroke-width="0.5"/>
<path d="M22.3838 84.5227V80.0227H39.8838L40.3838 84.5227H22.3838Z" fill="#E56E90" stroke="black" stroke-width="0.5"/>
<path d="M2.88574 66.0225C4.38574 68.5225 6.38574 71.6891 5.88574 73.5225M22.3857 80.0225C11.8857 80.5225 7.38574 76.5225 8.38574 73.0225C8.88574 72.5225 10.3857 71.0225 11.3857 71.0225" stroke="black" stroke-width="0.5"/>
<path d="M32.3857 75.0226C29.8857 71.0226 24.3857 66.0227 21.3857 64.5227C19.6357 64.0227 17.0106 64.1477 14.2605 64.5227C12.6356 65.856 11.3857 69.0226 11.8857 72.0226C11.8857 73.1892 13.1932 75.5226 15.8857 75.5226C20.3857 75.5226 27.3857 76.0226 32.3857 75.0226Z" fill="#E56E90"/>
<path d="M6.38574 66.0227C8.63568 65.5226 11.5106 64.8977 14.2605 64.5227M14.2605 64.5227C17.0106 64.1477 19.6357 64.0227 21.3857 64.5227C24.3857 66.0227 29.8857 71.0226 32.3857 75.0226C27.3857 76.0226 20.3857 75.5226 15.8857 75.5226C13.1932 75.5226 11.8857 73.1892 11.8857 72.0226C11.3857 69.0226 12.6356 65.856 14.2605 64.5227Z" stroke="black" stroke-width="0.5"/>
<path d="M11.8857 71.5227C19.8857 70.0227 23.3857 72.6512 26.3857 74.1512M13.3857 74.5227L30.8857 74.0227" stroke="black" stroke-width="0.5"/>
<path d="M22.3838 83.0225H31.8838C33.8838 83.0225 35.3838 81.0225 34.8838 80.0225M38.3838 80.0225V84.5225" stroke="black" stroke-width="0.5"/>
<path d="M22.3852 81.5229C17.8852 81.5229 13.3852 82.0229 1.8852 79.0229V77.0229L5.8852 75.0229V73.5229L1.8852 73.023C1.38428 71.5227 0.384473 68.5227 2.38447 66.0227C1.88471 58.0227 2.38471 51.5227 4.3852 48.5224C36.8852 29.0228 58.8852 35.0229 84.8852 30.5229C162.885 -24.4772 244.885 12.5227 281.885 27.0229L295.385 29.0227L295.885 36.0227V39.0227C297.384 44.0227 298.719 48.5227 297.385 50.5227C299.885 51.5227 302.385 54.6894 302.385 56.5227L300.385 66.5227C300.837 77.3706 298.429 77.5949 289.098 77.9073C288.106 77.9405 286.037 77.9747 284.885 78.0227V79.5227L259.885 79.9537M22.3852 81.5229V84.5229H40.3835L39.8852 80.0229M22.3852 81.5229V80.0229H39.8852M39.8852 80.0229C36.8852 38.5229 90.3852 41.5229 86.8852 80.5229V83.0227H213.385C207.385 39.5227 261.885 39.5227 259.885 79.9537M259.384 79.9537H259.885" stroke="black"/>
</svg>
