<svg width="304" height="96" viewBox="0 0 304 96" fill="none" xmlns="http://www.w3.org/2000/svg">
<circle cx="63.0742" cy="74.2297" r="20.5" fill="#EDADBF" stroke="black"/>
<circle cx="236.074" cy="74.2297" r="20.5" fill="#EDADBF" stroke="black"/>
<path d="M133.072 12.7296L131.572 9.22959C171.572 1.2297 193.072 1.72974 232.072 13.2297L228.572 17.7297C208.572 9.72965 190.572 8.72964 174.572 8.22971C172.072 7.72971 168.072 7.72968 165.572 8.22959C155.572 8.22971 143.572 9.72971 133.072 12.7296Z" fill="#E0426F" stroke="black" stroke-width="0.5"/>
<path d="M131.572 9.22978L131.072 7.72978C167.072 -3.27026 199.572 0.72961 235.072 9.72978L232.072 13.2298C192.072 0.729736 166.072 2.22974 131.572 9.22978Z" fill="#E0426F" stroke="black" stroke-width="0.5"/>
<path d="M131.572 9.2296C183.072 -2.27042 211.572 7.72961 232.072 13.2296" stroke="black" stroke-width="0.5"/>
<path d="M171.074 30.2297L174.574 8.22974C208.074 9.22974 219.574 14.7297 224.074 16.2297L226.557 28.2297C199.567 28.2304 182.072 29.7298 171.074 30.2297Z" fill="#E0426F"/>
<path d="M227.074 30.7297L224.074 16.2297C219.574 14.7297 208.074 9.22974 174.574 8.22974L171.074 30.2297C182.074 29.7297 199.574 28.2297 226.574 28.2297" stroke="black" stroke-width="0.5"/>
<path d="M165.574 8.22974C132.574 9.22974 112.574 18.2297 93.5742 35.7297L96.0742 33.7297L160.074 30.7297L165.574 8.22974Z" fill="#E0426F" stroke="black" stroke-width="0.5"/>
<path d="M240.072 22.7297C236.406 20.0631 230.572 17.7297 224.072 16.2297L226.572 28.2297H233.072C236.072 26.7297 239.072 24.4985 240.072 22.7297Z" fill="#E0426F" stroke="black" stroke-width="0.5"/>
<path d="M97.0742 78.7297H164.074L198.574 77.2297H213.074L213.574 82.7297H199.574H98.5742H87.0742V78.7297H97.0742Z" fill="#E0426F"/>
<path d="M97.0742 78.7297H164.074L198.574 77.2297M97.0742 78.7297C97.0742 80.2297 97.5742 81.2297 98.5742 82.7297M97.0742 78.7297H87.0742V82.7297H98.5742M198.574 77.2297L199.574 82.7297M198.574 77.2297H213.074L213.574 82.7297H199.574M199.574 82.7297H98.5742" stroke="black" stroke-width="0.5"/>
<path d="M97.0733 78.7297C92.5742 74.2297 89.5743 52.2297 93.5733 35.7297L165.574 31.7297C161.574 36.7297 160.574 70.7297 164.074 78.7297H97.0733Z" fill="#E0426F" stroke="black" stroke-width="0.5"/>
<path d="M229.074 30.7297L165.574 31.7297C161.574 36.7297 160.574 70.7297 164.074 78.7297L198.574 77.2297C203.074 75.7297 209.574 70.2297 229.074 30.7297Z" fill="#E0426F" stroke="black" stroke-width="0.5"/>
<path d="M171.074 30.2298C166.574 30.7298 163.074 30.7298 160.074 30.7298L165.574 8.22981C168.574 7.72974 171.574 7.72974 174.574 8.22981L171.074 30.2298Z" fill="#E0426F" stroke="black" stroke-width="0.5"/>
<path d="M99.5742 32.2297C104.074 37.7297 111.074 34.2297 115.074 32.7297C116.074 17.2296 103.074 25.2296 99.5742 32.2297Z" fill="#E0426F" stroke="black" stroke-width="0.5"/>
<path d="M235.072 9.72974L232.072 13.2297C249.072 18.7297 259.572 21.7297 272.072 28.2297H273.572L281.572 26.7297C266.572 20.2297 259.072 17.7297 235.072 9.72974Z" fill="#EDADBF" stroke="black" stroke-width="0.5"/>
<path d="M272.072 28.2297C261.572 22.7297 242.572 16.2297 232.072 13.2297L230.072 15.7297L245.072 23.2297C243.572 25.7297 239.572 27.7297 233.572 30.4297C245.572 29.7297 262.572 28.7297 272.072 28.2297Z" fill="#EDADBF" stroke="black" stroke-width="0.5"/>
<path d="M277.574 34.5297L283.573 32.2297L273.073 28.2297L229.073 30.7297C221.573 45.7297 206.573 76.2297 198.573 77.2297H213.073C211.573 66.2297 221.073 42.7297 246.074 51.7297C256.574 46.2297 266.574 40.7297 277.574 34.5297Z" fill="#EDADBF" stroke="black" stroke-width="0.5"/>
<path d="M278.572 34.2298C266.572 40.7298 256.572 46.2298 246.072 51.7298C250.572 54.7297 261.072 60.7297 260.072 79.7297L285.072 79.2297V77.7297C293.572 76.7297 302.072 80.2297 300.572 66.2297L302.572 56.2297C302.572 54.7297 300.072 50.7297 297.572 50.2297C299.072 47.7297 296.072 38.7297 296.072 38.7297V37.2297L292.072 34.2297L287.072 32.7297L283.572 32.2297L278.572 34.2298Z" fill="#EDADBF" stroke="black" stroke-width="0.5"/>
<path d="M281.572 26.7297L273.072 28.2297L283.572 32.2297C293.072 33.2297 292.071 34.7297 296.066 37.1499L295.572 28.7297L281.572 26.7297Z" fill="#EDADBF"/>
<path d="M296.072 37.2297L296.066 37.1499M296.066 37.1499L295.572 28.7297L281.572 26.7297L273.072 28.2297L283.572 32.2297C293.072 33.2297 292.071 34.7297 296.066 37.1499Z" stroke="black" stroke-width="0.5"/>
<path d="M294.574 36.7299C294.074 34.2298 283.074 34.0297 277.574 34.5297" stroke="black" stroke-width="0.5"/>
<path d="M300.574 66.7297L261.074 68.7297C260.574 63.7297 258.408 59.5631 256.574 57.7297L302.574 55.2297M301.074 52.7297C290.074 51.2297 279.074 46.4297 267.074 40.4297M229.074 30.7297L273.074 28.2297L281.574 26.7297" stroke="black" stroke-width="0.5"/>
<path d="M291.074 40.7297C291.074 38.7297 290.074 34.7297 286.574 32.7297C288.795 32.7297 292.172 33.7701 294.683 36.1397C295.147 37.6697 294.074 41.2297 291.032 42.7297C291.019 42.1395 291.074 41.454 291.074 40.7297Z" fill="#EDADBF"/>
<path d="M273.074 43.2297C280.07 43.5795 286.087 43.6846 291.467 44.2297M298.074 45.2297C295.971 44.7791 293.778 44.4638 291.467 44.2297M296.074 37.7297C295.656 37.1446 295.187 36.6154 294.683 36.1397M291.467 44.2297C291.141 43.885 291.047 43.3619 291.032 42.7297M291.032 42.7297C291.019 42.1395 291.074 41.454 291.074 40.7297C291.074 38.7297 290.074 34.7297 286.574 32.7297C288.795 32.7297 292.172 33.7701 294.683 36.1397M291.032 42.7297C294.074 41.2297 295.147 37.6697 294.683 36.1397" stroke="black" stroke-width="0.5"/>
<path d="M291.074 40.7297C286.574 40.7297 284.574 36.7297 283.574 34.2297" stroke="black" stroke-width="0.5"/>
<path d="M133.072 12.8297C119.572 16.8297 107.572 22.7297 93.5723 35.7297C100.572 23.7297 116.072 14.2297 131.572 9.22974L133.072 12.8297Z" fill="#E0426F" stroke="black" stroke-width="0.5"/>
<path d="M131.572 9.22974C111.572 14.9038 93.5723 32.2297 85.5723 30.2297C98.5723 20.7297 114.572 12.2297 131.072 7.72974L131.572 9.22974Z" fill="#E0426F" stroke="black" stroke-width="0.5"/>
<path d="M10.5729 48.2296H4.57293C2.07227 52.2296 2.07227 62.2296 2.57293 65.7296C1.07227 66.7296 1.07286 71.2296 2.07293 72.7296L6.07293 73.2296V74.7296L2.07293 76.7296V78.7296C6.07293 79.7296 14.5729 81.7296 22.5729 81.2296V79.7296H40.0729C39.4063 71.2296 41.0729 60.7296 50.0729 53.7296C47.5729 49.7296 40.5729 45.2296 37.5729 44.7296C27.5729 43.7296 12.5729 46.2296 10.5729 48.2296Z" fill="#E0426F" stroke="black" stroke-width="0.5"/>
<path d="M93.5742 35.7297C75.7409 36.5631 44.0742 41.4297 33.5742 44.4297L37.5742 44.7297C42.5742 46.2297 48.0742 50.5631 50.0742 53.7297C63.0732 44.2297 88.5732 51.2297 87.0732 78.7297H97.0732C90.0732 67.7297 91.0732 45.7297 93.5742 35.7297Z" fill="#E0426F" stroke="black" stroke-width="0.5"/>
<path d="M10.5723 48.2298H4.57227C37.0724 28.7297 59.0725 34.7297 85.0723 30.2297L94.0725 35.7297C77.0725 36.7297 48.0723 40.2297 34.0723 44.4297C26.0723 44.2297 12.0723 46.2297 10.5723 48.2298Z" fill="#E0426F" stroke="black" stroke-width="0.5"/>
<path d="M37.5737 44.7298C30.0737 43.7297 13.0737 45.7297 10.5737 48.2298C9.77372 50.6298 12.9071 53.5631 14.5737 54.7297C24.0737 56.2297 37.5737 50.2297 37.5737 44.7298Z" fill="#E0426F" stroke="black" stroke-width="0.5"/>
<path d="M4.57296 48.2297C11.573 49.2297 5.57296 59.7297 2.57296 64.7297C2.07289 57.7297 2.57275 52.2297 4.57296 48.2297Z" fill="#E0426F" stroke="black" stroke-width="0.5"/>
<path d="M22.5723 84.2297V79.7297H40.0723L40.5723 84.2297H22.5723Z" fill="#E0426F" stroke="black" stroke-width="0.5"/>
<path d="M3.07422 65.7295C4.57422 68.2295 6.57422 71.3962 6.07422 73.2295M22.5742 79.7295C12.0742 80.2295 7.57422 76.2295 8.57422 72.7295C9.07422 72.2295 10.5742 70.7295 11.5742 70.7295" stroke="black" stroke-width="0.5"/>
<path d="M32.5742 74.7296C30.0742 70.7296 24.5742 65.7297 21.5742 64.2297C19.8242 63.7297 17.1991 63.8547 14.449 64.2297C12.8241 65.563 11.5742 68.7296 12.0742 71.7296C12.0742 72.8963 13.3816 75.2296 16.0742 75.2296C20.5742 75.2296 27.5742 75.7296 32.5742 74.7296Z" fill="#E0426F"/>
<path d="M6.57422 65.7297C8.82416 65.2297 11.6991 64.6047 14.449 64.2297M14.449 64.2297C17.1991 63.8547 19.8242 63.7297 21.5742 64.2297C24.5742 65.7297 30.0742 70.7296 32.5742 74.7296C27.5742 75.7296 20.5742 75.2296 16.0742 75.2296C13.3816 75.2296 12.0742 72.8963 12.0742 71.7296C11.5742 68.7296 12.8241 65.563 14.449 64.2297Z" stroke="black" stroke-width="0.5"/>
<path d="M12.0742 71.2297C20.0742 69.7297 23.5742 72.3582 26.5742 73.8582M13.5742 74.2297L31.0742 73.7297" stroke="black" stroke-width="0.5"/>
<path d="M22.5723 82.7295H32.0723C34.0723 82.7295 35.5723 80.7295 35.0723 79.7295M38.5723 79.7295V84.2295" stroke="black" stroke-width="0.5"/>
<path d="M22.5742 81.23C18.0742 81.23 13.5742 81.73 2.07416 78.73V76.73L6.07417 74.73V73.23L2.07416 72.73C1.57324 71.2297 0.573438 68.2297 2.57343 65.7297C2.07368 57.7297 2.57368 51.2297 4.57417 48.2295C37.0742 28.7299 59.0742 34.7299 85.0742 30.2299C163.074 -24.7702 245.074 12.2297 282.074 26.7299L295.574 28.7297L296.074 35.7297V38.7297C297.573 43.7297 298.908 48.2297 297.574 50.2297C300.074 51.2297 302.574 54.3964 302.574 56.2297L300.574 66.2297C301.026 77.0776 298.618 77.3019 289.286 77.6144C288.295 77.6476 286.226 77.6817 285.074 77.7297V79.2297L260.074 79.6608M22.5742 81.23V84.23H40.5725L40.0742 79.73M22.5742 81.23V79.73H40.0742M40.0742 79.73C37.0742 38.23 90.5742 41.23 87.0742 80.23V82.7297H213.574C207.574 39.2297 262.074 39.2297 260.074 79.6608M259.573 79.6608H260.074" stroke="black"/>
</svg>
