<svg width="303" height="96" viewBox="0 0 303 96" fill="none" xmlns="http://www.w3.org/2000/svg">
<circle cx="62.458" cy="74.5378" r="20.5" fill="#E0426F" stroke="black"/>
<circle cx="235.458" cy="74.5378" r="20.5" fill="#E0426F" stroke="black"/>
<path d="M132.456 13.0377L130.956 9.5377C170.956 1.53781 192.456 2.03784 231.456 13.5378L227.956 18.0378C207.956 10.0378 189.956 9.03775 173.956 8.53782C171.456 8.03782 167.456 8.03778 164.956 8.5377C154.956 8.53782 142.956 10.0378 132.456 13.0377Z" fill="#EDADBF" stroke="black" stroke-width="0.5"/>
<path d="M130.956 9.53789L130.456 8.03789C166.456 -2.96216 198.956 1.03772 234.456 10.0379L231.456 13.5379C191.456 1.03784 165.456 2.53784 130.956 9.53789Z" fill="#EDADBF" stroke="black" stroke-width="0.5"/>
<path d="M130.956 9.53771C182.456 -1.96232 210.956 8.03772 231.456 13.5377" stroke="black" stroke-width="0.5"/>
<path d="M170.458 30.5378L173.958 8.53784C207.458 9.53784 218.958 15.0378 223.458 16.5378L225.941 28.5378C198.951 28.5385 181.456 30.0379 170.458 30.5378Z" fill="#EDADBF"/>
<path d="M226.458 31.0378L223.458 16.5378C218.958 15.0378 207.458 9.53784 173.958 8.53784L170.458 30.5378C181.458 30.0378 198.958 28.5378 225.958 28.5378" stroke="black" stroke-width="0.5"/>
<path d="M164.958 8.53784C131.958 9.53784 111.958 18.5378 92.958 36.0378L95.458 34.0378L159.458 31.0378L164.958 8.53784Z" fill="#EDADBF" stroke="black" stroke-width="0.5"/>
<path d="M239.456 23.0378C235.789 20.3712 229.956 18.0378 223.456 16.5378L225.956 28.5378H232.456C235.456 27.0378 238.456 24.8066 239.456 23.0378Z" fill="#EDADBF" stroke="black" stroke-width="0.5"/>
<path d="M96.458 79.0378H163.458L197.958 77.5378H212.458L212.958 83.0378H198.958H97.958H86.458V79.0378H96.458Z" fill="#EDADBF"/>
<path d="M96.458 79.0378H163.458L197.958 77.5378M96.458 79.0378C96.458 80.5378 96.958 81.5378 97.958 83.0378M96.458 79.0378H86.458V83.0378H97.958M197.958 77.5378L198.958 83.0378M197.958 77.5378H212.458L212.958 83.0378H198.958M198.958 83.0378H97.958" stroke="black" stroke-width="0.5"/>
<path d="M96.4571 79.0378C91.958 74.5378 88.9581 52.5378 92.9571 36.0378L164.958 32.0378C160.958 37.0378 159.958 71.0378 163.458 79.0378H96.4571Z" fill="#EDADBF" stroke="black" stroke-width="0.5"/>
<path d="M228.458 31.0378L164.958 32.0378C160.958 37.0378 159.958 71.0378 163.458 79.0378L197.958 77.5378C202.458 76.0378 208.958 70.5378 228.458 31.0378Z" fill="#EDADBF" stroke="black" stroke-width="0.5"/>
<path d="M170.458 30.5379C165.958 31.0379 162.458 31.0379 159.458 31.0379L164.958 8.53792C167.958 8.03784 170.958 8.03784 173.958 8.53792L170.458 30.5379Z" fill="#EDADBF" stroke="black" stroke-width="0.5"/>
<path d="M98.958 32.5379C103.458 38.0379 110.458 34.5379 114.458 33.0379C115.458 17.5377 102.458 25.5377 98.958 32.5379Z" fill="#EDADBF" stroke="black" stroke-width="0.5"/>
<path d="M234.456 10.0378L231.456 13.5378C248.456 19.0378 258.956 22.0378 271.456 28.5378H272.956L280.956 27.0378C265.956 20.5378 258.456 18.0378 234.456 10.0378Z" fill="#E56E90" stroke="black" stroke-width="0.5"/>
<path d="M271.456 28.5378C260.956 23.0378 241.956 16.5378 231.456 13.5378L229.456 16.0378L244.456 23.5378C242.956 26.0378 238.956 28.0378 232.956 30.7378C244.956 30.0378 261.956 29.0378 271.456 28.5378Z" fill="#E56E90" stroke="black" stroke-width="0.5"/>
<path d="M276.958 34.8378L282.956 32.5378L272.457 28.5378L228.457 31.0378C220.957 46.0378 205.957 76.5378 197.957 77.5378H212.457C210.957 66.5378 220.457 43.0378 245.458 52.0378C255.958 46.5378 265.958 41.0378 276.958 34.8378Z" fill="#E56E90" stroke="black" stroke-width="0.5"/>
<path d="M277.956 34.5379C265.956 41.0379 255.956 46.5379 245.456 52.0379C249.956 55.0378 260.456 61.0378 259.456 80.0378L284.456 79.5378V78.0378C292.956 77.0378 301.456 80.5378 299.956 66.5378L301.956 56.5378C301.956 55.0378 299.456 51.0378 296.956 50.5378C298.456 48.0378 295.456 39.0378 295.456 39.0378V37.5378L291.456 34.5378L286.456 33.0378L282.956 32.5378L277.956 34.5379Z" fill="#E56E90" stroke="black" stroke-width="0.5"/>
<path d="M280.956 27.0378L272.456 28.5378L282.956 32.5378C292.456 33.5378 291.455 35.0378 295.45 37.458L294.956 29.0378L280.956 27.0378Z" fill="#E56E90"/>
<path d="M295.456 37.5378L295.45 37.458M295.45 37.458L294.956 29.0378L280.956 27.0378L272.456 28.5378L282.956 32.5378C292.456 33.5378 291.455 35.0378 295.45 37.458Z" stroke="black" stroke-width="0.5"/>
<path d="M293.958 37.038C293.458 34.5379 282.458 34.3379 276.958 34.8379" stroke="black" stroke-width="0.5"/>
<path d="M299.958 67.0378L260.458 69.0378C259.958 64.0378 257.791 59.8712 255.958 58.0378L301.958 55.5378M300.458 53.0378C289.458 51.5378 278.458 46.7378 266.458 40.7378M228.458 31.0378L272.458 28.5378L280.958 27.0378" stroke="black" stroke-width="0.5"/>
<path d="M290.458 41.0378C290.458 39.0378 289.458 35.0378 285.958 33.0378C288.179 33.0378 291.556 34.0782 294.067 36.4478C294.531 37.9778 293.458 41.5378 290.416 43.0378C290.403 42.4476 290.458 41.7621 290.458 41.0378Z" fill="#E56E90"/>
<path d="M272.458 43.5378C279.454 43.8876 285.471 43.9927 290.851 44.5378M297.458 45.5378C295.355 45.0872 293.162 44.7719 290.851 44.5378M295.458 38.0378C295.04 37.4527 294.571 36.9235 294.067 36.4478M290.851 44.5378C290.525 44.1931 290.431 43.67 290.416 43.0378M290.416 43.0378C290.403 42.4476 290.458 41.7621 290.458 41.0378C290.458 39.0378 289.458 35.0378 285.958 33.0378C288.179 33.0378 291.556 34.0782 294.067 36.4478M290.416 43.0378C293.458 41.5378 294.531 37.9778 294.067 36.4478" stroke="black" stroke-width="0.5"/>
<path d="M290.458 41.0378C285.958 41.0378 283.958 37.0378 282.958 34.5378" stroke="black" stroke-width="0.5"/>
<path d="M132.456 13.1378C118.956 17.1378 106.956 23.0378 92.9561 36.0378C99.9561 24.0378 115.456 14.5378 130.956 9.53784L132.456 13.1378Z" fill="#E0426F" stroke="black" stroke-width="0.5"/>
<path d="M130.956 9.53784C110.956 15.2119 92.9561 32.5378 84.9561 30.5378C97.9561 21.0378 113.956 12.5378 130.456 8.03784L130.956 9.53784Z" fill="#E0426F" stroke="black" stroke-width="0.5"/>
<path d="M9.95672 48.5377H3.95672C1.45605 52.5377 1.45605 62.5377 1.95672 66.0377C0.456055 67.0377 0.456652 71.5377 1.45672 73.0377L5.45672 73.5377V75.0377L1.45672 77.0377V79.0377C5.45672 80.0377 13.9567 82.0377 21.9567 81.5377V80.0377H39.4567C38.7901 71.5377 40.4567 61.0377 49.4567 54.0377C46.9567 50.0377 39.9567 45.5377 36.9567 45.0377C26.9567 44.0377 11.9567 46.5377 9.95672 48.5377Z" fill="#E0426F" stroke="black" stroke-width="0.5"/>
<path d="M92.958 36.0378C75.1247 36.8712 43.458 41.7378 32.958 44.7378L36.958 45.0378C41.958 46.5378 47.458 50.8712 49.458 54.0378C62.457 44.5378 87.957 51.5378 86.457 79.0378H96.457C89.457 68.0378 90.457 46.0378 92.958 36.0378Z" fill="#E0426F" stroke="black" stroke-width="0.5"/>
<path d="M9.95606 48.5379H3.95605C36.4562 29.0378 58.4563 35.0378 84.4561 30.5378L93.4563 36.0378C76.4563 37.0378 47.4561 40.5378 33.4561 44.7378C25.4561 44.5378 11.4561 46.5378 9.95606 48.5379Z" fill="#E0426F" stroke="black" stroke-width="0.5"/>
<path d="M36.9575 45.0379C29.4575 44.0378 12.4575 46.0378 9.95751 48.5379C9.15751 50.9379 12.2908 53.8712 13.9575 55.0378C23.4575 56.5378 36.9575 50.5378 36.9575 45.0379Z" fill="#E0426F" stroke="black" stroke-width="0.5"/>
<path d="M3.95675 48.5378C10.9568 49.5378 4.95675 60.0378 1.95675 65.0378C1.45668 58.0378 1.95654 52.5378 3.95675 48.5378Z" fill="#E0426F" stroke="black" stroke-width="0.5"/>
<path d="M21.9561 84.5378V80.0378H39.4561L39.9561 84.5378H21.9561Z" fill="#E0426F" stroke="black" stroke-width="0.5"/>
<path d="M2.45801 66.0376C3.95801 68.5376 5.95801 71.7043 5.45801 73.5376M21.958 80.0376C11.458 80.5376 6.95801 76.5376 7.95801 73.0376C8.45801 72.5376 9.95801 71.0376 10.958 71.0376" stroke="black" stroke-width="0.5"/>
<path d="M31.958 75.0377C29.458 71.0377 23.958 66.0378 20.958 64.5378C19.208 64.0378 16.5829 64.1628 13.8328 64.5378C12.2079 65.8711 10.958 69.0377 11.458 72.0377C11.458 73.2044 12.7654 75.5377 15.458 75.5377C19.958 75.5377 26.958 76.0377 31.958 75.0377Z" fill="#E0426F"/>
<path d="M5.95801 66.0378C8.20795 65.5378 11.0829 64.9128 13.8328 64.5378M13.8328 64.5378C16.5829 64.1628 19.208 64.0378 20.958 64.5378C23.958 66.0378 29.458 71.0377 31.958 75.0377C26.958 76.0377 19.958 75.5377 15.458 75.5377C12.7654 75.5377 11.458 73.2044 11.458 72.0377C10.958 69.0377 12.2079 65.8711 13.8328 64.5378Z" stroke="black" stroke-width="0.5"/>
<path d="M11.458 71.5378C19.458 70.0378 22.958 72.6663 25.958 74.1663M12.958 74.5378L30.458 74.0378" stroke="black" stroke-width="0.5"/>
<path d="M21.9561 83.0376H31.4561C33.4561 83.0376 34.9561 81.0376 34.4561 80.0376M37.9561 80.0376V84.5376" stroke="black" stroke-width="0.5"/>
<path d="M21.958 81.5381C17.458 81.5381 12.958 82.0381 1.45795 79.0381V77.0381L5.45795 75.0381V73.5381L1.45795 73.0381C0.957031 71.5378 -0.0427729 68.5378 1.95722 66.0378C1.45747 58.0378 1.95747 51.5378 3.95795 48.5376C36.458 29.038 58.4579 35.038 84.4579 30.538C162.458 -24.4621 244.458 12.5378 281.458 27.038L294.958 29.0378L295.458 36.0378V39.0378C296.956 44.0378 298.291 48.5378 296.958 50.5378C299.458 51.5378 301.958 54.7045 301.958 56.5378L299.958 66.5378C300.41 77.3858 298.002 77.61 288.67 77.9225C287.679 77.9557 285.61 77.9898 284.458 78.0378V79.5378L259.458 79.9689M21.958 81.5381V84.5381H39.9563L39.458 80.0381M21.958 81.5381V80.0381H39.458M39.458 80.0381C36.458 38.5381 89.9579 41.5381 86.4579 80.5381V83.0378H212.958C206.958 39.5378 261.458 39.5378 259.458 79.9689M258.956 79.9689H259.458" stroke="black"/>
</svg>
