<svg width="303" height="96" viewBox="0 0 303 96" fill="none" xmlns="http://www.w3.org/2000/svg">
<circle cx="62.4697" cy="74.3687" r="20.5" fill="#E0426F" stroke="black"/>
<circle cx="235.47" cy="74.3687" r="20.5" fill="#E0426F" stroke="black"/>
<path d="M132.468 12.8685L130.968 9.36851C170.968 1.36862 192.468 1.86865 231.468 13.3686L227.968 17.8686C207.968 9.86856 189.968 8.86856 173.968 8.36863C171.468 7.86863 167.468 7.86859 164.968 8.36851C154.968 8.36863 142.968 9.86863 132.468 12.8685Z" fill="#EDADBF" stroke="black" stroke-width="0.5"/>
<path d="M130.968 9.3687L130.468 7.8687C166.468 -3.13135 198.968 0.868526 234.468 9.8687L231.468 13.3687C191.468 0.868652 165.468 2.36865 130.968 9.3687Z" fill="#EDADBF" stroke="black" stroke-width="0.5"/>
<path d="M130.968 9.36876C182.468 -2.13126 210.968 7.86877 231.468 13.3688" stroke="black" stroke-width="0.5"/>
<path d="M170.47 30.3687L173.97 8.36865C207.47 9.36865 218.97 14.8687 223.47 16.3687L225.952 28.3687C198.962 28.3693 181.467 29.8688 170.47 30.3687Z" fill="#EDADBF"/>
<path d="M226.47 30.8687L223.47 16.3687C218.97 14.8687 207.47 9.36865 173.97 8.36865L170.47 30.3687C181.47 29.8687 198.97 28.3687 225.97 28.3687" stroke="black" stroke-width="0.5"/>
<path d="M164.97 8.36865C131.97 9.36865 111.97 18.3687 92.9697 35.8687L95.4697 33.8687L159.47 30.8687L164.97 8.36865Z" fill="#EDADBF" stroke="black" stroke-width="0.5"/>
<path d="M239.468 22.8687C235.801 20.202 229.968 17.8687 223.468 16.3687L225.968 28.3687H232.468C235.468 26.8687 238.468 24.6374 239.468 22.8687Z" fill="#EDADBF" stroke="black" stroke-width="0.5"/>
<path d="M96.4697 78.8687H163.47L197.97 77.3687H212.47L212.97 82.8687H198.97H97.9697H86.4697V78.8687H96.4697Z" fill="#EDADBF"/>
<path d="M96.4697 78.8687H163.47L197.97 77.3687M96.4697 78.8687C96.4697 80.3687 96.9697 81.3687 97.9697 82.8687M96.4697 78.8687H86.4697V82.8687H97.9697M197.97 77.3687L198.97 82.8687M197.97 77.3687H212.47L212.97 82.8687H198.97M198.97 82.8687H97.9697" stroke="black" stroke-width="0.5"/>
<path d="M96.4689 78.8687C91.9697 74.3687 88.9698 52.3687 92.9689 35.8687L164.97 31.8687C160.97 36.8687 159.97 70.8687 163.47 78.8687H96.4689Z" fill="#EDADBF" stroke="black" stroke-width="0.5"/>
<path d="M228.47 30.8687L164.97 31.8687C160.97 36.8687 159.97 70.8687 163.47 78.8687L197.97 77.3687C202.47 75.8687 208.97 70.3687 228.47 30.8687Z" fill="#EDADBF" stroke="black" stroke-width="0.5"/>
<path d="M170.47 30.3687C165.97 30.8687 162.47 30.8687 159.47 30.8687L164.97 8.36873C167.97 7.86865 170.97 7.86865 173.97 8.36873L170.47 30.3687Z" fill="#EDADBF" stroke="black" stroke-width="0.5"/>
<path d="M98.9697 32.3689C103.47 37.8689 110.47 34.3689 114.47 32.8689C115.47 17.3688 102.47 25.3688 98.9697 32.3689Z" fill="#EDADBF" stroke="black" stroke-width="0.5"/>
<path d="M234.468 9.86865L231.468 13.3687C248.468 18.8687 258.968 21.8687 271.468 28.3687H272.968L280.968 26.8687C265.968 20.3687 258.468 17.8687 234.468 9.86865Z" fill="#EDADBF" stroke="black" stroke-width="0.5"/>
<path d="M271.468 28.3687C260.968 22.8687 241.968 16.3687 231.468 13.3687L229.468 15.8687L244.468 23.3687C242.968 25.8687 238.968 27.8687 232.968 30.5687C244.968 29.8687 261.968 28.8687 271.468 28.3687Z" fill="#EDADBF" stroke="black" stroke-width="0.5"/>
<path d="M276.97 34.6687L282.968 32.3687L272.469 28.3687L228.469 30.8687C220.969 45.8687 205.969 76.3687 197.969 77.3687H212.469C210.969 66.3687 220.469 42.8687 245.47 51.8687C255.97 46.3687 265.97 40.8687 276.97 34.6687Z" fill="#EDADBF" stroke="black" stroke-width="0.5"/>
<path d="M277.968 34.3687C265.968 40.8687 255.968 46.3687 245.468 51.8687C249.968 54.8687 260.468 60.8687 259.468 79.8687L284.468 79.3687V77.8687C292.968 76.8687 301.468 80.3687 299.968 66.3687L301.968 56.3687C301.968 54.8687 299.468 50.8687 296.968 50.3687C298.468 47.8687 295.468 38.8687 295.468 38.8687V37.3687L291.468 34.3687L286.468 32.8687L282.968 32.3687L277.968 34.3687Z" fill="#EDADBF" stroke="black" stroke-width="0.5"/>
<path d="M280.968 26.8687L272.468 28.3687L282.968 32.3687C292.468 33.3687 291.467 34.8687 295.462 37.2888L294.968 28.8687L280.968 26.8687Z" fill="#EDADBF"/>
<path d="M295.468 37.3687L295.462 37.2888M295.462 37.2888L294.968 28.8687L280.968 26.8687L272.468 28.3687L282.968 32.3687C292.468 33.3687 291.467 34.8687 295.462 37.2888Z" stroke="black" stroke-width="0.5"/>
<path d="M293.97 36.8689C293.47 34.3687 282.47 34.1687 276.97 34.6687" stroke="black" stroke-width="0.5"/>
<path d="M299.97 66.8687L260.47 68.8687C259.97 63.8687 257.803 59.702 255.97 57.8687L301.97 55.3687M300.47 52.8687C289.47 51.3687 278.47 46.5687 266.47 40.5687M228.47 30.8687L272.47 28.3687L280.97 26.8687" stroke="black" stroke-width="0.5"/>
<path d="M290.47 40.8687C290.47 38.8687 289.47 34.8687 285.97 32.8687C288.191 32.8687 291.567 33.909 294.079 36.2786C294.542 37.8086 293.47 41.3687 290.428 42.8687C290.414 42.2784 290.47 41.5929 290.47 40.8687Z" fill="#EDADBF"/>
<path d="M272.47 43.3687C279.465 43.7184 285.482 43.8235 290.863 44.3687M297.47 45.3687C295.367 44.918 293.173 44.6028 290.863 44.3687M295.47 37.8687C295.052 37.2835 294.583 36.7543 294.079 36.2786M290.863 44.3687C290.537 44.0239 290.443 43.5008 290.428 42.8687M290.428 42.8687C290.414 42.2784 290.47 41.5929 290.47 40.8687C290.47 38.8687 289.47 34.8687 285.97 32.8687C288.191 32.8687 291.567 33.909 294.079 36.2786M290.428 42.8687C293.47 41.3687 294.542 37.8086 294.079 36.2786" stroke="black" stroke-width="0.5"/>
<path d="M290.47 40.8687C285.97 40.8687 283.97 36.8687 282.97 34.3687" stroke="black" stroke-width="0.5"/>
<path d="M132.468 12.9686C118.968 16.9686 106.968 22.8687 92.9678 35.8687C99.9678 23.8687 115.468 14.3687 130.968 9.36865L132.468 12.9686Z" fill="#E56E90" stroke="black" stroke-width="0.5"/>
<path d="M130.968 9.36865C110.968 15.0427 92.9678 32.3687 84.9678 30.3687C97.9678 20.8687 113.968 12.3687 130.468 7.86865L130.968 9.36865Z" fill="#E56E90" stroke="black" stroke-width="0.5"/>
<path d="M9.96844 48.3685H3.96844C1.46777 52.3685 1.46777 62.3685 1.96844 65.8685C0.467773 66.8685 0.468371 71.3685 1.46844 72.8685L5.46844 73.3685V74.8685L1.46844 76.8685V78.8685C5.46844 79.8685 13.9684 81.8685 21.9684 81.3685V79.8685H39.4684C38.8018 71.3685 40.4684 60.8685 49.4684 53.8685C46.9684 49.8685 39.9684 45.3685 36.9684 44.8685C26.9684 43.8685 11.9684 46.3685 9.96844 48.3685Z" fill="#E56E90" stroke="black" stroke-width="0.5"/>
<path d="M92.9697 35.8687C75.1364 36.702 43.4697 41.5687 32.9697 44.5687L36.9697 44.8687C41.9697 46.3687 47.4697 50.702 49.4697 53.8687C62.4688 44.3687 87.9688 51.3687 86.4688 78.8687H96.4688C89.4688 67.8687 90.4688 45.8687 92.9697 35.8687Z" fill="#E56E90" stroke="black" stroke-width="0.5"/>
<path d="M9.96777 48.3687H3.96777C36.468 28.8686 58.468 34.8687 84.4678 30.3687L93.468 35.8687C76.468 36.8687 47.4678 40.3686 33.4678 44.5687C25.4678 44.3686 11.4678 46.3686 9.96777 48.3687Z" fill="#E56E90" stroke="black" stroke-width="0.5"/>
<path d="M36.9692 44.8687C29.4692 43.8687 12.4692 45.8687 9.96923 48.3687C9.16923 50.7687 12.3026 53.702 13.9692 54.8687C23.4692 56.3687 36.9692 50.3687 36.9692 44.8687Z" fill="#E56E90" stroke="black" stroke-width="0.5"/>
<path d="M3.96847 48.3687C10.9685 49.3687 4.96847 59.8687 1.96847 64.8687C1.4684 57.8687 1.96826 52.3687 3.96847 48.3687Z" fill="#E56E90" stroke="black" stroke-width="0.5"/>
<path d="M21.9678 84.3687V79.8687H39.4678L39.9678 84.3687H21.9678Z" fill="#E56E90" stroke="black" stroke-width="0.5"/>
<path d="M2.46973 65.8687C3.96973 68.3687 5.96973 71.5353 5.46973 73.3687M21.9697 79.8687C11.4697 80.3687 6.96973 76.3687 7.96973 72.8687C8.46973 72.3687 9.96973 70.8687 10.9697 70.8687" stroke="black" stroke-width="0.5"/>
<path d="M31.9697 74.8688C29.4697 70.8688 23.9697 65.8689 20.9697 64.3689C19.2197 63.8688 16.5946 63.9938 13.8445 64.3689C12.2196 65.7022 10.9697 68.8688 11.4697 71.8688C11.4697 73.0354 12.7771 75.3688 15.4697 75.3688C19.9697 75.3688 26.9697 75.8688 31.9697 74.8688Z" fill="#E56E90"/>
<path d="M5.96973 65.8689C8.21967 65.3688 11.0946 64.7438 13.8445 64.3689M13.8445 64.3689C16.5946 63.9938 19.2197 63.8688 20.9697 64.3689C23.9697 65.8689 29.4697 70.8688 31.9697 74.8688C26.9697 75.8688 19.9697 75.3688 15.4697 75.3688C12.7771 75.3688 11.4697 73.0354 11.4697 71.8688C10.9697 68.8688 12.2196 65.7022 13.8445 64.3689Z" stroke="black" stroke-width="0.5"/>
<path d="M11.4697 71.3688C19.4697 69.8689 22.9697 72.4974 25.9697 73.9974M12.9697 74.3689L30.4697 73.8689" stroke="black" stroke-width="0.5"/>
<path d="M21.9678 82.8687H31.4678C33.4678 82.8687 34.9678 80.8687 34.4678 79.8687M37.9678 79.8687V84.3687" stroke="black" stroke-width="0.5"/>
<path d="M21.9697 81.3689C17.4697 81.3689 12.9697 81.8689 1.46967 78.8689V76.8689L5.46967 74.8689V73.3689L1.46967 72.8689C0.96875 71.3687 -0.0310541 68.3687 1.96894 65.8687C1.46918 57.8687 1.96918 51.3687 3.96967 48.3684C36.4697 28.8688 58.4697 34.8688 84.4697 30.3688C162.47 -24.6313 244.47 12.3686 281.47 26.8688L294.97 28.8687L295.47 35.8687V38.8687C296.968 43.8687 298.303 48.3687 296.97 50.3687C299.47 51.3687 301.97 54.5353 301.97 56.3687L299.97 66.3687C300.422 77.2166 298.013 77.4408 288.682 77.7533C287.691 77.7865 285.622 77.8206 284.47 77.8687V79.3687L259.47 79.7997M21.9697 81.3689V84.3689H39.968L39.4697 79.8689M21.9697 81.3689V79.8689H39.4697M39.4697 79.8689C36.4697 38.3689 89.9697 41.3689 86.4697 80.3689V82.8687H212.97C206.97 39.3687 261.47 39.3687 259.47 79.7997M258.968 79.7997H259.47" stroke="black"/>
</svg>
