<svg width="303" height="95" viewBox="0 0 303 95" fill="none" xmlns="http://www.w3.org/2000/svg">
<circle cx="62.6875" cy="73.6768" r="20.5" stroke="black"/>
<circle cx="235.688" cy="73.6768" r="20.5" stroke="black"/>
<path d="M132.686 12.1766L131.186 8.67661C171.186 0.676725 192.686 1.17676 231.686 12.6767L228.186 17.1767C208.186 9.17667 190.186 8.17667 174.186 7.67673C171.686 7.17673 167.686 7.1767 165.186 7.67661C155.186 7.67673 143.186 9.17674 132.686 12.1766Z" stroke="black" stroke-width="0.5"/>
<path d="M131.186 8.6768L130.686 7.1768C166.686 -3.82324 199.186 0.176632 234.686 9.1768L231.686 12.6768C191.686 0.176758 165.686 1.67676 131.186 8.6768Z" stroke="black" stroke-width="0.5"/>
<path d="M131.186 8.67675C182.686 -2.82328 211.186 7.17676 231.686 12.6767" stroke="black" stroke-width="0.5"/>
<path d="M226.688 30.1768L223.688 15.6768C219.188 14.1768 207.688 8.67676 174.188 7.67676L170.688 29.6768C181.688 29.1768 199.188 27.6768 226.188 27.6768" stroke="black" stroke-width="0.5"/>
<path d="M165.188 7.67676C132.188 8.67676 112.188 17.6768 93.1875 35.1768L95.6875 33.1768L159.688 30.1768L165.188 7.67676Z" stroke="black" stroke-width="0.5"/>
<path d="M239.686 22.1768C236.019 19.5101 230.186 17.1768 223.686 15.6768L226.186 27.6768H232.686C235.686 26.1768 238.686 23.9455 239.686 22.1768Z" stroke="black" stroke-width="0.5"/>
<path d="M96.6875 78.1768H163.688L198.188 76.6768M96.6875 78.1768C96.6875 79.6768 97.1875 80.6768 98.1875 82.1768M96.6875 78.1768H86.6875V82.1768H98.1875M198.188 76.6768L199.188 82.1768M198.188 76.6768H212.688L213.188 82.1768H199.188M199.188 82.1768H98.1875" stroke="black" stroke-width="0.5"/>
<path d="M96.6866 78.1768C92.1875 73.6768 89.1875 51.6768 93.1866 35.1768L165.188 31.1768C161.188 36.1768 160.188 70.1768 163.687 78.1768H96.6866Z" stroke="black" stroke-width="0.5"/>
<path d="M228.687 30.1768L165.187 31.1768C161.188 36.1768 160.188 70.1768 163.687 78.1768L198.187 76.6768C202.687 75.1768 209.187 69.6768 228.687 30.1768Z" stroke="black" stroke-width="0.5"/>
<path d="M170.688 29.6768C166.188 30.1768 162.688 30.1768 159.688 30.1768L165.188 7.67683C168.188 7.17676 171.188 7.17676 174.188 7.67683L170.688 29.6768Z" stroke="black" stroke-width="0.5"/>
<path d="M99.1875 31.6769C103.688 37.1769 110.688 33.6769 114.688 32.1769C115.688 16.6768 102.688 24.6768 99.1875 31.6769Z" stroke="black" stroke-width="0.5"/>
<path d="M234.686 9.17676L231.686 12.6768C248.686 18.1768 259.186 21.1768 271.686 27.6768H273.186L281.186 26.1768C266.186 19.6768 258.686 17.1768 234.686 9.17676Z" fill="#EFC7D3" stroke="black" stroke-width="0.5"/>
<path d="M271.686 27.6768C261.186 22.1768 242.186 15.6768 231.686 12.6768L229.686 15.1768L244.686 22.6768C243.186 25.1768 239.186 27.1768 233.186 29.8768C245.186 29.1768 262.186 28.1768 271.686 27.6768Z" fill="#EFC7D3" stroke="black" stroke-width="0.5"/>
<path d="M277.188 33.9768L283.186 31.6768L272.687 27.6768L228.687 30.1768C221.187 45.1768 206.187 75.6768 198.187 76.6768H212.687C211.187 65.6768 220.687 42.1768 245.688 51.1768C256.188 45.6768 266.188 40.1768 277.188 33.9768Z" fill="#EFC7D3" stroke="black" stroke-width="0.5"/>
<path d="M278.186 33.6768C266.186 40.1768 256.186 45.6768 245.686 51.1768C250.186 54.1768 260.686 60.1768 259.686 79.1768L284.686 78.6768V77.1768C293.186 76.1768 301.686 79.6768 300.186 65.6768L302.186 55.6768C302.186 54.1768 299.686 50.1768 297.186 49.6768C298.686 47.1768 295.686 38.1768 295.686 38.1768V36.6768L291.686 33.6768L286.686 32.1768L283.186 31.6768L278.186 33.6768Z" fill="#EFC7D3" stroke="black" stroke-width="0.5"/>
<path d="M281.186 26.1768L272.686 27.6768L283.186 31.6768C292.686 32.6768 291.684 34.1768 295.68 36.5969L295.186 28.1768L281.186 26.1768Z" fill="#EFC7D3"/>
<path d="M295.686 36.6768L295.68 36.5969M295.68 36.5969L295.186 28.1768L281.186 26.1768L272.686 27.6768L283.186 31.6768C292.686 32.6768 291.684 34.1768 295.68 36.5969Z" stroke="black" stroke-width="0.5"/>
<path d="M294.188 36.177C293.688 33.6768 282.688 33.4768 277.188 33.9768" stroke="black" stroke-width="0.5"/>
<path d="M300.188 66.1768L260.688 68.1768C260.188 63.1768 258.021 59.0101 256.188 57.1768L302.188 54.6768M300.688 52.1768C289.688 50.6768 278.688 45.8768 266.688 39.8768M228.688 30.1768L272.688 27.6768L281.188 26.1768" stroke="black" stroke-width="0.5"/>
<path d="M290.688 40.1768C290.688 38.1768 289.688 34.1768 286.188 32.1768C288.408 32.1768 291.785 33.2171 294.296 35.5867C294.76 37.1167 293.688 40.6768 290.646 42.1768C290.632 41.5865 290.688 40.901 290.688 40.1768Z" fill="#EFC7D3"/>
<path d="M272.688 42.6768C279.683 43.0265 285.7 43.1316 291.081 43.6768M297.688 44.6768C295.585 44.2261 293.391 43.9109 291.081 43.6768M295.688 37.1768C295.27 36.5916 294.8 36.0624 294.296 35.5867M291.081 43.6768C290.754 43.332 290.66 42.8089 290.646 42.1768M290.646 42.1768C290.632 41.5865 290.688 40.901 290.688 40.1768C290.688 38.1768 289.688 34.1768 286.188 32.1768C288.408 32.1768 291.785 33.2171 294.296 35.5867M290.646 42.1768C293.688 40.6768 294.76 37.1167 294.296 35.5867" stroke="black" stroke-width="0.5"/>
<path d="M290.688 40.1768C286.188 40.1768 284.188 36.1768 283.188 33.6768" stroke="black" stroke-width="0.5"/>
<path d="M132.686 12.2767C119.186 16.2767 107.186 22.1768 93.186 35.1768C100.186 23.1768 115.686 13.6768 131.186 8.67676L132.686 12.2767Z" fill="#E56E90" stroke="black" stroke-width="0.5"/>
<path d="M131.186 8.67676C111.186 14.3508 93.186 31.6768 85.186 29.6768C98.186 20.1768 114.186 11.6768 130.686 7.17676L131.186 8.67676Z" fill="#E56E90" stroke="black" stroke-width="0.5"/>
<path d="M10.1867 47.6768H4.1867C1.68604 51.6768 1.68604 61.6768 2.1867 65.1768C0.686035 66.1768 0.686633 70.6768 1.6867 72.1768L5.6867 72.6768V74.1768L1.6867 76.1768V78.1768C5.6867 79.1768 14.1867 81.1768 22.1867 80.6768V79.1768H39.6867C39.02 70.6768 40.6867 60.1768 49.6867 53.1768C47.1867 49.1768 40.1867 44.6768 37.1867 44.1768C27.1867 43.1768 12.1867 45.6768 10.1867 47.6768Z" fill="#E56E90" stroke="black" stroke-width="0.5"/>
<path d="M93.1875 35.1768C75.3542 36.0101 43.6875 40.8768 33.1875 43.8768L37.1875 44.1768C42.1875 45.6768 47.6875 50.0101 49.6875 53.1768C62.6865 43.6768 88.1865 50.6768 86.6865 78.1768H96.6865C89.6865 67.1768 90.6865 45.1768 93.1875 35.1768Z" fill="#E56E90" stroke="black" stroke-width="0.5"/>
<path d="M10.1855 47.6768H4.18555C36.6857 28.1767 58.6858 34.1768 84.6855 29.6768L93.6858 35.1768C76.6858 36.1768 47.6855 39.6768 33.6855 43.8768C25.6855 43.6767 11.6855 45.6768 10.1855 47.6768Z" fill="#E56E90" stroke="black" stroke-width="0.5"/>
<path d="M37.1875 44.1768C29.6875 43.1768 12.6875 45.1768 10.1875 47.6768C9.38749 50.0768 12.5208 53.0101 14.1875 54.1768C23.6875 55.6768 37.1875 49.6768 37.1875 44.1768Z" fill="#E56E90" stroke="black" stroke-width="0.5"/>
<path d="M4.18673 47.6768C11.1867 48.6768 5.18673 59.1768 2.18673 64.1768C1.68666 57.1768 2.18652 51.6768 4.18673 47.6768Z" fill="#E56E90" stroke="black" stroke-width="0.5"/>
<path d="M22.186 83.6768V79.1768H39.686L40.186 83.6768H22.186Z" fill="#E56E90" stroke="black" stroke-width="0.5"/>
<path d="M2.6875 65.1768C4.1875 67.6768 6.1875 70.8434 5.6875 72.6768M22.1875 79.1768C11.6875 79.6768 7.1875 75.6768 8.1875 72.1768C8.6875 71.6768 10.1875 70.1768 11.1875 70.1768" stroke="black" stroke-width="0.5"/>
<path d="M32.1875 74.1768C29.6875 70.1768 24.1875 65.1768 21.1875 63.6768C19.4375 63.1768 16.8124 63.3018 14.0623 63.6768C12.4374 65.0101 11.1875 68.1768 11.6875 71.1768C11.6875 72.3434 12.9949 74.6768 15.6875 74.6768C20.1875 74.6768 27.1875 75.1768 32.1875 74.1768Z" fill="#E56E90"/>
<path d="M6.1875 65.1768C8.43744 64.6768 11.3124 64.0518 14.0623 63.6768M14.0623 63.6768C16.8124 63.3018 19.4375 63.1768 21.1875 63.6768C24.1875 65.1768 29.6875 70.1768 32.1875 74.1768C27.1875 75.1768 20.1875 74.6768 15.6875 74.6768C12.9949 74.6768 11.6875 72.3434 11.6875 71.1768C11.1875 68.1768 12.4374 65.0101 14.0623 63.6768Z" stroke="black" stroke-width="0.5"/>
<path d="M11.6875 70.6768C19.6875 69.1769 23.1875 71.8054 26.1875 73.3054M13.1875 73.6769L30.6875 73.1769" stroke="black" stroke-width="0.5"/>
<path d="M22.1855 82.1768H31.6855C33.6855 82.1768 35.1855 80.1768 34.6855 79.1768M38.1855 79.1768V83.6768" stroke="black" stroke-width="0.5"/>
<path d="M22.1874 80.677C17.6874 80.677 13.1874 81.177 1.68745 78.177V76.177L5.68745 74.177V72.677L1.68745 72.177C1.18652 70.6768 0.186719 67.6768 2.18671 65.1768C1.68696 57.1768 2.18696 50.6768 4.18745 47.6765C36.6874 28.1769 58.6874 34.1769 84.6874 29.6769C162.687 -25.3232 244.687 11.6767 281.687 26.1769L295.187 28.1768L295.687 35.1768V38.1768C297.186 43.1768 298.521 47.6768 297.187 49.6768C299.687 50.6768 302.187 53.8434 302.187 55.6768L300.187 65.6768C300.639 76.5247 298.231 76.7489 288.9 77.0614C287.909 77.0946 285.84 77.1288 284.687 77.1768V78.6768L259.687 79.1078M22.1874 80.677V83.677H40.1858L39.6875 79.177M22.1874 80.677V79.177H39.6875M39.6875 79.177C36.6875 37.677 90.1874 40.677 86.6874 79.677V82.1768H213.187C207.187 38.6768 261.687 38.6768 259.687 79.1078M259.186 79.1078H259.687" stroke="black"/>
</svg>
