<svg width="303" height="96" viewBox="0 0 303 96" fill="none" xmlns="http://www.w3.org/2000/svg">
<circle cx="62.2725" cy="74.1843" r="20.5" fill="#E56E90" stroke="black"/>
<circle cx="235.272" cy="74.1843" r="20.5" fill="#E56E90" stroke="black"/>
<path d="M132.271 12.6842L130.771 9.18418C170.771 1.18429 192.271 1.68433 231.271 13.1843L227.771 17.6843C207.771 9.68424 189.771 8.68423 173.771 8.1843C171.271 7.6843 167.271 7.68427 164.771 8.18418C154.771 8.1843 142.771 9.6843 132.271 12.6842Z" fill="#EFC7D3" stroke="black" stroke-width="0.5"/>
<path d="M130.771 9.18437L130.271 7.68437C166.271 -3.31567 198.771 0.6842 234.271 9.68437L231.271 13.1844C191.271 0.684326 165.271 2.18433 130.771 9.18437Z" fill="#EFC7D3" stroke="black" stroke-width="0.5"/>
<path d="M130.771 9.18431C182.271 -2.31571 210.771 7.68433 231.271 13.1843" stroke="black" stroke-width="0.5"/>
<path d="M170.272 30.1843L173.772 8.18433C207.272 9.18433 218.772 14.6843 223.272 16.1843L225.755 28.1843C198.765 28.185 181.27 29.6844 170.272 30.1843Z" fill="#EFC7D3"/>
<path d="M226.272 30.6843L223.272 16.1843C218.772 14.6843 207.272 9.18433 173.772 8.18433L170.272 30.1843C181.272 29.6843 198.772 28.1843 225.772 28.1843" stroke="black" stroke-width="0.5"/>
<path d="M164.772 8.18433C131.772 9.18433 111.772 18.1843 92.7725 35.6843L95.2725 33.6843L159.272 30.6843L164.772 8.18433Z" fill="#EFC7D3" stroke="black" stroke-width="0.5"/>
<path d="M239.271 22.6843C235.604 20.0177 229.771 17.6843 223.271 16.1843L225.771 28.1843H232.271C235.271 26.6843 238.271 24.4531 239.271 22.6843Z" fill="#EFC7D3" stroke="black" stroke-width="0.5"/>
<path d="M96.2725 78.6843H163.272L197.772 77.1843H212.272L212.772 82.6843H198.772H97.7725H86.2725V78.6843H96.2725Z" fill="#EFC7D3"/>
<path d="M96.2725 78.6843H163.272L197.772 77.1843M96.2725 78.6843C96.2725 80.1843 96.7725 81.1843 97.7725 82.6843M96.2725 78.6843H86.2725V82.6843H97.7725M197.772 77.1843L198.772 82.6843M197.772 77.1843H212.272L212.772 82.6843H198.772M198.772 82.6843H97.7725" stroke="black" stroke-width="0.5"/>
<path d="M96.2716 78.6843C91.7725 74.1843 88.7725 52.1843 92.7716 35.6843L164.772 31.6843C160.772 36.6843 159.772 70.6843 163.272 78.6843H96.2716Z" fill="#EFC7D3" stroke="black" stroke-width="0.5"/>
<path d="M228.272 30.6843L164.772 31.6843C160.773 36.6843 159.773 70.6843 163.272 78.6843L197.772 77.1843C202.272 75.6843 208.772 70.1843 228.272 30.6843Z" fill="#EFC7D3" stroke="black" stroke-width="0.5"/>
<path d="M170.272 30.1844C165.772 30.6844 162.272 30.6844 159.272 30.6844L164.772 8.1844C167.772 7.68433 170.772 7.68433 173.772 8.1844L170.272 30.1844Z" fill="#EFC7D3" stroke="black" stroke-width="0.5"/>
<path d="M98.7725 32.1845C103.272 37.6845 110.272 34.1845 114.272 32.6845C115.272 17.1843 102.272 25.1843 98.7725 32.1845Z" fill="#EFC7D3" stroke="black" stroke-width="0.5"/>
<path d="M234.271 9.68433L231.271 13.1843C248.271 18.6843 258.771 21.6843 271.271 28.1843H272.771L280.771 26.6843C265.771 20.1843 258.271 17.6843 234.271 9.68433Z" fill="#EDADBF" stroke="black" stroke-width="0.5"/>
<path d="M271.271 28.1843C260.771 22.6843 241.771 16.1843 231.271 13.1843L229.271 15.6843L244.271 23.1843C242.771 25.6843 238.771 27.6843 232.771 30.3843C244.771 29.6843 261.771 28.6843 271.271 28.1843Z" fill="#EDADBF" stroke="black" stroke-width="0.5"/>
<path d="M276.772 34.4843L282.771 32.1843L272.271 28.1843L228.271 30.6843C220.771 45.6843 205.771 76.1843 197.771 77.1843H212.271C210.771 66.1843 220.271 42.6843 245.272 51.6843C255.772 46.1843 265.772 40.6843 276.772 34.4843Z" fill="#EDADBF" stroke="black" stroke-width="0.5"/>
<path d="M277.771 34.1844C265.771 40.6844 255.771 46.1844 245.271 51.6844C249.771 54.6843 260.271 60.6843 259.271 79.6843L284.271 79.1843V77.6843C292.771 76.6843 301.271 80.1843 299.771 66.1843L301.771 56.1843C301.771 54.6843 299.271 50.6843 296.771 50.1843C298.271 47.6843 295.271 38.6843 295.271 38.6843V37.1843L291.271 34.1843L286.271 32.6843L282.771 32.1843L277.771 34.1844Z" fill="#EDADBF" stroke="black" stroke-width="0.5"/>
<path d="M280.771 26.6843L272.271 28.1843L282.771 32.1843C292.271 33.1843 291.269 34.6843 295.265 37.1045L294.771 28.6843L280.771 26.6843Z" fill="#EDADBF"/>
<path d="M295.271 37.1843L295.265 37.1045M295.265 37.1045L294.771 28.6843L280.771 26.6843L272.271 28.1843L282.771 32.1843C292.271 33.1843 291.269 34.6843 295.265 37.1045Z" stroke="black" stroke-width="0.5"/>
<path d="M293.772 36.6845C293.272 34.1844 282.272 33.9843 276.772 34.4843" stroke="black" stroke-width="0.5"/>
<path d="M299.772 66.6843L260.272 68.6843C259.772 63.6843 257.606 59.5177 255.772 57.6843L301.772 55.1843M300.272 52.6843C289.272 51.1843 278.272 46.3843 266.272 40.3843M228.272 30.6843L272.272 28.1843L280.772 26.6843" stroke="black" stroke-width="0.5"/>
<path d="M290.272 40.6843C290.272 38.6843 289.272 34.6843 285.772 32.6843C287.993 32.6843 291.37 33.7247 293.881 36.0943C294.345 37.6243 293.272 41.1843 290.231 42.6843C290.217 42.094 290.272 41.4086 290.272 40.6843Z" fill="#EDADBF"/>
<path d="M272.272 43.1843C279.268 43.5341 285.285 43.6392 290.666 44.1843M297.272 45.1843C295.169 44.7337 292.976 44.4184 290.666 44.1843M295.272 37.6843C294.855 37.0992 294.385 36.57 293.881 36.0943M290.666 44.1843C290.339 43.8396 290.245 43.3165 290.231 42.6843M290.231 42.6843C290.217 42.094 290.272 41.4086 290.272 40.6843C290.272 38.6843 289.272 34.6843 285.772 32.6843C287.993 32.6843 291.37 33.7247 293.881 36.0943M290.231 42.6843C293.272 41.1843 294.345 37.6243 293.881 36.0943" stroke="black" stroke-width="0.5"/>
<path d="M290.272 40.6843C285.772 40.6843 283.772 36.6843 282.772 34.1843" stroke="black" stroke-width="0.5"/>
<path d="M132.271 12.7843C118.771 16.7843 106.771 22.6843 92.7705 35.6843C99.7705 23.6843 115.271 14.1843 130.771 9.18433L132.271 12.7843Z" fill="#EFC7D3" stroke="black" stroke-width="0.5"/>
<path d="M130.771 9.18433C110.771 14.8584 92.7705 32.1843 84.7705 30.1843C97.7705 20.6843 113.771 12.1843 130.271 7.68433L130.771 9.18433Z" fill="#EFC7D3" stroke="black" stroke-width="0.5"/>
<path d="M9.77118 48.1843H3.77118C1.27051 52.1843 1.27051 62.1843 1.77118 65.6843C0.270508 66.6843 0.271105 71.1843 1.27118 72.6843L5.27118 73.1843V74.6843L1.27118 76.6843V78.6843C5.27118 79.6843 13.7712 81.6843 21.7712 81.1843V79.6843H39.2712C38.6045 71.1843 40.2712 60.6843 49.2712 53.6843C46.7712 49.6843 39.7712 45.1843 36.7712 44.6843C26.7712 43.6843 11.7712 46.1843 9.77118 48.1843Z" fill="#EFC7D3" stroke="black" stroke-width="0.5"/>
<path d="M92.7725 35.6843C74.9391 36.5177 43.2725 41.3843 32.7725 44.3843L36.7725 44.6843C41.7725 46.1843 47.2725 50.5177 49.2725 53.6843C62.2715 44.1843 87.7715 51.1843 86.2715 78.6843H96.2715C89.2715 67.6843 90.2715 45.6843 92.7725 35.6843Z" fill="#EFC7D3" stroke="black" stroke-width="0.5"/>
<path d="M9.77051 48.1844H3.77051C36.2707 28.6843 58.2708 34.6843 84.2705 30.1843L93.2708 35.6843C76.2708 36.6843 47.2705 40.1843 33.2705 44.3843C25.2705 44.1843 11.2705 46.1843 9.77051 48.1844Z" fill="#EFC7D3" stroke="black" stroke-width="0.5"/>
<path d="M36.772 44.6844C29.272 43.6843 12.272 45.6843 9.77196 48.1844C8.97196 50.5843 12.1053 53.5177 13.772 54.6843C23.272 56.1843 36.772 50.1843 36.772 44.6844Z" fill="#EFC7D3" stroke="black" stroke-width="0.5"/>
<path d="M3.7712 48.1843C10.7712 49.1843 4.7712 59.6843 1.7712 64.6843C1.27113 57.6843 1.771 52.1843 3.7712 48.1843Z" fill="#EFC7D3" stroke="black" stroke-width="0.5"/>
<path d="M21.7705 84.1843V79.6843H39.2705L39.7705 84.1843H21.7705Z" fill="#EFC7D3" stroke="black" stroke-width="0.5"/>
<path d="M2.27246 65.6843C3.77246 68.1843 5.77246 71.351 5.27246 73.1843M21.7725 79.6843C11.2725 80.1843 6.77246 76.1843 7.77246 72.6843C8.27246 72.1843 9.77246 70.6843 10.7725 70.6843" stroke="black" stroke-width="0.5"/>
<path d="M31.7725 74.6843C29.2725 70.6843 23.7725 65.6844 20.7725 64.1844C19.0224 63.6844 16.3973 63.8094 13.6472 64.1844C12.0223 65.5177 10.7725 68.6843 11.2725 71.6843C11.2725 72.851 12.5799 75.1843 15.2725 75.1843C19.7725 75.1843 26.7725 75.6843 31.7725 74.6843Z" fill="#EFC7D3"/>
<path d="M5.77246 65.6844C8.0224 65.1844 10.8973 64.5594 13.6472 64.1844M13.6472 64.1844C16.3973 63.8094 19.0224 63.6844 20.7725 64.1844C23.7725 65.6844 29.2725 70.6843 31.7725 74.6843C26.7725 75.6843 19.7725 75.1843 15.2725 75.1843C12.5799 75.1843 11.2725 72.851 11.2725 71.6843C10.7725 68.6843 12.0223 65.5177 13.6472 64.1844Z" stroke="black" stroke-width="0.5"/>
<path d="M11.2725 71.1844C19.2725 69.6844 22.7725 72.3129 25.7725 73.8129M12.7725 74.1844L30.2725 73.6844" stroke="black" stroke-width="0.5"/>
<path d="M21.7705 82.6843H31.2705C33.2705 82.6843 34.7705 80.6843 34.2705 79.6843M37.7705 79.6843V84.1843" stroke="black" stroke-width="0.5"/>
<path d="M21.7724 81.1846C17.2724 81.1846 12.7724 81.6846 1.27241 78.6846V76.6846L5.27241 74.6846V73.1846L1.27241 72.6846C0.771484 71.1843 -0.22832 68.1843 1.77168 65.6843C1.27192 57.6843 1.77192 51.1843 3.77241 48.1841C36.2724 28.6845 58.2724 34.6845 84.2724 30.1845C162.272 -24.8156 244.272 12.1843 281.272 26.6845L294.772 28.6843L295.272 35.6843V38.6843C296.771 43.6843 298.106 48.1843 296.772 50.1843C299.272 51.1843 301.772 54.351 301.772 56.1843L299.772 66.1843C300.224 77.0322 297.816 77.2565 288.485 77.569C287.494 77.6021 285.425 77.6363 284.272 77.6843V79.1843L259.272 79.6154M21.7724 81.1846V84.1846H39.7708L39.2724 79.6846M21.7724 81.1846V79.6846H39.2724M39.2724 79.6846C36.2724 38.1846 89.7724 41.1846 86.2724 80.1846V82.6843H212.772C206.772 39.1843 261.272 39.1843 259.272 79.6154M258.771 79.6154H259.272" stroke="black"/>
</svg>
