<svg width="303" height="96" viewBox="0 0 303 96" fill="none" xmlns="http://www.w3.org/2000/svg">
<circle cx="62.8853" cy="74.1692" r="20.5" fill="#EFC7D3" stroke="black"/>
<circle cx="235.885" cy="74.1692" r="20.5" fill="#EFC7D3" stroke="black"/>
<path d="M132.884 12.669L131.384 9.16904C171.384 1.16916 192.884 1.66919 231.884 13.1691L228.384 17.6691C208.384 9.6691 190.384 8.6691 174.384 8.16917C171.884 7.66917 167.884 7.66913 165.384 8.16904C155.384 8.16917 143.384 9.66917 132.884 12.669Z" stroke="black" stroke-width="0.5"/>
<path d="M131.384 9.16923L130.884 7.66923C166.884 -3.33081 199.384 0.669064 234.884 9.66924L231.884 13.1692C191.884 0.669189 165.884 2.16919 131.384 9.16923Z" stroke="black" stroke-width="0.5"/>
<path d="M131.384 9.16918C182.884 -2.33085 211.384 7.66919 231.884 13.1692" stroke="black" stroke-width="0.5"/>
<path d="M226.885 30.6692L223.885 16.1692C219.385 14.6692 207.885 9.16919 174.385 8.16919L170.885 30.1692C181.885 29.6692 199.385 28.1692 226.385 28.1692" stroke="black" stroke-width="0.5"/>
<path d="M165.385 8.16919C132.385 9.16919 112.385 18.1692 93.3853 35.6692L95.8853 33.6692L159.885 30.6692L165.385 8.16919Z" stroke="black" stroke-width="0.5"/>
<path d="M239.884 22.6692C236.217 20.0025 230.384 17.6692 223.884 16.1692L226.384 28.1692H232.884C235.884 26.6692 238.884 24.4379 239.884 22.6692Z" stroke="black" stroke-width="0.5"/>
<path d="M96.8853 78.6692H163.885L198.385 77.1692M96.8853 78.6692C96.8853 80.1692 97.3853 81.1692 98.3853 82.6692M96.8853 78.6692H86.8853V82.6692H98.3853M198.385 77.1692L199.385 82.6692M198.385 77.1692H212.885L213.385 82.6692H199.385M199.385 82.6692H98.3853" stroke="black" stroke-width="0.5"/>
<path d="M96.8844 78.6692C92.3852 74.1692 89.3853 52.1692 93.3844 35.6692L165.385 31.6692C161.385 36.6692 160.385 70.6692 163.885 78.6692H96.8844Z" stroke="black" stroke-width="0.5"/>
<path d="M228.885 30.6692L165.385 31.6692C161.385 36.6692 160.385 70.6692 163.885 78.6692L198.385 77.1692C202.885 75.6692 209.385 70.1692 228.885 30.6692Z" stroke="black" stroke-width="0.5"/>
<path d="M170.885 30.1693C166.385 30.6693 162.885 30.6693 159.885 30.6693L165.385 8.16926C168.385 7.66919 171.385 7.66919 174.385 8.16926L170.885 30.1693Z" stroke="black" stroke-width="0.5"/>
<path d="M99.3853 32.1693C103.885 37.6693 110.885 34.1693 114.885 32.6693C115.885 17.1692 102.885 25.1692 99.3853 32.1693Z" stroke="black" stroke-width="0.5"/>
<path d="M234.884 9.66919L231.884 13.1692C248.884 18.6692 259.384 21.6692 271.884 28.1692H273.384L281.384 26.6692C266.384 20.1692 258.884 17.6692 234.884 9.66919Z" fill="#EFC7D3" stroke="black" stroke-width="0.5"/>
<path d="M271.884 28.1692C261.384 22.6692 242.384 16.1692 231.884 13.1692L229.884 15.6692L244.884 23.1692C243.384 25.6692 239.384 27.6692 233.384 30.3692C245.384 29.6692 262.384 28.6692 271.884 28.1692Z" fill="#EFC7D3" stroke="black" stroke-width="0.5"/>
<path d="M277.385 34.4692L283.384 32.1692L272.884 28.1692L228.884 30.6692C221.384 45.6692 206.384 76.1692 198.384 77.1692H212.884C211.384 66.1692 220.884 42.6692 245.885 51.6692C256.385 46.1692 266.385 40.6692 277.385 34.4692Z" fill="#EFC7D3" stroke="black" stroke-width="0.5"/>
<path d="M278.384 34.1692C266.384 40.6692 256.384 46.1692 245.884 51.6692C250.384 54.6692 260.884 60.6692 259.884 79.6692L284.884 79.1692V77.6692C293.384 76.6692 301.884 80.1692 300.384 66.1692L302.384 56.1692C302.384 54.6692 299.884 50.6692 297.384 50.1692C298.884 47.6692 295.884 38.6692 295.884 38.6692V37.1692L291.884 34.1692L286.884 32.6692L283.384 32.1692L278.384 34.1692Z" fill="#EFC7D3" stroke="black" stroke-width="0.5"/>
<path d="M281.384 26.6692L272.884 28.1692L283.384 32.1692C292.884 33.1692 291.883 34.6692 295.878 37.0894L295.384 28.6692L281.384 26.6692Z" fill="#EFC7D3"/>
<path d="M295.884 37.1692L295.878 37.0894M295.878 37.0894L295.384 28.6692L281.384 26.6692L272.884 28.1692L283.384 32.1692C292.884 33.1692 291.883 34.6692 295.878 37.0894Z" stroke="black" stroke-width="0.5"/>
<path d="M294.385 36.6694C293.885 34.1693 282.885 33.9692 277.385 34.4692" stroke="black" stroke-width="0.5"/>
<path d="M300.385 66.6692L260.885 68.6692C260.385 63.6692 258.219 59.5025 256.385 57.6692L302.385 55.1692M300.885 52.6692C289.885 51.1692 278.885 46.3692 266.885 40.3692M228.885 30.6692L272.885 28.1692L281.385 26.6692" stroke="black" stroke-width="0.5"/>
<path d="M290.885 40.6692C290.885 38.6692 289.885 34.6692 286.385 32.6692C288.606 32.6692 291.983 33.7096 294.494 36.0792C294.958 37.6092 293.885 41.1692 290.843 42.6692C290.83 42.0789 290.885 41.3935 290.885 40.6692Z" fill="#EFC7D3"/>
<path d="M272.885 43.1692C279.881 43.519 285.898 43.6241 291.278 44.1692M297.885 45.1692C295.782 44.7185 293.589 44.4033 291.278 44.1692M295.885 37.6692C295.467 37.0841 294.998 36.5548 294.494 36.0792M291.278 44.1692C290.952 43.8244 290.858 43.3014 290.843 42.6692M290.843 42.6692C290.83 42.0789 290.885 41.3935 290.885 40.6692C290.885 38.6692 289.885 34.6692 286.385 32.6692C288.606 32.6692 291.983 33.7096 294.494 36.0792M290.843 42.6692C293.885 41.1692 294.958 37.6092 294.494 36.0792" stroke="black" stroke-width="0.5"/>
<path d="M290.885 40.6692C286.385 40.6692 284.385 36.6692 283.385 34.1692" stroke="black" stroke-width="0.5"/>
<path d="M132.884 12.7692C119.384 16.7692 107.384 22.6692 93.3838 35.6692C100.384 23.6692 115.884 14.1692 131.384 9.16919L132.884 12.7692Z" stroke="black" stroke-width="0.5"/>
<path d="M131.384 9.16919C111.384 14.8432 93.3838 32.1692 85.3838 30.1692C98.3838 20.6692 114.384 12.1692 130.884 7.66919L131.384 9.16919Z" stroke="black" stroke-width="0.5"/>
<path d="M10.3845 48.1692H4.38446C1.88379 52.1692 1.88379 62.1692 2.38446 65.6692C0.883789 66.6692 0.884387 71.1692 1.88446 72.6692L5.88446 73.1692V74.6692L1.88446 76.6692V78.6692C5.88446 79.6692 14.3845 81.6692 22.3845 81.1692V79.6692H39.8845C39.2178 71.1692 40.8845 60.6692 49.8845 53.6692C47.3845 49.6692 40.3845 45.1692 37.3845 44.6692C27.3845 43.6692 12.3845 46.1692 10.3845 48.1692Z" stroke="black" stroke-width="0.5"/>
<path d="M93.3853 35.6692C75.5519 36.5025 43.8853 41.3692 33.3853 44.3692L37.3853 44.6692C42.3853 46.1692 47.8853 50.5025 49.8853 53.6692C62.8843 44.1692 88.3843 51.1692 86.8843 78.6692H96.8843C89.8843 67.6692 90.8843 45.6692 93.3853 35.6692Z" stroke="black" stroke-width="0.5"/>
<path d="M10.3838 48.1692H4.38379C36.884 28.6691 58.884 34.6692 84.8838 30.1692L93.884 35.6692C76.884 36.6692 47.8838 40.1692 33.8838 44.3692C25.8838 44.1692 11.8838 46.1692 10.3838 48.1692Z" stroke="black" stroke-width="0.5"/>
<path d="M37.3852 44.6693C29.8852 43.6692 12.8852 45.6692 10.3852 48.1693C9.58524 50.5692 12.7186 53.5025 14.3852 54.6692C23.8853 56.1692 37.3852 50.1692 37.3852 44.6693Z" stroke="black" stroke-width="0.5"/>
<path d="M4.38448 48.1692C11.3845 49.1692 5.38448 59.6692 2.38448 64.6692C1.88441 57.6692 2.38428 52.1692 4.38448 48.1692Z" stroke="black" stroke-width="0.5"/>
<path d="M22.3838 84.1692V79.6692H39.8838L40.3838 84.1692H22.3838Z" stroke="black" stroke-width="0.5"/>
<path d="M2.88574 65.6692C4.38574 68.1692 6.38574 71.3359 5.88574 73.1692M22.3857 79.6692C11.8857 80.1692 7.38574 76.1692 8.38574 72.6692C8.88574 72.1692 10.3857 70.6692 11.3857 70.6692" stroke="black" stroke-width="0.5"/>
<path d="M6.38574 65.6693C8.63568 65.1692 11.5106 64.5443 14.2605 64.1693M14.2605 64.1693C17.0106 63.7943 19.6357 63.6693 21.3857 64.1693C24.3857 65.6693 29.8857 70.6692 32.3857 74.6692C27.3857 75.6692 20.3857 75.1692 15.8857 75.1692C13.1932 75.1692 11.8857 72.8359 11.8857 71.6692C11.3857 68.6692 12.6356 65.5026 14.2605 64.1693Z" stroke="black" stroke-width="0.5"/>
<path d="M11.8857 71.1693C19.8857 69.6693 23.3857 72.2978 26.3857 73.7978M13.3857 74.1693L30.8857 73.6693" stroke="black" stroke-width="0.5"/>
<path d="M22.3838 82.6692H31.8838C33.8838 82.6692 35.3838 80.6692 34.8838 79.6692M38.3838 79.6692V84.1692" stroke="black" stroke-width="0.5"/>
<path d="M22.3852 81.1694C17.8852 81.1694 13.3852 81.6694 1.8852 78.6694V76.6694L5.8852 74.6694V73.1694L1.8852 72.6694C1.38428 71.1692 0.384473 68.1692 2.38447 65.6692C1.88471 57.6692 2.38471 51.1692 4.3852 48.1689C36.8852 28.6693 58.8852 34.6694 84.8852 30.1694C162.885 -24.8307 244.885 12.1692 281.885 26.6694L295.385 28.6692L295.885 35.6692V38.6692C297.384 43.6692 298.719 48.1692 297.385 50.1692C299.885 51.1692 302.385 54.3359 302.385 56.1692L300.385 66.1692C300.837 77.0171 298.429 77.2414 289.098 77.5538C288.106 77.587 286.037 77.6212 284.885 77.6692V79.1692L259.885 79.6002M22.3852 81.1694V84.1694H40.3835L39.8852 79.6694M22.3852 81.1694V79.6694H39.8852M39.8852 79.6694C36.8852 38.1694 90.3852 41.1694 86.8852 80.1694V82.6692H213.385C207.385 39.1692 261.885 39.1692 259.885 79.6002M259.384 79.6002H259.885" stroke="black"/>
</svg>
