<svg width="304" height="96" viewBox="0 0 304 96" fill="none" xmlns="http://www.w3.org/2000/svg">
<circle cx="63.0742" cy="74.0151" r="20.5" fill="#EDADBF" stroke="black"/>
<circle cx="236.074" cy="74.0151" r="20.5" fill="#EDADBF" stroke="black"/>
<path d="M133.072 12.515L131.572 9.01499C171.572 1.0151 193.072 1.51514 232.072 13.0151L228.572 17.5151C208.572 9.51505 190.572 8.51505 174.572 8.01511C172.072 7.51511 168.072 7.51508 165.572 8.01499C155.572 8.01511 143.572 9.51511 133.072 12.515Z" fill="#EFC7D3" stroke="black" stroke-width="0.5"/>
<path d="M131.572 9.01518L131.072 7.51518C167.072 -3.48486 199.572 0.515011 235.072 9.51518L232.072 13.0152C192.072 0.515137 166.072 2.01514 131.572 9.01518Z" fill="#EFC7D3" stroke="black" stroke-width="0.5"/>
<path d="M131.572 9.01512C183.072 -2.4849 211.572 7.51514 232.072 13.0151" stroke="black" stroke-width="0.5"/>
<path d="M171.074 30.0151L174.574 8.01514C208.074 9.01514 219.574 14.5151 224.074 16.0151L226.557 28.0151C199.567 28.0158 182.072 29.5152 171.074 30.0151Z" fill="#EFC7D3"/>
<path d="M227.074 30.5151L224.074 16.0151C219.574 14.5151 208.074 9.01514 174.574 8.01514L171.074 30.0151C182.074 29.5151 199.574 28.0151 226.574 28.0151" stroke="black" stroke-width="0.5"/>
<path d="M165.574 8.01514C132.574 9.01514 112.574 18.0151 93.5742 35.5151L96.0742 33.5151L160.074 30.5151L165.574 8.01514Z" fill="#EFC7D3" stroke="black" stroke-width="0.5"/>
<path d="M240.072 22.5151C236.406 19.8485 230.572 17.5151 224.072 16.0151L226.572 28.0151H233.072C236.072 26.5151 239.072 24.2839 240.072 22.5151Z" fill="#EFC7D3" stroke="black" stroke-width="0.5"/>
<path d="M97.0742 78.5151H164.074L198.574 77.0151H213.074L213.574 82.5151H199.574H98.5742H87.0742V78.5151H97.0742Z" fill="#EFC7D3"/>
<path d="M97.0742 78.5151H164.074L198.574 77.0151M97.0742 78.5151C97.0742 80.0151 97.5742 81.0151 98.5742 82.5151M97.0742 78.5151H87.0742V82.5151H98.5742M198.574 77.0151L199.574 82.5151M198.574 77.0151H213.074L213.574 82.5151H199.574M199.574 82.5151H98.5742" stroke="black" stroke-width="0.5"/>
<path d="M97.0733 78.5151C92.5742 74.0151 89.5743 52.0151 93.5733 35.5151L165.574 31.5151C161.574 36.5151 160.574 70.5151 164.074 78.5151H97.0733Z" fill="#EFC7D3" stroke="black" stroke-width="0.5"/>
<path d="M229.074 30.5151L165.574 31.5151C161.574 36.5151 160.574 70.5151 164.074 78.5151L198.574 77.0151C203.074 75.5151 209.574 70.0151 229.074 30.5151Z" fill="#EFC7D3" stroke="black" stroke-width="0.5"/>
<path d="M171.074 30.0152C166.574 30.5152 163.074 30.5152 160.074 30.5152L165.574 8.01521C168.574 7.51514 171.574 7.51514 174.574 8.01521L171.074 30.0152Z" fill="#EFC7D3" stroke="black" stroke-width="0.5"/>
<path d="M99.5742 32.0153C104.074 37.5153 111.074 34.0153 115.074 32.5153C116.074 17.0152 103.074 25.0151 99.5742 32.0153Z" fill="#EFC7D3" stroke="black" stroke-width="0.5"/>
<path d="M235.072 9.51514L232.072 13.0151C249.072 18.5151 259.572 21.5151 272.072 28.0151H273.572L281.572 26.5151C266.572 20.0151 259.072 17.5151 235.072 9.51514Z" fill="#EDADBF" stroke="black" stroke-width="0.5"/>
<path d="M272.072 28.0151C261.572 22.5151 242.572 16.0151 232.072 13.0151L230.072 15.5151L245.072 23.0151C243.572 25.5151 239.572 27.5151 233.572 30.2151C245.572 29.5151 262.572 28.5151 272.072 28.0151Z" fill="#EDADBF" stroke="black" stroke-width="0.5"/>
<path d="M277.574 34.3151L283.573 32.0151L273.073 28.0151L229.073 30.5151C221.573 45.5151 206.573 76.0151 198.573 77.0151H213.073C211.573 66.0151 221.073 42.5151 246.074 51.5151C256.574 46.0151 266.574 40.5151 277.574 34.3151Z" fill="#EDADBF" stroke="black" stroke-width="0.5"/>
<path d="M278.572 34.0152C266.572 40.5152 256.572 46.0152 246.072 51.5152C250.572 54.5151 261.072 60.5151 260.072 79.5151L285.072 79.0151V77.5151C293.572 76.5151 302.072 80.0151 300.572 66.0151L302.572 56.0151C302.572 54.5151 300.072 50.5151 297.572 50.0151C299.072 47.5151 296.072 38.5151 296.072 38.5151V37.0151L292.072 34.0151L287.072 32.5151L283.572 32.0151L278.572 34.0152Z" fill="#EDADBF" stroke="black" stroke-width="0.5"/>
<path d="M281.572 26.5151L273.072 28.0151L283.572 32.0151C293.072 33.0151 292.071 34.5151 296.066 36.9353L295.572 28.5151L281.572 26.5151Z" fill="#EDADBF"/>
<path d="M296.072 37.0151L296.066 36.9353M296.066 36.9353L295.572 28.5151L281.572 26.5151L273.072 28.0151L283.572 32.0151C293.072 33.0151 292.071 34.5151 296.066 36.9353Z" stroke="black" stroke-width="0.5"/>
<path d="M294.574 36.5153C294.074 34.0152 283.074 33.8151 277.574 34.3151" stroke="black" stroke-width="0.5"/>
<path d="M300.574 66.5151L261.074 68.5151C260.574 63.5151 258.408 59.3485 256.574 57.5151L302.574 55.0151M301.074 52.5151C290.074 51.0151 279.074 46.2151 267.074 40.2151M229.074 30.5151L273.074 28.0151L281.574 26.5151" stroke="black" stroke-width="0.5"/>
<path d="M291.074 40.5151C291.074 38.5151 290.074 34.5151 286.574 32.5151C288.795 32.5151 292.172 33.5555 294.683 35.9251C295.147 37.4551 294.074 41.0151 291.032 42.5151C291.019 41.9249 291.074 41.2394 291.074 40.5151Z" fill="#EDADBF"/>
<path d="M273.074 43.0151C280.07 43.3649 286.087 43.47 291.467 44.0151M298.074 45.0151C295.971 44.5645 293.778 44.2492 291.467 44.0151M296.074 37.5151C295.656 36.93 295.187 36.4008 294.683 35.9251M291.467 44.0151C291.141 43.6704 291.047 43.1473 291.032 42.5151M291.032 42.5151C291.019 41.9249 291.074 41.2394 291.074 40.5151C291.074 38.5151 290.074 34.5151 286.574 32.5151C288.795 32.5151 292.172 33.5555 294.683 35.9251M291.032 42.5151C294.074 41.0151 295.147 37.4551 294.683 35.9251" stroke="black" stroke-width="0.5"/>
<path d="M291.074 40.5151C286.574 40.5151 284.574 36.5151 283.574 34.0151" stroke="black" stroke-width="0.5"/>
<path d="M133.072 12.6151C119.572 16.6151 107.572 22.5151 93.5723 35.5151C100.572 23.5151 116.072 14.0151 131.572 9.01514L133.072 12.6151Z" stroke="black" stroke-width="0.5"/>
<path d="M131.572 9.01514C111.572 14.6892 93.5723 32.0151 85.5723 30.0151C98.5723 20.5151 114.572 12.0151 131.072 7.51514L131.572 9.01514Z" stroke="black" stroke-width="0.5"/>
<path d="M10.5729 48.0151H4.57293C2.07227 52.0151 2.07227 62.0151 2.57293 65.5151C1.07227 66.5151 1.07286 71.0151 2.07293 72.5151L6.07293 73.0151V74.5151L2.07293 76.5151V78.5151C6.07293 79.5151 14.5729 81.5151 22.5729 81.0151V79.5151H40.0729C39.4063 71.0151 41.0729 60.5151 50.0729 53.5151C47.5729 49.5151 40.5729 45.0151 37.5729 44.5151C27.5729 43.5151 12.5729 46.0151 10.5729 48.0151Z" stroke="black" stroke-width="0.5"/>
<path d="M93.5742 35.5151C75.7409 36.3485 44.0742 41.2151 33.5742 44.2151L37.5742 44.5151C42.5742 46.0151 48.0742 50.3485 50.0742 53.5151C63.0732 44.0151 88.5732 51.0151 87.0732 78.5151H97.0732C90.0732 67.5151 91.0732 45.5151 93.5742 35.5151Z" stroke="black" stroke-width="0.5"/>
<path d="M10.5723 48.0152H4.57227C37.0724 28.5151 59.0725 34.5151 85.0723 30.0151L94.0725 35.5151C77.0725 36.5151 48.0723 40.0151 34.0723 44.2151C26.0723 44.0151 12.0723 46.0151 10.5723 48.0152Z" stroke="black" stroke-width="0.5"/>
<path d="M37.5737 44.5152C30.0737 43.5151 13.0737 45.5151 10.5737 48.0152C9.77372 50.4152 12.9071 53.3485 14.5737 54.5151C24.0737 56.0151 37.5737 50.0151 37.5737 44.5152Z" stroke="black" stroke-width="0.5"/>
<path d="M4.57296 48.0151C11.573 49.0151 5.57296 59.5151 2.57296 64.5151C2.07289 57.5151 2.57275 52.0151 4.57296 48.0151Z" stroke="black" stroke-width="0.5"/>
<path d="M22.5723 84.0151V79.5151H40.0723L40.5723 84.0151H22.5723Z" stroke="black" stroke-width="0.5"/>
<path d="M3.07422 65.5151C4.57422 68.0151 6.57422 71.1818 6.07422 73.0151M22.5742 79.5151C12.0742 80.0151 7.57422 76.0151 8.57422 72.5151C9.07422 72.0151 10.5742 70.5151 11.5742 70.5151" stroke="black" stroke-width="0.5"/>
<path d="M6.57422 65.5152C8.82416 65.0152 11.6991 64.3902 14.449 64.0152M14.449 64.0152C17.1991 63.6402 19.8242 63.5152 21.5742 64.0152C24.5742 65.5152 30.0742 70.5151 32.5742 74.5151C27.5742 75.5151 20.5742 75.0151 16.0742 75.0151C13.3816 75.0151 12.0742 72.6818 12.0742 71.5151C11.5742 68.5151 12.8241 65.3485 14.449 64.0152Z" stroke="black" stroke-width="0.5"/>
<path d="M12.0742 71.0152C20.0742 69.5153 23.5742 72.1437 26.5742 73.6437M13.5742 74.0153L31.0742 73.5153" stroke="black" stroke-width="0.5"/>
<path d="M22.5723 82.5151H32.0723C34.0723 82.5151 35.5723 80.5151 35.0723 79.5151M38.5723 79.5151V84.0151" stroke="black" stroke-width="0.5"/>
<path d="M22.5742 81.0154C18.0742 81.0154 13.5742 81.5154 2.07416 78.5154V76.5154L6.07417 74.5154V73.0154L2.07416 72.5154C1.57324 71.0151 0.573438 68.0151 2.57343 65.5151C2.07368 57.5151 2.57368 51.0151 4.57417 48.0149C37.0742 28.5153 59.0742 34.5153 85.0742 30.0153C163.074 -24.9848 245.074 12.0151 282.074 26.5153L295.574 28.5151L296.074 35.5151V38.5151C297.573 43.5151 298.908 48.0151 297.574 50.0151C300.074 51.0151 302.574 54.1818 302.574 56.0151L300.574 66.0151C301.026 76.863 298.618 77.0873 289.286 77.3998C288.295 77.433 286.226 77.4671 285.074 77.5151V79.0151L260.074 79.4462M22.5742 81.0154V84.0154H40.5725L40.0742 79.5154M22.5742 81.0154V79.5154H40.0742M40.0742 79.5154C37.0742 38.0154 90.5742 41.0154 87.0742 80.0154V82.5151H213.574C207.574 39.0151 262.074 39.0151 260.074 79.4462M259.573 79.4462H260.074" stroke="black"/>
</svg>
