<svg width="303" height="96" viewBox="0 0 303 96" fill="none" xmlns="http://www.w3.org/2000/svg">
<circle cx="62.6772" cy="74.5227" r="20.5" stroke="black"/>
<circle cx="235.678" cy="74.5227" r="20.5" stroke="black"/>
<path d="M132.676 13.0226L131.176 9.52256C171.176 1.52267 192.676 2.02271 231.676 13.5227L228.176 18.0226C208.176 10.0226 190.176 9.02261 174.176 8.52268C171.676 8.02268 167.676 8.02264 165.176 8.52256C155.176 8.52268 143.176 10.0227 132.676 13.0226Z" fill="#EFC7D3" stroke="black" stroke-width="0.5"/>
<path d="M131.176 9.52275L130.676 8.02275C166.676 -2.97729 199.176 1.02258 234.676 10.0228L231.676 13.5228C191.676 1.02271 165.676 2.52271 131.176 9.52275Z" fill="#EFC7D3" stroke="black" stroke-width="0.5"/>
<path d="M131.176 9.52269C182.676 -1.97733 211.176 8.02271 231.676 13.5227" stroke="black" stroke-width="0.5"/>
<path d="M170.677 30.5227L174.177 8.52271C207.677 9.52271 219.177 15.0227 223.677 16.5227L226.16 28.5227C199.17 28.5233 181.675 30.0228 170.677 30.5227Z" fill="#EFC7D3"/>
<path d="M226.677 31.0227L223.677 16.5227C219.177 15.0227 207.677 9.52271 174.177 8.52271L170.677 30.5227C181.677 30.0227 199.177 28.5227 226.177 28.5227" stroke="black" stroke-width="0.5"/>
<path d="M165.177 8.52271C132.177 9.52271 112.177 18.5227 93.1772 36.0227L95.6772 34.0227L159.677 31.0227L165.177 8.52271Z" fill="#EFC7D3" stroke="black" stroke-width="0.5"/>
<path d="M239.676 23.0227C236.009 20.356 230.176 18.0227 223.676 16.5227L226.176 28.5227H232.676C235.676 27.0227 238.676 24.7914 239.676 23.0227Z" fill="#EFC7D3" stroke="black" stroke-width="0.5"/>
<path d="M96.6772 79.0227H163.677L198.177 77.5227H212.677L213.177 83.0227H199.177H98.1772H86.6772V79.0227H96.6772Z" fill="#EFC7D3"/>
<path d="M96.6772 79.0227H163.677L198.177 77.5227M96.6772 79.0227C96.6772 80.5227 97.1772 81.5227 98.1772 83.0227M96.6772 79.0227H86.6772V83.0227H98.1772M198.177 77.5227L199.177 83.0227M198.177 77.5227H212.677L213.177 83.0227H199.177M199.177 83.0227H98.1772" stroke="black" stroke-width="0.5"/>
<path d="M96.6764 79.0227C92.1772 74.5227 89.1773 52.5227 93.1764 36.0227L165.177 32.0227C161.177 37.0227 160.177 71.0227 163.677 79.0227H96.6764Z" fill="#EFC7D3" stroke="black" stroke-width="0.5"/>
<path d="M228.677 31.0227L165.177 32.0227C161.177 37.0227 160.177 71.0227 163.677 79.0227L198.177 77.5227C202.677 76.0227 209.177 70.5227 228.677 31.0227Z" fill="#EFC7D3" stroke="black" stroke-width="0.5"/>
<path d="M170.677 30.5228C166.177 31.0228 162.677 31.0228 159.677 31.0228L165.177 8.52278C168.177 8.02271 171.177 8.02271 174.177 8.52278L170.677 30.5228Z" fill="#EFC7D3" stroke="black" stroke-width="0.5"/>
<path d="M99.1772 32.5228C103.677 38.0228 110.677 34.5228 114.677 33.0228C115.677 17.5227 102.677 25.5227 99.1772 32.5228Z" fill="#EFC7D3" stroke="black" stroke-width="0.5"/>
<path d="M234.676 10.0227L231.676 13.5227C248.676 19.0227 259.176 22.0227 271.676 28.5227H273.176L281.176 27.0227C266.176 20.5227 258.676 18.0227 234.676 10.0227Z" fill="#EDADBF" stroke="black" stroke-width="0.5"/>
<path d="M271.676 28.5227C261.176 23.0227 242.176 16.5227 231.676 13.5227L229.676 16.0227L244.676 23.5227C243.176 26.0227 239.176 28.0227 233.176 30.7227C245.176 30.0227 262.176 29.0227 271.676 28.5227Z" fill="#EDADBF" stroke="black" stroke-width="0.5"/>
<path d="M277.178 34.8227L283.176 32.5227L272.677 28.5227L228.677 31.0227C221.177 46.0227 206.177 76.5227 198.177 77.5227H212.677C211.177 66.5227 220.677 43.0227 245.678 52.0227C256.178 46.5227 266.178 41.0227 277.178 34.8227Z" fill="#EDADBF" stroke="black" stroke-width="0.5"/>
<path d="M278.176 34.5227C266.176 41.0227 256.176 46.5227 245.676 52.0227C250.176 55.0227 260.676 61.0227 259.676 80.0227L284.676 79.5227V78.0227C293.176 77.0227 301.676 80.5227 300.176 66.5227L302.176 56.5227C302.176 55.0227 299.676 51.0227 297.176 50.5227C298.676 48.0227 295.676 39.0227 295.676 39.0227V37.5227L291.676 34.5227L286.676 33.0227L283.176 32.5227L278.176 34.5227Z" fill="#EDADBF" stroke="black" stroke-width="0.5"/>
<path d="M281.176 27.0227L272.676 28.5227L283.176 32.5227C292.676 33.5227 291.675 35.0227 295.67 37.4429L295.176 29.0227L281.176 27.0227Z" fill="#EDADBF"/>
<path d="M295.676 37.5227L295.67 37.4429M295.67 37.4429L295.176 29.0227L281.176 27.0227L272.676 28.5227L283.176 32.5227C292.676 33.5227 291.675 35.0227 295.67 37.4429Z" stroke="black" stroke-width="0.5"/>
<path d="M294.178 37.0229C293.678 34.5228 282.678 34.3227 277.178 34.8227" stroke="black" stroke-width="0.5"/>
<path d="M300.178 67.0227L260.678 69.0227C260.178 64.0227 258.011 59.856 256.178 58.0227L302.178 55.5227M300.678 53.0227C289.678 51.5227 278.678 46.7227 266.678 40.7227M228.678 31.0227L272.678 28.5227L281.178 27.0227" stroke="black" stroke-width="0.5"/>
<path d="M290.678 41.0227C290.678 39.0227 289.678 35.0227 286.178 33.0227C288.399 33.0227 291.775 34.0631 294.287 36.4327C294.75 37.9627 293.678 41.5227 290.636 43.0227C290.622 42.4324 290.678 41.747 290.678 41.0227Z" fill="#EDADBF"/>
<path d="M272.678 43.5227C279.673 43.8725 285.69 43.9776 291.071 44.5227M297.678 45.5227C295.575 45.0721 293.381 44.7568 291.071 44.5227M295.678 38.0227C295.26 37.4376 294.791 36.9084 294.287 36.4327M291.071 44.5227C290.745 44.1779 290.651 43.6549 290.636 43.0227M290.636 43.0227C290.622 42.4324 290.678 41.747 290.678 41.0227C290.678 39.0227 289.678 35.0227 286.178 33.0227C288.399 33.0227 291.775 34.0631 294.287 36.4327M290.636 43.0227C293.678 41.5227 294.75 37.9627 294.287 36.4327" stroke="black" stroke-width="0.5"/>
<path d="M290.678 41.0227C286.178 41.0227 284.178 37.0227 283.178 34.5227" stroke="black" stroke-width="0.5"/>
<path d="M132.676 13.1227C119.176 17.1227 107.176 23.0227 93.1758 36.0227C100.176 24.0227 115.676 14.5227 131.176 9.52271L132.676 13.1227Z" fill="#E56E90" stroke="black" stroke-width="0.5"/>
<path d="M131.176 9.52271C111.176 15.1967 93.1758 32.5227 85.1758 30.5227C98.1758 21.0227 114.176 12.5227 130.676 8.02271L131.176 9.52271Z" fill="#E56E90" stroke="black" stroke-width="0.5"/>
<path d="M10.1764 48.5227H4.17645C1.67578 52.5227 1.67578 62.5227 2.17645 66.0227C0.675781 67.0227 0.676379 71.5227 1.67645 73.0227L5.67645 73.5227V75.0227L1.67645 77.0227V79.0227C5.67645 80.0227 14.1764 82.0227 22.1764 81.5227V80.0227H39.6764C39.0098 71.5227 40.6764 61.0227 49.6764 54.0227C47.1764 50.0227 40.1764 45.5227 37.1764 45.0227C27.1764 44.0227 12.1764 46.5227 10.1764 48.5227Z" fill="#E56E90" stroke="black" stroke-width="0.5"/>
<path d="M93.1772 36.0227C75.3439 36.856 43.6772 41.7227 33.1772 44.7227L37.1772 45.0227C42.1772 46.5227 47.6772 50.856 49.6772 54.0227C62.6763 44.5227 88.1763 51.5227 86.6763 79.0227H96.6763C89.6763 68.0227 90.6763 46.0227 93.1772 36.0227Z" fill="#E56E90" stroke="black" stroke-width="0.5"/>
<path d="M10.1758 48.5228H4.17578C36.676 29.0227 58.676 35.0227 84.6758 30.5227L93.676 36.0227C76.676 37.0227 47.6758 40.5227 33.6758 44.7227C25.6758 44.5227 11.6758 46.5227 10.1758 48.5228Z" fill="#E56E90" stroke="black" stroke-width="0.5"/>
<path d="M37.1772 45.0228C29.6772 44.0227 12.6772 46.0227 10.1772 48.5228C9.37724 50.9227 12.5106 53.856 14.1772 55.0227C23.6772 56.5227 37.1772 50.5227 37.1772 45.0228Z" fill="#E56E90" stroke="black" stroke-width="0.5"/>
<path d="M4.17648 48.5227C11.1765 49.5227 5.17648 60.0227 2.17648 65.0227C1.67641 58.0227 2.17627 52.5227 4.17648 48.5227Z" fill="#E56E90" stroke="black" stroke-width="0.5"/>
<path d="M22.1758 84.5227V80.0227H39.6758L40.1758 84.5227H22.1758Z" fill="#E56E90" stroke="black" stroke-width="0.5"/>
<path d="M2.67773 66.0225C4.17773 68.5225 6.17773 71.6891 5.67773 73.5225M22.1777 80.0225C11.6777 80.5225 7.17773 76.5225 8.17773 73.0225C8.67773 72.5225 10.1777 71.0225 11.1777 71.0225" stroke="black" stroke-width="0.5"/>
<path d="M32.1777 75.0226C29.6777 71.0226 24.1777 66.0227 21.1777 64.5227C19.4277 64.0227 16.8026 64.1477 14.0525 64.5227C12.4276 65.856 11.1777 69.0226 11.6777 72.0226C11.6777 73.1892 12.9852 75.5226 15.6777 75.5226C20.1777 75.5226 27.1777 76.0226 32.1777 75.0226Z" fill="#E56E90"/>
<path d="M6.17773 66.0227C8.42768 65.5226 11.3026 64.8977 14.0525 64.5227M14.0525 64.5227C16.8026 64.1477 19.4277 64.0227 21.1777 64.5227C24.1777 66.0227 29.6777 71.0226 32.1777 75.0226C27.1777 76.0226 20.1777 75.5226 15.6777 75.5226C12.9852 75.5226 11.6777 73.1892 11.6777 72.0226C11.1777 69.0226 12.4276 65.856 14.0525 64.5227Z" stroke="black" stroke-width="0.5"/>
<path d="M11.6777 71.5227C19.6777 70.0227 23.1777 72.6512 26.1777 74.1512M13.1777 74.5227L30.6777 74.0227" stroke="black" stroke-width="0.5"/>
<path d="M22.1758 83.0225H31.6758C33.6758 83.0225 35.1758 81.0225 34.6758 80.0225M38.1758 80.0225V84.5225" stroke="black" stroke-width="0.5"/>
<path d="M22.1772 81.5229C17.6772 81.5229 13.1772 82.0229 1.67719 79.0229V77.0229L5.67719 75.0229V73.5229L1.67719 73.023C1.17627 71.5227 0.176465 68.5227 2.17646 66.0227C1.6767 58.0227 2.1767 51.5227 4.17719 48.5224C36.6772 29.0228 58.6772 35.0229 84.6772 30.5229C162.677 -24.4772 244.677 12.5227 281.677 27.0229L295.177 29.0227L295.677 36.0227V39.0227C297.176 44.0227 298.511 48.5227 297.177 50.5227C299.677 51.5227 302.177 54.6894 302.177 56.5227L300.177 66.5227C300.629 77.3706 298.221 77.5949 288.889 77.9073C287.898 77.9405 285.829 77.9747 284.677 78.0227V79.5227L259.677 79.9537M22.1772 81.5229V84.5229H40.1755L39.6772 80.0229M22.1772 81.5229V80.0229H39.6772M39.6772 80.0229C36.6772 38.5229 90.1772 41.5229 86.6772 80.5229V83.0227H213.177C207.177 39.5227 261.677 39.5227 259.677 79.9537M259.176 79.9537H259.677" stroke="black"/>
</svg>
