<svg width="303" height="96" viewBox="0 0 303 96" fill="none" xmlns="http://www.w3.org/2000/svg">
<circle cx="62.6562" cy="74.1692" r="20.5" stroke="black"/>
<circle cx="235.656" cy="74.1692" r="20.5" stroke="black"/>
<path d="M132.654 12.669L131.154 9.16904C171.154 1.16916 192.654 1.66919 231.654 13.1691L228.154 17.6691C208.154 9.6691 190.154 8.6691 174.154 8.16917C171.654 7.66917 167.654 7.66913 165.154 8.16904C155.154 8.16917 143.154 9.66917 132.654 12.669Z" stroke="black" stroke-width="0.5"/>
<path d="M131.154 9.16923L130.654 7.66923C166.654 -3.33081 199.154 0.669064 234.654 9.66924L231.654 13.1692C191.654 0.669189 165.654 2.16919 131.154 9.16923Z" stroke="black" stroke-width="0.5"/>
<path d="M131.154 9.16918C182.654 -2.33085 211.154 7.66919 231.654 13.1692" stroke="black" stroke-width="0.5"/>
<path d="M226.656 30.6692L223.656 16.1692C219.156 14.6692 207.656 9.16919 174.156 8.16919L170.656 30.1692C181.656 29.6692 199.156 28.1692 226.156 28.1692" stroke="black" stroke-width="0.5"/>
<path d="M165.156 8.16919C132.156 9.16919 112.156 18.1692 93.1562 35.6692L95.6562 33.6692L159.656 30.6692L165.156 8.16919Z" stroke="black" stroke-width="0.5"/>
<path d="M239.654 22.6692C235.988 20.0025 230.154 17.6692 223.654 16.1692L226.154 28.1692H232.654C235.654 26.6692 238.654 24.4379 239.654 22.6692Z" stroke="black" stroke-width="0.5"/>
<path d="M96.6562 78.6692H163.656L198.156 77.1692M96.6562 78.6692C96.6562 80.1692 97.1562 81.1692 98.1562 82.6692M96.6562 78.6692H86.6562V82.6692H98.1562M198.156 77.1692L199.156 82.6692M198.156 77.1692H212.656L213.156 82.6692H199.156M199.156 82.6692H98.1562" stroke="black" stroke-width="0.5"/>
<path d="M96.6554 78.6692C92.1562 74.1692 89.1563 52.1692 93.1554 35.6692L165.156 31.6692C161.156 36.6692 160.156 70.6692 163.656 78.6692H96.6554Z" stroke="black" stroke-width="0.5"/>
<path d="M228.656 30.6692L165.156 31.6692C161.156 36.6692 160.156 70.6692 163.656 78.6692L198.156 77.1692C202.656 75.6692 209.156 70.1692 228.656 30.6692Z" stroke="black" stroke-width="0.5"/>
<path d="M170.656 30.1693C166.156 30.6693 162.656 30.6693 159.656 30.6693L165.156 8.16926C168.156 7.66919 171.156 7.66919 174.156 8.16926L170.656 30.1693Z" stroke="black" stroke-width="0.5"/>
<path d="M99.1562 32.1693C103.656 37.6693 110.656 34.1693 114.656 32.6693C115.656 17.1692 102.656 25.1692 99.1562 32.1693Z" stroke="black" stroke-width="0.5"/>
<path d="M234.654 9.66919L231.654 13.1692C248.654 18.6692 259.154 21.6692 271.654 28.1692H273.154L281.154 26.6692C266.154 20.1692 258.654 17.6692 234.654 9.66919Z" fill="#E0426F" stroke="black" stroke-width="0.5"/>
<path d="M271.654 28.1692C261.154 22.6692 242.154 16.1692 231.654 13.1692L229.654 15.6692L244.654 23.1692C243.154 25.6692 239.154 27.6692 233.154 30.3692C245.154 29.6692 262.154 28.6692 271.654 28.1692Z" fill="#E0426F" stroke="black" stroke-width="0.5"/>
<path d="M277.156 34.4692L283.155 32.1692L272.655 28.1692L228.655 30.6692C221.155 45.6692 206.155 76.1692 198.155 77.1692H212.655C211.155 66.1692 220.655 42.6692 245.656 51.6692C256.156 46.1692 266.156 40.6692 277.156 34.4692Z" fill="#E0426F" stroke="black" stroke-width="0.5"/>
<path d="M278.154 34.1692C266.154 40.6692 256.154 46.1692 245.654 51.6692C250.154 54.6692 260.654 60.6692 259.654 79.6692L284.654 79.1692V77.6692C293.154 76.6692 301.654 80.1692 300.154 66.1692L302.154 56.1692C302.154 54.6692 299.654 50.6692 297.154 50.1692C298.654 47.6692 295.654 38.6692 295.654 38.6692V37.1692L291.654 34.1692L286.654 32.6692L283.154 32.1692L278.154 34.1692Z" fill="#E0426F" stroke="black" stroke-width="0.5"/>
<path d="M281.154 26.6692L272.654 28.1692L283.154 32.1692C292.654 33.1692 291.653 34.6692 295.648 37.0894L295.154 28.6692L281.154 26.6692Z" fill="#E0426F"/>
<path d="M295.654 37.1692L295.648 37.0894M295.648 37.0894L295.154 28.6692L281.154 26.6692L272.654 28.1692L283.154 32.1692C292.654 33.1692 291.653 34.6692 295.648 37.0894Z" stroke="black" stroke-width="0.5"/>
<path d="M294.156 36.6694C293.656 34.1693 282.656 33.9692 277.156 34.4692" stroke="black" stroke-width="0.5"/>
<path d="M300.156 66.6692L260.656 68.6692C260.156 63.6692 257.99 59.5025 256.156 57.6692L302.156 55.1692M300.656 52.6692C289.656 51.1692 278.656 46.3692 266.656 40.3692M228.656 30.6692L272.656 28.1692L281.156 26.6692" stroke="black" stroke-width="0.5"/>
<path d="M290.656 40.6692C290.656 38.6692 289.656 34.6692 286.156 32.6692C288.377 32.6692 291.754 33.7096 294.265 36.0792C294.729 37.6092 293.656 41.1692 290.614 42.6692C290.601 42.0789 290.656 41.3935 290.656 40.6692Z" fill="#E0426F"/>
<path d="M272.656 43.1692C279.652 43.519 285.669 43.6241 291.049 44.1692M297.656 45.1692C295.553 44.7185 293.36 44.4033 291.049 44.1692M295.656 37.6692C295.238 37.0841 294.769 36.5548 294.265 36.0792M291.049 44.1692C290.723 43.8244 290.629 43.3014 290.614 42.6692M290.614 42.6692C290.601 42.0789 290.656 41.3935 290.656 40.6692C290.656 38.6692 289.656 34.6692 286.156 32.6692C288.377 32.6692 291.754 33.7096 294.265 36.0792M290.614 42.6692C293.656 41.1692 294.729 37.6092 294.265 36.0792" stroke="black" stroke-width="0.5"/>
<path d="M290.656 40.6692C286.156 40.6692 284.156 36.6692 283.156 34.1692" stroke="black" stroke-width="0.5"/>
<path d="M132.654 12.7692C119.154 16.7692 107.154 22.6692 93.1543 35.6692C100.154 23.6692 115.654 14.1692 131.154 9.16919L132.654 12.7692Z" stroke="black" stroke-width="0.5"/>
<path d="M131.154 9.16919C111.154 14.8432 93.1543 32.1692 85.1543 30.1692C98.1543 20.6692 114.154 12.1692 130.654 7.66919L131.154 9.16919Z" stroke="black" stroke-width="0.5"/>
<path d="M10.155 48.1692H4.15496C1.6543 52.1692 1.6543 62.1692 2.15496 65.6692C0.654297 66.6692 0.654894 71.1692 1.65496 72.6692L5.65496 73.1692V74.6692L1.65496 76.6692V78.6692C5.65496 79.6692 14.155 81.6692 22.155 81.1692V79.6692H39.655C38.9883 71.1692 40.655 60.6692 49.655 53.6692C47.155 49.6692 40.155 45.1692 37.155 44.6692C27.155 43.6692 12.155 46.1692 10.155 48.1692Z" stroke="black" stroke-width="0.5"/>
<path d="M93.1562 35.6692C75.3229 36.5025 43.6562 41.3692 33.1562 44.3692L37.1562 44.6692C42.1562 46.1692 47.6562 50.5025 49.6562 53.6692C62.6553 44.1692 88.1553 51.1692 86.6553 78.6692H96.6553C89.6553 67.6692 90.6553 45.6692 93.1562 35.6692Z" stroke="black" stroke-width="0.5"/>
<path d="M10.1543 48.1692H4.1543C36.6545 28.6691 58.6545 34.6692 84.6543 30.1692L93.6545 35.6692C76.6545 36.6692 47.6543 40.1692 33.6543 44.3692C25.6543 44.1692 11.6543 46.1692 10.1543 48.1692Z" stroke="black" stroke-width="0.5"/>
<path d="M37.1558 44.6693C29.6558 43.6692 12.6558 45.6692 10.1558 48.1693C9.35575 50.5692 12.4891 53.5025 14.1558 54.6692C23.6558 56.1692 37.1558 50.1692 37.1558 44.6693Z" stroke="black" stroke-width="0.5"/>
<path d="M4.15499 48.1692C11.155 49.1692 5.15499 59.6692 2.15499 64.6692C1.65492 57.6692 2.15479 52.1692 4.15499 48.1692Z" stroke="black" stroke-width="0.5"/>
<path d="M22.1543 84.1692V79.6692H39.6543L40.1543 84.1692H22.1543Z" stroke="black" stroke-width="0.5"/>
<path d="M2.65625 65.6692C4.15625 68.1692 6.15625 71.3359 5.65625 73.1692M22.1562 79.6692C11.6562 80.1692 7.15625 76.1692 8.15625 72.6692C8.65625 72.1692 10.1562 70.6692 11.1562 70.6692" stroke="black" stroke-width="0.5"/>
<path d="M6.15625 65.6693C8.40619 65.1692 11.2811 64.5443 14.031 64.1693M14.031 64.1693C16.7811 63.7943 19.4062 63.6693 21.1562 64.1693C24.1562 65.6693 29.6562 70.6692 32.1562 74.6692C27.1562 75.6692 20.1562 75.1692 15.6562 75.1692C12.9637 75.1692 11.6562 72.8359 11.6562 71.6692C11.1562 68.6692 12.4061 65.5026 14.031 64.1693Z" stroke="black" stroke-width="0.5"/>
<path d="M11.6562 71.1693C19.6562 69.6693 23.1562 72.2978 26.1562 73.7978M13.1562 74.1693L30.6562 73.6693" stroke="black" stroke-width="0.5"/>
<path d="M22.1543 82.6692H31.6543C33.6543 82.6692 35.1543 80.6692 34.6543 79.6692M38.1543 79.6692V84.1692" stroke="black" stroke-width="0.5"/>
<path d="M22.1562 81.1694C17.6562 81.1694 13.1562 81.6694 1.6562 78.6694V76.6694L5.6562 74.6694V73.1694L1.6562 72.6694C1.15527 71.1692 0.155469 68.1692 2.15546 65.6692C1.65571 57.6692 2.15571 51.1692 4.1562 48.1689C36.6562 28.6693 58.6562 34.6694 84.6562 30.1694C162.656 -24.8307 244.656 12.1692 281.656 26.6694L295.156 28.6692L295.656 35.6692V38.6692C297.155 43.6692 298.49 48.1692 297.156 50.1692C299.656 51.1692 302.156 54.3359 302.156 56.1692L300.156 66.1692C300.608 77.0171 298.2 77.2414 288.868 77.5538C287.877 77.587 285.808 77.6212 284.656 77.6692V79.1692L259.656 79.6002M22.1562 81.1694V84.1694H40.1545L39.6562 79.6694M22.1562 81.1694V79.6694H39.6562M39.6562 79.6694C36.6562 38.1694 90.1562 41.1694 86.6562 80.1694V82.6692H213.156C207.156 39.1692 261.656 39.1692 259.656 79.6002M259.155 79.6002H259.656" stroke="black"/>
</svg>
