<svg width="303" height="95" viewBox="0 0 303 95" fill="none" xmlns="http://www.w3.org/2000/svg">
<circle cx="62.6562" cy="73.6768" r="20.5" stroke="black"/>
<circle cx="235.656" cy="73.6768" r="20.5" stroke="black"/>
<path d="M132.654 12.1766L131.154 8.67661C171.154 0.676725 192.654 1.17676 231.654 12.6767L228.154 17.1767C208.154 9.17667 190.154 8.17667 174.154 7.67673C171.654 7.17673 167.654 7.1767 165.154 7.67661C155.154 7.67673 143.154 9.17674 132.654 12.1766Z" stroke="black" stroke-width="0.5"/>
<path d="M131.154 8.6768L130.654 7.1768C166.654 -3.82324 199.154 0.176632 234.654 9.1768L231.654 12.6768C191.654 0.176758 165.654 1.67676 131.154 8.6768Z" stroke="black" stroke-width="0.5"/>
<path d="M131.154 8.67675C182.654 -2.82328 211.154 7.17676 231.654 12.6767" stroke="black" stroke-width="0.5"/>
<path d="M226.656 30.1768L223.656 15.6768C219.156 14.1768 207.656 8.67676 174.156 7.67676L170.656 29.6768C181.656 29.1768 199.156 27.6768 226.156 27.6768" stroke="black" stroke-width="0.5"/>
<path d="M165.156 7.67676C132.156 8.67676 112.156 17.6768 93.1562 35.1768L95.6562 33.1768L159.656 30.1768L165.156 7.67676Z" stroke="black" stroke-width="0.5"/>
<path d="M239.654 22.1768C235.988 19.5101 230.154 17.1768 223.654 15.6768L226.154 27.6768H232.654C235.654 26.1768 238.654 23.9455 239.654 22.1768Z" stroke="black" stroke-width="0.5"/>
<path d="M96.6562 78.1768H163.656L198.156 76.6768M96.6562 78.1768C96.6562 79.6768 97.1562 80.6768 98.1562 82.1768M96.6562 78.1768H86.6562V82.1768H98.1562M198.156 76.6768L199.156 82.1768M198.156 76.6768H212.656L213.156 82.1768H199.156M199.156 82.1768H98.1562" stroke="black" stroke-width="0.5"/>
<path d="M96.6554 78.1768C92.1562 73.6768 89.1563 51.6768 93.1554 35.1768L165.156 31.1768C161.156 36.1768 160.156 70.1768 163.656 78.1768H96.6554Z" stroke="black" stroke-width="0.5"/>
<path d="M228.656 30.1768L165.156 31.1768C161.156 36.1768 160.156 70.1768 163.656 78.1768L198.156 76.6768C202.656 75.1768 209.156 69.6768 228.656 30.1768Z" stroke="black" stroke-width="0.5"/>
<path d="M170.656 29.6768C166.156 30.1768 162.656 30.1768 159.656 30.1768L165.156 7.67683C168.156 7.17676 171.156 7.17676 174.156 7.67683L170.656 29.6768Z" stroke="black" stroke-width="0.5"/>
<path d="M99.1562 31.6769C103.656 37.1769 110.656 33.6769 114.656 32.1769C115.656 16.6768 102.656 24.6768 99.1562 31.6769Z" stroke="black" stroke-width="0.5"/>
<path d="M234.654 9.17676L231.654 12.6768C248.654 18.1768 259.154 21.1768 271.654 27.6768H273.154L281.154 26.1768C266.154 19.6768 258.654 17.1768 234.654 9.17676Z" fill="#E0426F" stroke="black" stroke-width="0.5"/>
<path d="M271.654 27.6768C261.154 22.1768 242.154 15.6768 231.654 12.6768L229.654 15.1768L244.654 22.6768C243.154 25.1768 239.154 27.1768 233.154 29.8768C245.154 29.1768 262.154 28.1768 271.654 27.6768Z" fill="#E0426F" stroke="black" stroke-width="0.5"/>
<path d="M277.156 33.9768L283.155 31.6768L272.655 27.6768L228.655 30.1768C221.155 45.1768 206.155 75.6768 198.155 76.6768H212.655C211.155 65.6768 220.655 42.1768 245.656 51.1768C256.156 45.6768 266.156 40.1768 277.156 33.9768Z" fill="#E0426F" stroke="black" stroke-width="0.5"/>
<path d="M278.154 33.6768C266.154 40.1768 256.154 45.6768 245.654 51.1768C250.154 54.1768 260.654 60.1768 259.654 79.1768L284.654 78.6768V77.1768C293.154 76.1768 301.654 79.6768 300.154 65.6768L302.154 55.6768C302.154 54.1768 299.654 50.1768 297.154 49.6768C298.654 47.1768 295.654 38.1768 295.654 38.1768V36.6768L291.654 33.6768L286.654 32.1768L283.154 31.6768L278.154 33.6768Z" fill="#E0426F" stroke="black" stroke-width="0.5"/>
<path d="M281.154 26.1768L272.654 27.6768L283.154 31.6768C292.654 32.6768 291.653 34.1768 295.648 36.5969L295.154 28.1768L281.154 26.1768Z" fill="#E0426F"/>
<path d="M295.654 36.6768L295.648 36.5969M295.648 36.5969L295.154 28.1768L281.154 26.1768L272.654 27.6768L283.154 31.6768C292.654 32.6768 291.653 34.1768 295.648 36.5969Z" stroke="black" stroke-width="0.5"/>
<path d="M294.156 36.177C293.656 33.6768 282.656 33.4768 277.156 33.9768" stroke="black" stroke-width="0.5"/>
<path d="M300.156 66.1768L260.656 68.1768C260.156 63.1768 257.99 59.0101 256.156 57.1768L302.156 54.6768M300.656 52.1768C289.656 50.6768 278.656 45.8768 266.656 39.8768M228.656 30.1768L272.656 27.6768L281.156 26.1768" stroke="black" stroke-width="0.5"/>
<path d="M290.656 40.1768C290.656 38.1768 289.656 34.1768 286.156 32.1768C288.377 32.1768 291.754 33.2171 294.265 35.5867C294.729 37.1167 293.656 40.6768 290.614 42.1768C290.601 41.5865 290.656 40.901 290.656 40.1768Z" fill="#E0426F"/>
<path d="M272.656 42.6768C279.652 43.0265 285.669 43.1316 291.049 43.6768M297.656 44.6768C295.553 44.2261 293.36 43.9109 291.049 43.6768M295.656 37.1768C295.238 36.5916 294.769 36.0624 294.265 35.5867M291.049 43.6768C290.723 43.332 290.629 42.8089 290.614 42.1768M290.614 42.1768C290.601 41.5865 290.656 40.901 290.656 40.1768C290.656 38.1768 289.656 34.1768 286.156 32.1768C288.377 32.1768 291.754 33.2171 294.265 35.5867M290.614 42.1768C293.656 40.6768 294.729 37.1167 294.265 35.5867" stroke="black" stroke-width="0.5"/>
<path d="M290.656 40.1768C286.156 40.1768 284.156 36.1768 283.156 33.6768" stroke="black" stroke-width="0.5"/>
<path d="M132.654 12.2767C119.154 16.2767 107.154 22.1768 93.1543 35.1768C100.154 23.1768 115.654 13.6768 131.154 8.67676L132.654 12.2767Z" fill="#E56E90" stroke="black" stroke-width="0.5"/>
<path d="M131.154 8.67676C111.154 14.3508 93.1543 31.6768 85.1543 29.6768C98.1543 20.1768 114.154 11.6768 130.654 7.17676L131.154 8.67676Z" fill="#E56E90" stroke="black" stroke-width="0.5"/>
<path d="M10.155 47.6768H4.15496C1.6543 51.6768 1.6543 61.6768 2.15496 65.1768C0.654297 66.1768 0.654894 70.6768 1.65496 72.1768L5.65496 72.6768V74.1768L1.65496 76.1768V78.1768C5.65496 79.1768 14.155 81.1768 22.155 80.6768V79.1768H39.655C38.9883 70.6768 40.655 60.1768 49.655 53.1768C47.155 49.1768 40.155 44.6768 37.155 44.1768C27.155 43.1768 12.155 45.6768 10.155 47.6768Z" fill="#E56E90" stroke="black" stroke-width="0.5"/>
<path d="M93.1562 35.1768C75.3229 36.0101 43.6562 40.8768 33.1562 43.8768L37.1562 44.1768C42.1562 45.6768 47.6562 50.0101 49.6562 53.1768C62.6553 43.6768 88.1553 50.6768 86.6553 78.1768H96.6553C89.6553 67.1768 90.6553 45.1768 93.1562 35.1768Z" fill="#E56E90" stroke="black" stroke-width="0.5"/>
<path d="M10.1543 47.6768H4.1543C36.6545 28.1767 58.6545 34.1768 84.6543 29.6768L93.6545 35.1768C76.6545 36.1768 47.6543 39.6768 33.6543 43.8768C25.6543 43.6767 11.6543 45.6768 10.1543 47.6768Z" fill="#E56E90" stroke="black" stroke-width="0.5"/>
<path d="M37.1558 44.1768C29.6558 43.1768 12.6558 45.1768 10.1558 47.6768C9.35575 50.0768 12.4891 53.0101 14.1558 54.1768C23.6558 55.6768 37.1558 49.6768 37.1558 44.1768Z" fill="#E56E90" stroke="black" stroke-width="0.5"/>
<path d="M4.15499 47.6768C11.155 48.6768 5.15499 59.1768 2.15499 64.1768C1.65492 57.1768 2.15479 51.6768 4.15499 47.6768Z" fill="#E56E90" stroke="black" stroke-width="0.5"/>
<path d="M22.1543 83.6768V79.1768H39.6543L40.1543 83.6768H22.1543Z" fill="#E56E90" stroke="black" stroke-width="0.5"/>
<path d="M2.65625 65.1768C4.15625 67.6768 6.15625 70.8434 5.65625 72.6768M22.1562 79.1768C11.6562 79.6768 7.15625 75.6768 8.15625 72.1768C8.65625 71.6768 10.1562 70.1768 11.1562 70.1768" stroke="black" stroke-width="0.5"/>
<path d="M32.1562 74.1768C29.6562 70.1768 24.1562 65.1768 21.1562 63.6768C19.4062 63.1768 16.7811 63.3018 14.031 63.6768C12.4061 65.0101 11.1562 68.1768 11.6562 71.1768C11.6562 72.3434 12.9637 74.6768 15.6562 74.6768C20.1562 74.6768 27.1562 75.1768 32.1562 74.1768Z" fill="#E56E90"/>
<path d="M6.15625 65.1768C8.40619 64.6768 11.2811 64.0518 14.031 63.6768M14.031 63.6768C16.7811 63.3018 19.4062 63.1768 21.1562 63.6768C24.1562 65.1768 29.6562 70.1768 32.1562 74.1768C27.1562 75.1768 20.1562 74.6768 15.6562 74.6768C12.9637 74.6768 11.6562 72.3434 11.6562 71.1768C11.1562 68.1768 12.4061 65.0101 14.031 63.6768Z" stroke="black" stroke-width="0.5"/>
<path d="M11.6562 70.6768C19.6562 69.1769 23.1562 71.8054 26.1562 73.3054M13.1562 73.6769L30.6562 73.1769" stroke="black" stroke-width="0.5"/>
<path d="M22.1543 82.1768H31.6543C33.6543 82.1768 35.1543 80.1768 34.6543 79.1768M38.1543 79.1768V83.6768" stroke="black" stroke-width="0.5"/>
<path d="M22.1562 80.677C17.6562 80.677 13.1562 81.177 1.6562 78.177V76.177L5.6562 74.177V72.677L1.6562 72.177C1.15527 70.6768 0.155469 67.6768 2.15546 65.1768C1.65571 57.1768 2.15571 50.6768 4.1562 47.6765C36.6562 28.1769 58.6562 34.1769 84.6562 29.6769C162.656 -25.3232 244.656 11.6767 281.656 26.1769L295.156 28.1768L295.656 35.1768V38.1768C297.155 43.1768 298.49 47.6768 297.156 49.6768C299.656 50.6768 302.156 53.8434 302.156 55.6768L300.156 65.6768C300.608 76.5247 298.2 76.7489 288.868 77.0614C287.877 77.0946 285.808 77.1288 284.656 77.1768V78.6768L259.656 79.1078M22.1562 80.677V83.677H40.1545L39.6562 79.177M22.1562 80.677V79.177H39.6562M39.6562 79.177C36.6562 37.677 90.1562 40.677 86.6562 79.677V82.1768H213.156C207.156 38.6768 261.656 38.6768 259.656 79.1078M259.155 79.1078H259.656" stroke="black"/>
</svg>
