<svg width="303" height="95" viewBox="0 0 303 95" fill="none" xmlns="http://www.w3.org/2000/svg">
<circle cx="62.8955" cy="73.6768" r="20.5" fill="#EFC7D3" stroke="black"/>
<circle cx="235.896" cy="73.6768" r="20.5" fill="#EFC7D3" stroke="black"/>
<path d="M132.894 12.1766L131.394 8.67661C171.394 0.676725 192.894 1.17676 231.894 12.6767L228.394 17.1767C208.394 9.17667 190.394 8.17667 174.394 7.67673C171.894 7.17673 167.894 7.1767 165.394 7.67661C155.394 7.67673 143.394 9.17674 132.894 12.1766Z" stroke="black" stroke-width="0.5"/>
<path d="M131.394 8.6768L130.894 7.1768C166.894 -3.82324 199.394 0.176632 234.894 9.1768L231.894 12.6768C191.894 0.176758 165.894 1.67676 131.394 8.6768Z" stroke="black" stroke-width="0.5"/>
<path d="M131.394 8.67675C182.894 -2.82328 211.394 7.17676 231.894 12.6767" stroke="black" stroke-width="0.5"/>
<path d="M226.896 30.1768L223.896 15.6768C219.396 14.1768 207.896 8.67676 174.396 7.67676L170.896 29.6768C181.896 29.1768 199.396 27.6768 226.396 27.6768" stroke="black" stroke-width="0.5"/>
<path d="M165.396 7.67676C132.396 8.67676 112.396 17.6768 93.3955 35.1768L95.8955 33.1768L159.896 30.1768L165.396 7.67676Z" stroke="black" stroke-width="0.5"/>
<path d="M239.894 22.1768C236.227 19.5101 230.394 17.1768 223.894 15.6768L226.394 27.6768H232.894C235.894 26.1768 238.894 23.9455 239.894 22.1768Z" stroke="black" stroke-width="0.5"/>
<path d="M96.8955 78.1768H163.896L198.396 76.6768M96.8955 78.1768C96.8955 79.6768 97.3955 80.6768 98.3955 82.1768M96.8955 78.1768H86.8955V82.1768H98.3955M198.396 76.6768L199.396 82.1768M198.396 76.6768H212.896L213.396 82.1768H199.396M199.396 82.1768H98.3955" stroke="black" stroke-width="0.5"/>
<path d="M96.8946 78.1768C92.3955 73.6768 89.3956 51.6768 93.3946 35.1768L165.396 31.1768C161.396 36.1768 160.396 70.1768 163.896 78.1768H96.8946Z" stroke="black" stroke-width="0.5"/>
<path d="M228.895 30.1768L165.395 31.1768C161.396 36.1768 160.396 70.1768 163.895 78.1768L198.395 76.6768C202.895 75.1768 209.395 69.6768 228.895 30.1768Z" stroke="black" stroke-width="0.5"/>
<path d="M170.896 29.6768C166.396 30.1768 162.896 30.1768 159.896 30.1768L165.396 7.67683C168.396 7.17676 171.396 7.17676 174.396 7.67683L170.896 29.6768Z" stroke="black" stroke-width="0.5"/>
<path d="M99.3955 31.6769C103.896 37.1769 110.896 33.6769 114.896 32.1769C115.896 16.6768 102.896 24.6768 99.3955 31.6769Z" stroke="black" stroke-width="0.5"/>
<path d="M234.894 9.17676L231.894 12.6768C248.894 18.1768 259.394 21.1768 271.894 27.6768H273.394L281.394 26.1768C266.394 19.6768 258.894 17.1768 234.894 9.17676Z" stroke="black" stroke-width="0.5"/>
<path d="M271.894 27.6768C261.394 22.1768 242.394 15.6768 231.894 12.6768L229.894 15.1768L244.894 22.6768C243.394 25.1768 239.394 27.1768 233.394 29.8768C245.394 29.1768 262.394 28.1768 271.894 27.6768Z" stroke="black" stroke-width="0.5"/>
<path d="M277.396 33.9768L283.394 31.6768L272.895 27.6768L228.895 30.1768C221.395 45.1768 206.395 75.6768 198.395 76.6768H212.895C211.395 65.6768 220.895 42.1768 245.896 51.1768C256.396 45.6768 266.396 40.1768 277.396 33.9768Z" stroke="black" stroke-width="0.5"/>
<path d="M278.394 33.6768C266.394 40.1768 256.394 45.6768 245.894 51.1768C250.394 54.1768 260.894 60.1768 259.894 79.1768L284.894 78.6768V77.1768C293.394 76.1768 301.894 79.6768 300.394 65.6768L302.394 55.6768C302.394 54.1768 299.894 50.1768 297.394 49.6768C298.894 47.1768 295.894 38.1768 295.894 38.1768V36.6768L291.894 33.6768L286.894 32.1768L283.394 31.6768L278.394 33.6768Z" stroke="black" stroke-width="0.5"/>
<path d="M295.894 36.6768L295.888 36.5969M295.888 36.5969L295.394 28.1768L281.394 26.1768L272.894 27.6768L283.394 31.6768C292.894 32.6768 291.892 34.1768 295.888 36.5969Z" stroke="black" stroke-width="0.5"/>
<path d="M294.396 36.177C293.896 33.6768 282.896 33.4768 277.396 33.9768" stroke="black" stroke-width="0.5"/>
<path d="M300.396 66.1768L260.896 68.1768C260.396 63.1768 258.229 59.0101 256.396 57.1768L302.396 54.6768M300.896 52.1768C289.896 50.6768 278.896 45.8768 266.896 39.8768M228.896 30.1768L272.896 27.6768L281.396 26.1768" stroke="black" stroke-width="0.5"/>
<path d="M272.896 42.6768C279.891 43.0265 285.908 43.1316 291.289 43.6768M297.896 44.6768C295.793 44.2261 293.599 43.9109 291.289 43.6768M295.896 37.1768C295.478 36.5916 295.008 36.0624 294.504 35.5867M291.289 43.6768C290.962 43.332 290.868 42.8089 290.854 42.1768M290.854 42.1768C290.84 41.5865 290.896 40.901 290.896 40.1768C290.896 38.1768 289.896 34.1768 286.396 32.1768C288.616 32.1768 291.993 33.2171 294.504 35.5867M290.854 42.1768C293.896 40.6768 294.968 37.1167 294.504 35.5867" stroke="black" stroke-width="0.5"/>
<path d="M290.896 40.1768C286.396 40.1768 284.396 36.1768 283.396 33.6768" stroke="black" stroke-width="0.5"/>
<path d="M132.894 12.2767C119.394 16.2767 107.394 22.1768 93.394 35.1768C100.394 23.1768 115.894 13.6768 131.394 8.67676L132.894 12.2767Z" fill="#E56E90" stroke="black" stroke-width="0.5"/>
<path d="M131.394 8.67676C111.394 14.3508 93.394 31.6768 85.394 29.6768C98.394 20.1768 114.394 11.6768 130.894 7.17676L131.394 8.67676Z" fill="#E56E90" stroke="black" stroke-width="0.5"/>
<path d="M10.3947 47.6768H4.39471C1.89404 51.6768 1.89404 61.6768 2.39471 65.1768C0.894043 66.1768 0.89464 70.6768 1.89471 72.1768L5.89471 72.6768V74.1768L1.89471 76.1768V78.1768C5.89471 79.1768 14.3947 81.1768 22.3947 80.6768V79.1768H39.8947C39.228 70.6768 40.8947 60.1768 49.8947 53.1768C47.3947 49.1768 40.3947 44.6768 37.3947 44.1768C27.3947 43.1768 12.3947 45.6768 10.3947 47.6768Z" fill="#E56E90" stroke="black" stroke-width="0.5"/>
<path d="M93.3955 35.1768C75.5622 36.0101 43.8955 40.8768 33.3955 43.8768L37.3955 44.1768C42.3955 45.6768 47.8955 50.0101 49.8955 53.1768C62.8945 43.6768 88.3945 50.6768 86.8945 78.1768H96.8945C89.8945 67.1768 90.8945 45.1768 93.3955 35.1768Z" fill="#E56E90" stroke="black" stroke-width="0.5"/>
<path d="M10.3936 47.6768H4.39355C36.8937 28.1767 58.8938 34.1768 84.8936 29.6768L93.8938 35.1768C76.8938 36.1768 47.8936 39.6768 33.8936 43.8768C25.8936 43.6767 11.8936 45.6768 10.3936 47.6768Z" fill="#E56E90" stroke="black" stroke-width="0.5"/>
<path d="M37.3955 44.1768C29.8955 43.1768 12.8955 45.1768 10.3955 47.6768C9.5955 50.0768 12.7288 53.0101 14.3955 54.1768C23.8955 55.6768 37.3955 49.6768 37.3955 44.1768Z" fill="#E56E90" stroke="black" stroke-width="0.5"/>
<path d="M4.39474 47.6768C11.3947 48.6768 5.39474 59.1768 2.39474 64.1768C1.89467 57.1768 2.39453 51.6768 4.39474 47.6768Z" fill="#E56E90" stroke="black" stroke-width="0.5"/>
<path d="M22.394 83.6768V79.1768H39.894L40.394 83.6768H22.394Z" fill="#E56E90" stroke="black" stroke-width="0.5"/>
<path d="M2.89551 65.1768C4.39551 67.6768 6.39551 70.8434 5.89551 72.6768M22.3955 79.1768C11.8955 79.6768 7.39551 75.6768 8.39551 72.1768C8.89551 71.6768 10.3955 70.1768 11.3955 70.1768" stroke="black" stroke-width="0.5"/>
<path d="M32.3955 74.1768C29.8955 70.1768 24.3955 65.1768 21.3955 63.6768C19.6455 63.1768 17.0204 63.3018 14.2703 63.6768C12.6454 65.0101 11.3955 68.1768 11.8955 71.1768C11.8955 72.3434 13.2029 74.6768 15.8955 74.6768C20.3955 74.6768 27.3955 75.1768 32.3955 74.1768Z" fill="#E56E90"/>
<path d="M6.39551 65.1768C8.64545 64.6768 11.5204 64.0518 14.2703 63.6768M14.2703 63.6768C17.0204 63.3018 19.6455 63.1768 21.3955 63.6768C24.3955 65.1768 29.8955 70.1768 32.3955 74.1768C27.3955 75.1768 20.3955 74.6768 15.8955 74.6768C13.2029 74.6768 11.8955 72.3434 11.8955 71.1768C11.3955 68.1768 12.6454 65.0101 14.2703 63.6768Z" stroke="black" stroke-width="0.5"/>
<path d="M11.8955 70.6768C19.8955 69.1769 23.3955 71.8054 26.3955 73.3054M13.3955 73.6769L30.8955 73.1769" stroke="black" stroke-width="0.5"/>
<path d="M22.3936 82.1768H31.8936C33.8936 82.1768 35.3936 80.1768 34.8936 79.1768M38.3936 79.1768V83.6768" stroke="black" stroke-width="0.5"/>
<path d="M22.3955 80.677C17.8955 80.677 13.3955 81.177 1.89545 78.177V76.177L5.89545 74.177V72.677L1.89545 72.177C1.39453 70.6768 0.394727 67.6768 2.39472 65.1768C1.89497 57.1768 2.39497 50.6768 4.39545 47.6765C36.8955 28.1769 58.8954 34.1769 84.8954 29.6769C162.895 -25.3232 244.895 11.6767 281.895 26.1769L295.395 28.1768L295.895 35.1768V38.1768C297.394 43.1768 298.729 47.6768 297.395 49.6768C299.895 50.6768 302.395 53.8434 302.395 55.6768L300.395 65.6768C300.847 76.5247 298.439 76.7489 289.108 77.0614C288.117 77.0946 286.048 77.1288 284.895 77.1768V78.6768L259.895 79.1078M22.3955 80.677V83.677H40.3938L39.8955 79.177M22.3955 80.677V79.177H39.8955M39.8955 79.177C36.8955 37.677 90.3954 40.677 86.8954 79.677V82.1768H213.395C207.395 38.6768 261.895 38.6768 259.895 79.1078M259.394 79.1078H259.895" stroke="black"/>
</svg>
