<svg width="303" height="95" viewBox="0 0 303 95" fill="none" xmlns="http://www.w3.org/2000/svg">
<circle cx="62.4795" cy="73.8914" r="20.5" fill="#E0426F" stroke="black"/>
<circle cx="235.479" cy="73.8914" r="20.5" fill="#E0426F" stroke="black"/>
<path d="M132.478 12.3912L130.978 8.89121C170.978 0.891325 192.478 1.39136 231.478 12.8913L227.978 17.3913C207.978 9.39127 189.978 8.39127 173.978 7.89133C171.478 7.39133 167.478 7.3913 164.978 7.89121C154.978 7.89133 142.978 9.39134 132.478 12.3912Z" fill="#E0426F" stroke="black" stroke-width="0.5"/>
<path d="M130.978 8.8914L130.478 7.3914C166.478 -3.60864 198.978 0.391232 234.478 9.3914L231.478 12.8914C191.478 0.391357 165.478 1.89136 130.978 8.8914Z" fill="#E0426F" stroke="black" stroke-width="0.5"/>
<path d="M130.978 8.89122C182.478 -2.6088 210.978 7.39124 231.478 12.8912" stroke="black" stroke-width="0.5"/>
<path d="M170.479 29.8914L173.979 7.89136C207.479 8.89136 218.979 14.3914 223.479 15.8914L225.962 27.8914C198.972 27.892 181.477 29.3915 170.479 29.8914Z" fill="#E0426F"/>
<path d="M226.479 30.3914L223.479 15.8914C218.979 14.3914 207.479 8.89136 173.979 7.89136L170.479 29.8914C181.479 29.3914 198.979 27.8914 225.979 27.8914" stroke="black" stroke-width="0.5"/>
<path d="M164.979 7.89136C131.979 8.89136 111.979 17.8914 92.9795 35.3914L95.4795 33.3914L159.479 30.3914L164.979 7.89136Z" fill="#E0426F" stroke="black" stroke-width="0.5"/>
<path d="M239.478 22.3914C235.811 19.7247 229.978 17.3914 223.478 15.8914L225.978 27.8914H232.478C235.478 26.3914 238.478 24.1601 239.478 22.3914Z" fill="#E0426F" stroke="black" stroke-width="0.5"/>
<path d="M96.4795 78.3914H163.479L197.979 76.8914H212.479L212.979 82.3914H198.979H97.9795H86.4795V78.3914H96.4795Z" fill="#E0426F"/>
<path d="M96.4795 78.3914H163.479L197.979 76.8914M96.4795 78.3914C96.4795 79.8914 96.9795 80.8914 97.9795 82.3914M96.4795 78.3914H86.4795V82.3914H97.9795M197.979 76.8914L198.979 82.3914M197.979 76.8914H212.479L212.979 82.3914H198.979M198.979 82.3914H97.9795" stroke="black" stroke-width="0.5"/>
<path d="M96.4786 78.3914C91.9795 73.8914 88.9795 51.8914 92.9786 35.3914L164.979 31.3914C160.979 36.3914 159.979 70.3914 163.479 78.3914H96.4786Z" fill="#E0426F" stroke="black" stroke-width="0.5"/>
<path d="M228.479 30.3914L164.979 31.3914C160.98 36.3914 159.98 70.3914 163.479 78.3914L197.979 76.8914C202.479 75.3914 208.979 69.8914 228.479 30.3914Z" fill="#E0426F" stroke="black" stroke-width="0.5"/>
<path d="M170.479 29.8914C165.979 30.3914 162.479 30.3914 159.479 30.3914L164.979 7.89143C167.979 7.39136 170.979 7.39136 173.979 7.89143L170.479 29.8914Z" fill="#E0426F" stroke="black" stroke-width="0.5"/>
<path d="M98.9795 31.8914C103.479 37.3914 110.479 33.8914 114.479 32.3914C115.479 16.8913 102.479 24.8912 98.9795 31.8914Z" fill="#E0426F" stroke="black" stroke-width="0.5"/>
<path d="M234.478 9.39136L231.478 12.8914C248.478 18.3914 258.978 21.3914 271.478 27.8914H272.978L280.978 26.3914C265.978 19.8914 258.478 17.3914 234.478 9.39136Z" fill="#EFC7D3" stroke="black" stroke-width="0.5"/>
<path d="M271.478 27.8914C260.978 22.3914 241.978 15.8914 231.478 12.8914L229.478 15.3914L244.478 22.8914C242.978 25.3914 238.978 27.3914 232.978 30.0914C244.978 29.3914 261.978 28.3914 271.478 27.8914Z" fill="#EFC7D3" stroke="black" stroke-width="0.5"/>
<path d="M276.979 34.1914L282.978 31.8914L272.479 27.8914L228.479 30.3914C220.979 45.3914 205.979 75.8914 197.979 76.8914H212.479C210.979 65.8914 220.479 42.3914 245.479 51.3914C255.979 45.8914 265.979 40.3914 276.979 34.1914Z" fill="#EFC7D3" stroke="black" stroke-width="0.5"/>
<path d="M277.978 33.8914C265.978 40.3914 255.978 45.8914 245.478 51.3914C249.978 54.3914 260.478 60.3914 259.478 79.3914L284.478 78.8914V77.3914C292.978 76.3914 301.478 79.8914 299.978 65.8914L301.978 55.8914C301.978 54.3914 299.478 50.3914 296.978 49.8914C298.478 47.3914 295.478 38.3914 295.478 38.3914V36.8914L291.478 33.8914L286.478 32.3914L282.978 31.8914L277.978 33.8914Z" fill="#EFC7D3" stroke="black" stroke-width="0.5"/>
<path d="M280.978 26.3914L272.478 27.8914L282.978 31.8914C292.478 32.8914 291.476 34.3914 295.472 36.8115L294.978 28.3914L280.978 26.3914Z" fill="#EFC7D3"/>
<path d="M295.478 36.8914L295.472 36.8115M295.472 36.8115L294.978 28.3914L280.978 26.3914L272.478 27.8914L282.978 31.8914C292.478 32.8914 291.476 34.3914 295.472 36.8115Z" stroke="black" stroke-width="0.5"/>
<path d="M293.979 36.3916C293.479 33.8914 282.479 33.6914 276.979 34.1914" stroke="black" stroke-width="0.5"/>
<path d="M299.979 66.3914L260.479 68.3914C259.979 63.3914 257.813 59.2247 255.979 57.3914L301.979 54.8914M300.479 52.3914C289.479 50.8914 278.479 46.0914 266.479 40.0914M228.479 30.3914L272.479 27.8914L280.979 26.3914" stroke="black" stroke-width="0.5"/>
<path d="M290.479 40.3914C290.479 38.3914 289.479 34.3914 285.979 32.3914C288.2 32.3914 291.577 33.4317 294.088 35.8013C294.552 37.3313 293.479 40.8914 290.438 42.3914C290.424 41.8011 290.479 41.1156 290.479 40.3914Z" fill="#EFC7D3"/>
<path d="M272.479 42.8914C279.475 43.2411 285.492 43.3462 290.873 43.8914M297.479 44.8914C295.376 44.4407 293.183 44.1255 290.873 43.8914M295.479 37.3914C295.062 36.8062 294.592 36.277 294.088 35.8013M290.873 43.8914C290.546 43.5466 290.452 43.0235 290.438 42.3914M290.438 42.3914C290.424 41.8011 290.479 41.1156 290.479 40.3914C290.479 38.3914 289.479 34.3914 285.979 32.3914C288.2 32.3914 291.577 33.4317 294.088 35.8013M290.438 42.3914C293.479 40.8914 294.552 37.3313 294.088 35.8013" stroke="black" stroke-width="0.5"/>
<path d="M290.479 40.3914C285.979 40.3914 283.979 36.3914 282.979 33.8914" stroke="black" stroke-width="0.5"/>
<path d="M132.478 12.4913C118.978 16.4913 106.978 22.3914 92.978 35.3914C99.978 23.3914 115.478 13.8914 130.978 8.89136L132.478 12.4913Z" fill="#EFC7D3" stroke="black" stroke-width="0.5"/>
<path d="M130.978 8.89136C110.978 14.5654 92.978 31.8914 84.978 29.8914C97.978 20.3914 113.978 11.8914 130.478 7.39136L130.978 8.89136Z" fill="#EFC7D3" stroke="black" stroke-width="0.5"/>
<path d="M9.97869 47.8912H3.97869C1.47803 51.8912 1.47803 61.8912 1.97869 65.3912C0.478027 66.3912 0.478625 70.8912 1.47869 72.3912L5.47869 72.8912V74.3912L1.47869 76.3912V78.3912C5.47869 79.3912 13.9787 81.3912 21.9787 80.8912V79.3912H39.4787C38.812 70.8912 40.4787 60.3912 49.4787 53.3912C46.9787 49.3912 39.9787 44.8912 36.9787 44.3912C26.9787 43.3912 11.9787 45.8912 9.97869 47.8912Z" fill="#EFC7D3" stroke="black" stroke-width="0.5"/>
<path d="M92.9795 35.3914C75.1462 36.2247 43.4795 41.0914 32.9795 44.0914L36.9795 44.3914C41.9795 45.8914 47.4795 50.2247 49.4795 53.3914C62.4785 43.8914 87.9785 50.8914 86.4785 78.3914H96.4785C89.4785 67.3914 90.4785 45.3914 92.9795 35.3914Z" fill="#EFC7D3" stroke="black" stroke-width="0.5"/>
<path d="M9.97754 47.8914H3.97754C36.4777 28.3913 58.4778 34.3914 84.4775 29.8914L93.4778 35.3914C76.4778 36.3914 47.4775 39.8914 33.4775 44.0914C25.4775 43.8913 11.4775 45.8914 9.97754 47.8914Z" fill="#EFC7D3" stroke="black" stroke-width="0.5"/>
<path d="M36.9795 44.3914C29.4795 43.3914 12.4795 45.3914 9.97948 47.8914C9.17948 50.2914 12.3128 53.2247 13.9795 54.3914C23.4795 55.8914 36.9795 49.8914 36.9795 44.3914Z" fill="#EFC7D3" stroke="black" stroke-width="0.5"/>
<path d="M3.97872 47.8914C10.9787 48.8914 4.97872 59.3914 1.97872 64.3914C1.47865 57.3914 1.97852 51.8914 3.97872 47.8914Z" fill="#EFC7D3" stroke="black" stroke-width="0.5"/>
<path d="M21.978 83.8914V79.3914H39.478L39.978 83.8914H21.978Z" fill="#EFC7D3" stroke="black" stroke-width="0.5"/>
<path d="M2.47949 65.3911C3.97949 67.8911 5.97949 71.0578 5.47949 72.8911M21.9795 79.3911C11.4795 79.8911 6.97949 75.8911 7.97949 72.3911C8.47949 71.8911 9.97949 70.3911 10.9795 70.3911" stroke="black" stroke-width="0.5"/>
<path d="M31.9795 74.3912C29.4795 70.3912 23.9795 65.3913 20.9795 63.8913C19.2294 63.3913 16.6044 63.5163 13.8543 63.8913C12.2294 65.2246 10.9795 68.3912 11.4795 71.3912C11.4795 72.5579 12.7869 74.8912 15.4795 74.8912C19.9795 74.8912 26.9795 75.3912 31.9795 74.3912Z" fill="#EFC7D3"/>
<path d="M5.97949 65.3913C8.22943 64.8913 11.1043 64.2663 13.8543 63.8913M13.8543 63.8913C16.6044 63.5163 19.2294 63.3913 20.9795 63.8913C23.9795 65.3913 29.4795 70.3912 31.9795 74.3912C26.9795 75.3912 19.9795 74.8912 15.4795 74.8912C12.7869 74.8912 11.4795 72.5579 11.4795 71.3912C10.9795 68.3912 12.2293 65.2246 13.8543 63.8913Z" stroke="black" stroke-width="0.5"/>
<path d="M11.4795 70.8913C19.4795 69.3914 22.9795 72.0198 25.9795 73.5198M12.9795 73.8914L30.4795 73.3914" stroke="black" stroke-width="0.5"/>
<path d="M21.9775 82.3911H31.4775C33.4775 82.3911 34.9775 80.3911 34.4775 79.3911M37.9775 79.3911V83.8911" stroke="black" stroke-width="0.5"/>
<path d="M21.9794 80.8916C17.4794 80.8916 12.9794 81.3916 1.47944 78.3916V76.3916L5.47944 74.3916V72.8916L1.47944 72.3916C0.978516 70.8914 -0.0212885 67.8914 1.97871 65.3914C1.47895 57.3914 1.97895 50.8914 3.97944 47.8911C36.4794 28.3915 58.4794 34.3915 84.4794 29.8915C162.479 -25.1086 244.479 11.8913 281.479 26.3915L294.979 28.3914L295.479 35.3914V38.3914C296.978 43.3914 298.313 47.8914 296.979 49.8914C299.479 50.8914 301.979 54.058 301.979 55.8914L299.979 65.8914C300.431 76.7393 298.023 76.9635 288.692 77.276C287.701 77.3092 285.632 77.3434 284.479 77.3914V78.8914L259.479 79.3224M21.9794 80.8916V83.8916H39.9778L39.4794 79.3916M21.9794 80.8916V79.3916H39.4794M39.4794 79.3916C36.4794 37.8916 89.9794 40.8916 86.4794 79.8916V82.3914H212.979C206.979 38.8914 261.479 38.8914 259.479 79.3224M258.978 79.3224H259.479" stroke="black"/>
</svg>
