<svg width="303" height="96" viewBox="0 0 303 96" fill="none" xmlns="http://www.w3.org/2000/svg">
<circle cx="62.4473" cy="74.0303" r="20.5" fill="#E0426F" stroke="black"/>
<circle cx="235.447" cy="74.0303" r="20.5" fill="#E0426F" stroke="black"/>
<path d="M132.445 12.5301L130.945 9.03013C170.945 1.03024 192.445 1.53027 231.445 13.0302L227.945 17.5302C207.945 9.53018 189.945 8.53018 173.945 8.03025C171.445 7.53025 167.445 7.53021 164.945 8.03013C154.945 8.03025 142.945 9.53025 132.445 12.5301Z" fill="#EDADBF" stroke="black" stroke-width="0.5"/>
<path d="M130.945 9.03032L130.445 7.53032C166.445 -3.46973 198.945 0.530148 234.445 9.53032L231.445 13.0303C191.445 0.530273 165.445 2.03027 130.945 9.03032Z" fill="#EDADBF" stroke="black" stroke-width="0.5"/>
<path d="M130.945 9.03038C182.445 -2.46964 210.945 7.5304 231.445 13.0304" stroke="black" stroke-width="0.5"/>
<path d="M170.447 30.0303L173.947 8.03027C207.447 9.03027 218.947 14.5303 223.447 16.0303L225.93 28.0303C198.94 28.0309 181.445 29.5304 170.447 30.0303Z" fill="#EDADBF"/>
<path d="M226.447 30.5303L223.447 16.0303C218.947 14.5303 207.447 9.03027 173.947 8.03027L170.447 30.0303C181.447 29.5303 198.947 28.0303 225.947 28.0303" stroke="black" stroke-width="0.5"/>
<path d="M164.947 8.03027C131.947 9.03027 111.947 18.0303 92.9473 35.5303L95.4473 33.5303L159.447 30.5303L164.947 8.03027Z" fill="#EDADBF" stroke="black" stroke-width="0.5"/>
<path d="M239.445 22.5303C235.779 19.8636 229.945 17.5303 223.445 16.0303L225.945 28.0303H232.445C235.445 26.5303 238.445 24.299 239.445 22.5303Z" fill="#EDADBF" stroke="black" stroke-width="0.5"/>
<path d="M96.4473 78.5303H163.447L197.947 77.0303H212.447L212.947 82.5303H198.947H97.9473H86.4473V78.5303H96.4473Z" fill="#EDADBF"/>
<path d="M96.4473 78.5303H163.447L197.947 77.0303M96.4473 78.5303C96.4473 80.0303 96.9473 81.0303 97.9473 82.5303M96.4473 78.5303H86.4473V82.5303H97.9473M197.947 77.0303L198.947 82.5303M197.947 77.0303H212.447L212.947 82.5303H198.947M198.947 82.5303H97.9473" stroke="black" stroke-width="0.5"/>
<path d="M96.4464 78.5303C91.9473 74.0303 88.9473 52.0303 92.9464 35.5303L164.947 31.5303C160.947 36.5303 159.947 70.5303 163.447 78.5303H96.4464Z" fill="#EDADBF" stroke="black" stroke-width="0.5"/>
<path d="M228.447 30.5303L164.947 31.5303C160.947 36.5303 159.948 70.5303 163.447 78.5303L197.947 77.0303C202.447 75.5303 208.947 70.0303 228.447 30.5303Z" fill="#EDADBF" stroke="black" stroke-width="0.5"/>
<path d="M170.447 30.0303C165.947 30.5303 162.447 30.5303 159.447 30.5303L164.947 8.03035C167.947 7.53027 170.947 7.53027 173.947 8.03035L170.447 30.0303Z" fill="#EDADBF" stroke="black" stroke-width="0.5"/>
<path d="M98.9473 32.0305C103.447 37.5305 110.447 34.0305 114.447 32.5305C115.447 17.0304 102.447 25.0304 98.9473 32.0305Z" fill="#EDADBF" stroke="black" stroke-width="0.5"/>
<path d="M234.445 9.53027L231.445 13.0303C248.445 18.5303 258.945 21.5303 271.445 28.0303H272.945L280.945 26.5303C265.945 20.0303 258.445 17.5303 234.445 9.53027Z" fill="#E0426F" stroke="black" stroke-width="0.5"/>
<path d="M271.445 28.0303C260.945 22.5303 241.945 16.0303 231.445 13.0303L229.445 15.5303L244.445 23.0303C242.945 25.5303 238.945 27.5303 232.945 30.2303C244.945 29.5303 261.945 28.5303 271.445 28.0303Z" fill="#E0426F" stroke="black" stroke-width="0.5"/>
<path d="M276.947 34.3303L282.946 32.0303L272.446 28.0303L228.446 30.5303C220.946 45.5303 205.946 76.0303 197.946 77.0303H212.446C210.946 66.0303 220.446 42.5303 245.447 51.5303C255.947 46.0303 265.947 40.5303 276.947 34.3303Z" fill="#E0426F" stroke="black" stroke-width="0.5"/>
<path d="M277.945 34.0303C265.945 40.5303 255.945 46.0303 245.445 51.5303C249.945 54.5303 260.445 60.5303 259.445 79.5303L284.445 79.0303V77.5303C292.945 76.5303 301.445 80.0303 299.945 66.0303L301.945 56.0303C301.945 54.5303 299.445 50.5303 296.945 50.0303C298.445 47.5303 295.445 38.5303 295.445 38.5303V37.0303L291.445 34.0303L286.445 32.5303L282.945 32.0303L277.945 34.0303Z" fill="#E0426F" stroke="black" stroke-width="0.5"/>
<path d="M280.945 26.5303L272.445 28.0303L282.945 32.0303C292.445 33.0303 291.444 34.5303 295.439 36.9505L294.945 28.5303L280.945 26.5303Z" fill="#E0426F"/>
<path d="M295.445 37.0303L295.439 36.9505M295.439 36.9505L294.945 28.5303L280.945 26.5303L272.445 28.0303L282.945 32.0303C292.445 33.0303 291.444 34.5303 295.439 36.9505Z" stroke="black" stroke-width="0.5"/>
<path d="M293.947 36.5305C293.447 34.0304 282.447 33.8303 276.947 34.3303" stroke="black" stroke-width="0.5"/>
<path d="M299.947 66.5303L260.447 68.5303C259.947 63.5303 257.781 59.3636 255.947 57.5303L301.947 55.0303M300.447 52.5303C289.447 51.0303 278.447 46.2303 266.447 40.2303M228.447 30.5303L272.447 28.0303L280.947 26.5303" stroke="black" stroke-width="0.5"/>
<path d="M290.447 40.5303C290.447 38.5303 289.447 34.5303 285.947 32.5303C288.168 32.5303 291.545 33.5707 294.056 35.9403C294.52 37.4703 293.447 41.0303 290.405 42.5303C290.392 41.94 290.447 41.2546 290.447 40.5303Z" fill="#E0426F"/>
<path d="M272.447 43.0303C279.443 43.3801 285.46 43.4851 290.84 44.0303M297.447 45.0303C295.344 44.5796 293.151 44.2644 290.84 44.0303M295.447 37.5303C295.029 36.9451 294.56 36.4159 294.056 35.9403M290.84 44.0303C290.514 43.6855 290.42 43.1625 290.405 42.5303M290.405 42.5303C290.392 41.94 290.447 41.2546 290.447 40.5303C290.447 38.5303 289.447 34.5303 285.947 32.5303C288.168 32.5303 291.545 33.5707 294.056 35.9403M290.405 42.5303C293.447 41.0303 294.52 37.4703 294.056 35.9403" stroke="black" stroke-width="0.5"/>
<path d="M290.447 40.5303C285.947 40.5303 283.947 36.5303 282.947 34.0303" stroke="black" stroke-width="0.5"/>
<path d="M132.445 12.6302C118.945 16.6302 106.945 22.5303 92.9453 35.5303C99.9453 23.5303 115.445 14.0303 130.945 9.03027L132.445 12.6302Z" fill="#EFC7D3" stroke="black" stroke-width="0.5"/>
<path d="M130.945 9.03027C110.945 14.7043 92.9453 32.0303 84.9453 30.0303C97.9453 20.5303 113.945 12.0303 130.445 7.53027L130.945 9.03027Z" fill="#EFC7D3" stroke="black" stroke-width="0.5"/>
<path d="M9.94598 48.0302H3.94598C1.44531 52.0302 1.44531 62.0302 1.94598 65.5302C0.445312 66.5302 0.44591 71.0302 1.44598 72.5302L5.44598 73.0302V74.5302L1.44598 76.5302V78.5302C5.44598 79.5302 13.946 81.5302 21.946 81.0302V79.5302H39.446C38.7793 71.0302 40.446 60.5302 49.446 53.5302C46.946 49.5302 39.946 45.0302 36.946 44.5302C26.946 43.5302 11.946 46.0302 9.94598 48.0302Z" fill="#EFC7D3" stroke="black" stroke-width="0.5"/>
<path d="M92.9473 35.5303C75.1139 36.3636 43.4473 41.2303 32.9473 44.2303L36.9473 44.5303C41.9473 46.0303 47.4473 50.3636 49.4473 53.5303C62.4463 44.0303 87.9463 51.0303 86.4463 78.5303H96.4463C89.4463 67.5303 90.4463 45.5303 92.9473 35.5303Z" fill="#EFC7D3" stroke="black" stroke-width="0.5"/>
<path d="M9.94531 48.0303H3.94531C36.4455 28.5302 58.4456 34.5303 84.4453 30.0303L93.4456 35.5303C76.4456 36.5303 47.4453 40.0303 33.4453 44.2303C25.4453 44.0303 11.4453 46.0303 9.94531 48.0303Z" fill="#EFC7D3" stroke="black" stroke-width="0.5"/>
<path d="M36.9468 44.5303C29.4468 43.5303 12.4468 45.5303 9.94677 48.0303C9.14677 50.4303 12.2801 53.3636 13.9468 54.5303C23.4468 56.0303 36.9468 50.0303 36.9468 44.5303Z" fill="#EFC7D3" stroke="black" stroke-width="0.5"/>
<path d="M3.94601 48.0303C10.946 49.0303 4.94601 59.5303 1.94601 64.5303C1.44594 57.5303 1.9458 52.0303 3.94601 48.0303Z" fill="#EFC7D3" stroke="black" stroke-width="0.5"/>
<path d="M21.9453 84.0303V79.5303H39.4453L39.9453 84.0303H21.9453Z" fill="#EFC7D3" stroke="black" stroke-width="0.5"/>
<path d="M2.44727 65.5303C3.94727 68.0303 5.94727 71.1969 5.44727 73.0303M21.9473 79.5303C11.4473 80.0303 6.94727 76.0303 7.94727 72.5303C8.44727 72.0303 9.94727 70.5303 10.9473 70.5303" stroke="black" stroke-width="0.5"/>
<path d="M31.9473 74.5304C29.4473 70.5304 23.9473 65.5305 20.9473 64.0305C19.1972 63.5305 16.5721 63.6555 13.8221 64.0305C12.1971 65.3638 10.9473 68.5304 11.4473 71.5304C11.4473 72.6971 12.7547 75.0304 15.4473 75.0304C19.9473 75.0304 26.9473 75.5304 31.9473 74.5304Z" fill="#EFC7D3"/>
<path d="M5.94727 65.5305C8.19721 65.0304 11.0721 64.4055 13.8221 64.0305M13.8221 64.0305C16.5721 63.6555 19.1972 63.5305 20.9473 64.0305C23.9473 65.5305 29.4473 70.5304 31.9473 74.5304C26.9473 75.5304 19.9473 75.0304 15.4473 75.0304C12.7547 75.0304 11.4473 72.6971 11.4473 71.5304C10.9473 68.5304 12.1971 65.3638 13.8221 64.0305Z" stroke="black" stroke-width="0.5"/>
<path d="M11.4473 71.0305C19.4473 69.5305 22.9473 72.159 25.9473 73.659M12.9473 74.0305L30.4473 73.5305" stroke="black" stroke-width="0.5"/>
<path d="M21.9453 82.5303H31.4453C33.4453 82.5303 34.9453 80.5303 34.4453 79.5303M37.9453 79.5303V84.0303" stroke="black" stroke-width="0.5"/>
<path d="M21.9472 81.0305C17.4472 81.0305 12.9472 81.5305 1.44721 78.5305V76.5305L5.44721 74.5305V73.0305L1.44721 72.5305C0.946289 71.0303 -0.0535151 68.0303 1.94648 65.5303C1.44672 57.5303 1.94672 51.0303 3.94721 48.03C36.4472 28.5304 58.4472 34.5305 84.4472 30.0305C162.447 -24.9697 244.447 12.0303 281.447 26.5305L294.947 28.5303L295.447 35.5303V38.5303C296.946 43.5303 298.281 48.0303 296.947 50.0303C299.447 51.0303 301.947 54.1969 301.947 56.0303L299.947 66.0303C300.399 76.8782 297.991 77.1025 288.66 77.4149C287.668 77.4481 285.599 77.4823 284.447 77.5303V79.0303L259.447 79.4613M21.9472 81.0305V84.0305H39.9456L39.4472 79.5305M21.9472 81.0305V79.5305H39.4472M39.4472 79.5305C36.4472 38.0305 89.9472 41.0305 86.4472 80.0305V82.5303H212.947C206.947 39.0303 261.447 39.0303 259.447 79.4613M258.946 79.4613H259.447" stroke="black"/>
</svg>
