<svg width="304" height="96" viewBox="0 0 304 96" fill="none" xmlns="http://www.w3.org/2000/svg">
<circle cx="63.0518" cy="74.1995" r="20.5" fill="#EDADBF" stroke="black"/>
<circle cx="236.052" cy="74.1995" r="20.5" fill="#EDADBF" stroke="black"/>
<path d="M133.05 12.6993L131.55 9.19932C171.55 1.19943 193.05 1.69946 232.05 13.1994L228.55 17.6994C208.55 9.69937 190.55 8.69937 174.55 8.19944C172.05 7.69944 168.05 7.6994 165.55 8.19932C155.55 8.19944 143.55 9.69944 133.05 12.6993Z" fill="#EDADBF" stroke="black" stroke-width="0.5"/>
<path d="M131.55 9.19951L131.05 7.69951C167.05 -3.30054 199.55 0.699337 235.05 9.69951L232.05 13.1995C192.05 0.699463 166.05 2.19946 131.55 9.19951Z" fill="#EDADBF" stroke="black" stroke-width="0.5"/>
<path d="M131.55 9.19933C183.05 -2.3007 211.55 7.69934 232.05 13.1993" stroke="black" stroke-width="0.5"/>
<path d="M171.052 30.1995L174.552 8.19946C208.052 9.19946 219.552 14.6995 224.052 16.1995L226.535 28.1995C199.544 28.2001 182.049 29.6996 171.052 30.1995Z" fill="#EDADBF"/>
<path d="M227.052 30.6995L224.052 16.1995C219.552 14.6995 208.052 9.19946 174.552 8.19946L171.052 30.1995C182.052 29.6995 199.552 28.1995 226.552 28.1995" stroke="black" stroke-width="0.5"/>
<path d="M165.552 8.19946C132.552 9.19946 112.552 18.1995 93.5518 35.6995L96.0518 33.6995L160.052 30.6995L165.552 8.19946Z" fill="#EDADBF" stroke="black" stroke-width="0.5"/>
<path d="M240.05 22.6995C236.383 20.0328 230.55 17.6995 224.05 16.1995L226.55 28.1995H233.05C236.05 26.6995 239.05 24.4682 240.05 22.6995Z" fill="#EDADBF" stroke="black" stroke-width="0.5"/>
<path d="M97.0518 78.6995H164.052L198.552 77.1995H213.052L213.552 82.6995H199.552H98.5518H87.0518V78.6995H97.0518Z" fill="#EDADBF"/>
<path d="M97.0518 78.6995H164.052L198.552 77.1995M97.0518 78.6995C97.0518 80.1995 97.5518 81.1995 98.5518 82.6995M97.0518 78.6995H87.0518V82.6995H98.5518M198.552 77.1995L199.552 82.6995M198.552 77.1995H213.052L213.552 82.6995H199.552M199.552 82.6995H98.5518" stroke="black" stroke-width="0.5"/>
<path d="M97.0509 78.6995C92.5518 74.1995 89.5518 52.1995 93.5509 35.6995L165.552 31.6995C161.552 36.6995 160.552 70.6995 164.052 78.6995H97.0509Z" fill="#EDADBF" stroke="black" stroke-width="0.5"/>
<path d="M229.052 30.6995L165.552 31.6995C161.552 36.6995 160.552 70.6995 164.052 78.6995L198.552 77.1995C203.052 75.6995 209.552 70.1995 229.052 30.6995Z" fill="#EDADBF" stroke="black" stroke-width="0.5"/>
<path d="M171.052 30.1995C166.552 30.6995 163.052 30.6995 160.052 30.6995L165.552 8.19954C168.552 7.69946 171.552 7.69946 174.552 8.19954L171.052 30.1995Z" fill="#EDADBF" stroke="black" stroke-width="0.5"/>
<path d="M99.5518 32.1995C104.052 37.6995 111.052 34.1995 115.052 32.6995C116.052 17.1994 103.052 25.1993 99.5518 32.1995Z" fill="#EDADBF" stroke="black" stroke-width="0.5"/>
<path d="M235.05 9.69946L232.05 13.1995C249.05 18.6995 259.55 21.6995 272.05 28.1995H273.55L281.55 26.6995C266.55 20.1995 259.05 17.6995 235.05 9.69946Z" fill="#E0426F" stroke="black" stroke-width="0.5"/>
<path d="M272.05 28.1995C261.55 22.6995 242.55 16.1995 232.05 13.1995L230.05 15.6995L245.05 23.1995C243.55 25.6995 239.55 27.6995 233.55 30.3995C245.55 29.6995 262.55 28.6995 272.05 28.1995Z" fill="#E0426F" stroke="black" stroke-width="0.5"/>
<path d="M277.552 34.4995L283.55 32.1995L273.051 28.1995L229.051 30.6995C221.551 45.6995 206.551 76.1995 198.551 77.1995H213.051C211.551 66.1995 221.051 42.6995 246.052 51.6995C256.552 46.1995 266.552 40.6995 277.552 34.4995Z" fill="#E0426F" stroke="black" stroke-width="0.5"/>
<path d="M278.55 34.1995C266.55 40.6995 256.55 46.1995 246.05 51.6995C250.55 54.6995 261.05 60.6995 260.05 79.6995L285.05 79.1995V77.6995C293.55 76.6995 302.05 80.1995 300.55 66.1995L302.55 56.1995C302.55 54.6995 300.05 50.6995 297.55 50.1995C299.05 47.6995 296.05 38.6995 296.05 38.6995V37.1995L292.05 34.1995L287.05 32.6995L283.55 32.1995L278.55 34.1995Z" fill="#E0426F" stroke="black" stroke-width="0.5"/>
<path d="M281.55 26.6995L273.05 28.1995L283.55 32.1995C293.05 33.1995 292.049 34.6995 296.044 37.1196L295.55 28.6995L281.55 26.6995Z" fill="#E0426F"/>
<path d="M296.05 37.1995L296.044 37.1196M296.044 37.1196L295.55 28.6995L281.55 26.6995L273.05 28.1995L283.55 32.1995C293.05 33.1995 292.049 34.6995 296.044 37.1196Z" stroke="black" stroke-width="0.5"/>
<path d="M294.552 36.6997C294.052 34.1996 283.052 33.9995 277.552 34.4995" stroke="black" stroke-width="0.5"/>
<path d="M300.552 66.6995L261.052 68.6995C260.552 63.6995 258.385 59.5328 256.552 57.6995L302.552 55.1995M301.052 52.6995C290.052 51.1995 279.052 46.3995 267.052 40.3995M229.052 30.6995L273.052 28.1995L281.552 26.6995" stroke="black" stroke-width="0.5"/>
<path d="M291.052 40.6995C291.052 38.6995 290.052 34.6995 286.552 32.6995C288.773 32.6995 292.149 33.7399 294.661 36.1094C295.124 37.6395 294.052 41.1995 291.01 42.6995C290.996 42.1092 291.052 41.4238 291.052 40.6995Z" fill="#E0426F"/>
<path d="M273.052 43.1995C280.047 43.5492 286.064 43.6543 291.445 44.1995M298.052 45.1995C295.949 44.7488 293.756 44.4336 291.445 44.1995M296.052 37.6995C295.634 37.1143 295.165 36.5851 294.661 36.1094M291.445 44.1995C291.119 43.8547 291.025 43.3317 291.01 42.6995M291.01 42.6995C290.996 42.1092 291.052 41.4238 291.052 40.6995C291.052 38.6995 290.052 34.6995 286.552 32.6995C288.773 32.6995 292.149 33.7399 294.661 36.1094M291.01 42.6995C294.052 41.1995 295.124 37.6395 294.661 36.1094" stroke="black" stroke-width="0.5"/>
<path d="M291.052 40.6995C286.552 40.6995 284.552 36.6995 283.552 34.1995" stroke="black" stroke-width="0.5"/>
<path d="M133.05 12.7994C119.55 16.7994 107.55 22.6995 93.5498 35.6995C100.55 23.6995 116.05 14.1995 131.55 9.19946L133.05 12.7994Z" fill="#EDADBF" stroke="black" stroke-width="0.5"/>
<path d="M131.55 9.19946C111.55 14.8735 93.5498 32.1995 85.5498 30.1995C98.5498 20.6995 114.55 12.1995 131.05 7.69946L131.55 9.19946Z" fill="#EDADBF" stroke="black" stroke-width="0.5"/>
<path d="M10.5505 48.1993H4.55047C2.0498 52.1993 2.0498 62.1993 2.55047 65.6993C1.0498 66.6993 1.0504 71.1993 2.05047 72.6993L6.05047 73.1993V74.6993L2.05047 76.6993V78.6993C6.05047 79.6993 14.5505 81.6993 22.5505 81.1993V79.6993H40.0505C39.3838 71.1993 41.0505 60.6993 50.0505 53.6993C47.5505 49.6993 40.5505 45.1993 37.5505 44.6993C27.5505 43.6993 12.5505 46.1993 10.5505 48.1993Z" fill="#EDADBF" stroke="black" stroke-width="0.5"/>
<path d="M93.5518 35.6995C75.7184 36.5328 44.0518 41.3995 33.5518 44.3995L37.5518 44.6995C42.5518 46.1995 48.0518 50.5328 50.0518 53.6995C63.0508 44.1995 88.5508 51.1995 87.0508 78.6995H97.0508C90.0508 67.6995 91.0508 45.6995 93.5518 35.6995Z" fill="#EDADBF" stroke="black" stroke-width="0.5"/>
<path d="M10.5498 48.1995H4.5498C37.05 28.6994 59.05 34.6995 85.0498 30.1995L94.05 35.6995C77.05 36.6995 48.0498 40.1995 34.0498 44.3995C26.0498 44.1995 12.0498 46.1995 10.5498 48.1995Z" fill="#EDADBF" stroke="black" stroke-width="0.5"/>
<path d="M37.5513 44.6995C30.0513 43.6995 13.0513 45.6995 10.5513 48.1995C9.75126 50.5995 12.8846 53.5328 14.5513 54.6995C24.0513 56.1995 37.5513 50.1995 37.5513 44.6995Z" fill="#EDADBF" stroke="black" stroke-width="0.5"/>
<path d="M4.5505 48.1995C11.5505 49.1995 5.5505 59.6995 2.5505 64.6995C2.05043 57.6995 2.55029 52.1995 4.5505 48.1995Z" fill="#EDADBF" stroke="black" stroke-width="0.5"/>
<path d="M22.5498 84.1995V79.6995H40.0498L40.5498 84.1995H22.5498Z" fill="#EDADBF" stroke="black" stroke-width="0.5"/>
<path d="M3.05176 65.6992C4.55176 68.1992 6.55176 71.3659 6.05176 73.1992M22.5518 79.6992C12.0518 80.1992 7.55176 76.1992 8.55176 72.6992C9.05176 72.1992 10.5518 70.6992 11.5518 70.6992" stroke="black" stroke-width="0.5"/>
<path d="M32.5518 74.6993C30.0518 70.6993 24.5518 65.6994 21.5518 64.1994C19.8017 63.6994 17.1766 63.8244 14.4265 64.1994C12.8016 65.5327 11.5518 68.6993 12.0518 71.6993C12.0518 72.866 13.3592 75.1993 16.0518 75.1993C20.5518 75.1993 27.5518 75.6993 32.5518 74.6993Z" fill="#EDADBF"/>
<path d="M6.55176 65.6994C8.8017 65.1994 11.6766 64.5744 14.4265 64.1994M14.4265 64.1994C17.1766 63.8244 19.8017 63.6994 21.5518 64.1994C24.5518 65.6994 30.0518 70.6993 32.5518 74.6993C27.5518 75.6993 20.5518 75.1993 16.0518 75.1993C13.3592 75.1993 12.0518 72.866 12.0518 71.6993C11.5518 68.6993 12.8016 65.5327 14.4265 64.1994Z" stroke="black" stroke-width="0.5"/>
<path d="M12.0518 71.1994C20.0518 69.6995 23.5518 72.3279 26.5518 73.8279M13.5518 74.1995L31.0518 73.6995" stroke="black" stroke-width="0.5"/>
<path d="M22.5498 82.6992H32.0498C34.0498 82.6992 35.5498 80.6992 35.0498 79.6992M38.5498 79.6992V84.1992" stroke="black" stroke-width="0.5"/>
<path d="M22.5517 81.1997C18.0517 81.1997 13.5517 81.6997 2.0517 78.6997V76.6997L6.0517 74.6997V73.1997L2.0517 72.6997C1.55078 71.1995 0.550977 68.1995 2.55097 65.6995C2.05122 57.6995 2.55122 51.1995 4.5517 48.1992C37.0517 28.6996 59.0517 34.6997 85.0517 30.1997C163.052 -24.8005 245.052 12.1994 282.052 26.6996L295.552 28.6995L296.052 35.6995V38.6995C297.55 43.6995 298.885 48.1995 297.552 50.1995C300.052 51.1995 302.552 54.3661 302.552 56.1995L300.552 66.1995C301.004 77.0474 298.596 77.2717 289.264 77.5841C288.273 77.6173 286.204 77.6515 285.052 77.6995V79.1995L260.052 79.6305M22.5517 81.1997V84.1997H40.55L40.0517 79.6997M22.5517 81.1997V79.6997H40.0517M40.0517 79.6997C37.0517 38.1997 90.5517 41.1997 87.0517 80.1997V82.6995H213.552C207.552 39.1995 262.052 39.1995 260.052 79.6305M259.55 79.6305H260.052" stroke="black"/>
</svg>
