<svg width="303" height="96" viewBox="0 0 303 96" fill="none" xmlns="http://www.w3.org/2000/svg">
<circle cx="62.4795" cy="74.5076" r="20.5" fill="#E0426F" stroke="black"/>
<circle cx="235.479" cy="74.5076" r="20.5" fill="#E0426F" stroke="black"/>
<path d="M132.478 13.0074L130.978 9.50742C170.978 1.50754 192.478 2.00757 231.478 13.5075L227.978 18.0075C207.978 10.0075 189.978 9.00748 173.978 8.50755C171.478 8.00755 167.478 8.00751 164.978 8.50742C154.978 8.50755 142.978 10.0075 132.478 13.0074Z" stroke="black" stroke-width="0.5"/>
<path d="M130.978 9.50761L130.478 8.00761C166.478 -2.99243 198.978 1.00744 234.478 10.0076L231.478 13.5076C191.478 1.00757 165.478 2.50757 130.978 9.50761Z" stroke="black" stroke-width="0.5"/>
<path d="M130.978 9.50756C182.478 -1.99247 210.978 8.00757 231.478 13.5076" stroke="black" stroke-width="0.5"/>
<path d="M226.479 31.0076L223.479 16.5076C218.979 15.0076 207.479 9.50757 173.979 8.50757L170.479 30.5076C181.479 30.0076 198.979 28.5076 225.979 28.5076" stroke="black" stroke-width="0.5"/>
<path d="M164.979 8.50757C131.979 9.50757 111.979 18.5076 92.9795 36.0076L95.4795 34.0076L159.479 31.0076L164.979 8.50757Z" stroke="black" stroke-width="0.5"/>
<path d="M239.478 23.0076C235.811 20.3409 229.978 18.0076 223.478 16.5076L225.978 28.5076H232.478C235.478 27.0076 238.478 24.7763 239.478 23.0076Z" stroke="black" stroke-width="0.5"/>
<path d="M96.4795 79.0076H163.479L197.979 77.5076M96.4795 79.0076C96.4795 80.5076 96.9795 81.5076 97.9795 83.0076M96.4795 79.0076H86.4795V83.0076H97.9795M197.979 77.5076L198.979 83.0076M197.979 77.5076H212.479L212.979 83.0076H198.979M198.979 83.0076H97.9795" stroke="black" stroke-width="0.5"/>
<path d="M96.4786 79.0076C91.9795 74.5076 88.9795 52.5076 92.9786 36.0076L164.979 32.0076C160.979 37.0076 159.979 71.0076 163.479 79.0076H96.4786Z" stroke="black" stroke-width="0.5"/>
<path d="M228.479 31.0076L164.979 32.0076C160.98 37.0076 159.98 71.0076 163.479 79.0076L197.979 77.5076C202.479 76.0076 208.979 70.5076 228.479 31.0076Z" stroke="black" stroke-width="0.5"/>
<path d="M170.479 30.5076C165.979 31.0076 162.479 31.0076 159.479 31.0076L164.979 8.50764C167.979 8.00757 170.979 8.00757 173.979 8.50764L170.479 30.5076Z" stroke="black" stroke-width="0.5"/>
<path d="M98.9795 32.5077C103.479 38.0077 110.479 34.5077 114.479 33.0077C115.479 17.5076 102.479 25.5076 98.9795 32.5077Z" stroke="black" stroke-width="0.5"/>
<path d="M234.478 10.0076L231.478 13.5076C248.478 19.0076 258.978 22.0076 271.478 28.5076H272.978L280.978 27.0076C265.978 20.5076 258.478 18.0076 234.478 10.0076Z" fill="#EFC7D3" stroke="black" stroke-width="0.5"/>
<path d="M271.478 28.5076C260.978 23.0076 241.978 16.5076 231.478 13.5076L229.478 16.0076L244.478 23.5076C242.978 26.0076 238.978 28.0076 232.978 30.7076C244.978 30.0076 261.978 29.0076 271.478 28.5076Z" fill="#EFC7D3" stroke="black" stroke-width="0.5"/>
<path d="M276.979 34.8076L282.978 32.5076L272.479 28.5076L228.479 31.0076C220.979 46.0076 205.979 76.5076 197.979 77.5076H212.479C210.979 66.5076 220.479 43.0076 245.479 52.0076C255.979 46.5076 265.979 41.0076 276.979 34.8076Z" fill="#EFC7D3" stroke="black" stroke-width="0.5"/>
<path d="M277.978 34.5076C265.978 41.0076 255.978 46.5076 245.478 52.0076C249.978 55.0076 260.478 61.0076 259.478 80.0076L284.478 79.5076V78.0076C292.978 77.0076 301.478 80.5076 299.978 66.5076L301.978 56.5076C301.978 55.0076 299.478 51.0076 296.978 50.5076C298.478 48.0076 295.478 39.0076 295.478 39.0076V37.5076L291.478 34.5076L286.478 33.0076L282.978 32.5076L277.978 34.5076Z" fill="#EFC7D3" stroke="black" stroke-width="0.5"/>
<path d="M280.978 27.0076L272.478 28.5076L282.978 32.5076C292.478 33.5076 291.476 35.0076 295.472 37.4277L294.978 29.0076L280.978 27.0076Z" fill="#EFC7D3"/>
<path d="M295.478 37.5076L295.472 37.4277M295.472 37.4277L294.978 29.0076L280.978 27.0076L272.478 28.5076L282.978 32.5076C292.478 33.5076 291.476 35.0076 295.472 37.4277Z" stroke="black" stroke-width="0.5"/>
<path d="M293.979 37.0078C293.479 34.5077 282.479 34.3076 276.979 34.8076" stroke="black" stroke-width="0.5"/>
<path d="M299.979 67.0076L260.479 69.0076C259.979 64.0076 257.813 59.8409 255.979 58.0076L301.979 55.5076M300.479 53.0076C289.479 51.5076 278.479 46.7076 266.479 40.7076M228.479 31.0076L272.479 28.5076L280.979 27.0076" stroke="black" stroke-width="0.5"/>
<path d="M290.479 41.0076C290.479 39.0076 289.479 35.0076 285.979 33.0076C288.2 33.0076 291.577 34.048 294.088 36.4176C294.552 37.9476 293.479 41.5076 290.438 43.0076C290.424 42.4173 290.479 41.7319 290.479 41.0076Z" fill="#EFC7D3"/>
<path d="M272.479 43.5076C279.475 43.8574 285.492 43.9624 290.873 44.5076M297.479 45.5076C295.376 45.0569 293.183 44.7417 290.873 44.5076M295.479 38.0076C295.062 37.4224 294.592 36.8932 294.088 36.4176M290.873 44.5076C290.546 44.1628 290.452 43.6398 290.438 43.0076M290.438 43.0076C290.424 42.4173 290.479 41.7319 290.479 41.0076C290.479 39.0076 289.479 35.0076 285.979 33.0076C288.2 33.0076 291.577 34.048 294.088 36.4176M290.438 43.0076C293.479 41.5076 294.552 37.9476 294.088 36.4176" stroke="black" stroke-width="0.5"/>
<path d="M290.479 41.0076C285.979 41.0076 283.979 37.0076 282.979 34.5076" stroke="black" stroke-width="0.5"/>
<path d="M132.478 13.1075C118.978 17.1075 106.978 23.0076 92.978 36.0076C99.978 24.0076 115.478 14.5076 130.978 9.50757L132.478 13.1075Z" fill="#EDADBF" stroke="black" stroke-width="0.5"/>
<path d="M130.978 9.50757C110.978 15.1816 92.978 32.5076 84.978 30.5076C97.978 21.0076 113.978 12.5076 130.478 8.00757L130.978 9.50757Z" fill="#EDADBF" stroke="black" stroke-width="0.5"/>
<path d="M9.97869 48.5076H3.97869C1.47803 52.5076 1.47803 62.5076 1.97869 66.0076C0.478027 67.0076 0.478625 71.5076 1.47869 73.0076L5.47869 73.5076V75.0076L1.47869 77.0076V79.0076C5.47869 80.0076 13.9787 82.0076 21.9787 81.5076V80.0076H39.4787C38.812 71.5076 40.4787 61.0076 49.4787 54.0076C46.9787 50.0076 39.9787 45.5076 36.9787 45.0076C26.9787 44.0076 11.9787 46.5076 9.97869 48.5076Z" fill="#EDADBF" stroke="black" stroke-width="0.5"/>
<path d="M92.9795 36.0076C75.1462 36.8409 43.4795 41.7076 32.9795 44.7076L36.9795 45.0076C41.9795 46.5076 47.4795 50.8409 49.4795 54.0076C62.4785 44.5076 87.9785 51.5076 86.4785 79.0076H96.4785C89.4785 68.0076 90.4785 46.0076 92.9795 36.0076Z" fill="#EDADBF" stroke="black" stroke-width="0.5"/>
<path d="M9.97754 48.5076H3.97754C36.4777 29.0075 58.4778 35.0076 84.4775 30.5076L93.4778 36.0076C76.4778 37.0076 47.4775 40.5076 33.4775 44.7076C25.4775 44.5076 11.4775 46.5076 9.97754 48.5076Z" fill="#EDADBF" stroke="black" stroke-width="0.5"/>
<path d="M36.9795 45.0076C29.4795 44.0076 12.4795 46.0076 9.97948 48.5076C9.17948 50.9076 12.3128 53.8409 13.9795 55.0076C23.4795 56.5076 36.9795 50.5076 36.9795 45.0076Z" fill="#EDADBF" stroke="black" stroke-width="0.5"/>
<path d="M3.97872 48.5076C10.9787 49.5076 4.97872 60.0076 1.97872 65.0076C1.47865 58.0076 1.97852 52.5076 3.97872 48.5076Z" fill="#EDADBF" stroke="black" stroke-width="0.5"/>
<path d="M21.978 84.5076V80.0076H39.478L39.978 84.5076H21.978Z" fill="#EDADBF" stroke="black" stroke-width="0.5"/>
<path d="M2.47949 66.0076C3.97949 68.5076 5.97949 71.6742 5.47949 73.5076M21.9795 80.0076C11.4795 80.5076 6.97949 76.5076 7.97949 73.0076C8.47949 72.5076 9.97949 71.0076 10.9795 71.0076" stroke="black" stroke-width="0.5"/>
<path d="M31.9795 75.0076C29.4795 71.0076 23.9795 66.0076 20.9795 64.5076C19.2294 64.0076 16.6044 64.1326 13.8543 64.5076C12.2294 65.841 10.9795 69.0076 11.4795 72.0076C11.4795 73.1742 12.7869 75.5076 15.4795 75.5076C19.9795 75.5076 26.9795 76.0076 31.9795 75.0076Z" fill="#EDADBF"/>
<path d="M5.97949 66.0076C8.22943 65.5076 11.1043 64.8826 13.8543 64.5076M13.8543 64.5076C16.6044 64.1326 19.2294 64.0076 20.9795 64.5076C23.9795 66.0076 29.4795 71.0076 31.9795 75.0076C26.9795 76.0076 19.9795 75.5076 15.4795 75.5076C12.7869 75.5076 11.4795 73.1742 11.4795 72.0076C10.9795 69.0076 12.2293 65.841 13.8543 64.5076Z" stroke="black" stroke-width="0.5"/>
<path d="M11.4795 71.5076C19.4795 70.0077 22.9795 72.6362 25.9795 74.1362M12.9795 74.5077L30.4795 74.0077" stroke="black" stroke-width="0.5"/>
<path d="M21.9775 83.0076H31.4775C33.4775 83.0076 34.9775 81.0076 34.4775 80.0076M37.9775 80.0076V84.5076" stroke="black" stroke-width="0.5"/>
<path d="M21.9794 81.5078C17.4794 81.5078 12.9794 82.0078 1.47944 79.0078V77.0078L5.47944 75.0078V73.5078L1.47944 73.0078C0.978516 71.5076 -0.0212885 68.5076 1.97871 66.0076C1.47895 58.0076 1.97895 51.5076 3.97944 48.5073C36.4794 29.0077 58.4794 35.0078 84.4794 30.5078C162.479 -24.4924 244.479 12.5076 281.479 27.0077L294.979 29.0076L295.479 36.0076V39.0076C296.978 44.0076 298.313 48.5076 296.979 50.5076C299.479 51.5076 301.979 54.6742 301.979 56.5076L299.979 66.5076C300.431 77.3555 298.023 77.5798 288.692 77.8922C287.701 77.9254 285.632 77.9596 284.479 78.0076V79.5076L259.479 79.9386M21.9794 81.5078V84.5078H39.9778L39.4794 80.0078M21.9794 81.5078V80.0078H39.4794M39.4794 80.0078C36.4794 38.5078 89.9794 41.5078 86.4794 80.5078V83.0076H212.979C206.979 39.5076 261.479 39.5076 259.479 79.9386M258.978 79.9386H259.479" stroke="black"/>
</svg>
