<svg width="303" height="95" viewBox="0 0 303 95" fill="none" xmlns="http://www.w3.org/2000/svg">
<circle cx="62.8955" cy="73.6919" r="20.5" fill="#EFC7D3" stroke="black"/>
<circle cx="235.896" cy="73.6919" r="20.5" fill="#EFC7D3" stroke="black"/>
<path d="M132.894 12.1918L131.394 8.69175C171.394 0.691862 192.894 1.19189 231.894 12.6918L228.394 17.1918C208.394 9.1918 190.394 8.1918 174.394 7.69187C171.894 7.19187 167.894 7.19183 165.394 7.69175C155.394 7.69187 143.394 9.19187 132.894 12.1918Z" fill="#EFC7D3" stroke="black" stroke-width="0.5"/>
<path d="M131.394 8.69194L130.894 7.19194C166.894 -3.80811 199.394 0.191769 234.894 9.19194L231.894 12.6919C191.894 0.191895 165.894 1.69189 131.394 8.69194Z" fill="#EFC7D3" stroke="black" stroke-width="0.5"/>
<path d="M131.394 8.692C182.894 -2.80802 211.394 7.19202 231.894 12.692" stroke="black" stroke-width="0.5"/>
<path d="M170.896 29.6919L174.396 7.69189C207.896 8.69189 219.396 14.1919 223.896 15.6919L226.378 27.6919C199.388 27.6925 181.893 29.192 170.896 29.6919Z" fill="#EFC7D3"/>
<path d="M226.896 30.1919L223.896 15.6919C219.396 14.1919 207.896 8.69189 174.396 7.69189L170.896 29.6919C181.896 29.1919 199.396 27.6919 226.396 27.6919" stroke="black" stroke-width="0.5"/>
<path d="M165.396 7.69189C132.396 8.69189 112.396 17.6919 93.3955 35.1919L95.8955 33.1919L159.896 30.1919L165.396 7.69189Z" fill="#EFC7D3" stroke="black" stroke-width="0.5"/>
<path d="M239.894 22.1919C236.227 19.5252 230.394 17.1919 223.894 15.6919L226.394 27.6919H232.894C235.894 26.1919 238.894 23.9606 239.894 22.1919Z" fill="#EFC7D3" stroke="black" stroke-width="0.5"/>
<path d="M96.8955 78.1919H163.896L198.396 76.6919H212.896L213.396 82.1919H199.396H98.3955H86.8955V78.1919H96.8955Z" fill="#EFC7D3"/>
<path d="M96.8955 78.1919H163.896L198.396 76.6919M96.8955 78.1919C96.8955 79.6919 97.3955 80.6919 98.3955 82.1919M96.8955 78.1919H86.8955V82.1919H98.3955M198.396 76.6919L199.396 82.1919M198.396 76.6919H212.896L213.396 82.1919H199.396M199.396 82.1919H98.3955" stroke="black" stroke-width="0.5"/>
<path d="M96.8946 78.1919C92.3955 73.6919 89.3956 51.6919 93.3946 35.1919L165.396 31.1919C161.396 36.1919 160.396 70.1919 163.896 78.1919H96.8946Z" fill="#EFC7D3" stroke="black" stroke-width="0.5"/>
<path d="M228.895 30.1919L165.395 31.1919C161.396 36.1919 160.396 70.1919 163.895 78.1919L198.395 76.6919C202.895 75.1919 209.395 69.6919 228.895 30.1919Z" fill="#EFC7D3" stroke="black" stroke-width="0.5"/>
<path d="M170.896 29.692C166.396 30.192 162.896 30.192 159.896 30.192L165.396 7.69197C168.396 7.19189 171.396 7.19189 174.396 7.69197L170.896 29.692Z" fill="#EFC7D3" stroke="black" stroke-width="0.5"/>
<path d="M99.3955 31.6922C103.896 37.1922 110.896 33.6922 114.896 32.1922C115.896 16.692 102.896 24.692 99.3955 31.6922Z" fill="#EFC7D3" stroke="black" stroke-width="0.5"/>
<path d="M234.894 9.19189L231.894 12.6919C248.894 18.1919 259.394 21.1919 271.894 27.6919H273.394L281.394 26.1919C266.394 19.6919 258.894 17.1919 234.894 9.19189Z" stroke="black" stroke-width="0.5"/>
<path d="M271.894 27.6919C261.394 22.1919 242.394 15.6919 231.894 12.6919L229.894 15.1919L244.894 22.6919C243.394 25.1919 239.394 27.1919 233.394 29.8919C245.394 29.1919 262.394 28.1919 271.894 27.6919Z" stroke="black" stroke-width="0.5"/>
<path d="M277.396 33.9919L283.394 31.6919L272.895 27.6919L228.895 30.1919C221.395 45.1919 206.395 75.6919 198.395 76.6919H212.895C211.395 65.6919 220.895 42.1919 245.896 51.1919C256.396 45.6919 266.396 40.1919 277.396 33.9919Z" stroke="black" stroke-width="0.5"/>
<path d="M278.394 33.6919C266.394 40.1919 256.394 45.6919 245.894 51.1919C250.394 54.1919 260.894 60.1919 259.894 79.1919L284.894 78.6919V77.1919C293.394 76.1919 301.894 79.6919 300.394 65.6919L302.394 55.6919C302.394 54.1919 299.894 50.1919 297.394 49.6919C298.894 47.1919 295.894 38.1919 295.894 38.1919V36.6919L291.894 33.6919L286.894 32.1919L283.394 31.6919L278.394 33.6919Z" stroke="black" stroke-width="0.5"/>
<path d="M295.894 36.6919L295.888 36.6121M295.888 36.6121L295.394 28.1919L281.394 26.1919L272.894 27.6919L283.394 31.6919C292.894 32.6919 291.892 34.1919 295.888 36.6121Z" stroke="black" stroke-width="0.5"/>
<path d="M294.396 36.1921C293.896 33.692 282.896 33.4919 277.396 33.9919" stroke="black" stroke-width="0.5"/>
<path d="M300.396 66.1919L260.896 68.1919C260.396 63.1919 258.229 59.0252 256.396 57.1919L302.396 54.6919M300.896 52.1919C289.896 50.6919 278.896 45.8919 266.896 39.8919M228.896 30.1919L272.896 27.6919L281.396 26.1919" stroke="black" stroke-width="0.5"/>
<path d="M272.896 42.6919C279.891 43.0417 285.908 43.1468 291.289 43.6919M297.896 44.6919C295.793 44.2413 293.599 43.926 291.289 43.6919M295.896 37.1919C295.478 36.6068 295.008 36.0775 294.504 35.6019M291.289 43.6919C290.962 43.3471 290.868 42.8241 290.854 42.1919M290.854 42.1919C290.84 41.6016 290.896 40.9162 290.896 40.1919C290.896 38.1919 289.896 34.1919 286.396 32.1919C288.616 32.1919 291.993 33.2323 294.504 35.6019M290.854 42.1919C293.896 40.6919 294.968 37.1319 294.504 35.6019" stroke="black" stroke-width="0.5"/>
<path d="M290.896 40.1919C286.396 40.1919 284.396 36.1919 283.396 33.6919" stroke="black" stroke-width="0.5"/>
<path d="M132.894 12.2919C119.394 16.2919 107.394 22.1919 93.394 35.1919C100.394 23.1919 115.894 13.6919 131.394 8.69189L132.894 12.2919Z" fill="#E0426F" stroke="black" stroke-width="0.5"/>
<path d="M131.394 8.69189C111.394 14.3659 93.394 31.6919 85.394 29.6919C98.394 20.1919 114.394 11.6919 130.894 7.19189L131.394 8.69189Z" fill="#E0426F" stroke="black" stroke-width="0.5"/>
<path d="M10.3947 47.6918H4.39471C1.89404 51.6918 1.89404 61.6918 2.39471 65.1918C0.894043 66.1918 0.89464 70.6918 1.89471 72.1918L5.89471 72.6918V74.1918L1.89471 76.1918V78.1918C5.89471 79.1918 14.3947 81.1918 22.3947 80.6918V79.1918H39.8947C39.228 70.6918 40.8947 60.1918 49.8947 53.1918C47.3947 49.1918 40.3947 44.6918 37.3947 44.1918C27.3947 43.1918 12.3947 45.6918 10.3947 47.6918Z" fill="#E0426F" stroke="black" stroke-width="0.5"/>
<path d="M93.3955 35.1919C75.5622 36.0252 43.8955 40.8919 33.3955 43.8919L37.3955 44.1919C42.3955 45.6919 47.8955 50.0252 49.8955 53.1919C62.8945 43.6919 88.3945 50.6919 86.8945 78.1919H96.8945C89.8945 67.1919 90.8945 45.1919 93.3955 35.1919Z" fill="#E0426F" stroke="black" stroke-width="0.5"/>
<path d="M10.3936 47.6919H4.39355C36.8937 28.1918 58.8938 34.1919 84.8936 29.6919L93.8938 35.1919C76.8938 36.1919 47.8936 39.6919 33.8936 43.8919C25.8936 43.6919 11.8936 45.6919 10.3936 47.6919Z" fill="#E0426F" stroke="black" stroke-width="0.5"/>
<path d="M37.3955 44.192C29.8955 43.1919 12.8955 45.1919 10.3955 47.692C9.5955 50.0919 12.7288 53.0252 14.3955 54.1919C23.8955 55.6919 37.3955 49.6919 37.3955 44.192Z" fill="#E0426F" stroke="black" stroke-width="0.5"/>
<path d="M4.39474 47.6919C11.3947 48.6919 5.39474 59.1919 2.39474 64.1919C1.89467 57.1919 2.39453 51.6919 4.39474 47.6919Z" fill="#E0426F" stroke="black" stroke-width="0.5"/>
<path d="M22.394 83.6919V79.1919H39.894L40.394 83.6919H22.394Z" fill="#E0426F" stroke="black" stroke-width="0.5"/>
<path d="M2.89551 65.1919C4.39551 67.6919 6.39551 70.8586 5.89551 72.6919M22.3955 79.1919C11.8955 79.6919 7.39551 75.6919 8.39551 72.1919C8.89551 71.6919 10.3955 70.1919 11.3955 70.1919" stroke="black" stroke-width="0.5"/>
<path d="M32.3955 74.192C29.8955 70.192 24.3955 65.1921 21.3955 63.6921C19.6455 63.1921 17.0204 63.3171 14.2703 63.6921C12.6454 65.0254 11.3955 68.192 11.8955 71.192C11.8955 72.3587 13.2029 74.692 15.8955 74.692C20.3955 74.692 27.3955 75.192 32.3955 74.192Z" fill="#E0426F"/>
<path d="M6.39551 65.1921C8.64545 64.6921 11.5204 64.0671 14.2703 63.6921M14.2703 63.6921C17.0204 63.3171 19.6455 63.1921 21.3955 63.6921C24.3955 65.1921 29.8955 70.192 32.3955 74.192C27.3955 75.192 20.3955 74.692 15.8955 74.692C13.2029 74.692 11.8955 72.3587 11.8955 71.192C11.3955 68.192 12.6454 65.0254 14.2703 63.6921Z" stroke="black" stroke-width="0.5"/>
<path d="M11.8955 70.6921C19.8955 69.1921 23.3955 71.8206 26.3955 73.3206M13.3955 73.6921L30.8955 73.1921" stroke="black" stroke-width="0.5"/>
<path d="M22.3936 82.1919H31.8936C33.8936 82.1919 35.3936 80.1919 34.8936 79.1919M38.3936 79.1919V83.6919" stroke="black" stroke-width="0.5"/>
<path d="M22.3955 80.6921C17.8955 80.6921 13.3955 81.1921 1.89545 78.1921V76.1921L5.89545 74.1921V72.6921L1.89545 72.1921C1.39453 70.6919 0.394727 67.6919 2.39472 65.1919C1.89497 57.1919 2.39497 50.6919 4.39545 47.6916C36.8955 28.192 58.8954 34.1921 84.8954 29.6921C162.895 -25.308 244.895 11.6919 281.895 26.1921L295.395 28.1919L295.895 35.1919V38.1919C297.394 43.1919 298.729 47.6919 297.395 49.6919C299.895 50.6919 302.395 53.8586 302.395 55.6919L300.395 65.6919C300.847 76.5398 298.439 76.7641 289.108 77.0765C288.117 77.1097 286.048 77.1439 284.895 77.1919V78.6919L259.895 79.1229M22.3955 80.6921V83.6921H40.3938L39.8955 79.1921M22.3955 80.6921V79.1921H39.8955M39.8955 79.1921C36.8955 37.6921 90.3954 40.6921 86.8954 79.6921V82.1919H213.395C207.395 38.6919 261.895 38.6919 259.895 79.1229M259.394 79.1229H259.895" stroke="black"/>
</svg>
