<svg width="304" height="96" viewBox="0 0 304 96" fill="none" xmlns="http://www.w3.org/2000/svg">
<circle cx="63.0518" cy="74.1843" r="20.5" fill="#EDADBF" stroke="black"/>
<circle cx="236.052" cy="74.1843" r="20.5" fill="#EDADBF" stroke="black"/>
<path d="M133.05 12.6842L131.55 9.18418C171.55 1.18429 193.05 1.68433 232.05 13.1843L228.55 17.6843C208.55 9.68424 190.55 8.68423 174.55 8.1843C172.05 7.6843 168.05 7.68427 165.55 8.18418C155.55 8.1843 143.55 9.6843 133.05 12.6842Z" fill="#EFC7D3" stroke="black" stroke-width="0.5"/>
<path d="M131.55 9.18437L131.05 7.68437C167.05 -3.31567 199.55 0.6842 235.05 9.68437L232.05 13.1844C192.05 0.684326 166.05 2.18433 131.55 9.18437Z" fill="#EFC7D3" stroke="black" stroke-width="0.5"/>
<path d="M131.55 9.18431C183.05 -2.31571 211.55 7.68433 232.05 13.1843" stroke="black" stroke-width="0.5"/>
<path d="M171.052 30.1843L174.552 8.18433C208.052 9.18433 219.552 14.6843 224.052 16.1843L226.535 28.1843C199.544 28.185 182.049 29.6844 171.052 30.1843Z" fill="#EFC7D3"/>
<path d="M227.052 30.6843L224.052 16.1843C219.552 14.6843 208.052 9.18433 174.552 8.18433L171.052 30.1843C182.052 29.6843 199.552 28.1843 226.552 28.1843" stroke="black" stroke-width="0.5"/>
<path d="M165.552 8.18433C132.552 9.18433 112.552 18.1843 93.5518 35.6843L96.0518 33.6843L160.052 30.6843L165.552 8.18433Z" fill="#EFC7D3" stroke="black" stroke-width="0.5"/>
<path d="M240.05 22.6843C236.383 20.0177 230.55 17.6843 224.05 16.1843L226.55 28.1843H233.05C236.05 26.6843 239.05 24.4531 240.05 22.6843Z" fill="#EFC7D3" stroke="black" stroke-width="0.5"/>
<path d="M97.0518 78.6843H164.052L198.552 77.1843H213.052L213.552 82.6843H199.552H98.5518H87.0518V78.6843H97.0518Z" fill="#EFC7D3"/>
<path d="M97.0518 78.6843H164.052L198.552 77.1843M97.0518 78.6843C97.0518 80.1843 97.5518 81.1843 98.5518 82.6843M97.0518 78.6843H87.0518V82.6843H98.5518M198.552 77.1843L199.552 82.6843M198.552 77.1843H213.052L213.552 82.6843H199.552M199.552 82.6843H98.5518" stroke="black" stroke-width="0.5"/>
<path d="M97.0509 78.6843C92.5518 74.1843 89.5518 52.1843 93.5509 35.6843L165.552 31.6843C161.552 36.6843 160.552 70.6843 164.052 78.6843H97.0509Z" fill="#EFC7D3" stroke="black" stroke-width="0.5"/>
<path d="M229.052 30.6843L165.552 31.6843C161.552 36.6843 160.552 70.6843 164.052 78.6843L198.552 77.1843C203.052 75.6843 209.552 70.1843 229.052 30.6843Z" fill="#EFC7D3" stroke="black" stroke-width="0.5"/>
<path d="M171.052 30.1844C166.552 30.6844 163.052 30.6844 160.052 30.6844L165.552 8.1844C168.552 7.68433 171.552 7.68433 174.552 8.1844L171.052 30.1844Z" fill="#EFC7D3" stroke="black" stroke-width="0.5"/>
<path d="M99.5518 32.1845C104.052 37.6845 111.052 34.1845 115.052 32.6845C116.052 17.1843 103.052 25.1843 99.5518 32.1845Z" fill="#EFC7D3" stroke="black" stroke-width="0.5"/>
<path d="M235.05 9.68433L232.05 13.1843C249.05 18.6843 259.55 21.6843 272.05 28.1843H273.55L281.55 26.6843C266.55 20.1843 259.05 17.6843 235.05 9.68433Z" fill="#E0426F" stroke="black" stroke-width="0.5"/>
<path d="M272.05 28.1843C261.55 22.6843 242.55 16.1843 232.05 13.1843L230.05 15.6843L245.05 23.1843C243.55 25.6843 239.55 27.6843 233.55 30.3843C245.55 29.6843 262.55 28.6843 272.05 28.1843Z" fill="#E0426F" stroke="black" stroke-width="0.5"/>
<path d="M277.552 34.4843L283.55 32.1843L273.051 28.1843L229.051 30.6843C221.551 45.6843 206.551 76.1843 198.551 77.1843H213.051C211.551 66.1843 221.051 42.6843 246.052 51.6843C256.552 46.1843 266.552 40.6843 277.552 34.4843Z" fill="#E0426F" stroke="black" stroke-width="0.5"/>
<path d="M278.55 34.1844C266.55 40.6844 256.55 46.1844 246.05 51.6844C250.55 54.6843 261.05 60.6843 260.05 79.6843L285.05 79.1843V77.6843C293.55 76.6843 302.05 80.1843 300.55 66.1843L302.55 56.1843C302.55 54.6843 300.05 50.6843 297.55 50.1843C299.05 47.6843 296.05 38.6843 296.05 38.6843V37.1843L292.05 34.1843L287.05 32.6843L283.55 32.1843L278.55 34.1844Z" fill="#E0426F" stroke="black" stroke-width="0.5"/>
<path d="M281.55 26.6843L273.05 28.1843L283.55 32.1843C293.05 33.1843 292.049 34.6843 296.044 37.1045L295.55 28.6843L281.55 26.6843Z" fill="#E0426F"/>
<path d="M296.05 37.1843L296.044 37.1045M296.044 37.1045L295.55 28.6843L281.55 26.6843L273.05 28.1843L283.55 32.1843C293.05 33.1843 292.049 34.6843 296.044 37.1045Z" stroke="black" stroke-width="0.5"/>
<path d="M294.552 36.6845C294.052 34.1844 283.052 33.9843 277.552 34.4843" stroke="black" stroke-width="0.5"/>
<path d="M300.552 66.6843L261.052 68.6843C260.552 63.6843 258.385 59.5177 256.552 57.6843L302.552 55.1843M301.052 52.6843C290.052 51.1843 279.052 46.3843 267.052 40.3843M229.052 30.6843L273.052 28.1843L281.552 26.6843" stroke="black" stroke-width="0.5"/>
<path d="M291.052 40.6843C291.052 38.6843 290.052 34.6843 286.552 32.6843C288.773 32.6843 292.149 33.7247 294.661 36.0943C295.124 37.6243 294.052 41.1843 291.01 42.6843C290.996 42.094 291.052 41.4086 291.052 40.6843Z" fill="#E0426F"/>
<path d="M273.052 43.1843C280.047 43.5341 286.064 43.6392 291.445 44.1843M298.052 45.1843C295.949 44.7337 293.756 44.4184 291.445 44.1843M296.052 37.6843C295.634 37.0992 295.165 36.57 294.661 36.0943M291.445 44.1843C291.119 43.8396 291.025 43.3165 291.01 42.6843M291.01 42.6843C290.996 42.094 291.052 41.4086 291.052 40.6843C291.052 38.6843 290.052 34.6843 286.552 32.6843C288.773 32.6843 292.149 33.7247 294.661 36.0943M291.01 42.6843C294.052 41.1843 295.124 37.6243 294.661 36.0943" stroke="black" stroke-width="0.5"/>
<path d="M291.052 40.6843C286.552 40.6843 284.552 36.6843 283.552 34.1843" stroke="black" stroke-width="0.5"/>
<path d="M133.05 12.7843C119.55 16.7843 107.55 22.6843 93.5498 35.6843C100.55 23.6843 116.05 14.1843 131.55 9.18433L133.05 12.7843Z" fill="#EFC7D3" stroke="black" stroke-width="0.5"/>
<path d="M131.55 9.18433C111.55 14.8584 93.5498 32.1843 85.5498 30.1843C98.5498 20.6843 114.55 12.1843 131.05 7.68433L131.55 9.18433Z" fill="#EFC7D3" stroke="black" stroke-width="0.5"/>
<path d="M10.5505 48.1843H4.55047C2.0498 52.1843 2.0498 62.1843 2.55047 65.6843C1.0498 66.6843 1.0504 71.1843 2.05047 72.6843L6.05047 73.1843V74.6843L2.05047 76.6843V78.6843C6.05047 79.6843 14.5505 81.6843 22.5505 81.1843V79.6843H40.0505C39.3838 71.1843 41.0505 60.6843 50.0505 53.6843C47.5505 49.6843 40.5505 45.1843 37.5505 44.6843C27.5505 43.6843 12.5505 46.1843 10.5505 48.1843Z" fill="#EFC7D3" stroke="black" stroke-width="0.5"/>
<path d="M93.5518 35.6843C75.7184 36.5177 44.0518 41.3843 33.5518 44.3843L37.5518 44.6843C42.5518 46.1843 48.0518 50.5177 50.0518 53.6843C63.0508 44.1843 88.5508 51.1843 87.0508 78.6843H97.0508C90.0508 67.6843 91.0508 45.6843 93.5518 35.6843Z" fill="#EFC7D3" stroke="black" stroke-width="0.5"/>
<path d="M10.5498 48.1844H4.5498C37.05 28.6843 59.05 34.6843 85.0498 30.1843L94.05 35.6843C77.05 36.6843 48.0498 40.1843 34.0498 44.3843C26.0498 44.1843 12.0498 46.1843 10.5498 48.1844Z" fill="#EFC7D3" stroke="black" stroke-width="0.5"/>
<path d="M37.5513 44.6844C30.0513 43.6843 13.0513 45.6843 10.5513 48.1844C9.75126 50.5843 12.8846 53.5177 14.5513 54.6843C24.0513 56.1843 37.5513 50.1843 37.5513 44.6844Z" fill="#EFC7D3" stroke="black" stroke-width="0.5"/>
<path d="M4.5505 48.1843C11.5505 49.1843 5.5505 59.6843 2.5505 64.6843C2.05043 57.6843 2.55029 52.1843 4.5505 48.1843Z" fill="#EFC7D3" stroke="black" stroke-width="0.5"/>
<path d="M22.5498 84.1843V79.6843H40.0498L40.5498 84.1843H22.5498Z" fill="#EFC7D3" stroke="black" stroke-width="0.5"/>
<path d="M3.05176 65.6843C4.55176 68.1843 6.55176 71.351 6.05176 73.1843M22.5518 79.6843C12.0518 80.1843 7.55176 76.1843 8.55176 72.6843C9.05176 72.1843 10.5518 70.6843 11.5518 70.6843" stroke="black" stroke-width="0.5"/>
<path d="M32.5518 74.6843C30.0518 70.6843 24.5518 65.6844 21.5518 64.1844C19.8017 63.6844 17.1766 63.8094 14.4265 64.1844C12.8016 65.5177 11.5518 68.6843 12.0518 71.6843C12.0518 72.851 13.3592 75.1843 16.0518 75.1843C20.5518 75.1843 27.5518 75.6843 32.5518 74.6843Z" fill="#EFC7D3"/>
<path d="M6.55176 65.6844C8.8017 65.1844 11.6766 64.5594 14.4265 64.1844M14.4265 64.1844C17.1766 63.8094 19.8017 63.6844 21.5518 64.1844C24.5518 65.6844 30.0518 70.6843 32.5518 74.6843C27.5518 75.6843 20.5518 75.1843 16.0518 75.1843C13.3592 75.1843 12.0518 72.851 12.0518 71.6843C11.5518 68.6843 12.8016 65.5177 14.4265 64.1844Z" stroke="black" stroke-width="0.5"/>
<path d="M12.0518 71.1844C20.0518 69.6844 23.5518 72.3129 26.5518 73.8129M13.5518 74.1844L31.0518 73.6844" stroke="black" stroke-width="0.5"/>
<path d="M22.5498 82.6843H32.0498C34.0498 82.6843 35.5498 80.6843 35.0498 79.6843M38.5498 79.6843V84.1843" stroke="black" stroke-width="0.5"/>
<path d="M22.5517 81.1846C18.0517 81.1846 13.5517 81.6846 2.0517 78.6846V76.6846L6.0517 74.6846V73.1846L2.0517 72.6846C1.55078 71.1843 0.550977 68.1843 2.55097 65.6843C2.05122 57.6843 2.55122 51.1843 4.5517 48.1841C37.0517 28.6845 59.0517 34.6845 85.0517 30.1845C163.052 -24.8156 245.052 12.1843 282.052 26.6845L295.552 28.6843L296.052 35.6843V38.6843C297.55 43.6843 298.885 48.1843 297.552 50.1843C300.052 51.1843 302.552 54.351 302.552 56.1843L300.552 66.1843C301.004 77.0322 298.596 77.2565 289.264 77.569C288.273 77.6021 286.204 77.6363 285.052 77.6843V79.1843L260.052 79.6154M22.5517 81.1846V84.1846H40.55L40.0517 79.6846M22.5517 81.1846V79.6846H40.0517M40.0517 79.6846C37.0517 38.1846 90.5517 41.1846 87.0517 80.1846V82.6843H213.552C207.552 39.1843 262.052 39.1843 260.052 79.6154M259.55 79.6154H260.052" stroke="black"/>
</svg>
