<svg width="304" height="96" viewBox="0 0 304 96" fill="none" xmlns="http://www.w3.org/2000/svg">
<circle cx="63.0635" cy="74.1995" r="20.5" fill="#EDADBF" stroke="black"/>
<circle cx="236.063" cy="74.1995" r="20.5" fill="#EDADBF" stroke="black"/>
<path d="M133.062 12.6993L131.562 9.19932C171.562 1.19943 193.062 1.69946 232.062 13.1994L228.562 17.6994C208.562 9.69937 190.562 8.69937 174.562 8.19944C172.062 7.69944 168.062 7.6994 165.562 8.19932C155.562 8.19944 143.562 9.69944 133.062 12.6993Z" fill="#EDADBF" stroke="black" stroke-width="0.5"/>
<path d="M131.562 9.19951L131.062 7.69951C167.062 -3.30054 199.562 0.699337 235.062 9.69951L232.062 13.1995C192.062 0.699463 166.062 2.19946 131.562 9.19951Z" fill="#EDADBF" stroke="black" stroke-width="0.5"/>
<path d="M131.562 9.19933C183.062 -2.3007 211.562 7.69934 232.062 13.1993" stroke="black" stroke-width="0.5"/>
<path d="M171.063 30.1995L174.563 8.19946C208.063 9.19946 219.563 14.6995 224.063 16.1995L226.546 28.1995C199.556 28.2001 182.061 29.6996 171.063 30.1995Z" fill="#EDADBF"/>
<path d="M227.063 30.6995L224.063 16.1995C219.563 14.6995 208.063 9.19946 174.563 8.19946L171.063 30.1995C182.063 29.6995 199.563 28.1995 226.563 28.1995" stroke="black" stroke-width="0.5"/>
<path d="M165.563 8.19946C132.563 9.19946 112.563 18.1995 93.5635 35.6995L96.0635 33.6995L160.063 30.6995L165.563 8.19946Z" fill="#EDADBF" stroke="black" stroke-width="0.5"/>
<path d="M240.062 22.6995C236.395 20.0328 230.562 17.6995 224.062 16.1995L226.562 28.1995H233.062C236.062 26.6995 239.062 24.4682 240.062 22.6995Z" fill="#EDADBF" stroke="black" stroke-width="0.5"/>
<path d="M97.0635 78.6995H164.063L198.563 77.1995H213.063L213.563 82.6995H199.563H98.5635H87.0635V78.6995H97.0635Z" fill="#EDADBF"/>
<path d="M97.0635 78.6995H164.063L198.563 77.1995M97.0635 78.6995C97.0635 80.1995 97.5635 81.1995 98.5635 82.6995M97.0635 78.6995H87.0635V82.6995H98.5635M198.563 77.1995L199.563 82.6995M198.563 77.1995H213.063L213.563 82.6995H199.563M199.563 82.6995H98.5635" stroke="black" stroke-width="0.5"/>
<path d="M97.0626 78.6995C92.5635 74.1995 89.5635 52.1995 93.5626 35.6995L165.563 31.6995C161.563 36.6995 160.563 70.6995 164.063 78.6995H97.0626Z" fill="#EDADBF" stroke="black" stroke-width="0.5"/>
<path d="M229.063 30.6995L165.563 31.6995C161.564 36.6995 160.564 70.6995 164.063 78.6995L198.563 77.1995C203.063 75.6995 209.563 70.1995 229.063 30.6995Z" fill="#EDADBF" stroke="black" stroke-width="0.5"/>
<path d="M171.063 30.1995C166.563 30.6995 163.063 30.6995 160.063 30.6995L165.563 8.19954C168.563 7.69946 171.563 7.69946 174.563 8.19954L171.063 30.1995Z" fill="#EDADBF" stroke="black" stroke-width="0.5"/>
<path d="M99.5635 32.1995C104.063 37.6995 111.063 34.1995 115.063 32.6995C116.063 17.1994 103.063 25.1993 99.5635 32.1995Z" fill="#EDADBF" stroke="black" stroke-width="0.5"/>
<path d="M235.062 9.69946L232.062 13.1995C249.062 18.6995 259.562 21.6995 272.062 28.1995H273.562L281.562 26.6995C266.562 20.1995 259.062 17.6995 235.062 9.69946Z" fill="#E56E90" stroke="black" stroke-width="0.5"/>
<path d="M272.062 28.1995C261.562 22.6995 242.562 16.1995 232.062 13.1995L230.062 15.6995L245.062 23.1995C243.562 25.6995 239.562 27.6995 233.562 30.3995C245.562 29.6995 262.562 28.6995 272.062 28.1995Z" fill="#E56E90" stroke="black" stroke-width="0.5"/>
<path d="M277.563 34.4995L283.562 32.1995L273.062 28.1995L229.062 30.6995C221.562 45.6995 206.562 76.1995 198.562 77.1995H213.062C211.562 66.1995 221.062 42.6995 246.063 51.6995C256.563 46.1995 266.563 40.6995 277.563 34.4995Z" fill="#E56E90" stroke="black" stroke-width="0.5"/>
<path d="M278.562 34.1995C266.562 40.6995 256.562 46.1995 246.062 51.6995C250.562 54.6995 261.062 60.6995 260.062 79.6995L285.062 79.1995V77.6995C293.562 76.6995 302.062 80.1995 300.562 66.1995L302.562 56.1995C302.562 54.6995 300.062 50.6995 297.562 50.1995C299.062 47.6995 296.062 38.6995 296.062 38.6995V37.1995L292.062 34.1995L287.062 32.6995L283.562 32.1995L278.562 34.1995Z" fill="#E56E90" stroke="black" stroke-width="0.5"/>
<path d="M281.562 26.6995L273.062 28.1995L283.562 32.1995C293.062 33.1995 292.06 34.6995 296.056 37.1196L295.562 28.6995L281.562 26.6995Z" fill="#E56E90"/>
<path d="M296.062 37.1995L296.056 37.1196M296.056 37.1196L295.562 28.6995L281.562 26.6995L273.062 28.1995L283.562 32.1995C293.062 33.1995 292.06 34.6995 296.056 37.1196Z" stroke="black" stroke-width="0.5"/>
<path d="M294.563 36.6997C294.063 34.1996 283.063 33.9995 277.563 34.4995" stroke="black" stroke-width="0.5"/>
<path d="M300.563 66.6995L261.063 68.6995C260.563 63.6995 258.397 59.5328 256.563 57.6995L302.563 55.1995M301.063 52.6995C290.063 51.1995 279.063 46.3995 267.063 40.3995M229.063 30.6995L273.063 28.1995L281.563 26.6995" stroke="black" stroke-width="0.5"/>
<path d="M291.063 40.6995C291.063 38.6995 290.063 34.6995 286.563 32.6995C288.784 32.6995 292.161 33.7399 294.672 36.1094C295.136 37.6395 294.063 41.1995 291.022 42.6995C291.008 42.1092 291.063 41.4238 291.063 40.6995Z" fill="#E56E90"/>
<path d="M273.063 43.1995C280.059 43.5492 286.076 43.6543 291.457 44.1995M298.063 45.1995C295.96 44.7488 293.767 44.4336 291.457 44.1995M296.063 37.6995C295.646 37.1143 295.176 36.5851 294.672 36.1094M291.457 44.1995C291.13 43.8547 291.036 43.3317 291.022 42.6995M291.022 42.6995C291.008 42.1092 291.063 41.4238 291.063 40.6995C291.063 38.6995 290.063 34.6995 286.563 32.6995C288.784 32.6995 292.161 33.7399 294.672 36.1094M291.022 42.6995C294.063 41.1995 295.136 37.6395 294.672 36.1094" stroke="black" stroke-width="0.5"/>
<path d="M291.063 40.6995C286.563 40.6995 284.563 36.6995 283.563 34.1995" stroke="black" stroke-width="0.5"/>
<path d="M133.062 12.7994C119.562 16.7994 107.562 22.6995 93.5615 35.6995C100.562 23.6995 116.062 14.1995 131.562 9.19946L133.062 12.7994Z" fill="#EDADBF" stroke="black" stroke-width="0.5"/>
<path d="M131.562 9.19946C111.562 14.8735 93.5615 32.1995 85.5615 30.1995C98.5615 20.6995 114.562 12.1995 131.062 7.69946L131.562 9.19946Z" fill="#EDADBF" stroke="black" stroke-width="0.5"/>
<path d="M10.5622 48.1993H4.56219C2.06152 52.1993 2.06152 62.1993 2.56219 65.6993C1.06152 66.6993 1.06212 71.1993 2.06219 72.6993L6.06219 73.1993V74.6993L2.06219 76.6993V78.6993C6.06219 79.6993 14.5622 81.6993 22.5622 81.1993V79.6993H40.0622C39.3955 71.1993 41.0622 60.6993 50.0622 53.6993C47.5622 49.6993 40.5622 45.1993 37.5622 44.6993C27.5622 43.6993 12.5622 46.1993 10.5622 48.1993Z" fill="#EDADBF" stroke="black" stroke-width="0.5"/>
<path d="M93.5635 35.6995C75.7301 36.5328 44.0635 41.3995 33.5635 44.3995L37.5635 44.6995C42.5635 46.1995 48.0635 50.5328 50.0635 53.6995C63.0625 44.1995 88.5625 51.1995 87.0625 78.6995H97.0625C90.0625 67.6995 91.0625 45.6995 93.5635 35.6995Z" fill="#EDADBF" stroke="black" stroke-width="0.5"/>
<path d="M10.5615 48.1995H4.56152C37.0617 28.6994 59.0618 34.6995 85.0615 30.1995L94.0618 35.6995C77.0618 36.6995 48.0615 40.1995 34.0615 44.3995C26.0615 44.1995 12.0615 46.1995 10.5615 48.1995Z" fill="#EDADBF" stroke="black" stroke-width="0.5"/>
<path d="M37.563 44.6995C30.063 43.6995 13.063 45.6995 10.563 48.1995C9.76298 50.5995 12.8963 53.5328 14.563 54.6995C24.063 56.1995 37.563 50.1995 37.563 44.6995Z" fill="#EDADBF" stroke="black" stroke-width="0.5"/>
<path d="M4.56222 48.1995C11.5622 49.1995 5.56222 59.6995 2.56222 64.6995C2.06215 57.6995 2.56201 52.1995 4.56222 48.1995Z" fill="#EDADBF" stroke="black" stroke-width="0.5"/>
<path d="M22.5615 84.1995V79.6995H40.0615L40.5615 84.1995H22.5615Z" fill="#EDADBF" stroke="black" stroke-width="0.5"/>
<path d="M3.06348 65.6992C4.56348 68.1992 6.56348 71.3659 6.06348 73.1992M22.5635 79.6992C12.0635 80.1992 7.56348 76.1992 8.56348 72.6992C9.06348 72.1992 10.5635 70.6992 11.5635 70.6992" stroke="black" stroke-width="0.5"/>
<path d="M32.5635 74.6993C30.0635 70.6993 24.5635 65.6994 21.5635 64.1994C19.8134 63.6994 17.1883 63.8244 14.4383 64.1994C12.8133 65.5327 11.5635 68.6993 12.0635 71.6993C12.0635 72.866 13.3709 75.1993 16.0635 75.1993C20.5635 75.1993 27.5635 75.6993 32.5635 74.6993Z" fill="#EDADBF"/>
<path d="M6.56348 65.6994C8.81342 65.1994 11.6883 64.5744 14.4383 64.1994M14.4383 64.1994C17.1883 63.8244 19.8134 63.6994 21.5635 64.1994C24.5635 65.6994 30.0635 70.6993 32.5635 74.6993C27.5635 75.6993 20.5635 75.1993 16.0635 75.1993C13.3709 75.1993 12.0635 72.866 12.0635 71.6993C11.5635 68.6993 12.8133 65.5327 14.4383 64.1994Z" stroke="black" stroke-width="0.5"/>
<path d="M12.0635 71.1994C20.0635 69.6995 23.5635 72.3279 26.5635 73.8279M13.5635 74.1995L31.0635 73.6995" stroke="black" stroke-width="0.5"/>
<path d="M22.5615 82.6992H32.0615C34.0615 82.6992 35.5615 80.6992 35.0615 79.6992M38.5615 79.6992V84.1992" stroke="black" stroke-width="0.5"/>
<path d="M22.5634 81.1997C18.0634 81.1997 13.5634 81.6997 2.06342 78.6997V76.6997L6.06342 74.6997V73.1997L2.06342 72.6997C1.5625 71.1995 0.562696 68.1995 2.56269 65.6995C2.06293 57.6995 2.56293 51.1995 4.56342 48.1992C37.0634 28.6996 59.0634 34.6997 85.0634 30.1997C163.063 -24.8005 245.063 12.1994 282.063 26.6996L295.563 28.6995L296.063 35.6995V38.6995C297.562 43.6995 298.897 48.1995 297.563 50.1995C300.063 51.1995 302.563 54.3661 302.563 56.1995L300.563 66.1995C301.015 77.0474 298.607 77.2717 289.276 77.5841C288.285 77.6173 286.216 77.6515 285.063 77.6995V79.1995L260.063 79.6305M22.5634 81.1997V84.1997H40.5618L40.0634 79.6997M22.5634 81.1997V79.6997H40.0634M40.0634 79.6997C37.0634 38.1997 90.5634 41.1997 87.0634 80.1997V82.6995H213.563C207.563 39.1995 262.063 39.1995 260.063 79.6305M259.562 79.6305H260.063" stroke="black"/>
</svg>
