<svg width="303" height="96" viewBox="0 0 303 96" fill="none" xmlns="http://www.w3.org/2000/svg">
<circle cx="62.2817" cy="74.1995" r="20.5" fill="#E56E90" stroke="black"/>
<circle cx="235.282" cy="74.1995" r="20.5" fill="#E56E90" stroke="black"/>
<path d="M132.28 12.6993L130.78 9.19932C170.78 1.19943 192.28 1.69946 231.28 13.1994L227.78 17.6994C207.78 9.69937 189.78 8.69937 173.78 8.19944C171.28 7.69944 167.28 7.6994 164.78 8.19932C154.78 8.19944 142.78 9.69944 132.28 12.6993Z" fill="#EDADBF" stroke="black" stroke-width="0.5"/>
<path d="M130.78 9.19951L130.28 7.69951C166.28 -3.30054 198.78 0.699337 234.28 9.69951L231.28 13.1995C191.28 0.699463 165.28 2.19946 130.78 9.19951Z" fill="#EDADBF" stroke="black" stroke-width="0.5"/>
<path d="M130.78 9.19933C182.28 -2.3007 210.78 7.69934 231.28 13.1993" stroke="black" stroke-width="0.5"/>
<path d="M170.282 30.1995L173.782 8.19946C207.282 9.19946 218.782 14.6995 223.282 16.1995L225.764 28.1995C198.774 28.2001 181.279 29.6996 170.282 30.1995Z" fill="#EDADBF"/>
<path d="M226.282 30.6995L223.282 16.1995C218.782 14.6995 207.282 9.19946 173.782 8.19946L170.282 30.1995C181.282 29.6995 198.782 28.1995 225.782 28.1995" stroke="black" stroke-width="0.5"/>
<path d="M164.782 8.19946C131.782 9.19946 111.782 18.1995 92.7817 35.6995L95.2817 33.6995L159.282 30.6995L164.782 8.19946Z" fill="#EDADBF" stroke="black" stroke-width="0.5"/>
<path d="M239.28 22.6995C235.614 20.0328 229.78 17.6995 223.28 16.1995L225.78 28.1995H232.28C235.28 26.6995 238.28 24.4682 239.28 22.6995Z" fill="#EDADBF" stroke="black" stroke-width="0.5"/>
<path d="M96.2817 78.6995H163.282L197.782 77.1995H212.282L212.782 82.6995H198.782H97.7817H86.2817V78.6995H96.2817Z" fill="#EDADBF"/>
<path d="M96.2817 78.6995H163.282L197.782 77.1995M96.2817 78.6995C96.2817 80.1995 96.7817 81.1995 97.7817 82.6995M96.2817 78.6995H86.2817V82.6995H97.7817M197.782 77.1995L198.782 82.6995M197.782 77.1995H212.282L212.782 82.6995H198.782M198.782 82.6995H97.7817" stroke="black" stroke-width="0.5"/>
<path d="M96.2809 78.6995C91.7817 74.1995 88.7818 52.1995 92.7809 35.6995L164.782 31.6995C160.782 36.6995 159.782 70.6995 163.282 78.6995H96.2809Z" fill="#EDADBF" stroke="black" stroke-width="0.5"/>
<path d="M228.281 30.6995L164.781 31.6995C160.781 36.6995 159.781 70.6995 163.281 78.6995L197.781 77.1995C202.281 75.6995 208.781 70.1995 228.281 30.6995Z" fill="#EDADBF" stroke="black" stroke-width="0.5"/>
<path d="M170.282 30.1995C165.782 30.6995 162.282 30.6995 159.282 30.6995L164.782 8.19954C167.782 7.69946 170.782 7.69946 173.782 8.19954L170.282 30.1995Z" fill="#EDADBF" stroke="black" stroke-width="0.5"/>
<path d="M98.7817 32.1995C103.282 37.6995 110.282 34.1995 114.282 32.6995C115.282 17.1994 102.282 25.1993 98.7817 32.1995Z" fill="#EDADBF" stroke="black" stroke-width="0.5"/>
<path d="M234.28 9.69946L231.28 13.1995C248.28 18.6995 258.78 21.6995 271.28 28.1995H272.78L280.78 26.6995C265.78 20.1995 258.28 17.6995 234.28 9.69946Z" fill="#EFC7D3" stroke="black" stroke-width="0.5"/>
<path d="M271.28 28.1995C260.78 22.6995 241.78 16.1995 231.28 13.1995L229.28 15.6995L244.28 23.1995C242.78 25.6995 238.78 27.6995 232.78 30.3995C244.78 29.6995 261.78 28.6995 271.28 28.1995Z" fill="#EFC7D3" stroke="black" stroke-width="0.5"/>
<path d="M276.782 34.4995L282.78 32.1995L272.281 28.1995L228.281 30.6995C220.781 45.6995 205.781 76.1995 197.781 77.1995H212.281C210.781 66.1995 220.281 42.6995 245.282 51.6995C255.782 46.1995 265.782 40.6995 276.782 34.4995Z" fill="#EFC7D3" stroke="black" stroke-width="0.5"/>
<path d="M277.78 34.1995C265.78 40.6995 255.78 46.1995 245.28 51.6995C249.78 54.6995 260.28 60.6995 259.28 79.6995L284.28 79.1995V77.6995C292.78 76.6995 301.28 80.1995 299.78 66.1995L301.78 56.1995C301.78 54.6995 299.28 50.6995 296.78 50.1995C298.28 47.6995 295.28 38.6995 295.28 38.6995V37.1995L291.28 34.1995L286.28 32.6995L282.78 32.1995L277.78 34.1995Z" fill="#EFC7D3" stroke="black" stroke-width="0.5"/>
<path d="M280.78 26.6995L272.28 28.1995L282.78 32.1995C292.28 33.1995 291.279 34.6995 295.274 37.1196L294.78 28.6995L280.78 26.6995Z" fill="#EFC7D3"/>
<path d="M295.28 37.1995L295.274 37.1196M295.274 37.1196L294.78 28.6995L280.78 26.6995L272.28 28.1995L282.78 32.1995C292.28 33.1995 291.279 34.6995 295.274 37.1196Z" stroke="black" stroke-width="0.5"/>
<path d="M293.782 36.6997C293.282 34.1996 282.282 33.9995 276.782 34.4995" stroke="black" stroke-width="0.5"/>
<path d="M299.782 66.6995L260.282 68.6995C259.782 63.6995 257.615 59.5328 255.782 57.6995L301.782 55.1995M300.282 52.6995C289.282 51.1995 278.282 46.3995 266.282 40.3995M228.282 30.6995L272.282 28.1995L280.782 26.6995" stroke="black" stroke-width="0.5"/>
<path d="M290.282 40.6995C290.282 38.6995 289.282 34.6995 285.782 32.6995C288.003 32.6995 291.379 33.7399 293.891 36.1094C294.354 37.6395 293.282 41.1995 290.24 42.6995C290.226 42.1092 290.282 41.4238 290.282 40.6995Z" fill="#EFC7D3"/>
<path d="M272.282 43.1995C279.277 43.5492 285.294 43.6543 290.675 44.1995M297.282 45.1995C295.179 44.7488 292.985 44.4336 290.675 44.1995M295.282 37.6995C294.864 37.1143 294.395 36.5851 293.891 36.1094M290.675 44.1995C290.349 43.8547 290.255 43.3317 290.24 42.6995M290.24 42.6995C290.226 42.1092 290.282 41.4238 290.282 40.6995C290.282 38.6995 289.282 34.6995 285.782 32.6995C288.003 32.6995 291.379 33.7399 293.891 36.1094M290.24 42.6995C293.282 41.1995 294.354 37.6395 293.891 36.1094" stroke="black" stroke-width="0.5"/>
<path d="M290.282 40.6995C285.782 40.6995 283.782 36.6995 282.782 34.1995" stroke="black" stroke-width="0.5"/>
<path d="M132.28 12.7994C118.78 16.7994 106.78 22.6995 92.7803 35.6995C99.7803 23.6995 115.28 14.1995 130.78 9.19946L132.28 12.7994Z" fill="#EDADBF" stroke="black" stroke-width="0.5"/>
<path d="M130.78 9.19946C110.78 14.8735 92.7803 32.1995 84.7803 30.1995C97.7803 20.6995 113.78 12.1995 130.28 7.69946L130.78 9.19946Z" fill="#EDADBF" stroke="black" stroke-width="0.5"/>
<path d="M9.78094 48.1993H3.78094C1.28027 52.1993 1.28027 62.1993 1.78094 65.6993C0.280273 66.6993 0.280871 71.1993 1.28094 72.6993L5.28094 73.1993V74.6993L1.28094 76.6993V78.6993C5.28094 79.6993 13.7809 81.6993 21.7809 81.1993V79.6993H39.2809C38.6143 71.1993 40.2809 60.6993 49.2809 53.6993C46.7809 49.6993 39.7809 45.1993 36.7809 44.6993C26.7809 43.6993 11.7809 46.1993 9.78094 48.1993Z" fill="#EDADBF" stroke="black" stroke-width="0.5"/>
<path d="M92.7817 35.6995C74.9484 36.5328 43.2817 41.3995 32.7817 44.3995L36.7817 44.6995C41.7817 46.1995 47.2817 50.5328 49.2817 53.6995C62.2808 44.1995 87.7808 51.1995 86.2808 78.6995H96.2808C89.2808 67.6995 90.2808 45.6995 92.7817 35.6995Z" fill="#EDADBF" stroke="black" stroke-width="0.5"/>
<path d="M9.78027 48.1995H3.78027C36.2805 28.6994 58.2805 34.6995 84.2803 30.1995L93.2805 35.6995C76.2805 36.6995 47.2803 40.1995 33.2803 44.3995C25.2803 44.1995 11.2803 46.1995 9.78027 48.1995Z" fill="#EDADBF" stroke="black" stroke-width="0.5"/>
<path d="M36.7817 44.6995C29.2817 43.6995 12.2817 45.6995 9.78173 48.1995C8.98173 50.5995 12.1151 53.5328 13.7817 54.6995C23.2817 56.1995 36.7817 50.1995 36.7817 44.6995Z" fill="#EDADBF" stroke="black" stroke-width="0.5"/>
<path d="M3.78097 48.1995C10.781 49.1995 4.78097 59.6995 1.78097 64.6995C1.2809 57.6995 1.78076 52.1995 3.78097 48.1995Z" fill="#EDADBF" stroke="black" stroke-width="0.5"/>
<path d="M21.7803 84.1995V79.6995H39.2803L39.7803 84.1995H21.7803Z" fill="#EDADBF" stroke="black" stroke-width="0.5"/>
<path d="M2.28223 65.6992C3.78223 68.1992 5.78223 71.3659 5.28223 73.1992M21.7822 79.6992C11.2822 80.1992 6.78223 76.1992 7.78223 72.6992C8.28223 72.1992 9.78223 70.6992 10.7822 70.6992" stroke="black" stroke-width="0.5"/>
<path d="M31.7822 74.6993C29.2822 70.6993 23.7822 65.6994 20.7822 64.1994C19.0322 63.6994 16.4071 63.8244 13.657 64.1994C12.0321 65.5327 10.7822 68.6993 11.2822 71.6993C11.2822 72.866 12.5896 75.1993 15.2822 75.1993C19.7822 75.1993 26.7822 75.6993 31.7822 74.6993Z" fill="#EDADBF"/>
<path d="M5.78223 65.6994C8.03217 65.1994 10.9071 64.5744 13.657 64.1994M13.657 64.1994C16.4071 63.8244 19.0322 63.6994 20.7822 64.1994C23.7822 65.6994 29.2822 70.6993 31.7822 74.6993C26.7822 75.6993 19.7822 75.1993 15.2822 75.1993C12.5896 75.1993 11.2822 72.866 11.2822 71.6993C10.7822 68.6993 12.0321 65.5327 13.657 64.1994Z" stroke="black" stroke-width="0.5"/>
<path d="M11.2822 71.1994C19.2822 69.6995 22.7822 72.3279 25.7822 73.8279M12.7822 74.1995L30.2822 73.6995" stroke="black" stroke-width="0.5"/>
<path d="M21.7803 82.6992H31.2803C33.2803 82.6992 34.7803 80.6992 34.2803 79.6992M37.7803 79.6992V84.1992" stroke="black" stroke-width="0.5"/>
<path d="M21.7817 81.1997C17.2817 81.1997 12.7817 81.6997 1.28168 78.6997V76.6997L5.28168 74.6997V73.1997L1.28168 72.6997C0.780762 71.1995 -0.219042 68.1995 1.78095 65.6995C1.2812 57.6995 1.7812 51.1995 3.78168 48.1992C36.2817 28.6996 58.2817 34.6997 84.2817 30.1997C162.282 -24.8005 244.282 12.1994 281.282 26.6996L294.782 28.6995L295.282 35.6995V38.6995C296.78 43.6995 298.115 48.1995 296.782 50.1995C299.282 51.1995 301.782 54.3661 301.782 56.1995L299.782 66.1995C300.234 77.0474 297.826 77.2717 288.494 77.5841C287.503 77.6173 285.434 77.6515 284.282 77.6995V79.1995L259.282 79.6305M21.7817 81.1997V84.1997H39.78L39.2817 79.6997M21.7817 81.1997V79.6997H39.2817M39.2817 79.6997C36.2817 38.1997 89.7817 41.1997 86.2817 80.1997V82.6995H212.782C206.782 39.1995 261.282 39.1995 259.282 79.6305M258.78 79.6305H259.282" stroke="black"/>
</svg>
