<svg width="303" height="95" viewBox="0 0 303 95" fill="none" xmlns="http://www.w3.org/2000/svg">
<circle cx="62.2817" cy="73.8762" r="20.5" fill="#E56E90" stroke="black"/>
<circle cx="235.282" cy="73.8762" r="20.5" fill="#E56E90" stroke="black"/>
<path d="M132.28 12.3761L130.78 8.87608C170.78 0.876188 192.28 1.37622 231.28 12.8762L227.78 17.3762C207.78 9.37613 189.78 8.37613 173.78 7.8762C171.28 7.3762 167.28 7.37616 164.78 7.87608C154.78 7.8762 142.78 9.3762 132.28 12.3761Z" fill="#E56E90" stroke="black" stroke-width="0.5"/>
<path d="M130.78 8.87627L130.28 7.37626C166.28 -3.62378 198.78 0.376095 234.28 9.37627L231.28 12.8763C191.28 0.376221 165.28 1.87622 130.78 8.87627Z" fill="#E56E90" stroke="black" stroke-width="0.5"/>
<path d="M130.78 8.87609C182.28 -2.62394 210.78 7.3761 231.28 12.8761" stroke="black" stroke-width="0.5"/>
<path d="M170.282 29.8762L173.782 7.87622C207.282 8.87622 218.782 14.3762 223.282 15.8762L225.764 27.8762C198.774 27.8769 181.279 29.3763 170.282 29.8762Z" fill="#E56E90"/>
<path d="M226.282 30.3762L223.282 15.8762C218.782 14.3762 207.282 8.87622 173.782 7.87622L170.282 29.8762C181.282 29.3762 198.782 27.8762 225.782 27.8762" stroke="black" stroke-width="0.5"/>
<path d="M164.782 7.87622C131.782 8.87622 111.782 17.8762 92.7817 35.3762L95.2817 33.3762L159.282 30.3762L164.782 7.87622Z" fill="#E56E90" stroke="black" stroke-width="0.5"/>
<path d="M239.28 22.3762C235.614 19.7096 229.78 17.3762 223.28 15.8762L225.78 27.8762H232.28C235.28 26.3762 238.28 24.145 239.28 22.3762Z" fill="#E56E90" stroke="black" stroke-width="0.5"/>
<path d="M96.2817 78.3762H163.282L197.782 76.8762H212.282L212.782 82.3762H198.782H97.7817H86.2817V78.3762H96.2817Z" fill="#E56E90"/>
<path d="M96.2817 78.3762H163.282L197.782 76.8762M96.2817 78.3762C96.2817 79.8762 96.7817 80.8762 97.7817 82.3762M96.2817 78.3762H86.2817V82.3762H97.7817M197.782 76.8762L198.782 82.3762M197.782 76.8762H212.282L212.782 82.3762H198.782M198.782 82.3762H97.7817" stroke="black" stroke-width="0.5"/>
<path d="M96.2809 78.3762C91.7817 73.8762 88.7818 51.8762 92.7809 35.3762L164.782 31.3762C160.782 36.3762 159.782 70.3762 163.282 78.3762H96.2809Z" fill="#E56E90" stroke="black" stroke-width="0.5"/>
<path d="M228.281 30.3762L164.781 31.3762C160.781 36.3762 159.781 70.3762 163.281 78.3762L197.781 76.8762C202.281 75.3762 208.781 69.8762 228.281 30.3762Z" fill="#E56E90" stroke="black" stroke-width="0.5"/>
<path d="M170.282 29.8763C165.782 30.3763 162.282 30.3763 159.282 30.3763L164.782 7.87629C167.782 7.37622 170.782 7.37622 173.782 7.87629L170.282 29.8763Z" fill="#E56E90" stroke="black" stroke-width="0.5"/>
<path d="M98.7817 31.8762C103.282 37.3762 110.282 33.8762 114.282 32.3762C115.282 16.8761 102.282 24.8761 98.7817 31.8762Z" fill="#E56E90" stroke="black" stroke-width="0.5"/>
<path d="M234.28 9.37622L231.28 12.8762C248.28 18.3762 258.78 21.3762 271.28 27.8762H272.78L280.78 26.3762C265.78 19.8762 258.28 17.3762 234.28 9.37622Z" fill="#EFC7D3" stroke="black" stroke-width="0.5"/>
<path d="M271.28 27.8762C260.78 22.3762 241.78 15.8762 231.28 12.8762L229.28 15.3762L244.28 22.8762C242.78 25.3762 238.78 27.3762 232.78 30.0762C244.78 29.3762 261.78 28.3762 271.28 27.8762Z" fill="#EFC7D3" stroke="black" stroke-width="0.5"/>
<path d="M276.782 34.1762L282.78 31.8762L272.281 27.8762L228.281 30.3762C220.781 45.3762 205.781 75.8762 197.781 76.8762H212.281C210.781 65.8762 220.281 42.3762 245.282 51.3762C255.782 45.8762 265.782 40.3762 276.782 34.1762Z" fill="#EFC7D3" stroke="black" stroke-width="0.5"/>
<path d="M277.78 33.8762C265.78 40.3762 255.78 45.8762 245.28 51.3762C249.78 54.3762 260.28 60.3762 259.28 79.3762L284.28 78.8762V77.3762C292.78 76.3762 301.28 79.8762 299.78 65.8762L301.78 55.8762C301.78 54.3762 299.28 50.3762 296.78 49.8762C298.28 47.3762 295.28 38.3762 295.28 38.3762V36.8762L291.28 33.8762L286.28 32.3762L282.78 31.8762L277.78 33.8762Z" fill="#EFC7D3" stroke="black" stroke-width="0.5"/>
<path d="M280.78 26.3762L272.28 27.8762L282.78 31.8762C292.28 32.8762 291.279 34.3762 295.274 36.7964L294.78 28.3762L280.78 26.3762Z" fill="#EFC7D3"/>
<path d="M295.28 36.8762L295.274 36.7964M295.274 36.7964L294.78 28.3762L280.78 26.3762L272.28 27.8762L282.78 31.8762C292.28 32.8762 291.279 34.3762 295.274 36.7964Z" stroke="black" stroke-width="0.5"/>
<path d="M293.782 36.3764C293.282 33.8763 282.282 33.6762 276.782 34.1762" stroke="black" stroke-width="0.5"/>
<path d="M299.782 66.3762L260.282 68.3762C259.782 63.3762 257.615 59.2096 255.782 57.3762L301.782 54.8762M300.282 52.3762C289.282 50.8762 278.282 46.0762 266.282 40.0762M228.282 30.3762L272.282 27.8762L280.782 26.3762" stroke="black" stroke-width="0.5"/>
<path d="M290.282 40.3762C290.282 38.3762 289.282 34.3762 285.782 32.3762C288.003 32.3762 291.379 33.4166 293.891 35.7862C294.354 37.3162 293.282 40.8762 290.24 42.3762C290.226 41.7859 290.282 41.1005 290.282 40.3762Z" fill="#EFC7D3"/>
<path d="M272.282 42.8762C279.277 43.226 285.294 43.3311 290.675 43.8762M297.282 44.8762C295.179 44.4256 292.985 44.1103 290.675 43.8762M295.282 37.3762C294.864 36.7911 294.395 36.2619 293.891 35.7862M290.675 43.8762C290.349 43.5315 290.255 43.0084 290.24 42.3762M290.24 42.3762C290.226 41.7859 290.282 41.1005 290.282 40.3762C290.282 38.3762 289.282 34.3762 285.782 32.3762C288.003 32.3762 291.379 33.4166 293.891 35.7862M290.24 42.3762C293.282 40.8762 294.354 37.3162 293.891 35.7862" stroke="black" stroke-width="0.5"/>
<path d="M290.282 40.3762C285.782 40.3762 283.782 36.3762 282.782 33.8762" stroke="black" stroke-width="0.5"/>
<path d="M132.28 12.4762C118.78 16.4762 106.78 22.3762 92.7803 35.3762C99.7803 23.3762 115.28 13.8762 130.78 8.87622L132.28 12.4762Z" fill="#EFC7D3" stroke="black" stroke-width="0.5"/>
<path d="M130.78 8.87622C110.78 14.5503 92.7803 31.8762 84.7803 29.8762C97.7803 20.3762 113.78 11.8762 130.28 7.37622L130.78 8.87622Z" fill="#EFC7D3" stroke="black" stroke-width="0.5"/>
<path d="M9.78094 47.8761H3.78094C1.28027 51.8761 1.28027 61.8761 1.78094 65.3761C0.280273 66.3761 0.280871 70.8761 1.28094 72.3761L5.28094 72.8761V74.3761L1.28094 76.3761V78.3761C5.28094 79.3761 13.7809 81.3761 21.7809 80.8761V79.3761H39.2809C38.6143 70.8761 40.2809 60.3761 49.2809 53.3761C46.7809 49.3761 39.7809 44.8761 36.7809 44.3761C26.7809 43.3761 11.7809 45.8761 9.78094 47.8761Z" fill="#EFC7D3" stroke="black" stroke-width="0.5"/>
<path d="M92.7817 35.3762C74.9484 36.2096 43.2817 41.0762 32.7817 44.0762L36.7817 44.3762C41.7817 45.8762 47.2817 50.2096 49.2817 53.3762C62.2808 43.8762 87.7808 50.8762 86.2808 78.3762H96.2808C89.2808 67.3762 90.2808 45.3762 92.7817 35.3762Z" fill="#EFC7D3" stroke="black" stroke-width="0.5"/>
<path d="M9.78027 47.8763H3.78027C36.2805 28.3762 58.2805 34.3762 84.2803 29.8762L93.2805 35.3762C76.2805 36.3762 47.2803 39.8762 33.2803 44.0762C25.2803 43.8762 11.2803 45.8762 9.78027 47.8763Z" fill="#EFC7D3" stroke="black" stroke-width="0.5"/>
<path d="M36.7817 44.3763C29.2817 43.3762 12.2817 45.3762 9.78173 47.8763C8.98173 50.2762 12.1151 53.2096 13.7817 54.3762C23.2817 55.8762 36.7817 49.8762 36.7817 44.3763Z" fill="#EFC7D3" stroke="black" stroke-width="0.5"/>
<path d="M3.78097 47.8762C10.781 48.8762 4.78097 59.3762 1.78097 64.3762C1.2809 57.3762 1.78076 51.8762 3.78097 47.8762Z" fill="#EFC7D3" stroke="black" stroke-width="0.5"/>
<path d="M21.7803 83.8762V79.3762H39.2803L39.7803 83.8762H21.7803Z" fill="#EFC7D3" stroke="black" stroke-width="0.5"/>
<path d="M2.28223 65.376C3.78223 67.876 5.78223 71.0426 5.28223 72.876M21.7822 79.376C11.2822 79.876 6.78223 75.876 7.78223 72.376C8.28223 71.876 9.78223 70.376 10.7822 70.376" stroke="black" stroke-width="0.5"/>
<path d="M31.7822 74.3761C29.2822 70.3761 23.7822 65.3762 20.7822 63.8762C19.0322 63.3762 16.4071 63.5012 13.657 63.8762C12.0321 65.2095 10.7822 68.3761 11.2822 71.3761C11.2822 72.5428 12.5896 74.8761 15.2822 74.8761C19.7822 74.8761 26.7822 75.3761 31.7822 74.3761Z" fill="#EFC7D3"/>
<path d="M5.78223 65.3762C8.03217 64.8762 10.9071 64.2512 13.657 63.8762M13.657 63.8762C16.4071 63.5012 19.0322 63.3762 20.7822 63.8762C23.7822 65.3762 29.2822 70.3761 31.7822 74.3761C26.7822 75.3761 19.7822 74.8761 15.2822 74.8761C12.5896 74.8761 11.2822 72.5428 11.2822 71.3761C10.7822 68.3761 12.0321 65.2095 13.657 63.8762Z" stroke="black" stroke-width="0.5"/>
<path d="M11.2822 70.8762C19.2822 69.3762 22.7822 72.0047 25.7822 73.5047M12.7822 73.8762L30.2822 73.3762" stroke="black" stroke-width="0.5"/>
<path d="M21.7803 82.376H31.2803C33.2803 82.376 34.7803 80.376 34.2803 79.376M37.7803 79.376V83.876" stroke="black" stroke-width="0.5"/>
<path d="M21.7817 80.8765C17.2817 80.8765 12.7817 81.3765 1.28168 78.3765V76.3765L5.28168 74.3765V72.8765L1.28168 72.3765C0.780762 70.8762 -0.219042 67.8762 1.78095 65.3762C1.2812 57.3762 1.7812 50.8762 3.78168 47.876C36.2817 28.3764 58.2817 34.3764 84.2817 29.8764C162.282 -25.1237 244.282 11.8762 281.282 26.3764L294.782 28.3762L295.282 35.3762V38.3762C296.78 43.3762 298.115 47.8762 296.782 49.8762C299.282 50.8762 301.782 54.0429 301.782 55.8762L299.782 65.8762C300.234 76.7241 297.826 76.9484 288.494 77.2609C287.503 77.294 285.434 77.3282 284.282 77.3762V78.8762L259.282 79.3073M21.7817 80.8765V83.8765H39.78L39.2817 79.3765M21.7817 80.8765V79.3765H39.2817M39.2817 79.3765C36.2817 37.8765 89.7817 40.8765 86.2817 79.8765V82.3762H212.782C206.782 38.8762 261.282 38.8762 259.282 79.3073M258.78 79.3073H259.282" stroke="black"/>
</svg>
