<svg width="303" height="96" viewBox="0 0 303 96" fill="none" xmlns="http://www.w3.org/2000/svg">
<circle cx="62.2725" cy="74.5076" r="20.5" fill="#E56E90" stroke="black"/>
<circle cx="235.272" cy="74.5076" r="20.5" fill="#E56E90" stroke="black"/>
<path d="M132.271 13.0074L130.771 9.50742C170.771 1.50754 192.271 2.00757 231.271 13.5075L227.771 18.0075C207.771 10.0075 189.771 9.00748 173.771 8.50755C171.271 8.00755 167.271 8.00751 164.771 8.50742C154.771 8.50755 142.771 10.0075 132.271 13.0074Z" stroke="black" stroke-width="0.5"/>
<path d="M130.771 9.50761L130.271 8.00761C166.271 -2.99243 198.771 1.00744 234.271 10.0076L231.271 13.5076C191.271 1.00757 165.271 2.50757 130.771 9.50761Z" stroke="black" stroke-width="0.5"/>
<path d="M130.771 9.50756C182.271 -1.99247 210.771 8.00757 231.271 13.5076" stroke="black" stroke-width="0.5"/>
<path d="M226.272 31.0076L223.272 16.5076C218.772 15.0076 207.272 9.50757 173.772 8.50757L170.272 30.5076C181.272 30.0076 198.772 28.5076 225.772 28.5076" stroke="black" stroke-width="0.5"/>
<path d="M164.772 8.50757C131.772 9.50757 111.772 18.5076 92.7725 36.0076L95.2725 34.0076L159.272 31.0076L164.772 8.50757Z" stroke="black" stroke-width="0.5"/>
<path d="M239.271 23.0076C235.604 20.3409 229.771 18.0076 223.271 16.5076L225.771 28.5076H232.271C235.271 27.0076 238.271 24.7763 239.271 23.0076Z" stroke="black" stroke-width="0.5"/>
<path d="M96.2725 79.0076H163.272L197.772 77.5076M96.2725 79.0076C96.2725 80.5076 96.7725 81.5076 97.7725 83.0076M96.2725 79.0076H86.2725V83.0076H97.7725M197.772 77.5076L198.772 83.0076M197.772 77.5076H212.272L212.772 83.0076H198.772M198.772 83.0076H97.7725" stroke="black" stroke-width="0.5"/>
<path d="M96.2716 79.0076C91.7725 74.5076 88.7725 52.5076 92.7716 36.0076L164.772 32.0076C160.772 37.0076 159.772 71.0076 163.272 79.0076H96.2716Z" stroke="black" stroke-width="0.5"/>
<path d="M228.272 31.0076L164.772 32.0076C160.773 37.0076 159.773 71.0076 163.272 79.0076L197.772 77.5076C202.272 76.0076 208.772 70.5076 228.272 31.0076Z" stroke="black" stroke-width="0.5"/>
<path d="M170.272 30.5076C165.772 31.0076 162.272 31.0076 159.272 31.0076L164.772 8.50764C167.772 8.00757 170.772 8.00757 173.772 8.50764L170.272 30.5076Z" stroke="black" stroke-width="0.5"/>
<path d="M98.7725 32.5077C103.272 38.0077 110.272 34.5077 114.272 33.0077C115.272 17.5076 102.272 25.5076 98.7725 32.5077Z" stroke="black" stroke-width="0.5"/>
<path d="M234.271 10.0076L231.271 13.5076C248.271 19.0076 258.771 22.0076 271.271 28.5076H272.771L280.771 27.0076C265.771 20.5076 258.271 18.0076 234.271 10.0076Z" fill="#EDADBF" stroke="black" stroke-width="0.5"/>
<path d="M271.271 28.5076C260.771 23.0076 241.771 16.5076 231.271 13.5076L229.271 16.0076L244.271 23.5076C242.771 26.0076 238.771 28.0076 232.771 30.7076C244.771 30.0076 261.771 29.0076 271.271 28.5076Z" fill="#EDADBF" stroke="black" stroke-width="0.5"/>
<path d="M276.772 34.8076L282.771 32.5076L272.271 28.5076L228.271 31.0076C220.771 46.0076 205.771 76.5076 197.771 77.5076H212.271C210.771 66.5076 220.271 43.0076 245.272 52.0076C255.772 46.5076 265.772 41.0076 276.772 34.8076Z" fill="#EDADBF" stroke="black" stroke-width="0.5"/>
<path d="M277.771 34.5076C265.771 41.0076 255.771 46.5076 245.271 52.0076C249.771 55.0076 260.271 61.0076 259.271 80.0076L284.271 79.5076V78.0076C292.771 77.0076 301.271 80.5076 299.771 66.5076L301.771 56.5076C301.771 55.0076 299.271 51.0076 296.771 50.5076C298.271 48.0076 295.271 39.0076 295.271 39.0076V37.5076L291.271 34.5076L286.271 33.0076L282.771 32.5076L277.771 34.5076Z" fill="#EDADBF" stroke="black" stroke-width="0.5"/>
<path d="M280.771 27.0076L272.271 28.5076L282.771 32.5076C292.271 33.5076 291.269 35.0076 295.265 37.4277L294.771 29.0076L280.771 27.0076Z" fill="#EDADBF"/>
<path d="M295.271 37.5076L295.265 37.4277M295.265 37.4277L294.771 29.0076L280.771 27.0076L272.271 28.5076L282.771 32.5076C292.271 33.5076 291.269 35.0076 295.265 37.4277Z" stroke="black" stroke-width="0.5"/>
<path d="M293.772 37.0078C293.272 34.5077 282.272 34.3076 276.772 34.8076" stroke="black" stroke-width="0.5"/>
<path d="M299.772 67.0076L260.272 69.0076C259.772 64.0076 257.606 59.8409 255.772 58.0076L301.772 55.5076M300.272 53.0076C289.272 51.5076 278.272 46.7076 266.272 40.7076M228.272 31.0076L272.272 28.5076L280.772 27.0076" stroke="black" stroke-width="0.5"/>
<path d="M290.272 41.0076C290.272 39.0076 289.272 35.0076 285.772 33.0076C287.993 33.0076 291.37 34.048 293.881 36.4176C294.345 37.9476 293.272 41.5076 290.231 43.0076C290.217 42.4173 290.272 41.7319 290.272 41.0076Z" fill="#EDADBF"/>
<path d="M272.272 43.5076C279.268 43.8574 285.285 43.9624 290.666 44.5076M297.272 45.5076C295.169 45.0569 292.976 44.7417 290.666 44.5076M295.272 38.0076C294.855 37.4224 294.385 36.8932 293.881 36.4176M290.666 44.5076C290.339 44.1628 290.245 43.6398 290.231 43.0076M290.231 43.0076C290.217 42.4173 290.272 41.7319 290.272 41.0076C290.272 39.0076 289.272 35.0076 285.772 33.0076C287.993 33.0076 291.37 34.048 293.881 36.4176M290.231 43.0076C293.272 41.5076 294.345 37.9476 293.881 36.4176" stroke="black" stroke-width="0.5"/>
<path d="M290.272 41.0076C285.772 41.0076 283.772 37.0076 282.772 34.5076" stroke="black" stroke-width="0.5"/>
<path d="M132.271 13.1075C118.771 17.1075 106.771 23.0076 92.7705 36.0076C99.7705 24.0076 115.271 14.5076 130.771 9.50757L132.271 13.1075Z" fill="#EDADBF" stroke="black" stroke-width="0.5"/>
<path d="M130.771 9.50757C110.771 15.1816 92.7705 32.5076 84.7705 30.5076C97.7705 21.0076 113.771 12.5076 130.271 8.00757L130.771 9.50757Z" fill="#EDADBF" stroke="black" stroke-width="0.5"/>
<path d="M9.77118 48.5076H3.77118C1.27051 52.5076 1.27051 62.5076 1.77118 66.0076C0.270508 67.0076 0.271105 71.5076 1.27118 73.0076L5.27118 73.5076V75.0076L1.27118 77.0076V79.0076C5.27118 80.0076 13.7712 82.0076 21.7712 81.5076V80.0076H39.2712C38.6045 71.5076 40.2712 61.0076 49.2712 54.0076C46.7712 50.0076 39.7712 45.5076 36.7712 45.0076C26.7712 44.0076 11.7712 46.5076 9.77118 48.5076Z" fill="#EDADBF" stroke="black" stroke-width="0.5"/>
<path d="M92.7725 36.0076C74.9391 36.8409 43.2725 41.7076 32.7725 44.7076L36.7725 45.0076C41.7725 46.5076 47.2725 50.8409 49.2725 54.0076C62.2715 44.5076 87.7715 51.5076 86.2715 79.0076H96.2715C89.2715 68.0076 90.2715 46.0076 92.7725 36.0076Z" fill="#EDADBF" stroke="black" stroke-width="0.5"/>
<path d="M9.77051 48.5076H3.77051C36.2707 29.0075 58.2708 35.0076 84.2705 30.5076L93.2708 36.0076C76.2708 37.0076 47.2705 40.5076 33.2705 44.7076C25.2705 44.5076 11.2705 46.5076 9.77051 48.5076Z" fill="#EDADBF" stroke="black" stroke-width="0.5"/>
<path d="M36.772 45.0076C29.272 44.0076 12.272 46.0076 9.77196 48.5076C8.97196 50.9076 12.1053 53.8409 13.772 55.0076C23.272 56.5076 36.772 50.5076 36.772 45.0076Z" fill="#EDADBF" stroke="black" stroke-width="0.5"/>
<path d="M3.7712 48.5076C10.7712 49.5076 4.7712 60.0076 1.7712 65.0076C1.27113 58.0076 1.771 52.5076 3.7712 48.5076Z" fill="#EDADBF" stroke="black" stroke-width="0.5"/>
<path d="M21.7705 84.5076V80.0076H39.2705L39.7705 84.5076H21.7705Z" fill="#EDADBF" stroke="black" stroke-width="0.5"/>
<path d="M2.27246 66.0076C3.77246 68.5076 5.77246 71.6742 5.27246 73.5076M21.7725 80.0076C11.2725 80.5076 6.77246 76.5076 7.77246 73.0076C8.27246 72.5076 9.77246 71.0076 10.7725 71.0076" stroke="black" stroke-width="0.5"/>
<path d="M31.7725 75.0076C29.2725 71.0076 23.7725 66.0076 20.7725 64.5076C19.0224 64.0076 16.3973 64.1326 13.6472 64.5076C12.0223 65.841 10.7725 69.0076 11.2725 72.0076C11.2725 73.1742 12.5799 75.5076 15.2725 75.5076C19.7725 75.5076 26.7725 76.0076 31.7725 75.0076Z" fill="#EDADBF"/>
<path d="M5.77246 66.0076C8.0224 65.5076 10.8973 64.8826 13.6472 64.5076M13.6472 64.5076C16.3973 64.1326 19.0224 64.0076 20.7725 64.5076C23.7725 66.0076 29.2725 71.0076 31.7725 75.0076C26.7725 76.0076 19.7725 75.5076 15.2725 75.5076C12.5799 75.5076 11.2725 73.1742 11.2725 72.0076C10.7725 69.0076 12.0223 65.841 13.6472 64.5076Z" stroke="black" stroke-width="0.5"/>
<path d="M11.2725 71.5076C19.2725 70.0077 22.7725 72.6362 25.7725 74.1362M12.7725 74.5077L30.2725 74.0077" stroke="black" stroke-width="0.5"/>
<path d="M21.7705 83.0076H31.2705C33.2705 83.0076 34.7705 81.0076 34.2705 80.0076M37.7705 80.0076V84.5076" stroke="black" stroke-width="0.5"/>
<path d="M21.7724 81.5078C17.2724 81.5078 12.7724 82.0078 1.27241 79.0078V77.0078L5.27241 75.0078V73.5078L1.27241 73.0078C0.771484 71.5076 -0.22832 68.5076 1.77168 66.0076C1.27192 58.0076 1.77192 51.5076 3.77241 48.5073C36.2724 29.0077 58.2724 35.0078 84.2724 30.5078C162.272 -24.4924 244.272 12.5076 281.272 27.0077L294.772 29.0076L295.272 36.0076V39.0076C296.771 44.0076 298.106 48.5076 296.772 50.5076C299.272 51.5076 301.772 54.6742 301.772 56.5076L299.772 66.5076C300.224 77.3555 297.816 77.5798 288.485 77.8922C287.494 77.9254 285.425 77.9596 284.272 78.0076V79.5076L259.272 79.9386M21.7724 81.5078V84.5078H39.7708L39.2724 80.0078M21.7724 81.5078V80.0078H39.2724M39.2724 80.0078C36.2724 38.5078 89.7724 41.5078 86.2724 80.5078V83.0076H212.772C206.772 39.5076 261.272 39.5076 259.272 79.9386M258.771 79.9386H259.272" stroke="black"/>
</svg>
