<svg width="303" height="96" viewBox="0 0 303 96" fill="none" xmlns="http://www.w3.org/2000/svg">
<circle cx="62.2607" cy="74.0151" r="20.5" fill="#E56E90" stroke="black"/>
<circle cx="235.261" cy="74.0151" r="20.5" fill="#E56E90" stroke="black"/>
<path d="M132.259 12.515L130.759 9.01499C170.759 1.0151 192.259 1.51514 231.259 13.0151L227.759 17.5151C207.759 9.51505 189.759 8.51505 173.759 8.01511C171.259 7.51511 167.259 7.51508 164.759 8.01499C154.759 8.01511 142.759 9.51511 132.259 12.515Z" fill="#EFC7D3" stroke="black" stroke-width="0.5"/>
<path d="M130.759 9.01518L130.259 7.51518C166.259 -3.48486 198.759 0.515011 234.259 9.51518L231.259 13.0152C191.259 0.515137 165.259 2.01514 130.759 9.01518Z" fill="#EFC7D3" stroke="black" stroke-width="0.5"/>
<path d="M130.759 9.01512C182.259 -2.4849 210.759 7.51514 231.259 13.0151" stroke="black" stroke-width="0.5"/>
<path d="M170.261 30.0151L173.761 8.01514C207.261 9.01514 218.761 14.5151 223.261 16.0151L225.743 28.0151C198.753 28.0158 181.258 29.5152 170.261 30.0151Z" fill="#EFC7D3"/>
<path d="M226.261 30.5151L223.261 16.0151C218.761 14.5151 207.261 9.01514 173.761 8.01514L170.261 30.0151C181.261 29.5151 198.761 28.0151 225.761 28.0151" stroke="black" stroke-width="0.5"/>
<path d="M164.761 8.01514C131.761 9.01514 111.761 18.0151 92.7607 35.5151L95.2607 33.5151L159.261 30.5151L164.761 8.01514Z" fill="#EFC7D3" stroke="black" stroke-width="0.5"/>
<path d="M239.259 22.5151C235.592 19.8485 229.759 17.5151 223.259 16.0151L225.759 28.0151H232.259C235.259 26.5151 238.259 24.2839 239.259 22.5151Z" fill="#EFC7D3" stroke="black" stroke-width="0.5"/>
<path d="M96.2607 78.5151H163.261L197.761 77.0151H212.261L212.761 82.5151H198.761H97.7607H86.2607V78.5151H96.2607Z" fill="#EFC7D3"/>
<path d="M96.2607 78.5151H163.261L197.761 77.0151M96.2607 78.5151C96.2607 80.0151 96.7607 81.0151 97.7607 82.5151M96.2607 78.5151H86.2607V82.5151H97.7607M197.761 77.0151L198.761 82.5151M197.761 77.0151H212.261L212.761 82.5151H198.761M198.761 82.5151H97.7607" stroke="black" stroke-width="0.5"/>
<path d="M96.2599 78.5151C91.7607 74.0151 88.7608 52.0151 92.7599 35.5151L164.761 31.5151C160.761 36.5151 159.761 70.5151 163.261 78.5151H96.2599Z" fill="#EFC7D3" stroke="black" stroke-width="0.5"/>
<path d="M228.261 30.5151L164.761 31.5151C160.761 36.5151 159.761 70.5151 163.261 78.5151L197.761 77.0151C202.261 75.5151 208.761 70.0151 228.261 30.5151Z" fill="#EFC7D3" stroke="black" stroke-width="0.5"/>
<path d="M170.261 30.0152C165.761 30.5152 162.261 30.5152 159.261 30.5152L164.761 8.01521C167.761 7.51514 170.761 7.51514 173.761 8.01521L170.261 30.0152Z" fill="#EFC7D3" stroke="black" stroke-width="0.5"/>
<path d="M98.7607 32.0153C103.261 37.5153 110.261 34.0153 114.261 32.5153C115.261 17.0152 102.261 25.0151 98.7607 32.0153Z" fill="#EFC7D3" stroke="black" stroke-width="0.5"/>
<path d="M234.259 9.51514L231.259 13.0151C248.259 18.5151 258.759 21.5151 271.259 28.0151H272.759L280.759 26.5151C265.759 20.0151 258.259 17.5151 234.259 9.51514Z" fill="#E56E90" stroke="black" stroke-width="0.5"/>
<path d="M271.259 28.0151C260.759 22.5151 241.759 16.0151 231.259 13.0151L229.259 15.5151L244.259 23.0151C242.759 25.5151 238.759 27.5151 232.759 30.2151C244.759 29.5151 261.759 28.5151 271.259 28.0151Z" fill="#E56E90" stroke="black" stroke-width="0.5"/>
<path d="M276.761 34.3151L282.759 32.0151L272.26 28.0151L228.26 30.5151C220.76 45.5151 205.76 76.0151 197.76 77.0151H212.26C210.76 66.0151 220.26 42.5151 245.261 51.5151C255.761 46.0151 265.761 40.5151 276.761 34.3151Z" fill="#E56E90" stroke="black" stroke-width="0.5"/>
<path d="M277.759 34.0152C265.759 40.5152 255.759 46.0152 245.259 51.5152C249.759 54.5151 260.259 60.5151 259.259 79.5151L284.259 79.0151V77.5151C292.759 76.5151 301.259 80.0151 299.759 66.0151L301.759 56.0151C301.759 54.5151 299.259 50.5151 296.759 50.0151C298.259 47.5151 295.259 38.5151 295.259 38.5151V37.0151L291.259 34.0151L286.259 32.5151L282.759 32.0151L277.759 34.0152Z" fill="#E56E90" stroke="black" stroke-width="0.5"/>
<path d="M280.759 26.5151L272.259 28.0151L282.759 32.0151C292.259 33.0151 291.258 34.5151 295.253 36.9353L294.759 28.5151L280.759 26.5151Z" fill="#E56E90"/>
<path d="M295.259 37.0151L295.253 36.9353M295.253 36.9353L294.759 28.5151L280.759 26.5151L272.259 28.0151L282.759 32.0151C292.259 33.0151 291.258 34.5151 295.253 36.9353Z" stroke="black" stroke-width="0.5"/>
<path d="M293.761 36.5153C293.261 34.0152 282.261 33.8151 276.761 34.3151" stroke="black" stroke-width="0.5"/>
<path d="M299.761 66.5151L260.261 68.5151C259.761 63.5151 257.594 59.3485 255.761 57.5151L301.761 55.0151M300.261 52.5151C289.261 51.0151 278.261 46.2151 266.261 40.2151M228.261 30.5151L272.261 28.0151L280.761 26.5151" stroke="black" stroke-width="0.5"/>
<path d="M290.261 40.5151C290.261 38.5151 289.261 34.5151 285.761 32.5151C287.982 32.5151 291.358 33.5555 293.87 35.9251C294.333 37.4551 293.261 41.0151 290.219 42.5151C290.205 41.9249 290.261 41.2394 290.261 40.5151Z" fill="#E56E90"/>
<path d="M272.261 43.0151C279.256 43.3649 285.273 43.47 290.654 44.0151M297.261 45.0151C295.158 44.5645 292.964 44.2492 290.654 44.0151M295.261 37.5151C294.843 36.93 294.374 36.4008 293.87 35.9251M290.654 44.0151C290.328 43.6704 290.234 43.1473 290.219 42.5151M290.219 42.5151C290.205 41.9249 290.261 41.2394 290.261 40.5151C290.261 38.5151 289.261 34.5151 285.761 32.5151C287.982 32.5151 291.358 33.5555 293.87 35.9251M290.219 42.5151C293.261 41.0151 294.333 37.4551 293.87 35.9251" stroke="black" stroke-width="0.5"/>
<path d="M290.261 40.5151C285.761 40.5151 283.761 36.5151 282.761 34.0151" stroke="black" stroke-width="0.5"/>
<path d="M132.259 12.6151C118.759 16.6151 106.759 22.5151 92.7588 35.5151C99.7588 23.5151 115.259 14.0151 130.759 9.01514L132.259 12.6151Z" stroke="black" stroke-width="0.5"/>
<path d="M130.759 9.01514C110.759 14.6892 92.7588 32.0151 84.7588 30.0151C97.7588 20.5151 113.759 12.0151 130.259 7.51514L130.759 9.01514Z" stroke="black" stroke-width="0.5"/>
<path d="M9.75946 48.0151H3.75946C1.25879 52.0151 1.25879 62.0151 1.75946 65.5151C0.258789 66.5151 0.259387 71.0151 1.25946 72.5151L5.25946 73.0151V74.5151L1.25946 76.5151V78.5151C5.25946 79.5151 13.7595 81.5151 21.7595 81.0151V79.5151H39.2595C38.5928 71.0151 40.2595 60.5151 49.2595 53.5151C46.7595 49.5151 39.7595 45.0151 36.7595 44.5151C26.7595 43.5151 11.7595 46.0151 9.75946 48.0151Z" stroke="black" stroke-width="0.5"/>
<path d="M92.7607 35.5151C74.9274 36.3485 43.2607 41.2151 32.7607 44.2151L36.7607 44.5151C41.7607 46.0151 47.2607 50.3485 49.2607 53.5151C62.2598 44.0151 87.7598 51.0151 86.2598 78.5151H96.2598C89.2598 67.5151 90.2598 45.5151 92.7607 35.5151Z" stroke="black" stroke-width="0.5"/>
<path d="M9.75879 48.0152H3.75879C36.259 28.5151 58.259 34.5151 84.2588 30.0151L93.259 35.5151C76.259 36.5151 47.2588 40.0151 33.2588 44.2151C25.2588 44.0151 11.2588 46.0151 9.75879 48.0152Z" stroke="black" stroke-width="0.5"/>
<path d="M36.7602 44.5152C29.2602 43.5151 12.2602 45.5151 9.76024 48.0152C8.96024 50.4152 12.0936 53.3485 13.7602 54.5151C23.2603 56.0151 36.7602 50.0151 36.7602 44.5152Z" stroke="black" stroke-width="0.5"/>
<path d="M3.75948 48.0151C10.7595 49.0151 4.75948 59.5151 1.75948 64.5151C1.25941 57.5151 1.75928 52.0151 3.75948 48.0151Z" stroke="black" stroke-width="0.5"/>
<path d="M21.7588 84.0151V79.5151H39.2588L39.7588 84.0151H21.7588Z" stroke="black" stroke-width="0.5"/>
<path d="M2.26074 65.5151C3.76074 68.0151 5.76074 71.1818 5.26074 73.0151M21.7607 79.5151C11.2607 80.0151 6.76074 76.0151 7.76074 72.5151C8.26074 72.0151 9.76074 70.5151 10.7607 70.5151" stroke="black" stroke-width="0.5"/>
<path d="M5.76074 65.5152C8.01068 65.0152 10.8856 64.3902 13.6355 64.0152M13.6355 64.0152C16.3856 63.6402 19.0107 63.5152 20.7607 64.0152C23.7607 65.5152 29.2607 70.5151 31.7607 74.5151C26.7607 75.5151 19.7607 75.0151 15.2607 75.0151C12.5682 75.0151 11.2607 72.6818 11.2607 71.5151C10.7607 68.5151 12.0106 65.3485 13.6355 64.0152Z" stroke="black" stroke-width="0.5"/>
<path d="M11.2607 71.0152C19.2607 69.5153 22.7607 72.1437 25.7607 73.6437M12.7607 74.0153L30.2607 73.5153" stroke="black" stroke-width="0.5"/>
<path d="M21.7588 82.5151H31.2588C33.2588 82.5151 34.7588 80.5151 34.2588 79.5151M37.7588 79.5151V84.0151" stroke="black" stroke-width="0.5"/>
<path d="M21.7607 81.0154C17.2607 81.0154 12.7607 81.5154 1.26069 78.5154V76.5154L5.26069 74.5154V73.0154L1.26069 72.5154C0.759766 71.0151 -0.240039 68.0151 1.75996 65.5151C1.2602 57.5151 1.7602 51.0151 3.76069 48.0149C36.2607 28.5153 58.2607 34.5153 84.2607 30.0153C162.261 -24.9848 244.261 12.0151 281.261 26.5153L294.761 28.5151L295.261 35.5151V38.5151C296.759 43.5151 298.094 48.0151 296.761 50.0151C299.261 51.0151 301.761 54.1818 301.761 56.0151L299.761 66.0151C300.213 76.863 297.805 77.0873 288.473 77.3998C287.482 77.433 285.413 77.4671 284.261 77.5151V79.0151L259.261 79.4462M21.7607 81.0154V84.0154H39.759L39.2607 79.5154M21.7607 81.0154V79.5154H39.2607M39.2607 79.5154C36.2607 38.0154 89.7607 41.0154 86.2607 80.0154V82.5151H212.761C206.761 39.0151 261.261 39.0151 259.261 79.4462M258.759 79.4462H259.261" stroke="black"/>
</svg>
