<svg width="303" height="96" viewBox="0 0 303 96" fill="none" xmlns="http://www.w3.org/2000/svg">
<circle cx="62.667" cy="74.3687" r="20.5" stroke="black"/>
<circle cx="235.667" cy="74.3687" r="20.5" stroke="black"/>
<path d="M132.665 12.8685L131.165 9.36851C171.165 1.36862 192.665 1.86865 231.665 13.3686L228.165 17.8686C208.165 9.86856 190.165 8.86856 174.165 8.36863C171.665 7.86863 167.665 7.86859 165.165 8.36851C155.165 8.36863 143.165 9.86863 132.665 12.8685Z" fill="#EDADBF" stroke="black" stroke-width="0.5"/>
<path d="M131.165 9.3687L130.665 7.8687C166.665 -3.13135 199.165 0.868526 234.665 9.8687L231.665 13.3687C191.665 0.868652 165.665 2.36865 131.165 9.3687Z" fill="#EDADBF" stroke="black" stroke-width="0.5"/>
<path d="M131.165 9.36876C182.665 -2.13126 211.165 7.86877 231.665 13.3688" stroke="black" stroke-width="0.5"/>
<path d="M170.667 30.3687L174.167 8.36865C207.667 9.36865 219.167 14.8687 223.667 16.3687L226.15 28.3687C199.16 28.3693 181.665 29.8688 170.667 30.3687Z" fill="#EDADBF"/>
<path d="M226.667 30.8687L223.667 16.3687C219.167 14.8687 207.667 9.36865 174.167 8.36865L170.667 30.3687C181.667 29.8687 199.167 28.3687 226.167 28.3687" stroke="black" stroke-width="0.5"/>
<path d="M165.167 8.36865C132.167 9.36865 112.167 18.3687 93.167 35.8687L95.667 33.8687L159.667 30.8687L165.167 8.36865Z" fill="#EDADBF" stroke="black" stroke-width="0.5"/>
<path d="M239.665 22.8687C235.998 20.202 230.165 17.8687 223.665 16.3687L226.165 28.3687H232.665C235.665 26.8687 238.665 24.6374 239.665 22.8687Z" fill="#EDADBF" stroke="black" stroke-width="0.5"/>
<path d="M96.667 78.8687H163.667L198.167 77.3687H212.667L213.167 82.8687H199.167H98.167H86.667V78.8687H96.667Z" fill="#EDADBF"/>
<path d="M96.667 78.8687H163.667L198.167 77.3687M96.667 78.8687C96.667 80.3687 97.167 81.3687 98.167 82.8687M96.667 78.8687H86.667V82.8687H98.167M198.167 77.3687L199.167 82.8687M198.167 77.3687H212.667L213.167 82.8687H199.167M199.167 82.8687H98.167" stroke="black" stroke-width="0.5"/>
<path d="M96.6661 78.8687C92.167 74.3687 89.167 52.3687 93.1661 35.8687L165.167 31.8687C161.167 36.8687 160.167 70.8687 163.667 78.8687H96.6661Z" fill="#EDADBF" stroke="black" stroke-width="0.5"/>
<path d="M228.667 30.8687L165.167 31.8687C161.167 36.8687 160.167 70.8687 163.667 78.8687L198.167 77.3687C202.667 75.8687 209.167 70.3687 228.667 30.8687Z" fill="#EDADBF" stroke="black" stroke-width="0.5"/>
<path d="M170.667 30.3687C166.167 30.8687 162.667 30.8687 159.667 30.8687L165.167 8.36873C168.167 7.86865 171.167 7.86865 174.167 8.36873L170.667 30.3687Z" fill="#EDADBF" stroke="black" stroke-width="0.5"/>
<path d="M99.167 32.3689C103.667 37.8689 110.667 34.3689 114.667 32.8689C115.667 17.3688 102.667 25.3688 99.167 32.3689Z" fill="#EDADBF" stroke="black" stroke-width="0.5"/>
<path d="M234.665 9.86865L231.665 13.3687C248.665 18.8687 259.165 21.8687 271.665 28.3687H273.165L281.165 26.8687C266.165 20.3687 258.665 17.8687 234.665 9.86865Z" fill="#E56E90" stroke="black" stroke-width="0.5"/>
<path d="M271.665 28.3687C261.165 22.8687 242.165 16.3687 231.665 13.3687L229.665 15.8687L244.665 23.3687C243.165 25.8687 239.165 27.8687 233.165 30.5687C245.165 29.8687 262.165 28.8687 271.665 28.3687Z" fill="#E56E90" stroke="black" stroke-width="0.5"/>
<path d="M277.167 34.6687L283.165 32.3687L272.666 28.3687L228.666 30.8687C221.166 45.8687 206.166 76.3687 198.166 77.3687H212.666C211.166 66.3687 220.666 42.8687 245.667 51.8687C256.167 46.3687 266.167 40.8687 277.167 34.6687Z" fill="#E56E90" stroke="black" stroke-width="0.5"/>
<path d="M278.165 34.3687C266.165 40.8687 256.165 46.3687 245.665 51.8687C250.165 54.8687 260.665 60.8687 259.665 79.8687L284.665 79.3687V77.8687C293.165 76.8687 301.665 80.3687 300.165 66.3687L302.165 56.3687C302.165 54.8687 299.665 50.8687 297.165 50.3687C298.665 47.8687 295.665 38.8687 295.665 38.8687V37.3687L291.665 34.3687L286.665 32.8687L283.165 32.3687L278.165 34.3687Z" fill="#E56E90" stroke="black" stroke-width="0.5"/>
<path d="M281.165 26.8687L272.665 28.3687L283.165 32.3687C292.665 33.3687 291.664 34.8687 295.659 37.2888L295.165 28.8687L281.165 26.8687Z" fill="#E56E90"/>
<path d="M295.665 37.3687L295.659 37.2888M295.659 37.2888L295.165 28.8687L281.165 26.8687L272.665 28.3687L283.165 32.3687C292.665 33.3687 291.664 34.8687 295.659 37.2888Z" stroke="black" stroke-width="0.5"/>
<path d="M294.167 36.8689C293.667 34.3687 282.667 34.1687 277.167 34.6687" stroke="black" stroke-width="0.5"/>
<path d="M300.167 66.8687L260.667 68.8687C260.167 63.8687 258 59.702 256.167 57.8687L302.167 55.3687M300.667 52.8687C289.667 51.3687 278.667 46.5687 266.667 40.5687M228.667 30.8687L272.667 28.3687L281.167 26.8687" stroke="black" stroke-width="0.5"/>
<path d="M290.667 40.8687C290.667 38.8687 289.667 34.8687 286.167 32.8687C288.388 32.8687 291.765 33.909 294.276 36.2786C294.74 37.8086 293.667 41.3687 290.625 42.8687C290.612 42.2784 290.667 41.5929 290.667 40.8687Z" fill="#E56E90"/>
<path d="M272.667 43.3687C279.663 43.7184 285.68 43.8235 291.06 44.3687M297.667 45.3687C295.564 44.918 293.371 44.6028 291.06 44.3687M295.667 37.8687C295.249 37.2835 294.78 36.7543 294.276 36.2786M291.06 44.3687C290.734 44.0239 290.64 43.5008 290.625 42.8687M290.625 42.8687C290.612 42.2784 290.667 41.5929 290.667 40.8687C290.667 38.8687 289.667 34.8687 286.167 32.8687C288.388 32.8687 291.765 33.909 294.276 36.2786M290.625 42.8687C293.667 41.3687 294.74 37.8086 294.276 36.2786" stroke="black" stroke-width="0.5"/>
<path d="M290.667 40.8687C286.167 40.8687 284.167 36.8687 283.167 34.3687" stroke="black" stroke-width="0.5"/>
<path d="M132.665 12.9686C119.165 16.9686 107.165 22.8687 93.165 35.8687C100.165 23.8687 115.665 14.3687 131.165 9.36865L132.665 12.9686Z" fill="#E56E90" stroke="black" stroke-width="0.5"/>
<path d="M131.165 9.36865C111.165 15.0427 93.165 32.3687 85.165 30.3687C98.165 20.8687 114.165 12.3687 130.665 7.86865L131.165 9.36865Z" fill="#E56E90" stroke="black" stroke-width="0.5"/>
<path d="M10.1657 48.3685H4.16571C1.66504 52.3685 1.66504 62.3685 2.16571 65.8685C0.665039 66.8685 0.665637 71.3685 1.66571 72.8685L5.66571 73.3685V74.8685L1.66571 76.8685V78.8685C5.66571 79.8685 14.1657 81.8685 22.1657 81.3685V79.8685H39.6657C38.999 71.3685 40.6657 60.8685 49.6657 53.8685C47.1657 49.8685 40.1657 45.3685 37.1657 44.8685C27.1657 43.8685 12.1657 46.3685 10.1657 48.3685Z" fill="#E56E90" stroke="black" stroke-width="0.5"/>
<path d="M93.167 35.8687C75.3337 36.702 43.667 41.5687 33.167 44.5687L37.167 44.8687C42.167 46.3687 47.667 50.702 49.667 53.8687C62.666 44.3687 88.166 51.3687 86.666 78.8687H96.666C89.666 67.8687 90.666 45.8687 93.167 35.8687Z" fill="#E56E90" stroke="black" stroke-width="0.5"/>
<path d="M10.165 48.3687H4.16504C36.6652 28.8686 58.6653 34.8687 84.665 30.3687L93.6653 35.8687C76.6653 36.8687 47.665 40.3686 33.665 44.5687C25.665 44.3686 11.665 46.3686 10.165 48.3687Z" fill="#E56E90" stroke="black" stroke-width="0.5"/>
<path d="M37.1665 44.8687C29.6665 43.8687 12.6665 45.8687 10.1665 48.3687C9.36649 50.7687 12.4998 53.702 14.1665 54.8687C23.6665 56.3687 37.1665 50.3687 37.1665 44.8687Z" fill="#E56E90" stroke="black" stroke-width="0.5"/>
<path d="M4.16573 48.3687C11.1657 49.3687 5.16573 59.8687 2.16573 64.8687C1.66566 57.8687 2.16553 52.3687 4.16573 48.3687Z" fill="#E56E90" stroke="black" stroke-width="0.5"/>
<path d="M22.165 84.3687V79.8687H39.665L40.165 84.3687H22.165Z" fill="#E56E90" stroke="black" stroke-width="0.5"/>
<path d="M2.66699 65.8687C4.16699 68.3687 6.16699 71.5353 5.66699 73.3687M22.167 79.8687C11.667 80.3687 7.16699 76.3687 8.16699 72.8687C8.66699 72.3687 10.167 70.8687 11.167 70.8687" stroke="black" stroke-width="0.5"/>
<path d="M32.167 74.8688C29.667 70.8688 24.167 65.8689 21.167 64.3689C19.4169 63.8688 16.7919 63.9938 14.0418 64.3689C12.4169 65.7022 11.167 68.8688 11.667 71.8688C11.667 73.0354 12.9744 75.3688 15.667 75.3688C20.167 75.3688 27.167 75.8688 32.167 74.8688Z" fill="#E56E90"/>
<path d="M6.16699 65.8689C8.41693 65.3688 11.2918 64.7438 14.0418 64.3689M14.0418 64.3689C16.7919 63.9938 19.4169 63.8688 21.167 64.3689C24.167 65.8689 29.667 70.8688 32.167 74.8688C27.167 75.8688 20.167 75.3688 15.667 75.3688C12.9744 75.3688 11.667 73.0354 11.667 71.8688C11.167 68.8688 12.4168 65.7022 14.0418 64.3689Z" stroke="black" stroke-width="0.5"/>
<path d="M11.667 71.3688C19.667 69.8689 23.167 72.4974 26.167 73.9974M13.167 74.3689L30.667 73.8689" stroke="black" stroke-width="0.5"/>
<path d="M22.165 82.8687H31.665C33.665 82.8687 35.165 80.8687 34.665 79.8687M38.165 79.8687V84.3687" stroke="black" stroke-width="0.5"/>
<path d="M22.1669 81.3689C17.6669 81.3689 13.1669 81.8689 1.66694 78.8689V76.8689L5.66694 74.8689V73.3689L1.66694 72.8689C1.16602 71.3687 0.166211 68.3687 2.16621 65.8687C1.66645 57.8687 2.16645 51.3687 4.16694 48.3684C36.6669 28.8688 58.6669 34.8688 84.6669 30.3688C162.667 -24.6313 244.667 12.3686 281.667 26.8688L295.167 28.8687L295.667 35.8687V38.8687C297.165 43.8687 298.5 48.3687 297.167 50.3687C299.667 51.3687 302.167 54.5353 302.167 56.3687L300.167 66.3687C300.619 77.2166 298.211 77.4408 288.879 77.7533C287.888 77.7865 285.819 77.8206 284.667 77.8687V79.3687L259.667 79.7997M22.1669 81.3689V84.3689H40.1653L39.6669 79.8689M22.1669 81.3689V79.8689H39.6669M39.6669 79.8689C36.6669 38.3689 90.1669 41.3689 86.6669 80.3689V82.8687H213.167C207.167 39.3687 261.667 39.3687 259.667 79.7997M259.165 79.7997H259.667" stroke="black"/>
</svg>
