<svg width="303" height="96" viewBox="0 0 303 96" fill="none" xmlns="http://www.w3.org/2000/svg">
<circle cx="62.8853" cy="74.1995" r="20.5" fill="#EFC7D3" stroke="black"/>
<circle cx="235.885" cy="74.1995" r="20.5" fill="#EFC7D3" stroke="black"/>
<path d="M132.884 12.6993L131.384 9.19932C171.384 1.19943 192.884 1.69946 231.884 13.1994L228.384 17.6994C208.384 9.69937 190.384 8.69937 174.384 8.19944C171.884 7.69944 167.884 7.6994 165.384 8.19932C155.384 8.19944 143.384 9.69944 132.884 12.6993Z" fill="#EDADBF" stroke="black" stroke-width="0.5"/>
<path d="M131.384 9.19951L130.884 7.69951C166.884 -3.30054 199.384 0.699337 234.884 9.69951L231.884 13.1995C191.884 0.699463 165.884 2.19946 131.384 9.19951Z" fill="#EDADBF" stroke="black" stroke-width="0.5"/>
<path d="M131.384 9.19933C182.884 -2.3007 211.384 7.69934 231.884 13.1993" stroke="black" stroke-width="0.5"/>
<path d="M170.885 30.1995L174.385 8.19946C207.885 9.19946 219.385 14.6995 223.885 16.1995L226.368 28.1995C199.378 28.2001 181.883 29.6996 170.885 30.1995Z" fill="#EDADBF"/>
<path d="M226.885 30.6995L223.885 16.1995C219.385 14.6995 207.885 9.19946 174.385 8.19946L170.885 30.1995C181.885 29.6995 199.385 28.1995 226.385 28.1995" stroke="black" stroke-width="0.5"/>
<path d="M165.385 8.19946C132.385 9.19946 112.385 18.1995 93.3853 35.6995L95.8853 33.6995L159.885 30.6995L165.385 8.19946Z" fill="#EDADBF" stroke="black" stroke-width="0.5"/>
<path d="M239.884 22.6995C236.217 20.0328 230.384 17.6995 223.884 16.1995L226.384 28.1995H232.884C235.884 26.6995 238.884 24.4682 239.884 22.6995Z" fill="#EDADBF" stroke="black" stroke-width="0.5"/>
<path d="M96.8853 78.6995H163.885L198.385 77.1995H212.885L213.385 82.6995H199.385H98.3853H86.8853V78.6995H96.8853Z" fill="#EDADBF"/>
<path d="M96.8853 78.6995H163.885L198.385 77.1995M96.8853 78.6995C96.8853 80.1995 97.3853 81.1995 98.3853 82.6995M96.8853 78.6995H86.8853V82.6995H98.3853M198.385 77.1995L199.385 82.6995M198.385 77.1995H212.885L213.385 82.6995H199.385M199.385 82.6995H98.3853" stroke="black" stroke-width="0.5"/>
<path d="M96.8844 78.6995C92.3852 74.1995 89.3853 52.1995 93.3844 35.6995L165.385 31.6995C161.385 36.6995 160.385 70.6995 163.885 78.6995H96.8844Z" fill="#EDADBF" stroke="black" stroke-width="0.5"/>
<path d="M228.885 30.6995L165.385 31.6995C161.385 36.6995 160.385 70.6995 163.885 78.6995L198.385 77.1995C202.885 75.6995 209.385 70.1995 228.885 30.6995Z" fill="#EDADBF" stroke="black" stroke-width="0.5"/>
<path d="M170.885 30.1995C166.385 30.6995 162.885 30.6995 159.885 30.6995L165.385 8.19954C168.385 7.69946 171.385 7.69946 174.385 8.19954L170.885 30.1995Z" fill="#EDADBF" stroke="black" stroke-width="0.5"/>
<path d="M99.3853 32.1995C103.885 37.6995 110.885 34.1995 114.885 32.6995C115.885 17.1994 102.885 25.1993 99.3853 32.1995Z" fill="#EDADBF" stroke="black" stroke-width="0.5"/>
<path d="M234.884 9.69946L231.884 13.1995C248.884 18.6995 259.384 21.6995 271.884 28.1995H273.384L281.384 26.6995C266.384 20.1995 258.884 17.6995 234.884 9.69946Z" fill="#EFC7D3" stroke="black" stroke-width="0.5"/>
<path d="M271.884 28.1995C261.384 22.6995 242.384 16.1995 231.884 13.1995L229.884 15.6995L244.884 23.1995C243.384 25.6995 239.384 27.6995 233.384 30.3995C245.384 29.6995 262.384 28.6995 271.884 28.1995Z" fill="#EFC7D3" stroke="black" stroke-width="0.5"/>
<path d="M277.385 34.4995L283.384 32.1995L272.884 28.1995L228.884 30.6995C221.384 45.6995 206.384 76.1995 198.384 77.1995H212.884C211.384 66.1995 220.884 42.6995 245.885 51.6995C256.385 46.1995 266.385 40.6995 277.385 34.4995Z" fill="#EFC7D3" stroke="black" stroke-width="0.5"/>
<path d="M278.384 34.1995C266.384 40.6995 256.384 46.1995 245.884 51.6995C250.384 54.6995 260.884 60.6995 259.884 79.6995L284.884 79.1995V77.6995C293.384 76.6995 301.884 80.1995 300.384 66.1995L302.384 56.1995C302.384 54.6995 299.884 50.6995 297.384 50.1995C298.884 47.6995 295.884 38.6995 295.884 38.6995V37.1995L291.884 34.1995L286.884 32.6995L283.384 32.1995L278.384 34.1995Z" fill="#EFC7D3" stroke="black" stroke-width="0.5"/>
<path d="M281.384 26.6995L272.884 28.1995L283.384 32.1995C292.884 33.1995 291.883 34.6995 295.878 37.1196L295.384 28.6995L281.384 26.6995Z" fill="#EFC7D3"/>
<path d="M295.884 37.1995L295.878 37.1196M295.878 37.1196L295.384 28.6995L281.384 26.6995L272.884 28.1995L283.384 32.1995C292.884 33.1995 291.883 34.6995 295.878 37.1196Z" stroke="black" stroke-width="0.5"/>
<path d="M294.385 36.6997C293.885 34.1996 282.885 33.9995 277.385 34.4995" stroke="black" stroke-width="0.5"/>
<path d="M300.385 66.6995L260.885 68.6995C260.385 63.6995 258.219 59.5328 256.385 57.6995L302.385 55.1995M300.885 52.6995C289.885 51.1995 278.885 46.3995 266.885 40.3995M228.885 30.6995L272.885 28.1995L281.385 26.6995" stroke="black" stroke-width="0.5"/>
<path d="M290.885 40.6995C290.885 38.6995 289.885 34.6995 286.385 32.6995C288.606 32.6995 291.983 33.7399 294.494 36.1094C294.958 37.6395 293.885 41.1995 290.843 42.6995C290.83 42.1092 290.885 41.4238 290.885 40.6995Z" fill="#EFC7D3"/>
<path d="M272.885 43.1995C279.881 43.5492 285.898 43.6543 291.278 44.1995M297.885 45.1995C295.782 44.7488 293.589 44.4336 291.278 44.1995M295.885 37.6995C295.467 37.1143 294.998 36.5851 294.494 36.1094M291.278 44.1995C290.952 43.8547 290.858 43.3317 290.843 42.6995M290.843 42.6995C290.83 42.1092 290.885 41.4238 290.885 40.6995C290.885 38.6995 289.885 34.6995 286.385 32.6995C288.606 32.6995 291.983 33.7399 294.494 36.1094M290.843 42.6995C293.885 41.1995 294.958 37.6395 294.494 36.1094" stroke="black" stroke-width="0.5"/>
<path d="M290.885 40.6995C286.385 40.6995 284.385 36.6995 283.385 34.1995" stroke="black" stroke-width="0.5"/>
<path d="M132.884 12.7994C119.384 16.7994 107.384 22.6995 93.3838 35.6995C100.384 23.6995 115.884 14.1995 131.384 9.19946L132.884 12.7994Z" fill="#EDADBF" stroke="black" stroke-width="0.5"/>
<path d="M131.384 9.19946C111.384 14.8735 93.3838 32.1995 85.3838 30.1995C98.3838 20.6995 114.384 12.1995 130.884 7.69946L131.384 9.19946Z" fill="#EDADBF" stroke="black" stroke-width="0.5"/>
<path d="M10.3845 48.1993H4.38446C1.88379 52.1993 1.88379 62.1993 2.38446 65.6993C0.883789 66.6993 0.884387 71.1993 1.88446 72.6993L5.88446 73.1993V74.6993L1.88446 76.6993V78.6993C5.88446 79.6993 14.3845 81.6993 22.3845 81.1993V79.6993H39.8845C39.2178 71.1993 40.8845 60.6993 49.8845 53.6993C47.3845 49.6993 40.3845 45.1993 37.3845 44.6993C27.3845 43.6993 12.3845 46.1993 10.3845 48.1993Z" fill="#EDADBF" stroke="black" stroke-width="0.5"/>
<path d="M93.3853 35.6995C75.5519 36.5328 43.8853 41.3995 33.3853 44.3995L37.3853 44.6995C42.3853 46.1995 47.8853 50.5328 49.8853 53.6995C62.8843 44.1995 88.3843 51.1995 86.8843 78.6995H96.8843C89.8843 67.6995 90.8843 45.6995 93.3853 35.6995Z" fill="#EDADBF" stroke="black" stroke-width="0.5"/>
<path d="M10.3838 48.1995H4.38379C36.884 28.6994 58.884 34.6995 84.8838 30.1995L93.884 35.6995C76.884 36.6995 47.8838 40.1995 33.8838 44.3995C25.8838 44.1995 11.8838 46.1995 10.3838 48.1995Z" fill="#EDADBF" stroke="black" stroke-width="0.5"/>
<path d="M37.3852 44.6995C29.8852 43.6995 12.8852 45.6995 10.3852 48.1995C9.58524 50.5995 12.7186 53.5328 14.3852 54.6995C23.8853 56.1995 37.3852 50.1995 37.3852 44.6995Z" fill="#EDADBF" stroke="black" stroke-width="0.5"/>
<path d="M4.38448 48.1995C11.3845 49.1995 5.38448 59.6995 2.38448 64.6995C1.88441 57.6995 2.38428 52.1995 4.38448 48.1995Z" fill="#EDADBF" stroke="black" stroke-width="0.5"/>
<path d="M22.3838 84.1995V79.6995H39.8838L40.3838 84.1995H22.3838Z" fill="#EDADBF" stroke="black" stroke-width="0.5"/>
<path d="M2.88574 65.6992C4.38574 68.1992 6.38574 71.3659 5.88574 73.1992M22.3857 79.6992C11.8857 80.1992 7.38574 76.1992 8.38574 72.6992C8.88574 72.1992 10.3857 70.6992 11.3857 70.6992" stroke="black" stroke-width="0.5"/>
<path d="M32.3857 74.6993C29.8857 70.6993 24.3857 65.6994 21.3857 64.1994C19.6357 63.6994 17.0106 63.8244 14.2605 64.1994C12.6356 65.5327 11.3857 68.6993 11.8857 71.6993C11.8857 72.866 13.1932 75.1993 15.8857 75.1993C20.3857 75.1993 27.3857 75.6993 32.3857 74.6993Z" fill="#EDADBF"/>
<path d="M6.38574 65.6994C8.63568 65.1994 11.5106 64.5744 14.2605 64.1994M14.2605 64.1994C17.0106 63.8244 19.6357 63.6994 21.3857 64.1994C24.3857 65.6994 29.8857 70.6993 32.3857 74.6993C27.3857 75.6993 20.3857 75.1993 15.8857 75.1993C13.1932 75.1993 11.8857 72.866 11.8857 71.6993C11.3857 68.6993 12.6356 65.5327 14.2605 64.1994Z" stroke="black" stroke-width="0.5"/>
<path d="M11.8857 71.1994C19.8857 69.6995 23.3857 72.3279 26.3857 73.8279M13.3857 74.1995L30.8857 73.6995" stroke="black" stroke-width="0.5"/>
<path d="M22.3838 82.6992H31.8838C33.8838 82.6992 35.3838 80.6992 34.8838 79.6992M38.3838 79.6992V84.1992" stroke="black" stroke-width="0.5"/>
<path d="M22.3852 81.1997C17.8852 81.1997 13.3852 81.6997 1.8852 78.6997V76.6997L5.8852 74.6997V73.1997L1.8852 72.6997C1.38428 71.1995 0.384473 68.1995 2.38447 65.6995C1.88471 57.6995 2.38471 51.1995 4.3852 48.1992C36.8852 28.6996 58.8852 34.6997 84.8852 30.1997C162.885 -24.8005 244.885 12.1994 281.885 26.6996L295.385 28.6995L295.885 35.6995V38.6995C297.384 43.6995 298.719 48.1995 297.385 50.1995C299.885 51.1995 302.385 54.3661 302.385 56.1995L300.385 66.1995C300.837 77.0474 298.429 77.2717 289.098 77.5841C288.106 77.6173 286.037 77.6515 284.885 77.6995V79.1995L259.885 79.6305M22.3852 81.1997V84.1997H40.3835L39.8852 79.6997M22.3852 81.1997V79.6997H39.8852M39.8852 79.6997C36.8852 38.1997 90.3852 41.1997 86.8852 80.1997V82.6995H213.385C207.385 39.1995 261.885 39.1995 259.885 79.6305M259.384 79.6305H259.885" stroke="black"/>
</svg>
