<svg width="304" height="96" viewBox="0 0 304 96" fill="none" xmlns="http://www.w3.org/2000/svg">
<circle cx="63.0835" cy="74.0605" r="20.5" fill="#EDADBF" stroke="black"/>
<circle cx="236.083" cy="74.0605" r="20.5" fill="#EDADBF" stroke="black"/>
<path d="M133.082 12.5604L131.582 9.0604C171.582 1.06051 193.082 1.56055 232.082 13.0605L228.582 17.5605C208.582 9.56046 190.582 8.56046 174.582 8.06052C172.082 7.56052 168.082 7.56049 165.582 8.0604C155.582 8.06052 143.582 9.56052 133.082 12.5604Z" fill="#E0426F" stroke="black" stroke-width="0.5"/>
<path d="M131.582 9.06059L131.082 7.56059C167.082 -3.43945 199.582 0.560421 235.082 9.56059L232.082 13.0606C192.082 0.560547 166.082 2.06055 131.582 9.06059Z" fill="#E0426F" stroke="black" stroke-width="0.5"/>
<path d="M131.582 9.06066C183.082 -2.43937 211.582 7.56067 232.082 13.0607" stroke="black" stroke-width="0.5"/>
<path d="M171.083 30.0605L174.583 8.06055C208.083 9.06055 219.583 14.5605 224.083 16.0605L226.566 28.0605C199.576 28.0612 182.081 29.5607 171.083 30.0605Z" fill="#E0426F"/>
<path d="M227.083 30.5605L224.083 16.0605C219.583 14.5605 208.083 9.06055 174.583 8.06055L171.083 30.0605C182.083 29.5605 199.583 28.0605 226.583 28.0605" stroke="black" stroke-width="0.5"/>
<path d="M165.583 8.06055C132.583 9.06055 112.583 18.0605 93.5835 35.5605L96.0835 33.5605L160.083 30.5605L165.583 8.06055Z" fill="#E0426F" stroke="black" stroke-width="0.5"/>
<path d="M240.082 22.5605C236.415 19.8939 230.582 17.5605 224.082 16.0605L226.582 28.0605H233.082C236.082 26.5605 239.082 24.3293 240.082 22.5605Z" fill="#E0426F" stroke="black" stroke-width="0.5"/>
<path d="M97.0835 78.5605H164.083L198.583 77.0605H213.083L213.583 82.5605H199.583H98.5835H87.0835V78.5605H97.0835Z" fill="#E0426F"/>
<path d="M97.0835 78.5605H164.083L198.583 77.0605M97.0835 78.5605C97.0835 80.0605 97.5835 81.0605 98.5835 82.5605M97.0835 78.5605H87.0835V82.5605H98.5835M198.583 77.0605L199.583 82.5605M198.583 77.0605H213.083L213.583 82.5605H199.583M199.583 82.5605H98.5835" stroke="black" stroke-width="0.5"/>
<path d="M97.0826 78.5605C92.5835 74.0605 89.5835 52.0605 93.5826 35.5605L165.583 31.5605C161.583 36.5605 160.583 70.5605 164.083 78.5605H97.0826Z" fill="#E0426F" stroke="black" stroke-width="0.5"/>
<path d="M229.083 30.5605L165.583 31.5605C161.583 36.5605 160.583 70.5605 164.083 78.5605L198.583 77.0605C203.083 75.5605 209.583 70.0605 229.083 30.5605Z" fill="#E0426F" stroke="black" stroke-width="0.5"/>
<path d="M171.083 30.0606C166.583 30.5606 163.083 30.5606 160.083 30.5606L165.583 8.06062C168.583 7.56055 171.583 7.56055 174.583 8.06062L171.083 30.0606Z" fill="#E0426F" stroke="black" stroke-width="0.5"/>
<path d="M99.5835 32.0608C104.083 37.5608 111.083 34.0608 115.083 32.5608C116.083 17.0607 103.083 25.0607 99.5835 32.0608Z" fill="#E0426F" stroke="black" stroke-width="0.5"/>
<path d="M235.082 9.56055L232.082 13.0605C249.082 18.5605 259.582 21.5605 272.082 28.0605H273.582L281.582 26.5605C266.582 20.0605 259.082 17.5605 235.082 9.56055Z" fill="#EFC7D3" stroke="black" stroke-width="0.5"/>
<path d="M272.082 28.0605C261.582 22.5605 242.582 16.0605 232.082 13.0605L230.082 15.5605L245.082 23.0605C243.582 25.5605 239.582 27.5605 233.582 30.2605C245.582 29.5605 262.582 28.5605 272.082 28.0605Z" fill="#EFC7D3" stroke="black" stroke-width="0.5"/>
<path d="M277.583 34.3605L283.582 32.0605L273.083 28.0605L229.083 30.5605C221.583 45.5605 206.583 76.0605 198.583 77.0605H213.083C211.583 66.0605 221.083 42.5605 246.083 51.5605C256.583 46.0605 266.583 40.5605 277.583 34.3605Z" fill="#EFC7D3" stroke="black" stroke-width="0.5"/>
<path d="M278.582 34.0606C266.582 40.5606 256.582 46.0606 246.082 51.5606C250.582 54.5605 261.082 60.5605 260.082 79.5605L285.082 79.0605V77.5605C293.582 76.5605 302.082 80.0605 300.582 66.0605L302.582 56.0605C302.582 54.5605 300.082 50.5605 297.582 50.0605C299.082 47.5605 296.082 38.5605 296.082 38.5605V37.0605L292.082 34.0605L287.082 32.5605L283.582 32.0605L278.582 34.0606Z" fill="#EFC7D3" stroke="black" stroke-width="0.5"/>
<path d="M281.582 26.5605L273.082 28.0605L283.582 32.0605C293.082 33.0605 292.081 34.5605 296.076 36.9807L295.582 28.5605L281.582 26.5605Z" fill="#EFC7D3"/>
<path d="M296.082 37.0605L296.076 36.9807M296.076 36.9807L295.582 28.5605L281.582 26.5605L273.082 28.0605L283.582 32.0605C293.082 33.0605 292.081 34.5605 296.076 36.9807Z" stroke="black" stroke-width="0.5"/>
<path d="M294.583 36.5607C294.083 34.0606 283.083 33.8606 277.583 34.3606" stroke="black" stroke-width="0.5"/>
<path d="M300.583 66.5605L261.083 68.5605C260.583 63.5605 258.417 59.3939 256.583 57.5605L302.583 55.0605M301.083 52.5605C290.083 51.0605 279.083 46.2605 267.083 40.2605M229.083 30.5605L273.083 28.0605L281.583 26.5605" stroke="black" stroke-width="0.5"/>
<path d="M291.083 40.5605C291.083 38.5605 290.083 34.5605 286.583 32.5605C288.804 32.5605 292.181 33.6009 294.692 35.9705C295.156 37.5005 294.083 41.0605 291.042 42.5605C291.028 41.9703 291.083 41.2848 291.083 40.5605Z" fill="#EFC7D3"/>
<path d="M273.083 43.0605C280.079 43.4103 286.096 43.5154 291.477 44.0605M298.083 45.0605C295.981 44.6099 293.787 44.2946 291.477 44.0605M296.083 37.5605C295.666 36.9754 295.196 36.4462 294.692 35.9705M291.477 44.0605C291.15 43.7158 291.056 43.1927 291.042 42.5605M291.042 42.5605C291.028 41.9703 291.083 41.2848 291.083 40.5605C291.083 38.5605 290.083 34.5605 286.583 32.5605C288.804 32.5605 292.181 33.6009 294.692 35.9705M291.042 42.5605C294.083 41.0605 295.156 37.5005 294.692 35.9705" stroke="black" stroke-width="0.5"/>
<path d="M291.083 40.5605C286.583 40.5605 284.583 36.5605 283.583 34.0605" stroke="black" stroke-width="0.5"/>
<path d="M133.082 12.6605C119.582 16.6605 107.582 22.5605 93.582 35.5605C100.582 23.5605 116.082 14.0605 131.582 9.06055L133.082 12.6605Z" fill="#E56E90" stroke="black" stroke-width="0.5"/>
<path d="M131.582 9.06055C111.582 14.7346 93.582 32.0605 85.582 30.0605C98.582 20.5605 114.582 12.0605 131.082 7.56055L131.582 9.06055Z" fill="#E56E90" stroke="black" stroke-width="0.5"/>
<path d="M10.5827 48.0604H4.5827C2.08203 52.0604 2.08203 62.0604 2.5827 65.5604C1.08203 66.5604 1.08263 71.0604 2.0827 72.5604L6.0827 73.0604V74.5604L2.0827 76.5604V78.5604C6.0827 79.5604 14.5827 81.5604 22.5827 81.0604V79.5604H40.0827C39.416 71.0604 41.0827 60.5604 50.0827 53.5604C47.5827 49.5604 40.5827 45.0604 37.5827 44.5604C27.5827 43.5604 12.5827 46.0604 10.5827 48.0604Z" fill="#E56E90" stroke="black" stroke-width="0.5"/>
<path d="M93.5835 35.5605C75.7502 36.3939 44.0835 41.2605 33.5835 44.2605L37.5835 44.5605C42.5835 46.0605 48.0835 50.3939 50.0835 53.5605C63.0825 44.0605 88.5825 51.0605 87.0825 78.5605H97.0825C90.0825 67.5605 91.0825 45.5605 93.5835 35.5605Z" fill="#E56E90" stroke="black" stroke-width="0.5"/>
<path d="M10.582 48.0606H4.58203C37.0822 28.5605 59.0823 34.5605 85.082 30.0605L94.0823 35.5605C77.0823 36.5605 48.082 40.0605 34.082 44.2606C26.082 44.0605 12.082 46.0605 10.582 48.0606Z" fill="#E56E90" stroke="black" stroke-width="0.5"/>
<path d="M37.5835 44.5606C30.0835 43.5605 13.0835 45.5605 10.5835 48.0606C9.78349 50.4606 12.9168 53.3939 14.5835 54.5605C24.0835 56.0605 37.5835 50.0605 37.5835 44.5606Z" fill="#E56E90" stroke="black" stroke-width="0.5"/>
<path d="M4.58273 48.0605C11.5827 49.0605 5.58273 59.5605 2.58273 64.5605C2.08266 57.5605 2.58252 52.0605 4.58273 48.0605Z" fill="#E56E90" stroke="black" stroke-width="0.5"/>
<path d="M22.582 84.0605V79.5605H40.082L40.582 84.0605H22.582Z" fill="#E56E90" stroke="black" stroke-width="0.5"/>
<path d="M3.08398 65.5605C4.58398 68.0605 6.58398 71.2272 6.08398 73.0605M22.584 79.5605C12.084 80.0605 7.58398 76.0605 8.58398 72.5605C9.08398 72.0605 10.584 70.5605 11.584 70.5605" stroke="black" stroke-width="0.5"/>
<path d="M32.584 74.5607C30.084 70.5607 24.584 65.5607 21.584 64.0607C19.8339 63.5607 17.2088 63.6857 14.4588 64.0607C12.8338 65.3941 11.584 68.5607 12.084 71.5607C12.084 72.7273 13.3914 75.0607 16.084 75.0607C20.584 75.0607 27.584 75.5607 32.584 74.5607Z" fill="#E56E90"/>
<path d="M6.58398 65.5607C8.83393 65.0607 11.7088 64.4357 14.4588 64.0607M14.4588 64.0607C17.2088 63.6857 19.8339 63.5607 21.584 64.0607C24.584 65.5607 30.084 70.5607 32.584 74.5607C27.584 75.5607 20.584 75.0607 16.084 75.0607C13.3914 75.0607 12.084 72.7273 12.084 71.5607C11.584 68.5607 12.8338 65.3941 14.4588 64.0607Z" stroke="black" stroke-width="0.5"/>
<path d="M12.084 71.0607C20.084 69.5608 23.584 72.1893 26.584 73.6893M13.584 74.0608L31.084 73.5608" stroke="black" stroke-width="0.5"/>
<path d="M22.582 82.5605H32.082C34.082 82.5605 35.582 80.5605 35.082 79.5605M38.582 79.5605V84.0605" stroke="black" stroke-width="0.5"/>
<path d="M22.5834 81.0608C18.0834 81.0608 13.5834 81.5608 2.08344 78.5608V76.5608L6.08344 74.5608V73.0608L2.08344 72.5608C1.58252 71.0605 0.582715 68.0605 2.58271 65.5605C2.08295 57.5605 2.58295 51.0605 4.58344 48.0603C37.0834 28.5607 59.0834 34.5607 85.0834 30.0607C163.083 -24.9394 245.083 12.0605 282.083 26.5607L295.583 28.5605L296.083 35.5605V38.5605C297.582 43.5605 298.917 48.0605 297.583 50.0605C300.083 51.0605 302.583 54.2272 302.583 56.0605L300.583 66.0605C301.035 76.9085 298.627 77.1327 289.296 77.4452C288.305 77.4784 286.236 77.5125 285.083 77.5605V79.0605L260.083 79.4916M22.5834 81.0608V84.0608H40.5818L40.0835 79.5608M22.5834 81.0608V79.5608H40.0835M40.0835 79.5608C37.0835 38.0608 90.5834 41.0608 87.0834 80.0608V82.5605H213.583C207.583 39.0605 262.083 39.0605 260.083 79.4916M259.582 79.4916H260.083" stroke="black"/>
</svg>
