<svg width="303" height="95" viewBox="0 0 303 95" fill="none" xmlns="http://www.w3.org/2000/svg">
<circle cx="62.4473" cy="73.8762" r="20.5" fill="#E0426F" stroke="black"/>
<circle cx="235.447" cy="73.8762" r="20.5" fill="#E0426F" stroke="black"/>
<path d="M132.445 12.3761L130.945 8.87608C170.945 0.876188 192.445 1.37622 231.445 12.8762L227.945 17.3762C207.945 9.37613 189.945 8.37613 173.945 7.8762C171.445 7.3762 167.445 7.37616 164.945 7.87608C154.945 7.8762 142.945 9.3762 132.445 12.3761Z" fill="#E56E90" stroke="black" stroke-width="0.5"/>
<path d="M130.945 8.87627L130.445 7.37626C166.445 -3.62378 198.945 0.376095 234.445 9.37627L231.445 12.8763C191.445 0.376221 165.445 1.87622 130.945 8.87627Z" fill="#E56E90" stroke="black" stroke-width="0.5"/>
<path d="M130.945 8.87609C182.445 -2.62394 210.945 7.3761 231.445 12.8761" stroke="black" stroke-width="0.5"/>
<path d="M170.447 29.8762L173.947 7.87622C207.447 8.87622 218.947 14.3762 223.447 15.8762L225.93 27.8762C198.94 27.8769 181.445 29.3763 170.447 29.8762Z" fill="#E56E90"/>
<path d="M226.447 30.3762L223.447 15.8762C218.947 14.3762 207.447 8.87622 173.947 7.87622L170.447 29.8762C181.447 29.3762 198.947 27.8762 225.947 27.8762" stroke="black" stroke-width="0.5"/>
<path d="M164.947 7.87622C131.947 8.87622 111.947 17.8762 92.9473 35.3762L95.4473 33.3762L159.447 30.3762L164.947 7.87622Z" fill="#E56E90" stroke="black" stroke-width="0.5"/>
<path d="M239.445 22.3762C235.779 19.7096 229.945 17.3762 223.445 15.8762L225.945 27.8762H232.445C235.445 26.3762 238.445 24.145 239.445 22.3762Z" fill="#E56E90" stroke="black" stroke-width="0.5"/>
<path d="M96.4473 78.3762H163.447L197.947 76.8762H212.447L212.947 82.3762H198.947H97.9473H86.4473V78.3762H96.4473Z" fill="#E56E90"/>
<path d="M96.4473 78.3762H163.447L197.947 76.8762M96.4473 78.3762C96.4473 79.8762 96.9473 80.8762 97.9473 82.3762M96.4473 78.3762H86.4473V82.3762H97.9473M197.947 76.8762L198.947 82.3762M197.947 76.8762H212.447L212.947 82.3762H198.947M198.947 82.3762H97.9473" stroke="black" stroke-width="0.5"/>
<path d="M96.4464 78.3762C91.9473 73.8762 88.9473 51.8762 92.9464 35.3762L164.947 31.3762C160.947 36.3762 159.947 70.3762 163.447 78.3762H96.4464Z" fill="#E56E90" stroke="black" stroke-width="0.5"/>
<path d="M228.447 30.3762L164.947 31.3762C160.947 36.3762 159.948 70.3762 163.447 78.3762L197.947 76.8762C202.447 75.3762 208.947 69.8762 228.447 30.3762Z" fill="#E56E90" stroke="black" stroke-width="0.5"/>
<path d="M170.447 29.8763C165.947 30.3763 162.447 30.3763 159.447 30.3763L164.947 7.87629C167.947 7.37622 170.947 7.37622 173.947 7.87629L170.447 29.8763Z" fill="#E56E90" stroke="black" stroke-width="0.5"/>
<path d="M98.9473 31.8762C103.447 37.3762 110.447 33.8762 114.447 32.3762C115.447 16.8761 102.447 24.8761 98.9473 31.8762Z" fill="#E56E90" stroke="black" stroke-width="0.5"/>
<path d="M234.445 9.37622L231.445 12.8762C248.445 18.3762 258.945 21.3762 271.445 27.8762H272.945L280.945 26.3762C265.945 19.8762 258.445 17.3762 234.445 9.37622Z" fill="#E0426F" stroke="black" stroke-width="0.5"/>
<path d="M271.445 27.8762C260.945 22.3762 241.945 15.8762 231.445 12.8762L229.445 15.3762L244.445 22.8762C242.945 25.3762 238.945 27.3762 232.945 30.0762C244.945 29.3762 261.945 28.3762 271.445 27.8762Z" fill="#E0426F" stroke="black" stroke-width="0.5"/>
<path d="M276.947 34.1762L282.946 31.8762L272.446 27.8762L228.446 30.3762C220.946 45.3762 205.946 75.8762 197.946 76.8762H212.446C210.946 65.8762 220.446 42.3762 245.447 51.3762C255.947 45.8762 265.947 40.3762 276.947 34.1762Z" fill="#E0426F" stroke="black" stroke-width="0.5"/>
<path d="M277.945 33.8762C265.945 40.3762 255.945 45.8762 245.445 51.3762C249.945 54.3762 260.445 60.3762 259.445 79.3762L284.445 78.8762V77.3762C292.945 76.3762 301.445 79.8762 299.945 65.8762L301.945 55.8762C301.945 54.3762 299.445 50.3762 296.945 49.8762C298.445 47.3762 295.445 38.3762 295.445 38.3762V36.8762L291.445 33.8762L286.445 32.3762L282.945 31.8762L277.945 33.8762Z" fill="#E0426F" stroke="black" stroke-width="0.5"/>
<path d="M280.945 26.3762L272.445 27.8762L282.945 31.8762C292.445 32.8762 291.444 34.3762 295.439 36.7964L294.945 28.3762L280.945 26.3762Z" fill="#E0426F"/>
<path d="M295.445 36.8762L295.439 36.7964M295.439 36.7964L294.945 28.3762L280.945 26.3762L272.445 27.8762L282.945 31.8762C292.445 32.8762 291.444 34.3762 295.439 36.7964Z" stroke="black" stroke-width="0.5"/>
<path d="M293.947 36.3764C293.447 33.8763 282.447 33.6762 276.947 34.1762" stroke="black" stroke-width="0.5"/>
<path d="M299.947 66.3762L260.447 68.3762C259.947 63.3762 257.781 59.2096 255.947 57.3762L301.947 54.8762M300.447 52.3762C289.447 50.8762 278.447 46.0762 266.447 40.0762M228.447 30.3762L272.447 27.8762L280.947 26.3762" stroke="black" stroke-width="0.5"/>
<path d="M290.447 40.3762C290.447 38.3762 289.447 34.3762 285.947 32.3762C288.168 32.3762 291.545 33.4166 294.056 35.7862C294.52 37.3162 293.447 40.8762 290.405 42.3762C290.392 41.7859 290.447 41.1005 290.447 40.3762Z" fill="#E0426F"/>
<path d="M272.447 42.8762C279.443 43.226 285.46 43.3311 290.84 43.8762M297.447 44.8762C295.344 44.4256 293.151 44.1103 290.84 43.8762M295.447 37.3762C295.029 36.7911 294.56 36.2619 294.056 35.7862M290.84 43.8762C290.514 43.5315 290.42 43.0084 290.405 42.3762M290.405 42.3762C290.392 41.7859 290.447 41.1005 290.447 40.3762C290.447 38.3762 289.447 34.3762 285.947 32.3762C288.168 32.3762 291.545 33.4166 294.056 35.7862M290.405 42.3762C293.447 40.8762 294.52 37.3162 294.056 35.7862" stroke="black" stroke-width="0.5"/>
<path d="M290.447 40.3762C285.947 40.3762 283.947 36.3762 282.947 33.8762" stroke="black" stroke-width="0.5"/>
<path d="M132.445 12.4762C118.945 16.4762 106.945 22.3762 92.9453 35.3762C99.9453 23.3762 115.445 13.8762 130.945 8.87622L132.445 12.4762Z" fill="#EFC7D3" stroke="black" stroke-width="0.5"/>
<path d="M130.945 8.87622C110.945 14.5503 92.9453 31.8762 84.9453 29.8762C97.9453 20.3762 113.945 11.8762 130.445 7.37622L130.945 8.87622Z" fill="#EFC7D3" stroke="black" stroke-width="0.5"/>
<path d="M9.94598 47.8761H3.94598C1.44531 51.8761 1.44531 61.8761 1.94598 65.3761C0.445312 66.3761 0.44591 70.8761 1.44598 72.3761L5.44598 72.8761V74.3761L1.44598 76.3761V78.3761C5.44598 79.3761 13.946 81.3761 21.946 80.8761V79.3761H39.446C38.7793 70.8761 40.446 60.3761 49.446 53.3761C46.946 49.3761 39.946 44.8761 36.946 44.3761C26.946 43.3761 11.946 45.8761 9.94598 47.8761Z" fill="#EFC7D3" stroke="black" stroke-width="0.5"/>
<path d="M92.9473 35.3762C75.1139 36.2096 43.4473 41.0762 32.9473 44.0762L36.9473 44.3762C41.9473 45.8762 47.4473 50.2096 49.4473 53.3762C62.4463 43.8762 87.9463 50.8762 86.4463 78.3762H96.4463C89.4463 67.3762 90.4463 45.3762 92.9473 35.3762Z" fill="#EFC7D3" stroke="black" stroke-width="0.5"/>
<path d="M9.94531 47.8763H3.94531C36.4455 28.3762 58.4456 34.3762 84.4453 29.8762L93.4456 35.3762C76.4456 36.3762 47.4453 39.8762 33.4453 44.0762C25.4453 43.8762 11.4453 45.8762 9.94531 47.8763Z" fill="#EFC7D3" stroke="black" stroke-width="0.5"/>
<path d="M36.9468 44.3763C29.4468 43.3762 12.4468 45.3762 9.94677 47.8763C9.14677 50.2762 12.2801 53.2096 13.9468 54.3762C23.4468 55.8762 36.9468 49.8762 36.9468 44.3763Z" fill="#EFC7D3" stroke="black" stroke-width="0.5"/>
<path d="M3.94601 47.8762C10.946 48.8762 4.94601 59.3762 1.94601 64.3762C1.44594 57.3762 1.9458 51.8762 3.94601 47.8762Z" fill="#EFC7D3" stroke="black" stroke-width="0.5"/>
<path d="M21.9453 83.8762V79.3762H39.4453L39.9453 83.8762H21.9453Z" fill="#EFC7D3" stroke="black" stroke-width="0.5"/>
<path d="M2.44727 65.376C3.94727 67.876 5.94727 71.0426 5.44727 72.876M21.9473 79.376C11.4473 79.876 6.94727 75.876 7.94727 72.376C8.44727 71.876 9.94727 70.376 10.9473 70.376" stroke="black" stroke-width="0.5"/>
<path d="M31.9473 74.3761C29.4473 70.3761 23.9473 65.3762 20.9473 63.8762C19.1972 63.3762 16.5721 63.5012 13.8221 63.8762C12.1971 65.2095 10.9473 68.3761 11.4473 71.3761C11.4473 72.5428 12.7547 74.8761 15.4473 74.8761C19.9473 74.8761 26.9473 75.3761 31.9473 74.3761Z" fill="#EFC7D3"/>
<path d="M5.94727 65.3762C8.19721 64.8762 11.0721 64.2512 13.8221 63.8762M13.8221 63.8762C16.5721 63.5012 19.1972 63.3762 20.9473 63.8762C23.9473 65.3762 29.4473 70.3761 31.9473 74.3761C26.9473 75.3761 19.9473 74.8761 15.4473 74.8761C12.7547 74.8761 11.4473 72.5428 11.4473 71.3761C10.9473 68.3761 12.1971 65.2095 13.8221 63.8762Z" stroke="black" stroke-width="0.5"/>
<path d="M11.4473 70.8762C19.4473 69.3762 22.9473 72.0047 25.9473 73.5047M12.9473 73.8762L30.4473 73.3762" stroke="black" stroke-width="0.5"/>
<path d="M21.9453 82.376H31.4453C33.4453 82.376 34.9453 80.376 34.4453 79.376M37.9453 79.376V83.876" stroke="black" stroke-width="0.5"/>
<path d="M21.9472 80.8765C17.4472 80.8765 12.9472 81.3765 1.44721 78.3765V76.3765L5.44721 74.3765V72.8765L1.44721 72.3765C0.946289 70.8762 -0.0535151 67.8762 1.94648 65.3762C1.44672 57.3762 1.94672 50.8762 3.94721 47.876C36.4472 28.3764 58.4472 34.3764 84.4472 29.8764C162.447 -25.1237 244.447 11.8762 281.447 26.3764L294.947 28.3762L295.447 35.3762V38.3762C296.946 43.3762 298.281 47.8762 296.947 49.8762C299.447 50.8762 301.947 54.0429 301.947 55.8762L299.947 65.8762C300.399 76.7241 297.991 76.9484 288.66 77.2609C287.668 77.294 285.599 77.3282 284.447 77.3762V78.8762L259.447 79.3073M21.9472 80.8765V83.8765H39.9456L39.4472 79.3765M21.9472 80.8765V79.3765H39.4472M39.4472 79.3765C36.4472 37.8765 89.9472 40.8765 86.4472 79.8765V82.3762H212.947C206.947 38.8762 261.447 38.8762 259.447 79.3073M258.946 79.3073H259.447" stroke="black"/>
</svg>
