<svg width="303" height="96" viewBox="0 0 303 96" fill="none" xmlns="http://www.w3.org/2000/svg">
<circle cx="62.4897" cy="74.0454" r="20.5" fill="#E0426F" stroke="black"/>
<circle cx="235.49" cy="74.0454" r="20.5" fill="#E0426F" stroke="black"/>
<path d="M132.488 12.5453L130.988 9.04527C170.988 1.04538 192.488 1.54541 231.488 13.0454L227.988 17.5454C207.988 9.54532 189.988 8.54532 173.988 8.04539C171.488 7.54539 167.488 7.54535 164.988 8.04527C154.988 8.04539 142.988 9.54539 132.488 12.5453Z" fill="#E56E90" stroke="black" stroke-width="0.5"/>
<path d="M130.988 9.04545L130.488 7.54545C166.488 -3.45459 198.988 0.545284 234.488 9.54546L231.488 13.0455C191.488 0.54541 165.488 2.04541 130.988 9.04545Z" fill="#E56E90" stroke="black" stroke-width="0.5"/>
<path d="M130.988 9.04552C182.488 -2.4545 210.988 7.54553 231.488 13.0455" stroke="black" stroke-width="0.5"/>
<path d="M170.49 30.0454L173.99 8.04541C207.49 9.04541 218.99 14.5454 223.49 16.0454L225.973 28.0454C198.982 28.046 181.487 29.5455 170.49 30.0454Z" fill="#E56E90"/>
<path d="M226.49 30.5454L223.49 16.0454C218.99 14.5454 207.49 9.04541 173.99 8.04541L170.49 30.0454C181.49 29.5454 198.99 28.0454 225.99 28.0454" stroke="black" stroke-width="0.5"/>
<path d="M164.99 8.04541C131.99 9.04541 111.99 18.0454 92.9897 35.5454L95.4897 33.5454L159.49 30.5454L164.99 8.04541Z" fill="#E56E90" stroke="black" stroke-width="0.5"/>
<path d="M239.488 22.5454C235.822 19.8787 229.988 17.5454 223.488 16.0454L225.988 28.0454H232.488C235.488 26.5454 238.488 24.3141 239.488 22.5454Z" fill="#E56E90" stroke="black" stroke-width="0.5"/>
<path d="M96.4897 78.5454H163.49L197.99 77.0454H212.49L212.99 82.5454H198.99H97.9897H86.4897V78.5454H96.4897Z" fill="#E56E90"/>
<path d="M96.4897 78.5454H163.49L197.99 77.0454M96.4897 78.5454C96.4897 80.0454 96.9897 81.0454 97.9897 82.5454M96.4897 78.5454H86.4897V82.5454H97.9897M197.99 77.0454L198.99 82.5454M197.99 77.0454H212.49L212.99 82.5454H198.99M198.99 82.5454H97.9897" stroke="black" stroke-width="0.5"/>
<path d="M96.4889 78.5454C91.9897 74.0454 88.9898 52.0454 92.9889 35.5454L164.99 31.5454C160.99 36.5454 159.99 70.5454 163.49 78.5454H96.4889Z" fill="#E56E90" stroke="black" stroke-width="0.5"/>
<path d="M228.489 30.5454L164.989 31.5454C160.989 36.5454 159.99 70.5454 163.489 78.5454L197.989 77.0454C202.489 75.5454 208.989 70.0454 228.489 30.5454Z" fill="#E56E90" stroke="black" stroke-width="0.5"/>
<path d="M170.49 30.0455C165.99 30.5455 162.49 30.5455 159.49 30.5455L164.99 8.04548C167.99 7.54541 170.99 7.54541 173.99 8.04548L170.49 30.0455Z" fill="#E56E90" stroke="black" stroke-width="0.5"/>
<path d="M98.9897 32.0457C103.49 37.5457 110.49 34.0457 114.49 32.5457C115.49 17.0455 102.49 25.0455 98.9897 32.0457Z" fill="#E56E90" stroke="black" stroke-width="0.5"/>
<path d="M234.488 9.54541L231.488 13.0454C248.488 18.5454 258.988 21.5454 271.488 28.0454H272.988L280.988 26.5454C265.988 20.0454 258.488 17.5454 234.488 9.54541Z" stroke="black" stroke-width="0.5"/>
<path d="M271.488 28.0454C260.988 22.5454 241.988 16.0454 231.488 13.0454L229.488 15.5454L244.488 23.0454C242.988 25.5454 238.988 27.5454 232.988 30.2454C244.988 29.5454 261.988 28.5454 271.488 28.0454Z" stroke="black" stroke-width="0.5"/>
<path d="M276.99 34.3454L282.988 32.0454L272.489 28.0454L228.489 30.5454C220.989 45.5454 205.989 76.0454 197.989 77.0454H212.489C210.989 66.0454 220.489 42.5454 245.49 51.5454C255.99 46.0454 265.99 40.5454 276.99 34.3454Z" stroke="black" stroke-width="0.5"/>
<path d="M277.988 34.0454C265.988 40.5454 255.988 46.0454 245.488 51.5454C249.988 54.5454 260.488 60.5454 259.488 79.5454L284.488 79.0454V77.5454C292.988 76.5454 301.488 80.0454 299.988 66.0454L301.988 56.0454C301.988 54.5454 299.488 50.5454 296.988 50.0454C298.488 47.5454 295.488 38.5454 295.488 38.5454V37.0454L291.488 34.0454L286.488 32.5454L282.988 32.0454L277.988 34.0454Z" stroke="black" stroke-width="0.5"/>
<path d="M295.488 37.0454L295.482 36.9656M295.482 36.9656L294.988 28.5454L280.988 26.5454L272.488 28.0454L282.988 32.0454C292.488 33.0454 291.487 34.5454 295.482 36.9656Z" stroke="black" stroke-width="0.5"/>
<path d="M293.99 36.5456C293.49 34.0455 282.49 33.8454 276.99 34.3454" stroke="black" stroke-width="0.5"/>
<path d="M299.99 66.5454L260.49 68.5454C259.99 63.5454 257.823 59.3787 255.99 57.5454L301.99 55.0454M300.49 52.5454C289.49 51.0454 278.49 46.2454 266.49 40.2454M228.49 30.5454L272.49 28.0454L280.99 26.5454" stroke="black" stroke-width="0.5"/>
<path d="M272.49 43.0454C279.485 43.3952 285.502 43.5003 290.883 44.0454M297.49 45.0454C295.387 44.5948 293.194 44.2795 290.883 44.0454M295.49 37.5454C295.072 36.9603 294.603 36.4311 294.099 35.9554M290.883 44.0454C290.557 43.7006 290.463 43.1776 290.448 42.5454M290.448 42.5454C290.434 41.9551 290.49 41.2697 290.49 40.5454C290.49 38.5454 289.49 34.5454 285.99 32.5454C288.211 32.5454 291.587 33.5858 294.099 35.9554M290.448 42.5454C293.49 41.0454 294.562 37.4854 294.099 35.9554" stroke="black" stroke-width="0.5"/>
<path d="M290.49 40.5454C285.99 40.5454 283.99 36.5454 282.99 34.0454" stroke="black" stroke-width="0.5"/>
<path d="M132.488 12.6454C118.988 16.6454 106.988 22.5454 92.9883 35.5454C99.9883 23.5454 115.488 14.0454 130.988 9.04541L132.488 12.6454Z" fill="#EDADBF" stroke="black" stroke-width="0.5"/>
<path d="M130.988 9.04541C110.988 14.7194 92.9883 32.0454 84.9883 30.0454C97.9883 20.5454 113.988 12.0454 130.488 7.54541L130.988 9.04541Z" fill="#EDADBF" stroke="black" stroke-width="0.5"/>
<path d="M9.98895 48.0453H3.98895C1.48828 52.0453 1.48828 62.0453 1.98895 65.5453C0.488281 66.5453 0.488879 71.0453 1.48895 72.5453L5.48895 73.0453V74.5453L1.48895 76.5453V78.5453C5.48895 79.5453 13.9889 81.5453 21.9889 81.0453V79.5453H39.4889C38.8223 71.0453 40.4889 60.5453 49.4889 53.5453C46.9889 49.5453 39.9889 45.0453 36.9889 44.5453C26.9889 43.5453 11.9889 46.0453 9.98895 48.0453Z" fill="#EDADBF" stroke="black" stroke-width="0.5"/>
<path d="M92.9897 35.5454C75.1564 36.3787 43.4897 41.2454 32.9897 44.2454L36.9897 44.5454C41.9897 46.0454 47.4897 50.3787 49.4897 53.5454C62.4888 44.0454 87.9888 51.0454 86.4888 78.5454H96.4888C89.4888 67.5454 90.4888 45.5454 92.9897 35.5454Z" fill="#EDADBF" stroke="black" stroke-width="0.5"/>
<path d="M9.98828 48.0455H3.98828C36.4885 28.5454 58.4885 34.5454 84.4883 30.0454L93.4885 35.5454C76.4885 36.5454 47.4883 40.0454 33.4883 44.2454C25.4883 44.0454 11.4883 46.0454 9.98828 48.0455Z" fill="#EDADBF" stroke="black" stroke-width="0.5"/>
<path d="M36.9897 44.5455C29.4897 43.5454 12.4897 45.5454 9.98974 48.0455C9.18974 50.4454 12.3231 53.3787 13.9897 54.5454C23.4897 56.0454 36.9897 50.0454 36.9897 44.5455Z" fill="#EDADBF" stroke="black" stroke-width="0.5"/>
<path d="M3.98898 48.0454C10.989 49.0454 4.98898 59.5454 1.98898 64.5454C1.48891 57.5454 1.98877 52.0454 3.98898 48.0454Z" fill="#EDADBF" stroke="black" stroke-width="0.5"/>
<path d="M21.9883 84.0454V79.5454H39.4883L39.9883 84.0454H21.9883Z" fill="#EDADBF" stroke="black" stroke-width="0.5"/>
<path d="M2.49023 65.5454C3.99023 68.0454 5.99023 71.2121 5.49023 73.0454M21.9902 79.5454C11.4902 80.0454 6.99023 76.0454 7.99023 72.5454C8.49023 72.0454 9.99023 70.5454 10.9902 70.5454" stroke="black" stroke-width="0.5"/>
<path d="M31.9902 74.5455C29.4902 70.5455 23.9902 65.5456 20.9902 64.0456C19.2402 63.5456 16.6151 63.6706 13.865 64.0456C12.2401 65.3789 10.9902 68.5455 11.4902 71.5455C11.4902 72.7122 12.7977 75.0455 15.4902 75.0455C19.9902 75.0455 26.9902 75.5455 31.9902 74.5455Z" fill="#EDADBF"/>
<path d="M5.99023 65.5456C8.24018 65.0456 11.1151 64.4206 13.865 64.0456M13.865 64.0456C16.6151 63.6706 19.2402 63.5456 20.9902 64.0456C23.9902 65.5456 29.4902 70.5455 31.9902 74.5455C26.9902 75.5455 19.9902 75.0455 15.4902 75.0455C12.7977 75.0455 11.4902 72.7122 11.4902 71.5455C10.9902 68.5455 12.2401 65.3789 13.865 64.0456Z" stroke="black" stroke-width="0.5"/>
<path d="M11.4902 71.0456C19.4902 69.5457 22.9902 72.1741 25.9902 73.6741M12.9902 74.0457L30.4902 73.5457" stroke="black" stroke-width="0.5"/>
<path d="M21.9883 82.5454H31.4883C33.4883 82.5454 34.9883 80.5454 34.4883 79.5454M37.9883 79.5454V84.0454" stroke="black" stroke-width="0.5"/>
<path d="M21.9897 81.0457C17.4897 81.0457 12.9897 81.5457 1.48969 78.5457V76.5457L5.48969 74.5456V73.0457L1.48969 72.5457C0.98877 71.0454 -0.0110346 68.0454 1.98896 65.5454C1.4892 57.5454 1.9892 51.0454 3.98969 48.0452C36.4897 28.5455 58.4897 34.5456 84.4897 30.0456C162.49 -24.9545 244.49 12.0454 281.49 26.5456L294.99 28.5454L295.49 35.5454V38.5454C296.988 43.5454 298.323 48.0454 296.99 50.0454C299.49 51.0454 301.99 54.2121 301.99 56.0454L299.99 66.0454C300.442 76.8933 298.034 77.1176 288.702 77.43C287.711 77.4632 285.642 77.4974 284.49 77.5454V79.0454L259.49 79.4764M21.9897 81.0457V84.0457H39.988L39.4897 79.5457M21.9897 81.0457V79.5457H39.4897M39.4897 79.5457C36.4897 38.0457 89.9897 41.0457 86.4897 80.0457V82.5454H212.99C206.99 39.0454 261.49 39.0454 259.49 79.4764M258.988 79.4764H259.49" stroke="black"/>
</svg>
