<svg width="304" height="96" viewBox="0 0 304 96" fill="none" xmlns="http://www.w3.org/2000/svg">
<circle cx="63.0835" cy="74.0454" r="20.5" fill="#EDADBF" stroke="black"/>
<circle cx="236.083" cy="74.0454" r="20.5" fill="#EDADBF" stroke="black"/>
<path d="M133.082 12.5453L131.582 9.04527C171.582 1.04538 193.082 1.54541 232.082 13.0454L228.582 17.5454C208.582 9.54532 190.582 8.54532 174.582 8.04539C172.082 7.54539 168.082 7.54535 165.582 8.04527C155.582 8.04539 143.582 9.54539 133.082 12.5453Z" fill="#E56E90" stroke="black" stroke-width="0.5"/>
<path d="M131.582 9.04545L131.082 7.54545C167.082 -3.45459 199.582 0.545284 235.082 9.54546L232.082 13.0455C192.082 0.54541 166.082 2.04541 131.582 9.04545Z" fill="#E56E90" stroke="black" stroke-width="0.5"/>
<path d="M131.582 9.04552C183.082 -2.4545 211.582 7.54553 232.082 13.0455" stroke="black" stroke-width="0.5"/>
<path d="M171.083 30.0454L174.583 8.04541C208.083 9.04541 219.583 14.5454 224.083 16.0454L226.566 28.0454C199.576 28.046 182.081 29.5455 171.083 30.0454Z" fill="#E56E90"/>
<path d="M227.083 30.5454L224.083 16.0454C219.583 14.5454 208.083 9.04541 174.583 8.04541L171.083 30.0454C182.083 29.5454 199.583 28.0454 226.583 28.0454" stroke="black" stroke-width="0.5"/>
<path d="M165.583 8.04541C132.583 9.04541 112.583 18.0454 93.5835 35.5454L96.0835 33.5454L160.083 30.5454L165.583 8.04541Z" fill="#E56E90" stroke="black" stroke-width="0.5"/>
<path d="M240.082 22.5454C236.415 19.8787 230.582 17.5454 224.082 16.0454L226.582 28.0454H233.082C236.082 26.5454 239.082 24.3141 240.082 22.5454Z" fill="#E56E90" stroke="black" stroke-width="0.5"/>
<path d="M97.0835 78.5454H164.083L198.583 77.0454H213.083L213.583 82.5454H199.583H98.5835H87.0835V78.5454H97.0835Z" fill="#E56E90"/>
<path d="M97.0835 78.5454H164.083L198.583 77.0454M97.0835 78.5454C97.0835 80.0454 97.5835 81.0454 98.5835 82.5454M97.0835 78.5454H87.0835V82.5454H98.5835M198.583 77.0454L199.583 82.5454M198.583 77.0454H213.083L213.583 82.5454H199.583M199.583 82.5454H98.5835" stroke="black" stroke-width="0.5"/>
<path d="M97.0826 78.5454C92.5835 74.0454 89.5835 52.0454 93.5826 35.5454L165.583 31.5454C161.583 36.5454 160.583 70.5454 164.083 78.5454H97.0826Z" fill="#E56E90" stroke="black" stroke-width="0.5"/>
<path d="M229.083 30.5454L165.583 31.5454C161.583 36.5454 160.583 70.5454 164.083 78.5454L198.583 77.0454C203.083 75.5454 209.583 70.0454 229.083 30.5454Z" fill="#E56E90" stroke="black" stroke-width="0.5"/>
<path d="M171.083 30.0455C166.583 30.5455 163.083 30.5455 160.083 30.5455L165.583 8.04548C168.583 7.54541 171.583 7.54541 174.583 8.04548L171.083 30.0455Z" fill="#E56E90" stroke="black" stroke-width="0.5"/>
<path d="M99.5835 32.0457C104.083 37.5457 111.083 34.0457 115.083 32.5457C116.083 17.0455 103.083 25.0455 99.5835 32.0457Z" fill="#E56E90" stroke="black" stroke-width="0.5"/>
<path d="M235.082 9.54541L232.082 13.0454C249.082 18.5454 259.582 21.5454 272.082 28.0454H273.582L281.582 26.5454C266.582 20.0454 259.082 17.5454 235.082 9.54541Z" fill="#EFC7D3" stroke="black" stroke-width="0.5"/>
<path d="M272.082 28.0454C261.582 22.5454 242.582 16.0454 232.082 13.0454L230.082 15.5454L245.082 23.0454C243.582 25.5454 239.582 27.5454 233.582 30.2454C245.582 29.5454 262.582 28.5454 272.082 28.0454Z" fill="#EFC7D3" stroke="black" stroke-width="0.5"/>
<path d="M277.583 34.3454L283.582 32.0454L273.083 28.0454L229.083 30.5454C221.583 45.5454 206.583 76.0454 198.583 77.0454H213.083C211.583 66.0454 221.083 42.5454 246.083 51.5454C256.583 46.0454 266.583 40.5454 277.583 34.3454Z" fill="#EFC7D3" stroke="black" stroke-width="0.5"/>
<path d="M278.582 34.0454C266.582 40.5454 256.582 46.0454 246.082 51.5454C250.582 54.5454 261.082 60.5454 260.082 79.5454L285.082 79.0454V77.5454C293.582 76.5454 302.082 80.0454 300.582 66.0454L302.582 56.0454C302.582 54.5454 300.082 50.5454 297.582 50.0454C299.082 47.5454 296.082 38.5454 296.082 38.5454V37.0454L292.082 34.0454L287.082 32.5454L283.582 32.0454L278.582 34.0454Z" fill="#EFC7D3" stroke="black" stroke-width="0.5"/>
<path d="M281.582 26.5454L273.082 28.0454L283.582 32.0454C293.082 33.0454 292.081 34.5454 296.076 36.9656L295.582 28.5454L281.582 26.5454Z" fill="#EFC7D3"/>
<path d="M296.082 37.0454L296.076 36.9656M296.076 36.9656L295.582 28.5454L281.582 26.5454L273.082 28.0454L283.582 32.0454C293.082 33.0454 292.081 34.5454 296.076 36.9656Z" stroke="black" stroke-width="0.5"/>
<path d="M294.583 36.5456C294.083 34.0455 283.083 33.8454 277.583 34.3454" stroke="black" stroke-width="0.5"/>
<path d="M300.583 66.5454L261.083 68.5454C260.583 63.5454 258.417 59.3787 256.583 57.5454L302.583 55.0454M301.083 52.5454C290.083 51.0454 279.083 46.2454 267.083 40.2454M229.083 30.5454L273.083 28.0454L281.583 26.5454" stroke="black" stroke-width="0.5"/>
<path d="M291.083 40.5454C291.083 38.5454 290.083 34.5454 286.583 32.5454C288.804 32.5454 292.181 33.5858 294.692 35.9554C295.156 37.4854 294.083 41.0454 291.042 42.5454C291.028 41.9551 291.083 41.2697 291.083 40.5454Z" fill="#EFC7D3"/>
<path d="M273.083 43.0454C280.079 43.3952 286.096 43.5003 291.477 44.0454M298.083 45.0454C295.981 44.5948 293.787 44.2795 291.477 44.0454M296.083 37.5454C295.666 36.9603 295.196 36.4311 294.692 35.9554M291.477 44.0454C291.15 43.7006 291.056 43.1776 291.042 42.5454M291.042 42.5454C291.028 41.9551 291.083 41.2697 291.083 40.5454C291.083 38.5454 290.083 34.5454 286.583 32.5454C288.804 32.5454 292.181 33.5858 294.692 35.9554M291.042 42.5454C294.083 41.0454 295.156 37.4854 294.692 35.9554" stroke="black" stroke-width="0.5"/>
<path d="M291.083 40.5454C286.583 40.5454 284.583 36.5454 283.583 34.0454" stroke="black" stroke-width="0.5"/>
<path d="M133.082 12.6454C119.582 16.6454 107.582 22.5454 93.582 35.5454C100.582 23.5454 116.082 14.0454 131.582 9.04541L133.082 12.6454Z" fill="#EDADBF" stroke="black" stroke-width="0.5"/>
<path d="M131.582 9.04541C111.582 14.7194 93.582 32.0454 85.582 30.0454C98.582 20.5454 114.582 12.0454 131.082 7.54541L131.582 9.04541Z" fill="#EDADBF" stroke="black" stroke-width="0.5"/>
<path d="M10.5827 48.0453H4.5827C2.08203 52.0453 2.08203 62.0453 2.5827 65.5453C1.08203 66.5453 1.08263 71.0453 2.0827 72.5453L6.0827 73.0453V74.5453L2.0827 76.5453V78.5453C6.0827 79.5453 14.5827 81.5453 22.5827 81.0453V79.5453H40.0827C39.416 71.0453 41.0827 60.5453 50.0827 53.5453C47.5827 49.5453 40.5827 45.0453 37.5827 44.5453C27.5827 43.5453 12.5827 46.0453 10.5827 48.0453Z" fill="#EDADBF" stroke="black" stroke-width="0.5"/>
<path d="M93.5835 35.5454C75.7502 36.3787 44.0835 41.2454 33.5835 44.2454L37.5835 44.5454C42.5835 46.0454 48.0835 50.3787 50.0835 53.5454C63.0825 44.0454 88.5825 51.0454 87.0825 78.5454H97.0825C90.0825 67.5454 91.0825 45.5454 93.5835 35.5454Z" fill="#EDADBF" stroke="black" stroke-width="0.5"/>
<path d="M10.582 48.0455H4.58203C37.0822 28.5454 59.0823 34.5454 85.082 30.0454L94.0823 35.5454C77.0823 36.5454 48.082 40.0454 34.082 44.2454C26.082 44.0454 12.082 46.0454 10.582 48.0455Z" fill="#EDADBF" stroke="black" stroke-width="0.5"/>
<path d="M37.5835 44.5455C30.0835 43.5454 13.0835 45.5454 10.5835 48.0455C9.78349 50.4454 12.9168 53.3787 14.5835 54.5454C24.0835 56.0454 37.5835 50.0454 37.5835 44.5455Z" fill="#EDADBF" stroke="black" stroke-width="0.5"/>
<path d="M4.58273 48.0454C11.5827 49.0454 5.58273 59.5454 2.58273 64.5454C2.08266 57.5454 2.58252 52.0454 4.58273 48.0454Z" fill="#EDADBF" stroke="black" stroke-width="0.5"/>
<path d="M22.582 84.0454V79.5454H40.082L40.582 84.0454H22.582Z" fill="#EDADBF" stroke="black" stroke-width="0.5"/>
<path d="M3.08398 65.5454C4.58398 68.0454 6.58398 71.2121 6.08398 73.0454M22.584 79.5454C12.084 80.0454 7.58398 76.0454 8.58398 72.5454C9.08398 72.0454 10.584 70.5454 11.584 70.5454" stroke="black" stroke-width="0.5"/>
<path d="M32.584 74.5455C30.084 70.5455 24.584 65.5456 21.584 64.0456C19.8339 63.5456 17.2088 63.6706 14.4588 64.0456C12.8338 65.3789 11.584 68.5455 12.084 71.5455C12.084 72.7122 13.3914 75.0455 16.084 75.0455C20.584 75.0455 27.584 75.5455 32.584 74.5455Z" fill="#EDADBF"/>
<path d="M6.58398 65.5456C8.83393 65.0456 11.7088 64.4206 14.4588 64.0456M14.4588 64.0456C17.2088 63.6706 19.8339 63.5456 21.584 64.0456C24.584 65.5456 30.084 70.5455 32.584 74.5455C27.584 75.5455 20.584 75.0455 16.084 75.0455C13.3914 75.0455 12.084 72.7122 12.084 71.5455C11.584 68.5455 12.8338 65.3789 14.4588 64.0456Z" stroke="black" stroke-width="0.5"/>
<path d="M12.084 71.0456C20.084 69.5457 23.584 72.1741 26.584 73.6741M13.584 74.0457L31.084 73.5457" stroke="black" stroke-width="0.5"/>
<path d="M22.582 82.5454H32.082C34.082 82.5454 35.582 80.5454 35.082 79.5454M38.582 79.5454V84.0454" stroke="black" stroke-width="0.5"/>
<path d="M22.5834 81.0457C18.0834 81.0457 13.5834 81.5457 2.08344 78.5457V76.5457L6.08344 74.5456V73.0457L2.08344 72.5457C1.58252 71.0454 0.582715 68.0454 2.58271 65.5454C2.08295 57.5454 2.58295 51.0454 4.58344 48.0452C37.0834 28.5455 59.0834 34.5456 85.0834 30.0456C163.083 -24.9545 245.083 12.0454 282.083 26.5456L295.583 28.5454L296.083 35.5454V38.5454C297.582 43.5454 298.917 48.0454 297.583 50.0454C300.083 51.0454 302.583 54.2121 302.583 56.0454L300.583 66.0454C301.035 76.8933 298.627 77.1176 289.296 77.43C288.305 77.4632 286.236 77.4974 285.083 77.5454V79.0454L260.083 79.4764M22.5834 81.0457V84.0457H40.5818L40.0835 79.5457M22.5834 81.0457V79.5457H40.0835M40.0835 79.5457C37.0835 38.0457 90.5834 41.0457 87.0834 80.0457V82.5454H213.583C207.583 39.0454 262.083 39.0454 260.083 79.4764M259.582 79.4764H260.083" stroke="black"/>
</svg>
