<svg width="303" height="96" viewBox="0 0 303 96" fill="none" xmlns="http://www.w3.org/2000/svg">
<circle cx="62.249" cy="74.0303" r="20.5" fill="#E56E90" stroke="black"/>
<circle cx="235.249" cy="74.0303" r="20.5" fill="#E56E90" stroke="black"/>
<path d="M132.247 12.5301L130.747 9.03013C170.747 1.03024 192.247 1.53027 231.247 13.0302L227.747 17.5302C207.747 9.53018 189.747 8.53018 173.747 8.03025C171.247 7.53025 167.247 7.53021 164.747 8.03013C154.747 8.03025 142.747 9.53025 132.247 12.5301Z" fill="#EDADBF" stroke="black" stroke-width="0.5"/>
<path d="M130.747 9.03032L130.247 7.53032C166.247 -3.46973 198.747 0.530148 234.247 9.53032L231.247 13.0303C191.247 0.530273 165.247 2.03027 130.747 9.03032Z" fill="#EDADBF" stroke="black" stroke-width="0.5"/>
<path d="M130.747 9.03038C182.247 -2.46964 210.747 7.5304 231.247 13.0304" stroke="black" stroke-width="0.5"/>
<path d="M170.249 30.0303L173.749 8.03027C207.249 9.03027 218.749 14.5303 223.249 16.0303L225.732 28.0303C198.742 28.0309 181.247 29.5304 170.249 30.0303Z" fill="#EDADBF"/>
<path d="M226.249 30.5303L223.249 16.0303C218.749 14.5303 207.249 9.03027 173.749 8.03027L170.249 30.0303C181.249 29.5303 198.749 28.0303 225.749 28.0303" stroke="black" stroke-width="0.5"/>
<path d="M164.749 8.03027C131.749 9.03027 111.749 18.0303 92.749 35.5303L95.249 33.5303L159.249 30.5303L164.749 8.03027Z" fill="#EDADBF" stroke="black" stroke-width="0.5"/>
<path d="M239.247 22.5303C235.58 19.8636 229.747 17.5303 223.247 16.0303L225.747 28.0303H232.247C235.247 26.5303 238.247 24.299 239.247 22.5303Z" fill="#EDADBF" stroke="black" stroke-width="0.5"/>
<path d="M96.249 78.5303H163.249L197.749 77.0303H212.249L212.749 82.5303H198.749H97.749H86.249V78.5303H96.249Z" fill="#EDADBF"/>
<path d="M96.249 78.5303H163.249L197.749 77.0303M96.249 78.5303C96.249 80.0303 96.749 81.0303 97.749 82.5303M96.249 78.5303H86.249V82.5303H97.749M197.749 77.0303L198.749 82.5303M197.749 77.0303H212.249L212.749 82.5303H198.749M198.749 82.5303H97.749" stroke="black" stroke-width="0.5"/>
<path d="M96.2482 78.5303C91.749 74.0303 88.7491 52.0303 92.7482 35.5303L164.749 31.5303C160.749 36.5303 159.749 70.5303 163.249 78.5303H96.2482Z" fill="#EDADBF" stroke="black" stroke-width="0.5"/>
<path d="M228.249 30.5303L164.749 31.5303C160.749 36.5303 159.749 70.5303 163.249 78.5303L197.749 77.0303C202.249 75.5303 208.749 70.0303 228.249 30.5303Z" fill="#EDADBF" stroke="black" stroke-width="0.5"/>
<path d="M170.249 30.0303C165.749 30.5303 162.249 30.5303 159.249 30.5303L164.749 8.03035C167.749 7.53027 170.749 7.53027 173.749 8.03035L170.249 30.0303Z" fill="#EDADBF" stroke="black" stroke-width="0.5"/>
<path d="M98.749 32.0305C103.249 37.5305 110.249 34.0305 114.249 32.5305C115.249 17.0304 102.249 25.0304 98.749 32.0305Z" fill="#EDADBF" stroke="black" stroke-width="0.5"/>
<path d="M234.247 9.53027L231.247 13.0303C248.247 18.5303 258.747 21.5303 271.247 28.0303H272.747L280.747 26.5303C265.747 20.0303 258.247 17.5303 234.247 9.53027Z" fill="#E0426F" stroke="black" stroke-width="0.5"/>
<path d="M271.247 28.0303C260.747 22.5303 241.747 16.0303 231.247 13.0303L229.247 15.5303L244.247 23.0303C242.747 25.5303 238.747 27.5303 232.747 30.2303C244.747 29.5303 261.747 28.5303 271.247 28.0303Z" fill="#E0426F" stroke="black" stroke-width="0.5"/>
<path d="M276.749 34.3303L282.747 32.0303L272.248 28.0303L228.248 30.5303C220.748 45.5303 205.748 76.0303 197.748 77.0303H212.248C210.748 66.0303 220.248 42.5303 245.249 51.5303C255.749 46.0303 265.749 40.5303 276.749 34.3303Z" fill="#E0426F" stroke="black" stroke-width="0.5"/>
<path d="M277.747 34.0303C265.747 40.5303 255.747 46.0303 245.247 51.5303C249.747 54.5303 260.247 60.5303 259.247 79.5303L284.247 79.0303V77.5303C292.747 76.5303 301.247 80.0303 299.747 66.0303L301.747 56.0303C301.747 54.5303 299.247 50.5303 296.747 50.0303C298.247 47.5303 295.247 38.5303 295.247 38.5303V37.0303L291.247 34.0303L286.247 32.5303L282.747 32.0303L277.747 34.0303Z" fill="#E0426F" stroke="black" stroke-width="0.5"/>
<path d="M280.747 26.5303L272.247 28.0303L282.747 32.0303C292.247 33.0303 291.246 34.5303 295.241 36.9505L294.747 28.5303L280.747 26.5303Z" fill="#E0426F"/>
<path d="M295.247 37.0303L295.241 36.9505M295.241 36.9505L294.747 28.5303L280.747 26.5303L272.247 28.0303L282.747 32.0303C292.247 33.0303 291.246 34.5303 295.241 36.9505Z" stroke="black" stroke-width="0.5"/>
<path d="M293.749 36.5305C293.249 34.0304 282.249 33.8303 276.749 34.3303" stroke="black" stroke-width="0.5"/>
<path d="M299.749 66.5303L260.249 68.5303C259.749 63.5303 257.582 59.3636 255.749 57.5303L301.749 55.0303M300.249 52.5303C289.249 51.0303 278.249 46.2303 266.249 40.2303M228.249 30.5303L272.249 28.0303L280.749 26.5303" stroke="black" stroke-width="0.5"/>
<path d="M290.249 40.5303C290.249 38.5303 289.249 34.5303 285.749 32.5303C287.97 32.5303 291.347 33.5707 293.858 35.9403C294.322 37.4703 293.249 41.0303 290.207 42.5303C290.194 41.94 290.249 41.2546 290.249 40.5303Z" fill="#E0426F"/>
<path d="M272.249 43.0303C279.245 43.3801 285.262 43.4851 290.642 44.0303M297.249 45.0303C295.146 44.5796 292.953 44.2644 290.642 44.0303M295.249 37.5303C294.831 36.9451 294.362 36.4159 293.858 35.9403M290.642 44.0303C290.316 43.6855 290.222 43.1625 290.207 42.5303M290.207 42.5303C290.194 41.94 290.249 41.2546 290.249 40.5303C290.249 38.5303 289.249 34.5303 285.749 32.5303C287.97 32.5303 291.347 33.5707 293.858 35.9403M290.207 42.5303C293.249 41.0303 294.322 37.4703 293.858 35.9403" stroke="black" stroke-width="0.5"/>
<path d="M290.249 40.5303C285.749 40.5303 283.749 36.5303 282.749 34.0303" stroke="black" stroke-width="0.5"/>
<path d="M132.247 12.6302C118.747 16.6302 106.747 22.5303 92.7471 35.5303C99.7471 23.5303 115.247 14.0303 130.747 9.03027L132.247 12.6302Z" fill="#EFC7D3" stroke="black" stroke-width="0.5"/>
<path d="M130.747 9.03027C110.747 14.7043 92.7471 32.0303 84.7471 30.0303C97.7471 20.5303 113.747 12.0303 130.247 7.53027L130.747 9.03027Z" fill="#EFC7D3" stroke="black" stroke-width="0.5"/>
<path d="M9.74774 48.0302H3.74774C1.24707 52.0302 1.24707 62.0302 1.74774 65.5302C0.24707 66.5302 0.247668 71.0302 1.24774 72.5302L5.24774 73.0302V74.5302L1.24774 76.5302V78.5302C5.24774 79.5302 13.7477 81.5302 21.7477 81.0302V79.5302H39.2477C38.5811 71.0302 40.2477 60.5302 49.2477 53.5302C46.7477 49.5302 39.7477 45.0302 36.7477 44.5302C26.7477 43.5302 11.7477 46.0302 9.74774 48.0302Z" fill="#EFC7D3" stroke="black" stroke-width="0.5"/>
<path d="M92.749 35.5303C74.9157 36.3636 43.249 41.2303 32.749 44.2303L36.749 44.5303C41.749 46.0303 47.249 50.3636 49.249 53.5303C62.248 44.0303 87.748 51.0303 86.248 78.5303H96.248C89.248 67.5303 90.248 45.5303 92.749 35.5303Z" fill="#EFC7D3" stroke="black" stroke-width="0.5"/>
<path d="M9.74707 48.0303H3.74707C36.2473 28.5302 58.2473 34.5303 84.2471 30.0303L93.2473 35.5303C76.2473 36.5303 47.2471 40.0303 33.2471 44.2303C25.2471 44.0303 11.2471 46.0303 9.74707 48.0303Z" fill="#EFC7D3" stroke="black" stroke-width="0.5"/>
<path d="M36.7485 44.5303C29.2485 43.5303 12.2485 45.5303 9.74852 48.0303C8.94852 50.4303 12.0819 53.3636 13.7485 54.5303C23.2485 56.0303 36.7485 50.0303 36.7485 44.5303Z" fill="#EFC7D3" stroke="black" stroke-width="0.5"/>
<path d="M3.74777 48.0303C10.7478 49.0303 4.74777 59.5303 1.74777 64.5303C1.2477 57.5303 1.74756 52.0303 3.74777 48.0303Z" fill="#EFC7D3" stroke="black" stroke-width="0.5"/>
<path d="M21.7471 84.0303V79.5303H39.2471L39.7471 84.0303H21.7471Z" fill="#EFC7D3" stroke="black" stroke-width="0.5"/>
<path d="M2.24902 65.5303C3.74902 68.0303 5.74902 71.1969 5.24902 73.0303M21.749 79.5303C11.249 80.0303 6.74902 76.0303 7.74902 72.5303C8.24902 72.0303 9.74902 70.5303 10.749 70.5303" stroke="black" stroke-width="0.5"/>
<path d="M31.749 74.5304C29.249 70.5304 23.749 65.5305 20.749 64.0305C18.999 63.5305 16.3739 63.6555 13.6238 64.0305C11.9989 65.3638 10.749 68.5304 11.249 71.5304C11.249 72.6971 12.5564 75.0304 15.249 75.0304C19.749 75.0304 26.749 75.5304 31.749 74.5304Z" fill="#EFC7D3"/>
<path d="M5.74902 65.5305C7.99897 65.0304 10.8739 64.4055 13.6238 64.0305M13.6238 64.0305C16.3739 63.6555 18.999 63.5305 20.749 64.0305C23.749 65.5305 29.249 70.5304 31.749 74.5304C26.749 75.5304 19.749 75.0304 15.249 75.0304C12.5564 75.0304 11.249 72.6971 11.249 71.5304C10.749 68.5304 11.9989 65.3638 13.6238 64.0305Z" stroke="black" stroke-width="0.5"/>
<path d="M11.249 71.0305C19.249 69.5305 22.749 72.159 25.749 73.659M12.749 74.0305L30.249 73.5305" stroke="black" stroke-width="0.5"/>
<path d="M21.7471 82.5303H31.2471C33.2471 82.5303 34.7471 80.5303 34.2471 79.5303M37.7471 79.5303V84.0303" stroke="black" stroke-width="0.5"/>
<path d="M21.749 81.0305C17.249 81.0305 12.749 81.5305 1.24897 78.5305V76.5305L5.24897 74.5305V73.0305L1.24897 72.5305C0.748047 71.0303 -0.251757 68.0303 1.74824 65.5303C1.24848 57.5303 1.74848 51.0303 3.74897 48.03C36.249 28.5304 58.249 34.5305 84.249 30.0305C162.249 -24.9697 244.249 12.0303 281.249 26.5305L294.749 28.5303L295.249 35.5303V38.5303C296.747 43.5303 298.082 48.0303 296.749 50.0303C299.249 51.0303 301.749 54.1969 301.749 56.0303L299.749 66.0303C300.201 76.8782 297.793 77.1025 288.461 77.4149C287.47 77.4481 285.401 77.4823 284.249 77.5303V79.0303L259.249 79.4613M21.749 81.0305V84.0305H39.7473L39.249 79.5305M21.749 81.0305V79.5305H39.249M39.249 79.5305C36.249 38.0305 89.749 41.0305 86.249 80.0305V82.5303H212.749C206.749 39.0303 261.249 39.0303 259.249 79.4613M258.747 79.4613H259.249" stroke="black"/>
</svg>
