<svg width="303" height="96" viewBox="0 0 303 96" fill="none" xmlns="http://www.w3.org/2000/svg">
<circle cx="62.4697" cy="74.5227" r="20.5" fill="#E0426F" stroke="black"/>
<circle cx="235.47" cy="74.5227" r="20.5" fill="#E0426F" stroke="black"/>
<path d="M132.468 13.0226L130.968 9.52256C170.968 1.52267 192.468 2.02271 231.468 13.5227L227.968 18.0226C207.968 10.0226 189.968 9.02261 173.968 8.52268C171.468 8.02268 167.468 8.02264 164.968 8.52256C154.968 8.52268 142.968 10.0227 132.468 13.0226Z" fill="#EFC7D3" stroke="black" stroke-width="0.5"/>
<path d="M130.968 9.52275L130.468 8.02275C166.468 -2.97729 198.968 1.02258 234.468 10.0228L231.468 13.5228C191.468 1.02271 165.468 2.52271 130.968 9.52275Z" fill="#EFC7D3" stroke="black" stroke-width="0.5"/>
<path d="M130.968 9.52269C182.468 -1.97733 210.968 8.02271 231.468 13.5227" stroke="black" stroke-width="0.5"/>
<path d="M170.47 30.5227L173.97 8.52271C207.47 9.52271 218.97 15.0227 223.47 16.5227L225.952 28.5227C198.962 28.5233 181.467 30.0228 170.47 30.5227Z" fill="#EFC7D3"/>
<path d="M226.47 31.0227L223.47 16.5227C218.97 15.0227 207.47 9.52271 173.97 8.52271L170.47 30.5227C181.47 30.0227 198.97 28.5227 225.97 28.5227" stroke="black" stroke-width="0.5"/>
<path d="M164.97 8.52271C131.97 9.52271 111.97 18.5227 92.9697 36.0227L95.4697 34.0227L159.47 31.0227L164.97 8.52271Z" fill="#EFC7D3" stroke="black" stroke-width="0.5"/>
<path d="M239.468 23.0227C235.801 20.356 229.968 18.0227 223.468 16.5227L225.968 28.5227H232.468C235.468 27.0227 238.468 24.7914 239.468 23.0227Z" fill="#EFC7D3" stroke="black" stroke-width="0.5"/>
<path d="M96.4697 79.0227H163.47L197.97 77.5227H212.47L212.97 83.0227H198.97H97.9697H86.4697V79.0227H96.4697Z" fill="#EFC7D3"/>
<path d="M96.4697 79.0227H163.47L197.97 77.5227M96.4697 79.0227C96.4697 80.5227 96.9697 81.5227 97.9697 83.0227M96.4697 79.0227H86.4697V83.0227H97.9697M197.97 77.5227L198.97 83.0227M197.97 77.5227H212.47L212.97 83.0227H198.97M198.97 83.0227H97.9697" stroke="black" stroke-width="0.5"/>
<path d="M96.4689 79.0227C91.9697 74.5227 88.9698 52.5227 92.9689 36.0227L164.97 32.0227C160.97 37.0227 159.97 71.0227 163.47 79.0227H96.4689Z" fill="#EFC7D3" stroke="black" stroke-width="0.5"/>
<path d="M228.47 31.0227L164.97 32.0227C160.97 37.0227 159.97 71.0227 163.47 79.0227L197.97 77.5227C202.47 76.0227 208.97 70.5227 228.47 31.0227Z" fill="#EFC7D3" stroke="black" stroke-width="0.5"/>
<path d="M170.47 30.5228C165.97 31.0228 162.47 31.0228 159.47 31.0228L164.97 8.52278C167.97 8.02271 170.97 8.02271 173.97 8.52278L170.47 30.5228Z" fill="#EFC7D3" stroke="black" stroke-width="0.5"/>
<path d="M98.9697 32.5228C103.47 38.0228 110.47 34.5228 114.47 33.0228C115.47 17.5227 102.47 25.5227 98.9697 32.5228Z" fill="#EFC7D3" stroke="black" stroke-width="0.5"/>
<path d="M234.468 10.0227L231.468 13.5227C248.468 19.0227 258.968 22.0227 271.468 28.5227H272.968L280.968 27.0227C265.968 20.5227 258.468 18.0227 234.468 10.0227Z" fill="#EDADBF" stroke="black" stroke-width="0.5"/>
<path d="M271.468 28.5227C260.968 23.0227 241.968 16.5227 231.468 13.5227L229.468 16.0227L244.468 23.5227C242.968 26.0227 238.968 28.0227 232.968 30.7227C244.968 30.0227 261.968 29.0227 271.468 28.5227Z" fill="#EDADBF" stroke="black" stroke-width="0.5"/>
<path d="M276.97 34.8227L282.968 32.5227L272.469 28.5227L228.469 31.0227C220.969 46.0227 205.969 76.5227 197.969 77.5227H212.469C210.969 66.5227 220.469 43.0227 245.47 52.0227C255.97 46.5227 265.97 41.0227 276.97 34.8227Z" fill="#EDADBF" stroke="black" stroke-width="0.5"/>
<path d="M277.968 34.5227C265.968 41.0227 255.968 46.5227 245.468 52.0227C249.968 55.0227 260.468 61.0227 259.468 80.0227L284.468 79.5227V78.0227C292.968 77.0227 301.468 80.5227 299.968 66.5227L301.968 56.5227C301.968 55.0227 299.468 51.0227 296.968 50.5227C298.468 48.0227 295.468 39.0227 295.468 39.0227V37.5227L291.468 34.5227L286.468 33.0227L282.968 32.5227L277.968 34.5227Z" fill="#EDADBF" stroke="black" stroke-width="0.5"/>
<path d="M280.968 27.0227L272.468 28.5227L282.968 32.5227C292.468 33.5227 291.467 35.0227 295.462 37.4429L294.968 29.0227L280.968 27.0227Z" fill="#EDADBF"/>
<path d="M295.468 37.5227L295.462 37.4429M295.462 37.4429L294.968 29.0227L280.968 27.0227L272.468 28.5227L282.968 32.5227C292.468 33.5227 291.467 35.0227 295.462 37.4429Z" stroke="black" stroke-width="0.5"/>
<path d="M293.97 37.0229C293.47 34.5228 282.47 34.3227 276.97 34.8227" stroke="black" stroke-width="0.5"/>
<path d="M299.97 67.0227L260.47 69.0227C259.97 64.0227 257.803 59.856 255.97 58.0227L301.97 55.5227M300.47 53.0227C289.47 51.5227 278.47 46.7227 266.47 40.7227M228.47 31.0227L272.47 28.5227L280.97 27.0227" stroke="black" stroke-width="0.5"/>
<path d="M290.47 41.0227C290.47 39.0227 289.47 35.0227 285.97 33.0227C288.191 33.0227 291.567 34.0631 294.079 36.4327C294.542 37.9627 293.47 41.5227 290.428 43.0227C290.414 42.4324 290.47 41.747 290.47 41.0227Z" fill="#EDADBF"/>
<path d="M272.47 43.5227C279.465 43.8725 285.482 43.9776 290.863 44.5227M297.47 45.5227C295.367 45.0721 293.173 44.7568 290.863 44.5227M295.47 38.0227C295.052 37.4376 294.583 36.9084 294.079 36.4327M290.863 44.5227C290.537 44.1779 290.443 43.6549 290.428 43.0227M290.428 43.0227C290.414 42.4324 290.47 41.747 290.47 41.0227C290.47 39.0227 289.47 35.0227 285.97 33.0227C288.191 33.0227 291.567 34.0631 294.079 36.4327M290.428 43.0227C293.47 41.5227 294.542 37.9627 294.079 36.4327" stroke="black" stroke-width="0.5"/>
<path d="M290.47 41.0227C285.97 41.0227 283.97 37.0227 282.97 34.5227" stroke="black" stroke-width="0.5"/>
<path d="M132.468 13.1227C118.968 17.1227 106.968 23.0227 92.9678 36.0227C99.9678 24.0227 115.468 14.5227 130.968 9.52271L132.468 13.1227Z" fill="#E56E90" stroke="black" stroke-width="0.5"/>
<path d="M130.968 9.52271C110.968 15.1967 92.9678 32.5227 84.9678 30.5227C97.9678 21.0227 113.968 12.5227 130.468 8.02271L130.968 9.52271Z" fill="#E56E90" stroke="black" stroke-width="0.5"/>
<path d="M9.96844 48.5227H3.96844C1.46777 52.5227 1.46777 62.5227 1.96844 66.0227C0.467773 67.0227 0.468371 71.5227 1.46844 73.0227L5.46844 73.5227V75.0227L1.46844 77.0227V79.0227C5.46844 80.0227 13.9684 82.0227 21.9684 81.5227V80.0227H39.4684C38.8018 71.5227 40.4684 61.0227 49.4684 54.0227C46.9684 50.0227 39.9684 45.5227 36.9684 45.0227C26.9684 44.0227 11.9684 46.5227 9.96844 48.5227Z" fill="#E56E90" stroke="black" stroke-width="0.5"/>
<path d="M92.9697 36.0227C75.1364 36.856 43.4697 41.7227 32.9697 44.7227L36.9697 45.0227C41.9697 46.5227 47.4697 50.856 49.4697 54.0227C62.4688 44.5227 87.9688 51.5227 86.4688 79.0227H96.4688C89.4688 68.0227 90.4688 46.0227 92.9697 36.0227Z" fill="#E56E90" stroke="black" stroke-width="0.5"/>
<path d="M9.96777 48.5228H3.96777C36.468 29.0227 58.468 35.0227 84.4678 30.5227L93.468 36.0227C76.468 37.0227 47.4678 40.5227 33.4678 44.7227C25.4678 44.5227 11.4678 46.5227 9.96777 48.5228Z" fill="#E56E90" stroke="black" stroke-width="0.5"/>
<path d="M36.9692 45.0228C29.4692 44.0227 12.4692 46.0227 9.96923 48.5228C9.16923 50.9227 12.3026 53.856 13.9692 55.0227C23.4692 56.5227 36.9692 50.5227 36.9692 45.0228Z" fill="#E56E90" stroke="black" stroke-width="0.5"/>
<path d="M3.96847 48.5227C10.9685 49.5227 4.96847 60.0227 1.96847 65.0227C1.4684 58.0227 1.96826 52.5227 3.96847 48.5227Z" fill="#E56E90" stroke="black" stroke-width="0.5"/>
<path d="M21.9678 84.5227V80.0227H39.4678L39.9678 84.5227H21.9678Z" fill="#E56E90" stroke="black" stroke-width="0.5"/>
<path d="M2.46973 66.0225C3.96973 68.5225 5.96973 71.6891 5.46973 73.5225M21.9697 80.0225C11.4697 80.5225 6.96973 76.5225 7.96973 73.0225C8.46973 72.5225 9.96973 71.0225 10.9697 71.0225" stroke="black" stroke-width="0.5"/>
<path d="M31.9697 75.0226C29.4697 71.0226 23.9697 66.0227 20.9697 64.5227C19.2197 64.0227 16.5946 64.1477 13.8445 64.5227C12.2196 65.856 10.9697 69.0226 11.4697 72.0226C11.4697 73.1892 12.7771 75.5226 15.4697 75.5226C19.9697 75.5226 26.9697 76.0226 31.9697 75.0226Z" fill="#E56E90"/>
<path d="M5.96973 66.0227C8.21967 65.5226 11.0946 64.8977 13.8445 64.5227M13.8445 64.5227C16.5946 64.1477 19.2197 64.0227 20.9697 64.5227C23.9697 66.0227 29.4697 71.0226 31.9697 75.0226C26.9697 76.0226 19.9697 75.5226 15.4697 75.5226C12.7771 75.5226 11.4697 73.1892 11.4697 72.0226C10.9697 69.0226 12.2196 65.856 13.8445 64.5227Z" stroke="black" stroke-width="0.5"/>
<path d="M11.4697 71.5227C19.4697 70.0227 22.9697 72.6512 25.9697 74.1512M12.9697 74.5227L30.4697 74.0227" stroke="black" stroke-width="0.5"/>
<path d="M21.9678 83.0225H31.4678C33.4678 83.0225 34.9678 81.0225 34.4678 80.0225M37.9678 80.0225V84.5225" stroke="black" stroke-width="0.5"/>
<path d="M21.9697 81.5229C17.4697 81.5229 12.9697 82.0229 1.46967 79.0229V77.0229L5.46967 75.0229V73.5229L1.46967 73.023C0.96875 71.5227 -0.0310541 68.5227 1.96894 66.0227C1.46918 58.0227 1.96918 51.5227 3.96967 48.5224C36.4697 29.0228 58.4697 35.0229 84.4697 30.5229C162.47 -24.4772 244.47 12.5227 281.47 27.0229L294.97 29.0227L295.47 36.0227V39.0227C296.968 44.0227 298.303 48.5227 296.97 50.5227C299.47 51.5227 301.97 54.6894 301.97 56.5227L299.97 66.5227C300.422 77.3706 298.013 77.5949 288.682 77.9073C287.691 77.9405 285.622 77.9747 284.47 78.0227V79.5227L259.47 79.9537M21.9697 81.5229V84.5229H39.968L39.4697 80.0229M21.9697 81.5229V80.0229H39.4697M39.4697 80.0229C36.4697 38.5229 89.9697 41.5229 86.4697 80.5229V83.0227H212.97C206.97 39.5227 261.47 39.5227 259.47 79.9537M258.968 79.9537H259.47" stroke="black"/>
</svg>
