<svg width="304" height="96" viewBox="0 0 304 96" fill="none" xmlns="http://www.w3.org/2000/svg">
<circle cx="63.0635" cy="74.553" r="20.5" fill="#EDADBF" stroke="black"/>
<circle cx="236.063" cy="74.553" r="20.5" fill="#EDADBF" stroke="black"/>
<path d="M133.062 13.0528L131.562 9.55283C171.562 1.55295 193.062 2.05298 232.062 13.5529L228.562 18.0529C208.562 10.0529 190.562 9.05289 174.562 8.55296C172.062 8.05296 168.062 8.05292 165.562 8.55283C155.562 8.55296 143.562 10.053 133.062 13.0528Z" fill="#E0426F" stroke="black" stroke-width="0.5"/>
<path d="M131.562 9.55302L131.062 8.05302C167.062 -2.94702 199.562 1.05285 235.062 10.053L232.062 13.553C192.062 1.05298 166.062 2.55298 131.562 9.55302Z" fill="#E0426F" stroke="black" stroke-width="0.5"/>
<path d="M131.562 9.55284C183.062 -1.94718 211.562 8.05286 232.062 13.5528" stroke="black" stroke-width="0.5"/>
<path d="M171.063 30.553L174.563 8.55298C208.063 9.55298 219.563 15.053 224.063 16.553L226.546 28.553C199.556 28.5536 182.061 30.0531 171.063 30.553Z" fill="#E0426F"/>
<path d="M227.063 31.053L224.063 16.553C219.563 15.053 208.063 9.55298 174.563 8.55298L171.063 30.553C182.063 30.053 199.563 28.553 226.563 28.553" stroke="black" stroke-width="0.5"/>
<path d="M165.563 8.55298C132.563 9.55298 112.563 18.553 93.5635 36.053L96.0635 34.053L160.063 31.053L165.563 8.55298Z" fill="#E0426F" stroke="black" stroke-width="0.5"/>
<path d="M240.062 23.053C236.395 20.3863 230.562 18.053 224.062 16.553L226.562 28.553H233.062C236.062 27.053 239.062 24.8217 240.062 23.053Z" fill="#E0426F" stroke="black" stroke-width="0.5"/>
<path d="M97.0635 79.053H164.063L198.563 77.553H213.063L213.563 83.053H199.563H98.5635H87.0635V79.053H97.0635Z" fill="#E0426F"/>
<path d="M97.0635 79.053H164.063L198.563 77.553M97.0635 79.053C97.0635 80.553 97.5635 81.553 98.5635 83.053M97.0635 79.053H87.0635V83.053H98.5635M198.563 77.553L199.563 83.053M198.563 77.553H213.063L213.563 83.053H199.563M199.563 83.053H98.5635" stroke="black" stroke-width="0.5"/>
<path d="M97.0626 79.053C92.5635 74.553 89.5635 52.553 93.5626 36.053L165.563 32.053C161.563 37.053 160.563 71.053 164.063 79.053H97.0626Z" fill="#E0426F" stroke="black" stroke-width="0.5"/>
<path d="M229.063 31.053L165.563 32.053C161.564 37.053 160.564 71.053 164.063 79.053L198.563 77.553C203.063 76.053 209.563 70.553 229.063 31.053Z" fill="#E0426F" stroke="black" stroke-width="0.5"/>
<path d="M171.063 30.5531C166.563 31.0531 163.063 31.0531 160.063 31.0531L165.563 8.55305C168.563 8.05298 171.563 8.05298 174.563 8.55305L171.063 30.5531Z" fill="#E0426F" stroke="black" stroke-width="0.5"/>
<path d="M99.5635 32.553C104.063 38.053 111.063 34.553 115.063 33.053C116.063 17.5529 103.063 25.5529 99.5635 32.553Z" fill="#E0426F" stroke="black" stroke-width="0.5"/>
<path d="M235.062 10.053L232.062 13.553C249.062 19.053 259.562 22.053 272.062 28.553H273.562L281.562 27.053C266.562 20.553 259.062 18.053 235.062 10.053Z" fill="#E56E90" stroke="black" stroke-width="0.5"/>
<path d="M272.062 28.553C261.562 23.053 242.562 16.553 232.062 13.553L230.062 16.053L245.062 23.553C243.562 26.053 239.562 28.053 233.562 30.753C245.562 30.053 262.562 29.053 272.062 28.553Z" fill="#E56E90" stroke="black" stroke-width="0.5"/>
<path d="M277.563 34.853L283.562 32.553L273.062 28.553L229.062 31.053C221.562 46.053 206.562 76.553 198.562 77.553H213.062C211.562 66.553 221.062 43.053 246.063 52.053C256.563 46.553 266.563 41.053 277.563 34.853Z" fill="#E56E90" stroke="black" stroke-width="0.5"/>
<path d="M278.562 34.553C266.562 41.053 256.562 46.553 246.062 52.053C250.562 55.053 261.062 61.053 260.062 80.053L285.062 79.553V78.053C293.562 77.053 302.062 80.553 300.562 66.553L302.562 56.553C302.562 55.053 300.062 51.053 297.562 50.553C299.062 48.053 296.062 39.053 296.062 39.053V37.553L292.062 34.553L287.062 33.053L283.562 32.553L278.562 34.553Z" fill="#E56E90" stroke="black" stroke-width="0.5"/>
<path d="M281.562 27.053L273.062 28.553L283.562 32.553C293.062 33.553 292.06 35.053 296.056 37.4732L295.562 29.053L281.562 27.053Z" fill="#E56E90"/>
<path d="M296.062 37.553L296.056 37.4732M296.056 37.4732L295.562 29.053L281.562 27.053L273.062 28.553L283.562 32.553C293.062 33.553 292.06 35.053 296.056 37.4732Z" stroke="black" stroke-width="0.5"/>
<path d="M294.563 37.0532C294.063 34.5531 283.063 34.353 277.563 34.853" stroke="black" stroke-width="0.5"/>
<path d="M300.563 67.053L261.063 69.053C260.563 64.053 258.397 59.8863 256.563 58.053L302.563 55.553M301.063 53.053C290.063 51.553 279.063 46.753 267.063 40.753M229.063 31.053L273.063 28.553L281.563 27.053" stroke="black" stroke-width="0.5"/>
<path d="M291.063 41.053C291.063 39.053 290.063 35.053 286.563 33.053C288.784 33.053 292.161 34.0934 294.672 36.463C295.136 37.993 294.063 41.553 291.022 43.053C291.008 42.4627 291.063 41.7773 291.063 41.053Z" fill="#E56E90"/>
<path d="M273.063 43.553C280.059 43.9028 286.076 44.0079 291.457 44.553M298.063 45.553C295.96 45.1023 293.767 44.7871 291.457 44.553M296.063 38.053C295.646 37.4679 295.176 36.9386 294.672 36.463M291.457 44.553C291.13 44.2082 291.036 43.6852 291.022 43.053M291.022 43.053C291.008 42.4627 291.063 41.7773 291.063 41.053C291.063 39.053 290.063 35.053 286.563 33.053C288.784 33.053 292.161 34.0934 294.672 36.463M291.022 43.053C294.063 41.553 295.136 37.993 294.672 36.463" stroke="black" stroke-width="0.5"/>
<path d="M291.063 41.053C286.563 41.053 284.563 37.053 283.563 34.553" stroke="black" stroke-width="0.5"/>
<path d="M133.062 13.153C119.562 17.153 107.562 23.053 93.5615 36.053C100.562 24.053 116.062 14.553 131.562 9.55298L133.062 13.153Z" stroke="black" stroke-width="0.5"/>
<path d="M131.562 9.55298C111.562 15.227 93.5615 32.553 85.5615 30.553C98.5615 21.053 114.562 12.553 131.062 8.05298L131.562 9.55298Z" stroke="black" stroke-width="0.5"/>
<path d="M10.5622 48.5529H4.56219C2.06152 52.5529 2.06152 62.5529 2.56219 66.0529C1.06152 67.0529 1.06212 71.5529 2.06219 73.0529L6.06219 73.5529V75.0529L2.06219 77.0529V79.0529C6.06219 80.0529 14.5622 82.0529 22.5622 81.5529V80.0529H40.0622C39.3955 71.5529 41.0622 61.0529 50.0622 54.0529C47.5622 50.0529 40.5622 45.5529 37.5622 45.0529C27.5622 44.0529 12.5622 46.5529 10.5622 48.5529Z" stroke="black" stroke-width="0.5"/>
<path d="M93.5635 36.053C75.7301 36.8863 44.0635 41.753 33.5635 44.753L37.5635 45.053C42.5635 46.553 48.0635 50.8863 50.0635 54.053C63.0625 44.553 88.5625 51.553 87.0625 79.053H97.0625C90.0625 68.053 91.0625 46.053 93.5635 36.053Z" stroke="black" stroke-width="0.5"/>
<path d="M10.5615 48.553H4.56152C37.0617 29.0529 59.0618 35.053 85.0615 30.553L94.0618 36.053C77.0618 37.053 48.0615 40.553 34.0615 44.753C26.0615 44.553 12.0615 46.553 10.5615 48.553Z" stroke="black" stroke-width="0.5"/>
<path d="M37.563 45.0531C30.063 44.053 13.063 46.053 10.563 48.5531C9.76298 50.953 12.8963 53.8863 14.563 55.053C24.063 56.553 37.563 50.553 37.563 45.0531Z" stroke="black" stroke-width="0.5"/>
<path d="M4.56222 48.553C11.5622 49.553 5.56222 60.053 2.56222 65.053C2.06215 58.053 2.56201 52.553 4.56222 48.553Z" stroke="black" stroke-width="0.5"/>
<path d="M22.5615 84.553V80.053H40.0615L40.5615 84.553H22.5615Z" stroke="black" stroke-width="0.5"/>
<path d="M3.06348 66.0527C4.56348 68.5527 6.56348 71.7194 6.06348 73.5527M22.5635 80.0527C12.0635 80.5527 7.56348 76.5527 8.56348 73.0527C9.06348 72.5527 10.5635 71.0527 11.5635 71.0527" stroke="black" stroke-width="0.5"/>
<path d="M6.56348 66.0529C8.81342 65.5529 11.6883 64.9279 14.4383 64.5529M14.4383 64.5529C17.1883 64.1779 19.8134 64.0529 21.5635 64.5529C24.5635 66.0529 30.0635 71.0529 32.5635 75.0529C27.5635 76.0529 20.5635 75.5529 16.0635 75.5529C13.3709 75.5529 12.0635 73.2195 12.0635 72.0529C11.5635 69.0529 12.8133 65.8862 14.4383 64.5529Z" stroke="black" stroke-width="0.5"/>
<path d="M12.0635 71.5529C20.0635 70.053 23.5635 72.6815 26.5635 74.1815M13.5635 74.553L31.0635 74.053" stroke="black" stroke-width="0.5"/>
<path d="M22.5615 83.0527H32.0615C34.0615 83.0527 35.5615 81.0527 35.0615 80.0527M38.5615 80.0527V84.5527" stroke="black" stroke-width="0.5"/>
<path d="M22.5634 81.5532C18.0634 81.5532 13.5634 82.0532 2.06342 79.0532V77.0532L6.06342 75.0532V73.5532L2.06342 73.0532C1.5625 71.553 0.562696 68.553 2.56269 66.053C2.06293 58.053 2.56293 51.553 4.56342 48.5527C37.0634 29.0531 59.0634 35.0532 85.0634 30.5532C163.063 -24.4469 245.063 12.553 282.063 27.0532L295.563 29.053L296.063 36.053V39.053C297.562 44.053 298.897 48.553 297.563 50.553C300.063 51.553 302.563 54.7196 302.563 56.553L300.563 66.553C301.015 77.4009 298.607 77.6252 289.276 77.9376C288.285 77.9708 286.216 78.005 285.063 78.053V79.553L260.063 79.984M22.5634 81.5532V84.5532H40.5618L40.0634 80.0532M22.5634 81.5532V80.0532H40.0634M40.0634 80.0532C37.0634 38.5532 90.5634 41.5532 87.0634 80.5532V83.053H213.563C207.563 39.553 262.063 39.553 260.063 79.984M259.562 79.984H260.063" stroke="black"/>
</svg>
