<svg width="304" height="96" viewBox="0 0 304 96" fill="none" xmlns="http://www.w3.org/2000/svg">
<circle cx="63.0518" cy="74.3838" r="20.5" fill="#EDADBF" stroke="black"/>
<circle cx="236.052" cy="74.3838" r="20.5" fill="#EDADBF" stroke="black"/>
<path d="M133.05 12.8836L131.55 9.38364C171.55 1.38376 193.05 1.88379 232.05 13.3837L228.55 17.8837C208.55 9.8837 190.55 8.8837 174.55 8.38377C172.05 7.88377 168.05 7.88373 165.55 8.38364C155.55 8.38377 143.55 9.88377 133.05 12.8836Z" fill="#E56E90" stroke="black" stroke-width="0.5"/>
<path d="M131.55 9.38383L131.05 7.88383C167.05 -3.11621 199.55 0.883663 235.05 9.88383L232.05 13.3838C192.05 0.883789 166.05 2.38379 131.55 9.38383Z" fill="#E56E90" stroke="black" stroke-width="0.5"/>
<path d="M131.55 9.3839C183.05 -2.11613 211.55 7.88391 232.05 13.3839" stroke="black" stroke-width="0.5"/>
<path d="M171.052 30.3838L174.552 8.38379C208.052 9.38379 219.552 14.8838 224.052 16.3838L226.535 28.3838C199.544 28.3844 182.049 29.8839 171.052 30.3838Z" fill="#E56E90"/>
<path d="M227.052 30.8838L224.052 16.3838C219.552 14.8838 208.052 9.38379 174.552 8.38379L171.052 30.3838C182.052 29.8838 199.552 28.3838 226.552 28.3838" stroke="black" stroke-width="0.5"/>
<path d="M165.552 8.38379C132.552 9.38379 112.552 18.3838 93.5518 35.8838L96.0518 33.8838L160.052 30.8838L165.552 8.38379Z" fill="#E56E90" stroke="black" stroke-width="0.5"/>
<path d="M240.05 22.8838C236.383 20.2171 230.55 17.8838 224.05 16.3838L226.55 28.3838H233.05C236.05 26.8838 239.05 24.6525 240.05 22.8838Z" fill="#E56E90" stroke="black" stroke-width="0.5"/>
<path d="M97.0518 78.8838H164.052L198.552 77.3838H213.052L213.552 82.8838H199.552H98.5518H87.0518V78.8838H97.0518Z" fill="#E56E90"/>
<path d="M97.0518 78.8838H164.052L198.552 77.3838M97.0518 78.8838C97.0518 80.3838 97.5518 81.3838 98.5518 82.8838M97.0518 78.8838H87.0518V82.8838H98.5518M198.552 77.3838L199.552 82.8838M198.552 77.3838H213.052L213.552 82.8838H199.552M199.552 82.8838H98.5518" stroke="black" stroke-width="0.5"/>
<path d="M97.0509 78.8838C92.5518 74.3838 89.5518 52.3838 93.5509 35.8838L165.552 31.8838C161.552 36.8838 160.552 70.8838 164.052 78.8838H97.0509Z" fill="#E56E90" stroke="black" stroke-width="0.5"/>
<path d="M229.052 30.8838L165.552 31.8838C161.552 36.8838 160.552 70.8838 164.052 78.8838L198.552 77.3838C203.052 75.8838 209.552 70.3838 229.052 30.8838Z" fill="#E56E90" stroke="black" stroke-width="0.5"/>
<path d="M171.052 30.3839C166.552 30.8839 163.052 30.8839 160.052 30.8839L165.552 8.38386C168.552 7.88379 171.552 7.88379 174.552 8.38386L171.052 30.3839Z" fill="#E56E90" stroke="black" stroke-width="0.5"/>
<path d="M99.5518 32.384C104.052 37.884 111.052 34.384 115.052 32.884C116.052 17.3839 103.052 25.3839 99.5518 32.384Z" fill="#E56E90" stroke="black" stroke-width="0.5"/>
<path d="M235.05 9.88379L232.05 13.3838C249.05 18.8838 259.55 21.8838 272.05 28.3838H273.55L281.55 26.8838C266.55 20.3838 259.05 17.8838 235.05 9.88379Z" fill="#E0426F" stroke="black" stroke-width="0.5"/>
<path d="M272.05 28.3838C261.55 22.8838 242.55 16.3838 232.05 13.3838L230.05 15.8838L245.05 23.3838C243.55 25.8838 239.55 27.8838 233.55 30.5838C245.55 29.8838 262.55 28.8838 272.05 28.3838Z" fill="#E0426F" stroke="black" stroke-width="0.5"/>
<path d="M277.552 34.6838L283.55 32.3838L273.051 28.3838L229.051 30.8838C221.551 45.8838 206.551 76.3838 198.551 77.3838H213.051C211.551 66.3838 221.051 42.8838 246.052 51.8838C256.552 46.3838 266.552 40.8838 277.552 34.6838Z" fill="#E0426F" stroke="black" stroke-width="0.5"/>
<path d="M278.55 34.3838C266.55 40.8838 256.55 46.3838 246.05 51.8838C250.55 54.8838 261.05 60.8838 260.05 79.8838L285.05 79.3838V77.8838C293.55 76.8838 302.05 80.3838 300.55 66.3838L302.55 56.3838C302.55 54.8838 300.05 50.8838 297.55 50.3838C299.05 47.8838 296.05 38.8838 296.05 38.8838V37.3838L292.05 34.3838L287.05 32.8838L283.55 32.3838L278.55 34.3838Z" fill="#E0426F" stroke="black" stroke-width="0.5"/>
<path d="M281.55 26.8838L273.05 28.3838L283.55 32.3838C293.05 33.3838 292.049 34.8838 296.044 37.304L295.55 28.8838L281.55 26.8838Z" fill="#E0426F"/>
<path d="M296.05 37.3838L296.044 37.304M296.044 37.304L295.55 28.8838L281.55 26.8838L273.05 28.3838L283.55 32.3838C293.05 33.3838 292.049 34.8838 296.044 37.304Z" stroke="black" stroke-width="0.5"/>
<path d="M294.552 36.884C294.052 34.3839 283.052 34.1838 277.552 34.6838" stroke="black" stroke-width="0.5"/>
<path d="M300.552 66.8838L261.052 68.8838C260.552 63.8838 258.385 59.7171 256.552 57.8838L302.552 55.3838M301.052 52.8838C290.052 51.3838 279.052 46.5838 267.052 40.5838M229.052 30.8838L273.052 28.3838L281.552 26.8838" stroke="black" stroke-width="0.5"/>
<path d="M291.052 40.8838C291.052 38.8838 290.052 34.8838 286.552 32.8838C288.773 32.8838 292.149 33.9242 294.661 36.2938C295.124 37.8238 294.052 41.3838 291.01 42.8838C290.996 42.2935 291.052 41.6081 291.052 40.8838Z" fill="#E0426F"/>
<path d="M273.052 43.3838C280.047 43.7336 286.064 43.8387 291.445 44.3838M298.052 45.3838C295.949 44.9331 293.756 44.6179 291.445 44.3838M296.052 37.8838C295.634 37.2987 295.165 36.7694 294.661 36.2938M291.445 44.3838C291.119 44.039 291.025 43.516 291.01 42.8838M291.01 42.8838C290.996 42.2935 291.052 41.6081 291.052 40.8838C291.052 38.8838 290.052 34.8838 286.552 32.8838C288.773 32.8838 292.149 33.9242 294.661 36.2938M291.01 42.8838C294.052 41.3838 295.124 37.8238 294.661 36.2938" stroke="black" stroke-width="0.5"/>
<path d="M291.052 40.8838C286.552 40.8838 284.552 36.8838 283.552 34.3838" stroke="black" stroke-width="0.5"/>
<path d="M133.05 12.9838C119.55 16.9838 107.55 22.8838 93.5498 35.8838C100.55 23.8838 116.05 14.3838 131.55 9.38379L133.05 12.9838Z" fill="#E0426F" stroke="black" stroke-width="0.5"/>
<path d="M131.55 9.38379C111.55 15.0578 93.5498 32.3838 85.5498 30.3838C98.5498 20.8838 114.55 12.3838 131.05 7.88379L131.55 9.38379Z" fill="#E0426F" stroke="black" stroke-width="0.5"/>
<path d="M10.5505 48.3837H4.55047C2.0498 52.3837 2.0498 62.3837 2.55047 65.8837C1.0498 66.8837 1.0504 71.3837 2.05047 72.8837L6.05047 73.3837V74.8837L2.05047 76.8837V78.8837C6.05047 79.8837 14.5505 81.8837 22.5505 81.3837V79.8837H40.0505C39.3838 71.3837 41.0505 60.8837 50.0505 53.8837C47.5505 49.8837 40.5505 45.3837 37.5505 44.8837C27.5505 43.8837 12.5505 46.3837 10.5505 48.3837Z" fill="#E0426F" stroke="black" stroke-width="0.5"/>
<path d="M93.5518 35.8838C75.7184 36.7171 44.0518 41.5838 33.5518 44.5838L37.5518 44.8838C42.5518 46.3838 48.0518 50.7171 50.0518 53.8838C63.0508 44.3838 88.5508 51.3838 87.0508 78.8838H97.0508C90.0508 67.8838 91.0508 45.8838 93.5518 35.8838Z" fill="#E0426F" stroke="black" stroke-width="0.5"/>
<path d="M10.5498 48.3838H4.5498C37.05 28.8837 59.05 34.8838 85.0498 30.3838L94.05 35.8838C77.05 36.8838 48.0498 40.3838 34.0498 44.5838C26.0498 44.3838 12.0498 46.3838 10.5498 48.3838Z" fill="#E0426F" stroke="black" stroke-width="0.5"/>
<path d="M37.5513 44.8839C30.0513 43.8838 13.0513 45.8838 10.5513 48.3839C9.75126 50.7838 12.8846 53.7171 14.5513 54.8838C24.0513 56.3838 37.5513 50.3838 37.5513 44.8839Z" fill="#E0426F" stroke="black" stroke-width="0.5"/>
<path d="M4.5505 48.3838C11.5505 49.3838 5.5505 59.8838 2.5505 64.8838C2.05043 57.8838 2.55029 52.3838 4.5505 48.3838Z" fill="#E0426F" stroke="black" stroke-width="0.5"/>
<path d="M22.5498 84.3838V79.8838H40.0498L40.5498 84.3838H22.5498Z" fill="#E0426F" stroke="black" stroke-width="0.5"/>
<path d="M3.05176 65.8838C4.55176 68.3838 6.55176 71.5505 6.05176 73.3838M22.5518 79.8838C12.0518 80.3838 7.55176 76.3838 8.55176 72.8838C9.05176 72.3838 10.5518 70.8838 11.5518 70.8838" stroke="black" stroke-width="0.5"/>
<path d="M32.5518 74.8839C30.0518 70.8839 24.5518 65.884 21.5518 64.384C19.8017 63.884 17.1766 64.009 14.4265 64.384C12.8016 65.7173 11.5518 68.8839 12.0518 71.8839C12.0518 73.0506 13.3592 75.3839 16.0518 75.3839C20.5518 75.3839 27.5518 75.8839 32.5518 74.8839Z" fill="#E0426F"/>
<path d="M6.55176 65.884C8.8017 65.384 11.6766 64.759 14.4265 64.384M14.4265 64.384C17.1766 64.009 19.8017 63.884 21.5518 64.384C24.5518 65.884 30.0518 70.8839 32.5518 74.8839C27.5518 75.8839 20.5518 75.3839 16.0518 75.3839C13.3592 75.3839 12.0518 73.0506 12.0518 71.8839C11.5518 68.8839 12.8016 65.7173 14.4265 64.384Z" stroke="black" stroke-width="0.5"/>
<path d="M12.0518 71.384C20.0518 69.884 23.5518 72.5125 26.5518 74.0125M13.5518 74.384L31.0518 73.884" stroke="black" stroke-width="0.5"/>
<path d="M22.5498 82.8838H32.0498C34.0498 82.8838 35.5498 80.8838 35.0498 79.8838M38.5498 79.8838V84.3838" stroke="black" stroke-width="0.5"/>
<path d="M22.5517 81.384C18.0517 81.384 13.5517 81.884 2.0517 78.884V76.884L6.0517 74.884V73.384L2.0517 72.884C1.55078 71.3838 0.550977 68.3838 2.55097 65.8838C2.05122 57.8838 2.55122 51.3838 4.5517 48.3835C37.0517 28.8839 59.0517 34.884 85.0517 30.384C163.052 -24.6161 245.052 12.3838 282.052 26.884L295.552 28.8838L296.052 35.8838V38.8838C297.55 43.8838 298.885 48.3838 297.552 50.3838C300.052 51.3838 302.552 54.5505 302.552 56.3838L300.552 66.3838C301.004 77.2317 298.596 77.456 289.264 77.7684C288.273 77.8016 286.204 77.8358 285.052 77.8838V79.3838L260.052 79.8148M22.5517 81.384V84.384H40.55L40.0517 79.884M22.5517 81.384V79.884H40.0517M40.0517 79.884C37.0517 38.384 90.5517 41.384 87.0517 80.384V82.8838H213.552C207.552 39.3838 262.052 39.3838 260.052 79.8148M259.55 79.8148H260.052" stroke="black"/>
</svg>
