<svg width="303" height="96" viewBox="0 0 303 96" fill="none" xmlns="http://www.w3.org/2000/svg">
<circle cx="62.4795" cy="74.5378" r="20.5" fill="#E0426F" stroke="black"/>
<circle cx="235.479" cy="74.5378" r="20.5" fill="#E0426F" stroke="black"/>
<path d="M132.478 13.0377L130.978 9.5377C170.978 1.53781 192.478 2.03784 231.478 13.5378L227.978 18.0378C207.978 10.0378 189.978 9.03775 173.978 8.53782C171.478 8.03782 167.478 8.03778 164.978 8.5377C154.978 8.53782 142.978 10.0378 132.478 13.0377Z" fill="#EDADBF" stroke="black" stroke-width="0.5"/>
<path d="M130.978 9.53789L130.478 8.03789C166.478 -2.96216 198.978 1.03772 234.478 10.0379L231.478 13.5379C191.478 1.03784 165.478 2.53784 130.978 9.53789Z" fill="#EDADBF" stroke="black" stroke-width="0.5"/>
<path d="M130.978 9.53771C182.478 -1.96232 210.978 8.03772 231.478 13.5377" stroke="black" stroke-width="0.5"/>
<path d="M170.479 30.5378L173.979 8.53784C207.479 9.53784 218.979 15.0378 223.479 16.5378L225.962 28.5378C198.972 28.5385 181.477 30.0379 170.479 30.5378Z" fill="#EDADBF"/>
<path d="M226.479 31.0378L223.479 16.5378C218.979 15.0378 207.479 9.53784 173.979 8.53784L170.479 30.5378C181.479 30.0378 198.979 28.5378 225.979 28.5378" stroke="black" stroke-width="0.5"/>
<path d="M164.979 8.53784C131.979 9.53784 111.979 18.5378 92.9795 36.0378L95.4795 34.0378L159.479 31.0378L164.979 8.53784Z" fill="#EDADBF" stroke="black" stroke-width="0.5"/>
<path d="M239.478 23.0378C235.811 20.3712 229.978 18.0378 223.478 16.5378L225.978 28.5378H232.478C235.478 27.0378 238.478 24.8066 239.478 23.0378Z" fill="#EDADBF" stroke="black" stroke-width="0.5"/>
<path d="M96.4795 79.0378H163.479L197.979 77.5378H212.479L212.979 83.0378H198.979H97.9795H86.4795V79.0378H96.4795Z" fill="#EDADBF"/>
<path d="M96.4795 79.0378H163.479L197.979 77.5378M96.4795 79.0378C96.4795 80.5378 96.9795 81.5378 97.9795 83.0378M96.4795 79.0378H86.4795V83.0378H97.9795M197.979 77.5378L198.979 83.0378M197.979 77.5378H212.479L212.979 83.0378H198.979M198.979 83.0378H97.9795" stroke="black" stroke-width="0.5"/>
<path d="M96.4786 79.0378C91.9795 74.5378 88.9795 52.5378 92.9786 36.0378L164.979 32.0378C160.979 37.0378 159.979 71.0378 163.479 79.0378H96.4786Z" fill="#EDADBF" stroke="black" stroke-width="0.5"/>
<path d="M228.479 31.0378L164.979 32.0378C160.98 37.0378 159.98 71.0378 163.479 79.0378L197.979 77.5378C202.479 76.0378 208.979 70.5378 228.479 31.0378Z" fill="#EDADBF" stroke="black" stroke-width="0.5"/>
<path d="M170.479 30.5379C165.979 31.0379 162.479 31.0379 159.479 31.0379L164.979 8.53792C167.979 8.03784 170.979 8.03784 173.979 8.53792L170.479 30.5379Z" fill="#EDADBF" stroke="black" stroke-width="0.5"/>
<path d="M98.9795 32.5379C103.479 38.0379 110.479 34.5379 114.479 33.0379C115.479 17.5377 102.479 25.5377 98.9795 32.5379Z" fill="#EDADBF" stroke="black" stroke-width="0.5"/>
<path d="M234.478 10.0378L231.478 13.5378C248.478 19.0378 258.978 22.0378 271.478 28.5378H272.978L280.978 27.0378C265.978 20.5378 258.478 18.0378 234.478 10.0378Z" fill="#EFC7D3" stroke="black" stroke-width="0.5"/>
<path d="M271.478 28.5378C260.978 23.0378 241.978 16.5378 231.478 13.5378L229.478 16.0378L244.478 23.5378C242.978 26.0378 238.978 28.0378 232.978 30.7378C244.978 30.0378 261.978 29.0378 271.478 28.5378Z" fill="#EFC7D3" stroke="black" stroke-width="0.5"/>
<path d="M276.979 34.8378L282.978 32.5378L272.479 28.5378L228.479 31.0378C220.979 46.0378 205.979 76.5378 197.979 77.5378H212.479C210.979 66.5378 220.479 43.0378 245.479 52.0378C255.979 46.5378 265.979 41.0378 276.979 34.8378Z" fill="#EFC7D3" stroke="black" stroke-width="0.5"/>
<path d="M277.978 34.5379C265.978 41.0379 255.978 46.5379 245.478 52.0379C249.978 55.0378 260.478 61.0378 259.478 80.0378L284.478 79.5378V78.0378C292.978 77.0378 301.478 80.5378 299.978 66.5378L301.978 56.5378C301.978 55.0378 299.478 51.0378 296.978 50.5378C298.478 48.0378 295.478 39.0378 295.478 39.0378V37.5378L291.478 34.5378L286.478 33.0378L282.978 32.5378L277.978 34.5379Z" fill="#EFC7D3" stroke="black" stroke-width="0.5"/>
<path d="M280.978 27.0378L272.478 28.5378L282.978 32.5378C292.478 33.5378 291.476 35.0378 295.472 37.458L294.978 29.0378L280.978 27.0378Z" fill="#EFC7D3"/>
<path d="M295.478 37.5378L295.472 37.458M295.472 37.458L294.978 29.0378L280.978 27.0378L272.478 28.5378L282.978 32.5378C292.478 33.5378 291.476 35.0378 295.472 37.458Z" stroke="black" stroke-width="0.5"/>
<path d="M293.979 37.038C293.479 34.5379 282.479 34.3379 276.979 34.8379" stroke="black" stroke-width="0.5"/>
<path d="M299.979 67.0378L260.479 69.0378C259.979 64.0378 257.813 59.8712 255.979 58.0378L301.979 55.5378M300.479 53.0378C289.479 51.5378 278.479 46.7378 266.479 40.7378M228.479 31.0378L272.479 28.5378L280.979 27.0378" stroke="black" stroke-width="0.5"/>
<path d="M290.479 41.0378C290.479 39.0378 289.479 35.0378 285.979 33.0378C288.2 33.0378 291.577 34.0782 294.088 36.4478C294.552 37.9778 293.479 41.5378 290.438 43.0378C290.424 42.4476 290.479 41.7621 290.479 41.0378Z" fill="#EFC7D3"/>
<path d="M272.479 43.5378C279.475 43.8876 285.492 43.9927 290.873 44.5378M297.479 45.5378C295.376 45.0872 293.183 44.7719 290.873 44.5378M295.479 38.0378C295.062 37.4527 294.592 36.9235 294.088 36.4478M290.873 44.5378C290.546 44.1931 290.452 43.67 290.438 43.0378M290.438 43.0378C290.424 42.4476 290.479 41.7621 290.479 41.0378C290.479 39.0378 289.479 35.0378 285.979 33.0378C288.2 33.0378 291.577 34.0782 294.088 36.4478M290.438 43.0378C293.479 41.5378 294.552 37.9778 294.088 36.4478" stroke="black" stroke-width="0.5"/>
<path d="M290.479 41.0378C285.979 41.0378 283.979 37.0378 282.979 34.5378" stroke="black" stroke-width="0.5"/>
<path d="M132.478 13.1378C118.978 17.1378 106.978 23.0378 92.978 36.0378C99.978 24.0378 115.478 14.5378 130.978 9.53784L132.478 13.1378Z" fill="#E0426F" stroke="black" stroke-width="0.5"/>
<path d="M130.978 9.53784C110.978 15.2119 92.978 32.5378 84.978 30.5378C97.978 21.0378 113.978 12.5378 130.478 8.03784L130.978 9.53784Z" fill="#E0426F" stroke="black" stroke-width="0.5"/>
<path d="M9.97869 48.5377H3.97869C1.47803 52.5377 1.47803 62.5377 1.97869 66.0377C0.478027 67.0377 0.478625 71.5377 1.47869 73.0377L5.47869 73.5377V75.0377L1.47869 77.0377V79.0377C5.47869 80.0377 13.9787 82.0377 21.9787 81.5377V80.0377H39.4787C38.812 71.5377 40.4787 61.0377 49.4787 54.0377C46.9787 50.0377 39.9787 45.5377 36.9787 45.0377C26.9787 44.0377 11.9787 46.5377 9.97869 48.5377Z" fill="#E0426F" stroke="black" stroke-width="0.5"/>
<path d="M92.9795 36.0378C75.1462 36.8712 43.4795 41.7378 32.9795 44.7378L36.9795 45.0378C41.9795 46.5378 47.4795 50.8712 49.4795 54.0378C62.4785 44.5378 87.9785 51.5378 86.4785 79.0378H96.4785C89.4785 68.0378 90.4785 46.0378 92.9795 36.0378Z" fill="#E0426F" stroke="black" stroke-width="0.5"/>
<path d="M9.97754 48.5379H3.97754C36.4777 29.0378 58.4778 35.0378 84.4775 30.5378L93.4778 36.0378C76.4778 37.0378 47.4775 40.5378 33.4775 44.7378C25.4775 44.5378 11.4775 46.5378 9.97754 48.5379Z" fill="#E0426F" stroke="black" stroke-width="0.5"/>
<path d="M36.9795 45.0379C29.4795 44.0378 12.4795 46.0378 9.97948 48.5379C9.17948 50.9379 12.3128 53.8712 13.9795 55.0378C23.4795 56.5378 36.9795 50.5378 36.9795 45.0379Z" fill="#E0426F" stroke="black" stroke-width="0.5"/>
<path d="M3.97872 48.5378C10.9787 49.5378 4.97872 60.0378 1.97872 65.0378C1.47865 58.0378 1.97852 52.5378 3.97872 48.5378Z" fill="#E0426F" stroke="black" stroke-width="0.5"/>
<path d="M21.978 84.5378V80.0378H39.478L39.978 84.5378H21.978Z" fill="#E0426F" stroke="black" stroke-width="0.5"/>
<path d="M2.47949 66.0376C3.97949 68.5376 5.97949 71.7043 5.47949 73.5376M21.9795 80.0376C11.4795 80.5376 6.97949 76.5376 7.97949 73.0376C8.47949 72.5376 9.97949 71.0376 10.9795 71.0376" stroke="black" stroke-width="0.5"/>
<path d="M31.9795 75.0377C29.4795 71.0377 23.9795 66.0378 20.9795 64.5378C19.2294 64.0378 16.6044 64.1628 13.8543 64.5378C12.2294 65.8711 10.9795 69.0377 11.4795 72.0377C11.4795 73.2044 12.7869 75.5377 15.4795 75.5377C19.9795 75.5377 26.9795 76.0377 31.9795 75.0377Z" fill="#E0426F"/>
<path d="M5.97949 66.0378C8.22943 65.5378 11.1043 64.9128 13.8543 64.5378M13.8543 64.5378C16.6044 64.1628 19.2294 64.0378 20.9795 64.5378C23.9795 66.0378 29.4795 71.0377 31.9795 75.0377C26.9795 76.0377 19.9795 75.5377 15.4795 75.5377C12.7869 75.5377 11.4795 73.2044 11.4795 72.0377C10.9795 69.0377 12.2293 65.8711 13.8543 64.5378Z" stroke="black" stroke-width="0.5"/>
<path d="M11.4795 71.5378C19.4795 70.0378 22.9795 72.6663 25.9795 74.1663M12.9795 74.5378L30.4795 74.0378" stroke="black" stroke-width="0.5"/>
<path d="M21.9775 83.0376H31.4775C33.4775 83.0376 34.9775 81.0376 34.4775 80.0376M37.9775 80.0376V84.5376" stroke="black" stroke-width="0.5"/>
<path d="M21.9794 81.5381C17.4794 81.5381 12.9794 82.0381 1.47944 79.0381V77.0381L5.47944 75.0381V73.5381L1.47944 73.0381C0.978516 71.5378 -0.0212885 68.5378 1.97871 66.0378C1.47895 58.0378 1.97895 51.5378 3.97944 48.5376C36.4794 29.038 58.4794 35.038 84.4794 30.538C162.479 -24.4621 244.479 12.5378 281.479 27.038L294.979 29.0378L295.479 36.0378V39.0378C296.978 44.0378 298.313 48.5378 296.979 50.5378C299.479 51.5378 301.979 54.7045 301.979 56.5378L299.979 66.5378C300.431 77.3858 298.023 77.61 288.692 77.9225C287.701 77.9557 285.632 77.9898 284.479 78.0378V79.5378L259.479 79.9689M21.9794 81.5381V84.5381H39.9778L39.4794 80.0381M21.9794 81.5381V80.0381H39.4794M39.4794 80.0381C36.4794 38.5381 89.9794 41.5381 86.4794 80.5381V83.0378H212.979C206.979 39.5378 261.479 39.5378 259.479 79.9689M258.978 79.9689H259.479" stroke="black"/>
</svg>
