<svg width="304" height="95" viewBox="0 0 304 95" fill="none" xmlns="http://www.w3.org/2000/svg">
<circle cx="63.0835" cy="73.8914" r="20.5" fill="#EDADBF" stroke="black"/>
<circle cx="236.083" cy="73.8914" r="20.5" fill="#EDADBF" stroke="black"/>
<path d="M133.082 12.3912L131.582 8.89121C171.582 0.891325 193.082 1.39136 232.082 12.8913L228.582 17.3913C208.582 9.39127 190.582 8.39127 174.582 7.89133C172.082 7.39133 168.082 7.3913 165.582 7.89121C155.582 7.89133 143.582 9.39134 133.082 12.3912Z" fill="#E0426F" stroke="black" stroke-width="0.5"/>
<path d="M131.582 8.8914L131.082 7.3914C167.082 -3.60864 199.582 0.391232 235.082 9.3914L232.082 12.8914C192.082 0.391357 166.082 1.89136 131.582 8.8914Z" fill="#E0426F" stroke="black" stroke-width="0.5"/>
<path d="M131.582 8.89122C183.082 -2.6088 211.582 7.39124 232.082 12.8912" stroke="black" stroke-width="0.5"/>
<path d="M171.083 29.8914L174.583 7.89136C208.083 8.89136 219.583 14.3914 224.083 15.8914L226.566 27.8914C199.576 27.892 182.081 29.3915 171.083 29.8914Z" fill="#E0426F"/>
<path d="M227.083 30.3914L224.083 15.8914C219.583 14.3914 208.083 8.89136 174.583 7.89136L171.083 29.8914C182.083 29.3914 199.583 27.8914 226.583 27.8914" stroke="black" stroke-width="0.5"/>
<path d="M165.583 7.89136C132.583 8.89136 112.583 17.8914 93.5835 35.3914L96.0835 33.3914L160.083 30.3914L165.583 7.89136Z" fill="#E0426F" stroke="black" stroke-width="0.5"/>
<path d="M240.082 22.3914C236.415 19.7247 230.582 17.3914 224.082 15.8914L226.582 27.8914H233.082C236.082 26.3914 239.082 24.1601 240.082 22.3914Z" fill="#E0426F" stroke="black" stroke-width="0.5"/>
<path d="M97.0835 78.3914H164.083L198.583 76.8914H213.083L213.583 82.3914H199.583H98.5835H87.0835V78.3914H97.0835Z" fill="#E0426F"/>
<path d="M97.0835 78.3914H164.083L198.583 76.8914M97.0835 78.3914C97.0835 79.8914 97.5835 80.8914 98.5835 82.3914M97.0835 78.3914H87.0835V82.3914H98.5835M198.583 76.8914L199.583 82.3914M198.583 76.8914H213.083L213.583 82.3914H199.583M199.583 82.3914H98.5835" stroke="black" stroke-width="0.5"/>
<path d="M97.0826 78.3914C92.5835 73.8914 89.5835 51.8914 93.5826 35.3914L165.583 31.3914C161.583 36.3914 160.583 70.3914 164.083 78.3914H97.0826Z" fill="#E0426F" stroke="black" stroke-width="0.5"/>
<path d="M229.083 30.3914L165.583 31.3914C161.583 36.3914 160.583 70.3914 164.083 78.3914L198.583 76.8914C203.083 75.3914 209.583 69.8914 229.083 30.3914Z" fill="#E0426F" stroke="black" stroke-width="0.5"/>
<path d="M171.083 29.8914C166.583 30.3914 163.083 30.3914 160.083 30.3914L165.583 7.89143C168.583 7.39136 171.583 7.39136 174.583 7.89143L171.083 29.8914Z" fill="#E0426F" stroke="black" stroke-width="0.5"/>
<path d="M99.5835 31.8914C104.083 37.3914 111.083 33.8914 115.083 32.3914C116.083 16.8913 103.083 24.8912 99.5835 31.8914Z" fill="#E0426F" stroke="black" stroke-width="0.5"/>
<path d="M235.082 9.39136L232.082 12.8914C249.082 18.3914 259.582 21.3914 272.082 27.8914H273.582L281.582 26.3914C266.582 19.8914 259.082 17.3914 235.082 9.39136Z" fill="#EFC7D3" stroke="black" stroke-width="0.5"/>
<path d="M272.082 27.8914C261.582 22.3914 242.582 15.8914 232.082 12.8914L230.082 15.3914L245.082 22.8914C243.582 25.3914 239.582 27.3914 233.582 30.0914C245.582 29.3914 262.582 28.3914 272.082 27.8914Z" fill="#EFC7D3" stroke="black" stroke-width="0.5"/>
<path d="M277.583 34.1914L283.582 31.8914L273.083 27.8914L229.083 30.3914C221.583 45.3914 206.583 75.8914 198.583 76.8914H213.083C211.583 65.8914 221.083 42.3914 246.083 51.3914C256.583 45.8914 266.583 40.3914 277.583 34.1914Z" fill="#EFC7D3" stroke="black" stroke-width="0.5"/>
<path d="M278.582 33.8914C266.582 40.3914 256.582 45.8914 246.082 51.3914C250.582 54.3914 261.082 60.3914 260.082 79.3914L285.082 78.8914V77.3914C293.582 76.3914 302.082 79.8914 300.582 65.8914L302.582 55.8914C302.582 54.3914 300.082 50.3914 297.582 49.8914C299.082 47.3914 296.082 38.3914 296.082 38.3914V36.8914L292.082 33.8914L287.082 32.3914L283.582 31.8914L278.582 33.8914Z" fill="#EFC7D3" stroke="black" stroke-width="0.5"/>
<path d="M281.582 26.3914L273.082 27.8914L283.582 31.8914C293.082 32.8914 292.081 34.3914 296.076 36.8115L295.582 28.3914L281.582 26.3914Z" fill="#EFC7D3"/>
<path d="M296.082 36.8914L296.076 36.8115M296.076 36.8115L295.582 28.3914L281.582 26.3914L273.082 27.8914L283.582 31.8914C293.082 32.8914 292.081 34.3914 296.076 36.8115Z" stroke="black" stroke-width="0.5"/>
<path d="M294.583 36.3916C294.083 33.8914 283.083 33.6914 277.583 34.1914" stroke="black" stroke-width="0.5"/>
<path d="M300.583 66.3914L261.083 68.3914C260.583 63.3914 258.417 59.2247 256.583 57.3914L302.583 54.8914M301.083 52.3914C290.083 50.8914 279.083 46.0914 267.083 40.0914M229.083 30.3914L273.083 27.8914L281.583 26.3914" stroke="black" stroke-width="0.5"/>
<path d="M291.083 40.3914C291.083 38.3914 290.083 34.3914 286.583 32.3914C288.804 32.3914 292.181 33.4317 294.692 35.8013C295.156 37.3313 294.083 40.8914 291.042 42.3914C291.028 41.8011 291.083 41.1156 291.083 40.3914Z" fill="#EFC7D3"/>
<path d="M273.083 42.8914C280.079 43.2411 286.096 43.3462 291.477 43.8914M298.083 44.8914C295.981 44.4407 293.787 44.1255 291.477 43.8914M296.083 37.3914C295.666 36.8062 295.196 36.277 294.692 35.8013M291.477 43.8914C291.15 43.5466 291.056 43.0235 291.042 42.3914M291.042 42.3914C291.028 41.8011 291.083 41.1156 291.083 40.3914C291.083 38.3914 290.083 34.3914 286.583 32.3914C288.804 32.3914 292.181 33.4317 294.692 35.8013M291.042 42.3914C294.083 40.8914 295.156 37.3313 294.692 35.8013" stroke="black" stroke-width="0.5"/>
<path d="M291.083 40.3914C286.583 40.3914 284.583 36.3914 283.583 33.8914" stroke="black" stroke-width="0.5"/>
<path d="M133.082 12.4913C119.582 16.4913 107.582 22.3914 93.582 35.3914C100.582 23.3914 116.082 13.8914 131.582 8.89136L133.082 12.4913Z" fill="#EFC7D3" stroke="black" stroke-width="0.5"/>
<path d="M131.582 8.89136C111.582 14.5654 93.582 31.8914 85.582 29.8914C98.582 20.3914 114.582 11.8914 131.082 7.39136L131.582 8.89136Z" fill="#EFC7D3" stroke="black" stroke-width="0.5"/>
<path d="M10.5827 47.8912H4.5827C2.08203 51.8912 2.08203 61.8912 2.5827 65.3912C1.08203 66.3912 1.08263 70.8912 2.0827 72.3912L6.0827 72.8912V74.3912L2.0827 76.3912V78.3912C6.0827 79.3912 14.5827 81.3912 22.5827 80.8912V79.3912H40.0827C39.416 70.8912 41.0827 60.3912 50.0827 53.3912C47.5827 49.3912 40.5827 44.8912 37.5827 44.3912C27.5827 43.3912 12.5827 45.8912 10.5827 47.8912Z" fill="#EFC7D3" stroke="black" stroke-width="0.5"/>
<path d="M93.5835 35.3914C75.7502 36.2247 44.0835 41.0914 33.5835 44.0914L37.5835 44.3914C42.5835 45.8914 48.0835 50.2247 50.0835 53.3914C63.0825 43.8914 88.5825 50.8914 87.0825 78.3914H97.0825C90.0825 67.3914 91.0825 45.3914 93.5835 35.3914Z" fill="#EFC7D3" stroke="black" stroke-width="0.5"/>
<path d="M10.582 47.8914H4.58203C37.0822 28.3913 59.0823 34.3914 85.082 29.8914L94.0823 35.3914C77.0823 36.3914 48.082 39.8914 34.082 44.0914C26.082 43.8913 12.082 45.8914 10.582 47.8914Z" fill="#EFC7D3" stroke="black" stroke-width="0.5"/>
<path d="M37.5835 44.3914C30.0835 43.3914 13.0835 45.3914 10.5835 47.8914C9.78349 50.2914 12.9168 53.2247 14.5835 54.3914C24.0835 55.8914 37.5835 49.8914 37.5835 44.3914Z" fill="#EFC7D3" stroke="black" stroke-width="0.5"/>
<path d="M4.58273 47.8914C11.5827 48.8914 5.58273 59.3914 2.58273 64.3914C2.08266 57.3914 2.58252 51.8914 4.58273 47.8914Z" fill="#EFC7D3" stroke="black" stroke-width="0.5"/>
<path d="M22.582 83.8914V79.3914H40.082L40.582 83.8914H22.582Z" fill="#EFC7D3" stroke="black" stroke-width="0.5"/>
<path d="M3.08398 65.3911C4.58398 67.8911 6.58398 71.0578 6.08398 72.8911M22.584 79.3911C12.084 79.8911 7.58398 75.8911 8.58398 72.3911C9.08398 71.8911 10.584 70.3911 11.584 70.3911" stroke="black" stroke-width="0.5"/>
<path d="M32.584 74.3912C30.084 70.3912 24.584 65.3913 21.584 63.8913C19.8339 63.3913 17.2088 63.5163 14.4588 63.8913C12.8338 65.2246 11.584 68.3912 12.084 71.3912C12.084 72.5579 13.3914 74.8912 16.084 74.8912C20.584 74.8912 27.584 75.3912 32.584 74.3912Z" fill="#EFC7D3"/>
<path d="M6.58398 65.3913C8.83393 64.8913 11.7088 64.2663 14.4588 63.8913M14.4588 63.8913C17.2088 63.5163 19.8339 63.3913 21.584 63.8913C24.584 65.3913 30.084 70.3912 32.584 74.3912C27.584 75.3912 20.584 74.8912 16.084 74.8912C13.3914 74.8912 12.084 72.5579 12.084 71.3912C11.584 68.3912 12.8338 65.2246 14.4588 63.8913Z" stroke="black" stroke-width="0.5"/>
<path d="M12.084 70.8913C20.084 69.3914 23.584 72.0198 26.584 73.5198M13.584 73.8914L31.084 73.3914" stroke="black" stroke-width="0.5"/>
<path d="M22.582 82.3911H32.082C34.082 82.3911 35.582 80.3911 35.082 79.3911M38.582 79.3911V83.8911" stroke="black" stroke-width="0.5"/>
<path d="M22.5834 80.8916C18.0834 80.8916 13.5834 81.3916 2.08344 78.3916V76.3916L6.08344 74.3916V72.8916L2.08344 72.3916C1.58252 70.8914 0.582715 67.8914 2.58271 65.3914C2.08295 57.3914 2.58295 50.8914 4.58344 47.8911C37.0834 28.3915 59.0834 34.3915 85.0834 29.8915C163.083 -25.1086 245.083 11.8913 282.083 26.3915L295.583 28.3914L296.083 35.3914V38.3914C297.582 43.3914 298.917 47.8914 297.583 49.8914C300.083 50.8914 302.583 54.058 302.583 55.8914L300.583 65.8914C301.035 76.7393 298.627 76.9635 289.296 77.276C288.305 77.3092 286.236 77.3434 285.083 77.3914V78.8914L260.083 79.3224M22.5834 80.8916V83.8916H40.5818L40.0835 79.3916M22.5834 80.8916V79.3916H40.0835M40.0835 79.3916C37.0835 37.8916 90.5834 40.8916 87.0834 79.8916V82.3914H213.583C207.583 38.8914 262.083 38.8914 260.083 79.3224M259.582 79.3224H260.083" stroke="black"/>
</svg>
