<svg width="303" height="95" viewBox="0 0 303 95" fill="none" xmlns="http://www.w3.org/2000/svg">
<circle cx="62.667" cy="73.8762" r="20.5" stroke="black"/>
<circle cx="235.667" cy="73.8762" r="20.5" stroke="black"/>
<path d="M132.665 12.3761L131.165 8.87608C171.165 0.876188 192.665 1.37622 231.665 12.8762L228.165 17.3762C208.165 9.37613 190.165 8.37613 174.165 7.8762C171.665 7.3762 167.665 7.37616 165.165 7.87608C155.165 7.8762 143.165 9.3762 132.665 12.3761Z" fill="#E56E90" stroke="black" stroke-width="0.5"/>
<path d="M131.165 8.87627L130.665 7.37626C166.665 -3.62378 199.165 0.376095 234.665 9.37627L231.665 12.8763C191.665 0.376221 165.665 1.87622 131.165 8.87627Z" fill="#E56E90" stroke="black" stroke-width="0.5"/>
<path d="M131.165 8.87609C182.665 -2.62394 211.165 7.3761 231.665 12.8761" stroke="black" stroke-width="0.5"/>
<path d="M170.667 29.8762L174.167 7.87622C207.667 8.87622 219.167 14.3762 223.667 15.8762L226.15 27.8762C199.16 27.8769 181.665 29.3763 170.667 29.8762Z" fill="#E56E90"/>
<path d="M226.667 30.3762L223.667 15.8762C219.167 14.3762 207.667 8.87622 174.167 7.87622L170.667 29.8762C181.667 29.3762 199.167 27.8762 226.167 27.8762" stroke="black" stroke-width="0.5"/>
<path d="M165.167 7.87622C132.167 8.87622 112.167 17.8762 93.167 35.3762L95.667 33.3762L159.667 30.3762L165.167 7.87622Z" fill="#E56E90" stroke="black" stroke-width="0.5"/>
<path d="M239.665 22.3762C235.998 19.7096 230.165 17.3762 223.665 15.8762L226.165 27.8762H232.665C235.665 26.3762 238.665 24.145 239.665 22.3762Z" fill="#E56E90" stroke="black" stroke-width="0.5"/>
<path d="M96.667 78.3762H163.667L198.167 76.8762H212.667L213.167 82.3762H199.167H98.167H86.667V78.3762H96.667Z" fill="#E56E90"/>
<path d="M96.667 78.3762H163.667L198.167 76.8762M96.667 78.3762C96.667 79.8762 97.167 80.8762 98.167 82.3762M96.667 78.3762H86.667V82.3762H98.167M198.167 76.8762L199.167 82.3762M198.167 76.8762H212.667L213.167 82.3762H199.167M199.167 82.3762H98.167" stroke="black" stroke-width="0.5"/>
<path d="M96.6661 78.3762C92.167 73.8762 89.167 51.8762 93.1661 35.3762L165.167 31.3762C161.167 36.3762 160.167 70.3762 163.667 78.3762H96.6661Z" fill="#E56E90" stroke="black" stroke-width="0.5"/>
<path d="M228.667 30.3762L165.167 31.3762C161.167 36.3762 160.167 70.3762 163.667 78.3762L198.167 76.8762C202.667 75.3762 209.167 69.8762 228.667 30.3762Z" fill="#E56E90" stroke="black" stroke-width="0.5"/>
<path d="M170.667 29.8763C166.167 30.3763 162.667 30.3763 159.667 30.3763L165.167 7.87629C168.167 7.37622 171.167 7.37622 174.167 7.87629L170.667 29.8763Z" fill="#E56E90" stroke="black" stroke-width="0.5"/>
<path d="M99.167 31.8762C103.667 37.3762 110.667 33.8762 114.667 32.3762C115.667 16.8761 102.667 24.8761 99.167 31.8762Z" fill="#E56E90" stroke="black" stroke-width="0.5"/>
<path d="M234.665 9.37622L231.665 12.8762C248.665 18.3762 259.165 21.3762 271.665 27.8762H273.165L281.165 26.3762C266.165 19.8762 258.665 17.3762 234.665 9.37622Z" fill="#E56E90" stroke="black" stroke-width="0.5"/>
<path d="M271.665 27.8762C261.165 22.3762 242.165 15.8762 231.665 12.8762L229.665 15.3762L244.665 22.8762C243.165 25.3762 239.165 27.3762 233.165 30.0762C245.165 29.3762 262.165 28.3762 271.665 27.8762Z" fill="#E56E90" stroke="black" stroke-width="0.5"/>
<path d="M277.167 34.1762L283.165 31.8762L272.666 27.8762L228.666 30.3762C221.166 45.3762 206.166 75.8762 198.166 76.8762H212.666C211.166 65.8762 220.666 42.3762 245.667 51.3762C256.167 45.8762 266.167 40.3762 277.167 34.1762Z" fill="#E56E90" stroke="black" stroke-width="0.5"/>
<path d="M278.165 33.8762C266.165 40.3762 256.165 45.8762 245.665 51.3762C250.165 54.3762 260.665 60.3762 259.665 79.3762L284.665 78.8762V77.3762C293.165 76.3762 301.665 79.8762 300.165 65.8762L302.165 55.8762C302.165 54.3762 299.665 50.3762 297.165 49.8762C298.665 47.3762 295.665 38.3762 295.665 38.3762V36.8762L291.665 33.8762L286.665 32.3762L283.165 31.8762L278.165 33.8762Z" fill="#E56E90" stroke="black" stroke-width="0.5"/>
<path d="M281.165 26.3762L272.665 27.8762L283.165 31.8762C292.665 32.8762 291.664 34.3762 295.659 36.7964L295.165 28.3762L281.165 26.3762Z" fill="#E56E90"/>
<path d="M295.665 36.8762L295.659 36.7964M295.659 36.7964L295.165 28.3762L281.165 26.3762L272.665 27.8762L283.165 31.8762C292.665 32.8762 291.664 34.3762 295.659 36.7964Z" stroke="black" stroke-width="0.5"/>
<path d="M294.167 36.3764C293.667 33.8763 282.667 33.6762 277.167 34.1762" stroke="black" stroke-width="0.5"/>
<path d="M300.167 66.3762L260.667 68.3762C260.167 63.3762 258 59.2096 256.167 57.3762L302.167 54.8762M300.667 52.3762C289.667 50.8762 278.667 46.0762 266.667 40.0762M228.667 30.3762L272.667 27.8762L281.167 26.3762" stroke="black" stroke-width="0.5"/>
<path d="M290.667 40.3762C290.667 38.3762 289.667 34.3762 286.167 32.3762C288.388 32.3762 291.765 33.4166 294.276 35.7862C294.74 37.3162 293.667 40.8762 290.625 42.3762C290.612 41.7859 290.667 41.1005 290.667 40.3762Z" fill="#E56E90"/>
<path d="M272.667 42.8762C279.663 43.226 285.68 43.3311 291.06 43.8762M297.667 44.8762C295.564 44.4256 293.371 44.1103 291.06 43.8762M295.667 37.3762C295.249 36.7911 294.78 36.2619 294.276 35.7862M291.06 43.8762C290.734 43.5315 290.64 43.0084 290.625 42.3762M290.625 42.3762C290.612 41.7859 290.667 41.1005 290.667 40.3762C290.667 38.3762 289.667 34.3762 286.167 32.3762C288.388 32.3762 291.765 33.4166 294.276 35.7862M290.625 42.3762C293.667 40.8762 294.74 37.3162 294.276 35.7862" stroke="black" stroke-width="0.5"/>
<path d="M290.667 40.3762C286.167 40.3762 284.167 36.3762 283.167 33.8762" stroke="black" stroke-width="0.5"/>
<path d="M132.665 12.4762C119.165 16.4762 107.165 22.3762 93.165 35.3762C100.165 23.3762 115.665 13.8762 131.165 8.87622L132.665 12.4762Z" fill="#EFC7D3" stroke="black" stroke-width="0.5"/>
<path d="M131.165 8.87622C111.165 14.5503 93.165 31.8762 85.165 29.8762C98.165 20.3762 114.165 11.8762 130.665 7.37622L131.165 8.87622Z" fill="#EFC7D3" stroke="black" stroke-width="0.5"/>
<path d="M10.1657 47.8761H4.16571C1.66504 51.8761 1.66504 61.8761 2.16571 65.3761C0.665039 66.3761 0.665637 70.8761 1.66571 72.3761L5.66571 72.8761V74.3761L1.66571 76.3761V78.3761C5.66571 79.3761 14.1657 81.3761 22.1657 80.8761V79.3761H39.6657C38.999 70.8761 40.6657 60.3761 49.6657 53.3761C47.1657 49.3761 40.1657 44.8761 37.1657 44.3761C27.1657 43.3761 12.1657 45.8761 10.1657 47.8761Z" fill="#EFC7D3" stroke="black" stroke-width="0.5"/>
<path d="M93.167 35.3762C75.3337 36.2096 43.667 41.0762 33.167 44.0762L37.167 44.3762C42.167 45.8762 47.667 50.2096 49.667 53.3762C62.666 43.8762 88.166 50.8762 86.666 78.3762H96.666C89.666 67.3762 90.666 45.3762 93.167 35.3762Z" fill="#EFC7D3" stroke="black" stroke-width="0.5"/>
<path d="M10.165 47.8763H4.16504C36.6652 28.3762 58.6653 34.3762 84.665 29.8762L93.6653 35.3762C76.6653 36.3762 47.665 39.8762 33.665 44.0762C25.665 43.8762 11.665 45.8762 10.165 47.8763Z" fill="#EFC7D3" stroke="black" stroke-width="0.5"/>
<path d="M37.1665 44.3763C29.6665 43.3762 12.6665 45.3762 10.1665 47.8763C9.36649 50.2762 12.4998 53.2096 14.1665 54.3762C23.6665 55.8762 37.1665 49.8762 37.1665 44.3763Z" fill="#EFC7D3" stroke="black" stroke-width="0.5"/>
<path d="M4.16573 47.8762C11.1657 48.8762 5.16573 59.3762 2.16573 64.3762C1.66566 57.3762 2.16553 51.8762 4.16573 47.8762Z" fill="#EFC7D3" stroke="black" stroke-width="0.5"/>
<path d="M22.165 83.8762V79.3762H39.665L40.165 83.8762H22.165Z" fill="#EFC7D3" stroke="black" stroke-width="0.5"/>
<path d="M2.66699 65.376C4.16699 67.876 6.16699 71.0426 5.66699 72.876M22.167 79.376C11.667 79.876 7.16699 75.876 8.16699 72.376C8.66699 71.876 10.167 70.376 11.167 70.376" stroke="black" stroke-width="0.5"/>
<path d="M32.167 74.3761C29.667 70.3761 24.167 65.3762 21.167 63.8762C19.4169 63.3762 16.7919 63.5012 14.0418 63.8762C12.4169 65.2095 11.167 68.3761 11.667 71.3761C11.667 72.5428 12.9744 74.8761 15.667 74.8761C20.167 74.8761 27.167 75.3761 32.167 74.3761Z" fill="#EFC7D3"/>
<path d="M6.16699 65.3762C8.41693 64.8762 11.2918 64.2512 14.0418 63.8762M14.0418 63.8762C16.7919 63.5012 19.4169 63.3762 21.167 63.8762C24.167 65.3762 29.667 70.3761 32.167 74.3761C27.167 75.3761 20.167 74.8761 15.667 74.8761C12.9744 74.8761 11.667 72.5428 11.667 71.3761C11.167 68.3761 12.4168 65.2095 14.0418 63.8762Z" stroke="black" stroke-width="0.5"/>
<path d="M11.667 70.8762C19.667 69.3762 23.167 72.0047 26.167 73.5047M13.167 73.8762L30.667 73.3762" stroke="black" stroke-width="0.5"/>
<path d="M22.165 82.376H31.665C33.665 82.376 35.165 80.376 34.665 79.376M38.165 79.376V83.876" stroke="black" stroke-width="0.5"/>
<path d="M22.1669 80.8765C17.6669 80.8765 13.1669 81.3765 1.66694 78.3765V76.3765L5.66694 74.3765V72.8765L1.66694 72.3765C1.16602 70.8762 0.166211 67.8762 2.16621 65.3762C1.66645 57.3762 2.16645 50.8762 4.16694 47.876C36.6669 28.3764 58.6669 34.3764 84.6669 29.8764C162.667 -25.1237 244.667 11.8762 281.667 26.3764L295.167 28.3762L295.667 35.3762V38.3762C297.165 43.3762 298.5 47.8762 297.167 49.8762C299.667 50.8762 302.167 54.0429 302.167 55.8762L300.167 65.8762C300.619 76.7241 298.211 76.9484 288.879 77.2609C287.888 77.294 285.819 77.3282 284.667 77.3762V78.8762L259.667 79.3073M22.1669 80.8765V83.8765H40.1653L39.6669 79.3765M22.1669 80.8765V79.3765H39.6669M39.6669 79.3765C36.6669 37.8765 90.1669 40.8765 86.6669 79.8765V82.3762H213.167C207.167 38.8762 261.667 38.8762 259.667 79.3073M259.165 79.3073H259.667" stroke="black"/>
</svg>
