<svg width="303" height="96" viewBox="0 0 303 96" fill="none" xmlns="http://www.w3.org/2000/svg">
<circle cx="62.4473" cy="74.1995" r="20.5" fill="#E0426F" stroke="black"/>
<circle cx="235.447" cy="74.1995" r="20.5" fill="#E0426F" stroke="black"/>
<path d="M132.445 12.6993L130.945 9.19932C170.945 1.19943 192.445 1.69946 231.445 13.1994L227.945 17.6994C207.945 9.69937 189.945 8.69937 173.945 8.19944C171.445 7.69944 167.445 7.6994 164.945 8.19932C154.945 8.19944 142.945 9.69944 132.445 12.6993Z" fill="#EDADBF" stroke="black" stroke-width="0.5"/>
<path d="M130.945 9.19951L130.445 7.69951C166.445 -3.30054 198.945 0.699337 234.445 9.69951L231.445 13.1995C191.445 0.699463 165.445 2.19946 130.945 9.19951Z" fill="#EDADBF" stroke="black" stroke-width="0.5"/>
<path d="M130.945 9.19933C182.445 -2.3007 210.945 7.69934 231.445 13.1993" stroke="black" stroke-width="0.5"/>
<path d="M170.447 30.1995L173.947 8.19946C207.447 9.19946 218.947 14.6995 223.447 16.1995L225.93 28.1995C198.94 28.2001 181.445 29.6996 170.447 30.1995Z" fill="#EDADBF"/>
<path d="M226.447 30.6995L223.447 16.1995C218.947 14.6995 207.447 9.19946 173.947 8.19946L170.447 30.1995C181.447 29.6995 198.947 28.1995 225.947 28.1995" stroke="black" stroke-width="0.5"/>
<path d="M164.947 8.19946C131.947 9.19946 111.947 18.1995 92.9473 35.6995L95.4473 33.6995L159.447 30.6995L164.947 8.19946Z" fill="#EDADBF" stroke="black" stroke-width="0.5"/>
<path d="M239.445 22.6995C235.779 20.0328 229.945 17.6995 223.445 16.1995L225.945 28.1995H232.445C235.445 26.6995 238.445 24.4682 239.445 22.6995Z" fill="#EDADBF" stroke="black" stroke-width="0.5"/>
<path d="M96.4473 78.6995H163.447L197.947 77.1995H212.447L212.947 82.6995H198.947H97.9473H86.4473V78.6995H96.4473Z" fill="#EDADBF"/>
<path d="M96.4473 78.6995H163.447L197.947 77.1995M96.4473 78.6995C96.4473 80.1995 96.9473 81.1995 97.9473 82.6995M96.4473 78.6995H86.4473V82.6995H97.9473M197.947 77.1995L198.947 82.6995M197.947 77.1995H212.447L212.947 82.6995H198.947M198.947 82.6995H97.9473" stroke="black" stroke-width="0.5"/>
<path d="M96.4464 78.6995C91.9473 74.1995 88.9473 52.1995 92.9464 35.6995L164.947 31.6995C160.947 36.6995 159.947 70.6995 163.447 78.6995H96.4464Z" fill="#EDADBF" stroke="black" stroke-width="0.5"/>
<path d="M228.447 30.6995L164.947 31.6995C160.947 36.6995 159.948 70.6995 163.447 78.6995L197.947 77.1995C202.447 75.6995 208.947 70.1995 228.447 30.6995Z" fill="#EDADBF" stroke="black" stroke-width="0.5"/>
<path d="M170.447 30.1995C165.947 30.6995 162.447 30.6995 159.447 30.6995L164.947 8.19954C167.947 7.69946 170.947 7.69946 173.947 8.19954L170.447 30.1995Z" fill="#EDADBF" stroke="black" stroke-width="0.5"/>
<path d="M98.9473 32.1995C103.447 37.6995 110.447 34.1995 114.447 32.6995C115.447 17.1994 102.447 25.1993 98.9473 32.1995Z" fill="#EDADBF" stroke="black" stroke-width="0.5"/>
<path d="M234.445 9.69946L231.445 13.1995C248.445 18.6995 258.945 21.6995 271.445 28.1995H272.945L280.945 26.6995C265.945 20.1995 258.445 17.6995 234.445 9.69946Z" fill="#E0426F" stroke="black" stroke-width="0.5"/>
<path d="M271.445 28.1995C260.945 22.6995 241.945 16.1995 231.445 13.1995L229.445 15.6995L244.445 23.1995C242.945 25.6995 238.945 27.6995 232.945 30.3995C244.945 29.6995 261.945 28.6995 271.445 28.1995Z" fill="#E0426F" stroke="black" stroke-width="0.5"/>
<path d="M276.947 34.4995L282.946 32.1995L272.446 28.1995L228.446 30.6995C220.946 45.6995 205.946 76.1995 197.946 77.1995H212.446C210.946 66.1995 220.446 42.6995 245.447 51.6995C255.947 46.1995 265.947 40.6995 276.947 34.4995Z" fill="#E0426F" stroke="black" stroke-width="0.5"/>
<path d="M277.945 34.1995C265.945 40.6995 255.945 46.1995 245.445 51.6995C249.945 54.6995 260.445 60.6995 259.445 79.6995L284.445 79.1995V77.6995C292.945 76.6995 301.445 80.1995 299.945 66.1995L301.945 56.1995C301.945 54.6995 299.445 50.6995 296.945 50.1995C298.445 47.6995 295.445 38.6995 295.445 38.6995V37.1995L291.445 34.1995L286.445 32.6995L282.945 32.1995L277.945 34.1995Z" fill="#E0426F" stroke="black" stroke-width="0.5"/>
<path d="M280.945 26.6995L272.445 28.1995L282.945 32.1995C292.445 33.1995 291.444 34.6995 295.439 37.1196L294.945 28.6995L280.945 26.6995Z" fill="#E0426F"/>
<path d="M295.445 37.1995L295.439 37.1196M295.439 37.1196L294.945 28.6995L280.945 26.6995L272.445 28.1995L282.945 32.1995C292.445 33.1995 291.444 34.6995 295.439 37.1196Z" stroke="black" stroke-width="0.5"/>
<path d="M293.947 36.6997C293.447 34.1996 282.447 33.9995 276.947 34.4995" stroke="black" stroke-width="0.5"/>
<path d="M299.947 66.6995L260.447 68.6995C259.947 63.6995 257.781 59.5328 255.947 57.6995L301.947 55.1995M300.447 52.6995C289.447 51.1995 278.447 46.3995 266.447 40.3995M228.447 30.6995L272.447 28.1995L280.947 26.6995" stroke="black" stroke-width="0.5"/>
<path d="M290.447 40.6995C290.447 38.6995 289.447 34.6995 285.947 32.6995C288.168 32.6995 291.545 33.7399 294.056 36.1094C294.52 37.6395 293.447 41.1995 290.405 42.6995C290.392 42.1092 290.447 41.4238 290.447 40.6995Z" fill="#E0426F"/>
<path d="M272.447 43.1995C279.443 43.5492 285.46 43.6543 290.84 44.1995M297.447 45.1995C295.344 44.7488 293.151 44.4336 290.84 44.1995M295.447 37.6995C295.029 37.1143 294.56 36.5851 294.056 36.1094M290.84 44.1995C290.514 43.8547 290.42 43.3317 290.405 42.6995M290.405 42.6995C290.392 42.1092 290.447 41.4238 290.447 40.6995C290.447 38.6995 289.447 34.6995 285.947 32.6995C288.168 32.6995 291.545 33.7399 294.056 36.1094M290.405 42.6995C293.447 41.1995 294.52 37.6395 294.056 36.1094" stroke="black" stroke-width="0.5"/>
<path d="M290.447 40.6995C285.947 40.6995 283.947 36.6995 282.947 34.1995" stroke="black" stroke-width="0.5"/>
<path d="M132.445 12.7994C118.945 16.7994 106.945 22.6995 92.9453 35.6995C99.9453 23.6995 115.445 14.1995 130.945 9.19946L132.445 12.7994Z" fill="#EDADBF" stroke="black" stroke-width="0.5"/>
<path d="M130.945 9.19946C110.945 14.8735 92.9453 32.1995 84.9453 30.1995C97.9453 20.6995 113.945 12.1995 130.445 7.69946L130.945 9.19946Z" fill="#EDADBF" stroke="black" stroke-width="0.5"/>
<path d="M9.94598 48.1993H3.94598C1.44531 52.1993 1.44531 62.1993 1.94598 65.6993C0.445312 66.6993 0.44591 71.1993 1.44598 72.6993L5.44598 73.1993V74.6993L1.44598 76.6993V78.6993C5.44598 79.6993 13.946 81.6993 21.946 81.1993V79.6993H39.446C38.7793 71.1993 40.446 60.6993 49.446 53.6993C46.946 49.6993 39.946 45.1993 36.946 44.6993C26.946 43.6993 11.946 46.1993 9.94598 48.1993Z" fill="#EDADBF" stroke="black" stroke-width="0.5"/>
<path d="M92.9473 35.6995C75.1139 36.5328 43.4473 41.3995 32.9473 44.3995L36.9473 44.6995C41.9473 46.1995 47.4473 50.5328 49.4473 53.6995C62.4463 44.1995 87.9463 51.1995 86.4463 78.6995H96.4463C89.4463 67.6995 90.4463 45.6995 92.9473 35.6995Z" fill="#EDADBF" stroke="black" stroke-width="0.5"/>
<path d="M9.94531 48.1995H3.94531C36.4455 28.6994 58.4456 34.6995 84.4453 30.1995L93.4456 35.6995C76.4456 36.6995 47.4453 40.1995 33.4453 44.3995C25.4453 44.1995 11.4453 46.1995 9.94531 48.1995Z" fill="#EDADBF" stroke="black" stroke-width="0.5"/>
<path d="M36.9468 44.6995C29.4468 43.6995 12.4468 45.6995 9.94677 48.1995C9.14677 50.5995 12.2801 53.5328 13.9468 54.6995C23.4468 56.1995 36.9468 50.1995 36.9468 44.6995Z" fill="#EDADBF" stroke="black" stroke-width="0.5"/>
<path d="M3.94601 48.1995C10.946 49.1995 4.94601 59.6995 1.94601 64.6995C1.44594 57.6995 1.9458 52.1995 3.94601 48.1995Z" fill="#EDADBF" stroke="black" stroke-width="0.5"/>
<path d="M21.9453 84.1995V79.6995H39.4453L39.9453 84.1995H21.9453Z" fill="#EDADBF" stroke="black" stroke-width="0.5"/>
<path d="M2.44727 65.6992C3.94727 68.1992 5.94727 71.3659 5.44727 73.1992M21.9473 79.6992C11.4473 80.1992 6.94727 76.1992 7.94727 72.6992C8.44727 72.1992 9.94727 70.6992 10.9473 70.6992" stroke="black" stroke-width="0.5"/>
<path d="M31.9473 74.6993C29.4473 70.6993 23.9473 65.6994 20.9473 64.1994C19.1972 63.6994 16.5721 63.8244 13.8221 64.1994C12.1971 65.5327 10.9473 68.6993 11.4473 71.6993C11.4473 72.866 12.7547 75.1993 15.4473 75.1993C19.9473 75.1993 26.9473 75.6993 31.9473 74.6993Z" fill="#EDADBF"/>
<path d="M5.94727 65.6994C8.19721 65.1994 11.0721 64.5744 13.8221 64.1994M13.8221 64.1994C16.5721 63.8244 19.1972 63.6994 20.9473 64.1994C23.9473 65.6994 29.4473 70.6993 31.9473 74.6993C26.9473 75.6993 19.9473 75.1993 15.4473 75.1993C12.7547 75.1993 11.4473 72.866 11.4473 71.6993C10.9473 68.6993 12.1971 65.5327 13.8221 64.1994Z" stroke="black" stroke-width="0.5"/>
<path d="M11.4473 71.1994C19.4473 69.6995 22.9473 72.3279 25.9473 73.8279M12.9473 74.1995L30.4473 73.6995" stroke="black" stroke-width="0.5"/>
<path d="M21.9453 82.6992H31.4453C33.4453 82.6992 34.9453 80.6992 34.4453 79.6992M37.9453 79.6992V84.1992" stroke="black" stroke-width="0.5"/>
<path d="M21.9472 81.1997C17.4472 81.1997 12.9472 81.6997 1.44721 78.6997V76.6997L5.44721 74.6997V73.1997L1.44721 72.6997C0.946289 71.1995 -0.0535151 68.1995 1.94648 65.6995C1.44672 57.6995 1.94672 51.1995 3.94721 48.1992C36.4472 28.6996 58.4472 34.6997 84.4472 30.1997C162.447 -24.8005 244.447 12.1994 281.447 26.6996L294.947 28.6995L295.447 35.6995V38.6995C296.946 43.6995 298.281 48.1995 296.947 50.1995C299.447 51.1995 301.947 54.3661 301.947 56.1995L299.947 66.1995C300.399 77.0474 297.991 77.2717 288.66 77.5841C287.668 77.6173 285.599 77.6515 284.447 77.6995V79.1995L259.447 79.6305M21.9472 81.1997V84.1997H39.9456L39.4472 79.6997M21.9472 81.1997V79.6997H39.4472M39.4472 79.6997C36.4472 38.1997 89.9472 41.1997 86.4472 80.1997V82.6995H212.947C206.947 39.1995 261.447 39.1995 259.447 79.6305M258.946 79.6305H259.447" stroke="black"/>
</svg>
