<svg width="303" height="96" viewBox="0 0 303 96" fill="none" xmlns="http://www.w3.org/2000/svg">
<circle cx="62.2725" cy="74.3687" r="20.5" fill="#E56E90" stroke="black"/>
<circle cx="235.272" cy="74.3687" r="20.5" fill="#E56E90" stroke="black"/>
<path d="M132.271 12.8685L130.771 9.36851C170.771 1.36862 192.271 1.86865 231.271 13.3686L227.771 17.8686C207.771 9.86856 189.771 8.86856 173.771 8.36863C171.271 7.86863 167.271 7.86859 164.771 8.36851C154.771 8.36863 142.771 9.86863 132.271 12.8685Z" fill="#EDADBF" stroke="black" stroke-width="0.5"/>
<path d="M130.771 9.3687L130.271 7.8687C166.271 -3.13135 198.771 0.868526 234.271 9.8687L231.271 13.3687C191.271 0.868652 165.271 2.36865 130.771 9.3687Z" fill="#EDADBF" stroke="black" stroke-width="0.5"/>
<path d="M130.771 9.36876C182.271 -2.13126 210.771 7.86877 231.271 13.3688" stroke="black" stroke-width="0.5"/>
<path d="M170.272 30.3687L173.772 8.36865C207.272 9.36865 218.772 14.8687 223.272 16.3687L225.755 28.3687C198.765 28.3693 181.27 29.8688 170.272 30.3687Z" fill="#EDADBF"/>
<path d="M226.272 30.8687L223.272 16.3687C218.772 14.8687 207.272 9.36865 173.772 8.36865L170.272 30.3687C181.272 29.8687 198.772 28.3687 225.772 28.3687" stroke="black" stroke-width="0.5"/>
<path d="M164.772 8.36865C131.772 9.36865 111.772 18.3687 92.7725 35.8687L95.2725 33.8687L159.272 30.8687L164.772 8.36865Z" fill="#EDADBF" stroke="black" stroke-width="0.5"/>
<path d="M239.271 22.8687C235.604 20.202 229.771 17.8687 223.271 16.3687L225.771 28.3687H232.271C235.271 26.8687 238.271 24.6374 239.271 22.8687Z" fill="#EDADBF" stroke="black" stroke-width="0.5"/>
<path d="M96.2725 78.8687H163.272L197.772 77.3687H212.272L212.772 82.8687H198.772H97.7725H86.2725V78.8687H96.2725Z" fill="#EDADBF"/>
<path d="M96.2725 78.8687H163.272L197.772 77.3687M96.2725 78.8687C96.2725 80.3687 96.7725 81.3687 97.7725 82.8687M96.2725 78.8687H86.2725V82.8687H97.7725M197.772 77.3687L198.772 82.8687M197.772 77.3687H212.272L212.772 82.8687H198.772M198.772 82.8687H97.7725" stroke="black" stroke-width="0.5"/>
<path d="M96.2716 78.8687C91.7725 74.3687 88.7725 52.3687 92.7716 35.8687L164.772 31.8687C160.772 36.8687 159.772 70.8687 163.272 78.8687H96.2716Z" fill="#EDADBF" stroke="black" stroke-width="0.5"/>
<path d="M228.272 30.8687L164.772 31.8687C160.773 36.8687 159.773 70.8687 163.272 78.8687L197.772 77.3687C202.272 75.8687 208.772 70.3687 228.272 30.8687Z" fill="#EDADBF" stroke="black" stroke-width="0.5"/>
<path d="M170.272 30.3687C165.772 30.8687 162.272 30.8687 159.272 30.8687L164.772 8.36873C167.772 7.86865 170.772 7.86865 173.772 8.36873L170.272 30.3687Z" fill="#EDADBF" stroke="black" stroke-width="0.5"/>
<path d="M98.7725 32.3689C103.272 37.8689 110.272 34.3689 114.272 32.8689C115.272 17.3688 102.272 25.3688 98.7725 32.3689Z" fill="#EDADBF" stroke="black" stroke-width="0.5"/>
<path d="M234.271 9.86865L231.271 13.3687C248.271 18.8687 258.771 21.8687 271.271 28.3687H272.771L280.771 26.8687C265.771 20.3687 258.271 17.8687 234.271 9.86865Z" fill="#EDADBF" stroke="black" stroke-width="0.5"/>
<path d="M271.271 28.3687C260.771 22.8687 241.771 16.3687 231.271 13.3687L229.271 15.8687L244.271 23.3687C242.771 25.8687 238.771 27.8687 232.771 30.5687C244.771 29.8687 261.771 28.8687 271.271 28.3687Z" fill="#EDADBF" stroke="black" stroke-width="0.5"/>
<path d="M276.772 34.6687L282.771 32.3687L272.271 28.3687L228.271 30.8687C220.771 45.8687 205.771 76.3687 197.771 77.3687H212.271C210.771 66.3687 220.271 42.8687 245.272 51.8687C255.772 46.3687 265.772 40.8687 276.772 34.6687Z" fill="#EDADBF" stroke="black" stroke-width="0.5"/>
<path d="M277.771 34.3687C265.771 40.8687 255.771 46.3687 245.271 51.8687C249.771 54.8687 260.271 60.8687 259.271 79.8687L284.271 79.3687V77.8687C292.771 76.8687 301.271 80.3687 299.771 66.3687L301.771 56.3687C301.771 54.8687 299.271 50.8687 296.771 50.3687C298.271 47.8687 295.271 38.8687 295.271 38.8687V37.3687L291.271 34.3687L286.271 32.8687L282.771 32.3687L277.771 34.3687Z" fill="#EDADBF" stroke="black" stroke-width="0.5"/>
<path d="M280.771 26.8687L272.271 28.3687L282.771 32.3687C292.271 33.3687 291.269 34.8687 295.265 37.2888L294.771 28.8687L280.771 26.8687Z" fill="#EDADBF"/>
<path d="M295.271 37.3687L295.265 37.2888M295.265 37.2888L294.771 28.8687L280.771 26.8687L272.271 28.3687L282.771 32.3687C292.271 33.3687 291.269 34.8687 295.265 37.2888Z" stroke="black" stroke-width="0.5"/>
<path d="M293.772 36.8689C293.272 34.3687 282.272 34.1687 276.772 34.6687" stroke="black" stroke-width="0.5"/>
<path d="M299.772 66.8687L260.272 68.8687C259.772 63.8687 257.606 59.702 255.772 57.8687L301.772 55.3687M300.272 52.8687C289.272 51.3687 278.272 46.5687 266.272 40.5687M228.272 30.8687L272.272 28.3687L280.772 26.8687" stroke="black" stroke-width="0.5"/>
<path d="M290.272 40.8687C290.272 38.8687 289.272 34.8687 285.772 32.8687C287.993 32.8687 291.37 33.909 293.881 36.2786C294.345 37.8086 293.272 41.3687 290.231 42.8687C290.217 42.2784 290.272 41.5929 290.272 40.8687Z" fill="#EDADBF"/>
<path d="M272.272 43.3687C279.268 43.7184 285.285 43.8235 290.666 44.3687M297.272 45.3687C295.169 44.918 292.976 44.6028 290.666 44.3687M295.272 37.8687C294.855 37.2835 294.385 36.7543 293.881 36.2786M290.666 44.3687C290.339 44.0239 290.245 43.5008 290.231 42.8687M290.231 42.8687C290.217 42.2784 290.272 41.5929 290.272 40.8687C290.272 38.8687 289.272 34.8687 285.772 32.8687C287.993 32.8687 291.37 33.909 293.881 36.2786M290.231 42.8687C293.272 41.3687 294.345 37.8086 293.881 36.2786" stroke="black" stroke-width="0.5"/>
<path d="M290.272 40.8687C285.772 40.8687 283.772 36.8687 282.772 34.3687" stroke="black" stroke-width="0.5"/>
<path d="M132.271 12.9686C118.771 16.9686 106.771 22.8687 92.7705 35.8687C99.7705 23.8687 115.271 14.3687 130.771 9.36865L132.271 12.9686Z" fill="#E56E90" stroke="black" stroke-width="0.5"/>
<path d="M130.771 9.36865C110.771 15.0427 92.7705 32.3687 84.7705 30.3687C97.7705 20.8687 113.771 12.3687 130.271 7.86865L130.771 9.36865Z" fill="#E56E90" stroke="black" stroke-width="0.5"/>
<path d="M9.77118 48.3685H3.77118C1.27051 52.3685 1.27051 62.3685 1.77118 65.8685C0.270508 66.8685 0.271105 71.3685 1.27118 72.8685L5.27118 73.3685V74.8685L1.27118 76.8685V78.8685C5.27118 79.8685 13.7712 81.8685 21.7712 81.3685V79.8685H39.2712C38.6045 71.3685 40.2712 60.8685 49.2712 53.8685C46.7712 49.8685 39.7712 45.3685 36.7712 44.8685C26.7712 43.8685 11.7712 46.3685 9.77118 48.3685Z" fill="#E56E90" stroke="black" stroke-width="0.5"/>
<path d="M92.7725 35.8687C74.9391 36.702 43.2725 41.5687 32.7725 44.5687L36.7725 44.8687C41.7725 46.3687 47.2725 50.702 49.2725 53.8687C62.2715 44.3687 87.7715 51.3687 86.2715 78.8687H96.2715C89.2715 67.8687 90.2715 45.8687 92.7725 35.8687Z" fill="#E56E90" stroke="black" stroke-width="0.5"/>
<path d="M9.77051 48.3687H3.77051C36.2707 28.8686 58.2708 34.8687 84.2705 30.3687L93.2708 35.8687C76.2708 36.8687 47.2705 40.3686 33.2705 44.5687C25.2705 44.3686 11.2705 46.3686 9.77051 48.3687Z" fill="#E56E90" stroke="black" stroke-width="0.5"/>
<path d="M36.772 44.8687C29.272 43.8687 12.272 45.8687 9.77196 48.3687C8.97196 50.7687 12.1053 53.702 13.772 54.8687C23.272 56.3687 36.772 50.3687 36.772 44.8687Z" fill="#E56E90" stroke="black" stroke-width="0.5"/>
<path d="M3.7712 48.3687C10.7712 49.3687 4.7712 59.8687 1.7712 64.8687C1.27113 57.8687 1.771 52.3687 3.7712 48.3687Z" fill="#E56E90" stroke="black" stroke-width="0.5"/>
<path d="M21.7705 84.3687V79.8687H39.2705L39.7705 84.3687H21.7705Z" fill="#E56E90" stroke="black" stroke-width="0.5"/>
<path d="M2.27246 65.8687C3.77246 68.3687 5.77246 71.5353 5.27246 73.3687M21.7725 79.8687C11.2725 80.3687 6.77246 76.3687 7.77246 72.8687C8.27246 72.3687 9.77246 70.8687 10.7725 70.8687" stroke="black" stroke-width="0.5"/>
<path d="M31.7725 74.8688C29.2725 70.8688 23.7725 65.8689 20.7725 64.3689C19.0224 63.8688 16.3973 63.9938 13.6472 64.3689C12.0223 65.7022 10.7725 68.8688 11.2725 71.8688C11.2725 73.0354 12.5799 75.3688 15.2725 75.3688C19.7725 75.3688 26.7725 75.8688 31.7725 74.8688Z" fill="#E56E90"/>
<path d="M5.77246 65.8689C8.0224 65.3688 10.8973 64.7438 13.6472 64.3689M13.6472 64.3689C16.3973 63.9938 19.0224 63.8688 20.7725 64.3689C23.7725 65.8689 29.2725 70.8688 31.7725 74.8688C26.7725 75.8688 19.7725 75.3688 15.2725 75.3688C12.5799 75.3688 11.2725 73.0354 11.2725 71.8688C10.7725 68.8688 12.0223 65.7022 13.6472 64.3689Z" stroke="black" stroke-width="0.5"/>
<path d="M11.2725 71.3688C19.2725 69.8689 22.7725 72.4974 25.7725 73.9974M12.7725 74.3689L30.2725 73.8689" stroke="black" stroke-width="0.5"/>
<path d="M21.7705 82.8687H31.2705C33.2705 82.8687 34.7705 80.8687 34.2705 79.8687M37.7705 79.8687V84.3687" stroke="black" stroke-width="0.5"/>
<path d="M21.7724 81.3689C17.2724 81.3689 12.7724 81.8689 1.27241 78.8689V76.8689L5.27241 74.8689V73.3689L1.27241 72.8689C0.771484 71.3687 -0.22832 68.3687 1.77168 65.8687C1.27192 57.8687 1.77192 51.3687 3.77241 48.3684C36.2724 28.8688 58.2724 34.8688 84.2724 30.3688C162.272 -24.6313 244.272 12.3686 281.272 26.8688L294.772 28.8687L295.272 35.8687V38.8687C296.771 43.8687 298.106 48.3687 296.772 50.3687C299.272 51.3687 301.772 54.5353 301.772 56.3687L299.772 66.3687C300.224 77.2166 297.816 77.4408 288.485 77.7533C287.494 77.7865 285.425 77.8206 284.272 77.8687V79.3687L259.272 79.7997M21.7724 81.3689V84.3689H39.7708L39.2724 79.8689M21.7724 81.3689V79.8689H39.2724M39.2724 79.8689C36.2724 38.3689 89.7724 41.3689 86.2724 80.3689V82.8687H212.772C206.772 39.3687 261.272 39.3687 259.272 79.7997M258.771 79.7997H259.272" stroke="black"/>
</svg>
