<svg width="303" height="96" viewBox="0 0 303 96" fill="none" xmlns="http://www.w3.org/2000/svg">
<circle cx="62.6978" cy="74.3838" r="20.5" stroke="black"/>
<circle cx="235.698" cy="74.3838" r="20.5" stroke="black"/>
<path d="M132.696 12.8836L131.196 9.38364C171.196 1.38376 192.696 1.88379 231.696 13.3837L228.196 17.8837C208.196 9.8837 190.196 8.8837 174.196 8.38377C171.696 7.88377 167.696 7.88373 165.196 8.38364C155.196 8.38377 143.196 9.88377 132.696 12.8836Z" fill="#E56E90" stroke="black" stroke-width="0.5"/>
<path d="M131.196 9.38383L130.696 7.88383C166.696 -3.11621 199.196 0.883663 234.696 9.88383L231.696 13.3838C191.696 0.883789 165.696 2.38379 131.196 9.38383Z" fill="#E56E90" stroke="black" stroke-width="0.5"/>
<path d="M131.196 9.3839C182.696 -2.11613 211.196 7.88391 231.696 13.3839" stroke="black" stroke-width="0.5"/>
<path d="M170.698 30.3838L174.198 8.38379C207.698 9.38379 219.198 14.8838 223.698 16.3838L226.181 28.3838C199.19 28.3844 181.695 29.8839 170.698 30.3838Z" fill="#E56E90"/>
<path d="M226.698 30.8838L223.698 16.3838C219.198 14.8838 207.698 9.38379 174.198 8.38379L170.698 30.3838C181.698 29.8838 199.198 28.3838 226.198 28.3838" stroke="black" stroke-width="0.5"/>
<path d="M165.198 8.38379C132.198 9.38379 112.198 18.3838 93.1978 35.8838L95.6978 33.8838L159.698 30.8838L165.198 8.38379Z" fill="#E56E90" stroke="black" stroke-width="0.5"/>
<path d="M239.696 22.8838C236.03 20.2171 230.196 17.8838 223.696 16.3838L226.196 28.3838H232.696C235.696 26.8838 238.696 24.6525 239.696 22.8838Z" fill="#E56E90" stroke="black" stroke-width="0.5"/>
<path d="M96.6978 78.8838H163.698L198.198 77.3838H212.698L213.198 82.8838H199.198H98.1978H86.6978V78.8838H96.6978Z" fill="#E56E90"/>
<path d="M96.6978 78.8838H163.698L198.198 77.3838M96.6978 78.8838C96.6978 80.3838 97.1978 81.3838 98.1978 82.8838M96.6978 78.8838H86.6978V82.8838H98.1978M198.198 77.3838L199.198 82.8838M198.198 77.3838H212.698L213.198 82.8838H199.198M199.198 82.8838H98.1978" stroke="black" stroke-width="0.5"/>
<path d="M96.6969 78.8838C92.1977 74.3838 89.1978 52.3838 93.1969 35.8838L165.198 31.8838C161.198 36.8838 160.198 70.8838 163.698 78.8838H96.6969Z" fill="#E56E90" stroke="black" stroke-width="0.5"/>
<path d="M228.697 30.8838L165.197 31.8838C161.197 36.8838 160.198 70.8838 163.697 78.8838L198.197 77.3838C202.697 75.8838 209.197 70.3838 228.697 30.8838Z" fill="#E56E90" stroke="black" stroke-width="0.5"/>
<path d="M170.698 30.3839C166.198 30.8839 162.698 30.8839 159.698 30.8839L165.198 8.38386C168.198 7.88379 171.198 7.88379 174.198 8.38386L170.698 30.3839Z" fill="#E56E90" stroke="black" stroke-width="0.5"/>
<path d="M99.1978 32.384C103.698 37.884 110.698 34.384 114.698 32.884C115.698 17.3839 102.698 25.3839 99.1978 32.384Z" fill="#E56E90" stroke="black" stroke-width="0.5"/>
<path d="M234.696 9.88379L231.696 13.3838C248.696 18.8838 259.196 21.8838 271.696 28.3838H273.196L281.196 26.8838C266.196 20.3838 258.696 17.8838 234.696 9.88379Z" stroke="black" stroke-width="0.5"/>
<path d="M271.696 28.3838C261.196 22.8838 242.196 16.3838 231.696 13.3838L229.696 15.8838L244.696 23.3838C243.196 25.8838 239.196 27.8838 233.196 30.5838C245.196 29.8838 262.196 28.8838 271.696 28.3838Z" stroke="black" stroke-width="0.5"/>
<path d="M277.198 34.6838L283.196 32.3838L272.697 28.3838L228.697 30.8838C221.197 45.8838 206.197 76.3838 198.197 77.3838H212.697C211.197 66.3838 220.697 42.8838 245.698 51.8838C256.198 46.3838 266.198 40.8838 277.198 34.6838Z" stroke="black" stroke-width="0.5"/>
<path d="M278.196 34.3838C266.196 40.8838 256.196 46.3838 245.696 51.8838C250.196 54.8838 260.696 60.8838 259.696 79.8838L284.696 79.3838V77.8838C293.196 76.8838 301.696 80.3838 300.196 66.3838L302.196 56.3838C302.196 54.8838 299.696 50.8838 297.196 50.3838C298.696 47.8838 295.696 38.8838 295.696 38.8838V37.3838L291.696 34.3838L286.696 32.8838L283.196 32.3838L278.196 34.3838Z" stroke="black" stroke-width="0.5"/>
<path d="M295.696 37.3838L295.69 37.304M295.69 37.304L295.196 28.8838L281.196 26.8838L272.696 28.3838L283.196 32.3838C292.696 33.3838 291.695 34.8838 295.69 37.304Z" stroke="black" stroke-width="0.5"/>
<path d="M294.198 36.884C293.698 34.3839 282.698 34.1838 277.198 34.6838" stroke="black" stroke-width="0.5"/>
<path d="M300.198 66.8838L260.698 68.8838C260.198 63.8838 258.031 59.7171 256.198 57.8838L302.198 55.3838M300.698 52.8838C289.698 51.3838 278.698 46.5838 266.698 40.5838M228.698 30.8838L272.698 28.3838L281.198 26.8838" stroke="black" stroke-width="0.5"/>
<path d="M272.698 43.3838C279.693 43.7336 285.71 43.8387 291.091 44.3838M297.698 45.3838C295.595 44.9331 293.402 44.6179 291.091 44.3838M295.698 37.8838C295.28 37.2987 294.811 36.7694 294.307 36.2938M291.091 44.3838C290.765 44.039 290.671 43.516 290.656 42.8838M290.656 42.8838C290.642 42.2935 290.698 41.6081 290.698 40.8838C290.698 38.8838 289.698 34.8838 286.198 32.8838C288.419 32.8838 291.795 33.9242 294.307 36.2938M290.656 42.8838C293.698 41.3838 294.77 37.8238 294.307 36.2938" stroke="black" stroke-width="0.5"/>
<path d="M290.698 40.8838C286.198 40.8838 284.198 36.8838 283.198 34.3838" stroke="black" stroke-width="0.5"/>
<path d="M132.696 12.9838C119.196 16.9838 107.196 22.8838 93.1963 35.8838C100.196 23.8838 115.696 14.3838 131.196 9.38379L132.696 12.9838Z" fill="#E0426F" stroke="black" stroke-width="0.5"/>
<path d="M131.196 9.38379C111.196 15.0578 93.1963 32.3838 85.1963 30.3838C98.1963 20.8838 114.196 12.3838 130.696 7.88379L131.196 9.38379Z" fill="#E0426F" stroke="black" stroke-width="0.5"/>
<path d="M10.197 48.3837H4.19696C1.69629 52.3837 1.69629 62.3837 2.19696 65.8837C0.696289 66.8837 0.696887 71.3837 1.69696 72.8837L5.69696 73.3837V74.8837L1.69696 76.8837V78.8837C5.69696 79.8837 14.197 81.8837 22.197 81.3837V79.8837H39.697C39.0303 71.3837 40.697 60.8837 49.697 53.8837C47.197 49.8837 40.197 45.3837 37.197 44.8837C27.197 43.8837 12.197 46.3837 10.197 48.3837Z" fill="#E0426F" stroke="black" stroke-width="0.5"/>
<path d="M93.1978 35.8838C75.3644 36.7171 43.6978 41.5838 33.1978 44.5838L37.1978 44.8838C42.1978 46.3838 47.6978 50.7171 49.6978 53.8838C62.6968 44.3838 88.1968 51.3838 86.6968 78.8838H96.6968C89.6968 67.8838 90.6968 45.8838 93.1978 35.8838Z" fill="#E0426F" stroke="black" stroke-width="0.5"/>
<path d="M10.1963 48.3838H4.19629C36.6965 28.8837 58.6965 34.8838 84.6963 30.3838L93.6965 35.8838C76.6965 36.8838 47.6963 40.3838 33.6963 44.5838C25.6963 44.3838 11.6963 46.3838 10.1963 48.3838Z" fill="#E0426F" stroke="black" stroke-width="0.5"/>
<path d="M37.1977 44.8839C29.6977 43.8838 12.6977 45.8838 10.1977 48.3839C9.39774 50.7838 12.5311 53.7171 14.1977 54.8838C23.6978 56.3838 37.1977 50.3838 37.1977 44.8839Z" fill="#E0426F" stroke="black" stroke-width="0.5"/>
<path d="M4.19698 48.3838C11.197 49.3838 5.19698 59.8838 2.19698 64.8838C1.69691 57.8838 2.19678 52.3838 4.19698 48.3838Z" fill="#E0426F" stroke="black" stroke-width="0.5"/>
<path d="M22.1963 84.3838V79.8838H39.6963L40.1963 84.3838H22.1963Z" fill="#E0426F" stroke="black" stroke-width="0.5"/>
<path d="M2.69824 65.8838C4.19824 68.3838 6.19824 71.5505 5.69824 73.3838M22.1982 79.8838C11.6982 80.3838 7.19824 76.3838 8.19824 72.8838C8.69824 72.3838 10.1982 70.8838 11.1982 70.8838" stroke="black" stroke-width="0.5"/>
<path d="M32.1982 74.8839C29.6982 70.8839 24.1982 65.884 21.1982 64.384C19.4482 63.884 16.8231 64.009 14.073 64.384C12.4481 65.7173 11.1982 68.8839 11.6982 71.8839C11.6982 73.0506 13.0057 75.3839 15.6982 75.3839C20.1982 75.3839 27.1982 75.8839 32.1982 74.8839Z" fill="#E0426F"/>
<path d="M6.19824 65.884C8.44818 65.384 11.3231 64.759 14.073 64.384M14.073 64.384C16.8231 64.009 19.4482 63.884 21.1982 64.384C24.1982 65.884 29.6982 70.8839 32.1982 74.8839C27.1982 75.8839 20.1982 75.3839 15.6982 75.3839C13.0057 75.3839 11.6982 73.0506 11.6982 71.8839C11.1982 68.8839 12.4481 65.7173 14.073 64.384Z" stroke="black" stroke-width="0.5"/>
<path d="M11.6982 71.384C19.6982 69.884 23.1982 72.5125 26.1982 74.0125M13.1982 74.384L30.6982 73.884" stroke="black" stroke-width="0.5"/>
<path d="M22.1963 82.8838H31.6963C33.6963 82.8838 35.1963 80.8838 34.6963 79.8838M38.1963 79.8838V84.3838" stroke="black" stroke-width="0.5"/>
<path d="M22.1977 81.384C17.6977 81.384 13.1977 81.884 1.6977 78.884V76.884L5.6977 74.884V73.384L1.6977 72.884C1.19678 71.3838 0.196973 68.3838 2.19697 65.8838C1.69721 57.8838 2.19721 51.3838 4.1977 48.3835C36.6977 28.8839 58.6977 34.884 84.6977 30.384C162.698 -24.6161 244.698 12.3838 281.698 26.884L295.198 28.8838L295.698 35.8838V38.8838C297.196 43.8838 298.531 48.3838 297.198 50.3838C299.698 51.3838 302.198 54.5505 302.198 56.3838L300.198 66.3838C300.65 77.2317 298.242 77.456 288.91 77.7684C287.919 77.8016 285.85 77.8358 284.698 77.8838V79.3838L259.698 79.8148M22.1977 81.384V84.384H40.196L39.6977 79.884M22.1977 81.384V79.884H39.6977M39.6977 79.884C36.6977 38.384 90.1977 41.384 86.6977 80.384V82.8838H213.198C207.198 39.3838 261.698 39.3838 259.698 79.8148M259.196 79.8148H259.698" stroke="black"/>
</svg>
