<svg width="304" height="95" viewBox="0 0 304 95" fill="none" xmlns="http://www.w3.org/2000/svg">
<circle cx="63.0835" cy="73.8459" r="20.5" fill="#EDADBF" stroke="black"/>
<circle cx="236.083" cy="73.8459" r="20.5" fill="#EDADBF" stroke="black"/>
<path d="M133.082 12.3458L131.582 8.8458C171.582 0.845915 193.082 1.34595 232.082 12.8459L228.582 17.3459C208.582 9.34586 190.582 8.34586 174.582 7.84592C172.082 7.34592 168.082 7.34589 165.582 7.8458C155.582 7.84592 143.582 9.34592 133.082 12.3458Z" stroke="black" stroke-width="0.5"/>
<path d="M131.582 8.84599L131.082 7.34599C167.082 -3.65405 199.582 0.345821 235.082 9.34599L232.082 12.846C192.082 0.345947 166.082 1.84595 131.582 8.84599Z" stroke="black" stroke-width="0.5"/>
<path d="M131.582 8.84593C183.082 -2.65409 211.582 7.34595 232.082 12.8459" stroke="black" stroke-width="0.5"/>
<path d="M227.083 30.3459L224.083 15.8459C219.583 14.3459 208.083 8.84595 174.583 7.84595L171.083 29.8459C182.083 29.3459 199.583 27.8459 226.583 27.8459" stroke="black" stroke-width="0.5"/>
<path d="M165.583 7.84595C132.583 8.84595 112.583 17.8459 93.5835 35.3459L96.0835 33.3459L160.083 30.3459L165.583 7.84595Z" stroke="black" stroke-width="0.5"/>
<path d="M240.082 22.3459C236.415 19.6793 230.582 17.3459 224.082 15.8459L226.582 27.8459H233.082C236.082 26.3459 239.082 24.1147 240.082 22.3459Z" stroke="black" stroke-width="0.5"/>
<path d="M97.0835 78.3459H164.083L198.583 76.8459M97.0835 78.3459C97.0835 79.8459 97.5835 80.8459 98.5835 82.3459M97.0835 78.3459H87.0835V82.3459H98.5835M198.583 76.8459L199.583 82.3459M198.583 76.8459H213.083L213.583 82.3459H199.583M199.583 82.3459H98.5835" stroke="black" stroke-width="0.5"/>
<path d="M97.0826 78.3459C92.5835 73.8459 89.5835 51.8459 93.5826 35.3459L165.583 31.3459C161.583 36.3459 160.583 70.3459 164.083 78.3459H97.0826Z" stroke="black" stroke-width="0.5"/>
<path d="M229.083 30.3459L165.583 31.3459C161.583 36.3459 160.583 70.3459 164.083 78.3459L198.583 76.8459C203.083 75.3459 209.583 69.8459 229.083 30.3459Z" stroke="black" stroke-width="0.5"/>
<path d="M171.083 29.846C166.583 30.346 163.083 30.346 160.083 30.346L165.583 7.84602C168.583 7.34595 171.583 7.34595 174.583 7.84602L171.083 29.846Z" stroke="black" stroke-width="0.5"/>
<path d="M99.5835 31.8461C104.083 37.3461 111.083 33.8461 115.083 32.3461C116.083 16.846 103.083 24.8459 99.5835 31.8461Z" stroke="black" stroke-width="0.5"/>
<path d="M235.082 9.34595L232.082 12.8459C249.082 18.3459 259.582 21.3459 272.082 27.8459H273.582L281.582 26.3459C266.582 19.8459 259.082 17.3459 235.082 9.34595Z" fill="#EFC7D3" stroke="black" stroke-width="0.5"/>
<path d="M272.082 27.8459C261.582 22.3459 242.582 15.8459 232.082 12.8459L230.082 15.3459L245.082 22.8459C243.582 25.3459 239.582 27.3459 233.582 30.0459C245.582 29.3459 262.582 28.3459 272.082 27.8459Z" fill="#EFC7D3" stroke="black" stroke-width="0.5"/>
<path d="M277.583 34.1459L283.582 31.8459L273.083 27.8459L229.083 30.3459C221.583 45.3459 206.583 75.8459 198.583 76.8459H213.083C211.583 65.8459 221.083 42.3459 246.083 51.3459C256.583 45.8459 266.583 40.3459 277.583 34.1459Z" fill="#EFC7D3" stroke="black" stroke-width="0.5"/>
<path d="M278.582 33.846C266.582 40.346 256.582 45.846 246.082 51.346C250.582 54.3459 261.082 60.3459 260.082 79.3459L285.082 78.8459V77.3459C293.582 76.3459 302.082 79.8459 300.582 65.8459L302.582 55.8459C302.582 54.3459 300.082 50.3459 297.582 49.8459C299.082 47.3459 296.082 38.3459 296.082 38.3459V36.8459L292.082 33.8459L287.082 32.3459L283.582 31.8459L278.582 33.846Z" fill="#EFC7D3" stroke="black" stroke-width="0.5"/>
<path d="M281.582 26.3459L273.082 27.8459L283.582 31.8459C293.082 32.8459 292.081 34.3459 296.076 36.7661L295.582 28.3459L281.582 26.3459Z" fill="#EFC7D3"/>
<path d="M296.082 36.8459L296.076 36.7661M296.076 36.7661L295.582 28.3459L281.582 26.3459L273.082 27.8459L283.582 31.8459C293.082 32.8459 292.081 34.3459 296.076 36.7661Z" stroke="black" stroke-width="0.5"/>
<path d="M294.583 36.3461C294.083 33.846 283.083 33.646 277.583 34.146" stroke="black" stroke-width="0.5"/>
<path d="M300.583 66.3459L261.083 68.3459C260.583 63.3459 258.417 59.1793 256.583 57.3459L302.583 54.8459M301.083 52.3459C290.083 50.8459 279.083 46.0459 267.083 40.0459M229.083 30.3459L273.083 27.8459L281.583 26.3459" stroke="black" stroke-width="0.5"/>
<path d="M291.083 40.3459C291.083 38.3459 290.083 34.3459 286.583 32.3459C288.804 32.3459 292.181 33.3863 294.692 35.7559C295.156 37.2859 294.083 40.8459 291.042 42.3459C291.028 41.7557 291.083 41.0702 291.083 40.3459Z" fill="#EFC7D3"/>
<path d="M273.083 42.8459C280.079 43.1957 286.096 43.3008 291.477 43.8459M298.083 44.8459C295.981 44.3953 293.787 44.08 291.477 43.8459M296.083 37.3459C295.666 36.7608 295.196 36.2316 294.692 35.7559M291.477 43.8459C291.15 43.5012 291.056 42.9781 291.042 42.3459M291.042 42.3459C291.028 41.7557 291.083 41.0702 291.083 40.3459C291.083 38.3459 290.083 34.3459 286.583 32.3459C288.804 32.3459 292.181 33.3863 294.692 35.7559M291.042 42.3459C294.083 40.8459 295.156 37.2859 294.692 35.7559" stroke="black" stroke-width="0.5"/>
<path d="M291.083 40.3459C286.583 40.3459 284.583 36.3459 283.583 33.8459" stroke="black" stroke-width="0.5"/>
<path d="M133.082 12.4459C119.582 16.4459 107.582 22.3459 93.582 35.3459C100.582 23.3459 116.082 13.8459 131.582 8.84595L133.082 12.4459Z" fill="#E0426F" stroke="black" stroke-width="0.5"/>
<path d="M131.582 8.84595C111.582 14.52 93.582 31.8459 85.582 29.8459C98.582 20.3459 114.582 11.8459 131.082 7.34595L131.582 8.84595Z" fill="#E0426F" stroke="black" stroke-width="0.5"/>
<path d="M10.5827 47.846H4.5827C2.08203 51.8459 2.08203 61.8459 2.5827 65.3459C1.08203 66.3459 1.08263 70.8459 2.0827 72.3459L6.0827 72.8459V74.3459L2.0827 76.3459V78.3459C6.0827 79.3459 14.5827 81.3459 22.5827 80.8459V79.3459H40.0827C39.416 70.8459 41.0827 60.3459 50.0827 53.3459C47.5827 49.3459 40.5827 44.8459 37.5827 44.346C27.5827 43.3459 12.5827 45.846 10.5827 47.846Z" fill="#E0426F" stroke="black" stroke-width="0.5"/>
<path d="M93.5835 35.3459C75.7502 36.1793 44.0835 41.0459 33.5835 44.0459L37.5835 44.3459C42.5835 45.8459 48.0835 50.1793 50.0835 53.3459C63.0825 43.8459 88.5825 50.8459 87.0825 78.3459H97.0825C90.0825 67.3459 91.0825 45.3459 93.5835 35.3459Z" fill="#E0426F" stroke="black" stroke-width="0.5"/>
<path d="M10.582 47.846H4.58203C37.0822 28.3459 59.0823 34.3459 85.082 29.8459L94.0823 35.3459C77.0823 36.3459 48.082 39.8459 34.082 44.046C26.082 43.8459 12.082 45.8459 10.582 47.846Z" fill="#E0426F" stroke="black" stroke-width="0.5"/>
<path d="M37.5835 44.346C30.0835 43.3459 13.0835 45.3459 10.5835 47.846C9.78349 50.246 12.9168 53.1793 14.5835 54.3459C24.0835 55.8459 37.5835 49.8459 37.5835 44.346Z" fill="#E0426F" stroke="black" stroke-width="0.5"/>
<path d="M4.58273 47.8459C11.5827 48.8459 5.58273 59.3459 2.58273 64.3459C2.08266 57.3459 2.58252 51.8459 4.58273 47.8459Z" fill="#E0426F" stroke="black" stroke-width="0.5"/>
<path d="M22.582 83.8459V79.3459H40.082L40.582 83.8459H22.582Z" fill="#E0426F" stroke="black" stroke-width="0.5"/>
<path d="M3.08398 65.3459C4.58398 67.8459 6.58398 71.0126 6.08398 72.8459M22.584 79.3459C12.084 79.8459 7.58398 75.8459 8.58398 72.3459C9.08398 71.8459 10.584 70.3459 11.584 70.3459" stroke="black" stroke-width="0.5"/>
<path d="M32.584 74.3459C30.084 70.3459 24.584 65.346 21.584 63.846C19.8339 63.346 17.2088 63.471 14.4588 63.846C12.8338 65.1793 11.584 68.3459 12.084 71.3459C12.084 72.5126 13.3914 74.8459 16.084 74.8459C20.584 74.8459 27.584 75.3459 32.584 74.3459Z" fill="#E0426F"/>
<path d="M6.58398 65.346C8.83393 64.846 11.7088 64.221 14.4588 63.846M14.4588 63.846C17.2088 63.471 19.8339 63.346 21.584 63.846C24.584 65.346 30.084 70.3459 32.584 74.3459C27.584 75.3459 20.584 74.8459 16.084 74.8459C13.3914 74.8459 12.084 72.5126 12.084 71.3459C11.584 68.3459 12.8338 65.1793 14.4588 63.846Z" stroke="black" stroke-width="0.5"/>
<path d="M12.084 70.846C20.084 69.3461 23.584 71.9745 26.584 73.4745M13.584 73.8461L31.084 73.3461" stroke="black" stroke-width="0.5"/>
<path d="M22.582 82.3459H32.082C34.082 82.3459 35.582 80.3459 35.082 79.3459M38.582 79.3459V83.8459" stroke="black" stroke-width="0.5"/>
<path d="M22.5834 80.8462C18.0834 80.8462 13.5834 81.3462 2.08344 78.3462V76.3462L6.08344 74.3462V72.8462L2.08344 72.3462C1.58252 70.8459 0.582715 67.8459 2.58271 65.3459C2.08295 57.3459 2.58295 50.8459 4.58344 47.8457C37.0834 28.3461 59.0834 34.3461 85.0834 29.8461C163.083 -25.154 245.083 11.8459 282.083 26.3461L295.583 28.3459L296.083 35.3459V38.3459C297.582 43.3459 298.917 47.8459 297.583 49.8459C300.083 50.8459 302.583 54.0126 302.583 55.8459L300.583 65.8459C301.035 76.6939 298.627 76.9181 289.296 77.2306C288.305 77.2638 286.236 77.2979 285.083 77.3459V78.8459L260.083 79.277M22.5834 80.8462V83.8462H40.5818L40.0835 79.3462M22.5834 80.8462V79.3462H40.0835M40.0835 79.3462C37.0835 37.8462 90.5834 40.8462 87.0834 79.8462V82.3459H213.583C207.583 38.8459 262.083 38.8459 260.083 79.277M259.582 79.277H260.083" stroke="black"/>
</svg>
