<svg width="303" height="96" viewBox="0 0 303 96" fill="none" xmlns="http://www.w3.org/2000/svg">
<circle cx="62.6562" cy="74.5227" r="20.5" stroke="black"/>
<circle cx="235.656" cy="74.5227" r="20.5" stroke="black"/>
<path d="M132.654 13.0226L131.154 9.52256C171.154 1.52267 192.654 2.02271 231.654 13.5227L228.154 18.0226C208.154 10.0226 190.154 9.02261 174.154 8.52268C171.654 8.02268 167.654 8.02264 165.154 8.52256C155.154 8.52268 143.154 10.0227 132.654 13.0226Z" fill="#EFC7D3" stroke="black" stroke-width="0.5"/>
<path d="M131.154 9.52275L130.654 8.02275C166.654 -2.97729 199.154 1.02258 234.654 10.0228L231.654 13.5228C191.654 1.02271 165.654 2.52271 131.154 9.52275Z" fill="#EFC7D3" stroke="black" stroke-width="0.5"/>
<path d="M131.154 9.52269C182.654 -1.97733 211.154 8.02271 231.654 13.5227" stroke="black" stroke-width="0.5"/>
<path d="M170.656 30.5227L174.156 8.52271C207.656 9.52271 219.156 15.0227 223.656 16.5227L226.139 28.5227C199.149 28.5233 181.654 30.0228 170.656 30.5227Z" fill="#EFC7D3"/>
<path d="M226.656 31.0227L223.656 16.5227C219.156 15.0227 207.656 9.52271 174.156 8.52271L170.656 30.5227C181.656 30.0227 199.156 28.5227 226.156 28.5227" stroke="black" stroke-width="0.5"/>
<path d="M165.156 8.52271C132.156 9.52271 112.156 18.5227 93.1562 36.0227L95.6562 34.0227L159.656 31.0227L165.156 8.52271Z" fill="#EFC7D3" stroke="black" stroke-width="0.5"/>
<path d="M239.654 23.0227C235.988 20.356 230.154 18.0227 223.654 16.5227L226.154 28.5227H232.654C235.654 27.0227 238.654 24.7914 239.654 23.0227Z" fill="#EFC7D3" stroke="black" stroke-width="0.5"/>
<path d="M96.6562 79.0227H163.656L198.156 77.5227H212.656L213.156 83.0227H199.156H98.1562H86.6562V79.0227H96.6562Z" fill="#EFC7D3"/>
<path d="M96.6562 79.0227H163.656L198.156 77.5227M96.6562 79.0227C96.6562 80.5227 97.1562 81.5227 98.1562 83.0227M96.6562 79.0227H86.6562V83.0227H98.1562M198.156 77.5227L199.156 83.0227M198.156 77.5227H212.656L213.156 83.0227H199.156M199.156 83.0227H98.1562" stroke="black" stroke-width="0.5"/>
<path d="M96.6554 79.0227C92.1562 74.5227 89.1563 52.5227 93.1554 36.0227L165.156 32.0227C161.156 37.0227 160.156 71.0227 163.656 79.0227H96.6554Z" fill="#EFC7D3" stroke="black" stroke-width="0.5"/>
<path d="M228.656 31.0227L165.156 32.0227C161.156 37.0227 160.156 71.0227 163.656 79.0227L198.156 77.5227C202.656 76.0227 209.156 70.5227 228.656 31.0227Z" fill="#EFC7D3" stroke="black" stroke-width="0.5"/>
<path d="M170.656 30.5228C166.156 31.0228 162.656 31.0228 159.656 31.0228L165.156 8.52278C168.156 8.02271 171.156 8.02271 174.156 8.52278L170.656 30.5228Z" fill="#EFC7D3" stroke="black" stroke-width="0.5"/>
<path d="M99.1562 32.5228C103.656 38.0228 110.656 34.5228 114.656 33.0228C115.656 17.5227 102.656 25.5227 99.1562 32.5228Z" fill="#EFC7D3" stroke="black" stroke-width="0.5"/>
<path d="M234.654 10.0227L231.654 13.5227C248.654 19.0227 259.154 22.0227 271.654 28.5227H273.154L281.154 27.0227C266.154 20.5227 258.654 18.0227 234.654 10.0227Z" fill="#E0426F" stroke="black" stroke-width="0.5"/>
<path d="M271.654 28.5227C261.154 23.0227 242.154 16.5227 231.654 13.5227L229.654 16.0227L244.654 23.5227C243.154 26.0227 239.154 28.0227 233.154 30.7227C245.154 30.0227 262.154 29.0227 271.654 28.5227Z" fill="#E0426F" stroke="black" stroke-width="0.5"/>
<path d="M277.156 34.8227L283.155 32.5227L272.655 28.5227L228.655 31.0227C221.155 46.0227 206.155 76.5227 198.155 77.5227H212.655C211.155 66.5227 220.655 43.0227 245.656 52.0227C256.156 46.5227 266.156 41.0227 277.156 34.8227Z" fill="#E0426F" stroke="black" stroke-width="0.5"/>
<path d="M278.154 34.5227C266.154 41.0227 256.154 46.5227 245.654 52.0227C250.154 55.0227 260.654 61.0227 259.654 80.0227L284.654 79.5227V78.0227C293.154 77.0227 301.654 80.5227 300.154 66.5227L302.154 56.5227C302.154 55.0227 299.654 51.0227 297.154 50.5227C298.654 48.0227 295.654 39.0227 295.654 39.0227V37.5227L291.654 34.5227L286.654 33.0227L283.154 32.5227L278.154 34.5227Z" fill="#E0426F" stroke="black" stroke-width="0.5"/>
<path d="M281.154 27.0227L272.654 28.5227L283.154 32.5227C292.654 33.5227 291.653 35.0227 295.648 37.4429L295.154 29.0227L281.154 27.0227Z" fill="#E0426F"/>
<path d="M295.654 37.5227L295.648 37.4429M295.648 37.4429L295.154 29.0227L281.154 27.0227L272.654 28.5227L283.154 32.5227C292.654 33.5227 291.653 35.0227 295.648 37.4429Z" stroke="black" stroke-width="0.5"/>
<path d="M294.156 37.0229C293.656 34.5228 282.656 34.3227 277.156 34.8227" stroke="black" stroke-width="0.5"/>
<path d="M300.156 67.0227L260.656 69.0227C260.156 64.0227 257.99 59.856 256.156 58.0227L302.156 55.5227M300.656 53.0227C289.656 51.5227 278.656 46.7227 266.656 40.7227M228.656 31.0227L272.656 28.5227L281.156 27.0227" stroke="black" stroke-width="0.5"/>
<path d="M290.656 41.0227C290.656 39.0227 289.656 35.0227 286.156 33.0227C288.377 33.0227 291.754 34.0631 294.265 36.4327C294.729 37.9627 293.656 41.5227 290.614 43.0227C290.601 42.4324 290.656 41.747 290.656 41.0227Z" fill="#E0426F"/>
<path d="M272.656 43.5227C279.652 43.8725 285.669 43.9776 291.049 44.5227M297.656 45.5227C295.553 45.0721 293.36 44.7568 291.049 44.5227M295.656 38.0227C295.238 37.4376 294.769 36.9084 294.265 36.4327M291.049 44.5227C290.723 44.1779 290.629 43.6549 290.614 43.0227M290.614 43.0227C290.601 42.4324 290.656 41.747 290.656 41.0227C290.656 39.0227 289.656 35.0227 286.156 33.0227C288.377 33.0227 291.754 34.0631 294.265 36.4327M290.614 43.0227C293.656 41.5227 294.729 37.9627 294.265 36.4327" stroke="black" stroke-width="0.5"/>
<path d="M290.656 41.0227C286.156 41.0227 284.156 37.0227 283.156 34.5227" stroke="black" stroke-width="0.5"/>
<path d="M132.654 13.1227C119.154 17.1227 107.154 23.0227 93.1543 36.0227C100.154 24.0227 115.654 14.5227 131.154 9.52271L132.654 13.1227Z" fill="#E56E90" stroke="black" stroke-width="0.5"/>
<path d="M131.154 9.52271C111.154 15.1967 93.1543 32.5227 85.1543 30.5227C98.1543 21.0227 114.154 12.5227 130.654 8.02271L131.154 9.52271Z" fill="#E56E90" stroke="black" stroke-width="0.5"/>
<path d="M10.155 48.5227H4.15496C1.6543 52.5227 1.6543 62.5227 2.15496 66.0227C0.654297 67.0227 0.654894 71.5227 1.65496 73.0227L5.65496 73.5227V75.0227L1.65496 77.0227V79.0227C5.65496 80.0227 14.155 82.0227 22.155 81.5227V80.0227H39.655C38.9883 71.5227 40.655 61.0227 49.655 54.0227C47.155 50.0227 40.155 45.5227 37.155 45.0227C27.155 44.0227 12.155 46.5227 10.155 48.5227Z" fill="#E56E90" stroke="black" stroke-width="0.5"/>
<path d="M93.1562 36.0227C75.3229 36.856 43.6562 41.7227 33.1562 44.7227L37.1562 45.0227C42.1562 46.5227 47.6562 50.856 49.6562 54.0227C62.6553 44.5227 88.1553 51.5227 86.6553 79.0227H96.6553C89.6553 68.0227 90.6553 46.0227 93.1562 36.0227Z" fill="#E56E90" stroke="black" stroke-width="0.5"/>
<path d="M10.1543 48.5228H4.1543C36.6545 29.0227 58.6545 35.0227 84.6543 30.5227L93.6545 36.0227C76.6545 37.0227 47.6543 40.5227 33.6543 44.7227C25.6543 44.5227 11.6543 46.5227 10.1543 48.5228Z" fill="#E56E90" stroke="black" stroke-width="0.5"/>
<path d="M37.1558 45.0228C29.6558 44.0227 12.6558 46.0227 10.1558 48.5228C9.35575 50.9227 12.4891 53.856 14.1558 55.0227C23.6558 56.5227 37.1558 50.5227 37.1558 45.0228Z" fill="#E56E90" stroke="black" stroke-width="0.5"/>
<path d="M4.15499 48.5227C11.155 49.5227 5.15499 60.0227 2.15499 65.0227C1.65492 58.0227 2.15479 52.5227 4.15499 48.5227Z" fill="#E56E90" stroke="black" stroke-width="0.5"/>
<path d="M22.1543 84.5227V80.0227H39.6543L40.1543 84.5227H22.1543Z" fill="#E56E90" stroke="black" stroke-width="0.5"/>
<path d="M2.65625 66.0225C4.15625 68.5225 6.15625 71.6891 5.65625 73.5225M22.1562 80.0225C11.6562 80.5225 7.15625 76.5225 8.15625 73.0225C8.65625 72.5225 10.1562 71.0225 11.1562 71.0225" stroke="black" stroke-width="0.5"/>
<path d="M32.1562 75.0226C29.6562 71.0226 24.1562 66.0227 21.1562 64.5227C19.4062 64.0227 16.7811 64.1477 14.031 64.5227C12.4061 65.856 11.1562 69.0226 11.6562 72.0226C11.6562 73.1892 12.9637 75.5226 15.6562 75.5226C20.1562 75.5226 27.1562 76.0226 32.1562 75.0226Z" fill="#E56E90"/>
<path d="M6.15625 66.0227C8.40619 65.5226 11.2811 64.8977 14.031 64.5227M14.031 64.5227C16.7811 64.1477 19.4062 64.0227 21.1562 64.5227C24.1562 66.0227 29.6562 71.0226 32.1562 75.0226C27.1562 76.0226 20.1562 75.5226 15.6562 75.5226C12.9637 75.5226 11.6562 73.1892 11.6562 72.0226C11.1562 69.0226 12.4061 65.856 14.031 64.5227Z" stroke="black" stroke-width="0.5"/>
<path d="M11.6562 71.5227C19.6562 70.0227 23.1562 72.6512 26.1562 74.1512M13.1562 74.5227L30.6562 74.0227" stroke="black" stroke-width="0.5"/>
<path d="M22.1543 83.0225H31.6543C33.6543 83.0225 35.1543 81.0225 34.6543 80.0225M38.1543 80.0225V84.5225" stroke="black" stroke-width="0.5"/>
<path d="M22.1562 81.5229C17.6562 81.5229 13.1562 82.0229 1.6562 79.0229V77.0229L5.6562 75.0229V73.5229L1.6562 73.023C1.15527 71.5227 0.155469 68.5227 2.15546 66.0227C1.65571 58.0227 2.15571 51.5227 4.1562 48.5224C36.6562 29.0228 58.6562 35.0229 84.6562 30.5229C162.656 -24.4772 244.656 12.5227 281.656 27.0229L295.156 29.0227L295.656 36.0227V39.0227C297.155 44.0227 298.49 48.5227 297.156 50.5227C299.656 51.5227 302.156 54.6894 302.156 56.5227L300.156 66.5227C300.608 77.3706 298.2 77.5949 288.868 77.9073C287.877 77.9405 285.808 77.9747 284.656 78.0227V79.5227L259.656 79.9537M22.1562 81.5229V84.5229H40.1545L39.6562 80.0229M22.1562 81.5229V80.0229H39.6562M39.6562 80.0229C36.6562 38.5229 90.1562 41.5229 86.6562 80.5229V83.0227H213.156C207.156 39.5227 261.656 39.5227 259.656 79.9537M259.155 79.9537H259.656" stroke="black"/>
</svg>
