<svg width="303" height="95" viewBox="0 0 303 95" fill="none" xmlns="http://www.w3.org/2000/svg">
<circle cx="62.876" cy="73.6919" r="20.5" fill="#EFC7D3" stroke="black"/>
<circle cx="235.876" cy="73.6919" r="20.5" fill="#EFC7D3" stroke="black"/>
<path d="M132.874 12.1918L131.374 8.69175C171.374 0.691862 192.874 1.19189 231.874 12.6918L228.374 17.1918C208.374 9.1918 190.374 8.1918 174.374 7.69187C171.874 7.19187 167.874 7.19183 165.374 7.69175C155.374 7.69187 143.374 9.19187 132.874 12.1918Z" fill="#EFC7D3" stroke="black" stroke-width="0.5"/>
<path d="M131.374 8.69194L130.874 7.19194C166.874 -3.80811 199.374 0.191769 234.874 9.19194L231.874 12.6919C191.874 0.191895 165.874 1.69189 131.374 8.69194Z" fill="#EFC7D3" stroke="black" stroke-width="0.5"/>
<path d="M131.374 8.692C182.874 -2.80802 211.374 7.19202 231.874 12.692" stroke="black" stroke-width="0.5"/>
<path d="M170.876 29.6919L174.376 7.69189C207.876 8.69189 219.376 14.1919 223.876 15.6919L226.359 27.6919C199.369 27.6925 181.874 29.192 170.876 29.6919Z" fill="#EFC7D3"/>
<path d="M226.876 30.1919L223.876 15.6919C219.376 14.1919 207.876 8.69189 174.376 7.69189L170.876 29.6919C181.876 29.1919 199.376 27.6919 226.376 27.6919" stroke="black" stroke-width="0.5"/>
<path d="M165.376 7.69189C132.376 8.69189 112.376 17.6919 93.376 35.1919L95.876 33.1919L159.876 30.1919L165.376 7.69189Z" fill="#EFC7D3" stroke="black" stroke-width="0.5"/>
<path d="M239.874 22.1919C236.207 19.5252 230.374 17.1919 223.874 15.6919L226.374 27.6919H232.874C235.874 26.1919 238.874 23.9606 239.874 22.1919Z" fill="#EFC7D3" stroke="black" stroke-width="0.5"/>
<path d="M96.876 78.1919H163.876L198.376 76.6919H212.876L213.376 82.1919H199.376H98.376H86.876V78.1919H96.876Z" fill="#EFC7D3"/>
<path d="M96.876 78.1919H163.876L198.376 76.6919M96.876 78.1919C96.876 79.6919 97.376 80.6919 98.376 82.1919M96.876 78.1919H86.876V82.1919H98.376M198.376 76.6919L199.376 82.1919M198.376 76.6919H212.876L213.376 82.1919H199.376M199.376 82.1919H98.376" stroke="black" stroke-width="0.5"/>
<path d="M96.8751 78.1919C92.376 73.6919 89.376 51.6919 93.3751 35.1919L165.376 31.1919C161.376 36.1919 160.376 70.1919 163.876 78.1919H96.8751Z" fill="#EFC7D3" stroke="black" stroke-width="0.5"/>
<path d="M228.876 30.1919L165.376 31.1919C161.376 36.1919 160.376 70.1919 163.876 78.1919L198.376 76.6919C202.876 75.1919 209.376 69.6919 228.876 30.1919Z" fill="#EFC7D3" stroke="black" stroke-width="0.5"/>
<path d="M170.876 29.692C166.376 30.192 162.876 30.192 159.876 30.192L165.376 7.69197C168.376 7.19189 171.376 7.19189 174.376 7.69197L170.876 29.692Z" fill="#EFC7D3" stroke="black" stroke-width="0.5"/>
<path d="M99.376 31.6922C103.876 37.1922 110.876 33.6922 114.876 32.1922C115.876 16.692 102.876 24.692 99.376 31.6922Z" fill="#EFC7D3" stroke="black" stroke-width="0.5"/>
<path d="M234.874 9.19189L231.874 12.6919C248.874 18.1919 259.374 21.1919 271.874 27.6919H273.374L281.374 26.1919C266.374 19.6919 258.874 17.1919 234.874 9.19189Z" fill="#EDADBF" stroke="black" stroke-width="0.5"/>
<path d="M271.874 27.6919C261.374 22.1919 242.374 15.6919 231.874 12.6919L229.874 15.1919L244.874 22.6919C243.374 25.1919 239.374 27.1919 233.374 29.8919C245.374 29.1919 262.374 28.1919 271.874 27.6919Z" fill="#EDADBF" stroke="black" stroke-width="0.5"/>
<path d="M277.376 33.9919L283.374 31.6919L272.875 27.6919L228.875 30.1919C221.375 45.1919 206.375 75.6919 198.375 76.6919H212.875C211.375 65.6919 220.875 42.1919 245.876 51.1919C256.376 45.6919 266.376 40.1919 277.376 33.9919Z" fill="#EDADBF" stroke="black" stroke-width="0.5"/>
<path d="M278.374 33.6919C266.374 40.1919 256.374 45.6919 245.874 51.1919C250.374 54.1919 260.874 60.1919 259.874 79.1919L284.874 78.6919V77.1919C293.374 76.1919 301.874 79.6919 300.374 65.6919L302.374 55.6919C302.374 54.1919 299.874 50.1919 297.374 49.6919C298.874 47.1919 295.874 38.1919 295.874 38.1919V36.6919L291.874 33.6919L286.874 32.1919L283.374 31.6919L278.374 33.6919Z" fill="#EDADBF" stroke="black" stroke-width="0.5"/>
<path d="M281.374 26.1919L272.874 27.6919L283.374 31.6919C292.874 32.6919 291.873 34.1919 295.868 36.6121L295.374 28.1919L281.374 26.1919Z" fill="#EDADBF"/>
<path d="M295.874 36.6919L295.868 36.6121M295.868 36.6121L295.374 28.1919L281.374 26.1919L272.874 27.6919L283.374 31.6919C292.874 32.6919 291.873 34.1919 295.868 36.6121Z" stroke="black" stroke-width="0.5"/>
<path d="M294.376 36.1921C293.876 33.692 282.876 33.4919 277.376 33.9919" stroke="black" stroke-width="0.5"/>
<path d="M300.376 66.1919L260.876 68.1919C260.376 63.1919 258.209 59.0252 256.376 57.1919L302.376 54.6919M300.876 52.1919C289.876 50.6919 278.876 45.8919 266.876 39.8919M228.876 30.1919L272.876 27.6919L281.376 26.1919" stroke="black" stroke-width="0.5"/>
<path d="M290.876 40.1919C290.876 38.1919 289.876 34.1919 286.376 32.1919C288.597 32.1919 291.974 33.2323 294.485 35.6019C294.949 37.1319 293.876 40.6919 290.834 42.1919C290.821 41.6016 290.876 40.9162 290.876 40.1919Z" fill="#EDADBF"/>
<path d="M272.876 42.6919C279.872 43.0417 285.889 43.1468 291.269 43.6919M297.876 44.6919C295.773 44.2413 293.58 43.926 291.269 43.6919M295.876 37.1919C295.458 36.6068 294.989 36.0775 294.485 35.6019M291.269 43.6919C290.943 43.3471 290.849 42.8241 290.834 42.1919M290.834 42.1919C290.821 41.6016 290.876 40.9162 290.876 40.1919C290.876 38.1919 289.876 34.1919 286.376 32.1919C288.597 32.1919 291.974 33.2323 294.485 35.6019M290.834 42.1919C293.876 40.6919 294.949 37.1319 294.485 35.6019" stroke="black" stroke-width="0.5"/>
<path d="M290.876 40.1919C286.376 40.1919 284.376 36.1919 283.376 33.6919" stroke="black" stroke-width="0.5"/>
<path d="M132.874 12.2919C119.374 16.2919 107.374 22.1919 93.374 35.1919C100.374 23.1919 115.874 13.6919 131.374 8.69189L132.874 12.2919Z" fill="#E0426F" stroke="black" stroke-width="0.5"/>
<path d="M131.374 8.69189C111.374 14.3659 93.374 31.6919 85.374 29.6919C98.374 20.1919 114.374 11.6919 130.874 7.19189L131.374 8.69189Z" fill="#E0426F" stroke="black" stroke-width="0.5"/>
<path d="M10.3747 47.6918H4.37469C1.87402 51.6918 1.87402 61.6918 2.37469 65.1918C0.874023 66.1918 0.874621 70.6918 1.87469 72.1918L5.87469 72.6918V74.1918L1.87469 76.1918V78.1918C5.87469 79.1918 14.3747 81.1918 22.3747 80.6918V79.1918H39.8747C39.208 70.6918 40.8747 60.1918 49.8747 53.1918C47.3747 49.1918 40.3747 44.6918 37.3747 44.1918C27.3747 43.1918 12.3747 45.6918 10.3747 47.6918Z" fill="#E0426F" stroke="black" stroke-width="0.5"/>
<path d="M93.376 35.1919C75.5426 36.0252 43.876 40.8919 33.376 43.8919L37.376 44.1919C42.376 45.6919 47.876 50.0252 49.876 53.1919C62.875 43.6919 88.375 50.6919 86.875 78.1919H96.875C89.875 67.1919 90.875 45.1919 93.376 35.1919Z" fill="#E0426F" stroke="black" stroke-width="0.5"/>
<path d="M10.374 47.6919H4.37402C36.8742 28.1918 58.8743 34.1919 84.874 29.6919L93.8743 35.1919C76.8743 36.1919 47.874 39.6919 33.874 43.8919C25.874 43.6919 11.874 45.6919 10.374 47.6919Z" fill="#E0426F" stroke="black" stroke-width="0.5"/>
<path d="M37.3755 44.192C29.8755 43.1919 12.8755 45.1919 10.3755 47.692C9.57548 50.0919 12.7088 53.0252 14.3755 54.1919C23.8755 55.6919 37.3755 49.6919 37.3755 44.192Z" fill="#E0426F" stroke="black" stroke-width="0.5"/>
<path d="M4.37472 47.6919C11.3747 48.6919 5.37472 59.1919 2.37472 64.1919C1.87465 57.1919 2.37451 51.6919 4.37472 47.6919Z" fill="#E0426F" stroke="black" stroke-width="0.5"/>
<path d="M22.374 83.6919V79.1919H39.874L40.374 83.6919H22.374Z" fill="#E0426F" stroke="black" stroke-width="0.5"/>
<path d="M2.87598 65.1919C4.37598 67.6919 6.37598 70.8586 5.87598 72.6919M22.376 79.1919C11.876 79.6919 7.37598 75.6919 8.37598 72.1919C8.87598 71.6919 10.376 70.1919 11.376 70.1919" stroke="black" stroke-width="0.5"/>
<path d="M32.376 74.192C29.876 70.192 24.376 65.1921 21.376 63.6921C19.6259 63.1921 17.0008 63.3171 14.2508 63.6921C12.6258 65.0254 11.376 68.192 11.876 71.192C11.876 72.3587 13.1834 74.692 15.876 74.692C20.376 74.692 27.376 75.192 32.376 74.192Z" fill="#E0426F"/>
<path d="M6.37598 65.1921C8.62592 64.6921 11.5008 64.0671 14.2508 63.6921M14.2508 63.6921C17.0008 63.3171 19.6259 63.1921 21.376 63.6921C24.376 65.1921 29.876 70.192 32.376 74.192C27.376 75.192 20.376 74.692 15.876 74.692C13.1834 74.692 11.876 72.3587 11.876 71.192C11.376 68.192 12.6258 65.0254 14.2508 63.6921Z" stroke="black" stroke-width="0.5"/>
<path d="M11.876 70.6921C19.876 69.1921 23.376 71.8206 26.376 73.3206M13.376 73.6921L30.876 73.1921" stroke="black" stroke-width="0.5"/>
<path d="M22.374 82.1919H31.874C33.874 82.1919 35.374 80.1919 34.874 79.1919M38.374 79.1919V83.6919" stroke="black" stroke-width="0.5"/>
<path d="M22.3759 80.6921C17.8759 80.6921 13.3759 81.1921 1.87592 78.1921V76.1921L5.87592 74.1921V72.6921L1.87592 72.1921C1.375 70.6919 0.375196 67.6919 2.37519 65.1919C1.87543 57.1919 2.37543 50.6919 4.37592 47.6916C36.8759 28.192 58.8759 34.1921 84.8759 29.6921C162.876 -25.308 244.876 11.6919 281.876 26.1921L295.376 28.1919L295.876 35.1919V38.1919C297.374 43.1919 298.709 47.6919 297.376 49.6919C299.876 50.6919 302.376 53.8586 302.376 55.6919L300.376 65.6919C300.828 76.5398 298.42 76.7641 289.088 77.0765C288.097 77.1097 286.028 77.1439 284.876 77.1919V78.6919L259.876 79.1229M22.3759 80.6921V83.6921H40.3743L39.8759 79.1921M22.3759 80.6921V79.1921H39.8759M39.8759 79.1921C36.8759 37.6921 90.3759 40.6921 86.8759 79.6921V82.1919H213.376C207.376 38.6919 261.876 38.6919 259.876 79.1229M259.374 79.1229H259.876" stroke="black"/>
</svg>
