<svg width="303" height="96" viewBox="0 0 303 96" fill="none" xmlns="http://www.w3.org/2000/svg">
<circle cx="62.8652" cy="74.553" r="20.5" fill="#EFC7D3" stroke="black"/>
<circle cx="235.865" cy="74.553" r="20.5" fill="#EFC7D3" stroke="black"/>
<path d="M132.863 13.0528L131.363 9.55283C171.363 1.55295 192.863 2.05298 231.863 13.5529L228.363 18.0529C208.363 10.0529 190.363 9.05289 174.363 8.55296C171.863 8.05296 167.863 8.05292 165.363 8.55283C155.363 8.55296 143.363 10.053 132.863 13.0528Z" fill="#E0426F" stroke="black" stroke-width="0.5"/>
<path d="M131.363 9.55302L130.863 8.05302C166.863 -2.94702 199.363 1.05285 234.863 10.053L231.863 13.553C191.863 1.05298 165.863 2.55298 131.363 9.55302Z" fill="#E0426F" stroke="black" stroke-width="0.5"/>
<path d="M131.363 9.55284C182.863 -1.94718 211.363 8.05286 231.863 13.5528" stroke="black" stroke-width="0.5"/>
<path d="M170.865 30.553L174.365 8.55298C207.865 9.55298 219.365 15.053 223.865 16.553L226.348 28.553C199.358 28.5536 181.863 30.0531 170.865 30.553Z" fill="#E0426F"/>
<path d="M226.865 31.053L223.865 16.553C219.365 15.053 207.865 9.55298 174.365 8.55298L170.865 30.553C181.865 30.053 199.365 28.553 226.365 28.553" stroke="black" stroke-width="0.5"/>
<path d="M165.365 8.55298C132.365 9.55298 112.365 18.553 93.3652 36.053L95.8652 34.053L159.865 31.053L165.365 8.55298Z" fill="#E0426F" stroke="black" stroke-width="0.5"/>
<path d="M239.863 23.053C236.197 20.3863 230.363 18.053 223.863 16.553L226.363 28.553H232.863C235.863 27.053 238.863 24.8217 239.863 23.053Z" fill="#E0426F" stroke="black" stroke-width="0.5"/>
<path d="M96.8652 79.053H163.865L198.365 77.553H212.865L213.365 83.053H199.365H98.3652H86.8652V79.053H96.8652Z" fill="#E0426F"/>
<path d="M96.8652 79.053H163.865L198.365 77.553M96.8652 79.053C96.8652 80.553 97.3652 81.553 98.3652 83.053M96.8652 79.053H86.8652V83.053H98.3652M198.365 77.553L199.365 83.053M198.365 77.553H212.865L213.365 83.053H199.365M199.365 83.053H98.3652" stroke="black" stroke-width="0.5"/>
<path d="M96.8644 79.053C92.3652 74.553 89.3653 52.553 93.3644 36.053L165.365 32.053C161.365 37.053 160.365 71.053 163.865 79.053H96.8644Z" fill="#E0426F" stroke="black" stroke-width="0.5"/>
<path d="M228.865 31.053L165.365 32.053C161.365 37.053 160.365 71.053 163.865 79.053L198.365 77.553C202.865 76.053 209.365 70.553 228.865 31.053Z" fill="#E0426F" stroke="black" stroke-width="0.5"/>
<path d="M170.865 30.5531C166.365 31.0531 162.865 31.0531 159.865 31.0531L165.365 8.55305C168.365 8.05298 171.365 8.05298 174.365 8.55305L170.865 30.5531Z" fill="#E0426F" stroke="black" stroke-width="0.5"/>
<path d="M99.3652 32.553C103.865 38.053 110.865 34.553 114.865 33.053C115.865 17.5529 102.865 25.5529 99.3652 32.553Z" fill="#E0426F" stroke="black" stroke-width="0.5"/>
<path d="M234.863 10.053L231.863 13.553C248.863 19.053 259.363 22.053 271.863 28.553H273.363L281.363 27.053C266.363 20.553 258.863 18.053 234.863 10.053Z" fill="#E56E90" stroke="black" stroke-width="0.5"/>
<path d="M271.863 28.553C261.363 23.053 242.363 16.553 231.863 13.553L229.863 16.053L244.863 23.553C243.363 26.053 239.363 28.053 233.363 30.753C245.363 30.053 262.363 29.053 271.863 28.553Z" fill="#E56E90" stroke="black" stroke-width="0.5"/>
<path d="M277.365 34.853L283.364 32.553L272.864 28.553L228.864 31.053C221.364 46.053 206.364 76.553 198.364 77.553H212.864C211.364 66.553 220.864 43.053 245.865 52.053C256.365 46.553 266.365 41.053 277.365 34.853Z" fill="#E56E90" stroke="black" stroke-width="0.5"/>
<path d="M278.363 34.553C266.363 41.053 256.363 46.553 245.863 52.053C250.363 55.053 260.863 61.053 259.863 80.053L284.863 79.553V78.053C293.363 77.053 301.863 80.553 300.363 66.553L302.363 56.553C302.363 55.053 299.863 51.053 297.363 50.553C298.863 48.053 295.863 39.053 295.863 39.053V37.553L291.863 34.553L286.863 33.053L283.363 32.553L278.363 34.553Z" fill="#E56E90" stroke="black" stroke-width="0.5"/>
<path d="M281.363 27.053L272.863 28.553L283.363 32.553C292.863 33.553 291.862 35.053 295.857 37.4732L295.363 29.053L281.363 27.053Z" fill="#E56E90"/>
<path d="M295.863 37.553L295.857 37.4732M295.857 37.4732L295.363 29.053L281.363 27.053L272.863 28.553L283.363 32.553C292.863 33.553 291.862 35.053 295.857 37.4732Z" stroke="black" stroke-width="0.5"/>
<path d="M294.365 37.0532C293.865 34.5531 282.865 34.353 277.365 34.853" stroke="black" stroke-width="0.5"/>
<path d="M300.365 67.053L260.865 69.053C260.365 64.053 258.199 59.8863 256.365 58.053L302.365 55.553M300.865 53.053C289.865 51.553 278.865 46.753 266.865 40.753M228.865 31.053L272.865 28.553L281.365 27.053" stroke="black" stroke-width="0.5"/>
<path d="M290.865 41.053C290.865 39.053 289.865 35.053 286.365 33.053C288.586 33.053 291.963 34.0934 294.474 36.463C294.938 37.993 293.865 41.553 290.823 43.053C290.81 42.4627 290.865 41.7773 290.865 41.053Z" fill="#E56E90"/>
<path d="M272.865 43.553C279.861 43.9028 285.878 44.0079 291.258 44.553M297.865 45.553C295.762 45.1023 293.569 44.7871 291.258 44.553M295.865 38.053C295.447 37.4679 294.978 36.9386 294.474 36.463M291.258 44.553C290.932 44.2082 290.838 43.6852 290.823 43.053M290.823 43.053C290.81 42.4627 290.865 41.7773 290.865 41.053C290.865 39.053 289.865 35.053 286.365 33.053C288.586 33.053 291.963 34.0934 294.474 36.463M290.823 43.053C293.865 41.553 294.938 37.993 294.474 36.463" stroke="black" stroke-width="0.5"/>
<path d="M290.865 41.053C286.365 41.053 284.365 37.053 283.365 34.553" stroke="black" stroke-width="0.5"/>
<path d="M132.863 13.153C119.363 17.153 107.363 23.053 93.3633 36.053C100.363 24.053 115.863 14.553 131.363 9.55298L132.863 13.153Z" stroke="black" stroke-width="0.5"/>
<path d="M131.363 9.55298C111.363 15.227 93.3633 32.553 85.3633 30.553C98.3633 21.053 114.363 12.553 130.863 8.05298L131.363 9.55298Z" stroke="black" stroke-width="0.5"/>
<path d="M10.3639 48.5529H4.36395C1.86328 52.5529 1.86328 62.5529 2.36395 66.0529C0.863281 67.0529 0.863879 71.5529 1.86395 73.0529L5.86395 73.5529V75.0529L1.86395 77.0529V79.0529C5.86395 80.0529 14.3639 82.0529 22.3639 81.5529V80.0529H39.8639C39.1973 71.5529 40.8639 61.0529 49.8639 54.0529C47.3639 50.0529 40.3639 45.5529 37.3639 45.0529C27.3639 44.0529 12.3639 46.5529 10.3639 48.5529Z" stroke="black" stroke-width="0.5"/>
<path d="M93.3652 36.053C75.5319 36.8863 43.8652 41.753 33.3652 44.753L37.3652 45.053C42.3652 46.553 47.8652 50.8863 49.8652 54.053C62.8643 44.553 88.3643 51.553 86.8643 79.053H96.8643C89.8643 68.053 90.8643 46.053 93.3652 36.053Z" stroke="black" stroke-width="0.5"/>
<path d="M10.3633 48.553H4.36328C36.8635 29.0529 58.8635 35.053 84.8633 30.553L93.8635 36.053C76.8635 37.053 47.8633 40.553 33.8633 44.753C25.8633 44.553 11.8633 46.553 10.3633 48.553Z" stroke="black" stroke-width="0.5"/>
<path d="M37.3647 45.0531C29.8647 44.053 12.8647 46.053 10.3647 48.5531C9.56474 50.953 12.6981 53.8863 14.3647 55.053C23.8647 56.553 37.3647 50.553 37.3647 45.0531Z" stroke="black" stroke-width="0.5"/>
<path d="M4.36398 48.553C11.364 49.553 5.36398 60.053 2.36398 65.053C1.86391 58.053 2.36377 52.553 4.36398 48.553Z" stroke="black" stroke-width="0.5"/>
<path d="M22.3633 84.553V80.053H39.8633L40.3633 84.553H22.3633Z" stroke="black" stroke-width="0.5"/>
<path d="M2.86523 66.0527C4.36523 68.5527 6.36523 71.7194 5.86523 73.5527M22.3652 80.0527C11.8652 80.5527 7.36523 76.5527 8.36523 73.0527C8.86523 72.5527 10.3652 71.0527 11.3652 71.0527" stroke="black" stroke-width="0.5"/>
<path d="M6.36523 66.0529C8.61518 65.5529 11.4901 64.9279 14.24 64.5529M14.24 64.5529C16.9901 64.1779 19.6152 64.0529 21.3652 64.5529C24.3652 66.0529 29.8652 71.0529 32.3652 75.0529C27.3652 76.0529 20.3652 75.5529 15.8652 75.5529C13.1727 75.5529 11.8652 73.2195 11.8652 72.0529C11.3652 69.0529 12.6151 65.8862 14.24 64.5529Z" stroke="black" stroke-width="0.5"/>
<path d="M11.8652 71.5529C19.8652 70.053 23.3652 72.6815 26.3652 74.1815M13.3652 74.553L30.8652 74.053" stroke="black" stroke-width="0.5"/>
<path d="M22.3633 83.0527H31.8633C33.8633 83.0527 35.3633 81.0527 34.8633 80.0527M38.3633 80.0527V84.5527" stroke="black" stroke-width="0.5"/>
<path d="M22.3652 81.5532C17.8652 81.5532 13.3652 82.0532 1.86518 79.0532V77.0532L5.86518 75.0532V73.5532L1.86518 73.0532C1.36426 71.553 0.364454 68.553 2.36445 66.053C1.86469 58.053 2.36469 51.553 4.36518 48.5527C36.8652 29.0531 58.8652 35.0532 84.8652 30.5532C162.865 -24.4469 244.865 12.553 281.865 27.0532L295.365 29.053L295.865 36.053V39.053C297.364 44.053 298.699 48.553 297.365 50.553C299.865 51.553 302.365 54.7196 302.365 56.553L300.365 66.553C300.817 77.4009 298.409 77.6252 289.077 77.9376C288.086 77.9708 286.017 78.005 284.865 78.053V79.553L259.865 79.984M22.3652 81.5532V84.5532H40.3635L39.8652 80.0532M22.3652 81.5532V80.0532H39.8652M39.8652 80.0532C36.8652 38.5532 90.3652 41.5532 86.8652 80.5532V83.053H213.365C207.365 39.553 261.865 39.553 259.865 79.984M259.364 79.984H259.865" stroke="black"/>
</svg>
