<svg width="303" height="96" viewBox="0 0 303 96" fill="none" xmlns="http://www.w3.org/2000/svg">
<circle cx="62.6772" cy="74.3838" r="20.5" stroke="black"/>
<circle cx="235.678" cy="74.3838" r="20.5" stroke="black"/>
<path d="M132.676 12.8836L131.176 9.38364C171.176 1.38376 192.676 1.88379 231.676 13.3837L228.176 17.8837C208.176 9.8837 190.176 8.8837 174.176 8.38377C171.676 7.88377 167.676 7.88373 165.176 8.38364C155.176 8.38377 143.176 9.88377 132.676 12.8836Z" fill="#E56E90" stroke="black" stroke-width="0.5"/>
<path d="M131.176 9.38383L130.676 7.88383C166.676 -3.11621 199.176 0.883663 234.676 9.88383L231.676 13.3838C191.676 0.883789 165.676 2.38379 131.176 9.38383Z" fill="#E56E90" stroke="black" stroke-width="0.5"/>
<path d="M131.176 9.3839C182.676 -2.11613 211.176 7.88391 231.676 13.3839" stroke="black" stroke-width="0.5"/>
<path d="M170.677 30.3838L174.177 8.38379C207.677 9.38379 219.177 14.8838 223.677 16.3838L226.16 28.3838C199.17 28.3844 181.675 29.8839 170.677 30.3838Z" fill="#E56E90"/>
<path d="M226.677 30.8838L223.677 16.3838C219.177 14.8838 207.677 9.38379 174.177 8.38379L170.677 30.3838C181.677 29.8838 199.177 28.3838 226.177 28.3838" stroke="black" stroke-width="0.5"/>
<path d="M165.177 8.38379C132.177 9.38379 112.177 18.3838 93.1772 35.8838L95.6772 33.8838L159.677 30.8838L165.177 8.38379Z" fill="#E56E90" stroke="black" stroke-width="0.5"/>
<path d="M239.676 22.8838C236.009 20.2171 230.176 17.8838 223.676 16.3838L226.176 28.3838H232.676C235.676 26.8838 238.676 24.6525 239.676 22.8838Z" fill="#E56E90" stroke="black" stroke-width="0.5"/>
<path d="M96.6772 78.8838H163.677L198.177 77.3838H212.677L213.177 82.8838H199.177H98.1772H86.6772V78.8838H96.6772Z" fill="#E56E90"/>
<path d="M96.6772 78.8838H163.677L198.177 77.3838M96.6772 78.8838C96.6772 80.3838 97.1772 81.3838 98.1772 82.8838M96.6772 78.8838H86.6772V82.8838H98.1772M198.177 77.3838L199.177 82.8838M198.177 77.3838H212.677L213.177 82.8838H199.177M199.177 82.8838H98.1772" stroke="black" stroke-width="0.5"/>
<path d="M96.6764 78.8838C92.1772 74.3838 89.1773 52.3838 93.1764 35.8838L165.177 31.8838C161.177 36.8838 160.177 70.8838 163.677 78.8838H96.6764Z" fill="#E56E90" stroke="black" stroke-width="0.5"/>
<path d="M228.677 30.8838L165.177 31.8838C161.177 36.8838 160.177 70.8838 163.677 78.8838L198.177 77.3838C202.677 75.8838 209.177 70.3838 228.677 30.8838Z" fill="#E56E90" stroke="black" stroke-width="0.5"/>
<path d="M170.677 30.3839C166.177 30.8839 162.677 30.8839 159.677 30.8839L165.177 8.38386C168.177 7.88379 171.177 7.88379 174.177 8.38386L170.677 30.3839Z" fill="#E56E90" stroke="black" stroke-width="0.5"/>
<path d="M99.1772 32.384C103.677 37.884 110.677 34.384 114.677 32.884C115.677 17.3839 102.677 25.3839 99.1772 32.384Z" fill="#E56E90" stroke="black" stroke-width="0.5"/>
<path d="M234.676 9.88379L231.676 13.3838C248.676 18.8838 259.176 21.8838 271.676 28.3838H273.176L281.176 26.8838C266.176 20.3838 258.676 17.8838 234.676 9.88379Z" fill="#EDADBF" stroke="black" stroke-width="0.5"/>
<path d="M271.676 28.3838C261.176 22.8838 242.176 16.3838 231.676 13.3838L229.676 15.8838L244.676 23.3838C243.176 25.8838 239.176 27.8838 233.176 30.5838C245.176 29.8838 262.176 28.8838 271.676 28.3838Z" fill="#EDADBF" stroke="black" stroke-width="0.5"/>
<path d="M277.178 34.6838L283.176 32.3838L272.677 28.3838L228.677 30.8838C221.177 45.8838 206.177 76.3838 198.177 77.3838H212.677C211.177 66.3838 220.677 42.8838 245.678 51.8838C256.178 46.3838 266.178 40.8838 277.178 34.6838Z" fill="#EDADBF" stroke="black" stroke-width="0.5"/>
<path d="M278.176 34.3838C266.176 40.8838 256.176 46.3838 245.676 51.8838C250.176 54.8838 260.676 60.8838 259.676 79.8838L284.676 79.3838V77.8838C293.176 76.8838 301.676 80.3838 300.176 66.3838L302.176 56.3838C302.176 54.8838 299.676 50.8838 297.176 50.3838C298.676 47.8838 295.676 38.8838 295.676 38.8838V37.3838L291.676 34.3838L286.676 32.8838L283.176 32.3838L278.176 34.3838Z" fill="#EDADBF" stroke="black" stroke-width="0.5"/>
<path d="M281.176 26.8838L272.676 28.3838L283.176 32.3838C292.676 33.3838 291.675 34.8838 295.67 37.304L295.176 28.8838L281.176 26.8838Z" fill="#EDADBF"/>
<path d="M295.676 37.3838L295.67 37.304M295.67 37.304L295.176 28.8838L281.176 26.8838L272.676 28.3838L283.176 32.3838C292.676 33.3838 291.675 34.8838 295.67 37.304Z" stroke="black" stroke-width="0.5"/>
<path d="M294.178 36.884C293.678 34.3839 282.678 34.1838 277.178 34.6838" stroke="black" stroke-width="0.5"/>
<path d="M300.178 66.8838L260.678 68.8838C260.178 63.8838 258.011 59.7171 256.178 57.8838L302.178 55.3838M300.678 52.8838C289.678 51.3838 278.678 46.5838 266.678 40.5838M228.678 30.8838L272.678 28.3838L281.178 26.8838" stroke="black" stroke-width="0.5"/>
<path d="M290.678 40.8838C290.678 38.8838 289.678 34.8838 286.178 32.8838C288.399 32.8838 291.775 33.9242 294.287 36.2938C294.75 37.8238 293.678 41.3838 290.636 42.8838C290.622 42.2935 290.678 41.6081 290.678 40.8838Z" fill="#EDADBF"/>
<path d="M272.678 43.3838C279.673 43.7336 285.69 43.8387 291.071 44.3838M297.678 45.3838C295.575 44.9331 293.381 44.6179 291.071 44.3838M295.678 37.8838C295.26 37.2987 294.791 36.7694 294.287 36.2938M291.071 44.3838C290.745 44.039 290.651 43.516 290.636 42.8838M290.636 42.8838C290.622 42.2935 290.678 41.6081 290.678 40.8838C290.678 38.8838 289.678 34.8838 286.178 32.8838C288.399 32.8838 291.775 33.9242 294.287 36.2938M290.636 42.8838C293.678 41.3838 294.75 37.8238 294.287 36.2938" stroke="black" stroke-width="0.5"/>
<path d="M290.678 40.8838C286.178 40.8838 284.178 36.8838 283.178 34.3838" stroke="black" stroke-width="0.5"/>
<path d="M132.676 12.9838C119.176 16.9838 107.176 22.8838 93.1758 35.8838C100.176 23.8838 115.676 14.3838 131.176 9.38379L132.676 12.9838Z" fill="#E0426F" stroke="black" stroke-width="0.5"/>
<path d="M131.176 9.38379C111.176 15.0578 93.1758 32.3838 85.1758 30.3838C98.1758 20.8838 114.176 12.3838 130.676 7.88379L131.176 9.38379Z" fill="#E0426F" stroke="black" stroke-width="0.5"/>
<path d="M10.1764 48.3837H4.17645C1.67578 52.3837 1.67578 62.3837 2.17645 65.8837C0.675781 66.8837 0.676379 71.3837 1.67645 72.8837L5.67645 73.3837V74.8837L1.67645 76.8837V78.8837C5.67645 79.8837 14.1764 81.8837 22.1764 81.3837V79.8837H39.6764C39.0098 71.3837 40.6764 60.8837 49.6764 53.8837C47.1764 49.8837 40.1764 45.3837 37.1764 44.8837C27.1764 43.8837 12.1764 46.3837 10.1764 48.3837Z" fill="#E0426F" stroke="black" stroke-width="0.5"/>
<path d="M93.1772 35.8838C75.3439 36.7171 43.6772 41.5838 33.1772 44.5838L37.1772 44.8838C42.1772 46.3838 47.6772 50.7171 49.6772 53.8838C62.6763 44.3838 88.1763 51.3838 86.6763 78.8838H96.6763C89.6763 67.8838 90.6763 45.8838 93.1772 35.8838Z" fill="#E0426F" stroke="black" stroke-width="0.5"/>
<path d="M10.1758 48.3838H4.17578C36.676 28.8837 58.676 34.8838 84.6758 30.3838L93.676 35.8838C76.676 36.8838 47.6758 40.3838 33.6758 44.5838C25.6758 44.3838 11.6758 46.3838 10.1758 48.3838Z" fill="#E0426F" stroke="black" stroke-width="0.5"/>
<path d="M37.1772 44.8839C29.6772 43.8838 12.6772 45.8838 10.1772 48.3839C9.37724 50.7838 12.5106 53.7171 14.1772 54.8838C23.6772 56.3838 37.1772 50.3838 37.1772 44.8839Z" fill="#E0426F" stroke="black" stroke-width="0.5"/>
<path d="M4.17648 48.3838C11.1765 49.3838 5.17648 59.8838 2.17648 64.8838C1.67641 57.8838 2.17627 52.3838 4.17648 48.3838Z" fill="#E0426F" stroke="black" stroke-width="0.5"/>
<path d="M22.1758 84.3838V79.8838H39.6758L40.1758 84.3838H22.1758Z" fill="#E0426F" stroke="black" stroke-width="0.5"/>
<path d="M2.67773 65.8838C4.17773 68.3838 6.17773 71.5505 5.67773 73.3838M22.1777 79.8838C11.6777 80.3838 7.17773 76.3838 8.17773 72.8838C8.67773 72.3838 10.1777 70.8838 11.1777 70.8838" stroke="black" stroke-width="0.5"/>
<path d="M32.1777 74.8839C29.6777 70.8839 24.1777 65.884 21.1777 64.384C19.4277 63.884 16.8026 64.009 14.0525 64.384C12.4276 65.7173 11.1777 68.8839 11.6777 71.8839C11.6777 73.0506 12.9852 75.3839 15.6777 75.3839C20.1777 75.3839 27.1777 75.8839 32.1777 74.8839Z" fill="#E0426F"/>
<path d="M6.17773 65.884C8.42768 65.384 11.3026 64.759 14.0525 64.384M14.0525 64.384C16.8026 64.009 19.4277 63.884 21.1777 64.384C24.1777 65.884 29.6777 70.8839 32.1777 74.8839C27.1777 75.8839 20.1777 75.3839 15.6777 75.3839C12.9852 75.3839 11.6777 73.0506 11.6777 71.8839C11.1777 68.8839 12.4276 65.7173 14.0525 64.384Z" stroke="black" stroke-width="0.5"/>
<path d="M11.6777 71.384C19.6777 69.884 23.1777 72.5125 26.1777 74.0125M13.1777 74.384L30.6777 73.884" stroke="black" stroke-width="0.5"/>
<path d="M22.1758 82.8838H31.6758C33.6758 82.8838 35.1758 80.8838 34.6758 79.8838M38.1758 79.8838V84.3838" stroke="black" stroke-width="0.5"/>
<path d="M22.1772 81.384C17.6772 81.384 13.1772 81.884 1.67719 78.884V76.884L5.67719 74.884V73.384L1.67719 72.884C1.17627 71.3838 0.176465 68.3838 2.17646 65.8838C1.6767 57.8838 2.1767 51.3838 4.17719 48.3835C36.6772 28.8839 58.6772 34.884 84.6772 30.384C162.677 -24.6161 244.677 12.3838 281.677 26.884L295.177 28.8838L295.677 35.8838V38.8838C297.176 43.8838 298.511 48.3838 297.177 50.3838C299.677 51.3838 302.177 54.5505 302.177 56.3838L300.177 66.3838C300.629 77.2317 298.221 77.456 288.889 77.7684C287.898 77.8016 285.829 77.8358 284.677 77.8838V79.3838L259.677 79.8148M22.1772 81.384V84.384H40.1755L39.6772 79.884M22.1772 81.384V79.884H39.6772M39.6772 79.884C36.6772 38.384 90.1772 41.384 86.6772 80.384V82.8838H213.177C207.177 39.3838 261.677 39.3838 259.677 79.8148M259.176 79.8148H259.677" stroke="black"/>
</svg>
