<svg width="303" height="96" viewBox="0 0 303 96" fill="none" xmlns="http://www.w3.org/2000/svg">
<circle cx="62.8955" cy="74.553" r="20.5" fill="#EFC7D3" stroke="black"/>
<circle cx="235.896" cy="74.553" r="20.5" fill="#EFC7D3" stroke="black"/>
<path d="M132.894 13.0528L131.394 9.55283C171.394 1.55295 192.894 2.05298 231.894 13.5529L228.394 18.0529C208.394 10.0529 190.394 9.05289 174.394 8.55296C171.894 8.05296 167.894 8.05292 165.394 8.55283C155.394 8.55296 143.394 10.053 132.894 13.0528Z" fill="#E0426F" stroke="black" stroke-width="0.5"/>
<path d="M131.394 9.55302L130.894 8.05302C166.894 -2.94702 199.394 1.05285 234.894 10.053L231.894 13.553C191.894 1.05298 165.894 2.55298 131.394 9.55302Z" fill="#E0426F" stroke="black" stroke-width="0.5"/>
<path d="M131.394 9.55284C182.894 -1.94718 211.394 8.05286 231.894 13.5528" stroke="black" stroke-width="0.5"/>
<path d="M170.896 30.553L174.396 8.55298C207.896 9.55298 219.396 15.053 223.896 16.553L226.378 28.553C199.388 28.5536 181.893 30.0531 170.896 30.553Z" fill="#E0426F"/>
<path d="M226.896 31.053L223.896 16.553C219.396 15.053 207.896 9.55298 174.396 8.55298L170.896 30.553C181.896 30.053 199.396 28.553 226.396 28.553" stroke="black" stroke-width="0.5"/>
<path d="M165.396 8.55298C132.396 9.55298 112.396 18.553 93.3955 36.053L95.8955 34.053L159.896 31.053L165.396 8.55298Z" fill="#E0426F" stroke="black" stroke-width="0.5"/>
<path d="M239.894 23.053C236.227 20.3863 230.394 18.053 223.894 16.553L226.394 28.553H232.894C235.894 27.053 238.894 24.8217 239.894 23.053Z" fill="#E0426F" stroke="black" stroke-width="0.5"/>
<path d="M96.8955 79.053H163.896L198.396 77.553H212.896L213.396 83.053H199.396H98.3955H86.8955V79.053H96.8955Z" fill="#E0426F"/>
<path d="M96.8955 79.053H163.896L198.396 77.553M96.8955 79.053C96.8955 80.553 97.3955 81.553 98.3955 83.053M96.8955 79.053H86.8955V83.053H98.3955M198.396 77.553L199.396 83.053M198.396 77.553H212.896L213.396 83.053H199.396M199.396 83.053H98.3955" stroke="black" stroke-width="0.5"/>
<path d="M96.8946 79.053C92.3955 74.553 89.3956 52.553 93.3946 36.053L165.396 32.053C161.396 37.053 160.396 71.053 163.896 79.053H96.8946Z" fill="#E0426F" stroke="black" stroke-width="0.5"/>
<path d="M228.895 31.053L165.395 32.053C161.396 37.053 160.396 71.053 163.895 79.053L198.395 77.553C202.895 76.053 209.395 70.553 228.895 31.053Z" fill="#E0426F" stroke="black" stroke-width="0.5"/>
<path d="M170.896 30.5531C166.396 31.0531 162.896 31.0531 159.896 31.0531L165.396 8.55305C168.396 8.05298 171.396 8.05298 174.396 8.55305L170.896 30.5531Z" fill="#E0426F" stroke="black" stroke-width="0.5"/>
<path d="M99.3955 32.553C103.896 38.053 110.896 34.553 114.896 33.053C115.896 17.5529 102.896 25.5529 99.3955 32.553Z" fill="#E0426F" stroke="black" stroke-width="0.5"/>
<path d="M234.894 10.053L231.894 13.553C248.894 19.053 259.394 22.053 271.894 28.553H273.394L281.394 27.053C266.394 20.553 258.894 18.053 234.894 10.053Z" stroke="black" stroke-width="0.5"/>
<path d="M271.894 28.553C261.394 23.053 242.394 16.553 231.894 13.553L229.894 16.053L244.894 23.553C243.394 26.053 239.394 28.053 233.394 30.753C245.394 30.053 262.394 29.053 271.894 28.553Z" stroke="black" stroke-width="0.5"/>
<path d="M277.396 34.853L283.394 32.553L272.895 28.553L228.895 31.053C221.395 46.053 206.395 76.553 198.395 77.553H212.895C211.395 66.553 220.895 43.053 245.896 52.053C256.396 46.553 266.396 41.053 277.396 34.853Z" stroke="black" stroke-width="0.5"/>
<path d="M278.394 34.553C266.394 41.053 256.394 46.553 245.894 52.053C250.394 55.053 260.894 61.053 259.894 80.053L284.894 79.553V78.053C293.394 77.053 301.894 80.553 300.394 66.553L302.394 56.553C302.394 55.053 299.894 51.053 297.394 50.553C298.894 48.053 295.894 39.053 295.894 39.053V37.553L291.894 34.553L286.894 33.053L283.394 32.553L278.394 34.553Z" stroke="black" stroke-width="0.5"/>
<path d="M295.894 37.553L295.888 37.4732M295.888 37.4732L295.394 29.053L281.394 27.053L272.894 28.553L283.394 32.553C292.894 33.553 291.892 35.053 295.888 37.4732Z" stroke="black" stroke-width="0.5"/>
<path d="M294.396 37.0532C293.896 34.5531 282.896 34.353 277.396 34.853" stroke="black" stroke-width="0.5"/>
<path d="M300.396 67.053L260.896 69.053C260.396 64.053 258.229 59.8863 256.396 58.053L302.396 55.553M300.896 53.053C289.896 51.553 278.896 46.753 266.896 40.753M228.896 31.053L272.896 28.553L281.396 27.053" stroke="black" stroke-width="0.5"/>
<path d="M272.896 43.553C279.891 43.9028 285.908 44.0079 291.289 44.553M297.896 45.553C295.793 45.1023 293.599 44.7871 291.289 44.553M295.896 38.053C295.478 37.4679 295.008 36.9386 294.504 36.463M291.289 44.553C290.962 44.2082 290.868 43.6852 290.854 43.053M290.854 43.053C290.84 42.4627 290.896 41.7773 290.896 41.053C290.896 39.053 289.896 35.053 286.396 33.053C288.616 33.053 291.993 34.0934 294.504 36.463M290.854 43.053C293.896 41.553 294.968 37.993 294.504 36.463" stroke="black" stroke-width="0.5"/>
<path d="M290.896 41.053C286.396 41.053 284.396 37.053 283.396 34.553" stroke="black" stroke-width="0.5"/>
<path d="M132.894 13.153C119.394 17.153 107.394 23.053 93.394 36.053C100.394 24.053 115.894 14.553 131.394 9.55298L132.894 13.153Z" stroke="black" stroke-width="0.5"/>
<path d="M131.394 9.55298C111.394 15.227 93.394 32.553 85.394 30.553C98.394 21.053 114.394 12.553 130.894 8.05298L131.394 9.55298Z" stroke="black" stroke-width="0.5"/>
<path d="M10.3947 48.5529H4.39471C1.89404 52.5529 1.89404 62.5529 2.39471 66.0529C0.894043 67.0529 0.89464 71.5529 1.89471 73.0529L5.89471 73.5529V75.0529L1.89471 77.0529V79.0529C5.89471 80.0529 14.3947 82.0529 22.3947 81.5529V80.0529H39.8947C39.228 71.5529 40.8947 61.0529 49.8947 54.0529C47.3947 50.0529 40.3947 45.5529 37.3947 45.0529C27.3947 44.0529 12.3947 46.5529 10.3947 48.5529Z" stroke="black" stroke-width="0.5"/>
<path d="M93.3955 36.053C75.5622 36.8863 43.8955 41.753 33.3955 44.753L37.3955 45.053C42.3955 46.553 47.8955 50.8863 49.8955 54.053C62.8945 44.553 88.3945 51.553 86.8945 79.053H96.8945C89.8945 68.053 90.8945 46.053 93.3955 36.053Z" stroke="black" stroke-width="0.5"/>
<path d="M10.3936 48.553H4.39355C36.8937 29.0529 58.8938 35.053 84.8936 30.553L93.8938 36.053C76.8938 37.053 47.8936 40.553 33.8936 44.753C25.8936 44.553 11.8936 46.553 10.3936 48.553Z" stroke="black" stroke-width="0.5"/>
<path d="M37.3955 45.0531C29.8955 44.053 12.8955 46.053 10.3955 48.5531C9.5955 50.953 12.7288 53.8863 14.3955 55.053C23.8955 56.553 37.3955 50.553 37.3955 45.0531Z" stroke="black" stroke-width="0.5"/>
<path d="M4.39474 48.553C11.3947 49.553 5.39474 60.053 2.39474 65.053C1.89467 58.053 2.39453 52.553 4.39474 48.553Z" stroke="black" stroke-width="0.5"/>
<path d="M22.394 84.553V80.053H39.894L40.394 84.553H22.394Z" stroke="black" stroke-width="0.5"/>
<path d="M2.89551 66.0527C4.39551 68.5527 6.39551 71.7194 5.89551 73.5527M22.3955 80.0527C11.8955 80.5527 7.39551 76.5527 8.39551 73.0527C8.89551 72.5527 10.3955 71.0527 11.3955 71.0527" stroke="black" stroke-width="0.5"/>
<path d="M6.39551 66.0529C8.64545 65.5529 11.5204 64.9279 14.2703 64.5529M14.2703 64.5529C17.0204 64.1779 19.6455 64.0529 21.3955 64.5529C24.3955 66.0529 29.8955 71.0529 32.3955 75.0529C27.3955 76.0529 20.3955 75.5529 15.8955 75.5529C13.2029 75.5529 11.8955 73.2195 11.8955 72.0529C11.3955 69.0529 12.6454 65.8862 14.2703 64.5529Z" stroke="black" stroke-width="0.5"/>
<path d="M11.8955 71.5529C19.8955 70.053 23.3955 72.6815 26.3955 74.1815M13.3955 74.553L30.8955 74.053" stroke="black" stroke-width="0.5"/>
<path d="M22.3936 83.0527H31.8936C33.8936 83.0527 35.3936 81.0527 34.8936 80.0527M38.3936 80.0527V84.5527" stroke="black" stroke-width="0.5"/>
<path d="M22.3955 81.5532C17.8955 81.5532 13.3955 82.0532 1.89545 79.0532V77.0532L5.89545 75.0532V73.5532L1.89545 73.0532C1.39453 71.553 0.394727 68.553 2.39472 66.053C1.89497 58.053 2.39497 51.553 4.39545 48.5527C36.8955 29.0531 58.8954 35.0532 84.8954 30.5532C162.895 -24.4469 244.895 12.553 281.895 27.0532L295.395 29.053L295.895 36.053V39.053C297.394 44.053 298.729 48.553 297.395 50.553C299.895 51.553 302.395 54.7196 302.395 56.553L300.395 66.553C300.847 77.4009 298.439 77.6252 289.108 77.9376C288.117 77.9708 286.048 78.005 284.895 78.053V79.553L259.895 79.984M22.3955 81.5532V84.5532H40.3938L39.8955 80.0532M22.3955 81.5532V80.0532H39.8955M39.8955 80.0532C36.8955 38.5532 90.3954 41.5532 86.8954 80.5532V83.053H213.395C207.395 39.553 261.895 39.553 259.895 79.984M259.394 79.984H259.895" stroke="black"/>
</svg>
