<svg width="303" height="95" viewBox="0 0 303 95" fill="none" xmlns="http://www.w3.org/2000/svg">
<circle cx="62.2817" cy="73.8914" r="20.5" fill="#E56E90" stroke="black"/>
<circle cx="235.282" cy="73.8914" r="20.5" fill="#E56E90" stroke="black"/>
<path d="M132.28 12.3912L130.78 8.89121C170.78 0.891325 192.28 1.39136 231.28 12.8913L227.78 17.3913C207.78 9.39127 189.78 8.39127 173.78 7.89133C171.28 7.39133 167.28 7.3913 164.78 7.89121C154.78 7.89133 142.78 9.39134 132.28 12.3912Z" fill="#E0426F" stroke="black" stroke-width="0.5"/>
<path d="M130.78 8.8914L130.28 7.3914C166.28 -3.60864 198.78 0.391232 234.28 9.3914L231.28 12.8914C191.28 0.391357 165.28 1.89136 130.78 8.8914Z" fill="#E0426F" stroke="black" stroke-width="0.5"/>
<path d="M130.78 8.89122C182.28 -2.6088 210.78 7.39124 231.28 12.8912" stroke="black" stroke-width="0.5"/>
<path d="M170.282 29.8914L173.782 7.89136C207.282 8.89136 218.782 14.3914 223.282 15.8914L225.764 27.8914C198.774 27.892 181.279 29.3915 170.282 29.8914Z" fill="#E0426F"/>
<path d="M226.282 30.3914L223.282 15.8914C218.782 14.3914 207.282 8.89136 173.782 7.89136L170.282 29.8914C181.282 29.3914 198.782 27.8914 225.782 27.8914" stroke="black" stroke-width="0.5"/>
<path d="M164.782 7.89136C131.782 8.89136 111.782 17.8914 92.7817 35.3914L95.2817 33.3914L159.282 30.3914L164.782 7.89136Z" fill="#E0426F" stroke="black" stroke-width="0.5"/>
<path d="M239.28 22.3914C235.614 19.7247 229.78 17.3914 223.28 15.8914L225.78 27.8914H232.28C235.28 26.3914 238.28 24.1601 239.28 22.3914Z" fill="#E0426F" stroke="black" stroke-width="0.5"/>
<path d="M96.2817 78.3914H163.282L197.782 76.8914H212.282L212.782 82.3914H198.782H97.7817H86.2817V78.3914H96.2817Z" fill="#E0426F"/>
<path d="M96.2817 78.3914H163.282L197.782 76.8914M96.2817 78.3914C96.2817 79.8914 96.7817 80.8914 97.7817 82.3914M96.2817 78.3914H86.2817V82.3914H97.7817M197.782 76.8914L198.782 82.3914M197.782 76.8914H212.282L212.782 82.3914H198.782M198.782 82.3914H97.7817" stroke="black" stroke-width="0.5"/>
<path d="M96.2809 78.3914C91.7817 73.8914 88.7818 51.8914 92.7809 35.3914L164.782 31.3914C160.782 36.3914 159.782 70.3914 163.282 78.3914H96.2809Z" fill="#E0426F" stroke="black" stroke-width="0.5"/>
<path d="M228.281 30.3914L164.781 31.3914C160.781 36.3914 159.781 70.3914 163.281 78.3914L197.781 76.8914C202.281 75.3914 208.781 69.8914 228.281 30.3914Z" fill="#E0426F" stroke="black" stroke-width="0.5"/>
<path d="M170.282 29.8914C165.782 30.3914 162.282 30.3914 159.282 30.3914L164.782 7.89143C167.782 7.39136 170.782 7.39136 173.782 7.89143L170.282 29.8914Z" fill="#E0426F" stroke="black" stroke-width="0.5"/>
<path d="M98.7817 31.8914C103.282 37.3914 110.282 33.8914 114.282 32.3914C115.282 16.8913 102.282 24.8912 98.7817 31.8914Z" fill="#E0426F" stroke="black" stroke-width="0.5"/>
<path d="M234.28 9.39136L231.28 12.8914C248.28 18.3914 258.78 21.3914 271.28 27.8914H272.78L280.78 26.3914C265.78 19.8914 258.28 17.3914 234.28 9.39136Z" fill="#EFC7D3" stroke="black" stroke-width="0.5"/>
<path d="M271.28 27.8914C260.78 22.3914 241.78 15.8914 231.28 12.8914L229.28 15.3914L244.28 22.8914C242.78 25.3914 238.78 27.3914 232.78 30.0914C244.78 29.3914 261.78 28.3914 271.28 27.8914Z" fill="#EFC7D3" stroke="black" stroke-width="0.5"/>
<path d="M276.782 34.1914L282.78 31.8914L272.281 27.8914L228.281 30.3914C220.781 45.3914 205.781 75.8914 197.781 76.8914H212.281C210.781 65.8914 220.281 42.3914 245.282 51.3914C255.782 45.8914 265.782 40.3914 276.782 34.1914Z" fill="#EFC7D3" stroke="black" stroke-width="0.5"/>
<path d="M277.78 33.8914C265.78 40.3914 255.78 45.8914 245.28 51.3914C249.78 54.3914 260.28 60.3914 259.28 79.3914L284.28 78.8914V77.3914C292.78 76.3914 301.28 79.8914 299.78 65.8914L301.78 55.8914C301.78 54.3914 299.28 50.3914 296.78 49.8914C298.28 47.3914 295.28 38.3914 295.28 38.3914V36.8914L291.28 33.8914L286.28 32.3914L282.78 31.8914L277.78 33.8914Z" fill="#EFC7D3" stroke="black" stroke-width="0.5"/>
<path d="M280.78 26.3914L272.28 27.8914L282.78 31.8914C292.28 32.8914 291.279 34.3914 295.274 36.8115L294.78 28.3914L280.78 26.3914Z" fill="#EFC7D3"/>
<path d="M295.28 36.8914L295.274 36.8115M295.274 36.8115L294.78 28.3914L280.78 26.3914L272.28 27.8914L282.78 31.8914C292.28 32.8914 291.279 34.3914 295.274 36.8115Z" stroke="black" stroke-width="0.5"/>
<path d="M293.782 36.3916C293.282 33.8914 282.282 33.6914 276.782 34.1914" stroke="black" stroke-width="0.5"/>
<path d="M299.782 66.3914L260.282 68.3914C259.782 63.3914 257.615 59.2247 255.782 57.3914L301.782 54.8914M300.282 52.3914C289.282 50.8914 278.282 46.0914 266.282 40.0914M228.282 30.3914L272.282 27.8914L280.782 26.3914" stroke="black" stroke-width="0.5"/>
<path d="M290.282 40.3914C290.282 38.3914 289.282 34.3914 285.782 32.3914C288.003 32.3914 291.379 33.4317 293.891 35.8013C294.354 37.3313 293.282 40.8914 290.24 42.3914C290.226 41.8011 290.282 41.1156 290.282 40.3914Z" fill="#EFC7D3"/>
<path d="M272.282 42.8914C279.277 43.2411 285.294 43.3462 290.675 43.8914M297.282 44.8914C295.179 44.4407 292.985 44.1255 290.675 43.8914M295.282 37.3914C294.864 36.8062 294.395 36.277 293.891 35.8013M290.675 43.8914C290.349 43.5466 290.255 43.0235 290.24 42.3914M290.24 42.3914C290.226 41.8011 290.282 41.1156 290.282 40.3914C290.282 38.3914 289.282 34.3914 285.782 32.3914C288.003 32.3914 291.379 33.4317 293.891 35.8013M290.24 42.3914C293.282 40.8914 294.354 37.3313 293.891 35.8013" stroke="black" stroke-width="0.5"/>
<path d="M290.282 40.3914C285.782 40.3914 283.782 36.3914 282.782 33.8914" stroke="black" stroke-width="0.5"/>
<path d="M132.28 12.4913C118.78 16.4913 106.78 22.3914 92.7803 35.3914C99.7803 23.3914 115.28 13.8914 130.78 8.89136L132.28 12.4913Z" fill="#EFC7D3" stroke="black" stroke-width="0.5"/>
<path d="M130.78 8.89136C110.78 14.5654 92.7803 31.8914 84.7803 29.8914C97.7803 20.3914 113.78 11.8914 130.28 7.39136L130.78 8.89136Z" fill="#EFC7D3" stroke="black" stroke-width="0.5"/>
<path d="M9.78094 47.8912H3.78094C1.28027 51.8912 1.28027 61.8912 1.78094 65.3912C0.280273 66.3912 0.280871 70.8912 1.28094 72.3912L5.28094 72.8912V74.3912L1.28094 76.3912V78.3912C5.28094 79.3912 13.7809 81.3912 21.7809 80.8912V79.3912H39.2809C38.6143 70.8912 40.2809 60.3912 49.2809 53.3912C46.7809 49.3912 39.7809 44.8912 36.7809 44.3912C26.7809 43.3912 11.7809 45.8912 9.78094 47.8912Z" fill="#EFC7D3" stroke="black" stroke-width="0.5"/>
<path d="M92.7817 35.3914C74.9484 36.2247 43.2817 41.0914 32.7817 44.0914L36.7817 44.3914C41.7817 45.8914 47.2817 50.2247 49.2817 53.3914C62.2808 43.8914 87.7808 50.8914 86.2808 78.3914H96.2808C89.2808 67.3914 90.2808 45.3914 92.7817 35.3914Z" fill="#EFC7D3" stroke="black" stroke-width="0.5"/>
<path d="M9.78027 47.8914H3.78027C36.2805 28.3913 58.2805 34.3914 84.2803 29.8914L93.2805 35.3914C76.2805 36.3914 47.2803 39.8914 33.2803 44.0914C25.2803 43.8913 11.2803 45.8914 9.78027 47.8914Z" fill="#EFC7D3" stroke="black" stroke-width="0.5"/>
<path d="M36.7817 44.3914C29.2817 43.3914 12.2817 45.3914 9.78173 47.8914C8.98173 50.2914 12.1151 53.2247 13.7817 54.3914C23.2817 55.8914 36.7817 49.8914 36.7817 44.3914Z" fill="#EFC7D3" stroke="black" stroke-width="0.5"/>
<path d="M3.78097 47.8914C10.781 48.8914 4.78097 59.3914 1.78097 64.3914C1.2809 57.3914 1.78076 51.8914 3.78097 47.8914Z" fill="#EFC7D3" stroke="black" stroke-width="0.5"/>
<path d="M21.7803 83.8914V79.3914H39.2803L39.7803 83.8914H21.7803Z" fill="#EFC7D3" stroke="black" stroke-width="0.5"/>
<path d="M2.28223 65.3911C3.78223 67.8911 5.78223 71.0578 5.28223 72.8911M21.7822 79.3911C11.2822 79.8911 6.78223 75.8911 7.78223 72.3911C8.28223 71.8911 9.78223 70.3911 10.7822 70.3911" stroke="black" stroke-width="0.5"/>
<path d="M31.7822 74.3912C29.2822 70.3912 23.7822 65.3913 20.7822 63.8913C19.0322 63.3913 16.4071 63.5163 13.657 63.8913C12.0321 65.2246 10.7822 68.3912 11.2822 71.3912C11.2822 72.5579 12.5896 74.8912 15.2822 74.8912C19.7822 74.8912 26.7822 75.3912 31.7822 74.3912Z" fill="#EFC7D3"/>
<path d="M5.78223 65.3913C8.03217 64.8913 10.9071 64.2663 13.657 63.8913M13.657 63.8913C16.4071 63.5163 19.0322 63.3913 20.7822 63.8913C23.7822 65.3913 29.2822 70.3912 31.7822 74.3912C26.7822 75.3912 19.7822 74.8912 15.2822 74.8912C12.5896 74.8912 11.2822 72.5579 11.2822 71.3912C10.7822 68.3912 12.0321 65.2246 13.657 63.8913Z" stroke="black" stroke-width="0.5"/>
<path d="M11.2822 70.8913C19.2822 69.3914 22.7822 72.0198 25.7822 73.5198M12.7822 73.8914L30.2822 73.3914" stroke="black" stroke-width="0.5"/>
<path d="M21.7803 82.3911H31.2803C33.2803 82.3911 34.7803 80.3911 34.2803 79.3911M37.7803 79.3911V83.8911" stroke="black" stroke-width="0.5"/>
<path d="M21.7817 80.8916C17.2817 80.8916 12.7817 81.3916 1.28168 78.3916V76.3916L5.28168 74.3916V72.8916L1.28168 72.3916C0.780762 70.8914 -0.219042 67.8914 1.78095 65.3914C1.2812 57.3914 1.7812 50.8914 3.78168 47.8911C36.2817 28.3915 58.2817 34.3915 84.2817 29.8915C162.282 -25.1086 244.282 11.8913 281.282 26.3915L294.782 28.3914L295.282 35.3914V38.3914C296.78 43.3914 298.115 47.8914 296.782 49.8914C299.282 50.8914 301.782 54.058 301.782 55.8914L299.782 65.8914C300.234 76.7393 297.826 76.9635 288.494 77.276C287.503 77.3092 285.434 77.3434 284.282 77.3914V78.8914L259.282 79.3224M21.7817 80.8916V83.8916H39.78L39.2817 79.3916M21.7817 80.8916V79.3916H39.2817M39.2817 79.3916C36.2817 37.8916 89.7817 40.8916 86.2817 79.8916V82.3914H212.782C206.782 38.8914 261.282 38.8914 259.282 79.3224M258.78 79.3224H259.282" stroke="black"/>
</svg>
