<svg width="303" height="96" viewBox="0 0 303 96" fill="none" xmlns="http://www.w3.org/2000/svg">
<circle cx="62.458" cy="74.0151" r="20.5" fill="#E0426F" stroke="black"/>
<circle cx="235.458" cy="74.0151" r="20.5" fill="#E0426F" stroke="black"/>
<path d="M132.456 12.515L130.956 9.01499C170.956 1.0151 192.456 1.51514 231.456 13.0151L227.956 17.5151C207.956 9.51505 189.956 8.51505 173.956 8.01511C171.456 7.51511 167.456 7.51508 164.956 8.01499C154.956 8.01511 142.956 9.51511 132.456 12.515Z" fill="#EFC7D3" stroke="black" stroke-width="0.5"/>
<path d="M130.956 9.01518L130.456 7.51518C166.456 -3.48486 198.956 0.515011 234.456 9.51518L231.456 13.0152C191.456 0.515137 165.456 2.01514 130.956 9.01518Z" fill="#EFC7D3" stroke="black" stroke-width="0.5"/>
<path d="M130.956 9.01512C182.456 -2.4849 210.956 7.51514 231.456 13.0151" stroke="black" stroke-width="0.5"/>
<path d="M170.458 30.0151L173.958 8.01514C207.458 9.01514 218.958 14.5151 223.458 16.0151L225.941 28.0151C198.951 28.0158 181.456 29.5152 170.458 30.0151Z" fill="#EFC7D3"/>
<path d="M226.458 30.5151L223.458 16.0151C218.958 14.5151 207.458 9.01514 173.958 8.01514L170.458 30.0151C181.458 29.5151 198.958 28.0151 225.958 28.0151" stroke="black" stroke-width="0.5"/>
<path d="M164.958 8.01514C131.958 9.01514 111.958 18.0151 92.958 35.5151L95.458 33.5151L159.458 30.5151L164.958 8.01514Z" fill="#EFC7D3" stroke="black" stroke-width="0.5"/>
<path d="M239.456 22.5151C235.789 19.8485 229.956 17.5151 223.456 16.0151L225.956 28.0151H232.456C235.456 26.5151 238.456 24.2839 239.456 22.5151Z" fill="#EFC7D3" stroke="black" stroke-width="0.5"/>
<path d="M96.458 78.5151H163.458L197.958 77.0151H212.458L212.958 82.5151H198.958H97.958H86.458V78.5151H96.458Z" fill="#EFC7D3"/>
<path d="M96.458 78.5151H163.458L197.958 77.0151M96.458 78.5151C96.458 80.0151 96.958 81.0151 97.958 82.5151M96.458 78.5151H86.458V82.5151H97.958M197.958 77.0151L198.958 82.5151M197.958 77.0151H212.458L212.958 82.5151H198.958M198.958 82.5151H97.958" stroke="black" stroke-width="0.5"/>
<path d="M96.4571 78.5151C91.958 74.0151 88.9581 52.0151 92.9571 35.5151L164.958 31.5151C160.958 36.5151 159.958 70.5151 163.458 78.5151H96.4571Z" fill="#EFC7D3" stroke="black" stroke-width="0.5"/>
<path d="M228.458 30.5151L164.958 31.5151C160.958 36.5151 159.958 70.5151 163.458 78.5151L197.958 77.0151C202.458 75.5151 208.958 70.0151 228.458 30.5151Z" fill="#EFC7D3" stroke="black" stroke-width="0.5"/>
<path d="M170.458 30.0152C165.958 30.5152 162.458 30.5152 159.458 30.5152L164.958 8.01521C167.958 7.51514 170.958 7.51514 173.958 8.01521L170.458 30.0152Z" fill="#EFC7D3" stroke="black" stroke-width="0.5"/>
<path d="M98.958 32.0153C103.458 37.5153 110.458 34.0153 114.458 32.5153C115.458 17.0152 102.458 25.0151 98.958 32.0153Z" fill="#EFC7D3" stroke="black" stroke-width="0.5"/>
<path d="M234.456 9.51514L231.456 13.0151C248.456 18.5151 258.956 21.5151 271.456 28.0151H272.956L280.956 26.5151C265.956 20.0151 258.456 17.5151 234.456 9.51514Z" fill="#E56E90" stroke="black" stroke-width="0.5"/>
<path d="M271.456 28.0151C260.956 22.5151 241.956 16.0151 231.456 13.0151L229.456 15.5151L244.456 23.0151C242.956 25.5151 238.956 27.5151 232.956 30.2151C244.956 29.5151 261.956 28.5151 271.456 28.0151Z" fill="#E56E90" stroke="black" stroke-width="0.5"/>
<path d="M276.958 34.3151L282.956 32.0151L272.457 28.0151L228.457 30.5151C220.957 45.5151 205.957 76.0151 197.957 77.0151H212.457C210.957 66.0151 220.457 42.5151 245.458 51.5151C255.958 46.0151 265.958 40.5151 276.958 34.3151Z" fill="#E56E90" stroke="black" stroke-width="0.5"/>
<path d="M277.956 34.0152C265.956 40.5152 255.956 46.0152 245.456 51.5152C249.956 54.5151 260.456 60.5151 259.456 79.5151L284.456 79.0151V77.5151C292.956 76.5151 301.456 80.0151 299.956 66.0151L301.956 56.0151C301.956 54.5151 299.456 50.5151 296.956 50.0151C298.456 47.5151 295.456 38.5151 295.456 38.5151V37.0151L291.456 34.0151L286.456 32.5151L282.956 32.0151L277.956 34.0152Z" fill="#E56E90" stroke="black" stroke-width="0.5"/>
<path d="M280.956 26.5151L272.456 28.0151L282.956 32.0151C292.456 33.0151 291.455 34.5151 295.45 36.9353L294.956 28.5151L280.956 26.5151Z" fill="#E56E90"/>
<path d="M295.456 37.0151L295.45 36.9353M295.45 36.9353L294.956 28.5151L280.956 26.5151L272.456 28.0151L282.956 32.0151C292.456 33.0151 291.455 34.5151 295.45 36.9353Z" stroke="black" stroke-width="0.5"/>
<path d="M293.958 36.5153C293.458 34.0152 282.458 33.8151 276.958 34.3151" stroke="black" stroke-width="0.5"/>
<path d="M299.958 66.5151L260.458 68.5151C259.958 63.5151 257.791 59.3485 255.958 57.5151L301.958 55.0151M300.458 52.5151C289.458 51.0151 278.458 46.2151 266.458 40.2151M228.458 30.5151L272.458 28.0151L280.958 26.5151" stroke="black" stroke-width="0.5"/>
<path d="M290.458 40.5151C290.458 38.5151 289.458 34.5151 285.958 32.5151C288.179 32.5151 291.556 33.5555 294.067 35.9251C294.531 37.4551 293.458 41.0151 290.416 42.5151C290.403 41.9249 290.458 41.2394 290.458 40.5151Z" fill="#E56E90"/>
<path d="M272.458 43.0151C279.454 43.3649 285.471 43.47 290.851 44.0151M297.458 45.0151C295.355 44.5645 293.162 44.2492 290.851 44.0151M295.458 37.5151C295.04 36.93 294.571 36.4008 294.067 35.9251M290.851 44.0151C290.525 43.6704 290.431 43.1473 290.416 42.5151M290.416 42.5151C290.403 41.9249 290.458 41.2394 290.458 40.5151C290.458 38.5151 289.458 34.5151 285.958 32.5151C288.179 32.5151 291.556 33.5555 294.067 35.9251M290.416 42.5151C293.458 41.0151 294.531 37.4551 294.067 35.9251" stroke="black" stroke-width="0.5"/>
<path d="M290.458 40.5151C285.958 40.5151 283.958 36.5151 282.958 34.0151" stroke="black" stroke-width="0.5"/>
<path d="M132.456 12.6151C118.956 16.6151 106.956 22.5151 92.9561 35.5151C99.9561 23.5151 115.456 14.0151 130.956 9.01514L132.456 12.6151Z" stroke="black" stroke-width="0.5"/>
<path d="M130.956 9.01514C110.956 14.6892 92.9561 32.0151 84.9561 30.0151C97.9561 20.5151 113.956 12.0151 130.456 7.51514L130.956 9.01514Z" stroke="black" stroke-width="0.5"/>
<path d="M9.95672 48.0151H3.95672C1.45605 52.0151 1.45605 62.0151 1.95672 65.5151C0.456055 66.5151 0.456652 71.0151 1.45672 72.5151L5.45672 73.0151V74.5151L1.45672 76.5151V78.5151C5.45672 79.5151 13.9567 81.5151 21.9567 81.0151V79.5151H39.4567C38.7901 71.0151 40.4567 60.5151 49.4567 53.5151C46.9567 49.5151 39.9567 45.0151 36.9567 44.5151C26.9567 43.5151 11.9567 46.0151 9.95672 48.0151Z" stroke="black" stroke-width="0.5"/>
<path d="M92.958 35.5151C75.1247 36.3485 43.458 41.2151 32.958 44.2151L36.958 44.5151C41.958 46.0151 47.458 50.3485 49.458 53.5151C62.457 44.0151 87.957 51.0151 86.457 78.5151H96.457C89.457 67.5151 90.457 45.5151 92.958 35.5151Z" stroke="black" stroke-width="0.5"/>
<path d="M9.95606 48.0152H3.95605C36.4562 28.5151 58.4563 34.5151 84.4561 30.0151L93.4563 35.5151C76.4563 36.5151 47.4561 40.0151 33.4561 44.2151C25.4561 44.0151 11.4561 46.0151 9.95606 48.0152Z" stroke="black" stroke-width="0.5"/>
<path d="M36.9575 44.5152C29.4575 43.5151 12.4575 45.5151 9.95751 48.0152C9.15751 50.4152 12.2908 53.3485 13.9575 54.5151C23.4575 56.0151 36.9575 50.0151 36.9575 44.5152Z" stroke="black" stroke-width="0.5"/>
<path d="M3.95675 48.0151C10.9568 49.0151 4.95675 59.5151 1.95675 64.5151C1.45668 57.5151 1.95654 52.0151 3.95675 48.0151Z" stroke="black" stroke-width="0.5"/>
<path d="M21.9561 84.0151V79.5151H39.4561L39.9561 84.0151H21.9561Z" stroke="black" stroke-width="0.5"/>
<path d="M2.45801 65.5151C3.95801 68.0151 5.95801 71.1818 5.45801 73.0151M21.958 79.5151C11.458 80.0151 6.95801 76.0151 7.95801 72.5151C8.45801 72.0151 9.95801 70.5151 10.958 70.5151" stroke="black" stroke-width="0.5"/>
<path d="M5.95801 65.5152C8.20795 65.0152 11.0829 64.3902 13.8328 64.0152M13.8328 64.0152C16.5829 63.6402 19.208 63.5152 20.958 64.0152C23.958 65.5152 29.458 70.5151 31.958 74.5151C26.958 75.5151 19.958 75.0151 15.458 75.0151C12.7654 75.0151 11.458 72.6818 11.458 71.5151C10.958 68.5151 12.2079 65.3485 13.8328 64.0152Z" stroke="black" stroke-width="0.5"/>
<path d="M11.458 71.0152C19.458 69.5153 22.958 72.1437 25.958 73.6437M12.958 74.0153L30.458 73.5153" stroke="black" stroke-width="0.5"/>
<path d="M21.9561 82.5151H31.4561C33.4561 82.5151 34.9561 80.5151 34.4561 79.5151M37.9561 79.5151V84.0151" stroke="black" stroke-width="0.5"/>
<path d="M21.958 81.0154C17.458 81.0154 12.958 81.5154 1.45795 78.5154V76.5154L5.45795 74.5154V73.0154L1.45795 72.5154C0.957031 71.0151 -0.0427729 68.0151 1.95722 65.5151C1.45747 57.5151 1.95747 51.0151 3.95795 48.0149C36.458 28.5153 58.4579 34.5153 84.4579 30.0153C162.458 -24.9848 244.458 12.0151 281.458 26.5153L294.958 28.5151L295.458 35.5151V38.5151C296.956 43.5151 298.291 48.0151 296.958 50.0151C299.458 51.0151 301.958 54.1818 301.958 56.0151L299.958 66.0151C300.41 76.863 298.002 77.0873 288.67 77.3998C287.679 77.433 285.61 77.4671 284.458 77.5151V79.0151L259.458 79.4462M21.958 81.0154V84.0154H39.9563L39.458 79.5154M21.958 81.0154V79.5154H39.458M39.458 79.5154C36.458 38.0154 89.9579 41.0154 86.4579 80.0154V82.5151H212.958C206.958 39.0151 261.458 39.0151 259.458 79.4462M258.956 79.4462H259.458" stroke="black"/>
</svg>
