<svg width="303" height="96" viewBox="0 0 303 96" fill="none" xmlns="http://www.w3.org/2000/svg">
<circle cx="62.6772" cy="74.1843" r="20.5" stroke="black"/>
<circle cx="235.678" cy="74.1843" r="20.5" stroke="black"/>
<path d="M132.676 12.6842L131.176 9.18418C171.176 1.18429 192.676 1.68433 231.676 13.1843L228.176 17.6843C208.176 9.68424 190.176 8.68423 174.176 8.1843C171.676 7.6843 167.676 7.68427 165.176 8.18418C155.176 8.1843 143.176 9.6843 132.676 12.6842Z" fill="#EFC7D3" stroke="black" stroke-width="0.5"/>
<path d="M131.176 9.18437L130.676 7.68437C166.676 -3.31567 199.176 0.6842 234.676 9.68437L231.676 13.1844C191.676 0.684326 165.676 2.18433 131.176 9.18437Z" fill="#EFC7D3" stroke="black" stroke-width="0.5"/>
<path d="M131.176 9.18431C182.676 -2.31571 211.176 7.68433 231.676 13.1843" stroke="black" stroke-width="0.5"/>
<path d="M170.677 30.1843L174.177 8.18433C207.677 9.18433 219.177 14.6843 223.677 16.1843L226.16 28.1843C199.17 28.185 181.675 29.6844 170.677 30.1843Z" fill="#EFC7D3"/>
<path d="M226.677 30.6843L223.677 16.1843C219.177 14.6843 207.677 9.18433 174.177 8.18433L170.677 30.1843C181.677 29.6843 199.177 28.1843 226.177 28.1843" stroke="black" stroke-width="0.5"/>
<path d="M165.177 8.18433C132.177 9.18433 112.177 18.1843 93.1772 35.6843L95.6772 33.6843L159.677 30.6843L165.177 8.18433Z" fill="#EFC7D3" stroke="black" stroke-width="0.5"/>
<path d="M239.676 22.6843C236.009 20.0177 230.176 17.6843 223.676 16.1843L226.176 28.1843H232.676C235.676 26.6843 238.676 24.4531 239.676 22.6843Z" fill="#EFC7D3" stroke="black" stroke-width="0.5"/>
<path d="M96.6772 78.6843H163.677L198.177 77.1843H212.677L213.177 82.6843H199.177H98.1772H86.6772V78.6843H96.6772Z" fill="#EFC7D3"/>
<path d="M96.6772 78.6843H163.677L198.177 77.1843M96.6772 78.6843C96.6772 80.1843 97.1772 81.1843 98.1772 82.6843M96.6772 78.6843H86.6772V82.6843H98.1772M198.177 77.1843L199.177 82.6843M198.177 77.1843H212.677L213.177 82.6843H199.177M199.177 82.6843H98.1772" stroke="black" stroke-width="0.5"/>
<path d="M96.6764 78.6843C92.1772 74.1843 89.1773 52.1843 93.1764 35.6843L165.177 31.6843C161.177 36.6843 160.177 70.6843 163.677 78.6843H96.6764Z" fill="#EFC7D3" stroke="black" stroke-width="0.5"/>
<path d="M228.677 30.6843L165.177 31.6843C161.177 36.6843 160.177 70.6843 163.677 78.6843L198.177 77.1843C202.677 75.6843 209.177 70.1843 228.677 30.6843Z" fill="#EFC7D3" stroke="black" stroke-width="0.5"/>
<path d="M170.677 30.1844C166.177 30.6844 162.677 30.6844 159.677 30.6844L165.177 8.1844C168.177 7.68433 171.177 7.68433 174.177 8.1844L170.677 30.1844Z" fill="#EFC7D3" stroke="black" stroke-width="0.5"/>
<path d="M99.1772 32.1845C103.677 37.6845 110.677 34.1845 114.677 32.6845C115.677 17.1843 102.677 25.1843 99.1772 32.1845Z" fill="#EFC7D3" stroke="black" stroke-width="0.5"/>
<path d="M234.676 9.68433L231.676 13.1843C248.676 18.6843 259.176 21.6843 271.676 28.1843H273.176L281.176 26.6843C266.176 20.1843 258.676 17.6843 234.676 9.68433Z" fill="#EDADBF" stroke="black" stroke-width="0.5"/>
<path d="M271.676 28.1843C261.176 22.6843 242.176 16.1843 231.676 13.1843L229.676 15.6843L244.676 23.1843C243.176 25.6843 239.176 27.6843 233.176 30.3843C245.176 29.6843 262.176 28.6843 271.676 28.1843Z" fill="#EDADBF" stroke="black" stroke-width="0.5"/>
<path d="M277.178 34.4843L283.176 32.1843L272.677 28.1843L228.677 30.6843C221.177 45.6843 206.177 76.1843 198.177 77.1843H212.677C211.177 66.1843 220.677 42.6843 245.678 51.6843C256.178 46.1843 266.178 40.6843 277.178 34.4843Z" fill="#EDADBF" stroke="black" stroke-width="0.5"/>
<path d="M278.176 34.1844C266.176 40.6844 256.176 46.1844 245.676 51.6844C250.176 54.6843 260.676 60.6843 259.676 79.6843L284.676 79.1843V77.6843C293.176 76.6843 301.676 80.1843 300.176 66.1843L302.176 56.1843C302.176 54.6843 299.676 50.6843 297.176 50.1843C298.676 47.6843 295.676 38.6843 295.676 38.6843V37.1843L291.676 34.1843L286.676 32.6843L283.176 32.1843L278.176 34.1844Z" fill="#EDADBF" stroke="black" stroke-width="0.5"/>
<path d="M281.176 26.6843L272.676 28.1843L283.176 32.1843C292.676 33.1843 291.675 34.6843 295.67 37.1045L295.176 28.6843L281.176 26.6843Z" fill="#EDADBF"/>
<path d="M295.676 37.1843L295.67 37.1045M295.67 37.1045L295.176 28.6843L281.176 26.6843L272.676 28.1843L283.176 32.1843C292.676 33.1843 291.675 34.6843 295.67 37.1045Z" stroke="black" stroke-width="0.5"/>
<path d="M294.178 36.6845C293.678 34.1844 282.678 33.9843 277.178 34.4843" stroke="black" stroke-width="0.5"/>
<path d="M300.178 66.6843L260.678 68.6843C260.178 63.6843 258.011 59.5177 256.178 57.6843L302.178 55.1843M300.678 52.6843C289.678 51.1843 278.678 46.3843 266.678 40.3843M228.678 30.6843L272.678 28.1843L281.178 26.6843" stroke="black" stroke-width="0.5"/>
<path d="M290.678 40.6843C290.678 38.6843 289.678 34.6843 286.178 32.6843C288.399 32.6843 291.775 33.7247 294.287 36.0943C294.75 37.6243 293.678 41.1843 290.636 42.6843C290.622 42.094 290.678 41.4086 290.678 40.6843Z" fill="#EDADBF"/>
<path d="M272.678 43.1843C279.673 43.5341 285.69 43.6392 291.071 44.1843M297.678 45.1843C295.575 44.7337 293.381 44.4184 291.071 44.1843M295.678 37.6843C295.26 37.0992 294.791 36.57 294.287 36.0943M291.071 44.1843C290.745 43.8396 290.651 43.3165 290.636 42.6843M290.636 42.6843C290.622 42.094 290.678 41.4086 290.678 40.6843C290.678 38.6843 289.678 34.6843 286.178 32.6843C288.399 32.6843 291.775 33.7247 294.287 36.0943M290.636 42.6843C293.678 41.1843 294.75 37.6243 294.287 36.0943" stroke="black" stroke-width="0.5"/>
<path d="M290.678 40.6843C286.178 40.6843 284.178 36.6843 283.178 34.1843" stroke="black" stroke-width="0.5"/>
<path d="M132.676 12.7843C119.176 16.7843 107.176 22.6843 93.1758 35.6843C100.176 23.6843 115.676 14.1843 131.176 9.18433L132.676 12.7843Z" fill="#EFC7D3" stroke="black" stroke-width="0.5"/>
<path d="M131.176 9.18433C111.176 14.8584 93.1758 32.1843 85.1758 30.1843C98.1758 20.6843 114.176 12.1843 130.676 7.68433L131.176 9.18433Z" fill="#EFC7D3" stroke="black" stroke-width="0.5"/>
<path d="M10.1764 48.1843H4.17645C1.67578 52.1843 1.67578 62.1843 2.17645 65.6843C0.675781 66.6843 0.676379 71.1843 1.67645 72.6843L5.67645 73.1843V74.6843L1.67645 76.6843V78.6843C5.67645 79.6843 14.1764 81.6843 22.1764 81.1843V79.6843H39.6764C39.0098 71.1843 40.6764 60.6843 49.6764 53.6843C47.1764 49.6843 40.1764 45.1843 37.1764 44.6843C27.1764 43.6843 12.1764 46.1843 10.1764 48.1843Z" fill="#EFC7D3" stroke="black" stroke-width="0.5"/>
<path d="M93.1772 35.6843C75.3439 36.5177 43.6772 41.3843 33.1772 44.3843L37.1772 44.6843C42.1772 46.1843 47.6772 50.5177 49.6772 53.6843C62.6763 44.1843 88.1763 51.1843 86.6763 78.6843H96.6763C89.6763 67.6843 90.6763 45.6843 93.1772 35.6843Z" fill="#EFC7D3" stroke="black" stroke-width="0.5"/>
<path d="M10.1758 48.1844H4.17578C36.676 28.6843 58.676 34.6843 84.6758 30.1843L93.676 35.6843C76.676 36.6843 47.6758 40.1843 33.6758 44.3843C25.6758 44.1843 11.6758 46.1843 10.1758 48.1844Z" fill="#EFC7D3" stroke="black" stroke-width="0.5"/>
<path d="M37.1772 44.6844C29.6772 43.6843 12.6772 45.6843 10.1772 48.1844C9.37724 50.5843 12.5106 53.5177 14.1772 54.6843C23.6772 56.1843 37.1772 50.1843 37.1772 44.6844Z" fill="#EFC7D3" stroke="black" stroke-width="0.5"/>
<path d="M4.17648 48.1843C11.1765 49.1843 5.17648 59.6843 2.17648 64.6843C1.67641 57.6843 2.17627 52.1843 4.17648 48.1843Z" fill="#EFC7D3" stroke="black" stroke-width="0.5"/>
<path d="M22.1758 84.1843V79.6843H39.6758L40.1758 84.1843H22.1758Z" fill="#EFC7D3" stroke="black" stroke-width="0.5"/>
<path d="M2.67773 65.6843C4.17773 68.1843 6.17773 71.351 5.67773 73.1843M22.1777 79.6843C11.6777 80.1843 7.17773 76.1843 8.17773 72.6843C8.67773 72.1843 10.1777 70.6843 11.1777 70.6843" stroke="black" stroke-width="0.5"/>
<path d="M32.1777 74.6843C29.6777 70.6843 24.1777 65.6844 21.1777 64.1844C19.4277 63.6844 16.8026 63.8094 14.0525 64.1844C12.4276 65.5177 11.1777 68.6843 11.6777 71.6843C11.6777 72.851 12.9852 75.1843 15.6777 75.1843C20.1777 75.1843 27.1777 75.6843 32.1777 74.6843Z" fill="#EFC7D3"/>
<path d="M6.17773 65.6844C8.42768 65.1844 11.3026 64.5594 14.0525 64.1844M14.0525 64.1844C16.8026 63.8094 19.4277 63.6844 21.1777 64.1844C24.1777 65.6844 29.6777 70.6843 32.1777 74.6843C27.1777 75.6843 20.1777 75.1843 15.6777 75.1843C12.9852 75.1843 11.6777 72.851 11.6777 71.6843C11.1777 68.6843 12.4276 65.5177 14.0525 64.1844Z" stroke="black" stroke-width="0.5"/>
<path d="M11.6777 71.1844C19.6777 69.6844 23.1777 72.3129 26.1777 73.8129M13.1777 74.1844L30.6777 73.6844" stroke="black" stroke-width="0.5"/>
<path d="M22.1758 82.6843H31.6758C33.6758 82.6843 35.1758 80.6843 34.6758 79.6843M38.1758 79.6843V84.1843" stroke="black" stroke-width="0.5"/>
<path d="M22.1772 81.1846C17.6772 81.1846 13.1772 81.6846 1.67719 78.6846V76.6846L5.67719 74.6846V73.1846L1.67719 72.6846C1.17627 71.1843 0.176465 68.1843 2.17646 65.6843C1.6767 57.6843 2.1767 51.1843 4.17719 48.1841C36.6772 28.6845 58.6772 34.6845 84.6772 30.1845C162.677 -24.8156 244.677 12.1843 281.677 26.6845L295.177 28.6843L295.677 35.6843V38.6843C297.176 43.6843 298.511 48.1843 297.177 50.1843C299.677 51.1843 302.177 54.351 302.177 56.1843L300.177 66.1843C300.629 77.0322 298.221 77.2565 288.889 77.569C287.898 77.6021 285.829 77.6363 284.677 77.6843V79.1843L259.677 79.6154M22.1772 81.1846V84.1846H40.1755L39.6772 79.6846M22.1772 81.1846V79.6846H39.6772M39.6772 79.6846C36.6772 38.1846 90.1772 41.1846 86.6772 80.1846V82.6843H213.177C207.177 39.1843 261.677 39.1843 259.677 79.6154M259.176 79.6154H259.677" stroke="black"/>
</svg>
