<svg width="303" height="96" viewBox="0 0 303 96" fill="none" xmlns="http://www.w3.org/2000/svg">
<circle cx="62.249" cy="74.5076" r="20.5" fill="#E56E90" stroke="black"/>
<circle cx="235.249" cy="74.5076" r="20.5" fill="#E56E90" stroke="black"/>
<path d="M132.247 13.0074L130.747 9.50742C170.747 1.50754 192.247 2.00757 231.247 13.5075L227.747 18.0075C207.747 10.0075 189.747 9.00748 173.747 8.50755C171.247 8.00755 167.247 8.00751 164.747 8.50742C154.747 8.50755 142.747 10.0075 132.247 13.0074Z" stroke="black" stroke-width="0.5"/>
<path d="M130.747 9.50761L130.247 8.00761C166.247 -2.99243 198.747 1.00744 234.247 10.0076L231.247 13.5076C191.247 1.00757 165.247 2.50757 130.747 9.50761Z" stroke="black" stroke-width="0.5"/>
<path d="M130.747 9.50756C182.247 -1.99247 210.747 8.00757 231.247 13.5076" stroke="black" stroke-width="0.5"/>
<path d="M226.249 31.0076L223.249 16.5076C218.749 15.0076 207.249 9.50757 173.749 8.50757L170.249 30.5076C181.249 30.0076 198.749 28.5076 225.749 28.5076" stroke="black" stroke-width="0.5"/>
<path d="M164.749 8.50757C131.749 9.50757 111.749 18.5076 92.749 36.0076L95.249 34.0076L159.249 31.0076L164.749 8.50757Z" stroke="black" stroke-width="0.5"/>
<path d="M239.247 23.0076C235.58 20.3409 229.747 18.0076 223.247 16.5076L225.747 28.5076H232.247C235.247 27.0076 238.247 24.7763 239.247 23.0076Z" stroke="black" stroke-width="0.5"/>
<path d="M96.249 79.0076H163.249L197.749 77.5076M96.249 79.0076C96.249 80.5076 96.749 81.5076 97.749 83.0076M96.249 79.0076H86.249V83.0076H97.749M197.749 77.5076L198.749 83.0076M197.749 77.5076H212.249L212.749 83.0076H198.749M198.749 83.0076H97.749" stroke="black" stroke-width="0.5"/>
<path d="M96.2482 79.0076C91.749 74.5076 88.7491 52.5076 92.7482 36.0076L164.749 32.0076C160.749 37.0076 159.749 71.0076 163.249 79.0076H96.2482Z" stroke="black" stroke-width="0.5"/>
<path d="M228.249 31.0076L164.749 32.0076C160.749 37.0076 159.749 71.0076 163.249 79.0076L197.749 77.5076C202.249 76.0076 208.749 70.5076 228.249 31.0076Z" stroke="black" stroke-width="0.5"/>
<path d="M170.249 30.5076C165.749 31.0076 162.249 31.0076 159.249 31.0076L164.749 8.50764C167.749 8.00757 170.749 8.00757 173.749 8.50764L170.249 30.5076Z" stroke="black" stroke-width="0.5"/>
<path d="M98.749 32.5077C103.249 38.0077 110.249 34.5077 114.249 33.0077C115.249 17.5076 102.249 25.5076 98.749 32.5077Z" stroke="black" stroke-width="0.5"/>
<path d="M234.247 10.0076L231.247 13.5076C248.247 19.0076 258.747 22.0076 271.247 28.5076H272.747L280.747 27.0076C265.747 20.5076 258.247 18.0076 234.247 10.0076Z" fill="#E0426F" stroke="black" stroke-width="0.5"/>
<path d="M271.247 28.5076C260.747 23.0076 241.747 16.5076 231.247 13.5076L229.247 16.0076L244.247 23.5076C242.747 26.0076 238.747 28.0076 232.747 30.7076C244.747 30.0076 261.747 29.0076 271.247 28.5076Z" fill="#E0426F" stroke="black" stroke-width="0.5"/>
<path d="M276.749 34.8076L282.747 32.5076L272.248 28.5076L228.248 31.0076C220.748 46.0076 205.748 76.5076 197.748 77.5076H212.248C210.748 66.5076 220.248 43.0076 245.249 52.0076C255.749 46.5076 265.749 41.0076 276.749 34.8076Z" fill="#E0426F" stroke="black" stroke-width="0.5"/>
<path d="M277.747 34.5076C265.747 41.0076 255.747 46.5076 245.247 52.0076C249.747 55.0076 260.247 61.0076 259.247 80.0076L284.247 79.5076V78.0076C292.747 77.0076 301.247 80.5076 299.747 66.5076L301.747 56.5076C301.747 55.0076 299.247 51.0076 296.747 50.5076C298.247 48.0076 295.247 39.0076 295.247 39.0076V37.5076L291.247 34.5076L286.247 33.0076L282.747 32.5076L277.747 34.5076Z" fill="#E0426F" stroke="black" stroke-width="0.5"/>
<path d="M280.747 27.0076L272.247 28.5076L282.747 32.5076C292.247 33.5076 291.246 35.0076 295.241 37.4277L294.747 29.0076L280.747 27.0076Z" fill="#E0426F"/>
<path d="M295.247 37.5076L295.241 37.4277M295.241 37.4277L294.747 29.0076L280.747 27.0076L272.247 28.5076L282.747 32.5076C292.247 33.5076 291.246 35.0076 295.241 37.4277Z" stroke="black" stroke-width="0.5"/>
<path d="M293.749 37.0078C293.249 34.5077 282.249 34.3076 276.749 34.8076" stroke="black" stroke-width="0.5"/>
<path d="M299.749 67.0076L260.249 69.0076C259.749 64.0076 257.582 59.8409 255.749 58.0076L301.749 55.5076M300.249 53.0076C289.249 51.5076 278.249 46.7076 266.249 40.7076M228.249 31.0076L272.249 28.5076L280.749 27.0076" stroke="black" stroke-width="0.5"/>
<path d="M290.249 41.0076C290.249 39.0076 289.249 35.0076 285.749 33.0076C287.97 33.0076 291.347 34.048 293.858 36.4176C294.322 37.9476 293.249 41.5076 290.207 43.0076C290.194 42.4173 290.249 41.7319 290.249 41.0076Z" fill="#E0426F"/>
<path d="M272.249 43.5076C279.245 43.8574 285.262 43.9624 290.642 44.5076M297.249 45.5076C295.146 45.0569 292.953 44.7417 290.642 44.5076M295.249 38.0076C294.831 37.4224 294.362 36.8932 293.858 36.4176M290.642 44.5076C290.316 44.1628 290.222 43.6398 290.207 43.0076M290.207 43.0076C290.194 42.4173 290.249 41.7319 290.249 41.0076C290.249 39.0076 289.249 35.0076 285.749 33.0076C287.97 33.0076 291.347 34.048 293.858 36.4176M290.207 43.0076C293.249 41.5076 294.322 37.9476 293.858 36.4176" stroke="black" stroke-width="0.5"/>
<path d="M290.249 41.0076C285.749 41.0076 283.749 37.0076 282.749 34.5076" stroke="black" stroke-width="0.5"/>
<path d="M132.247 13.1075C118.747 17.1075 106.747 23.0076 92.7471 36.0076C99.7471 24.0076 115.247 14.5076 130.747 9.50757L132.247 13.1075Z" fill="#EDADBF" stroke="black" stroke-width="0.5"/>
<path d="M130.747 9.50757C110.747 15.1816 92.7471 32.5076 84.7471 30.5076C97.7471 21.0076 113.747 12.5076 130.247 8.00757L130.747 9.50757Z" fill="#EDADBF" stroke="black" stroke-width="0.5"/>
<path d="M9.74774 48.5076H3.74774C1.24707 52.5076 1.24707 62.5076 1.74774 66.0076C0.24707 67.0076 0.247668 71.5076 1.24774 73.0076L5.24774 73.5076V75.0076L1.24774 77.0076V79.0076C5.24774 80.0076 13.7477 82.0076 21.7477 81.5076V80.0076H39.2477C38.5811 71.5076 40.2477 61.0076 49.2477 54.0076C46.7477 50.0076 39.7477 45.5076 36.7477 45.0076C26.7477 44.0076 11.7477 46.5076 9.74774 48.5076Z" fill="#EDADBF" stroke="black" stroke-width="0.5"/>
<path d="M92.749 36.0076C74.9157 36.8409 43.249 41.7076 32.749 44.7076L36.749 45.0076C41.749 46.5076 47.249 50.8409 49.249 54.0076C62.248 44.5076 87.748 51.5076 86.248 79.0076H96.248C89.248 68.0076 90.248 46.0076 92.749 36.0076Z" fill="#EDADBF" stroke="black" stroke-width="0.5"/>
<path d="M9.74707 48.5076H3.74707C36.2473 29.0075 58.2473 35.0076 84.2471 30.5076L93.2473 36.0076C76.2473 37.0076 47.2471 40.5076 33.2471 44.7076C25.2471 44.5076 11.2471 46.5076 9.74707 48.5076Z" fill="#EDADBF" stroke="black" stroke-width="0.5"/>
<path d="M36.7485 45.0076C29.2485 44.0076 12.2485 46.0076 9.74852 48.5076C8.94852 50.9076 12.0819 53.8409 13.7485 55.0076C23.2485 56.5076 36.7485 50.5076 36.7485 45.0076Z" fill="#EDADBF" stroke="black" stroke-width="0.5"/>
<path d="M3.74777 48.5076C10.7478 49.5076 4.74777 60.0076 1.74777 65.0076C1.2477 58.0076 1.74756 52.5076 3.74777 48.5076Z" fill="#EDADBF" stroke="black" stroke-width="0.5"/>
<path d="M21.7471 84.5076V80.0076H39.2471L39.7471 84.5076H21.7471Z" fill="#EDADBF" stroke="black" stroke-width="0.5"/>
<path d="M2.24902 66.0076C3.74902 68.5076 5.74902 71.6742 5.24902 73.5076M21.749 80.0076C11.249 80.5076 6.74902 76.5076 7.74902 73.0076C8.24902 72.5076 9.74902 71.0076 10.749 71.0076" stroke="black" stroke-width="0.5"/>
<path d="M31.749 75.0076C29.249 71.0076 23.749 66.0076 20.749 64.5076C18.999 64.0076 16.3739 64.1326 13.6238 64.5076C11.9989 65.841 10.749 69.0076 11.249 72.0076C11.249 73.1742 12.5564 75.5076 15.249 75.5076C19.749 75.5076 26.749 76.0076 31.749 75.0076Z" fill="#EDADBF"/>
<path d="M5.74902 66.0076C7.99897 65.5076 10.8739 64.8826 13.6238 64.5076M13.6238 64.5076C16.3739 64.1326 18.999 64.0076 20.749 64.5076C23.749 66.0076 29.249 71.0076 31.749 75.0076C26.749 76.0076 19.749 75.5076 15.249 75.5076C12.5564 75.5076 11.249 73.1742 11.249 72.0076C10.749 69.0076 11.9989 65.841 13.6238 64.5076Z" stroke="black" stroke-width="0.5"/>
<path d="M11.249 71.5076C19.249 70.0077 22.749 72.6362 25.749 74.1362M12.749 74.5077L30.249 74.0077" stroke="black" stroke-width="0.5"/>
<path d="M21.7471 83.0076H31.2471C33.2471 83.0076 34.7471 81.0076 34.2471 80.0076M37.7471 80.0076V84.5076" stroke="black" stroke-width="0.5"/>
<path d="M21.749 81.5078C17.249 81.5078 12.749 82.0078 1.24897 79.0078V77.0078L5.24897 75.0078V73.5078L1.24897 73.0078C0.748047 71.5076 -0.251757 68.5076 1.74824 66.0076C1.24848 58.0076 1.74848 51.5076 3.74897 48.5073C36.249 29.0077 58.249 35.0078 84.249 30.5078C162.249 -24.4924 244.249 12.5076 281.249 27.0077L294.749 29.0076L295.249 36.0076V39.0076C296.747 44.0076 298.082 48.5076 296.749 50.5076C299.249 51.5076 301.749 54.6742 301.749 56.5076L299.749 66.5076C300.201 77.3555 297.793 77.5798 288.461 77.8922C287.47 77.9254 285.401 77.9596 284.249 78.0076V79.5076L259.249 79.9386M21.749 81.5078V84.5078H39.7473L39.249 80.0078M21.749 81.5078V80.0078H39.249M39.249 80.0078C36.249 38.5078 89.749 41.5078 86.249 80.5078V83.0076H212.749C206.749 39.5076 261.249 39.5076 259.249 79.9386M258.747 79.9386H259.249" stroke="black"/>
</svg>
