<svg width="303" height="96" viewBox="0 0 303 96" fill="none" xmlns="http://www.w3.org/2000/svg">
<circle cx="62.8955" cy="74.2146" r="20.5" fill="#EFC7D3" stroke="black"/>
<circle cx="235.896" cy="74.2146" r="20.5" fill="#EFC7D3" stroke="black"/>
<path d="M132.894 12.7145L131.394 9.21445C171.394 1.21457 192.894 1.7146 231.894 13.2145L228.394 17.7145C208.394 9.71451 190.394 8.71451 174.394 8.21458C171.894 7.71458 167.894 7.71454 165.394 8.21445C155.394 8.21458 143.394 9.71458 132.894 12.7145Z" fill="#E56E90" stroke="black" stroke-width="0.5"/>
<path d="M131.394 9.21464L130.894 7.71464C166.894 -3.2854 199.394 0.714474 234.894 9.71465L231.894 13.2146C191.894 0.7146 165.894 2.2146 131.394 9.21464Z" fill="#E56E90" stroke="black" stroke-width="0.5"/>
<path d="M131.394 9.21447C182.894 -2.28556 211.394 7.71448 231.894 13.2145" stroke="black" stroke-width="0.5"/>
<path d="M170.896 30.2146L174.396 8.2146C207.896 9.2146 219.396 14.7146 223.896 16.2146L226.378 28.2146C199.388 28.2152 181.893 29.7147 170.896 30.2146Z" fill="#E56E90"/>
<path d="M226.896 30.7146L223.896 16.2146C219.396 14.7146 207.896 9.2146 174.396 8.2146L170.896 30.2146C181.896 29.7146 199.396 28.2146 226.396 28.2146" stroke="black" stroke-width="0.5"/>
<path d="M165.396 8.2146C132.396 9.2146 112.396 18.2146 93.3955 35.7146L95.8955 33.7146L159.896 30.7146L165.396 8.2146Z" fill="#E56E90" stroke="black" stroke-width="0.5"/>
<path d="M239.894 22.7146C236.227 20.0479 230.394 17.7146 223.894 16.2146L226.394 28.2146H232.894C235.894 26.7146 238.894 24.4833 239.894 22.7146Z" fill="#E56E90" stroke="black" stroke-width="0.5"/>
<path d="M96.8955 78.7146H163.896L198.396 77.2146H212.896L213.396 82.7146H199.396H98.3955H86.8955V78.7146H96.8955Z" fill="#E56E90"/>
<path d="M96.8955 78.7146H163.896L198.396 77.2146M96.8955 78.7146C96.8955 80.2146 97.3955 81.2146 98.3955 82.7146M96.8955 78.7146H86.8955V82.7146H98.3955M198.396 77.2146L199.396 82.7146M198.396 77.2146H212.896L213.396 82.7146H199.396M199.396 82.7146H98.3955" stroke="black" stroke-width="0.5"/>
<path d="M96.8946 78.7146C92.3955 74.2146 89.3956 52.2146 93.3946 35.7146L165.396 31.7146C161.396 36.7146 160.396 70.7146 163.896 78.7146H96.8946Z" fill="#E56E90" stroke="black" stroke-width="0.5"/>
<path d="M228.895 30.7146L165.395 31.7146C161.396 36.7146 160.396 70.7146 163.895 78.7146L198.395 77.2146C202.895 75.7146 209.395 70.2146 228.895 30.7146Z" fill="#E56E90" stroke="black" stroke-width="0.5"/>
<path d="M170.896 30.2147C166.396 30.7147 162.896 30.7147 159.896 30.7147L165.396 8.21467C168.396 7.7146 171.396 7.7146 174.396 8.21467L170.896 30.2147Z" fill="#E56E90" stroke="black" stroke-width="0.5"/>
<path d="M99.3955 32.2146C103.896 37.7146 110.896 34.2146 114.896 32.7146C115.896 17.2145 102.896 25.2145 99.3955 32.2146Z" fill="#E56E90" stroke="black" stroke-width="0.5"/>
<path d="M234.894 9.7146L231.894 13.2146C248.894 18.7146 259.394 21.7146 271.894 28.2146H273.394L281.394 26.7146C266.394 20.2146 258.894 17.7146 234.894 9.7146Z" stroke="black" stroke-width="0.5"/>
<path d="M271.894 28.2146C261.394 22.7146 242.394 16.2146 231.894 13.2146L229.894 15.7146L244.894 23.2146C243.394 25.7146 239.394 27.7146 233.394 30.4146C245.394 29.7146 262.394 28.7146 271.894 28.2146Z" stroke="black" stroke-width="0.5"/>
<path d="M277.396 34.5146L283.394 32.2146L272.895 28.2146L228.895 30.7146C221.395 45.7146 206.395 76.2146 198.395 77.2146H212.895C211.395 66.2146 220.895 42.7146 245.896 51.7146C256.396 46.2146 266.396 40.7146 277.396 34.5146Z" stroke="black" stroke-width="0.5"/>
<path d="M278.394 34.2146C266.394 40.7146 256.394 46.2146 245.894 51.7146C250.394 54.7146 260.894 60.7146 259.894 79.7146L284.894 79.2146V77.7146C293.394 76.7146 301.894 80.2146 300.394 66.2146L302.394 56.2146C302.394 54.7146 299.894 50.7146 297.394 50.2146C298.894 47.7146 295.894 38.7146 295.894 38.7146V37.2146L291.894 34.2146L286.894 32.7146L283.394 32.2146L278.394 34.2146Z" stroke="black" stroke-width="0.5"/>
<path d="M295.894 37.2146L295.888 37.1348M295.888 37.1348L295.394 28.7146L281.394 26.7146L272.894 28.2146L283.394 32.2146C292.894 33.2146 291.892 34.7146 295.888 37.1348Z" stroke="black" stroke-width="0.5"/>
<path d="M294.396 36.7148C293.896 34.2147 282.896 34.0146 277.396 34.5146" stroke="black" stroke-width="0.5"/>
<path d="M300.396 66.7146L260.896 68.7146C260.396 63.7146 258.229 59.5479 256.396 57.7146L302.396 55.2146M300.896 52.7146C289.896 51.2146 278.896 46.4146 266.896 40.4146M228.896 30.7146L272.896 28.2146L281.396 26.7146" stroke="black" stroke-width="0.5"/>
<path d="M272.896 43.2146C279.891 43.5644 285.908 43.6695 291.289 44.2146M297.896 45.2146C295.793 44.764 293.599 44.4487 291.289 44.2146M295.896 37.7146C295.478 37.1295 295.008 36.6002 294.504 36.1246M291.289 44.2146C290.962 43.8698 290.868 43.3468 290.854 42.7146M290.854 42.7146C290.84 42.1243 290.896 41.4389 290.896 40.7146C290.896 38.7146 289.896 34.7146 286.396 32.7146C288.616 32.7146 291.993 33.755 294.504 36.1246M290.854 42.7146C293.896 41.2146 294.968 37.6546 294.504 36.1246" stroke="black" stroke-width="0.5"/>
<path d="M290.896 40.7146C286.396 40.7146 284.396 36.7146 283.396 34.2146" stroke="black" stroke-width="0.5"/>
<path d="M132.894 12.8146C119.394 16.8146 107.394 22.7146 93.394 35.7146C100.394 23.7146 115.894 14.2146 131.394 9.2146L132.894 12.8146Z" fill="#E56E90" stroke="black" stroke-width="0.5"/>
<path d="M131.394 9.2146C111.394 14.8886 93.394 32.2146 85.394 30.2146C98.394 20.7146 114.394 12.2146 130.894 7.7146L131.394 9.2146Z" fill="#E56E90" stroke="black" stroke-width="0.5"/>
<path d="M10.3947 48.2145H4.39471C1.89404 52.2145 1.89404 62.2145 2.39471 65.7145C0.894043 66.7145 0.89464 71.2145 1.89471 72.7145L5.89471 73.2145V74.7145L1.89471 76.7145V78.7145C5.89471 79.7145 14.3947 81.7145 22.3947 81.2145V79.7145H39.8947C39.228 71.2145 40.8947 60.7145 49.8947 53.7145C47.3947 49.7145 40.3947 45.2145 37.3947 44.7145C27.3947 43.7145 12.3947 46.2145 10.3947 48.2145Z" fill="#E56E90" stroke="black" stroke-width="0.5"/>
<path d="M93.3955 35.7146C75.5622 36.5479 43.8955 41.4146 33.3955 44.4146L37.3955 44.7146C42.3955 46.2146 47.8955 50.5479 49.8955 53.7146C62.8945 44.2146 88.3945 51.2146 86.8945 78.7146H96.8945C89.8945 67.7146 90.8945 45.7146 93.3955 35.7146Z" fill="#E56E90" stroke="black" stroke-width="0.5"/>
<path d="M10.3936 48.2147H4.39355C36.8937 28.7146 58.8938 34.7146 84.8936 30.2146L93.8938 35.7146C76.8938 36.7146 47.8936 40.2146 33.8936 44.4146C25.8936 44.2146 11.8936 46.2146 10.3936 48.2147Z" fill="#E56E90" stroke="black" stroke-width="0.5"/>
<path d="M37.3955 44.7147C29.8955 43.7146 12.8955 45.7146 10.3955 48.2147C9.5955 50.6146 12.7288 53.5479 14.3955 54.7146C23.8955 56.2146 37.3955 50.2146 37.3955 44.7147Z" fill="#E56E90" stroke="black" stroke-width="0.5"/>
<path d="M4.39474 48.2146C11.3947 49.2146 5.39474 59.7146 2.39474 64.7146C1.89467 57.7146 2.39453 52.2146 4.39474 48.2146Z" fill="#E56E90" stroke="black" stroke-width="0.5"/>
<path d="M22.394 84.2146V79.7146H39.894L40.394 84.2146H22.394Z" fill="#E56E90" stroke="black" stroke-width="0.5"/>
<path d="M2.89551 65.7144C4.39551 68.2144 6.39551 71.381 5.89551 73.2144M22.3955 79.7144C11.8955 80.2144 7.39551 76.2144 8.39551 72.7144C8.89551 72.2144 10.3955 70.7144 11.3955 70.7144" stroke="black" stroke-width="0.5"/>
<path d="M32.3955 74.7145C29.8955 70.7145 24.3955 65.7146 21.3955 64.2146C19.6455 63.7145 17.0204 63.8395 14.2703 64.2146C12.6454 65.5479 11.3955 68.7145 11.8955 71.7145C11.8955 72.8811 13.2029 75.2145 15.8955 75.2145C20.3955 75.2145 27.3955 75.7145 32.3955 74.7145Z" fill="#E56E90"/>
<path d="M6.39551 65.7146C8.64545 65.2145 11.5204 64.5896 14.2703 64.2146M14.2703 64.2146C17.0204 63.8395 19.6455 63.7145 21.3955 64.2146C24.3955 65.7146 29.8955 70.7145 32.3955 74.7145C27.3955 75.7145 20.3955 75.2145 15.8955 75.2145C13.2029 75.2145 11.8955 72.8811 11.8955 71.7145C11.3955 68.7145 12.6454 65.5479 14.2703 64.2146Z" stroke="black" stroke-width="0.5"/>
<path d="M11.8955 71.2146C19.8955 69.7146 23.3955 72.3431 26.3955 73.8431M13.3955 74.2146L30.8955 73.7146" stroke="black" stroke-width="0.5"/>
<path d="M22.3936 82.7144H31.8936C33.8936 82.7144 35.3936 80.7144 34.8936 79.7144M38.3936 79.7144V84.2144" stroke="black" stroke-width="0.5"/>
<path d="M22.3955 81.2148C17.8955 81.2148 13.3955 81.7148 1.89545 78.7148V76.7148L5.89545 74.7148V73.2148L1.89545 72.7149C1.39453 71.2146 0.394727 68.2146 2.39472 65.7146C1.89497 57.7146 2.39497 51.2146 4.39545 48.2143C36.8955 28.7147 58.8954 34.7148 84.8954 30.2148C162.895 -24.7853 244.895 12.2146 281.895 26.7148L295.395 28.7146L295.895 35.7146V38.7146C297.394 43.7146 298.729 48.2146 297.395 50.2146C299.895 51.2146 302.395 54.3813 302.395 56.2146L300.395 66.2146C300.847 77.0625 298.439 77.2868 289.108 77.5992C288.117 77.6324 286.048 77.6666 284.895 77.7146V79.2146L259.895 79.6456M22.3955 81.2148V84.2148H40.3938L39.8955 79.7148M22.3955 81.2148V79.7148H39.8955M39.8955 79.7148C36.8955 38.2148 90.3954 41.2148 86.8954 80.2148V82.7146H213.395C207.395 39.2146 261.895 39.2146 259.895 79.6456M259.394 79.6456H259.895" stroke="black"/>
</svg>
