<svg width="303" height="96" viewBox="0 0 303 96" fill="none" xmlns="http://www.w3.org/2000/svg">
<circle cx="62.6562" cy="74.2146" r="20.5" stroke="black"/>
<circle cx="235.656" cy="74.2146" r="20.5" stroke="black"/>
<path d="M132.654 12.7145L131.154 9.21445C171.154 1.21457 192.654 1.7146 231.654 13.2145L228.154 17.7145C208.154 9.71451 190.154 8.71451 174.154 8.21458C171.654 7.71458 167.654 7.71454 165.154 8.21445C155.154 8.21458 143.154 9.71458 132.654 12.7145Z" fill="#E56E90" stroke="black" stroke-width="0.5"/>
<path d="M131.154 9.21464L130.654 7.71464C166.654 -3.2854 199.154 0.714474 234.654 9.71465L231.654 13.2146C191.654 0.7146 165.654 2.2146 131.154 9.21464Z" fill="#E56E90" stroke="black" stroke-width="0.5"/>
<path d="M131.154 9.21447C182.654 -2.28556 211.154 7.71448 231.654 13.2145" stroke="black" stroke-width="0.5"/>
<path d="M170.656 30.2146L174.156 8.2146C207.656 9.2146 219.156 14.7146 223.656 16.2146L226.139 28.2146C199.149 28.2152 181.654 29.7147 170.656 30.2146Z" fill="#E56E90"/>
<path d="M226.656 30.7146L223.656 16.2146C219.156 14.7146 207.656 9.2146 174.156 8.2146L170.656 30.2146C181.656 29.7146 199.156 28.2146 226.156 28.2146" stroke="black" stroke-width="0.5"/>
<path d="M165.156 8.2146C132.156 9.2146 112.156 18.2146 93.1562 35.7146L95.6562 33.7146L159.656 30.7146L165.156 8.2146Z" fill="#E56E90" stroke="black" stroke-width="0.5"/>
<path d="M239.654 22.7146C235.988 20.0479 230.154 17.7146 223.654 16.2146L226.154 28.2146H232.654C235.654 26.7146 238.654 24.4833 239.654 22.7146Z" fill="#E56E90" stroke="black" stroke-width="0.5"/>
<path d="M96.6562 78.7146H163.656L198.156 77.2146H212.656L213.156 82.7146H199.156H98.1562H86.6562V78.7146H96.6562Z" fill="#E56E90"/>
<path d="M96.6562 78.7146H163.656L198.156 77.2146M96.6562 78.7146C96.6562 80.2146 97.1562 81.2146 98.1562 82.7146M96.6562 78.7146H86.6562V82.7146H98.1562M198.156 77.2146L199.156 82.7146M198.156 77.2146H212.656L213.156 82.7146H199.156M199.156 82.7146H98.1562" stroke="black" stroke-width="0.5"/>
<path d="M96.6554 78.7146C92.1562 74.2146 89.1563 52.2146 93.1554 35.7146L165.156 31.7146C161.156 36.7146 160.156 70.7146 163.656 78.7146H96.6554Z" fill="#E56E90" stroke="black" stroke-width="0.5"/>
<path d="M228.656 30.7146L165.156 31.7146C161.156 36.7146 160.156 70.7146 163.656 78.7146L198.156 77.2146C202.656 75.7146 209.156 70.2146 228.656 30.7146Z" fill="#E56E90" stroke="black" stroke-width="0.5"/>
<path d="M170.656 30.2147C166.156 30.7147 162.656 30.7147 159.656 30.7147L165.156 8.21467C168.156 7.7146 171.156 7.7146 174.156 8.21467L170.656 30.2147Z" fill="#E56E90" stroke="black" stroke-width="0.5"/>
<path d="M99.1562 32.2146C103.656 37.7146 110.656 34.2146 114.656 32.7146C115.656 17.2145 102.656 25.2145 99.1562 32.2146Z" fill="#E56E90" stroke="black" stroke-width="0.5"/>
<path d="M234.654 9.7146L231.654 13.2146C248.654 18.7146 259.154 21.7146 271.654 28.2146H273.154L281.154 26.7146C266.154 20.2146 258.654 17.7146 234.654 9.7146Z" fill="#E0426F" stroke="black" stroke-width="0.5"/>
<path d="M271.654 28.2146C261.154 22.7146 242.154 16.2146 231.654 13.2146L229.654 15.7146L244.654 23.2146C243.154 25.7146 239.154 27.7146 233.154 30.4146C245.154 29.7146 262.154 28.7146 271.654 28.2146Z" fill="#E0426F" stroke="black" stroke-width="0.5"/>
<path d="M277.156 34.5146L283.155 32.2146L272.655 28.2146L228.655 30.7146C221.155 45.7146 206.155 76.2146 198.155 77.2146H212.655C211.155 66.2146 220.655 42.7146 245.656 51.7146C256.156 46.2146 266.156 40.7146 277.156 34.5146Z" fill="#E0426F" stroke="black" stroke-width="0.5"/>
<path d="M278.154 34.2146C266.154 40.7146 256.154 46.2146 245.654 51.7146C250.154 54.7146 260.654 60.7146 259.654 79.7146L284.654 79.2146V77.7146C293.154 76.7146 301.654 80.2146 300.154 66.2146L302.154 56.2146C302.154 54.7146 299.654 50.7146 297.154 50.2146C298.654 47.7146 295.654 38.7146 295.654 38.7146V37.2146L291.654 34.2146L286.654 32.7146L283.154 32.2146L278.154 34.2146Z" fill="#E0426F" stroke="black" stroke-width="0.5"/>
<path d="M281.154 26.7146L272.654 28.2146L283.154 32.2146C292.654 33.2146 291.653 34.7146 295.648 37.1348L295.154 28.7146L281.154 26.7146Z" fill="#E0426F"/>
<path d="M295.654 37.2146L295.648 37.1348M295.648 37.1348L295.154 28.7146L281.154 26.7146L272.654 28.2146L283.154 32.2146C292.654 33.2146 291.653 34.7146 295.648 37.1348Z" stroke="black" stroke-width="0.5"/>
<path d="M294.156 36.7148C293.656 34.2147 282.656 34.0146 277.156 34.5146" stroke="black" stroke-width="0.5"/>
<path d="M300.156 66.7146L260.656 68.7146C260.156 63.7146 257.99 59.5479 256.156 57.7146L302.156 55.2146M300.656 52.7146C289.656 51.2146 278.656 46.4146 266.656 40.4146M228.656 30.7146L272.656 28.2146L281.156 26.7146" stroke="black" stroke-width="0.5"/>
<path d="M290.656 40.7146C290.656 38.7146 289.656 34.7146 286.156 32.7146C288.377 32.7146 291.754 33.755 294.265 36.1246C294.729 37.6546 293.656 41.2146 290.614 42.7146C290.601 42.1243 290.656 41.4389 290.656 40.7146Z" fill="#E0426F"/>
<path d="M272.656 43.2146C279.652 43.5644 285.669 43.6695 291.049 44.2146M297.656 45.2146C295.553 44.764 293.36 44.4487 291.049 44.2146M295.656 37.7146C295.238 37.1295 294.769 36.6002 294.265 36.1246M291.049 44.2146C290.723 43.8698 290.629 43.3468 290.614 42.7146M290.614 42.7146C290.601 42.1243 290.656 41.4389 290.656 40.7146C290.656 38.7146 289.656 34.7146 286.156 32.7146C288.377 32.7146 291.754 33.755 294.265 36.1246M290.614 42.7146C293.656 41.2146 294.729 37.6546 294.265 36.1246" stroke="black" stroke-width="0.5"/>
<path d="M290.656 40.7146C286.156 40.7146 284.156 36.7146 283.156 34.2146" stroke="black" stroke-width="0.5"/>
<path d="M132.654 12.8146C119.154 16.8146 107.154 22.7146 93.1543 35.7146C100.154 23.7146 115.654 14.2146 131.154 9.2146L132.654 12.8146Z" fill="#E56E90" stroke="black" stroke-width="0.5"/>
<path d="M131.154 9.2146C111.154 14.8886 93.1543 32.2146 85.1543 30.2146C98.1543 20.7146 114.154 12.2146 130.654 7.7146L131.154 9.2146Z" fill="#E56E90" stroke="black" stroke-width="0.5"/>
<path d="M10.155 48.2145H4.15496C1.6543 52.2145 1.6543 62.2145 2.15496 65.7145C0.654297 66.7145 0.654894 71.2145 1.65496 72.7145L5.65496 73.2145V74.7145L1.65496 76.7145V78.7145C5.65496 79.7145 14.155 81.7145 22.155 81.2145V79.7145H39.655C38.9883 71.2145 40.655 60.7145 49.655 53.7145C47.155 49.7145 40.155 45.2145 37.155 44.7145C27.155 43.7145 12.155 46.2145 10.155 48.2145Z" fill="#E56E90" stroke="black" stroke-width="0.5"/>
<path d="M93.1562 35.7146C75.3229 36.5479 43.6562 41.4146 33.1562 44.4146L37.1562 44.7146C42.1562 46.2146 47.6562 50.5479 49.6562 53.7146C62.6553 44.2146 88.1553 51.2146 86.6553 78.7146H96.6553C89.6553 67.7146 90.6553 45.7146 93.1562 35.7146Z" fill="#E56E90" stroke="black" stroke-width="0.5"/>
<path d="M10.1543 48.2147H4.1543C36.6545 28.7146 58.6545 34.7146 84.6543 30.2146L93.6545 35.7146C76.6545 36.7146 47.6543 40.2146 33.6543 44.4146C25.6543 44.2146 11.6543 46.2146 10.1543 48.2147Z" fill="#E56E90" stroke="black" stroke-width="0.5"/>
<path d="M37.1558 44.7147C29.6558 43.7146 12.6558 45.7146 10.1558 48.2147C9.35575 50.6146 12.4891 53.5479 14.1558 54.7146C23.6558 56.2146 37.1558 50.2146 37.1558 44.7147Z" fill="#E56E90" stroke="black" stroke-width="0.5"/>
<path d="M4.15499 48.2146C11.155 49.2146 5.15499 59.7146 2.15499 64.7146C1.65492 57.7146 2.15479 52.2146 4.15499 48.2146Z" fill="#E56E90" stroke="black" stroke-width="0.5"/>
<path d="M22.1543 84.2146V79.7146H39.6543L40.1543 84.2146H22.1543Z" fill="#E56E90" stroke="black" stroke-width="0.5"/>
<path d="M2.65625 65.7144C4.15625 68.2144 6.15625 71.381 5.65625 73.2144M22.1562 79.7144C11.6562 80.2144 7.15625 76.2144 8.15625 72.7144C8.65625 72.2144 10.1562 70.7144 11.1562 70.7144" stroke="black" stroke-width="0.5"/>
<path d="M32.1562 74.7145C29.6562 70.7145 24.1562 65.7146 21.1562 64.2146C19.4062 63.7145 16.7811 63.8395 14.031 64.2146C12.4061 65.5479 11.1562 68.7145 11.6562 71.7145C11.6562 72.8811 12.9637 75.2145 15.6562 75.2145C20.1562 75.2145 27.1562 75.7145 32.1562 74.7145Z" fill="#E56E90"/>
<path d="M6.15625 65.7146C8.40619 65.2145 11.2811 64.5896 14.031 64.2146M14.031 64.2146C16.7811 63.8395 19.4062 63.7145 21.1562 64.2146C24.1562 65.7146 29.6562 70.7145 32.1562 74.7145C27.1562 75.7145 20.1562 75.2145 15.6562 75.2145C12.9637 75.2145 11.6562 72.8811 11.6562 71.7145C11.1562 68.7145 12.4061 65.5479 14.031 64.2146Z" stroke="black" stroke-width="0.5"/>
<path d="M11.6562 71.2146C19.6562 69.7146 23.1562 72.3431 26.1562 73.8431M13.1562 74.2146L30.6562 73.7146" stroke="black" stroke-width="0.5"/>
<path d="M22.1543 82.7144H31.6543C33.6543 82.7144 35.1543 80.7144 34.6543 79.7144M38.1543 79.7144V84.2144" stroke="black" stroke-width="0.5"/>
<path d="M22.1562 81.2148C17.6562 81.2148 13.1562 81.7148 1.6562 78.7148V76.7148L5.6562 74.7148V73.2148L1.6562 72.7149C1.15527 71.2146 0.155469 68.2146 2.15546 65.7146C1.65571 57.7146 2.15571 51.2146 4.1562 48.2143C36.6562 28.7147 58.6562 34.7148 84.6562 30.2148C162.656 -24.7853 244.656 12.2146 281.656 26.7148L295.156 28.7146L295.656 35.7146V38.7146C297.155 43.7146 298.49 48.2146 297.156 50.2146C299.656 51.2146 302.156 54.3813 302.156 56.2146L300.156 66.2146C300.608 77.0625 298.2 77.2868 288.868 77.5992C287.877 77.6324 285.808 77.6666 284.656 77.7146V79.2146L259.656 79.6456M22.1562 81.2148V84.2148H40.1545L39.6562 79.7148M22.1562 81.2148V79.7148H39.6562M39.6562 79.7148C36.6562 38.2148 90.1562 41.2148 86.6562 80.2148V82.7146H213.156C207.156 39.2146 261.656 39.2146 259.656 79.6456M259.155 79.6456H259.656" stroke="black"/>
</svg>
