<svg width="303" height="95" viewBox="0 0 303 95" fill="none" xmlns="http://www.w3.org/2000/svg">
<circle cx="62.249" cy="73.8914" r="20.5" fill="#E56E90" stroke="black"/>
<circle cx="235.249" cy="73.8914" r="20.5" fill="#E56E90" stroke="black"/>
<path d="M132.247 12.3912L130.747 8.89121C170.747 0.891325 192.247 1.39136 231.247 12.8913L227.747 17.3913C207.747 9.39127 189.747 8.39127 173.747 7.89133C171.247 7.39133 167.247 7.3913 164.747 7.89121C154.747 7.89133 142.747 9.39134 132.247 12.3912Z" fill="#E0426F" stroke="black" stroke-width="0.5"/>
<path d="M130.747 8.8914L130.247 7.3914C166.247 -3.60864 198.747 0.391232 234.247 9.3914L231.247 12.8914C191.247 0.391357 165.247 1.89136 130.747 8.8914Z" fill="#E0426F" stroke="black" stroke-width="0.5"/>
<path d="M130.747 8.89122C182.247 -2.6088 210.747 7.39124 231.247 12.8912" stroke="black" stroke-width="0.5"/>
<path d="M170.249 29.8914L173.749 7.89136C207.249 8.89136 218.749 14.3914 223.249 15.8914L225.732 27.8914C198.742 27.892 181.247 29.3915 170.249 29.8914Z" fill="#E0426F"/>
<path d="M226.249 30.3914L223.249 15.8914C218.749 14.3914 207.249 8.89136 173.749 7.89136L170.249 29.8914C181.249 29.3914 198.749 27.8914 225.749 27.8914" stroke="black" stroke-width="0.5"/>
<path d="M164.749 7.89136C131.749 8.89136 111.749 17.8914 92.749 35.3914L95.249 33.3914L159.249 30.3914L164.749 7.89136Z" fill="#E0426F" stroke="black" stroke-width="0.5"/>
<path d="M239.247 22.3914C235.58 19.7247 229.747 17.3914 223.247 15.8914L225.747 27.8914H232.247C235.247 26.3914 238.247 24.1601 239.247 22.3914Z" fill="#E0426F" stroke="black" stroke-width="0.5"/>
<path d="M96.249 78.3914H163.249L197.749 76.8914H212.249L212.749 82.3914H198.749H97.749H86.249V78.3914H96.249Z" fill="#E0426F"/>
<path d="M96.249 78.3914H163.249L197.749 76.8914M96.249 78.3914C96.249 79.8914 96.749 80.8914 97.749 82.3914M96.249 78.3914H86.249V82.3914H97.749M197.749 76.8914L198.749 82.3914M197.749 76.8914H212.249L212.749 82.3914H198.749M198.749 82.3914H97.749" stroke="black" stroke-width="0.5"/>
<path d="M96.2482 78.3914C91.749 73.8914 88.7491 51.8914 92.7482 35.3914L164.749 31.3914C160.749 36.3914 159.749 70.3914 163.249 78.3914H96.2482Z" fill="#E0426F" stroke="black" stroke-width="0.5"/>
<path d="M228.249 30.3914L164.749 31.3914C160.749 36.3914 159.749 70.3914 163.249 78.3914L197.749 76.8914C202.249 75.3914 208.749 69.8914 228.249 30.3914Z" fill="#E0426F" stroke="black" stroke-width="0.5"/>
<path d="M170.249 29.8914C165.749 30.3914 162.249 30.3914 159.249 30.3914L164.749 7.89143C167.749 7.39136 170.749 7.39136 173.749 7.89143L170.249 29.8914Z" fill="#E0426F" stroke="black" stroke-width="0.5"/>
<path d="M98.749 31.8914C103.249 37.3914 110.249 33.8914 114.249 32.3914C115.249 16.8913 102.249 24.8912 98.749 31.8914Z" fill="#E0426F" stroke="black" stroke-width="0.5"/>
<path d="M234.247 9.39136L231.247 12.8914C248.247 18.3914 258.747 21.3914 271.247 27.8914H272.747L280.747 26.3914C265.747 19.8914 258.247 17.3914 234.247 9.39136Z" fill="#E0426F" stroke="black" stroke-width="0.5"/>
<path d="M271.247 27.8914C260.747 22.3914 241.747 15.8914 231.247 12.8914L229.247 15.3914L244.247 22.8914C242.747 25.3914 238.747 27.3914 232.747 30.0914C244.747 29.3914 261.747 28.3914 271.247 27.8914Z" fill="#E0426F" stroke="black" stroke-width="0.5"/>
<path d="M276.749 34.1914L282.747 31.8914L272.248 27.8914L228.248 30.3914C220.748 45.3914 205.748 75.8914 197.748 76.8914H212.248C210.748 65.8914 220.248 42.3914 245.249 51.3914C255.749 45.8914 265.749 40.3914 276.749 34.1914Z" fill="#E0426F" stroke="black" stroke-width="0.5"/>
<path d="M277.747 33.8914C265.747 40.3914 255.747 45.8914 245.247 51.3914C249.747 54.3914 260.247 60.3914 259.247 79.3914L284.247 78.8914V77.3914C292.747 76.3914 301.247 79.8914 299.747 65.8914L301.747 55.8914C301.747 54.3914 299.247 50.3914 296.747 49.8914C298.247 47.3914 295.247 38.3914 295.247 38.3914V36.8914L291.247 33.8914L286.247 32.3914L282.747 31.8914L277.747 33.8914Z" fill="#E0426F" stroke="black" stroke-width="0.5"/>
<path d="M280.747 26.3914L272.247 27.8914L282.747 31.8914C292.247 32.8914 291.246 34.3914 295.241 36.8115L294.747 28.3914L280.747 26.3914Z" fill="#E0426F"/>
<path d="M295.247 36.8914L295.241 36.8115M295.241 36.8115L294.747 28.3914L280.747 26.3914L272.247 27.8914L282.747 31.8914C292.247 32.8914 291.246 34.3914 295.241 36.8115Z" stroke="black" stroke-width="0.5"/>
<path d="M293.749 36.3916C293.249 33.8914 282.249 33.6914 276.749 34.1914" stroke="black" stroke-width="0.5"/>
<path d="M299.749 66.3914L260.249 68.3914C259.749 63.3914 257.582 59.2247 255.749 57.3914L301.749 54.8914M300.249 52.3914C289.249 50.8914 278.249 46.0914 266.249 40.0914M228.249 30.3914L272.249 27.8914L280.749 26.3914" stroke="black" stroke-width="0.5"/>
<path d="M290.249 40.3914C290.249 38.3914 289.249 34.3914 285.749 32.3914C287.97 32.3914 291.347 33.4317 293.858 35.8013C294.322 37.3313 293.249 40.8914 290.207 42.3914C290.194 41.8011 290.249 41.1156 290.249 40.3914Z" fill="#E0426F"/>
<path d="M272.249 42.8914C279.245 43.2411 285.262 43.3462 290.642 43.8914M297.249 44.8914C295.146 44.4407 292.953 44.1255 290.642 43.8914M295.249 37.3914C294.831 36.8062 294.362 36.277 293.858 35.8013M290.642 43.8914C290.316 43.5466 290.222 43.0235 290.207 42.3914M290.207 42.3914C290.194 41.8011 290.249 41.1156 290.249 40.3914C290.249 38.3914 289.249 34.3914 285.749 32.3914C287.97 32.3914 291.347 33.4317 293.858 35.8013M290.207 42.3914C293.249 40.8914 294.322 37.3313 293.858 35.8013" stroke="black" stroke-width="0.5"/>
<path d="M290.249 40.3914C285.749 40.3914 283.749 36.3914 282.749 33.8914" stroke="black" stroke-width="0.5"/>
<path d="M132.247 12.4913C118.747 16.4913 106.747 22.3914 92.7471 35.3914C99.7471 23.3914 115.247 13.8914 130.747 8.89136L132.247 12.4913Z" fill="#EDADBF" stroke="black" stroke-width="0.5"/>
<path d="M130.747 8.89136C110.747 14.5654 92.7471 31.8914 84.7471 29.8914C97.7471 20.3914 113.747 11.8914 130.247 7.39136L130.747 8.89136Z" fill="#EDADBF" stroke="black" stroke-width="0.5"/>
<path d="M9.74774 47.8912H3.74774C1.24707 51.8912 1.24707 61.8912 1.74774 65.3912C0.24707 66.3912 0.247668 70.8912 1.24774 72.3912L5.24774 72.8912V74.3912L1.24774 76.3912V78.3912C5.24774 79.3912 13.7477 81.3912 21.7477 80.8912V79.3912H39.2477C38.5811 70.8912 40.2477 60.3912 49.2477 53.3912C46.7477 49.3912 39.7477 44.8912 36.7477 44.3912C26.7477 43.3912 11.7477 45.8912 9.74774 47.8912Z" fill="#EDADBF" stroke="black" stroke-width="0.5"/>
<path d="M92.749 35.3914C74.9157 36.2247 43.249 41.0914 32.749 44.0914L36.749 44.3914C41.749 45.8914 47.249 50.2247 49.249 53.3914C62.248 43.8914 87.748 50.8914 86.248 78.3914H96.248C89.248 67.3914 90.248 45.3914 92.749 35.3914Z" fill="#EDADBF" stroke="black" stroke-width="0.5"/>
<path d="M9.74707 47.8914H3.74707C36.2473 28.3913 58.2473 34.3914 84.2471 29.8914L93.2473 35.3914C76.2473 36.3914 47.2471 39.8914 33.2471 44.0914C25.2471 43.8913 11.2471 45.8914 9.74707 47.8914Z" fill="#EDADBF" stroke="black" stroke-width="0.5"/>
<path d="M36.7485 44.3914C29.2485 43.3914 12.2485 45.3914 9.74852 47.8914C8.94852 50.2914 12.0819 53.2247 13.7485 54.3914C23.2485 55.8914 36.7485 49.8914 36.7485 44.3914Z" fill="#EDADBF" stroke="black" stroke-width="0.5"/>
<path d="M3.74777 47.8914C10.7478 48.8914 4.74777 59.3914 1.74777 64.3914C1.2477 57.3914 1.74756 51.8914 3.74777 47.8914Z" fill="#EDADBF" stroke="black" stroke-width="0.5"/>
<path d="M21.7471 83.8914V79.3914H39.2471L39.7471 83.8914H21.7471Z" fill="#EDADBF" stroke="black" stroke-width="0.5"/>
<path d="M2.24902 65.3911C3.74902 67.8911 5.74902 71.0578 5.24902 72.8911M21.749 79.3911C11.249 79.8911 6.74902 75.8911 7.74902 72.3911C8.24902 71.8911 9.74902 70.3911 10.749 70.3911" stroke="black" stroke-width="0.5"/>
<path d="M31.749 74.3912C29.249 70.3912 23.749 65.3913 20.749 63.8913C18.999 63.3913 16.3739 63.5163 13.6238 63.8913C11.9989 65.2246 10.749 68.3912 11.249 71.3912C11.249 72.5579 12.5564 74.8912 15.249 74.8912C19.749 74.8912 26.749 75.3912 31.749 74.3912Z" fill="#EDADBF"/>
<path d="M5.74902 65.3913C7.99897 64.8913 10.8739 64.2663 13.6238 63.8913M13.6238 63.8913C16.3739 63.5163 18.999 63.3913 20.749 63.8913C23.749 65.3913 29.249 70.3912 31.749 74.3912C26.749 75.3912 19.749 74.8912 15.249 74.8912C12.5564 74.8912 11.249 72.5579 11.249 71.3912C10.749 68.3912 11.9989 65.2246 13.6238 63.8913Z" stroke="black" stroke-width="0.5"/>
<path d="M11.249 70.8913C19.249 69.3914 22.749 72.0198 25.749 73.5198M12.749 73.8914L30.249 73.3914" stroke="black" stroke-width="0.5"/>
<path d="M21.7471 82.3911H31.2471C33.2471 82.3911 34.7471 80.3911 34.2471 79.3911M37.7471 79.3911V83.8911" stroke="black" stroke-width="0.5"/>
<path d="M21.749 80.8916C17.249 80.8916 12.749 81.3916 1.24897 78.3916V76.3916L5.24897 74.3916V72.8916L1.24897 72.3916C0.748047 70.8914 -0.251757 67.8914 1.74824 65.3914C1.24848 57.3914 1.74848 50.8914 3.74897 47.8911C36.249 28.3915 58.249 34.3915 84.249 29.8915C162.249 -25.1086 244.249 11.8913 281.249 26.3915L294.749 28.3914L295.249 35.3914V38.3914C296.747 43.3914 298.082 47.8914 296.749 49.8914C299.249 50.8914 301.749 54.058 301.749 55.8914L299.749 65.8914C300.201 76.7393 297.793 76.9635 288.461 77.276C287.47 77.3092 285.401 77.3434 284.249 77.3914V78.8914L259.249 79.3224M21.749 80.8916V83.8916H39.7473L39.249 79.3916M21.749 80.8916V79.3916H39.249M39.249 79.3916C36.249 37.8916 89.749 40.8916 86.249 79.8916V82.3914H212.749C206.749 38.8914 261.249 38.8914 259.249 79.3224M258.747 79.3224H259.249" stroke="black"/>
</svg>
