<svg width="303" height="95" viewBox="0 0 303 95" fill="none" xmlns="http://www.w3.org/2000/svg">
<circle cx="62.6875" cy="73.8459" r="20.5" stroke="black"/>
<circle cx="235.688" cy="73.8459" r="20.5" stroke="black"/>
<path d="M132.686 12.3458L131.186 8.8458C171.186 0.845915 192.686 1.34595 231.686 12.8459L228.186 17.3459C208.186 9.34586 190.186 8.34586 174.186 7.84592C171.686 7.34592 167.686 7.34589 165.186 7.8458C155.186 7.84592 143.186 9.34592 132.686 12.3458Z" stroke="black" stroke-width="0.5"/>
<path d="M131.186 8.84599L130.686 7.34599C166.686 -3.65405 199.186 0.345821 234.686 9.34599L231.686 12.846C191.686 0.345947 165.686 1.84595 131.186 8.84599Z" stroke="black" stroke-width="0.5"/>
<path d="M131.186 8.84593C182.686 -2.65409 211.186 7.34595 231.686 12.8459" stroke="black" stroke-width="0.5"/>
<path d="M226.688 30.3459L223.688 15.8459C219.188 14.3459 207.688 8.84595 174.188 7.84595L170.688 29.8459C181.688 29.3459 199.188 27.8459 226.188 27.8459" stroke="black" stroke-width="0.5"/>
<path d="M165.188 7.84595C132.188 8.84595 112.188 17.8459 93.1875 35.3459L95.6875 33.3459L159.688 30.3459L165.188 7.84595Z" stroke="black" stroke-width="0.5"/>
<path d="M239.686 22.3459C236.019 19.6793 230.186 17.3459 223.686 15.8459L226.186 27.8459H232.686C235.686 26.3459 238.686 24.1147 239.686 22.3459Z" stroke="black" stroke-width="0.5"/>
<path d="M96.6875 78.3459H163.688L198.188 76.8459M96.6875 78.3459C96.6875 79.8459 97.1875 80.8459 98.1875 82.3459M96.6875 78.3459H86.6875V82.3459H98.1875M198.188 76.8459L199.188 82.3459M198.188 76.8459H212.688L213.188 82.3459H199.188M199.188 82.3459H98.1875" stroke="black" stroke-width="0.5"/>
<path d="M96.6866 78.3459C92.1875 73.8459 89.1875 51.8459 93.1866 35.3459L165.188 31.3459C161.188 36.3459 160.188 70.3459 163.687 78.3459H96.6866Z" stroke="black" stroke-width="0.5"/>
<path d="M228.687 30.3459L165.187 31.3459C161.188 36.3459 160.188 70.3459 163.687 78.3459L198.187 76.8459C202.687 75.3459 209.187 69.8459 228.687 30.3459Z" stroke="black" stroke-width="0.5"/>
<path d="M170.688 29.846C166.188 30.346 162.688 30.346 159.688 30.346L165.188 7.84602C168.188 7.34595 171.188 7.34595 174.188 7.84602L170.688 29.846Z" stroke="black" stroke-width="0.5"/>
<path d="M99.1875 31.8461C103.688 37.3461 110.688 33.8461 114.688 32.3461C115.688 16.846 102.688 24.8459 99.1875 31.8461Z" stroke="black" stroke-width="0.5"/>
<path d="M234.686 9.34595L231.686 12.8459C248.686 18.3459 259.186 21.3459 271.686 27.8459H273.186L281.186 26.3459C266.186 19.8459 258.686 17.3459 234.686 9.34595Z" fill="#EFC7D3" stroke="black" stroke-width="0.5"/>
<path d="M271.686 27.8459C261.186 22.3459 242.186 15.8459 231.686 12.8459L229.686 15.3459L244.686 22.8459C243.186 25.3459 239.186 27.3459 233.186 30.0459C245.186 29.3459 262.186 28.3459 271.686 27.8459Z" fill="#EFC7D3" stroke="black" stroke-width="0.5"/>
<path d="M277.188 34.1459L283.186 31.8459L272.687 27.8459L228.687 30.3459C221.187 45.3459 206.187 75.8459 198.187 76.8459H212.687C211.187 65.8459 220.687 42.3459 245.688 51.3459C256.188 45.8459 266.188 40.3459 277.188 34.1459Z" fill="#EFC7D3" stroke="black" stroke-width="0.5"/>
<path d="M278.186 33.846C266.186 40.346 256.186 45.846 245.686 51.346C250.186 54.3459 260.686 60.3459 259.686 79.3459L284.686 78.8459V77.3459C293.186 76.3459 301.686 79.8459 300.186 65.8459L302.186 55.8459C302.186 54.3459 299.686 50.3459 297.186 49.8459C298.686 47.3459 295.686 38.3459 295.686 38.3459V36.8459L291.686 33.8459L286.686 32.3459L283.186 31.8459L278.186 33.846Z" fill="#EFC7D3" stroke="black" stroke-width="0.5"/>
<path d="M281.186 26.3459L272.686 27.8459L283.186 31.8459C292.686 32.8459 291.684 34.3459 295.68 36.7661L295.186 28.3459L281.186 26.3459Z" fill="#EFC7D3"/>
<path d="M295.686 36.8459L295.68 36.7661M295.68 36.7661L295.186 28.3459L281.186 26.3459L272.686 27.8459L283.186 31.8459C292.686 32.8459 291.684 34.3459 295.68 36.7661Z" stroke="black" stroke-width="0.5"/>
<path d="M294.188 36.3461C293.688 33.846 282.688 33.646 277.188 34.146" stroke="black" stroke-width="0.5"/>
<path d="M300.188 66.3459L260.688 68.3459C260.188 63.3459 258.021 59.1793 256.188 57.3459L302.188 54.8459M300.688 52.3459C289.688 50.8459 278.688 46.0459 266.688 40.0459M228.688 30.3459L272.688 27.8459L281.188 26.3459" stroke="black" stroke-width="0.5"/>
<path d="M290.688 40.3459C290.688 38.3459 289.688 34.3459 286.188 32.3459C288.408 32.3459 291.785 33.3863 294.296 35.7559C294.76 37.2859 293.688 40.8459 290.646 42.3459C290.632 41.7557 290.688 41.0702 290.688 40.3459Z" fill="#EFC7D3"/>
<path d="M272.688 42.8459C279.683 43.1957 285.7 43.3008 291.081 43.8459M297.688 44.8459C295.585 44.3953 293.391 44.08 291.081 43.8459M295.688 37.3459C295.27 36.7608 294.8 36.2316 294.296 35.7559M291.081 43.8459C290.754 43.5012 290.66 42.9781 290.646 42.3459M290.646 42.3459C290.632 41.7557 290.688 41.0702 290.688 40.3459C290.688 38.3459 289.688 34.3459 286.188 32.3459C288.408 32.3459 291.785 33.3863 294.296 35.7559M290.646 42.3459C293.688 40.8459 294.76 37.2859 294.296 35.7559" stroke="black" stroke-width="0.5"/>
<path d="M290.688 40.3459C286.188 40.3459 284.188 36.3459 283.188 33.8459" stroke="black" stroke-width="0.5"/>
<path d="M132.686 12.4459C119.186 16.4459 107.186 22.3459 93.186 35.3459C100.186 23.3459 115.686 13.8459 131.186 8.84595L132.686 12.4459Z" fill="#E0426F" stroke="black" stroke-width="0.5"/>
<path d="M131.186 8.84595C111.186 14.52 93.186 31.8459 85.186 29.8459C98.186 20.3459 114.186 11.8459 130.686 7.34595L131.186 8.84595Z" fill="#E0426F" stroke="black" stroke-width="0.5"/>
<path d="M10.1867 47.846H4.1867C1.68604 51.8459 1.68604 61.8459 2.1867 65.3459C0.686035 66.3459 0.686633 70.8459 1.6867 72.3459L5.6867 72.8459V74.3459L1.6867 76.3459V78.3459C5.6867 79.3459 14.1867 81.3459 22.1867 80.8459V79.3459H39.6867C39.02 70.8459 40.6867 60.3459 49.6867 53.3459C47.1867 49.3459 40.1867 44.8459 37.1867 44.346C27.1867 43.3459 12.1867 45.846 10.1867 47.846Z" fill="#E0426F" stroke="black" stroke-width="0.5"/>
<path d="M93.1875 35.3459C75.3542 36.1793 43.6875 41.0459 33.1875 44.0459L37.1875 44.3459C42.1875 45.8459 47.6875 50.1793 49.6875 53.3459C62.6865 43.8459 88.1865 50.8459 86.6865 78.3459H96.6865C89.6865 67.3459 90.6865 45.3459 93.1875 35.3459Z" fill="#E0426F" stroke="black" stroke-width="0.5"/>
<path d="M10.1855 47.846H4.18555C36.6857 28.3459 58.6858 34.3459 84.6855 29.8459L93.6858 35.3459C76.6858 36.3459 47.6855 39.8459 33.6855 44.046C25.6855 43.8459 11.6855 45.8459 10.1855 47.846Z" fill="#E0426F" stroke="black" stroke-width="0.5"/>
<path d="M37.1875 44.346C29.6875 43.3459 12.6875 45.3459 10.1875 47.846C9.38749 50.246 12.5208 53.1793 14.1875 54.3459C23.6875 55.8459 37.1875 49.8459 37.1875 44.346Z" fill="#E0426F" stroke="black" stroke-width="0.5"/>
<path d="M4.18673 47.8459C11.1867 48.8459 5.18673 59.3459 2.18673 64.3459C1.68666 57.3459 2.18652 51.8459 4.18673 47.8459Z" fill="#E0426F" stroke="black" stroke-width="0.5"/>
<path d="M22.186 83.8459V79.3459H39.686L40.186 83.8459H22.186Z" fill="#E0426F" stroke="black" stroke-width="0.5"/>
<path d="M2.6875 65.3459C4.1875 67.8459 6.1875 71.0126 5.6875 72.8459M22.1875 79.3459C11.6875 79.8459 7.1875 75.8459 8.1875 72.3459C8.6875 71.8459 10.1875 70.3459 11.1875 70.3459" stroke="black" stroke-width="0.5"/>
<path d="M32.1875 74.3459C29.6875 70.3459 24.1875 65.346 21.1875 63.846C19.4375 63.346 16.8124 63.471 14.0623 63.846C12.4374 65.1793 11.1875 68.3459 11.6875 71.3459C11.6875 72.5126 12.9949 74.8459 15.6875 74.8459C20.1875 74.8459 27.1875 75.3459 32.1875 74.3459Z" fill="#E0426F"/>
<path d="M6.1875 65.346C8.43744 64.846 11.3124 64.221 14.0623 63.846M14.0623 63.846C16.8124 63.471 19.4375 63.346 21.1875 63.846C24.1875 65.346 29.6875 70.3459 32.1875 74.3459C27.1875 75.3459 20.1875 74.8459 15.6875 74.8459C12.9949 74.8459 11.6875 72.5126 11.6875 71.3459C11.1875 68.3459 12.4374 65.1793 14.0623 63.846Z" stroke="black" stroke-width="0.5"/>
<path d="M11.6875 70.846C19.6875 69.3461 23.1875 71.9745 26.1875 73.4745M13.1875 73.8461L30.6875 73.3461" stroke="black" stroke-width="0.5"/>
<path d="M22.1855 82.3459H31.6855C33.6855 82.3459 35.1855 80.3459 34.6855 79.3459M38.1855 79.3459V83.8459" stroke="black" stroke-width="0.5"/>
<path d="M22.1874 80.8462C17.6874 80.8462 13.1874 81.3462 1.68745 78.3462V76.3462L5.68745 74.3462V72.8462L1.68745 72.3462C1.18652 70.8459 0.186719 67.8459 2.18671 65.3459C1.68696 57.3459 2.18696 50.8459 4.18745 47.8457C36.6874 28.3461 58.6874 34.3461 84.6874 29.8461C162.687 -25.154 244.687 11.8459 281.687 26.3461L295.187 28.3459L295.687 35.3459V38.3459C297.186 43.3459 298.521 47.8459 297.187 49.8459C299.687 50.8459 302.187 54.0126 302.187 55.8459L300.187 65.8459C300.639 76.6939 298.231 76.9181 288.9 77.2306C287.909 77.2638 285.84 77.2979 284.687 77.3459V78.8459L259.687 79.277M22.1874 80.8462V83.8462H40.1858L39.6875 79.3462M22.1874 80.8462V79.3462H39.6875M39.6875 79.3462C36.6875 37.8462 90.1874 40.8462 86.6874 79.8462V82.3459H213.187C207.187 38.8459 261.687 38.8459 259.687 79.277M259.186 79.277H259.687" stroke="black"/>
</svg>
