<svg width="303" height="95" viewBox="0 0 303 95" fill="none" xmlns="http://www.w3.org/2000/svg">
<circle cx="62.876" cy="73.6768" r="20.5" fill="#EFC7D3" stroke="black"/>
<circle cx="235.876" cy="73.6768" r="20.5" fill="#EFC7D3" stroke="black"/>
<path d="M132.874 12.1766L131.374 8.67661C171.374 0.676725 192.874 1.17676 231.874 12.6767L228.374 17.1767C208.374 9.17667 190.374 8.17667 174.374 7.67673C171.874 7.17673 167.874 7.1767 165.374 7.67661C155.374 7.67673 143.374 9.17674 132.874 12.1766Z" stroke="black" stroke-width="0.5"/>
<path d="M131.374 8.6768L130.874 7.1768C166.874 -3.82324 199.374 0.176632 234.874 9.1768L231.874 12.6768C191.874 0.176758 165.874 1.67676 131.374 8.6768Z" stroke="black" stroke-width="0.5"/>
<path d="M131.374 8.67675C182.874 -2.82328 211.374 7.17676 231.874 12.6767" stroke="black" stroke-width="0.5"/>
<path d="M226.876 30.1768L223.876 15.6768C219.376 14.1768 207.876 8.67676 174.376 7.67676L170.876 29.6768C181.876 29.1768 199.376 27.6768 226.376 27.6768" stroke="black" stroke-width="0.5"/>
<path d="M165.376 7.67676C132.376 8.67676 112.376 17.6768 93.376 35.1768L95.876 33.1768L159.876 30.1768L165.376 7.67676Z" stroke="black" stroke-width="0.5"/>
<path d="M239.874 22.1768C236.207 19.5101 230.374 17.1768 223.874 15.6768L226.374 27.6768H232.874C235.874 26.1768 238.874 23.9455 239.874 22.1768Z" stroke="black" stroke-width="0.5"/>
<path d="M96.876 78.1768H163.876L198.376 76.6768M96.876 78.1768C96.876 79.6768 97.376 80.6768 98.376 82.1768M96.876 78.1768H86.876V82.1768H98.376M198.376 76.6768L199.376 82.1768M198.376 76.6768H212.876L213.376 82.1768H199.376M199.376 82.1768H98.376" stroke="black" stroke-width="0.5"/>
<path d="M96.8751 78.1768C92.376 73.6768 89.376 51.6768 93.3751 35.1768L165.376 31.1768C161.376 36.1768 160.376 70.1768 163.876 78.1768H96.8751Z" stroke="black" stroke-width="0.5"/>
<path d="M228.876 30.1768L165.376 31.1768C161.376 36.1768 160.376 70.1768 163.876 78.1768L198.376 76.6768C202.876 75.1768 209.376 69.6768 228.876 30.1768Z" stroke="black" stroke-width="0.5"/>
<path d="M170.876 29.6768C166.376 30.1768 162.876 30.1768 159.876 30.1768L165.376 7.67683C168.376 7.17676 171.376 7.17676 174.376 7.67683L170.876 29.6768Z" stroke="black" stroke-width="0.5"/>
<path d="M99.376 31.6769C103.876 37.1769 110.876 33.6769 114.876 32.1769C115.876 16.6768 102.876 24.6768 99.376 31.6769Z" stroke="black" stroke-width="0.5"/>
<path d="M234.874 9.17676L231.874 12.6768C248.874 18.1768 259.374 21.1768 271.874 27.6768H273.374L281.374 26.1768C266.374 19.6768 258.874 17.1768 234.874 9.17676Z" fill="#EDADBF" stroke="black" stroke-width="0.5"/>
<path d="M271.874 27.6768C261.374 22.1768 242.374 15.6768 231.874 12.6768L229.874 15.1768L244.874 22.6768C243.374 25.1768 239.374 27.1768 233.374 29.8768C245.374 29.1768 262.374 28.1768 271.874 27.6768Z" fill="#EDADBF" stroke="black" stroke-width="0.5"/>
<path d="M277.376 33.9768L283.374 31.6768L272.875 27.6768L228.875 30.1768C221.375 45.1768 206.375 75.6768 198.375 76.6768H212.875C211.375 65.6768 220.875 42.1768 245.876 51.1768C256.376 45.6768 266.376 40.1768 277.376 33.9768Z" fill="#EDADBF" stroke="black" stroke-width="0.5"/>
<path d="M278.374 33.6768C266.374 40.1768 256.374 45.6768 245.874 51.1768C250.374 54.1768 260.874 60.1768 259.874 79.1768L284.874 78.6768V77.1768C293.374 76.1768 301.874 79.6768 300.374 65.6768L302.374 55.6768C302.374 54.1768 299.874 50.1768 297.374 49.6768C298.874 47.1768 295.874 38.1768 295.874 38.1768V36.6768L291.874 33.6768L286.874 32.1768L283.374 31.6768L278.374 33.6768Z" fill="#EDADBF" stroke="black" stroke-width="0.5"/>
<path d="M281.374 26.1768L272.874 27.6768L283.374 31.6768C292.874 32.6768 291.873 34.1768 295.868 36.5969L295.374 28.1768L281.374 26.1768Z" fill="#EDADBF"/>
<path d="M295.874 36.6768L295.868 36.5969M295.868 36.5969L295.374 28.1768L281.374 26.1768L272.874 27.6768L283.374 31.6768C292.874 32.6768 291.873 34.1768 295.868 36.5969Z" stroke="black" stroke-width="0.5"/>
<path d="M294.376 36.177C293.876 33.6768 282.876 33.4768 277.376 33.9768" stroke="black" stroke-width="0.5"/>
<path d="M300.376 66.1768L260.876 68.1768C260.376 63.1768 258.209 59.0101 256.376 57.1768L302.376 54.6768M300.876 52.1768C289.876 50.6768 278.876 45.8768 266.876 39.8768M228.876 30.1768L272.876 27.6768L281.376 26.1768" stroke="black" stroke-width="0.5"/>
<path d="M290.876 40.1768C290.876 38.1768 289.876 34.1768 286.376 32.1768C288.597 32.1768 291.974 33.2171 294.485 35.5867C294.949 37.1167 293.876 40.6768 290.834 42.1768C290.821 41.5865 290.876 40.901 290.876 40.1768Z" fill="#EDADBF"/>
<path d="M272.876 42.6768C279.872 43.0265 285.889 43.1316 291.269 43.6768M297.876 44.6768C295.773 44.2261 293.58 43.9109 291.269 43.6768M295.876 37.1768C295.458 36.5916 294.989 36.0624 294.485 35.5867M291.269 43.6768C290.943 43.332 290.849 42.8089 290.834 42.1768M290.834 42.1768C290.821 41.5865 290.876 40.901 290.876 40.1768C290.876 38.1768 289.876 34.1768 286.376 32.1768C288.597 32.1768 291.974 33.2171 294.485 35.5867M290.834 42.1768C293.876 40.6768 294.949 37.1167 294.485 35.5867" stroke="black" stroke-width="0.5"/>
<path d="M290.876 40.1768C286.376 40.1768 284.376 36.1768 283.376 33.6768" stroke="black" stroke-width="0.5"/>
<path d="M132.874 12.2767C119.374 16.2767 107.374 22.1768 93.374 35.1768C100.374 23.1768 115.874 13.6768 131.374 8.67676L132.874 12.2767Z" fill="#E56E90" stroke="black" stroke-width="0.5"/>
<path d="M131.374 8.67676C111.374 14.3508 93.374 31.6768 85.374 29.6768C98.374 20.1768 114.374 11.6768 130.874 7.17676L131.374 8.67676Z" fill="#E56E90" stroke="black" stroke-width="0.5"/>
<path d="M10.3747 47.6768H4.37469C1.87402 51.6768 1.87402 61.6768 2.37469 65.1768C0.874023 66.1768 0.874621 70.6768 1.87469 72.1768L5.87469 72.6768V74.1768L1.87469 76.1768V78.1768C5.87469 79.1768 14.3747 81.1768 22.3747 80.6768V79.1768H39.8747C39.208 70.6768 40.8747 60.1768 49.8747 53.1768C47.3747 49.1768 40.3747 44.6768 37.3747 44.1768C27.3747 43.1768 12.3747 45.6768 10.3747 47.6768Z" fill="#E56E90" stroke="black" stroke-width="0.5"/>
<path d="M93.376 35.1768C75.5426 36.0101 43.876 40.8768 33.376 43.8768L37.376 44.1768C42.376 45.6768 47.876 50.0101 49.876 53.1768C62.875 43.6768 88.375 50.6768 86.875 78.1768H96.875C89.875 67.1768 90.875 45.1768 93.376 35.1768Z" fill="#E56E90" stroke="black" stroke-width="0.5"/>
<path d="M10.374 47.6768H4.37402C36.8742 28.1767 58.8743 34.1768 84.874 29.6768L93.8743 35.1768C76.8743 36.1768 47.874 39.6768 33.874 43.8768C25.874 43.6767 11.874 45.6768 10.374 47.6768Z" fill="#E56E90" stroke="black" stroke-width="0.5"/>
<path d="M37.3755 44.1768C29.8755 43.1768 12.8755 45.1768 10.3755 47.6768C9.57548 50.0768 12.7088 53.0101 14.3755 54.1768C23.8755 55.6768 37.3755 49.6768 37.3755 44.1768Z" fill="#E56E90" stroke="black" stroke-width="0.5"/>
<path d="M4.37472 47.6768C11.3747 48.6768 5.37472 59.1768 2.37472 64.1768C1.87465 57.1768 2.37451 51.6768 4.37472 47.6768Z" fill="#E56E90" stroke="black" stroke-width="0.5"/>
<path d="M22.374 83.6768V79.1768H39.874L40.374 83.6768H22.374Z" fill="#E56E90" stroke="black" stroke-width="0.5"/>
<path d="M2.87598 65.1768C4.37598 67.6768 6.37598 70.8434 5.87598 72.6768M22.376 79.1768C11.876 79.6768 7.37598 75.6768 8.37598 72.1768C8.87598 71.6768 10.376 70.1768 11.376 70.1768" stroke="black" stroke-width="0.5"/>
<path d="M32.376 74.1768C29.876 70.1768 24.376 65.1768 21.376 63.6768C19.6259 63.1768 17.0008 63.3018 14.2508 63.6768C12.6258 65.0101 11.376 68.1768 11.876 71.1768C11.876 72.3434 13.1834 74.6768 15.876 74.6768C20.376 74.6768 27.376 75.1768 32.376 74.1768Z" fill="#E56E90"/>
<path d="M6.37598 65.1768C8.62592 64.6768 11.5008 64.0518 14.2508 63.6768M14.2508 63.6768C17.0008 63.3018 19.6259 63.1768 21.376 63.6768C24.376 65.1768 29.876 70.1768 32.376 74.1768C27.376 75.1768 20.376 74.6768 15.876 74.6768C13.1834 74.6768 11.876 72.3434 11.876 71.1768C11.376 68.1768 12.6258 65.0101 14.2508 63.6768Z" stroke="black" stroke-width="0.5"/>
<path d="M11.876 70.6768C19.876 69.1769 23.376 71.8054 26.376 73.3054M13.376 73.6769L30.876 73.1769" stroke="black" stroke-width="0.5"/>
<path d="M22.374 82.1768H31.874C33.874 82.1768 35.374 80.1768 34.874 79.1768M38.374 79.1768V83.6768" stroke="black" stroke-width="0.5"/>
<path d="M22.3759 80.677C17.8759 80.677 13.3759 81.177 1.87592 78.177V76.177L5.87592 74.177V72.677L1.87592 72.177C1.375 70.6768 0.375196 67.6768 2.37519 65.1768C1.87543 57.1768 2.37543 50.6768 4.37592 47.6765C36.8759 28.1769 58.8759 34.1769 84.8759 29.6769C162.876 -25.3232 244.876 11.6767 281.876 26.1769L295.376 28.1768L295.876 35.1768V38.1768C297.374 43.1768 298.709 47.6768 297.376 49.6768C299.876 50.6768 302.376 53.8434 302.376 55.6768L300.376 65.6768C300.828 76.5247 298.42 76.7489 289.088 77.0614C288.097 77.0946 286.028 77.1288 284.876 77.1768V78.6768L259.876 79.1078M22.3759 80.677V83.677H40.3743L39.8759 79.177M22.3759 80.677V79.177H39.8759M39.8759 79.177C36.8759 37.677 90.3759 40.677 86.8759 79.677V82.1768H213.376C207.376 38.6768 261.876 38.6768 259.876 79.1078M259.374 79.1078H259.876" stroke="black"/>
</svg>
