<svg width="303" height="96" viewBox="0 0 303 96" fill="none" xmlns="http://www.w3.org/2000/svg">
<circle cx="62.2817" cy="74.2297" r="20.5" fill="#E56E90" stroke="black"/>
<circle cx="235.282" cy="74.2297" r="20.5" fill="#E56E90" stroke="black"/>
<path d="M132.28 12.7296L130.78 9.22959C170.78 1.2297 192.28 1.72974 231.28 13.2297L227.78 17.7297C207.78 9.72965 189.78 8.72964 173.78 8.22971C171.28 7.72971 167.28 7.72968 164.78 8.22959C154.78 8.22971 142.78 9.72971 132.28 12.7296Z" fill="#E0426F" stroke="black" stroke-width="0.5"/>
<path d="M130.78 9.22978L130.28 7.72978C166.28 -3.27026 198.78 0.72961 234.28 9.72978L231.28 13.2298C191.28 0.729736 165.28 2.22974 130.78 9.22978Z" fill="#E0426F" stroke="black" stroke-width="0.5"/>
<path d="M130.78 9.2296C182.28 -2.27042 210.78 7.72961 231.28 13.2296" stroke="black" stroke-width="0.5"/>
<path d="M170.282 30.2297L173.782 8.22974C207.282 9.22974 218.782 14.7297 223.282 16.2297L225.764 28.2297C198.774 28.2304 181.279 29.7298 170.282 30.2297Z" fill="#E0426F"/>
<path d="M226.282 30.7297L223.282 16.2297C218.782 14.7297 207.282 9.22974 173.782 8.22974L170.282 30.2297C181.282 29.7297 198.782 28.2297 225.782 28.2297" stroke="black" stroke-width="0.5"/>
<path d="M164.782 8.22974C131.782 9.22974 111.782 18.2297 92.7817 35.7297L95.2817 33.7297L159.282 30.7297L164.782 8.22974Z" fill="#E0426F" stroke="black" stroke-width="0.5"/>
<path d="M239.28 22.7297C235.614 20.0631 229.78 17.7297 223.28 16.2297L225.78 28.2297H232.28C235.28 26.7297 238.28 24.4985 239.28 22.7297Z" fill="#E0426F" stroke="black" stroke-width="0.5"/>
<path d="M96.2817 78.7297H163.282L197.782 77.2297H212.282L212.782 82.7297H198.782H97.7817H86.2817V78.7297H96.2817Z" fill="#E0426F"/>
<path d="M96.2817 78.7297H163.282L197.782 77.2297M96.2817 78.7297C96.2817 80.2297 96.7817 81.2297 97.7817 82.7297M96.2817 78.7297H86.2817V82.7297H97.7817M197.782 77.2297L198.782 82.7297M197.782 77.2297H212.282L212.782 82.7297H198.782M198.782 82.7297H97.7817" stroke="black" stroke-width="0.5"/>
<path d="M96.2809 78.7297C91.7817 74.2297 88.7818 52.2297 92.7809 35.7297L164.782 31.7297C160.782 36.7297 159.782 70.7297 163.282 78.7297H96.2809Z" fill="#E0426F" stroke="black" stroke-width="0.5"/>
<path d="M228.281 30.7297L164.781 31.7297C160.781 36.7297 159.781 70.7297 163.281 78.7297L197.781 77.2297C202.281 75.7297 208.781 70.2297 228.281 30.7297Z" fill="#E0426F" stroke="black" stroke-width="0.5"/>
<path d="M170.282 30.2298C165.782 30.7298 162.282 30.7298 159.282 30.7298L164.782 8.22981C167.782 7.72974 170.782 7.72974 173.782 8.22981L170.282 30.2298Z" fill="#E0426F" stroke="black" stroke-width="0.5"/>
<path d="M98.7817 32.2297C103.282 37.7297 110.282 34.2297 114.282 32.7297C115.282 17.2296 102.282 25.2296 98.7817 32.2297Z" fill="#E0426F" stroke="black" stroke-width="0.5"/>
<path d="M234.28 9.72974L231.28 13.2297C248.28 18.7297 258.78 21.7297 271.28 28.2297H272.78L280.78 26.7297C265.78 20.2297 258.28 17.7297 234.28 9.72974Z" fill="#EFC7D3" stroke="black" stroke-width="0.5"/>
<path d="M271.28 28.2297C260.78 22.7297 241.78 16.2297 231.28 13.2297L229.28 15.7297L244.28 23.2297C242.78 25.7297 238.78 27.7297 232.78 30.4297C244.78 29.7297 261.78 28.7297 271.28 28.2297Z" fill="#EFC7D3" stroke="black" stroke-width="0.5"/>
<path d="M276.782 34.5297L282.78 32.2297L272.281 28.2297L228.281 30.7297C220.781 45.7297 205.781 76.2297 197.781 77.2297H212.281C210.781 66.2297 220.281 42.7297 245.282 51.7297C255.782 46.2297 265.782 40.7297 276.782 34.5297Z" fill="#EFC7D3" stroke="black" stroke-width="0.5"/>
<path d="M277.78 34.2298C265.78 40.7298 255.78 46.2298 245.28 51.7298C249.78 54.7297 260.28 60.7297 259.28 79.7297L284.28 79.2297V77.7297C292.78 76.7297 301.28 80.2297 299.78 66.2297L301.78 56.2297C301.78 54.7297 299.28 50.7297 296.78 50.2297C298.28 47.7297 295.28 38.7297 295.28 38.7297V37.2297L291.28 34.2297L286.28 32.7297L282.78 32.2297L277.78 34.2298Z" fill="#EFC7D3" stroke="black" stroke-width="0.5"/>
<path d="M280.78 26.7297L272.28 28.2297L282.78 32.2297C292.28 33.2297 291.279 34.7297 295.274 37.1499L294.78 28.7297L280.78 26.7297Z" fill="#EFC7D3"/>
<path d="M295.28 37.2297L295.274 37.1499M295.274 37.1499L294.78 28.7297L280.78 26.7297L272.28 28.2297L282.78 32.2297C292.28 33.2297 291.279 34.7297 295.274 37.1499Z" stroke="black" stroke-width="0.5"/>
<path d="M293.782 36.7299C293.282 34.2298 282.282 34.0297 276.782 34.5297" stroke="black" stroke-width="0.5"/>
<path d="M299.782 66.7297L260.282 68.7297C259.782 63.7297 257.615 59.5631 255.782 57.7297L301.782 55.2297M300.282 52.7297C289.282 51.2297 278.282 46.4297 266.282 40.4297M228.282 30.7297L272.282 28.2297L280.782 26.7297" stroke="black" stroke-width="0.5"/>
<path d="M290.282 40.7297C290.282 38.7297 289.282 34.7297 285.782 32.7297C288.003 32.7297 291.379 33.7701 293.891 36.1397C294.354 37.6697 293.282 41.2297 290.24 42.7297C290.226 42.1395 290.282 41.454 290.282 40.7297Z" fill="#EFC7D3"/>
<path d="M272.282 43.2297C279.277 43.5795 285.294 43.6846 290.675 44.2297M297.282 45.2297C295.179 44.7791 292.985 44.4638 290.675 44.2297M295.282 37.7297C294.864 37.1446 294.395 36.6154 293.891 36.1397M290.675 44.2297C290.349 43.885 290.255 43.3619 290.24 42.7297M290.24 42.7297C290.226 42.1395 290.282 41.454 290.282 40.7297C290.282 38.7297 289.282 34.7297 285.782 32.7297C288.003 32.7297 291.379 33.7701 293.891 36.1397M290.24 42.7297C293.282 41.2297 294.354 37.6697 293.891 36.1397" stroke="black" stroke-width="0.5"/>
<path d="M290.282 40.7297C285.782 40.7297 283.782 36.7297 282.782 34.2297" stroke="black" stroke-width="0.5"/>
<path d="M132.28 12.8297C118.78 16.8297 106.78 22.7297 92.7803 35.7297C99.7803 23.7297 115.28 14.2297 130.78 9.22974L132.28 12.8297Z" fill="#E0426F" stroke="black" stroke-width="0.5"/>
<path d="M130.78 9.22974C110.78 14.9038 92.7803 32.2297 84.7803 30.2297C97.7803 20.7297 113.78 12.2297 130.28 7.72974L130.78 9.22974Z" fill="#E0426F" stroke="black" stroke-width="0.5"/>
<path d="M9.78094 48.2296H3.78094C1.28027 52.2296 1.28027 62.2296 1.78094 65.7296C0.280273 66.7296 0.280871 71.2296 1.28094 72.7296L5.28094 73.2296V74.7296L1.28094 76.7296V78.7296C5.28094 79.7296 13.7809 81.7296 21.7809 81.2296V79.7296H39.2809C38.6143 71.2296 40.2809 60.7296 49.2809 53.7296C46.7809 49.7296 39.7809 45.2296 36.7809 44.7296C26.7809 43.7296 11.7809 46.2296 9.78094 48.2296Z" fill="#E0426F" stroke="black" stroke-width="0.5"/>
<path d="M92.7817 35.7297C74.9484 36.5631 43.2817 41.4297 32.7817 44.4297L36.7817 44.7297C41.7817 46.2297 47.2817 50.5631 49.2817 53.7297C62.2808 44.2297 87.7808 51.2297 86.2808 78.7297H96.2808C89.2808 67.7297 90.2808 45.7297 92.7817 35.7297Z" fill="#E0426F" stroke="black" stroke-width="0.5"/>
<path d="M9.78027 48.2298H3.78027C36.2805 28.7297 58.2805 34.7297 84.2803 30.2297L93.2805 35.7297C76.2805 36.7297 47.2803 40.2297 33.2803 44.4297C25.2803 44.2297 11.2803 46.2297 9.78027 48.2298Z" fill="#E0426F" stroke="black" stroke-width="0.5"/>
<path d="M36.7817 44.7298C29.2817 43.7297 12.2817 45.7297 9.78173 48.2298C8.98173 50.6298 12.1151 53.5631 13.7817 54.7297C23.2817 56.2297 36.7817 50.2297 36.7817 44.7298Z" fill="#E0426F" stroke="black" stroke-width="0.5"/>
<path d="M3.78097 48.2297C10.781 49.2297 4.78097 59.7297 1.78097 64.7297C1.2809 57.7297 1.78076 52.2297 3.78097 48.2297Z" fill="#E0426F" stroke="black" stroke-width="0.5"/>
<path d="M21.7803 84.2297V79.7297H39.2803L39.7803 84.2297H21.7803Z" fill="#E0426F" stroke="black" stroke-width="0.5"/>
<path d="M2.28223 65.7295C3.78223 68.2295 5.78223 71.3962 5.28223 73.2295M21.7822 79.7295C11.2822 80.2295 6.78223 76.2295 7.78223 72.7295C8.28223 72.2295 9.78223 70.7295 10.7822 70.7295" stroke="black" stroke-width="0.5"/>
<path d="M31.7822 74.7296C29.2822 70.7296 23.7822 65.7297 20.7822 64.2297C19.0322 63.7297 16.4071 63.8547 13.657 64.2297C12.0321 65.563 10.7822 68.7296 11.2822 71.7296C11.2822 72.8963 12.5896 75.2296 15.2822 75.2296C19.7822 75.2296 26.7822 75.7296 31.7822 74.7296Z" fill="#E0426F"/>
<path d="M5.78223 65.7297C8.03217 65.2297 10.9071 64.6047 13.657 64.2297M13.657 64.2297C16.4071 63.8547 19.0322 63.7297 20.7822 64.2297C23.7822 65.7297 29.2822 70.7296 31.7822 74.7296C26.7822 75.7296 19.7822 75.2296 15.2822 75.2296C12.5896 75.2296 11.2822 72.8963 11.2822 71.7296C10.7822 68.7296 12.0321 65.563 13.657 64.2297Z" stroke="black" stroke-width="0.5"/>
<path d="M11.2822 71.2297C19.2822 69.7297 22.7822 72.3582 25.7822 73.8582M12.7822 74.2297L30.2822 73.7297" stroke="black" stroke-width="0.5"/>
<path d="M21.7803 82.7295H31.2803C33.2803 82.7295 34.7803 80.7295 34.2803 79.7295M37.7803 79.7295V84.2295" stroke="black" stroke-width="0.5"/>
<path d="M21.7817 81.23C17.2817 81.23 12.7817 81.73 1.28168 78.73V76.73L5.28168 74.73V73.23L1.28168 72.73C0.780762 71.2297 -0.219042 68.2297 1.78095 65.7297C1.2812 57.7297 1.7812 51.2297 3.78168 48.2295C36.2817 28.7299 58.2817 34.7299 84.2817 30.2299C162.282 -24.7702 244.282 12.2297 281.282 26.7299L294.782 28.7297L295.282 35.7297V38.7297C296.78 43.7297 298.115 48.2297 296.782 50.2297C299.282 51.2297 301.782 54.3964 301.782 56.2297L299.782 66.2297C300.234 77.0776 297.826 77.3019 288.494 77.6144C287.503 77.6476 285.434 77.6817 284.282 77.7297V79.2297L259.282 79.6608M21.7817 81.23V84.23H39.78L39.2817 79.73M21.7817 81.23V79.73H39.2817M39.2817 79.73C36.2817 38.23 89.7817 41.23 86.2817 80.23V82.7297H212.782C206.782 39.2297 261.282 39.2297 259.282 79.6608M258.78 79.6608H259.282" stroke="black"/>
</svg>
