<svg width="304" height="96" viewBox="0 0 304 96" fill="none" xmlns="http://www.w3.org/2000/svg">
<circle cx="63.0518" cy="74.5378" r="20.5" fill="#EDADBF" stroke="black"/>
<circle cx="236.052" cy="74.5378" r="20.5" fill="#EDADBF" stroke="black"/>
<path d="M133.05 13.0377L131.55 9.5377C171.55 1.53781 193.05 2.03784 232.05 13.5378L228.55 18.0378C208.55 10.0378 190.55 9.03775 174.55 8.53782C172.05 8.03782 168.05 8.03778 165.55 8.5377C155.55 8.53782 143.55 10.0378 133.05 13.0377Z" fill="#EDADBF" stroke="black" stroke-width="0.5"/>
<path d="M131.55 9.53789L131.05 8.03789C167.05 -2.96216 199.55 1.03772 235.05 10.0379L232.05 13.5379C192.05 1.03784 166.05 2.53784 131.55 9.53789Z" fill="#EDADBF" stroke="black" stroke-width="0.5"/>
<path d="M131.55 9.53771C183.05 -1.96232 211.55 8.03772 232.05 13.5377" stroke="black" stroke-width="0.5"/>
<path d="M171.052 30.5378L174.552 8.53784C208.052 9.53784 219.552 15.0378 224.052 16.5378L226.535 28.5378C199.544 28.5385 182.049 30.0379 171.052 30.5378Z" fill="#EDADBF"/>
<path d="M227.052 31.0378L224.052 16.5378C219.552 15.0378 208.052 9.53784 174.552 8.53784L171.052 30.5378C182.052 30.0378 199.552 28.5378 226.552 28.5378" stroke="black" stroke-width="0.5"/>
<path d="M165.552 8.53784C132.552 9.53784 112.552 18.5378 93.5518 36.0378L96.0518 34.0378L160.052 31.0378L165.552 8.53784Z" fill="#EDADBF" stroke="black" stroke-width="0.5"/>
<path d="M240.05 23.0378C236.383 20.3712 230.55 18.0378 224.05 16.5378L226.55 28.5378H233.05C236.05 27.0378 239.05 24.8066 240.05 23.0378Z" fill="#EDADBF" stroke="black" stroke-width="0.5"/>
<path d="M97.0518 79.0378H164.052L198.552 77.5378H213.052L213.552 83.0378H199.552H98.5518H87.0518V79.0378H97.0518Z" fill="#EDADBF"/>
<path d="M97.0518 79.0378H164.052L198.552 77.5378M97.0518 79.0378C97.0518 80.5378 97.5518 81.5378 98.5518 83.0378M97.0518 79.0378H87.0518V83.0378H98.5518M198.552 77.5378L199.552 83.0378M198.552 77.5378H213.052L213.552 83.0378H199.552M199.552 83.0378H98.5518" stroke="black" stroke-width="0.5"/>
<path d="M97.0509 79.0378C92.5518 74.5378 89.5518 52.5378 93.5509 36.0378L165.552 32.0378C161.552 37.0378 160.552 71.0378 164.052 79.0378H97.0509Z" fill="#EDADBF" stroke="black" stroke-width="0.5"/>
<path d="M229.052 31.0378L165.552 32.0378C161.552 37.0378 160.552 71.0378 164.052 79.0378L198.552 77.5378C203.052 76.0378 209.552 70.5378 229.052 31.0378Z" fill="#EDADBF" stroke="black" stroke-width="0.5"/>
<path d="M171.052 30.5379C166.552 31.0379 163.052 31.0379 160.052 31.0379L165.552 8.53792C168.552 8.03784 171.552 8.03784 174.552 8.53792L171.052 30.5379Z" fill="#EDADBF" stroke="black" stroke-width="0.5"/>
<path d="M99.5518 32.5379C104.052 38.0379 111.052 34.5379 115.052 33.0379C116.052 17.5377 103.052 25.5377 99.5518 32.5379Z" fill="#EDADBF" stroke="black" stroke-width="0.5"/>
<path d="M235.05 10.0378L232.05 13.5378C249.05 19.0378 259.55 22.0378 272.05 28.5378H273.55L281.55 27.0378C266.55 20.5378 259.05 18.0378 235.05 10.0378Z" fill="#E0426F" stroke="black" stroke-width="0.5"/>
<path d="M272.05 28.5378C261.55 23.0378 242.55 16.5378 232.05 13.5378L230.05 16.0378L245.05 23.5378C243.55 26.0378 239.55 28.0378 233.55 30.7378C245.55 30.0378 262.55 29.0378 272.05 28.5378Z" fill="#E0426F" stroke="black" stroke-width="0.5"/>
<path d="M277.552 34.8378L283.55 32.5378L273.051 28.5378L229.051 31.0378C221.551 46.0378 206.551 76.5378 198.551 77.5378H213.051C211.551 66.5378 221.051 43.0378 246.052 52.0378C256.552 46.5378 266.552 41.0378 277.552 34.8378Z" fill="#E0426F" stroke="black" stroke-width="0.5"/>
<path d="M278.55 34.5379C266.55 41.0379 256.55 46.5379 246.05 52.0379C250.55 55.0378 261.05 61.0378 260.05 80.0378L285.05 79.5378V78.0378C293.55 77.0378 302.05 80.5378 300.55 66.5378L302.55 56.5378C302.55 55.0378 300.05 51.0378 297.55 50.5378C299.05 48.0378 296.05 39.0378 296.05 39.0378V37.5378L292.05 34.5378L287.05 33.0378L283.55 32.5378L278.55 34.5379Z" fill="#E0426F" stroke="black" stroke-width="0.5"/>
<path d="M281.55 27.0378L273.05 28.5378L283.55 32.5378C293.05 33.5378 292.049 35.0378 296.044 37.458L295.55 29.0378L281.55 27.0378Z" fill="#E0426F"/>
<path d="M296.05 37.5378L296.044 37.458M296.044 37.458L295.55 29.0378L281.55 27.0378L273.05 28.5378L283.55 32.5378C293.05 33.5378 292.049 35.0378 296.044 37.458Z" stroke="black" stroke-width="0.5"/>
<path d="M294.552 37.038C294.052 34.5379 283.052 34.3379 277.552 34.8379" stroke="black" stroke-width="0.5"/>
<path d="M300.552 67.0378L261.052 69.0378C260.552 64.0378 258.385 59.8712 256.552 58.0378L302.552 55.5378M301.052 53.0378C290.052 51.5378 279.052 46.7378 267.052 40.7378M229.052 31.0378L273.052 28.5378L281.552 27.0378" stroke="black" stroke-width="0.5"/>
<path d="M291.052 41.0378C291.052 39.0378 290.052 35.0378 286.552 33.0378C288.773 33.0378 292.149 34.0782 294.661 36.4478C295.124 37.9778 294.052 41.5378 291.01 43.0378C290.996 42.4476 291.052 41.7621 291.052 41.0378Z" fill="#E0426F"/>
<path d="M273.052 43.5378C280.047 43.8876 286.064 43.9927 291.445 44.5378M298.052 45.5378C295.949 45.0872 293.756 44.7719 291.445 44.5378M296.052 38.0378C295.634 37.4527 295.165 36.9235 294.661 36.4478M291.445 44.5378C291.119 44.1931 291.025 43.67 291.01 43.0378M291.01 43.0378C290.996 42.4476 291.052 41.7621 291.052 41.0378C291.052 39.0378 290.052 35.0378 286.552 33.0378C288.773 33.0378 292.149 34.0782 294.661 36.4478M291.01 43.0378C294.052 41.5378 295.124 37.9778 294.661 36.4478" stroke="black" stroke-width="0.5"/>
<path d="M291.052 41.0378C286.552 41.0378 284.552 37.0378 283.552 34.5378" stroke="black" stroke-width="0.5"/>
<path d="M133.05 13.1378C119.55 17.1378 107.55 23.0378 93.5498 36.0378C100.55 24.0378 116.05 14.5378 131.55 9.53784L133.05 13.1378Z" fill="#E0426F" stroke="black" stroke-width="0.5"/>
<path d="M131.55 9.53784C111.55 15.2119 93.5498 32.5378 85.5498 30.5378C98.5498 21.0378 114.55 12.5378 131.05 8.03784L131.55 9.53784Z" fill="#E0426F" stroke="black" stroke-width="0.5"/>
<path d="M10.5505 48.5377H4.55047C2.0498 52.5377 2.0498 62.5377 2.55047 66.0377C1.0498 67.0377 1.0504 71.5377 2.05047 73.0377L6.05047 73.5377V75.0377L2.05047 77.0377V79.0377C6.05047 80.0377 14.5505 82.0377 22.5505 81.5377V80.0377H40.0505C39.3838 71.5377 41.0505 61.0377 50.0505 54.0377C47.5505 50.0377 40.5505 45.5377 37.5505 45.0377C27.5505 44.0377 12.5505 46.5377 10.5505 48.5377Z" fill="#E0426F" stroke="black" stroke-width="0.5"/>
<path d="M93.5518 36.0378C75.7184 36.8712 44.0518 41.7378 33.5518 44.7378L37.5518 45.0378C42.5518 46.5378 48.0518 50.8712 50.0518 54.0378C63.0508 44.5378 88.5508 51.5378 87.0508 79.0378H97.0508C90.0508 68.0378 91.0508 46.0378 93.5518 36.0378Z" fill="#E0426F" stroke="black" stroke-width="0.5"/>
<path d="M10.5498 48.5379H4.5498C37.05 29.0378 59.05 35.0378 85.0498 30.5378L94.05 36.0378C77.05 37.0378 48.0498 40.5378 34.0498 44.7378C26.0498 44.5378 12.0498 46.5378 10.5498 48.5379Z" fill="#E0426F" stroke="black" stroke-width="0.5"/>
<path d="M37.5513 45.0379C30.0513 44.0378 13.0513 46.0378 10.5513 48.5379C9.75126 50.9379 12.8846 53.8712 14.5513 55.0378C24.0513 56.5378 37.5513 50.5378 37.5513 45.0379Z" fill="#E0426F" stroke="black" stroke-width="0.5"/>
<path d="M4.5505 48.5378C11.5505 49.5378 5.5505 60.0378 2.5505 65.0378C2.05043 58.0378 2.55029 52.5378 4.5505 48.5378Z" fill="#E0426F" stroke="black" stroke-width="0.5"/>
<path d="M22.5498 84.5378V80.0378H40.0498L40.5498 84.5378H22.5498Z" fill="#E0426F" stroke="black" stroke-width="0.5"/>
<path d="M3.05176 66.0376C4.55176 68.5376 6.55176 71.7043 6.05176 73.5376M22.5518 80.0376C12.0518 80.5376 7.55176 76.5376 8.55176 73.0376C9.05176 72.5376 10.5518 71.0376 11.5518 71.0376" stroke="black" stroke-width="0.5"/>
<path d="M32.5518 75.0377C30.0518 71.0377 24.5518 66.0378 21.5518 64.5378C19.8017 64.0378 17.1766 64.1628 14.4265 64.5378C12.8016 65.8711 11.5518 69.0377 12.0518 72.0377C12.0518 73.2044 13.3592 75.5377 16.0518 75.5377C20.5518 75.5377 27.5518 76.0377 32.5518 75.0377Z" fill="#E0426F"/>
<path d="M6.55176 66.0378C8.8017 65.5378 11.6766 64.9128 14.4265 64.5378M14.4265 64.5378C17.1766 64.1628 19.8017 64.0378 21.5518 64.5378C24.5518 66.0378 30.0518 71.0377 32.5518 75.0377C27.5518 76.0377 20.5518 75.5377 16.0518 75.5377C13.3592 75.5377 12.0518 73.2044 12.0518 72.0377C11.5518 69.0377 12.8016 65.8711 14.4265 64.5378Z" stroke="black" stroke-width="0.5"/>
<path d="M12.0518 71.5378C20.0518 70.0378 23.5518 72.6663 26.5518 74.1663M13.5518 74.5378L31.0518 74.0378" stroke="black" stroke-width="0.5"/>
<path d="M22.5498 83.0376H32.0498C34.0498 83.0376 35.5498 81.0376 35.0498 80.0376M38.5498 80.0376V84.5376" stroke="black" stroke-width="0.5"/>
<path d="M22.5517 81.5381C18.0517 81.5381 13.5517 82.0381 2.0517 79.0381V77.0381L6.0517 75.0381V73.5381L2.0517 73.0381C1.55078 71.5378 0.550977 68.5378 2.55097 66.0378C2.05122 58.0378 2.55122 51.5378 4.5517 48.5376C37.0517 29.038 59.0517 35.038 85.0517 30.538C163.052 -24.4621 245.052 12.5378 282.052 27.038L295.552 29.0378L296.052 36.0378V39.0378C297.55 44.0378 298.885 48.5378 297.552 50.5378C300.052 51.5378 302.552 54.7045 302.552 56.5378L300.552 66.5378C301.004 77.3858 298.596 77.61 289.264 77.9225C288.273 77.9557 286.204 77.9898 285.052 78.0378V79.5378L260.052 79.9689M22.5517 81.5381V84.5381H40.55L40.0517 80.0381M22.5517 81.5381V80.0381H40.0517M40.0517 80.0381C37.0517 38.5381 90.5517 41.5381 87.0517 80.5381V83.0378H213.552C207.552 39.5378 262.052 39.5378 260.052 79.9689M259.55 79.9689H260.052" stroke="black"/>
</svg>
