<svg width="303" height="96" viewBox="0 0 303 96" fill="none" xmlns="http://www.w3.org/2000/svg">
<circle cx="62.4795" cy="74.0151" r="20.5" fill="#E0426F" stroke="black"/>
<circle cx="235.479" cy="74.0151" r="20.5" fill="#E0426F" stroke="black"/>
<path d="M132.478 12.515L130.978 9.01499C170.978 1.0151 192.478 1.51514 231.478 13.0151L227.978 17.5151C207.978 9.51505 189.978 8.51505 173.978 8.01511C171.478 7.51511 167.478 7.51508 164.978 8.01499C154.978 8.01511 142.978 9.51511 132.478 12.515Z" fill="#EFC7D3" stroke="black" stroke-width="0.5"/>
<path d="M130.978 9.01518L130.478 7.51518C166.478 -3.48486 198.978 0.515011 234.478 9.51518L231.478 13.0152C191.478 0.515137 165.478 2.01514 130.978 9.01518Z" fill="#EFC7D3" stroke="black" stroke-width="0.5"/>
<path d="M130.978 9.01512C182.478 -2.4849 210.978 7.51514 231.478 13.0151" stroke="black" stroke-width="0.5"/>
<path d="M170.479 30.0151L173.979 8.01514C207.479 9.01514 218.979 14.5151 223.479 16.0151L225.962 28.0151C198.972 28.0158 181.477 29.5152 170.479 30.0151Z" fill="#EFC7D3"/>
<path d="M226.479 30.5151L223.479 16.0151C218.979 14.5151 207.479 9.01514 173.979 8.01514L170.479 30.0151C181.479 29.5151 198.979 28.0151 225.979 28.0151" stroke="black" stroke-width="0.5"/>
<path d="M164.979 8.01514C131.979 9.01514 111.979 18.0151 92.9795 35.5151L95.4795 33.5151L159.479 30.5151L164.979 8.01514Z" fill="#EFC7D3" stroke="black" stroke-width="0.5"/>
<path d="M239.478 22.5151C235.811 19.8485 229.978 17.5151 223.478 16.0151L225.978 28.0151H232.478C235.478 26.5151 238.478 24.2839 239.478 22.5151Z" fill="#EFC7D3" stroke="black" stroke-width="0.5"/>
<path d="M96.4795 78.5151H163.479L197.979 77.0151H212.479L212.979 82.5151H198.979H97.9795H86.4795V78.5151H96.4795Z" fill="#EFC7D3"/>
<path d="M96.4795 78.5151H163.479L197.979 77.0151M96.4795 78.5151C96.4795 80.0151 96.9795 81.0151 97.9795 82.5151M96.4795 78.5151H86.4795V82.5151H97.9795M197.979 77.0151L198.979 82.5151M197.979 77.0151H212.479L212.979 82.5151H198.979M198.979 82.5151H97.9795" stroke="black" stroke-width="0.5"/>
<path d="M96.4786 78.5151C91.9795 74.0151 88.9795 52.0151 92.9786 35.5151L164.979 31.5151C160.979 36.5151 159.979 70.5151 163.479 78.5151H96.4786Z" fill="#EFC7D3" stroke="black" stroke-width="0.5"/>
<path d="M228.479 30.5151L164.979 31.5151C160.98 36.5151 159.98 70.5151 163.479 78.5151L197.979 77.0151C202.479 75.5151 208.979 70.0151 228.479 30.5151Z" fill="#EFC7D3" stroke="black" stroke-width="0.5"/>
<path d="M170.479 30.0152C165.979 30.5152 162.479 30.5152 159.479 30.5152L164.979 8.01521C167.979 7.51514 170.979 7.51514 173.979 8.01521L170.479 30.0152Z" fill="#EFC7D3" stroke="black" stroke-width="0.5"/>
<path d="M98.9795 32.0153C103.479 37.5153 110.479 34.0153 114.479 32.5153C115.479 17.0152 102.479 25.0151 98.9795 32.0153Z" fill="#EFC7D3" stroke="black" stroke-width="0.5"/>
<path d="M234.478 9.51514L231.478 13.0151C248.478 18.5151 258.978 21.5151 271.478 28.0151H272.978L280.978 26.5151C265.978 20.0151 258.478 17.5151 234.478 9.51514Z" fill="#EFC7D3" stroke="black" stroke-width="0.5"/>
<path d="M271.478 28.0151C260.978 22.5151 241.978 16.0151 231.478 13.0151L229.478 15.5151L244.478 23.0151C242.978 25.5151 238.978 27.5151 232.978 30.2151C244.978 29.5151 261.978 28.5151 271.478 28.0151Z" fill="#EFC7D3" stroke="black" stroke-width="0.5"/>
<path d="M276.979 34.3151L282.978 32.0151L272.479 28.0151L228.479 30.5151C220.979 45.5151 205.979 76.0151 197.979 77.0151H212.479C210.979 66.0151 220.479 42.5151 245.479 51.5151C255.979 46.0151 265.979 40.5151 276.979 34.3151Z" fill="#EFC7D3" stroke="black" stroke-width="0.5"/>
<path d="M277.978 34.0152C265.978 40.5152 255.978 46.0152 245.478 51.5152C249.978 54.5151 260.478 60.5151 259.478 79.5151L284.478 79.0151V77.5151C292.978 76.5151 301.478 80.0151 299.978 66.0151L301.978 56.0151C301.978 54.5151 299.478 50.5151 296.978 50.0151C298.478 47.5151 295.478 38.5151 295.478 38.5151V37.0151L291.478 34.0151L286.478 32.5151L282.978 32.0151L277.978 34.0152Z" fill="#EFC7D3" stroke="black" stroke-width="0.5"/>
<path d="M280.978 26.5151L272.478 28.0151L282.978 32.0151C292.478 33.0151 291.476 34.5151 295.472 36.9353L294.978 28.5151L280.978 26.5151Z" fill="#EFC7D3"/>
<path d="M295.478 37.0151L295.472 36.9353M295.472 36.9353L294.978 28.5151L280.978 26.5151L272.478 28.0151L282.978 32.0151C292.478 33.0151 291.476 34.5151 295.472 36.9353Z" stroke="black" stroke-width="0.5"/>
<path d="M293.979 36.5153C293.479 34.0152 282.479 33.8151 276.979 34.3151" stroke="black" stroke-width="0.5"/>
<path d="M299.979 66.5151L260.479 68.5151C259.979 63.5151 257.813 59.3485 255.979 57.5151L301.979 55.0151M300.479 52.5151C289.479 51.0151 278.479 46.2151 266.479 40.2151M228.479 30.5151L272.479 28.0151L280.979 26.5151" stroke="black" stroke-width="0.5"/>
<path d="M290.479 40.5151C290.479 38.5151 289.479 34.5151 285.979 32.5151C288.2 32.5151 291.577 33.5555 294.088 35.9251C294.552 37.4551 293.479 41.0151 290.438 42.5151C290.424 41.9249 290.479 41.2394 290.479 40.5151Z" fill="#EFC7D3"/>
<path d="M272.479 43.0151C279.475 43.3649 285.492 43.47 290.873 44.0151M297.479 45.0151C295.376 44.5645 293.183 44.2492 290.873 44.0151M295.479 37.5151C295.062 36.93 294.592 36.4008 294.088 35.9251M290.873 44.0151C290.546 43.6704 290.452 43.1473 290.438 42.5151M290.438 42.5151C290.424 41.9249 290.479 41.2394 290.479 40.5151C290.479 38.5151 289.479 34.5151 285.979 32.5151C288.2 32.5151 291.577 33.5555 294.088 35.9251M290.438 42.5151C293.479 41.0151 294.552 37.4551 294.088 35.9251" stroke="black" stroke-width="0.5"/>
<path d="M290.479 40.5151C285.979 40.5151 283.979 36.5151 282.979 34.0151" stroke="black" stroke-width="0.5"/>
<path d="M132.478 12.6151C118.978 16.6151 106.978 22.5151 92.978 35.5151C99.978 23.5151 115.478 14.0151 130.978 9.01514L132.478 12.6151Z" stroke="black" stroke-width="0.5"/>
<path d="M130.978 9.01514C110.978 14.6892 92.978 32.0151 84.978 30.0151C97.978 20.5151 113.978 12.0151 130.478 7.51514L130.978 9.01514Z" stroke="black" stroke-width="0.5"/>
<path d="M9.97869 48.0151H3.97869C1.47803 52.0151 1.47803 62.0151 1.97869 65.5151C0.478027 66.5151 0.478625 71.0151 1.47869 72.5151L5.47869 73.0151V74.5151L1.47869 76.5151V78.5151C5.47869 79.5151 13.9787 81.5151 21.9787 81.0151V79.5151H39.4787C38.812 71.0151 40.4787 60.5151 49.4787 53.5151C46.9787 49.5151 39.9787 45.0151 36.9787 44.5151C26.9787 43.5151 11.9787 46.0151 9.97869 48.0151Z" stroke="black" stroke-width="0.5"/>
<path d="M92.9795 35.5151C75.1462 36.3485 43.4795 41.2151 32.9795 44.2151L36.9795 44.5151C41.9795 46.0151 47.4795 50.3485 49.4795 53.5151C62.4785 44.0151 87.9785 51.0151 86.4785 78.5151H96.4785C89.4785 67.5151 90.4785 45.5151 92.9795 35.5151Z" stroke="black" stroke-width="0.5"/>
<path d="M9.97754 48.0152H3.97754C36.4777 28.5151 58.4778 34.5151 84.4775 30.0151L93.4778 35.5151C76.4778 36.5151 47.4775 40.0151 33.4775 44.2151C25.4775 44.0151 11.4775 46.0151 9.97754 48.0152Z" stroke="black" stroke-width="0.5"/>
<path d="M36.9795 44.5152C29.4795 43.5151 12.4795 45.5151 9.97948 48.0152C9.17948 50.4152 12.3128 53.3485 13.9795 54.5151C23.4795 56.0151 36.9795 50.0151 36.9795 44.5152Z" stroke="black" stroke-width="0.5"/>
<path d="M3.97872 48.0151C10.9787 49.0151 4.97872 59.5151 1.97872 64.5151C1.47865 57.5151 1.97852 52.0151 3.97872 48.0151Z" stroke="black" stroke-width="0.5"/>
<path d="M21.978 84.0151V79.5151H39.478L39.978 84.0151H21.978Z" stroke="black" stroke-width="0.5"/>
<path d="M2.47949 65.5151C3.97949 68.0151 5.97949 71.1818 5.47949 73.0151M21.9795 79.5151C11.4795 80.0151 6.97949 76.0151 7.97949 72.5151C8.47949 72.0151 9.97949 70.5151 10.9795 70.5151" stroke="black" stroke-width="0.5"/>
<path d="M5.97949 65.5152C8.22943 65.0152 11.1043 64.3902 13.8543 64.0152M13.8543 64.0152C16.6044 63.6402 19.2294 63.5152 20.9795 64.0152C23.9795 65.5152 29.4795 70.5151 31.9795 74.5151C26.9795 75.5151 19.9795 75.0151 15.4795 75.0151C12.7869 75.0151 11.4795 72.6818 11.4795 71.5151C10.9795 68.5151 12.2293 65.3485 13.8543 64.0152Z" stroke="black" stroke-width="0.5"/>
<path d="M11.4795 71.0152C19.4795 69.5153 22.9795 72.1437 25.9795 73.6437M12.9795 74.0153L30.4795 73.5153" stroke="black" stroke-width="0.5"/>
<path d="M21.9775 82.5151H31.4775C33.4775 82.5151 34.9775 80.5151 34.4775 79.5151M37.9775 79.5151V84.0151" stroke="black" stroke-width="0.5"/>
<path d="M21.9794 81.0154C17.4794 81.0154 12.9794 81.5154 1.47944 78.5154V76.5154L5.47944 74.5154V73.0154L1.47944 72.5154C0.978516 71.0151 -0.0212885 68.0151 1.97871 65.5151C1.47895 57.5151 1.97895 51.0151 3.97944 48.0149C36.4794 28.5153 58.4794 34.5153 84.4794 30.0153C162.479 -24.9848 244.479 12.0151 281.479 26.5153L294.979 28.5151L295.479 35.5151V38.5151C296.978 43.5151 298.313 48.0151 296.979 50.0151C299.479 51.0151 301.979 54.1818 301.979 56.0151L299.979 66.0151C300.431 76.863 298.023 77.0873 288.692 77.3998C287.701 77.433 285.632 77.4671 284.479 77.5151V79.0151L259.479 79.4462M21.9794 81.0154V84.0154H39.9778L39.4794 79.5154M21.9794 81.0154V79.5154H39.4794M39.4794 79.5154C36.4794 38.0154 89.9794 41.0154 86.4794 80.0154V82.5151H212.979C206.979 39.0151 261.479 39.0151 259.479 79.4462M258.978 79.4462H259.479" stroke="black"/>
</svg>
