<svg width="304" height="95" viewBox="0 0 304 95" fill="none" xmlns="http://www.w3.org/2000/svg">
<circle cx="63.0635" cy="73.8762" r="20.5" fill="#EDADBF" stroke="black"/>
<circle cx="236.063" cy="73.8762" r="20.5" fill="#EDADBF" stroke="black"/>
<path d="M133.062 12.3761L131.562 8.87608C171.562 0.876188 193.062 1.37622 232.062 12.8762L228.562 17.3762C208.562 9.37613 190.562 8.37613 174.562 7.8762C172.062 7.3762 168.062 7.37616 165.562 7.87608C155.562 7.8762 143.562 9.3762 133.062 12.3761Z" fill="#E56E90" stroke="black" stroke-width="0.5"/>
<path d="M131.562 8.87627L131.062 7.37626C167.062 -3.62378 199.562 0.376095 235.062 9.37627L232.062 12.8763C192.062 0.376221 166.062 1.87622 131.562 8.87627Z" fill="#E56E90" stroke="black" stroke-width="0.5"/>
<path d="M131.562 8.87609C183.062 -2.62394 211.562 7.3761 232.062 12.8761" stroke="black" stroke-width="0.5"/>
<path d="M171.063 29.8762L174.563 7.87622C208.063 8.87622 219.563 14.3762 224.063 15.8762L226.546 27.8762C199.556 27.8769 182.061 29.3763 171.063 29.8762Z" fill="#E56E90"/>
<path d="M227.063 30.3762L224.063 15.8762C219.563 14.3762 208.063 8.87622 174.563 7.87622L171.063 29.8762C182.063 29.3762 199.563 27.8762 226.563 27.8762" stroke="black" stroke-width="0.5"/>
<path d="M165.563 7.87622C132.563 8.87622 112.563 17.8762 93.5635 35.3762L96.0635 33.3762L160.063 30.3762L165.563 7.87622Z" fill="#E56E90" stroke="black" stroke-width="0.5"/>
<path d="M240.062 22.3762C236.395 19.7096 230.562 17.3762 224.062 15.8762L226.562 27.8762H233.062C236.062 26.3762 239.062 24.145 240.062 22.3762Z" fill="#E56E90" stroke="black" stroke-width="0.5"/>
<path d="M97.0635 78.3762H164.063L198.563 76.8762H213.063L213.563 82.3762H199.563H98.5635H87.0635V78.3762H97.0635Z" fill="#E56E90"/>
<path d="M97.0635 78.3762H164.063L198.563 76.8762M97.0635 78.3762C97.0635 79.8762 97.5635 80.8762 98.5635 82.3762M97.0635 78.3762H87.0635V82.3762H98.5635M198.563 76.8762L199.563 82.3762M198.563 76.8762H213.063L213.563 82.3762H199.563M199.563 82.3762H98.5635" stroke="black" stroke-width="0.5"/>
<path d="M97.0626 78.3762C92.5635 73.8762 89.5635 51.8762 93.5626 35.3762L165.563 31.3762C161.563 36.3762 160.563 70.3762 164.063 78.3762H97.0626Z" fill="#E56E90" stroke="black" stroke-width="0.5"/>
<path d="M229.063 30.3762L165.563 31.3762C161.564 36.3762 160.564 70.3762 164.063 78.3762L198.563 76.8762C203.063 75.3762 209.563 69.8762 229.063 30.3762Z" fill="#E56E90" stroke="black" stroke-width="0.5"/>
<path d="M171.063 29.8763C166.563 30.3763 163.063 30.3763 160.063 30.3763L165.563 7.87629C168.563 7.37622 171.563 7.37622 174.563 7.87629L171.063 29.8763Z" fill="#E56E90" stroke="black" stroke-width="0.5"/>
<path d="M99.5635 31.8762C104.063 37.3762 111.063 33.8762 115.063 32.3762C116.063 16.8761 103.063 24.8761 99.5635 31.8762Z" fill="#E56E90" stroke="black" stroke-width="0.5"/>
<path d="M235.062 9.37622L232.062 12.8762C249.062 18.3762 259.562 21.3762 272.062 27.8762H273.562L281.562 26.3762C266.562 19.8762 259.062 17.3762 235.062 9.37622Z" fill="#E56E90" stroke="black" stroke-width="0.5"/>
<path d="M272.062 27.8762C261.562 22.3762 242.562 15.8762 232.062 12.8762L230.062 15.3762L245.062 22.8762C243.562 25.3762 239.562 27.3762 233.562 30.0762C245.562 29.3762 262.562 28.3762 272.062 27.8762Z" fill="#E56E90" stroke="black" stroke-width="0.5"/>
<path d="M277.563 34.1762L283.562 31.8762L273.062 27.8762L229.062 30.3762C221.562 45.3762 206.562 75.8762 198.562 76.8762H213.062C211.562 65.8762 221.062 42.3762 246.063 51.3762C256.563 45.8762 266.563 40.3762 277.563 34.1762Z" fill="#E56E90" stroke="black" stroke-width="0.5"/>
<path d="M278.562 33.8762C266.562 40.3762 256.562 45.8762 246.062 51.3762C250.562 54.3762 261.062 60.3762 260.062 79.3762L285.062 78.8762V77.3762C293.562 76.3762 302.062 79.8762 300.562 65.8762L302.562 55.8762C302.562 54.3762 300.062 50.3762 297.562 49.8762C299.062 47.3762 296.062 38.3762 296.062 38.3762V36.8762L292.062 33.8762L287.062 32.3762L283.562 31.8762L278.562 33.8762Z" fill="#E56E90" stroke="black" stroke-width="0.5"/>
<path d="M281.562 26.3762L273.062 27.8762L283.562 31.8762C293.062 32.8762 292.06 34.3762 296.056 36.7964L295.562 28.3762L281.562 26.3762Z" fill="#E56E90"/>
<path d="M296.062 36.8762L296.056 36.7964M296.056 36.7964L295.562 28.3762L281.562 26.3762L273.062 27.8762L283.562 31.8762C293.062 32.8762 292.06 34.3762 296.056 36.7964Z" stroke="black" stroke-width="0.5"/>
<path d="M294.563 36.3764C294.063 33.8763 283.063 33.6762 277.563 34.1762" stroke="black" stroke-width="0.5"/>
<path d="M300.563 66.3762L261.063 68.3762C260.563 63.3762 258.397 59.2096 256.563 57.3762L302.563 54.8762M301.063 52.3762C290.063 50.8762 279.063 46.0762 267.063 40.0762M229.063 30.3762L273.063 27.8762L281.563 26.3762" stroke="black" stroke-width="0.5"/>
<path d="M291.063 40.3762C291.063 38.3762 290.063 34.3762 286.563 32.3762C288.784 32.3762 292.161 33.4166 294.672 35.7862C295.136 37.3162 294.063 40.8762 291.022 42.3762C291.008 41.7859 291.063 41.1005 291.063 40.3762Z" fill="#E56E90"/>
<path d="M273.063 42.8762C280.059 43.226 286.076 43.3311 291.457 43.8762M298.063 44.8762C295.96 44.4256 293.767 44.1103 291.457 43.8762M296.063 37.3762C295.646 36.7911 295.176 36.2619 294.672 35.7862M291.457 43.8762C291.13 43.5315 291.036 43.0084 291.022 42.3762M291.022 42.3762C291.008 41.7859 291.063 41.1005 291.063 40.3762C291.063 38.3762 290.063 34.3762 286.563 32.3762C288.784 32.3762 292.161 33.4166 294.672 35.7862M291.022 42.3762C294.063 40.8762 295.136 37.3162 294.672 35.7862" stroke="black" stroke-width="0.5"/>
<path d="M291.063 40.3762C286.563 40.3762 284.563 36.3762 283.563 33.8762" stroke="black" stroke-width="0.5"/>
<path d="M133.062 12.4762C119.562 16.4762 107.562 22.3762 93.5615 35.3762C100.562 23.3762 116.062 13.8762 131.562 8.87622L133.062 12.4762Z" fill="#EFC7D3" stroke="black" stroke-width="0.5"/>
<path d="M131.562 8.87622C111.562 14.5503 93.5615 31.8762 85.5615 29.8762C98.5615 20.3762 114.562 11.8762 131.062 7.37622L131.562 8.87622Z" fill="#EFC7D3" stroke="black" stroke-width="0.5"/>
<path d="M10.5622 47.8761H4.56219C2.06152 51.8761 2.06152 61.8761 2.56219 65.3761C1.06152 66.3761 1.06212 70.8761 2.06219 72.3761L6.06219 72.8761V74.3761L2.06219 76.3761V78.3761C6.06219 79.3761 14.5622 81.3761 22.5622 80.8761V79.3761H40.0622C39.3955 70.8761 41.0622 60.3761 50.0622 53.3761C47.5622 49.3761 40.5622 44.8761 37.5622 44.3761C27.5622 43.3761 12.5622 45.8761 10.5622 47.8761Z" fill="#EFC7D3" stroke="black" stroke-width="0.5"/>
<path d="M93.5635 35.3762C75.7301 36.2096 44.0635 41.0762 33.5635 44.0762L37.5635 44.3762C42.5635 45.8762 48.0635 50.2096 50.0635 53.3762C63.0625 43.8762 88.5625 50.8762 87.0625 78.3762H97.0625C90.0625 67.3762 91.0625 45.3762 93.5635 35.3762Z" fill="#EFC7D3" stroke="black" stroke-width="0.5"/>
<path d="M10.5615 47.8763H4.56152C37.0617 28.3762 59.0618 34.3762 85.0615 29.8762L94.0618 35.3762C77.0618 36.3762 48.0615 39.8762 34.0615 44.0762C26.0615 43.8762 12.0615 45.8762 10.5615 47.8763Z" fill="#EFC7D3" stroke="black" stroke-width="0.5"/>
<path d="M37.563 44.3763C30.063 43.3762 13.063 45.3762 10.563 47.8763C9.76298 50.2762 12.8963 53.2096 14.563 54.3762C24.063 55.8762 37.563 49.8762 37.563 44.3763Z" fill="#EFC7D3" stroke="black" stroke-width="0.5"/>
<path d="M4.56222 47.8762C11.5622 48.8762 5.56222 59.3762 2.56222 64.3762C2.06215 57.3762 2.56201 51.8762 4.56222 47.8762Z" fill="#EFC7D3" stroke="black" stroke-width="0.5"/>
<path d="M22.5615 83.8762V79.3762H40.0615L40.5615 83.8762H22.5615Z" fill="#EFC7D3" stroke="black" stroke-width="0.5"/>
<path d="M3.06348 65.376C4.56348 67.876 6.56348 71.0426 6.06348 72.876M22.5635 79.376C12.0635 79.876 7.56348 75.876 8.56348 72.376C9.06348 71.876 10.5635 70.376 11.5635 70.376" stroke="black" stroke-width="0.5"/>
<path d="M32.5635 74.3761C30.0635 70.3761 24.5635 65.3762 21.5635 63.8762C19.8134 63.3762 17.1883 63.5012 14.4383 63.8762C12.8133 65.2095 11.5635 68.3761 12.0635 71.3761C12.0635 72.5428 13.3709 74.8761 16.0635 74.8761C20.5635 74.8761 27.5635 75.3761 32.5635 74.3761Z" fill="#EFC7D3"/>
<path d="M6.56348 65.3762C8.81342 64.8762 11.6883 64.2512 14.4383 63.8762M14.4383 63.8762C17.1883 63.5012 19.8134 63.3762 21.5635 63.8762C24.5635 65.3762 30.0635 70.3761 32.5635 74.3761C27.5635 75.3761 20.5635 74.8761 16.0635 74.8761C13.3709 74.8761 12.0635 72.5428 12.0635 71.3761C11.5635 68.3761 12.8133 65.2095 14.4383 63.8762Z" stroke="black" stroke-width="0.5"/>
<path d="M12.0635 70.8762C20.0635 69.3762 23.5635 72.0047 26.5635 73.5047M13.5635 73.8762L31.0635 73.3762" stroke="black" stroke-width="0.5"/>
<path d="M22.5615 82.376H32.0615C34.0615 82.376 35.5615 80.376 35.0615 79.376M38.5615 79.376V83.876" stroke="black" stroke-width="0.5"/>
<path d="M22.5634 80.8765C18.0634 80.8765 13.5634 81.3765 2.06342 78.3765V76.3765L6.06342 74.3765V72.8765L2.06342 72.3765C1.5625 70.8762 0.562696 67.8762 2.56269 65.3762C2.06293 57.3762 2.56293 50.8762 4.56342 47.876C37.0634 28.3764 59.0634 34.3764 85.0634 29.8764C163.063 -25.1237 245.063 11.8762 282.063 26.3764L295.563 28.3762L296.063 35.3762V38.3762C297.562 43.3762 298.897 47.8762 297.563 49.8762C300.063 50.8762 302.563 54.0429 302.563 55.8762L300.563 65.8762C301.015 76.7241 298.607 76.9484 289.276 77.2609C288.285 77.294 286.216 77.3282 285.063 77.3762V78.8762L260.063 79.3073M22.5634 80.8765V83.8765H40.5618L40.0634 79.3765M22.5634 80.8765V79.3765H40.0634M40.0634 79.3765C37.0634 37.8765 90.5634 40.8765 87.0634 79.8765V82.3762H213.563C207.563 38.8762 262.063 38.8762 260.063 79.3073M259.562 79.3073H260.063" stroke="black"/>
</svg>
