<svg width="303" height="95" viewBox="0 0 303 95" fill="none" xmlns="http://www.w3.org/2000/svg">
<circle cx="62.4697" cy="73.6768" r="20.5" fill="#E0426F" stroke="black"/>
<circle cx="235.47" cy="73.6768" r="20.5" fill="#E0426F" stroke="black"/>
<path d="M132.468 12.1766L130.968 8.67661C170.968 0.676725 192.468 1.17676 231.468 12.6767L227.968 17.1767C207.968 9.17667 189.968 8.17667 173.968 7.67673C171.468 7.17673 167.468 7.1767 164.968 7.67661C154.968 7.67673 142.968 9.17674 132.468 12.1766Z" stroke="black" stroke-width="0.5"/>
<path d="M130.968 8.6768L130.468 7.1768C166.468 -3.82324 198.968 0.176632 234.468 9.1768L231.468 12.6768C191.468 0.176758 165.468 1.67676 130.968 8.6768Z" stroke="black" stroke-width="0.5"/>
<path d="M130.968 8.67675C182.468 -2.82328 210.968 7.17676 231.468 12.6767" stroke="black" stroke-width="0.5"/>
<path d="M226.47 30.1768L223.47 15.6768C218.97 14.1768 207.47 8.67676 173.97 7.67676L170.47 29.6768C181.47 29.1768 198.97 27.6768 225.97 27.6768" stroke="black" stroke-width="0.5"/>
<path d="M164.97 7.67676C131.97 8.67676 111.97 17.6768 92.9697 35.1768L95.4697 33.1768L159.47 30.1768L164.97 7.67676Z" stroke="black" stroke-width="0.5"/>
<path d="M239.468 22.1768C235.801 19.5101 229.968 17.1768 223.468 15.6768L225.968 27.6768H232.468C235.468 26.1768 238.468 23.9455 239.468 22.1768Z" stroke="black" stroke-width="0.5"/>
<path d="M96.4697 78.1768H163.47L197.97 76.6768M96.4697 78.1768C96.4697 79.6768 96.9697 80.6768 97.9697 82.1768M96.4697 78.1768H86.4697V82.1768H97.9697M197.97 76.6768L198.97 82.1768M197.97 76.6768H212.47L212.97 82.1768H198.97M198.97 82.1768H97.9697" stroke="black" stroke-width="0.5"/>
<path d="M96.4689 78.1768C91.9697 73.6768 88.9698 51.6768 92.9689 35.1768L164.97 31.1768C160.97 36.1768 159.97 70.1768 163.47 78.1768H96.4689Z" stroke="black" stroke-width="0.5"/>
<path d="M228.47 30.1768L164.97 31.1768C160.97 36.1768 159.97 70.1768 163.47 78.1768L197.97 76.6768C202.47 75.1768 208.97 69.6768 228.47 30.1768Z" stroke="black" stroke-width="0.5"/>
<path d="M170.47 29.6768C165.97 30.1768 162.47 30.1768 159.47 30.1768L164.97 7.67683C167.97 7.17676 170.97 7.17676 173.97 7.67683L170.47 29.6768Z" stroke="black" stroke-width="0.5"/>
<path d="M98.9697 31.6769C103.47 37.1769 110.47 33.6769 114.47 32.1769C115.47 16.6768 102.47 24.6768 98.9697 31.6769Z" stroke="black" stroke-width="0.5"/>
<path d="M234.468 9.17676L231.468 12.6768C248.468 18.1768 258.968 21.1768 271.468 27.6768H272.968L280.968 26.1768C265.968 19.6768 258.468 17.1768 234.468 9.17676Z" fill="#EDADBF" stroke="black" stroke-width="0.5"/>
<path d="M271.468 27.6768C260.968 22.1768 241.968 15.6768 231.468 12.6768L229.468 15.1768L244.468 22.6768C242.968 25.1768 238.968 27.1768 232.968 29.8768C244.968 29.1768 261.968 28.1768 271.468 27.6768Z" fill="#EDADBF" stroke="black" stroke-width="0.5"/>
<path d="M276.97 33.9768L282.968 31.6768L272.469 27.6768L228.469 30.1768C220.969 45.1768 205.969 75.6768 197.969 76.6768H212.469C210.969 65.6768 220.469 42.1768 245.47 51.1768C255.97 45.6768 265.97 40.1768 276.97 33.9768Z" fill="#EDADBF" stroke="black" stroke-width="0.5"/>
<path d="M277.968 33.6768C265.968 40.1768 255.968 45.6768 245.468 51.1768C249.968 54.1768 260.468 60.1768 259.468 79.1768L284.468 78.6768V77.1768C292.968 76.1768 301.468 79.6768 299.968 65.6768L301.968 55.6768C301.968 54.1768 299.468 50.1768 296.968 49.6768C298.468 47.1768 295.468 38.1768 295.468 38.1768V36.6768L291.468 33.6768L286.468 32.1768L282.968 31.6768L277.968 33.6768Z" fill="#EDADBF" stroke="black" stroke-width="0.5"/>
<path d="M280.968 26.1768L272.468 27.6768L282.968 31.6768C292.468 32.6768 291.467 34.1768 295.462 36.5969L294.968 28.1768L280.968 26.1768Z" fill="#EDADBF"/>
<path d="M295.468 36.6768L295.462 36.5969M295.462 36.5969L294.968 28.1768L280.968 26.1768L272.468 27.6768L282.968 31.6768C292.468 32.6768 291.467 34.1768 295.462 36.5969Z" stroke="black" stroke-width="0.5"/>
<path d="M293.97 36.177C293.47 33.6768 282.47 33.4768 276.97 33.9768" stroke="black" stroke-width="0.5"/>
<path d="M299.97 66.1768L260.47 68.1768C259.97 63.1768 257.803 59.0101 255.97 57.1768L301.97 54.6768M300.47 52.1768C289.47 50.6768 278.47 45.8768 266.47 39.8768M228.47 30.1768L272.47 27.6768L280.97 26.1768" stroke="black" stroke-width="0.5"/>
<path d="M290.47 40.1768C290.47 38.1768 289.47 34.1768 285.97 32.1768C288.191 32.1768 291.567 33.2171 294.079 35.5867C294.542 37.1167 293.47 40.6768 290.428 42.1768C290.414 41.5865 290.47 40.901 290.47 40.1768Z" fill="#EDADBF"/>
<path d="M272.47 42.6768C279.465 43.0265 285.482 43.1316 290.863 43.6768M297.47 44.6768C295.367 44.2261 293.173 43.9109 290.863 43.6768M295.47 37.1768C295.052 36.5916 294.583 36.0624 294.079 35.5867M290.863 43.6768C290.537 43.332 290.443 42.8089 290.428 42.1768M290.428 42.1768C290.414 41.5865 290.47 40.901 290.47 40.1768C290.47 38.1768 289.47 34.1768 285.97 32.1768C288.191 32.1768 291.567 33.2171 294.079 35.5867M290.428 42.1768C293.47 40.6768 294.542 37.1167 294.079 35.5867" stroke="black" stroke-width="0.5"/>
<path d="M290.47 40.1768C285.97 40.1768 283.97 36.1768 282.97 33.6768" stroke="black" stroke-width="0.5"/>
<path d="M132.468 12.2767C118.968 16.2767 106.968 22.1768 92.9678 35.1768C99.9678 23.1768 115.468 13.6768 130.968 8.67676L132.468 12.2767Z" fill="#E56E90" stroke="black" stroke-width="0.5"/>
<path d="M130.968 8.67676C110.968 14.3508 92.9678 31.6768 84.9678 29.6768C97.9678 20.1768 113.968 11.6768 130.468 7.17676L130.968 8.67676Z" fill="#E56E90" stroke="black" stroke-width="0.5"/>
<path d="M9.96844 47.6768H3.96844C1.46777 51.6768 1.46777 61.6768 1.96844 65.1768C0.467773 66.1768 0.468371 70.6768 1.46844 72.1768L5.46844 72.6768V74.1768L1.46844 76.1768V78.1768C5.46844 79.1768 13.9684 81.1768 21.9684 80.6768V79.1768H39.4684C38.8018 70.6768 40.4684 60.1768 49.4684 53.1768C46.9684 49.1768 39.9684 44.6768 36.9684 44.1768C26.9684 43.1768 11.9684 45.6768 9.96844 47.6768Z" fill="#E56E90" stroke="black" stroke-width="0.5"/>
<path d="M92.9697 35.1768C75.1364 36.0101 43.4697 40.8768 32.9697 43.8768L36.9697 44.1768C41.9697 45.6768 47.4697 50.0101 49.4697 53.1768C62.4688 43.6768 87.9688 50.6768 86.4688 78.1768H96.4688C89.4688 67.1768 90.4688 45.1768 92.9697 35.1768Z" fill="#E56E90" stroke="black" stroke-width="0.5"/>
<path d="M9.96777 47.6768H3.96777C36.468 28.1767 58.468 34.1768 84.4678 29.6768L93.468 35.1768C76.468 36.1768 47.4678 39.6768 33.4678 43.8768C25.4678 43.6767 11.4678 45.6768 9.96777 47.6768Z" fill="#E56E90" stroke="black" stroke-width="0.5"/>
<path d="M36.9692 44.1768C29.4692 43.1768 12.4692 45.1768 9.96923 47.6768C9.16923 50.0768 12.3026 53.0101 13.9692 54.1768C23.4692 55.6768 36.9692 49.6768 36.9692 44.1768Z" fill="#E56E90" stroke="black" stroke-width="0.5"/>
<path d="M3.96847 47.6768C10.9685 48.6768 4.96847 59.1768 1.96847 64.1768C1.4684 57.1768 1.96826 51.6768 3.96847 47.6768Z" fill="#E56E90" stroke="black" stroke-width="0.5"/>
<path d="M21.9678 83.6768V79.1768H39.4678L39.9678 83.6768H21.9678Z" fill="#E56E90" stroke="black" stroke-width="0.5"/>
<path d="M2.46973 65.1768C3.96973 67.6768 5.96973 70.8434 5.46973 72.6768M21.9697 79.1768C11.4697 79.6768 6.96973 75.6768 7.96973 72.1768C8.46973 71.6768 9.96973 70.1768 10.9697 70.1768" stroke="black" stroke-width="0.5"/>
<path d="M31.9697 74.1768C29.4697 70.1768 23.9697 65.1768 20.9697 63.6768C19.2197 63.1768 16.5946 63.3018 13.8445 63.6768C12.2196 65.0101 10.9697 68.1768 11.4697 71.1768C11.4697 72.3434 12.7771 74.6768 15.4697 74.6768C19.9697 74.6768 26.9697 75.1768 31.9697 74.1768Z" fill="#E56E90"/>
<path d="M5.96973 65.1768C8.21967 64.6768 11.0946 64.0518 13.8445 63.6768M13.8445 63.6768C16.5946 63.3018 19.2197 63.1768 20.9697 63.6768C23.9697 65.1768 29.4697 70.1768 31.9697 74.1768C26.9697 75.1768 19.9697 74.6768 15.4697 74.6768C12.7771 74.6768 11.4697 72.3434 11.4697 71.1768C10.9697 68.1768 12.2196 65.0101 13.8445 63.6768Z" stroke="black" stroke-width="0.5"/>
<path d="M11.4697 70.6768C19.4697 69.1769 22.9697 71.8054 25.9697 73.3054M12.9697 73.6769L30.4697 73.1769" stroke="black" stroke-width="0.5"/>
<path d="M21.9678 82.1768H31.4678C33.4678 82.1768 34.9678 80.1768 34.4678 79.1768M37.9678 79.1768V83.6768" stroke="black" stroke-width="0.5"/>
<path d="M21.9697 80.677C17.4697 80.677 12.9697 81.177 1.46967 78.177V76.177L5.46967 74.177V72.677L1.46967 72.177C0.96875 70.6768 -0.0310541 67.6768 1.96894 65.1768C1.46918 57.1768 1.96918 50.6768 3.96967 47.6765C36.4697 28.1769 58.4697 34.1769 84.4697 29.6769C162.47 -25.3232 244.47 11.6767 281.47 26.1769L294.97 28.1768L295.47 35.1768V38.1768C296.968 43.1768 298.303 47.6768 296.97 49.6768C299.47 50.6768 301.97 53.8434 301.97 55.6768L299.97 65.6768C300.422 76.5247 298.013 76.7489 288.682 77.0614C287.691 77.0946 285.622 77.1288 284.47 77.1768V78.6768L259.47 79.1078M21.9697 80.677V83.677H39.968L39.4697 79.177M21.9697 80.677V79.177H39.4697M39.4697 79.177C36.4697 37.677 89.9697 40.677 86.4697 79.677V82.1768H212.97C206.97 38.6768 261.47 38.6768 259.47 79.1078M258.968 79.1078H259.47" stroke="black"/>
</svg>
