<svg width="303" height="96" viewBox="0 0 303 96" fill="none" xmlns="http://www.w3.org/2000/svg">
<circle cx="62.8652" cy="74.1995" r="20.5" fill="#EFC7D3" stroke="black"/>
<circle cx="235.865" cy="74.1995" r="20.5" fill="#EFC7D3" stroke="black"/>
<path d="M132.863 12.6993L131.363 9.19932C171.363 1.19943 192.863 1.69946 231.863 13.1994L228.363 17.6994C208.363 9.69937 190.363 8.69937 174.363 8.19944C171.863 7.69944 167.863 7.6994 165.363 8.19932C155.363 8.19944 143.363 9.69944 132.863 12.6993Z" fill="#EDADBF" stroke="black" stroke-width="0.5"/>
<path d="M131.363 9.19951L130.863 7.69951C166.863 -3.30054 199.363 0.699337 234.863 9.69951L231.863 13.1995C191.863 0.699463 165.863 2.19946 131.363 9.19951Z" fill="#EDADBF" stroke="black" stroke-width="0.5"/>
<path d="M131.363 9.19933C182.863 -2.3007 211.363 7.69934 231.863 13.1993" stroke="black" stroke-width="0.5"/>
<path d="M170.865 30.1995L174.365 8.19946C207.865 9.19946 219.365 14.6995 223.865 16.1995L226.348 28.1995C199.358 28.2001 181.863 29.6996 170.865 30.1995Z" fill="#EDADBF"/>
<path d="M226.865 30.6995L223.865 16.1995C219.365 14.6995 207.865 9.19946 174.365 8.19946L170.865 30.1995C181.865 29.6995 199.365 28.1995 226.365 28.1995" stroke="black" stroke-width="0.5"/>
<path d="M165.365 8.19946C132.365 9.19946 112.365 18.1995 93.3652 35.6995L95.8652 33.6995L159.865 30.6995L165.365 8.19946Z" fill="#EDADBF" stroke="black" stroke-width="0.5"/>
<path d="M239.863 22.6995C236.197 20.0328 230.363 17.6995 223.863 16.1995L226.363 28.1995H232.863C235.863 26.6995 238.863 24.4682 239.863 22.6995Z" fill="#EDADBF" stroke="black" stroke-width="0.5"/>
<path d="M96.8652 78.6995H163.865L198.365 77.1995H212.865L213.365 82.6995H199.365H98.3652H86.8652V78.6995H96.8652Z" fill="#EDADBF"/>
<path d="M96.8652 78.6995H163.865L198.365 77.1995M96.8652 78.6995C96.8652 80.1995 97.3652 81.1995 98.3652 82.6995M96.8652 78.6995H86.8652V82.6995H98.3652M198.365 77.1995L199.365 82.6995M198.365 77.1995H212.865L213.365 82.6995H199.365M199.365 82.6995H98.3652" stroke="black" stroke-width="0.5"/>
<path d="M96.8644 78.6995C92.3652 74.1995 89.3653 52.1995 93.3644 35.6995L165.365 31.6995C161.365 36.6995 160.365 70.6995 163.865 78.6995H96.8644Z" fill="#EDADBF" stroke="black" stroke-width="0.5"/>
<path d="M228.865 30.6995L165.365 31.6995C161.365 36.6995 160.365 70.6995 163.865 78.6995L198.365 77.1995C202.865 75.6995 209.365 70.1995 228.865 30.6995Z" fill="#EDADBF" stroke="black" stroke-width="0.5"/>
<path d="M170.865 30.1995C166.365 30.6995 162.865 30.6995 159.865 30.6995L165.365 8.19954C168.365 7.69946 171.365 7.69946 174.365 8.19954L170.865 30.1995Z" fill="#EDADBF" stroke="black" stroke-width="0.5"/>
<path d="M99.3652 32.1995C103.865 37.6995 110.865 34.1995 114.865 32.6995C115.865 17.1994 102.865 25.1993 99.3652 32.1995Z" fill="#EDADBF" stroke="black" stroke-width="0.5"/>
<path d="M234.863 9.69946L231.863 13.1995C248.863 18.6995 259.363 21.6995 271.863 28.1995H273.363L281.363 26.6995C266.363 20.1995 258.863 17.6995 234.863 9.69946Z" fill="#E56E90" stroke="black" stroke-width="0.5"/>
<path d="M271.863 28.1995C261.363 22.6995 242.363 16.1995 231.863 13.1995L229.863 15.6995L244.863 23.1995C243.363 25.6995 239.363 27.6995 233.363 30.3995C245.363 29.6995 262.363 28.6995 271.863 28.1995Z" fill="#E56E90" stroke="black" stroke-width="0.5"/>
<path d="M277.365 34.4995L283.364 32.1995L272.864 28.1995L228.864 30.6995C221.364 45.6995 206.364 76.1995 198.364 77.1995H212.864C211.364 66.1995 220.864 42.6995 245.865 51.6995C256.365 46.1995 266.365 40.6995 277.365 34.4995Z" fill="#E56E90" stroke="black" stroke-width="0.5"/>
<path d="M278.363 34.1995C266.363 40.6995 256.363 46.1995 245.863 51.6995C250.363 54.6995 260.863 60.6995 259.863 79.6995L284.863 79.1995V77.6995C293.363 76.6995 301.863 80.1995 300.363 66.1995L302.363 56.1995C302.363 54.6995 299.863 50.6995 297.363 50.1995C298.863 47.6995 295.863 38.6995 295.863 38.6995V37.1995L291.863 34.1995L286.863 32.6995L283.363 32.1995L278.363 34.1995Z" fill="#E56E90" stroke="black" stroke-width="0.5"/>
<path d="M281.363 26.6995L272.863 28.1995L283.363 32.1995C292.863 33.1995 291.862 34.6995 295.857 37.1196L295.363 28.6995L281.363 26.6995Z" fill="#E56E90"/>
<path d="M295.863 37.1995L295.857 37.1196M295.857 37.1196L295.363 28.6995L281.363 26.6995L272.863 28.1995L283.363 32.1995C292.863 33.1995 291.862 34.6995 295.857 37.1196Z" stroke="black" stroke-width="0.5"/>
<path d="M294.365 36.6997C293.865 34.1996 282.865 33.9995 277.365 34.4995" stroke="black" stroke-width="0.5"/>
<path d="M300.365 66.6995L260.865 68.6995C260.365 63.6995 258.199 59.5328 256.365 57.6995L302.365 55.1995M300.865 52.6995C289.865 51.1995 278.865 46.3995 266.865 40.3995M228.865 30.6995L272.865 28.1995L281.365 26.6995" stroke="black" stroke-width="0.5"/>
<path d="M290.865 40.6995C290.865 38.6995 289.865 34.6995 286.365 32.6995C288.586 32.6995 291.963 33.7399 294.474 36.1094C294.938 37.6395 293.865 41.1995 290.823 42.6995C290.81 42.1092 290.865 41.4238 290.865 40.6995Z" fill="#E56E90"/>
<path d="M272.865 43.1995C279.861 43.5492 285.878 43.6543 291.258 44.1995M297.865 45.1995C295.762 44.7488 293.569 44.4336 291.258 44.1995M295.865 37.6995C295.447 37.1143 294.978 36.5851 294.474 36.1094M291.258 44.1995C290.932 43.8547 290.838 43.3317 290.823 42.6995M290.823 42.6995C290.81 42.1092 290.865 41.4238 290.865 40.6995C290.865 38.6995 289.865 34.6995 286.365 32.6995C288.586 32.6995 291.963 33.7399 294.474 36.1094M290.823 42.6995C293.865 41.1995 294.938 37.6395 294.474 36.1094" stroke="black" stroke-width="0.5"/>
<path d="M290.865 40.6995C286.365 40.6995 284.365 36.6995 283.365 34.1995" stroke="black" stroke-width="0.5"/>
<path d="M132.863 12.7994C119.363 16.7994 107.363 22.6995 93.3633 35.6995C100.363 23.6995 115.863 14.1995 131.363 9.19946L132.863 12.7994Z" fill="#EDADBF" stroke="black" stroke-width="0.5"/>
<path d="M131.363 9.19946C111.363 14.8735 93.3633 32.1995 85.3633 30.1995C98.3633 20.6995 114.363 12.1995 130.863 7.69946L131.363 9.19946Z" fill="#EDADBF" stroke="black" stroke-width="0.5"/>
<path d="M10.3639 48.1993H4.36395C1.86328 52.1993 1.86328 62.1993 2.36395 65.6993C0.863281 66.6993 0.863879 71.1993 1.86395 72.6993L5.86395 73.1993V74.6993L1.86395 76.6993V78.6993C5.86395 79.6993 14.3639 81.6993 22.3639 81.1993V79.6993H39.8639C39.1973 71.1993 40.8639 60.6993 49.8639 53.6993C47.3639 49.6993 40.3639 45.1993 37.3639 44.6993C27.3639 43.6993 12.3639 46.1993 10.3639 48.1993Z" fill="#EDADBF" stroke="black" stroke-width="0.5"/>
<path d="M93.3652 35.6995C75.5319 36.5328 43.8652 41.3995 33.3652 44.3995L37.3652 44.6995C42.3652 46.1995 47.8652 50.5328 49.8652 53.6995C62.8643 44.1995 88.3643 51.1995 86.8643 78.6995H96.8643C89.8643 67.6995 90.8643 45.6995 93.3652 35.6995Z" fill="#EDADBF" stroke="black" stroke-width="0.5"/>
<path d="M10.3633 48.1995H4.36328C36.8635 28.6994 58.8635 34.6995 84.8633 30.1995L93.8635 35.6995C76.8635 36.6995 47.8633 40.1995 33.8633 44.3995C25.8633 44.1995 11.8633 46.1995 10.3633 48.1995Z" fill="#EDADBF" stroke="black" stroke-width="0.5"/>
<path d="M37.3647 44.6995C29.8647 43.6995 12.8647 45.6995 10.3647 48.1995C9.56474 50.5995 12.6981 53.5328 14.3647 54.6995C23.8647 56.1995 37.3647 50.1995 37.3647 44.6995Z" fill="#EDADBF" stroke="black" stroke-width="0.5"/>
<path d="M4.36398 48.1995C11.364 49.1995 5.36398 59.6995 2.36398 64.6995C1.86391 57.6995 2.36377 52.1995 4.36398 48.1995Z" fill="#EDADBF" stroke="black" stroke-width="0.5"/>
<path d="M22.3633 84.1995V79.6995H39.8633L40.3633 84.1995H22.3633Z" fill="#EDADBF" stroke="black" stroke-width="0.5"/>
<path d="M2.86523 65.6992C4.36523 68.1992 6.36523 71.3659 5.86523 73.1992M22.3652 79.6992C11.8652 80.1992 7.36523 76.1992 8.36523 72.6992C8.86523 72.1992 10.3652 70.6992 11.3652 70.6992" stroke="black" stroke-width="0.5"/>
<path d="M32.3652 74.6993C29.8652 70.6993 24.3652 65.6994 21.3652 64.1994C19.6152 63.6994 16.9901 63.8244 14.24 64.1994C12.6151 65.5327 11.3652 68.6993 11.8652 71.6993C11.8652 72.866 13.1727 75.1993 15.8652 75.1993C20.3652 75.1993 27.3652 75.6993 32.3652 74.6993Z" fill="#EDADBF"/>
<path d="M6.36523 65.6994C8.61518 65.1994 11.4901 64.5744 14.24 64.1994M14.24 64.1994C16.9901 63.8244 19.6152 63.6994 21.3652 64.1994C24.3652 65.6994 29.8652 70.6993 32.3652 74.6993C27.3652 75.6993 20.3652 75.1993 15.8652 75.1993C13.1727 75.1993 11.8652 72.866 11.8652 71.6993C11.3652 68.6993 12.6151 65.5327 14.24 64.1994Z" stroke="black" stroke-width="0.5"/>
<path d="M11.8652 71.1994C19.8652 69.6995 23.3652 72.3279 26.3652 73.8279M13.3652 74.1995L30.8652 73.6995" stroke="black" stroke-width="0.5"/>
<path d="M22.3633 82.6992H31.8633C33.8633 82.6992 35.3633 80.6992 34.8633 79.6992M38.3633 79.6992V84.1992" stroke="black" stroke-width="0.5"/>
<path d="M22.3652 81.1997C17.8652 81.1997 13.3652 81.6997 1.86518 78.6997V76.6997L5.86518 74.6997V73.1997L1.86518 72.6997C1.36426 71.1995 0.364454 68.1995 2.36445 65.6995C1.86469 57.6995 2.36469 51.1995 4.36518 48.1992C36.8652 28.6996 58.8652 34.6997 84.8652 30.1997C162.865 -24.8005 244.865 12.1994 281.865 26.6996L295.365 28.6995L295.865 35.6995V38.6995C297.364 43.6995 298.699 48.1995 297.365 50.1995C299.865 51.1995 302.365 54.3661 302.365 56.1995L300.365 66.1995C300.817 77.0474 298.409 77.2717 289.077 77.5841C288.086 77.6173 286.017 77.6515 284.865 77.6995V79.1995L259.865 79.6305M22.3652 81.1997V84.1997H40.3635L39.8652 79.6997M22.3652 81.1997V79.6997H39.8652M39.8652 79.6997C36.8652 38.1997 90.3652 41.1997 86.8652 80.1997V82.6995H213.365C207.365 39.1995 261.865 39.1995 259.865 79.6305M259.364 79.6305H259.865" stroke="black"/>
</svg>
