<svg width="303" height="96" viewBox="0 0 303 96" fill="none" xmlns="http://www.w3.org/2000/svg">
<circle cx="62.6978" cy="74.1692" r="20.5" stroke="black"/>
<circle cx="235.698" cy="74.1692" r="20.5" stroke="black"/>
<path d="M132.696 12.669L131.196 9.16904C171.196 1.16916 192.696 1.66919 231.696 13.1691L228.196 17.6691C208.196 9.6691 190.196 8.6691 174.196 8.16917C171.696 7.66917 167.696 7.66913 165.196 8.16904C155.196 8.16917 143.196 9.66917 132.696 12.669Z" stroke="black" stroke-width="0.5"/>
<path d="M131.196 9.16923L130.696 7.66923C166.696 -3.33081 199.196 0.669064 234.696 9.66924L231.696 13.1692C191.696 0.669189 165.696 2.16919 131.196 9.16923Z" stroke="black" stroke-width="0.5"/>
<path d="M131.196 9.16918C182.696 -2.33085 211.196 7.66919 231.696 13.1692" stroke="black" stroke-width="0.5"/>
<path d="M226.698 30.6692L223.698 16.1692C219.198 14.6692 207.698 9.16919 174.198 8.16919L170.698 30.1692C181.698 29.6692 199.198 28.1692 226.198 28.1692" stroke="black" stroke-width="0.5"/>
<path d="M165.198 8.16919C132.198 9.16919 112.198 18.1692 93.1978 35.6692L95.6978 33.6692L159.698 30.6692L165.198 8.16919Z" stroke="black" stroke-width="0.5"/>
<path d="M239.696 22.6692C236.03 20.0025 230.196 17.6692 223.696 16.1692L226.196 28.1692H232.696C235.696 26.6692 238.696 24.4379 239.696 22.6692Z" stroke="black" stroke-width="0.5"/>
<path d="M96.6978 78.6692H163.698L198.198 77.1692M96.6978 78.6692C96.6978 80.1692 97.1978 81.1692 98.1978 82.6692M96.6978 78.6692H86.6978V82.6692H98.1978M198.198 77.1692L199.198 82.6692M198.198 77.1692H212.698L213.198 82.6692H199.198M199.198 82.6692H98.1978" stroke="black" stroke-width="0.5"/>
<path d="M96.6969 78.6692C92.1977 74.1692 89.1978 52.1692 93.1969 35.6692L165.198 31.6692C161.198 36.6692 160.198 70.6692 163.698 78.6692H96.6969Z" stroke="black" stroke-width="0.5"/>
<path d="M228.697 30.6692L165.197 31.6692C161.197 36.6692 160.198 70.6692 163.697 78.6692L198.197 77.1692C202.697 75.6692 209.197 70.1692 228.697 30.6692Z" stroke="black" stroke-width="0.5"/>
<path d="M170.698 30.1693C166.198 30.6693 162.698 30.6693 159.698 30.6693L165.198 8.16926C168.198 7.66919 171.198 7.66919 174.198 8.16926L170.698 30.1693Z" stroke="black" stroke-width="0.5"/>
<path d="M99.1978 32.1693C103.698 37.6693 110.698 34.1693 114.698 32.6693C115.698 17.1692 102.698 25.1692 99.1978 32.1693Z" stroke="black" stroke-width="0.5"/>
<path d="M234.696 9.66919L231.696 13.1692C248.696 18.6692 259.196 21.6692 271.696 28.1692H273.196L281.196 26.6692C266.196 20.1692 258.696 17.6692 234.696 9.66919Z" stroke="black" stroke-width="0.5"/>
<path d="M271.696 28.1692C261.196 22.6692 242.196 16.1692 231.696 13.1692L229.696 15.6692L244.696 23.1692C243.196 25.6692 239.196 27.6692 233.196 30.3692C245.196 29.6692 262.196 28.6692 271.696 28.1692Z" stroke="black" stroke-width="0.5"/>
<path d="M277.198 34.4692L283.196 32.1692L272.697 28.1692L228.697 30.6692C221.197 45.6692 206.197 76.1692 198.197 77.1692H212.697C211.197 66.1692 220.697 42.6692 245.698 51.6692C256.198 46.1692 266.198 40.6692 277.198 34.4692Z" stroke="black" stroke-width="0.5"/>
<path d="M278.196 34.1692C266.196 40.6692 256.196 46.1692 245.696 51.6692C250.196 54.6692 260.696 60.6692 259.696 79.6692L284.696 79.1692V77.6692C293.196 76.6692 301.696 80.1692 300.196 66.1692L302.196 56.1692C302.196 54.6692 299.696 50.6692 297.196 50.1692C298.696 47.6692 295.696 38.6692 295.696 38.6692V37.1692L291.696 34.1692L286.696 32.6692L283.196 32.1692L278.196 34.1692Z" stroke="black" stroke-width="0.5"/>
<path d="M295.696 37.1692L295.69 37.0894M295.69 37.0894L295.196 28.6692L281.196 26.6692L272.696 28.1692L283.196 32.1692C292.696 33.1692 291.695 34.6692 295.69 37.0894Z" stroke="black" stroke-width="0.5"/>
<path d="M294.198 36.6694C293.698 34.1693 282.698 33.9692 277.198 34.4692" stroke="black" stroke-width="0.5"/>
<path d="M300.198 66.6692L260.698 68.6692C260.198 63.6692 258.031 59.5025 256.198 57.6692L302.198 55.1692M300.698 52.6692C289.698 51.1692 278.698 46.3692 266.698 40.3692M228.698 30.6692L272.698 28.1692L281.198 26.6692" stroke="black" stroke-width="0.5"/>
<path d="M272.698 43.1692C279.693 43.519 285.71 43.6241 291.091 44.1692M297.698 45.1692C295.595 44.7185 293.402 44.4033 291.091 44.1692M295.698 37.6692C295.28 37.0841 294.811 36.5548 294.307 36.0792M291.091 44.1692C290.765 43.8244 290.671 43.3014 290.656 42.6692M290.656 42.6692C290.642 42.0789 290.698 41.3935 290.698 40.6692C290.698 38.6692 289.698 34.6692 286.198 32.6692C288.419 32.6692 291.795 33.7096 294.307 36.0792M290.656 42.6692C293.698 41.1692 294.77 37.6092 294.307 36.0792" stroke="black" stroke-width="0.5"/>
<path d="M290.698 40.6692C286.198 40.6692 284.198 36.6692 283.198 34.1692" stroke="black" stroke-width="0.5"/>
<path d="M132.696 12.7692C119.196 16.7692 107.196 22.6692 93.1963 35.6692C100.196 23.6692 115.696 14.1692 131.196 9.16919L132.696 12.7692Z" stroke="black" stroke-width="0.5"/>
<path d="M131.196 9.16919C111.196 14.8432 93.1963 32.1692 85.1963 30.1692C98.1963 20.6692 114.196 12.1692 130.696 7.66919L131.196 9.16919Z" stroke="black" stroke-width="0.5"/>
<path d="M10.197 48.1692H4.19696C1.69629 52.1692 1.69629 62.1692 2.19696 65.6692C0.696289 66.6692 0.696887 71.1692 1.69696 72.6692L5.69696 73.1692V74.6692L1.69696 76.6692V78.6692C5.69696 79.6692 14.197 81.6692 22.197 81.1692V79.6692H39.697C39.0303 71.1692 40.697 60.6692 49.697 53.6692C47.197 49.6692 40.197 45.1692 37.197 44.6692C27.197 43.6692 12.197 46.1692 10.197 48.1692Z" stroke="black" stroke-width="0.5"/>
<path d="M93.1978 35.6692C75.3644 36.5025 43.6978 41.3692 33.1978 44.3692L37.1978 44.6692C42.1978 46.1692 47.6978 50.5025 49.6978 53.6692C62.6968 44.1692 88.1968 51.1692 86.6968 78.6692H96.6968C89.6968 67.6692 90.6968 45.6692 93.1978 35.6692Z" stroke="black" stroke-width="0.5"/>
<path d="M10.1963 48.1692H4.19629C36.6965 28.6691 58.6965 34.6692 84.6963 30.1692L93.6965 35.6692C76.6965 36.6692 47.6963 40.1692 33.6963 44.3692C25.6963 44.1692 11.6963 46.1692 10.1963 48.1692Z" stroke="black" stroke-width="0.5"/>
<path d="M37.1977 44.6693C29.6977 43.6692 12.6977 45.6692 10.1977 48.1693C9.39774 50.5692 12.5311 53.5025 14.1977 54.6692C23.6978 56.1692 37.1977 50.1692 37.1977 44.6693Z" stroke="black" stroke-width="0.5"/>
<path d="M4.19698 48.1692C11.197 49.1692 5.19698 59.6692 2.19698 64.6692C1.69691 57.6692 2.19678 52.1692 4.19698 48.1692Z" stroke="black" stroke-width="0.5"/>
<path d="M22.1963 84.1692V79.6692H39.6963L40.1963 84.1692H22.1963Z" stroke="black" stroke-width="0.5"/>
<path d="M2.69824 65.6692C4.19824 68.1692 6.19824 71.3359 5.69824 73.1692M22.1982 79.6692C11.6982 80.1692 7.19824 76.1692 8.19824 72.6692C8.69824 72.1692 10.1982 70.6692 11.1982 70.6692" stroke="black" stroke-width="0.5"/>
<path d="M6.19824 65.6693C8.44818 65.1692 11.3231 64.5443 14.073 64.1693M14.073 64.1693C16.8231 63.7943 19.4482 63.6693 21.1982 64.1693C24.1982 65.6693 29.6982 70.6692 32.1982 74.6692C27.1982 75.6692 20.1982 75.1692 15.6982 75.1692C13.0057 75.1692 11.6982 72.8359 11.6982 71.6692C11.1982 68.6692 12.4481 65.5026 14.073 64.1693Z" stroke="black" stroke-width="0.5"/>
<path d="M11.6982 71.1693C19.6982 69.6693 23.1982 72.2978 26.1982 73.7978M13.1982 74.1693L30.6982 73.6693" stroke="black" stroke-width="0.5"/>
<path d="M22.1963 82.6692H31.6963C33.6963 82.6692 35.1963 80.6692 34.6963 79.6692M38.1963 79.6692V84.1692" stroke="black" stroke-width="0.5"/>
<path d="M22.1977 81.1694C17.6977 81.1694 13.1977 81.6694 1.6977 78.6694V76.6694L5.6977 74.6694V73.1694L1.6977 72.6694C1.19678 71.1692 0.196973 68.1692 2.19697 65.6692C1.69721 57.6692 2.19721 51.1692 4.1977 48.1689C36.6977 28.6693 58.6977 34.6694 84.6977 30.1694C162.698 -24.8307 244.698 12.1692 281.698 26.6694L295.198 28.6692L295.698 35.6692V38.6692C297.196 43.6692 298.531 48.1692 297.198 50.1692C299.698 51.1692 302.198 54.3359 302.198 56.1692L300.198 66.1692C300.65 77.0171 298.242 77.2414 288.91 77.5538C287.919 77.587 285.85 77.6212 284.698 77.6692V79.1692L259.698 79.6002M22.1977 81.1694V84.1694H40.196L39.6977 79.6694M22.1977 81.1694V79.6694H39.6977M39.6977 79.6694C36.6977 38.1694 90.1977 41.1694 86.6977 80.1694V82.6692H213.198C207.198 39.1692 261.698 39.1692 259.698 79.6002M259.196 79.6002H259.698" stroke="black"/>
</svg>
