<svg width="303" height="95" viewBox="0 0 303 95" fill="none" xmlns="http://www.w3.org/2000/svg">
<circle cx="62.4697" cy="73.8914" r="20.5" fill="#E0426F" stroke="black"/>
<circle cx="235.47" cy="73.8914" r="20.5" fill="#E0426F" stroke="black"/>
<path d="M132.468 12.3912L130.968 8.89121C170.968 0.891325 192.468 1.39136 231.468 12.8913L227.968 17.3913C207.968 9.39127 189.968 8.39127 173.968 7.89133C171.468 7.39133 167.468 7.3913 164.968 7.89121C154.968 7.89133 142.968 9.39134 132.468 12.3912Z" fill="#E0426F" stroke="black" stroke-width="0.5"/>
<path d="M130.968 8.8914L130.468 7.3914C166.468 -3.60864 198.968 0.391232 234.468 9.3914L231.468 12.8914C191.468 0.391357 165.468 1.89136 130.968 8.8914Z" fill="#E0426F" stroke="black" stroke-width="0.5"/>
<path d="M130.968 8.89122C182.468 -2.6088 210.968 7.39124 231.468 12.8912" stroke="black" stroke-width="0.5"/>
<path d="M170.47 29.8914L173.97 7.89136C207.47 8.89136 218.97 14.3914 223.47 15.8914L225.952 27.8914C198.962 27.892 181.467 29.3915 170.47 29.8914Z" fill="#E0426F"/>
<path d="M226.47 30.3914L223.47 15.8914C218.97 14.3914 207.47 8.89136 173.97 7.89136L170.47 29.8914C181.47 29.3914 198.97 27.8914 225.97 27.8914" stroke="black" stroke-width="0.5"/>
<path d="M164.97 7.89136C131.97 8.89136 111.97 17.8914 92.9697 35.3914L95.4697 33.3914L159.47 30.3914L164.97 7.89136Z" fill="#E0426F" stroke="black" stroke-width="0.5"/>
<path d="M239.468 22.3914C235.801 19.7247 229.968 17.3914 223.468 15.8914L225.968 27.8914H232.468C235.468 26.3914 238.468 24.1601 239.468 22.3914Z" fill="#E0426F" stroke="black" stroke-width="0.5"/>
<path d="M96.4697 78.3914H163.47L197.97 76.8914H212.47L212.97 82.3914H198.97H97.9697H86.4697V78.3914H96.4697Z" fill="#E0426F"/>
<path d="M96.4697 78.3914H163.47L197.97 76.8914M96.4697 78.3914C96.4697 79.8914 96.9697 80.8914 97.9697 82.3914M96.4697 78.3914H86.4697V82.3914H97.9697M197.97 76.8914L198.97 82.3914M197.97 76.8914H212.47L212.97 82.3914H198.97M198.97 82.3914H97.9697" stroke="black" stroke-width="0.5"/>
<path d="M96.4689 78.3914C91.9697 73.8914 88.9698 51.8914 92.9689 35.3914L164.97 31.3914C160.97 36.3914 159.97 70.3914 163.47 78.3914H96.4689Z" fill="#E0426F" stroke="black" stroke-width="0.5"/>
<path d="M228.47 30.3914L164.97 31.3914C160.97 36.3914 159.97 70.3914 163.47 78.3914L197.97 76.8914C202.47 75.3914 208.97 69.8914 228.47 30.3914Z" fill="#E0426F" stroke="black" stroke-width="0.5"/>
<path d="M170.47 29.8914C165.97 30.3914 162.47 30.3914 159.47 30.3914L164.97 7.89143C167.97 7.39136 170.97 7.39136 173.97 7.89143L170.47 29.8914Z" fill="#E0426F" stroke="black" stroke-width="0.5"/>
<path d="M98.9697 31.8914C103.47 37.3914 110.47 33.8914 114.47 32.3914C115.47 16.8913 102.47 24.8912 98.9697 31.8914Z" fill="#E0426F" stroke="black" stroke-width="0.5"/>
<path d="M234.468 9.39136L231.468 12.8914C248.468 18.3914 258.968 21.3914 271.468 27.8914H272.968L280.968 26.3914C265.968 19.8914 258.468 17.3914 234.468 9.39136Z" fill="#EDADBF" stroke="black" stroke-width="0.5"/>
<path d="M271.468 27.8914C260.968 22.3914 241.968 15.8914 231.468 12.8914L229.468 15.3914L244.468 22.8914C242.968 25.3914 238.968 27.3914 232.968 30.0914C244.968 29.3914 261.968 28.3914 271.468 27.8914Z" fill="#EDADBF" stroke="black" stroke-width="0.5"/>
<path d="M276.97 34.1914L282.968 31.8914L272.469 27.8914L228.469 30.3914C220.969 45.3914 205.969 75.8914 197.969 76.8914H212.469C210.969 65.8914 220.469 42.3914 245.47 51.3914C255.97 45.8914 265.97 40.3914 276.97 34.1914Z" fill="#EDADBF" stroke="black" stroke-width="0.5"/>
<path d="M277.968 33.8914C265.968 40.3914 255.968 45.8914 245.468 51.3914C249.968 54.3914 260.468 60.3914 259.468 79.3914L284.468 78.8914V77.3914C292.968 76.3914 301.468 79.8914 299.968 65.8914L301.968 55.8914C301.968 54.3914 299.468 50.3914 296.968 49.8914C298.468 47.3914 295.468 38.3914 295.468 38.3914V36.8914L291.468 33.8914L286.468 32.3914L282.968 31.8914L277.968 33.8914Z" fill="#EDADBF" stroke="black" stroke-width="0.5"/>
<path d="M280.968 26.3914L272.468 27.8914L282.968 31.8914C292.468 32.8914 291.467 34.3914 295.462 36.8115L294.968 28.3914L280.968 26.3914Z" fill="#EDADBF"/>
<path d="M295.468 36.8914L295.462 36.8115M295.462 36.8115L294.968 28.3914L280.968 26.3914L272.468 27.8914L282.968 31.8914C292.468 32.8914 291.467 34.3914 295.462 36.8115Z" stroke="black" stroke-width="0.5"/>
<path d="M293.97 36.3916C293.47 33.8914 282.47 33.6914 276.97 34.1914" stroke="black" stroke-width="0.5"/>
<path d="M299.97 66.3914L260.47 68.3914C259.97 63.3914 257.803 59.2247 255.97 57.3914L301.97 54.8914M300.47 52.3914C289.47 50.8914 278.47 46.0914 266.47 40.0914M228.47 30.3914L272.47 27.8914L280.97 26.3914" stroke="black" stroke-width="0.5"/>
<path d="M290.47 40.3914C290.47 38.3914 289.47 34.3914 285.97 32.3914C288.191 32.3914 291.567 33.4317 294.079 35.8013C294.542 37.3313 293.47 40.8914 290.428 42.3914C290.414 41.8011 290.47 41.1156 290.47 40.3914Z" fill="#EDADBF"/>
<path d="M272.47 42.8914C279.465 43.2411 285.482 43.3462 290.863 43.8914M297.47 44.8914C295.367 44.4407 293.173 44.1255 290.863 43.8914M295.47 37.3914C295.052 36.8062 294.583 36.277 294.079 35.8013M290.863 43.8914C290.537 43.5466 290.443 43.0235 290.428 42.3914M290.428 42.3914C290.414 41.8011 290.47 41.1156 290.47 40.3914C290.47 38.3914 289.47 34.3914 285.97 32.3914C288.191 32.3914 291.567 33.4317 294.079 35.8013M290.428 42.3914C293.47 40.8914 294.542 37.3313 294.079 35.8013" stroke="black" stroke-width="0.5"/>
<path d="M290.47 40.3914C285.97 40.3914 283.97 36.3914 282.97 33.8914" stroke="black" stroke-width="0.5"/>
<path d="M132.468 12.4913C118.968 16.4913 106.968 22.3914 92.9678 35.3914C99.9678 23.3914 115.468 13.8914 130.968 8.89136L132.468 12.4913Z" fill="#EDADBF" stroke="black" stroke-width="0.5"/>
<path d="M130.968 8.89136C110.968 14.5654 92.9678 31.8914 84.9678 29.8914C97.9678 20.3914 113.968 11.8914 130.468 7.39136L130.968 8.89136Z" fill="#EDADBF" stroke="black" stroke-width="0.5"/>
<path d="M9.96844 47.8912H3.96844C1.46777 51.8912 1.46777 61.8912 1.96844 65.3912C0.467773 66.3912 0.468371 70.8912 1.46844 72.3912L5.46844 72.8912V74.3912L1.46844 76.3912V78.3912C5.46844 79.3912 13.9684 81.3912 21.9684 80.8912V79.3912H39.4684C38.8018 70.8912 40.4684 60.3912 49.4684 53.3912C46.9684 49.3912 39.9684 44.8912 36.9684 44.3912C26.9684 43.3912 11.9684 45.8912 9.96844 47.8912Z" fill="#EDADBF" stroke="black" stroke-width="0.5"/>
<path d="M92.9697 35.3914C75.1364 36.2247 43.4697 41.0914 32.9697 44.0914L36.9697 44.3914C41.9697 45.8914 47.4697 50.2247 49.4697 53.3914C62.4688 43.8914 87.9688 50.8914 86.4688 78.3914H96.4688C89.4688 67.3914 90.4688 45.3914 92.9697 35.3914Z" fill="#EDADBF" stroke="black" stroke-width="0.5"/>
<path d="M9.96777 47.8914H3.96777C36.468 28.3913 58.468 34.3914 84.4678 29.8914L93.468 35.3914C76.468 36.3914 47.4678 39.8914 33.4678 44.0914C25.4678 43.8913 11.4678 45.8914 9.96777 47.8914Z" fill="#EDADBF" stroke="black" stroke-width="0.5"/>
<path d="M36.9692 44.3914C29.4692 43.3914 12.4692 45.3914 9.96923 47.8914C9.16923 50.2914 12.3026 53.2247 13.9692 54.3914C23.4692 55.8914 36.9692 49.8914 36.9692 44.3914Z" fill="#EDADBF" stroke="black" stroke-width="0.5"/>
<path d="M3.96847 47.8914C10.9685 48.8914 4.96847 59.3914 1.96847 64.3914C1.4684 57.3914 1.96826 51.8914 3.96847 47.8914Z" fill="#EDADBF" stroke="black" stroke-width="0.5"/>
<path d="M21.9678 83.8914V79.3914H39.4678L39.9678 83.8914H21.9678Z" fill="#EDADBF" stroke="black" stroke-width="0.5"/>
<path d="M2.46973 65.3911C3.96973 67.8911 5.96973 71.0578 5.46973 72.8911M21.9697 79.3911C11.4697 79.8911 6.96973 75.8911 7.96973 72.3911C8.46973 71.8911 9.96973 70.3911 10.9697 70.3911" stroke="black" stroke-width="0.5"/>
<path d="M31.9697 74.3912C29.4697 70.3912 23.9697 65.3913 20.9697 63.8913C19.2197 63.3913 16.5946 63.5163 13.8445 63.8913C12.2196 65.2246 10.9697 68.3912 11.4697 71.3912C11.4697 72.5579 12.7771 74.8912 15.4697 74.8912C19.9697 74.8912 26.9697 75.3912 31.9697 74.3912Z" fill="#EDADBF"/>
<path d="M5.96973 65.3913C8.21967 64.8913 11.0946 64.2663 13.8445 63.8913M13.8445 63.8913C16.5946 63.5163 19.2197 63.3913 20.9697 63.8913C23.9697 65.3913 29.4697 70.3912 31.9697 74.3912C26.9697 75.3912 19.9697 74.8912 15.4697 74.8912C12.7771 74.8912 11.4697 72.5579 11.4697 71.3912C10.9697 68.3912 12.2196 65.2246 13.8445 63.8913Z" stroke="black" stroke-width="0.5"/>
<path d="M11.4697 70.8913C19.4697 69.3914 22.9697 72.0198 25.9697 73.5198M12.9697 73.8914L30.4697 73.3914" stroke="black" stroke-width="0.5"/>
<path d="M21.9678 82.3911H31.4678C33.4678 82.3911 34.9678 80.3911 34.4678 79.3911M37.9678 79.3911V83.8911" stroke="black" stroke-width="0.5"/>
<path d="M21.9697 80.8916C17.4697 80.8916 12.9697 81.3916 1.46967 78.3916V76.3916L5.46967 74.3916V72.8916L1.46967 72.3916C0.96875 70.8914 -0.0310541 67.8914 1.96894 65.3914C1.46918 57.3914 1.96918 50.8914 3.96967 47.8911C36.4697 28.3915 58.4697 34.3915 84.4697 29.8915C162.47 -25.1086 244.47 11.8913 281.47 26.3915L294.97 28.3914L295.47 35.3914V38.3914C296.968 43.3914 298.303 47.8914 296.97 49.8914C299.47 50.8914 301.97 54.058 301.97 55.8914L299.97 65.8914C300.422 76.7393 298.013 76.9635 288.682 77.276C287.691 77.3092 285.622 77.3434 284.47 77.3914V78.8914L259.47 79.3224M21.9697 80.8916V83.8916H39.968L39.4697 79.3916M21.9697 80.8916V79.3916H39.4697M39.4697 79.3916C36.4697 37.8916 89.9697 40.8916 86.4697 79.8916V82.3914H212.97C206.97 38.8914 261.47 38.8914 259.47 79.3224M258.968 79.3224H259.47" stroke="black"/>
</svg>
