<svg width="303" height="96" viewBox="0 0 303 96" fill="none" xmlns="http://www.w3.org/2000/svg">
<circle cx="62.249" cy="74.553" r="20.5" fill="#E56E90" stroke="black"/>
<circle cx="235.249" cy="74.553" r="20.5" fill="#E56E90" stroke="black"/>
<path d="M132.247 13.0528L130.747 9.55283C170.747 1.55295 192.247 2.05298 231.247 13.5529L227.747 18.0529C207.747 10.0529 189.747 9.05289 173.747 8.55296C171.247 8.05296 167.247 8.05292 164.747 8.55283C154.747 8.55296 142.747 10.053 132.247 13.0528Z" fill="#E0426F" stroke="black" stroke-width="0.5"/>
<path d="M130.747 9.55302L130.247 8.05302C166.247 -2.94702 198.747 1.05285 234.247 10.053L231.247 13.553C191.247 1.05298 165.247 2.55298 130.747 9.55302Z" fill="#E0426F" stroke="black" stroke-width="0.5"/>
<path d="M130.747 9.55284C182.247 -1.94718 210.747 8.05286 231.247 13.5528" stroke="black" stroke-width="0.5"/>
<path d="M170.249 30.553L173.749 8.55298C207.249 9.55298 218.749 15.053 223.249 16.553L225.732 28.553C198.742 28.5536 181.247 30.0531 170.249 30.553Z" fill="#E0426F"/>
<path d="M226.249 31.053L223.249 16.553C218.749 15.053 207.249 9.55298 173.749 8.55298L170.249 30.553C181.249 30.053 198.749 28.553 225.749 28.553" stroke="black" stroke-width="0.5"/>
<path d="M164.749 8.55298C131.749 9.55298 111.749 18.553 92.749 36.053L95.249 34.053L159.249 31.053L164.749 8.55298Z" fill="#E0426F" stroke="black" stroke-width="0.5"/>
<path d="M239.247 23.053C235.58 20.3863 229.747 18.053 223.247 16.553L225.747 28.553H232.247C235.247 27.053 238.247 24.8217 239.247 23.053Z" fill="#E0426F" stroke="black" stroke-width="0.5"/>
<path d="M96.249 79.053H163.249L197.749 77.553H212.249L212.749 83.053H198.749H97.749H86.249V79.053H96.249Z" fill="#E0426F"/>
<path d="M96.249 79.053H163.249L197.749 77.553M96.249 79.053C96.249 80.553 96.749 81.553 97.749 83.053M96.249 79.053H86.249V83.053H97.749M197.749 77.553L198.749 83.053M197.749 77.553H212.249L212.749 83.053H198.749M198.749 83.053H97.749" stroke="black" stroke-width="0.5"/>
<path d="M96.2482 79.053C91.749 74.553 88.7491 52.553 92.7482 36.053L164.749 32.053C160.749 37.053 159.749 71.053 163.249 79.053H96.2482Z" fill="#E0426F" stroke="black" stroke-width="0.5"/>
<path d="M228.249 31.053L164.749 32.053C160.749 37.053 159.749 71.053 163.249 79.053L197.749 77.553C202.249 76.053 208.749 70.553 228.249 31.053Z" fill="#E0426F" stroke="black" stroke-width="0.5"/>
<path d="M170.249 30.5531C165.749 31.0531 162.249 31.0531 159.249 31.0531L164.749 8.55305C167.749 8.05298 170.749 8.05298 173.749 8.55305L170.249 30.5531Z" fill="#E0426F" stroke="black" stroke-width="0.5"/>
<path d="M98.749 32.553C103.249 38.053 110.249 34.553 114.249 33.053C115.249 17.5529 102.249 25.5529 98.749 32.553Z" fill="#E0426F" stroke="black" stroke-width="0.5"/>
<path d="M234.247 10.053L231.247 13.553C248.247 19.053 258.747 22.053 271.247 28.553H272.747L280.747 27.053C265.747 20.553 258.247 18.053 234.247 10.053Z" fill="#E0426F" stroke="black" stroke-width="0.5"/>
<path d="M271.247 28.553C260.747 23.053 241.747 16.553 231.247 13.553L229.247 16.053L244.247 23.553C242.747 26.053 238.747 28.053 232.747 30.753C244.747 30.053 261.747 29.053 271.247 28.553Z" fill="#E0426F" stroke="black" stroke-width="0.5"/>
<path d="M276.749 34.853L282.747 32.553L272.248 28.553L228.248 31.053C220.748 46.053 205.748 76.553 197.748 77.553H212.248C210.748 66.553 220.248 43.053 245.249 52.053C255.749 46.553 265.749 41.053 276.749 34.853Z" fill="#E0426F" stroke="black" stroke-width="0.5"/>
<path d="M277.747 34.553C265.747 41.053 255.747 46.553 245.247 52.053C249.747 55.053 260.247 61.053 259.247 80.053L284.247 79.553V78.053C292.747 77.053 301.247 80.553 299.747 66.553L301.747 56.553C301.747 55.053 299.247 51.053 296.747 50.553C298.247 48.053 295.247 39.053 295.247 39.053V37.553L291.247 34.553L286.247 33.053L282.747 32.553L277.747 34.553Z" fill="#E0426F" stroke="black" stroke-width="0.5"/>
<path d="M280.747 27.053L272.247 28.553L282.747 32.553C292.247 33.553 291.246 35.053 295.241 37.4732L294.747 29.053L280.747 27.053Z" fill="#E0426F"/>
<path d="M295.247 37.553L295.241 37.4732M295.241 37.4732L294.747 29.053L280.747 27.053L272.247 28.553L282.747 32.553C292.247 33.553 291.246 35.053 295.241 37.4732Z" stroke="black" stroke-width="0.5"/>
<path d="M293.749 37.0532C293.249 34.5531 282.249 34.353 276.749 34.853" stroke="black" stroke-width="0.5"/>
<path d="M299.749 67.053L260.249 69.053C259.749 64.053 257.582 59.8863 255.749 58.053L301.749 55.553M300.249 53.053C289.249 51.553 278.249 46.753 266.249 40.753M228.249 31.053L272.249 28.553L280.749 27.053" stroke="black" stroke-width="0.5"/>
<path d="M290.249 41.053C290.249 39.053 289.249 35.053 285.749 33.053C287.97 33.053 291.347 34.0934 293.858 36.463C294.322 37.993 293.249 41.553 290.207 43.053C290.194 42.4627 290.249 41.7773 290.249 41.053Z" fill="#E0426F"/>
<path d="M272.249 43.553C279.245 43.9028 285.262 44.0079 290.642 44.553M297.249 45.553C295.146 45.1023 292.953 44.7871 290.642 44.553M295.249 38.053C294.831 37.4679 294.362 36.9386 293.858 36.463M290.642 44.553C290.316 44.2082 290.222 43.6852 290.207 43.053M290.207 43.053C290.194 42.4627 290.249 41.7773 290.249 41.053C290.249 39.053 289.249 35.053 285.749 33.053C287.97 33.053 291.347 34.0934 293.858 36.463M290.207 43.053C293.249 41.553 294.322 37.993 293.858 36.463" stroke="black" stroke-width="0.5"/>
<path d="M290.249 41.053C285.749 41.053 283.749 37.053 282.749 34.553" stroke="black" stroke-width="0.5"/>
<path d="M132.247 13.153C118.747 17.153 106.747 23.053 92.7471 36.053C99.7471 24.053 115.247 14.553 130.747 9.55298L132.247 13.153Z" stroke="black" stroke-width="0.5"/>
<path d="M130.747 9.55298C110.747 15.227 92.7471 32.553 84.7471 30.553C97.7471 21.053 113.747 12.553 130.247 8.05298L130.747 9.55298Z" stroke="black" stroke-width="0.5"/>
<path d="M9.74774 48.5529H3.74774C1.24707 52.5529 1.24707 62.5529 1.74774 66.0529C0.24707 67.0529 0.247668 71.5529 1.24774 73.0529L5.24774 73.5529V75.0529L1.24774 77.0529V79.0529C5.24774 80.0529 13.7477 82.0529 21.7477 81.5529V80.0529H39.2477C38.5811 71.5529 40.2477 61.0529 49.2477 54.0529C46.7477 50.0529 39.7477 45.5529 36.7477 45.0529C26.7477 44.0529 11.7477 46.5529 9.74774 48.5529Z" stroke="black" stroke-width="0.5"/>
<path d="M92.749 36.053C74.9157 36.8863 43.249 41.753 32.749 44.753L36.749 45.053C41.749 46.553 47.249 50.8863 49.249 54.053C62.248 44.553 87.748 51.553 86.248 79.053H96.248C89.248 68.053 90.248 46.053 92.749 36.053Z" stroke="black" stroke-width="0.5"/>
<path d="M9.74707 48.553H3.74707C36.2473 29.0529 58.2473 35.053 84.2471 30.553L93.2473 36.053C76.2473 37.053 47.2471 40.553 33.2471 44.753C25.2471 44.553 11.2471 46.553 9.74707 48.553Z" stroke="black" stroke-width="0.5"/>
<path d="M36.7485 45.0531C29.2485 44.053 12.2485 46.053 9.74852 48.5531C8.94852 50.953 12.0819 53.8863 13.7485 55.053C23.2485 56.553 36.7485 50.553 36.7485 45.0531Z" stroke="black" stroke-width="0.5"/>
<path d="M3.74777 48.553C10.7478 49.553 4.74777 60.053 1.74777 65.053C1.2477 58.053 1.74756 52.553 3.74777 48.553Z" stroke="black" stroke-width="0.5"/>
<path d="M21.7471 84.553V80.053H39.2471L39.7471 84.553H21.7471Z" stroke="black" stroke-width="0.5"/>
<path d="M2.24902 66.0527C3.74902 68.5527 5.74902 71.7194 5.24902 73.5527M21.749 80.0527C11.249 80.5527 6.74902 76.5527 7.74902 73.0527C8.24902 72.5527 9.74902 71.0527 10.749 71.0527" stroke="black" stroke-width="0.5"/>
<path d="M5.74902 66.0529C7.99897 65.5529 10.8739 64.9279 13.6238 64.5529M13.6238 64.5529C16.3739 64.1779 18.999 64.0529 20.749 64.5529C23.749 66.0529 29.249 71.0529 31.749 75.0529C26.749 76.0529 19.749 75.5529 15.249 75.5529C12.5564 75.5529 11.249 73.2195 11.249 72.0529C10.749 69.0529 11.9989 65.8862 13.6238 64.5529Z" stroke="black" stroke-width="0.5"/>
<path d="M11.249 71.5529C19.249 70.053 22.749 72.6815 25.749 74.1815M12.749 74.553L30.249 74.053" stroke="black" stroke-width="0.5"/>
<path d="M21.7471 83.0527H31.2471C33.2471 83.0527 34.7471 81.0527 34.2471 80.0527M37.7471 80.0527V84.5527" stroke="black" stroke-width="0.5"/>
<path d="M21.749 81.5532C17.249 81.5532 12.749 82.0532 1.24897 79.0532V77.0532L5.24897 75.0532V73.5532L1.24897 73.0532C0.748047 71.553 -0.251757 68.553 1.74824 66.053C1.24848 58.053 1.74848 51.553 3.74897 48.5527C36.249 29.0531 58.249 35.0532 84.249 30.5532C162.249 -24.4469 244.249 12.553 281.249 27.0532L294.749 29.053L295.249 36.053V39.053C296.747 44.053 298.082 48.553 296.749 50.553C299.249 51.553 301.749 54.7196 301.749 56.553L299.749 66.553C300.201 77.4009 297.793 77.6252 288.461 77.9376C287.47 77.9708 285.401 78.005 284.249 78.053V79.553L259.249 79.984M21.749 81.5532V84.5532H39.7473L39.249 80.0532M21.749 81.5532V80.0532H39.249M39.249 80.0532C36.249 38.5532 89.749 41.5532 86.249 80.5532V83.053H212.749C206.749 39.553 261.249 39.553 259.249 79.984M258.747 79.984H259.249" stroke="black"/>
</svg>
