<svg width="303" height="96" viewBox="0 0 303 96" fill="none" xmlns="http://www.w3.org/2000/svg">
<circle cx="62.667" cy="74.2146" r="20.5" stroke="black"/>
<circle cx="235.667" cy="74.2146" r="20.5" stroke="black"/>
<path d="M132.665 12.7145L131.165 9.21445C171.165 1.21457 192.665 1.7146 231.665 13.2145L228.165 17.7145C208.165 9.71451 190.165 8.71451 174.165 8.21458C171.665 7.71458 167.665 7.71454 165.165 8.21445C155.165 8.21458 143.165 9.71458 132.665 12.7145Z" fill="#E56E90" stroke="black" stroke-width="0.5"/>
<path d="M131.165 9.21464L130.665 7.71464C166.665 -3.2854 199.165 0.714474 234.665 9.71465L231.665 13.2146C191.665 0.7146 165.665 2.2146 131.165 9.21464Z" fill="#E56E90" stroke="black" stroke-width="0.5"/>
<path d="M131.165 9.21447C182.665 -2.28556 211.165 7.71448 231.665 13.2145" stroke="black" stroke-width="0.5"/>
<path d="M170.667 30.2146L174.167 8.2146C207.667 9.2146 219.167 14.7146 223.667 16.2146L226.15 28.2146C199.16 28.2152 181.665 29.7147 170.667 30.2146Z" fill="#E56E90"/>
<path d="M226.667 30.7146L223.667 16.2146C219.167 14.7146 207.667 9.2146 174.167 8.2146L170.667 30.2146C181.667 29.7146 199.167 28.2146 226.167 28.2146" stroke="black" stroke-width="0.5"/>
<path d="M165.167 8.2146C132.167 9.2146 112.167 18.2146 93.167 35.7146L95.667 33.7146L159.667 30.7146L165.167 8.2146Z" fill="#E56E90" stroke="black" stroke-width="0.5"/>
<path d="M239.665 22.7146C235.998 20.0479 230.165 17.7146 223.665 16.2146L226.165 28.2146H232.665C235.665 26.7146 238.665 24.4833 239.665 22.7146Z" fill="#E56E90" stroke="black" stroke-width="0.5"/>
<path d="M96.667 78.7146H163.667L198.167 77.2146H212.667L213.167 82.7146H199.167H98.167H86.667V78.7146H96.667Z" fill="#E56E90"/>
<path d="M96.667 78.7146H163.667L198.167 77.2146M96.667 78.7146C96.667 80.2146 97.167 81.2146 98.167 82.7146M96.667 78.7146H86.667V82.7146H98.167M198.167 77.2146L199.167 82.7146M198.167 77.2146H212.667L213.167 82.7146H199.167M199.167 82.7146H98.167" stroke="black" stroke-width="0.5"/>
<path d="M96.6661 78.7146C92.167 74.2146 89.167 52.2146 93.1661 35.7146L165.167 31.7146C161.167 36.7146 160.167 70.7146 163.667 78.7146H96.6661Z" fill="#E56E90" stroke="black" stroke-width="0.5"/>
<path d="M228.667 30.7146L165.167 31.7146C161.167 36.7146 160.167 70.7146 163.667 78.7146L198.167 77.2146C202.667 75.7146 209.167 70.2146 228.667 30.7146Z" fill="#E56E90" stroke="black" stroke-width="0.5"/>
<path d="M170.667 30.2147C166.167 30.7147 162.667 30.7147 159.667 30.7147L165.167 8.21467C168.167 7.7146 171.167 7.7146 174.167 8.21467L170.667 30.2147Z" fill="#E56E90" stroke="black" stroke-width="0.5"/>
<path d="M99.167 32.2146C103.667 37.7146 110.667 34.2146 114.667 32.7146C115.667 17.2145 102.667 25.2145 99.167 32.2146Z" fill="#E56E90" stroke="black" stroke-width="0.5"/>
<path d="M234.665 9.7146L231.665 13.2146C248.665 18.7146 259.165 21.7146 271.665 28.2146H273.165L281.165 26.7146C266.165 20.2146 258.665 17.7146 234.665 9.7146Z" fill="#E56E90" stroke="black" stroke-width="0.5"/>
<path d="M271.665 28.2146C261.165 22.7146 242.165 16.2146 231.665 13.2146L229.665 15.7146L244.665 23.2146C243.165 25.7146 239.165 27.7146 233.165 30.4146C245.165 29.7146 262.165 28.7146 271.665 28.2146Z" fill="#E56E90" stroke="black" stroke-width="0.5"/>
<path d="M277.167 34.5146L283.165 32.2146L272.666 28.2146L228.666 30.7146C221.166 45.7146 206.166 76.2146 198.166 77.2146H212.666C211.166 66.2146 220.666 42.7146 245.667 51.7146C256.167 46.2146 266.167 40.7146 277.167 34.5146Z" fill="#E56E90" stroke="black" stroke-width="0.5"/>
<path d="M278.165 34.2146C266.165 40.7146 256.165 46.2146 245.665 51.7146C250.165 54.7146 260.665 60.7146 259.665 79.7146L284.665 79.2146V77.7146C293.165 76.7146 301.665 80.2146 300.165 66.2146L302.165 56.2146C302.165 54.7146 299.665 50.7146 297.165 50.2146C298.665 47.7146 295.665 38.7146 295.665 38.7146V37.2146L291.665 34.2146L286.665 32.7146L283.165 32.2146L278.165 34.2146Z" fill="#E56E90" stroke="black" stroke-width="0.5"/>
<path d="M281.165 26.7146L272.665 28.2146L283.165 32.2146C292.665 33.2146 291.664 34.7146 295.659 37.1348L295.165 28.7146L281.165 26.7146Z" fill="#E56E90"/>
<path d="M295.665 37.2146L295.659 37.1348M295.659 37.1348L295.165 28.7146L281.165 26.7146L272.665 28.2146L283.165 32.2146C292.665 33.2146 291.664 34.7146 295.659 37.1348Z" stroke="black" stroke-width="0.5"/>
<path d="M294.167 36.7148C293.667 34.2147 282.667 34.0146 277.167 34.5146" stroke="black" stroke-width="0.5"/>
<path d="M300.167 66.7146L260.667 68.7146C260.167 63.7146 258 59.5479 256.167 57.7146L302.167 55.2146M300.667 52.7146C289.667 51.2146 278.667 46.4146 266.667 40.4146M228.667 30.7146L272.667 28.2146L281.167 26.7146" stroke="black" stroke-width="0.5"/>
<path d="M290.667 40.7146C290.667 38.7146 289.667 34.7146 286.167 32.7146C288.388 32.7146 291.765 33.755 294.276 36.1246C294.74 37.6546 293.667 41.2146 290.625 42.7146C290.612 42.1243 290.667 41.4389 290.667 40.7146Z" fill="#E56E90"/>
<path d="M272.667 43.2146C279.663 43.5644 285.68 43.6695 291.06 44.2146M297.667 45.2146C295.564 44.764 293.371 44.4487 291.06 44.2146M295.667 37.7146C295.249 37.1295 294.78 36.6002 294.276 36.1246M291.06 44.2146C290.734 43.8698 290.64 43.3468 290.625 42.7146M290.625 42.7146C290.612 42.1243 290.667 41.4389 290.667 40.7146C290.667 38.7146 289.667 34.7146 286.167 32.7146C288.388 32.7146 291.765 33.755 294.276 36.1246M290.625 42.7146C293.667 41.2146 294.74 37.6546 294.276 36.1246" stroke="black" stroke-width="0.5"/>
<path d="M290.667 40.7146C286.167 40.7146 284.167 36.7146 283.167 34.2146" stroke="black" stroke-width="0.5"/>
<path d="M132.665 12.8146C119.165 16.8146 107.165 22.7146 93.165 35.7146C100.165 23.7146 115.665 14.2146 131.165 9.2146L132.665 12.8146Z" fill="#E56E90" stroke="black" stroke-width="0.5"/>
<path d="M131.165 9.2146C111.165 14.8886 93.165 32.2146 85.165 30.2146C98.165 20.7146 114.165 12.2146 130.665 7.7146L131.165 9.2146Z" fill="#E56E90" stroke="black" stroke-width="0.5"/>
<path d="M10.1657 48.2145H4.16571C1.66504 52.2145 1.66504 62.2145 2.16571 65.7145C0.665039 66.7145 0.665637 71.2145 1.66571 72.7145L5.66571 73.2145V74.7145L1.66571 76.7145V78.7145C5.66571 79.7145 14.1657 81.7145 22.1657 81.2145V79.7145H39.6657C38.999 71.2145 40.6657 60.7145 49.6657 53.7145C47.1657 49.7145 40.1657 45.2145 37.1657 44.7145C27.1657 43.7145 12.1657 46.2145 10.1657 48.2145Z" fill="#E56E90" stroke="black" stroke-width="0.5"/>
<path d="M93.167 35.7146C75.3337 36.5479 43.667 41.4146 33.167 44.4146L37.167 44.7146C42.167 46.2146 47.667 50.5479 49.667 53.7146C62.666 44.2146 88.166 51.2146 86.666 78.7146H96.666C89.666 67.7146 90.666 45.7146 93.167 35.7146Z" fill="#E56E90" stroke="black" stroke-width="0.5"/>
<path d="M10.165 48.2147H4.16504C36.6652 28.7146 58.6653 34.7146 84.665 30.2146L93.6653 35.7146C76.6653 36.7146 47.665 40.2146 33.665 44.4146C25.665 44.2146 11.665 46.2146 10.165 48.2147Z" fill="#E56E90" stroke="black" stroke-width="0.5"/>
<path d="M37.1665 44.7147C29.6665 43.7146 12.6665 45.7146 10.1665 48.2147C9.36649 50.6146 12.4998 53.5479 14.1665 54.7146C23.6665 56.2146 37.1665 50.2146 37.1665 44.7147Z" fill="#E56E90" stroke="black" stroke-width="0.5"/>
<path d="M4.16573 48.2146C11.1657 49.2146 5.16573 59.7146 2.16573 64.7146C1.66566 57.7146 2.16553 52.2146 4.16573 48.2146Z" fill="#E56E90" stroke="black" stroke-width="0.5"/>
<path d="M22.165 84.2146V79.7146H39.665L40.165 84.2146H22.165Z" fill="#E56E90" stroke="black" stroke-width="0.5"/>
<path d="M2.66699 65.7144C4.16699 68.2144 6.16699 71.381 5.66699 73.2144M22.167 79.7144C11.667 80.2144 7.16699 76.2144 8.16699 72.7144C8.66699 72.2144 10.167 70.7144 11.167 70.7144" stroke="black" stroke-width="0.5"/>
<path d="M32.167 74.7145C29.667 70.7145 24.167 65.7146 21.167 64.2146C19.4169 63.7145 16.7919 63.8395 14.0418 64.2146C12.4169 65.5479 11.167 68.7145 11.667 71.7145C11.667 72.8811 12.9744 75.2145 15.667 75.2145C20.167 75.2145 27.167 75.7145 32.167 74.7145Z" fill="#E56E90"/>
<path d="M6.16699 65.7146C8.41693 65.2145 11.2918 64.5896 14.0418 64.2146M14.0418 64.2146C16.7919 63.8395 19.4169 63.7145 21.167 64.2146C24.167 65.7146 29.667 70.7145 32.167 74.7145C27.167 75.7145 20.167 75.2145 15.667 75.2145C12.9744 75.2145 11.667 72.8811 11.667 71.7145C11.167 68.7145 12.4168 65.5479 14.0418 64.2146Z" stroke="black" stroke-width="0.5"/>
<path d="M11.667 71.2146C19.667 69.7146 23.167 72.3431 26.167 73.8431M13.167 74.2146L30.667 73.7146" stroke="black" stroke-width="0.5"/>
<path d="M22.165 82.7144H31.665C33.665 82.7144 35.165 80.7144 34.665 79.7144M38.165 79.7144V84.2144" stroke="black" stroke-width="0.5"/>
<path d="M22.1669 81.2148C17.6669 81.2148 13.1669 81.7148 1.66694 78.7148V76.7148L5.66694 74.7148V73.2148L1.66694 72.7149C1.16602 71.2146 0.166211 68.2146 2.16621 65.7146C1.66645 57.7146 2.16645 51.2146 4.16694 48.2143C36.6669 28.7147 58.6669 34.7148 84.6669 30.2148C162.667 -24.7853 244.667 12.2146 281.667 26.7148L295.167 28.7146L295.667 35.7146V38.7146C297.165 43.7146 298.5 48.2146 297.167 50.2146C299.667 51.2146 302.167 54.3813 302.167 56.2146L300.167 66.2146C300.619 77.0625 298.211 77.2868 288.879 77.5992C287.888 77.6324 285.819 77.6666 284.667 77.7146V79.2146L259.667 79.6456M22.1669 81.2148V84.2148H40.1653L39.6669 79.7148M22.1669 81.2148V79.7148H39.6669M39.6669 79.7148C36.6669 38.2148 90.1669 41.2148 86.6669 80.2148V82.7146H213.167C207.167 39.2146 261.667 39.2146 259.667 79.6456M259.165 79.6456H259.667" stroke="black"/>
</svg>
