<svg width="303" height="96" viewBox="0 0 303 96" fill="none" xmlns="http://www.w3.org/2000/svg">
<circle cx="62.4473" cy="74.5076" r="20.5" fill="#E0426F" stroke="black"/>
<circle cx="235.447" cy="74.5076" r="20.5" fill="#E0426F" stroke="black"/>
<path d="M132.445 13.0074L130.945 9.50742C170.945 1.50754 192.445 2.00757 231.445 13.5075L227.945 18.0075C207.945 10.0075 189.945 9.00748 173.945 8.50755C171.445 8.00755 167.445 8.00751 164.945 8.50742C154.945 8.50755 142.945 10.0075 132.445 13.0074Z" stroke="black" stroke-width="0.5"/>
<path d="M130.945 9.50761L130.445 8.00761C166.445 -2.99243 198.945 1.00744 234.445 10.0076L231.445 13.5076C191.445 1.00757 165.445 2.50757 130.945 9.50761Z" stroke="black" stroke-width="0.5"/>
<path d="M130.945 9.50756C182.445 -1.99247 210.945 8.00757 231.445 13.5076" stroke="black" stroke-width="0.5"/>
<path d="M226.447 31.0076L223.447 16.5076C218.947 15.0076 207.447 9.50757 173.947 8.50757L170.447 30.5076C181.447 30.0076 198.947 28.5076 225.947 28.5076" stroke="black" stroke-width="0.5"/>
<path d="M164.947 8.50757C131.947 9.50757 111.947 18.5076 92.9473 36.0076L95.4473 34.0076L159.447 31.0076L164.947 8.50757Z" stroke="black" stroke-width="0.5"/>
<path d="M239.445 23.0076C235.779 20.3409 229.945 18.0076 223.445 16.5076L225.945 28.5076H232.445C235.445 27.0076 238.445 24.7763 239.445 23.0076Z" stroke="black" stroke-width="0.5"/>
<path d="M96.4473 79.0076H163.447L197.947 77.5076M96.4473 79.0076C96.4473 80.5076 96.9473 81.5076 97.9473 83.0076M96.4473 79.0076H86.4473V83.0076H97.9473M197.947 77.5076L198.947 83.0076M197.947 77.5076H212.447L212.947 83.0076H198.947M198.947 83.0076H97.9473" stroke="black" stroke-width="0.5"/>
<path d="M96.4464 79.0076C91.9473 74.5076 88.9473 52.5076 92.9464 36.0076L164.947 32.0076C160.947 37.0076 159.947 71.0076 163.447 79.0076H96.4464Z" stroke="black" stroke-width="0.5"/>
<path d="M228.447 31.0076L164.947 32.0076C160.947 37.0076 159.948 71.0076 163.447 79.0076L197.947 77.5076C202.447 76.0076 208.947 70.5076 228.447 31.0076Z" stroke="black" stroke-width="0.5"/>
<path d="M170.447 30.5076C165.947 31.0076 162.447 31.0076 159.447 31.0076L164.947 8.50764C167.947 8.00757 170.947 8.00757 173.947 8.50764L170.447 30.5076Z" stroke="black" stroke-width="0.5"/>
<path d="M98.9473 32.5077C103.447 38.0077 110.447 34.5077 114.447 33.0077C115.447 17.5076 102.447 25.5076 98.9473 32.5077Z" stroke="black" stroke-width="0.5"/>
<path d="M234.445 10.0076L231.445 13.5076C248.445 19.0076 258.945 22.0076 271.445 28.5076H272.945L280.945 27.0076C265.945 20.5076 258.445 18.0076 234.445 10.0076Z" fill="#E0426F" stroke="black" stroke-width="0.5"/>
<path d="M271.445 28.5076C260.945 23.0076 241.945 16.5076 231.445 13.5076L229.445 16.0076L244.445 23.5076C242.945 26.0076 238.945 28.0076 232.945 30.7076C244.945 30.0076 261.945 29.0076 271.445 28.5076Z" fill="#E0426F" stroke="black" stroke-width="0.5"/>
<path d="M276.947 34.8076L282.946 32.5076L272.446 28.5076L228.446 31.0076C220.946 46.0076 205.946 76.5076 197.946 77.5076H212.446C210.946 66.5076 220.446 43.0076 245.447 52.0076C255.947 46.5076 265.947 41.0076 276.947 34.8076Z" fill="#E0426F" stroke="black" stroke-width="0.5"/>
<path d="M277.945 34.5076C265.945 41.0076 255.945 46.5076 245.445 52.0076C249.945 55.0076 260.445 61.0076 259.445 80.0076L284.445 79.5076V78.0076C292.945 77.0076 301.445 80.5076 299.945 66.5076L301.945 56.5076C301.945 55.0076 299.445 51.0076 296.945 50.5076C298.445 48.0076 295.445 39.0076 295.445 39.0076V37.5076L291.445 34.5076L286.445 33.0076L282.945 32.5076L277.945 34.5076Z" fill="#E0426F" stroke="black" stroke-width="0.5"/>
<path d="M280.945 27.0076L272.445 28.5076L282.945 32.5076C292.445 33.5076 291.444 35.0076 295.439 37.4277L294.945 29.0076L280.945 27.0076Z" fill="#E0426F"/>
<path d="M295.445 37.5076L295.439 37.4277M295.439 37.4277L294.945 29.0076L280.945 27.0076L272.445 28.5076L282.945 32.5076C292.445 33.5076 291.444 35.0076 295.439 37.4277Z" stroke="black" stroke-width="0.5"/>
<path d="M293.947 37.0078C293.447 34.5077 282.447 34.3076 276.947 34.8076" stroke="black" stroke-width="0.5"/>
<path d="M299.947 67.0076L260.447 69.0076C259.947 64.0076 257.781 59.8409 255.947 58.0076L301.947 55.5076M300.447 53.0076C289.447 51.5076 278.447 46.7076 266.447 40.7076M228.447 31.0076L272.447 28.5076L280.947 27.0076" stroke="black" stroke-width="0.5"/>
<path d="M290.447 41.0076C290.447 39.0076 289.447 35.0076 285.947 33.0076C288.168 33.0076 291.545 34.048 294.056 36.4176C294.52 37.9476 293.447 41.5076 290.405 43.0076C290.392 42.4173 290.447 41.7319 290.447 41.0076Z" fill="#E0426F"/>
<path d="M272.447 43.5076C279.443 43.8574 285.46 43.9624 290.84 44.5076M297.447 45.5076C295.344 45.0569 293.151 44.7417 290.84 44.5076M295.447 38.0076C295.029 37.4224 294.56 36.8932 294.056 36.4176M290.84 44.5076C290.514 44.1628 290.42 43.6398 290.405 43.0076M290.405 43.0076C290.392 42.4173 290.447 41.7319 290.447 41.0076C290.447 39.0076 289.447 35.0076 285.947 33.0076C288.168 33.0076 291.545 34.048 294.056 36.4176M290.405 43.0076C293.447 41.5076 294.52 37.9476 294.056 36.4176" stroke="black" stroke-width="0.5"/>
<path d="M290.447 41.0076C285.947 41.0076 283.947 37.0076 282.947 34.5076" stroke="black" stroke-width="0.5"/>
<path d="M132.445 13.1075C118.945 17.1075 106.945 23.0076 92.9453 36.0076C99.9453 24.0076 115.445 14.5076 130.945 9.50757L132.445 13.1075Z" fill="#EDADBF" stroke="black" stroke-width="0.5"/>
<path d="M130.945 9.50757C110.945 15.1816 92.9453 32.5076 84.9453 30.5076C97.9453 21.0076 113.945 12.5076 130.445 8.00757L130.945 9.50757Z" fill="#EDADBF" stroke="black" stroke-width="0.5"/>
<path d="M9.94598 48.5076H3.94598C1.44531 52.5076 1.44531 62.5076 1.94598 66.0076C0.445312 67.0076 0.44591 71.5076 1.44598 73.0076L5.44598 73.5076V75.0076L1.44598 77.0076V79.0076C5.44598 80.0076 13.946 82.0076 21.946 81.5076V80.0076H39.446C38.7793 71.5076 40.446 61.0076 49.446 54.0076C46.946 50.0076 39.946 45.5076 36.946 45.0076C26.946 44.0076 11.946 46.5076 9.94598 48.5076Z" fill="#EDADBF" stroke="black" stroke-width="0.5"/>
<path d="M92.9473 36.0076C75.1139 36.8409 43.4473 41.7076 32.9473 44.7076L36.9473 45.0076C41.9473 46.5076 47.4473 50.8409 49.4473 54.0076C62.4463 44.5076 87.9463 51.5076 86.4463 79.0076H96.4463C89.4463 68.0076 90.4463 46.0076 92.9473 36.0076Z" fill="#EDADBF" stroke="black" stroke-width="0.5"/>
<path d="M9.94531 48.5076H3.94531C36.4455 29.0075 58.4456 35.0076 84.4453 30.5076L93.4456 36.0076C76.4456 37.0076 47.4453 40.5076 33.4453 44.7076C25.4453 44.5076 11.4453 46.5076 9.94531 48.5076Z" fill="#EDADBF" stroke="black" stroke-width="0.5"/>
<path d="M36.9468 45.0076C29.4468 44.0076 12.4468 46.0076 9.94677 48.5076C9.14677 50.9076 12.2801 53.8409 13.9468 55.0076C23.4468 56.5076 36.9468 50.5076 36.9468 45.0076Z" fill="#EDADBF" stroke="black" stroke-width="0.5"/>
<path d="M3.94601 48.5076C10.946 49.5076 4.94601 60.0076 1.94601 65.0076C1.44594 58.0076 1.9458 52.5076 3.94601 48.5076Z" fill="#EDADBF" stroke="black" stroke-width="0.5"/>
<path d="M21.9453 84.5076V80.0076H39.4453L39.9453 84.5076H21.9453Z" fill="#EDADBF" stroke="black" stroke-width="0.5"/>
<path d="M2.44727 66.0076C3.94727 68.5076 5.94727 71.6742 5.44727 73.5076M21.9473 80.0076C11.4473 80.5076 6.94727 76.5076 7.94727 73.0076C8.44727 72.5076 9.94727 71.0076 10.9473 71.0076" stroke="black" stroke-width="0.5"/>
<path d="M31.9473 75.0076C29.4473 71.0076 23.9473 66.0076 20.9473 64.5076C19.1972 64.0076 16.5721 64.1326 13.8221 64.5076C12.1971 65.841 10.9473 69.0076 11.4473 72.0076C11.4473 73.1742 12.7547 75.5076 15.4473 75.5076C19.9473 75.5076 26.9473 76.0076 31.9473 75.0076Z" fill="#EDADBF"/>
<path d="M5.94727 66.0076C8.19721 65.5076 11.0721 64.8826 13.8221 64.5076M13.8221 64.5076C16.5721 64.1326 19.1972 64.0076 20.9473 64.5076C23.9473 66.0076 29.4473 71.0076 31.9473 75.0076C26.9473 76.0076 19.9473 75.5076 15.4473 75.5076C12.7547 75.5076 11.4473 73.1742 11.4473 72.0076C10.9473 69.0076 12.1971 65.841 13.8221 64.5076Z" stroke="black" stroke-width="0.5"/>
<path d="M11.4473 71.5076C19.4473 70.0077 22.9473 72.6362 25.9473 74.1362M12.9473 74.5077L30.4473 74.0077" stroke="black" stroke-width="0.5"/>
<path d="M21.9453 83.0076H31.4453C33.4453 83.0076 34.9453 81.0076 34.4453 80.0076M37.9453 80.0076V84.5076" stroke="black" stroke-width="0.5"/>
<path d="M21.9472 81.5078C17.4472 81.5078 12.9472 82.0078 1.44721 79.0078V77.0078L5.44721 75.0078V73.5078L1.44721 73.0078C0.946289 71.5076 -0.0535151 68.5076 1.94648 66.0076C1.44672 58.0076 1.94672 51.5076 3.94721 48.5073C36.4472 29.0077 58.4472 35.0078 84.4472 30.5078C162.447 -24.4924 244.447 12.5076 281.447 27.0077L294.947 29.0076L295.447 36.0076V39.0076C296.946 44.0076 298.281 48.5076 296.947 50.5076C299.447 51.5076 301.947 54.6742 301.947 56.5076L299.947 66.5076C300.399 77.3555 297.991 77.5798 288.66 77.8922C287.668 77.9254 285.599 77.9596 284.447 78.0076V79.5076L259.447 79.9386M21.9472 81.5078V84.5078H39.9456L39.4472 80.0078M21.9472 81.5078V80.0078H39.4472M39.4472 80.0078C36.4472 38.5078 89.9472 41.5078 86.4472 80.5078V83.0076H212.947C206.947 39.5076 261.447 39.5076 259.447 79.9386M258.946 79.9386H259.447" stroke="black"/>
</svg>
