<svg width="303" height="96" viewBox="0 0 303 96" fill="none" xmlns="http://www.w3.org/2000/svg">
<circle cx="62.8853" cy="74.1843" r="20.5" fill="#EFC7D3" stroke="black"/>
<circle cx="235.885" cy="74.1843" r="20.5" fill="#EFC7D3" stroke="black"/>
<path d="M132.884 12.6842L131.384 9.18418C171.384 1.18429 192.884 1.68433 231.884 13.1843L228.384 17.6843C208.384 9.68424 190.384 8.68423 174.384 8.1843C171.884 7.6843 167.884 7.68427 165.384 8.18418C155.384 8.1843 143.384 9.6843 132.884 12.6842Z" fill="#EFC7D3" stroke="black" stroke-width="0.5"/>
<path d="M131.384 9.18437L130.884 7.68437C166.884 -3.31567 199.384 0.6842 234.884 9.68437L231.884 13.1844C191.884 0.684326 165.884 2.18433 131.384 9.18437Z" fill="#EFC7D3" stroke="black" stroke-width="0.5"/>
<path d="M131.384 9.18431C182.884 -2.31571 211.384 7.68433 231.884 13.1843" stroke="black" stroke-width="0.5"/>
<path d="M170.885 30.1843L174.385 8.18433C207.885 9.18433 219.385 14.6843 223.885 16.1843L226.368 28.1843C199.378 28.185 181.883 29.6844 170.885 30.1843Z" fill="#EFC7D3"/>
<path d="M226.885 30.6843L223.885 16.1843C219.385 14.6843 207.885 9.18433 174.385 8.18433L170.885 30.1843C181.885 29.6843 199.385 28.1843 226.385 28.1843" stroke="black" stroke-width="0.5"/>
<path d="M165.385 8.18433C132.385 9.18433 112.385 18.1843 93.3853 35.6843L95.8853 33.6843L159.885 30.6843L165.385 8.18433Z" fill="#EFC7D3" stroke="black" stroke-width="0.5"/>
<path d="M239.884 22.6843C236.217 20.0177 230.384 17.6843 223.884 16.1843L226.384 28.1843H232.884C235.884 26.6843 238.884 24.4531 239.884 22.6843Z" fill="#EFC7D3" stroke="black" stroke-width="0.5"/>
<path d="M96.8853 78.6843H163.885L198.385 77.1843H212.885L213.385 82.6843H199.385H98.3853H86.8853V78.6843H96.8853Z" fill="#EFC7D3"/>
<path d="M96.8853 78.6843H163.885L198.385 77.1843M96.8853 78.6843C96.8853 80.1843 97.3853 81.1843 98.3853 82.6843M96.8853 78.6843H86.8853V82.6843H98.3853M198.385 77.1843L199.385 82.6843M198.385 77.1843H212.885L213.385 82.6843H199.385M199.385 82.6843H98.3853" stroke="black" stroke-width="0.5"/>
<path d="M96.8844 78.6843C92.3852 74.1843 89.3853 52.1843 93.3844 35.6843L165.385 31.6843C161.385 36.6843 160.385 70.6843 163.885 78.6843H96.8844Z" fill="#EFC7D3" stroke="black" stroke-width="0.5"/>
<path d="M228.885 30.6843L165.385 31.6843C161.385 36.6843 160.385 70.6843 163.885 78.6843L198.385 77.1843C202.885 75.6843 209.385 70.1843 228.885 30.6843Z" fill="#EFC7D3" stroke="black" stroke-width="0.5"/>
<path d="M170.885 30.1844C166.385 30.6844 162.885 30.6844 159.885 30.6844L165.385 8.1844C168.385 7.68433 171.385 7.68433 174.385 8.1844L170.885 30.1844Z" fill="#EFC7D3" stroke="black" stroke-width="0.5"/>
<path d="M99.3853 32.1845C103.885 37.6845 110.885 34.1845 114.885 32.6845C115.885 17.1843 102.885 25.1843 99.3853 32.1845Z" fill="#EFC7D3" stroke="black" stroke-width="0.5"/>
<path d="M234.884 9.68433L231.884 13.1843C248.884 18.6843 259.384 21.6843 271.884 28.1843H273.384L281.384 26.6843C266.384 20.1843 258.884 17.6843 234.884 9.68433Z" fill="#EFC7D3" stroke="black" stroke-width="0.5"/>
<path d="M271.884 28.1843C261.384 22.6843 242.384 16.1843 231.884 13.1843L229.884 15.6843L244.884 23.1843C243.384 25.6843 239.384 27.6843 233.384 30.3843C245.384 29.6843 262.384 28.6843 271.884 28.1843Z" fill="#EFC7D3" stroke="black" stroke-width="0.5"/>
<path d="M277.385 34.4843L283.384 32.1843L272.884 28.1843L228.884 30.6843C221.384 45.6843 206.384 76.1843 198.384 77.1843H212.884C211.384 66.1843 220.884 42.6843 245.885 51.6843C256.385 46.1843 266.385 40.6843 277.385 34.4843Z" fill="#EFC7D3" stroke="black" stroke-width="0.5"/>
<path d="M278.384 34.1844C266.384 40.6844 256.384 46.1844 245.884 51.6844C250.384 54.6843 260.884 60.6843 259.884 79.6843L284.884 79.1843V77.6843C293.384 76.6843 301.884 80.1843 300.384 66.1843L302.384 56.1843C302.384 54.6843 299.884 50.6843 297.384 50.1843C298.884 47.6843 295.884 38.6843 295.884 38.6843V37.1843L291.884 34.1843L286.884 32.6843L283.384 32.1843L278.384 34.1844Z" fill="#EFC7D3" stroke="black" stroke-width="0.5"/>
<path d="M281.384 26.6843L272.884 28.1843L283.384 32.1843C292.884 33.1843 291.883 34.6843 295.878 37.1045L295.384 28.6843L281.384 26.6843Z" fill="#EFC7D3"/>
<path d="M295.884 37.1843L295.878 37.1045M295.878 37.1045L295.384 28.6843L281.384 26.6843L272.884 28.1843L283.384 32.1843C292.884 33.1843 291.883 34.6843 295.878 37.1045Z" stroke="black" stroke-width="0.5"/>
<path d="M294.385 36.6845C293.885 34.1844 282.885 33.9843 277.385 34.4843" stroke="black" stroke-width="0.5"/>
<path d="M300.385 66.6843L260.885 68.6843C260.385 63.6843 258.219 59.5177 256.385 57.6843L302.385 55.1843M300.885 52.6843C289.885 51.1843 278.885 46.3843 266.885 40.3843M228.885 30.6843L272.885 28.1843L281.385 26.6843" stroke="black" stroke-width="0.5"/>
<path d="M290.885 40.6843C290.885 38.6843 289.885 34.6843 286.385 32.6843C288.606 32.6843 291.983 33.7247 294.494 36.0943C294.958 37.6243 293.885 41.1843 290.843 42.6843C290.83 42.094 290.885 41.4086 290.885 40.6843Z" fill="#EFC7D3"/>
<path d="M272.885 43.1843C279.881 43.5341 285.898 43.6392 291.278 44.1843M297.885 45.1843C295.782 44.7337 293.589 44.4184 291.278 44.1843M295.885 37.6843C295.467 37.0992 294.998 36.57 294.494 36.0943M291.278 44.1843C290.952 43.8396 290.858 43.3165 290.843 42.6843M290.843 42.6843C290.83 42.094 290.885 41.4086 290.885 40.6843C290.885 38.6843 289.885 34.6843 286.385 32.6843C288.606 32.6843 291.983 33.7247 294.494 36.0943M290.843 42.6843C293.885 41.1843 294.958 37.6243 294.494 36.0943" stroke="black" stroke-width="0.5"/>
<path d="M290.885 40.6843C286.385 40.6843 284.385 36.6843 283.385 34.1843" stroke="black" stroke-width="0.5"/>
<path d="M132.884 12.7843C119.384 16.7843 107.384 22.6843 93.3838 35.6843C100.384 23.6843 115.884 14.1843 131.384 9.18433L132.884 12.7843Z" fill="#EFC7D3" stroke="black" stroke-width="0.5"/>
<path d="M131.384 9.18433C111.384 14.8584 93.3838 32.1843 85.3838 30.1843C98.3838 20.6843 114.384 12.1843 130.884 7.68433L131.384 9.18433Z" fill="#EFC7D3" stroke="black" stroke-width="0.5"/>
<path d="M10.3845 48.1843H4.38446C1.88379 52.1843 1.88379 62.1843 2.38446 65.6843C0.883789 66.6843 0.884387 71.1843 1.88446 72.6843L5.88446 73.1843V74.6843L1.88446 76.6843V78.6843C5.88446 79.6843 14.3845 81.6843 22.3845 81.1843V79.6843H39.8845C39.2178 71.1843 40.8845 60.6843 49.8845 53.6843C47.3845 49.6843 40.3845 45.1843 37.3845 44.6843C27.3845 43.6843 12.3845 46.1843 10.3845 48.1843Z" fill="#EFC7D3" stroke="black" stroke-width="0.5"/>
<path d="M93.3853 35.6843C75.5519 36.5177 43.8853 41.3843 33.3853 44.3843L37.3853 44.6843C42.3853 46.1843 47.8853 50.5177 49.8853 53.6843C62.8843 44.1843 88.3843 51.1843 86.8843 78.6843H96.8843C89.8843 67.6843 90.8843 45.6843 93.3853 35.6843Z" fill="#EFC7D3" stroke="black" stroke-width="0.5"/>
<path d="M10.3838 48.1844H4.38379C36.884 28.6843 58.884 34.6843 84.8838 30.1843L93.884 35.6843C76.884 36.6843 47.8838 40.1843 33.8838 44.3843C25.8838 44.1843 11.8838 46.1843 10.3838 48.1844Z" fill="#EFC7D3" stroke="black" stroke-width="0.5"/>
<path d="M37.3852 44.6844C29.8852 43.6843 12.8852 45.6843 10.3852 48.1844C9.58524 50.5843 12.7186 53.5177 14.3852 54.6843C23.8853 56.1843 37.3852 50.1843 37.3852 44.6844Z" fill="#EFC7D3" stroke="black" stroke-width="0.5"/>
<path d="M4.38448 48.1843C11.3845 49.1843 5.38448 59.6843 2.38448 64.6843C1.88441 57.6843 2.38428 52.1843 4.38448 48.1843Z" fill="#EFC7D3" stroke="black" stroke-width="0.5"/>
<path d="M22.3838 84.1843V79.6843H39.8838L40.3838 84.1843H22.3838Z" fill="#EFC7D3" stroke="black" stroke-width="0.5"/>
<path d="M2.88574 65.6843C4.38574 68.1843 6.38574 71.351 5.88574 73.1843M22.3857 79.6843C11.8857 80.1843 7.38574 76.1843 8.38574 72.6843C8.88574 72.1843 10.3857 70.6843 11.3857 70.6843" stroke="black" stroke-width="0.5"/>
<path d="M32.3857 74.6843C29.8857 70.6843 24.3857 65.6844 21.3857 64.1844C19.6357 63.6844 17.0106 63.8094 14.2605 64.1844C12.6356 65.5177 11.3857 68.6843 11.8857 71.6843C11.8857 72.851 13.1932 75.1843 15.8857 75.1843C20.3857 75.1843 27.3857 75.6843 32.3857 74.6843Z" fill="#EFC7D3"/>
<path d="M6.38574 65.6844C8.63568 65.1844 11.5106 64.5594 14.2605 64.1844M14.2605 64.1844C17.0106 63.8094 19.6357 63.6844 21.3857 64.1844C24.3857 65.6844 29.8857 70.6843 32.3857 74.6843C27.3857 75.6843 20.3857 75.1843 15.8857 75.1843C13.1932 75.1843 11.8857 72.851 11.8857 71.6843C11.3857 68.6843 12.6356 65.5177 14.2605 64.1844Z" stroke="black" stroke-width="0.5"/>
<path d="M11.8857 71.1844C19.8857 69.6844 23.3857 72.3129 26.3857 73.8129M13.3857 74.1844L30.8857 73.6844" stroke="black" stroke-width="0.5"/>
<path d="M22.3838 82.6843H31.8838C33.8838 82.6843 35.3838 80.6843 34.8838 79.6843M38.3838 79.6843V84.1843" stroke="black" stroke-width="0.5"/>
<path d="M22.3852 81.1846C17.8852 81.1846 13.3852 81.6846 1.8852 78.6846V76.6846L5.8852 74.6846V73.1846L1.8852 72.6846C1.38428 71.1843 0.384473 68.1843 2.38447 65.6843C1.88471 57.6843 2.38471 51.1843 4.3852 48.1841C36.8852 28.6845 58.8852 34.6845 84.8852 30.1845C162.885 -24.8156 244.885 12.1843 281.885 26.6845L295.385 28.6843L295.885 35.6843V38.6843C297.384 43.6843 298.719 48.1843 297.385 50.1843C299.885 51.1843 302.385 54.351 302.385 56.1843L300.385 66.1843C300.837 77.0322 298.429 77.2565 289.098 77.569C288.106 77.6021 286.037 77.6363 284.885 77.6843V79.1843L259.885 79.6154M22.3852 81.1846V84.1846H40.3835L39.8852 79.6846M22.3852 81.1846V79.6846H39.8852M39.8852 79.6846C36.8852 38.1846 90.3852 41.1846 86.8852 80.1846V82.6843H213.385C207.385 39.1843 261.885 39.1843 259.885 79.6154M259.384 79.6154H259.885" stroke="black"/>
</svg>
