<svg width="303" height="96" viewBox="0 0 303 96" fill="none" xmlns="http://www.w3.org/2000/svg">
<circle cx="62.2915" cy="74.1843" r="20.5" fill="#E56E90" stroke="black"/>
<circle cx="235.292" cy="74.1843" r="20.5" fill="#E56E90" stroke="black"/>
<path d="M132.29 12.6842L130.79 9.18418C170.79 1.18429 192.29 1.68433 231.29 13.1843L227.79 17.6843C207.79 9.68424 189.79 8.68423 173.79 8.1843C171.29 7.6843 167.29 7.68427 164.79 8.18418C154.79 8.1843 142.79 9.6843 132.29 12.6842Z" fill="#EFC7D3" stroke="black" stroke-width="0.5"/>
<path d="M130.79 9.18437L130.29 7.68437C166.29 -3.31567 198.79 0.6842 234.29 9.68437L231.29 13.1844C191.29 0.684326 165.29 2.18433 130.79 9.18437Z" fill="#EFC7D3" stroke="black" stroke-width="0.5"/>
<path d="M130.79 9.18431C182.29 -2.31571 210.79 7.68433 231.29 13.1843" stroke="black" stroke-width="0.5"/>
<path d="M170.292 30.1843L173.792 8.18433C207.292 9.18433 218.792 14.6843 223.292 16.1843L225.774 28.1843C198.784 28.185 181.289 29.6844 170.292 30.1843Z" fill="#EFC7D3"/>
<path d="M226.292 30.6843L223.292 16.1843C218.792 14.6843 207.292 9.18433 173.792 8.18433L170.292 30.1843C181.292 29.6843 198.792 28.1843 225.792 28.1843" stroke="black" stroke-width="0.5"/>
<path d="M164.792 8.18433C131.792 9.18433 111.792 18.1843 92.7915 35.6843L95.2915 33.6843L159.292 30.6843L164.792 8.18433Z" fill="#EFC7D3" stroke="black" stroke-width="0.5"/>
<path d="M239.29 22.6843C235.623 20.0177 229.79 17.6843 223.29 16.1843L225.79 28.1843H232.29C235.29 26.6843 238.29 24.4531 239.29 22.6843Z" fill="#EFC7D3" stroke="black" stroke-width="0.5"/>
<path d="M96.2915 78.6843H163.292L197.792 77.1843H212.292L212.792 82.6843H198.792H97.7915H86.2915V78.6843H96.2915Z" fill="#EFC7D3"/>
<path d="M96.2915 78.6843H163.292L197.792 77.1843M96.2915 78.6843C96.2915 80.1843 96.7915 81.1843 97.7915 82.6843M96.2915 78.6843H86.2915V82.6843H97.7915M197.792 77.1843L198.792 82.6843M197.792 77.1843H212.292L212.792 82.6843H198.792M198.792 82.6843H97.7915" stroke="black" stroke-width="0.5"/>
<path d="M96.2906 78.6843C91.7915 74.1843 88.7915 52.1843 92.7906 35.6843L164.792 31.6843C160.792 36.6843 159.792 70.6843 163.291 78.6843H96.2906Z" fill="#EFC7D3" stroke="black" stroke-width="0.5"/>
<path d="M228.291 30.6843L164.791 31.6843C160.791 36.6843 159.791 70.6843 163.291 78.6843L197.791 77.1843C202.291 75.6843 208.791 70.1843 228.291 30.6843Z" fill="#EFC7D3" stroke="black" stroke-width="0.5"/>
<path d="M170.292 30.1844C165.792 30.6844 162.292 30.6844 159.292 30.6844L164.792 8.1844C167.792 7.68433 170.792 7.68433 173.792 8.1844L170.292 30.1844Z" fill="#EFC7D3" stroke="black" stroke-width="0.5"/>
<path d="M98.7915 32.1845C103.292 37.6845 110.292 34.1845 114.292 32.6845C115.292 17.1843 102.292 25.1843 98.7915 32.1845Z" fill="#EFC7D3" stroke="black" stroke-width="0.5"/>
<path d="M234.29 9.68433L231.29 13.1843C248.29 18.6843 258.79 21.6843 271.29 28.1843H272.79L280.79 26.6843C265.79 20.1843 258.29 17.6843 234.29 9.68433Z" stroke="black" stroke-width="0.5"/>
<path d="M271.29 28.1843C260.79 22.6843 241.79 16.1843 231.29 13.1843L229.29 15.6843L244.29 23.1843C242.79 25.6843 238.79 27.6843 232.79 30.3843C244.79 29.6843 261.79 28.6843 271.29 28.1843Z" stroke="black" stroke-width="0.5"/>
<path d="M276.792 34.4843L282.79 32.1843L272.291 28.1843L228.291 30.6843C220.791 45.6843 205.791 76.1843 197.791 77.1843H212.291C210.791 66.1843 220.291 42.6843 245.292 51.6843C255.792 46.1843 265.792 40.6843 276.792 34.4843Z" stroke="black" stroke-width="0.5"/>
<path d="M277.79 34.1844C265.79 40.6844 255.79 46.1844 245.29 51.6844C249.79 54.6843 260.29 60.6843 259.29 79.6843L284.29 79.1843V77.6843C292.79 76.6843 301.29 80.1843 299.79 66.1843L301.79 56.1843C301.79 54.6843 299.29 50.6843 296.79 50.1843C298.29 47.6843 295.29 38.6843 295.29 38.6843V37.1843L291.29 34.1843L286.29 32.6843L282.79 32.1843L277.79 34.1844Z" stroke="black" stroke-width="0.5"/>
<path d="M295.29 37.1843L295.284 37.1045M295.284 37.1045L294.79 28.6843L280.79 26.6843L272.29 28.1843L282.79 32.1843C292.29 33.1843 291.289 34.6843 295.284 37.1045Z" stroke="black" stroke-width="0.5"/>
<path d="M293.792 36.6845C293.292 34.1844 282.292 33.9843 276.792 34.4843" stroke="black" stroke-width="0.5"/>
<path d="M299.792 66.6843L260.292 68.6843C259.792 63.6843 257.625 59.5177 255.792 57.6843L301.792 55.1843M300.292 52.6843C289.292 51.1843 278.292 46.3843 266.292 40.3843M228.292 30.6843L272.292 28.1843L280.792 26.6843" stroke="black" stroke-width="0.5"/>
<path d="M272.292 43.1843C279.287 43.5341 285.304 43.6392 290.685 44.1843M297.292 45.1843C295.189 44.7337 292.995 44.4184 290.685 44.1843M295.292 37.6843C294.874 37.0992 294.404 36.57 293.9 36.0943M290.685 44.1843C290.358 43.8396 290.264 43.3165 290.25 42.6843M290.25 42.6843C290.236 42.094 290.292 41.4086 290.292 40.6843C290.292 38.6843 289.292 34.6843 285.792 32.6843C288.012 32.6843 291.389 33.7247 293.9 36.0943M290.25 42.6843C293.292 41.1843 294.364 37.6243 293.9 36.0943" stroke="black" stroke-width="0.5"/>
<path d="M290.292 40.6843C285.792 40.6843 283.792 36.6843 282.792 34.1843" stroke="black" stroke-width="0.5"/>
<path d="M132.29 12.7843C118.79 16.7843 106.79 22.6843 92.79 35.6843C99.79 23.6843 115.29 14.1843 130.79 9.18433L132.29 12.7843Z" fill="#EFC7D3" stroke="black" stroke-width="0.5"/>
<path d="M130.79 9.18433C110.79 14.8584 92.79 32.1843 84.79 30.1843C97.79 20.6843 113.79 12.1843 130.29 7.68433L130.79 9.18433Z" fill="#EFC7D3" stroke="black" stroke-width="0.5"/>
<path d="M9.79071 48.1843H3.79071C1.29004 52.1843 1.29004 62.1843 1.79071 65.6843C0.290039 66.6843 0.290637 71.1843 1.29071 72.6843L5.29071 73.1843V74.6843L1.29071 76.6843V78.6843C5.29071 79.6843 13.7907 81.6843 21.7907 81.1843V79.6843H39.2907C38.624 71.1843 40.2907 60.6843 49.2907 53.6843C46.7907 49.6843 39.7907 45.1843 36.7907 44.6843C26.7907 43.6843 11.7907 46.1843 9.79071 48.1843Z" fill="#EFC7D3" stroke="black" stroke-width="0.5"/>
<path d="M92.7915 35.6843C74.9582 36.5177 43.2915 41.3843 32.7915 44.3843L36.7915 44.6843C41.7915 46.1843 47.2915 50.5177 49.2915 53.6843C62.2905 44.1843 87.7905 51.1843 86.2905 78.6843H96.2905C89.2905 67.6843 90.2905 45.6843 92.7915 35.6843Z" fill="#EFC7D3" stroke="black" stroke-width="0.5"/>
<path d="M9.79004 48.1844H3.79004C36.2902 28.6843 58.2903 34.6843 84.29 30.1843L93.2903 35.6843C76.2903 36.6843 47.29 40.1843 33.29 44.3843C25.29 44.1843 11.29 46.1843 9.79004 48.1844Z" fill="#EFC7D3" stroke="black" stroke-width="0.5"/>
<path d="M36.7915 44.6844C29.2915 43.6843 12.2915 45.6843 9.79149 48.1844C8.99149 50.5843 12.1248 53.5177 13.7915 54.6843C23.2915 56.1843 36.7915 50.1843 36.7915 44.6844Z" fill="#EFC7D3" stroke="black" stroke-width="0.5"/>
<path d="M3.79073 48.1843C10.7907 49.1843 4.79073 59.6843 1.79073 64.6843C1.29066 57.6843 1.79053 52.1843 3.79073 48.1843Z" fill="#EFC7D3" stroke="black" stroke-width="0.5"/>
<path d="M21.79 84.1843V79.6843H39.29L39.79 84.1843H21.79Z" fill="#EFC7D3" stroke="black" stroke-width="0.5"/>
<path d="M2.29199 65.6843C3.79199 68.1843 5.79199 71.351 5.29199 73.1843M21.792 79.6843C11.292 80.1843 6.79199 76.1843 7.79199 72.6843C8.29199 72.1843 9.79199 70.6843 10.792 70.6843" stroke="black" stroke-width="0.5"/>
<path d="M31.792 74.6843C29.292 70.6843 23.792 65.6844 20.792 64.1844C19.0419 63.6844 16.4169 63.8094 13.6668 64.1844C12.0419 65.5177 10.792 68.6843 11.292 71.6843C11.292 72.851 12.5994 75.1843 15.292 75.1843C19.792 75.1843 26.792 75.6843 31.792 74.6843Z" fill="#EFC7D3"/>
<path d="M5.79199 65.6844C8.04193 65.1844 10.9168 64.5594 13.6668 64.1844M13.6668 64.1844C16.4169 63.8094 19.0419 63.6844 20.792 64.1844C23.792 65.6844 29.292 70.6843 31.792 74.6843C26.792 75.6843 19.792 75.1843 15.292 75.1843C12.5994 75.1843 11.292 72.851 11.292 71.6843C10.792 68.6843 12.0418 65.5177 13.6668 64.1844Z" stroke="black" stroke-width="0.5"/>
<path d="M11.292 71.1844C19.292 69.6844 22.792 72.3129 25.792 73.8129M12.792 74.1844L30.292 73.6844" stroke="black" stroke-width="0.5"/>
<path d="M21.79 82.6843H31.29C33.29 82.6843 34.79 80.6843 34.29 79.6843M37.79 79.6843V84.1843" stroke="black" stroke-width="0.5"/>
<path d="M21.7915 81.1846C17.2915 81.1846 12.7915 81.6846 1.29145 78.6846V76.6846L5.29145 74.6846V73.1846L1.29145 72.6846C0.790527 71.1843 -0.209277 68.1843 1.79072 65.6843C1.29096 57.6843 1.79096 51.1843 3.79145 48.1841C36.2915 28.6845 58.2914 34.6845 84.2914 30.1845C162.291 -24.8156 244.291 12.1843 281.291 26.6845L294.791 28.6843L295.291 35.6843V38.6843C296.79 43.6843 298.125 48.1843 296.791 50.1843C299.291 51.1843 301.791 54.351 301.791 56.1843L299.791 66.1843C300.243 77.0322 297.835 77.2565 288.504 77.569C287.513 77.6021 285.444 77.6363 284.291 77.6843V79.1843L259.291 79.6154M21.7915 81.1846V84.1846H39.7898L39.2915 79.6846M21.7915 81.1846V79.6846H39.2915M39.2915 79.6846C36.2915 38.1846 89.7914 41.1846 86.2914 80.1846V82.6843H212.791C206.791 39.1843 261.291 39.1843 259.291 79.6154M258.79 79.6154H259.291" stroke="black"/>
</svg>
