<svg width="303" height="95" viewBox="0 0 303 95" fill="none" xmlns="http://www.w3.org/2000/svg">
<circle cx="62.4897" cy="73.8914" r="20.5" fill="#E0426F" stroke="black"/>
<circle cx="235.49" cy="73.8914" r="20.5" fill="#E0426F" stroke="black"/>
<path d="M132.488 12.3912L130.988 8.89121C170.988 0.891325 192.488 1.39136 231.488 12.8913L227.988 17.3913C207.988 9.39127 189.988 8.39127 173.988 7.89133C171.488 7.39133 167.488 7.3913 164.988 7.89121C154.988 7.89133 142.988 9.39134 132.488 12.3912Z" fill="#E0426F" stroke="black" stroke-width="0.5"/>
<path d="M130.988 8.8914L130.488 7.3914C166.488 -3.60864 198.988 0.391232 234.488 9.3914L231.488 12.8914C191.488 0.391357 165.488 1.89136 130.988 8.8914Z" fill="#E0426F" stroke="black" stroke-width="0.5"/>
<path d="M130.988 8.89122C182.488 -2.6088 210.988 7.39124 231.488 12.8912" stroke="black" stroke-width="0.5"/>
<path d="M170.49 29.8914L173.99 7.89136C207.49 8.89136 218.99 14.3914 223.49 15.8914L225.973 27.8914C198.982 27.892 181.487 29.3915 170.49 29.8914Z" fill="#E0426F"/>
<path d="M226.49 30.3914L223.49 15.8914C218.99 14.3914 207.49 8.89136 173.99 7.89136L170.49 29.8914C181.49 29.3914 198.99 27.8914 225.99 27.8914" stroke="black" stroke-width="0.5"/>
<path d="M164.99 7.89136C131.99 8.89136 111.99 17.8914 92.9897 35.3914L95.4897 33.3914L159.49 30.3914L164.99 7.89136Z" fill="#E0426F" stroke="black" stroke-width="0.5"/>
<path d="M239.488 22.3914C235.822 19.7247 229.988 17.3914 223.488 15.8914L225.988 27.8914H232.488C235.488 26.3914 238.488 24.1601 239.488 22.3914Z" fill="#E0426F" stroke="black" stroke-width="0.5"/>
<path d="M96.4897 78.3914H163.49L197.99 76.8914H212.49L212.99 82.3914H198.99H97.9897H86.4897V78.3914H96.4897Z" fill="#E0426F"/>
<path d="M96.4897 78.3914H163.49L197.99 76.8914M96.4897 78.3914C96.4897 79.8914 96.9897 80.8914 97.9897 82.3914M96.4897 78.3914H86.4897V82.3914H97.9897M197.99 76.8914L198.99 82.3914M197.99 76.8914H212.49L212.99 82.3914H198.99M198.99 82.3914H97.9897" stroke="black" stroke-width="0.5"/>
<path d="M96.4889 78.3914C91.9897 73.8914 88.9898 51.8914 92.9889 35.3914L164.99 31.3914C160.99 36.3914 159.99 70.3914 163.49 78.3914H96.4889Z" fill="#E0426F" stroke="black" stroke-width="0.5"/>
<path d="M228.489 30.3914L164.989 31.3914C160.989 36.3914 159.99 70.3914 163.489 78.3914L197.989 76.8914C202.489 75.3914 208.989 69.8914 228.489 30.3914Z" fill="#E0426F" stroke="black" stroke-width="0.5"/>
<path d="M170.49 29.8914C165.99 30.3914 162.49 30.3914 159.49 30.3914L164.99 7.89143C167.99 7.39136 170.99 7.39136 173.99 7.89143L170.49 29.8914Z" fill="#E0426F" stroke="black" stroke-width="0.5"/>
<path d="M98.9897 31.8914C103.49 37.3914 110.49 33.8914 114.49 32.3914C115.49 16.8913 102.49 24.8912 98.9897 31.8914Z" fill="#E0426F" stroke="black" stroke-width="0.5"/>
<path d="M234.488 9.39136L231.488 12.8914C248.488 18.3914 258.988 21.3914 271.488 27.8914H272.988L280.988 26.3914C265.988 19.8914 258.488 17.3914 234.488 9.39136Z" stroke="black" stroke-width="0.5"/>
<path d="M271.488 27.8914C260.988 22.3914 241.988 15.8914 231.488 12.8914L229.488 15.3914L244.488 22.8914C242.988 25.3914 238.988 27.3914 232.988 30.0914C244.988 29.3914 261.988 28.3914 271.488 27.8914Z" stroke="black" stroke-width="0.5"/>
<path d="M276.99 34.1914L282.988 31.8914L272.489 27.8914L228.489 30.3914C220.989 45.3914 205.989 75.8914 197.989 76.8914H212.489C210.989 65.8914 220.489 42.3914 245.49 51.3914C255.99 45.8914 265.99 40.3914 276.99 34.1914Z" stroke="black" stroke-width="0.5"/>
<path d="M277.988 33.8914C265.988 40.3914 255.988 45.8914 245.488 51.3914C249.988 54.3914 260.488 60.3914 259.488 79.3914L284.488 78.8914V77.3914C292.988 76.3914 301.488 79.8914 299.988 65.8914L301.988 55.8914C301.988 54.3914 299.488 50.3914 296.988 49.8914C298.488 47.3914 295.488 38.3914 295.488 38.3914V36.8914L291.488 33.8914L286.488 32.3914L282.988 31.8914L277.988 33.8914Z" stroke="black" stroke-width="0.5"/>
<path d="M295.488 36.8914L295.482 36.8115M295.482 36.8115L294.988 28.3914L280.988 26.3914L272.488 27.8914L282.988 31.8914C292.488 32.8914 291.487 34.3914 295.482 36.8115Z" stroke="black" stroke-width="0.5"/>
<path d="M293.99 36.3916C293.49 33.8914 282.49 33.6914 276.99 34.1914" stroke="black" stroke-width="0.5"/>
<path d="M299.99 66.3914L260.49 68.3914C259.99 63.3914 257.823 59.2247 255.99 57.3914L301.99 54.8914M300.49 52.3914C289.49 50.8914 278.49 46.0914 266.49 40.0914M228.49 30.3914L272.49 27.8914L280.99 26.3914" stroke="black" stroke-width="0.5"/>
<path d="M272.49 42.8914C279.485 43.2411 285.502 43.3462 290.883 43.8914M297.49 44.8914C295.387 44.4407 293.194 44.1255 290.883 43.8914M295.49 37.3914C295.072 36.8062 294.603 36.277 294.099 35.8013M290.883 43.8914C290.557 43.5466 290.463 43.0235 290.448 42.3914M290.448 42.3914C290.434 41.8011 290.49 41.1156 290.49 40.3914C290.49 38.3914 289.49 34.3914 285.99 32.3914C288.211 32.3914 291.587 33.4317 294.099 35.8013M290.448 42.3914C293.49 40.8914 294.562 37.3313 294.099 35.8013" stroke="black" stroke-width="0.5"/>
<path d="M290.49 40.3914C285.99 40.3914 283.99 36.3914 282.99 33.8914" stroke="black" stroke-width="0.5"/>
<path d="M132.488 12.4913C118.988 16.4913 106.988 22.3914 92.9883 35.3914C99.9883 23.3914 115.488 13.8914 130.988 8.89136L132.488 12.4913Z" fill="#EDADBF" stroke="black" stroke-width="0.5"/>
<path d="M130.988 8.89136C110.988 14.5654 92.9883 31.8914 84.9883 29.8914C97.9883 20.3914 113.988 11.8914 130.488 7.39136L130.988 8.89136Z" fill="#EDADBF" stroke="black" stroke-width="0.5"/>
<path d="M9.98895 47.8912H3.98895C1.48828 51.8912 1.48828 61.8912 1.98895 65.3912C0.488281 66.3912 0.488879 70.8912 1.48895 72.3912L5.48895 72.8912V74.3912L1.48895 76.3912V78.3912C5.48895 79.3912 13.9889 81.3912 21.9889 80.8912V79.3912H39.4889C38.8223 70.8912 40.4889 60.3912 49.4889 53.3912C46.9889 49.3912 39.9889 44.8912 36.9889 44.3912C26.9889 43.3912 11.9889 45.8912 9.98895 47.8912Z" fill="#EDADBF" stroke="black" stroke-width="0.5"/>
<path d="M92.9897 35.3914C75.1564 36.2247 43.4897 41.0914 32.9897 44.0914L36.9897 44.3914C41.9897 45.8914 47.4897 50.2247 49.4897 53.3914C62.4888 43.8914 87.9888 50.8914 86.4888 78.3914H96.4888C89.4888 67.3914 90.4888 45.3914 92.9897 35.3914Z" fill="#EDADBF" stroke="black" stroke-width="0.5"/>
<path d="M9.98828 47.8914H3.98828C36.4885 28.3913 58.4885 34.3914 84.4883 29.8914L93.4885 35.3914C76.4885 36.3914 47.4883 39.8914 33.4883 44.0914C25.4883 43.8913 11.4883 45.8914 9.98828 47.8914Z" fill="#EDADBF" stroke="black" stroke-width="0.5"/>
<path d="M36.9897 44.3914C29.4897 43.3914 12.4897 45.3914 9.98974 47.8914C9.18974 50.2914 12.3231 53.2247 13.9897 54.3914C23.4897 55.8914 36.9897 49.8914 36.9897 44.3914Z" fill="#EDADBF" stroke="black" stroke-width="0.5"/>
<path d="M3.98898 47.8914C10.989 48.8914 4.98898 59.3914 1.98898 64.3914C1.48891 57.3914 1.98877 51.8914 3.98898 47.8914Z" fill="#EDADBF" stroke="black" stroke-width="0.5"/>
<path d="M21.9883 83.8914V79.3914H39.4883L39.9883 83.8914H21.9883Z" fill="#EDADBF" stroke="black" stroke-width="0.5"/>
<path d="M2.49023 65.3911C3.99023 67.8911 5.99023 71.0578 5.49023 72.8911M21.9902 79.3911C11.4902 79.8911 6.99023 75.8911 7.99023 72.3911C8.49023 71.8911 9.99023 70.3911 10.9902 70.3911" stroke="black" stroke-width="0.5"/>
<path d="M31.9902 74.3912C29.4902 70.3912 23.9902 65.3913 20.9902 63.8913C19.2402 63.3913 16.6151 63.5163 13.865 63.8913C12.2401 65.2246 10.9902 68.3912 11.4902 71.3912C11.4902 72.5579 12.7977 74.8912 15.4902 74.8912C19.9902 74.8912 26.9902 75.3912 31.9902 74.3912Z" fill="#EDADBF"/>
<path d="M5.99023 65.3913C8.24018 64.8913 11.1151 64.2663 13.865 63.8913M13.865 63.8913C16.6151 63.5163 19.2402 63.3913 20.9902 63.8913C23.9902 65.3913 29.4902 70.3912 31.9902 74.3912C26.9902 75.3912 19.9902 74.8912 15.4902 74.8912C12.7977 74.8912 11.4902 72.5579 11.4902 71.3912C10.9902 68.3912 12.2401 65.2246 13.865 63.8913Z" stroke="black" stroke-width="0.5"/>
<path d="M11.4902 70.8913C19.4902 69.3914 22.9902 72.0198 25.9902 73.5198M12.9902 73.8914L30.4902 73.3914" stroke="black" stroke-width="0.5"/>
<path d="M21.9883 82.3911H31.4883C33.4883 82.3911 34.9883 80.3911 34.4883 79.3911M37.9883 79.3911V83.8911" stroke="black" stroke-width="0.5"/>
<path d="M21.9897 80.8916C17.4897 80.8916 12.9897 81.3916 1.48969 78.3916V76.3916L5.48969 74.3916V72.8916L1.48969 72.3916C0.98877 70.8914 -0.0110346 67.8914 1.98896 65.3914C1.4892 57.3914 1.9892 50.8914 3.98969 47.8911C36.4897 28.3915 58.4897 34.3915 84.4897 29.8915C162.49 -25.1086 244.49 11.8913 281.49 26.3915L294.99 28.3914L295.49 35.3914V38.3914C296.988 43.3914 298.323 47.8914 296.99 49.8914C299.49 50.8914 301.99 54.058 301.99 55.8914L299.99 65.8914C300.442 76.7393 298.034 76.9635 288.702 77.276C287.711 77.3092 285.642 77.3434 284.49 77.3914V78.8914L259.49 79.3224M21.9897 80.8916V83.8916H39.988L39.4897 79.3916M21.9897 80.8916V79.3916H39.4897M39.4897 79.3916C36.4897 37.8916 89.9897 40.8916 86.4897 79.8916V82.3914H212.99C206.99 38.8914 261.49 38.8914 259.49 79.3224M258.988 79.3224H259.49" stroke="black"/>
</svg>
