<svg width="303" height="96" viewBox="0 0 303 96" fill="none" xmlns="http://www.w3.org/2000/svg">
<circle cx="62.8652" cy="74.0303" r="20.5" fill="#EFC7D3" stroke="black"/>
<circle cx="235.865" cy="74.0303" r="20.5" fill="#EFC7D3" stroke="black"/>
<path d="M132.863 12.5301L131.363 9.03013C171.363 1.03024 192.863 1.53027 231.863 13.0302L228.363 17.5302C208.363 9.53018 190.363 8.53018 174.363 8.03025C171.863 7.53025 167.863 7.53021 165.363 8.03013C155.363 8.03025 143.363 9.53025 132.863 12.5301Z" fill="#EDADBF" stroke="black" stroke-width="0.5"/>
<path d="M131.363 9.03032L130.863 7.53032C166.863 -3.46973 199.363 0.530148 234.863 9.53032L231.863 13.0303C191.863 0.530273 165.863 2.03027 131.363 9.03032Z" fill="#EDADBF" stroke="black" stroke-width="0.5"/>
<path d="M131.363 9.03038C182.863 -2.46964 211.363 7.5304 231.863 13.0304" stroke="black" stroke-width="0.5"/>
<path d="M170.865 30.0303L174.365 8.03027C207.865 9.03027 219.365 14.5303 223.865 16.0303L226.348 28.0303C199.358 28.0309 181.863 29.5304 170.865 30.0303Z" fill="#EDADBF"/>
<path d="M226.865 30.5303L223.865 16.0303C219.365 14.5303 207.865 9.03027 174.365 8.03027L170.865 30.0303C181.865 29.5303 199.365 28.0303 226.365 28.0303" stroke="black" stroke-width="0.5"/>
<path d="M165.365 8.03027C132.365 9.03027 112.365 18.0303 93.3652 35.5303L95.8652 33.5303L159.865 30.5303L165.365 8.03027Z" fill="#EDADBF" stroke="black" stroke-width="0.5"/>
<path d="M239.863 22.5303C236.197 19.8636 230.363 17.5303 223.863 16.0303L226.363 28.0303H232.863C235.863 26.5303 238.863 24.299 239.863 22.5303Z" fill="#EDADBF" stroke="black" stroke-width="0.5"/>
<path d="M96.8652 78.5303H163.865L198.365 77.0303H212.865L213.365 82.5303H199.365H98.3652H86.8652V78.5303H96.8652Z" fill="#EDADBF"/>
<path d="M96.8652 78.5303H163.865L198.365 77.0303M96.8652 78.5303C96.8652 80.0303 97.3652 81.0303 98.3652 82.5303M96.8652 78.5303H86.8652V82.5303H98.3652M198.365 77.0303L199.365 82.5303M198.365 77.0303H212.865L213.365 82.5303H199.365M199.365 82.5303H98.3652" stroke="black" stroke-width="0.5"/>
<path d="M96.8644 78.5303C92.3652 74.0303 89.3653 52.0303 93.3644 35.5303L165.365 31.5303C161.365 36.5303 160.365 70.5303 163.865 78.5303H96.8644Z" fill="#EDADBF" stroke="black" stroke-width="0.5"/>
<path d="M228.865 30.5303L165.365 31.5303C161.365 36.5303 160.365 70.5303 163.865 78.5303L198.365 77.0303C202.865 75.5303 209.365 70.0303 228.865 30.5303Z" fill="#EDADBF" stroke="black" stroke-width="0.5"/>
<path d="M170.865 30.0303C166.365 30.5303 162.865 30.5303 159.865 30.5303L165.365 8.03035C168.365 7.53027 171.365 7.53027 174.365 8.03035L170.865 30.0303Z" fill="#EDADBF" stroke="black" stroke-width="0.5"/>
<path d="M99.3652 32.0305C103.865 37.5305 110.865 34.0305 114.865 32.5305C115.865 17.0304 102.865 25.0304 99.3652 32.0305Z" fill="#EDADBF" stroke="black" stroke-width="0.5"/>
<path d="M234.863 9.53027L231.863 13.0303C248.863 18.5303 259.363 21.5303 271.863 28.0303H273.363L281.363 26.5303C266.363 20.0303 258.863 17.5303 234.863 9.53027Z" fill="#E56E90" stroke="black" stroke-width="0.5"/>
<path d="M271.863 28.0303C261.363 22.5303 242.363 16.0303 231.863 13.0303L229.863 15.5303L244.863 23.0303C243.363 25.5303 239.363 27.5303 233.363 30.2303C245.363 29.5303 262.363 28.5303 271.863 28.0303Z" fill="#E56E90" stroke="black" stroke-width="0.5"/>
<path d="M277.365 34.3303L283.364 32.0303L272.864 28.0303L228.864 30.5303C221.364 45.5303 206.364 76.0303 198.364 77.0303H212.864C211.364 66.0303 220.864 42.5303 245.865 51.5303C256.365 46.0303 266.365 40.5303 277.365 34.3303Z" fill="#E56E90" stroke="black" stroke-width="0.5"/>
<path d="M278.363 34.0303C266.363 40.5303 256.363 46.0303 245.863 51.5303C250.363 54.5303 260.863 60.5303 259.863 79.5303L284.863 79.0303V77.5303C293.363 76.5303 301.863 80.0303 300.363 66.0303L302.363 56.0303C302.363 54.5303 299.863 50.5303 297.363 50.0303C298.863 47.5303 295.863 38.5303 295.863 38.5303V37.0303L291.863 34.0303L286.863 32.5303L283.363 32.0303L278.363 34.0303Z" fill="#E56E90" stroke="black" stroke-width="0.5"/>
<path d="M281.363 26.5303L272.863 28.0303L283.363 32.0303C292.863 33.0303 291.862 34.5303 295.857 36.9505L295.363 28.5303L281.363 26.5303Z" fill="#E56E90"/>
<path d="M295.863 37.0303L295.857 36.9505M295.857 36.9505L295.363 28.5303L281.363 26.5303L272.863 28.0303L283.363 32.0303C292.863 33.0303 291.862 34.5303 295.857 36.9505Z" stroke="black" stroke-width="0.5"/>
<path d="M294.365 36.5305C293.865 34.0304 282.865 33.8303 277.365 34.3303" stroke="black" stroke-width="0.5"/>
<path d="M300.365 66.5303L260.865 68.5303C260.365 63.5303 258.199 59.3636 256.365 57.5303L302.365 55.0303M300.865 52.5303C289.865 51.0303 278.865 46.2303 266.865 40.2303M228.865 30.5303L272.865 28.0303L281.365 26.5303" stroke="black" stroke-width="0.5"/>
<path d="M290.865 40.5303C290.865 38.5303 289.865 34.5303 286.365 32.5303C288.586 32.5303 291.963 33.5707 294.474 35.9403C294.938 37.4703 293.865 41.0303 290.823 42.5303C290.81 41.94 290.865 41.2546 290.865 40.5303Z" fill="#E56E90"/>
<path d="M272.865 43.0303C279.861 43.3801 285.878 43.4851 291.258 44.0303M297.865 45.0303C295.762 44.5796 293.569 44.2644 291.258 44.0303M295.865 37.5303C295.447 36.9451 294.978 36.4159 294.474 35.9403M291.258 44.0303C290.932 43.6855 290.838 43.1625 290.823 42.5303M290.823 42.5303C290.81 41.94 290.865 41.2546 290.865 40.5303C290.865 38.5303 289.865 34.5303 286.365 32.5303C288.586 32.5303 291.963 33.5707 294.474 35.9403M290.823 42.5303C293.865 41.0303 294.938 37.4703 294.474 35.9403" stroke="black" stroke-width="0.5"/>
<path d="M290.865 40.5303C286.365 40.5303 284.365 36.5303 283.365 34.0303" stroke="black" stroke-width="0.5"/>
<path d="M132.863 12.6302C119.363 16.6302 107.363 22.5303 93.3633 35.5303C100.363 23.5303 115.863 14.0303 131.363 9.03027L132.863 12.6302Z" fill="#EFC7D3" stroke="black" stroke-width="0.5"/>
<path d="M131.363 9.03027C111.363 14.7043 93.3633 32.0303 85.3633 30.0303C98.3633 20.5303 114.363 12.0303 130.863 7.53027L131.363 9.03027Z" fill="#EFC7D3" stroke="black" stroke-width="0.5"/>
<path d="M10.3639 48.0302H4.36395C1.86328 52.0302 1.86328 62.0302 2.36395 65.5302C0.863281 66.5302 0.863879 71.0302 1.86395 72.5302L5.86395 73.0302V74.5302L1.86395 76.5302V78.5302C5.86395 79.5302 14.3639 81.5302 22.3639 81.0302V79.5302H39.8639C39.1973 71.0302 40.8639 60.5302 49.8639 53.5302C47.3639 49.5302 40.3639 45.0302 37.3639 44.5302C27.3639 43.5302 12.3639 46.0302 10.3639 48.0302Z" fill="#EFC7D3" stroke="black" stroke-width="0.5"/>
<path d="M93.3652 35.5303C75.5319 36.3636 43.8652 41.2303 33.3652 44.2303L37.3652 44.5303C42.3652 46.0303 47.8652 50.3636 49.8652 53.5303C62.8643 44.0303 88.3643 51.0303 86.8643 78.5303H96.8643C89.8643 67.5303 90.8643 45.5303 93.3652 35.5303Z" fill="#EFC7D3" stroke="black" stroke-width="0.5"/>
<path d="M10.3633 48.0303H4.36328C36.8635 28.5302 58.8635 34.5303 84.8633 30.0303L93.8635 35.5303C76.8635 36.5303 47.8633 40.0303 33.8633 44.2303C25.8633 44.0303 11.8633 46.0303 10.3633 48.0303Z" fill="#EFC7D3" stroke="black" stroke-width="0.5"/>
<path d="M37.3647 44.5303C29.8647 43.5303 12.8647 45.5303 10.3647 48.0303C9.56474 50.4303 12.6981 53.3636 14.3647 54.5303C23.8647 56.0303 37.3647 50.0303 37.3647 44.5303Z" fill="#EFC7D3" stroke="black" stroke-width="0.5"/>
<path d="M4.36398 48.0303C11.364 49.0303 5.36398 59.5303 2.36398 64.5303C1.86391 57.5303 2.36377 52.0303 4.36398 48.0303Z" fill="#EFC7D3" stroke="black" stroke-width="0.5"/>
<path d="M22.3633 84.0303V79.5303H39.8633L40.3633 84.0303H22.3633Z" fill="#EFC7D3" stroke="black" stroke-width="0.5"/>
<path d="M2.86523 65.5303C4.36523 68.0303 6.36523 71.1969 5.86523 73.0303M22.3652 79.5303C11.8652 80.0303 7.36523 76.0303 8.36523 72.5303C8.86523 72.0303 10.3652 70.5303 11.3652 70.5303" stroke="black" stroke-width="0.5"/>
<path d="M32.3652 74.5304C29.8652 70.5304 24.3652 65.5305 21.3652 64.0305C19.6152 63.5305 16.9901 63.6555 14.24 64.0305C12.6151 65.3638 11.3652 68.5304 11.8652 71.5304C11.8652 72.6971 13.1727 75.0304 15.8652 75.0304C20.3652 75.0304 27.3652 75.5304 32.3652 74.5304Z" fill="#EFC7D3"/>
<path d="M6.36523 65.5305C8.61518 65.0304 11.4901 64.4055 14.24 64.0305M14.24 64.0305C16.9901 63.6555 19.6152 63.5305 21.3652 64.0305C24.3652 65.5305 29.8652 70.5304 32.3652 74.5304C27.3652 75.5304 20.3652 75.0304 15.8652 75.0304C13.1727 75.0304 11.8652 72.6971 11.8652 71.5304C11.3652 68.5304 12.6151 65.3638 14.24 64.0305Z" stroke="black" stroke-width="0.5"/>
<path d="M11.8652 71.0305C19.8652 69.5305 23.3652 72.159 26.3652 73.659M13.3652 74.0305L30.8652 73.5305" stroke="black" stroke-width="0.5"/>
<path d="M22.3633 82.5303H31.8633C33.8633 82.5303 35.3633 80.5303 34.8633 79.5303M38.3633 79.5303V84.0303" stroke="black" stroke-width="0.5"/>
<path d="M22.3652 81.0305C17.8652 81.0305 13.3652 81.5305 1.86518 78.5305V76.5305L5.86518 74.5305V73.0305L1.86518 72.5305C1.36426 71.0303 0.364454 68.0303 2.36445 65.5303C1.86469 57.5303 2.36469 51.0303 4.36518 48.03C36.8652 28.5304 58.8652 34.5305 84.8652 30.0305C162.865 -24.9697 244.865 12.0303 281.865 26.5305L295.365 28.5303L295.865 35.5303V38.5303C297.364 43.5303 298.699 48.0303 297.365 50.0303C299.865 51.0303 302.365 54.1969 302.365 56.0303L300.365 66.0303C300.817 76.8782 298.409 77.1025 289.077 77.4149C288.086 77.4481 286.017 77.4823 284.865 77.5303V79.0303L259.865 79.4613M22.3652 81.0305V84.0305H40.3635L39.8652 79.5305M22.3652 81.0305V79.5305H39.8652M39.8652 79.5305C36.8652 38.0305 90.3652 41.0305 86.8652 80.0305V82.5303H213.365C207.365 39.0303 261.865 39.0303 259.865 79.4613M259.364 79.4613H259.865" stroke="black"/>
</svg>
