<svg width="303" height="95" viewBox="0 0 303 95" fill="none" xmlns="http://www.w3.org/2000/svg">
<circle cx="62.4795" cy="73.8762" r="20.5" fill="#E0426F" stroke="black"/>
<circle cx="235.479" cy="73.8762" r="20.5" fill="#E0426F" stroke="black"/>
<path d="M132.478 12.3761L130.978 8.87608C170.978 0.876188 192.478 1.37622 231.478 12.8762L227.978 17.3762C207.978 9.37613 189.978 8.37613 173.978 7.8762C171.478 7.3762 167.478 7.37616 164.978 7.87608C154.978 7.8762 142.978 9.3762 132.478 12.3761Z" fill="#E56E90" stroke="black" stroke-width="0.5"/>
<path d="M130.978 8.87627L130.478 7.37626C166.478 -3.62378 198.978 0.376095 234.478 9.37627L231.478 12.8763C191.478 0.376221 165.478 1.87622 130.978 8.87627Z" fill="#E56E90" stroke="black" stroke-width="0.5"/>
<path d="M130.978 8.87609C182.478 -2.62394 210.978 7.3761 231.478 12.8761" stroke="black" stroke-width="0.5"/>
<path d="M170.479 29.8762L173.979 7.87622C207.479 8.87622 218.979 14.3762 223.479 15.8762L225.962 27.8762C198.972 27.8769 181.477 29.3763 170.479 29.8762Z" fill="#E56E90"/>
<path d="M226.479 30.3762L223.479 15.8762C218.979 14.3762 207.479 8.87622 173.979 7.87622L170.479 29.8762C181.479 29.3762 198.979 27.8762 225.979 27.8762" stroke="black" stroke-width="0.5"/>
<path d="M164.979 7.87622C131.979 8.87622 111.979 17.8762 92.9795 35.3762L95.4795 33.3762L159.479 30.3762L164.979 7.87622Z" fill="#E56E90" stroke="black" stroke-width="0.5"/>
<path d="M239.478 22.3762C235.811 19.7096 229.978 17.3762 223.478 15.8762L225.978 27.8762H232.478C235.478 26.3762 238.478 24.145 239.478 22.3762Z" fill="#E56E90" stroke="black" stroke-width="0.5"/>
<path d="M96.4795 78.3762H163.479L197.979 76.8762H212.479L212.979 82.3762H198.979H97.9795H86.4795V78.3762H96.4795Z" fill="#E56E90"/>
<path d="M96.4795 78.3762H163.479L197.979 76.8762M96.4795 78.3762C96.4795 79.8762 96.9795 80.8762 97.9795 82.3762M96.4795 78.3762H86.4795V82.3762H97.9795M197.979 76.8762L198.979 82.3762M197.979 76.8762H212.479L212.979 82.3762H198.979M198.979 82.3762H97.9795" stroke="black" stroke-width="0.5"/>
<path d="M96.4786 78.3762C91.9795 73.8762 88.9795 51.8762 92.9786 35.3762L164.979 31.3762C160.979 36.3762 159.979 70.3762 163.479 78.3762H96.4786Z" fill="#E56E90" stroke="black" stroke-width="0.5"/>
<path d="M228.479 30.3762L164.979 31.3762C160.98 36.3762 159.98 70.3762 163.479 78.3762L197.979 76.8762C202.479 75.3762 208.979 69.8762 228.479 30.3762Z" fill="#E56E90" stroke="black" stroke-width="0.5"/>
<path d="M170.479 29.8763C165.979 30.3763 162.479 30.3763 159.479 30.3763L164.979 7.87629C167.979 7.37622 170.979 7.37622 173.979 7.87629L170.479 29.8763Z" fill="#E56E90" stroke="black" stroke-width="0.5"/>
<path d="M98.9795 31.8762C103.479 37.3762 110.479 33.8762 114.479 32.3762C115.479 16.8761 102.479 24.8761 98.9795 31.8762Z" fill="#E56E90" stroke="black" stroke-width="0.5"/>
<path d="M234.478 9.37622L231.478 12.8762C248.478 18.3762 258.978 21.3762 271.478 27.8762H272.978L280.978 26.3762C265.978 19.8762 258.478 17.3762 234.478 9.37622Z" fill="#EFC7D3" stroke="black" stroke-width="0.5"/>
<path d="M271.478 27.8762C260.978 22.3762 241.978 15.8762 231.478 12.8762L229.478 15.3762L244.478 22.8762C242.978 25.3762 238.978 27.3762 232.978 30.0762C244.978 29.3762 261.978 28.3762 271.478 27.8762Z" fill="#EFC7D3" stroke="black" stroke-width="0.5"/>
<path d="M276.979 34.1762L282.978 31.8762L272.479 27.8762L228.479 30.3762C220.979 45.3762 205.979 75.8762 197.979 76.8762H212.479C210.979 65.8762 220.479 42.3762 245.479 51.3762C255.979 45.8762 265.979 40.3762 276.979 34.1762Z" fill="#EFC7D3" stroke="black" stroke-width="0.5"/>
<path d="M277.978 33.8762C265.978 40.3762 255.978 45.8762 245.478 51.3762C249.978 54.3762 260.478 60.3762 259.478 79.3762L284.478 78.8762V77.3762C292.978 76.3762 301.478 79.8762 299.978 65.8762L301.978 55.8762C301.978 54.3762 299.478 50.3762 296.978 49.8762C298.478 47.3762 295.478 38.3762 295.478 38.3762V36.8762L291.478 33.8762L286.478 32.3762L282.978 31.8762L277.978 33.8762Z" fill="#EFC7D3" stroke="black" stroke-width="0.5"/>
<path d="M280.978 26.3762L272.478 27.8762L282.978 31.8762C292.478 32.8762 291.476 34.3762 295.472 36.7964L294.978 28.3762L280.978 26.3762Z" fill="#EFC7D3"/>
<path d="M295.478 36.8762L295.472 36.7964M295.472 36.7964L294.978 28.3762L280.978 26.3762L272.478 27.8762L282.978 31.8762C292.478 32.8762 291.476 34.3762 295.472 36.7964Z" stroke="black" stroke-width="0.5"/>
<path d="M293.979 36.3764C293.479 33.8763 282.479 33.6762 276.979 34.1762" stroke="black" stroke-width="0.5"/>
<path d="M299.979 66.3762L260.479 68.3762C259.979 63.3762 257.813 59.2096 255.979 57.3762L301.979 54.8762M300.479 52.3762C289.479 50.8762 278.479 46.0762 266.479 40.0762M228.479 30.3762L272.479 27.8762L280.979 26.3762" stroke="black" stroke-width="0.5"/>
<path d="M290.479 40.3762C290.479 38.3762 289.479 34.3762 285.979 32.3762C288.2 32.3762 291.577 33.4166 294.088 35.7862C294.552 37.3162 293.479 40.8762 290.438 42.3762C290.424 41.7859 290.479 41.1005 290.479 40.3762Z" fill="#EFC7D3"/>
<path d="M272.479 42.8762C279.475 43.226 285.492 43.3311 290.873 43.8762M297.479 44.8762C295.376 44.4256 293.183 44.1103 290.873 43.8762M295.479 37.3762C295.062 36.7911 294.592 36.2619 294.088 35.7862M290.873 43.8762C290.546 43.5315 290.452 43.0084 290.438 42.3762M290.438 42.3762C290.424 41.7859 290.479 41.1005 290.479 40.3762C290.479 38.3762 289.479 34.3762 285.979 32.3762C288.2 32.3762 291.577 33.4166 294.088 35.7862M290.438 42.3762C293.479 40.8762 294.552 37.3162 294.088 35.7862" stroke="black" stroke-width="0.5"/>
<path d="M290.479 40.3762C285.979 40.3762 283.979 36.3762 282.979 33.8762" stroke="black" stroke-width="0.5"/>
<path d="M132.478 12.4762C118.978 16.4762 106.978 22.3762 92.978 35.3762C99.978 23.3762 115.478 13.8762 130.978 8.87622L132.478 12.4762Z" fill="#EFC7D3" stroke="black" stroke-width="0.5"/>
<path d="M130.978 8.87622C110.978 14.5503 92.978 31.8762 84.978 29.8762C97.978 20.3762 113.978 11.8762 130.478 7.37622L130.978 8.87622Z" fill="#EFC7D3" stroke="black" stroke-width="0.5"/>
<path d="M9.97869 47.8761H3.97869C1.47803 51.8761 1.47803 61.8761 1.97869 65.3761C0.478027 66.3761 0.478625 70.8761 1.47869 72.3761L5.47869 72.8761V74.3761L1.47869 76.3761V78.3761C5.47869 79.3761 13.9787 81.3761 21.9787 80.8761V79.3761H39.4787C38.812 70.8761 40.4787 60.3761 49.4787 53.3761C46.9787 49.3761 39.9787 44.8761 36.9787 44.3761C26.9787 43.3761 11.9787 45.8761 9.97869 47.8761Z" fill="#EFC7D3" stroke="black" stroke-width="0.5"/>
<path d="M92.9795 35.3762C75.1462 36.2096 43.4795 41.0762 32.9795 44.0762L36.9795 44.3762C41.9795 45.8762 47.4795 50.2096 49.4795 53.3762C62.4785 43.8762 87.9785 50.8762 86.4785 78.3762H96.4785C89.4785 67.3762 90.4785 45.3762 92.9795 35.3762Z" fill="#EFC7D3" stroke="black" stroke-width="0.5"/>
<path d="M9.97754 47.8763H3.97754C36.4777 28.3762 58.4778 34.3762 84.4775 29.8762L93.4778 35.3762C76.4778 36.3762 47.4775 39.8762 33.4775 44.0762C25.4775 43.8762 11.4775 45.8762 9.97754 47.8763Z" fill="#EFC7D3" stroke="black" stroke-width="0.5"/>
<path d="M36.9795 44.3763C29.4795 43.3762 12.4795 45.3762 9.97948 47.8763C9.17948 50.2762 12.3128 53.2096 13.9795 54.3762C23.4795 55.8762 36.9795 49.8762 36.9795 44.3763Z" fill="#EFC7D3" stroke="black" stroke-width="0.5"/>
<path d="M3.97872 47.8762C10.9787 48.8762 4.97872 59.3762 1.97872 64.3762C1.47865 57.3762 1.97852 51.8762 3.97872 47.8762Z" fill="#EFC7D3" stroke="black" stroke-width="0.5"/>
<path d="M21.978 83.8762V79.3762H39.478L39.978 83.8762H21.978Z" fill="#EFC7D3" stroke="black" stroke-width="0.5"/>
<path d="M2.47949 65.376C3.97949 67.876 5.97949 71.0426 5.47949 72.876M21.9795 79.376C11.4795 79.876 6.97949 75.876 7.97949 72.376C8.47949 71.876 9.97949 70.376 10.9795 70.376" stroke="black" stroke-width="0.5"/>
<path d="M31.9795 74.3761C29.4795 70.3761 23.9795 65.3762 20.9795 63.8762C19.2294 63.3762 16.6044 63.5012 13.8543 63.8762C12.2294 65.2095 10.9795 68.3761 11.4795 71.3761C11.4795 72.5428 12.7869 74.8761 15.4795 74.8761C19.9795 74.8761 26.9795 75.3761 31.9795 74.3761Z" fill="#EFC7D3"/>
<path d="M5.97949 65.3762C8.22943 64.8762 11.1043 64.2512 13.8543 63.8762M13.8543 63.8762C16.6044 63.5012 19.2294 63.3762 20.9795 63.8762C23.9795 65.3762 29.4795 70.3761 31.9795 74.3761C26.9795 75.3761 19.9795 74.8761 15.4795 74.8761C12.7869 74.8761 11.4795 72.5428 11.4795 71.3761C10.9795 68.3761 12.2293 65.2095 13.8543 63.8762Z" stroke="black" stroke-width="0.5"/>
<path d="M11.4795 70.8762C19.4795 69.3762 22.9795 72.0047 25.9795 73.5047M12.9795 73.8762L30.4795 73.3762" stroke="black" stroke-width="0.5"/>
<path d="M21.9775 82.376H31.4775C33.4775 82.376 34.9775 80.376 34.4775 79.376M37.9775 79.376V83.876" stroke="black" stroke-width="0.5"/>
<path d="M21.9794 80.8765C17.4794 80.8765 12.9794 81.3765 1.47944 78.3765V76.3765L5.47944 74.3765V72.8765L1.47944 72.3765C0.978516 70.8762 -0.0212885 67.8762 1.97871 65.3762C1.47895 57.3762 1.97895 50.8762 3.97944 47.876C36.4794 28.3764 58.4794 34.3764 84.4794 29.8764C162.479 -25.1237 244.479 11.8762 281.479 26.3764L294.979 28.3762L295.479 35.3762V38.3762C296.978 43.3762 298.313 47.8762 296.979 49.8762C299.479 50.8762 301.979 54.0429 301.979 55.8762L299.979 65.8762C300.431 76.7241 298.023 76.9484 288.692 77.2609C287.701 77.294 285.632 77.3282 284.479 77.3762V78.8762L259.479 79.3073M21.9794 80.8765V83.8765H39.9778L39.4794 79.3765M21.9794 80.8765V79.3765H39.4794M39.4794 79.3765C36.4794 37.8765 89.9794 40.8765 86.4794 79.8765V82.3762H212.979C206.979 38.8762 261.479 38.8762 259.479 79.3073M258.978 79.3073H259.479" stroke="black"/>
</svg>
