<svg width="303" height="96" viewBox="0 0 303 96" fill="none" xmlns="http://www.w3.org/2000/svg">
<circle cx="62.6978" cy="74.2297" r="20.5" stroke="black"/>
<circle cx="235.698" cy="74.2297" r="20.5" stroke="black"/>
<path d="M132.696 12.7296L131.196 9.22959C171.196 1.2297 192.696 1.72974 231.696 13.2297L228.196 17.7297C208.196 9.72965 190.196 8.72964 174.196 8.22971C171.696 7.72971 167.696 7.72968 165.196 8.22959C155.196 8.22971 143.196 9.72971 132.696 12.7296Z" fill="#E0426F" stroke="black" stroke-width="0.5"/>
<path d="M131.196 9.22978L130.696 7.72978C166.696 -3.27026 199.196 0.72961 234.696 9.72978L231.696 13.2298C191.696 0.729736 165.696 2.22974 131.196 9.22978Z" fill="#E0426F" stroke="black" stroke-width="0.5"/>
<path d="M131.196 9.2296C182.696 -2.27042 211.196 7.72961 231.696 13.2296" stroke="black" stroke-width="0.5"/>
<path d="M170.698 30.2297L174.198 8.22974C207.698 9.22974 219.198 14.7297 223.698 16.2297L226.181 28.2297C199.19 28.2304 181.695 29.7298 170.698 30.2297Z" fill="#E0426F"/>
<path d="M226.698 30.7297L223.698 16.2297C219.198 14.7297 207.698 9.22974 174.198 8.22974L170.698 30.2297C181.698 29.7297 199.198 28.2297 226.198 28.2297" stroke="black" stroke-width="0.5"/>
<path d="M165.198 8.22974C132.198 9.22974 112.198 18.2297 93.1978 35.7297L95.6978 33.7297L159.698 30.7297L165.198 8.22974Z" fill="#E0426F" stroke="black" stroke-width="0.5"/>
<path d="M239.696 22.7297C236.03 20.0631 230.196 17.7297 223.696 16.2297L226.196 28.2297H232.696C235.696 26.7297 238.696 24.4985 239.696 22.7297Z" fill="#E0426F" stroke="black" stroke-width="0.5"/>
<path d="M96.6978 78.7297H163.698L198.198 77.2297H212.698L213.198 82.7297H199.198H98.1978H86.6978V78.7297H96.6978Z" fill="#E0426F"/>
<path d="M96.6978 78.7297H163.698L198.198 77.2297M96.6978 78.7297C96.6978 80.2297 97.1978 81.2297 98.1978 82.7297M96.6978 78.7297H86.6978V82.7297H98.1978M198.198 77.2297L199.198 82.7297M198.198 77.2297H212.698L213.198 82.7297H199.198M199.198 82.7297H98.1978" stroke="black" stroke-width="0.5"/>
<path d="M96.6969 78.7297C92.1977 74.2297 89.1978 52.2297 93.1969 35.7297L165.198 31.7297C161.198 36.7297 160.198 70.7297 163.698 78.7297H96.6969Z" fill="#E0426F" stroke="black" stroke-width="0.5"/>
<path d="M228.697 30.7297L165.197 31.7297C161.197 36.7297 160.198 70.7297 163.697 78.7297L198.197 77.2297C202.697 75.7297 209.197 70.2297 228.697 30.7297Z" fill="#E0426F" stroke="black" stroke-width="0.5"/>
<path d="M170.698 30.2298C166.198 30.7298 162.698 30.7298 159.698 30.7298L165.198 8.22981C168.198 7.72974 171.198 7.72974 174.198 8.22981L170.698 30.2298Z" fill="#E0426F" stroke="black" stroke-width="0.5"/>
<path d="M99.1978 32.2297C103.698 37.7297 110.698 34.2297 114.698 32.7297C115.698 17.2296 102.698 25.2296 99.1978 32.2297Z" fill="#E0426F" stroke="black" stroke-width="0.5"/>
<path d="M234.696 9.72974L231.696 13.2297C248.696 18.7297 259.196 21.7297 271.696 28.2297H273.196L281.196 26.7297C266.196 20.2297 258.696 17.7297 234.696 9.72974Z" stroke="black" stroke-width="0.5"/>
<path d="M271.696 28.2297C261.196 22.7297 242.196 16.2297 231.696 13.2297L229.696 15.7297L244.696 23.2297C243.196 25.7297 239.196 27.7297 233.196 30.4297C245.196 29.7297 262.196 28.7297 271.696 28.2297Z" stroke="black" stroke-width="0.5"/>
<path d="M277.198 34.5297L283.196 32.2297L272.697 28.2297L228.697 30.7297C221.197 45.7297 206.197 76.2297 198.197 77.2297H212.697C211.197 66.2297 220.697 42.7297 245.698 51.7297C256.198 46.2297 266.198 40.7297 277.198 34.5297Z" stroke="black" stroke-width="0.5"/>
<path d="M278.196 34.2298C266.196 40.7298 256.196 46.2298 245.696 51.7298C250.196 54.7297 260.696 60.7297 259.696 79.7297L284.696 79.2297V77.7297C293.196 76.7297 301.696 80.2297 300.196 66.2297L302.196 56.2297C302.196 54.7297 299.696 50.7297 297.196 50.2297C298.696 47.7297 295.696 38.7297 295.696 38.7297V37.2297L291.696 34.2297L286.696 32.7297L283.196 32.2297L278.196 34.2298Z" stroke="black" stroke-width="0.5"/>
<path d="M295.696 37.2297L295.69 37.1499M295.69 37.1499L295.196 28.7297L281.196 26.7297L272.696 28.2297L283.196 32.2297C292.696 33.2297 291.695 34.7297 295.69 37.1499Z" stroke="black" stroke-width="0.5"/>
<path d="M294.198 36.7299C293.698 34.2298 282.698 34.0297 277.198 34.5297" stroke="black" stroke-width="0.5"/>
<path d="M300.198 66.7297L260.698 68.7297C260.198 63.7297 258.031 59.5631 256.198 57.7297L302.198 55.2297M300.698 52.7297C289.698 51.2297 278.698 46.4297 266.698 40.4297M228.698 30.7297L272.698 28.2297L281.198 26.7297" stroke="black" stroke-width="0.5"/>
<path d="M272.698 43.2297C279.693 43.5795 285.71 43.6846 291.091 44.2297M297.698 45.2297C295.595 44.7791 293.402 44.4638 291.091 44.2297M295.698 37.7297C295.28 37.1446 294.811 36.6154 294.307 36.1397M291.091 44.2297C290.765 43.885 290.671 43.3619 290.656 42.7297M290.656 42.7297C290.642 42.1395 290.698 41.454 290.698 40.7297C290.698 38.7297 289.698 34.7297 286.198 32.7297C288.419 32.7297 291.795 33.7701 294.307 36.1397M290.656 42.7297C293.698 41.2297 294.77 37.6697 294.307 36.1397" stroke="black" stroke-width="0.5"/>
<path d="M290.698 40.7297C286.198 40.7297 284.198 36.7297 283.198 34.2297" stroke="black" stroke-width="0.5"/>
<path d="M132.696 12.8297C119.196 16.8297 107.196 22.7297 93.1963 35.7297C100.196 23.7297 115.696 14.2297 131.196 9.22974L132.696 12.8297Z" fill="#E0426F" stroke="black" stroke-width="0.5"/>
<path d="M131.196 9.22974C111.196 14.9038 93.1963 32.2297 85.1963 30.2297C98.1963 20.7297 114.196 12.2297 130.696 7.72974L131.196 9.22974Z" fill="#E0426F" stroke="black" stroke-width="0.5"/>
<path d="M10.197 48.2296H4.19696C1.69629 52.2296 1.69629 62.2296 2.19696 65.7296C0.696289 66.7296 0.696887 71.2296 1.69696 72.7296L5.69696 73.2296V74.7296L1.69696 76.7296V78.7296C5.69696 79.7296 14.197 81.7296 22.197 81.2296V79.7296H39.697C39.0303 71.2296 40.697 60.7296 49.697 53.7296C47.197 49.7296 40.197 45.2296 37.197 44.7296C27.197 43.7296 12.197 46.2296 10.197 48.2296Z" fill="#E0426F" stroke="black" stroke-width="0.5"/>
<path d="M93.1978 35.7297C75.3644 36.5631 43.6978 41.4297 33.1978 44.4297L37.1978 44.7297C42.1978 46.2297 47.6978 50.5631 49.6978 53.7297C62.6968 44.2297 88.1968 51.2297 86.6968 78.7297H96.6968C89.6968 67.7297 90.6968 45.7297 93.1978 35.7297Z" fill="#E0426F" stroke="black" stroke-width="0.5"/>
<path d="M10.1963 48.2298H4.19629C36.6965 28.7297 58.6965 34.7297 84.6963 30.2297L93.6965 35.7297C76.6965 36.7297 47.6963 40.2297 33.6963 44.4297C25.6963 44.2297 11.6963 46.2297 10.1963 48.2298Z" fill="#E0426F" stroke="black" stroke-width="0.5"/>
<path d="M37.1977 44.7298C29.6977 43.7297 12.6977 45.7297 10.1977 48.2298C9.39774 50.6298 12.5311 53.5631 14.1977 54.7297C23.6978 56.2297 37.1977 50.2297 37.1977 44.7298Z" fill="#E0426F" stroke="black" stroke-width="0.5"/>
<path d="M4.19698 48.2297C11.197 49.2297 5.19698 59.7297 2.19698 64.7297C1.69691 57.7297 2.19678 52.2297 4.19698 48.2297Z" fill="#E0426F" stroke="black" stroke-width="0.5"/>
<path d="M22.1963 84.2297V79.7297H39.6963L40.1963 84.2297H22.1963Z" fill="#E0426F" stroke="black" stroke-width="0.5"/>
<path d="M2.69824 65.7295C4.19824 68.2295 6.19824 71.3962 5.69824 73.2295M22.1982 79.7295C11.6982 80.2295 7.19824 76.2295 8.19824 72.7295C8.69824 72.2295 10.1982 70.7295 11.1982 70.7295" stroke="black" stroke-width="0.5"/>
<path d="M32.1982 74.7296C29.6982 70.7296 24.1982 65.7297 21.1982 64.2297C19.4482 63.7297 16.8231 63.8547 14.073 64.2297C12.4481 65.563 11.1982 68.7296 11.6982 71.7296C11.6982 72.8963 13.0057 75.2296 15.6982 75.2296C20.1982 75.2296 27.1982 75.7296 32.1982 74.7296Z" fill="#E0426F"/>
<path d="M6.19824 65.7297C8.44818 65.2297 11.3231 64.6047 14.073 64.2297M14.073 64.2297C16.8231 63.8547 19.4482 63.7297 21.1982 64.2297C24.1982 65.7297 29.6982 70.7296 32.1982 74.7296C27.1982 75.7296 20.1982 75.2296 15.6982 75.2296C13.0057 75.2296 11.6982 72.8963 11.6982 71.7296C11.1982 68.7296 12.4481 65.563 14.073 64.2297Z" stroke="black" stroke-width="0.5"/>
<path d="M11.6982 71.2297C19.6982 69.7297 23.1982 72.3582 26.1982 73.8582M13.1982 74.2297L30.6982 73.7297" stroke="black" stroke-width="0.5"/>
<path d="M22.1963 82.7295H31.6963C33.6963 82.7295 35.1963 80.7295 34.6963 79.7295M38.1963 79.7295V84.2295" stroke="black" stroke-width="0.5"/>
<path d="M22.1977 81.23C17.6977 81.23 13.1977 81.73 1.6977 78.73V76.73L5.6977 74.73V73.23L1.6977 72.73C1.19678 71.2297 0.196973 68.2297 2.19697 65.7297C1.69721 57.7297 2.19721 51.2297 4.1977 48.2295C36.6977 28.7299 58.6977 34.7299 84.6977 30.2299C162.698 -24.7702 244.698 12.2297 281.698 26.7299L295.198 28.7297L295.698 35.7297V38.7297C297.196 43.7297 298.531 48.2297 297.198 50.2297C299.698 51.2297 302.198 54.3964 302.198 56.2297L300.198 66.2297C300.65 77.0776 298.242 77.3019 288.91 77.6144C287.919 77.6476 285.85 77.6817 284.698 77.7297V79.2297L259.698 79.6608M22.1977 81.23V84.23H40.196L39.6977 79.73M22.1977 81.23V79.73H39.6977M39.6977 79.73C36.6977 38.23 90.1977 41.23 86.6977 80.23V82.7297H213.198C207.198 39.2297 261.698 39.2297 259.698 79.6608M259.196 79.6608H259.698" stroke="black"/>
</svg>
