<svg width="304" height="96" viewBox="0 0 304 96" fill="none" xmlns="http://www.w3.org/2000/svg">
<circle cx="63.0635" cy="74.0605" r="20.5" fill="#EDADBF" stroke="black"/>
<circle cx="236.063" cy="74.0605" r="20.5" fill="#EDADBF" stroke="black"/>
<path d="M133.062 12.5604L131.562 9.0604C171.562 1.06051 193.062 1.56055 232.062 13.0605L228.562 17.5605C208.562 9.56046 190.562 8.56046 174.562 8.06052C172.062 7.56052 168.062 7.56049 165.562 8.0604C155.562 8.06052 143.562 9.56052 133.062 12.5604Z" fill="#E0426F" stroke="black" stroke-width="0.5"/>
<path d="M131.562 9.06059L131.062 7.56059C167.062 -3.43945 199.562 0.560421 235.062 9.56059L232.062 13.0606C192.062 0.560547 166.062 2.06055 131.562 9.06059Z" fill="#E0426F" stroke="black" stroke-width="0.5"/>
<path d="M131.562 9.06066C183.062 -2.43937 211.562 7.56067 232.062 13.0607" stroke="black" stroke-width="0.5"/>
<path d="M171.063 30.0605L174.563 8.06055C208.063 9.06055 219.563 14.5605 224.063 16.0605L226.546 28.0605C199.556 28.0612 182.061 29.5607 171.063 30.0605Z" fill="#E0426F"/>
<path d="M227.063 30.5605L224.063 16.0605C219.563 14.5605 208.063 9.06055 174.563 8.06055L171.063 30.0605C182.063 29.5605 199.563 28.0605 226.563 28.0605" stroke="black" stroke-width="0.5"/>
<path d="M165.563 8.06055C132.563 9.06055 112.563 18.0605 93.5635 35.5605L96.0635 33.5605L160.063 30.5605L165.563 8.06055Z" fill="#E0426F" stroke="black" stroke-width="0.5"/>
<path d="M240.062 22.5605C236.395 19.8939 230.562 17.5605 224.062 16.0605L226.562 28.0605H233.062C236.062 26.5605 239.062 24.3293 240.062 22.5605Z" fill="#E0426F" stroke="black" stroke-width="0.5"/>
<path d="M97.0635 78.5605H164.063L198.563 77.0605H213.063L213.563 82.5605H199.563H98.5635H87.0635V78.5605H97.0635Z" fill="#E0426F"/>
<path d="M97.0635 78.5605H164.063L198.563 77.0605M97.0635 78.5605C97.0635 80.0605 97.5635 81.0605 98.5635 82.5605M97.0635 78.5605H87.0635V82.5605H98.5635M198.563 77.0605L199.563 82.5605M198.563 77.0605H213.063L213.563 82.5605H199.563M199.563 82.5605H98.5635" stroke="black" stroke-width="0.5"/>
<path d="M97.0626 78.5605C92.5635 74.0605 89.5635 52.0605 93.5626 35.5605L165.563 31.5605C161.563 36.5605 160.563 70.5605 164.063 78.5605H97.0626Z" fill="#E0426F" stroke="black" stroke-width="0.5"/>
<path d="M229.063 30.5605L165.563 31.5605C161.564 36.5605 160.564 70.5605 164.063 78.5605L198.563 77.0605C203.063 75.5605 209.563 70.0605 229.063 30.5605Z" fill="#E0426F" stroke="black" stroke-width="0.5"/>
<path d="M171.063 30.0606C166.563 30.5606 163.063 30.5606 160.063 30.5606L165.563 8.06062C168.563 7.56055 171.563 7.56055 174.563 8.06062L171.063 30.0606Z" fill="#E0426F" stroke="black" stroke-width="0.5"/>
<path d="M99.5635 32.0608C104.063 37.5608 111.063 34.0608 115.063 32.5608C116.063 17.0607 103.063 25.0607 99.5635 32.0608Z" fill="#E0426F" stroke="black" stroke-width="0.5"/>
<path d="M235.062 9.56055L232.062 13.0605C249.062 18.5605 259.562 21.5605 272.062 28.0605H273.562L281.562 26.5605C266.562 20.0605 259.062 17.5605 235.062 9.56055Z" fill="#E56E90" stroke="black" stroke-width="0.5"/>
<path d="M272.062 28.0605C261.562 22.5605 242.562 16.0605 232.062 13.0605L230.062 15.5605L245.062 23.0605C243.562 25.5605 239.562 27.5605 233.562 30.2605C245.562 29.5605 262.562 28.5605 272.062 28.0605Z" fill="#E56E90" stroke="black" stroke-width="0.5"/>
<path d="M277.563 34.3605L283.562 32.0605L273.062 28.0605L229.062 30.5605C221.562 45.5605 206.562 76.0605 198.562 77.0605H213.062C211.562 66.0605 221.062 42.5605 246.063 51.5605C256.563 46.0605 266.563 40.5605 277.563 34.3605Z" fill="#E56E90" stroke="black" stroke-width="0.5"/>
<path d="M278.562 34.0606C266.562 40.5606 256.562 46.0606 246.062 51.5606C250.562 54.5605 261.062 60.5605 260.062 79.5605L285.062 79.0605V77.5605C293.562 76.5605 302.062 80.0605 300.562 66.0605L302.562 56.0605C302.562 54.5605 300.062 50.5605 297.562 50.0605C299.062 47.5605 296.062 38.5605 296.062 38.5605V37.0605L292.062 34.0605L287.062 32.5605L283.562 32.0605L278.562 34.0606Z" fill="#E56E90" stroke="black" stroke-width="0.5"/>
<path d="M281.562 26.5605L273.062 28.0605L283.562 32.0605C293.062 33.0605 292.06 34.5605 296.056 36.9807L295.562 28.5605L281.562 26.5605Z" fill="#E56E90"/>
<path d="M296.062 37.0605L296.056 36.9807M296.056 36.9807L295.562 28.5605L281.562 26.5605L273.062 28.0605L283.562 32.0605C293.062 33.0605 292.06 34.5605 296.056 36.9807Z" stroke="black" stroke-width="0.5"/>
<path d="M294.563 36.5607C294.063 34.0606 283.063 33.8606 277.563 34.3606" stroke="black" stroke-width="0.5"/>
<path d="M300.563 66.5605L261.063 68.5605C260.563 63.5605 258.397 59.3939 256.563 57.5605L302.563 55.0605M301.063 52.5605C290.063 51.0605 279.063 46.2605 267.063 40.2605M229.063 30.5605L273.063 28.0605L281.563 26.5605" stroke="black" stroke-width="0.5"/>
<path d="M291.063 40.5605C291.063 38.5605 290.063 34.5605 286.563 32.5605C288.784 32.5605 292.161 33.6009 294.672 35.9705C295.136 37.5005 294.063 41.0605 291.022 42.5605C291.008 41.9703 291.063 41.2848 291.063 40.5605Z" fill="#E56E90"/>
<path d="M273.063 43.0605C280.059 43.4103 286.076 43.5154 291.457 44.0605M298.063 45.0605C295.96 44.6099 293.767 44.2946 291.457 44.0605M296.063 37.5605C295.646 36.9754 295.176 36.4462 294.672 35.9705M291.457 44.0605C291.13 43.7158 291.036 43.1927 291.022 42.5605M291.022 42.5605C291.008 41.9703 291.063 41.2848 291.063 40.5605C291.063 38.5605 290.063 34.5605 286.563 32.5605C288.784 32.5605 292.161 33.6009 294.672 35.9705M291.022 42.5605C294.063 41.0605 295.136 37.5005 294.672 35.9705" stroke="black" stroke-width="0.5"/>
<path d="M291.063 40.5605C286.563 40.5605 284.563 36.5605 283.563 34.0605" stroke="black" stroke-width="0.5"/>
<path d="M133.062 12.6605C119.562 16.6605 107.562 22.5605 93.5615 35.5605C100.562 23.5605 116.062 14.0605 131.562 9.06055L133.062 12.6605Z" fill="#E56E90" stroke="black" stroke-width="0.5"/>
<path d="M131.562 9.06055C111.562 14.7346 93.5615 32.0605 85.5615 30.0605C98.5615 20.5605 114.562 12.0605 131.062 7.56055L131.562 9.06055Z" fill="#E56E90" stroke="black" stroke-width="0.5"/>
<path d="M10.5622 48.0604H4.56219C2.06152 52.0604 2.06152 62.0604 2.56219 65.5604C1.06152 66.5604 1.06212 71.0604 2.06219 72.5604L6.06219 73.0604V74.5604L2.06219 76.5604V78.5604C6.06219 79.5604 14.5622 81.5604 22.5622 81.0604V79.5604H40.0622C39.3955 71.0604 41.0622 60.5604 50.0622 53.5604C47.5622 49.5604 40.5622 45.0604 37.5622 44.5604C27.5622 43.5604 12.5622 46.0604 10.5622 48.0604Z" fill="#E56E90" stroke="black" stroke-width="0.5"/>
<path d="M93.5635 35.5605C75.7301 36.3939 44.0635 41.2605 33.5635 44.2605L37.5635 44.5605C42.5635 46.0605 48.0635 50.3939 50.0635 53.5605C63.0625 44.0605 88.5625 51.0605 87.0625 78.5605H97.0625C90.0625 67.5605 91.0625 45.5605 93.5635 35.5605Z" fill="#E56E90" stroke="black" stroke-width="0.5"/>
<path d="M10.5615 48.0606H4.56152C37.0617 28.5605 59.0618 34.5605 85.0615 30.0605L94.0618 35.5605C77.0618 36.5605 48.0615 40.0605 34.0615 44.2606C26.0615 44.0605 12.0615 46.0605 10.5615 48.0606Z" fill="#E56E90" stroke="black" stroke-width="0.5"/>
<path d="M37.563 44.5606C30.063 43.5605 13.063 45.5605 10.563 48.0606C9.76298 50.4606 12.8963 53.3939 14.563 54.5605C24.063 56.0605 37.563 50.0605 37.563 44.5606Z" fill="#E56E90" stroke="black" stroke-width="0.5"/>
<path d="M4.56222 48.0605C11.5622 49.0605 5.56222 59.5605 2.56222 64.5605C2.06215 57.5605 2.56201 52.0605 4.56222 48.0605Z" fill="#E56E90" stroke="black" stroke-width="0.5"/>
<path d="M22.5615 84.0605V79.5605H40.0615L40.5615 84.0605H22.5615Z" fill="#E56E90" stroke="black" stroke-width="0.5"/>
<path d="M3.06348 65.5605C4.56348 68.0605 6.56348 71.2272 6.06348 73.0605M22.5635 79.5605C12.0635 80.0605 7.56348 76.0605 8.56348 72.5605C9.06348 72.0605 10.5635 70.5605 11.5635 70.5605" stroke="black" stroke-width="0.5"/>
<path d="M32.5635 74.5607C30.0635 70.5607 24.5635 65.5607 21.5635 64.0607C19.8134 63.5607 17.1883 63.6857 14.4383 64.0607C12.8133 65.3941 11.5635 68.5607 12.0635 71.5607C12.0635 72.7273 13.3709 75.0607 16.0635 75.0607C20.5635 75.0607 27.5635 75.5607 32.5635 74.5607Z" fill="#E56E90"/>
<path d="M6.56348 65.5607C8.81342 65.0607 11.6883 64.4357 14.4383 64.0607M14.4383 64.0607C17.1883 63.6857 19.8134 63.5607 21.5635 64.0607C24.5635 65.5607 30.0635 70.5607 32.5635 74.5607C27.5635 75.5607 20.5635 75.0607 16.0635 75.0607C13.3709 75.0607 12.0635 72.7273 12.0635 71.5607C11.5635 68.5607 12.8133 65.3941 14.4383 64.0607Z" stroke="black" stroke-width="0.5"/>
<path d="M12.0635 71.0607C20.0635 69.5608 23.5635 72.1893 26.5635 73.6893M13.5635 74.0608L31.0635 73.5608" stroke="black" stroke-width="0.5"/>
<path d="M22.5615 82.5605H32.0615C34.0615 82.5605 35.5615 80.5605 35.0615 79.5605M38.5615 79.5605V84.0605" stroke="black" stroke-width="0.5"/>
<path d="M22.5634 81.0608C18.0634 81.0608 13.5634 81.5608 2.06342 78.5608V76.5608L6.06342 74.5608V73.0608L2.06342 72.5608C1.5625 71.0605 0.562696 68.0605 2.56269 65.5605C2.06293 57.5605 2.56293 51.0605 4.56342 48.0603C37.0634 28.5607 59.0634 34.5607 85.0634 30.0607C163.063 -24.9394 245.063 12.0605 282.063 26.5607L295.563 28.5605L296.063 35.5605V38.5605C297.562 43.5605 298.897 48.0605 297.563 50.0605C300.063 51.0605 302.563 54.2272 302.563 56.0605L300.563 66.0605C301.015 76.9085 298.607 77.1327 289.276 77.4452C288.285 77.4784 286.216 77.5125 285.063 77.5605V79.0605L260.063 79.4916M22.5634 81.0608V84.0608H40.5618L40.0634 79.5608M22.5634 81.0608V79.5608H40.0634M40.0634 79.5608C37.0634 38.0608 90.5634 41.0608 87.0634 80.0608V82.5605H213.563C207.563 39.0605 262.063 39.0605 260.063 79.4916M259.562 79.4916H260.063" stroke="black"/>
</svg>
