<svg width="303" height="96" viewBox="0 0 303 96" fill="none" xmlns="http://www.w3.org/2000/svg">
<circle cx="62.4897" cy="74.553" r="20.5" fill="#E0426F" stroke="black"/>
<circle cx="235.49" cy="74.553" r="20.5" fill="#E0426F" stroke="black"/>
<path d="M132.488 13.0528L130.988 9.55283C170.988 1.55295 192.488 2.05298 231.488 13.5529L227.988 18.0529C207.988 10.0529 189.988 9.05289 173.988 8.55296C171.488 8.05296 167.488 8.05292 164.988 8.55283C154.988 8.55296 142.988 10.053 132.488 13.0528Z" fill="#E0426F" stroke="black" stroke-width="0.5"/>
<path d="M130.988 9.55302L130.488 8.05302C166.488 -2.94702 198.988 1.05285 234.488 10.053L231.488 13.553C191.488 1.05298 165.488 2.55298 130.988 9.55302Z" fill="#E0426F" stroke="black" stroke-width="0.5"/>
<path d="M130.988 9.55284C182.488 -1.94718 210.988 8.05286 231.488 13.5528" stroke="black" stroke-width="0.5"/>
<path d="M170.49 30.553L173.99 8.55298C207.49 9.55298 218.99 15.053 223.49 16.553L225.973 28.553C198.982 28.5536 181.487 30.0531 170.49 30.553Z" fill="#E0426F"/>
<path d="M226.49 31.053L223.49 16.553C218.99 15.053 207.49 9.55298 173.99 8.55298L170.49 30.553C181.49 30.053 198.99 28.553 225.99 28.553" stroke="black" stroke-width="0.5"/>
<path d="M164.99 8.55298C131.99 9.55298 111.99 18.553 92.9897 36.053L95.4897 34.053L159.49 31.053L164.99 8.55298Z" fill="#E0426F" stroke="black" stroke-width="0.5"/>
<path d="M239.488 23.053C235.822 20.3863 229.988 18.053 223.488 16.553L225.988 28.553H232.488C235.488 27.053 238.488 24.8217 239.488 23.053Z" fill="#E0426F" stroke="black" stroke-width="0.5"/>
<path d="M96.4897 79.053H163.49L197.99 77.553H212.49L212.99 83.053H198.99H97.9897H86.4897V79.053H96.4897Z" fill="#E0426F"/>
<path d="M96.4897 79.053H163.49L197.99 77.553M96.4897 79.053C96.4897 80.553 96.9897 81.553 97.9897 83.053M96.4897 79.053H86.4897V83.053H97.9897M197.99 77.553L198.99 83.053M197.99 77.553H212.49L212.99 83.053H198.99M198.99 83.053H97.9897" stroke="black" stroke-width="0.5"/>
<path d="M96.4889 79.053C91.9897 74.553 88.9898 52.553 92.9889 36.053L164.99 32.053C160.99 37.053 159.99 71.053 163.49 79.053H96.4889Z" fill="#E0426F" stroke="black" stroke-width="0.5"/>
<path d="M228.489 31.053L164.989 32.053C160.989 37.053 159.99 71.053 163.489 79.053L197.989 77.553C202.489 76.053 208.989 70.553 228.489 31.053Z" fill="#E0426F" stroke="black" stroke-width="0.5"/>
<path d="M170.49 30.5531C165.99 31.0531 162.49 31.0531 159.49 31.0531L164.99 8.55305C167.99 8.05298 170.99 8.05298 173.99 8.55305L170.49 30.5531Z" fill="#E0426F" stroke="black" stroke-width="0.5"/>
<path d="M98.9897 32.553C103.49 38.053 110.49 34.553 114.49 33.053C115.49 17.5529 102.49 25.5529 98.9897 32.553Z" fill="#E0426F" stroke="black" stroke-width="0.5"/>
<path d="M234.488 10.053L231.488 13.553C248.488 19.053 258.988 22.053 271.488 28.553H272.988L280.988 27.053C265.988 20.553 258.488 18.053 234.488 10.053Z" stroke="black" stroke-width="0.5"/>
<path d="M271.488 28.553C260.988 23.053 241.988 16.553 231.488 13.553L229.488 16.053L244.488 23.553C242.988 26.053 238.988 28.053 232.988 30.753C244.988 30.053 261.988 29.053 271.488 28.553Z" stroke="black" stroke-width="0.5"/>
<path d="M276.99 34.853L282.988 32.553L272.489 28.553L228.489 31.053C220.989 46.053 205.989 76.553 197.989 77.553H212.489C210.989 66.553 220.489 43.053 245.49 52.053C255.99 46.553 265.99 41.053 276.99 34.853Z" stroke="black" stroke-width="0.5"/>
<path d="M277.988 34.553C265.988 41.053 255.988 46.553 245.488 52.053C249.988 55.053 260.488 61.053 259.488 80.053L284.488 79.553V78.053C292.988 77.053 301.488 80.553 299.988 66.553L301.988 56.553C301.988 55.053 299.488 51.053 296.988 50.553C298.488 48.053 295.488 39.053 295.488 39.053V37.553L291.488 34.553L286.488 33.053L282.988 32.553L277.988 34.553Z" stroke="black" stroke-width="0.5"/>
<path d="M295.488 37.553L295.482 37.4732M295.482 37.4732L294.988 29.053L280.988 27.053L272.488 28.553L282.988 32.553C292.488 33.553 291.487 35.053 295.482 37.4732Z" stroke="black" stroke-width="0.5"/>
<path d="M293.99 37.0532C293.49 34.5531 282.49 34.353 276.99 34.853" stroke="black" stroke-width="0.5"/>
<path d="M299.99 67.053L260.49 69.053C259.99 64.053 257.823 59.8863 255.99 58.053L301.99 55.553M300.49 53.053C289.49 51.553 278.49 46.753 266.49 40.753M228.49 31.053L272.49 28.553L280.99 27.053" stroke="black" stroke-width="0.5"/>
<path d="M272.49 43.553C279.485 43.9028 285.502 44.0079 290.883 44.553M297.49 45.553C295.387 45.1023 293.194 44.7871 290.883 44.553M295.49 38.053C295.072 37.4679 294.603 36.9386 294.099 36.463M290.883 44.553C290.557 44.2082 290.463 43.6852 290.448 43.053M290.448 43.053C290.434 42.4627 290.49 41.7773 290.49 41.053C290.49 39.053 289.49 35.053 285.99 33.053C288.211 33.053 291.587 34.0934 294.099 36.463M290.448 43.053C293.49 41.553 294.562 37.993 294.099 36.463" stroke="black" stroke-width="0.5"/>
<path d="M290.49 41.053C285.99 41.053 283.99 37.053 282.99 34.553" stroke="black" stroke-width="0.5"/>
<path d="M132.488 13.153C118.988 17.153 106.988 23.053 92.9883 36.053C99.9883 24.053 115.488 14.553 130.988 9.55298L132.488 13.153Z" stroke="black" stroke-width="0.5"/>
<path d="M130.988 9.55298C110.988 15.227 92.9883 32.553 84.9883 30.553C97.9883 21.053 113.988 12.553 130.488 8.05298L130.988 9.55298Z" stroke="black" stroke-width="0.5"/>
<path d="M9.98895 48.5529H3.98895C1.48828 52.5529 1.48828 62.5529 1.98895 66.0529C0.488281 67.0529 0.488879 71.5529 1.48895 73.0529L5.48895 73.5529V75.0529L1.48895 77.0529V79.0529C5.48895 80.0529 13.9889 82.0529 21.9889 81.5529V80.0529H39.4889C38.8223 71.5529 40.4889 61.0529 49.4889 54.0529C46.9889 50.0529 39.9889 45.5529 36.9889 45.0529C26.9889 44.0529 11.9889 46.5529 9.98895 48.5529Z" stroke="black" stroke-width="0.5"/>
<path d="M92.9897 36.053C75.1564 36.8863 43.4897 41.753 32.9897 44.753L36.9897 45.053C41.9897 46.553 47.4897 50.8863 49.4897 54.053C62.4888 44.553 87.9888 51.553 86.4888 79.053H96.4888C89.4888 68.053 90.4888 46.053 92.9897 36.053Z" stroke="black" stroke-width="0.5"/>
<path d="M9.98828 48.553H3.98828C36.4885 29.0529 58.4885 35.053 84.4883 30.553L93.4885 36.053C76.4885 37.053 47.4883 40.553 33.4883 44.753C25.4883 44.553 11.4883 46.553 9.98828 48.553Z" stroke="black" stroke-width="0.5"/>
<path d="M36.9897 45.0531C29.4897 44.053 12.4897 46.053 9.98974 48.5531C9.18974 50.953 12.3231 53.8863 13.9897 55.053C23.4897 56.553 36.9897 50.553 36.9897 45.0531Z" stroke="black" stroke-width="0.5"/>
<path d="M3.98898 48.553C10.989 49.553 4.98898 60.053 1.98898 65.053C1.48891 58.053 1.98877 52.553 3.98898 48.553Z" stroke="black" stroke-width="0.5"/>
<path d="M21.9883 84.553V80.053H39.4883L39.9883 84.553H21.9883Z" stroke="black" stroke-width="0.5"/>
<path d="M2.49023 66.0527C3.99023 68.5527 5.99023 71.7194 5.49023 73.5527M21.9902 80.0527C11.4902 80.5527 6.99023 76.5527 7.99023 73.0527C8.49023 72.5527 9.99023 71.0527 10.9902 71.0527" stroke="black" stroke-width="0.5"/>
<path d="M5.99023 66.0529C8.24018 65.5529 11.1151 64.9279 13.865 64.5529M13.865 64.5529C16.6151 64.1779 19.2402 64.0529 20.9902 64.5529C23.9902 66.0529 29.4902 71.0529 31.9902 75.0529C26.9902 76.0529 19.9902 75.5529 15.4902 75.5529C12.7977 75.5529 11.4902 73.2195 11.4902 72.0529C10.9902 69.0529 12.2401 65.8862 13.865 64.5529Z" stroke="black" stroke-width="0.5"/>
<path d="M11.4902 71.5529C19.4902 70.053 22.9902 72.6815 25.9902 74.1815M12.9902 74.553L30.4902 74.053" stroke="black" stroke-width="0.5"/>
<path d="M21.9883 83.0527H31.4883C33.4883 83.0527 34.9883 81.0527 34.4883 80.0527M37.9883 80.0527V84.5527" stroke="black" stroke-width="0.5"/>
<path d="M21.9897 81.5532C17.4897 81.5532 12.9897 82.0532 1.48969 79.0532V77.0532L5.48969 75.0532V73.5532L1.48969 73.0532C0.98877 71.553 -0.0110346 68.553 1.98896 66.053C1.4892 58.053 1.9892 51.553 3.98969 48.5527C36.4897 29.0531 58.4897 35.0532 84.4897 30.5532C162.49 -24.4469 244.49 12.553 281.49 27.0532L294.99 29.053L295.49 36.053V39.053C296.988 44.053 298.323 48.553 296.99 50.553C299.49 51.553 301.99 54.7196 301.99 56.553L299.99 66.553C300.442 77.4009 298.034 77.6252 288.702 77.9376C287.711 77.9708 285.642 78.005 284.49 78.053V79.553L259.49 79.984M21.9897 81.5532V84.5532H39.988L39.4897 80.0532M21.9897 81.5532V80.0532H39.4897M39.4897 80.0532C36.4897 38.5532 89.9897 41.5532 86.4897 80.5532V83.053H212.99C206.99 39.553 261.49 39.553 259.49 79.984M258.988 79.984H259.49" stroke="black"/>
</svg>
