<svg width="303" height="96" viewBox="0 0 303 96" fill="none" xmlns="http://www.w3.org/2000/svg">
<circle cx="62.4473" cy="74.3384" r="20.5" fill="#E0426F" stroke="black"/>
<circle cx="235.447" cy="74.3384" r="20.5" fill="#E0426F" stroke="black"/>
<path d="M132.445 12.8382L130.945 9.33823C170.945 1.33835 192.445 1.83838 231.445 13.3383L227.945 17.8383C207.945 9.83829 189.945 8.83829 173.945 8.33836C171.445 7.83836 167.445 7.83832 164.945 8.33823C154.945 8.33836 142.945 9.83836 132.445 12.8382Z" stroke="black" stroke-width="0.5"/>
<path d="M130.945 9.33842L130.445 7.83842C166.445 -3.16162 198.945 0.838253 234.445 9.83842L231.445 13.3384C191.445 0.838379 165.445 2.33838 130.945 9.33842Z" stroke="black" stroke-width="0.5"/>
<path d="M130.945 9.33837C182.445 -2.16166 210.945 7.83838 231.445 13.3384" stroke="black" stroke-width="0.5"/>
<path d="M226.447 30.8384L223.447 16.3384C218.947 14.8384 207.447 9.33838 173.947 8.33838L170.447 30.3384C181.447 29.8384 198.947 28.3384 225.947 28.3384" stroke="black" stroke-width="0.5"/>
<path d="M164.947 8.33838C131.947 9.33838 111.947 18.3384 92.9473 35.8384L95.4473 33.8384L159.447 30.8384L164.947 8.33838Z" stroke="black" stroke-width="0.5"/>
<path d="M239.445 22.8384C235.779 20.1717 229.945 17.8384 223.445 16.3384L225.945 28.3384H232.445C235.445 26.8384 238.445 24.6071 239.445 22.8384Z" stroke="black" stroke-width="0.5"/>
<path d="M96.4473 78.8384H163.447L197.947 77.3384M96.4473 78.8384C96.4473 80.3384 96.9473 81.3384 97.9473 82.8384M96.4473 78.8384H86.4473V82.8384H97.9473M197.947 77.3384L198.947 82.8384M197.947 77.3384H212.447L212.947 82.8384H198.947M198.947 82.8384H97.9473" stroke="black" stroke-width="0.5"/>
<path d="M96.4464 78.8384C91.9473 74.3384 88.9473 52.3384 92.9464 35.8384L164.947 31.8384C160.947 36.8384 159.947 70.8384 163.447 78.8384H96.4464Z" stroke="black" stroke-width="0.5"/>
<path d="M228.447 30.8384L164.947 31.8384C160.947 36.8384 159.948 70.8384 163.447 78.8384L197.947 77.3384C202.447 75.8384 208.947 70.3384 228.447 30.8384Z" stroke="black" stroke-width="0.5"/>
<path d="M170.447 30.3385C165.947 30.8385 162.447 30.8385 159.447 30.8385L164.947 8.33845C167.947 7.83838 170.947 7.83838 173.947 8.33845L170.447 30.3385Z" stroke="black" stroke-width="0.5"/>
<path d="M98.9473 32.3385C103.447 37.8385 110.447 34.3385 114.447 32.8385C115.447 17.3384 102.447 25.3384 98.9473 32.3385Z" stroke="black" stroke-width="0.5"/>
<path d="M234.445 9.83838L231.445 13.3384C248.445 18.8384 258.945 21.8384 271.445 28.3384H272.945L280.945 26.8384C265.945 20.3384 258.445 17.8384 234.445 9.83838Z" fill="#E0426F" stroke="black" stroke-width="0.5"/>
<path d="M271.445 28.3384C260.945 22.8384 241.945 16.3384 231.445 13.3384L229.445 15.8384L244.445 23.3384C242.945 25.8384 238.945 27.8384 232.945 30.5384C244.945 29.8384 261.945 28.8384 271.445 28.3384Z" fill="#E0426F" stroke="black" stroke-width="0.5"/>
<path d="M276.947 34.6384L282.946 32.3384L272.446 28.3384L228.446 30.8384C220.946 45.8384 205.946 76.3384 197.946 77.3384H212.446C210.946 66.3384 220.446 42.8384 245.447 51.8384C255.947 46.3384 265.947 40.8384 276.947 34.6384Z" fill="#E0426F" stroke="black" stroke-width="0.5"/>
<path d="M277.945 34.3384C265.945 40.8384 255.945 46.3384 245.445 51.8384C249.945 54.8384 260.445 60.8384 259.445 79.8384L284.445 79.3384V77.8384C292.945 76.8384 301.445 80.3384 299.945 66.3384L301.945 56.3384C301.945 54.8384 299.445 50.8384 296.945 50.3384C298.445 47.8384 295.445 38.8384 295.445 38.8384V37.3384L291.445 34.3384L286.445 32.8384L282.945 32.3384L277.945 34.3384Z" fill="#E0426F" stroke="black" stroke-width="0.5"/>
<path d="M280.945 26.8384L272.445 28.3384L282.945 32.3384C292.445 33.3384 291.444 34.8384 295.439 37.2586L294.945 28.8384L280.945 26.8384Z" fill="#E0426F"/>
<path d="M295.445 37.3384L295.439 37.2586M295.439 37.2586L294.945 28.8384L280.945 26.8384L272.445 28.3384L282.945 32.3384C292.445 33.3384 291.444 34.8384 295.439 37.2586Z" stroke="black" stroke-width="0.5"/>
<path d="M293.947 36.8386C293.447 34.3385 282.447 34.1384 276.947 34.6384" stroke="black" stroke-width="0.5"/>
<path d="M299.947 66.8384L260.447 68.8384C259.947 63.8384 257.781 59.6717 255.947 57.8384L301.947 55.3384M300.447 52.8384C289.447 51.3384 278.447 46.5384 266.447 40.5384M228.447 30.8384L272.447 28.3384L280.947 26.8384" stroke="black" stroke-width="0.5"/>
<path d="M290.447 40.8384C290.447 38.8384 289.447 34.8384 285.947 32.8384C288.168 32.8384 291.545 33.8788 294.056 36.2484C294.52 37.7784 293.447 41.3384 290.405 42.8384C290.392 42.2481 290.447 41.5627 290.447 40.8384Z" fill="#E0426F"/>
<path d="M272.447 43.3384C279.443 43.6882 285.46 43.7933 290.84 44.3384M297.447 45.3384C295.344 44.8877 293.151 44.5725 290.84 44.3384M295.447 37.8384C295.029 37.2533 294.56 36.724 294.056 36.2484M290.84 44.3384C290.514 43.9936 290.42 43.4706 290.405 42.8384M290.405 42.8384C290.392 42.2481 290.447 41.5627 290.447 40.8384C290.447 38.8384 289.447 34.8384 285.947 32.8384C288.168 32.8384 291.545 33.8788 294.056 36.2484M290.405 42.8384C293.447 41.3384 294.52 37.7784 294.056 36.2484" stroke="black" stroke-width="0.5"/>
<path d="M290.447 40.8384C285.947 40.8384 283.947 36.8384 282.947 34.3384" stroke="black" stroke-width="0.5"/>
<path d="M132.445 12.9384C118.945 16.9384 106.945 22.8384 92.9453 35.8384C99.9453 23.8384 115.445 14.3384 130.945 9.33838L132.445 12.9384Z" fill="#EFC7D3" stroke="black" stroke-width="0.5"/>
<path d="M130.945 9.33838C110.945 15.0124 92.9453 32.3384 84.9453 30.3384C97.9453 20.8384 113.945 12.3384 130.445 7.83838L130.945 9.33838Z" fill="#EFC7D3" stroke="black" stroke-width="0.5"/>
<path d="M9.94598 48.3384H3.94598C1.44531 52.3384 1.44531 62.3384 1.94598 65.8384C0.445312 66.8384 0.44591 71.3384 1.44598 72.8384L5.44598 73.3384V74.8384L1.44598 76.8384V78.8384C5.44598 79.8384 13.946 81.8384 21.946 81.3384V79.8384H39.446C38.7793 71.3384 40.446 60.8384 49.446 53.8384C46.946 49.8384 39.946 45.3384 36.946 44.8384C26.946 43.8384 11.946 46.3384 9.94598 48.3384Z" fill="#EFC7D3" stroke="black" stroke-width="0.5"/>
<path d="M92.9473 35.8384C75.1139 36.6717 43.4473 41.5384 32.9473 44.5384L36.9473 44.8384C41.9473 46.3384 47.4473 50.6717 49.4473 53.8384C62.4463 44.3384 87.9463 51.3384 86.4463 78.8384H96.4463C89.4463 67.8384 90.4463 45.8384 92.9473 35.8384Z" fill="#EFC7D3" stroke="black" stroke-width="0.5"/>
<path d="M9.94531 48.3384H3.94531C36.4455 28.8383 58.4456 34.8384 84.4453 30.3384L93.4456 35.8384C76.4456 36.8384 47.4453 40.3384 33.4453 44.5384C25.4453 44.3384 11.4453 46.3384 9.94531 48.3384Z" fill="#EFC7D3" stroke="black" stroke-width="0.5"/>
<path d="M36.9468 44.8385C29.4468 43.8384 12.4468 45.8384 9.94677 48.3385C9.14677 50.7384 12.2801 53.6717 13.9468 54.8384C23.4468 56.3384 36.9468 50.3384 36.9468 44.8385Z" fill="#EFC7D3" stroke="black" stroke-width="0.5"/>
<path d="M3.94601 48.3384C10.946 49.3384 4.94601 59.8384 1.94601 64.8384C1.44594 57.8384 1.9458 52.3384 3.94601 48.3384Z" fill="#EFC7D3" stroke="black" stroke-width="0.5"/>
<path d="M21.9453 84.3384V79.8384H39.4453L39.9453 84.3384H21.9453Z" fill="#EFC7D3" stroke="black" stroke-width="0.5"/>
<path d="M2.44727 65.8384C3.94727 68.3384 5.94727 71.505 5.44727 73.3384M21.9473 79.8384C11.4473 80.3384 6.94727 76.3384 7.94727 72.8384C8.44727 72.3384 9.94727 70.8384 10.9473 70.8384" stroke="black" stroke-width="0.5"/>
<path d="M31.9473 74.8384C29.4473 70.8384 23.9473 65.8385 20.9473 64.3385C19.1972 63.8384 16.5721 63.9634 13.8221 64.3385C12.1971 65.6718 10.9473 68.8384 11.4473 71.8384C11.4473 73.005 12.7547 75.3384 15.4473 75.3384C19.9473 75.3384 26.9473 75.8384 31.9473 74.8384Z" fill="#EFC7D3"/>
<path d="M5.94727 65.8385C8.19721 65.3384 11.0721 64.7135 13.8221 64.3385M13.8221 64.3385C16.5721 63.9634 19.1972 63.8384 20.9473 64.3385C23.9473 65.8385 29.4473 70.8384 31.9473 74.8384C26.9473 75.8384 19.9473 75.3384 15.4473 75.3384C12.7547 75.3384 11.4473 73.005 11.4473 71.8384C10.9473 68.8384 12.1971 65.6718 13.8221 64.3385Z" stroke="black" stroke-width="0.5"/>
<path d="M11.4473 71.3385C19.4473 69.8385 22.9473 72.467 25.9473 73.967M12.9473 74.3385L30.4473 73.8385" stroke="black" stroke-width="0.5"/>
<path d="M21.9453 82.8384H31.4453C33.4453 82.8384 34.9453 80.8384 34.4453 79.8384M37.9453 79.8384V84.3384" stroke="black" stroke-width="0.5"/>
<path d="M21.9472 81.3386C17.4472 81.3386 12.9472 81.8386 1.44721 78.8386V76.8386L5.44721 74.8386V73.3386L1.44721 72.8386C0.946289 71.3384 -0.0535151 68.3384 1.94648 65.8384C1.44672 57.8384 1.94672 51.3384 3.94721 48.3381C36.4472 28.8385 58.4472 34.8386 84.4472 30.3386C162.447 -24.6615 244.447 12.3384 281.447 26.8386L294.947 28.8384L295.447 35.8384V38.8384C296.946 43.8384 298.281 48.3384 296.947 50.3384C299.447 51.3384 301.947 54.505 301.947 56.3384L299.947 66.3384C300.399 77.1863 297.991 77.4106 288.66 77.723C287.668 77.7562 285.599 77.7904 284.447 77.8384V79.3384L259.447 79.7694M21.9472 81.3386V84.3386H39.9456L39.4472 79.8386M21.9472 81.3386V79.8386H39.4472M39.4472 79.8386C36.4472 38.3386 89.9472 41.3386 86.4472 80.3386V82.8384H212.947C206.947 39.3384 261.447 39.3384 259.447 79.7694M258.946 79.7694H259.447" stroke="black"/>
</svg>
