<svg width="304" height="95" viewBox="0 0 304 95" fill="none" xmlns="http://www.w3.org/2000/svg">
<circle cx="63.0938" cy="73.8914" r="20.5" fill="#EDADBF" stroke="black"/>
<circle cx="236.094" cy="73.8914" r="20.5" fill="#EDADBF" stroke="black"/>
<path d="M133.092 12.3912L131.592 8.89121C171.592 0.891325 193.092 1.39136 232.092 12.8913L228.592 17.3913C208.592 9.39127 190.592 8.39127 174.592 7.89133C172.092 7.39133 168.092 7.3913 165.592 7.89121C155.592 7.89133 143.592 9.39134 133.092 12.3912Z" fill="#E0426F" stroke="black" stroke-width="0.5"/>
<path d="M131.592 8.8914L131.092 7.3914C167.092 -3.60864 199.592 0.391232 235.092 9.3914L232.092 12.8914C192.092 0.391357 166.092 1.89136 131.592 8.8914Z" fill="#E0426F" stroke="black" stroke-width="0.5"/>
<path d="M131.592 8.89122C183.092 -2.6088 211.592 7.39124 232.092 12.8912" stroke="black" stroke-width="0.5"/>
<path d="M171.094 29.8914L174.594 7.89136C208.094 8.89136 219.594 14.3914 224.094 15.8914L226.577 27.8914C199.586 27.892 182.091 29.3915 171.094 29.8914Z" fill="#E0426F"/>
<path d="M227.094 30.3914L224.094 15.8914C219.594 14.3914 208.094 8.89136 174.594 7.89136L171.094 29.8914C182.094 29.3914 199.594 27.8914 226.594 27.8914" stroke="black" stroke-width="0.5"/>
<path d="M165.594 7.89136C132.594 8.89136 112.594 17.8914 93.5938 35.3914L96.0938 33.3914L160.094 30.3914L165.594 7.89136Z" fill="#E0426F" stroke="black" stroke-width="0.5"/>
<path d="M240.092 22.3914C236.425 19.7247 230.592 17.3914 224.092 15.8914L226.592 27.8914H233.092C236.092 26.3914 239.092 24.1601 240.092 22.3914Z" fill="#E0426F" stroke="black" stroke-width="0.5"/>
<path d="M97.0938 78.3914H164.094L198.594 76.8914H213.094L213.594 82.3914H199.594H98.5938H87.0938V78.3914H97.0938Z" fill="#E0426F"/>
<path d="M97.0938 78.3914H164.094L198.594 76.8914M97.0938 78.3914C97.0938 79.8914 97.5938 80.8914 98.5938 82.3914M97.0938 78.3914H87.0938V82.3914H98.5938M198.594 76.8914L199.594 82.3914M198.594 76.8914H213.094L213.594 82.3914H199.594M199.594 82.3914H98.5938" stroke="black" stroke-width="0.5"/>
<path d="M97.0929 78.3914C92.5937 73.8914 89.5938 51.8914 93.5929 35.3914L165.594 31.3914C161.594 36.3914 160.594 70.3914 164.094 78.3914H97.0929Z" fill="#E0426F" stroke="black" stroke-width="0.5"/>
<path d="M229.094 30.3914L165.594 31.3914C161.594 36.3914 160.594 70.3914 164.094 78.3914L198.594 76.8914C203.094 75.3914 209.594 69.8914 229.094 30.3914Z" fill="#E0426F" stroke="black" stroke-width="0.5"/>
<path d="M171.094 29.8914C166.594 30.3914 163.094 30.3914 160.094 30.3914L165.594 7.89143C168.594 7.39136 171.594 7.39136 174.594 7.89143L171.094 29.8914Z" fill="#E0426F" stroke="black" stroke-width="0.5"/>
<path d="M99.5938 31.8914C104.094 37.3914 111.094 33.8914 115.094 32.3914C116.094 16.8913 103.094 24.8912 99.5938 31.8914Z" fill="#E0426F" stroke="black" stroke-width="0.5"/>
<path d="M235.092 9.39136L232.092 12.8914C249.092 18.3914 259.592 21.3914 272.092 27.8914H273.592L281.592 26.3914C266.592 19.8914 259.092 17.3914 235.092 9.39136Z" stroke="black" stroke-width="0.5"/>
<path d="M272.092 27.8914C261.592 22.3914 242.592 15.8914 232.092 12.8914L230.092 15.3914L245.092 22.8914C243.592 25.3914 239.592 27.3914 233.592 30.0914C245.592 29.3914 262.592 28.3914 272.092 27.8914Z" stroke="black" stroke-width="0.5"/>
<path d="M277.594 34.1914L283.592 31.8914L273.093 27.8914L229.093 30.3914C221.593 45.3914 206.593 75.8914 198.593 76.8914H213.093C211.593 65.8914 221.093 42.3914 246.094 51.3914C256.594 45.8914 266.594 40.3914 277.594 34.1914Z" stroke="black" stroke-width="0.5"/>
<path d="M278.592 33.8914C266.592 40.3914 256.592 45.8914 246.092 51.3914C250.592 54.3914 261.092 60.3914 260.092 79.3914L285.092 78.8914V77.3914C293.592 76.3914 302.092 79.8914 300.592 65.8914L302.592 55.8914C302.592 54.3914 300.092 50.3914 297.592 49.8914C299.092 47.3914 296.092 38.3914 296.092 38.3914V36.8914L292.092 33.8914L287.092 32.3914L283.592 31.8914L278.592 33.8914Z" stroke="black" stroke-width="0.5"/>
<path d="M296.092 36.8914L296.086 36.8115M296.086 36.8115L295.592 28.3914L281.592 26.3914L273.092 27.8914L283.592 31.8914C293.092 32.8914 292.091 34.3914 296.086 36.8115Z" stroke="black" stroke-width="0.5"/>
<path d="M294.594 36.3916C294.094 33.8914 283.094 33.6914 277.594 34.1914" stroke="black" stroke-width="0.5"/>
<path d="M300.594 66.3914L261.094 68.3914C260.594 63.3914 258.427 59.2247 256.594 57.3914L302.594 54.8914M301.094 52.3914C290.094 50.8914 279.094 46.0914 267.094 40.0914M229.094 30.3914L273.094 27.8914L281.594 26.3914" stroke="black" stroke-width="0.5"/>
<path d="M273.094 42.8914C280.089 43.2411 286.106 43.3462 291.487 43.8914M298.094 44.8914C295.991 44.4407 293.798 44.1255 291.487 43.8914M296.094 37.3914C295.676 36.8062 295.207 36.277 294.703 35.8013M291.487 43.8914C291.161 43.5466 291.067 43.0235 291.052 42.3914M291.052 42.3914C291.038 41.8011 291.094 41.1156 291.094 40.3914C291.094 38.3914 290.094 34.3914 286.594 32.3914C288.815 32.3914 292.191 33.4317 294.703 35.8013M291.052 42.3914C294.094 40.8914 295.166 37.3313 294.703 35.8013" stroke="black" stroke-width="0.5"/>
<path d="M291.094 40.3914C286.594 40.3914 284.594 36.3914 283.594 33.8914" stroke="black" stroke-width="0.5"/>
<path d="M133.092 12.4913C119.592 16.4913 107.592 22.3914 93.5923 35.3914C100.592 23.3914 116.092 13.8914 131.592 8.89136L133.092 12.4913Z" fill="#EDADBF" stroke="black" stroke-width="0.5"/>
<path d="M131.592 8.89136C111.592 14.5654 93.5923 31.8914 85.5923 29.8914C98.5923 20.3914 114.592 11.8914 131.092 7.39136L131.592 8.89136Z" fill="#EDADBF" stroke="black" stroke-width="0.5"/>
<path d="M10.593 47.8912H4.59295C2.09229 51.8912 2.09229 61.8912 2.59295 65.3912C1.09229 66.3912 1.09288 70.8912 2.09295 72.3912L6.09295 72.8912V74.3912L2.09295 76.3912V78.3912C6.09295 79.3912 14.593 81.3912 22.593 80.8912V79.3912H40.0929C39.4263 70.8912 41.0929 60.3912 50.0929 53.3912C47.5929 49.3912 40.5929 44.8912 37.5929 44.3912C27.5929 43.3912 12.593 45.8912 10.593 47.8912Z" fill="#EDADBF" stroke="black" stroke-width="0.5"/>
<path d="M93.5938 35.3914C75.7604 36.2247 44.0938 41.0914 33.5938 44.0914L37.5938 44.3914C42.5938 45.8914 48.0938 50.2247 50.0938 53.3914C63.0928 43.8914 88.5928 50.8914 87.0928 78.3914H97.0928C90.0928 67.3914 91.0928 45.3914 93.5938 35.3914Z" fill="#EDADBF" stroke="black" stroke-width="0.5"/>
<path d="M10.5918 47.8914H4.5918C37.092 28.3913 59.092 34.3914 85.0918 29.8914L94.092 35.3914C77.092 36.3914 48.0918 39.8914 34.0918 44.0914C26.0918 43.8913 12.0918 45.8914 10.5918 47.8914Z" fill="#EDADBF" stroke="black" stroke-width="0.5"/>
<path d="M37.5937 44.3914C30.0937 43.3914 13.0937 45.3914 10.5937 47.8914C9.79374 50.2914 12.9271 53.2247 14.5937 54.3914C24.0938 55.8914 37.5937 49.8914 37.5937 44.3914Z" fill="#EDADBF" stroke="black" stroke-width="0.5"/>
<path d="M4.59298 47.8914C11.593 48.8914 5.59298 59.3914 2.59298 64.3914C2.09291 57.3914 2.59277 51.8914 4.59298 47.8914Z" fill="#EDADBF" stroke="black" stroke-width="0.5"/>
<path d="M22.5923 83.8914V79.3914H40.0923L40.5923 83.8914H22.5923Z" fill="#EDADBF" stroke="black" stroke-width="0.5"/>
<path d="M3.09375 65.3911C4.59375 67.8911 6.59375 71.0578 6.09375 72.8911M22.5938 79.3911C12.0938 79.8911 7.59375 75.8911 8.59375 72.3911C9.09375 71.8911 10.5938 70.3911 11.5938 70.3911" stroke="black" stroke-width="0.5"/>
<path d="M32.5938 74.3912C30.0938 70.3912 24.5938 65.3913 21.5938 63.8913C19.8437 63.3913 17.2186 63.5163 14.4685 63.8913C12.8436 65.2246 11.5938 68.3912 12.0938 71.3912C12.0938 72.5579 13.4012 74.8912 16.0938 74.8912C20.5938 74.8912 27.5938 75.3912 32.5938 74.3912Z" fill="#EDADBF"/>
<path d="M6.59375 65.3913C8.84369 64.8913 11.7186 64.2663 14.4685 63.8913M14.4685 63.8913C17.2186 63.5163 19.8437 63.3913 21.5938 63.8913C24.5938 65.3913 30.0938 70.3912 32.5938 74.3912C27.5938 75.3912 20.5938 74.8912 16.0938 74.8912C13.4012 74.8912 12.0938 72.5579 12.0938 71.3912C11.5938 68.3912 12.8436 65.2246 14.4685 63.8913Z" stroke="black" stroke-width="0.5"/>
<path d="M12.0938 70.8913C20.0938 69.3914 23.5938 72.0198 26.5938 73.5198M13.5938 73.8914L31.0938 73.3914" stroke="black" stroke-width="0.5"/>
<path d="M22.5918 82.3911H32.0918C34.0918 82.3911 35.5918 80.3911 35.0918 79.3911M38.5918 79.3911V83.8911" stroke="black" stroke-width="0.5"/>
<path d="M22.5937 80.8916C18.0937 80.8916 13.5937 81.3916 2.0937 78.3916V76.3916L6.0937 74.3916V72.8916L2.0937 72.3916C1.59277 70.8914 0.592969 67.8914 2.59296 65.3914C2.09321 57.3914 2.59321 50.8914 4.5937 47.8911C37.0937 28.3915 59.0937 34.3915 85.0937 29.8915C163.094 -25.1086 245.094 11.8913 282.094 26.3915L295.594 28.3914L296.094 35.3914V38.3914C297.592 43.3914 298.927 47.8914 297.594 49.8914C300.094 50.8914 302.594 54.058 302.594 55.8914L300.594 65.8914C301.046 76.7393 298.638 76.9635 289.306 77.276C288.315 77.3092 286.246 77.3434 285.094 77.3914V78.8914L260.094 79.3224M22.5937 80.8916V83.8916H40.592L40.0937 79.3916M22.5937 80.8916V79.3916H40.0937M40.0937 79.3916C37.0937 37.8916 90.5937 40.8916 87.0937 79.8916V82.3914H213.594C207.594 38.8914 262.094 38.8914 260.094 79.3224M259.592 79.3224H260.094" stroke="black"/>
</svg>
