<svg width="303" height="96" viewBox="0 0 303 96" fill="none" xmlns="http://www.w3.org/2000/svg">
<circle cx="62.8545" cy="74.0303" r="20.5" fill="#EFC7D3" stroke="black"/>
<circle cx="235.854" cy="74.0303" r="20.5" fill="#EFC7D3" stroke="black"/>
<path d="M132.853 12.5301L131.353 9.03013C171.353 1.03024 192.853 1.53027 231.853 13.0302L228.353 17.5302C208.353 9.53018 190.353 8.53018 174.353 8.03025C171.853 7.53025 167.853 7.53021 165.353 8.03013C155.353 8.03025 143.353 9.53025 132.853 12.5301Z" fill="#EDADBF" stroke="black" stroke-width="0.5"/>
<path d="M131.353 9.03032L130.853 7.53032C166.853 -3.46973 199.353 0.530148 234.853 9.53032L231.853 13.0303C191.853 0.530273 165.853 2.03027 131.353 9.03032Z" fill="#EDADBF" stroke="black" stroke-width="0.5"/>
<path d="M131.353 9.03038C182.853 -2.46964 211.353 7.5304 231.853 13.0304" stroke="black" stroke-width="0.5"/>
<path d="M170.854 30.0303L174.354 8.03027C207.854 9.03027 219.354 14.5303 223.854 16.0303L226.337 28.0303C199.347 28.0309 181.852 29.5304 170.854 30.0303Z" fill="#EDADBF"/>
<path d="M226.854 30.5303L223.854 16.0303C219.354 14.5303 207.854 9.03027 174.354 8.03027L170.854 30.0303C181.854 29.5303 199.354 28.0303 226.354 28.0303" stroke="black" stroke-width="0.5"/>
<path d="M165.354 8.03027C132.354 9.03027 112.354 18.0303 93.3545 35.5303L95.8545 33.5303L159.854 30.5303L165.354 8.03027Z" fill="#EDADBF" stroke="black" stroke-width="0.5"/>
<path d="M239.853 22.5303C236.186 19.8636 230.353 17.5303 223.853 16.0303L226.353 28.0303H232.853C235.853 26.5303 238.853 24.299 239.853 22.5303Z" fill="#EDADBF" stroke="black" stroke-width="0.5"/>
<path d="M96.8545 78.5303H163.854L198.354 77.0303H212.854L213.354 82.5303H199.354H98.3545H86.8545V78.5303H96.8545Z" fill="#EDADBF"/>
<path d="M96.8545 78.5303H163.854L198.354 77.0303M96.8545 78.5303C96.8545 80.0303 97.3545 81.0303 98.3545 82.5303M96.8545 78.5303H86.8545V82.5303H98.3545M198.354 77.0303L199.354 82.5303M198.354 77.0303H212.854L213.354 82.5303H199.354M199.354 82.5303H98.3545" stroke="black" stroke-width="0.5"/>
<path d="M96.8536 78.5303C92.3545 74.0303 89.3545 52.0303 93.3536 35.5303L165.354 31.5303C161.354 36.5303 160.354 70.5303 163.854 78.5303H96.8536Z" fill="#EDADBF" stroke="black" stroke-width="0.5"/>
<path d="M228.854 30.5303L165.354 31.5303C161.355 36.5303 160.355 70.5303 163.854 78.5303L198.354 77.0303C202.854 75.5303 209.354 70.0303 228.854 30.5303Z" fill="#EDADBF" stroke="black" stroke-width="0.5"/>
<path d="M170.854 30.0303C166.354 30.5303 162.854 30.5303 159.854 30.5303L165.354 8.03035C168.354 7.53027 171.354 7.53027 174.354 8.03035L170.854 30.0303Z" fill="#EDADBF" stroke="black" stroke-width="0.5"/>
<path d="M99.3545 32.0305C103.854 37.5305 110.854 34.0305 114.854 32.5305C115.854 17.0304 102.854 25.0304 99.3545 32.0305Z" fill="#EDADBF" stroke="black" stroke-width="0.5"/>
<path d="M234.853 9.53027L231.853 13.0303C248.853 18.5303 259.353 21.5303 271.853 28.0303H273.353L281.353 26.5303C266.353 20.0303 258.853 17.5303 234.853 9.53027Z" fill="#E0426F" stroke="black" stroke-width="0.5"/>
<path d="M271.853 28.0303C261.353 22.5303 242.353 16.0303 231.853 13.0303L229.853 15.5303L244.853 23.0303C243.353 25.5303 239.353 27.5303 233.353 30.2303C245.353 29.5303 262.353 28.5303 271.853 28.0303Z" fill="#E0426F" stroke="black" stroke-width="0.5"/>
<path d="M277.354 34.3303L283.353 32.0303L272.854 28.0303L228.854 30.5303C221.354 45.5303 206.354 76.0303 198.354 77.0303H212.854C211.354 66.0303 220.854 42.5303 245.854 51.5303C256.354 46.0303 266.354 40.5303 277.354 34.3303Z" fill="#E0426F" stroke="black" stroke-width="0.5"/>
<path d="M278.353 34.0303C266.353 40.5303 256.353 46.0303 245.853 51.5303C250.353 54.5303 260.853 60.5303 259.853 79.5303L284.853 79.0303V77.5303C293.353 76.5303 301.853 80.0303 300.353 66.0303L302.353 56.0303C302.353 54.5303 299.853 50.5303 297.353 50.0303C298.853 47.5303 295.853 38.5303 295.853 38.5303V37.0303L291.853 34.0303L286.853 32.5303L283.353 32.0303L278.353 34.0303Z" fill="#E0426F" stroke="black" stroke-width="0.5"/>
<path d="M281.353 26.5303L272.853 28.0303L283.353 32.0303C292.853 33.0303 291.851 34.5303 295.847 36.9505L295.353 28.5303L281.353 26.5303Z" fill="#E0426F"/>
<path d="M295.853 37.0303L295.847 36.9505M295.847 36.9505L295.353 28.5303L281.353 26.5303L272.853 28.0303L283.353 32.0303C292.853 33.0303 291.851 34.5303 295.847 36.9505Z" stroke="black" stroke-width="0.5"/>
<path d="M294.354 36.5305C293.854 34.0304 282.854 33.8303 277.354 34.3303" stroke="black" stroke-width="0.5"/>
<path d="M300.354 66.5303L260.854 68.5303C260.354 63.5303 258.188 59.3636 256.354 57.5303L302.354 55.0303M300.854 52.5303C289.854 51.0303 278.854 46.2303 266.854 40.2303M228.854 30.5303L272.854 28.0303L281.354 26.5303" stroke="black" stroke-width="0.5"/>
<path d="M290.854 40.5303C290.854 38.5303 289.854 34.5303 286.354 32.5303C288.575 32.5303 291.952 33.5707 294.463 35.9403C294.927 37.4703 293.854 41.0303 290.813 42.5303C290.799 41.94 290.854 41.2546 290.854 40.5303Z" fill="#E0426F"/>
<path d="M272.854 43.0303C279.85 43.3801 285.867 43.4851 291.248 44.0303M297.854 45.0303C295.751 44.5796 293.558 44.2644 291.248 44.0303M295.854 37.5303C295.437 36.9451 294.967 36.4159 294.463 35.9403M291.248 44.0303C290.921 43.6855 290.827 43.1625 290.813 42.5303M290.813 42.5303C290.799 41.94 290.854 41.2546 290.854 40.5303C290.854 38.5303 289.854 34.5303 286.354 32.5303C288.575 32.5303 291.952 33.5707 294.463 35.9403M290.813 42.5303C293.854 41.0303 294.927 37.4703 294.463 35.9403" stroke="black" stroke-width="0.5"/>
<path d="M290.854 40.5303C286.354 40.5303 284.354 36.5303 283.354 34.0303" stroke="black" stroke-width="0.5"/>
<path d="M132.853 12.6302C119.353 16.6302 107.353 22.5303 93.3525 35.5303C100.353 23.5303 115.853 14.0303 131.353 9.03027L132.853 12.6302Z" fill="#EFC7D3" stroke="black" stroke-width="0.5"/>
<path d="M131.353 9.03027C111.353 14.7043 93.3525 32.0303 85.3525 30.0303C98.3525 20.5303 114.353 12.0303 130.853 7.53027L131.353 9.03027Z" fill="#EFC7D3" stroke="black" stroke-width="0.5"/>
<path d="M10.3532 48.0302H4.35321C1.85254 52.0302 1.85254 62.0302 2.35321 65.5302C0.852539 66.5302 0.853137 71.0302 1.85321 72.5302L5.85321 73.0302V74.5302L1.85321 76.5302V78.5302C5.85321 79.5302 14.3532 81.5302 22.3532 81.0302V79.5302H39.8532C39.1865 71.0302 40.8532 60.5302 49.8532 53.5302C47.3532 49.5302 40.3532 45.0302 37.3532 44.5302C27.3532 43.5302 12.3532 46.0302 10.3532 48.0302Z" fill="#EFC7D3" stroke="black" stroke-width="0.5"/>
<path d="M93.3545 35.5303C75.5212 36.3636 43.8545 41.2303 33.3545 44.2303L37.3545 44.5303C42.3545 46.0303 47.8545 50.3636 49.8545 53.5303C62.8535 44.0303 88.3535 51.0303 86.8535 78.5303H96.8535C89.8535 67.5303 90.8535 45.5303 93.3545 35.5303Z" fill="#EFC7D3" stroke="black" stroke-width="0.5"/>
<path d="M10.3525 48.0303H4.35254C36.8527 28.5302 58.8528 34.5303 84.8525 30.0303L93.8528 35.5303C76.8528 36.5303 47.8525 40.0303 33.8525 44.2303C25.8525 44.0303 11.8525 46.0303 10.3525 48.0303Z" fill="#EFC7D3" stroke="black" stroke-width="0.5"/>
<path d="M37.354 44.5303C29.854 43.5303 12.854 45.5303 10.354 48.0303C9.55399 50.4303 12.6873 53.3636 14.354 54.5303C23.854 56.0303 37.354 50.0303 37.354 44.5303Z" fill="#EFC7D3" stroke="black" stroke-width="0.5"/>
<path d="M4.35323 48.0303C11.3532 49.0303 5.35323 59.5303 2.35323 64.5303C1.85316 57.5303 2.35303 52.0303 4.35323 48.0303Z" fill="#EFC7D3" stroke="black" stroke-width="0.5"/>
<path d="M22.3525 84.0303V79.5303H39.8525L40.3525 84.0303H22.3525Z" fill="#EFC7D3" stroke="black" stroke-width="0.5"/>
<path d="M2.85449 65.5303C4.35449 68.0303 6.35449 71.1969 5.85449 73.0303M22.3545 79.5303C11.8545 80.0303 7.35449 76.0303 8.35449 72.5303C8.85449 72.0303 10.3545 70.5303 11.3545 70.5303" stroke="black" stroke-width="0.5"/>
<path d="M32.3545 74.5304C29.8545 70.5304 24.3545 65.5305 21.3545 64.0305C19.6044 63.5305 16.9794 63.6555 14.2293 64.0305C12.6044 65.3638 11.3545 68.5304 11.8545 71.5304C11.8545 72.6971 13.1619 75.0304 15.8545 75.0304C20.3545 75.0304 27.3545 75.5304 32.3545 74.5304Z" fill="#EFC7D3"/>
<path d="M6.35449 65.5305C8.60443 65.0304 11.4793 64.4055 14.2293 64.0305M14.2293 64.0305C16.9794 63.6555 19.6044 63.5305 21.3545 64.0305C24.3545 65.5305 29.8545 70.5304 32.3545 74.5304C27.3545 75.5304 20.3545 75.0304 15.8545 75.0304C13.1619 75.0304 11.8545 72.6971 11.8545 71.5304C11.3545 68.5304 12.6043 65.3638 14.2293 64.0305Z" stroke="black" stroke-width="0.5"/>
<path d="M11.8545 71.0305C19.8545 69.5305 23.3545 72.159 26.3545 73.659M13.3545 74.0305L30.8545 73.5305" stroke="black" stroke-width="0.5"/>
<path d="M22.3525 82.5303H31.8525C33.8525 82.5303 35.3525 80.5303 34.8525 79.5303M38.3525 79.5303V84.0303" stroke="black" stroke-width="0.5"/>
<path d="M22.3544 81.0305C17.8544 81.0305 13.3544 81.5305 1.85444 78.5305V76.5305L5.85444 74.5305V73.0305L1.85444 72.5305C1.35352 71.0303 0.353711 68.0303 2.35371 65.5303C1.85395 57.5303 2.35395 51.0303 4.35444 48.03C36.8544 28.5304 58.8544 34.5305 84.8544 30.0305C162.854 -24.9697 244.854 12.0303 281.854 26.5305L295.354 28.5303L295.854 35.5303V38.5303C297.353 43.5303 298.688 48.0303 297.354 50.0303C299.854 51.0303 302.354 54.1969 302.354 56.0303L300.354 66.0303C300.806 76.8782 298.398 77.1025 289.067 77.4149C288.076 77.4481 286.007 77.4823 284.854 77.5303V79.0303L259.854 79.4613M22.3544 81.0305V84.0305H40.3528L39.8544 79.5305M22.3544 81.0305V79.5305H39.8544M39.8544 79.5305C36.8544 38.0305 90.3544 41.0305 86.8544 80.0305V82.5303H213.354C207.354 39.0303 261.854 39.0303 259.854 79.4613M259.353 79.4613H259.854" stroke="black"/>
</svg>
