<svg width="303" height="95" viewBox="0 0 303 95" fill="none" xmlns="http://www.w3.org/2000/svg">
<circle cx="62.2725" cy="73.6768" r="20.5" fill="#E56E90" stroke="black"/>
<circle cx="235.272" cy="73.6768" r="20.5" fill="#E56E90" stroke="black"/>
<path d="M132.271 12.1766L130.771 8.67661C170.771 0.676725 192.271 1.17676 231.271 12.6767L227.771 17.1767C207.771 9.17667 189.771 8.17667 173.771 7.67673C171.271 7.17673 167.271 7.1767 164.771 7.67661C154.771 7.67673 142.771 9.17674 132.271 12.1766Z" stroke="black" stroke-width="0.5"/>
<path d="M130.771 8.6768L130.271 7.1768C166.271 -3.82324 198.771 0.176632 234.271 9.1768L231.271 12.6768C191.271 0.176758 165.271 1.67676 130.771 8.6768Z" stroke="black" stroke-width="0.5"/>
<path d="M130.771 8.67675C182.271 -2.82328 210.771 7.17676 231.271 12.6767" stroke="black" stroke-width="0.5"/>
<path d="M226.272 30.1768L223.272 15.6768C218.772 14.1768 207.272 8.67676 173.772 7.67676L170.272 29.6768C181.272 29.1768 198.772 27.6768 225.772 27.6768" stroke="black" stroke-width="0.5"/>
<path d="M164.772 7.67676C131.772 8.67676 111.772 17.6768 92.7725 35.1768L95.2725 33.1768L159.272 30.1768L164.772 7.67676Z" stroke="black" stroke-width="0.5"/>
<path d="M239.271 22.1768C235.604 19.5101 229.771 17.1768 223.271 15.6768L225.771 27.6768H232.271C235.271 26.1768 238.271 23.9455 239.271 22.1768Z" stroke="black" stroke-width="0.5"/>
<path d="M96.2725 78.1768H163.272L197.772 76.6768M96.2725 78.1768C96.2725 79.6768 96.7725 80.6768 97.7725 82.1768M96.2725 78.1768H86.2725V82.1768H97.7725M197.772 76.6768L198.772 82.1768M197.772 76.6768H212.272L212.772 82.1768H198.772M198.772 82.1768H97.7725" stroke="black" stroke-width="0.5"/>
<path d="M96.2716 78.1768C91.7725 73.6768 88.7725 51.6768 92.7716 35.1768L164.772 31.1768C160.772 36.1768 159.772 70.1768 163.272 78.1768H96.2716Z" stroke="black" stroke-width="0.5"/>
<path d="M228.272 30.1768L164.772 31.1768C160.773 36.1768 159.773 70.1768 163.272 78.1768L197.772 76.6768C202.272 75.1768 208.772 69.6768 228.272 30.1768Z" stroke="black" stroke-width="0.5"/>
<path d="M170.272 29.6768C165.772 30.1768 162.272 30.1768 159.272 30.1768L164.772 7.67683C167.772 7.17676 170.772 7.17676 173.772 7.67683L170.272 29.6768Z" stroke="black" stroke-width="0.5"/>
<path d="M98.7725 31.6769C103.272 37.1769 110.272 33.6769 114.272 32.1769C115.272 16.6768 102.272 24.6768 98.7725 31.6769Z" stroke="black" stroke-width="0.5"/>
<path d="M234.271 9.17676L231.271 12.6768C248.271 18.1768 258.771 21.1768 271.271 27.6768H272.771L280.771 26.1768C265.771 19.6768 258.271 17.1768 234.271 9.17676Z" fill="#EDADBF" stroke="black" stroke-width="0.5"/>
<path d="M271.271 27.6768C260.771 22.1768 241.771 15.6768 231.271 12.6768L229.271 15.1768L244.271 22.6768C242.771 25.1768 238.771 27.1768 232.771 29.8768C244.771 29.1768 261.771 28.1768 271.271 27.6768Z" fill="#EDADBF" stroke="black" stroke-width="0.5"/>
<path d="M276.772 33.9768L282.771 31.6768L272.271 27.6768L228.271 30.1768C220.771 45.1768 205.771 75.6768 197.771 76.6768H212.271C210.771 65.6768 220.271 42.1768 245.272 51.1768C255.772 45.6768 265.772 40.1768 276.772 33.9768Z" fill="#EDADBF" stroke="black" stroke-width="0.5"/>
<path d="M277.771 33.6768C265.771 40.1768 255.771 45.6768 245.271 51.1768C249.771 54.1768 260.271 60.1768 259.271 79.1768L284.271 78.6768V77.1768C292.771 76.1768 301.271 79.6768 299.771 65.6768L301.771 55.6768C301.771 54.1768 299.271 50.1768 296.771 49.6768C298.271 47.1768 295.271 38.1768 295.271 38.1768V36.6768L291.271 33.6768L286.271 32.1768L282.771 31.6768L277.771 33.6768Z" fill="#EDADBF" stroke="black" stroke-width="0.5"/>
<path d="M280.771 26.1768L272.271 27.6768L282.771 31.6768C292.271 32.6768 291.269 34.1768 295.265 36.5969L294.771 28.1768L280.771 26.1768Z" fill="#EDADBF"/>
<path d="M295.271 36.6768L295.265 36.5969M295.265 36.5969L294.771 28.1768L280.771 26.1768L272.271 27.6768L282.771 31.6768C292.271 32.6768 291.269 34.1768 295.265 36.5969Z" stroke="black" stroke-width="0.5"/>
<path d="M293.772 36.177C293.272 33.6768 282.272 33.4768 276.772 33.9768" stroke="black" stroke-width="0.5"/>
<path d="M299.772 66.1768L260.272 68.1768C259.772 63.1768 257.606 59.0101 255.772 57.1768L301.772 54.6768M300.272 52.1768C289.272 50.6768 278.272 45.8768 266.272 39.8768M228.272 30.1768L272.272 27.6768L280.772 26.1768" stroke="black" stroke-width="0.5"/>
<path d="M290.272 40.1768C290.272 38.1768 289.272 34.1768 285.772 32.1768C287.993 32.1768 291.37 33.2171 293.881 35.5867C294.345 37.1167 293.272 40.6768 290.231 42.1768C290.217 41.5865 290.272 40.901 290.272 40.1768Z" fill="#EDADBF"/>
<path d="M272.272 42.6768C279.268 43.0265 285.285 43.1316 290.666 43.6768M297.272 44.6768C295.169 44.2261 292.976 43.9109 290.666 43.6768M295.272 37.1768C294.855 36.5916 294.385 36.0624 293.881 35.5867M290.666 43.6768C290.339 43.332 290.245 42.8089 290.231 42.1768M290.231 42.1768C290.217 41.5865 290.272 40.901 290.272 40.1768C290.272 38.1768 289.272 34.1768 285.772 32.1768C287.993 32.1768 291.37 33.2171 293.881 35.5867M290.231 42.1768C293.272 40.6768 294.345 37.1167 293.881 35.5867" stroke="black" stroke-width="0.5"/>
<path d="M290.272 40.1768C285.772 40.1768 283.772 36.1768 282.772 33.6768" stroke="black" stroke-width="0.5"/>
<path d="M132.271 12.2767C118.771 16.2767 106.771 22.1768 92.7705 35.1768C99.7705 23.1768 115.271 13.6768 130.771 8.67676L132.271 12.2767Z" fill="#E56E90" stroke="black" stroke-width="0.5"/>
<path d="M130.771 8.67676C110.771 14.3508 92.7705 31.6768 84.7705 29.6768C97.7705 20.1768 113.771 11.6768 130.271 7.17676L130.771 8.67676Z" fill="#E56E90" stroke="black" stroke-width="0.5"/>
<path d="M9.77118 47.6768H3.77118C1.27051 51.6768 1.27051 61.6768 1.77118 65.1768C0.270508 66.1768 0.271105 70.6768 1.27118 72.1768L5.27118 72.6768V74.1768L1.27118 76.1768V78.1768C5.27118 79.1768 13.7712 81.1768 21.7712 80.6768V79.1768H39.2712C38.6045 70.6768 40.2712 60.1768 49.2712 53.1768C46.7712 49.1768 39.7712 44.6768 36.7712 44.1768C26.7712 43.1768 11.7712 45.6768 9.77118 47.6768Z" fill="#E56E90" stroke="black" stroke-width="0.5"/>
<path d="M92.7725 35.1768C74.9391 36.0101 43.2725 40.8768 32.7725 43.8768L36.7725 44.1768C41.7725 45.6768 47.2725 50.0101 49.2725 53.1768C62.2715 43.6768 87.7715 50.6768 86.2715 78.1768H96.2715C89.2715 67.1768 90.2715 45.1768 92.7725 35.1768Z" fill="#E56E90" stroke="black" stroke-width="0.5"/>
<path d="M9.77051 47.6768H3.77051C36.2707 28.1767 58.2708 34.1768 84.2705 29.6768L93.2708 35.1768C76.2708 36.1768 47.2705 39.6768 33.2705 43.8768C25.2705 43.6767 11.2705 45.6768 9.77051 47.6768Z" fill="#E56E90" stroke="black" stroke-width="0.5"/>
<path d="M36.772 44.1768C29.272 43.1768 12.272 45.1768 9.77196 47.6768C8.97196 50.0768 12.1053 53.0101 13.772 54.1768C23.272 55.6768 36.772 49.6768 36.772 44.1768Z" fill="#E56E90" stroke="black" stroke-width="0.5"/>
<path d="M3.7712 47.6768C10.7712 48.6768 4.7712 59.1768 1.7712 64.1768C1.27113 57.1768 1.771 51.6768 3.7712 47.6768Z" fill="#E56E90" stroke="black" stroke-width="0.5"/>
<path d="M21.7705 83.6768V79.1768H39.2705L39.7705 83.6768H21.7705Z" fill="#E56E90" stroke="black" stroke-width="0.5"/>
<path d="M2.27246 65.1768C3.77246 67.6768 5.77246 70.8434 5.27246 72.6768M21.7725 79.1768C11.2725 79.6768 6.77246 75.6768 7.77246 72.1768C8.27246 71.6768 9.77246 70.1768 10.7725 70.1768" stroke="black" stroke-width="0.5"/>
<path d="M31.7725 74.1768C29.2725 70.1768 23.7725 65.1768 20.7725 63.6768C19.0224 63.1768 16.3973 63.3018 13.6472 63.6768C12.0223 65.0101 10.7725 68.1768 11.2725 71.1768C11.2725 72.3434 12.5799 74.6768 15.2725 74.6768C19.7725 74.6768 26.7725 75.1768 31.7725 74.1768Z" fill="#E56E90"/>
<path d="M5.77246 65.1768C8.0224 64.6768 10.8973 64.0518 13.6472 63.6768M13.6472 63.6768C16.3973 63.3018 19.0224 63.1768 20.7725 63.6768C23.7725 65.1768 29.2725 70.1768 31.7725 74.1768C26.7725 75.1768 19.7725 74.6768 15.2725 74.6768C12.5799 74.6768 11.2725 72.3434 11.2725 71.1768C10.7725 68.1768 12.0223 65.0101 13.6472 63.6768Z" stroke="black" stroke-width="0.5"/>
<path d="M11.2725 70.6768C19.2725 69.1769 22.7725 71.8054 25.7725 73.3054M12.7725 73.6769L30.2725 73.1769" stroke="black" stroke-width="0.5"/>
<path d="M21.7705 82.1768H31.2705C33.2705 82.1768 34.7705 80.1768 34.2705 79.1768M37.7705 79.1768V83.6768" stroke="black" stroke-width="0.5"/>
<path d="M21.7724 80.677C17.2724 80.677 12.7724 81.177 1.27241 78.177V76.177L5.27241 74.177V72.677L1.27241 72.177C0.771484 70.6768 -0.22832 67.6768 1.77168 65.1768C1.27192 57.1768 1.77192 50.6768 3.77241 47.6765C36.2724 28.1769 58.2724 34.1769 84.2724 29.6769C162.272 -25.3232 244.272 11.6767 281.272 26.1769L294.772 28.1768L295.272 35.1768V38.1768C296.771 43.1768 298.106 47.6768 296.772 49.6768C299.272 50.6768 301.772 53.8434 301.772 55.6768L299.772 65.6768C300.224 76.5247 297.816 76.7489 288.485 77.0614C287.494 77.0946 285.425 77.1288 284.272 77.1768V78.6768L259.272 79.1078M21.7724 80.677V83.677H39.7708L39.2724 79.177M21.7724 80.677V79.177H39.2724M39.2724 79.177C36.2724 37.677 89.7724 40.677 86.2724 79.677V82.1768H212.772C206.772 38.6768 261.272 38.6768 259.272 79.1078M258.771 79.1078H259.272" stroke="black"/>
</svg>
