<svg width="303" height="96" viewBox="0 0 303 96" fill="none" xmlns="http://www.w3.org/2000/svg">
<circle cx="62.6978" cy="74.5076" r="20.5" stroke="black"/>
<circle cx="235.698" cy="74.5076" r="20.5" stroke="black"/>
<path d="M132.696 13.0074L131.196 9.50742C171.196 1.50754 192.696 2.00757 231.696 13.5075L228.196 18.0075C208.196 10.0075 190.196 9.00748 174.196 8.50755C171.696 8.00755 167.696 8.00751 165.196 8.50742C155.196 8.50755 143.196 10.0075 132.696 13.0074Z" stroke="black" stroke-width="0.5"/>
<path d="M131.196 9.50761L130.696 8.00761C166.696 -2.99243 199.196 1.00744 234.696 10.0076L231.696 13.5076C191.696 1.00757 165.696 2.50757 131.196 9.50761Z" stroke="black" stroke-width="0.5"/>
<path d="M131.196 9.50756C182.696 -1.99247 211.196 8.00757 231.696 13.5076" stroke="black" stroke-width="0.5"/>
<path d="M226.698 31.0076L223.698 16.5076C219.198 15.0076 207.698 9.50757 174.198 8.50757L170.698 30.5076C181.698 30.0076 199.198 28.5076 226.198 28.5076" stroke="black" stroke-width="0.5"/>
<path d="M165.198 8.50757C132.198 9.50757 112.198 18.5076 93.1978 36.0076L95.6978 34.0076L159.698 31.0076L165.198 8.50757Z" stroke="black" stroke-width="0.5"/>
<path d="M239.696 23.0076C236.03 20.3409 230.196 18.0076 223.696 16.5076L226.196 28.5076H232.696C235.696 27.0076 238.696 24.7763 239.696 23.0076Z" stroke="black" stroke-width="0.5"/>
<path d="M96.6978 79.0076H163.698L198.198 77.5076M96.6978 79.0076C96.6978 80.5076 97.1978 81.5076 98.1978 83.0076M96.6978 79.0076H86.6978V83.0076H98.1978M198.198 77.5076L199.198 83.0076M198.198 77.5076H212.698L213.198 83.0076H199.198M199.198 83.0076H98.1978" stroke="black" stroke-width="0.5"/>
<path d="M96.6969 79.0076C92.1977 74.5076 89.1978 52.5076 93.1969 36.0076L165.198 32.0076C161.198 37.0076 160.198 71.0076 163.698 79.0076H96.6969Z" stroke="black" stroke-width="0.5"/>
<path d="M228.697 31.0076L165.197 32.0076C161.197 37.0076 160.198 71.0076 163.697 79.0076L198.197 77.5076C202.697 76.0076 209.197 70.5076 228.697 31.0076Z" stroke="black" stroke-width="0.5"/>
<path d="M170.698 30.5076C166.198 31.0076 162.698 31.0076 159.698 31.0076L165.198 8.50764C168.198 8.00757 171.198 8.00757 174.198 8.50764L170.698 30.5076Z" stroke="black" stroke-width="0.5"/>
<path d="M99.1978 32.5077C103.698 38.0077 110.698 34.5077 114.698 33.0077C115.698 17.5076 102.698 25.5076 99.1978 32.5077Z" stroke="black" stroke-width="0.5"/>
<path d="M234.696 10.0076L231.696 13.5076C248.696 19.0076 259.196 22.0076 271.696 28.5076H273.196L281.196 27.0076C266.196 20.5076 258.696 18.0076 234.696 10.0076Z" stroke="black" stroke-width="0.5"/>
<path d="M271.696 28.5076C261.196 23.0076 242.196 16.5076 231.696 13.5076L229.696 16.0076L244.696 23.5076C243.196 26.0076 239.196 28.0076 233.196 30.7076C245.196 30.0076 262.196 29.0076 271.696 28.5076Z" stroke="black" stroke-width="0.5"/>
<path d="M277.198 34.8076L283.196 32.5076L272.697 28.5076L228.697 31.0076C221.197 46.0076 206.197 76.5076 198.197 77.5076H212.697C211.197 66.5076 220.697 43.0076 245.698 52.0076C256.198 46.5076 266.198 41.0076 277.198 34.8076Z" stroke="black" stroke-width="0.5"/>
<path d="M278.196 34.5076C266.196 41.0076 256.196 46.5076 245.696 52.0076C250.196 55.0076 260.696 61.0076 259.696 80.0076L284.696 79.5076V78.0076C293.196 77.0076 301.696 80.5076 300.196 66.5076L302.196 56.5076C302.196 55.0076 299.696 51.0076 297.196 50.5076C298.696 48.0076 295.696 39.0076 295.696 39.0076V37.5076L291.696 34.5076L286.696 33.0076L283.196 32.5076L278.196 34.5076Z" stroke="black" stroke-width="0.5"/>
<path d="M295.696 37.5076L295.69 37.4277M295.69 37.4277L295.196 29.0076L281.196 27.0076L272.696 28.5076L283.196 32.5076C292.696 33.5076 291.695 35.0076 295.69 37.4277Z" stroke="black" stroke-width="0.5"/>
<path d="M294.198 37.0078C293.698 34.5077 282.698 34.3076 277.198 34.8076" stroke="black" stroke-width="0.5"/>
<path d="M300.198 67.0076L260.698 69.0076C260.198 64.0076 258.031 59.8409 256.198 58.0076L302.198 55.5076M300.698 53.0076C289.698 51.5076 278.698 46.7076 266.698 40.7076M228.698 31.0076L272.698 28.5076L281.198 27.0076" stroke="black" stroke-width="0.5"/>
<path d="M272.698 43.5076C279.693 43.8574 285.71 43.9624 291.091 44.5076M297.698 45.5076C295.595 45.0569 293.402 44.7417 291.091 44.5076M295.698 38.0076C295.28 37.4224 294.811 36.8932 294.307 36.4176M291.091 44.5076C290.765 44.1628 290.671 43.6398 290.656 43.0076M290.656 43.0076C290.642 42.4173 290.698 41.7319 290.698 41.0076C290.698 39.0076 289.698 35.0076 286.198 33.0076C288.419 33.0076 291.795 34.048 294.307 36.4176M290.656 43.0076C293.698 41.5076 294.77 37.9476 294.307 36.4176" stroke="black" stroke-width="0.5"/>
<path d="M290.698 41.0076C286.198 41.0076 284.198 37.0076 283.198 34.5076" stroke="black" stroke-width="0.5"/>
<path d="M132.696 13.1075C119.196 17.1075 107.196 23.0076 93.1963 36.0076C100.196 24.0076 115.696 14.5076 131.196 9.50757L132.696 13.1075Z" fill="#EDADBF" stroke="black" stroke-width="0.5"/>
<path d="M131.196 9.50757C111.196 15.1816 93.1963 32.5076 85.1963 30.5076C98.1963 21.0076 114.196 12.5076 130.696 8.00757L131.196 9.50757Z" fill="#EDADBF" stroke="black" stroke-width="0.5"/>
<path d="M10.197 48.5076H4.19696C1.69629 52.5076 1.69629 62.5076 2.19696 66.0076C0.696289 67.0076 0.696887 71.5076 1.69696 73.0076L5.69696 73.5076V75.0076L1.69696 77.0076V79.0076C5.69696 80.0076 14.197 82.0076 22.197 81.5076V80.0076H39.697C39.0303 71.5076 40.697 61.0076 49.697 54.0076C47.197 50.0076 40.197 45.5076 37.197 45.0076C27.197 44.0076 12.197 46.5076 10.197 48.5076Z" fill="#EDADBF" stroke="black" stroke-width="0.5"/>
<path d="M93.1978 36.0076C75.3644 36.8409 43.6978 41.7076 33.1978 44.7076L37.1978 45.0076C42.1978 46.5076 47.6978 50.8409 49.6978 54.0076C62.6968 44.5076 88.1968 51.5076 86.6968 79.0076H96.6968C89.6968 68.0076 90.6968 46.0076 93.1978 36.0076Z" fill="#EDADBF" stroke="black" stroke-width="0.5"/>
<path d="M10.1963 48.5076H4.19629C36.6965 29.0075 58.6965 35.0076 84.6963 30.5076L93.6965 36.0076C76.6965 37.0076 47.6963 40.5076 33.6963 44.7076C25.6963 44.5076 11.6963 46.5076 10.1963 48.5076Z" fill="#EDADBF" stroke="black" stroke-width="0.5"/>
<path d="M37.1977 45.0076C29.6977 44.0076 12.6977 46.0076 10.1977 48.5076C9.39774 50.9076 12.5311 53.8409 14.1977 55.0076C23.6978 56.5076 37.1977 50.5076 37.1977 45.0076Z" fill="#EDADBF" stroke="black" stroke-width="0.5"/>
<path d="M4.19698 48.5076C11.197 49.5076 5.19698 60.0076 2.19698 65.0076C1.69691 58.0076 2.19678 52.5076 4.19698 48.5076Z" fill="#EDADBF" stroke="black" stroke-width="0.5"/>
<path d="M22.1963 84.5076V80.0076H39.6963L40.1963 84.5076H22.1963Z" fill="#EDADBF" stroke="black" stroke-width="0.5"/>
<path d="M2.69824 66.0076C4.19824 68.5076 6.19824 71.6742 5.69824 73.5076M22.1982 80.0076C11.6982 80.5076 7.19824 76.5076 8.19824 73.0076C8.69824 72.5076 10.1982 71.0076 11.1982 71.0076" stroke="black" stroke-width="0.5"/>
<path d="M32.1982 75.0076C29.6982 71.0076 24.1982 66.0076 21.1982 64.5076C19.4482 64.0076 16.8231 64.1326 14.073 64.5076C12.4481 65.841 11.1982 69.0076 11.6982 72.0076C11.6982 73.1742 13.0057 75.5076 15.6982 75.5076C20.1982 75.5076 27.1982 76.0076 32.1982 75.0076Z" fill="#EDADBF"/>
<path d="M6.19824 66.0076C8.44818 65.5076 11.3231 64.8826 14.073 64.5076M14.073 64.5076C16.8231 64.1326 19.4482 64.0076 21.1982 64.5076C24.1982 66.0076 29.6982 71.0076 32.1982 75.0076C27.1982 76.0076 20.1982 75.5076 15.6982 75.5076C13.0057 75.5076 11.6982 73.1742 11.6982 72.0076C11.1982 69.0076 12.4481 65.841 14.073 64.5076Z" stroke="black" stroke-width="0.5"/>
<path d="M11.6982 71.5076C19.6982 70.0077 23.1982 72.6362 26.1982 74.1362M13.1982 74.5077L30.6982 74.0077" stroke="black" stroke-width="0.5"/>
<path d="M22.1963 83.0076H31.6963C33.6963 83.0076 35.1963 81.0076 34.6963 80.0076M38.1963 80.0076V84.5076" stroke="black" stroke-width="0.5"/>
<path d="M22.1977 81.5078C17.6977 81.5078 13.1977 82.0078 1.6977 79.0078V77.0078L5.6977 75.0078V73.5078L1.6977 73.0078C1.19678 71.5076 0.196973 68.5076 2.19697 66.0076C1.69721 58.0076 2.19721 51.5076 4.1977 48.5073C36.6977 29.0077 58.6977 35.0078 84.6977 30.5078C162.698 -24.4924 244.698 12.5076 281.698 27.0077L295.198 29.0076L295.698 36.0076V39.0076C297.196 44.0076 298.531 48.5076 297.198 50.5076C299.698 51.5076 302.198 54.6742 302.198 56.5076L300.198 66.5076C300.65 77.3555 298.242 77.5798 288.91 77.8922C287.919 77.9254 285.85 77.9596 284.698 78.0076V79.5076L259.698 79.9386M22.1977 81.5078V84.5078H40.196L39.6977 80.0078M22.1977 81.5078V80.0078H39.6977M39.6977 80.0078C36.6977 38.5078 90.1977 41.5078 86.6977 80.5078V83.0076H213.198C207.198 39.5076 261.698 39.5076 259.698 79.9386M259.196 79.9386H259.698" stroke="black"/>
</svg>
