<svg width="303" height="96" viewBox="0 0 303 96" fill="none" xmlns="http://www.w3.org/2000/svg">
<circle cx="62.8853" cy="74.0605" r="20.5" fill="#EFC7D3" stroke="black"/>
<circle cx="235.885" cy="74.0605" r="20.5" fill="#EFC7D3" stroke="black"/>
<path d="M132.884 12.5604L131.384 9.0604C171.384 1.06051 192.884 1.56055 231.884 13.0605L228.384 17.5605C208.384 9.56046 190.384 8.56046 174.384 8.06052C171.884 7.56052 167.884 7.56049 165.384 8.0604C155.384 8.06052 143.384 9.56052 132.884 12.5604Z" fill="#E0426F" stroke="black" stroke-width="0.5"/>
<path d="M131.384 9.06059L130.884 7.56059C166.884 -3.43945 199.384 0.560421 234.884 9.56059L231.884 13.0606C191.884 0.560547 165.884 2.06055 131.384 9.06059Z" fill="#E0426F" stroke="black" stroke-width="0.5"/>
<path d="M131.384 9.06066C182.884 -2.43937 211.384 7.56067 231.884 13.0607" stroke="black" stroke-width="0.5"/>
<path d="M170.885 30.0605L174.385 8.06055C207.885 9.06055 219.385 14.5605 223.885 16.0605L226.368 28.0605C199.378 28.0612 181.883 29.5607 170.885 30.0605Z" fill="#E0426F"/>
<path d="M226.885 30.5605L223.885 16.0605C219.385 14.5605 207.885 9.06055 174.385 8.06055L170.885 30.0605C181.885 29.5605 199.385 28.0605 226.385 28.0605" stroke="black" stroke-width="0.5"/>
<path d="M165.385 8.06055C132.385 9.06055 112.385 18.0605 93.3853 35.5605L95.8853 33.5605L159.885 30.5605L165.385 8.06055Z" fill="#E0426F" stroke="black" stroke-width="0.5"/>
<path d="M239.884 22.5605C236.217 19.8939 230.384 17.5605 223.884 16.0605L226.384 28.0605H232.884C235.884 26.5605 238.884 24.3293 239.884 22.5605Z" fill="#E0426F" stroke="black" stroke-width="0.5"/>
<path d="M96.8853 78.5605H163.885L198.385 77.0605H212.885L213.385 82.5605H199.385H98.3853H86.8853V78.5605H96.8853Z" fill="#E0426F"/>
<path d="M96.8853 78.5605H163.885L198.385 77.0605M96.8853 78.5605C96.8853 80.0605 97.3853 81.0605 98.3853 82.5605M96.8853 78.5605H86.8853V82.5605H98.3853M198.385 77.0605L199.385 82.5605M198.385 77.0605H212.885L213.385 82.5605H199.385M199.385 82.5605H98.3853" stroke="black" stroke-width="0.5"/>
<path d="M96.8844 78.5605C92.3852 74.0605 89.3853 52.0605 93.3844 35.5605L165.385 31.5605C161.385 36.5605 160.385 70.5605 163.885 78.5605H96.8844Z" fill="#E0426F" stroke="black" stroke-width="0.5"/>
<path d="M228.885 30.5605L165.385 31.5605C161.385 36.5605 160.385 70.5605 163.885 78.5605L198.385 77.0605C202.885 75.5605 209.385 70.0605 228.885 30.5605Z" fill="#E0426F" stroke="black" stroke-width="0.5"/>
<path d="M170.885 30.0606C166.385 30.5606 162.885 30.5606 159.885 30.5606L165.385 8.06062C168.385 7.56055 171.385 7.56055 174.385 8.06062L170.885 30.0606Z" fill="#E0426F" stroke="black" stroke-width="0.5"/>
<path d="M99.3853 32.0608C103.885 37.5608 110.885 34.0608 114.885 32.5608C115.885 17.0607 102.885 25.0607 99.3853 32.0608Z" fill="#E0426F" stroke="black" stroke-width="0.5"/>
<path d="M234.884 9.56055L231.884 13.0605C248.884 18.5605 259.384 21.5605 271.884 28.0605H273.384L281.384 26.5605C266.384 20.0605 258.884 17.5605 234.884 9.56055Z" fill="#EFC7D3" stroke="black" stroke-width="0.5"/>
<path d="M271.884 28.0605C261.384 22.5605 242.384 16.0605 231.884 13.0605L229.884 15.5605L244.884 23.0605C243.384 25.5605 239.384 27.5605 233.384 30.2605C245.384 29.5605 262.384 28.5605 271.884 28.0605Z" fill="#EFC7D3" stroke="black" stroke-width="0.5"/>
<path d="M277.385 34.3605L283.384 32.0605L272.884 28.0605L228.884 30.5605C221.384 45.5605 206.384 76.0605 198.384 77.0605H212.884C211.384 66.0605 220.884 42.5605 245.885 51.5605C256.385 46.0605 266.385 40.5605 277.385 34.3605Z" fill="#EFC7D3" stroke="black" stroke-width="0.5"/>
<path d="M278.384 34.0606C266.384 40.5606 256.384 46.0606 245.884 51.5606C250.384 54.5605 260.884 60.5605 259.884 79.5605L284.884 79.0605V77.5605C293.384 76.5605 301.884 80.0605 300.384 66.0605L302.384 56.0605C302.384 54.5605 299.884 50.5605 297.384 50.0605C298.884 47.5605 295.884 38.5605 295.884 38.5605V37.0605L291.884 34.0605L286.884 32.5605L283.384 32.0605L278.384 34.0606Z" fill="#EFC7D3" stroke="black" stroke-width="0.5"/>
<path d="M281.384 26.5605L272.884 28.0605L283.384 32.0605C292.884 33.0605 291.883 34.5605 295.878 36.9807L295.384 28.5605L281.384 26.5605Z" fill="#EFC7D3"/>
<path d="M295.884 37.0605L295.878 36.9807M295.878 36.9807L295.384 28.5605L281.384 26.5605L272.884 28.0605L283.384 32.0605C292.884 33.0605 291.883 34.5605 295.878 36.9807Z" stroke="black" stroke-width="0.5"/>
<path d="M294.385 36.5607C293.885 34.0606 282.885 33.8606 277.385 34.3606" stroke="black" stroke-width="0.5"/>
<path d="M300.385 66.5605L260.885 68.5605C260.385 63.5605 258.219 59.3939 256.385 57.5605L302.385 55.0605M300.885 52.5605C289.885 51.0605 278.885 46.2605 266.885 40.2605M228.885 30.5605L272.885 28.0605L281.385 26.5605" stroke="black" stroke-width="0.5"/>
<path d="M290.885 40.5605C290.885 38.5605 289.885 34.5605 286.385 32.5605C288.606 32.5605 291.983 33.6009 294.494 35.9705C294.958 37.5005 293.885 41.0605 290.843 42.5605C290.83 41.9703 290.885 41.2848 290.885 40.5605Z" fill="#EFC7D3"/>
<path d="M272.885 43.0605C279.881 43.4103 285.898 43.5154 291.278 44.0605M297.885 45.0605C295.782 44.6099 293.589 44.2946 291.278 44.0605M295.885 37.5605C295.467 36.9754 294.998 36.4462 294.494 35.9705M291.278 44.0605C290.952 43.7158 290.858 43.1927 290.843 42.5605M290.843 42.5605C290.83 41.9703 290.885 41.2848 290.885 40.5605C290.885 38.5605 289.885 34.5605 286.385 32.5605C288.606 32.5605 291.983 33.6009 294.494 35.9705M290.843 42.5605C293.885 41.0605 294.958 37.5005 294.494 35.9705" stroke="black" stroke-width="0.5"/>
<path d="M290.885 40.5605C286.385 40.5605 284.385 36.5605 283.385 34.0605" stroke="black" stroke-width="0.5"/>
<path d="M132.884 12.6605C119.384 16.6605 107.384 22.5605 93.3838 35.5605C100.384 23.5605 115.884 14.0605 131.384 9.06055L132.884 12.6605Z" fill="#E56E90" stroke="black" stroke-width="0.5"/>
<path d="M131.384 9.06055C111.384 14.7346 93.3838 32.0605 85.3838 30.0605C98.3838 20.5605 114.384 12.0605 130.884 7.56055L131.384 9.06055Z" fill="#E56E90" stroke="black" stroke-width="0.5"/>
<path d="M10.3845 48.0604H4.38446C1.88379 52.0604 1.88379 62.0604 2.38446 65.5604C0.883789 66.5604 0.884387 71.0604 1.88446 72.5604L5.88446 73.0604V74.5604L1.88446 76.5604V78.5604C5.88446 79.5604 14.3845 81.5604 22.3845 81.0604V79.5604H39.8845C39.2178 71.0604 40.8845 60.5604 49.8845 53.5604C47.3845 49.5604 40.3845 45.0604 37.3845 44.5604C27.3845 43.5604 12.3845 46.0604 10.3845 48.0604Z" fill="#E56E90" stroke="black" stroke-width="0.5"/>
<path d="M93.3853 35.5605C75.5519 36.3939 43.8853 41.2605 33.3853 44.2605L37.3853 44.5605C42.3853 46.0605 47.8853 50.3939 49.8853 53.5605C62.8843 44.0605 88.3843 51.0605 86.8843 78.5605H96.8843C89.8843 67.5605 90.8843 45.5605 93.3853 35.5605Z" fill="#E56E90" stroke="black" stroke-width="0.5"/>
<path d="M10.3838 48.0606H4.38379C36.884 28.5605 58.884 34.5605 84.8838 30.0605L93.884 35.5605C76.884 36.5605 47.8838 40.0605 33.8838 44.2606C25.8838 44.0605 11.8838 46.0605 10.3838 48.0606Z" fill="#E56E90" stroke="black" stroke-width="0.5"/>
<path d="M37.3852 44.5606C29.8852 43.5605 12.8852 45.5605 10.3852 48.0606C9.58524 50.4606 12.7186 53.3939 14.3852 54.5605C23.8853 56.0605 37.3852 50.0605 37.3852 44.5606Z" fill="#E56E90" stroke="black" stroke-width="0.5"/>
<path d="M4.38448 48.0605C11.3845 49.0605 5.38448 59.5605 2.38448 64.5605C1.88441 57.5605 2.38428 52.0605 4.38448 48.0605Z" fill="#E56E90" stroke="black" stroke-width="0.5"/>
<path d="M22.3838 84.0605V79.5605H39.8838L40.3838 84.0605H22.3838Z" fill="#E56E90" stroke="black" stroke-width="0.5"/>
<path d="M2.88574 65.5605C4.38574 68.0605 6.38574 71.2272 5.88574 73.0605M22.3857 79.5605C11.8857 80.0605 7.38574 76.0605 8.38574 72.5605C8.88574 72.0605 10.3857 70.5605 11.3857 70.5605" stroke="black" stroke-width="0.5"/>
<path d="M32.3857 74.5607C29.8857 70.5607 24.3857 65.5607 21.3857 64.0607C19.6357 63.5607 17.0106 63.6857 14.2605 64.0607C12.6356 65.3941 11.3857 68.5607 11.8857 71.5607C11.8857 72.7273 13.1932 75.0607 15.8857 75.0607C20.3857 75.0607 27.3857 75.5607 32.3857 74.5607Z" fill="#E56E90"/>
<path d="M6.38574 65.5607C8.63568 65.0607 11.5106 64.4357 14.2605 64.0607M14.2605 64.0607C17.0106 63.6857 19.6357 63.5607 21.3857 64.0607C24.3857 65.5607 29.8857 70.5607 32.3857 74.5607C27.3857 75.5607 20.3857 75.0607 15.8857 75.0607C13.1932 75.0607 11.8857 72.7273 11.8857 71.5607C11.3857 68.5607 12.6356 65.3941 14.2605 64.0607Z" stroke="black" stroke-width="0.5"/>
<path d="M11.8857 71.0607C19.8857 69.5608 23.3857 72.1893 26.3857 73.6893M13.3857 74.0608L30.8857 73.5608" stroke="black" stroke-width="0.5"/>
<path d="M22.3838 82.5605H31.8838C33.8838 82.5605 35.3838 80.5605 34.8838 79.5605M38.3838 79.5605V84.0605" stroke="black" stroke-width="0.5"/>
<path d="M22.3852 81.0608C17.8852 81.0608 13.3852 81.5608 1.8852 78.5608V76.5608L5.8852 74.5608V73.0608L1.8852 72.5608C1.38428 71.0605 0.384473 68.0605 2.38447 65.5605C1.88471 57.5605 2.38471 51.0605 4.3852 48.0603C36.8852 28.5607 58.8852 34.5607 84.8852 30.0607C162.885 -24.9394 244.885 12.0605 281.885 26.5607L295.385 28.5605L295.885 35.5605V38.5605C297.384 43.5605 298.719 48.0605 297.385 50.0605C299.885 51.0605 302.385 54.2272 302.385 56.0605L300.385 66.0605C300.837 76.9085 298.429 77.1327 289.098 77.4452C288.106 77.4784 286.037 77.5125 284.885 77.5605V79.0605L259.885 79.4916M22.3852 81.0608V84.0608H40.3835L39.8852 79.5608M22.3852 81.0608V79.5608H39.8852M39.8852 79.5608C36.8852 38.0608 90.3852 41.0608 86.8852 80.0608V82.5605H213.385C207.385 39.0605 261.885 39.0605 259.885 79.4916M259.384 79.4916H259.885" stroke="black"/>
</svg>
