<svg width="303" height="96" viewBox="0 0 303 96" fill="none" xmlns="http://www.w3.org/2000/svg">
<circle cx="62.6772" cy="74.2297" r="20.5" stroke="black"/>
<circle cx="235.678" cy="74.2297" r="20.5" stroke="black"/>
<path d="M132.676 12.7296L131.176 9.22959C171.176 1.2297 192.676 1.72974 231.676 13.2297L228.176 17.7297C208.176 9.72965 190.176 8.72964 174.176 8.22971C171.676 7.72971 167.676 7.72968 165.176 8.22959C155.176 8.22971 143.176 9.72971 132.676 12.7296Z" fill="#E0426F" stroke="black" stroke-width="0.5"/>
<path d="M131.176 9.22978L130.676 7.72978C166.676 -3.27026 199.176 0.72961 234.676 9.72978L231.676 13.2298C191.676 0.729736 165.676 2.22974 131.176 9.22978Z" fill="#E0426F" stroke="black" stroke-width="0.5"/>
<path d="M131.176 9.2296C182.676 -2.27042 211.176 7.72961 231.676 13.2296" stroke="black" stroke-width="0.5"/>
<path d="M170.677 30.2297L174.177 8.22974C207.677 9.22974 219.177 14.7297 223.677 16.2297L226.16 28.2297C199.17 28.2304 181.675 29.7298 170.677 30.2297Z" fill="#E0426F"/>
<path d="M226.677 30.7297L223.677 16.2297C219.177 14.7297 207.677 9.22974 174.177 8.22974L170.677 30.2297C181.677 29.7297 199.177 28.2297 226.177 28.2297" stroke="black" stroke-width="0.5"/>
<path d="M165.177 8.22974C132.177 9.22974 112.177 18.2297 93.1772 35.7297L95.6772 33.7297L159.677 30.7297L165.177 8.22974Z" fill="#E0426F" stroke="black" stroke-width="0.5"/>
<path d="M239.676 22.7297C236.009 20.0631 230.176 17.7297 223.676 16.2297L226.176 28.2297H232.676C235.676 26.7297 238.676 24.4985 239.676 22.7297Z" fill="#E0426F" stroke="black" stroke-width="0.5"/>
<path d="M96.6772 78.7297H163.677L198.177 77.2297H212.677L213.177 82.7297H199.177H98.1772H86.6772V78.7297H96.6772Z" fill="#E0426F"/>
<path d="M96.6772 78.7297H163.677L198.177 77.2297M96.6772 78.7297C96.6772 80.2297 97.1772 81.2297 98.1772 82.7297M96.6772 78.7297H86.6772V82.7297H98.1772M198.177 77.2297L199.177 82.7297M198.177 77.2297H212.677L213.177 82.7297H199.177M199.177 82.7297H98.1772" stroke="black" stroke-width="0.5"/>
<path d="M96.6764 78.7297C92.1772 74.2297 89.1773 52.2297 93.1764 35.7297L165.177 31.7297C161.177 36.7297 160.177 70.7297 163.677 78.7297H96.6764Z" fill="#E0426F" stroke="black" stroke-width="0.5"/>
<path d="M228.677 30.7297L165.177 31.7297C161.177 36.7297 160.177 70.7297 163.677 78.7297L198.177 77.2297C202.677 75.7297 209.177 70.2297 228.677 30.7297Z" fill="#E0426F" stroke="black" stroke-width="0.5"/>
<path d="M170.677 30.2298C166.177 30.7298 162.677 30.7298 159.677 30.7298L165.177 8.22981C168.177 7.72974 171.177 7.72974 174.177 8.22981L170.677 30.2298Z" fill="#E0426F" stroke="black" stroke-width="0.5"/>
<path d="M99.1772 32.2297C103.677 37.7297 110.677 34.2297 114.677 32.7297C115.677 17.2296 102.677 25.2296 99.1772 32.2297Z" fill="#E0426F" stroke="black" stroke-width="0.5"/>
<path d="M234.676 9.72974L231.676 13.2297C248.676 18.7297 259.176 21.7297 271.676 28.2297H273.176L281.176 26.7297C266.176 20.2297 258.676 17.7297 234.676 9.72974Z" fill="#EDADBF" stroke="black" stroke-width="0.5"/>
<path d="M271.676 28.2297C261.176 22.7297 242.176 16.2297 231.676 13.2297L229.676 15.7297L244.676 23.2297C243.176 25.7297 239.176 27.7297 233.176 30.4297C245.176 29.7297 262.176 28.7297 271.676 28.2297Z" fill="#EDADBF" stroke="black" stroke-width="0.5"/>
<path d="M277.178 34.5297L283.176 32.2297L272.677 28.2297L228.677 30.7297C221.177 45.7297 206.177 76.2297 198.177 77.2297H212.677C211.177 66.2297 220.677 42.7297 245.678 51.7297C256.178 46.2297 266.178 40.7297 277.178 34.5297Z" fill="#EDADBF" stroke="black" stroke-width="0.5"/>
<path d="M278.176 34.2298C266.176 40.7298 256.176 46.2298 245.676 51.7298C250.176 54.7297 260.676 60.7297 259.676 79.7297L284.676 79.2297V77.7297C293.176 76.7297 301.676 80.2297 300.176 66.2297L302.176 56.2297C302.176 54.7297 299.676 50.7297 297.176 50.2297C298.676 47.7297 295.676 38.7297 295.676 38.7297V37.2297L291.676 34.2297L286.676 32.7297L283.176 32.2297L278.176 34.2298Z" fill="#EDADBF" stroke="black" stroke-width="0.5"/>
<path d="M281.176 26.7297L272.676 28.2297L283.176 32.2297C292.676 33.2297 291.675 34.7297 295.67 37.1499L295.176 28.7297L281.176 26.7297Z" fill="#EDADBF"/>
<path d="M295.676 37.2297L295.67 37.1499M295.67 37.1499L295.176 28.7297L281.176 26.7297L272.676 28.2297L283.176 32.2297C292.676 33.2297 291.675 34.7297 295.67 37.1499Z" stroke="black" stroke-width="0.5"/>
<path d="M294.178 36.7299C293.678 34.2298 282.678 34.0297 277.178 34.5297" stroke="black" stroke-width="0.5"/>
<path d="M300.178 66.7297L260.678 68.7297C260.178 63.7297 258.011 59.5631 256.178 57.7297L302.178 55.2297M300.678 52.7297C289.678 51.2297 278.678 46.4297 266.678 40.4297M228.678 30.7297L272.678 28.2297L281.178 26.7297" stroke="black" stroke-width="0.5"/>
<path d="M290.678 40.7297C290.678 38.7297 289.678 34.7297 286.178 32.7297C288.399 32.7297 291.775 33.7701 294.287 36.1397C294.75 37.6697 293.678 41.2297 290.636 42.7297C290.622 42.1395 290.678 41.454 290.678 40.7297Z" fill="#EDADBF"/>
<path d="M272.678 43.2297C279.673 43.5795 285.69 43.6846 291.071 44.2297M297.678 45.2297C295.575 44.7791 293.381 44.4638 291.071 44.2297M295.678 37.7297C295.26 37.1446 294.791 36.6154 294.287 36.1397M291.071 44.2297C290.745 43.885 290.651 43.3619 290.636 42.7297M290.636 42.7297C290.622 42.1395 290.678 41.454 290.678 40.7297C290.678 38.7297 289.678 34.7297 286.178 32.7297C288.399 32.7297 291.775 33.7701 294.287 36.1397M290.636 42.7297C293.678 41.2297 294.75 37.6697 294.287 36.1397" stroke="black" stroke-width="0.5"/>
<path d="M290.678 40.7297C286.178 40.7297 284.178 36.7297 283.178 34.2297" stroke="black" stroke-width="0.5"/>
<path d="M132.676 12.8297C119.176 16.8297 107.176 22.7297 93.1758 35.7297C100.176 23.7297 115.676 14.2297 131.176 9.22974L132.676 12.8297Z" fill="#E0426F" stroke="black" stroke-width="0.5"/>
<path d="M131.176 9.22974C111.176 14.9038 93.1758 32.2297 85.1758 30.2297C98.1758 20.7297 114.176 12.2297 130.676 7.72974L131.176 9.22974Z" fill="#E0426F" stroke="black" stroke-width="0.5"/>
<path d="M10.1764 48.2296H4.17645C1.67578 52.2296 1.67578 62.2296 2.17645 65.7296C0.675781 66.7296 0.676379 71.2296 1.67645 72.7296L5.67645 73.2296V74.7296L1.67645 76.7296V78.7296C5.67645 79.7296 14.1764 81.7296 22.1764 81.2296V79.7296H39.6764C39.0098 71.2296 40.6764 60.7296 49.6764 53.7296C47.1764 49.7296 40.1764 45.2296 37.1764 44.7296C27.1764 43.7296 12.1764 46.2296 10.1764 48.2296Z" fill="#E0426F" stroke="black" stroke-width="0.5"/>
<path d="M93.1772 35.7297C75.3439 36.5631 43.6772 41.4297 33.1772 44.4297L37.1772 44.7297C42.1772 46.2297 47.6772 50.5631 49.6772 53.7297C62.6763 44.2297 88.1763 51.2297 86.6763 78.7297H96.6763C89.6763 67.7297 90.6763 45.7297 93.1772 35.7297Z" fill="#E0426F" stroke="black" stroke-width="0.5"/>
<path d="M10.1758 48.2298H4.17578C36.676 28.7297 58.676 34.7297 84.6758 30.2297L93.676 35.7297C76.676 36.7297 47.6758 40.2297 33.6758 44.4297C25.6758 44.2297 11.6758 46.2297 10.1758 48.2298Z" fill="#E0426F" stroke="black" stroke-width="0.5"/>
<path d="M37.1772 44.7298C29.6772 43.7297 12.6772 45.7297 10.1772 48.2298C9.37724 50.6298 12.5106 53.5631 14.1772 54.7297C23.6772 56.2297 37.1772 50.2297 37.1772 44.7298Z" fill="#E0426F" stroke="black" stroke-width="0.5"/>
<path d="M4.17648 48.2297C11.1765 49.2297 5.17648 59.7297 2.17648 64.7297C1.67641 57.7297 2.17627 52.2297 4.17648 48.2297Z" fill="#E0426F" stroke="black" stroke-width="0.5"/>
<path d="M22.1758 84.2297V79.7297H39.6758L40.1758 84.2297H22.1758Z" fill="#E0426F" stroke="black" stroke-width="0.5"/>
<path d="M2.67773 65.7295C4.17773 68.2295 6.17773 71.3962 5.67773 73.2295M22.1777 79.7295C11.6777 80.2295 7.17773 76.2295 8.17773 72.7295C8.67773 72.2295 10.1777 70.7295 11.1777 70.7295" stroke="black" stroke-width="0.5"/>
<path d="M32.1777 74.7296C29.6777 70.7296 24.1777 65.7297 21.1777 64.2297C19.4277 63.7297 16.8026 63.8547 14.0525 64.2297C12.4276 65.563 11.1777 68.7296 11.6777 71.7296C11.6777 72.8963 12.9852 75.2296 15.6777 75.2296C20.1777 75.2296 27.1777 75.7296 32.1777 74.7296Z" fill="#E0426F"/>
<path d="M6.17773 65.7297C8.42768 65.2297 11.3026 64.6047 14.0525 64.2297M14.0525 64.2297C16.8026 63.8547 19.4277 63.7297 21.1777 64.2297C24.1777 65.7297 29.6777 70.7296 32.1777 74.7296C27.1777 75.7296 20.1777 75.2296 15.6777 75.2296C12.9852 75.2296 11.6777 72.8963 11.6777 71.7296C11.1777 68.7296 12.4276 65.563 14.0525 64.2297Z" stroke="black" stroke-width="0.5"/>
<path d="M11.6777 71.2297C19.6777 69.7297 23.1777 72.3582 26.1777 73.8582M13.1777 74.2297L30.6777 73.7297" stroke="black" stroke-width="0.5"/>
<path d="M22.1758 82.7295H31.6758C33.6758 82.7295 35.1758 80.7295 34.6758 79.7295M38.1758 79.7295V84.2295" stroke="black" stroke-width="0.5"/>
<path d="M22.1772 81.23C17.6772 81.23 13.1772 81.73 1.67719 78.73V76.73L5.67719 74.73V73.23L1.67719 72.73C1.17627 71.2297 0.176465 68.2297 2.17646 65.7297C1.6767 57.7297 2.1767 51.2297 4.17719 48.2295C36.6772 28.7299 58.6772 34.7299 84.6772 30.2299C162.677 -24.7702 244.677 12.2297 281.677 26.7299L295.177 28.7297L295.677 35.7297V38.7297C297.176 43.7297 298.511 48.2297 297.177 50.2297C299.677 51.2297 302.177 54.3964 302.177 56.2297L300.177 66.2297C300.629 77.0776 298.221 77.3019 288.889 77.6144C287.898 77.6476 285.829 77.6817 284.677 77.7297V79.2297L259.677 79.6608M22.1772 81.23V84.23H40.1755L39.6772 79.73M22.1772 81.23V79.73H39.6772M39.6772 79.73C36.6772 38.23 90.1772 41.23 86.6772 80.23V82.7297H213.177C207.177 39.2297 261.677 39.2297 259.677 79.6608M259.176 79.6608H259.677" stroke="black"/>
</svg>
