<svg width="303" height="96" viewBox="0 0 303 96" fill="none" xmlns="http://www.w3.org/2000/svg">
<circle cx="62.458" cy="74.0454" r="20.5" fill="#E0426F" stroke="black"/>
<circle cx="235.458" cy="74.0454" r="20.5" fill="#E0426F" stroke="black"/>
<path d="M132.456 12.5453L130.956 9.04527C170.956 1.04538 192.456 1.54541 231.456 13.0454L227.956 17.5454C207.956 9.54532 189.956 8.54532 173.956 8.04539C171.456 7.54539 167.456 7.54535 164.956 8.04527C154.956 8.04539 142.956 9.54539 132.456 12.5453Z" fill="#E56E90" stroke="black" stroke-width="0.5"/>
<path d="M130.956 9.04545L130.456 7.54545C166.456 -3.45459 198.956 0.545284 234.456 9.54546L231.456 13.0455C191.456 0.54541 165.456 2.04541 130.956 9.04545Z" fill="#E56E90" stroke="black" stroke-width="0.5"/>
<path d="M130.956 9.04552C182.456 -2.4545 210.956 7.54553 231.456 13.0455" stroke="black" stroke-width="0.5"/>
<path d="M170.458 30.0454L173.958 8.04541C207.458 9.04541 218.958 14.5454 223.458 16.0454L225.941 28.0454C198.951 28.046 181.456 29.5455 170.458 30.0454Z" fill="#E56E90"/>
<path d="M226.458 30.5454L223.458 16.0454C218.958 14.5454 207.458 9.04541 173.958 8.04541L170.458 30.0454C181.458 29.5454 198.958 28.0454 225.958 28.0454" stroke="black" stroke-width="0.5"/>
<path d="M164.958 8.04541C131.958 9.04541 111.958 18.0454 92.958 35.5454L95.458 33.5454L159.458 30.5454L164.958 8.04541Z" fill="#E56E90" stroke="black" stroke-width="0.5"/>
<path d="M239.456 22.5454C235.789 19.8787 229.956 17.5454 223.456 16.0454L225.956 28.0454H232.456C235.456 26.5454 238.456 24.3141 239.456 22.5454Z" fill="#E56E90" stroke="black" stroke-width="0.5"/>
<path d="M96.458 78.5454H163.458L197.958 77.0454H212.458L212.958 82.5454H198.958H97.958H86.458V78.5454H96.458Z" fill="#E56E90"/>
<path d="M96.458 78.5454H163.458L197.958 77.0454M96.458 78.5454C96.458 80.0454 96.958 81.0454 97.958 82.5454M96.458 78.5454H86.458V82.5454H97.958M197.958 77.0454L198.958 82.5454M197.958 77.0454H212.458L212.958 82.5454H198.958M198.958 82.5454H97.958" stroke="black" stroke-width="0.5"/>
<path d="M96.4571 78.5454C91.958 74.0454 88.9581 52.0454 92.9571 35.5454L164.958 31.5454C160.958 36.5454 159.958 70.5454 163.458 78.5454H96.4571Z" fill="#E56E90" stroke="black" stroke-width="0.5"/>
<path d="M228.458 30.5454L164.958 31.5454C160.958 36.5454 159.958 70.5454 163.458 78.5454L197.958 77.0454C202.458 75.5454 208.958 70.0454 228.458 30.5454Z" fill="#E56E90" stroke="black" stroke-width="0.5"/>
<path d="M170.458 30.0455C165.958 30.5455 162.458 30.5455 159.458 30.5455L164.958 8.04548C167.958 7.54541 170.958 7.54541 173.958 8.04548L170.458 30.0455Z" fill="#E56E90" stroke="black" stroke-width="0.5"/>
<path d="M98.958 32.0457C103.458 37.5457 110.458 34.0457 114.458 32.5457C115.458 17.0455 102.458 25.0455 98.958 32.0457Z" fill="#E56E90" stroke="black" stroke-width="0.5"/>
<path d="M234.456 9.54541L231.456 13.0454C248.456 18.5454 258.956 21.5454 271.456 28.0454H272.956L280.956 26.5454C265.956 20.0454 258.456 17.5454 234.456 9.54541Z" fill="#E56E90" stroke="black" stroke-width="0.5"/>
<path d="M271.456 28.0454C260.956 22.5454 241.956 16.0454 231.456 13.0454L229.456 15.5454L244.456 23.0454C242.956 25.5454 238.956 27.5454 232.956 30.2454C244.956 29.5454 261.956 28.5454 271.456 28.0454Z" fill="#E56E90" stroke="black" stroke-width="0.5"/>
<path d="M276.958 34.3454L282.956 32.0454L272.457 28.0454L228.457 30.5454C220.957 45.5454 205.957 76.0454 197.957 77.0454H212.457C210.957 66.0454 220.457 42.5454 245.458 51.5454C255.958 46.0454 265.958 40.5454 276.958 34.3454Z" fill="#E56E90" stroke="black" stroke-width="0.5"/>
<path d="M277.956 34.0454C265.956 40.5454 255.956 46.0454 245.456 51.5454C249.956 54.5454 260.456 60.5454 259.456 79.5454L284.456 79.0454V77.5454C292.956 76.5454 301.456 80.0454 299.956 66.0454L301.956 56.0454C301.956 54.5454 299.456 50.5454 296.956 50.0454C298.456 47.5454 295.456 38.5454 295.456 38.5454V37.0454L291.456 34.0454L286.456 32.5454L282.956 32.0454L277.956 34.0454Z" fill="#E56E90" stroke="black" stroke-width="0.5"/>
<path d="M280.956 26.5454L272.456 28.0454L282.956 32.0454C292.456 33.0454 291.455 34.5454 295.45 36.9656L294.956 28.5454L280.956 26.5454Z" fill="#E56E90"/>
<path d="M295.456 37.0454L295.45 36.9656M295.45 36.9656L294.956 28.5454L280.956 26.5454L272.456 28.0454L282.956 32.0454C292.456 33.0454 291.455 34.5454 295.45 36.9656Z" stroke="black" stroke-width="0.5"/>
<path d="M293.958 36.5456C293.458 34.0455 282.458 33.8454 276.958 34.3454" stroke="black" stroke-width="0.5"/>
<path d="M299.958 66.5454L260.458 68.5454C259.958 63.5454 257.791 59.3787 255.958 57.5454L301.958 55.0454M300.458 52.5454C289.458 51.0454 278.458 46.2454 266.458 40.2454M228.458 30.5454L272.458 28.0454L280.958 26.5454" stroke="black" stroke-width="0.5"/>
<path d="M290.458 40.5454C290.458 38.5454 289.458 34.5454 285.958 32.5454C288.179 32.5454 291.556 33.5858 294.067 35.9554C294.531 37.4854 293.458 41.0454 290.416 42.5454C290.403 41.9551 290.458 41.2697 290.458 40.5454Z" fill="#E56E90"/>
<path d="M272.458 43.0454C279.454 43.3952 285.471 43.5003 290.851 44.0454M297.458 45.0454C295.355 44.5948 293.162 44.2795 290.851 44.0454M295.458 37.5454C295.04 36.9603 294.571 36.4311 294.067 35.9554M290.851 44.0454C290.525 43.7006 290.431 43.1776 290.416 42.5454M290.416 42.5454C290.403 41.9551 290.458 41.2697 290.458 40.5454C290.458 38.5454 289.458 34.5454 285.958 32.5454C288.179 32.5454 291.556 33.5858 294.067 35.9554M290.416 42.5454C293.458 41.0454 294.531 37.4854 294.067 35.9554" stroke="black" stroke-width="0.5"/>
<path d="M290.458 40.5454C285.958 40.5454 283.958 36.5454 282.958 34.0454" stroke="black" stroke-width="0.5"/>
<path d="M132.456 12.6454C118.956 16.6454 106.956 22.5454 92.9561 35.5454C99.9561 23.5454 115.456 14.0454 130.956 9.04541L132.456 12.6454Z" fill="#EDADBF" stroke="black" stroke-width="0.5"/>
<path d="M130.956 9.04541C110.956 14.7194 92.9561 32.0454 84.9561 30.0454C97.9561 20.5454 113.956 12.0454 130.456 7.54541L130.956 9.04541Z" fill="#EDADBF" stroke="black" stroke-width="0.5"/>
<path d="M9.95672 48.0453H3.95672C1.45605 52.0453 1.45605 62.0453 1.95672 65.5453C0.456055 66.5453 0.456652 71.0453 1.45672 72.5453L5.45672 73.0453V74.5453L1.45672 76.5453V78.5453C5.45672 79.5453 13.9567 81.5453 21.9567 81.0453V79.5453H39.4567C38.7901 71.0453 40.4567 60.5453 49.4567 53.5453C46.9567 49.5453 39.9567 45.0453 36.9567 44.5453C26.9567 43.5453 11.9567 46.0453 9.95672 48.0453Z" fill="#EDADBF" stroke="black" stroke-width="0.5"/>
<path d="M92.958 35.5454C75.1247 36.3787 43.458 41.2454 32.958 44.2454L36.958 44.5454C41.958 46.0454 47.458 50.3787 49.458 53.5454C62.457 44.0454 87.957 51.0454 86.457 78.5454H96.457C89.457 67.5454 90.457 45.5454 92.958 35.5454Z" fill="#EDADBF" stroke="black" stroke-width="0.5"/>
<path d="M9.95606 48.0455H3.95605C36.4562 28.5454 58.4563 34.5454 84.4561 30.0454L93.4563 35.5454C76.4563 36.5454 47.4561 40.0454 33.4561 44.2454C25.4561 44.0454 11.4561 46.0454 9.95606 48.0455Z" fill="#EDADBF" stroke="black" stroke-width="0.5"/>
<path d="M36.9575 44.5455C29.4575 43.5454 12.4575 45.5454 9.95751 48.0455C9.15751 50.4454 12.2908 53.3787 13.9575 54.5454C23.4575 56.0454 36.9575 50.0454 36.9575 44.5455Z" fill="#EDADBF" stroke="black" stroke-width="0.5"/>
<path d="M3.95675 48.0454C10.9568 49.0454 4.95675 59.5454 1.95675 64.5454C1.45668 57.5454 1.95654 52.0454 3.95675 48.0454Z" fill="#EDADBF" stroke="black" stroke-width="0.5"/>
<path d="M21.9561 84.0454V79.5454H39.4561L39.9561 84.0454H21.9561Z" fill="#EDADBF" stroke="black" stroke-width="0.5"/>
<path d="M2.45801 65.5454C3.95801 68.0454 5.95801 71.2121 5.45801 73.0454M21.958 79.5454C11.458 80.0454 6.95801 76.0454 7.95801 72.5454C8.45801 72.0454 9.95801 70.5454 10.958 70.5454" stroke="black" stroke-width="0.5"/>
<path d="M31.958 74.5455C29.458 70.5455 23.958 65.5456 20.958 64.0456C19.208 63.5456 16.5829 63.6706 13.8328 64.0456C12.2079 65.3789 10.958 68.5455 11.458 71.5455C11.458 72.7122 12.7654 75.0455 15.458 75.0455C19.958 75.0455 26.958 75.5455 31.958 74.5455Z" fill="#EDADBF"/>
<path d="M5.95801 65.5456C8.20795 65.0456 11.0829 64.4206 13.8328 64.0456M13.8328 64.0456C16.5829 63.6706 19.208 63.5456 20.958 64.0456C23.958 65.5456 29.458 70.5455 31.958 74.5455C26.958 75.5455 19.958 75.0455 15.458 75.0455C12.7654 75.0455 11.458 72.7122 11.458 71.5455C10.958 68.5455 12.2079 65.3789 13.8328 64.0456Z" stroke="black" stroke-width="0.5"/>
<path d="M11.458 71.0456C19.458 69.5457 22.958 72.1741 25.958 73.6741M12.958 74.0457L30.458 73.5457" stroke="black" stroke-width="0.5"/>
<path d="M21.9561 82.5454H31.4561C33.4561 82.5454 34.9561 80.5454 34.4561 79.5454M37.9561 79.5454V84.0454" stroke="black" stroke-width="0.5"/>
<path d="M21.958 81.0457C17.458 81.0457 12.958 81.5457 1.45795 78.5457V76.5457L5.45795 74.5456V73.0457L1.45795 72.5457C0.957031 71.0454 -0.0427729 68.0454 1.95722 65.5454C1.45747 57.5454 1.95747 51.0454 3.95795 48.0452C36.458 28.5455 58.4579 34.5456 84.4579 30.0456C162.458 -24.9545 244.458 12.0454 281.458 26.5456L294.958 28.5454L295.458 35.5454V38.5454C296.956 43.5454 298.291 48.0454 296.958 50.0454C299.458 51.0454 301.958 54.2121 301.958 56.0454L299.958 66.0454C300.41 76.8933 298.002 77.1176 288.67 77.43C287.679 77.4632 285.61 77.4974 284.458 77.5454V79.0454L259.458 79.4764M21.958 81.0457V84.0457H39.9563L39.458 79.5457M21.958 81.0457V79.5457H39.458M39.458 79.5457C36.458 38.0457 89.9579 41.0457 86.4579 80.0457V82.5454H212.958C206.958 39.0454 261.458 39.0454 259.458 79.4764M258.956 79.4764H259.458" stroke="black"/>
</svg>
