<svg width="303" height="96" viewBox="0 0 303 96" fill="none" xmlns="http://www.w3.org/2000/svg">
<circle cx="62.8652" cy="74.3384" r="20.5" fill="#EFC7D3" stroke="black"/>
<circle cx="235.865" cy="74.3384" r="20.5" fill="#EFC7D3" stroke="black"/>
<path d="M132.863 12.8382L131.363 9.33823C171.363 1.33835 192.863 1.83838 231.863 13.3383L228.363 17.8383C208.363 9.83829 190.363 8.83829 174.363 8.33836C171.863 7.83836 167.863 7.83832 165.363 8.33823C155.363 8.33836 143.363 9.83836 132.863 12.8382Z" stroke="black" stroke-width="0.5"/>
<path d="M131.363 9.33842L130.863 7.83842C166.863 -3.16162 199.363 0.838253 234.863 9.83842L231.863 13.3384C191.863 0.838379 165.863 2.33838 131.363 9.33842Z" stroke="black" stroke-width="0.5"/>
<path d="M131.363 9.33837C182.863 -2.16166 211.363 7.83838 231.863 13.3384" stroke="black" stroke-width="0.5"/>
<path d="M226.865 30.8384L223.865 16.3384C219.365 14.8384 207.865 9.33838 174.365 8.33838L170.865 30.3384C181.865 29.8384 199.365 28.3384 226.365 28.3384" stroke="black" stroke-width="0.5"/>
<path d="M165.365 8.33838C132.365 9.33838 112.365 18.3384 93.3652 35.8384L95.8652 33.8384L159.865 30.8384L165.365 8.33838Z" stroke="black" stroke-width="0.5"/>
<path d="M239.863 22.8384C236.197 20.1717 230.363 17.8384 223.863 16.3384L226.363 28.3384H232.863C235.863 26.8384 238.863 24.6071 239.863 22.8384Z" stroke="black" stroke-width="0.5"/>
<path d="M96.8652 78.8384H163.865L198.365 77.3384M96.8652 78.8384C96.8652 80.3384 97.3652 81.3384 98.3652 82.8384M96.8652 78.8384H86.8652V82.8384H98.3652M198.365 77.3384L199.365 82.8384M198.365 77.3384H212.865L213.365 82.8384H199.365M199.365 82.8384H98.3652" stroke="black" stroke-width="0.5"/>
<path d="M96.8644 78.8384C92.3652 74.3384 89.3653 52.3384 93.3644 35.8384L165.365 31.8384C161.365 36.8384 160.365 70.8384 163.865 78.8384H96.8644Z" stroke="black" stroke-width="0.5"/>
<path d="M228.865 30.8384L165.365 31.8384C161.365 36.8384 160.365 70.8384 163.865 78.8384L198.365 77.3384C202.865 75.8384 209.365 70.3384 228.865 30.8384Z" stroke="black" stroke-width="0.5"/>
<path d="M170.865 30.3385C166.365 30.8385 162.865 30.8385 159.865 30.8385L165.365 8.33845C168.365 7.83838 171.365 7.83838 174.365 8.33845L170.865 30.3385Z" stroke="black" stroke-width="0.5"/>
<path d="M99.3652 32.3385C103.865 37.8385 110.865 34.3385 114.865 32.8385C115.865 17.3384 102.865 25.3384 99.3652 32.3385Z" stroke="black" stroke-width="0.5"/>
<path d="M234.863 9.83838L231.863 13.3384C248.863 18.8384 259.363 21.8384 271.863 28.3384H273.363L281.363 26.8384C266.363 20.3384 258.863 17.8384 234.863 9.83838Z" fill="#E56E90" stroke="black" stroke-width="0.5"/>
<path d="M271.863 28.3384C261.363 22.8384 242.363 16.3384 231.863 13.3384L229.863 15.8384L244.863 23.3384C243.363 25.8384 239.363 27.8384 233.363 30.5384C245.363 29.8384 262.363 28.8384 271.863 28.3384Z" fill="#E56E90" stroke="black" stroke-width="0.5"/>
<path d="M277.365 34.6384L283.364 32.3384L272.864 28.3384L228.864 30.8384C221.364 45.8384 206.364 76.3384 198.364 77.3384H212.864C211.364 66.3384 220.864 42.8384 245.865 51.8384C256.365 46.3384 266.365 40.8384 277.365 34.6384Z" fill="#E56E90" stroke="black" stroke-width="0.5"/>
<path d="M278.363 34.3384C266.363 40.8384 256.363 46.3384 245.863 51.8384C250.363 54.8384 260.863 60.8384 259.863 79.8384L284.863 79.3384V77.8384C293.363 76.8384 301.863 80.3384 300.363 66.3384L302.363 56.3384C302.363 54.8384 299.863 50.8384 297.363 50.3384C298.863 47.8384 295.863 38.8384 295.863 38.8384V37.3384L291.863 34.3384L286.863 32.8384L283.363 32.3384L278.363 34.3384Z" fill="#E56E90" stroke="black" stroke-width="0.5"/>
<path d="M281.363 26.8384L272.863 28.3384L283.363 32.3384C292.863 33.3384 291.862 34.8384 295.857 37.2586L295.363 28.8384L281.363 26.8384Z" fill="#E56E90"/>
<path d="M295.863 37.3384L295.857 37.2586M295.857 37.2586L295.363 28.8384L281.363 26.8384L272.863 28.3384L283.363 32.3384C292.863 33.3384 291.862 34.8384 295.857 37.2586Z" stroke="black" stroke-width="0.5"/>
<path d="M294.365 36.8386C293.865 34.3385 282.865 34.1384 277.365 34.6384" stroke="black" stroke-width="0.5"/>
<path d="M300.365 66.8384L260.865 68.8384C260.365 63.8384 258.199 59.6717 256.365 57.8384L302.365 55.3384M300.865 52.8384C289.865 51.3384 278.865 46.5384 266.865 40.5384M228.865 30.8384L272.865 28.3384L281.365 26.8384" stroke="black" stroke-width="0.5"/>
<path d="M290.865 40.8384C290.865 38.8384 289.865 34.8384 286.365 32.8384C288.586 32.8384 291.963 33.8788 294.474 36.2484C294.938 37.7784 293.865 41.3384 290.823 42.8384C290.81 42.2481 290.865 41.5627 290.865 40.8384Z" fill="#E56E90"/>
<path d="M272.865 43.3384C279.861 43.6882 285.878 43.7933 291.258 44.3384M297.865 45.3384C295.762 44.8877 293.569 44.5725 291.258 44.3384M295.865 37.8384C295.447 37.2533 294.978 36.724 294.474 36.2484M291.258 44.3384C290.932 43.9936 290.838 43.4706 290.823 42.8384M290.823 42.8384C290.81 42.2481 290.865 41.5627 290.865 40.8384C290.865 38.8384 289.865 34.8384 286.365 32.8384C288.586 32.8384 291.963 33.8788 294.474 36.2484M290.823 42.8384C293.865 41.3384 294.938 37.7784 294.474 36.2484" stroke="black" stroke-width="0.5"/>
<path d="M290.865 40.8384C286.365 40.8384 284.365 36.8384 283.365 34.3384" stroke="black" stroke-width="0.5"/>
<path d="M132.863 12.9384C119.363 16.9384 107.363 22.8384 93.3633 35.8384C100.363 23.8384 115.863 14.3384 131.363 9.33838L132.863 12.9384Z" fill="#EFC7D3" stroke="black" stroke-width="0.5"/>
<path d="M131.363 9.33838C111.363 15.0124 93.3633 32.3384 85.3633 30.3384C98.3633 20.8384 114.363 12.3384 130.863 7.83838L131.363 9.33838Z" fill="#EFC7D3" stroke="black" stroke-width="0.5"/>
<path d="M10.3639 48.3384H4.36395C1.86328 52.3384 1.86328 62.3384 2.36395 65.8384C0.863281 66.8384 0.863879 71.3384 1.86395 72.8384L5.86395 73.3384V74.8384L1.86395 76.8384V78.8384C5.86395 79.8384 14.3639 81.8384 22.3639 81.3384V79.8384H39.8639C39.1973 71.3384 40.8639 60.8384 49.8639 53.8384C47.3639 49.8384 40.3639 45.3384 37.3639 44.8384C27.3639 43.8384 12.3639 46.3384 10.3639 48.3384Z" fill="#EFC7D3" stroke="black" stroke-width="0.5"/>
<path d="M93.3652 35.8384C75.5319 36.6717 43.8652 41.5384 33.3652 44.5384L37.3652 44.8384C42.3652 46.3384 47.8652 50.6717 49.8652 53.8384C62.8643 44.3384 88.3643 51.3384 86.8643 78.8384H96.8643C89.8643 67.8384 90.8643 45.8384 93.3652 35.8384Z" fill="#EFC7D3" stroke="black" stroke-width="0.5"/>
<path d="M10.3633 48.3384H4.36328C36.8635 28.8383 58.8635 34.8384 84.8633 30.3384L93.8635 35.8384C76.8635 36.8384 47.8633 40.3384 33.8633 44.5384C25.8633 44.3384 11.8633 46.3384 10.3633 48.3384Z" fill="#EFC7D3" stroke="black" stroke-width="0.5"/>
<path d="M37.3647 44.8385C29.8647 43.8384 12.8647 45.8384 10.3647 48.3385C9.56474 50.7384 12.6981 53.6717 14.3647 54.8384C23.8647 56.3384 37.3647 50.3384 37.3647 44.8385Z" fill="#EFC7D3" stroke="black" stroke-width="0.5"/>
<path d="M4.36398 48.3384C11.364 49.3384 5.36398 59.8384 2.36398 64.8384C1.86391 57.8384 2.36377 52.3384 4.36398 48.3384Z" fill="#EFC7D3" stroke="black" stroke-width="0.5"/>
<path d="M22.3633 84.3384V79.8384H39.8633L40.3633 84.3384H22.3633Z" fill="#EFC7D3" stroke="black" stroke-width="0.5"/>
<path d="M2.86523 65.8384C4.36523 68.3384 6.36523 71.505 5.86523 73.3384M22.3652 79.8384C11.8652 80.3384 7.36523 76.3384 8.36523 72.8384C8.86523 72.3384 10.3652 70.8384 11.3652 70.8384" stroke="black" stroke-width="0.5"/>
<path d="M32.3652 74.8384C29.8652 70.8384 24.3652 65.8385 21.3652 64.3385C19.6152 63.8384 16.9901 63.9634 14.24 64.3385C12.6151 65.6718 11.3652 68.8384 11.8652 71.8384C11.8652 73.005 13.1727 75.3384 15.8652 75.3384C20.3652 75.3384 27.3652 75.8384 32.3652 74.8384Z" fill="#EFC7D3"/>
<path d="M6.36523 65.8385C8.61518 65.3384 11.4901 64.7135 14.24 64.3385M14.24 64.3385C16.9901 63.9634 19.6152 63.8384 21.3652 64.3385C24.3652 65.8385 29.8652 70.8384 32.3652 74.8384C27.3652 75.8384 20.3652 75.3384 15.8652 75.3384C13.1727 75.3384 11.8652 73.005 11.8652 71.8384C11.3652 68.8384 12.6151 65.6718 14.24 64.3385Z" stroke="black" stroke-width="0.5"/>
<path d="M11.8652 71.3385C19.8652 69.8385 23.3652 72.467 26.3652 73.967M13.3652 74.3385L30.8652 73.8385" stroke="black" stroke-width="0.5"/>
<path d="M22.3633 82.8384H31.8633C33.8633 82.8384 35.3633 80.8384 34.8633 79.8384M38.3633 79.8384V84.3384" stroke="black" stroke-width="0.5"/>
<path d="M22.3652 81.3386C17.8652 81.3386 13.3652 81.8386 1.86518 78.8386V76.8386L5.86518 74.8386V73.3386L1.86518 72.8386C1.36426 71.3384 0.364454 68.3384 2.36445 65.8384C1.86469 57.8384 2.36469 51.3384 4.36518 48.3381C36.8652 28.8385 58.8652 34.8386 84.8652 30.3386C162.865 -24.6615 244.865 12.3384 281.865 26.8386L295.365 28.8384L295.865 35.8384V38.8384C297.364 43.8384 298.699 48.3384 297.365 50.3384C299.865 51.3384 302.365 54.505 302.365 56.3384L300.365 66.3384C300.817 77.1863 298.409 77.4106 289.077 77.723C288.086 77.7562 286.017 77.7904 284.865 77.8384V79.3384L259.865 79.7694M22.3652 81.3386V84.3386H40.3635L39.8652 79.8386M22.3652 81.3386V79.8386H39.8652M39.8652 79.8386C36.8652 38.3386 90.3652 41.3386 86.8652 80.3386V82.8384H213.365C207.365 39.3384 261.865 39.3384 259.865 79.7694M259.364 79.7694H259.865" stroke="black"/>
</svg>
