<svg width="304" height="96" viewBox="0 0 304 96" fill="none" xmlns="http://www.w3.org/2000/svg">
<circle cx="63.0835" cy="74.1843" r="20.5" fill="#EDADBF" stroke="black"/>
<circle cx="236.083" cy="74.1843" r="20.5" fill="#EDADBF" stroke="black"/>
<path d="M133.082 12.6842L131.582 9.18418C171.582 1.18429 193.082 1.68433 232.082 13.1843L228.582 17.6843C208.582 9.68424 190.582 8.68423 174.582 8.1843C172.082 7.6843 168.082 7.68427 165.582 8.18418C155.582 8.1843 143.582 9.6843 133.082 12.6842Z" fill="#EFC7D3" stroke="black" stroke-width="0.5"/>
<path d="M131.582 9.18437L131.082 7.68437C167.082 -3.31567 199.582 0.6842 235.082 9.68437L232.082 13.1844C192.082 0.684326 166.082 2.18433 131.582 9.18437Z" fill="#EFC7D3" stroke="black" stroke-width="0.5"/>
<path d="M131.582 9.18431C183.082 -2.31571 211.582 7.68433 232.082 13.1843" stroke="black" stroke-width="0.5"/>
<path d="M171.083 30.1843L174.583 8.18433C208.083 9.18433 219.583 14.6843 224.083 16.1843L226.566 28.1843C199.576 28.185 182.081 29.6844 171.083 30.1843Z" fill="#EFC7D3"/>
<path d="M227.083 30.6843L224.083 16.1843C219.583 14.6843 208.083 9.18433 174.583 8.18433L171.083 30.1843C182.083 29.6843 199.583 28.1843 226.583 28.1843" stroke="black" stroke-width="0.5"/>
<path d="M165.583 8.18433C132.583 9.18433 112.583 18.1843 93.5835 35.6843L96.0835 33.6843L160.083 30.6843L165.583 8.18433Z" fill="#EFC7D3" stroke="black" stroke-width="0.5"/>
<path d="M240.082 22.6843C236.415 20.0177 230.582 17.6843 224.082 16.1843L226.582 28.1843H233.082C236.082 26.6843 239.082 24.4531 240.082 22.6843Z" fill="#EFC7D3" stroke="black" stroke-width="0.5"/>
<path d="M97.0835 78.6843H164.083L198.583 77.1843H213.083L213.583 82.6843H199.583H98.5835H87.0835V78.6843H97.0835Z" fill="#EFC7D3"/>
<path d="M97.0835 78.6843H164.083L198.583 77.1843M97.0835 78.6843C97.0835 80.1843 97.5835 81.1843 98.5835 82.6843M97.0835 78.6843H87.0835V82.6843H98.5835M198.583 77.1843L199.583 82.6843M198.583 77.1843H213.083L213.583 82.6843H199.583M199.583 82.6843H98.5835" stroke="black" stroke-width="0.5"/>
<path d="M97.0826 78.6843C92.5835 74.1843 89.5835 52.1843 93.5826 35.6843L165.583 31.6843C161.583 36.6843 160.583 70.6843 164.083 78.6843H97.0826Z" fill="#EFC7D3" stroke="black" stroke-width="0.5"/>
<path d="M229.083 30.6843L165.583 31.6843C161.583 36.6843 160.583 70.6843 164.083 78.6843L198.583 77.1843C203.083 75.6843 209.583 70.1843 229.083 30.6843Z" fill="#EFC7D3" stroke="black" stroke-width="0.5"/>
<path d="M171.083 30.1844C166.583 30.6844 163.083 30.6844 160.083 30.6844L165.583 8.1844C168.583 7.68433 171.583 7.68433 174.583 8.1844L171.083 30.1844Z" fill="#EFC7D3" stroke="black" stroke-width="0.5"/>
<path d="M99.5835 32.1845C104.083 37.6845 111.083 34.1845 115.083 32.6845C116.083 17.1843 103.083 25.1843 99.5835 32.1845Z" fill="#EFC7D3" stroke="black" stroke-width="0.5"/>
<path d="M235.082 9.68433L232.082 13.1843C249.082 18.6843 259.582 21.6843 272.082 28.1843H273.582L281.582 26.6843C266.582 20.1843 259.082 17.6843 235.082 9.68433Z" fill="#EFC7D3" stroke="black" stroke-width="0.5"/>
<path d="M272.082 28.1843C261.582 22.6843 242.582 16.1843 232.082 13.1843L230.082 15.6843L245.082 23.1843C243.582 25.6843 239.582 27.6843 233.582 30.3843C245.582 29.6843 262.582 28.6843 272.082 28.1843Z" fill="#EFC7D3" stroke="black" stroke-width="0.5"/>
<path d="M277.583 34.4843L283.582 32.1843L273.083 28.1843L229.083 30.6843C221.583 45.6843 206.583 76.1843 198.583 77.1843H213.083C211.583 66.1843 221.083 42.6843 246.083 51.6843C256.583 46.1843 266.583 40.6843 277.583 34.4843Z" fill="#EFC7D3" stroke="black" stroke-width="0.5"/>
<path d="M278.582 34.1844C266.582 40.6844 256.582 46.1844 246.082 51.6844C250.582 54.6843 261.082 60.6843 260.082 79.6843L285.082 79.1843V77.6843C293.582 76.6843 302.082 80.1843 300.582 66.1843L302.582 56.1843C302.582 54.6843 300.082 50.6843 297.582 50.1843C299.082 47.6843 296.082 38.6843 296.082 38.6843V37.1843L292.082 34.1843L287.082 32.6843L283.582 32.1843L278.582 34.1844Z" fill="#EFC7D3" stroke="black" stroke-width="0.5"/>
<path d="M281.582 26.6843L273.082 28.1843L283.582 32.1843C293.082 33.1843 292.081 34.6843 296.076 37.1045L295.582 28.6843L281.582 26.6843Z" fill="#EFC7D3"/>
<path d="M296.082 37.1843L296.076 37.1045M296.076 37.1045L295.582 28.6843L281.582 26.6843L273.082 28.1843L283.582 32.1843C293.082 33.1843 292.081 34.6843 296.076 37.1045Z" stroke="black" stroke-width="0.5"/>
<path d="M294.583 36.6845C294.083 34.1844 283.083 33.9843 277.583 34.4843" stroke="black" stroke-width="0.5"/>
<path d="M300.583 66.6843L261.083 68.6843C260.583 63.6843 258.417 59.5177 256.583 57.6843L302.583 55.1843M301.083 52.6843C290.083 51.1843 279.083 46.3843 267.083 40.3843M229.083 30.6843L273.083 28.1843L281.583 26.6843" stroke="black" stroke-width="0.5"/>
<path d="M291.083 40.6843C291.083 38.6843 290.083 34.6843 286.583 32.6843C288.804 32.6843 292.181 33.7247 294.692 36.0943C295.156 37.6243 294.083 41.1843 291.042 42.6843C291.028 42.094 291.083 41.4086 291.083 40.6843Z" fill="#EFC7D3"/>
<path d="M273.083 43.1843C280.079 43.5341 286.096 43.6392 291.477 44.1843M298.083 45.1843C295.981 44.7337 293.787 44.4184 291.477 44.1843M296.083 37.6843C295.666 37.0992 295.196 36.57 294.692 36.0943M291.477 44.1843C291.15 43.8396 291.056 43.3165 291.042 42.6843M291.042 42.6843C291.028 42.094 291.083 41.4086 291.083 40.6843C291.083 38.6843 290.083 34.6843 286.583 32.6843C288.804 32.6843 292.181 33.7247 294.692 36.0943M291.042 42.6843C294.083 41.1843 295.156 37.6243 294.692 36.0943" stroke="black" stroke-width="0.5"/>
<path d="M291.083 40.6843C286.583 40.6843 284.583 36.6843 283.583 34.1843" stroke="black" stroke-width="0.5"/>
<path d="M133.082 12.7843C119.582 16.7843 107.582 22.6843 93.582 35.6843C100.582 23.6843 116.082 14.1843 131.582 9.18433L133.082 12.7843Z" fill="#EFC7D3" stroke="black" stroke-width="0.5"/>
<path d="M131.582 9.18433C111.582 14.8584 93.582 32.1843 85.582 30.1843C98.582 20.6843 114.582 12.1843 131.082 7.68433L131.582 9.18433Z" fill="#EFC7D3" stroke="black" stroke-width="0.5"/>
<path d="M10.5827 48.1843H4.5827C2.08203 52.1843 2.08203 62.1843 2.5827 65.6843C1.08203 66.6843 1.08263 71.1843 2.0827 72.6843L6.0827 73.1843V74.6843L2.0827 76.6843V78.6843C6.0827 79.6843 14.5827 81.6843 22.5827 81.1843V79.6843H40.0827C39.416 71.1843 41.0827 60.6843 50.0827 53.6843C47.5827 49.6843 40.5827 45.1843 37.5827 44.6843C27.5827 43.6843 12.5827 46.1843 10.5827 48.1843Z" fill="#EFC7D3" stroke="black" stroke-width="0.5"/>
<path d="M93.5835 35.6843C75.7502 36.5177 44.0835 41.3843 33.5835 44.3843L37.5835 44.6843C42.5835 46.1843 48.0835 50.5177 50.0835 53.6843C63.0825 44.1843 88.5825 51.1843 87.0825 78.6843H97.0825C90.0825 67.6843 91.0825 45.6843 93.5835 35.6843Z" fill="#EFC7D3" stroke="black" stroke-width="0.5"/>
<path d="M10.582 48.1844H4.58203C37.0822 28.6843 59.0823 34.6843 85.082 30.1843L94.0823 35.6843C77.0823 36.6843 48.082 40.1843 34.082 44.3843C26.082 44.1843 12.082 46.1843 10.582 48.1844Z" fill="#EFC7D3" stroke="black" stroke-width="0.5"/>
<path d="M37.5835 44.6844C30.0835 43.6843 13.0835 45.6843 10.5835 48.1844C9.78349 50.5843 12.9168 53.5177 14.5835 54.6843C24.0835 56.1843 37.5835 50.1843 37.5835 44.6844Z" fill="#EFC7D3" stroke="black" stroke-width="0.5"/>
<path d="M4.58273 48.1843C11.5827 49.1843 5.58273 59.6843 2.58273 64.6843C2.08266 57.6843 2.58252 52.1843 4.58273 48.1843Z" fill="#EFC7D3" stroke="black" stroke-width="0.5"/>
<path d="M22.582 84.1843V79.6843H40.082L40.582 84.1843H22.582Z" fill="#EFC7D3" stroke="black" stroke-width="0.5"/>
<path d="M3.08398 65.6843C4.58398 68.1843 6.58398 71.351 6.08398 73.1843M22.584 79.6843C12.084 80.1843 7.58398 76.1843 8.58398 72.6843C9.08398 72.1843 10.584 70.6843 11.584 70.6843" stroke="black" stroke-width="0.5"/>
<path d="M32.584 74.6843C30.084 70.6843 24.584 65.6844 21.584 64.1844C19.8339 63.6844 17.2088 63.8094 14.4588 64.1844C12.8338 65.5177 11.584 68.6843 12.084 71.6843C12.084 72.851 13.3914 75.1843 16.084 75.1843C20.584 75.1843 27.584 75.6843 32.584 74.6843Z" fill="#EFC7D3"/>
<path d="M6.58398 65.6844C8.83393 65.1844 11.7088 64.5594 14.4588 64.1844M14.4588 64.1844C17.2088 63.8094 19.8339 63.6844 21.584 64.1844C24.584 65.6844 30.084 70.6843 32.584 74.6843C27.584 75.6843 20.584 75.1843 16.084 75.1843C13.3914 75.1843 12.084 72.851 12.084 71.6843C11.584 68.6843 12.8338 65.5177 14.4588 64.1844Z" stroke="black" stroke-width="0.5"/>
<path d="M12.084 71.1844C20.084 69.6844 23.584 72.3129 26.584 73.8129M13.584 74.1844L31.084 73.6844" stroke="black" stroke-width="0.5"/>
<path d="M22.582 82.6843H32.082C34.082 82.6843 35.582 80.6843 35.082 79.6843M38.582 79.6843V84.1843" stroke="black" stroke-width="0.5"/>
<path d="M22.5834 81.1846C18.0834 81.1846 13.5834 81.6846 2.08344 78.6846V76.6846L6.08344 74.6846V73.1846L2.08344 72.6846C1.58252 71.1843 0.582715 68.1843 2.58271 65.6843C2.08295 57.6843 2.58295 51.1843 4.58344 48.1841C37.0834 28.6845 59.0834 34.6845 85.0834 30.1845C163.083 -24.8156 245.083 12.1843 282.083 26.6845L295.583 28.6843L296.083 35.6843V38.6843C297.582 43.6843 298.917 48.1843 297.583 50.1843C300.083 51.1843 302.583 54.351 302.583 56.1843L300.583 66.1843C301.035 77.0322 298.627 77.2565 289.296 77.569C288.305 77.6021 286.236 77.6363 285.083 77.6843V79.1843L260.083 79.6154M22.5834 81.1846V84.1846H40.5818L40.0835 79.6846M22.5834 81.1846V79.6846H40.0835M40.0835 79.6846C37.0835 38.1846 90.5834 41.1846 87.0834 80.1846V82.6843H213.583C207.583 39.1843 262.083 39.1843 260.083 79.6154M259.582 79.6154H260.083" stroke="black"/>
</svg>
