<svg width="303" height="96" viewBox="0 0 303 96" fill="none" xmlns="http://www.w3.org/2000/svg">
<circle cx="62.4697" cy="74.3384" r="20.5" fill="#E0426F" stroke="black"/>
<circle cx="235.47" cy="74.3384" r="20.5" fill="#E0426F" stroke="black"/>
<path d="M132.468 12.8382L130.968 9.33823C170.968 1.33835 192.468 1.83838 231.468 13.3383L227.968 17.8383C207.968 9.83829 189.968 8.83829 173.968 8.33836C171.468 7.83836 167.468 7.83832 164.968 8.33823C154.968 8.33836 142.968 9.83836 132.468 12.8382Z" stroke="black" stroke-width="0.5"/>
<path d="M130.968 9.33842L130.468 7.83842C166.468 -3.16162 198.968 0.838253 234.468 9.83842L231.468 13.3384C191.468 0.838379 165.468 2.33838 130.968 9.33842Z" stroke="black" stroke-width="0.5"/>
<path d="M130.968 9.33837C182.468 -2.16166 210.968 7.83838 231.468 13.3384" stroke="black" stroke-width="0.5"/>
<path d="M226.47 30.8384L223.47 16.3384C218.97 14.8384 207.47 9.33838 173.97 8.33838L170.47 30.3384C181.47 29.8384 198.97 28.3384 225.97 28.3384" stroke="black" stroke-width="0.5"/>
<path d="M164.97 8.33838C131.97 9.33838 111.97 18.3384 92.9697 35.8384L95.4697 33.8384L159.47 30.8384L164.97 8.33838Z" stroke="black" stroke-width="0.5"/>
<path d="M239.468 22.8384C235.801 20.1717 229.968 17.8384 223.468 16.3384L225.968 28.3384H232.468C235.468 26.8384 238.468 24.6071 239.468 22.8384Z" stroke="black" stroke-width="0.5"/>
<path d="M96.4697 78.8384H163.47L197.97 77.3384M96.4697 78.8384C96.4697 80.3384 96.9697 81.3384 97.9697 82.8384M96.4697 78.8384H86.4697V82.8384H97.9697M197.97 77.3384L198.97 82.8384M197.97 77.3384H212.47L212.97 82.8384H198.97M198.97 82.8384H97.9697" stroke="black" stroke-width="0.5"/>
<path d="M96.4689 78.8384C91.9697 74.3384 88.9698 52.3384 92.9689 35.8384L164.97 31.8384C160.97 36.8384 159.97 70.8384 163.47 78.8384H96.4689Z" stroke="black" stroke-width="0.5"/>
<path d="M228.47 30.8384L164.97 31.8384C160.97 36.8384 159.97 70.8384 163.47 78.8384L197.97 77.3384C202.47 75.8384 208.97 70.3384 228.47 30.8384Z" stroke="black" stroke-width="0.5"/>
<path d="M170.47 30.3385C165.97 30.8385 162.47 30.8385 159.47 30.8385L164.97 8.33845C167.97 7.83838 170.97 7.83838 173.97 8.33845L170.47 30.3385Z" stroke="black" stroke-width="0.5"/>
<path d="M98.9697 32.3385C103.47 37.8385 110.47 34.3385 114.47 32.8385C115.47 17.3384 102.47 25.3384 98.9697 32.3385Z" stroke="black" stroke-width="0.5"/>
<path d="M234.468 9.83838L231.468 13.3384C248.468 18.8384 258.968 21.8384 271.468 28.3384H272.968L280.968 26.8384C265.968 20.3384 258.468 17.8384 234.468 9.83838Z" fill="#EDADBF" stroke="black" stroke-width="0.5"/>
<path d="M271.468 28.3384C260.968 22.8384 241.968 16.3384 231.468 13.3384L229.468 15.8384L244.468 23.3384C242.968 25.8384 238.968 27.8384 232.968 30.5384C244.968 29.8384 261.968 28.8384 271.468 28.3384Z" fill="#EDADBF" stroke="black" stroke-width="0.5"/>
<path d="M276.97 34.6384L282.968 32.3384L272.469 28.3384L228.469 30.8384C220.969 45.8384 205.969 76.3384 197.969 77.3384H212.469C210.969 66.3384 220.469 42.8384 245.47 51.8384C255.97 46.3384 265.97 40.8384 276.97 34.6384Z" fill="#EDADBF" stroke="black" stroke-width="0.5"/>
<path d="M277.968 34.3384C265.968 40.8384 255.968 46.3384 245.468 51.8384C249.968 54.8384 260.468 60.8384 259.468 79.8384L284.468 79.3384V77.8384C292.968 76.8384 301.468 80.3384 299.968 66.3384L301.968 56.3384C301.968 54.8384 299.468 50.8384 296.968 50.3384C298.468 47.8384 295.468 38.8384 295.468 38.8384V37.3384L291.468 34.3384L286.468 32.8384L282.968 32.3384L277.968 34.3384Z" fill="#EDADBF" stroke="black" stroke-width="0.5"/>
<path d="M280.968 26.8384L272.468 28.3384L282.968 32.3384C292.468 33.3384 291.467 34.8384 295.462 37.2586L294.968 28.8384L280.968 26.8384Z" fill="#EDADBF"/>
<path d="M295.468 37.3384L295.462 37.2586M295.462 37.2586L294.968 28.8384L280.968 26.8384L272.468 28.3384L282.968 32.3384C292.468 33.3384 291.467 34.8384 295.462 37.2586Z" stroke="black" stroke-width="0.5"/>
<path d="M293.97 36.8386C293.47 34.3385 282.47 34.1384 276.97 34.6384" stroke="black" stroke-width="0.5"/>
<path d="M299.97 66.8384L260.47 68.8384C259.97 63.8384 257.803 59.6717 255.97 57.8384L301.97 55.3384M300.47 52.8384C289.47 51.3384 278.47 46.5384 266.47 40.5384M228.47 30.8384L272.47 28.3384L280.97 26.8384" stroke="black" stroke-width="0.5"/>
<path d="M290.47 40.8384C290.47 38.8384 289.47 34.8384 285.97 32.8384C288.191 32.8384 291.567 33.8788 294.079 36.2484C294.542 37.7784 293.47 41.3384 290.428 42.8384C290.414 42.2481 290.47 41.5627 290.47 40.8384Z" fill="#EDADBF"/>
<path d="M272.47 43.3384C279.465 43.6882 285.482 43.7933 290.863 44.3384M297.47 45.3384C295.367 44.8877 293.173 44.5725 290.863 44.3384M295.47 37.8384C295.052 37.2533 294.583 36.724 294.079 36.2484M290.863 44.3384C290.537 43.9936 290.443 43.4706 290.428 42.8384M290.428 42.8384C290.414 42.2481 290.47 41.5627 290.47 40.8384C290.47 38.8384 289.47 34.8384 285.97 32.8384C288.191 32.8384 291.567 33.8788 294.079 36.2484M290.428 42.8384C293.47 41.3384 294.542 37.7784 294.079 36.2484" stroke="black" stroke-width="0.5"/>
<path d="M290.47 40.8384C285.97 40.8384 283.97 36.8384 282.97 34.3384" stroke="black" stroke-width="0.5"/>
<path d="M132.468 12.9384C118.968 16.9384 106.968 22.8384 92.9678 35.8384C99.9678 23.8384 115.468 14.3384 130.968 9.33838L132.468 12.9384Z" fill="#EFC7D3" stroke="black" stroke-width="0.5"/>
<path d="M130.968 9.33838C110.968 15.0124 92.9678 32.3384 84.9678 30.3384C97.9678 20.8384 113.968 12.3384 130.468 7.83838L130.968 9.33838Z" fill="#EFC7D3" stroke="black" stroke-width="0.5"/>
<path d="M9.96844 48.3384H3.96844C1.46777 52.3384 1.46777 62.3384 1.96844 65.8384C0.467773 66.8384 0.468371 71.3384 1.46844 72.8384L5.46844 73.3384V74.8384L1.46844 76.8384V78.8384C5.46844 79.8384 13.9684 81.8384 21.9684 81.3384V79.8384H39.4684C38.8018 71.3384 40.4684 60.8384 49.4684 53.8384C46.9684 49.8384 39.9684 45.3384 36.9684 44.8384C26.9684 43.8384 11.9684 46.3384 9.96844 48.3384Z" fill="#EFC7D3" stroke="black" stroke-width="0.5"/>
<path d="M92.9697 35.8384C75.1364 36.6717 43.4697 41.5384 32.9697 44.5384L36.9697 44.8384C41.9697 46.3384 47.4697 50.6717 49.4697 53.8384C62.4688 44.3384 87.9688 51.3384 86.4688 78.8384H96.4688C89.4688 67.8384 90.4688 45.8384 92.9697 35.8384Z" fill="#EFC7D3" stroke="black" stroke-width="0.5"/>
<path d="M9.96777 48.3384H3.96777C36.468 28.8383 58.468 34.8384 84.4678 30.3384L93.468 35.8384C76.468 36.8384 47.4678 40.3384 33.4678 44.5384C25.4678 44.3384 11.4678 46.3384 9.96777 48.3384Z" fill="#EFC7D3" stroke="black" stroke-width="0.5"/>
<path d="M36.9692 44.8385C29.4692 43.8384 12.4692 45.8384 9.96923 48.3385C9.16923 50.7384 12.3026 53.6717 13.9692 54.8384C23.4692 56.3384 36.9692 50.3384 36.9692 44.8385Z" fill="#EFC7D3" stroke="black" stroke-width="0.5"/>
<path d="M3.96847 48.3384C10.9685 49.3384 4.96847 59.8384 1.96847 64.8384C1.4684 57.8384 1.96826 52.3384 3.96847 48.3384Z" fill="#EFC7D3" stroke="black" stroke-width="0.5"/>
<path d="M21.9678 84.3384V79.8384H39.4678L39.9678 84.3384H21.9678Z" fill="#EFC7D3" stroke="black" stroke-width="0.5"/>
<path d="M2.46973 65.8384C3.96973 68.3384 5.96973 71.505 5.46973 73.3384M21.9697 79.8384C11.4697 80.3384 6.96973 76.3384 7.96973 72.8384C8.46973 72.3384 9.96973 70.8384 10.9697 70.8384" stroke="black" stroke-width="0.5"/>
<path d="M31.9697 74.8384C29.4697 70.8384 23.9697 65.8385 20.9697 64.3385C19.2197 63.8384 16.5946 63.9634 13.8445 64.3385C12.2196 65.6718 10.9697 68.8384 11.4697 71.8384C11.4697 73.005 12.7771 75.3384 15.4697 75.3384C19.9697 75.3384 26.9697 75.8384 31.9697 74.8384Z" fill="#EFC7D3"/>
<path d="M5.96973 65.8385C8.21967 65.3384 11.0946 64.7135 13.8445 64.3385M13.8445 64.3385C16.5946 63.9634 19.2197 63.8384 20.9697 64.3385C23.9697 65.8385 29.4697 70.8384 31.9697 74.8384C26.9697 75.8384 19.9697 75.3384 15.4697 75.3384C12.7771 75.3384 11.4697 73.005 11.4697 71.8384C10.9697 68.8384 12.2196 65.6718 13.8445 64.3385Z" stroke="black" stroke-width="0.5"/>
<path d="M11.4697 71.3385C19.4697 69.8385 22.9697 72.467 25.9697 73.967M12.9697 74.3385L30.4697 73.8385" stroke="black" stroke-width="0.5"/>
<path d="M21.9678 82.8384H31.4678C33.4678 82.8384 34.9678 80.8384 34.4678 79.8384M37.9678 79.8384V84.3384" stroke="black" stroke-width="0.5"/>
<path d="M21.9697 81.3386C17.4697 81.3386 12.9697 81.8386 1.46967 78.8386V76.8386L5.46967 74.8386V73.3386L1.46967 72.8386C0.96875 71.3384 -0.0310541 68.3384 1.96894 65.8384C1.46918 57.8384 1.96918 51.3384 3.96967 48.3381C36.4697 28.8385 58.4697 34.8386 84.4697 30.3386C162.47 -24.6615 244.47 12.3384 281.47 26.8386L294.97 28.8384L295.47 35.8384V38.8384C296.968 43.8384 298.303 48.3384 296.97 50.3384C299.47 51.3384 301.97 54.505 301.97 56.3384L299.97 66.3384C300.422 77.1863 298.013 77.4106 288.682 77.723C287.691 77.7562 285.622 77.7904 284.47 77.8384V79.3384L259.47 79.7694M21.9697 81.3386V84.3386H39.968L39.4697 79.8386M21.9697 81.3386V79.8386H39.4697M39.4697 79.8386C36.4697 38.3386 89.9697 41.3386 86.4697 80.3386V82.8384H212.97C206.97 39.3384 261.47 39.3384 259.47 79.7694M258.968 79.7694H259.47" stroke="black"/>
</svg>
