<svg width="303" height="96" viewBox="0 0 303 96" fill="none" xmlns="http://www.w3.org/2000/svg">
<circle cx="62.2725" cy="74.3384" r="20.5" fill="#E56E90" stroke="black"/>
<circle cx="235.272" cy="74.3384" r="20.5" fill="#E56E90" stroke="black"/>
<path d="M132.271 12.8382L130.771 9.33823C170.771 1.33835 192.271 1.83838 231.271 13.3383L227.771 17.8383C207.771 9.83829 189.771 8.83829 173.771 8.33836C171.271 7.83836 167.271 7.83832 164.771 8.33823C154.771 8.33836 142.771 9.83836 132.271 12.8382Z" stroke="black" stroke-width="0.5"/>
<path d="M130.771 9.33842L130.271 7.83842C166.271 -3.16162 198.771 0.838253 234.271 9.83842L231.271 13.3384C191.271 0.838379 165.271 2.33838 130.771 9.33842Z" stroke="black" stroke-width="0.5"/>
<path d="M130.771 9.33837C182.271 -2.16166 210.771 7.83838 231.271 13.3384" stroke="black" stroke-width="0.5"/>
<path d="M226.272 30.8384L223.272 16.3384C218.772 14.8384 207.272 9.33838 173.772 8.33838L170.272 30.3384C181.272 29.8384 198.772 28.3384 225.772 28.3384" stroke="black" stroke-width="0.5"/>
<path d="M164.772 8.33838C131.772 9.33838 111.772 18.3384 92.7725 35.8384L95.2725 33.8384L159.272 30.8384L164.772 8.33838Z" stroke="black" stroke-width="0.5"/>
<path d="M239.271 22.8384C235.604 20.1717 229.771 17.8384 223.271 16.3384L225.771 28.3384H232.271C235.271 26.8384 238.271 24.6071 239.271 22.8384Z" stroke="black" stroke-width="0.5"/>
<path d="M96.2725 78.8384H163.272L197.772 77.3384M96.2725 78.8384C96.2725 80.3384 96.7725 81.3384 97.7725 82.8384M96.2725 78.8384H86.2725V82.8384H97.7725M197.772 77.3384L198.772 82.8384M197.772 77.3384H212.272L212.772 82.8384H198.772M198.772 82.8384H97.7725" stroke="black" stroke-width="0.5"/>
<path d="M96.2716 78.8384C91.7725 74.3384 88.7725 52.3384 92.7716 35.8384L164.772 31.8384C160.772 36.8384 159.772 70.8384 163.272 78.8384H96.2716Z" stroke="black" stroke-width="0.5"/>
<path d="M228.272 30.8384L164.772 31.8384C160.773 36.8384 159.773 70.8384 163.272 78.8384L197.772 77.3384C202.272 75.8384 208.772 70.3384 228.272 30.8384Z" stroke="black" stroke-width="0.5"/>
<path d="M170.272 30.3385C165.772 30.8385 162.272 30.8385 159.272 30.8385L164.772 8.33845C167.772 7.83838 170.772 7.83838 173.772 8.33845L170.272 30.3385Z" stroke="black" stroke-width="0.5"/>
<path d="M98.7725 32.3385C103.272 37.8385 110.272 34.3385 114.272 32.8385C115.272 17.3384 102.272 25.3384 98.7725 32.3385Z" stroke="black" stroke-width="0.5"/>
<path d="M234.271 9.83838L231.271 13.3384C248.271 18.8384 258.771 21.8384 271.271 28.3384H272.771L280.771 26.8384C265.771 20.3384 258.271 17.8384 234.271 9.83838Z" fill="#EDADBF" stroke="black" stroke-width="0.5"/>
<path d="M271.271 28.3384C260.771 22.8384 241.771 16.3384 231.271 13.3384L229.271 15.8384L244.271 23.3384C242.771 25.8384 238.771 27.8384 232.771 30.5384C244.771 29.8384 261.771 28.8384 271.271 28.3384Z" fill="#EDADBF" stroke="black" stroke-width="0.5"/>
<path d="M276.772 34.6384L282.771 32.3384L272.271 28.3384L228.271 30.8384C220.771 45.8384 205.771 76.3384 197.771 77.3384H212.271C210.771 66.3384 220.271 42.8384 245.272 51.8384C255.772 46.3384 265.772 40.8384 276.772 34.6384Z" fill="#EDADBF" stroke="black" stroke-width="0.5"/>
<path d="M277.771 34.3384C265.771 40.8384 255.771 46.3384 245.271 51.8384C249.771 54.8384 260.271 60.8384 259.271 79.8384L284.271 79.3384V77.8384C292.771 76.8384 301.271 80.3384 299.771 66.3384L301.771 56.3384C301.771 54.8384 299.271 50.8384 296.771 50.3384C298.271 47.8384 295.271 38.8384 295.271 38.8384V37.3384L291.271 34.3384L286.271 32.8384L282.771 32.3384L277.771 34.3384Z" fill="#EDADBF" stroke="black" stroke-width="0.5"/>
<path d="M280.771 26.8384L272.271 28.3384L282.771 32.3384C292.271 33.3384 291.269 34.8384 295.265 37.2586L294.771 28.8384L280.771 26.8384Z" fill="#EDADBF"/>
<path d="M295.271 37.3384L295.265 37.2586M295.265 37.2586L294.771 28.8384L280.771 26.8384L272.271 28.3384L282.771 32.3384C292.271 33.3384 291.269 34.8384 295.265 37.2586Z" stroke="black" stroke-width="0.5"/>
<path d="M293.772 36.8386C293.272 34.3385 282.272 34.1384 276.772 34.6384" stroke="black" stroke-width="0.5"/>
<path d="M299.772 66.8384L260.272 68.8384C259.772 63.8384 257.606 59.6717 255.772 57.8384L301.772 55.3384M300.272 52.8384C289.272 51.3384 278.272 46.5384 266.272 40.5384M228.272 30.8384L272.272 28.3384L280.772 26.8384" stroke="black" stroke-width="0.5"/>
<path d="M290.272 40.8384C290.272 38.8384 289.272 34.8384 285.772 32.8384C287.993 32.8384 291.37 33.8788 293.881 36.2484C294.345 37.7784 293.272 41.3384 290.231 42.8384C290.217 42.2481 290.272 41.5627 290.272 40.8384Z" fill="#EDADBF"/>
<path d="M272.272 43.3384C279.268 43.6882 285.285 43.7933 290.666 44.3384M297.272 45.3384C295.169 44.8877 292.976 44.5725 290.666 44.3384M295.272 37.8384C294.855 37.2533 294.385 36.724 293.881 36.2484M290.666 44.3384C290.339 43.9936 290.245 43.4706 290.231 42.8384M290.231 42.8384C290.217 42.2481 290.272 41.5627 290.272 40.8384C290.272 38.8384 289.272 34.8384 285.772 32.8384C287.993 32.8384 291.37 33.8788 293.881 36.2484M290.231 42.8384C293.272 41.3384 294.345 37.7784 293.881 36.2484" stroke="black" stroke-width="0.5"/>
<path d="M290.272 40.8384C285.772 40.8384 283.772 36.8384 282.772 34.3384" stroke="black" stroke-width="0.5"/>
<path d="M132.271 12.9384C118.771 16.9384 106.771 22.8384 92.7705 35.8384C99.7705 23.8384 115.271 14.3384 130.771 9.33838L132.271 12.9384Z" fill="#EFC7D3" stroke="black" stroke-width="0.5"/>
<path d="M130.771 9.33838C110.771 15.0124 92.7705 32.3384 84.7705 30.3384C97.7705 20.8384 113.771 12.3384 130.271 7.83838L130.771 9.33838Z" fill="#EFC7D3" stroke="black" stroke-width="0.5"/>
<path d="M9.77118 48.3384H3.77118C1.27051 52.3384 1.27051 62.3384 1.77118 65.8384C0.270508 66.8384 0.271105 71.3384 1.27118 72.8384L5.27118 73.3384V74.8384L1.27118 76.8384V78.8384C5.27118 79.8384 13.7712 81.8384 21.7712 81.3384V79.8384H39.2712C38.6045 71.3384 40.2712 60.8384 49.2712 53.8384C46.7712 49.8384 39.7712 45.3384 36.7712 44.8384C26.7712 43.8384 11.7712 46.3384 9.77118 48.3384Z" fill="#EFC7D3" stroke="black" stroke-width="0.5"/>
<path d="M92.7725 35.8384C74.9391 36.6717 43.2725 41.5384 32.7725 44.5384L36.7725 44.8384C41.7725 46.3384 47.2725 50.6717 49.2725 53.8384C62.2715 44.3384 87.7715 51.3384 86.2715 78.8384H96.2715C89.2715 67.8384 90.2715 45.8384 92.7725 35.8384Z" fill="#EFC7D3" stroke="black" stroke-width="0.5"/>
<path d="M9.77051 48.3384H3.77051C36.2707 28.8383 58.2708 34.8384 84.2705 30.3384L93.2708 35.8384C76.2708 36.8384 47.2705 40.3384 33.2705 44.5384C25.2705 44.3384 11.2705 46.3384 9.77051 48.3384Z" fill="#EFC7D3" stroke="black" stroke-width="0.5"/>
<path d="M36.772 44.8385C29.272 43.8384 12.272 45.8384 9.77196 48.3385C8.97196 50.7384 12.1053 53.6717 13.772 54.8384C23.272 56.3384 36.772 50.3384 36.772 44.8385Z" fill="#EFC7D3" stroke="black" stroke-width="0.5"/>
<path d="M3.7712 48.3384C10.7712 49.3384 4.7712 59.8384 1.7712 64.8384C1.27113 57.8384 1.771 52.3384 3.7712 48.3384Z" fill="#EFC7D3" stroke="black" stroke-width="0.5"/>
<path d="M21.7705 84.3384V79.8384H39.2705L39.7705 84.3384H21.7705Z" fill="#EFC7D3" stroke="black" stroke-width="0.5"/>
<path d="M2.27246 65.8384C3.77246 68.3384 5.77246 71.505 5.27246 73.3384M21.7725 79.8384C11.2725 80.3384 6.77246 76.3384 7.77246 72.8384C8.27246 72.3384 9.77246 70.8384 10.7725 70.8384" stroke="black" stroke-width="0.5"/>
<path d="M31.7725 74.8384C29.2725 70.8384 23.7725 65.8385 20.7725 64.3385C19.0224 63.8384 16.3973 63.9634 13.6472 64.3385C12.0223 65.6718 10.7725 68.8384 11.2725 71.8384C11.2725 73.005 12.5799 75.3384 15.2725 75.3384C19.7725 75.3384 26.7725 75.8384 31.7725 74.8384Z" fill="#EFC7D3"/>
<path d="M5.77246 65.8385C8.0224 65.3384 10.8973 64.7135 13.6472 64.3385M13.6472 64.3385C16.3973 63.9634 19.0224 63.8384 20.7725 64.3385C23.7725 65.8385 29.2725 70.8384 31.7725 74.8384C26.7725 75.8384 19.7725 75.3384 15.2725 75.3384C12.5799 75.3384 11.2725 73.005 11.2725 71.8384C10.7725 68.8384 12.0223 65.6718 13.6472 64.3385Z" stroke="black" stroke-width="0.5"/>
<path d="M11.2725 71.3385C19.2725 69.8385 22.7725 72.467 25.7725 73.967M12.7725 74.3385L30.2725 73.8385" stroke="black" stroke-width="0.5"/>
<path d="M21.7705 82.8384H31.2705C33.2705 82.8384 34.7705 80.8384 34.2705 79.8384M37.7705 79.8384V84.3384" stroke="black" stroke-width="0.5"/>
<path d="M21.7724 81.3386C17.2724 81.3386 12.7724 81.8386 1.27241 78.8386V76.8386L5.27241 74.8386V73.3386L1.27241 72.8386C0.771484 71.3384 -0.22832 68.3384 1.77168 65.8384C1.27192 57.8384 1.77192 51.3384 3.77241 48.3381C36.2724 28.8385 58.2724 34.8386 84.2724 30.3386C162.272 -24.6615 244.272 12.3384 281.272 26.8386L294.772 28.8384L295.272 35.8384V38.8384C296.771 43.8384 298.106 48.3384 296.772 50.3384C299.272 51.3384 301.772 54.505 301.772 56.3384L299.772 66.3384C300.224 77.1863 297.816 77.4106 288.485 77.723C287.494 77.7562 285.425 77.7904 284.272 77.8384V79.3384L259.272 79.7694M21.7724 81.3386V84.3386H39.7708L39.2724 79.8386M21.7724 81.3386V79.8386H39.2724M39.2724 79.8386C36.2724 38.3386 89.7724 41.3386 86.2724 80.3386V82.8384H212.772C206.772 39.3384 261.272 39.3384 259.272 79.7694M258.771 79.7694H259.272" stroke="black"/>
</svg>
