<svg width="303" height="96" viewBox="0 0 303 96" fill="none" xmlns="http://www.w3.org/2000/svg">
<circle cx="62.458" cy="74.553" r="20.5" fill="#E0426F" stroke="black"/>
<circle cx="235.458" cy="74.553" r="20.5" fill="#E0426F" stroke="black"/>
<path d="M132.456 13.0528L130.956 9.55283C170.956 1.55295 192.456 2.05298 231.456 13.5529L227.956 18.0529C207.956 10.0529 189.956 9.05289 173.956 8.55296C171.456 8.05296 167.456 8.05292 164.956 8.55283C154.956 8.55296 142.956 10.053 132.456 13.0528Z" fill="#E0426F" stroke="black" stroke-width="0.5"/>
<path d="M130.956 9.55302L130.456 8.05302C166.456 -2.94702 198.956 1.05285 234.456 10.053L231.456 13.553C191.456 1.05298 165.456 2.55298 130.956 9.55302Z" fill="#E0426F" stroke="black" stroke-width="0.5"/>
<path d="M130.956 9.55284C182.456 -1.94718 210.956 8.05286 231.456 13.5528" stroke="black" stroke-width="0.5"/>
<path d="M170.458 30.553L173.958 8.55298C207.458 9.55298 218.958 15.053 223.458 16.553L225.941 28.553C198.951 28.5536 181.456 30.0531 170.458 30.553Z" fill="#E0426F"/>
<path d="M226.458 31.053L223.458 16.553C218.958 15.053 207.458 9.55298 173.958 8.55298L170.458 30.553C181.458 30.053 198.958 28.553 225.958 28.553" stroke="black" stroke-width="0.5"/>
<path d="M164.958 8.55298C131.958 9.55298 111.958 18.553 92.958 36.053L95.458 34.053L159.458 31.053L164.958 8.55298Z" fill="#E0426F" stroke="black" stroke-width="0.5"/>
<path d="M239.456 23.053C235.789 20.3863 229.956 18.053 223.456 16.553L225.956 28.553H232.456C235.456 27.053 238.456 24.8217 239.456 23.053Z" fill="#E0426F" stroke="black" stroke-width="0.5"/>
<path d="M96.458 79.053H163.458L197.958 77.553H212.458L212.958 83.053H198.958H97.958H86.458V79.053H96.458Z" fill="#E0426F"/>
<path d="M96.458 79.053H163.458L197.958 77.553M96.458 79.053C96.458 80.553 96.958 81.553 97.958 83.053M96.458 79.053H86.458V83.053H97.958M197.958 77.553L198.958 83.053M197.958 77.553H212.458L212.958 83.053H198.958M198.958 83.053H97.958" stroke="black" stroke-width="0.5"/>
<path d="M96.4571 79.053C91.958 74.553 88.9581 52.553 92.9571 36.053L164.958 32.053C160.958 37.053 159.958 71.053 163.458 79.053H96.4571Z" fill="#E0426F" stroke="black" stroke-width="0.5"/>
<path d="M228.458 31.053L164.958 32.053C160.958 37.053 159.958 71.053 163.458 79.053L197.958 77.553C202.458 76.053 208.958 70.553 228.458 31.053Z" fill="#E0426F" stroke="black" stroke-width="0.5"/>
<path d="M170.458 30.5531C165.958 31.0531 162.458 31.0531 159.458 31.0531L164.958 8.55305C167.958 8.05298 170.958 8.05298 173.958 8.55305L170.458 30.5531Z" fill="#E0426F" stroke="black" stroke-width="0.5"/>
<path d="M98.958 32.553C103.458 38.053 110.458 34.553 114.458 33.053C115.458 17.5529 102.458 25.5529 98.958 32.553Z" fill="#E0426F" stroke="black" stroke-width="0.5"/>
<path d="M234.456 10.053L231.456 13.553C248.456 19.053 258.956 22.053 271.456 28.553H272.956L280.956 27.053C265.956 20.553 258.456 18.053 234.456 10.053Z" fill="#E56E90" stroke="black" stroke-width="0.5"/>
<path d="M271.456 28.553C260.956 23.053 241.956 16.553 231.456 13.553L229.456 16.053L244.456 23.553C242.956 26.053 238.956 28.053 232.956 30.753C244.956 30.053 261.956 29.053 271.456 28.553Z" fill="#E56E90" stroke="black" stroke-width="0.5"/>
<path d="M276.958 34.853L282.956 32.553L272.457 28.553L228.457 31.053C220.957 46.053 205.957 76.553 197.957 77.553H212.457C210.957 66.553 220.457 43.053 245.458 52.053C255.958 46.553 265.958 41.053 276.958 34.853Z" fill="#E56E90" stroke="black" stroke-width="0.5"/>
<path d="M277.956 34.553C265.956 41.053 255.956 46.553 245.456 52.053C249.956 55.053 260.456 61.053 259.456 80.053L284.456 79.553V78.053C292.956 77.053 301.456 80.553 299.956 66.553L301.956 56.553C301.956 55.053 299.456 51.053 296.956 50.553C298.456 48.053 295.456 39.053 295.456 39.053V37.553L291.456 34.553L286.456 33.053L282.956 32.553L277.956 34.553Z" fill="#E56E90" stroke="black" stroke-width="0.5"/>
<path d="M280.956 27.053L272.456 28.553L282.956 32.553C292.456 33.553 291.455 35.053 295.45 37.4732L294.956 29.053L280.956 27.053Z" fill="#E56E90"/>
<path d="M295.456 37.553L295.45 37.4732M295.45 37.4732L294.956 29.053L280.956 27.053L272.456 28.553L282.956 32.553C292.456 33.553 291.455 35.053 295.45 37.4732Z" stroke="black" stroke-width="0.5"/>
<path d="M293.958 37.0532C293.458 34.5531 282.458 34.353 276.958 34.853" stroke="black" stroke-width="0.5"/>
<path d="M299.958 67.053L260.458 69.053C259.958 64.053 257.791 59.8863 255.958 58.053L301.958 55.553M300.458 53.053C289.458 51.553 278.458 46.753 266.458 40.753M228.458 31.053L272.458 28.553L280.958 27.053" stroke="black" stroke-width="0.5"/>
<path d="M290.458 41.053C290.458 39.053 289.458 35.053 285.958 33.053C288.179 33.053 291.556 34.0934 294.067 36.463C294.531 37.993 293.458 41.553 290.416 43.053C290.403 42.4627 290.458 41.7773 290.458 41.053Z" fill="#E56E90"/>
<path d="M272.458 43.553C279.454 43.9028 285.471 44.0079 290.851 44.553M297.458 45.553C295.355 45.1023 293.162 44.7871 290.851 44.553M295.458 38.053C295.04 37.4679 294.571 36.9386 294.067 36.463M290.851 44.553C290.525 44.2082 290.431 43.6852 290.416 43.053M290.416 43.053C290.403 42.4627 290.458 41.7773 290.458 41.053C290.458 39.053 289.458 35.053 285.958 33.053C288.179 33.053 291.556 34.0934 294.067 36.463M290.416 43.053C293.458 41.553 294.531 37.993 294.067 36.463" stroke="black" stroke-width="0.5"/>
<path d="M290.458 41.053C285.958 41.053 283.958 37.053 282.958 34.553" stroke="black" stroke-width="0.5"/>
<path d="M132.456 13.153C118.956 17.153 106.956 23.053 92.9561 36.053C99.9561 24.053 115.456 14.553 130.956 9.55298L132.456 13.153Z" stroke="black" stroke-width="0.5"/>
<path d="M130.956 9.55298C110.956 15.227 92.9561 32.553 84.9561 30.553C97.9561 21.053 113.956 12.553 130.456 8.05298L130.956 9.55298Z" stroke="black" stroke-width="0.5"/>
<path d="M9.95672 48.5529H3.95672C1.45605 52.5529 1.45605 62.5529 1.95672 66.0529C0.456055 67.0529 0.456652 71.5529 1.45672 73.0529L5.45672 73.5529V75.0529L1.45672 77.0529V79.0529C5.45672 80.0529 13.9567 82.0529 21.9567 81.5529V80.0529H39.4567C38.7901 71.5529 40.4567 61.0529 49.4567 54.0529C46.9567 50.0529 39.9567 45.5529 36.9567 45.0529C26.9567 44.0529 11.9567 46.5529 9.95672 48.5529Z" stroke="black" stroke-width="0.5"/>
<path d="M92.958 36.053C75.1247 36.8863 43.458 41.753 32.958 44.753L36.958 45.053C41.958 46.553 47.458 50.8863 49.458 54.053C62.457 44.553 87.957 51.553 86.457 79.053H96.457C89.457 68.053 90.457 46.053 92.958 36.053Z" stroke="black" stroke-width="0.5"/>
<path d="M9.95606 48.553H3.95605C36.4562 29.0529 58.4563 35.053 84.4561 30.553L93.4563 36.053C76.4563 37.053 47.4561 40.553 33.4561 44.753C25.4561 44.553 11.4561 46.553 9.95606 48.553Z" stroke="black" stroke-width="0.5"/>
<path d="M36.9575 45.0531C29.4575 44.053 12.4575 46.053 9.95751 48.5531C9.15751 50.953 12.2908 53.8863 13.9575 55.053C23.4575 56.553 36.9575 50.553 36.9575 45.0531Z" stroke="black" stroke-width="0.5"/>
<path d="M3.95675 48.553C10.9568 49.553 4.95675 60.053 1.95675 65.053C1.45668 58.053 1.95654 52.553 3.95675 48.553Z" stroke="black" stroke-width="0.5"/>
<path d="M21.9561 84.553V80.053H39.4561L39.9561 84.553H21.9561Z" stroke="black" stroke-width="0.5"/>
<path d="M2.45801 66.0527C3.95801 68.5527 5.95801 71.7194 5.45801 73.5527M21.958 80.0527C11.458 80.5527 6.95801 76.5527 7.95801 73.0527C8.45801 72.5527 9.95801 71.0527 10.958 71.0527" stroke="black" stroke-width="0.5"/>
<path d="M5.95801 66.0529C8.20795 65.5529 11.0829 64.9279 13.8328 64.5529M13.8328 64.5529C16.5829 64.1779 19.208 64.0529 20.958 64.5529C23.958 66.0529 29.458 71.0529 31.958 75.0529C26.958 76.0529 19.958 75.5529 15.458 75.5529C12.7654 75.5529 11.458 73.2195 11.458 72.0529C10.958 69.0529 12.2079 65.8862 13.8328 64.5529Z" stroke="black" stroke-width="0.5"/>
<path d="M11.458 71.5529C19.458 70.053 22.958 72.6815 25.958 74.1815M12.958 74.553L30.458 74.053" stroke="black" stroke-width="0.5"/>
<path d="M21.9561 83.0527H31.4561C33.4561 83.0527 34.9561 81.0527 34.4561 80.0527M37.9561 80.0527V84.5527" stroke="black" stroke-width="0.5"/>
<path d="M21.958 81.5532C17.458 81.5532 12.958 82.0532 1.45795 79.0532V77.0532L5.45795 75.0532V73.5532L1.45795 73.0532C0.957031 71.553 -0.0427729 68.553 1.95722 66.053C1.45747 58.053 1.95747 51.553 3.95795 48.5527C36.458 29.0531 58.4579 35.0532 84.4579 30.5532C162.458 -24.4469 244.458 12.553 281.458 27.0532L294.958 29.053L295.458 36.053V39.053C296.956 44.053 298.291 48.553 296.958 50.553C299.458 51.553 301.958 54.7196 301.958 56.553L299.958 66.553C300.41 77.4009 298.002 77.6252 288.67 77.9376C287.679 77.9708 285.61 78.005 284.458 78.053V79.553L259.458 79.984M21.958 81.5532V84.5532H39.9563L39.458 80.0532M21.958 81.5532V80.0532H39.458M39.458 80.0532C36.458 38.5532 89.9579 41.5532 86.4579 80.5532V83.053H212.958C206.958 39.553 261.458 39.553 259.458 79.984M258.956 79.984H259.458" stroke="black"/>
</svg>
