<svg width="303" height="96" viewBox="0 0 303 96" fill="none" xmlns="http://www.w3.org/2000/svg">
<circle cx="62.8853" cy="74.2146" r="20.5" fill="#EFC7D3" stroke="black"/>
<circle cx="235.885" cy="74.2146" r="20.5" fill="#EFC7D3" stroke="black"/>
<path d="M132.884 12.7145L131.384 9.21445C171.384 1.21457 192.884 1.7146 231.884 13.2145L228.384 17.7145C208.384 9.71451 190.384 8.71451 174.384 8.21458C171.884 7.71458 167.884 7.71454 165.384 8.21445C155.384 8.21458 143.384 9.71458 132.884 12.7145Z" fill="#E56E90" stroke="black" stroke-width="0.5"/>
<path d="M131.384 9.21464L130.884 7.71464C166.884 -3.2854 199.384 0.714474 234.884 9.71465L231.884 13.2146C191.884 0.7146 165.884 2.2146 131.384 9.21464Z" fill="#E56E90" stroke="black" stroke-width="0.5"/>
<path d="M131.384 9.21447C182.884 -2.28556 211.384 7.71448 231.884 13.2145" stroke="black" stroke-width="0.5"/>
<path d="M170.885 30.2146L174.385 8.2146C207.885 9.2146 219.385 14.7146 223.885 16.2146L226.368 28.2146C199.378 28.2152 181.883 29.7147 170.885 30.2146Z" fill="#E56E90"/>
<path d="M226.885 30.7146L223.885 16.2146C219.385 14.7146 207.885 9.2146 174.385 8.2146L170.885 30.2146C181.885 29.7146 199.385 28.2146 226.385 28.2146" stroke="black" stroke-width="0.5"/>
<path d="M165.385 8.2146C132.385 9.2146 112.385 18.2146 93.3853 35.7146L95.8853 33.7146L159.885 30.7146L165.385 8.2146Z" fill="#E56E90" stroke="black" stroke-width="0.5"/>
<path d="M239.884 22.7146C236.217 20.0479 230.384 17.7146 223.884 16.2146L226.384 28.2146H232.884C235.884 26.7146 238.884 24.4833 239.884 22.7146Z" fill="#E56E90" stroke="black" stroke-width="0.5"/>
<path d="M96.8853 78.7146H163.885L198.385 77.2146H212.885L213.385 82.7146H199.385H98.3853H86.8853V78.7146H96.8853Z" fill="#E56E90"/>
<path d="M96.8853 78.7146H163.885L198.385 77.2146M96.8853 78.7146C96.8853 80.2146 97.3853 81.2146 98.3853 82.7146M96.8853 78.7146H86.8853V82.7146H98.3853M198.385 77.2146L199.385 82.7146M198.385 77.2146H212.885L213.385 82.7146H199.385M199.385 82.7146H98.3853" stroke="black" stroke-width="0.5"/>
<path d="M96.8844 78.7146C92.3852 74.2146 89.3853 52.2146 93.3844 35.7146L165.385 31.7146C161.385 36.7146 160.385 70.7146 163.885 78.7146H96.8844Z" fill="#E56E90" stroke="black" stroke-width="0.5"/>
<path d="M228.885 30.7146L165.385 31.7146C161.385 36.7146 160.385 70.7146 163.885 78.7146L198.385 77.2146C202.885 75.7146 209.385 70.2146 228.885 30.7146Z" fill="#E56E90" stroke="black" stroke-width="0.5"/>
<path d="M170.885 30.2147C166.385 30.7147 162.885 30.7147 159.885 30.7147L165.385 8.21467C168.385 7.7146 171.385 7.7146 174.385 8.21467L170.885 30.2147Z" fill="#E56E90" stroke="black" stroke-width="0.5"/>
<path d="M99.3853 32.2146C103.885 37.7146 110.885 34.2146 114.885 32.7146C115.885 17.2145 102.885 25.2145 99.3853 32.2146Z" fill="#E56E90" stroke="black" stroke-width="0.5"/>
<path d="M234.884 9.7146L231.884 13.2146C248.884 18.7146 259.384 21.7146 271.884 28.2146H273.384L281.384 26.7146C266.384 20.2146 258.884 17.7146 234.884 9.7146Z" fill="#EFC7D3" stroke="black" stroke-width="0.5"/>
<path d="M271.884 28.2146C261.384 22.7146 242.384 16.2146 231.884 13.2146L229.884 15.7146L244.884 23.2146C243.384 25.7146 239.384 27.7146 233.384 30.4146C245.384 29.7146 262.384 28.7146 271.884 28.2146Z" fill="#EFC7D3" stroke="black" stroke-width="0.5"/>
<path d="M277.385 34.5146L283.384 32.2146L272.884 28.2146L228.884 30.7146C221.384 45.7146 206.384 76.2146 198.384 77.2146H212.884C211.384 66.2146 220.884 42.7146 245.885 51.7146C256.385 46.2146 266.385 40.7146 277.385 34.5146Z" fill="#EFC7D3" stroke="black" stroke-width="0.5"/>
<path d="M278.384 34.2146C266.384 40.7146 256.384 46.2146 245.884 51.7146C250.384 54.7146 260.884 60.7146 259.884 79.7146L284.884 79.2146V77.7146C293.384 76.7146 301.884 80.2146 300.384 66.2146L302.384 56.2146C302.384 54.7146 299.884 50.7146 297.384 50.2146C298.884 47.7146 295.884 38.7146 295.884 38.7146V37.2146L291.884 34.2146L286.884 32.7146L283.384 32.2146L278.384 34.2146Z" fill="#EFC7D3" stroke="black" stroke-width="0.5"/>
<path d="M281.384 26.7146L272.884 28.2146L283.384 32.2146C292.884 33.2146 291.883 34.7146 295.878 37.1348L295.384 28.7146L281.384 26.7146Z" fill="#EFC7D3"/>
<path d="M295.884 37.2146L295.878 37.1348M295.878 37.1348L295.384 28.7146L281.384 26.7146L272.884 28.2146L283.384 32.2146C292.884 33.2146 291.883 34.7146 295.878 37.1348Z" stroke="black" stroke-width="0.5"/>
<path d="M294.385 36.7148C293.885 34.2147 282.885 34.0146 277.385 34.5146" stroke="black" stroke-width="0.5"/>
<path d="M300.385 66.7146L260.885 68.7146C260.385 63.7146 258.219 59.5479 256.385 57.7146L302.385 55.2146M300.885 52.7146C289.885 51.2146 278.885 46.4146 266.885 40.4146M228.885 30.7146L272.885 28.2146L281.385 26.7146" stroke="black" stroke-width="0.5"/>
<path d="M290.885 40.7146C290.885 38.7146 289.885 34.7146 286.385 32.7146C288.606 32.7146 291.983 33.755 294.494 36.1246C294.958 37.6546 293.885 41.2146 290.843 42.7146C290.83 42.1243 290.885 41.4389 290.885 40.7146Z" fill="#EFC7D3"/>
<path d="M272.885 43.2146C279.881 43.5644 285.898 43.6695 291.278 44.2146M297.885 45.2146C295.782 44.764 293.589 44.4487 291.278 44.2146M295.885 37.7146C295.467 37.1295 294.998 36.6002 294.494 36.1246M291.278 44.2146C290.952 43.8698 290.858 43.3468 290.843 42.7146M290.843 42.7146C290.83 42.1243 290.885 41.4389 290.885 40.7146C290.885 38.7146 289.885 34.7146 286.385 32.7146C288.606 32.7146 291.983 33.755 294.494 36.1246M290.843 42.7146C293.885 41.2146 294.958 37.6546 294.494 36.1246" stroke="black" stroke-width="0.5"/>
<path d="M290.885 40.7146C286.385 40.7146 284.385 36.7146 283.385 34.2146" stroke="black" stroke-width="0.5"/>
<path d="M132.884 12.8146C119.384 16.8146 107.384 22.7146 93.3838 35.7146C100.384 23.7146 115.884 14.2146 131.384 9.2146L132.884 12.8146Z" fill="#E56E90" stroke="black" stroke-width="0.5"/>
<path d="M131.384 9.2146C111.384 14.8886 93.3838 32.2146 85.3838 30.2146C98.3838 20.7146 114.384 12.2146 130.884 7.7146L131.384 9.2146Z" fill="#E56E90" stroke="black" stroke-width="0.5"/>
<path d="M10.3845 48.2145H4.38446C1.88379 52.2145 1.88379 62.2145 2.38446 65.7145C0.883789 66.7145 0.884387 71.2145 1.88446 72.7145L5.88446 73.2145V74.7145L1.88446 76.7145V78.7145C5.88446 79.7145 14.3845 81.7145 22.3845 81.2145V79.7145H39.8845C39.2178 71.2145 40.8845 60.7145 49.8845 53.7145C47.3845 49.7145 40.3845 45.2145 37.3845 44.7145C27.3845 43.7145 12.3845 46.2145 10.3845 48.2145Z" fill="#E56E90" stroke="black" stroke-width="0.5"/>
<path d="M93.3853 35.7146C75.5519 36.5479 43.8853 41.4146 33.3853 44.4146L37.3853 44.7146C42.3853 46.2146 47.8853 50.5479 49.8853 53.7146C62.8843 44.2146 88.3843 51.2146 86.8843 78.7146H96.8843C89.8843 67.7146 90.8843 45.7146 93.3853 35.7146Z" fill="#E56E90" stroke="black" stroke-width="0.5"/>
<path d="M10.3838 48.2147H4.38379C36.884 28.7146 58.884 34.7146 84.8838 30.2146L93.884 35.7146C76.884 36.7146 47.8838 40.2146 33.8838 44.4146C25.8838 44.2146 11.8838 46.2146 10.3838 48.2147Z" fill="#E56E90" stroke="black" stroke-width="0.5"/>
<path d="M37.3852 44.7147C29.8852 43.7146 12.8852 45.7146 10.3852 48.2147C9.58524 50.6146 12.7186 53.5479 14.3852 54.7146C23.8853 56.2146 37.3852 50.2146 37.3852 44.7147Z" fill="#E56E90" stroke="black" stroke-width="0.5"/>
<path d="M4.38448 48.2146C11.3845 49.2146 5.38448 59.7146 2.38448 64.7146C1.88441 57.7146 2.38428 52.2146 4.38448 48.2146Z" fill="#E56E90" stroke="black" stroke-width="0.5"/>
<path d="M22.3838 84.2146V79.7146H39.8838L40.3838 84.2146H22.3838Z" fill="#E56E90" stroke="black" stroke-width="0.5"/>
<path d="M2.88574 65.7144C4.38574 68.2144 6.38574 71.381 5.88574 73.2144M22.3857 79.7144C11.8857 80.2144 7.38574 76.2144 8.38574 72.7144C8.88574 72.2144 10.3857 70.7144 11.3857 70.7144" stroke="black" stroke-width="0.5"/>
<path d="M32.3857 74.7145C29.8857 70.7145 24.3857 65.7146 21.3857 64.2146C19.6357 63.7145 17.0106 63.8395 14.2605 64.2146C12.6356 65.5479 11.3857 68.7145 11.8857 71.7145C11.8857 72.8811 13.1932 75.2145 15.8857 75.2145C20.3857 75.2145 27.3857 75.7145 32.3857 74.7145Z" fill="#E56E90"/>
<path d="M6.38574 65.7146C8.63568 65.2145 11.5106 64.5896 14.2605 64.2146M14.2605 64.2146C17.0106 63.8395 19.6357 63.7145 21.3857 64.2146C24.3857 65.7146 29.8857 70.7145 32.3857 74.7145C27.3857 75.7145 20.3857 75.2145 15.8857 75.2145C13.1932 75.2145 11.8857 72.8811 11.8857 71.7145C11.3857 68.7145 12.6356 65.5479 14.2605 64.2146Z" stroke="black" stroke-width="0.5"/>
<path d="M11.8857 71.2146C19.8857 69.7146 23.3857 72.3431 26.3857 73.8431M13.3857 74.2146L30.8857 73.7146" stroke="black" stroke-width="0.5"/>
<path d="M22.3838 82.7144H31.8838C33.8838 82.7144 35.3838 80.7144 34.8838 79.7144M38.3838 79.7144V84.2144" stroke="black" stroke-width="0.5"/>
<path d="M22.3852 81.2148C17.8852 81.2148 13.3852 81.7148 1.8852 78.7148V76.7148L5.8852 74.7148V73.2148L1.8852 72.7149C1.38428 71.2146 0.384473 68.2146 2.38447 65.7146C1.88471 57.7146 2.38471 51.2146 4.3852 48.2143C36.8852 28.7147 58.8852 34.7148 84.8852 30.2148C162.885 -24.7853 244.885 12.2146 281.885 26.7148L295.385 28.7146L295.885 35.7146V38.7146C297.384 43.7146 298.719 48.2146 297.385 50.2146C299.885 51.2146 302.385 54.3813 302.385 56.2146L300.385 66.2146C300.837 77.0625 298.429 77.2868 289.098 77.5992C288.106 77.6324 286.037 77.6666 284.885 77.7146V79.2146L259.885 79.6456M22.3852 81.2148V84.2148H40.3835L39.8852 79.7148M22.3852 81.2148V79.7148H39.8852M39.8852 79.7148C36.8852 38.2148 90.3852 41.2148 86.8852 80.2148V82.7146H213.385C207.385 39.2146 261.885 39.2146 259.885 79.6456M259.384 79.6456H259.885" stroke="black"/>
</svg>
