<svg width="303" height="96" viewBox="0 0 303 96" fill="none" xmlns="http://www.w3.org/2000/svg">
<circle cx="62.2725" cy="74.1692" r="20.5" fill="#E56E90" stroke="black"/>
<circle cx="235.272" cy="74.1692" r="20.5" fill="#E56E90" stroke="black"/>
<path d="M132.271 12.669L130.771 9.16904C170.771 1.16916 192.271 1.66919 231.271 13.1691L227.771 17.6691C207.771 9.6691 189.771 8.6691 173.771 8.16917C171.271 7.66917 167.271 7.66913 164.771 8.16904C154.771 8.16917 142.771 9.66917 132.271 12.669Z" stroke="black" stroke-width="0.5"/>
<path d="M130.771 9.16923L130.271 7.66923C166.271 -3.33081 198.771 0.669064 234.271 9.66924L231.271 13.1692C191.271 0.669189 165.271 2.16919 130.771 9.16923Z" stroke="black" stroke-width="0.5"/>
<path d="M130.771 9.16918C182.271 -2.33085 210.771 7.66919 231.271 13.1692" stroke="black" stroke-width="0.5"/>
<path d="M226.272 30.6692L223.272 16.1692C218.772 14.6692 207.272 9.16919 173.772 8.16919L170.272 30.1692C181.272 29.6692 198.772 28.1692 225.772 28.1692" stroke="black" stroke-width="0.5"/>
<path d="M164.772 8.16919C131.772 9.16919 111.772 18.1692 92.7725 35.6692L95.2725 33.6692L159.272 30.6692L164.772 8.16919Z" stroke="black" stroke-width="0.5"/>
<path d="M239.271 22.6692C235.604 20.0025 229.771 17.6692 223.271 16.1692L225.771 28.1692H232.271C235.271 26.6692 238.271 24.4379 239.271 22.6692Z" stroke="black" stroke-width="0.5"/>
<path d="M96.2725 78.6692H163.272L197.772 77.1692M96.2725 78.6692C96.2725 80.1692 96.7725 81.1692 97.7725 82.6692M96.2725 78.6692H86.2725V82.6692H97.7725M197.772 77.1692L198.772 82.6692M197.772 77.1692H212.272L212.772 82.6692H198.772M198.772 82.6692H97.7725" stroke="black" stroke-width="0.5"/>
<path d="M96.2716 78.6692C91.7725 74.1692 88.7725 52.1692 92.7716 35.6692L164.772 31.6692C160.772 36.6692 159.772 70.6692 163.272 78.6692H96.2716Z" stroke="black" stroke-width="0.5"/>
<path d="M228.272 30.6692L164.772 31.6692C160.773 36.6692 159.773 70.6692 163.272 78.6692L197.772 77.1692C202.272 75.6692 208.772 70.1692 228.272 30.6692Z" stroke="black" stroke-width="0.5"/>
<path d="M170.272 30.1693C165.772 30.6693 162.272 30.6693 159.272 30.6693L164.772 8.16926C167.772 7.66919 170.772 7.66919 173.772 8.16926L170.272 30.1693Z" stroke="black" stroke-width="0.5"/>
<path d="M98.7725 32.1693C103.272 37.6693 110.272 34.1693 114.272 32.6693C115.272 17.1692 102.272 25.1692 98.7725 32.1693Z" stroke="black" stroke-width="0.5"/>
<path d="M234.271 9.66919L231.271 13.1692C248.271 18.6692 258.771 21.6692 271.271 28.1692H272.771L280.771 26.6692C265.771 20.1692 258.271 17.6692 234.271 9.66919Z" fill="#EDADBF" stroke="black" stroke-width="0.5"/>
<path d="M271.271 28.1692C260.771 22.6692 241.771 16.1692 231.271 13.1692L229.271 15.6692L244.271 23.1692C242.771 25.6692 238.771 27.6692 232.771 30.3692C244.771 29.6692 261.771 28.6692 271.271 28.1692Z" fill="#EDADBF" stroke="black" stroke-width="0.5"/>
<path d="M276.772 34.4692L282.771 32.1692L272.271 28.1692L228.271 30.6692C220.771 45.6692 205.771 76.1692 197.771 77.1692H212.271C210.771 66.1692 220.271 42.6692 245.272 51.6692C255.772 46.1692 265.772 40.6692 276.772 34.4692Z" fill="#EDADBF" stroke="black" stroke-width="0.5"/>
<path d="M277.771 34.1692C265.771 40.6692 255.771 46.1692 245.271 51.6692C249.771 54.6692 260.271 60.6692 259.271 79.6692L284.271 79.1692V77.6692C292.771 76.6692 301.271 80.1692 299.771 66.1692L301.771 56.1692C301.771 54.6692 299.271 50.6692 296.771 50.1692C298.271 47.6692 295.271 38.6692 295.271 38.6692V37.1692L291.271 34.1692L286.271 32.6692L282.771 32.1692L277.771 34.1692Z" fill="#EDADBF" stroke="black" stroke-width="0.5"/>
<path d="M280.771 26.6692L272.271 28.1692L282.771 32.1692C292.271 33.1692 291.269 34.6692 295.265 37.0894L294.771 28.6692L280.771 26.6692Z" fill="#EDADBF"/>
<path d="M295.271 37.1692L295.265 37.0894M295.265 37.0894L294.771 28.6692L280.771 26.6692L272.271 28.1692L282.771 32.1692C292.271 33.1692 291.269 34.6692 295.265 37.0894Z" stroke="black" stroke-width="0.5"/>
<path d="M293.772 36.6694C293.272 34.1693 282.272 33.9692 276.772 34.4692" stroke="black" stroke-width="0.5"/>
<path d="M299.772 66.6692L260.272 68.6692C259.772 63.6692 257.606 59.5025 255.772 57.6692L301.772 55.1692M300.272 52.6692C289.272 51.1692 278.272 46.3692 266.272 40.3692M228.272 30.6692L272.272 28.1692L280.772 26.6692" stroke="black" stroke-width="0.5"/>
<path d="M290.272 40.6692C290.272 38.6692 289.272 34.6692 285.772 32.6692C287.993 32.6692 291.37 33.7096 293.881 36.0792C294.345 37.6092 293.272 41.1692 290.231 42.6692C290.217 42.0789 290.272 41.3935 290.272 40.6692Z" fill="#EDADBF"/>
<path d="M272.272 43.1692C279.268 43.519 285.285 43.6241 290.666 44.1692M297.272 45.1692C295.169 44.7185 292.976 44.4033 290.666 44.1692M295.272 37.6692C294.855 37.0841 294.385 36.5548 293.881 36.0792M290.666 44.1692C290.339 43.8244 290.245 43.3014 290.231 42.6692M290.231 42.6692C290.217 42.0789 290.272 41.3935 290.272 40.6692C290.272 38.6692 289.272 34.6692 285.772 32.6692C287.993 32.6692 291.37 33.7096 293.881 36.0792M290.231 42.6692C293.272 41.1692 294.345 37.6092 293.881 36.0792" stroke="black" stroke-width="0.5"/>
<path d="M290.272 40.6692C285.772 40.6692 283.772 36.6692 282.772 34.1692" stroke="black" stroke-width="0.5"/>
<path d="M132.271 12.7692C118.771 16.7692 106.771 22.6692 92.7705 35.6692C99.7705 23.6692 115.271 14.1692 130.771 9.16919L132.271 12.7692Z" stroke="black" stroke-width="0.5"/>
<path d="M130.771 9.16919C110.771 14.8432 92.7705 32.1692 84.7705 30.1692C97.7705 20.6692 113.771 12.1692 130.271 7.66919L130.771 9.16919Z" stroke="black" stroke-width="0.5"/>
<path d="M9.77118 48.1692H3.77118C1.27051 52.1692 1.27051 62.1692 1.77118 65.6692C0.270508 66.6692 0.271105 71.1692 1.27118 72.6692L5.27118 73.1692V74.6692L1.27118 76.6692V78.6692C5.27118 79.6692 13.7712 81.6692 21.7712 81.1692V79.6692H39.2712C38.6045 71.1692 40.2712 60.6692 49.2712 53.6692C46.7712 49.6692 39.7712 45.1692 36.7712 44.6692C26.7712 43.6692 11.7712 46.1692 9.77118 48.1692Z" stroke="black" stroke-width="0.5"/>
<path d="M92.7725 35.6692C74.9391 36.5025 43.2725 41.3692 32.7725 44.3692L36.7725 44.6692C41.7725 46.1692 47.2725 50.5025 49.2725 53.6692C62.2715 44.1692 87.7715 51.1692 86.2715 78.6692H96.2715C89.2715 67.6692 90.2715 45.6692 92.7725 35.6692Z" stroke="black" stroke-width="0.5"/>
<path d="M9.77051 48.1692H3.77051C36.2707 28.6691 58.2708 34.6692 84.2705 30.1692L93.2708 35.6692C76.2708 36.6692 47.2705 40.1692 33.2705 44.3692C25.2705 44.1692 11.2705 46.1692 9.77051 48.1692Z" stroke="black" stroke-width="0.5"/>
<path d="M36.772 44.6693C29.272 43.6692 12.272 45.6692 9.77196 48.1693C8.97196 50.5692 12.1053 53.5025 13.772 54.6692C23.272 56.1692 36.772 50.1692 36.772 44.6693Z" stroke="black" stroke-width="0.5"/>
<path d="M3.7712 48.1692C10.7712 49.1692 4.7712 59.6692 1.7712 64.6692C1.27113 57.6692 1.771 52.1692 3.7712 48.1692Z" stroke="black" stroke-width="0.5"/>
<path d="M21.7705 84.1692V79.6692H39.2705L39.7705 84.1692H21.7705Z" stroke="black" stroke-width="0.5"/>
<path d="M2.27246 65.6692C3.77246 68.1692 5.77246 71.3359 5.27246 73.1692M21.7725 79.6692C11.2725 80.1692 6.77246 76.1692 7.77246 72.6692C8.27246 72.1692 9.77246 70.6692 10.7725 70.6692" stroke="black" stroke-width="0.5"/>
<path d="M5.77246 65.6693C8.0224 65.1692 10.8973 64.5443 13.6472 64.1693M13.6472 64.1693C16.3973 63.7943 19.0224 63.6693 20.7725 64.1693C23.7725 65.6693 29.2725 70.6692 31.7725 74.6692C26.7725 75.6692 19.7725 75.1692 15.2725 75.1692C12.5799 75.1692 11.2725 72.8359 11.2725 71.6692C10.7725 68.6692 12.0223 65.5026 13.6472 64.1693Z" stroke="black" stroke-width="0.5"/>
<path d="M11.2725 71.1693C19.2725 69.6693 22.7725 72.2978 25.7725 73.7978M12.7725 74.1693L30.2725 73.6693" stroke="black" stroke-width="0.5"/>
<path d="M21.7705 82.6692H31.2705C33.2705 82.6692 34.7705 80.6692 34.2705 79.6692M37.7705 79.6692V84.1692" stroke="black" stroke-width="0.5"/>
<path d="M21.7724 81.1694C17.2724 81.1694 12.7724 81.6694 1.27241 78.6694V76.6694L5.27241 74.6694V73.1694L1.27241 72.6694C0.771484 71.1692 -0.22832 68.1692 1.77168 65.6692C1.27192 57.6692 1.77192 51.1692 3.77241 48.1689C36.2724 28.6693 58.2724 34.6694 84.2724 30.1694C162.272 -24.8307 244.272 12.1692 281.272 26.6694L294.772 28.6692L295.272 35.6692V38.6692C296.771 43.6692 298.106 48.1692 296.772 50.1692C299.272 51.1692 301.772 54.3359 301.772 56.1692L299.772 66.1692C300.224 77.0171 297.816 77.2414 288.485 77.5538C287.494 77.587 285.425 77.6212 284.272 77.6692V79.1692L259.272 79.6002M21.7724 81.1694V84.1694H39.7708L39.2724 79.6694M21.7724 81.1694V79.6694H39.2724M39.2724 79.6694C36.2724 38.1694 89.7724 41.1694 86.2724 80.1694V82.6692H212.772C206.772 39.1692 261.272 39.1692 259.272 79.6002M258.771 79.6002H259.272" stroke="black"/>
</svg>
