<svg width="303" height="96" viewBox="0 0 303 96" fill="none" xmlns="http://www.w3.org/2000/svg">
<circle cx="62.876" cy="74.3687" r="20.5" fill="#EFC7D3" stroke="black"/>
<circle cx="235.876" cy="74.3687" r="20.5" fill="#EFC7D3" stroke="black"/>
<path d="M132.874 12.8685L131.374 9.36851C171.374 1.36862 192.874 1.86865 231.874 13.3686L228.374 17.8686C208.374 9.86856 190.374 8.86856 174.374 8.36863C171.874 7.86863 167.874 7.86859 165.374 8.36851C155.374 8.36863 143.374 9.86863 132.874 12.8685Z" fill="#EDADBF" stroke="black" stroke-width="0.5"/>
<path d="M131.374 9.3687L130.874 7.8687C166.874 -3.13135 199.374 0.868526 234.874 9.8687L231.874 13.3687C191.874 0.868652 165.874 2.36865 131.374 9.3687Z" fill="#EDADBF" stroke="black" stroke-width="0.5"/>
<path d="M131.374 9.36876C182.874 -2.13126 211.374 7.86877 231.874 13.3688" stroke="black" stroke-width="0.5"/>
<path d="M170.876 30.3687L174.376 8.36865C207.876 9.36865 219.376 14.8687 223.876 16.3687L226.359 28.3687C199.369 28.3693 181.874 29.8688 170.876 30.3687Z" fill="#EDADBF"/>
<path d="M226.876 30.8687L223.876 16.3687C219.376 14.8687 207.876 9.36865 174.376 8.36865L170.876 30.3687C181.876 29.8687 199.376 28.3687 226.376 28.3687" stroke="black" stroke-width="0.5"/>
<path d="M165.376 8.36865C132.376 9.36865 112.376 18.3687 93.376 35.8687L95.876 33.8687L159.876 30.8687L165.376 8.36865Z" fill="#EDADBF" stroke="black" stroke-width="0.5"/>
<path d="M239.874 22.8687C236.207 20.202 230.374 17.8687 223.874 16.3687L226.374 28.3687H232.874C235.874 26.8687 238.874 24.6374 239.874 22.8687Z" fill="#EDADBF" stroke="black" stroke-width="0.5"/>
<path d="M96.876 78.8687H163.876L198.376 77.3687H212.876L213.376 82.8687H199.376H98.376H86.876V78.8687H96.876Z" fill="#EDADBF"/>
<path d="M96.876 78.8687H163.876L198.376 77.3687M96.876 78.8687C96.876 80.3687 97.376 81.3687 98.376 82.8687M96.876 78.8687H86.876V82.8687H98.376M198.376 77.3687L199.376 82.8687M198.376 77.3687H212.876L213.376 82.8687H199.376M199.376 82.8687H98.376" stroke="black" stroke-width="0.5"/>
<path d="M96.8751 78.8687C92.376 74.3687 89.376 52.3687 93.3751 35.8687L165.376 31.8687C161.376 36.8687 160.376 70.8687 163.876 78.8687H96.8751Z" fill="#EDADBF" stroke="black" stroke-width="0.5"/>
<path d="M228.876 30.8687L165.376 31.8687C161.376 36.8687 160.376 70.8687 163.876 78.8687L198.376 77.3687C202.876 75.8687 209.376 70.3687 228.876 30.8687Z" fill="#EDADBF" stroke="black" stroke-width="0.5"/>
<path d="M170.876 30.3687C166.376 30.8687 162.876 30.8687 159.876 30.8687L165.376 8.36873C168.376 7.86865 171.376 7.86865 174.376 8.36873L170.876 30.3687Z" fill="#EDADBF" stroke="black" stroke-width="0.5"/>
<path d="M99.376 32.3689C103.876 37.8689 110.876 34.3689 114.876 32.8689C115.876 17.3688 102.876 25.3688 99.376 32.3689Z" fill="#EDADBF" stroke="black" stroke-width="0.5"/>
<path d="M234.874 9.86865L231.874 13.3687C248.874 18.8687 259.374 21.8687 271.874 28.3687H273.374L281.374 26.8687C266.374 20.3687 258.874 17.8687 234.874 9.86865Z" fill="#EDADBF" stroke="black" stroke-width="0.5"/>
<path d="M271.874 28.3687C261.374 22.8687 242.374 16.3687 231.874 13.3687L229.874 15.8687L244.874 23.3687C243.374 25.8687 239.374 27.8687 233.374 30.5687C245.374 29.8687 262.374 28.8687 271.874 28.3687Z" fill="#EDADBF" stroke="black" stroke-width="0.5"/>
<path d="M277.376 34.6687L283.374 32.3687L272.875 28.3687L228.875 30.8687C221.375 45.8687 206.375 76.3687 198.375 77.3687H212.875C211.375 66.3687 220.875 42.8687 245.876 51.8687C256.376 46.3687 266.376 40.8687 277.376 34.6687Z" fill="#EDADBF" stroke="black" stroke-width="0.5"/>
<path d="M278.374 34.3687C266.374 40.8687 256.374 46.3687 245.874 51.8687C250.374 54.8687 260.874 60.8687 259.874 79.8687L284.874 79.3687V77.8687C293.374 76.8687 301.874 80.3687 300.374 66.3687L302.374 56.3687C302.374 54.8687 299.874 50.8687 297.374 50.3687C298.874 47.8687 295.874 38.8687 295.874 38.8687V37.3687L291.874 34.3687L286.874 32.8687L283.374 32.3687L278.374 34.3687Z" fill="#EDADBF" stroke="black" stroke-width="0.5"/>
<path d="M281.374 26.8687L272.874 28.3687L283.374 32.3687C292.874 33.3687 291.873 34.8687 295.868 37.2888L295.374 28.8687L281.374 26.8687Z" fill="#EDADBF"/>
<path d="M295.874 37.3687L295.868 37.2888M295.868 37.2888L295.374 28.8687L281.374 26.8687L272.874 28.3687L283.374 32.3687C292.874 33.3687 291.873 34.8687 295.868 37.2888Z" stroke="black" stroke-width="0.5"/>
<path d="M294.376 36.8689C293.876 34.3687 282.876 34.1687 277.376 34.6687" stroke="black" stroke-width="0.5"/>
<path d="M300.376 66.8687L260.876 68.8687C260.376 63.8687 258.209 59.702 256.376 57.8687L302.376 55.3687M300.876 52.8687C289.876 51.3687 278.876 46.5687 266.876 40.5687M228.876 30.8687L272.876 28.3687L281.376 26.8687" stroke="black" stroke-width="0.5"/>
<path d="M290.876 40.8687C290.876 38.8687 289.876 34.8687 286.376 32.8687C288.597 32.8687 291.974 33.909 294.485 36.2786C294.949 37.8086 293.876 41.3687 290.834 42.8687C290.821 42.2784 290.876 41.5929 290.876 40.8687Z" fill="#EDADBF"/>
<path d="M272.876 43.3687C279.872 43.7184 285.889 43.8235 291.269 44.3687M297.876 45.3687C295.773 44.918 293.58 44.6028 291.269 44.3687M295.876 37.8687C295.458 37.2835 294.989 36.7543 294.485 36.2786M291.269 44.3687C290.943 44.0239 290.849 43.5008 290.834 42.8687M290.834 42.8687C290.821 42.2784 290.876 41.5929 290.876 40.8687C290.876 38.8687 289.876 34.8687 286.376 32.8687C288.597 32.8687 291.974 33.909 294.485 36.2786M290.834 42.8687C293.876 41.3687 294.949 37.8086 294.485 36.2786" stroke="black" stroke-width="0.5"/>
<path d="M290.876 40.8687C286.376 40.8687 284.376 36.8687 283.376 34.3687" stroke="black" stroke-width="0.5"/>
<path d="M132.874 12.9686C119.374 16.9686 107.374 22.8687 93.374 35.8687C100.374 23.8687 115.874 14.3687 131.374 9.36865L132.874 12.9686Z" fill="#E56E90" stroke="black" stroke-width="0.5"/>
<path d="M131.374 9.36865C111.374 15.0427 93.374 32.3687 85.374 30.3687C98.374 20.8687 114.374 12.3687 130.874 7.86865L131.374 9.36865Z" fill="#E56E90" stroke="black" stroke-width="0.5"/>
<path d="M10.3747 48.3685H4.37469C1.87402 52.3685 1.87402 62.3685 2.37469 65.8685C0.874023 66.8685 0.874621 71.3685 1.87469 72.8685L5.87469 73.3685V74.8685L1.87469 76.8685V78.8685C5.87469 79.8685 14.3747 81.8685 22.3747 81.3685V79.8685H39.8747C39.208 71.3685 40.8747 60.8685 49.8747 53.8685C47.3747 49.8685 40.3747 45.3685 37.3747 44.8685C27.3747 43.8685 12.3747 46.3685 10.3747 48.3685Z" fill="#E56E90" stroke="black" stroke-width="0.5"/>
<path d="M93.376 35.8687C75.5426 36.702 43.876 41.5687 33.376 44.5687L37.376 44.8687C42.376 46.3687 47.876 50.702 49.876 53.8687C62.875 44.3687 88.375 51.3687 86.875 78.8687H96.875C89.875 67.8687 90.875 45.8687 93.376 35.8687Z" fill="#E56E90" stroke="black" stroke-width="0.5"/>
<path d="M10.374 48.3687H4.37402C36.8742 28.8686 58.8743 34.8687 84.874 30.3687L93.8743 35.8687C76.8743 36.8687 47.874 40.3686 33.874 44.5687C25.874 44.3686 11.874 46.3686 10.374 48.3687Z" fill="#E56E90" stroke="black" stroke-width="0.5"/>
<path d="M37.3755 44.8687C29.8755 43.8687 12.8755 45.8687 10.3755 48.3687C9.57548 50.7687 12.7088 53.702 14.3755 54.8687C23.8755 56.3687 37.3755 50.3687 37.3755 44.8687Z" fill="#E56E90" stroke="black" stroke-width="0.5"/>
<path d="M4.37472 48.3687C11.3747 49.3687 5.37472 59.8687 2.37472 64.8687C1.87465 57.8687 2.37451 52.3687 4.37472 48.3687Z" fill="#E56E90" stroke="black" stroke-width="0.5"/>
<path d="M22.374 84.3687V79.8687H39.874L40.374 84.3687H22.374Z" fill="#E56E90" stroke="black" stroke-width="0.5"/>
<path d="M2.87598 65.8687C4.37598 68.3687 6.37598 71.5353 5.87598 73.3687M22.376 79.8687C11.876 80.3687 7.37598 76.3687 8.37598 72.8687C8.87598 72.3687 10.376 70.8687 11.376 70.8687" stroke="black" stroke-width="0.5"/>
<path d="M32.376 74.8688C29.876 70.8688 24.376 65.8689 21.376 64.3689C19.6259 63.8688 17.0008 63.9938 14.2508 64.3689C12.6258 65.7022 11.376 68.8688 11.876 71.8688C11.876 73.0354 13.1834 75.3688 15.876 75.3688C20.376 75.3688 27.376 75.8688 32.376 74.8688Z" fill="#E56E90"/>
<path d="M6.37598 65.8689C8.62592 65.3688 11.5008 64.7438 14.2508 64.3689M14.2508 64.3689C17.0008 63.9938 19.6259 63.8688 21.376 64.3689C24.376 65.8689 29.876 70.8688 32.376 74.8688C27.376 75.8688 20.376 75.3688 15.876 75.3688C13.1834 75.3688 11.876 73.0354 11.876 71.8688C11.376 68.8688 12.6258 65.7022 14.2508 64.3689Z" stroke="black" stroke-width="0.5"/>
<path d="M11.876 71.3688C19.876 69.8689 23.376 72.4974 26.376 73.9974M13.376 74.3689L30.876 73.8689" stroke="black" stroke-width="0.5"/>
<path d="M22.374 82.8687H31.874C33.874 82.8687 35.374 80.8687 34.874 79.8687M38.374 79.8687V84.3687" stroke="black" stroke-width="0.5"/>
<path d="M22.3759 81.3689C17.8759 81.3689 13.3759 81.8689 1.87592 78.8689V76.8689L5.87592 74.8689V73.3689L1.87592 72.8689C1.375 71.3687 0.375196 68.3687 2.37519 65.8687C1.87543 57.8687 2.37543 51.3687 4.37592 48.3684C36.8759 28.8688 58.8759 34.8688 84.8759 30.3688C162.876 -24.6313 244.876 12.3686 281.876 26.8688L295.376 28.8687L295.876 35.8687V38.8687C297.374 43.8687 298.709 48.3687 297.376 50.3687C299.876 51.3687 302.376 54.5353 302.376 56.3687L300.376 66.3687C300.828 77.2166 298.42 77.4408 289.088 77.7533C288.097 77.7865 286.028 77.8206 284.876 77.8687V79.3687L259.876 79.7997M22.3759 81.3689V84.3689H40.3743L39.8759 79.8689M22.3759 81.3689V79.8689H39.8759M39.8759 79.8689C36.8759 38.3689 90.3759 41.3689 86.8759 80.3689V82.8687H213.376C207.376 39.3687 261.876 39.3687 259.876 79.7997M259.374 79.7997H259.876" stroke="black"/>
</svg>
