<svg width="303" height="95" viewBox="0 0 303 95" fill="none" xmlns="http://www.w3.org/2000/svg">
<circle cx="62.249" cy="73.8459" r="20.5" fill="#E56E90" stroke="black"/>
<circle cx="235.249" cy="73.8459" r="20.5" fill="#E56E90" stroke="black"/>
<path d="M132.247 12.3458L130.747 8.8458C170.747 0.845915 192.247 1.34595 231.247 12.8459L227.747 17.3459C207.747 9.34586 189.747 8.34586 173.747 7.84592C171.247 7.34592 167.247 7.34589 164.747 7.8458C154.747 7.84592 142.747 9.34592 132.247 12.3458Z" stroke="black" stroke-width="0.5"/>
<path d="M130.747 8.84599L130.247 7.34599C166.247 -3.65405 198.747 0.345821 234.247 9.34599L231.247 12.846C191.247 0.345947 165.247 1.84595 130.747 8.84599Z" stroke="black" stroke-width="0.5"/>
<path d="M130.747 8.84593C182.247 -2.65409 210.747 7.34595 231.247 12.8459" stroke="black" stroke-width="0.5"/>
<path d="M226.249 30.3459L223.249 15.8459C218.749 14.3459 207.249 8.84595 173.749 7.84595L170.249 29.8459C181.249 29.3459 198.749 27.8459 225.749 27.8459" stroke="black" stroke-width="0.5"/>
<path d="M164.749 7.84595C131.749 8.84595 111.749 17.8459 92.749 35.3459L95.249 33.3459L159.249 30.3459L164.749 7.84595Z" stroke="black" stroke-width="0.5"/>
<path d="M239.247 22.3459C235.58 19.6793 229.747 17.3459 223.247 15.8459L225.747 27.8459H232.247C235.247 26.3459 238.247 24.1147 239.247 22.3459Z" stroke="black" stroke-width="0.5"/>
<path d="M96.249 78.3459H163.249L197.749 76.8459M96.249 78.3459C96.249 79.8459 96.749 80.8459 97.749 82.3459M96.249 78.3459H86.249V82.3459H97.749M197.749 76.8459L198.749 82.3459M197.749 76.8459H212.249L212.749 82.3459H198.749M198.749 82.3459H97.749" stroke="black" stroke-width="0.5"/>
<path d="M96.2482 78.3459C91.749 73.8459 88.7491 51.8459 92.7482 35.3459L164.749 31.3459C160.749 36.3459 159.749 70.3459 163.249 78.3459H96.2482Z" stroke="black" stroke-width="0.5"/>
<path d="M228.249 30.3459L164.749 31.3459C160.749 36.3459 159.749 70.3459 163.249 78.3459L197.749 76.8459C202.249 75.3459 208.749 69.8459 228.249 30.3459Z" stroke="black" stroke-width="0.5"/>
<path d="M170.249 29.846C165.749 30.346 162.249 30.346 159.249 30.346L164.749 7.84602C167.749 7.34595 170.749 7.34595 173.749 7.84602L170.249 29.846Z" stroke="black" stroke-width="0.5"/>
<path d="M98.749 31.8461C103.249 37.3461 110.249 33.8461 114.249 32.3461C115.249 16.846 102.249 24.8459 98.749 31.8461Z" stroke="black" stroke-width="0.5"/>
<path d="M234.247 9.34595L231.247 12.8459C248.247 18.3459 258.747 21.3459 271.247 27.8459H272.747L280.747 26.3459C265.747 19.8459 258.247 17.3459 234.247 9.34595Z" fill="#E0426F" stroke="black" stroke-width="0.5"/>
<path d="M271.247 27.8459C260.747 22.3459 241.747 15.8459 231.247 12.8459L229.247 15.3459L244.247 22.8459C242.747 25.3459 238.747 27.3459 232.747 30.0459C244.747 29.3459 261.747 28.3459 271.247 27.8459Z" fill="#E0426F" stroke="black" stroke-width="0.5"/>
<path d="M276.749 34.1459L282.747 31.8459L272.248 27.8459L228.248 30.3459C220.748 45.3459 205.748 75.8459 197.748 76.8459H212.248C210.748 65.8459 220.248 42.3459 245.249 51.3459C255.749 45.8459 265.749 40.3459 276.749 34.1459Z" fill="#E0426F" stroke="black" stroke-width="0.5"/>
<path d="M277.747 33.846C265.747 40.346 255.747 45.846 245.247 51.346C249.747 54.3459 260.247 60.3459 259.247 79.3459L284.247 78.8459V77.3459C292.747 76.3459 301.247 79.8459 299.747 65.8459L301.747 55.8459C301.747 54.3459 299.247 50.3459 296.747 49.8459C298.247 47.3459 295.247 38.3459 295.247 38.3459V36.8459L291.247 33.8459L286.247 32.3459L282.747 31.8459L277.747 33.846Z" fill="#E0426F" stroke="black" stroke-width="0.5"/>
<path d="M280.747 26.3459L272.247 27.8459L282.747 31.8459C292.247 32.8459 291.246 34.3459 295.241 36.7661L294.747 28.3459L280.747 26.3459Z" fill="#E0426F"/>
<path d="M295.247 36.8459L295.241 36.7661M295.241 36.7661L294.747 28.3459L280.747 26.3459L272.247 27.8459L282.747 31.8459C292.247 32.8459 291.246 34.3459 295.241 36.7661Z" stroke="black" stroke-width="0.5"/>
<path d="M293.749 36.3461C293.249 33.846 282.249 33.646 276.749 34.146" stroke="black" stroke-width="0.5"/>
<path d="M299.749 66.3459L260.249 68.3459C259.749 63.3459 257.582 59.1793 255.749 57.3459L301.749 54.8459M300.249 52.3459C289.249 50.8459 278.249 46.0459 266.249 40.0459M228.249 30.3459L272.249 27.8459L280.749 26.3459" stroke="black" stroke-width="0.5"/>
<path d="M290.249 40.3459C290.249 38.3459 289.249 34.3459 285.749 32.3459C287.97 32.3459 291.347 33.3863 293.858 35.7559C294.322 37.2859 293.249 40.8459 290.207 42.3459C290.194 41.7557 290.249 41.0702 290.249 40.3459Z" fill="#E0426F"/>
<path d="M272.249 42.8459C279.245 43.1957 285.262 43.3008 290.642 43.8459M297.249 44.8459C295.146 44.3953 292.953 44.08 290.642 43.8459M295.249 37.3459C294.831 36.7608 294.362 36.2316 293.858 35.7559M290.642 43.8459C290.316 43.5012 290.222 42.9781 290.207 42.3459M290.207 42.3459C290.194 41.7557 290.249 41.0702 290.249 40.3459C290.249 38.3459 289.249 34.3459 285.749 32.3459C287.97 32.3459 291.347 33.3863 293.858 35.7559M290.207 42.3459C293.249 40.8459 294.322 37.2859 293.858 35.7559" stroke="black" stroke-width="0.5"/>
<path d="M290.249 40.3459C285.749 40.3459 283.749 36.3459 282.749 33.8459" stroke="black" stroke-width="0.5"/>
<path d="M132.247 12.4459C118.747 16.4459 106.747 22.3459 92.7471 35.3459C99.7471 23.3459 115.247 13.8459 130.747 8.84595L132.247 12.4459Z" fill="#E0426F" stroke="black" stroke-width="0.5"/>
<path d="M130.747 8.84595C110.747 14.52 92.7471 31.8459 84.7471 29.8459C97.7471 20.3459 113.747 11.8459 130.247 7.34595L130.747 8.84595Z" fill="#E0426F" stroke="black" stroke-width="0.5"/>
<path d="M9.74774 47.846H3.74774C1.24707 51.8459 1.24707 61.8459 1.74774 65.3459C0.24707 66.3459 0.247668 70.8459 1.24774 72.3459L5.24774 72.8459V74.3459L1.24774 76.3459V78.3459C5.24774 79.3459 13.7477 81.3459 21.7477 80.8459V79.3459H39.2477C38.5811 70.8459 40.2477 60.3459 49.2477 53.3459C46.7477 49.3459 39.7477 44.8459 36.7477 44.346C26.7477 43.3459 11.7477 45.846 9.74774 47.846Z" fill="#E0426F" stroke="black" stroke-width="0.5"/>
<path d="M92.749 35.3459C74.9157 36.1793 43.249 41.0459 32.749 44.0459L36.749 44.3459C41.749 45.8459 47.249 50.1793 49.249 53.3459C62.248 43.8459 87.748 50.8459 86.248 78.3459H96.248C89.248 67.3459 90.248 45.3459 92.749 35.3459Z" fill="#E0426F" stroke="black" stroke-width="0.5"/>
<path d="M9.74707 47.846H3.74707C36.2473 28.3459 58.2473 34.3459 84.2471 29.8459L93.2473 35.3459C76.2473 36.3459 47.2471 39.8459 33.2471 44.046C25.2471 43.8459 11.2471 45.8459 9.74707 47.846Z" fill="#E0426F" stroke="black" stroke-width="0.5"/>
<path d="M36.7485 44.346C29.2485 43.3459 12.2485 45.3459 9.74852 47.846C8.94852 50.246 12.0819 53.1793 13.7485 54.3459C23.2485 55.8459 36.7485 49.8459 36.7485 44.346Z" fill="#E0426F" stroke="black" stroke-width="0.5"/>
<path d="M3.74777 47.8459C10.7478 48.8459 4.74777 59.3459 1.74777 64.3459C1.2477 57.3459 1.74756 51.8459 3.74777 47.8459Z" fill="#E0426F" stroke="black" stroke-width="0.5"/>
<path d="M21.7471 83.8459V79.3459H39.2471L39.7471 83.8459H21.7471Z" fill="#E0426F" stroke="black" stroke-width="0.5"/>
<path d="M2.24902 65.3459C3.74902 67.8459 5.74902 71.0126 5.24902 72.8459M21.749 79.3459C11.249 79.8459 6.74902 75.8459 7.74902 72.3459C8.24902 71.8459 9.74902 70.3459 10.749 70.3459" stroke="black" stroke-width="0.5"/>
<path d="M31.749 74.3459C29.249 70.3459 23.749 65.346 20.749 63.846C18.999 63.346 16.3739 63.471 13.6238 63.846C11.9989 65.1793 10.749 68.3459 11.249 71.3459C11.249 72.5126 12.5564 74.8459 15.249 74.8459C19.749 74.8459 26.749 75.3459 31.749 74.3459Z" fill="#E0426F"/>
<path d="M5.74902 65.346C7.99897 64.846 10.8739 64.221 13.6238 63.846M13.6238 63.846C16.3739 63.471 18.999 63.346 20.749 63.846C23.749 65.346 29.249 70.3459 31.749 74.3459C26.749 75.3459 19.749 74.8459 15.249 74.8459C12.5564 74.8459 11.249 72.5126 11.249 71.3459C10.749 68.3459 11.9989 65.1793 13.6238 63.846Z" stroke="black" stroke-width="0.5"/>
<path d="M11.249 70.846C19.249 69.3461 22.749 71.9745 25.749 73.4745M12.749 73.8461L30.249 73.3461" stroke="black" stroke-width="0.5"/>
<path d="M21.7471 82.3459H31.2471C33.2471 82.3459 34.7471 80.3459 34.2471 79.3459M37.7471 79.3459V83.8459" stroke="black" stroke-width="0.5"/>
<path d="M21.749 80.8462C17.249 80.8462 12.749 81.3462 1.24897 78.3462V76.3462L5.24897 74.3462V72.8462L1.24897 72.3462C0.748047 70.8459 -0.251757 67.8459 1.74824 65.3459C1.24848 57.3459 1.74848 50.8459 3.74897 47.8457C36.249 28.3461 58.249 34.3461 84.249 29.8461C162.249 -25.154 244.249 11.8459 281.249 26.3461L294.749 28.3459L295.249 35.3459V38.3459C296.747 43.3459 298.082 47.8459 296.749 49.8459C299.249 50.8459 301.749 54.0126 301.749 55.8459L299.749 65.8459C300.201 76.6939 297.793 76.9181 288.461 77.2306C287.47 77.2638 285.401 77.2979 284.249 77.3459V78.8459L259.249 79.277M21.749 80.8462V83.8462H39.7473L39.249 79.3462M21.749 80.8462V79.3462H39.249M39.249 79.3462C36.249 37.8462 89.749 40.8462 86.249 79.8462V82.3459H212.749C206.749 38.8459 261.249 38.8459 259.249 79.277M258.747 79.277H259.249" stroke="black"/>
</svg>
