<svg width="303" height="96" viewBox="0 0 303 96" fill="none" xmlns="http://www.w3.org/2000/svg">
<circle cx="62.458" cy="74.3687" r="20.5" fill="#E0426F" stroke="black"/>
<circle cx="235.458" cy="74.3687" r="20.5" fill="#E0426F" stroke="black"/>
<path d="M132.456 12.8685L130.956 9.36851C170.956 1.36862 192.456 1.86865 231.456 13.3686L227.956 17.8686C207.956 9.86856 189.956 8.86856 173.956 8.36863C171.456 7.86863 167.456 7.86859 164.956 8.36851C154.956 8.36863 142.956 9.86863 132.456 12.8685Z" fill="#EDADBF" stroke="black" stroke-width="0.5"/>
<path d="M130.956 9.3687L130.456 7.8687C166.456 -3.13135 198.956 0.868526 234.456 9.8687L231.456 13.3687C191.456 0.868652 165.456 2.36865 130.956 9.3687Z" fill="#EDADBF" stroke="black" stroke-width="0.5"/>
<path d="M130.956 9.36876C182.456 -2.13126 210.956 7.86877 231.456 13.3688" stroke="black" stroke-width="0.5"/>
<path d="M170.458 30.3687L173.958 8.36865C207.458 9.36865 218.958 14.8687 223.458 16.3687L225.941 28.3687C198.951 28.3693 181.456 29.8688 170.458 30.3687Z" fill="#EDADBF"/>
<path d="M226.458 30.8687L223.458 16.3687C218.958 14.8687 207.458 9.36865 173.958 8.36865L170.458 30.3687C181.458 29.8687 198.958 28.3687 225.958 28.3687" stroke="black" stroke-width="0.5"/>
<path d="M164.958 8.36865C131.958 9.36865 111.958 18.3687 92.958 35.8687L95.458 33.8687L159.458 30.8687L164.958 8.36865Z" fill="#EDADBF" stroke="black" stroke-width="0.5"/>
<path d="M239.456 22.8687C235.789 20.202 229.956 17.8687 223.456 16.3687L225.956 28.3687H232.456C235.456 26.8687 238.456 24.6374 239.456 22.8687Z" fill="#EDADBF" stroke="black" stroke-width="0.5"/>
<path d="M96.458 78.8687H163.458L197.958 77.3687H212.458L212.958 82.8687H198.958H97.958H86.458V78.8687H96.458Z" fill="#EDADBF"/>
<path d="M96.458 78.8687H163.458L197.958 77.3687M96.458 78.8687C96.458 80.3687 96.958 81.3687 97.958 82.8687M96.458 78.8687H86.458V82.8687H97.958M197.958 77.3687L198.958 82.8687M197.958 77.3687H212.458L212.958 82.8687H198.958M198.958 82.8687H97.958" stroke="black" stroke-width="0.5"/>
<path d="M96.4571 78.8687C91.958 74.3687 88.9581 52.3687 92.9571 35.8687L164.958 31.8687C160.958 36.8687 159.958 70.8687 163.458 78.8687H96.4571Z" fill="#EDADBF" stroke="black" stroke-width="0.5"/>
<path d="M228.458 30.8687L164.958 31.8687C160.958 36.8687 159.958 70.8687 163.458 78.8687L197.958 77.3687C202.458 75.8687 208.958 70.3687 228.458 30.8687Z" fill="#EDADBF" stroke="black" stroke-width="0.5"/>
<path d="M170.458 30.3687C165.958 30.8687 162.458 30.8687 159.458 30.8687L164.958 8.36873C167.958 7.86865 170.958 7.86865 173.958 8.36873L170.458 30.3687Z" fill="#EDADBF" stroke="black" stroke-width="0.5"/>
<path d="M98.958 32.3689C103.458 37.8689 110.458 34.3689 114.458 32.8689C115.458 17.3688 102.458 25.3688 98.958 32.3689Z" fill="#EDADBF" stroke="black" stroke-width="0.5"/>
<path d="M234.456 9.86865L231.456 13.3687C248.456 18.8687 258.956 21.8687 271.456 28.3687H272.956L280.956 26.8687C265.956 20.3687 258.456 17.8687 234.456 9.86865Z" fill="#E56E90" stroke="black" stroke-width="0.5"/>
<path d="M271.456 28.3687C260.956 22.8687 241.956 16.3687 231.456 13.3687L229.456 15.8687L244.456 23.3687C242.956 25.8687 238.956 27.8687 232.956 30.5687C244.956 29.8687 261.956 28.8687 271.456 28.3687Z" fill="#E56E90" stroke="black" stroke-width="0.5"/>
<path d="M276.958 34.6687L282.956 32.3687L272.457 28.3687L228.457 30.8687C220.957 45.8687 205.957 76.3687 197.957 77.3687H212.457C210.957 66.3687 220.457 42.8687 245.458 51.8687C255.958 46.3687 265.958 40.8687 276.958 34.6687Z" fill="#E56E90" stroke="black" stroke-width="0.5"/>
<path d="M277.956 34.3687C265.956 40.8687 255.956 46.3687 245.456 51.8687C249.956 54.8687 260.456 60.8687 259.456 79.8687L284.456 79.3687V77.8687C292.956 76.8687 301.456 80.3687 299.956 66.3687L301.956 56.3687C301.956 54.8687 299.456 50.8687 296.956 50.3687C298.456 47.8687 295.456 38.8687 295.456 38.8687V37.3687L291.456 34.3687L286.456 32.8687L282.956 32.3687L277.956 34.3687Z" fill="#E56E90" stroke="black" stroke-width="0.5"/>
<path d="M280.956 26.8687L272.456 28.3687L282.956 32.3687C292.456 33.3687 291.455 34.8687 295.45 37.2888L294.956 28.8687L280.956 26.8687Z" fill="#E56E90"/>
<path d="M295.456 37.3687L295.45 37.2888M295.45 37.2888L294.956 28.8687L280.956 26.8687L272.456 28.3687L282.956 32.3687C292.456 33.3687 291.455 34.8687 295.45 37.2888Z" stroke="black" stroke-width="0.5"/>
<path d="M293.958 36.8689C293.458 34.3687 282.458 34.1687 276.958 34.6687" stroke="black" stroke-width="0.5"/>
<path d="M299.958 66.8687L260.458 68.8687C259.958 63.8687 257.791 59.702 255.958 57.8687L301.958 55.3687M300.458 52.8687C289.458 51.3687 278.458 46.5687 266.458 40.5687M228.458 30.8687L272.458 28.3687L280.958 26.8687" stroke="black" stroke-width="0.5"/>
<path d="M290.458 40.8687C290.458 38.8687 289.458 34.8687 285.958 32.8687C288.179 32.8687 291.556 33.909 294.067 36.2786C294.531 37.8086 293.458 41.3687 290.416 42.8687C290.403 42.2784 290.458 41.5929 290.458 40.8687Z" fill="#E56E90"/>
<path d="M272.458 43.3687C279.454 43.7184 285.471 43.8235 290.851 44.3687M297.458 45.3687C295.355 44.918 293.162 44.6028 290.851 44.3687M295.458 37.8687C295.04 37.2835 294.571 36.7543 294.067 36.2786M290.851 44.3687C290.525 44.0239 290.431 43.5008 290.416 42.8687M290.416 42.8687C290.403 42.2784 290.458 41.5929 290.458 40.8687C290.458 38.8687 289.458 34.8687 285.958 32.8687C288.179 32.8687 291.556 33.909 294.067 36.2786M290.416 42.8687C293.458 41.3687 294.531 37.8086 294.067 36.2786" stroke="black" stroke-width="0.5"/>
<path d="M290.458 40.8687C285.958 40.8687 283.958 36.8687 282.958 34.3687" stroke="black" stroke-width="0.5"/>
<path d="M132.456 12.9686C118.956 16.9686 106.956 22.8687 92.9561 35.8687C99.9561 23.8687 115.456 14.3687 130.956 9.36865L132.456 12.9686Z" fill="#E56E90" stroke="black" stroke-width="0.5"/>
<path d="M130.956 9.36865C110.956 15.0427 92.9561 32.3687 84.9561 30.3687C97.9561 20.8687 113.956 12.3687 130.456 7.86865L130.956 9.36865Z" fill="#E56E90" stroke="black" stroke-width="0.5"/>
<path d="M9.95672 48.3685H3.95672C1.45605 52.3685 1.45605 62.3685 1.95672 65.8685C0.456055 66.8685 0.456652 71.3685 1.45672 72.8685L5.45672 73.3685V74.8685L1.45672 76.8685V78.8685C5.45672 79.8685 13.9567 81.8685 21.9567 81.3685V79.8685H39.4567C38.7901 71.3685 40.4567 60.8685 49.4567 53.8685C46.9567 49.8685 39.9567 45.3685 36.9567 44.8685C26.9567 43.8685 11.9567 46.3685 9.95672 48.3685Z" fill="#E56E90" stroke="black" stroke-width="0.5"/>
<path d="M92.958 35.8687C75.1247 36.702 43.458 41.5687 32.958 44.5687L36.958 44.8687C41.958 46.3687 47.458 50.702 49.458 53.8687C62.457 44.3687 87.957 51.3687 86.457 78.8687H96.457C89.457 67.8687 90.457 45.8687 92.958 35.8687Z" fill="#E56E90" stroke="black" stroke-width="0.5"/>
<path d="M9.95606 48.3687H3.95605C36.4562 28.8686 58.4563 34.8687 84.4561 30.3687L93.4563 35.8687C76.4563 36.8687 47.4561 40.3686 33.4561 44.5687C25.4561 44.3686 11.4561 46.3686 9.95606 48.3687Z" fill="#E56E90" stroke="black" stroke-width="0.5"/>
<path d="M36.9575 44.8687C29.4575 43.8687 12.4575 45.8687 9.95751 48.3687C9.15751 50.7687 12.2908 53.702 13.9575 54.8687C23.4575 56.3687 36.9575 50.3687 36.9575 44.8687Z" fill="#E56E90" stroke="black" stroke-width="0.5"/>
<path d="M3.95675 48.3687C10.9568 49.3687 4.95675 59.8687 1.95675 64.8687C1.45668 57.8687 1.95654 52.3687 3.95675 48.3687Z" fill="#E56E90" stroke="black" stroke-width="0.5"/>
<path d="M21.9561 84.3687V79.8687H39.4561L39.9561 84.3687H21.9561Z" fill="#E56E90" stroke="black" stroke-width="0.5"/>
<path d="M2.45801 65.8687C3.95801 68.3687 5.95801 71.5353 5.45801 73.3687M21.958 79.8687C11.458 80.3687 6.95801 76.3687 7.95801 72.8687C8.45801 72.3687 9.95801 70.8687 10.958 70.8687" stroke="black" stroke-width="0.5"/>
<path d="M31.958 74.8688C29.458 70.8688 23.958 65.8689 20.958 64.3689C19.208 63.8688 16.5829 63.9938 13.8328 64.3689C12.2079 65.7022 10.958 68.8688 11.458 71.8688C11.458 73.0354 12.7654 75.3688 15.458 75.3688C19.958 75.3688 26.958 75.8688 31.958 74.8688Z" fill="#E56E90"/>
<path d="M5.95801 65.8689C8.20795 65.3688 11.0829 64.7438 13.8328 64.3689M13.8328 64.3689C16.5829 63.9938 19.208 63.8688 20.958 64.3689C23.958 65.8689 29.458 70.8688 31.958 74.8688C26.958 75.8688 19.958 75.3688 15.458 75.3688C12.7654 75.3688 11.458 73.0354 11.458 71.8688C10.958 68.8688 12.2079 65.7022 13.8328 64.3689Z" stroke="black" stroke-width="0.5"/>
<path d="M11.458 71.3688C19.458 69.8689 22.958 72.4974 25.958 73.9974M12.958 74.3689L30.458 73.8689" stroke="black" stroke-width="0.5"/>
<path d="M21.9561 82.8687H31.4561C33.4561 82.8687 34.9561 80.8687 34.4561 79.8687M37.9561 79.8687V84.3687" stroke="black" stroke-width="0.5"/>
<path d="M21.958 81.3689C17.458 81.3689 12.958 81.8689 1.45795 78.8689V76.8689L5.45795 74.8689V73.3689L1.45795 72.8689C0.957031 71.3687 -0.0427729 68.3687 1.95722 65.8687C1.45747 57.8687 1.95747 51.3687 3.95795 48.3684C36.458 28.8688 58.4579 34.8688 84.4579 30.3688C162.458 -24.6313 244.458 12.3686 281.458 26.8688L294.958 28.8687L295.458 35.8687V38.8687C296.956 43.8687 298.291 48.3687 296.958 50.3687C299.458 51.3687 301.958 54.5353 301.958 56.3687L299.958 66.3687C300.41 77.2166 298.002 77.4408 288.67 77.7533C287.679 77.7865 285.61 77.8206 284.458 77.8687V79.3687L259.458 79.7997M21.958 81.3689V84.3689H39.9563L39.458 79.8689M21.958 81.3689V79.8689H39.458M39.458 79.8689C36.458 38.3689 89.9579 41.3689 86.4579 80.3689V82.8687H212.958C206.958 39.3687 261.458 39.3687 259.458 79.7997M258.956 79.7997H259.458" stroke="black"/>
</svg>
