<svg width="303" height="95" viewBox="0 0 303 95" fill="none" xmlns="http://www.w3.org/2000/svg">
<circle cx="62.2725" cy="73.7222" r="20.5" fill="#E56E90" stroke="black"/>
<circle cx="235.272" cy="73.7222" r="20.5" fill="#E56E90" stroke="black"/>
<path d="M132.271 12.222L130.771 8.72202C170.771 0.722136 192.271 1.22217 231.271 12.7221L227.771 17.2221C207.771 9.22208 189.771 8.22208 173.771 7.72215C171.271 7.22215 167.271 7.22211 164.771 7.72202C154.771 7.72215 142.771 9.22215 132.271 12.222Z" fill="#E0426F" stroke="black" stroke-width="0.5"/>
<path d="M130.771 8.72221L130.271 7.22221C166.271 -3.77783 198.771 0.222042 234.271 9.22221L231.271 12.7222C191.271 0.222168 165.271 1.72217 130.771 8.72221Z" fill="#E0426F" stroke="black" stroke-width="0.5"/>
<path d="M130.771 8.72228C182.271 -2.77775 210.771 7.22229 231.271 12.7223" stroke="black" stroke-width="0.5"/>
<path d="M170.272 29.7222L173.772 7.72217C207.272 8.72217 218.772 14.2222 223.272 15.7222L225.755 27.7222C198.765 27.7228 181.27 29.2223 170.272 29.7222Z" fill="#E0426F"/>
<path d="M226.272 30.2222L223.272 15.7222C218.772 14.2222 207.272 8.72217 173.772 7.72217L170.272 29.7222C181.272 29.2222 198.772 27.7222 225.772 27.7222" stroke="black" stroke-width="0.5"/>
<path d="M164.772 7.72217C131.772 8.72217 111.772 17.7222 92.7725 35.2222L95.2725 33.2222L159.272 30.2222L164.772 7.72217Z" fill="#E0426F" stroke="black" stroke-width="0.5"/>
<path d="M239.271 22.2222C235.604 19.5555 229.771 17.2222 223.271 15.7222L225.771 27.7222H232.271C235.271 26.2222 238.271 23.9909 239.271 22.2222Z" fill="#E0426F" stroke="black" stroke-width="0.5"/>
<path d="M96.2725 78.2222H163.272L197.772 76.7222H212.272L212.772 82.2222H198.772H97.7725H86.2725V78.2222H96.2725Z" fill="#E0426F"/>
<path d="M96.2725 78.2222H163.272L197.772 76.7222M96.2725 78.2222C96.2725 79.7222 96.7725 80.7222 97.7725 82.2222M96.2725 78.2222H86.2725V82.2222H97.7725M197.772 76.7222L198.772 82.2222M197.772 76.7222H212.272L212.772 82.2222H198.772M198.772 82.2222H97.7725" stroke="black" stroke-width="0.5"/>
<path d="M96.2716 78.2222C91.7725 73.7222 88.7725 51.7222 92.7716 35.2222L164.772 31.2222C160.772 36.2222 159.772 70.2222 163.272 78.2222H96.2716Z" fill="#E0426F" stroke="black" stroke-width="0.5"/>
<path d="M228.272 30.2222L164.772 31.2222C160.773 36.2222 159.773 70.2222 163.272 78.2222L197.772 76.7222C202.272 75.2222 208.772 69.7222 228.272 30.2222Z" fill="#E0426F" stroke="black" stroke-width="0.5"/>
<path d="M170.272 29.7222C165.772 30.2222 162.272 30.2222 159.272 30.2222L164.772 7.72224C167.772 7.22217 170.772 7.22217 173.772 7.72224L170.272 29.7222Z" fill="#E0426F" stroke="black" stroke-width="0.5"/>
<path d="M98.7725 31.7224C103.272 37.2224 110.272 33.7224 114.272 32.2224C115.272 16.7223 102.272 24.7223 98.7725 31.7224Z" fill="#E0426F" stroke="black" stroke-width="0.5"/>
<path d="M234.271 9.22217L231.271 12.7222C248.271 18.2222 258.771 21.2222 271.271 27.7222H272.771L280.771 26.2222C265.771 19.7222 258.271 17.2222 234.271 9.22217Z" fill="#EDADBF" stroke="black" stroke-width="0.5"/>
<path d="M271.271 27.7222C260.771 22.2222 241.771 15.7222 231.271 12.7222L229.271 15.2222L244.271 22.7222C242.771 25.2222 238.771 27.2222 232.771 29.9222C244.771 29.2222 261.771 28.2222 271.271 27.7222Z" fill="#EDADBF" stroke="black" stroke-width="0.5"/>
<path d="M276.772 34.0222L282.771 31.7222L272.271 27.7222L228.271 30.2222C220.771 45.2222 205.771 75.7222 197.771 76.7222H212.271C210.771 65.7222 220.271 42.2222 245.272 51.2222C255.772 45.7222 265.772 40.2222 276.772 34.0222Z" fill="#EDADBF" stroke="black" stroke-width="0.5"/>
<path d="M277.771 33.7222C265.771 40.2222 255.771 45.7222 245.271 51.2222C249.771 54.2222 260.271 60.2222 259.271 79.2222L284.271 78.7222V77.2222C292.771 76.2222 301.271 79.7222 299.771 65.7222L301.771 55.7222C301.771 54.2222 299.271 50.2222 296.771 49.7222C298.271 47.2222 295.271 38.2222 295.271 38.2222V36.7222L291.271 33.7222L286.271 32.2222L282.771 31.7222L277.771 33.7222Z" fill="#EDADBF" stroke="black" stroke-width="0.5"/>
<path d="M280.771 26.2222L272.271 27.7222L282.771 31.7222C292.271 32.7222 291.269 34.2222 295.265 36.6423L294.771 28.2222L280.771 26.2222Z" fill="#EDADBF"/>
<path d="M295.271 36.7222L295.265 36.6423M295.265 36.6423L294.771 28.2222L280.771 26.2222L272.271 27.7222L282.771 31.7222C292.271 32.7222 291.269 34.2222 295.265 36.6423Z" stroke="black" stroke-width="0.5"/>
<path d="M293.772 36.2224C293.272 33.7223 282.272 33.5222 276.772 34.0222" stroke="black" stroke-width="0.5"/>
<path d="M299.772 66.2222L260.272 68.2222C259.772 63.2222 257.606 59.0555 255.772 57.2222L301.772 54.7222M300.272 52.2222C289.272 50.7222 278.272 45.9222 266.272 39.9222M228.272 30.2222L272.272 27.7222L280.772 26.2222" stroke="black" stroke-width="0.5"/>
<path d="M290.272 40.2222C290.272 38.2222 289.272 34.2222 285.772 32.2222C287.993 32.2222 291.37 33.2626 293.881 35.6322C294.345 37.1622 293.272 40.7222 290.231 42.2222C290.217 41.6319 290.272 40.9465 290.272 40.2222Z" fill="#EDADBF"/>
<path d="M272.272 42.7222C279.268 43.072 285.285 43.177 290.666 43.7222M297.272 44.7222C295.169 44.2715 292.976 43.9563 290.666 43.7222M295.272 37.2222C294.855 36.637 294.385 36.1078 293.881 35.6322M290.666 43.7222C290.339 43.3774 290.245 42.8544 290.231 42.2222M290.231 42.2222C290.217 41.6319 290.272 40.9465 290.272 40.2222C290.272 38.2222 289.272 34.2222 285.772 32.2222C287.993 32.2222 291.37 33.2626 293.881 35.6322M290.231 42.2222C293.272 40.7222 294.345 37.1622 293.881 35.6322" stroke="black" stroke-width="0.5"/>
<path d="M290.272 40.2222C285.772 40.2222 283.772 36.2222 282.772 33.7222" stroke="black" stroke-width="0.5"/>
<path d="M132.271 12.3221C118.771 16.3221 106.771 22.2222 92.7705 35.2222C99.7705 23.2222 115.271 13.7222 130.771 8.72217L132.271 12.3221Z" fill="#EFC7D3" stroke="black" stroke-width="0.5"/>
<path d="M130.771 8.72217C110.771 14.3962 92.7705 31.7222 84.7705 29.7222C97.7705 20.2222 113.771 11.7222 130.271 7.22217L130.771 8.72217Z" fill="#EFC7D3" stroke="black" stroke-width="0.5"/>
<path d="M9.77118 47.7221H3.77118C1.27051 51.722 1.27051 61.722 1.77118 65.222C0.270508 66.222 0.271105 70.722 1.27118 72.222L5.27118 72.722V74.222L1.27118 76.222V78.222C5.27118 79.222 13.7712 81.222 21.7712 80.722V79.222H39.2712C38.6045 70.722 40.2712 60.222 49.2712 53.222C46.7712 49.222 39.7712 44.722 36.7712 44.2221C26.7712 43.222 11.7712 45.7221 9.77118 47.7221Z" fill="#EFC7D3" stroke="black" stroke-width="0.5"/>
<path d="M92.7725 35.2222C74.9391 36.0555 43.2725 40.9222 32.7725 43.9222L36.7725 44.2222C41.7725 45.7222 47.2725 50.0555 49.2725 53.2222C62.2715 43.7222 87.7715 50.7222 86.2715 78.2222H96.2715C89.2715 67.2222 90.2715 45.2222 92.7725 35.2222Z" fill="#EFC7D3" stroke="black" stroke-width="0.5"/>
<path d="M9.77051 47.7222H3.77051C36.2707 28.2221 58.2708 34.2222 84.2705 29.7222L93.2708 35.2222C76.2708 36.2222 47.2705 39.7222 33.2705 43.9222C25.2705 43.7222 11.2705 45.7222 9.77051 47.7222Z" fill="#EFC7D3" stroke="black" stroke-width="0.5"/>
<path d="M36.772 44.2222C29.272 43.2222 12.272 45.2222 9.77196 47.7222C8.97196 50.1222 12.1053 53.0555 13.772 54.2222C23.272 55.7222 36.772 49.7222 36.772 44.2222Z" fill="#EFC7D3" stroke="black" stroke-width="0.5"/>
<path d="M3.7712 47.7222C10.7712 48.7222 4.7712 59.2222 1.7712 64.2222C1.27113 57.2222 1.771 51.7222 3.7712 47.7222Z" fill="#EFC7D3" stroke="black" stroke-width="0.5"/>
<path d="M21.7705 83.7222V79.2222H39.2705L39.7705 83.7222H21.7705Z" fill="#EFC7D3" stroke="black" stroke-width="0.5"/>
<path d="M2.27246 65.2222C3.77246 67.7222 5.77246 70.8888 5.27246 72.7222M21.7725 79.2222C11.2725 79.7222 6.77246 75.7222 7.77246 72.2222C8.27246 71.7222 9.77246 70.2222 10.7725 70.2222" stroke="black" stroke-width="0.5"/>
<path d="M31.7725 74.2223C29.2725 70.2223 23.7725 65.2224 20.7725 63.7224C19.0224 63.2224 16.3973 63.3474 13.6472 63.7224C12.0223 65.0557 10.7725 68.2223 11.2725 71.2223C11.2725 72.389 12.5799 74.7223 15.2725 74.7223C19.7725 74.7223 26.7725 75.2223 31.7725 74.2223Z" fill="#EFC7D3"/>
<path d="M5.77246 65.2224C8.0224 64.7223 10.8973 64.0974 13.6472 63.7224M13.6472 63.7224C16.3973 63.3474 19.0224 63.2224 20.7725 63.7224C23.7725 65.2224 29.2725 70.2223 31.7725 74.2223C26.7725 75.2223 19.7725 74.7223 15.2725 74.7223C12.5799 74.7223 11.2725 72.389 11.2725 71.2223C10.7725 68.2223 12.0223 65.0557 13.6472 63.7224Z" stroke="black" stroke-width="0.5"/>
<path d="M11.2725 70.7224C19.2725 69.2224 22.7725 71.8509 25.7725 73.3509M12.7725 73.7224L30.2725 73.2224" stroke="black" stroke-width="0.5"/>
<path d="M21.7705 82.2222H31.2705C33.2705 82.2222 34.7705 80.2222 34.2705 79.2222M37.7705 79.2222V83.7222" stroke="black" stroke-width="0.5"/>
<path d="M21.7724 80.7224C17.2724 80.7224 12.7724 81.2224 1.27241 78.2224V76.2224L5.27241 74.2224V72.7224L1.27241 72.2224C0.771484 70.7222 -0.22832 67.7222 1.77168 65.2222C1.27192 57.2222 1.77192 50.7222 3.77241 47.7219C36.2724 28.2223 58.2724 34.2224 84.2724 29.7224C162.272 -25.2778 244.272 11.7222 281.272 26.2223L294.772 28.2222L295.272 35.2222V38.2222C296.771 43.2222 298.106 47.7222 296.772 49.7222C299.272 50.7222 301.772 53.8888 301.772 55.7222L299.772 65.7222C300.224 76.5701 297.816 76.7944 288.485 77.1068C287.494 77.14 285.425 77.1742 284.272 77.2222V78.7222L259.272 79.1532M21.7724 80.7224V83.7224H39.7708L39.2724 79.2224M21.7724 80.7224V79.2224H39.2724M39.2724 79.2224C36.2724 37.7224 89.7724 40.7224 86.2724 79.7224V82.2222H212.772C206.772 38.7222 261.272 38.7222 259.272 79.1532M258.771 79.1532H259.272" stroke="black"/>
</svg>
