<svg width="303" height="96" viewBox="0 0 303 96" fill="none" xmlns="http://www.w3.org/2000/svg">
<circle cx="62.4897" cy="74.3535" r="20.5" fill="#E0426F" stroke="black"/>
<circle cx="235.49" cy="74.3535" r="20.5" fill="#E0426F" stroke="black"/>
<path d="M132.488 12.8534L130.988 9.35337C170.988 1.35348 192.488 1.85352 231.488 13.3535L227.988 17.8535C207.988 9.85343 189.988 8.85342 173.988 8.35349C171.488 7.85349 167.488 7.85345 164.988 8.35337C154.988 8.35349 142.988 9.85349 132.488 12.8534Z" fill="#EFC7D3" stroke="black" stroke-width="0.5"/>
<path d="M130.988 9.35356L130.488 7.85356C166.488 -3.14648 198.988 0.85339 234.488 9.85356L231.488 13.3536C191.488 0.853516 165.488 2.35352 130.988 9.35356Z" fill="#EFC7D3" stroke="black" stroke-width="0.5"/>
<path d="M130.988 9.3535C182.488 -2.14652 210.988 7.85352 231.488 13.3535" stroke="black" stroke-width="0.5"/>
<path d="M170.49 30.3535L173.99 8.35352C207.49 9.35352 218.99 14.8535 223.49 16.3535L225.973 28.3535C198.982 28.3542 181.487 29.8536 170.49 30.3535Z" fill="#EFC7D3"/>
<path d="M226.49 30.8535L223.49 16.3535C218.99 14.8535 207.49 9.35352 173.99 8.35352L170.49 30.3535C181.49 29.8535 198.99 28.3535 225.99 28.3535" stroke="black" stroke-width="0.5"/>
<path d="M164.99 8.35352C131.99 9.35352 111.99 18.3535 92.9897 35.8535L95.4897 33.8535L159.49 30.8535L164.99 8.35352Z" fill="#EFC7D3" stroke="black" stroke-width="0.5"/>
<path d="M239.488 22.8535C235.822 20.1868 229.988 17.8535 223.488 16.3535L225.988 28.3535H232.488C235.488 26.8535 238.488 24.6223 239.488 22.8535Z" fill="#EFC7D3" stroke="black" stroke-width="0.5"/>
<path d="M96.4897 78.8535H163.49L197.99 77.3535H212.49L212.99 82.8535H198.99H97.9897H86.4897V78.8535H96.4897Z" fill="#EFC7D3"/>
<path d="M96.4897 78.8535H163.49L197.99 77.3535M96.4897 78.8535C96.4897 80.3535 96.9897 81.3535 97.9897 82.8535M96.4897 78.8535H86.4897V82.8535H97.9897M197.99 77.3535L198.99 82.8535M197.99 77.3535H212.49L212.99 82.8535H198.99M198.99 82.8535H97.9897" stroke="black" stroke-width="0.5"/>
<path d="M96.4889 78.8535C91.9897 74.3535 88.9898 52.3535 92.9889 35.8535L164.99 31.8535C160.99 36.8535 159.99 70.8535 163.49 78.8535H96.4889Z" fill="#EFC7D3" stroke="black" stroke-width="0.5"/>
<path d="M228.489 30.8535L164.989 31.8535C160.989 36.8535 159.99 70.8535 163.489 78.8535L197.989 77.3535C202.489 75.8535 208.989 70.3535 228.489 30.8535Z" fill="#EFC7D3" stroke="black" stroke-width="0.5"/>
<path d="M170.49 30.3536C165.99 30.8536 162.49 30.8536 159.49 30.8536L164.99 8.35359C167.99 7.85352 170.99 7.85352 173.99 8.35359L170.49 30.3536Z" fill="#EFC7D3" stroke="black" stroke-width="0.5"/>
<path d="M98.9897 32.3537C103.49 37.8537 110.49 34.3537 114.49 32.8537C115.49 17.3535 102.49 25.3535 98.9897 32.3537Z" fill="#EFC7D3" stroke="black" stroke-width="0.5"/>
<path d="M234.488 9.85352L231.488 13.3535C248.488 18.8535 258.988 21.8535 271.488 28.3535H272.988L280.988 26.8535C265.988 20.3535 258.488 17.8535 234.488 9.85352Z" stroke="black" stroke-width="0.5"/>
<path d="M271.488 28.3535C260.988 22.8535 241.988 16.3535 231.488 13.3535L229.488 15.8535L244.488 23.3535C242.988 25.8535 238.988 27.8535 232.988 30.5535C244.988 29.8535 261.988 28.8535 271.488 28.3535Z" stroke="black" stroke-width="0.5"/>
<path d="M276.99 34.6535L282.988 32.3535L272.489 28.3535L228.489 30.8535C220.989 45.8535 205.989 76.3535 197.989 77.3535H212.489C210.989 66.3535 220.489 42.8535 245.49 51.8535C255.99 46.3535 265.99 40.8535 276.99 34.6535Z" stroke="black" stroke-width="0.5"/>
<path d="M277.988 34.3535C265.988 40.8535 255.988 46.3535 245.488 51.8535C249.988 54.8535 260.488 60.8535 259.488 79.8535L284.488 79.3535V77.8535C292.988 76.8535 301.488 80.3535 299.988 66.3535L301.988 56.3535C301.988 54.8535 299.488 50.8535 296.988 50.3535C298.488 47.8535 295.488 38.8535 295.488 38.8535V37.3535L291.488 34.3535L286.488 32.8535L282.988 32.3535L277.988 34.3535Z" stroke="black" stroke-width="0.5"/>
<path d="M295.488 37.3535L295.482 37.2737M295.482 37.2737L294.988 28.8535L280.988 26.8535L272.488 28.3535L282.988 32.3535C292.488 33.3535 291.487 34.8535 295.482 37.2737Z" stroke="black" stroke-width="0.5"/>
<path d="M293.99 36.8537C293.49 34.3536 282.49 34.1535 276.99 34.6535" stroke="black" stroke-width="0.5"/>
<path d="M299.99 66.8535L260.49 68.8535C259.99 63.8535 257.823 59.6868 255.99 57.8535L301.99 55.3535M300.49 52.8535C289.49 51.3535 278.49 46.5535 266.49 40.5535M228.49 30.8535L272.49 28.3535L280.99 26.8535" stroke="black" stroke-width="0.5"/>
<path d="M272.49 43.3535C279.485 43.7033 285.502 43.8084 290.883 44.3535M297.49 45.3535C295.387 44.9029 293.194 44.5876 290.883 44.3535M295.49 37.8535C295.072 37.2684 294.603 36.7392 294.099 36.2635M290.883 44.3535C290.557 44.0088 290.463 43.4857 290.448 42.8535M290.448 42.8535C290.434 42.2632 290.49 41.5778 290.49 40.8535C290.49 38.8535 289.49 34.8535 285.99 32.8535C288.211 32.8535 291.587 33.8939 294.099 36.2635M290.448 42.8535C293.49 41.3535 294.562 37.7935 294.099 36.2635" stroke="black" stroke-width="0.5"/>
<path d="M290.49 40.8535C285.99 40.8535 283.99 36.8535 282.99 34.3535" stroke="black" stroke-width="0.5"/>
<path d="M132.488 12.9535C118.988 16.9535 106.988 22.8535 92.9883 35.8535C99.9883 23.8535 115.488 14.3535 130.988 9.35352L132.488 12.9535Z" fill="#EDADBF" stroke="black" stroke-width="0.5"/>
<path d="M130.988 9.35352C110.988 15.0276 92.9883 32.3535 84.9883 30.3535C97.9883 20.8535 113.988 12.3535 130.488 7.85352L130.988 9.35352Z" fill="#EDADBF" stroke="black" stroke-width="0.5"/>
<path d="M9.98895 48.3535H3.98895C1.48828 52.3535 1.48828 62.3535 1.98895 65.8535C0.488281 66.8535 0.488879 71.3535 1.48895 72.8535L5.48895 73.3535V74.8535L1.48895 76.8535V78.8535C5.48895 79.8535 13.9889 81.8535 21.9889 81.3535V79.8535H39.4889C38.8223 71.3535 40.4889 60.8535 49.4889 53.8535C46.9889 49.8535 39.9889 45.3535 36.9889 44.8535C26.9889 43.8535 11.9889 46.3535 9.98895 48.3535Z" fill="#EDADBF" stroke="black" stroke-width="0.5"/>
<path d="M92.9897 35.8535C75.1564 36.6868 43.4897 41.5535 32.9897 44.5535L36.9897 44.8535C41.9897 46.3535 47.4897 50.6868 49.4897 53.8535C62.4888 44.3535 87.9888 51.3535 86.4888 78.8535H96.4888C89.4888 67.8535 90.4888 45.8535 92.9897 35.8535Z" fill="#EDADBF" stroke="black" stroke-width="0.5"/>
<path d="M9.98828 48.3536H3.98828C36.4885 28.8535 58.4885 34.8535 84.4883 30.3535L93.4885 35.8535C76.4885 36.8535 47.4883 40.3535 33.4883 44.5535C25.4883 44.3535 11.4883 46.3535 9.98828 48.3536Z" fill="#EDADBF" stroke="black" stroke-width="0.5"/>
<path d="M36.9897 44.8536C29.4897 43.8535 12.4897 45.8535 9.98974 48.3536C9.18974 50.7535 12.3231 53.6868 13.9897 54.8535C23.4897 56.3535 36.9897 50.3535 36.9897 44.8536Z" fill="#EDADBF" stroke="black" stroke-width="0.5"/>
<path d="M3.98898 48.3535C10.989 49.3535 4.98898 59.8535 1.98898 64.8535C1.48891 57.8535 1.98877 52.3535 3.98898 48.3535Z" fill="#EDADBF" stroke="black" stroke-width="0.5"/>
<path d="M21.9883 84.3535V79.8535H39.4883L39.9883 84.3535H21.9883Z" fill="#EDADBF" stroke="black" stroke-width="0.5"/>
<path d="M2.49023 65.8535C3.99023 68.3535 5.99023 71.5202 5.49023 73.3535M21.9902 79.8535C11.4902 80.3535 6.99023 76.3535 7.99023 72.8535C8.49023 72.3535 9.99023 70.8535 10.9902 70.8535" stroke="black" stroke-width="0.5"/>
<path d="M31.9902 74.8535C29.4902 70.8535 23.9902 65.8536 20.9902 64.3536C19.2402 63.8536 16.6151 63.9786 13.865 64.3536C12.2401 65.6869 10.9902 68.8535 11.4902 71.8535C11.4902 73.0202 12.7977 75.3535 15.4902 75.3535C19.9902 75.3535 26.9902 75.8535 31.9902 74.8535Z" fill="#EDADBF"/>
<path d="M5.99023 65.8536C8.24018 65.3536 11.1151 64.7286 13.865 64.3536M13.865 64.3536C16.6151 63.9786 19.2402 63.8536 20.9902 64.3536C23.9902 65.8536 29.4902 70.8535 31.9902 74.8535C26.9902 75.8535 19.9902 75.3535 15.4902 75.3535C12.7977 75.3535 11.4902 73.0202 11.4902 71.8535C10.9902 68.8535 12.2401 65.6869 13.865 64.3536Z" stroke="black" stroke-width="0.5"/>
<path d="M11.4902 71.3536C19.4902 69.8536 22.9902 72.4821 25.9902 73.9821M12.9902 74.3536L30.4902 73.8536" stroke="black" stroke-width="0.5"/>
<path d="M21.9883 82.8535H31.4883C33.4883 82.8535 34.9883 80.8535 34.4883 79.8535M37.9883 79.8535V84.3535" stroke="black" stroke-width="0.5"/>
<path d="M21.9897 81.3538C17.4897 81.3538 12.9897 81.8538 1.48969 78.8538V76.8538L5.48969 74.8538V73.3538L1.48969 72.8538C0.98877 71.3535 -0.0110346 68.3535 1.98896 65.8535C1.4892 57.8535 1.9892 51.3535 3.98969 48.3533C36.4897 28.8537 58.4897 34.8537 84.4897 30.3537C162.49 -24.6464 244.49 12.3535 281.49 26.8537L294.99 28.8535L295.49 35.8535V38.8535C296.988 43.8535 298.323 48.3535 296.99 50.3535C299.49 51.3535 301.99 54.5202 301.99 56.3535L299.99 66.3535C300.442 77.2014 298.034 77.4257 288.702 77.7382C287.711 77.7713 285.642 77.8055 284.49 77.8535V79.3535L259.49 79.7846M21.9897 81.3538V84.3538H39.988L39.4897 79.8538M21.9897 81.3538V79.8538H39.4897M39.4897 79.8538C36.4897 38.3538 89.9897 41.3538 86.4897 80.3538V82.8535H212.99C206.99 39.3535 261.49 39.3535 259.49 79.7846M258.988 79.7846H259.49" stroke="black"/>
</svg>
