<svg width="303" height="96" viewBox="0 0 303 96" fill="none" xmlns="http://www.w3.org/2000/svg">
<circle cx="62.2817" cy="74.0303" r="20.5" fill="#E56E90" stroke="black"/>
<circle cx="235.282" cy="74.0303" r="20.5" fill="#E56E90" stroke="black"/>
<path d="M132.28 12.5301L130.78 9.03013C170.78 1.03024 192.28 1.53027 231.28 13.0302L227.78 17.5302C207.78 9.53018 189.78 8.53018 173.78 8.03025C171.28 7.53025 167.28 7.53021 164.78 8.03013C154.78 8.03025 142.78 9.53025 132.28 12.5301Z" fill="#EDADBF" stroke="black" stroke-width="0.5"/>
<path d="M130.78 9.03032L130.28 7.53032C166.28 -3.46973 198.78 0.530148 234.28 9.53032L231.28 13.0303C191.28 0.530273 165.28 2.03027 130.78 9.03032Z" fill="#EDADBF" stroke="black" stroke-width="0.5"/>
<path d="M130.78 9.03038C182.28 -2.46964 210.78 7.5304 231.28 13.0304" stroke="black" stroke-width="0.5"/>
<path d="M170.282 30.0303L173.782 8.03027C207.282 9.03027 218.782 14.5303 223.282 16.0303L225.764 28.0303C198.774 28.0309 181.279 29.5304 170.282 30.0303Z" fill="#EDADBF"/>
<path d="M226.282 30.5303L223.282 16.0303C218.782 14.5303 207.282 9.03027 173.782 8.03027L170.282 30.0303C181.282 29.5303 198.782 28.0303 225.782 28.0303" stroke="black" stroke-width="0.5"/>
<path d="M164.782 8.03027C131.782 9.03027 111.782 18.0303 92.7817 35.5303L95.2817 33.5303L159.282 30.5303L164.782 8.03027Z" fill="#EDADBF" stroke="black" stroke-width="0.5"/>
<path d="M239.28 22.5303C235.614 19.8636 229.78 17.5303 223.28 16.0303L225.78 28.0303H232.28C235.28 26.5303 238.28 24.299 239.28 22.5303Z" fill="#EDADBF" stroke="black" stroke-width="0.5"/>
<path d="M96.2817 78.5303H163.282L197.782 77.0303H212.282L212.782 82.5303H198.782H97.7817H86.2817V78.5303H96.2817Z" fill="#EDADBF"/>
<path d="M96.2817 78.5303H163.282L197.782 77.0303M96.2817 78.5303C96.2817 80.0303 96.7817 81.0303 97.7817 82.5303M96.2817 78.5303H86.2817V82.5303H97.7817M197.782 77.0303L198.782 82.5303M197.782 77.0303H212.282L212.782 82.5303H198.782M198.782 82.5303H97.7817" stroke="black" stroke-width="0.5"/>
<path d="M96.2809 78.5303C91.7817 74.0303 88.7818 52.0303 92.7809 35.5303L164.782 31.5303C160.782 36.5303 159.782 70.5303 163.282 78.5303H96.2809Z" fill="#EDADBF" stroke="black" stroke-width="0.5"/>
<path d="M228.281 30.5303L164.781 31.5303C160.781 36.5303 159.781 70.5303 163.281 78.5303L197.781 77.0303C202.281 75.5303 208.781 70.0303 228.281 30.5303Z" fill="#EDADBF" stroke="black" stroke-width="0.5"/>
<path d="M170.282 30.0303C165.782 30.5303 162.282 30.5303 159.282 30.5303L164.782 8.03035C167.782 7.53027 170.782 7.53027 173.782 8.03035L170.282 30.0303Z" fill="#EDADBF" stroke="black" stroke-width="0.5"/>
<path d="M98.7817 32.0305C103.282 37.5305 110.282 34.0305 114.282 32.5305C115.282 17.0304 102.282 25.0304 98.7817 32.0305Z" fill="#EDADBF" stroke="black" stroke-width="0.5"/>
<path d="M234.28 9.53027L231.28 13.0303C248.28 18.5303 258.78 21.5303 271.28 28.0303H272.78L280.78 26.5303C265.78 20.0303 258.28 17.5303 234.28 9.53027Z" fill="#EFC7D3" stroke="black" stroke-width="0.5"/>
<path d="M271.28 28.0303C260.78 22.5303 241.78 16.0303 231.28 13.0303L229.28 15.5303L244.28 23.0303C242.78 25.5303 238.78 27.5303 232.78 30.2303C244.78 29.5303 261.78 28.5303 271.28 28.0303Z" fill="#EFC7D3" stroke="black" stroke-width="0.5"/>
<path d="M276.782 34.3303L282.78 32.0303L272.281 28.0303L228.281 30.5303C220.781 45.5303 205.781 76.0303 197.781 77.0303H212.281C210.781 66.0303 220.281 42.5303 245.282 51.5303C255.782 46.0303 265.782 40.5303 276.782 34.3303Z" fill="#EFC7D3" stroke="black" stroke-width="0.5"/>
<path d="M277.78 34.0303C265.78 40.5303 255.78 46.0303 245.28 51.5303C249.78 54.5303 260.28 60.5303 259.28 79.5303L284.28 79.0303V77.5303C292.78 76.5303 301.28 80.0303 299.78 66.0303L301.78 56.0303C301.78 54.5303 299.28 50.5303 296.78 50.0303C298.28 47.5303 295.28 38.5303 295.28 38.5303V37.0303L291.28 34.0303L286.28 32.5303L282.78 32.0303L277.78 34.0303Z" fill="#EFC7D3" stroke="black" stroke-width="0.5"/>
<path d="M280.78 26.5303L272.28 28.0303L282.78 32.0303C292.28 33.0303 291.279 34.5303 295.274 36.9505L294.78 28.5303L280.78 26.5303Z" fill="#EFC7D3"/>
<path d="M295.28 37.0303L295.274 36.9505M295.274 36.9505L294.78 28.5303L280.78 26.5303L272.28 28.0303L282.78 32.0303C292.28 33.0303 291.279 34.5303 295.274 36.9505Z" stroke="black" stroke-width="0.5"/>
<path d="M293.782 36.5305C293.282 34.0304 282.282 33.8303 276.782 34.3303" stroke="black" stroke-width="0.5"/>
<path d="M299.782 66.5303L260.282 68.5303C259.782 63.5303 257.615 59.3636 255.782 57.5303L301.782 55.0303M300.282 52.5303C289.282 51.0303 278.282 46.2303 266.282 40.2303M228.282 30.5303L272.282 28.0303L280.782 26.5303" stroke="black" stroke-width="0.5"/>
<path d="M290.282 40.5303C290.282 38.5303 289.282 34.5303 285.782 32.5303C288.003 32.5303 291.379 33.5707 293.891 35.9403C294.354 37.4703 293.282 41.0303 290.24 42.5303C290.226 41.94 290.282 41.2546 290.282 40.5303Z" fill="#EFC7D3"/>
<path d="M272.282 43.0303C279.277 43.3801 285.294 43.4851 290.675 44.0303M297.282 45.0303C295.179 44.5796 292.985 44.2644 290.675 44.0303M295.282 37.5303C294.864 36.9451 294.395 36.4159 293.891 35.9403M290.675 44.0303C290.349 43.6855 290.255 43.1625 290.24 42.5303M290.24 42.5303C290.226 41.94 290.282 41.2546 290.282 40.5303C290.282 38.5303 289.282 34.5303 285.782 32.5303C288.003 32.5303 291.379 33.5707 293.891 35.9403M290.24 42.5303C293.282 41.0303 294.354 37.4703 293.891 35.9403" stroke="black" stroke-width="0.5"/>
<path d="M290.282 40.5303C285.782 40.5303 283.782 36.5303 282.782 34.0303" stroke="black" stroke-width="0.5"/>
<path d="M132.28 12.6302C118.78 16.6302 106.78 22.5303 92.7803 35.5303C99.7803 23.5303 115.28 14.0303 130.78 9.03027L132.28 12.6302Z" fill="#EFC7D3" stroke="black" stroke-width="0.5"/>
<path d="M130.78 9.03027C110.78 14.7043 92.7803 32.0303 84.7803 30.0303C97.7803 20.5303 113.78 12.0303 130.28 7.53027L130.78 9.03027Z" fill="#EFC7D3" stroke="black" stroke-width="0.5"/>
<path d="M9.78094 48.0302H3.78094C1.28027 52.0302 1.28027 62.0302 1.78094 65.5302C0.280273 66.5302 0.280871 71.0302 1.28094 72.5302L5.28094 73.0302V74.5302L1.28094 76.5302V78.5302C5.28094 79.5302 13.7809 81.5302 21.7809 81.0302V79.5302H39.2809C38.6143 71.0302 40.2809 60.5302 49.2809 53.5302C46.7809 49.5302 39.7809 45.0302 36.7809 44.5302C26.7809 43.5302 11.7809 46.0302 9.78094 48.0302Z" fill="#EFC7D3" stroke="black" stroke-width="0.5"/>
<path d="M92.7817 35.5303C74.9484 36.3636 43.2817 41.2303 32.7817 44.2303L36.7817 44.5303C41.7817 46.0303 47.2817 50.3636 49.2817 53.5303C62.2808 44.0303 87.7808 51.0303 86.2808 78.5303H96.2808C89.2808 67.5303 90.2808 45.5303 92.7817 35.5303Z" fill="#EFC7D3" stroke="black" stroke-width="0.5"/>
<path d="M9.78027 48.0303H3.78027C36.2805 28.5302 58.2805 34.5303 84.2803 30.0303L93.2805 35.5303C76.2805 36.5303 47.2803 40.0303 33.2803 44.2303C25.2803 44.0303 11.2803 46.0303 9.78027 48.0303Z" fill="#EFC7D3" stroke="black" stroke-width="0.5"/>
<path d="M36.7817 44.5303C29.2817 43.5303 12.2817 45.5303 9.78173 48.0303C8.98173 50.4303 12.1151 53.3636 13.7817 54.5303C23.2817 56.0303 36.7817 50.0303 36.7817 44.5303Z" fill="#EFC7D3" stroke="black" stroke-width="0.5"/>
<path d="M3.78097 48.0303C10.781 49.0303 4.78097 59.5303 1.78097 64.5303C1.2809 57.5303 1.78076 52.0303 3.78097 48.0303Z" fill="#EFC7D3" stroke="black" stroke-width="0.5"/>
<path d="M21.7803 84.0303V79.5303H39.2803L39.7803 84.0303H21.7803Z" fill="#EFC7D3" stroke="black" stroke-width="0.5"/>
<path d="M2.28223 65.5303C3.78223 68.0303 5.78223 71.1969 5.28223 73.0303M21.7822 79.5303C11.2822 80.0303 6.78223 76.0303 7.78223 72.5303C8.28223 72.0303 9.78223 70.5303 10.7822 70.5303" stroke="black" stroke-width="0.5"/>
<path d="M31.7822 74.5304C29.2822 70.5304 23.7822 65.5305 20.7822 64.0305C19.0322 63.5305 16.4071 63.6555 13.657 64.0305C12.0321 65.3638 10.7822 68.5304 11.2822 71.5304C11.2822 72.6971 12.5896 75.0304 15.2822 75.0304C19.7822 75.0304 26.7822 75.5304 31.7822 74.5304Z" fill="#EFC7D3"/>
<path d="M5.78223 65.5305C8.03217 65.0304 10.9071 64.4055 13.657 64.0305M13.657 64.0305C16.4071 63.6555 19.0322 63.5305 20.7822 64.0305C23.7822 65.5305 29.2822 70.5304 31.7822 74.5304C26.7822 75.5304 19.7822 75.0304 15.2822 75.0304C12.5896 75.0304 11.2822 72.6971 11.2822 71.5304C10.7822 68.5304 12.0321 65.3638 13.657 64.0305Z" stroke="black" stroke-width="0.5"/>
<path d="M11.2822 71.0305C19.2822 69.5305 22.7822 72.159 25.7822 73.659M12.7822 74.0305L30.2822 73.5305" stroke="black" stroke-width="0.5"/>
<path d="M21.7803 82.5303H31.2803C33.2803 82.5303 34.7803 80.5303 34.2803 79.5303M37.7803 79.5303V84.0303" stroke="black" stroke-width="0.5"/>
<path d="M21.7817 81.0305C17.2817 81.0305 12.7817 81.5305 1.28168 78.5305V76.5305L5.28168 74.5305V73.0305L1.28168 72.5305C0.780762 71.0303 -0.219042 68.0303 1.78095 65.5303C1.2812 57.5303 1.7812 51.0303 3.78168 48.03C36.2817 28.5304 58.2817 34.5305 84.2817 30.0305C162.282 -24.9697 244.282 12.0303 281.282 26.5305L294.782 28.5303L295.282 35.5303V38.5303C296.78 43.5303 298.115 48.0303 296.782 50.0303C299.282 51.0303 301.782 54.1969 301.782 56.0303L299.782 66.0303C300.234 76.8782 297.826 77.1025 288.494 77.4149C287.503 77.4481 285.434 77.4823 284.282 77.5303V79.0303L259.282 79.4613M21.7817 81.0305V84.0305H39.78L39.2817 79.5305M21.7817 81.0305V79.5305H39.2817M39.2817 79.5305C36.2817 38.0305 89.7817 41.0305 86.2817 80.0305V82.5303H212.782C206.782 39.0303 261.282 39.0303 259.282 79.4613M258.78 79.4613H259.282" stroke="black"/>
</svg>
