<svg width="303" height="96" viewBox="0 0 303 96" fill="none" xmlns="http://www.w3.org/2000/svg">
<circle cx="62.2817" cy="74.5378" r="20.5" fill="#E56E90" stroke="black"/>
<circle cx="235.282" cy="74.5378" r="20.5" fill="#E56E90" stroke="black"/>
<path d="M132.28 13.0377L130.78 9.5377C170.78 1.53781 192.28 2.03784 231.28 13.5378L227.78 18.0378C207.78 10.0378 189.78 9.03775 173.78 8.53782C171.28 8.03782 167.28 8.03778 164.78 8.5377C154.78 8.53782 142.78 10.0378 132.28 13.0377Z" fill="#EDADBF" stroke="black" stroke-width="0.5"/>
<path d="M130.78 9.53789L130.28 8.03789C166.28 -2.96216 198.78 1.03772 234.28 10.0379L231.28 13.5379C191.28 1.03784 165.28 2.53784 130.78 9.53789Z" fill="#EDADBF" stroke="black" stroke-width="0.5"/>
<path d="M130.78 9.53771C182.28 -1.96232 210.78 8.03772 231.28 13.5377" stroke="black" stroke-width="0.5"/>
<path d="M170.282 30.5378L173.782 8.53784C207.282 9.53784 218.782 15.0378 223.282 16.5378L225.764 28.5378C198.774 28.5385 181.279 30.0379 170.282 30.5378Z" fill="#EDADBF"/>
<path d="M226.282 31.0378L223.282 16.5378C218.782 15.0378 207.282 9.53784 173.782 8.53784L170.282 30.5378C181.282 30.0378 198.782 28.5378 225.782 28.5378" stroke="black" stroke-width="0.5"/>
<path d="M164.782 8.53784C131.782 9.53784 111.782 18.5378 92.7817 36.0378L95.2817 34.0378L159.282 31.0378L164.782 8.53784Z" fill="#EDADBF" stroke="black" stroke-width="0.5"/>
<path d="M239.28 23.0378C235.614 20.3712 229.78 18.0378 223.28 16.5378L225.78 28.5378H232.28C235.28 27.0378 238.28 24.8066 239.28 23.0378Z" fill="#EDADBF" stroke="black" stroke-width="0.5"/>
<path d="M96.2817 79.0378H163.282L197.782 77.5378H212.282L212.782 83.0378H198.782H97.7817H86.2817V79.0378H96.2817Z" fill="#EDADBF"/>
<path d="M96.2817 79.0378H163.282L197.782 77.5378M96.2817 79.0378C96.2817 80.5378 96.7817 81.5378 97.7817 83.0378M96.2817 79.0378H86.2817V83.0378H97.7817M197.782 77.5378L198.782 83.0378M197.782 77.5378H212.282L212.782 83.0378H198.782M198.782 83.0378H97.7817" stroke="black" stroke-width="0.5"/>
<path d="M96.2809 79.0378C91.7817 74.5378 88.7818 52.5378 92.7809 36.0378L164.782 32.0378C160.782 37.0378 159.782 71.0378 163.282 79.0378H96.2809Z" fill="#EDADBF" stroke="black" stroke-width="0.5"/>
<path d="M228.281 31.0378L164.781 32.0378C160.781 37.0378 159.781 71.0378 163.281 79.0378L197.781 77.5378C202.281 76.0378 208.781 70.5378 228.281 31.0378Z" fill="#EDADBF" stroke="black" stroke-width="0.5"/>
<path d="M170.282 30.5379C165.782 31.0379 162.282 31.0379 159.282 31.0379L164.782 8.53792C167.782 8.03784 170.782 8.03784 173.782 8.53792L170.282 30.5379Z" fill="#EDADBF" stroke="black" stroke-width="0.5"/>
<path d="M98.7817 32.5379C103.282 38.0379 110.282 34.5379 114.282 33.0379C115.282 17.5377 102.282 25.5377 98.7817 32.5379Z" fill="#EDADBF" stroke="black" stroke-width="0.5"/>
<path d="M234.28 10.0378L231.28 13.5378C248.28 19.0378 258.78 22.0378 271.28 28.5378H272.78L280.78 27.0378C265.78 20.5378 258.28 18.0378 234.28 10.0378Z" fill="#EFC7D3" stroke="black" stroke-width="0.5"/>
<path d="M271.28 28.5378C260.78 23.0378 241.78 16.5378 231.28 13.5378L229.28 16.0378L244.28 23.5378C242.78 26.0378 238.78 28.0378 232.78 30.7378C244.78 30.0378 261.78 29.0378 271.28 28.5378Z" fill="#EFC7D3" stroke="black" stroke-width="0.5"/>
<path d="M276.782 34.8378L282.78 32.5378L272.281 28.5378L228.281 31.0378C220.781 46.0378 205.781 76.5378 197.781 77.5378H212.281C210.781 66.5378 220.281 43.0378 245.282 52.0378C255.782 46.5378 265.782 41.0378 276.782 34.8378Z" fill="#EFC7D3" stroke="black" stroke-width="0.5"/>
<path d="M277.78 34.5379C265.78 41.0379 255.78 46.5379 245.28 52.0379C249.78 55.0378 260.28 61.0378 259.28 80.0378L284.28 79.5378V78.0378C292.78 77.0378 301.28 80.5378 299.78 66.5378L301.78 56.5378C301.78 55.0378 299.28 51.0378 296.78 50.5378C298.28 48.0378 295.28 39.0378 295.28 39.0378V37.5378L291.28 34.5378L286.28 33.0378L282.78 32.5378L277.78 34.5379Z" fill="#EFC7D3" stroke="black" stroke-width="0.5"/>
<path d="M280.78 27.0378L272.28 28.5378L282.78 32.5378C292.28 33.5378 291.279 35.0378 295.274 37.458L294.78 29.0378L280.78 27.0378Z" fill="#EFC7D3"/>
<path d="M295.28 37.5378L295.274 37.458M295.274 37.458L294.78 29.0378L280.78 27.0378L272.28 28.5378L282.78 32.5378C292.28 33.5378 291.279 35.0378 295.274 37.458Z" stroke="black" stroke-width="0.5"/>
<path d="M293.782 37.038C293.282 34.5379 282.282 34.3379 276.782 34.8379" stroke="black" stroke-width="0.5"/>
<path d="M299.782 67.0378L260.282 69.0378C259.782 64.0378 257.615 59.8712 255.782 58.0378L301.782 55.5378M300.282 53.0378C289.282 51.5378 278.282 46.7378 266.282 40.7378M228.282 31.0378L272.282 28.5378L280.782 27.0378" stroke="black" stroke-width="0.5"/>
<path d="M290.282 41.0378C290.282 39.0378 289.282 35.0378 285.782 33.0378C288.003 33.0378 291.379 34.0782 293.891 36.4478C294.354 37.9778 293.282 41.5378 290.24 43.0378C290.226 42.4476 290.282 41.7621 290.282 41.0378Z" fill="#EFC7D3"/>
<path d="M272.282 43.5378C279.277 43.8876 285.294 43.9927 290.675 44.5378M297.282 45.5378C295.179 45.0872 292.985 44.7719 290.675 44.5378M295.282 38.0378C294.864 37.4527 294.395 36.9235 293.891 36.4478M290.675 44.5378C290.349 44.1931 290.255 43.67 290.24 43.0378M290.24 43.0378C290.226 42.4476 290.282 41.7621 290.282 41.0378C290.282 39.0378 289.282 35.0378 285.782 33.0378C288.003 33.0378 291.379 34.0782 293.891 36.4478M290.24 43.0378C293.282 41.5378 294.354 37.9778 293.891 36.4478" stroke="black" stroke-width="0.5"/>
<path d="M290.282 41.0378C285.782 41.0378 283.782 37.0378 282.782 34.5378" stroke="black" stroke-width="0.5"/>
<path d="M132.28 13.1378C118.78 17.1378 106.78 23.0378 92.7803 36.0378C99.7803 24.0378 115.28 14.5378 130.78 9.53784L132.28 13.1378Z" fill="#E0426F" stroke="black" stroke-width="0.5"/>
<path d="M130.78 9.53784C110.78 15.2119 92.7803 32.5378 84.7803 30.5378C97.7803 21.0378 113.78 12.5378 130.28 8.03784L130.78 9.53784Z" fill="#E0426F" stroke="black" stroke-width="0.5"/>
<path d="M9.78094 48.5377H3.78094C1.28027 52.5377 1.28027 62.5377 1.78094 66.0377C0.280273 67.0377 0.280871 71.5377 1.28094 73.0377L5.28094 73.5377V75.0377L1.28094 77.0377V79.0377C5.28094 80.0377 13.7809 82.0377 21.7809 81.5377V80.0377H39.2809C38.6143 71.5377 40.2809 61.0377 49.2809 54.0377C46.7809 50.0377 39.7809 45.5377 36.7809 45.0377C26.7809 44.0377 11.7809 46.5377 9.78094 48.5377Z" fill="#E0426F" stroke="black" stroke-width="0.5"/>
<path d="M92.7817 36.0378C74.9484 36.8712 43.2817 41.7378 32.7817 44.7378L36.7817 45.0378C41.7817 46.5378 47.2817 50.8712 49.2817 54.0378C62.2808 44.5378 87.7808 51.5378 86.2808 79.0378H96.2808C89.2808 68.0378 90.2808 46.0378 92.7817 36.0378Z" fill="#E0426F" stroke="black" stroke-width="0.5"/>
<path d="M9.78027 48.5379H3.78027C36.2805 29.0378 58.2805 35.0378 84.2803 30.5378L93.2805 36.0378C76.2805 37.0378 47.2803 40.5378 33.2803 44.7378C25.2803 44.5378 11.2803 46.5378 9.78027 48.5379Z" fill="#E0426F" stroke="black" stroke-width="0.5"/>
<path d="M36.7817 45.0379C29.2817 44.0378 12.2817 46.0378 9.78173 48.5379C8.98173 50.9379 12.1151 53.8712 13.7817 55.0378C23.2817 56.5378 36.7817 50.5378 36.7817 45.0379Z" fill="#E0426F" stroke="black" stroke-width="0.5"/>
<path d="M3.78097 48.5378C10.781 49.5378 4.78097 60.0378 1.78097 65.0378C1.2809 58.0378 1.78076 52.5378 3.78097 48.5378Z" fill="#E0426F" stroke="black" stroke-width="0.5"/>
<path d="M21.7803 84.5378V80.0378H39.2803L39.7803 84.5378H21.7803Z" fill="#E0426F" stroke="black" stroke-width="0.5"/>
<path d="M2.28223 66.0376C3.78223 68.5376 5.78223 71.7043 5.28223 73.5376M21.7822 80.0376C11.2822 80.5376 6.78223 76.5376 7.78223 73.0376C8.28223 72.5376 9.78223 71.0376 10.7822 71.0376" stroke="black" stroke-width="0.5"/>
<path d="M31.7822 75.0377C29.2822 71.0377 23.7822 66.0378 20.7822 64.5378C19.0322 64.0378 16.4071 64.1628 13.657 64.5378C12.0321 65.8711 10.7822 69.0377 11.2822 72.0377C11.2822 73.2044 12.5896 75.5377 15.2822 75.5377C19.7822 75.5377 26.7822 76.0377 31.7822 75.0377Z" fill="#E0426F"/>
<path d="M5.78223 66.0378C8.03217 65.5378 10.9071 64.9128 13.657 64.5378M13.657 64.5378C16.4071 64.1628 19.0322 64.0378 20.7822 64.5378C23.7822 66.0378 29.2822 71.0377 31.7822 75.0377C26.7822 76.0377 19.7822 75.5377 15.2822 75.5377C12.5896 75.5377 11.2822 73.2044 11.2822 72.0377C10.7822 69.0377 12.0321 65.8711 13.657 64.5378Z" stroke="black" stroke-width="0.5"/>
<path d="M11.2822 71.5378C19.2822 70.0378 22.7822 72.6663 25.7822 74.1663M12.7822 74.5378L30.2822 74.0378" stroke="black" stroke-width="0.5"/>
<path d="M21.7803 83.0376H31.2803C33.2803 83.0376 34.7803 81.0376 34.2803 80.0376M37.7803 80.0376V84.5376" stroke="black" stroke-width="0.5"/>
<path d="M21.7817 81.5381C17.2817 81.5381 12.7817 82.0381 1.28168 79.0381V77.0381L5.28168 75.0381V73.5381L1.28168 73.0381C0.780762 71.5378 -0.219042 68.5378 1.78095 66.0378C1.2812 58.0378 1.7812 51.5378 3.78168 48.5376C36.2817 29.038 58.2817 35.038 84.2817 30.538C162.282 -24.4621 244.282 12.5378 281.282 27.038L294.782 29.0378L295.282 36.0378V39.0378C296.78 44.0378 298.115 48.5378 296.782 50.5378C299.282 51.5378 301.782 54.7045 301.782 56.5378L299.782 66.5378C300.234 77.3858 297.826 77.61 288.494 77.9225C287.503 77.9557 285.434 77.9898 284.282 78.0378V79.5378L259.282 79.9689M21.7817 81.5381V84.5381H39.78L39.2817 80.0381M21.7817 81.5381V80.0381H39.2817M39.2817 80.0381C36.2817 38.5381 89.7817 41.5381 86.2817 80.5381V83.0378H212.782C206.782 39.5378 261.282 39.5378 259.282 79.9689M258.78 79.9689H259.282" stroke="black"/>
</svg>
