<svg width="303" height="96" viewBox="0 0 303 96" fill="none" xmlns="http://www.w3.org/2000/svg">
<circle cx="62.8545" cy="74.3384" r="20.5" fill="#EFC7D3" stroke="black"/>
<circle cx="235.854" cy="74.3384" r="20.5" fill="#EFC7D3" stroke="black"/>
<path d="M132.853 12.8382L131.353 9.33823C171.353 1.33835 192.853 1.83838 231.853 13.3383L228.353 17.8383C208.353 9.83829 190.353 8.83829 174.353 8.33836C171.853 7.83836 167.853 7.83832 165.353 8.33823C155.353 8.33836 143.353 9.83836 132.853 12.8382Z" stroke="black" stroke-width="0.5"/>
<path d="M131.353 9.33842L130.853 7.83842C166.853 -3.16162 199.353 0.838253 234.853 9.83842L231.853 13.3384C191.853 0.838379 165.853 2.33838 131.353 9.33842Z" stroke="black" stroke-width="0.5"/>
<path d="M131.353 9.33837C182.853 -2.16166 211.353 7.83838 231.853 13.3384" stroke="black" stroke-width="0.5"/>
<path d="M226.854 30.8384L223.854 16.3384C219.354 14.8384 207.854 9.33838 174.354 8.33838L170.854 30.3384C181.854 29.8384 199.354 28.3384 226.354 28.3384" stroke="black" stroke-width="0.5"/>
<path d="M165.354 8.33838C132.354 9.33838 112.354 18.3384 93.3545 35.8384L95.8545 33.8384L159.854 30.8384L165.354 8.33838Z" stroke="black" stroke-width="0.5"/>
<path d="M239.853 22.8384C236.186 20.1717 230.353 17.8384 223.853 16.3384L226.353 28.3384H232.853C235.853 26.8384 238.853 24.6071 239.853 22.8384Z" stroke="black" stroke-width="0.5"/>
<path d="M96.8545 78.8384H163.854L198.354 77.3384M96.8545 78.8384C96.8545 80.3384 97.3545 81.3384 98.3545 82.8384M96.8545 78.8384H86.8545V82.8384H98.3545M198.354 77.3384L199.354 82.8384M198.354 77.3384H212.854L213.354 82.8384H199.354M199.354 82.8384H98.3545" stroke="black" stroke-width="0.5"/>
<path d="M96.8536 78.8384C92.3545 74.3384 89.3545 52.3384 93.3536 35.8384L165.354 31.8384C161.354 36.8384 160.354 70.8384 163.854 78.8384H96.8536Z" stroke="black" stroke-width="0.5"/>
<path d="M228.854 30.8384L165.354 31.8384C161.355 36.8384 160.355 70.8384 163.854 78.8384L198.354 77.3384C202.854 75.8384 209.354 70.3384 228.854 30.8384Z" stroke="black" stroke-width="0.5"/>
<path d="M170.854 30.3385C166.354 30.8385 162.854 30.8385 159.854 30.8385L165.354 8.33845C168.354 7.83838 171.354 7.83838 174.354 8.33845L170.854 30.3385Z" stroke="black" stroke-width="0.5"/>
<path d="M99.3545 32.3385C103.854 37.8385 110.854 34.3385 114.854 32.8385C115.854 17.3384 102.854 25.3384 99.3545 32.3385Z" stroke="black" stroke-width="0.5"/>
<path d="M234.853 9.83838L231.853 13.3384C248.853 18.8384 259.353 21.8384 271.853 28.3384H273.353L281.353 26.8384C266.353 20.3384 258.853 17.8384 234.853 9.83838Z" fill="#E0426F" stroke="black" stroke-width="0.5"/>
<path d="M271.853 28.3384C261.353 22.8384 242.353 16.3384 231.853 13.3384L229.853 15.8384L244.853 23.3384C243.353 25.8384 239.353 27.8384 233.353 30.5384C245.353 29.8384 262.353 28.8384 271.853 28.3384Z" fill="#E0426F" stroke="black" stroke-width="0.5"/>
<path d="M277.354 34.6384L283.353 32.3384L272.854 28.3384L228.854 30.8384C221.354 45.8384 206.354 76.3384 198.354 77.3384H212.854C211.354 66.3384 220.854 42.8384 245.854 51.8384C256.354 46.3384 266.354 40.8384 277.354 34.6384Z" fill="#E0426F" stroke="black" stroke-width="0.5"/>
<path d="M278.353 34.3384C266.353 40.8384 256.353 46.3384 245.853 51.8384C250.353 54.8384 260.853 60.8384 259.853 79.8384L284.853 79.3384V77.8384C293.353 76.8384 301.853 80.3384 300.353 66.3384L302.353 56.3384C302.353 54.8384 299.853 50.8384 297.353 50.3384C298.853 47.8384 295.853 38.8384 295.853 38.8384V37.3384L291.853 34.3384L286.853 32.8384L283.353 32.3384L278.353 34.3384Z" fill="#E0426F" stroke="black" stroke-width="0.5"/>
<path d="M281.353 26.8384L272.853 28.3384L283.353 32.3384C292.853 33.3384 291.851 34.8384 295.847 37.2586L295.353 28.8384L281.353 26.8384Z" fill="#E0426F"/>
<path d="M295.853 37.3384L295.847 37.2586M295.847 37.2586L295.353 28.8384L281.353 26.8384L272.853 28.3384L283.353 32.3384C292.853 33.3384 291.851 34.8384 295.847 37.2586Z" stroke="black" stroke-width="0.5"/>
<path d="M294.354 36.8386C293.854 34.3385 282.854 34.1384 277.354 34.6384" stroke="black" stroke-width="0.5"/>
<path d="M300.354 66.8384L260.854 68.8384C260.354 63.8384 258.188 59.6717 256.354 57.8384L302.354 55.3384M300.854 52.8384C289.854 51.3384 278.854 46.5384 266.854 40.5384M228.854 30.8384L272.854 28.3384L281.354 26.8384" stroke="black" stroke-width="0.5"/>
<path d="M290.854 40.8384C290.854 38.8384 289.854 34.8384 286.354 32.8384C288.575 32.8384 291.952 33.8788 294.463 36.2484C294.927 37.7784 293.854 41.3384 290.813 42.8384C290.799 42.2481 290.854 41.5627 290.854 40.8384Z" fill="#E0426F"/>
<path d="M272.854 43.3384C279.85 43.6882 285.867 43.7933 291.248 44.3384M297.854 45.3384C295.751 44.8877 293.558 44.5725 291.248 44.3384M295.854 37.8384C295.437 37.2533 294.967 36.724 294.463 36.2484M291.248 44.3384C290.921 43.9936 290.827 43.4706 290.813 42.8384M290.813 42.8384C290.799 42.2481 290.854 41.5627 290.854 40.8384C290.854 38.8384 289.854 34.8384 286.354 32.8384C288.575 32.8384 291.952 33.8788 294.463 36.2484M290.813 42.8384C293.854 41.3384 294.927 37.7784 294.463 36.2484" stroke="black" stroke-width="0.5"/>
<path d="M290.854 40.8384C286.354 40.8384 284.354 36.8384 283.354 34.3384" stroke="black" stroke-width="0.5"/>
<path d="M132.853 12.9384C119.353 16.9384 107.353 22.8384 93.3525 35.8384C100.353 23.8384 115.853 14.3384 131.353 9.33838L132.853 12.9384Z" fill="#EFC7D3" stroke="black" stroke-width="0.5"/>
<path d="M131.353 9.33838C111.353 15.0124 93.3525 32.3384 85.3525 30.3384C98.3525 20.8384 114.353 12.3384 130.853 7.83838L131.353 9.33838Z" fill="#EFC7D3" stroke="black" stroke-width="0.5"/>
<path d="M10.3532 48.3384H4.35321C1.85254 52.3384 1.85254 62.3384 2.35321 65.8384C0.852539 66.8384 0.853137 71.3384 1.85321 72.8384L5.85321 73.3384V74.8384L1.85321 76.8384V78.8384C5.85321 79.8384 14.3532 81.8384 22.3532 81.3384V79.8384H39.8532C39.1865 71.3384 40.8532 60.8384 49.8532 53.8384C47.3532 49.8384 40.3532 45.3384 37.3532 44.8384C27.3532 43.8384 12.3532 46.3384 10.3532 48.3384Z" fill="#EFC7D3" stroke="black" stroke-width="0.5"/>
<path d="M93.3545 35.8384C75.5212 36.6717 43.8545 41.5384 33.3545 44.5384L37.3545 44.8384C42.3545 46.3384 47.8545 50.6717 49.8545 53.8384C62.8535 44.3384 88.3535 51.3384 86.8535 78.8384H96.8535C89.8535 67.8384 90.8535 45.8384 93.3545 35.8384Z" fill="#EFC7D3" stroke="black" stroke-width="0.5"/>
<path d="M10.3525 48.3384H4.35254C36.8527 28.8383 58.8528 34.8384 84.8525 30.3384L93.8528 35.8384C76.8528 36.8384 47.8525 40.3384 33.8525 44.5384C25.8525 44.3384 11.8525 46.3384 10.3525 48.3384Z" fill="#EFC7D3" stroke="black" stroke-width="0.5"/>
<path d="M37.354 44.8385C29.854 43.8384 12.854 45.8384 10.354 48.3385C9.55399 50.7384 12.6873 53.6717 14.354 54.8384C23.854 56.3384 37.354 50.3384 37.354 44.8385Z" fill="#EFC7D3" stroke="black" stroke-width="0.5"/>
<path d="M4.35323 48.3384C11.3532 49.3384 5.35323 59.8384 2.35323 64.8384C1.85316 57.8384 2.35303 52.3384 4.35323 48.3384Z" fill="#EFC7D3" stroke="black" stroke-width="0.5"/>
<path d="M22.3525 84.3384V79.8384H39.8525L40.3525 84.3384H22.3525Z" fill="#EFC7D3" stroke="black" stroke-width="0.5"/>
<path d="M2.85449 65.8384C4.35449 68.3384 6.35449 71.505 5.85449 73.3384M22.3545 79.8384C11.8545 80.3384 7.35449 76.3384 8.35449 72.8384C8.85449 72.3384 10.3545 70.8384 11.3545 70.8384" stroke="black" stroke-width="0.5"/>
<path d="M32.3545 74.8384C29.8545 70.8384 24.3545 65.8385 21.3545 64.3385C19.6044 63.8384 16.9794 63.9634 14.2293 64.3385C12.6044 65.6718 11.3545 68.8384 11.8545 71.8384C11.8545 73.005 13.1619 75.3384 15.8545 75.3384C20.3545 75.3384 27.3545 75.8384 32.3545 74.8384Z" fill="#EFC7D3"/>
<path d="M6.35449 65.8385C8.60443 65.3384 11.4793 64.7135 14.2293 64.3385M14.2293 64.3385C16.9794 63.9634 19.6044 63.8384 21.3545 64.3385C24.3545 65.8385 29.8545 70.8384 32.3545 74.8384C27.3545 75.8384 20.3545 75.3384 15.8545 75.3384C13.1619 75.3384 11.8545 73.005 11.8545 71.8384C11.3545 68.8384 12.6043 65.6718 14.2293 64.3385Z" stroke="black" stroke-width="0.5"/>
<path d="M11.8545 71.3385C19.8545 69.8385 23.3545 72.467 26.3545 73.967M13.3545 74.3385L30.8545 73.8385" stroke="black" stroke-width="0.5"/>
<path d="M22.3525 82.8384H31.8525C33.8525 82.8384 35.3525 80.8384 34.8525 79.8384M38.3525 79.8384V84.3384" stroke="black" stroke-width="0.5"/>
<path d="M22.3544 81.3386C17.8544 81.3386 13.3544 81.8386 1.85444 78.8386V76.8386L5.85444 74.8386V73.3386L1.85444 72.8386C1.35352 71.3384 0.353711 68.3384 2.35371 65.8384C1.85395 57.8384 2.35395 51.3384 4.35444 48.3381C36.8544 28.8385 58.8544 34.8386 84.8544 30.3386C162.854 -24.6615 244.854 12.3384 281.854 26.8386L295.354 28.8384L295.854 35.8384V38.8384C297.353 43.8384 298.688 48.3384 297.354 50.3384C299.854 51.3384 302.354 54.505 302.354 56.3384L300.354 66.3384C300.806 77.1863 298.398 77.4106 289.067 77.723C288.076 77.7562 286.007 77.7904 284.854 77.8384V79.3384L259.854 79.7694M22.3544 81.3386V84.3386H40.3528L39.8544 79.8386M22.3544 81.3386V79.8386H39.8544M39.8544 79.8386C36.8544 38.3386 90.3544 41.3386 86.8544 80.3386V82.8384H213.354C207.354 39.3384 261.854 39.3384 259.854 79.7694M259.353 79.7694H259.854" stroke="black"/>
</svg>
