<svg width="303" height="96" viewBox="0 0 303 96" fill="none" xmlns="http://www.w3.org/2000/svg">
<circle cx="62.8545" cy="74.3535" r="20.5" fill="#EFC7D3" stroke="black"/>
<circle cx="235.854" cy="74.3535" r="20.5" fill="#EFC7D3" stroke="black"/>
<path d="M132.853 12.8534L131.353 9.35337C171.353 1.35348 192.853 1.85352 231.853 13.3535L228.353 17.8535C208.353 9.85343 190.353 8.85342 174.353 8.35349C171.853 7.85349 167.853 7.85345 165.353 8.35337C155.353 8.35349 143.353 9.85349 132.853 12.8534Z" fill="#EFC7D3" stroke="black" stroke-width="0.5"/>
<path d="M131.353 9.35356L130.853 7.85356C166.853 -3.14648 199.353 0.85339 234.853 9.85356L231.853 13.3536C191.853 0.853516 165.853 2.35352 131.353 9.35356Z" fill="#EFC7D3" stroke="black" stroke-width="0.5"/>
<path d="M131.353 9.3535C182.853 -2.14652 211.353 7.85352 231.853 13.3535" stroke="black" stroke-width="0.5"/>
<path d="M170.854 30.3535L174.354 8.35352C207.854 9.35352 219.354 14.8535 223.854 16.3535L226.337 28.3535C199.347 28.3542 181.852 29.8536 170.854 30.3535Z" fill="#EFC7D3"/>
<path d="M226.854 30.8535L223.854 16.3535C219.354 14.8535 207.854 9.35352 174.354 8.35352L170.854 30.3535C181.854 29.8535 199.354 28.3535 226.354 28.3535" stroke="black" stroke-width="0.5"/>
<path d="M165.354 8.35352C132.354 9.35352 112.354 18.3535 93.3545 35.8535L95.8545 33.8535L159.854 30.8535L165.354 8.35352Z" fill="#EFC7D3" stroke="black" stroke-width="0.5"/>
<path d="M239.853 22.8535C236.186 20.1868 230.353 17.8535 223.853 16.3535L226.353 28.3535H232.853C235.853 26.8535 238.853 24.6223 239.853 22.8535Z" fill="#EFC7D3" stroke="black" stroke-width="0.5"/>
<path d="M96.8545 78.8535H163.854L198.354 77.3535H212.854L213.354 82.8535H199.354H98.3545H86.8545V78.8535H96.8545Z" fill="#EFC7D3"/>
<path d="M96.8545 78.8535H163.854L198.354 77.3535M96.8545 78.8535C96.8545 80.3535 97.3545 81.3535 98.3545 82.8535M96.8545 78.8535H86.8545V82.8535H98.3545M198.354 77.3535L199.354 82.8535M198.354 77.3535H212.854L213.354 82.8535H199.354M199.354 82.8535H98.3545" stroke="black" stroke-width="0.5"/>
<path d="M96.8536 78.8535C92.3545 74.3535 89.3545 52.3535 93.3536 35.8535L165.354 31.8535C161.354 36.8535 160.354 70.8535 163.854 78.8535H96.8536Z" fill="#EFC7D3" stroke="black" stroke-width="0.5"/>
<path d="M228.854 30.8535L165.354 31.8535C161.355 36.8535 160.355 70.8535 163.854 78.8535L198.354 77.3535C202.854 75.8535 209.354 70.3535 228.854 30.8535Z" fill="#EFC7D3" stroke="black" stroke-width="0.5"/>
<path d="M170.854 30.3536C166.354 30.8536 162.854 30.8536 159.854 30.8536L165.354 8.35359C168.354 7.85352 171.354 7.85352 174.354 8.35359L170.854 30.3536Z" fill="#EFC7D3" stroke="black" stroke-width="0.5"/>
<path d="M99.3545 32.3537C103.854 37.8537 110.854 34.3537 114.854 32.8537C115.854 17.3535 102.854 25.3535 99.3545 32.3537Z" fill="#EFC7D3" stroke="black" stroke-width="0.5"/>
<path d="M234.853 9.85352L231.853 13.3535C248.853 18.8535 259.353 21.8535 271.853 28.3535H273.353L281.353 26.8535C266.353 20.3535 258.853 17.8535 234.853 9.85352Z" fill="#E0426F" stroke="black" stroke-width="0.5"/>
<path d="M271.853 28.3535C261.353 22.8535 242.353 16.3535 231.853 13.3535L229.853 15.8535L244.853 23.3535C243.353 25.8535 239.353 27.8535 233.353 30.5535C245.353 29.8535 262.353 28.8535 271.853 28.3535Z" fill="#E0426F" stroke="black" stroke-width="0.5"/>
<path d="M277.354 34.6535L283.353 32.3535L272.854 28.3535L228.854 30.8535C221.354 45.8535 206.354 76.3535 198.354 77.3535H212.854C211.354 66.3535 220.854 42.8535 245.854 51.8535C256.354 46.3535 266.354 40.8535 277.354 34.6535Z" fill="#E0426F" stroke="black" stroke-width="0.5"/>
<path d="M278.353 34.3535C266.353 40.8535 256.353 46.3535 245.853 51.8535C250.353 54.8535 260.853 60.8535 259.853 79.8535L284.853 79.3535V77.8535C293.353 76.8535 301.853 80.3535 300.353 66.3535L302.353 56.3535C302.353 54.8535 299.853 50.8535 297.353 50.3535C298.853 47.8535 295.853 38.8535 295.853 38.8535V37.3535L291.853 34.3535L286.853 32.8535L283.353 32.3535L278.353 34.3535Z" fill="#E0426F" stroke="black" stroke-width="0.5"/>
<path d="M281.353 26.8535L272.853 28.3535L283.353 32.3535C292.853 33.3535 291.851 34.8535 295.847 37.2737L295.353 28.8535L281.353 26.8535Z" fill="#E0426F"/>
<path d="M295.853 37.3535L295.847 37.2737M295.847 37.2737L295.353 28.8535L281.353 26.8535L272.853 28.3535L283.353 32.3535C292.853 33.3535 291.851 34.8535 295.847 37.2737Z" stroke="black" stroke-width="0.5"/>
<path d="M294.354 36.8537C293.854 34.3536 282.854 34.1535 277.354 34.6535" stroke="black" stroke-width="0.5"/>
<path d="M300.354 66.8535L260.854 68.8535C260.354 63.8535 258.188 59.6868 256.354 57.8535L302.354 55.3535M300.854 52.8535C289.854 51.3535 278.854 46.5535 266.854 40.5535M228.854 30.8535L272.854 28.3535L281.354 26.8535" stroke="black" stroke-width="0.5"/>
<path d="M290.854 40.8535C290.854 38.8535 289.854 34.8535 286.354 32.8535C288.575 32.8535 291.952 33.8939 294.463 36.2635C294.927 37.7935 293.854 41.3535 290.813 42.8535C290.799 42.2632 290.854 41.5778 290.854 40.8535Z" fill="#E0426F"/>
<path d="M272.854 43.3535C279.85 43.7033 285.867 43.8084 291.248 44.3535M297.854 45.3535C295.751 44.9029 293.558 44.5876 291.248 44.3535M295.854 37.8535C295.437 37.2684 294.967 36.7392 294.463 36.2635M291.248 44.3535C290.921 44.0088 290.827 43.4857 290.813 42.8535M290.813 42.8535C290.799 42.2632 290.854 41.5778 290.854 40.8535C290.854 38.8535 289.854 34.8535 286.354 32.8535C288.575 32.8535 291.952 33.8939 294.463 36.2635M290.813 42.8535C293.854 41.3535 294.927 37.7935 294.463 36.2635" stroke="black" stroke-width="0.5"/>
<path d="M290.854 40.8535C286.354 40.8535 284.354 36.8535 283.354 34.3535" stroke="black" stroke-width="0.5"/>
<path d="M132.853 12.9535C119.353 16.9535 107.353 22.8535 93.3525 35.8535C100.353 23.8535 115.853 14.3535 131.353 9.35352L132.853 12.9535Z" fill="#EDADBF" stroke="black" stroke-width="0.5"/>
<path d="M131.353 9.35352C111.353 15.0276 93.3525 32.3535 85.3525 30.3535C98.3525 20.8535 114.353 12.3535 130.853 7.85352L131.353 9.35352Z" fill="#EDADBF" stroke="black" stroke-width="0.5"/>
<path d="M10.3532 48.3535H4.35321C1.85254 52.3535 1.85254 62.3535 2.35321 65.8535C0.852539 66.8535 0.853137 71.3535 1.85321 72.8535L5.85321 73.3535V74.8535L1.85321 76.8535V78.8535C5.85321 79.8535 14.3532 81.8535 22.3532 81.3535V79.8535H39.8532C39.1865 71.3535 40.8532 60.8535 49.8532 53.8535C47.3532 49.8535 40.3532 45.3535 37.3532 44.8535C27.3532 43.8535 12.3532 46.3535 10.3532 48.3535Z" fill="#EDADBF" stroke="black" stroke-width="0.5"/>
<path d="M93.3545 35.8535C75.5212 36.6868 43.8545 41.5535 33.3545 44.5535L37.3545 44.8535C42.3545 46.3535 47.8545 50.6868 49.8545 53.8535C62.8535 44.3535 88.3535 51.3535 86.8535 78.8535H96.8535C89.8535 67.8535 90.8535 45.8535 93.3545 35.8535Z" fill="#EDADBF" stroke="black" stroke-width="0.5"/>
<path d="M10.3525 48.3536H4.35254C36.8527 28.8535 58.8528 34.8535 84.8525 30.3535L93.8528 35.8535C76.8528 36.8535 47.8525 40.3535 33.8525 44.5535C25.8525 44.3535 11.8525 46.3535 10.3525 48.3536Z" fill="#EDADBF" stroke="black" stroke-width="0.5"/>
<path d="M37.354 44.8536C29.854 43.8535 12.854 45.8535 10.354 48.3536C9.55399 50.7535 12.6873 53.6868 14.354 54.8535C23.854 56.3535 37.354 50.3535 37.354 44.8536Z" fill="#EDADBF" stroke="black" stroke-width="0.5"/>
<path d="M4.35323 48.3535C11.3532 49.3535 5.35323 59.8535 2.35323 64.8535C1.85316 57.8535 2.35303 52.3535 4.35323 48.3535Z" fill="#EDADBF" stroke="black" stroke-width="0.5"/>
<path d="M22.3525 84.3535V79.8535H39.8525L40.3525 84.3535H22.3525Z" fill="#EDADBF" stroke="black" stroke-width="0.5"/>
<path d="M2.85449 65.8535C4.35449 68.3535 6.35449 71.5202 5.85449 73.3535M22.3545 79.8535C11.8545 80.3535 7.35449 76.3535 8.35449 72.8535C8.85449 72.3535 10.3545 70.8535 11.3545 70.8535" stroke="black" stroke-width="0.5"/>
<path d="M32.3545 74.8535C29.8545 70.8535 24.3545 65.8536 21.3545 64.3536C19.6044 63.8536 16.9794 63.9786 14.2293 64.3536C12.6044 65.6869 11.3545 68.8535 11.8545 71.8535C11.8545 73.0202 13.1619 75.3535 15.8545 75.3535C20.3545 75.3535 27.3545 75.8535 32.3545 74.8535Z" fill="#EDADBF"/>
<path d="M6.35449 65.8536C8.60443 65.3536 11.4793 64.7286 14.2293 64.3536M14.2293 64.3536C16.9794 63.9786 19.6044 63.8536 21.3545 64.3536C24.3545 65.8536 29.8545 70.8535 32.3545 74.8535C27.3545 75.8535 20.3545 75.3535 15.8545 75.3535C13.1619 75.3535 11.8545 73.0202 11.8545 71.8535C11.3545 68.8535 12.6043 65.6869 14.2293 64.3536Z" stroke="black" stroke-width="0.5"/>
<path d="M11.8545 71.3536C19.8545 69.8536 23.3545 72.4821 26.3545 73.9821M13.3545 74.3536L30.8545 73.8536" stroke="black" stroke-width="0.5"/>
<path d="M22.3525 82.8535H31.8525C33.8525 82.8535 35.3525 80.8535 34.8525 79.8535M38.3525 79.8535V84.3535" stroke="black" stroke-width="0.5"/>
<path d="M22.3544 81.3538C17.8544 81.3538 13.3544 81.8538 1.85444 78.8538V76.8538L5.85444 74.8538V73.3538L1.85444 72.8538C1.35352 71.3535 0.353711 68.3535 2.35371 65.8535C1.85395 57.8535 2.35395 51.3535 4.35444 48.3533C36.8544 28.8537 58.8544 34.8537 84.8544 30.3537C162.854 -24.6464 244.854 12.3535 281.854 26.8537L295.354 28.8535L295.854 35.8535V38.8535C297.353 43.8535 298.688 48.3535 297.354 50.3535C299.854 51.3535 302.354 54.5202 302.354 56.3535L300.354 66.3535C300.806 77.2014 298.398 77.4257 289.067 77.7382C288.076 77.7713 286.007 77.8055 284.854 77.8535V79.3535L259.854 79.7846M22.3544 81.3538V84.3538H40.3528L39.8544 79.8538M22.3544 81.3538V79.8538H39.8544M39.8544 79.8538C36.8544 38.3538 90.3544 41.3538 86.8544 80.3538V82.8535H213.354C207.354 39.3535 261.854 39.3535 259.854 79.7846M259.353 79.7846H259.854" stroke="black"/>
</svg>
