<svg width="303" height="95" viewBox="0 0 303 95" fill="none" xmlns="http://www.w3.org/2000/svg">
<circle cx="62.8545" cy="73.6919" r="20.5" fill="#EFC7D3" stroke="black"/>
<circle cx="235.854" cy="73.6919" r="20.5" fill="#EFC7D3" stroke="black"/>
<path d="M132.853 12.1918L131.353 8.69175C171.353 0.691862 192.853 1.19189 231.853 12.6918L228.353 17.1918C208.353 9.1918 190.353 8.1918 174.353 7.69187C171.853 7.19187 167.853 7.19183 165.353 7.69175C155.353 7.69187 143.353 9.19187 132.853 12.1918Z" fill="#EFC7D3" stroke="black" stroke-width="0.5"/>
<path d="M131.353 8.69194L130.853 7.19194C166.853 -3.80811 199.353 0.191769 234.853 9.19194L231.853 12.6919C191.853 0.191895 165.853 1.69189 131.353 8.69194Z" fill="#EFC7D3" stroke="black" stroke-width="0.5"/>
<path d="M131.353 8.692C182.853 -2.80802 211.353 7.19202 231.853 12.692" stroke="black" stroke-width="0.5"/>
<path d="M170.854 29.6919L174.354 7.69189C207.854 8.69189 219.354 14.1919 223.854 15.6919L226.337 27.6919C199.347 27.6925 181.852 29.192 170.854 29.6919Z" fill="#EFC7D3"/>
<path d="M226.854 30.1919L223.854 15.6919C219.354 14.1919 207.854 8.69189 174.354 7.69189L170.854 29.6919C181.854 29.1919 199.354 27.6919 226.354 27.6919" stroke="black" stroke-width="0.5"/>
<path d="M165.354 7.69189C132.354 8.69189 112.354 17.6919 93.3545 35.1919L95.8545 33.1919L159.854 30.1919L165.354 7.69189Z" fill="#EFC7D3" stroke="black" stroke-width="0.5"/>
<path d="M239.853 22.1919C236.186 19.5252 230.353 17.1919 223.853 15.6919L226.353 27.6919H232.853C235.853 26.1919 238.853 23.9606 239.853 22.1919Z" fill="#EFC7D3" stroke="black" stroke-width="0.5"/>
<path d="M96.8545 78.1919H163.854L198.354 76.6919H212.854L213.354 82.1919H199.354H98.3545H86.8545V78.1919H96.8545Z" fill="#EFC7D3"/>
<path d="M96.8545 78.1919H163.854L198.354 76.6919M96.8545 78.1919C96.8545 79.6919 97.3545 80.6919 98.3545 82.1919M96.8545 78.1919H86.8545V82.1919H98.3545M198.354 76.6919L199.354 82.1919M198.354 76.6919H212.854L213.354 82.1919H199.354M199.354 82.1919H98.3545" stroke="black" stroke-width="0.5"/>
<path d="M96.8536 78.1919C92.3545 73.6919 89.3545 51.6919 93.3536 35.1919L165.354 31.1919C161.354 36.1919 160.354 70.1919 163.854 78.1919H96.8536Z" fill="#EFC7D3" stroke="black" stroke-width="0.5"/>
<path d="M228.854 30.1919L165.354 31.1919C161.355 36.1919 160.355 70.1919 163.854 78.1919L198.354 76.6919C202.854 75.1919 209.354 69.6919 228.854 30.1919Z" fill="#EFC7D3" stroke="black" stroke-width="0.5"/>
<path d="M170.854 29.692C166.354 30.192 162.854 30.192 159.854 30.192L165.354 7.69197C168.354 7.19189 171.354 7.19189 174.354 7.69197L170.854 29.692Z" fill="#EFC7D3" stroke="black" stroke-width="0.5"/>
<path d="M99.3545 31.6922C103.854 37.1922 110.854 33.6922 114.854 32.1922C115.854 16.692 102.854 24.692 99.3545 31.6922Z" fill="#EFC7D3" stroke="black" stroke-width="0.5"/>
<path d="M234.853 9.19189L231.853 12.6919C248.853 18.1919 259.353 21.1919 271.853 27.6919H273.353L281.353 26.1919C266.353 19.6919 258.853 17.1919 234.853 9.19189Z" fill="#E0426F" stroke="black" stroke-width="0.5"/>
<path d="M271.853 27.6919C261.353 22.1919 242.353 15.6919 231.853 12.6919L229.853 15.1919L244.853 22.6919C243.353 25.1919 239.353 27.1919 233.353 29.8919C245.353 29.1919 262.353 28.1919 271.853 27.6919Z" fill="#E0426F" stroke="black" stroke-width="0.5"/>
<path d="M277.354 33.9919L283.353 31.6919L272.854 27.6919L228.854 30.1919C221.354 45.1919 206.354 75.6919 198.354 76.6919H212.854C211.354 65.6919 220.854 42.1919 245.854 51.1919C256.354 45.6919 266.354 40.1919 277.354 33.9919Z" fill="#E0426F" stroke="black" stroke-width="0.5"/>
<path d="M278.353 33.6919C266.353 40.1919 256.353 45.6919 245.853 51.1919C250.353 54.1919 260.853 60.1919 259.853 79.1919L284.853 78.6919V77.1919C293.353 76.1919 301.853 79.6919 300.353 65.6919L302.353 55.6919C302.353 54.1919 299.853 50.1919 297.353 49.6919C298.853 47.1919 295.853 38.1919 295.853 38.1919V36.6919L291.853 33.6919L286.853 32.1919L283.353 31.6919L278.353 33.6919Z" fill="#E0426F" stroke="black" stroke-width="0.5"/>
<path d="M281.353 26.1919L272.853 27.6919L283.353 31.6919C292.853 32.6919 291.851 34.1919 295.847 36.6121L295.353 28.1919L281.353 26.1919Z" fill="#E0426F"/>
<path d="M295.853 36.6919L295.847 36.6121M295.847 36.6121L295.353 28.1919L281.353 26.1919L272.853 27.6919L283.353 31.6919C292.853 32.6919 291.851 34.1919 295.847 36.6121Z" stroke="black" stroke-width="0.5"/>
<path d="M294.354 36.1921C293.854 33.692 282.854 33.4919 277.354 33.9919" stroke="black" stroke-width="0.5"/>
<path d="M300.354 66.1919L260.854 68.1919C260.354 63.1919 258.188 59.0252 256.354 57.1919L302.354 54.6919M300.854 52.1919C289.854 50.6919 278.854 45.8919 266.854 39.8919M228.854 30.1919L272.854 27.6919L281.354 26.1919" stroke="black" stroke-width="0.5"/>
<path d="M290.854 40.1919C290.854 38.1919 289.854 34.1919 286.354 32.1919C288.575 32.1919 291.952 33.2323 294.463 35.6019C294.927 37.1319 293.854 40.6919 290.813 42.1919C290.799 41.6016 290.854 40.9162 290.854 40.1919Z" fill="#E0426F"/>
<path d="M272.854 42.6919C279.85 43.0417 285.867 43.1468 291.248 43.6919M297.854 44.6919C295.751 44.2413 293.558 43.926 291.248 43.6919M295.854 37.1919C295.437 36.6068 294.967 36.0775 294.463 35.6019M291.248 43.6919C290.921 43.3471 290.827 42.8241 290.813 42.1919M290.813 42.1919C290.799 41.6016 290.854 40.9162 290.854 40.1919C290.854 38.1919 289.854 34.1919 286.354 32.1919C288.575 32.1919 291.952 33.2323 294.463 35.6019M290.813 42.1919C293.854 40.6919 294.927 37.1319 294.463 35.6019" stroke="black" stroke-width="0.5"/>
<path d="M290.854 40.1919C286.354 40.1919 284.354 36.1919 283.354 33.6919" stroke="black" stroke-width="0.5"/>
<path d="M132.853 12.2919C119.353 16.2919 107.353 22.1919 93.3525 35.1919C100.353 23.1919 115.853 13.6919 131.353 8.69189L132.853 12.2919Z" fill="#E0426F" stroke="black" stroke-width="0.5"/>
<path d="M131.353 8.69189C111.353 14.3659 93.3525 31.6919 85.3525 29.6919C98.3525 20.1919 114.353 11.6919 130.853 7.19189L131.353 8.69189Z" fill="#E0426F" stroke="black" stroke-width="0.5"/>
<path d="M10.3532 47.6918H4.35321C1.85254 51.6918 1.85254 61.6918 2.35321 65.1918C0.852539 66.1918 0.853137 70.6918 1.85321 72.1918L5.85321 72.6918V74.1918L1.85321 76.1918V78.1918C5.85321 79.1918 14.3532 81.1918 22.3532 80.6918V79.1918H39.8532C39.1865 70.6918 40.8532 60.1918 49.8532 53.1918C47.3532 49.1918 40.3532 44.6918 37.3532 44.1918C27.3532 43.1918 12.3532 45.6918 10.3532 47.6918Z" fill="#E0426F" stroke="black" stroke-width="0.5"/>
<path d="M93.3545 35.1919C75.5212 36.0252 43.8545 40.8919 33.3545 43.8919L37.3545 44.1919C42.3545 45.6919 47.8545 50.0252 49.8545 53.1919C62.8535 43.6919 88.3535 50.6919 86.8535 78.1919H96.8535C89.8535 67.1919 90.8535 45.1919 93.3545 35.1919Z" fill="#E0426F" stroke="black" stroke-width="0.5"/>
<path d="M10.3525 47.6919H4.35254C36.8527 28.1918 58.8528 34.1919 84.8525 29.6919L93.8528 35.1919C76.8528 36.1919 47.8525 39.6919 33.8525 43.8919C25.8525 43.6919 11.8525 45.6919 10.3525 47.6919Z" fill="#E0426F" stroke="black" stroke-width="0.5"/>
<path d="M37.354 44.192C29.854 43.1919 12.854 45.1919 10.354 47.692C9.55399 50.0919 12.6873 53.0252 14.354 54.1919C23.854 55.6919 37.354 49.6919 37.354 44.192Z" fill="#E0426F" stroke="black" stroke-width="0.5"/>
<path d="M4.35323 47.6919C11.3532 48.6919 5.35323 59.1919 2.35323 64.1919C1.85316 57.1919 2.35303 51.6919 4.35323 47.6919Z" fill="#E0426F" stroke="black" stroke-width="0.5"/>
<path d="M22.3525 83.6919V79.1919H39.8525L40.3525 83.6919H22.3525Z" fill="#E0426F" stroke="black" stroke-width="0.5"/>
<path d="M2.85449 65.1919C4.35449 67.6919 6.35449 70.8586 5.85449 72.6919M22.3545 79.1919C11.8545 79.6919 7.35449 75.6919 8.35449 72.1919C8.85449 71.6919 10.3545 70.1919 11.3545 70.1919" stroke="black" stroke-width="0.5"/>
<path d="M32.3545 74.192C29.8545 70.192 24.3545 65.1921 21.3545 63.6921C19.6044 63.1921 16.9794 63.3171 14.2293 63.6921C12.6044 65.0254 11.3545 68.192 11.8545 71.192C11.8545 72.3587 13.1619 74.692 15.8545 74.692C20.3545 74.692 27.3545 75.192 32.3545 74.192Z" fill="#E0426F"/>
<path d="M6.35449 65.1921C8.60443 64.6921 11.4793 64.0671 14.2293 63.6921M14.2293 63.6921C16.9794 63.3171 19.6044 63.1921 21.3545 63.6921C24.3545 65.1921 29.8545 70.192 32.3545 74.192C27.3545 75.192 20.3545 74.692 15.8545 74.692C13.1619 74.692 11.8545 72.3587 11.8545 71.192C11.3545 68.192 12.6043 65.0254 14.2293 63.6921Z" stroke="black" stroke-width="0.5"/>
<path d="M11.8545 70.6921C19.8545 69.1921 23.3545 71.8206 26.3545 73.3206M13.3545 73.6921L30.8545 73.1921" stroke="black" stroke-width="0.5"/>
<path d="M22.3525 82.1919H31.8525C33.8525 82.1919 35.3525 80.1919 34.8525 79.1919M38.3525 79.1919V83.6919" stroke="black" stroke-width="0.5"/>
<path d="M22.3544 80.6921C17.8544 80.6921 13.3544 81.1921 1.85444 78.1921V76.1921L5.85444 74.1921V72.6921L1.85444 72.1921C1.35352 70.6919 0.353711 67.6919 2.35371 65.1919C1.85395 57.1919 2.35395 50.6919 4.35444 47.6916C36.8544 28.192 58.8544 34.1921 84.8544 29.6921C162.854 -25.308 244.854 11.6919 281.854 26.1921L295.354 28.1919L295.854 35.1919V38.1919C297.353 43.1919 298.688 47.6919 297.354 49.6919C299.854 50.6919 302.354 53.8586 302.354 55.6919L300.354 65.6919C300.806 76.5398 298.398 76.7641 289.067 77.0765C288.076 77.1097 286.007 77.1439 284.854 77.1919V78.6919L259.854 79.1229M22.3544 80.6921V83.6921H40.3528L39.8544 79.1921M22.3544 80.6921V79.1921H39.8544M39.8544 79.1921C36.8544 37.6921 90.3544 40.6921 86.8544 79.6921V82.1919H213.354C207.354 38.6919 261.854 38.6919 259.854 79.1229M259.353 79.1229H259.854" stroke="black"/>
</svg>
