<svg width="303" height="96" viewBox="0 0 303 96" fill="none" xmlns="http://www.w3.org/2000/svg">
<circle cx="62.8853" cy="74.5076" r="20.5" fill="#EFC7D3" stroke="black"/>
<circle cx="235.885" cy="74.5076" r="20.5" fill="#EFC7D3" stroke="black"/>
<path d="M132.884 13.0074L131.384 9.50742C171.384 1.50754 192.884 2.00757 231.884 13.5075L228.384 18.0075C208.384 10.0075 190.384 9.00748 174.384 8.50755C171.884 8.00755 167.884 8.00751 165.384 8.50742C155.384 8.50755 143.384 10.0075 132.884 13.0074Z" stroke="black" stroke-width="0.5"/>
<path d="M131.384 9.50761L130.884 8.00761C166.884 -2.99243 199.384 1.00744 234.884 10.0076L231.884 13.5076C191.884 1.00757 165.884 2.50757 131.384 9.50761Z" stroke="black" stroke-width="0.5"/>
<path d="M131.384 9.50756C182.884 -1.99247 211.384 8.00757 231.884 13.5076" stroke="black" stroke-width="0.5"/>
<path d="M226.885 31.0076L223.885 16.5076C219.385 15.0076 207.885 9.50757 174.385 8.50757L170.885 30.5076C181.885 30.0076 199.385 28.5076 226.385 28.5076" stroke="black" stroke-width="0.5"/>
<path d="M165.385 8.50757C132.385 9.50757 112.385 18.5076 93.3853 36.0076L95.8853 34.0076L159.885 31.0076L165.385 8.50757Z" stroke="black" stroke-width="0.5"/>
<path d="M239.884 23.0076C236.217 20.3409 230.384 18.0076 223.884 16.5076L226.384 28.5076H232.884C235.884 27.0076 238.884 24.7763 239.884 23.0076Z" stroke="black" stroke-width="0.5"/>
<path d="M96.8853 79.0076H163.885L198.385 77.5076M96.8853 79.0076C96.8853 80.5076 97.3853 81.5076 98.3853 83.0076M96.8853 79.0076H86.8853V83.0076H98.3853M198.385 77.5076L199.385 83.0076M198.385 77.5076H212.885L213.385 83.0076H199.385M199.385 83.0076H98.3853" stroke="black" stroke-width="0.5"/>
<path d="M96.8844 79.0076C92.3852 74.5076 89.3853 52.5076 93.3844 36.0076L165.385 32.0076C161.385 37.0076 160.385 71.0076 163.885 79.0076H96.8844Z" stroke="black" stroke-width="0.5"/>
<path d="M228.885 31.0076L165.385 32.0076C161.385 37.0076 160.385 71.0076 163.885 79.0076L198.385 77.5076C202.885 76.0076 209.385 70.5076 228.885 31.0076Z" stroke="black" stroke-width="0.5"/>
<path d="M170.885 30.5076C166.385 31.0076 162.885 31.0076 159.885 31.0076L165.385 8.50764C168.385 8.00757 171.385 8.00757 174.385 8.50764L170.885 30.5076Z" stroke="black" stroke-width="0.5"/>
<path d="M99.3853 32.5077C103.885 38.0077 110.885 34.5077 114.885 33.0077C115.885 17.5076 102.885 25.5076 99.3853 32.5077Z" stroke="black" stroke-width="0.5"/>
<path d="M234.884 10.0076L231.884 13.5076C248.884 19.0076 259.384 22.0076 271.884 28.5076H273.384L281.384 27.0076C266.384 20.5076 258.884 18.0076 234.884 10.0076Z" fill="#EFC7D3" stroke="black" stroke-width="0.5"/>
<path d="M271.884 28.5076C261.384 23.0076 242.384 16.5076 231.884 13.5076L229.884 16.0076L244.884 23.5076C243.384 26.0076 239.384 28.0076 233.384 30.7076C245.384 30.0076 262.384 29.0076 271.884 28.5076Z" fill="#EFC7D3" stroke="black" stroke-width="0.5"/>
<path d="M277.385 34.8076L283.384 32.5076L272.884 28.5076L228.884 31.0076C221.384 46.0076 206.384 76.5076 198.384 77.5076H212.884C211.384 66.5076 220.884 43.0076 245.885 52.0076C256.385 46.5076 266.385 41.0076 277.385 34.8076Z" fill="#EFC7D3" stroke="black" stroke-width="0.5"/>
<path d="M278.384 34.5076C266.384 41.0076 256.384 46.5076 245.884 52.0076C250.384 55.0076 260.884 61.0076 259.884 80.0076L284.884 79.5076V78.0076C293.384 77.0076 301.884 80.5076 300.384 66.5076L302.384 56.5076C302.384 55.0076 299.884 51.0076 297.384 50.5076C298.884 48.0076 295.884 39.0076 295.884 39.0076V37.5076L291.884 34.5076L286.884 33.0076L283.384 32.5076L278.384 34.5076Z" fill="#EFC7D3" stroke="black" stroke-width="0.5"/>
<path d="M281.384 27.0076L272.884 28.5076L283.384 32.5076C292.884 33.5076 291.883 35.0076 295.878 37.4277L295.384 29.0076L281.384 27.0076Z" fill="#EFC7D3"/>
<path d="M295.884 37.5076L295.878 37.4277M295.878 37.4277L295.384 29.0076L281.384 27.0076L272.884 28.5076L283.384 32.5076C292.884 33.5076 291.883 35.0076 295.878 37.4277Z" stroke="black" stroke-width="0.5"/>
<path d="M294.385 37.0078C293.885 34.5077 282.885 34.3076 277.385 34.8076" stroke="black" stroke-width="0.5"/>
<path d="M300.385 67.0076L260.885 69.0076C260.385 64.0076 258.219 59.8409 256.385 58.0076L302.385 55.5076M300.885 53.0076C289.885 51.5076 278.885 46.7076 266.885 40.7076M228.885 31.0076L272.885 28.5076L281.385 27.0076" stroke="black" stroke-width="0.5"/>
<path d="M290.885 41.0076C290.885 39.0076 289.885 35.0076 286.385 33.0076C288.606 33.0076 291.983 34.048 294.494 36.4176C294.958 37.9476 293.885 41.5076 290.843 43.0076C290.83 42.4173 290.885 41.7319 290.885 41.0076Z" fill="#EFC7D3"/>
<path d="M272.885 43.5076C279.881 43.8574 285.898 43.9624 291.278 44.5076M297.885 45.5076C295.782 45.0569 293.589 44.7417 291.278 44.5076M295.885 38.0076C295.467 37.4224 294.998 36.8932 294.494 36.4176M291.278 44.5076C290.952 44.1628 290.858 43.6398 290.843 43.0076M290.843 43.0076C290.83 42.4173 290.885 41.7319 290.885 41.0076C290.885 39.0076 289.885 35.0076 286.385 33.0076C288.606 33.0076 291.983 34.048 294.494 36.4176M290.843 43.0076C293.885 41.5076 294.958 37.9476 294.494 36.4176" stroke="black" stroke-width="0.5"/>
<path d="M290.885 41.0076C286.385 41.0076 284.385 37.0076 283.385 34.5076" stroke="black" stroke-width="0.5"/>
<path d="M132.884 13.1075C119.384 17.1075 107.384 23.0076 93.3838 36.0076C100.384 24.0076 115.884 14.5076 131.384 9.50757L132.884 13.1075Z" fill="#EDADBF" stroke="black" stroke-width="0.5"/>
<path d="M131.384 9.50757C111.384 15.1816 93.3838 32.5076 85.3838 30.5076C98.3838 21.0076 114.384 12.5076 130.884 8.00757L131.384 9.50757Z" fill="#EDADBF" stroke="black" stroke-width="0.5"/>
<path d="M10.3845 48.5076H4.38446C1.88379 52.5076 1.88379 62.5076 2.38446 66.0076C0.883789 67.0076 0.884387 71.5076 1.88446 73.0076L5.88446 73.5076V75.0076L1.88446 77.0076V79.0076C5.88446 80.0076 14.3845 82.0076 22.3845 81.5076V80.0076H39.8845C39.2178 71.5076 40.8845 61.0076 49.8845 54.0076C47.3845 50.0076 40.3845 45.5076 37.3845 45.0076C27.3845 44.0076 12.3845 46.5076 10.3845 48.5076Z" fill="#EDADBF" stroke="black" stroke-width="0.5"/>
<path d="M93.3853 36.0076C75.5519 36.8409 43.8853 41.7076 33.3853 44.7076L37.3853 45.0076C42.3853 46.5076 47.8853 50.8409 49.8853 54.0076C62.8843 44.5076 88.3843 51.5076 86.8843 79.0076H96.8843C89.8843 68.0076 90.8843 46.0076 93.3853 36.0076Z" fill="#EDADBF" stroke="black" stroke-width="0.5"/>
<path d="M10.3838 48.5076H4.38379C36.884 29.0075 58.884 35.0076 84.8838 30.5076L93.884 36.0076C76.884 37.0076 47.8838 40.5076 33.8838 44.7076C25.8838 44.5076 11.8838 46.5076 10.3838 48.5076Z" fill="#EDADBF" stroke="black" stroke-width="0.5"/>
<path d="M37.3852 45.0076C29.8852 44.0076 12.8852 46.0076 10.3852 48.5076C9.58524 50.9076 12.7186 53.8409 14.3852 55.0076C23.8853 56.5076 37.3852 50.5076 37.3852 45.0076Z" fill="#EDADBF" stroke="black" stroke-width="0.5"/>
<path d="M4.38448 48.5076C11.3845 49.5076 5.38448 60.0076 2.38448 65.0076C1.88441 58.0076 2.38428 52.5076 4.38448 48.5076Z" fill="#EDADBF" stroke="black" stroke-width="0.5"/>
<path d="M22.3838 84.5076V80.0076H39.8838L40.3838 84.5076H22.3838Z" fill="#EDADBF" stroke="black" stroke-width="0.5"/>
<path d="M2.88574 66.0076C4.38574 68.5076 6.38574 71.6742 5.88574 73.5076M22.3857 80.0076C11.8857 80.5076 7.38574 76.5076 8.38574 73.0076C8.88574 72.5076 10.3857 71.0076 11.3857 71.0076" stroke="black" stroke-width="0.5"/>
<path d="M32.3857 75.0076C29.8857 71.0076 24.3857 66.0076 21.3857 64.5076C19.6357 64.0076 17.0106 64.1326 14.2605 64.5076C12.6356 65.841 11.3857 69.0076 11.8857 72.0076C11.8857 73.1742 13.1932 75.5076 15.8857 75.5076C20.3857 75.5076 27.3857 76.0076 32.3857 75.0076Z" fill="#EDADBF"/>
<path d="M6.38574 66.0076C8.63568 65.5076 11.5106 64.8826 14.2605 64.5076M14.2605 64.5076C17.0106 64.1326 19.6357 64.0076 21.3857 64.5076C24.3857 66.0076 29.8857 71.0076 32.3857 75.0076C27.3857 76.0076 20.3857 75.5076 15.8857 75.5076C13.1932 75.5076 11.8857 73.1742 11.8857 72.0076C11.3857 69.0076 12.6356 65.841 14.2605 64.5076Z" stroke="black" stroke-width="0.5"/>
<path d="M11.8857 71.5076C19.8857 70.0077 23.3857 72.6362 26.3857 74.1362M13.3857 74.5077L30.8857 74.0077" stroke="black" stroke-width="0.5"/>
<path d="M22.3838 83.0076H31.8838C33.8838 83.0076 35.3838 81.0076 34.8838 80.0076M38.3838 80.0076V84.5076" stroke="black" stroke-width="0.5"/>
<path d="M22.3852 81.5078C17.8852 81.5078 13.3852 82.0078 1.8852 79.0078V77.0078L5.8852 75.0078V73.5078L1.8852 73.0078C1.38428 71.5076 0.384473 68.5076 2.38447 66.0076C1.88471 58.0076 2.38471 51.5076 4.3852 48.5073C36.8852 29.0077 58.8852 35.0078 84.8852 30.5078C162.885 -24.4924 244.885 12.5076 281.885 27.0077L295.385 29.0076L295.885 36.0076V39.0076C297.384 44.0076 298.719 48.5076 297.385 50.5076C299.885 51.5076 302.385 54.6742 302.385 56.5076L300.385 66.5076C300.837 77.3555 298.429 77.5798 289.098 77.8922C288.106 77.9254 286.037 77.9596 284.885 78.0076V79.5076L259.885 79.9386M22.3852 81.5078V84.5078H40.3835L39.8852 80.0078M22.3852 81.5078V80.0078H39.8852M39.8852 80.0078C36.8852 38.5078 90.3852 41.5078 86.8852 80.5078V83.0076H213.385C207.385 39.5076 261.885 39.5076 259.885 79.9386M259.384 79.9386H259.885" stroke="black"/>
</svg>
