<svg width="303" height="96" viewBox="0 0 303 96" fill="none" xmlns="http://www.w3.org/2000/svg">
<circle cx="62.6875" cy="74.2146" r="20.5" stroke="black"/>
<circle cx="235.688" cy="74.2146" r="20.5" stroke="black"/>
<path d="M132.686 12.7145L131.186 9.21445C171.186 1.21457 192.686 1.7146 231.686 13.2145L228.186 17.7145C208.186 9.71451 190.186 8.71451 174.186 8.21458C171.686 7.71458 167.686 7.71454 165.186 8.21445C155.186 8.21458 143.186 9.71458 132.686 12.7145Z" fill="#E56E90" stroke="black" stroke-width="0.5"/>
<path d="M131.186 9.21464L130.686 7.71464C166.686 -3.2854 199.186 0.714474 234.686 9.71465L231.686 13.2146C191.686 0.7146 165.686 2.2146 131.186 9.21464Z" fill="#E56E90" stroke="black" stroke-width="0.5"/>
<path d="M131.186 9.21447C182.686 -2.28556 211.186 7.71448 231.686 13.2145" stroke="black" stroke-width="0.5"/>
<path d="M170.688 30.2146L174.188 8.2146C207.688 9.2146 219.188 14.7146 223.688 16.2146L226.17 28.2146C199.18 28.2152 181.685 29.7147 170.688 30.2146Z" fill="#E56E90"/>
<path d="M226.688 30.7146L223.688 16.2146C219.188 14.7146 207.688 9.2146 174.188 8.2146L170.688 30.2146C181.688 29.7146 199.188 28.2146 226.188 28.2146" stroke="black" stroke-width="0.5"/>
<path d="M165.188 8.2146C132.188 9.2146 112.188 18.2146 93.1875 35.7146L95.6875 33.7146L159.688 30.7146L165.188 8.2146Z" fill="#E56E90" stroke="black" stroke-width="0.5"/>
<path d="M239.686 22.7146C236.019 20.0479 230.186 17.7146 223.686 16.2146L226.186 28.2146H232.686C235.686 26.7146 238.686 24.4833 239.686 22.7146Z" fill="#E56E90" stroke="black" stroke-width="0.5"/>
<path d="M96.6875 78.7146H163.688L198.188 77.2146H212.688L213.188 82.7146H199.188H98.1875H86.6875V78.7146H96.6875Z" fill="#E56E90"/>
<path d="M96.6875 78.7146H163.688L198.188 77.2146M96.6875 78.7146C96.6875 80.2146 97.1875 81.2146 98.1875 82.7146M96.6875 78.7146H86.6875V82.7146H98.1875M198.188 77.2146L199.188 82.7146M198.188 77.2146H212.688L213.188 82.7146H199.188M199.188 82.7146H98.1875" stroke="black" stroke-width="0.5"/>
<path d="M96.6866 78.7146C92.1875 74.2146 89.1875 52.2146 93.1866 35.7146L165.188 31.7146C161.188 36.7146 160.188 70.7146 163.687 78.7146H96.6866Z" fill="#E56E90" stroke="black" stroke-width="0.5"/>
<path d="M228.687 30.7146L165.187 31.7146C161.188 36.7146 160.188 70.7146 163.687 78.7146L198.187 77.2146C202.687 75.7146 209.187 70.2146 228.687 30.7146Z" fill="#E56E90" stroke="black" stroke-width="0.5"/>
<path d="M170.688 30.2147C166.188 30.7147 162.688 30.7147 159.688 30.7147L165.188 8.21467C168.188 7.7146 171.188 7.7146 174.188 8.21467L170.688 30.2147Z" fill="#E56E90" stroke="black" stroke-width="0.5"/>
<path d="M99.1875 32.2146C103.688 37.7146 110.688 34.2146 114.688 32.7146C115.688 17.2145 102.688 25.2145 99.1875 32.2146Z" fill="#E56E90" stroke="black" stroke-width="0.5"/>
<path d="M234.686 9.7146L231.686 13.2146C248.686 18.7146 259.186 21.7146 271.686 28.2146H273.186L281.186 26.7146C266.186 20.2146 258.686 17.7146 234.686 9.7146Z" fill="#EFC7D3" stroke="black" stroke-width="0.5"/>
<path d="M271.686 28.2146C261.186 22.7146 242.186 16.2146 231.686 13.2146L229.686 15.7146L244.686 23.2146C243.186 25.7146 239.186 27.7146 233.186 30.4146C245.186 29.7146 262.186 28.7146 271.686 28.2146Z" fill="#EFC7D3" stroke="black" stroke-width="0.5"/>
<path d="M277.188 34.5146L283.186 32.2146L272.687 28.2146L228.687 30.7146C221.187 45.7146 206.187 76.2146 198.187 77.2146H212.687C211.187 66.2146 220.687 42.7146 245.688 51.7146C256.188 46.2146 266.188 40.7146 277.188 34.5146Z" fill="#EFC7D3" stroke="black" stroke-width="0.5"/>
<path d="M278.186 34.2146C266.186 40.7146 256.186 46.2146 245.686 51.7146C250.186 54.7146 260.686 60.7146 259.686 79.7146L284.686 79.2146V77.7146C293.186 76.7146 301.686 80.2146 300.186 66.2146L302.186 56.2146C302.186 54.7146 299.686 50.7146 297.186 50.2146C298.686 47.7146 295.686 38.7146 295.686 38.7146V37.2146L291.686 34.2146L286.686 32.7146L283.186 32.2146L278.186 34.2146Z" fill="#EFC7D3" stroke="black" stroke-width="0.5"/>
<path d="M281.186 26.7146L272.686 28.2146L283.186 32.2146C292.686 33.2146 291.684 34.7146 295.68 37.1348L295.186 28.7146L281.186 26.7146Z" fill="#EFC7D3"/>
<path d="M295.686 37.2146L295.68 37.1348M295.68 37.1348L295.186 28.7146L281.186 26.7146L272.686 28.2146L283.186 32.2146C292.686 33.2146 291.684 34.7146 295.68 37.1348Z" stroke="black" stroke-width="0.5"/>
<path d="M294.188 36.7148C293.688 34.2147 282.688 34.0146 277.188 34.5146" stroke="black" stroke-width="0.5"/>
<path d="M300.188 66.7146L260.688 68.7146C260.188 63.7146 258.021 59.5479 256.188 57.7146L302.188 55.2146M300.688 52.7146C289.688 51.2146 278.688 46.4146 266.688 40.4146M228.688 30.7146L272.688 28.2146L281.188 26.7146" stroke="black" stroke-width="0.5"/>
<path d="M290.688 40.7146C290.688 38.7146 289.688 34.7146 286.188 32.7146C288.408 32.7146 291.785 33.755 294.296 36.1246C294.76 37.6546 293.688 41.2146 290.646 42.7146C290.632 42.1243 290.688 41.4389 290.688 40.7146Z" fill="#EFC7D3"/>
<path d="M272.688 43.2146C279.683 43.5644 285.7 43.6695 291.081 44.2146M297.688 45.2146C295.585 44.764 293.391 44.4487 291.081 44.2146M295.688 37.7146C295.27 37.1295 294.8 36.6002 294.296 36.1246M291.081 44.2146C290.754 43.8698 290.66 43.3468 290.646 42.7146M290.646 42.7146C290.632 42.1243 290.688 41.4389 290.688 40.7146C290.688 38.7146 289.688 34.7146 286.188 32.7146C288.408 32.7146 291.785 33.755 294.296 36.1246M290.646 42.7146C293.688 41.2146 294.76 37.6546 294.296 36.1246" stroke="black" stroke-width="0.5"/>
<path d="M290.688 40.7146C286.188 40.7146 284.188 36.7146 283.188 34.2146" stroke="black" stroke-width="0.5"/>
<path d="M132.686 12.8146C119.186 16.8146 107.186 22.7146 93.186 35.7146C100.186 23.7146 115.686 14.2146 131.186 9.2146L132.686 12.8146Z" fill="#E56E90" stroke="black" stroke-width="0.5"/>
<path d="M131.186 9.2146C111.186 14.8886 93.186 32.2146 85.186 30.2146C98.186 20.7146 114.186 12.2146 130.686 7.7146L131.186 9.2146Z" fill="#E56E90" stroke="black" stroke-width="0.5"/>
<path d="M10.1867 48.2145H4.1867C1.68604 52.2145 1.68604 62.2145 2.1867 65.7145C0.686035 66.7145 0.686633 71.2145 1.6867 72.7145L5.6867 73.2145V74.7145L1.6867 76.7145V78.7145C5.6867 79.7145 14.1867 81.7145 22.1867 81.2145V79.7145H39.6867C39.02 71.2145 40.6867 60.7145 49.6867 53.7145C47.1867 49.7145 40.1867 45.2145 37.1867 44.7145C27.1867 43.7145 12.1867 46.2145 10.1867 48.2145Z" fill="#E56E90" stroke="black" stroke-width="0.5"/>
<path d="M93.1875 35.7146C75.3542 36.5479 43.6875 41.4146 33.1875 44.4146L37.1875 44.7146C42.1875 46.2146 47.6875 50.5479 49.6875 53.7146C62.6865 44.2146 88.1865 51.2146 86.6865 78.7146H96.6865C89.6865 67.7146 90.6865 45.7146 93.1875 35.7146Z" fill="#E56E90" stroke="black" stroke-width="0.5"/>
<path d="M10.1855 48.2147H4.18555C36.6857 28.7146 58.6858 34.7146 84.6855 30.2146L93.6858 35.7146C76.6858 36.7146 47.6855 40.2146 33.6855 44.4146C25.6855 44.2146 11.6855 46.2146 10.1855 48.2147Z" fill="#E56E90" stroke="black" stroke-width="0.5"/>
<path d="M37.1875 44.7147C29.6875 43.7146 12.6875 45.7146 10.1875 48.2147C9.38749 50.6146 12.5208 53.5479 14.1875 54.7146C23.6875 56.2146 37.1875 50.2146 37.1875 44.7147Z" fill="#E56E90" stroke="black" stroke-width="0.5"/>
<path d="M4.18673 48.2146C11.1867 49.2146 5.18673 59.7146 2.18673 64.7146C1.68666 57.7146 2.18652 52.2146 4.18673 48.2146Z" fill="#E56E90" stroke="black" stroke-width="0.5"/>
<path d="M22.186 84.2146V79.7146H39.686L40.186 84.2146H22.186Z" fill="#E56E90" stroke="black" stroke-width="0.5"/>
<path d="M2.6875 65.7144C4.1875 68.2144 6.1875 71.381 5.6875 73.2144M22.1875 79.7144C11.6875 80.2144 7.1875 76.2144 8.1875 72.7144C8.6875 72.2144 10.1875 70.7144 11.1875 70.7144" stroke="black" stroke-width="0.5"/>
<path d="M32.1875 74.7145C29.6875 70.7145 24.1875 65.7146 21.1875 64.2146C19.4375 63.7145 16.8124 63.8395 14.0623 64.2146C12.4374 65.5479 11.1875 68.7145 11.6875 71.7145C11.6875 72.8811 12.9949 75.2145 15.6875 75.2145C20.1875 75.2145 27.1875 75.7145 32.1875 74.7145Z" fill="#E56E90"/>
<path d="M6.1875 65.7146C8.43744 65.2145 11.3124 64.5896 14.0623 64.2146M14.0623 64.2146C16.8124 63.8395 19.4375 63.7145 21.1875 64.2146C24.1875 65.7146 29.6875 70.7145 32.1875 74.7145C27.1875 75.7145 20.1875 75.2145 15.6875 75.2145C12.9949 75.2145 11.6875 72.8811 11.6875 71.7145C11.1875 68.7145 12.4374 65.5479 14.0623 64.2146Z" stroke="black" stroke-width="0.5"/>
<path d="M11.6875 71.2146C19.6875 69.7146 23.1875 72.3431 26.1875 73.8431M13.1875 74.2146L30.6875 73.7146" stroke="black" stroke-width="0.5"/>
<path d="M22.1855 82.7144H31.6855C33.6855 82.7144 35.1855 80.7144 34.6855 79.7144M38.1855 79.7144V84.2144" stroke="black" stroke-width="0.5"/>
<path d="M22.1874 81.2148C17.6874 81.2148 13.1874 81.7148 1.68745 78.7148V76.7148L5.68745 74.7148V73.2148L1.68745 72.7149C1.18652 71.2146 0.186719 68.2146 2.18671 65.7146C1.68696 57.7146 2.18696 51.2146 4.18745 48.2143C36.6874 28.7147 58.6874 34.7148 84.6874 30.2148C162.687 -24.7853 244.687 12.2146 281.687 26.7148L295.187 28.7146L295.687 35.7146V38.7146C297.186 43.7146 298.521 48.2146 297.187 50.2146C299.687 51.2146 302.187 54.3813 302.187 56.2146L300.187 66.2146C300.639 77.0625 298.231 77.2868 288.9 77.5992C287.909 77.6324 285.84 77.6666 284.687 77.7146V79.2146L259.687 79.6456M22.1874 81.2148V84.2148H40.1858L39.6875 79.7148M22.1874 81.2148V79.7148H39.6875M39.6875 79.7148C36.6875 38.2148 90.1874 41.2148 86.6874 80.2148V82.7146H213.187C207.187 39.2146 261.687 39.2146 259.687 79.6456M259.186 79.6456H259.687" stroke="black"/>
</svg>
