<svg width="304" height="96" viewBox="0 0 304 96" fill="none" xmlns="http://www.w3.org/2000/svg">
<circle cx="63.0938" cy="74.5378" r="20.5" fill="#EDADBF" stroke="black"/>
<circle cx="236.094" cy="74.5378" r="20.5" fill="#EDADBF" stroke="black"/>
<path d="M133.092 13.0377L131.592 9.5377C171.592 1.53781 193.092 2.03784 232.092 13.5378L228.592 18.0378C208.592 10.0378 190.592 9.03775 174.592 8.53782C172.092 8.03782 168.092 8.03778 165.592 8.5377C155.592 8.53782 143.592 10.0378 133.092 13.0377Z" fill="#EDADBF" stroke="black" stroke-width="0.5"/>
<path d="M131.592 9.53789L131.092 8.03789C167.092 -2.96216 199.592 1.03772 235.092 10.0379L232.092 13.5379C192.092 1.03784 166.092 2.53784 131.592 9.53789Z" fill="#EDADBF" stroke="black" stroke-width="0.5"/>
<path d="M131.592 9.53771C183.092 -1.96232 211.592 8.03772 232.092 13.5377" stroke="black" stroke-width="0.5"/>
<path d="M171.094 30.5378L174.594 8.53784C208.094 9.53784 219.594 15.0378 224.094 16.5378L226.577 28.5378C199.586 28.5385 182.091 30.0379 171.094 30.5378Z" fill="#EDADBF"/>
<path d="M227.094 31.0378L224.094 16.5378C219.594 15.0378 208.094 9.53784 174.594 8.53784L171.094 30.5378C182.094 30.0378 199.594 28.5378 226.594 28.5378" stroke="black" stroke-width="0.5"/>
<path d="M165.594 8.53784C132.594 9.53784 112.594 18.5378 93.5938 36.0378L96.0938 34.0378L160.094 31.0378L165.594 8.53784Z" fill="#EDADBF" stroke="black" stroke-width="0.5"/>
<path d="M240.092 23.0378C236.425 20.3712 230.592 18.0378 224.092 16.5378L226.592 28.5378H233.092C236.092 27.0378 239.092 24.8066 240.092 23.0378Z" fill="#EDADBF" stroke="black" stroke-width="0.5"/>
<path d="M97.0938 79.0378H164.094L198.594 77.5378H213.094L213.594 83.0378H199.594H98.5938H87.0938V79.0378H97.0938Z" fill="#EDADBF"/>
<path d="M97.0938 79.0378H164.094L198.594 77.5378M97.0938 79.0378C97.0938 80.5378 97.5938 81.5378 98.5938 83.0378M97.0938 79.0378H87.0938V83.0378H98.5938M198.594 77.5378L199.594 83.0378M198.594 77.5378H213.094L213.594 83.0378H199.594M199.594 83.0378H98.5938" stroke="black" stroke-width="0.5"/>
<path d="M97.0929 79.0378C92.5937 74.5378 89.5938 52.5378 93.5929 36.0378L165.594 32.0378C161.594 37.0378 160.594 71.0378 164.094 79.0378H97.0929Z" fill="#EDADBF" stroke="black" stroke-width="0.5"/>
<path d="M229.094 31.0378L165.594 32.0378C161.594 37.0378 160.594 71.0378 164.094 79.0378L198.594 77.5378C203.094 76.0378 209.594 70.5378 229.094 31.0378Z" fill="#EDADBF" stroke="black" stroke-width="0.5"/>
<path d="M171.094 30.5379C166.594 31.0379 163.094 31.0379 160.094 31.0379L165.594 8.53792C168.594 8.03784 171.594 8.03784 174.594 8.53792L171.094 30.5379Z" fill="#EDADBF" stroke="black" stroke-width="0.5"/>
<path d="M99.5938 32.5379C104.094 38.0379 111.094 34.5379 115.094 33.0379C116.094 17.5377 103.094 25.5377 99.5938 32.5379Z" fill="#EDADBF" stroke="black" stroke-width="0.5"/>
<path d="M235.092 10.0378L232.092 13.5378C249.092 19.0378 259.592 22.0378 272.092 28.5378H273.592L281.592 27.0378C266.592 20.5378 259.092 18.0378 235.092 10.0378Z" stroke="black" stroke-width="0.5"/>
<path d="M272.092 28.5378C261.592 23.0378 242.592 16.5378 232.092 13.5378L230.092 16.0378L245.092 23.5378C243.592 26.0378 239.592 28.0378 233.592 30.7378C245.592 30.0378 262.592 29.0378 272.092 28.5378Z" stroke="black" stroke-width="0.5"/>
<path d="M277.594 34.8378L283.592 32.5378L273.093 28.5378L229.093 31.0378C221.593 46.0378 206.593 76.5378 198.593 77.5378H213.093C211.593 66.5378 221.093 43.0378 246.094 52.0378C256.594 46.5378 266.594 41.0378 277.594 34.8378Z" stroke="black" stroke-width="0.5"/>
<path d="M278.592 34.5379C266.592 41.0379 256.592 46.5379 246.092 52.0379C250.592 55.0378 261.092 61.0378 260.092 80.0378L285.092 79.5378V78.0378C293.592 77.0378 302.092 80.5378 300.592 66.5378L302.592 56.5378C302.592 55.0378 300.092 51.0378 297.592 50.5378C299.092 48.0378 296.092 39.0378 296.092 39.0378V37.5378L292.092 34.5378L287.092 33.0378L283.592 32.5378L278.592 34.5379Z" stroke="black" stroke-width="0.5"/>
<path d="M296.092 37.5378L296.086 37.458M296.086 37.458L295.592 29.0378L281.592 27.0378L273.092 28.5378L283.592 32.5378C293.092 33.5378 292.091 35.0378 296.086 37.458Z" stroke="black" stroke-width="0.5"/>
<path d="M294.594 37.038C294.094 34.5379 283.094 34.3379 277.594 34.8379" stroke="black" stroke-width="0.5"/>
<path d="M300.594 67.0378L261.094 69.0378C260.594 64.0378 258.427 59.8712 256.594 58.0378L302.594 55.5378M301.094 53.0378C290.094 51.5378 279.094 46.7378 267.094 40.7378M229.094 31.0378L273.094 28.5378L281.594 27.0378" stroke="black" stroke-width="0.5"/>
<path d="M273.094 43.5378C280.089 43.8876 286.106 43.9927 291.487 44.5378M298.094 45.5378C295.991 45.0872 293.798 44.7719 291.487 44.5378M296.094 38.0378C295.676 37.4527 295.207 36.9235 294.703 36.4478M291.487 44.5378C291.161 44.1931 291.067 43.67 291.052 43.0378M291.052 43.0378C291.038 42.4476 291.094 41.7621 291.094 41.0378C291.094 39.0378 290.094 35.0378 286.594 33.0378C288.815 33.0378 292.191 34.0782 294.703 36.4478M291.052 43.0378C294.094 41.5378 295.166 37.9778 294.703 36.4478" stroke="black" stroke-width="0.5"/>
<path d="M291.094 41.0378C286.594 41.0378 284.594 37.0378 283.594 34.5378" stroke="black" stroke-width="0.5"/>
<path d="M133.092 13.1378C119.592 17.1378 107.592 23.0378 93.5923 36.0378C100.592 24.0378 116.092 14.5378 131.592 9.53784L133.092 13.1378Z" fill="#E0426F" stroke="black" stroke-width="0.5"/>
<path d="M131.592 9.53784C111.592 15.2119 93.5923 32.5378 85.5923 30.5378C98.5923 21.0378 114.592 12.5378 131.092 8.03784L131.592 9.53784Z" fill="#E0426F" stroke="black" stroke-width="0.5"/>
<path d="M10.593 48.5377H4.59295C2.09229 52.5377 2.09229 62.5377 2.59295 66.0377C1.09229 67.0377 1.09288 71.5377 2.09295 73.0377L6.09295 73.5377V75.0377L2.09295 77.0377V79.0377C6.09295 80.0377 14.593 82.0377 22.593 81.5377V80.0377H40.0929C39.4263 71.5377 41.0929 61.0377 50.0929 54.0377C47.5929 50.0377 40.5929 45.5377 37.5929 45.0377C27.5929 44.0377 12.593 46.5377 10.593 48.5377Z" fill="#E0426F" stroke="black" stroke-width="0.5"/>
<path d="M93.5938 36.0378C75.7604 36.8712 44.0938 41.7378 33.5938 44.7378L37.5938 45.0378C42.5938 46.5378 48.0938 50.8712 50.0938 54.0378C63.0928 44.5378 88.5928 51.5378 87.0928 79.0378H97.0928C90.0928 68.0378 91.0928 46.0378 93.5938 36.0378Z" fill="#E0426F" stroke="black" stroke-width="0.5"/>
<path d="M10.5918 48.5379H4.5918C37.092 29.0378 59.092 35.0378 85.0918 30.5378L94.092 36.0378C77.092 37.0378 48.0918 40.5378 34.0918 44.7378C26.0918 44.5378 12.0918 46.5378 10.5918 48.5379Z" fill="#E0426F" stroke="black" stroke-width="0.5"/>
<path d="M37.5937 45.0379C30.0937 44.0378 13.0937 46.0378 10.5937 48.5379C9.79374 50.9379 12.9271 53.8712 14.5937 55.0378C24.0938 56.5378 37.5937 50.5378 37.5937 45.0379Z" fill="#E0426F" stroke="black" stroke-width="0.5"/>
<path d="M4.59298 48.5378C11.593 49.5378 5.59298 60.0378 2.59298 65.0378C2.09291 58.0378 2.59277 52.5378 4.59298 48.5378Z" fill="#E0426F" stroke="black" stroke-width="0.5"/>
<path d="M22.5923 84.5378V80.0378H40.0923L40.5923 84.5378H22.5923Z" fill="#E0426F" stroke="black" stroke-width="0.5"/>
<path d="M3.09375 66.0376C4.59375 68.5376 6.59375 71.7043 6.09375 73.5376M22.5938 80.0376C12.0938 80.5376 7.59375 76.5376 8.59375 73.0376C9.09375 72.5376 10.5938 71.0376 11.5938 71.0376" stroke="black" stroke-width="0.5"/>
<path d="M32.5938 75.0377C30.0938 71.0377 24.5938 66.0378 21.5938 64.5378C19.8437 64.0378 17.2186 64.1628 14.4685 64.5378C12.8436 65.8711 11.5938 69.0377 12.0938 72.0377C12.0938 73.2044 13.4012 75.5377 16.0938 75.5377C20.5938 75.5377 27.5938 76.0377 32.5938 75.0377Z" fill="#E0426F"/>
<path d="M6.59375 66.0378C8.84369 65.5378 11.7186 64.9128 14.4685 64.5378M14.4685 64.5378C17.2186 64.1628 19.8437 64.0378 21.5938 64.5378C24.5938 66.0378 30.0938 71.0377 32.5938 75.0377C27.5938 76.0377 20.5938 75.5377 16.0938 75.5377C13.4012 75.5377 12.0938 73.2044 12.0938 72.0377C11.5938 69.0377 12.8436 65.8711 14.4685 64.5378Z" stroke="black" stroke-width="0.5"/>
<path d="M12.0938 71.5378C20.0938 70.0378 23.5938 72.6663 26.5938 74.1663M13.5938 74.5378L31.0938 74.0378" stroke="black" stroke-width="0.5"/>
<path d="M22.5918 83.0376H32.0918C34.0918 83.0376 35.5918 81.0376 35.0918 80.0376M38.5918 80.0376V84.5376" stroke="black" stroke-width="0.5"/>
<path d="M22.5937 81.5381C18.0937 81.5381 13.5937 82.0381 2.0937 79.0381V77.0381L6.0937 75.0381V73.5381L2.0937 73.0381C1.59277 71.5378 0.592969 68.5378 2.59296 66.0378C2.09321 58.0378 2.59321 51.5378 4.5937 48.5376C37.0937 29.038 59.0937 35.038 85.0937 30.538C163.094 -24.4621 245.094 12.5378 282.094 27.038L295.594 29.0378L296.094 36.0378V39.0378C297.592 44.0378 298.927 48.5378 297.594 50.5378C300.094 51.5378 302.594 54.7045 302.594 56.5378L300.594 66.5378C301.046 77.3858 298.638 77.61 289.306 77.9225C288.315 77.9557 286.246 77.9898 285.094 78.0378V79.5378L260.094 79.9689M22.5937 81.5381V84.5381H40.592L40.0937 80.0381M22.5937 81.5381V80.0381H40.0937M40.0937 80.0381C37.0937 38.5381 90.5937 41.5381 87.0937 80.5381V83.0378H213.594C207.594 39.5378 262.094 39.5378 260.094 79.9689M259.592 79.9689H260.094" stroke="black"/>
</svg>
