<svg width="303" height="96" viewBox="0 0 303 96" fill="none" xmlns="http://www.w3.org/2000/svg">
<circle cx="62.2607" cy="74.5378" r="20.5" fill="#E56E90" stroke="black"/>
<circle cx="235.261" cy="74.5378" r="20.5" fill="#E56E90" stroke="black"/>
<path d="M132.259 13.0377L130.759 9.5377C170.759 1.53781 192.259 2.03784 231.259 13.5378L227.759 18.0378C207.759 10.0378 189.759 9.03775 173.759 8.53782C171.259 8.03782 167.259 8.03778 164.759 8.5377C154.759 8.53782 142.759 10.0378 132.259 13.0377Z" fill="#EDADBF" stroke="black" stroke-width="0.5"/>
<path d="M130.759 9.53789L130.259 8.03789C166.259 -2.96216 198.759 1.03772 234.259 10.0379L231.259 13.5379C191.259 1.03784 165.259 2.53784 130.759 9.53789Z" fill="#EDADBF" stroke="black" stroke-width="0.5"/>
<path d="M130.759 9.53771C182.259 -1.96232 210.759 8.03772 231.259 13.5377" stroke="black" stroke-width="0.5"/>
<path d="M170.261 30.5378L173.761 8.53784C207.261 9.53784 218.761 15.0378 223.261 16.5378L225.743 28.5378C198.753 28.5385 181.258 30.0379 170.261 30.5378Z" fill="#EDADBF"/>
<path d="M226.261 31.0378L223.261 16.5378C218.761 15.0378 207.261 9.53784 173.761 8.53784L170.261 30.5378C181.261 30.0378 198.761 28.5378 225.761 28.5378" stroke="black" stroke-width="0.5"/>
<path d="M164.761 8.53784C131.761 9.53784 111.761 18.5378 92.7607 36.0378L95.2607 34.0378L159.261 31.0378L164.761 8.53784Z" fill="#EDADBF" stroke="black" stroke-width="0.5"/>
<path d="M239.259 23.0378C235.592 20.3712 229.759 18.0378 223.259 16.5378L225.759 28.5378H232.259C235.259 27.0378 238.259 24.8066 239.259 23.0378Z" fill="#EDADBF" stroke="black" stroke-width="0.5"/>
<path d="M96.2607 79.0378H163.261L197.761 77.5378H212.261L212.761 83.0378H198.761H97.7607H86.2607V79.0378H96.2607Z" fill="#EDADBF"/>
<path d="M96.2607 79.0378H163.261L197.761 77.5378M96.2607 79.0378C96.2607 80.5378 96.7607 81.5378 97.7607 83.0378M96.2607 79.0378H86.2607V83.0378H97.7607M197.761 77.5378L198.761 83.0378M197.761 77.5378H212.261L212.761 83.0378H198.761M198.761 83.0378H97.7607" stroke="black" stroke-width="0.5"/>
<path d="M96.2599 79.0378C91.7607 74.5378 88.7608 52.5378 92.7599 36.0378L164.761 32.0378C160.761 37.0378 159.761 71.0378 163.261 79.0378H96.2599Z" fill="#EDADBF" stroke="black" stroke-width="0.5"/>
<path d="M228.261 31.0378L164.761 32.0378C160.761 37.0378 159.761 71.0378 163.261 79.0378L197.761 77.5378C202.261 76.0378 208.761 70.5378 228.261 31.0378Z" fill="#EDADBF" stroke="black" stroke-width="0.5"/>
<path d="M170.261 30.5379C165.761 31.0379 162.261 31.0379 159.261 31.0379L164.761 8.53792C167.761 8.03784 170.761 8.03784 173.761 8.53792L170.261 30.5379Z" fill="#EDADBF" stroke="black" stroke-width="0.5"/>
<path d="M98.7607 32.5379C103.261 38.0379 110.261 34.5379 114.261 33.0379C115.261 17.5377 102.261 25.5377 98.7607 32.5379Z" fill="#EDADBF" stroke="black" stroke-width="0.5"/>
<path d="M234.259 10.0378L231.259 13.5378C248.259 19.0378 258.759 22.0378 271.259 28.5378H272.759L280.759 27.0378C265.759 20.5378 258.259 18.0378 234.259 10.0378Z" fill="#E56E90" stroke="black" stroke-width="0.5"/>
<path d="M271.259 28.5378C260.759 23.0378 241.759 16.5378 231.259 13.5378L229.259 16.0378L244.259 23.5378C242.759 26.0378 238.759 28.0378 232.759 30.7378C244.759 30.0378 261.759 29.0378 271.259 28.5378Z" fill="#E56E90" stroke="black" stroke-width="0.5"/>
<path d="M276.761 34.8378L282.759 32.5378L272.26 28.5378L228.26 31.0378C220.76 46.0378 205.76 76.5378 197.76 77.5378H212.26C210.76 66.5378 220.26 43.0378 245.261 52.0378C255.761 46.5378 265.761 41.0378 276.761 34.8378Z" fill="#E56E90" stroke="black" stroke-width="0.5"/>
<path d="M277.759 34.5379C265.759 41.0379 255.759 46.5379 245.259 52.0379C249.759 55.0378 260.259 61.0378 259.259 80.0378L284.259 79.5378V78.0378C292.759 77.0378 301.259 80.5378 299.759 66.5378L301.759 56.5378C301.759 55.0378 299.259 51.0378 296.759 50.5378C298.259 48.0378 295.259 39.0378 295.259 39.0378V37.5378L291.259 34.5378L286.259 33.0378L282.759 32.5378L277.759 34.5379Z" fill="#E56E90" stroke="black" stroke-width="0.5"/>
<path d="M280.759 27.0378L272.259 28.5378L282.759 32.5378C292.259 33.5378 291.258 35.0378 295.253 37.458L294.759 29.0378L280.759 27.0378Z" fill="#E56E90"/>
<path d="M295.259 37.5378L295.253 37.458M295.253 37.458L294.759 29.0378L280.759 27.0378L272.259 28.5378L282.759 32.5378C292.259 33.5378 291.258 35.0378 295.253 37.458Z" stroke="black" stroke-width="0.5"/>
<path d="M293.761 37.038C293.261 34.5379 282.261 34.3379 276.761 34.8379" stroke="black" stroke-width="0.5"/>
<path d="M299.761 67.0378L260.261 69.0378C259.761 64.0378 257.594 59.8712 255.761 58.0378L301.761 55.5378M300.261 53.0378C289.261 51.5378 278.261 46.7378 266.261 40.7378M228.261 31.0378L272.261 28.5378L280.761 27.0378" stroke="black" stroke-width="0.5"/>
<path d="M290.261 41.0378C290.261 39.0378 289.261 35.0378 285.761 33.0378C287.982 33.0378 291.358 34.0782 293.87 36.4478C294.333 37.9778 293.261 41.5378 290.219 43.0378C290.205 42.4476 290.261 41.7621 290.261 41.0378Z" fill="#E56E90"/>
<path d="M272.261 43.5378C279.256 43.8876 285.273 43.9927 290.654 44.5378M297.261 45.5378C295.158 45.0872 292.964 44.7719 290.654 44.5378M295.261 38.0378C294.843 37.4527 294.374 36.9235 293.87 36.4478M290.654 44.5378C290.328 44.1931 290.234 43.67 290.219 43.0378M290.219 43.0378C290.205 42.4476 290.261 41.7621 290.261 41.0378C290.261 39.0378 289.261 35.0378 285.761 33.0378C287.982 33.0378 291.358 34.0782 293.87 36.4478M290.219 43.0378C293.261 41.5378 294.333 37.9778 293.87 36.4478" stroke="black" stroke-width="0.5"/>
<path d="M290.261 41.0378C285.761 41.0378 283.761 37.0378 282.761 34.5378" stroke="black" stroke-width="0.5"/>
<path d="M132.259 13.1378C118.759 17.1378 106.759 23.0378 92.7588 36.0378C99.7588 24.0378 115.259 14.5378 130.759 9.53784L132.259 13.1378Z" fill="#E0426F" stroke="black" stroke-width="0.5"/>
<path d="M130.759 9.53784C110.759 15.2119 92.7588 32.5378 84.7588 30.5378C97.7588 21.0378 113.759 12.5378 130.259 8.03784L130.759 9.53784Z" fill="#E0426F" stroke="black" stroke-width="0.5"/>
<path d="M9.75946 48.5377H3.75946C1.25879 52.5377 1.25879 62.5377 1.75946 66.0377C0.258789 67.0377 0.259387 71.5377 1.25946 73.0377L5.25946 73.5377V75.0377L1.25946 77.0377V79.0377C5.25946 80.0377 13.7595 82.0377 21.7595 81.5377V80.0377H39.2595C38.5928 71.5377 40.2595 61.0377 49.2595 54.0377C46.7595 50.0377 39.7595 45.5377 36.7595 45.0377C26.7595 44.0377 11.7595 46.5377 9.75946 48.5377Z" fill="#E0426F" stroke="black" stroke-width="0.5"/>
<path d="M92.7607 36.0378C74.9274 36.8712 43.2607 41.7378 32.7607 44.7378L36.7607 45.0378C41.7607 46.5378 47.2607 50.8712 49.2607 54.0378C62.2598 44.5378 87.7598 51.5378 86.2598 79.0378H96.2598C89.2598 68.0378 90.2598 46.0378 92.7607 36.0378Z" fill="#E0426F" stroke="black" stroke-width="0.5"/>
<path d="M9.75879 48.5379H3.75879C36.259 29.0378 58.259 35.0378 84.2588 30.5378L93.259 36.0378C76.259 37.0378 47.2588 40.5378 33.2588 44.7378C25.2588 44.5378 11.2588 46.5378 9.75879 48.5379Z" fill="#E0426F" stroke="black" stroke-width="0.5"/>
<path d="M36.7602 45.0379C29.2602 44.0378 12.2602 46.0378 9.76024 48.5379C8.96024 50.9379 12.0936 53.8712 13.7602 55.0378C23.2603 56.5378 36.7602 50.5378 36.7602 45.0379Z" fill="#E0426F" stroke="black" stroke-width="0.5"/>
<path d="M3.75948 48.5378C10.7595 49.5378 4.75948 60.0378 1.75948 65.0378C1.25941 58.0378 1.75928 52.5378 3.75948 48.5378Z" fill="#E0426F" stroke="black" stroke-width="0.5"/>
<path d="M21.7588 84.5378V80.0378H39.2588L39.7588 84.5378H21.7588Z" fill="#E0426F" stroke="black" stroke-width="0.5"/>
<path d="M2.26074 66.0376C3.76074 68.5376 5.76074 71.7043 5.26074 73.5376M21.7607 80.0376C11.2607 80.5376 6.76074 76.5376 7.76074 73.0376C8.26074 72.5376 9.76074 71.0376 10.7607 71.0376" stroke="black" stroke-width="0.5"/>
<path d="M31.7607 75.0377C29.2607 71.0377 23.7607 66.0378 20.7607 64.5378C19.0107 64.0378 16.3856 64.1628 13.6355 64.5378C12.0106 65.8711 10.7607 69.0377 11.2607 72.0377C11.2607 73.2044 12.5682 75.5377 15.2607 75.5377C19.7607 75.5377 26.7607 76.0377 31.7607 75.0377Z" fill="#E0426F"/>
<path d="M5.76074 66.0378C8.01068 65.5378 10.8856 64.9128 13.6355 64.5378M13.6355 64.5378C16.3856 64.1628 19.0107 64.0378 20.7607 64.5378C23.7607 66.0378 29.2607 71.0377 31.7607 75.0377C26.7607 76.0377 19.7607 75.5377 15.2607 75.5377C12.5682 75.5377 11.2607 73.2044 11.2607 72.0377C10.7607 69.0377 12.0106 65.8711 13.6355 64.5378Z" stroke="black" stroke-width="0.5"/>
<path d="M11.2607 71.5378C19.2607 70.0378 22.7607 72.6663 25.7607 74.1663M12.7607 74.5378L30.2607 74.0378" stroke="black" stroke-width="0.5"/>
<path d="M21.7588 83.0376H31.2588C33.2588 83.0376 34.7588 81.0376 34.2588 80.0376M37.7588 80.0376V84.5376" stroke="black" stroke-width="0.5"/>
<path d="M21.7607 81.5381C17.2607 81.5381 12.7607 82.0381 1.26069 79.0381V77.0381L5.26069 75.0381V73.5381L1.26069 73.0381C0.759766 71.5378 -0.240039 68.5378 1.75996 66.0378C1.2602 58.0378 1.7602 51.5378 3.76069 48.5376C36.2607 29.038 58.2607 35.038 84.2607 30.538C162.261 -24.4621 244.261 12.5378 281.261 27.038L294.761 29.0378L295.261 36.0378V39.0378C296.759 44.0378 298.094 48.5378 296.761 50.5378C299.261 51.5378 301.761 54.7045 301.761 56.5378L299.761 66.5378C300.213 77.3858 297.805 77.61 288.473 77.9225C287.482 77.9557 285.413 77.9898 284.261 78.0378V79.5378L259.261 79.9689M21.7607 81.5381V84.5381H39.759L39.2607 80.0381M21.7607 81.5381V80.0381H39.2607M39.2607 80.0381C36.2607 38.5381 89.7607 41.5381 86.2607 80.5381V83.0378H212.761C206.761 39.5378 261.261 39.5378 259.261 79.9689M258.759 79.9689H259.261" stroke="black"/>
</svg>
