<svg width="303" height="96" viewBox="0 0 303 96" fill="none" xmlns="http://www.w3.org/2000/svg">
<circle cx="62.8652" cy="74.5227" r="20.5" fill="#EFC7D3" stroke="black"/>
<circle cx="235.865" cy="74.5227" r="20.5" fill="#EFC7D3" stroke="black"/>
<path d="M132.863 13.0226L131.363 9.52256C171.363 1.52267 192.863 2.02271 231.863 13.5227L228.363 18.0226C208.363 10.0226 190.363 9.02261 174.363 8.52268C171.863 8.02268 167.863 8.02264 165.363 8.52256C155.363 8.52268 143.363 10.0227 132.863 13.0226Z" fill="#EFC7D3" stroke="black" stroke-width="0.5"/>
<path d="M131.363 9.52275L130.863 8.02275C166.863 -2.97729 199.363 1.02258 234.863 10.0228L231.863 13.5228C191.863 1.02271 165.863 2.52271 131.363 9.52275Z" fill="#EFC7D3" stroke="black" stroke-width="0.5"/>
<path d="M131.363 9.52269C182.863 -1.97733 211.363 8.02271 231.863 13.5227" stroke="black" stroke-width="0.5"/>
<path d="M170.865 30.5227L174.365 8.52271C207.865 9.52271 219.365 15.0227 223.865 16.5227L226.348 28.5227C199.358 28.5233 181.863 30.0228 170.865 30.5227Z" fill="#EFC7D3"/>
<path d="M226.865 31.0227L223.865 16.5227C219.365 15.0227 207.865 9.52271 174.365 8.52271L170.865 30.5227C181.865 30.0227 199.365 28.5227 226.365 28.5227" stroke="black" stroke-width="0.5"/>
<path d="M165.365 8.52271C132.365 9.52271 112.365 18.5227 93.3652 36.0227L95.8652 34.0227L159.865 31.0227L165.365 8.52271Z" fill="#EFC7D3" stroke="black" stroke-width="0.5"/>
<path d="M239.863 23.0227C236.197 20.356 230.363 18.0227 223.863 16.5227L226.363 28.5227H232.863C235.863 27.0227 238.863 24.7914 239.863 23.0227Z" fill="#EFC7D3" stroke="black" stroke-width="0.5"/>
<path d="M96.8652 79.0227H163.865L198.365 77.5227H212.865L213.365 83.0227H199.365H98.3652H86.8652V79.0227H96.8652Z" fill="#EFC7D3"/>
<path d="M96.8652 79.0227H163.865L198.365 77.5227M96.8652 79.0227C96.8652 80.5227 97.3652 81.5227 98.3652 83.0227M96.8652 79.0227H86.8652V83.0227H98.3652M198.365 77.5227L199.365 83.0227M198.365 77.5227H212.865L213.365 83.0227H199.365M199.365 83.0227H98.3652" stroke="black" stroke-width="0.5"/>
<path d="M96.8644 79.0227C92.3652 74.5227 89.3653 52.5227 93.3644 36.0227L165.365 32.0227C161.365 37.0227 160.365 71.0227 163.865 79.0227H96.8644Z" fill="#EFC7D3" stroke="black" stroke-width="0.5"/>
<path d="M228.865 31.0227L165.365 32.0227C161.365 37.0227 160.365 71.0227 163.865 79.0227L198.365 77.5227C202.865 76.0227 209.365 70.5227 228.865 31.0227Z" fill="#EFC7D3" stroke="black" stroke-width="0.5"/>
<path d="M170.865 30.5228C166.365 31.0228 162.865 31.0228 159.865 31.0228L165.365 8.52278C168.365 8.02271 171.365 8.02271 174.365 8.52278L170.865 30.5228Z" fill="#EFC7D3" stroke="black" stroke-width="0.5"/>
<path d="M99.3652 32.5228C103.865 38.0228 110.865 34.5228 114.865 33.0228C115.865 17.5227 102.865 25.5227 99.3652 32.5228Z" fill="#EFC7D3" stroke="black" stroke-width="0.5"/>
<path d="M234.863 10.0227L231.863 13.5227C248.863 19.0227 259.363 22.0227 271.863 28.5227H273.363L281.363 27.0227C266.363 20.5227 258.863 18.0227 234.863 10.0227Z" fill="#E56E90" stroke="black" stroke-width="0.5"/>
<path d="M271.863 28.5227C261.363 23.0227 242.363 16.5227 231.863 13.5227L229.863 16.0227L244.863 23.5227C243.363 26.0227 239.363 28.0227 233.363 30.7227C245.363 30.0227 262.363 29.0227 271.863 28.5227Z" fill="#E56E90" stroke="black" stroke-width="0.5"/>
<path d="M277.365 34.8227L283.364 32.5227L272.864 28.5227L228.864 31.0227C221.364 46.0227 206.364 76.5227 198.364 77.5227H212.864C211.364 66.5227 220.864 43.0227 245.865 52.0227C256.365 46.5227 266.365 41.0227 277.365 34.8227Z" fill="#E56E90" stroke="black" stroke-width="0.5"/>
<path d="M278.363 34.5227C266.363 41.0227 256.363 46.5227 245.863 52.0227C250.363 55.0227 260.863 61.0227 259.863 80.0227L284.863 79.5227V78.0227C293.363 77.0227 301.863 80.5227 300.363 66.5227L302.363 56.5227C302.363 55.0227 299.863 51.0227 297.363 50.5227C298.863 48.0227 295.863 39.0227 295.863 39.0227V37.5227L291.863 34.5227L286.863 33.0227L283.363 32.5227L278.363 34.5227Z" fill="#E56E90" stroke="black" stroke-width="0.5"/>
<path d="M281.363 27.0227L272.863 28.5227L283.363 32.5227C292.863 33.5227 291.862 35.0227 295.857 37.4429L295.363 29.0227L281.363 27.0227Z" fill="#E56E90"/>
<path d="M295.863 37.5227L295.857 37.4429M295.857 37.4429L295.363 29.0227L281.363 27.0227L272.863 28.5227L283.363 32.5227C292.863 33.5227 291.862 35.0227 295.857 37.4429Z" stroke="black" stroke-width="0.5"/>
<path d="M294.365 37.0229C293.865 34.5228 282.865 34.3227 277.365 34.8227" stroke="black" stroke-width="0.5"/>
<path d="M300.365 67.0227L260.865 69.0227C260.365 64.0227 258.199 59.856 256.365 58.0227L302.365 55.5227M300.865 53.0227C289.865 51.5227 278.865 46.7227 266.865 40.7227M228.865 31.0227L272.865 28.5227L281.365 27.0227" stroke="black" stroke-width="0.5"/>
<path d="M290.865 41.0227C290.865 39.0227 289.865 35.0227 286.365 33.0227C288.586 33.0227 291.963 34.0631 294.474 36.4327C294.938 37.9627 293.865 41.5227 290.823 43.0227C290.81 42.4324 290.865 41.747 290.865 41.0227Z" fill="#E56E90"/>
<path d="M272.865 43.5227C279.861 43.8725 285.878 43.9776 291.258 44.5227M297.865 45.5227C295.762 45.0721 293.569 44.7568 291.258 44.5227M295.865 38.0227C295.447 37.4376 294.978 36.9084 294.474 36.4327M291.258 44.5227C290.932 44.1779 290.838 43.6549 290.823 43.0227M290.823 43.0227C290.81 42.4324 290.865 41.747 290.865 41.0227C290.865 39.0227 289.865 35.0227 286.365 33.0227C288.586 33.0227 291.963 34.0631 294.474 36.4327M290.823 43.0227C293.865 41.5227 294.938 37.9627 294.474 36.4327" stroke="black" stroke-width="0.5"/>
<path d="M290.865 41.0227C286.365 41.0227 284.365 37.0227 283.365 34.5227" stroke="black" stroke-width="0.5"/>
<path d="M132.863 13.1227C119.363 17.1227 107.363 23.0227 93.3633 36.0227C100.363 24.0227 115.863 14.5227 131.363 9.52271L132.863 13.1227Z" fill="#E56E90" stroke="black" stroke-width="0.5"/>
<path d="M131.363 9.52271C111.363 15.1967 93.3633 32.5227 85.3633 30.5227C98.3633 21.0227 114.363 12.5227 130.863 8.02271L131.363 9.52271Z" fill="#E56E90" stroke="black" stroke-width="0.5"/>
<path d="M10.3639 48.5227H4.36395C1.86328 52.5227 1.86328 62.5227 2.36395 66.0227C0.863281 67.0227 0.863879 71.5227 1.86395 73.0227L5.86395 73.5227V75.0227L1.86395 77.0227V79.0227C5.86395 80.0227 14.3639 82.0227 22.3639 81.5227V80.0227H39.8639C39.1973 71.5227 40.8639 61.0227 49.8639 54.0227C47.3639 50.0227 40.3639 45.5227 37.3639 45.0227C27.3639 44.0227 12.3639 46.5227 10.3639 48.5227Z" fill="#E56E90" stroke="black" stroke-width="0.5"/>
<path d="M93.3652 36.0227C75.5319 36.856 43.8652 41.7227 33.3652 44.7227L37.3652 45.0227C42.3652 46.5227 47.8652 50.856 49.8652 54.0227C62.8643 44.5227 88.3643 51.5227 86.8643 79.0227H96.8643C89.8643 68.0227 90.8643 46.0227 93.3652 36.0227Z" fill="#E56E90" stroke="black" stroke-width="0.5"/>
<path d="M10.3633 48.5228H4.36328C36.8635 29.0227 58.8635 35.0227 84.8633 30.5227L93.8635 36.0227C76.8635 37.0227 47.8633 40.5227 33.8633 44.7227C25.8633 44.5227 11.8633 46.5227 10.3633 48.5228Z" fill="#E56E90" stroke="black" stroke-width="0.5"/>
<path d="M37.3647 45.0228C29.8647 44.0227 12.8647 46.0227 10.3647 48.5228C9.56474 50.9227 12.6981 53.856 14.3647 55.0227C23.8647 56.5227 37.3647 50.5227 37.3647 45.0228Z" fill="#E56E90" stroke="black" stroke-width="0.5"/>
<path d="M4.36398 48.5227C11.364 49.5227 5.36398 60.0227 2.36398 65.0227C1.86391 58.0227 2.36377 52.5227 4.36398 48.5227Z" fill="#E56E90" stroke="black" stroke-width="0.5"/>
<path d="M22.3633 84.5227V80.0227H39.8633L40.3633 84.5227H22.3633Z" fill="#E56E90" stroke="black" stroke-width="0.5"/>
<path d="M2.86523 66.0225C4.36523 68.5225 6.36523 71.6891 5.86523 73.5225M22.3652 80.0225C11.8652 80.5225 7.36523 76.5225 8.36523 73.0225C8.86523 72.5225 10.3652 71.0225 11.3652 71.0225" stroke="black" stroke-width="0.5"/>
<path d="M32.3652 75.0226C29.8652 71.0226 24.3652 66.0227 21.3652 64.5227C19.6152 64.0227 16.9901 64.1477 14.24 64.5227C12.6151 65.856 11.3652 69.0226 11.8652 72.0226C11.8652 73.1892 13.1727 75.5226 15.8652 75.5226C20.3652 75.5226 27.3652 76.0226 32.3652 75.0226Z" fill="#E56E90"/>
<path d="M6.36523 66.0227C8.61518 65.5226 11.4901 64.8977 14.24 64.5227M14.24 64.5227C16.9901 64.1477 19.6152 64.0227 21.3652 64.5227C24.3652 66.0227 29.8652 71.0226 32.3652 75.0226C27.3652 76.0226 20.3652 75.5226 15.8652 75.5226C13.1727 75.5226 11.8652 73.1892 11.8652 72.0226C11.3652 69.0226 12.6151 65.856 14.24 64.5227Z" stroke="black" stroke-width="0.5"/>
<path d="M11.8652 71.5227C19.8652 70.0227 23.3652 72.6512 26.3652 74.1512M13.3652 74.5227L30.8652 74.0227" stroke="black" stroke-width="0.5"/>
<path d="M22.3633 83.0225H31.8633C33.8633 83.0225 35.3633 81.0225 34.8633 80.0225M38.3633 80.0225V84.5225" stroke="black" stroke-width="0.5"/>
<path d="M22.3652 81.5229C17.8652 81.5229 13.3652 82.0229 1.86518 79.0229V77.0229L5.86518 75.0229V73.5229L1.86518 73.023C1.36426 71.5227 0.364454 68.5227 2.36445 66.0227C1.86469 58.0227 2.36469 51.5227 4.36518 48.5224C36.8652 29.0228 58.8652 35.0229 84.8652 30.5229C162.865 -24.4772 244.865 12.5227 281.865 27.0229L295.365 29.0227L295.865 36.0227V39.0227C297.364 44.0227 298.699 48.5227 297.365 50.5227C299.865 51.5227 302.365 54.6894 302.365 56.5227L300.365 66.5227C300.817 77.3706 298.409 77.5949 289.077 77.9073C288.086 77.9405 286.017 77.9747 284.865 78.0227V79.5227L259.865 79.9537M22.3652 81.5229V84.5229H40.3635L39.8652 80.0229M22.3652 81.5229V80.0229H39.8652M39.8652 80.0229C36.8652 38.5229 90.3652 41.5229 86.8652 80.5229V83.0227H213.365C207.365 39.5227 261.865 39.5227 259.865 79.9537M259.364 79.9537H259.865" stroke="black"/>
</svg>
