<svg width="303" height="96" viewBox="0 0 303 96" fill="none" xmlns="http://www.w3.org/2000/svg">
<circle cx="62.6772" cy="74.3384" r="20.5" stroke="black"/>
<circle cx="235.678" cy="74.3384" r="20.5" stroke="black"/>
<path d="M132.676 12.8382L131.176 9.33823C171.176 1.33835 192.676 1.83838 231.676 13.3383L228.176 17.8383C208.176 9.83829 190.176 8.83829 174.176 8.33836C171.676 7.83836 167.676 7.83832 165.176 8.33823C155.176 8.33836 143.176 9.83836 132.676 12.8382Z" stroke="black" stroke-width="0.5"/>
<path d="M131.176 9.33842L130.676 7.83842C166.676 -3.16162 199.176 0.838253 234.676 9.83842L231.676 13.3384C191.676 0.838379 165.676 2.33838 131.176 9.33842Z" stroke="black" stroke-width="0.5"/>
<path d="M131.176 9.33837C182.676 -2.16166 211.176 7.83838 231.676 13.3384" stroke="black" stroke-width="0.5"/>
<path d="M226.677 30.8384L223.677 16.3384C219.177 14.8384 207.677 9.33838 174.177 8.33838L170.677 30.3384C181.677 29.8384 199.177 28.3384 226.177 28.3384" stroke="black" stroke-width="0.5"/>
<path d="M165.177 8.33838C132.177 9.33838 112.177 18.3384 93.1772 35.8384L95.6772 33.8384L159.677 30.8384L165.177 8.33838Z" stroke="black" stroke-width="0.5"/>
<path d="M239.676 22.8384C236.009 20.1717 230.176 17.8384 223.676 16.3384L226.176 28.3384H232.676C235.676 26.8384 238.676 24.6071 239.676 22.8384Z" stroke="black" stroke-width="0.5"/>
<path d="M96.6772 78.8384H163.677L198.177 77.3384M96.6772 78.8384C96.6772 80.3384 97.1772 81.3384 98.1772 82.8384M96.6772 78.8384H86.6772V82.8384H98.1772M198.177 77.3384L199.177 82.8384M198.177 77.3384H212.677L213.177 82.8384H199.177M199.177 82.8384H98.1772" stroke="black" stroke-width="0.5"/>
<path d="M96.6764 78.8384C92.1772 74.3384 89.1773 52.3384 93.1764 35.8384L165.177 31.8384C161.177 36.8384 160.177 70.8384 163.677 78.8384H96.6764Z" stroke="black" stroke-width="0.5"/>
<path d="M228.677 30.8384L165.177 31.8384C161.177 36.8384 160.177 70.8384 163.677 78.8384L198.177 77.3384C202.677 75.8384 209.177 70.3384 228.677 30.8384Z" stroke="black" stroke-width="0.5"/>
<path d="M170.677 30.3385C166.177 30.8385 162.677 30.8385 159.677 30.8385L165.177 8.33845C168.177 7.83838 171.177 7.83838 174.177 8.33845L170.677 30.3385Z" stroke="black" stroke-width="0.5"/>
<path d="M99.1772 32.3385C103.677 37.8385 110.677 34.3385 114.677 32.8385C115.677 17.3384 102.677 25.3384 99.1772 32.3385Z" stroke="black" stroke-width="0.5"/>
<path d="M234.676 9.83838L231.676 13.3384C248.676 18.8384 259.176 21.8384 271.676 28.3384H273.176L281.176 26.8384C266.176 20.3384 258.676 17.8384 234.676 9.83838Z" fill="#EDADBF" stroke="black" stroke-width="0.5"/>
<path d="M271.676 28.3384C261.176 22.8384 242.176 16.3384 231.676 13.3384L229.676 15.8384L244.676 23.3384C243.176 25.8384 239.176 27.8384 233.176 30.5384C245.176 29.8384 262.176 28.8384 271.676 28.3384Z" fill="#EDADBF" stroke="black" stroke-width="0.5"/>
<path d="M277.178 34.6384L283.176 32.3384L272.677 28.3384L228.677 30.8384C221.177 45.8384 206.177 76.3384 198.177 77.3384H212.677C211.177 66.3384 220.677 42.8384 245.678 51.8384C256.178 46.3384 266.178 40.8384 277.178 34.6384Z" fill="#EDADBF" stroke="black" stroke-width="0.5"/>
<path d="M278.176 34.3384C266.176 40.8384 256.176 46.3384 245.676 51.8384C250.176 54.8384 260.676 60.8384 259.676 79.8384L284.676 79.3384V77.8384C293.176 76.8384 301.676 80.3384 300.176 66.3384L302.176 56.3384C302.176 54.8384 299.676 50.8384 297.176 50.3384C298.676 47.8384 295.676 38.8384 295.676 38.8384V37.3384L291.676 34.3384L286.676 32.8384L283.176 32.3384L278.176 34.3384Z" fill="#EDADBF" stroke="black" stroke-width="0.5"/>
<path d="M281.176 26.8384L272.676 28.3384L283.176 32.3384C292.676 33.3384 291.675 34.8384 295.67 37.2586L295.176 28.8384L281.176 26.8384Z" fill="#EDADBF"/>
<path d="M295.676 37.3384L295.67 37.2586M295.67 37.2586L295.176 28.8384L281.176 26.8384L272.676 28.3384L283.176 32.3384C292.676 33.3384 291.675 34.8384 295.67 37.2586Z" stroke="black" stroke-width="0.5"/>
<path d="M294.178 36.8386C293.678 34.3385 282.678 34.1384 277.178 34.6384" stroke="black" stroke-width="0.5"/>
<path d="M300.178 66.8384L260.678 68.8384C260.178 63.8384 258.011 59.6717 256.178 57.8384L302.178 55.3384M300.678 52.8384C289.678 51.3384 278.678 46.5384 266.678 40.5384M228.678 30.8384L272.678 28.3384L281.178 26.8384" stroke="black" stroke-width="0.5"/>
<path d="M290.678 40.8384C290.678 38.8384 289.678 34.8384 286.178 32.8384C288.399 32.8384 291.775 33.8788 294.287 36.2484C294.75 37.7784 293.678 41.3384 290.636 42.8384C290.622 42.2481 290.678 41.5627 290.678 40.8384Z" fill="#EDADBF"/>
<path d="M272.678 43.3384C279.673 43.6882 285.69 43.7933 291.071 44.3384M297.678 45.3384C295.575 44.8877 293.381 44.5725 291.071 44.3384M295.678 37.8384C295.26 37.2533 294.791 36.724 294.287 36.2484M291.071 44.3384C290.745 43.9936 290.651 43.4706 290.636 42.8384M290.636 42.8384C290.622 42.2481 290.678 41.5627 290.678 40.8384C290.678 38.8384 289.678 34.8384 286.178 32.8384C288.399 32.8384 291.775 33.8788 294.287 36.2484M290.636 42.8384C293.678 41.3384 294.75 37.7784 294.287 36.2484" stroke="black" stroke-width="0.5"/>
<path d="M290.678 40.8384C286.178 40.8384 284.178 36.8384 283.178 34.3384" stroke="black" stroke-width="0.5"/>
<path d="M132.676 12.9384C119.176 16.9384 107.176 22.8384 93.1758 35.8384C100.176 23.8384 115.676 14.3384 131.176 9.33838L132.676 12.9384Z" fill="#EFC7D3" stroke="black" stroke-width="0.5"/>
<path d="M131.176 9.33838C111.176 15.0124 93.1758 32.3384 85.1758 30.3384C98.1758 20.8384 114.176 12.3384 130.676 7.83838L131.176 9.33838Z" fill="#EFC7D3" stroke="black" stroke-width="0.5"/>
<path d="M10.1764 48.3384H4.17645C1.67578 52.3384 1.67578 62.3384 2.17645 65.8384C0.675781 66.8384 0.676379 71.3384 1.67645 72.8384L5.67645 73.3384V74.8384L1.67645 76.8384V78.8384C5.67645 79.8384 14.1764 81.8384 22.1764 81.3384V79.8384H39.6764C39.0098 71.3384 40.6764 60.8384 49.6764 53.8384C47.1764 49.8384 40.1764 45.3384 37.1764 44.8384C27.1764 43.8384 12.1764 46.3384 10.1764 48.3384Z" fill="#EFC7D3" stroke="black" stroke-width="0.5"/>
<path d="M93.1772 35.8384C75.3439 36.6717 43.6772 41.5384 33.1772 44.5384L37.1772 44.8384C42.1772 46.3384 47.6772 50.6717 49.6772 53.8384C62.6763 44.3384 88.1763 51.3384 86.6763 78.8384H96.6763C89.6763 67.8384 90.6763 45.8384 93.1772 35.8384Z" fill="#EFC7D3" stroke="black" stroke-width="0.5"/>
<path d="M10.1758 48.3384H4.17578C36.676 28.8383 58.676 34.8384 84.6758 30.3384L93.676 35.8384C76.676 36.8384 47.6758 40.3384 33.6758 44.5384C25.6758 44.3384 11.6758 46.3384 10.1758 48.3384Z" fill="#EFC7D3" stroke="black" stroke-width="0.5"/>
<path d="M37.1772 44.8385C29.6772 43.8384 12.6772 45.8384 10.1772 48.3385C9.37724 50.7384 12.5106 53.6717 14.1772 54.8384C23.6772 56.3384 37.1772 50.3384 37.1772 44.8385Z" fill="#EFC7D3" stroke="black" stroke-width="0.5"/>
<path d="M4.17648 48.3384C11.1765 49.3384 5.17648 59.8384 2.17648 64.8384C1.67641 57.8384 2.17627 52.3384 4.17648 48.3384Z" fill="#EFC7D3" stroke="black" stroke-width="0.5"/>
<path d="M22.1758 84.3384V79.8384H39.6758L40.1758 84.3384H22.1758Z" fill="#EFC7D3" stroke="black" stroke-width="0.5"/>
<path d="M2.67773 65.8384C4.17773 68.3384 6.17773 71.505 5.67773 73.3384M22.1777 79.8384C11.6777 80.3384 7.17773 76.3384 8.17773 72.8384C8.67773 72.3384 10.1777 70.8384 11.1777 70.8384" stroke="black" stroke-width="0.5"/>
<path d="M32.1777 74.8384C29.6777 70.8384 24.1777 65.8385 21.1777 64.3385C19.4277 63.8384 16.8026 63.9634 14.0525 64.3385C12.4276 65.6718 11.1777 68.8384 11.6777 71.8384C11.6777 73.005 12.9852 75.3384 15.6777 75.3384C20.1777 75.3384 27.1777 75.8384 32.1777 74.8384Z" fill="#EFC7D3"/>
<path d="M6.17773 65.8385C8.42768 65.3384 11.3026 64.7135 14.0525 64.3385M14.0525 64.3385C16.8026 63.9634 19.4277 63.8384 21.1777 64.3385C24.1777 65.8385 29.6777 70.8384 32.1777 74.8384C27.1777 75.8384 20.1777 75.3384 15.6777 75.3384C12.9852 75.3384 11.6777 73.005 11.6777 71.8384C11.1777 68.8384 12.4276 65.6718 14.0525 64.3385Z" stroke="black" stroke-width="0.5"/>
<path d="M11.6777 71.3385C19.6777 69.8385 23.1777 72.467 26.1777 73.967M13.1777 74.3385L30.6777 73.8385" stroke="black" stroke-width="0.5"/>
<path d="M22.1758 82.8384H31.6758C33.6758 82.8384 35.1758 80.8384 34.6758 79.8384M38.1758 79.8384V84.3384" stroke="black" stroke-width="0.5"/>
<path d="M22.1772 81.3386C17.6772 81.3386 13.1772 81.8386 1.67719 78.8386V76.8386L5.67719 74.8386V73.3386L1.67719 72.8386C1.17627 71.3384 0.176465 68.3384 2.17646 65.8384C1.6767 57.8384 2.1767 51.3384 4.17719 48.3381C36.6772 28.8385 58.6772 34.8386 84.6772 30.3386C162.677 -24.6615 244.677 12.3384 281.677 26.8386L295.177 28.8384L295.677 35.8384V38.8384C297.176 43.8384 298.511 48.3384 297.177 50.3384C299.677 51.3384 302.177 54.505 302.177 56.3384L300.177 66.3384C300.629 77.1863 298.221 77.4106 288.889 77.723C287.898 77.7562 285.829 77.7904 284.677 77.8384V79.3384L259.677 79.7694M22.1772 81.3386V84.3386H40.1755L39.6772 79.8386M22.1772 81.3386V79.8386H39.6772M39.6772 79.8386C36.6772 38.3386 90.1772 41.3386 86.6772 80.3386V82.8384H213.177C207.177 39.3384 261.677 39.3384 259.677 79.7694M259.176 79.7694H259.677" stroke="black"/>
</svg>
