<svg width="303" height="95" viewBox="0 0 303 95" fill="none" xmlns="http://www.w3.org/2000/svg">
<circle cx="62.6562" cy="73.8611" r="20.5" stroke="black"/>
<circle cx="235.656" cy="73.8611" r="20.5" stroke="black"/>
<path d="M132.654 12.3609L131.154 8.86094C171.154 0.861052 192.654 1.36108 231.654 12.861L228.154 17.361C208.154 9.36099 190.154 8.36099 174.154 7.86106C171.654 7.36106 167.654 7.36102 165.154 7.86094C155.154 7.86106 143.154 9.36106 132.654 12.3609Z" fill="#EDADBF" stroke="black" stroke-width="0.5"/>
<path d="M131.154 8.86113L130.654 7.36113C166.654 -3.63892 199.154 0.360958 234.654 9.36113L231.654 12.8611C191.654 0.361084 165.654 1.86108 131.154 8.86113Z" fill="#EDADBF" stroke="black" stroke-width="0.5"/>
<path d="M131.154 8.86095C182.654 -2.63908 211.154 7.36096 231.654 12.8609" stroke="black" stroke-width="0.5"/>
<path d="M170.656 29.8611L174.156 7.86108C207.656 8.86108 219.156 14.3611 223.656 15.8611L226.139 27.8611C199.149 27.8617 181.654 29.3612 170.656 29.8611Z" fill="#EDADBF"/>
<path d="M226.656 30.3611L223.656 15.8611C219.156 14.3611 207.656 8.86108 174.156 7.86108L170.656 29.8611C181.656 29.3611 199.156 27.8611 226.156 27.8611" stroke="black" stroke-width="0.5"/>
<path d="M165.156 7.86108C132.156 8.86108 112.156 17.8611 93.1562 35.3611L95.6562 33.3611L159.656 30.3611L165.156 7.86108Z" fill="#EDADBF" stroke="black" stroke-width="0.5"/>
<path d="M239.654 22.3611C235.988 19.6944 230.154 17.3611 223.654 15.8611L226.154 27.8611H232.654C235.654 26.3611 238.654 24.1298 239.654 22.3611Z" fill="#EDADBF" stroke="black" stroke-width="0.5"/>
<path d="M96.6562 78.3611H163.656L198.156 76.8611H212.656L213.156 82.3611H199.156H98.1562H86.6562V78.3611H96.6562Z" fill="#EDADBF"/>
<path d="M96.6562 78.3611H163.656L198.156 76.8611M96.6562 78.3611C96.6562 79.8611 97.1562 80.8611 98.1562 82.3611M96.6562 78.3611H86.6562V82.3611H98.1562M198.156 76.8611L199.156 82.3611M198.156 76.8611H212.656L213.156 82.3611H199.156M199.156 82.3611H98.1562" stroke="black" stroke-width="0.5"/>
<path d="M96.6554 78.3611C92.1562 73.8611 89.1563 51.8611 93.1554 35.3611L165.156 31.3611C161.156 36.3611 160.156 70.3611 163.656 78.3611H96.6554Z" fill="#EDADBF" stroke="black" stroke-width="0.5"/>
<path d="M228.656 30.3611L165.156 31.3611C161.156 36.3611 160.156 70.3611 163.656 78.3611L198.156 76.8611C202.656 75.3611 209.156 69.8611 228.656 30.3611Z" fill="#EDADBF" stroke="black" stroke-width="0.5"/>
<path d="M170.656 29.8612C166.156 30.3612 162.656 30.3612 159.656 30.3612L165.156 7.86116C168.156 7.36108 171.156 7.36108 174.156 7.86116L170.656 29.8612Z" fill="#EDADBF" stroke="black" stroke-width="0.5"/>
<path d="M99.1562 31.8611C103.656 37.3611 110.656 33.8611 114.656 32.3611C115.656 16.861 102.656 24.861 99.1562 31.8611Z" fill="#EDADBF" stroke="black" stroke-width="0.5"/>
<path d="M234.654 9.36108L231.654 12.8611C248.654 18.3611 259.154 21.3611 271.654 27.8611H273.154L281.154 26.3611C266.154 19.8611 258.654 17.3611 234.654 9.36108Z" fill="#E0426F" stroke="black" stroke-width="0.5"/>
<path d="M271.654 27.8611C261.154 22.3611 242.154 15.8611 231.654 12.8611L229.654 15.3611L244.654 22.8611C243.154 25.3611 239.154 27.3611 233.154 30.0611C245.154 29.3611 262.154 28.3611 271.654 27.8611Z" fill="#E0426F" stroke="black" stroke-width="0.5"/>
<path d="M277.156 34.1611L283.155 31.8611L272.655 27.8611L228.655 30.3611C221.155 45.3611 206.155 75.8611 198.155 76.8611H212.655C211.155 65.8611 220.655 42.3611 245.656 51.3611C256.156 45.8611 266.156 40.3611 277.156 34.1611Z" fill="#E0426F" stroke="black" stroke-width="0.5"/>
<path d="M278.154 33.8611C266.154 40.3611 256.154 45.8611 245.654 51.3611C250.154 54.3611 260.654 60.3611 259.654 79.3611L284.654 78.8611V77.3611C293.154 76.3611 301.654 79.8611 300.154 65.8611L302.154 55.8611C302.154 54.3611 299.654 50.3611 297.154 49.8611C298.654 47.3611 295.654 38.3611 295.654 38.3611V36.8611L291.654 33.8611L286.654 32.3611L283.154 31.8611L278.154 33.8611Z" fill="#E0426F" stroke="black" stroke-width="0.5"/>
<path d="M281.154 26.3611L272.654 27.8611L283.154 31.8611C292.654 32.8611 291.653 34.3611 295.648 36.7813L295.154 28.3611L281.154 26.3611Z" fill="#E0426F"/>
<path d="M295.654 36.8611L295.648 36.7813M295.648 36.7813L295.154 28.3611L281.154 26.3611L272.654 27.8611L283.154 31.8611C292.654 32.8611 291.653 34.3611 295.648 36.7813Z" stroke="black" stroke-width="0.5"/>
<path d="M294.156 36.3613C293.656 33.8612 282.656 33.6611 277.156 34.1611" stroke="black" stroke-width="0.5"/>
<path d="M300.156 66.3611L260.656 68.3611C260.156 63.3611 257.99 59.1944 256.156 57.3611L302.156 54.8611M300.656 52.3611C289.656 50.8611 278.656 46.0611 266.656 40.0611M228.656 30.3611L272.656 27.8611L281.156 26.3611" stroke="black" stroke-width="0.5"/>
<path d="M290.656 40.3611C290.656 38.3611 289.656 34.3611 286.156 32.3611C288.377 32.3611 291.754 33.4015 294.265 35.7711C294.729 37.3011 293.656 40.8611 290.614 42.3611C290.601 41.7708 290.656 41.0854 290.656 40.3611Z" fill="#E0426F"/>
<path d="M272.656 42.8611C279.652 43.2109 285.669 43.316 291.049 43.8611M297.656 44.8611C295.553 44.4104 293.36 44.0952 291.049 43.8611M295.656 37.3611C295.238 36.776 294.769 36.2467 294.265 35.7711M291.049 43.8611C290.723 43.5163 290.629 42.9933 290.614 42.3611M290.614 42.3611C290.601 41.7708 290.656 41.0854 290.656 40.3611C290.656 38.3611 289.656 34.3611 286.156 32.3611C288.377 32.3611 291.754 33.4015 294.265 35.7711M290.614 42.3611C293.656 40.8611 294.729 37.3011 294.265 35.7711" stroke="black" stroke-width="0.5"/>
<path d="M290.656 40.3611C286.156 40.3611 284.156 36.3611 283.156 33.8611" stroke="black" stroke-width="0.5"/>
<path d="M132.654 12.4611C119.154 16.4611 107.154 22.3611 93.1543 35.3611C100.154 23.3611 115.654 13.8611 131.154 8.86108L132.654 12.4611Z" stroke="black" stroke-width="0.5"/>
<path d="M131.154 8.86108C111.154 14.5351 93.1543 31.8611 85.1543 29.8611C98.1543 20.3611 114.154 11.8611 130.654 7.36108L131.154 8.86108Z" stroke="black" stroke-width="0.5"/>
<path d="M10.155 47.861H4.15496C1.6543 51.861 1.6543 61.861 2.15496 65.361C0.654297 66.361 0.654894 70.861 1.65496 72.361L5.65496 72.861V74.361L1.65496 76.361V78.361C5.65496 79.361 14.155 81.361 22.155 80.861V79.361H39.655C38.9883 70.861 40.655 60.361 49.655 53.361C47.155 49.361 40.155 44.861 37.155 44.361C27.155 43.361 12.155 45.861 10.155 47.861Z" stroke="black" stroke-width="0.5"/>
<path d="M93.1562 35.3611C75.3229 36.1944 43.6562 41.0611 33.1562 44.0611L37.1562 44.3611C42.1562 45.8611 47.6562 50.1944 49.6562 53.3611C62.6553 43.8611 88.1553 50.8611 86.6553 78.3611H96.6553C89.6553 67.3611 90.6553 45.3611 93.1562 35.3611Z" stroke="black" stroke-width="0.5"/>
<path d="M10.1543 47.8611H4.1543C36.6545 28.361 58.6545 34.3611 84.6543 29.8611L93.6545 35.3611C76.6545 36.3611 47.6543 39.8611 33.6543 44.0611C25.6543 43.8611 11.6543 45.8611 10.1543 47.8611Z" stroke="black" stroke-width="0.5"/>
<path d="M37.1558 44.3612C29.6558 43.3611 12.6558 45.3611 10.1558 47.8612C9.35575 50.2611 12.4891 53.1944 14.1558 54.3611C23.6558 55.8611 37.1558 49.8611 37.1558 44.3612Z" stroke="black" stroke-width="0.5"/>
<path d="M4.15499 47.8611C11.155 48.8611 5.15499 59.3611 2.15499 64.3611C1.65492 57.3611 2.15479 51.8611 4.15499 47.8611Z" stroke="black" stroke-width="0.5"/>
<path d="M22.1543 83.8611V79.3611H39.6543L40.1543 83.8611H22.1543Z" stroke="black" stroke-width="0.5"/>
<path d="M2.65625 65.3608C4.15625 67.8608 6.15625 71.0275 5.65625 72.8608M22.1562 79.3608C11.6562 79.8608 7.15625 75.8608 8.15625 72.3608C8.65625 71.8608 10.1562 70.3608 11.1562 70.3608" stroke="black" stroke-width="0.5"/>
<path d="M6.15625 65.361C8.40619 64.861 11.2811 64.236 14.031 63.861M14.031 63.861C16.7811 63.486 19.4062 63.361 21.1562 63.861C24.1562 65.361 29.6562 70.361 32.1562 74.361C27.1562 75.361 20.1562 74.861 15.6562 74.861C12.9637 74.861 11.6562 72.5276 11.6562 71.361C11.1562 68.361 12.4061 65.1943 14.031 63.861Z" stroke="black" stroke-width="0.5"/>
<path d="M11.6562 70.861C19.6562 69.3611 23.1562 71.9896 26.1562 73.4896M13.1562 73.8611L30.6562 73.3611" stroke="black" stroke-width="0.5"/>
<path d="M22.1543 82.3608H31.6543C33.6543 82.3608 35.1543 80.3608 34.6543 79.3608M38.1543 79.3608V83.8608" stroke="black" stroke-width="0.5"/>
<path d="M22.1562 80.8613C17.6562 80.8613 13.1562 81.3613 1.6562 78.3613V76.3613L5.6562 74.3613V72.8613L1.6562 72.3613C1.15527 70.8611 0.155469 67.8611 2.15546 65.3611C1.65571 57.3611 2.15571 50.8611 4.1562 47.8608C36.6562 28.3612 58.6562 34.3613 84.6562 29.8613C162.656 -25.1388 244.656 11.8611 281.656 26.3613L295.156 28.3611L295.656 35.3611V38.3611C297.155 43.3611 298.49 47.8611 297.156 49.8611C299.656 50.8611 302.156 54.0278 302.156 55.8611L300.156 65.8611C300.608 76.709 298.2 76.9333 288.868 77.2457C287.877 77.2789 285.808 77.3131 284.656 77.3611V78.8611L259.656 79.2921M22.1562 80.8613V83.8613H40.1545L39.6562 79.3613M22.1562 80.8613V79.3613H39.6562M39.6562 79.3613C36.6562 37.8613 90.1562 40.8613 86.6562 79.8613V82.3611H213.156C207.156 38.8611 261.656 38.8611 259.656 79.2921M259.155 79.2921H259.656" stroke="black"/>
</svg>
