<svg width="303" height="96" viewBox="0 0 303 96" fill="none" xmlns="http://www.w3.org/2000/svg">
<circle cx="62.667" cy="74.0454" r="20.5" stroke="black"/>
<circle cx="235.667" cy="74.0454" r="20.5" stroke="black"/>
<path d="M132.665 12.5453L131.165 9.04527C171.165 1.04538 192.665 1.54541 231.665 13.0454L228.165 17.5454C208.165 9.54532 190.165 8.54532 174.165 8.04539C171.665 7.54539 167.665 7.54535 165.165 8.04527C155.165 8.04539 143.165 9.54539 132.665 12.5453Z" fill="#E56E90" stroke="black" stroke-width="0.5"/>
<path d="M131.165 9.04545L130.665 7.54545C166.665 -3.45459 199.165 0.545284 234.665 9.54546L231.665 13.0455C191.665 0.54541 165.665 2.04541 131.165 9.04545Z" fill="#E56E90" stroke="black" stroke-width="0.5"/>
<path d="M131.165 9.04552C182.665 -2.4545 211.165 7.54553 231.665 13.0455" stroke="black" stroke-width="0.5"/>
<path d="M170.667 30.0454L174.167 8.04541C207.667 9.04541 219.167 14.5454 223.667 16.0454L226.15 28.0454C199.16 28.046 181.665 29.5455 170.667 30.0454Z" fill="#E56E90"/>
<path d="M226.667 30.5454L223.667 16.0454C219.167 14.5454 207.667 9.04541 174.167 8.04541L170.667 30.0454C181.667 29.5454 199.167 28.0454 226.167 28.0454" stroke="black" stroke-width="0.5"/>
<path d="M165.167 8.04541C132.167 9.04541 112.167 18.0454 93.167 35.5454L95.667 33.5454L159.667 30.5454L165.167 8.04541Z" fill="#E56E90" stroke="black" stroke-width="0.5"/>
<path d="M239.665 22.5454C235.998 19.8787 230.165 17.5454 223.665 16.0454L226.165 28.0454H232.665C235.665 26.5454 238.665 24.3141 239.665 22.5454Z" fill="#E56E90" stroke="black" stroke-width="0.5"/>
<path d="M96.667 78.5454H163.667L198.167 77.0454H212.667L213.167 82.5454H199.167H98.167H86.667V78.5454H96.667Z" fill="#E56E90"/>
<path d="M96.667 78.5454H163.667L198.167 77.0454M96.667 78.5454C96.667 80.0454 97.167 81.0454 98.167 82.5454M96.667 78.5454H86.667V82.5454H98.167M198.167 77.0454L199.167 82.5454M198.167 77.0454H212.667L213.167 82.5454H199.167M199.167 82.5454H98.167" stroke="black" stroke-width="0.5"/>
<path d="M96.6661 78.5454C92.167 74.0454 89.167 52.0454 93.1661 35.5454L165.167 31.5454C161.167 36.5454 160.167 70.5454 163.667 78.5454H96.6661Z" fill="#E56E90" stroke="black" stroke-width="0.5"/>
<path d="M228.667 30.5454L165.167 31.5454C161.167 36.5454 160.167 70.5454 163.667 78.5454L198.167 77.0454C202.667 75.5454 209.167 70.0454 228.667 30.5454Z" fill="#E56E90" stroke="black" stroke-width="0.5"/>
<path d="M170.667 30.0455C166.167 30.5455 162.667 30.5455 159.667 30.5455L165.167 8.04548C168.167 7.54541 171.167 7.54541 174.167 8.04548L170.667 30.0455Z" fill="#E56E90" stroke="black" stroke-width="0.5"/>
<path d="M99.167 32.0457C103.667 37.5457 110.667 34.0457 114.667 32.5457C115.667 17.0455 102.667 25.0455 99.167 32.0457Z" fill="#E56E90" stroke="black" stroke-width="0.5"/>
<path d="M234.665 9.54541L231.665 13.0454C248.665 18.5454 259.165 21.5454 271.665 28.0454H273.165L281.165 26.5454C266.165 20.0454 258.665 17.5454 234.665 9.54541Z" fill="#E56E90" stroke="black" stroke-width="0.5"/>
<path d="M271.665 28.0454C261.165 22.5454 242.165 16.0454 231.665 13.0454L229.665 15.5454L244.665 23.0454C243.165 25.5454 239.165 27.5454 233.165 30.2454C245.165 29.5454 262.165 28.5454 271.665 28.0454Z" fill="#E56E90" stroke="black" stroke-width="0.5"/>
<path d="M277.167 34.3454L283.165 32.0454L272.666 28.0454L228.666 30.5454C221.166 45.5454 206.166 76.0454 198.166 77.0454H212.666C211.166 66.0454 220.666 42.5454 245.667 51.5454C256.167 46.0454 266.167 40.5454 277.167 34.3454Z" fill="#E56E90" stroke="black" stroke-width="0.5"/>
<path d="M278.165 34.0454C266.165 40.5454 256.165 46.0454 245.665 51.5454C250.165 54.5454 260.665 60.5454 259.665 79.5454L284.665 79.0454V77.5454C293.165 76.5454 301.665 80.0454 300.165 66.0454L302.165 56.0454C302.165 54.5454 299.665 50.5454 297.165 50.0454C298.665 47.5454 295.665 38.5454 295.665 38.5454V37.0454L291.665 34.0454L286.665 32.5454L283.165 32.0454L278.165 34.0454Z" fill="#E56E90" stroke="black" stroke-width="0.5"/>
<path d="M281.165 26.5454L272.665 28.0454L283.165 32.0454C292.665 33.0454 291.664 34.5454 295.659 36.9656L295.165 28.5454L281.165 26.5454Z" fill="#E56E90"/>
<path d="M295.665 37.0454L295.659 36.9656M295.659 36.9656L295.165 28.5454L281.165 26.5454L272.665 28.0454L283.165 32.0454C292.665 33.0454 291.664 34.5454 295.659 36.9656Z" stroke="black" stroke-width="0.5"/>
<path d="M294.167 36.5456C293.667 34.0455 282.667 33.8454 277.167 34.3454" stroke="black" stroke-width="0.5"/>
<path d="M300.167 66.5454L260.667 68.5454C260.167 63.5454 258 59.3787 256.167 57.5454L302.167 55.0454M300.667 52.5454C289.667 51.0454 278.667 46.2454 266.667 40.2454M228.667 30.5454L272.667 28.0454L281.167 26.5454" stroke="black" stroke-width="0.5"/>
<path d="M290.667 40.5454C290.667 38.5454 289.667 34.5454 286.167 32.5454C288.388 32.5454 291.765 33.5858 294.276 35.9554C294.74 37.4854 293.667 41.0454 290.625 42.5454C290.612 41.9551 290.667 41.2697 290.667 40.5454Z" fill="#E56E90"/>
<path d="M272.667 43.0454C279.663 43.3952 285.68 43.5003 291.06 44.0454M297.667 45.0454C295.564 44.5948 293.371 44.2795 291.06 44.0454M295.667 37.5454C295.249 36.9603 294.78 36.4311 294.276 35.9554M291.06 44.0454C290.734 43.7006 290.64 43.1776 290.625 42.5454M290.625 42.5454C290.612 41.9551 290.667 41.2697 290.667 40.5454C290.667 38.5454 289.667 34.5454 286.167 32.5454C288.388 32.5454 291.765 33.5858 294.276 35.9554M290.625 42.5454C293.667 41.0454 294.74 37.4854 294.276 35.9554" stroke="black" stroke-width="0.5"/>
<path d="M290.667 40.5454C286.167 40.5454 284.167 36.5454 283.167 34.0454" stroke="black" stroke-width="0.5"/>
<path d="M132.665 12.6454C119.165 16.6454 107.165 22.5454 93.165 35.5454C100.165 23.5454 115.665 14.0454 131.165 9.04541L132.665 12.6454Z" fill="#EDADBF" stroke="black" stroke-width="0.5"/>
<path d="M131.165 9.04541C111.165 14.7194 93.165 32.0454 85.165 30.0454C98.165 20.5454 114.165 12.0454 130.665 7.54541L131.165 9.04541Z" fill="#EDADBF" stroke="black" stroke-width="0.5"/>
<path d="M10.1657 48.0453H4.16571C1.66504 52.0453 1.66504 62.0453 2.16571 65.5453C0.665039 66.5453 0.665637 71.0453 1.66571 72.5453L5.66571 73.0453V74.5453L1.66571 76.5453V78.5453C5.66571 79.5453 14.1657 81.5453 22.1657 81.0453V79.5453H39.6657C38.999 71.0453 40.6657 60.5453 49.6657 53.5453C47.1657 49.5453 40.1657 45.0453 37.1657 44.5453C27.1657 43.5453 12.1657 46.0453 10.1657 48.0453Z" fill="#EDADBF" stroke="black" stroke-width="0.5"/>
<path d="M93.167 35.5454C75.3337 36.3787 43.667 41.2454 33.167 44.2454L37.167 44.5454C42.167 46.0454 47.667 50.3787 49.667 53.5454C62.666 44.0454 88.166 51.0454 86.666 78.5454H96.666C89.666 67.5454 90.666 45.5454 93.167 35.5454Z" fill="#EDADBF" stroke="black" stroke-width="0.5"/>
<path d="M10.165 48.0455H4.16504C36.6652 28.5454 58.6653 34.5454 84.665 30.0454L93.6653 35.5454C76.6653 36.5454 47.665 40.0454 33.665 44.2454C25.665 44.0454 11.665 46.0454 10.165 48.0455Z" fill="#EDADBF" stroke="black" stroke-width="0.5"/>
<path d="M37.1665 44.5455C29.6665 43.5454 12.6665 45.5454 10.1665 48.0455C9.36649 50.4454 12.4998 53.3787 14.1665 54.5454C23.6665 56.0454 37.1665 50.0454 37.1665 44.5455Z" fill="#EDADBF" stroke="black" stroke-width="0.5"/>
<path d="M4.16573 48.0454C11.1657 49.0454 5.16573 59.5454 2.16573 64.5454C1.66566 57.5454 2.16553 52.0454 4.16573 48.0454Z" fill="#EDADBF" stroke="black" stroke-width="0.5"/>
<path d="M22.165 84.0454V79.5454H39.665L40.165 84.0454H22.165Z" fill="#EDADBF" stroke="black" stroke-width="0.5"/>
<path d="M2.66699 65.5454C4.16699 68.0454 6.16699 71.2121 5.66699 73.0454M22.167 79.5454C11.667 80.0454 7.16699 76.0454 8.16699 72.5454C8.66699 72.0454 10.167 70.5454 11.167 70.5454" stroke="black" stroke-width="0.5"/>
<path d="M32.167 74.5455C29.667 70.5455 24.167 65.5456 21.167 64.0456C19.4169 63.5456 16.7919 63.6706 14.0418 64.0456C12.4169 65.3789 11.167 68.5455 11.667 71.5455C11.667 72.7122 12.9744 75.0455 15.667 75.0455C20.167 75.0455 27.167 75.5455 32.167 74.5455Z" fill="#EDADBF"/>
<path d="M6.16699 65.5456C8.41693 65.0456 11.2918 64.4206 14.0418 64.0456M14.0418 64.0456C16.7919 63.6706 19.4169 63.5456 21.167 64.0456C24.167 65.5456 29.667 70.5455 32.167 74.5455C27.167 75.5455 20.167 75.0455 15.667 75.0455C12.9744 75.0455 11.667 72.7122 11.667 71.5455C11.167 68.5455 12.4168 65.3789 14.0418 64.0456Z" stroke="black" stroke-width="0.5"/>
<path d="M11.667 71.0456C19.667 69.5457 23.167 72.1741 26.167 73.6741M13.167 74.0457L30.667 73.5457" stroke="black" stroke-width="0.5"/>
<path d="M22.165 82.5454H31.665C33.665 82.5454 35.165 80.5454 34.665 79.5454M38.165 79.5454V84.0454" stroke="black" stroke-width="0.5"/>
<path d="M22.1669 81.0457C17.6669 81.0457 13.1669 81.5457 1.66694 78.5457V76.5457L5.66694 74.5456V73.0457L1.66694 72.5457C1.16602 71.0454 0.166211 68.0454 2.16621 65.5454C1.66645 57.5454 2.16645 51.0454 4.16694 48.0452C36.6669 28.5455 58.6669 34.5456 84.6669 30.0456C162.667 -24.9545 244.667 12.0454 281.667 26.5456L295.167 28.5454L295.667 35.5454V38.5454C297.165 43.5454 298.5 48.0454 297.167 50.0454C299.667 51.0454 302.167 54.2121 302.167 56.0454L300.167 66.0454C300.619 76.8933 298.211 77.1176 288.879 77.43C287.888 77.4632 285.819 77.4974 284.667 77.5454V79.0454L259.667 79.4764M22.1669 81.0457V84.0457H40.1653L39.6669 79.5457M22.1669 81.0457V79.5457H39.6669M39.6669 79.5457C36.6669 38.0457 90.1669 41.0457 86.6669 80.0457V82.5454H213.167C207.167 39.0454 261.667 39.0454 259.667 79.4764M259.165 79.4764H259.667" stroke="black"/>
</svg>
