<svg width="303" height="95" viewBox="0 0 303 95" fill="none" xmlns="http://www.w3.org/2000/svg">
<circle cx="62.6978" cy="73.6919" r="20.5" stroke="black"/>
<circle cx="235.698" cy="73.6919" r="20.5" stroke="black"/>
<path d="M132.696 12.1918L131.196 8.69175C171.196 0.691862 192.696 1.19189 231.696 12.6918L228.196 17.1918C208.196 9.1918 190.196 8.1918 174.196 7.69187C171.696 7.19187 167.696 7.19183 165.196 7.69175C155.196 7.69187 143.196 9.19187 132.696 12.1918Z" fill="#EFC7D3" stroke="black" stroke-width="0.5"/>
<path d="M131.196 8.69194L130.696 7.19194C166.696 -3.80811 199.196 0.191769 234.696 9.19194L231.696 12.6919C191.696 0.191895 165.696 1.69189 131.196 8.69194Z" fill="#EFC7D3" stroke="black" stroke-width="0.5"/>
<path d="M131.196 8.692C182.696 -2.80802 211.196 7.19202 231.696 12.692" stroke="black" stroke-width="0.5"/>
<path d="M170.698 29.6919L174.198 7.69189C207.698 8.69189 219.198 14.1919 223.698 15.6919L226.181 27.6919C199.19 27.6925 181.695 29.192 170.698 29.6919Z" fill="#EFC7D3"/>
<path d="M226.698 30.1919L223.698 15.6919C219.198 14.1919 207.698 8.69189 174.198 7.69189L170.698 29.6919C181.698 29.1919 199.198 27.6919 226.198 27.6919" stroke="black" stroke-width="0.5"/>
<path d="M165.198 7.69189C132.198 8.69189 112.198 17.6919 93.1978 35.1919L95.6978 33.1919L159.698 30.1919L165.198 7.69189Z" fill="#EFC7D3" stroke="black" stroke-width="0.5"/>
<path d="M239.696 22.1919C236.03 19.5252 230.196 17.1919 223.696 15.6919L226.196 27.6919H232.696C235.696 26.1919 238.696 23.9606 239.696 22.1919Z" fill="#EFC7D3" stroke="black" stroke-width="0.5"/>
<path d="M96.6978 78.1919H163.698L198.198 76.6919H212.698L213.198 82.1919H199.198H98.1978H86.6978V78.1919H96.6978Z" fill="#EFC7D3"/>
<path d="M96.6978 78.1919H163.698L198.198 76.6919M96.6978 78.1919C96.6978 79.6919 97.1978 80.6919 98.1978 82.1919M96.6978 78.1919H86.6978V82.1919H98.1978M198.198 76.6919L199.198 82.1919M198.198 76.6919H212.698L213.198 82.1919H199.198M199.198 82.1919H98.1978" stroke="black" stroke-width="0.5"/>
<path d="M96.6969 78.1919C92.1977 73.6919 89.1978 51.6919 93.1969 35.1919L165.198 31.1919C161.198 36.1919 160.198 70.1919 163.698 78.1919H96.6969Z" fill="#EFC7D3" stroke="black" stroke-width="0.5"/>
<path d="M228.697 30.1919L165.197 31.1919C161.197 36.1919 160.198 70.1919 163.697 78.1919L198.197 76.6919C202.697 75.1919 209.197 69.6919 228.697 30.1919Z" fill="#EFC7D3" stroke="black" stroke-width="0.5"/>
<path d="M170.698 29.692C166.198 30.192 162.698 30.192 159.698 30.192L165.198 7.69197C168.198 7.19189 171.198 7.19189 174.198 7.69197L170.698 29.692Z" fill="#EFC7D3" stroke="black" stroke-width="0.5"/>
<path d="M99.1978 31.6922C103.698 37.1922 110.698 33.6922 114.698 32.1922C115.698 16.692 102.698 24.692 99.1978 31.6922Z" fill="#EFC7D3" stroke="black" stroke-width="0.5"/>
<path d="M234.696 9.19189L231.696 12.6919C248.696 18.1919 259.196 21.1919 271.696 27.6919H273.196L281.196 26.1919C266.196 19.6919 258.696 17.1919 234.696 9.19189Z" stroke="black" stroke-width="0.5"/>
<path d="M271.696 27.6919C261.196 22.1919 242.196 15.6919 231.696 12.6919L229.696 15.1919L244.696 22.6919C243.196 25.1919 239.196 27.1919 233.196 29.8919C245.196 29.1919 262.196 28.1919 271.696 27.6919Z" stroke="black" stroke-width="0.5"/>
<path d="M277.198 33.9919L283.196 31.6919L272.697 27.6919L228.697 30.1919C221.197 45.1919 206.197 75.6919 198.197 76.6919H212.697C211.197 65.6919 220.697 42.1919 245.698 51.1919C256.198 45.6919 266.198 40.1919 277.198 33.9919Z" stroke="black" stroke-width="0.5"/>
<path d="M278.196 33.6919C266.196 40.1919 256.196 45.6919 245.696 51.1919C250.196 54.1919 260.696 60.1919 259.696 79.1919L284.696 78.6919V77.1919C293.196 76.1919 301.696 79.6919 300.196 65.6919L302.196 55.6919C302.196 54.1919 299.696 50.1919 297.196 49.6919C298.696 47.1919 295.696 38.1919 295.696 38.1919V36.6919L291.696 33.6919L286.696 32.1919L283.196 31.6919L278.196 33.6919Z" stroke="black" stroke-width="0.5"/>
<path d="M295.696 36.6919L295.69 36.6121M295.69 36.6121L295.196 28.1919L281.196 26.1919L272.696 27.6919L283.196 31.6919C292.696 32.6919 291.695 34.1919 295.69 36.6121Z" stroke="black" stroke-width="0.5"/>
<path d="M294.198 36.1921C293.698 33.692 282.698 33.4919 277.198 33.9919" stroke="black" stroke-width="0.5"/>
<path d="M300.198 66.1919L260.698 68.1919C260.198 63.1919 258.031 59.0252 256.198 57.1919L302.198 54.6919M300.698 52.1919C289.698 50.6919 278.698 45.8919 266.698 39.8919M228.698 30.1919L272.698 27.6919L281.198 26.1919" stroke="black" stroke-width="0.5"/>
<path d="M272.698 42.6919C279.693 43.0417 285.71 43.1468 291.091 43.6919M297.698 44.6919C295.595 44.2413 293.402 43.926 291.091 43.6919M295.698 37.1919C295.28 36.6068 294.811 36.0775 294.307 35.6019M291.091 43.6919C290.765 43.3471 290.671 42.8241 290.656 42.1919M290.656 42.1919C290.642 41.6016 290.698 40.9162 290.698 40.1919C290.698 38.1919 289.698 34.1919 286.198 32.1919C288.419 32.1919 291.795 33.2323 294.307 35.6019M290.656 42.1919C293.698 40.6919 294.77 37.1319 294.307 35.6019" stroke="black" stroke-width="0.5"/>
<path d="M290.698 40.1919C286.198 40.1919 284.198 36.1919 283.198 33.6919" stroke="black" stroke-width="0.5"/>
<path d="M132.696 12.2919C119.196 16.2919 107.196 22.1919 93.1963 35.1919C100.196 23.1919 115.696 13.6919 131.196 8.69189L132.696 12.2919Z" fill="#E0426F" stroke="black" stroke-width="0.5"/>
<path d="M131.196 8.69189C111.196 14.3659 93.1963 31.6919 85.1963 29.6919C98.1963 20.1919 114.196 11.6919 130.696 7.19189L131.196 8.69189Z" fill="#E0426F" stroke="black" stroke-width="0.5"/>
<path d="M10.197 47.6918H4.19696C1.69629 51.6918 1.69629 61.6918 2.19696 65.1918C0.696289 66.1918 0.696887 70.6918 1.69696 72.1918L5.69696 72.6918V74.1918L1.69696 76.1918V78.1918C5.69696 79.1918 14.197 81.1918 22.197 80.6918V79.1918H39.697C39.0303 70.6918 40.697 60.1918 49.697 53.1918C47.197 49.1918 40.197 44.6918 37.197 44.1918C27.197 43.1918 12.197 45.6918 10.197 47.6918Z" fill="#E0426F" stroke="black" stroke-width="0.5"/>
<path d="M93.1978 35.1919C75.3644 36.0252 43.6978 40.8919 33.1978 43.8919L37.1978 44.1919C42.1978 45.6919 47.6978 50.0252 49.6978 53.1919C62.6968 43.6919 88.1968 50.6919 86.6968 78.1919H96.6968C89.6968 67.1919 90.6968 45.1919 93.1978 35.1919Z" fill="#E0426F" stroke="black" stroke-width="0.5"/>
<path d="M10.1963 47.6919H4.19629C36.6965 28.1918 58.6965 34.1919 84.6963 29.6919L93.6965 35.1919C76.6965 36.1919 47.6963 39.6919 33.6963 43.8919C25.6963 43.6919 11.6963 45.6919 10.1963 47.6919Z" fill="#E0426F" stroke="black" stroke-width="0.5"/>
<path d="M37.1977 44.192C29.6977 43.1919 12.6977 45.1919 10.1977 47.692C9.39774 50.0919 12.5311 53.0252 14.1977 54.1919C23.6978 55.6919 37.1977 49.6919 37.1977 44.192Z" fill="#E0426F" stroke="black" stroke-width="0.5"/>
<path d="M4.19698 47.6919C11.197 48.6919 5.19698 59.1919 2.19698 64.1919C1.69691 57.1919 2.19678 51.6919 4.19698 47.6919Z" fill="#E0426F" stroke="black" stroke-width="0.5"/>
<path d="M22.1963 83.6919V79.1919H39.6963L40.1963 83.6919H22.1963Z" fill="#E0426F" stroke="black" stroke-width="0.5"/>
<path d="M2.69824 65.1919C4.19824 67.6919 6.19824 70.8586 5.69824 72.6919M22.1982 79.1919C11.6982 79.6919 7.19824 75.6919 8.19824 72.1919C8.69824 71.6919 10.1982 70.1919 11.1982 70.1919" stroke="black" stroke-width="0.5"/>
<path d="M32.1982 74.192C29.6982 70.192 24.1982 65.1921 21.1982 63.6921C19.4482 63.1921 16.8231 63.3171 14.073 63.6921C12.4481 65.0254 11.1982 68.192 11.6982 71.192C11.6982 72.3587 13.0057 74.692 15.6982 74.692C20.1982 74.692 27.1982 75.192 32.1982 74.192Z" fill="#E0426F"/>
<path d="M6.19824 65.1921C8.44818 64.6921 11.3231 64.0671 14.073 63.6921M14.073 63.6921C16.8231 63.3171 19.4482 63.1921 21.1982 63.6921C24.1982 65.1921 29.6982 70.192 32.1982 74.192C27.1982 75.192 20.1982 74.692 15.6982 74.692C13.0057 74.692 11.6982 72.3587 11.6982 71.192C11.1982 68.192 12.4481 65.0254 14.073 63.6921Z" stroke="black" stroke-width="0.5"/>
<path d="M11.6982 70.6921C19.6982 69.1921 23.1982 71.8206 26.1982 73.3206M13.1982 73.6921L30.6982 73.1921" stroke="black" stroke-width="0.5"/>
<path d="M22.1963 82.1919H31.6963C33.6963 82.1919 35.1963 80.1919 34.6963 79.1919M38.1963 79.1919V83.6919" stroke="black" stroke-width="0.5"/>
<path d="M22.1977 80.6921C17.6977 80.6921 13.1977 81.1921 1.6977 78.1921V76.1921L5.6977 74.1921V72.6921L1.6977 72.1921C1.19678 70.6919 0.196973 67.6919 2.19697 65.1919C1.69721 57.1919 2.19721 50.6919 4.1977 47.6916C36.6977 28.192 58.6977 34.1921 84.6977 29.6921C162.698 -25.308 244.698 11.6919 281.698 26.1921L295.198 28.1919L295.698 35.1919V38.1919C297.196 43.1919 298.531 47.6919 297.198 49.6919C299.698 50.6919 302.198 53.8586 302.198 55.6919L300.198 65.6919C300.65 76.5398 298.242 76.7641 288.91 77.0765C287.919 77.1097 285.85 77.1439 284.698 77.1919V78.6919L259.698 79.1229M22.1977 80.6921V83.6921H40.196L39.6977 79.1921M22.1977 80.6921V79.1921H39.6977M39.6977 79.1921C36.6977 37.6921 90.1977 40.6921 86.6977 79.6921V82.1919H213.198C207.198 38.6919 261.698 38.6919 259.698 79.1229M259.196 79.1229H259.698" stroke="black"/>
</svg>
