<svg width="304" height="95" viewBox="0 0 304 95" fill="none" xmlns="http://www.w3.org/2000/svg">
<circle cx="63.0938" cy="73.6768" r="20.5" fill="#EDADBF" stroke="black"/>
<circle cx="236.094" cy="73.6768" r="20.5" fill="#EDADBF" stroke="black"/>
<path d="M133.092 12.1766L131.592 8.67661C171.592 0.676725 193.092 1.17676 232.092 12.6767L228.592 17.1767C208.592 9.17667 190.592 8.17667 174.592 7.67673C172.092 7.17673 168.092 7.1767 165.592 7.67661C155.592 7.67673 143.592 9.17674 133.092 12.1766Z" stroke="black" stroke-width="0.5"/>
<path d="M131.592 8.6768L131.092 7.1768C167.092 -3.82324 199.592 0.176632 235.092 9.1768L232.092 12.6768C192.092 0.176758 166.092 1.67676 131.592 8.6768Z" stroke="black" stroke-width="0.5"/>
<path d="M131.592 8.67675C183.092 -2.82328 211.592 7.17676 232.092 12.6767" stroke="black" stroke-width="0.5"/>
<path d="M227.094 30.1768L224.094 15.6768C219.594 14.1768 208.094 8.67676 174.594 7.67676L171.094 29.6768C182.094 29.1768 199.594 27.6768 226.594 27.6768" stroke="black" stroke-width="0.5"/>
<path d="M165.594 7.67676C132.594 8.67676 112.594 17.6768 93.5938 35.1768L96.0938 33.1768L160.094 30.1768L165.594 7.67676Z" stroke="black" stroke-width="0.5"/>
<path d="M240.092 22.1768C236.425 19.5101 230.592 17.1768 224.092 15.6768L226.592 27.6768H233.092C236.092 26.1768 239.092 23.9455 240.092 22.1768Z" stroke="black" stroke-width="0.5"/>
<path d="M97.0938 78.1768H164.094L198.594 76.6768M97.0938 78.1768C97.0938 79.6768 97.5938 80.6768 98.5938 82.1768M97.0938 78.1768H87.0938V82.1768H98.5938M198.594 76.6768L199.594 82.1768M198.594 76.6768H213.094L213.594 82.1768H199.594M199.594 82.1768H98.5938" stroke="black" stroke-width="0.5"/>
<path d="M97.0929 78.1768C92.5937 73.6768 89.5938 51.6768 93.5929 35.1768L165.594 31.1768C161.594 36.1768 160.594 70.1768 164.094 78.1768H97.0929Z" stroke="black" stroke-width="0.5"/>
<path d="M229.094 30.1768L165.594 31.1768C161.594 36.1768 160.594 70.1768 164.094 78.1768L198.594 76.6768C203.094 75.1768 209.594 69.6768 229.094 30.1768Z" stroke="black" stroke-width="0.5"/>
<path d="M171.094 29.6768C166.594 30.1768 163.094 30.1768 160.094 30.1768L165.594 7.67683C168.594 7.17676 171.594 7.17676 174.594 7.67683L171.094 29.6768Z" stroke="black" stroke-width="0.5"/>
<path d="M99.5938 31.6769C104.094 37.1769 111.094 33.6769 115.094 32.1769C116.094 16.6768 103.094 24.6768 99.5938 31.6769Z" stroke="black" stroke-width="0.5"/>
<path d="M235.092 9.17676L232.092 12.6768C249.092 18.1768 259.592 21.1768 272.092 27.6768H273.592L281.592 26.1768C266.592 19.6768 259.092 17.1768 235.092 9.17676Z" stroke="black" stroke-width="0.5"/>
<path d="M272.092 27.6768C261.592 22.1768 242.592 15.6768 232.092 12.6768L230.092 15.1768L245.092 22.6768C243.592 25.1768 239.592 27.1768 233.592 29.8768C245.592 29.1768 262.592 28.1768 272.092 27.6768Z" stroke="black" stroke-width="0.5"/>
<path d="M277.594 33.9768L283.592 31.6768L273.093 27.6768L229.093 30.1768C221.593 45.1768 206.593 75.6768 198.593 76.6768H213.093C211.593 65.6768 221.093 42.1768 246.094 51.1768C256.594 45.6768 266.594 40.1768 277.594 33.9768Z" stroke="black" stroke-width="0.5"/>
<path d="M278.592 33.6768C266.592 40.1768 256.592 45.6768 246.092 51.1768C250.592 54.1768 261.092 60.1768 260.092 79.1768L285.092 78.6768V77.1768C293.592 76.1768 302.092 79.6768 300.592 65.6768L302.592 55.6768C302.592 54.1768 300.092 50.1768 297.592 49.6768C299.092 47.1768 296.092 38.1768 296.092 38.1768V36.6768L292.092 33.6768L287.092 32.1768L283.592 31.6768L278.592 33.6768Z" stroke="black" stroke-width="0.5"/>
<path d="M296.092 36.6768L296.086 36.5969M296.086 36.5969L295.592 28.1768L281.592 26.1768L273.092 27.6768L283.592 31.6768C293.092 32.6768 292.091 34.1768 296.086 36.5969Z" stroke="black" stroke-width="0.5"/>
<path d="M294.594 36.177C294.094 33.6768 283.094 33.4768 277.594 33.9768" stroke="black" stroke-width="0.5"/>
<path d="M300.594 66.1768L261.094 68.1768C260.594 63.1768 258.427 59.0101 256.594 57.1768L302.594 54.6768M301.094 52.1768C290.094 50.6768 279.094 45.8768 267.094 39.8768M229.094 30.1768L273.094 27.6768L281.594 26.1768" stroke="black" stroke-width="0.5"/>
<path d="M273.094 42.6768C280.089 43.0265 286.106 43.1316 291.487 43.6768M298.094 44.6768C295.991 44.2261 293.798 43.9109 291.487 43.6768M296.094 37.1768C295.676 36.5916 295.207 36.0624 294.703 35.5867M291.487 43.6768C291.161 43.332 291.067 42.8089 291.052 42.1768M291.052 42.1768C291.038 41.5865 291.094 40.901 291.094 40.1768C291.094 38.1768 290.094 34.1768 286.594 32.1768C288.815 32.1768 292.191 33.2171 294.703 35.5867M291.052 42.1768C294.094 40.6768 295.166 37.1167 294.703 35.5867" stroke="black" stroke-width="0.5"/>
<path d="M291.094 40.1768C286.594 40.1768 284.594 36.1768 283.594 33.6768" stroke="black" stroke-width="0.5"/>
<path d="M133.092 12.2767C119.592 16.2767 107.592 22.1768 93.5923 35.1768C100.592 23.1768 116.092 13.6768 131.592 8.67676L133.092 12.2767Z" fill="#E56E90" stroke="black" stroke-width="0.5"/>
<path d="M131.592 8.67676C111.592 14.3508 93.5923 31.6768 85.5923 29.6768C98.5923 20.1768 114.592 11.6768 131.092 7.17676L131.592 8.67676Z" fill="#E56E90" stroke="black" stroke-width="0.5"/>
<path d="M10.593 47.6768H4.59295C2.09229 51.6768 2.09229 61.6768 2.59295 65.1768C1.09229 66.1768 1.09288 70.6768 2.09295 72.1768L6.09295 72.6768V74.1768L2.09295 76.1768V78.1768C6.09295 79.1768 14.593 81.1768 22.593 80.6768V79.1768H40.0929C39.4263 70.6768 41.0929 60.1768 50.0929 53.1768C47.5929 49.1768 40.5929 44.6768 37.5929 44.1768C27.5929 43.1768 12.593 45.6768 10.593 47.6768Z" fill="#E56E90" stroke="black" stroke-width="0.5"/>
<path d="M93.5938 35.1768C75.7604 36.0101 44.0938 40.8768 33.5938 43.8768L37.5938 44.1768C42.5938 45.6768 48.0938 50.0101 50.0938 53.1768C63.0928 43.6768 88.5928 50.6768 87.0928 78.1768H97.0928C90.0928 67.1768 91.0928 45.1768 93.5938 35.1768Z" fill="#E56E90" stroke="black" stroke-width="0.5"/>
<path d="M10.5918 47.6768H4.5918C37.092 28.1767 59.092 34.1768 85.0918 29.6768L94.092 35.1768C77.092 36.1768 48.0918 39.6768 34.0918 43.8768C26.0918 43.6767 12.0918 45.6768 10.5918 47.6768Z" fill="#E56E90" stroke="black" stroke-width="0.5"/>
<path d="M37.5937 44.1768C30.0937 43.1768 13.0937 45.1768 10.5937 47.6768C9.79374 50.0768 12.9271 53.0101 14.5937 54.1768C24.0938 55.6768 37.5937 49.6768 37.5937 44.1768Z" fill="#E56E90" stroke="black" stroke-width="0.5"/>
<path d="M4.59298 47.6768C11.593 48.6768 5.59298 59.1768 2.59298 64.1768C2.09291 57.1768 2.59277 51.6768 4.59298 47.6768Z" fill="#E56E90" stroke="black" stroke-width="0.5"/>
<path d="M22.5923 83.6768V79.1768H40.0923L40.5923 83.6768H22.5923Z" fill="#E56E90" stroke="black" stroke-width="0.5"/>
<path d="M3.09375 65.1768C4.59375 67.6768 6.59375 70.8434 6.09375 72.6768M22.5938 79.1768C12.0938 79.6768 7.59375 75.6768 8.59375 72.1768C9.09375 71.6768 10.5938 70.1768 11.5938 70.1768" stroke="black" stroke-width="0.5"/>
<path d="M32.5938 74.1768C30.0938 70.1768 24.5938 65.1768 21.5938 63.6768C19.8437 63.1768 17.2186 63.3018 14.4685 63.6768C12.8436 65.0101 11.5938 68.1768 12.0938 71.1768C12.0938 72.3434 13.4012 74.6768 16.0938 74.6768C20.5938 74.6768 27.5938 75.1768 32.5938 74.1768Z" fill="#E56E90"/>
<path d="M6.59375 65.1768C8.84369 64.6768 11.7186 64.0518 14.4685 63.6768M14.4685 63.6768C17.2186 63.3018 19.8437 63.1768 21.5938 63.6768C24.5938 65.1768 30.0938 70.1768 32.5938 74.1768C27.5938 75.1768 20.5938 74.6768 16.0938 74.6768C13.4012 74.6768 12.0938 72.3434 12.0938 71.1768C11.5938 68.1768 12.8436 65.0101 14.4685 63.6768Z" stroke="black" stroke-width="0.5"/>
<path d="M12.0938 70.6768C20.0938 69.1769 23.5938 71.8054 26.5938 73.3054M13.5938 73.6769L31.0938 73.1769" stroke="black" stroke-width="0.5"/>
<path d="M22.5918 82.1768H32.0918C34.0918 82.1768 35.5918 80.1768 35.0918 79.1768M38.5918 79.1768V83.6768" stroke="black" stroke-width="0.5"/>
<path d="M22.5937 80.677C18.0937 80.677 13.5937 81.177 2.0937 78.177V76.177L6.0937 74.177V72.677L2.0937 72.177C1.59277 70.6768 0.592969 67.6768 2.59296 65.1768C2.09321 57.1768 2.59321 50.6768 4.5937 47.6765C37.0937 28.1769 59.0937 34.1769 85.0937 29.6769C163.094 -25.3232 245.094 11.6767 282.094 26.1769L295.594 28.1768L296.094 35.1768V38.1768C297.592 43.1768 298.927 47.6768 297.594 49.6768C300.094 50.6768 302.594 53.8434 302.594 55.6768L300.594 65.6768C301.046 76.5247 298.638 76.7489 289.306 77.0614C288.315 77.0946 286.246 77.1288 285.094 77.1768V78.6768L260.094 79.1078M22.5937 80.677V83.677H40.592L40.0937 79.177M22.5937 80.677V79.177H40.0937M40.0937 79.177C37.0937 37.677 90.5937 40.677 87.0937 79.677V82.1768H213.594C207.594 38.6768 262.094 38.6768 260.094 79.1078M259.592 79.1078H260.094" stroke="black"/>
</svg>
