<svg width="304" height="96" viewBox="0 0 304 96" fill="none" xmlns="http://www.w3.org/2000/svg">
<circle cx="63.0938" cy="74.2297" r="20.5" fill="#EDADBF" stroke="black"/>
<circle cx="236.094" cy="74.2297" r="20.5" fill="#EDADBF" stroke="black"/>
<path d="M133.092 12.7296L131.592 9.22959C171.592 1.2297 193.092 1.72974 232.092 13.2297L228.592 17.7297C208.592 9.72965 190.592 8.72964 174.592 8.22971C172.092 7.72971 168.092 7.72968 165.592 8.22959C155.592 8.22971 143.592 9.72971 133.092 12.7296Z" fill="#E0426F" stroke="black" stroke-width="0.5"/>
<path d="M131.592 9.22978L131.092 7.72978C167.092 -3.27026 199.592 0.72961 235.092 9.72978L232.092 13.2298C192.092 0.729736 166.092 2.22974 131.592 9.22978Z" fill="#E0426F" stroke="black" stroke-width="0.5"/>
<path d="M131.592 9.2296C183.092 -2.27042 211.592 7.72961 232.092 13.2296" stroke="black" stroke-width="0.5"/>
<path d="M171.094 30.2297L174.594 8.22974C208.094 9.22974 219.594 14.7297 224.094 16.2297L226.577 28.2297C199.586 28.2304 182.091 29.7298 171.094 30.2297Z" fill="#E0426F"/>
<path d="M227.094 30.7297L224.094 16.2297C219.594 14.7297 208.094 9.22974 174.594 8.22974L171.094 30.2297C182.094 29.7297 199.594 28.2297 226.594 28.2297" stroke="black" stroke-width="0.5"/>
<path d="M165.594 8.22974C132.594 9.22974 112.594 18.2297 93.5938 35.7297L96.0938 33.7297L160.094 30.7297L165.594 8.22974Z" fill="#E0426F" stroke="black" stroke-width="0.5"/>
<path d="M240.092 22.7297C236.425 20.0631 230.592 17.7297 224.092 16.2297L226.592 28.2297H233.092C236.092 26.7297 239.092 24.4985 240.092 22.7297Z" fill="#E0426F" stroke="black" stroke-width="0.5"/>
<path d="M97.0938 78.7297H164.094L198.594 77.2297H213.094L213.594 82.7297H199.594H98.5938H87.0938V78.7297H97.0938Z" fill="#E0426F"/>
<path d="M97.0938 78.7297H164.094L198.594 77.2297M97.0938 78.7297C97.0938 80.2297 97.5938 81.2297 98.5938 82.7297M97.0938 78.7297H87.0938V82.7297H98.5938M198.594 77.2297L199.594 82.7297M198.594 77.2297H213.094L213.594 82.7297H199.594M199.594 82.7297H98.5938" stroke="black" stroke-width="0.5"/>
<path d="M97.0929 78.7297C92.5937 74.2297 89.5938 52.2297 93.5929 35.7297L165.594 31.7297C161.594 36.7297 160.594 70.7297 164.094 78.7297H97.0929Z" fill="#E0426F" stroke="black" stroke-width="0.5"/>
<path d="M229.094 30.7297L165.594 31.7297C161.594 36.7297 160.594 70.7297 164.094 78.7297L198.594 77.2297C203.094 75.7297 209.594 70.2297 229.094 30.7297Z" fill="#E0426F" stroke="black" stroke-width="0.5"/>
<path d="M171.094 30.2298C166.594 30.7298 163.094 30.7298 160.094 30.7298L165.594 8.22981C168.594 7.72974 171.594 7.72974 174.594 8.22981L171.094 30.2298Z" fill="#E0426F" stroke="black" stroke-width="0.5"/>
<path d="M99.5938 32.2297C104.094 37.7297 111.094 34.2297 115.094 32.7297C116.094 17.2296 103.094 25.2296 99.5938 32.2297Z" fill="#E0426F" stroke="black" stroke-width="0.5"/>
<path d="M235.092 9.72974L232.092 13.2297C249.092 18.7297 259.592 21.7297 272.092 28.2297H273.592L281.592 26.7297C266.592 20.2297 259.092 17.7297 235.092 9.72974Z" stroke="black" stroke-width="0.5"/>
<path d="M272.092 28.2297C261.592 22.7297 242.592 16.2297 232.092 13.2297L230.092 15.7297L245.092 23.2297C243.592 25.7297 239.592 27.7297 233.592 30.4297C245.592 29.7297 262.592 28.7297 272.092 28.2297Z" stroke="black" stroke-width="0.5"/>
<path d="M277.594 34.5297L283.592 32.2297L273.093 28.2297L229.093 30.7297C221.593 45.7297 206.593 76.2297 198.593 77.2297H213.093C211.593 66.2297 221.093 42.7297 246.094 51.7297C256.594 46.2297 266.594 40.7297 277.594 34.5297Z" stroke="black" stroke-width="0.5"/>
<path d="M278.592 34.2298C266.592 40.7298 256.592 46.2298 246.092 51.7298C250.592 54.7297 261.092 60.7297 260.092 79.7297L285.092 79.2297V77.7297C293.592 76.7297 302.092 80.2297 300.592 66.2297L302.592 56.2297C302.592 54.7297 300.092 50.7297 297.592 50.2297C299.092 47.7297 296.092 38.7297 296.092 38.7297V37.2297L292.092 34.2297L287.092 32.7297L283.592 32.2297L278.592 34.2298Z" stroke="black" stroke-width="0.5"/>
<path d="M296.092 37.2297L296.086 37.1499M296.086 37.1499L295.592 28.7297L281.592 26.7297L273.092 28.2297L283.592 32.2297C293.092 33.2297 292.091 34.7297 296.086 37.1499Z" stroke="black" stroke-width="0.5"/>
<path d="M294.594 36.7299C294.094 34.2298 283.094 34.0297 277.594 34.5297" stroke="black" stroke-width="0.5"/>
<path d="M300.594 66.7297L261.094 68.7297C260.594 63.7297 258.427 59.5631 256.594 57.7297L302.594 55.2297M301.094 52.7297C290.094 51.2297 279.094 46.4297 267.094 40.4297M229.094 30.7297L273.094 28.2297L281.594 26.7297" stroke="black" stroke-width="0.5"/>
<path d="M273.094 43.2297C280.089 43.5795 286.106 43.6846 291.487 44.2297M298.094 45.2297C295.991 44.7791 293.798 44.4638 291.487 44.2297M296.094 37.7297C295.676 37.1446 295.207 36.6154 294.703 36.1397M291.487 44.2297C291.161 43.885 291.067 43.3619 291.052 42.7297M291.052 42.7297C291.038 42.1395 291.094 41.454 291.094 40.7297C291.094 38.7297 290.094 34.7297 286.594 32.7297C288.815 32.7297 292.191 33.7701 294.703 36.1397M291.052 42.7297C294.094 41.2297 295.166 37.6697 294.703 36.1397" stroke="black" stroke-width="0.5"/>
<path d="M291.094 40.7297C286.594 40.7297 284.594 36.7297 283.594 34.2297" stroke="black" stroke-width="0.5"/>
<path d="M133.092 12.8297C119.592 16.8297 107.592 22.7297 93.5923 35.7297C100.592 23.7297 116.092 14.2297 131.592 9.22974L133.092 12.8297Z" fill="#E0426F" stroke="black" stroke-width="0.5"/>
<path d="M131.592 9.22974C111.592 14.9038 93.5923 32.2297 85.5923 30.2297C98.5923 20.7297 114.592 12.2297 131.092 7.72974L131.592 9.22974Z" fill="#E0426F" stroke="black" stroke-width="0.5"/>
<path d="M10.593 48.2296H4.59295C2.09229 52.2296 2.09229 62.2296 2.59295 65.7296C1.09229 66.7296 1.09288 71.2296 2.09295 72.7296L6.09295 73.2296V74.7296L2.09295 76.7296V78.7296C6.09295 79.7296 14.593 81.7296 22.593 81.2296V79.7296H40.0929C39.4263 71.2296 41.0929 60.7296 50.0929 53.7296C47.5929 49.7296 40.5929 45.2296 37.5929 44.7296C27.5929 43.7296 12.593 46.2296 10.593 48.2296Z" fill="#E0426F" stroke="black" stroke-width="0.5"/>
<path d="M93.5938 35.7297C75.7604 36.5631 44.0938 41.4297 33.5938 44.4297L37.5938 44.7297C42.5938 46.2297 48.0938 50.5631 50.0938 53.7297C63.0928 44.2297 88.5928 51.2297 87.0928 78.7297H97.0928C90.0928 67.7297 91.0928 45.7297 93.5938 35.7297Z" fill="#E0426F" stroke="black" stroke-width="0.5"/>
<path d="M10.5918 48.2298H4.5918C37.092 28.7297 59.092 34.7297 85.0918 30.2297L94.092 35.7297C77.092 36.7297 48.0918 40.2297 34.0918 44.4297C26.0918 44.2297 12.0918 46.2297 10.5918 48.2298Z" fill="#E0426F" stroke="black" stroke-width="0.5"/>
<path d="M37.5937 44.7298C30.0937 43.7297 13.0937 45.7297 10.5937 48.2298C9.79374 50.6298 12.9271 53.5631 14.5937 54.7297C24.0938 56.2297 37.5937 50.2297 37.5937 44.7298Z" fill="#E0426F" stroke="black" stroke-width="0.5"/>
<path d="M4.59298 48.2297C11.593 49.2297 5.59298 59.7297 2.59298 64.7297C2.09291 57.7297 2.59277 52.2297 4.59298 48.2297Z" fill="#E0426F" stroke="black" stroke-width="0.5"/>
<path d="M22.5923 84.2297V79.7297H40.0923L40.5923 84.2297H22.5923Z" fill="#E0426F" stroke="black" stroke-width="0.5"/>
<path d="M3.09375 65.7295C4.59375 68.2295 6.59375 71.3962 6.09375 73.2295M22.5938 79.7295C12.0938 80.2295 7.59375 76.2295 8.59375 72.7295C9.09375 72.2295 10.5938 70.7295 11.5938 70.7295" stroke="black" stroke-width="0.5"/>
<path d="M32.5938 74.7296C30.0938 70.7296 24.5938 65.7297 21.5938 64.2297C19.8437 63.7297 17.2186 63.8547 14.4685 64.2297C12.8436 65.563 11.5938 68.7296 12.0938 71.7296C12.0938 72.8963 13.4012 75.2296 16.0938 75.2296C20.5938 75.2296 27.5938 75.7296 32.5938 74.7296Z" fill="#E0426F"/>
<path d="M6.59375 65.7297C8.84369 65.2297 11.7186 64.6047 14.4685 64.2297M14.4685 64.2297C17.2186 63.8547 19.8437 63.7297 21.5938 64.2297C24.5938 65.7297 30.0938 70.7296 32.5938 74.7296C27.5938 75.7296 20.5938 75.2296 16.0938 75.2296C13.4012 75.2296 12.0938 72.8963 12.0938 71.7296C11.5938 68.7296 12.8436 65.563 14.4685 64.2297Z" stroke="black" stroke-width="0.5"/>
<path d="M12.0938 71.2297C20.0938 69.7297 23.5938 72.3582 26.5938 73.8582M13.5938 74.2297L31.0938 73.7297" stroke="black" stroke-width="0.5"/>
<path d="M22.5918 82.7295H32.0918C34.0918 82.7295 35.5918 80.7295 35.0918 79.7295M38.5918 79.7295V84.2295" stroke="black" stroke-width="0.5"/>
<path d="M22.5937 81.23C18.0937 81.23 13.5937 81.73 2.0937 78.73V76.73L6.0937 74.73V73.23L2.0937 72.73C1.59277 71.2297 0.592969 68.2297 2.59296 65.7297C2.09321 57.7297 2.59321 51.2297 4.5937 48.2295C37.0937 28.7299 59.0937 34.7299 85.0937 30.2299C163.094 -24.7702 245.094 12.2297 282.094 26.7299L295.594 28.7297L296.094 35.7297V38.7297C297.592 43.7297 298.927 48.2297 297.594 50.2297C300.094 51.2297 302.594 54.3964 302.594 56.2297L300.594 66.2297C301.046 77.0776 298.638 77.3019 289.306 77.6144C288.315 77.6476 286.246 77.6817 285.094 77.7297V79.2297L260.094 79.6608M22.5937 81.23V84.23H40.592L40.0937 79.73M22.5937 81.23V79.73H40.0937M40.0937 79.73C37.0937 38.23 90.5937 41.23 87.0937 80.23V82.7297H213.594C207.594 39.2297 262.094 39.2297 260.094 79.6608M259.592 79.6608H260.094" stroke="black"/>
</svg>
