<svg width="304" height="95" viewBox="0 0 304 95" fill="none" xmlns="http://www.w3.org/2000/svg">
<circle cx="63.0518" cy="73.7222" r="20.5" fill="#EDADBF" stroke="black"/>
<circle cx="236.052" cy="73.7222" r="20.5" fill="#EDADBF" stroke="black"/>
<path d="M133.05 12.222L131.55 8.72202C171.55 0.722136 193.05 1.22217 232.05 12.7221L228.55 17.2221C208.55 9.22208 190.55 8.22208 174.55 7.72215C172.05 7.22215 168.05 7.22211 165.55 7.72202C155.55 7.72215 143.55 9.22215 133.05 12.222Z" fill="#E0426F" stroke="black" stroke-width="0.5"/>
<path d="M131.55 8.72221L131.05 7.22221C167.05 -3.77783 199.55 0.222042 235.05 9.22221L232.05 12.7222C192.05 0.222168 166.05 1.72217 131.55 8.72221Z" fill="#E0426F" stroke="black" stroke-width="0.5"/>
<path d="M131.55 8.72228C183.05 -2.77775 211.55 7.22229 232.05 12.7223" stroke="black" stroke-width="0.5"/>
<path d="M171.052 29.7222L174.552 7.72217C208.052 8.72217 219.552 14.2222 224.052 15.7222L226.535 27.7222C199.544 27.7228 182.049 29.2223 171.052 29.7222Z" fill="#E0426F"/>
<path d="M227.052 30.2222L224.052 15.7222C219.552 14.2222 208.052 8.72217 174.552 7.72217L171.052 29.7222C182.052 29.2222 199.552 27.7222 226.552 27.7222" stroke="black" stroke-width="0.5"/>
<path d="M165.552 7.72217C132.552 8.72217 112.552 17.7222 93.5518 35.2222L96.0518 33.2222L160.052 30.2222L165.552 7.72217Z" fill="#E0426F" stroke="black" stroke-width="0.5"/>
<path d="M240.05 22.2222C236.383 19.5555 230.55 17.2222 224.05 15.7222L226.55 27.7222H233.05C236.05 26.2222 239.05 23.9909 240.05 22.2222Z" fill="#E0426F" stroke="black" stroke-width="0.5"/>
<path d="M97.0518 78.2222H164.052L198.552 76.7222H213.052L213.552 82.2222H199.552H98.5518H87.0518V78.2222H97.0518Z" fill="#E0426F"/>
<path d="M97.0518 78.2222H164.052L198.552 76.7222M97.0518 78.2222C97.0518 79.7222 97.5518 80.7222 98.5518 82.2222M97.0518 78.2222H87.0518V82.2222H98.5518M198.552 76.7222L199.552 82.2222M198.552 76.7222H213.052L213.552 82.2222H199.552M199.552 82.2222H98.5518" stroke="black" stroke-width="0.5"/>
<path d="M97.0509 78.2222C92.5518 73.7222 89.5518 51.7222 93.5509 35.2222L165.552 31.2222C161.552 36.2222 160.552 70.2222 164.052 78.2222H97.0509Z" fill="#E0426F" stroke="black" stroke-width="0.5"/>
<path d="M229.052 30.2222L165.552 31.2222C161.552 36.2222 160.552 70.2222 164.052 78.2222L198.552 76.7222C203.052 75.2222 209.552 69.7222 229.052 30.2222Z" fill="#E0426F" stroke="black" stroke-width="0.5"/>
<path d="M171.052 29.7222C166.552 30.2222 163.052 30.2222 160.052 30.2222L165.552 7.72224C168.552 7.22217 171.552 7.22217 174.552 7.72224L171.052 29.7222Z" fill="#E0426F" stroke="black" stroke-width="0.5"/>
<path d="M99.5518 31.7224C104.052 37.2224 111.052 33.7224 115.052 32.2224C116.052 16.7223 103.052 24.7223 99.5518 31.7224Z" fill="#E0426F" stroke="black" stroke-width="0.5"/>
<path d="M235.05 9.22217L232.05 12.7222C249.05 18.2222 259.55 21.2222 272.05 27.7222H273.55L281.55 26.2222C266.55 19.7222 259.05 17.2222 235.05 9.22217Z" fill="#E0426F" stroke="black" stroke-width="0.5"/>
<path d="M272.05 27.7222C261.55 22.2222 242.55 15.7222 232.05 12.7222L230.05 15.2222L245.05 22.7222C243.55 25.2222 239.55 27.2222 233.55 29.9222C245.55 29.2222 262.55 28.2222 272.05 27.7222Z" fill="#E0426F" stroke="black" stroke-width="0.5"/>
<path d="M277.552 34.0222L283.55 31.7222L273.051 27.7222L229.051 30.2222C221.551 45.2222 206.551 75.7222 198.551 76.7222H213.051C211.551 65.7222 221.051 42.2222 246.052 51.2222C256.552 45.7222 266.552 40.2222 277.552 34.0222Z" fill="#E0426F" stroke="black" stroke-width="0.5"/>
<path d="M278.55 33.7222C266.55 40.2222 256.55 45.7222 246.05 51.2222C250.55 54.2222 261.05 60.2222 260.05 79.2222L285.05 78.7222V77.2222C293.55 76.2222 302.05 79.7222 300.55 65.7222L302.55 55.7222C302.55 54.2222 300.05 50.2222 297.55 49.7222C299.05 47.2222 296.05 38.2222 296.05 38.2222V36.7222L292.05 33.7222L287.05 32.2222L283.55 31.7222L278.55 33.7222Z" fill="#E0426F" stroke="black" stroke-width="0.5"/>
<path d="M281.55 26.2222L273.05 27.7222L283.55 31.7222C293.05 32.7222 292.049 34.2222 296.044 36.6423L295.55 28.2222L281.55 26.2222Z" fill="#E0426F"/>
<path d="M296.05 36.7222L296.044 36.6423M296.044 36.6423L295.55 28.2222L281.55 26.2222L273.05 27.7222L283.55 31.7222C293.05 32.7222 292.049 34.2222 296.044 36.6423Z" stroke="black" stroke-width="0.5"/>
<path d="M294.552 36.2224C294.052 33.7223 283.052 33.5222 277.552 34.0222" stroke="black" stroke-width="0.5"/>
<path d="M300.552 66.2222L261.052 68.2222C260.552 63.2222 258.385 59.0555 256.552 57.2222L302.552 54.7222M301.052 52.2222C290.052 50.7222 279.052 45.9222 267.052 39.9222M229.052 30.2222L273.052 27.7222L281.552 26.2222" stroke="black" stroke-width="0.5"/>
<path d="M291.052 40.2222C291.052 38.2222 290.052 34.2222 286.552 32.2222C288.773 32.2222 292.149 33.2626 294.661 35.6322C295.124 37.1622 294.052 40.7222 291.01 42.2222C290.996 41.6319 291.052 40.9465 291.052 40.2222Z" fill="#E0426F"/>
<path d="M273.052 42.7222C280.047 43.072 286.064 43.177 291.445 43.7222M298.052 44.7222C295.949 44.2715 293.756 43.9563 291.445 43.7222M296.052 37.2222C295.634 36.637 295.165 36.1078 294.661 35.6322M291.445 43.7222C291.119 43.3774 291.025 42.8544 291.01 42.2222M291.01 42.2222C290.996 41.6319 291.052 40.9465 291.052 40.2222C291.052 38.2222 290.052 34.2222 286.552 32.2222C288.773 32.2222 292.149 33.2626 294.661 35.6322M291.01 42.2222C294.052 40.7222 295.124 37.1622 294.661 35.6322" stroke="black" stroke-width="0.5"/>
<path d="M291.052 40.2222C286.552 40.2222 284.552 36.2222 283.552 33.7222" stroke="black" stroke-width="0.5"/>
<path d="M133.05 12.3221C119.55 16.3221 107.55 22.2222 93.5498 35.2222C100.55 23.2222 116.05 13.7222 131.55 8.72217L133.05 12.3221Z" fill="#EFC7D3" stroke="black" stroke-width="0.5"/>
<path d="M131.55 8.72217C111.55 14.3962 93.5498 31.7222 85.5498 29.7222C98.5498 20.2222 114.55 11.7222 131.05 7.22217L131.55 8.72217Z" fill="#EFC7D3" stroke="black" stroke-width="0.5"/>
<path d="M10.5505 47.7221H4.55047C2.0498 51.722 2.0498 61.722 2.55047 65.222C1.0498 66.222 1.0504 70.722 2.05047 72.222L6.05047 72.722V74.222L2.05047 76.222V78.222C6.05047 79.222 14.5505 81.222 22.5505 80.722V79.222H40.0505C39.3838 70.722 41.0505 60.222 50.0505 53.222C47.5505 49.222 40.5505 44.722 37.5505 44.2221C27.5505 43.222 12.5505 45.7221 10.5505 47.7221Z" fill="#EFC7D3" stroke="black" stroke-width="0.5"/>
<path d="M93.5518 35.2222C75.7184 36.0555 44.0518 40.9222 33.5518 43.9222L37.5518 44.2222C42.5518 45.7222 48.0518 50.0555 50.0518 53.2222C63.0508 43.7222 88.5508 50.7222 87.0508 78.2222H97.0508C90.0508 67.2222 91.0508 45.2222 93.5518 35.2222Z" fill="#EFC7D3" stroke="black" stroke-width="0.5"/>
<path d="M10.5498 47.7222H4.5498C37.05 28.2221 59.05 34.2222 85.0498 29.7222L94.05 35.2222C77.05 36.2222 48.0498 39.7222 34.0498 43.9222C26.0498 43.7222 12.0498 45.7222 10.5498 47.7222Z" fill="#EFC7D3" stroke="black" stroke-width="0.5"/>
<path d="M37.5513 44.2222C30.0513 43.2222 13.0513 45.2222 10.5513 47.7222C9.75126 50.1222 12.8846 53.0555 14.5513 54.2222C24.0513 55.7222 37.5513 49.7222 37.5513 44.2222Z" fill="#EFC7D3" stroke="black" stroke-width="0.5"/>
<path d="M4.5505 47.7222C11.5505 48.7222 5.5505 59.2222 2.5505 64.2222C2.05043 57.2222 2.55029 51.7222 4.5505 47.7222Z" fill="#EFC7D3" stroke="black" stroke-width="0.5"/>
<path d="M22.5498 83.7222V79.2222H40.0498L40.5498 83.7222H22.5498Z" fill="#EFC7D3" stroke="black" stroke-width="0.5"/>
<path d="M3.05176 65.2222C4.55176 67.7222 6.55176 70.8888 6.05176 72.7222M22.5518 79.2222C12.0518 79.7222 7.55176 75.7222 8.55176 72.2222C9.05176 71.7222 10.5518 70.2222 11.5518 70.2222" stroke="black" stroke-width="0.5"/>
<path d="M32.5518 74.2223C30.0518 70.2223 24.5518 65.2224 21.5518 63.7224C19.8017 63.2224 17.1766 63.3474 14.4265 63.7224C12.8016 65.0557 11.5518 68.2223 12.0518 71.2223C12.0518 72.389 13.3592 74.7223 16.0518 74.7223C20.5518 74.7223 27.5518 75.2223 32.5518 74.2223Z" fill="#EFC7D3"/>
<path d="M6.55176 65.2224C8.8017 64.7223 11.6766 64.0974 14.4265 63.7224M14.4265 63.7224C17.1766 63.3474 19.8017 63.2224 21.5518 63.7224C24.5518 65.2224 30.0518 70.2223 32.5518 74.2223C27.5518 75.2223 20.5518 74.7223 16.0518 74.7223C13.3592 74.7223 12.0518 72.389 12.0518 71.2223C11.5518 68.2223 12.8016 65.0557 14.4265 63.7224Z" stroke="black" stroke-width="0.5"/>
<path d="M12.0518 70.7224C20.0518 69.2224 23.5518 71.8509 26.5518 73.3509M13.5518 73.7224L31.0518 73.2224" stroke="black" stroke-width="0.5"/>
<path d="M22.5498 82.2222H32.0498C34.0498 82.2222 35.5498 80.2222 35.0498 79.2222M38.5498 79.2222V83.7222" stroke="black" stroke-width="0.5"/>
<path d="M22.5517 80.7224C18.0517 80.7224 13.5517 81.2224 2.0517 78.2224V76.2224L6.0517 74.2224V72.7224L2.0517 72.2224C1.55078 70.7222 0.550977 67.7222 2.55097 65.2222C2.05122 57.2222 2.55122 50.7222 4.5517 47.7219C37.0517 28.2223 59.0517 34.2224 85.0517 29.7224C163.052 -25.2778 245.052 11.7222 282.052 26.2223L295.552 28.2222L296.052 35.2222V38.2222C297.55 43.2222 298.885 47.7222 297.552 49.7222C300.052 50.7222 302.552 53.8888 302.552 55.7222L300.552 65.7222C301.004 76.5701 298.596 76.7944 289.264 77.1068C288.273 77.14 286.204 77.1742 285.052 77.2222V78.7222L260.052 79.1532M22.5517 80.7224V83.7224H40.55L40.0517 79.2224M22.5517 80.7224V79.2224H40.0517M40.0517 79.2224C37.0517 37.7224 90.5517 40.7224 87.0517 79.7224V82.2222H213.552C207.552 38.7222 262.052 38.7222 260.052 79.1532M259.55 79.1532H260.052" stroke="black"/>
</svg>
