<svg width="303" height="95" viewBox="0 0 303 95" fill="none" xmlns="http://www.w3.org/2000/svg">
<circle cx="62.458" cy="73.7222" r="20.5" fill="#E0426F" stroke="black"/>
<circle cx="235.458" cy="73.7222" r="20.5" fill="#E0426F" stroke="black"/>
<path d="M132.456 12.222L130.956 8.72202C170.956 0.722136 192.456 1.22217 231.456 12.7221L227.956 17.2221C207.956 9.22208 189.956 8.22208 173.956 7.72215C171.456 7.22215 167.456 7.22211 164.956 7.72202C154.956 7.72215 142.956 9.22215 132.456 12.222Z" fill="#E0426F" stroke="black" stroke-width="0.5"/>
<path d="M130.956 8.72221L130.456 7.22221C166.456 -3.77783 198.956 0.222042 234.456 9.22221L231.456 12.7222C191.456 0.222168 165.456 1.72217 130.956 8.72221Z" fill="#E0426F" stroke="black" stroke-width="0.5"/>
<path d="M130.956 8.72228C182.456 -2.77775 210.956 7.22229 231.456 12.7223" stroke="black" stroke-width="0.5"/>
<path d="M170.458 29.7222L173.958 7.72217C207.458 8.72217 218.958 14.2222 223.458 15.7222L225.941 27.7222C198.951 27.7228 181.456 29.2223 170.458 29.7222Z" fill="#E0426F"/>
<path d="M226.458 30.2222L223.458 15.7222C218.958 14.2222 207.458 8.72217 173.958 7.72217L170.458 29.7222C181.458 29.2222 198.958 27.7222 225.958 27.7222" stroke="black" stroke-width="0.5"/>
<path d="M164.958 7.72217C131.958 8.72217 111.958 17.7222 92.958 35.2222L95.458 33.2222L159.458 30.2222L164.958 7.72217Z" fill="#E0426F" stroke="black" stroke-width="0.5"/>
<path d="M239.456 22.2222C235.789 19.5555 229.956 17.2222 223.456 15.7222L225.956 27.7222H232.456C235.456 26.2222 238.456 23.9909 239.456 22.2222Z" fill="#E0426F" stroke="black" stroke-width="0.5"/>
<path d="M96.458 78.2222H163.458L197.958 76.7222H212.458L212.958 82.2222H198.958H97.958H86.458V78.2222H96.458Z" fill="#E0426F"/>
<path d="M96.458 78.2222H163.458L197.958 76.7222M96.458 78.2222C96.458 79.7222 96.958 80.7222 97.958 82.2222M96.458 78.2222H86.458V82.2222H97.958M197.958 76.7222L198.958 82.2222M197.958 76.7222H212.458L212.958 82.2222H198.958M198.958 82.2222H97.958" stroke="black" stroke-width="0.5"/>
<path d="M96.4571 78.2222C91.958 73.7222 88.9581 51.7222 92.9571 35.2222L164.958 31.2222C160.958 36.2222 159.958 70.2222 163.458 78.2222H96.4571Z" fill="#E0426F" stroke="black" stroke-width="0.5"/>
<path d="M228.458 30.2222L164.958 31.2222C160.958 36.2222 159.958 70.2222 163.458 78.2222L197.958 76.7222C202.458 75.2222 208.958 69.7222 228.458 30.2222Z" fill="#E0426F" stroke="black" stroke-width="0.5"/>
<path d="M170.458 29.7222C165.958 30.2222 162.458 30.2222 159.458 30.2222L164.958 7.72224C167.958 7.22217 170.958 7.22217 173.958 7.72224L170.458 29.7222Z" fill="#E0426F" stroke="black" stroke-width="0.5"/>
<path d="M98.958 31.7224C103.458 37.2224 110.458 33.7224 114.458 32.2224C115.458 16.7223 102.458 24.7223 98.958 31.7224Z" fill="#E0426F" stroke="black" stroke-width="0.5"/>
<path d="M234.456 9.22217L231.456 12.7222C248.456 18.2222 258.956 21.2222 271.456 27.7222H272.956L280.956 26.2222C265.956 19.7222 258.456 17.2222 234.456 9.22217Z" fill="#E56E90" stroke="black" stroke-width="0.5"/>
<path d="M271.456 27.7222C260.956 22.2222 241.956 15.7222 231.456 12.7222L229.456 15.2222L244.456 22.7222C242.956 25.2222 238.956 27.2222 232.956 29.9222C244.956 29.2222 261.956 28.2222 271.456 27.7222Z" fill="#E56E90" stroke="black" stroke-width="0.5"/>
<path d="M276.958 34.0222L282.956 31.7222L272.457 27.7222L228.457 30.2222C220.957 45.2222 205.957 75.7222 197.957 76.7222H212.457C210.957 65.7222 220.457 42.2222 245.458 51.2222C255.958 45.7222 265.958 40.2222 276.958 34.0222Z" fill="#E56E90" stroke="black" stroke-width="0.5"/>
<path d="M277.956 33.7222C265.956 40.2222 255.956 45.7222 245.456 51.2222C249.956 54.2222 260.456 60.2222 259.456 79.2222L284.456 78.7222V77.2222C292.956 76.2222 301.456 79.7222 299.956 65.7222L301.956 55.7222C301.956 54.2222 299.456 50.2222 296.956 49.7222C298.456 47.2222 295.456 38.2222 295.456 38.2222V36.7222L291.456 33.7222L286.456 32.2222L282.956 31.7222L277.956 33.7222Z" fill="#E56E90" stroke="black" stroke-width="0.5"/>
<path d="M280.956 26.2222L272.456 27.7222L282.956 31.7222C292.456 32.7222 291.455 34.2222 295.45 36.6423L294.956 28.2222L280.956 26.2222Z" fill="#E56E90"/>
<path d="M295.456 36.7222L295.45 36.6423M295.45 36.6423L294.956 28.2222L280.956 26.2222L272.456 27.7222L282.956 31.7222C292.456 32.7222 291.455 34.2222 295.45 36.6423Z" stroke="black" stroke-width="0.5"/>
<path d="M293.958 36.2224C293.458 33.7223 282.458 33.5222 276.958 34.0222" stroke="black" stroke-width="0.5"/>
<path d="M299.958 66.2222L260.458 68.2222C259.958 63.2222 257.791 59.0555 255.958 57.2222L301.958 54.7222M300.458 52.2222C289.458 50.7222 278.458 45.9222 266.458 39.9222M228.458 30.2222L272.458 27.7222L280.958 26.2222" stroke="black" stroke-width="0.5"/>
<path d="M290.458 40.2222C290.458 38.2222 289.458 34.2222 285.958 32.2222C288.179 32.2222 291.556 33.2626 294.067 35.6322C294.531 37.1622 293.458 40.7222 290.416 42.2222C290.403 41.6319 290.458 40.9465 290.458 40.2222Z" fill="#E56E90"/>
<path d="M272.458 42.7222C279.454 43.072 285.471 43.177 290.851 43.7222M297.458 44.7222C295.355 44.2715 293.162 43.9563 290.851 43.7222M295.458 37.2222C295.04 36.637 294.571 36.1078 294.067 35.6322M290.851 43.7222C290.525 43.3774 290.431 42.8544 290.416 42.2222M290.416 42.2222C290.403 41.6319 290.458 40.9465 290.458 40.2222C290.458 38.2222 289.458 34.2222 285.958 32.2222C288.179 32.2222 291.556 33.2626 294.067 35.6322M290.416 42.2222C293.458 40.7222 294.531 37.1622 294.067 35.6322" stroke="black" stroke-width="0.5"/>
<path d="M290.458 40.2222C285.958 40.2222 283.958 36.2222 282.958 33.7222" stroke="black" stroke-width="0.5"/>
<path d="M132.456 12.3221C118.956 16.3221 106.956 22.2222 92.9561 35.2222C99.9561 23.2222 115.456 13.7222 130.956 8.72217L132.456 12.3221Z" fill="#EFC7D3" stroke="black" stroke-width="0.5"/>
<path d="M130.956 8.72217C110.956 14.3962 92.9561 31.7222 84.9561 29.7222C97.9561 20.2222 113.956 11.7222 130.456 7.22217L130.956 8.72217Z" fill="#EFC7D3" stroke="black" stroke-width="0.5"/>
<path d="M9.95672 47.7221H3.95672C1.45605 51.722 1.45605 61.722 1.95672 65.222C0.456055 66.222 0.456652 70.722 1.45672 72.222L5.45672 72.722V74.222L1.45672 76.222V78.222C5.45672 79.222 13.9567 81.222 21.9567 80.722V79.222H39.4567C38.7901 70.722 40.4567 60.222 49.4567 53.222C46.9567 49.222 39.9567 44.722 36.9567 44.2221C26.9567 43.222 11.9567 45.7221 9.95672 47.7221Z" fill="#EFC7D3" stroke="black" stroke-width="0.5"/>
<path d="M92.958 35.2222C75.1247 36.0555 43.458 40.9222 32.958 43.9222L36.958 44.2222C41.958 45.7222 47.458 50.0555 49.458 53.2222C62.457 43.7222 87.957 50.7222 86.457 78.2222H96.457C89.457 67.2222 90.457 45.2222 92.958 35.2222Z" fill="#EFC7D3" stroke="black" stroke-width="0.5"/>
<path d="M9.95606 47.7222H3.95605C36.4562 28.2221 58.4563 34.2222 84.4561 29.7222L93.4563 35.2222C76.4563 36.2222 47.4561 39.7222 33.4561 43.9222C25.4561 43.7222 11.4561 45.7222 9.95606 47.7222Z" fill="#EFC7D3" stroke="black" stroke-width="0.5"/>
<path d="M36.9575 44.2222C29.4575 43.2222 12.4575 45.2222 9.95751 47.7222C9.15751 50.1222 12.2908 53.0555 13.9575 54.2222C23.4575 55.7222 36.9575 49.7222 36.9575 44.2222Z" fill="#EFC7D3" stroke="black" stroke-width="0.5"/>
<path d="M3.95675 47.7222C10.9568 48.7222 4.95675 59.2222 1.95675 64.2222C1.45668 57.2222 1.95654 51.7222 3.95675 47.7222Z" fill="#EFC7D3" stroke="black" stroke-width="0.5"/>
<path d="M21.9561 83.7222V79.2222H39.4561L39.9561 83.7222H21.9561Z" fill="#EFC7D3" stroke="black" stroke-width="0.5"/>
<path d="M2.45801 65.2222C3.95801 67.7222 5.95801 70.8888 5.45801 72.7222M21.958 79.2222C11.458 79.7222 6.95801 75.7222 7.95801 72.2222C8.45801 71.7222 9.95801 70.2222 10.958 70.2222" stroke="black" stroke-width="0.5"/>
<path d="M31.958 74.2223C29.458 70.2223 23.958 65.2224 20.958 63.7224C19.208 63.2224 16.5829 63.3474 13.8328 63.7224C12.2079 65.0557 10.958 68.2223 11.458 71.2223C11.458 72.389 12.7654 74.7223 15.458 74.7223C19.958 74.7223 26.958 75.2223 31.958 74.2223Z" fill="#EFC7D3"/>
<path d="M5.95801 65.2224C8.20795 64.7223 11.0829 64.0974 13.8328 63.7224M13.8328 63.7224C16.5829 63.3474 19.208 63.2224 20.958 63.7224C23.958 65.2224 29.458 70.2223 31.958 74.2223C26.958 75.2223 19.958 74.7223 15.458 74.7223C12.7654 74.7223 11.458 72.389 11.458 71.2223C10.958 68.2223 12.2079 65.0557 13.8328 63.7224Z" stroke="black" stroke-width="0.5"/>
<path d="M11.458 70.7224C19.458 69.2224 22.958 71.8509 25.958 73.3509M12.958 73.7224L30.458 73.2224" stroke="black" stroke-width="0.5"/>
<path d="M21.9561 82.2222H31.4561C33.4561 82.2222 34.9561 80.2222 34.4561 79.2222M37.9561 79.2222V83.7222" stroke="black" stroke-width="0.5"/>
<path d="M21.958 80.7224C17.458 80.7224 12.958 81.2224 1.45795 78.2224V76.2224L5.45795 74.2224V72.7224L1.45795 72.2224C0.957031 70.7222 -0.0427729 67.7222 1.95722 65.2222C1.45747 57.2222 1.95747 50.7222 3.95795 47.7219C36.458 28.2223 58.4579 34.2224 84.4579 29.7224C162.458 -25.2778 244.458 11.7222 281.458 26.2223L294.958 28.2222L295.458 35.2222V38.2222C296.956 43.2222 298.291 47.7222 296.958 49.7222C299.458 50.7222 301.958 53.8888 301.958 55.7222L299.958 65.7222C300.41 76.5701 298.002 76.7944 288.67 77.1068C287.679 77.14 285.61 77.1742 284.458 77.2222V78.7222L259.458 79.1532M21.958 80.7224V83.7224H39.9563L39.458 79.2224M21.958 80.7224V79.2224H39.458M39.458 79.2224C36.458 37.7224 89.9579 40.7224 86.4579 79.7224V82.2222H212.958C206.958 38.7222 261.458 38.7222 259.458 79.1532M258.956 79.1532H259.458" stroke="black"/>
</svg>
