<svg width="304" height="95" viewBox="0 0 304 95" fill="none" xmlns="http://www.w3.org/2000/svg">
<circle cx="63.0742" cy="73.8459" r="20.5" fill="#EDADBF" stroke="black"/>
<circle cx="236.074" cy="73.8459" r="20.5" fill="#EDADBF" stroke="black"/>
<path d="M133.072 12.3458L131.572 8.8458C171.572 0.845915 193.072 1.34595 232.072 12.8459L228.572 17.3459C208.572 9.34586 190.572 8.34586 174.572 7.84592C172.072 7.34592 168.072 7.34589 165.572 7.8458C155.572 7.84592 143.572 9.34592 133.072 12.3458Z" stroke="black" stroke-width="0.5"/>
<path d="M131.572 8.84599L131.072 7.34599C167.072 -3.65405 199.572 0.345821 235.072 9.34599L232.072 12.846C192.072 0.345947 166.072 1.84595 131.572 8.84599Z" stroke="black" stroke-width="0.5"/>
<path d="M131.572 8.84593C183.072 -2.65409 211.572 7.34595 232.072 12.8459" stroke="black" stroke-width="0.5"/>
<path d="M227.074 30.3459L224.074 15.8459C219.574 14.3459 208.074 8.84595 174.574 7.84595L171.074 29.8459C182.074 29.3459 199.574 27.8459 226.574 27.8459" stroke="black" stroke-width="0.5"/>
<path d="M165.574 7.84595C132.574 8.84595 112.574 17.8459 93.5742 35.3459L96.0742 33.3459L160.074 30.3459L165.574 7.84595Z" stroke="black" stroke-width="0.5"/>
<path d="M240.072 22.3459C236.406 19.6793 230.572 17.3459 224.072 15.8459L226.572 27.8459H233.072C236.072 26.3459 239.072 24.1147 240.072 22.3459Z" stroke="black" stroke-width="0.5"/>
<path d="M97.0742 78.3459H164.074L198.574 76.8459M97.0742 78.3459C97.0742 79.8459 97.5742 80.8459 98.5742 82.3459M97.0742 78.3459H87.0742V82.3459H98.5742M198.574 76.8459L199.574 82.3459M198.574 76.8459H213.074L213.574 82.3459H199.574M199.574 82.3459H98.5742" stroke="black" stroke-width="0.5"/>
<path d="M97.0733 78.3459C92.5742 73.8459 89.5743 51.8459 93.5733 35.3459L165.574 31.3459C161.574 36.3459 160.574 70.3459 164.074 78.3459H97.0733Z" stroke="black" stroke-width="0.5"/>
<path d="M229.074 30.3459L165.574 31.3459C161.574 36.3459 160.574 70.3459 164.074 78.3459L198.574 76.8459C203.074 75.3459 209.574 69.8459 229.074 30.3459Z" stroke="black" stroke-width="0.5"/>
<path d="M171.074 29.846C166.574 30.346 163.074 30.346 160.074 30.346L165.574 7.84602C168.574 7.34595 171.574 7.34595 174.574 7.84602L171.074 29.846Z" stroke="black" stroke-width="0.5"/>
<path d="M99.5742 31.8461C104.074 37.3461 111.074 33.8461 115.074 32.3461C116.074 16.846 103.074 24.8459 99.5742 31.8461Z" stroke="black" stroke-width="0.5"/>
<path d="M235.072 9.34595L232.072 12.8459C249.072 18.3459 259.572 21.3459 272.072 27.8459H273.572L281.572 26.3459C266.572 19.8459 259.072 17.3459 235.072 9.34595Z" fill="#EDADBF" stroke="black" stroke-width="0.5"/>
<path d="M272.072 27.8459C261.572 22.3459 242.572 15.8459 232.072 12.8459L230.072 15.3459L245.072 22.8459C243.572 25.3459 239.572 27.3459 233.572 30.0459C245.572 29.3459 262.572 28.3459 272.072 27.8459Z" fill="#EDADBF" stroke="black" stroke-width="0.5"/>
<path d="M277.574 34.1459L283.573 31.8459L273.073 27.8459L229.073 30.3459C221.573 45.3459 206.573 75.8459 198.573 76.8459H213.073C211.573 65.8459 221.073 42.3459 246.074 51.3459C256.574 45.8459 266.574 40.3459 277.574 34.1459Z" fill="#EDADBF" stroke="black" stroke-width="0.5"/>
<path d="M278.572 33.846C266.572 40.346 256.572 45.846 246.072 51.346C250.572 54.3459 261.072 60.3459 260.072 79.3459L285.072 78.8459V77.3459C293.572 76.3459 302.072 79.8459 300.572 65.8459L302.572 55.8459C302.572 54.3459 300.072 50.3459 297.572 49.8459C299.072 47.3459 296.072 38.3459 296.072 38.3459V36.8459L292.072 33.8459L287.072 32.3459L283.572 31.8459L278.572 33.846Z" fill="#EDADBF" stroke="black" stroke-width="0.5"/>
<path d="M281.572 26.3459L273.072 27.8459L283.572 31.8459C293.072 32.8459 292.071 34.3459 296.066 36.7661L295.572 28.3459L281.572 26.3459Z" fill="#EDADBF"/>
<path d="M296.072 36.8459L296.066 36.7661M296.066 36.7661L295.572 28.3459L281.572 26.3459L273.072 27.8459L283.572 31.8459C293.072 32.8459 292.071 34.3459 296.066 36.7661Z" stroke="black" stroke-width="0.5"/>
<path d="M294.574 36.3461C294.074 33.846 283.074 33.646 277.574 34.146" stroke="black" stroke-width="0.5"/>
<path d="M300.574 66.3459L261.074 68.3459C260.574 63.3459 258.408 59.1793 256.574 57.3459L302.574 54.8459M301.074 52.3459C290.074 50.8459 279.074 46.0459 267.074 40.0459M229.074 30.3459L273.074 27.8459L281.574 26.3459" stroke="black" stroke-width="0.5"/>
<path d="M291.074 40.3459C291.074 38.3459 290.074 34.3459 286.574 32.3459C288.795 32.3459 292.172 33.3863 294.683 35.7559C295.147 37.2859 294.074 40.8459 291.032 42.3459C291.019 41.7557 291.074 41.0702 291.074 40.3459Z" fill="#EDADBF"/>
<path d="M273.074 42.8459C280.07 43.1957 286.087 43.3008 291.467 43.8459M298.074 44.8459C295.971 44.3953 293.778 44.08 291.467 43.8459M296.074 37.3459C295.656 36.7608 295.187 36.2316 294.683 35.7559M291.467 43.8459C291.141 43.5012 291.047 42.9781 291.032 42.3459M291.032 42.3459C291.019 41.7557 291.074 41.0702 291.074 40.3459C291.074 38.3459 290.074 34.3459 286.574 32.3459C288.795 32.3459 292.172 33.3863 294.683 35.7559M291.032 42.3459C294.074 40.8459 295.147 37.2859 294.683 35.7559" stroke="black" stroke-width="0.5"/>
<path d="M291.074 40.3459C286.574 40.3459 284.574 36.3459 283.574 33.8459" stroke="black" stroke-width="0.5"/>
<path d="M133.072 12.4459C119.572 16.4459 107.572 22.3459 93.5723 35.3459C100.572 23.3459 116.072 13.8459 131.572 8.84595L133.072 12.4459Z" fill="#E0426F" stroke="black" stroke-width="0.5"/>
<path d="M131.572 8.84595C111.572 14.52 93.5723 31.8459 85.5723 29.8459C98.5723 20.3459 114.572 11.8459 131.072 7.34595L131.572 8.84595Z" fill="#E0426F" stroke="black" stroke-width="0.5"/>
<path d="M10.5729 47.846H4.57293C2.07227 51.8459 2.07227 61.8459 2.57293 65.3459C1.07227 66.3459 1.07286 70.8459 2.07293 72.3459L6.07293 72.8459V74.3459L2.07293 76.3459V78.3459C6.07293 79.3459 14.5729 81.3459 22.5729 80.8459V79.3459H40.0729C39.4063 70.8459 41.0729 60.3459 50.0729 53.3459C47.5729 49.3459 40.5729 44.8459 37.5729 44.346C27.5729 43.3459 12.5729 45.846 10.5729 47.846Z" fill="#E0426F" stroke="black" stroke-width="0.5"/>
<path d="M93.5742 35.3459C75.7409 36.1793 44.0742 41.0459 33.5742 44.0459L37.5742 44.3459C42.5742 45.8459 48.0742 50.1793 50.0742 53.3459C63.0732 43.8459 88.5732 50.8459 87.0732 78.3459H97.0732C90.0732 67.3459 91.0732 45.3459 93.5742 35.3459Z" fill="#E0426F" stroke="black" stroke-width="0.5"/>
<path d="M10.5723 47.846H4.57227C37.0724 28.3459 59.0725 34.3459 85.0723 29.8459L94.0725 35.3459C77.0725 36.3459 48.0723 39.8459 34.0723 44.046C26.0723 43.8459 12.0723 45.8459 10.5723 47.846Z" fill="#E0426F" stroke="black" stroke-width="0.5"/>
<path d="M37.5737 44.346C30.0737 43.3459 13.0737 45.3459 10.5737 47.846C9.77372 50.246 12.9071 53.1793 14.5737 54.3459C24.0737 55.8459 37.5737 49.8459 37.5737 44.346Z" fill="#E0426F" stroke="black" stroke-width="0.5"/>
<path d="M4.57296 47.8459C11.573 48.8459 5.57296 59.3459 2.57296 64.3459C2.07289 57.3459 2.57275 51.8459 4.57296 47.8459Z" fill="#E0426F" stroke="black" stroke-width="0.5"/>
<path d="M22.5723 83.8459V79.3459H40.0723L40.5723 83.8459H22.5723Z" fill="#E0426F" stroke="black" stroke-width="0.5"/>
<path d="M3.07422 65.3459C4.57422 67.8459 6.57422 71.0126 6.07422 72.8459M22.5742 79.3459C12.0742 79.8459 7.57422 75.8459 8.57422 72.3459C9.07422 71.8459 10.5742 70.3459 11.5742 70.3459" stroke="black" stroke-width="0.5"/>
<path d="M32.5742 74.3459C30.0742 70.3459 24.5742 65.346 21.5742 63.846C19.8242 63.346 17.1991 63.471 14.449 63.846C12.8241 65.1793 11.5742 68.3459 12.0742 71.3459C12.0742 72.5126 13.3816 74.8459 16.0742 74.8459C20.5742 74.8459 27.5742 75.3459 32.5742 74.3459Z" fill="#E0426F"/>
<path d="M6.57422 65.346C8.82416 64.846 11.6991 64.221 14.449 63.846M14.449 63.846C17.1991 63.471 19.8242 63.346 21.5742 63.846C24.5742 65.346 30.0742 70.3459 32.5742 74.3459C27.5742 75.3459 20.5742 74.8459 16.0742 74.8459C13.3816 74.8459 12.0742 72.5126 12.0742 71.3459C11.5742 68.3459 12.8241 65.1793 14.449 63.846Z" stroke="black" stroke-width="0.5"/>
<path d="M12.0742 70.846C20.0742 69.3461 23.5742 71.9745 26.5742 73.4745M13.5742 73.8461L31.0742 73.3461" stroke="black" stroke-width="0.5"/>
<path d="M22.5723 82.3459H32.0723C34.0723 82.3459 35.5723 80.3459 35.0723 79.3459M38.5723 79.3459V83.8459" stroke="black" stroke-width="0.5"/>
<path d="M22.5742 80.8462C18.0742 80.8462 13.5742 81.3462 2.07416 78.3462V76.3462L6.07417 74.3462V72.8462L2.07416 72.3462C1.57324 70.8459 0.573438 67.8459 2.57343 65.3459C2.07368 57.3459 2.57368 50.8459 4.57417 47.8457C37.0742 28.3461 59.0742 34.3461 85.0742 29.8461C163.074 -25.154 245.074 11.8459 282.074 26.3461L295.574 28.3459L296.074 35.3459V38.3459C297.573 43.3459 298.908 47.8459 297.574 49.8459C300.074 50.8459 302.574 54.0126 302.574 55.8459L300.574 65.8459C301.026 76.6939 298.618 76.9181 289.286 77.2306C288.295 77.2638 286.226 77.2979 285.074 77.3459V78.8459L260.074 79.277M22.5742 80.8462V83.8462H40.5725L40.0742 79.3462M22.5742 80.8462V79.3462H40.0742M40.0742 79.3462C37.0742 37.8462 90.5742 40.8462 87.0742 79.8462V82.3459H213.574C207.574 38.8459 262.074 38.8459 260.074 79.277M259.573 79.277H260.074" stroke="black"/>
</svg>
