<svg width="303" height="95" viewBox="0 0 303 95" fill="none" xmlns="http://www.w3.org/2000/svg">
<circle cx="62.2915" cy="73.8611" r="20.5" fill="#E56E90" stroke="black"/>
<circle cx="235.292" cy="73.8611" r="20.5" fill="#E56E90" stroke="black"/>
<path d="M132.29 12.3609L130.79 8.86094C170.79 0.861052 192.29 1.36108 231.29 12.861L227.79 17.361C207.79 9.36099 189.79 8.36099 173.79 7.86106C171.29 7.36106 167.29 7.36102 164.79 7.86094C154.79 7.86106 142.79 9.36106 132.29 12.3609Z" fill="#EDADBF" stroke="black" stroke-width="0.5"/>
<path d="M130.79 8.86113L130.29 7.36113C166.29 -3.63892 198.79 0.360958 234.29 9.36113L231.29 12.8611C191.29 0.361084 165.29 1.86108 130.79 8.86113Z" fill="#EDADBF" stroke="black" stroke-width="0.5"/>
<path d="M130.79 8.86095C182.29 -2.63908 210.79 7.36096 231.29 12.8609" stroke="black" stroke-width="0.5"/>
<path d="M170.292 29.8611L173.792 7.86108C207.292 8.86108 218.792 14.3611 223.292 15.8611L225.774 27.8611C198.784 27.8617 181.289 29.3612 170.292 29.8611Z" fill="#EDADBF"/>
<path d="M226.292 30.3611L223.292 15.8611C218.792 14.3611 207.292 8.86108 173.792 7.86108L170.292 29.8611C181.292 29.3611 198.792 27.8611 225.792 27.8611" stroke="black" stroke-width="0.5"/>
<path d="M164.792 7.86108C131.792 8.86108 111.792 17.8611 92.7915 35.3611L95.2915 33.3611L159.292 30.3611L164.792 7.86108Z" fill="#EDADBF" stroke="black" stroke-width="0.5"/>
<path d="M239.29 22.3611C235.623 19.6944 229.79 17.3611 223.29 15.8611L225.79 27.8611H232.29C235.29 26.3611 238.29 24.1298 239.29 22.3611Z" fill="#EDADBF" stroke="black" stroke-width="0.5"/>
<path d="M96.2915 78.3611H163.292L197.792 76.8611H212.292L212.792 82.3611H198.792H97.7915H86.2915V78.3611H96.2915Z" fill="#EDADBF"/>
<path d="M96.2915 78.3611H163.292L197.792 76.8611M96.2915 78.3611C96.2915 79.8611 96.7915 80.8611 97.7915 82.3611M96.2915 78.3611H86.2915V82.3611H97.7915M197.792 76.8611L198.792 82.3611M197.792 76.8611H212.292L212.792 82.3611H198.792M198.792 82.3611H97.7915" stroke="black" stroke-width="0.5"/>
<path d="M96.2906 78.3611C91.7915 73.8611 88.7915 51.8611 92.7906 35.3611L164.792 31.3611C160.792 36.3611 159.792 70.3611 163.291 78.3611H96.2906Z" fill="#EDADBF" stroke="black" stroke-width="0.5"/>
<path d="M228.291 30.3611L164.791 31.3611C160.791 36.3611 159.791 70.3611 163.291 78.3611L197.791 76.8611C202.291 75.3611 208.791 69.8611 228.291 30.3611Z" fill="#EDADBF" stroke="black" stroke-width="0.5"/>
<path d="M170.292 29.8612C165.792 30.3612 162.292 30.3612 159.292 30.3612L164.792 7.86116C167.792 7.36108 170.792 7.36108 173.792 7.86116L170.292 29.8612Z" fill="#EDADBF" stroke="black" stroke-width="0.5"/>
<path d="M98.7915 31.8611C103.292 37.3611 110.292 33.8611 114.292 32.3611C115.292 16.861 102.292 24.861 98.7915 31.8611Z" fill="#EDADBF" stroke="black" stroke-width="0.5"/>
<path d="M234.29 9.36108L231.29 12.8611C248.29 18.3611 258.79 21.3611 271.29 27.8611H272.79L280.79 26.3611C265.79 19.8611 258.29 17.3611 234.29 9.36108Z" stroke="black" stroke-width="0.5"/>
<path d="M271.29 27.8611C260.79 22.3611 241.79 15.8611 231.29 12.8611L229.29 15.3611L244.29 22.8611C242.79 25.3611 238.79 27.3611 232.79 30.0611C244.79 29.3611 261.79 28.3611 271.29 27.8611Z" stroke="black" stroke-width="0.5"/>
<path d="M276.792 34.1611L282.79 31.8611L272.291 27.8611L228.291 30.3611C220.791 45.3611 205.791 75.8611 197.791 76.8611H212.291C210.791 65.8611 220.291 42.3611 245.292 51.3611C255.792 45.8611 265.792 40.3611 276.792 34.1611Z" stroke="black" stroke-width="0.5"/>
<path d="M277.79 33.8611C265.79 40.3611 255.79 45.8611 245.29 51.3611C249.79 54.3611 260.29 60.3611 259.29 79.3611L284.29 78.8611V77.3611C292.79 76.3611 301.29 79.8611 299.79 65.8611L301.79 55.8611C301.79 54.3611 299.29 50.3611 296.79 49.8611C298.29 47.3611 295.29 38.3611 295.29 38.3611V36.8611L291.29 33.8611L286.29 32.3611L282.79 31.8611L277.79 33.8611Z" stroke="black" stroke-width="0.5"/>
<path d="M295.29 36.8611L295.284 36.7813M295.284 36.7813L294.79 28.3611L280.79 26.3611L272.29 27.8611L282.79 31.8611C292.29 32.8611 291.289 34.3611 295.284 36.7813Z" stroke="black" stroke-width="0.5"/>
<path d="M293.792 36.3613C293.292 33.8612 282.292 33.6611 276.792 34.1611" stroke="black" stroke-width="0.5"/>
<path d="M299.792 66.3611L260.292 68.3611C259.792 63.3611 257.625 59.1944 255.792 57.3611L301.792 54.8611M300.292 52.3611C289.292 50.8611 278.292 46.0611 266.292 40.0611M228.292 30.3611L272.292 27.8611L280.792 26.3611" stroke="black" stroke-width="0.5"/>
<path d="M272.292 42.8611C279.287 43.2109 285.304 43.316 290.685 43.8611M297.292 44.8611C295.189 44.4104 292.995 44.0952 290.685 43.8611M295.292 37.3611C294.874 36.776 294.404 36.2467 293.9 35.7711M290.685 43.8611C290.358 43.5163 290.264 42.9933 290.25 42.3611M290.25 42.3611C290.236 41.7708 290.292 41.0854 290.292 40.3611C290.292 38.3611 289.292 34.3611 285.792 32.3611C288.012 32.3611 291.389 33.4015 293.9 35.7711M290.25 42.3611C293.292 40.8611 294.364 37.3011 293.9 35.7711" stroke="black" stroke-width="0.5"/>
<path d="M290.292 40.3611C285.792 40.3611 283.792 36.3611 282.792 33.8611" stroke="black" stroke-width="0.5"/>
<path d="M132.29 12.4611C118.79 16.4611 106.79 22.3611 92.79 35.3611C99.79 23.3611 115.29 13.8611 130.79 8.86108L132.29 12.4611Z" stroke="black" stroke-width="0.5"/>
<path d="M130.79 8.86108C110.79 14.5351 92.79 31.8611 84.79 29.8611C97.79 20.3611 113.79 11.8611 130.29 7.36108L130.79 8.86108Z" stroke="black" stroke-width="0.5"/>
<path d="M9.79071 47.861H3.79071C1.29004 51.861 1.29004 61.861 1.79071 65.361C0.290039 66.361 0.290637 70.861 1.29071 72.361L5.29071 72.861V74.361L1.29071 76.361V78.361C5.29071 79.361 13.7907 81.361 21.7907 80.861V79.361H39.2907C38.624 70.861 40.2907 60.361 49.2907 53.361C46.7907 49.361 39.7907 44.861 36.7907 44.361C26.7907 43.361 11.7907 45.861 9.79071 47.861Z" stroke="black" stroke-width="0.5"/>
<path d="M92.7915 35.3611C74.9582 36.1944 43.2915 41.0611 32.7915 44.0611L36.7915 44.3611C41.7915 45.8611 47.2915 50.1944 49.2915 53.3611C62.2905 43.8611 87.7905 50.8611 86.2905 78.3611H96.2905C89.2905 67.3611 90.2905 45.3611 92.7915 35.3611Z" stroke="black" stroke-width="0.5"/>
<path d="M9.79004 47.8611H3.79004C36.2902 28.361 58.2903 34.3611 84.29 29.8611L93.2903 35.3611C76.2903 36.3611 47.29 39.8611 33.29 44.0611C25.29 43.8611 11.29 45.8611 9.79004 47.8611Z" stroke="black" stroke-width="0.5"/>
<path d="M36.7915 44.3612C29.2915 43.3611 12.2915 45.3611 9.79149 47.8612C8.99149 50.2611 12.1248 53.1944 13.7915 54.3611C23.2915 55.8611 36.7915 49.8611 36.7915 44.3612Z" stroke="black" stroke-width="0.5"/>
<path d="M3.79073 47.8611C10.7907 48.8611 4.79073 59.3611 1.79073 64.3611C1.29066 57.3611 1.79053 51.8611 3.79073 47.8611Z" stroke="black" stroke-width="0.5"/>
<path d="M21.79 83.8611V79.3611H39.29L39.79 83.8611H21.79Z" stroke="black" stroke-width="0.5"/>
<path d="M2.29199 65.3608C3.79199 67.8608 5.79199 71.0275 5.29199 72.8608M21.792 79.3608C11.292 79.8608 6.79199 75.8608 7.79199 72.3608C8.29199 71.8608 9.79199 70.3608 10.792 70.3608" stroke="black" stroke-width="0.5"/>
<path d="M5.79199 65.361C8.04193 64.861 10.9168 64.236 13.6668 63.861M13.6668 63.861C16.4169 63.486 19.0419 63.361 20.792 63.861C23.792 65.361 29.292 70.361 31.792 74.361C26.792 75.361 19.792 74.861 15.292 74.861C12.5994 74.861 11.292 72.5276 11.292 71.361C10.792 68.361 12.0418 65.1943 13.6668 63.861Z" stroke="black" stroke-width="0.5"/>
<path d="M11.292 70.861C19.292 69.3611 22.792 71.9896 25.792 73.4896M12.792 73.8611L30.292 73.3611" stroke="black" stroke-width="0.5"/>
<path d="M21.79 82.3608H31.29C33.29 82.3608 34.79 80.3608 34.29 79.3608M37.79 79.3608V83.8608" stroke="black" stroke-width="0.5"/>
<path d="M21.7915 80.8613C17.2915 80.8613 12.7915 81.3613 1.29145 78.3613V76.3613L5.29145 74.3613V72.8613L1.29145 72.3613C0.790527 70.8611 -0.209277 67.8611 1.79072 65.3611C1.29096 57.3611 1.79096 50.8611 3.79145 47.8608C36.2915 28.3612 58.2914 34.3613 84.2914 29.8613C162.291 -25.1388 244.291 11.8611 281.291 26.3613L294.791 28.3611L295.291 35.3611V38.3611C296.79 43.3611 298.125 47.8611 296.791 49.8611C299.291 50.8611 301.791 54.0278 301.791 55.8611L299.791 65.8611C300.243 76.709 297.835 76.9333 288.504 77.2457C287.513 77.2789 285.444 77.3131 284.291 77.3611V78.8611L259.291 79.2921M21.7915 80.8613V83.8613H39.7898L39.2915 79.3613M21.7915 80.8613V79.3613H39.2915M39.2915 79.3613C36.2915 37.8613 89.7914 40.8613 86.2914 79.8613V82.3611H212.791C206.791 38.8611 261.291 38.8611 259.291 79.2921M258.79 79.2921H259.291" stroke="black"/>
</svg>
