<svg width="303" height="96" viewBox="0 0 303 96" fill="none" xmlns="http://www.w3.org/2000/svg">
<circle cx="62.6978" cy="74.5227" r="20.5" stroke="black"/>
<circle cx="235.698" cy="74.5227" r="20.5" stroke="black"/>
<path d="M132.696 13.0226L131.196 9.52256C171.196 1.52267 192.696 2.02271 231.696 13.5227L228.196 18.0226C208.196 10.0226 190.196 9.02261 174.196 8.52268C171.696 8.02268 167.696 8.02264 165.196 8.52256C155.196 8.52268 143.196 10.0227 132.696 13.0226Z" fill="#EFC7D3" stroke="black" stroke-width="0.5"/>
<path d="M131.196 9.52275L130.696 8.02275C166.696 -2.97729 199.196 1.02258 234.696 10.0228L231.696 13.5228C191.696 1.02271 165.696 2.52271 131.196 9.52275Z" fill="#EFC7D3" stroke="black" stroke-width="0.5"/>
<path d="M131.196 9.52269C182.696 -1.97733 211.196 8.02271 231.696 13.5227" stroke="black" stroke-width="0.5"/>
<path d="M170.698 30.5227L174.198 8.52271C207.698 9.52271 219.198 15.0227 223.698 16.5227L226.181 28.5227C199.19 28.5233 181.695 30.0228 170.698 30.5227Z" fill="#EFC7D3"/>
<path d="M226.698 31.0227L223.698 16.5227C219.198 15.0227 207.698 9.52271 174.198 8.52271L170.698 30.5227C181.698 30.0227 199.198 28.5227 226.198 28.5227" stroke="black" stroke-width="0.5"/>
<path d="M165.198 8.52271C132.198 9.52271 112.198 18.5227 93.1978 36.0227L95.6978 34.0227L159.698 31.0227L165.198 8.52271Z" fill="#EFC7D3" stroke="black" stroke-width="0.5"/>
<path d="M239.696 23.0227C236.03 20.356 230.196 18.0227 223.696 16.5227L226.196 28.5227H232.696C235.696 27.0227 238.696 24.7914 239.696 23.0227Z" fill="#EFC7D3" stroke="black" stroke-width="0.5"/>
<path d="M96.6978 79.0227H163.698L198.198 77.5227H212.698L213.198 83.0227H199.198H98.1978H86.6978V79.0227H96.6978Z" fill="#EFC7D3"/>
<path d="M96.6978 79.0227H163.698L198.198 77.5227M96.6978 79.0227C96.6978 80.5227 97.1978 81.5227 98.1978 83.0227M96.6978 79.0227H86.6978V83.0227H98.1978M198.198 77.5227L199.198 83.0227M198.198 77.5227H212.698L213.198 83.0227H199.198M199.198 83.0227H98.1978" stroke="black" stroke-width="0.5"/>
<path d="M96.6969 79.0227C92.1977 74.5227 89.1978 52.5227 93.1969 36.0227L165.198 32.0227C161.198 37.0227 160.198 71.0227 163.698 79.0227H96.6969Z" fill="#EFC7D3" stroke="black" stroke-width="0.5"/>
<path d="M228.697 31.0227L165.197 32.0227C161.197 37.0227 160.198 71.0227 163.697 79.0227L198.197 77.5227C202.697 76.0227 209.197 70.5227 228.697 31.0227Z" fill="#EFC7D3" stroke="black" stroke-width="0.5"/>
<path d="M170.698 30.5228C166.198 31.0228 162.698 31.0228 159.698 31.0228L165.198 8.52278C168.198 8.02271 171.198 8.02271 174.198 8.52278L170.698 30.5228Z" fill="#EFC7D3" stroke="black" stroke-width="0.5"/>
<path d="M99.1978 32.5228C103.698 38.0228 110.698 34.5228 114.698 33.0228C115.698 17.5227 102.698 25.5227 99.1978 32.5228Z" fill="#EFC7D3" stroke="black" stroke-width="0.5"/>
<path d="M234.696 10.0227L231.696 13.5227C248.696 19.0227 259.196 22.0227 271.696 28.5227H273.196L281.196 27.0227C266.196 20.5227 258.696 18.0227 234.696 10.0227Z" stroke="black" stroke-width="0.5"/>
<path d="M271.696 28.5227C261.196 23.0227 242.196 16.5227 231.696 13.5227L229.696 16.0227L244.696 23.5227C243.196 26.0227 239.196 28.0227 233.196 30.7227C245.196 30.0227 262.196 29.0227 271.696 28.5227Z" stroke="black" stroke-width="0.5"/>
<path d="M277.198 34.8227L283.196 32.5227L272.697 28.5227L228.697 31.0227C221.197 46.0227 206.197 76.5227 198.197 77.5227H212.697C211.197 66.5227 220.697 43.0227 245.698 52.0227C256.198 46.5227 266.198 41.0227 277.198 34.8227Z" stroke="black" stroke-width="0.5"/>
<path d="M278.196 34.5227C266.196 41.0227 256.196 46.5227 245.696 52.0227C250.196 55.0227 260.696 61.0227 259.696 80.0227L284.696 79.5227V78.0227C293.196 77.0227 301.696 80.5227 300.196 66.5227L302.196 56.5227C302.196 55.0227 299.696 51.0227 297.196 50.5227C298.696 48.0227 295.696 39.0227 295.696 39.0227V37.5227L291.696 34.5227L286.696 33.0227L283.196 32.5227L278.196 34.5227Z" stroke="black" stroke-width="0.5"/>
<path d="M295.696 37.5227L295.69 37.4429M295.69 37.4429L295.196 29.0227L281.196 27.0227L272.696 28.5227L283.196 32.5227C292.696 33.5227 291.695 35.0227 295.69 37.4429Z" stroke="black" stroke-width="0.5"/>
<path d="M294.198 37.0229C293.698 34.5228 282.698 34.3227 277.198 34.8227" stroke="black" stroke-width="0.5"/>
<path d="M300.198 67.0227L260.698 69.0227C260.198 64.0227 258.031 59.856 256.198 58.0227L302.198 55.5227M300.698 53.0227C289.698 51.5227 278.698 46.7227 266.698 40.7227M228.698 31.0227L272.698 28.5227L281.198 27.0227" stroke="black" stroke-width="0.5"/>
<path d="M272.698 43.5227C279.693 43.8725 285.71 43.9776 291.091 44.5227M297.698 45.5227C295.595 45.0721 293.402 44.7568 291.091 44.5227M295.698 38.0227C295.28 37.4376 294.811 36.9084 294.307 36.4327M291.091 44.5227C290.765 44.1779 290.671 43.6549 290.656 43.0227M290.656 43.0227C290.642 42.4324 290.698 41.747 290.698 41.0227C290.698 39.0227 289.698 35.0227 286.198 33.0227C288.419 33.0227 291.795 34.0631 294.307 36.4327M290.656 43.0227C293.698 41.5227 294.77 37.9627 294.307 36.4327" stroke="black" stroke-width="0.5"/>
<path d="M290.698 41.0227C286.198 41.0227 284.198 37.0227 283.198 34.5227" stroke="black" stroke-width="0.5"/>
<path d="M132.696 13.1227C119.196 17.1227 107.196 23.0227 93.1963 36.0227C100.196 24.0227 115.696 14.5227 131.196 9.52271L132.696 13.1227Z" fill="#E56E90" stroke="black" stroke-width="0.5"/>
<path d="M131.196 9.52271C111.196 15.1967 93.1963 32.5227 85.1963 30.5227C98.1963 21.0227 114.196 12.5227 130.696 8.02271L131.196 9.52271Z" fill="#E56E90" stroke="black" stroke-width="0.5"/>
<path d="M10.197 48.5227H4.19696C1.69629 52.5227 1.69629 62.5227 2.19696 66.0227C0.696289 67.0227 0.696887 71.5227 1.69696 73.0227L5.69696 73.5227V75.0227L1.69696 77.0227V79.0227C5.69696 80.0227 14.197 82.0227 22.197 81.5227V80.0227H39.697C39.0303 71.5227 40.697 61.0227 49.697 54.0227C47.197 50.0227 40.197 45.5227 37.197 45.0227C27.197 44.0227 12.197 46.5227 10.197 48.5227Z" fill="#E56E90" stroke="black" stroke-width="0.5"/>
<path d="M93.1978 36.0227C75.3644 36.856 43.6978 41.7227 33.1978 44.7227L37.1978 45.0227C42.1978 46.5227 47.6978 50.856 49.6978 54.0227C62.6968 44.5227 88.1968 51.5227 86.6968 79.0227H96.6968C89.6968 68.0227 90.6968 46.0227 93.1978 36.0227Z" fill="#E56E90" stroke="black" stroke-width="0.5"/>
<path d="M10.1963 48.5228H4.19629C36.6965 29.0227 58.6965 35.0227 84.6963 30.5227L93.6965 36.0227C76.6965 37.0227 47.6963 40.5227 33.6963 44.7227C25.6963 44.5227 11.6963 46.5227 10.1963 48.5228Z" fill="#E56E90" stroke="black" stroke-width="0.5"/>
<path d="M37.1977 45.0228C29.6977 44.0227 12.6977 46.0227 10.1977 48.5228C9.39774 50.9227 12.5311 53.856 14.1977 55.0227C23.6978 56.5227 37.1977 50.5227 37.1977 45.0228Z" fill="#E56E90" stroke="black" stroke-width="0.5"/>
<path d="M4.19698 48.5227C11.197 49.5227 5.19698 60.0227 2.19698 65.0227C1.69691 58.0227 2.19678 52.5227 4.19698 48.5227Z" fill="#E56E90" stroke="black" stroke-width="0.5"/>
<path d="M22.1963 84.5227V80.0227H39.6963L40.1963 84.5227H22.1963Z" fill="#E56E90" stroke="black" stroke-width="0.5"/>
<path d="M2.69824 66.0225C4.19824 68.5225 6.19824 71.6891 5.69824 73.5225M22.1982 80.0225C11.6982 80.5225 7.19824 76.5225 8.19824 73.0225C8.69824 72.5225 10.1982 71.0225 11.1982 71.0225" stroke="black" stroke-width="0.5"/>
<path d="M32.1982 75.0226C29.6982 71.0226 24.1982 66.0227 21.1982 64.5227C19.4482 64.0227 16.8231 64.1477 14.073 64.5227C12.4481 65.856 11.1982 69.0226 11.6982 72.0226C11.6982 73.1892 13.0057 75.5226 15.6982 75.5226C20.1982 75.5226 27.1982 76.0226 32.1982 75.0226Z" fill="#E56E90"/>
<path d="M6.19824 66.0227C8.44818 65.5226 11.3231 64.8977 14.073 64.5227M14.073 64.5227C16.8231 64.1477 19.4482 64.0227 21.1982 64.5227C24.1982 66.0227 29.6982 71.0226 32.1982 75.0226C27.1982 76.0226 20.1982 75.5226 15.6982 75.5226C13.0057 75.5226 11.6982 73.1892 11.6982 72.0226C11.1982 69.0226 12.4481 65.856 14.073 64.5227Z" stroke="black" stroke-width="0.5"/>
<path d="M11.6982 71.5227C19.6982 70.0227 23.1982 72.6512 26.1982 74.1512M13.1982 74.5227L30.6982 74.0227" stroke="black" stroke-width="0.5"/>
<path d="M22.1963 83.0225H31.6963C33.6963 83.0225 35.1963 81.0225 34.6963 80.0225M38.1963 80.0225V84.5225" stroke="black" stroke-width="0.5"/>
<path d="M22.1977 81.5229C17.6977 81.5229 13.1977 82.0229 1.6977 79.0229V77.0229L5.6977 75.0229V73.5229L1.6977 73.023C1.19678 71.5227 0.196973 68.5227 2.19697 66.0227C1.69721 58.0227 2.19721 51.5227 4.1977 48.5224C36.6977 29.0228 58.6977 35.0229 84.6977 30.5229C162.698 -24.4772 244.698 12.5227 281.698 27.0229L295.198 29.0227L295.698 36.0227V39.0227C297.196 44.0227 298.531 48.5227 297.198 50.5227C299.698 51.5227 302.198 54.6894 302.198 56.5227L300.198 66.5227C300.65 77.3706 298.242 77.5949 288.91 77.9073C287.919 77.9405 285.85 77.9747 284.698 78.0227V79.5227L259.698 79.9537M22.1977 81.5229V84.5229H40.196L39.6977 80.0229M22.1977 81.5229V80.0229H39.6977M39.6977 80.0229C36.6977 38.5229 90.1977 41.5229 86.6977 80.5229V83.0227H213.198C207.198 39.5227 261.698 39.5227 259.698 79.9537M259.196 79.9537H259.698" stroke="black"/>
</svg>
