<svg width="303" height="96" viewBox="0 0 303 96" fill="none" xmlns="http://www.w3.org/2000/svg">
<circle cx="62.2817" cy="74.3384" r="20.5" fill="#E56E90" stroke="black"/>
<circle cx="235.282" cy="74.3384" r="20.5" fill="#E56E90" stroke="black"/>
<path d="M132.28 12.8382L130.78 9.33823C170.78 1.33835 192.28 1.83838 231.28 13.3383L227.78 17.8383C207.78 9.83829 189.78 8.83829 173.78 8.33836C171.28 7.83836 167.28 7.83832 164.78 8.33823C154.78 8.33836 142.78 9.83836 132.28 12.8382Z" stroke="black" stroke-width="0.5"/>
<path d="M130.78 9.33842L130.28 7.83842C166.28 -3.16162 198.78 0.838253 234.28 9.83842L231.28 13.3384C191.28 0.838379 165.28 2.33838 130.78 9.33842Z" stroke="black" stroke-width="0.5"/>
<path d="M130.78 9.33837C182.28 -2.16166 210.78 7.83838 231.28 13.3384" stroke="black" stroke-width="0.5"/>
<path d="M226.282 30.8384L223.282 16.3384C218.782 14.8384 207.282 9.33838 173.782 8.33838L170.282 30.3384C181.282 29.8384 198.782 28.3384 225.782 28.3384" stroke="black" stroke-width="0.5"/>
<path d="M164.782 8.33838C131.782 9.33838 111.782 18.3384 92.7817 35.8384L95.2817 33.8384L159.282 30.8384L164.782 8.33838Z" stroke="black" stroke-width="0.5"/>
<path d="M239.28 22.8384C235.614 20.1717 229.78 17.8384 223.28 16.3384L225.78 28.3384H232.28C235.28 26.8384 238.28 24.6071 239.28 22.8384Z" stroke="black" stroke-width="0.5"/>
<path d="M96.2817 78.8384H163.282L197.782 77.3384M96.2817 78.8384C96.2817 80.3384 96.7817 81.3384 97.7817 82.8384M96.2817 78.8384H86.2817V82.8384H97.7817M197.782 77.3384L198.782 82.8384M197.782 77.3384H212.282L212.782 82.8384H198.782M198.782 82.8384H97.7817" stroke="black" stroke-width="0.5"/>
<path d="M96.2809 78.8384C91.7817 74.3384 88.7818 52.3384 92.7809 35.8384L164.782 31.8384C160.782 36.8384 159.782 70.8384 163.282 78.8384H96.2809Z" stroke="black" stroke-width="0.5"/>
<path d="M228.281 30.8384L164.781 31.8384C160.781 36.8384 159.781 70.8384 163.281 78.8384L197.781 77.3384C202.281 75.8384 208.781 70.3384 228.281 30.8384Z" stroke="black" stroke-width="0.5"/>
<path d="M170.282 30.3385C165.782 30.8385 162.282 30.8385 159.282 30.8385L164.782 8.33845C167.782 7.83838 170.782 7.83838 173.782 8.33845L170.282 30.3385Z" stroke="black" stroke-width="0.5"/>
<path d="M98.7817 32.3385C103.282 37.8385 110.282 34.3385 114.282 32.8385C115.282 17.3384 102.282 25.3384 98.7817 32.3385Z" stroke="black" stroke-width="0.5"/>
<path d="M234.28 9.83838L231.28 13.3384C248.28 18.8384 258.78 21.8384 271.28 28.3384H272.78L280.78 26.8384C265.78 20.3384 258.28 17.8384 234.28 9.83838Z" fill="#EFC7D3" stroke="black" stroke-width="0.5"/>
<path d="M271.28 28.3384C260.78 22.8384 241.78 16.3384 231.28 13.3384L229.28 15.8384L244.28 23.3384C242.78 25.8384 238.78 27.8384 232.78 30.5384C244.78 29.8384 261.78 28.8384 271.28 28.3384Z" fill="#EFC7D3" stroke="black" stroke-width="0.5"/>
<path d="M276.782 34.6384L282.78 32.3384L272.281 28.3384L228.281 30.8384C220.781 45.8384 205.781 76.3384 197.781 77.3384H212.281C210.781 66.3384 220.281 42.8384 245.282 51.8384C255.782 46.3384 265.782 40.8384 276.782 34.6384Z" fill="#EFC7D3" stroke="black" stroke-width="0.5"/>
<path d="M277.78 34.3384C265.78 40.8384 255.78 46.3384 245.28 51.8384C249.78 54.8384 260.28 60.8384 259.28 79.8384L284.28 79.3384V77.8384C292.78 76.8384 301.28 80.3384 299.78 66.3384L301.78 56.3384C301.78 54.8384 299.28 50.8384 296.78 50.3384C298.28 47.8384 295.28 38.8384 295.28 38.8384V37.3384L291.28 34.3384L286.28 32.8384L282.78 32.3384L277.78 34.3384Z" fill="#EFC7D3" stroke="black" stroke-width="0.5"/>
<path d="M280.78 26.8384L272.28 28.3384L282.78 32.3384C292.28 33.3384 291.279 34.8384 295.274 37.2586L294.78 28.8384L280.78 26.8384Z" fill="#EFC7D3"/>
<path d="M295.28 37.3384L295.274 37.2586M295.274 37.2586L294.78 28.8384L280.78 26.8384L272.28 28.3384L282.78 32.3384C292.28 33.3384 291.279 34.8384 295.274 37.2586Z" stroke="black" stroke-width="0.5"/>
<path d="M293.782 36.8386C293.282 34.3385 282.282 34.1384 276.782 34.6384" stroke="black" stroke-width="0.5"/>
<path d="M299.782 66.8384L260.282 68.8384C259.782 63.8384 257.615 59.6717 255.782 57.8384L301.782 55.3384M300.282 52.8384C289.282 51.3384 278.282 46.5384 266.282 40.5384M228.282 30.8384L272.282 28.3384L280.782 26.8384" stroke="black" stroke-width="0.5"/>
<path d="M290.282 40.8384C290.282 38.8384 289.282 34.8384 285.782 32.8384C288.003 32.8384 291.379 33.8788 293.891 36.2484C294.354 37.7784 293.282 41.3384 290.24 42.8384C290.226 42.2481 290.282 41.5627 290.282 40.8384Z" fill="#EFC7D3"/>
<path d="M272.282 43.3384C279.277 43.6882 285.294 43.7933 290.675 44.3384M297.282 45.3384C295.179 44.8877 292.985 44.5725 290.675 44.3384M295.282 37.8384C294.864 37.2533 294.395 36.724 293.891 36.2484M290.675 44.3384C290.349 43.9936 290.255 43.4706 290.24 42.8384M290.24 42.8384C290.226 42.2481 290.282 41.5627 290.282 40.8384C290.282 38.8384 289.282 34.8384 285.782 32.8384C288.003 32.8384 291.379 33.8788 293.891 36.2484M290.24 42.8384C293.282 41.3384 294.354 37.7784 293.891 36.2484" stroke="black" stroke-width="0.5"/>
<path d="M290.282 40.8384C285.782 40.8384 283.782 36.8384 282.782 34.3384" stroke="black" stroke-width="0.5"/>
<path d="M132.28 12.9384C118.78 16.9384 106.78 22.8384 92.7803 35.8384C99.7803 23.8384 115.28 14.3384 130.78 9.33838L132.28 12.9384Z" fill="#EFC7D3" stroke="black" stroke-width="0.5"/>
<path d="M130.78 9.33838C110.78 15.0124 92.7803 32.3384 84.7803 30.3384C97.7803 20.8384 113.78 12.3384 130.28 7.83838L130.78 9.33838Z" fill="#EFC7D3" stroke="black" stroke-width="0.5"/>
<path d="M9.78094 48.3384H3.78094C1.28027 52.3384 1.28027 62.3384 1.78094 65.8384C0.280273 66.8384 0.280871 71.3384 1.28094 72.8384L5.28094 73.3384V74.8384L1.28094 76.8384V78.8384C5.28094 79.8384 13.7809 81.8384 21.7809 81.3384V79.8384H39.2809C38.6143 71.3384 40.2809 60.8384 49.2809 53.8384C46.7809 49.8384 39.7809 45.3384 36.7809 44.8384C26.7809 43.8384 11.7809 46.3384 9.78094 48.3384Z" fill="#EFC7D3" stroke="black" stroke-width="0.5"/>
<path d="M92.7817 35.8384C74.9484 36.6717 43.2817 41.5384 32.7817 44.5384L36.7817 44.8384C41.7817 46.3384 47.2817 50.6717 49.2817 53.8384C62.2808 44.3384 87.7808 51.3384 86.2808 78.8384H96.2808C89.2808 67.8384 90.2808 45.8384 92.7817 35.8384Z" fill="#EFC7D3" stroke="black" stroke-width="0.5"/>
<path d="M9.78027 48.3384H3.78027C36.2805 28.8383 58.2805 34.8384 84.2803 30.3384L93.2805 35.8384C76.2805 36.8384 47.2803 40.3384 33.2803 44.5384C25.2803 44.3384 11.2803 46.3384 9.78027 48.3384Z" fill="#EFC7D3" stroke="black" stroke-width="0.5"/>
<path d="M36.7817 44.8385C29.2817 43.8384 12.2817 45.8384 9.78173 48.3385C8.98173 50.7384 12.1151 53.6717 13.7817 54.8384C23.2817 56.3384 36.7817 50.3384 36.7817 44.8385Z" fill="#EFC7D3" stroke="black" stroke-width="0.5"/>
<path d="M3.78097 48.3384C10.781 49.3384 4.78097 59.8384 1.78097 64.8384C1.2809 57.8384 1.78076 52.3384 3.78097 48.3384Z" fill="#EFC7D3" stroke="black" stroke-width="0.5"/>
<path d="M21.7803 84.3384V79.8384H39.2803L39.7803 84.3384H21.7803Z" fill="#EFC7D3" stroke="black" stroke-width="0.5"/>
<path d="M2.28223 65.8384C3.78223 68.3384 5.78223 71.505 5.28223 73.3384M21.7822 79.8384C11.2822 80.3384 6.78223 76.3384 7.78223 72.8384C8.28223 72.3384 9.78223 70.8384 10.7822 70.8384" stroke="black" stroke-width="0.5"/>
<path d="M31.7822 74.8384C29.2822 70.8384 23.7822 65.8385 20.7822 64.3385C19.0322 63.8384 16.4071 63.9634 13.657 64.3385C12.0321 65.6718 10.7822 68.8384 11.2822 71.8384C11.2822 73.005 12.5896 75.3384 15.2822 75.3384C19.7822 75.3384 26.7822 75.8384 31.7822 74.8384Z" fill="#EFC7D3"/>
<path d="M5.78223 65.8385C8.03217 65.3384 10.9071 64.7135 13.657 64.3385M13.657 64.3385C16.4071 63.9634 19.0322 63.8384 20.7822 64.3385C23.7822 65.8385 29.2822 70.8384 31.7822 74.8384C26.7822 75.8384 19.7822 75.3384 15.2822 75.3384C12.5896 75.3384 11.2822 73.005 11.2822 71.8384C10.7822 68.8384 12.0321 65.6718 13.657 64.3385Z" stroke="black" stroke-width="0.5"/>
<path d="M11.2822 71.3385C19.2822 69.8385 22.7822 72.467 25.7822 73.967M12.7822 74.3385L30.2822 73.8385" stroke="black" stroke-width="0.5"/>
<path d="M21.7803 82.8384H31.2803C33.2803 82.8384 34.7803 80.8384 34.2803 79.8384M37.7803 79.8384V84.3384" stroke="black" stroke-width="0.5"/>
<path d="M21.7817 81.3386C17.2817 81.3386 12.7817 81.8386 1.28168 78.8386V76.8386L5.28168 74.8386V73.3386L1.28168 72.8386C0.780762 71.3384 -0.219042 68.3384 1.78095 65.8384C1.2812 57.8384 1.7812 51.3384 3.78168 48.3381C36.2817 28.8385 58.2817 34.8386 84.2817 30.3386C162.282 -24.6615 244.282 12.3384 281.282 26.8386L294.782 28.8384L295.282 35.8384V38.8384C296.78 43.8384 298.115 48.3384 296.782 50.3384C299.282 51.3384 301.782 54.505 301.782 56.3384L299.782 66.3384C300.234 77.1863 297.826 77.4106 288.494 77.723C287.503 77.7562 285.434 77.7904 284.282 77.8384V79.3384L259.282 79.7694M21.7817 81.3386V84.3386H39.78L39.2817 79.8386M21.7817 81.3386V79.8386H39.2817M39.2817 79.8386C36.2817 38.3386 89.7817 41.3386 86.2817 80.3386V82.8384H212.782C206.782 39.3384 261.282 39.3384 259.282 79.7694M258.78 79.7694H259.282" stroke="black"/>
</svg>
