<svg width="303" height="95" viewBox="0 0 303 95" fill="none" xmlns="http://www.w3.org/2000/svg">
<circle cx="62.6562" cy="73.707" r="20.5" stroke="black"/>
<circle cx="235.656" cy="73.707" r="20.5" stroke="black"/>
<path d="M132.654 12.2069L131.154 8.70689C171.154 0.706999 192.654 1.20703 231.654 12.707L228.154 17.207C208.154 9.20694 190.154 8.20694 174.154 7.70701C171.654 7.20701 167.654 7.20697 165.154 7.70689C155.154 7.70701 143.154 9.20701 132.654 12.2069Z" fill="#E56E90" stroke="black" stroke-width="0.5"/>
<path d="M131.154 8.70708L130.654 7.20708C166.654 -3.79297 199.154 0.206905 234.654 9.20708L231.654 12.7071C191.654 0.207031 165.654 1.70703 131.154 8.70708Z" fill="#E56E90" stroke="black" stroke-width="0.5"/>
<path d="M131.154 8.70714C182.654 -2.79288 211.154 7.20715 231.654 12.7071" stroke="black" stroke-width="0.5"/>
<path d="M170.656 29.707L174.156 7.70703C207.656 8.70703 219.156 14.207 223.656 15.707L226.139 27.707C199.149 27.7077 181.654 29.2071 170.656 29.707Z" fill="#E56E90"/>
<path d="M226.656 30.207L223.656 15.707C219.156 14.207 207.656 8.70703 174.156 7.70703L170.656 29.707C181.656 29.207 199.156 27.707 226.156 27.707" stroke="black" stroke-width="0.5"/>
<path d="M165.156 7.70703C132.156 8.70703 112.156 17.707 93.1562 35.207L95.6562 33.207L159.656 30.207L165.156 7.70703Z" fill="#E56E90" stroke="black" stroke-width="0.5"/>
<path d="M239.654 22.207C235.988 19.5404 230.154 17.207 223.654 15.707L226.154 27.707H232.654C235.654 26.207 238.654 23.9758 239.654 22.207Z" fill="#E56E90" stroke="black" stroke-width="0.5"/>
<path d="M96.6562 78.207H163.656L198.156 76.707H212.656L213.156 82.207H199.156H98.1562H86.6562V78.207H96.6562Z" fill="#E56E90"/>
<path d="M96.6562 78.207H163.656L198.156 76.707M96.6562 78.207C96.6562 79.707 97.1562 80.707 98.1562 82.207M96.6562 78.207H86.6562V82.207H98.1562M198.156 76.707L199.156 82.207M198.156 76.707H212.656L213.156 82.207H199.156M199.156 82.207H98.1562" stroke="black" stroke-width="0.5"/>
<path d="M96.6554 78.207C92.1562 73.707 89.1563 51.707 93.1554 35.207L165.156 31.207C161.156 36.207 160.156 70.207 163.656 78.207H96.6554Z" fill="#E56E90" stroke="black" stroke-width="0.5"/>
<path d="M228.656 30.207L165.156 31.207C161.156 36.207 160.156 70.207 163.656 78.207L198.156 76.707C202.656 75.207 209.156 69.707 228.656 30.207Z" fill="#E56E90" stroke="black" stroke-width="0.5"/>
<path d="M170.656 29.7071C166.156 30.2071 162.656 30.2071 159.656 30.2071L165.156 7.70711C168.156 7.20703 171.156 7.20703 174.156 7.70711L170.656 29.7071Z" fill="#E56E90" stroke="black" stroke-width="0.5"/>
<path d="M99.1562 31.7073C103.656 37.2073 110.656 33.7073 114.656 32.2073C115.656 16.7072 102.656 24.7072 99.1562 31.7073Z" fill="#E56E90" stroke="black" stroke-width="0.5"/>
<path d="M234.654 9.20703L231.654 12.707C248.654 18.207 259.154 21.207 271.654 27.707H273.154L281.154 26.207C266.154 19.707 258.654 17.207 234.654 9.20703Z" fill="#E0426F" stroke="black" stroke-width="0.5"/>
<path d="M271.654 27.707C261.154 22.207 242.154 15.707 231.654 12.707L229.654 15.207L244.654 22.707C243.154 25.207 239.154 27.207 233.154 29.907C245.154 29.207 262.154 28.207 271.654 27.707Z" fill="#E0426F" stroke="black" stroke-width="0.5"/>
<path d="M277.156 34.007L283.155 31.707L272.655 27.707L228.655 30.207C221.155 45.207 206.155 75.707 198.155 76.707H212.655C211.155 65.707 220.655 42.207 245.656 51.207C256.156 45.707 266.156 40.207 277.156 34.007Z" fill="#E0426F" stroke="black" stroke-width="0.5"/>
<path d="M278.154 33.7071C266.154 40.2071 256.154 45.7071 245.654 51.2071C250.154 54.207 260.654 60.207 259.654 79.207L284.654 78.707V77.207C293.154 76.207 301.654 79.707 300.154 65.707L302.154 55.707C302.154 54.207 299.654 50.207 297.154 49.707C298.654 47.207 295.654 38.207 295.654 38.207V36.707L291.654 33.707L286.654 32.207L283.154 31.707L278.154 33.7071Z" fill="#E0426F" stroke="black" stroke-width="0.5"/>
<path d="M281.154 26.207L272.654 27.707L283.154 31.707C292.654 32.707 291.653 34.207 295.648 36.6272L295.154 28.207L281.154 26.207Z" fill="#E0426F"/>
<path d="M295.654 36.707L295.648 36.6272M295.648 36.6272L295.154 28.207L281.154 26.207L272.654 27.707L283.154 31.707C292.654 32.707 291.653 34.207 295.648 36.6272Z" stroke="black" stroke-width="0.5"/>
<path d="M294.156 36.2072C293.656 33.7071 282.656 33.507 277.156 34.007" stroke="black" stroke-width="0.5"/>
<path d="M300.156 66.207L260.656 68.207C260.156 63.207 257.99 59.0404 256.156 57.207L302.156 54.707M300.656 52.207C289.656 50.707 278.656 45.907 266.656 39.907M228.656 30.207L272.656 27.707L281.156 26.207" stroke="black" stroke-width="0.5"/>
<path d="M290.656 40.207C290.656 38.207 289.656 34.207 286.156 32.207C288.377 32.207 291.754 33.2474 294.265 35.617C294.729 37.147 293.656 40.707 290.614 42.207C290.601 41.6167 290.656 40.9313 290.656 40.207Z" fill="#E0426F"/>
<path d="M272.656 42.707C279.652 43.0568 285.669 43.1619 291.049 43.707M297.656 44.707C295.553 44.2564 293.36 43.9411 291.049 43.707M295.656 37.207C295.238 36.6219 294.769 36.0927 294.265 35.617M291.049 43.707C290.723 43.3623 290.629 42.8392 290.614 42.207M290.614 42.207C290.601 41.6168 290.656 40.9313 290.656 40.207C290.656 38.207 289.656 34.207 286.156 32.207C288.377 32.207 291.754 33.2474 294.265 35.617M290.614 42.207C293.656 40.707 294.729 37.147 294.265 35.617" stroke="black" stroke-width="0.5"/>
<path d="M290.656 40.207C286.156 40.207 284.156 36.207 283.156 33.707" stroke="black" stroke-width="0.5"/>
<path d="M132.654 12.307C119.154 16.307 107.154 22.207 93.1543 35.207C100.154 23.207 115.654 13.707 131.154 8.70703L132.654 12.307Z" stroke="black" stroke-width="0.5"/>
<path d="M131.154 8.70703C111.154 14.3811 93.1543 31.707 85.1543 29.707C98.1543 20.207 114.154 11.707 130.654 7.20703L131.154 8.70703Z" stroke="black" stroke-width="0.5"/>
<path d="M10.155 47.7069H4.15496C1.6543 51.7069 1.6543 61.7069 2.15496 65.2069C0.654297 66.2069 0.654894 70.7069 1.65496 72.2069L5.65496 72.7069V74.2069L1.65496 76.2069V78.2069C5.65496 79.2069 14.155 81.2069 22.155 80.7069V79.2069H39.655C38.9883 70.7069 40.655 60.2069 49.655 53.2069C47.155 49.2069 40.155 44.7069 37.155 44.2069C27.155 43.2069 12.155 45.7069 10.155 47.7069Z" stroke="black" stroke-width="0.5"/>
<path d="M93.1562 35.207C75.3229 36.0404 43.6562 40.907 33.1562 43.907L37.1562 44.207C42.1562 45.707 47.6562 50.0404 49.6562 53.207C62.6553 43.707 88.1553 50.707 86.6553 78.207H96.6553C89.6553 67.207 90.6553 45.207 93.1562 35.207Z" stroke="black" stroke-width="0.5"/>
<path d="M10.1543 47.7071H4.1543C36.6545 28.207 58.6545 34.207 84.6543 29.707L93.6545 35.207C76.6545 36.207 47.6543 39.707 33.6543 43.907C25.6543 43.707 11.6543 45.707 10.1543 47.7071Z" stroke="black" stroke-width="0.5"/>
<path d="M37.1558 44.2071C29.6558 43.207 12.6558 45.207 10.1558 47.7071C9.35575 50.107 12.4891 53.0404 14.1558 54.207C23.6558 55.707 37.1558 49.707 37.1558 44.2071Z" stroke="black" stroke-width="0.5"/>
<path d="M4.15499 47.707C11.155 48.707 5.15499 59.207 2.15499 64.207C1.65492 57.207 2.15479 51.707 4.15499 47.707Z" stroke="black" stroke-width="0.5"/>
<path d="M22.1543 83.707V79.207H39.6543L40.1543 83.707H22.1543Z" stroke="black" stroke-width="0.5"/>
<path d="M2.65625 65.207C4.15625 67.707 6.15625 70.8737 5.65625 72.707M22.1562 79.207C11.6562 79.707 7.15625 75.707 8.15625 72.207C8.65625 71.707 10.1562 70.207 11.1562 70.207" stroke="black" stroke-width="0.5"/>
<path d="M6.15625 65.2072C8.40619 64.7072 11.2811 64.0822 14.031 63.7072M14.031 63.7072C16.7811 63.3322 19.4062 63.2072 21.1562 63.7072C24.1562 65.2072 29.6562 70.2072 32.1562 74.2072C27.1562 75.2072 20.1562 74.7072 15.6562 74.7072C12.9637 74.7072 11.6562 72.3738 11.6562 71.2072C11.1562 68.2072 12.4061 65.0405 14.031 63.7072Z" stroke="black" stroke-width="0.5"/>
<path d="M11.6562 70.7072C19.6562 69.2073 23.1562 71.8358 26.1562 73.3358M13.1562 73.7073L30.6562 73.2073" stroke="black" stroke-width="0.5"/>
<path d="M22.1543 82.207H31.6543C33.6543 82.207 35.1543 80.207 34.6543 79.207M38.1543 79.207V83.707" stroke="black" stroke-width="0.5"/>
<path d="M22.1562 80.7073C17.6562 80.7073 13.1562 81.2073 1.6562 78.2073V76.2073L5.6562 74.2073V72.7073L1.6562 72.2073C1.15527 70.707 0.155469 67.707 2.15546 65.207C1.65571 57.207 2.15571 50.707 4.1562 47.7068C36.6562 28.2072 58.6562 34.2072 84.6562 29.7072C162.656 -25.2929 244.656 11.707 281.656 26.2072L295.156 28.207L295.656 35.207V38.207C297.155 43.207 298.49 47.707 297.156 49.707C299.656 50.707 302.156 53.8737 302.156 55.707L300.156 65.707C300.608 76.5549 298.2 76.7792 288.868 77.0917C287.877 77.1249 285.808 77.159 284.656 77.207V78.707L259.656 79.1381M22.1562 80.7073V83.7073H40.1545L39.6562 79.2073M22.1562 80.7073V79.2073H39.6562M39.6562 79.2073C36.6562 37.7073 90.1562 40.7073 86.6562 79.7073V82.207H213.156C207.156 38.707 261.656 38.707 259.656 79.1381M259.155 79.1381H259.656" stroke="black"/>
</svg>
