<svg width="304" height="96" viewBox="0 0 304 96" fill="none" xmlns="http://www.w3.org/2000/svg">
<circle cx="63.0938" cy="74.0454" r="20.5" fill="#EDADBF" stroke="black"/>
<circle cx="236.094" cy="74.0454" r="20.5" fill="#EDADBF" stroke="black"/>
<path d="M133.092 12.5453L131.592 9.04527C171.592 1.04538 193.092 1.54541 232.092 13.0454L228.592 17.5454C208.592 9.54532 190.592 8.54532 174.592 8.04539C172.092 7.54539 168.092 7.54535 165.592 8.04527C155.592 8.04539 143.592 9.54539 133.092 12.5453Z" fill="#E56E90" stroke="black" stroke-width="0.5"/>
<path d="M131.592 9.04545L131.092 7.54545C167.092 -3.45459 199.592 0.545284 235.092 9.54546L232.092 13.0455C192.092 0.54541 166.092 2.04541 131.592 9.04545Z" fill="#E56E90" stroke="black" stroke-width="0.5"/>
<path d="M131.592 9.04552C183.092 -2.4545 211.592 7.54553 232.092 13.0455" stroke="black" stroke-width="0.5"/>
<path d="M171.094 30.0454L174.594 8.04541C208.094 9.04541 219.594 14.5454 224.094 16.0454L226.577 28.0454C199.586 28.046 182.091 29.5455 171.094 30.0454Z" fill="#E56E90"/>
<path d="M227.094 30.5454L224.094 16.0454C219.594 14.5454 208.094 9.04541 174.594 8.04541L171.094 30.0454C182.094 29.5454 199.594 28.0454 226.594 28.0454" stroke="black" stroke-width="0.5"/>
<path d="M165.594 8.04541C132.594 9.04541 112.594 18.0454 93.5938 35.5454L96.0938 33.5454L160.094 30.5454L165.594 8.04541Z" fill="#E56E90" stroke="black" stroke-width="0.5"/>
<path d="M240.092 22.5454C236.425 19.8787 230.592 17.5454 224.092 16.0454L226.592 28.0454H233.092C236.092 26.5454 239.092 24.3141 240.092 22.5454Z" fill="#E56E90" stroke="black" stroke-width="0.5"/>
<path d="M97.0938 78.5454H164.094L198.594 77.0454H213.094L213.594 82.5454H199.594H98.5938H87.0938V78.5454H97.0938Z" fill="#E56E90"/>
<path d="M97.0938 78.5454H164.094L198.594 77.0454M97.0938 78.5454C97.0938 80.0454 97.5938 81.0454 98.5938 82.5454M97.0938 78.5454H87.0938V82.5454H98.5938M198.594 77.0454L199.594 82.5454M198.594 77.0454H213.094L213.594 82.5454H199.594M199.594 82.5454H98.5938" stroke="black" stroke-width="0.5"/>
<path d="M97.0929 78.5454C92.5937 74.0454 89.5938 52.0454 93.5929 35.5454L165.594 31.5454C161.594 36.5454 160.594 70.5454 164.094 78.5454H97.0929Z" fill="#E56E90" stroke="black" stroke-width="0.5"/>
<path d="M229.094 30.5454L165.594 31.5454C161.594 36.5454 160.594 70.5454 164.094 78.5454L198.594 77.0454C203.094 75.5454 209.594 70.0454 229.094 30.5454Z" fill="#E56E90" stroke="black" stroke-width="0.5"/>
<path d="M171.094 30.0455C166.594 30.5455 163.094 30.5455 160.094 30.5455L165.594 8.04548C168.594 7.54541 171.594 7.54541 174.594 8.04548L171.094 30.0455Z" fill="#E56E90" stroke="black" stroke-width="0.5"/>
<path d="M99.5938 32.0457C104.094 37.5457 111.094 34.0457 115.094 32.5457C116.094 17.0455 103.094 25.0455 99.5938 32.0457Z" fill="#E56E90" stroke="black" stroke-width="0.5"/>
<path d="M235.092 9.54541L232.092 13.0454C249.092 18.5454 259.592 21.5454 272.092 28.0454H273.592L281.592 26.5454C266.592 20.0454 259.092 17.5454 235.092 9.54541Z" stroke="black" stroke-width="0.5"/>
<path d="M272.092 28.0454C261.592 22.5454 242.592 16.0454 232.092 13.0454L230.092 15.5454L245.092 23.0454C243.592 25.5454 239.592 27.5454 233.592 30.2454C245.592 29.5454 262.592 28.5454 272.092 28.0454Z" stroke="black" stroke-width="0.5"/>
<path d="M277.594 34.3454L283.592 32.0454L273.093 28.0454L229.093 30.5454C221.593 45.5454 206.593 76.0454 198.593 77.0454H213.093C211.593 66.0454 221.093 42.5454 246.094 51.5454C256.594 46.0454 266.594 40.5454 277.594 34.3454Z" stroke="black" stroke-width="0.5"/>
<path d="M278.592 34.0454C266.592 40.5454 256.592 46.0454 246.092 51.5454C250.592 54.5454 261.092 60.5454 260.092 79.5454L285.092 79.0454V77.5454C293.592 76.5454 302.092 80.0454 300.592 66.0454L302.592 56.0454C302.592 54.5454 300.092 50.5454 297.592 50.0454C299.092 47.5454 296.092 38.5454 296.092 38.5454V37.0454L292.092 34.0454L287.092 32.5454L283.592 32.0454L278.592 34.0454Z" stroke="black" stroke-width="0.5"/>
<path d="M296.092 37.0454L296.086 36.9656M296.086 36.9656L295.592 28.5454L281.592 26.5454L273.092 28.0454L283.592 32.0454C293.092 33.0454 292.091 34.5454 296.086 36.9656Z" stroke="black" stroke-width="0.5"/>
<path d="M294.594 36.5456C294.094 34.0455 283.094 33.8454 277.594 34.3454" stroke="black" stroke-width="0.5"/>
<path d="M300.594 66.5454L261.094 68.5454C260.594 63.5454 258.427 59.3787 256.594 57.5454L302.594 55.0454M301.094 52.5454C290.094 51.0454 279.094 46.2454 267.094 40.2454M229.094 30.5454L273.094 28.0454L281.594 26.5454" stroke="black" stroke-width="0.5"/>
<path d="M273.094 43.0454C280.089 43.3952 286.106 43.5003 291.487 44.0454M298.094 45.0454C295.991 44.5948 293.798 44.2795 291.487 44.0454M296.094 37.5454C295.676 36.9603 295.207 36.4311 294.703 35.9554M291.487 44.0454C291.161 43.7006 291.067 43.1776 291.052 42.5454M291.052 42.5454C291.038 41.9551 291.094 41.2697 291.094 40.5454C291.094 38.5454 290.094 34.5454 286.594 32.5454C288.815 32.5454 292.191 33.5858 294.703 35.9554M291.052 42.5454C294.094 41.0454 295.166 37.4854 294.703 35.9554" stroke="black" stroke-width="0.5"/>
<path d="M291.094 40.5454C286.594 40.5454 284.594 36.5454 283.594 34.0454" stroke="black" stroke-width="0.5"/>
<path d="M133.092 12.6454C119.592 16.6454 107.592 22.5454 93.5923 35.5454C100.592 23.5454 116.092 14.0454 131.592 9.04541L133.092 12.6454Z" fill="#EDADBF" stroke="black" stroke-width="0.5"/>
<path d="M131.592 9.04541C111.592 14.7194 93.5923 32.0454 85.5923 30.0454C98.5923 20.5454 114.592 12.0454 131.092 7.54541L131.592 9.04541Z" fill="#EDADBF" stroke="black" stroke-width="0.5"/>
<path d="M10.593 48.0453H4.59295C2.09229 52.0453 2.09229 62.0453 2.59295 65.5453C1.09229 66.5453 1.09288 71.0453 2.09295 72.5453L6.09295 73.0453V74.5453L2.09295 76.5453V78.5453C6.09295 79.5453 14.593 81.5453 22.593 81.0453V79.5453H40.0929C39.4263 71.0453 41.0929 60.5453 50.0929 53.5453C47.5929 49.5453 40.5929 45.0453 37.5929 44.5453C27.5929 43.5453 12.593 46.0453 10.593 48.0453Z" fill="#EDADBF" stroke="black" stroke-width="0.5"/>
<path d="M93.5938 35.5454C75.7604 36.3787 44.0938 41.2454 33.5938 44.2454L37.5938 44.5454C42.5938 46.0454 48.0938 50.3787 50.0938 53.5454C63.0928 44.0454 88.5928 51.0454 87.0928 78.5454H97.0928C90.0928 67.5454 91.0928 45.5454 93.5938 35.5454Z" fill="#EDADBF" stroke="black" stroke-width="0.5"/>
<path d="M10.5918 48.0455H4.5918C37.092 28.5454 59.092 34.5454 85.0918 30.0454L94.092 35.5454C77.092 36.5454 48.0918 40.0454 34.0918 44.2454C26.0918 44.0454 12.0918 46.0454 10.5918 48.0455Z" fill="#EDADBF" stroke="black" stroke-width="0.5"/>
<path d="M37.5937 44.5455C30.0937 43.5454 13.0937 45.5454 10.5937 48.0455C9.79374 50.4454 12.9271 53.3787 14.5937 54.5454C24.0938 56.0454 37.5937 50.0454 37.5937 44.5455Z" fill="#EDADBF" stroke="black" stroke-width="0.5"/>
<path d="M4.59298 48.0454C11.593 49.0454 5.59298 59.5454 2.59298 64.5454C2.09291 57.5454 2.59277 52.0454 4.59298 48.0454Z" fill="#EDADBF" stroke="black" stroke-width="0.5"/>
<path d="M22.5923 84.0454V79.5454H40.0923L40.5923 84.0454H22.5923Z" fill="#EDADBF" stroke="black" stroke-width="0.5"/>
<path d="M3.09375 65.5454C4.59375 68.0454 6.59375 71.2121 6.09375 73.0454M22.5938 79.5454C12.0938 80.0454 7.59375 76.0454 8.59375 72.5454C9.09375 72.0454 10.5938 70.5454 11.5938 70.5454" stroke="black" stroke-width="0.5"/>
<path d="M32.5938 74.5455C30.0938 70.5455 24.5938 65.5456 21.5938 64.0456C19.8437 63.5456 17.2186 63.6706 14.4685 64.0456C12.8436 65.3789 11.5938 68.5455 12.0938 71.5455C12.0938 72.7122 13.4012 75.0455 16.0938 75.0455C20.5938 75.0455 27.5938 75.5455 32.5938 74.5455Z" fill="#EDADBF"/>
<path d="M6.59375 65.5456C8.84369 65.0456 11.7186 64.4206 14.4685 64.0456M14.4685 64.0456C17.2186 63.6706 19.8437 63.5456 21.5938 64.0456C24.5938 65.5456 30.0938 70.5455 32.5938 74.5455C27.5938 75.5455 20.5938 75.0455 16.0938 75.0455C13.4012 75.0455 12.0938 72.7122 12.0938 71.5455C11.5938 68.5455 12.8436 65.3789 14.4685 64.0456Z" stroke="black" stroke-width="0.5"/>
<path d="M12.0938 71.0456C20.0938 69.5457 23.5938 72.1741 26.5938 73.6741M13.5938 74.0457L31.0938 73.5457" stroke="black" stroke-width="0.5"/>
<path d="M22.5918 82.5454H32.0918C34.0918 82.5454 35.5918 80.5454 35.0918 79.5454M38.5918 79.5454V84.0454" stroke="black" stroke-width="0.5"/>
<path d="M22.5937 81.0457C18.0937 81.0457 13.5937 81.5457 2.0937 78.5457V76.5457L6.0937 74.5456V73.0457L2.0937 72.5457C1.59277 71.0454 0.592969 68.0454 2.59296 65.5454C2.09321 57.5454 2.59321 51.0454 4.5937 48.0452C37.0937 28.5455 59.0937 34.5456 85.0937 30.0456C163.094 -24.9545 245.094 12.0454 282.094 26.5456L295.594 28.5454L296.094 35.5454V38.5454C297.592 43.5454 298.927 48.0454 297.594 50.0454C300.094 51.0454 302.594 54.2121 302.594 56.0454L300.594 66.0454C301.046 76.8933 298.638 77.1176 289.306 77.43C288.315 77.4632 286.246 77.4974 285.094 77.5454V79.0454L260.094 79.4764M22.5937 81.0457V84.0457H40.592L40.0937 79.5457M22.5937 81.0457V79.5457H40.0937M40.0937 79.5457C37.0937 38.0457 90.5937 41.0457 87.0937 80.0457V82.5454H213.594C207.594 39.0454 262.094 39.0454 260.094 79.4764M259.592 79.4764H260.094" stroke="black"/>
</svg>
