<svg width="303" height="95" viewBox="0 0 303 95" fill="none" xmlns="http://www.w3.org/2000/svg">
<circle cx="62.2607" cy="73.8914" r="20.5" fill="#E56E90" stroke="black"/>
<circle cx="235.261" cy="73.8914" r="20.5" fill="#E56E90" stroke="black"/>
<path d="M132.259 12.3912L130.759 8.89121C170.759 0.891325 192.259 1.39136 231.259 12.8913L227.759 17.3913C207.759 9.39127 189.759 8.39127 173.759 7.89133C171.259 7.39133 167.259 7.3913 164.759 7.89121C154.759 7.89133 142.759 9.39134 132.259 12.3912Z" fill="#E0426F" stroke="black" stroke-width="0.5"/>
<path d="M130.759 8.8914L130.259 7.3914C166.259 -3.60864 198.759 0.391232 234.259 9.3914L231.259 12.8914C191.259 0.391357 165.259 1.89136 130.759 8.8914Z" fill="#E0426F" stroke="black" stroke-width="0.5"/>
<path d="M130.759 8.89122C182.259 -2.6088 210.759 7.39124 231.259 12.8912" stroke="black" stroke-width="0.5"/>
<path d="M170.261 29.8914L173.761 7.89136C207.261 8.89136 218.761 14.3914 223.261 15.8914L225.743 27.8914C198.753 27.892 181.258 29.3915 170.261 29.8914Z" fill="#E0426F"/>
<path d="M226.261 30.3914L223.261 15.8914C218.761 14.3914 207.261 8.89136 173.761 7.89136L170.261 29.8914C181.261 29.3914 198.761 27.8914 225.761 27.8914" stroke="black" stroke-width="0.5"/>
<path d="M164.761 7.89136C131.761 8.89136 111.761 17.8914 92.7607 35.3914L95.2607 33.3914L159.261 30.3914L164.761 7.89136Z" fill="#E0426F" stroke="black" stroke-width="0.5"/>
<path d="M239.259 22.3914C235.592 19.7247 229.759 17.3914 223.259 15.8914L225.759 27.8914H232.259C235.259 26.3914 238.259 24.1601 239.259 22.3914Z" fill="#E0426F" stroke="black" stroke-width="0.5"/>
<path d="M96.2607 78.3914H163.261L197.761 76.8914H212.261L212.761 82.3914H198.761H97.7607H86.2607V78.3914H96.2607Z" fill="#E0426F"/>
<path d="M96.2607 78.3914H163.261L197.761 76.8914M96.2607 78.3914C96.2607 79.8914 96.7607 80.8914 97.7607 82.3914M96.2607 78.3914H86.2607V82.3914H97.7607M197.761 76.8914L198.761 82.3914M197.761 76.8914H212.261L212.761 82.3914H198.761M198.761 82.3914H97.7607" stroke="black" stroke-width="0.5"/>
<path d="M96.2599 78.3914C91.7607 73.8914 88.7608 51.8914 92.7599 35.3914L164.761 31.3914C160.761 36.3914 159.761 70.3914 163.261 78.3914H96.2599Z" fill="#E0426F" stroke="black" stroke-width="0.5"/>
<path d="M228.261 30.3914L164.761 31.3914C160.761 36.3914 159.761 70.3914 163.261 78.3914L197.761 76.8914C202.261 75.3914 208.761 69.8914 228.261 30.3914Z" fill="#E0426F" stroke="black" stroke-width="0.5"/>
<path d="M170.261 29.8914C165.761 30.3914 162.261 30.3914 159.261 30.3914L164.761 7.89143C167.761 7.39136 170.761 7.39136 173.761 7.89143L170.261 29.8914Z" fill="#E0426F" stroke="black" stroke-width="0.5"/>
<path d="M98.7607 31.8914C103.261 37.3914 110.261 33.8914 114.261 32.3914C115.261 16.8913 102.261 24.8912 98.7607 31.8914Z" fill="#E0426F" stroke="black" stroke-width="0.5"/>
<path d="M234.259 9.39136L231.259 12.8914C248.259 18.3914 258.759 21.3914 271.259 27.8914H272.759L280.759 26.3914C265.759 19.8914 258.259 17.3914 234.259 9.39136Z" fill="#E56E90" stroke="black" stroke-width="0.5"/>
<path d="M271.259 27.8914C260.759 22.3914 241.759 15.8914 231.259 12.8914L229.259 15.3914L244.259 22.8914C242.759 25.3914 238.759 27.3914 232.759 30.0914C244.759 29.3914 261.759 28.3914 271.259 27.8914Z" fill="#E56E90" stroke="black" stroke-width="0.5"/>
<path d="M276.761 34.1914L282.759 31.8914L272.26 27.8914L228.26 30.3914C220.76 45.3914 205.76 75.8914 197.76 76.8914H212.26C210.76 65.8914 220.26 42.3914 245.261 51.3914C255.761 45.8914 265.761 40.3914 276.761 34.1914Z" fill="#E56E90" stroke="black" stroke-width="0.5"/>
<path d="M277.759 33.8914C265.759 40.3914 255.759 45.8914 245.259 51.3914C249.759 54.3914 260.259 60.3914 259.259 79.3914L284.259 78.8914V77.3914C292.759 76.3914 301.259 79.8914 299.759 65.8914L301.759 55.8914C301.759 54.3914 299.259 50.3914 296.759 49.8914C298.259 47.3914 295.259 38.3914 295.259 38.3914V36.8914L291.259 33.8914L286.259 32.3914L282.759 31.8914L277.759 33.8914Z" fill="#E56E90" stroke="black" stroke-width="0.5"/>
<path d="M280.759 26.3914L272.259 27.8914L282.759 31.8914C292.259 32.8914 291.258 34.3914 295.253 36.8115L294.759 28.3914L280.759 26.3914Z" fill="#E56E90"/>
<path d="M295.259 36.8914L295.253 36.8115M295.253 36.8115L294.759 28.3914L280.759 26.3914L272.259 27.8914L282.759 31.8914C292.259 32.8914 291.258 34.3914 295.253 36.8115Z" stroke="black" stroke-width="0.5"/>
<path d="M293.761 36.3916C293.261 33.8914 282.261 33.6914 276.761 34.1914" stroke="black" stroke-width="0.5"/>
<path d="M299.761 66.3914L260.261 68.3914C259.761 63.3914 257.594 59.2247 255.761 57.3914L301.761 54.8914M300.261 52.3914C289.261 50.8914 278.261 46.0914 266.261 40.0914M228.261 30.3914L272.261 27.8914L280.761 26.3914" stroke="black" stroke-width="0.5"/>
<path d="M290.261 40.3914C290.261 38.3914 289.261 34.3914 285.761 32.3914C287.982 32.3914 291.358 33.4317 293.87 35.8013C294.333 37.3313 293.261 40.8914 290.219 42.3914C290.205 41.8011 290.261 41.1156 290.261 40.3914Z" fill="#E56E90"/>
<path d="M272.261 42.8914C279.256 43.2411 285.273 43.3462 290.654 43.8914M297.261 44.8914C295.158 44.4407 292.964 44.1255 290.654 43.8914M295.261 37.3914C294.843 36.8062 294.374 36.277 293.87 35.8013M290.654 43.8914C290.328 43.5466 290.234 43.0235 290.219 42.3914M290.219 42.3914C290.205 41.8011 290.261 41.1156 290.261 40.3914C290.261 38.3914 289.261 34.3914 285.761 32.3914C287.982 32.3914 291.358 33.4317 293.87 35.8013M290.219 42.3914C293.261 40.8914 294.333 37.3313 293.87 35.8013" stroke="black" stroke-width="0.5"/>
<path d="M290.261 40.3914C285.761 40.3914 283.761 36.3914 282.761 33.8914" stroke="black" stroke-width="0.5"/>
<path d="M132.259 12.4913C118.759 16.4913 106.759 22.3914 92.7588 35.3914C99.7588 23.3914 115.259 13.8914 130.759 8.89136L132.259 12.4913Z" fill="#EDADBF" stroke="black" stroke-width="0.5"/>
<path d="M130.759 8.89136C110.759 14.5654 92.7588 31.8914 84.7588 29.8914C97.7588 20.3914 113.759 11.8914 130.259 7.39136L130.759 8.89136Z" fill="#EDADBF" stroke="black" stroke-width="0.5"/>
<path d="M9.75946 47.8912H3.75946C1.25879 51.8912 1.25879 61.8912 1.75946 65.3912C0.258789 66.3912 0.259387 70.8912 1.25946 72.3912L5.25946 72.8912V74.3912L1.25946 76.3912V78.3912C5.25946 79.3912 13.7595 81.3912 21.7595 80.8912V79.3912H39.2595C38.5928 70.8912 40.2595 60.3912 49.2595 53.3912C46.7595 49.3912 39.7595 44.8912 36.7595 44.3912C26.7595 43.3912 11.7595 45.8912 9.75946 47.8912Z" fill="#EDADBF" stroke="black" stroke-width="0.5"/>
<path d="M92.7607 35.3914C74.9274 36.2247 43.2607 41.0914 32.7607 44.0914L36.7607 44.3914C41.7607 45.8914 47.2607 50.2247 49.2607 53.3914C62.2598 43.8914 87.7598 50.8914 86.2598 78.3914H96.2598C89.2598 67.3914 90.2598 45.3914 92.7607 35.3914Z" fill="#EDADBF" stroke="black" stroke-width="0.5"/>
<path d="M9.75879 47.8914H3.75879C36.259 28.3913 58.259 34.3914 84.2588 29.8914L93.259 35.3914C76.259 36.3914 47.2588 39.8914 33.2588 44.0914C25.2588 43.8913 11.2588 45.8914 9.75879 47.8914Z" fill="#EDADBF" stroke="black" stroke-width="0.5"/>
<path d="M36.7602 44.3914C29.2602 43.3914 12.2602 45.3914 9.76024 47.8914C8.96024 50.2914 12.0936 53.2247 13.7602 54.3914C23.2603 55.8914 36.7602 49.8914 36.7602 44.3914Z" fill="#EDADBF" stroke="black" stroke-width="0.5"/>
<path d="M3.75948 47.8914C10.7595 48.8914 4.75948 59.3914 1.75948 64.3914C1.25941 57.3914 1.75928 51.8914 3.75948 47.8914Z" fill="#EDADBF" stroke="black" stroke-width="0.5"/>
<path d="M21.7588 83.8914V79.3914H39.2588L39.7588 83.8914H21.7588Z" fill="#EDADBF" stroke="black" stroke-width="0.5"/>
<path d="M2.26074 65.3911C3.76074 67.8911 5.76074 71.0578 5.26074 72.8911M21.7607 79.3911C11.2607 79.8911 6.76074 75.8911 7.76074 72.3911C8.26074 71.8911 9.76074 70.3911 10.7607 70.3911" stroke="black" stroke-width="0.5"/>
<path d="M31.7607 74.3912C29.2607 70.3912 23.7607 65.3913 20.7607 63.8913C19.0107 63.3913 16.3856 63.5163 13.6355 63.8913C12.0106 65.2246 10.7607 68.3912 11.2607 71.3912C11.2607 72.5579 12.5682 74.8912 15.2607 74.8912C19.7607 74.8912 26.7607 75.3912 31.7607 74.3912Z" fill="#EDADBF"/>
<path d="M5.76074 65.3913C8.01068 64.8913 10.8856 64.2663 13.6355 63.8913M13.6355 63.8913C16.3856 63.5163 19.0107 63.3913 20.7607 63.8913C23.7607 65.3913 29.2607 70.3912 31.7607 74.3912C26.7607 75.3912 19.7607 74.8912 15.2607 74.8912C12.5682 74.8912 11.2607 72.5579 11.2607 71.3912C10.7607 68.3912 12.0106 65.2246 13.6355 63.8913Z" stroke="black" stroke-width="0.5"/>
<path d="M11.2607 70.8913C19.2607 69.3914 22.7607 72.0198 25.7607 73.5198M12.7607 73.8914L30.2607 73.3914" stroke="black" stroke-width="0.5"/>
<path d="M21.7588 82.3911H31.2588C33.2588 82.3911 34.7588 80.3911 34.2588 79.3911M37.7588 79.3911V83.8911" stroke="black" stroke-width="0.5"/>
<path d="M21.7607 80.8916C17.2607 80.8916 12.7607 81.3916 1.26069 78.3916V76.3916L5.26069 74.3916V72.8916L1.26069 72.3916C0.759766 70.8914 -0.240039 67.8914 1.75996 65.3914C1.2602 57.3914 1.7602 50.8914 3.76069 47.8911C36.2607 28.3915 58.2607 34.3915 84.2607 29.8915C162.261 -25.1086 244.261 11.8913 281.261 26.3915L294.761 28.3914L295.261 35.3914V38.3914C296.759 43.3914 298.094 47.8914 296.761 49.8914C299.261 50.8914 301.761 54.058 301.761 55.8914L299.761 65.8914C300.213 76.7393 297.805 76.9635 288.473 77.276C287.482 77.3092 285.413 77.3434 284.261 77.3914V78.8914L259.261 79.3224M21.7607 80.8916V83.8916H39.759L39.2607 79.3916M21.7607 80.8916V79.3916H39.2607M39.2607 79.3916C36.2607 37.8916 89.7607 40.8916 86.2607 79.8916V82.3914H212.761C206.761 38.8914 261.261 38.8914 259.261 79.3224M258.759 79.3224H259.261" stroke="black"/>
</svg>
