<svg width="303" height="96" viewBox="0 0 303 96" fill="none" xmlns="http://www.w3.org/2000/svg">
<circle cx="62.2817" cy="74.3687" r="20.5" fill="#E56E90" stroke="black"/>
<circle cx="235.282" cy="74.3687" r="20.5" fill="#E56E90" stroke="black"/>
<path d="M132.28 12.8685L130.78 9.36851C170.78 1.36862 192.28 1.86865 231.28 13.3686L227.78 17.8686C207.78 9.86856 189.78 8.86856 173.78 8.36863C171.28 7.86863 167.28 7.86859 164.78 8.36851C154.78 8.36863 142.78 9.86863 132.28 12.8685Z" fill="#EDADBF" stroke="black" stroke-width="0.5"/>
<path d="M130.78 9.3687L130.28 7.8687C166.28 -3.13135 198.78 0.868526 234.28 9.8687L231.28 13.3687C191.28 0.868652 165.28 2.36865 130.78 9.3687Z" fill="#EDADBF" stroke="black" stroke-width="0.5"/>
<path d="M130.78 9.36876C182.28 -2.13126 210.78 7.86877 231.28 13.3688" stroke="black" stroke-width="0.5"/>
<path d="M170.282 30.3687L173.782 8.36865C207.282 9.36865 218.782 14.8687 223.282 16.3687L225.764 28.3687C198.774 28.3693 181.279 29.8688 170.282 30.3687Z" fill="#EDADBF"/>
<path d="M226.282 30.8687L223.282 16.3687C218.782 14.8687 207.282 9.36865 173.782 8.36865L170.282 30.3687C181.282 29.8687 198.782 28.3687 225.782 28.3687" stroke="black" stroke-width="0.5"/>
<path d="M164.782 8.36865C131.782 9.36865 111.782 18.3687 92.7817 35.8687L95.2817 33.8687L159.282 30.8687L164.782 8.36865Z" fill="#EDADBF" stroke="black" stroke-width="0.5"/>
<path d="M239.28 22.8687C235.614 20.202 229.78 17.8687 223.28 16.3687L225.78 28.3687H232.28C235.28 26.8687 238.28 24.6374 239.28 22.8687Z" fill="#EDADBF" stroke="black" stroke-width="0.5"/>
<path d="M96.2817 78.8687H163.282L197.782 77.3687H212.282L212.782 82.8687H198.782H97.7817H86.2817V78.8687H96.2817Z" fill="#EDADBF"/>
<path d="M96.2817 78.8687H163.282L197.782 77.3687M96.2817 78.8687C96.2817 80.3687 96.7817 81.3687 97.7817 82.8687M96.2817 78.8687H86.2817V82.8687H97.7817M197.782 77.3687L198.782 82.8687M197.782 77.3687H212.282L212.782 82.8687H198.782M198.782 82.8687H97.7817" stroke="black" stroke-width="0.5"/>
<path d="M96.2809 78.8687C91.7817 74.3687 88.7818 52.3687 92.7809 35.8687L164.782 31.8687C160.782 36.8687 159.782 70.8687 163.282 78.8687H96.2809Z" fill="#EDADBF" stroke="black" stroke-width="0.5"/>
<path d="M228.281 30.8687L164.781 31.8687C160.781 36.8687 159.781 70.8687 163.281 78.8687L197.781 77.3687C202.281 75.8687 208.781 70.3687 228.281 30.8687Z" fill="#EDADBF" stroke="black" stroke-width="0.5"/>
<path d="M170.282 30.3687C165.782 30.8687 162.282 30.8687 159.282 30.8687L164.782 8.36873C167.782 7.86865 170.782 7.86865 173.782 8.36873L170.282 30.3687Z" fill="#EDADBF" stroke="black" stroke-width="0.5"/>
<path d="M98.7817 32.3689C103.282 37.8689 110.282 34.3689 114.282 32.8689C115.282 17.3688 102.282 25.3688 98.7817 32.3689Z" fill="#EDADBF" stroke="black" stroke-width="0.5"/>
<path d="M234.28 9.86865L231.28 13.3687C248.28 18.8687 258.78 21.8687 271.28 28.3687H272.78L280.78 26.8687C265.78 20.3687 258.28 17.8687 234.28 9.86865Z" fill="#EFC7D3" stroke="black" stroke-width="0.5"/>
<path d="M271.28 28.3687C260.78 22.8687 241.78 16.3687 231.28 13.3687L229.28 15.8687L244.28 23.3687C242.78 25.8687 238.78 27.8687 232.78 30.5687C244.78 29.8687 261.78 28.8687 271.28 28.3687Z" fill="#EFC7D3" stroke="black" stroke-width="0.5"/>
<path d="M276.782 34.6687L282.78 32.3687L272.281 28.3687L228.281 30.8687C220.781 45.8687 205.781 76.3687 197.781 77.3687H212.281C210.781 66.3687 220.281 42.8687 245.282 51.8687C255.782 46.3687 265.782 40.8687 276.782 34.6687Z" fill="#EFC7D3" stroke="black" stroke-width="0.5"/>
<path d="M277.78 34.3687C265.78 40.8687 255.78 46.3687 245.28 51.8687C249.78 54.8687 260.28 60.8687 259.28 79.8687L284.28 79.3687V77.8687C292.78 76.8687 301.28 80.3687 299.78 66.3687L301.78 56.3687C301.78 54.8687 299.28 50.8687 296.78 50.3687C298.28 47.8687 295.28 38.8687 295.28 38.8687V37.3687L291.28 34.3687L286.28 32.8687L282.78 32.3687L277.78 34.3687Z" fill="#EFC7D3" stroke="black" stroke-width="0.5"/>
<path d="M280.78 26.8687L272.28 28.3687L282.78 32.3687C292.28 33.3687 291.279 34.8687 295.274 37.2888L294.78 28.8687L280.78 26.8687Z" fill="#EFC7D3"/>
<path d="M295.28 37.3687L295.274 37.2888M295.274 37.2888L294.78 28.8687L280.78 26.8687L272.28 28.3687L282.78 32.3687C292.28 33.3687 291.279 34.8687 295.274 37.2888Z" stroke="black" stroke-width="0.5"/>
<path d="M293.782 36.8689C293.282 34.3687 282.282 34.1687 276.782 34.6687" stroke="black" stroke-width="0.5"/>
<path d="M299.782 66.8687L260.282 68.8687C259.782 63.8687 257.615 59.702 255.782 57.8687L301.782 55.3687M300.282 52.8687C289.282 51.3687 278.282 46.5687 266.282 40.5687M228.282 30.8687L272.282 28.3687L280.782 26.8687" stroke="black" stroke-width="0.5"/>
<path d="M290.282 40.8687C290.282 38.8687 289.282 34.8687 285.782 32.8687C288.003 32.8687 291.379 33.909 293.891 36.2786C294.354 37.8086 293.282 41.3687 290.24 42.8687C290.226 42.2784 290.282 41.5929 290.282 40.8687Z" fill="#EFC7D3"/>
<path d="M272.282 43.3687C279.277 43.7184 285.294 43.8235 290.675 44.3687M297.282 45.3687C295.179 44.918 292.985 44.6028 290.675 44.3687M295.282 37.8687C294.864 37.2835 294.395 36.7543 293.891 36.2786M290.675 44.3687C290.349 44.0239 290.255 43.5008 290.24 42.8687M290.24 42.8687C290.226 42.2784 290.282 41.5929 290.282 40.8687C290.282 38.8687 289.282 34.8687 285.782 32.8687C288.003 32.8687 291.379 33.909 293.891 36.2786M290.24 42.8687C293.282 41.3687 294.354 37.8086 293.891 36.2786" stroke="black" stroke-width="0.5"/>
<path d="M290.282 40.8687C285.782 40.8687 283.782 36.8687 282.782 34.3687" stroke="black" stroke-width="0.5"/>
<path d="M132.28 12.9686C118.78 16.9686 106.78 22.8687 92.7803 35.8687C99.7803 23.8687 115.28 14.3687 130.78 9.36865L132.28 12.9686Z" fill="#E56E90" stroke="black" stroke-width="0.5"/>
<path d="M130.78 9.36865C110.78 15.0427 92.7803 32.3687 84.7803 30.3687C97.7803 20.8687 113.78 12.3687 130.28 7.86865L130.78 9.36865Z" fill="#E56E90" stroke="black" stroke-width="0.5"/>
<path d="M9.78094 48.3685H3.78094C1.28027 52.3685 1.28027 62.3685 1.78094 65.8685C0.280273 66.8685 0.280871 71.3685 1.28094 72.8685L5.28094 73.3685V74.8685L1.28094 76.8685V78.8685C5.28094 79.8685 13.7809 81.8685 21.7809 81.3685V79.8685H39.2809C38.6143 71.3685 40.2809 60.8685 49.2809 53.8685C46.7809 49.8685 39.7809 45.3685 36.7809 44.8685C26.7809 43.8685 11.7809 46.3685 9.78094 48.3685Z" fill="#E56E90" stroke="black" stroke-width="0.5"/>
<path d="M92.7817 35.8687C74.9484 36.702 43.2817 41.5687 32.7817 44.5687L36.7817 44.8687C41.7817 46.3687 47.2817 50.702 49.2817 53.8687C62.2808 44.3687 87.7808 51.3687 86.2808 78.8687H96.2808C89.2808 67.8687 90.2808 45.8687 92.7817 35.8687Z" fill="#E56E90" stroke="black" stroke-width="0.5"/>
<path d="M9.78027 48.3687H3.78027C36.2805 28.8686 58.2805 34.8687 84.2803 30.3687L93.2805 35.8687C76.2805 36.8687 47.2803 40.3686 33.2803 44.5687C25.2803 44.3686 11.2803 46.3686 9.78027 48.3687Z" fill="#E56E90" stroke="black" stroke-width="0.5"/>
<path d="M36.7817 44.8687C29.2817 43.8687 12.2817 45.8687 9.78173 48.3687C8.98173 50.7687 12.1151 53.702 13.7817 54.8687C23.2817 56.3687 36.7817 50.3687 36.7817 44.8687Z" fill="#E56E90" stroke="black" stroke-width="0.5"/>
<path d="M3.78097 48.3687C10.781 49.3687 4.78097 59.8687 1.78097 64.8687C1.2809 57.8687 1.78076 52.3687 3.78097 48.3687Z" fill="#E56E90" stroke="black" stroke-width="0.5"/>
<path d="M21.7803 84.3687V79.8687H39.2803L39.7803 84.3687H21.7803Z" fill="#E56E90" stroke="black" stroke-width="0.5"/>
<path d="M2.28223 65.8687C3.78223 68.3687 5.78223 71.5353 5.28223 73.3687M21.7822 79.8687C11.2822 80.3687 6.78223 76.3687 7.78223 72.8687C8.28223 72.3687 9.78223 70.8687 10.7822 70.8687" stroke="black" stroke-width="0.5"/>
<path d="M31.7822 74.8688C29.2822 70.8688 23.7822 65.8689 20.7822 64.3689C19.0322 63.8688 16.4071 63.9938 13.657 64.3689C12.0321 65.7022 10.7822 68.8688 11.2822 71.8688C11.2822 73.0354 12.5896 75.3688 15.2822 75.3688C19.7822 75.3688 26.7822 75.8688 31.7822 74.8688Z" fill="#E56E90"/>
<path d="M5.78223 65.8689C8.03217 65.3688 10.9071 64.7438 13.657 64.3689M13.657 64.3689C16.4071 63.9938 19.0322 63.8688 20.7822 64.3689C23.7822 65.8689 29.2822 70.8688 31.7822 74.8688C26.7822 75.8688 19.7822 75.3688 15.2822 75.3688C12.5896 75.3688 11.2822 73.0354 11.2822 71.8688C10.7822 68.8688 12.0321 65.7022 13.657 64.3689Z" stroke="black" stroke-width="0.5"/>
<path d="M11.2822 71.3688C19.2822 69.8689 22.7822 72.4974 25.7822 73.9974M12.7822 74.3689L30.2822 73.8689" stroke="black" stroke-width="0.5"/>
<path d="M21.7803 82.8687H31.2803C33.2803 82.8687 34.7803 80.8687 34.2803 79.8687M37.7803 79.8687V84.3687" stroke="black" stroke-width="0.5"/>
<path d="M21.7817 81.3689C17.2817 81.3689 12.7817 81.8689 1.28168 78.8689V76.8689L5.28168 74.8689V73.3689L1.28168 72.8689C0.780762 71.3687 -0.219042 68.3687 1.78095 65.8687C1.2812 57.8687 1.7812 51.3687 3.78168 48.3684C36.2817 28.8688 58.2817 34.8688 84.2817 30.3688C162.282 -24.6313 244.282 12.3686 281.282 26.8688L294.782 28.8687L295.282 35.8687V38.8687C296.78 43.8687 298.115 48.3687 296.782 50.3687C299.282 51.3687 301.782 54.5353 301.782 56.3687L299.782 66.3687C300.234 77.2166 297.826 77.4408 288.494 77.7533C287.503 77.7865 285.434 77.8206 284.282 77.8687V79.3687L259.282 79.7997M21.7817 81.3689V84.3689H39.78L39.2817 79.8689M21.7817 81.3689V79.8689H39.2817M39.2817 79.8689C36.2817 38.3689 89.7817 41.3689 86.2817 80.3689V82.8687H212.782C206.782 39.3687 261.282 39.3687 259.282 79.7997M258.78 79.7997H259.282" stroke="black"/>
</svg>
