<svg width="303" height="95" viewBox="0 0 303 95" fill="none" xmlns="http://www.w3.org/2000/svg">
<circle cx="62.4697" cy="73.8459" r="20.5" fill="#E0426F" stroke="black"/>
<circle cx="235.47" cy="73.8459" r="20.5" fill="#E0426F" stroke="black"/>
<path d="M132.468 12.3458L130.968 8.8458C170.968 0.845915 192.468 1.34595 231.468 12.8459L227.968 17.3459C207.968 9.34586 189.968 8.34586 173.968 7.84592C171.468 7.34592 167.468 7.34589 164.968 7.8458C154.968 7.84592 142.968 9.34592 132.468 12.3458Z" stroke="black" stroke-width="0.5"/>
<path d="M130.968 8.84599L130.468 7.34599C166.468 -3.65405 198.968 0.345821 234.468 9.34599L231.468 12.846C191.468 0.345947 165.468 1.84595 130.968 8.84599Z" stroke="black" stroke-width="0.5"/>
<path d="M130.968 8.84593C182.468 -2.65409 210.968 7.34595 231.468 12.8459" stroke="black" stroke-width="0.5"/>
<path d="M226.47 30.3459L223.47 15.8459C218.97 14.3459 207.47 8.84595 173.97 7.84595L170.47 29.8459C181.47 29.3459 198.97 27.8459 225.97 27.8459" stroke="black" stroke-width="0.5"/>
<path d="M164.97 7.84595C131.97 8.84595 111.97 17.8459 92.9697 35.3459L95.4697 33.3459L159.47 30.3459L164.97 7.84595Z" stroke="black" stroke-width="0.5"/>
<path d="M239.468 22.3459C235.801 19.6793 229.968 17.3459 223.468 15.8459L225.968 27.8459H232.468C235.468 26.3459 238.468 24.1147 239.468 22.3459Z" stroke="black" stroke-width="0.5"/>
<path d="M96.4697 78.3459H163.47L197.97 76.8459M96.4697 78.3459C96.4697 79.8459 96.9697 80.8459 97.9697 82.3459M96.4697 78.3459H86.4697V82.3459H97.9697M197.97 76.8459L198.97 82.3459M197.97 76.8459H212.47L212.97 82.3459H198.97M198.97 82.3459H97.9697" stroke="black" stroke-width="0.5"/>
<path d="M96.4689 78.3459C91.9697 73.8459 88.9698 51.8459 92.9689 35.3459L164.97 31.3459C160.97 36.3459 159.97 70.3459 163.47 78.3459H96.4689Z" stroke="black" stroke-width="0.5"/>
<path d="M228.47 30.3459L164.97 31.3459C160.97 36.3459 159.97 70.3459 163.47 78.3459L197.97 76.8459C202.47 75.3459 208.97 69.8459 228.47 30.3459Z" stroke="black" stroke-width="0.5"/>
<path d="M170.47 29.846C165.97 30.346 162.47 30.346 159.47 30.346L164.97 7.84602C167.97 7.34595 170.97 7.34595 173.97 7.84602L170.47 29.846Z" stroke="black" stroke-width="0.5"/>
<path d="M98.9697 31.8461C103.47 37.3461 110.47 33.8461 114.47 32.3461C115.47 16.846 102.47 24.8459 98.9697 31.8461Z" stroke="black" stroke-width="0.5"/>
<path d="M234.468 9.34595L231.468 12.8459C248.468 18.3459 258.968 21.3459 271.468 27.8459H272.968L280.968 26.3459C265.968 19.8459 258.468 17.3459 234.468 9.34595Z" fill="#EDADBF" stroke="black" stroke-width="0.5"/>
<path d="M271.468 27.8459C260.968 22.3459 241.968 15.8459 231.468 12.8459L229.468 15.3459L244.468 22.8459C242.968 25.3459 238.968 27.3459 232.968 30.0459C244.968 29.3459 261.968 28.3459 271.468 27.8459Z" fill="#EDADBF" stroke="black" stroke-width="0.5"/>
<path d="M276.97 34.1459L282.968 31.8459L272.469 27.8459L228.469 30.3459C220.969 45.3459 205.969 75.8459 197.969 76.8459H212.469C210.969 65.8459 220.469 42.3459 245.47 51.3459C255.97 45.8459 265.97 40.3459 276.97 34.1459Z" fill="#EDADBF" stroke="black" stroke-width="0.5"/>
<path d="M277.968 33.846C265.968 40.346 255.968 45.846 245.468 51.346C249.968 54.3459 260.468 60.3459 259.468 79.3459L284.468 78.8459V77.3459C292.968 76.3459 301.468 79.8459 299.968 65.8459L301.968 55.8459C301.968 54.3459 299.468 50.3459 296.968 49.8459C298.468 47.3459 295.468 38.3459 295.468 38.3459V36.8459L291.468 33.8459L286.468 32.3459L282.968 31.8459L277.968 33.846Z" fill="#EDADBF" stroke="black" stroke-width="0.5"/>
<path d="M280.968 26.3459L272.468 27.8459L282.968 31.8459C292.468 32.8459 291.467 34.3459 295.462 36.7661L294.968 28.3459L280.968 26.3459Z" fill="#EDADBF"/>
<path d="M295.468 36.8459L295.462 36.7661M295.462 36.7661L294.968 28.3459L280.968 26.3459L272.468 27.8459L282.968 31.8459C292.468 32.8459 291.467 34.3459 295.462 36.7661Z" stroke="black" stroke-width="0.5"/>
<path d="M293.97 36.3461C293.47 33.846 282.47 33.646 276.97 34.146" stroke="black" stroke-width="0.5"/>
<path d="M299.97 66.3459L260.47 68.3459C259.97 63.3459 257.803 59.1793 255.97 57.3459L301.97 54.8459M300.47 52.3459C289.47 50.8459 278.47 46.0459 266.47 40.0459M228.47 30.3459L272.47 27.8459L280.97 26.3459" stroke="black" stroke-width="0.5"/>
<path d="M290.47 40.3459C290.47 38.3459 289.47 34.3459 285.97 32.3459C288.191 32.3459 291.567 33.3863 294.079 35.7559C294.542 37.2859 293.47 40.8459 290.428 42.3459C290.414 41.7557 290.47 41.0702 290.47 40.3459Z" fill="#EDADBF"/>
<path d="M272.47 42.8459C279.465 43.1957 285.482 43.3008 290.863 43.8459M297.47 44.8459C295.367 44.3953 293.173 44.08 290.863 43.8459M295.47 37.3459C295.052 36.7608 294.583 36.2316 294.079 35.7559M290.863 43.8459C290.537 43.5012 290.443 42.9781 290.428 42.3459M290.428 42.3459C290.414 41.7557 290.47 41.0702 290.47 40.3459C290.47 38.3459 289.47 34.3459 285.97 32.3459C288.191 32.3459 291.567 33.3863 294.079 35.7559M290.428 42.3459C293.47 40.8459 294.542 37.2859 294.079 35.7559" stroke="black" stroke-width="0.5"/>
<path d="M290.47 40.3459C285.97 40.3459 283.97 36.3459 282.97 33.8459" stroke="black" stroke-width="0.5"/>
<path d="M132.468 12.4459C118.968 16.4459 106.968 22.3459 92.9678 35.3459C99.9678 23.3459 115.468 13.8459 130.968 8.84595L132.468 12.4459Z" fill="#E0426F" stroke="black" stroke-width="0.5"/>
<path d="M130.968 8.84595C110.968 14.52 92.9678 31.8459 84.9678 29.8459C97.9678 20.3459 113.968 11.8459 130.468 7.34595L130.968 8.84595Z" fill="#E0426F" stroke="black" stroke-width="0.5"/>
<path d="M9.96844 47.846H3.96844C1.46777 51.8459 1.46777 61.8459 1.96844 65.3459C0.467773 66.3459 0.468371 70.8459 1.46844 72.3459L5.46844 72.8459V74.3459L1.46844 76.3459V78.3459C5.46844 79.3459 13.9684 81.3459 21.9684 80.8459V79.3459H39.4684C38.8018 70.8459 40.4684 60.3459 49.4684 53.3459C46.9684 49.3459 39.9684 44.8459 36.9684 44.346C26.9684 43.3459 11.9684 45.846 9.96844 47.846Z" fill="#E0426F" stroke="black" stroke-width="0.5"/>
<path d="M92.9697 35.3459C75.1364 36.1793 43.4697 41.0459 32.9697 44.0459L36.9697 44.3459C41.9697 45.8459 47.4697 50.1793 49.4697 53.3459C62.4688 43.8459 87.9688 50.8459 86.4688 78.3459H96.4688C89.4688 67.3459 90.4688 45.3459 92.9697 35.3459Z" fill="#E0426F" stroke="black" stroke-width="0.5"/>
<path d="M9.96777 47.846H3.96777C36.468 28.3459 58.468 34.3459 84.4678 29.8459L93.468 35.3459C76.468 36.3459 47.4678 39.8459 33.4678 44.046C25.4678 43.8459 11.4678 45.8459 9.96777 47.846Z" fill="#E0426F" stroke="black" stroke-width="0.5"/>
<path d="M36.9692 44.346C29.4692 43.3459 12.4692 45.3459 9.96923 47.846C9.16923 50.246 12.3026 53.1793 13.9692 54.3459C23.4692 55.8459 36.9692 49.8459 36.9692 44.346Z" fill="#E0426F" stroke="black" stroke-width="0.5"/>
<path d="M3.96847 47.8459C10.9685 48.8459 4.96847 59.3459 1.96847 64.3459C1.4684 57.3459 1.96826 51.8459 3.96847 47.8459Z" fill="#E0426F" stroke="black" stroke-width="0.5"/>
<path d="M21.9678 83.8459V79.3459H39.4678L39.9678 83.8459H21.9678Z" fill="#E0426F" stroke="black" stroke-width="0.5"/>
<path d="M2.46973 65.3459C3.96973 67.8459 5.96973 71.0126 5.46973 72.8459M21.9697 79.3459C11.4697 79.8459 6.96973 75.8459 7.96973 72.3459C8.46973 71.8459 9.96973 70.3459 10.9697 70.3459" stroke="black" stroke-width="0.5"/>
<path d="M31.9697 74.3459C29.4697 70.3459 23.9697 65.346 20.9697 63.846C19.2197 63.346 16.5946 63.471 13.8445 63.846C12.2196 65.1793 10.9697 68.3459 11.4697 71.3459C11.4697 72.5126 12.7771 74.8459 15.4697 74.8459C19.9697 74.8459 26.9697 75.3459 31.9697 74.3459Z" fill="#E0426F"/>
<path d="M5.96973 65.346C8.21967 64.846 11.0946 64.221 13.8445 63.846M13.8445 63.846C16.5946 63.471 19.2197 63.346 20.9697 63.846C23.9697 65.346 29.4697 70.3459 31.9697 74.3459C26.9697 75.3459 19.9697 74.8459 15.4697 74.8459C12.7771 74.8459 11.4697 72.5126 11.4697 71.3459C10.9697 68.3459 12.2196 65.1793 13.8445 63.846Z" stroke="black" stroke-width="0.5"/>
<path d="M11.4697 70.846C19.4697 69.3461 22.9697 71.9745 25.9697 73.4745M12.9697 73.8461L30.4697 73.3461" stroke="black" stroke-width="0.5"/>
<path d="M21.9678 82.3459H31.4678C33.4678 82.3459 34.9678 80.3459 34.4678 79.3459M37.9678 79.3459V83.8459" stroke="black" stroke-width="0.5"/>
<path d="M21.9697 80.8462C17.4697 80.8462 12.9697 81.3462 1.46967 78.3462V76.3462L5.46967 74.3462V72.8462L1.46967 72.3462C0.96875 70.8459 -0.0310541 67.8459 1.96894 65.3459C1.46918 57.3459 1.96918 50.8459 3.96967 47.8457C36.4697 28.3461 58.4697 34.3461 84.4697 29.8461C162.47 -25.154 244.47 11.8459 281.47 26.3461L294.97 28.3459L295.47 35.3459V38.3459C296.968 43.3459 298.303 47.8459 296.97 49.8459C299.47 50.8459 301.97 54.0126 301.97 55.8459L299.97 65.8459C300.422 76.6939 298.013 76.9181 288.682 77.2306C287.691 77.2638 285.622 77.2979 284.47 77.3459V78.8459L259.47 79.277M21.9697 80.8462V83.8462H39.968L39.4697 79.3462M21.9697 80.8462V79.3462H39.4697M39.4697 79.3462C36.4697 37.8462 89.9697 40.8462 86.4697 79.8462V82.3459H212.97C206.97 38.8459 261.47 38.8459 259.47 79.277M258.968 79.277H259.47" stroke="black"/>
</svg>
