<svg width="304" height="95" viewBox="0 0 304 95" fill="none" xmlns="http://www.w3.org/2000/svg">
<circle cx="63.0635" cy="73.707" r="20.5" fill="#EDADBF" stroke="black"/>
<circle cx="236.063" cy="73.707" r="20.5" fill="#EDADBF" stroke="black"/>
<path d="M133.062 12.2069L131.562 8.70689C171.562 0.706999 193.062 1.20703 232.062 12.707L228.562 17.207C208.562 9.20694 190.562 8.20694 174.562 7.70701C172.062 7.20701 168.062 7.20697 165.562 7.70689C155.562 7.70701 143.562 9.20701 133.062 12.2069Z" fill="#E56E90" stroke="black" stroke-width="0.5"/>
<path d="M131.562 8.70708L131.062 7.20708C167.062 -3.79297 199.562 0.206905 235.062 9.20708L232.062 12.7071C192.062 0.207031 166.062 1.70703 131.562 8.70708Z" fill="#E56E90" stroke="black" stroke-width="0.5"/>
<path d="M131.562 8.70714C183.062 -2.79288 211.562 7.20715 232.062 12.7071" stroke="black" stroke-width="0.5"/>
<path d="M171.063 29.707L174.563 7.70703C208.063 8.70703 219.563 14.207 224.063 15.707L226.546 27.707C199.556 27.7077 182.061 29.2071 171.063 29.707Z" fill="#E56E90"/>
<path d="M227.063 30.207L224.063 15.707C219.563 14.207 208.063 8.70703 174.563 7.70703L171.063 29.707C182.063 29.207 199.563 27.707 226.563 27.707" stroke="black" stroke-width="0.5"/>
<path d="M165.563 7.70703C132.563 8.70703 112.563 17.707 93.5635 35.207L96.0635 33.207L160.063 30.207L165.563 7.70703Z" fill="#E56E90" stroke="black" stroke-width="0.5"/>
<path d="M240.062 22.207C236.395 19.5404 230.562 17.207 224.062 15.707L226.562 27.707H233.062C236.062 26.207 239.062 23.9758 240.062 22.207Z" fill="#E56E90" stroke="black" stroke-width="0.5"/>
<path d="M97.0635 78.207H164.063L198.563 76.707H213.063L213.563 82.207H199.563H98.5635H87.0635V78.207H97.0635Z" fill="#E56E90"/>
<path d="M97.0635 78.207H164.063L198.563 76.707M97.0635 78.207C97.0635 79.707 97.5635 80.707 98.5635 82.207M97.0635 78.207H87.0635V82.207H98.5635M198.563 76.707L199.563 82.207M198.563 76.707H213.063L213.563 82.207H199.563M199.563 82.207H98.5635" stroke="black" stroke-width="0.5"/>
<path d="M97.0626 78.207C92.5635 73.707 89.5635 51.707 93.5626 35.207L165.563 31.207C161.563 36.207 160.563 70.207 164.063 78.207H97.0626Z" fill="#E56E90" stroke="black" stroke-width="0.5"/>
<path d="M229.063 30.207L165.563 31.207C161.564 36.207 160.564 70.207 164.063 78.207L198.563 76.707C203.063 75.207 209.563 69.707 229.063 30.207Z" fill="#E56E90" stroke="black" stroke-width="0.5"/>
<path d="M171.063 29.7071C166.563 30.2071 163.063 30.2071 160.063 30.2071L165.563 7.70711C168.563 7.20703 171.563 7.20703 174.563 7.70711L171.063 29.7071Z" fill="#E56E90" stroke="black" stroke-width="0.5"/>
<path d="M99.5635 31.7073C104.063 37.2073 111.063 33.7073 115.063 32.2073C116.063 16.7072 103.063 24.7072 99.5635 31.7073Z" fill="#E56E90" stroke="black" stroke-width="0.5"/>
<path d="M235.062 9.20703L232.062 12.707C249.062 18.207 259.562 21.207 272.062 27.707H273.562L281.562 26.207C266.562 19.707 259.062 17.207 235.062 9.20703Z" fill="#E56E90" stroke="black" stroke-width="0.5"/>
<path d="M272.062 27.707C261.562 22.207 242.562 15.707 232.062 12.707L230.062 15.207L245.062 22.707C243.562 25.207 239.562 27.207 233.562 29.907C245.562 29.207 262.562 28.207 272.062 27.707Z" fill="#E56E90" stroke="black" stroke-width="0.5"/>
<path d="M277.563 34.007L283.562 31.707L273.062 27.707L229.062 30.207C221.562 45.207 206.562 75.707 198.562 76.707H213.062C211.562 65.707 221.062 42.207 246.063 51.207C256.563 45.707 266.563 40.207 277.563 34.007Z" fill="#E56E90" stroke="black" stroke-width="0.5"/>
<path d="M278.562 33.7071C266.562 40.2071 256.562 45.7071 246.062 51.2071C250.562 54.207 261.062 60.207 260.062 79.207L285.062 78.707V77.207C293.562 76.207 302.062 79.707 300.562 65.707L302.562 55.707C302.562 54.207 300.062 50.207 297.562 49.707C299.062 47.207 296.062 38.207 296.062 38.207V36.707L292.062 33.707L287.062 32.207L283.562 31.707L278.562 33.7071Z" fill="#E56E90" stroke="black" stroke-width="0.5"/>
<path d="M281.562 26.207L273.062 27.707L283.562 31.707C293.062 32.707 292.06 34.207 296.056 36.6272L295.562 28.207L281.562 26.207Z" fill="#E56E90"/>
<path d="M296.062 36.707L296.056 36.6272M296.056 36.6272L295.562 28.207L281.562 26.207L273.062 27.707L283.562 31.707C293.062 32.707 292.06 34.207 296.056 36.6272Z" stroke="black" stroke-width="0.5"/>
<path d="M294.563 36.2072C294.063 33.7071 283.063 33.507 277.563 34.007" stroke="black" stroke-width="0.5"/>
<path d="M300.563 66.207L261.063 68.207C260.563 63.207 258.397 59.0404 256.563 57.207L302.563 54.707M301.063 52.207C290.063 50.707 279.063 45.907 267.063 39.907M229.063 30.207L273.063 27.707L281.563 26.207" stroke="black" stroke-width="0.5"/>
<path d="M291.063 40.207C291.063 38.207 290.063 34.207 286.563 32.207C288.784 32.207 292.161 33.2474 294.672 35.617C295.136 37.147 294.063 40.707 291.022 42.207C291.008 41.6167 291.063 40.9313 291.063 40.207Z" fill="#E56E90"/>
<path d="M273.063 42.707C280.059 43.0568 286.076 43.1619 291.457 43.707M298.063 44.707C295.96 44.2564 293.767 43.9411 291.457 43.707M296.063 37.207C295.646 36.6219 295.176 36.0927 294.672 35.617M291.457 43.707C291.13 43.3623 291.036 42.8392 291.022 42.207M291.022 42.207C291.008 41.6168 291.063 40.9313 291.063 40.207C291.063 38.207 290.063 34.207 286.563 32.207C288.784 32.207 292.161 33.2474 294.672 35.617M291.022 42.207C294.063 40.707 295.136 37.147 294.672 35.617" stroke="black" stroke-width="0.5"/>
<path d="M291.063 40.207C286.563 40.207 284.563 36.207 283.563 33.707" stroke="black" stroke-width="0.5"/>
<path d="M133.062 12.307C119.562 16.307 107.562 22.207 93.5615 35.207C100.562 23.207 116.062 13.707 131.562 8.70703L133.062 12.307Z" stroke="black" stroke-width="0.5"/>
<path d="M131.562 8.70703C111.562 14.3811 93.5615 31.707 85.5615 29.707C98.5615 20.207 114.562 11.707 131.062 7.20703L131.562 8.70703Z" stroke="black" stroke-width="0.5"/>
<path d="M10.5622 47.7069H4.56219C2.06152 51.7069 2.06152 61.7069 2.56219 65.2069C1.06152 66.2069 1.06212 70.7069 2.06219 72.2069L6.06219 72.7069V74.2069L2.06219 76.2069V78.2069C6.06219 79.2069 14.5622 81.2069 22.5622 80.7069V79.2069H40.0622C39.3955 70.7069 41.0622 60.2069 50.0622 53.2069C47.5622 49.2069 40.5622 44.7069 37.5622 44.2069C27.5622 43.2069 12.5622 45.7069 10.5622 47.7069Z" stroke="black" stroke-width="0.5"/>
<path d="M93.5635 35.207C75.7301 36.0404 44.0635 40.907 33.5635 43.907L37.5635 44.207C42.5635 45.707 48.0635 50.0404 50.0635 53.207C63.0625 43.707 88.5625 50.707 87.0625 78.207H97.0625C90.0625 67.207 91.0625 45.207 93.5635 35.207Z" stroke="black" stroke-width="0.5"/>
<path d="M10.5615 47.7071H4.56152C37.0617 28.207 59.0618 34.207 85.0615 29.707L94.0618 35.207C77.0618 36.207 48.0615 39.707 34.0615 43.907C26.0615 43.707 12.0615 45.707 10.5615 47.7071Z" stroke="black" stroke-width="0.5"/>
<path d="M37.563 44.2071C30.063 43.207 13.063 45.207 10.563 47.7071C9.76298 50.107 12.8963 53.0404 14.563 54.207C24.063 55.707 37.563 49.707 37.563 44.2071Z" stroke="black" stroke-width="0.5"/>
<path d="M4.56222 47.707C11.5622 48.707 5.56222 59.207 2.56222 64.207C2.06215 57.207 2.56201 51.707 4.56222 47.707Z" stroke="black" stroke-width="0.5"/>
<path d="M22.5615 83.707V79.207H40.0615L40.5615 83.707H22.5615Z" stroke="black" stroke-width="0.5"/>
<path d="M3.06348 65.207C4.56348 67.707 6.56348 70.8737 6.06348 72.707M22.5635 79.207C12.0635 79.707 7.56348 75.707 8.56348 72.207C9.06348 71.707 10.5635 70.207 11.5635 70.207" stroke="black" stroke-width="0.5"/>
<path d="M6.56348 65.2072C8.81342 64.7072 11.6883 64.0822 14.4383 63.7072M14.4383 63.7072C17.1883 63.3322 19.8134 63.2072 21.5635 63.7072C24.5635 65.2072 30.0635 70.2072 32.5635 74.2072C27.5635 75.2072 20.5635 74.7072 16.0635 74.7072C13.3709 74.7072 12.0635 72.3738 12.0635 71.2072C11.5635 68.2072 12.8133 65.0405 14.4383 63.7072Z" stroke="black" stroke-width="0.5"/>
<path d="M12.0635 70.7072C20.0635 69.2073 23.5635 71.8358 26.5635 73.3358M13.5635 73.7073L31.0635 73.2073" stroke="black" stroke-width="0.5"/>
<path d="M22.5615 82.207H32.0615C34.0615 82.207 35.5615 80.207 35.0615 79.207M38.5615 79.207V83.707" stroke="black" stroke-width="0.5"/>
<path d="M22.5634 80.7073C18.0634 80.7073 13.5634 81.2073 2.06342 78.2073V76.2073L6.06342 74.2073V72.7073L2.06342 72.2073C1.5625 70.707 0.562696 67.707 2.56269 65.207C2.06293 57.207 2.56293 50.707 4.56342 47.7068C37.0634 28.2072 59.0634 34.2072 85.0634 29.7072C163.063 -25.2929 245.063 11.707 282.063 26.2072L295.563 28.207L296.063 35.207V38.207C297.562 43.207 298.897 47.707 297.563 49.707C300.063 50.707 302.563 53.8737 302.563 55.707L300.563 65.707C301.015 76.5549 298.607 76.7792 289.276 77.0917C288.285 77.1249 286.216 77.159 285.063 77.207V78.707L260.063 79.1381M22.5634 80.7073V83.7073H40.5618L40.0634 79.2073M22.5634 80.7073V79.2073H40.0634M40.0634 79.2073C37.0634 37.7073 90.5634 40.7073 87.0634 79.7073V82.207H213.563C207.563 38.707 262.063 38.707 260.063 79.1381M259.562 79.1381H260.063" stroke="black"/>
</svg>
