<svg width="303" height="96" viewBox="0 0 303 96" fill="none" xmlns="http://www.w3.org/2000/svg">
<circle cx="62.8545" cy="74.0605" r="20.5" fill="#EFC7D3" stroke="black"/>
<circle cx="235.854" cy="74.0605" r="20.5" fill="#EFC7D3" stroke="black"/>
<path d="M132.853 12.5604L131.353 9.0604C171.353 1.06051 192.853 1.56055 231.853 13.0605L228.353 17.5605C208.353 9.56046 190.353 8.56046 174.353 8.06052C171.853 7.56052 167.853 7.56049 165.353 8.0604C155.353 8.06052 143.353 9.56052 132.853 12.5604Z" fill="#E0426F" stroke="black" stroke-width="0.5"/>
<path d="M131.353 9.06059L130.853 7.56059C166.853 -3.43945 199.353 0.560421 234.853 9.56059L231.853 13.0606C191.853 0.560547 165.853 2.06055 131.353 9.06059Z" fill="#E0426F" stroke="black" stroke-width="0.5"/>
<path d="M131.353 9.06066C182.853 -2.43937 211.353 7.56067 231.853 13.0607" stroke="black" stroke-width="0.5"/>
<path d="M170.854 30.0605L174.354 8.06055C207.854 9.06055 219.354 14.5605 223.854 16.0605L226.337 28.0605C199.347 28.0612 181.852 29.5607 170.854 30.0605Z" fill="#E0426F"/>
<path d="M226.854 30.5605L223.854 16.0605C219.354 14.5605 207.854 9.06055 174.354 8.06055L170.854 30.0605C181.854 29.5605 199.354 28.0605 226.354 28.0605" stroke="black" stroke-width="0.5"/>
<path d="M165.354 8.06055C132.354 9.06055 112.354 18.0605 93.3545 35.5605L95.8545 33.5605L159.854 30.5605L165.354 8.06055Z" fill="#E0426F" stroke="black" stroke-width="0.5"/>
<path d="M239.853 22.5605C236.186 19.8939 230.353 17.5605 223.853 16.0605L226.353 28.0605H232.853C235.853 26.5605 238.853 24.3293 239.853 22.5605Z" fill="#E0426F" stroke="black" stroke-width="0.5"/>
<path d="M96.8545 78.5605H163.854L198.354 77.0605H212.854L213.354 82.5605H199.354H98.3545H86.8545V78.5605H96.8545Z" fill="#E0426F"/>
<path d="M96.8545 78.5605H163.854L198.354 77.0605M96.8545 78.5605C96.8545 80.0605 97.3545 81.0605 98.3545 82.5605M96.8545 78.5605H86.8545V82.5605H98.3545M198.354 77.0605L199.354 82.5605M198.354 77.0605H212.854L213.354 82.5605H199.354M199.354 82.5605H98.3545" stroke="black" stroke-width="0.5"/>
<path d="M96.8536 78.5605C92.3545 74.0605 89.3545 52.0605 93.3536 35.5605L165.354 31.5605C161.354 36.5605 160.354 70.5605 163.854 78.5605H96.8536Z" fill="#E0426F" stroke="black" stroke-width="0.5"/>
<path d="M228.854 30.5605L165.354 31.5605C161.355 36.5605 160.355 70.5605 163.854 78.5605L198.354 77.0605C202.854 75.5605 209.354 70.0605 228.854 30.5605Z" fill="#E0426F" stroke="black" stroke-width="0.5"/>
<path d="M170.854 30.0606C166.354 30.5606 162.854 30.5606 159.854 30.5606L165.354 8.06062C168.354 7.56055 171.354 7.56055 174.354 8.06062L170.854 30.0606Z" fill="#E0426F" stroke="black" stroke-width="0.5"/>
<path d="M99.3545 32.0608C103.854 37.5608 110.854 34.0608 114.854 32.5608C115.854 17.0607 102.854 25.0607 99.3545 32.0608Z" fill="#E0426F" stroke="black" stroke-width="0.5"/>
<path d="M234.853 9.56055L231.853 13.0605C248.853 18.5605 259.353 21.5605 271.853 28.0605H273.353L281.353 26.5605C266.353 20.0605 258.853 17.5605 234.853 9.56055Z" fill="#E0426F" stroke="black" stroke-width="0.5"/>
<path d="M271.853 28.0605C261.353 22.5605 242.353 16.0605 231.853 13.0605L229.853 15.5605L244.853 23.0605C243.353 25.5605 239.353 27.5605 233.353 30.2605C245.353 29.5605 262.353 28.5605 271.853 28.0605Z" fill="#E0426F" stroke="black" stroke-width="0.5"/>
<path d="M277.354 34.3605L283.353 32.0605L272.854 28.0605L228.854 30.5605C221.354 45.5605 206.354 76.0605 198.354 77.0605H212.854C211.354 66.0605 220.854 42.5605 245.854 51.5605C256.354 46.0605 266.354 40.5605 277.354 34.3605Z" fill="#E0426F" stroke="black" stroke-width="0.5"/>
<path d="M278.353 34.0606C266.353 40.5606 256.353 46.0606 245.853 51.5606C250.353 54.5605 260.853 60.5605 259.853 79.5605L284.853 79.0605V77.5605C293.353 76.5605 301.853 80.0605 300.353 66.0605L302.353 56.0605C302.353 54.5605 299.853 50.5605 297.353 50.0605C298.853 47.5605 295.853 38.5605 295.853 38.5605V37.0605L291.853 34.0605L286.853 32.5605L283.353 32.0605L278.353 34.0606Z" fill="#E0426F" stroke="black" stroke-width="0.5"/>
<path d="M281.353 26.5605L272.853 28.0605L283.353 32.0605C292.853 33.0605 291.851 34.5605 295.847 36.9807L295.353 28.5605L281.353 26.5605Z" fill="#E0426F"/>
<path d="M295.853 37.0605L295.847 36.9807M295.847 36.9807L295.353 28.5605L281.353 26.5605L272.853 28.0605L283.353 32.0605C292.853 33.0605 291.851 34.5605 295.847 36.9807Z" stroke="black" stroke-width="0.5"/>
<path d="M294.354 36.5607C293.854 34.0606 282.854 33.8606 277.354 34.3606" stroke="black" stroke-width="0.5"/>
<path d="M300.354 66.5605L260.854 68.5605C260.354 63.5605 258.188 59.3939 256.354 57.5605L302.354 55.0605M300.854 52.5605C289.854 51.0605 278.854 46.2605 266.854 40.2605M228.854 30.5605L272.854 28.0605L281.354 26.5605" stroke="black" stroke-width="0.5"/>
<path d="M290.854 40.5605C290.854 38.5605 289.854 34.5605 286.354 32.5605C288.575 32.5605 291.952 33.6009 294.463 35.9705C294.927 37.5005 293.854 41.0605 290.813 42.5605C290.799 41.9703 290.854 41.2848 290.854 40.5605Z" fill="#E0426F"/>
<path d="M272.854 43.0605C279.85 43.4103 285.867 43.5154 291.248 44.0605M297.854 45.0605C295.751 44.6099 293.558 44.2946 291.248 44.0605M295.854 37.5605C295.437 36.9754 294.967 36.4462 294.463 35.9705M291.248 44.0605C290.921 43.7158 290.827 43.1927 290.813 42.5605M290.813 42.5605C290.799 41.9703 290.854 41.2848 290.854 40.5605C290.854 38.5605 289.854 34.5605 286.354 32.5605C288.575 32.5605 291.952 33.6009 294.463 35.9705M290.813 42.5605C293.854 41.0605 294.927 37.5005 294.463 35.9705" stroke="black" stroke-width="0.5"/>
<path d="M290.854 40.5605C286.354 40.5605 284.354 36.5605 283.354 34.0605" stroke="black" stroke-width="0.5"/>
<path d="M132.853 12.6605C119.353 16.6605 107.353 22.5605 93.3525 35.5605C100.353 23.5605 115.853 14.0605 131.353 9.06055L132.853 12.6605Z" fill="#E56E90" stroke="black" stroke-width="0.5"/>
<path d="M131.353 9.06055C111.353 14.7346 93.3525 32.0605 85.3525 30.0605C98.3525 20.5605 114.353 12.0605 130.853 7.56055L131.353 9.06055Z" fill="#E56E90" stroke="black" stroke-width="0.5"/>
<path d="M10.3532 48.0604H4.35321C1.85254 52.0604 1.85254 62.0604 2.35321 65.5604C0.852539 66.5604 0.853137 71.0604 1.85321 72.5604L5.85321 73.0604V74.5604L1.85321 76.5604V78.5604C5.85321 79.5604 14.3532 81.5604 22.3532 81.0604V79.5604H39.8532C39.1865 71.0604 40.8532 60.5604 49.8532 53.5604C47.3532 49.5604 40.3532 45.0604 37.3532 44.5604C27.3532 43.5604 12.3532 46.0604 10.3532 48.0604Z" fill="#E56E90" stroke="black" stroke-width="0.5"/>
<path d="M93.3545 35.5605C75.5212 36.3939 43.8545 41.2605 33.3545 44.2605L37.3545 44.5605C42.3545 46.0605 47.8545 50.3939 49.8545 53.5605C62.8535 44.0605 88.3535 51.0605 86.8535 78.5605H96.8535C89.8535 67.5605 90.8535 45.5605 93.3545 35.5605Z" fill="#E56E90" stroke="black" stroke-width="0.5"/>
<path d="M10.3525 48.0606H4.35254C36.8527 28.5605 58.8528 34.5605 84.8525 30.0605L93.8528 35.5605C76.8528 36.5605 47.8525 40.0605 33.8525 44.2606C25.8525 44.0605 11.8525 46.0605 10.3525 48.0606Z" fill="#E56E90" stroke="black" stroke-width="0.5"/>
<path d="M37.354 44.5606C29.854 43.5605 12.854 45.5605 10.354 48.0606C9.55399 50.4606 12.6873 53.3939 14.354 54.5605C23.854 56.0605 37.354 50.0605 37.354 44.5606Z" fill="#E56E90" stroke="black" stroke-width="0.5"/>
<path d="M4.35323 48.0605C11.3532 49.0605 5.35323 59.5605 2.35323 64.5605C1.85316 57.5605 2.35303 52.0605 4.35323 48.0605Z" fill="#E56E90" stroke="black" stroke-width="0.5"/>
<path d="M22.3525 84.0605V79.5605H39.8525L40.3525 84.0605H22.3525Z" fill="#E56E90" stroke="black" stroke-width="0.5"/>
<path d="M2.85449 65.5605C4.35449 68.0605 6.35449 71.2272 5.85449 73.0605M22.3545 79.5605C11.8545 80.0605 7.35449 76.0605 8.35449 72.5605C8.85449 72.0605 10.3545 70.5605 11.3545 70.5605" stroke="black" stroke-width="0.5"/>
<path d="M32.3545 74.5607C29.8545 70.5607 24.3545 65.5607 21.3545 64.0607C19.6044 63.5607 16.9794 63.6857 14.2293 64.0607C12.6044 65.3941 11.3545 68.5607 11.8545 71.5607C11.8545 72.7273 13.1619 75.0607 15.8545 75.0607C20.3545 75.0607 27.3545 75.5607 32.3545 74.5607Z" fill="#E56E90"/>
<path d="M6.35449 65.5607C8.60443 65.0607 11.4793 64.4357 14.2293 64.0607M14.2293 64.0607C16.9794 63.6857 19.6044 63.5607 21.3545 64.0607C24.3545 65.5607 29.8545 70.5607 32.3545 74.5607C27.3545 75.5607 20.3545 75.0607 15.8545 75.0607C13.1619 75.0607 11.8545 72.7273 11.8545 71.5607C11.3545 68.5607 12.6043 65.3941 14.2293 64.0607Z" stroke="black" stroke-width="0.5"/>
<path d="M11.8545 71.0607C19.8545 69.5608 23.3545 72.1893 26.3545 73.6893M13.3545 74.0608L30.8545 73.5608" stroke="black" stroke-width="0.5"/>
<path d="M22.3525 82.5605H31.8525C33.8525 82.5605 35.3525 80.5605 34.8525 79.5605M38.3525 79.5605V84.0605" stroke="black" stroke-width="0.5"/>
<path d="M22.3544 81.0608C17.8544 81.0608 13.3544 81.5608 1.85444 78.5608V76.5608L5.85444 74.5608V73.0608L1.85444 72.5608C1.35352 71.0605 0.353711 68.0605 2.35371 65.5605C1.85395 57.5605 2.35395 51.0605 4.35444 48.0603C36.8544 28.5607 58.8544 34.5607 84.8544 30.0607C162.854 -24.9394 244.854 12.0605 281.854 26.5607L295.354 28.5605L295.854 35.5605V38.5605C297.353 43.5605 298.688 48.0605 297.354 50.0605C299.854 51.0605 302.354 54.2272 302.354 56.0605L300.354 66.0605C300.806 76.9085 298.398 77.1327 289.067 77.4452C288.076 77.4784 286.007 77.5125 284.854 77.5605V79.0605L259.854 79.4916M22.3544 81.0608V84.0608H40.3528L39.8544 79.5608M22.3544 81.0608V79.5608H39.8544M39.8544 79.5608C36.8544 38.0608 90.3544 41.0608 86.8544 80.0608V82.5605H213.354C207.354 39.0605 261.854 39.0605 259.854 79.4916M259.353 79.4916H259.854" stroke="black"/>
</svg>
