<svg width="303" height="95" viewBox="0 0 303 95" fill="none" xmlns="http://www.w3.org/2000/svg">
<circle cx="62.6875" cy="73.8762" r="20.5" stroke="black"/>
<circle cx="235.688" cy="73.8762" r="20.5" stroke="black"/>
<path d="M132.686 12.3761L131.186 8.87608C171.186 0.876188 192.686 1.37622 231.686 12.8762L228.186 17.3762C208.186 9.37613 190.186 8.37613 174.186 7.8762C171.686 7.3762 167.686 7.37616 165.186 7.87608C155.186 7.8762 143.186 9.3762 132.686 12.3761Z" fill="#E56E90" stroke="black" stroke-width="0.5"/>
<path d="M131.186 8.87627L130.686 7.37626C166.686 -3.62378 199.186 0.376095 234.686 9.37627L231.686 12.8763C191.686 0.376221 165.686 1.87622 131.186 8.87627Z" fill="#E56E90" stroke="black" stroke-width="0.5"/>
<path d="M131.186 8.87609C182.686 -2.62394 211.186 7.3761 231.686 12.8761" stroke="black" stroke-width="0.5"/>
<path d="M170.688 29.8762L174.188 7.87622C207.688 8.87622 219.188 14.3762 223.688 15.8762L226.17 27.8762C199.18 27.8769 181.685 29.3763 170.688 29.8762Z" fill="#E56E90"/>
<path d="M226.688 30.3762L223.688 15.8762C219.188 14.3762 207.688 8.87622 174.188 7.87622L170.688 29.8762C181.688 29.3762 199.188 27.8762 226.188 27.8762" stroke="black" stroke-width="0.5"/>
<path d="M165.188 7.87622C132.188 8.87622 112.188 17.8762 93.1875 35.3762L95.6875 33.3762L159.688 30.3762L165.188 7.87622Z" fill="#E56E90" stroke="black" stroke-width="0.5"/>
<path d="M239.686 22.3762C236.019 19.7096 230.186 17.3762 223.686 15.8762L226.186 27.8762H232.686C235.686 26.3762 238.686 24.145 239.686 22.3762Z" fill="#E56E90" stroke="black" stroke-width="0.5"/>
<path d="M96.6875 78.3762H163.688L198.188 76.8762H212.688L213.188 82.3762H199.188H98.1875H86.6875V78.3762H96.6875Z" fill="#E56E90"/>
<path d="M96.6875 78.3762H163.688L198.188 76.8762M96.6875 78.3762C96.6875 79.8762 97.1875 80.8762 98.1875 82.3762M96.6875 78.3762H86.6875V82.3762H98.1875M198.188 76.8762L199.188 82.3762M198.188 76.8762H212.688L213.188 82.3762H199.188M199.188 82.3762H98.1875" stroke="black" stroke-width="0.5"/>
<path d="M96.6866 78.3762C92.1875 73.8762 89.1875 51.8762 93.1866 35.3762L165.188 31.3762C161.188 36.3762 160.188 70.3762 163.687 78.3762H96.6866Z" fill="#E56E90" stroke="black" stroke-width="0.5"/>
<path d="M228.687 30.3762L165.187 31.3762C161.188 36.3762 160.188 70.3762 163.687 78.3762L198.187 76.8762C202.687 75.3762 209.187 69.8762 228.687 30.3762Z" fill="#E56E90" stroke="black" stroke-width="0.5"/>
<path d="M170.688 29.8763C166.188 30.3763 162.688 30.3763 159.688 30.3763L165.188 7.87629C168.188 7.37622 171.188 7.37622 174.188 7.87629L170.688 29.8763Z" fill="#E56E90" stroke="black" stroke-width="0.5"/>
<path d="M99.1875 31.8762C103.688 37.3762 110.688 33.8762 114.688 32.3762C115.688 16.8761 102.688 24.8761 99.1875 31.8762Z" fill="#E56E90" stroke="black" stroke-width="0.5"/>
<path d="M234.686 9.37622L231.686 12.8762C248.686 18.3762 259.186 21.3762 271.686 27.8762H273.186L281.186 26.3762C266.186 19.8762 258.686 17.3762 234.686 9.37622Z" fill="#EFC7D3" stroke="black" stroke-width="0.5"/>
<path d="M271.686 27.8762C261.186 22.3762 242.186 15.8762 231.686 12.8762L229.686 15.3762L244.686 22.8762C243.186 25.3762 239.186 27.3762 233.186 30.0762C245.186 29.3762 262.186 28.3762 271.686 27.8762Z" fill="#EFC7D3" stroke="black" stroke-width="0.5"/>
<path d="M277.188 34.1762L283.186 31.8762L272.687 27.8762L228.687 30.3762C221.187 45.3762 206.187 75.8762 198.187 76.8762H212.687C211.187 65.8762 220.687 42.3762 245.688 51.3762C256.188 45.8762 266.188 40.3762 277.188 34.1762Z" fill="#EFC7D3" stroke="black" stroke-width="0.5"/>
<path d="M278.186 33.8762C266.186 40.3762 256.186 45.8762 245.686 51.3762C250.186 54.3762 260.686 60.3762 259.686 79.3762L284.686 78.8762V77.3762C293.186 76.3762 301.686 79.8762 300.186 65.8762L302.186 55.8762C302.186 54.3762 299.686 50.3762 297.186 49.8762C298.686 47.3762 295.686 38.3762 295.686 38.3762V36.8762L291.686 33.8762L286.686 32.3762L283.186 31.8762L278.186 33.8762Z" fill="#EFC7D3" stroke="black" stroke-width="0.5"/>
<path d="M281.186 26.3762L272.686 27.8762L283.186 31.8762C292.686 32.8762 291.684 34.3762 295.68 36.7964L295.186 28.3762L281.186 26.3762Z" fill="#EFC7D3"/>
<path d="M295.686 36.8762L295.68 36.7964M295.68 36.7964L295.186 28.3762L281.186 26.3762L272.686 27.8762L283.186 31.8762C292.686 32.8762 291.684 34.3762 295.68 36.7964Z" stroke="black" stroke-width="0.5"/>
<path d="M294.188 36.3764C293.688 33.8763 282.688 33.6762 277.188 34.1762" stroke="black" stroke-width="0.5"/>
<path d="M300.188 66.3762L260.688 68.3762C260.188 63.3762 258.021 59.2096 256.188 57.3762L302.188 54.8762M300.688 52.3762C289.688 50.8762 278.688 46.0762 266.688 40.0762M228.688 30.3762L272.688 27.8762L281.188 26.3762" stroke="black" stroke-width="0.5"/>
<path d="M290.688 40.3762C290.688 38.3762 289.688 34.3762 286.188 32.3762C288.408 32.3762 291.785 33.4166 294.296 35.7862C294.76 37.3162 293.688 40.8762 290.646 42.3762C290.632 41.7859 290.688 41.1005 290.688 40.3762Z" fill="#EFC7D3"/>
<path d="M272.688 42.8762C279.683 43.226 285.7 43.3311 291.081 43.8762M297.688 44.8762C295.585 44.4256 293.391 44.1103 291.081 43.8762M295.688 37.3762C295.27 36.7911 294.8 36.2619 294.296 35.7862M291.081 43.8762C290.754 43.5315 290.66 43.0084 290.646 42.3762M290.646 42.3762C290.632 41.7859 290.688 41.1005 290.688 40.3762C290.688 38.3762 289.688 34.3762 286.188 32.3762C288.408 32.3762 291.785 33.4166 294.296 35.7862M290.646 42.3762C293.688 40.8762 294.76 37.3162 294.296 35.7862" stroke="black" stroke-width="0.5"/>
<path d="M290.688 40.3762C286.188 40.3762 284.188 36.3762 283.188 33.8762" stroke="black" stroke-width="0.5"/>
<path d="M132.686 12.4762C119.186 16.4762 107.186 22.3762 93.186 35.3762C100.186 23.3762 115.686 13.8762 131.186 8.87622L132.686 12.4762Z" fill="#EFC7D3" stroke="black" stroke-width="0.5"/>
<path d="M131.186 8.87622C111.186 14.5503 93.186 31.8762 85.186 29.8762C98.186 20.3762 114.186 11.8762 130.686 7.37622L131.186 8.87622Z" fill="#EFC7D3" stroke="black" stroke-width="0.5"/>
<path d="M10.1867 47.8761H4.1867C1.68604 51.8761 1.68604 61.8761 2.1867 65.3761C0.686035 66.3761 0.686633 70.8761 1.6867 72.3761L5.6867 72.8761V74.3761L1.6867 76.3761V78.3761C5.6867 79.3761 14.1867 81.3761 22.1867 80.8761V79.3761H39.6867C39.02 70.8761 40.6867 60.3761 49.6867 53.3761C47.1867 49.3761 40.1867 44.8761 37.1867 44.3761C27.1867 43.3761 12.1867 45.8761 10.1867 47.8761Z" fill="#EFC7D3" stroke="black" stroke-width="0.5"/>
<path d="M93.1875 35.3762C75.3542 36.2096 43.6875 41.0762 33.1875 44.0762L37.1875 44.3762C42.1875 45.8762 47.6875 50.2096 49.6875 53.3762C62.6865 43.8762 88.1865 50.8762 86.6865 78.3762H96.6865C89.6865 67.3762 90.6865 45.3762 93.1875 35.3762Z" fill="#EFC7D3" stroke="black" stroke-width="0.5"/>
<path d="M10.1855 47.8763H4.18555C36.6857 28.3762 58.6858 34.3762 84.6855 29.8762L93.6858 35.3762C76.6858 36.3762 47.6855 39.8762 33.6855 44.0762C25.6855 43.8762 11.6855 45.8762 10.1855 47.8763Z" fill="#EFC7D3" stroke="black" stroke-width="0.5"/>
<path d="M37.1875 44.3763C29.6875 43.3762 12.6875 45.3762 10.1875 47.8763C9.38749 50.2762 12.5208 53.2096 14.1875 54.3762C23.6875 55.8762 37.1875 49.8762 37.1875 44.3763Z" fill="#EFC7D3" stroke="black" stroke-width="0.5"/>
<path d="M4.18673 47.8762C11.1867 48.8762 5.18673 59.3762 2.18673 64.3762C1.68666 57.3762 2.18652 51.8762 4.18673 47.8762Z" fill="#EFC7D3" stroke="black" stroke-width="0.5"/>
<path d="M22.186 83.8762V79.3762H39.686L40.186 83.8762H22.186Z" fill="#EFC7D3" stroke="black" stroke-width="0.5"/>
<path d="M2.6875 65.376C4.1875 67.876 6.1875 71.0426 5.6875 72.876M22.1875 79.376C11.6875 79.876 7.1875 75.876 8.1875 72.376C8.6875 71.876 10.1875 70.376 11.1875 70.376" stroke="black" stroke-width="0.5"/>
<path d="M32.1875 74.3761C29.6875 70.3761 24.1875 65.3762 21.1875 63.8762C19.4375 63.3762 16.8124 63.5012 14.0623 63.8762C12.4374 65.2095 11.1875 68.3761 11.6875 71.3761C11.6875 72.5428 12.9949 74.8761 15.6875 74.8761C20.1875 74.8761 27.1875 75.3761 32.1875 74.3761Z" fill="#EFC7D3"/>
<path d="M6.1875 65.3762C8.43744 64.8762 11.3124 64.2512 14.0623 63.8762M14.0623 63.8762C16.8124 63.5012 19.4375 63.3762 21.1875 63.8762C24.1875 65.3762 29.6875 70.3761 32.1875 74.3761C27.1875 75.3761 20.1875 74.8761 15.6875 74.8761C12.9949 74.8761 11.6875 72.5428 11.6875 71.3761C11.1875 68.3761 12.4374 65.2095 14.0623 63.8762Z" stroke="black" stroke-width="0.5"/>
<path d="M11.6875 70.8762C19.6875 69.3762 23.1875 72.0047 26.1875 73.5047M13.1875 73.8762L30.6875 73.3762" stroke="black" stroke-width="0.5"/>
<path d="M22.1855 82.376H31.6855C33.6855 82.376 35.1855 80.376 34.6855 79.376M38.1855 79.376V83.876" stroke="black" stroke-width="0.5"/>
<path d="M22.1874 80.8765C17.6874 80.8765 13.1874 81.3765 1.68745 78.3765V76.3765L5.68745 74.3765V72.8765L1.68745 72.3765C1.18652 70.8762 0.186719 67.8762 2.18671 65.3762C1.68696 57.3762 2.18696 50.8762 4.18745 47.876C36.6874 28.3764 58.6874 34.3764 84.6874 29.8764C162.687 -25.1237 244.687 11.8762 281.687 26.3764L295.187 28.3762L295.687 35.3762V38.3762C297.186 43.3762 298.521 47.8762 297.187 49.8762C299.687 50.8762 302.187 54.0429 302.187 55.8762L300.187 65.8762C300.639 76.7241 298.231 76.9484 288.9 77.2609C287.909 77.294 285.84 77.3282 284.687 77.3762V78.8762L259.687 79.3073M22.1874 80.8765V83.8765H40.1858L39.6875 79.3765M22.1874 80.8765V79.3765H39.6875M39.6875 79.3765C36.6875 37.8765 90.1874 40.8765 86.6874 79.8765V82.3762H213.187C207.187 38.8762 261.687 38.8762 259.687 79.3073M259.186 79.3073H259.687" stroke="black"/>
</svg>
