<svg width="303" height="96" viewBox="0 0 303 96" fill="none" xmlns="http://www.w3.org/2000/svg">
<circle cx="62.8545" cy="74.3838" r="20.5" fill="#EFC7D3" stroke="black"/>
<circle cx="235.854" cy="74.3838" r="20.5" fill="#EFC7D3" stroke="black"/>
<path d="M132.853 12.8836L131.353 9.38364C171.353 1.38376 192.853 1.88379 231.853 13.3837L228.353 17.8837C208.353 9.8837 190.353 8.8837 174.353 8.38377C171.853 7.88377 167.853 7.88373 165.353 8.38364C155.353 8.38377 143.353 9.88377 132.853 12.8836Z" fill="#E56E90" stroke="black" stroke-width="0.5"/>
<path d="M131.353 9.38383L130.853 7.88383C166.853 -3.11621 199.353 0.883663 234.853 9.88383L231.853 13.3838C191.853 0.883789 165.853 2.38379 131.353 9.38383Z" fill="#E56E90" stroke="black" stroke-width="0.5"/>
<path d="M131.353 9.3839C182.853 -2.11613 211.353 7.88391 231.853 13.3839" stroke="black" stroke-width="0.5"/>
<path d="M170.854 30.3838L174.354 8.38379C207.854 9.38379 219.354 14.8838 223.854 16.3838L226.337 28.3838C199.347 28.3844 181.852 29.8839 170.854 30.3838Z" fill="#E56E90"/>
<path d="M226.854 30.8838L223.854 16.3838C219.354 14.8838 207.854 9.38379 174.354 8.38379L170.854 30.3838C181.854 29.8838 199.354 28.3838 226.354 28.3838" stroke="black" stroke-width="0.5"/>
<path d="M165.354 8.38379C132.354 9.38379 112.354 18.3838 93.3545 35.8838L95.8545 33.8838L159.854 30.8838L165.354 8.38379Z" fill="#E56E90" stroke="black" stroke-width="0.5"/>
<path d="M239.853 22.8838C236.186 20.2171 230.353 17.8838 223.853 16.3838L226.353 28.3838H232.853C235.853 26.8838 238.853 24.6525 239.853 22.8838Z" fill="#E56E90" stroke="black" stroke-width="0.5"/>
<path d="M96.8545 78.8838H163.854L198.354 77.3838H212.854L213.354 82.8838H199.354H98.3545H86.8545V78.8838H96.8545Z" fill="#E56E90"/>
<path d="M96.8545 78.8838H163.854L198.354 77.3838M96.8545 78.8838C96.8545 80.3838 97.3545 81.3838 98.3545 82.8838M96.8545 78.8838H86.8545V82.8838H98.3545M198.354 77.3838L199.354 82.8838M198.354 77.3838H212.854L213.354 82.8838H199.354M199.354 82.8838H98.3545" stroke="black" stroke-width="0.5"/>
<path d="M96.8536 78.8838C92.3545 74.3838 89.3545 52.3838 93.3536 35.8838L165.354 31.8838C161.354 36.8838 160.354 70.8838 163.854 78.8838H96.8536Z" fill="#E56E90" stroke="black" stroke-width="0.5"/>
<path d="M228.854 30.8838L165.354 31.8838C161.355 36.8838 160.355 70.8838 163.854 78.8838L198.354 77.3838C202.854 75.8838 209.354 70.3838 228.854 30.8838Z" fill="#E56E90" stroke="black" stroke-width="0.5"/>
<path d="M170.854 30.3839C166.354 30.8839 162.854 30.8839 159.854 30.8839L165.354 8.38386C168.354 7.88379 171.354 7.88379 174.354 8.38386L170.854 30.3839Z" fill="#E56E90" stroke="black" stroke-width="0.5"/>
<path d="M99.3545 32.384C103.854 37.884 110.854 34.384 114.854 32.884C115.854 17.3839 102.854 25.3839 99.3545 32.384Z" fill="#E56E90" stroke="black" stroke-width="0.5"/>
<path d="M234.853 9.88379L231.853 13.3838C248.853 18.8838 259.353 21.8838 271.853 28.3838H273.353L281.353 26.8838C266.353 20.3838 258.853 17.8838 234.853 9.88379Z" fill="#E0426F" stroke="black" stroke-width="0.5"/>
<path d="M271.853 28.3838C261.353 22.8838 242.353 16.3838 231.853 13.3838L229.853 15.8838L244.853 23.3838C243.353 25.8838 239.353 27.8838 233.353 30.5838C245.353 29.8838 262.353 28.8838 271.853 28.3838Z" fill="#E0426F" stroke="black" stroke-width="0.5"/>
<path d="M277.354 34.6838L283.353 32.3838L272.854 28.3838L228.854 30.8838C221.354 45.8838 206.354 76.3838 198.354 77.3838H212.854C211.354 66.3838 220.854 42.8838 245.854 51.8838C256.354 46.3838 266.354 40.8838 277.354 34.6838Z" fill="#E0426F" stroke="black" stroke-width="0.5"/>
<path d="M278.353 34.3838C266.353 40.8838 256.353 46.3838 245.853 51.8838C250.353 54.8838 260.853 60.8838 259.853 79.8838L284.853 79.3838V77.8838C293.353 76.8838 301.853 80.3838 300.353 66.3838L302.353 56.3838C302.353 54.8838 299.853 50.8838 297.353 50.3838C298.853 47.8838 295.853 38.8838 295.853 38.8838V37.3838L291.853 34.3838L286.853 32.8838L283.353 32.3838L278.353 34.3838Z" fill="#E0426F" stroke="black" stroke-width="0.5"/>
<path d="M281.353 26.8838L272.853 28.3838L283.353 32.3838C292.853 33.3838 291.851 34.8838 295.847 37.304L295.353 28.8838L281.353 26.8838Z" fill="#E0426F"/>
<path d="M295.853 37.3838L295.847 37.304M295.847 37.304L295.353 28.8838L281.353 26.8838L272.853 28.3838L283.353 32.3838C292.853 33.3838 291.851 34.8838 295.847 37.304Z" stroke="black" stroke-width="0.5"/>
<path d="M294.354 36.884C293.854 34.3839 282.854 34.1838 277.354 34.6838" stroke="black" stroke-width="0.5"/>
<path d="M300.354 66.8838L260.854 68.8838C260.354 63.8838 258.188 59.7171 256.354 57.8838L302.354 55.3838M300.854 52.8838C289.854 51.3838 278.854 46.5838 266.854 40.5838M228.854 30.8838L272.854 28.3838L281.354 26.8838" stroke="black" stroke-width="0.5"/>
<path d="M290.854 40.8838C290.854 38.8838 289.854 34.8838 286.354 32.8838C288.575 32.8838 291.952 33.9242 294.463 36.2938C294.927 37.8238 293.854 41.3838 290.813 42.8838C290.799 42.2935 290.854 41.6081 290.854 40.8838Z" fill="#E0426F"/>
<path d="M272.854 43.3838C279.85 43.7336 285.867 43.8387 291.248 44.3838M297.854 45.3838C295.751 44.9331 293.558 44.6179 291.248 44.3838M295.854 37.8838C295.437 37.2987 294.967 36.7694 294.463 36.2938M291.248 44.3838C290.921 44.039 290.827 43.516 290.813 42.8838M290.813 42.8838C290.799 42.2935 290.854 41.6081 290.854 40.8838C290.854 38.8838 289.854 34.8838 286.354 32.8838C288.575 32.8838 291.952 33.9242 294.463 36.2938M290.813 42.8838C293.854 41.3838 294.927 37.8238 294.463 36.2938" stroke="black" stroke-width="0.5"/>
<path d="M290.854 40.8838C286.354 40.8838 284.354 36.8838 283.354 34.3838" stroke="black" stroke-width="0.5"/>
<path d="M132.853 12.9838C119.353 16.9838 107.353 22.8838 93.3525 35.8838C100.353 23.8838 115.853 14.3838 131.353 9.38379L132.853 12.9838Z" fill="#E0426F" stroke="black" stroke-width="0.5"/>
<path d="M131.353 9.38379C111.353 15.0578 93.3525 32.3838 85.3525 30.3838C98.3525 20.8838 114.353 12.3838 130.853 7.88379L131.353 9.38379Z" fill="#E0426F" stroke="black" stroke-width="0.5"/>
<path d="M10.3532 48.3837H4.35321C1.85254 52.3837 1.85254 62.3837 2.35321 65.8837C0.852539 66.8837 0.853137 71.3837 1.85321 72.8837L5.85321 73.3837V74.8837L1.85321 76.8837V78.8837C5.85321 79.8837 14.3532 81.8837 22.3532 81.3837V79.8837H39.8532C39.1865 71.3837 40.8532 60.8837 49.8532 53.8837C47.3532 49.8837 40.3532 45.3837 37.3532 44.8837C27.3532 43.8837 12.3532 46.3837 10.3532 48.3837Z" fill="#E0426F" stroke="black" stroke-width="0.5"/>
<path d="M93.3545 35.8838C75.5212 36.7171 43.8545 41.5838 33.3545 44.5838L37.3545 44.8838C42.3545 46.3838 47.8545 50.7171 49.8545 53.8838C62.8535 44.3838 88.3535 51.3838 86.8535 78.8838H96.8535C89.8535 67.8838 90.8535 45.8838 93.3545 35.8838Z" fill="#E0426F" stroke="black" stroke-width="0.5"/>
<path d="M10.3525 48.3838H4.35254C36.8527 28.8837 58.8528 34.8838 84.8525 30.3838L93.8528 35.8838C76.8528 36.8838 47.8525 40.3838 33.8525 44.5838C25.8525 44.3838 11.8525 46.3838 10.3525 48.3838Z" fill="#E0426F" stroke="black" stroke-width="0.5"/>
<path d="M37.354 44.8839C29.854 43.8838 12.854 45.8838 10.354 48.3839C9.55399 50.7838 12.6873 53.7171 14.354 54.8838C23.854 56.3838 37.354 50.3838 37.354 44.8839Z" fill="#E0426F" stroke="black" stroke-width="0.5"/>
<path d="M4.35323 48.3838C11.3532 49.3838 5.35323 59.8838 2.35323 64.8838C1.85316 57.8838 2.35303 52.3838 4.35323 48.3838Z" fill="#E0426F" stroke="black" stroke-width="0.5"/>
<path d="M22.3525 84.3838V79.8838H39.8525L40.3525 84.3838H22.3525Z" fill="#E0426F" stroke="black" stroke-width="0.5"/>
<path d="M2.85449 65.8838C4.35449 68.3838 6.35449 71.5505 5.85449 73.3838M22.3545 79.8838C11.8545 80.3838 7.35449 76.3838 8.35449 72.8838C8.85449 72.3838 10.3545 70.8838 11.3545 70.8838" stroke="black" stroke-width="0.5"/>
<path d="M32.3545 74.8839C29.8545 70.8839 24.3545 65.884 21.3545 64.384C19.6044 63.884 16.9794 64.009 14.2293 64.384C12.6044 65.7173 11.3545 68.8839 11.8545 71.8839C11.8545 73.0506 13.1619 75.3839 15.8545 75.3839C20.3545 75.3839 27.3545 75.8839 32.3545 74.8839Z" fill="#E0426F"/>
<path d="M6.35449 65.884C8.60443 65.384 11.4793 64.759 14.2293 64.384M14.2293 64.384C16.9794 64.009 19.6044 63.884 21.3545 64.384C24.3545 65.884 29.8545 70.8839 32.3545 74.8839C27.3545 75.8839 20.3545 75.3839 15.8545 75.3839C13.1619 75.3839 11.8545 73.0506 11.8545 71.8839C11.3545 68.8839 12.6043 65.7173 14.2293 64.384Z" stroke="black" stroke-width="0.5"/>
<path d="M11.8545 71.384C19.8545 69.884 23.3545 72.5125 26.3545 74.0125M13.3545 74.384L30.8545 73.884" stroke="black" stroke-width="0.5"/>
<path d="M22.3525 82.8838H31.8525C33.8525 82.8838 35.3525 80.8838 34.8525 79.8838M38.3525 79.8838V84.3838" stroke="black" stroke-width="0.5"/>
<path d="M22.3544 81.384C17.8544 81.384 13.3544 81.884 1.85444 78.884V76.884L5.85444 74.884V73.384L1.85444 72.884C1.35352 71.3838 0.353711 68.3838 2.35371 65.8838C1.85395 57.8838 2.35395 51.3838 4.35444 48.3835C36.8544 28.8839 58.8544 34.884 84.8544 30.384C162.854 -24.6161 244.854 12.3838 281.854 26.884L295.354 28.8838L295.854 35.8838V38.8838C297.353 43.8838 298.688 48.3838 297.354 50.3838C299.854 51.3838 302.354 54.5505 302.354 56.3838L300.354 66.3838C300.806 77.2317 298.398 77.456 289.067 77.7684C288.076 77.8016 286.007 77.8358 284.854 77.8838V79.3838L259.854 79.8148M22.3544 81.384V84.384H40.3528L39.8544 79.884M22.3544 81.384V79.884H39.8544M39.8544 79.884C36.8544 38.384 90.3544 41.384 86.8544 80.384V82.8838H213.354C207.354 39.3838 261.854 39.3838 259.854 79.8148M259.353 79.8148H259.854" stroke="black"/>
</svg>
