<svg width="303" height="95" viewBox="0 0 303 95" fill="none" xmlns="http://www.w3.org/2000/svg">
<circle cx="62.8652" cy="73.6768" r="20.5" fill="#EFC7D3" stroke="black"/>
<circle cx="235.865" cy="73.6768" r="20.5" fill="#EFC7D3" stroke="black"/>
<path d="M132.863 12.1766L131.363 8.67661C171.363 0.676725 192.863 1.17676 231.863 12.6767L228.363 17.1767C208.363 9.17667 190.363 8.17667 174.363 7.67673C171.863 7.17673 167.863 7.1767 165.363 7.67661C155.363 7.67673 143.363 9.17674 132.863 12.1766Z" stroke="black" stroke-width="0.5"/>
<path d="M131.363 8.6768L130.863 7.1768C166.863 -3.82324 199.363 0.176632 234.863 9.1768L231.863 12.6768C191.863 0.176758 165.863 1.67676 131.363 8.6768Z" stroke="black" stroke-width="0.5"/>
<path d="M131.363 8.67675C182.863 -2.82328 211.363 7.17676 231.863 12.6767" stroke="black" stroke-width="0.5"/>
<path d="M226.865 30.1768L223.865 15.6768C219.365 14.1768 207.865 8.67676 174.365 7.67676L170.865 29.6768C181.865 29.1768 199.365 27.6768 226.365 27.6768" stroke="black" stroke-width="0.5"/>
<path d="M165.365 7.67676C132.365 8.67676 112.365 17.6768 93.3652 35.1768L95.8652 33.1768L159.865 30.1768L165.365 7.67676Z" stroke="black" stroke-width="0.5"/>
<path d="M239.863 22.1768C236.197 19.5101 230.363 17.1768 223.863 15.6768L226.363 27.6768H232.863C235.863 26.1768 238.863 23.9455 239.863 22.1768Z" stroke="black" stroke-width="0.5"/>
<path d="M96.8652 78.1768H163.865L198.365 76.6768M96.8652 78.1768C96.8652 79.6768 97.3652 80.6768 98.3652 82.1768M96.8652 78.1768H86.8652V82.1768H98.3652M198.365 76.6768L199.365 82.1768M198.365 76.6768H212.865L213.365 82.1768H199.365M199.365 82.1768H98.3652" stroke="black" stroke-width="0.5"/>
<path d="M96.8644 78.1768C92.3652 73.6768 89.3653 51.6768 93.3644 35.1768L165.365 31.1768C161.365 36.1768 160.365 70.1768 163.865 78.1768H96.8644Z" stroke="black" stroke-width="0.5"/>
<path d="M228.865 30.1768L165.365 31.1768C161.365 36.1768 160.365 70.1768 163.865 78.1768L198.365 76.6768C202.865 75.1768 209.365 69.6768 228.865 30.1768Z" stroke="black" stroke-width="0.5"/>
<path d="M170.865 29.6768C166.365 30.1768 162.865 30.1768 159.865 30.1768L165.365 7.67683C168.365 7.17676 171.365 7.17676 174.365 7.67683L170.865 29.6768Z" stroke="black" stroke-width="0.5"/>
<path d="M99.3652 31.6769C103.865 37.1769 110.865 33.6769 114.865 32.1769C115.865 16.6768 102.865 24.6768 99.3652 31.6769Z" stroke="black" stroke-width="0.5"/>
<path d="M234.863 9.17676L231.863 12.6768C248.863 18.1768 259.363 21.1768 271.863 27.6768H273.363L281.363 26.1768C266.363 19.6768 258.863 17.1768 234.863 9.17676Z" fill="#E56E90" stroke="black" stroke-width="0.5"/>
<path d="M271.863 27.6768C261.363 22.1768 242.363 15.6768 231.863 12.6768L229.863 15.1768L244.863 22.6768C243.363 25.1768 239.363 27.1768 233.363 29.8768C245.363 29.1768 262.363 28.1768 271.863 27.6768Z" fill="#E56E90" stroke="black" stroke-width="0.5"/>
<path d="M277.365 33.9768L283.364 31.6768L272.864 27.6768L228.864 30.1768C221.364 45.1768 206.364 75.6768 198.364 76.6768H212.864C211.364 65.6768 220.864 42.1768 245.865 51.1768C256.365 45.6768 266.365 40.1768 277.365 33.9768Z" fill="#E56E90" stroke="black" stroke-width="0.5"/>
<path d="M278.363 33.6768C266.363 40.1768 256.363 45.6768 245.863 51.1768C250.363 54.1768 260.863 60.1768 259.863 79.1768L284.863 78.6768V77.1768C293.363 76.1768 301.863 79.6768 300.363 65.6768L302.363 55.6768C302.363 54.1768 299.863 50.1768 297.363 49.6768C298.863 47.1768 295.863 38.1768 295.863 38.1768V36.6768L291.863 33.6768L286.863 32.1768L283.363 31.6768L278.363 33.6768Z" fill="#E56E90" stroke="black" stroke-width="0.5"/>
<path d="M281.363 26.1768L272.863 27.6768L283.363 31.6768C292.863 32.6768 291.862 34.1768 295.857 36.5969L295.363 28.1768L281.363 26.1768Z" fill="#E56E90"/>
<path d="M295.863 36.6768L295.857 36.5969M295.857 36.5969L295.363 28.1768L281.363 26.1768L272.863 27.6768L283.363 31.6768C292.863 32.6768 291.862 34.1768 295.857 36.5969Z" stroke="black" stroke-width="0.5"/>
<path d="M294.365 36.177C293.865 33.6768 282.865 33.4768 277.365 33.9768" stroke="black" stroke-width="0.5"/>
<path d="M300.365 66.1768L260.865 68.1768C260.365 63.1768 258.199 59.0101 256.365 57.1768L302.365 54.6768M300.865 52.1768C289.865 50.6768 278.865 45.8768 266.865 39.8768M228.865 30.1768L272.865 27.6768L281.365 26.1768" stroke="black" stroke-width="0.5"/>
<path d="M290.865 40.1768C290.865 38.1768 289.865 34.1768 286.365 32.1768C288.586 32.1768 291.963 33.2171 294.474 35.5867C294.938 37.1167 293.865 40.6768 290.823 42.1768C290.81 41.5865 290.865 40.901 290.865 40.1768Z" fill="#E56E90"/>
<path d="M272.865 42.6768C279.861 43.0265 285.878 43.1316 291.258 43.6768M297.865 44.6768C295.762 44.2261 293.569 43.9109 291.258 43.6768M295.865 37.1768C295.447 36.5916 294.978 36.0624 294.474 35.5867M291.258 43.6768C290.932 43.332 290.838 42.8089 290.823 42.1768M290.823 42.1768C290.81 41.5865 290.865 40.901 290.865 40.1768C290.865 38.1768 289.865 34.1768 286.365 32.1768C288.586 32.1768 291.963 33.2171 294.474 35.5867M290.823 42.1768C293.865 40.6768 294.938 37.1167 294.474 35.5867" stroke="black" stroke-width="0.5"/>
<path d="M290.865 40.1768C286.365 40.1768 284.365 36.1768 283.365 33.6768" stroke="black" stroke-width="0.5"/>
<path d="M132.863 12.2767C119.363 16.2767 107.363 22.1768 93.3633 35.1768C100.363 23.1768 115.863 13.6768 131.363 8.67676L132.863 12.2767Z" fill="#E56E90" stroke="black" stroke-width="0.5"/>
<path d="M131.363 8.67676C111.363 14.3508 93.3633 31.6768 85.3633 29.6768C98.3633 20.1768 114.363 11.6768 130.863 7.17676L131.363 8.67676Z" fill="#E56E90" stroke="black" stroke-width="0.5"/>
<path d="M10.3639 47.6768H4.36395C1.86328 51.6768 1.86328 61.6768 2.36395 65.1768C0.863281 66.1768 0.863879 70.6768 1.86395 72.1768L5.86395 72.6768V74.1768L1.86395 76.1768V78.1768C5.86395 79.1768 14.3639 81.1768 22.3639 80.6768V79.1768H39.8639C39.1973 70.6768 40.8639 60.1768 49.8639 53.1768C47.3639 49.1768 40.3639 44.6768 37.3639 44.1768C27.3639 43.1768 12.3639 45.6768 10.3639 47.6768Z" fill="#E56E90" stroke="black" stroke-width="0.5"/>
<path d="M93.3652 35.1768C75.5319 36.0101 43.8652 40.8768 33.3652 43.8768L37.3652 44.1768C42.3652 45.6768 47.8652 50.0101 49.8652 53.1768C62.8643 43.6768 88.3643 50.6768 86.8643 78.1768H96.8643C89.8643 67.1768 90.8643 45.1768 93.3652 35.1768Z" fill="#E56E90" stroke="black" stroke-width="0.5"/>
<path d="M10.3633 47.6768H4.36328C36.8635 28.1767 58.8635 34.1768 84.8633 29.6768L93.8635 35.1768C76.8635 36.1768 47.8633 39.6768 33.8633 43.8768C25.8633 43.6767 11.8633 45.6768 10.3633 47.6768Z" fill="#E56E90" stroke="black" stroke-width="0.5"/>
<path d="M37.3647 44.1768C29.8647 43.1768 12.8647 45.1768 10.3647 47.6768C9.56474 50.0768 12.6981 53.0101 14.3647 54.1768C23.8647 55.6768 37.3647 49.6768 37.3647 44.1768Z" fill="#E56E90" stroke="black" stroke-width="0.5"/>
<path d="M4.36398 47.6768C11.364 48.6768 5.36398 59.1768 2.36398 64.1768C1.86391 57.1768 2.36377 51.6768 4.36398 47.6768Z" fill="#E56E90" stroke="black" stroke-width="0.5"/>
<path d="M22.3633 83.6768V79.1768H39.8633L40.3633 83.6768H22.3633Z" fill="#E56E90" stroke="black" stroke-width="0.5"/>
<path d="M2.86523 65.1768C4.36523 67.6768 6.36523 70.8434 5.86523 72.6768M22.3652 79.1768C11.8652 79.6768 7.36523 75.6768 8.36523 72.1768C8.86523 71.6768 10.3652 70.1768 11.3652 70.1768" stroke="black" stroke-width="0.5"/>
<path d="M32.3652 74.1768C29.8652 70.1768 24.3652 65.1768 21.3652 63.6768C19.6152 63.1768 16.9901 63.3018 14.24 63.6768C12.6151 65.0101 11.3652 68.1768 11.8652 71.1768C11.8652 72.3434 13.1727 74.6768 15.8652 74.6768C20.3652 74.6768 27.3652 75.1768 32.3652 74.1768Z" fill="#E56E90"/>
<path d="M6.36523 65.1768C8.61518 64.6768 11.4901 64.0518 14.24 63.6768M14.24 63.6768C16.9901 63.3018 19.6152 63.1768 21.3652 63.6768C24.3652 65.1768 29.8652 70.1768 32.3652 74.1768C27.3652 75.1768 20.3652 74.6768 15.8652 74.6768C13.1727 74.6768 11.8652 72.3434 11.8652 71.1768C11.3652 68.1768 12.6151 65.0101 14.24 63.6768Z" stroke="black" stroke-width="0.5"/>
<path d="M11.8652 70.6768C19.8652 69.1769 23.3652 71.8054 26.3652 73.3054M13.3652 73.6769L30.8652 73.1769" stroke="black" stroke-width="0.5"/>
<path d="M22.3633 82.1768H31.8633C33.8633 82.1768 35.3633 80.1768 34.8633 79.1768M38.3633 79.1768V83.6768" stroke="black" stroke-width="0.5"/>
<path d="M22.3652 80.677C17.8652 80.677 13.3652 81.177 1.86518 78.177V76.177L5.86518 74.177V72.677L1.86518 72.177C1.36426 70.6768 0.364454 67.6768 2.36445 65.1768C1.86469 57.1768 2.36469 50.6768 4.36518 47.6765C36.8652 28.1769 58.8652 34.1769 84.8652 29.6769C162.865 -25.3232 244.865 11.6767 281.865 26.1769L295.365 28.1768L295.865 35.1768V38.1768C297.364 43.1768 298.699 47.6768 297.365 49.6768C299.865 50.6768 302.365 53.8434 302.365 55.6768L300.365 65.6768C300.817 76.5247 298.409 76.7489 289.077 77.0614C288.086 77.0946 286.017 77.1288 284.865 77.1768V78.6768L259.865 79.1078M22.3652 80.677V83.677H40.3635L39.8652 79.177M22.3652 80.677V79.177H39.8652M39.8652 79.177C36.8652 37.677 90.3652 40.677 86.8652 79.677V82.1768H213.365C207.365 38.6768 261.865 38.6768 259.865 79.1078M259.364 79.1078H259.865" stroke="black"/>
</svg>
