<svg width="303" height="96" viewBox="0 0 303 96" fill="none" xmlns="http://www.w3.org/2000/svg">
<circle cx="62.8545" cy="74.2146" r="20.5" fill="#EFC7D3" stroke="black"/>
<circle cx="235.854" cy="74.2146" r="20.5" fill="#EFC7D3" stroke="black"/>
<path d="M132.853 12.7145L131.353 9.21445C171.353 1.21457 192.853 1.7146 231.853 13.2145L228.353 17.7145C208.353 9.71451 190.353 8.71451 174.353 8.21458C171.853 7.71458 167.853 7.71454 165.353 8.21445C155.353 8.21458 143.353 9.71458 132.853 12.7145Z" fill="#E56E90" stroke="black" stroke-width="0.5"/>
<path d="M131.353 9.21464L130.853 7.71464C166.853 -3.2854 199.353 0.714474 234.853 9.71465L231.853 13.2146C191.853 0.7146 165.853 2.2146 131.353 9.21464Z" fill="#E56E90" stroke="black" stroke-width="0.5"/>
<path d="M131.353 9.21447C182.853 -2.28556 211.353 7.71448 231.853 13.2145" stroke="black" stroke-width="0.5"/>
<path d="M170.854 30.2146L174.354 8.2146C207.854 9.2146 219.354 14.7146 223.854 16.2146L226.337 28.2146C199.347 28.2152 181.852 29.7147 170.854 30.2146Z" fill="#E56E90"/>
<path d="M226.854 30.7146L223.854 16.2146C219.354 14.7146 207.854 9.2146 174.354 8.2146L170.854 30.2146C181.854 29.7146 199.354 28.2146 226.354 28.2146" stroke="black" stroke-width="0.5"/>
<path d="M165.354 8.2146C132.354 9.2146 112.354 18.2146 93.3545 35.7146L95.8545 33.7146L159.854 30.7146L165.354 8.2146Z" fill="#E56E90" stroke="black" stroke-width="0.5"/>
<path d="M239.853 22.7146C236.186 20.0479 230.353 17.7146 223.853 16.2146L226.353 28.2146H232.853C235.853 26.7146 238.853 24.4833 239.853 22.7146Z" fill="#E56E90" stroke="black" stroke-width="0.5"/>
<path d="M96.8545 78.7146H163.854L198.354 77.2146H212.854L213.354 82.7146H199.354H98.3545H86.8545V78.7146H96.8545Z" fill="#E56E90"/>
<path d="M96.8545 78.7146H163.854L198.354 77.2146M96.8545 78.7146C96.8545 80.2146 97.3545 81.2146 98.3545 82.7146M96.8545 78.7146H86.8545V82.7146H98.3545M198.354 77.2146L199.354 82.7146M198.354 77.2146H212.854L213.354 82.7146H199.354M199.354 82.7146H98.3545" stroke="black" stroke-width="0.5"/>
<path d="M96.8536 78.7146C92.3545 74.2146 89.3545 52.2146 93.3536 35.7146L165.354 31.7146C161.354 36.7146 160.354 70.7146 163.854 78.7146H96.8536Z" fill="#E56E90" stroke="black" stroke-width="0.5"/>
<path d="M228.854 30.7146L165.354 31.7146C161.355 36.7146 160.355 70.7146 163.854 78.7146L198.354 77.2146C202.854 75.7146 209.354 70.2146 228.854 30.7146Z" fill="#E56E90" stroke="black" stroke-width="0.5"/>
<path d="M170.854 30.2147C166.354 30.7147 162.854 30.7147 159.854 30.7147L165.354 8.21467C168.354 7.7146 171.354 7.7146 174.354 8.21467L170.854 30.2147Z" fill="#E56E90" stroke="black" stroke-width="0.5"/>
<path d="M99.3545 32.2146C103.854 37.7146 110.854 34.2146 114.854 32.7146C115.854 17.2145 102.854 25.2145 99.3545 32.2146Z" fill="#E56E90" stroke="black" stroke-width="0.5"/>
<path d="M234.853 9.7146L231.853 13.2146C248.853 18.7146 259.353 21.7146 271.853 28.2146H273.353L281.353 26.7146C266.353 20.2146 258.853 17.7146 234.853 9.7146Z" fill="#E0426F" stroke="black" stroke-width="0.5"/>
<path d="M271.853 28.2146C261.353 22.7146 242.353 16.2146 231.853 13.2146L229.853 15.7146L244.853 23.2146C243.353 25.7146 239.353 27.7146 233.353 30.4146C245.353 29.7146 262.353 28.7146 271.853 28.2146Z" fill="#E0426F" stroke="black" stroke-width="0.5"/>
<path d="M277.354 34.5146L283.353 32.2146L272.854 28.2146L228.854 30.7146C221.354 45.7146 206.354 76.2146 198.354 77.2146H212.854C211.354 66.2146 220.854 42.7146 245.854 51.7146C256.354 46.2146 266.354 40.7146 277.354 34.5146Z" fill="#E0426F" stroke="black" stroke-width="0.5"/>
<path d="M278.353 34.2146C266.353 40.7146 256.353 46.2146 245.853 51.7146C250.353 54.7146 260.853 60.7146 259.853 79.7146L284.853 79.2146V77.7146C293.353 76.7146 301.853 80.2146 300.353 66.2146L302.353 56.2146C302.353 54.7146 299.853 50.7146 297.353 50.2146C298.853 47.7146 295.853 38.7146 295.853 38.7146V37.2146L291.853 34.2146L286.853 32.7146L283.353 32.2146L278.353 34.2146Z" fill="#E0426F" stroke="black" stroke-width="0.5"/>
<path d="M281.353 26.7146L272.853 28.2146L283.353 32.2146C292.853 33.2146 291.851 34.7146 295.847 37.1348L295.353 28.7146L281.353 26.7146Z" fill="#E0426F"/>
<path d="M295.853 37.2146L295.847 37.1348M295.847 37.1348L295.353 28.7146L281.353 26.7146L272.853 28.2146L283.353 32.2146C292.853 33.2146 291.851 34.7146 295.847 37.1348Z" stroke="black" stroke-width="0.5"/>
<path d="M294.354 36.7148C293.854 34.2147 282.854 34.0146 277.354 34.5146" stroke="black" stroke-width="0.5"/>
<path d="M300.354 66.7146L260.854 68.7146C260.354 63.7146 258.188 59.5479 256.354 57.7146L302.354 55.2146M300.854 52.7146C289.854 51.2146 278.854 46.4146 266.854 40.4146M228.854 30.7146L272.854 28.2146L281.354 26.7146" stroke="black" stroke-width="0.5"/>
<path d="M290.854 40.7146C290.854 38.7146 289.854 34.7146 286.354 32.7146C288.575 32.7146 291.952 33.755 294.463 36.1246C294.927 37.6546 293.854 41.2146 290.813 42.7146C290.799 42.1243 290.854 41.4389 290.854 40.7146Z" fill="#E0426F"/>
<path d="M272.854 43.2146C279.85 43.5644 285.867 43.6695 291.248 44.2146M297.854 45.2146C295.751 44.764 293.558 44.4487 291.248 44.2146M295.854 37.7146C295.437 37.1295 294.967 36.6002 294.463 36.1246M291.248 44.2146C290.921 43.8698 290.827 43.3468 290.813 42.7146M290.813 42.7146C290.799 42.1243 290.854 41.4389 290.854 40.7146C290.854 38.7146 289.854 34.7146 286.354 32.7146C288.575 32.7146 291.952 33.755 294.463 36.1246M290.813 42.7146C293.854 41.2146 294.927 37.6546 294.463 36.1246" stroke="black" stroke-width="0.5"/>
<path d="M290.854 40.7146C286.354 40.7146 284.354 36.7146 283.354 34.2146" stroke="black" stroke-width="0.5"/>
<path d="M132.853 12.8146C119.353 16.8146 107.353 22.7146 93.3525 35.7146C100.353 23.7146 115.853 14.2146 131.353 9.2146L132.853 12.8146Z" fill="#E56E90" stroke="black" stroke-width="0.5"/>
<path d="M131.353 9.2146C111.353 14.8886 93.3525 32.2146 85.3525 30.2146C98.3525 20.7146 114.353 12.2146 130.853 7.7146L131.353 9.2146Z" fill="#E56E90" stroke="black" stroke-width="0.5"/>
<path d="M10.3532 48.2145H4.35321C1.85254 52.2145 1.85254 62.2145 2.35321 65.7145C0.852539 66.7145 0.853137 71.2145 1.85321 72.7145L5.85321 73.2145V74.7145L1.85321 76.7145V78.7145C5.85321 79.7145 14.3532 81.7145 22.3532 81.2145V79.7145H39.8532C39.1865 71.2145 40.8532 60.7145 49.8532 53.7145C47.3532 49.7145 40.3532 45.2145 37.3532 44.7145C27.3532 43.7145 12.3532 46.2145 10.3532 48.2145Z" fill="#E56E90" stroke="black" stroke-width="0.5"/>
<path d="M93.3545 35.7146C75.5212 36.5479 43.8545 41.4146 33.3545 44.4146L37.3545 44.7146C42.3545 46.2146 47.8545 50.5479 49.8545 53.7146C62.8535 44.2146 88.3535 51.2146 86.8535 78.7146H96.8535C89.8535 67.7146 90.8535 45.7146 93.3545 35.7146Z" fill="#E56E90" stroke="black" stroke-width="0.5"/>
<path d="M10.3525 48.2147H4.35254C36.8527 28.7146 58.8528 34.7146 84.8525 30.2146L93.8528 35.7146C76.8528 36.7146 47.8525 40.2146 33.8525 44.4146C25.8525 44.2146 11.8525 46.2146 10.3525 48.2147Z" fill="#E56E90" stroke="black" stroke-width="0.5"/>
<path d="M37.354 44.7147C29.854 43.7146 12.854 45.7146 10.354 48.2147C9.55399 50.6146 12.6873 53.5479 14.354 54.7146C23.854 56.2146 37.354 50.2146 37.354 44.7147Z" fill="#E56E90" stroke="black" stroke-width="0.5"/>
<path d="M4.35323 48.2146C11.3532 49.2146 5.35323 59.7146 2.35323 64.7146C1.85316 57.7146 2.35303 52.2146 4.35323 48.2146Z" fill="#E56E90" stroke="black" stroke-width="0.5"/>
<path d="M22.3525 84.2146V79.7146H39.8525L40.3525 84.2146H22.3525Z" fill="#E56E90" stroke="black" stroke-width="0.5"/>
<path d="M2.85449 65.7144C4.35449 68.2144 6.35449 71.381 5.85449 73.2144M22.3545 79.7144C11.8545 80.2144 7.35449 76.2144 8.35449 72.7144C8.85449 72.2144 10.3545 70.7144 11.3545 70.7144" stroke="black" stroke-width="0.5"/>
<path d="M32.3545 74.7145C29.8545 70.7145 24.3545 65.7146 21.3545 64.2146C19.6044 63.7145 16.9794 63.8395 14.2293 64.2146C12.6044 65.5479 11.3545 68.7145 11.8545 71.7145C11.8545 72.8811 13.1619 75.2145 15.8545 75.2145C20.3545 75.2145 27.3545 75.7145 32.3545 74.7145Z" fill="#E56E90"/>
<path d="M6.35449 65.7146C8.60443 65.2145 11.4793 64.5896 14.2293 64.2146M14.2293 64.2146C16.9794 63.8395 19.6044 63.7145 21.3545 64.2146C24.3545 65.7146 29.8545 70.7145 32.3545 74.7145C27.3545 75.7145 20.3545 75.2145 15.8545 75.2145C13.1619 75.2145 11.8545 72.8811 11.8545 71.7145C11.3545 68.7145 12.6043 65.5479 14.2293 64.2146Z" stroke="black" stroke-width="0.5"/>
<path d="M11.8545 71.2146C19.8545 69.7146 23.3545 72.3431 26.3545 73.8431M13.3545 74.2146L30.8545 73.7146" stroke="black" stroke-width="0.5"/>
<path d="M22.3525 82.7144H31.8525C33.8525 82.7144 35.3525 80.7144 34.8525 79.7144M38.3525 79.7144V84.2144" stroke="black" stroke-width="0.5"/>
<path d="M22.3544 81.2148C17.8544 81.2148 13.3544 81.7148 1.85444 78.7148V76.7148L5.85444 74.7148V73.2148L1.85444 72.7149C1.35352 71.2146 0.353711 68.2146 2.35371 65.7146C1.85395 57.7146 2.35395 51.2146 4.35444 48.2143C36.8544 28.7147 58.8544 34.7148 84.8544 30.2148C162.854 -24.7853 244.854 12.2146 281.854 26.7148L295.354 28.7146L295.854 35.7146V38.7146C297.353 43.7146 298.688 48.2146 297.354 50.2146C299.854 51.2146 302.354 54.3813 302.354 56.2146L300.354 66.2146C300.806 77.0625 298.398 77.2868 289.067 77.5992C288.076 77.6324 286.007 77.6666 284.854 77.7146V79.2146L259.854 79.6456M22.3544 81.2148V84.2148H40.3528L39.8544 79.7148M22.3544 81.2148V79.7148H39.8544M39.8544 79.7148C36.8544 38.2148 90.3544 41.2148 86.8544 80.2148V82.7146H213.354C207.354 39.2146 261.854 39.2146 259.854 79.6456M259.353 79.6456H259.854" stroke="black"/>
</svg>
