<svg width="303" height="96" viewBox="0 0 303 96" fill="none" xmlns="http://www.w3.org/2000/svg">
<circle cx="62.2915" cy="74.0151" r="20.5" fill="#E56E90" stroke="black"/>
<circle cx="235.292" cy="74.0151" r="20.5" fill="#E56E90" stroke="black"/>
<path d="M132.29 12.515L130.79 9.01499C170.79 1.0151 192.29 1.51514 231.29 13.0151L227.79 17.5151C207.79 9.51505 189.79 8.51505 173.79 8.01511C171.29 7.51511 167.29 7.51508 164.79 8.01499C154.79 8.01511 142.79 9.51511 132.29 12.515Z" fill="#EFC7D3" stroke="black" stroke-width="0.5"/>
<path d="M130.79 9.01518L130.29 7.51518C166.29 -3.48486 198.79 0.515011 234.29 9.51518L231.29 13.0152C191.29 0.515137 165.29 2.01514 130.79 9.01518Z" fill="#EFC7D3" stroke="black" stroke-width="0.5"/>
<path d="M130.79 9.01512C182.29 -2.4849 210.79 7.51514 231.29 13.0151" stroke="black" stroke-width="0.5"/>
<path d="M170.292 30.0151L173.792 8.01514C207.292 9.01514 218.792 14.5151 223.292 16.0151L225.774 28.0151C198.784 28.0158 181.289 29.5152 170.292 30.0151Z" fill="#EFC7D3"/>
<path d="M226.292 30.5151L223.292 16.0151C218.792 14.5151 207.292 9.01514 173.792 8.01514L170.292 30.0151C181.292 29.5151 198.792 28.0151 225.792 28.0151" stroke="black" stroke-width="0.5"/>
<path d="M164.792 8.01514C131.792 9.01514 111.792 18.0151 92.7915 35.5151L95.2915 33.5151L159.292 30.5151L164.792 8.01514Z" fill="#EFC7D3" stroke="black" stroke-width="0.5"/>
<path d="M239.29 22.5151C235.623 19.8485 229.79 17.5151 223.29 16.0151L225.79 28.0151H232.29C235.29 26.5151 238.29 24.2839 239.29 22.5151Z" fill="#EFC7D3" stroke="black" stroke-width="0.5"/>
<path d="M96.2915 78.5151H163.292L197.792 77.0151H212.292L212.792 82.5151H198.792H97.7915H86.2915V78.5151H96.2915Z" fill="#EFC7D3"/>
<path d="M96.2915 78.5151H163.292L197.792 77.0151M96.2915 78.5151C96.2915 80.0151 96.7915 81.0151 97.7915 82.5151M96.2915 78.5151H86.2915V82.5151H97.7915M197.792 77.0151L198.792 82.5151M197.792 77.0151H212.292L212.792 82.5151H198.792M198.792 82.5151H97.7915" stroke="black" stroke-width="0.5"/>
<path d="M96.2906 78.5151C91.7915 74.0151 88.7915 52.0151 92.7906 35.5151L164.792 31.5151C160.792 36.5151 159.792 70.5151 163.291 78.5151H96.2906Z" fill="#EFC7D3" stroke="black" stroke-width="0.5"/>
<path d="M228.291 30.5151L164.791 31.5151C160.791 36.5151 159.791 70.5151 163.291 78.5151L197.791 77.0151C202.291 75.5151 208.791 70.0151 228.291 30.5151Z" fill="#EFC7D3" stroke="black" stroke-width="0.5"/>
<path d="M170.292 30.0152C165.792 30.5152 162.292 30.5152 159.292 30.5152L164.792 8.01521C167.792 7.51514 170.792 7.51514 173.792 8.01521L170.292 30.0152Z" fill="#EFC7D3" stroke="black" stroke-width="0.5"/>
<path d="M98.7915 32.0153C103.292 37.5153 110.292 34.0153 114.292 32.5153C115.292 17.0152 102.292 25.0151 98.7915 32.0153Z" fill="#EFC7D3" stroke="black" stroke-width="0.5"/>
<path d="M234.29 9.51514L231.29 13.0151C248.29 18.5151 258.79 21.5151 271.29 28.0151H272.79L280.79 26.5151C265.79 20.0151 258.29 17.5151 234.29 9.51514Z" stroke="black" stroke-width="0.5"/>
<path d="M271.29 28.0151C260.79 22.5151 241.79 16.0151 231.29 13.0151L229.29 15.5151L244.29 23.0151C242.79 25.5151 238.79 27.5151 232.79 30.2151C244.79 29.5151 261.79 28.5151 271.29 28.0151Z" stroke="black" stroke-width="0.5"/>
<path d="M276.792 34.3151L282.79 32.0151L272.291 28.0151L228.291 30.5151C220.791 45.5151 205.791 76.0151 197.791 77.0151H212.291C210.791 66.0151 220.291 42.5151 245.292 51.5151C255.792 46.0151 265.792 40.5151 276.792 34.3151Z" stroke="black" stroke-width="0.5"/>
<path d="M277.79 34.0152C265.79 40.5152 255.79 46.0152 245.29 51.5152C249.79 54.5151 260.29 60.5151 259.29 79.5151L284.29 79.0151V77.5151C292.79 76.5151 301.29 80.0151 299.79 66.0151L301.79 56.0151C301.79 54.5151 299.29 50.5151 296.79 50.0151C298.29 47.5151 295.29 38.5151 295.29 38.5151V37.0151L291.29 34.0151L286.29 32.5151L282.79 32.0151L277.79 34.0152Z" stroke="black" stroke-width="0.5"/>
<path d="M295.29 37.0151L295.284 36.9353M295.284 36.9353L294.79 28.5151L280.79 26.5151L272.29 28.0151L282.79 32.0151C292.29 33.0151 291.289 34.5151 295.284 36.9353Z" stroke="black" stroke-width="0.5"/>
<path d="M293.792 36.5153C293.292 34.0152 282.292 33.8151 276.792 34.3151" stroke="black" stroke-width="0.5"/>
<path d="M299.792 66.5151L260.292 68.5151C259.792 63.5151 257.625 59.3485 255.792 57.5151L301.792 55.0151M300.292 52.5151C289.292 51.0151 278.292 46.2151 266.292 40.2151M228.292 30.5151L272.292 28.0151L280.792 26.5151" stroke="black" stroke-width="0.5"/>
<path d="M272.292 43.0151C279.287 43.3649 285.304 43.47 290.685 44.0151M297.292 45.0151C295.189 44.5645 292.995 44.2492 290.685 44.0151M295.292 37.5151C294.874 36.93 294.404 36.4008 293.9 35.9251M290.685 44.0151C290.358 43.6704 290.264 43.1473 290.25 42.5151M290.25 42.5151C290.236 41.9249 290.292 41.2394 290.292 40.5151C290.292 38.5151 289.292 34.5151 285.792 32.5151C288.012 32.5151 291.389 33.5555 293.9 35.9251M290.25 42.5151C293.292 41.0151 294.364 37.4551 293.9 35.9251" stroke="black" stroke-width="0.5"/>
<path d="M290.292 40.5151C285.792 40.5151 283.792 36.5151 282.792 34.0151" stroke="black" stroke-width="0.5"/>
<path d="M132.29 12.6151C118.79 16.6151 106.79 22.5151 92.79 35.5151C99.79 23.5151 115.29 14.0151 130.79 9.01514L132.29 12.6151Z" stroke="black" stroke-width="0.5"/>
<path d="M130.79 9.01514C110.79 14.6892 92.79 32.0151 84.79 30.0151C97.79 20.5151 113.79 12.0151 130.29 7.51514L130.79 9.01514Z" stroke="black" stroke-width="0.5"/>
<path d="M9.79071 48.0151H3.79071C1.29004 52.0151 1.29004 62.0151 1.79071 65.5151C0.290039 66.5151 0.290637 71.0151 1.29071 72.5151L5.29071 73.0151V74.5151L1.29071 76.5151V78.5151C5.29071 79.5151 13.7907 81.5151 21.7907 81.0151V79.5151H39.2907C38.624 71.0151 40.2907 60.5151 49.2907 53.5151C46.7907 49.5151 39.7907 45.0151 36.7907 44.5151C26.7907 43.5151 11.7907 46.0151 9.79071 48.0151Z" stroke="black" stroke-width="0.5"/>
<path d="M92.7915 35.5151C74.9582 36.3485 43.2915 41.2151 32.7915 44.2151L36.7915 44.5151C41.7915 46.0151 47.2915 50.3485 49.2915 53.5151C62.2905 44.0151 87.7905 51.0151 86.2905 78.5151H96.2905C89.2905 67.5151 90.2905 45.5151 92.7915 35.5151Z" stroke="black" stroke-width="0.5"/>
<path d="M9.79004 48.0152H3.79004C36.2902 28.5151 58.2903 34.5151 84.29 30.0151L93.2903 35.5151C76.2903 36.5151 47.29 40.0151 33.29 44.2151C25.29 44.0151 11.29 46.0151 9.79004 48.0152Z" stroke="black" stroke-width="0.5"/>
<path d="M36.7915 44.5152C29.2915 43.5151 12.2915 45.5151 9.79149 48.0152C8.99149 50.4152 12.1248 53.3485 13.7915 54.5151C23.2915 56.0151 36.7915 50.0151 36.7915 44.5152Z" stroke="black" stroke-width="0.5"/>
<path d="M3.79073 48.0151C10.7907 49.0151 4.79073 59.5151 1.79073 64.5151C1.29066 57.5151 1.79053 52.0151 3.79073 48.0151Z" stroke="black" stroke-width="0.5"/>
<path d="M21.79 84.0151V79.5151H39.29L39.79 84.0151H21.79Z" stroke="black" stroke-width="0.5"/>
<path d="M2.29199 65.5151C3.79199 68.0151 5.79199 71.1818 5.29199 73.0151M21.792 79.5151C11.292 80.0151 6.79199 76.0151 7.79199 72.5151C8.29199 72.0151 9.79199 70.5151 10.792 70.5151" stroke="black" stroke-width="0.5"/>
<path d="M5.79199 65.5152C8.04193 65.0152 10.9168 64.3902 13.6668 64.0152M13.6668 64.0152C16.4169 63.6402 19.0419 63.5152 20.792 64.0152C23.792 65.5152 29.292 70.5151 31.792 74.5151C26.792 75.5151 19.792 75.0151 15.292 75.0151C12.5994 75.0151 11.292 72.6818 11.292 71.5151C10.792 68.5151 12.0418 65.3485 13.6668 64.0152Z" stroke="black" stroke-width="0.5"/>
<path d="M11.292 71.0152C19.292 69.5153 22.792 72.1437 25.792 73.6437M12.792 74.0153L30.292 73.5153" stroke="black" stroke-width="0.5"/>
<path d="M21.79 82.5151H31.29C33.29 82.5151 34.79 80.5151 34.29 79.5151M37.79 79.5151V84.0151" stroke="black" stroke-width="0.5"/>
<path d="M21.7915 81.0154C17.2915 81.0154 12.7915 81.5154 1.29145 78.5154V76.5154L5.29145 74.5154V73.0154L1.29145 72.5154C0.790527 71.0151 -0.209277 68.0151 1.79072 65.5151C1.29096 57.5151 1.79096 51.0151 3.79145 48.0149C36.2915 28.5153 58.2914 34.5153 84.2914 30.0153C162.291 -24.9848 244.291 12.0151 281.291 26.5153L294.791 28.5151L295.291 35.5151V38.5151C296.79 43.5151 298.125 48.0151 296.791 50.0151C299.291 51.0151 301.791 54.1818 301.791 56.0151L299.791 66.0151C300.243 76.863 297.835 77.0873 288.504 77.3998C287.513 77.433 285.444 77.4671 284.291 77.5151V79.0151L259.291 79.4462M21.7915 81.0154V84.0154H39.7898L39.2915 79.5154M21.7915 81.0154V79.5154H39.2915M39.2915 79.5154C36.2915 38.0154 89.7914 41.0154 86.2914 80.0154V82.5151H212.791C206.791 39.0151 261.291 39.0151 259.291 79.4462M258.79 79.4462H259.291" stroke="black"/>
</svg>
