<svg width="304" height="95" viewBox="0 0 304 95" fill="none" xmlns="http://www.w3.org/2000/svg">
<circle cx="63.0635" cy="73.6768" r="20.5" fill="#EDADBF" stroke="black"/>
<circle cx="236.063" cy="73.6768" r="20.5" fill="#EDADBF" stroke="black"/>
<path d="M133.062 12.1766L131.562 8.67661C171.562 0.676725 193.062 1.17676 232.062 12.6767L228.562 17.1767C208.562 9.17667 190.562 8.17667 174.562 7.67673C172.062 7.17673 168.062 7.1767 165.562 7.67661C155.562 7.67673 143.562 9.17674 133.062 12.1766Z" stroke="black" stroke-width="0.5"/>
<path d="M131.562 8.6768L131.062 7.1768C167.062 -3.82324 199.562 0.176632 235.062 9.1768L232.062 12.6768C192.062 0.176758 166.062 1.67676 131.562 8.6768Z" stroke="black" stroke-width="0.5"/>
<path d="M131.562 8.67675C183.062 -2.82328 211.562 7.17676 232.062 12.6767" stroke="black" stroke-width="0.5"/>
<path d="M227.063 30.1768L224.063 15.6768C219.563 14.1768 208.063 8.67676 174.563 7.67676L171.063 29.6768C182.063 29.1768 199.563 27.6768 226.563 27.6768" stroke="black" stroke-width="0.5"/>
<path d="M165.563 7.67676C132.563 8.67676 112.563 17.6768 93.5635 35.1768L96.0635 33.1768L160.063 30.1768L165.563 7.67676Z" stroke="black" stroke-width="0.5"/>
<path d="M240.062 22.1768C236.395 19.5101 230.562 17.1768 224.062 15.6768L226.562 27.6768H233.062C236.062 26.1768 239.062 23.9455 240.062 22.1768Z" stroke="black" stroke-width="0.5"/>
<path d="M97.0635 78.1768H164.063L198.563 76.6768M97.0635 78.1768C97.0635 79.6768 97.5635 80.6768 98.5635 82.1768M97.0635 78.1768H87.0635V82.1768H98.5635M198.563 76.6768L199.563 82.1768M198.563 76.6768H213.063L213.563 82.1768H199.563M199.563 82.1768H98.5635" stroke="black" stroke-width="0.5"/>
<path d="M97.0626 78.1768C92.5635 73.6768 89.5635 51.6768 93.5626 35.1768L165.563 31.1768C161.563 36.1768 160.563 70.1768 164.063 78.1768H97.0626Z" stroke="black" stroke-width="0.5"/>
<path d="M229.063 30.1768L165.563 31.1768C161.564 36.1768 160.564 70.1768 164.063 78.1768L198.563 76.6768C203.063 75.1768 209.563 69.6768 229.063 30.1768Z" stroke="black" stroke-width="0.5"/>
<path d="M171.063 29.6768C166.563 30.1768 163.063 30.1768 160.063 30.1768L165.563 7.67683C168.563 7.17676 171.563 7.17676 174.563 7.67683L171.063 29.6768Z" stroke="black" stroke-width="0.5"/>
<path d="M99.5635 31.6769C104.063 37.1769 111.063 33.6769 115.063 32.1769C116.063 16.6768 103.063 24.6768 99.5635 31.6769Z" stroke="black" stroke-width="0.5"/>
<path d="M235.062 9.17676L232.062 12.6768C249.062 18.1768 259.562 21.1768 272.062 27.6768H273.562L281.562 26.1768C266.562 19.6768 259.062 17.1768 235.062 9.17676Z" fill="#E56E90" stroke="black" stroke-width="0.5"/>
<path d="M272.062 27.6768C261.562 22.1768 242.562 15.6768 232.062 12.6768L230.062 15.1768L245.062 22.6768C243.562 25.1768 239.562 27.1768 233.562 29.8768C245.562 29.1768 262.562 28.1768 272.062 27.6768Z" fill="#E56E90" stroke="black" stroke-width="0.5"/>
<path d="M277.563 33.9768L283.562 31.6768L273.062 27.6768L229.062 30.1768C221.562 45.1768 206.562 75.6768 198.562 76.6768H213.062C211.562 65.6768 221.062 42.1768 246.063 51.1768C256.563 45.6768 266.563 40.1768 277.563 33.9768Z" fill="#E56E90" stroke="black" stroke-width="0.5"/>
<path d="M278.562 33.6768C266.562 40.1768 256.562 45.6768 246.062 51.1768C250.562 54.1768 261.062 60.1768 260.062 79.1768L285.062 78.6768V77.1768C293.562 76.1768 302.062 79.6768 300.562 65.6768L302.562 55.6768C302.562 54.1768 300.062 50.1768 297.562 49.6768C299.062 47.1768 296.062 38.1768 296.062 38.1768V36.6768L292.062 33.6768L287.062 32.1768L283.562 31.6768L278.562 33.6768Z" fill="#E56E90" stroke="black" stroke-width="0.5"/>
<path d="M281.562 26.1768L273.062 27.6768L283.562 31.6768C293.062 32.6768 292.06 34.1768 296.056 36.5969L295.562 28.1768L281.562 26.1768Z" fill="#E56E90"/>
<path d="M296.062 36.6768L296.056 36.5969M296.056 36.5969L295.562 28.1768L281.562 26.1768L273.062 27.6768L283.562 31.6768C293.062 32.6768 292.06 34.1768 296.056 36.5969Z" stroke="black" stroke-width="0.5"/>
<path d="M294.563 36.177C294.063 33.6768 283.063 33.4768 277.563 33.9768" stroke="black" stroke-width="0.5"/>
<path d="M300.563 66.1768L261.063 68.1768C260.563 63.1768 258.397 59.0101 256.563 57.1768L302.563 54.6768M301.063 52.1768C290.063 50.6768 279.063 45.8768 267.063 39.8768M229.063 30.1768L273.063 27.6768L281.563 26.1768" stroke="black" stroke-width="0.5"/>
<path d="M291.063 40.1768C291.063 38.1768 290.063 34.1768 286.563 32.1768C288.784 32.1768 292.161 33.2171 294.672 35.5867C295.136 37.1167 294.063 40.6768 291.022 42.1768C291.008 41.5865 291.063 40.901 291.063 40.1768Z" fill="#E56E90"/>
<path d="M273.063 42.6768C280.059 43.0265 286.076 43.1316 291.457 43.6768M298.063 44.6768C295.96 44.2261 293.767 43.9109 291.457 43.6768M296.063 37.1768C295.646 36.5916 295.176 36.0624 294.672 35.5867M291.457 43.6768C291.13 43.332 291.036 42.8089 291.022 42.1768M291.022 42.1768C291.008 41.5865 291.063 40.901 291.063 40.1768C291.063 38.1768 290.063 34.1768 286.563 32.1768C288.784 32.1768 292.161 33.2171 294.672 35.5867M291.022 42.1768C294.063 40.6768 295.136 37.1167 294.672 35.5867" stroke="black" stroke-width="0.5"/>
<path d="M291.063 40.1768C286.563 40.1768 284.563 36.1768 283.563 33.6768" stroke="black" stroke-width="0.5"/>
<path d="M133.062 12.2767C119.562 16.2767 107.562 22.1768 93.5615 35.1768C100.562 23.1768 116.062 13.6768 131.562 8.67676L133.062 12.2767Z" fill="#E56E90" stroke="black" stroke-width="0.5"/>
<path d="M131.562 8.67676C111.562 14.3508 93.5615 31.6768 85.5615 29.6768C98.5615 20.1768 114.562 11.6768 131.062 7.17676L131.562 8.67676Z" fill="#E56E90" stroke="black" stroke-width="0.5"/>
<path d="M10.5622 47.6768H4.56219C2.06152 51.6768 2.06152 61.6768 2.56219 65.1768C1.06152 66.1768 1.06212 70.6768 2.06219 72.1768L6.06219 72.6768V74.1768L2.06219 76.1768V78.1768C6.06219 79.1768 14.5622 81.1768 22.5622 80.6768V79.1768H40.0622C39.3955 70.6768 41.0622 60.1768 50.0622 53.1768C47.5622 49.1768 40.5622 44.6768 37.5622 44.1768C27.5622 43.1768 12.5622 45.6768 10.5622 47.6768Z" fill="#E56E90" stroke="black" stroke-width="0.5"/>
<path d="M93.5635 35.1768C75.7301 36.0101 44.0635 40.8768 33.5635 43.8768L37.5635 44.1768C42.5635 45.6768 48.0635 50.0101 50.0635 53.1768C63.0625 43.6768 88.5625 50.6768 87.0625 78.1768H97.0625C90.0625 67.1768 91.0625 45.1768 93.5635 35.1768Z" fill="#E56E90" stroke="black" stroke-width="0.5"/>
<path d="M10.5615 47.6768H4.56152C37.0617 28.1767 59.0618 34.1768 85.0615 29.6768L94.0618 35.1768C77.0618 36.1768 48.0615 39.6768 34.0615 43.8768C26.0615 43.6767 12.0615 45.6768 10.5615 47.6768Z" fill="#E56E90" stroke="black" stroke-width="0.5"/>
<path d="M37.563 44.1768C30.063 43.1768 13.063 45.1768 10.563 47.6768C9.76298 50.0768 12.8963 53.0101 14.563 54.1768C24.063 55.6768 37.563 49.6768 37.563 44.1768Z" fill="#E56E90" stroke="black" stroke-width="0.5"/>
<path d="M4.56222 47.6768C11.5622 48.6768 5.56222 59.1768 2.56222 64.1768C2.06215 57.1768 2.56201 51.6768 4.56222 47.6768Z" fill="#E56E90" stroke="black" stroke-width="0.5"/>
<path d="M22.5615 83.6768V79.1768H40.0615L40.5615 83.6768H22.5615Z" fill="#E56E90" stroke="black" stroke-width="0.5"/>
<path d="M3.06348 65.1768C4.56348 67.6768 6.56348 70.8434 6.06348 72.6768M22.5635 79.1768C12.0635 79.6768 7.56348 75.6768 8.56348 72.1768C9.06348 71.6768 10.5635 70.1768 11.5635 70.1768" stroke="black" stroke-width="0.5"/>
<path d="M32.5635 74.1768C30.0635 70.1768 24.5635 65.1768 21.5635 63.6768C19.8134 63.1768 17.1883 63.3018 14.4383 63.6768C12.8133 65.0101 11.5635 68.1768 12.0635 71.1768C12.0635 72.3434 13.3709 74.6768 16.0635 74.6768C20.5635 74.6768 27.5635 75.1768 32.5635 74.1768Z" fill="#E56E90"/>
<path d="M6.56348 65.1768C8.81342 64.6768 11.6883 64.0518 14.4383 63.6768M14.4383 63.6768C17.1883 63.3018 19.8134 63.1768 21.5635 63.6768C24.5635 65.1768 30.0635 70.1768 32.5635 74.1768C27.5635 75.1768 20.5635 74.6768 16.0635 74.6768C13.3709 74.6768 12.0635 72.3434 12.0635 71.1768C11.5635 68.1768 12.8133 65.0101 14.4383 63.6768Z" stroke="black" stroke-width="0.5"/>
<path d="M12.0635 70.6768C20.0635 69.1769 23.5635 71.8054 26.5635 73.3054M13.5635 73.6769L31.0635 73.1769" stroke="black" stroke-width="0.5"/>
<path d="M22.5615 82.1768H32.0615C34.0615 82.1768 35.5615 80.1768 35.0615 79.1768M38.5615 79.1768V83.6768" stroke="black" stroke-width="0.5"/>
<path d="M22.5634 80.677C18.0634 80.677 13.5634 81.177 2.06342 78.177V76.177L6.06342 74.177V72.677L2.06342 72.177C1.5625 70.6768 0.562696 67.6768 2.56269 65.1768C2.06293 57.1768 2.56293 50.6768 4.56342 47.6765C37.0634 28.1769 59.0634 34.1769 85.0634 29.6769C163.063 -25.3232 245.063 11.6767 282.063 26.1769L295.563 28.1768L296.063 35.1768V38.1768C297.562 43.1768 298.897 47.6768 297.563 49.6768C300.063 50.6768 302.563 53.8434 302.563 55.6768L300.563 65.6768C301.015 76.5247 298.607 76.7489 289.276 77.0614C288.285 77.0946 286.216 77.1288 285.063 77.1768V78.6768L260.063 79.1078M22.5634 80.677V83.677H40.5618L40.0634 79.177M22.5634 80.677V79.177H40.0634M40.0634 79.177C37.0634 37.677 90.5634 40.677 87.0634 79.677V82.1768H213.563C207.563 38.6768 262.063 38.6768 260.063 79.1078M259.562 79.1078H260.063" stroke="black"/>
</svg>
