<svg width="303" height="96" viewBox="0 0 303 96" fill="none" xmlns="http://www.w3.org/2000/svg">
<circle cx="62.667" cy="74.3838" r="20.5" stroke="black"/>
<circle cx="235.667" cy="74.3838" r="20.5" stroke="black"/>
<path d="M132.665 12.8836L131.165 9.38364C171.165 1.38376 192.665 1.88379 231.665 13.3837L228.165 17.8837C208.165 9.8837 190.165 8.8837 174.165 8.38377C171.665 7.88377 167.665 7.88373 165.165 8.38364C155.165 8.38377 143.165 9.88377 132.665 12.8836Z" fill="#E56E90" stroke="black" stroke-width="0.5"/>
<path d="M131.165 9.38383L130.665 7.88383C166.665 -3.11621 199.165 0.883663 234.665 9.88383L231.665 13.3838C191.665 0.883789 165.665 2.38379 131.165 9.38383Z" fill="#E56E90" stroke="black" stroke-width="0.5"/>
<path d="M131.165 9.3839C182.665 -2.11613 211.165 7.88391 231.665 13.3839" stroke="black" stroke-width="0.5"/>
<path d="M170.667 30.3838L174.167 8.38379C207.667 9.38379 219.167 14.8838 223.667 16.3838L226.15 28.3838C199.16 28.3844 181.665 29.8839 170.667 30.3838Z" fill="#E56E90"/>
<path d="M226.667 30.8838L223.667 16.3838C219.167 14.8838 207.667 9.38379 174.167 8.38379L170.667 30.3838C181.667 29.8838 199.167 28.3838 226.167 28.3838" stroke="black" stroke-width="0.5"/>
<path d="M165.167 8.38379C132.167 9.38379 112.167 18.3838 93.167 35.8838L95.667 33.8838L159.667 30.8838L165.167 8.38379Z" fill="#E56E90" stroke="black" stroke-width="0.5"/>
<path d="M239.665 22.8838C235.998 20.2171 230.165 17.8838 223.665 16.3838L226.165 28.3838H232.665C235.665 26.8838 238.665 24.6525 239.665 22.8838Z" fill="#E56E90" stroke="black" stroke-width="0.5"/>
<path d="M96.667 78.8838H163.667L198.167 77.3838H212.667L213.167 82.8838H199.167H98.167H86.667V78.8838H96.667Z" fill="#E56E90"/>
<path d="M96.667 78.8838H163.667L198.167 77.3838M96.667 78.8838C96.667 80.3838 97.167 81.3838 98.167 82.8838M96.667 78.8838H86.667V82.8838H98.167M198.167 77.3838L199.167 82.8838M198.167 77.3838H212.667L213.167 82.8838H199.167M199.167 82.8838H98.167" stroke="black" stroke-width="0.5"/>
<path d="M96.6661 78.8838C92.167 74.3838 89.167 52.3838 93.1661 35.8838L165.167 31.8838C161.167 36.8838 160.167 70.8838 163.667 78.8838H96.6661Z" fill="#E56E90" stroke="black" stroke-width="0.5"/>
<path d="M228.667 30.8838L165.167 31.8838C161.167 36.8838 160.167 70.8838 163.667 78.8838L198.167 77.3838C202.667 75.8838 209.167 70.3838 228.667 30.8838Z" fill="#E56E90" stroke="black" stroke-width="0.5"/>
<path d="M170.667 30.3839C166.167 30.8839 162.667 30.8839 159.667 30.8839L165.167 8.38386C168.167 7.88379 171.167 7.88379 174.167 8.38386L170.667 30.3839Z" fill="#E56E90" stroke="black" stroke-width="0.5"/>
<path d="M99.167 32.384C103.667 37.884 110.667 34.384 114.667 32.884C115.667 17.3839 102.667 25.3839 99.167 32.384Z" fill="#E56E90" stroke="black" stroke-width="0.5"/>
<path d="M234.665 9.88379L231.665 13.3838C248.665 18.8838 259.165 21.8838 271.665 28.3838H273.165L281.165 26.8838C266.165 20.3838 258.665 17.8838 234.665 9.88379Z" fill="#E56E90" stroke="black" stroke-width="0.5"/>
<path d="M271.665 28.3838C261.165 22.8838 242.165 16.3838 231.665 13.3838L229.665 15.8838L244.665 23.3838C243.165 25.8838 239.165 27.8838 233.165 30.5838C245.165 29.8838 262.165 28.8838 271.665 28.3838Z" fill="#E56E90" stroke="black" stroke-width="0.5"/>
<path d="M277.167 34.6838L283.165 32.3838L272.666 28.3838L228.666 30.8838C221.166 45.8838 206.166 76.3838 198.166 77.3838H212.666C211.166 66.3838 220.666 42.8838 245.667 51.8838C256.167 46.3838 266.167 40.8838 277.167 34.6838Z" fill="#E56E90" stroke="black" stroke-width="0.5"/>
<path d="M278.165 34.3838C266.165 40.8838 256.165 46.3838 245.665 51.8838C250.165 54.8838 260.665 60.8838 259.665 79.8838L284.665 79.3838V77.8838C293.165 76.8838 301.665 80.3838 300.165 66.3838L302.165 56.3838C302.165 54.8838 299.665 50.8838 297.165 50.3838C298.665 47.8838 295.665 38.8838 295.665 38.8838V37.3838L291.665 34.3838L286.665 32.8838L283.165 32.3838L278.165 34.3838Z" fill="#E56E90" stroke="black" stroke-width="0.5"/>
<path d="M281.165 26.8838L272.665 28.3838L283.165 32.3838C292.665 33.3838 291.664 34.8838 295.659 37.304L295.165 28.8838L281.165 26.8838Z" fill="#E56E90"/>
<path d="M295.665 37.3838L295.659 37.304M295.659 37.304L295.165 28.8838L281.165 26.8838L272.665 28.3838L283.165 32.3838C292.665 33.3838 291.664 34.8838 295.659 37.304Z" stroke="black" stroke-width="0.5"/>
<path d="M294.167 36.884C293.667 34.3839 282.667 34.1838 277.167 34.6838" stroke="black" stroke-width="0.5"/>
<path d="M300.167 66.8838L260.667 68.8838C260.167 63.8838 258 59.7171 256.167 57.8838L302.167 55.3838M300.667 52.8838C289.667 51.3838 278.667 46.5838 266.667 40.5838M228.667 30.8838L272.667 28.3838L281.167 26.8838" stroke="black" stroke-width="0.5"/>
<path d="M290.667 40.8838C290.667 38.8838 289.667 34.8838 286.167 32.8838C288.388 32.8838 291.765 33.9242 294.276 36.2938C294.74 37.8238 293.667 41.3838 290.625 42.8838C290.612 42.2935 290.667 41.6081 290.667 40.8838Z" fill="#E56E90"/>
<path d="M272.667 43.3838C279.663 43.7336 285.68 43.8387 291.06 44.3838M297.667 45.3838C295.564 44.9331 293.371 44.6179 291.06 44.3838M295.667 37.8838C295.249 37.2987 294.78 36.7694 294.276 36.2938M291.06 44.3838C290.734 44.039 290.64 43.516 290.625 42.8838M290.625 42.8838C290.612 42.2935 290.667 41.6081 290.667 40.8838C290.667 38.8838 289.667 34.8838 286.167 32.8838C288.388 32.8838 291.765 33.9242 294.276 36.2938M290.625 42.8838C293.667 41.3838 294.74 37.8238 294.276 36.2938" stroke="black" stroke-width="0.5"/>
<path d="M290.667 40.8838C286.167 40.8838 284.167 36.8838 283.167 34.3838" stroke="black" stroke-width="0.5"/>
<path d="M132.665 12.9838C119.165 16.9838 107.165 22.8838 93.165 35.8838C100.165 23.8838 115.665 14.3838 131.165 9.38379L132.665 12.9838Z" fill="#E0426F" stroke="black" stroke-width="0.5"/>
<path d="M131.165 9.38379C111.165 15.0578 93.165 32.3838 85.165 30.3838C98.165 20.8838 114.165 12.3838 130.665 7.88379L131.165 9.38379Z" fill="#E0426F" stroke="black" stroke-width="0.5"/>
<path d="M10.1657 48.3837H4.16571C1.66504 52.3837 1.66504 62.3837 2.16571 65.8837C0.665039 66.8837 0.665637 71.3837 1.66571 72.8837L5.66571 73.3837V74.8837L1.66571 76.8837V78.8837C5.66571 79.8837 14.1657 81.8837 22.1657 81.3837V79.8837H39.6657C38.999 71.3837 40.6657 60.8837 49.6657 53.8837C47.1657 49.8837 40.1657 45.3837 37.1657 44.8837C27.1657 43.8837 12.1657 46.3837 10.1657 48.3837Z" fill="#E0426F" stroke="black" stroke-width="0.5"/>
<path d="M93.167 35.8838C75.3337 36.7171 43.667 41.5838 33.167 44.5838L37.167 44.8838C42.167 46.3838 47.667 50.7171 49.667 53.8838C62.666 44.3838 88.166 51.3838 86.666 78.8838H96.666C89.666 67.8838 90.666 45.8838 93.167 35.8838Z" fill="#E0426F" stroke="black" stroke-width="0.5"/>
<path d="M10.165 48.3838H4.16504C36.6652 28.8837 58.6653 34.8838 84.665 30.3838L93.6653 35.8838C76.6653 36.8838 47.665 40.3838 33.665 44.5838C25.665 44.3838 11.665 46.3838 10.165 48.3838Z" fill="#E0426F" stroke="black" stroke-width="0.5"/>
<path d="M37.1665 44.8839C29.6665 43.8838 12.6665 45.8838 10.1665 48.3839C9.36649 50.7838 12.4998 53.7171 14.1665 54.8838C23.6665 56.3838 37.1665 50.3838 37.1665 44.8839Z" fill="#E0426F" stroke="black" stroke-width="0.5"/>
<path d="M4.16573 48.3838C11.1657 49.3838 5.16573 59.8838 2.16573 64.8838C1.66566 57.8838 2.16553 52.3838 4.16573 48.3838Z" fill="#E0426F" stroke="black" stroke-width="0.5"/>
<path d="M22.165 84.3838V79.8838H39.665L40.165 84.3838H22.165Z" fill="#E0426F" stroke="black" stroke-width="0.5"/>
<path d="M2.66699 65.8838C4.16699 68.3838 6.16699 71.5505 5.66699 73.3838M22.167 79.8838C11.667 80.3838 7.16699 76.3838 8.16699 72.8838C8.66699 72.3838 10.167 70.8838 11.167 70.8838" stroke="black" stroke-width="0.5"/>
<path d="M32.167 74.8839C29.667 70.8839 24.167 65.884 21.167 64.384C19.4169 63.884 16.7919 64.009 14.0418 64.384C12.4169 65.7173 11.167 68.8839 11.667 71.8839C11.667 73.0506 12.9744 75.3839 15.667 75.3839C20.167 75.3839 27.167 75.8839 32.167 74.8839Z" fill="#E0426F"/>
<path d="M6.16699 65.884C8.41693 65.384 11.2918 64.759 14.0418 64.384M14.0418 64.384C16.7919 64.009 19.4169 63.884 21.167 64.384C24.167 65.884 29.667 70.8839 32.167 74.8839C27.167 75.8839 20.167 75.3839 15.667 75.3839C12.9744 75.3839 11.667 73.0506 11.667 71.8839C11.167 68.8839 12.4168 65.7173 14.0418 64.384Z" stroke="black" stroke-width="0.5"/>
<path d="M11.667 71.384C19.667 69.884 23.167 72.5125 26.167 74.0125M13.167 74.384L30.667 73.884" stroke="black" stroke-width="0.5"/>
<path d="M22.165 82.8838H31.665C33.665 82.8838 35.165 80.8838 34.665 79.8838M38.165 79.8838V84.3838" stroke="black" stroke-width="0.5"/>
<path d="M22.1669 81.384C17.6669 81.384 13.1669 81.884 1.66694 78.884V76.884L5.66694 74.884V73.384L1.66694 72.884C1.16602 71.3838 0.166211 68.3838 2.16621 65.8838C1.66645 57.8838 2.16645 51.3838 4.16694 48.3835C36.6669 28.8839 58.6669 34.884 84.6669 30.384C162.667 -24.6161 244.667 12.3838 281.667 26.884L295.167 28.8838L295.667 35.8838V38.8838C297.165 43.8838 298.5 48.3838 297.167 50.3838C299.667 51.3838 302.167 54.5505 302.167 56.3838L300.167 66.3838C300.619 77.2317 298.211 77.456 288.879 77.7684C287.888 77.8016 285.819 77.8358 284.667 77.8838V79.3838L259.667 79.8148M22.1669 81.384V84.384H40.1653L39.6669 79.884M22.1669 81.384V79.884H39.6669M39.6669 79.884C36.6669 38.384 90.1669 41.384 86.6669 80.384V82.8838H213.167C207.167 39.3838 261.667 39.3838 259.667 79.8148M259.165 79.8148H259.667" stroke="black"/>
</svg>
