<svg width="304" height="95" viewBox="0 0 304 95" fill="none" xmlns="http://www.w3.org/2000/svg">
<circle cx="63.0635" cy="73.8459" r="20.5" fill="#EDADBF" stroke="black"/>
<circle cx="236.063" cy="73.8459" r="20.5" fill="#EDADBF" stroke="black"/>
<path d="M133.062 12.3458L131.562 8.8458C171.562 0.845915 193.062 1.34595 232.062 12.8459L228.562 17.3459C208.562 9.34586 190.562 8.34586 174.562 7.84592C172.062 7.34592 168.062 7.34589 165.562 7.8458C155.562 7.84592 143.562 9.34592 133.062 12.3458Z" stroke="black" stroke-width="0.5"/>
<path d="M131.562 8.84599L131.062 7.34599C167.062 -3.65405 199.562 0.345821 235.062 9.34599L232.062 12.846C192.062 0.345947 166.062 1.84595 131.562 8.84599Z" stroke="black" stroke-width="0.5"/>
<path d="M131.562 8.84593C183.062 -2.65409 211.562 7.34595 232.062 12.8459" stroke="black" stroke-width="0.5"/>
<path d="M227.063 30.3459L224.063 15.8459C219.563 14.3459 208.063 8.84595 174.563 7.84595L171.063 29.8459C182.063 29.3459 199.563 27.8459 226.563 27.8459" stroke="black" stroke-width="0.5"/>
<path d="M165.563 7.84595C132.563 8.84595 112.563 17.8459 93.5635 35.3459L96.0635 33.3459L160.063 30.3459L165.563 7.84595Z" stroke="black" stroke-width="0.5"/>
<path d="M240.062 22.3459C236.395 19.6793 230.562 17.3459 224.062 15.8459L226.562 27.8459H233.062C236.062 26.3459 239.062 24.1147 240.062 22.3459Z" stroke="black" stroke-width="0.5"/>
<path d="M97.0635 78.3459H164.063L198.563 76.8459M97.0635 78.3459C97.0635 79.8459 97.5635 80.8459 98.5635 82.3459M97.0635 78.3459H87.0635V82.3459H98.5635M198.563 76.8459L199.563 82.3459M198.563 76.8459H213.063L213.563 82.3459H199.563M199.563 82.3459H98.5635" stroke="black" stroke-width="0.5"/>
<path d="M97.0626 78.3459C92.5635 73.8459 89.5635 51.8459 93.5626 35.3459L165.563 31.3459C161.563 36.3459 160.563 70.3459 164.063 78.3459H97.0626Z" stroke="black" stroke-width="0.5"/>
<path d="M229.063 30.3459L165.563 31.3459C161.564 36.3459 160.564 70.3459 164.063 78.3459L198.563 76.8459C203.063 75.3459 209.563 69.8459 229.063 30.3459Z" stroke="black" stroke-width="0.5"/>
<path d="M171.063 29.846C166.563 30.346 163.063 30.346 160.063 30.346L165.563 7.84602C168.563 7.34595 171.563 7.34595 174.563 7.84602L171.063 29.846Z" stroke="black" stroke-width="0.5"/>
<path d="M99.5635 31.8461C104.063 37.3461 111.063 33.8461 115.063 32.3461C116.063 16.846 103.063 24.8459 99.5635 31.8461Z" stroke="black" stroke-width="0.5"/>
<path d="M235.062 9.34595L232.062 12.8459C249.062 18.3459 259.562 21.3459 272.062 27.8459H273.562L281.562 26.3459C266.562 19.8459 259.062 17.3459 235.062 9.34595Z" fill="#E56E90" stroke="black" stroke-width="0.5"/>
<path d="M272.062 27.8459C261.562 22.3459 242.562 15.8459 232.062 12.8459L230.062 15.3459L245.062 22.8459C243.562 25.3459 239.562 27.3459 233.562 30.0459C245.562 29.3459 262.562 28.3459 272.062 27.8459Z" fill="#E56E90" stroke="black" stroke-width="0.5"/>
<path d="M277.563 34.1459L283.562 31.8459L273.062 27.8459L229.062 30.3459C221.562 45.3459 206.562 75.8459 198.562 76.8459H213.062C211.562 65.8459 221.062 42.3459 246.063 51.3459C256.563 45.8459 266.563 40.3459 277.563 34.1459Z" fill="#E56E90" stroke="black" stroke-width="0.5"/>
<path d="M278.562 33.846C266.562 40.346 256.562 45.846 246.062 51.346C250.562 54.3459 261.062 60.3459 260.062 79.3459L285.062 78.8459V77.3459C293.562 76.3459 302.062 79.8459 300.562 65.8459L302.562 55.8459C302.562 54.3459 300.062 50.3459 297.562 49.8459C299.062 47.3459 296.062 38.3459 296.062 38.3459V36.8459L292.062 33.8459L287.062 32.3459L283.562 31.8459L278.562 33.846Z" fill="#E56E90" stroke="black" stroke-width="0.5"/>
<path d="M281.562 26.3459L273.062 27.8459L283.562 31.8459C293.062 32.8459 292.06 34.3459 296.056 36.7661L295.562 28.3459L281.562 26.3459Z" fill="#E56E90"/>
<path d="M296.062 36.8459L296.056 36.7661M296.056 36.7661L295.562 28.3459L281.562 26.3459L273.062 27.8459L283.562 31.8459C293.062 32.8459 292.06 34.3459 296.056 36.7661Z" stroke="black" stroke-width="0.5"/>
<path d="M294.563 36.3461C294.063 33.846 283.063 33.646 277.563 34.146" stroke="black" stroke-width="0.5"/>
<path d="M300.563 66.3459L261.063 68.3459C260.563 63.3459 258.397 59.1793 256.563 57.3459L302.563 54.8459M301.063 52.3459C290.063 50.8459 279.063 46.0459 267.063 40.0459M229.063 30.3459L273.063 27.8459L281.563 26.3459" stroke="black" stroke-width="0.5"/>
<path d="M291.063 40.3459C291.063 38.3459 290.063 34.3459 286.563 32.3459C288.784 32.3459 292.161 33.3863 294.672 35.7559C295.136 37.2859 294.063 40.8459 291.022 42.3459C291.008 41.7557 291.063 41.0702 291.063 40.3459Z" fill="#E56E90"/>
<path d="M273.063 42.8459C280.059 43.1957 286.076 43.3008 291.457 43.8459M298.063 44.8459C295.96 44.3953 293.767 44.08 291.457 43.8459M296.063 37.3459C295.646 36.7608 295.176 36.2316 294.672 35.7559M291.457 43.8459C291.13 43.5012 291.036 42.9781 291.022 42.3459M291.022 42.3459C291.008 41.7557 291.063 41.0702 291.063 40.3459C291.063 38.3459 290.063 34.3459 286.563 32.3459C288.784 32.3459 292.161 33.3863 294.672 35.7559M291.022 42.3459C294.063 40.8459 295.136 37.2859 294.672 35.7559" stroke="black" stroke-width="0.5"/>
<path d="M291.063 40.3459C286.563 40.3459 284.563 36.3459 283.563 33.8459" stroke="black" stroke-width="0.5"/>
<path d="M133.062 12.4459C119.562 16.4459 107.562 22.3459 93.5615 35.3459C100.562 23.3459 116.062 13.8459 131.562 8.84595L133.062 12.4459Z" fill="#E0426F" stroke="black" stroke-width="0.5"/>
<path d="M131.562 8.84595C111.562 14.52 93.5615 31.8459 85.5615 29.8459C98.5615 20.3459 114.562 11.8459 131.062 7.34595L131.562 8.84595Z" fill="#E0426F" stroke="black" stroke-width="0.5"/>
<path d="M10.5622 47.846H4.56219C2.06152 51.8459 2.06152 61.8459 2.56219 65.3459C1.06152 66.3459 1.06212 70.8459 2.06219 72.3459L6.06219 72.8459V74.3459L2.06219 76.3459V78.3459C6.06219 79.3459 14.5622 81.3459 22.5622 80.8459V79.3459H40.0622C39.3955 70.8459 41.0622 60.3459 50.0622 53.3459C47.5622 49.3459 40.5622 44.8459 37.5622 44.346C27.5622 43.3459 12.5622 45.846 10.5622 47.846Z" fill="#E0426F" stroke="black" stroke-width="0.5"/>
<path d="M93.5635 35.3459C75.7301 36.1793 44.0635 41.0459 33.5635 44.0459L37.5635 44.3459C42.5635 45.8459 48.0635 50.1793 50.0635 53.3459C63.0625 43.8459 88.5625 50.8459 87.0625 78.3459H97.0625C90.0625 67.3459 91.0625 45.3459 93.5635 35.3459Z" fill="#E0426F" stroke="black" stroke-width="0.5"/>
<path d="M10.5615 47.846H4.56152C37.0617 28.3459 59.0618 34.3459 85.0615 29.8459L94.0618 35.3459C77.0618 36.3459 48.0615 39.8459 34.0615 44.046C26.0615 43.8459 12.0615 45.8459 10.5615 47.846Z" fill="#E0426F" stroke="black" stroke-width="0.5"/>
<path d="M37.563 44.346C30.063 43.3459 13.063 45.3459 10.563 47.846C9.76298 50.246 12.8963 53.1793 14.563 54.3459C24.063 55.8459 37.563 49.8459 37.563 44.346Z" fill="#E0426F" stroke="black" stroke-width="0.5"/>
<path d="M4.56222 47.8459C11.5622 48.8459 5.56222 59.3459 2.56222 64.3459C2.06215 57.3459 2.56201 51.8459 4.56222 47.8459Z" fill="#E0426F" stroke="black" stroke-width="0.5"/>
<path d="M22.5615 83.8459V79.3459H40.0615L40.5615 83.8459H22.5615Z" fill="#E0426F" stroke="black" stroke-width="0.5"/>
<path d="M3.06348 65.3459C4.56348 67.8459 6.56348 71.0126 6.06348 72.8459M22.5635 79.3459C12.0635 79.8459 7.56348 75.8459 8.56348 72.3459C9.06348 71.8459 10.5635 70.3459 11.5635 70.3459" stroke="black" stroke-width="0.5"/>
<path d="M32.5635 74.3459C30.0635 70.3459 24.5635 65.346 21.5635 63.846C19.8134 63.346 17.1883 63.471 14.4383 63.846C12.8133 65.1793 11.5635 68.3459 12.0635 71.3459C12.0635 72.5126 13.3709 74.8459 16.0635 74.8459C20.5635 74.8459 27.5635 75.3459 32.5635 74.3459Z" fill="#E0426F"/>
<path d="M6.56348 65.346C8.81342 64.846 11.6883 64.221 14.4383 63.846M14.4383 63.846C17.1883 63.471 19.8134 63.346 21.5635 63.846C24.5635 65.346 30.0635 70.3459 32.5635 74.3459C27.5635 75.3459 20.5635 74.8459 16.0635 74.8459C13.3709 74.8459 12.0635 72.5126 12.0635 71.3459C11.5635 68.3459 12.8133 65.1793 14.4383 63.846Z" stroke="black" stroke-width="0.5"/>
<path d="M12.0635 70.846C20.0635 69.3461 23.5635 71.9745 26.5635 73.4745M13.5635 73.8461L31.0635 73.3461" stroke="black" stroke-width="0.5"/>
<path d="M22.5615 82.3459H32.0615C34.0615 82.3459 35.5615 80.3459 35.0615 79.3459M38.5615 79.3459V83.8459" stroke="black" stroke-width="0.5"/>
<path d="M22.5634 80.8462C18.0634 80.8462 13.5634 81.3462 2.06342 78.3462V76.3462L6.06342 74.3462V72.8462L2.06342 72.3462C1.5625 70.8459 0.562696 67.8459 2.56269 65.3459C2.06293 57.3459 2.56293 50.8459 4.56342 47.8457C37.0634 28.3461 59.0634 34.3461 85.0634 29.8461C163.063 -25.154 245.063 11.8459 282.063 26.3461L295.563 28.3459L296.063 35.3459V38.3459C297.562 43.3459 298.897 47.8459 297.563 49.8459C300.063 50.8459 302.563 54.0126 302.563 55.8459L300.563 65.8459C301.015 76.6939 298.607 76.9181 289.276 77.2306C288.285 77.2638 286.216 77.2979 285.063 77.3459V78.8459L260.063 79.277M22.5634 80.8462V83.8462H40.5618L40.0634 79.3462M22.5634 80.8462V79.3462H40.0634M40.0634 79.3462C37.0634 37.8462 90.5634 40.8462 87.0634 79.8462V82.3459H213.563C207.563 38.8459 262.063 38.8459 260.063 79.277M259.562 79.277H260.063" stroke="black"/>
</svg>
