<svg width="303" height="96" viewBox="0 0 303 96" fill="none" xmlns="http://www.w3.org/2000/svg">
<circle cx="62.4697" cy="74.0303" r="20.5" fill="#E0426F" stroke="black"/>
<circle cx="235.47" cy="74.0303" r="20.5" fill="#E0426F" stroke="black"/>
<path d="M132.468 12.5301L130.968 9.03013C170.968 1.03024 192.468 1.53027 231.468 13.0302L227.968 17.5302C207.968 9.53018 189.968 8.53018 173.968 8.03025C171.468 7.53025 167.468 7.53021 164.968 8.03013C154.968 8.03025 142.968 9.53025 132.468 12.5301Z" fill="#EDADBF" stroke="black" stroke-width="0.5"/>
<path d="M130.968 9.03032L130.468 7.53032C166.468 -3.46973 198.968 0.530148 234.468 9.53032L231.468 13.0303C191.468 0.530273 165.468 2.03027 130.968 9.03032Z" fill="#EDADBF" stroke="black" stroke-width="0.5"/>
<path d="M130.968 9.03038C182.468 -2.46964 210.968 7.5304 231.468 13.0304" stroke="black" stroke-width="0.5"/>
<path d="M170.47 30.0303L173.97 8.03027C207.47 9.03027 218.97 14.5303 223.47 16.0303L225.952 28.0303C198.962 28.0309 181.467 29.5304 170.47 30.0303Z" fill="#EDADBF"/>
<path d="M226.47 30.5303L223.47 16.0303C218.97 14.5303 207.47 9.03027 173.97 8.03027L170.47 30.0303C181.47 29.5303 198.97 28.0303 225.97 28.0303" stroke="black" stroke-width="0.5"/>
<path d="M164.97 8.03027C131.97 9.03027 111.97 18.0303 92.9697 35.5303L95.4697 33.5303L159.47 30.5303L164.97 8.03027Z" fill="#EDADBF" stroke="black" stroke-width="0.5"/>
<path d="M239.468 22.5303C235.801 19.8636 229.968 17.5303 223.468 16.0303L225.968 28.0303H232.468C235.468 26.5303 238.468 24.299 239.468 22.5303Z" fill="#EDADBF" stroke="black" stroke-width="0.5"/>
<path d="M96.4697 78.5303H163.47L197.97 77.0303H212.47L212.97 82.5303H198.97H97.9697H86.4697V78.5303H96.4697Z" fill="#EDADBF"/>
<path d="M96.4697 78.5303H163.47L197.97 77.0303M96.4697 78.5303C96.4697 80.0303 96.9697 81.0303 97.9697 82.5303M96.4697 78.5303H86.4697V82.5303H97.9697M197.97 77.0303L198.97 82.5303M197.97 77.0303H212.47L212.97 82.5303H198.97M198.97 82.5303H97.9697" stroke="black" stroke-width="0.5"/>
<path d="M96.4689 78.5303C91.9697 74.0303 88.9698 52.0303 92.9689 35.5303L164.97 31.5303C160.97 36.5303 159.97 70.5303 163.47 78.5303H96.4689Z" fill="#EDADBF" stroke="black" stroke-width="0.5"/>
<path d="M228.47 30.5303L164.97 31.5303C160.97 36.5303 159.97 70.5303 163.47 78.5303L197.97 77.0303C202.47 75.5303 208.97 70.0303 228.47 30.5303Z" fill="#EDADBF" stroke="black" stroke-width="0.5"/>
<path d="M170.47 30.0303C165.97 30.5303 162.47 30.5303 159.47 30.5303L164.97 8.03035C167.97 7.53027 170.97 7.53027 173.97 8.03035L170.47 30.0303Z" fill="#EDADBF" stroke="black" stroke-width="0.5"/>
<path d="M98.9697 32.0305C103.47 37.5305 110.47 34.0305 114.47 32.5305C115.47 17.0304 102.47 25.0304 98.9697 32.0305Z" fill="#EDADBF" stroke="black" stroke-width="0.5"/>
<path d="M234.468 9.53027L231.468 13.0303C248.468 18.5303 258.968 21.5303 271.468 28.0303H272.968L280.968 26.5303C265.968 20.0303 258.468 17.5303 234.468 9.53027Z" fill="#EDADBF" stroke="black" stroke-width="0.5"/>
<path d="M271.468 28.0303C260.968 22.5303 241.968 16.0303 231.468 13.0303L229.468 15.5303L244.468 23.0303C242.968 25.5303 238.968 27.5303 232.968 30.2303C244.968 29.5303 261.968 28.5303 271.468 28.0303Z" fill="#EDADBF" stroke="black" stroke-width="0.5"/>
<path d="M276.97 34.3303L282.968 32.0303L272.469 28.0303L228.469 30.5303C220.969 45.5303 205.969 76.0303 197.969 77.0303H212.469C210.969 66.0303 220.469 42.5303 245.47 51.5303C255.97 46.0303 265.97 40.5303 276.97 34.3303Z" fill="#EDADBF" stroke="black" stroke-width="0.5"/>
<path d="M277.968 34.0303C265.968 40.5303 255.968 46.0303 245.468 51.5303C249.968 54.5303 260.468 60.5303 259.468 79.5303L284.468 79.0303V77.5303C292.968 76.5303 301.468 80.0303 299.968 66.0303L301.968 56.0303C301.968 54.5303 299.468 50.5303 296.968 50.0303C298.468 47.5303 295.468 38.5303 295.468 38.5303V37.0303L291.468 34.0303L286.468 32.5303L282.968 32.0303L277.968 34.0303Z" fill="#EDADBF" stroke="black" stroke-width="0.5"/>
<path d="M280.968 26.5303L272.468 28.0303L282.968 32.0303C292.468 33.0303 291.467 34.5303 295.462 36.9505L294.968 28.5303L280.968 26.5303Z" fill="#EDADBF"/>
<path d="M295.468 37.0303L295.462 36.9505M295.462 36.9505L294.968 28.5303L280.968 26.5303L272.468 28.0303L282.968 32.0303C292.468 33.0303 291.467 34.5303 295.462 36.9505Z" stroke="black" stroke-width="0.5"/>
<path d="M293.97 36.5305C293.47 34.0304 282.47 33.8303 276.97 34.3303" stroke="black" stroke-width="0.5"/>
<path d="M299.97 66.5303L260.47 68.5303C259.97 63.5303 257.803 59.3636 255.97 57.5303L301.97 55.0303M300.47 52.5303C289.47 51.0303 278.47 46.2303 266.47 40.2303M228.47 30.5303L272.47 28.0303L280.97 26.5303" stroke="black" stroke-width="0.5"/>
<path d="M290.47 40.5303C290.47 38.5303 289.47 34.5303 285.97 32.5303C288.191 32.5303 291.567 33.5707 294.079 35.9403C294.542 37.4703 293.47 41.0303 290.428 42.5303C290.414 41.94 290.47 41.2546 290.47 40.5303Z" fill="#EDADBF"/>
<path d="M272.47 43.0303C279.465 43.3801 285.482 43.4851 290.863 44.0303M297.47 45.0303C295.367 44.5796 293.173 44.2644 290.863 44.0303M295.47 37.5303C295.052 36.9451 294.583 36.4159 294.079 35.9403M290.863 44.0303C290.537 43.6855 290.443 43.1625 290.428 42.5303M290.428 42.5303C290.414 41.94 290.47 41.2546 290.47 40.5303C290.47 38.5303 289.47 34.5303 285.97 32.5303C288.191 32.5303 291.567 33.5707 294.079 35.9403M290.428 42.5303C293.47 41.0303 294.542 37.4703 294.079 35.9403" stroke="black" stroke-width="0.5"/>
<path d="M290.47 40.5303C285.97 40.5303 283.97 36.5303 282.97 34.0303" stroke="black" stroke-width="0.5"/>
<path d="M132.468 12.6302C118.968 16.6302 106.968 22.5303 92.9678 35.5303C99.9678 23.5303 115.468 14.0303 130.968 9.03027L132.468 12.6302Z" fill="#EFC7D3" stroke="black" stroke-width="0.5"/>
<path d="M130.968 9.03027C110.968 14.7043 92.9678 32.0303 84.9678 30.0303C97.9678 20.5303 113.968 12.0303 130.468 7.53027L130.968 9.03027Z" fill="#EFC7D3" stroke="black" stroke-width="0.5"/>
<path d="M9.96844 48.0302H3.96844C1.46777 52.0302 1.46777 62.0302 1.96844 65.5302C0.467773 66.5302 0.468371 71.0302 1.46844 72.5302L5.46844 73.0302V74.5302L1.46844 76.5302V78.5302C5.46844 79.5302 13.9684 81.5302 21.9684 81.0302V79.5302H39.4684C38.8018 71.0302 40.4684 60.5302 49.4684 53.5302C46.9684 49.5302 39.9684 45.0302 36.9684 44.5302C26.9684 43.5302 11.9684 46.0302 9.96844 48.0302Z" fill="#EFC7D3" stroke="black" stroke-width="0.5"/>
<path d="M92.9697 35.5303C75.1364 36.3636 43.4697 41.2303 32.9697 44.2303L36.9697 44.5303C41.9697 46.0303 47.4697 50.3636 49.4697 53.5303C62.4688 44.0303 87.9688 51.0303 86.4688 78.5303H96.4688C89.4688 67.5303 90.4688 45.5303 92.9697 35.5303Z" fill="#EFC7D3" stroke="black" stroke-width="0.5"/>
<path d="M9.96777 48.0303H3.96777C36.468 28.5302 58.468 34.5303 84.4678 30.0303L93.468 35.5303C76.468 36.5303 47.4678 40.0303 33.4678 44.2303C25.4678 44.0303 11.4678 46.0303 9.96777 48.0303Z" fill="#EFC7D3" stroke="black" stroke-width="0.5"/>
<path d="M36.9692 44.5303C29.4692 43.5303 12.4692 45.5303 9.96923 48.0303C9.16923 50.4303 12.3026 53.3636 13.9692 54.5303C23.4692 56.0303 36.9692 50.0303 36.9692 44.5303Z" fill="#EFC7D3" stroke="black" stroke-width="0.5"/>
<path d="M3.96847 48.0303C10.9685 49.0303 4.96847 59.5303 1.96847 64.5303C1.4684 57.5303 1.96826 52.0303 3.96847 48.0303Z" fill="#EFC7D3" stroke="black" stroke-width="0.5"/>
<path d="M21.9678 84.0303V79.5303H39.4678L39.9678 84.0303H21.9678Z" fill="#EFC7D3" stroke="black" stroke-width="0.5"/>
<path d="M2.46973 65.5303C3.96973 68.0303 5.96973 71.1969 5.46973 73.0303M21.9697 79.5303C11.4697 80.0303 6.96973 76.0303 7.96973 72.5303C8.46973 72.0303 9.96973 70.5303 10.9697 70.5303" stroke="black" stroke-width="0.5"/>
<path d="M31.9697 74.5304C29.4697 70.5304 23.9697 65.5305 20.9697 64.0305C19.2197 63.5305 16.5946 63.6555 13.8445 64.0305C12.2196 65.3638 10.9697 68.5304 11.4697 71.5304C11.4697 72.6971 12.7771 75.0304 15.4697 75.0304C19.9697 75.0304 26.9697 75.5304 31.9697 74.5304Z" fill="#EFC7D3"/>
<path d="M5.96973 65.5305C8.21967 65.0304 11.0946 64.4055 13.8445 64.0305M13.8445 64.0305C16.5946 63.6555 19.2197 63.5305 20.9697 64.0305C23.9697 65.5305 29.4697 70.5304 31.9697 74.5304C26.9697 75.5304 19.9697 75.0304 15.4697 75.0304C12.7771 75.0304 11.4697 72.6971 11.4697 71.5304C10.9697 68.5304 12.2196 65.3638 13.8445 64.0305Z" stroke="black" stroke-width="0.5"/>
<path d="M11.4697 71.0305C19.4697 69.5305 22.9697 72.159 25.9697 73.659M12.9697 74.0305L30.4697 73.5305" stroke="black" stroke-width="0.5"/>
<path d="M21.9678 82.5303H31.4678C33.4678 82.5303 34.9678 80.5303 34.4678 79.5303M37.9678 79.5303V84.0303" stroke="black" stroke-width="0.5"/>
<path d="M21.9697 81.0305C17.4697 81.0305 12.9697 81.5305 1.46967 78.5305V76.5305L5.46967 74.5305V73.0305L1.46967 72.5305C0.96875 71.0303 -0.0310541 68.0303 1.96894 65.5303C1.46918 57.5303 1.96918 51.0303 3.96967 48.03C36.4697 28.5304 58.4697 34.5305 84.4697 30.0305C162.47 -24.9697 244.47 12.0303 281.47 26.5305L294.97 28.5303L295.47 35.5303V38.5303C296.968 43.5303 298.303 48.0303 296.97 50.0303C299.47 51.0303 301.97 54.1969 301.97 56.0303L299.97 66.0303C300.422 76.8782 298.013 77.1025 288.682 77.4149C287.691 77.4481 285.622 77.4823 284.47 77.5303V79.0303L259.47 79.4613M21.9697 81.0305V84.0305H39.968L39.4697 79.5305M21.9697 81.0305V79.5305H39.4697M39.4697 79.5305C36.4697 38.0305 89.9697 41.0305 86.4697 80.0305V82.5303H212.97C206.97 39.0303 261.47 39.0303 259.47 79.4613M258.968 79.4613H259.47" stroke="black"/>
</svg>
