<svg width="303" height="95" viewBox="0 0 303 95" fill="none" xmlns="http://www.w3.org/2000/svg">
<circle cx="62.4473" cy="73.8611" r="20.5" fill="#E0426F" stroke="black"/>
<circle cx="235.447" cy="73.8611" r="20.5" fill="#E0426F" stroke="black"/>
<path d="M132.445 12.3609L130.945 8.86094C170.945 0.861052 192.445 1.36108 231.445 12.861L227.945 17.361C207.945 9.36099 189.945 8.36099 173.945 7.86106C171.445 7.36106 167.445 7.36102 164.945 7.86094C154.945 7.86106 142.945 9.36106 132.445 12.3609Z" fill="#EDADBF" stroke="black" stroke-width="0.5"/>
<path d="M130.945 8.86113L130.445 7.36113C166.445 -3.63892 198.945 0.360958 234.445 9.36113L231.445 12.8611C191.445 0.361084 165.445 1.86108 130.945 8.86113Z" fill="#EDADBF" stroke="black" stroke-width="0.5"/>
<path d="M130.945 8.86095C182.445 -2.63908 210.945 7.36096 231.445 12.8609" stroke="black" stroke-width="0.5"/>
<path d="M170.447 29.8611L173.947 7.86108C207.447 8.86108 218.947 14.3611 223.447 15.8611L225.93 27.8611C198.94 27.8617 181.445 29.3612 170.447 29.8611Z" fill="#EDADBF"/>
<path d="M226.447 30.3611L223.447 15.8611C218.947 14.3611 207.447 8.86108 173.947 7.86108L170.447 29.8611C181.447 29.3611 198.947 27.8611 225.947 27.8611" stroke="black" stroke-width="0.5"/>
<path d="M164.947 7.86108C131.947 8.86108 111.947 17.8611 92.9473 35.3611L95.4473 33.3611L159.447 30.3611L164.947 7.86108Z" fill="#EDADBF" stroke="black" stroke-width="0.5"/>
<path d="M239.445 22.3611C235.779 19.6944 229.945 17.3611 223.445 15.8611L225.945 27.8611H232.445C235.445 26.3611 238.445 24.1298 239.445 22.3611Z" fill="#EDADBF" stroke="black" stroke-width="0.5"/>
<path d="M96.4473 78.3611H163.447L197.947 76.8611H212.447L212.947 82.3611H198.947H97.9473H86.4473V78.3611H96.4473Z" fill="#EDADBF"/>
<path d="M96.4473 78.3611H163.447L197.947 76.8611M96.4473 78.3611C96.4473 79.8611 96.9473 80.8611 97.9473 82.3611M96.4473 78.3611H86.4473V82.3611H97.9473M197.947 76.8611L198.947 82.3611M197.947 76.8611H212.447L212.947 82.3611H198.947M198.947 82.3611H97.9473" stroke="black" stroke-width="0.5"/>
<path d="M96.4464 78.3611C91.9473 73.8611 88.9473 51.8611 92.9464 35.3611L164.947 31.3611C160.947 36.3611 159.947 70.3611 163.447 78.3611H96.4464Z" fill="#EDADBF" stroke="black" stroke-width="0.5"/>
<path d="M228.447 30.3611L164.947 31.3611C160.947 36.3611 159.948 70.3611 163.447 78.3611L197.947 76.8611C202.447 75.3611 208.947 69.8611 228.447 30.3611Z" fill="#EDADBF" stroke="black" stroke-width="0.5"/>
<path d="M170.447 29.8612C165.947 30.3612 162.447 30.3612 159.447 30.3612L164.947 7.86116C167.947 7.36108 170.947 7.36108 173.947 7.86116L170.447 29.8612Z" fill="#EDADBF" stroke="black" stroke-width="0.5"/>
<path d="M98.9473 31.8611C103.447 37.3611 110.447 33.8611 114.447 32.3611C115.447 16.861 102.447 24.861 98.9473 31.8611Z" fill="#EDADBF" stroke="black" stroke-width="0.5"/>
<path d="M234.445 9.36108L231.445 12.8611C248.445 18.3611 258.945 21.3611 271.445 27.8611H272.945L280.945 26.3611C265.945 19.8611 258.445 17.3611 234.445 9.36108Z" fill="#E0426F" stroke="black" stroke-width="0.5"/>
<path d="M271.445 27.8611C260.945 22.3611 241.945 15.8611 231.445 12.8611L229.445 15.3611L244.445 22.8611C242.945 25.3611 238.945 27.3611 232.945 30.0611C244.945 29.3611 261.945 28.3611 271.445 27.8611Z" fill="#E0426F" stroke="black" stroke-width="0.5"/>
<path d="M276.947 34.1611L282.946 31.8611L272.446 27.8611L228.446 30.3611C220.946 45.3611 205.946 75.8611 197.946 76.8611H212.446C210.946 65.8611 220.446 42.3611 245.447 51.3611C255.947 45.8611 265.947 40.3611 276.947 34.1611Z" fill="#E0426F" stroke="black" stroke-width="0.5"/>
<path d="M277.945 33.8611C265.945 40.3611 255.945 45.8611 245.445 51.3611C249.945 54.3611 260.445 60.3611 259.445 79.3611L284.445 78.8611V77.3611C292.945 76.3611 301.445 79.8611 299.945 65.8611L301.945 55.8611C301.945 54.3611 299.445 50.3611 296.945 49.8611C298.445 47.3611 295.445 38.3611 295.445 38.3611V36.8611L291.445 33.8611L286.445 32.3611L282.945 31.8611L277.945 33.8611Z" fill="#E0426F" stroke="black" stroke-width="0.5"/>
<path d="M280.945 26.3611L272.445 27.8611L282.945 31.8611C292.445 32.8611 291.444 34.3611 295.439 36.7813L294.945 28.3611L280.945 26.3611Z" fill="#E0426F"/>
<path d="M295.445 36.8611L295.439 36.7813M295.439 36.7813L294.945 28.3611L280.945 26.3611L272.445 27.8611L282.945 31.8611C292.445 32.8611 291.444 34.3611 295.439 36.7813Z" stroke="black" stroke-width="0.5"/>
<path d="M293.947 36.3613C293.447 33.8612 282.447 33.6611 276.947 34.1611" stroke="black" stroke-width="0.5"/>
<path d="M299.947 66.3611L260.447 68.3611C259.947 63.3611 257.781 59.1944 255.947 57.3611L301.947 54.8611M300.447 52.3611C289.447 50.8611 278.447 46.0611 266.447 40.0611M228.447 30.3611L272.447 27.8611L280.947 26.3611" stroke="black" stroke-width="0.5"/>
<path d="M290.447 40.3611C290.447 38.3611 289.447 34.3611 285.947 32.3611C288.168 32.3611 291.545 33.4015 294.056 35.7711C294.52 37.3011 293.447 40.8611 290.405 42.3611C290.392 41.7708 290.447 41.0854 290.447 40.3611Z" fill="#E0426F"/>
<path d="M272.447 42.8611C279.443 43.2109 285.46 43.316 290.84 43.8611M297.447 44.8611C295.344 44.4104 293.151 44.0952 290.84 43.8611M295.447 37.3611C295.029 36.776 294.56 36.2467 294.056 35.7711M290.84 43.8611C290.514 43.5163 290.42 42.9933 290.405 42.3611M290.405 42.3611C290.392 41.7708 290.447 41.0854 290.447 40.3611C290.447 38.3611 289.447 34.3611 285.947 32.3611C288.168 32.3611 291.545 33.4015 294.056 35.7711M290.405 42.3611C293.447 40.8611 294.52 37.3011 294.056 35.7711" stroke="black" stroke-width="0.5"/>
<path d="M290.447 40.3611C285.947 40.3611 283.947 36.3611 282.947 33.8611" stroke="black" stroke-width="0.5"/>
<path d="M132.445 12.4611C118.945 16.4611 106.945 22.3611 92.9453 35.3611C99.9453 23.3611 115.445 13.8611 130.945 8.86108L132.445 12.4611Z" stroke="black" stroke-width="0.5"/>
<path d="M130.945 8.86108C110.945 14.5351 92.9453 31.8611 84.9453 29.8611C97.9453 20.3611 113.945 11.8611 130.445 7.36108L130.945 8.86108Z" stroke="black" stroke-width="0.5"/>
<path d="M9.94598 47.861H3.94598C1.44531 51.861 1.44531 61.861 1.94598 65.361C0.445312 66.361 0.44591 70.861 1.44598 72.361L5.44598 72.861V74.361L1.44598 76.361V78.361C5.44598 79.361 13.946 81.361 21.946 80.861V79.361H39.446C38.7793 70.861 40.446 60.361 49.446 53.361C46.946 49.361 39.946 44.861 36.946 44.361C26.946 43.361 11.946 45.861 9.94598 47.861Z" stroke="black" stroke-width="0.5"/>
<path d="M92.9473 35.3611C75.1139 36.1944 43.4473 41.0611 32.9473 44.0611L36.9473 44.3611C41.9473 45.8611 47.4473 50.1944 49.4473 53.3611C62.4463 43.8611 87.9463 50.8611 86.4463 78.3611H96.4463C89.4463 67.3611 90.4463 45.3611 92.9473 35.3611Z" stroke="black" stroke-width="0.5"/>
<path d="M9.94531 47.8611H3.94531C36.4455 28.361 58.4456 34.3611 84.4453 29.8611L93.4456 35.3611C76.4456 36.3611 47.4453 39.8611 33.4453 44.0611C25.4453 43.8611 11.4453 45.8611 9.94531 47.8611Z" stroke="black" stroke-width="0.5"/>
<path d="M36.9468 44.3612C29.4468 43.3611 12.4468 45.3611 9.94677 47.8612C9.14677 50.2611 12.2801 53.1944 13.9468 54.3611C23.4468 55.8611 36.9468 49.8611 36.9468 44.3612Z" stroke="black" stroke-width="0.5"/>
<path d="M3.94601 47.8611C10.946 48.8611 4.94601 59.3611 1.94601 64.3611C1.44594 57.3611 1.9458 51.8611 3.94601 47.8611Z" stroke="black" stroke-width="0.5"/>
<path d="M21.9453 83.8611V79.3611H39.4453L39.9453 83.8611H21.9453Z" stroke="black" stroke-width="0.5"/>
<path d="M2.44727 65.3608C3.94727 67.8608 5.94727 71.0275 5.44727 72.8608M21.9473 79.3608C11.4473 79.8608 6.94727 75.8608 7.94727 72.3608C8.44727 71.8608 9.94727 70.3608 10.9473 70.3608" stroke="black" stroke-width="0.5"/>
<path d="M5.94727 65.361C8.19721 64.861 11.0721 64.236 13.8221 63.861M13.8221 63.861C16.5721 63.486 19.1972 63.361 20.9473 63.861C23.9473 65.361 29.4473 70.361 31.9473 74.361C26.9473 75.361 19.9473 74.861 15.4473 74.861C12.7547 74.861 11.4473 72.5276 11.4473 71.361C10.9473 68.361 12.1971 65.1943 13.8221 63.861Z" stroke="black" stroke-width="0.5"/>
<path d="M11.4473 70.861C19.4473 69.3611 22.9473 71.9896 25.9473 73.4896M12.9473 73.8611L30.4473 73.3611" stroke="black" stroke-width="0.5"/>
<path d="M21.9453 82.3608H31.4453C33.4453 82.3608 34.9453 80.3608 34.4453 79.3608M37.9453 79.3608V83.8608" stroke="black" stroke-width="0.5"/>
<path d="M21.9472 80.8613C17.4472 80.8613 12.9472 81.3613 1.44721 78.3613V76.3613L5.44721 74.3613V72.8613L1.44721 72.3613C0.946289 70.8611 -0.0535151 67.8611 1.94648 65.3611C1.44672 57.3611 1.94672 50.8611 3.94721 47.8608C36.4472 28.3612 58.4472 34.3613 84.4472 29.8613C162.447 -25.1388 244.447 11.8611 281.447 26.3613L294.947 28.3611L295.447 35.3611V38.3611C296.946 43.3611 298.281 47.8611 296.947 49.8611C299.447 50.8611 301.947 54.0278 301.947 55.8611L299.947 65.8611C300.399 76.709 297.991 76.9333 288.66 77.2457C287.668 77.2789 285.599 77.3131 284.447 77.3611V78.8611L259.447 79.2921M21.9472 80.8613V83.8613H39.9456L39.4472 79.3613M21.9472 80.8613V79.3613H39.4472M39.4472 79.3613C36.4472 37.8613 89.9472 40.8613 86.4472 79.8613V82.3611H212.947C206.947 38.8611 261.447 38.8611 259.447 79.2921M258.946 79.2921H259.447" stroke="black"/>
</svg>
