<svg width="304" height="95" viewBox="0 0 304 95" fill="none" xmlns="http://www.w3.org/2000/svg">
<circle cx="63.0742" cy="73.707" r="20.5" fill="#EDADBF" stroke="black"/>
<circle cx="236.074" cy="73.707" r="20.5" fill="#EDADBF" stroke="black"/>
<path d="M133.072 12.2069L131.572 8.70689C171.572 0.706999 193.072 1.20703 232.072 12.707L228.572 17.207C208.572 9.20694 190.572 8.20694 174.572 7.70701C172.072 7.20701 168.072 7.20697 165.572 7.70689C155.572 7.70701 143.572 9.20701 133.072 12.2069Z" fill="#E56E90" stroke="black" stroke-width="0.5"/>
<path d="M131.572 8.70708L131.072 7.20708C167.072 -3.79297 199.572 0.206905 235.072 9.20708L232.072 12.7071C192.072 0.207031 166.072 1.70703 131.572 8.70708Z" fill="#E56E90" stroke="black" stroke-width="0.5"/>
<path d="M131.572 8.70714C183.072 -2.79288 211.572 7.20715 232.072 12.7071" stroke="black" stroke-width="0.5"/>
<path d="M171.074 29.707L174.574 7.70703C208.074 8.70703 219.574 14.207 224.074 15.707L226.557 27.707C199.567 27.7077 182.072 29.2071 171.074 29.707Z" fill="#E56E90"/>
<path d="M227.074 30.207L224.074 15.707C219.574 14.207 208.074 8.70703 174.574 7.70703L171.074 29.707C182.074 29.207 199.574 27.707 226.574 27.707" stroke="black" stroke-width="0.5"/>
<path d="M165.574 7.70703C132.574 8.70703 112.574 17.707 93.5742 35.207L96.0742 33.207L160.074 30.207L165.574 7.70703Z" fill="#E56E90" stroke="black" stroke-width="0.5"/>
<path d="M240.072 22.207C236.406 19.5404 230.572 17.207 224.072 15.707L226.572 27.707H233.072C236.072 26.207 239.072 23.9758 240.072 22.207Z" fill="#E56E90" stroke="black" stroke-width="0.5"/>
<path d="M97.0742 78.207H164.074L198.574 76.707H213.074L213.574 82.207H199.574H98.5742H87.0742V78.207H97.0742Z" fill="#E56E90"/>
<path d="M97.0742 78.207H164.074L198.574 76.707M97.0742 78.207C97.0742 79.707 97.5742 80.707 98.5742 82.207M97.0742 78.207H87.0742V82.207H98.5742M198.574 76.707L199.574 82.207M198.574 76.707H213.074L213.574 82.207H199.574M199.574 82.207H98.5742" stroke="black" stroke-width="0.5"/>
<path d="M97.0733 78.207C92.5742 73.707 89.5743 51.707 93.5733 35.207L165.574 31.207C161.574 36.207 160.574 70.207 164.074 78.207H97.0733Z" fill="#E56E90" stroke="black" stroke-width="0.5"/>
<path d="M229.074 30.207L165.574 31.207C161.574 36.207 160.574 70.207 164.074 78.207L198.574 76.707C203.074 75.207 209.574 69.707 229.074 30.207Z" fill="#E56E90" stroke="black" stroke-width="0.5"/>
<path d="M171.074 29.7071C166.574 30.2071 163.074 30.2071 160.074 30.2071L165.574 7.70711C168.574 7.20703 171.574 7.20703 174.574 7.70711L171.074 29.7071Z" fill="#E56E90" stroke="black" stroke-width="0.5"/>
<path d="M99.5742 31.7073C104.074 37.2073 111.074 33.7073 115.074 32.2073C116.074 16.7072 103.074 24.7072 99.5742 31.7073Z" fill="#E56E90" stroke="black" stroke-width="0.5"/>
<path d="M235.072 9.20703L232.072 12.707C249.072 18.207 259.572 21.207 272.072 27.707H273.572L281.572 26.207C266.572 19.707 259.072 17.207 235.072 9.20703Z" fill="#EDADBF" stroke="black" stroke-width="0.5"/>
<path d="M272.072 27.707C261.572 22.207 242.572 15.707 232.072 12.707L230.072 15.207L245.072 22.707C243.572 25.207 239.572 27.207 233.572 29.907C245.572 29.207 262.572 28.207 272.072 27.707Z" fill="#EDADBF" stroke="black" stroke-width="0.5"/>
<path d="M277.574 34.007L283.573 31.707L273.073 27.707L229.073 30.207C221.573 45.207 206.573 75.707 198.573 76.707H213.073C211.573 65.707 221.073 42.207 246.074 51.207C256.574 45.707 266.574 40.207 277.574 34.007Z" fill="#EDADBF" stroke="black" stroke-width="0.5"/>
<path d="M278.572 33.7071C266.572 40.2071 256.572 45.7071 246.072 51.2071C250.572 54.207 261.072 60.207 260.072 79.207L285.072 78.707V77.207C293.572 76.207 302.072 79.707 300.572 65.707L302.572 55.707C302.572 54.207 300.072 50.207 297.572 49.707C299.072 47.207 296.072 38.207 296.072 38.207V36.707L292.072 33.707L287.072 32.207L283.572 31.707L278.572 33.7071Z" fill="#EDADBF" stroke="black" stroke-width="0.5"/>
<path d="M281.572 26.207L273.072 27.707L283.572 31.707C293.072 32.707 292.071 34.207 296.066 36.6272L295.572 28.207L281.572 26.207Z" fill="#EDADBF"/>
<path d="M296.072 36.707L296.066 36.6272M296.066 36.6272L295.572 28.207L281.572 26.207L273.072 27.707L283.572 31.707C293.072 32.707 292.071 34.207 296.066 36.6272Z" stroke="black" stroke-width="0.5"/>
<path d="M294.574 36.2072C294.074 33.7071 283.074 33.507 277.574 34.007" stroke="black" stroke-width="0.5"/>
<path d="M300.574 66.207L261.074 68.207C260.574 63.207 258.408 59.0404 256.574 57.207L302.574 54.707M301.074 52.207C290.074 50.707 279.074 45.907 267.074 39.907M229.074 30.207L273.074 27.707L281.574 26.207" stroke="black" stroke-width="0.5"/>
<path d="M291.074 40.207C291.074 38.207 290.074 34.207 286.574 32.207C288.795 32.207 292.172 33.2474 294.683 35.617C295.147 37.147 294.074 40.707 291.032 42.207C291.019 41.6167 291.074 40.9313 291.074 40.207Z" fill="#EDADBF"/>
<path d="M273.074 42.707C280.07 43.0568 286.087 43.1619 291.467 43.707M298.074 44.707C295.971 44.2564 293.778 43.9411 291.467 43.707M296.074 37.207C295.656 36.6219 295.187 36.0927 294.683 35.617M291.467 43.707C291.141 43.3623 291.047 42.8392 291.032 42.207M291.032 42.207C291.019 41.6168 291.074 40.9313 291.074 40.207C291.074 38.207 290.074 34.207 286.574 32.207C288.795 32.207 292.172 33.2474 294.683 35.617M291.032 42.207C294.074 40.707 295.147 37.147 294.683 35.617" stroke="black" stroke-width="0.5"/>
<path d="M291.074 40.207C286.574 40.207 284.574 36.207 283.574 33.707" stroke="black" stroke-width="0.5"/>
<path d="M133.072 12.307C119.572 16.307 107.572 22.207 93.5723 35.207C100.572 23.207 116.072 13.707 131.572 8.70703L133.072 12.307Z" stroke="black" stroke-width="0.5"/>
<path d="M131.572 8.70703C111.572 14.3811 93.5723 31.707 85.5723 29.707C98.5723 20.207 114.572 11.707 131.072 7.20703L131.572 8.70703Z" stroke="black" stroke-width="0.5"/>
<path d="M10.5729 47.7069H4.57293C2.07227 51.7069 2.07227 61.7069 2.57293 65.2069C1.07227 66.2069 1.07286 70.7069 2.07293 72.2069L6.07293 72.7069V74.2069L2.07293 76.2069V78.2069C6.07293 79.2069 14.5729 81.2069 22.5729 80.7069V79.2069H40.0729C39.4063 70.7069 41.0729 60.2069 50.0729 53.2069C47.5729 49.2069 40.5729 44.7069 37.5729 44.2069C27.5729 43.2069 12.5729 45.7069 10.5729 47.7069Z" stroke="black" stroke-width="0.5"/>
<path d="M93.5742 35.207C75.7409 36.0404 44.0742 40.907 33.5742 43.907L37.5742 44.207C42.5742 45.707 48.0742 50.0404 50.0742 53.207C63.0732 43.707 88.5732 50.707 87.0732 78.207H97.0732C90.0732 67.207 91.0732 45.207 93.5742 35.207Z" stroke="black" stroke-width="0.5"/>
<path d="M10.5723 47.7071H4.57227C37.0724 28.207 59.0725 34.207 85.0723 29.707L94.0725 35.207C77.0725 36.207 48.0723 39.707 34.0723 43.907C26.0723 43.707 12.0723 45.707 10.5723 47.7071Z" stroke="black" stroke-width="0.5"/>
<path d="M37.5737 44.2071C30.0737 43.207 13.0737 45.207 10.5737 47.7071C9.77372 50.107 12.9071 53.0404 14.5737 54.207C24.0737 55.707 37.5737 49.707 37.5737 44.2071Z" stroke="black" stroke-width="0.5"/>
<path d="M4.57296 47.707C11.573 48.707 5.57296 59.207 2.57296 64.207C2.07289 57.207 2.57275 51.707 4.57296 47.707Z" stroke="black" stroke-width="0.5"/>
<path d="M22.5723 83.707V79.207H40.0723L40.5723 83.707H22.5723Z" stroke="black" stroke-width="0.5"/>
<path d="M3.07422 65.207C4.57422 67.707 6.57422 70.8737 6.07422 72.707M22.5742 79.207C12.0742 79.707 7.57422 75.707 8.57422 72.207C9.07422 71.707 10.5742 70.207 11.5742 70.207" stroke="black" stroke-width="0.5"/>
<path d="M6.57422 65.2072C8.82416 64.7072 11.6991 64.0822 14.449 63.7072M14.449 63.7072C17.1991 63.3322 19.8242 63.2072 21.5742 63.7072C24.5742 65.2072 30.0742 70.2072 32.5742 74.2072C27.5742 75.2072 20.5742 74.7072 16.0742 74.7072C13.3816 74.7072 12.0742 72.3738 12.0742 71.2072C11.5742 68.2072 12.8241 65.0405 14.449 63.7072Z" stroke="black" stroke-width="0.5"/>
<path d="M12.0742 70.7072C20.0742 69.2073 23.5742 71.8358 26.5742 73.3358M13.5742 73.7073L31.0742 73.2073" stroke="black" stroke-width="0.5"/>
<path d="M22.5723 82.207H32.0723C34.0723 82.207 35.5723 80.207 35.0723 79.207M38.5723 79.207V83.707" stroke="black" stroke-width="0.5"/>
<path d="M22.5742 80.7073C18.0742 80.7073 13.5742 81.2073 2.07416 78.2073V76.2073L6.07417 74.2073V72.7073L2.07416 72.2073C1.57324 70.707 0.573438 67.707 2.57343 65.207C2.07368 57.207 2.57368 50.707 4.57417 47.7068C37.0742 28.2072 59.0742 34.2072 85.0742 29.7072C163.074 -25.2929 245.074 11.707 282.074 26.2072L295.574 28.207L296.074 35.207V38.207C297.573 43.207 298.908 47.707 297.574 49.707C300.074 50.707 302.574 53.8737 302.574 55.707L300.574 65.707C301.026 76.5549 298.618 76.7792 289.286 77.0917C288.295 77.1249 286.226 77.159 285.074 77.207V78.707L260.074 79.1381M22.5742 80.7073V83.7073H40.5725L40.0742 79.2073M22.5742 80.7073V79.2073H40.0742M40.0742 79.2073C37.0742 37.7073 90.5742 40.7073 87.0742 79.7073V82.207H213.574C207.574 38.707 262.074 38.707 260.074 79.1381M259.573 79.1381H260.074" stroke="black"/>
</svg>
