<svg width="303" height="95" viewBox="0 0 303 95" fill="none" xmlns="http://www.w3.org/2000/svg">
<circle cx="62.4473" cy="73.707" r="20.5" fill="#E0426F" stroke="black"/>
<circle cx="235.447" cy="73.707" r="20.5" fill="#E0426F" stroke="black"/>
<path d="M132.445 12.2069L130.945 8.70689C170.945 0.706999 192.445 1.20703 231.445 12.707L227.945 17.207C207.945 9.20694 189.945 8.20694 173.945 7.70701C171.445 7.20701 167.445 7.20697 164.945 7.70689C154.945 7.70701 142.945 9.20701 132.445 12.2069Z" fill="#E56E90" stroke="black" stroke-width="0.5"/>
<path d="M130.945 8.70708L130.445 7.20708C166.445 -3.79297 198.945 0.206905 234.445 9.20708L231.445 12.7071C191.445 0.207031 165.445 1.70703 130.945 8.70708Z" fill="#E56E90" stroke="black" stroke-width="0.5"/>
<path d="M130.945 8.70714C182.445 -2.79288 210.945 7.20715 231.445 12.7071" stroke="black" stroke-width="0.5"/>
<path d="M170.447 29.707L173.947 7.70703C207.447 8.70703 218.947 14.207 223.447 15.707L225.93 27.707C198.94 27.7077 181.445 29.2071 170.447 29.707Z" fill="#E56E90"/>
<path d="M226.447 30.207L223.447 15.707C218.947 14.207 207.447 8.70703 173.947 7.70703L170.447 29.707C181.447 29.207 198.947 27.707 225.947 27.707" stroke="black" stroke-width="0.5"/>
<path d="M164.947 7.70703C131.947 8.70703 111.947 17.707 92.9473 35.207L95.4473 33.207L159.447 30.207L164.947 7.70703Z" fill="#E56E90" stroke="black" stroke-width="0.5"/>
<path d="M239.445 22.207C235.779 19.5404 229.945 17.207 223.445 15.707L225.945 27.707H232.445C235.445 26.207 238.445 23.9758 239.445 22.207Z" fill="#E56E90" stroke="black" stroke-width="0.5"/>
<path d="M96.4473 78.207H163.447L197.947 76.707H212.447L212.947 82.207H198.947H97.9473H86.4473V78.207H96.4473Z" fill="#E56E90"/>
<path d="M96.4473 78.207H163.447L197.947 76.707M96.4473 78.207C96.4473 79.707 96.9473 80.707 97.9473 82.207M96.4473 78.207H86.4473V82.207H97.9473M197.947 76.707L198.947 82.207M197.947 76.707H212.447L212.947 82.207H198.947M198.947 82.207H97.9473" stroke="black" stroke-width="0.5"/>
<path d="M96.4464 78.207C91.9473 73.707 88.9473 51.707 92.9464 35.207L164.947 31.207C160.947 36.207 159.947 70.207 163.447 78.207H96.4464Z" fill="#E56E90" stroke="black" stroke-width="0.5"/>
<path d="M228.447 30.207L164.947 31.207C160.947 36.207 159.948 70.207 163.447 78.207L197.947 76.707C202.447 75.207 208.947 69.707 228.447 30.207Z" fill="#E56E90" stroke="black" stroke-width="0.5"/>
<path d="M170.447 29.7071C165.947 30.2071 162.447 30.2071 159.447 30.2071L164.947 7.70711C167.947 7.20703 170.947 7.20703 173.947 7.70711L170.447 29.7071Z" fill="#E56E90" stroke="black" stroke-width="0.5"/>
<path d="M98.9473 31.7073C103.447 37.2073 110.447 33.7073 114.447 32.2073C115.447 16.7072 102.447 24.7072 98.9473 31.7073Z" fill="#E56E90" stroke="black" stroke-width="0.5"/>
<path d="M234.445 9.20703L231.445 12.707C248.445 18.207 258.945 21.207 271.445 27.707H272.945L280.945 26.207C265.945 19.707 258.445 17.207 234.445 9.20703Z" fill="#E0426F" stroke="black" stroke-width="0.5"/>
<path d="M271.445 27.707C260.945 22.207 241.945 15.707 231.445 12.707L229.445 15.207L244.445 22.707C242.945 25.207 238.945 27.207 232.945 29.907C244.945 29.207 261.945 28.207 271.445 27.707Z" fill="#E0426F" stroke="black" stroke-width="0.5"/>
<path d="M276.947 34.007L282.946 31.707L272.446 27.707L228.446 30.207C220.946 45.207 205.946 75.707 197.946 76.707H212.446C210.946 65.707 220.446 42.207 245.447 51.207C255.947 45.707 265.947 40.207 276.947 34.007Z" fill="#E0426F" stroke="black" stroke-width="0.5"/>
<path d="M277.945 33.7071C265.945 40.2071 255.945 45.7071 245.445 51.2071C249.945 54.207 260.445 60.207 259.445 79.207L284.445 78.707V77.207C292.945 76.207 301.445 79.707 299.945 65.707L301.945 55.707C301.945 54.207 299.445 50.207 296.945 49.707C298.445 47.207 295.445 38.207 295.445 38.207V36.707L291.445 33.707L286.445 32.207L282.945 31.707L277.945 33.7071Z" fill="#E0426F" stroke="black" stroke-width="0.5"/>
<path d="M280.945 26.207L272.445 27.707L282.945 31.707C292.445 32.707 291.444 34.207 295.439 36.6272L294.945 28.207L280.945 26.207Z" fill="#E0426F"/>
<path d="M295.445 36.707L295.439 36.6272M295.439 36.6272L294.945 28.207L280.945 26.207L272.445 27.707L282.945 31.707C292.445 32.707 291.444 34.207 295.439 36.6272Z" stroke="black" stroke-width="0.5"/>
<path d="M293.947 36.2072C293.447 33.7071 282.447 33.507 276.947 34.007" stroke="black" stroke-width="0.5"/>
<path d="M299.947 66.207L260.447 68.207C259.947 63.207 257.781 59.0404 255.947 57.207L301.947 54.707M300.447 52.207C289.447 50.707 278.447 45.907 266.447 39.907M228.447 30.207L272.447 27.707L280.947 26.207" stroke="black" stroke-width="0.5"/>
<path d="M290.447 40.207C290.447 38.207 289.447 34.207 285.947 32.207C288.168 32.207 291.545 33.2474 294.056 35.617C294.52 37.147 293.447 40.707 290.405 42.207C290.392 41.6167 290.447 40.9313 290.447 40.207Z" fill="#E0426F"/>
<path d="M272.447 42.707C279.443 43.0568 285.46 43.1619 290.84 43.707M297.447 44.707C295.344 44.2564 293.151 43.9411 290.84 43.707M295.447 37.207C295.029 36.6219 294.56 36.0927 294.056 35.617M290.84 43.707C290.514 43.3623 290.42 42.8392 290.405 42.207M290.405 42.207C290.392 41.6168 290.447 40.9313 290.447 40.207C290.447 38.207 289.447 34.207 285.947 32.207C288.168 32.207 291.545 33.2474 294.056 35.617M290.405 42.207C293.447 40.707 294.52 37.147 294.056 35.617" stroke="black" stroke-width="0.5"/>
<path d="M290.447 40.207C285.947 40.207 283.947 36.207 282.947 33.707" stroke="black" stroke-width="0.5"/>
<path d="M132.445 12.307C118.945 16.307 106.945 22.207 92.9453 35.207C99.9453 23.207 115.445 13.707 130.945 8.70703L132.445 12.307Z" stroke="black" stroke-width="0.5"/>
<path d="M130.945 8.70703C110.945 14.3811 92.9453 31.707 84.9453 29.707C97.9453 20.207 113.945 11.707 130.445 7.20703L130.945 8.70703Z" stroke="black" stroke-width="0.5"/>
<path d="M9.94598 47.7069H3.94598C1.44531 51.7069 1.44531 61.7069 1.94598 65.2069C0.445312 66.2069 0.44591 70.7069 1.44598 72.2069L5.44598 72.7069V74.2069L1.44598 76.2069V78.2069C5.44598 79.2069 13.946 81.2069 21.946 80.7069V79.2069H39.446C38.7793 70.7069 40.446 60.2069 49.446 53.2069C46.946 49.2069 39.946 44.7069 36.946 44.2069C26.946 43.2069 11.946 45.7069 9.94598 47.7069Z" stroke="black" stroke-width="0.5"/>
<path d="M92.9473 35.207C75.1139 36.0404 43.4473 40.907 32.9473 43.907L36.9473 44.207C41.9473 45.707 47.4473 50.0404 49.4473 53.207C62.4463 43.707 87.9463 50.707 86.4463 78.207H96.4463C89.4463 67.207 90.4463 45.207 92.9473 35.207Z" stroke="black" stroke-width="0.5"/>
<path d="M9.94531 47.7071H3.94531C36.4455 28.207 58.4456 34.207 84.4453 29.707L93.4456 35.207C76.4456 36.207 47.4453 39.707 33.4453 43.907C25.4453 43.707 11.4453 45.707 9.94531 47.7071Z" stroke="black" stroke-width="0.5"/>
<path d="M36.9468 44.2071C29.4468 43.207 12.4468 45.207 9.94677 47.7071C9.14677 50.107 12.2801 53.0404 13.9468 54.207C23.4468 55.707 36.9468 49.707 36.9468 44.2071Z" stroke="black" stroke-width="0.5"/>
<path d="M3.94601 47.707C10.946 48.707 4.94601 59.207 1.94601 64.207C1.44594 57.207 1.9458 51.707 3.94601 47.707Z" stroke="black" stroke-width="0.5"/>
<path d="M21.9453 83.707V79.207H39.4453L39.9453 83.707H21.9453Z" stroke="black" stroke-width="0.5"/>
<path d="M2.44727 65.207C3.94727 67.707 5.94727 70.8737 5.44727 72.707M21.9473 79.207C11.4473 79.707 6.94727 75.707 7.94727 72.207C8.44727 71.707 9.94727 70.207 10.9473 70.207" stroke="black" stroke-width="0.5"/>
<path d="M5.94727 65.2072C8.19721 64.7072 11.0721 64.0822 13.8221 63.7072M13.8221 63.7072C16.5721 63.3322 19.1972 63.2072 20.9473 63.7072C23.9473 65.2072 29.4473 70.2072 31.9473 74.2072C26.9473 75.2072 19.9473 74.7072 15.4473 74.7072C12.7547 74.7072 11.4473 72.3738 11.4473 71.2072C10.9473 68.2072 12.1971 65.0405 13.8221 63.7072Z" stroke="black" stroke-width="0.5"/>
<path d="M11.4473 70.7072C19.4473 69.2073 22.9473 71.8358 25.9473 73.3358M12.9473 73.7073L30.4473 73.2073" stroke="black" stroke-width="0.5"/>
<path d="M21.9453 82.207H31.4453C33.4453 82.207 34.9453 80.207 34.4453 79.207M37.9453 79.207V83.707" stroke="black" stroke-width="0.5"/>
<path d="M21.9472 80.7073C17.4472 80.7073 12.9472 81.2073 1.44721 78.2073V76.2073L5.44721 74.2073V72.7073L1.44721 72.2073C0.946289 70.707 -0.0535151 67.707 1.94648 65.207C1.44672 57.207 1.94672 50.707 3.94721 47.7068C36.4472 28.2072 58.4472 34.2072 84.4472 29.7072C162.447 -25.2929 244.447 11.707 281.447 26.2072L294.947 28.207L295.447 35.207V38.207C296.946 43.207 298.281 47.707 296.947 49.707C299.447 50.707 301.947 53.8737 301.947 55.707L299.947 65.707C300.399 76.5549 297.991 76.7792 288.66 77.0917C287.668 77.1249 285.599 77.159 284.447 77.207V78.707L259.447 79.1381M21.9472 80.7073V83.7073H39.9456L39.4472 79.2073M21.9472 80.7073V79.2073H39.4472M39.4472 79.2073C36.4472 37.7073 89.9472 40.7073 86.4472 79.7073V82.207H212.947C206.947 38.707 261.447 38.707 259.447 79.1381M258.946 79.1381H259.447" stroke="black"/>
</svg>
