<svg width="303" height="95" viewBox="0 0 303 95" fill="none" xmlns="http://www.w3.org/2000/svg">
<circle cx="62.8545" cy="73.8762" r="20.5" fill="#EFC7D3" stroke="black"/>
<circle cx="235.854" cy="73.8762" r="20.5" fill="#EFC7D3" stroke="black"/>
<path d="M132.853 12.3761L131.353 8.87608C171.353 0.876188 192.853 1.37622 231.853 12.8762L228.353 17.3762C208.353 9.37613 190.353 8.37613 174.353 7.8762C171.853 7.3762 167.853 7.37616 165.353 7.87608C155.353 7.8762 143.353 9.3762 132.853 12.3761Z" fill="#E56E90" stroke="black" stroke-width="0.5"/>
<path d="M131.353 8.87627L130.853 7.37626C166.853 -3.62378 199.353 0.376095 234.853 9.37627L231.853 12.8763C191.853 0.376221 165.853 1.87622 131.353 8.87627Z" fill="#E56E90" stroke="black" stroke-width="0.5"/>
<path d="M131.353 8.87609C182.853 -2.62394 211.353 7.3761 231.853 12.8761" stroke="black" stroke-width="0.5"/>
<path d="M170.854 29.8762L174.354 7.87622C207.854 8.87622 219.354 14.3762 223.854 15.8762L226.337 27.8762C199.347 27.8769 181.852 29.3763 170.854 29.8762Z" fill="#E56E90"/>
<path d="M226.854 30.3762L223.854 15.8762C219.354 14.3762 207.854 8.87622 174.354 7.87622L170.854 29.8762C181.854 29.3762 199.354 27.8762 226.354 27.8762" stroke="black" stroke-width="0.5"/>
<path d="M165.354 7.87622C132.354 8.87622 112.354 17.8762 93.3545 35.3762L95.8545 33.3762L159.854 30.3762L165.354 7.87622Z" fill="#E56E90" stroke="black" stroke-width="0.5"/>
<path d="M239.853 22.3762C236.186 19.7096 230.353 17.3762 223.853 15.8762L226.353 27.8762H232.853C235.853 26.3762 238.853 24.145 239.853 22.3762Z" fill="#E56E90" stroke="black" stroke-width="0.5"/>
<path d="M96.8545 78.3762H163.854L198.354 76.8762H212.854L213.354 82.3762H199.354H98.3545H86.8545V78.3762H96.8545Z" fill="#E56E90"/>
<path d="M96.8545 78.3762H163.854L198.354 76.8762M96.8545 78.3762C96.8545 79.8762 97.3545 80.8762 98.3545 82.3762M96.8545 78.3762H86.8545V82.3762H98.3545M198.354 76.8762L199.354 82.3762M198.354 76.8762H212.854L213.354 82.3762H199.354M199.354 82.3762H98.3545" stroke="black" stroke-width="0.5"/>
<path d="M96.8536 78.3762C92.3545 73.8762 89.3545 51.8762 93.3536 35.3762L165.354 31.3762C161.354 36.3762 160.354 70.3762 163.854 78.3762H96.8536Z" fill="#E56E90" stroke="black" stroke-width="0.5"/>
<path d="M228.854 30.3762L165.354 31.3762C161.355 36.3762 160.355 70.3762 163.854 78.3762L198.354 76.8762C202.854 75.3762 209.354 69.8762 228.854 30.3762Z" fill="#E56E90" stroke="black" stroke-width="0.5"/>
<path d="M170.854 29.8763C166.354 30.3763 162.854 30.3763 159.854 30.3763L165.354 7.87629C168.354 7.37622 171.354 7.37622 174.354 7.87629L170.854 29.8763Z" fill="#E56E90" stroke="black" stroke-width="0.5"/>
<path d="M99.3545 31.8762C103.854 37.3762 110.854 33.8762 114.854 32.3762C115.854 16.8761 102.854 24.8761 99.3545 31.8762Z" fill="#E56E90" stroke="black" stroke-width="0.5"/>
<path d="M234.853 9.37622L231.853 12.8762C248.853 18.3762 259.353 21.3762 271.853 27.8762H273.353L281.353 26.3762C266.353 19.8762 258.853 17.3762 234.853 9.37622Z" fill="#E0426F" stroke="black" stroke-width="0.5"/>
<path d="M271.853 27.8762C261.353 22.3762 242.353 15.8762 231.853 12.8762L229.853 15.3762L244.853 22.8762C243.353 25.3762 239.353 27.3762 233.353 30.0762C245.353 29.3762 262.353 28.3762 271.853 27.8762Z" fill="#E0426F" stroke="black" stroke-width="0.5"/>
<path d="M277.354 34.1762L283.353 31.8762L272.854 27.8762L228.854 30.3762C221.354 45.3762 206.354 75.8762 198.354 76.8762H212.854C211.354 65.8762 220.854 42.3762 245.854 51.3762C256.354 45.8762 266.354 40.3762 277.354 34.1762Z" fill="#E0426F" stroke="black" stroke-width="0.5"/>
<path d="M278.353 33.8762C266.353 40.3762 256.353 45.8762 245.853 51.3762C250.353 54.3762 260.853 60.3762 259.853 79.3762L284.853 78.8762V77.3762C293.353 76.3762 301.853 79.8762 300.353 65.8762L302.353 55.8762C302.353 54.3762 299.853 50.3762 297.353 49.8762C298.853 47.3762 295.853 38.3762 295.853 38.3762V36.8762L291.853 33.8762L286.853 32.3762L283.353 31.8762L278.353 33.8762Z" fill="#E0426F" stroke="black" stroke-width="0.5"/>
<path d="M281.353 26.3762L272.853 27.8762L283.353 31.8762C292.853 32.8762 291.851 34.3762 295.847 36.7964L295.353 28.3762L281.353 26.3762Z" fill="#E0426F"/>
<path d="M295.853 36.8762L295.847 36.7964M295.847 36.7964L295.353 28.3762L281.353 26.3762L272.853 27.8762L283.353 31.8762C292.853 32.8762 291.851 34.3762 295.847 36.7964Z" stroke="black" stroke-width="0.5"/>
<path d="M294.354 36.3764C293.854 33.8763 282.854 33.6762 277.354 34.1762" stroke="black" stroke-width="0.5"/>
<path d="M300.354 66.3762L260.854 68.3762C260.354 63.3762 258.188 59.2096 256.354 57.3762L302.354 54.8762M300.854 52.3762C289.854 50.8762 278.854 46.0762 266.854 40.0762M228.854 30.3762L272.854 27.8762L281.354 26.3762" stroke="black" stroke-width="0.5"/>
<path d="M290.854 40.3762C290.854 38.3762 289.854 34.3762 286.354 32.3762C288.575 32.3762 291.952 33.4166 294.463 35.7862C294.927 37.3162 293.854 40.8762 290.813 42.3762C290.799 41.7859 290.854 41.1005 290.854 40.3762Z" fill="#E0426F"/>
<path d="M272.854 42.8762C279.85 43.226 285.867 43.3311 291.248 43.8762M297.854 44.8762C295.751 44.4256 293.558 44.1103 291.248 43.8762M295.854 37.3762C295.437 36.7911 294.967 36.2619 294.463 35.7862M291.248 43.8762C290.921 43.5315 290.827 43.0084 290.813 42.3762M290.813 42.3762C290.799 41.7859 290.854 41.1005 290.854 40.3762C290.854 38.3762 289.854 34.3762 286.354 32.3762C288.575 32.3762 291.952 33.4166 294.463 35.7862M290.813 42.3762C293.854 40.8762 294.927 37.3162 294.463 35.7862" stroke="black" stroke-width="0.5"/>
<path d="M290.854 40.3762C286.354 40.3762 284.354 36.3762 283.354 33.8762" stroke="black" stroke-width="0.5"/>
<path d="M132.853 12.4762C119.353 16.4762 107.353 22.3762 93.3525 35.3762C100.353 23.3762 115.853 13.8762 131.353 8.87622L132.853 12.4762Z" fill="#EFC7D3" stroke="black" stroke-width="0.5"/>
<path d="M131.353 8.87622C111.353 14.5503 93.3525 31.8762 85.3525 29.8762C98.3525 20.3762 114.353 11.8762 130.853 7.37622L131.353 8.87622Z" fill="#EFC7D3" stroke="black" stroke-width="0.5"/>
<path d="M10.3532 47.8761H4.35321C1.85254 51.8761 1.85254 61.8761 2.35321 65.3761C0.852539 66.3761 0.853137 70.8761 1.85321 72.3761L5.85321 72.8761V74.3761L1.85321 76.3761V78.3761C5.85321 79.3761 14.3532 81.3761 22.3532 80.8761V79.3761H39.8532C39.1865 70.8761 40.8532 60.3761 49.8532 53.3761C47.3532 49.3761 40.3532 44.8761 37.3532 44.3761C27.3532 43.3761 12.3532 45.8761 10.3532 47.8761Z" fill="#EFC7D3" stroke="black" stroke-width="0.5"/>
<path d="M93.3545 35.3762C75.5212 36.2096 43.8545 41.0762 33.3545 44.0762L37.3545 44.3762C42.3545 45.8762 47.8545 50.2096 49.8545 53.3762C62.8535 43.8762 88.3535 50.8762 86.8535 78.3762H96.8535C89.8535 67.3762 90.8535 45.3762 93.3545 35.3762Z" fill="#EFC7D3" stroke="black" stroke-width="0.5"/>
<path d="M10.3525 47.8763H4.35254C36.8527 28.3762 58.8528 34.3762 84.8525 29.8762L93.8528 35.3762C76.8528 36.3762 47.8525 39.8762 33.8525 44.0762C25.8525 43.8762 11.8525 45.8762 10.3525 47.8763Z" fill="#EFC7D3" stroke="black" stroke-width="0.5"/>
<path d="M37.354 44.3763C29.854 43.3762 12.854 45.3762 10.354 47.8763C9.55399 50.2762 12.6873 53.2096 14.354 54.3762C23.854 55.8762 37.354 49.8762 37.354 44.3763Z" fill="#EFC7D3" stroke="black" stroke-width="0.5"/>
<path d="M4.35323 47.8762C11.3532 48.8762 5.35323 59.3762 2.35323 64.3762C1.85316 57.3762 2.35303 51.8762 4.35323 47.8762Z" fill="#EFC7D3" stroke="black" stroke-width="0.5"/>
<path d="M22.3525 83.8762V79.3762H39.8525L40.3525 83.8762H22.3525Z" fill="#EFC7D3" stroke="black" stroke-width="0.5"/>
<path d="M2.85449 65.376C4.35449 67.876 6.35449 71.0426 5.85449 72.876M22.3545 79.376C11.8545 79.876 7.35449 75.876 8.35449 72.376C8.85449 71.876 10.3545 70.376 11.3545 70.376" stroke="black" stroke-width="0.5"/>
<path d="M32.3545 74.3761C29.8545 70.3761 24.3545 65.3762 21.3545 63.8762C19.6044 63.3762 16.9794 63.5012 14.2293 63.8762C12.6044 65.2095 11.3545 68.3761 11.8545 71.3761C11.8545 72.5428 13.1619 74.8761 15.8545 74.8761C20.3545 74.8761 27.3545 75.3761 32.3545 74.3761Z" fill="#EFC7D3"/>
<path d="M6.35449 65.3762C8.60443 64.8762 11.4793 64.2512 14.2293 63.8762M14.2293 63.8762C16.9794 63.5012 19.6044 63.3762 21.3545 63.8762C24.3545 65.3762 29.8545 70.3761 32.3545 74.3761C27.3545 75.3761 20.3545 74.8761 15.8545 74.8761C13.1619 74.8761 11.8545 72.5428 11.8545 71.3761C11.3545 68.3761 12.6043 65.2095 14.2293 63.8762Z" stroke="black" stroke-width="0.5"/>
<path d="M11.8545 70.8762C19.8545 69.3762 23.3545 72.0047 26.3545 73.5047M13.3545 73.8762L30.8545 73.3762" stroke="black" stroke-width="0.5"/>
<path d="M22.3525 82.376H31.8525C33.8525 82.376 35.3525 80.376 34.8525 79.376M38.3525 79.376V83.876" stroke="black" stroke-width="0.5"/>
<path d="M22.3544 80.8765C17.8544 80.8765 13.3544 81.3765 1.85444 78.3765V76.3765L5.85444 74.3765V72.8765L1.85444 72.3765C1.35352 70.8762 0.353711 67.8762 2.35371 65.3762C1.85395 57.3762 2.35395 50.8762 4.35444 47.876C36.8544 28.3764 58.8544 34.3764 84.8544 29.8764C162.854 -25.1237 244.854 11.8762 281.854 26.3764L295.354 28.3762L295.854 35.3762V38.3762C297.353 43.3762 298.688 47.8762 297.354 49.8762C299.854 50.8762 302.354 54.0429 302.354 55.8762L300.354 65.8762C300.806 76.7241 298.398 76.9484 289.067 77.2609C288.076 77.294 286.007 77.3282 284.854 77.3762V78.8762L259.854 79.3073M22.3544 80.8765V83.8765H40.3528L39.8544 79.3765M22.3544 80.8765V79.3765H39.8544M39.8544 79.3765C36.8544 37.8765 90.3544 40.8765 86.8544 79.8765V82.3762H213.354C207.354 38.8762 261.854 38.8762 259.854 79.3073M259.353 79.3073H259.854" stroke="black"/>
</svg>
