<svg width="304" height="95" viewBox="0 0 304 95" fill="none" xmlns="http://www.w3.org/2000/svg">
<circle cx="63.0635" cy="73.8914" r="20.5" fill="#EDADBF" stroke="black"/>
<circle cx="236.063" cy="73.8914" r="20.5" fill="#EDADBF" stroke="black"/>
<path d="M133.062 12.3912L131.562 8.89121C171.562 0.891325 193.062 1.39136 232.062 12.8913L228.562 17.3913C208.562 9.39127 190.562 8.39127 174.562 7.89133C172.062 7.39133 168.062 7.3913 165.562 7.89121C155.562 7.89133 143.562 9.39134 133.062 12.3912Z" fill="#E0426F" stroke="black" stroke-width="0.5"/>
<path d="M131.562 8.8914L131.062 7.3914C167.062 -3.60864 199.562 0.391232 235.062 9.3914L232.062 12.8914C192.062 0.391357 166.062 1.89136 131.562 8.8914Z" fill="#E0426F" stroke="black" stroke-width="0.5"/>
<path d="M131.562 8.89122C183.062 -2.6088 211.562 7.39124 232.062 12.8912" stroke="black" stroke-width="0.5"/>
<path d="M171.063 29.8914L174.563 7.89136C208.063 8.89136 219.563 14.3914 224.063 15.8914L226.546 27.8914C199.556 27.892 182.061 29.3915 171.063 29.8914Z" fill="#E0426F"/>
<path d="M227.063 30.3914L224.063 15.8914C219.563 14.3914 208.063 8.89136 174.563 7.89136L171.063 29.8914C182.063 29.3914 199.563 27.8914 226.563 27.8914" stroke="black" stroke-width="0.5"/>
<path d="M165.563 7.89136C132.563 8.89136 112.563 17.8914 93.5635 35.3914L96.0635 33.3914L160.063 30.3914L165.563 7.89136Z" fill="#E0426F" stroke="black" stroke-width="0.5"/>
<path d="M240.062 22.3914C236.395 19.7247 230.562 17.3914 224.062 15.8914L226.562 27.8914H233.062C236.062 26.3914 239.062 24.1601 240.062 22.3914Z" fill="#E0426F" stroke="black" stroke-width="0.5"/>
<path d="M97.0635 78.3914H164.063L198.563 76.8914H213.063L213.563 82.3914H199.563H98.5635H87.0635V78.3914H97.0635Z" fill="#E0426F"/>
<path d="M97.0635 78.3914H164.063L198.563 76.8914M97.0635 78.3914C97.0635 79.8914 97.5635 80.8914 98.5635 82.3914M97.0635 78.3914H87.0635V82.3914H98.5635M198.563 76.8914L199.563 82.3914M198.563 76.8914H213.063L213.563 82.3914H199.563M199.563 82.3914H98.5635" stroke="black" stroke-width="0.5"/>
<path d="M97.0626 78.3914C92.5635 73.8914 89.5635 51.8914 93.5626 35.3914L165.563 31.3914C161.563 36.3914 160.563 70.3914 164.063 78.3914H97.0626Z" fill="#E0426F" stroke="black" stroke-width="0.5"/>
<path d="M229.063 30.3914L165.563 31.3914C161.564 36.3914 160.564 70.3914 164.063 78.3914L198.563 76.8914C203.063 75.3914 209.563 69.8914 229.063 30.3914Z" fill="#E0426F" stroke="black" stroke-width="0.5"/>
<path d="M171.063 29.8914C166.563 30.3914 163.063 30.3914 160.063 30.3914L165.563 7.89143C168.563 7.39136 171.563 7.39136 174.563 7.89143L171.063 29.8914Z" fill="#E0426F" stroke="black" stroke-width="0.5"/>
<path d="M99.5635 31.8914C104.063 37.3914 111.063 33.8914 115.063 32.3914C116.063 16.8913 103.063 24.8912 99.5635 31.8914Z" fill="#E0426F" stroke="black" stroke-width="0.5"/>
<path d="M235.062 9.39136L232.062 12.8914C249.062 18.3914 259.562 21.3914 272.062 27.8914H273.562L281.562 26.3914C266.562 19.8914 259.062 17.3914 235.062 9.39136Z" fill="#E56E90" stroke="black" stroke-width="0.5"/>
<path d="M272.062 27.8914C261.562 22.3914 242.562 15.8914 232.062 12.8914L230.062 15.3914L245.062 22.8914C243.562 25.3914 239.562 27.3914 233.562 30.0914C245.562 29.3914 262.562 28.3914 272.062 27.8914Z" fill="#E56E90" stroke="black" stroke-width="0.5"/>
<path d="M277.563 34.1914L283.562 31.8914L273.062 27.8914L229.062 30.3914C221.562 45.3914 206.562 75.8914 198.562 76.8914H213.062C211.562 65.8914 221.062 42.3914 246.063 51.3914C256.563 45.8914 266.563 40.3914 277.563 34.1914Z" fill="#E56E90" stroke="black" stroke-width="0.5"/>
<path d="M278.562 33.8914C266.562 40.3914 256.562 45.8914 246.062 51.3914C250.562 54.3914 261.062 60.3914 260.062 79.3914L285.062 78.8914V77.3914C293.562 76.3914 302.062 79.8914 300.562 65.8914L302.562 55.8914C302.562 54.3914 300.062 50.3914 297.562 49.8914C299.062 47.3914 296.062 38.3914 296.062 38.3914V36.8914L292.062 33.8914L287.062 32.3914L283.562 31.8914L278.562 33.8914Z" fill="#E56E90" stroke="black" stroke-width="0.5"/>
<path d="M281.562 26.3914L273.062 27.8914L283.562 31.8914C293.062 32.8914 292.06 34.3914 296.056 36.8115L295.562 28.3914L281.562 26.3914Z" fill="#E56E90"/>
<path d="M296.062 36.8914L296.056 36.8115M296.056 36.8115L295.562 28.3914L281.562 26.3914L273.062 27.8914L283.562 31.8914C293.062 32.8914 292.06 34.3914 296.056 36.8115Z" stroke="black" stroke-width="0.5"/>
<path d="M294.563 36.3916C294.063 33.8914 283.063 33.6914 277.563 34.1914" stroke="black" stroke-width="0.5"/>
<path d="M300.563 66.3914L261.063 68.3914C260.563 63.3914 258.397 59.2247 256.563 57.3914L302.563 54.8914M301.063 52.3914C290.063 50.8914 279.063 46.0914 267.063 40.0914M229.063 30.3914L273.063 27.8914L281.563 26.3914" stroke="black" stroke-width="0.5"/>
<path d="M291.063 40.3914C291.063 38.3914 290.063 34.3914 286.563 32.3914C288.784 32.3914 292.161 33.4317 294.672 35.8013C295.136 37.3313 294.063 40.8914 291.022 42.3914C291.008 41.8011 291.063 41.1156 291.063 40.3914Z" fill="#E56E90"/>
<path d="M273.063 42.8914C280.059 43.2411 286.076 43.3462 291.457 43.8914M298.063 44.8914C295.96 44.4407 293.767 44.1255 291.457 43.8914M296.063 37.3914C295.646 36.8062 295.176 36.277 294.672 35.8013M291.457 43.8914C291.13 43.5466 291.036 43.0235 291.022 42.3914M291.022 42.3914C291.008 41.8011 291.063 41.1156 291.063 40.3914C291.063 38.3914 290.063 34.3914 286.563 32.3914C288.784 32.3914 292.161 33.4317 294.672 35.8013M291.022 42.3914C294.063 40.8914 295.136 37.3313 294.672 35.8013" stroke="black" stroke-width="0.5"/>
<path d="M291.063 40.3914C286.563 40.3914 284.563 36.3914 283.563 33.8914" stroke="black" stroke-width="0.5"/>
<path d="M133.062 12.4913C119.562 16.4913 107.562 22.3914 93.5615 35.3914C100.562 23.3914 116.062 13.8914 131.562 8.89136L133.062 12.4913Z" fill="#EDADBF" stroke="black" stroke-width="0.5"/>
<path d="M131.562 8.89136C111.562 14.5654 93.5615 31.8914 85.5615 29.8914C98.5615 20.3914 114.562 11.8914 131.062 7.39136L131.562 8.89136Z" fill="#EDADBF" stroke="black" stroke-width="0.5"/>
<path d="M10.5622 47.8912H4.56219C2.06152 51.8912 2.06152 61.8912 2.56219 65.3912C1.06152 66.3912 1.06212 70.8912 2.06219 72.3912L6.06219 72.8912V74.3912L2.06219 76.3912V78.3912C6.06219 79.3912 14.5622 81.3912 22.5622 80.8912V79.3912H40.0622C39.3955 70.8912 41.0622 60.3912 50.0622 53.3912C47.5622 49.3912 40.5622 44.8912 37.5622 44.3912C27.5622 43.3912 12.5622 45.8912 10.5622 47.8912Z" fill="#EDADBF" stroke="black" stroke-width="0.5"/>
<path d="M93.5635 35.3914C75.7301 36.2247 44.0635 41.0914 33.5635 44.0914L37.5635 44.3914C42.5635 45.8914 48.0635 50.2247 50.0635 53.3914C63.0625 43.8914 88.5625 50.8914 87.0625 78.3914H97.0625C90.0625 67.3914 91.0625 45.3914 93.5635 35.3914Z" fill="#EDADBF" stroke="black" stroke-width="0.5"/>
<path d="M10.5615 47.8914H4.56152C37.0617 28.3913 59.0618 34.3914 85.0615 29.8914L94.0618 35.3914C77.0618 36.3914 48.0615 39.8914 34.0615 44.0914C26.0615 43.8913 12.0615 45.8914 10.5615 47.8914Z" fill="#EDADBF" stroke="black" stroke-width="0.5"/>
<path d="M37.563 44.3914C30.063 43.3914 13.063 45.3914 10.563 47.8914C9.76298 50.2914 12.8963 53.2247 14.563 54.3914C24.063 55.8914 37.563 49.8914 37.563 44.3914Z" fill="#EDADBF" stroke="black" stroke-width="0.5"/>
<path d="M4.56222 47.8914C11.5622 48.8914 5.56222 59.3914 2.56222 64.3914C2.06215 57.3914 2.56201 51.8914 4.56222 47.8914Z" fill="#EDADBF" stroke="black" stroke-width="0.5"/>
<path d="M22.5615 83.8914V79.3914H40.0615L40.5615 83.8914H22.5615Z" fill="#EDADBF" stroke="black" stroke-width="0.5"/>
<path d="M3.06348 65.3911C4.56348 67.8911 6.56348 71.0578 6.06348 72.8911M22.5635 79.3911C12.0635 79.8911 7.56348 75.8911 8.56348 72.3911C9.06348 71.8911 10.5635 70.3911 11.5635 70.3911" stroke="black" stroke-width="0.5"/>
<path d="M32.5635 74.3912C30.0635 70.3912 24.5635 65.3913 21.5635 63.8913C19.8134 63.3913 17.1883 63.5163 14.4383 63.8913C12.8133 65.2246 11.5635 68.3912 12.0635 71.3912C12.0635 72.5579 13.3709 74.8912 16.0635 74.8912C20.5635 74.8912 27.5635 75.3912 32.5635 74.3912Z" fill="#EDADBF"/>
<path d="M6.56348 65.3913C8.81342 64.8913 11.6883 64.2663 14.4383 63.8913M14.4383 63.8913C17.1883 63.5163 19.8134 63.3913 21.5635 63.8913C24.5635 65.3913 30.0635 70.3912 32.5635 74.3912C27.5635 75.3912 20.5635 74.8912 16.0635 74.8912C13.3709 74.8912 12.0635 72.5579 12.0635 71.3912C11.5635 68.3912 12.8133 65.2246 14.4383 63.8913Z" stroke="black" stroke-width="0.5"/>
<path d="M12.0635 70.8913C20.0635 69.3914 23.5635 72.0198 26.5635 73.5198M13.5635 73.8914L31.0635 73.3914" stroke="black" stroke-width="0.5"/>
<path d="M22.5615 82.3911H32.0615C34.0615 82.3911 35.5615 80.3911 35.0615 79.3911M38.5615 79.3911V83.8911" stroke="black" stroke-width="0.5"/>
<path d="M22.5634 80.8916C18.0634 80.8916 13.5634 81.3916 2.06342 78.3916V76.3916L6.06342 74.3916V72.8916L2.06342 72.3916C1.5625 70.8914 0.562696 67.8914 2.56269 65.3914C2.06293 57.3914 2.56293 50.8914 4.56342 47.8911C37.0634 28.3915 59.0634 34.3915 85.0634 29.8915C163.063 -25.1086 245.063 11.8913 282.063 26.3915L295.563 28.3914L296.063 35.3914V38.3914C297.562 43.3914 298.897 47.8914 297.563 49.8914C300.063 50.8914 302.563 54.058 302.563 55.8914L300.563 65.8914C301.015 76.7393 298.607 76.9635 289.276 77.276C288.285 77.3092 286.216 77.3434 285.063 77.3914V78.8914L260.063 79.3224M22.5634 80.8916V83.8916H40.5618L40.0634 79.3916M22.5634 80.8916V79.3916H40.0634M40.0634 79.3916C37.0634 37.8916 90.5634 40.8916 87.0634 79.8916V82.3914H213.563C207.563 38.8914 262.063 38.8914 260.063 79.3224M259.562 79.3224H260.063" stroke="black"/>
</svg>
