<svg width="303" height="95" viewBox="0 0 303 95" fill="none" xmlns="http://www.w3.org/2000/svg">
<circle cx="62.2725" cy="73.8611" r="20.5" fill="#E56E90" stroke="black"/>
<circle cx="235.272" cy="73.8611" r="20.5" fill="#E56E90" stroke="black"/>
<path d="M132.271 12.3609L130.771 8.86094C170.771 0.861052 192.271 1.36108 231.271 12.861L227.771 17.361C207.771 9.36099 189.771 8.36099 173.771 7.86106C171.271 7.36106 167.271 7.36102 164.771 7.86094C154.771 7.86106 142.771 9.36106 132.271 12.3609Z" fill="#EDADBF" stroke="black" stroke-width="0.5"/>
<path d="M130.771 8.86113L130.271 7.36113C166.271 -3.63892 198.771 0.360958 234.271 9.36113L231.271 12.8611C191.271 0.361084 165.271 1.86108 130.771 8.86113Z" fill="#EDADBF" stroke="black" stroke-width="0.5"/>
<path d="M130.771 8.86095C182.271 -2.63908 210.771 7.36096 231.271 12.8609" stroke="black" stroke-width="0.5"/>
<path d="M170.272 29.8611L173.772 7.86108C207.272 8.86108 218.772 14.3611 223.272 15.8611L225.755 27.8611C198.765 27.8617 181.27 29.3612 170.272 29.8611Z" fill="#EDADBF"/>
<path d="M226.272 30.3611L223.272 15.8611C218.772 14.3611 207.272 8.86108 173.772 7.86108L170.272 29.8611C181.272 29.3611 198.772 27.8611 225.772 27.8611" stroke="black" stroke-width="0.5"/>
<path d="M164.772 7.86108C131.772 8.86108 111.772 17.8611 92.7725 35.3611L95.2725 33.3611L159.272 30.3611L164.772 7.86108Z" fill="#EDADBF" stroke="black" stroke-width="0.5"/>
<path d="M239.271 22.3611C235.604 19.6944 229.771 17.3611 223.271 15.8611L225.771 27.8611H232.271C235.271 26.3611 238.271 24.1298 239.271 22.3611Z" fill="#EDADBF" stroke="black" stroke-width="0.5"/>
<path d="M96.2725 78.3611H163.272L197.772 76.8611H212.272L212.772 82.3611H198.772H97.7725H86.2725V78.3611H96.2725Z" fill="#EDADBF"/>
<path d="M96.2725 78.3611H163.272L197.772 76.8611M96.2725 78.3611C96.2725 79.8611 96.7725 80.8611 97.7725 82.3611M96.2725 78.3611H86.2725V82.3611H97.7725M197.772 76.8611L198.772 82.3611M197.772 76.8611H212.272L212.772 82.3611H198.772M198.772 82.3611H97.7725" stroke="black" stroke-width="0.5"/>
<path d="M96.2716 78.3611C91.7725 73.8611 88.7725 51.8611 92.7716 35.3611L164.772 31.3611C160.772 36.3611 159.772 70.3611 163.272 78.3611H96.2716Z" fill="#EDADBF" stroke="black" stroke-width="0.5"/>
<path d="M228.272 30.3611L164.772 31.3611C160.773 36.3611 159.773 70.3611 163.272 78.3611L197.772 76.8611C202.272 75.3611 208.772 69.8611 228.272 30.3611Z" fill="#EDADBF" stroke="black" stroke-width="0.5"/>
<path d="M170.272 29.8612C165.772 30.3612 162.272 30.3612 159.272 30.3612L164.772 7.86116C167.772 7.36108 170.772 7.36108 173.772 7.86116L170.272 29.8612Z" fill="#EDADBF" stroke="black" stroke-width="0.5"/>
<path d="M98.7725 31.8611C103.272 37.3611 110.272 33.8611 114.272 32.3611C115.272 16.861 102.272 24.861 98.7725 31.8611Z" fill="#EDADBF" stroke="black" stroke-width="0.5"/>
<path d="M234.271 9.36108L231.271 12.8611C248.271 18.3611 258.771 21.3611 271.271 27.8611H272.771L280.771 26.3611C265.771 19.8611 258.271 17.3611 234.271 9.36108Z" fill="#EDADBF" stroke="black" stroke-width="0.5"/>
<path d="M271.271 27.8611C260.771 22.3611 241.771 15.8611 231.271 12.8611L229.271 15.3611L244.271 22.8611C242.771 25.3611 238.771 27.3611 232.771 30.0611C244.771 29.3611 261.771 28.3611 271.271 27.8611Z" fill="#EDADBF" stroke="black" stroke-width="0.5"/>
<path d="M276.772 34.1611L282.771 31.8611L272.271 27.8611L228.271 30.3611C220.771 45.3611 205.771 75.8611 197.771 76.8611H212.271C210.771 65.8611 220.271 42.3611 245.272 51.3611C255.772 45.8611 265.772 40.3611 276.772 34.1611Z" fill="#EDADBF" stroke="black" stroke-width="0.5"/>
<path d="M277.771 33.8611C265.771 40.3611 255.771 45.8611 245.271 51.3611C249.771 54.3611 260.271 60.3611 259.271 79.3611L284.271 78.8611V77.3611C292.771 76.3611 301.271 79.8611 299.771 65.8611L301.771 55.8611C301.771 54.3611 299.271 50.3611 296.771 49.8611C298.271 47.3611 295.271 38.3611 295.271 38.3611V36.8611L291.271 33.8611L286.271 32.3611L282.771 31.8611L277.771 33.8611Z" fill="#EDADBF" stroke="black" stroke-width="0.5"/>
<path d="M280.771 26.3611L272.271 27.8611L282.771 31.8611C292.271 32.8611 291.269 34.3611 295.265 36.7813L294.771 28.3611L280.771 26.3611Z" fill="#EDADBF"/>
<path d="M295.271 36.8611L295.265 36.7813M295.265 36.7813L294.771 28.3611L280.771 26.3611L272.271 27.8611L282.771 31.8611C292.271 32.8611 291.269 34.3611 295.265 36.7813Z" stroke="black" stroke-width="0.5"/>
<path d="M293.772 36.3613C293.272 33.8612 282.272 33.6611 276.772 34.1611" stroke="black" stroke-width="0.5"/>
<path d="M299.772 66.3611L260.272 68.3611C259.772 63.3611 257.606 59.1944 255.772 57.3611L301.772 54.8611M300.272 52.3611C289.272 50.8611 278.272 46.0611 266.272 40.0611M228.272 30.3611L272.272 27.8611L280.772 26.3611" stroke="black" stroke-width="0.5"/>
<path d="M290.272 40.3611C290.272 38.3611 289.272 34.3611 285.772 32.3611C287.993 32.3611 291.37 33.4015 293.881 35.7711C294.345 37.3011 293.272 40.8611 290.231 42.3611C290.217 41.7708 290.272 41.0854 290.272 40.3611Z" fill="#EDADBF"/>
<path d="M272.272 42.8611C279.268 43.2109 285.285 43.316 290.666 43.8611M297.272 44.8611C295.169 44.4104 292.976 44.0952 290.666 43.8611M295.272 37.3611C294.855 36.776 294.385 36.2467 293.881 35.7711M290.666 43.8611C290.339 43.5163 290.245 42.9933 290.231 42.3611M290.231 42.3611C290.217 41.7708 290.272 41.0854 290.272 40.3611C290.272 38.3611 289.272 34.3611 285.772 32.3611C287.993 32.3611 291.37 33.4015 293.881 35.7711M290.231 42.3611C293.272 40.8611 294.345 37.3011 293.881 35.7711" stroke="black" stroke-width="0.5"/>
<path d="M290.272 40.3611C285.772 40.3611 283.772 36.3611 282.772 33.8611" stroke="black" stroke-width="0.5"/>
<path d="M132.271 12.4611C118.771 16.4611 106.771 22.3611 92.7705 35.3611C99.7705 23.3611 115.271 13.8611 130.771 8.86108L132.271 12.4611Z" stroke="black" stroke-width="0.5"/>
<path d="M130.771 8.86108C110.771 14.5351 92.7705 31.8611 84.7705 29.8611C97.7705 20.3611 113.771 11.8611 130.271 7.36108L130.771 8.86108Z" stroke="black" stroke-width="0.5"/>
<path d="M9.77118 47.861H3.77118C1.27051 51.861 1.27051 61.861 1.77118 65.361C0.270508 66.361 0.271105 70.861 1.27118 72.361L5.27118 72.861V74.361L1.27118 76.361V78.361C5.27118 79.361 13.7712 81.361 21.7712 80.861V79.361H39.2712C38.6045 70.861 40.2712 60.361 49.2712 53.361C46.7712 49.361 39.7712 44.861 36.7712 44.361C26.7712 43.361 11.7712 45.861 9.77118 47.861Z" stroke="black" stroke-width="0.5"/>
<path d="M92.7725 35.3611C74.9391 36.1944 43.2725 41.0611 32.7725 44.0611L36.7725 44.3611C41.7725 45.8611 47.2725 50.1944 49.2725 53.3611C62.2715 43.8611 87.7715 50.8611 86.2715 78.3611H96.2715C89.2715 67.3611 90.2715 45.3611 92.7725 35.3611Z" stroke="black" stroke-width="0.5"/>
<path d="M9.77051 47.8611H3.77051C36.2707 28.361 58.2708 34.3611 84.2705 29.8611L93.2708 35.3611C76.2708 36.3611 47.2705 39.8611 33.2705 44.0611C25.2705 43.8611 11.2705 45.8611 9.77051 47.8611Z" stroke="black" stroke-width="0.5"/>
<path d="M36.772 44.3612C29.272 43.3611 12.272 45.3611 9.77196 47.8612C8.97196 50.2611 12.1053 53.1944 13.772 54.3611C23.272 55.8611 36.772 49.8611 36.772 44.3612Z" stroke="black" stroke-width="0.5"/>
<path d="M3.7712 47.8611C10.7712 48.8611 4.7712 59.3611 1.7712 64.3611C1.27113 57.3611 1.771 51.8611 3.7712 47.8611Z" stroke="black" stroke-width="0.5"/>
<path d="M21.7705 83.8611V79.3611H39.2705L39.7705 83.8611H21.7705Z" stroke="black" stroke-width="0.5"/>
<path d="M2.27246 65.3608C3.77246 67.8608 5.77246 71.0275 5.27246 72.8608M21.7725 79.3608C11.2725 79.8608 6.77246 75.8608 7.77246 72.3608C8.27246 71.8608 9.77246 70.3608 10.7725 70.3608" stroke="black" stroke-width="0.5"/>
<path d="M5.77246 65.361C8.0224 64.861 10.8973 64.236 13.6472 63.861M13.6472 63.861C16.3973 63.486 19.0224 63.361 20.7725 63.861C23.7725 65.361 29.2725 70.361 31.7725 74.361C26.7725 75.361 19.7725 74.861 15.2725 74.861C12.5799 74.861 11.2725 72.5276 11.2725 71.361C10.7725 68.361 12.0223 65.1943 13.6472 63.861Z" stroke="black" stroke-width="0.5"/>
<path d="M11.2725 70.861C19.2725 69.3611 22.7725 71.9896 25.7725 73.4896M12.7725 73.8611L30.2725 73.3611" stroke="black" stroke-width="0.5"/>
<path d="M21.7705 82.3608H31.2705C33.2705 82.3608 34.7705 80.3608 34.2705 79.3608M37.7705 79.3608V83.8608" stroke="black" stroke-width="0.5"/>
<path d="M21.7724 80.8613C17.2724 80.8613 12.7724 81.3613 1.27241 78.3613V76.3613L5.27241 74.3613V72.8613L1.27241 72.3613C0.771484 70.8611 -0.22832 67.8611 1.77168 65.3611C1.27192 57.3611 1.77192 50.8611 3.77241 47.8608C36.2724 28.3612 58.2724 34.3613 84.2724 29.8613C162.272 -25.1388 244.272 11.8611 281.272 26.3613L294.772 28.3611L295.272 35.3611V38.3611C296.771 43.3611 298.106 47.8611 296.772 49.8611C299.272 50.8611 301.772 54.0278 301.772 55.8611L299.772 65.8611C300.224 76.709 297.816 76.9333 288.485 77.2457C287.494 77.2789 285.425 77.3131 284.272 77.3611V78.8611L259.272 79.2921M21.7724 80.8613V83.8613H39.7708L39.2724 79.3613M21.7724 80.8613V79.3613H39.2724M39.2724 79.3613C36.2724 37.8613 89.7724 40.8613 86.2724 79.8613V82.3611H212.772C206.772 38.8611 261.272 38.8611 259.272 79.2921M258.771 79.2921H259.272" stroke="black"/>
</svg>
