<svg width="303" height="96" viewBox="0 0 303 96" fill="none" xmlns="http://www.w3.org/2000/svg">
<circle cx="62.6978" cy="74.5378" r="20.5" stroke="black"/>
<circle cx="235.698" cy="74.5378" r="20.5" stroke="black"/>
<path d="M132.696 13.0377L131.196 9.5377C171.196 1.53781 192.696 2.03784 231.696 13.5378L228.196 18.0378C208.196 10.0378 190.196 9.03775 174.196 8.53782C171.696 8.03782 167.696 8.03778 165.196 8.5377C155.196 8.53782 143.196 10.0378 132.696 13.0377Z" fill="#EDADBF" stroke="black" stroke-width="0.5"/>
<path d="M131.196 9.53789L130.696 8.03789C166.696 -2.96216 199.196 1.03772 234.696 10.0379L231.696 13.5379C191.696 1.03784 165.696 2.53784 131.196 9.53789Z" fill="#EDADBF" stroke="black" stroke-width="0.5"/>
<path d="M131.196 9.53771C182.696 -1.96232 211.196 8.03772 231.696 13.5377" stroke="black" stroke-width="0.5"/>
<path d="M170.698 30.5378L174.198 8.53784C207.698 9.53784 219.198 15.0378 223.698 16.5378L226.181 28.5378C199.19 28.5385 181.695 30.0379 170.698 30.5378Z" fill="#EDADBF"/>
<path d="M226.698 31.0378L223.698 16.5378C219.198 15.0378 207.698 9.53784 174.198 8.53784L170.698 30.5378C181.698 30.0378 199.198 28.5378 226.198 28.5378" stroke="black" stroke-width="0.5"/>
<path d="M165.198 8.53784C132.198 9.53784 112.198 18.5378 93.1978 36.0378L95.6978 34.0378L159.698 31.0378L165.198 8.53784Z" fill="#EDADBF" stroke="black" stroke-width="0.5"/>
<path d="M239.696 23.0378C236.03 20.3712 230.196 18.0378 223.696 16.5378L226.196 28.5378H232.696C235.696 27.0378 238.696 24.8066 239.696 23.0378Z" fill="#EDADBF" stroke="black" stroke-width="0.5"/>
<path d="M96.6978 79.0378H163.698L198.198 77.5378H212.698L213.198 83.0378H199.198H98.1978H86.6978V79.0378H96.6978Z" fill="#EDADBF"/>
<path d="M96.6978 79.0378H163.698L198.198 77.5378M96.6978 79.0378C96.6978 80.5378 97.1978 81.5378 98.1978 83.0378M96.6978 79.0378H86.6978V83.0378H98.1978M198.198 77.5378L199.198 83.0378M198.198 77.5378H212.698L213.198 83.0378H199.198M199.198 83.0378H98.1978" stroke="black" stroke-width="0.5"/>
<path d="M96.6969 79.0378C92.1977 74.5378 89.1978 52.5378 93.1969 36.0378L165.198 32.0378C161.198 37.0378 160.198 71.0378 163.698 79.0378H96.6969Z" fill="#EDADBF" stroke="black" stroke-width="0.5"/>
<path d="M228.697 31.0378L165.197 32.0378C161.197 37.0378 160.198 71.0378 163.697 79.0378L198.197 77.5378C202.697 76.0378 209.197 70.5378 228.697 31.0378Z" fill="#EDADBF" stroke="black" stroke-width="0.5"/>
<path d="M170.698 30.5379C166.198 31.0379 162.698 31.0379 159.698 31.0379L165.198 8.53792C168.198 8.03784 171.198 8.03784 174.198 8.53792L170.698 30.5379Z" fill="#EDADBF" stroke="black" stroke-width="0.5"/>
<path d="M99.1978 32.5379C103.698 38.0379 110.698 34.5379 114.698 33.0379C115.698 17.5377 102.698 25.5377 99.1978 32.5379Z" fill="#EDADBF" stroke="black" stroke-width="0.5"/>
<path d="M234.696 10.0378L231.696 13.5378C248.696 19.0378 259.196 22.0378 271.696 28.5378H273.196L281.196 27.0378C266.196 20.5378 258.696 18.0378 234.696 10.0378Z" stroke="black" stroke-width="0.5"/>
<path d="M271.696 28.5378C261.196 23.0378 242.196 16.5378 231.696 13.5378L229.696 16.0378L244.696 23.5378C243.196 26.0378 239.196 28.0378 233.196 30.7378C245.196 30.0378 262.196 29.0378 271.696 28.5378Z" stroke="black" stroke-width="0.5"/>
<path d="M277.198 34.8378L283.196 32.5378L272.697 28.5378L228.697 31.0378C221.197 46.0378 206.197 76.5378 198.197 77.5378H212.697C211.197 66.5378 220.697 43.0378 245.698 52.0378C256.198 46.5378 266.198 41.0378 277.198 34.8378Z" stroke="black" stroke-width="0.5"/>
<path d="M278.196 34.5379C266.196 41.0379 256.196 46.5379 245.696 52.0379C250.196 55.0378 260.696 61.0378 259.696 80.0378L284.696 79.5378V78.0378C293.196 77.0378 301.696 80.5378 300.196 66.5378L302.196 56.5378C302.196 55.0378 299.696 51.0378 297.196 50.5378C298.696 48.0378 295.696 39.0378 295.696 39.0378V37.5378L291.696 34.5378L286.696 33.0378L283.196 32.5378L278.196 34.5379Z" stroke="black" stroke-width="0.5"/>
<path d="M295.696 37.5378L295.69 37.458M295.69 37.458L295.196 29.0378L281.196 27.0378L272.696 28.5378L283.196 32.5378C292.696 33.5378 291.695 35.0378 295.69 37.458Z" stroke="black" stroke-width="0.5"/>
<path d="M294.198 37.038C293.698 34.5379 282.698 34.3379 277.198 34.8379" stroke="black" stroke-width="0.5"/>
<path d="M300.198 67.0378L260.698 69.0378C260.198 64.0378 258.031 59.8712 256.198 58.0378L302.198 55.5378M300.698 53.0378C289.698 51.5378 278.698 46.7378 266.698 40.7378M228.698 31.0378L272.698 28.5378L281.198 27.0378" stroke="black" stroke-width="0.5"/>
<path d="M272.698 43.5378C279.693 43.8876 285.71 43.9927 291.091 44.5378M297.698 45.5378C295.595 45.0872 293.402 44.7719 291.091 44.5378M295.698 38.0378C295.28 37.4527 294.811 36.9235 294.307 36.4478M291.091 44.5378C290.765 44.1931 290.671 43.67 290.656 43.0378M290.656 43.0378C290.642 42.4476 290.698 41.7621 290.698 41.0378C290.698 39.0378 289.698 35.0378 286.198 33.0378C288.419 33.0378 291.795 34.0782 294.307 36.4478M290.656 43.0378C293.698 41.5378 294.77 37.9778 294.307 36.4478" stroke="black" stroke-width="0.5"/>
<path d="M290.698 41.0378C286.198 41.0378 284.198 37.0378 283.198 34.5378" stroke="black" stroke-width="0.5"/>
<path d="M132.696 13.1378C119.196 17.1378 107.196 23.0378 93.1963 36.0378C100.196 24.0378 115.696 14.5378 131.196 9.53784L132.696 13.1378Z" fill="#E0426F" stroke="black" stroke-width="0.5"/>
<path d="M131.196 9.53784C111.196 15.2119 93.1963 32.5378 85.1963 30.5378C98.1963 21.0378 114.196 12.5378 130.696 8.03784L131.196 9.53784Z" fill="#E0426F" stroke="black" stroke-width="0.5"/>
<path d="M10.197 48.5377H4.19696C1.69629 52.5377 1.69629 62.5377 2.19696 66.0377C0.696289 67.0377 0.696887 71.5377 1.69696 73.0377L5.69696 73.5377V75.0377L1.69696 77.0377V79.0377C5.69696 80.0377 14.197 82.0377 22.197 81.5377V80.0377H39.697C39.0303 71.5377 40.697 61.0377 49.697 54.0377C47.197 50.0377 40.197 45.5377 37.197 45.0377C27.197 44.0377 12.197 46.5377 10.197 48.5377Z" fill="#E0426F" stroke="black" stroke-width="0.5"/>
<path d="M93.1978 36.0378C75.3644 36.8712 43.6978 41.7378 33.1978 44.7378L37.1978 45.0378C42.1978 46.5378 47.6978 50.8712 49.6978 54.0378C62.6968 44.5378 88.1968 51.5378 86.6968 79.0378H96.6968C89.6968 68.0378 90.6968 46.0378 93.1978 36.0378Z" fill="#E0426F" stroke="black" stroke-width="0.5"/>
<path d="M10.1963 48.5379H4.19629C36.6965 29.0378 58.6965 35.0378 84.6963 30.5378L93.6965 36.0378C76.6965 37.0378 47.6963 40.5378 33.6963 44.7378C25.6963 44.5378 11.6963 46.5378 10.1963 48.5379Z" fill="#E0426F" stroke="black" stroke-width="0.5"/>
<path d="M37.1977 45.0379C29.6977 44.0378 12.6977 46.0378 10.1977 48.5379C9.39774 50.9379 12.5311 53.8712 14.1977 55.0378C23.6978 56.5378 37.1977 50.5378 37.1977 45.0379Z" fill="#E0426F" stroke="black" stroke-width="0.5"/>
<path d="M4.19698 48.5378C11.197 49.5378 5.19698 60.0378 2.19698 65.0378C1.69691 58.0378 2.19678 52.5378 4.19698 48.5378Z" fill="#E0426F" stroke="black" stroke-width="0.5"/>
<path d="M22.1963 84.5378V80.0378H39.6963L40.1963 84.5378H22.1963Z" fill="#E0426F" stroke="black" stroke-width="0.5"/>
<path d="M2.69824 66.0376C4.19824 68.5376 6.19824 71.7043 5.69824 73.5376M22.1982 80.0376C11.6982 80.5376 7.19824 76.5376 8.19824 73.0376C8.69824 72.5376 10.1982 71.0376 11.1982 71.0376" stroke="black" stroke-width="0.5"/>
<path d="M32.1982 75.0377C29.6982 71.0377 24.1982 66.0378 21.1982 64.5378C19.4482 64.0378 16.8231 64.1628 14.073 64.5378C12.4481 65.8711 11.1982 69.0377 11.6982 72.0377C11.6982 73.2044 13.0057 75.5377 15.6982 75.5377C20.1982 75.5377 27.1982 76.0377 32.1982 75.0377Z" fill="#E0426F"/>
<path d="M6.19824 66.0378C8.44818 65.5378 11.3231 64.9128 14.073 64.5378M14.073 64.5378C16.8231 64.1628 19.4482 64.0378 21.1982 64.5378C24.1982 66.0378 29.6982 71.0377 32.1982 75.0377C27.1982 76.0377 20.1982 75.5377 15.6982 75.5377C13.0057 75.5377 11.6982 73.2044 11.6982 72.0377C11.1982 69.0377 12.4481 65.8711 14.073 64.5378Z" stroke="black" stroke-width="0.5"/>
<path d="M11.6982 71.5378C19.6982 70.0378 23.1982 72.6663 26.1982 74.1663M13.1982 74.5378L30.6982 74.0378" stroke="black" stroke-width="0.5"/>
<path d="M22.1963 83.0376H31.6963C33.6963 83.0376 35.1963 81.0376 34.6963 80.0376M38.1963 80.0376V84.5376" stroke="black" stroke-width="0.5"/>
<path d="M22.1977 81.5381C17.6977 81.5381 13.1977 82.0381 1.6977 79.0381V77.0381L5.6977 75.0381V73.5381L1.6977 73.0381C1.19678 71.5378 0.196973 68.5378 2.19697 66.0378C1.69721 58.0378 2.19721 51.5378 4.1977 48.5376C36.6977 29.038 58.6977 35.038 84.6977 30.538C162.698 -24.4621 244.698 12.5378 281.698 27.038L295.198 29.0378L295.698 36.0378V39.0378C297.196 44.0378 298.531 48.5378 297.198 50.5378C299.698 51.5378 302.198 54.7045 302.198 56.5378L300.198 66.5378C300.65 77.3858 298.242 77.61 288.91 77.9225C287.919 77.9557 285.85 77.9898 284.698 78.0378V79.5378L259.698 79.9689M22.1977 81.5381V84.5381H40.196L39.6977 80.0381M22.1977 81.5381V80.0381H39.6977M39.6977 80.0381C36.6977 38.5381 90.1977 41.5381 86.6977 80.5381V83.0378H213.198C207.198 39.5378 261.698 39.5378 259.698 79.9689M259.196 79.9689H259.698" stroke="black"/>
</svg>
