<svg width="304" height="96" viewBox="0 0 304 96" fill="none" xmlns="http://www.w3.org/2000/svg">
<circle cx="63.0835" cy="74.3535" r="20.5" fill="#EDADBF" stroke="black"/>
<circle cx="236.083" cy="74.3535" r="20.5" fill="#EDADBF" stroke="black"/>
<path d="M133.082 12.8534L131.582 9.35337C171.582 1.35348 193.082 1.85352 232.082 13.3535L228.582 17.8535C208.582 9.85343 190.582 8.85342 174.582 8.35349C172.082 7.85349 168.082 7.85345 165.582 8.35337C155.582 8.35349 143.582 9.85349 133.082 12.8534Z" fill="#EFC7D3" stroke="black" stroke-width="0.5"/>
<path d="M131.582 9.35356L131.082 7.85356C167.082 -3.14648 199.582 0.85339 235.082 9.85356L232.082 13.3536C192.082 0.853516 166.082 2.35352 131.582 9.35356Z" fill="#EFC7D3" stroke="black" stroke-width="0.5"/>
<path d="M131.582 9.3535C183.082 -2.14652 211.582 7.85352 232.082 13.3535" stroke="black" stroke-width="0.5"/>
<path d="M171.083 30.3535L174.583 8.35352C208.083 9.35352 219.583 14.8535 224.083 16.3535L226.566 28.3535C199.576 28.3542 182.081 29.8536 171.083 30.3535Z" fill="#EFC7D3"/>
<path d="M227.083 30.8535L224.083 16.3535C219.583 14.8535 208.083 9.35352 174.583 8.35352L171.083 30.3535C182.083 29.8535 199.583 28.3535 226.583 28.3535" stroke="black" stroke-width="0.5"/>
<path d="M165.583 8.35352C132.583 9.35352 112.583 18.3535 93.5835 35.8535L96.0835 33.8535L160.083 30.8535L165.583 8.35352Z" fill="#EFC7D3" stroke="black" stroke-width="0.5"/>
<path d="M240.082 22.8535C236.415 20.1868 230.582 17.8535 224.082 16.3535L226.582 28.3535H233.082C236.082 26.8535 239.082 24.6223 240.082 22.8535Z" fill="#EFC7D3" stroke="black" stroke-width="0.5"/>
<path d="M97.0835 78.8535H164.083L198.583 77.3535H213.083L213.583 82.8535H199.583H98.5835H87.0835V78.8535H97.0835Z" fill="#EFC7D3"/>
<path d="M97.0835 78.8535H164.083L198.583 77.3535M97.0835 78.8535C97.0835 80.3535 97.5835 81.3535 98.5835 82.8535M97.0835 78.8535H87.0835V82.8535H98.5835M198.583 77.3535L199.583 82.8535M198.583 77.3535H213.083L213.583 82.8535H199.583M199.583 82.8535H98.5835" stroke="black" stroke-width="0.5"/>
<path d="M97.0826 78.8535C92.5835 74.3535 89.5835 52.3535 93.5826 35.8535L165.583 31.8535C161.583 36.8535 160.583 70.8535 164.083 78.8535H97.0826Z" fill="#EFC7D3" stroke="black" stroke-width="0.5"/>
<path d="M229.083 30.8535L165.583 31.8535C161.583 36.8535 160.583 70.8535 164.083 78.8535L198.583 77.3535C203.083 75.8535 209.583 70.3535 229.083 30.8535Z" fill="#EFC7D3" stroke="black" stroke-width="0.5"/>
<path d="M171.083 30.3536C166.583 30.8536 163.083 30.8536 160.083 30.8536L165.583 8.35359C168.583 7.85352 171.583 7.85352 174.583 8.35359L171.083 30.3536Z" fill="#EFC7D3" stroke="black" stroke-width="0.5"/>
<path d="M99.5835 32.3537C104.083 37.8537 111.083 34.3537 115.083 32.8537C116.083 17.3535 103.083 25.3535 99.5835 32.3537Z" fill="#EFC7D3" stroke="black" stroke-width="0.5"/>
<path d="M235.082 9.85352L232.082 13.3535C249.082 18.8535 259.582 21.8535 272.082 28.3535H273.582L281.582 26.8535C266.582 20.3535 259.082 17.8535 235.082 9.85352Z" fill="#EFC7D3" stroke="black" stroke-width="0.5"/>
<path d="M272.082 28.3535C261.582 22.8535 242.582 16.3535 232.082 13.3535L230.082 15.8535L245.082 23.3535C243.582 25.8535 239.582 27.8535 233.582 30.5535C245.582 29.8535 262.582 28.8535 272.082 28.3535Z" fill="#EFC7D3" stroke="black" stroke-width="0.5"/>
<path d="M277.583 34.6535L283.582 32.3535L273.083 28.3535L229.083 30.8535C221.583 45.8535 206.583 76.3535 198.583 77.3535H213.083C211.583 66.3535 221.083 42.8535 246.083 51.8535C256.583 46.3535 266.583 40.8535 277.583 34.6535Z" fill="#EFC7D3" stroke="black" stroke-width="0.5"/>
<path d="M278.582 34.3535C266.582 40.8535 256.582 46.3535 246.082 51.8535C250.582 54.8535 261.082 60.8535 260.082 79.8535L285.082 79.3535V77.8535C293.582 76.8535 302.082 80.3535 300.582 66.3535L302.582 56.3535C302.582 54.8535 300.082 50.8535 297.582 50.3535C299.082 47.8535 296.082 38.8535 296.082 38.8535V37.3535L292.082 34.3535L287.082 32.8535L283.582 32.3535L278.582 34.3535Z" fill="#EFC7D3" stroke="black" stroke-width="0.5"/>
<path d="M281.582 26.8535L273.082 28.3535L283.582 32.3535C293.082 33.3535 292.081 34.8535 296.076 37.2737L295.582 28.8535L281.582 26.8535Z" fill="#EFC7D3"/>
<path d="M296.082 37.3535L296.076 37.2737M296.076 37.2737L295.582 28.8535L281.582 26.8535L273.082 28.3535L283.582 32.3535C293.082 33.3535 292.081 34.8535 296.076 37.2737Z" stroke="black" stroke-width="0.5"/>
<path d="M294.583 36.8537C294.083 34.3536 283.083 34.1535 277.583 34.6535" stroke="black" stroke-width="0.5"/>
<path d="M300.583 66.8535L261.083 68.8535C260.583 63.8535 258.417 59.6868 256.583 57.8535L302.583 55.3535M301.083 52.8535C290.083 51.3535 279.083 46.5535 267.083 40.5535M229.083 30.8535L273.083 28.3535L281.583 26.8535" stroke="black" stroke-width="0.5"/>
<path d="M291.083 40.8535C291.083 38.8535 290.083 34.8535 286.583 32.8535C288.804 32.8535 292.181 33.8939 294.692 36.2635C295.156 37.7935 294.083 41.3535 291.042 42.8535C291.028 42.2632 291.083 41.5778 291.083 40.8535Z" fill="#EFC7D3"/>
<path d="M273.083 43.3535C280.079 43.7033 286.096 43.8084 291.477 44.3535M298.083 45.3535C295.981 44.9029 293.787 44.5876 291.477 44.3535M296.083 37.8535C295.666 37.2684 295.196 36.7392 294.692 36.2635M291.477 44.3535C291.15 44.0088 291.056 43.4857 291.042 42.8535M291.042 42.8535C291.028 42.2632 291.083 41.5778 291.083 40.8535C291.083 38.8535 290.083 34.8535 286.583 32.8535C288.804 32.8535 292.181 33.8939 294.692 36.2635M291.042 42.8535C294.083 41.3535 295.156 37.7935 294.692 36.2635" stroke="black" stroke-width="0.5"/>
<path d="M291.083 40.8535C286.583 40.8535 284.583 36.8535 283.583 34.3535" stroke="black" stroke-width="0.5"/>
<path d="M133.082 12.9535C119.582 16.9535 107.582 22.8535 93.582 35.8535C100.582 23.8535 116.082 14.3535 131.582 9.35352L133.082 12.9535Z" fill="#EDADBF" stroke="black" stroke-width="0.5"/>
<path d="M131.582 9.35352C111.582 15.0276 93.582 32.3535 85.582 30.3535C98.582 20.8535 114.582 12.3535 131.082 7.85352L131.582 9.35352Z" fill="#EDADBF" stroke="black" stroke-width="0.5"/>
<path d="M10.5827 48.3535H4.5827C2.08203 52.3535 2.08203 62.3535 2.5827 65.8535C1.08203 66.8535 1.08263 71.3535 2.0827 72.8535L6.0827 73.3535V74.8535L2.0827 76.8535V78.8535C6.0827 79.8535 14.5827 81.8535 22.5827 81.3535V79.8535H40.0827C39.416 71.3535 41.0827 60.8535 50.0827 53.8535C47.5827 49.8535 40.5827 45.3535 37.5827 44.8535C27.5827 43.8535 12.5827 46.3535 10.5827 48.3535Z" fill="#EDADBF" stroke="black" stroke-width="0.5"/>
<path d="M93.5835 35.8535C75.7502 36.6868 44.0835 41.5535 33.5835 44.5535L37.5835 44.8535C42.5835 46.3535 48.0835 50.6868 50.0835 53.8535C63.0825 44.3535 88.5825 51.3535 87.0825 78.8535H97.0825C90.0825 67.8535 91.0825 45.8535 93.5835 35.8535Z" fill="#EDADBF" stroke="black" stroke-width="0.5"/>
<path d="M10.582 48.3536H4.58203C37.0822 28.8535 59.0823 34.8535 85.082 30.3535L94.0823 35.8535C77.0823 36.8535 48.082 40.3535 34.082 44.5535C26.082 44.3535 12.082 46.3535 10.582 48.3536Z" fill="#EDADBF" stroke="black" stroke-width="0.5"/>
<path d="M37.5835 44.8536C30.0835 43.8535 13.0835 45.8535 10.5835 48.3536C9.78349 50.7535 12.9168 53.6868 14.5835 54.8535C24.0835 56.3535 37.5835 50.3535 37.5835 44.8536Z" fill="#EDADBF" stroke="black" stroke-width="0.5"/>
<path d="M4.58273 48.3535C11.5827 49.3535 5.58273 59.8535 2.58273 64.8535C2.08266 57.8535 2.58252 52.3535 4.58273 48.3535Z" fill="#EDADBF" stroke="black" stroke-width="0.5"/>
<path d="M22.582 84.3535V79.8535H40.082L40.582 84.3535H22.582Z" fill="#EDADBF" stroke="black" stroke-width="0.5"/>
<path d="M3.08398 65.8535C4.58398 68.3535 6.58398 71.5202 6.08398 73.3535M22.584 79.8535C12.084 80.3535 7.58398 76.3535 8.58398 72.8535C9.08398 72.3535 10.584 70.8535 11.584 70.8535" stroke="black" stroke-width="0.5"/>
<path d="M32.584 74.8535C30.084 70.8535 24.584 65.8536 21.584 64.3536C19.8339 63.8536 17.2088 63.9786 14.4588 64.3536C12.8338 65.6869 11.584 68.8535 12.084 71.8535C12.084 73.0202 13.3914 75.3535 16.084 75.3535C20.584 75.3535 27.584 75.8535 32.584 74.8535Z" fill="#EDADBF"/>
<path d="M6.58398 65.8536C8.83393 65.3536 11.7088 64.7286 14.4588 64.3536M14.4588 64.3536C17.2088 63.9786 19.8339 63.8536 21.584 64.3536C24.584 65.8536 30.084 70.8535 32.584 74.8535C27.584 75.8535 20.584 75.3535 16.084 75.3535C13.3914 75.3535 12.084 73.0202 12.084 71.8535C11.584 68.8535 12.8338 65.6869 14.4588 64.3536Z" stroke="black" stroke-width="0.5"/>
<path d="M12.084 71.3536C20.084 69.8536 23.584 72.4821 26.584 73.9821M13.584 74.3536L31.084 73.8536" stroke="black" stroke-width="0.5"/>
<path d="M22.582 82.8535H32.082C34.082 82.8535 35.582 80.8535 35.082 79.8535M38.582 79.8535V84.3535" stroke="black" stroke-width="0.5"/>
<path d="M22.5834 81.3538C18.0834 81.3538 13.5834 81.8538 2.08344 78.8538V76.8538L6.08344 74.8538V73.3538L2.08344 72.8538C1.58252 71.3535 0.582715 68.3535 2.58271 65.8535C2.08295 57.8535 2.58295 51.3535 4.58344 48.3533C37.0834 28.8537 59.0834 34.8537 85.0834 30.3537C163.083 -24.6464 245.083 12.3535 282.083 26.8537L295.583 28.8535L296.083 35.8535V38.8535C297.582 43.8535 298.917 48.3535 297.583 50.3535C300.083 51.3535 302.583 54.5202 302.583 56.3535L300.583 66.3535C301.035 77.2014 298.627 77.4257 289.296 77.7382C288.305 77.7713 286.236 77.8055 285.083 77.8535V79.3535L260.083 79.7846M22.5834 81.3538V84.3538H40.5818L40.0835 79.8538M22.5834 81.3538V79.8538H40.0835M40.0835 79.8538C37.0835 38.3538 90.5834 41.3538 87.0834 80.3538V82.8535H213.583C207.583 39.3535 262.083 39.3535 260.083 79.7846M259.582 79.7846H260.083" stroke="black"/>
</svg>
