<svg width="303" height="95" viewBox="0 0 303 95" fill="none" xmlns="http://www.w3.org/2000/svg">
<circle cx="62.2817" cy="73.7222" r="20.5" fill="#E56E90" stroke="black"/>
<circle cx="235.282" cy="73.7222" r="20.5" fill="#E56E90" stroke="black"/>
<path d="M132.28 12.222L130.78 8.72202C170.78 0.722136 192.28 1.22217 231.28 12.7221L227.78 17.2221C207.78 9.22208 189.78 8.22208 173.78 7.72215C171.28 7.22215 167.28 7.22211 164.78 7.72202C154.78 7.72215 142.78 9.22215 132.28 12.222Z" fill="#E0426F" stroke="black" stroke-width="0.5"/>
<path d="M130.78 8.72221L130.28 7.22221C166.28 -3.77783 198.78 0.222042 234.28 9.22221L231.28 12.7222C191.28 0.222168 165.28 1.72217 130.78 8.72221Z" fill="#E0426F" stroke="black" stroke-width="0.5"/>
<path d="M130.78 8.72228C182.28 -2.77775 210.78 7.22229 231.28 12.7223" stroke="black" stroke-width="0.5"/>
<path d="M170.282 29.7222L173.782 7.72217C207.282 8.72217 218.782 14.2222 223.282 15.7222L225.764 27.7222C198.774 27.7228 181.279 29.2223 170.282 29.7222Z" fill="#E0426F"/>
<path d="M226.282 30.2222L223.282 15.7222C218.782 14.2222 207.282 8.72217 173.782 7.72217L170.282 29.7222C181.282 29.2222 198.782 27.7222 225.782 27.7222" stroke="black" stroke-width="0.5"/>
<path d="M164.782 7.72217C131.782 8.72217 111.782 17.7222 92.7817 35.2222L95.2817 33.2222L159.282 30.2222L164.782 7.72217Z" fill="#E0426F" stroke="black" stroke-width="0.5"/>
<path d="M239.28 22.2222C235.614 19.5555 229.78 17.2222 223.28 15.7222L225.78 27.7222H232.28C235.28 26.2222 238.28 23.9909 239.28 22.2222Z" fill="#E0426F" stroke="black" stroke-width="0.5"/>
<path d="M96.2817 78.2222H163.282L197.782 76.7222H212.282L212.782 82.2222H198.782H97.7817H86.2817V78.2222H96.2817Z" fill="#E0426F"/>
<path d="M96.2817 78.2222H163.282L197.782 76.7222M96.2817 78.2222C96.2817 79.7222 96.7817 80.7222 97.7817 82.2222M96.2817 78.2222H86.2817V82.2222H97.7817M197.782 76.7222L198.782 82.2222M197.782 76.7222H212.282L212.782 82.2222H198.782M198.782 82.2222H97.7817" stroke="black" stroke-width="0.5"/>
<path d="M96.2809 78.2222C91.7817 73.7222 88.7818 51.7222 92.7809 35.2222L164.782 31.2222C160.782 36.2222 159.782 70.2222 163.282 78.2222H96.2809Z" fill="#E0426F" stroke="black" stroke-width="0.5"/>
<path d="M228.281 30.2222L164.781 31.2222C160.781 36.2222 159.781 70.2222 163.281 78.2222L197.781 76.7222C202.281 75.2222 208.781 69.7222 228.281 30.2222Z" fill="#E0426F" stroke="black" stroke-width="0.5"/>
<path d="M170.282 29.7222C165.782 30.2222 162.282 30.2222 159.282 30.2222L164.782 7.72224C167.782 7.22217 170.782 7.22217 173.782 7.72224L170.282 29.7222Z" fill="#E0426F" stroke="black" stroke-width="0.5"/>
<path d="M98.7817 31.7224C103.282 37.2224 110.282 33.7224 114.282 32.2224C115.282 16.7223 102.282 24.7223 98.7817 31.7224Z" fill="#E0426F" stroke="black" stroke-width="0.5"/>
<path d="M234.28 9.22217L231.28 12.7222C248.28 18.2222 258.78 21.2222 271.28 27.7222H272.78L280.78 26.2222C265.78 19.7222 258.28 17.2222 234.28 9.22217Z" fill="#EFC7D3" stroke="black" stroke-width="0.5"/>
<path d="M271.28 27.7222C260.78 22.2222 241.78 15.7222 231.28 12.7222L229.28 15.2222L244.28 22.7222C242.78 25.2222 238.78 27.2222 232.78 29.9222C244.78 29.2222 261.78 28.2222 271.28 27.7222Z" fill="#EFC7D3" stroke="black" stroke-width="0.5"/>
<path d="M276.782 34.0222L282.78 31.7222L272.281 27.7222L228.281 30.2222C220.781 45.2222 205.781 75.7222 197.781 76.7222H212.281C210.781 65.7222 220.281 42.2222 245.282 51.2222C255.782 45.7222 265.782 40.2222 276.782 34.0222Z" fill="#EFC7D3" stroke="black" stroke-width="0.5"/>
<path d="M277.78 33.7222C265.78 40.2222 255.78 45.7222 245.28 51.2222C249.78 54.2222 260.28 60.2222 259.28 79.2222L284.28 78.7222V77.2222C292.78 76.2222 301.28 79.7222 299.78 65.7222L301.78 55.7222C301.78 54.2222 299.28 50.2222 296.78 49.7222C298.28 47.2222 295.28 38.2222 295.28 38.2222V36.7222L291.28 33.7222L286.28 32.2222L282.78 31.7222L277.78 33.7222Z" fill="#EFC7D3" stroke="black" stroke-width="0.5"/>
<path d="M280.78 26.2222L272.28 27.7222L282.78 31.7222C292.28 32.7222 291.279 34.2222 295.274 36.6423L294.78 28.2222L280.78 26.2222Z" fill="#EFC7D3"/>
<path d="M295.28 36.7222L295.274 36.6423M295.274 36.6423L294.78 28.2222L280.78 26.2222L272.28 27.7222L282.78 31.7222C292.28 32.7222 291.279 34.2222 295.274 36.6423Z" stroke="black" stroke-width="0.5"/>
<path d="M293.782 36.2224C293.282 33.7223 282.282 33.5222 276.782 34.0222" stroke="black" stroke-width="0.5"/>
<path d="M299.782 66.2222L260.282 68.2222C259.782 63.2222 257.615 59.0555 255.782 57.2222L301.782 54.7222M300.282 52.2222C289.282 50.7222 278.282 45.9222 266.282 39.9222M228.282 30.2222L272.282 27.7222L280.782 26.2222" stroke="black" stroke-width="0.5"/>
<path d="M290.282 40.2222C290.282 38.2222 289.282 34.2222 285.782 32.2222C288.003 32.2222 291.379 33.2626 293.891 35.6322C294.354 37.1622 293.282 40.7222 290.24 42.2222C290.226 41.6319 290.282 40.9465 290.282 40.2222Z" fill="#EFC7D3"/>
<path d="M272.282 42.7222C279.277 43.072 285.294 43.177 290.675 43.7222M297.282 44.7222C295.179 44.2715 292.985 43.9563 290.675 43.7222M295.282 37.2222C294.864 36.637 294.395 36.1078 293.891 35.6322M290.675 43.7222C290.349 43.3774 290.255 42.8544 290.24 42.2222M290.24 42.2222C290.226 41.6319 290.282 40.9465 290.282 40.2222C290.282 38.2222 289.282 34.2222 285.782 32.2222C288.003 32.2222 291.379 33.2626 293.891 35.6322M290.24 42.2222C293.282 40.7222 294.354 37.1622 293.891 35.6322" stroke="black" stroke-width="0.5"/>
<path d="M290.282 40.2222C285.782 40.2222 283.782 36.2222 282.782 33.7222" stroke="black" stroke-width="0.5"/>
<path d="M132.28 12.3221C118.78 16.3221 106.78 22.2222 92.7803 35.2222C99.7803 23.2222 115.28 13.7222 130.78 8.72217L132.28 12.3221Z" fill="#EFC7D3" stroke="black" stroke-width="0.5"/>
<path d="M130.78 8.72217C110.78 14.3962 92.7803 31.7222 84.7803 29.7222C97.7803 20.2222 113.78 11.7222 130.28 7.22217L130.78 8.72217Z" fill="#EFC7D3" stroke="black" stroke-width="0.5"/>
<path d="M9.78094 47.7221H3.78094C1.28027 51.722 1.28027 61.722 1.78094 65.222C0.280273 66.222 0.280871 70.722 1.28094 72.222L5.28094 72.722V74.222L1.28094 76.222V78.222C5.28094 79.222 13.7809 81.222 21.7809 80.722V79.222H39.2809C38.6143 70.722 40.2809 60.222 49.2809 53.222C46.7809 49.222 39.7809 44.722 36.7809 44.2221C26.7809 43.222 11.7809 45.7221 9.78094 47.7221Z" fill="#EFC7D3" stroke="black" stroke-width="0.5"/>
<path d="M92.7817 35.2222C74.9484 36.0555 43.2817 40.9222 32.7817 43.9222L36.7817 44.2222C41.7817 45.7222 47.2817 50.0555 49.2817 53.2222C62.2808 43.7222 87.7808 50.7222 86.2808 78.2222H96.2808C89.2808 67.2222 90.2808 45.2222 92.7817 35.2222Z" fill="#EFC7D3" stroke="black" stroke-width="0.5"/>
<path d="M9.78027 47.7222H3.78027C36.2805 28.2221 58.2805 34.2222 84.2803 29.7222L93.2805 35.2222C76.2805 36.2222 47.2803 39.7222 33.2803 43.9222C25.2803 43.7222 11.2803 45.7222 9.78027 47.7222Z" fill="#EFC7D3" stroke="black" stroke-width="0.5"/>
<path d="M36.7817 44.2222C29.2817 43.2222 12.2817 45.2222 9.78173 47.7222C8.98173 50.1222 12.1151 53.0555 13.7817 54.2222C23.2817 55.7222 36.7817 49.7222 36.7817 44.2222Z" fill="#EFC7D3" stroke="black" stroke-width="0.5"/>
<path d="M3.78097 47.7222C10.781 48.7222 4.78097 59.2222 1.78097 64.2222C1.2809 57.2222 1.78076 51.7222 3.78097 47.7222Z" fill="#EFC7D3" stroke="black" stroke-width="0.5"/>
<path d="M21.7803 83.7222V79.2222H39.2803L39.7803 83.7222H21.7803Z" fill="#EFC7D3" stroke="black" stroke-width="0.5"/>
<path d="M2.28223 65.2222C3.78223 67.7222 5.78223 70.8888 5.28223 72.7222M21.7822 79.2222C11.2822 79.7222 6.78223 75.7222 7.78223 72.2222C8.28223 71.7222 9.78223 70.2222 10.7822 70.2222" stroke="black" stroke-width="0.5"/>
<path d="M31.7822 74.2223C29.2822 70.2223 23.7822 65.2224 20.7822 63.7224C19.0322 63.2224 16.4071 63.3474 13.657 63.7224C12.0321 65.0557 10.7822 68.2223 11.2822 71.2223C11.2822 72.389 12.5896 74.7223 15.2822 74.7223C19.7822 74.7223 26.7822 75.2223 31.7822 74.2223Z" fill="#EFC7D3"/>
<path d="M5.78223 65.2224C8.03217 64.7223 10.9071 64.0974 13.657 63.7224M13.657 63.7224C16.4071 63.3474 19.0322 63.2224 20.7822 63.7224C23.7822 65.2224 29.2822 70.2223 31.7822 74.2223C26.7822 75.2223 19.7822 74.7223 15.2822 74.7223C12.5896 74.7223 11.2822 72.389 11.2822 71.2223C10.7822 68.2223 12.0321 65.0557 13.657 63.7224Z" stroke="black" stroke-width="0.5"/>
<path d="M11.2822 70.7224C19.2822 69.2224 22.7822 71.8509 25.7822 73.3509M12.7822 73.7224L30.2822 73.2224" stroke="black" stroke-width="0.5"/>
<path d="M21.7803 82.2222H31.2803C33.2803 82.2222 34.7803 80.2222 34.2803 79.2222M37.7803 79.2222V83.7222" stroke="black" stroke-width="0.5"/>
<path d="M21.7817 80.7224C17.2817 80.7224 12.7817 81.2224 1.28168 78.2224V76.2224L5.28168 74.2224V72.7224L1.28168 72.2224C0.780762 70.7222 -0.219042 67.7222 1.78095 65.2222C1.2812 57.2222 1.7812 50.7222 3.78168 47.7219C36.2817 28.2223 58.2817 34.2224 84.2817 29.7224C162.282 -25.2778 244.282 11.7222 281.282 26.2223L294.782 28.2222L295.282 35.2222V38.2222C296.78 43.2222 298.115 47.7222 296.782 49.7222C299.282 50.7222 301.782 53.8888 301.782 55.7222L299.782 65.7222C300.234 76.5701 297.826 76.7944 288.494 77.1068C287.503 77.14 285.434 77.1742 284.282 77.2222V78.7222L259.282 79.1532M21.7817 80.7224V83.7224H39.78L39.2817 79.2224M21.7817 80.7224V79.2224H39.2817M39.2817 79.2224C36.2817 37.7224 89.7817 40.7224 86.2817 79.7224V82.2222H212.782C206.782 38.7222 261.282 38.7222 259.282 79.1532M258.78 79.1532H259.282" stroke="black"/>
</svg>
