<svg width="304" height="96" viewBox="0 0 304 96" fill="none" xmlns="http://www.w3.org/2000/svg">
<circle cx="63.0742" cy="74.1843" r="20.5" fill="#EDADBF" stroke="black"/>
<circle cx="236.074" cy="74.1843" r="20.5" fill="#EDADBF" stroke="black"/>
<path d="M133.072 12.6842L131.572 9.18418C171.572 1.18429 193.072 1.68433 232.072 13.1843L228.572 17.6843C208.572 9.68424 190.572 8.68423 174.572 8.1843C172.072 7.6843 168.072 7.68427 165.572 8.18418C155.572 8.1843 143.572 9.6843 133.072 12.6842Z" fill="#EFC7D3" stroke="black" stroke-width="0.5"/>
<path d="M131.572 9.18437L131.072 7.68437C167.072 -3.31567 199.572 0.6842 235.072 9.68437L232.072 13.1844C192.072 0.684326 166.072 2.18433 131.572 9.18437Z" fill="#EFC7D3" stroke="black" stroke-width="0.5"/>
<path d="M131.572 9.18431C183.072 -2.31571 211.572 7.68433 232.072 13.1843" stroke="black" stroke-width="0.5"/>
<path d="M171.074 30.1843L174.574 8.18433C208.074 9.18433 219.574 14.6843 224.074 16.1843L226.557 28.1843C199.567 28.185 182.072 29.6844 171.074 30.1843Z" fill="#EFC7D3"/>
<path d="M227.074 30.6843L224.074 16.1843C219.574 14.6843 208.074 9.18433 174.574 8.18433L171.074 30.1843C182.074 29.6843 199.574 28.1843 226.574 28.1843" stroke="black" stroke-width="0.5"/>
<path d="M165.574 8.18433C132.574 9.18433 112.574 18.1843 93.5742 35.6843L96.0742 33.6843L160.074 30.6843L165.574 8.18433Z" fill="#EFC7D3" stroke="black" stroke-width="0.5"/>
<path d="M240.072 22.6843C236.406 20.0177 230.572 17.6843 224.072 16.1843L226.572 28.1843H233.072C236.072 26.6843 239.072 24.4531 240.072 22.6843Z" fill="#EFC7D3" stroke="black" stroke-width="0.5"/>
<path d="M97.0742 78.6843H164.074L198.574 77.1843H213.074L213.574 82.6843H199.574H98.5742H87.0742V78.6843H97.0742Z" fill="#EFC7D3"/>
<path d="M97.0742 78.6843H164.074L198.574 77.1843M97.0742 78.6843C97.0742 80.1843 97.5742 81.1843 98.5742 82.6843M97.0742 78.6843H87.0742V82.6843H98.5742M198.574 77.1843L199.574 82.6843M198.574 77.1843H213.074L213.574 82.6843H199.574M199.574 82.6843H98.5742" stroke="black" stroke-width="0.5"/>
<path d="M97.0733 78.6843C92.5742 74.1843 89.5743 52.1843 93.5733 35.6843L165.574 31.6843C161.574 36.6843 160.574 70.6843 164.074 78.6843H97.0733Z" fill="#EFC7D3" stroke="black" stroke-width="0.5"/>
<path d="M229.074 30.6843L165.574 31.6843C161.574 36.6843 160.574 70.6843 164.074 78.6843L198.574 77.1843C203.074 75.6843 209.574 70.1843 229.074 30.6843Z" fill="#EFC7D3" stroke="black" stroke-width="0.5"/>
<path d="M171.074 30.1844C166.574 30.6844 163.074 30.6844 160.074 30.6844L165.574 8.1844C168.574 7.68433 171.574 7.68433 174.574 8.1844L171.074 30.1844Z" fill="#EFC7D3" stroke="black" stroke-width="0.5"/>
<path d="M99.5742 32.1845C104.074 37.6845 111.074 34.1845 115.074 32.6845C116.074 17.1843 103.074 25.1843 99.5742 32.1845Z" fill="#EFC7D3" stroke="black" stroke-width="0.5"/>
<path d="M235.072 9.68433L232.072 13.1843C249.072 18.6843 259.572 21.6843 272.072 28.1843H273.572L281.572 26.6843C266.572 20.1843 259.072 17.6843 235.072 9.68433Z" fill="#EDADBF" stroke="black" stroke-width="0.5"/>
<path d="M272.072 28.1843C261.572 22.6843 242.572 16.1843 232.072 13.1843L230.072 15.6843L245.072 23.1843C243.572 25.6843 239.572 27.6843 233.572 30.3843C245.572 29.6843 262.572 28.6843 272.072 28.1843Z" fill="#EDADBF" stroke="black" stroke-width="0.5"/>
<path d="M277.574 34.4843L283.573 32.1843L273.073 28.1843L229.073 30.6843C221.573 45.6843 206.573 76.1843 198.573 77.1843H213.073C211.573 66.1843 221.073 42.6843 246.074 51.6843C256.574 46.1843 266.574 40.6843 277.574 34.4843Z" fill="#EDADBF" stroke="black" stroke-width="0.5"/>
<path d="M278.572 34.1844C266.572 40.6844 256.572 46.1844 246.072 51.6844C250.572 54.6843 261.072 60.6843 260.072 79.6843L285.072 79.1843V77.6843C293.572 76.6843 302.072 80.1843 300.572 66.1843L302.572 56.1843C302.572 54.6843 300.072 50.6843 297.572 50.1843C299.072 47.6843 296.072 38.6843 296.072 38.6843V37.1843L292.072 34.1843L287.072 32.6843L283.572 32.1843L278.572 34.1844Z" fill="#EDADBF" stroke="black" stroke-width="0.5"/>
<path d="M281.572 26.6843L273.072 28.1843L283.572 32.1843C293.072 33.1843 292.071 34.6843 296.066 37.1045L295.572 28.6843L281.572 26.6843Z" fill="#EDADBF"/>
<path d="M296.072 37.1843L296.066 37.1045M296.066 37.1045L295.572 28.6843L281.572 26.6843L273.072 28.1843L283.572 32.1843C293.072 33.1843 292.071 34.6843 296.066 37.1045Z" stroke="black" stroke-width="0.5"/>
<path d="M294.574 36.6845C294.074 34.1844 283.074 33.9843 277.574 34.4843" stroke="black" stroke-width="0.5"/>
<path d="M300.574 66.6843L261.074 68.6843C260.574 63.6843 258.408 59.5177 256.574 57.6843L302.574 55.1843M301.074 52.6843C290.074 51.1843 279.074 46.3843 267.074 40.3843M229.074 30.6843L273.074 28.1843L281.574 26.6843" stroke="black" stroke-width="0.5"/>
<path d="M291.074 40.6843C291.074 38.6843 290.074 34.6843 286.574 32.6843C288.795 32.6843 292.172 33.7247 294.683 36.0943C295.147 37.6243 294.074 41.1843 291.032 42.6843C291.019 42.094 291.074 41.4086 291.074 40.6843Z" fill="#EDADBF"/>
<path d="M273.074 43.1843C280.07 43.5341 286.087 43.6392 291.467 44.1843M298.074 45.1843C295.971 44.7337 293.778 44.4184 291.467 44.1843M296.074 37.6843C295.656 37.0992 295.187 36.57 294.683 36.0943M291.467 44.1843C291.141 43.8396 291.047 43.3165 291.032 42.6843M291.032 42.6843C291.019 42.094 291.074 41.4086 291.074 40.6843C291.074 38.6843 290.074 34.6843 286.574 32.6843C288.795 32.6843 292.172 33.7247 294.683 36.0943M291.032 42.6843C294.074 41.1843 295.147 37.6243 294.683 36.0943" stroke="black" stroke-width="0.5"/>
<path d="M291.074 40.6843C286.574 40.6843 284.574 36.6843 283.574 34.1843" stroke="black" stroke-width="0.5"/>
<path d="M133.072 12.7843C119.572 16.7843 107.572 22.6843 93.5723 35.6843C100.572 23.6843 116.072 14.1843 131.572 9.18433L133.072 12.7843Z" fill="#EFC7D3" stroke="black" stroke-width="0.5"/>
<path d="M131.572 9.18433C111.572 14.8584 93.5723 32.1843 85.5723 30.1843C98.5723 20.6843 114.572 12.1843 131.072 7.68433L131.572 9.18433Z" fill="#EFC7D3" stroke="black" stroke-width="0.5"/>
<path d="M10.5729 48.1843H4.57293C2.07227 52.1843 2.07227 62.1843 2.57293 65.6843C1.07227 66.6843 1.07286 71.1843 2.07293 72.6843L6.07293 73.1843V74.6843L2.07293 76.6843V78.6843C6.07293 79.6843 14.5729 81.6843 22.5729 81.1843V79.6843H40.0729C39.4063 71.1843 41.0729 60.6843 50.0729 53.6843C47.5729 49.6843 40.5729 45.1843 37.5729 44.6843C27.5729 43.6843 12.5729 46.1843 10.5729 48.1843Z" fill="#EFC7D3" stroke="black" stroke-width="0.5"/>
<path d="M93.5742 35.6843C75.7409 36.5177 44.0742 41.3843 33.5742 44.3843L37.5742 44.6843C42.5742 46.1843 48.0742 50.5177 50.0742 53.6843C63.0732 44.1843 88.5732 51.1843 87.0732 78.6843H97.0732C90.0732 67.6843 91.0732 45.6843 93.5742 35.6843Z" fill="#EFC7D3" stroke="black" stroke-width="0.5"/>
<path d="M10.5723 48.1844H4.57227C37.0724 28.6843 59.0725 34.6843 85.0723 30.1843L94.0725 35.6843C77.0725 36.6843 48.0723 40.1843 34.0723 44.3843C26.0723 44.1843 12.0723 46.1843 10.5723 48.1844Z" fill="#EFC7D3" stroke="black" stroke-width="0.5"/>
<path d="M37.5737 44.6844C30.0737 43.6843 13.0737 45.6843 10.5737 48.1844C9.77372 50.5843 12.9071 53.5177 14.5737 54.6843C24.0737 56.1843 37.5737 50.1843 37.5737 44.6844Z" fill="#EFC7D3" stroke="black" stroke-width="0.5"/>
<path d="M4.57296 48.1843C11.573 49.1843 5.57296 59.6843 2.57296 64.6843C2.07289 57.6843 2.57275 52.1843 4.57296 48.1843Z" fill="#EFC7D3" stroke="black" stroke-width="0.5"/>
<path d="M22.5723 84.1843V79.6843H40.0723L40.5723 84.1843H22.5723Z" fill="#EFC7D3" stroke="black" stroke-width="0.5"/>
<path d="M3.07422 65.6843C4.57422 68.1843 6.57422 71.351 6.07422 73.1843M22.5742 79.6843C12.0742 80.1843 7.57422 76.1843 8.57422 72.6843C9.07422 72.1843 10.5742 70.6843 11.5742 70.6843" stroke="black" stroke-width="0.5"/>
<path d="M32.5742 74.6843C30.0742 70.6843 24.5742 65.6844 21.5742 64.1844C19.8242 63.6844 17.1991 63.8094 14.449 64.1844C12.8241 65.5177 11.5742 68.6843 12.0742 71.6843C12.0742 72.851 13.3816 75.1843 16.0742 75.1843C20.5742 75.1843 27.5742 75.6843 32.5742 74.6843Z" fill="#EFC7D3"/>
<path d="M6.57422 65.6844C8.82416 65.1844 11.6991 64.5594 14.449 64.1844M14.449 64.1844C17.1991 63.8094 19.8242 63.6844 21.5742 64.1844C24.5742 65.6844 30.0742 70.6843 32.5742 74.6843C27.5742 75.6843 20.5742 75.1843 16.0742 75.1843C13.3816 75.1843 12.0742 72.851 12.0742 71.6843C11.5742 68.6843 12.8241 65.5177 14.449 64.1844Z" stroke="black" stroke-width="0.5"/>
<path d="M12.0742 71.1844C20.0742 69.6844 23.5742 72.3129 26.5742 73.8129M13.5742 74.1844L31.0742 73.6844" stroke="black" stroke-width="0.5"/>
<path d="M22.5723 82.6843H32.0723C34.0723 82.6843 35.5723 80.6843 35.0723 79.6843M38.5723 79.6843V84.1843" stroke="black" stroke-width="0.5"/>
<path d="M22.5742 81.1846C18.0742 81.1846 13.5742 81.6846 2.07416 78.6846V76.6846L6.07417 74.6846V73.1846L2.07416 72.6846C1.57324 71.1843 0.573438 68.1843 2.57343 65.6843C2.07368 57.6843 2.57368 51.1843 4.57417 48.1841C37.0742 28.6845 59.0742 34.6845 85.0742 30.1845C163.074 -24.8156 245.074 12.1843 282.074 26.6845L295.574 28.6843L296.074 35.6843V38.6843C297.573 43.6843 298.908 48.1843 297.574 50.1843C300.074 51.1843 302.574 54.351 302.574 56.1843L300.574 66.1843C301.026 77.0322 298.618 77.2565 289.286 77.569C288.295 77.6021 286.226 77.6363 285.074 77.6843V79.1843L260.074 79.6154M22.5742 81.1846V84.1846H40.5725L40.0742 79.6846M22.5742 81.1846V79.6846H40.0742M40.0742 79.6846C37.0742 38.1846 90.5742 41.1846 87.0742 80.1846V82.6843H213.574C207.574 39.1843 262.074 39.1843 260.074 79.6154M259.573 79.6154H260.074" stroke="black"/>
</svg>
