<svg width="304" height="96" viewBox="0 0 304 96" fill="none" xmlns="http://www.w3.org/2000/svg">
<circle cx="63.0635" cy="74.0151" r="20.5" fill="#EDADBF" stroke="black"/>
<circle cx="236.063" cy="74.0151" r="20.5" fill="#EDADBF" stroke="black"/>
<path d="M133.062 12.515L131.562 9.01499C171.562 1.0151 193.062 1.51514 232.062 13.0151L228.562 17.5151C208.562 9.51505 190.562 8.51505 174.562 8.01511C172.062 7.51511 168.062 7.51508 165.562 8.01499C155.562 8.01511 143.562 9.51511 133.062 12.515Z" fill="#EFC7D3" stroke="black" stroke-width="0.5"/>
<path d="M131.562 9.01518L131.062 7.51518C167.062 -3.48486 199.562 0.515011 235.062 9.51518L232.062 13.0152C192.062 0.515137 166.062 2.01514 131.562 9.01518Z" fill="#EFC7D3" stroke="black" stroke-width="0.5"/>
<path d="M131.562 9.01512C183.062 -2.4849 211.562 7.51514 232.062 13.0151" stroke="black" stroke-width="0.5"/>
<path d="M171.063 30.0151L174.563 8.01514C208.063 9.01514 219.563 14.5151 224.063 16.0151L226.546 28.0151C199.556 28.0158 182.061 29.5152 171.063 30.0151Z" fill="#EFC7D3"/>
<path d="M227.063 30.5151L224.063 16.0151C219.563 14.5151 208.063 9.01514 174.563 8.01514L171.063 30.0151C182.063 29.5151 199.563 28.0151 226.563 28.0151" stroke="black" stroke-width="0.5"/>
<path d="M165.563 8.01514C132.563 9.01514 112.563 18.0151 93.5635 35.5151L96.0635 33.5151L160.063 30.5151L165.563 8.01514Z" fill="#EFC7D3" stroke="black" stroke-width="0.5"/>
<path d="M240.062 22.5151C236.395 19.8485 230.562 17.5151 224.062 16.0151L226.562 28.0151H233.062C236.062 26.5151 239.062 24.2839 240.062 22.5151Z" fill="#EFC7D3" stroke="black" stroke-width="0.5"/>
<path d="M97.0635 78.5151H164.063L198.563 77.0151H213.063L213.563 82.5151H199.563H98.5635H87.0635V78.5151H97.0635Z" fill="#EFC7D3"/>
<path d="M97.0635 78.5151H164.063L198.563 77.0151M97.0635 78.5151C97.0635 80.0151 97.5635 81.0151 98.5635 82.5151M97.0635 78.5151H87.0635V82.5151H98.5635M198.563 77.0151L199.563 82.5151M198.563 77.0151H213.063L213.563 82.5151H199.563M199.563 82.5151H98.5635" stroke="black" stroke-width="0.5"/>
<path d="M97.0626 78.5151C92.5635 74.0151 89.5635 52.0151 93.5626 35.5151L165.563 31.5151C161.563 36.5151 160.563 70.5151 164.063 78.5151H97.0626Z" fill="#EFC7D3" stroke="black" stroke-width="0.5"/>
<path d="M229.063 30.5151L165.563 31.5151C161.564 36.5151 160.564 70.5151 164.063 78.5151L198.563 77.0151C203.063 75.5151 209.563 70.0151 229.063 30.5151Z" fill="#EFC7D3" stroke="black" stroke-width="0.5"/>
<path d="M171.063 30.0152C166.563 30.5152 163.063 30.5152 160.063 30.5152L165.563 8.01521C168.563 7.51514 171.563 7.51514 174.563 8.01521L171.063 30.0152Z" fill="#EFC7D3" stroke="black" stroke-width="0.5"/>
<path d="M99.5635 32.0153C104.063 37.5153 111.063 34.0153 115.063 32.5153C116.063 17.0152 103.063 25.0151 99.5635 32.0153Z" fill="#EFC7D3" stroke="black" stroke-width="0.5"/>
<path d="M235.062 9.51514L232.062 13.0151C249.062 18.5151 259.562 21.5151 272.062 28.0151H273.562L281.562 26.5151C266.562 20.0151 259.062 17.5151 235.062 9.51514Z" fill="#E56E90" stroke="black" stroke-width="0.5"/>
<path d="M272.062 28.0151C261.562 22.5151 242.562 16.0151 232.062 13.0151L230.062 15.5151L245.062 23.0151C243.562 25.5151 239.562 27.5151 233.562 30.2151C245.562 29.5151 262.562 28.5151 272.062 28.0151Z" fill="#E56E90" stroke="black" stroke-width="0.5"/>
<path d="M277.563 34.3151L283.562 32.0151L273.062 28.0151L229.062 30.5151C221.562 45.5151 206.562 76.0151 198.562 77.0151H213.062C211.562 66.0151 221.062 42.5151 246.063 51.5151C256.563 46.0151 266.563 40.5151 277.563 34.3151Z" fill="#E56E90" stroke="black" stroke-width="0.5"/>
<path d="M278.562 34.0152C266.562 40.5152 256.562 46.0152 246.062 51.5152C250.562 54.5151 261.062 60.5151 260.062 79.5151L285.062 79.0151V77.5151C293.562 76.5151 302.062 80.0151 300.562 66.0151L302.562 56.0151C302.562 54.5151 300.062 50.5151 297.562 50.0151C299.062 47.5151 296.062 38.5151 296.062 38.5151V37.0151L292.062 34.0151L287.062 32.5151L283.562 32.0151L278.562 34.0152Z" fill="#E56E90" stroke="black" stroke-width="0.5"/>
<path d="M281.562 26.5151L273.062 28.0151L283.562 32.0151C293.062 33.0151 292.06 34.5151 296.056 36.9353L295.562 28.5151L281.562 26.5151Z" fill="#E56E90"/>
<path d="M296.062 37.0151L296.056 36.9353M296.056 36.9353L295.562 28.5151L281.562 26.5151L273.062 28.0151L283.562 32.0151C293.062 33.0151 292.06 34.5151 296.056 36.9353Z" stroke="black" stroke-width="0.5"/>
<path d="M294.563 36.5153C294.063 34.0152 283.063 33.8151 277.563 34.3151" stroke="black" stroke-width="0.5"/>
<path d="M300.563 66.5151L261.063 68.5151C260.563 63.5151 258.397 59.3485 256.563 57.5151L302.563 55.0151M301.063 52.5151C290.063 51.0151 279.063 46.2151 267.063 40.2151M229.063 30.5151L273.063 28.0151L281.563 26.5151" stroke="black" stroke-width="0.5"/>
<path d="M291.063 40.5151C291.063 38.5151 290.063 34.5151 286.563 32.5151C288.784 32.5151 292.161 33.5555 294.672 35.9251C295.136 37.4551 294.063 41.0151 291.022 42.5151C291.008 41.9249 291.063 41.2394 291.063 40.5151Z" fill="#E56E90"/>
<path d="M273.063 43.0151C280.059 43.3649 286.076 43.47 291.457 44.0151M298.063 45.0151C295.96 44.5645 293.767 44.2492 291.457 44.0151M296.063 37.5151C295.646 36.93 295.176 36.4008 294.672 35.9251M291.457 44.0151C291.13 43.6704 291.036 43.1473 291.022 42.5151M291.022 42.5151C291.008 41.9249 291.063 41.2394 291.063 40.5151C291.063 38.5151 290.063 34.5151 286.563 32.5151C288.784 32.5151 292.161 33.5555 294.672 35.9251M291.022 42.5151C294.063 41.0151 295.136 37.4551 294.672 35.9251" stroke="black" stroke-width="0.5"/>
<path d="M291.063 40.5151C286.563 40.5151 284.563 36.5151 283.563 34.0151" stroke="black" stroke-width="0.5"/>
<path d="M133.062 12.6151C119.562 16.6151 107.562 22.5151 93.5615 35.5151C100.562 23.5151 116.062 14.0151 131.562 9.01514L133.062 12.6151Z" stroke="black" stroke-width="0.5"/>
<path d="M131.562 9.01514C111.562 14.6892 93.5615 32.0151 85.5615 30.0151C98.5615 20.5151 114.562 12.0151 131.062 7.51514L131.562 9.01514Z" stroke="black" stroke-width="0.5"/>
<path d="M10.5622 48.0151H4.56219C2.06152 52.0151 2.06152 62.0151 2.56219 65.5151C1.06152 66.5151 1.06212 71.0151 2.06219 72.5151L6.06219 73.0151V74.5151L2.06219 76.5151V78.5151C6.06219 79.5151 14.5622 81.5151 22.5622 81.0151V79.5151H40.0622C39.3955 71.0151 41.0622 60.5151 50.0622 53.5151C47.5622 49.5151 40.5622 45.0151 37.5622 44.5151C27.5622 43.5151 12.5622 46.0151 10.5622 48.0151Z" stroke="black" stroke-width="0.5"/>
<path d="M93.5635 35.5151C75.7301 36.3485 44.0635 41.2151 33.5635 44.2151L37.5635 44.5151C42.5635 46.0151 48.0635 50.3485 50.0635 53.5151C63.0625 44.0151 88.5625 51.0151 87.0625 78.5151H97.0625C90.0625 67.5151 91.0625 45.5151 93.5635 35.5151Z" stroke="black" stroke-width="0.5"/>
<path d="M10.5615 48.0152H4.56152C37.0617 28.5151 59.0618 34.5151 85.0615 30.0151L94.0618 35.5151C77.0618 36.5151 48.0615 40.0151 34.0615 44.2151C26.0615 44.0151 12.0615 46.0151 10.5615 48.0152Z" stroke="black" stroke-width="0.5"/>
<path d="M37.563 44.5152C30.063 43.5151 13.063 45.5151 10.563 48.0152C9.76298 50.4152 12.8963 53.3485 14.563 54.5151C24.063 56.0151 37.563 50.0151 37.563 44.5152Z" stroke="black" stroke-width="0.5"/>
<path d="M4.56222 48.0151C11.5622 49.0151 5.56222 59.5151 2.56222 64.5151C2.06215 57.5151 2.56201 52.0151 4.56222 48.0151Z" stroke="black" stroke-width="0.5"/>
<path d="M22.5615 84.0151V79.5151H40.0615L40.5615 84.0151H22.5615Z" stroke="black" stroke-width="0.5"/>
<path d="M3.06348 65.5151C4.56348 68.0151 6.56348 71.1818 6.06348 73.0151M22.5635 79.5151C12.0635 80.0151 7.56348 76.0151 8.56348 72.5151C9.06348 72.0151 10.5635 70.5151 11.5635 70.5151" stroke="black" stroke-width="0.5"/>
<path d="M6.56348 65.5152C8.81342 65.0152 11.6883 64.3902 14.4383 64.0152M14.4383 64.0152C17.1883 63.6402 19.8134 63.5152 21.5635 64.0152C24.5635 65.5152 30.0635 70.5151 32.5635 74.5151C27.5635 75.5151 20.5635 75.0151 16.0635 75.0151C13.3709 75.0151 12.0635 72.6818 12.0635 71.5151C11.5635 68.5151 12.8133 65.3485 14.4383 64.0152Z" stroke="black" stroke-width="0.5"/>
<path d="M12.0635 71.0152C20.0635 69.5153 23.5635 72.1437 26.5635 73.6437M13.5635 74.0153L31.0635 73.5153" stroke="black" stroke-width="0.5"/>
<path d="M22.5615 82.5151H32.0615C34.0615 82.5151 35.5615 80.5151 35.0615 79.5151M38.5615 79.5151V84.0151" stroke="black" stroke-width="0.5"/>
<path d="M22.5634 81.0154C18.0634 81.0154 13.5634 81.5154 2.06342 78.5154V76.5154L6.06342 74.5154V73.0154L2.06342 72.5154C1.5625 71.0151 0.562696 68.0151 2.56269 65.5151C2.06293 57.5151 2.56293 51.0151 4.56342 48.0149C37.0634 28.5153 59.0634 34.5153 85.0634 30.0153C163.063 -24.9848 245.063 12.0151 282.063 26.5153L295.563 28.5151L296.063 35.5151V38.5151C297.562 43.5151 298.897 48.0151 297.563 50.0151C300.063 51.0151 302.563 54.1818 302.563 56.0151L300.563 66.0151C301.015 76.863 298.607 77.0873 289.276 77.3998C288.285 77.433 286.216 77.4671 285.063 77.5151V79.0151L260.063 79.4462M22.5634 81.0154V84.0154H40.5618L40.0634 79.5154M22.5634 81.0154V79.5154H40.0634M40.0634 79.5154C37.0634 38.0154 90.5634 41.0154 87.0634 80.0154V82.5151H213.563C207.563 39.0151 262.063 39.0151 260.063 79.4462M259.562 79.4462H260.063" stroke="black"/>
</svg>
