<svg width="303" height="96" viewBox="0 0 303 96" fill="none" xmlns="http://www.w3.org/2000/svg">
<circle cx="62.8853" cy="74.2297" r="20.5" fill="#EFC7D3" stroke="black"/>
<circle cx="235.885" cy="74.2297" r="20.5" fill="#EFC7D3" stroke="black"/>
<path d="M132.884 12.7296L131.384 9.22959C171.384 1.2297 192.884 1.72974 231.884 13.2297L228.384 17.7297C208.384 9.72965 190.384 8.72964 174.384 8.22971C171.884 7.72971 167.884 7.72968 165.384 8.22959C155.384 8.22971 143.384 9.72971 132.884 12.7296Z" fill="#E0426F" stroke="black" stroke-width="0.5"/>
<path d="M131.384 9.22978L130.884 7.72978C166.884 -3.27026 199.384 0.72961 234.884 9.72978L231.884 13.2298C191.884 0.729736 165.884 2.22974 131.384 9.22978Z" fill="#E0426F" stroke="black" stroke-width="0.5"/>
<path d="M131.384 9.2296C182.884 -2.27042 211.384 7.72961 231.884 13.2296" stroke="black" stroke-width="0.5"/>
<path d="M170.885 30.2297L174.385 8.22974C207.885 9.22974 219.385 14.7297 223.885 16.2297L226.368 28.2297C199.378 28.2304 181.883 29.7298 170.885 30.2297Z" fill="#E0426F"/>
<path d="M226.885 30.7297L223.885 16.2297C219.385 14.7297 207.885 9.22974 174.385 8.22974L170.885 30.2297C181.885 29.7297 199.385 28.2297 226.385 28.2297" stroke="black" stroke-width="0.5"/>
<path d="M165.385 8.22974C132.385 9.22974 112.385 18.2297 93.3853 35.7297L95.8853 33.7297L159.885 30.7297L165.385 8.22974Z" fill="#E0426F" stroke="black" stroke-width="0.5"/>
<path d="M239.884 22.7297C236.217 20.0631 230.384 17.7297 223.884 16.2297L226.384 28.2297H232.884C235.884 26.7297 238.884 24.4985 239.884 22.7297Z" fill="#E0426F" stroke="black" stroke-width="0.5"/>
<path d="M96.8853 78.7297H163.885L198.385 77.2297H212.885L213.385 82.7297H199.385H98.3853H86.8853V78.7297H96.8853Z" fill="#E0426F"/>
<path d="M96.8853 78.7297H163.885L198.385 77.2297M96.8853 78.7297C96.8853 80.2297 97.3853 81.2297 98.3853 82.7297M96.8853 78.7297H86.8853V82.7297H98.3853M198.385 77.2297L199.385 82.7297M198.385 77.2297H212.885L213.385 82.7297H199.385M199.385 82.7297H98.3853" stroke="black" stroke-width="0.5"/>
<path d="M96.8844 78.7297C92.3852 74.2297 89.3853 52.2297 93.3844 35.7297L165.385 31.7297C161.385 36.7297 160.385 70.7297 163.885 78.7297H96.8844Z" fill="#E0426F" stroke="black" stroke-width="0.5"/>
<path d="M228.885 30.7297L165.385 31.7297C161.385 36.7297 160.385 70.7297 163.885 78.7297L198.385 77.2297C202.885 75.7297 209.385 70.2297 228.885 30.7297Z" fill="#E0426F" stroke="black" stroke-width="0.5"/>
<path d="M170.885 30.2298C166.385 30.7298 162.885 30.7298 159.885 30.7298L165.385 8.22981C168.385 7.72974 171.385 7.72974 174.385 8.22981L170.885 30.2298Z" fill="#E0426F" stroke="black" stroke-width="0.5"/>
<path d="M99.3853 32.2297C103.885 37.7297 110.885 34.2297 114.885 32.7297C115.885 17.2296 102.885 25.2296 99.3853 32.2297Z" fill="#E0426F" stroke="black" stroke-width="0.5"/>
<path d="M234.884 9.72974L231.884 13.2297C248.884 18.7297 259.384 21.7297 271.884 28.2297H273.384L281.384 26.7297C266.384 20.2297 258.884 17.7297 234.884 9.72974Z" fill="#EFC7D3" stroke="black" stroke-width="0.5"/>
<path d="M271.884 28.2297C261.384 22.7297 242.384 16.2297 231.884 13.2297L229.884 15.7297L244.884 23.2297C243.384 25.7297 239.384 27.7297 233.384 30.4297C245.384 29.7297 262.384 28.7297 271.884 28.2297Z" fill="#EFC7D3" stroke="black" stroke-width="0.5"/>
<path d="M277.385 34.5297L283.384 32.2297L272.884 28.2297L228.884 30.7297C221.384 45.7297 206.384 76.2297 198.384 77.2297H212.884C211.384 66.2297 220.884 42.7297 245.885 51.7297C256.385 46.2297 266.385 40.7297 277.385 34.5297Z" fill="#EFC7D3" stroke="black" stroke-width="0.5"/>
<path d="M278.384 34.2298C266.384 40.7298 256.384 46.2298 245.884 51.7298C250.384 54.7297 260.884 60.7297 259.884 79.7297L284.884 79.2297V77.7297C293.384 76.7297 301.884 80.2297 300.384 66.2297L302.384 56.2297C302.384 54.7297 299.884 50.7297 297.384 50.2297C298.884 47.7297 295.884 38.7297 295.884 38.7297V37.2297L291.884 34.2297L286.884 32.7297L283.384 32.2297L278.384 34.2298Z" fill="#EFC7D3" stroke="black" stroke-width="0.5"/>
<path d="M281.384 26.7297L272.884 28.2297L283.384 32.2297C292.884 33.2297 291.883 34.7297 295.878 37.1499L295.384 28.7297L281.384 26.7297Z" fill="#EFC7D3"/>
<path d="M295.884 37.2297L295.878 37.1499M295.878 37.1499L295.384 28.7297L281.384 26.7297L272.884 28.2297L283.384 32.2297C292.884 33.2297 291.883 34.7297 295.878 37.1499Z" stroke="black" stroke-width="0.5"/>
<path d="M294.385 36.7299C293.885 34.2298 282.885 34.0297 277.385 34.5297" stroke="black" stroke-width="0.5"/>
<path d="M300.385 66.7297L260.885 68.7297C260.385 63.7297 258.219 59.5631 256.385 57.7297L302.385 55.2297M300.885 52.7297C289.885 51.2297 278.885 46.4297 266.885 40.4297M228.885 30.7297L272.885 28.2297L281.385 26.7297" stroke="black" stroke-width="0.5"/>
<path d="M290.885 40.7297C290.885 38.7297 289.885 34.7297 286.385 32.7297C288.606 32.7297 291.983 33.7701 294.494 36.1397C294.958 37.6697 293.885 41.2297 290.843 42.7297C290.83 42.1395 290.885 41.454 290.885 40.7297Z" fill="#EFC7D3"/>
<path d="M272.885 43.2297C279.881 43.5795 285.898 43.6846 291.278 44.2297M297.885 45.2297C295.782 44.7791 293.589 44.4638 291.278 44.2297M295.885 37.7297C295.467 37.1446 294.998 36.6154 294.494 36.1397M291.278 44.2297C290.952 43.885 290.858 43.3619 290.843 42.7297M290.843 42.7297C290.83 42.1395 290.885 41.454 290.885 40.7297C290.885 38.7297 289.885 34.7297 286.385 32.7297C288.606 32.7297 291.983 33.7701 294.494 36.1397M290.843 42.7297C293.885 41.2297 294.958 37.6697 294.494 36.1397" stroke="black" stroke-width="0.5"/>
<path d="M290.885 40.7297C286.385 40.7297 284.385 36.7297 283.385 34.2297" stroke="black" stroke-width="0.5"/>
<path d="M132.884 12.8297C119.384 16.8297 107.384 22.7297 93.3838 35.7297C100.384 23.7297 115.884 14.2297 131.384 9.22974L132.884 12.8297Z" fill="#E0426F" stroke="black" stroke-width="0.5"/>
<path d="M131.384 9.22974C111.384 14.9038 93.3838 32.2297 85.3838 30.2297C98.3838 20.7297 114.384 12.2297 130.884 7.72974L131.384 9.22974Z" fill="#E0426F" stroke="black" stroke-width="0.5"/>
<path d="M10.3845 48.2296H4.38446C1.88379 52.2296 1.88379 62.2296 2.38446 65.7296C0.883789 66.7296 0.884387 71.2296 1.88446 72.7296L5.88446 73.2296V74.7296L1.88446 76.7296V78.7296C5.88446 79.7296 14.3845 81.7296 22.3845 81.2296V79.7296H39.8845C39.2178 71.2296 40.8845 60.7296 49.8845 53.7296C47.3845 49.7296 40.3845 45.2296 37.3845 44.7296C27.3845 43.7296 12.3845 46.2296 10.3845 48.2296Z" fill="#E0426F" stroke="black" stroke-width="0.5"/>
<path d="M93.3853 35.7297C75.5519 36.5631 43.8853 41.4297 33.3853 44.4297L37.3853 44.7297C42.3853 46.2297 47.8853 50.5631 49.8853 53.7297C62.8843 44.2297 88.3843 51.2297 86.8843 78.7297H96.8843C89.8843 67.7297 90.8843 45.7297 93.3853 35.7297Z" fill="#E0426F" stroke="black" stroke-width="0.5"/>
<path d="M10.3838 48.2298H4.38379C36.884 28.7297 58.884 34.7297 84.8838 30.2297L93.884 35.7297C76.884 36.7297 47.8838 40.2297 33.8838 44.4297C25.8838 44.2297 11.8838 46.2297 10.3838 48.2298Z" fill="#E0426F" stroke="black" stroke-width="0.5"/>
<path d="M37.3852 44.7298C29.8852 43.7297 12.8852 45.7297 10.3852 48.2298C9.58524 50.6298 12.7186 53.5631 14.3852 54.7297C23.8853 56.2297 37.3852 50.2297 37.3852 44.7298Z" fill="#E0426F" stroke="black" stroke-width="0.5"/>
<path d="M4.38448 48.2297C11.3845 49.2297 5.38448 59.7297 2.38448 64.7297C1.88441 57.7297 2.38428 52.2297 4.38448 48.2297Z" fill="#E0426F" stroke="black" stroke-width="0.5"/>
<path d="M22.3838 84.2297V79.7297H39.8838L40.3838 84.2297H22.3838Z" fill="#E0426F" stroke="black" stroke-width="0.5"/>
<path d="M2.88574 65.7295C4.38574 68.2295 6.38574 71.3962 5.88574 73.2295M22.3857 79.7295C11.8857 80.2295 7.38574 76.2295 8.38574 72.7295C8.88574 72.2295 10.3857 70.7295 11.3857 70.7295" stroke="black" stroke-width="0.5"/>
<path d="M32.3857 74.7296C29.8857 70.7296 24.3857 65.7297 21.3857 64.2297C19.6357 63.7297 17.0106 63.8547 14.2605 64.2297C12.6356 65.563 11.3857 68.7296 11.8857 71.7296C11.8857 72.8963 13.1932 75.2296 15.8857 75.2296C20.3857 75.2296 27.3857 75.7296 32.3857 74.7296Z" fill="#E0426F"/>
<path d="M6.38574 65.7297C8.63568 65.2297 11.5106 64.6047 14.2605 64.2297M14.2605 64.2297C17.0106 63.8547 19.6357 63.7297 21.3857 64.2297C24.3857 65.7297 29.8857 70.7296 32.3857 74.7296C27.3857 75.7296 20.3857 75.2296 15.8857 75.2296C13.1932 75.2296 11.8857 72.8963 11.8857 71.7296C11.3857 68.7296 12.6356 65.563 14.2605 64.2297Z" stroke="black" stroke-width="0.5"/>
<path d="M11.8857 71.2297C19.8857 69.7297 23.3857 72.3582 26.3857 73.8582M13.3857 74.2297L30.8857 73.7297" stroke="black" stroke-width="0.5"/>
<path d="M22.3838 82.7295H31.8838C33.8838 82.7295 35.3838 80.7295 34.8838 79.7295M38.3838 79.7295V84.2295" stroke="black" stroke-width="0.5"/>
<path d="M22.3852 81.23C17.8852 81.23 13.3852 81.73 1.8852 78.73V76.73L5.8852 74.73V73.23L1.8852 72.73C1.38428 71.2297 0.384473 68.2297 2.38447 65.7297C1.88471 57.7297 2.38471 51.2297 4.3852 48.2295C36.8852 28.7299 58.8852 34.7299 84.8852 30.2299C162.885 -24.7702 244.885 12.2297 281.885 26.7299L295.385 28.7297L295.885 35.7297V38.7297C297.384 43.7297 298.719 48.2297 297.385 50.2297C299.885 51.2297 302.385 54.3964 302.385 56.2297L300.385 66.2297C300.837 77.0776 298.429 77.3019 289.098 77.6144C288.106 77.6476 286.037 77.6817 284.885 77.7297V79.2297L259.885 79.6608M22.3852 81.23V84.23H40.3835L39.8852 79.73M22.3852 81.23V79.73H39.8852M39.8852 79.73C36.8852 38.23 90.3852 41.23 86.8852 80.23V82.7297H213.385C207.385 39.2297 261.885 39.2297 259.885 79.6608M259.384 79.6608H259.885" stroke="black"/>
</svg>
