<svg width="304" height="96" viewBox="0 0 304 96" fill="none" xmlns="http://www.w3.org/2000/svg">
<circle cx="63.0938" cy="74.1843" r="20.5" fill="#EDADBF" stroke="black"/>
<circle cx="236.094" cy="74.1843" r="20.5" fill="#EDADBF" stroke="black"/>
<path d="M133.092 12.6842L131.592 9.18418C171.592 1.18429 193.092 1.68433 232.092 13.1843L228.592 17.6843C208.592 9.68424 190.592 8.68423 174.592 8.1843C172.092 7.6843 168.092 7.68427 165.592 8.18418C155.592 8.1843 143.592 9.6843 133.092 12.6842Z" fill="#EFC7D3" stroke="black" stroke-width="0.5"/>
<path d="M131.592 9.18437L131.092 7.68437C167.092 -3.31567 199.592 0.6842 235.092 9.68437L232.092 13.1844C192.092 0.684326 166.092 2.18433 131.592 9.18437Z" fill="#EFC7D3" stroke="black" stroke-width="0.5"/>
<path d="M131.592 9.18431C183.092 -2.31571 211.592 7.68433 232.092 13.1843" stroke="black" stroke-width="0.5"/>
<path d="M171.094 30.1843L174.594 8.18433C208.094 9.18433 219.594 14.6843 224.094 16.1843L226.577 28.1843C199.586 28.185 182.091 29.6844 171.094 30.1843Z" fill="#EFC7D3"/>
<path d="M227.094 30.6843L224.094 16.1843C219.594 14.6843 208.094 9.18433 174.594 8.18433L171.094 30.1843C182.094 29.6843 199.594 28.1843 226.594 28.1843" stroke="black" stroke-width="0.5"/>
<path d="M165.594 8.18433C132.594 9.18433 112.594 18.1843 93.5938 35.6843L96.0938 33.6843L160.094 30.6843L165.594 8.18433Z" fill="#EFC7D3" stroke="black" stroke-width="0.5"/>
<path d="M240.092 22.6843C236.425 20.0177 230.592 17.6843 224.092 16.1843L226.592 28.1843H233.092C236.092 26.6843 239.092 24.4531 240.092 22.6843Z" fill="#EFC7D3" stroke="black" stroke-width="0.5"/>
<path d="M97.0938 78.6843H164.094L198.594 77.1843H213.094L213.594 82.6843H199.594H98.5938H87.0938V78.6843H97.0938Z" fill="#EFC7D3"/>
<path d="M97.0938 78.6843H164.094L198.594 77.1843M97.0938 78.6843C97.0938 80.1843 97.5938 81.1843 98.5938 82.6843M97.0938 78.6843H87.0938V82.6843H98.5938M198.594 77.1843L199.594 82.6843M198.594 77.1843H213.094L213.594 82.6843H199.594M199.594 82.6843H98.5938" stroke="black" stroke-width="0.5"/>
<path d="M97.0929 78.6843C92.5937 74.1843 89.5938 52.1843 93.5929 35.6843L165.594 31.6843C161.594 36.6843 160.594 70.6843 164.094 78.6843H97.0929Z" fill="#EFC7D3" stroke="black" stroke-width="0.5"/>
<path d="M229.094 30.6843L165.594 31.6843C161.594 36.6843 160.594 70.6843 164.094 78.6843L198.594 77.1843C203.094 75.6843 209.594 70.1843 229.094 30.6843Z" fill="#EFC7D3" stroke="black" stroke-width="0.5"/>
<path d="M171.094 30.1844C166.594 30.6844 163.094 30.6844 160.094 30.6844L165.594 8.1844C168.594 7.68433 171.594 7.68433 174.594 8.1844L171.094 30.1844Z" fill="#EFC7D3" stroke="black" stroke-width="0.5"/>
<path d="M99.5938 32.1845C104.094 37.6845 111.094 34.1845 115.094 32.6845C116.094 17.1843 103.094 25.1843 99.5938 32.1845Z" fill="#EFC7D3" stroke="black" stroke-width="0.5"/>
<path d="M235.092 9.68433L232.092 13.1843C249.092 18.6843 259.592 21.6843 272.092 28.1843H273.592L281.592 26.6843C266.592 20.1843 259.092 17.6843 235.092 9.68433Z" stroke="black" stroke-width="0.5"/>
<path d="M272.092 28.1843C261.592 22.6843 242.592 16.1843 232.092 13.1843L230.092 15.6843L245.092 23.1843C243.592 25.6843 239.592 27.6843 233.592 30.3843C245.592 29.6843 262.592 28.6843 272.092 28.1843Z" stroke="black" stroke-width="0.5"/>
<path d="M277.594 34.4843L283.592 32.1843L273.093 28.1843L229.093 30.6843C221.593 45.6843 206.593 76.1843 198.593 77.1843H213.093C211.593 66.1843 221.093 42.6843 246.094 51.6843C256.594 46.1843 266.594 40.6843 277.594 34.4843Z" stroke="black" stroke-width="0.5"/>
<path d="M278.592 34.1844C266.592 40.6844 256.592 46.1844 246.092 51.6844C250.592 54.6843 261.092 60.6843 260.092 79.6843L285.092 79.1843V77.6843C293.592 76.6843 302.092 80.1843 300.592 66.1843L302.592 56.1843C302.592 54.6843 300.092 50.6843 297.592 50.1843C299.092 47.6843 296.092 38.6843 296.092 38.6843V37.1843L292.092 34.1843L287.092 32.6843L283.592 32.1843L278.592 34.1844Z" stroke="black" stroke-width="0.5"/>
<path d="M296.092 37.1843L296.086 37.1045M296.086 37.1045L295.592 28.6843L281.592 26.6843L273.092 28.1843L283.592 32.1843C293.092 33.1843 292.091 34.6843 296.086 37.1045Z" stroke="black" stroke-width="0.5"/>
<path d="M294.594 36.6845C294.094 34.1844 283.094 33.9843 277.594 34.4843" stroke="black" stroke-width="0.5"/>
<path d="M300.594 66.6843L261.094 68.6843C260.594 63.6843 258.427 59.5177 256.594 57.6843L302.594 55.1843M301.094 52.6843C290.094 51.1843 279.094 46.3843 267.094 40.3843M229.094 30.6843L273.094 28.1843L281.594 26.6843" stroke="black" stroke-width="0.5"/>
<path d="M273.094 43.1843C280.089 43.5341 286.106 43.6392 291.487 44.1843M298.094 45.1843C295.991 44.7337 293.798 44.4184 291.487 44.1843M296.094 37.6843C295.676 37.0992 295.207 36.57 294.703 36.0943M291.487 44.1843C291.161 43.8396 291.067 43.3165 291.052 42.6843M291.052 42.6843C291.038 42.094 291.094 41.4086 291.094 40.6843C291.094 38.6843 290.094 34.6843 286.594 32.6843C288.815 32.6843 292.191 33.7247 294.703 36.0943M291.052 42.6843C294.094 41.1843 295.166 37.6243 294.703 36.0943" stroke="black" stroke-width="0.5"/>
<path d="M291.094 40.6843C286.594 40.6843 284.594 36.6843 283.594 34.1843" stroke="black" stroke-width="0.5"/>
<path d="M133.092 12.7843C119.592 16.7843 107.592 22.6843 93.5923 35.6843C100.592 23.6843 116.092 14.1843 131.592 9.18433L133.092 12.7843Z" fill="#EFC7D3" stroke="black" stroke-width="0.5"/>
<path d="M131.592 9.18433C111.592 14.8584 93.5923 32.1843 85.5923 30.1843C98.5923 20.6843 114.592 12.1843 131.092 7.68433L131.592 9.18433Z" fill="#EFC7D3" stroke="black" stroke-width="0.5"/>
<path d="M10.593 48.1843H4.59295C2.09229 52.1843 2.09229 62.1843 2.59295 65.6843C1.09229 66.6843 1.09288 71.1843 2.09295 72.6843L6.09295 73.1843V74.6843L2.09295 76.6843V78.6843C6.09295 79.6843 14.593 81.6843 22.593 81.1843V79.6843H40.0929C39.4263 71.1843 41.0929 60.6843 50.0929 53.6843C47.5929 49.6843 40.5929 45.1843 37.5929 44.6843C27.5929 43.6843 12.593 46.1843 10.593 48.1843Z" fill="#EFC7D3" stroke="black" stroke-width="0.5"/>
<path d="M93.5938 35.6843C75.7604 36.5177 44.0938 41.3843 33.5938 44.3843L37.5938 44.6843C42.5938 46.1843 48.0938 50.5177 50.0938 53.6843C63.0928 44.1843 88.5928 51.1843 87.0928 78.6843H97.0928C90.0928 67.6843 91.0928 45.6843 93.5938 35.6843Z" fill="#EFC7D3" stroke="black" stroke-width="0.5"/>
<path d="M10.5918 48.1844H4.5918C37.092 28.6843 59.092 34.6843 85.0918 30.1843L94.092 35.6843C77.092 36.6843 48.0918 40.1843 34.0918 44.3843C26.0918 44.1843 12.0918 46.1843 10.5918 48.1844Z" fill="#EFC7D3" stroke="black" stroke-width="0.5"/>
<path d="M37.5937 44.6844C30.0937 43.6843 13.0937 45.6843 10.5937 48.1844C9.79374 50.5843 12.9271 53.5177 14.5937 54.6843C24.0938 56.1843 37.5937 50.1843 37.5937 44.6844Z" fill="#EFC7D3" stroke="black" stroke-width="0.5"/>
<path d="M4.59298 48.1843C11.593 49.1843 5.59298 59.6843 2.59298 64.6843C2.09291 57.6843 2.59277 52.1843 4.59298 48.1843Z" fill="#EFC7D3" stroke="black" stroke-width="0.5"/>
<path d="M22.5923 84.1843V79.6843H40.0923L40.5923 84.1843H22.5923Z" fill="#EFC7D3" stroke="black" stroke-width="0.5"/>
<path d="M3.09375 65.6843C4.59375 68.1843 6.59375 71.351 6.09375 73.1843M22.5938 79.6843C12.0938 80.1843 7.59375 76.1843 8.59375 72.6843C9.09375 72.1843 10.5938 70.6843 11.5938 70.6843" stroke="black" stroke-width="0.5"/>
<path d="M32.5938 74.6843C30.0938 70.6843 24.5938 65.6844 21.5938 64.1844C19.8437 63.6844 17.2186 63.8094 14.4685 64.1844C12.8436 65.5177 11.5938 68.6843 12.0938 71.6843C12.0938 72.851 13.4012 75.1843 16.0938 75.1843C20.5938 75.1843 27.5938 75.6843 32.5938 74.6843Z" fill="#EFC7D3"/>
<path d="M6.59375 65.6844C8.84369 65.1844 11.7186 64.5594 14.4685 64.1844M14.4685 64.1844C17.2186 63.8094 19.8437 63.6844 21.5938 64.1844C24.5938 65.6844 30.0938 70.6843 32.5938 74.6843C27.5938 75.6843 20.5938 75.1843 16.0938 75.1843C13.4012 75.1843 12.0938 72.851 12.0938 71.6843C11.5938 68.6843 12.8436 65.5177 14.4685 64.1844Z" stroke="black" stroke-width="0.5"/>
<path d="M12.0938 71.1844C20.0938 69.6844 23.5938 72.3129 26.5938 73.8129M13.5938 74.1844L31.0938 73.6844" stroke="black" stroke-width="0.5"/>
<path d="M22.5918 82.6843H32.0918C34.0918 82.6843 35.5918 80.6843 35.0918 79.6843M38.5918 79.6843V84.1843" stroke="black" stroke-width="0.5"/>
<path d="M22.5937 81.1846C18.0937 81.1846 13.5937 81.6846 2.0937 78.6846V76.6846L6.0937 74.6846V73.1846L2.0937 72.6846C1.59277 71.1843 0.592969 68.1843 2.59296 65.6843C2.09321 57.6843 2.59321 51.1843 4.5937 48.1841C37.0937 28.6845 59.0937 34.6845 85.0937 30.1845C163.094 -24.8156 245.094 12.1843 282.094 26.6845L295.594 28.6843L296.094 35.6843V38.6843C297.592 43.6843 298.927 48.1843 297.594 50.1843C300.094 51.1843 302.594 54.351 302.594 56.1843L300.594 66.1843C301.046 77.0322 298.638 77.2565 289.306 77.569C288.315 77.6021 286.246 77.6363 285.094 77.6843V79.1843L260.094 79.6154M22.5937 81.1846V84.1846H40.592L40.0937 79.6846M22.5937 81.1846V79.6846H40.0937M40.0937 79.6846C37.0937 38.1846 90.5937 41.1846 87.0937 80.1846V82.6843H213.594C207.594 39.1843 262.094 39.1843 260.094 79.6154M259.592 79.6154H260.094" stroke="black"/>
</svg>
