<svg width="303" height="96" viewBox="0 0 303 96" fill="none" xmlns="http://www.w3.org/2000/svg">
<circle cx="62.6772" cy="74.5076" r="20.5" stroke="black"/>
<circle cx="235.678" cy="74.5076" r="20.5" stroke="black"/>
<path d="M132.676 13.0074L131.176 9.50742C171.176 1.50754 192.676 2.00757 231.676 13.5075L228.176 18.0075C208.176 10.0075 190.176 9.00748 174.176 8.50755C171.676 8.00755 167.676 8.00751 165.176 8.50742C155.176 8.50755 143.176 10.0075 132.676 13.0074Z" stroke="black" stroke-width="0.5"/>
<path d="M131.176 9.50761L130.676 8.00761C166.676 -2.99243 199.176 1.00744 234.676 10.0076L231.676 13.5076C191.676 1.00757 165.676 2.50757 131.176 9.50761Z" stroke="black" stroke-width="0.5"/>
<path d="M131.176 9.50756C182.676 -1.99247 211.176 8.00757 231.676 13.5076" stroke="black" stroke-width="0.5"/>
<path d="M226.677 31.0076L223.677 16.5076C219.177 15.0076 207.677 9.50757 174.177 8.50757L170.677 30.5076C181.677 30.0076 199.177 28.5076 226.177 28.5076" stroke="black" stroke-width="0.5"/>
<path d="M165.177 8.50757C132.177 9.50757 112.177 18.5076 93.1772 36.0076L95.6772 34.0076L159.677 31.0076L165.177 8.50757Z" stroke="black" stroke-width="0.5"/>
<path d="M239.676 23.0076C236.009 20.3409 230.176 18.0076 223.676 16.5076L226.176 28.5076H232.676C235.676 27.0076 238.676 24.7763 239.676 23.0076Z" stroke="black" stroke-width="0.5"/>
<path d="M96.6772 79.0076H163.677L198.177 77.5076M96.6772 79.0076C96.6772 80.5076 97.1772 81.5076 98.1772 83.0076M96.6772 79.0076H86.6772V83.0076H98.1772M198.177 77.5076L199.177 83.0076M198.177 77.5076H212.677L213.177 83.0076H199.177M199.177 83.0076H98.1772" stroke="black" stroke-width="0.5"/>
<path d="M96.6764 79.0076C92.1772 74.5076 89.1773 52.5076 93.1764 36.0076L165.177 32.0076C161.177 37.0076 160.177 71.0076 163.677 79.0076H96.6764Z" stroke="black" stroke-width="0.5"/>
<path d="M228.677 31.0076L165.177 32.0076C161.177 37.0076 160.177 71.0076 163.677 79.0076L198.177 77.5076C202.677 76.0076 209.177 70.5076 228.677 31.0076Z" stroke="black" stroke-width="0.5"/>
<path d="M170.677 30.5076C166.177 31.0076 162.677 31.0076 159.677 31.0076L165.177 8.50764C168.177 8.00757 171.177 8.00757 174.177 8.50764L170.677 30.5076Z" stroke="black" stroke-width="0.5"/>
<path d="M99.1772 32.5077C103.677 38.0077 110.677 34.5077 114.677 33.0077C115.677 17.5076 102.677 25.5076 99.1772 32.5077Z" stroke="black" stroke-width="0.5"/>
<path d="M234.676 10.0076L231.676 13.5076C248.676 19.0076 259.176 22.0076 271.676 28.5076H273.176L281.176 27.0076C266.176 20.5076 258.676 18.0076 234.676 10.0076Z" fill="#EDADBF" stroke="black" stroke-width="0.5"/>
<path d="M271.676 28.5076C261.176 23.0076 242.176 16.5076 231.676 13.5076L229.676 16.0076L244.676 23.5076C243.176 26.0076 239.176 28.0076 233.176 30.7076C245.176 30.0076 262.176 29.0076 271.676 28.5076Z" fill="#EDADBF" stroke="black" stroke-width="0.5"/>
<path d="M277.178 34.8076L283.176 32.5076L272.677 28.5076L228.677 31.0076C221.177 46.0076 206.177 76.5076 198.177 77.5076H212.677C211.177 66.5076 220.677 43.0076 245.678 52.0076C256.178 46.5076 266.178 41.0076 277.178 34.8076Z" fill="#EDADBF" stroke="black" stroke-width="0.5"/>
<path d="M278.176 34.5076C266.176 41.0076 256.176 46.5076 245.676 52.0076C250.176 55.0076 260.676 61.0076 259.676 80.0076L284.676 79.5076V78.0076C293.176 77.0076 301.676 80.5076 300.176 66.5076L302.176 56.5076C302.176 55.0076 299.676 51.0076 297.176 50.5076C298.676 48.0076 295.676 39.0076 295.676 39.0076V37.5076L291.676 34.5076L286.676 33.0076L283.176 32.5076L278.176 34.5076Z" fill="#EDADBF" stroke="black" stroke-width="0.5"/>
<path d="M281.176 27.0076L272.676 28.5076L283.176 32.5076C292.676 33.5076 291.675 35.0076 295.67 37.4277L295.176 29.0076L281.176 27.0076Z" fill="#EDADBF"/>
<path d="M295.676 37.5076L295.67 37.4277M295.67 37.4277L295.176 29.0076L281.176 27.0076L272.676 28.5076L283.176 32.5076C292.676 33.5076 291.675 35.0076 295.67 37.4277Z" stroke="black" stroke-width="0.5"/>
<path d="M294.178 37.0078C293.678 34.5077 282.678 34.3076 277.178 34.8076" stroke="black" stroke-width="0.5"/>
<path d="M300.178 67.0076L260.678 69.0076C260.178 64.0076 258.011 59.8409 256.178 58.0076L302.178 55.5076M300.678 53.0076C289.678 51.5076 278.678 46.7076 266.678 40.7076M228.678 31.0076L272.678 28.5076L281.178 27.0076" stroke="black" stroke-width="0.5"/>
<path d="M290.678 41.0076C290.678 39.0076 289.678 35.0076 286.178 33.0076C288.399 33.0076 291.775 34.048 294.287 36.4176C294.75 37.9476 293.678 41.5076 290.636 43.0076C290.622 42.4173 290.678 41.7319 290.678 41.0076Z" fill="#EDADBF"/>
<path d="M272.678 43.5076C279.673 43.8574 285.69 43.9624 291.071 44.5076M297.678 45.5076C295.575 45.0569 293.381 44.7417 291.071 44.5076M295.678 38.0076C295.26 37.4224 294.791 36.8932 294.287 36.4176M291.071 44.5076C290.745 44.1628 290.651 43.6398 290.636 43.0076M290.636 43.0076C290.622 42.4173 290.678 41.7319 290.678 41.0076C290.678 39.0076 289.678 35.0076 286.178 33.0076C288.399 33.0076 291.775 34.048 294.287 36.4176M290.636 43.0076C293.678 41.5076 294.75 37.9476 294.287 36.4176" stroke="black" stroke-width="0.5"/>
<path d="M290.678 41.0076C286.178 41.0076 284.178 37.0076 283.178 34.5076" stroke="black" stroke-width="0.5"/>
<path d="M132.676 13.1075C119.176 17.1075 107.176 23.0076 93.1758 36.0076C100.176 24.0076 115.676 14.5076 131.176 9.50757L132.676 13.1075Z" fill="#EDADBF" stroke="black" stroke-width="0.5"/>
<path d="M131.176 9.50757C111.176 15.1816 93.1758 32.5076 85.1758 30.5076C98.1758 21.0076 114.176 12.5076 130.676 8.00757L131.176 9.50757Z" fill="#EDADBF" stroke="black" stroke-width="0.5"/>
<path d="M10.1764 48.5076H4.17645C1.67578 52.5076 1.67578 62.5076 2.17645 66.0076C0.675781 67.0076 0.676379 71.5076 1.67645 73.0076L5.67645 73.5076V75.0076L1.67645 77.0076V79.0076C5.67645 80.0076 14.1764 82.0076 22.1764 81.5076V80.0076H39.6764C39.0098 71.5076 40.6764 61.0076 49.6764 54.0076C47.1764 50.0076 40.1764 45.5076 37.1764 45.0076C27.1764 44.0076 12.1764 46.5076 10.1764 48.5076Z" fill="#EDADBF" stroke="black" stroke-width="0.5"/>
<path d="M93.1772 36.0076C75.3439 36.8409 43.6772 41.7076 33.1772 44.7076L37.1772 45.0076C42.1772 46.5076 47.6772 50.8409 49.6772 54.0076C62.6763 44.5076 88.1763 51.5076 86.6763 79.0076H96.6763C89.6763 68.0076 90.6763 46.0076 93.1772 36.0076Z" fill="#EDADBF" stroke="black" stroke-width="0.5"/>
<path d="M10.1758 48.5076H4.17578C36.676 29.0075 58.676 35.0076 84.6758 30.5076L93.676 36.0076C76.676 37.0076 47.6758 40.5076 33.6758 44.7076C25.6758 44.5076 11.6758 46.5076 10.1758 48.5076Z" fill="#EDADBF" stroke="black" stroke-width="0.5"/>
<path d="M37.1772 45.0076C29.6772 44.0076 12.6772 46.0076 10.1772 48.5076C9.37724 50.9076 12.5106 53.8409 14.1772 55.0076C23.6772 56.5076 37.1772 50.5076 37.1772 45.0076Z" fill="#EDADBF" stroke="black" stroke-width="0.5"/>
<path d="M4.17648 48.5076C11.1765 49.5076 5.17648 60.0076 2.17648 65.0076C1.67641 58.0076 2.17627 52.5076 4.17648 48.5076Z" fill="#EDADBF" stroke="black" stroke-width="0.5"/>
<path d="M22.1758 84.5076V80.0076H39.6758L40.1758 84.5076H22.1758Z" fill="#EDADBF" stroke="black" stroke-width="0.5"/>
<path d="M2.67773 66.0076C4.17773 68.5076 6.17773 71.6742 5.67773 73.5076M22.1777 80.0076C11.6777 80.5076 7.17773 76.5076 8.17773 73.0076C8.67773 72.5076 10.1777 71.0076 11.1777 71.0076" stroke="black" stroke-width="0.5"/>
<path d="M32.1777 75.0076C29.6777 71.0076 24.1777 66.0076 21.1777 64.5076C19.4277 64.0076 16.8026 64.1326 14.0525 64.5076C12.4276 65.841 11.1777 69.0076 11.6777 72.0076C11.6777 73.1742 12.9852 75.5076 15.6777 75.5076C20.1777 75.5076 27.1777 76.0076 32.1777 75.0076Z" fill="#EDADBF"/>
<path d="M6.17773 66.0076C8.42768 65.5076 11.3026 64.8826 14.0525 64.5076M14.0525 64.5076C16.8026 64.1326 19.4277 64.0076 21.1777 64.5076C24.1777 66.0076 29.6777 71.0076 32.1777 75.0076C27.1777 76.0076 20.1777 75.5076 15.6777 75.5076C12.9852 75.5076 11.6777 73.1742 11.6777 72.0076C11.1777 69.0076 12.4276 65.841 14.0525 64.5076Z" stroke="black" stroke-width="0.5"/>
<path d="M11.6777 71.5076C19.6777 70.0077 23.1777 72.6362 26.1777 74.1362M13.1777 74.5077L30.6777 74.0077" stroke="black" stroke-width="0.5"/>
<path d="M22.1758 83.0076H31.6758C33.6758 83.0076 35.1758 81.0076 34.6758 80.0076M38.1758 80.0076V84.5076" stroke="black" stroke-width="0.5"/>
<path d="M22.1772 81.5078C17.6772 81.5078 13.1772 82.0078 1.67719 79.0078V77.0078L5.67719 75.0078V73.5078L1.67719 73.0078C1.17627 71.5076 0.176465 68.5076 2.17646 66.0076C1.6767 58.0076 2.1767 51.5076 4.17719 48.5073C36.6772 29.0077 58.6772 35.0078 84.6772 30.5078C162.677 -24.4924 244.677 12.5076 281.677 27.0077L295.177 29.0076L295.677 36.0076V39.0076C297.176 44.0076 298.511 48.5076 297.177 50.5076C299.677 51.5076 302.177 54.6742 302.177 56.5076L300.177 66.5076C300.629 77.3555 298.221 77.5798 288.889 77.8922C287.898 77.9254 285.829 77.9596 284.677 78.0076V79.5076L259.677 79.9386M22.1772 81.5078V84.5078H40.1755L39.6772 80.0078M22.1772 81.5078V80.0078H39.6772M39.6772 80.0078C36.6772 38.5078 90.1772 41.5078 86.6772 80.5078V83.0076H213.177C207.177 39.5076 261.677 39.5076 259.677 79.9386M259.176 79.9386H259.677" stroke="black"/>
</svg>
