<svg width="303" height="96" viewBox="0 0 303 96" fill="none" xmlns="http://www.w3.org/2000/svg">
<circle cx="62.2915" cy="74.3687" r="20.5" fill="#E56E90" stroke="black"/>
<circle cx="235.292" cy="74.3687" r="20.5" fill="#E56E90" stroke="black"/>
<path d="M132.29 12.8685L130.79 9.36851C170.79 1.36862 192.29 1.86865 231.29 13.3686L227.79 17.8686C207.79 9.86856 189.79 8.86856 173.79 8.36863C171.29 7.86863 167.29 7.86859 164.79 8.36851C154.79 8.36863 142.79 9.86863 132.29 12.8685Z" fill="#EDADBF" stroke="black" stroke-width="0.5"/>
<path d="M130.79 9.3687L130.29 7.8687C166.29 -3.13135 198.79 0.868526 234.29 9.8687L231.29 13.3687C191.29 0.868652 165.29 2.36865 130.79 9.3687Z" fill="#EDADBF" stroke="black" stroke-width="0.5"/>
<path d="M130.79 9.36876C182.29 -2.13126 210.79 7.86877 231.29 13.3688" stroke="black" stroke-width="0.5"/>
<path d="M170.292 30.3687L173.792 8.36865C207.292 9.36865 218.792 14.8687 223.292 16.3687L225.774 28.3687C198.784 28.3693 181.289 29.8688 170.292 30.3687Z" fill="#EDADBF"/>
<path d="M226.292 30.8687L223.292 16.3687C218.792 14.8687 207.292 9.36865 173.792 8.36865L170.292 30.3687C181.292 29.8687 198.792 28.3687 225.792 28.3687" stroke="black" stroke-width="0.5"/>
<path d="M164.792 8.36865C131.792 9.36865 111.792 18.3687 92.7915 35.8687L95.2915 33.8687L159.292 30.8687L164.792 8.36865Z" fill="#EDADBF" stroke="black" stroke-width="0.5"/>
<path d="M239.29 22.8687C235.623 20.202 229.79 17.8687 223.29 16.3687L225.79 28.3687H232.29C235.29 26.8687 238.29 24.6374 239.29 22.8687Z" fill="#EDADBF" stroke="black" stroke-width="0.5"/>
<path d="M96.2915 78.8687H163.292L197.792 77.3687H212.292L212.792 82.8687H198.792H97.7915H86.2915V78.8687H96.2915Z" fill="#EDADBF"/>
<path d="M96.2915 78.8687H163.292L197.792 77.3687M96.2915 78.8687C96.2915 80.3687 96.7915 81.3687 97.7915 82.8687M96.2915 78.8687H86.2915V82.8687H97.7915M197.792 77.3687L198.792 82.8687M197.792 77.3687H212.292L212.792 82.8687H198.792M198.792 82.8687H97.7915" stroke="black" stroke-width="0.5"/>
<path d="M96.2906 78.8687C91.7915 74.3687 88.7915 52.3687 92.7906 35.8687L164.792 31.8687C160.792 36.8687 159.792 70.8687 163.291 78.8687H96.2906Z" fill="#EDADBF" stroke="black" stroke-width="0.5"/>
<path d="M228.291 30.8687L164.791 31.8687C160.791 36.8687 159.791 70.8687 163.291 78.8687L197.791 77.3687C202.291 75.8687 208.791 70.3687 228.291 30.8687Z" fill="#EDADBF" stroke="black" stroke-width="0.5"/>
<path d="M170.292 30.3687C165.792 30.8687 162.292 30.8687 159.292 30.8687L164.792 8.36873C167.792 7.86865 170.792 7.86865 173.792 8.36873L170.292 30.3687Z" fill="#EDADBF" stroke="black" stroke-width="0.5"/>
<path d="M98.7915 32.3689C103.292 37.8689 110.292 34.3689 114.292 32.8689C115.292 17.3688 102.292 25.3688 98.7915 32.3689Z" fill="#EDADBF" stroke="black" stroke-width="0.5"/>
<path d="M234.29 9.86865L231.29 13.3687C248.29 18.8687 258.79 21.8687 271.29 28.3687H272.79L280.79 26.8687C265.79 20.3687 258.29 17.8687 234.29 9.86865Z" stroke="black" stroke-width="0.5"/>
<path d="M271.29 28.3687C260.79 22.8687 241.79 16.3687 231.29 13.3687L229.29 15.8687L244.29 23.3687C242.79 25.8687 238.79 27.8687 232.79 30.5687C244.79 29.8687 261.79 28.8687 271.29 28.3687Z" stroke="black" stroke-width="0.5"/>
<path d="M276.792 34.6687L282.79 32.3687L272.291 28.3687L228.291 30.8687C220.791 45.8687 205.791 76.3687 197.791 77.3687H212.291C210.791 66.3687 220.291 42.8687 245.292 51.8687C255.792 46.3687 265.792 40.8687 276.792 34.6687Z" stroke="black" stroke-width="0.5"/>
<path d="M277.79 34.3687C265.79 40.8687 255.79 46.3687 245.29 51.8687C249.79 54.8687 260.29 60.8687 259.29 79.8687L284.29 79.3687V77.8687C292.79 76.8687 301.29 80.3687 299.79 66.3687L301.79 56.3687C301.79 54.8687 299.29 50.8687 296.79 50.3687C298.29 47.8687 295.29 38.8687 295.29 38.8687V37.3687L291.29 34.3687L286.29 32.8687L282.79 32.3687L277.79 34.3687Z" stroke="black" stroke-width="0.5"/>
<path d="M295.29 37.3687L295.284 37.2888M295.284 37.2888L294.79 28.8687L280.79 26.8687L272.29 28.3687L282.79 32.3687C292.29 33.3687 291.289 34.8687 295.284 37.2888Z" stroke="black" stroke-width="0.5"/>
<path d="M293.792 36.8689C293.292 34.3687 282.292 34.1687 276.792 34.6687" stroke="black" stroke-width="0.5"/>
<path d="M299.792 66.8687L260.292 68.8687C259.792 63.8687 257.625 59.702 255.792 57.8687L301.792 55.3687M300.292 52.8687C289.292 51.3687 278.292 46.5687 266.292 40.5687M228.292 30.8687L272.292 28.3687L280.792 26.8687" stroke="black" stroke-width="0.5"/>
<path d="M272.292 43.3687C279.287 43.7184 285.304 43.8235 290.685 44.3687M297.292 45.3687C295.189 44.918 292.995 44.6028 290.685 44.3687M295.292 37.8687C294.874 37.2835 294.404 36.7543 293.9 36.2786M290.685 44.3687C290.358 44.0239 290.264 43.5008 290.25 42.8687M290.25 42.8687C290.236 42.2784 290.292 41.5929 290.292 40.8687C290.292 38.8687 289.292 34.8687 285.792 32.8687C288.012 32.8687 291.389 33.909 293.9 36.2786M290.25 42.8687C293.292 41.3687 294.364 37.8086 293.9 36.2786" stroke="black" stroke-width="0.5"/>
<path d="M290.292 40.8687C285.792 40.8687 283.792 36.8687 282.792 34.3687" stroke="black" stroke-width="0.5"/>
<path d="M132.29 12.9686C118.79 16.9686 106.79 22.8687 92.79 35.8687C99.79 23.8687 115.29 14.3687 130.79 9.36865L132.29 12.9686Z" fill="#E56E90" stroke="black" stroke-width="0.5"/>
<path d="M130.79 9.36865C110.79 15.0427 92.79 32.3687 84.79 30.3687C97.79 20.8687 113.79 12.3687 130.29 7.86865L130.79 9.36865Z" fill="#E56E90" stroke="black" stroke-width="0.5"/>
<path d="M9.79071 48.3685H3.79071C1.29004 52.3685 1.29004 62.3685 1.79071 65.8685C0.290039 66.8685 0.290637 71.3685 1.29071 72.8685L5.29071 73.3685V74.8685L1.29071 76.8685V78.8685C5.29071 79.8685 13.7907 81.8685 21.7907 81.3685V79.8685H39.2907C38.624 71.3685 40.2907 60.8685 49.2907 53.8685C46.7907 49.8685 39.7907 45.3685 36.7907 44.8685C26.7907 43.8685 11.7907 46.3685 9.79071 48.3685Z" fill="#E56E90" stroke="black" stroke-width="0.5"/>
<path d="M92.7915 35.8687C74.9582 36.702 43.2915 41.5687 32.7915 44.5687L36.7915 44.8687C41.7915 46.3687 47.2915 50.702 49.2915 53.8687C62.2905 44.3687 87.7905 51.3687 86.2905 78.8687H96.2905C89.2905 67.8687 90.2905 45.8687 92.7915 35.8687Z" fill="#E56E90" stroke="black" stroke-width="0.5"/>
<path d="M9.79004 48.3687H3.79004C36.2902 28.8686 58.2903 34.8687 84.29 30.3687L93.2903 35.8687C76.2903 36.8687 47.29 40.3686 33.29 44.5687C25.29 44.3686 11.29 46.3686 9.79004 48.3687Z" fill="#E56E90" stroke="black" stroke-width="0.5"/>
<path d="M36.7915 44.8687C29.2915 43.8687 12.2915 45.8687 9.79149 48.3687C8.99149 50.7687 12.1248 53.702 13.7915 54.8687C23.2915 56.3687 36.7915 50.3687 36.7915 44.8687Z" fill="#E56E90" stroke="black" stroke-width="0.5"/>
<path d="M3.79073 48.3687C10.7907 49.3687 4.79073 59.8687 1.79073 64.8687C1.29066 57.8687 1.79053 52.3687 3.79073 48.3687Z" fill="#E56E90" stroke="black" stroke-width="0.5"/>
<path d="M21.79 84.3687V79.8687H39.29L39.79 84.3687H21.79Z" fill="#E56E90" stroke="black" stroke-width="0.5"/>
<path d="M2.29199 65.8687C3.79199 68.3687 5.79199 71.5353 5.29199 73.3687M21.792 79.8687C11.292 80.3687 6.79199 76.3687 7.79199 72.8687C8.29199 72.3687 9.79199 70.8687 10.792 70.8687" stroke="black" stroke-width="0.5"/>
<path d="M31.792 74.8688C29.292 70.8688 23.792 65.8689 20.792 64.3689C19.0419 63.8688 16.4169 63.9938 13.6668 64.3689C12.0419 65.7022 10.792 68.8688 11.292 71.8688C11.292 73.0354 12.5994 75.3688 15.292 75.3688C19.792 75.3688 26.792 75.8688 31.792 74.8688Z" fill="#E56E90"/>
<path d="M5.79199 65.8689C8.04193 65.3688 10.9168 64.7438 13.6668 64.3689M13.6668 64.3689C16.4169 63.9938 19.0419 63.8688 20.792 64.3689C23.792 65.8689 29.292 70.8688 31.792 74.8688C26.792 75.8688 19.792 75.3688 15.292 75.3688C12.5994 75.3688 11.292 73.0354 11.292 71.8688C10.792 68.8688 12.0418 65.7022 13.6668 64.3689Z" stroke="black" stroke-width="0.5"/>
<path d="M11.292 71.3688C19.292 69.8689 22.792 72.4974 25.792 73.9974M12.792 74.3689L30.292 73.8689" stroke="black" stroke-width="0.5"/>
<path d="M21.79 82.8687H31.29C33.29 82.8687 34.79 80.8687 34.29 79.8687M37.79 79.8687V84.3687" stroke="black" stroke-width="0.5"/>
<path d="M21.7915 81.3689C17.2915 81.3689 12.7915 81.8689 1.29145 78.8689V76.8689L5.29145 74.8689V73.3689L1.29145 72.8689C0.790527 71.3687 -0.209277 68.3687 1.79072 65.8687C1.29096 57.8687 1.79096 51.3687 3.79145 48.3684C36.2915 28.8688 58.2914 34.8688 84.2914 30.3688C162.291 -24.6313 244.291 12.3686 281.291 26.8688L294.791 28.8687L295.291 35.8687V38.8687C296.79 43.8687 298.125 48.3687 296.791 50.3687C299.291 51.3687 301.791 54.5353 301.791 56.3687L299.791 66.3687C300.243 77.2166 297.835 77.4408 288.504 77.7533C287.513 77.7865 285.444 77.8206 284.291 77.8687V79.3687L259.291 79.7997M21.7915 81.3689V84.3689H39.7898L39.2915 79.8689M21.7915 81.3689V79.8689H39.2915M39.2915 79.8689C36.2915 38.3689 89.7914 41.3689 86.2914 80.3689V82.8687H212.791C206.791 39.3687 261.291 39.3687 259.291 79.7997M258.79 79.7997H259.291" stroke="black"/>
</svg>
