<svg width="303" height="96" viewBox="0 0 303 96" fill="none" xmlns="http://www.w3.org/2000/svg">
<circle cx="62.667" cy="74.0303" r="20.5" stroke="black"/>
<circle cx="235.667" cy="74.0303" r="20.5" stroke="black"/>
<path d="M132.665 12.5301L131.165 9.03013C171.165 1.03024 192.665 1.53027 231.665 13.0302L228.165 17.5302C208.165 9.53018 190.165 8.53018 174.165 8.03025C171.665 7.53025 167.665 7.53021 165.165 8.03013C155.165 8.03025 143.165 9.53025 132.665 12.5301Z" fill="#EDADBF" stroke="black" stroke-width="0.5"/>
<path d="M131.165 9.03032L130.665 7.53032C166.665 -3.46973 199.165 0.530148 234.665 9.53032L231.665 13.0303C191.665 0.530273 165.665 2.03027 131.165 9.03032Z" fill="#EDADBF" stroke="black" stroke-width="0.5"/>
<path d="M131.165 9.03038C182.665 -2.46964 211.165 7.5304 231.665 13.0304" stroke="black" stroke-width="0.5"/>
<path d="M170.667 30.0303L174.167 8.03027C207.667 9.03027 219.167 14.5303 223.667 16.0303L226.15 28.0303C199.16 28.0309 181.665 29.5304 170.667 30.0303Z" fill="#EDADBF"/>
<path d="M226.667 30.5303L223.667 16.0303C219.167 14.5303 207.667 9.03027 174.167 8.03027L170.667 30.0303C181.667 29.5303 199.167 28.0303 226.167 28.0303" stroke="black" stroke-width="0.5"/>
<path d="M165.167 8.03027C132.167 9.03027 112.167 18.0303 93.167 35.5303L95.667 33.5303L159.667 30.5303L165.167 8.03027Z" fill="#EDADBF" stroke="black" stroke-width="0.5"/>
<path d="M239.665 22.5303C235.998 19.8636 230.165 17.5303 223.665 16.0303L226.165 28.0303H232.665C235.665 26.5303 238.665 24.299 239.665 22.5303Z" fill="#EDADBF" stroke="black" stroke-width="0.5"/>
<path d="M96.667 78.5303H163.667L198.167 77.0303H212.667L213.167 82.5303H199.167H98.167H86.667V78.5303H96.667Z" fill="#EDADBF"/>
<path d="M96.667 78.5303H163.667L198.167 77.0303M96.667 78.5303C96.667 80.0303 97.167 81.0303 98.167 82.5303M96.667 78.5303H86.667V82.5303H98.167M198.167 77.0303L199.167 82.5303M198.167 77.0303H212.667L213.167 82.5303H199.167M199.167 82.5303H98.167" stroke="black" stroke-width="0.5"/>
<path d="M96.6661 78.5303C92.167 74.0303 89.167 52.0303 93.1661 35.5303L165.167 31.5303C161.167 36.5303 160.167 70.5303 163.667 78.5303H96.6661Z" fill="#EDADBF" stroke="black" stroke-width="0.5"/>
<path d="M228.667 30.5303L165.167 31.5303C161.167 36.5303 160.167 70.5303 163.667 78.5303L198.167 77.0303C202.667 75.5303 209.167 70.0303 228.667 30.5303Z" fill="#EDADBF" stroke="black" stroke-width="0.5"/>
<path d="M170.667 30.0303C166.167 30.5303 162.667 30.5303 159.667 30.5303L165.167 8.03035C168.167 7.53027 171.167 7.53027 174.167 8.03035L170.667 30.0303Z" fill="#EDADBF" stroke="black" stroke-width="0.5"/>
<path d="M99.167 32.0305C103.667 37.5305 110.667 34.0305 114.667 32.5305C115.667 17.0304 102.667 25.0304 99.167 32.0305Z" fill="#EDADBF" stroke="black" stroke-width="0.5"/>
<path d="M234.665 9.53027L231.665 13.0303C248.665 18.5303 259.165 21.5303 271.665 28.0303H273.165L281.165 26.5303C266.165 20.0303 258.665 17.5303 234.665 9.53027Z" fill="#E56E90" stroke="black" stroke-width="0.5"/>
<path d="M271.665 28.0303C261.165 22.5303 242.165 16.0303 231.665 13.0303L229.665 15.5303L244.665 23.0303C243.165 25.5303 239.165 27.5303 233.165 30.2303C245.165 29.5303 262.165 28.5303 271.665 28.0303Z" fill="#E56E90" stroke="black" stroke-width="0.5"/>
<path d="M277.167 34.3303L283.165 32.0303L272.666 28.0303L228.666 30.5303C221.166 45.5303 206.166 76.0303 198.166 77.0303H212.666C211.166 66.0303 220.666 42.5303 245.667 51.5303C256.167 46.0303 266.167 40.5303 277.167 34.3303Z" fill="#E56E90" stroke="black" stroke-width="0.5"/>
<path d="M278.165 34.0303C266.165 40.5303 256.165 46.0303 245.665 51.5303C250.165 54.5303 260.665 60.5303 259.665 79.5303L284.665 79.0303V77.5303C293.165 76.5303 301.665 80.0303 300.165 66.0303L302.165 56.0303C302.165 54.5303 299.665 50.5303 297.165 50.0303C298.665 47.5303 295.665 38.5303 295.665 38.5303V37.0303L291.665 34.0303L286.665 32.5303L283.165 32.0303L278.165 34.0303Z" fill="#E56E90" stroke="black" stroke-width="0.5"/>
<path d="M281.165 26.5303L272.665 28.0303L283.165 32.0303C292.665 33.0303 291.664 34.5303 295.659 36.9505L295.165 28.5303L281.165 26.5303Z" fill="#E56E90"/>
<path d="M295.665 37.0303L295.659 36.9505M295.659 36.9505L295.165 28.5303L281.165 26.5303L272.665 28.0303L283.165 32.0303C292.665 33.0303 291.664 34.5303 295.659 36.9505Z" stroke="black" stroke-width="0.5"/>
<path d="M294.167 36.5305C293.667 34.0304 282.667 33.8303 277.167 34.3303" stroke="black" stroke-width="0.5"/>
<path d="M300.167 66.5303L260.667 68.5303C260.167 63.5303 258 59.3636 256.167 57.5303L302.167 55.0303M300.667 52.5303C289.667 51.0303 278.667 46.2303 266.667 40.2303M228.667 30.5303L272.667 28.0303L281.167 26.5303" stroke="black" stroke-width="0.5"/>
<path d="M290.667 40.5303C290.667 38.5303 289.667 34.5303 286.167 32.5303C288.388 32.5303 291.765 33.5707 294.276 35.9403C294.74 37.4703 293.667 41.0303 290.625 42.5303C290.612 41.94 290.667 41.2546 290.667 40.5303Z" fill="#E56E90"/>
<path d="M272.667 43.0303C279.663 43.3801 285.68 43.4851 291.06 44.0303M297.667 45.0303C295.564 44.5796 293.371 44.2644 291.06 44.0303M295.667 37.5303C295.249 36.9451 294.78 36.4159 294.276 35.9403M291.06 44.0303C290.734 43.6855 290.64 43.1625 290.625 42.5303M290.625 42.5303C290.612 41.94 290.667 41.2546 290.667 40.5303C290.667 38.5303 289.667 34.5303 286.167 32.5303C288.388 32.5303 291.765 33.5707 294.276 35.9403M290.625 42.5303C293.667 41.0303 294.74 37.4703 294.276 35.9403" stroke="black" stroke-width="0.5"/>
<path d="M290.667 40.5303C286.167 40.5303 284.167 36.5303 283.167 34.0303" stroke="black" stroke-width="0.5"/>
<path d="M132.665 12.6302C119.165 16.6302 107.165 22.5303 93.165 35.5303C100.165 23.5303 115.665 14.0303 131.165 9.03027L132.665 12.6302Z" fill="#EFC7D3" stroke="black" stroke-width="0.5"/>
<path d="M131.165 9.03027C111.165 14.7043 93.165 32.0303 85.165 30.0303C98.165 20.5303 114.165 12.0303 130.665 7.53027L131.165 9.03027Z" fill="#EFC7D3" stroke="black" stroke-width="0.5"/>
<path d="M10.1657 48.0302H4.16571C1.66504 52.0302 1.66504 62.0302 2.16571 65.5302C0.665039 66.5302 0.665637 71.0302 1.66571 72.5302L5.66571 73.0302V74.5302L1.66571 76.5302V78.5302C5.66571 79.5302 14.1657 81.5302 22.1657 81.0302V79.5302H39.6657C38.999 71.0302 40.6657 60.5302 49.6657 53.5302C47.1657 49.5302 40.1657 45.0302 37.1657 44.5302C27.1657 43.5302 12.1657 46.0302 10.1657 48.0302Z" fill="#EFC7D3" stroke="black" stroke-width="0.5"/>
<path d="M93.167 35.5303C75.3337 36.3636 43.667 41.2303 33.167 44.2303L37.167 44.5303C42.167 46.0303 47.667 50.3636 49.667 53.5303C62.666 44.0303 88.166 51.0303 86.666 78.5303H96.666C89.666 67.5303 90.666 45.5303 93.167 35.5303Z" fill="#EFC7D3" stroke="black" stroke-width="0.5"/>
<path d="M10.165 48.0303H4.16504C36.6652 28.5302 58.6653 34.5303 84.665 30.0303L93.6653 35.5303C76.6653 36.5303 47.665 40.0303 33.665 44.2303C25.665 44.0303 11.665 46.0303 10.165 48.0303Z" fill="#EFC7D3" stroke="black" stroke-width="0.5"/>
<path d="M37.1665 44.5303C29.6665 43.5303 12.6665 45.5303 10.1665 48.0303C9.36649 50.4303 12.4998 53.3636 14.1665 54.5303C23.6665 56.0303 37.1665 50.0303 37.1665 44.5303Z" fill="#EFC7D3" stroke="black" stroke-width="0.5"/>
<path d="M4.16573 48.0303C11.1657 49.0303 5.16573 59.5303 2.16573 64.5303C1.66566 57.5303 2.16553 52.0303 4.16573 48.0303Z" fill="#EFC7D3" stroke="black" stroke-width="0.5"/>
<path d="M22.165 84.0303V79.5303H39.665L40.165 84.0303H22.165Z" fill="#EFC7D3" stroke="black" stroke-width="0.5"/>
<path d="M2.66699 65.5303C4.16699 68.0303 6.16699 71.1969 5.66699 73.0303M22.167 79.5303C11.667 80.0303 7.16699 76.0303 8.16699 72.5303C8.66699 72.0303 10.167 70.5303 11.167 70.5303" stroke="black" stroke-width="0.5"/>
<path d="M32.167 74.5304C29.667 70.5304 24.167 65.5305 21.167 64.0305C19.4169 63.5305 16.7919 63.6555 14.0418 64.0305C12.4169 65.3638 11.167 68.5304 11.667 71.5304C11.667 72.6971 12.9744 75.0304 15.667 75.0304C20.167 75.0304 27.167 75.5304 32.167 74.5304Z" fill="#EFC7D3"/>
<path d="M6.16699 65.5305C8.41693 65.0304 11.2918 64.4055 14.0418 64.0305M14.0418 64.0305C16.7919 63.6555 19.4169 63.5305 21.167 64.0305C24.167 65.5305 29.667 70.5304 32.167 74.5304C27.167 75.5304 20.167 75.0304 15.667 75.0304C12.9744 75.0304 11.667 72.6971 11.667 71.5304C11.167 68.5304 12.4168 65.3638 14.0418 64.0305Z" stroke="black" stroke-width="0.5"/>
<path d="M11.667 71.0305C19.667 69.5305 23.167 72.159 26.167 73.659M13.167 74.0305L30.667 73.5305" stroke="black" stroke-width="0.5"/>
<path d="M22.165 82.5303H31.665C33.665 82.5303 35.165 80.5303 34.665 79.5303M38.165 79.5303V84.0303" stroke="black" stroke-width="0.5"/>
<path d="M22.1669 81.0305C17.6669 81.0305 13.1669 81.5305 1.66694 78.5305V76.5305L5.66694 74.5305V73.0305L1.66694 72.5305C1.16602 71.0303 0.166211 68.0303 2.16621 65.5303C1.66645 57.5303 2.16645 51.0303 4.16694 48.03C36.6669 28.5304 58.6669 34.5305 84.6669 30.0305C162.667 -24.9697 244.667 12.0303 281.667 26.5305L295.167 28.5303L295.667 35.5303V38.5303C297.165 43.5303 298.5 48.0303 297.167 50.0303C299.667 51.0303 302.167 54.1969 302.167 56.0303L300.167 66.0303C300.619 76.8782 298.211 77.1025 288.879 77.4149C287.888 77.4481 285.819 77.4823 284.667 77.5303V79.0303L259.667 79.4613M22.1669 81.0305V84.0305H40.1653L39.6669 79.5305M22.1669 81.0305V79.5305H39.6669M39.6669 79.5305C36.6669 38.0305 90.1669 41.0305 86.6669 80.0305V82.5303H213.167C207.167 39.0303 261.667 39.0303 259.667 79.4613M259.165 79.4613H259.667" stroke="black"/>
</svg>
