<svg width="303" height="95" viewBox="0 0 303 95" fill="none" xmlns="http://www.w3.org/2000/svg">
<circle cx="62.8853" cy="73.707" r="20.5" fill="#EFC7D3" stroke="black"/>
<circle cx="235.885" cy="73.707" r="20.5" fill="#EFC7D3" stroke="black"/>
<path d="M132.884 12.2069L131.384 8.70689C171.384 0.706999 192.884 1.20703 231.884 12.707L228.384 17.207C208.384 9.20694 190.384 8.20694 174.384 7.70701C171.884 7.20701 167.884 7.20697 165.384 7.70689C155.384 7.70701 143.384 9.20701 132.884 12.2069Z" fill="#E56E90" stroke="black" stroke-width="0.5"/>
<path d="M131.384 8.70708L130.884 7.20708C166.884 -3.79297 199.384 0.206905 234.884 9.20708L231.884 12.7071C191.884 0.207031 165.884 1.70703 131.384 8.70708Z" fill="#E56E90" stroke="black" stroke-width="0.5"/>
<path d="M131.384 8.70714C182.884 -2.79288 211.384 7.20715 231.884 12.7071" stroke="black" stroke-width="0.5"/>
<path d="M170.885 29.707L174.385 7.70703C207.885 8.70703 219.385 14.207 223.885 15.707L226.368 27.707C199.378 27.7077 181.883 29.2071 170.885 29.707Z" fill="#E56E90"/>
<path d="M226.885 30.207L223.885 15.707C219.385 14.207 207.885 8.70703 174.385 7.70703L170.885 29.707C181.885 29.207 199.385 27.707 226.385 27.707" stroke="black" stroke-width="0.5"/>
<path d="M165.385 7.70703C132.385 8.70703 112.385 17.707 93.3853 35.207L95.8853 33.207L159.885 30.207L165.385 7.70703Z" fill="#E56E90" stroke="black" stroke-width="0.5"/>
<path d="M239.884 22.207C236.217 19.5404 230.384 17.207 223.884 15.707L226.384 27.707H232.884C235.884 26.207 238.884 23.9758 239.884 22.207Z" fill="#E56E90" stroke="black" stroke-width="0.5"/>
<path d="M96.8853 78.207H163.885L198.385 76.707H212.885L213.385 82.207H199.385H98.3853H86.8853V78.207H96.8853Z" fill="#E56E90"/>
<path d="M96.8853 78.207H163.885L198.385 76.707M96.8853 78.207C96.8853 79.707 97.3853 80.707 98.3853 82.207M96.8853 78.207H86.8853V82.207H98.3853M198.385 76.707L199.385 82.207M198.385 76.707H212.885L213.385 82.207H199.385M199.385 82.207H98.3853" stroke="black" stroke-width="0.5"/>
<path d="M96.8844 78.207C92.3852 73.707 89.3853 51.707 93.3844 35.207L165.385 31.207C161.385 36.207 160.385 70.207 163.885 78.207H96.8844Z" fill="#E56E90" stroke="black" stroke-width="0.5"/>
<path d="M228.885 30.207L165.385 31.207C161.385 36.207 160.385 70.207 163.885 78.207L198.385 76.707C202.885 75.207 209.385 69.707 228.885 30.207Z" fill="#E56E90" stroke="black" stroke-width="0.5"/>
<path d="M170.885 29.7071C166.385 30.2071 162.885 30.2071 159.885 30.2071L165.385 7.70711C168.385 7.20703 171.385 7.20703 174.385 7.70711L170.885 29.7071Z" fill="#E56E90" stroke="black" stroke-width="0.5"/>
<path d="M99.3853 31.7073C103.885 37.2073 110.885 33.7073 114.885 32.2073C115.885 16.7072 102.885 24.7072 99.3853 31.7073Z" fill="#E56E90" stroke="black" stroke-width="0.5"/>
<path d="M234.884 9.20703L231.884 12.707C248.884 18.207 259.384 21.207 271.884 27.707H273.384L281.384 26.207C266.384 19.707 258.884 17.207 234.884 9.20703Z" fill="#EFC7D3" stroke="black" stroke-width="0.5"/>
<path d="M271.884 27.707C261.384 22.207 242.384 15.707 231.884 12.707L229.884 15.207L244.884 22.707C243.384 25.207 239.384 27.207 233.384 29.907C245.384 29.207 262.384 28.207 271.884 27.707Z" fill="#EFC7D3" stroke="black" stroke-width="0.5"/>
<path d="M277.385 34.007L283.384 31.707L272.884 27.707L228.884 30.207C221.384 45.207 206.384 75.707 198.384 76.707H212.884C211.384 65.707 220.884 42.207 245.885 51.207C256.385 45.707 266.385 40.207 277.385 34.007Z" fill="#EFC7D3" stroke="black" stroke-width="0.5"/>
<path d="M278.384 33.7071C266.384 40.2071 256.384 45.7071 245.884 51.2071C250.384 54.207 260.884 60.207 259.884 79.207L284.884 78.707V77.207C293.384 76.207 301.884 79.707 300.384 65.707L302.384 55.707C302.384 54.207 299.884 50.207 297.384 49.707C298.884 47.207 295.884 38.207 295.884 38.207V36.707L291.884 33.707L286.884 32.207L283.384 31.707L278.384 33.7071Z" fill="#EFC7D3" stroke="black" stroke-width="0.5"/>
<path d="M281.384 26.207L272.884 27.707L283.384 31.707C292.884 32.707 291.883 34.207 295.878 36.6272L295.384 28.207L281.384 26.207Z" fill="#EFC7D3"/>
<path d="M295.884 36.707L295.878 36.6272M295.878 36.6272L295.384 28.207L281.384 26.207L272.884 27.707L283.384 31.707C292.884 32.707 291.883 34.207 295.878 36.6272Z" stroke="black" stroke-width="0.5"/>
<path d="M294.385 36.2072C293.885 33.7071 282.885 33.507 277.385 34.007" stroke="black" stroke-width="0.5"/>
<path d="M300.385 66.207L260.885 68.207C260.385 63.207 258.219 59.0404 256.385 57.207L302.385 54.707M300.885 52.207C289.885 50.707 278.885 45.907 266.885 39.907M228.885 30.207L272.885 27.707L281.385 26.207" stroke="black" stroke-width="0.5"/>
<path d="M290.885 40.207C290.885 38.207 289.885 34.207 286.385 32.207C288.606 32.207 291.983 33.2474 294.494 35.617C294.958 37.147 293.885 40.707 290.843 42.207C290.83 41.6167 290.885 40.9313 290.885 40.207Z" fill="#EFC7D3"/>
<path d="M272.885 42.707C279.881 43.0568 285.898 43.1619 291.278 43.707M297.885 44.707C295.782 44.2564 293.589 43.9411 291.278 43.707M295.885 37.207C295.467 36.6219 294.998 36.0927 294.494 35.617M291.278 43.707C290.952 43.3623 290.858 42.8392 290.843 42.207M290.843 42.207C290.83 41.6168 290.885 40.9313 290.885 40.207C290.885 38.207 289.885 34.207 286.385 32.207C288.606 32.207 291.983 33.2474 294.494 35.617M290.843 42.207C293.885 40.707 294.958 37.147 294.494 35.617" stroke="black" stroke-width="0.5"/>
<path d="M290.885 40.207C286.385 40.207 284.385 36.207 283.385 33.707" stroke="black" stroke-width="0.5"/>
<path d="M132.884 12.307C119.384 16.307 107.384 22.207 93.3838 35.207C100.384 23.207 115.884 13.707 131.384 8.70703L132.884 12.307Z" stroke="black" stroke-width="0.5"/>
<path d="M131.384 8.70703C111.384 14.3811 93.3838 31.707 85.3838 29.707C98.3838 20.207 114.384 11.707 130.884 7.20703L131.384 8.70703Z" stroke="black" stroke-width="0.5"/>
<path d="M10.3845 47.7069H4.38446C1.88379 51.7069 1.88379 61.7069 2.38446 65.2069C0.883789 66.2069 0.884387 70.7069 1.88446 72.2069L5.88446 72.7069V74.2069L1.88446 76.2069V78.2069C5.88446 79.2069 14.3845 81.2069 22.3845 80.7069V79.2069H39.8845C39.2178 70.7069 40.8845 60.2069 49.8845 53.2069C47.3845 49.2069 40.3845 44.7069 37.3845 44.2069C27.3845 43.2069 12.3845 45.7069 10.3845 47.7069Z" stroke="black" stroke-width="0.5"/>
<path d="M93.3853 35.207C75.5519 36.0404 43.8853 40.907 33.3853 43.907L37.3853 44.207C42.3853 45.707 47.8853 50.0404 49.8853 53.207C62.8843 43.707 88.3843 50.707 86.8843 78.207H96.8843C89.8843 67.207 90.8843 45.207 93.3853 35.207Z" stroke="black" stroke-width="0.5"/>
<path d="M10.3838 47.7071H4.38379C36.884 28.207 58.884 34.207 84.8838 29.707L93.884 35.207C76.884 36.207 47.8838 39.707 33.8838 43.907C25.8838 43.707 11.8838 45.707 10.3838 47.7071Z" stroke="black" stroke-width="0.5"/>
<path d="M37.3852 44.2071C29.8852 43.207 12.8852 45.207 10.3852 47.7071C9.58524 50.107 12.7186 53.0404 14.3852 54.207C23.8853 55.707 37.3852 49.707 37.3852 44.2071Z" stroke="black" stroke-width="0.5"/>
<path d="M4.38448 47.707C11.3845 48.707 5.38448 59.207 2.38448 64.207C1.88441 57.207 2.38428 51.707 4.38448 47.707Z" stroke="black" stroke-width="0.5"/>
<path d="M22.3838 83.707V79.207H39.8838L40.3838 83.707H22.3838Z" stroke="black" stroke-width="0.5"/>
<path d="M2.88574 65.207C4.38574 67.707 6.38574 70.8737 5.88574 72.707M22.3857 79.207C11.8857 79.707 7.38574 75.707 8.38574 72.207C8.88574 71.707 10.3857 70.207 11.3857 70.207" stroke="black" stroke-width="0.5"/>
<path d="M6.38574 65.2072C8.63568 64.7072 11.5106 64.0822 14.2605 63.7072M14.2605 63.7072C17.0106 63.3322 19.6357 63.2072 21.3857 63.7072C24.3857 65.2072 29.8857 70.2072 32.3857 74.2072C27.3857 75.2072 20.3857 74.7072 15.8857 74.7072C13.1932 74.7072 11.8857 72.3738 11.8857 71.2072C11.3857 68.2072 12.6356 65.0405 14.2605 63.7072Z" stroke="black" stroke-width="0.5"/>
<path d="M11.8857 70.7072C19.8857 69.2073 23.3857 71.8358 26.3857 73.3358M13.3857 73.7073L30.8857 73.2073" stroke="black" stroke-width="0.5"/>
<path d="M22.3838 82.207H31.8838C33.8838 82.207 35.3838 80.207 34.8838 79.207M38.3838 79.207V83.707" stroke="black" stroke-width="0.5"/>
<path d="M22.3852 80.7073C17.8852 80.7073 13.3852 81.2073 1.8852 78.2073V76.2073L5.8852 74.2073V72.7073L1.8852 72.2073C1.38428 70.707 0.384473 67.707 2.38447 65.207C1.88471 57.207 2.38471 50.707 4.3852 47.7068C36.8852 28.2072 58.8852 34.2072 84.8852 29.7072C162.885 -25.2929 244.885 11.707 281.885 26.2072L295.385 28.207L295.885 35.207V38.207C297.384 43.207 298.719 47.707 297.385 49.707C299.885 50.707 302.385 53.8737 302.385 55.707L300.385 65.707C300.837 76.5549 298.429 76.7792 289.098 77.0917C288.106 77.1249 286.037 77.159 284.885 77.207V78.707L259.885 79.1381M22.3852 80.7073V83.7073H40.3835L39.8852 79.2073M22.3852 80.7073V79.2073H39.8852M39.8852 79.2073C36.8852 37.7073 90.3852 40.7073 86.8852 79.7073V82.207H213.385C207.385 38.707 261.885 38.707 259.885 79.1381M259.384 79.1381H259.885" stroke="black"/>
</svg>
