<svg width="303" height="96" viewBox="0 0 303 96" fill="none" xmlns="http://www.w3.org/2000/svg">
<circle cx="62.2915" cy="74.1692" r="20.5" fill="#E56E90" stroke="black"/>
<circle cx="235.292" cy="74.1692" r="20.5" fill="#E56E90" stroke="black"/>
<path d="M132.29 12.669L130.79 9.16904C170.79 1.16916 192.29 1.66919 231.29 13.1691L227.79 17.6691C207.79 9.6691 189.79 8.6691 173.79 8.16917C171.29 7.66917 167.29 7.66913 164.79 8.16904C154.79 8.16917 142.79 9.66917 132.29 12.669Z" stroke="black" stroke-width="0.5"/>
<path d="M130.79 9.16923L130.29 7.66923C166.29 -3.33081 198.79 0.669064 234.29 9.66924L231.29 13.1692C191.29 0.669189 165.29 2.16919 130.79 9.16923Z" stroke="black" stroke-width="0.5"/>
<path d="M130.79 9.16918C182.29 -2.33085 210.79 7.66919 231.29 13.1692" stroke="black" stroke-width="0.5"/>
<path d="M226.292 30.6692L223.292 16.1692C218.792 14.6692 207.292 9.16919 173.792 8.16919L170.292 30.1692C181.292 29.6692 198.792 28.1692 225.792 28.1692" stroke="black" stroke-width="0.5"/>
<path d="M164.792 8.16919C131.792 9.16919 111.792 18.1692 92.7915 35.6692L95.2915 33.6692L159.292 30.6692L164.792 8.16919Z" stroke="black" stroke-width="0.5"/>
<path d="M239.29 22.6692C235.623 20.0025 229.79 17.6692 223.29 16.1692L225.79 28.1692H232.29C235.29 26.6692 238.29 24.4379 239.29 22.6692Z" stroke="black" stroke-width="0.5"/>
<path d="M96.2915 78.6692H163.292L197.792 77.1692M96.2915 78.6692C96.2915 80.1692 96.7915 81.1692 97.7915 82.6692M96.2915 78.6692H86.2915V82.6692H97.7915M197.792 77.1692L198.792 82.6692M197.792 77.1692H212.292L212.792 82.6692H198.792M198.792 82.6692H97.7915" stroke="black" stroke-width="0.5"/>
<path d="M96.2906 78.6692C91.7915 74.1692 88.7915 52.1692 92.7906 35.6692L164.792 31.6692C160.792 36.6692 159.792 70.6692 163.291 78.6692H96.2906Z" stroke="black" stroke-width="0.5"/>
<path d="M228.291 30.6692L164.791 31.6692C160.791 36.6692 159.791 70.6692 163.291 78.6692L197.791 77.1692C202.291 75.6692 208.791 70.1692 228.291 30.6692Z" stroke="black" stroke-width="0.5"/>
<path d="M170.292 30.1693C165.792 30.6693 162.292 30.6693 159.292 30.6693L164.792 8.16926C167.792 7.66919 170.792 7.66919 173.792 8.16926L170.292 30.1693Z" stroke="black" stroke-width="0.5"/>
<path d="M98.7915 32.1693C103.292 37.6693 110.292 34.1693 114.292 32.6693C115.292 17.1692 102.292 25.1692 98.7915 32.1693Z" stroke="black" stroke-width="0.5"/>
<path d="M234.29 9.66919L231.29 13.1692C248.29 18.6692 258.79 21.6692 271.29 28.1692H272.79L280.79 26.6692C265.79 20.1692 258.29 17.6692 234.29 9.66919Z" stroke="black" stroke-width="0.5"/>
<path d="M271.29 28.1692C260.79 22.6692 241.79 16.1692 231.29 13.1692L229.29 15.6692L244.29 23.1692C242.79 25.6692 238.79 27.6692 232.79 30.3692C244.79 29.6692 261.79 28.6692 271.29 28.1692Z" stroke="black" stroke-width="0.5"/>
<path d="M276.792 34.4692L282.79 32.1692L272.291 28.1692L228.291 30.6692C220.791 45.6692 205.791 76.1692 197.791 77.1692H212.291C210.791 66.1692 220.291 42.6692 245.292 51.6692C255.792 46.1692 265.792 40.6692 276.792 34.4692Z" stroke="black" stroke-width="0.5"/>
<path d="M277.79 34.1692C265.79 40.6692 255.79 46.1692 245.29 51.6692C249.79 54.6692 260.29 60.6692 259.29 79.6692L284.29 79.1692V77.6692C292.79 76.6692 301.29 80.1692 299.79 66.1692L301.79 56.1692C301.79 54.6692 299.29 50.6692 296.79 50.1692C298.29 47.6692 295.29 38.6692 295.29 38.6692V37.1692L291.29 34.1692L286.29 32.6692L282.79 32.1692L277.79 34.1692Z" stroke="black" stroke-width="0.5"/>
<path d="M295.29 37.1692L295.284 37.0894M295.284 37.0894L294.79 28.6692L280.79 26.6692L272.29 28.1692L282.79 32.1692C292.29 33.1692 291.289 34.6692 295.284 37.0894Z" stroke="black" stroke-width="0.5"/>
<path d="M293.792 36.6694C293.292 34.1693 282.292 33.9692 276.792 34.4692" stroke="black" stroke-width="0.5"/>
<path d="M299.792 66.6692L260.292 68.6692C259.792 63.6692 257.625 59.5025 255.792 57.6692L301.792 55.1692M300.292 52.6692C289.292 51.1692 278.292 46.3692 266.292 40.3692M228.292 30.6692L272.292 28.1692L280.792 26.6692" stroke="black" stroke-width="0.5"/>
<path d="M272.292 43.1692C279.287 43.519 285.304 43.6241 290.685 44.1692M297.292 45.1692C295.189 44.7185 292.995 44.4033 290.685 44.1692M295.292 37.6692C294.874 37.0841 294.404 36.5548 293.9 36.0792M290.685 44.1692C290.358 43.8244 290.264 43.3014 290.25 42.6692M290.25 42.6692C290.236 42.0789 290.292 41.3935 290.292 40.6692C290.292 38.6692 289.292 34.6692 285.792 32.6692C288.012 32.6692 291.389 33.7096 293.9 36.0792M290.25 42.6692C293.292 41.1692 294.364 37.6092 293.9 36.0792" stroke="black" stroke-width="0.5"/>
<path d="M290.292 40.6692C285.792 40.6692 283.792 36.6692 282.792 34.1692" stroke="black" stroke-width="0.5"/>
<path d="M132.29 12.7692C118.79 16.7692 106.79 22.6692 92.79 35.6692C99.79 23.6692 115.29 14.1692 130.79 9.16919L132.29 12.7692Z" stroke="black" stroke-width="0.5"/>
<path d="M130.79 9.16919C110.79 14.8432 92.79 32.1692 84.79 30.1692C97.79 20.6692 113.79 12.1692 130.29 7.66919L130.79 9.16919Z" stroke="black" stroke-width="0.5"/>
<path d="M9.79071 48.1692H3.79071C1.29004 52.1692 1.29004 62.1692 1.79071 65.6692C0.290039 66.6692 0.290637 71.1692 1.29071 72.6692L5.29071 73.1692V74.6692L1.29071 76.6692V78.6692C5.29071 79.6692 13.7907 81.6692 21.7907 81.1692V79.6692H39.2907C38.624 71.1692 40.2907 60.6692 49.2907 53.6692C46.7907 49.6692 39.7907 45.1692 36.7907 44.6692C26.7907 43.6692 11.7907 46.1692 9.79071 48.1692Z" stroke="black" stroke-width="0.5"/>
<path d="M92.7915 35.6692C74.9582 36.5025 43.2915 41.3692 32.7915 44.3692L36.7915 44.6692C41.7915 46.1692 47.2915 50.5025 49.2915 53.6692C62.2905 44.1692 87.7905 51.1692 86.2905 78.6692H96.2905C89.2905 67.6692 90.2905 45.6692 92.7915 35.6692Z" stroke="black" stroke-width="0.5"/>
<path d="M9.79004 48.1692H3.79004C36.2902 28.6691 58.2903 34.6692 84.29 30.1692L93.2903 35.6692C76.2903 36.6692 47.29 40.1692 33.29 44.3692C25.29 44.1692 11.29 46.1692 9.79004 48.1692Z" stroke="black" stroke-width="0.5"/>
<path d="M36.7915 44.6693C29.2915 43.6692 12.2915 45.6692 9.79149 48.1693C8.99149 50.5692 12.1248 53.5025 13.7915 54.6692C23.2915 56.1692 36.7915 50.1692 36.7915 44.6693Z" stroke="black" stroke-width="0.5"/>
<path d="M3.79073 48.1692C10.7907 49.1692 4.79073 59.6692 1.79073 64.6692C1.29066 57.6692 1.79053 52.1692 3.79073 48.1692Z" stroke="black" stroke-width="0.5"/>
<path d="M21.79 84.1692V79.6692H39.29L39.79 84.1692H21.79Z" stroke="black" stroke-width="0.5"/>
<path d="M2.29199 65.6692C3.79199 68.1692 5.79199 71.3359 5.29199 73.1692M21.792 79.6692C11.292 80.1692 6.79199 76.1692 7.79199 72.6692C8.29199 72.1692 9.79199 70.6692 10.792 70.6692" stroke="black" stroke-width="0.5"/>
<path d="M5.79199 65.6693C8.04193 65.1692 10.9168 64.5443 13.6668 64.1693M13.6668 64.1693C16.4169 63.7943 19.0419 63.6693 20.792 64.1693C23.792 65.6693 29.292 70.6692 31.792 74.6692C26.792 75.6692 19.792 75.1692 15.292 75.1692C12.5994 75.1692 11.292 72.8359 11.292 71.6692C10.792 68.6692 12.0418 65.5026 13.6668 64.1693Z" stroke="black" stroke-width="0.5"/>
<path d="M11.292 71.1693C19.292 69.6693 22.792 72.2978 25.792 73.7978M12.792 74.1693L30.292 73.6693" stroke="black" stroke-width="0.5"/>
<path d="M21.79 82.6692H31.29C33.29 82.6692 34.79 80.6692 34.29 79.6692M37.79 79.6692V84.1692" stroke="black" stroke-width="0.5"/>
<path d="M21.7915 81.1694C17.2915 81.1694 12.7915 81.6694 1.29145 78.6694V76.6694L5.29145 74.6694V73.1694L1.29145 72.6694C0.790527 71.1692 -0.209277 68.1692 1.79072 65.6692C1.29096 57.6692 1.79096 51.1692 3.79145 48.1689C36.2915 28.6693 58.2914 34.6694 84.2914 30.1694C162.291 -24.8307 244.291 12.1692 281.291 26.6694L294.791 28.6692L295.291 35.6692V38.6692C296.79 43.6692 298.125 48.1692 296.791 50.1692C299.291 51.1692 301.791 54.3359 301.791 56.1692L299.791 66.1692C300.243 77.0171 297.835 77.2414 288.504 77.5538C287.513 77.587 285.444 77.6212 284.291 77.6692V79.1692L259.291 79.6002M21.7915 81.1694V84.1694H39.7898L39.2915 79.6694M21.7915 81.1694V79.6694H39.2915M39.2915 79.6694C36.2915 38.1694 89.7914 41.1694 86.2914 80.1694V82.6692H212.791C206.791 39.1692 261.291 39.1692 259.291 79.6002M258.79 79.6002H259.291" stroke="black"/>
</svg>
