<svg width="303" height="96" viewBox="0 0 303 96" fill="none" xmlns="http://www.w3.org/2000/svg">
<circle cx="62.6562" cy="74.0151" r="20.5" stroke="black"/>
<circle cx="235.656" cy="74.0151" r="20.5" stroke="black"/>
<path d="M132.654 12.515L131.154 9.01499C171.154 1.0151 192.654 1.51514 231.654 13.0151L228.154 17.5151C208.154 9.51505 190.154 8.51505 174.154 8.01511C171.654 7.51511 167.654 7.51508 165.154 8.01499C155.154 8.01511 143.154 9.51511 132.654 12.515Z" fill="#EFC7D3" stroke="black" stroke-width="0.5"/>
<path d="M131.154 9.01518L130.654 7.51518C166.654 -3.48486 199.154 0.515011 234.654 9.51518L231.654 13.0152C191.654 0.515137 165.654 2.01514 131.154 9.01518Z" fill="#EFC7D3" stroke="black" stroke-width="0.5"/>
<path d="M131.154 9.01512C182.654 -2.4849 211.154 7.51514 231.654 13.0151" stroke="black" stroke-width="0.5"/>
<path d="M170.656 30.0151L174.156 8.01514C207.656 9.01514 219.156 14.5151 223.656 16.0151L226.139 28.0151C199.149 28.0158 181.654 29.5152 170.656 30.0151Z" fill="#EFC7D3"/>
<path d="M226.656 30.5151L223.656 16.0151C219.156 14.5151 207.656 9.01514 174.156 8.01514L170.656 30.0151C181.656 29.5151 199.156 28.0151 226.156 28.0151" stroke="black" stroke-width="0.5"/>
<path d="M165.156 8.01514C132.156 9.01514 112.156 18.0151 93.1562 35.5151L95.6562 33.5151L159.656 30.5151L165.156 8.01514Z" fill="#EFC7D3" stroke="black" stroke-width="0.5"/>
<path d="M239.654 22.5151C235.988 19.8485 230.154 17.5151 223.654 16.0151L226.154 28.0151H232.654C235.654 26.5151 238.654 24.2839 239.654 22.5151Z" fill="#EFC7D3" stroke="black" stroke-width="0.5"/>
<path d="M96.6562 78.5151H163.656L198.156 77.0151H212.656L213.156 82.5151H199.156H98.1562H86.6562V78.5151H96.6562Z" fill="#EFC7D3"/>
<path d="M96.6562 78.5151H163.656L198.156 77.0151M96.6562 78.5151C96.6562 80.0151 97.1562 81.0151 98.1562 82.5151M96.6562 78.5151H86.6562V82.5151H98.1562M198.156 77.0151L199.156 82.5151M198.156 77.0151H212.656L213.156 82.5151H199.156M199.156 82.5151H98.1562" stroke="black" stroke-width="0.5"/>
<path d="M96.6554 78.5151C92.1562 74.0151 89.1563 52.0151 93.1554 35.5151L165.156 31.5151C161.156 36.5151 160.156 70.5151 163.656 78.5151H96.6554Z" fill="#EFC7D3" stroke="black" stroke-width="0.5"/>
<path d="M228.656 30.5151L165.156 31.5151C161.156 36.5151 160.156 70.5151 163.656 78.5151L198.156 77.0151C202.656 75.5151 209.156 70.0151 228.656 30.5151Z" fill="#EFC7D3" stroke="black" stroke-width="0.5"/>
<path d="M170.656 30.0152C166.156 30.5152 162.656 30.5152 159.656 30.5152L165.156 8.01521C168.156 7.51514 171.156 7.51514 174.156 8.01521L170.656 30.0152Z" fill="#EFC7D3" stroke="black" stroke-width="0.5"/>
<path d="M99.1562 32.0153C103.656 37.5153 110.656 34.0153 114.656 32.5153C115.656 17.0152 102.656 25.0151 99.1562 32.0153Z" fill="#EFC7D3" stroke="black" stroke-width="0.5"/>
<path d="M234.654 9.51514L231.654 13.0151C248.654 18.5151 259.154 21.5151 271.654 28.0151H273.154L281.154 26.5151C266.154 20.0151 258.654 17.5151 234.654 9.51514Z" fill="#E0426F" stroke="black" stroke-width="0.5"/>
<path d="M271.654 28.0151C261.154 22.5151 242.154 16.0151 231.654 13.0151L229.654 15.5151L244.654 23.0151C243.154 25.5151 239.154 27.5151 233.154 30.2151C245.154 29.5151 262.154 28.5151 271.654 28.0151Z" fill="#E0426F" stroke="black" stroke-width="0.5"/>
<path d="M277.156 34.3151L283.155 32.0151L272.655 28.0151L228.655 30.5151C221.155 45.5151 206.155 76.0151 198.155 77.0151H212.655C211.155 66.0151 220.655 42.5151 245.656 51.5151C256.156 46.0151 266.156 40.5151 277.156 34.3151Z" fill="#E0426F" stroke="black" stroke-width="0.5"/>
<path d="M278.154 34.0152C266.154 40.5152 256.154 46.0152 245.654 51.5152C250.154 54.5151 260.654 60.5151 259.654 79.5151L284.654 79.0151V77.5151C293.154 76.5151 301.654 80.0151 300.154 66.0151L302.154 56.0151C302.154 54.5151 299.654 50.5151 297.154 50.0151C298.654 47.5151 295.654 38.5151 295.654 38.5151V37.0151L291.654 34.0151L286.654 32.5151L283.154 32.0151L278.154 34.0152Z" fill="#E0426F" stroke="black" stroke-width="0.5"/>
<path d="M281.154 26.5151L272.654 28.0151L283.154 32.0151C292.654 33.0151 291.653 34.5151 295.648 36.9353L295.154 28.5151L281.154 26.5151Z" fill="#E0426F"/>
<path d="M295.654 37.0151L295.648 36.9353M295.648 36.9353L295.154 28.5151L281.154 26.5151L272.654 28.0151L283.154 32.0151C292.654 33.0151 291.653 34.5151 295.648 36.9353Z" stroke="black" stroke-width="0.5"/>
<path d="M294.156 36.5153C293.656 34.0152 282.656 33.8151 277.156 34.3151" stroke="black" stroke-width="0.5"/>
<path d="M300.156 66.5151L260.656 68.5151C260.156 63.5151 257.99 59.3485 256.156 57.5151L302.156 55.0151M300.656 52.5151C289.656 51.0151 278.656 46.2151 266.656 40.2151M228.656 30.5151L272.656 28.0151L281.156 26.5151" stroke="black" stroke-width="0.5"/>
<path d="M290.656 40.5151C290.656 38.5151 289.656 34.5151 286.156 32.5151C288.377 32.5151 291.754 33.5555 294.265 35.9251C294.729 37.4551 293.656 41.0151 290.614 42.5151C290.601 41.9249 290.656 41.2394 290.656 40.5151Z" fill="#E0426F"/>
<path d="M272.656 43.0151C279.652 43.3649 285.669 43.47 291.049 44.0151M297.656 45.0151C295.553 44.5645 293.36 44.2492 291.049 44.0151M295.656 37.5151C295.238 36.93 294.769 36.4008 294.265 35.9251M291.049 44.0151C290.723 43.6704 290.629 43.1473 290.614 42.5151M290.614 42.5151C290.601 41.9249 290.656 41.2394 290.656 40.5151C290.656 38.5151 289.656 34.5151 286.156 32.5151C288.377 32.5151 291.754 33.5555 294.265 35.9251M290.614 42.5151C293.656 41.0151 294.729 37.4551 294.265 35.9251" stroke="black" stroke-width="0.5"/>
<path d="M290.656 40.5151C286.156 40.5151 284.156 36.5151 283.156 34.0151" stroke="black" stroke-width="0.5"/>
<path d="M132.654 12.6151C119.154 16.6151 107.154 22.5151 93.1543 35.5151C100.154 23.5151 115.654 14.0151 131.154 9.01514L132.654 12.6151Z" stroke="black" stroke-width="0.5"/>
<path d="M131.154 9.01514C111.154 14.6892 93.1543 32.0151 85.1543 30.0151C98.1543 20.5151 114.154 12.0151 130.654 7.51514L131.154 9.01514Z" stroke="black" stroke-width="0.5"/>
<path d="M10.155 48.0151H4.15496C1.6543 52.0151 1.6543 62.0151 2.15496 65.5151C0.654297 66.5151 0.654894 71.0151 1.65496 72.5151L5.65496 73.0151V74.5151L1.65496 76.5151V78.5151C5.65496 79.5151 14.155 81.5151 22.155 81.0151V79.5151H39.655C38.9883 71.0151 40.655 60.5151 49.655 53.5151C47.155 49.5151 40.155 45.0151 37.155 44.5151C27.155 43.5151 12.155 46.0151 10.155 48.0151Z" stroke="black" stroke-width="0.5"/>
<path d="M93.1562 35.5151C75.3229 36.3485 43.6562 41.2151 33.1562 44.2151L37.1562 44.5151C42.1562 46.0151 47.6562 50.3485 49.6562 53.5151C62.6553 44.0151 88.1553 51.0151 86.6553 78.5151H96.6553C89.6553 67.5151 90.6553 45.5151 93.1562 35.5151Z" stroke="black" stroke-width="0.5"/>
<path d="M10.1543 48.0152H4.1543C36.6545 28.5151 58.6545 34.5151 84.6543 30.0151L93.6545 35.5151C76.6545 36.5151 47.6543 40.0151 33.6543 44.2151C25.6543 44.0151 11.6543 46.0151 10.1543 48.0152Z" stroke="black" stroke-width="0.5"/>
<path d="M37.1558 44.5152C29.6558 43.5151 12.6558 45.5151 10.1558 48.0152C9.35575 50.4152 12.4891 53.3485 14.1558 54.5151C23.6558 56.0151 37.1558 50.0151 37.1558 44.5152Z" stroke="black" stroke-width="0.5"/>
<path d="M4.15499 48.0151C11.155 49.0151 5.15499 59.5151 2.15499 64.5151C1.65492 57.5151 2.15479 52.0151 4.15499 48.0151Z" stroke="black" stroke-width="0.5"/>
<path d="M22.1543 84.0151V79.5151H39.6543L40.1543 84.0151H22.1543Z" stroke="black" stroke-width="0.5"/>
<path d="M2.65625 65.5151C4.15625 68.0151 6.15625 71.1818 5.65625 73.0151M22.1562 79.5151C11.6562 80.0151 7.15625 76.0151 8.15625 72.5151C8.65625 72.0151 10.1562 70.5151 11.1562 70.5151" stroke="black" stroke-width="0.5"/>
<path d="M6.15625 65.5152C8.40619 65.0152 11.2811 64.3902 14.031 64.0152M14.031 64.0152C16.7811 63.6402 19.4062 63.5152 21.1562 64.0152C24.1562 65.5152 29.6562 70.5151 32.1562 74.5151C27.1562 75.5151 20.1562 75.0151 15.6562 75.0151C12.9637 75.0151 11.6562 72.6818 11.6562 71.5151C11.1562 68.5151 12.4061 65.3485 14.031 64.0152Z" stroke="black" stroke-width="0.5"/>
<path d="M11.6562 71.0152C19.6562 69.5153 23.1562 72.1437 26.1562 73.6437M13.1562 74.0153L30.6562 73.5153" stroke="black" stroke-width="0.5"/>
<path d="M22.1543 82.5151H31.6543C33.6543 82.5151 35.1543 80.5151 34.6543 79.5151M38.1543 79.5151V84.0151" stroke="black" stroke-width="0.5"/>
<path d="M22.1562 81.0154C17.6562 81.0154 13.1562 81.5154 1.6562 78.5154V76.5154L5.6562 74.5154V73.0154L1.6562 72.5154C1.15527 71.0151 0.155469 68.0151 2.15546 65.5151C1.65571 57.5151 2.15571 51.0151 4.1562 48.0149C36.6562 28.5153 58.6562 34.5153 84.6562 30.0153C162.656 -24.9848 244.656 12.0151 281.656 26.5153L295.156 28.5151L295.656 35.5151V38.5151C297.155 43.5151 298.49 48.0151 297.156 50.0151C299.656 51.0151 302.156 54.1818 302.156 56.0151L300.156 66.0151C300.608 76.863 298.2 77.0873 288.868 77.3998C287.877 77.433 285.808 77.4671 284.656 77.5151V79.0151L259.656 79.4462M22.1562 81.0154V84.0154H40.1545L39.6562 79.5154M22.1562 81.0154V79.5154H39.6562M39.6562 79.5154C36.6562 38.0154 90.1562 41.0154 86.6562 80.0154V82.5151H213.156C207.156 39.0151 261.656 39.0151 259.656 79.4462M259.155 79.4462H259.656" stroke="black"/>
</svg>
