<svg width="303" height="96" viewBox="0 0 303 96" fill="none" xmlns="http://www.w3.org/2000/svg">
<circle cx="62.4473" cy="74.3838" r="20.5" fill="#E0426F" stroke="black"/>
<circle cx="235.447" cy="74.3838" r="20.5" fill="#E0426F" stroke="black"/>
<path d="M132.445 12.8836L130.945 9.38364C170.945 1.38376 192.445 1.88379 231.445 13.3837L227.945 17.8837C207.945 9.8837 189.945 8.8837 173.945 8.38377C171.445 7.88377 167.445 7.88373 164.945 8.38364C154.945 8.38377 142.945 9.88377 132.445 12.8836Z" fill="#E56E90" stroke="black" stroke-width="0.5"/>
<path d="M130.945 9.38383L130.445 7.88383C166.445 -3.11621 198.945 0.883663 234.445 9.88383L231.445 13.3838C191.445 0.883789 165.445 2.38379 130.945 9.38383Z" fill="#E56E90" stroke="black" stroke-width="0.5"/>
<path d="M130.945 9.3839C182.445 -2.11613 210.945 7.88391 231.445 13.3839" stroke="black" stroke-width="0.5"/>
<path d="M170.447 30.3838L173.947 8.38379C207.447 9.38379 218.947 14.8838 223.447 16.3838L225.93 28.3838C198.94 28.3844 181.445 29.8839 170.447 30.3838Z" fill="#E56E90"/>
<path d="M226.447 30.8838L223.447 16.3838C218.947 14.8838 207.447 9.38379 173.947 8.38379L170.447 30.3838C181.447 29.8838 198.947 28.3838 225.947 28.3838" stroke="black" stroke-width="0.5"/>
<path d="M164.947 8.38379C131.947 9.38379 111.947 18.3838 92.9473 35.8838L95.4473 33.8838L159.447 30.8838L164.947 8.38379Z" fill="#E56E90" stroke="black" stroke-width="0.5"/>
<path d="M239.445 22.8838C235.779 20.2171 229.945 17.8838 223.445 16.3838L225.945 28.3838H232.445C235.445 26.8838 238.445 24.6525 239.445 22.8838Z" fill="#E56E90" stroke="black" stroke-width="0.5"/>
<path d="M96.4473 78.8838H163.447L197.947 77.3838H212.447L212.947 82.8838H198.947H97.9473H86.4473V78.8838H96.4473Z" fill="#E56E90"/>
<path d="M96.4473 78.8838H163.447L197.947 77.3838M96.4473 78.8838C96.4473 80.3838 96.9473 81.3838 97.9473 82.8838M96.4473 78.8838H86.4473V82.8838H97.9473M197.947 77.3838L198.947 82.8838M197.947 77.3838H212.447L212.947 82.8838H198.947M198.947 82.8838H97.9473" stroke="black" stroke-width="0.5"/>
<path d="M96.4464 78.8838C91.9473 74.3838 88.9473 52.3838 92.9464 35.8838L164.947 31.8838C160.947 36.8838 159.947 70.8838 163.447 78.8838H96.4464Z" fill="#E56E90" stroke="black" stroke-width="0.5"/>
<path d="M228.447 30.8838L164.947 31.8838C160.947 36.8838 159.948 70.8838 163.447 78.8838L197.947 77.3838C202.447 75.8838 208.947 70.3838 228.447 30.8838Z" fill="#E56E90" stroke="black" stroke-width="0.5"/>
<path d="M170.447 30.3839C165.947 30.8839 162.447 30.8839 159.447 30.8839L164.947 8.38386C167.947 7.88379 170.947 7.88379 173.947 8.38386L170.447 30.3839Z" fill="#E56E90" stroke="black" stroke-width="0.5"/>
<path d="M98.9473 32.384C103.447 37.884 110.447 34.384 114.447 32.884C115.447 17.3839 102.447 25.3839 98.9473 32.384Z" fill="#E56E90" stroke="black" stroke-width="0.5"/>
<path d="M234.445 9.88379L231.445 13.3838C248.445 18.8838 258.945 21.8838 271.445 28.3838H272.945L280.945 26.8838C265.945 20.3838 258.445 17.8838 234.445 9.88379Z" fill="#E0426F" stroke="black" stroke-width="0.5"/>
<path d="M271.445 28.3838C260.945 22.8838 241.945 16.3838 231.445 13.3838L229.445 15.8838L244.445 23.3838C242.945 25.8838 238.945 27.8838 232.945 30.5838C244.945 29.8838 261.945 28.8838 271.445 28.3838Z" fill="#E0426F" stroke="black" stroke-width="0.5"/>
<path d="M276.947 34.6838L282.946 32.3838L272.446 28.3838L228.446 30.8838C220.946 45.8838 205.946 76.3838 197.946 77.3838H212.446C210.946 66.3838 220.446 42.8838 245.447 51.8838C255.947 46.3838 265.947 40.8838 276.947 34.6838Z" fill="#E0426F" stroke="black" stroke-width="0.5"/>
<path d="M277.945 34.3838C265.945 40.8838 255.945 46.3838 245.445 51.8838C249.945 54.8838 260.445 60.8838 259.445 79.8838L284.445 79.3838V77.8838C292.945 76.8838 301.445 80.3838 299.945 66.3838L301.945 56.3838C301.945 54.8838 299.445 50.8838 296.945 50.3838C298.445 47.8838 295.445 38.8838 295.445 38.8838V37.3838L291.445 34.3838L286.445 32.8838L282.945 32.3838L277.945 34.3838Z" fill="#E0426F" stroke="black" stroke-width="0.5"/>
<path d="M280.945 26.8838L272.445 28.3838L282.945 32.3838C292.445 33.3838 291.444 34.8838 295.439 37.304L294.945 28.8838L280.945 26.8838Z" fill="#E0426F"/>
<path d="M295.445 37.3838L295.439 37.304M295.439 37.304L294.945 28.8838L280.945 26.8838L272.445 28.3838L282.945 32.3838C292.445 33.3838 291.444 34.8838 295.439 37.304Z" stroke="black" stroke-width="0.5"/>
<path d="M293.947 36.884C293.447 34.3839 282.447 34.1838 276.947 34.6838" stroke="black" stroke-width="0.5"/>
<path d="M299.947 66.8838L260.447 68.8838C259.947 63.8838 257.781 59.7171 255.947 57.8838L301.947 55.3838M300.447 52.8838C289.447 51.3838 278.447 46.5838 266.447 40.5838M228.447 30.8838L272.447 28.3838L280.947 26.8838" stroke="black" stroke-width="0.5"/>
<path d="M290.447 40.8838C290.447 38.8838 289.447 34.8838 285.947 32.8838C288.168 32.8838 291.545 33.9242 294.056 36.2938C294.52 37.8238 293.447 41.3838 290.405 42.8838C290.392 42.2935 290.447 41.6081 290.447 40.8838Z" fill="#E0426F"/>
<path d="M272.447 43.3838C279.443 43.7336 285.46 43.8387 290.84 44.3838M297.447 45.3838C295.344 44.9331 293.151 44.6179 290.84 44.3838M295.447 37.8838C295.029 37.2987 294.56 36.7694 294.056 36.2938M290.84 44.3838C290.514 44.039 290.42 43.516 290.405 42.8838M290.405 42.8838C290.392 42.2935 290.447 41.6081 290.447 40.8838C290.447 38.8838 289.447 34.8838 285.947 32.8838C288.168 32.8838 291.545 33.9242 294.056 36.2938M290.405 42.8838C293.447 41.3838 294.52 37.8238 294.056 36.2938" stroke="black" stroke-width="0.5"/>
<path d="M290.447 40.8838C285.947 40.8838 283.947 36.8838 282.947 34.3838" stroke="black" stroke-width="0.5"/>
<path d="M132.445 12.9838C118.945 16.9838 106.945 22.8838 92.9453 35.8838C99.9453 23.8838 115.445 14.3838 130.945 9.38379L132.445 12.9838Z" fill="#E0426F" stroke="black" stroke-width="0.5"/>
<path d="M130.945 9.38379C110.945 15.0578 92.9453 32.3838 84.9453 30.3838C97.9453 20.8838 113.945 12.3838 130.445 7.88379L130.945 9.38379Z" fill="#E0426F" stroke="black" stroke-width="0.5"/>
<path d="M9.94598 48.3837H3.94598C1.44531 52.3837 1.44531 62.3837 1.94598 65.8837C0.445312 66.8837 0.44591 71.3837 1.44598 72.8837L5.44598 73.3837V74.8837L1.44598 76.8837V78.8837C5.44598 79.8837 13.946 81.8837 21.946 81.3837V79.8837H39.446C38.7793 71.3837 40.446 60.8837 49.446 53.8837C46.946 49.8837 39.946 45.3837 36.946 44.8837C26.946 43.8837 11.946 46.3837 9.94598 48.3837Z" fill="#E0426F" stroke="black" stroke-width="0.5"/>
<path d="M92.9473 35.8838C75.1139 36.7171 43.4473 41.5838 32.9473 44.5838L36.9473 44.8838C41.9473 46.3838 47.4473 50.7171 49.4473 53.8838C62.4463 44.3838 87.9463 51.3838 86.4463 78.8838H96.4463C89.4463 67.8838 90.4463 45.8838 92.9473 35.8838Z" fill="#E0426F" stroke="black" stroke-width="0.5"/>
<path d="M9.94531 48.3838H3.94531C36.4455 28.8837 58.4456 34.8838 84.4453 30.3838L93.4456 35.8838C76.4456 36.8838 47.4453 40.3838 33.4453 44.5838C25.4453 44.3838 11.4453 46.3838 9.94531 48.3838Z" fill="#E0426F" stroke="black" stroke-width="0.5"/>
<path d="M36.9468 44.8839C29.4468 43.8838 12.4468 45.8838 9.94677 48.3839C9.14677 50.7838 12.2801 53.7171 13.9468 54.8838C23.4468 56.3838 36.9468 50.3838 36.9468 44.8839Z" fill="#E0426F" stroke="black" stroke-width="0.5"/>
<path d="M3.94601 48.3838C10.946 49.3838 4.94601 59.8838 1.94601 64.8838C1.44594 57.8838 1.9458 52.3838 3.94601 48.3838Z" fill="#E0426F" stroke="black" stroke-width="0.5"/>
<path d="M21.9453 84.3838V79.8838H39.4453L39.9453 84.3838H21.9453Z" fill="#E0426F" stroke="black" stroke-width="0.5"/>
<path d="M2.44727 65.8838C3.94727 68.3838 5.94727 71.5505 5.44727 73.3838M21.9473 79.8838C11.4473 80.3838 6.94727 76.3838 7.94727 72.8838C8.44727 72.3838 9.94727 70.8838 10.9473 70.8838" stroke="black" stroke-width="0.5"/>
<path d="M31.9473 74.8839C29.4473 70.8839 23.9473 65.884 20.9473 64.384C19.1972 63.884 16.5721 64.009 13.8221 64.384C12.1971 65.7173 10.9473 68.8839 11.4473 71.8839C11.4473 73.0506 12.7547 75.3839 15.4473 75.3839C19.9473 75.3839 26.9473 75.8839 31.9473 74.8839Z" fill="#E0426F"/>
<path d="M5.94727 65.884C8.19721 65.384 11.0721 64.759 13.8221 64.384M13.8221 64.384C16.5721 64.009 19.1972 63.884 20.9473 64.384C23.9473 65.884 29.4473 70.8839 31.9473 74.8839C26.9473 75.8839 19.9473 75.3839 15.4473 75.3839C12.7547 75.3839 11.4473 73.0506 11.4473 71.8839C10.9473 68.8839 12.1971 65.7173 13.8221 64.384Z" stroke="black" stroke-width="0.5"/>
<path d="M11.4473 71.384C19.4473 69.884 22.9473 72.5125 25.9473 74.0125M12.9473 74.384L30.4473 73.884" stroke="black" stroke-width="0.5"/>
<path d="M21.9453 82.8838H31.4453C33.4453 82.8838 34.9453 80.8838 34.4453 79.8838M37.9453 79.8838V84.3838" stroke="black" stroke-width="0.5"/>
<path d="M21.9472 81.384C17.4472 81.384 12.9472 81.884 1.44721 78.884V76.884L5.44721 74.884V73.384L1.44721 72.884C0.946289 71.3838 -0.0535151 68.3838 1.94648 65.8838C1.44672 57.8838 1.94672 51.3838 3.94721 48.3835C36.4472 28.8839 58.4472 34.884 84.4472 30.384C162.447 -24.6161 244.447 12.3838 281.447 26.884L294.947 28.8838L295.447 35.8838V38.8838C296.946 43.8838 298.281 48.3838 296.947 50.3838C299.447 51.3838 301.947 54.5505 301.947 56.3838L299.947 66.3838C300.399 77.2317 297.991 77.456 288.66 77.7684C287.668 77.8016 285.599 77.8358 284.447 77.8838V79.3838L259.447 79.8148M21.9472 81.384V84.384H39.9456L39.4472 79.884M21.9472 81.384V79.884H39.4472M39.4472 79.884C36.4472 38.384 89.9472 41.384 86.4472 80.384V82.8838H212.947C206.947 39.3838 261.447 39.3838 259.447 79.8148M258.946 79.8148H259.447" stroke="black"/>
</svg>
