<svg width="303" height="95" viewBox="0 0 303 95" fill="none" xmlns="http://www.w3.org/2000/svg">
<circle cx="62.8652" cy="73.8914" r="20.5" fill="#EFC7D3" stroke="black"/>
<circle cx="235.865" cy="73.8914" r="20.5" fill="#EFC7D3" stroke="black"/>
<path d="M132.863 12.3912L131.363 8.89121C171.363 0.891325 192.863 1.39136 231.863 12.8913L228.363 17.3913C208.363 9.39127 190.363 8.39127 174.363 7.89133C171.863 7.39133 167.863 7.3913 165.363 7.89121C155.363 7.89133 143.363 9.39134 132.863 12.3912Z" fill="#E0426F" stroke="black" stroke-width="0.5"/>
<path d="M131.363 8.8914L130.863 7.3914C166.863 -3.60864 199.363 0.391232 234.863 9.3914L231.863 12.8914C191.863 0.391357 165.863 1.89136 131.363 8.8914Z" fill="#E0426F" stroke="black" stroke-width="0.5"/>
<path d="M131.363 8.89122C182.863 -2.6088 211.363 7.39124 231.863 12.8912" stroke="black" stroke-width="0.5"/>
<path d="M170.865 29.8914L174.365 7.89136C207.865 8.89136 219.365 14.3914 223.865 15.8914L226.348 27.8914C199.358 27.892 181.863 29.3915 170.865 29.8914Z" fill="#E0426F"/>
<path d="M226.865 30.3914L223.865 15.8914C219.365 14.3914 207.865 8.89136 174.365 7.89136L170.865 29.8914C181.865 29.3914 199.365 27.8914 226.365 27.8914" stroke="black" stroke-width="0.5"/>
<path d="M165.365 7.89136C132.365 8.89136 112.365 17.8914 93.3652 35.3914L95.8652 33.3914L159.865 30.3914L165.365 7.89136Z" fill="#E0426F" stroke="black" stroke-width="0.5"/>
<path d="M239.863 22.3914C236.197 19.7247 230.363 17.3914 223.863 15.8914L226.363 27.8914H232.863C235.863 26.3914 238.863 24.1601 239.863 22.3914Z" fill="#E0426F" stroke="black" stroke-width="0.5"/>
<path d="M96.8652 78.3914H163.865L198.365 76.8914H212.865L213.365 82.3914H199.365H98.3652H86.8652V78.3914H96.8652Z" fill="#E0426F"/>
<path d="M96.8652 78.3914H163.865L198.365 76.8914M96.8652 78.3914C96.8652 79.8914 97.3652 80.8914 98.3652 82.3914M96.8652 78.3914H86.8652V82.3914H98.3652M198.365 76.8914L199.365 82.3914M198.365 76.8914H212.865L213.365 82.3914H199.365M199.365 82.3914H98.3652" stroke="black" stroke-width="0.5"/>
<path d="M96.8644 78.3914C92.3652 73.8914 89.3653 51.8914 93.3644 35.3914L165.365 31.3914C161.365 36.3914 160.365 70.3914 163.865 78.3914H96.8644Z" fill="#E0426F" stroke="black" stroke-width="0.5"/>
<path d="M228.865 30.3914L165.365 31.3914C161.365 36.3914 160.365 70.3914 163.865 78.3914L198.365 76.8914C202.865 75.3914 209.365 69.8914 228.865 30.3914Z" fill="#E0426F" stroke="black" stroke-width="0.5"/>
<path d="M170.865 29.8914C166.365 30.3914 162.865 30.3914 159.865 30.3914L165.365 7.89143C168.365 7.39136 171.365 7.39136 174.365 7.89143L170.865 29.8914Z" fill="#E0426F" stroke="black" stroke-width="0.5"/>
<path d="M99.3652 31.8914C103.865 37.3914 110.865 33.8914 114.865 32.3914C115.865 16.8913 102.865 24.8912 99.3652 31.8914Z" fill="#E0426F" stroke="black" stroke-width="0.5"/>
<path d="M234.863 9.39136L231.863 12.8914C248.863 18.3914 259.363 21.3914 271.863 27.8914H273.363L281.363 26.3914C266.363 19.8914 258.863 17.3914 234.863 9.39136Z" fill="#E56E90" stroke="black" stroke-width="0.5"/>
<path d="M271.863 27.8914C261.363 22.3914 242.363 15.8914 231.863 12.8914L229.863 15.3914L244.863 22.8914C243.363 25.3914 239.363 27.3914 233.363 30.0914C245.363 29.3914 262.363 28.3914 271.863 27.8914Z" fill="#E56E90" stroke="black" stroke-width="0.5"/>
<path d="M277.365 34.1914L283.364 31.8914L272.864 27.8914L228.864 30.3914C221.364 45.3914 206.364 75.8914 198.364 76.8914H212.864C211.364 65.8914 220.864 42.3914 245.865 51.3914C256.365 45.8914 266.365 40.3914 277.365 34.1914Z" fill="#E56E90" stroke="black" stroke-width="0.5"/>
<path d="M278.363 33.8914C266.363 40.3914 256.363 45.8914 245.863 51.3914C250.363 54.3914 260.863 60.3914 259.863 79.3914L284.863 78.8914V77.3914C293.363 76.3914 301.863 79.8914 300.363 65.8914L302.363 55.8914C302.363 54.3914 299.863 50.3914 297.363 49.8914C298.863 47.3914 295.863 38.3914 295.863 38.3914V36.8914L291.863 33.8914L286.863 32.3914L283.363 31.8914L278.363 33.8914Z" fill="#E56E90" stroke="black" stroke-width="0.5"/>
<path d="M281.363 26.3914L272.863 27.8914L283.363 31.8914C292.863 32.8914 291.862 34.3914 295.857 36.8115L295.363 28.3914L281.363 26.3914Z" fill="#E56E90"/>
<path d="M295.863 36.8914L295.857 36.8115M295.857 36.8115L295.363 28.3914L281.363 26.3914L272.863 27.8914L283.363 31.8914C292.863 32.8914 291.862 34.3914 295.857 36.8115Z" stroke="black" stroke-width="0.5"/>
<path d="M294.365 36.3916C293.865 33.8914 282.865 33.6914 277.365 34.1914" stroke="black" stroke-width="0.5"/>
<path d="M300.365 66.3914L260.865 68.3914C260.365 63.3914 258.199 59.2247 256.365 57.3914L302.365 54.8914M300.865 52.3914C289.865 50.8914 278.865 46.0914 266.865 40.0914M228.865 30.3914L272.865 27.8914L281.365 26.3914" stroke="black" stroke-width="0.5"/>
<path d="M290.865 40.3914C290.865 38.3914 289.865 34.3914 286.365 32.3914C288.586 32.3914 291.963 33.4317 294.474 35.8013C294.938 37.3313 293.865 40.8914 290.823 42.3914C290.81 41.8011 290.865 41.1156 290.865 40.3914Z" fill="#E56E90"/>
<path d="M272.865 42.8914C279.861 43.2411 285.878 43.3462 291.258 43.8914M297.865 44.8914C295.762 44.4407 293.569 44.1255 291.258 43.8914M295.865 37.3914C295.447 36.8062 294.978 36.277 294.474 35.8013M291.258 43.8914C290.932 43.5466 290.838 43.0235 290.823 42.3914M290.823 42.3914C290.81 41.8011 290.865 41.1156 290.865 40.3914C290.865 38.3914 289.865 34.3914 286.365 32.3914C288.586 32.3914 291.963 33.4317 294.474 35.8013M290.823 42.3914C293.865 40.8914 294.938 37.3313 294.474 35.8013" stroke="black" stroke-width="0.5"/>
<path d="M290.865 40.3914C286.365 40.3914 284.365 36.3914 283.365 33.8914" stroke="black" stroke-width="0.5"/>
<path d="M132.863 12.4913C119.363 16.4913 107.363 22.3914 93.3633 35.3914C100.363 23.3914 115.863 13.8914 131.363 8.89136L132.863 12.4913Z" fill="#EDADBF" stroke="black" stroke-width="0.5"/>
<path d="M131.363 8.89136C111.363 14.5654 93.3633 31.8914 85.3633 29.8914C98.3633 20.3914 114.363 11.8914 130.863 7.39136L131.363 8.89136Z" fill="#EDADBF" stroke="black" stroke-width="0.5"/>
<path d="M10.3639 47.8912H4.36395C1.86328 51.8912 1.86328 61.8912 2.36395 65.3912C0.863281 66.3912 0.863879 70.8912 1.86395 72.3912L5.86395 72.8912V74.3912L1.86395 76.3912V78.3912C5.86395 79.3912 14.3639 81.3912 22.3639 80.8912V79.3912H39.8639C39.1973 70.8912 40.8639 60.3912 49.8639 53.3912C47.3639 49.3912 40.3639 44.8912 37.3639 44.3912C27.3639 43.3912 12.3639 45.8912 10.3639 47.8912Z" fill="#EDADBF" stroke="black" stroke-width="0.5"/>
<path d="M93.3652 35.3914C75.5319 36.2247 43.8652 41.0914 33.3652 44.0914L37.3652 44.3914C42.3652 45.8914 47.8652 50.2247 49.8652 53.3914C62.8643 43.8914 88.3643 50.8914 86.8643 78.3914H96.8643C89.8643 67.3914 90.8643 45.3914 93.3652 35.3914Z" fill="#EDADBF" stroke="black" stroke-width="0.5"/>
<path d="M10.3633 47.8914H4.36328C36.8635 28.3913 58.8635 34.3914 84.8633 29.8914L93.8635 35.3914C76.8635 36.3914 47.8633 39.8914 33.8633 44.0914C25.8633 43.8913 11.8633 45.8914 10.3633 47.8914Z" fill="#EDADBF" stroke="black" stroke-width="0.5"/>
<path d="M37.3647 44.3914C29.8647 43.3914 12.8647 45.3914 10.3647 47.8914C9.56474 50.2914 12.6981 53.2247 14.3647 54.3914C23.8647 55.8914 37.3647 49.8914 37.3647 44.3914Z" fill="#EDADBF" stroke="black" stroke-width="0.5"/>
<path d="M4.36398 47.8914C11.364 48.8914 5.36398 59.3914 2.36398 64.3914C1.86391 57.3914 2.36377 51.8914 4.36398 47.8914Z" fill="#EDADBF" stroke="black" stroke-width="0.5"/>
<path d="M22.3633 83.8914V79.3914H39.8633L40.3633 83.8914H22.3633Z" fill="#EDADBF" stroke="black" stroke-width="0.5"/>
<path d="M2.86523 65.3911C4.36523 67.8911 6.36523 71.0578 5.86523 72.8911M22.3652 79.3911C11.8652 79.8911 7.36523 75.8911 8.36523 72.3911C8.86523 71.8911 10.3652 70.3911 11.3652 70.3911" stroke="black" stroke-width="0.5"/>
<path d="M32.3652 74.3912C29.8652 70.3912 24.3652 65.3913 21.3652 63.8913C19.6152 63.3913 16.9901 63.5163 14.24 63.8913C12.6151 65.2246 11.3652 68.3912 11.8652 71.3912C11.8652 72.5579 13.1727 74.8912 15.8652 74.8912C20.3652 74.8912 27.3652 75.3912 32.3652 74.3912Z" fill="#EDADBF"/>
<path d="M6.36523 65.3913C8.61518 64.8913 11.4901 64.2663 14.24 63.8913M14.24 63.8913C16.9901 63.5163 19.6152 63.3913 21.3652 63.8913C24.3652 65.3913 29.8652 70.3912 32.3652 74.3912C27.3652 75.3912 20.3652 74.8912 15.8652 74.8912C13.1727 74.8912 11.8652 72.5579 11.8652 71.3912C11.3652 68.3912 12.6151 65.2246 14.24 63.8913Z" stroke="black" stroke-width="0.5"/>
<path d="M11.8652 70.8913C19.8652 69.3914 23.3652 72.0198 26.3652 73.5198M13.3652 73.8914L30.8652 73.3914" stroke="black" stroke-width="0.5"/>
<path d="M22.3633 82.3911H31.8633C33.8633 82.3911 35.3633 80.3911 34.8633 79.3911M38.3633 79.3911V83.8911" stroke="black" stroke-width="0.5"/>
<path d="M22.3652 80.8916C17.8652 80.8916 13.3652 81.3916 1.86518 78.3916V76.3916L5.86518 74.3916V72.8916L1.86518 72.3916C1.36426 70.8914 0.364454 67.8914 2.36445 65.3914C1.86469 57.3914 2.36469 50.8914 4.36518 47.8911C36.8652 28.3915 58.8652 34.3915 84.8652 29.8915C162.865 -25.1086 244.865 11.8913 281.865 26.3915L295.365 28.3914L295.865 35.3914V38.3914C297.364 43.3914 298.699 47.8914 297.365 49.8914C299.865 50.8914 302.365 54.058 302.365 55.8914L300.365 65.8914C300.817 76.7393 298.409 76.9635 289.077 77.276C288.086 77.3092 286.017 77.3434 284.865 77.3914V78.8914L259.865 79.3224M22.3652 80.8916V83.8916H40.3635L39.8652 79.3916M22.3652 80.8916V79.3916H39.8652M39.8652 79.3916C36.8652 37.8916 90.3652 40.8916 86.8652 79.8916V82.3914H213.365C207.365 38.8914 261.865 38.8914 259.865 79.3224M259.364 79.3224H259.865" stroke="black"/>
</svg>
