<svg width="303" height="95" viewBox="0 0 303 95" fill="none" xmlns="http://www.w3.org/2000/svg">
<circle cx="62.4473" cy="73.6919" r="20.5" fill="#E0426F" stroke="black"/>
<circle cx="235.447" cy="73.6919" r="20.5" fill="#E0426F" stroke="black"/>
<path d="M132.445 12.1918L130.945 8.69175C170.945 0.691862 192.445 1.19189 231.445 12.6918L227.945 17.1918C207.945 9.1918 189.945 8.1918 173.945 7.69187C171.445 7.19187 167.445 7.19183 164.945 7.69175C154.945 7.69187 142.945 9.19187 132.445 12.1918Z" fill="#EFC7D3" stroke="black" stroke-width="0.5"/>
<path d="M130.945 8.69194L130.445 7.19194C166.445 -3.80811 198.945 0.191769 234.445 9.19194L231.445 12.6919C191.445 0.191895 165.445 1.69189 130.945 8.69194Z" fill="#EFC7D3" stroke="black" stroke-width="0.5"/>
<path d="M130.945 8.692C182.445 -2.80802 210.945 7.19202 231.445 12.692" stroke="black" stroke-width="0.5"/>
<path d="M170.447 29.6919L173.947 7.69189C207.447 8.69189 218.947 14.1919 223.447 15.6919L225.93 27.6919C198.94 27.6925 181.445 29.192 170.447 29.6919Z" fill="#EFC7D3"/>
<path d="M226.447 30.1919L223.447 15.6919C218.947 14.1919 207.447 8.69189 173.947 7.69189L170.447 29.6919C181.447 29.1919 198.947 27.6919 225.947 27.6919" stroke="black" stroke-width="0.5"/>
<path d="M164.947 7.69189C131.947 8.69189 111.947 17.6919 92.9473 35.1919L95.4473 33.1919L159.447 30.1919L164.947 7.69189Z" fill="#EFC7D3" stroke="black" stroke-width="0.5"/>
<path d="M239.445 22.1919C235.779 19.5252 229.945 17.1919 223.445 15.6919L225.945 27.6919H232.445C235.445 26.1919 238.445 23.9606 239.445 22.1919Z" fill="#EFC7D3" stroke="black" stroke-width="0.5"/>
<path d="M96.4473 78.1919H163.447L197.947 76.6919H212.447L212.947 82.1919H198.947H97.9473H86.4473V78.1919H96.4473Z" fill="#EFC7D3"/>
<path d="M96.4473 78.1919H163.447L197.947 76.6919M96.4473 78.1919C96.4473 79.6919 96.9473 80.6919 97.9473 82.1919M96.4473 78.1919H86.4473V82.1919H97.9473M197.947 76.6919L198.947 82.1919M197.947 76.6919H212.447L212.947 82.1919H198.947M198.947 82.1919H97.9473" stroke="black" stroke-width="0.5"/>
<path d="M96.4464 78.1919C91.9473 73.6919 88.9473 51.6919 92.9464 35.1919L164.947 31.1919C160.947 36.1919 159.947 70.1919 163.447 78.1919H96.4464Z" fill="#EFC7D3" stroke="black" stroke-width="0.5"/>
<path d="M228.447 30.1919L164.947 31.1919C160.947 36.1919 159.948 70.1919 163.447 78.1919L197.947 76.6919C202.447 75.1919 208.947 69.6919 228.447 30.1919Z" fill="#EFC7D3" stroke="black" stroke-width="0.5"/>
<path d="M170.447 29.692C165.947 30.192 162.447 30.192 159.447 30.192L164.947 7.69197C167.947 7.19189 170.947 7.19189 173.947 7.69197L170.447 29.692Z" fill="#EFC7D3" stroke="black" stroke-width="0.5"/>
<path d="M98.9473 31.6922C103.447 37.1922 110.447 33.6922 114.447 32.1922C115.447 16.692 102.447 24.692 98.9473 31.6922Z" fill="#EFC7D3" stroke="black" stroke-width="0.5"/>
<path d="M234.445 9.19189L231.445 12.6919C248.445 18.1919 258.945 21.1919 271.445 27.6919H272.945L280.945 26.1919C265.945 19.6919 258.445 17.1919 234.445 9.19189Z" fill="#E0426F" stroke="black" stroke-width="0.5"/>
<path d="M271.445 27.6919C260.945 22.1919 241.945 15.6919 231.445 12.6919L229.445 15.1919L244.445 22.6919C242.945 25.1919 238.945 27.1919 232.945 29.8919C244.945 29.1919 261.945 28.1919 271.445 27.6919Z" fill="#E0426F" stroke="black" stroke-width="0.5"/>
<path d="M276.947 33.9919L282.946 31.6919L272.446 27.6919L228.446 30.1919C220.946 45.1919 205.946 75.6919 197.946 76.6919H212.446C210.946 65.6919 220.446 42.1919 245.447 51.1919C255.947 45.6919 265.947 40.1919 276.947 33.9919Z" fill="#E0426F" stroke="black" stroke-width="0.5"/>
<path d="M277.945 33.6919C265.945 40.1919 255.945 45.6919 245.445 51.1919C249.945 54.1919 260.445 60.1919 259.445 79.1919L284.445 78.6919V77.1919C292.945 76.1919 301.445 79.6919 299.945 65.6919L301.945 55.6919C301.945 54.1919 299.445 50.1919 296.945 49.6919C298.445 47.1919 295.445 38.1919 295.445 38.1919V36.6919L291.445 33.6919L286.445 32.1919L282.945 31.6919L277.945 33.6919Z" fill="#E0426F" stroke="black" stroke-width="0.5"/>
<path d="M280.945 26.1919L272.445 27.6919L282.945 31.6919C292.445 32.6919 291.444 34.1919 295.439 36.6121L294.945 28.1919L280.945 26.1919Z" fill="#E0426F"/>
<path d="M295.445 36.6919L295.439 36.6121M295.439 36.6121L294.945 28.1919L280.945 26.1919L272.445 27.6919L282.945 31.6919C292.445 32.6919 291.444 34.1919 295.439 36.6121Z" stroke="black" stroke-width="0.5"/>
<path d="M293.947 36.1921C293.447 33.692 282.447 33.4919 276.947 33.9919" stroke="black" stroke-width="0.5"/>
<path d="M299.947 66.1919L260.447 68.1919C259.947 63.1919 257.781 59.0252 255.947 57.1919L301.947 54.6919M300.447 52.1919C289.447 50.6919 278.447 45.8919 266.447 39.8919M228.447 30.1919L272.447 27.6919L280.947 26.1919" stroke="black" stroke-width="0.5"/>
<path d="M290.447 40.1919C290.447 38.1919 289.447 34.1919 285.947 32.1919C288.168 32.1919 291.545 33.2323 294.056 35.6019C294.52 37.1319 293.447 40.6919 290.405 42.1919C290.392 41.6016 290.447 40.9162 290.447 40.1919Z" fill="#E0426F"/>
<path d="M272.447 42.6919C279.443 43.0417 285.46 43.1468 290.84 43.6919M297.447 44.6919C295.344 44.2413 293.151 43.926 290.84 43.6919M295.447 37.1919C295.029 36.6068 294.56 36.0775 294.056 35.6019M290.84 43.6919C290.514 43.3471 290.42 42.8241 290.405 42.1919M290.405 42.1919C290.392 41.6016 290.447 40.9162 290.447 40.1919C290.447 38.1919 289.447 34.1919 285.947 32.1919C288.168 32.1919 291.545 33.2323 294.056 35.6019M290.405 42.1919C293.447 40.6919 294.52 37.1319 294.056 35.6019" stroke="black" stroke-width="0.5"/>
<path d="M290.447 40.1919C285.947 40.1919 283.947 36.1919 282.947 33.6919" stroke="black" stroke-width="0.5"/>
<path d="M132.445 12.2919C118.945 16.2919 106.945 22.1919 92.9453 35.1919C99.9453 23.1919 115.445 13.6919 130.945 8.69189L132.445 12.2919Z" fill="#E0426F" stroke="black" stroke-width="0.5"/>
<path d="M130.945 8.69189C110.945 14.3659 92.9453 31.6919 84.9453 29.6919C97.9453 20.1919 113.945 11.6919 130.445 7.19189L130.945 8.69189Z" fill="#E0426F" stroke="black" stroke-width="0.5"/>
<path d="M9.94598 47.6918H3.94598C1.44531 51.6918 1.44531 61.6918 1.94598 65.1918C0.445312 66.1918 0.44591 70.6918 1.44598 72.1918L5.44598 72.6918V74.1918L1.44598 76.1918V78.1918C5.44598 79.1918 13.946 81.1918 21.946 80.6918V79.1918H39.446C38.7793 70.6918 40.446 60.1918 49.446 53.1918C46.946 49.1918 39.946 44.6918 36.946 44.1918C26.946 43.1918 11.946 45.6918 9.94598 47.6918Z" fill="#E0426F" stroke="black" stroke-width="0.5"/>
<path d="M92.9473 35.1919C75.1139 36.0252 43.4473 40.8919 32.9473 43.8919L36.9473 44.1919C41.9473 45.6919 47.4473 50.0252 49.4473 53.1919C62.4463 43.6919 87.9463 50.6919 86.4463 78.1919H96.4463C89.4463 67.1919 90.4463 45.1919 92.9473 35.1919Z" fill="#E0426F" stroke="black" stroke-width="0.5"/>
<path d="M9.94531 47.6919H3.94531C36.4455 28.1918 58.4456 34.1919 84.4453 29.6919L93.4456 35.1919C76.4456 36.1919 47.4453 39.6919 33.4453 43.8919C25.4453 43.6919 11.4453 45.6919 9.94531 47.6919Z" fill="#E0426F" stroke="black" stroke-width="0.5"/>
<path d="M36.9468 44.192C29.4468 43.1919 12.4468 45.1919 9.94677 47.692C9.14677 50.0919 12.2801 53.0252 13.9468 54.1919C23.4468 55.6919 36.9468 49.6919 36.9468 44.192Z" fill="#E0426F" stroke="black" stroke-width="0.5"/>
<path d="M3.94601 47.6919C10.946 48.6919 4.94601 59.1919 1.94601 64.1919C1.44594 57.1919 1.9458 51.6919 3.94601 47.6919Z" fill="#E0426F" stroke="black" stroke-width="0.5"/>
<path d="M21.9453 83.6919V79.1919H39.4453L39.9453 83.6919H21.9453Z" fill="#E0426F" stroke="black" stroke-width="0.5"/>
<path d="M2.44727 65.1919C3.94727 67.6919 5.94727 70.8586 5.44727 72.6919M21.9473 79.1919C11.4473 79.6919 6.94727 75.6919 7.94727 72.1919C8.44727 71.6919 9.94727 70.1919 10.9473 70.1919" stroke="black" stroke-width="0.5"/>
<path d="M31.9473 74.192C29.4473 70.192 23.9473 65.1921 20.9473 63.6921C19.1972 63.1921 16.5721 63.3171 13.8221 63.6921C12.1971 65.0254 10.9473 68.192 11.4473 71.192C11.4473 72.3587 12.7547 74.692 15.4473 74.692C19.9473 74.692 26.9473 75.192 31.9473 74.192Z" fill="#E0426F"/>
<path d="M5.94727 65.1921C8.19721 64.6921 11.0721 64.0671 13.8221 63.6921M13.8221 63.6921C16.5721 63.3171 19.1972 63.1921 20.9473 63.6921C23.9473 65.1921 29.4473 70.192 31.9473 74.192C26.9473 75.192 19.9473 74.692 15.4473 74.692C12.7547 74.692 11.4473 72.3587 11.4473 71.192C10.9473 68.192 12.1971 65.0254 13.8221 63.6921Z" stroke="black" stroke-width="0.5"/>
<path d="M11.4473 70.6921C19.4473 69.1921 22.9473 71.8206 25.9473 73.3206M12.9473 73.6921L30.4473 73.1921" stroke="black" stroke-width="0.5"/>
<path d="M21.9453 82.1919H31.4453C33.4453 82.1919 34.9453 80.1919 34.4453 79.1919M37.9453 79.1919V83.6919" stroke="black" stroke-width="0.5"/>
<path d="M21.9472 80.6921C17.4472 80.6921 12.9472 81.1921 1.44721 78.1921V76.1921L5.44721 74.1921V72.6921L1.44721 72.1921C0.946289 70.6919 -0.0535151 67.6919 1.94648 65.1919C1.44672 57.1919 1.94672 50.6919 3.94721 47.6916C36.4472 28.192 58.4472 34.1921 84.4472 29.6921C162.447 -25.308 244.447 11.6919 281.447 26.1921L294.947 28.1919L295.447 35.1919V38.1919C296.946 43.1919 298.281 47.6919 296.947 49.6919C299.447 50.6919 301.947 53.8586 301.947 55.6919L299.947 65.6919C300.399 76.5398 297.991 76.7641 288.66 77.0765C287.668 77.1097 285.599 77.1439 284.447 77.1919V78.6919L259.447 79.1229M21.9472 80.6921V83.6921H39.9456L39.4472 79.1921M21.9472 80.6921V79.1921H39.4472M39.4472 79.1921C36.4472 37.6921 89.9472 40.6921 86.4472 79.6921V82.1919H212.947C206.947 38.6919 261.447 38.6919 259.447 79.1229M258.946 79.1229H259.447" stroke="black"/>
</svg>
