<svg width="303" height="96" viewBox="0 0 303 96" fill="none" xmlns="http://www.w3.org/2000/svg">
<circle cx="62.4473" cy="74.2297" r="20.5" fill="#E0426F" stroke="black"/>
<circle cx="235.447" cy="74.2297" r="20.5" fill="#E0426F" stroke="black"/>
<path d="M132.445 12.7296L130.945 9.22959C170.945 1.2297 192.445 1.72974 231.445 13.2297L227.945 17.7297C207.945 9.72965 189.945 8.72964 173.945 8.22971C171.445 7.72971 167.445 7.72968 164.945 8.22959C154.945 8.22971 142.945 9.72971 132.445 12.7296Z" fill="#E0426F" stroke="black" stroke-width="0.5"/>
<path d="M130.945 9.22978L130.445 7.72978C166.445 -3.27026 198.945 0.72961 234.445 9.72978L231.445 13.2298C191.445 0.729736 165.445 2.22974 130.945 9.22978Z" fill="#E0426F" stroke="black" stroke-width="0.5"/>
<path d="M130.945 9.2296C182.445 -2.27042 210.945 7.72961 231.445 13.2296" stroke="black" stroke-width="0.5"/>
<path d="M170.447 30.2297L173.947 8.22974C207.447 9.22974 218.947 14.7297 223.447 16.2297L225.93 28.2297C198.94 28.2304 181.445 29.7298 170.447 30.2297Z" fill="#E0426F"/>
<path d="M226.447 30.7297L223.447 16.2297C218.947 14.7297 207.447 9.22974 173.947 8.22974L170.447 30.2297C181.447 29.7297 198.947 28.2297 225.947 28.2297" stroke="black" stroke-width="0.5"/>
<path d="M164.947 8.22974C131.947 9.22974 111.947 18.2297 92.9473 35.7297L95.4473 33.7297L159.447 30.7297L164.947 8.22974Z" fill="#E0426F" stroke="black" stroke-width="0.5"/>
<path d="M239.445 22.7297C235.779 20.0631 229.945 17.7297 223.445 16.2297L225.945 28.2297H232.445C235.445 26.7297 238.445 24.4985 239.445 22.7297Z" fill="#E0426F" stroke="black" stroke-width="0.5"/>
<path d="M96.4473 78.7297H163.447L197.947 77.2297H212.447L212.947 82.7297H198.947H97.9473H86.4473V78.7297H96.4473Z" fill="#E0426F"/>
<path d="M96.4473 78.7297H163.447L197.947 77.2297M96.4473 78.7297C96.4473 80.2297 96.9473 81.2297 97.9473 82.7297M96.4473 78.7297H86.4473V82.7297H97.9473M197.947 77.2297L198.947 82.7297M197.947 77.2297H212.447L212.947 82.7297H198.947M198.947 82.7297H97.9473" stroke="black" stroke-width="0.5"/>
<path d="M96.4464 78.7297C91.9473 74.2297 88.9473 52.2297 92.9464 35.7297L164.947 31.7297C160.947 36.7297 159.947 70.7297 163.447 78.7297H96.4464Z" fill="#E0426F" stroke="black" stroke-width="0.5"/>
<path d="M228.447 30.7297L164.947 31.7297C160.947 36.7297 159.948 70.7297 163.447 78.7297L197.947 77.2297C202.447 75.7297 208.947 70.2297 228.447 30.7297Z" fill="#E0426F" stroke="black" stroke-width="0.5"/>
<path d="M170.447 30.2298C165.947 30.7298 162.447 30.7298 159.447 30.7298L164.947 8.22981C167.947 7.72974 170.947 7.72974 173.947 8.22981L170.447 30.2298Z" fill="#E0426F" stroke="black" stroke-width="0.5"/>
<path d="M98.9473 32.2297C103.447 37.7297 110.447 34.2297 114.447 32.7297C115.447 17.2296 102.447 25.2296 98.9473 32.2297Z" fill="#E0426F" stroke="black" stroke-width="0.5"/>
<path d="M234.445 9.72974L231.445 13.2297C248.445 18.7297 258.945 21.7297 271.445 28.2297H272.945L280.945 26.7297C265.945 20.2297 258.445 17.7297 234.445 9.72974Z" fill="#E0426F" stroke="black" stroke-width="0.5"/>
<path d="M271.445 28.2297C260.945 22.7297 241.945 16.2297 231.445 13.2297L229.445 15.7297L244.445 23.2297C242.945 25.7297 238.945 27.7297 232.945 30.4297C244.945 29.7297 261.945 28.7297 271.445 28.2297Z" fill="#E0426F" stroke="black" stroke-width="0.5"/>
<path d="M276.947 34.5297L282.946 32.2297L272.446 28.2297L228.446 30.7297C220.946 45.7297 205.946 76.2297 197.946 77.2297H212.446C210.946 66.2297 220.446 42.7297 245.447 51.7297C255.947 46.2297 265.947 40.7297 276.947 34.5297Z" fill="#E0426F" stroke="black" stroke-width="0.5"/>
<path d="M277.945 34.2298C265.945 40.7298 255.945 46.2298 245.445 51.7298C249.945 54.7297 260.445 60.7297 259.445 79.7297L284.445 79.2297V77.7297C292.945 76.7297 301.445 80.2297 299.945 66.2297L301.945 56.2297C301.945 54.7297 299.445 50.7297 296.945 50.2297C298.445 47.7297 295.445 38.7297 295.445 38.7297V37.2297L291.445 34.2297L286.445 32.7297L282.945 32.2297L277.945 34.2298Z" fill="#E0426F" stroke="black" stroke-width="0.5"/>
<path d="M280.945 26.7297L272.445 28.2297L282.945 32.2297C292.445 33.2297 291.444 34.7297 295.439 37.1499L294.945 28.7297L280.945 26.7297Z" fill="#E0426F"/>
<path d="M295.445 37.2297L295.439 37.1499M295.439 37.1499L294.945 28.7297L280.945 26.7297L272.445 28.2297L282.945 32.2297C292.445 33.2297 291.444 34.7297 295.439 37.1499Z" stroke="black" stroke-width="0.5"/>
<path d="M293.947 36.7299C293.447 34.2298 282.447 34.0297 276.947 34.5297" stroke="black" stroke-width="0.5"/>
<path d="M299.947 66.7297L260.447 68.7297C259.947 63.7297 257.781 59.5631 255.947 57.7297L301.947 55.2297M300.447 52.7297C289.447 51.2297 278.447 46.4297 266.447 40.4297M228.447 30.7297L272.447 28.2297L280.947 26.7297" stroke="black" stroke-width="0.5"/>
<path d="M290.447 40.7297C290.447 38.7297 289.447 34.7297 285.947 32.7297C288.168 32.7297 291.545 33.7701 294.056 36.1397C294.52 37.6697 293.447 41.2297 290.405 42.7297C290.392 42.1395 290.447 41.454 290.447 40.7297Z" fill="#E0426F"/>
<path d="M272.447 43.2297C279.443 43.5795 285.46 43.6846 290.84 44.2297M297.447 45.2297C295.344 44.7791 293.151 44.4638 290.84 44.2297M295.447 37.7297C295.029 37.1446 294.56 36.6154 294.056 36.1397M290.84 44.2297C290.514 43.885 290.42 43.3619 290.405 42.7297M290.405 42.7297C290.392 42.1395 290.447 41.454 290.447 40.7297C290.447 38.7297 289.447 34.7297 285.947 32.7297C288.168 32.7297 291.545 33.7701 294.056 36.1397M290.405 42.7297C293.447 41.2297 294.52 37.6697 294.056 36.1397" stroke="black" stroke-width="0.5"/>
<path d="M290.447 40.7297C285.947 40.7297 283.947 36.7297 282.947 34.2297" stroke="black" stroke-width="0.5"/>
<path d="M132.445 12.8297C118.945 16.8297 106.945 22.7297 92.9453 35.7297C99.9453 23.7297 115.445 14.2297 130.945 9.22974L132.445 12.8297Z" fill="#E0426F" stroke="black" stroke-width="0.5"/>
<path d="M130.945 9.22974C110.945 14.9038 92.9453 32.2297 84.9453 30.2297C97.9453 20.7297 113.945 12.2297 130.445 7.72974L130.945 9.22974Z" fill="#E0426F" stroke="black" stroke-width="0.5"/>
<path d="M9.94598 48.2296H3.94598C1.44531 52.2296 1.44531 62.2296 1.94598 65.7296C0.445312 66.7296 0.44591 71.2296 1.44598 72.7296L5.44598 73.2296V74.7296L1.44598 76.7296V78.7296C5.44598 79.7296 13.946 81.7296 21.946 81.2296V79.7296H39.446C38.7793 71.2296 40.446 60.7296 49.446 53.7296C46.946 49.7296 39.946 45.2296 36.946 44.7296C26.946 43.7296 11.946 46.2296 9.94598 48.2296Z" fill="#E0426F" stroke="black" stroke-width="0.5"/>
<path d="M92.9473 35.7297C75.1139 36.5631 43.4473 41.4297 32.9473 44.4297L36.9473 44.7297C41.9473 46.2297 47.4473 50.5631 49.4473 53.7297C62.4463 44.2297 87.9463 51.2297 86.4463 78.7297H96.4463C89.4463 67.7297 90.4463 45.7297 92.9473 35.7297Z" fill="#E0426F" stroke="black" stroke-width="0.5"/>
<path d="M9.94531 48.2298H3.94531C36.4455 28.7297 58.4456 34.7297 84.4453 30.2297L93.4456 35.7297C76.4456 36.7297 47.4453 40.2297 33.4453 44.4297C25.4453 44.2297 11.4453 46.2297 9.94531 48.2298Z" fill="#E0426F" stroke="black" stroke-width="0.5"/>
<path d="M36.9468 44.7298C29.4468 43.7297 12.4468 45.7297 9.94677 48.2298C9.14677 50.6298 12.2801 53.5631 13.9468 54.7297C23.4468 56.2297 36.9468 50.2297 36.9468 44.7298Z" fill="#E0426F" stroke="black" stroke-width="0.5"/>
<path d="M3.94601 48.2297C10.946 49.2297 4.94601 59.7297 1.94601 64.7297C1.44594 57.7297 1.9458 52.2297 3.94601 48.2297Z" fill="#E0426F" stroke="black" stroke-width="0.5"/>
<path d="M21.9453 84.2297V79.7297H39.4453L39.9453 84.2297H21.9453Z" fill="#E0426F" stroke="black" stroke-width="0.5"/>
<path d="M2.44727 65.7295C3.94727 68.2295 5.94727 71.3962 5.44727 73.2295M21.9473 79.7295C11.4473 80.2295 6.94727 76.2295 7.94727 72.7295C8.44727 72.2295 9.94727 70.7295 10.9473 70.7295" stroke="black" stroke-width="0.5"/>
<path d="M31.9473 74.7296C29.4473 70.7296 23.9473 65.7297 20.9473 64.2297C19.1972 63.7297 16.5721 63.8547 13.8221 64.2297C12.1971 65.563 10.9473 68.7296 11.4473 71.7296C11.4473 72.8963 12.7547 75.2296 15.4473 75.2296C19.9473 75.2296 26.9473 75.7296 31.9473 74.7296Z" fill="#E0426F"/>
<path d="M5.94727 65.7297C8.19721 65.2297 11.0721 64.6047 13.8221 64.2297M13.8221 64.2297C16.5721 63.8547 19.1972 63.7297 20.9473 64.2297C23.9473 65.7297 29.4473 70.7296 31.9473 74.7296C26.9473 75.7296 19.9473 75.2296 15.4473 75.2296C12.7547 75.2296 11.4473 72.8963 11.4473 71.7296C10.9473 68.7296 12.1971 65.563 13.8221 64.2297Z" stroke="black" stroke-width="0.5"/>
<path d="M11.4473 71.2297C19.4473 69.7297 22.9473 72.3582 25.9473 73.8582M12.9473 74.2297L30.4473 73.7297" stroke="black" stroke-width="0.5"/>
<path d="M21.9453 82.7295H31.4453C33.4453 82.7295 34.9453 80.7295 34.4453 79.7295M37.9453 79.7295V84.2295" stroke="black" stroke-width="0.5"/>
<path d="M21.9472 81.23C17.4472 81.23 12.9472 81.73 1.44721 78.73V76.73L5.44721 74.73V73.23L1.44721 72.73C0.946289 71.2297 -0.0535151 68.2297 1.94648 65.7297C1.44672 57.7297 1.94672 51.2297 3.94721 48.2295C36.4472 28.7299 58.4472 34.7299 84.4472 30.2299C162.447 -24.7702 244.447 12.2297 281.447 26.7299L294.947 28.7297L295.447 35.7297V38.7297C296.946 43.7297 298.281 48.2297 296.947 50.2297C299.447 51.2297 301.947 54.3964 301.947 56.2297L299.947 66.2297C300.399 77.0776 297.991 77.3019 288.66 77.6144C287.668 77.6476 285.599 77.6817 284.447 77.7297V79.2297L259.447 79.6608M21.9472 81.23V84.23H39.9456L39.4472 79.73M21.9472 81.23V79.73H39.4472M39.4472 79.73C36.4472 38.23 89.9472 41.23 86.4472 80.23V82.7297H212.947C206.947 39.2297 261.447 39.2297 259.447 79.6608M258.946 79.6608H259.447" stroke="black"/>
</svg>
