<svg width="303" height="96" viewBox="0 0 303 96" fill="none" xmlns="http://www.w3.org/2000/svg">
<circle cx="62.4795" cy="74.1995" r="20.5" fill="#E0426F" stroke="black"/>
<circle cx="235.479" cy="74.1995" r="20.5" fill="#E0426F" stroke="black"/>
<path d="M132.478 12.6993L130.978 9.19932C170.978 1.19943 192.478 1.69946 231.478 13.1994L227.978 17.6994C207.978 9.69937 189.978 8.69937 173.978 8.19944C171.478 7.69944 167.478 7.6994 164.978 8.19932C154.978 8.19944 142.978 9.69944 132.478 12.6993Z" fill="#EDADBF" stroke="black" stroke-width="0.5"/>
<path d="M130.978 9.19951L130.478 7.69951C166.478 -3.30054 198.978 0.699337 234.478 9.69951L231.478 13.1995C191.478 0.699463 165.478 2.19946 130.978 9.19951Z" fill="#EDADBF" stroke="black" stroke-width="0.5"/>
<path d="M130.978 9.19933C182.478 -2.3007 210.978 7.69934 231.478 13.1993" stroke="black" stroke-width="0.5"/>
<path d="M170.479 30.1995L173.979 8.19946C207.479 9.19946 218.979 14.6995 223.479 16.1995L225.962 28.1995C198.972 28.2001 181.477 29.6996 170.479 30.1995Z" fill="#EDADBF"/>
<path d="M226.479 30.6995L223.479 16.1995C218.979 14.6995 207.479 9.19946 173.979 8.19946L170.479 30.1995C181.479 29.6995 198.979 28.1995 225.979 28.1995" stroke="black" stroke-width="0.5"/>
<path d="M164.979 8.19946C131.979 9.19946 111.979 18.1995 92.9795 35.6995L95.4795 33.6995L159.479 30.6995L164.979 8.19946Z" fill="#EDADBF" stroke="black" stroke-width="0.5"/>
<path d="M239.478 22.6995C235.811 20.0328 229.978 17.6995 223.478 16.1995L225.978 28.1995H232.478C235.478 26.6995 238.478 24.4682 239.478 22.6995Z" fill="#EDADBF" stroke="black" stroke-width="0.5"/>
<path d="M96.4795 78.6995H163.479L197.979 77.1995H212.479L212.979 82.6995H198.979H97.9795H86.4795V78.6995H96.4795Z" fill="#EDADBF"/>
<path d="M96.4795 78.6995H163.479L197.979 77.1995M96.4795 78.6995C96.4795 80.1995 96.9795 81.1995 97.9795 82.6995M96.4795 78.6995H86.4795V82.6995H97.9795M197.979 77.1995L198.979 82.6995M197.979 77.1995H212.479L212.979 82.6995H198.979M198.979 82.6995H97.9795" stroke="black" stroke-width="0.5"/>
<path d="M96.4786 78.6995C91.9795 74.1995 88.9795 52.1995 92.9786 35.6995L164.979 31.6995C160.979 36.6995 159.979 70.6995 163.479 78.6995H96.4786Z" fill="#EDADBF" stroke="black" stroke-width="0.5"/>
<path d="M228.479 30.6995L164.979 31.6995C160.98 36.6995 159.98 70.6995 163.479 78.6995L197.979 77.1995C202.479 75.6995 208.979 70.1995 228.479 30.6995Z" fill="#EDADBF" stroke="black" stroke-width="0.5"/>
<path d="M170.479 30.1995C165.979 30.6995 162.479 30.6995 159.479 30.6995L164.979 8.19954C167.979 7.69946 170.979 7.69946 173.979 8.19954L170.479 30.1995Z" fill="#EDADBF" stroke="black" stroke-width="0.5"/>
<path d="M98.9795 32.1995C103.479 37.6995 110.479 34.1995 114.479 32.6995C115.479 17.1994 102.479 25.1993 98.9795 32.1995Z" fill="#EDADBF" stroke="black" stroke-width="0.5"/>
<path d="M234.478 9.69946L231.478 13.1995C248.478 18.6995 258.978 21.6995 271.478 28.1995H272.978L280.978 26.6995C265.978 20.1995 258.478 17.6995 234.478 9.69946Z" fill="#EFC7D3" stroke="black" stroke-width="0.5"/>
<path d="M271.478 28.1995C260.978 22.6995 241.978 16.1995 231.478 13.1995L229.478 15.6995L244.478 23.1995C242.978 25.6995 238.978 27.6995 232.978 30.3995C244.978 29.6995 261.978 28.6995 271.478 28.1995Z" fill="#EFC7D3" stroke="black" stroke-width="0.5"/>
<path d="M276.979 34.4995L282.978 32.1995L272.479 28.1995L228.479 30.6995C220.979 45.6995 205.979 76.1995 197.979 77.1995H212.479C210.979 66.1995 220.479 42.6995 245.479 51.6995C255.979 46.1995 265.979 40.6995 276.979 34.4995Z" fill="#EFC7D3" stroke="black" stroke-width="0.5"/>
<path d="M277.978 34.1995C265.978 40.6995 255.978 46.1995 245.478 51.6995C249.978 54.6995 260.478 60.6995 259.478 79.6995L284.478 79.1995V77.6995C292.978 76.6995 301.478 80.1995 299.978 66.1995L301.978 56.1995C301.978 54.6995 299.478 50.6995 296.978 50.1995C298.478 47.6995 295.478 38.6995 295.478 38.6995V37.1995L291.478 34.1995L286.478 32.6995L282.978 32.1995L277.978 34.1995Z" fill="#EFC7D3" stroke="black" stroke-width="0.5"/>
<path d="M280.978 26.6995L272.478 28.1995L282.978 32.1995C292.478 33.1995 291.476 34.6995 295.472 37.1196L294.978 28.6995L280.978 26.6995Z" fill="#EFC7D3"/>
<path d="M295.478 37.1995L295.472 37.1196M295.472 37.1196L294.978 28.6995L280.978 26.6995L272.478 28.1995L282.978 32.1995C292.478 33.1995 291.476 34.6995 295.472 37.1196Z" stroke="black" stroke-width="0.5"/>
<path d="M293.979 36.6997C293.479 34.1996 282.479 33.9995 276.979 34.4995" stroke="black" stroke-width="0.5"/>
<path d="M299.979 66.6995L260.479 68.6995C259.979 63.6995 257.813 59.5328 255.979 57.6995L301.979 55.1995M300.479 52.6995C289.479 51.1995 278.479 46.3995 266.479 40.3995M228.479 30.6995L272.479 28.1995L280.979 26.6995" stroke="black" stroke-width="0.5"/>
<path d="M290.479 40.6995C290.479 38.6995 289.479 34.6995 285.979 32.6995C288.2 32.6995 291.577 33.7399 294.088 36.1094C294.552 37.6395 293.479 41.1995 290.438 42.6995C290.424 42.1092 290.479 41.4238 290.479 40.6995Z" fill="#EFC7D3"/>
<path d="M272.479 43.1995C279.475 43.5492 285.492 43.6543 290.873 44.1995M297.479 45.1995C295.376 44.7488 293.183 44.4336 290.873 44.1995M295.479 37.6995C295.062 37.1143 294.592 36.5851 294.088 36.1094M290.873 44.1995C290.546 43.8547 290.452 43.3317 290.438 42.6995M290.438 42.6995C290.424 42.1092 290.479 41.4238 290.479 40.6995C290.479 38.6995 289.479 34.6995 285.979 32.6995C288.2 32.6995 291.577 33.7399 294.088 36.1094M290.438 42.6995C293.479 41.1995 294.552 37.6395 294.088 36.1094" stroke="black" stroke-width="0.5"/>
<path d="M290.479 40.6995C285.979 40.6995 283.979 36.6995 282.979 34.1995" stroke="black" stroke-width="0.5"/>
<path d="M132.478 12.7994C118.978 16.7994 106.978 22.6995 92.978 35.6995C99.978 23.6995 115.478 14.1995 130.978 9.19946L132.478 12.7994Z" fill="#EDADBF" stroke="black" stroke-width="0.5"/>
<path d="M130.978 9.19946C110.978 14.8735 92.978 32.1995 84.978 30.1995C97.978 20.6995 113.978 12.1995 130.478 7.69946L130.978 9.19946Z" fill="#EDADBF" stroke="black" stroke-width="0.5"/>
<path d="M9.97869 48.1993H3.97869C1.47803 52.1993 1.47803 62.1993 1.97869 65.6993C0.478027 66.6993 0.478625 71.1993 1.47869 72.6993L5.47869 73.1993V74.6993L1.47869 76.6993V78.6993C5.47869 79.6993 13.9787 81.6993 21.9787 81.1993V79.6993H39.4787C38.812 71.1993 40.4787 60.6993 49.4787 53.6993C46.9787 49.6993 39.9787 45.1993 36.9787 44.6993C26.9787 43.6993 11.9787 46.1993 9.97869 48.1993Z" fill="#EDADBF" stroke="black" stroke-width="0.5"/>
<path d="M92.9795 35.6995C75.1462 36.5328 43.4795 41.3995 32.9795 44.3995L36.9795 44.6995C41.9795 46.1995 47.4795 50.5328 49.4795 53.6995C62.4785 44.1995 87.9785 51.1995 86.4785 78.6995H96.4785C89.4785 67.6995 90.4785 45.6995 92.9795 35.6995Z" fill="#EDADBF" stroke="black" stroke-width="0.5"/>
<path d="M9.97754 48.1995H3.97754C36.4777 28.6994 58.4778 34.6995 84.4775 30.1995L93.4778 35.6995C76.4778 36.6995 47.4775 40.1995 33.4775 44.3995C25.4775 44.1995 11.4775 46.1995 9.97754 48.1995Z" fill="#EDADBF" stroke="black" stroke-width="0.5"/>
<path d="M36.9795 44.6995C29.4795 43.6995 12.4795 45.6995 9.97948 48.1995C9.17948 50.5995 12.3128 53.5328 13.9795 54.6995C23.4795 56.1995 36.9795 50.1995 36.9795 44.6995Z" fill="#EDADBF" stroke="black" stroke-width="0.5"/>
<path d="M3.97872 48.1995C10.9787 49.1995 4.97872 59.6995 1.97872 64.6995C1.47865 57.6995 1.97852 52.1995 3.97872 48.1995Z" fill="#EDADBF" stroke="black" stroke-width="0.5"/>
<path d="M21.978 84.1995V79.6995H39.478L39.978 84.1995H21.978Z" fill="#EDADBF" stroke="black" stroke-width="0.5"/>
<path d="M2.47949 65.6992C3.97949 68.1992 5.97949 71.3659 5.47949 73.1992M21.9795 79.6992C11.4795 80.1992 6.97949 76.1992 7.97949 72.6992C8.47949 72.1992 9.97949 70.6992 10.9795 70.6992" stroke="black" stroke-width="0.5"/>
<path d="M31.9795 74.6993C29.4795 70.6993 23.9795 65.6994 20.9795 64.1994C19.2294 63.6994 16.6044 63.8244 13.8543 64.1994C12.2294 65.5327 10.9795 68.6993 11.4795 71.6993C11.4795 72.866 12.7869 75.1993 15.4795 75.1993C19.9795 75.1993 26.9795 75.6993 31.9795 74.6993Z" fill="#EDADBF"/>
<path d="M5.97949 65.6994C8.22943 65.1994 11.1043 64.5744 13.8543 64.1994M13.8543 64.1994C16.6044 63.8244 19.2294 63.6994 20.9795 64.1994C23.9795 65.6994 29.4795 70.6993 31.9795 74.6993C26.9795 75.6993 19.9795 75.1993 15.4795 75.1993C12.7869 75.1993 11.4795 72.866 11.4795 71.6993C10.9795 68.6993 12.2293 65.5327 13.8543 64.1994Z" stroke="black" stroke-width="0.5"/>
<path d="M11.4795 71.1994C19.4795 69.6995 22.9795 72.3279 25.9795 73.8279M12.9795 74.1995L30.4795 73.6995" stroke="black" stroke-width="0.5"/>
<path d="M21.9775 82.6992H31.4775C33.4775 82.6992 34.9775 80.6992 34.4775 79.6992M37.9775 79.6992V84.1992" stroke="black" stroke-width="0.5"/>
<path d="M21.9794 81.1997C17.4794 81.1997 12.9794 81.6997 1.47944 78.6997V76.6997L5.47944 74.6997V73.1997L1.47944 72.6997C0.978516 71.1995 -0.0212885 68.1995 1.97871 65.6995C1.47895 57.6995 1.97895 51.1995 3.97944 48.1992C36.4794 28.6996 58.4794 34.6997 84.4794 30.1997C162.479 -24.8005 244.479 12.1994 281.479 26.6996L294.979 28.6995L295.479 35.6995V38.6995C296.978 43.6995 298.313 48.1995 296.979 50.1995C299.479 51.1995 301.979 54.3661 301.979 56.1995L299.979 66.1995C300.431 77.0474 298.023 77.2717 288.692 77.5841C287.701 77.6173 285.632 77.6515 284.479 77.6995V79.1995L259.479 79.6305M21.9794 81.1997V84.1997H39.9778L39.4794 79.6997M21.9794 81.1997V79.6997H39.4794M39.4794 79.6997C36.4794 38.1997 89.9794 41.1997 86.4794 80.1997V82.6995H212.979C206.979 39.1995 261.479 39.1995 259.479 79.6305M258.978 79.6305H259.479" stroke="black"/>
</svg>
