<svg width="303" height="95" viewBox="0 0 303 95" fill="none" xmlns="http://www.w3.org/2000/svg">
<circle cx="62.2817" cy="73.8611" r="20.5" fill="#E56E90" stroke="black"/>
<circle cx="235.282" cy="73.8611" r="20.5" fill="#E56E90" stroke="black"/>
<path d="M132.28 12.3609L130.78 8.86094C170.78 0.861052 192.28 1.36108 231.28 12.861L227.78 17.361C207.78 9.36099 189.78 8.36099 173.78 7.86106C171.28 7.36106 167.28 7.36102 164.78 7.86094C154.78 7.86106 142.78 9.36106 132.28 12.3609Z" fill="#EDADBF" stroke="black" stroke-width="0.5"/>
<path d="M130.78 8.86113L130.28 7.36113C166.28 -3.63892 198.78 0.360958 234.28 9.36113L231.28 12.8611C191.28 0.361084 165.28 1.86108 130.78 8.86113Z" fill="#EDADBF" stroke="black" stroke-width="0.5"/>
<path d="M130.78 8.86095C182.28 -2.63908 210.78 7.36096 231.28 12.8609" stroke="black" stroke-width="0.5"/>
<path d="M170.282 29.8611L173.782 7.86108C207.282 8.86108 218.782 14.3611 223.282 15.8611L225.764 27.8611C198.774 27.8617 181.279 29.3612 170.282 29.8611Z" fill="#EDADBF"/>
<path d="M226.282 30.3611L223.282 15.8611C218.782 14.3611 207.282 8.86108 173.782 7.86108L170.282 29.8611C181.282 29.3611 198.782 27.8611 225.782 27.8611" stroke="black" stroke-width="0.5"/>
<path d="M164.782 7.86108C131.782 8.86108 111.782 17.8611 92.7817 35.3611L95.2817 33.3611L159.282 30.3611L164.782 7.86108Z" fill="#EDADBF" stroke="black" stroke-width="0.5"/>
<path d="M239.28 22.3611C235.614 19.6944 229.78 17.3611 223.28 15.8611L225.78 27.8611H232.28C235.28 26.3611 238.28 24.1298 239.28 22.3611Z" fill="#EDADBF" stroke="black" stroke-width="0.5"/>
<path d="M96.2817 78.3611H163.282L197.782 76.8611H212.282L212.782 82.3611H198.782H97.7817H86.2817V78.3611H96.2817Z" fill="#EDADBF"/>
<path d="M96.2817 78.3611H163.282L197.782 76.8611M96.2817 78.3611C96.2817 79.8611 96.7817 80.8611 97.7817 82.3611M96.2817 78.3611H86.2817V82.3611H97.7817M197.782 76.8611L198.782 82.3611M197.782 76.8611H212.282L212.782 82.3611H198.782M198.782 82.3611H97.7817" stroke="black" stroke-width="0.5"/>
<path d="M96.2809 78.3611C91.7817 73.8611 88.7818 51.8611 92.7809 35.3611L164.782 31.3611C160.782 36.3611 159.782 70.3611 163.282 78.3611H96.2809Z" fill="#EDADBF" stroke="black" stroke-width="0.5"/>
<path d="M228.281 30.3611L164.781 31.3611C160.781 36.3611 159.781 70.3611 163.281 78.3611L197.781 76.8611C202.281 75.3611 208.781 69.8611 228.281 30.3611Z" fill="#EDADBF" stroke="black" stroke-width="0.5"/>
<path d="M170.282 29.8612C165.782 30.3612 162.282 30.3612 159.282 30.3612L164.782 7.86116C167.782 7.36108 170.782 7.36108 173.782 7.86116L170.282 29.8612Z" fill="#EDADBF" stroke="black" stroke-width="0.5"/>
<path d="M98.7817 31.8611C103.282 37.3611 110.282 33.8611 114.282 32.3611C115.282 16.861 102.282 24.861 98.7817 31.8611Z" fill="#EDADBF" stroke="black" stroke-width="0.5"/>
<path d="M234.28 9.36108L231.28 12.8611C248.28 18.3611 258.78 21.3611 271.28 27.8611H272.78L280.78 26.3611C265.78 19.8611 258.28 17.3611 234.28 9.36108Z" fill="#EFC7D3" stroke="black" stroke-width="0.5"/>
<path d="M271.28 27.8611C260.78 22.3611 241.78 15.8611 231.28 12.8611L229.28 15.3611L244.28 22.8611C242.78 25.3611 238.78 27.3611 232.78 30.0611C244.78 29.3611 261.78 28.3611 271.28 27.8611Z" fill="#EFC7D3" stroke="black" stroke-width="0.5"/>
<path d="M276.782 34.1611L282.78 31.8611L272.281 27.8611L228.281 30.3611C220.781 45.3611 205.781 75.8611 197.781 76.8611H212.281C210.781 65.8611 220.281 42.3611 245.282 51.3611C255.782 45.8611 265.782 40.3611 276.782 34.1611Z" fill="#EFC7D3" stroke="black" stroke-width="0.5"/>
<path d="M277.78 33.8611C265.78 40.3611 255.78 45.8611 245.28 51.3611C249.78 54.3611 260.28 60.3611 259.28 79.3611L284.28 78.8611V77.3611C292.78 76.3611 301.28 79.8611 299.78 65.8611L301.78 55.8611C301.78 54.3611 299.28 50.3611 296.78 49.8611C298.28 47.3611 295.28 38.3611 295.28 38.3611V36.8611L291.28 33.8611L286.28 32.3611L282.78 31.8611L277.78 33.8611Z" fill="#EFC7D3" stroke="black" stroke-width="0.5"/>
<path d="M280.78 26.3611L272.28 27.8611L282.78 31.8611C292.28 32.8611 291.279 34.3611 295.274 36.7813L294.78 28.3611L280.78 26.3611Z" fill="#EFC7D3"/>
<path d="M295.28 36.8611L295.274 36.7813M295.274 36.7813L294.78 28.3611L280.78 26.3611L272.28 27.8611L282.78 31.8611C292.28 32.8611 291.279 34.3611 295.274 36.7813Z" stroke="black" stroke-width="0.5"/>
<path d="M293.782 36.3613C293.282 33.8612 282.282 33.6611 276.782 34.1611" stroke="black" stroke-width="0.5"/>
<path d="M299.782 66.3611L260.282 68.3611C259.782 63.3611 257.615 59.1944 255.782 57.3611L301.782 54.8611M300.282 52.3611C289.282 50.8611 278.282 46.0611 266.282 40.0611M228.282 30.3611L272.282 27.8611L280.782 26.3611" stroke="black" stroke-width="0.5"/>
<path d="M290.282 40.3611C290.282 38.3611 289.282 34.3611 285.782 32.3611C288.003 32.3611 291.379 33.4015 293.891 35.7711C294.354 37.3011 293.282 40.8611 290.24 42.3611C290.226 41.7708 290.282 41.0854 290.282 40.3611Z" fill="#EFC7D3"/>
<path d="M272.282 42.8611C279.277 43.2109 285.294 43.316 290.675 43.8611M297.282 44.8611C295.179 44.4104 292.985 44.0952 290.675 43.8611M295.282 37.3611C294.864 36.776 294.395 36.2467 293.891 35.7711M290.675 43.8611C290.349 43.5163 290.255 42.9933 290.24 42.3611M290.24 42.3611C290.226 41.7708 290.282 41.0854 290.282 40.3611C290.282 38.3611 289.282 34.3611 285.782 32.3611C288.003 32.3611 291.379 33.4015 293.891 35.7711M290.24 42.3611C293.282 40.8611 294.354 37.3011 293.891 35.7711" stroke="black" stroke-width="0.5"/>
<path d="M290.282 40.3611C285.782 40.3611 283.782 36.3611 282.782 33.8611" stroke="black" stroke-width="0.5"/>
<path d="M132.28 12.4611C118.78 16.4611 106.78 22.3611 92.7803 35.3611C99.7803 23.3611 115.28 13.8611 130.78 8.86108L132.28 12.4611Z" stroke="black" stroke-width="0.5"/>
<path d="M130.78 8.86108C110.78 14.5351 92.7803 31.8611 84.7803 29.8611C97.7803 20.3611 113.78 11.8611 130.28 7.36108L130.78 8.86108Z" stroke="black" stroke-width="0.5"/>
<path d="M9.78094 47.861H3.78094C1.28027 51.861 1.28027 61.861 1.78094 65.361C0.280273 66.361 0.280871 70.861 1.28094 72.361L5.28094 72.861V74.361L1.28094 76.361V78.361C5.28094 79.361 13.7809 81.361 21.7809 80.861V79.361H39.2809C38.6143 70.861 40.2809 60.361 49.2809 53.361C46.7809 49.361 39.7809 44.861 36.7809 44.361C26.7809 43.361 11.7809 45.861 9.78094 47.861Z" stroke="black" stroke-width="0.5"/>
<path d="M92.7817 35.3611C74.9484 36.1944 43.2817 41.0611 32.7817 44.0611L36.7817 44.3611C41.7817 45.8611 47.2817 50.1944 49.2817 53.3611C62.2808 43.8611 87.7808 50.8611 86.2808 78.3611H96.2808C89.2808 67.3611 90.2808 45.3611 92.7817 35.3611Z" stroke="black" stroke-width="0.5"/>
<path d="M9.78027 47.8611H3.78027C36.2805 28.361 58.2805 34.3611 84.2803 29.8611L93.2805 35.3611C76.2805 36.3611 47.2803 39.8611 33.2803 44.0611C25.2803 43.8611 11.2803 45.8611 9.78027 47.8611Z" stroke="black" stroke-width="0.5"/>
<path d="M36.7817 44.3612C29.2817 43.3611 12.2817 45.3611 9.78173 47.8612C8.98173 50.2611 12.1151 53.1944 13.7817 54.3611C23.2817 55.8611 36.7817 49.8611 36.7817 44.3612Z" stroke="black" stroke-width="0.5"/>
<path d="M3.78097 47.8611C10.781 48.8611 4.78097 59.3611 1.78097 64.3611C1.2809 57.3611 1.78076 51.8611 3.78097 47.8611Z" stroke="black" stroke-width="0.5"/>
<path d="M21.7803 83.8611V79.3611H39.2803L39.7803 83.8611H21.7803Z" stroke="black" stroke-width="0.5"/>
<path d="M2.28223 65.3608C3.78223 67.8608 5.78223 71.0275 5.28223 72.8608M21.7822 79.3608C11.2822 79.8608 6.78223 75.8608 7.78223 72.3608C8.28223 71.8608 9.78223 70.3608 10.7822 70.3608" stroke="black" stroke-width="0.5"/>
<path d="M5.78223 65.361C8.03217 64.861 10.9071 64.236 13.657 63.861M13.657 63.861C16.4071 63.486 19.0322 63.361 20.7822 63.861C23.7822 65.361 29.2822 70.361 31.7822 74.361C26.7822 75.361 19.7822 74.861 15.2822 74.861C12.5896 74.861 11.2822 72.5276 11.2822 71.361C10.7822 68.361 12.0321 65.1943 13.657 63.861Z" stroke="black" stroke-width="0.5"/>
<path d="M11.2822 70.861C19.2822 69.3611 22.7822 71.9896 25.7822 73.4896M12.7822 73.8611L30.2822 73.3611" stroke="black" stroke-width="0.5"/>
<path d="M21.7803 82.3608H31.2803C33.2803 82.3608 34.7803 80.3608 34.2803 79.3608M37.7803 79.3608V83.8608" stroke="black" stroke-width="0.5"/>
<path d="M21.7817 80.8613C17.2817 80.8613 12.7817 81.3613 1.28168 78.3613V76.3613L5.28168 74.3613V72.8613L1.28168 72.3613C0.780762 70.8611 -0.219042 67.8611 1.78095 65.3611C1.2812 57.3611 1.7812 50.8611 3.78168 47.8608C36.2817 28.3612 58.2817 34.3613 84.2817 29.8613C162.282 -25.1388 244.282 11.8611 281.282 26.3613L294.782 28.3611L295.282 35.3611V38.3611C296.78 43.3611 298.115 47.8611 296.782 49.8611C299.282 50.8611 301.782 54.0278 301.782 55.8611L299.782 65.8611C300.234 76.709 297.826 76.9333 288.494 77.2457C287.503 77.2789 285.434 77.3131 284.282 77.3611V78.8611L259.282 79.2921M21.7817 80.8613V83.8613H39.78L39.2817 79.3613M21.7817 80.8613V79.3613H39.2817M39.2817 79.3613C36.2817 37.8613 89.7817 40.8613 86.2817 79.8613V82.3611H212.782C206.782 38.8611 261.282 38.8611 259.282 79.2921M258.78 79.2921H259.282" stroke="black"/>
</svg>
