<svg width="304" height="96" viewBox="0 0 304 96" fill="none" xmlns="http://www.w3.org/2000/svg">
<circle cx="63.0835" cy="74.5076" r="20.5" fill="#EDADBF" stroke="black"/>
<circle cx="236.083" cy="74.5076" r="20.5" fill="#EDADBF" stroke="black"/>
<path d="M133.082 13.0074L131.582 9.50742C171.582 1.50754 193.082 2.00757 232.082 13.5075L228.582 18.0075C208.582 10.0075 190.582 9.00748 174.582 8.50755C172.082 8.00755 168.082 8.00751 165.582 8.50742C155.582 8.50755 143.582 10.0075 133.082 13.0074Z" stroke="black" stroke-width="0.5"/>
<path d="M131.582 9.50761L131.082 8.00761C167.082 -2.99243 199.582 1.00744 235.082 10.0076L232.082 13.5076C192.082 1.00757 166.082 2.50757 131.582 9.50761Z" stroke="black" stroke-width="0.5"/>
<path d="M131.582 9.50756C183.082 -1.99247 211.582 8.00757 232.082 13.5076" stroke="black" stroke-width="0.5"/>
<path d="M227.083 31.0076L224.083 16.5076C219.583 15.0076 208.083 9.50757 174.583 8.50757L171.083 30.5076C182.083 30.0076 199.583 28.5076 226.583 28.5076" stroke="black" stroke-width="0.5"/>
<path d="M165.583 8.50757C132.583 9.50757 112.583 18.5076 93.5835 36.0076L96.0835 34.0076L160.083 31.0076L165.583 8.50757Z" stroke="black" stroke-width="0.5"/>
<path d="M240.082 23.0076C236.415 20.3409 230.582 18.0076 224.082 16.5076L226.582 28.5076H233.082C236.082 27.0076 239.082 24.7763 240.082 23.0076Z" stroke="black" stroke-width="0.5"/>
<path d="M97.0835 79.0076H164.083L198.583 77.5076M97.0835 79.0076C97.0835 80.5076 97.5835 81.5076 98.5835 83.0076M97.0835 79.0076H87.0835V83.0076H98.5835M198.583 77.5076L199.583 83.0076M198.583 77.5076H213.083L213.583 83.0076H199.583M199.583 83.0076H98.5835" stroke="black" stroke-width="0.5"/>
<path d="M97.0826 79.0076C92.5835 74.5076 89.5835 52.5076 93.5826 36.0076L165.583 32.0076C161.583 37.0076 160.583 71.0076 164.083 79.0076H97.0826Z" stroke="black" stroke-width="0.5"/>
<path d="M229.083 31.0076L165.583 32.0076C161.583 37.0076 160.583 71.0076 164.083 79.0076L198.583 77.5076C203.083 76.0076 209.583 70.5076 229.083 31.0076Z" stroke="black" stroke-width="0.5"/>
<path d="M171.083 30.5076C166.583 31.0076 163.083 31.0076 160.083 31.0076L165.583 8.50764C168.583 8.00757 171.583 8.00757 174.583 8.50764L171.083 30.5076Z" stroke="black" stroke-width="0.5"/>
<path d="M99.5835 32.5077C104.083 38.0077 111.083 34.5077 115.083 33.0077C116.083 17.5076 103.083 25.5076 99.5835 32.5077Z" stroke="black" stroke-width="0.5"/>
<path d="M235.082 10.0076L232.082 13.5076C249.082 19.0076 259.582 22.0076 272.082 28.5076H273.582L281.582 27.0076C266.582 20.5076 259.082 18.0076 235.082 10.0076Z" fill="#EFC7D3" stroke="black" stroke-width="0.5"/>
<path d="M272.082 28.5076C261.582 23.0076 242.582 16.5076 232.082 13.5076L230.082 16.0076L245.082 23.5076C243.582 26.0076 239.582 28.0076 233.582 30.7076C245.582 30.0076 262.582 29.0076 272.082 28.5076Z" fill="#EFC7D3" stroke="black" stroke-width="0.5"/>
<path d="M277.583 34.8076L283.582 32.5076L273.083 28.5076L229.083 31.0076C221.583 46.0076 206.583 76.5076 198.583 77.5076H213.083C211.583 66.5076 221.083 43.0076 246.083 52.0076C256.583 46.5076 266.583 41.0076 277.583 34.8076Z" fill="#EFC7D3" stroke="black" stroke-width="0.5"/>
<path d="M278.582 34.5076C266.582 41.0076 256.582 46.5076 246.082 52.0076C250.582 55.0076 261.082 61.0076 260.082 80.0076L285.082 79.5076V78.0076C293.582 77.0076 302.082 80.5076 300.582 66.5076L302.582 56.5076C302.582 55.0076 300.082 51.0076 297.582 50.5076C299.082 48.0076 296.082 39.0076 296.082 39.0076V37.5076L292.082 34.5076L287.082 33.0076L283.582 32.5076L278.582 34.5076Z" fill="#EFC7D3" stroke="black" stroke-width="0.5"/>
<path d="M281.582 27.0076L273.082 28.5076L283.582 32.5076C293.082 33.5076 292.081 35.0076 296.076 37.4277L295.582 29.0076L281.582 27.0076Z" fill="#EFC7D3"/>
<path d="M296.082 37.5076L296.076 37.4277M296.076 37.4277L295.582 29.0076L281.582 27.0076L273.082 28.5076L283.582 32.5076C293.082 33.5076 292.081 35.0076 296.076 37.4277Z" stroke="black" stroke-width="0.5"/>
<path d="M294.583 37.0078C294.083 34.5077 283.083 34.3076 277.583 34.8076" stroke="black" stroke-width="0.5"/>
<path d="M300.583 67.0076L261.083 69.0076C260.583 64.0076 258.417 59.8409 256.583 58.0076L302.583 55.5076M301.083 53.0076C290.083 51.5076 279.083 46.7076 267.083 40.7076M229.083 31.0076L273.083 28.5076L281.583 27.0076" stroke="black" stroke-width="0.5"/>
<path d="M291.083 41.0076C291.083 39.0076 290.083 35.0076 286.583 33.0076C288.804 33.0076 292.181 34.048 294.692 36.4176C295.156 37.9476 294.083 41.5076 291.042 43.0076C291.028 42.4173 291.083 41.7319 291.083 41.0076Z" fill="#EFC7D3"/>
<path d="M273.083 43.5076C280.079 43.8574 286.096 43.9624 291.477 44.5076M298.083 45.5076C295.981 45.0569 293.787 44.7417 291.477 44.5076M296.083 38.0076C295.666 37.4224 295.196 36.8932 294.692 36.4176M291.477 44.5076C291.15 44.1628 291.056 43.6398 291.042 43.0076M291.042 43.0076C291.028 42.4173 291.083 41.7319 291.083 41.0076C291.083 39.0076 290.083 35.0076 286.583 33.0076C288.804 33.0076 292.181 34.048 294.692 36.4176M291.042 43.0076C294.083 41.5076 295.156 37.9476 294.692 36.4176" stroke="black" stroke-width="0.5"/>
<path d="M291.083 41.0076C286.583 41.0076 284.583 37.0076 283.583 34.5076" stroke="black" stroke-width="0.5"/>
<path d="M133.082 13.1075C119.582 17.1075 107.582 23.0076 93.582 36.0076C100.582 24.0076 116.082 14.5076 131.582 9.50757L133.082 13.1075Z" fill="#EDADBF" stroke="black" stroke-width="0.5"/>
<path d="M131.582 9.50757C111.582 15.1816 93.582 32.5076 85.582 30.5076C98.582 21.0076 114.582 12.5076 131.082 8.00757L131.582 9.50757Z" fill="#EDADBF" stroke="black" stroke-width="0.5"/>
<path d="M10.5827 48.5076H4.5827C2.08203 52.5076 2.08203 62.5076 2.5827 66.0076C1.08203 67.0076 1.08263 71.5076 2.0827 73.0076L6.0827 73.5076V75.0076L2.0827 77.0076V79.0076C6.0827 80.0076 14.5827 82.0076 22.5827 81.5076V80.0076H40.0827C39.416 71.5076 41.0827 61.0076 50.0827 54.0076C47.5827 50.0076 40.5827 45.5076 37.5827 45.0076C27.5827 44.0076 12.5827 46.5076 10.5827 48.5076Z" fill="#EDADBF" stroke="black" stroke-width="0.5"/>
<path d="M93.5835 36.0076C75.7502 36.8409 44.0835 41.7076 33.5835 44.7076L37.5835 45.0076C42.5835 46.5076 48.0835 50.8409 50.0835 54.0076C63.0825 44.5076 88.5825 51.5076 87.0825 79.0076H97.0825C90.0825 68.0076 91.0825 46.0076 93.5835 36.0076Z" fill="#EDADBF" stroke="black" stroke-width="0.5"/>
<path d="M10.582 48.5076H4.58203C37.0822 29.0075 59.0823 35.0076 85.082 30.5076L94.0823 36.0076C77.0823 37.0076 48.082 40.5076 34.082 44.7076C26.082 44.5076 12.082 46.5076 10.582 48.5076Z" fill="#EDADBF" stroke="black" stroke-width="0.5"/>
<path d="M37.5835 45.0076C30.0835 44.0076 13.0835 46.0076 10.5835 48.5076C9.78349 50.9076 12.9168 53.8409 14.5835 55.0076C24.0835 56.5076 37.5835 50.5076 37.5835 45.0076Z" fill="#EDADBF" stroke="black" stroke-width="0.5"/>
<path d="M4.58273 48.5076C11.5827 49.5076 5.58273 60.0076 2.58273 65.0076C2.08266 58.0076 2.58252 52.5076 4.58273 48.5076Z" fill="#EDADBF" stroke="black" stroke-width="0.5"/>
<path d="M22.582 84.5076V80.0076H40.082L40.582 84.5076H22.582Z" fill="#EDADBF" stroke="black" stroke-width="0.5"/>
<path d="M3.08398 66.0076C4.58398 68.5076 6.58398 71.6742 6.08398 73.5076M22.584 80.0076C12.084 80.5076 7.58398 76.5076 8.58398 73.0076C9.08398 72.5076 10.584 71.0076 11.584 71.0076" stroke="black" stroke-width="0.5"/>
<path d="M32.584 75.0076C30.084 71.0076 24.584 66.0076 21.584 64.5076C19.8339 64.0076 17.2088 64.1326 14.4588 64.5076C12.8338 65.841 11.584 69.0076 12.084 72.0076C12.084 73.1742 13.3914 75.5076 16.084 75.5076C20.584 75.5076 27.584 76.0076 32.584 75.0076Z" fill="#EDADBF"/>
<path d="M6.58398 66.0076C8.83393 65.5076 11.7088 64.8826 14.4588 64.5076M14.4588 64.5076C17.2088 64.1326 19.8339 64.0076 21.584 64.5076C24.584 66.0076 30.084 71.0076 32.584 75.0076C27.584 76.0076 20.584 75.5076 16.084 75.5076C13.3914 75.5076 12.084 73.1742 12.084 72.0076C11.584 69.0076 12.8338 65.841 14.4588 64.5076Z" stroke="black" stroke-width="0.5"/>
<path d="M12.084 71.5076C20.084 70.0077 23.584 72.6362 26.584 74.1362M13.584 74.5077L31.084 74.0077" stroke="black" stroke-width="0.5"/>
<path d="M22.582 83.0076H32.082C34.082 83.0076 35.582 81.0076 35.082 80.0076M38.582 80.0076V84.5076" stroke="black" stroke-width="0.5"/>
<path d="M22.5834 81.5078C18.0834 81.5078 13.5834 82.0078 2.08344 79.0078V77.0078L6.08344 75.0078V73.5078L2.08344 73.0078C1.58252 71.5076 0.582715 68.5076 2.58271 66.0076C2.08295 58.0076 2.58295 51.5076 4.58344 48.5073C37.0834 29.0077 59.0834 35.0078 85.0834 30.5078C163.083 -24.4924 245.083 12.5076 282.083 27.0077L295.583 29.0076L296.083 36.0076V39.0076C297.582 44.0076 298.917 48.5076 297.583 50.5076C300.083 51.5076 302.583 54.6742 302.583 56.5076L300.583 66.5076C301.035 77.3555 298.627 77.5798 289.296 77.8922C288.305 77.9254 286.236 77.9596 285.083 78.0076V79.5076L260.083 79.9386M22.5834 81.5078V84.5078H40.5818L40.0835 80.0078M22.5834 81.5078V80.0078H40.0835M40.0835 80.0078C37.0835 38.5078 90.5834 41.5078 87.0834 80.5078V83.0076H213.583C207.583 39.5076 262.083 39.5076 260.083 79.9386M259.582 79.9386H260.083" stroke="black"/>
</svg>
