<svg width="304" height="96" viewBox="0 0 304 96" fill="none" xmlns="http://www.w3.org/2000/svg">
<circle cx="63.0835" cy="74.2297" r="20.5" fill="#EDADBF" stroke="black"/>
<circle cx="236.083" cy="74.2297" r="20.5" fill="#EDADBF" stroke="black"/>
<path d="M133.082 12.7296L131.582 9.22959C171.582 1.2297 193.082 1.72974 232.082 13.2297L228.582 17.7297C208.582 9.72965 190.582 8.72964 174.582 8.22971C172.082 7.72971 168.082 7.72968 165.582 8.22959C155.582 8.22971 143.582 9.72971 133.082 12.7296Z" fill="#E0426F" stroke="black" stroke-width="0.5"/>
<path d="M131.582 9.22978L131.082 7.72978C167.082 -3.27026 199.582 0.72961 235.082 9.72978L232.082 13.2298C192.082 0.729736 166.082 2.22974 131.582 9.22978Z" fill="#E0426F" stroke="black" stroke-width="0.5"/>
<path d="M131.582 9.2296C183.082 -2.27042 211.582 7.72961 232.082 13.2296" stroke="black" stroke-width="0.5"/>
<path d="M171.083 30.2297L174.583 8.22974C208.083 9.22974 219.583 14.7297 224.083 16.2297L226.566 28.2297C199.576 28.2304 182.081 29.7298 171.083 30.2297Z" fill="#E0426F"/>
<path d="M227.083 30.7297L224.083 16.2297C219.583 14.7297 208.083 9.22974 174.583 8.22974L171.083 30.2297C182.083 29.7297 199.583 28.2297 226.583 28.2297" stroke="black" stroke-width="0.5"/>
<path d="M165.583 8.22974C132.583 9.22974 112.583 18.2297 93.5835 35.7297L96.0835 33.7297L160.083 30.7297L165.583 8.22974Z" fill="#E0426F" stroke="black" stroke-width="0.5"/>
<path d="M240.082 22.7297C236.415 20.0631 230.582 17.7297 224.082 16.2297L226.582 28.2297H233.082C236.082 26.7297 239.082 24.4985 240.082 22.7297Z" fill="#E0426F" stroke="black" stroke-width="0.5"/>
<path d="M97.0835 78.7297H164.083L198.583 77.2297H213.083L213.583 82.7297H199.583H98.5835H87.0835V78.7297H97.0835Z" fill="#E0426F"/>
<path d="M97.0835 78.7297H164.083L198.583 77.2297M97.0835 78.7297C97.0835 80.2297 97.5835 81.2297 98.5835 82.7297M97.0835 78.7297H87.0835V82.7297H98.5835M198.583 77.2297L199.583 82.7297M198.583 77.2297H213.083L213.583 82.7297H199.583M199.583 82.7297H98.5835" stroke="black" stroke-width="0.5"/>
<path d="M97.0826 78.7297C92.5835 74.2297 89.5835 52.2297 93.5826 35.7297L165.583 31.7297C161.583 36.7297 160.583 70.7297 164.083 78.7297H97.0826Z" fill="#E0426F" stroke="black" stroke-width="0.5"/>
<path d="M229.083 30.7297L165.583 31.7297C161.583 36.7297 160.583 70.7297 164.083 78.7297L198.583 77.2297C203.083 75.7297 209.583 70.2297 229.083 30.7297Z" fill="#E0426F" stroke="black" stroke-width="0.5"/>
<path d="M171.083 30.2298C166.583 30.7298 163.083 30.7298 160.083 30.7298L165.583 8.22981C168.583 7.72974 171.583 7.72974 174.583 8.22981L171.083 30.2298Z" fill="#E0426F" stroke="black" stroke-width="0.5"/>
<path d="M99.5835 32.2297C104.083 37.7297 111.083 34.2297 115.083 32.7297C116.083 17.2296 103.083 25.2296 99.5835 32.2297Z" fill="#E0426F" stroke="black" stroke-width="0.5"/>
<path d="M235.082 9.72974L232.082 13.2297C249.082 18.7297 259.582 21.7297 272.082 28.2297H273.582L281.582 26.7297C266.582 20.2297 259.082 17.7297 235.082 9.72974Z" fill="#EFC7D3" stroke="black" stroke-width="0.5"/>
<path d="M272.082 28.2297C261.582 22.7297 242.582 16.2297 232.082 13.2297L230.082 15.7297L245.082 23.2297C243.582 25.7297 239.582 27.7297 233.582 30.4297C245.582 29.7297 262.582 28.7297 272.082 28.2297Z" fill="#EFC7D3" stroke="black" stroke-width="0.5"/>
<path d="M277.583 34.5297L283.582 32.2297L273.083 28.2297L229.083 30.7297C221.583 45.7297 206.583 76.2297 198.583 77.2297H213.083C211.583 66.2297 221.083 42.7297 246.083 51.7297C256.583 46.2297 266.583 40.7297 277.583 34.5297Z" fill="#EFC7D3" stroke="black" stroke-width="0.5"/>
<path d="M278.582 34.2298C266.582 40.7298 256.582 46.2298 246.082 51.7298C250.582 54.7297 261.082 60.7297 260.082 79.7297L285.082 79.2297V77.7297C293.582 76.7297 302.082 80.2297 300.582 66.2297L302.582 56.2297C302.582 54.7297 300.082 50.7297 297.582 50.2297C299.082 47.7297 296.082 38.7297 296.082 38.7297V37.2297L292.082 34.2297L287.082 32.7297L283.582 32.2297L278.582 34.2298Z" fill="#EFC7D3" stroke="black" stroke-width="0.5"/>
<path d="M281.582 26.7297L273.082 28.2297L283.582 32.2297C293.082 33.2297 292.081 34.7297 296.076 37.1499L295.582 28.7297L281.582 26.7297Z" fill="#EFC7D3"/>
<path d="M296.082 37.2297L296.076 37.1499M296.076 37.1499L295.582 28.7297L281.582 26.7297L273.082 28.2297L283.582 32.2297C293.082 33.2297 292.081 34.7297 296.076 37.1499Z" stroke="black" stroke-width="0.5"/>
<path d="M294.583 36.7299C294.083 34.2298 283.083 34.0297 277.583 34.5297" stroke="black" stroke-width="0.5"/>
<path d="M300.583 66.7297L261.083 68.7297C260.583 63.7297 258.417 59.5631 256.583 57.7297L302.583 55.2297M301.083 52.7297C290.083 51.2297 279.083 46.4297 267.083 40.4297M229.083 30.7297L273.083 28.2297L281.583 26.7297" stroke="black" stroke-width="0.5"/>
<path d="M291.083 40.7297C291.083 38.7297 290.083 34.7297 286.583 32.7297C288.804 32.7297 292.181 33.7701 294.692 36.1397C295.156 37.6697 294.083 41.2297 291.042 42.7297C291.028 42.1395 291.083 41.454 291.083 40.7297Z" fill="#EFC7D3"/>
<path d="M273.083 43.2297C280.079 43.5795 286.096 43.6846 291.477 44.2297M298.083 45.2297C295.981 44.7791 293.787 44.4638 291.477 44.2297M296.083 37.7297C295.666 37.1446 295.196 36.6154 294.692 36.1397M291.477 44.2297C291.15 43.885 291.056 43.3619 291.042 42.7297M291.042 42.7297C291.028 42.1395 291.083 41.454 291.083 40.7297C291.083 38.7297 290.083 34.7297 286.583 32.7297C288.804 32.7297 292.181 33.7701 294.692 36.1397M291.042 42.7297C294.083 41.2297 295.156 37.6697 294.692 36.1397" stroke="black" stroke-width="0.5"/>
<path d="M291.083 40.7297C286.583 40.7297 284.583 36.7297 283.583 34.2297" stroke="black" stroke-width="0.5"/>
<path d="M133.082 12.8297C119.582 16.8297 107.582 22.7297 93.582 35.7297C100.582 23.7297 116.082 14.2297 131.582 9.22974L133.082 12.8297Z" fill="#E0426F" stroke="black" stroke-width="0.5"/>
<path d="M131.582 9.22974C111.582 14.9038 93.582 32.2297 85.582 30.2297C98.582 20.7297 114.582 12.2297 131.082 7.72974L131.582 9.22974Z" fill="#E0426F" stroke="black" stroke-width="0.5"/>
<path d="M10.5827 48.2296H4.5827C2.08203 52.2296 2.08203 62.2296 2.5827 65.7296C1.08203 66.7296 1.08263 71.2296 2.0827 72.7296L6.0827 73.2296V74.7296L2.0827 76.7296V78.7296C6.0827 79.7296 14.5827 81.7296 22.5827 81.2296V79.7296H40.0827C39.416 71.2296 41.0827 60.7296 50.0827 53.7296C47.5827 49.7296 40.5827 45.2296 37.5827 44.7296C27.5827 43.7296 12.5827 46.2296 10.5827 48.2296Z" fill="#E0426F" stroke="black" stroke-width="0.5"/>
<path d="M93.5835 35.7297C75.7502 36.5631 44.0835 41.4297 33.5835 44.4297L37.5835 44.7297C42.5835 46.2297 48.0835 50.5631 50.0835 53.7297C63.0825 44.2297 88.5825 51.2297 87.0825 78.7297H97.0825C90.0825 67.7297 91.0825 45.7297 93.5835 35.7297Z" fill="#E0426F" stroke="black" stroke-width="0.5"/>
<path d="M10.582 48.2298H4.58203C37.0822 28.7297 59.0823 34.7297 85.082 30.2297L94.0823 35.7297C77.0823 36.7297 48.082 40.2297 34.082 44.4297C26.082 44.2297 12.082 46.2297 10.582 48.2298Z" fill="#E0426F" stroke="black" stroke-width="0.5"/>
<path d="M37.5835 44.7298C30.0835 43.7297 13.0835 45.7297 10.5835 48.2298C9.78349 50.6298 12.9168 53.5631 14.5835 54.7297C24.0835 56.2297 37.5835 50.2297 37.5835 44.7298Z" fill="#E0426F" stroke="black" stroke-width="0.5"/>
<path d="M4.58273 48.2297C11.5827 49.2297 5.58273 59.7297 2.58273 64.7297C2.08266 57.7297 2.58252 52.2297 4.58273 48.2297Z" fill="#E0426F" stroke="black" stroke-width="0.5"/>
<path d="M22.582 84.2297V79.7297H40.082L40.582 84.2297H22.582Z" fill="#E0426F" stroke="black" stroke-width="0.5"/>
<path d="M3.08398 65.7295C4.58398 68.2295 6.58398 71.3962 6.08398 73.2295M22.584 79.7295C12.084 80.2295 7.58398 76.2295 8.58398 72.7295C9.08398 72.2295 10.584 70.7295 11.584 70.7295" stroke="black" stroke-width="0.5"/>
<path d="M32.584 74.7296C30.084 70.7296 24.584 65.7297 21.584 64.2297C19.8339 63.7297 17.2088 63.8547 14.4588 64.2297C12.8338 65.563 11.584 68.7296 12.084 71.7296C12.084 72.8963 13.3914 75.2296 16.084 75.2296C20.584 75.2296 27.584 75.7296 32.584 74.7296Z" fill="#E0426F"/>
<path d="M6.58398 65.7297C8.83393 65.2297 11.7088 64.6047 14.4588 64.2297M14.4588 64.2297C17.2088 63.8547 19.8339 63.7297 21.584 64.2297C24.584 65.7297 30.084 70.7296 32.584 74.7296C27.584 75.7296 20.584 75.2296 16.084 75.2296C13.3914 75.2296 12.084 72.8963 12.084 71.7296C11.584 68.7296 12.8338 65.563 14.4588 64.2297Z" stroke="black" stroke-width="0.5"/>
<path d="M12.084 71.2297C20.084 69.7297 23.584 72.3582 26.584 73.8582M13.584 74.2297L31.084 73.7297" stroke="black" stroke-width="0.5"/>
<path d="M22.582 82.7295H32.082C34.082 82.7295 35.582 80.7295 35.082 79.7295M38.582 79.7295V84.2295" stroke="black" stroke-width="0.5"/>
<path d="M22.5834 81.23C18.0834 81.23 13.5834 81.73 2.08344 78.73V76.73L6.08344 74.73V73.23L2.08344 72.73C1.58252 71.2297 0.582715 68.2297 2.58271 65.7297C2.08295 57.7297 2.58295 51.2297 4.58344 48.2295C37.0834 28.7299 59.0834 34.7299 85.0834 30.2299C163.083 -24.7702 245.083 12.2297 282.083 26.7299L295.583 28.7297L296.083 35.7297V38.7297C297.582 43.7297 298.917 48.2297 297.583 50.2297C300.083 51.2297 302.583 54.3964 302.583 56.2297L300.583 66.2297C301.035 77.0776 298.627 77.3019 289.296 77.6144C288.305 77.6476 286.236 77.6817 285.083 77.7297V79.2297L260.083 79.6608M22.5834 81.23V84.23H40.5818L40.0835 79.73M22.5834 81.23V79.73H40.0835M40.0835 79.73C37.0835 38.23 90.5834 41.23 87.0834 80.23V82.7297H213.583C207.583 39.2297 262.083 39.2297 260.083 79.6608M259.582 79.6608H260.083" stroke="black"/>
</svg>
