<svg width="303" height="96" viewBox="0 0 303 96" fill="none" xmlns="http://www.w3.org/2000/svg">
<circle cx="62.249" cy="74.1692" r="20.5" fill="#E56E90" stroke="black"/>
<circle cx="235.249" cy="74.1692" r="20.5" fill="#E56E90" stroke="black"/>
<path d="M132.247 12.669L130.747 9.16904C170.747 1.16916 192.247 1.66919 231.247 13.1691L227.747 17.6691C207.747 9.6691 189.747 8.6691 173.747 8.16917C171.247 7.66917 167.247 7.66913 164.747 8.16904C154.747 8.16917 142.747 9.66917 132.247 12.669Z" stroke="black" stroke-width="0.5"/>
<path d="M130.747 9.16923L130.247 7.66923C166.247 -3.33081 198.747 0.669064 234.247 9.66924L231.247 13.1692C191.247 0.669189 165.247 2.16919 130.747 9.16923Z" stroke="black" stroke-width="0.5"/>
<path d="M130.747 9.16918C182.247 -2.33085 210.747 7.66919 231.247 13.1692" stroke="black" stroke-width="0.5"/>
<path d="M226.249 30.6692L223.249 16.1692C218.749 14.6692 207.249 9.16919 173.749 8.16919L170.249 30.1692C181.249 29.6692 198.749 28.1692 225.749 28.1692" stroke="black" stroke-width="0.5"/>
<path d="M164.749 8.16919C131.749 9.16919 111.749 18.1692 92.749 35.6692L95.249 33.6692L159.249 30.6692L164.749 8.16919Z" stroke="black" stroke-width="0.5"/>
<path d="M239.247 22.6692C235.58 20.0025 229.747 17.6692 223.247 16.1692L225.747 28.1692H232.247C235.247 26.6692 238.247 24.4379 239.247 22.6692Z" stroke="black" stroke-width="0.5"/>
<path d="M96.249 78.6692H163.249L197.749 77.1692M96.249 78.6692C96.249 80.1692 96.749 81.1692 97.749 82.6692M96.249 78.6692H86.249V82.6692H97.749M197.749 77.1692L198.749 82.6692M197.749 77.1692H212.249L212.749 82.6692H198.749M198.749 82.6692H97.749" stroke="black" stroke-width="0.5"/>
<path d="M96.2482 78.6692C91.749 74.1692 88.7491 52.1692 92.7482 35.6692L164.749 31.6692C160.749 36.6692 159.749 70.6692 163.249 78.6692H96.2482Z" stroke="black" stroke-width="0.5"/>
<path d="M228.249 30.6692L164.749 31.6692C160.749 36.6692 159.749 70.6692 163.249 78.6692L197.749 77.1692C202.249 75.6692 208.749 70.1692 228.249 30.6692Z" stroke="black" stroke-width="0.5"/>
<path d="M170.249 30.1693C165.749 30.6693 162.249 30.6693 159.249 30.6693L164.749 8.16926C167.749 7.66919 170.749 7.66919 173.749 8.16926L170.249 30.1693Z" stroke="black" stroke-width="0.5"/>
<path d="M98.749 32.1693C103.249 37.6693 110.249 34.1693 114.249 32.6693C115.249 17.1692 102.249 25.1692 98.749 32.1693Z" stroke="black" stroke-width="0.5"/>
<path d="M234.247 9.66919L231.247 13.1692C248.247 18.6692 258.747 21.6692 271.247 28.1692H272.747L280.747 26.6692C265.747 20.1692 258.247 17.6692 234.247 9.66919Z" fill="#E0426F" stroke="black" stroke-width="0.5"/>
<path d="M271.247 28.1692C260.747 22.6692 241.747 16.1692 231.247 13.1692L229.247 15.6692L244.247 23.1692C242.747 25.6692 238.747 27.6692 232.747 30.3692C244.747 29.6692 261.747 28.6692 271.247 28.1692Z" fill="#E0426F" stroke="black" stroke-width="0.5"/>
<path d="M276.749 34.4692L282.747 32.1692L272.248 28.1692L228.248 30.6692C220.748 45.6692 205.748 76.1692 197.748 77.1692H212.248C210.748 66.1692 220.248 42.6692 245.249 51.6692C255.749 46.1692 265.749 40.6692 276.749 34.4692Z" fill="#E0426F" stroke="black" stroke-width="0.5"/>
<path d="M277.747 34.1692C265.747 40.6692 255.747 46.1692 245.247 51.6692C249.747 54.6692 260.247 60.6692 259.247 79.6692L284.247 79.1692V77.6692C292.747 76.6692 301.247 80.1692 299.747 66.1692L301.747 56.1692C301.747 54.6692 299.247 50.6692 296.747 50.1692C298.247 47.6692 295.247 38.6692 295.247 38.6692V37.1692L291.247 34.1692L286.247 32.6692L282.747 32.1692L277.747 34.1692Z" fill="#E0426F" stroke="black" stroke-width="0.5"/>
<path d="M280.747 26.6692L272.247 28.1692L282.747 32.1692C292.247 33.1692 291.246 34.6692 295.241 37.0894L294.747 28.6692L280.747 26.6692Z" fill="#E0426F"/>
<path d="M295.247 37.1692L295.241 37.0894M295.241 37.0894L294.747 28.6692L280.747 26.6692L272.247 28.1692L282.747 32.1692C292.247 33.1692 291.246 34.6692 295.241 37.0894Z" stroke="black" stroke-width="0.5"/>
<path d="M293.749 36.6694C293.249 34.1693 282.249 33.9692 276.749 34.4692" stroke="black" stroke-width="0.5"/>
<path d="M299.749 66.6692L260.249 68.6692C259.749 63.6692 257.582 59.5025 255.749 57.6692L301.749 55.1692M300.249 52.6692C289.249 51.1692 278.249 46.3692 266.249 40.3692M228.249 30.6692L272.249 28.1692L280.749 26.6692" stroke="black" stroke-width="0.5"/>
<path d="M290.249 40.6692C290.249 38.6692 289.249 34.6692 285.749 32.6692C287.97 32.6692 291.347 33.7096 293.858 36.0792C294.322 37.6092 293.249 41.1692 290.207 42.6692C290.194 42.0789 290.249 41.3935 290.249 40.6692Z" fill="#E0426F"/>
<path d="M272.249 43.1692C279.245 43.519 285.262 43.6241 290.642 44.1692M297.249 45.1692C295.146 44.7185 292.953 44.4033 290.642 44.1692M295.249 37.6692C294.831 37.0841 294.362 36.5548 293.858 36.0792M290.642 44.1692C290.316 43.8244 290.222 43.3014 290.207 42.6692M290.207 42.6692C290.194 42.0789 290.249 41.3935 290.249 40.6692C290.249 38.6692 289.249 34.6692 285.749 32.6692C287.97 32.6692 291.347 33.7096 293.858 36.0792M290.207 42.6692C293.249 41.1692 294.322 37.6092 293.858 36.0792" stroke="black" stroke-width="0.5"/>
<path d="M290.249 40.6692C285.749 40.6692 283.749 36.6692 282.749 34.1692" stroke="black" stroke-width="0.5"/>
<path d="M132.247 12.7692C118.747 16.7692 106.747 22.6692 92.7471 35.6692C99.7471 23.6692 115.247 14.1692 130.747 9.16919L132.247 12.7692Z" stroke="black" stroke-width="0.5"/>
<path d="M130.747 9.16919C110.747 14.8432 92.7471 32.1692 84.7471 30.1692C97.7471 20.6692 113.747 12.1692 130.247 7.66919L130.747 9.16919Z" stroke="black" stroke-width="0.5"/>
<path d="M9.74774 48.1692H3.74774C1.24707 52.1692 1.24707 62.1692 1.74774 65.6692C0.24707 66.6692 0.247668 71.1692 1.24774 72.6692L5.24774 73.1692V74.6692L1.24774 76.6692V78.6692C5.24774 79.6692 13.7477 81.6692 21.7477 81.1692V79.6692H39.2477C38.5811 71.1692 40.2477 60.6692 49.2477 53.6692C46.7477 49.6692 39.7477 45.1692 36.7477 44.6692C26.7477 43.6692 11.7477 46.1692 9.74774 48.1692Z" stroke="black" stroke-width="0.5"/>
<path d="M92.749 35.6692C74.9157 36.5025 43.249 41.3692 32.749 44.3692L36.749 44.6692C41.749 46.1692 47.249 50.5025 49.249 53.6692C62.248 44.1692 87.748 51.1692 86.248 78.6692H96.248C89.248 67.6692 90.248 45.6692 92.749 35.6692Z" stroke="black" stroke-width="0.5"/>
<path d="M9.74707 48.1692H3.74707C36.2473 28.6691 58.2473 34.6692 84.2471 30.1692L93.2473 35.6692C76.2473 36.6692 47.2471 40.1692 33.2471 44.3692C25.2471 44.1692 11.2471 46.1692 9.74707 48.1692Z" stroke="black" stroke-width="0.5"/>
<path d="M36.7485 44.6693C29.2485 43.6692 12.2485 45.6692 9.74852 48.1693C8.94852 50.5692 12.0819 53.5025 13.7485 54.6692C23.2485 56.1692 36.7485 50.1692 36.7485 44.6693Z" stroke="black" stroke-width="0.5"/>
<path d="M3.74777 48.1692C10.7478 49.1692 4.74777 59.6692 1.74777 64.6692C1.2477 57.6692 1.74756 52.1692 3.74777 48.1692Z" stroke="black" stroke-width="0.5"/>
<path d="M21.7471 84.1692V79.6692H39.2471L39.7471 84.1692H21.7471Z" stroke="black" stroke-width="0.5"/>
<path d="M2.24902 65.6692C3.74902 68.1692 5.74902 71.3359 5.24902 73.1692M21.749 79.6692C11.249 80.1692 6.74902 76.1692 7.74902 72.6692C8.24902 72.1692 9.74902 70.6692 10.749 70.6692" stroke="black" stroke-width="0.5"/>
<path d="M5.74902 65.6693C7.99897 65.1692 10.8739 64.5443 13.6238 64.1693M13.6238 64.1693C16.3739 63.7943 18.999 63.6693 20.749 64.1693C23.749 65.6693 29.249 70.6692 31.749 74.6692C26.749 75.6692 19.749 75.1692 15.249 75.1692C12.5564 75.1692 11.249 72.8359 11.249 71.6692C10.749 68.6692 11.9989 65.5026 13.6238 64.1693Z" stroke="black" stroke-width="0.5"/>
<path d="M11.249 71.1693C19.249 69.6693 22.749 72.2978 25.749 73.7978M12.749 74.1693L30.249 73.6693" stroke="black" stroke-width="0.5"/>
<path d="M21.7471 82.6692H31.2471C33.2471 82.6692 34.7471 80.6692 34.2471 79.6692M37.7471 79.6692V84.1692" stroke="black" stroke-width="0.5"/>
<path d="M21.749 81.1694C17.249 81.1694 12.749 81.6694 1.24897 78.6694V76.6694L5.24897 74.6694V73.1694L1.24897 72.6694C0.748047 71.1692 -0.251757 68.1692 1.74824 65.6692C1.24848 57.6692 1.74848 51.1692 3.74897 48.1689C36.249 28.6693 58.249 34.6694 84.249 30.1694C162.249 -24.8307 244.249 12.1692 281.249 26.6694L294.749 28.6692L295.249 35.6692V38.6692C296.747 43.6692 298.082 48.1692 296.749 50.1692C299.249 51.1692 301.749 54.3359 301.749 56.1692L299.749 66.1692C300.201 77.0171 297.793 77.2414 288.461 77.5538C287.47 77.587 285.401 77.6212 284.249 77.6692V79.1692L259.249 79.6002M21.749 81.1694V84.1694H39.7473L39.249 79.6694M21.749 81.1694V79.6694H39.249M39.249 79.6694C36.249 38.1694 89.749 41.1694 86.249 80.1694V82.6692H212.749C206.749 39.1692 261.249 39.1692 259.249 79.6002M258.747 79.6002H259.249" stroke="black"/>
</svg>
