<svg width="304" height="95" viewBox="0 0 304 95" fill="none" xmlns="http://www.w3.org/2000/svg">
<circle cx="63.0518" cy="73.6768" r="20.5" fill="#EDADBF" stroke="black"/>
<circle cx="236.052" cy="73.6768" r="20.5" fill="#EDADBF" stroke="black"/>
<path d="M133.05 12.1766L131.55 8.67661C171.55 0.676725 193.05 1.17676 232.05 12.6767L228.55 17.1767C208.55 9.17667 190.55 8.17667 174.55 7.67673C172.05 7.17673 168.05 7.1767 165.55 7.67661C155.55 7.67673 143.55 9.17674 133.05 12.1766Z" stroke="black" stroke-width="0.5"/>
<path d="M131.55 8.6768L131.05 7.1768C167.05 -3.82324 199.55 0.176632 235.05 9.1768L232.05 12.6768C192.05 0.176758 166.05 1.67676 131.55 8.6768Z" stroke="black" stroke-width="0.5"/>
<path d="M131.55 8.67675C183.05 -2.82328 211.55 7.17676 232.05 12.6767" stroke="black" stroke-width="0.5"/>
<path d="M227.052 30.1768L224.052 15.6768C219.552 14.1768 208.052 8.67676 174.552 7.67676L171.052 29.6768C182.052 29.1768 199.552 27.6768 226.552 27.6768" stroke="black" stroke-width="0.5"/>
<path d="M165.552 7.67676C132.552 8.67676 112.552 17.6768 93.5518 35.1768L96.0518 33.1768L160.052 30.1768L165.552 7.67676Z" stroke="black" stroke-width="0.5"/>
<path d="M240.05 22.1768C236.383 19.5101 230.55 17.1768 224.05 15.6768L226.55 27.6768H233.05C236.05 26.1768 239.05 23.9455 240.05 22.1768Z" stroke="black" stroke-width="0.5"/>
<path d="M97.0518 78.1768H164.052L198.552 76.6768M97.0518 78.1768C97.0518 79.6768 97.5518 80.6768 98.5518 82.1768M97.0518 78.1768H87.0518V82.1768H98.5518M198.552 76.6768L199.552 82.1768M198.552 76.6768H213.052L213.552 82.1768H199.552M199.552 82.1768H98.5518" stroke="black" stroke-width="0.5"/>
<path d="M97.0509 78.1768C92.5518 73.6768 89.5518 51.6768 93.5509 35.1768L165.552 31.1768C161.552 36.1768 160.552 70.1768 164.052 78.1768H97.0509Z" stroke="black" stroke-width="0.5"/>
<path d="M229.052 30.1768L165.552 31.1768C161.552 36.1768 160.552 70.1768 164.052 78.1768L198.552 76.6768C203.052 75.1768 209.552 69.6768 229.052 30.1768Z" stroke="black" stroke-width="0.5"/>
<path d="M171.052 29.6768C166.552 30.1768 163.052 30.1768 160.052 30.1768L165.552 7.67683C168.552 7.17676 171.552 7.17676 174.552 7.67683L171.052 29.6768Z" stroke="black" stroke-width="0.5"/>
<path d="M99.5518 31.6769C104.052 37.1769 111.052 33.6769 115.052 32.1769C116.052 16.6768 103.052 24.6768 99.5518 31.6769Z" stroke="black" stroke-width="0.5"/>
<path d="M235.05 9.17676L232.05 12.6768C249.05 18.1768 259.55 21.1768 272.05 27.6768H273.55L281.55 26.1768C266.55 19.6768 259.05 17.1768 235.05 9.17676Z" fill="#E0426F" stroke="black" stroke-width="0.5"/>
<path d="M272.05 27.6768C261.55 22.1768 242.55 15.6768 232.05 12.6768L230.05 15.1768L245.05 22.6768C243.55 25.1768 239.55 27.1768 233.55 29.8768C245.55 29.1768 262.55 28.1768 272.05 27.6768Z" fill="#E0426F" stroke="black" stroke-width="0.5"/>
<path d="M277.552 33.9768L283.55 31.6768L273.051 27.6768L229.051 30.1768C221.551 45.1768 206.551 75.6768 198.551 76.6768H213.051C211.551 65.6768 221.051 42.1768 246.052 51.1768C256.552 45.6768 266.552 40.1768 277.552 33.9768Z" fill="#E0426F" stroke="black" stroke-width="0.5"/>
<path d="M278.55 33.6768C266.55 40.1768 256.55 45.6768 246.05 51.1768C250.55 54.1768 261.05 60.1768 260.05 79.1768L285.05 78.6768V77.1768C293.55 76.1768 302.05 79.6768 300.55 65.6768L302.55 55.6768C302.55 54.1768 300.05 50.1768 297.55 49.6768C299.05 47.1768 296.05 38.1768 296.05 38.1768V36.6768L292.05 33.6768L287.05 32.1768L283.55 31.6768L278.55 33.6768Z" fill="#E0426F" stroke="black" stroke-width="0.5"/>
<path d="M281.55 26.1768L273.05 27.6768L283.55 31.6768C293.05 32.6768 292.049 34.1768 296.044 36.5969L295.55 28.1768L281.55 26.1768Z" fill="#E0426F"/>
<path d="M296.05 36.6768L296.044 36.5969M296.044 36.5969L295.55 28.1768L281.55 26.1768L273.05 27.6768L283.55 31.6768C293.05 32.6768 292.049 34.1768 296.044 36.5969Z" stroke="black" stroke-width="0.5"/>
<path d="M294.552 36.177C294.052 33.6768 283.052 33.4768 277.552 33.9768" stroke="black" stroke-width="0.5"/>
<path d="M300.552 66.1768L261.052 68.1768C260.552 63.1768 258.385 59.0101 256.552 57.1768L302.552 54.6768M301.052 52.1768C290.052 50.6768 279.052 45.8768 267.052 39.8768M229.052 30.1768L273.052 27.6768L281.552 26.1768" stroke="black" stroke-width="0.5"/>
<path d="M291.052 40.1768C291.052 38.1768 290.052 34.1768 286.552 32.1768C288.773 32.1768 292.149 33.2171 294.661 35.5867C295.124 37.1167 294.052 40.6768 291.01 42.1768C290.996 41.5865 291.052 40.901 291.052 40.1768Z" fill="#E0426F"/>
<path d="M273.052 42.6768C280.047 43.0265 286.064 43.1316 291.445 43.6768M298.052 44.6768C295.949 44.2261 293.756 43.9109 291.445 43.6768M296.052 37.1768C295.634 36.5916 295.165 36.0624 294.661 35.5867M291.445 43.6768C291.119 43.332 291.025 42.8089 291.01 42.1768M291.01 42.1768C290.996 41.5865 291.052 40.901 291.052 40.1768C291.052 38.1768 290.052 34.1768 286.552 32.1768C288.773 32.1768 292.149 33.2171 294.661 35.5867M291.01 42.1768C294.052 40.6768 295.124 37.1167 294.661 35.5867" stroke="black" stroke-width="0.5"/>
<path d="M291.052 40.1768C286.552 40.1768 284.552 36.1768 283.552 33.6768" stroke="black" stroke-width="0.5"/>
<path d="M133.05 12.2767C119.55 16.2767 107.55 22.1768 93.5498 35.1768C100.55 23.1768 116.05 13.6768 131.55 8.67676L133.05 12.2767Z" fill="#E56E90" stroke="black" stroke-width="0.5"/>
<path d="M131.55 8.67676C111.55 14.3508 93.5498 31.6768 85.5498 29.6768C98.5498 20.1768 114.55 11.6768 131.05 7.17676L131.55 8.67676Z" fill="#E56E90" stroke="black" stroke-width="0.5"/>
<path d="M10.5505 47.6768H4.55047C2.0498 51.6768 2.0498 61.6768 2.55047 65.1768C1.0498 66.1768 1.0504 70.6768 2.05047 72.1768L6.05047 72.6768V74.1768L2.05047 76.1768V78.1768C6.05047 79.1768 14.5505 81.1768 22.5505 80.6768V79.1768H40.0505C39.3838 70.6768 41.0505 60.1768 50.0505 53.1768C47.5505 49.1768 40.5505 44.6768 37.5505 44.1768C27.5505 43.1768 12.5505 45.6768 10.5505 47.6768Z" fill="#E56E90" stroke="black" stroke-width="0.5"/>
<path d="M93.5518 35.1768C75.7184 36.0101 44.0518 40.8768 33.5518 43.8768L37.5518 44.1768C42.5518 45.6768 48.0518 50.0101 50.0518 53.1768C63.0508 43.6768 88.5508 50.6768 87.0508 78.1768H97.0508C90.0508 67.1768 91.0508 45.1768 93.5518 35.1768Z" fill="#E56E90" stroke="black" stroke-width="0.5"/>
<path d="M10.5498 47.6768H4.5498C37.05 28.1767 59.05 34.1768 85.0498 29.6768L94.05 35.1768C77.05 36.1768 48.0498 39.6768 34.0498 43.8768C26.0498 43.6767 12.0498 45.6768 10.5498 47.6768Z" fill="#E56E90" stroke="black" stroke-width="0.5"/>
<path d="M37.5513 44.1768C30.0513 43.1768 13.0513 45.1768 10.5513 47.6768C9.75126 50.0768 12.8846 53.0101 14.5513 54.1768C24.0513 55.6768 37.5513 49.6768 37.5513 44.1768Z" fill="#E56E90" stroke="black" stroke-width="0.5"/>
<path d="M4.5505 47.6768C11.5505 48.6768 5.5505 59.1768 2.5505 64.1768C2.05043 57.1768 2.55029 51.6768 4.5505 47.6768Z" fill="#E56E90" stroke="black" stroke-width="0.5"/>
<path d="M22.5498 83.6768V79.1768H40.0498L40.5498 83.6768H22.5498Z" fill="#E56E90" stroke="black" stroke-width="0.5"/>
<path d="M3.05176 65.1768C4.55176 67.6768 6.55176 70.8434 6.05176 72.6768M22.5518 79.1768C12.0518 79.6768 7.55176 75.6768 8.55176 72.1768C9.05176 71.6768 10.5518 70.1768 11.5518 70.1768" stroke="black" stroke-width="0.5"/>
<path d="M32.5518 74.1768C30.0518 70.1768 24.5518 65.1768 21.5518 63.6768C19.8017 63.1768 17.1766 63.3018 14.4265 63.6768C12.8016 65.0101 11.5518 68.1768 12.0518 71.1768C12.0518 72.3434 13.3592 74.6768 16.0518 74.6768C20.5518 74.6768 27.5518 75.1768 32.5518 74.1768Z" fill="#E56E90"/>
<path d="M6.55176 65.1768C8.8017 64.6768 11.6766 64.0518 14.4265 63.6768M14.4265 63.6768C17.1766 63.3018 19.8017 63.1768 21.5518 63.6768C24.5518 65.1768 30.0518 70.1768 32.5518 74.1768C27.5518 75.1768 20.5518 74.6768 16.0518 74.6768C13.3592 74.6768 12.0518 72.3434 12.0518 71.1768C11.5518 68.1768 12.8016 65.0101 14.4265 63.6768Z" stroke="black" stroke-width="0.5"/>
<path d="M12.0518 70.6768C20.0518 69.1769 23.5518 71.8054 26.5518 73.3054M13.5518 73.6769L31.0518 73.1769" stroke="black" stroke-width="0.5"/>
<path d="M22.5498 82.1768H32.0498C34.0498 82.1768 35.5498 80.1768 35.0498 79.1768M38.5498 79.1768V83.6768" stroke="black" stroke-width="0.5"/>
<path d="M22.5517 80.677C18.0517 80.677 13.5517 81.177 2.0517 78.177V76.177L6.0517 74.177V72.677L2.0517 72.177C1.55078 70.6768 0.550977 67.6768 2.55097 65.1768C2.05122 57.1768 2.55122 50.6768 4.5517 47.6765C37.0517 28.1769 59.0517 34.1769 85.0517 29.6769C163.052 -25.3232 245.052 11.6767 282.052 26.1769L295.552 28.1768L296.052 35.1768V38.1768C297.55 43.1768 298.885 47.6768 297.552 49.6768C300.052 50.6768 302.552 53.8434 302.552 55.6768L300.552 65.6768C301.004 76.5247 298.596 76.7489 289.264 77.0614C288.273 77.0946 286.204 77.1288 285.052 77.1768V78.6768L260.052 79.1078M22.5517 80.677V83.677H40.55L40.0517 79.177M22.5517 80.677V79.177H40.0517M40.0517 79.177C37.0517 37.677 90.5517 40.677 87.0517 79.677V82.1768H213.552C207.552 38.6768 262.052 38.6768 260.052 79.1078M259.55 79.1078H260.052" stroke="black"/>
</svg>
