<svg width="303" height="96" viewBox="0 0 303 96" fill="none" xmlns="http://www.w3.org/2000/svg">
<circle cx="62.6978" cy="74.0454" r="20.5" stroke="black"/>
<circle cx="235.698" cy="74.0454" r="20.5" stroke="black"/>
<path d="M132.696 12.5453L131.196 9.04527C171.196 1.04538 192.696 1.54541 231.696 13.0454L228.196 17.5454C208.196 9.54532 190.196 8.54532 174.196 8.04539C171.696 7.54539 167.696 7.54535 165.196 8.04527C155.196 8.04539 143.196 9.54539 132.696 12.5453Z" fill="#E56E90" stroke="black" stroke-width="0.5"/>
<path d="M131.196 9.04545L130.696 7.54545C166.696 -3.45459 199.196 0.545284 234.696 9.54546L231.696 13.0455C191.696 0.54541 165.696 2.04541 131.196 9.04545Z" fill="#E56E90" stroke="black" stroke-width="0.5"/>
<path d="M131.196 9.04552C182.696 -2.4545 211.196 7.54553 231.696 13.0455" stroke="black" stroke-width="0.5"/>
<path d="M170.698 30.0454L174.198 8.04541C207.698 9.04541 219.198 14.5454 223.698 16.0454L226.181 28.0454C199.19 28.046 181.695 29.5455 170.698 30.0454Z" fill="#E56E90"/>
<path d="M226.698 30.5454L223.698 16.0454C219.198 14.5454 207.698 9.04541 174.198 8.04541L170.698 30.0454C181.698 29.5454 199.198 28.0454 226.198 28.0454" stroke="black" stroke-width="0.5"/>
<path d="M165.198 8.04541C132.198 9.04541 112.198 18.0454 93.1978 35.5454L95.6978 33.5454L159.698 30.5454L165.198 8.04541Z" fill="#E56E90" stroke="black" stroke-width="0.5"/>
<path d="M239.696 22.5454C236.03 19.8787 230.196 17.5454 223.696 16.0454L226.196 28.0454H232.696C235.696 26.5454 238.696 24.3141 239.696 22.5454Z" fill="#E56E90" stroke="black" stroke-width="0.5"/>
<path d="M96.6978 78.5454H163.698L198.198 77.0454H212.698L213.198 82.5454H199.198H98.1978H86.6978V78.5454H96.6978Z" fill="#E56E90"/>
<path d="M96.6978 78.5454H163.698L198.198 77.0454M96.6978 78.5454C96.6978 80.0454 97.1978 81.0454 98.1978 82.5454M96.6978 78.5454H86.6978V82.5454H98.1978M198.198 77.0454L199.198 82.5454M198.198 77.0454H212.698L213.198 82.5454H199.198M199.198 82.5454H98.1978" stroke="black" stroke-width="0.5"/>
<path d="M96.6969 78.5454C92.1977 74.0454 89.1978 52.0454 93.1969 35.5454L165.198 31.5454C161.198 36.5454 160.198 70.5454 163.698 78.5454H96.6969Z" fill="#E56E90" stroke="black" stroke-width="0.5"/>
<path d="M228.697 30.5454L165.197 31.5454C161.197 36.5454 160.198 70.5454 163.697 78.5454L198.197 77.0454C202.697 75.5454 209.197 70.0454 228.697 30.5454Z" fill="#E56E90" stroke="black" stroke-width="0.5"/>
<path d="M170.698 30.0455C166.198 30.5455 162.698 30.5455 159.698 30.5455L165.198 8.04548C168.198 7.54541 171.198 7.54541 174.198 8.04548L170.698 30.0455Z" fill="#E56E90" stroke="black" stroke-width="0.5"/>
<path d="M99.1978 32.0457C103.698 37.5457 110.698 34.0457 114.698 32.5457C115.698 17.0455 102.698 25.0455 99.1978 32.0457Z" fill="#E56E90" stroke="black" stroke-width="0.5"/>
<path d="M234.696 9.54541L231.696 13.0454C248.696 18.5454 259.196 21.5454 271.696 28.0454H273.196L281.196 26.5454C266.196 20.0454 258.696 17.5454 234.696 9.54541Z" stroke="black" stroke-width="0.5"/>
<path d="M271.696 28.0454C261.196 22.5454 242.196 16.0454 231.696 13.0454L229.696 15.5454L244.696 23.0454C243.196 25.5454 239.196 27.5454 233.196 30.2454C245.196 29.5454 262.196 28.5454 271.696 28.0454Z" stroke="black" stroke-width="0.5"/>
<path d="M277.198 34.3454L283.196 32.0454L272.697 28.0454L228.697 30.5454C221.197 45.5454 206.197 76.0454 198.197 77.0454H212.697C211.197 66.0454 220.697 42.5454 245.698 51.5454C256.198 46.0454 266.198 40.5454 277.198 34.3454Z" stroke="black" stroke-width="0.5"/>
<path d="M278.196 34.0454C266.196 40.5454 256.196 46.0454 245.696 51.5454C250.196 54.5454 260.696 60.5454 259.696 79.5454L284.696 79.0454V77.5454C293.196 76.5454 301.696 80.0454 300.196 66.0454L302.196 56.0454C302.196 54.5454 299.696 50.5454 297.196 50.0454C298.696 47.5454 295.696 38.5454 295.696 38.5454V37.0454L291.696 34.0454L286.696 32.5454L283.196 32.0454L278.196 34.0454Z" stroke="black" stroke-width="0.5"/>
<path d="M295.696 37.0454L295.69 36.9656M295.69 36.9656L295.196 28.5454L281.196 26.5454L272.696 28.0454L283.196 32.0454C292.696 33.0454 291.695 34.5454 295.69 36.9656Z" stroke="black" stroke-width="0.5"/>
<path d="M294.198 36.5456C293.698 34.0455 282.698 33.8454 277.198 34.3454" stroke="black" stroke-width="0.5"/>
<path d="M300.198 66.5454L260.698 68.5454C260.198 63.5454 258.031 59.3787 256.198 57.5454L302.198 55.0454M300.698 52.5454C289.698 51.0454 278.698 46.2454 266.698 40.2454M228.698 30.5454L272.698 28.0454L281.198 26.5454" stroke="black" stroke-width="0.5"/>
<path d="M272.698 43.0454C279.693 43.3952 285.71 43.5003 291.091 44.0454M297.698 45.0454C295.595 44.5948 293.402 44.2795 291.091 44.0454M295.698 37.5454C295.28 36.9603 294.811 36.4311 294.307 35.9554M291.091 44.0454C290.765 43.7006 290.671 43.1776 290.656 42.5454M290.656 42.5454C290.642 41.9551 290.698 41.2697 290.698 40.5454C290.698 38.5454 289.698 34.5454 286.198 32.5454C288.419 32.5454 291.795 33.5858 294.307 35.9554M290.656 42.5454C293.698 41.0454 294.77 37.4854 294.307 35.9554" stroke="black" stroke-width="0.5"/>
<path d="M290.698 40.5454C286.198 40.5454 284.198 36.5454 283.198 34.0454" stroke="black" stroke-width="0.5"/>
<path d="M132.696 12.6454C119.196 16.6454 107.196 22.5454 93.1963 35.5454C100.196 23.5454 115.696 14.0454 131.196 9.04541L132.696 12.6454Z" fill="#EDADBF" stroke="black" stroke-width="0.5"/>
<path d="M131.196 9.04541C111.196 14.7194 93.1963 32.0454 85.1963 30.0454C98.1963 20.5454 114.196 12.0454 130.696 7.54541L131.196 9.04541Z" fill="#EDADBF" stroke="black" stroke-width="0.5"/>
<path d="M10.197 48.0453H4.19696C1.69629 52.0453 1.69629 62.0453 2.19696 65.5453C0.696289 66.5453 0.696887 71.0453 1.69696 72.5453L5.69696 73.0453V74.5453L1.69696 76.5453V78.5453C5.69696 79.5453 14.197 81.5453 22.197 81.0453V79.5453H39.697C39.0303 71.0453 40.697 60.5453 49.697 53.5453C47.197 49.5453 40.197 45.0453 37.197 44.5453C27.197 43.5453 12.197 46.0453 10.197 48.0453Z" fill="#EDADBF" stroke="black" stroke-width="0.5"/>
<path d="M93.1978 35.5454C75.3644 36.3787 43.6978 41.2454 33.1978 44.2454L37.1978 44.5454C42.1978 46.0454 47.6978 50.3787 49.6978 53.5454C62.6968 44.0454 88.1968 51.0454 86.6968 78.5454H96.6968C89.6968 67.5454 90.6968 45.5454 93.1978 35.5454Z" fill="#EDADBF" stroke="black" stroke-width="0.5"/>
<path d="M10.1963 48.0455H4.19629C36.6965 28.5454 58.6965 34.5454 84.6963 30.0454L93.6965 35.5454C76.6965 36.5454 47.6963 40.0454 33.6963 44.2454C25.6963 44.0454 11.6963 46.0454 10.1963 48.0455Z" fill="#EDADBF" stroke="black" stroke-width="0.5"/>
<path d="M37.1977 44.5455C29.6977 43.5454 12.6977 45.5454 10.1977 48.0455C9.39774 50.4454 12.5311 53.3787 14.1977 54.5454C23.6978 56.0454 37.1977 50.0454 37.1977 44.5455Z" fill="#EDADBF" stroke="black" stroke-width="0.5"/>
<path d="M4.19698 48.0454C11.197 49.0454 5.19698 59.5454 2.19698 64.5454C1.69691 57.5454 2.19678 52.0454 4.19698 48.0454Z" fill="#EDADBF" stroke="black" stroke-width="0.5"/>
<path d="M22.1963 84.0454V79.5454H39.6963L40.1963 84.0454H22.1963Z" fill="#EDADBF" stroke="black" stroke-width="0.5"/>
<path d="M2.69824 65.5454C4.19824 68.0454 6.19824 71.2121 5.69824 73.0454M22.1982 79.5454C11.6982 80.0454 7.19824 76.0454 8.19824 72.5454C8.69824 72.0454 10.1982 70.5454 11.1982 70.5454" stroke="black" stroke-width="0.5"/>
<path d="M32.1982 74.5455C29.6982 70.5455 24.1982 65.5456 21.1982 64.0456C19.4482 63.5456 16.8231 63.6706 14.073 64.0456C12.4481 65.3789 11.1982 68.5455 11.6982 71.5455C11.6982 72.7122 13.0057 75.0455 15.6982 75.0455C20.1982 75.0455 27.1982 75.5455 32.1982 74.5455Z" fill="#EDADBF"/>
<path d="M6.19824 65.5456C8.44818 65.0456 11.3231 64.4206 14.073 64.0456M14.073 64.0456C16.8231 63.6706 19.4482 63.5456 21.1982 64.0456C24.1982 65.5456 29.6982 70.5455 32.1982 74.5455C27.1982 75.5455 20.1982 75.0455 15.6982 75.0455C13.0057 75.0455 11.6982 72.7122 11.6982 71.5455C11.1982 68.5455 12.4481 65.3789 14.073 64.0456Z" stroke="black" stroke-width="0.5"/>
<path d="M11.6982 71.0456C19.6982 69.5457 23.1982 72.1741 26.1982 73.6741M13.1982 74.0457L30.6982 73.5457" stroke="black" stroke-width="0.5"/>
<path d="M22.1963 82.5454H31.6963C33.6963 82.5454 35.1963 80.5454 34.6963 79.5454M38.1963 79.5454V84.0454" stroke="black" stroke-width="0.5"/>
<path d="M22.1977 81.0457C17.6977 81.0457 13.1977 81.5457 1.6977 78.5457V76.5457L5.6977 74.5456V73.0457L1.6977 72.5457C1.19678 71.0454 0.196973 68.0454 2.19697 65.5454C1.69721 57.5454 2.19721 51.0454 4.1977 48.0452C36.6977 28.5455 58.6977 34.5456 84.6977 30.0456C162.698 -24.9545 244.698 12.0454 281.698 26.5456L295.198 28.5454L295.698 35.5454V38.5454C297.196 43.5454 298.531 48.0454 297.198 50.0454C299.698 51.0454 302.198 54.2121 302.198 56.0454L300.198 66.0454C300.65 76.8933 298.242 77.1176 288.91 77.43C287.919 77.4632 285.85 77.4974 284.698 77.5454V79.0454L259.698 79.4764M22.1977 81.0457V84.0457H40.196L39.6977 79.5457M22.1977 81.0457V79.5457H39.6977M39.6977 79.5457C36.6977 38.0457 90.1977 41.0457 86.6977 80.0457V82.5454H213.198C207.198 39.0454 261.698 39.0454 259.698 79.4764M259.196 79.4764H259.698" stroke="black"/>
</svg>
