<svg width="304" height="96" viewBox="0 0 304 96" fill="none" xmlns="http://www.w3.org/2000/svg">
<circle cx="63.0635" cy="74.5227" r="20.5" fill="#EDADBF" stroke="black"/>
<circle cx="236.063" cy="74.5227" r="20.5" fill="#EDADBF" stroke="black"/>
<path d="M133.062 13.0226L131.562 9.52256C171.562 1.52267 193.062 2.02271 232.062 13.5227L228.562 18.0226C208.562 10.0226 190.562 9.02261 174.562 8.52268C172.062 8.02268 168.062 8.02264 165.562 8.52256C155.562 8.52268 143.562 10.0227 133.062 13.0226Z" fill="#EFC7D3" stroke="black" stroke-width="0.5"/>
<path d="M131.562 9.52275L131.062 8.02275C167.062 -2.97729 199.562 1.02258 235.062 10.0228L232.062 13.5228C192.062 1.02271 166.062 2.52271 131.562 9.52275Z" fill="#EFC7D3" stroke="black" stroke-width="0.5"/>
<path d="M131.562 9.52269C183.062 -1.97733 211.562 8.02271 232.062 13.5227" stroke="black" stroke-width="0.5"/>
<path d="M171.063 30.5227L174.563 8.52271C208.063 9.52271 219.563 15.0227 224.063 16.5227L226.546 28.5227C199.556 28.5233 182.061 30.0228 171.063 30.5227Z" fill="#EFC7D3"/>
<path d="M227.063 31.0227L224.063 16.5227C219.563 15.0227 208.063 9.52271 174.563 8.52271L171.063 30.5227C182.063 30.0227 199.563 28.5227 226.563 28.5227" stroke="black" stroke-width="0.5"/>
<path d="M165.563 8.52271C132.563 9.52271 112.563 18.5227 93.5635 36.0227L96.0635 34.0227L160.063 31.0227L165.563 8.52271Z" fill="#EFC7D3" stroke="black" stroke-width="0.5"/>
<path d="M240.062 23.0227C236.395 20.356 230.562 18.0227 224.062 16.5227L226.562 28.5227H233.062C236.062 27.0227 239.062 24.7914 240.062 23.0227Z" fill="#EFC7D3" stroke="black" stroke-width="0.5"/>
<path d="M97.0635 79.0227H164.063L198.563 77.5227H213.063L213.563 83.0227H199.563H98.5635H87.0635V79.0227H97.0635Z" fill="#EFC7D3"/>
<path d="M97.0635 79.0227H164.063L198.563 77.5227M97.0635 79.0227C97.0635 80.5227 97.5635 81.5227 98.5635 83.0227M97.0635 79.0227H87.0635V83.0227H98.5635M198.563 77.5227L199.563 83.0227M198.563 77.5227H213.063L213.563 83.0227H199.563M199.563 83.0227H98.5635" stroke="black" stroke-width="0.5"/>
<path d="M97.0626 79.0227C92.5635 74.5227 89.5635 52.5227 93.5626 36.0227L165.563 32.0227C161.563 37.0227 160.563 71.0227 164.063 79.0227H97.0626Z" fill="#EFC7D3" stroke="black" stroke-width="0.5"/>
<path d="M229.063 31.0227L165.563 32.0227C161.564 37.0227 160.564 71.0227 164.063 79.0227L198.563 77.5227C203.063 76.0227 209.563 70.5227 229.063 31.0227Z" fill="#EFC7D3" stroke="black" stroke-width="0.5"/>
<path d="M171.063 30.5228C166.563 31.0228 163.063 31.0228 160.063 31.0228L165.563 8.52278C168.563 8.02271 171.563 8.02271 174.563 8.52278L171.063 30.5228Z" fill="#EFC7D3" stroke="black" stroke-width="0.5"/>
<path d="M99.5635 32.5228C104.063 38.0228 111.063 34.5228 115.063 33.0228C116.063 17.5227 103.063 25.5227 99.5635 32.5228Z" fill="#EFC7D3" stroke="black" stroke-width="0.5"/>
<path d="M235.062 10.0227L232.062 13.5227C249.062 19.0227 259.562 22.0227 272.062 28.5227H273.562L281.562 27.0227C266.562 20.5227 259.062 18.0227 235.062 10.0227Z" fill="#E56E90" stroke="black" stroke-width="0.5"/>
<path d="M272.062 28.5227C261.562 23.0227 242.562 16.5227 232.062 13.5227L230.062 16.0227L245.062 23.5227C243.562 26.0227 239.562 28.0227 233.562 30.7227C245.562 30.0227 262.562 29.0227 272.062 28.5227Z" fill="#E56E90" stroke="black" stroke-width="0.5"/>
<path d="M277.563 34.8227L283.562 32.5227L273.062 28.5227L229.062 31.0227C221.562 46.0227 206.562 76.5227 198.562 77.5227H213.062C211.562 66.5227 221.062 43.0227 246.063 52.0227C256.563 46.5227 266.563 41.0227 277.563 34.8227Z" fill="#E56E90" stroke="black" stroke-width="0.5"/>
<path d="M278.562 34.5227C266.562 41.0227 256.562 46.5227 246.062 52.0227C250.562 55.0227 261.062 61.0227 260.062 80.0227L285.062 79.5227V78.0227C293.562 77.0227 302.062 80.5227 300.562 66.5227L302.562 56.5227C302.562 55.0227 300.062 51.0227 297.562 50.5227C299.062 48.0227 296.062 39.0227 296.062 39.0227V37.5227L292.062 34.5227L287.062 33.0227L283.562 32.5227L278.562 34.5227Z" fill="#E56E90" stroke="black" stroke-width="0.5"/>
<path d="M281.562 27.0227L273.062 28.5227L283.562 32.5227C293.062 33.5227 292.06 35.0227 296.056 37.4429L295.562 29.0227L281.562 27.0227Z" fill="#E56E90"/>
<path d="M296.062 37.5227L296.056 37.4429M296.056 37.4429L295.562 29.0227L281.562 27.0227L273.062 28.5227L283.562 32.5227C293.062 33.5227 292.06 35.0227 296.056 37.4429Z" stroke="black" stroke-width="0.5"/>
<path d="M294.563 37.0229C294.063 34.5228 283.063 34.3227 277.563 34.8227" stroke="black" stroke-width="0.5"/>
<path d="M300.563 67.0227L261.063 69.0227C260.563 64.0227 258.397 59.856 256.563 58.0227L302.563 55.5227M301.063 53.0227C290.063 51.5227 279.063 46.7227 267.063 40.7227M229.063 31.0227L273.063 28.5227L281.563 27.0227" stroke="black" stroke-width="0.5"/>
<path d="M291.063 41.0227C291.063 39.0227 290.063 35.0227 286.563 33.0227C288.784 33.0227 292.161 34.0631 294.672 36.4327C295.136 37.9627 294.063 41.5227 291.022 43.0227C291.008 42.4324 291.063 41.747 291.063 41.0227Z" fill="#E56E90"/>
<path d="M273.063 43.5227C280.059 43.8725 286.076 43.9776 291.457 44.5227M298.063 45.5227C295.96 45.0721 293.767 44.7568 291.457 44.5227M296.063 38.0227C295.646 37.4376 295.176 36.9084 294.672 36.4327M291.457 44.5227C291.13 44.1779 291.036 43.6549 291.022 43.0227M291.022 43.0227C291.008 42.4324 291.063 41.747 291.063 41.0227C291.063 39.0227 290.063 35.0227 286.563 33.0227C288.784 33.0227 292.161 34.0631 294.672 36.4327M291.022 43.0227C294.063 41.5227 295.136 37.9627 294.672 36.4327" stroke="black" stroke-width="0.5"/>
<path d="M291.063 41.0227C286.563 41.0227 284.563 37.0227 283.563 34.5227" stroke="black" stroke-width="0.5"/>
<path d="M133.062 13.1227C119.562 17.1227 107.562 23.0227 93.5615 36.0227C100.562 24.0227 116.062 14.5227 131.562 9.52271L133.062 13.1227Z" fill="#E56E90" stroke="black" stroke-width="0.5"/>
<path d="M131.562 9.52271C111.562 15.1967 93.5615 32.5227 85.5615 30.5227C98.5615 21.0227 114.562 12.5227 131.062 8.02271L131.562 9.52271Z" fill="#E56E90" stroke="black" stroke-width="0.5"/>
<path d="M10.5622 48.5227H4.56219C2.06152 52.5227 2.06152 62.5227 2.56219 66.0227C1.06152 67.0227 1.06212 71.5227 2.06219 73.0227L6.06219 73.5227V75.0227L2.06219 77.0227V79.0227C6.06219 80.0227 14.5622 82.0227 22.5622 81.5227V80.0227H40.0622C39.3955 71.5227 41.0622 61.0227 50.0622 54.0227C47.5622 50.0227 40.5622 45.5227 37.5622 45.0227C27.5622 44.0227 12.5622 46.5227 10.5622 48.5227Z" fill="#E56E90" stroke="black" stroke-width="0.5"/>
<path d="M93.5635 36.0227C75.7301 36.856 44.0635 41.7227 33.5635 44.7227L37.5635 45.0227C42.5635 46.5227 48.0635 50.856 50.0635 54.0227C63.0625 44.5227 88.5625 51.5227 87.0625 79.0227H97.0625C90.0625 68.0227 91.0625 46.0227 93.5635 36.0227Z" fill="#E56E90" stroke="black" stroke-width="0.5"/>
<path d="M10.5615 48.5228H4.56152C37.0617 29.0227 59.0618 35.0227 85.0615 30.5227L94.0618 36.0227C77.0618 37.0227 48.0615 40.5227 34.0615 44.7227C26.0615 44.5227 12.0615 46.5227 10.5615 48.5228Z" fill="#E56E90" stroke="black" stroke-width="0.5"/>
<path d="M37.563 45.0228C30.063 44.0227 13.063 46.0227 10.563 48.5228C9.76298 50.9227 12.8963 53.856 14.563 55.0227C24.063 56.5227 37.563 50.5227 37.563 45.0228Z" fill="#E56E90" stroke="black" stroke-width="0.5"/>
<path d="M4.56222 48.5227C11.5622 49.5227 5.56222 60.0227 2.56222 65.0227C2.06215 58.0227 2.56201 52.5227 4.56222 48.5227Z" fill="#E56E90" stroke="black" stroke-width="0.5"/>
<path d="M22.5615 84.5227V80.0227H40.0615L40.5615 84.5227H22.5615Z" fill="#E56E90" stroke="black" stroke-width="0.5"/>
<path d="M3.06348 66.0225C4.56348 68.5225 6.56348 71.6891 6.06348 73.5225M22.5635 80.0225C12.0635 80.5225 7.56348 76.5225 8.56348 73.0225C9.06348 72.5225 10.5635 71.0225 11.5635 71.0225" stroke="black" stroke-width="0.5"/>
<path d="M32.5635 75.0226C30.0635 71.0226 24.5635 66.0227 21.5635 64.5227C19.8134 64.0227 17.1883 64.1477 14.4383 64.5227C12.8133 65.856 11.5635 69.0226 12.0635 72.0226C12.0635 73.1892 13.3709 75.5226 16.0635 75.5226C20.5635 75.5226 27.5635 76.0226 32.5635 75.0226Z" fill="#E56E90"/>
<path d="M6.56348 66.0227C8.81342 65.5226 11.6883 64.8977 14.4383 64.5227M14.4383 64.5227C17.1883 64.1477 19.8134 64.0227 21.5635 64.5227C24.5635 66.0227 30.0635 71.0226 32.5635 75.0226C27.5635 76.0226 20.5635 75.5226 16.0635 75.5226C13.3709 75.5226 12.0635 73.1892 12.0635 72.0226C11.5635 69.0226 12.8133 65.856 14.4383 64.5227Z" stroke="black" stroke-width="0.5"/>
<path d="M12.0635 71.5227C20.0635 70.0227 23.5635 72.6512 26.5635 74.1512M13.5635 74.5227L31.0635 74.0227" stroke="black" stroke-width="0.5"/>
<path d="M22.5615 83.0225H32.0615C34.0615 83.0225 35.5615 81.0225 35.0615 80.0225M38.5615 80.0225V84.5225" stroke="black" stroke-width="0.5"/>
<path d="M22.5634 81.5229C18.0634 81.5229 13.5634 82.0229 2.06342 79.0229V77.0229L6.06342 75.0229V73.5229L2.06342 73.023C1.5625 71.5227 0.562696 68.5227 2.56269 66.0227C2.06293 58.0227 2.56293 51.5227 4.56342 48.5224C37.0634 29.0228 59.0634 35.0229 85.0634 30.5229C163.063 -24.4772 245.063 12.5227 282.063 27.0229L295.563 29.0227L296.063 36.0227V39.0227C297.562 44.0227 298.897 48.5227 297.563 50.5227C300.063 51.5227 302.563 54.6894 302.563 56.5227L300.563 66.5227C301.015 77.3706 298.607 77.5949 289.276 77.9073C288.285 77.9405 286.216 77.9747 285.063 78.0227V79.5227L260.063 79.9537M22.5634 81.5229V84.5229H40.5618L40.0634 80.0229M22.5634 81.5229V80.0229H40.0634M40.0634 80.0229C37.0634 38.5229 90.5634 41.5229 87.0634 80.5229V83.0227H213.563C207.563 39.5227 262.063 39.5227 260.063 79.9537M259.562 79.9537H260.063" stroke="black"/>
</svg>
