<svg width="303" height="96" viewBox="0 0 303 96" fill="none" xmlns="http://www.w3.org/2000/svg">
<circle cx="62.6978" cy="74.553" r="20.5" stroke="black"/>
<circle cx="235.698" cy="74.553" r="20.5" stroke="black"/>
<path d="M132.696 13.0528L131.196 9.55283C171.196 1.55295 192.696 2.05298 231.696 13.5529L228.196 18.0529C208.196 10.0529 190.196 9.05289 174.196 8.55296C171.696 8.05296 167.696 8.05292 165.196 8.55283C155.196 8.55296 143.196 10.053 132.696 13.0528Z" fill="#E0426F" stroke="black" stroke-width="0.5"/>
<path d="M131.196 9.55302L130.696 8.05302C166.696 -2.94702 199.196 1.05285 234.696 10.053L231.696 13.553C191.696 1.05298 165.696 2.55298 131.196 9.55302Z" fill="#E0426F" stroke="black" stroke-width="0.5"/>
<path d="M131.196 9.55284C182.696 -1.94718 211.196 8.05286 231.696 13.5528" stroke="black" stroke-width="0.5"/>
<path d="M170.698 30.553L174.198 8.55298C207.698 9.55298 219.198 15.053 223.698 16.553L226.181 28.553C199.19 28.5536 181.695 30.0531 170.698 30.553Z" fill="#E0426F"/>
<path d="M226.698 31.053L223.698 16.553C219.198 15.053 207.698 9.55298 174.198 8.55298L170.698 30.553C181.698 30.053 199.198 28.553 226.198 28.553" stroke="black" stroke-width="0.5"/>
<path d="M165.198 8.55298C132.198 9.55298 112.198 18.553 93.1978 36.053L95.6978 34.053L159.698 31.053L165.198 8.55298Z" fill="#E0426F" stroke="black" stroke-width="0.5"/>
<path d="M239.696 23.053C236.03 20.3863 230.196 18.053 223.696 16.553L226.196 28.553H232.696C235.696 27.053 238.696 24.8217 239.696 23.053Z" fill="#E0426F" stroke="black" stroke-width="0.5"/>
<path d="M96.6978 79.053H163.698L198.198 77.553H212.698L213.198 83.053H199.198H98.1978H86.6978V79.053H96.6978Z" fill="#E0426F"/>
<path d="M96.6978 79.053H163.698L198.198 77.553M96.6978 79.053C96.6978 80.553 97.1978 81.553 98.1978 83.053M96.6978 79.053H86.6978V83.053H98.1978M198.198 77.553L199.198 83.053M198.198 77.553H212.698L213.198 83.053H199.198M199.198 83.053H98.1978" stroke="black" stroke-width="0.5"/>
<path d="M96.6969 79.053C92.1977 74.553 89.1978 52.553 93.1969 36.053L165.198 32.053C161.198 37.053 160.198 71.053 163.698 79.053H96.6969Z" fill="#E0426F" stroke="black" stroke-width="0.5"/>
<path d="M228.697 31.053L165.197 32.053C161.197 37.053 160.198 71.053 163.697 79.053L198.197 77.553C202.697 76.053 209.197 70.553 228.697 31.053Z" fill="#E0426F" stroke="black" stroke-width="0.5"/>
<path d="M170.698 30.5531C166.198 31.0531 162.698 31.0531 159.698 31.0531L165.198 8.55305C168.198 8.05298 171.198 8.05298 174.198 8.55305L170.698 30.5531Z" fill="#E0426F" stroke="black" stroke-width="0.5"/>
<path d="M99.1978 32.553C103.698 38.053 110.698 34.553 114.698 33.053C115.698 17.5529 102.698 25.5529 99.1978 32.553Z" fill="#E0426F" stroke="black" stroke-width="0.5"/>
<path d="M234.696 10.053L231.696 13.553C248.696 19.053 259.196 22.053 271.696 28.553H273.196L281.196 27.053C266.196 20.553 258.696 18.053 234.696 10.053Z" stroke="black" stroke-width="0.5"/>
<path d="M271.696 28.553C261.196 23.053 242.196 16.553 231.696 13.553L229.696 16.053L244.696 23.553C243.196 26.053 239.196 28.053 233.196 30.753C245.196 30.053 262.196 29.053 271.696 28.553Z" stroke="black" stroke-width="0.5"/>
<path d="M277.198 34.853L283.196 32.553L272.697 28.553L228.697 31.053C221.197 46.053 206.197 76.553 198.197 77.553H212.697C211.197 66.553 220.697 43.053 245.698 52.053C256.198 46.553 266.198 41.053 277.198 34.853Z" stroke="black" stroke-width="0.5"/>
<path d="M278.196 34.553C266.196 41.053 256.196 46.553 245.696 52.053C250.196 55.053 260.696 61.053 259.696 80.053L284.696 79.553V78.053C293.196 77.053 301.696 80.553 300.196 66.553L302.196 56.553C302.196 55.053 299.696 51.053 297.196 50.553C298.696 48.053 295.696 39.053 295.696 39.053V37.553L291.696 34.553L286.696 33.053L283.196 32.553L278.196 34.553Z" stroke="black" stroke-width="0.5"/>
<path d="M295.696 37.553L295.69 37.4732M295.69 37.4732L295.196 29.053L281.196 27.053L272.696 28.553L283.196 32.553C292.696 33.553 291.695 35.053 295.69 37.4732Z" stroke="black" stroke-width="0.5"/>
<path d="M294.198 37.0532C293.698 34.5531 282.698 34.353 277.198 34.853" stroke="black" stroke-width="0.5"/>
<path d="M300.198 67.053L260.698 69.053C260.198 64.053 258.031 59.8863 256.198 58.053L302.198 55.553M300.698 53.053C289.698 51.553 278.698 46.753 266.698 40.753M228.698 31.053L272.698 28.553L281.198 27.053" stroke="black" stroke-width="0.5"/>
<path d="M272.698 43.553C279.693 43.9028 285.71 44.0079 291.091 44.553M297.698 45.553C295.595 45.1023 293.402 44.7871 291.091 44.553M295.698 38.053C295.28 37.4679 294.811 36.9386 294.307 36.463M291.091 44.553C290.765 44.2082 290.671 43.6852 290.656 43.053M290.656 43.053C290.642 42.4627 290.698 41.7773 290.698 41.053C290.698 39.053 289.698 35.053 286.198 33.053C288.419 33.053 291.795 34.0934 294.307 36.463M290.656 43.053C293.698 41.553 294.77 37.993 294.307 36.463" stroke="black" stroke-width="0.5"/>
<path d="M290.698 41.053C286.198 41.053 284.198 37.053 283.198 34.553" stroke="black" stroke-width="0.5"/>
<path d="M132.696 13.153C119.196 17.153 107.196 23.053 93.1963 36.053C100.196 24.053 115.696 14.553 131.196 9.55298L132.696 13.153Z" stroke="black" stroke-width="0.5"/>
<path d="M131.196 9.55298C111.196 15.227 93.1963 32.553 85.1963 30.553C98.1963 21.053 114.196 12.553 130.696 8.05298L131.196 9.55298Z" stroke="black" stroke-width="0.5"/>
<path d="M10.197 48.5529H4.19696C1.69629 52.5529 1.69629 62.5529 2.19696 66.0529C0.696289 67.0529 0.696887 71.5529 1.69696 73.0529L5.69696 73.5529V75.0529L1.69696 77.0529V79.0529C5.69696 80.0529 14.197 82.0529 22.197 81.5529V80.0529H39.697C39.0303 71.5529 40.697 61.0529 49.697 54.0529C47.197 50.0529 40.197 45.5529 37.197 45.0529C27.197 44.0529 12.197 46.5529 10.197 48.5529Z" stroke="black" stroke-width="0.5"/>
<path d="M93.1978 36.053C75.3644 36.8863 43.6978 41.753 33.1978 44.753L37.1978 45.053C42.1978 46.553 47.6978 50.8863 49.6978 54.053C62.6968 44.553 88.1968 51.553 86.6968 79.053H96.6968C89.6968 68.053 90.6968 46.053 93.1978 36.053Z" stroke="black" stroke-width="0.5"/>
<path d="M10.1963 48.553H4.19629C36.6965 29.0529 58.6965 35.053 84.6963 30.553L93.6965 36.053C76.6965 37.053 47.6963 40.553 33.6963 44.753C25.6963 44.553 11.6963 46.553 10.1963 48.553Z" stroke="black" stroke-width="0.5"/>
<path d="M37.1977 45.0531C29.6977 44.053 12.6977 46.053 10.1977 48.5531C9.39774 50.953 12.5311 53.8863 14.1977 55.053C23.6978 56.553 37.1977 50.553 37.1977 45.0531Z" stroke="black" stroke-width="0.5"/>
<path d="M4.19698 48.553C11.197 49.553 5.19698 60.053 2.19698 65.053C1.69691 58.053 2.19678 52.553 4.19698 48.553Z" stroke="black" stroke-width="0.5"/>
<path d="M22.1963 84.553V80.053H39.6963L40.1963 84.553H22.1963Z" stroke="black" stroke-width="0.5"/>
<path d="M2.69824 66.0527C4.19824 68.5527 6.19824 71.7194 5.69824 73.5527M22.1982 80.0527C11.6982 80.5527 7.19824 76.5527 8.19824 73.0527C8.69824 72.5527 10.1982 71.0527 11.1982 71.0527" stroke="black" stroke-width="0.5"/>
<path d="M6.19824 66.0529C8.44818 65.5529 11.3231 64.9279 14.073 64.5529M14.073 64.5529C16.8231 64.1779 19.4482 64.0529 21.1982 64.5529C24.1982 66.0529 29.6982 71.0529 32.1982 75.0529C27.1982 76.0529 20.1982 75.5529 15.6982 75.5529C13.0057 75.5529 11.6982 73.2195 11.6982 72.0529C11.1982 69.0529 12.4481 65.8862 14.073 64.5529Z" stroke="black" stroke-width="0.5"/>
<path d="M11.6982 71.5529C19.6982 70.053 23.1982 72.6815 26.1982 74.1815M13.1982 74.553L30.6982 74.053" stroke="black" stroke-width="0.5"/>
<path d="M22.1963 83.0527H31.6963C33.6963 83.0527 35.1963 81.0527 34.6963 80.0527M38.1963 80.0527V84.5527" stroke="black" stroke-width="0.5"/>
<path d="M22.1977 81.5532C17.6977 81.5532 13.1977 82.0532 1.6977 79.0532V77.0532L5.6977 75.0532V73.5532L1.6977 73.0532C1.19678 71.553 0.196973 68.553 2.19697 66.053C1.69721 58.053 2.19721 51.553 4.1977 48.5527C36.6977 29.0531 58.6977 35.0532 84.6977 30.5532C162.698 -24.4469 244.698 12.553 281.698 27.0532L295.198 29.053L295.698 36.053V39.053C297.196 44.053 298.531 48.553 297.198 50.553C299.698 51.553 302.198 54.7196 302.198 56.553L300.198 66.553C300.65 77.4009 298.242 77.6252 288.91 77.9376C287.919 77.9708 285.85 78.005 284.698 78.053V79.553L259.698 79.984M22.1977 81.5532V84.5532H40.196L39.6977 80.0532M22.1977 81.5532V80.0532H39.6977M39.6977 80.0532C36.6977 38.5532 90.1977 41.5532 86.6977 80.5532V83.053H213.198C207.198 39.553 261.698 39.553 259.698 79.984M259.196 79.984H259.698" stroke="black"/>
</svg>
