<svg width="303" height="95" viewBox="0 0 303 95" fill="none" xmlns="http://www.w3.org/2000/svg">
<circle cx="62.6875" cy="73.7222" r="20.5" stroke="black"/>
<circle cx="235.688" cy="73.7222" r="20.5" stroke="black"/>
<path d="M132.686 12.222L131.186 8.72202C171.186 0.722136 192.686 1.22217 231.686 12.7221L228.186 17.2221C208.186 9.22208 190.186 8.22208 174.186 7.72215C171.686 7.22215 167.686 7.22211 165.186 7.72202C155.186 7.72215 143.186 9.22215 132.686 12.222Z" fill="#E0426F" stroke="black" stroke-width="0.5"/>
<path d="M131.186 8.72221L130.686 7.22221C166.686 -3.77783 199.186 0.222042 234.686 9.22221L231.686 12.7222C191.686 0.222168 165.686 1.72217 131.186 8.72221Z" fill="#E0426F" stroke="black" stroke-width="0.5"/>
<path d="M131.186 8.72228C182.686 -2.77775 211.186 7.22229 231.686 12.7223" stroke="black" stroke-width="0.5"/>
<path d="M170.688 29.7222L174.188 7.72217C207.688 8.72217 219.188 14.2222 223.688 15.7222L226.17 27.7222C199.18 27.7228 181.685 29.2223 170.688 29.7222Z" fill="#E0426F"/>
<path d="M226.688 30.2222L223.688 15.7222C219.188 14.2222 207.688 8.72217 174.188 7.72217L170.688 29.7222C181.688 29.2222 199.188 27.7222 226.188 27.7222" stroke="black" stroke-width="0.5"/>
<path d="M165.188 7.72217C132.188 8.72217 112.188 17.7222 93.1875 35.2222L95.6875 33.2222L159.688 30.2222L165.188 7.72217Z" fill="#E0426F" stroke="black" stroke-width="0.5"/>
<path d="M239.686 22.2222C236.019 19.5555 230.186 17.2222 223.686 15.7222L226.186 27.7222H232.686C235.686 26.2222 238.686 23.9909 239.686 22.2222Z" fill="#E0426F" stroke="black" stroke-width="0.5"/>
<path d="M96.6875 78.2222H163.688L198.188 76.7222H212.688L213.188 82.2222H199.188H98.1875H86.6875V78.2222H96.6875Z" fill="#E0426F"/>
<path d="M96.6875 78.2222H163.688L198.188 76.7222M96.6875 78.2222C96.6875 79.7222 97.1875 80.7222 98.1875 82.2222M96.6875 78.2222H86.6875V82.2222H98.1875M198.188 76.7222L199.188 82.2222M198.188 76.7222H212.688L213.188 82.2222H199.188M199.188 82.2222H98.1875" stroke="black" stroke-width="0.5"/>
<path d="M96.6866 78.2222C92.1875 73.7222 89.1875 51.7222 93.1866 35.2222L165.188 31.2222C161.188 36.2222 160.188 70.2222 163.687 78.2222H96.6866Z" fill="#E0426F" stroke="black" stroke-width="0.5"/>
<path d="M228.687 30.2222L165.187 31.2222C161.188 36.2222 160.188 70.2222 163.687 78.2222L198.187 76.7222C202.687 75.2222 209.187 69.7222 228.687 30.2222Z" fill="#E0426F" stroke="black" stroke-width="0.5"/>
<path d="M170.688 29.7222C166.188 30.2222 162.688 30.2222 159.688 30.2222L165.188 7.72224C168.188 7.22217 171.188 7.22217 174.188 7.72224L170.688 29.7222Z" fill="#E0426F" stroke="black" stroke-width="0.5"/>
<path d="M99.1875 31.7224C103.688 37.2224 110.688 33.7224 114.688 32.2224C115.688 16.7223 102.688 24.7223 99.1875 31.7224Z" fill="#E0426F" stroke="black" stroke-width="0.5"/>
<path d="M234.686 9.22217L231.686 12.7222C248.686 18.2222 259.186 21.2222 271.686 27.7222H273.186L281.186 26.2222C266.186 19.7222 258.686 17.2222 234.686 9.22217Z" fill="#EFC7D3" stroke="black" stroke-width="0.5"/>
<path d="M271.686 27.7222C261.186 22.2222 242.186 15.7222 231.686 12.7222L229.686 15.2222L244.686 22.7222C243.186 25.2222 239.186 27.2222 233.186 29.9222C245.186 29.2222 262.186 28.2222 271.686 27.7222Z" fill="#EFC7D3" stroke="black" stroke-width="0.5"/>
<path d="M277.188 34.0222L283.186 31.7222L272.687 27.7222L228.687 30.2222C221.187 45.2222 206.187 75.7222 198.187 76.7222H212.687C211.187 65.7222 220.687 42.2222 245.688 51.2222C256.188 45.7222 266.188 40.2222 277.188 34.0222Z" fill="#EFC7D3" stroke="black" stroke-width="0.5"/>
<path d="M278.186 33.7222C266.186 40.2222 256.186 45.7222 245.686 51.2222C250.186 54.2222 260.686 60.2222 259.686 79.2222L284.686 78.7222V77.2222C293.186 76.2222 301.686 79.7222 300.186 65.7222L302.186 55.7222C302.186 54.2222 299.686 50.2222 297.186 49.7222C298.686 47.2222 295.686 38.2222 295.686 38.2222V36.7222L291.686 33.7222L286.686 32.2222L283.186 31.7222L278.186 33.7222Z" fill="#EFC7D3" stroke="black" stroke-width="0.5"/>
<path d="M281.186 26.2222L272.686 27.7222L283.186 31.7222C292.686 32.7222 291.684 34.2222 295.68 36.6423L295.186 28.2222L281.186 26.2222Z" fill="#EFC7D3"/>
<path d="M295.686 36.7222L295.68 36.6423M295.68 36.6423L295.186 28.2222L281.186 26.2222L272.686 27.7222L283.186 31.7222C292.686 32.7222 291.684 34.2222 295.68 36.6423Z" stroke="black" stroke-width="0.5"/>
<path d="M294.188 36.2224C293.688 33.7223 282.688 33.5222 277.188 34.0222" stroke="black" stroke-width="0.5"/>
<path d="M300.188 66.2222L260.688 68.2222C260.188 63.2222 258.021 59.0555 256.188 57.2222L302.188 54.7222M300.688 52.2222C289.688 50.7222 278.688 45.9222 266.688 39.9222M228.688 30.2222L272.688 27.7222L281.188 26.2222" stroke="black" stroke-width="0.5"/>
<path d="M290.688 40.2222C290.688 38.2222 289.688 34.2222 286.188 32.2222C288.408 32.2222 291.785 33.2626 294.296 35.6322C294.76 37.1622 293.688 40.7222 290.646 42.2222C290.632 41.6319 290.688 40.9465 290.688 40.2222Z" fill="#EFC7D3"/>
<path d="M272.688 42.7222C279.683 43.072 285.7 43.177 291.081 43.7222M297.688 44.7222C295.585 44.2715 293.391 43.9563 291.081 43.7222M295.688 37.2222C295.27 36.637 294.8 36.1078 294.296 35.6322M291.081 43.7222C290.754 43.3774 290.66 42.8544 290.646 42.2222M290.646 42.2222C290.632 41.6319 290.688 40.9465 290.688 40.2222C290.688 38.2222 289.688 34.2222 286.188 32.2222C288.408 32.2222 291.785 33.2626 294.296 35.6322M290.646 42.2222C293.688 40.7222 294.76 37.1622 294.296 35.6322" stroke="black" stroke-width="0.5"/>
<path d="M290.688 40.2222C286.188 40.2222 284.188 36.2222 283.188 33.7222" stroke="black" stroke-width="0.5"/>
<path d="M132.686 12.3221C119.186 16.3221 107.186 22.2222 93.186 35.2222C100.186 23.2222 115.686 13.7222 131.186 8.72217L132.686 12.3221Z" fill="#EFC7D3" stroke="black" stroke-width="0.5"/>
<path d="M131.186 8.72217C111.186 14.3962 93.186 31.7222 85.186 29.7222C98.186 20.2222 114.186 11.7222 130.686 7.22217L131.186 8.72217Z" fill="#EFC7D3" stroke="black" stroke-width="0.5"/>
<path d="M10.1867 47.7221H4.1867C1.68604 51.722 1.68604 61.722 2.1867 65.222C0.686035 66.222 0.686633 70.722 1.6867 72.222L5.6867 72.722V74.222L1.6867 76.222V78.222C5.6867 79.222 14.1867 81.222 22.1867 80.722V79.222H39.6867C39.02 70.722 40.6867 60.222 49.6867 53.222C47.1867 49.222 40.1867 44.722 37.1867 44.2221C27.1867 43.222 12.1867 45.7221 10.1867 47.7221Z" fill="#EFC7D3" stroke="black" stroke-width="0.5"/>
<path d="M93.1875 35.2222C75.3542 36.0555 43.6875 40.9222 33.1875 43.9222L37.1875 44.2222C42.1875 45.7222 47.6875 50.0555 49.6875 53.2222C62.6865 43.7222 88.1865 50.7222 86.6865 78.2222H96.6865C89.6865 67.2222 90.6865 45.2222 93.1875 35.2222Z" fill="#EFC7D3" stroke="black" stroke-width="0.5"/>
<path d="M10.1855 47.7222H4.18555C36.6857 28.2221 58.6858 34.2222 84.6855 29.7222L93.6858 35.2222C76.6858 36.2222 47.6855 39.7222 33.6855 43.9222C25.6855 43.7222 11.6855 45.7222 10.1855 47.7222Z" fill="#EFC7D3" stroke="black" stroke-width="0.5"/>
<path d="M37.1875 44.2222C29.6875 43.2222 12.6875 45.2222 10.1875 47.7222C9.38749 50.1222 12.5208 53.0555 14.1875 54.2222C23.6875 55.7222 37.1875 49.7222 37.1875 44.2222Z" fill="#EFC7D3" stroke="black" stroke-width="0.5"/>
<path d="M4.18673 47.7222C11.1867 48.7222 5.18673 59.2222 2.18673 64.2222C1.68666 57.2222 2.18652 51.7222 4.18673 47.7222Z" fill="#EFC7D3" stroke="black" stroke-width="0.5"/>
<path d="M22.186 83.7222V79.2222H39.686L40.186 83.7222H22.186Z" fill="#EFC7D3" stroke="black" stroke-width="0.5"/>
<path d="M2.6875 65.2222C4.1875 67.7222 6.1875 70.8888 5.6875 72.7222M22.1875 79.2222C11.6875 79.7222 7.1875 75.7222 8.1875 72.2222C8.6875 71.7222 10.1875 70.2222 11.1875 70.2222" stroke="black" stroke-width="0.5"/>
<path d="M32.1875 74.2223C29.6875 70.2223 24.1875 65.2224 21.1875 63.7224C19.4375 63.2224 16.8124 63.3474 14.0623 63.7224C12.4374 65.0557 11.1875 68.2223 11.6875 71.2223C11.6875 72.389 12.9949 74.7223 15.6875 74.7223C20.1875 74.7223 27.1875 75.2223 32.1875 74.2223Z" fill="#EFC7D3"/>
<path d="M6.1875 65.2224C8.43744 64.7223 11.3124 64.0974 14.0623 63.7224M14.0623 63.7224C16.8124 63.3474 19.4375 63.2224 21.1875 63.7224C24.1875 65.2224 29.6875 70.2223 32.1875 74.2223C27.1875 75.2223 20.1875 74.7223 15.6875 74.7223C12.9949 74.7223 11.6875 72.389 11.6875 71.2223C11.1875 68.2223 12.4374 65.0557 14.0623 63.7224Z" stroke="black" stroke-width="0.5"/>
<path d="M11.6875 70.7224C19.6875 69.2224 23.1875 71.8509 26.1875 73.3509M13.1875 73.7224L30.6875 73.2224" stroke="black" stroke-width="0.5"/>
<path d="M22.1855 82.2222H31.6855C33.6855 82.2222 35.1855 80.2222 34.6855 79.2222M38.1855 79.2222V83.7222" stroke="black" stroke-width="0.5"/>
<path d="M22.1874 80.7224C17.6874 80.7224 13.1874 81.2224 1.68745 78.2224V76.2224L5.68745 74.2224V72.7224L1.68745 72.2224C1.18652 70.7222 0.186719 67.7222 2.18671 65.2222C1.68696 57.2222 2.18696 50.7222 4.18745 47.7219C36.6874 28.2223 58.6874 34.2224 84.6874 29.7224C162.687 -25.2778 244.687 11.7222 281.687 26.2223L295.187 28.2222L295.687 35.2222V38.2222C297.186 43.2222 298.521 47.7222 297.187 49.7222C299.687 50.7222 302.187 53.8888 302.187 55.7222L300.187 65.7222C300.639 76.5701 298.231 76.7944 288.9 77.1068C287.909 77.14 285.84 77.1742 284.687 77.2222V78.7222L259.687 79.1532M22.1874 80.7224V83.7224H40.1858L39.6875 79.2224M22.1874 80.7224V79.2224H39.6875M39.6875 79.2224C36.6875 37.7224 90.1874 40.7224 86.6874 79.7224V82.2222H213.187C207.187 38.7222 261.687 38.7222 259.687 79.1532M259.186 79.1532H259.687" stroke="black"/>
</svg>
