<svg width="303" height="96" viewBox="0 0 303 96" fill="none" xmlns="http://www.w3.org/2000/svg">
<circle cx="62.4795" cy="74.5227" r="20.5" fill="#E0426F" stroke="black"/>
<circle cx="235.479" cy="74.5227" r="20.5" fill="#E0426F" stroke="black"/>
<path d="M132.478 13.0226L130.978 9.52256C170.978 1.52267 192.478 2.02271 231.478 13.5227L227.978 18.0226C207.978 10.0226 189.978 9.02261 173.978 8.52268C171.478 8.02268 167.478 8.02264 164.978 8.52256C154.978 8.52268 142.978 10.0227 132.478 13.0226Z" fill="#EFC7D3" stroke="black" stroke-width="0.5"/>
<path d="M130.978 9.52275L130.478 8.02275C166.478 -2.97729 198.978 1.02258 234.478 10.0228L231.478 13.5228C191.478 1.02271 165.478 2.52271 130.978 9.52275Z" fill="#EFC7D3" stroke="black" stroke-width="0.5"/>
<path d="M130.978 9.52269C182.478 -1.97733 210.978 8.02271 231.478 13.5227" stroke="black" stroke-width="0.5"/>
<path d="M170.479 30.5227L173.979 8.52271C207.479 9.52271 218.979 15.0227 223.479 16.5227L225.962 28.5227C198.972 28.5233 181.477 30.0228 170.479 30.5227Z" fill="#EFC7D3"/>
<path d="M226.479 31.0227L223.479 16.5227C218.979 15.0227 207.479 9.52271 173.979 8.52271L170.479 30.5227C181.479 30.0227 198.979 28.5227 225.979 28.5227" stroke="black" stroke-width="0.5"/>
<path d="M164.979 8.52271C131.979 9.52271 111.979 18.5227 92.9795 36.0227L95.4795 34.0227L159.479 31.0227L164.979 8.52271Z" fill="#EFC7D3" stroke="black" stroke-width="0.5"/>
<path d="M239.478 23.0227C235.811 20.356 229.978 18.0227 223.478 16.5227L225.978 28.5227H232.478C235.478 27.0227 238.478 24.7914 239.478 23.0227Z" fill="#EFC7D3" stroke="black" stroke-width="0.5"/>
<path d="M96.4795 79.0227H163.479L197.979 77.5227H212.479L212.979 83.0227H198.979H97.9795H86.4795V79.0227H96.4795Z" fill="#EFC7D3"/>
<path d="M96.4795 79.0227H163.479L197.979 77.5227M96.4795 79.0227C96.4795 80.5227 96.9795 81.5227 97.9795 83.0227M96.4795 79.0227H86.4795V83.0227H97.9795M197.979 77.5227L198.979 83.0227M197.979 77.5227H212.479L212.979 83.0227H198.979M198.979 83.0227H97.9795" stroke="black" stroke-width="0.5"/>
<path d="M96.4786 79.0227C91.9795 74.5227 88.9795 52.5227 92.9786 36.0227L164.979 32.0227C160.979 37.0227 159.979 71.0227 163.479 79.0227H96.4786Z" fill="#EFC7D3" stroke="black" stroke-width="0.5"/>
<path d="M228.479 31.0227L164.979 32.0227C160.98 37.0227 159.98 71.0227 163.479 79.0227L197.979 77.5227C202.479 76.0227 208.979 70.5227 228.479 31.0227Z" fill="#EFC7D3" stroke="black" stroke-width="0.5"/>
<path d="M170.479 30.5228C165.979 31.0228 162.479 31.0228 159.479 31.0228L164.979 8.52278C167.979 8.02271 170.979 8.02271 173.979 8.52278L170.479 30.5228Z" fill="#EFC7D3" stroke="black" stroke-width="0.5"/>
<path d="M98.9795 32.5228C103.479 38.0228 110.479 34.5228 114.479 33.0228C115.479 17.5227 102.479 25.5227 98.9795 32.5228Z" fill="#EFC7D3" stroke="black" stroke-width="0.5"/>
<path d="M234.478 10.0227L231.478 13.5227C248.478 19.0227 258.978 22.0227 271.478 28.5227H272.978L280.978 27.0227C265.978 20.5227 258.478 18.0227 234.478 10.0227Z" fill="#EFC7D3" stroke="black" stroke-width="0.5"/>
<path d="M271.478 28.5227C260.978 23.0227 241.978 16.5227 231.478 13.5227L229.478 16.0227L244.478 23.5227C242.978 26.0227 238.978 28.0227 232.978 30.7227C244.978 30.0227 261.978 29.0227 271.478 28.5227Z" fill="#EFC7D3" stroke="black" stroke-width="0.5"/>
<path d="M276.979 34.8227L282.978 32.5227L272.479 28.5227L228.479 31.0227C220.979 46.0227 205.979 76.5227 197.979 77.5227H212.479C210.979 66.5227 220.479 43.0227 245.479 52.0227C255.979 46.5227 265.979 41.0227 276.979 34.8227Z" fill="#EFC7D3" stroke="black" stroke-width="0.5"/>
<path d="M277.978 34.5227C265.978 41.0227 255.978 46.5227 245.478 52.0227C249.978 55.0227 260.478 61.0227 259.478 80.0227L284.478 79.5227V78.0227C292.978 77.0227 301.478 80.5227 299.978 66.5227L301.978 56.5227C301.978 55.0227 299.478 51.0227 296.978 50.5227C298.478 48.0227 295.478 39.0227 295.478 39.0227V37.5227L291.478 34.5227L286.478 33.0227L282.978 32.5227L277.978 34.5227Z" fill="#EFC7D3" stroke="black" stroke-width="0.5"/>
<path d="M280.978 27.0227L272.478 28.5227L282.978 32.5227C292.478 33.5227 291.476 35.0227 295.472 37.4429L294.978 29.0227L280.978 27.0227Z" fill="#EFC7D3"/>
<path d="M295.478 37.5227L295.472 37.4429M295.472 37.4429L294.978 29.0227L280.978 27.0227L272.478 28.5227L282.978 32.5227C292.478 33.5227 291.476 35.0227 295.472 37.4429Z" stroke="black" stroke-width="0.5"/>
<path d="M293.979 37.0229C293.479 34.5228 282.479 34.3227 276.979 34.8227" stroke="black" stroke-width="0.5"/>
<path d="M299.979 67.0227L260.479 69.0227C259.979 64.0227 257.813 59.856 255.979 58.0227L301.979 55.5227M300.479 53.0227C289.479 51.5227 278.479 46.7227 266.479 40.7227M228.479 31.0227L272.479 28.5227L280.979 27.0227" stroke="black" stroke-width="0.5"/>
<path d="M290.479 41.0227C290.479 39.0227 289.479 35.0227 285.979 33.0227C288.2 33.0227 291.577 34.0631 294.088 36.4327C294.552 37.9627 293.479 41.5227 290.438 43.0227C290.424 42.4324 290.479 41.747 290.479 41.0227Z" fill="#EFC7D3"/>
<path d="M272.479 43.5227C279.475 43.8725 285.492 43.9776 290.873 44.5227M297.479 45.5227C295.376 45.0721 293.183 44.7568 290.873 44.5227M295.479 38.0227C295.062 37.4376 294.592 36.9084 294.088 36.4327M290.873 44.5227C290.546 44.1779 290.452 43.6549 290.438 43.0227M290.438 43.0227C290.424 42.4324 290.479 41.747 290.479 41.0227C290.479 39.0227 289.479 35.0227 285.979 33.0227C288.2 33.0227 291.577 34.0631 294.088 36.4327M290.438 43.0227C293.479 41.5227 294.552 37.9627 294.088 36.4327" stroke="black" stroke-width="0.5"/>
<path d="M290.479 41.0227C285.979 41.0227 283.979 37.0227 282.979 34.5227" stroke="black" stroke-width="0.5"/>
<path d="M132.478 13.1227C118.978 17.1227 106.978 23.0227 92.978 36.0227C99.978 24.0227 115.478 14.5227 130.978 9.52271L132.478 13.1227Z" fill="#E56E90" stroke="black" stroke-width="0.5"/>
<path d="M130.978 9.52271C110.978 15.1967 92.978 32.5227 84.978 30.5227C97.978 21.0227 113.978 12.5227 130.478 8.02271L130.978 9.52271Z" fill="#E56E90" stroke="black" stroke-width="0.5"/>
<path d="M9.97869 48.5227H3.97869C1.47803 52.5227 1.47803 62.5227 1.97869 66.0227C0.478027 67.0227 0.478625 71.5227 1.47869 73.0227L5.47869 73.5227V75.0227L1.47869 77.0227V79.0227C5.47869 80.0227 13.9787 82.0227 21.9787 81.5227V80.0227H39.4787C38.812 71.5227 40.4787 61.0227 49.4787 54.0227C46.9787 50.0227 39.9787 45.5227 36.9787 45.0227C26.9787 44.0227 11.9787 46.5227 9.97869 48.5227Z" fill="#E56E90" stroke="black" stroke-width="0.5"/>
<path d="M92.9795 36.0227C75.1462 36.856 43.4795 41.7227 32.9795 44.7227L36.9795 45.0227C41.9795 46.5227 47.4795 50.856 49.4795 54.0227C62.4785 44.5227 87.9785 51.5227 86.4785 79.0227H96.4785C89.4785 68.0227 90.4785 46.0227 92.9795 36.0227Z" fill="#E56E90" stroke="black" stroke-width="0.5"/>
<path d="M9.97754 48.5228H3.97754C36.4777 29.0227 58.4778 35.0227 84.4775 30.5227L93.4778 36.0227C76.4778 37.0227 47.4775 40.5227 33.4775 44.7227C25.4775 44.5227 11.4775 46.5227 9.97754 48.5228Z" fill="#E56E90" stroke="black" stroke-width="0.5"/>
<path d="M36.9795 45.0228C29.4795 44.0227 12.4795 46.0227 9.97948 48.5228C9.17948 50.9227 12.3128 53.856 13.9795 55.0227C23.4795 56.5227 36.9795 50.5227 36.9795 45.0228Z" fill="#E56E90" stroke="black" stroke-width="0.5"/>
<path d="M3.97872 48.5227C10.9787 49.5227 4.97872 60.0227 1.97872 65.0227C1.47865 58.0227 1.97852 52.5227 3.97872 48.5227Z" fill="#E56E90" stroke="black" stroke-width="0.5"/>
<path d="M21.978 84.5227V80.0227H39.478L39.978 84.5227H21.978Z" fill="#E56E90" stroke="black" stroke-width="0.5"/>
<path d="M2.47949 66.0225C3.97949 68.5225 5.97949 71.6891 5.47949 73.5225M21.9795 80.0225C11.4795 80.5225 6.97949 76.5225 7.97949 73.0225C8.47949 72.5225 9.97949 71.0225 10.9795 71.0225" stroke="black" stroke-width="0.5"/>
<path d="M31.9795 75.0226C29.4795 71.0226 23.9795 66.0227 20.9795 64.5227C19.2294 64.0227 16.6044 64.1477 13.8543 64.5227C12.2294 65.856 10.9795 69.0226 11.4795 72.0226C11.4795 73.1892 12.7869 75.5226 15.4795 75.5226C19.9795 75.5226 26.9795 76.0226 31.9795 75.0226Z" fill="#E56E90"/>
<path d="M5.97949 66.0227C8.22943 65.5226 11.1043 64.8977 13.8543 64.5227M13.8543 64.5227C16.6044 64.1477 19.2294 64.0227 20.9795 64.5227C23.9795 66.0227 29.4795 71.0226 31.9795 75.0226C26.9795 76.0226 19.9795 75.5226 15.4795 75.5226C12.7869 75.5226 11.4795 73.1892 11.4795 72.0226C10.9795 69.0226 12.2293 65.856 13.8543 64.5227Z" stroke="black" stroke-width="0.5"/>
<path d="M11.4795 71.5227C19.4795 70.0227 22.9795 72.6512 25.9795 74.1512M12.9795 74.5227L30.4795 74.0227" stroke="black" stroke-width="0.5"/>
<path d="M21.9775 83.0225H31.4775C33.4775 83.0225 34.9775 81.0225 34.4775 80.0225M37.9775 80.0225V84.5225" stroke="black" stroke-width="0.5"/>
<path d="M21.9794 81.5229C17.4794 81.5229 12.9794 82.0229 1.47944 79.0229V77.0229L5.47944 75.0229V73.5229L1.47944 73.023C0.978516 71.5227 -0.0212885 68.5227 1.97871 66.0227C1.47895 58.0227 1.97895 51.5227 3.97944 48.5224C36.4794 29.0228 58.4794 35.0229 84.4794 30.5229C162.479 -24.4772 244.479 12.5227 281.479 27.0229L294.979 29.0227L295.479 36.0227V39.0227C296.978 44.0227 298.313 48.5227 296.979 50.5227C299.479 51.5227 301.979 54.6894 301.979 56.5227L299.979 66.5227C300.431 77.3706 298.023 77.5949 288.692 77.9073C287.701 77.9405 285.632 77.9747 284.479 78.0227V79.5227L259.479 79.9537M21.9794 81.5229V84.5229H39.9778L39.4794 80.0229M21.9794 81.5229V80.0229H39.4794M39.4794 80.0229C36.4794 38.5229 89.9794 41.5229 86.4794 80.5229V83.0227H212.979C206.979 39.5227 261.479 39.5227 259.479 79.9537M258.978 79.9537H259.479" stroke="black"/>
</svg>
