<svg width="303" height="96" viewBox="0 0 303 96" fill="none" xmlns="http://www.w3.org/2000/svg">
<circle cx="62.8955" cy="74.5076" r="20.5" fill="#EFC7D3" stroke="black"/>
<circle cx="235.896" cy="74.5076" r="20.5" fill="#EFC7D3" stroke="black"/>
<path d="M132.894 13.0074L131.394 9.50742C171.394 1.50754 192.894 2.00757 231.894 13.5075L228.394 18.0075C208.394 10.0075 190.394 9.00748 174.394 8.50755C171.894 8.00755 167.894 8.00751 165.394 8.50742C155.394 8.50755 143.394 10.0075 132.894 13.0074Z" stroke="black" stroke-width="0.5"/>
<path d="M131.394 9.50761L130.894 8.00761C166.894 -2.99243 199.394 1.00744 234.894 10.0076L231.894 13.5076C191.894 1.00757 165.894 2.50757 131.394 9.50761Z" stroke="black" stroke-width="0.5"/>
<path d="M131.394 9.50756C182.894 -1.99247 211.394 8.00757 231.894 13.5076" stroke="black" stroke-width="0.5"/>
<path d="M226.896 31.0076L223.896 16.5076C219.396 15.0076 207.896 9.50757 174.396 8.50757L170.896 30.5076C181.896 30.0076 199.396 28.5076 226.396 28.5076" stroke="black" stroke-width="0.5"/>
<path d="M165.396 8.50757C132.396 9.50757 112.396 18.5076 93.3955 36.0076L95.8955 34.0076L159.896 31.0076L165.396 8.50757Z" stroke="black" stroke-width="0.5"/>
<path d="M239.894 23.0076C236.227 20.3409 230.394 18.0076 223.894 16.5076L226.394 28.5076H232.894C235.894 27.0076 238.894 24.7763 239.894 23.0076Z" stroke="black" stroke-width="0.5"/>
<path d="M96.8955 79.0076H163.896L198.396 77.5076M96.8955 79.0076C96.8955 80.5076 97.3955 81.5076 98.3955 83.0076M96.8955 79.0076H86.8955V83.0076H98.3955M198.396 77.5076L199.396 83.0076M198.396 77.5076H212.896L213.396 83.0076H199.396M199.396 83.0076H98.3955" stroke="black" stroke-width="0.5"/>
<path d="M96.8946 79.0076C92.3955 74.5076 89.3956 52.5076 93.3946 36.0076L165.396 32.0076C161.396 37.0076 160.396 71.0076 163.896 79.0076H96.8946Z" stroke="black" stroke-width="0.5"/>
<path d="M228.895 31.0076L165.395 32.0076C161.396 37.0076 160.396 71.0076 163.895 79.0076L198.395 77.5076C202.895 76.0076 209.395 70.5076 228.895 31.0076Z" stroke="black" stroke-width="0.5"/>
<path d="M170.896 30.5076C166.396 31.0076 162.896 31.0076 159.896 31.0076L165.396 8.50764C168.396 8.00757 171.396 8.00757 174.396 8.50764L170.896 30.5076Z" stroke="black" stroke-width="0.5"/>
<path d="M99.3955 32.5077C103.896 38.0077 110.896 34.5077 114.896 33.0077C115.896 17.5076 102.896 25.5076 99.3955 32.5077Z" stroke="black" stroke-width="0.5"/>
<path d="M234.894 10.0076L231.894 13.5076C248.894 19.0076 259.394 22.0076 271.894 28.5076H273.394L281.394 27.0076C266.394 20.5076 258.894 18.0076 234.894 10.0076Z" stroke="black" stroke-width="0.5"/>
<path d="M271.894 28.5076C261.394 23.0076 242.394 16.5076 231.894 13.5076L229.894 16.0076L244.894 23.5076C243.394 26.0076 239.394 28.0076 233.394 30.7076C245.394 30.0076 262.394 29.0076 271.894 28.5076Z" stroke="black" stroke-width="0.5"/>
<path d="M277.396 34.8076L283.394 32.5076L272.895 28.5076L228.895 31.0076C221.395 46.0076 206.395 76.5076 198.395 77.5076H212.895C211.395 66.5076 220.895 43.0076 245.896 52.0076C256.396 46.5076 266.396 41.0076 277.396 34.8076Z" stroke="black" stroke-width="0.5"/>
<path d="M278.394 34.5076C266.394 41.0076 256.394 46.5076 245.894 52.0076C250.394 55.0076 260.894 61.0076 259.894 80.0076L284.894 79.5076V78.0076C293.394 77.0076 301.894 80.5076 300.394 66.5076L302.394 56.5076C302.394 55.0076 299.894 51.0076 297.394 50.5076C298.894 48.0076 295.894 39.0076 295.894 39.0076V37.5076L291.894 34.5076L286.894 33.0076L283.394 32.5076L278.394 34.5076Z" stroke="black" stroke-width="0.5"/>
<path d="M295.894 37.5076L295.888 37.4277M295.888 37.4277L295.394 29.0076L281.394 27.0076L272.894 28.5076L283.394 32.5076C292.894 33.5076 291.892 35.0076 295.888 37.4277Z" stroke="black" stroke-width="0.5"/>
<path d="M294.396 37.0078C293.896 34.5077 282.896 34.3076 277.396 34.8076" stroke="black" stroke-width="0.5"/>
<path d="M300.396 67.0076L260.896 69.0076C260.396 64.0076 258.229 59.8409 256.396 58.0076L302.396 55.5076M300.896 53.0076C289.896 51.5076 278.896 46.7076 266.896 40.7076M228.896 31.0076L272.896 28.5076L281.396 27.0076" stroke="black" stroke-width="0.5"/>
<path d="M272.896 43.5076C279.891 43.8574 285.908 43.9624 291.289 44.5076M297.896 45.5076C295.793 45.0569 293.599 44.7417 291.289 44.5076M295.896 38.0076C295.478 37.4224 295.008 36.8932 294.504 36.4176M291.289 44.5076C290.962 44.1628 290.868 43.6398 290.854 43.0076M290.854 43.0076C290.84 42.4173 290.896 41.7319 290.896 41.0076C290.896 39.0076 289.896 35.0076 286.396 33.0076C288.616 33.0076 291.993 34.048 294.504 36.4176M290.854 43.0076C293.896 41.5076 294.968 37.9476 294.504 36.4176" stroke="black" stroke-width="0.5"/>
<path d="M290.896 41.0076C286.396 41.0076 284.396 37.0076 283.396 34.5076" stroke="black" stroke-width="0.5"/>
<path d="M132.894 13.1075C119.394 17.1075 107.394 23.0076 93.394 36.0076C100.394 24.0076 115.894 14.5076 131.394 9.50757L132.894 13.1075Z" fill="#EDADBF" stroke="black" stroke-width="0.5"/>
<path d="M131.394 9.50757C111.394 15.1816 93.394 32.5076 85.394 30.5076C98.394 21.0076 114.394 12.5076 130.894 8.00757L131.394 9.50757Z" fill="#EDADBF" stroke="black" stroke-width="0.5"/>
<path d="M10.3947 48.5076H4.39471C1.89404 52.5076 1.89404 62.5076 2.39471 66.0076C0.894043 67.0076 0.89464 71.5076 1.89471 73.0076L5.89471 73.5076V75.0076L1.89471 77.0076V79.0076C5.89471 80.0076 14.3947 82.0076 22.3947 81.5076V80.0076H39.8947C39.228 71.5076 40.8947 61.0076 49.8947 54.0076C47.3947 50.0076 40.3947 45.5076 37.3947 45.0076C27.3947 44.0076 12.3947 46.5076 10.3947 48.5076Z" fill="#EDADBF" stroke="black" stroke-width="0.5"/>
<path d="M93.3955 36.0076C75.5622 36.8409 43.8955 41.7076 33.3955 44.7076L37.3955 45.0076C42.3955 46.5076 47.8955 50.8409 49.8955 54.0076C62.8945 44.5076 88.3945 51.5076 86.8945 79.0076H96.8945C89.8945 68.0076 90.8945 46.0076 93.3955 36.0076Z" fill="#EDADBF" stroke="black" stroke-width="0.5"/>
<path d="M10.3936 48.5076H4.39355C36.8937 29.0075 58.8938 35.0076 84.8936 30.5076L93.8938 36.0076C76.8938 37.0076 47.8936 40.5076 33.8936 44.7076C25.8936 44.5076 11.8936 46.5076 10.3936 48.5076Z" fill="#EDADBF" stroke="black" stroke-width="0.5"/>
<path d="M37.3955 45.0076C29.8955 44.0076 12.8955 46.0076 10.3955 48.5076C9.5955 50.9076 12.7288 53.8409 14.3955 55.0076C23.8955 56.5076 37.3955 50.5076 37.3955 45.0076Z" fill="#EDADBF" stroke="black" stroke-width="0.5"/>
<path d="M4.39474 48.5076C11.3947 49.5076 5.39474 60.0076 2.39474 65.0076C1.89467 58.0076 2.39453 52.5076 4.39474 48.5076Z" fill="#EDADBF" stroke="black" stroke-width="0.5"/>
<path d="M22.394 84.5076V80.0076H39.894L40.394 84.5076H22.394Z" fill="#EDADBF" stroke="black" stroke-width="0.5"/>
<path d="M2.89551 66.0076C4.39551 68.5076 6.39551 71.6742 5.89551 73.5076M22.3955 80.0076C11.8955 80.5076 7.39551 76.5076 8.39551 73.0076C8.89551 72.5076 10.3955 71.0076 11.3955 71.0076" stroke="black" stroke-width="0.5"/>
<path d="M32.3955 75.0076C29.8955 71.0076 24.3955 66.0076 21.3955 64.5076C19.6455 64.0076 17.0204 64.1326 14.2703 64.5076C12.6454 65.841 11.3955 69.0076 11.8955 72.0076C11.8955 73.1742 13.2029 75.5076 15.8955 75.5076C20.3955 75.5076 27.3955 76.0076 32.3955 75.0076Z" fill="#EDADBF"/>
<path d="M6.39551 66.0076C8.64545 65.5076 11.5204 64.8826 14.2703 64.5076M14.2703 64.5076C17.0204 64.1326 19.6455 64.0076 21.3955 64.5076C24.3955 66.0076 29.8955 71.0076 32.3955 75.0076C27.3955 76.0076 20.3955 75.5076 15.8955 75.5076C13.2029 75.5076 11.8955 73.1742 11.8955 72.0076C11.3955 69.0076 12.6454 65.841 14.2703 64.5076Z" stroke="black" stroke-width="0.5"/>
<path d="M11.8955 71.5076C19.8955 70.0077 23.3955 72.6362 26.3955 74.1362M13.3955 74.5077L30.8955 74.0077" stroke="black" stroke-width="0.5"/>
<path d="M22.3936 83.0076H31.8936C33.8936 83.0076 35.3936 81.0076 34.8936 80.0076M38.3936 80.0076V84.5076" stroke="black" stroke-width="0.5"/>
<path d="M22.3955 81.5078C17.8955 81.5078 13.3955 82.0078 1.89545 79.0078V77.0078L5.89545 75.0078V73.5078L1.89545 73.0078C1.39453 71.5076 0.394727 68.5076 2.39472 66.0076C1.89497 58.0076 2.39497 51.5076 4.39545 48.5073C36.8955 29.0077 58.8954 35.0078 84.8954 30.5078C162.895 -24.4924 244.895 12.5076 281.895 27.0077L295.395 29.0076L295.895 36.0076V39.0076C297.394 44.0076 298.729 48.5076 297.395 50.5076C299.895 51.5076 302.395 54.6742 302.395 56.5076L300.395 66.5076C300.847 77.3555 298.439 77.5798 289.108 77.8922C288.117 77.9254 286.048 77.9596 284.895 78.0076V79.5076L259.895 79.9386M22.3955 81.5078V84.5078H40.3938L39.8955 80.0078M22.3955 81.5078V80.0078H39.8955M39.8955 80.0078C36.8955 38.5078 90.3954 41.5078 86.8954 80.5078V83.0076H213.395C207.395 39.5076 261.895 39.5076 259.895 79.9386M259.394 79.9386H259.895" stroke="black"/>
</svg>
