<svg width="304" height="95" viewBox="0 0 304 95" fill="none" xmlns="http://www.w3.org/2000/svg">
<circle cx="63.0518" cy="73.8762" r="20.5" fill="#EDADBF" stroke="black"/>
<circle cx="236.052" cy="73.8762" r="20.5" fill="#EDADBF" stroke="black"/>
<path d="M133.05 12.3761L131.55 8.87608C171.55 0.876188 193.05 1.37622 232.05 12.8762L228.55 17.3762C208.55 9.37613 190.55 8.37613 174.55 7.8762C172.05 7.3762 168.05 7.37616 165.55 7.87608C155.55 7.8762 143.55 9.3762 133.05 12.3761Z" fill="#E56E90" stroke="black" stroke-width="0.5"/>
<path d="M131.55 8.87627L131.05 7.37626C167.05 -3.62378 199.55 0.376095 235.05 9.37627L232.05 12.8763C192.05 0.376221 166.05 1.87622 131.55 8.87627Z" fill="#E56E90" stroke="black" stroke-width="0.5"/>
<path d="M131.55 8.87609C183.05 -2.62394 211.55 7.3761 232.05 12.8761" stroke="black" stroke-width="0.5"/>
<path d="M171.052 29.8762L174.552 7.87622C208.052 8.87622 219.552 14.3762 224.052 15.8762L226.535 27.8762C199.544 27.8769 182.049 29.3763 171.052 29.8762Z" fill="#E56E90"/>
<path d="M227.052 30.3762L224.052 15.8762C219.552 14.3762 208.052 8.87622 174.552 7.87622L171.052 29.8762C182.052 29.3762 199.552 27.8762 226.552 27.8762" stroke="black" stroke-width="0.5"/>
<path d="M165.552 7.87622C132.552 8.87622 112.552 17.8762 93.5518 35.3762L96.0518 33.3762L160.052 30.3762L165.552 7.87622Z" fill="#E56E90" stroke="black" stroke-width="0.5"/>
<path d="M240.05 22.3762C236.383 19.7096 230.55 17.3762 224.05 15.8762L226.55 27.8762H233.05C236.05 26.3762 239.05 24.145 240.05 22.3762Z" fill="#E56E90" stroke="black" stroke-width="0.5"/>
<path d="M97.0518 78.3762H164.052L198.552 76.8762H213.052L213.552 82.3762H199.552H98.5518H87.0518V78.3762H97.0518Z" fill="#E56E90"/>
<path d="M97.0518 78.3762H164.052L198.552 76.8762M97.0518 78.3762C97.0518 79.8762 97.5518 80.8762 98.5518 82.3762M97.0518 78.3762H87.0518V82.3762H98.5518M198.552 76.8762L199.552 82.3762M198.552 76.8762H213.052L213.552 82.3762H199.552M199.552 82.3762H98.5518" stroke="black" stroke-width="0.5"/>
<path d="M97.0509 78.3762C92.5518 73.8762 89.5518 51.8762 93.5509 35.3762L165.552 31.3762C161.552 36.3762 160.552 70.3762 164.052 78.3762H97.0509Z" fill="#E56E90" stroke="black" stroke-width="0.5"/>
<path d="M229.052 30.3762L165.552 31.3762C161.552 36.3762 160.552 70.3762 164.052 78.3762L198.552 76.8762C203.052 75.3762 209.552 69.8762 229.052 30.3762Z" fill="#E56E90" stroke="black" stroke-width="0.5"/>
<path d="M171.052 29.8763C166.552 30.3763 163.052 30.3763 160.052 30.3763L165.552 7.87629C168.552 7.37622 171.552 7.37622 174.552 7.87629L171.052 29.8763Z" fill="#E56E90" stroke="black" stroke-width="0.5"/>
<path d="M99.5518 31.8762C104.052 37.3762 111.052 33.8762 115.052 32.3762C116.052 16.8761 103.052 24.8761 99.5518 31.8762Z" fill="#E56E90" stroke="black" stroke-width="0.5"/>
<path d="M235.05 9.37622L232.05 12.8762C249.05 18.3762 259.55 21.3762 272.05 27.8762H273.55L281.55 26.3762C266.55 19.8762 259.05 17.3762 235.05 9.37622Z" fill="#E0426F" stroke="black" stroke-width="0.5"/>
<path d="M272.05 27.8762C261.55 22.3762 242.55 15.8762 232.05 12.8762L230.05 15.3762L245.05 22.8762C243.55 25.3762 239.55 27.3762 233.55 30.0762C245.55 29.3762 262.55 28.3762 272.05 27.8762Z" fill="#E0426F" stroke="black" stroke-width="0.5"/>
<path d="M277.552 34.1762L283.55 31.8762L273.051 27.8762L229.051 30.3762C221.551 45.3762 206.551 75.8762 198.551 76.8762H213.051C211.551 65.8762 221.051 42.3762 246.052 51.3762C256.552 45.8762 266.552 40.3762 277.552 34.1762Z" fill="#E0426F" stroke="black" stroke-width="0.5"/>
<path d="M278.55 33.8762C266.55 40.3762 256.55 45.8762 246.05 51.3762C250.55 54.3762 261.05 60.3762 260.05 79.3762L285.05 78.8762V77.3762C293.55 76.3762 302.05 79.8762 300.55 65.8762L302.55 55.8762C302.55 54.3762 300.05 50.3762 297.55 49.8762C299.05 47.3762 296.05 38.3762 296.05 38.3762V36.8762L292.05 33.8762L287.05 32.3762L283.55 31.8762L278.55 33.8762Z" fill="#E0426F" stroke="black" stroke-width="0.5"/>
<path d="M281.55 26.3762L273.05 27.8762L283.55 31.8762C293.05 32.8762 292.049 34.3762 296.044 36.7964L295.55 28.3762L281.55 26.3762Z" fill="#E0426F"/>
<path d="M296.05 36.8762L296.044 36.7964M296.044 36.7964L295.55 28.3762L281.55 26.3762L273.05 27.8762L283.55 31.8762C293.05 32.8762 292.049 34.3762 296.044 36.7964Z" stroke="black" stroke-width="0.5"/>
<path d="M294.552 36.3764C294.052 33.8763 283.052 33.6762 277.552 34.1762" stroke="black" stroke-width="0.5"/>
<path d="M300.552 66.3762L261.052 68.3762C260.552 63.3762 258.385 59.2096 256.552 57.3762L302.552 54.8762M301.052 52.3762C290.052 50.8762 279.052 46.0762 267.052 40.0762M229.052 30.3762L273.052 27.8762L281.552 26.3762" stroke="black" stroke-width="0.5"/>
<path d="M291.052 40.3762C291.052 38.3762 290.052 34.3762 286.552 32.3762C288.773 32.3762 292.149 33.4166 294.661 35.7862C295.124 37.3162 294.052 40.8762 291.01 42.3762C290.996 41.7859 291.052 41.1005 291.052 40.3762Z" fill="#E0426F"/>
<path d="M273.052 42.8762C280.047 43.226 286.064 43.3311 291.445 43.8762M298.052 44.8762C295.949 44.4256 293.756 44.1103 291.445 43.8762M296.052 37.3762C295.634 36.7911 295.165 36.2619 294.661 35.7862M291.445 43.8762C291.119 43.5315 291.025 43.0084 291.01 42.3762M291.01 42.3762C290.996 41.7859 291.052 41.1005 291.052 40.3762C291.052 38.3762 290.052 34.3762 286.552 32.3762C288.773 32.3762 292.149 33.4166 294.661 35.7862M291.01 42.3762C294.052 40.8762 295.124 37.3162 294.661 35.7862" stroke="black" stroke-width="0.5"/>
<path d="M291.052 40.3762C286.552 40.3762 284.552 36.3762 283.552 33.8762" stroke="black" stroke-width="0.5"/>
<path d="M133.05 12.4762C119.55 16.4762 107.55 22.3762 93.5498 35.3762C100.55 23.3762 116.05 13.8762 131.55 8.87622L133.05 12.4762Z" fill="#EFC7D3" stroke="black" stroke-width="0.5"/>
<path d="M131.55 8.87622C111.55 14.5503 93.5498 31.8762 85.5498 29.8762C98.5498 20.3762 114.55 11.8762 131.05 7.37622L131.55 8.87622Z" fill="#EFC7D3" stroke="black" stroke-width="0.5"/>
<path d="M10.5505 47.8761H4.55047C2.0498 51.8761 2.0498 61.8761 2.55047 65.3761C1.0498 66.3761 1.0504 70.8761 2.05047 72.3761L6.05047 72.8761V74.3761L2.05047 76.3761V78.3761C6.05047 79.3761 14.5505 81.3761 22.5505 80.8761V79.3761H40.0505C39.3838 70.8761 41.0505 60.3761 50.0505 53.3761C47.5505 49.3761 40.5505 44.8761 37.5505 44.3761C27.5505 43.3761 12.5505 45.8761 10.5505 47.8761Z" fill="#EFC7D3" stroke="black" stroke-width="0.5"/>
<path d="M93.5518 35.3762C75.7184 36.2096 44.0518 41.0762 33.5518 44.0762L37.5518 44.3762C42.5518 45.8762 48.0518 50.2096 50.0518 53.3762C63.0508 43.8762 88.5508 50.8762 87.0508 78.3762H97.0508C90.0508 67.3762 91.0508 45.3762 93.5518 35.3762Z" fill="#EFC7D3" stroke="black" stroke-width="0.5"/>
<path d="M10.5498 47.8763H4.5498C37.05 28.3762 59.05 34.3762 85.0498 29.8762L94.05 35.3762C77.05 36.3762 48.0498 39.8762 34.0498 44.0762C26.0498 43.8762 12.0498 45.8762 10.5498 47.8763Z" fill="#EFC7D3" stroke="black" stroke-width="0.5"/>
<path d="M37.5513 44.3763C30.0513 43.3762 13.0513 45.3762 10.5513 47.8763C9.75126 50.2762 12.8846 53.2096 14.5513 54.3762C24.0513 55.8762 37.5513 49.8762 37.5513 44.3763Z" fill="#EFC7D3" stroke="black" stroke-width="0.5"/>
<path d="M4.5505 47.8762C11.5505 48.8762 5.5505 59.3762 2.5505 64.3762C2.05043 57.3762 2.55029 51.8762 4.5505 47.8762Z" fill="#EFC7D3" stroke="black" stroke-width="0.5"/>
<path d="M22.5498 83.8762V79.3762H40.0498L40.5498 83.8762H22.5498Z" fill="#EFC7D3" stroke="black" stroke-width="0.5"/>
<path d="M3.05176 65.376C4.55176 67.876 6.55176 71.0426 6.05176 72.876M22.5518 79.376C12.0518 79.876 7.55176 75.876 8.55176 72.376C9.05176 71.876 10.5518 70.376 11.5518 70.376" stroke="black" stroke-width="0.5"/>
<path d="M32.5518 74.3761C30.0518 70.3761 24.5518 65.3762 21.5518 63.8762C19.8017 63.3762 17.1766 63.5012 14.4265 63.8762C12.8016 65.2095 11.5518 68.3761 12.0518 71.3761C12.0518 72.5428 13.3592 74.8761 16.0518 74.8761C20.5518 74.8761 27.5518 75.3761 32.5518 74.3761Z" fill="#EFC7D3"/>
<path d="M6.55176 65.3762C8.8017 64.8762 11.6766 64.2512 14.4265 63.8762M14.4265 63.8762C17.1766 63.5012 19.8017 63.3762 21.5518 63.8762C24.5518 65.3762 30.0518 70.3761 32.5518 74.3761C27.5518 75.3761 20.5518 74.8761 16.0518 74.8761C13.3592 74.8761 12.0518 72.5428 12.0518 71.3761C11.5518 68.3761 12.8016 65.2095 14.4265 63.8762Z" stroke="black" stroke-width="0.5"/>
<path d="M12.0518 70.8762C20.0518 69.3762 23.5518 72.0047 26.5518 73.5047M13.5518 73.8762L31.0518 73.3762" stroke="black" stroke-width="0.5"/>
<path d="M22.5498 82.376H32.0498C34.0498 82.376 35.5498 80.376 35.0498 79.376M38.5498 79.376V83.876" stroke="black" stroke-width="0.5"/>
<path d="M22.5517 80.8765C18.0517 80.8765 13.5517 81.3765 2.0517 78.3765V76.3765L6.0517 74.3765V72.8765L2.0517 72.3765C1.55078 70.8762 0.550977 67.8762 2.55097 65.3762C2.05122 57.3762 2.55122 50.8762 4.5517 47.876C37.0517 28.3764 59.0517 34.3764 85.0517 29.8764C163.052 -25.1237 245.052 11.8762 282.052 26.3764L295.552 28.3762L296.052 35.3762V38.3762C297.55 43.3762 298.885 47.8762 297.552 49.8762C300.052 50.8762 302.552 54.0429 302.552 55.8762L300.552 65.8762C301.004 76.7241 298.596 76.9484 289.264 77.2609C288.273 77.294 286.204 77.3282 285.052 77.3762V78.8762L260.052 79.3073M22.5517 80.8765V83.8765H40.55L40.0517 79.3765M22.5517 80.8765V79.3765H40.0517M40.0517 79.3765C37.0517 37.8765 90.5517 40.8765 87.0517 79.8765V82.3762H213.552C207.552 38.8762 262.052 38.8762 260.052 79.3073M259.55 79.3073H260.052" stroke="black"/>
</svg>
