<svg width="303" height="95" viewBox="0 0 303 95" fill="none" xmlns="http://www.w3.org/2000/svg">
<circle cx="62.6875" cy="73.8914" r="20.5" stroke="black"/>
<circle cx="235.688" cy="73.8914" r="20.5" stroke="black"/>
<path d="M132.686 12.3912L131.186 8.89121C171.186 0.891325 192.686 1.39136 231.686 12.8913L228.186 17.3913C208.186 9.39127 190.186 8.39127 174.186 7.89133C171.686 7.39133 167.686 7.3913 165.186 7.89121C155.186 7.89133 143.186 9.39134 132.686 12.3912Z" fill="#E0426F" stroke="black" stroke-width="0.5"/>
<path d="M131.186 8.8914L130.686 7.3914C166.686 -3.60864 199.186 0.391232 234.686 9.3914L231.686 12.8914C191.686 0.391357 165.686 1.89136 131.186 8.8914Z" fill="#E0426F" stroke="black" stroke-width="0.5"/>
<path d="M131.186 8.89122C182.686 -2.6088 211.186 7.39124 231.686 12.8912" stroke="black" stroke-width="0.5"/>
<path d="M170.688 29.8914L174.188 7.89136C207.688 8.89136 219.188 14.3914 223.688 15.8914L226.17 27.8914C199.18 27.892 181.685 29.3915 170.688 29.8914Z" fill="#E0426F"/>
<path d="M226.688 30.3914L223.688 15.8914C219.188 14.3914 207.688 8.89136 174.188 7.89136L170.688 29.8914C181.688 29.3914 199.188 27.8914 226.188 27.8914" stroke="black" stroke-width="0.5"/>
<path d="M165.188 7.89136C132.188 8.89136 112.188 17.8914 93.1875 35.3914L95.6875 33.3914L159.688 30.3914L165.188 7.89136Z" fill="#E0426F" stroke="black" stroke-width="0.5"/>
<path d="M239.686 22.3914C236.019 19.7247 230.186 17.3914 223.686 15.8914L226.186 27.8914H232.686C235.686 26.3914 238.686 24.1601 239.686 22.3914Z" fill="#E0426F" stroke="black" stroke-width="0.5"/>
<path d="M96.6875 78.3914H163.688L198.188 76.8914H212.688L213.188 82.3914H199.188H98.1875H86.6875V78.3914H96.6875Z" fill="#E0426F"/>
<path d="M96.6875 78.3914H163.688L198.188 76.8914M96.6875 78.3914C96.6875 79.8914 97.1875 80.8914 98.1875 82.3914M96.6875 78.3914H86.6875V82.3914H98.1875M198.188 76.8914L199.188 82.3914M198.188 76.8914H212.688L213.188 82.3914H199.188M199.188 82.3914H98.1875" stroke="black" stroke-width="0.5"/>
<path d="M96.6866 78.3914C92.1875 73.8914 89.1875 51.8914 93.1866 35.3914L165.188 31.3914C161.188 36.3914 160.188 70.3914 163.687 78.3914H96.6866Z" fill="#E0426F" stroke="black" stroke-width="0.5"/>
<path d="M228.687 30.3914L165.187 31.3914C161.188 36.3914 160.188 70.3914 163.687 78.3914L198.187 76.8914C202.687 75.3914 209.187 69.8914 228.687 30.3914Z" fill="#E0426F" stroke="black" stroke-width="0.5"/>
<path d="M170.688 29.8914C166.188 30.3914 162.688 30.3914 159.688 30.3914L165.188 7.89143C168.188 7.39136 171.188 7.39136 174.188 7.89143L170.688 29.8914Z" fill="#E0426F" stroke="black" stroke-width="0.5"/>
<path d="M99.1875 31.8914C103.688 37.3914 110.688 33.8914 114.688 32.3914C115.688 16.8913 102.688 24.8912 99.1875 31.8914Z" fill="#E0426F" stroke="black" stroke-width="0.5"/>
<path d="M234.686 9.39136L231.686 12.8914C248.686 18.3914 259.186 21.3914 271.686 27.8914H273.186L281.186 26.3914C266.186 19.8914 258.686 17.3914 234.686 9.39136Z" fill="#EFC7D3" stroke="black" stroke-width="0.5"/>
<path d="M271.686 27.8914C261.186 22.3914 242.186 15.8914 231.686 12.8914L229.686 15.3914L244.686 22.8914C243.186 25.3914 239.186 27.3914 233.186 30.0914C245.186 29.3914 262.186 28.3914 271.686 27.8914Z" fill="#EFC7D3" stroke="black" stroke-width="0.5"/>
<path d="M277.188 34.1914L283.186 31.8914L272.687 27.8914L228.687 30.3914C221.187 45.3914 206.187 75.8914 198.187 76.8914H212.687C211.187 65.8914 220.687 42.3914 245.688 51.3914C256.188 45.8914 266.188 40.3914 277.188 34.1914Z" fill="#EFC7D3" stroke="black" stroke-width="0.5"/>
<path d="M278.186 33.8914C266.186 40.3914 256.186 45.8914 245.686 51.3914C250.186 54.3914 260.686 60.3914 259.686 79.3914L284.686 78.8914V77.3914C293.186 76.3914 301.686 79.8914 300.186 65.8914L302.186 55.8914C302.186 54.3914 299.686 50.3914 297.186 49.8914C298.686 47.3914 295.686 38.3914 295.686 38.3914V36.8914L291.686 33.8914L286.686 32.3914L283.186 31.8914L278.186 33.8914Z" fill="#EFC7D3" stroke="black" stroke-width="0.5"/>
<path d="M281.186 26.3914L272.686 27.8914L283.186 31.8914C292.686 32.8914 291.684 34.3914 295.68 36.8115L295.186 28.3914L281.186 26.3914Z" fill="#EFC7D3"/>
<path d="M295.686 36.8914L295.68 36.8115M295.68 36.8115L295.186 28.3914L281.186 26.3914L272.686 27.8914L283.186 31.8914C292.686 32.8914 291.684 34.3914 295.68 36.8115Z" stroke="black" stroke-width="0.5"/>
<path d="M294.188 36.3916C293.688 33.8914 282.688 33.6914 277.188 34.1914" stroke="black" stroke-width="0.5"/>
<path d="M300.188 66.3914L260.688 68.3914C260.188 63.3914 258.021 59.2247 256.188 57.3914L302.188 54.8914M300.688 52.3914C289.688 50.8914 278.688 46.0914 266.688 40.0914M228.688 30.3914L272.688 27.8914L281.188 26.3914" stroke="black" stroke-width="0.5"/>
<path d="M290.688 40.3914C290.688 38.3914 289.688 34.3914 286.188 32.3914C288.408 32.3914 291.785 33.4317 294.296 35.8013C294.76 37.3313 293.688 40.8914 290.646 42.3914C290.632 41.8011 290.688 41.1156 290.688 40.3914Z" fill="#EFC7D3"/>
<path d="M272.688 42.8914C279.683 43.2411 285.7 43.3462 291.081 43.8914M297.688 44.8914C295.585 44.4407 293.391 44.1255 291.081 43.8914M295.688 37.3914C295.27 36.8062 294.8 36.277 294.296 35.8013M291.081 43.8914C290.754 43.5466 290.66 43.0235 290.646 42.3914M290.646 42.3914C290.632 41.8011 290.688 41.1156 290.688 40.3914C290.688 38.3914 289.688 34.3914 286.188 32.3914C288.408 32.3914 291.785 33.4317 294.296 35.8013M290.646 42.3914C293.688 40.8914 294.76 37.3313 294.296 35.8013" stroke="black" stroke-width="0.5"/>
<path d="M290.688 40.3914C286.188 40.3914 284.188 36.3914 283.188 33.8914" stroke="black" stroke-width="0.5"/>
<path d="M132.686 12.4913C119.186 16.4913 107.186 22.3914 93.186 35.3914C100.186 23.3914 115.686 13.8914 131.186 8.89136L132.686 12.4913Z" fill="#EDADBF" stroke="black" stroke-width="0.5"/>
<path d="M131.186 8.89136C111.186 14.5654 93.186 31.8914 85.186 29.8914C98.186 20.3914 114.186 11.8914 130.686 7.39136L131.186 8.89136Z" fill="#EDADBF" stroke="black" stroke-width="0.5"/>
<path d="M10.1867 47.8912H4.1867C1.68604 51.8912 1.68604 61.8912 2.1867 65.3912C0.686035 66.3912 0.686633 70.8912 1.6867 72.3912L5.6867 72.8912V74.3912L1.6867 76.3912V78.3912C5.6867 79.3912 14.1867 81.3912 22.1867 80.8912V79.3912H39.6867C39.02 70.8912 40.6867 60.3912 49.6867 53.3912C47.1867 49.3912 40.1867 44.8912 37.1867 44.3912C27.1867 43.3912 12.1867 45.8912 10.1867 47.8912Z" fill="#EDADBF" stroke="black" stroke-width="0.5"/>
<path d="M93.1875 35.3914C75.3542 36.2247 43.6875 41.0914 33.1875 44.0914L37.1875 44.3914C42.1875 45.8914 47.6875 50.2247 49.6875 53.3914C62.6865 43.8914 88.1865 50.8914 86.6865 78.3914H96.6865C89.6865 67.3914 90.6865 45.3914 93.1875 35.3914Z" fill="#EDADBF" stroke="black" stroke-width="0.5"/>
<path d="M10.1855 47.8914H4.18555C36.6857 28.3913 58.6858 34.3914 84.6855 29.8914L93.6858 35.3914C76.6858 36.3914 47.6855 39.8914 33.6855 44.0914C25.6855 43.8913 11.6855 45.8914 10.1855 47.8914Z" fill="#EDADBF" stroke="black" stroke-width="0.5"/>
<path d="M37.1875 44.3914C29.6875 43.3914 12.6875 45.3914 10.1875 47.8914C9.38749 50.2914 12.5208 53.2247 14.1875 54.3914C23.6875 55.8914 37.1875 49.8914 37.1875 44.3914Z" fill="#EDADBF" stroke="black" stroke-width="0.5"/>
<path d="M4.18673 47.8914C11.1867 48.8914 5.18673 59.3914 2.18673 64.3914C1.68666 57.3914 2.18652 51.8914 4.18673 47.8914Z" fill="#EDADBF" stroke="black" stroke-width="0.5"/>
<path d="M22.186 83.8914V79.3914H39.686L40.186 83.8914H22.186Z" fill="#EDADBF" stroke="black" stroke-width="0.5"/>
<path d="M2.6875 65.3911C4.1875 67.8911 6.1875 71.0578 5.6875 72.8911M22.1875 79.3911C11.6875 79.8911 7.1875 75.8911 8.1875 72.3911C8.6875 71.8911 10.1875 70.3911 11.1875 70.3911" stroke="black" stroke-width="0.5"/>
<path d="M32.1875 74.3912C29.6875 70.3912 24.1875 65.3913 21.1875 63.8913C19.4375 63.3913 16.8124 63.5163 14.0623 63.8913C12.4374 65.2246 11.1875 68.3912 11.6875 71.3912C11.6875 72.5579 12.9949 74.8912 15.6875 74.8912C20.1875 74.8912 27.1875 75.3912 32.1875 74.3912Z" fill="#EDADBF"/>
<path d="M6.1875 65.3913C8.43744 64.8913 11.3124 64.2663 14.0623 63.8913M14.0623 63.8913C16.8124 63.5163 19.4375 63.3913 21.1875 63.8913C24.1875 65.3913 29.6875 70.3912 32.1875 74.3912C27.1875 75.3912 20.1875 74.8912 15.6875 74.8912C12.9949 74.8912 11.6875 72.5579 11.6875 71.3912C11.1875 68.3912 12.4374 65.2246 14.0623 63.8913Z" stroke="black" stroke-width="0.5"/>
<path d="M11.6875 70.8913C19.6875 69.3914 23.1875 72.0198 26.1875 73.5198M13.1875 73.8914L30.6875 73.3914" stroke="black" stroke-width="0.5"/>
<path d="M22.1855 82.3911H31.6855C33.6855 82.3911 35.1855 80.3911 34.6855 79.3911M38.1855 79.3911V83.8911" stroke="black" stroke-width="0.5"/>
<path d="M22.1874 80.8916C17.6874 80.8916 13.1874 81.3916 1.68745 78.3916V76.3916L5.68745 74.3916V72.8916L1.68745 72.3916C1.18652 70.8914 0.186719 67.8914 2.18671 65.3914C1.68696 57.3914 2.18696 50.8914 4.18745 47.8911C36.6874 28.3915 58.6874 34.3915 84.6874 29.8915C162.687 -25.1086 244.687 11.8913 281.687 26.3915L295.187 28.3914L295.687 35.3914V38.3914C297.186 43.3914 298.521 47.8914 297.187 49.8914C299.687 50.8914 302.187 54.058 302.187 55.8914L300.187 65.8914C300.639 76.7393 298.231 76.9635 288.9 77.276C287.909 77.3092 285.84 77.3434 284.687 77.3914V78.8914L259.687 79.3224M22.1874 80.8916V83.8916H40.1858L39.6875 79.3916M22.1874 80.8916V79.3916H39.6875M39.6875 79.3916C36.6875 37.8916 90.1874 40.8916 86.6874 79.8916V82.3914H213.187C207.187 38.8914 261.687 38.8914 259.687 79.3224M259.186 79.3224H259.687" stroke="black"/>
</svg>
