<svg width="303" height="95" viewBox="0 0 303 95" fill="none" xmlns="http://www.w3.org/2000/svg">
<circle cx="62.4697" cy="73.8611" r="20.5" fill="#E0426F" stroke="black"/>
<circle cx="235.47" cy="73.8611" r="20.5" fill="#E0426F" stroke="black"/>
<path d="M132.468 12.3609L130.968 8.86094C170.968 0.861052 192.468 1.36108 231.468 12.861L227.968 17.361C207.968 9.36099 189.968 8.36099 173.968 7.86106C171.468 7.36106 167.468 7.36102 164.968 7.86094C154.968 7.86106 142.968 9.36106 132.468 12.3609Z" fill="#EDADBF" stroke="black" stroke-width="0.5"/>
<path d="M130.968 8.86113L130.468 7.36113C166.468 -3.63892 198.968 0.360958 234.468 9.36113L231.468 12.8611C191.468 0.361084 165.468 1.86108 130.968 8.86113Z" fill="#EDADBF" stroke="black" stroke-width="0.5"/>
<path d="M130.968 8.86095C182.468 -2.63908 210.968 7.36096 231.468 12.8609" stroke="black" stroke-width="0.5"/>
<path d="M170.47 29.8611L173.97 7.86108C207.47 8.86108 218.97 14.3611 223.47 15.8611L225.952 27.8611C198.962 27.8617 181.467 29.3612 170.47 29.8611Z" fill="#EDADBF"/>
<path d="M226.47 30.3611L223.47 15.8611C218.97 14.3611 207.47 8.86108 173.97 7.86108L170.47 29.8611C181.47 29.3611 198.97 27.8611 225.97 27.8611" stroke="black" stroke-width="0.5"/>
<path d="M164.97 7.86108C131.97 8.86108 111.97 17.8611 92.9697 35.3611L95.4697 33.3611L159.47 30.3611L164.97 7.86108Z" fill="#EDADBF" stroke="black" stroke-width="0.5"/>
<path d="M239.468 22.3611C235.801 19.6944 229.968 17.3611 223.468 15.8611L225.968 27.8611H232.468C235.468 26.3611 238.468 24.1298 239.468 22.3611Z" fill="#EDADBF" stroke="black" stroke-width="0.5"/>
<path d="M96.4697 78.3611H163.47L197.97 76.8611H212.47L212.97 82.3611H198.97H97.9697H86.4697V78.3611H96.4697Z" fill="#EDADBF"/>
<path d="M96.4697 78.3611H163.47L197.97 76.8611M96.4697 78.3611C96.4697 79.8611 96.9697 80.8611 97.9697 82.3611M96.4697 78.3611H86.4697V82.3611H97.9697M197.97 76.8611L198.97 82.3611M197.97 76.8611H212.47L212.97 82.3611H198.97M198.97 82.3611H97.9697" stroke="black" stroke-width="0.5"/>
<path d="M96.4689 78.3611C91.9697 73.8611 88.9698 51.8611 92.9689 35.3611L164.97 31.3611C160.97 36.3611 159.97 70.3611 163.47 78.3611H96.4689Z" fill="#EDADBF" stroke="black" stroke-width="0.5"/>
<path d="M228.47 30.3611L164.97 31.3611C160.97 36.3611 159.97 70.3611 163.47 78.3611L197.97 76.8611C202.47 75.3611 208.97 69.8611 228.47 30.3611Z" fill="#EDADBF" stroke="black" stroke-width="0.5"/>
<path d="M170.47 29.8612C165.97 30.3612 162.47 30.3612 159.47 30.3612L164.97 7.86116C167.97 7.36108 170.97 7.36108 173.97 7.86116L170.47 29.8612Z" fill="#EDADBF" stroke="black" stroke-width="0.5"/>
<path d="M98.9697 31.8611C103.47 37.3611 110.47 33.8611 114.47 32.3611C115.47 16.861 102.47 24.861 98.9697 31.8611Z" fill="#EDADBF" stroke="black" stroke-width="0.5"/>
<path d="M234.468 9.36108L231.468 12.8611C248.468 18.3611 258.968 21.3611 271.468 27.8611H272.968L280.968 26.3611C265.968 19.8611 258.468 17.3611 234.468 9.36108Z" fill="#EDADBF" stroke="black" stroke-width="0.5"/>
<path d="M271.468 27.8611C260.968 22.3611 241.968 15.8611 231.468 12.8611L229.468 15.3611L244.468 22.8611C242.968 25.3611 238.968 27.3611 232.968 30.0611C244.968 29.3611 261.968 28.3611 271.468 27.8611Z" fill="#EDADBF" stroke="black" stroke-width="0.5"/>
<path d="M276.97 34.1611L282.968 31.8611L272.469 27.8611L228.469 30.3611C220.969 45.3611 205.969 75.8611 197.969 76.8611H212.469C210.969 65.8611 220.469 42.3611 245.47 51.3611C255.97 45.8611 265.97 40.3611 276.97 34.1611Z" fill="#EDADBF" stroke="black" stroke-width="0.5"/>
<path d="M277.968 33.8611C265.968 40.3611 255.968 45.8611 245.468 51.3611C249.968 54.3611 260.468 60.3611 259.468 79.3611L284.468 78.8611V77.3611C292.968 76.3611 301.468 79.8611 299.968 65.8611L301.968 55.8611C301.968 54.3611 299.468 50.3611 296.968 49.8611C298.468 47.3611 295.468 38.3611 295.468 38.3611V36.8611L291.468 33.8611L286.468 32.3611L282.968 31.8611L277.968 33.8611Z" fill="#EDADBF" stroke="black" stroke-width="0.5"/>
<path d="M280.968 26.3611L272.468 27.8611L282.968 31.8611C292.468 32.8611 291.467 34.3611 295.462 36.7813L294.968 28.3611L280.968 26.3611Z" fill="#EDADBF"/>
<path d="M295.468 36.8611L295.462 36.7813M295.462 36.7813L294.968 28.3611L280.968 26.3611L272.468 27.8611L282.968 31.8611C292.468 32.8611 291.467 34.3611 295.462 36.7813Z" stroke="black" stroke-width="0.5"/>
<path d="M293.97 36.3613C293.47 33.8612 282.47 33.6611 276.97 34.1611" stroke="black" stroke-width="0.5"/>
<path d="M299.97 66.3611L260.47 68.3611C259.97 63.3611 257.803 59.1944 255.97 57.3611L301.97 54.8611M300.47 52.3611C289.47 50.8611 278.47 46.0611 266.47 40.0611M228.47 30.3611L272.47 27.8611L280.97 26.3611" stroke="black" stroke-width="0.5"/>
<path d="M290.47 40.3611C290.47 38.3611 289.47 34.3611 285.97 32.3611C288.191 32.3611 291.567 33.4015 294.079 35.7711C294.542 37.3011 293.47 40.8611 290.428 42.3611C290.414 41.7708 290.47 41.0854 290.47 40.3611Z" fill="#EDADBF"/>
<path d="M272.47 42.8611C279.465 43.2109 285.482 43.316 290.863 43.8611M297.47 44.8611C295.367 44.4104 293.173 44.0952 290.863 43.8611M295.47 37.3611C295.052 36.776 294.583 36.2467 294.079 35.7711M290.863 43.8611C290.537 43.5163 290.443 42.9933 290.428 42.3611M290.428 42.3611C290.414 41.7708 290.47 41.0854 290.47 40.3611C290.47 38.3611 289.47 34.3611 285.97 32.3611C288.191 32.3611 291.567 33.4015 294.079 35.7711M290.428 42.3611C293.47 40.8611 294.542 37.3011 294.079 35.7711" stroke="black" stroke-width="0.5"/>
<path d="M290.47 40.3611C285.97 40.3611 283.97 36.3611 282.97 33.8611" stroke="black" stroke-width="0.5"/>
<path d="M132.468 12.4611C118.968 16.4611 106.968 22.3611 92.9678 35.3611C99.9678 23.3611 115.468 13.8611 130.968 8.86108L132.468 12.4611Z" stroke="black" stroke-width="0.5"/>
<path d="M130.968 8.86108C110.968 14.5351 92.9678 31.8611 84.9678 29.8611C97.9678 20.3611 113.968 11.8611 130.468 7.36108L130.968 8.86108Z" stroke="black" stroke-width="0.5"/>
<path d="M9.96844 47.861H3.96844C1.46777 51.861 1.46777 61.861 1.96844 65.361C0.467773 66.361 0.468371 70.861 1.46844 72.361L5.46844 72.861V74.361L1.46844 76.361V78.361C5.46844 79.361 13.9684 81.361 21.9684 80.861V79.361H39.4684C38.8018 70.861 40.4684 60.361 49.4684 53.361C46.9684 49.361 39.9684 44.861 36.9684 44.361C26.9684 43.361 11.9684 45.861 9.96844 47.861Z" stroke="black" stroke-width="0.5"/>
<path d="M92.9697 35.3611C75.1364 36.1944 43.4697 41.0611 32.9697 44.0611L36.9697 44.3611C41.9697 45.8611 47.4697 50.1944 49.4697 53.3611C62.4688 43.8611 87.9688 50.8611 86.4688 78.3611H96.4688C89.4688 67.3611 90.4688 45.3611 92.9697 35.3611Z" stroke="black" stroke-width="0.5"/>
<path d="M9.96777 47.8611H3.96777C36.468 28.361 58.468 34.3611 84.4678 29.8611L93.468 35.3611C76.468 36.3611 47.4678 39.8611 33.4678 44.0611C25.4678 43.8611 11.4678 45.8611 9.96777 47.8611Z" stroke="black" stroke-width="0.5"/>
<path d="M36.9692 44.3612C29.4692 43.3611 12.4692 45.3611 9.96923 47.8612C9.16923 50.2611 12.3026 53.1944 13.9692 54.3611C23.4692 55.8611 36.9692 49.8611 36.9692 44.3612Z" stroke="black" stroke-width="0.5"/>
<path d="M3.96847 47.8611C10.9685 48.8611 4.96847 59.3611 1.96847 64.3611C1.4684 57.3611 1.96826 51.8611 3.96847 47.8611Z" stroke="black" stroke-width="0.5"/>
<path d="M21.9678 83.8611V79.3611H39.4678L39.9678 83.8611H21.9678Z" stroke="black" stroke-width="0.5"/>
<path d="M2.46973 65.3608C3.96973 67.8608 5.96973 71.0275 5.46973 72.8608M21.9697 79.3608C11.4697 79.8608 6.96973 75.8608 7.96973 72.3608C8.46973 71.8608 9.96973 70.3608 10.9697 70.3608" stroke="black" stroke-width="0.5"/>
<path d="M5.96973 65.361C8.21967 64.861 11.0946 64.236 13.8445 63.861M13.8445 63.861C16.5946 63.486 19.2197 63.361 20.9697 63.861C23.9697 65.361 29.4697 70.361 31.9697 74.361C26.9697 75.361 19.9697 74.861 15.4697 74.861C12.7771 74.861 11.4697 72.5276 11.4697 71.361C10.9697 68.361 12.2196 65.1943 13.8445 63.861Z" stroke="black" stroke-width="0.5"/>
<path d="M11.4697 70.861C19.4697 69.3611 22.9697 71.9896 25.9697 73.4896M12.9697 73.8611L30.4697 73.3611" stroke="black" stroke-width="0.5"/>
<path d="M21.9678 82.3608H31.4678C33.4678 82.3608 34.9678 80.3608 34.4678 79.3608M37.9678 79.3608V83.8608" stroke="black" stroke-width="0.5"/>
<path d="M21.9697 80.8613C17.4697 80.8613 12.9697 81.3613 1.46967 78.3613V76.3613L5.46967 74.3613V72.8613L1.46967 72.3613C0.96875 70.8611 -0.0310541 67.8611 1.96894 65.3611C1.46918 57.3611 1.96918 50.8611 3.96967 47.8608C36.4697 28.3612 58.4697 34.3613 84.4697 29.8613C162.47 -25.1388 244.47 11.8611 281.47 26.3613L294.97 28.3611L295.47 35.3611V38.3611C296.968 43.3611 298.303 47.8611 296.97 49.8611C299.47 50.8611 301.97 54.0278 301.97 55.8611L299.97 65.8611C300.422 76.709 298.013 76.9333 288.682 77.2457C287.691 77.2789 285.622 77.3131 284.47 77.3611V78.8611L259.47 79.2921M21.9697 80.8613V83.8613H39.968L39.4697 79.3613M21.9697 80.8613V79.3613H39.4697M39.4697 79.3613C36.4697 37.8613 89.9697 40.8613 86.4697 79.8613V82.3611H212.97C206.97 38.8611 261.47 38.8611 259.47 79.2921M258.968 79.2921H259.47" stroke="black"/>
</svg>
