<svg width="303" height="96" viewBox="0 0 303 96" fill="none" xmlns="http://www.w3.org/2000/svg">
<circle cx="62.4697" cy="74.3535" r="20.5" fill="#E0426F" stroke="black"/>
<circle cx="235.47" cy="74.3535" r="20.5" fill="#E0426F" stroke="black"/>
<path d="M132.468 12.8534L130.968 9.35337C170.968 1.35348 192.468 1.85352 231.468 13.3535L227.968 17.8535C207.968 9.85343 189.968 8.85342 173.968 8.35349C171.468 7.85349 167.468 7.85345 164.968 8.35337C154.968 8.35349 142.968 9.85349 132.468 12.8534Z" fill="#EFC7D3" stroke="black" stroke-width="0.5"/>
<path d="M130.968 9.35356L130.468 7.85356C166.468 -3.14648 198.968 0.85339 234.468 9.85356L231.468 13.3536C191.468 0.853516 165.468 2.35352 130.968 9.35356Z" fill="#EFC7D3" stroke="black" stroke-width="0.5"/>
<path d="M130.968 9.3535C182.468 -2.14652 210.968 7.85352 231.468 13.3535" stroke="black" stroke-width="0.5"/>
<path d="M170.47 30.3535L173.97 8.35352C207.47 9.35352 218.97 14.8535 223.47 16.3535L225.952 28.3535C198.962 28.3542 181.467 29.8536 170.47 30.3535Z" fill="#EFC7D3"/>
<path d="M226.47 30.8535L223.47 16.3535C218.97 14.8535 207.47 9.35352 173.97 8.35352L170.47 30.3535C181.47 29.8535 198.97 28.3535 225.97 28.3535" stroke="black" stroke-width="0.5"/>
<path d="M164.97 8.35352C131.97 9.35352 111.97 18.3535 92.9697 35.8535L95.4697 33.8535L159.47 30.8535L164.97 8.35352Z" fill="#EFC7D3" stroke="black" stroke-width="0.5"/>
<path d="M239.468 22.8535C235.801 20.1868 229.968 17.8535 223.468 16.3535L225.968 28.3535H232.468C235.468 26.8535 238.468 24.6223 239.468 22.8535Z" fill="#EFC7D3" stroke="black" stroke-width="0.5"/>
<path d="M96.4697 78.8535H163.47L197.97 77.3535H212.47L212.97 82.8535H198.97H97.9697H86.4697V78.8535H96.4697Z" fill="#EFC7D3"/>
<path d="M96.4697 78.8535H163.47L197.97 77.3535M96.4697 78.8535C96.4697 80.3535 96.9697 81.3535 97.9697 82.8535M96.4697 78.8535H86.4697V82.8535H97.9697M197.97 77.3535L198.97 82.8535M197.97 77.3535H212.47L212.97 82.8535H198.97M198.97 82.8535H97.9697" stroke="black" stroke-width="0.5"/>
<path d="M96.4689 78.8535C91.9697 74.3535 88.9698 52.3535 92.9689 35.8535L164.97 31.8535C160.97 36.8535 159.97 70.8535 163.47 78.8535H96.4689Z" fill="#EFC7D3" stroke="black" stroke-width="0.5"/>
<path d="M228.47 30.8535L164.97 31.8535C160.97 36.8535 159.97 70.8535 163.47 78.8535L197.97 77.3535C202.47 75.8535 208.97 70.3535 228.47 30.8535Z" fill="#EFC7D3" stroke="black" stroke-width="0.5"/>
<path d="M170.47 30.3536C165.97 30.8536 162.47 30.8536 159.47 30.8536L164.97 8.35359C167.97 7.85352 170.97 7.85352 173.97 8.35359L170.47 30.3536Z" fill="#EFC7D3" stroke="black" stroke-width="0.5"/>
<path d="M98.9697 32.3537C103.47 37.8537 110.47 34.3537 114.47 32.8537C115.47 17.3535 102.47 25.3535 98.9697 32.3537Z" fill="#EFC7D3" stroke="black" stroke-width="0.5"/>
<path d="M234.468 9.85352L231.468 13.3535C248.468 18.8535 258.968 21.8535 271.468 28.3535H272.968L280.968 26.8535C265.968 20.3535 258.468 17.8535 234.468 9.85352Z" fill="#EDADBF" stroke="black" stroke-width="0.5"/>
<path d="M271.468 28.3535C260.968 22.8535 241.968 16.3535 231.468 13.3535L229.468 15.8535L244.468 23.3535C242.968 25.8535 238.968 27.8535 232.968 30.5535C244.968 29.8535 261.968 28.8535 271.468 28.3535Z" fill="#EDADBF" stroke="black" stroke-width="0.5"/>
<path d="M276.97 34.6535L282.968 32.3535L272.469 28.3535L228.469 30.8535C220.969 45.8535 205.969 76.3535 197.969 77.3535H212.469C210.969 66.3535 220.469 42.8535 245.47 51.8535C255.97 46.3535 265.97 40.8535 276.97 34.6535Z" fill="#EDADBF" stroke="black" stroke-width="0.5"/>
<path d="M277.968 34.3535C265.968 40.8535 255.968 46.3535 245.468 51.8535C249.968 54.8535 260.468 60.8535 259.468 79.8535L284.468 79.3535V77.8535C292.968 76.8535 301.468 80.3535 299.968 66.3535L301.968 56.3535C301.968 54.8535 299.468 50.8535 296.968 50.3535C298.468 47.8535 295.468 38.8535 295.468 38.8535V37.3535L291.468 34.3535L286.468 32.8535L282.968 32.3535L277.968 34.3535Z" fill="#EDADBF" stroke="black" stroke-width="0.5"/>
<path d="M280.968 26.8535L272.468 28.3535L282.968 32.3535C292.468 33.3535 291.467 34.8535 295.462 37.2737L294.968 28.8535L280.968 26.8535Z" fill="#EDADBF"/>
<path d="M295.468 37.3535L295.462 37.2737M295.462 37.2737L294.968 28.8535L280.968 26.8535L272.468 28.3535L282.968 32.3535C292.468 33.3535 291.467 34.8535 295.462 37.2737Z" stroke="black" stroke-width="0.5"/>
<path d="M293.97 36.8537C293.47 34.3536 282.47 34.1535 276.97 34.6535" stroke="black" stroke-width="0.5"/>
<path d="M299.97 66.8535L260.47 68.8535C259.97 63.8535 257.803 59.6868 255.97 57.8535L301.97 55.3535M300.47 52.8535C289.47 51.3535 278.47 46.5535 266.47 40.5535M228.47 30.8535L272.47 28.3535L280.97 26.8535" stroke="black" stroke-width="0.5"/>
<path d="M290.47 40.8535C290.47 38.8535 289.47 34.8535 285.97 32.8535C288.191 32.8535 291.567 33.8939 294.079 36.2635C294.542 37.7935 293.47 41.3535 290.428 42.8535C290.414 42.2632 290.47 41.5778 290.47 40.8535Z" fill="#EDADBF"/>
<path d="M272.47 43.3535C279.465 43.7033 285.482 43.8084 290.863 44.3535M297.47 45.3535C295.367 44.9029 293.173 44.5876 290.863 44.3535M295.47 37.8535C295.052 37.2684 294.583 36.7392 294.079 36.2635M290.863 44.3535C290.537 44.0088 290.443 43.4857 290.428 42.8535M290.428 42.8535C290.414 42.2632 290.47 41.5778 290.47 40.8535C290.47 38.8535 289.47 34.8535 285.97 32.8535C288.191 32.8535 291.567 33.8939 294.079 36.2635M290.428 42.8535C293.47 41.3535 294.542 37.7935 294.079 36.2635" stroke="black" stroke-width="0.5"/>
<path d="M290.47 40.8535C285.97 40.8535 283.97 36.8535 282.97 34.3535" stroke="black" stroke-width="0.5"/>
<path d="M132.468 12.9535C118.968 16.9535 106.968 22.8535 92.9678 35.8535C99.9678 23.8535 115.468 14.3535 130.968 9.35352L132.468 12.9535Z" fill="#EDADBF" stroke="black" stroke-width="0.5"/>
<path d="M130.968 9.35352C110.968 15.0276 92.9678 32.3535 84.9678 30.3535C97.9678 20.8535 113.968 12.3535 130.468 7.85352L130.968 9.35352Z" fill="#EDADBF" stroke="black" stroke-width="0.5"/>
<path d="M9.96844 48.3535H3.96844C1.46777 52.3535 1.46777 62.3535 1.96844 65.8535C0.467773 66.8535 0.468371 71.3535 1.46844 72.8535L5.46844 73.3535V74.8535L1.46844 76.8535V78.8535C5.46844 79.8535 13.9684 81.8535 21.9684 81.3535V79.8535H39.4684C38.8018 71.3535 40.4684 60.8535 49.4684 53.8535C46.9684 49.8535 39.9684 45.3535 36.9684 44.8535C26.9684 43.8535 11.9684 46.3535 9.96844 48.3535Z" fill="#EDADBF" stroke="black" stroke-width="0.5"/>
<path d="M92.9697 35.8535C75.1364 36.6868 43.4697 41.5535 32.9697 44.5535L36.9697 44.8535C41.9697 46.3535 47.4697 50.6868 49.4697 53.8535C62.4688 44.3535 87.9688 51.3535 86.4688 78.8535H96.4688C89.4688 67.8535 90.4688 45.8535 92.9697 35.8535Z" fill="#EDADBF" stroke="black" stroke-width="0.5"/>
<path d="M9.96777 48.3536H3.96777C36.468 28.8535 58.468 34.8535 84.4678 30.3535L93.468 35.8535C76.468 36.8535 47.4678 40.3535 33.4678 44.5535C25.4678 44.3535 11.4678 46.3535 9.96777 48.3536Z" fill="#EDADBF" stroke="black" stroke-width="0.5"/>
<path d="M36.9692 44.8536C29.4692 43.8535 12.4692 45.8535 9.96923 48.3536C9.16923 50.7535 12.3026 53.6868 13.9692 54.8535C23.4692 56.3535 36.9692 50.3535 36.9692 44.8536Z" fill="#EDADBF" stroke="black" stroke-width="0.5"/>
<path d="M3.96847 48.3535C10.9685 49.3535 4.96847 59.8535 1.96847 64.8535C1.4684 57.8535 1.96826 52.3535 3.96847 48.3535Z" fill="#EDADBF" stroke="black" stroke-width="0.5"/>
<path d="M21.9678 84.3535V79.8535H39.4678L39.9678 84.3535H21.9678Z" fill="#EDADBF" stroke="black" stroke-width="0.5"/>
<path d="M2.46973 65.8535C3.96973 68.3535 5.96973 71.5202 5.46973 73.3535M21.9697 79.8535C11.4697 80.3535 6.96973 76.3535 7.96973 72.8535C8.46973 72.3535 9.96973 70.8535 10.9697 70.8535" stroke="black" stroke-width="0.5"/>
<path d="M31.9697 74.8535C29.4697 70.8535 23.9697 65.8536 20.9697 64.3536C19.2197 63.8536 16.5946 63.9786 13.8445 64.3536C12.2196 65.6869 10.9697 68.8535 11.4697 71.8535C11.4697 73.0202 12.7771 75.3535 15.4697 75.3535C19.9697 75.3535 26.9697 75.8535 31.9697 74.8535Z" fill="#EDADBF"/>
<path d="M5.96973 65.8536C8.21967 65.3536 11.0946 64.7286 13.8445 64.3536M13.8445 64.3536C16.5946 63.9786 19.2197 63.8536 20.9697 64.3536C23.9697 65.8536 29.4697 70.8535 31.9697 74.8535C26.9697 75.8535 19.9697 75.3535 15.4697 75.3535C12.7771 75.3535 11.4697 73.0202 11.4697 71.8535C10.9697 68.8535 12.2196 65.6869 13.8445 64.3536Z" stroke="black" stroke-width="0.5"/>
<path d="M11.4697 71.3536C19.4697 69.8536 22.9697 72.4821 25.9697 73.9821M12.9697 74.3536L30.4697 73.8536" stroke="black" stroke-width="0.5"/>
<path d="M21.9678 82.8535H31.4678C33.4678 82.8535 34.9678 80.8535 34.4678 79.8535M37.9678 79.8535V84.3535" stroke="black" stroke-width="0.5"/>
<path d="M21.9697 81.3538C17.4697 81.3538 12.9697 81.8538 1.46967 78.8538V76.8538L5.46967 74.8538V73.3538L1.46967 72.8538C0.96875 71.3535 -0.0310541 68.3535 1.96894 65.8535C1.46918 57.8535 1.96918 51.3535 3.96967 48.3533C36.4697 28.8537 58.4697 34.8537 84.4697 30.3537C162.47 -24.6464 244.47 12.3535 281.47 26.8537L294.97 28.8535L295.47 35.8535V38.8535C296.968 43.8535 298.303 48.3535 296.97 50.3535C299.47 51.3535 301.97 54.5202 301.97 56.3535L299.97 66.3535C300.422 77.2014 298.013 77.4257 288.682 77.7382C287.691 77.7713 285.622 77.8055 284.47 77.8535V79.3535L259.47 79.7846M21.9697 81.3538V84.3538H39.968L39.4697 79.8538M21.9697 81.3538V79.8538H39.4697M39.4697 79.8538C36.4697 38.3538 89.9697 41.3538 86.4697 80.3538V82.8535H212.97C206.97 39.3535 261.47 39.3535 259.47 79.7846M258.968 79.7846H259.47" stroke="black"/>
</svg>
