<svg width="304" height="96" viewBox="0 0 304 96" fill="none" xmlns="http://www.w3.org/2000/svg">
<circle cx="63.0742" cy="74.5227" r="20.5" fill="#EDADBF" stroke="black"/>
<circle cx="236.074" cy="74.5227" r="20.5" fill="#EDADBF" stroke="black"/>
<path d="M133.072 13.0226L131.572 9.52256C171.572 1.52267 193.072 2.02271 232.072 13.5227L228.572 18.0226C208.572 10.0226 190.572 9.02261 174.572 8.52268C172.072 8.02268 168.072 8.02264 165.572 8.52256C155.572 8.52268 143.572 10.0227 133.072 13.0226Z" fill="#EFC7D3" stroke="black" stroke-width="0.5"/>
<path d="M131.572 9.52275L131.072 8.02275C167.072 -2.97729 199.572 1.02258 235.072 10.0228L232.072 13.5228C192.072 1.02271 166.072 2.52271 131.572 9.52275Z" fill="#EFC7D3" stroke="black" stroke-width="0.5"/>
<path d="M131.572 9.52269C183.072 -1.97733 211.572 8.02271 232.072 13.5227" stroke="black" stroke-width="0.5"/>
<path d="M171.074 30.5227L174.574 8.52271C208.074 9.52271 219.574 15.0227 224.074 16.5227L226.557 28.5227C199.567 28.5233 182.072 30.0228 171.074 30.5227Z" fill="#EFC7D3"/>
<path d="M227.074 31.0227L224.074 16.5227C219.574 15.0227 208.074 9.52271 174.574 8.52271L171.074 30.5227C182.074 30.0227 199.574 28.5227 226.574 28.5227" stroke="black" stroke-width="0.5"/>
<path d="M165.574 8.52271C132.574 9.52271 112.574 18.5227 93.5742 36.0227L96.0742 34.0227L160.074 31.0227L165.574 8.52271Z" fill="#EFC7D3" stroke="black" stroke-width="0.5"/>
<path d="M240.072 23.0227C236.406 20.356 230.572 18.0227 224.072 16.5227L226.572 28.5227H233.072C236.072 27.0227 239.072 24.7914 240.072 23.0227Z" fill="#EFC7D3" stroke="black" stroke-width="0.5"/>
<path d="M97.0742 79.0227H164.074L198.574 77.5227H213.074L213.574 83.0227H199.574H98.5742H87.0742V79.0227H97.0742Z" fill="#EFC7D3"/>
<path d="M97.0742 79.0227H164.074L198.574 77.5227M97.0742 79.0227C97.0742 80.5227 97.5742 81.5227 98.5742 83.0227M97.0742 79.0227H87.0742V83.0227H98.5742M198.574 77.5227L199.574 83.0227M198.574 77.5227H213.074L213.574 83.0227H199.574M199.574 83.0227H98.5742" stroke="black" stroke-width="0.5"/>
<path d="M97.0733 79.0227C92.5742 74.5227 89.5743 52.5227 93.5733 36.0227L165.574 32.0227C161.574 37.0227 160.574 71.0227 164.074 79.0227H97.0733Z" fill="#EFC7D3" stroke="black" stroke-width="0.5"/>
<path d="M229.074 31.0227L165.574 32.0227C161.574 37.0227 160.574 71.0227 164.074 79.0227L198.574 77.5227C203.074 76.0227 209.574 70.5227 229.074 31.0227Z" fill="#EFC7D3" stroke="black" stroke-width="0.5"/>
<path d="M171.074 30.5228C166.574 31.0228 163.074 31.0228 160.074 31.0228L165.574 8.52278C168.574 8.02271 171.574 8.02271 174.574 8.52278L171.074 30.5228Z" fill="#EFC7D3" stroke="black" stroke-width="0.5"/>
<path d="M99.5742 32.5228C104.074 38.0228 111.074 34.5228 115.074 33.0228C116.074 17.5227 103.074 25.5227 99.5742 32.5228Z" fill="#EFC7D3" stroke="black" stroke-width="0.5"/>
<path d="M235.072 10.0227L232.072 13.5227C249.072 19.0227 259.572 22.0227 272.072 28.5227H273.572L281.572 27.0227C266.572 20.5227 259.072 18.0227 235.072 10.0227Z" fill="#EDADBF" stroke="black" stroke-width="0.5"/>
<path d="M272.072 28.5227C261.572 23.0227 242.572 16.5227 232.072 13.5227L230.072 16.0227L245.072 23.5227C243.572 26.0227 239.572 28.0227 233.572 30.7227C245.572 30.0227 262.572 29.0227 272.072 28.5227Z" fill="#EDADBF" stroke="black" stroke-width="0.5"/>
<path d="M277.574 34.8227L283.573 32.5227L273.073 28.5227L229.073 31.0227C221.573 46.0227 206.573 76.5227 198.573 77.5227H213.073C211.573 66.5227 221.073 43.0227 246.074 52.0227C256.574 46.5227 266.574 41.0227 277.574 34.8227Z" fill="#EDADBF" stroke="black" stroke-width="0.5"/>
<path d="M278.572 34.5227C266.572 41.0227 256.572 46.5227 246.072 52.0227C250.572 55.0227 261.072 61.0227 260.072 80.0227L285.072 79.5227V78.0227C293.572 77.0227 302.072 80.5227 300.572 66.5227L302.572 56.5227C302.572 55.0227 300.072 51.0227 297.572 50.5227C299.072 48.0227 296.072 39.0227 296.072 39.0227V37.5227L292.072 34.5227L287.072 33.0227L283.572 32.5227L278.572 34.5227Z" fill="#EDADBF" stroke="black" stroke-width="0.5"/>
<path d="M281.572 27.0227L273.072 28.5227L283.572 32.5227C293.072 33.5227 292.071 35.0227 296.066 37.4429L295.572 29.0227L281.572 27.0227Z" fill="#EDADBF"/>
<path d="M296.072 37.5227L296.066 37.4429M296.066 37.4429L295.572 29.0227L281.572 27.0227L273.072 28.5227L283.572 32.5227C293.072 33.5227 292.071 35.0227 296.066 37.4429Z" stroke="black" stroke-width="0.5"/>
<path d="M294.574 37.0229C294.074 34.5228 283.074 34.3227 277.574 34.8227" stroke="black" stroke-width="0.5"/>
<path d="M300.574 67.0227L261.074 69.0227C260.574 64.0227 258.408 59.856 256.574 58.0227L302.574 55.5227M301.074 53.0227C290.074 51.5227 279.074 46.7227 267.074 40.7227M229.074 31.0227L273.074 28.5227L281.574 27.0227" stroke="black" stroke-width="0.5"/>
<path d="M291.074 41.0227C291.074 39.0227 290.074 35.0227 286.574 33.0227C288.795 33.0227 292.172 34.0631 294.683 36.4327C295.147 37.9627 294.074 41.5227 291.032 43.0227C291.019 42.4324 291.074 41.747 291.074 41.0227Z" fill="#EDADBF"/>
<path d="M273.074 43.5227C280.07 43.8725 286.087 43.9776 291.467 44.5227M298.074 45.5227C295.971 45.0721 293.778 44.7568 291.467 44.5227M296.074 38.0227C295.656 37.4376 295.187 36.9084 294.683 36.4327M291.467 44.5227C291.141 44.1779 291.047 43.6549 291.032 43.0227M291.032 43.0227C291.019 42.4324 291.074 41.747 291.074 41.0227C291.074 39.0227 290.074 35.0227 286.574 33.0227C288.795 33.0227 292.172 34.0631 294.683 36.4327M291.032 43.0227C294.074 41.5227 295.147 37.9627 294.683 36.4327" stroke="black" stroke-width="0.5"/>
<path d="M291.074 41.0227C286.574 41.0227 284.574 37.0227 283.574 34.5227" stroke="black" stroke-width="0.5"/>
<path d="M133.072 13.1227C119.572 17.1227 107.572 23.0227 93.5723 36.0227C100.572 24.0227 116.072 14.5227 131.572 9.52271L133.072 13.1227Z" fill="#E56E90" stroke="black" stroke-width="0.5"/>
<path d="M131.572 9.52271C111.572 15.1967 93.5723 32.5227 85.5723 30.5227C98.5723 21.0227 114.572 12.5227 131.072 8.02271L131.572 9.52271Z" fill="#E56E90" stroke="black" stroke-width="0.5"/>
<path d="M10.5729 48.5227H4.57293C2.07227 52.5227 2.07227 62.5227 2.57293 66.0227C1.07227 67.0227 1.07286 71.5227 2.07293 73.0227L6.07293 73.5227V75.0227L2.07293 77.0227V79.0227C6.07293 80.0227 14.5729 82.0227 22.5729 81.5227V80.0227H40.0729C39.4063 71.5227 41.0729 61.0227 50.0729 54.0227C47.5729 50.0227 40.5729 45.5227 37.5729 45.0227C27.5729 44.0227 12.5729 46.5227 10.5729 48.5227Z" fill="#E56E90" stroke="black" stroke-width="0.5"/>
<path d="M93.5742 36.0227C75.7409 36.856 44.0742 41.7227 33.5742 44.7227L37.5742 45.0227C42.5742 46.5227 48.0742 50.856 50.0742 54.0227C63.0732 44.5227 88.5732 51.5227 87.0732 79.0227H97.0732C90.0732 68.0227 91.0732 46.0227 93.5742 36.0227Z" fill="#E56E90" stroke="black" stroke-width="0.5"/>
<path d="M10.5723 48.5228H4.57227C37.0724 29.0227 59.0725 35.0227 85.0723 30.5227L94.0725 36.0227C77.0725 37.0227 48.0723 40.5227 34.0723 44.7227C26.0723 44.5227 12.0723 46.5227 10.5723 48.5228Z" fill="#E56E90" stroke="black" stroke-width="0.5"/>
<path d="M37.5737 45.0228C30.0737 44.0227 13.0737 46.0227 10.5737 48.5228C9.77372 50.9227 12.9071 53.856 14.5737 55.0227C24.0737 56.5227 37.5737 50.5227 37.5737 45.0228Z" fill="#E56E90" stroke="black" stroke-width="0.5"/>
<path d="M4.57296 48.5227C11.573 49.5227 5.57296 60.0227 2.57296 65.0227C2.07289 58.0227 2.57275 52.5227 4.57296 48.5227Z" fill="#E56E90" stroke="black" stroke-width="0.5"/>
<path d="M22.5723 84.5227V80.0227H40.0723L40.5723 84.5227H22.5723Z" fill="#E56E90" stroke="black" stroke-width="0.5"/>
<path d="M3.07422 66.0225C4.57422 68.5225 6.57422 71.6891 6.07422 73.5225M22.5742 80.0225C12.0742 80.5225 7.57422 76.5225 8.57422 73.0225C9.07422 72.5225 10.5742 71.0225 11.5742 71.0225" stroke="black" stroke-width="0.5"/>
<path d="M32.5742 75.0226C30.0742 71.0226 24.5742 66.0227 21.5742 64.5227C19.8242 64.0227 17.1991 64.1477 14.449 64.5227C12.8241 65.856 11.5742 69.0226 12.0742 72.0226C12.0742 73.1892 13.3816 75.5226 16.0742 75.5226C20.5742 75.5226 27.5742 76.0226 32.5742 75.0226Z" fill="#E56E90"/>
<path d="M6.57422 66.0227C8.82416 65.5226 11.6991 64.8977 14.449 64.5227M14.449 64.5227C17.1991 64.1477 19.8242 64.0227 21.5742 64.5227C24.5742 66.0227 30.0742 71.0226 32.5742 75.0226C27.5742 76.0226 20.5742 75.5226 16.0742 75.5226C13.3816 75.5226 12.0742 73.1892 12.0742 72.0226C11.5742 69.0226 12.8241 65.856 14.449 64.5227Z" stroke="black" stroke-width="0.5"/>
<path d="M12.0742 71.5227C20.0742 70.0227 23.5742 72.6512 26.5742 74.1512M13.5742 74.5227L31.0742 74.0227" stroke="black" stroke-width="0.5"/>
<path d="M22.5723 83.0225H32.0723C34.0723 83.0225 35.5723 81.0225 35.0723 80.0225M38.5723 80.0225V84.5225" stroke="black" stroke-width="0.5"/>
<path d="M22.5742 81.5229C18.0742 81.5229 13.5742 82.0229 2.07416 79.0229V77.0229L6.07417 75.0229V73.5229L2.07416 73.023C1.57324 71.5227 0.573438 68.5227 2.57343 66.0227C2.07368 58.0227 2.57368 51.5227 4.57417 48.5224C37.0742 29.0228 59.0742 35.0229 85.0742 30.5229C163.074 -24.4772 245.074 12.5227 282.074 27.0229L295.574 29.0227L296.074 36.0227V39.0227C297.573 44.0227 298.908 48.5227 297.574 50.5227C300.074 51.5227 302.574 54.6894 302.574 56.5227L300.574 66.5227C301.026 77.3706 298.618 77.5949 289.286 77.9073C288.295 77.9405 286.226 77.9747 285.074 78.0227V79.5227L260.074 79.9537M22.5742 81.5229V84.5229H40.5725L40.0742 80.0229M22.5742 81.5229V80.0229H40.0742M40.0742 80.0229C37.0742 38.5229 90.5742 41.5229 87.0742 80.5229V83.0227H213.574C207.574 39.5227 262.074 39.5227 260.074 79.9537M259.573 79.9537H260.074" stroke="black"/>
</svg>
