<svg width="303" height="95" viewBox="0 0 303 95" fill="none" xmlns="http://www.w3.org/2000/svg">
<circle cx="62.667" cy="73.8611" r="20.5" stroke="black"/>
<circle cx="235.667" cy="73.8611" r="20.5" stroke="black"/>
<path d="M132.665 12.3609L131.165 8.86094C171.165 0.861052 192.665 1.36108 231.665 12.861L228.165 17.361C208.165 9.36099 190.165 8.36099 174.165 7.86106C171.665 7.36106 167.665 7.36102 165.165 7.86094C155.165 7.86106 143.165 9.36106 132.665 12.3609Z" fill="#EDADBF" stroke="black" stroke-width="0.5"/>
<path d="M131.165 8.86113L130.665 7.36113C166.665 -3.63892 199.165 0.360958 234.665 9.36113L231.665 12.8611C191.665 0.361084 165.665 1.86108 131.165 8.86113Z" fill="#EDADBF" stroke="black" stroke-width="0.5"/>
<path d="M131.165 8.86095C182.665 -2.63908 211.165 7.36096 231.665 12.8609" stroke="black" stroke-width="0.5"/>
<path d="M170.667 29.8611L174.167 7.86108C207.667 8.86108 219.167 14.3611 223.667 15.8611L226.15 27.8611C199.16 27.8617 181.665 29.3612 170.667 29.8611Z" fill="#EDADBF"/>
<path d="M226.667 30.3611L223.667 15.8611C219.167 14.3611 207.667 8.86108 174.167 7.86108L170.667 29.8611C181.667 29.3611 199.167 27.8611 226.167 27.8611" stroke="black" stroke-width="0.5"/>
<path d="M165.167 7.86108C132.167 8.86108 112.167 17.8611 93.167 35.3611L95.667 33.3611L159.667 30.3611L165.167 7.86108Z" fill="#EDADBF" stroke="black" stroke-width="0.5"/>
<path d="M239.665 22.3611C235.998 19.6944 230.165 17.3611 223.665 15.8611L226.165 27.8611H232.665C235.665 26.3611 238.665 24.1298 239.665 22.3611Z" fill="#EDADBF" stroke="black" stroke-width="0.5"/>
<path d="M96.667 78.3611H163.667L198.167 76.8611H212.667L213.167 82.3611H199.167H98.167H86.667V78.3611H96.667Z" fill="#EDADBF"/>
<path d="M96.667 78.3611H163.667L198.167 76.8611M96.667 78.3611C96.667 79.8611 97.167 80.8611 98.167 82.3611M96.667 78.3611H86.667V82.3611H98.167M198.167 76.8611L199.167 82.3611M198.167 76.8611H212.667L213.167 82.3611H199.167M199.167 82.3611H98.167" stroke="black" stroke-width="0.5"/>
<path d="M96.6661 78.3611C92.167 73.8611 89.167 51.8611 93.1661 35.3611L165.167 31.3611C161.167 36.3611 160.167 70.3611 163.667 78.3611H96.6661Z" fill="#EDADBF" stroke="black" stroke-width="0.5"/>
<path d="M228.667 30.3611L165.167 31.3611C161.167 36.3611 160.167 70.3611 163.667 78.3611L198.167 76.8611C202.667 75.3611 209.167 69.8611 228.667 30.3611Z" fill="#EDADBF" stroke="black" stroke-width="0.5"/>
<path d="M170.667 29.8612C166.167 30.3612 162.667 30.3612 159.667 30.3612L165.167 7.86116C168.167 7.36108 171.167 7.36108 174.167 7.86116L170.667 29.8612Z" fill="#EDADBF" stroke="black" stroke-width="0.5"/>
<path d="M99.167 31.8611C103.667 37.3611 110.667 33.8611 114.667 32.3611C115.667 16.861 102.667 24.861 99.167 31.8611Z" fill="#EDADBF" stroke="black" stroke-width="0.5"/>
<path d="M234.665 9.36108L231.665 12.8611C248.665 18.3611 259.165 21.3611 271.665 27.8611H273.165L281.165 26.3611C266.165 19.8611 258.665 17.3611 234.665 9.36108Z" fill="#E56E90" stroke="black" stroke-width="0.5"/>
<path d="M271.665 27.8611C261.165 22.3611 242.165 15.8611 231.665 12.8611L229.665 15.3611L244.665 22.8611C243.165 25.3611 239.165 27.3611 233.165 30.0611C245.165 29.3611 262.165 28.3611 271.665 27.8611Z" fill="#E56E90" stroke="black" stroke-width="0.5"/>
<path d="M277.167 34.1611L283.165 31.8611L272.666 27.8611L228.666 30.3611C221.166 45.3611 206.166 75.8611 198.166 76.8611H212.666C211.166 65.8611 220.666 42.3611 245.667 51.3611C256.167 45.8611 266.167 40.3611 277.167 34.1611Z" fill="#E56E90" stroke="black" stroke-width="0.5"/>
<path d="M278.165 33.8611C266.165 40.3611 256.165 45.8611 245.665 51.3611C250.165 54.3611 260.665 60.3611 259.665 79.3611L284.665 78.8611V77.3611C293.165 76.3611 301.665 79.8611 300.165 65.8611L302.165 55.8611C302.165 54.3611 299.665 50.3611 297.165 49.8611C298.665 47.3611 295.665 38.3611 295.665 38.3611V36.8611L291.665 33.8611L286.665 32.3611L283.165 31.8611L278.165 33.8611Z" fill="#E56E90" stroke="black" stroke-width="0.5"/>
<path d="M281.165 26.3611L272.665 27.8611L283.165 31.8611C292.665 32.8611 291.664 34.3611 295.659 36.7813L295.165 28.3611L281.165 26.3611Z" fill="#E56E90"/>
<path d="M295.665 36.8611L295.659 36.7813M295.659 36.7813L295.165 28.3611L281.165 26.3611L272.665 27.8611L283.165 31.8611C292.665 32.8611 291.664 34.3611 295.659 36.7813Z" stroke="black" stroke-width="0.5"/>
<path d="M294.167 36.3613C293.667 33.8612 282.667 33.6611 277.167 34.1611" stroke="black" stroke-width="0.5"/>
<path d="M300.167 66.3611L260.667 68.3611C260.167 63.3611 258 59.1944 256.167 57.3611L302.167 54.8611M300.667 52.3611C289.667 50.8611 278.667 46.0611 266.667 40.0611M228.667 30.3611L272.667 27.8611L281.167 26.3611" stroke="black" stroke-width="0.5"/>
<path d="M290.667 40.3611C290.667 38.3611 289.667 34.3611 286.167 32.3611C288.388 32.3611 291.765 33.4015 294.276 35.7711C294.74 37.3011 293.667 40.8611 290.625 42.3611C290.612 41.7708 290.667 41.0854 290.667 40.3611Z" fill="#E56E90"/>
<path d="M272.667 42.8611C279.663 43.2109 285.68 43.316 291.06 43.8611M297.667 44.8611C295.564 44.4104 293.371 44.0952 291.06 43.8611M295.667 37.3611C295.249 36.776 294.78 36.2467 294.276 35.7711M291.06 43.8611C290.734 43.5163 290.64 42.9933 290.625 42.3611M290.625 42.3611C290.612 41.7708 290.667 41.0854 290.667 40.3611C290.667 38.3611 289.667 34.3611 286.167 32.3611C288.388 32.3611 291.765 33.4015 294.276 35.7711M290.625 42.3611C293.667 40.8611 294.74 37.3011 294.276 35.7711" stroke="black" stroke-width="0.5"/>
<path d="M290.667 40.3611C286.167 40.3611 284.167 36.3611 283.167 33.8611" stroke="black" stroke-width="0.5"/>
<path d="M132.665 12.4611C119.165 16.4611 107.165 22.3611 93.165 35.3611C100.165 23.3611 115.665 13.8611 131.165 8.86108L132.665 12.4611Z" stroke="black" stroke-width="0.5"/>
<path d="M131.165 8.86108C111.165 14.5351 93.165 31.8611 85.165 29.8611C98.165 20.3611 114.165 11.8611 130.665 7.36108L131.165 8.86108Z" stroke="black" stroke-width="0.5"/>
<path d="M10.1657 47.861H4.16571C1.66504 51.861 1.66504 61.861 2.16571 65.361C0.665039 66.361 0.665637 70.861 1.66571 72.361L5.66571 72.861V74.361L1.66571 76.361V78.361C5.66571 79.361 14.1657 81.361 22.1657 80.861V79.361H39.6657C38.999 70.861 40.6657 60.361 49.6657 53.361C47.1657 49.361 40.1657 44.861 37.1657 44.361C27.1657 43.361 12.1657 45.861 10.1657 47.861Z" stroke="black" stroke-width="0.5"/>
<path d="M93.167 35.3611C75.3337 36.1944 43.667 41.0611 33.167 44.0611L37.167 44.3611C42.167 45.8611 47.667 50.1944 49.667 53.3611C62.666 43.8611 88.166 50.8611 86.666 78.3611H96.666C89.666 67.3611 90.666 45.3611 93.167 35.3611Z" stroke="black" stroke-width="0.5"/>
<path d="M10.165 47.8611H4.16504C36.6652 28.361 58.6653 34.3611 84.665 29.8611L93.6653 35.3611C76.6653 36.3611 47.665 39.8611 33.665 44.0611C25.665 43.8611 11.665 45.8611 10.165 47.8611Z" stroke="black" stroke-width="0.5"/>
<path d="M37.1665 44.3612C29.6665 43.3611 12.6665 45.3611 10.1665 47.8612C9.36649 50.2611 12.4998 53.1944 14.1665 54.3611C23.6665 55.8611 37.1665 49.8611 37.1665 44.3612Z" stroke="black" stroke-width="0.5"/>
<path d="M4.16573 47.8611C11.1657 48.8611 5.16573 59.3611 2.16573 64.3611C1.66566 57.3611 2.16553 51.8611 4.16573 47.8611Z" stroke="black" stroke-width="0.5"/>
<path d="M22.165 83.8611V79.3611H39.665L40.165 83.8611H22.165Z" stroke="black" stroke-width="0.5"/>
<path d="M2.66699 65.3608C4.16699 67.8608 6.16699 71.0275 5.66699 72.8608M22.167 79.3608C11.667 79.8608 7.16699 75.8608 8.16699 72.3608C8.66699 71.8608 10.167 70.3608 11.167 70.3608" stroke="black" stroke-width="0.5"/>
<path d="M6.16699 65.361C8.41693 64.861 11.2918 64.236 14.0418 63.861M14.0418 63.861C16.7919 63.486 19.4169 63.361 21.167 63.861C24.167 65.361 29.667 70.361 32.167 74.361C27.167 75.361 20.167 74.861 15.667 74.861C12.9744 74.861 11.667 72.5276 11.667 71.361C11.167 68.361 12.4168 65.1943 14.0418 63.861Z" stroke="black" stroke-width="0.5"/>
<path d="M11.667 70.861C19.667 69.3611 23.167 71.9896 26.167 73.4896M13.167 73.8611L30.667 73.3611" stroke="black" stroke-width="0.5"/>
<path d="M22.165 82.3608H31.665C33.665 82.3608 35.165 80.3608 34.665 79.3608M38.165 79.3608V83.8608" stroke="black" stroke-width="0.5"/>
<path d="M22.1669 80.8613C17.6669 80.8613 13.1669 81.3613 1.66694 78.3613V76.3613L5.66694 74.3613V72.8613L1.66694 72.3613C1.16602 70.8611 0.166211 67.8611 2.16621 65.3611C1.66645 57.3611 2.16645 50.8611 4.16694 47.8608C36.6669 28.3612 58.6669 34.3613 84.6669 29.8613C162.667 -25.1388 244.667 11.8611 281.667 26.3613L295.167 28.3611L295.667 35.3611V38.3611C297.165 43.3611 298.5 47.8611 297.167 49.8611C299.667 50.8611 302.167 54.0278 302.167 55.8611L300.167 65.8611C300.619 76.709 298.211 76.9333 288.879 77.2457C287.888 77.2789 285.819 77.3131 284.667 77.3611V78.8611L259.667 79.2921M22.1669 80.8613V83.8613H40.1653L39.6669 79.3613M22.1669 80.8613V79.3613H39.6669M39.6669 79.3613C36.6669 37.8613 90.1669 40.8613 86.6669 79.8613V82.3611H213.167C207.167 38.8611 261.667 38.8611 259.667 79.2921M259.165 79.2921H259.667" stroke="black"/>
</svg>
