<svg width="303" height="96" viewBox="0 0 303 96" fill="none" xmlns="http://www.w3.org/2000/svg">
<circle cx="62.4795" cy="74.0605" r="20.5" fill="#E0426F" stroke="black"/>
<circle cx="235.479" cy="74.0605" r="20.5" fill="#E0426F" stroke="black"/>
<path d="M132.478 12.5604L130.978 9.0604C170.978 1.06051 192.478 1.56055 231.478 13.0605L227.978 17.5605C207.978 9.56046 189.978 8.56046 173.978 8.06052C171.478 7.56052 167.478 7.56049 164.978 8.0604C154.978 8.06052 142.978 9.56052 132.478 12.5604Z" fill="#E0426F" stroke="black" stroke-width="0.5"/>
<path d="M130.978 9.06059L130.478 7.56059C166.478 -3.43945 198.978 0.560421 234.478 9.56059L231.478 13.0606C191.478 0.560547 165.478 2.06055 130.978 9.06059Z" fill="#E0426F" stroke="black" stroke-width="0.5"/>
<path d="M130.978 9.06066C182.478 -2.43937 210.978 7.56067 231.478 13.0607" stroke="black" stroke-width="0.5"/>
<path d="M170.479 30.0605L173.979 8.06055C207.479 9.06055 218.979 14.5605 223.479 16.0605L225.962 28.0605C198.972 28.0612 181.477 29.5607 170.479 30.0605Z" fill="#E0426F"/>
<path d="M226.479 30.5605L223.479 16.0605C218.979 14.5605 207.479 9.06055 173.979 8.06055L170.479 30.0605C181.479 29.5605 198.979 28.0605 225.979 28.0605" stroke="black" stroke-width="0.5"/>
<path d="M164.979 8.06055C131.979 9.06055 111.979 18.0605 92.9795 35.5605L95.4795 33.5605L159.479 30.5605L164.979 8.06055Z" fill="#E0426F" stroke="black" stroke-width="0.5"/>
<path d="M239.478 22.5605C235.811 19.8939 229.978 17.5605 223.478 16.0605L225.978 28.0605H232.478C235.478 26.5605 238.478 24.3293 239.478 22.5605Z" fill="#E0426F" stroke="black" stroke-width="0.5"/>
<path d="M96.4795 78.5605H163.479L197.979 77.0605H212.479L212.979 82.5605H198.979H97.9795H86.4795V78.5605H96.4795Z" fill="#E0426F"/>
<path d="M96.4795 78.5605H163.479L197.979 77.0605M96.4795 78.5605C96.4795 80.0605 96.9795 81.0605 97.9795 82.5605M96.4795 78.5605H86.4795V82.5605H97.9795M197.979 77.0605L198.979 82.5605M197.979 77.0605H212.479L212.979 82.5605H198.979M198.979 82.5605H97.9795" stroke="black" stroke-width="0.5"/>
<path d="M96.4786 78.5605C91.9795 74.0605 88.9795 52.0605 92.9786 35.5605L164.979 31.5605C160.979 36.5605 159.979 70.5605 163.479 78.5605H96.4786Z" fill="#E0426F" stroke="black" stroke-width="0.5"/>
<path d="M228.479 30.5605L164.979 31.5605C160.98 36.5605 159.98 70.5605 163.479 78.5605L197.979 77.0605C202.479 75.5605 208.979 70.0605 228.479 30.5605Z" fill="#E0426F" stroke="black" stroke-width="0.5"/>
<path d="M170.479 30.0606C165.979 30.5606 162.479 30.5606 159.479 30.5606L164.979 8.06062C167.979 7.56055 170.979 7.56055 173.979 8.06062L170.479 30.0606Z" fill="#E0426F" stroke="black" stroke-width="0.5"/>
<path d="M98.9795 32.0608C103.479 37.5608 110.479 34.0608 114.479 32.5608C115.479 17.0607 102.479 25.0607 98.9795 32.0608Z" fill="#E0426F" stroke="black" stroke-width="0.5"/>
<path d="M234.478 9.56055L231.478 13.0605C248.478 18.5605 258.978 21.5605 271.478 28.0605H272.978L280.978 26.5605C265.978 20.0605 258.478 17.5605 234.478 9.56055Z" fill="#EFC7D3" stroke="black" stroke-width="0.5"/>
<path d="M271.478 28.0605C260.978 22.5605 241.978 16.0605 231.478 13.0605L229.478 15.5605L244.478 23.0605C242.978 25.5605 238.978 27.5605 232.978 30.2605C244.978 29.5605 261.978 28.5605 271.478 28.0605Z" fill="#EFC7D3" stroke="black" stroke-width="0.5"/>
<path d="M276.979 34.3605L282.978 32.0605L272.479 28.0605L228.479 30.5605C220.979 45.5605 205.979 76.0605 197.979 77.0605H212.479C210.979 66.0605 220.479 42.5605 245.479 51.5605C255.979 46.0605 265.979 40.5605 276.979 34.3605Z" fill="#EFC7D3" stroke="black" stroke-width="0.5"/>
<path d="M277.978 34.0606C265.978 40.5606 255.978 46.0606 245.478 51.5606C249.978 54.5605 260.478 60.5605 259.478 79.5605L284.478 79.0605V77.5605C292.978 76.5605 301.478 80.0605 299.978 66.0605L301.978 56.0605C301.978 54.5605 299.478 50.5605 296.978 50.0605C298.478 47.5605 295.478 38.5605 295.478 38.5605V37.0605L291.478 34.0605L286.478 32.5605L282.978 32.0605L277.978 34.0606Z" fill="#EFC7D3" stroke="black" stroke-width="0.5"/>
<path d="M280.978 26.5605L272.478 28.0605L282.978 32.0605C292.478 33.0605 291.476 34.5605 295.472 36.9807L294.978 28.5605L280.978 26.5605Z" fill="#EFC7D3"/>
<path d="M295.478 37.0605L295.472 36.9807M295.472 36.9807L294.978 28.5605L280.978 26.5605L272.478 28.0605L282.978 32.0605C292.478 33.0605 291.476 34.5605 295.472 36.9807Z" stroke="black" stroke-width="0.5"/>
<path d="M293.979 36.5607C293.479 34.0606 282.479 33.8606 276.979 34.3606" stroke="black" stroke-width="0.5"/>
<path d="M299.979 66.5605L260.479 68.5605C259.979 63.5605 257.813 59.3939 255.979 57.5605L301.979 55.0605M300.479 52.5605C289.479 51.0605 278.479 46.2605 266.479 40.2605M228.479 30.5605L272.479 28.0605L280.979 26.5605" stroke="black" stroke-width="0.5"/>
<path d="M290.479 40.5605C290.479 38.5605 289.479 34.5605 285.979 32.5605C288.2 32.5605 291.577 33.6009 294.088 35.9705C294.552 37.5005 293.479 41.0605 290.438 42.5605C290.424 41.9703 290.479 41.2848 290.479 40.5605Z" fill="#EFC7D3"/>
<path d="M272.479 43.0605C279.475 43.4103 285.492 43.5154 290.873 44.0605M297.479 45.0605C295.376 44.6099 293.183 44.2946 290.873 44.0605M295.479 37.5605C295.062 36.9754 294.592 36.4462 294.088 35.9705M290.873 44.0605C290.546 43.7158 290.452 43.1927 290.438 42.5605M290.438 42.5605C290.424 41.9703 290.479 41.2848 290.479 40.5605C290.479 38.5605 289.479 34.5605 285.979 32.5605C288.2 32.5605 291.577 33.6009 294.088 35.9705M290.438 42.5605C293.479 41.0605 294.552 37.5005 294.088 35.9705" stroke="black" stroke-width="0.5"/>
<path d="M290.479 40.5605C285.979 40.5605 283.979 36.5605 282.979 34.0605" stroke="black" stroke-width="0.5"/>
<path d="M132.478 12.6605C118.978 16.6605 106.978 22.5605 92.978 35.5605C99.978 23.5605 115.478 14.0605 130.978 9.06055L132.478 12.6605Z" fill="#E56E90" stroke="black" stroke-width="0.5"/>
<path d="M130.978 9.06055C110.978 14.7346 92.978 32.0605 84.978 30.0605C97.978 20.5605 113.978 12.0605 130.478 7.56055L130.978 9.06055Z" fill="#E56E90" stroke="black" stroke-width="0.5"/>
<path d="M9.97869 48.0604H3.97869C1.47803 52.0604 1.47803 62.0604 1.97869 65.5604C0.478027 66.5604 0.478625 71.0604 1.47869 72.5604L5.47869 73.0604V74.5604L1.47869 76.5604V78.5604C5.47869 79.5604 13.9787 81.5604 21.9787 81.0604V79.5604H39.4787C38.812 71.0604 40.4787 60.5604 49.4787 53.5604C46.9787 49.5604 39.9787 45.0604 36.9787 44.5604C26.9787 43.5604 11.9787 46.0604 9.97869 48.0604Z" fill="#E56E90" stroke="black" stroke-width="0.5"/>
<path d="M92.9795 35.5605C75.1462 36.3939 43.4795 41.2605 32.9795 44.2605L36.9795 44.5605C41.9795 46.0605 47.4795 50.3939 49.4795 53.5605C62.4785 44.0605 87.9785 51.0605 86.4785 78.5605H96.4785C89.4785 67.5605 90.4785 45.5605 92.9795 35.5605Z" fill="#E56E90" stroke="black" stroke-width="0.5"/>
<path d="M9.97754 48.0606H3.97754C36.4777 28.5605 58.4778 34.5605 84.4775 30.0605L93.4778 35.5605C76.4778 36.5605 47.4775 40.0605 33.4775 44.2606C25.4775 44.0605 11.4775 46.0605 9.97754 48.0606Z" fill="#E56E90" stroke="black" stroke-width="0.5"/>
<path d="M36.9795 44.5606C29.4795 43.5605 12.4795 45.5605 9.97948 48.0606C9.17948 50.4606 12.3128 53.3939 13.9795 54.5605C23.4795 56.0605 36.9795 50.0605 36.9795 44.5606Z" fill="#E56E90" stroke="black" stroke-width="0.5"/>
<path d="M3.97872 48.0605C10.9787 49.0605 4.97872 59.5605 1.97872 64.5605C1.47865 57.5605 1.97852 52.0605 3.97872 48.0605Z" fill="#E56E90" stroke="black" stroke-width="0.5"/>
<path d="M21.978 84.0605V79.5605H39.478L39.978 84.0605H21.978Z" fill="#E56E90" stroke="black" stroke-width="0.5"/>
<path d="M2.47949 65.5605C3.97949 68.0605 5.97949 71.2272 5.47949 73.0605M21.9795 79.5605C11.4795 80.0605 6.97949 76.0605 7.97949 72.5605C8.47949 72.0605 9.97949 70.5605 10.9795 70.5605" stroke="black" stroke-width="0.5"/>
<path d="M31.9795 74.5607C29.4795 70.5607 23.9795 65.5607 20.9795 64.0607C19.2294 63.5607 16.6044 63.6857 13.8543 64.0607C12.2294 65.3941 10.9795 68.5607 11.4795 71.5607C11.4795 72.7273 12.7869 75.0607 15.4795 75.0607C19.9795 75.0607 26.9795 75.5607 31.9795 74.5607Z" fill="#E56E90"/>
<path d="M5.97949 65.5607C8.22943 65.0607 11.1043 64.4357 13.8543 64.0607M13.8543 64.0607C16.6044 63.6857 19.2294 63.5607 20.9795 64.0607C23.9795 65.5607 29.4795 70.5607 31.9795 74.5607C26.9795 75.5607 19.9795 75.0607 15.4795 75.0607C12.7869 75.0607 11.4795 72.7273 11.4795 71.5607C10.9795 68.5607 12.2293 65.3941 13.8543 64.0607Z" stroke="black" stroke-width="0.5"/>
<path d="M11.4795 71.0607C19.4795 69.5608 22.9795 72.1893 25.9795 73.6893M12.9795 74.0608L30.4795 73.5608" stroke="black" stroke-width="0.5"/>
<path d="M21.9775 82.5605H31.4775C33.4775 82.5605 34.9775 80.5605 34.4775 79.5605M37.9775 79.5605V84.0605" stroke="black" stroke-width="0.5"/>
<path d="M21.9794 81.0608C17.4794 81.0608 12.9794 81.5608 1.47944 78.5608V76.5608L5.47944 74.5608V73.0608L1.47944 72.5608C0.978516 71.0605 -0.0212885 68.0605 1.97871 65.5605C1.47895 57.5605 1.97895 51.0605 3.97944 48.0603C36.4794 28.5607 58.4794 34.5607 84.4794 30.0607C162.479 -24.9394 244.479 12.0605 281.479 26.5607L294.979 28.5605L295.479 35.5605V38.5605C296.978 43.5605 298.313 48.0605 296.979 50.0605C299.479 51.0605 301.979 54.2272 301.979 56.0605L299.979 66.0605C300.431 76.9085 298.023 77.1327 288.692 77.4452C287.701 77.4784 285.632 77.5125 284.479 77.5605V79.0605L259.479 79.4916M21.9794 81.0608V84.0608H39.9778L39.4794 79.5608M21.9794 81.0608V79.5608H39.4794M39.4794 79.5608C36.4794 38.0608 89.9794 41.0608 86.4794 80.0608V82.5605H212.979C206.979 39.0605 261.479 39.0605 259.479 79.4916M258.978 79.4916H259.479" stroke="black"/>
</svg>
