<svg width="303" height="95" viewBox="0 0 303 95" fill="none" xmlns="http://www.w3.org/2000/svg">
<circle cx="62.6772" cy="73.8611" r="20.5" stroke="black"/>
<circle cx="235.678" cy="73.8611" r="20.5" stroke="black"/>
<path d="M132.676 12.3609L131.176 8.86094C171.176 0.861052 192.676 1.36108 231.676 12.861L228.176 17.361C208.176 9.36099 190.176 8.36099 174.176 7.86106C171.676 7.36106 167.676 7.36102 165.176 7.86094C155.176 7.86106 143.176 9.36106 132.676 12.3609Z" fill="#EDADBF" stroke="black" stroke-width="0.5"/>
<path d="M131.176 8.86113L130.676 7.36113C166.676 -3.63892 199.176 0.360958 234.676 9.36113L231.676 12.8611C191.676 0.361084 165.676 1.86108 131.176 8.86113Z" fill="#EDADBF" stroke="black" stroke-width="0.5"/>
<path d="M131.176 8.86095C182.676 -2.63908 211.176 7.36096 231.676 12.8609" stroke="black" stroke-width="0.5"/>
<path d="M170.677 29.8611L174.177 7.86108C207.677 8.86108 219.177 14.3611 223.677 15.8611L226.16 27.8611C199.17 27.8617 181.675 29.3612 170.677 29.8611Z" fill="#EDADBF"/>
<path d="M226.677 30.3611L223.677 15.8611C219.177 14.3611 207.677 8.86108 174.177 7.86108L170.677 29.8611C181.677 29.3611 199.177 27.8611 226.177 27.8611" stroke="black" stroke-width="0.5"/>
<path d="M165.177 7.86108C132.177 8.86108 112.177 17.8611 93.1772 35.3611L95.6772 33.3611L159.677 30.3611L165.177 7.86108Z" fill="#EDADBF" stroke="black" stroke-width="0.5"/>
<path d="M239.676 22.3611C236.009 19.6944 230.176 17.3611 223.676 15.8611L226.176 27.8611H232.676C235.676 26.3611 238.676 24.1298 239.676 22.3611Z" fill="#EDADBF" stroke="black" stroke-width="0.5"/>
<path d="M96.6772 78.3611H163.677L198.177 76.8611H212.677L213.177 82.3611H199.177H98.1772H86.6772V78.3611H96.6772Z" fill="#EDADBF"/>
<path d="M96.6772 78.3611H163.677L198.177 76.8611M96.6772 78.3611C96.6772 79.8611 97.1772 80.8611 98.1772 82.3611M96.6772 78.3611H86.6772V82.3611H98.1772M198.177 76.8611L199.177 82.3611M198.177 76.8611H212.677L213.177 82.3611H199.177M199.177 82.3611H98.1772" stroke="black" stroke-width="0.5"/>
<path d="M96.6764 78.3611C92.1772 73.8611 89.1773 51.8611 93.1764 35.3611L165.177 31.3611C161.177 36.3611 160.177 70.3611 163.677 78.3611H96.6764Z" fill="#EDADBF" stroke="black" stroke-width="0.5"/>
<path d="M228.677 30.3611L165.177 31.3611C161.177 36.3611 160.177 70.3611 163.677 78.3611L198.177 76.8611C202.677 75.3611 209.177 69.8611 228.677 30.3611Z" fill="#EDADBF" stroke="black" stroke-width="0.5"/>
<path d="M170.677 29.8612C166.177 30.3612 162.677 30.3612 159.677 30.3612L165.177 7.86116C168.177 7.36108 171.177 7.36108 174.177 7.86116L170.677 29.8612Z" fill="#EDADBF" stroke="black" stroke-width="0.5"/>
<path d="M99.1772 31.8611C103.677 37.3611 110.677 33.8611 114.677 32.3611C115.677 16.861 102.677 24.861 99.1772 31.8611Z" fill="#EDADBF" stroke="black" stroke-width="0.5"/>
<path d="M234.676 9.36108L231.676 12.8611C248.676 18.3611 259.176 21.3611 271.676 27.8611H273.176L281.176 26.3611C266.176 19.8611 258.676 17.3611 234.676 9.36108Z" fill="#EDADBF" stroke="black" stroke-width="0.5"/>
<path d="M271.676 27.8611C261.176 22.3611 242.176 15.8611 231.676 12.8611L229.676 15.3611L244.676 22.8611C243.176 25.3611 239.176 27.3611 233.176 30.0611C245.176 29.3611 262.176 28.3611 271.676 27.8611Z" fill="#EDADBF" stroke="black" stroke-width="0.5"/>
<path d="M277.178 34.1611L283.176 31.8611L272.677 27.8611L228.677 30.3611C221.177 45.3611 206.177 75.8611 198.177 76.8611H212.677C211.177 65.8611 220.677 42.3611 245.678 51.3611C256.178 45.8611 266.178 40.3611 277.178 34.1611Z" fill="#EDADBF" stroke="black" stroke-width="0.5"/>
<path d="M278.176 33.8611C266.176 40.3611 256.176 45.8611 245.676 51.3611C250.176 54.3611 260.676 60.3611 259.676 79.3611L284.676 78.8611V77.3611C293.176 76.3611 301.676 79.8611 300.176 65.8611L302.176 55.8611C302.176 54.3611 299.676 50.3611 297.176 49.8611C298.676 47.3611 295.676 38.3611 295.676 38.3611V36.8611L291.676 33.8611L286.676 32.3611L283.176 31.8611L278.176 33.8611Z" fill="#EDADBF" stroke="black" stroke-width="0.5"/>
<path d="M281.176 26.3611L272.676 27.8611L283.176 31.8611C292.676 32.8611 291.675 34.3611 295.67 36.7813L295.176 28.3611L281.176 26.3611Z" fill="#EDADBF"/>
<path d="M295.676 36.8611L295.67 36.7813M295.67 36.7813L295.176 28.3611L281.176 26.3611L272.676 27.8611L283.176 31.8611C292.676 32.8611 291.675 34.3611 295.67 36.7813Z" stroke="black" stroke-width="0.5"/>
<path d="M294.178 36.3613C293.678 33.8612 282.678 33.6611 277.178 34.1611" stroke="black" stroke-width="0.5"/>
<path d="M300.178 66.3611L260.678 68.3611C260.178 63.3611 258.011 59.1944 256.178 57.3611L302.178 54.8611M300.678 52.3611C289.678 50.8611 278.678 46.0611 266.678 40.0611M228.678 30.3611L272.678 27.8611L281.178 26.3611" stroke="black" stroke-width="0.5"/>
<path d="M290.678 40.3611C290.678 38.3611 289.678 34.3611 286.178 32.3611C288.399 32.3611 291.775 33.4015 294.287 35.7711C294.75 37.3011 293.678 40.8611 290.636 42.3611C290.622 41.7708 290.678 41.0854 290.678 40.3611Z" fill="#EDADBF"/>
<path d="M272.678 42.8611C279.673 43.2109 285.69 43.316 291.071 43.8611M297.678 44.8611C295.575 44.4104 293.381 44.0952 291.071 43.8611M295.678 37.3611C295.26 36.776 294.791 36.2467 294.287 35.7711M291.071 43.8611C290.745 43.5163 290.651 42.9933 290.636 42.3611M290.636 42.3611C290.622 41.7708 290.678 41.0854 290.678 40.3611C290.678 38.3611 289.678 34.3611 286.178 32.3611C288.399 32.3611 291.775 33.4015 294.287 35.7711M290.636 42.3611C293.678 40.8611 294.75 37.3011 294.287 35.7711" stroke="black" stroke-width="0.5"/>
<path d="M290.678 40.3611C286.178 40.3611 284.178 36.3611 283.178 33.8611" stroke="black" stroke-width="0.5"/>
<path d="M132.676 12.4611C119.176 16.4611 107.176 22.3611 93.1758 35.3611C100.176 23.3611 115.676 13.8611 131.176 8.86108L132.676 12.4611Z" stroke="black" stroke-width="0.5"/>
<path d="M131.176 8.86108C111.176 14.5351 93.1758 31.8611 85.1758 29.8611C98.1758 20.3611 114.176 11.8611 130.676 7.36108L131.176 8.86108Z" stroke="black" stroke-width="0.5"/>
<path d="M10.1764 47.861H4.17645C1.67578 51.861 1.67578 61.861 2.17645 65.361C0.675781 66.361 0.676379 70.861 1.67645 72.361L5.67645 72.861V74.361L1.67645 76.361V78.361C5.67645 79.361 14.1764 81.361 22.1764 80.861V79.361H39.6764C39.0098 70.861 40.6764 60.361 49.6764 53.361C47.1764 49.361 40.1764 44.861 37.1764 44.361C27.1764 43.361 12.1764 45.861 10.1764 47.861Z" stroke="black" stroke-width="0.5"/>
<path d="M93.1772 35.3611C75.3439 36.1944 43.6772 41.0611 33.1772 44.0611L37.1772 44.3611C42.1772 45.8611 47.6772 50.1944 49.6772 53.3611C62.6763 43.8611 88.1763 50.8611 86.6763 78.3611H96.6763C89.6763 67.3611 90.6763 45.3611 93.1772 35.3611Z" stroke="black" stroke-width="0.5"/>
<path d="M10.1758 47.8611H4.17578C36.676 28.361 58.676 34.3611 84.6758 29.8611L93.676 35.3611C76.676 36.3611 47.6758 39.8611 33.6758 44.0611C25.6758 43.8611 11.6758 45.8611 10.1758 47.8611Z" stroke="black" stroke-width="0.5"/>
<path d="M37.1772 44.3612C29.6772 43.3611 12.6772 45.3611 10.1772 47.8612C9.37724 50.2611 12.5106 53.1944 14.1772 54.3611C23.6772 55.8611 37.1772 49.8611 37.1772 44.3612Z" stroke="black" stroke-width="0.5"/>
<path d="M4.17648 47.8611C11.1765 48.8611 5.17648 59.3611 2.17648 64.3611C1.67641 57.3611 2.17627 51.8611 4.17648 47.8611Z" stroke="black" stroke-width="0.5"/>
<path d="M22.1758 83.8611V79.3611H39.6758L40.1758 83.8611H22.1758Z" stroke="black" stroke-width="0.5"/>
<path d="M2.67773 65.3608C4.17773 67.8608 6.17773 71.0275 5.67773 72.8608M22.1777 79.3608C11.6777 79.8608 7.17773 75.8608 8.17773 72.3608C8.67773 71.8608 10.1777 70.3608 11.1777 70.3608" stroke="black" stroke-width="0.5"/>
<path d="M6.17773 65.361C8.42768 64.861 11.3026 64.236 14.0525 63.861M14.0525 63.861C16.8026 63.486 19.4277 63.361 21.1777 63.861C24.1777 65.361 29.6777 70.361 32.1777 74.361C27.1777 75.361 20.1777 74.861 15.6777 74.861C12.9852 74.861 11.6777 72.5276 11.6777 71.361C11.1777 68.361 12.4276 65.1943 14.0525 63.861Z" stroke="black" stroke-width="0.5"/>
<path d="M11.6777 70.861C19.6777 69.3611 23.1777 71.9896 26.1777 73.4896M13.1777 73.8611L30.6777 73.3611" stroke="black" stroke-width="0.5"/>
<path d="M22.1758 82.3608H31.6758C33.6758 82.3608 35.1758 80.3608 34.6758 79.3608M38.1758 79.3608V83.8608" stroke="black" stroke-width="0.5"/>
<path d="M22.1772 80.8613C17.6772 80.8613 13.1772 81.3613 1.67719 78.3613V76.3613L5.67719 74.3613V72.8613L1.67719 72.3613C1.17627 70.8611 0.176465 67.8611 2.17646 65.3611C1.6767 57.3611 2.1767 50.8611 4.17719 47.8608C36.6772 28.3612 58.6772 34.3613 84.6772 29.8613C162.677 -25.1388 244.677 11.8611 281.677 26.3613L295.177 28.3611L295.677 35.3611V38.3611C297.176 43.3611 298.511 47.8611 297.177 49.8611C299.677 50.8611 302.177 54.0278 302.177 55.8611L300.177 65.8611C300.629 76.709 298.221 76.9333 288.889 77.2457C287.898 77.2789 285.829 77.3131 284.677 77.3611V78.8611L259.677 79.2921M22.1772 80.8613V83.8613H40.1755L39.6772 79.3613M22.1772 80.8613V79.3613H39.6772M39.6772 79.3613C36.6772 37.8613 90.1772 40.8613 86.6772 79.8613V82.3611H213.177C207.177 38.8611 261.677 38.8611 259.677 79.2921M259.176 79.2921H259.677" stroke="black"/>
</svg>
