<svg width="303" height="96" viewBox="0 0 303 96" fill="none" xmlns="http://www.w3.org/2000/svg">
<circle cx="62.8545" cy="74.3687" r="20.5" fill="#EFC7D3" stroke="black"/>
<circle cx="235.854" cy="74.3687" r="20.5" fill="#EFC7D3" stroke="black"/>
<path d="M132.853 12.8685L131.353 9.36851C171.353 1.36862 192.853 1.86865 231.853 13.3686L228.353 17.8686C208.353 9.86856 190.353 8.86856 174.353 8.36863C171.853 7.86863 167.853 7.86859 165.353 8.36851C155.353 8.36863 143.353 9.86863 132.853 12.8685Z" fill="#EDADBF" stroke="black" stroke-width="0.5"/>
<path d="M131.353 9.3687L130.853 7.8687C166.853 -3.13135 199.353 0.868526 234.853 9.8687L231.853 13.3687C191.853 0.868652 165.853 2.36865 131.353 9.3687Z" fill="#EDADBF" stroke="black" stroke-width="0.5"/>
<path d="M131.353 9.36876C182.853 -2.13126 211.353 7.86877 231.853 13.3688" stroke="black" stroke-width="0.5"/>
<path d="M170.854 30.3687L174.354 8.36865C207.854 9.36865 219.354 14.8687 223.854 16.3687L226.337 28.3687C199.347 28.3693 181.852 29.8688 170.854 30.3687Z" fill="#EDADBF"/>
<path d="M226.854 30.8687L223.854 16.3687C219.354 14.8687 207.854 9.36865 174.354 8.36865L170.854 30.3687C181.854 29.8687 199.354 28.3687 226.354 28.3687" stroke="black" stroke-width="0.5"/>
<path d="M165.354 8.36865C132.354 9.36865 112.354 18.3687 93.3545 35.8687L95.8545 33.8687L159.854 30.8687L165.354 8.36865Z" fill="#EDADBF" stroke="black" stroke-width="0.5"/>
<path d="M239.853 22.8687C236.186 20.202 230.353 17.8687 223.853 16.3687L226.353 28.3687H232.853C235.853 26.8687 238.853 24.6374 239.853 22.8687Z" fill="#EDADBF" stroke="black" stroke-width="0.5"/>
<path d="M96.8545 78.8687H163.854L198.354 77.3687H212.854L213.354 82.8687H199.354H98.3545H86.8545V78.8687H96.8545Z" fill="#EDADBF"/>
<path d="M96.8545 78.8687H163.854L198.354 77.3687M96.8545 78.8687C96.8545 80.3687 97.3545 81.3687 98.3545 82.8687M96.8545 78.8687H86.8545V82.8687H98.3545M198.354 77.3687L199.354 82.8687M198.354 77.3687H212.854L213.354 82.8687H199.354M199.354 82.8687H98.3545" stroke="black" stroke-width="0.5"/>
<path d="M96.8536 78.8687C92.3545 74.3687 89.3545 52.3687 93.3536 35.8687L165.354 31.8687C161.354 36.8687 160.354 70.8687 163.854 78.8687H96.8536Z" fill="#EDADBF" stroke="black" stroke-width="0.5"/>
<path d="M228.854 30.8687L165.354 31.8687C161.355 36.8687 160.355 70.8687 163.854 78.8687L198.354 77.3687C202.854 75.8687 209.354 70.3687 228.854 30.8687Z" fill="#EDADBF" stroke="black" stroke-width="0.5"/>
<path d="M170.854 30.3687C166.354 30.8687 162.854 30.8687 159.854 30.8687L165.354 8.36873C168.354 7.86865 171.354 7.86865 174.354 8.36873L170.854 30.3687Z" fill="#EDADBF" stroke="black" stroke-width="0.5"/>
<path d="M99.3545 32.3689C103.854 37.8689 110.854 34.3689 114.854 32.8689C115.854 17.3688 102.854 25.3688 99.3545 32.3689Z" fill="#EDADBF" stroke="black" stroke-width="0.5"/>
<path d="M234.853 9.86865L231.853 13.3687C248.853 18.8687 259.353 21.8687 271.853 28.3687H273.353L281.353 26.8687C266.353 20.3687 258.853 17.8687 234.853 9.86865Z" fill="#E0426F" stroke="black" stroke-width="0.5"/>
<path d="M271.853 28.3687C261.353 22.8687 242.353 16.3687 231.853 13.3687L229.853 15.8687L244.853 23.3687C243.353 25.8687 239.353 27.8687 233.353 30.5687C245.353 29.8687 262.353 28.8687 271.853 28.3687Z" fill="#E0426F" stroke="black" stroke-width="0.5"/>
<path d="M277.354 34.6687L283.353 32.3687L272.854 28.3687L228.854 30.8687C221.354 45.8687 206.354 76.3687 198.354 77.3687H212.854C211.354 66.3687 220.854 42.8687 245.854 51.8687C256.354 46.3687 266.354 40.8687 277.354 34.6687Z" fill="#E0426F" stroke="black" stroke-width="0.5"/>
<path d="M278.353 34.3687C266.353 40.8687 256.353 46.3687 245.853 51.8687C250.353 54.8687 260.853 60.8687 259.853 79.8687L284.853 79.3687V77.8687C293.353 76.8687 301.853 80.3687 300.353 66.3687L302.353 56.3687C302.353 54.8687 299.853 50.8687 297.353 50.3687C298.853 47.8687 295.853 38.8687 295.853 38.8687V37.3687L291.853 34.3687L286.853 32.8687L283.353 32.3687L278.353 34.3687Z" fill="#E0426F" stroke="black" stroke-width="0.5"/>
<path d="M281.353 26.8687L272.853 28.3687L283.353 32.3687C292.853 33.3687 291.851 34.8687 295.847 37.2888L295.353 28.8687L281.353 26.8687Z" fill="#E0426F"/>
<path d="M295.853 37.3687L295.847 37.2888M295.847 37.2888L295.353 28.8687L281.353 26.8687L272.853 28.3687L283.353 32.3687C292.853 33.3687 291.851 34.8687 295.847 37.2888Z" stroke="black" stroke-width="0.5"/>
<path d="M294.354 36.8689C293.854 34.3687 282.854 34.1687 277.354 34.6687" stroke="black" stroke-width="0.5"/>
<path d="M300.354 66.8687L260.854 68.8687C260.354 63.8687 258.188 59.702 256.354 57.8687L302.354 55.3687M300.854 52.8687C289.854 51.3687 278.854 46.5687 266.854 40.5687M228.854 30.8687L272.854 28.3687L281.354 26.8687" stroke="black" stroke-width="0.5"/>
<path d="M290.854 40.8687C290.854 38.8687 289.854 34.8687 286.354 32.8687C288.575 32.8687 291.952 33.909 294.463 36.2786C294.927 37.8086 293.854 41.3687 290.813 42.8687C290.799 42.2784 290.854 41.5929 290.854 40.8687Z" fill="#E0426F"/>
<path d="M272.854 43.3687C279.85 43.7184 285.867 43.8235 291.248 44.3687M297.854 45.3687C295.751 44.918 293.558 44.6028 291.248 44.3687M295.854 37.8687C295.437 37.2835 294.967 36.7543 294.463 36.2786M291.248 44.3687C290.921 44.0239 290.827 43.5008 290.813 42.8687M290.813 42.8687C290.799 42.2784 290.854 41.5929 290.854 40.8687C290.854 38.8687 289.854 34.8687 286.354 32.8687C288.575 32.8687 291.952 33.909 294.463 36.2786M290.813 42.8687C293.854 41.3687 294.927 37.8086 294.463 36.2786" stroke="black" stroke-width="0.5"/>
<path d="M290.854 40.8687C286.354 40.8687 284.354 36.8687 283.354 34.3687" stroke="black" stroke-width="0.5"/>
<path d="M132.853 12.9686C119.353 16.9686 107.353 22.8687 93.3525 35.8687C100.353 23.8687 115.853 14.3687 131.353 9.36865L132.853 12.9686Z" fill="#E56E90" stroke="black" stroke-width="0.5"/>
<path d="M131.353 9.36865C111.353 15.0427 93.3525 32.3687 85.3525 30.3687C98.3525 20.8687 114.353 12.3687 130.853 7.86865L131.353 9.36865Z" fill="#E56E90" stroke="black" stroke-width="0.5"/>
<path d="M10.3532 48.3685H4.35321C1.85254 52.3685 1.85254 62.3685 2.35321 65.8685C0.852539 66.8685 0.853137 71.3685 1.85321 72.8685L5.85321 73.3685V74.8685L1.85321 76.8685V78.8685C5.85321 79.8685 14.3532 81.8685 22.3532 81.3685V79.8685H39.8532C39.1865 71.3685 40.8532 60.8685 49.8532 53.8685C47.3532 49.8685 40.3532 45.3685 37.3532 44.8685C27.3532 43.8685 12.3532 46.3685 10.3532 48.3685Z" fill="#E56E90" stroke="black" stroke-width="0.5"/>
<path d="M93.3545 35.8687C75.5212 36.702 43.8545 41.5687 33.3545 44.5687L37.3545 44.8687C42.3545 46.3687 47.8545 50.702 49.8545 53.8687C62.8535 44.3687 88.3535 51.3687 86.8535 78.8687H96.8535C89.8535 67.8687 90.8535 45.8687 93.3545 35.8687Z" fill="#E56E90" stroke="black" stroke-width="0.5"/>
<path d="M10.3525 48.3687H4.35254C36.8527 28.8686 58.8528 34.8687 84.8525 30.3687L93.8528 35.8687C76.8528 36.8687 47.8525 40.3686 33.8525 44.5687C25.8525 44.3686 11.8525 46.3686 10.3525 48.3687Z" fill="#E56E90" stroke="black" stroke-width="0.5"/>
<path d="M37.354 44.8687C29.854 43.8687 12.854 45.8687 10.354 48.3687C9.55399 50.7687 12.6873 53.702 14.354 54.8687C23.854 56.3687 37.354 50.3687 37.354 44.8687Z" fill="#E56E90" stroke="black" stroke-width="0.5"/>
<path d="M4.35323 48.3687C11.3532 49.3687 5.35323 59.8687 2.35323 64.8687C1.85316 57.8687 2.35303 52.3687 4.35323 48.3687Z" fill="#E56E90" stroke="black" stroke-width="0.5"/>
<path d="M22.3525 84.3687V79.8687H39.8525L40.3525 84.3687H22.3525Z" fill="#E56E90" stroke="black" stroke-width="0.5"/>
<path d="M2.85449 65.8687C4.35449 68.3687 6.35449 71.5353 5.85449 73.3687M22.3545 79.8687C11.8545 80.3687 7.35449 76.3687 8.35449 72.8687C8.85449 72.3687 10.3545 70.8687 11.3545 70.8687" stroke="black" stroke-width="0.5"/>
<path d="M32.3545 74.8688C29.8545 70.8688 24.3545 65.8689 21.3545 64.3689C19.6044 63.8688 16.9794 63.9938 14.2293 64.3689C12.6044 65.7022 11.3545 68.8688 11.8545 71.8688C11.8545 73.0354 13.1619 75.3688 15.8545 75.3688C20.3545 75.3688 27.3545 75.8688 32.3545 74.8688Z" fill="#E56E90"/>
<path d="M6.35449 65.8689C8.60443 65.3688 11.4793 64.7438 14.2293 64.3689M14.2293 64.3689C16.9794 63.9938 19.6044 63.8688 21.3545 64.3689C24.3545 65.8689 29.8545 70.8688 32.3545 74.8688C27.3545 75.8688 20.3545 75.3688 15.8545 75.3688C13.1619 75.3688 11.8545 73.0354 11.8545 71.8688C11.3545 68.8688 12.6043 65.7022 14.2293 64.3689Z" stroke="black" stroke-width="0.5"/>
<path d="M11.8545 71.3688C19.8545 69.8689 23.3545 72.4974 26.3545 73.9974M13.3545 74.3689L30.8545 73.8689" stroke="black" stroke-width="0.5"/>
<path d="M22.3525 82.8687H31.8525C33.8525 82.8687 35.3525 80.8687 34.8525 79.8687M38.3525 79.8687V84.3687" stroke="black" stroke-width="0.5"/>
<path d="M22.3544 81.3689C17.8544 81.3689 13.3544 81.8689 1.85444 78.8689V76.8689L5.85444 74.8689V73.3689L1.85444 72.8689C1.35352 71.3687 0.353711 68.3687 2.35371 65.8687C1.85395 57.8687 2.35395 51.3687 4.35444 48.3684C36.8544 28.8688 58.8544 34.8688 84.8544 30.3688C162.854 -24.6313 244.854 12.3686 281.854 26.8688L295.354 28.8687L295.854 35.8687V38.8687C297.353 43.8687 298.688 48.3687 297.354 50.3687C299.854 51.3687 302.354 54.5353 302.354 56.3687L300.354 66.3687C300.806 77.2166 298.398 77.4408 289.067 77.7533C288.076 77.7865 286.007 77.8206 284.854 77.8687V79.3687L259.854 79.7997M22.3544 81.3689V84.3689H40.3528L39.8544 79.8689M22.3544 81.3689V79.8689H39.8544M39.8544 79.8689C36.8544 38.3689 90.3544 41.3689 86.8544 80.3689V82.8687H213.354C207.354 39.3687 261.854 39.3687 259.854 79.7997M259.353 79.7997H259.854" stroke="black"/>
</svg>
