<svg width="303" height="96" viewBox="0 0 303 96" fill="none" xmlns="http://www.w3.org/2000/svg">
<circle cx="62.249" cy="74.0454" r="20.5" fill="#E56E90" stroke="black"/>
<circle cx="235.249" cy="74.0454" r="20.5" fill="#E56E90" stroke="black"/>
<path d="M132.247 12.5453L130.747 9.04527C170.747 1.04538 192.247 1.54541 231.247 13.0454L227.747 17.5454C207.747 9.54532 189.747 8.54532 173.747 8.04539C171.247 7.54539 167.247 7.54535 164.747 8.04527C154.747 8.04539 142.747 9.54539 132.247 12.5453Z" fill="#E56E90" stroke="black" stroke-width="0.5"/>
<path d="M130.747 9.04545L130.247 7.54545C166.247 -3.45459 198.747 0.545284 234.247 9.54546L231.247 13.0455C191.247 0.54541 165.247 2.04541 130.747 9.04545Z" fill="#E56E90" stroke="black" stroke-width="0.5"/>
<path d="M130.747 9.04552C182.247 -2.4545 210.747 7.54553 231.247 13.0455" stroke="black" stroke-width="0.5"/>
<path d="M170.249 30.0454L173.749 8.04541C207.249 9.04541 218.749 14.5454 223.249 16.0454L225.732 28.0454C198.742 28.046 181.247 29.5455 170.249 30.0454Z" fill="#E56E90"/>
<path d="M226.249 30.5454L223.249 16.0454C218.749 14.5454 207.249 9.04541 173.749 8.04541L170.249 30.0454C181.249 29.5454 198.749 28.0454 225.749 28.0454" stroke="black" stroke-width="0.5"/>
<path d="M164.749 8.04541C131.749 9.04541 111.749 18.0454 92.749 35.5454L95.249 33.5454L159.249 30.5454L164.749 8.04541Z" fill="#E56E90" stroke="black" stroke-width="0.5"/>
<path d="M239.247 22.5454C235.58 19.8787 229.747 17.5454 223.247 16.0454L225.747 28.0454H232.247C235.247 26.5454 238.247 24.3141 239.247 22.5454Z" fill="#E56E90" stroke="black" stroke-width="0.5"/>
<path d="M96.249 78.5454H163.249L197.749 77.0454H212.249L212.749 82.5454H198.749H97.749H86.249V78.5454H96.249Z" fill="#E56E90"/>
<path d="M96.249 78.5454H163.249L197.749 77.0454M96.249 78.5454C96.249 80.0454 96.749 81.0454 97.749 82.5454M96.249 78.5454H86.249V82.5454H97.749M197.749 77.0454L198.749 82.5454M197.749 77.0454H212.249L212.749 82.5454H198.749M198.749 82.5454H97.749" stroke="black" stroke-width="0.5"/>
<path d="M96.2482 78.5454C91.749 74.0454 88.7491 52.0454 92.7482 35.5454L164.749 31.5454C160.749 36.5454 159.749 70.5454 163.249 78.5454H96.2482Z" fill="#E56E90" stroke="black" stroke-width="0.5"/>
<path d="M228.249 30.5454L164.749 31.5454C160.749 36.5454 159.749 70.5454 163.249 78.5454L197.749 77.0454C202.249 75.5454 208.749 70.0454 228.249 30.5454Z" fill="#E56E90" stroke="black" stroke-width="0.5"/>
<path d="M170.249 30.0455C165.749 30.5455 162.249 30.5455 159.249 30.5455L164.749 8.04548C167.749 7.54541 170.749 7.54541 173.749 8.04548L170.249 30.0455Z" fill="#E56E90" stroke="black" stroke-width="0.5"/>
<path d="M98.749 32.0457C103.249 37.5457 110.249 34.0457 114.249 32.5457C115.249 17.0455 102.249 25.0455 98.749 32.0457Z" fill="#E56E90" stroke="black" stroke-width="0.5"/>
<path d="M234.247 9.54541L231.247 13.0454C248.247 18.5454 258.747 21.5454 271.247 28.0454H272.747L280.747 26.5454C265.747 20.0454 258.247 17.5454 234.247 9.54541Z" fill="#E0426F" stroke="black" stroke-width="0.5"/>
<path d="M271.247 28.0454C260.747 22.5454 241.747 16.0454 231.247 13.0454L229.247 15.5454L244.247 23.0454C242.747 25.5454 238.747 27.5454 232.747 30.2454C244.747 29.5454 261.747 28.5454 271.247 28.0454Z" fill="#E0426F" stroke="black" stroke-width="0.5"/>
<path d="M276.749 34.3454L282.747 32.0454L272.248 28.0454L228.248 30.5454C220.748 45.5454 205.748 76.0454 197.748 77.0454H212.248C210.748 66.0454 220.248 42.5454 245.249 51.5454C255.749 46.0454 265.749 40.5454 276.749 34.3454Z" fill="#E0426F" stroke="black" stroke-width="0.5"/>
<path d="M277.747 34.0454C265.747 40.5454 255.747 46.0454 245.247 51.5454C249.747 54.5454 260.247 60.5454 259.247 79.5454L284.247 79.0454V77.5454C292.747 76.5454 301.247 80.0454 299.747 66.0454L301.747 56.0454C301.747 54.5454 299.247 50.5454 296.747 50.0454C298.247 47.5454 295.247 38.5454 295.247 38.5454V37.0454L291.247 34.0454L286.247 32.5454L282.747 32.0454L277.747 34.0454Z" fill="#E0426F" stroke="black" stroke-width="0.5"/>
<path d="M280.747 26.5454L272.247 28.0454L282.747 32.0454C292.247 33.0454 291.246 34.5454 295.241 36.9656L294.747 28.5454L280.747 26.5454Z" fill="#E0426F"/>
<path d="M295.247 37.0454L295.241 36.9656M295.241 36.9656L294.747 28.5454L280.747 26.5454L272.247 28.0454L282.747 32.0454C292.247 33.0454 291.246 34.5454 295.241 36.9656Z" stroke="black" stroke-width="0.5"/>
<path d="M293.749 36.5456C293.249 34.0455 282.249 33.8454 276.749 34.3454" stroke="black" stroke-width="0.5"/>
<path d="M299.749 66.5454L260.249 68.5454C259.749 63.5454 257.582 59.3787 255.749 57.5454L301.749 55.0454M300.249 52.5454C289.249 51.0454 278.249 46.2454 266.249 40.2454M228.249 30.5454L272.249 28.0454L280.749 26.5454" stroke="black" stroke-width="0.5"/>
<path d="M290.249 40.5454C290.249 38.5454 289.249 34.5454 285.749 32.5454C287.97 32.5454 291.347 33.5858 293.858 35.9554C294.322 37.4854 293.249 41.0454 290.207 42.5454C290.194 41.9551 290.249 41.2697 290.249 40.5454Z" fill="#E0426F"/>
<path d="M272.249 43.0454C279.245 43.3952 285.262 43.5003 290.642 44.0454M297.249 45.0454C295.146 44.5948 292.953 44.2795 290.642 44.0454M295.249 37.5454C294.831 36.9603 294.362 36.4311 293.858 35.9554M290.642 44.0454C290.316 43.7006 290.222 43.1776 290.207 42.5454M290.207 42.5454C290.194 41.9551 290.249 41.2697 290.249 40.5454C290.249 38.5454 289.249 34.5454 285.749 32.5454C287.97 32.5454 291.347 33.5858 293.858 35.9554M290.207 42.5454C293.249 41.0454 294.322 37.4854 293.858 35.9554" stroke="black" stroke-width="0.5"/>
<path d="M290.249 40.5454C285.749 40.5454 283.749 36.5454 282.749 34.0454" stroke="black" stroke-width="0.5"/>
<path d="M132.247 12.6454C118.747 16.6454 106.747 22.5454 92.7471 35.5454C99.7471 23.5454 115.247 14.0454 130.747 9.04541L132.247 12.6454Z" fill="#EDADBF" stroke="black" stroke-width="0.5"/>
<path d="M130.747 9.04541C110.747 14.7194 92.7471 32.0454 84.7471 30.0454C97.7471 20.5454 113.747 12.0454 130.247 7.54541L130.747 9.04541Z" fill="#EDADBF" stroke="black" stroke-width="0.5"/>
<path d="M9.74774 48.0453H3.74774C1.24707 52.0453 1.24707 62.0453 1.74774 65.5453C0.24707 66.5453 0.247668 71.0453 1.24774 72.5453L5.24774 73.0453V74.5453L1.24774 76.5453V78.5453C5.24774 79.5453 13.7477 81.5453 21.7477 81.0453V79.5453H39.2477C38.5811 71.0453 40.2477 60.5453 49.2477 53.5453C46.7477 49.5453 39.7477 45.0453 36.7477 44.5453C26.7477 43.5453 11.7477 46.0453 9.74774 48.0453Z" fill="#EDADBF" stroke="black" stroke-width="0.5"/>
<path d="M92.749 35.5454C74.9157 36.3787 43.249 41.2454 32.749 44.2454L36.749 44.5454C41.749 46.0454 47.249 50.3787 49.249 53.5454C62.248 44.0454 87.748 51.0454 86.248 78.5454H96.248C89.248 67.5454 90.248 45.5454 92.749 35.5454Z" fill="#EDADBF" stroke="black" stroke-width="0.5"/>
<path d="M9.74707 48.0455H3.74707C36.2473 28.5454 58.2473 34.5454 84.2471 30.0454L93.2473 35.5454C76.2473 36.5454 47.2471 40.0454 33.2471 44.2454C25.2471 44.0454 11.2471 46.0454 9.74707 48.0455Z" fill="#EDADBF" stroke="black" stroke-width="0.5"/>
<path d="M36.7485 44.5455C29.2485 43.5454 12.2485 45.5454 9.74852 48.0455C8.94852 50.4454 12.0819 53.3787 13.7485 54.5454C23.2485 56.0454 36.7485 50.0454 36.7485 44.5455Z" fill="#EDADBF" stroke="black" stroke-width="0.5"/>
<path d="M3.74777 48.0454C10.7478 49.0454 4.74777 59.5454 1.74777 64.5454C1.2477 57.5454 1.74756 52.0454 3.74777 48.0454Z" fill="#EDADBF" stroke="black" stroke-width="0.5"/>
<path d="M21.7471 84.0454V79.5454H39.2471L39.7471 84.0454H21.7471Z" fill="#EDADBF" stroke="black" stroke-width="0.5"/>
<path d="M2.24902 65.5454C3.74902 68.0454 5.74902 71.2121 5.24902 73.0454M21.749 79.5454C11.249 80.0454 6.74902 76.0454 7.74902 72.5454C8.24902 72.0454 9.74902 70.5454 10.749 70.5454" stroke="black" stroke-width="0.5"/>
<path d="M31.749 74.5455C29.249 70.5455 23.749 65.5456 20.749 64.0456C18.999 63.5456 16.3739 63.6706 13.6238 64.0456C11.9989 65.3789 10.749 68.5455 11.249 71.5455C11.249 72.7122 12.5564 75.0455 15.249 75.0455C19.749 75.0455 26.749 75.5455 31.749 74.5455Z" fill="#EDADBF"/>
<path d="M5.74902 65.5456C7.99897 65.0456 10.8739 64.4206 13.6238 64.0456M13.6238 64.0456C16.3739 63.6706 18.999 63.5456 20.749 64.0456C23.749 65.5456 29.249 70.5455 31.749 74.5455C26.749 75.5455 19.749 75.0455 15.249 75.0455C12.5564 75.0455 11.249 72.7122 11.249 71.5455C10.749 68.5455 11.9989 65.3789 13.6238 64.0456Z" stroke="black" stroke-width="0.5"/>
<path d="M11.249 71.0456C19.249 69.5457 22.749 72.1741 25.749 73.6741M12.749 74.0457L30.249 73.5457" stroke="black" stroke-width="0.5"/>
<path d="M21.7471 82.5454H31.2471C33.2471 82.5454 34.7471 80.5454 34.2471 79.5454M37.7471 79.5454V84.0454" stroke="black" stroke-width="0.5"/>
<path d="M21.749 81.0457C17.249 81.0457 12.749 81.5457 1.24897 78.5457V76.5457L5.24897 74.5456V73.0457L1.24897 72.5457C0.748047 71.0454 -0.251757 68.0454 1.74824 65.5454C1.24848 57.5454 1.74848 51.0454 3.74897 48.0452C36.249 28.5455 58.249 34.5456 84.249 30.0456C162.249 -24.9545 244.249 12.0454 281.249 26.5456L294.749 28.5454L295.249 35.5454V38.5454C296.747 43.5454 298.082 48.0454 296.749 50.0454C299.249 51.0454 301.749 54.2121 301.749 56.0454L299.749 66.0454C300.201 76.8933 297.793 77.1176 288.461 77.43C287.47 77.4632 285.401 77.4974 284.249 77.5454V79.0454L259.249 79.4764M21.749 81.0457V84.0457H39.7473L39.249 79.5457M21.749 81.0457V79.5457H39.249M39.249 79.5457C36.249 38.0457 89.749 41.0457 86.249 80.0457V82.5454H212.749C206.749 39.0454 261.249 39.0454 259.249 79.4764M258.747 79.4764H259.249" stroke="black"/>
</svg>
