<svg width="303" height="95" viewBox="0 0 303 95" fill="none" xmlns="http://www.w3.org/2000/svg">
<circle cx="62.8955" cy="73.8762" r="20.5" fill="#EFC7D3" stroke="black"/>
<circle cx="235.896" cy="73.8762" r="20.5" fill="#EFC7D3" stroke="black"/>
<path d="M132.894 12.3761L131.394 8.87608C171.394 0.876188 192.894 1.37622 231.894 12.8762L228.394 17.3762C208.394 9.37613 190.394 8.37613 174.394 7.8762C171.894 7.3762 167.894 7.37616 165.394 7.87608C155.394 7.8762 143.394 9.3762 132.894 12.3761Z" fill="#E56E90" stroke="black" stroke-width="0.5"/>
<path d="M131.394 8.87627L130.894 7.37626C166.894 -3.62378 199.394 0.376095 234.894 9.37627L231.894 12.8763C191.894 0.376221 165.894 1.87622 131.394 8.87627Z" fill="#E56E90" stroke="black" stroke-width="0.5"/>
<path d="M131.394 8.87609C182.894 -2.62394 211.394 7.3761 231.894 12.8761" stroke="black" stroke-width="0.5"/>
<path d="M170.896 29.8762L174.396 7.87622C207.896 8.87622 219.396 14.3762 223.896 15.8762L226.378 27.8762C199.388 27.8769 181.893 29.3763 170.896 29.8762Z" fill="#E56E90"/>
<path d="M226.896 30.3762L223.896 15.8762C219.396 14.3762 207.896 8.87622 174.396 7.87622L170.896 29.8762C181.896 29.3762 199.396 27.8762 226.396 27.8762" stroke="black" stroke-width="0.5"/>
<path d="M165.396 7.87622C132.396 8.87622 112.396 17.8762 93.3955 35.3762L95.8955 33.3762L159.896 30.3762L165.396 7.87622Z" fill="#E56E90" stroke="black" stroke-width="0.5"/>
<path d="M239.894 22.3762C236.227 19.7096 230.394 17.3762 223.894 15.8762L226.394 27.8762H232.894C235.894 26.3762 238.894 24.145 239.894 22.3762Z" fill="#E56E90" stroke="black" stroke-width="0.5"/>
<path d="M96.8955 78.3762H163.896L198.396 76.8762H212.896L213.396 82.3762H199.396H98.3955H86.8955V78.3762H96.8955Z" fill="#E56E90"/>
<path d="M96.8955 78.3762H163.896L198.396 76.8762M96.8955 78.3762C96.8955 79.8762 97.3955 80.8762 98.3955 82.3762M96.8955 78.3762H86.8955V82.3762H98.3955M198.396 76.8762L199.396 82.3762M198.396 76.8762H212.896L213.396 82.3762H199.396M199.396 82.3762H98.3955" stroke="black" stroke-width="0.5"/>
<path d="M96.8946 78.3762C92.3955 73.8762 89.3956 51.8762 93.3946 35.3762L165.396 31.3762C161.396 36.3762 160.396 70.3762 163.896 78.3762H96.8946Z" fill="#E56E90" stroke="black" stroke-width="0.5"/>
<path d="M228.895 30.3762L165.395 31.3762C161.396 36.3762 160.396 70.3762 163.895 78.3762L198.395 76.8762C202.895 75.3762 209.395 69.8762 228.895 30.3762Z" fill="#E56E90" stroke="black" stroke-width="0.5"/>
<path d="M170.896 29.8763C166.396 30.3763 162.896 30.3763 159.896 30.3763L165.396 7.87629C168.396 7.37622 171.396 7.37622 174.396 7.87629L170.896 29.8763Z" fill="#E56E90" stroke="black" stroke-width="0.5"/>
<path d="M99.3955 31.8762C103.896 37.3762 110.896 33.8762 114.896 32.3762C115.896 16.8761 102.896 24.8761 99.3955 31.8762Z" fill="#E56E90" stroke="black" stroke-width="0.5"/>
<path d="M234.894 9.37622L231.894 12.8762C248.894 18.3762 259.394 21.3762 271.894 27.8762H273.394L281.394 26.3762C266.394 19.8762 258.894 17.3762 234.894 9.37622Z" stroke="black" stroke-width="0.5"/>
<path d="M271.894 27.8762C261.394 22.3762 242.394 15.8762 231.894 12.8762L229.894 15.3762L244.894 22.8762C243.394 25.3762 239.394 27.3762 233.394 30.0762C245.394 29.3762 262.394 28.3762 271.894 27.8762Z" stroke="black" stroke-width="0.5"/>
<path d="M277.396 34.1762L283.394 31.8762L272.895 27.8762L228.895 30.3762C221.395 45.3762 206.395 75.8762 198.395 76.8762H212.895C211.395 65.8762 220.895 42.3762 245.896 51.3762C256.396 45.8762 266.396 40.3762 277.396 34.1762Z" stroke="black" stroke-width="0.5"/>
<path d="M278.394 33.8762C266.394 40.3762 256.394 45.8762 245.894 51.3762C250.394 54.3762 260.894 60.3762 259.894 79.3762L284.894 78.8762V77.3762C293.394 76.3762 301.894 79.8762 300.394 65.8762L302.394 55.8762C302.394 54.3762 299.894 50.3762 297.394 49.8762C298.894 47.3762 295.894 38.3762 295.894 38.3762V36.8762L291.894 33.8762L286.894 32.3762L283.394 31.8762L278.394 33.8762Z" stroke="black" stroke-width="0.5"/>
<path d="M295.894 36.8762L295.888 36.7964M295.888 36.7964L295.394 28.3762L281.394 26.3762L272.894 27.8762L283.394 31.8762C292.894 32.8762 291.892 34.3762 295.888 36.7964Z" stroke="black" stroke-width="0.5"/>
<path d="M294.396 36.3764C293.896 33.8763 282.896 33.6762 277.396 34.1762" stroke="black" stroke-width="0.5"/>
<path d="M300.396 66.3762L260.896 68.3762C260.396 63.3762 258.229 59.2096 256.396 57.3762L302.396 54.8762M300.896 52.3762C289.896 50.8762 278.896 46.0762 266.896 40.0762M228.896 30.3762L272.896 27.8762L281.396 26.3762" stroke="black" stroke-width="0.5"/>
<path d="M272.896 42.8762C279.891 43.226 285.908 43.3311 291.289 43.8762M297.896 44.8762C295.793 44.4256 293.599 44.1103 291.289 43.8762M295.896 37.3762C295.478 36.7911 295.008 36.2619 294.504 35.7862M291.289 43.8762C290.962 43.5315 290.868 43.0084 290.854 42.3762M290.854 42.3762C290.84 41.7859 290.896 41.1005 290.896 40.3762C290.896 38.3762 289.896 34.3762 286.396 32.3762C288.616 32.3762 291.993 33.4166 294.504 35.7862M290.854 42.3762C293.896 40.8762 294.968 37.3162 294.504 35.7862" stroke="black" stroke-width="0.5"/>
<path d="M290.896 40.3762C286.396 40.3762 284.396 36.3762 283.396 33.8762" stroke="black" stroke-width="0.5"/>
<path d="M132.894 12.4762C119.394 16.4762 107.394 22.3762 93.394 35.3762C100.394 23.3762 115.894 13.8762 131.394 8.87622L132.894 12.4762Z" fill="#EFC7D3" stroke="black" stroke-width="0.5"/>
<path d="M131.394 8.87622C111.394 14.5503 93.394 31.8762 85.394 29.8762C98.394 20.3762 114.394 11.8762 130.894 7.37622L131.394 8.87622Z" fill="#EFC7D3" stroke="black" stroke-width="0.5"/>
<path d="M10.3947 47.8761H4.39471C1.89404 51.8761 1.89404 61.8761 2.39471 65.3761C0.894043 66.3761 0.89464 70.8761 1.89471 72.3761L5.89471 72.8761V74.3761L1.89471 76.3761V78.3761C5.89471 79.3761 14.3947 81.3761 22.3947 80.8761V79.3761H39.8947C39.228 70.8761 40.8947 60.3761 49.8947 53.3761C47.3947 49.3761 40.3947 44.8761 37.3947 44.3761C27.3947 43.3761 12.3947 45.8761 10.3947 47.8761Z" fill="#EFC7D3" stroke="black" stroke-width="0.5"/>
<path d="M93.3955 35.3762C75.5622 36.2096 43.8955 41.0762 33.3955 44.0762L37.3955 44.3762C42.3955 45.8762 47.8955 50.2096 49.8955 53.3762C62.8945 43.8762 88.3945 50.8762 86.8945 78.3762H96.8945C89.8945 67.3762 90.8945 45.3762 93.3955 35.3762Z" fill="#EFC7D3" stroke="black" stroke-width="0.5"/>
<path d="M10.3936 47.8763H4.39355C36.8937 28.3762 58.8938 34.3762 84.8936 29.8762L93.8938 35.3762C76.8938 36.3762 47.8936 39.8762 33.8936 44.0762C25.8936 43.8762 11.8936 45.8762 10.3936 47.8763Z" fill="#EFC7D3" stroke="black" stroke-width="0.5"/>
<path d="M37.3955 44.3763C29.8955 43.3762 12.8955 45.3762 10.3955 47.8763C9.5955 50.2762 12.7288 53.2096 14.3955 54.3762C23.8955 55.8762 37.3955 49.8762 37.3955 44.3763Z" fill="#EFC7D3" stroke="black" stroke-width="0.5"/>
<path d="M4.39474 47.8762C11.3947 48.8762 5.39474 59.3762 2.39474 64.3762C1.89467 57.3762 2.39453 51.8762 4.39474 47.8762Z" fill="#EFC7D3" stroke="black" stroke-width="0.5"/>
<path d="M22.394 83.8762V79.3762H39.894L40.394 83.8762H22.394Z" fill="#EFC7D3" stroke="black" stroke-width="0.5"/>
<path d="M2.89551 65.376C4.39551 67.876 6.39551 71.0426 5.89551 72.876M22.3955 79.376C11.8955 79.876 7.39551 75.876 8.39551 72.376C8.89551 71.876 10.3955 70.376 11.3955 70.376" stroke="black" stroke-width="0.5"/>
<path d="M32.3955 74.3761C29.8955 70.3761 24.3955 65.3762 21.3955 63.8762C19.6455 63.3762 17.0204 63.5012 14.2703 63.8762C12.6454 65.2095 11.3955 68.3761 11.8955 71.3761C11.8955 72.5428 13.2029 74.8761 15.8955 74.8761C20.3955 74.8761 27.3955 75.3761 32.3955 74.3761Z" fill="#EFC7D3"/>
<path d="M6.39551 65.3762C8.64545 64.8762 11.5204 64.2512 14.2703 63.8762M14.2703 63.8762C17.0204 63.5012 19.6455 63.3762 21.3955 63.8762C24.3955 65.3762 29.8955 70.3761 32.3955 74.3761C27.3955 75.3761 20.3955 74.8761 15.8955 74.8761C13.2029 74.8761 11.8955 72.5428 11.8955 71.3761C11.3955 68.3761 12.6454 65.2095 14.2703 63.8762Z" stroke="black" stroke-width="0.5"/>
<path d="M11.8955 70.8762C19.8955 69.3762 23.3955 72.0047 26.3955 73.5047M13.3955 73.8762L30.8955 73.3762" stroke="black" stroke-width="0.5"/>
<path d="M22.3936 82.376H31.8936C33.8936 82.376 35.3936 80.376 34.8936 79.376M38.3936 79.376V83.876" stroke="black" stroke-width="0.5"/>
<path d="M22.3955 80.8765C17.8955 80.8765 13.3955 81.3765 1.89545 78.3765V76.3765L5.89545 74.3765V72.8765L1.89545 72.3765C1.39453 70.8762 0.394727 67.8762 2.39472 65.3762C1.89497 57.3762 2.39497 50.8762 4.39545 47.876C36.8955 28.3764 58.8954 34.3764 84.8954 29.8764C162.895 -25.1237 244.895 11.8762 281.895 26.3764L295.395 28.3762L295.895 35.3762V38.3762C297.394 43.3762 298.729 47.8762 297.395 49.8762C299.895 50.8762 302.395 54.0429 302.395 55.8762L300.395 65.8762C300.847 76.7241 298.439 76.9484 289.108 77.2609C288.117 77.294 286.048 77.3282 284.895 77.3762V78.8762L259.895 79.3073M22.3955 80.8765V83.8765H40.3938L39.8955 79.3765M22.3955 80.8765V79.3765H39.8955M39.8955 79.3765C36.8955 37.8765 90.3954 40.8765 86.8954 79.8765V82.3762H213.395C207.395 38.8762 261.895 38.8762 259.895 79.3073M259.394 79.3073H259.895" stroke="black"/>
</svg>
