<svg width="303" height="96" viewBox="0 0 303 96" fill="none" xmlns="http://www.w3.org/2000/svg">
<circle cx="62.4897" cy="74.0151" r="20.5" fill="#E0426F" stroke="black"/>
<circle cx="235.49" cy="74.0151" r="20.5" fill="#E0426F" stroke="black"/>
<path d="M132.488 12.515L130.988 9.01499C170.988 1.0151 192.488 1.51514 231.488 13.0151L227.988 17.5151C207.988 9.51505 189.988 8.51505 173.988 8.01511C171.488 7.51511 167.488 7.51508 164.988 8.01499C154.988 8.01511 142.988 9.51511 132.488 12.515Z" fill="#EFC7D3" stroke="black" stroke-width="0.5"/>
<path d="M130.988 9.01518L130.488 7.51518C166.488 -3.48486 198.988 0.515011 234.488 9.51518L231.488 13.0152C191.488 0.515137 165.488 2.01514 130.988 9.01518Z" fill="#EFC7D3" stroke="black" stroke-width="0.5"/>
<path d="M130.988 9.01512C182.488 -2.4849 210.988 7.51514 231.488 13.0151" stroke="black" stroke-width="0.5"/>
<path d="M170.49 30.0151L173.99 8.01514C207.49 9.01514 218.99 14.5151 223.49 16.0151L225.973 28.0151C198.982 28.0158 181.487 29.5152 170.49 30.0151Z" fill="#EFC7D3"/>
<path d="M226.49 30.5151L223.49 16.0151C218.99 14.5151 207.49 9.01514 173.99 8.01514L170.49 30.0151C181.49 29.5151 198.99 28.0151 225.99 28.0151" stroke="black" stroke-width="0.5"/>
<path d="M164.99 8.01514C131.99 9.01514 111.99 18.0151 92.9897 35.5151L95.4897 33.5151L159.49 30.5151L164.99 8.01514Z" fill="#EFC7D3" stroke="black" stroke-width="0.5"/>
<path d="M239.488 22.5151C235.822 19.8485 229.988 17.5151 223.488 16.0151L225.988 28.0151H232.488C235.488 26.5151 238.488 24.2839 239.488 22.5151Z" fill="#EFC7D3" stroke="black" stroke-width="0.5"/>
<path d="M96.4897 78.5151H163.49L197.99 77.0151H212.49L212.99 82.5151H198.99H97.9897H86.4897V78.5151H96.4897Z" fill="#EFC7D3"/>
<path d="M96.4897 78.5151H163.49L197.99 77.0151M96.4897 78.5151C96.4897 80.0151 96.9897 81.0151 97.9897 82.5151M96.4897 78.5151H86.4897V82.5151H97.9897M197.99 77.0151L198.99 82.5151M197.99 77.0151H212.49L212.99 82.5151H198.99M198.99 82.5151H97.9897" stroke="black" stroke-width="0.5"/>
<path d="M96.4889 78.5151C91.9897 74.0151 88.9898 52.0151 92.9889 35.5151L164.99 31.5151C160.99 36.5151 159.99 70.5151 163.49 78.5151H96.4889Z" fill="#EFC7D3" stroke="black" stroke-width="0.5"/>
<path d="M228.489 30.5151L164.989 31.5151C160.989 36.5151 159.99 70.5151 163.489 78.5151L197.989 77.0151C202.489 75.5151 208.989 70.0151 228.489 30.5151Z" fill="#EFC7D3" stroke="black" stroke-width="0.5"/>
<path d="M170.49 30.0152C165.99 30.5152 162.49 30.5152 159.49 30.5152L164.99 8.01521C167.99 7.51514 170.99 7.51514 173.99 8.01521L170.49 30.0152Z" fill="#EFC7D3" stroke="black" stroke-width="0.5"/>
<path d="M98.9897 32.0153C103.49 37.5153 110.49 34.0153 114.49 32.5153C115.49 17.0152 102.49 25.0151 98.9897 32.0153Z" fill="#EFC7D3" stroke="black" stroke-width="0.5"/>
<path d="M234.488 9.51514L231.488 13.0151C248.488 18.5151 258.988 21.5151 271.488 28.0151H272.988L280.988 26.5151C265.988 20.0151 258.488 17.5151 234.488 9.51514Z" stroke="black" stroke-width="0.5"/>
<path d="M271.488 28.0151C260.988 22.5151 241.988 16.0151 231.488 13.0151L229.488 15.5151L244.488 23.0151C242.988 25.5151 238.988 27.5151 232.988 30.2151C244.988 29.5151 261.988 28.5151 271.488 28.0151Z" stroke="black" stroke-width="0.5"/>
<path d="M276.99 34.3151L282.988 32.0151L272.489 28.0151L228.489 30.5151C220.989 45.5151 205.989 76.0151 197.989 77.0151H212.489C210.989 66.0151 220.489 42.5151 245.49 51.5151C255.99 46.0151 265.99 40.5151 276.99 34.3151Z" stroke="black" stroke-width="0.5"/>
<path d="M277.988 34.0152C265.988 40.5152 255.988 46.0152 245.488 51.5152C249.988 54.5151 260.488 60.5151 259.488 79.5151L284.488 79.0151V77.5151C292.988 76.5151 301.488 80.0151 299.988 66.0151L301.988 56.0151C301.988 54.5151 299.488 50.5151 296.988 50.0151C298.488 47.5151 295.488 38.5151 295.488 38.5151V37.0151L291.488 34.0151L286.488 32.5151L282.988 32.0151L277.988 34.0152Z" stroke="black" stroke-width="0.5"/>
<path d="M295.488 37.0151L295.482 36.9353M295.482 36.9353L294.988 28.5151L280.988 26.5151L272.488 28.0151L282.988 32.0151C292.488 33.0151 291.487 34.5151 295.482 36.9353Z" stroke="black" stroke-width="0.5"/>
<path d="M293.99 36.5153C293.49 34.0152 282.49 33.8151 276.99 34.3151" stroke="black" stroke-width="0.5"/>
<path d="M299.99 66.5151L260.49 68.5151C259.99 63.5151 257.823 59.3485 255.99 57.5151L301.99 55.0151M300.49 52.5151C289.49 51.0151 278.49 46.2151 266.49 40.2151M228.49 30.5151L272.49 28.0151L280.99 26.5151" stroke="black" stroke-width="0.5"/>
<path d="M272.49 43.0151C279.485 43.3649 285.502 43.47 290.883 44.0151M297.49 45.0151C295.387 44.5645 293.194 44.2492 290.883 44.0151M295.49 37.5151C295.072 36.93 294.603 36.4008 294.099 35.9251M290.883 44.0151C290.557 43.6704 290.463 43.1473 290.448 42.5151M290.448 42.5151C290.434 41.9249 290.49 41.2394 290.49 40.5151C290.49 38.5151 289.49 34.5151 285.99 32.5151C288.211 32.5151 291.587 33.5555 294.099 35.9251M290.448 42.5151C293.49 41.0151 294.562 37.4551 294.099 35.9251" stroke="black" stroke-width="0.5"/>
<path d="M290.49 40.5151C285.99 40.5151 283.99 36.5151 282.99 34.0151" stroke="black" stroke-width="0.5"/>
<path d="M132.488 12.6151C118.988 16.6151 106.988 22.5151 92.9883 35.5151C99.9883 23.5151 115.488 14.0151 130.988 9.01514L132.488 12.6151Z" stroke="black" stroke-width="0.5"/>
<path d="M130.988 9.01514C110.988 14.6892 92.9883 32.0151 84.9883 30.0151C97.9883 20.5151 113.988 12.0151 130.488 7.51514L130.988 9.01514Z" stroke="black" stroke-width="0.5"/>
<path d="M9.98895 48.0151H3.98895C1.48828 52.0151 1.48828 62.0151 1.98895 65.5151C0.488281 66.5151 0.488879 71.0151 1.48895 72.5151L5.48895 73.0151V74.5151L1.48895 76.5151V78.5151C5.48895 79.5151 13.9889 81.5151 21.9889 81.0151V79.5151H39.4889C38.8223 71.0151 40.4889 60.5151 49.4889 53.5151C46.9889 49.5151 39.9889 45.0151 36.9889 44.5151C26.9889 43.5151 11.9889 46.0151 9.98895 48.0151Z" stroke="black" stroke-width="0.5"/>
<path d="M92.9897 35.5151C75.1564 36.3485 43.4897 41.2151 32.9897 44.2151L36.9897 44.5151C41.9897 46.0151 47.4897 50.3485 49.4897 53.5151C62.4888 44.0151 87.9888 51.0151 86.4888 78.5151H96.4888C89.4888 67.5151 90.4888 45.5151 92.9897 35.5151Z" stroke="black" stroke-width="0.5"/>
<path d="M9.98828 48.0152H3.98828C36.4885 28.5151 58.4885 34.5151 84.4883 30.0151L93.4885 35.5151C76.4885 36.5151 47.4883 40.0151 33.4883 44.2151C25.4883 44.0151 11.4883 46.0151 9.98828 48.0152Z" stroke="black" stroke-width="0.5"/>
<path d="M36.9897 44.5152C29.4897 43.5151 12.4897 45.5151 9.98974 48.0152C9.18974 50.4152 12.3231 53.3485 13.9897 54.5151C23.4897 56.0151 36.9897 50.0151 36.9897 44.5152Z" stroke="black" stroke-width="0.5"/>
<path d="M3.98898 48.0151C10.989 49.0151 4.98898 59.5151 1.98898 64.5151C1.48891 57.5151 1.98877 52.0151 3.98898 48.0151Z" stroke="black" stroke-width="0.5"/>
<path d="M21.9883 84.0151V79.5151H39.4883L39.9883 84.0151H21.9883Z" stroke="black" stroke-width="0.5"/>
<path d="M2.49023 65.5151C3.99023 68.0151 5.99023 71.1818 5.49023 73.0151M21.9902 79.5151C11.4902 80.0151 6.99023 76.0151 7.99023 72.5151C8.49023 72.0151 9.99023 70.5151 10.9902 70.5151" stroke="black" stroke-width="0.5"/>
<path d="M5.99023 65.5152C8.24018 65.0152 11.1151 64.3902 13.865 64.0152M13.865 64.0152C16.6151 63.6402 19.2402 63.5152 20.9902 64.0152C23.9902 65.5152 29.4902 70.5151 31.9902 74.5151C26.9902 75.5151 19.9902 75.0151 15.4902 75.0151C12.7977 75.0151 11.4902 72.6818 11.4902 71.5151C10.9902 68.5151 12.2401 65.3485 13.865 64.0152Z" stroke="black" stroke-width="0.5"/>
<path d="M11.4902 71.0152C19.4902 69.5153 22.9902 72.1437 25.9902 73.6437M12.9902 74.0153L30.4902 73.5153" stroke="black" stroke-width="0.5"/>
<path d="M21.9883 82.5151H31.4883C33.4883 82.5151 34.9883 80.5151 34.4883 79.5151M37.9883 79.5151V84.0151" stroke="black" stroke-width="0.5"/>
<path d="M21.9897 81.0154C17.4897 81.0154 12.9897 81.5154 1.48969 78.5154V76.5154L5.48969 74.5154V73.0154L1.48969 72.5154C0.98877 71.0151 -0.0110346 68.0151 1.98896 65.5151C1.4892 57.5151 1.9892 51.0151 3.98969 48.0149C36.4897 28.5153 58.4897 34.5153 84.4897 30.0153C162.49 -24.9848 244.49 12.0151 281.49 26.5153L294.99 28.5151L295.49 35.5151V38.5151C296.988 43.5151 298.323 48.0151 296.99 50.0151C299.49 51.0151 301.99 54.1818 301.99 56.0151L299.99 66.0151C300.442 76.863 298.034 77.0873 288.702 77.3998C287.711 77.433 285.642 77.4671 284.49 77.5151V79.0151L259.49 79.4462M21.9897 81.0154V84.0154H39.988L39.4897 79.5154M21.9897 81.0154V79.5154H39.4897M39.4897 79.5154C36.4897 38.0154 89.9897 41.0154 86.4897 80.0154V82.5151H212.99C206.99 39.0151 261.49 39.0151 259.49 79.4462M258.988 79.4462H259.49" stroke="black"/>
</svg>
