<svg width="304" height="96" viewBox="0 0 304 96" fill="none" xmlns="http://www.w3.org/2000/svg">
<circle cx="63.0635" cy="74.5378" r="20.5" fill="#EDADBF" stroke="black"/>
<circle cx="236.063" cy="74.5378" r="20.5" fill="#EDADBF" stroke="black"/>
<path d="M133.062 13.0377L131.562 9.5377C171.562 1.53781 193.062 2.03784 232.062 13.5378L228.562 18.0378C208.562 10.0378 190.562 9.03775 174.562 8.53782C172.062 8.03782 168.062 8.03778 165.562 8.5377C155.562 8.53782 143.562 10.0378 133.062 13.0377Z" fill="#EDADBF" stroke="black" stroke-width="0.5"/>
<path d="M131.562 9.53789L131.062 8.03789C167.062 -2.96216 199.562 1.03772 235.062 10.0379L232.062 13.5379C192.062 1.03784 166.062 2.53784 131.562 9.53789Z" fill="#EDADBF" stroke="black" stroke-width="0.5"/>
<path d="M131.562 9.53771C183.062 -1.96232 211.562 8.03772 232.062 13.5377" stroke="black" stroke-width="0.5"/>
<path d="M171.063 30.5378L174.563 8.53784C208.063 9.53784 219.563 15.0378 224.063 16.5378L226.546 28.5378C199.556 28.5385 182.061 30.0379 171.063 30.5378Z" fill="#EDADBF"/>
<path d="M227.063 31.0378L224.063 16.5378C219.563 15.0378 208.063 9.53784 174.563 8.53784L171.063 30.5378C182.063 30.0378 199.563 28.5378 226.563 28.5378" stroke="black" stroke-width="0.5"/>
<path d="M165.563 8.53784C132.563 9.53784 112.563 18.5378 93.5635 36.0378L96.0635 34.0378L160.063 31.0378L165.563 8.53784Z" fill="#EDADBF" stroke="black" stroke-width="0.5"/>
<path d="M240.062 23.0378C236.395 20.3712 230.562 18.0378 224.062 16.5378L226.562 28.5378H233.062C236.062 27.0378 239.062 24.8066 240.062 23.0378Z" fill="#EDADBF" stroke="black" stroke-width="0.5"/>
<path d="M97.0635 79.0378H164.063L198.563 77.5378H213.063L213.563 83.0378H199.563H98.5635H87.0635V79.0378H97.0635Z" fill="#EDADBF"/>
<path d="M97.0635 79.0378H164.063L198.563 77.5378M97.0635 79.0378C97.0635 80.5378 97.5635 81.5378 98.5635 83.0378M97.0635 79.0378H87.0635V83.0378H98.5635M198.563 77.5378L199.563 83.0378M198.563 77.5378H213.063L213.563 83.0378H199.563M199.563 83.0378H98.5635" stroke="black" stroke-width="0.5"/>
<path d="M97.0626 79.0378C92.5635 74.5378 89.5635 52.5378 93.5626 36.0378L165.563 32.0378C161.563 37.0378 160.563 71.0378 164.063 79.0378H97.0626Z" fill="#EDADBF" stroke="black" stroke-width="0.5"/>
<path d="M229.063 31.0378L165.563 32.0378C161.564 37.0378 160.564 71.0378 164.063 79.0378L198.563 77.5378C203.063 76.0378 209.563 70.5378 229.063 31.0378Z" fill="#EDADBF" stroke="black" stroke-width="0.5"/>
<path d="M171.063 30.5379C166.563 31.0379 163.063 31.0379 160.063 31.0379L165.563 8.53792C168.563 8.03784 171.563 8.03784 174.563 8.53792L171.063 30.5379Z" fill="#EDADBF" stroke="black" stroke-width="0.5"/>
<path d="M99.5635 32.5379C104.063 38.0379 111.063 34.5379 115.063 33.0379C116.063 17.5377 103.063 25.5377 99.5635 32.5379Z" fill="#EDADBF" stroke="black" stroke-width="0.5"/>
<path d="M235.062 10.0378L232.062 13.5378C249.062 19.0378 259.562 22.0378 272.062 28.5378H273.562L281.562 27.0378C266.562 20.5378 259.062 18.0378 235.062 10.0378Z" fill="#E56E90" stroke="black" stroke-width="0.5"/>
<path d="M272.062 28.5378C261.562 23.0378 242.562 16.5378 232.062 13.5378L230.062 16.0378L245.062 23.5378C243.562 26.0378 239.562 28.0378 233.562 30.7378C245.562 30.0378 262.562 29.0378 272.062 28.5378Z" fill="#E56E90" stroke="black" stroke-width="0.5"/>
<path d="M277.563 34.8378L283.562 32.5378L273.062 28.5378L229.062 31.0378C221.562 46.0378 206.562 76.5378 198.562 77.5378H213.062C211.562 66.5378 221.062 43.0378 246.063 52.0378C256.563 46.5378 266.563 41.0378 277.563 34.8378Z" fill="#E56E90" stroke="black" stroke-width="0.5"/>
<path d="M278.562 34.5379C266.562 41.0379 256.562 46.5379 246.062 52.0379C250.562 55.0378 261.062 61.0378 260.062 80.0378L285.062 79.5378V78.0378C293.562 77.0378 302.062 80.5378 300.562 66.5378L302.562 56.5378C302.562 55.0378 300.062 51.0378 297.562 50.5378C299.062 48.0378 296.062 39.0378 296.062 39.0378V37.5378L292.062 34.5378L287.062 33.0378L283.562 32.5378L278.562 34.5379Z" fill="#E56E90" stroke="black" stroke-width="0.5"/>
<path d="M281.562 27.0378L273.062 28.5378L283.562 32.5378C293.062 33.5378 292.06 35.0378 296.056 37.458L295.562 29.0378L281.562 27.0378Z" fill="#E56E90"/>
<path d="M296.062 37.5378L296.056 37.458M296.056 37.458L295.562 29.0378L281.562 27.0378L273.062 28.5378L283.562 32.5378C293.062 33.5378 292.06 35.0378 296.056 37.458Z" stroke="black" stroke-width="0.5"/>
<path d="M294.563 37.038C294.063 34.5379 283.063 34.3379 277.563 34.8379" stroke="black" stroke-width="0.5"/>
<path d="M300.563 67.0378L261.063 69.0378C260.563 64.0378 258.397 59.8712 256.563 58.0378L302.563 55.5378M301.063 53.0378C290.063 51.5378 279.063 46.7378 267.063 40.7378M229.063 31.0378L273.063 28.5378L281.563 27.0378" stroke="black" stroke-width="0.5"/>
<path d="M291.063 41.0378C291.063 39.0378 290.063 35.0378 286.563 33.0378C288.784 33.0378 292.161 34.0782 294.672 36.4478C295.136 37.9778 294.063 41.5378 291.022 43.0378C291.008 42.4476 291.063 41.7621 291.063 41.0378Z" fill="#E56E90"/>
<path d="M273.063 43.5378C280.059 43.8876 286.076 43.9927 291.457 44.5378M298.063 45.5378C295.96 45.0872 293.767 44.7719 291.457 44.5378M296.063 38.0378C295.646 37.4527 295.176 36.9235 294.672 36.4478M291.457 44.5378C291.13 44.1931 291.036 43.67 291.022 43.0378M291.022 43.0378C291.008 42.4476 291.063 41.7621 291.063 41.0378C291.063 39.0378 290.063 35.0378 286.563 33.0378C288.784 33.0378 292.161 34.0782 294.672 36.4478M291.022 43.0378C294.063 41.5378 295.136 37.9778 294.672 36.4478" stroke="black" stroke-width="0.5"/>
<path d="M291.063 41.0378C286.563 41.0378 284.563 37.0378 283.563 34.5378" stroke="black" stroke-width="0.5"/>
<path d="M133.062 13.1378C119.562 17.1378 107.562 23.0378 93.5615 36.0378C100.562 24.0378 116.062 14.5378 131.562 9.53784L133.062 13.1378Z" fill="#E0426F" stroke="black" stroke-width="0.5"/>
<path d="M131.562 9.53784C111.562 15.2119 93.5615 32.5378 85.5615 30.5378C98.5615 21.0378 114.562 12.5378 131.062 8.03784L131.562 9.53784Z" fill="#E0426F" stroke="black" stroke-width="0.5"/>
<path d="M10.5622 48.5377H4.56219C2.06152 52.5377 2.06152 62.5377 2.56219 66.0377C1.06152 67.0377 1.06212 71.5377 2.06219 73.0377L6.06219 73.5377V75.0377L2.06219 77.0377V79.0377C6.06219 80.0377 14.5622 82.0377 22.5622 81.5377V80.0377H40.0622C39.3955 71.5377 41.0622 61.0377 50.0622 54.0377C47.5622 50.0377 40.5622 45.5377 37.5622 45.0377C27.5622 44.0377 12.5622 46.5377 10.5622 48.5377Z" fill="#E0426F" stroke="black" stroke-width="0.5"/>
<path d="M93.5635 36.0378C75.7301 36.8712 44.0635 41.7378 33.5635 44.7378L37.5635 45.0378C42.5635 46.5378 48.0635 50.8712 50.0635 54.0378C63.0625 44.5378 88.5625 51.5378 87.0625 79.0378H97.0625C90.0625 68.0378 91.0625 46.0378 93.5635 36.0378Z" fill="#E0426F" stroke="black" stroke-width="0.5"/>
<path d="M10.5615 48.5379H4.56152C37.0617 29.0378 59.0618 35.0378 85.0615 30.5378L94.0618 36.0378C77.0618 37.0378 48.0615 40.5378 34.0615 44.7378C26.0615 44.5378 12.0615 46.5378 10.5615 48.5379Z" fill="#E0426F" stroke="black" stroke-width="0.5"/>
<path d="M37.563 45.0379C30.063 44.0378 13.063 46.0378 10.563 48.5379C9.76298 50.9379 12.8963 53.8712 14.563 55.0378C24.063 56.5378 37.563 50.5378 37.563 45.0379Z" fill="#E0426F" stroke="black" stroke-width="0.5"/>
<path d="M4.56222 48.5378C11.5622 49.5378 5.56222 60.0378 2.56222 65.0378C2.06215 58.0378 2.56201 52.5378 4.56222 48.5378Z" fill="#E0426F" stroke="black" stroke-width="0.5"/>
<path d="M22.5615 84.5378V80.0378H40.0615L40.5615 84.5378H22.5615Z" fill="#E0426F" stroke="black" stroke-width="0.5"/>
<path d="M3.06348 66.0376C4.56348 68.5376 6.56348 71.7043 6.06348 73.5376M22.5635 80.0376C12.0635 80.5376 7.56348 76.5376 8.56348 73.0376C9.06348 72.5376 10.5635 71.0376 11.5635 71.0376" stroke="black" stroke-width="0.5"/>
<path d="M32.5635 75.0377C30.0635 71.0377 24.5635 66.0378 21.5635 64.5378C19.8134 64.0378 17.1883 64.1628 14.4383 64.5378C12.8133 65.8711 11.5635 69.0377 12.0635 72.0377C12.0635 73.2044 13.3709 75.5377 16.0635 75.5377C20.5635 75.5377 27.5635 76.0377 32.5635 75.0377Z" fill="#E0426F"/>
<path d="M6.56348 66.0378C8.81342 65.5378 11.6883 64.9128 14.4383 64.5378M14.4383 64.5378C17.1883 64.1628 19.8134 64.0378 21.5635 64.5378C24.5635 66.0378 30.0635 71.0377 32.5635 75.0377C27.5635 76.0377 20.5635 75.5377 16.0635 75.5377C13.3709 75.5377 12.0635 73.2044 12.0635 72.0377C11.5635 69.0377 12.8133 65.8711 14.4383 64.5378Z" stroke="black" stroke-width="0.5"/>
<path d="M12.0635 71.5378C20.0635 70.0378 23.5635 72.6663 26.5635 74.1663M13.5635 74.5378L31.0635 74.0378" stroke="black" stroke-width="0.5"/>
<path d="M22.5615 83.0376H32.0615C34.0615 83.0376 35.5615 81.0376 35.0615 80.0376M38.5615 80.0376V84.5376" stroke="black" stroke-width="0.5"/>
<path d="M22.5634 81.5381C18.0634 81.5381 13.5634 82.0381 2.06342 79.0381V77.0381L6.06342 75.0381V73.5381L2.06342 73.0381C1.5625 71.5378 0.562696 68.5378 2.56269 66.0378C2.06293 58.0378 2.56293 51.5378 4.56342 48.5376C37.0634 29.038 59.0634 35.038 85.0634 30.538C163.063 -24.4621 245.063 12.5378 282.063 27.038L295.563 29.0378L296.063 36.0378V39.0378C297.562 44.0378 298.897 48.5378 297.563 50.5378C300.063 51.5378 302.563 54.7045 302.563 56.5378L300.563 66.5378C301.015 77.3858 298.607 77.61 289.276 77.9225C288.285 77.9557 286.216 77.9898 285.063 78.0378V79.5378L260.063 79.9689M22.5634 81.5381V84.5381H40.5618L40.0634 80.0381M22.5634 81.5381V80.0381H40.0634M40.0634 80.0381C37.0634 38.5381 90.5634 41.5381 87.0634 80.5381V83.0378H213.563C207.563 39.5378 262.063 39.5378 260.063 79.9689M259.562 79.9689H260.063" stroke="black"/>
</svg>
