<svg width="286" height="271" viewBox="0 0 286 271" fill="none" xmlns="http://www.w3.org/2000/svg">
<path d="M6 86.5L1 83.5L143 1V7.5L6 86.5Z" fill="#FBD5DC"/>
<path d="M1 188.5V83.5L6 86.5V185.5L1 188.5Z" fill="#EDADBF"/>
<path d="M143 7.5V1L285 83L279.5 86L143 7.5Z" fill="#FBD5DC"/>
<path d="M142.5 106.5L143 7.5L279.5 86.1717V185.5L142.5 106.5Z" fill="#EDADBF"/>
<path d="M6 185.5V86.5L143 7.5L142.5 106.5L6 185.5Z" fill="#EFC7D3"/>
<path d="M279.5 185.5V86L285 83V188L279.5 185.5Z" fill="#EFC7D3"/>
<path d="M6 185.5L1 188.5L143 270V264.5L6 185.5Z" fill="#999999"/>
<path d="M143 270V264.5L279.5 185.5L285 188L143 270Z" fill="#999999"/>
<path d="M143 264.5L6 185.5L143 106.5L279.5 185.5L143 264.5Z" fill="#EFEFEF"/>
<path d="M151 22V111L269 179.5V90L151 22Z" fill="white" stroke="black"/>
<path d="M155.5 108.5L156 25L151 22V111L155.5 108.5Z" fill="#EFEFEF" stroke="black" stroke-width="0.5"/>
<path d="M1 83.5172L143 1M1 83.5172V188.5L143 270M1 83.5172L6 86.5M143 1L285 83.2193M143 1V7.25581M285 83.2193V188L143 270M285 83.2193L279.642 86.1982M143 270V264.5M6 86.5V185.5M6 86.5L143 7.25581M6 185.5L143 264.5M6 185.5L143 106.5M143 264.5L279.5 185.5M279.5 185.5L279.642 86.1982M279.5 185.5L143 106.5M279.642 86.1982L143 7.25581M143 7.25581V106.5" stroke="black"/>
<path d="M155.5 108.5L151 111L269 179.5V174.5L155.5 108.5Z" stroke="black" stroke-width="0.5"/>
<path d="M156 45V25L268.5 90V109.5L156 45Z" fill="#999999" stroke="black" stroke-width="0.5"/>
<path d="M157 40L267 102.5" stroke="black" stroke-width="0.5"/>
<path d="M157 35L267 97.5" stroke="black" stroke-width="0.5"/>
<path d="M157 30L267 92.5" stroke="black" stroke-width="0.5"/>
<path d="M128.214 156V137L157 127.5V147.364L128.214 156Z" fill="#653D41"/>
<path d="M131 141L146 136.532L154.5 134" stroke="black"/>
<path d="M131 146L146 141.532L154.5 139" stroke="black"/>
<path d="M131 151L146 146.532L154.5 144" stroke="black"/>
<path d="M118 145.636V126.636L128.214 137V156L118 145.636Z" fill="#371110"/>
<path d="M128.214 137L118 126.636L146.786 118L157 128L128.214 137Z" fill="#AD4E49"/>
<path d="M118 126.636L128.214 137M118 126.636V145.636L128.214 156M118 126.636L146.786 118L157 128M128.214 137V156M128.214 137L157 128M128.214 156L157 147.364V128" stroke="black" stroke-width="0.5"/>
<path d="M40.8052 169.333V160.472C48.8607 171.75 65.7774 166.111 68.1941 160.472V169.333C67.3885 174.167 46.4441 178.194 40.8052 169.333Z" fill="#453F52"/>
<path d="M40.4995 159V169.5C44.5273 176.75 65.7774 175.778 68.1941 169.333V159.5" stroke="black"/>
<path d="M68.2358 158.861C68.2358 161.068 66.7701 163.147 64.2282 164.7C61.6948 166.248 58.1632 167.222 54.2358 167.222C50.3054 167.222 46.841 166.282 44.3763 164.77C41.9072 163.256 40.5 161.213 40.5 159C40.5 156.782 41.9129 154.669 44.3845 153.086C46.85 151.507 50.3121 150.5 54.2358 150.5C58.1632 150.5 61.6948 151.474 64.2282 153.022C66.7701 154.575 68.2358 156.654 68.2358 158.861Z" fill="#453F52" stroke="black"/>
<path d="M63.6661 158.056C63.6661 159.099 62.8074 160.178 61.1112 161.026C59.4449 161.859 57.108 162.389 54.4994 162.389C51.8908 162.389 49.5539 161.859 47.8877 161.026C46.1915 160.178 45.3328 159.099 45.3328 158.056C45.3328 157.012 46.1915 155.933 47.8877 155.085C49.5539 154.252 51.8908 153.722 54.4994 153.722C57.108 153.722 59.4449 154.252 61.1112 155.085C62.8074 155.933 63.6661 157.012 63.6661 158.056Z" fill="#2D2244" stroke="black"/>
<path d="M59.5 123.5L60 87.5L124.5 51V85.5L59.5 123.5Z" fill="#6D5C57"/>
<path d="M58 122.5V87.0588L122.24 50L124 50.8824L59.76 87.3803L59.5 123.5L58 122.5Z" fill="#453F52"/>
<path d="M59.5 123.5L59.7733 87.6669L124.5 50.8867M59.5 123.5L124.475 85.8279L124.5 50.8867M59.5 123.5L58 122.5V87.24L122.727 50L124.5 50.8867" stroke="black" stroke-width="0.5"/>
<path d="M40.8052 161.333V152.472C48.8607 163.75 65.7774 158.111 68.1941 152.472V161.333C67.3885 166.167 46.4441 170.194 40.8052 161.333Z" fill="#453F52"/>
<path d="M40.4995 151V161.5C44.5 169.5 66 168.5 68.1941 161.333V151.5" stroke="black"/>
<path d="M68.2358 150.861C68.2358 153.068 66.7701 155.147 64.2282 156.7C61.6948 158.248 58.1632 159.222 54.2358 159.222C50.3054 159.222 46.841 158.282 44.3763 156.77C41.9072 155.256 40.5 153.213 40.5 151C40.5 148.782 41.9129 146.669 44.3845 145.086C46.85 143.507 50.3121 142.5 54.2358 142.5C58.1632 142.5 61.6948 143.474 64.2282 145.022C66.7701 146.575 68.2358 148.654 68.2358 150.861Z" fill="#453F52" stroke="black"/>
<path d="M63.6661 150.056C63.6661 151.099 62.8074 152.178 61.1112 153.026C59.4449 153.859 57.108 154.389 54.4994 154.389C51.8908 154.389 49.5539 153.859 47.8877 153.026C46.1915 152.178 45.3328 151.099 45.3328 150.056C45.3328 149.012 46.1915 147.933 47.8877 147.085C49.5539 146.252 51.8908 145.722 54.4994 145.722C57.108 145.722 59.4449 146.252 61.1112 147.085C62.8074 147.933 63.6661 149.012 63.6661 150.056Z" fill="#2D2244" stroke="black"/>
<path d="M40.8052 153.333V144.472C48.8607 155.75 65.7774 150.111 68.1941 144.472V153.333C67.3885 158.167 46.4441 162.194 40.8052 153.333Z" fill="#453F52"/>
<path d="M40.4995 143V153.5C44.5 161.5 65.5 160.5 68.1941 153.333V143.5" stroke="black"/>
<path d="M68.2358 142.861C68.2358 145.068 66.7701 147.147 64.2282 148.7C61.6948 150.248 58.1632 151.222 54.2358 151.222C50.3054 151.222 46.841 150.282 44.3763 148.77C41.9072 147.256 40.5 145.213 40.5 143C40.5 140.782 41.9129 138.669 44.3845 137.086C46.85 135.507 50.3121 134.5 54.2358 134.5C58.1632 134.5 61.6948 135.474 64.2282 137.022C66.7701 138.575 68.2358 140.654 68.2358 142.861Z" fill="#453F52" stroke="black"/>
<path d="M63.6661 142.056C63.6661 143.099 62.8074 144.178 61.1112 145.026C59.4449 145.859 57.108 146.389 54.4994 146.389C51.8908 146.389 49.5539 145.859 47.8877 145.026C46.1915 144.178 45.3328 143.099 45.3328 142.056C45.3328 141.012 46.1915 139.933 47.8877 139.085C49.5539 138.252 51.8908 137.722 54.4994 137.722C57.108 137.722 59.4449 138.252 61.1112 139.085C62.8074 139.933 63.6661 141.012 63.6661 142.056Z" fill="#2D2244" stroke="black"/>
<path d="M86.02 133L82 135.412L92.184 141.04L94.06 145.328L96.74 146.936L97.008 166.5L100.76 163.82L100.492 144.792L97.812 143.184L95.936 138.896L86.02 133Z" fill="#FE8470"/>
<path d="M92.184 141.04L82 135.412V157.656L97.008 166.5L96.74 146.936L94.06 145.328L92.184 141.04Z" fill="#FEAD6D"/>
<path d="M82 135.412L92.184 141.04M82 135.412V157.656L97.008 166.5M82 135.412L86.02 133L95.936 138.896M92.184 141.04L94.06 145.328M92.184 141.04L95.936 138.896M94.06 145.328L96.74 146.936M94.06 145.328L97.812 143.184M96.74 146.936L97.008 166.5M96.74 146.936L100.492 144.792M97.008 166.5L100.76 163.82L100.492 144.792M95.936 138.896L97.812 143.184M97.812 143.184L100.492 144.792" stroke="black" stroke-width="0.5"/>
<path d="M94.864 144.859V143.251C94.864 142.447 99.152 142.447 99.152 143.251V144.859C98.08 145.663 96.1504 145.717 94.864 144.859Z" fill="#2C2985"/>
<path d="M94.864 143.251V144.859C96.1504 145.717 98.08 145.663 99.152 144.859V143.251M94.864 143.251C94.864 144.055 99.152 144.055 99.152 143.251M94.864 143.251C94.864 142.447 99.152 142.447 99.152 143.251" stroke="black" stroke-width="0.5"/>
<path d="M86.288 146.668L83.072 140.504L87.36 147.204L90.308 148.812L94.596 146.936L91.112 149.884V156.852L94.328 163.552L89.772 156.852L87.092 155.244L83.072 156.852L86.288 154.172V146.668Z" fill="#FD5F72"/>
<path d="M90.308 149.884L87.092 148.008V154.172L90.308 156.048V149.884Z" fill="#FEAD6D"/>
<path d="M101.132 213.018C100.835 206.794 101.132 204.423 101.132 199.089C100.835 198.2 101.727 195.237 106.191 190.495C111.449 186.148 122.619 177.337 125.238 176.863C128.412 172.516 135.892 162.875 140.416 159.082C150.832 151.673 170.176 141.004 176.128 138.93C180.592 139.522 183.866 139.819 187.734 140.115C188.826 139.621 190.71 138.633 191.603 138.041C202.019 137.152 221.363 151.08 222.256 158.785C222.836 163.79 222.256 174.492 222.256 176.566C222.355 176.764 221.959 176.863 221.363 177.752C221.066 177.455 220.768 177.159 219.875 177.159C218.685 170.936 204.102 179.826 203.507 191.384L160.95 217.463C160.653 216.277 160.355 215.388 158.569 214.203C159.462 205.905 142.499 212.128 141.904 230.799C127.024 238.207 103.215 217.759 101.132 213.018Z" fill="#C8C7CB" stroke="black" stroke-width="0.5"/>
<path d="M157.974 201.46C165.117 172.121 192.198 152.858 216.602 160.86C216.007 163.823 161.248 201.164 157.974 201.46Z" fill="#9D9AA4" stroke="black" stroke-width="0.5"/>
<path d="M141.902 230.799L144.58 232.577C138.332 226.65 150.832 210.943 158.473 214.151L153.211 211.24C149.939 211.536 141.604 219.834 141.902 230.799Z" fill="#453F52"/>
<path d="M158.568 214.203L158.473 214.151M158.473 214.151L153.211 211.24C149.939 211.536 141.604 219.834 141.902 230.799L144.58 232.577C138.332 226.65 150.832 210.943 158.473 214.151Z" stroke="black" stroke-width="0.5"/>
<path d="M207.079 195.533C205.591 195.237 202.912 193.458 202.019 192.273L203.507 191.384C203.805 181.604 213.328 175.677 216.602 175.085C217.495 175.48 219.399 176.448 219.875 177.159C215.709 175.677 202.614 185.753 207.079 195.533Z" fill="#453F52" stroke="black" stroke-width="0.5"/>
<path d="M167.2 176.863C159.164 172.714 148.153 166.49 141.308 160.86C137.241 163.823 129.404 171.528 127.619 178.048C132.975 183.975 148.451 194.347 154.403 195.829C158.867 191.68 164.224 182.79 167.2 176.863Z" fill="#716C7A" stroke="black" stroke-width="0.5"/>
<path d="M185.056 167.083C175.235 170.343 164.819 186.346 162.438 195.237C163.331 195.533 163.331 195.533 164.819 196.126C173.152 190.791 189.222 180.123 190.71 178.937C190.413 178.344 186.544 169.75 185.056 167.083Z" fill="#716C7A" stroke="black" stroke-width="0.5"/>
<path d="M159.324 214.775C160.729 215.926 161.247 217.95 160.879 220.355C160.511 222.754 159.265 225.484 157.215 227.965C155.165 230.447 152.715 232.191 150.423 233.013C148.124 233.837 146.03 233.721 144.625 232.57C143.22 231.419 142.702 229.396 143.07 226.991C143.438 224.592 144.684 221.862 146.734 219.38C148.784 216.899 151.233 215.154 153.526 214.332C155.825 213.508 157.919 213.624 159.324 214.775Z" fill="#716C7A" stroke="black" stroke-width="0.5"/>
<path d="M192.496 177.159C190.71 174.492 188.33 169.75 187.139 166.194C192.496 163.823 195.77 162.342 201.424 161.452C202.614 162.342 203.805 164.416 204.995 168.269C201.722 170.639 199.043 172.714 192.496 177.159Z" fill="#716C7A" stroke="black" stroke-width="0.5"/>
<path d="M207.079 166.787L204.103 160.86C206.781 160.662 212.257 160.504 212.733 161.452C213.209 162.401 212.931 162.045 212.733 161.749C211.642 163.527 208.864 165.898 207.079 166.787Z" fill="#716C7A"/>
<path d="M203.805 155.229C198.448 149.302 184.342 140.826 179.104 140.115C182.378 140.411 189.52 140.716 191.306 141.301C198.746 141.893 213.09 150.072 213.328 155.525C211.939 155.92 208.09 156.414 203.805 155.229Z" fill="#716C7A"/>
<path d="M207.079 166.787L204.103 160.86C206.781 160.662 212.257 160.504 212.733 161.452C213.209 162.401 212.931 162.045 212.733 161.749C211.642 163.527 208.864 165.898 207.079 166.787Z" stroke="black" stroke-width="0.5"/>
<path d="M203.805 155.229C198.448 149.302 184.342 140.826 179.104 140.115C182.378 140.411 189.52 140.716 191.306 141.301C198.746 141.893 213.09 150.072 213.328 155.525C211.939 155.92 208.09 156.414 203.805 155.229Z" stroke="black" stroke-width="0.5"/>
<path d="M106.192 190.791C105.596 191.088 100.537 196.126 101.132 199.385C102.025 202.053 105.537 205.016 106.489 205.016C106.787 204.917 107.144 201.934 106.192 190.791Z" fill="white" stroke="black" stroke-width="0.5"/>
<path d="M110.06 210.054C109.564 209.659 109.167 207.387 109.167 202.645C111.846 203.831 121.964 209.165 123.155 211.536C122.163 212.82 119.881 215.388 118.691 215.388C116.31 214.302 111.251 211.714 110.06 210.054Z" fill="#453F52" stroke="black" stroke-width="0.5"/>
<path d="M126.726 213.018C126.032 213.512 124.583 214.855 124.345 216.277C126.726 219.537 134.821 219.122 136.249 218.648C139.821 217.167 141.606 213.907 141.309 212.129C141.011 210.35 127.916 212.171 126.726 213.018Z" fill="white" stroke="black" stroke-width="0.5"/>
<path d="M107.847 213.434L108.094 210.481L119.093 218.231L118.872 220.889L107.847 213.434Z" fill="#EFEFEF" stroke="black" stroke-width="0.5"/>
<path d="M102.025 207.683L101.132 205.905V210.647L102.025 211.24V207.683Z" stroke="black" stroke-width="0.5"/>
<path d="M102.025 211.24V207.683C105.255 215.324 122.29 225.705 124.345 225.4V227.539C115.83 226.011 103.493 214.601 102.025 211.24Z" stroke="black" stroke-width="0.5"/>
<path d="M130.595 226.057C129.702 225.761 125.833 225.464 124.643 225.464V227.539L127.619 228.428L130.595 229.021C132.678 228.724 132.023 226.294 130.595 226.057Z" stroke="black" stroke-width="0.5"/>
<path d="M221.546 177.927C222.909 178.965 223.444 180.892 223.133 183.242C222.822 185.584 221.673 188.292 219.747 190.8C217.82 193.308 215.497 195.122 213.308 196.033C211.112 196.948 209.104 196.938 207.742 195.9C206.379 194.863 205.844 192.936 206.155 190.586C206.466 188.244 207.615 185.536 209.542 183.028C211.468 180.519 213.792 178.706 215.98 177.794C218.176 176.879 220.184 176.889 221.546 177.927Z" fill="#716C7A" stroke="black" stroke-width="0.5"/>
<path d="M158.142 216.967C159.164 217.843 159.522 219.361 159.201 221.169C158.882 222.97 157.894 225.012 156.301 226.855C154.708 228.698 152.828 229.975 151.086 230.558C149.339 231.143 147.779 231.017 146.756 230.141C145.734 229.264 145.377 227.747 145.697 225.939C146.016 224.137 147.004 222.096 148.597 220.253C150.19 218.41 152.07 217.132 153.812 216.55C155.559 215.965 157.12 216.091 158.142 216.967Z" stroke="black" stroke-width="0.5"/>
<path d="M147.856 223.39C147.856 223.153 149.344 220.13 150.534 219.241C153.808 222.204 151.725 225.464 147.856 223.39Z" stroke="black" stroke-width="0.5"/>
<path d="M156.539 218.2C155.943 217.311 154.165 217.048 153.213 217.759C153.213 219.043 153.563 221.756 154.158 221.756C155.051 221.756 156.836 219.681 156.539 218.2Z" stroke="black" stroke-width="0.5"/>
<path d="M154.998 224.279C155.097 224.081 155.236 223.627 154.998 223.39C155.693 222.402 157.379 220.426 157.677 220.13C157.577 221.711 157.081 224.931 155.891 225.168C155.693 225.168 155.296 224.872 154.998 224.279Z" stroke="black" stroke-width="0.5"/>
<path d="M153.51 226.057C153.312 226.057 152.855 226.176 152.617 226.65L150.832 229.613C151.923 228.922 154.165 227.42 154.403 226.946C154.403 226.749 154.224 226.294 153.51 226.057Z" stroke="black" stroke-width="0.5"/>
<path d="M151.129 225.464C149.939 225.761 147.439 226.353 146.963 226.353C146.665 227.243 147.201 229.317 148.153 229.317C149.939 229.021 151.129 226.946 151.427 226.353C151.328 226.156 151.129 225.701 151.129 225.464Z" stroke="black" stroke-width="0.5"/>
<path d="M213.328 182.79C212.435 183.481 210.59 185.575 210.352 187.235C211.84 187.828 212.733 187.828 213.626 187.531C213.923 187.334 214.578 187.057 214.816 186.346C214.816 185.259 214.518 183.027 213.328 182.79Z" stroke="black" stroke-width="0.5"/>
<path d="M219.28 181.901C218.586 181.11 217.435 180.36 216.006 181.308C216.006 182.197 216.006 183.679 216.304 185.457C216.403 185.556 216.721 185.694 217.197 185.457C217.99 184.667 219.28 182.375 219.28 181.901Z" stroke="black" stroke-width="0.5"/>
<path d="M220.173 183.975C219.479 184.568 217.971 185.99 217.494 186.939C217.346 187.235 217.395 187.531 217.494 187.828C217.594 188.124 217.971 188.717 218.685 188.717C219.379 187.828 220.649 185.635 220.173 183.975Z" stroke="black" stroke-width="0.5"/>
<path d="M216.304 189.606C216.007 189.507 215.709 189.902 215.411 190.199C214.717 190.989 213.328 192.984 213.328 193.458C214.618 192.668 217.197 190.732 217.197 190.495C217.197 190.199 217.019 189.606 216.304 189.606Z" stroke="black" stroke-width="0.5"/>
<path d="M213.923 189.31C212.535 189.408 209.698 189.665 209.459 189.902C209.162 191.088 210.233 192.925 210.947 193.162C211.939 192.273 213.983 190.376 214.221 189.902C214.221 189.902 213.923 189.547 213.923 189.31Z" stroke="black" stroke-width="0.5"/>
<path d="M162.438 195.237C161.668 195.045 160.177 195.711 160.653 197.607C161.942 198.496 164.7 200.275 165.414 200.275C166.01 200.077 166.902 199.978 167.2 199.089C166.605 197.805 164.819 195.829 162.438 195.237Z" fill="#9D9AA4" stroke="black" stroke-width="0.5"/>
<path d="M185.056 164.712L193.686 182.79V197.311M201.722 159.378L206.781 168.861L207.078 177.159C204.698 177.752 200.531 185.161 200.531 193.162" stroke="black" stroke-width="0.5"/>
</svg>
