<svg width="286" height="271" viewBox="0 0 286 271" fill="none" xmlns="http://www.w3.org/2000/svg">
<path d="M6 86.5L1 83.5L143 1V7.5L6 86.5Z" fill="#FBD5DC"/>
<path d="M1 188.5V83.5L6 86.5V185.5L1 188.5Z" fill="#EDADBF"/>
<path d="M143 7.5V1L285 83L279.5 86L143 7.5Z" fill="#FBD5DC"/>
<path d="M142.5 106.5L143 7.5L279.5 86.1717V185.5L142.5 106.5Z" fill="#EDADBF"/>
<path d="M6 185.5V86.5L143 7.5L142.5 106.5L6 185.5Z" fill="#EFC7D3"/>
<path d="M279.5 185.5V86L285 83V188L279.5 185.5Z" fill="#EFC7D3"/>
<path d="M6 185.5L1 188.5L143 270V264.5L6 185.5Z" fill="#999999"/>
<path d="M143 270V264.5L279.5 185.5L285 188L143 270Z" fill="#999999"/>
<path d="M143 264.5L6 185.5L143 106.5L279.5 185.5L143 264.5Z" fill="#EFEFEF"/>
<path d="M151 22V111L269 179.5V90L151 22Z" fill="white" stroke="black"/>
<path d="M155.5 108.5L156 25L151 22V111L155.5 108.5Z" fill="#EFEFEF" stroke="black" stroke-width="0.5"/>
<path d="M1 83.5172L143 1M1 83.5172V188.5L143 270M1 83.5172L6 86.5M143 1L285 83.2193M143 1V7.25581M285 83.2193V188L143 270M285 83.2193L279.642 86.1982M143 270V264.5M6 86.5V185.5M6 86.5L143 7.25581M6 185.5L143 264.5M6 185.5L143 106.5M143 264.5L279.5 185.5M279.5 185.5L279.642 86.1982M279.5 185.5L143 106.5M279.642 86.1982L143 7.25581M143 7.25581V106.5" stroke="black"/>
<path d="M155.5 108.5L151 111L269 179.5V174.5L155.5 108.5Z" stroke="black" stroke-width="0.5"/>
<path d="M156 45V25L268.5 90V109.5L156 45Z" fill="#999999" stroke="black" stroke-width="0.5"/>
<path d="M157 40L267 102.5" stroke="black" stroke-width="0.5"/>
<path d="M157 35L267 97.5" stroke="black" stroke-width="0.5"/>
<path d="M157 30L267 92.5" stroke="black" stroke-width="0.5"/>
<path d="M128.214 156V137L157 127.5V147.364L128.214 156Z" fill="#653D41"/>
<path d="M131 141L146 136.532L154.5 134" stroke="black"/>
<path d="M131 146L146 141.532L154.5 139" stroke="black"/>
<path d="M131 151L146 146.532L154.5 144" stroke="black"/>
<path d="M118 145.636V126.636L128.214 137V156L118 145.636Z" fill="#371110"/>
<path d="M128.214 137L118 126.636L146.786 118L157 128L128.214 137Z" fill="#AD4E49"/>
<path d="M118 126.636L128.214 137M118 126.636V145.636L128.214 156M118 126.636L146.786 118L157 128M128.214 137V156M128.214 137L157 128M128.214 156L157 147.364V128" stroke="black" stroke-width="0.5"/>
<path d="M40.8052 169.333V160.472C48.8607 171.75 65.7774 166.111 68.1941 160.472V169.333C67.3885 174.167 46.4441 178.194 40.8052 169.333Z" fill="#453F52"/>
<path d="M40.4995 159V169.5C44.5273 176.75 65.7774 175.778 68.1941 169.333V159.5" stroke="black"/>
<path d="M68.2358 158.861C68.2358 161.068 66.7701 163.147 64.2282 164.7C61.6948 166.248 58.1632 167.222 54.2358 167.222C50.3054 167.222 46.841 166.282 44.3763 164.77C41.9072 163.256 40.5 161.213 40.5 159C40.5 156.782 41.9129 154.669 44.3845 153.086C46.85 151.507 50.3121 150.5 54.2358 150.5C58.1632 150.5 61.6948 151.474 64.2282 153.022C66.7701 154.575 68.2358 156.654 68.2358 158.861Z" fill="#453F52" stroke="black"/>
<path d="M63.6661 158.056C63.6661 159.099 62.8074 160.178 61.1112 161.026C59.4449 161.859 57.108 162.389 54.4994 162.389C51.8908 162.389 49.5539 161.859 47.8877 161.026C46.1915 160.178 45.3328 159.099 45.3328 158.056C45.3328 157.012 46.1915 155.933 47.8877 155.085C49.5539 154.252 51.8908 153.722 54.4994 153.722C57.108 153.722 59.4449 154.252 61.1112 155.085C62.8074 155.933 63.6661 157.012 63.6661 158.056Z" fill="#2D2244" stroke="black"/>
<path d="M59.5 123.5L60 87.5L124.5 51V85.5L59.5 123.5Z" fill="#6D5C57"/>
<path d="M58 122.5V87.0588L122.24 50L124 50.8824L59.76 87.3803L59.5 123.5L58 122.5Z" fill="#453F52"/>
<path d="M59.5 123.5L59.7733 87.6669L124.5 50.8867M59.5 123.5L124.475 85.8279L124.5 50.8867M59.5 123.5L58 122.5V87.24L122.727 50L124.5 50.8867" stroke="black" stroke-width="0.5"/>
<path d="M40.8052 161.333V152.472C48.8607 163.75 65.7774 158.111 68.1941 152.472V161.333C67.3885 166.167 46.4441 170.194 40.8052 161.333Z" fill="#453F52"/>
<path d="M40.4995 151V161.5C44.5 169.5 66 168.5 68.1941 161.333V151.5" stroke="black"/>
<path d="M68.2358 150.861C68.2358 153.068 66.7701 155.147 64.2282 156.7C61.6948 158.248 58.1632 159.222 54.2358 159.222C50.3054 159.222 46.841 158.282 44.3763 156.77C41.9072 155.256 40.5 153.213 40.5 151C40.5 148.782 41.9129 146.669 44.3845 145.086C46.85 143.507 50.3121 142.5 54.2358 142.5C58.1632 142.5 61.6948 143.474 64.2282 145.022C66.7701 146.575 68.2358 148.654 68.2358 150.861Z" fill="#453F52" stroke="black"/>
<path d="M63.6661 150.056C63.6661 151.099 62.8074 152.178 61.1112 153.026C59.4449 153.859 57.108 154.389 54.4994 154.389C51.8908 154.389 49.5539 153.859 47.8877 153.026C46.1915 152.178 45.3328 151.099 45.3328 150.056C45.3328 149.012 46.1915 147.933 47.8877 147.085C49.5539 146.252 51.8908 145.722 54.4994 145.722C57.108 145.722 59.4449 146.252 61.1112 147.085C62.8074 147.933 63.6661 149.012 63.6661 150.056Z" fill="#2D2244" stroke="black"/>
<path d="M40.8052 153.333V144.472C48.8607 155.75 65.7774 150.111 68.1941 144.472V153.333C67.3885 158.167 46.4441 162.194 40.8052 153.333Z" fill="#453F52"/>
<path d="M40.4995 143V153.5C44.5 161.5 65.5 160.5 68.1941 153.333V143.5" stroke="black"/>
<path d="M68.2358 142.861C68.2358 145.068 66.7701 147.147 64.2282 148.7C61.6948 150.248 58.1632 151.222 54.2358 151.222C50.3054 151.222 46.841 150.282 44.3763 148.77C41.9072 147.256 40.5 145.213 40.5 143C40.5 140.782 41.9129 138.669 44.3845 137.086C46.85 135.507 50.3121 134.5 54.2358 134.5C58.1632 134.5 61.6948 135.474 64.2282 137.022C66.7701 138.575 68.2358 140.654 68.2358 142.861Z" fill="#453F52" stroke="black"/>
<path d="M63.6661 142.056C63.6661 143.099 62.8074 144.178 61.1112 145.026C59.4449 145.859 57.108 146.389 54.4994 146.389C51.8908 146.389 49.5539 145.859 47.8877 145.026C46.1915 144.178 45.3328 143.099 45.3328 142.056C45.3328 141.012 46.1915 139.933 47.8877 139.085C49.5539 138.252 51.8908 137.722 54.4994 137.722C57.108 137.722 59.4449 138.252 61.1112 139.085C62.8074 139.933 63.6661 141.012 63.6661 142.056Z" fill="#2D2244" stroke="black"/>
<path d="M86.02 133L82 135.412L92.184 141.04L94.06 145.328L96.74 146.936L97.008 166.5L100.76 163.82L100.492 144.792L97.812 143.184L95.936 138.896L86.02 133Z" fill="#FE8470"/>
<path d="M92.184 141.04L82 135.412V157.656L97.008 166.5L96.74 146.936L94.06 145.328L92.184 141.04Z" fill="#FEAD6D"/>
<path d="M82 135.412L92.184 141.04M82 135.412V157.656L97.008 166.5M82 135.412L86.02 133L95.936 138.896M92.184 141.04L94.06 145.328M92.184 141.04L95.936 138.896M94.06 145.328L96.74 146.936M94.06 145.328L97.812 143.184M96.74 146.936L97.008 166.5M96.74 146.936L100.492 144.792M97.008 166.5L100.76 163.82L100.492 144.792M95.936 138.896L97.812 143.184M97.812 143.184L100.492 144.792" stroke="black" stroke-width="0.5"/>
<path d="M94.864 144.859V143.251C94.864 142.447 99.152 142.447 99.152 143.251V144.859C98.08 145.663 96.1504 145.717 94.864 144.859Z" fill="#2C2985"/>
<path d="M94.864 143.251V144.859C96.1504 145.717 98.08 145.663 99.152 144.859V143.251M94.864 143.251C94.864 144.055 99.152 144.055 99.152 143.251M94.864 143.251C94.864 142.447 99.152 142.447 99.152 143.251" stroke="black" stroke-width="0.5"/>
<path d="M86.288 146.668L83.072 140.504L87.36 147.204L90.308 148.812L94.596 146.936L91.112 149.884V156.852L94.328 163.552L89.772 156.852L87.092 155.244L83.072 156.852L86.288 154.172V146.668Z" fill="#FD5F72"/>
<path d="M90.308 149.884L87.092 148.008V154.172L90.308 156.048V149.884Z" fill="#FEAD6D"/>
</svg>
