<svg width="313" height="358" viewBox="0 0 313 358" fill="none" xmlns="http://www.w3.org/2000/svg">
<path d="M182.54 250.393L17.9999 251.5C36.5 293 91.9998 333 135.245 334.295L182.54 250.393Z" fill="#E0426F"/>
<path d="M227.913 194.041L149.02 335.548C193 340.5 253 315 278.004 277.943L227.913 194.041Z" fill="#453F52"/>
<path d="M200.363 126.418L284.265 269.177C312.5 231.5 322 171.5 302.5 126.418L200.363 126.418Z" fill="#E0426F"/>
<path d="M130.777 114.52L297 113C283.652 76.0891 229.165 29.9934 180.327 26.2366L130.777 114.52Z" fill="#E0426F"/>
<path d="M85.1529 171.5L169.5 24.9999C117.822 18.0812 56.9384 48.9051 34.5 83.5L85.1529 171.5Z" fill="#E0426F"/>
<path d="M112.805 239.123L25.9997 95C0 127.5 -8.00026 199 11.9995 239.123L112.805 239.123Z" fill="#E0426F"/>
</svg>
