<svg width="405" height="454" viewBox="0 0 405 454" fill="none" xmlns="http://www.w3.org/2000/svg">
<path d="M227.54 250.393L62.9999 251.5C81.5 293 137 333 180.245 334.295L227.54 250.393Z" fill="#E0426F"/>
<path d="M272.913 194.041L194.02 335.548C238 340.5 298 315 323.004 277.943L272.913 194.041Z" fill="#453F52"/>
<path d="M245.363 126.418L329.265 269.177C357.5 231.5 367 171.5 347.5 126.418L245.363 126.418Z" fill="#E0426F"/>
<path d="M175.777 114.52L342 113C328.652 76.0891 274.165 29.9934 225.327 26.2366L175.777 114.52Z" fill="#E0426F"/>
<path d="M130.153 171.5L214.5 24.9999C162.822 18.0812 101.938 48.9051 79.5 83.5L130.153 171.5Z" fill="#E0426F"/>
<path d="M157.805 239.123L70.9997 95C45 127.5 36.9997 199 56.9995 239.123L157.805 239.123Z" fill="#E0426F"/>
<path d="M91.0586 437H73.1876L57.7586 407.696H46.6586V437H31.2296V374.951C31.2296 369.031 32.5986 364.739 35.3366 362.075C38.0746 359.337 42.6626 357.968 49.1006 357.968H62.1986C70.0426 357.968 76.2586 360.373 80.8466 365.183C85.5086 369.919 87.8396 375.95 87.8396 383.276C87.8396 388.604 86.4336 393.229 83.6216 397.151C80.8836 400.999 77.4796 403.663 73.4096 405.143L91.0586 437ZM61.1996 394.82C64.4556 394.82 67.1196 393.71 69.1916 391.49C71.3376 389.196 72.4106 386.384 72.4106 383.054C72.4106 379.65 71.3746 376.912 69.3026 374.84C67.3046 372.768 64.6036 371.732 61.1996 371.732H53.5406C48.9526 371.732 46.6586 374.063 46.6586 378.725V394.82H61.1996ZM150.255 408.695H113.292C113.292 414.467 114.18 418.685 115.956 421.349C117.806 424.013 121.469 425.345 126.945 425.345C130.497 425.345 133.124 424.235 134.826 422.015C136.528 419.721 137.379 417.538 137.379 415.466H150.366C150.366 423.384 148.22 429.193 143.928 432.893C139.71 436.593 134.086 438.443 127.056 438.443C120.1 438.443 114.698 437.444 110.85 435.446C102.932 431.376 98.9726 420.572 98.9726 403.034C98.9726 392.6 101.23 384.978 105.744 380.168C110.258 375.284 117.14 372.842 126.39 372.842C142.448 372.842 150.477 381.759 150.477 399.593C150.477 401.517 150.403 404.551 150.255 408.695ZM113.625 398.816H137.379C137.379 393.932 136.454 390.38 134.604 388.16C132.754 385.94 129.905 384.83 126.057 384.83C122.283 384.83 119.249 385.977 116.955 388.271C114.735 390.491 113.625 394.006 113.625 398.816ZM195.97 413.801L209.068 413.69C208.994 414.282 208.92 415.355 208.846 416.909C208.772 418.463 208.698 419.536 208.624 420.128C208.624 420.646 208.55 421.497 208.402 422.681C208.254 423.865 208.069 424.753 207.847 425.345C207.699 425.863 207.477 426.566 207.181 427.454C205.849 431.302 202.223 434.336 196.303 436.556C192.529 437.888 188.57 438.554 184.426 438.554C180.356 438.554 176.656 437.888 173.326 436.556C169.996 435.224 167.369 433.522 165.445 431.45C161.079 426.862 158.896 418.278 158.896 405.698C158.896 393.044 161.079 384.423 165.445 379.835C167.369 377.763 169.996 376.061 173.326 374.729C176.656 373.397 180.356 372.731 184.426 372.731C192.418 372.731 198.486 374.729 202.63 378.725C206.774 382.721 208.846 388.271 208.846 395.375H195.748C195.748 392.119 194.934 389.714 193.306 388.16C191.678 386.532 188.644 385.718 184.204 385.718C179.838 385.718 176.915 387.087 175.435 389.825C174.029 392.563 173.326 396.67 173.326 402.146V407.918C173.326 416.724 175.028 422.126 178.432 424.124C179.986 425.086 182.021 425.567 184.537 425.567C187.053 425.567 189.088 425.345 190.642 424.901C192.27 424.383 193.417 423.532 194.083 422.348C194.823 421.164 195.304 420.017 195.526 418.907C195.748 417.723 195.896 416.021 195.97 413.801ZM262.188 406.364H276.507C276.507 416.428 273.991 424.161 268.959 429.563C263.927 434.965 256.823 437.666 247.647 437.666C227.445 437.666 217.344 425.789 217.344 402.035V395.375C217.344 376.653 222.524 364.924 232.884 360.188C236.954 358.264 241.875 357.302 247.647 357.302C256.083 357.302 262.928 359.633 268.182 364.295C273.51 368.883 276.174 375.543 276.174 384.275H261.744C260.93 379.909 259.487 376.616 257.415 374.396C255.343 372.176 252.087 371.066 247.647 371.066C242.467 371.066 238.619 372.694 236.103 375.95C234.327 378.244 233.291 382.166 232.995 387.716C232.847 389.492 232.773 391.897 232.773 394.931V401.813C232.773 410.323 233.957 416.132 236.325 419.24C238.767 422.348 242.541 423.902 247.647 423.902C252.827 423.902 256.379 422.496 258.303 419.684C260.301 416.798 261.596 412.358 262.188 406.364ZM332.164 437H322.507L318.067 429.341L302.638 437.666C294.054 437.666 288.282 434.558 285.322 428.342C283.842 425.308 282.806 422.052 282.214 418.574C281.696 415.022 281.437 411.359 281.437 407.585C281.437 403.737 281.474 400.925 281.548 399.149C281.622 397.299 281.807 395.19 282.103 392.822C282.399 390.38 282.806 388.345 283.324 386.717C283.916 385.089 284.73 383.424 285.766 381.722C286.802 379.946 288.06 378.54 289.54 377.504C292.87 375.21 297.199 374.063 302.527 374.063H317.734L332.164 373.175V437ZM317.734 416.798V387.05H306.745C302.675 387.05 299.826 388.604 298.198 391.712C296.644 394.82 295.867 399.482 295.867 405.698C295.867 411.84 296.607 416.169 298.087 418.685C299.641 421.201 302.527 422.459 306.745 422.459L317.734 416.798ZM381.468 373.841L377.472 388.049C376.362 387.605 375.104 387.383 373.698 387.383C369.998 387.383 365.447 388.974 360.045 392.156V437H345.615V373.619H356.382L359.712 379.169L375.03 372.842C375.77 372.768 376.769 372.731 378.027 372.731C379.285 372.731 380.432 373.101 381.468 373.841Z" fill="#E0426F"/>
</svg>
