<svg width="313" height="358" viewBox="0 0 313 358" fill="none" xmlns="http://www.w3.org/2000/svg">
<path d="M182.54 249.793L17.9999 250.9C36.5 292.4 91.9998 332.4 135.245 333.695L182.54 249.793Z" fill="white"/>
<path d="M227.913 193.441L149.02 334.947C193 339.9 253 314.4 278.004 277.343L227.913 193.441Z" fill="#453F52"/>
<path d="M200.363 125.818L284.265 268.577C312.5 230.9 322 170.9 302.5 125.818L200.363 125.818Z" fill="white"/>
<path d="M130.777 113.92L297 112.4C283.652 75.489 229.165 29.3933 180.327 25.6365L130.777 113.92Z" fill="white"/>
<path d="M85.1529 170.9L169.5 24.3998C117.822 17.4811 56.9384 48.305 34.5 82.8999L85.1529 170.9Z" fill="white"/>
<path d="M112.805 238.522L25.9997 94.3999C0 126.9 -8.00026 198.4 11.9995 238.522L112.805 238.522Z" fill="white"/>
</svg>
