<svg width="405" height="454" viewBox="0 0 405 454" fill="none" xmlns="http://www.w3.org/2000/svg">
<path d="M227.54 249.793L62.9999 250.9C81.5 292.4 137 332.4 180.245 333.695L227.54 249.793Z" fill="white"/>
<path d="M245.363 125.818L329.265 268.577C357.5 230.9 367 170.9 347.5 125.818L245.363 125.818Z" fill="white"/>
<path d="M175.777 113.92L342 112.4C328.652 75.489 274.165 29.3933 225.327 25.6365L175.777 113.92Z" fill="white"/>
<path d="M130.153 170.9L214.5 24.3998C162.822 17.4811 101.938 48.305 79.5 82.8999L130.153 170.9Z" fill="white"/>
<path d="M157.805 238.522L70.9997 94.3999C45 126.9 36.9997 198.4 56.9995 238.522L157.805 238.522Z" fill="white"/>
<path d="M91.0586 436.4H73.1876L57.7586 407.096H46.6586V436.4H31.2296V374.351C31.2296 368.431 32.5986 364.139 35.3366 361.475C38.0746 358.737 42.6626 357.368 49.1006 357.368H62.1986C70.0426 357.368 76.2586 359.773 80.8466 364.583C85.5086 369.319 87.8396 375.35 87.8396 382.676C87.8396 388.004 86.4336 392.629 83.6216 396.551C80.8836 400.399 77.4796 403.063 73.4096 404.543L91.0586 436.4ZM61.1996 394.22C64.4556 394.22 67.1196 393.11 69.1916 390.89C71.3376 388.596 72.4106 385.784 72.4106 382.454C72.4106 379.05 71.3746 376.312 69.3026 374.24C67.3046 372.168 64.6036 371.132 61.1996 371.132H53.5406C48.9526 371.132 46.6586 373.463 46.6586 378.125V394.22H61.1996ZM150.255 408.095H113.292C113.292 413.867 114.18 418.085 115.956 420.749C117.806 423.413 121.469 424.745 126.945 424.745C130.497 424.745 133.124 423.635 134.826 421.415C136.528 419.121 137.379 416.938 137.379 414.866H150.366C150.366 422.784 148.22 428.593 143.928 432.293C139.71 435.993 134.086 437.843 127.056 437.843C120.1 437.843 114.698 436.844 110.85 434.846C102.932 430.776 98.9726 419.972 98.9726 402.434C98.9726 392 101.23 384.378 105.744 379.568C110.258 374.684 117.14 372.242 126.39 372.242C142.448 372.242 150.477 381.159 150.477 398.993C150.477 400.917 150.403 403.951 150.255 408.095ZM113.625 398.216H137.379C137.379 393.332 136.454 389.78 134.604 387.56C132.754 385.34 129.905 384.23 126.057 384.23C122.283 384.23 119.249 385.377 116.955 387.671C114.735 389.891 113.625 393.406 113.625 398.216ZM195.97 413.201L209.068 413.09C208.994 413.682 208.92 414.755 208.846 416.309C208.772 417.863 208.698 418.936 208.624 419.528C208.624 420.046 208.55 420.897 208.402 422.081C208.254 423.265 208.069 424.153 207.847 424.745C207.699 425.263 207.477 425.966 207.181 426.854C205.849 430.702 202.223 433.736 196.303 435.956C192.529 437.288 188.57 437.954 184.426 437.954C180.356 437.954 176.656 437.288 173.326 435.956C169.996 434.624 167.369 432.922 165.445 430.85C161.079 426.262 158.896 417.678 158.896 405.098C158.896 392.444 161.079 383.823 165.445 379.235C167.369 377.163 169.996 375.461 173.326 374.129C176.656 372.797 180.356 372.131 184.426 372.131C192.418 372.131 198.486 374.129 202.63 378.125C206.774 382.121 208.846 387.671 208.846 394.775H195.748C195.748 391.519 194.934 389.114 193.306 387.56C191.678 385.932 188.644 385.118 184.204 385.118C179.838 385.118 176.915 386.487 175.435 389.225C174.029 391.963 173.326 396.07 173.326 401.546V407.318C173.326 416.124 175.028 421.526 178.432 423.524C179.986 424.486 182.021 424.967 184.537 424.967C187.053 424.967 189.088 424.745 190.642 424.301C192.27 423.783 193.417 422.932 194.083 421.748C194.823 420.564 195.304 419.417 195.526 418.307C195.748 417.123 195.896 415.421 195.97 413.201ZM262.188 405.764H276.507C276.507 415.828 273.991 423.561 268.959 428.963C263.927 434.365 256.823 437.066 247.647 437.066C227.445 437.066 217.344 425.189 217.344 401.435V394.775C217.344 376.053 222.524 364.324 232.884 359.588C236.954 357.664 241.875 356.702 247.647 356.702C256.083 356.702 262.928 359.033 268.182 363.695C273.51 368.283 276.174 374.943 276.174 383.675H261.744C260.93 379.309 259.487 376.016 257.415 373.796C255.343 371.576 252.087 370.466 247.647 370.466C242.467 370.466 238.619 372.094 236.103 375.35C234.327 377.644 233.291 381.566 232.995 387.116C232.847 388.892 232.773 391.297 232.773 394.331V401.213C232.773 409.723 233.957 415.532 236.325 418.64C238.767 421.748 242.541 423.302 247.647 423.302C252.827 423.302 256.379 421.896 258.303 419.084C260.301 416.198 261.596 411.758 262.188 405.764ZM332.164 436.4H322.507L318.067 428.741L302.638 437.066C294.054 437.066 288.282 433.958 285.322 427.742C283.842 424.708 282.806 421.452 282.214 417.974C281.696 414.422 281.437 410.759 281.437 406.985C281.437 403.137 281.474 400.325 281.548 398.549C281.622 396.699 281.807 394.59 282.103 392.222C282.399 389.78 282.806 387.745 283.324 386.117C283.916 384.489 284.73 382.824 285.766 381.122C286.802 379.346 288.06 377.94 289.54 376.904C292.87 374.61 297.199 373.463 302.527 373.463H317.734L332.164 372.575V436.4ZM317.734 416.198V386.45H306.745C302.675 386.45 299.826 388.004 298.198 391.112C296.644 394.22 295.867 398.882 295.867 405.098C295.867 411.24 296.607 415.569 298.087 418.085C299.641 420.601 302.527 421.859 306.745 421.859L317.734 416.198ZM381.468 373.241L377.472 387.449C376.362 387.005 375.104 386.783 373.698 386.783C369.998 386.783 365.447 388.374 360.045 391.556V436.4H345.615V373.019H356.382L359.712 378.569L375.03 372.242C375.77 372.168 376.769 372.131 378.027 372.131C379.285 372.131 380.432 372.501 381.468 373.241Z" fill="white"/>
</svg>
