<svg width="528" height="126" viewBox="0 0 528 126" fill="none" xmlns="http://www.w3.org/2000/svg">
<path d="M64.0855 88.0726L6.07152 88.4629C12.5943 103.095 32.1626 117.198 47.4102 117.655L64.0855 88.0726Z" fill="#E0426F"/>
<path d="M80.0831 68.2039L52.267 118.097C67.7734 119.843 88.9283 110.852 97.7444 97.7864L80.0831 68.2039Z" fill="#453F52"/>
<path d="M70.3694 44.3611L99.9517 94.6953C109.907 81.4111 113.257 60.2561 106.381 44.3611L70.3694 44.3611Z" fill="#E0426F"/>
<path d="M45.8348 40.1662L104.442 39.6301C99.7358 26.616 80.5248 10.3635 63.3051 9.03888L45.8348 40.1662Z" fill="#E0426F"/>
<path d="M29.7482 60.2563L59.4874 8.60295C41.2668 6.16352 19.8002 17.0315 11.8889 29.229L29.7482 60.2563Z" fill="#E0426F"/>
<path d="M39.4979 84.0988L8.89211 33.2837C-0.274938 44.7426 -3.09569 69.9523 3.95587 84.0988L39.4979 84.0988Z" fill="#E0426F"/>
<path d="M214.059 101H196.188L180.759 71.696H169.659V101H154.23V38.951C154.23 33.031 155.599 28.739 158.337 26.075C161.075 23.337 165.663 21.968 172.101 21.968H185.199C193.043 21.968 199.259 24.373 203.847 29.183C208.509 33.919 210.84 39.95 210.84 47.276C210.84 52.604 209.434 57.229 206.622 61.151C203.884 64.999 200.48 67.663 196.41 69.143L214.059 101ZM184.2 58.82C187.456 58.82 190.12 57.71 192.192 55.49C194.338 53.196 195.411 50.384 195.411 47.054C195.411 43.65 194.375 40.912 192.303 38.84C190.305 36.768 187.604 35.732 184.2 35.732H176.541C171.953 35.732 169.659 38.063 169.659 42.725V58.82H184.2ZM273.255 72.695H236.292C236.292 78.467 237.18 82.685 238.956 85.349C240.806 88.013 244.469 89.345 249.945 89.345C253.497 89.345 256.124 88.235 257.826 86.015C259.528 83.721 260.379 81.538 260.379 79.466H273.366C273.366 87.384 271.22 93.193 266.928 96.893C262.71 100.593 257.086 102.443 250.056 102.443C243.1 102.443 237.698 101.444 233.85 99.446C225.932 95.376 221.973 84.572 221.973 67.034C221.973 56.6 224.23 48.978 228.744 44.168C233.258 39.284 240.14 36.842 249.39 36.842C265.448 36.842 273.477 45.759 273.477 63.593C273.477 65.517 273.403 68.551 273.255 72.695ZM236.625 62.816H260.379C260.379 57.932 259.454 54.38 257.604 52.16C255.754 49.94 252.905 48.83 249.057 48.83C245.283 48.83 242.249 49.977 239.955 52.271C237.735 54.491 236.625 58.006 236.625 62.816ZM318.97 77.801L332.068 77.69C331.994 78.282 331.92 79.355 331.846 80.909C331.772 82.463 331.698 83.536 331.624 84.128C331.624 84.646 331.55 85.497 331.402 86.681C331.254 87.865 331.069 88.753 330.847 89.345C330.699 89.863 330.477 90.566 330.181 91.454C328.849 95.302 325.223 98.336 319.303 100.556C315.529 101.888 311.57 102.554 307.426 102.554C303.356 102.554 299.656 101.888 296.326 100.556C292.996 99.224 290.369 97.522 288.445 95.45C284.079 90.862 281.896 82.278 281.896 69.698C281.896 57.044 284.079 48.423 288.445 43.835C290.369 41.763 292.996 40.061 296.326 38.729C299.656 37.397 303.356 36.731 307.426 36.731C315.418 36.731 321.486 38.729 325.63 42.725C329.774 46.721 331.846 52.271 331.846 59.375H318.748C318.748 56.119 317.934 53.714 316.306 52.16C314.678 50.532 311.644 49.718 307.204 49.718C302.838 49.718 299.915 51.087 298.435 53.825C297.029 56.563 296.326 60.67 296.326 66.146V71.918C296.326 80.724 298.028 86.126 301.432 88.124C302.986 89.086 305.021 89.567 307.537 89.567C310.053 89.567 312.088 89.345 313.642 88.901C315.27 88.383 316.417 87.532 317.083 86.348C317.823 85.164 318.304 84.017 318.526 82.907C318.748 81.723 318.896 80.021 318.97 77.801ZM385.188 70.364H399.507C399.507 80.428 396.991 88.161 391.959 93.563C386.927 98.965 379.823 101.666 370.647 101.666C350.445 101.666 340.344 89.789 340.344 66.035V59.375C340.344 40.653 345.524 28.924 355.884 24.188C359.954 22.264 364.875 21.302 370.647 21.302C379.083 21.302 385.928 23.633 391.182 28.295C396.51 32.883 399.174 39.543 399.174 48.275H384.744C383.93 43.909 382.487 40.616 380.415 38.396C378.343 36.176 375.087 35.066 370.647 35.066C365.467 35.066 361.619 36.694 359.103 39.95C357.327 42.244 356.291 46.166 355.995 51.716C355.847 53.492 355.773 55.897 355.773 58.931V65.813C355.773 74.323 356.957 80.132 359.325 83.24C361.767 86.348 365.541 87.902 370.647 87.902C375.827 87.902 379.379 86.496 381.303 83.684C383.301 80.798 384.596 76.358 385.188 70.364ZM455.164 101H445.507L441.067 93.341L425.638 101.666C417.054 101.666 411.282 98.558 408.322 92.342C406.842 89.308 405.806 86.052 405.214 82.574C404.696 79.022 404.437 75.359 404.437 71.585C404.437 67.737 404.474 64.925 404.548 63.149C404.622 61.299 404.807 59.19 405.103 56.822C405.399 54.38 405.806 52.345 406.324 50.717C406.916 49.089 407.73 47.424 408.766 45.722C409.802 43.946 411.06 42.54 412.54 41.504C415.87 39.21 420.199 38.063 425.527 38.063H440.734L455.164 37.175V101ZM440.734 80.798V51.05H429.745C425.675 51.05 422.826 52.604 421.198 55.712C419.644 58.82 418.867 63.482 418.867 69.698C418.867 75.84 419.607 80.169 421.087 82.685C422.641 85.201 425.527 86.459 429.745 86.459L440.734 80.798ZM504.468 37.841L500.472 52.049C499.362 51.605 498.104 51.383 496.698 51.383C492.998 51.383 488.447 52.974 483.045 56.156V101H468.615V37.619H479.382L482.712 43.169L498.03 36.842C498.77 36.768 499.769 36.731 501.027 36.731C502.285 36.731 503.432 37.101 504.468 37.841Z" fill="#E0426F"/>
</svg>
